<svg width="16" height="16" viewBox="0 0 16 16" fill="none" xmlns="http://www.w3.org/2000/svg">
<path fill-rule="evenodd" clip-rule="evenodd" d="M15.3336 0.666483C15.5142 0.666483 15.6705 0.732595 15.8023 0.864381C15.9345 0.996386 16.0001 1.15258 16.0001 1.33315V5.99991C16.0001 6.18048 15.9341 6.33671 15.8023 6.46864C15.6704 6.60061 15.5141 6.66654 15.3336 6.66654H10.6668C10.4863 6.66654 10.33 6.60061 10.1978 6.46864C10.0662 6.33671 10.0001 6.18044 10.0001 5.99991C10.0001 5.81935 10.0662 5.66301 10.1978 5.53104L11.6356 4.09361C10.6077 3.14221 9.39596 2.66648 7.99998 2.66648C7.06949 2.66648 6.20146 2.89225 5.39579 3.34361C4.59018 3.79501 3.94435 4.41658 3.45829 5.20825C3.38182 5.32635 3.19786 5.73258 2.90623 6.42698C2.85062 6.5866 2.74653 6.66651 2.59369 6.66651H0.520796C0.430531 6.66651 0.352451 6.63356 0.286449 6.56756C0.220447 6.50166 0.1875 6.42347 0.1875 6.33321V6.26035C0.6389 4.39911 1.57636 2.89057 3.00007 1.73438C4.42374 0.578042 6.09033 0 8.00013 0C9.01406 0 10.0005 0.192644 10.9586 0.578005C11.9169 0.96333 12.7677 1.50686 13.5107 2.20833L14.8648 0.864381C14.9969 0.732595 15.153 0.666483 15.3336 0.666483ZM13.4062 9.33338H15.4062C15.4966 9.33338 15.5748 9.36648 15.6408 9.43212C15.7068 9.49834 15.7399 9.5762 15.7399 9.66661C15.7399 9.7012 15.7366 9.72553 15.7296 9.7394C15.285 11.6005 14.3544 13.1093 12.9377 14.2654C11.5211 15.4216 9.86141 15.9997 7.9585 15.9997C6.94467 15.9997 5.96376 15.809 5.01582 15.4269C4.06789 15.045 3.22234 14.4997 2.47923 13.7915L1.13551 15.1354C1.0035 15.2671 0.847305 15.3334 0.666775 15.3334C0.486207 15.3334 0.329939 15.2671 0.197898 15.1354C0.0659295 15.0035 0 14.8471 0 14.6666V9.99987C0 9.81934 0.0659295 9.66289 0.197861 9.5311C0.329793 9.39902 0.486061 9.33295 0.666738 9.33295H5.3335C5.51407 9.33295 5.67027 9.39902 5.80223 9.5311C5.93413 9.66285 6.00013 9.8193 6.00013 9.99983C6.00013 10.1803 5.93413 10.3367 5.80223 10.4686L4.3751 11.8956C4.86809 12.354 5.4272 12.7082 6.0522 12.9584C6.67712 13.2083 7.32649 13.3332 8.00006 13.3332C8.93058 13.3332 9.79861 13.1077 10.6043 12.6562C11.4097 12.2048 12.0556 11.5831 12.5418 10.7916C12.6181 10.6735 12.8023 10.2674 13.0938 9.57295C13.1492 9.41318 13.2534 9.33338 13.4062 9.33338Z" fill="#A3A9AE"/>
</svg>
