<svg width="64" height="64" viewBox="0 0 64 64" fill="none" xmlns="http://www.w3.org/2000/svg">
<rect y="16" width="61" height="39" rx="4" fill="#B2BBC0"/>
<path d="M0 7C0 4.79086 1.79086 3 4 3H22C24.2091 3 26 4.79086 26 7V12H57C59.2091 12 61 13.7909 61 16V20C61 17.7909 59.2091 16 57 16H4C1.79086 16 0 17.7909 0 20V7Z" fill="#788790"/>
<path fill-rule="evenodd" clip-rule="evenodd" d="M36 46V51.2571C36.9509 50.4719 38.1704 50 39.5 50C41.7186 50 43.6304 51.3137 44.5 53.2056C45.3696 51.3137 47.2814 50 49.5 50C52.5376 50 55 52.4624 55 55.5C55 58.5376 52.5376 61 49.5 61C47.2814 61 45.3696 59.6863 44.5 57.7944C43.6304 59.6863 41.7186 61 39.5 61C36.631 61 34.275 58.8032 34.0224 56H34V46C34 45.4478 34.4477 45 35 45C35.5523 45 36 45.4478 36 46ZM39.5 59C41.433 59 43 57.4331 43 55.5C43 53.5669 41.433 52 39.5 52C37.567 52 36 53.5669 36 55.5C36 57.4331 37.567 59 39.5 59ZM49.5 59C51.433 59 53 57.4331 53 55.5C53 53.5669 51.433 52 49.5 52C47.567 52 46 53.5669 46 55.5C46 57.4331 47.567 59 49.5 59Z" fill="#0071F7"/>
<path d="M56.7894 50.386L59.5 53.8711L62.2106 50.386C62.3936 50.1511 62.6792 50 63 50C63.5523 50 64 50.4478 64 51C64 51.2373 63.9174 51.4551 63.7794 51.6265L60.7669 55.5L63.7894 59.386C63.9214 59.5554 64 59.7686 64 60C64 60.5522 63.5523 61 63 61C62.6729 61 62.3824 60.843 62.2 60.6001L59.5 57.1287L56.8 60.6001C56.6176 60.843 56.3271 61 56 61C55.4477 61 55 60.5522 55 60C55 59.7686 55.0786 59.5554 55.2106 59.386L58.2331 55.5L55.2206 51.6267C55.0826 51.4553 55 51.2373 55 51C55 50.4478 55.4477 50 56 50C56.3208 50 56.6064 50.1511 56.7894 50.386Z" fill="#0071F7"/>
</svg>
