<svg width="64" height="64" viewBox="0 0 64 64" fill="none" xmlns="http://www.w3.org/2000/svg">
<g clip-path="url(#clip0_623_3896)">
<rect y="16" width="61" height="39" rx="4" fill="#B2BBC0"/>
<path d="M0 7C0 4.79086 1.79086 3 4 3H22C24.2091 3 26 4.79086 26 7V12H57C59.2091 12 61 13.7909 61 16V20C61 17.7909 59.2091 16 57 16H4C1.79086 16 0 17.7909 0 20V7Z" fill="#788790"/>
<path opacity="0.504232" fill-rule="evenodd" clip-rule="evenodd" d="M47.0327 32.0227L49.5848 33.0897C49.9754 33.2529 50.2774 33.5757 50.4145 33.9762L51.4292 36.9423C51.5925 37.4198 51.9879 37.7812 52.4781 37.9011L63.0966 40.4981C63.7591 40.6602 64.2252 41.2539 64.2252 41.936V54.3259C64.2252 55.1434 63.5625 55.8062 62.7449 55.8062C62.5974 55.8062 62.4506 55.7841 62.3096 55.7407L46.0264 50.7305C45.4053 50.5394 44.9814 49.9655 44.9814 49.3157V33.3885C44.9814 32.571 45.6442 31.9082 46.4617 31.9082C46.6578 31.9082 46.8518 31.9471 47.0327 32.0227Z" fill="#D0DFFF"/>
<path opacity="0.8" fill-rule="evenodd" clip-rule="evenodd" d="M43.3315 34.9837L45.8836 36.0506C46.2743 36.2139 46.5762 36.5366 46.7133 36.9372L47.728 39.9032C47.8914 40.3807 48.2867 40.7421 48.7769 40.862L59.3954 43.4591C60.058 43.6211 60.524 44.2149 60.524 44.897V57.2868C60.524 58.1044 59.8613 58.7671 59.0437 58.7671C58.8962 58.7671 58.7494 58.7451 58.6084 58.7017L42.3252 53.6914C41.7041 53.5003 41.2803 52.9265 41.2803 52.2766V36.3494C41.2803 35.5319 41.943 34.8691 42.7606 34.8691C42.9566 34.8691 43.1507 34.9081 43.3315 34.9837Z" fill="#B3CAFF"/>
<path opacity="0.8" d="M56.8238 54.052L60.5245 55.1907V44.8956C60.5245 44.2135 60.0584 43.6197 59.3959 43.4577L48.7774 40.8606C48.2872 40.7407 47.8918 40.3794 47.7284 39.9019L46.7137 36.9358C46.5767 36.5352 46.2747 36.2125 45.8841 36.0492L44.9814 35.6719V43.3506C45.0127 43.3605 45.0445 43.3694 45.0766 43.3773L55.6951 45.9744C56.3577 46.1364 56.8238 46.7302 56.8238 47.4123V54.052Z" fill="#AAC4FF"/>
<path fill-rule="evenodd" clip-rule="evenodd" d="M39.6313 37.4993L42.1834 38.5662C42.5741 38.7295 42.8761 39.0522 43.0131 39.4528L44.0278 42.4189C44.1912 42.8964 44.5865 43.2577 45.0767 43.3776L55.6952 45.9747C56.3578 46.1367 56.8238 46.7305 56.8238 47.4126V59.8025C56.8238 60.62 56.1611 61.2827 55.3435 61.2827C55.196 61.2827 55.0493 61.2607 54.9082 61.2173L38.625 56.2071C38.0039 56.016 37.5801 55.4421 37.5801 54.7922V38.8651C37.5801 38.0475 38.2428 37.3848 39.0604 37.3848C39.2564 37.3848 39.4505 37.4237 39.6313 37.4993Z" fill="#1A47FF"/>
<path fill-rule="evenodd" clip-rule="evenodd" d="M35.8769 44.0638L52.3238 48.6323C52.8203 48.7703 53.2093 49.1565 53.3509 49.652L56.4489 60.4949C56.5612 60.8879 56.3336 61.2976 55.9405 61.4099C55.8027 61.4492 55.6565 61.4477 55.5195 61.4056L38.2924 56.105C37.8443 55.9671 37.4879 55.625 37.3319 55.1828L34.0848 45.9827C33.8127 45.2118 34.2171 44.3663 34.988 44.0942C35.2742 43.9932 35.5845 43.9825 35.8769 44.0638Z" fill="#5287FF"/>
</g>
<defs>
<clipPath id="clip0_623_3896">
<rect width="64" height="64" fill="white"/>
</clipPath>
</defs>
</svg>
