<svg width="64" height="64" viewBox="0 0 64 64" fill="none" xmlns="http://www.w3.org/2000/svg">
<g clip-path="url(#clip0_623_3912)">
<rect y="16" width="61" height="39" rx="4" fill="#B2BBC0"/>
<path d="M0 7C0 4.79086 1.79086 3 4 3H22C24.2091 3 26 4.79086 26 7V12H57C59.2091 12 61 13.7909 61 16V20C61 17.7909 59.2091 16 57 16H4C1.79086 16 0 17.7909 0 20V7Z" fill="#788790"/>
<path d="M34.295 58.2883C34.1984 57.9907 34.1083 57.6621 34.0721 57.3842C33.7944 55.2476 36.1988 52.2382 36.1988 52.2382L38.1442 49.9636C39.4682 46.8927 39.6263 45.0505 43.7057 42.7639C47.24 40.7829 50.7489 41.1564 53.9631 42.3406C53.9631 42.3406 57.3103 42.3013 59.2898 42.5704C59.4741 42.5955 59.6477 42.6168 59.8132 42.6372C60.8143 42.8698 61.701 43.0866 62.681 43.7215C63.1321 44.0138 63.4137 44.3644 63.6479 44.6736C61.5017 42.1177 54.4256 43.2464 46.4091 46.7588C39.1649 50.3718 33.7691 55.1052 34.295 58.2883Z" fill="black"/>
<path d="M63.7757 44.8484C65.0092 47.5979 60.9974 53.7186 52.6834 58.024C45.5549 61.4595 36.8671 62.0389 34.5824 59.117C32.8029 55.9757 38.5048 50.703 46.4049 46.7628C54.5945 43.1746 61.8026 42.0742 63.7757 44.8484Z" fill="#0077FF"/>
<path d="M57.152 50.7656C57.8257 52.0762 55.4397 54.3612 51.4757 56.4032C48.0838 58.0459 44.3035 58.8371 43.2618 57.4903C42.5217 56.2096 45.1068 53.6862 48.8694 51.8096C52.7566 50.0741 56.2456 49.504 57.152 50.7656Z" fill="white"/>
</g>
<defs>
<clipPath id="clip0_623_3912">
<rect width="64" height="64" fill="white"/>
</clipPath>
</defs>
</svg>
