<svg width="24" height="24" viewBox="0 0 24 24" fill="none" xmlns="http://www.w3.org/2000/svg">
<path d="M3 1H16L21 7V23H3V1Z" fill="white"/>
<path d="M21 7L16 1H3V16H2V0H16L22 7V16H21V7Z" fill="#BFBFBF"/>
<path fill-rule="evenodd" clip-rule="evenodd" d="M3 15C2.44772 15 2 15.4477 2 16V23C2 23.5523 2.44772 24 3 24H21C21.5523 24 22 23.5523 22 23V16C22 15.4477 21.5523 15 21 15H3ZM17 17H16V19H17V21H18V22H19V20H20V18H21V17H19V20H18V18H17V17ZM14 17H12V18H11V19H12V20H14V21H11V22H14V21H15V20H14V19H12V18H14V17ZM5 18V17H8V18H5ZM5 21H4V18H5V21ZM8 21V22H5V21H8ZM8 21V20H9V21H8ZM8 18H9V19H8V18Z" fill="#6AAA1E"/>
<path fill-rule="evenodd" clip-rule="evenodd" d="M15 3H4V14H20V8H11V4H15V3ZM5 8V4H10V8H5ZM11 13V9H19V13H11ZM10 9V13H5V9H10Z" fill="#BFBFBF"/>
<path opacity="0.3" d="M14 9V1H15V8H21V9H14Z" fill="black"/>
</svg>
