<svg width="24" height="24" viewBox="0 0 24 24" fill="none" xmlns="http://www.w3.org/2000/svg">
<path d="M3 1H16L21 7V23H3V1Z" fill="white"/>
<path d="M21 7L16 1H3V16H2V0H16L22 7V16H21V7Z" fill="#BFBFBF"/>
<path fill-rule="evenodd" clip-rule="evenodd" d="M2 16C2 15.4477 2.44772 15 3 15H21C21.5523 15 22 15.4477 22 16V23C22 23.5523 21.5523 24 21 24H3C2.44772 24 2 23.5523 2 23V16ZM11 17H12V18H13V20H14V22H13V21H12V19H11V17ZM14 20V17H16V18H15V20H14ZM4 22V17H7V18H5V21H7V22H4ZM7 21V18H8V21H7ZM9 16H10V17H9V16ZM8 22H9V18H10V23H8V22ZM17 18H18V21H19V18H20V22H17V18Z" fill="#BC8C18"/>
<path d="M7 4H4V7H7V4Z" fill="#BFBFBF"/>
<path d="M15 8V4H8V8H4V10H6V11H4V13H18V12H20V10H11V9H20V8H15Z" fill="#BFBFBF"/>
<path opacity="0.3" d="M14 9V1H15V8H21V9H14Z" fill="black"/>
</svg>
