<svg width="24" height="24" viewBox="0 0 24 24" fill="none" xmlns="http://www.w3.org/2000/svg">
<path d="M3 1H16L21 7V23H3V1Z" fill="white"/>
<path d="M21 7L16 1H3V16H2V0H16L22 7V16H21V7Z" fill="#BFBFBF"/>
<path fill-rule="evenodd" clip-rule="evenodd" d="M3 15C2.44772 15 2 15.4477 2 16V23C2 23.5523 2.44772 24 3 24H21C21.5523 24 22 23.5523 22 23V16C22 15.4477 21.5523 15 21 15H3ZM4 22V17H7V18H5V21H7V22H4ZM7 21V18H8V21H7ZM19 17H17V18H16V21H17V22H19V21H20V20H19V21H17V18H19V19H20V18H19V17ZM11 18V17H13V18H11ZM11 21H10V18H11V21ZM13 21V22H11V21H13ZM13 21H14V18H13V21Z" fill="#1E7AAA"/>
<path d="M4 3H15V5H4V3Z" fill="#BFBFBF"/>
<path d="M15 7H4V9H20V8H15V7Z" fill="#BFBFBF"/>
<path d="M17 11H4V13H17V11Z" fill="#BFBFBF"/>
<path opacity="0.3" d="M14 9V1H15V8H21V9H14Z" fill="black"/>
</svg>
