<svg width="24" height="24" viewBox="0 0 24 24" fill="none" xmlns="http://www.w3.org/2000/svg">
<path d="M3 1H16L21 7V23H3V1Z" fill="white"/>
<path d="M21 7L16 1H3V16H2V0H16L22 7V16H21V7Z" fill="#BFBFBF"/>
<path fill-rule="evenodd" clip-rule="evenodd" d="M3 15C2.44772 15 2 15.4477 2 16V23C2 23.5523 2.44772 24 3 24H21C21.5523 24 22 23.5523 22 23V16C22 15.4477 21.5523 15 21 15H3ZM3 22V17H5V18H4V21H5V22H3ZM5 21H6V18H5V21ZM19 17H20V22H19V20H18V18H19V17ZM17 20H18V22H17V20ZM17 20H16V22H15V17H16V18H17V20ZM7 18H8V21H7V18ZM9 21V22H8V21H9ZM9 18H10V21H9V18ZM9 18V17H8V18H9ZM12 21H13V22H12V21ZM12 18V21H11V18H12ZM12 18H13V19H14V18H13V17H12V18ZM13 21H14V20H13V21Z" fill="#1E7AAA"/>
<path d="M15 3H4V5H15V3Z" fill="#BFBFBF"/>
<path d="M15 7H4V9H20V8H15V7Z" fill="#BFBFBF"/>
<path d="M20 11H4V13H20V11Z" fill="#BFBFBF"/>
<path opacity="0.3" d="M14 9V1H15V8H21V9H14Z" fill="black"/>
</svg>
