<svg width="24" height="24" viewBox="0 0 24 24" fill="none" xmlns="http://www.w3.org/2000/svg">
<path d="M3 1H16L21 7V23H3V1Z" fill="white"/>
<path d="M21 7L16 1H3V16H2V0H16L22 7V16H21V7Z" fill="#BFBFBF"/>
<path fill-rule="evenodd" clip-rule="evenodd" d="M2 16C2 15.4477 2.44772 15 3 15H21C21.5523 15 22 15.4477 22 16V23C22 23.5523 21.5523 24 21 24H3C2.44772 24 2 23.5523 2 23V16ZM18 17H17V19H18V20H17V22H18V20H20V22H21V20H20V19H21V17H20V19H18V17ZM3 22V17H6V18H4V21H6V22H3ZM6 21V18H7V21H6ZM16 17H14V18H13V21H14V22H16V21H14V18H16V17ZM9 18V17H11V18H9ZM9 21H8V18H9V21ZM11 21V22H9V21H11ZM11 21H12V18H11V21Z" fill="#1E7AAA"/>
<path d="M4 3H15V5H4V3Z" fill="#BFBFBF"/>
<path d="M15 7H4V9H20V8H15V7Z" fill="#BFBFBF"/>
<path d="M17 11H4V13H17V11Z" fill="#BFBFBF"/>
<path opacity="0.3" d="M14 9V1H15V8H21V9H14Z" fill="black"/>
</svg>
