<svg width="24" height="24" viewBox="0 0 24 24" fill="none" xmlns="http://www.w3.org/2000/svg">
<path d="M3 1H16L21 7V23H3V1Z" fill="white"/>
<path d="M21 7L16 1H3V16H2V0H16L22 7V16H21V7Z" fill="#BFBFBF"/>
<path d="M19 18V21H17V18H19Z" fill="#464B4F"/>
<path fill-rule="evenodd" clip-rule="evenodd" d="M3 15C2.44772 15 2 15.4477 2 16V23C2 23.5523 2.44772 24 3 24H21C21.5523 24 22 23.5523 22 23V16C22 15.4477 21.5523 15 21 15H3ZM4 22V17H7V18H5V21H7V22H4ZM7 21V18H8V21H7ZM16 17V22H19V21H20V18H19V17H16ZM11 17H10V19H11V21H12V22H13V20H14V17H13V20H12V18H11V17Z" fill="#464B4F"/>
<path d="M4 2V12H10V13H8V14H16V13H14V12H20V8H19V11H5V3H15V2H4Z" fill="#BFBFBF"/>
<path opacity="0.3" d="M14 9V1H15V8H21V9H14Z" fill="black"/>
</svg>
