<svg width="24" height="24" viewBox="0 0 24 24" fill="none" xmlns="http://www.w3.org/2000/svg">
<path d="M3 1H16L21 7V23H3V1Z" fill="white"/>
<path d="M21 7L16 1H3V16H2V0H16L22 7V16H21V7Z" fill="#BFBFBF"/>
<path fill-rule="evenodd" clip-rule="evenodd" d="M3 15C2.44772 15 2 15.4477 2 16V23C2 23.5523 2.44772 24 3 24H21C21.5523 24 22 23.5523 22 23V16C22 15.4477 21.5523 15 21 15H3ZM8 17H4V22H5V20H7V19H5V18H8V17ZM11 17H10V22H13V21H11V17ZM16 17H15V19H16V21H17V22H18V20H19V18H20V17H18V20H17V18H16V17Z" fill="#C83F28"/>
<path fill-rule="evenodd" clip-rule="evenodd" d="M5 3H4V14H5V13H6V14H7V12H17V14H18V13H19V14H20V8H17V11H7V6H15V5H7V3H6V4H5V3ZM6 5H5V6H6V5ZM5 7H6V8H5V7ZM6 9H5V10H6V9ZM5 11H6V12H5V11ZM19 9H18V10H19V9ZM18 11H19V12H18V11Z" fill="#BFBFBF"/>
<path opacity="0.3" d="M14 9V1H15V8H21V9H14Z" fill="black"/>
</svg>
