<svg width="24" height="24" viewBox="0 0 24 24" fill="none" xmlns="http://www.w3.org/2000/svg">
<path d="M4 3H15L20 8V22H4V3Z" fill="white"/>
<path d="M20 8V15H21V8L15 2H3V15H4V3H15L20 8Z" fill="url(#paint0_linear)"/>
<path d="M10 18.5V20.5C10 20.7764 9.77612 21 9.5 21C9.22388 21 9 20.7764 9 20.5V18.5C9 18.2236 9.22388 18 9.5 18C9.77612 18 10 18.2236 10 18.5Z" fill="#128DC0"/>
<path d="M13 18V21C13.5523 21 14 20.5522 14 20V19C14 18.4478 13.5523 18 13 18Z" fill="#128DC0"/>
<path fill-rule="evenodd" clip-rule="evenodd" d="M3 16C3 15.4478 3.44769 15 4 15H20C20.5523 15 21 15.4478 21 16V23C21 23.5522 20.5523 24 20 24H4C3.44769 24 3 23.5522 3 23V16ZM5 17H7V18H6V19H7V20H6V22H5V17ZM8 18.5C8 17.6714 8.67157 17 9.5 17C10.3284 17 11 17.6714 11 18.5V20.5C11 21.3286 10.3284 22 9.5 22C8.67157 22 8 21.3286 8 20.5V18.5ZM13 22C14.1046 22 15 21.1045 15 20V19C15 17.8955 14.1046 17 13 17H12V22H13ZM16 17H19V18H18V22H17V18H16V17Z" fill="#128DC0"/>
<path d="M5 4H14V6H5V4Z" fill="#BFBFBF"/>
<path d="M5 7H14V9H5V7Z" fill="#BFBFBF"/>
<path d="M5 10H19V12H5V10Z" fill="#BFBFBF"/>
<path opacity="0.3" d="M13 10V3H14V9H20V10H13Z" fill="black"/>
<defs>
<linearGradient id="paint0_linear" x1="11.5" y1="22.3" x2="11.5" y2="2" gradientUnits="userSpaceOnUse">
<stop stop-color="#A8A8A8"/>
<stop offset="1" stop-color="#DADADA"/>
</linearGradient>
</defs>
</svg>
