<svg width="24" height="24" viewBox="0 0 24 24" fill="none" xmlns="http://www.w3.org/2000/svg">
<path d="M3 1H16L21 7V23H3V1Z" fill="white"/>
<path d="M21 7L16 1H3V16H2V0H16L22 7V16H21V7Z" fill="#BFBFBF"/>
<path d="M12 18V20H10V18H12Z" fill="#EEC33F"/>
<path fill-rule="evenodd" clip-rule="evenodd" d="M3 15C2.44772 15 2 15.4477 2 16V23C2 23.5523 2.44772 24 3 24H21C21.5523 24 22 23.5523 22 23V16C22 15.4477 21.5523 15 21 15H3ZM12 18V17H10V18H9V22H10V21H12V22H13V18H12ZM5 17H6V22H5V17ZM20 17H16V22H17V20H19V19H17V18H20V17Z" fill="#EEC33F"/>
<path fill-rule="evenodd" clip-rule="evenodd" d="M4 14V2H15V3H5.58714L10.73 8.99996H13.27L15 6.98167V8H15.4442L15.314 8.15196L19 12.2066V8H20V14H4ZM9.34188 8.91712L10.27 9.99996H13.73L14.6581 8.91712L18.3698 13H5.63017L9.34188 8.91712ZM8.68602 8.15196L5 12.2066V3.8516L8.68602 8.15196Z" fill="#BFBFBF"/>
<path opacity="0.3" d="M14 9V1H15V8H21V9H14Z" fill="black"/>
</svg>
