<svg width="24" height="24" viewBox="0 0 24 24" fill="none" xmlns="http://www.w3.org/2000/svg">
<g id="24X24 / ics">
<path id="background" d="M4 3H15L20 8V22H4V3Z" fill="white"/>
<path id="shadow" d="M20 8V15H21V8L15 2H3V15H4V3H15L20 8Z" fill="url(#paint0_linear)"/>
<g id="Union">
<path d="M10 9H11V14H10V11H9V10H10V9Z" fill="#BFBFBF"/>
<path d="M15 9H12V10H14V11H13V14H14V11H15V9Z" fill="#BFBFBF"/>
</g>
<path id="ear shadow" opacity="0.3" d="M13 10V3H14V9H20V10H13Z" fill="black"/>
<g id="Group 3">
<rect id="format" x="3" y="14" width="18" height="9" rx="1" fill="#DD4A4A"/>
<rect id="Rectangle 66" x="6" y="16" width="1" height="5" fill="white"/>
<g id="Union_2">
<path d="M10 16H12V17H10V16Z" fill="white"/>
<path d="M10 20V17H9V20H10Z" fill="white"/>
<path d="M12 20V21H10V20H12Z" fill="white"/>
<path d="M12 20V19H13V20H12Z" fill="white"/>
<path d="M12 17H13V18H12V17Z" fill="white"/>
</g>
<g id="Union_3">
<path d="M16 16H18V17H16V16Z" fill="white"/>
<path d="M16 18V17H15V18H16Z" fill="white"/>
<path d="M18 19H16V18H18V19Z" fill="white"/>
<path d="M18 20V19H19V20H18Z" fill="white"/>
<path d="M18 20H15V21H18V20Z" fill="white"/>
</g>
</g>
</g>
<defs>
<linearGradient id="paint0_linear" x1="11.5" y1="22.3" x2="11.5" y2="2" gradientUnits="userSpaceOnUse">
<stop stop-color="#A8A8A8"/>
<stop offset="1" stop-color="#DADADA"/>
</linearGradient>
</defs>
</svg>
