<svg width="24" height="25" viewBox="0 0 24 25" fill="none" xmlns="http://www.w3.org/2000/svg">
<path d="M19 4.63158V22H2V0H14.75V1.15789H15.8125V2.31579H16.875V3.47368H17.9375V4.63158H19Z" fill="white"/>
<path d="M2.25 12.75V1.25H2.75V12.75H2.25ZM19.25 5.25H19.75V12.75H19.25V5.25Z" stroke="#D4D4D4" stroke-width="0.5"/>
<path d="M15 1V0H2V1H15Z" fill="#D4D4D4"/>
<rect x="15" y="1" width="1" height="1" fill="#C4C4C4"/>
<rect x="16" y="2" width="1" height="1" fill="#C8C8C8"/>
<rect x="17" y="3" width="1" height="1" fill="#C6C6C6"/>
<rect x="18" y="4" width="1" height="1" fill="#C5C5C5"/>
<path opacity="0.25" d="M14 1H13V7H19V6H14V1Z" fill="black"/>
<rect x="2" y="14" width="18" height="10.2857" rx="1" fill="#DD4A4A"/>
<rect x="5" y="16.2857" width="1" height="5.71429" fill="white"/>
<path d="M9 16.2857H11V17.4286H9V16.2857Z" fill="white"/>
<path d="M9 20.8571V17.4286H8V20.8571H9Z" fill="white"/>
<path d="M11 20.8571V22H9V20.8571H11Z" fill="white"/>
<path d="M11 20.8571V19.7143H12V20.8571H11Z" fill="white"/>
<path d="M11 17.4286H12V18.5714H11V17.4286Z" fill="white"/>
<path d="M15 16.2857H17V17.4286H15V16.2857Z" fill="white"/>
<path d="M15 18.5714V17.4286H14V18.5714H15Z" fill="white"/>
<path d="M17 19.7143H15V18.5714H17V19.7143Z" fill="white"/>
<path d="M17 20.8571V19.7143H18V20.8571H17Z" fill="white"/>
<path d="M17 20.8571H14V22H17V20.8571Z" fill="white"/>
<path d="M8.16667 8H9.33333V14H8.16667V10.4H7V9.2H8.16667V8Z" fill="#BFBFBF"/>
<path d="M14 8H10.5V9.2H12.8333V10.4H11.6667V14H12.8333V10.4H14V8Z" fill="#BFBFBF"/>
</svg>
