<svg width="24" height="24" viewBox="0 0 24 24" fill="none" xmlns="http://www.w3.org/2000/svg">
<path d="M3 1H16L21 7V23H3V1Z" fill="white"/>
<path d="M21 7L16 1H3V16H2V0H16L22 7V16H21V7Z" fill="#BFBFBF"/>
<path fill-rule="evenodd" clip-rule="evenodd" d="M3 15C2.44772 15 2 15.4477 2 16V23C2 23.5523 2.44772 24 3 24H21C21.5523 24 22 23.5523 22 23V16C22 15.4477 21.5523 15 21 15H3ZM6 17H5V22H6V17ZM9 17H8V22H9V20H10V22H11V20H12V22H13V17H12V18H11V20H10V18H9V17ZM16 18V17H19V18H16ZM16 21H15V18H16V21ZM19 21V22H16V21H19ZM19 20H20V21H19V20ZM19 20H18V19H19V20Z" fill="#A671D8"/>
<path fill-rule="evenodd" clip-rule="evenodd" d="M4 2H15V6.5L14 5L7 14H4V2ZM8 7C9.10457 7 10 6.10457 10 5C10 3.89543 9.10457 3 8 3C6.89543 3 6 3.89543 6 5C6 6.10457 6.89543 7 8 7Z" fill="#BFBFBF"/>
<path d="M16 8L20 14V8H16Z" fill="#BFBFBF"/>
<path opacity="0.3" d="M14 9V1H15V8H21V9H14Z" fill="black"/>
</svg>
