<svg width="24" height="24" viewBox="0 0 24 24" fill="none" xmlns="http://www.w3.org/2000/svg">
<path d="M3 1H16L21 7V23H3V1Z" fill="white"/>
<path d="M21 7L16 1H3V16H2V0H16L22 7V16H21V7Z" fill="#BFBFBF"/>
<path fill-rule="evenodd" clip-rule="evenodd" d="M2 16C2 15.4477 2.44772 15 3 15H21C21.5523 15 22 15.4477 22 16V23C22 23.5523 21.5523 24 21 24H3C2.44772 24 2 23.5523 2 23V16ZM16 17V18H15V22H14V18H13V17H16ZM10 17H11V18H12V20H11V19H9V18H10V17ZM11 20V21H12V22H9V21H10V20H11ZM20 17H18V18H17V19H18V20H20V21H17V22H20V21H21V20H20V19H18V18H20V17ZM3 17H4V18H5V20H4V22H3V17ZM6 20V22H5V20H6ZM6 20V18H7V17H8V22H7V20H6Z" fill="#3C5D8D"/>
<path fill-rule="evenodd" clip-rule="evenodd" d="M12 14C15.3137 14 18 11.3137 18 8H17C17 8.55228 16.5523 9 16 9C15.4477 9 15 8.55228 15 8V6C14.4477 6 14 5.55228 14 5C14 4.44772 14.4477 4 15 4V2.80269C14.1175 2.29218 13.0929 2 12 2C8.68629 2 6 4.68629 6 8C6 11.3137 8.68629 14 12 14ZM12 13C12.5523 13 13 12.5523 13 12C13 11.4477 12.5523 11 12 11C11.4477 11 11 11.4477 11 12C11 12.5523 11.4477 13 12 13ZM10 11C10 11.5523 9.55228 12 9 12C8.44772 12 8 11.5523 8 11C8 10.4477 8.44772 10 9 10C9.55228 10 10 10.4477 10 11ZM8 9C8.55228 9 9 8.55228 9 8C9 7.44772 8.55228 7 8 7C7.44772 7 7 7.44772 7 8C7 8.55228 7.44772 9 8 9ZM13 4C13 4.55228 12.5523 5 12 5C11.4477 5 11 4.55228 11 4C11 3.44772 11.4477 3 12 3C12.5523 3 13 3.44772 13 4ZM9 6C9.55228 6 10 5.55228 10 5C10 4.44772 9.55228 4 9 4C8.44772 4 8 4.44772 8 5C8 5.55228 8.44772 6 9 6ZM15 12C15.5523 12 16 11.5523 16 11C16 10.4477 15.5523 10 15 10C14.4477 10 14 10.4477 14 11C14 11.5523 14.4477 12 15 12Z" fill="#BFBFBF"/>
<path opacity="0.3" d="M14 9V1H15V8H21V9H14Z" fill="black"/>
</svg>
