<svg width="24" height="24" viewBox="0 0 24 24" fill="none" xmlns="http://www.w3.org/2000/svg">
<path d="M3 1H16L21 7V23H3V1Z" fill="white"/>
<path d="M21 7L16 1H3V16H2V0H16L22 7V16H21V7Z" fill="#BFBFBF"/>
<path d="M13 18V21H11V18H13Z" fill="#0087CD"/>
<path fill-rule="evenodd" clip-rule="evenodd" d="M3 15C2.44772 15 2 15.4477 2 16V23C2 23.5523 2.44772 24 3 24H21C21.5523 24 22 23.5523 22 23V16C22 15.4477 21.5523 15 21 15H3ZM16 17H15V19H16V21H17V22H18V20H19V18H20V17H18V20H17V18H16V17ZM5 17H4V22H5V20H6V22H7V20H8V22H9V17H8V18H7V20H6V18H5V17ZM11 17V18H10V21H11V22H13V21H14V18H13V17H11Z" fill="#0087CD"/>
<path d="M16.8908 11.4765C17.5892 10.4957 18 9.29581 18 8H15.9977C15.9977 8.74116 15.796 9.43522 15.4445 10.0303L12.7071 7.29288C12.5261 7.11192 12.2761 7 12 7C11.4477 7 11 7.44772 11 8C11 8.27949 11.1147 8.53221 11.2995 8.71367L14.0303 11.4445C13.4353 11.796 12.7412 11.9977 12 11.9977C9.79211 11.9977 8.00227 10.2079 8.00227 8C8.00227 5.79211 9.79211 4.00227 12 4.00227C13.1949 4.00227 14.2674 4.52654 15 5.35761V2.80269C14.1175 2.29218 13.0929 2 12 2C8.68629 2 6 4.68629 6 8C6 11.3137 8.68629 14 12 14C13.2958 14 14.4957 13.5892 15.4766 12.8907L16.5858 14H18V12.5857L16.8908 11.4765Z" fill="#BFBFBF"/>
<path opacity="0.3" d="M14 9V1H15V8H21V9H14Z" fill="black"/>
</svg>
