<svg width="24" height="24" viewBox="0 0 24 24" fill="none" xmlns="http://www.w3.org/2000/svg">
<path d="M3 1H16L21 7V23H3V1Z" fill="white"/>
<path d="M21 7L16 1H3V16H2V0H16L22 7V16H21V7Z" fill="#BFBFBF"/>
<path d="M17 18H19V19H17V18Z" fill="#D6771B"/>
<path d="M11 18H13V21H11V18Z" fill="#D6771B"/>
<path fill-rule="evenodd" clip-rule="evenodd" d="M3 15C2.44772 15 2 15.4477 2 16V23C2 23.5523 2.44772 24 3 24H21C21.5523 24 22 23.5523 22 23V16C22 15.4477 21.5523 15 21 15H3ZM16 22V17H20V20H17V22H16ZM10 17V22H13V21H14V18H13V17H10ZM5 18V17H7V18H5ZM4 18H5V21H4V18ZM7 21V22H5V21H7ZM7 21H8V18H7V21Z" fill="#D6771B"/>
<path d="M15 3H5V13H19V8H20V14H4V2H15V3Z" fill="#BFBFBF"/>
<path d="M15 4H10V7H15V4Z" fill="#BFBFBF"/>
<path d="M6 4H9V7H6V4Z" fill="#BFBFBF"/>
<path d="M9 9H6V12H9V9Z" fill="#BFBFBF"/>
<path d="M18 9H10V12H18V9Z" fill="#BFBFBF"/>
<path opacity="0.3" d="M14 9V1H15V8H21V9H14Z" fill="black"/>
</svg>
