<svg width="24" height="24" viewBox="0 0 24 24" fill="none" xmlns="http://www.w3.org/2000/svg">
<path d="M3 1H16L21 7V23H3V1Z" fill="white"/>
<path d="M21 7L16 1H3V16H2V0H16L22 7V16H21V7Z" fill="#BFBFBF"/>
<path d="M7 21H5V18H7V21Z" fill="#679F24"/>
<path fill-rule="evenodd" clip-rule="evenodd" d="M3 15C2.44772 15 2 15.4477 2 16V23C2 23.5523 2.44772 24 3 24H21C21.5523 24 22 23.5523 22 23V16C22 15.4477 21.5523 15 21 15H3ZM10 22V17H13V18H11V21H13V22H10ZM13 21V18H14V21H13ZM19 17H17V18H16V19H17V20H19V21H16V22H19V21H20V20H19V19H17V18H19V17ZM7 18V17H5V18H4V21H5V22H7V21H8V18H7Z" fill="#679F24"/>
<path fill-rule="evenodd" clip-rule="evenodd" d="M15 2H4V14H20V8H19V10H11V3H15V2ZM5 10V3H7V10H5ZM8 10V3H10V10H8ZM11 13V11H19V13H11ZM10 11V13H8V11H10ZM7 11V13H5V11H7Z" fill="#BFBFBF"/>
<path opacity="0.3" d="M14 9V1H15V8H21V9H14Z" fill="black"/>
</svg>
