<svg width="24" height="24" viewBox="0 0 24 24" fill="none" xmlns="http://www.w3.org/2000/svg">
<g id="24X24 / docxf">
<path id="background" d="M3 1H16L21 7V23H3V1Z" fill="white"/>
<path id="shadow" d="M21 7L16 1H3V16H2V0H16L22 7V16H21V7Z" fill="#BFBFBF"/>
<path id="Rectangle 287" d="M4.5 8.5H15H19.5V12.5H4.5V8.5Z" fill="#F2F2F2" stroke="#BFBFBF"/>
<path id="Rectangle 288" d="M4 2H15V7H4V2Z" fill="#F2F2F2"/>
<path id="Rectangle 288 (Stroke)" fill-rule="evenodd" clip-rule="evenodd" d="M5 6H15V3H5V6ZM4 2V7H15V2H4Z" fill="#BFBFBF"/>
<path id="ear shadow" opacity="0.3" d="M14 9V1H15V8H21V9H14Z" fill="black"/>
<path id="Union" d="M2 16C2 15.4477 2.44772 15 3 15H21C21.5523 15 22 15.4477 22 16V23C22 23.5523 21.5523 24 21 24H3C2.44772 24 2 23.5523 2 23V16Z" fill="#27ABA3"/>
<path id="Union_2" fill-rule="evenodd" clip-rule="evenodd" d="M3 17.5V21.5V22H3.5H5V21H6V18H5V17H3.5L3 17V17.5ZM5 21V18L4 18V21L5 21Z" fill="white"/>
<path id="Union_3" d="M18 22L18 17H19H21V18L19 18V19L20 19V20H19L19 22H18Z" fill="white"/>
<path id="Exclude" fill-rule="evenodd" clip-rule="evenodd" d="M7 21V18H8V17H9V18H10V21H9V22H8V21H7ZM9 18H8V21H9V18Z" fill="white"/>
<path id="Union_4" fill-rule="evenodd" clip-rule="evenodd" d="M12 17H13V18H12V17ZM12 21V18H11V21H12ZM12 21V22H13V21H12Z" fill="white"/>
<path id="Union_5" fill-rule="evenodd" clip-rule="evenodd" d="M14 17H15V18H14V17ZM16 18H15V21H14V22H15V21H16V22H17V21H16V18ZM16 18V17H17V18H16Z" fill="white"/>
</g>
</svg>
