<svg width="24" height="24" viewBox="0 0 24 24" fill="none" xmlns="http://www.w3.org/2000/svg">
<g id="24X24 / OFORM">
<path id="background" d="M3 1H16L21 7V23H3V1Z" fill="white"/>
<path id="shadow" d="M21 7L16 1H3V16H2V0H16L22 7V16H21V7Z" fill="#BFBFBF"/>
<path id="Rectangle 287" d="M4 3H15V8H20V13H4V3Z" fill="#F2F2F2"/>
<path id="Rectangle 287 (Stroke)" fill-rule="evenodd" clip-rule="evenodd" d="M15 8V3H4V13H20V8H15ZM19 8H15V4H5V12H19V8Z" fill="#BFBFBF"/>
<path id="Subtract" fill-rule="evenodd" clip-rule="evenodd" d="M9 5V6L8 6V5H9ZM8 10V6H7V5H6V6L7 6V10H6V11H7L7 10H8ZM8 11V10H9V11H8Z" fill="#888888"/>
<path id="ear shadow" opacity="0.3" d="M14 9V1H15V8H21V9H14Z" fill="black"/>
<path id="Union" d="M2 16C2 15.4477 2.44772 15 3 15H21C21.5523 15 22 15.4477 22 16V23C22 23.5523 21.5523 24 21 24H3C2.44772 24 2 23.5523 2 23V16Z" fill="#188079"/>
<path id="Exclude" fill-rule="evenodd" clip-rule="evenodd" d="M3 21V18H4V17H5V18H6V21H5V22H4V21H3ZM5 18H4V21H5V18Z" fill="white"/>
<path id="Exclude_2" fill-rule="evenodd" clip-rule="evenodd" d="M10 21V18H11V17H12V18H13V21H12V22H11V21H10ZM12 18H11V21H12V18Z" fill="white"/>
<path id="Union_2" d="M7 22L7 17H8H9V18L8 18V19L9 19V20H8L8 22H7Z" fill="white"/>
<g id="Group 40491">
<rect id="Rectangle 596" x="19" y="19" width="1" height="1" fill="white"/>
<rect id="Rectangle 597" x="19" y="18" width="1" height="1" fill="white" fill-opacity="0.6"/>
<rect id="Rectangle 594" x="18" y="17" width="1" height="5" fill="white"/>
<rect id="Rectangle 595" x="20" y="17" width="1" height="5" fill="white"/>
</g>
<path id="Union_3" fill-rule="evenodd" clip-rule="evenodd" d="M15 17H14V22H15V20H16V21V22H17V21V20H16V19H17V18H16V17H15ZM16 18H15V19H16V18Z" fill="white"/>
</g>
</svg>
