<svg width="24" height="24" viewBox="0 0 24 24" fill="none" xmlns="http://www.w3.org/2000/svg">
<g id="24X24 / ots">
<path id="background" d="M4 3H15L20 8V22H4V3Z" fill="white"/>
<path id="shadow" d="M20 8V15H21V8L15 2H3V15H4V3H15L20 8Z" fill="url(#paint0_linear)"/>
<g id="format">
<path d="M6.14844 18.4912C6.14844 19.0586 6.27946 19.4893 6.5415 19.7832C6.80355 20.0749 7.13623 20.2207 7.53955 20.2207C7.94287 20.2207 8.27327 20.076 8.53076 19.7866C8.79053 19.495 8.92041 19.0586 8.92041 18.4775C8.92041 17.9033 8.79395 17.4749 8.54102 17.1924C8.29036 16.9098 7.95654 16.7686 7.53955 16.7686C7.12256 16.7686 6.78646 16.9121 6.53125 17.1992C6.27604 17.484 6.14844 17.9147 6.14844 18.4912Z" fill="#679F24"/>
<path fill-rule="evenodd" clip-rule="evenodd" d="M4 14C3.44772 14 3 14.4477 3 15V22C3 22.5523 3.44772 23 4 23H20C20.5523 23 21 22.5523 21 22V15C21 14.4477 20.5523 14 20 14H4ZM5.10596 18.5254C5.10596 18.015 5.18229 17.5866 5.33496 17.2402C5.44889 16.985 5.60384 16.756 5.7998 16.5532C5.99805 16.3504 6.21452 16.2 6.44922 16.1021C6.76139 15.9699 7.12142 15.9038 7.5293 15.9038C8.26758 15.9038 8.85775 16.1328 9.2998 16.5908C9.74414 17.0488 9.96631 17.6857 9.96631 18.5015C9.96631 19.3104 9.74642 19.9438 9.30664 20.4019C8.86686 20.8576 8.27897 21.0854 7.54297 21.0854C6.79785 21.0854 6.2054 20.8587 5.76562 20.4053C5.32585 19.9495 5.10596 19.3229 5.10596 18.5254ZM11.8872 21V16.8369H10.4004V15.9893H14.3823V16.8369H12.8989V21H11.8872ZM15.7666 19.2739L14.7822 19.3696C14.8483 19.9302 15.0511 20.3574 15.3906 20.6514C15.7301 20.943 16.2166 21.0889 16.8501 21.0889C17.2853 21.0889 17.6488 21.0285 17.9404 20.9077C18.2321 20.7847 18.4577 20.5978 18.6172 20.3472C18.7767 20.0965 18.8564 19.8276 18.8564 19.5405C18.8564 19.2238 18.7892 18.9583 18.6548 18.7441C18.5226 18.5277 18.3381 18.3579 18.1011 18.2349C17.8664 18.1095 17.5029 17.9888 17.0107 17.8726C16.5186 17.7563 16.2087 17.6447 16.0811 17.5376C15.9808 17.4533 15.9307 17.3519 15.9307 17.2334C15.9307 17.1035 15.9842 16.9998 16.0913 16.9224C16.2576 16.8016 16.4878 16.7412 16.7817 16.7412C17.0666 16.7412 17.2796 16.7982 17.4209 16.9121C17.5645 17.0238 17.6579 17.2083 17.7012 17.4658L18.7129 17.4214C18.6969 16.9611 18.5295 16.5931 18.2104 16.3174C17.8937 16.0417 17.4209 15.9038 16.792 15.9038C16.4069 15.9038 16.0776 15.9619 15.8042 16.0781C15.533 16.1943 15.3245 16.3641 15.1787 16.5874C15.0352 16.8084 14.9634 17.0465 14.9634 17.3018C14.9634 17.6982 15.1172 18.0343 15.4248 18.3101C15.6436 18.506 16.0241 18.6712 16.5664 18.8057C16.988 18.9105 17.258 18.9834 17.3765 19.0244C17.5496 19.0859 17.6704 19.1589 17.7388 19.2432C17.8094 19.3252 17.8447 19.4255 17.8447 19.5439C17.8447 19.7285 17.7616 19.8903 17.5952 20.0293C17.4312 20.166 17.1862 20.2344 16.8604 20.2344C16.5527 20.2344 16.3078 20.1569 16.1255 20.002C15.9455 19.847 15.8258 19.6043 15.7666 19.2739Z" fill="#679F24"/>
</g>
<path id="logo" fill-rule="evenodd" clip-rule="evenodd" d="M5 4H14V5H10V10H18V9H19V13H5V4ZM18 11H10V12H18V11ZM9 12V11H8V12H9ZM7 12V11H6V12H7ZM6 10H7V5H6V10ZM8 5V10H9V5H8Z" fill="#BFBFBF"/>
<path id="ear shadow" opacity="0.3" d="M13 10V3H14V9H20V10H13Z" fill="black"/>
</g>
<defs>
<linearGradient id="paint0_linear" x1="11.5" y1="22.3" x2="11.5" y2="2" gradientUnits="userSpaceOnUse">
<stop stop-color="#A8A8A8"/>
<stop offset="1" stop-color="#DADADA"/>
</linearGradient>
</defs>
</svg>
