<svg width="24" height="24" viewBox="0 0 24 24" fill="none" xmlns="http://www.w3.org/2000/svg">
<g id="24X24 / ott">
<path id="background" d="M3 1H16L21 7V23H3V1Z" fill="white"/>
<path id="shadow" d="M21 7L16 1H3V16H2V0H16L22 7V16H21V7Z" fill="#BFBFBF"/>
<g id="logo">
<path d="M15 3H4V5H15V3Z" fill="#BFBFBF"/>
<path d="M15 7H4V9H20V8H15V7Z" fill="#BFBFBF"/>
<path d="M20 11H4V13H20V11Z" fill="#BFBFBF"/>
</g>
<path id="ear shadow" opacity="0.3" d="M14 9V1H15V8H21V9H14Z" fill="black"/>
<g id="Subtract">
<path d="M7 18V21H5V18H7Z" fill="#0984B7"/>
<path fill-rule="evenodd" clip-rule="evenodd" d="M3 15C2.44772 15 2 15.4477 2 16V23C2 23.5523 2.44772 24 3 24H21C21.5523 24 22 23.5523 22 23V16C22 15.4477 21.5523 15 21 15H3ZM7 17H5V18H4V21H5V22H7V21H8V18H7V17ZM14 17H9V18H11V22H12V18H14V17ZM15 17H20V18H18V22H17V18H15V17Z" fill="#0984B7"/>
</g>
</g>
</svg>
