<svg width="24" height="24" viewBox="0 0 24 24" fill="none" xmlns="http://www.w3.org/2000/svg">
<g id="24X24 / pot">
<path id="background" d="M3 1H16L21 7V23H3V1Z" fill="white"/>
<path id="shadow" d="M21 7L16 1H3V16H2V0H16L22 7V16H21V7Z" fill="#BFBFBF"/>
<g id="logo">
<path d="M15 2H4V14H20V8H19V13H5V3H15V2Z" fill="#BFBFBF"/>
<path d="M15 6H12V5H10V7H15V6Z" fill="#BFBFBF"/>
<path d="M8 5H6V7H8V5Z" fill="#BFBFBF"/>
<path d="M6 9H8V11H6V9Z" fill="#BFBFBF"/>
<path d="M17 9H10V11H12V10H17V9Z" fill="#BFBFBF"/>
</g>
<path id="ear shadow" opacity="0.3" d="M14 9V1H15V8H21V9H14Z" fill="black"/>
<g id="Subtract">
<path d="M7 18H5V19H7V18Z" fill="#F36700"/>
<path d="M13 18V21H10V18H13Z" fill="#F36700"/>
<path fill-rule="evenodd" clip-rule="evenodd" d="M2 16C2 15.4477 2.44771 15 3 15H21C21.5523 15 22 15.4477 22 16V23C22 23.5523 21.5523 24 21 24H3C2.44772 24 2 23.5523 2 23V16ZM7 17H4V22H5V20H7V19H8V18H7V17ZM13 17H10V18H9V21H10V22H13V21H14V18H13V17ZM20 17H15V18H17V22H18V18H20V17Z" fill="#F36700"/>
</g>
</g>
</svg>
