<svg width="24" height="24" viewBox="0 0 24 24" fill="none" xmlns="http://www.w3.org/2000/svg">
<path d="M3 1H16L21 7V23H3V1Z" fill="white"/>
<path d="M21 7L16 1H3V16H2V0H16L22 7V16H21V7Z" fill="#BFBFBF"/>
<path fill-rule="evenodd" clip-rule="evenodd" d="M3 15C2.44772 15 2 15.4477 2 16V23C2 23.5523 2.44772 24 3 24H21C21.5523 24 22 23.5523 22 23V16C22 15.4477 21.5523 15 21 15H3ZM10 17H15V18H13V22H12V18H10V17ZM16 17H20V18H17V19H19V20H17V22H16V17ZM5 17H8V18H6V19H8V21H7V20H6V22H5V17ZM8 21H9V22H8V21ZM8 19V18H9V19H8Z" fill="#3D96C5"/>
<path d="M4 2V14H20V8H19V13H5V3H15V2H4Z" fill="#BFBFBF"/>
<path d="M15 4H7V6H15V4Z" fill="#BFBFBF"/>
<path d="M15 7H6V9H18V8H15V7Z" fill="#BFBFBF"/>
<path d="M18 10H6V12H18V10Z" fill="#BFBFBF"/>
<path opacity="0.3" d="M14 9V1H15V8H21V9H14Z" fill="black"/>
</svg>
