<svg width="24" height="24" viewBox="0 0 24 24" fill="none" xmlns="http://www.w3.org/2000/svg">
<path d="M3 1H16L21 7V23H3V1Z" fill="white"/>
<path d="M21 7L16 1H3V16H2V0H16L22 7V16H21V7Z" fill="#BFBFBF"/>
<path fill-rule="evenodd" clip-rule="evenodd" d="M3 15C2.44772 15 2 15.4477 2 16V23C2 23.5523 2.44772 24 3 24H21C21.5523 24 22 23.5523 22 23V16C22 15.4477 21.5523 15 21 15H3ZM17 18V17H20V18H17ZM17 21H16V18H17V21ZM17 21H19V20H18V19H20V22H17V21ZM7 17H5V18H4V19H5V20H7V21H4V22H7V21H8V20H7V19H5V18H7V17ZM11 17H10V19H11V21H12V22H13V20H14V17H13V20H12V18H11V17Z" fill="#507C8B"/>
<path d="M14 6C14 6.93192 13.3626 7.71497 12.5 7.93699V11.7929L15.2769 9.01598C15.101 8.71823 15 8.3709 15 8H19C19 9.10457 18.1046 10 17 10C16.6291 10 16.2818 9.89904 15.984 9.72309L13.2071 12.5H16.063C16.285 11.6374 17.0681 11 18 11C19.1046 11 20 11.8954 20 13C20 13.3643 19.9026 13.7058 19.7324 14H4.26756C4.09739 13.7058 4 13.3643 4 13C4 11.8954 4.89543 11 6 11C6.93192 11 7.71497 11.6374 7.93699 12.5H10.7929L8.01598 9.72309C7.71823 9.89903 7.3709 10 7 10C5.89543 10 5 9.10457 5 8C5 6.89543 5.89543 6 7 6C8.10457 6 9 6.89543 9 8C9 8.3709 8.89903 8.71823 8.72309 9.01598L11.5 11.7929V7.93699C10.6374 7.71497 10 6.93192 10 6C10 4.89543 10.8954 4 12 4C13.1046 4 14 4.89543 14 6Z" fill="#BFBFBF"/>
<path opacity="0.3" d="M14 9V1H15V8H21V9H14Z" fill="black"/>
</svg>
