<svg width="24" height="24" viewBox="0 0 24 24" fill="none" xmlns="http://www.w3.org/2000/svg">
<g id="webm">
<path id="Vector" d="M3 1H16L21 7V23H3V1Z" fill="white"/>
<path id="Vector_2" d="M21 7L16 1H3V16H2V0H16L22 7V16H21V7Z" fill="#BFBFBF"/>
<path id="format" fill-rule="evenodd" clip-rule="evenodd" d="M3 15C2.44772 15 2 15.4477 2 16V23C2 23.5523 2.44772 24 3 24H21C21.5523 24 22 23.5523 22 23V16C22 15.4477 21.5523 15 21 15H3ZM6 17H5L6 22H7L7.5 19.5L8 22H9L10 17H9L8.5 19.5L8 17H7L6.5 19.5L6 17ZM16 22L15 19.5V22H14V17H15L16.5 20.75L18 17H19V22H18V19.5L17 22H16ZM13 19H11V20H13V19Z" fill="#1DAA91"/>
<path id="logo" d="M7.49039 2.13392C7.79726 1.95336 8.17676 1.94866 8.488 2.12157L15 5.73935V8H18V7.90115C18.0032 7.93379 18.0049 7.96677 18.0049 7.99999C18.0049 8.36492 17.807 8.70118 17.488 8.8784L8.488 13.8784C8.17676 14.0513 7.79726 14.0466 7.49039 13.8661C7.18352 13.6855 6.99512 13.356 6.99512 13V2.99999C6.99512 2.64394 7.18352 2.31448 7.49039 2.13392Z" fill="#BFBFBF"/>
<path id="Vector_3" opacity="0.3" d="M14 9V1H15V8H21V9H14Z" fill="black"/>
</g>
</svg>
