<svg width="24" height="24" viewBox="0 0 24 24" fill="none" xmlns="http://www.w3.org/2000/svg">
<path d="M20 5.63158V23H3V1H15.75V2.15789H16.8125V3.31579H17.875V4.47368H18.9375V5.63158H20Z" fill="white"/>
<path fill-rule="evenodd" clip-rule="evenodd" d="M4 4H11.8571V8H15V13H4V4ZM4.78571 12H7.92857V11H4.78571V12ZM8.71429 12H11.0714V11H8.71429V12ZM11.8571 12H14.2143V11H11.8571V12ZM14.2143 9V10H11.8571V9H14.2143ZM11.0714 9V10H8.71429V9H11.0714ZM7.92857 9V10H4.78571V9H7.92857ZM4.78571 8H7.92857V7H4.78571V8ZM8.71429 8H11.0714V7H8.71429V8ZM7.92857 6H4.78571V5H7.92857V6ZM11.0714 6H8.71429V5H11.0714V6Z" fill="#BFBFBF"/>
<path d="M2 1V13H3V1H2Z" fill="black"/>
<path d="M2 1V13H3V1H2Z" fill="url(#paint0_linear)"/>
<path d="M20 5H19V13H20V5Z" fill="black"/>
<path d="M20 5H19V13H20V5Z" fill="url(#paint1_linear)"/>
<path d="M15 1V0H2V1H15Z" fill="#D4D4D4"/>
<rect x="15" y="1" width="1" height="1" fill="#C4C4C4"/>
<rect x="16" y="2" width="1" height="1" fill="#C8C8C8"/>
<rect x="17" y="3" width="1" height="1" fill="#C6C6C6"/>
<rect x="18" y="4" width="1" height="1" fill="#C5C5C5"/>
<path opacity="0.25" d="M14 1H13V7H19V6H14V1Z" fill="black"/>
<rect x="2" y="13" width="18" height="10.2857" rx="1" fill="#6AAA1E"/>
<path d="M15 15.2857H14V21H15V18.7143H16V21H17V18.7143H18V21H19V15.2857H18V16.4286H17V18.7143H16V16.4286H15V15.2857Z" fill="white"/>
<path d="M11 15.2857H13V16.4286H11V15.2857Z" fill="white"/>
<path d="M11 17.5714H10V16.4286H11V17.5714Z" fill="white"/>
<path d="M12 18.7143V17.5714H11V18.7143H12Z" fill="white"/>
<path d="M12 19.8571V18.7143H13V19.8571H12Z" fill="white"/>
<path d="M12 19.8571H10V21H12V19.8571Z" fill="white"/>
<path d="M8 15.2857H7V21H9V19.8571H8V15.2857Z" fill="white"/>
<path d="M3 15.2857H4V17.5714H3V15.2857Z" fill="white"/>
<path d="M5 17.5714H4V18.7143H3V21H4V18.7143H5V21H6V18.7143H5V17.5714Z" fill="white"/>
<path d="M5 17.5714H6V15.2857H5V17.5714Z" fill="white"/>
<defs>
<linearGradient id="paint0_linear" x1="11" y1="1" x2="11" y2="13" gradientUnits="userSpaceOnUse">
<stop stop-color="#C9C9C9"/>
<stop offset="1" stop-color="#BABABA"/>
</linearGradient>
<linearGradient id="paint1_linear" x1="11" y1="1" x2="11" y2="13" gradientUnits="userSpaceOnUse">
<stop stop-color="#C9C9C9"/>
<stop offset="1" stop-color="#BABABA"/>
</linearGradient>
</defs>
</svg>
