<svg width="24" height="24" viewBox="0 0 24 24" fill="none" xmlns="http://www.w3.org/2000/svg">
<path d="M22 5.63158V23H3V1H17.25V2.15789H18.4375V3.31579H19.625V4.47368H20.8125V5.63158H22Z" fill="white"/>
<path fill-rule="evenodd" clip-rule="evenodd" d="M5 2H16.4286V6.88889H21V13H5V2ZM6.14286 11.7778H10.7143V10.5556H6.14286V11.7778ZM11.8571 11.7778H15.2857V10.5556H11.8571V11.7778ZM16.4286 11.7778H19.8571V10.5556H16.4286V11.7778ZM19.8571 8.11111V9.33333H16.4286V8.11111H19.8571ZM15.2857 8.11111V9.33333H11.8571V8.11111H15.2857ZM10.7143 8.11111V9.33333H6.14286V8.11111H10.7143ZM6.14286 6.88889H10.7143V5.66667H6.14286V6.88889ZM11.8571 6.88889H15.2857V5.66667H11.8571V6.88889ZM10.7143 4.44444H6.14286V3.22222H10.7143V4.44444ZM15.2857 4.44444H11.8571V3.22222H15.2857V4.44444Z" fill="#BFBFBF"/>
<path d="M2 1V13H3V1H2Z" fill="black"/>
<path d="M2 1V13H3V1H2Z" fill="url(#paint0_linear)"/>
<path d="M20 5H19V13H20V5Z" fill="black"/>
<path d="M20 5H19V13H20V5Z" fill="url(#paint1_linear)"/>
<path d="M15 1V0H2V1H15Z" fill="#D4D4D4"/>
<rect x="15" y="1" width="1" height="1" fill="#C4C4C4"/>
<rect x="16" y="2" width="1" height="1" fill="#C8C8C8"/>
<rect x="17" y="3" width="1" height="1" fill="#C6C6C6"/>
<rect x="18" y="4" width="1" height="1" fill="#C5C5C5"/>
<path opacity="0.25" d="M14 1H13V7H19V6H14V1Z" fill="black"/>
<rect x="2.28571" y="13.7143" width="20.5714" height="10.2857" rx="1" fill="#6AAA1E"/>
<path d="M17.1429 16H16V21.7143H17.1429V19.4286H18.2857V21.7143H19.4286V19.4286H20.5714V21.7143H21.7143V16H20.5714V17.1429H19.4286V19.4286H18.2857V17.1429H17.1429V16Z" fill="white"/>
<path d="M12.5714 16H14.8571V17.1429H12.5714V16Z" fill="white"/>
<path d="M12.5714 18.2857H11.4286V17.1429H12.5714V18.2857Z" fill="white"/>
<path d="M13.7143 19.4286V18.2857H12.5714V19.4286H13.7143Z" fill="white"/>
<path d="M13.7143 20.5714V19.4286H14.8571V20.5714H13.7143Z" fill="white"/>
<path d="M13.7143 20.5714H11.4286V21.7143H13.7143V20.5714Z" fill="white"/>
<path d="M9.14286 16H8V21.7143H10.2857V20.5714H9.14286V16Z" fill="white"/>
<path d="M3.42857 16H4.57143V18.2857H3.42857V16Z" fill="white"/>
<path d="M5.71429 18.2857H4.57143V19.4286H3.42857V21.7143H4.57143V19.4286H5.71429V21.7143H6.85715V19.4286H5.71429V18.2857Z" fill="white"/>
<path d="M5.71429 18.2857H6.85715V16H5.71429V18.2857Z" fill="white"/>
<defs>
<linearGradient id="paint0_linear" x1="11" y1="1" x2="11" y2="13" gradientUnits="userSpaceOnUse">
<stop stop-color="#C9C9C9"/>
<stop offset="1" stop-color="#BABABA"/>
</linearGradient>
<linearGradient id="paint1_linear" x1="11" y1="1" x2="11" y2="13" gradientUnits="userSpaceOnUse">
<stop stop-color="#C9C9C9"/>
<stop offset="1" stop-color="#BABABA"/>
</linearGradient>
</defs>
</svg>
