<svg width="24" height="24" viewBox="0 0 24 24" fill="none" xmlns="http://www.w3.org/2000/svg">
<g id="24X24 / xlsm">
<path id="background" d="M4 3H15L20 8V22H4V3Z" fill="white"/>
<path id="shadow" d="M20 8V15H21V8L15 2H3V15H4V3H15L20 8Z" fill="url(#paint0_linear)"/>
<path id="Subtract" fill-rule="evenodd" clip-rule="evenodd" d="M14 4H5V13H19V9H18V10H15V9H14V8H11V7H14V6H11V5H14V4ZM14 9H11V10H14V9ZM10 12H6V11H10V12ZM14 12H11V11H14V12ZM18 12H15V11H18V12ZM10 10V9H6V10H10ZM10 8H6V7H10V8ZM6 6H10V5H6V6Z" fill="#BFBFBF"/>
<path id="ear shadow" opacity="0.3" d="M13 10V3H14V9H20V10H13Z" fill="black"/>
<g id="Group 13">
<rect id="Rectangle 70" x="3" y="14" width="18" height="9" rx="1" fill="#6AAA1E"/>
<path id="Union" d="M16 16H15V21H16V19H17V21H18V19H19V21H20V16H19V17H18V19H17V17H16V16Z" fill="white"/>
<g id="Union_2">
<path d="M12 16H14V17H12V16Z" fill="white"/>
<path d="M12 18H11V17H12V18Z" fill="white"/>
<path d="M13 19V18H12V19H13Z" fill="white"/>
<path d="M13 20V19H14V20H13Z" fill="white"/>
<path d="M13 20H11V21H13V20Z" fill="white"/>
</g>
<path id="Union_3" d="M9 16H8V21H10V20H9V16Z" fill="white"/>
<g id="Union_4">
<path d="M4 16H5V18H4V16Z" fill="white"/>
<path d="M6 18H5V19H4V21H5V19H6V21H7V19H6V18Z" fill="white"/>
<path d="M6 18H7V16H6V18Z" fill="white"/>
</g>
</g>
</g>
<defs>
<linearGradient id="paint0_linear" x1="11.5" y1="22.3" x2="11.5" y2="2" gradientUnits="userSpaceOnUse">
<stop stop-color="#A8A8A8"/>
<stop offset="1" stop-color="#DADADA"/>
</linearGradient>
</defs>
</svg>
