<svg width="24" height="24" viewBox="0 0 24 24" fill="none" xmlns="http://www.w3.org/2000/svg">
<path d="M3 1H16L21 7V23H3V1Z" fill="white"/>
<path d="M21 7L16 1H3V16H2V0H16L22 7V16H21V7Z" fill="#BFBFBF"/>
<path fill-rule="evenodd" clip-rule="evenodd" d="M2 16C2 15.4477 2.44772 15 3 15H21C21.5523 15 22 15.4477 22 16V23C22 23.5523 21.5523 24 21 24H3C2.44772 24 2 23.5523 2 23V16ZM9 17H8V22H11V21H9V17ZM13 17H15V18H13V17ZM13 19H12V18H13V19ZM15 20H13V19H15V20ZM15 21V20H16V21H15ZM15 21V22H12V21H15ZM7 17H6V19H4V17H3V19H4V20H3V22H4V20H6V22H7V20H6V19H7V17ZM20 17H21V19H20V17ZM20 20V19H18V17H17V19H18V20H17V22H18V20H20ZM20 20H21V22H20V20Z" fill="#6AAA1E"/>
<path fill-rule="evenodd" clip-rule="evenodd" d="M15 4H4V13H20V8H15V4ZM9 12H5V9H9V12ZM14 12H10V9H14V12ZM19 12H15V9H19V12ZM14 5H10V8H14V5ZM9 8V5H5V8H9Z" fill="#BFBFBF"/>
<path opacity="0.3" d="M14 9V1H15V8H21V9H14Z" fill="black"/>
</svg>
