<svg width="24" height="24" viewBox="0 0 24 24" fill="none" xmlns="http://www.w3.org/2000/svg">
<path d="M3 1H16L21 7V23H3V1Z" fill="white"/>
<path d="M21 7L16 1H3V16H2V0H16L22 7V16H21V7Z" fill="#BFBFBF"/>
<path fill-rule="evenodd" clip-rule="evenodd" d="M3 15C2.44772 15 2 15.4478 2 16V23C2 23.5522 2.44772 24 3 24H21C21.5523 24 22 23.5522 22 23V16C22 15.4478 21.5523 15 21 15H3ZM17 17H18V21H20V22H17V17ZM6 17V18H7V17H9V18H8V19H7V20H8V21H9V22H7V21H6V22H4V21H5V20H6V19H5V18H4V17H6ZM10 17H11V18H12V20H11V22H10V17ZM13 20V22H12V20H13ZM13 20V18H14V17H15V22H14V20H13Z" fill="#5BB2A9"/>
<path d="M6 7H8V8H7V9H6V10H7V11H8V12H6V11H5V10H4V9H5V8H6V7Z" fill="#BFBFBF"/>
<path d="M10 9H11V10H10V9Z" fill="#BFBFBF"/>
<path d="M13 9H14V10H13V9Z" fill="#BFBFBF"/>
<path d="M17 9V8H19V9H20V10H19V11H18V12H16V11H17V10H18V9H17Z" fill="#BFBFBF"/>
<path opacity="0.3" d="M14 9V1H15V8H21V9H14Z" fill="black"/>
</svg>
