<svg width="24" height="24" viewBox="0 0 24 24" fill="none" xmlns="http://www.w3.org/2000/svg">
<path d="M3 1H16L21 7V23H3V1Z" fill="white"/>
<path d="M21 7L16 1H3V16H2V0H16L22 7V16H21V7Z" fill="#BFBFBF"/>
<path d="M12 18H14V19H12V18Z" fill="#5BB2A9"/>
<path fill-rule="evenodd" clip-rule="evenodd" d="M3 15C2.44772 15 2 15.4477 2 16V23C2 23.5523 2.44772 24 3 24H21C21.5523 24 22 23.5523 22 23V16C22 15.4477 21.5523 15 21 15H3ZM11 22V17H15V20H12V22H11ZM17 17H20V18H18V19H20V22H17V21H19V20H17V17ZM6 18V17H4V18H5V19H6V20H5V21H4V22H6V21H7V22H9V21H8V20H7V19H8V18H9V17H7V18H6Z" fill="#5BB2A9"/>
<path d="M6 7H8V8H7V9H6V10H7V11H8V12H6V11H5V10H4V9H5V8H6V7Z" fill="#BFBFBF"/>
<path d="M10 9H11V10H10V9Z" fill="#BFBFBF"/>
<path d="M13 9H14V10H13V9Z" fill="#BFBFBF"/>
<path d="M17 9V8H19V9H20V10H19V11H18V12H16V11H17V10H18V9H17Z" fill="#BFBFBF"/>
<path opacity="0.3" d="M14 9V1H15V8H21V9H14Z" fill="black"/>
</svg>
