<svg width="136" height="56" viewBox="0 0 136 56" fill="none" xmlns="http://www.w3.org/2000/svg">
<path d="M87.029 36.5033L60.9824 43.9825L50.9657 9.0986L69.2541 3.84719L79.0504 8.71718L87.029 36.5033Z" fill="#3D5BA1"/>
<path d="M88.2181 34.8932L62.1715 42.3723L52.1521 7.47913L70.4405 2.22771L80.2394 7.107L88.2181 34.8932Z" fill="#436AA9"/>
<path d="M70.4406 2.22772L72.4813 9.33473L80.2395 7.10702L70.4406 2.22772Z" fill="#355E99"/>
<path d="M75.3663 13.5611L60.5198 17.8242L60.7869 18.7545L75.6335 14.4914L75.3663 13.5611Z" fill="#8DB6DB"/>
<path d="M76.4108 17.1984L61.5642 21.4615L61.8313 22.3917L76.6779 18.1286L76.4108 17.1984Z" fill="#8DB6DB"/>
<path d="M77.4551 20.8356L62.6085 25.0987L62.8756 26.0289L77.7222 21.7658L77.4551 20.8356Z" fill="#8DB6DB"/>
<path d="M78.4995 24.4728L63.653 28.7359L63.9201 29.6661L78.7666 25.403L78.4995 24.4728Z" fill="#8DB6DB"/>
<path d="M79.544 28.11L64.6974 32.3731L64.9645 33.3033L79.8111 29.0402L79.544 28.11Z" fill="#8DB6DB"/>
<path d="M115.574 55.7221C116.894 55.7221 117.964 54.652 117.964 53.3321C117.964 52.0121 116.894 50.9421 115.574 50.9421C114.254 50.9421 113.184 52.0121 113.184 53.3321C113.184 54.652 114.254 55.7221 115.574 55.7221Z" fill="#638BBF"/>
<path d="M129.944 45.3921C128.835 45.3901 127.751 45.0594 126.83 44.4418C125.909 43.8241 125.191 42.9473 124.768 41.922C124.345 40.8968 124.236 39.7691 124.453 38.6815C124.671 37.5939 125.206 36.5953 125.991 35.8117C126.776 35.0281 127.775 34.4948 128.863 34.2792C129.951 34.0635 131.079 34.1752 132.103 34.6001C133.128 35.025 134.003 35.744 134.619 36.6664C135.235 37.5887 135.564 38.673 135.564 39.7821C135.564 40.5196 135.419 41.25 135.136 41.9312C134.854 42.6125 134.439 43.2314 133.917 43.7525C133.395 44.2736 132.776 44.6866 132.094 44.9679C131.412 45.2493 130.682 45.3934 129.944 45.3921ZM129.944 35.2321C129.045 35.2341 128.166 35.5026 127.419 36.0038C126.672 36.5049 126.09 37.2162 125.748 38.0478C125.405 38.8794 125.316 39.7939 125.493 40.6759C125.669 41.5578 126.104 42.3676 126.74 43.0029C127.377 43.6383 128.188 44.0706 129.07 44.2454C129.952 44.4201 130.867 44.3294 131.698 43.9848C132.528 43.6401 133.238 43.0569 133.738 42.3089C134.238 41.5609 134.504 40.6816 134.504 39.7821C134.504 39.1837 134.386 38.5912 134.157 38.0386C133.928 37.4859 133.591 36.9838 133.168 36.5612C132.744 36.1386 132.242 35.8036 131.688 35.5756C131.135 35.3475 130.542 35.2308 129.944 35.2321V35.2321Z" fill="#638BBF"/>
<path fill-rule="evenodd" clip-rule="evenodd" d="M13.5436 40.1696L9.29363 44.4294C8.90355 44.8204 8.90192 45.4559 9.28998 45.8489L9.31705 45.8763C9.70511 46.2693 10.3359 46.2709 10.726 45.8799L15.7058 40.8886C15.9258 40.6681 16.0223 40.3698 15.9949 40.0811C15.9768 39.8505 15.8799 39.6251 15.7044 39.4492L10.731 34.4644C10.3409 34.0734 9.71014 34.075 9.32208 34.468L9.29502 34.4954C8.90696 34.8884 8.90859 35.5239 9.29866 35.9149L13.5436 40.1696Z" fill="white"/>
</svg>
