<svg width="81" height="37" viewBox="0 0 81 37" fill="none" xmlns="http://www.w3.org/2000/svg">
<path d="M73.8516 35.9537L51 32.2781L55.9226 1.67322L71.9677 4.254L77.7727 11.5759L73.8516 35.9537Z" fill="#3E5AA0"/>
<path d="M75.3556 35.1406L52.5039 31.4651L57.4279 0.85199L73.473 3.43277L79.2766 10.7628L75.3556 35.1406Z" fill="#436AA9"/>
<path d="M73.4729 3.43277L72.47 9.66801L79.2765 10.7628L73.4729 3.43277Z" fill="#355E99"/>
<path d="M73.1658 13.9829L60.1404 11.8878L60.0091 12.7039L73.0346 14.799L73.1658 13.9829Z" fill="#8DB6DB"/>
<path d="M72.6525 17.174L59.6271 15.0789L59.4958 15.895L72.5213 17.9901L72.6525 17.174Z" fill="#8DB6DB"/>
<path d="M72.1393 20.365L59.1139 18.27L58.9826 19.0861L72.0081 21.1812L72.1393 20.365Z" fill="#8DB6DB"/>
<path d="M71.626 23.5561L58.6006 21.461L58.4693 22.2772L71.4948 24.3722L71.626 23.5561Z" fill="#8DB6DB"/>
<path d="M71.1127 26.7472L58.0873 24.6521L57.956 25.4682L70.9815 27.5633L71.1127 26.7472Z" fill="#8DB6DB"/>
<path d="M27.3 4.8C28.6255 4.8 29.7 3.72548 29.7 2.4C29.7 1.07452 28.6255 0 27.3 0C25.9745 0 24.9 1.07452 24.9 2.4C24.9 3.72548 25.9745 4.8 27.3 4.8Z" fill="#6C95C5"/>
<path d="M24.9001 29.3C26.3305 29.3 27.4901 28.1404 27.4901 26.71C27.4901 25.2796 26.3305 24.12 24.9001 24.12C23.4696 24.12 22.3101 25.2796 22.3101 26.71C22.3101 28.1404 23.4696 29.3 24.9001 29.3Z" fill="#6C95C5"/>
<path d="M10.75 14.13H0.53C0.389435 14.13 0.254628 14.0742 0.155233 13.9748C0.0558391 13.8754 0 13.7406 0 13.6V3.38001C0 3.31041 0.0137089 3.24149 0.0403439 3.17718C0.0669788 3.11288 0.106018 3.05445 0.155233 3.00524C0.204448 2.95602 0.262875 2.91699 0.327178 2.89035C0.39148 2.86372 0.460399 2.85001 0.53 2.85001H10.75C10.8191 2.84999 10.8876 2.86377 10.9513 2.89052C11.0151 2.91728 11.0729 2.95648 11.1213 3.00583C11.1697 3.05518 11.2078 3.11369 11.2333 3.17794C11.2589 3.24219 11.2713 3.31088 11.27 3.38001V13.6C11.2713 13.6691 11.2589 13.7378 11.2333 13.8021C11.2078 13.8663 11.1697 13.9248 11.1213 13.9742C11.0729 14.0235 11.0151 14.0627 10.9513 14.0895C10.8876 14.1162 10.8191 14.13 10.75 14.13V14.13ZM1.05 13.07H10.22V3.91001H1.05V13.07Z" fill="#6C95C5"/>
</svg>
