<svg width="51" height="52" viewBox="0 0 51 52" fill="none" xmlns="http://www.w3.org/2000/svg">
<path d="M33.7935 33.8871L9.61371 40.8302L0.314941 8.4465L17.2926 3.57147L26.3867 8.09241L33.7935 33.8871Z" fill="#3D5BA1"/>
<path d="M34.8973 32.3923L10.7175 39.3354L1.41626 6.94308L18.3939 2.06805L27.4905 6.59763L34.8973 32.3923Z" fill="#436AA9"/>
<path d="M18.3939 2.06805L20.2884 8.66568L27.4905 6.59764L18.3939 2.06805Z" fill="#355E99"/>
<path d="M22.9667 12.5892L9.1842 16.5467L9.43217 17.4103L23.2147 13.4527L22.9667 12.5892Z" fill="#8DB6DB"/>
<path d="M23.9363 15.9657L10.1538 19.9232L10.4018 20.7868L24.1843 16.8293L23.9363 15.9657Z" fill="#8DB6DB"/>
<path d="M24.9058 19.3422L11.1233 23.2998L11.3713 24.1633L25.1537 20.2058L24.9058 19.3422Z" fill="#8DB6DB"/>
<path d="M25.8754 22.7188L12.0929 26.6763L12.3409 27.5399L26.1233 23.5823L25.8754 22.7188Z" fill="#8DB6DB"/>
<path d="M26.8449 26.0953L13.0624 30.0529L13.3103 30.9164L27.0928 26.9589L26.8449 26.0953Z" fill="#8DB6DB"/>
<path d="M32.4427 51.728C33.6681 51.728 34.6614 50.7347 34.6614 49.5093C34.6614 48.284 33.6681 47.2906 32.4427 47.2906C31.2174 47.2906 30.224 48.284 30.224 49.5093C30.224 50.7347 31.2174 51.728 32.4427 51.728Z" fill="#638BBF"/>
<path d="M45.7827 42.1384C44.7531 42.1366 43.7471 41.8296 42.8919 41.2562C42.0367 40.6828 41.3706 39.8688 40.9779 38.917C40.5851 37.9653 40.4833 36.9184 40.6853 35.9088C40.8873 34.8992 41.384 33.9721 42.1128 33.2447C42.8415 32.5172 43.7694 32.0222 44.7794 31.822C45.7894 31.6218 46.8361 31.7254 47.7871 32.1199C48.7382 32.5143 49.5511 33.1818 50.1229 34.0381C50.6947 34.8943 50.9999 35.9008 50.9999 36.9305C50.9999 37.6152 50.8649 38.2931 50.6026 38.9256C50.3403 39.5581 49.9559 40.1326 49.4713 40.6163C48.9867 41.1 48.4115 41.4835 47.7786 41.7446C47.1457 42.0058 46.4674 42.1396 45.7827 42.1384ZM45.7827 32.7066C44.9477 32.7084 44.132 32.9577 43.4386 33.4229C42.7452 33.8882 42.2053 34.5485 41.887 35.3205C41.5687 36.0925 41.4864 36.9414 41.6504 37.7602C41.8145 38.5789 42.2175 39.3307 42.8086 39.9205C43.3997 40.5103 44.1523 40.9116 44.9714 41.0739C45.7905 41.2361 46.6393 41.1519 47.4106 40.8319C48.1819 40.512 48.841 39.9706 49.3047 39.2762C49.7684 38.5818 50.0159 37.7655 50.0159 36.9305C50.0159 36.375 49.9064 35.825 49.6935 35.3119C49.4807 34.7988 49.1687 34.3328 48.7755 33.9404C48.3823 33.5481 47.9155 33.2372 47.402 33.0254C46.8885 32.8137 46.3382 32.7054 45.7827 32.7066V32.7066Z" fill="#638BBF"/>
</svg>
