<svg width="54" height="28" viewBox="0 0 54 28" fill="none" xmlns="http://www.w3.org/2000/svg">
<path d="M49.0612 27.6253L31.5029 24.8012L35.2853 1.28555L47.6137 3.26852L52.074 8.89436L49.0612 27.6253Z" fill="#3E5AA0"/>
<path d="M50.2167 27.0006L32.6584 24.1764L36.4418 0.654572L48.7702 2.63754L53.2295 8.26965L50.2167 27.0006Z" fill="#436AA9"/>
<path d="M48.7701 2.63754L47.9995 7.42846L53.2294 8.26965L48.7701 2.63754Z" fill="#355E99"/>
<path d="M48.5342 10.7439L38.526 9.13409L38.4251 9.76118L48.4334 11.371L48.5342 10.7439Z" fill="#8DB6DB"/>
<path d="M48.1398 13.1957L38.1316 11.586L38.0307 12.2131L48.039 13.8228L48.1398 13.1957Z" fill="#8DB6DB"/>
<path d="M47.7455 15.6476L37.7373 14.0379L37.6364 14.665L47.6447 16.2747L47.7455 15.6476Z" fill="#8DB6DB"/>
<path d="M47.3511 18.0996L37.3429 16.4898L37.242 17.1169L47.2503 18.7266L47.3511 18.0996Z" fill="#8DB6DB"/>
<path d="M46.9567 20.5514L36.9485 18.9417L36.8476 19.5687L46.8559 21.1785L46.9567 20.5514Z" fill="#8DB6DB"/>
<path d="M20.9763 3.68813C21.9947 3.68813 22.8203 2.86252 22.8203 1.84407C22.8203 0.825616 21.9947 0 20.9763 0C19.9578 0 19.1322 0.825616 19.1322 1.84407C19.1322 2.86252 19.9578 3.68813 20.9763 3.68813Z" fill="#6C95C5"/>
<path d="M19.1321 22.513C20.2312 22.513 21.1222 21.622 21.1222 20.5229C21.1222 19.4238 20.2312 18.5329 19.1321 18.5329C18.0331 18.5329 17.1421 19.4238 17.1421 20.5229C17.1421 21.622 18.0331 22.513 19.1321 22.513Z" fill="#6C95C5"/>
<path d="M8.25988 10.8569H0.407231C0.299227 10.8569 0.195646 10.814 0.119275 10.7377C0.0429046 10.6613 0 10.5577 0 10.4497V2.59705C0 2.54357 0.0105333 2.49062 0.0309986 2.44121C0.0514639 2.3918 0.0814604 2.34691 0.119275 2.30909C0.15709 2.27128 0.201983 2.24128 0.251391 2.22082C0.300798 2.20035 0.353753 2.18982 0.407231 2.18982H8.25988C8.313 2.18981 8.36559 2.20039 8.41457 2.22095C8.46356 2.24151 8.50795 2.27163 8.54515 2.30955C8.58236 2.34747 8.61163 2.39242 8.63125 2.44179C8.65087 2.49116 8.66045 2.54394 8.65943 2.59705V10.4497C8.66045 10.5028 8.65087 10.5556 8.63125 10.605C8.61163 10.6543 8.58236 10.6993 8.54515 10.7372C8.50795 10.7751 8.46356 10.8052 8.41457 10.8258C8.36559 10.8464 8.313 10.8569 8.25988 10.8569V10.8569ZM0.806779 10.0425H7.85265V3.00428H0.806779V10.0425Z" fill="#6C95C5"/>
</svg>
