<svg width="32" height="32" viewBox="0 0 32 32" fill="none" xmlns="http://www.w3.org/2000/svg">
<path d="M4 1L19 1L28 9V31H4V1Z" fill="white"/>
<path fill-rule="evenodd" clip-rule="evenodd" d="M4.00003 31H28V9L19 1L4.08336 1.06667L4.00003 31ZM19 0H3.00003V32H29V9L19 0Z" fill="#BFBFBF"/>
<path fill-rule="evenodd" clip-rule="evenodd" d="M6 21C6 20.4477 6.44772 20 7 20H25C25.5523 20 26 20.4477 26 21V28C26 28.5523 25.5523 29 25 29H7C6.44772 29 6 28.5523 6 28V21ZM15 22H16V23H17V25H18V27H17V26H16V24H15V22ZM18 25V22H20V23H19V25H18ZM8 27V22H11V23H9V26H11V27H8ZM11 26V23H12V26H11ZM13 21H14V22H13V21ZM12 27H13V23H14V28H12V27ZM21 23H22V26H23V23H24V27H21V23Z" fill="#BC8C18"/>
<path d="M18 3H6V18H26V10H25V17H7V4H18V3Z" fill="#C4C4C4"/>
<path fill-rule="evenodd" clip-rule="evenodd" d="M18 5H8V16H24V10H17V9H18V8H17V7H18V5ZM15 7H9V9H10V8H11V13H10V14H14V13H13V8H14V9H15V7ZM23 11H17V12H23V11ZM23 13H17V14H23V13Z" fill="#C4C4C4"/>
<path opacity="0.3" d="M17 11V1H18V10H28V11H17Z" fill="black"/>
</svg>
