<svg width="32" height="32" viewBox="0 0 32 32" fill="none" xmlns="http://www.w3.org/2000/svg">
<path d="M4 1L19 1L28 9V31H4V1Z" fill="white"/>
<path fill-rule="evenodd" clip-rule="evenodd" d="M4.00003 31H28V9L19 1L4.08336 1.06667L4.00003 31ZM19 0H3.00003V32H29V9L19 0Z" fill="#BFBFBF"/>
<path fill-rule="evenodd" clip-rule="evenodd" d="M6 21C6 20.4477 6.44772 20 7 20H25C25.5523 20 26 20.4477 26 21V28C26 28.5523 25.5523 29 25 29H7C6.44772 29 6 28.5523 6 28V21ZM22 22H21V24H22V25H21V27H22V25H24V27H25V25H24V24H25V22H24V24H22V22ZM7 27V22H10V23H8V26H10V27H7ZM10 26V23H11V26H10ZM20 22H18V23H17V26H18V27H20V26H18V23H20V22ZM13 23V22H15V23H13ZM13 26H12V23H13V26ZM15 26V27H13V26H15ZM15 26H16V23H15V26Z" fill="#1E7AAA"/>
<path d="M18 4H6V6H18V4Z" fill="#C4C4C4"/>
<path d="M18 8H6V10H18V8Z" fill="#C4C4C4"/>
<path d="M26 12H6V14H26V12Z" fill="#C4C4C4"/>
<path d="M6 16H20V18H6V16Z" fill="#C4C4C4"/>
<path opacity="0.3" d="M17 11V1H18V10H28V11H17Z" fill="black"/>
</svg>
