<svg width="32" height="32" viewBox="0 0 32 32" fill="none" xmlns="http://www.w3.org/2000/svg">
<path d="M4 1H19L28 9L28.1676 31H4V1Z" fill="white"/>
<path fill-rule="evenodd" clip-rule="evenodd" d="M4 31H28.148L28 9L19 1L4.08333 1.06667L4 31ZM19 0H3V32H29V9L19 0Z" fill="#BFBFBF"/>
<path fill-rule="evenodd" clip-rule="evenodd" d="M7 20C6.44772 20 6 20.4477 6 21V28C6 28.5523 6.44772 29 7 29H25C25.5523 29 26 28.5523 26 28V21C26 20.4477 25.5523 20 25 20H7ZM18 24H13V25H18V24ZM8 22V27H11V26H9V25H11V24H9V23H11V22H8ZM20 27V22H23V23H21V24H23V25H21V26H23V25H24V27H20ZM23 24V23H24V24H23Z" fill="#C8A428"/>
<path d="M18.0467 10H18V5.67288L16.5234 4.19626C16.2617 3.9346 15.7383 3.93457 15.4766 4.19626L9.19625 10.4767C8.9346 10.7383 8.93457 11.2617 9.19625 11.5234L15.4766 17.8037C15.7383 18.0654 16.2617 18.0654 16.5234 17.8037L22.8037 11.5234C23.0654 11.2617 23.0654 10.7383 22.8037 10.4766L22.3271 10H21.1869L16 15.1869L11.8131 11L16 6.81308L17.0467 7.85981L14.4299 10.4766L16 12.0467L18.0467 10Z" fill="#BFBFBF"/>
<path opacity="0.3" d="M17 11V1H18V10H28V11H17Z" fill="black"/>
</svg>
