<svg width="32" height="32" viewBox="0 0 32 32" fill="none" xmlns="http://www.w3.org/2000/svg">
<path d="M4 1H19L28 9L28.1676 31H4V1Z" fill="white"/>
<path fill-rule="evenodd" clip-rule="evenodd" d="M4 31H28.148L28 9L19 1L4.08333 1.06667L4 31ZM19 0H3V32H29V9L19 0Z" fill="#BFBFBF"/>
<path fill-rule="evenodd" clip-rule="evenodd" d="M7 20C6.44772 20 6 20.4477 6 21V28C6 28.5523 6.44772 29 7 29H25C25.5523 29 26 28.5523 26 28V21C26 20.4477 25.5523 20 25 20H7ZM18 24H13V25H18V24ZM8 22V27H11V26H9V25H11V24H9V23H11V22H8ZM20 27V22H23V23H21V24H23V25H21V26H23V25H24V27H20ZM23 24V23H24V24H23Z" fill="#C8A428"/>
<path d="M18 5H6V18H26V10H25V17H7V6H18V5Z" fill="#BFBFBF"/>
<path d="M18 7H12V11H8V13H10V14H8V16H22V15H24V13H15V12H24V10H18V7Z" fill="#BFBFBF"/>
<path d="M8 7H11V10H8V7Z" fill="#BFBFBF"/>
<path opacity="0.3" d="M17 11V1H18V10H28V11H17Z" fill="black"/>
</svg>
