<svg width="32" height="32" viewBox="0 0 32 32" fill="none" xmlns="http://www.w3.org/2000/svg">
<path d="M4 1L19 1L28 9V31H4V1Z" fill="white"/>
<path fill-rule="evenodd" clip-rule="evenodd" d="M4.00003 31H28V9L19 1L4.08336 1.06667L4.00003 31ZM19 0H3.00003V32H29V9L19 0Z" fill="#BFBFBF"/>
<path fill-rule="evenodd" clip-rule="evenodd" d="M6 21C6 20.4477 6.44772 20 7 20H25C25.5523 20 26 20.4477 26 21V28C26 28.5523 25.5523 29 25 29H7C6.44772 29 6 28.5523 6 28V21ZM15 22H12V23H13V27H14V23H15V22ZM22 22H23V26H25V27H22V22ZM7 22H8V24H10V22H11V27H10V25H8V27H7V22ZM16 22H17V23H18V25H17V27H16V22ZM19 25V27H18V25H19ZM19 25V23H20V22H21V27H20V25H19Z" fill="#5E93A2"/>
<path d="M10 7H14V9H12V11H10V13H12V15H14V17H10V15H8V13H6V11H8V9H10V7Z" fill="#BFBFBF"/>
<path d="M13 13V11H15V13H13Z" fill="#BFBFBF"/>
<path d="M19 13V11H17V13H19Z" fill="#BFBFBF"/>
<path d="M24 10H20V11H22V13H20V15H18V17H22V15H24V13H26V11H24V10Z" fill="#BFBFBF"/>
<path opacity="0.3" d="M17 11V1H18V10H28V11H17Z" fill="black"/>
</svg>
