<svg width="32" height="32" viewBox="0 0 32 32" fill="none" xmlns="http://www.w3.org/2000/svg">
<path d="M4 1H19L28 9L28.1676 31H4V1Z" fill="white"/>
<path fill-rule="evenodd" clip-rule="evenodd" d="M4 31H28.148L28 9L19 1L4.08333 1.06667L4 31ZM19 0H3V32H29V9L19 0Z" fill="#BFBFBF"/>
<path fill-rule="evenodd" clip-rule="evenodd" d="M6 21C6 20.4477 6.44772 20 7 20H25C25.5523 20 26 20.4477 26 21V28C26 28.5523 25.5523 29 25 29H7C6.44772 29 6 28.5523 6 28V21ZM20 22V23H19V27H18V23H17V22H20ZM14 22H15V23H16V25H15V24H13V23H14V22ZM15 25V26H16V27H13V26H14V25H15ZM24 22H22V23H21V24H22V25H24V26H21V27H24V26H25V25H24V24H22V23H24V22ZM7 22H8V23H9V25H8V27H7V22ZM10 25V27H9V25H10ZM10 25V23H11V22H12V27H11V25H10Z" fill="#3C5D8D"/>
<path fill-rule="evenodd" clip-rule="evenodd" d="M23 11C23 14.866 19.866 18 16 18C12.134 18 9 14.866 9 11C9 7.13401 12.134 4 16 4C16.695 4 17.3663 4.10128 18 4.28988V10H20C19.4477 10 19 10.4477 19 11C19 11.5523 19.4477 12 20 12C20.5523 12 21 11.5523 21 11C21 10.4477 20.5523 10 20 10H22.9291C22.9758 10.3266 23 10.6605 23 11ZM17 7C17 7.55228 16.5523 8 16 8C15.4477 8 15 7.55228 15 7C15 6.44772 15.4477 6 16 6C16.5523 6 17 6.44772 17 7ZM16 16C16.5523 16 17 15.5523 17 15C17 14.4477 16.5523 14 16 14C15.4477 14 15 14.4477 15 15C15 15.5523 15.4477 16 16 16ZM13 9C13.5523 9 14 8.55228 14 8C14 7.44772 13.5523 7 13 7C12.4477 7 12 7.44772 12 8C12 8.55228 12.4477 9 13 9ZM14 14C14 14.5523 13.5523 15 13 15C12.4477 15 12 14.5523 12 14C12 13.4477 12.4477 13 13 13C13.5523 13 14 13.4477 14 14ZM20 14C20 14.5523 19.5523 15 19 15C18.4477 15 18 14.5523 18 14C18 13.4477 18.4477 13 19 13C19.5523 13 20 13.4477 20 14ZM12 12C12.5523 12 13 11.5523 13 11C13 10.4477 12.5523 10 12 10C11.4477 10 11 10.4477 11 11C11 11.5523 11.4477 12 12 12Z" fill="#BFBFBF"/>
<path opacity="0.3" d="M17 11V1H18V10H28V11H17Z" fill="black"/>
</svg>
