<svg width="32" height="32" viewBox="0 0 32 32" fill="none" xmlns="http://www.w3.org/2000/svg">
<path d="M4 1H19L28 9L28.1676 31H4V1Z" fill="white"/>
<path fill-rule="evenodd" clip-rule="evenodd" d="M4 31H28.148L28 9L19 1L4.08333 1.06667L4 31ZM19 0H3V32H29V9L19 0Z" fill="#BFBFBF"/>
<path fill-rule="evenodd" clip-rule="evenodd" d="M7 20C6.44772 20 6 20.4477 6 21V28C6 28.5523 6.44772 29 7 29H25C25.5523 29 26 28.5523 26 28V21C26 20.4477 25.5523 20 25 20H7ZM21 22H20V24H21V26H22V27H23V25H24V23H25V22H23V25H22V23H21V22ZM15 22H14V27H15V25H17V27H19V26H18V25H17V23H18V22H17V23H16V24H15V22ZM8 22H9V23H10V25H9V27H8V22ZM11 25V27H10V25H11ZM11 25V23H12V22H13V27H12V25H11Z" fill="#0E6B8D"/>
<path d="M10.8636 7.79605C10.6425 7.94485 10.3546 8.02307 10 8.0307V8.96358C10.3546 8.97121 10.6425 9.05134 10.8636 9.20395C11.0892 9.35657 11.2389 9.56452 11.3126 9.82778C11.3863 10.0911 11.4254 10.5661 11.4301 11.2529C11.4304 11.298 11.4308 11.3423 11.4313 11.3858C8.20605 11.9666 6 13.1432 6 14.5C6 16.433 10.4772 18 16 18C21.5228 18 26 16.433 26 14.5C26 13.1432 23.794 11.9666 20.5687 11.3858C20.5692 11.3423 20.5696 11.298 20.5699 11.2529C20.5737 10.696 20.6001 10.2784 20.6493 10H19.4924C19.4324 10.2984 19.4024 10.6569 19.4024 11.0754C19.4024 11.8195 19.3932 12.2621 19.3748 12.4032C19.3379 12.6627 19.2458 12.8439 19.0984 12.9469C18.9465 13.0499 18.6517 13.1015 18.2142 13.1015H18V14H18.3869C18.8382 14 19.1652 13.9695 19.3679 13.9084C19.6626 13.8207 19.9067 13.6776 20.1002 13.4792C20.2936 13.2846 20.4203 13.0366 20.4801 12.7352C20.5255 12.488 20.5538 12.1112 20.565 11.6047C22.056 12.0632 23 12.7422 23 13.5C23 14.8807 19.866 16 16 16C12.134 16 9 14.8807 9 13.5C9 12.7422 9.94403 12.0632 11.435 11.6047C11.4462 12.1111 11.4745 12.488 11.5199 12.7352C11.5797 13.0366 11.7064 13.2846 11.8998 13.4792C12.0933 13.6776 12.3374 13.8207 12.6321 13.9084C12.8348 13.9695 13.1618 14 13.6131 14H14V13.1015H13.7858C13.3483 13.1015 13.0535 13.0499 12.9016 12.9469C12.7542 12.8439 12.6621 12.6627 12.6252 12.4032C12.6068 12.2621 12.5976 11.8195 12.5976 11.0754C12.5976 10.2551 12.4824 9.66563 12.2522 9.30697C12.0265 8.9445 11.6603 8.67551 11.1537 8.5C11.582 8.3283 11.8952 8.13181 12.0933 7.91051C12.2959 7.68921 12.4387 7.37444 12.5216 6.96618C12.5723 6.70291 12.5976 6.07145 12.5976 5.0718C12.5976 4.57579 12.6759 4.2572 12.8325 4.11602C12.9891 3.97104 13.3069 3.89854 13.7858 3.89854H14V3H13.6131C13.217 3 12.9315 3.01908 12.7565 3.05723C12.4986 3.11828 12.2867 3.20794 12.1209 3.32622C11.9551 3.44069 11.8146 3.59521 11.6995 3.7898C11.5889 3.98439 11.513 4.24194 11.4715 4.56244C11.4485 4.76465 11.4347 5.18436 11.4301 5.82154C11.4254 6.45872 11.3863 6.90895 11.3126 7.17222C11.2389 7.43548 11.0892 7.64343 10.8636 7.79605Z" fill="#BFBFBF"/>
<path opacity="0.3" d="M17 11V1H18V10H28V11H17Z" fill="black"/>
</svg>
