<svg width="32" height="32" viewBox="0 0 32 32" fill="none" xmlns="http://www.w3.org/2000/svg">
<path d="M4 1H19L28 9L28.1676 31H4V1Z" fill="white"/>
<path fill-rule="evenodd" clip-rule="evenodd" d="M4 31H28.148L28 9L19 1L4.08333 1.06667L4 31ZM19 0H3V32H29V9L19 0Z" fill="#BFBFBF"/>
<path d="M17 23V26H15V23H17Z" fill="#0087CD"/>
<path fill-rule="evenodd" clip-rule="evenodd" d="M7 20C6.44772 20 6 20.4477 6 21V28C6 28.5523 6.44772 29 7 29H25C25.5523 29 26 28.5523 26 28V21C26 20.4477 25.5523 20 25 20H7ZM20 22H19V24H20V26H21V27H22V25H23V23H24V22H22V25H21V23H20V22ZM9 22H8V27H9V25H10V27H11V25H12V27H13V22H12V23H11V25H10V23H9V22ZM15 22V23H14V26H15V27H17V26H18V23H17V22H15Z" fill="#0087CD"/>
<path d="M20.1922 16.6064C19.0236 17.4816 17.5724 18 16 18C12.134 18 9 14.866 9 11C9 7.13401 12.134 4 16 4C16.695 4 17.3663 4.10128 18 4.28988V6.41604C17.3875 6.14845 16.7111 6 16 6C13.2386 6 11 8.23858 11 11C11 13.7614 13.2386 16 16 16C17.0191 16 17.967 15.6951 18.7574 15.1716L15.2995 11.7137C15.1147 11.5322 15 11.2795 15 11C15 10.4477 15.4477 10 16 10C16.2761 10 16.5261 10.1119 16.7071 10.2929L20.1716 13.7574C20.6951 12.9669 21 12.0191 21 11C21 10.6575 20.9656 10.3231 20.9 10H22.9291C22.9758 10.3266 23 10.6605 23 11C23 12.5723 22.4816 14.0236 21.6064 15.1921L23 16.5857V18H21.5858L20.1922 16.6064Z" fill="#BFBFBF"/>
<path opacity="0.3" d="M17 11V1H18V10H28V11H17Z" fill="black"/>
</svg>
