<svg width="32" height="32" viewBox="0 0 32 32" fill="none" xmlns="http://www.w3.org/2000/svg">
<path d="M4 1H19L28 9L28.1676 31H4V1Z" fill="white"/>
<path fill-rule="evenodd" clip-rule="evenodd" d="M4 31H28.148L28 9L19 1L4.08333 1.06667L4 31ZM19 0H3V32H29V9L19 0Z" fill="#BFBFBF"/>
<path d="M9 23H11V24H9V23Z" fill="#F38400"/>
<path d="M17 23H15V24H17V23Z" fill="#F38400"/>
<path fill-rule="evenodd" clip-rule="evenodd" d="M7 20C6.44772 20 6 20.4477 6 21V28C6 28.5523 6.44772 29 7 29H25C25.5523 29 26 28.5523 26 28V21C26 20.4477 25.5523 20 25 20H7ZM8 27V22H12V25H9V27H8ZM14 22V27H15V25H18V22H14ZM21 22H23V23H21V22ZM21 24H20V23H21V24ZM23 25H21V24H23V25ZM23 26V25H24V26H23ZM23 26V27H20V26H23Z" fill="#F38400"/>
<path d="M6 4V18H26V10H25V17H7V5H18V4H6Z" fill="#BFBFBF"/>
<path d="M18 7H16V6H12V8H18V7Z" fill="#BFBFBF"/>
<path d="M10 6H8V8H10V6Z" fill="#BFBFBF"/>
<path d="M17 10V11H15V12H12V10H17Z" fill="#BFBFBF"/>
<path d="M10 14H8V16H10V14Z" fill="#BFBFBF"/>
<path d="M12 14H15V15H23V16H12V14Z" fill="#BFBFBF"/>
<path d="M10 10H8V12H10V10Z" fill="#BFBFBF"/>
<path opacity="0.3" d="M17 11V1H18V10H28V11H17Z" fill="black"/>
</svg>
