<svg width="32" height="32" viewBox="0 0 32 32" fill="none" xmlns="http://www.w3.org/2000/svg">
<path d="M4 1H19L28 9L28.1676 31H4V1Z" fill="white"/>
<path fill-rule="evenodd" clip-rule="evenodd" d="M4 31H28.148L28 9L19 1L4.08333 1.06667L4 31ZM19 0H3V32H29V9L19 0Z" fill="#BFBFBF"/>
<path fill-rule="evenodd" clip-rule="evenodd" d="M7 20C6.44772 20 6 20.4477 6 21V28C6 28.5523 6.44772 29 7 29H25C25.5523 29 26 28.5523 26 28V21C26 20.4477 25.5523 20 25 20H7ZM14 22H19V23H17V27H16V23H14V22ZM20 22H24V23H21V24H23V25H21V27H20V22ZM9 22H12V23H10V24H12V26H11V25H10V27H9V22ZM12 26H13V27H12V26ZM12 24V23H13V24H12Z" fill="#3D96C5"/>
<path d="M18 3H6V18H26V10H25V17H7L7 4L18 4V3Z" fill="#BFBFBF"/>
<path d="M18 5H10V7H18V5Z" fill="#BFBFBF"/>
<path d="M18 8H8V10H18V8Z" fill="#BFBFBF"/>
<path d="M24 11H8V13H24V11Z" fill="#BFBFBF"/>
<path d="M24 14H8V16H24V14Z" fill="#BFBFBF"/>
<path opacity="0.3" d="M17 11V1H18V10H28V11H17Z" fill="black"/>
</svg>
