<svg width="32" height="32" viewBox="0 0 32 32" fill="none" xmlns="http://www.w3.org/2000/svg">
<path d="M4 1H19L28 9L28.1676 31H4V1Z" fill="white"/>
<path fill-rule="evenodd" clip-rule="evenodd" d="M4 31H28.148L28 9L19 1L4.08333 1.06667L4 31ZM19 0H3V32H29V9L19 0Z" fill="#BFBFBF"/>
<path fill-rule="evenodd" clip-rule="evenodd" d="M7 20C6.44772 20 6 20.4477 6 21V28C6 28.5523 6.44772 29 7 29H25C25.5523 29 26 28.5523 26 28V21C26 20.4477 25.5523 20 25 20H7ZM9 22H11V23H9V22ZM9 24H8V23H9V24ZM11 25H9V24H11V25ZM11 26V25H12V26H11ZM11 26V27H8V26H11ZM15 22H14V27H15V25H16V26H17V27H18V22H17V24H16V23H15V22ZM20 27V22H23V23H21V26H23V27H20ZM23 26V23H24V26H23Z" fill="#D56DB6"/>
<path d="M18 3.80005L12 5.00005V14C10.8954 14 10 14.8955 10 16C10 17.1046 10.8954 18 12 18C13.1046 18 14 17.1046 14 16V8.60005L18 7.80005V3.80005Z" fill="#BFBFBF"/>
<path d="M20 10V12C18.8954 12 18 12.8955 18 14C18 15.1046 18.8954 16 20 16C21.1046 16 22 15.1046 22 14V10H20Z" fill="#BFBFBF"/>
<path opacity="0.3" d="M17 11V1H18V10H28V11H17Z" fill="black"/>
</svg>
