<svg width="32" height="32" viewBox="0 0 32 32" fill="none" xmlns="http://www.w3.org/2000/svg">
<path d="M4 1H19L28 9L28.1676 31H4V1Z" fill="white"/>
<path fill-rule="evenodd" clip-rule="evenodd" d="M4 31H28.148L28 9L19 1L4.08333 1.06667L4 31ZM19 0H3V32H29V9L19 0Z" fill="#BFBFBF"/>
<path fill-rule="evenodd" clip-rule="evenodd" d="M7 20C6.44772 20 6 20.4477 6 21V28C6 28.5523 6.44772 29 7 29H25C25.5523 29 26 28.5523 26 28V21C26 20.4477 25.5523 20 25 20H7ZM21 23V22H24V23H21ZM21 26H20V23H21V26ZM21 26H23V25H22V24H24V27H21V26ZM11 22H9V23H8V24H9V25H11V26H8V27H11V26H12V25H11V24H9V23H11V22ZM15 22H14V24H15V26H16V27H17V25H18V22H17V25H16V23H15V22Z" fill="#507C8B"/>
<path d="M17 9.73244C17.5978 9.38663 18 8.74028 18 8C18 6.89543 17.1046 6 16 6C14.8954 6 14 6.89543 14 8C14 8.74028 14.4022 9.38663 15 9.73244V14.5858L11.9323 11.518C11.9764 11.3528 12 11.1792 12 11C12 9.89543 11.1046 9 10 9C8.89543 9 8 9.89543 8 11C8 12.1046 8.89543 13 10 13C10.1792 13 10.3528 12.9764 10.518 12.9323L13.5858 16H9.73244C9.38663 15.4022 8.74028 15 8 15C6.89543 15 6 15.8954 6 17C6 17.3643 6.09739 17.7058 6.26756 18H25.7324C25.9026 17.7058 26 17.3643 26 17C26 15.8954 25.1046 15 24 15C23.2597 15 22.6134 15.4022 22.2676 16H18.4142L21.482 12.9323C21.6472 12.9764 21.8208 13 22 13C23.1046 13 24 12.1046 24 11C24 10.6357 23.9026 10.2942 23.7324 10H20.2676C20.0974 10.2942 20 10.6357 20 11C20 11.1792 20.0236 11.3528 20.0677 11.518L17 14.5858V9.73244Z" fill="#BFBFBF"/>
<path opacity="0.3" d="M17 11V1H18V10H28V11H17Z" fill="black"/>
</svg>
