<svg width="32" height="32" viewBox="0 0 32 32" fill="none" xmlns="http://www.w3.org/2000/svg">
<path d="M4 1H19L28 9L28.1676 31H4V1Z" fill="white"/>
<path fill-rule="evenodd" clip-rule="evenodd" d="M4 31H28.148L28 9L19 1L4.08333 1.06667L4 31ZM19 0H3V32H29V9L19 0Z" fill="#BFBFBF"/>
<path fill-rule="evenodd" clip-rule="evenodd" d="M7 20C6.44772 20 6 20.4477 6 21V28C6 28.5523 6.44772 29 7 29H25C25.5523 29 26 28.5523 26 28V21C26 20.4477 25.5523 20 25 20H7ZM14 22H15V24H14V22ZM17 24H15V25H14V27H15V25H17V27H18V25H17V24ZM17 24V22H18V24H17ZM12 22H7V23H9V27H10V23H12V22ZM20 22H25V23H23V27H22V23H20V22Z" fill="#848F92"/>
<path d="M6 16H26V18H6V16Z" fill="#BFBFBF"/>
<path d="M6 13H26V15H6V13Z" fill="#BFBFBF"/>
<path d="M6 10H26V12H6V10Z" fill="#BFBFBF"/>
<path d="M6 7H15V9H6V7Z" fill="#BFBFBF"/>
<path d="M6 4H15V6H6V4Z" fill="#BFBFBF"/>
<path opacity="0.3" d="M17 11V1H18V10H28V11H17Z" fill="black"/>
</svg>
