<svg width="16" height="16" viewBox="0 0 16 16" fill="none" xmlns="http://www.w3.org/2000/svg">
<path fill-rule="evenodd" clip-rule="evenodd" d="M2 8C2 5.77915 3.2066 3.84012 5 2.80269V0.581517C2.06817 1.76829 0 4.64262 0 8C0 12.4183 3.58172 16 8 16C12.4183 16 16 12.4183 16 8C16 4.64262 13.9318 1.76829 11 0.581517V2.80269C12.7934 3.84012 14 5.77915 14 8C14 11.3137 11.3137 14 8 14C4.68629 14 2 11.3137 2 8ZM8 0C8.02901 0 8.05798 0.000154377 8.08691 0.000462353H7.91309C7.94202 0.000154377 7.97099 0 8 0ZM7 1V3H9V1H7ZM7 4V12H9V4H7Z" fill="#333333"/>
</svg>
