<svg width="20" height="20" viewBox="0 0 20 20" fill="none" xmlns="http://www.w3.org/2000/svg">
<path fill-rule="evenodd" clip-rule="evenodd" d="M10 6C11.6569 6 13 4.65685 13 3C13 1.34315 11.6569 0 10 0C8.34315 0 7 1.34315 7 3C7 4.65685 8.34315 6 10 6ZM17 18C18.6569 18 20 16.6569 20 15C20 13.3431 18.6569 12 17 12C15.3431 12 14 13.3431 14 15C14 16.6569 15.3431 18 17 18ZM6 15C6 16.6569 4.65685 18 3 18C1.34315 18 0 16.6569 0 15C0 13.3431 1.34315 12 3 12C4.65685 12 6 13.3431 6 15ZM5.19768 4.04109C5.10813 3.83914 4.85736 3.79084 4.6806 3.92334C2.85452 5.29219 1.57147 7.35152 1.22118 9.71678C1.17786 10.0093 1.47238 10.2286 1.75895 10.1557C2.29592 10.019 2.85521 9.97186 3.40782 10.0164C3.51534 10.0251 3.61297 9.95095 3.63254 9.84487C3.90875 8.34714 4.70109 7.02878 5.82092 6.08194C5.90301 6.01254 5.91859 5.89165 5.86284 5.79974C5.66504 5.47365 5.55342 5.10732 5.44399 4.74818L5.44399 4.74817C5.36965 4.5042 5.29632 4.26355 5.19768 4.04109ZM14.1355 5.80208C14.0797 5.894 14.0953 6.0149 14.1773 6.08435C15.2957 7.03109 16.087 8.34861 16.3629 9.84522C16.3825 9.95138 16.4802 10.0255 16.5878 10.0168C17.1403 9.97174 17.6996 10.0183 18.2366 10.1545C18.5231 10.2272 18.8173 10.0078 18.774 9.71548C18.4234 7.35076 17.1405 5.29194 15.3148 3.92334C15.138 3.79084 14.8873 3.83918 14.7981 4.04129C14.7002 4.26327 14.6274 4.50373 14.5537 4.74762L14.5537 4.74763L14.5536 4.74764C14.4447 5.10787 14.3335 5.47554 14.1355 5.80208ZM12.5104 17.2034C12.4628 17.1066 12.3492 17.0606 12.248 17.0981C11.548 17.3577 10.7904 17.4996 9.99769 17.4996C9.20645 17.4996 8.45007 17.3582 7.75116 17.0995C7.65004 17.0621 7.53651 17.108 7.4889 17.2048C7.24225 17.706 6.91412 18.1599 6.52179 18.5492C6.31196 18.7574 6.34921 19.1223 6.62257 19.2348C7.66403 19.6634 8.80438 19.8996 9.99769 19.8996C11.1923 19.8996 12.3339 19.6629 13.3762 19.2334C13.6494 19.1208 13.6866 18.7562 13.477 18.548C13.0848 18.1586 12.7569 17.7046 12.5104 17.2034Z" fill="#7A95B0"/>
</svg>
