<svg width="16" height="16" viewBox="0 0 16 16" fill="none" xmlns="http://www.w3.org/2000/svg">
<g clip-path="url(#clip0_18889_63361)">
<path fill-rule="evenodd" clip-rule="evenodd" d="M2 2.99976L8.75736 2.99976L10.7574 0.999756H2C0.89543 0.999756 0 1.89519 0 2.99976V13.5855C0 15.3673 2.15428 16.2597 3.41421 14.9998L5.41421 12.9998H14C15.1046 12.9998 16 12.1043 16 10.9998V4.2424L14 6.2424V10.9998H5.41421C4.88378 10.9998 4.37507 11.2105 4 11.5855L2 13.5855V2.99976ZM14.7071 2.70686L8.20711 9.20686C7.81658 9.59739 7.18342 9.59739 6.79289 9.20686L3.79289 6.20686L5.2071 4.79264L7.5 7.08554L13.2929 1.29265L14.7071 2.70686Z" fill="#333333"/>
</g>
<defs>
<clipPath id="clip0_18889_63361">
<rect width="16" height="16" fill="white"/>
</clipPath>
</defs>
</svg>
