<svg width="32" height="32" viewBox="0 0 32 32" fill="none" xmlns="http://www.w3.org/2000/svg">
<rect y="8" width="30" height="20" rx="2" fill="#B2BBC0"/>
<path d="M0 4C0 2.89543 0.895431 2 2 2H11C12.1046 2 13 2.89543 13 4V6H28C29.1046 6 30 6.89543 30 8V10C30 8.89543 29.1046 8 28 8H2C0.895431 8 0 8.89543 0 10V4Z" fill="#788790"/>
<path d="M31.7789 30.0527C31.9786 30.329 31.9386 30.6842 31.699 30.8816C31.4193 31.0789 31.0199 31.0395 30.8201 30.8026L29.422 29.0265L28.0638 30.7632C27.8641 31.0395 27.4646 31.0395 27.185 30.8421C26.9053 30.6448 26.8654 30.2895 27.0651 30.0133L28.663 27.9609L27.0651 25.9084C26.8654 25.6322 26.9453 25.2375 27.185 25.0401C27.4646 24.8428 27.8641 24.9217 28.0638 25.1585L29.422 26.9346L30.8201 25.2375C31.0199 24.9612 31.3794 24.9217 31.699 25.1191C31.9786 25.3164 31.9786 25.7111 31.7789 25.9874L30.2209 28.0003L31.7789 30.0527ZM24.5085 29.8159C23.4699 29.8159 22.631 29.0265 22.631 28.0003C22.631 27.0136 23.4699 26.1847 24.5085 26.1847C25.5471 26.1847 26.386 27.0136 26.386 28.0003C26.3461 29.0265 25.5072 29.8159 24.5085 29.8159ZM18.9958 29.8159C17.9572 29.8159 17.1183 29.0265 17.1183 28.0003C17.1183 27.0136 17.9572 26.1847 18.9958 26.1847C20.0345 26.1847 20.8733 27.0136 20.8733 28.0003C20.8733 29.0265 20.0345 29.8159 18.9958 29.8159ZM24.5085 25.0006C23.3501 25.0006 22.3114 25.6322 21.7921 26.5794C21.2728 25.6322 20.2342 25.0006 19.0358 25.0006C18.3167 25.0006 17.6776 25.2375 17.1583 25.5927V23.0667C17.1583 22.7509 16.8786 22.4746 16.5591 22.4746C16.1996 22.4746 15.9199 22.7509 15.9199 23.0667V28.0398C15.9599 29.6975 17.3181 31 18.9958 31C20.1942 31 21.2329 30.329 21.7522 29.3818C22.2715 30.329 23.3101 31 24.4686 31C26.1863 31 27.5844 29.658 27.5844 27.9609C27.6244 26.3426 26.2262 25.0006 24.5085 25.0006Z" fill="#0071F7"/>
</svg>
