<svg width="32" height="32" viewBox="0 0 32 32" fill="none" xmlns="http://www.w3.org/2000/svg">
<rect y="8" width="30" height="20" rx="2" fill="#B2BBC0"/>
<path d="M23 23.5C23 23.6757 22.9698 23.8443 22.9143 24.0009C22.0774 24.0185 21.3038 24.2931 20.669 24.749C20.2657 24.4801 20 24.0211 20 23.5C20 22.6716 20.6716 22 21.5 22C22.3284 22 23 22.6716 23 23.5Z" fill="#1D2D44"/>
<path d="M26 28C26 29.6569 24.6569 31 23 31C21.3431 31 20 29.6569 20 28C20 26.3431 21.3431 25 23 25C24.6569 25 26 26.3431 26 28Z" fill="#1D2D44"/>
<path d="M15.5 31C16.3284 31 17 30.3284 17 29.5C17 28.6716 16.3284 28 15.5 28C14.6716 28 14 28.6716 14 29.5C14 30.3284 14.6716 31 15.5 31Z" fill="#1D2D44"/>
<path d="M31 31C31.5523 31 32 30.5523 32 30C32 29.4477 31.5523 29 31 29C30.4477 29 30 29.4477 30 30C30 30.5523 30.4477 31 31 31Z" fill="#1D2D44"/>
<path d="M19.1281 29.0081C19.0862 29.0028 19.0434 29 19 29C18.4477 29 18 29.4477 18 30C18 30.5523 18.4477 31 19 31C19.3735 31 19.6991 30.7953 19.8708 30.4919C19.5272 30.061 19.2708 29.5575 19.1281 29.0081Z" fill="#1D2D44"/>
<path d="M23.9353 24.1099C24.7442 24.3037 25.4576 24.7433 25.9921 25.3453C25.9147 24.5895 25.2762 24 24.5 24C24.3002 24 24.1096 24.0391 23.9353 24.1099Z" fill="#1D2D44"/>
<path d="M27 28C27 29.0417 26.6018 29.9904 25.9494 30.7021C26.2547 30.891 26.6146 31 27 31C28.1046 31 29 30.1046 29 29C29 27.8954 28.1046 27 27 27C26.958 27 26.9163 27.0013 26.875 27.0038C26.9566 27.3223 27 27.6561 27 28Z" fill="#1D2D44"/>
<path d="M19 25C19.3854 25 19.7453 25.109 20.0506 25.2979C19.3982 26.0096 19 26.9583 19 28C18.4928 28 18.0297 28.1888 17.6771 28.5C17.2619 28.1335 17 27.5973 17 27C17 25.8954 17.8954 25 19 25Z" fill="#1D2D44"/>
<path d="M18.5 24C18.7761 24 19 23.7761 19 23.5C19 23.2239 18.7761 23 18.5 23C18.2239 23 18 23.2239 18 23.5C18 23.7761 18.2239 24 18.5 24Z" fill="#1D2D44"/>
<path d="M0 4C0 2.89543 0.895431 2 2 2H11C12.1046 2 13 2.89543 13 4V6H28C29.1046 6 30 6.89543 30 8V10C30 8.89543 29.1046 8 28 8H2C0.895431 8 0 8.89543 0 10V4Z" fill="#788790"/>
</svg>
