<svg width="32" height="32" viewBox="0 0 32 32" fill="none" xmlns="http://www.w3.org/2000/svg">
<rect y="8" width="30" height="20" rx="2" fill="#B2BBC0"/>
<path d="M0 4C0 2.89543 0.895431 2 2 2H11C12.1046 2 13 2.89543 13 4V6H28C29.1046 6 30 6.89543 30 8V10C30 8.89543 29.1046 8 28 8H2C0.895431 8 0 8.89543 0 10V4Z" fill="#788790"/>
<circle cx="25" cy="21" r="4" fill="#036C70"/>
<circle cx="28.5" cy="25.5" r="3.5" fill="#1A9BA1"/>
<circle cx="24" cy="28" r="3" fill="#37C6D0"/>
<rect x="18" y="20" width="7" height="7" fill="#048A8E"/>
<path d="M20.4839 23.4117C20.3371 23.3001 20.2144 23.1516 20.1253 22.9774C20.0389 22.7952 19.9959 22.5903 20.0005 22.3832C19.9928 22.1027 20.0754 21.8287 20.2326 21.6135C20.3978 21.398 20.6114 21.2384 20.8501 21.1521C21.1222 21.0495 21.4072 20.9989 21.6936 21.0025C22.0702 20.9867 22.4463 21.047 22.8047 21.1807V22.0816C22.649 21.9735 22.4794 21.8942 22.3021 21.8466C22.1098 21.7925 21.9125 21.7654 21.7144 21.7659C21.5056 21.7571 21.2981 21.8074 21.1103 21.9124C20.9653 21.984 20.8713 22.1474 20.871 22.3283C20.8704 22.4381 20.9072 22.5437 20.9735 22.6229C21.0519 22.7162 21.1446 22.7921 21.2471 22.8469C21.361 22.912 21.532 22.9984 21.7599 23.1062C21.785 23.1153 21.8095 23.1266 21.8331 23.1399C22.0574 23.2404 22.2738 23.3626 22.4799 23.5054C22.636 23.6156 22.767 23.7668 22.8622 23.9464C22.9597 24.15 23.007 24.3802 22.9989 24.6123C23.0101 24.9003 22.9332 25.1837 22.7815 25.4137C22.6303 25.6251 22.4282 25.781 22.2003 25.8618C21.9322 25.958 21.6524 26.0046 21.3715 25.9996C21.1195 26.001 20.8678 25.9774 20.6193 25.9291C20.4095 25.8898 20.2048 25.8209 20.0097 25.7239V24.774C20.1961 24.9266 20.4044 25.0406 20.6251 25.1109C20.8451 25.1894 21.0738 25.2314 21.3042 25.2355C21.5174 25.2509 21.7302 25.1992 21.9196 25.0858C22.0522 25.0001 22.1329 24.8377 22.1295 24.6632C22.1304 24.5418 22.0885 24.4252 22.0133 24.3397C21.9197 24.2345 21.8114 24.148 21.6929 24.0839C21.5561 24.0056 21.3548 23.9023 21.0888 23.7741C20.8772 23.6766 20.6745 23.5552 20.4839 23.4117Z" fill="white"/>
</svg>
