<svg width="32" height="32" viewBox="0 0 32 32" fill="none" xmlns="http://www.w3.org/2000/svg">
<g clip-path="url(#clip0_4529_37943)">
<path fill-rule="evenodd" clip-rule="evenodd" d="M10 11L16.7574 11L18.7574 9H10C8.89543 9 8 9.89543 8 11V21.5858C8 23.3676 10.1543 24.2599 11.4142 23L13.4142 21H22C23.1046 21 24 20.1046 24 19V12.2426L22 14.2426V19H13.4142C12.8838 19 12.3751 19.2107 12 19.5858L10 21.5858V11ZM22.7071 10.7071L16.2071 17.2071C15.8166 17.5976 15.1834 17.5976 14.7929 17.2071L11.7929 14.2071L13.2071 12.7929L15.5 15.0858L21.2929 9.29289L22.7071 10.7071Z" fill="#CC5BCC"/>
</g>
<path d="M6 2H26V-2H6V2ZM30 6V26H34V6H30ZM26 30H6V34H26V30ZM2 26V6H-2V26H2ZM6 30C3.79086 30 2 28.2091 2 26H-2C-2 30.4183 1.58172 34 6 34V30ZM30 26C30 28.2091 28.2091 30 26 30V34C30.4183 34 34 30.4183 34 26H30ZM26 2C28.2091 2 30 3.79086 30 6H34C34 1.58172 30.4183 -2 26 -2V2ZM6 -2C1.58172 -2 -2 1.58172 -2 6H2C2 3.79086 3.79086 2 6 2V-2Z" fill="#CC5BCC"/>
<defs>
<clipPath id="clip0_4529_37943">
<rect width="16" height="16" fill="white" transform="translate(8 8)"/>
</clipPath>
</defs>
</svg>
