<svg width="31" height="15" viewBox="0 0 31 15" fill="none" xmlns="http://www.w3.org/2000/svg">
<path fill-rule="evenodd" clip-rule="evenodd" d="M15.5 15C12.3694 15 9.71064 12.8727 8.75591 9.91586C8.00927 11.4455 6.4325 12.5 4.60811 12.5C2.06312 12.5 0 10.448 0 7.91667C0 5.38536 2.06312 3.33333 4.60811 3.33333C6.31527 3.33333 7.80561 4.25668 8.60185 5.62865C9.39122 2.392 12.1804 0 15.5 0C18.8196 0 21.6088 2.392 22.3981 5.62865C23.1944 4.25668 24.6847 3.33333 26.3919 3.33333C28.9369 3.33333 31 5.38536 31 7.91667C31 10.448 28.9369 12.5 26.3919 12.5C24.5675 12.5 22.9907 11.4455 22.2441 9.91586C21.2894 12.8727 18.6306 15 15.5 15ZM6.76509 7.91667C6.76509 9.10153 5.79938 10.0621 4.60811 10.0621C3.41684 10.0621 2.45112 9.10153 2.45112 7.91667C2.45112 6.7318 3.41684 5.77128 4.60811 5.77128C5.79938 5.77128 6.76509 6.7318 6.76509 7.91667ZM28.5489 7.91667C28.5489 9.10153 27.5832 10.0621 26.3919 10.0621C25.2006 10.0621 24.2349 9.10153 24.2349 7.91667C24.2349 6.7318 25.2006 5.77128 26.3919 5.77128C27.5832 5.77128 28.5489 6.7318 28.5489 7.91667ZM20.0499 7.5C20.0499 10.1464 18.0129 12.2917 15.5 12.2917C12.9871 12.2917 10.9501 10.1464 10.9501 7.5C10.9501 4.85364 12.9871 2.70833 15.5 2.70833C18.0129 2.70833 20.0499 4.85364 20.0499 7.5Z" fill="#657077"/>
</svg>
