<svg width="32" height="32" viewBox="0 0 32 32" fill="none" xmlns="http://www.w3.org/2000/svg">
<rect y="8" width="30" height="20" rx="2" fill="#B2BBC0"/>
<path d="M0 4C0 2.89543 0.895431 2 2 2H11C12.1046 2 13 2.89543 13 4V6H28C29.1046 6 30 6.89543 30 8V10C30 8.89543 29.1046 8 28 8H2C0.895431 8 0 8.89543 0 10V4Z" fill="#788790"/>
<path d="M31.779 30.0527C31.9788 30.329 31.9388 30.6842 31.6991 30.8816C31.4195 31.0789 31.02 31.0395 30.8203 30.8026L29.4222 29.0265L28.064 30.7632C27.8642 31.0395 27.4648 31.0395 27.1851 30.8421C26.9055 30.6448 26.8656 30.2895 27.0653 30.0133L28.6632 27.9609L27.0653 25.9084C26.8656 25.6322 26.9455 25.2375 27.1851 25.0401C27.4648 24.8428 27.8642 24.9217 28.064 25.1585L29.4222 26.9346L30.8203 25.2375C31.02 24.9612 31.3796 24.9217 31.6991 25.1191C31.9788 25.3164 31.9788 25.7111 31.779 25.9874L30.2211 28.0003L31.779 30.0527ZM24.5087 29.8159C23.4701 29.8159 22.6312 29.0265 22.6312 28.0003C22.6312 27.0136 23.4701 26.1847 24.5087 26.1847C25.5473 26.1847 26.3862 27.0136 26.3862 28.0003C26.3463 29.0265 25.5074 29.8159 24.5087 29.8159ZM18.996 29.8159C17.9574 29.8159 17.1185 29.0265 17.1185 28.0003C17.1185 27.0136 17.9574 26.1847 18.996 26.1847C20.0346 26.1847 20.8735 27.0136 20.8735 28.0003C20.8735 29.0265 20.0346 29.8159 18.996 29.8159ZM24.5087 25.0006C23.3502 25.0006 22.3116 25.6322 21.7923 26.5794C21.273 25.6322 20.2344 25.0006 19.036 25.0006C18.3169 25.0006 17.6778 25.2375 17.1585 25.5927V23.0667C17.1585 22.7509 16.8788 22.4746 16.5593 22.4746C16.1997 22.4746 15.9201 22.7509 15.9201 23.0667V28.0398C15.9601 29.6975 17.3182 31 18.996 31C20.1944 31 21.233 30.329 21.7524 29.3818C22.2717 30.329 23.3103 31 24.4687 31C26.1865 31 27.5846 29.658 27.5846 27.9609C27.6246 26.3426 26.2264 25.0006 24.5087 25.0006Z" fill="#0071F7"/>
</svg>
