<svg width="32" height="32" viewBox="0 0 32 32" fill="none" xmlns="http://www.w3.org/2000/svg">
<rect y="8" width="30" height="20" rx="2" fill="#B2BBC0"/>
<path d="M0 4C0 2.89543 0.895431 2 2 2H11C12.1046 2 13 2.89543 13 4V6H28C29.1046 6 30 6.89543 30 8V10C30 8.89543 29.1046 8 28 8H2C0.895431 8 0 8.89543 0 10V4Z" fill="#788790"/>
<path d="M24.2925 20L20.0029 28H23.4071L26.0002 23.1638L24.3038 20H24.2925Z" fill="#00AC47"/>
<path d="M23.4069 28H20L21.7983 31L23.4069 28Z" fill="#0066DA"/>
<path d="M23.4074 28H28.5936L30.2021 31H21.7988L23.4074 28Z" fill="#2684FC"/>
<path d="M28.5931 28H32L30.2017 31L28.5931 28Z" fill="#EA4335"/>
<path d="M28.5931 28L26 23.1638L27.6964 20H27.7076L31.9973 28H28.5931Z" fill="#FFBA00"/>
<path d="M27.6965 20H24.3037L26.0001 23.1638L27.6965 20Z" fill="#00832D"/>
</svg>
