<svg width="32" height="32" viewBox="0 0 32 32" fill="none" xmlns="http://www.w3.org/2000/svg">
<g clip-path="url(#clip0)">
<rect y="8" width="30" height="20" rx="2" fill="#B2BBC0"/>
<path d="M0 4C0 2.89543 0.895431 2 2 2H11C12.1046 2 13 2.89543 13 4V6H28C29.1046 6 30 6.89543 30 8V10C30 8.89543 29.1046 8 28 8H2C0.895431 8 0 8.89543 0 10V4Z" fill="#788790"/>
<path opacity="0.504232" fill-rule="evenodd" clip-rule="evenodd" d="M23.5963 17.056L24.8438 17.5775C25.0347 17.6573 25.1824 17.8151 25.2493 18.0109L25.7453 19.4607C25.8252 19.6941 26.0184 19.8707 26.258 19.9293L31.4484 21.1987C31.7722 21.2779 32 21.5682 32 21.9016V27.9577C32 28.3574 31.6761 28.6813 31.2765 28.6813C31.2043 28.6813 31.1326 28.6705 31.0637 28.6493L23.1045 26.2003C22.8009 26.1069 22.5937 25.8264 22.5937 25.5088V17.7236C22.5937 17.324 22.9176 17 23.3173 17C23.4131 17 23.5079 17.019 23.5963 17.056Z" fill="#D0DFFF"/>
<path opacity="0.8" fill-rule="evenodd" clip-rule="evenodd" d="M21.7873 18.5037L23.0348 19.0252C23.2257 19.1051 23.3733 19.2628 23.4403 19.4586L23.9363 20.9084C24.0162 21.1418 24.2094 21.3185 24.449 21.3771L29.6393 22.6465C29.9632 22.7257 30.191 23.0159 30.191 23.3493V29.4055C30.191 29.8051 29.867 30.1291 29.4674 30.1291C29.3953 30.1291 29.3236 30.1183 29.2546 30.0971L21.2954 27.6481C20.9918 27.5547 20.7847 27.2742 20.7847 26.9565V19.1713C20.7847 18.7717 21.1086 18.4478 21.5082 18.4478C21.604 18.4478 21.6989 18.4668 21.7873 18.5037Z" fill="#B3CAFF"/>
<path opacity="0.8" d="M28.3822 27.8239L30.1911 28.3805V23.3484C30.1911 23.015 29.9633 22.7247 29.6394 22.6455L24.4491 21.3761C24.2095 21.3175 24.0163 21.1409 23.9364 20.9075L23.4404 19.4577C23.3734 19.2619 23.2258 19.1041 23.0349 19.0243L22.5937 18.8398V22.5932C22.609 22.598 22.6245 22.6023 22.6402 22.6062L27.8306 23.8756C28.1544 23.9548 28.3822 24.2451 28.3822 24.5785V27.8239Z" fill="#AAC4FF"/>
<path fill-rule="evenodd" clip-rule="evenodd" d="M19.9785 19.7332L21.226 20.2547C21.4169 20.3346 21.5645 20.4923 21.6315 20.6881L22.1275 22.1379C22.2074 22.3713 22.4006 22.5479 22.6402 22.6065L27.8305 23.876C28.1544 23.9552 28.3822 24.2454 28.3822 24.5788V30.635C28.3822 31.0346 28.0582 31.3585 27.6586 31.3585C27.5865 31.3585 27.5148 31.3478 27.4458 31.3266L19.4866 28.8776C19.183 28.7842 18.9759 28.5036 18.9759 28.186V20.4008C18.9759 20.0012 19.2998 19.6772 19.6994 19.6772C19.7952 19.6772 19.8901 19.6963 19.9785 19.7332Z" fill="#1A47FF"/>
<path fill-rule="evenodd" clip-rule="evenodd" d="M18.1434 22.9414L26.1826 25.1746C26.4253 25.242 26.6155 25.4307 26.6847 25.6729L28.199 30.9729C28.2539 31.165 28.1426 31.3653 27.9505 31.4202C27.8831 31.4394 27.8117 31.4387 27.7447 31.4181L19.3241 28.8272C19.1051 28.7598 18.9309 28.5925 18.8546 28.3764L17.2674 23.8794C17.1344 23.5026 17.3321 23.0893 17.7089 22.9563C17.8488 22.9069 18.0005 22.9017 18.1434 22.9414Z" fill="#5287FF"/>
</g>
<defs>
<clipPath id="clip0">
<rect width="32" height="32" fill="white"/>
</clipPath>
</defs>
</svg>
