<svg width="32" height="32" viewBox="0 0 32 32" fill="none" xmlns="http://www.w3.org/2000/svg">
<rect y="8" width="30" height="20" rx="2" fill="#B2BBC0"/>
<path d="M0 4C0 2.89543 0.895431 2 2 2H11C12.1046 2 13 2.89543 13 4V6H28C29.1046 6 30 6.89543 30 8V10C30 8.89543 29.1046 8 28 8H2C0.895431 8 0 8.89543 0 10V4Z" fill="#788790"/>
<path fill-rule="evenodd" clip-rule="evenodd" d="M23 31C24.5703 31 25.9292 30.0952 26.5839 28.7786C27.1301 29.5193 28.0089 30 29 30C30.6569 30 32 28.6567 32 27C32 25.3433 30.6569 24 29 24C28.0089 24 27.1301 24.4807 26.5839 25.2214C25.9292 23.9048 24.5703 23 23 23C21.4297 23 20.0708 23.9048 19.4161 25.2214C18.8699 24.4807 17.9911 24 17 24C15.3431 24 14 25.3433 14 27C14 28.6567 15.3431 30 17 30C17.9911 30 18.8699 29.5193 19.4161 28.7786C20.0708 30.0952 21.4297 31 23 31ZM25 27C25 28.1045 24.1046 29 23 29C21.8954 29 21 28.1045 21 27C21 25.8955 21.8954 25 23 25C24.1046 25 25 25.8955 25 27ZM18 27C18 27.5522 17.5523 28 17 28C16.4477 28 16 27.5522 16 27C16 26.4478 16.4477 26 17 26C17.5523 26 18 26.4478 18 27ZM30 27C30 27.5522 29.5523 28 29 28C28.4477 28 28 27.5522 28 27C28 26.4478 28.4477 26 29 26C29.5523 26 30 26.4478 30 27Z" fill="#0082C9"/>
</svg>
