<svg width="32" height="32" viewBox="0 0 32 32" fill="none" xmlns="http://www.w3.org/2000/svg">
<rect y="8" width="30" height="20" rx="2" fill="#B2BBC0"/>
<path d="M23.3478 24.4995C22.7947 24.1563 22.1566 23.9754 21.506 23.9763C21.4909 23.9763 21.4762 23.9773 21.4612 23.9775C19.5258 24.0015 17.9763 25.5924 18.0003 27.531C18.0159 28.7912 18.5984 29.4232 19 30L26 26L23.3478 24.4995Z" fill="#0078D4"/>
<path d="M19 30C19.6548 30.943 20.3591 31.0005 21.506 30.9999H29.1753C30.2229 31.0002 31.1862 30.4244 31.6832 29.5006L26 26L19 30Z" fill="#28A8EA"/>
<path d="M29 25C27.9934 24.999 26.827 25.4783 26 26L31.6832 29.5006C32.575 27.5424 31.2678 25 29 25Z" fill="#1490DF"/>
<path d="M28.9326 25.0223L29 24.9999C28.4749 22.949 26.8622 22.0073 25.0002 21.9951C23 21.9952 21.8798 22.6646 21 24.0036C21 24.0036 21.0087 24.0058 21.0212 24.0102C21.1652 23.9903 21.312 23.9792 21.4612 23.9773C21.4679 23.9773 21.4746 23.977 21.4813 23.9768C21.4895 23.9765 21.4977 23.9762 21.506 23.9762C22.1566 23.9753 22.7947 24.1562 23.3478 24.4994L26 25.9999C26.7968 25.4972 27.9492 25.0532 28.9326 25.0223Z" fill="#0364B8"/>
<path d="M0 4C0 2.89543 0.895431 2 2 2H11C12.1046 2 13 2.89543 13 4V6H28C29.1046 6 30 6.89543 30 8V10C30 8.89543 29.1046 8 28 8H2C0.895431 8 0 8.89543 0 10V4Z" fill="#788790"/>
</svg>
