<svg width="32" height="32" viewBox="0 0 32 32" fill="none" xmlns="http://www.w3.org/2000/svg">
<g clip-path="url(#clip0)">
<rect y="8" width="30" height="20" rx="2" fill="#B2BBC0"/>
<path d="M0 4C0 2.89543 0.895431 2 2 2H11C12.1046 2 13 2.89543 13 4V6H28C29.1046 6 30 6.89543 30 8V10C30 8.89543 29.1046 8 28 8H2C0.895431 8 0 8.89543 0 10V4Z" fill="#788790"/>
<path d="M18.1711 29.7498C18.1261 29.6112 18.0841 29.4582 18.0673 29.3288C17.938 28.3339 19.0576 26.9326 19.0576 26.9326L19.9634 25.8734C20.5799 24.4435 20.6535 23.5857 22.5531 22.5209C24.1988 21.5985 25.8328 21.7724 27.3295 22.3238C27.3295 22.3238 28.8881 22.3055 29.8098 22.4308C29.8957 22.4425 29.9765 22.4524 30.0536 22.4619C30.5197 22.5702 30.9326 22.6712 31.3889 22.9668C31.599 23.1029 31.7301 23.2662 31.8392 23.4102C30.8398 22.22 27.5448 22.7456 23.8119 24.3811C20.4387 26.0635 17.9262 28.2676 18.1711 29.7498Z" fill="black"/>
<path d="M31.8988 23.4911C32.4732 24.7715 30.6051 27.6216 26.7337 29.6263C23.4143 31.2261 19.3689 31.4959 18.305 30.1353C17.4764 28.6725 20.1314 26.2174 23.8101 24.3826C27.6236 22.7118 30.98 22.1994 31.8988 23.4911Z" fill="#0077FF"/>
<path d="M28.8145 26.2464C29.1282 26.8567 28.0172 27.9207 26.1714 28.8716C24.5919 29.6365 22.8316 30.0049 22.3465 29.3777C22.002 28.7814 23.2057 27.6064 24.9577 26.7326C26.7678 25.9244 28.3924 25.6589 28.8145 26.2464Z" fill="white"/>
</g>
<defs>
<clipPath id="clip0">
<rect width="32" height="32" fill="white"/>
</clipPath>
</defs>
</svg>
