<svg width="16" height="16" viewBox="0 0 16 16" fill="none" xmlns="http://www.w3.org/2000/svg">
<g clip-path="url(#clip0_20763_37010)">
<path fill-rule="evenodd" clip-rule="evenodd" d="M11.4769 3.10916C9.13367 1.43923 5.85958 1.65538 3.75736 3.7576C1.65513 5.85983 1.43898 9.13391 3.10891 11.4771L11.4769 3.10916ZM12.8911 4.52337L4.52313 12.8913C6.86633 14.5613 10.1404 14.3451 12.2426 12.2429C14.3449 10.1407 14.561 6.86657 12.8911 4.52337ZM2.34315 2.34339C5.46734 -0.780804 10.5327 -0.780804 13.6569 2.34339C16.781 5.46758 16.781 10.5329 13.6569 13.6571C10.5327 16.7813 5.46734 16.7813 2.34315 13.6571C-0.781049 10.5329 -0.781049 5.46758 2.34315 2.34339Z" fill="#333333"/>
</g>
<defs>
<clipPath id="clip0_20763_37010">
<rect width="16" height="16" fill="white"/>
</clipPath>
</defs>
</svg>
