<svg width="16" height="16" viewBox="0 0 16 16" fill="none" xmlns="http://www.w3.org/2000/svg">
<g clip-path="url(#clip0_20763_43934)">
<path fill-rule="evenodd" clip-rule="evenodd" d="M2 2.99988L8.75736 2.99988L10.7574 0.999878H2C0.89543 0.999878 0 1.89531 0 2.99988V13.5857C0 15.3675 2.15428 16.2598 3.41421 14.9999L5.41421 12.9999H14C15.1046 12.9999 16 12.1044 16 10.9999V4.24252L14 6.24252V10.9999H5.41421C4.88378 10.9999 4.37507 11.2106 4 11.5857L2 13.5857V2.99988ZM14.7071 2.70698L8.20711 9.20698C7.81658 9.59751 7.18342 9.59751 6.79289 9.20699L3.79289 6.20698L5.2071 4.79277L7.5 7.08566L13.2929 1.29277L14.7071 2.70698Z" fill="#333333"/>
</g>
<defs>
<clipPath id="clip0_20763_43934">
<rect width="16" height="16" fill="white"/>
</clipPath>
</defs>
</svg>
