<svg width="16" height="16" viewBox="0 0 16 16" fill="none" xmlns="http://www.w3.org/2000/svg">
<path fill-rule="evenodd" clip-rule="evenodd" d="M1 1C0.447715 1 0 1.44772 0 2V6C0 6.55228 0.447715 7 1 7H15C15.5523 7 16 6.55228 16 6V2C16 1.44772 15.5523 1 15 1H1ZM1 9C0.447715 9 0 9.44771 0 10C0 10.5523 0.447715 11 1 11H15C15.5523 11 16 10.5523 16 10C16 9.44771 15.5523 9 15 9H1ZM6 14C6 13.4477 6.44772 13 7 13H15C15.5523 13 16 13.4477 16 14C16 14.5523 15.5523 15 15 15H7C6.44772 15 6 14.5523 6 14ZM2.5 3C2.22386 3 2 3.22386 2 3.5V4.5C2 4.77614 2.22386 5 2.5 5H13.5C13.7761 5 14 4.77614 14 4.5V3.5C14 3.22386 13.7761 3 13.5 3H2.5Z" fill="#657077"/>
</svg>
