<svg width="16" height="16" viewBox="0 0 16 16" fill="none" xmlns="http://www.w3.org/2000/svg">
<path fill-rule="evenodd" clip-rule="evenodd" d="M14.7 1.00269C15.418 1.00269 16 1.58472 16 2.30269V11.7011C16 12.4191 15.418 13.0011 14.7 13.0011H4.26511C3.84628 13.0011 3.45311 13.2029 3.20892 13.5432L2.35619 14.7315C1.61969 15.7578 0 15.2368 0 13.9735V2.30269C0 1.58472 0.58203 1.00269 1.3 1.00269H14.7ZM6.28642 9.68714C6.69054 10.1041 7.34657 10.1041 7.75089 9.68714L11.7259 5.82285C11.92 5.6226 12.0291 5.35091 12.0291 5.06775C12.0291 4.78458 11.92 4.51289 11.7259 4.31264C11.3216 3.89564 10.6655 3.89564 10.2614 4.31264L7.20374 7.42846C7.10149 7.53352 6.93582 7.53352 6.83377 7.42846L5.79681 6.34682C5.2987 5.99655 4.73646 5.92982 4.33234 6.34682C3.92803 6.76362 3.92803 7.44023 4.33234 7.85703L6.28642 9.68714Z" fill="#A3A9AE"/>
</svg>
