<svg width="16" height="16" viewBox="0 0 16 16" fill="none" xmlns="http://www.w3.org/2000/svg">
<g clip-path="url(#clip0_2910_72542)">
<path fill-rule="evenodd" clip-rule="evenodd" d="M11.5783 -0.000242493L4.41936 -0.000241966C4.1608 -0.000374392 3.95098 0.209442 3.95111 0.468004L3.95111 0.498338C3.95105 0.937244 4.12199 1.35006 4.43234 1.66041C4.63229 1.86036 4.87496 2.00143 5.13948 2.07719L4.60851 7.27556C4.06569 7.30602 3.55963 7.53167 3.17212 7.91918C2.75454 8.33676 2.52459 8.8919 2.52465 9.48234L2.52465 9.52725C2.52459 9.78587 2.73427 9.99556 2.9929 9.99549L6.99937 9.99549L6.9993 13.5101C7.0005 13.5949 7.17017 15.0259 7.19137 15.2188C7.21258 15.4118 7.36324 15.5487 7.36417 15.5624C7.38013 15.8082 7.75521 15.9992 8.00178 15.9998C8.13093 16 8.41664 15.9478 8.50187 15.8625C8.57956 15.7848 8.63029 15.6798 8.63818 15.5624C8.6389 15.5521 8.79437 15.3697 8.81097 15.2188C8.82757 15.068 9.00165 13.595 9.00284 13.5036V9.99562L13.0049 9.99562C13.1342 9.99569 13.2513 9.94324 13.336 9.85853C13.4207 9.77382 13.4733 9.65666 13.4731 9.52738V9.48247C13.4732 8.89203 13.2432 8.33683 12.8257 7.91931C12.4382 7.5318 11.932 7.30622 11.3893 7.27569L10.8583 2.07733C11.1228 2.00156 11.3655 1.86049 11.5654 1.66054C11.8759 1.35012 12.0468 0.937442 12.0467 0.49847L12.0467 0.468136C12.0466 0.209376 11.8369 -0.000308579 11.5783 -0.000242493Z" fill="#4781D1"/>
</g>
<defs>
<clipPath id="clip0_2910_72542">
<rect width="16" height="16" fill="white"/>
</clipPath>
</defs>
</svg>
