<svg width="16" height="16" viewBox="0 0 16 16" fill="none" xmlns="http://www.w3.org/2000/svg">
<rect width="16" height="16" rx="8" fill="#ED7309"/>
<rect x="0.5" y="0.5" width="15" height="15" rx="7.5" stroke="#333333" stroke-opacity="0.2"/>
<path d="M9.67041 12L9.28369 10.5283H6.73242L6.33496 12H4.00391L6.56592 4.11523H9.39648L11.9907 12H9.67041ZM8.84326 8.78809L8.50488 7.49902C8.46908 7.35938 8.41715 7.16064 8.34912 6.90283C8.28109 6.64144 8.21305 6.37288 8.14502 6.09717C8.08057 5.81787 8.03044 5.5887 7.99463 5.40967C7.9624 5.5887 7.91585 5.81071 7.85498 6.07568C7.79769 6.33708 7.73682 6.59668 7.67236 6.85449C7.61149 7.1123 7.55778 7.32715 7.51123 7.49902L7.17285 8.78809H8.84326Z" fill="white"/>
</svg>
