<svg width="16" height="16" viewBox="0 0 16 16" fill="none" xmlns="http://www.w3.org/2000/svg">
<path fill-rule="evenodd" clip-rule="evenodd" d="M7.46094 2.27601C7.46094 1.019 8.50194 0 9.74794 0C10.9929 0 12.0509 1.019 12.0509 2.27601C12.0509 3.53201 10.9929 4.55101 9.74794 4.55101C8.50194 4.55101 7.46094 3.53201 7.46094 2.27601ZM9.48568 9.75009C9.47706 9.88943 9.46878 10.0234 9.459 10.2709C11.118 11.0769 12.86 12.5589 13.57 14.2709C13.4763 14.3469 13.391 14.416 13.3122 14.4799C12.6256 15.0364 12.4318 15.1935 11.472 15.9999C10.442 14.0159 9.194 12.9239 7.488 12.4859C6.486 13.7769 4.856 15.2839 2.306 15.9799C2.02569 15.3862 1.79749 15.0027 1.59209 14.6575C1.38129 14.3032 1.19449 13.9893 1 13.5299C3.039 13.0579 3.981 12.4129 4.98 10.5009C4.909 8.17987 5.505 5.89787 6.993 4.98486C7.44821 5.13425 8.07845 5.45969 8.59422 5.72603C8.95542 5.91256 9.26049 6.07009 9.41 6.11787C9.359 6.35387 9.528 6.62087 10.153 6.75787C10.627 6.86187 11.742 7.02487 12.818 6.04887C13.478 7.06387 14 8.04387 14 8.04387C14 8.04387 11.941 10.0889 9.503 9.44687C9.49678 9.57055 9.49116 9.66141 9.48568 9.75009Z" fill="#333333"/>
</svg>
