<svg width="16" height="16" viewBox="0 0 16 16" fill="none" xmlns="http://www.w3.org/2000/svg">
<path fill-rule="evenodd" clip-rule="evenodd" d="M5.3967 2.54283C6.54839 0.52739 9.45448 0.527388 10.6062 2.54283L15.1598 10.5117C16.3026 12.5117 14.8585 15.0001 12.5551 15.0001H11.0014V13.0001H12.5551C13.3229 13.0001 13.8043 12.1706 13.4233 11.504L8.86968 3.53511C8.48578 2.8633 7.51708 2.8633 7.13319 3.53511L2.57955 11.504C2.1986 12.1706 2.67997 13.0001 3.44779 13.0001H5.00143V15.0001H3.44779C1.14432 15.0001 -0.299778 12.5117 0.843063 10.5117L5.3967 2.54283ZM7.00112 15.0005V13.0005H9.00112V15.0005H7.00112ZM7.00112 12.0005V6.00054H9.00112V12.0005H7.00112Z" fill="#333333"/>
</svg>
