<svg width="33" height="32" viewBox="0 0 33 32" fill="none" xmlns="http://www.w3.org/2000/svg">
<path d="M25.6544 11.2624C24.6342 11.2624 23.8088 12.0899 23.8088 13.1113V19.6647C23.8088 20.1554 24.0032 20.626 24.3494 20.973C24.6955 21.32 25.1649 21.5149 25.6544 21.5149C26.1439 21.5149 26.6133 21.32 26.9594 20.973C27.3056 20.626 27.5 20.1554 27.5 19.6647V13.1113C27.5 12.0899 26.6746 11.2624 25.6544 11.2624ZM7.3456 11.2624C6.3254 11.2624 5.5 12.0899 5.5 13.1113V19.6647C5.5 20.1554 5.69445 20.626 6.04056 20.973C6.38668 21.32 6.85612 21.5149 7.3456 21.5149C7.83508 21.5149 8.30452 21.32 8.65063 20.973C8.99675 20.626 9.1912 20.1554 9.1912 19.6647V13.1113C9.19139 12.8683 9.14377 12.6277 9.05107 12.4032C8.95837 12.1787 8.82241 11.9747 8.65097 11.803C8.47953 11.6313 8.27599 11.4951 8.05199 11.4024C7.828 11.3096 7.58795 11.262 7.3456 11.2624ZM20.1724 5.75207L21.2807 3.7441C21.3131 3.68693 21.3338 3.62388 21.3417 3.55861C21.3496 3.49334 21.3444 3.42715 21.3266 3.36389C21.3087 3.30063 21.2785 3.24155 21.2377 3.1901C21.1968 3.13864 21.1462 3.09584 21.0887 3.06416C21.0314 3.03177 20.9683 3.01112 20.903 3.00341C20.8376 2.9957 20.7714 3.00109 20.7082 3.01926C20.6449 3.03743 20.5859 3.06803 20.5346 3.10926C20.4832 3.1505 20.4406 3.20156 20.4091 3.25946L19.2706 5.31373C18.4221 4.97376 17.487 4.78136 16.5 4.78136C15.513 4.78136 14.5779 4.97232 13.7294 5.31228L12.5909 3.26091C12.5594 3.203 12.5168 3.15195 12.4654 3.11071C12.4141 3.06947 12.3551 3.03888 12.2918 3.02071C12.2286 3.00254 12.1624 2.99715 12.0971 3.00486C12.0317 3.01257 11.9686 3.03322 11.9113 3.06561C11.8541 3.09757 11.8037 3.14052 11.7631 3.19201C11.7225 3.2435 11.6924 3.30251 11.6746 3.36567C11.6568 3.42882 11.6516 3.49489 11.6592 3.56007C11.6669 3.62526 11.6873 3.68828 11.7193 3.74554L12.8276 5.75352C10.8319 6.89349 9.49856 8.93184 9.49856 11.2624C9.49856 11.2783 9.49856 11.2928 9.50144 11.3116C9.49856 11.3203 9.49856 11.3304 9.49856 11.3391V11.3405H23.5V11.3391V11.3116V11.2624C23.5014 8.93184 22.1681 6.89494 20.1724 5.75207ZM13.2677 8.59911C13.202 8.59863 13.1371 8.5852 13.0766 8.55957C13.0161 8.53394 12.9613 8.49662 12.9152 8.44973C12.8221 8.35505 12.7703 8.22717 12.7713 8.09422C12.7722 7.96128 12.8258 7.83416 12.9203 7.74083C13.0147 7.6475 13.1423 7.59561 13.2749 7.59657C13.4075 7.59753 13.5343 7.65126 13.6274 7.74595C13.7205 7.84063 13.7722 7.96851 13.7713 8.10146C13.7703 8.2344 13.7167 8.36152 13.6223 8.45485C13.5278 8.54818 13.4003 8.60007 13.2677 8.59911ZM19.7323 8.59911C19.6065 8.58951 19.4889 8.53261 19.4031 8.4398C19.3173 8.34698 19.2696 8.22511 19.2696 8.09856C19.2696 7.97202 19.3173 7.85014 19.4031 7.75733C19.4889 7.66452 19.6065 7.60762 19.7323 7.59802C19.8647 7.59802 19.9917 7.65075 20.0854 7.74462C20.179 7.83849 20.2316 7.96581 20.2316 8.09856C20.2316 8.23132 20.179 8.35863 20.0854 8.4525C19.9917 8.54637 19.8647 8.59911 19.7323 8.59911ZM9.49856 21.9822C9.49856 22.9168 10.2561 23.6763 11.1926 23.6763H12.0382V27.1497C12.0382 27.6404 12.2327 28.1111 12.5788 28.4581C12.9249 28.8051 13.3944 29 13.8838 29C14.3733 29 14.8428 28.8051 15.1889 28.4581C15.535 28.1111 15.7294 27.6404 15.7294 27.1497V23.6763H17.2677V27.1497C17.2677 28.1725 18.0931 28.9986 19.1104 28.9986C20.1335 28.9986 20.9589 28.1725 20.9589 27.1497V23.6763H21.8045C22.7395 23.6763 23.4986 22.9182 23.4986 21.9822V11.7225H9.49856V21.9822Z" fill="#CDCFD1"/>
</svg>
