<svg width="32" height="32" viewBox="0 0 32 32" fill="none" xmlns="http://www.w3.org/2000/svg">
<g clip-path="url(#clip0)">
<path fill-rule="evenodd" clip-rule="evenodd" d="M20.4038 0.871846L19.3309 3.33011C22.5002 5 23.0002 7.76816 23.0002 10.3751C23.0002 10.72 22.7151 11 22.3639 11H9.63663C9.28535 11 9.00024 10.72 9.00024 10.3751C9.00024 7.76816 9.50024 5 12.6708 3.33011L11.5979 0.871846C11.4591 0.555622 11.608 0.188197 11.9313 0.0519944C12.2508 -0.0867273 12.6288 0.0620119 12.7662 0.380697L13.8416 2.84019C14.5225 2.62274 15.248 2.50153 16.0014 2.50153C16.7549 2.50153 17.4804 2.62274 18.1612 2.84019L19.2341 0.380697C19.3716 0.0620119 19.7496 -0.085497 20.0691 0.0519944C20.3924 0.188256 20.5425 0.554392 20.4038 0.871846ZM12.8184 6.8756C12.8184 7.22053 13.1035 7.50049 13.4547 7.50049C13.806 7.50049 14.0911 7.22053 14.0911 6.8756C14.0911 6.53067 13.806 6.25071 13.4547 6.25071C13.1035 6.25071 12.8184 6.53067 12.8184 6.8756ZM17.9093 6.8756C17.9093 7.22053 18.1944 7.50049 18.5457 7.50049C18.897 7.50049 19.1821 7.22053 19.1821 6.8756C19.1821 6.53067 18.897 6.25071 18.5457 6.25071C18.1944 6.25071 17.9093 6.53067 17.9093 6.8756ZM9.63663 12H22.3639C22.7152 12 23.0002 12.2974 23.0002 12.6667V25C23.0002 26 22.0002 27 21.0002 27V30C21.0002 31 20.5002 32 19.0002 32C17.5002 32 17.0002 31 17.0002 30V27H15.0002V30C15.0002 31 14.5002 32 13.0002 32C11.5002 32 11.0002 31 11.0002 30V27C10.0002 27 9.00024 26 9.00024 25V12.6667C9.00024 12.2987 9.28536 12 9.63663 12ZM26.0001 12C24.8975 12 24.0002 12.8973 24.0002 13.9999V20.6661C24.0002 21.7687 24.8975 22.666 26.0001 22.666C27.1027 22.666 28 21.7687 28 20.6661V13.9999C28 12.8973 27.1027 12 26.0001 12ZM4.00024 13.9999C4.00024 12.8973 4.8975 12 6.00011 12C7.10273 12 7.99998 12.8973 7.99998 13.9999V20.6661C7.99998 21.7687 7.10273 22.666 6.00011 22.666C4.8975 22.666 4.00024 21.7687 4.00024 20.6661V13.9999Z" fill="#657077"/>
</g>
<defs>
<clipPath id="clip0">
<rect width="32" height="32" fill="white"/>
</clipPath>
</defs>
</svg>
