<svg width="28" height="28" viewBox="0 0 28 28" fill="none" xmlns="http://www.w3.org/2000/svg">
<path fill-rule="evenodd" clip-rule="evenodd" d="M6 6C5.44772 6 5 6.44772 5 7V21C5 21.5523 5.44772 22 6 22C6.55228 22 7 21.5523 7 21V7C7 6.44772 6.55228 6 6 6Z" fill="#3B72A7"/>
<path d="M22 13L12.3653 13L15.707 9.48679L14.2928 8L9.29282 13.2566C8.90229 13.6672 8.90229 14.3328 9.29282 14.7434L14.2928 20L15.707 18.5132L12.3653 15L22 15C22.5523 15 23 14.5523 23 14C23 13.4477 22.5523 13 22 13Z" fill="#3B72A7"/>
</svg>
