<svg width="32" height="32" viewBox="0 0 32 32" fill="none" xmlns="http://www.w3.org/2000/svg">
<path d="M16 32C24.8366 32 32 24.8366 32 16C32 7.16344 24.8366 0 16 0C7.16344 0 0 7.16344 0 16C0 24.8366 7.16344 32 16 32Z" fill="#ECEEF1"/>
<mask id="mask0_2848_66240" style="mask-type:alpha" maskUnits="userSpaceOnUse" x="0" y="0" width="32" height="32">
<path d="M16 32C24.8366 32 32 24.8366 32 16C32 7.16344 24.8366 0 16 0C7.16344 0 0 7.16344 0 16C0 24.8366 7.16344 32 16 32Z" fill="white"/>
</mask>
<g mask="url(#mask0_2848_66240)">
<path fill-rule="evenodd" clip-rule="evenodd" d="M16.0001 6.22266C19.9273 6.22266 23.1112 9.40648 23.1112 13.3338C23.1112 17.2614 19.9273 20.4449 16.0001 20.4449C12.0728 20.4449 8.88894 17.2611 8.88894 13.3338C8.88894 9.40648 12.0728 6.22266 16.0001 6.22266ZM25.8284 35.556H6.17141C4.29721 35.556 2.77783 34.1381 2.77783 32.4108C2.77783 24.4842 6.64481 21.3893 10.7572 21.4912C12.1831 22.4051 13.9143 22.9421 15.7825 22.9421C17.7192 22.9421 19.5087 22.3651 20.963 21.3893C25.5425 21.3893 29.2223 24.4842 29.2223 32.4108C29.2223 34.1381 27.7029 35.556 25.8284 35.556Z" fill="#A3A9AE"/>
</g>
</svg>
