<svg width="1440" height="1024" viewBox="0 0 1440 1024" fill="none" xmlns="http://www.w3.org/2000/svg">
<path opacity="0.1" fill-rule="evenodd" clip-rule="evenodd" d="M64.6252 690.408L-919.12 986.976C-1004.49 1013.18 -1013.6 1072.53 -939.494 1119.65L-74.1381 1702.89C14.1367 1767.84 98.0781 1792.04 227.343 1745.01L1209.66 1449.78C1295.03 1423.58 1304.14 1364.23 1230.04 1317.1L403.802 732.878C315.028 664.676 226.063 647.445 64.6252 690.408Z" fill="#13B7EC"/>
<path opacity="0.15" fill-rule="evenodd" clip-rule="evenodd" d="M1209.36 391.601L2228.17 575.78C2315.2 592.373 2330.62 649.928 2262.64 704.433L1472.4 1373.42C1405.32 1431.31 1281.37 1464.53 1197.69 1447.04L178.872 1262.86C91.8424 1246.27 76.4229 1188.71 144.405 1134.21L934.649 465.22C1012.63 397.338 1126.59 377.497 1209.36 391.601Z" fill="#13B7EC"/>
<path opacity="0.2" fill-rule="evenodd" clip-rule="evenodd" d="M967.484 836.396L881.673 1868.31C875.172 1956.68 926.767 1986.47 997.002 1934.91L1847.63 1344.62C1920.9 1294.81 1985.06 1183.66 1989.83 1098.29L2075.64 66.374C2082.14 -21.9972 2030.55 -51.7898 1960.31 -0.221198L1109.68 590.062C1023.94 647.831 975.285 752.781 967.484 836.396Z" fill="#13B7EC"/>
</svg>
