<svg width="16" height="16" viewBox="0 0 16 16" fill="none" xmlns="http://www.w3.org/2000/svg">
<path fill-rule="evenodd" clip-rule="evenodd" d="M7.25807 1.11309C7.53755 0.967522 7.86929 0.962209 8.1533 1.09875L15.4333 4.59875C15.7797 4.76529 16 5.11564 16 5.5C16 5.88436 15.7797 6.23471 15.4333 6.40125L8.1533 9.90125C7.86929 10.0378 7.53755 10.0325 7.25807 9.88691L2 7.14834V9C2 9.55228 1.55228 10 1 10C0.447715 10 0 9.55228 0 9V5.5C0 5.12717 0.207401 4.78531 0.538066 4.61309L7.25807 1.11309ZM7.73791 7.88182L12.6921 5.5L7.73791 3.11818L3.16481 5.5L7.73791 7.88182Z" fill="#333333"/>
<path d="M2 12C2 11.4477 1.55228 11 1 11C0.447715 11 0 11.4477 0 12C0 12.5523 0.447715 13 1 13C1.55228 13 2 12.5523 2 12Z" fill="#333333"/>
<path d="M13 9.01632L11 9.97786V12.4812C9.92129 13.198 8.93284 13.5144 7.99797 13.5156C7.06354 13.5167 6.07649 13.2032 5 12.4832V10.1471L3 9.10542V13C3 13.3154 3.14878 13.6123 3.40141 13.8011C4.88035 14.9062 6.40699 15.5176 8.0005 15.5156C9.59296 15.5135 11.1183 14.8991 12.5958 13.8032C12.8501 13.6145 13 13.3166 13 13V9.01632Z" fill="#333333"/>
<path d="M5 9H4.96241L5 9.01958V9Z" fill="#333333"/>
</svg>
