<svg width="16" height="16" viewBox="0 0 16 16" fill="none" xmlns="http://www.w3.org/2000/svg">
<g clip-path="url(#clip0_46282_12155)">
<path fill-rule="evenodd" clip-rule="evenodd" d="M5.37103 9.21483L9.29297 5.29289L10.7072 6.70711L6.71761 10.6967C9.12638 10.121 10.7813 8.78907 11.9037 7.24918C13.1404 5.55267 13.7439 3.57999 13.9327 2.03842C10.306 2.30639 8.15651 3.94079 6.86702 5.82872C6.12556 6.91428 5.65449 8.10667 5.37103 9.21483ZM4.41994 12.9943C8.8065 12.8755 11.7208 10.8954 13.5199 8.42729C15.3412 5.9287 16.0001 2.96486 16.0001 1C16.0001 0.447715 15.5524 0 15.0001 0C10.057 0 6.99836 2.09041 5.21549 4.70069C3.60447 7.05936 3.07858 9.77198 3.00847 11.5774L0.292969 14.2929L1.70718 15.7071L4.41994 12.9943Z" fill="#657077"/>
</g>
<defs>
<clipPath id="clip0_46282_12155">
<rect width="16" height="16" fill="white"/>
</clipPath>
</defs>
</svg>
