<svg width="72" height="72" viewBox="0 0 72 72" fill="none" xmlns="http://www.w3.org/2000/svg">
<path fill-rule="evenodd" clip-rule="evenodd" d="M49.7565 62.8923L47.2196 61.2608C46.127 60.5574 44.7464 60.501 43.5418 61.002C42.3409 61.4992 41.3983 62.5165 41.1217 63.7883L40.4788 66.7358C40.2845 67.626 39.4952 68.2655 38.5823 68.2653L27.5641 68.2669C26.6512 68.2667 25.858 67.6306 25.667 66.7365L25.0266 63.7925C24.7495 62.5206 23.8102 61.5067 22.6054 61.0052C21.4044 60.5075 20.0238 60.5633 18.9278 61.2626L16.3915 62.893C15.6209 63.3866 14.6144 63.2779 13.9671 62.6307L6.17232 54.8373C5.52494 54.19 5.41624 53.1838 5.90994 52.4133L7.54064 49.8774C8.24753 48.7816 8.29963 47.405 7.79805 46.2004C7.30021 44.9996 6.28612 44.0604 5.01028 43.7796L2.06574 43.1394C1.17527 42.9447 0.535341 42.1553 0.535156 41.2426L0.536667 30.2263C0.536482 29.3136 1.17235 28.5207 2.06648 28.3301L5.01451 27.6873C6.2865 27.4107 7.3002 26.472 7.80129 25.2676C8.29864 24.067 8.24225 22.6867 7.5424 21.5905L5.90693 19.0503C5.41292 18.2796 5.52121 17.2734 6.16833 16.6264L13.9562 8.83988C14.6033 8.19288 15.6097 8.0846 16.3805 8.57852L18.9174 10.21C20.01 10.9134 21.3943 10.9661 22.5952 10.4688C23.796 9.97155 24.7424 8.95802 25.0153 7.68251L25.6582 4.735C25.8525 3.84476 26.6418 3.20526 27.5584 3.20171L38.5766 3.2002C39.4895 3.20038 40.2828 3.83645 40.4738 4.73051L41.1141 7.67455C41.3912 8.94643 42.3305 9.96034 43.5353 10.4618C44.7364 10.9596 46.1169 10.9038 47.213 10.2045L49.7492 8.57405C50.5199 8.08044 51.5263 8.18912 52.1737 8.83639L59.9647 16.626C60.612 17.2733 60.717 18.2833 60.227 19.05L58.5963 21.5859C57.8932 22.678 57.8374 24.0583 58.3389 25.2629C58.8368 26.4638 59.8471 27.4066 61.1267 27.6837L64.0712 28.3239C64.9617 28.5186 65.6016 29.308 65.6018 30.2208L65.6003 41.237C65.6005 42.1497 64.9646 42.9426 64.0668 43.137L61.1187 43.7798C59.8468 44.0563 58.833 44.995 58.3319 46.1994C57.8346 47.4001 57.8873 48.7841 58.5908 49.8765L60.2226 52.413C60.7166 53.1837 60.6083 54.1899 59.9612 54.8369L52.1696 62.6272C51.5337 63.2779 50.5236 63.3899 49.7565 62.8923ZM41.316 43.9815C45.8645 39.4338 45.863 32.0347 41.3127 27.4852C36.7623 22.9356 29.362 22.9341 24.8135 27.4818C20.265 32.0295 20.2665 39.4286 24.8168 43.9782C29.3672 48.5277 36.7675 48.5292 41.316 43.9815Z" fill="url(#paint0_linear_5026_431328)"/>
<mask id="path-2-outside-1_5026_431328" maskUnits="userSpaceOnUse" x="-0.464844" y="2.2002" width="67" height="67" fill="black">
<rect fill="white" x="-0.464844" y="2.2002" width="67" height="67"/>
<path fill-rule="evenodd" clip-rule="evenodd" d="M41.316 43.9815C45.8645 39.4338 45.863 32.0347 41.3127 27.4852C36.7623 22.9356 29.362 22.9341 24.8135 27.4818C20.265 32.0295 20.2665 39.4286 24.8168 43.9782C29.3672 48.5277 36.7675 48.5292 41.316 43.9815Z"/>
</mask>
<path d="M41.6102 63.8948C41.6691 63.625 41.4981 63.3586 41.2283 63.2998C40.9585 63.2409 40.6921 63.4119 40.6332 63.6817L41.6102 63.8948ZM40.4788 66.7358L40.9673 66.8425L40.9673 66.8424L40.4788 66.7358ZM38.5823 68.2654L38.5824 67.7654H38.5822L38.5823 68.2654ZM27.5641 68.2669L27.564 68.7669H27.5642L27.5641 68.2669ZM25.667 66.7365L26.1559 66.6321L26.1555 66.6303L25.667 66.7365ZM25.0266 63.7925L25.5152 63.6862L25.5152 63.6861L25.0266 63.7925ZM22.6054 61.0052L22.7976 60.5436L22.7968 60.5433L22.6054 61.0052ZM18.9278 61.2626L18.6588 60.8411L18.6574 60.842L18.9278 61.2626ZM16.3915 62.893L16.6612 63.314L16.6619 63.3136L16.3915 62.893ZM13.9671 62.6307L14.3206 62.2771L13.9671 62.6307ZM6.17232 54.8373L5.8188 55.1909L6.17232 54.8373ZM5.90994 52.4133L5.48939 52.1428L5.48895 52.1435L5.90994 52.4133ZM7.54064 49.8774L7.12047 49.6064L7.12009 49.607L7.54064 49.8774ZM7.79805 46.2004L7.33617 46.3919L7.33646 46.3926L7.79805 46.2004ZM5.01028 43.7796L5.11775 43.2913L5.11651 43.291L5.01028 43.7796ZM2.06574 43.1394L1.95894 43.6278L1.9595 43.628L2.06574 43.1394ZM0.535156 41.2426L0.0351562 41.2425V41.2427L0.535156 41.2426ZM0.536667 30.2263L1.03667 30.2264L1.03667 30.2262L0.536667 30.2263ZM2.06648 28.3301L2.17072 28.8191L2.173 28.8186L2.06648 28.3301ZM5.01451 27.6873L4.90828 27.1987L4.90799 27.1988L5.01451 27.6873ZM7.80129 25.2676L8.26293 25.4597L8.26323 25.459L7.80129 25.2676ZM7.5424 21.5905L7.96383 21.3214L7.9628 21.3198L7.5424 21.5905ZM5.90693 19.0503L5.48599 19.3201L5.48653 19.3209L5.90693 19.0503ZM6.16833 16.6264L5.81481 16.2728L6.16833 16.6264ZM13.9562 8.83988L14.3097 9.19346L13.9562 8.83988ZM16.3805 8.57852L16.6509 8.15798L16.6502 8.15754L16.3805 8.57852ZM18.9174 10.21L19.1881 9.78957L19.1879 9.78942L18.9174 10.21ZM25.0153 7.68251L24.5267 7.57596L24.5263 7.57792L25.0153 7.68251ZM25.6582 4.735L25.1697 4.62834L25.1696 4.62844L25.6582 4.735ZM27.5584 3.20171L27.5584 2.7017L27.5565 2.70171L27.5584 3.20171ZM38.5766 3.2002L38.5767 2.7002H38.5765L38.5766 3.2002ZM40.4738 4.73051L39.9848 4.83497L39.9852 4.83678L40.4738 4.73051ZM41.1141 7.67455L40.6255 7.78082L40.6256 7.78099L41.1141 7.67455ZM43.5353 10.4618L43.3432 10.9234L43.3439 10.9237L43.5353 10.4618ZM47.213 10.2045L47.4819 10.626L47.4833 10.6251L47.213 10.2045ZM49.7492 8.57405L49.4796 8.15302L49.4789 8.15346L49.7492 8.57405ZM52.1737 8.83639L51.8202 9.18997L52.1737 8.83639ZM59.9647 16.626L60.3182 16.2724L59.9647 16.626ZM60.2271 19.05L60.6476 19.3205L60.6484 19.3193L60.2271 19.05ZM58.5963 21.5859L59.0167 21.8565L59.0169 21.8563L58.5963 21.5859ZM58.3389 25.2629L58.8008 25.0714L58.8005 25.0707L58.3389 25.2629ZM61.1267 27.6837L61.2329 27.1951L61.2325 27.195L61.1267 27.6837ZM64.0712 28.3239L64.178 27.8355L64.1775 27.8353L64.0712 28.3239ZM65.6018 30.2208L66.1018 30.2208V30.2207L65.6018 30.2208ZM65.1011 35.7288C65.101 36.005 65.3249 36.2289 65.601 36.2289C65.8771 36.2289 66.101 36.0051 66.1011 35.729L65.1011 35.7288ZM40.6332 63.6817L39.9903 66.6292L40.9673 66.8424L41.6102 63.8948L40.6332 63.6817ZM39.9903 66.6291C39.8458 67.291 39.2589 67.7655 38.5824 67.7654L38.5822 68.7654C39.7315 68.7656 40.7231 67.9611 40.9673 66.8425L39.9903 66.6291ZM38.5822 67.7654L27.5641 67.7669L27.5642 68.7669L38.5824 68.7654L38.5822 67.7654ZM27.5642 67.7669C26.8852 67.7667 26.2972 67.2935 26.1559 66.6321L25.178 66.841C25.4187 67.9677 26.4173 68.7666 27.564 68.7669L27.5642 67.7669ZM26.1555 66.6303L25.5152 63.6862L24.538 63.8988L25.1784 66.8428L26.1555 66.6303ZM25.5152 63.6861C25.1988 62.2341 24.133 61.0995 22.7976 60.5436L22.4133 61.4668C23.4875 61.914 24.3002 62.8072 24.5381 63.899L25.5152 63.6861ZM22.7968 60.5433C21.4632 59.9906 19.9084 60.0438 18.6588 60.8411L19.1967 61.6841C20.1392 61.0828 21.3455 61.0243 22.414 61.4671L22.7968 60.5433ZM18.6574 60.842L16.1211 62.4724L16.6619 63.3136L19.1981 61.6832L18.6574 60.842ZM16.1218 62.472C15.5489 62.8389 14.8018 62.7582 14.3206 62.2771L13.6135 62.9843C14.4271 63.7977 15.6928 63.9343 16.6612 63.314L16.1218 62.472ZM14.3206 62.2771L6.52584 54.4837L5.8188 55.1909L13.6135 62.9843L14.3206 62.2771ZM6.52584 54.4837C6.04465 54.0026 5.96397 53.2557 6.33093 52.683L5.48895 52.1435C4.86852 53.1118 5.00524 54.3775 5.8188 55.1909L6.52584 54.4837ZM6.33049 52.6837L7.96119 50.1479L7.12009 49.607L5.48939 52.1428L6.33049 52.6837ZM7.96081 50.1485C8.76797 48.8971 8.81611 47.3447 8.25963 46.0082L7.33646 46.3926C7.78315 47.4654 7.72709 48.666 7.12047 49.6064L7.96081 50.1485ZM8.25993 46.0089C7.70737 44.6761 6.57212 43.6114 5.11775 43.2913L4.9028 44.2679C6.00012 44.5095 6.89305 45.323 7.33617 46.3919L8.25993 46.0089ZM5.11651 43.291L2.17197 42.6508L1.9595 43.628L4.90404 44.2682L5.11651 43.291ZM2.17254 42.6509C1.51014 42.5061 1.03529 41.9187 1.03516 41.2425L0.0351562 41.2427C0.0353888 42.3918 0.840391 43.3833 1.95894 43.6278L2.17254 42.6509ZM1.03516 41.2426L1.03667 30.2264L0.0366668 30.2262L0.0351562 41.2425L1.03516 41.2426ZM1.03667 30.2262C1.03653 29.5475 1.50933 28.9601 2.17072 28.8191L1.96224 27.8411C0.835365 28.0813 0.0364348 29.0796 0.0366668 30.2264L1.03667 30.2262ZM2.173 28.8186L5.12103 28.1758L4.90799 27.1988L1.95996 27.8416L2.173 28.8186ZM5.12073 28.1759C6.57287 27.8602 7.70743 26.7949 8.26293 25.4597L7.33965 25.0756C6.89297 26.1492 6.00012 26.9613 4.90828 27.1987L5.12073 28.1759ZM8.26323 25.459C8.81557 24.1256 8.76162 22.571 7.96383 21.3215L7.12097 21.8596C7.72287 22.8023 7.78172 24.0084 7.33936 25.0763L8.26323 25.459ZM7.9628 21.3198L6.32734 18.7796L5.48653 19.3209L7.12199 21.8612L7.9628 21.3198ZM6.32787 18.7804C5.96051 18.2073 6.04113 17.4606 6.52185 16.98L5.81481 16.2728C5.0013 17.0862 4.86534 18.3519 5.48599 19.3201L6.32787 18.7804ZM6.52185 16.98L14.3097 9.19346L13.6026 8.4863L5.81481 16.2728L6.52185 16.98ZM14.3097 9.19346C14.7904 8.7128 15.5374 8.63215 16.1107 8.99951L16.6502 8.15754C15.6819 7.53705 14.4161 7.67295 13.6026 8.4863L14.3097 9.19346ZM16.11 8.99907L18.647 10.6305L19.1879 9.78942L16.6509 8.15798L16.11 8.99907ZM18.6468 10.6304C19.8946 11.4338 21.4543 11.4824 22.7865 10.9308L22.4039 10.0069C21.3343 10.4497 20.1254 10.3931 19.1881 9.78957L18.6468 10.6304ZM22.7865 10.9308C24.1174 10.3796 25.1923 9.24526 25.5042 7.7871L24.5263 7.57792C24.2925 8.67079 23.4747 9.56347 22.4039 10.0069L22.7865 10.9308ZM25.5038 7.78906L26.1467 4.84155L25.1696 4.62844L24.5267 7.57596L25.5038 7.78906ZM26.1467 4.84165C26.291 4.18062 26.8778 3.70435 27.5604 3.7017L27.5565 2.70171C26.4059 2.70617 25.4141 3.50889 25.1697 4.62834L26.1467 4.84165ZM27.5585 3.70171L38.5767 3.7002L38.5765 2.7002L27.5584 2.70171L27.5585 3.70171ZM38.5765 3.7002C39.2556 3.70033 39.8435 4.17353 39.9848 4.83496L40.9627 4.62606C40.722 3.49938 39.7234 2.70043 38.5767 2.7002L38.5765 3.7002ZM39.9852 4.83678L40.6255 7.78082L41.6027 7.56827L40.9623 4.62424L39.9852 4.83678ZM40.6256 7.78099C40.9419 9.23295 42.0078 10.3676 43.3432 10.9234L43.7275 10.0002C42.6533 9.55309 41.8405 8.65991 41.6027 7.5681L40.6256 7.78099ZM43.3439 10.9237C44.6775 11.4764 46.2323 11.4232 47.4819 10.626L46.944 9.78295C46.0015 10.3843 44.7952 10.4427 43.7267 9.99993L43.3439 10.9237ZM47.4833 10.6251L50.0196 8.99465L49.4789 8.15346L46.9426 9.78388L47.4833 10.6251ZM50.0189 8.99508C50.5918 8.62813 51.3389 8.70884 51.8202 9.18997L52.5272 8.48281C51.7137 7.66941 50.4479 7.53275 49.4796 8.15302L50.0189 8.99508ZM51.8202 9.18997L59.6111 16.9796L60.3182 16.2724L52.5272 8.48281L51.8202 9.18997ZM59.6111 16.9796C60.0914 17.4598 60.1702 18.2105 59.8057 18.7808L60.6484 19.3193C61.2639 18.3561 61.1327 17.0868 60.3182 16.2724L59.6111 16.9796ZM59.8065 18.7796L58.1758 21.3154L59.0169 21.8563L60.6476 19.3205L59.8065 18.7796ZM58.1759 21.3152C57.3732 22.5621 57.3206 24.118 57.8774 25.4551L58.8005 25.0707C58.3541 23.9986 58.4132 22.794 59.0167 21.8565L58.1759 21.3152ZM57.8771 25.4544C58.429 26.7858 59.5601 27.8561 61.0209 28.1724L61.2325 27.195C60.1341 26.9572 59.2446 26.1418 58.8008 25.0714L57.8771 25.4544ZM61.0205 28.1723L63.965 28.8125L64.1775 27.8353L61.2329 27.1951L61.0205 28.1723ZM63.9645 28.8124C64.6268 28.9572 65.1017 29.5446 65.1018 30.2209L66.1018 30.2207C66.1016 29.0715 65.2966 28.08 64.178 27.8355L63.9645 28.8124ZM65.1018 30.2207L65.1011 35.7288L66.1011 35.729L66.1018 30.2208L65.1018 30.2207ZM42.0231 44.6887C46.9625 39.7501 46.9604 31.7178 42.0197 26.778L40.6056 28.1923C44.7657 32.3516 44.7666 39.1174 40.609 43.2743L42.0231 44.6887ZM42.0197 26.778C37.0791 21.8382 29.0457 21.8362 24.1064 26.7747L25.5205 28.189C29.6783 24.032 36.4455 24.0329 40.6056 28.1923L42.0197 26.778ZM24.1064 26.7747C19.167 31.7132 19.1691 39.7455 24.1098 44.6853L25.5239 43.271C21.3639 39.1117 21.3629 32.3459 25.5205 28.189L24.1064 26.7747ZM24.1098 44.6853C29.0504 49.6251 37.0838 49.6271 42.0231 44.6887L40.609 43.2743C36.4512 47.4313 29.684 47.4304 25.5239 43.271L24.1098 44.6853Z" fill="#333333" mask="url(#path-2-outside-1_5026_431328)"/>
<mask id="path-4-outside-2_5026_431328" maskUnits="userSpaceOnUse" x="47.5312" y="37.9331" width="21" height="13" fill="black">
<rect fill="white" x="47.5312" y="37.9331" width="21" height="13"/>
<path fill-rule="evenodd" clip-rule="evenodd" d="M59.6154 41.5603C62.0836 41.5603 64.0201 43.7848 64.0201 46.2874V48.9283H65.4948C65.8961 48.9283 66.2898 48.9743 66.6646 49.0664V45.7309C66.6646 41.9923 63.6474 38.9331 59.9602 38.9331H55.2357C51.5484 38.9331 48.5312 41.9923 48.5312 45.7309V49.0664C48.9098 48.9743 49.2997 48.9283 49.701 48.9283H51.1757V46.2874C51.1757 43.7848 53.0737 41.5603 55.542 41.5603H59.6154Z"/>
</mask>
<path fill-rule="evenodd" clip-rule="evenodd" d="M59.6154 41.5603C62.0836 41.5603 64.0201 43.7848 64.0201 46.2874V48.9283H65.4948C65.8961 48.9283 66.2898 48.9743 66.6646 49.0664V45.7309C66.6646 41.9923 63.6474 38.9331 59.9602 38.9331H55.2357C51.5484 38.9331 48.5312 41.9923 48.5312 45.7309V49.0664C48.9098 48.9743 49.2997 48.9283 49.701 48.9283H51.1757V46.2874C51.1757 43.7848 53.0737 41.5603 55.542 41.5603H59.6154Z" fill="#EFEFEF"/>
<path fill-rule="evenodd" clip-rule="evenodd" d="M59.6154 41.5603C62.0836 41.5603 64.0201 43.7848 64.0201 46.2874V48.9283H65.4948C65.8961 48.9283 66.2898 48.9743 66.6646 49.0664V45.7309C66.6646 41.9923 63.6474 38.9331 59.9602 38.9331H55.2357C51.5484 38.9331 48.5312 41.9923 48.5312 45.7309V49.0664C48.9098 48.9743 49.2997 48.9283 49.701 48.9283H51.1757V46.2874C51.1757 43.7848 53.0737 41.5603 55.542 41.5603H59.6154Z" stroke="#333333" stroke-width="2" mask="url(#path-4-outside-2_5026_431328)"/>
<path fill-rule="evenodd" clip-rule="evenodd" d="M49.5074 48.5332H65.6905C68.5733 48.5332 70.9323 50.8295 70.9323 53.6356V65.8308C70.9323 68.6369 68.5733 70.9332 65.6905 70.9332H49.5074C46.6246 70.9332 44.2656 68.6369 44.2656 65.8308V53.6318C44.2656 50.8257 46.6246 48.5332 49.5074 48.5332Z" fill="#BDECFF" stroke="#333333"/>
<mask id="path-6-outside-3_5026_431328" maskUnits="userSpaceOnUse" x="53.4648" y="53.9331" width="8" height="12" fill="black">
<rect fill="white" x="53.4648" y="53.9331" width="8" height="12"/>
<path fill-rule="evenodd" clip-rule="evenodd" d="M59.6858 64.5331L58.6324 59.1333C59.289 58.7519 59.7315 58.0169 59.7315 57.1734C59.7315 57.1658 59.7315 57.1607 59.7315 57.1532C59.7219 55.9257 58.7695 54.9331 57.5982 54.9331C56.4269 54.9331 55.4745 55.9257 55.4648 57.1532C55.4648 57.1607 55.4648 57.1658 55.4648 57.1734C55.4648 58.0169 55.9098 58.7519 56.564 59.1333L55.5105 64.5331H57.5958H59.6858Z"/>
</mask>
<path fill-rule="evenodd" clip-rule="evenodd" d="M59.6858 64.5331L58.6324 59.1333C59.289 58.7519 59.7315 58.0169 59.7315 57.1734C59.7315 57.1658 59.7315 57.1607 59.7315 57.1532C59.7219 55.9257 58.7695 54.9331 57.5982 54.9331C56.4269 54.9331 55.4745 55.9257 55.4648 57.1532C55.4648 57.1607 55.4648 57.1658 55.4648 57.1734C55.4648 58.0169 55.9098 58.7519 56.564 59.1333L55.5105 64.5331H57.5958H59.6858Z" fill="white"/>
<path fill-rule="evenodd" clip-rule="evenodd" d="M59.6858 64.5331L58.6324 59.1333C59.289 58.7519 59.7315 58.0169 59.7315 57.1734C59.7315 57.1658 59.7315 57.1607 59.7315 57.1532C59.7219 55.9257 58.7695 54.9331 57.5982 54.9331C56.4269 54.9331 55.4745 55.9257 55.4648 57.1532C55.4648 57.1607 55.4648 57.1658 55.4648 57.1734C55.4648 58.0169 55.9098 58.7519 56.564 59.1333L55.5105 64.5331H57.5958H59.6858Z" stroke="#333333" stroke-width="2" mask="url(#path-6-outside-3_5026_431328)"/>
<defs>
<linearGradient id="paint0_linear_5026_431328" x1="-0.687263" y1="-1.4351" x2="38.1465" y2="41.3565" gradientUnits="userSpaceOnUse">
<stop stop-color="#FFC671"/>
<stop offset="1" stop-color="#FF6F3D"/>
</linearGradient>
</defs>
</svg>
