<svg width="24" height="24" viewBox="0 0 24 24" fill="none" xmlns="http://www.w3.org/2000/svg">
<path fill-rule="evenodd" clip-rule="evenodd" d="M2.99854 2H8.99885L11.9999 4.99353H20.9966C21.5488 4.99353 21.9966 5.44125 21.9966 5.99353V20C21.9966 20.5523 21.5488 21 20.9966 21H3.05905C2.50815 21 2.06101 20.5545 2.05905 20.0036L1.99854 3.00356C1.99657 2.44989 2.44486 2 2.99854 2ZM11.0003 9.1743C11.0003 8.31994 12.0024 7.85903 12.6511 8.41504L17.1145 12.2408C17.5801 12.6399 17.5801 13.3602 17.1145 13.7593L12.6511 17.5851C12.0024 18.1411 11.0003 17.6802 11.0003 16.8259V16.0005C11.0003 15.4482 10.5526 15.0005 10.0003 15.0005H7.00031C6.44802 15.0005 6.00031 14.5528 6.00031 14.0005V12.0005C6.00031 11.4482 6.44802 11.0005 7.00031 11.0005H10.0003C10.5526 11.0005 11.0003 10.5528 11.0003 10.0005V9.1743Z" fill="#A3A9AE"/>
</svg>
