<svg width="24" height="24" viewBox="0 0 24 24" fill="none" xmlns="http://www.w3.org/2000/svg">
<path fill-rule="evenodd" clip-rule="evenodd" d="M20.8814 3H18.9943V1.02931C18.9943 0.460813 18.5335 0 17.9649 0H17.0301C16.4616 0 16.001 0.460813 16.001 1.02931V3H7.99588V1.02931C7.99588 0.460813 7.53507 0 6.96674 0H6.02914C5.46064 0 5 0.460813 5 1.02931V3H3.11844C1.95051 3 1 3.95017 1 5.11844V20.8965C1 22.0641 1.95051 23.0149 3.11844 23.0149H20.8816C22.0493 23.0149 23 22.0642 23 20.8965V5.11844C22.9998 3.95017 22.0491 3 20.8814 3ZM21 21.001H3.02614V8.00104H21V21.001ZM9.8844 17.6579C10.3376 18.114 11.0732 18.114 11.5266 17.6579L16.66 12.4939C16.8777 12.2748 17 11.9777 17 11.668C17 11.3583 16.8777 11.0611 16.66 10.8421C16.2066 10.386 15.4709 10.386 15.0178 10.8421L10.913 14.9713C10.7984 15.0862 10.6126 15.0862 10.4982 14.9713L8.98223 13.4466C8.52885 12.9905 7.7932 12.9905 7.34004 13.4466C6.88665 13.9024 6.88665 14.6425 7.34004 15.0984L9.8844 17.6579Z" fill="#7A95B0"/>
</svg>