<svg width="16" height="16" viewBox="0 0 16 16" fill="none" xmlns="http://www.w3.org/2000/svg">
<g clip-path="url(#clip0_37623_155882)">
<path fill-rule="evenodd" clip-rule="evenodd" d="M9.19319 0.586407C9.58371 0.195882 10.2169 0.195882 10.6074 0.586407C10.9979 0.976931 10.9979 1.6101 10.6074 2.00062L8.13253 4.47549C7.93727 4.67076 7.62068 4.67076 7.42542 4.47549L6.71832 3.76839C6.52305 3.57313 6.52305 3.25654 6.71832 3.06128L9.19319 0.586407ZM3.91149 7.35155C3.94348 6.72414 4.06574 6.09876 4.22798 5.52069L10.6229 11.9156C10.0448 12.0778 9.41942 12.2001 8.79201 12.2321C7.56316 12.2947 6.47725 12.0126 5.61606 11.1514L5.60863 11.144L5.60381 11.1392L5.60002 11.1354L5.59425 11.1296L5.59138 11.1267L5.58948 11.1248L5.58272 11.1181L5.57493 11.1103L5.57402 11.1094L5.57268 11.108L5.56529 11.1006L5.56018 11.0955L5.55654 11.0919L5.55135 11.0867L5.54776 11.0831L5.5452 11.0806L5.53895 11.0743L5.53025 11.0656L5.53012 11.0655L5.53002 11.0654L5.52126 11.0566L5.51462 11.05L5.51239 11.0477L5.5094 11.0448L5.50349 11.0388L5.499 11.0344L5.49457 11.0299L5.48879 11.0241L5.48563 11.021L5.48317 11.0185L5.47667 11.012L5.46841 11.0038L5.46769 11.003L5.46711 11.0025L5.4587 10.994L5.45084 10.9862L5.44969 10.985L5.44827 10.9836L5.44066 10.976L5.43435 10.9697L5.43162 10.967L5.42837 10.9637L5.42257 10.9579L5.41764 10.953L5.4135 10.9489L5.4087 10.944L5.40443 10.9398L5.4007 10.9361L5.39534 10.9307L5.38926 10.9246L5.38624 10.9216L5.38355 10.9189L5.37714 10.9125L5.37005 10.9054L5.36802 10.9034L5.36617 10.9015L5.3589 10.8943L5.35108 10.8864L5.34978 10.8851L5.34856 10.8839L5.34065 10.876L5.33233 10.8677L5.33152 10.8669L5.33073 10.8661L5.32238 10.8577L5.31382 10.8492L5.31324 10.8486L5.31267 10.848L5.3041 10.8395L5.29553 10.8309L5.29496 10.8303L5.29439 10.8297L5.28582 10.8212L5.27748 10.8128L5.27669 10.812L5.27587 10.8112L5.26756 10.8029L5.25964 10.795L5.25842 10.7938L5.25713 10.7925L5.2493 10.7847L5.24204 10.7774L5.24018 10.7755L5.23815 10.7735L5.23107 10.7664L5.22466 10.76L5.22196 10.7573L5.21895 10.7543L5.21287 10.7482L5.2075 10.7429L5.20378 10.7391L5.19951 10.7349L5.1947 10.7301L5.19057 10.7259L5.18564 10.721L5.17984 10.7152L5.17658 10.7119L5.17385 10.7092L5.16754 10.7029L5.15993 10.6953L5.15852 10.6939L5.15736 10.6927L5.14951 10.6849L5.14109 10.6764L5.14051 10.6759L5.13979 10.6751L5.13154 10.6669L5.12504 10.6604L5.12258 10.6579L5.11942 10.6548L5.11364 10.649L5.1092 10.6446L5.10472 10.6401L5.0988 10.6342L5.09582 10.6312L5.09359 10.6289L5.08694 10.6223L5.07819 10.6135L5.07809 10.6134L5.07795 10.6133L5.06926 10.6046L5.063 10.5984L5.06045 10.5958L5.05686 10.5922L5.05167 10.587L5.04803 10.5834L5.04291 10.5783L5.03553 10.5709L5.03419 10.5695L5.03327 10.5686L5.02549 10.5608L5.01873 10.5541L5.01682 10.5522L5.01396 10.5493L5.00818 10.5435L5.00439 10.5397L4.99957 10.5349L4.99214 10.5275C4.13095 9.66631 3.84882 8.58039 3.91149 7.35155ZM5.01579 13.2425C7.70614 15.0802 11.2166 13.9644 12.9981 13.1797C13.5943 12.9172 13.696 12.1603 13.2354 11.6997L4.44383 2.90811C3.98323 2.44751 3.2264 2.54928 2.96383 3.14541C2.17916 4.92692 1.06341 8.43742 2.90103 11.1278C2.87631 11.1481 2.85235 11.1699 2.82923 11.193L0.707908 13.3143C0.317384 13.7049 0.317384 14.338 0.707908 14.7285L1.41502 15.4356C1.80554 15.8262 2.4387 15.8262 2.82923 15.4356L4.95055 13.3143C4.97367 13.2912 4.99541 13.2672 5.01579 13.2425ZM15.5571 5.53615C15.1666 5.14563 14.5335 5.14563 14.1429 5.53615L11.6681 8.01103C11.4728 8.20629 11.4728 8.52287 11.6681 8.71813L12.3752 9.42524C12.5704 9.6205 12.887 9.6205 13.0823 9.42524L15.5571 6.95037C15.9477 6.55984 15.9477 5.92668 15.5571 5.53615Z" fill="#657077"/>
</g>
<defs>
<clipPath id="clip0_37623_155882">
<rect width="16" height="16" fill="white"/>
</clipPath>
</defs>
</svg>
