<svg width="16" height="16" viewBox="0 0 16 16" fill="none" xmlns="http://www.w3.org/2000/svg">
<path fill-rule="evenodd" clip-rule="evenodd" d="M2.71318 1.99574C3.02947 1.71703 3.49342 1.71119 3.84372 1.94572L4.87874 2.63869C4.94836 2.6853 5.02092 2.72184 5.095 2.74889C5.48577 2.53225 5.90327 2.35796 6.3413 2.23222C6.37443 2.16087 6.39982 2.0839 6.41605 2.00191L6.65796 0.77978C6.73986 0.366075 7.07229 0.0421062 7.4932 0.0157933C7.66079 0.00531678 7.82977 0 8 0C8.17023 0 8.33922 0.00531679 8.5068 0.0157934C8.92771 0.0421062 9.26015 0.366074 9.34204 0.77978L9.58395 2.00191C9.60018 2.0839 9.62557 2.16086 9.6587 2.23222C10.0967 2.35796 10.5142 2.53225 10.905 2.74889C10.9791 2.72184 11.0516 2.6853 11.1213 2.63869L12.1563 1.94572C12.5066 1.71119 12.9705 1.71703 13.2868 1.99574C13.5408 2.21954 13.7805 2.45921 14.0043 2.71318C14.283 3.02947 14.2888 3.49342 14.0543 3.84372L13.3613 4.87874C13.3147 4.94836 13.2782 5.02092 13.2511 5.095C13.4678 5.48577 13.642 5.90327 13.7678 6.3413C13.8391 6.37443 13.9161 6.39982 13.9981 6.41605L15.2202 6.65796C15.6339 6.73986 15.9579 7.07229 15.9842 7.4932C15.9947 7.66079 16 7.82977 16 8C16 8.17023 15.9947 8.33921 15.9842 8.5068C15.9579 8.92771 15.6339 9.26015 15.2202 9.34204L13.9981 9.58395C13.9161 9.60018 13.8391 9.62557 13.7678 9.6587C13.642 10.0967 13.4678 10.5142 13.2511 10.905C13.2782 10.9791 13.3147 11.0516 13.3613 11.1213L14.0543 12.1563C14.2888 12.5066 14.283 12.9705 14.0043 13.2868C13.7805 13.5408 13.5408 13.7805 13.2868 14.0043C12.9705 14.283 12.5066 14.2888 12.1563 14.0543L11.1213 13.3613C11.0516 13.3147 10.9791 13.2782 10.905 13.2511C10.5142 13.4678 10.0967 13.642 9.6587 13.7678C9.62557 13.8391 9.60018 13.9161 9.58395 13.9981L9.34204 15.2202C9.26015 15.6339 8.92771 15.9579 8.5068 15.9842C8.33921 15.9947 8.17023 16 8 16C7.82977 16 7.66079 15.9947 7.4932 15.9842C7.07229 15.9579 6.73986 15.6339 6.65796 15.2202L6.41605 13.9981C6.39982 13.9161 6.37443 13.8391 6.3413 13.7678C5.90327 13.642 5.48577 13.4678 5.095 13.2511C5.02092 13.2782 4.94836 13.3147 4.87874 13.3613L3.84372 14.0543C3.49342 14.2888 3.02947 14.283 2.71318 14.0043C2.45921 13.7805 2.21954 13.5408 1.99574 13.2868C1.71703 12.9705 1.71119 12.5066 1.94572 12.1563L2.63869 11.1213C2.6853 11.0516 2.72184 10.9791 2.74889 10.905C2.53225 10.5142 2.35796 10.0967 2.23222 9.6587C2.16087 9.62557 2.0839 9.60018 2.00191 9.58395L0.77978 9.34204C0.366075 9.26015 0.0421062 8.92771 0.0157934 8.5068C0.00531679 8.33922 0 8.17023 0 8C0 7.82977 0.00531679 7.66079 0.0157934 7.4932C0.0421062 7.07229 0.366074 6.73986 0.77978 6.65796L2.00191 6.41605C2.0839 6.39982 2.16086 6.37443 2.23222 6.3413C2.35796 5.90327 2.53225 5.48577 2.74889 5.095C2.72184 5.02092 2.6853 4.94836 2.63869 4.87874L1.94572 3.84372C1.71119 3.49342 1.71703 3.02947 1.99574 2.71318C2.21954 2.45921 2.45921 2.21954 2.71318 1.99574ZM8 12.5C10.4853 12.5 12.5 10.4853 12.5 8C12.5 5.51472 10.4853 3.5 8 3.5C5.51472 3.5 3.5 5.51472 3.5 8C3.5 10.4853 5.51472 12.5 8 12.5Z" fill="#657077"/>
<circle cx="8" cy="8" r="2" fill="#657077"/>
</svg>
