<svg width="16" height="16" viewBox="0 0 16 16" fill="none" xmlns="http://www.w3.org/2000/svg">
<g clip-path="url(#clip0_0_5525)">
<path fill-rule="evenodd" clip-rule="evenodd" d="M7.50018 0H8.50018C9.32861 0 10.0002 0.671573 10.0002 1.5V2H10.0012H13.0012C14.1061 2 15.0012 2.89593 15.0012 4.00022H13.0012V4H10.0012H8.50018H7.50018H6.00122H3.00122V4.00022H1.00122C1.00122 2.89593 1.89637 2 3.00122 2H6.00018V1.5C6.00018 0.671573 6.67176 0 7.50018 0ZM3.00122 5.00023V13.0002C3.00122 14.6571 4.34437 16.0002 6.00122 16.0002H10.0012C11.6581 16.0002 13.0012 14.6571 13.0012 13.0002V5.00023H11.0012V13.0002C11.0012 13.5525 10.5535 14.0002 10.0012 14.0002H6.00122C5.44893 14.0002 5.00122 13.5525 5.00122 13.0002V5.00023H3.00122ZM7.00122 6V14H9.00122V6H7.00122Z" fill="#657077"/>
</g>
<defs>
<clipPath id="clip0_0_5525">
<rect width="16" height="16" fill="white" transform="translate(0.000488281)"/>
</clipPath>
</defs>
</svg>
