<svg width="14" height="14" viewBox="0 0 14 14" fill="none" xmlns="http://www.w3.org/2000/svg">
<path fill-rule="evenodd" clip-rule="evenodd" d="M13.9973 1.0376C13.9973 0.759204 13.8812 0.493409 13.677 0.304166C13.4728 0.114923 13.199 0.0193644 12.9214 0.0404814C6.04656 0.563461 0.56102 6.049 0.03804 12.9239C0.016923 13.2015 0.112482 13.4753 0.301725 13.6795C0.490968 13.8837 0.756762 13.9997 1.03516 13.9997H11.9973C13.1018 13.9997 13.9973 13.1043 13.9973 11.9997V6.99951C13.9975 6.99951 13.9978 6.99951 13.998 6.99951V4.99951C13.9978 4.99951 13.9975 4.99951 13.9973 4.99951V1.0376ZM11.9973 5.22271V2.16551C6.9727 3.00826 3.00582 6.97515 2.16307 11.9997H5.22102C5.98441 8.63512 8.63282 5.98646 11.9973 5.22271ZM7.28787 11.9997H11.9973V7.28963C9.73979 7.96177 7.9597 9.7421 7.28787 11.9997Z" fill="#A3A9AE"/>
</svg>
