<svg width="16" height="16" viewBox="0 0 16 16" fill="none" xmlns="http://www.w3.org/2000/svg">
<path fill-rule="evenodd" clip-rule="evenodd" d="M8.00047 3C7.4482 2.99998 7.00049 3.44768 7.00049 3.99995V4.49998C7.00049 5.14039 7.19416 5.68972 7.44749 6.0557C7.71899 6.44796 7.95158 6.49968 8 6.49968C8.04859 6.49968 8.28145 6.44777 8.55318 6.05546C8.80667 5.6895 9.00044 5.14034 9.00049 4.50024V4.50021V4.50002L9.00038 3.99973C9.00026 3.44757 8.55263 3.00002 8.00047 3ZM5.00049 3.99995C5.00049 2.34308 6.34368 0.99994 8.00054 1C9.65707 1.00006 11 2.34277 11.0004 3.9993L11.0005 4.49981V4.50002C11.0005 5.52653 10.694 6.47712 10.1973 7.19426C9.71879 7.88511 8.95141 8.49968 8 8.49968C7.04842 8.49969 6.28125 7.88491 5.803 7.19398C5.30657 6.47679 5.00049 5.52626 5.00049 4.49998V3.99995ZM5.91024 11.0747C5.85177 11.1368 5.77078 11.2445 5.67838 11.4254C5.52658 11.7226 5.39433 12.119 5.28771 12.5749C5.07444 13.4867 5 14.4762 5 14.9996H3C3 14.3485 3.08668 13.2036 3.34027 12.1194C3.46708 11.5772 3.64469 11.0101 3.89727 10.5156C4.14121 10.0381 4.51403 9.51169 5.09208 9.21787C5.84069 8.83736 6.57647 9.16984 6.8695 9.31635L7.55279 9.65799C7.83431 9.79876 8.16569 9.79876 8.44721 9.65799L9.1305 9.31635C9.42353 9.16984 10.1593 8.83736 10.9079 9.21787C11.486 9.51169 11.8588 10.0381 12.1027 10.5156C12.3553 11.0101 12.5329 11.5772 12.6597 12.1194C12.9133 13.2036 13 14.3485 13 14.9996H11C11 14.4762 10.9256 13.4867 10.7123 12.5749C10.6057 12.119 10.4734 11.7226 10.3216 11.4254C10.2292 11.2445 10.1482 11.1368 10.0898 11.0747C10.0703 11.0832 10.0488 11.0933 10.0249 11.1052L9.34164 11.4468C8.49706 11.8691 7.50294 11.8691 6.65836 11.4468L5.97508 11.1052C5.95122 11.0933 5.92966 11.0832 5.91024 11.0747ZM4.00049 3.99995C4.00049 3.65593 4.04392 3.32206 4.12559 3.00352C4.08403 3.00094 4.04214 2.99963 3.99993 2.99963C2.89543 2.99963 2.00001 3.89493 1.99986 4.99943L1.99978 5.59947V5.5996C1.99978 6.56091 2.35038 7.25733 2.73173 7.71488C2.91751 7.93777 3.1052 8.09816 3.25241 8.2061C3.32637 8.26033 3.39134 8.30223 3.44257 8.33297C3.46824 8.34837 3.49062 8.36106 3.50913 8.37119L3.53401 8.38449L3.5442 8.38976L3.54871 8.39205L3.55081 8.39311L3.55183 8.39362C3.55232 8.39387 3.55282 8.39412 4.00003 7.49969L3.55282 8.39412C3.83436 8.53489 4.16576 8.53488 4.44729 8.39409L4.00003 7.49969C4.44729 8.39409 4.44778 8.39384 4.44828 8.3936L4.4493 8.39309L4.4514 8.39202L4.45591 8.38973L4.4661 8.38447L4.49098 8.37115C4.50949 8.36103 4.53187 8.34834 4.55754 8.33293C4.60877 8.30219 4.67373 8.26029 4.74767 8.20606C4.84714 8.13311 4.96509 8.03621 5.08844 7.91226C5.05098 7.86248 5.01508 7.8127 4.98076 7.76312C4.36278 6.87032 4.00049 5.7192 4.00049 4.49998V3.99995ZM11.0194 7.76366C10.9851 7.81316 10.9492 7.86285 10.9118 7.91254C11.0351 8.03638 11.153 8.1332 11.2524 8.2061C11.3264 8.26033 11.3913 8.30223 11.4426 8.33297C11.4682 8.34837 11.4906 8.36106 11.5091 8.37119L11.534 8.38449L11.5442 8.38976L11.5487 8.39205L11.5508 8.39311L11.5518 8.39362C11.5523 8.39387 11.5528 8.39412 12 7.49969L11.5528 8.39412C11.8344 8.53489 12.1658 8.53488 12.4473 8.39409L12 7.49969C12.4473 8.39409 12.4478 8.39384 12.4483 8.3936L12.4493 8.39309L12.4514 8.39202L12.4559 8.38973L12.4661 8.38447L12.491 8.37115C12.5095 8.36103 12.5319 8.34834 12.5575 8.33293C12.6088 8.30219 12.6737 8.26029 12.7477 8.20606C12.8949 8.09811 13.0825 7.93772 13.2683 7.71483C13.6495 7.25727 14 6.56089 14 5.59966V4.9997C14 3.89509 13.1045 2.99963 11.9999 2.99963C11.9581 2.99963 11.9165 3.00092 11.8753 3.00346C11.9569 3.32175 12.0003 3.65535 12.0004 3.99908L12.0005 4.49959V4.50002C12.0005 5.71969 11.6377 6.87095 11.0194 7.76366ZM13.6286 11.9461C13.7137 12.2988 13.7815 12.6548 13.8347 12.9996H15.5C15.5 12.4837 15.433 11.7352 15.2243 11.0393C15.0365 10.4134 14.6307 9.48248 13.7089 9.12933C13.1679 8.92211 12.6681 9.07165 12.3727 9.19972C12.638 9.51555 12.8388 9.84883 12.9913 10.1492C13.2886 10.7348 13.4894 11.3693 13.6286 11.9461ZM3.00871 10.1492C3.16119 9.84883 3.36204 9.51555 3.62729 9.19972C3.33189 9.07165 2.83206 8.92211 2.29113 9.12933C1.36927 9.48248 0.963467 10.4134 0.77573 11.0393C0.567022 11.7352 0.5 12.4837 0.5 12.9996H2.16527C2.21845 12.6548 2.28631 12.2988 2.37142 11.9461C2.51058 11.3693 2.71143 10.7348 3.00871 10.1492ZM3.99993 4.99963L4 4.9997V5.59966L3.99989 5.62L3.99978 5.59974V5.59971V5.5996L3.99986 4.9997L3.99993 4.99963ZM11.9999 4.99963L12 4.9997V5.59966L11.9999 5.62L11.9998 5.59974V5.59971V5.5996L11.9999 4.9997L11.9999 4.99963Z" fill="#657077"/>
</svg>
