<svg width="16" height="16" viewBox="0 0 16 16" fill="none" xmlns="http://www.w3.org/2000/svg">
<path fill-rule="evenodd" clip-rule="evenodd" d="M6.5 1H9.5C10.3284 1 11 1.67157 11 2.5V3H14C15.1046 3 16 3.89543 16 5V7H10V6H6V7H0V5C0 3.89543 0.895431 3 2 3H5V2.5C5 1.67157 5.67157 1 6.5 1ZM6 9V8H1V12C1 13.1046 1.89543 14 3 14H13C14.1046 14 15 13.1046 15 12V8H10V9C10 10.1046 9.10457 11 8 11C6.89543 11 6 10.1046 6 9ZM9 7H7V9C7 9.55228 7.44772 10 8 10C8.55228 10 9 9.55228 9 9V7Z" fill="#657077"/>
</svg>
