<svg width="17" height="16" viewBox="0 0 17 16" fill="none" xmlns="http://www.w3.org/2000/svg">
<path fill-rule="evenodd" clip-rule="evenodd" d="M11.0837 3.0249H15.4501C15.8045 3.0249 16.0918 3.31201 16.0918 3.66627V6.37853L15.4501 6.53887L14.8084 6.69922L9.29625 7.84145H6.8874L1.37523 6.69927L0.733515 6.53893L0.0917969 6.37859V3.66629C0.0917969 3.31201 0.379113 3.0249 0.733515 3.0249H5.09177V1.64139C5.09177 1.28717 5.37909 1 5.73349 1H10.4419C10.7963 1 11.0837 1.28717 11.0837 1.64139V3.0249ZM6.09177 3.02891H10.0918V1.996H6.09177V3.02891ZM15.4501 7.86118L14.8084 8.02152L10.0939 8.9836V10.3614C10.0939 10.7156 9.80658 11.0028 9.45217 11.0028H6.73096C6.37656 11.0028 6.08924 10.7156 6.08924 10.3614V8.9836L1.37523 8.02152L0.733515 7.86118L0.0918244 7.70084V14.3586C0.0918244 14.7128 0.37914 15 0.733542 15H15.4501C15.8045 15 16.0918 14.7128 16.0918 14.3586V7.70084L15.4501 7.86118ZM9.0918 9H7.0918V10H9.0918V9Z" fill="#657077"/>
</svg>
