<svg width="16" height="16" viewBox="0 0 16 16" fill="none" xmlns="http://www.w3.org/2000/svg">
<path d="M7.99997 1L7.99999 0L7.99997 1ZM2.09635 14.0067L3.0834 14.1671L2.09635 14.0067ZM6.072 9.90315L6.54435 9.02174H6.54434L6.072 9.90315ZM9.92868 9.90322L9.4563 9.02182H9.4563L9.92868 9.90322ZM10.572 9.64271L10.573 8.64271H10.573L10.572 9.64271ZM13.9047 14.0067L14.8918 13.8462V13.8462L13.9047 14.0067ZM8.99966 3.49996C8.99966 4.41142 8.84443 5.10385 8.6175 5.52952C8.4105 5.9178 8.20629 5.99996 8.0002 5.99996V7.99996C9.12744 7.99996 9.92297 7.33211 10.3824 6.4704C10.8218 5.64607 10.9997 4.5885 10.9997 3.49996H8.99966ZM8.99966 2.99973V3.49996H10.9997V2.99973H8.99966ZM7.99995 2C8.55208 2.00001 8.99966 2.4476 8.99966 2.99973H10.9997C10.9997 1.34305 9.65667 3.57628e-05 7.99999 0L7.99995 2ZM7.0002 2.99973C7.0002 2.44759 7.44781 1.99999 7.99995 2L7.99999 0C6.34326 -3.57628e-05 5.0002 1.343 5.0002 2.99973H7.0002ZM7.0002 3.49996V2.99973H5.0002V3.49996H7.0002ZM8.0002 5.99996C7.79403 5.99996 7.58967 5.91771 7.38255 5.52937C7.15553 5.1037 7.0002 4.41131 7.0002 3.49996H5.0002C5.0002 4.58861 5.1782 5.64621 5.61785 6.47055C6.0774 7.33221 6.87304 7.99996 8.0002 7.99996V5.99996ZM5.42914 8.64271C3.85407 8.64271 2.81753 9.64685 2.19537 10.6849C1.57614 11.7181 1.25546 12.9469 1.1093 13.8463L3.0834 14.1671C3.2084 13.3979 3.47235 12.4448 3.91086 11.7131C4.34643 10.9863 4.84071 10.6427 5.42914 10.6427V8.64271ZM6.54434 9.02174C6.41951 8.95484 6.25972 8.86846 6.10857 8.80228C5.97301 8.74293 5.72285 8.64271 5.42914 8.64271V10.6427C5.35003 10.6427 5.29839 10.6288 5.28696 10.6256C5.27422 10.622 5.27857 10.6222 5.30644 10.6344C5.33331 10.6461 5.37002 10.6638 5.42165 10.6903C5.47345 10.717 5.53001 10.7472 5.59965 10.7846L6.54434 9.02174ZM8.00057 9.49986C7.46412 9.49986 7.02309 9.2783 6.54435 9.02174L5.59965 10.7846C6.06212 11.0324 6.9068 11.4999 8.00057 11.4999V9.49986ZM9.4563 9.02182C8.97758 9.27839 8.53672 9.49986 8.00057 9.49986V11.4999C9.0941 11.4999 9.93865 11.0324 10.401 10.7846L9.4563 9.02182ZM10.573 8.64271C10.2787 8.64243 10.0282 8.74278 9.89248 8.80217C9.74118 8.86839 9.58122 8.95487 9.4563 9.02182L10.401 10.7846C10.4707 10.7473 10.5273 10.717 10.5792 10.6903C10.6308 10.6637 10.6676 10.6461 10.6944 10.6344C10.7223 10.6222 10.7266 10.6221 10.7137 10.6257C10.7022 10.6289 10.6504 10.6428 10.571 10.6427L10.573 8.64271ZM14.8918 13.8462C14.7456 12.9471 14.4249 11.7188 13.8056 10.6859C13.1835 9.64797 12.1473 8.64423 10.573 8.64271L10.571 10.6427C11.1601 10.6433 11.6547 10.9876 12.0902 11.7142C12.5288 12.4457 12.7927 13.3984 12.9177 14.1672L14.8918 13.8462ZM13.0006 16C14.073 16 15.0942 15.091 14.8918 13.8462L12.9177 14.1672C12.9149 14.1496 12.9152 14.1217 12.9249 14.0908C12.9342 14.0614 12.9487 14.0397 12.9618 14.0256C12.9869 13.9987 13.0055 14 13.0006 14V16ZM3.00057 16H13.0006V14H3.00057V16ZM1.1093 13.8463C0.907021 15.091 1.9281 16 3.00057 16V14C2.99566 14 3.01424 13.9987 3.03936 14.0256C3.05244 14.0396 3.06691 14.0614 3.0762 14.0908C3.08596 14.1217 3.08625 14.1495 3.0834 14.1671L1.1093 13.8463Z" fill="#657077"/>
</svg>
