<svg width="16" height="16" viewBox="0 0 16 16" fill="none" xmlns="http://www.w3.org/2000/svg">
<g clip-path="url(#clip0_12525_261704)">
<path fill-rule="evenodd" clip-rule="evenodd" d="M7.99923 0C8.38936 0 8.74388 0.226888 8.90728 0.581154L10.6478 4.35457L14.7744 4.84384C15.1618 4.88977 15.4871 5.15682 15.6077 5.52786C15.7282 5.8989 15.622 6.30618 15.3356 6.57106L12.2847 9.39243L13.0945 13.4682C13.1706 13.8509 13.0171 14.2428 12.7015 14.4721C12.3859 14.7015 11.9657 14.7263 11.6253 14.5357L7.99923 12.506L4.37317 14.5357C4.03274 14.7263 3.61257 14.7015 3.29695 14.4721C2.98132 14.2428 2.82787 13.8509 2.90391 13.4682L3.71376 9.39243L0.66288 6.57106C0.376449 6.30618 0.270216 5.8989 0.390775 5.52786C0.511333 5.15682 0.836668 4.88977 1.22409 4.84384L5.35066 4.35457L7.09117 0.581154C7.25458 0.226888 7.60909 0 7.99923 0Z" fill="#657077"/>
</g>
<defs>
<clipPath id="clip0_12525_261704">
<rect width="16" height="16" fill="white"/>
</clipPath>
</defs>
</svg>
