<svg width="16" height="16" viewBox="0 0 16 16" fill="none" xmlns="http://www.w3.org/2000/svg">
<g clip-path="url(#clip0_4851_53966)">
<path fill-rule="evenodd" clip-rule="evenodd" d="M8.0002 0C8.39034 0 8.74485 0.226888 8.90826 0.581154L10.6488 4.35457L14.7753 4.84384C15.1628 4.88977 15.4881 5.15682 15.6087 5.52786C15.7292 5.8989 15.623 6.30618 15.3366 6.57106L12.2857 9.39243L13.0955 13.4682C13.1716 13.8509 13.0181 14.2428 12.7025 14.4721C12.3869 14.7015 11.9667 14.7263 11.6263 14.5357L8.0002 12.506L4.37415 14.5357C4.03372 14.7263 3.61355 14.7015 3.29792 14.4721C2.9823 14.2428 2.82885 13.8509 2.90488 13.4682L3.71474 9.39243L0.663856 6.57106C0.377426 6.30618 0.271193 5.8989 0.391751 5.52786C0.51231 5.15682 0.837645 4.88977 1.22507 4.84384L5.35164 4.35457L7.09215 0.581154C7.25555 0.226888 7.61007 0 8.0002 0ZM8.0002 3.38751L6.9333 5.70055C6.78763 6.01636 6.48835 6.2338 6.14299 6.27475L3.61347 6.57466L5.48361 8.30411C5.73894 8.54024 5.85326 8.89207 5.78548 9.23319L5.28905 11.7316L7.51176 10.4874C7.81524 10.3175 8.18517 10.3175 8.48865 10.4874L10.7114 11.7316L10.2149 9.23319C10.1472 8.89207 10.2615 8.54024 10.5168 8.30411L12.3869 6.57466L9.85742 6.27475C9.51206 6.2338 9.21277 6.01636 9.06711 5.70055L8.0002 3.38751Z" fill="#657077"/>
</g>
<defs>
<clipPath id="clip0_4851_53966">
<rect width="16" height="16" fill="white"/>
</clipPath>
</defs>
</svg>
