<svg width="16" height="16" viewBox="0 0 16 16" fill="none" xmlns="http://www.w3.org/2000/svg">
<path fill-rule="evenodd" clip-rule="evenodd" d="M2 15.0004C1.44772 15.0004 0.996289 14.5511 1.03517 14.0002C1.52467 7.06536 7.065 1.52504 13.9999 1.03554C14.5508 0.996655 15 1.44808 15 2.00037V3.50198C15 4.05426 14.551 4.49699 14.0012 4.54936C9.06535 5.01959 5.02631 8.93795 4.55257 14.0013C4.50112 14.5512 4.0584 15.0004 3.50611 15.0004H2ZM7.99968 14.9996C7.4474 14.9996 6.99312 14.5497 7.06133 14.0016C7.51185 10.3813 10.3814 7.51179 14.0017 7.06127C14.5497 6.99306 14.9997 7.44733 14.9997 7.99962V13.9996C14.9997 14.5519 14.552 14.9996 13.9997 14.9996H7.99968Z" fill="#657077"/>
</svg>
