<svg width="16" height="16" viewBox="0 0 16 16" fill="none" xmlns="http://www.w3.org/2000/svg">
<path fill-rule="evenodd" clip-rule="evenodd" d="M8.5 0H7.5C6.67157 0 6 0.671573 6 1.5V2H5H3C1.89543 2 1 2.89543 1 4H3H5H7.5H8.5H11H13H15C15 2.89543 14.1046 2 13 2H11H10V1.5C10 0.671573 9.32843 0 8.5 0ZM3 5H13V13.2C13 14.7464 11.7464 16 10.2 16H5.8C4.2536 16 3 14.7464 3 13.2V5ZM4.5 6C4.22386 6 4 6.22386 4 6.5V13.5C4 13.7761 4.22386 14 4.5 14C4.77614 14 5 13.7761 5 13.5V6.5C5 6.22386 4.77614 6 4.5 6ZM6.5 6C6.22386 6 6 6.22386 6 6.5V14.5C6 14.7761 6.22386 15 6.5 15C6.77614 15 7 14.7761 7 14.5V6.5C7 6.22386 6.77614 6 6.5 6ZM11 6.5C11 6.22386 11.2239 6 11.5 6C11.7761 6 12 6.22386 12 6.5V13.5C12 13.7761 11.7761 14 11.5 14C11.2239 14 11 13.7761 11 13.5V6.5ZM9.5 6C9.22386 6 9 6.22386 9 6.5V14.5C9 14.7761 9.22386 15 9.5 15C9.77614 15 10 14.7761 10 14.5V6.5C10 6.22386 9.77614 6 9.5 6Z" fill="#657077"/>
</svg>
