<svg width="16" height="16" viewBox="0 0 16 16" fill="none" xmlns="http://www.w3.org/2000/svg">
<path fill-rule="evenodd" clip-rule="evenodd" d="M2.90143 2.29586C3.38899 0.833187 5.28231 0.45352 6.45015 1.46014C7.06815 1.99282 7.65388 2.40014 8 2.40014C8.34612 2.40014 8.93185 1.99282 9.54985 1.46014C10.7177 0.45352 12.611 0.833187 13.0986 2.29586L13.9996 4.99899H15C15.5523 4.99899 16 5.44671 16 5.99899V6.99899H0V5.99899C0 5.44671 0.447715 4.99899 1 4.99899H2.00038L2.90143 2.29586ZM2 9C1.44772 9 1 9.44771 1 10H0C0 10.7403 0.402199 11.3866 1 11.7324V13C1 13.5523 1.44772 14 2 14H5C6.10457 14 7 13.1046 7 12C7 11.4477 7.44772 11 8 11C8.55229 11 9 11.4477 9 12C9 13.1046 9.89543 14 11 14H14C14.5523 14 15 13.5523 15 13V11.7324C15.5978 11.3866 16 10.7403 16 10H15C15 9.44772 14.5523 9 14 9H10C9.44772 9 9 9.44771 9 10H7C7 9.44772 6.55228 9 6 9H2Z" fill="#657077"/>
</svg>
