<svg width="16" height="16" viewBox="0 0 16 16" fill="none" xmlns="http://www.w3.org/2000/svg">
<g clip-path="url(#clip0_336_34052)">
<path fill-rule="evenodd" clip-rule="evenodd" d="M7.99961 7.99994C9.99961 7.99994 10.9996 5.18818 10.9996 2.96465C10.9992 1.32721 9.67165 3.27366e-05 8.03421 5.57118e-10H7.96432C6.32697 -3.13999e-05 4.99961 1.3273 4.99961 2.96465C4.99961 5.18818 5.99961 7.99994 7.99961 7.99994ZM1.07807 15.0055C1.34902 12.9127 2.37806 9 4.9998 9C5.18281 9 5.43281 9.13397 5.7498 9.30385C6.29884 9.59808 7.04884 10 7.9998 10C8.95045 10 9.70027 9.59815 10.2493 9.30392C10.5665 9.1339 10.8167 8.99982 10.9998 9C13.6215 9.00252 14.6505 12.9133 14.9215 15.0055C14.9924 15.5532 14.5521 16 13.9998 16H1.9998C1.44751 16 1.00716 15.5532 1.07807 15.0055Z" fill="#657077"/>
</g>
<defs>
<clipPath id="clip0_336_34052">
<rect width="16" height="16" fill="white" transform="translate(-0.000488281)"/>
</clipPath>
</defs>
</svg>
