<svg width="16" height="16" viewBox="0 0 16 16" fill="none" xmlns="http://www.w3.org/2000/svg">
<g clip-path="url(#clip0_3364_37756)">
<path fill-rule="evenodd" clip-rule="evenodd" d="M7.49994 0H8.49994C9.32837 0 9.99994 0.671573 9.99994 1.5V2H10.001H13.001C14.1058 2 15.001 2.89593 15.001 4.00022H13.001V4H10.001H8.49994H7.49994H6.00098H3.00098V4.00022H1.00098C1.00098 2.89593 1.89612 2 3.00098 2H5.99994V1.5C5.99994 0.671573 6.67151 0 7.49994 0ZM3.00098 5.00023V13.0002C3.00098 14.6571 4.34412 16.0002 6.00098 16.0002H10.001C11.6578 16.0002 13.001 14.6571 13.001 13.0002V5.00023H11.001V13.0002C11.001 13.5525 10.5533 14.0002 10.001 14.0002H6.00098C5.44869 14.0002 5.00098 13.5525 5.00098 13.0002V5.00023H3.00098ZM7.00098 6V14H9.00098V6H7.00098Z" fill="#657077"/>
</g>
<defs>
<clipPath id="clip0_3364_37756">
<rect width="16" height="16" fill="white"/>
</clipPath>
</defs>
</svg>
