<svg width="16" height="16" viewBox="0 0 16 16" fill="none" xmlns="http://www.w3.org/2000/svg">
<path d="M7.99998 1L8 0L7.99998 1ZM2.09636 14.0067L3.08341 14.1671L2.09636 14.0067ZM6.07201 9.90315L6.54435 9.02174H6.54435L6.07201 9.90315ZM9.92869 9.90322L9.45631 9.02182H9.45631L9.92869 9.90322ZM10.572 9.64271L10.573 8.64271H10.573L10.572 9.64271ZM13.9048 14.0067L14.8918 13.8462V13.8462L13.9048 14.0067ZM8.99967 3.49996C8.99967 4.41142 8.84444 5.10385 8.61751 5.52952C8.41051 5.9178 8.2063 5.99996 8.00021 5.99996V7.99996C9.12745 7.99996 9.92298 7.33211 10.3824 6.4704C10.8218 5.64607 10.9997 4.5885 10.9997 3.49996H8.99967ZM8.99967 2.99973V3.49996H10.9997V2.99973H8.99967ZM7.99996 2C8.55209 2.00001 8.99967 2.4476 8.99967 2.99973H10.9997C10.9997 1.34305 9.65668 3.57628e-05 8 0L7.99996 2ZM7.00021 2.99973C7.00021 2.44759 7.44782 1.99999 7.99996 2L8 0C6.34327 -3.57628e-05 5.00021 1.343 5.00021 2.99973H7.00021ZM7.00021 3.49996V2.99973H5.00021V3.49996H7.00021ZM8.00021 5.99996C7.79404 5.99996 7.58968 5.91771 7.38256 5.52937C7.15554 5.1037 7.00021 4.41131 7.00021 3.49996H5.00021C5.00021 4.58861 5.17821 5.64621 5.61786 6.47055C6.07741 7.33221 6.87305 7.99996 8.00021 7.99996V5.99996ZM5.42915 8.64271C3.85408 8.64271 2.81754 9.64685 2.19538 10.6849C1.57615 11.7181 1.25546 12.9469 1.10931 13.8463L3.08341 14.1671C3.20841 13.3979 3.47236 12.4448 3.91087 11.7131C4.34644 10.9863 4.84072 10.6427 5.42915 10.6427V8.64271ZM6.54435 9.02174C6.41952 8.95484 6.25973 8.86846 6.10858 8.80228C5.97302 8.74293 5.72286 8.64271 5.42915 8.64271V10.6427C5.35004 10.6427 5.2984 10.6288 5.28697 10.6256C5.27423 10.622 5.27858 10.6222 5.30645 10.6344C5.33332 10.6461 5.37003 10.6638 5.42166 10.6903C5.47346 10.717 5.53002 10.7472 5.59966 10.7846L6.54435 9.02174ZM8.00058 9.49986C7.46413 9.49986 7.0231 9.2783 6.54435 9.02174L5.59966 10.7846C6.06213 11.0324 6.90681 11.4999 8.00058 11.4999V9.49986ZM9.45631 9.02182C8.97759 9.27839 8.53673 9.49986 8.00058 9.49986V11.4999C9.09411 11.4999 9.93866 11.0324 10.4011 10.7846L9.45631 9.02182ZM10.573 8.64271C10.2788 8.64243 10.0282 8.74278 9.89249 8.80217C9.74119 8.86839 9.58123 8.95487 9.45631 9.02182L10.4011 10.7846C10.4708 10.7473 10.5274 10.717 10.5792 10.6903C10.6308 10.6637 10.6676 10.6461 10.6944 10.6344C10.7223 10.6222 10.7266 10.6221 10.7137 10.6257C10.7022 10.6289 10.6504 10.6428 10.571 10.6427L10.573 8.64271ZM14.8918 13.8462C14.7456 12.9471 14.4249 11.7188 13.8057 10.6859C13.1835 9.64797 12.1473 8.64423 10.573 8.64271L10.571 10.6427C11.1601 10.6433 11.6547 10.9876 12.0903 11.7142C12.5288 12.4457 12.7927 13.3984 12.9177 14.1672L14.8918 13.8462ZM13.0006 16C14.073 16 15.0942 15.091 14.8918 13.8462L12.9177 14.1672C12.9149 14.1496 12.9152 14.1217 12.9249 14.0908C12.9342 14.0614 12.9487 14.0397 12.9618 14.0256C12.9869 13.9987 13.0055 14 13.0006 14V16ZM3.00058 16H13.0006V14H3.00058V16ZM1.10931 13.8463C0.907031 15.091 1.92811 16 3.00058 16V14C2.99567 14 3.01425 13.9987 3.03937 14.0256C3.05245 14.0396 3.06692 14.0614 3.07621 14.0908C3.08597 14.1217 3.08626 14.1495 3.08341 14.1671L1.10931 13.8463Z" fill="#657077"/>
</svg>
