<svg width="12" height="12" viewBox="0 0 12 12" fill="none" xmlns="http://www.w3.org/2000/svg">
<path fill-rule="evenodd" clip-rule="evenodd" d="M0.993754 11.9997C0.44147 11.9997 -0.0105889 11.5505 0.0347815 11C0.515636 5.16648 5.16687 0.515247 11.0004 0.0343924C11.5509 -0.0109779 12.0001 0.441081 12.0001 0.993366V1.99634C12.0001 2.54863 11.5507 2.99053 11.0018 3.05162C6.87942 3.51043 3.51702 6.77606 3.0548 11.0013C2.99475 11.5503 2.55288 11.9997 2.00059 11.9997H0.993754ZM6.13907 11.9992C5.58678 11.9992 5.13141 11.5489 5.21096 11.0024C5.64635 8.01111 8.01178 5.64568 11.003 5.21029C11.5496 5.13074 11.9999 5.58611 11.9999 6.1384V10.9992C11.9999 11.5515 11.5521 11.9992 10.9999 11.9992H6.13907Z" fill="#657077"/>
</svg>
