<svg width="16" height="16" viewBox="0 0 16 16" fill="none" xmlns="http://www.w3.org/2000/svg">
<g clip-path="url(#clip0_28469_63825)">
<path fill-rule="evenodd" clip-rule="evenodd" d="M1.42935 1.80751L7.86002 0.0191373C7.95177 -0.00637908 8.04861 -0.00637908 8.14028 0.0191373L14.571 1.80751C14.7716 1.86329 14.92 2.03298 14.9488 2.23927C14.9861 2.50754 15.8369 8.84451 13.6545 11.9969C11.4746 15.1456 8.2588 15.9525 8.12292 15.9853C8.08256 15.995 8.04143 15.9999 8.00015 15.9999C7.95888 15.9999 7.91775 15.9951 7.87738 15.9853C7.74157 15.9525 4.52575 15.1456 2.34584 11.9969C0.16336 8.84444 1.01425 2.50747 1.05155 2.23927C1.08028 2.03291 1.2287 1.86329 1.42935 1.80751ZM8.00015 2.05607L13.0656 3.46477C13.1162 4.09849 13.162 4.99374 13.1348 5.98146C13.0809 7.93856 12.7465 9.79479 12.0101 10.8585L12.0101 10.8585C10.6482 12.8256 8.76772 13.6584 8.00017 13.9312C7.23249 13.6583 5.35209 12.8256 3.99022 10.8585C3.25381 9.79476 2.91944 7.9385 2.86552 5.98141C2.83831 4.9937 2.88415 4.09847 2.9347 3.46477L8.00015 2.05607ZM11.8536 6.56122C12.0489 6.36596 12.0489 6.04938 11.8536 5.85412L11.1465 5.14701C10.9513 4.95175 10.6347 4.95175 10.4394 5.14701L7.50008 8.08635L6.56074 7.14701C6.36547 6.95175 6.04889 6.95175 5.85363 7.14701L5.14652 7.85412C4.95126 8.04938 4.95126 8.36596 5.14652 8.56122L7.14652 10.5612C7.34178 10.7565 7.65837 10.7565 7.85363 10.5612L11.8536 6.56122Z" fill="#333333"/>
</g>
<defs>
<clipPath id="clip0_28469_63825">
<rect width="16" height="16" fill="white"/>
</clipPath>
</defs>
</svg>
