<svg width="16" height="16" viewBox="0 0 16 16" fill="none" xmlns="http://www.w3.org/2000/svg">
<path fill-rule="evenodd" clip-rule="evenodd" d="M9.70711 4.29289L11 5.58577L10.9999 6.36654e-05L12.9999 4.95911e-05L13 5.5858L14.2929 4.29289L15.7071 5.70711L12.7071 8.70711C12.3166 9.09763 11.6834 9.09763 11.2929 8.70711L8.29289 5.70711L9.70711 4.29289ZM7 7.5C7 8.32843 6.5 9.5 5.5 9.5C4.5 9.5 4 8.32843 4 7.5C4 6.67157 4.5 6 5.5 6C6.5 6 7 6.67157 7 7.5ZM4.32368 12.5662C4.11871 13.1811 4 14.0659 4 15H2C2 13.9341 2.13129 12.8189 2.42632 11.9338C2.5726 11.4949 2.78012 11.0481 3.08449 10.693C3.40019 10.3247 3.87489 10 4.5 10C4.63075 10 4.76024 10.0256 4.88112 10.0755C5.29162 10.2447 5.43583 10.2627 5.51577 10.2617C5.59844 10.2607 5.72531 10.2391 6.11615 10.0766C6.2378 10.026 6.36825 10 6.5 10C7.12511 10 7.59981 10.3247 7.91551 10.693C8.21988 11.0481 8.4274 11.4949 8.57368 11.9338C8.86871 12.8189 9 13.9341 9 15L7 15C7 14.0659 6.88129 13.1811 6.67632 12.5662C6.60133 12.3413 6.52568 12.1858 6.46283 12.0858C6.17424 12.185 5.87096 12.2576 5.53971 12.2616C5.19066 12.2658 4.86404 12.1937 4.53847 12.0838C4.47537 12.1837 4.39919 12.3397 4.32368 12.5662Z" fill="#333333"/>
</svg>
