<svg width="16" height="16" viewBox="0 0 16 16" fill="none" xmlns="http://www.w3.org/2000/svg">
<path fill-rule="evenodd" clip-rule="evenodd" d="M14 8C14 7.75799 13.9857 7.51933 13.9578 7.28482L15.6359 5.60676C15.8725 6.36243 16 7.16632 16 8C16 12.4183 12.4183 16 8 16C3.58172 16 0 12.4183 0 8C0 3.58172 3.58172 0 8 0C9.37506 0 10.6691 0.34692 11.7993 0.95801L10.3005 2.45685C9.59204 2.16249 8.815 2 8 2C4.68629 2 2 4.68629 2 8C2 11.3137 4.68629 14 8 14C11.3137 14 14 11.3137 14 8ZM14.2071 4.20678L7.70711 10.7068C7.31659 11.0973 6.68342 11.0973 6.2929 10.7068L3.29289 7.70677L4.70711 6.29256L7.00001 8.58546L12.7929 2.79257L14.2071 4.20678Z" fill="#333333"/>
</svg>
