<svg width="17" height="17" viewBox="0 0 17 17" fill="none" xmlns="http://www.w3.org/2000/svg">
<g clip-path="url(#clip0_19005_20660)">
<path fill-rule="evenodd" clip-rule="evenodd" d="M12.8856 2.41725L11.5314 1.06303C10.2817 -0.186647 8.25559 -0.186646 7.00591 1.06303L6.38765 1.6813L0.774686 4.48778C0.429677 4.66028 0.188625 4.98812 0.126838 5.36887C0.0650501 5.74962 0.190061 6.13686 0.462815 6.40962L3.35638 9.30319L5.52656 11.4734L7.69673 13.6435L10.5903 16.5371C10.8631 16.8099 11.2503 16.9349 11.6311 16.8731C12.0118 16.8113 12.3396 16.5702 12.5121 16.2252L15.3186 10.6123L15.9369 9.99401C17.1866 8.74433 17.1866 6.7182 15.9369 5.46853L14.5827 4.11431L17.5312 1.16581L15.8341 -0.53125L12.8856 2.41725ZM14.3249 8.19685C14.5491 7.88429 14.5207 7.44648 14.2398 7.16558L12.0371 4.96283L9.83434 2.76009C9.55344 2.47919 9.11563 2.45085 8.80307 2.67506L14.3249 8.19685ZM6.86154 4.12763L3.33714 5.88983L4.20491 6.7576L6.24995 4.71256L7.94701 6.40962L5.90197 8.45466L6.37509 8.92778L8.42013 6.88274L10.1172 8.57979L8.07214 10.6248L8.54526 11.098L10.5903 9.05291L12.2874 10.75L10.2423 12.795L11.1101 13.6628L12.8723 10.1384L6.86154 4.12763Z" fill="#A3A9AE"/>
</g>
<defs>
<clipPath id="clip0_19005_20660">
<rect width="17" height="17" fill="white"/>
</clipPath>
</defs>
</svg>
