<svg width="12" height="12" viewBox="0 0 12 12" fill="none" xmlns="http://www.w3.org/2000/svg">
<g clip-path="url(#clip0_14585_305514)">
<path d="M12.25 -1.58252L8.85833 1.80797L10.1748 3.12445L13.5659 -0.266645L12.25 -1.58252Z" fill="#657077"/>
<path fill-rule="evenodd" clip-rule="evenodd" d="M0.371284 4.80045L2.3017 6.73087L4.49309 4.53949L4.97459 5.02099L2.78321 7.21237L4.78734 9.2165L6.97872 7.02512L7.47584 7.52224L5.28446 9.71363L7.19926 11.6284C7.70108 12.1302 8.55137 11.9642 8.82754 11.3105L10.406 7.9441L4.0285 1.56658L0.689239 3.17217C0.0355012 3.44834 -0.130535 4.29863 0.371284 4.80045ZM4.5308 1.07654L4.92206 0.700129C5.70311 -0.08092 6.96944 -0.0809195 7.75049 0.700129L8.85833 1.80797L10.1748 3.12445L11.2996 4.24922C12.0806 5.03026 12.0806 6.29659 11.2996 7.07764L10.9083 7.45405L4.5308 1.07654Z" fill="#657077"/>
</g>
<defs>
<clipPath id="clip0_14585_305514">
<rect width="12" height="12" fill="white"/>
</clipPath>
</defs>
</svg>
