<svg width="12" height="12" viewBox="0 0 12 12" fill="none" xmlns="http://www.w3.org/2000/svg">
<g clip-path="url(#clip0_963_55092)">
<g clip-path="url(#clip1_963_55092)">
<path fill-rule="evenodd" clip-rule="evenodd" d="M1.97266 5.97803C1.97266 3.76597 3.76589 1.97273 5.97795 1.97273C8.19002 1.97273 9.98325 3.76597 9.98325 5.97803C9.98325 8.1901 8.19002 9.98333 5.97795 9.98333C3.76589 9.98333 1.97266 8.1901 1.97266 5.97803ZM5.97795 -0.0272675C2.66132 -0.0272675 -0.0273438 2.6614 -0.0273438 5.97803C-0.0273438 9.29467 2.66132 11.9833 5.97795 11.9833C9.29459 11.9833 11.9833 9.29467 11.9833 5.97803C11.9833 2.6614 9.29459 -0.0272675 5.97795 -0.0272675ZM4.97754 2.76033V6.49995C4.97754 6.76517 5.0829 7.01952 5.27043 7.20706C5.45797 7.3946 5.71232 7.49995 5.97754 7.49995H8V5.49995L6.97754 5.49995V2.76033H4.97754Z" fill="#3B72A7"/>
</g>
</g>
<defs>
<clipPath id="clip0_963_55092">
<rect width="12" height="12" fill="white"/>
</clipPath>
<clipPath id="clip1_963_55092">
<rect width="12" height="12" fill="white"/>
</clipPath>
</defs>
</svg>
