<svg width="12" height="12" viewBox="0 0 12 12" fill="none" xmlns="http://www.w3.org/2000/svg">
<g clip-path="url(#clip0_2052_18287)">
<path fill-rule="evenodd" clip-rule="evenodd" d="M2 6C2 3.79086 3.79086 2 6 2C8.20914 2 10 3.79086 10 6C10 8.20914 8.20914 10 6 10C3.79086 10 2 8.20914 2 6ZM6 0C2.68629 0 0 2.68629 0 6C0 9.31371 2.68629 12 6 12C9.31371 12 12 9.31371 12 6C12 2.68629 9.31371 0 6 0ZM5 3V6C5 6.37877 5.214 6.72504 5.55279 6.89443L7.55279 7.89443L8.44721 6.10557L7 5.38197V3H5Z" fill="#657077"/>
</g>
<defs>
<clipPath id="clip0_2052_18287">
<rect width="12" height="12" fill="white"/>
</clipPath>
</defs>
</svg>
