<svg width="16" height="16" viewBox="0 0 16 16" fill="none" xmlns="http://www.w3.org/2000/svg">
<g clip-path="url(#clip0)">
<path fill-rule="evenodd" clip-rule="evenodd" d="M6.89898 0.0620605L8.24997 0.640145C8.45675 0.728622 8.61661 0.903485 8.68915 1.12053L9.2263 2.72763C9.31277 2.98634 9.52206 3.18214 9.78155 3.2471L15.4025 4.65427C15.7533 4.74207 16 5.0638 16 5.43337V12.1466C16 12.5895 15.6492 12.9486 15.2164 12.9486C15.1383 12.9486 15.0606 12.9367 14.9859 12.9132L14.5 12.7601V6.61704C14.5 6.246 14.0934 5.92299 13.7491 5.83484L8.23121 4.4221C7.97648 4.35688 7.77103 4.1603 7.68615 3.90056L7.15885 2.28708C7.08764 2.06918 6.93071 1.89362 6.72773 1.80479L5.81314 1.40455V0.802064C5.81314 0.359096 6.16397 0 6.59674 0C6.70051 0 6.80324 0.0210949 6.89898 0.0620605ZM6.29099 2.24366L4.94 1.66558C4.84426 1.62461 4.74153 1.60352 4.63776 1.60352C4.20499 1.60352 3.85416 1.96261 3.85416 2.40558V2.8241L4.74998 3.20742C4.95676 3.29589 5.11662 3.47076 5.18916 3.6878L5.72631 5.2949C5.81278 5.55361 6.02207 5.74942 6.28156 5.81438L11.9026 7.22154C12.2533 7.30934 12.5 7.63107 12.5 8.00064V14.3507L13.027 14.5167C13.1016 14.5402 13.1793 14.5521 13.2574 14.5521C13.6902 14.5521 14.041 14.193 14.041 13.7501V7.03688C14.041 6.66731 13.7943 6.34558 13.4436 6.25778L7.82257 4.85062C7.56307 4.78566 7.35379 4.58986 7.26732 4.33114L6.73017 2.72404C6.65763 2.507 6.49776 2.33214 6.29099 2.24366ZM4.33191 3.60694L2.98092 3.02886C2.88518 2.98789 2.78245 2.9668 2.67868 2.9668C2.24591 2.9668 1.89508 3.32589 1.89508 3.76886V6.31855C1.9204 6.32305 1.94557 6.32885 1.9705 6.33594L10 8.5C10.2628 8.57473 10.4688 8.78399 10.5437 9.05246L12.0819 14.869V8.40017C12.0819 8.0306 11.8352 7.70887 11.4845 7.62107L5.86349 6.2139C5.604 6.14894 5.39471 5.95314 5.30824 5.69442L4.77109 4.08733C4.69855 3.87028 4.53868 3.69542 4.33191 3.60694ZM9.69983 9.06129L0.993544 6.5859C0.838761 6.54189 0.674504 6.54764 0.523018 6.60237C0.114918 6.74979 -0.0991488 7.20793 0.0448865 7.62565L1.76376 12.6105C1.84637 12.8501 2.035 13.0355 2.27224 13.1102L11.3915 15.9822C11.4641 16.005 11.5415 16.0058 11.6144 15.9845C11.8225 15.9237 11.9429 15.7017 11.8835 15.4887L10.2436 9.61375C10.1686 9.34528 9.96267 9.13602 9.69983 9.06129Z" fill="#657077"/>
</g>
<defs>
<clipPath id="clip0">
<rect width="16" height="16" fill="white"/>
</clipPath>
</defs>
</svg>
