<svg width="16" height="16" viewBox="0 0 16 16" fill="none" xmlns="http://www.w3.org/2000/svg">
<path fill-rule="evenodd" clip-rule="evenodd" d="M3.7649 7.31245C4.61331 6.76813 5.57236 6.23859 6.60119 5.74937C10.9771 3.92142 14.8286 3.36083 15.8829 4.77407C16.542 6.17478 14.3984 9.29288 9.95598 11.4862C6.14703 13.2363 1.5049 13.5315 0.284105 12.043C0.201753 11.9044 0.149389 11.7576 0.125178 11.6039C0.0757866 11.4569 0.0305027 11.2968 0.0119316 11.1606C-0.136458 10.0721 1.14826 8.53906 1.14826 8.53906L2.18773 7.38027C2.29614 7.14053 2.38993 6.91549 2.47886 6.70208C2.97027 5.52293 3.31369 4.69888 5.15941 3.71251C7.04786 2.70333 8.92277 2.89363 10.6402 3.4969C10.6402 3.4969 12.4287 3.47684 13.4864 3.61398C13.5849 3.62674 13.6777 3.63761 13.7661 3.64797C14.301 3.7665 14.7748 3.87692 15.2984 4.20036C15.5395 4.34926 15.6899 4.52786 15.8151 4.68539C14.6683 3.38335 10.8874 3.95831 6.6039 5.74763C5.57397 6.23737 4.61398 6.76752 3.7649 7.31245ZM12.3439 7.78779C12.7039 8.45547 11.4289 9.61949 9.31088 10.6598C7.49849 11.4966 5.47858 11.8996 4.92194 11.2135C4.52652 10.5611 5.90777 9.27563 7.91823 8.31963C9.99528 7.43551 11.8596 7.14507 12.3439 7.78779Z" fill="#657077"/>
</svg>
