<svg width="33" height="17" viewBox="0 0 33 17" fill="none" xmlns="http://www.w3.org/2000/svg">
<path fill-rule="evenodd" clip-rule="evenodd" d="M11.473 7.30375C12.4851 5.73865 14.2527 4.69972 16.26 4.69972C19.3952 4.69972 21.9459 7.23437 21.9459 10.3499C21.9459 13.4653 19.3952 16 16.26 16C14.2527 16 12.4851 14.9611 11.473 13.396C10.4608 14.9611 8.69324 16 6.68598 16C3.55073 16 1 13.4653 1 10.3499V1H2.79798V6.23111C3.81551 5.28205 5.18353 4.69972 6.68598 4.69972C8.69324 4.69972 10.4608 5.73865 11.473 7.30375ZM30.5699 4.33333L32 5.45714L27.7734 10.1667L32 14.8763L30.5699 16L26.554 11.5253L22.5383 16L21.1081 14.8763L25.3347 10.1667L21.1081 5.45714L22.5383 4.33333L26.554 8.808L30.5699 4.33333ZM6.68598 14.2134C4.54213 14.2134 2.79798 12.4803 2.79798 10.3499C2.79798 8.21947 4.54213 6.48636 6.68598 6.48636C8.82983 6.48636 10.574 8.21953 10.574 10.3499C10.574 12.4802 8.82983 14.2134 6.68598 14.2134ZM12.372 10.3499C12.372 12.4802 14.1161 14.2134 16.26 14.2134C18.4038 14.2134 20.148 12.4802 20.148 10.3499C20.148 8.21953 18.4038 6.48636 16.26 6.48636C14.1161 6.48636 12.372 8.21953 12.372 10.3499Z" fill="#657077"/>
</svg>
