<svg width="16" height="16" viewBox="0 0 16 16" fill="none" xmlns="http://www.w3.org/2000/svg">
<g clip-path="url(#clip0_20597_65864)">
<path fill-rule="evenodd" clip-rule="evenodd" d="M8.84646 0.979492L5.22299 14.5025L7.15485 15.0201L10.7783 1.49713L8.84646 0.979492ZM2.41419 7.99916L5.20702 5.20614L3.79276 3.79197L0.292868 7.2921C-0.0976332 7.68263 -0.0976212 8.31578 0.292895 8.7063L3.79278 12.2062L5.20699 10.7919L2.41419 7.99916ZM13.5857 8.00004L10.7928 5.20714L12.207 3.79292L15.707 7.29293C15.8945 7.48047 15.9999 7.73482 15.9999 8.00004C15.9999 8.26526 15.8945 8.51961 15.707 8.70715L12.2065 12.2076L10.7923 10.7934L13.5857 8.00004Z" fill="#333333"/>
</g>
<defs>
<clipPath id="clip0_20597_65864">
<rect width="16" height="16" fill="white"/>
</clipPath>
</defs>
</svg>
