<svg width="20" height="20" viewBox="0 0 20 20" fill="none" xmlns="http://www.w3.org/2000/svg">
<path fill-rule="evenodd" clip-rule="evenodd" d="M10 0.25C9.77865 0.25 9.55887 0.257393 9.34091 0.271963L9.0093 0.294132C8.72096 0.313409 8.48733 0.535485 8.45346 0.822478L8.41451 1.15254L8.24763 2.56663C8.21855 2.81305 8.04001 3.01386 7.80352 3.08897C7.40881 3.21432 7.02881 3.37249 6.66675 3.56023C6.44644 3.67446 6.17816 3.65872 5.98332 3.50502L4.86518 2.62292L4.60441 2.4172C4.37763 2.2383 4.05557 2.24637 3.83804 2.43641L3.5879 2.65494C3.25634 2.9446 2.9446 3.25634 2.65494 3.5879L2.43641 3.83804C2.24637 4.05557 2.2383 4.37763 2.4172 4.60441L2.62292 4.86518L3.50502 5.98332C3.65872 6.17816 3.67446 6.44644 3.56023 6.66675C3.37249 7.02881 3.21432 7.40881 3.08897 7.80352C3.01386 8.04001 2.81305 8.21855 2.56663 8.24763L1.15254 8.41451L0.822478 8.45346C0.535485 8.48733 0.313409 8.72096 0.294132 9.0093L0.271963 9.34091C0.257393 9.55887 0.25 9.77865 0.25 10C0.25 10.2214 0.257393 10.4411 0.271963 10.6591L0.294132 10.9907C0.313409 11.279 0.535485 11.5127 0.822478 11.5465L1.15254 11.5855L2.56663 11.7524C2.81305 11.7814 3.01386 11.96 3.08897 12.1965C3.21432 12.5912 3.37249 12.9712 3.56023 13.3333C3.67446 13.5536 3.65872 13.8218 3.50502 14.0167L2.62292 15.1348L2.4172 15.3956C2.2383 15.6224 2.24637 15.9444 2.43641 16.162L2.65494 16.4121C2.9446 16.7437 3.25634 17.0554 3.5879 17.3451L3.83804 17.5636C4.05557 17.7536 4.37763 17.7617 4.60441 17.5828L4.86518 17.3771L5.98332 16.495C6.17816 16.3413 6.44644 16.3255 6.66675 16.4398C7.02881 16.6275 7.40881 16.7857 7.80352 16.911C8.04001 16.9861 8.21855 17.1869 8.24763 17.4334L8.41451 18.8475L8.45346 19.1775C8.48733 19.4645 8.72096 19.6866 9.0093 19.7059L9.34091 19.728C9.55887 19.7426 9.77865 19.75 10 19.75C10.2213 19.75 10.4411 19.7426 10.6591 19.728L10.9907 19.7059C11.279 19.6866 11.5127 19.4645 11.5465 19.1775L11.5855 18.8475L11.7524 17.4334C11.7814 17.1869 11.96 16.9861 12.1965 16.911C12.5912 16.7857 12.9712 16.6275 13.3333 16.4398C13.5536 16.3255 13.8218 16.3413 14.0167 16.495L15.1348 17.3771L15.3956 17.5828C15.6224 17.7617 15.9444 17.7536 16.162 17.5636L16.4121 17.3451C16.7437 17.0554 17.0554 16.7437 17.3451 16.4121L17.5636 16.162C17.7536 15.9444 17.7617 15.6224 17.5828 15.3956L17.3771 15.1348L16.495 14.0167C16.3413 13.8218 16.3255 13.5536 16.4398 13.3333C16.6275 12.9712 16.7857 12.5912 16.911 12.1965C16.9861 11.96 17.1869 11.7814 17.4334 11.7524L18.8475 11.5855L19.1775 11.5465C19.4645 11.5127 19.6866 11.279 19.7059 10.9907L19.728 10.6591C19.7426 10.4411 19.75 10.2213 19.75 10C19.75 9.77865 19.7426 9.55887 19.728 9.34091L19.7059 9.0093C19.6866 8.72096 19.4645 8.48733 19.1775 8.45346L18.8475 8.41451L17.4334 8.24763C17.1869 8.21855 16.9861 8.04001 16.911 7.80352C16.7857 7.40881 16.6275 7.02881 16.4398 6.66675C16.3255 6.44644 16.3413 6.17816 16.495 5.98332L17.3771 4.86518L17.5828 4.60441C17.7617 4.37763 17.7536 4.05557 17.5636 3.83804L17.3451 3.5879C17.0554 3.25634 16.7437 2.9446 16.4121 2.65494L16.162 2.43641C15.9444 2.24637 15.6224 2.2383 15.3956 2.4172L15.1348 2.62292L14.0167 3.50502C13.8218 3.65872 13.5536 3.67446 13.3333 3.56023C12.9712 3.37249 12.5912 3.21432 12.1965 3.08897C11.96 3.01386 11.7814 2.81305 11.7524 2.56663L11.5855 1.15254L11.5465 0.822478C11.5127 0.535485 11.279 0.313409 10.9907 0.294132L10.6591 0.271963C10.4411 0.257393 10.2214 0.25 10 0.25ZM10 8C8.89543 8 8 8.89543 8 10C8 11.1046 8.89543 12 10 12C11.1046 12 12 11.1046 12 10C12 8.89543 11.1046 8 10 8ZM15.25 10C15.25 12.8995 12.8995 15.25 10 15.25C7.1005 15.25 4.75 12.8995 4.75 10C4.75 7.1005 7.1005 4.75 10 4.75C12.8995 4.75 15.25 7.1005 15.25 10Z" fill="#657077"/>
</svg>
