<svg width="16" height="16" viewBox="0 0 16 16" fill="none" xmlns="http://www.w3.org/2000/svg">
<g clip-path="url(#clip0_20707_66689)">
<path fill-rule="evenodd" clip-rule="evenodd" d="M6.00001 -0.000241343C4.89544 -0.000241343 4.00001 0.895189 4.00001 1.99976L6.00001 1.99976L14 1.99976L14 9.99976L14 11.9998C15.1046 11.9998 16 11.1043 16 9.99976L16 1.99976C16 0.895189 15.1046 -0.000241343 14 -0.000241343L6.00001 -0.000241343ZM2.00001 3.99976C0.895436 3.99976 5.59506e-06 4.89519 5.59506e-06 5.99976L5.59506e-06 13.9998C5.59506e-06 15.1043 0.895437 15.9998 2.00001 15.9998L10 15.9998C11.1046 15.9998 12 15.1043 12 13.9998L12 5.99976C12 4.89519 11.1046 3.99976 10 3.99976L2.00001 3.99976ZM2.00001 13.9998L2.00001 5.99976L10 5.99976L10 13.9998L2.00001 13.9998Z" fill="#333333"/>
</g>
<defs>
<clipPath id="clip0_20707_66689">
<rect width="16" height="16" fill="white"/>
</clipPath>
</defs>
</svg>
