<svg width="16" height="16" viewBox="0 0 16 16" fill="none" xmlns="http://www.w3.org/2000/svg">
<g clip-path="url(#clip0_17158:39447)">
<path fill-rule="evenodd" clip-rule="evenodd" d="M6 -0.00048933C4.89543 -0.00048933 4 0.894941 4 1.99951L6 1.99951L14 1.99951L14 9.99951L14 11.9995C15.1046 11.9995 16 11.1041 16 9.99951L16 1.99951C16 0.894941 15.1046 -0.00048933 14 -0.00048933L6 -0.00048933ZM2 3.99951C0.895433 3.99951 2.44784e-06 4.89494 2.44784e-06 5.99951L2.44784e-06 13.9995C2.44784e-06 15.1041 0.895433 15.9995 2 15.9995L10 15.9995C11.1046 15.9995 12 15.1041 12 13.9995L12 5.99951C12 4.89494 11.1046 3.99951 10 3.99951L2 3.99951ZM2 13.9995L2 5.99951L10 5.99951L10 13.9995L2 13.9995Z" fill="#333333"/>
</g>
<defs>
<clipPath id="clip0_17158:39447">
<rect width="16" height="16" fill="white"/>
</clipPath>
</defs>
</svg>
