<svg width="16" height="16" viewBox="0 0 16 16" fill="none" xmlns="http://www.w3.org/2000/svg">
<path d="M14.8768 12.6886L8.73457 2.41828C8.57934 2.15872 8.30062 2 7.99998 2C7.69934 2 7.42062 2.15869 7.26539 2.41828L1.12321 12.6886C0.963467 12.9557 0.958737 13.2889 1.11088 13.5604C1.26302 13.832 1.54841 14 1.85777 14H14.1422C14.4516 14 14.737 13.832 14.8891 13.5604C15.0413 13.2888 15.0365 12.9557 14.8768 12.6886ZM8.00457 5.55261C8.35734 5.55261 8.65582 5.75326 8.65582 6.1089C8.65582 7.1941 8.52919 8.75357 8.52919 9.83878C8.52919 10.1215 8.22166 10.24 8.00457 10.24C7.71517 10.24 7.47093 10.1215 7.47093 9.83878C7.47093 8.75357 7.34433 7.1941 7.34433 6.1089C7.34433 5.75326 7.63374 5.55261 8.00457 5.55261ZM8.01362 12.2737C7.61566 12.2737 7.31715 11.9454 7.31715 11.5715C7.31715 11.1885 7.61563 10.8693 8.01362 10.8693C8.38446 10.8693 8.70105 11.1885 8.70105 11.5715C8.70105 11.9454 8.38446 12.2737 8.01362 12.2737Z" fill="black"/>
</svg>
