<svg width="16" height="16" viewBox="0 0 16 16" fill="none" xmlns="http://www.w3.org/2000/svg">
<path fill-rule="evenodd" clip-rule="evenodd" d="M5.39475 2.54283C6.54643 0.52739 9.45253 0.527388 10.6042 2.54283L15.1579 10.5117C16.3007 12.5117 14.8566 15.0001 12.5531 15.0001H10.9995V13.0001H12.5531C13.3209 13.0001 13.8023 12.1706 13.4214 11.504L8.86772 3.53511C8.48383 2.8633 7.51513 2.8633 7.13124 3.53511L2.5776 11.504C2.19665 12.1706 2.67802 13.0001 3.44584 13.0001H4.99948V15.0001H3.44584C1.14237 15.0001 -0.301731 12.5117 0.84111 10.5117L5.39475 2.54283ZM6.99917 15.0005V13.0005H8.99916V15.0005H6.99917ZM6.99917 12.0005V6.00054H8.99916V12.0005H6.99917Z" fill="#333333"/>
</svg>
