<svg width="16" height="14" viewBox="0 0 16 14" fill="none" xmlns="http://www.w3.org/2000/svg">
<path fill-rule="evenodd" clip-rule="evenodd" d="M5.3967 1.54332C6.54839 -0.472121 9.45448 -0.472124 10.6062 1.54332L15.1598 9.51219C16.3026 11.5122 14.8585 14.0006 12.5551 14.0006H11.0014V12.0006H12.5551C13.3229 12.0006 13.8043 11.1711 13.4233 10.5045L8.86968 2.5356C8.48578 1.86379 7.51708 1.86378 7.13319 2.5356L2.57955 10.5045C2.1986 11.1711 2.67997 12.0006 3.44779 12.0006H5.00143V14.0006H3.44779C1.14432 14.0006 -0.299778 11.5122 0.843063 9.51219L5.3967 1.54332ZM7.00112 14.001V12.001H9.00112V14.001H7.00112ZM7.00112 11.001V5.00103H9.00112V11.001H7.00112Z" fill="#333333"/>
</svg>
