<svg width="16" height="16" viewBox="0 0 16 16" fill="none" xmlns="http://www.w3.org/2000/svg">
<path fill-rule="evenodd" clip-rule="evenodd" d="M14 14V5.09509L10.9049 2H10V5C10 5.55228 9.55228 6 9 6H5C4.44772 6 4 5.55228 4 5V2H2V14H3V9C3 8.44771 3.44772 8 4 8H12C12.5523 8 13 8.44771 13 9V14H14ZM12 16H15C15.5523 16 16 15.5523 16 15V4.68088C16 4.41566 15.8946 4.16131 15.7071 3.97377L12.0262 0.292893C11.8387 0.105357 11.5843 0 11.3191 0H9H5H1C0.447715 0 0 0.447715 0 1V15C0 15.5523 0.447715 16 1 16H4H12ZM11 14V10H5V14H11ZM6 2H8V4H6V2Z" fill="#657077"/>
</svg>
