<svg width="16" height="16" viewBox="0 0 16 16" fill="none" xmlns="http://www.w3.org/2000/svg">
<path fill-rule="evenodd" clip-rule="evenodd" d="M0 3C0 1.89543 0.89543 1 2 1H6.58579C7.11622 1 7.62493 1.21071 8 1.58579L10.4142 4H14C15.1046 4 16 4.89543 16 6V13C16 14.1046 15.1046 15 14 15H9.46487C9.80521 14.4117 10 13.7286 10 13H14V6H10.4142C9.88378 6 9.37507 5.78929 9 5.41421L6.58579 3H2V4C1.27143 4 0.588347 4.19479 0 4.53513V3ZM4 4.5C3.44772 4.5 3 4.94772 3 5.5V6H2C0.895431 6 0 6.89543 0 8H2H4H5H7H9C9 6.89543 8.10457 6 7 6H6V5.5C6 4.94772 5.55228 4.5 5 4.5H4ZM1 9V13C1 14.1046 1.89543 15 3 15H6C7.10457 15 8 14.1046 8 13V9H6V13H3V9H1Z" fill="#333333"/>
</svg>
