<svg width="16" height="16" viewBox="0 0 16 16" fill="none" xmlns="http://www.w3.org/2000/svg">
<path d="M14 2.5C14 3.32843 13.5 4.5 12.5 4.5C11.5 4.5 11 3.32843 11 2.5C11 1.67157 11.5 1 12.5 1C13.5 1 14 1.67157 14 2.5Z" fill="#333333"/>
<path d="M11.3237 7.56623C11.1187 8.18114 11 9.06589 11 10H9C9 8.93411 9.13129 7.81886 9.42632 6.93377C9.5726 6.49494 9.78012 6.04806 10.0845 5.69296C10.4002 5.32465 10.8749 5 11.5 5C11.6308 5 11.7602 5.02564 11.8811 5.07548C12.2916 5.2447 12.4358 5.26268 12.5158 5.26173C12.5984 5.26074 12.7253 5.23907 13.1161 5.0766C13.2378 5.02603 13.3683 5 13.5 5C14.1251 5 14.5998 5.32465 14.9155 5.69296C15.2199 6.04806 15.4274 6.49494 15.5737 6.93377C15.8687 7.81886 16 8.93411 16 10H14C14 9.06589 13.8813 8.18114 13.6763 7.56623C13.6013 7.34126 13.5257 7.18583 13.4628 7.08584C13.1742 7.18503 12.871 7.25762 12.5397 7.26158C12.1907 7.26576 11.864 7.19374 11.5385 7.08377C11.4754 7.18367 11.3992 7.33969 11.3237 7.56623Z" fill="#333333"/>
<path fill-rule="evenodd" clip-rule="evenodd" d="M2.98482 3.66928C3.59571 3.1602 4.35143 3 5 3C5.64857 3 6.40429 3.1602 7.01518 3.66928C7.65816 4.20509 8 5.00952 8 6C8 6.66977 7.85395 7.58407 7.45309 8.36902C7.04496 9.1682 6.26659 10 5 10C3.73341 10 2.95504 9.1682 2.54691 8.36902C2.14605 7.58407 2 6.66977 2 6C2 5.00952 2.34184 4.20509 2.98482 3.66928ZM4.26518 5.20572C4.15816 5.29491 4 5.49048 4 6C4 6.4348 4.10395 7.0205 4.32809 7.45941C4.54496 7.88408 4.76659 8 5 8C5.23341 8 5.45504 7.88408 5.67191 7.45941C5.89605 7.0205 6 6.4348 6 6C6 5.49048 5.84184 5.29491 5.73482 5.20572C5.59571 5.0898 5.35143 5 5 5C4.64857 5 4.40429 5.0898 4.26518 5.20572Z" fill="#333333"/>
<path d="M6.83999 12.9404C6.85097 12.9464 6.86635 12.9559 6.88617 12.9705C7.01395 13.0651 7.19696 13.2797 7.38795 13.646C7.76858 14.3759 8 15.3535 8 16H10C10 15.0108 9.68095 13.7178 9.16134 12.7213C8.90221 12.2243 8.54766 11.7118 8.07553 11.3626C7.56693 10.9864 6.87901 10.7811 6.13936 11.0671C5.69665 11.2383 5.34963 11.3069 5.023 11.3073C4.69434 11.3078 4.32781 11.2394 3.84627 11.0616C3.10781 10.7891 2.42538 10.9974 1.91977 11.3726C1.4488 11.7222 1.0948 12.2327 0.835772 12.729C0.316697 13.7236 0 15.0114 0 16H2C2 15.3529 2.2297 14.3808 2.60883 13.6544C2.7989 13.2902 2.98195 13.0749 3.11165 12.9787C3.13699 12.9599 3.15567 12.9491 3.1677 12.9431C3.79959 13.175 4.40213 13.3082 5.02592 13.3073C5.64923 13.3064 6.23667 13.1717 6.83999 12.9404Z" fill="#333333"/>
</svg>
