<svg width="16" height="16" viewBox="0 0 16 16" fill="none" xmlns="http://www.w3.org/2000/svg">
<g clip-path="url(#clip0_17302:17829)">
<path fill-rule="evenodd" clip-rule="evenodd" d="M5.00113 2.48786C5.00113 1.11383 6.11502 -3.14699e-05 7.48905 6.65749e-10C8.86303 3.15322e-05 9.97685 1.11388 9.97685 2.48786V2.97797C9.97685 3.82959 9.86385 4.66311 9.50199 5.31672C9.31283 5.65839 9.0469 5.96615 8.68518 6.18452C8.32164 6.404 7.91621 6.49997 7.50113 6.49997C6.60761 6.49997 5.90851 6.05741 5.49334 5.32603C5.12196 4.67178 5.00113 3.83635 5.00113 2.97797V2.48786ZM7.489 2C7.21956 1.99999 7.00113 2.21842 7.00113 2.48786L7.00113 2.97797C7.00113 3.70199 7.11279 4.12756 7.23265 4.33871C7.28475 4.43049 7.32574 4.45968 7.34235 4.46959C7.35719 4.47844 7.3987 4.49997 7.50113 4.49997C7.60355 4.49997 7.64135 4.47849 7.65153 4.47234C7.66355 4.46508 7.70185 4.43904 7.75225 4.34801C7.8695 4.13623 7.97685 3.70875 7.97685 2.97797L7.97685 2.48786C7.97685 2.21843 7.75844 2.00001 7.489 2Z" fill="#333333"/>
<path fill-rule="evenodd" clip-rule="evenodd" d="M3.4718 7.73109C3.81802 7.34868 4.32931 6.99992 5.0016 6.99992C5.22571 6.99992 5.44498 7.04412 5.61017 7.08337C5.77945 7.12359 5.96243 7.1766 6.12794 7.22454L6.14111 7.22836C6.65592 7.37748 7.10306 7.49992 7.5016 7.49992C7.56013 7.49992 7.61971 7.49728 7.68039 7.4923L5.92586 9.24683C5.81876 9.2173 5.71899 9.18836 5.62828 9.16204L5.58468 9.14939C5.40268 9.09668 5.26473 9.05697 5.14783 9.02919C5.0895 9.01533 5.05053 9.00803 5.02704 9.00419C5.01149 9.01591 4.98739 9.037 4.95445 9.07339C4.8381 9.2019 4.69814 9.43287 4.55784 9.78061C4.41415 10.1368 4.2955 10.5506 4.20175 10.9709L2.20757 12.9651C2.04522 12.6526 1.96964 12.2847 2.01868 11.8829C2.12094 11.0451 2.33359 9.94818 2.70311 9.0323C2.8866 8.57752 3.13309 8.10521 3.4718 7.73109ZM5.04844 8.99102C5.04842 8.9913 5.04617 8.99262 5.04173 8.99417C5.04623 8.99152 5.04845 8.99075 5.04844 8.99102Z" fill="#333333"/>
<path d="M10.5787 10.2509L12.1338 8.69574C12.1874 8.81218 12.2363 8.92927 12.2811 9.04508C12.6361 9.96174 12.8319 11.0587 12.9245 11.8931C13.0581 13.0973 12.0787 13.9999 10.9956 13.9999L6.82965 13.9999L8.82965 11.9999H10.9235C10.8562 11.44 10.7424 10.8094 10.5787 10.2509Z" fill="#333333"/>
<path d="M13.7078 5.70711L3.70783 15.7071L2.29362 14.2929L12.2936 4.29289L13.7078 5.70711Z" fill="#333333"/>
</g>
<defs>
<clipPath id="clip0_17302:17829">
<rect width="16" height="16" fill="white"/>
</clipPath>
</defs>
</svg>
