<svg width="406" height="46" viewBox="0 0 406 46" fill="none" xmlns="http://www.w3.org/2000/svg">
<path fill-rule="evenodd" clip-rule="evenodd" d="M21.8684 45.4362L1.78322 35.9659C0.0722596 35.1392 0.0722596 33.8614 1.78322 33.1098L8.77585 29.8027L21.794 35.9659C23.505 36.7927 26.2574 36.7927 27.894 35.9659L40.9122 29.8027L47.9048 33.1098C49.6158 33.9366 49.6158 35.2143 47.9048 35.9659L27.8196 45.4362C26.2574 46.1878 23.505 46.1878 21.8684 45.4362Z" fill="#FF6F3D"/>
<path fill-rule="evenodd" clip-rule="evenodd" d="M21.8033 33.717L1.77931 24.2357C0.0735627 23.408 0.0735627 22.1288 1.77931 21.3763L8.60231 18.1406L21.8033 24.3862C23.5091 25.2139 26.2531 25.2139 27.8847 24.3862L41.0857 18.1406L47.9087 21.3763C49.6144 22.204 49.6144 23.4832 47.9087 24.2357L27.8847 33.717C26.1789 34.5447 23.4349 34.5447 21.8033 33.717Z" fill="#95C038"/>
<path fill-rule="evenodd" clip-rule="evenodd" d="M21.8033 22.1198L1.77931 12.775C0.0735627 11.9592 0.0735627 10.6983 1.77931 9.95669L21.8033 0.611863C23.5091 -0.203955 26.2531 -0.203955 27.8847 0.611863L47.9087 9.95669C49.6144 10.7725 49.6144 12.0333 47.9087 12.775L27.8847 22.1198C26.1789 22.8614 23.4349 22.8614 21.8033 22.1198Z" fill="#5DC0E8"/>
<path d="M73.8642 11.2446C68.0694 11.2446 62.375 14.6596 62.375 23.0002C62.375 31.3407 68.0694 34.7557 73.8642 34.7557C79.659 34.7557 85.3534 31.3407 85.3534 23.0002C85.3534 14.6596 79.659 11.2446 73.8642 11.2446ZM73.8642 14.5283C75.6395 14.5283 80.329 15.2179 80.329 23.0002C80.329 30.7825 75.6395 31.472 73.8642 31.472C72.0889 31.472 67.3994 30.7825 67.3994 23.0002C67.3994 15.2179 72.0889 14.5283 73.8642 14.5283Z" fill="#333333"/>
<path d="M89.2178 11.5073V34.493H93.9742V20.9643L93.8737 16.8925H93.9742L95.1466 19.4538L103.32 34.493H109.483V11.5073H104.726V25.036L104.827 29.1078H104.726L103.487 25.9883L95.3811 11.5073H89.2178Z" fill="#333333"/>
<path d="M114.176 11.5073V34.493H128.245V30.6183H118.933V11.5073H114.176Z" fill="#333333"/>
<path d="M124.225 11.5073L132.867 25.1017V34.493H137.624V25.1674L146.065 11.5073H141.04L136.183 19.5852L135.379 21.1613H135.279L134.542 19.5852L129.719 11.5073H124.225Z" fill="#333333"/>
<path d="M157.147 11.2446C151.352 11.2446 145.658 14.6596 145.658 23.0002C145.658 31.3407 151.352 34.7557 157.147 34.7557C162.942 34.7557 168.636 31.3407 168.636 23.0002C168.636 14.6596 162.942 11.2446 157.147 11.2446ZM157.147 14.5283C158.922 14.5283 163.612 15.2179 163.612 23.0002C163.612 30.7825 158.922 31.472 157.147 31.472C155.371 31.472 150.682 30.7825 150.682 23.0002C150.682 15.2179 155.371 14.5283 157.147 14.5283Z" fill="#333333"/>
<path d="M172.5 11.5073V34.493H177.257V24.7405H185.229V20.9643H177.257V15.3821H185.631V11.5073H172.5Z" fill="#333333"/>
<path d="M188.987 11.5073V34.493H193.743V24.7405H201.715V20.9643H193.743V15.3821H202.117V11.5073H188.987Z" fill="#333333"/>
<path d="M205.473 34.493H210.23V11.5073H205.473V34.493Z" fill="#333333"/>
<path d="M232.043 29.863C230.871 30.3884 229.23 30.881 227.153 30.881C222.932 30.881 219.114 28.6152 219.114 23.0658C219.114 18.3702 222.229 15.1194 227.488 15.1194C229.263 15.1194 230.77 15.4477 232.144 15.9731L232.345 12.0327C230.569 11.4745 228.995 11.2446 227.153 11.2446C219.784 11.2446 214.089 15.2179 214.089 23.1315C214.089 31.5049 220.454 34.7557 226.282 34.7557C228.158 34.7557 230.268 34.4602 232.345 33.7706L232.043 29.863Z" fill="#333333"/>
<path d="M236.025 11.5073V34.493H250.027V30.4213H240.782V24.5435H249.189V20.7673H240.782V15.5791H250.027V11.5073H236.025Z" fill="#333333"/>
<path d="M280.002 22.3674C280.002 24.9873 279.524 27.1775 278.568 28.9382C277.612 30.6883 276.226 32.0088 274.409 32.8997C272.604 33.7801 270.41 34.2203 267.829 34.2203H261.504V10.9601H268.53C270.899 10.9601 272.938 11.395 274.648 12.2647C276.359 13.1238 277.676 14.4019 278.6 16.099C279.535 17.7854 280.002 19.8749 280.002 22.3674ZM277.15 22.4629C277.15 20.3734 276.799 18.6498 276.098 17.2922C275.408 15.9346 274.388 14.9269 273.039 14.2693C271.701 13.6011 270.06 13.267 268.116 13.267H264.212V31.8974H267.511C270.718 31.8974 273.124 31.1072 274.728 29.5269C276.343 27.9465 277.15 25.5918 277.15 22.4629Z" fill="#333333"/>
<path d="M299.512 25.4698C299.512 26.9017 299.326 28.1798 298.954 29.3041C298.582 30.4284 298.046 31.3777 297.345 32.152C296.644 32.9263 295.794 33.5202 294.796 33.9339C293.808 34.3369 292.687 34.5385 291.434 34.5385C290.266 34.5385 289.193 34.3369 288.216 33.9339C287.249 33.5202 286.41 32.9263 285.698 32.152C284.997 31.3777 284.45 30.4284 284.057 29.3041C283.675 28.1798 283.483 26.9017 283.483 25.4698C283.483 23.5607 283.807 21.9379 284.455 20.6014C285.103 19.2544 286.027 18.2309 287.228 17.5308C288.439 16.8202 289.878 16.4649 291.545 16.4649C293.139 16.4649 294.53 16.8202 295.72 17.5308C296.92 18.2415 297.85 19.2703 298.508 20.6173C299.177 21.9538 299.512 23.5713 299.512 25.4698ZM286.224 25.4698C286.224 26.8699 286.41 28.0844 286.782 29.1132C287.153 30.142 287.727 30.9375 288.502 31.4997C289.278 32.0618 290.276 32.3429 291.498 32.3429C292.709 32.3429 293.702 32.0618 294.477 31.4997C295.263 30.9375 295.842 30.142 296.214 29.1132C296.586 28.0844 296.771 26.8699 296.771 25.4698C296.771 24.0804 296.586 22.8818 296.214 21.8742C295.842 20.856 295.268 20.0711 294.493 19.5196C293.718 18.968 292.714 18.6923 291.482 18.6923C289.665 18.6923 288.332 19.2915 287.483 20.4901C286.643 21.6886 286.224 23.3485 286.224 25.4698Z" fill="#333333"/>
<path d="M310.753 34.5385C309.181 34.5385 307.795 34.215 306.594 33.568C305.394 32.921 304.459 31.9345 303.79 30.6087C303.121 29.2829 302.786 27.6124 302.786 25.5971C302.786 23.4864 303.137 21.7629 303.838 20.4264C304.55 19.0794 305.527 18.0824 306.77 17.4354C308.012 16.7884 309.425 16.4649 311.008 16.4649C311.879 16.4649 312.718 16.555 313.525 16.7354C314.343 16.9051 315.012 17.1225 315.533 17.3877L314.736 19.5991C314.205 19.387 313.589 19.1961 312.888 19.0264C312.197 18.8567 311.549 18.7718 310.944 18.7718C309.733 18.7718 308.724 19.0317 307.917 19.5514C307.12 20.0711 306.52 20.8348 306.116 21.8424C305.723 22.85 305.527 24.091 305.527 25.5653C305.527 26.976 305.718 28.1798 306.1 29.1768C306.493 30.1739 307.072 30.9375 307.837 31.4679C308.612 31.9876 309.579 32.2474 310.737 32.2474C311.661 32.2474 312.495 32.152 313.238 31.9611C313.982 31.7595 314.656 31.5262 315.262 31.261V33.6157C314.678 33.9127 314.024 34.1407 313.302 34.2998C312.59 34.4589 311.741 34.5385 310.753 34.5385Z" fill="#333333"/>
<path d="M332.621 28.0313C332.621 29.4102 332.276 30.5875 331.585 31.5633C330.905 32.5285 329.949 33.2657 328.717 33.7748C327.485 34.2839 326.035 34.5385 324.368 34.5385C323.486 34.5385 322.652 34.496 321.866 34.4112C321.08 34.3263 320.358 34.2043 319.699 34.0452C319.041 33.8861 318.462 33.6899 317.963 33.4566V30.8633C318.759 31.1921 319.731 31.4997 320.878 31.7861C322.026 32.0618 323.226 32.1997 324.479 32.1997C325.648 32.1997 326.635 32.0459 327.443 31.7383C328.25 31.4201 328.861 30.9693 329.275 30.386C329.7 29.792 329.912 29.0814 329.912 28.2541C329.912 27.4586 329.737 26.7957 329.386 26.2653C329.036 25.7244 328.452 25.2365 327.634 24.8016C326.827 24.3562 325.722 23.8842 324.32 23.3857C323.332 23.0356 322.461 22.6538 321.707 22.2402C320.953 21.8159 320.321 21.3386 319.811 20.8083C319.301 20.2779 318.913 19.6628 318.648 18.9627C318.393 18.2627 318.265 17.4619 318.265 16.5603C318.265 15.3194 318.579 14.2587 319.205 13.3784C319.843 12.4874 320.719 11.8086 321.834 11.3419C322.96 10.8646 324.251 10.626 325.706 10.626C326.949 10.626 328.096 10.7426 329.147 10.976C330.21 11.2093 331.182 11.5222 332.063 11.9147L331.219 14.2375C330.38 13.8875 329.487 13.5958 328.542 13.3625C327.607 13.1291 326.641 13.0125 325.642 13.0125C324.644 13.0125 323.799 13.1609 323.109 13.4579C322.429 13.7443 321.909 14.1527 321.548 14.683C321.186 15.2133 321.006 15.8444 321.006 16.5763C321.006 17.393 321.176 18.0718 321.516 18.6127C321.866 19.1536 322.419 19.6362 323.173 20.0605C323.937 20.4742 324.947 20.909 326.2 21.3651C327.57 21.8636 328.733 22.3939 329.689 22.9561C330.645 23.5076 331.373 24.1865 331.872 24.9926C332.371 25.788 332.621 26.801 332.621 28.0313Z" fill="#333333"/>
<path d="M344.865 16.4649C347.043 16.4649 348.78 17.2126 350.076 18.7082C351.371 20.2037 352.019 22.4523 352.019 25.4539C352.019 27.4374 351.722 29.1026 351.127 30.4496C350.532 31.7967 349.693 32.8149 348.61 33.5043C347.537 34.1937 346.268 34.5385 344.802 34.5385C343.878 34.5385 343.065 34.4165 342.364 34.1725C341.663 33.9286 341.063 33.5998 340.564 33.1861C340.064 32.7725 339.65 32.3217 339.321 31.8338H339.13C339.162 32.2474 339.199 32.7459 339.241 33.3293C339.294 33.9127 339.321 34.4218 339.321 34.8566V42.0161H336.66V16.7831H338.843L339.193 19.3605H339.321C339.661 18.8301 340.075 18.3475 340.564 17.9127C341.052 17.4672 341.647 17.1172 342.348 16.8626C343.06 16.5975 343.899 16.4649 344.865 16.4649ZM344.403 18.6923C343.193 18.6923 342.215 18.9256 341.472 19.3923C340.739 19.859 340.202 20.559 339.863 21.4924C339.523 22.4152 339.342 23.5766 339.321 24.9766V25.4858C339.321 26.9601 339.48 28.2063 339.799 29.2246C340.128 30.2428 340.665 31.0171 341.408 31.5474C342.162 32.0777 343.171 32.3429 344.435 32.3429C345.519 32.3429 346.422 32.0512 347.144 31.4679C347.866 30.8845 348.403 30.0731 348.753 29.0336C349.114 27.9836 349.295 26.7798 349.295 25.4221C349.295 23.3644 348.891 21.731 348.084 20.5219C347.287 19.3021 346.06 18.6923 344.403 18.6923Z" fill="#333333"/>
<path d="M362.846 16.4967C364.928 16.4967 366.473 16.9634 367.482 17.8968C368.491 18.8301 368.996 20.3204 368.996 22.3674V34.2203H367.068L366.558 31.6429H366.431C365.942 32.2793 365.432 32.8149 364.901 33.2498C364.37 33.674 363.754 33.9975 363.053 34.2203C362.363 34.4324 361.513 34.5385 360.504 34.5385C359.442 34.5385 358.496 34.3528 357.668 33.9816C356.85 33.6104 356.202 33.0482 355.724 32.2952C355.257 31.5421 355.023 30.5875 355.023 29.4314C355.023 27.6919 355.713 26.3555 357.094 25.4221C358.475 24.4887 360.578 23.9796 363.404 23.8948L366.415 23.7675V22.7015C366.415 21.1954 366.091 20.1401 365.443 19.5355C364.795 18.9309 363.882 18.6286 362.703 18.6286C361.789 18.6286 360.918 18.7612 360.09 19.0264C359.261 19.2915 358.475 19.6044 357.732 19.965L356.919 17.9604C357.705 17.5574 358.608 17.2126 359.628 16.9263C360.647 16.6399 361.72 16.4967 362.846 16.4967ZM366.383 25.6289L363.722 25.7403C361.545 25.8252 360.01 26.1805 359.118 26.8063C358.225 27.4321 357.779 28.3177 357.779 29.4632C357.779 30.4602 358.082 31.1974 358.687 31.6747C359.293 32.152 360.095 32.3906 361.093 32.3906C362.644 32.3906 363.913 31.9611 364.901 31.1019C365.889 30.2428 366.383 28.9541 366.383 27.2358V25.6289Z" fill="#333333"/>
<path d="M381.113 34.5385C379.541 34.5385 378.155 34.215 376.955 33.568C375.754 32.921 374.82 31.9345 374.151 30.6087C373.481 29.2829 373.147 27.6124 373.147 25.5971C373.147 23.4864 373.497 21.7629 374.198 20.4264C374.91 19.0794 375.887 18.0824 377.13 17.4354C378.373 16.7884 379.785 16.4649 381.368 16.4649C382.239 16.4649 383.078 16.555 383.885 16.7354C384.703 16.9051 385.373 17.1225 385.893 17.3877L385.096 19.5991C384.565 19.387 383.949 19.1961 383.248 19.0264C382.558 18.8567 381.91 18.7718 381.304 18.7718C380.093 18.7718 379.084 19.0317 378.277 19.5514C377.481 20.0711 376.88 20.8348 376.477 21.8424C376.084 22.85 375.887 24.091 375.887 25.5653C375.887 26.976 376.078 28.1798 376.461 29.1768C376.854 30.1739 377.433 30.9375 378.197 31.4679C378.973 31.9876 379.939 32.2474 381.097 32.2474C382.021 32.2474 382.855 32.152 383.599 31.9611C384.342 31.7595 385.017 31.5262 385.622 31.261V33.6157C385.038 33.9127 384.385 34.1407 383.662 34.2998C382.951 34.4589 382.101 34.5385 381.113 34.5385Z" fill="#333333"/>
<path d="M396.162 16.4649C397.649 16.4649 398.924 16.7937 399.986 17.4513C401.048 18.1089 401.861 19.0317 402.424 20.2196C402.987 21.3969 403.268 22.7758 403.268 24.3562V25.9949H391.207C391.239 28.0419 391.749 29.6011 392.736 30.6724C393.724 31.7436 395.116 32.2793 396.911 32.2793C398.016 32.2793 398.993 32.1785 399.842 31.977C400.692 31.7754 401.574 31.4785 402.487 31.086V33.4089C401.606 33.8013 400.729 34.0877 399.858 34.268C398.998 34.4483 397.978 34.5385 396.799 34.5385C395.121 34.5385 393.655 34.199 392.402 33.5202C391.159 32.8308 390.193 31.8232 389.502 30.4974C388.812 29.1715 388.466 27.5487 388.466 25.6289C388.466 23.7516 388.78 22.1288 389.407 20.7605C390.044 19.3817 390.936 18.321 392.083 17.5786C393.241 16.8361 394.601 16.4649 396.162 16.4649ZM396.13 18.6286C394.717 18.6286 393.592 19.09 392.752 20.0128C391.913 20.9355 391.414 22.2242 391.255 23.8789H400.496C400.485 22.8394 400.32 21.9273 400.002 21.1424C399.694 20.3469 399.221 19.7317 398.584 19.2968C397.946 18.8514 397.129 18.6286 396.13 18.6286Z" fill="#333333"/>
</svg>
