<svg width="16" height="16" viewBox="0 0 16 16" fill="none" xmlns="http://www.w3.org/2000/svg">
<g clip-path="url(#clip0_17158:39454)">
<path fill-rule="evenodd" clip-rule="evenodd" d="M4 2C4 0.895429 4.89543 -9.70792e-07 6 -8.74228e-07L14 -1.74846e-07C15.1046 -7.82811e-08 16 0.895431 16 2L16 10C16 11.1046 15.1046 12 14 12L14 10L14 2L6 2L4 2ZM8.74228e-07 6C9.70792e-07 4.89543 0.895432 4 2 4L10 4C11.1046 4 12 4.89543 12 6L12 14C12 15.1046 11.1046 16 10 16L2 16C0.895431 16 7.82811e-08 15.1046 1.74846e-07 14L8.74228e-07 6ZM2 6L2 14L10 14L10 6L2 6ZM5 13L5 11L3 11L3 9L5 9L5 7L7 7L7 9L9 9L9 11L7 11L7 13L5 13Z" fill="#333333"/>
</g>
<defs>
<clipPath id="clip0_17158:39454">
<rect width="16" height="16" fill="white"/>
</clipPath>
</defs>
</svg>
