<svg width="100" height="100" viewBox="0 0 100 100" fill="none" xmlns="http://www.w3.org/2000/svg">
<g clip-path="url(#clip0_30683_91712)">
<path d="M45.7409 10.5474L45.7407 10.5477C43.465 15.7063 41.1866 20.8648 38.9089 26.0216C37.6855 28.7915 36.4623 31.5609 35.2399 34.3296L7.97008 37.2135L7.96997 37.2135C6.92002 37.3248 5.98756 37.4128 5.17425 37.4897C4.13627 37.5877 3.29237 37.6674 2.64605 37.7536C2.07103 37.8304 1.59672 37.9184 1.25542 38.0479C0.939527 38.1679 0.526178 38.4081 0.501083 38.9048C0.490273 39.1187 0.561445 39.311 0.645712 39.4665C0.731249 39.6243 0.850481 39.7811 0.98628 39.9358C1.2572 40.2445 1.6502 40.6074 2.1355 41.0324C2.45193 41.3095 2.81152 41.6165 3.21388 41.96C4.06714 42.6885 5.11274 43.5812 6.34701 44.7015C9.6763 47.7257 13.0072 50.7482 16.338 53.7706C19.5981 56.7289 22.8581 59.6871 26.1165 62.6468C24.2028 71.7088 22.289 80.7711 20.3818 89.84C20.0864 91.2428 19.8132 92.389 19.5876 93.3357C19.4603 93.8701 19.3481 94.341 19.2556 94.7585C19.1311 95.3203 19.0415 95.7904 19.0148 96.1559C19.0014 96.339 19.0018 96.5199 19.0313 96.6851C19.0608 96.8496 19.1266 97.0395 19.2782 97.1921C19.6082 97.5242 20.0633 97.4358 20.3492 97.3447C20.6753 97.2408 21.0774 97.0376 21.5475 96.7735C22.014 96.5113 22.5979 96.1594 23.3002 95.7361C24.0037 95.3121 24.826 94.8164 25.7684 94.2676L25.7685 94.2675C29.8499 91.8888 33.933 89.5118 38.0162 87.1348C42.0154 84.8065 46.0148 82.4782 50.0126 80.1484C54.0103 82.475 58.0095 84.8032 62.0088 87.1314L62.1344 87.2046C66.1757 89.5573 70.217 91.91 74.2567 94.261C75.4226 94.9402 76.3657 95.5243 77.1444 96.0065C77.5749 96.2732 77.9552 96.5088 78.2951 96.712C78.7585 96.9891 79.1526 97.2094 79.4729 97.3427C79.6333 97.4095 79.7973 97.464 79.9569 97.4874C80.1155 97.5107 80.311 97.5092 80.4995 97.4165C80.9119 97.2139 80.9695 96.7646 80.9736 96.4808C80.9782 96.1555 80.9158 95.7335 80.8195 95.2349C80.7215 94.7278 80.5759 94.084 80.4002 93.307C80.2319 92.5628 80.036 91.6966 79.8279 90.7113L73.9083 62.6469C77.0612 59.7836 80.214 56.9218 83.3669 54.06L83.3964 54.0332C86.6102 51.1162 89.824 48.1991 93.0378 45.2803C94.5131 43.9413 95.7723 42.8964 96.7742 42.0651C97.0228 41.8588 97.2556 41.6657 97.4719 41.4845C98.0116 41.0323 98.4594 40.6454 98.7872 40.3156C99.0949 40.006 99.3767 39.6717 99.4679 39.3224C99.52 39.1225 99.5143 38.9023 99.4078 38.6927C99.3076 38.4953 99.1445 38.36 98.9823 38.2646C98.6711 38.0816 98.2178 37.9628 97.6803 37.8647C96.7949 37.703 95.4868 37.5671 93.7319 37.3848C93.3168 37.3417 92.8767 37.296 92.4112 37.2467L64.7848 34.3229C61.9399 27.8948 59.0991 21.4583 56.259 15.0235C55.5809 13.487 54.9028 11.9506 54.2247 10.4145C53.6616 9.13886 53.1918 8.02428 52.791 7.06847C52.7458 6.9605 52.7014 6.85446 52.6577 6.75036C52.3164 5.93561 52.0251 5.24024 51.7706 4.67182C51.4863 4.03701 51.2337 3.52739 50.9923 3.17439C50.8714 2.99765 50.7362 2.83422 50.58 2.71309C50.4187 2.58807 50.2106 2.49025 49.964 2.50076C49.7212 2.51111 49.5228 2.62315 49.3716 2.75266C49.2225 2.88032 49.0913 3.04809 48.9719 3.23106C48.7334 3.59652 48.4819 4.11751 48.1973 4.76446C47.9642 5.29444 47.6999 5.93027 47.3944 6.66499C47.3239 6.83459 47.2512 7.00946 47.1762 7.18951C46.7751 8.15239 46.3046 9.27135 45.7409 10.5474Z" fill="url(#paint0_linear_30683_91712)" stroke="#333333"/>
<path fill-rule="evenodd" clip-rule="evenodd" d="M48.0169 27.238C45.8458 32.1618 43.6681 37.0789 41.497 42.0028C35.8548 42.6016 30.2192 43.2004 24.577 43.7926C18.6379 44.4181 19.2912 43.8059 23.7588 47.8581C27.8436 51.5709 31.935 55.2837 36.0264 58.9966C34.8386 64.619 33.6507 70.2415 32.4695 75.864C31.3345 81.2269 30.6218 80.994 35.3203 78.2527C40.3356 75.3317 45.3443 72.4173 50.3596 69.4963C55.3748 72.4173 60.3835 75.3317 65.3988 78.2527C69.8334 80.8344 69.4242 81.4265 68.3684 76.4029C67.1475 70.6008 65.9201 64.7987 64.6993 58.9966C68.6587 55.4035 72.6182 51.8105 76.571 48.2174C81.1178 44.0921 82.3782 44.4514 76.3598 43.8192C70.6451 43.2137 64.9369 42.6083 59.2221 42.0028C57.0312 37.0523 54.8469 32.1019 52.6626 27.1581C49.891 20.8703 50.7951 20.9435 48.0169 27.238Z" fill="#FEFEFE"/>
</g>
<defs>
<linearGradient id="paint0_linear_30683_91712" x1="1.42599" y1="3.60378" x2="58.8493" y2="66.3335" gradientUnits="userSpaceOnUse">
<stop stop-color="#FFC671"/>
<stop offset="1" stop-color="#FF6F3D"/>
</linearGradient>
<clipPath id="clip0_30683_91712">
<rect width="100" height="100" fill="white"/>
</clipPath>
</defs>
</svg>
