<svg width="100" height="100" viewBox="0 0 100 100" fill="none" xmlns="http://www.w3.org/2000/svg">
<g clip-path="url(#clip0_4082_577778)">
<path fill-rule="evenodd" clip-rule="evenodd" d="M16.9936 18.3721V6.47262C16.9936 3.46457 14.5217 1 11.4968 1C8.47198 1 6 3.45825 6 6.47262V34H17V18.3721H16.9936Z" fill="#ADADAD"/>
<path fill-rule="evenodd" clip-rule="evenodd" d="M84 6.31387C84 3.43699 81.5671 1 78.695 1H34.1996H10.5C13.6356 1 15.698 3.56676 15.698 6.71417V19.1389V86.6333C15.698 89.5102 18.131 92 21.0031 92H78.695C81.5671 92 84 89.563 84 86.6861V6.31387Z" fill="#333333"/>
<path fill-rule="evenodd" clip-rule="evenodd" d="M84 6.31387C84 3.43699 81.5671 1 78.695 1H34.1996H10.5C13.6356 1 15.698 3.56676 15.698 6.71417V19.1389V86.6333C15.698 89.5102 18.131 92 21.0031 92H78.695C81.5671 92 84 89.563 84 86.6861V6.31387Z" fill="white" fill-opacity="0.88"/>
<path d="M84.5 49.4215V6.34307C84.5 3.45038 82.0424 1 79.1412 1H34.1943H10.5C13.6674 1 15.7559 3.58086 15.7559 6.74557V19.3668V87.1569C15.7559 90.0496 17.9626 92.5 20.8639 92.5H56.7011" stroke="#333333" stroke-linecap="round" stroke-linejoin="round"/>
<path fill-rule="evenodd" clip-rule="evenodd" d="M27.1667 51C27.1667 50.7239 27.3906 50.5 27.6667 50.5H65.6667C65.9429 50.5 66.1667 50.7239 66.1667 51C66.1667 51.2761 65.9429 51.5 65.6667 51.5H27.6667C27.3906 51.5 27.1667 51.2761 27.1667 51ZM27.1667 77.6667C27.1667 77.3905 27.3906 77.1667 27.6667 77.1667H49.6667C49.9429 77.1667 50.1667 77.3905 50.1667 77.6667C50.1667 77.9428 49.9429 78.1667 49.6667 78.1667H27.6667C27.3906 78.1667 27.1667 77.9428 27.1667 77.6667ZM27.6667 57.1667C27.3906 57.1667 27.1667 57.3905 27.1667 57.6667C27.1667 57.9428 27.3906 58.1667 27.6667 58.1667H48.3334C48.6096 58.1667 48.8334 57.9428 48.8334 57.6667C48.8334 57.3905 48.6096 57.1667 48.3334 57.1667H27.6667ZM27.1667 71C27.1667 70.7239 27.3906 70.5 27.6667 70.5H48.3334C48.6096 70.5 48.8334 70.7239 48.8334 71C48.8334 71.2761 48.6096 71.5 48.3334 71.5H27.6667C27.3906 71.5 27.1667 71.2761 27.1667 71ZM27.6667 63.8333C27.3906 63.8333 27.1667 64.0572 27.1667 64.3333C27.1667 64.6095 27.3906 64.8333 27.6667 64.8333H47.0001C47.2762 64.8333 47.5001 64.6095 47.5001 64.3333C47.5001 64.0572 47.2762 63.8333 47.0001 63.8333H27.6667Z" fill="#333333"/>
<path fill-rule="evenodd" clip-rule="evenodd" d="M75.7018 63.2317H68.278C67.3773 63.2317 67.4502 62.2251 68.1985 62.2251H75.7217C76.5628 62.2251 76.576 63.2317 75.7018 63.2317Z" fill="#333333"/>
<path d="M10.7059 1C7.85328 1 6 3.31603 6 6.50656V34.5H11" stroke="#333333" stroke-linecap="round"/>
<path fill-rule="evenodd" clip-rule="evenodd" d="M76.3331 98.6665C72.4185 91.1134 55.9998 94.1095 55.9998 57.9907C57.6727 58.209 70.3686 58.5794 76.3331 52.6665C82.2975 58.5794 94.9935 58.209 96.6664 57.9907C96.6664 94.1095 80.2477 91.1134 76.3331 98.6665Z" fill="#E07751"/>
<path d="M75.8894 98.8966L76.3333 99.7531L76.7773 98.8966C77.6863 97.1425 79.3312 95.9771 81.4326 94.624C81.6174 94.505 81.8053 94.3848 81.996 94.2628C83.9483 93.0138 86.1901 91.5795 88.3259 89.3899C93.0438 84.5528 97.1667 76.1244 97.1667 57.9907V57.4213L96.602 57.4949C95.8169 57.5974 92.2717 57.7465 88.1835 57.1333C84.0831 56.5183 79.5512 55.1525 76.6853 52.3114L76.3333 51.9624L75.9813 52.3114C73.1155 55.1525 68.5835 56.5183 64.4832 57.1333C60.3949 57.7465 56.8497 57.5974 56.0647 57.4949L55.5 57.4213V57.9907C55.5 76.1244 59.6228 84.5528 64.3408 89.3899C66.4766 91.5795 68.7183 93.0138 70.6706 94.2628C70.8613 94.3848 71.0493 94.505 71.2341 94.624C73.3355 95.9771 74.9803 97.1425 75.8894 98.8966Z" stroke="#333333"/>
<path fill-rule="evenodd" clip-rule="evenodd" d="M74.0421 73.3577L74.0288 77.5166L73.9957 90.3974L76.797 88.6689L78.1414 86.1325L77.0222 85.2517L78.1414 84.3245V82.5828L76.7109 81.4835L78.1414 80.2716V73.3643C80.7176 72.51 82.5719 70.0795 82.5719 67.212C82.5719 63.6358 79.6712 60.7285 76.0884 60.7285C72.6845 60.7285 69.8898 63.3577 69.6249 66.6954C69.6116 66.8676 69.605 67.0398 69.605 67.212C69.6116 70.0663 71.4659 72.4967 74.0421 73.3577ZM78.4725 64.7285C78.4725 66.0464 77.4063 67.1126 76.0884 67.1126C74.7705 67.1126 73.7043 66.0464 73.7043 64.7285C73.7043 63.4106 74.7705 62.3444 76.0884 62.3444C77.4063 62.3444 78.4725 63.4106 78.4725 64.7285Z" fill="#333333"/>
<path fill-rule="evenodd" clip-rule="evenodd" d="M74.0421 73.3577L74.0288 77.5166L73.9957 90.3974L76.797 88.6689L78.1414 86.1325L77.0222 85.2517L78.1414 84.3245V82.5828L76.7109 81.4835L78.1414 80.2716V73.3643C80.7176 72.51 82.5719 70.0795 82.5719 67.212C82.5719 63.6358 79.6712 60.7285 76.0884 60.7285C72.6845 60.7285 69.8898 63.3577 69.6249 66.6954C69.6116 66.8676 69.605 67.0398 69.605 67.212C69.6116 70.0663 71.4659 72.4967 74.0421 73.3577ZM78.4725 64.7285C78.4725 66.0464 77.4063 67.1126 76.0884 67.1126C74.7705 67.1126 73.7043 66.0464 73.7043 64.7285C73.7043 63.4106 74.7705 62.3444 76.0884 62.3444C77.4063 62.3444 78.4725 63.4106 78.4725 64.7285Z" fill="white" fill-opacity="0.88"/>
<path fill-rule="evenodd" clip-rule="evenodd" d="M27.0002 13.3335C27.9228 13.3335 28.6668 14.0775 28.6668 15.0002C28.6668 15.9228 27.9228 16.6668 27.0002 16.6668C26.0775 16.6668 25.3335 15.9228 25.3335 15.0002C25.3335 14.0835 26.0775 13.3335 27.0002 13.3335ZM33.0002 13.3335C33.9228 13.3335 34.6668 14.0775 34.6668 15.0002C34.6668 15.9228 33.9228 16.6668 33.0002 16.6668C32.0775 16.6668 31.3335 15.9228 31.3335 15.0002C31.3335 14.0835 32.0775 13.3335 33.0002 13.3335ZM40.6668 15.0002C40.6668 14.0775 39.9228 13.3335 39.0002 13.3335C38.0835 13.3335 37.3335 14.0835 37.3335 15.0002C37.3335 15.9228 38.0775 16.6668 39.0002 16.6668C39.9228 16.6668 40.6668 15.9228 40.6668 15.0002ZM45.0002 13.3335C45.9228 13.3335 46.6668 14.0775 46.6668 15.0002C46.6668 15.9228 45.9228 16.6668 45.0002 16.6668C44.0775 16.6668 43.3335 15.9228 43.3335 15.0002C43.3394 14.0835 44.0835 13.3335 45.0002 13.3335ZM52.6668 15.0002C52.6668 14.0775 51.9228 13.3335 51.0002 13.3335C50.0775 13.3335 49.3335 14.0835 49.3335 15.0002C49.3335 15.9228 50.0775 16.6668 51.0002 16.6668C51.9228 16.6668 52.6668 15.9228 52.6668 15.0002ZM57.0002 13.3335C57.9228 13.3335 58.6668 14.0775 58.6668 15.0002C58.6668 15.9228 57.9228 16.6668 57.0002 16.6668C56.0775 16.6668 55.3335 15.9228 55.3335 15.0002C55.3335 14.0835 56.0835 13.3335 57.0002 13.3335ZM64.6668 15.0002C64.6668 14.0775 63.9228 13.3335 63.0002 13.3335C62.0835 13.3335 61.3394 14.0835 61.3335 15.0002C61.3335 15.9228 62.0775 16.6668 63.0002 16.6668C63.9228 16.6668 64.6668 15.9228 64.6668 15.0002ZM69.0002 13.3335C69.9228 13.3335 70.6668 14.0775 70.6668 15.0002C70.6668 15.9228 69.9228 16.6668 69.0002 16.6668C68.0775 16.6668 67.3335 15.9228 67.3335 15.0002C67.3335 14.0835 68.0775 13.3335 69.0002 13.3335ZM76.6668 15.0002C76.6668 14.0775 75.9228 13.3335 75.0002 13.3335C74.0775 13.3335 73.3335 14.0835 73.3335 15.0002C73.3335 15.9228 74.0775 16.6668 75.0002 16.6668C75.9228 16.6668 76.6668 15.9228 76.6668 15.0002Z" fill="#E07751"/>
<path fill-rule="evenodd" clip-rule="evenodd" d="M28.6668 25.3335C29.4009 25.3335 30.0002 25.9327 30.0002 26.6668C30.0002 27.4009 29.4009 28.0002 28.6668 28.0002C27.9327 28.0002 27.3335 27.4009 27.3335 26.6668C27.3335 25.9253 27.9253 25.3335 28.6668 25.3335ZM33.3335 25.3335C34.0676 25.3335 34.6668 25.9327 34.6668 26.6668C34.6668 27.4009 34.0676 28.0002 33.3335 28.0002C32.5994 28.0002 32.0002 27.4009 32.0002 26.6668C32.0002 25.9253 32.5994 25.3335 33.3335 25.3335ZM39.3335 26.6668C39.3335 25.9327 38.7342 25.3335 38.0002 25.3335C37.2661 25.3335 36.6668 25.9253 36.6668 26.6668C36.6668 27.4009 37.2661 28.0002 38.0002 28.0002C38.7342 28.0002 39.3335 27.4009 39.3335 26.6668ZM42.6668 25.3335C43.4009 25.3335 44.0002 25.9327 44.0002 26.6668C44.0002 27.4009 43.4009 28.0002 42.6668 28.0002C41.9328 28.0002 41.3335 27.4009 41.3335 26.6668C41.3335 25.9253 41.9328 25.3335 42.6668 25.3335ZM48.6668 26.6668C48.6668 25.9327 48.0676 25.3335 47.3335 25.3335C46.5919 25.3335 46.0002 25.9253 46.0002 26.6668C46.0002 27.4009 46.5994 28.0002 47.3335 28.0002C48.0676 28.0002 48.6668 27.4009 48.6668 26.6668ZM52.0002 25.3335C52.7343 25.3335 53.3335 25.9327 53.3335 26.6668C53.3335 27.4009 52.7343 28.0002 52.0002 28.0002C51.2661 28.0002 50.6669 27.4009 50.6669 26.6668C50.6594 25.9253 51.2586 25.3335 52.0002 25.3335ZM58.0002 26.6668C58.0002 25.9327 57.4009 25.3335 56.6668 25.3335C55.9327 25.3335 55.3335 25.9253 55.3335 26.6668C55.3335 27.4009 55.9327 28.0002 56.6668 28.0002C57.4009 28.0002 58.0002 27.4009 58.0002 26.6668ZM61.3335 25.3335C62.0676 25.3335 62.6668 25.9327 62.6668 26.6668C62.6668 27.4009 62.0676 28.0002 61.3335 28.0002C60.5994 28.0002 60.0002 27.4009 60.0002 26.6668C60.0002 25.9253 60.5994 25.3335 61.3335 25.3335ZM67.3335 26.6668C67.3335 25.9327 66.7342 25.3335 66.0002 25.3335C65.2661 25.3335 64.6668 25.9253 64.6668 26.6668C64.6668 27.4009 65.2661 28.0002 66.0002 28.0002C66.7342 28.0002 67.3335 27.4009 67.3335 26.6668ZM70.6668 25.3335C71.4009 25.3335 72.0002 25.9327 72.0002 26.6668C72.0002 27.4009 71.4009 28.0002 70.6668 28.0002C69.9328 28.0002 69.3335 27.4009 69.3335 26.6668C69.3335 25.9253 69.9328 25.3335 70.6668 25.3335ZM76.6668 26.6668C76.6668 25.9327 76.0676 25.3335 75.3335 25.3335C74.5994 25.3335 74.0002 25.9253 74.0002 26.6668C74.0002 27.4009 74.5994 28.0002 75.3335 28.0002C76.0676 28.0002 76.6668 27.4009 76.6668 26.6668Z" fill="#333333"/>
<path fill-rule="evenodd" clip-rule="evenodd" d="M32.6667 33.3333C32.6667 32.5992 32.0674 32 31.3333 32C30.5918 32 30 32.5918 30 33.3333C30 34.0674 30.5993 34.6667 31.3333 34.6667C32.0674 34.6667 32.6667 34.0674 32.6667 33.3333ZM37.3333 33.3333C37.3333 32.5992 36.7341 32 36 32C35.2659 32 34.6667 32.5918 34.6667 33.3333C34.6667 34.0674 35.2659 34.6667 36 34.6667C36.7341 34.6667 37.3333 34.0674 37.3333 33.3333ZM40.6667 32C41.4007 32 42 32.5992 42 33.3333C42 34.0674 41.4007 34.6667 40.6667 34.6667C39.9326 34.6667 39.3333 34.0674 39.3333 33.3333C39.3333 32.5918 39.9326 32 40.6667 32ZM46.6667 33.3333C46.6667 32.5992 46.0674 32 45.3333 32C44.5993 32 44 32.5918 44 33.3333C44 34.0674 44.5993 34.6667 45.3333 34.6667C46.0674 34.6667 46.6667 34.0674 46.6667 33.3333ZM50 32C50.7341 32 51.3333 32.5992 51.3333 33.3333C51.3333 34.0674 50.7341 34.6667 50 34.6667C49.2659 34.6667 48.6667 34.0674 48.6667 33.3333C48.6667 32.5918 49.2584 32 50 32ZM56 33.3333C56 32.5992 55.4008 32 54.6667 32C53.9251 32 53.3259 32.5918 53.3334 33.3333C53.3334 34.0674 53.9326 34.6667 54.6667 34.6667C55.4008 34.6667 56 34.0674 56 33.3333ZM59.3333 32C60.0674 32 60.6667 32.5992 60.6667 33.3333C60.6667 34.0674 60.0674 34.6667 59.3333 34.6667C58.5992 34.6667 58 34.0674 58 33.3333C58 32.5918 58.5992 32 59.3333 32ZM65.3333 33.3333C65.3333 32.5992 64.7341 32 64 32C63.2659 32 62.6667 32.5918 62.6667 33.3333C62.6667 34.0674 63.2659 34.6667 64 34.6667C64.7341 34.6667 65.3333 34.0674 65.3333 33.3333ZM68.6667 32C69.4007 32 70 32.5992 70 33.3333C70 34.0674 69.4007 34.6667 68.6667 34.6667C67.9326 34.6667 67.3333 34.0674 67.3333 33.3333C67.3333 32.5918 67.9326 32 68.6667 32ZM74.6667 33.3333C74.6667 32.5992 74.0674 32 73.3333 32C72.5993 32 72 32.5918 72 33.3333C72 34.0674 72.5993 34.6667 73.3333 34.6667C74.0674 34.6667 74.6667 34.0674 74.6667 33.3333Z" fill="#333333"/>
<path fill-rule="evenodd" clip-rule="evenodd" d="M28.6668 38.6665C29.4009 38.6665 30.0002 39.2658 30.0002 39.9998C30.0002 40.7339 29.4009 41.3332 28.6668 41.3332C27.9327 41.3332 27.3335 40.7339 27.3335 39.9998C27.3335 39.2583 27.9253 38.6665 28.6668 38.6665ZM33.3335 38.6665C34.0676 38.6665 34.6668 39.2658 34.6668 39.9998C34.6668 40.7339 34.0676 41.3332 33.3335 41.3332C32.5994 41.3332 32.0002 40.7339 32.0002 39.9998C32.0002 39.2583 32.5994 38.6665 33.3335 38.6665ZM39.3335 39.9998C39.3335 39.2658 38.7342 38.6665 38.0002 38.6665C37.2661 38.6665 36.6668 39.2583 36.6668 39.9998C36.6668 40.7339 37.2661 41.3332 38.0002 41.3332C38.7342 41.3332 39.3335 40.7339 39.3335 39.9998ZM42.6668 38.6665C43.4009 38.6665 44.0002 39.2658 44.0002 39.9998C44.0002 40.7339 43.4009 41.3332 42.6668 41.3332C41.9328 41.3332 41.3335 40.7339 41.3335 39.9998C41.3335 39.2583 41.9328 38.6665 42.6668 38.6665ZM48.6668 39.9998C48.6668 39.2658 48.0676 38.6665 47.3335 38.6665C46.5919 38.6665 46.0002 39.2583 46.0002 39.9998C46.0002 40.7339 46.5994 41.3332 47.3335 41.3332C48.0676 41.3332 48.6668 40.7339 48.6668 39.9998ZM52.0002 38.6665C52.7343 38.6665 53.3335 39.2658 53.3335 39.9998C53.3335 40.7339 52.7343 41.3332 52.0002 41.3332C51.2661 41.3332 50.6669 40.7339 50.6669 39.9998C50.6594 39.2583 51.2586 38.6665 52.0002 38.6665ZM58.0002 39.9998C58.0002 39.2658 57.4009 38.6665 56.6668 38.6665C55.9327 38.6665 55.3335 39.2583 55.3335 39.9998C55.3335 40.7339 55.9327 41.3332 56.6668 41.3332C57.4009 41.3332 58.0002 40.7339 58.0002 39.9998ZM61.3335 38.6665C62.0676 38.6665 62.6668 39.2658 62.6668 39.9998C62.6668 40.7339 62.0676 41.3332 61.3335 41.3332C60.5994 41.3332 60.0002 40.7339 60.0002 39.9998C60.0002 39.2583 60.5994 38.6665 61.3335 38.6665ZM67.3335 39.9998C67.3335 39.2658 66.7342 38.6665 66.0002 38.6665C65.2661 38.6665 64.6668 39.2583 64.6668 39.9998C64.6668 40.7339 65.2661 41.3332 66.0002 41.3332C66.7342 41.3332 67.3335 40.7339 67.3335 39.9998ZM70.6668 38.6665C71.4009 38.6665 72.0002 39.2658 72.0002 39.9998C72.0002 40.7339 71.4009 41.3332 70.6668 41.3332C69.9328 41.3332 69.3335 40.7339 69.3335 39.9998C69.3335 39.2583 69.9328 38.6665 70.6668 38.6665ZM76.6668 39.9998C76.6668 39.2658 76.0676 38.6665 75.3335 38.6665C74.5994 38.6665 74.0002 39.2583 74.0002 39.9998C74.0002 40.7339 74.5994 41.3332 75.3335 41.3332C76.0676 41.3332 76.6668 40.7339 76.6668 39.9998Z" fill="#333333"/>
</g>
<defs>
<clipPath id="clip0_4082_577778">
<rect width="100" height="100" fill="white"/>
</clipPath>
</defs>
</svg>
