<svg width="100" height="100" viewBox="0 0 100 100" fill="none" xmlns="http://www.w3.org/2000/svg">
<path d="M68 0.5H68.5V1V79V79.5H68H4H3.5V79V13.5528V13.3452L3.64706 13.1987L16.2433 0.645837L16.3896 0.5H16.5962H68Z" fill="#333333"/>
<path d="M68 0.5H68.5V1V79V79.5H68H4H3.5V79V13.5528V13.3452L3.64706 13.1987L16.2433 0.645837L16.3896 0.5H16.5962H68Z" fill="white" fill-opacity="0.88"/>
<path d="M68 0.5H68.5V1V79V79.5H68H4H3.5V79V13.5528V13.3452L3.64706 13.1987L16.2433 0.645837L16.3896 0.5H16.5962H68Z" stroke="#333333"/>
<path d="M15.6464 0.646447C15.7894 0.503448 16.0045 0.46067 16.1913 0.53806C16.3782 0.615451 16.5 0.797769 16.5 1V13C16.5 13.2761 16.2761 13.5 16 13.5H4C3.79777 13.5 3.61545 13.3782 3.53806 13.1913C3.46067 13.0045 3.50345 12.7894 3.64645 12.6464L15.6464 0.646447Z" fill="#ADADAD" stroke="#333333" stroke-linejoin="round"/>
<path d="M77 7.5H77.5V8V86V86.5H77H13H12.5V86V20.5528V20.3452L12.6471 20.1987L25.2433 7.64584L25.3896 7.5H25.5962H77Z" fill="#333333"/>
<path d="M77 7.5H77.5V8V86V86.5H77H13H12.5V86V20.5528V20.3452L12.6471 20.1987L25.2433 7.64584L25.3896 7.5H25.5962H77Z" fill="white" fill-opacity="0.88"/>
<path d="M77 7.5H77.5V8V86V86.5H77H13H12.5V86V20.5528V20.3452L12.6471 20.1987L25.2433 7.64584L25.3896 7.5H25.5962H77Z" stroke="#333333"/>
<path d="M24.6464 7.64645C24.7894 7.50345 25.0045 7.46067 25.1913 7.53806C25.3782 7.61545 25.5 7.79777 25.5 8V20C25.5 20.2761 25.2761 20.5 25 20.5H13C12.7978 20.5 12.6155 20.3782 12.5381 20.1913C12.4607 20.0045 12.5034 19.7894 12.6464 19.6464L24.6464 7.64645Z" fill="#ADADAD" stroke="#333333" stroke-linejoin="round"/>
<path fill-rule="evenodd" clip-rule="evenodd" d="M85 15H34.3994L22 27.286V92H85V15Z" fill="#333333"/>
<path fill-rule="evenodd" clip-rule="evenodd" d="M85 15H34.3994L22 27.286V92H85V15Z" fill="white" fill-opacity="0.88"/>
<path d="M85.5 45.9913V14.5H34.0962L21.5 26.9456V92.5H50.5" stroke="#333333" stroke-linecap="round"/>
<path d="M33.6464 14.6464C33.7894 14.5034 34.0045 14.4607 34.1913 14.5381C34.3782 14.6155 34.5 14.7978 34.5 15V27C34.5 27.2761 34.2761 27.5 34 27.5H22C21.7978 27.5 21.6154 27.3782 21.5381 27.1913C21.4607 27.0045 21.5034 26.7894 21.6464 26.6464L33.6464 14.6464Z" fill="#E07751" stroke="#333333" stroke-linejoin="round"/>
<path fill-rule="evenodd" clip-rule="evenodd" d="M75.5 32.9982C75.7761 32.9982 76 33.222 76 33.4982C76 33.7743 75.7761 33.9982 75.5 33.9982H42.5C42.2238 33.9982 42 33.7743 42 33.4982C42 33.222 42.2238 32.9982 42.5 32.9982H75.5ZM47.4914 68.9982C47.7675 68.9982 47.9914 69.222 47.9914 69.4982C47.9914 69.7743 47.7675 69.9982 47.4914 69.9982H32.2739C31.9978 69.9982 31.7739 69.7743 31.7739 69.4982C31.7739 69.222 31.9978 68.9982 32.2739 68.9982H47.4914ZM56.7706 55.4982C56.7706 55.222 56.5468 54.9982 56.2706 54.9982H32.2739C31.9978 54.9982 31.7739 55.222 31.7739 55.4982C31.7739 55.7743 31.9978 55.9982 32.2739 55.9982H56.2706C56.5468 55.9982 56.7706 55.7743 56.7706 55.4982ZM75.5 39.9982C75.7761 39.9982 76 40.222 76 40.4982C76 40.7743 75.7761 40.9982 75.5 40.9982H32.2739C31.9978 40.9982 31.7739 40.7743 31.7739 40.4982C31.7739 40.222 31.9978 39.9982 32.2739 39.9982H75.5ZM50.3325 62.4982C50.3325 62.222 50.1087 61.9982 49.8325 61.9982H32.2739C31.9978 61.9982 31.7739 62.222 31.7739 62.4982C31.7739 62.7743 31.9978 62.9982 32.2739 62.9982H49.8325C50.1087 62.9982 50.3325 62.7743 50.3325 62.4982ZM46.9061 75.9982C47.1822 75.9982 47.4061 76.222 47.4061 76.4982C47.4061 76.7743 47.1822 76.9982 46.9061 76.9982H32.2739C31.9978 76.9982 31.7739 76.7743 31.7739 76.4982C31.7739 76.222 31.9978 75.9982 32.2739 75.9982H46.9061ZM75.5 47C75.7761 47 76 47.2239 76 47.5C76 47.7761 75.7761 48 75.5 48H58.5267C58.2506 48 58.0267 47.7761 58.0267 47.5C58.0267 47.2239 58.2506 47 58.5267 47H75.5ZM53.8442 47C54.1204 47 54.3442 47.2239 54.3442 47.5C54.3442 47.7761 54.1204 48 53.8442 48H32.7739C32.4978 48 32.2739 47.7761 32.2739 47.5C32.2739 47.2239 32.4978 47 32.7739 47H53.8442ZM75.2075 70.1947C75.4836 70.1947 75.7075 70.4185 75.7075 70.6947C75.7075 70.9708 75.4836 71.1947 75.2075 71.1947H58.2342C57.9581 71.1947 57.7342 70.9708 57.7342 70.6947C57.7342 70.4185 57.9581 70.1947 58.2342 70.1947H75.2075Z" fill="#333333"/>
<path d="M73 25.9999H51" stroke="#E07751" stroke-width="2" stroke-linecap="round"/>
<path d="M76 99.5C88.9401 99.5 99.5 88.9472 99.5 76C99.5 63.0529 88.9471 52.5 76 52.5C63.0529 52.5 52.5 63.0529 52.5 76C52.5 88.9471 63.0529 99.5 76 99.5Z" fill="#ADADAD" stroke="#333333"/>
<path d="M69.175 76.7831L69.1771 76.7808L69.2813 76.6659C69.3326 76.6099 69.4055 76.518 69.4409 76.3761C69.4645 76.2814 69.4644 76.1837 69.4643 76.131C69.4643 76.1282 69.4643 76.1256 69.4643 76.1232V75.731V73.3198V72.5393L68.7553 72.8656C68.2133 73.1151 67.7192 73.1212 66.9999 73.1212C66.3021 73.1212 65.7222 73.071 65.233 72.8605L64.5354 72.5604V73.3198V75.7456V76.1232C64.5354 76.1269 64.5354 76.1312 64.5354 76.1361C64.5351 76.1818 64.5346 76.2727 64.5514 76.355C64.5811 76.5006 64.6517 76.5987 64.7131 76.6659L64.8174 76.7808L64.8174 76.7808L64.8195 76.7831C65.0564 77.0412 65.3072 77.2805 65.5484 77.5107C65.5613 77.523 65.5741 77.5353 65.587 77.5476C65.8437 77.7927 66.0913 78.031 66.3296 78.2945L66.3304 78.2954C66.3951 78.3666 66.4836 78.4585 66.5912 78.5272C66.696 78.594 66.8357 78.6491 66.9999 78.6415C67.1641 78.6491 67.3037 78.594 67.4086 78.5272C67.5162 78.4585 67.6047 78.3666 67.6693 78.2954L67.2993 77.9592L67.6688 78.296C67.9084 78.033 68.1559 77.7938 68.4115 77.5479C68.4209 77.5388 68.4304 77.5296 68.44 77.5205C68.6833 77.2864 68.9356 77.0438 69.175 76.7831Z" fill="#333333"/>
<path d="M69.175 76.7831L69.1771 76.7808L69.2813 76.6659C69.3326 76.6099 69.4055 76.518 69.4409 76.3761C69.4645 76.2814 69.4644 76.1837 69.4643 76.131C69.4643 76.1282 69.4643 76.1256 69.4643 76.1232V75.731V73.3198V72.5393L68.7553 72.8656C68.2133 73.1151 67.7192 73.1212 66.9999 73.1212C66.3021 73.1212 65.7222 73.071 65.233 72.8605L64.5354 72.5604V73.3198V75.7456V76.1232C64.5354 76.1269 64.5354 76.1312 64.5354 76.1361C64.5351 76.1818 64.5346 76.2727 64.5514 76.355C64.5811 76.5006 64.6517 76.5987 64.7131 76.6659L64.8174 76.7808L64.8174 76.7808L64.8195 76.7831C65.0564 77.0412 65.3072 77.2805 65.5484 77.5107C65.5613 77.523 65.5741 77.5353 65.587 77.5476C65.8437 77.7927 66.0913 78.031 66.3296 78.2945L66.3304 78.2954C66.3951 78.3666 66.4836 78.4585 66.5912 78.5272C66.696 78.594 66.8357 78.6491 66.9999 78.6415C67.1641 78.6491 67.3037 78.594 67.4086 78.5272C67.5162 78.4585 67.6047 78.3666 67.6693 78.2954L67.2993 77.9592L67.6688 78.296C67.9084 78.033 68.1559 77.7938 68.4115 77.5479C68.4209 77.5388 68.4304 77.5296 68.44 77.5205C68.6833 77.2864 68.9356 77.0438 69.175 76.7831Z" fill="white" fill-opacity="0.88"/>
<path d="M69.175 76.7831L69.1771 76.7808L69.2813 76.6659C69.3326 76.6099 69.4055 76.518 69.4409 76.3761C69.4645 76.2814 69.4644 76.1837 69.4643 76.131C69.4643 76.1282 69.4643 76.1256 69.4643 76.1232V75.731V73.3198V72.5393L68.7553 72.8656C68.2133 73.1151 67.7192 73.1212 66.9999 73.1212C66.3021 73.1212 65.7222 73.071 65.233 72.8605L64.5354 72.5604V73.3198V75.7456V76.1232C64.5354 76.1269 64.5354 76.1312 64.5354 76.1361C64.5351 76.1818 64.5346 76.2727 64.5514 76.355C64.5811 76.5006 64.6517 76.5987 64.7131 76.6659L64.8174 76.7808L64.8174 76.7808L64.8195 76.7831C65.0564 77.0412 65.3072 77.2805 65.5484 77.5107C65.5613 77.523 65.5741 77.5353 65.587 77.5476C65.8437 77.7927 66.0913 78.031 66.3296 78.2945L66.3304 78.2954C66.3951 78.3666 66.4836 78.4585 66.5912 78.5272C66.696 78.594 66.8357 78.6491 66.9999 78.6415C67.1641 78.6491 67.3037 78.594 67.4086 78.5272C67.5162 78.4585 67.6047 78.3666 67.6693 78.2954L67.2993 77.9592L67.6688 78.296C67.9084 78.033 68.1559 77.7938 68.4115 77.5479C68.4209 77.5388 68.4304 77.5296 68.44 77.5205C68.6833 77.2864 68.9356 77.0438 69.175 76.7831Z" stroke="#333333"/>
<ellipse cx="66.9924" cy="68.2973" rx="5.39495" ry="5.29728" fill="#333333"/>
<ellipse cx="66.9924" cy="68.2973" rx="5.39495" ry="5.29728" fill="white" fill-opacity="0.88"/>
<ellipse cx="66.9924" cy="68.2973" rx="5.39495" ry="5.29728" stroke="#333333"/>
<path fill-rule="evenodd" clip-rule="evenodd" d="M67.2639 65.3095C68.2833 66.9933 70.6862 68.9415 72.361 68.7093C72.3809 68.5416 72.3875 68.3738 72.3875 68.1996C72.3875 65.3289 69.9978 63 67.052 63C64.1063 63 61.7166 65.3289 61.7166 68.1996C61.7166 68.3996 61.7298 68.5932 61.7496 68.7867C63.3582 68.7674 65.9929 67.7158 67.2639 65.3095Z" fill="#ADADAD" stroke="#333333"/>
<path d="M70.0265 75.7157L69.7797 75.6913L69.6109 75.8731L67.3974 78.2585C67.2005 78.4706 66.8652 78.4718 66.6668 78.261L64.4172 75.8706L64.2519 75.695L64.0116 75.715C62.0667 75.8768 59.9229 76.3683 58.2688 77.3574L57.7813 77.649L58.1323 78.0955C60.2445 80.7826 63.4471 82.5 67.0432 82.5C70.6172 82.5 73.8047 80.7982 75.9167 78.1424L76.2771 77.6892L75.7762 77.3987C74.6567 76.7494 72.6868 75.9782 70.0265 75.7157Z" fill="#ADADAD" stroke="#333333"/>
<path d="M87.1496 76.7831L87.1517 76.7808L87.2559 76.6659C87.3072 76.6099 87.3801 76.518 87.4155 76.3761C87.4391 76.2814 87.439 76.1837 87.4389 76.131C87.4389 76.1282 87.4389 76.1256 87.4389 76.1232V75.731V73.3198V72.5393L86.7299 72.8656C86.1879 73.1151 85.6938 73.1212 84.9745 73.1212C84.2767 73.1212 83.6968 73.071 83.2076 72.8605L82.51 72.5604V73.3198V75.7456V76.1232C82.51 76.1269 82.51 76.1312 82.51 76.1361C82.5097 76.1818 82.5092 76.2727 82.526 76.355C82.5557 76.5006 82.6263 76.5987 82.6878 76.6659L82.792 76.7808L82.792 76.7808L82.7941 76.7831C83.0311 77.0412 83.2819 77.2805 83.523 77.5107C83.5359 77.523 83.5487 77.5353 83.5616 77.5476C83.8183 77.7927 84.0659 78.031 84.3042 78.2945L84.305 78.2954C84.3697 78.3666 84.4582 78.4585 84.5658 78.5272C84.6706 78.594 84.8103 78.6491 84.9745 78.6415C85.1387 78.6491 85.2783 78.594 85.3832 78.5272C85.4908 78.4585 85.5793 78.3666 85.644 78.2954L85.2739 77.9592L85.6435 78.296C85.883 78.033 86.1305 77.7938 86.3861 77.5479C86.3956 77.5388 86.4051 77.5296 86.4146 77.5205C86.6579 77.2864 86.9102 77.0438 87.1496 76.7831Z" fill="#333333"/>
<path d="M87.1496 76.7831L87.1517 76.7808L87.2559 76.6659C87.3072 76.6099 87.3801 76.518 87.4155 76.3761C87.4391 76.2814 87.439 76.1837 87.4389 76.131C87.4389 76.1282 87.4389 76.1256 87.4389 76.1232V75.731V73.3198V72.5393L86.7299 72.8656C86.1879 73.1151 85.6938 73.1212 84.9745 73.1212C84.2767 73.1212 83.6968 73.071 83.2076 72.8605L82.51 72.5604V73.3198V75.7456V76.1232C82.51 76.1269 82.51 76.1312 82.51 76.1361C82.5097 76.1818 82.5092 76.2727 82.526 76.355C82.5557 76.5006 82.6263 76.5987 82.6878 76.6659L82.792 76.7808L82.792 76.7808L82.7941 76.7831C83.0311 77.0412 83.2819 77.2805 83.523 77.5107C83.5359 77.523 83.5487 77.5353 83.5616 77.5476C83.8183 77.7927 84.0659 78.031 84.3042 78.2945L84.305 78.2954C84.3697 78.3666 84.4582 78.4585 84.5658 78.5272C84.6706 78.594 84.8103 78.6491 84.9745 78.6415C85.1387 78.6491 85.2783 78.594 85.3832 78.5272C85.4908 78.4585 85.5793 78.3666 85.644 78.2954L85.2739 77.9592L85.6435 78.296C85.883 78.033 86.1305 77.7938 86.3861 77.5479C86.3956 77.5388 86.4051 77.5296 86.4146 77.5205C86.6579 77.2864 86.9102 77.0438 87.1496 76.7831Z" fill="white" fill-opacity="0.88"/>
<path d="M87.1496 76.7831L87.1517 76.7808L87.2559 76.6659C87.3072 76.6099 87.3801 76.518 87.4155 76.3761C87.4391 76.2814 87.439 76.1837 87.4389 76.131C87.4389 76.1282 87.4389 76.1256 87.4389 76.1232V75.731V73.3198V72.5393L86.7299 72.8656C86.1879 73.1151 85.6938 73.1212 84.9745 73.1212C84.2767 73.1212 83.6968 73.071 83.2076 72.8605L82.51 72.5604V73.3198V75.7456V76.1232C82.51 76.1269 82.51 76.1312 82.51 76.1361C82.5097 76.1818 82.5092 76.2727 82.526 76.355C82.5557 76.5006 82.6263 76.5987 82.6878 76.6659L82.792 76.7808L82.792 76.7808L82.7941 76.7831C83.0311 77.0412 83.2819 77.2805 83.523 77.5107C83.5359 77.523 83.5487 77.5353 83.5616 77.5476C83.8183 77.7927 84.0659 78.031 84.3042 78.2945L84.305 78.2954C84.3697 78.3666 84.4582 78.4585 84.5658 78.5272C84.6706 78.594 84.8103 78.6491 84.9745 78.6415C85.1387 78.6491 85.2783 78.594 85.3832 78.5272C85.4908 78.4585 85.5793 78.3666 85.644 78.2954L85.2739 77.9592L85.6435 78.296C85.883 78.033 86.1305 77.7938 86.3861 77.5479C86.3956 77.5388 86.4051 77.5296 86.4146 77.5205C86.6579 77.2864 86.9102 77.0438 87.1496 76.7831Z" stroke="#333333"/>
<ellipse cx="84.967" cy="68.2973" rx="5.39495" ry="5.29728" fill="#333333"/>
<ellipse cx="84.967" cy="68.2973" rx="5.39495" ry="5.29728" fill="white" fill-opacity="0.88"/>
<ellipse cx="84.967" cy="68.2973" rx="5.39495" ry="5.29728" stroke="#333333"/>
<path fill-rule="evenodd" clip-rule="evenodd" d="M85.2385 65.3095C86.2579 66.9933 88.6609 68.9415 90.3356 68.7093C90.3555 68.5416 90.3621 68.3738 90.3621 68.1996C90.3621 65.3289 87.9724 63 85.0266 63C82.0809 63 79.6912 65.3289 79.6912 68.1996C79.6912 68.3996 79.7044 68.5932 79.7243 68.7867C81.3328 68.7674 83.9675 67.7158 85.2385 65.3095Z" fill="#ADADAD" stroke="#333333"/>
<path d="M88.0011 75.7157L87.7543 75.6913L87.5855 75.8731L85.372 78.2585C85.1751 78.4706 84.8398 78.4718 84.6414 78.261L82.3918 75.8706L82.2265 75.695L81.9862 75.715C80.0413 75.8768 77.8975 76.3683 76.2434 77.3574L75.7559 77.649L76.1069 78.0955C78.2191 80.7826 81.4218 82.5 85.0178 82.5C88.5918 82.5 91.7793 80.7982 93.8913 78.1424L94.2518 77.6892L93.7509 77.3987C92.6314 76.7494 90.6614 75.9782 88.0011 75.7157Z" fill="#ADADAD" stroke="#333333"/>
<path d="M78.1496 86.2831L78.1517 86.2808L78.2559 86.1659C78.3072 86.1099 78.3801 86.018 78.4155 85.8761C78.4391 85.7814 78.439 85.6837 78.4389 85.631C78.4389 85.6282 78.4389 85.6256 78.4389 85.6232V85.231V82.8198V82.0393L77.7299 82.3656C77.1879 82.6151 76.6938 82.6212 75.9745 82.6212C75.2767 82.6212 74.6968 82.571 74.2076 82.3605L73.51 82.0604V82.8198V85.2456V85.6232C73.51 85.6269 73.51 85.6312 73.51 85.6361C73.5097 85.6818 73.5092 85.7727 73.526 85.855C73.5557 86.0006 73.6263 86.0987 73.6878 86.1659L73.792 86.2808L73.792 86.2808L73.7941 86.2831C74.0311 86.5412 74.2819 86.7805 74.523 87.0107C74.5359 87.023 74.5487 87.0353 74.5616 87.0476C74.8183 87.2927 75.0659 87.531 75.3042 87.7945L75.305 87.7954C75.3697 87.8666 75.4582 87.9585 75.5658 88.0272C75.6706 88.094 75.8103 88.1491 75.9745 88.1415C76.1387 88.1491 76.2783 88.094 76.3832 88.0272C76.4908 87.9585 76.5793 87.8666 76.644 87.7954L76.2739 87.4592L76.6435 87.796C76.883 87.533 77.1305 87.2938 77.3861 87.0479C77.3956 87.0388 77.4051 87.0296 77.4146 87.0205C77.6579 86.7864 77.9102 86.5438 78.1496 86.2831Z" fill="#333333"/>
<path d="M78.1496 86.2831L78.1517 86.2808L78.2559 86.1659C78.3072 86.1099 78.3801 86.018 78.4155 85.8761C78.4391 85.7814 78.439 85.6837 78.4389 85.631C78.4389 85.6282 78.4389 85.6256 78.4389 85.6232V85.231V82.8198V82.0393L77.7299 82.3656C77.1879 82.6151 76.6938 82.6212 75.9745 82.6212C75.2767 82.6212 74.6968 82.571 74.2076 82.3605L73.51 82.0604V82.8198V85.2456V85.6232C73.51 85.6269 73.51 85.6312 73.51 85.6361C73.5097 85.6818 73.5092 85.7727 73.526 85.855C73.5557 86.0006 73.6263 86.0987 73.6878 86.1659L73.792 86.2808L73.792 86.2808L73.7941 86.2831C74.0311 86.5412 74.2819 86.7805 74.523 87.0107C74.5359 87.023 74.5487 87.0353 74.5616 87.0476C74.8183 87.2927 75.0659 87.531 75.3042 87.7945L75.305 87.7954C75.3697 87.8666 75.4582 87.9585 75.5658 88.0272C75.6706 88.094 75.8103 88.1491 75.9745 88.1415C76.1387 88.1491 76.2783 88.094 76.3832 88.0272C76.4908 87.9585 76.5793 87.8666 76.644 87.7954L76.2739 87.4592L76.6435 87.796C76.883 87.533 77.1305 87.2938 77.3861 87.0479C77.3956 87.0388 77.4051 87.0296 77.4146 87.0205C77.6579 86.7864 77.9102 86.5438 78.1496 86.2831Z" fill="white" fill-opacity="0.88"/>
<path d="M78.1496 86.2831L78.1517 86.2808L78.2559 86.1659C78.3072 86.1099 78.3801 86.018 78.4155 85.8761C78.4391 85.7814 78.439 85.6837 78.4389 85.631C78.4389 85.6282 78.4389 85.6256 78.4389 85.6232V85.231V82.8198V82.0393L77.7299 82.3656C77.1879 82.6151 76.6938 82.6212 75.9745 82.6212C75.2767 82.6212 74.6968 82.571 74.2076 82.3605L73.51 82.0604V82.8198V85.2456V85.6232C73.51 85.6269 73.51 85.6312 73.51 85.6361C73.5097 85.6818 73.5092 85.7727 73.526 85.855C73.5557 86.0006 73.6263 86.0987 73.6878 86.1659L73.792 86.2808L73.792 86.2808L73.7941 86.2831C74.0311 86.5412 74.2819 86.7805 74.523 87.0107C74.5359 87.023 74.5487 87.0353 74.5616 87.0476C74.8183 87.2927 75.0659 87.531 75.3042 87.7945L75.305 87.7954C75.3697 87.8666 75.4582 87.9585 75.5658 88.0272C75.6706 88.094 75.8103 88.1491 75.9745 88.1415C76.1387 88.1491 76.2783 88.094 76.3832 88.0272C76.4908 87.9585 76.5793 87.8666 76.644 87.7954L76.2739 87.4592L76.6435 87.796C76.883 87.533 77.1305 87.2938 77.3861 87.0479C77.3956 87.0388 77.4051 87.0296 77.4146 87.0205C77.6579 86.7864 77.9102 86.5438 78.1496 86.2831Z" stroke="#333333"/>
<ellipse cx="75.967" cy="77.7973" rx="5.39495" ry="5.29728" fill="#333333"/>
<ellipse cx="75.967" cy="77.7973" rx="5.39495" ry="5.29728" fill="white" fill-opacity="0.88"/>
<ellipse cx="75.967" cy="77.7973" rx="5.39495" ry="5.29728" stroke="#333333"/>
<path fill-rule="evenodd" clip-rule="evenodd" d="M76.2385 74.8095C77.2579 76.4933 79.6609 78.4415 81.3356 78.2093C81.3555 78.0416 81.3621 77.8738 81.3621 77.6996C81.3621 74.8289 78.9724 72.5 76.0266 72.5C73.0809 72.5 70.6912 74.8289 70.6912 77.6996C70.6912 77.8996 70.7044 78.0932 70.7243 78.2867C72.3328 78.2674 74.9675 77.2158 76.2385 74.8095Z" fill="#ADADAD" stroke="#333333"/>
<path d="M79.0011 85.2157L78.7543 85.1913L78.5855 85.3731L76.372 87.7585C76.1751 87.9706 75.8398 87.9718 75.6414 87.761L73.3918 85.3706L73.2265 85.195L72.9862 85.215C71.0413 85.3768 68.8975 85.8683 67.2434 86.8574L66.7559 87.149L67.1069 87.5955C69.2191 90.2826 72.4218 92 76.0178 92C79.5918 92 82.7793 90.2982 84.8913 87.6424L85.2518 87.1892L84.7509 86.8987C83.6314 86.2494 81.6614 85.4782 79.0011 85.2157Z" fill="#E07751" stroke="#333333"/>
</svg>
