<svg width="100" height="100" viewBox="0 0 100 100" fill="none" xmlns="http://www.w3.org/2000/svg">
<path d="M16.668 55.166H17.168V54.666V30.666V30.166H16.668H10.668C8.70904 30.166 7.08251 31.0468 5.95291 32.2502C4.8314 33.445 4.16797 34.9917 4.16797 36.3812V54.666V55.166H4.66797H16.668Z" fill="#BDECFF" stroke="#333333"/>
<path d="M81.3359 30.166H80.8359V30.666V46.666V47.166H81.3359H93.3359H93.8359V46.666V35.8756C93.8359 32.3422 90.8952 30.166 88.0026 30.166H81.3359Z" fill="#BDECFF" stroke="#333333"/>
<path d="M74.668 2.16602H75.168V2.66602V55.9993V56.4993H74.668H10.668H10.168V55.9993V15.1116V14.9027L10.3166 14.7559L22.9128 2.31034L23.0588 2.16602H23.2642H74.668Z" fill="white" stroke="#333333"/>
<path d="M22.3144 2.31246C22.4574 2.16946 22.6725 2.12669 22.8593 2.20408C23.0461 2.28147 23.168 2.46378 23.168 2.66602V14.666C23.168 14.9422 22.9441 15.166 22.668 15.166H10.668C10.4657 15.166 10.2834 15.0442 10.206 14.8574C10.1286 14.6705 10.1714 14.4555 10.3144 14.3125L22.3144 2.31246Z" fill="url(#paint0_linear_22900_255027)" stroke="#333333" stroke-linejoin="round"/>
<path d="M87.3359 12.832H87.8359V13.332V66.6654V67.1654H87.3359H23.3359H22.8359V66.6654V25.7776V25.5687L22.9845 25.4219L35.5807 12.9764L35.7268 12.832H35.9322H87.3359Z" fill="white" stroke="#333333"/>
<path d="M34.9824 12.9785C35.1254 12.8355 35.3404 12.7927 35.5273 12.8701C35.7141 12.9475 35.8359 13.1298 35.8359 13.332V25.332C35.8359 25.6082 35.6121 25.832 35.3359 25.832H23.3359C23.1337 25.832 22.9514 25.7102 22.874 25.5234C22.7966 25.3365 22.8394 25.1215 22.9824 24.9785L34.9824 12.9785Z" fill="#BDECFF" stroke="#333333" stroke-linejoin="round"/>
<path fill-rule="evenodd" clip-rule="evenodd" d="M79.3359 33.166C79.6121 33.166 79.8359 33.3899 79.8359 33.666C79.8359 33.9422 79.6121 34.166 79.3359 34.166H41.3359C41.0598 34.166 40.8359 33.9422 40.8359 33.666C40.8359 33.3899 41.0598 33.166 41.3359 33.166H79.3359ZM78.0026 48.8327H79.0026C79.2788 48.8327 79.5026 48.6088 79.5026 48.3327C79.5026 48.0565 79.2788 47.8327 79.0026 47.8327H78.0026H59.6693H30.6693C30.3931 47.8327 30.1693 48.0565 30.1693 48.3327C30.1693 48.6088 30.3931 48.8327 30.6693 48.8327H59.6693H78.0026ZM79.8359 40.9993C79.8359 40.7232 79.6121 40.4993 79.3359 40.4993H30.6693C30.3931 40.4993 30.1693 40.7232 30.1693 40.9993C30.1693 41.2755 30.3931 41.4993 30.6693 41.4993H79.3359C79.6121 41.4993 79.8359 41.2755 79.8359 40.9993Z" fill="#333333"/>
<path d="M68.3359 24.332H46.3359" stroke="url(#paint1_linear_22900_255027)" stroke-width="2" stroke-linecap="round"/>
<path fill-rule="evenodd" clip-rule="evenodd" d="M46.889 47.7391L40.8256 54.5228H5.76494C2.86851 54.5228 0.378523 57.1271 0.695217 59.2445L6.34072 93.6567C6.66401 95.7742 8.92376 98 11.8202 98H89.363C92.2594 98 93.8473 96.1149 94.0122 93.9908L99.3019 49.1927C99.5658 47.8586 98.2198 46 95.8512 46H51.0126C49.4357 46 48.0172 46.5974 46.889 47.7391Z" fill="url(#paint2_linear_22900_255027)" stroke="#333333"/>
<path fill-rule="evenodd" clip-rule="evenodd" d="M42.668 58.666V64.0634C42.668 64.7822 42.3767 65.4329 41.9058 65.9038C41.4348 66.3748 40.7842 66.666 40.0653 66.666H34.668V65.8295H40.0653C40.5487 65.8295 40.9948 65.6312 41.3109 65.3089C41.6331 64.9867 41.8314 64.5467 41.8314 64.0634V58.666H42.668Z" fill="white"/>
<path fill-rule="evenodd" clip-rule="evenodd" d="M65.1468 60.6223V60.5214C65.1468 60.0865 64.9586 59.6831 64.6575 59.3868C64.3501 59.0842 63.9235 58.8825 63.4719 58.851H42.2807L34.872 66.3018L36.6473 88.6543C36.6912 89.1775 36.9045 89.6503 37.237 89.9844C37.5444 90.2932 37.9647 90.4887 38.4415 90.4887H61.5334C62.0102 90.4887 62.4368 90.2932 62.7504 89.9781C63.0829 89.644 63.2962 89.1775 63.3276 88.6606L65.1468 60.6223ZM66 60.5214L64.1745 88.711C64.1243 89.436 63.8232 90.0978 63.3527 90.5769C62.8884 91.0434 62.2548 91.3333 61.5397 91.3333H38.4415C37.7263 91.3333 37.1053 91.0434 36.641 90.5832C36.1706 90.1104 35.8632 89.4423 35.8067 88.7237L34 65.9803L41.9357 58H63.3589L63.5283 58.0063C64.187 58.0504 64.8018 58.3404 65.2535 58.7816C65.7051 59.2355 66 59.8406 66 60.5214Z" fill="white"/>
<defs>
<linearGradient id="paint0_linear_22900_255027" x1="25.2533" y1="2.02382" x2="18.4782" y2="12.9805" gradientUnits="userSpaceOnUse">
<stop stop-color="#FFC671"/>
<stop offset="1" stop-color="#FF6F3D"/>
</linearGradient>
<linearGradient id="paint1_linear_22900_255027" x1="68.3359" y1="24.293" x2="68.2485" y2="26.2906" gradientUnits="userSpaceOnUse">
<stop stop-color="#FF8E3D"/>
<stop offset="1" stop-color="#FF6F3D"/>
</linearGradient>
<linearGradient id="paint2_linear_22900_255027" x1="25.41" y1="28.8275" x2="61.3318" y2="83.9258" gradientUnits="userSpaceOnUse">
<stop stop-color="#FFC671"/>
<stop offset="1" stop-color="#FF6F3D"/>
</linearGradient>
</defs>
</svg>
