<svg width="100" height="100" viewBox="0 0 100 100" fill="none" xmlns="http://www.w3.org/2000/svg">
<g clip-path="url(#clip0_4077_765444)">
<path fill-rule="evenodd" clip-rule="evenodd" d="M16.6607 18.565V6.30496C16.6607 3.20576 14.2636 0.666504 11.3304 0.666504C8.39726 0.666504 6.00018 3.19925 6.00018 6.30496V34.6665H16.6669V18.565H16.6607Z" fill="#E0E0E0"/>
<path fill-rule="evenodd" clip-rule="evenodd" d="M84.6668 5.99984C84.6668 3.11242 82.2209 0.666504 79.3335 0.666504H34.6004H10.2716C13.4239 0.666504 16.0001 3.24266 16.0001 6.4016V18.8718V86.6135C16.0001 89.5009 18.446 91.9998 21.3335 91.9998H79.3335C82.2209 91.9998 84.6668 89.5539 84.6668 86.6665V5.99984Z" fill="#FEFEFE"/>
<path d="M85.0002 49.3333V6.33333C85.0002 3.44592 82.5453 1 79.6474 1H34.7511H10.5841C13.7479 1 16.3335 3.57616 16.3335 6.7351V19.3333V87C16.3335 89.8874 18.5378 92.3333 21.4357 92.3333H57.2326" stroke="#333333" stroke-linecap="round" stroke-linejoin="round"/>
<path fill-rule="evenodd" clip-rule="evenodd" d="M27.1668 51C27.1668 50.7239 27.3907 50.5 27.6668 50.5H65.6668C65.943 50.5 66.1668 50.7239 66.1668 51C66.1668 51.2761 65.943 51.5 65.6668 51.5H27.6668C27.3907 51.5 27.1668 51.2761 27.1668 51ZM27.1668 77.6667C27.1668 77.3905 27.3907 77.1667 27.6668 77.1667H49.6668C49.943 77.1667 50.1668 77.3905 50.1668 77.6667C50.1668 77.9428 49.943 78.1667 49.6668 78.1667H27.6668C27.3907 78.1667 27.1668 77.9428 27.1668 77.6667ZM27.6668 57.1667C27.3907 57.1667 27.1668 57.3905 27.1668 57.6667C27.1668 57.9428 27.3907 58.1667 27.6668 58.1667H48.3335C48.6096 58.1667 48.8335 57.9428 48.8335 57.6667C48.8335 57.3905 48.6096 57.1667 48.3335 57.1667H27.6668ZM27.1668 71C27.1668 70.7239 27.3907 70.5 27.6668 70.5H48.3335C48.6096 70.5 48.8335 70.7239 48.8335 71C48.8335 71.2761 48.6096 71.5 48.3335 71.5H27.6668C27.3907 71.5 27.1668 71.2761 27.1668 71ZM27.6668 63.8333C27.3907 63.8333 27.1668 64.0572 27.1668 64.3333C27.1668 64.6095 27.3907 64.8333 27.6668 64.8333H47.0002C47.2763 64.8333 47.5002 64.6095 47.5002 64.3333C47.5002 64.0572 47.2763 63.8333 47.0002 63.8333H27.6668Z" fill="#333333"/>
<path fill-rule="evenodd" clip-rule="evenodd" d="M75.702 63.2317H68.2782C67.3775 63.2317 67.4504 62.2251 68.1987 62.2251H75.7219C76.5629 62.2251 76.5762 63.2317 75.702 63.2317Z" fill="#333333"/>
<path d="M11.0002 1C7.76722 1 5.66684 3.3045 5.66684 6.47917V34.3333H11.3335" stroke="#333333" stroke-linecap="round"/>
<path fill-rule="evenodd" clip-rule="evenodd" d="M76.3332 98.6665C72.4186 91.1134 55.9998 94.1095 55.9998 57.9907C57.6728 58.209 70.3687 58.5794 76.3332 52.6665C82.2976 58.5794 94.9936 58.209 96.6665 57.9907C96.6665 94.1095 80.2478 91.1134 76.3332 98.6665Z" fill="url(#paint0_linear_4077_765444)"/>
<path d="M75.8896 98.8966L76.3335 99.7531L76.7774 98.8966C77.6865 97.1425 79.3314 95.9771 81.4328 94.624C81.6176 94.505 81.8055 94.3848 81.9962 94.2628C83.9485 93.0138 86.1903 91.5795 88.3261 89.3899C93.044 84.5528 97.1669 76.1244 97.1669 57.9907V57.4213L96.6022 57.4949C95.8171 57.5974 92.2719 57.7465 88.1837 57.1333C84.0833 56.5183 79.5514 55.1525 76.6855 52.3114L76.3335 51.9624L75.9815 52.3114C73.1157 55.1525 68.5837 56.5183 64.4834 57.1333C60.3951 57.7465 56.8499 57.5974 56.0649 57.4949L55.5002 57.4213V57.9907C55.5002 76.1244 59.623 84.5528 64.341 89.3899C66.4767 91.5795 68.7185 93.0138 70.6708 94.2628C70.8615 94.3848 71.0495 94.505 71.2343 94.624C73.3357 95.9771 74.9805 97.1425 75.8896 98.8966Z" stroke="#333333"/>
<path fill-rule="evenodd" clip-rule="evenodd" d="M74.0421 73.3577L74.0288 77.5166L73.9957 90.3974L76.797 88.6689L78.1414 86.1325L77.0222 85.2517L78.1414 84.3245V82.5828L76.7109 81.4835L78.1414 80.2716V73.3643C80.7176 72.51 82.5719 70.0795 82.5719 67.212C82.5719 63.6358 79.6712 60.7285 76.0884 60.7285C72.6845 60.7285 69.8898 63.3577 69.6249 66.6954C69.6116 66.8676 69.605 67.0398 69.605 67.212C69.6116 70.0663 71.4659 72.4967 74.0421 73.3577ZM78.4725 64.7285C78.4725 66.0464 77.4063 67.1126 76.0884 67.1126C74.7705 67.1126 73.7043 66.0464 73.7043 64.7285C73.7043 63.4106 74.7705 62.3444 76.0884 62.3444C77.4063 62.3444 78.4725 63.4106 78.4725 64.7285Z" fill="white"/>
<path fill-rule="evenodd" clip-rule="evenodd" d="M27.0003 13.333C27.923 13.333 28.667 14.0771 28.667 14.9997C28.667 15.9223 27.923 16.6663 27.0003 16.6663C26.0777 16.6663 25.3337 15.9223 25.3337 14.9997C25.3337 14.083 26.0777 13.333 27.0003 13.333ZM33.0003 13.333C33.923 13.333 34.667 14.0771 34.667 14.9997C34.667 15.9223 33.923 16.6663 33.0003 16.6663C32.0777 16.6663 31.3337 15.9223 31.3337 14.9997C31.3337 14.083 32.0777 13.333 33.0003 13.333ZM40.667 14.9997C40.667 14.0771 39.923 13.333 39.0003 13.333C38.0837 13.333 37.3337 14.083 37.3337 14.9997C37.3337 15.9223 38.0777 16.6663 39.0003 16.6663C39.923 16.6663 40.667 15.9223 40.667 14.9997ZM45.0003 13.333C45.923 13.333 46.667 14.0771 46.667 14.9997C46.667 15.9223 45.923 16.6663 45.0003 16.6663C44.0777 16.6663 43.3337 15.9223 43.3337 14.9997C43.3396 14.083 44.0837 13.333 45.0003 13.333ZM52.667 14.9997C52.667 14.0771 51.923 13.333 51.0003 13.333C50.0777 13.333 49.3337 14.083 49.3337 14.9997C49.3337 15.9223 50.0777 16.6663 51.0003 16.6663C51.923 16.6663 52.667 15.9223 52.667 14.9997ZM57.0003 13.333C57.923 13.333 58.667 14.0771 58.667 14.9997C58.667 15.9223 57.923 16.6663 57.0003 16.6663C56.0777 16.6663 55.3337 15.9223 55.3337 14.9997C55.3337 14.083 56.0837 13.333 57.0003 13.333ZM64.667 14.9997C64.667 14.0771 63.923 13.333 63.0003 13.333C62.0837 13.333 61.3396 14.083 61.3337 14.9997C61.3337 15.9223 62.0777 16.6663 63.0003 16.6663C63.923 16.6663 64.667 15.9223 64.667 14.9997ZM69.0003 13.333C69.923 13.333 70.667 14.0771 70.667 14.9997C70.667 15.9223 69.923 16.6663 69.0003 16.6663C68.0777 16.6663 67.3337 15.9223 67.3337 14.9997C67.3337 14.083 68.0777 13.333 69.0003 13.333ZM76.667 14.9997C76.667 14.0771 75.923 13.333 75.0003 13.333C74.0777 13.333 73.3337 14.083 73.3337 14.9997C73.3337 15.9223 74.0777 16.6663 75.0003 16.6663C75.923 16.6663 76.667 15.9223 76.667 14.9997Z" fill="url(#paint1_linear_4077_765444)"/>
<path fill-rule="evenodd" clip-rule="evenodd" d="M28.6668 25.333C29.4009 25.333 30.0002 25.9323 30.0002 26.6663C30.0002 27.4004 29.4009 27.9997 28.6668 27.9997C27.9327 27.9997 27.3335 27.4004 27.3335 26.6663C27.3335 25.9248 27.9253 25.333 28.6668 25.333ZM33.3335 25.333C34.0676 25.333 34.6668 25.9323 34.6668 26.6663C34.6668 27.4004 34.0676 27.9997 33.3335 27.9997C32.5994 27.9997 32.0002 27.4004 32.0002 26.6663C32.0002 25.9248 32.5994 25.333 33.3335 25.333ZM39.3335 26.6663C39.3335 25.9323 38.7342 25.333 38.0002 25.333C37.2661 25.333 36.6668 25.9248 36.6668 26.6663C36.6668 27.4004 37.2661 27.9997 38.0002 27.9997C38.7342 27.9997 39.3335 27.4004 39.3335 26.6663ZM42.6668 25.333C43.4009 25.333 44.0002 25.9323 44.0002 26.6663C44.0002 27.4004 43.4009 27.9997 42.6668 27.9997C41.9328 27.9997 41.3335 27.4004 41.3335 26.6663C41.3335 25.9248 41.9328 25.333 42.6668 25.333ZM48.6668 26.6663C48.6668 25.9323 48.0676 25.333 47.3335 25.333C46.5919 25.333 46.0002 25.9248 46.0002 26.6663C46.0002 27.4004 46.5994 27.9997 47.3335 27.9997C48.0676 27.9997 48.6668 27.4004 48.6668 26.6663ZM52.0002 25.333C52.7343 25.333 53.3335 25.9323 53.3335 26.6663C53.3335 27.4004 52.7343 27.9997 52.0002 27.9997C51.2661 27.9997 50.6669 27.4004 50.6669 26.6663C50.6594 25.9248 51.2586 25.333 52.0002 25.333ZM58.0002 26.6663C58.0002 25.9323 57.4009 25.333 56.6668 25.333C55.9327 25.333 55.3335 25.9248 55.3335 26.6663C55.3335 27.4004 55.9327 27.9997 56.6668 27.9997C57.4009 27.9997 58.0002 27.4004 58.0002 26.6663ZM61.3335 25.333C62.0676 25.333 62.6668 25.9323 62.6668 26.6663C62.6668 27.4004 62.0676 27.9997 61.3335 27.9997C60.5994 27.9997 60.0002 27.4004 60.0002 26.6663C60.0002 25.9248 60.5994 25.333 61.3335 25.333ZM67.3335 26.6663C67.3335 25.9323 66.7342 25.333 66.0002 25.333C65.2661 25.333 64.6668 25.9248 64.6668 26.6663C64.6668 27.4004 65.2661 27.9997 66.0002 27.9997C66.7342 27.9997 67.3335 27.4004 67.3335 26.6663ZM70.6668 25.333C71.4009 25.333 72.0002 25.9323 72.0002 26.6663C72.0002 27.4004 71.4009 27.9997 70.6668 27.9997C69.9328 27.9997 69.3335 27.4004 69.3335 26.6663C69.3335 25.9248 69.9328 25.333 70.6668 25.333ZM76.6668 26.6663C76.6668 25.9323 76.0676 25.333 75.3335 25.333C74.5994 25.333 74.0002 25.9248 74.0002 26.6663C74.0002 27.4004 74.5994 27.9997 75.3335 27.9997C76.0676 27.9997 76.6668 27.4004 76.6668 26.6663Z" fill="#333333"/>
<path fill-rule="evenodd" clip-rule="evenodd" d="M32.6668 33.3333C32.6668 32.5992 32.0676 32 31.3335 32C30.5919 32 30.0002 32.5918 30.0002 33.3333C30.0002 34.0674 30.5994 34.6667 31.3335 34.6667C32.0676 34.6667 32.6668 34.0674 32.6668 33.3333ZM37.3335 33.3333C37.3335 32.5992 36.7343 32 36.0002 32C35.2661 32 34.6669 32.5918 34.6669 33.3333C34.6669 34.0674 35.2661 34.6667 36.0002 34.6667C36.7343 34.6667 37.3335 34.0674 37.3335 33.3333ZM40.6668 32C41.4009 32 42.0002 32.5992 42.0002 33.3333C42.0002 34.0674 41.4009 34.6667 40.6668 34.6667C39.9328 34.6667 39.3335 34.0674 39.3335 33.3333C39.3335 32.5918 39.9328 32 40.6668 32ZM46.6668 33.3333C46.6668 32.5992 46.0676 32 45.3335 32C44.5994 32 44.0002 32.5918 44.0002 33.3333C44.0002 34.0674 44.5994 34.6667 45.3335 34.6667C46.0676 34.6667 46.6668 34.0674 46.6668 33.3333ZM50.0002 32C50.7343 32 51.3335 32.5992 51.3335 33.3333C51.3335 34.0674 50.7343 34.6667 50.0002 34.6667C49.2661 34.6667 48.6669 34.0674 48.6669 33.3333C48.6669 32.5918 49.2586 32 50.0002 32ZM56.0002 33.3333C56.0002 32.5992 55.4009 32 54.6669 32C53.9253 32 53.3261 32.5918 53.3336 33.3333C53.3336 34.0674 53.9328 34.6667 54.6669 34.6667C55.4009 34.6667 56.0002 34.0674 56.0002 33.3333ZM59.3335 32C60.0676 32 60.6668 32.5992 60.6668 33.3333C60.6668 34.0674 60.0676 34.6667 59.3335 34.6667C58.5994 34.6667 58.0002 34.0674 58.0002 33.3333C58.0002 32.5918 58.5994 32 59.3335 32ZM65.3335 33.3333C65.3335 32.5992 64.7343 32 64.0002 32C63.2661 32 62.6669 32.5918 62.6669 33.3333C62.6669 34.0674 63.2661 34.6667 64.0002 34.6667C64.7343 34.6667 65.3335 34.0674 65.3335 33.3333ZM68.6668 32C69.4009 32 70.0002 32.5992 70.0002 33.3333C70.0002 34.0674 69.4009 34.6667 68.6668 34.6667C67.9328 34.6667 67.3335 34.0674 67.3335 33.3333C67.3335 32.5918 67.9328 32 68.6668 32ZM74.6669 33.3333C74.6669 32.5992 74.0676 32 73.3335 32C72.5994 32 72.0002 32.5918 72.0002 33.3333C72.0002 34.0674 72.5994 34.6667 73.3335 34.6667C74.0676 34.6667 74.6669 34.0674 74.6669 33.3333Z" fill="#333333"/>
<path fill-rule="evenodd" clip-rule="evenodd" d="M28.6668 38.6665C29.4009 38.6665 30.0002 39.2658 30.0002 39.9998C30.0002 40.7339 29.4009 41.3332 28.6668 41.3332C27.9327 41.3332 27.3335 40.7339 27.3335 39.9998C27.3335 39.2583 27.9253 38.6665 28.6668 38.6665ZM33.3335 38.6665C34.0676 38.6665 34.6668 39.2658 34.6668 39.9998C34.6668 40.7339 34.0676 41.3332 33.3335 41.3332C32.5994 41.3332 32.0002 40.7339 32.0002 39.9998C32.0002 39.2583 32.5994 38.6665 33.3335 38.6665ZM39.3335 39.9998C39.3335 39.2658 38.7342 38.6665 38.0002 38.6665C37.2661 38.6665 36.6668 39.2583 36.6668 39.9998C36.6668 40.7339 37.2661 41.3332 38.0002 41.3332C38.7342 41.3332 39.3335 40.7339 39.3335 39.9998ZM42.6668 38.6665C43.4009 38.6665 44.0002 39.2658 44.0002 39.9998C44.0002 40.7339 43.4009 41.3332 42.6668 41.3332C41.9328 41.3332 41.3335 40.7339 41.3335 39.9998C41.3335 39.2583 41.9328 38.6665 42.6668 38.6665ZM48.6668 39.9998C48.6668 39.2658 48.0676 38.6665 47.3335 38.6665C46.5919 38.6665 46.0002 39.2583 46.0002 39.9998C46.0002 40.7339 46.5994 41.3332 47.3335 41.3332C48.0676 41.3332 48.6668 40.7339 48.6668 39.9998ZM52.0002 38.6665C52.7343 38.6665 53.3335 39.2658 53.3335 39.9998C53.3335 40.7339 52.7343 41.3332 52.0002 41.3332C51.2661 41.3332 50.6669 40.7339 50.6669 39.9998C50.6594 39.2583 51.2586 38.6665 52.0002 38.6665ZM58.0002 39.9998C58.0002 39.2658 57.4009 38.6665 56.6668 38.6665C55.9327 38.6665 55.3335 39.2583 55.3335 39.9998C55.3335 40.7339 55.9327 41.3332 56.6668 41.3332C57.4009 41.3332 58.0002 40.7339 58.0002 39.9998ZM61.3335 38.6665C62.0676 38.6665 62.6668 39.2658 62.6668 39.9998C62.6668 40.7339 62.0676 41.3332 61.3335 41.3332C60.5994 41.3332 60.0002 40.7339 60.0002 39.9998C60.0002 39.2583 60.5994 38.6665 61.3335 38.6665ZM67.3335 39.9998C67.3335 39.2658 66.7342 38.6665 66.0002 38.6665C65.2661 38.6665 64.6668 39.2583 64.6668 39.9998C64.6668 40.7339 65.2661 41.3332 66.0002 41.3332C66.7342 41.3332 67.3335 40.7339 67.3335 39.9998ZM70.6668 38.6665C71.4009 38.6665 72.0002 39.2658 72.0002 39.9998C72.0002 40.7339 71.4009 41.3332 70.6668 41.3332C69.9328 41.3332 69.3335 40.7339 69.3335 39.9998C69.3335 39.2583 69.9328 38.6665 70.6668 38.6665ZM76.6668 39.9998C76.6668 39.2658 76.0676 38.6665 75.3335 38.6665C74.5994 38.6665 74.0002 39.2583 74.0002 39.9998C74.0002 40.7339 74.5994 41.3332 75.3335 41.3332C76.0676 41.3332 76.6668 40.7339 76.6668 39.9998Z" fill="#333333"/>
</g>
<defs>
<linearGradient id="paint0_linear_4077_765444" x1="53.8357" y1="43.9467" x2="80.2265" y2="73.009" gradientUnits="userSpaceOnUse">
<stop stop-color="#FFC671"/>
<stop offset="1" stop-color="#FF6F3D"/>
</linearGradient>
<linearGradient id="paint1_linear_4077_765444" x1="25.3338" y1="13.2028" x2="25.7491" y2="19.8484" gradientUnits="userSpaceOnUse">
<stop stop-color="#FF8E3D"/>
<stop offset="1" stop-color="#FF6F3D"/>
</linearGradient>
<clipPath id="clip0_4077_765444">
<rect width="100" height="100" fill="white"/>
</clipPath>
</defs>
</svg>
