<svg width="150" height="150" viewBox="0 0 150 150" fill="none" xmlns="http://www.w3.org/2000/svg">
<g clip-path="url(#clip0_964_170806)">
<path d="M71.4219 20.8414C72.779 18.6071 76.0175 18.595 77.3912 20.8191L144.306 129.161C145.746 131.493 144.069 134.5 141.328 134.5H21.1846H8.6095C5.88051 134.5 4.20137 131.516 5.61805 129.183L71.4219 20.8414Z" fill="url(#paint0_linear_964_170806)" stroke="#333333"/>
<path d="M84.6797 70.3176C84.6797 74.9563 83.6221 80.7454 81.5068 87.6848C81.0244 89.2434 80.5605 90.802 80.1152 92.3606C79.6699 93.9192 79.1875 95.4963 78.668 97.092C77.5547 100.506 76.5342 102.157 75.6064 102.046C74.6045 101.898 73.4912 100.172 72.2666 96.8694C72.0439 96.3128 71.6729 95.2737 71.1533 93.7522C70.6709 92.2307 70.0215 90.2083 69.2051 87.6848C67.0898 80.968 66.0322 75.3274 66.0322 70.763C66.0322 62.8958 69.1494 58.8694 75.3838 58.6838C81.5811 58.5725 84.6797 62.4505 84.6797 70.3176ZM82.4531 111.954C82.4531 113.81 81.8408 115.443 80.6162 116.853C79.2803 118.374 77.5361 119.135 75.3838 119.135C73.1201 119.135 71.3389 118.43 70.04 117.02C68.8154 115.647 68.2031 113.995 68.2031 112.066C68.2031 110.099 68.8154 108.41 70.04 107C71.3018 105.59 73.0273 104.885 75.2168 104.885C77.5176 104.885 79.2988 105.59 80.5605 107C81.8223 108.448 82.4531 110.099 82.4531 111.954Z" fill="white"/>
</g>
<defs>
<linearGradient id="paint0_linear_964_170806" x1="-0.598706" y1="31.0226" x2="80.71" y2="121.735" gradientUnits="userSpaceOnUse">
<stop stop-color="#FFC671"/>
<stop offset="1" stop-color="#FF6F3D"/>
</linearGradient>
<clipPath id="clip0_964_170806">
<rect width="150" height="150" fill="white"/>
</clipPath>
</defs>
</svg>
