<svg width="100" height="100" viewBox="0 0 100 100" fill="none" xmlns="http://www.w3.org/2000/svg">
<g clip-path="url(#clip0_320_3466)">
<path fill-rule="evenodd" clip-rule="evenodd" d="M37.7813 1.23292C36.4657 1.1364 35.1298 1.15694 33.8376 1.30327L33.7251 0.309619C35.0823 0.155931 36.4804 0.134789 37.8544 0.235601L37.7813 1.23292ZM45.275 3.3542C44.2503 2.74433 43.0199 2.24746 41.6688 1.88272L41.9294 0.917285C43.3498 1.30072 44.6682 1.82937 45.7864 2.49489L45.275 3.3542ZM30.025 2.17574C28.7414 2.64834 27.6133 3.28909 26.7208 4.10252L26.0471 3.36343C27.055 2.44489 28.3027 1.74422 29.6795 1.23732L30.025 2.17574ZM48.3125 7.68753C48.3125 7.07363 48.17 6.49766 47.9046 5.95862L48.8018 5.51694C49.1314 6.18635 49.3125 6.91282 49.3125 7.68753C49.3125 8.69094 49.203 9.52557 49.0204 10.2549L48.0503 10.0119C48.2114 9.36871 48.3125 8.61617 48.3125 7.68753ZM24.7713 7.25138C24.6176 7.82561 24.5347 8.44884 24.5347 9.12417C24.5347 9.6481 24.6052 10.155 24.7275 10.6491L23.7567 10.8892C23.6176 10.3268 23.5347 9.73897 23.5347 9.12417C23.5347 8.36624 23.6278 7.65582 23.8053 6.99285L24.7713 7.25138ZM26.4126 14.3473C26.8392 15.0918 27.2669 15.8381 27.5645 16.5567L26.6407 16.9394C26.3695 16.2847 25.9894 15.6212 25.5738 14.8958C25.4197 14.6268 25.2608 14.3494 25.1007 14.0607L25.9753 13.5758C26.1173 13.8319 26.2649 14.0895 26.4126 14.3473ZM45.3034 16.8896C45.4432 15.8954 45.6977 15.0957 46.0037 14.3918L46.9208 14.7904C46.647 15.4204 46.4196 16.133 46.2937 17.0288C46.1854 17.7991 46.2794 18.4583 46.5337 19.0249L45.6214 19.4344C45.2811 18.6762 45.1721 17.8238 45.3034 16.8896ZM27.579 20.1867C27.3179 20.6721 26.9339 21.1412 26.4144 21.6003C25.913 22.0436 25.1369 22.3413 24.2404 22.5523L24.0113 21.5789C24.8659 21.3778 25.4415 21.1257 25.7522 20.8511C26.2024 20.4532 26.5042 20.0739 26.6983 19.713L27.579 20.1867ZM0.0167456 20.9967L0.563784 21.0323C0.967057 21.0586 1.68472 21.1251 2.61809 21.2116L2.7118 21.2203L2.61954 22.216L2.54717 22.2093C1.9415 22.1532 1.43474 22.1063 1.04594 22.073L1.08966 23.7046L0.0900231 23.7314L0.0167456 20.9967ZM71.9014 21.0444V21.601C71.9014 22.0531 71.879 22.7134 71.8422 23.5197L70.8432 23.4741C70.8664 22.9651 70.8836 22.5219 70.893 22.1568C70.8611 22.1601 70.828 22.1635 70.7936 22.167C70.3705 22.2103 69.7616 22.2714 69.0176 22.3425L68.9224 21.3471C69.6639 21.2761 70.2707 21.2153 70.6919 21.1722C70.9025 21.1507 71.0667 21.1336 71.1782 21.1219L71.3474 21.104L71.9014 21.0444ZM51.8053 23.0395C50.9646 22.8939 50.1858 22.7017 49.4804 22.4601L49.8045 21.5141C50.4513 21.7356 51.1776 21.9159 51.976 22.0542C52.5345 22.151 53.3416 22.2039 54.3307 22.2192L54.3153 23.2191C53.3122 23.2035 52.4425 23.1499 51.8053 23.0395ZM11.2231 22.8959C9.72363 22.8088 8.2619 22.7022 6.91801 22.5939L6.99838 21.5971C8.33691 21.705 9.79094 21.811 11.2811 21.8976L11.2231 22.8959ZM64.1362 22.7689C62.552 22.8931 60.8638 23.0101 59.2412 23.0944L59.1894 22.0957C60.8007 22.012 62.4796 21.8957 64.058 21.772L64.1362 22.7689ZM19.8791 23.0535C18.5236 23.11 17.0501 23.1118 15.5413 23.0772L15.5643 22.0774C17.0587 22.1117 18.5096 22.1097 19.8374 22.0544L19.8791 23.0535ZM70.5989 28.007C70.6133 27.7533 70.6276 27.5033 70.6415 27.2573L71.6399 27.314C71.6259 27.5613 71.6116 27.8126 71.5971 28.0675C71.5417 29.0396 71.4835 30.0622 71.4267 31.1027L70.4282 31.0481C70.4852 30.0053 70.5435 28.9801 70.5989 28.007ZM1.20685 28.0781L1.32404 32.4515L0.324398 32.4783L0.207211 28.1049L1.20685 28.0781ZM70.0951 38.6498C70.1251 37.4645 70.1749 36.1727 70.2355 34.8454L71.2345 34.891C71.1741 36.2142 71.1246 37.4988 71.0948 38.6751L70.0951 38.6498ZM1.44123 36.825L1.50018 39.0251C1.50018 39.7621 1.5451 40.4271 1.63274 41.0204L0.643474 41.1665C0.547743 40.5184 0.500275 39.806 0.500001 39.0319L0.441586 36.8518L1.44123 36.825ZM10.9204 42.3677C11.6165 42.1366 12.3841 41.9865 13.2616 41.9865C13.9707 41.9865 14.6465 42.0672 15.2879 42.2214L15.0542 43.1937C14.4915 43.0584 13.8943 42.9865 13.2616 42.9865C12.5029 42.9865 11.8418 43.1154 11.2355 43.3167L10.9204 42.3677ZM70.1866 43.6822C70.1434 43.3464 70.1135 42.9396 70.094 42.4784L71.0931 42.4362C71.1119 42.8824 71.1402 43.258 71.1784 43.5545C71.218 43.8625 71.2638 44.0458 71.3006 44.132C71.5335 44.6795 71.8515 45.0744 72.2282 45.3582L71.6264 46.1569C71.1008 45.7608 70.6777 45.2225 70.3808 44.5242C70.3806 44.5239 70.3809 44.5245 70.3808 44.5242C70.2869 44.3042 70.2282 44.0059 70.1866 43.6822ZM18.8646 44.099C19.843 44.9563 20.6617 46.0312 21.3254 47.2464L20.4477 47.7257C19.8301 46.5947 19.0809 45.6181 18.2056 44.8512L18.8646 44.099ZM3.24505 44.2736C3.69561 44.5788 4.25079 44.7439 4.93075 44.7439C5.65055 44.7439 6.28473 44.5803 6.9001 44.3268L7.28098 45.2514C6.57692 45.5415 5.81197 45.7439 4.93075 45.7439C4.08187 45.7439 3.32428 45.5351 2.68425 45.1016L3.24505 44.2736ZM84.2842 45.2777C83.8321 45.2777 83.2637 45.3636 82.5956 45.5075L82.3851 44.5299C83.0728 44.3818 83.7241 44.2777 84.2842 44.2777C84.9627 44.2777 85.6009 44.3749 86.1973 44.5585L85.903 45.5142C85.4049 45.3608 84.866 45.2777 84.2842 45.2777ZM79.0884 46.3891C77.8801 46.6868 76.6142 46.953 75.4275 47.0269L75.3653 46.0288C76.4593 45.9607 77.6541 45.7126 78.8491 45.4181L79.0884 46.3891ZM90.2046 50.3251C89.8023 49.1837 89.2576 48.1696 88.5774 47.3569L89.3443 46.7151C90.1165 47.6379 90.7145 48.7634 91.1477 49.9927L90.2046 50.3251ZM22.7751 50.9225C23.1113 52.1633 23.3349 53.4684 23.4466 54.7929L22.4501 54.8769C22.3432 53.6082 22.1293 52.3628 21.8099 51.184L22.7751 50.9225ZM91.0312 55.4378C91.031 54.8566 91.0012 54.2751 90.942 53.7009L91.9367 53.5983C91.9995 54.2069 92.0309 54.8225 92.0312 55.4372L91.0312 55.4378ZM23.4523 58.7149C23.3442 60.0403 23.1239 61.3461 22.7898 62.5874L21.8242 62.3275C22.1414 61.1489 22.3521 59.9032 22.4556 58.6336L23.4523 58.7149ZM21.3419 66.2652C20.6775 67.4793 19.856 68.5524 18.872 69.4069L18.2163 68.6519C19.0959 67.8881 19.8469 66.9141 20.4646 65.7852L21.3419 66.2652ZM6.2204 68.9887C5.56015 68.7387 4.9382 68.6149 4.37287 68.5979L4.40297 67.5984C5.09152 67.6191 5.82284 67.7689 6.57449 68.0535C7.13325 68.2651 7.71248 68.5522 8.29309 68.8456L7.84202 69.7381C7.25757 69.4427 6.72279 69.1789 6.2204 68.9887ZM1.39418 70.1756C1.14538 70.6533 1 71.2428 1 71.9375V74.3828H0V71.9375C0 71.1026 0.175201 70.3512 0.507269 69.7136L1.39418 70.1756ZM35.1831 70.113C35.9537 70.059 36.7671 70.0312 37.625 70.0312C38.6043 70.0312 39.5233 70.0654 40.385 70.131L40.309 71.1281C39.4748 71.0646 38.5812 71.0312 37.625 71.0312C36.7886 71.0312 35.9986 71.0583 35.2529 71.1106L35.1831 70.113ZM13.2616 71.4991C12.5849 71.4991 11.9342 71.3916 11.313 71.2216L11.577 70.2571C12.1305 70.4086 12.6913 70.4991 13.2616 70.4991C13.8955 70.4991 14.4935 70.4282 15.0566 70.2948L15.2871 71.2679C14.6461 71.4197 13.9707 71.4991 13.2616 71.4991ZM25.9257 73.2307C27.0395 72.2632 28.4977 71.4815 30.3459 70.9333L30.6302 71.892C28.8927 72.4074 27.5685 73.1283 26.5814 73.9857L25.9257 73.2307ZM45.8469 71.1854C46.827 71.5303 47.6746 71.9453 48.4008 72.4205C49.1348 72.9007 49.7341 73.4032 50.2146 73.9284L49.4768 74.6034C49.0614 74.1494 48.5289 73.6994 47.8533 73.2572C47.2023 72.8313 46.4286 72.4502 45.515 72.1287L45.8469 71.1854ZM23.0395 80.0383C23.0318 79.1827 23.1167 78.3417 23.3129 77.532L24.2848 77.7674C24.1104 78.4874 24.0324 79.2454 24.0395 80.0293C24.0457 80.7162 24.2055 81.3795 24.4559 82.0402L23.5208 82.3947C23.2423 81.6596 23.0471 80.8766 23.0395 80.0383ZM51.8132 78.3777C51.7417 79.8576 51.2366 81.373 50.6957 82.8459L49.757 82.5012C50.2995 81.0239 50.7511 79.6392 50.8144 78.3295L51.8132 78.3777ZM1 79.2734V84.164H0V79.2734H1ZM25.9688 88.4062C25.9688 87.7604 25.7894 87.1137 25.5016 86.4339L26.4226 86.0441C26.738 86.7896 26.9688 87.5755 26.9688 88.4062C26.9688 89.2192 26.7074 89.8662 26.2111 90.3536L25.5104 89.6402C25.7925 89.3632 25.9688 88.9846 25.9688 88.4062ZM49.2982 87.0256C49.1316 87.7392 49.0312 88.4388 49.0312 89.125C49.0312 89.3932 49.0761 89.6496 49.1618 89.8802L48.2245 90.2287C48.0944 89.8786 48.0312 89.5034 48.0312 89.125C48.0312 88.3425 48.1456 87.5643 48.3243 86.7983L49.2982 87.0256ZM1 91.0001V89.0546H0V91.9999H0.5C1.05749 91.9999 1.62277 92.0007 2.19447 92.0017L2.19636 91.0017C1.79438 91.001 1.39542 91.0004 1 91.0001ZM20.8148 90.7115C21.4245 90.6743 22.0021 90.6348 22.5393 90.5782L22.6441 91.5726C22.0836 91.6317 21.4875 91.6723 20.8757 91.7096C20.3176 91.7438 19.7504 91.7742 19.1758 91.8012L19.1288 90.8023C19.6991 90.7755 20.2616 90.7453 20.8148 90.7115ZM50.1622 90.8778C50.3758 90.9541 50.6289 90.9999 50.9256 90.9999H52.4036V91.9999H50.9256C50.525 91.9999 50.1571 91.9379 49.8259 91.8196L50.1622 90.8778ZM12.3654 90.9855C13.5041 90.9721 14.6354 90.9522 15.7496 90.9233L15.7755 91.9229C14.6558 91.952 13.5196 91.972 12.3772 91.9854L12.3654 90.9855ZM55.3597 90.9999H56.8378V91.9999H55.3597V90.9999ZM5.58843 91.0093C6.70927 91.0114 7.84227 91.012 8.97796 91.0089L8.98075 92.0089C7.84289 92.012 6.70819 92.0114 5.58664 92.0093L5.58843 91.0093Z" fill="#CCCCCC"/>
<path d="M99.5 79C99.5 67.6785 90.3215 58.5 79 58.5C67.6785 58.5 58.5 67.6785 58.5 79C58.5 90.3215 67.6785 99.5 79 99.5C90.3215 99.5 99.5 90.3215 99.5 79Z" fill="url(#paint0_linear_320_3466)" stroke="#333333"/>
<path d="M81.3424 66.5001L81.3424 66.5L81.3332 66.5L76.6043 66.5C75.9648 66.5 75.4687 67.0267 75.4687 67.6515L75.4687 75.5149L67.6355 75.5154C67.6355 75.5154 67.6355 75.5154 67.6355 75.5154C66.996 75.5154 66.5 76.0421 66.5 76.6669L66.5 81.3631C66.5 81.9824 66.9906 82.5201 67.6355 82.5201L75.4687 82.5199L75.4687 90.3482C75.4687 90.9731 75.9648 91.4998 76.6042 91.4998L81.3332 91.5C81.9727 91.5 82.4687 90.9733 82.4687 90.3485L82.4687 82.5201L90.3645 82.5201C91.0094 82.5201 91.5 81.9824 91.5 81.3631L91.5 76.6669C91.5 76.0421 91.004 75.5154 90.3645 75.5154C90.3645 75.5154 90.3645 75.5154 90.3645 75.5154L82.4687 75.5151L82.4687 67.6515C82.4687 67.0247 81.9604 66.5114 81.3424 66.5001Z" fill="#FEFEFE" stroke="#333333"/>
</g>
<defs>
<linearGradient id="paint0_linear_320_3466" x1="65.6089" y1="58.3367" x2="82.5785" y2="84.5228" gradientUnits="userSpaceOnUse">
<stop stop-color="#FFC671"/>
<stop offset="1" stop-color="#FF6F3D"/>
</linearGradient>
<clipPath id="clip0_320_3466">
<rect width="100" height="100" fill="white"/>
</clipPath>
</defs>
</svg>
