<svg width="72" height="72" viewBox="0 0 72 72" fill="none" xmlns="http://www.w3.org/2000/svg">
<g clip-path="url(#clip0_23674_260133)">
<path d="M11.9999 39.86H12.4999V39.36V22.08V21.58H11.9999H7.67986C6.22513 21.58 5.0186 22.2346 4.18295 23.1248C3.35539 24.0064 2.85986 25.1531 2.85986 26.1949V39.36V39.86H3.35986H11.9999Z" fill="#BDECFF" stroke="#333333"/>
<path d="M58.5596 21.58H58.0596V22.08V33.6V34.1H58.5596H67.1996H67.6996V33.6V25.8309C67.6996 23.1962 65.5055 21.58 63.3596 21.58H58.5596Z" fill="#BDECFF" stroke="#333333"/>
<path d="M53.7598 1.42H54.2598V1.92V40.32V40.82H53.7598H7.67976H7.17976V40.32V10.8808V10.6719L7.32834 10.5251L16.3976 1.56432L16.5437 1.42H16.749H53.7598Z" fill="white" stroke="#333333"/>
<path d="M15.9658 1.56644C16.1088 1.42345 16.3238 1.38067 16.5107 1.45806C16.6975 1.53545 16.8193 1.71777 16.8193 1.92V10.56C16.8193 10.8361 16.5955 11.06 16.3193 11.06H7.67934C7.47711 11.06 7.29479 10.9382 7.2174 10.7513C7.14001 10.5645 7.18278 10.3494 7.32578 10.2064L15.9658 1.56644Z" fill="url(#paint0_linear_23674_260133)" stroke="#333333" stroke-linejoin="round"/>
<path d="M62.8799 9.1H63.3799V9.6V48V48.5H62.8799H16.7999H16.2999V48V18.5608V18.3519L16.4485 18.2051L25.5177 9.24432L25.6638 9.1H25.8692H62.8799Z" fill="white" stroke="#333333"/>
<path d="M25.0859 9.24645C25.2289 9.10345 25.444 9.06067 25.6308 9.13806C25.8176 9.21545 25.9395 9.39777 25.9395 9.6V18.24C25.9395 18.5161 25.7156 18.74 25.4395 18.74H16.7994C16.5972 18.74 16.4149 18.6182 16.3375 18.4313C16.2601 18.2445 16.3029 18.0294 16.4459 17.8864L25.0859 9.24645Z" fill="#BDECFF" stroke="#333333" stroke-linejoin="round"/>
<path fill-rule="evenodd" clip-rule="evenodd" d="M57.1201 23.74C57.3963 23.74 57.6201 23.9639 57.6201 24.24C57.6201 24.5161 57.3963 24.74 57.1201 24.74H29.7601C29.484 24.74 29.2601 24.5161 29.2601 24.24C29.2601 23.9639 29.484 23.74 29.7601 23.74H57.1201ZM56.1601 35.3H56.8801C57.1563 35.3 57.3801 35.0761 57.3801 34.8C57.3801 34.5239 57.1563 34.3 56.8801 34.3H56.1601H42.9601H22.0801C21.804 34.3 21.5801 34.5239 21.5801 34.8C21.5801 35.0761 21.804 35.3 22.0801 35.3H42.9601H56.1601ZM57.6201 29.52C57.6201 29.2439 57.3963 29.02 57.1201 29.02H22.0801C21.804 29.02 21.5801 29.2439 21.5801 29.52C21.5801 29.7961 21.804 30.02 22.0801 30.02H57.1201C57.3963 30.02 57.6201 29.7961 57.6201 29.52Z" fill="#333333"/>
<path d="M49.2002 17.52H33.3602" stroke="url(#paint1_linear_23674_260133)" stroke-width="2" stroke-linecap="round"/>
<path fill-rule="evenodd" clip-rule="evenodd" d="M33.7591 34.3721L29.3935 39.2564H4.1498C2.06437 39.2564 0.271579 41.1315 0.499599 42.6561L4.56436 67.4328C4.79713 68.9574 6.42415 70.56 8.50958 70.56H64.3404C66.4258 70.56 67.5691 69.2027 67.6878 67.6734L71.4964 35.4188C71.6864 34.4582 70.7173 33.12 69.0119 33.12H36.7281C35.5928 33.12 34.5714 33.5501 33.7591 34.3721Z" fill="url(#paint2_linear_23674_260133)" stroke="#333333"/>
<path fill-rule="evenodd" clip-rule="evenodd" d="M30.7209 42.24V46.1261C30.7209 46.6436 30.5112 47.1121 30.1722 47.4512C29.8331 47.7903 29.3646 48 28.847 48H24.9609V47.3977H28.847C29.1951 47.3977 29.5163 47.2549 29.7438 47.0229C29.9758 46.7909 30.1186 46.4741 30.1186 46.1261V42.24H30.7209Z" fill="white"/>
<path fill-rule="evenodd" clip-rule="evenodd" d="M46.9062 43.648V43.5754C46.9062 43.2623 46.7707 42.9718 46.5539 42.7585C46.3326 42.5406 46.0254 42.3954 45.7002 42.3727H30.4426L25.1083 47.7373L26.3865 63.8311C26.4182 64.2078 26.5717 64.5482 26.8111 64.7887C27.0324 65.0111 27.3351 65.1518 27.6783 65.1518H44.3045C44.6478 65.1518 44.9549 65.0111 45.1808 64.7842C45.4202 64.5437 45.5737 64.2078 45.5963 63.8356L46.9062 43.648ZM47.5205 43.5754L46.2061 63.8719C46.1699 64.3939 45.9531 64.8704 45.6144 65.2154C45.2801 65.5512 44.824 65.76 44.309 65.76H27.6783C27.1634 65.76 26.7163 65.5512 26.382 65.2199C26.0433 64.8795 25.8219 64.3984 25.7813 63.881L24.4805 47.5058L30.1942 41.76H45.6189L45.7409 41.7645C46.2151 41.7963 46.6578 42.0051 46.983 42.3228C47.3082 42.6496 47.5205 43.0853 47.5205 43.5754Z" fill="white"/>
</g>
<defs>
<linearGradient id="paint0_linear_23674_260133" x1="18.1808" y1="1.45762" x2="13.3027" y2="9.34641" gradientUnits="userSpaceOnUse">
<stop stop-color="#FFC671"/>
<stop offset="1" stop-color="#FF6F3D"/>
</linearGradient>
<linearGradient id="paint1_linear_23674_260133" x1="49.2002" y1="17.4809" x2="49.079" y2="19.475" gradientUnits="userSpaceOnUse">
<stop stop-color="#FF8E3D"/>
<stop offset="1" stop-color="#FF6F3D"/>
</linearGradient>
<linearGradient id="paint2_linear_23674_260133" x1="18.2942" y1="20.7558" x2="44.1579" y2="60.4266" gradientUnits="userSpaceOnUse">
<stop stop-color="#FFC671"/>
<stop offset="1" stop-color="#FF6F3D"/>
</linearGradient>
<clipPath id="clip0_23674_260133">
<rect width="72" height="72" fill="white"/>
</clipPath>
</defs>
</svg>
