<svg width="100" height="100" viewBox="0 0 100 100" fill="none" xmlns="http://www.w3.org/2000/svg">
<path d="M47.4091 1.5H10.5C5.52944 1.5 1.5 5.52944 1.5 10.5V88.5C1.5 93.4706 5.52944 97.5 10.5 97.5H88.5C93.4706 97.5 97.5 93.4706 97.5 88.5V19.3182" stroke="#333333" stroke-linecap="round"/>
<path fill-rule="evenodd" clip-rule="evenodd" d="M98.174 5.70257L81 27V49.263C81 50.8604 79.2197 51.8131 77.8906 50.9271L72.8906 47.5937C72.3342 47.2228 72 46.5983 72 45.9296V27L55.748 5.71319C54.2578 3.875 54.9856 1 58.0085 1H96.199C98.9749 1 99.7949 3.9375 98.174 5.70257Z" fill="#D9F4FF"/>
<path d="M97.8058 5.36437L97.7949 5.3762L97.7848 5.3887L80.6108 26.6861L80.5 26.8235V27V49.263C80.5 50.461 79.1648 51.1756 78.1679 50.511L73.1679 47.1777C72.7507 46.8995 72.5 46.4312 72.5 45.9296V27V26.8309L72.3974 26.6966L56.1454 5.40978L56.141 5.40398L56.1364 5.39832C55.4933 4.605 55.3501 3.61486 55.6511 2.85048C55.94 2.11683 56.6757 1.5 58.0085 1.5H96.199C97.3845 1.5 98.091 2.11014 98.3658 2.86117C98.6491 3.63568 98.4934 4.61562 97.8058 5.36437Z" stroke="#333333"/>
<path fill-rule="evenodd" clip-rule="evenodd" d="M70 66.1499C70 68.0829 68.433 69.6499 66.5 69.6499C64.567 69.6499 63 68.0829 63 66.1499C63 64.2169 64.567 62.6499 66.5 62.6499C68.433 62.6499 70 64.2169 70 66.1499ZM71 66.1499C71 68.6352 68.9853 70.6499 66.5 70.6499C64.1838 70.6499 62.2763 68.9 62.0275 66.6501H43.0605C42.6297 69.7942 40.9359 73.468 37.1371 75.6612C31.7071 78.7962 25.0668 76.7509 21.9516 71.3554C20.8195 69.3945 20.3406 67.2341 20.4484 65.1285C20.4625 64.8527 20.6975 64.6406 20.9733 64.6547C21.2491 64.6688 21.4612 64.9038 21.4471 65.1796C21.3489 67.0984 21.7849 69.0665 22.8176 70.8554C25.6767 75.8074 31.7195 77.6344 36.6371 74.7952C40.273 72.696 41.8164 69.1028 42.1191 66.1L42.1644 65.6501H42.6166H62.0274C62.2761 63.4 64.1837 61.6499 66.5 61.6499C68.9853 61.6499 71 63.6646 71 66.1499Z" fill="#333333"/>
<path d="M62.0275 66.6501L62.5245 66.5951L62.4752 66.1501H62.0275V66.6501ZM43.0605 66.6501V66.1501H42.6244L42.5652 66.5822L43.0605 66.6501ZM37.1371 75.6612L36.8871 75.2282L37.1371 75.6612ZM21.9516 71.3554L21.5186 71.6054L21.9516 71.3554ZM20.4484 65.1285L19.949 65.1029L20.4484 65.1285ZM20.9733 64.6547L20.9988 64.1553L20.9733 64.6547ZM21.4471 65.1796L21.9464 65.2051L21.4471 65.1796ZM22.8176 70.8554L23.2507 70.6054L22.8176 70.8554ZM36.6371 74.7952L36.3871 74.3622L36.6371 74.7952ZM42.1191 66.1L42.6166 66.1501L42.6166 66.1501L42.1191 66.1ZM42.1644 65.6501V65.1501H41.7123L41.6669 65.6L42.1644 65.6501ZM62.0274 65.6501V66.1501H62.4752L62.5244 65.705L62.0274 65.6501ZM66.5 70.1499C68.7091 70.1499 70.5 68.359 70.5 66.1499H69.5C69.5 67.8068 68.1569 69.1499 66.5 69.1499V70.1499ZM62.5 66.1499C62.5 68.359 64.2909 70.1499 66.5 70.1499V69.1499C64.8431 69.1499 63.5 67.8068 63.5 66.1499H62.5ZM66.5 62.1499C64.2909 62.1499 62.5 63.9408 62.5 66.1499H63.5C63.5 64.493 64.8431 63.1499 66.5 63.1499V62.1499ZM70.5 66.1499C70.5 63.9408 68.7091 62.1499 66.5 62.1499V63.1499C68.1569 63.1499 69.5 64.493 69.5 66.1499H70.5ZM66.5 71.1499C69.2614 71.1499 71.5 68.9113 71.5 66.1499H70.5C70.5 68.359 68.7091 70.1499 66.5 70.1499V71.1499ZM61.5305 66.7051C61.807 69.2055 63.9261 71.1499 66.5 71.1499V70.1499C64.4415 70.1499 62.7456 68.5945 62.5245 66.5951L61.5305 66.7051ZM62.0275 66.1501H43.0605V67.1501H62.0275V66.1501ZM42.5652 66.5822C42.1499 69.6126 40.521 73.1302 36.8871 75.2282L37.3871 76.0942C41.3507 73.8059 43.1095 69.9757 43.5559 66.718L42.5652 66.5822ZM36.8871 75.2282C31.7135 78.2152 25.3719 76.2794 22.3846 71.1054L21.5186 71.6054C24.7616 77.2224 31.7007 79.3773 37.3871 76.0942L36.8871 75.2282ZM22.3846 71.1054C21.3022 69.2305 20.8448 67.1663 20.9477 65.154L19.949 65.1029C19.8365 67.302 20.3368 69.5584 21.5186 71.6054L22.3846 71.1054ZM20.9477 65.154H20.9477L20.9988 64.1553C20.4473 64.1271 19.9773 64.5514 19.949 65.1029L20.9477 65.154ZM20.9477 65.154H20.9477L21.9464 65.2051C21.9746 64.6536 21.5504 64.1835 20.9988 64.1553L20.9477 65.154ZM20.9477 65.154C20.8448 67.1663 21.3022 69.2305 22.3846 71.1054L23.2507 70.6054C22.2675 68.9025 21.853 67.0306 21.9464 65.2051L20.9477 65.154ZM22.3846 71.1054C25.3719 76.2794 31.7135 78.2152 36.8871 75.2282L36.3871 74.3622C31.7254 77.0536 25.9816 75.3354 23.2507 70.6054L22.3846 71.1054ZM36.8871 75.2282C40.6957 73.0293 42.3021 69.2702 42.6166 66.1501L41.6216 66.0498C41.3308 68.9354 39.8503 72.3627 36.3871 74.3622L36.8871 75.2282ZM42.6166 66.1501L42.6619 65.7003L41.6669 65.6L41.6216 66.0498L42.6166 66.1501ZM42.1644 66.1501H42.6166V65.1501H42.1644V66.1501ZM42.6166 66.1501H62.0274V65.1501H42.6166V66.1501ZM66.5 61.1499C63.9259 61.1499 61.8068 63.0946 61.5305 65.5952L62.5244 65.705C62.7454 63.7055 64.4414 62.1499 66.5 62.1499V61.1499ZM71.5 66.1499C71.5 63.3885 69.2614 61.1499 66.5 61.1499V62.1499C68.7091 62.1499 70.5 63.9408 70.5 66.1499H71.5Z" fill="#333333"/>
<path fill-rule="evenodd" clip-rule="evenodd" d="M47.2039 33.3625C48.8779 32.396 51.0185 32.9696 51.985 34.6436C52.9515 36.3176 52.3779 38.4582 50.7039 39.4247C49.0298 40.3912 46.8893 39.8176 45.9228 38.1436C44.9563 36.4696 45.5298 34.329 47.2039 33.3625ZM46.7039 32.4965C48.8562 31.2539 51.6083 31.9913 52.851 34.1436C54.0092 36.1496 53.4473 38.6767 51.623 40.0171L61.1063 56.4427C64.0446 55.2438 68.0731 54.8738 71.8719 57.067C77.3019 60.202 78.8508 66.9754 75.7356 72.3709C74.6035 74.3318 72.9721 75.8267 71.0946 76.7862C70.8487 76.9119 70.5475 76.8144 70.4218 76.5685C70.2962 76.3226 70.3936 76.0214 70.6395 75.8958C72.3504 75.0214 73.8368 73.6598 74.8696 71.8709C77.7287 66.9188 76.2895 60.7722 71.3719 57.933C67.736 55.8338 63.8524 56.2938 61.1006 57.5331L60.6883 57.7187L60.4623 57.3272L50.7569 40.517C48.6841 41.4265 46.2149 40.6495 45.0568 38.6436C43.8141 36.4913 44.5515 33.7391 46.7039 32.4965Z" fill="#333333"/>
<path d="M51.623 40.0171L51.3269 39.6141L50.9661 39.8793L51.19 40.2671L51.623 40.0171ZM61.1063 56.4427L60.6733 56.6927L60.8914 57.0704L61.2952 56.9056L61.1063 56.4427ZM71.8719 57.067L71.6219 57.5L71.8719 57.067ZM75.7356 72.3709L76.1687 72.6209L75.7356 72.3709ZM71.0946 76.7862L71.3222 77.2314L71.0946 76.7862ZM70.6395 75.8958L70.8671 76.341L70.8671 76.341L70.6395 75.8958ZM74.8696 71.8709L74.4366 71.6209L74.8696 71.8709ZM71.3719 57.933L71.1219 58.366L71.3719 57.933ZM61.1006 57.5331L60.8953 57.0772L60.8953 57.0772L61.1006 57.5331ZM60.6883 57.7187L60.2553 57.9687L60.4814 58.3603L60.8937 58.1746L60.6883 57.7187ZM50.7569 40.517L51.1899 40.267L50.9661 39.8793L50.556 40.0591L50.7569 40.517ZM52.418 34.3936C51.3134 32.4804 48.867 31.8249 46.9539 32.9295L47.4539 33.7955C48.8887 32.9671 50.7235 33.4587 51.5519 34.8936L52.418 34.3936ZM50.9539 39.8577C52.867 38.7531 53.5225 36.3068 52.418 34.3936L51.5519 34.8936C52.3804 36.3285 51.8887 38.1633 50.4539 38.9917L50.9539 39.8577ZM45.4898 38.3936C46.5943 40.3068 49.0407 40.9623 50.9539 39.8577L50.4539 38.9917C49.019 39.8201 47.1842 39.3285 46.3558 37.8936L45.4898 38.3936ZM46.9539 32.9295C45.0407 34.0341 44.3852 36.4804 45.4898 38.3936L46.3558 37.8936C45.5274 36.4587 46.019 34.624 47.4539 33.7955L46.9539 32.9295ZM53.284 33.8936C51.9033 31.5021 48.8453 30.6828 46.4539 32.0635L46.9539 32.9295C48.867 31.8249 51.3134 32.4804 52.418 34.3936L53.284 33.8936ZM51.919 40.42C53.9465 38.9304 54.571 36.1228 53.284 33.8936L52.418 34.3936C53.4473 36.1764 52.9481 38.423 51.3269 39.6141L51.919 40.42ZM51.19 40.2671L60.6733 56.6927L61.5393 56.1927L52.056 39.7671L51.19 40.2671ZM61.2952 56.9056C64.1272 55.7501 67.988 55.4019 71.6219 57.5L72.1219 56.6339C68.1583 54.3456 63.9619 54.7375 60.9174 55.9797L61.2952 56.9056ZM71.6219 57.5C76.7955 60.4869 78.2899 66.9469 75.3026 72.1209L76.1687 72.6209C79.4117 67.0038 77.8083 59.917 72.1219 56.6339L71.6219 57.5ZM75.3026 72.1209C74.2202 73.9958 72.6612 75.424 70.8671 76.341L71.3222 77.2314C73.2829 76.2293 74.9869 74.6678 76.1687 72.6209L75.3026 72.1209ZM70.8671 76.341L69.9766 76.7961C70.228 77.2879 70.8304 77.4828 71.3222 77.2314L70.8671 76.341ZM70.8671 76.341L70.412 75.4505C69.9202 75.7019 69.7253 76.3043 69.9766 76.7961L70.8671 76.341ZM70.8671 76.341C72.6612 75.424 74.2202 73.9958 75.3026 72.1209L74.4366 71.6209C73.4535 73.3237 72.0396 74.6187 70.412 75.4505L70.8671 76.341ZM75.3026 72.1209C78.2899 66.9468 76.7955 60.4869 71.6219 57.5L71.1219 58.366C75.7836 61.0574 77.1675 66.8909 74.4366 71.6209L75.3026 72.1209ZM71.6219 57.5C67.8133 55.3011 63.7546 55.7895 60.8953 57.0772L61.3059 57.989C63.9503 56.7981 67.6587 56.3665 71.1219 58.366L71.6219 57.5ZM60.8953 57.0772L60.483 57.2628L60.8937 58.1746L61.3059 57.989L60.8953 57.0772ZM61.1214 57.4687L60.8953 57.0772L60.0293 57.5772L60.2553 57.9687L61.1214 57.4687ZM60.8953 57.0772L51.1899 40.267L50.3239 40.767L60.0293 57.5772L60.8953 57.0772ZM44.6237 38.8936C45.9107 41.1227 48.6542 41.9856 50.9578 40.9749L50.556 40.0591C48.714 40.8673 46.519 40.1763 45.4898 38.3936L44.6237 38.8936ZM46.4539 32.0635C44.0624 33.4442 43.243 36.5021 44.6237 38.8936L45.4898 38.3936C44.3852 36.4804 45.0407 34.0341 46.9539 32.9295L46.4539 32.0635Z" fill="#333333"/>
<path fill-rule="evenodd" clip-rule="evenodd" d="M29.8177 69.4205C28.1437 68.454 27.5701 66.3134 28.5366 64.6394C29.5031 62.9653 31.6437 62.3918 33.3177 63.3583C34.9917 64.3248 35.5653 66.4653 34.5988 68.1394C33.6323 69.8134 31.4917 70.3869 29.8177 69.4205ZM29.3177 70.2865C27.1654 69.0438 26.4279 66.2917 27.6706 64.1394C28.8288 62.1333 31.2983 61.3564 33.3712 62.2662L42.8547 45.8403C40.3473 43.8951 38.0126 40.5913 38.0126 36.2049C38.0126 29.9349 43.104 25.2068 49.3343 25.2068C51.5985 25.2068 53.7089 25.8723 55.4786 27.0184C55.7103 27.1685 55.7765 27.4781 55.6264 27.7099C55.4763 27.9417 55.1667 28.0079 54.935 27.8578C53.3223 26.8133 51.3999 26.2068 49.3343 26.2068C43.6161 26.2068 39.0126 30.5265 39.0126 36.2049C39.0126 40.4032 41.3527 43.5365 43.8019 45.3L44.1688 45.5642L43.9427 45.9558L34.2372 62.7662C36.0612 64.1066 36.6229 66.6335 35.4648 68.6394C34.2222 70.7917 31.47 71.5291 29.3177 70.2865Z" fill="#FF6F3D"/>
<path d="M33.3712 62.2662L33.1703 62.724L33.5803 62.904L33.8042 62.5162L33.3712 62.2662ZM42.8547 45.8403L43.2877 46.0903L43.5058 45.7126L43.1612 45.4452L42.8547 45.8403ZM38.0126 36.2049L38.5126 36.2049L38.0126 36.2049ZM49.3343 25.2068L49.3343 25.7068L49.3343 25.2068ZM55.4786 27.0184L55.7504 26.5987L55.4786 27.0184ZM55.6264 27.7099L56.0461 27.9817L55.6264 27.7099ZM54.935 27.8578L54.6632 28.2774L54.935 27.8578ZM49.3343 26.2068L49.3343 26.7068L49.3343 26.7068L49.3343 26.2068ZM39.0126 36.2049L39.5126 36.2049L39.0126 36.2049ZM43.8019 45.3L43.5097 45.7058L43.5097 45.7058L43.8019 45.3ZM44.1688 45.5642L44.6018 45.8142L44.8279 45.4227L44.4609 45.1585L44.1688 45.5642ZM34.2372 62.7662L33.8042 62.5162L33.5803 62.904L33.9411 63.1691L34.2372 62.7662ZM28.1036 64.3894C26.999 66.3025 27.6545 68.7489 29.5677 69.8535L30.0677 68.9874C28.6328 68.159 28.1412 66.3242 28.9696 64.8894L28.1036 64.3894ZM33.5677 62.9253C31.6545 61.8207 29.2082 62.4762 28.1036 64.3894L28.9696 64.8894C29.798 63.4545 31.6328 62.9629 33.0677 63.7913L33.5677 62.9253ZM35.0318 68.3894C36.1364 66.4762 35.4809 64.0298 33.5677 62.9253L33.0677 63.7913C34.5026 64.6197 34.9942 66.4545 34.1658 67.8894L35.0318 68.3894ZM29.5677 69.8535C31.4809 70.958 33.9272 70.3025 35.0318 68.3894L34.1658 67.8894C33.3373 69.3242 31.5026 69.8159 30.0677 68.9874L29.5677 69.8535ZM27.2376 63.8894C25.8569 66.2808 26.6762 69.3388 29.0677 70.7195L29.5677 69.8535C27.6545 68.7489 26.999 66.3025 28.1036 64.3894L27.2376 63.8894ZM33.5722 61.8083C31.2684 60.7972 28.5246 61.6601 27.2376 63.8894L28.1036 64.3894C29.1329 62.6065 31.3282 61.9155 33.1703 62.724L33.5722 61.8083ZM33.8042 62.5162L43.2877 46.0903L42.4217 45.5903L32.9382 62.0162L33.8042 62.5162ZM43.1612 45.4452C40.7445 43.5704 38.5126 40.401 38.5126 36.2049L37.5126 36.2049C37.5126 40.7816 39.9502 44.2198 42.5482 46.2353L43.1612 45.4452ZM38.5126 36.2049C38.5126 30.2309 43.3598 25.7068 49.3343 25.7068L49.3343 24.7068C42.8483 24.7068 37.5126 29.6388 37.5126 36.2049L38.5126 36.2049ZM49.3343 25.7068C51.4992 25.7068 53.5156 26.3428 55.2068 27.4381L55.7504 26.5987C53.9022 25.4017 51.6979 24.7068 49.3343 24.7068L49.3343 25.7068ZM55.2068 27.4381L55.2068 27.4381L56.0461 27.9817C56.3463 27.5181 56.2139 26.899 55.7504 26.5987L55.2068 27.4381ZM55.2068 27.4381L55.2068 27.4381L54.6632 28.2774C55.1267 28.5776 55.7459 28.4452 56.0461 27.9817L55.2068 27.4381ZM55.2068 27.4381C53.5156 26.3428 51.4992 25.7068 49.3343 25.7068L49.3343 26.7068C51.3006 26.7068 53.129 27.2838 54.6632 28.2774L55.2068 27.4381ZM49.3343 25.7068C43.3598 25.7068 38.5126 30.231 38.5126 36.2049L39.5126 36.2049C39.5126 30.822 43.8725 26.7068 49.3343 26.7068L49.3343 25.7068ZM38.5126 36.2049C38.5126 40.6026 40.9649 43.8734 43.5097 45.7058L44.094 44.8943C41.7405 43.1996 39.5126 40.2038 39.5126 36.2049L38.5126 36.2049ZM43.5097 45.7058L43.8766 45.97L44.4609 45.1585L44.094 44.8943L43.5097 45.7058ZM43.7358 45.3142L43.5097 45.7058L44.3757 46.2058L44.6018 45.8142L43.7358 45.3142ZM43.5097 45.7058L33.8042 62.5162L34.6702 63.0162L44.3757 46.2058L43.5097 45.7058ZM35.8978 68.8894C37.1848 66.6603 36.5604 63.853 34.5333 62.3633L33.9411 63.1691C35.562 64.3603 36.061 66.6067 35.0318 68.3894L35.8978 68.8894ZM29.0677 70.7195C31.4592 72.1002 34.5171 71.2808 35.8978 68.8894L35.0318 68.3894C33.9272 70.3025 31.4809 70.958 29.5677 69.8535L29.0677 70.7195Z" fill="#FF6F3D"/>
</svg>
