<svg width="100" height="100" viewBox="0 0 100 100" fill="none" xmlns="http://www.w3.org/2000/svg">
<g clip-path="url(#clip0_4082_427434)">
<path fill-rule="evenodd" clip-rule="evenodd" d="M18.7421 76.4931L19.972 93.0121C20.0651 94.3699 21.069 96.2311 22.3057 97.1385C23.5622 98.0724 25.9424 98.8672 27.9104 98.8672L74.7759 98.9997C76.7372 98.9997 79.0975 98.2048 80.354 97.2709C81.584 96.3635 82.701 94.3831 82.794 93.0253C84.4828 68.4456 86.218 43.1175 87.9998 18.9684C82.1425 18.9684 76.3317 18.8359 70.4743 18.8359L14.6665 18.9684L18.7421 76.4931Z" fill="#333333"/>
<path fill-rule="evenodd" clip-rule="evenodd" d="M18.7421 76.4931L19.972 93.0121C20.0651 94.3699 21.069 96.2311 22.3057 97.1385C23.5622 98.0724 25.9424 98.8672 27.9104 98.8672L74.7759 98.9997C76.7372 98.9997 79.0975 98.2048 80.354 97.2709C81.584 96.3635 82.701 94.3831 82.794 93.0253C84.4828 68.4456 86.218 43.1175 87.9998 18.9684C82.1425 18.9684 76.3317 18.8359 70.4743 18.8359L14.6665 18.9684L18.7421 76.4931Z" fill="white" fill-opacity="0.88"/>
<path d="M9.5 19C9.5 19.2761 9.72386 19.5 10 19.5H93C93.2761 19.5 93.5 19.2761 93.5 19V15.5C93.5 13.3087 91.7538 11.5 89.5915 11.5H13.4085C11.2462 11.5 9.5 13.3087 9.5 15.5V19Z" fill="#E07751" stroke="#333333" stroke-linejoin="round"/>
<path d="M39.5 8.5V6.5C39.5 3.18629 42.1863 0.5 45.5 0.5H58.5C61.8137 0.5 64.5 3.18629 64.5 6.5V8.5" stroke="#ADADAD" stroke-linecap="round" stroke-linejoin="round"/>
<path fill-rule="evenodd" clip-rule="evenodd" d="M51.5 32C51.7761 32 52 32.2239 52 32.5V87.9466C52 88.2227 51.7761 88.4466 51.5 88.4466C51.2239 88.4466 51 88.2227 51 87.9466V32.5C51 32.2239 51.2239 32 51.5 32ZM70.4841 32.0767C70.7599 32.0912 70.9717 32.3265 70.9573 32.6022L68.0614 87.9728C68.047 88.2486 67.8118 88.4604 67.536 88.4459C67.2602 88.4314 67.0484 88.1961 67.0628 87.9204L69.9587 32.5498C69.9731 32.274 70.2084 32.0622 70.4841 32.0767ZM32.1672 32.6022C32.1528 32.3265 32.3646 32.0912 32.6404 32.0767C32.9162 32.0622 33.1514 32.274 33.1658 32.5498L36.0617 87.9204C36.0762 88.1961 35.8643 88.4314 35.5885 88.4459C35.3128 88.4604 35.0775 88.2486 35.0631 87.9728L32.1672 32.6022Z" fill="#333333"/>
</g>
<defs>
<clipPath id="clip0_4082_427434">
<rect width="100" height="100" fill="white"/>
</clipPath>
</defs>
</svg>
