<svg width="100" height="100" viewBox="0 0 100 100" fill="none" xmlns="http://www.w3.org/2000/svg">
<path d="M17 55.4999H17.5V54.9999V31V30.5H17H11C9.04108 30.5 7.41455 31.3808 6.28494 32.5842C5.16343 33.7789 4.5 35.3257 4.5 36.7152V54.9999V55.4999H5H17Z" fill="#ADADAD" stroke="#333333"/>
<path d="M81 30.5H80.5V31V46.9999V47.4999H81H93H93.5V46.9999V36.2096C93.5 32.6762 90.5593 30.5 87.6667 30.5H81Z" fill="#ADADAD" stroke="#333333"/>
<path d="M74.6665 2.5H75.1665V3V56.0001V56.5001H74.6665H11H10.5V56.0001V15.3678V15.1588L10.6488 15.0119L23.1794 2.64414L23.3254 2.5H23.5306H74.6665Z" fill="#333333"/>
<path d="M74.6665 2.5H75.1665V3V56.0001V56.5001H74.6665H11H10.5V56.0001V15.3678V15.1588L10.6488 15.0119L23.1794 2.64414L23.3254 2.5H23.5306H74.6665Z" fill="white" fill-opacity="0.88"/>
<path d="M74.6665 2.5H75.1665V3V56.0001V56.5001H74.6665H11H10.5V56.0001V15.3678V15.1588L10.6488 15.0119L23.1794 2.64414L23.3254 2.5H23.5306H74.6665Z" stroke="#333333"/>
<path d="M22.6464 2.64645C22.7894 2.50345 23.0045 2.46067 23.1913 2.53806C23.3782 2.61545 23.5 2.79777 23.5 3V15C23.5 15.2761 23.2761 15.5 23 15.5H11C10.7978 15.5 10.6155 15.3782 10.5381 15.1913C10.4607 15.0045 10.5034 14.7894 10.6464 14.6464L22.6464 2.64645Z" fill="#E07751" stroke="#333333" stroke-linejoin="round"/>
<path d="M87 12.5H87.5V13V67V67.5H87H23H22.5V67V25.6011V25.3941L22.6464 25.2476L35.2426 12.6465L35.3891 12.5H35.5962H87Z" fill="#333333"/>
<path d="M87 12.5H87.5V13V67V67.5H87H23H22.5V67V25.6011V25.3941L22.6464 25.2476L35.2426 12.6465L35.3891 12.5H35.5962H87Z" fill="white" fill-opacity="0.88"/>
<path d="M87 12.5H87.5V13V67V67.5H87H23H22.5V67V25.6011V25.3941L22.6464 25.2476L35.2426 12.6465L35.3891 12.5H35.5962H87Z" stroke="#333333"/>
<path d="M34.6464 12.6464C34.7894 12.5034 35.0045 12.4607 35.1913 12.5381C35.3782 12.6155 35.5 12.7978 35.5 13V25C35.5 25.2761 35.2761 25.5 35 25.5H23C22.7978 25.5 22.6155 25.3782 22.5381 25.1913C22.4607 25.0045 22.5034 24.7894 22.6464 24.6464L34.6464 12.6464Z" fill="#ADADAD" stroke="#333333" stroke-linejoin="round"/>
<path fill-rule="evenodd" clip-rule="evenodd" d="M79.4978 32.999C79.7739 32.999 79.9978 33.2229 79.9978 33.499C79.9978 33.7752 79.7739 33.999 79.4978 33.999H41.24C40.9638 33.999 40.74 33.7752 40.74 33.499C40.74 33.2229 40.9638 32.999 41.24 32.999H79.4978ZM78.6036 48.7217H79.1619C79.4381 48.7217 79.6619 48.4978 79.6619 48.2217C79.6619 47.9455 79.4381 47.7217 79.1619 47.7217H59.6974C59.5009 47.7217 59.3308 47.8351 59.2491 48H30.5008C30.2247 48 30.0008 48.2239 30.0008 48.5C30.0008 48.7761 30.2247 49 30.5008 49H78.1553C78.3519 49 78.5219 48.8866 78.6036 48.7217ZM79.9978 40.5C79.9978 40.2239 79.7739 40 79.4978 40H30.5009C30.2248 40 30.0009 40.2239 30.0009 40.5C30.0009 40.7761 30.2248 41 30.5009 41H79.4978C79.7739 41 79.9978 40.7761 79.9978 40.5Z" fill="#333333"/>
<path d="M68 24H46" stroke="#333333" stroke-linecap="round"/>
<path fill-rule="evenodd" clip-rule="evenodd" d="M46.9087 47.2391L40.8863 54.0228H6.06253C3.18567 54.0228 0.71251 56.6271 1.02706 58.7445L6.63442 93.1567C6.95553 95.2742 9.20001 97.5 12.0769 97.5H89.0957C91.9726 97.5 93.5497 95.6149 93.7135 93.4908L98.9674 48.6927C99.2296 47.3586 97.8927 45.5 95.5401 45.5H51.0045C49.4383 45.5 48.0293 46.0974 46.9087 47.2391Z" fill="#E07751" stroke="#333333"/>
<path d="M42.5 58.5V63.8974C42.5 64.6162 42.2088 65.2668 41.7378 65.7378C41.2668 66.2088 40.6162 66.5 39.8974 66.5H34.5" stroke="#333333"/>
<path d="M36.3051 88.3769L36.3051 88.3764L34.5169 66.0914L42.1422 58.5H63.3497L63.5022 58.5056C64.0348 58.5427 64.5355 58.7761 64.9034 59.1308C65.2702 59.4969 65.4955 59.9665 65.4999 60.4809L63.6757 88.3691C63.6757 88.3695 63.6756 88.3699 63.6756 88.3703C63.6334 88.97 63.3821 89.5109 62.9989 89.8978C62.6238 90.2704 62.1156 90.5 61.5397 90.5H38.4415C37.8679 90.5 37.3704 90.272 36.9924 89.9016C36.61 89.5206 36.3524 88.9726 36.3051 88.3769Z" stroke="#333333"/>
</svg>
