<svg width="100" height="100" viewBox="0 0 100 100" fill="none" xmlns="http://www.w3.org/2000/svg">
<g clip-path="url(#clip0_319_3444)">
<path d="M91 55.4999C90.9973 50.1923 89.139 44.7777 84.2842 44.7777C80.8924 44.7777 72.8461 49.0436 70.8409 44.3286C69.9806 42.3166 71.4014 25.1389 71.4014 21.6011L51.697 22.5398C47.1129 22.5398 45.3529 20.0972 45.7986 16.9593C46.3556 12.9969 48.4786 11.8621 48.4786 7.19486C48.4786 -1.39695 23.7007 -3.39165 23.7007 8.63149C23.7007 13.7418 30.2166 17.9637 26.0833 21.6169C23.3114 24.0669 4.03898 21.9984 1 21.9922V39.0252C1 43.1117 2.34936 45.2439 4.93075 45.2439C8.03781 45.2439 9.62417 42.4866 13.2616 42.4866C26.2305 42.4866 26.3425 70.9991 13.2616 70.9991C10.6472 70.9991 8.34441 69.2584 6.39744 68.5212C3.1359 67.2863 1 68.191 1 71.2925V91.1798C7.48646 91.1798 14.5135 91.5982 20.8452 91.2106C23.9709 91.0199 26.2114 90.7307 26.2114 88.3803C26.2114 85.6034 23.5678 83.1632 23.5395 80.0339C23.4928 74.8815 27.3236 70.4055 37.9898 70.4055C48.656 70.4055 51.8321 74.8712 51.8321 79.0952C51.8518 82.9083 48.7469 85.6661 48.7469 89.174C48.7469 90.4169 49.3287 91.3521 50.9256 91.3521H56.8378" stroke="#333333" stroke-dasharray="4 4"/>
<path d="M99.5 79C99.5 67.6785 90.3215 58.5 79 58.5C67.6785 58.5 58.5 67.6785 58.5 79C58.5 90.3215 67.6785 99.5 79 99.5C90.3215 99.5 99.5 90.3215 99.5 79Z" fill="url(#paint0_linear_319_3444)" stroke="#333333"/>
<path d="M81.3424 66.5001L81.3424 66.5L81.3332 66.5L76.6043 66.5C75.9648 66.5 75.4687 67.0267 75.4687 67.6515L75.4687 75.5149L67.6355 75.5154C67.6355 75.5154 67.6355 75.5154 67.6355 75.5154C66.996 75.5154 66.5 76.0421 66.5 76.6669L66.5 81.3631C66.5 81.9824 66.9906 82.5201 67.6355 82.5201L75.4687 82.5199L75.4687 90.3482C75.4687 90.9731 75.9648 91.4998 76.6042 91.4998L81.3332 91.5C81.9727 91.5 82.4687 90.9733 82.4687 90.3485L82.4687 82.5201L90.3645 82.5201C91.0094 82.5201 91.5 81.9824 91.5 81.3631L91.5 76.6669C91.5 76.0421 91.004 75.5154 90.3645 75.5154C90.3645 75.5154 90.3645 75.5154 90.3645 75.5154L82.4687 75.5151L82.4687 67.6515C82.4687 67.0247 81.9604 66.5114 81.3424 66.5001Z" fill="#FEFEFE" stroke="#333333"/>
</g>
<defs>
<linearGradient id="paint0_linear_319_3444" x1="65.6089" y1="58.3367" x2="82.5785" y2="84.5228" gradientUnits="userSpaceOnUse">
<stop stop-color="#FFC671"/>
<stop offset="1" stop-color="#FF6F3D"/>
</linearGradient>
<clipPath id="clip0_319_3444">
<rect width="100" height="100" fill="white"/>
</clipPath>
</defs>
</svg>
