<svg width="100" height="100" viewBox="0 0 100 100" fill="none" xmlns="http://www.w3.org/2000/svg">
<mask id="path-1-outside-1_4082_511609" maskUnits="userSpaceOnUse" x="6" y="52.4116" width="88" height="48" fill="black">
<rect fill="white" x="6" y="52.4116" width="88" height="48"/>
<path fill-rule="evenodd" clip-rule="evenodd" d="M84.857 63.1692C79.4357 59.4627 66.9125 54.9019 61.3067 53.8982C59.5717 54.5839 48.5567 52.8923 39.4876 53.5792C32.1201 55.8689 18.6708 60.6835 16.1258 63.1692C13.0787 66.1454 9.01573 76.7274 8 87.3214C31.7003 105.509 68.8459 97.2569 73.9094 95.7563C75.7639 95.1792 76.6094 94.8951 78.8821 94.0693C83.5202 92.2781 87.7567 89.8465 92 87.3214C90.9514 79.0422 88.2428 65.484 84.857 63.1692Z"/>
</mask>
<path fill-rule="evenodd" clip-rule="evenodd" d="M84.857 63.1692C79.4357 59.4627 66.9125 54.9019 61.3067 53.8982C59.5717 54.5839 48.5567 52.8923 39.4876 53.5792C32.1201 55.8689 18.6708 60.6835 16.1258 63.1692C13.0787 66.1454 9.01573 76.7274 8 87.3214C31.7003 105.509 68.8459 97.2569 73.9094 95.7563C75.7639 95.1792 76.6094 94.8951 78.8821 94.0693C83.5202 92.2781 87.7567 89.8465 92 87.3214C90.9514 79.0422 88.2428 65.484 84.857 63.1692Z" fill="#333333"/>
<path fill-rule="evenodd" clip-rule="evenodd" d="M84.857 63.1692C79.4357 59.4627 66.9125 54.9019 61.3067 53.8982C59.5717 54.5839 48.5567 52.8923 39.4876 53.5792C32.1201 55.8689 18.6708 60.6835 16.1258 63.1692C13.0787 66.1454 9.01573 76.7274 8 87.3214C31.7003 105.509 68.8459 97.2569 73.9094 95.7563C75.7639 95.1792 76.6094 94.8951 78.8821 94.0693C83.5202 92.2781 87.7567 89.8465 92 87.3214C90.9514 79.0422 88.2428 65.484 84.857 63.1692Z" fill="white" fill-opacity="0.88"/>
<path d="M84.857 63.1692L85.4214 62.3437L84.857 63.1692ZM61.3067 53.8982L61.483 52.9139L61.2033 52.8638L60.9392 52.9682L61.3067 53.8982ZM8 87.3214L7.00456 87.2259L6.95169 87.7774L7.3912 88.1147L8 87.3214ZM73.9094 95.7563L74.1936 96.7152L74.2066 96.7112L73.9094 95.7563ZM78.8821 94.0693L79.2236 95.0092L79.233 95.0058L79.2423 95.0022L78.8821 94.0693ZM92 87.3214L92.5114 88.1807L93.0744 87.8457L92.9921 87.1957L92 87.3214ZM39.4876 53.5792L39.4121 52.582L39.2991 52.5906L39.1908 52.6242L39.4876 53.5792ZM7.3912 88.1147C19.4926 97.4014 34.9629 99.899 47.9418 99.922C60.9323 99.945 71.5811 97.4893 74.1936 96.7151L73.6253 94.7975C71.1742 95.5239 60.7185 97.9446 47.9453 97.922C35.1604 97.8993 20.2077 95.4291 8.6088 86.528L7.3912 88.1147ZM74.2066 96.7112C76.0779 96.1288 76.9382 95.8396 79.2236 95.0092L78.5406 93.1294C76.2805 93.9506 75.45 94.2296 73.6123 94.8015L74.2066 96.7112ZM15.4271 62.4538C14.5546 63.306 13.6716 64.6331 12.8276 66.2449C11.9753 67.8726 11.1317 69.8514 10.3575 72.0575C8.80981 76.4681 7.52085 81.8411 7.00456 87.2259L8.99544 87.4168C9.49488 82.2076 10.7453 76.9927 12.2447 72.7197C12.9942 70.5841 13.8011 68.6972 14.5994 67.1727C15.406 65.6323 16.1735 64.5205 16.8246 63.8846L15.4271 62.4538ZM85.4214 62.3437C82.6109 60.4222 78.0353 58.322 73.509 56.5864C68.977 54.8487 64.3769 53.432 61.483 52.9139L61.1305 54.8825C63.8423 55.3681 68.3067 56.7337 72.793 58.4539C77.2851 60.1763 81.6817 62.2097 84.2926 63.9947L85.4214 62.3437ZM92.9921 87.1957C92.4639 83.026 91.5176 77.5223 90.2725 72.7559C89.6504 70.3749 88.9467 68.15 88.1718 66.3583C87.4208 64.6218 86.5241 63.0976 85.4214 62.3437L84.2926 63.9947C84.8828 64.3982 85.5943 65.4368 86.3362 67.1522C87.0542 68.8125 87.728 70.9287 88.3374 73.2614C89.5551 77.9226 90.4874 83.3376 91.0079 87.447L92.9921 87.1957ZM79.2423 95.0022C83.9666 93.1777 88.2666 90.7067 92.5114 88.1807L91.4886 86.462C87.2467 88.9862 83.0739 91.3785 78.5218 93.1365L79.2423 95.0022ZM60.9392 52.9682C60.9411 52.9674 60.9263 52.9733 60.8883 52.9822C60.8513 52.9909 60.8007 53.0006 60.734 53.0101C60.5994 53.0293 60.4229 53.0446 60.2003 53.0541C59.7545 53.0731 59.1771 53.0671 58.4771 53.0417C57.0753 52.9909 55.2746 52.8666 53.2086 52.7401C49.106 52.4889 44.0227 52.2329 39.4121 52.582L39.5631 54.5763C44.0216 54.2387 48.9804 54.485 53.0863 54.7364C55.1245 54.8612 56.9697 54.9884 58.4046 55.0404C59.123 55.0664 59.7616 55.0747 60.2857 55.0523C60.7723 55.0315 61.2857 54.9818 61.6743 54.8282L60.9392 52.9682ZM39.1908 52.6242C35.4877 53.7751 30.2607 55.559 25.6339 57.3695C23.3214 58.2744 21.1452 59.1912 19.3791 60.0435C17.6561 60.875 16.1955 61.7034 15.4271 62.4538L16.8246 63.8846C17.3287 63.3922 18.5036 62.6866 20.2483 61.8447C21.95 61.0236 24.0738 60.1276 26.3627 59.232C30.9387 57.4413 36.12 55.673 39.7844 54.5341L39.1908 52.6242Z" fill="#333333" mask="url(#path-1-outside-1_4082_511609)"/>
<path d="M39.2574 53.049L39.1887 53.3214L39.3856 53.5218C40.5567 54.7133 42.2435 55.5697 44.1417 56.127C46.0452 56.6858 48.1951 56.9539 50.3294 56.9442C52.4638 56.9346 54.599 56.6472 56.4732 56.0836C58.3411 55.5218 59.9866 54.6744 61.1016 53.5184L61.3148 53.2973L61.2141 53.0072C60.3631 50.5566 60.3055 48.0084 60.2781 45.3641V45.364V45.3639V45.3637V45.3635V45.3633V45.3631V45.3629V45.3627V45.3625V45.3623V45.3621V45.3619V45.3617V45.3614V45.3612V45.361V45.3608V45.3605V45.3603V45.36V45.3598V45.3596V45.3593V45.359V45.3588V45.3585V45.3583V45.358V45.3577V45.3574V45.3572V45.3569V45.3566V45.3563V45.356V45.3557V45.3554V45.3551V45.3548V45.3545V45.3542V45.3539V45.3535V45.3532V45.3529V45.3526V45.3522V45.3519V45.3516V45.3512V45.3509V45.3505V45.3502V45.3498V45.3495V45.3491V45.3487V45.3484V45.348V45.3476V45.3472V45.3469V45.3465V45.3461V45.3457V45.3453V45.3449V45.3445V45.3441V45.3437V45.3433V45.3429V45.3425V45.3421V45.3417V45.3412V45.3408V45.3404V45.3399V45.3395V45.3391V45.3386V45.3382V45.3378V45.3373V45.3369V45.3364V45.3359V45.3355V45.335V45.3346V45.3341V45.3336V45.3331V45.3327V45.3322V45.3317V45.3312V45.3307V45.3303V45.3298V45.3293V45.3288V45.3283V45.3278V45.3273V45.3268V45.3262V45.3257V45.3252V45.3247V45.3242V45.3237V45.3231V45.3226V45.3221V45.3215V45.321V45.3205V45.3199V45.3194V45.3188V45.3183V45.3177V45.3172V45.3166V45.3161V45.3155V45.3149V45.3144V45.3138V45.3132V45.3127V45.3121V45.3115V45.3109V45.3103V45.3098V45.3092V45.3086V45.308V45.3074V45.3068V45.3062V45.3056V45.305V45.3044V45.3038V45.3032V45.3026V45.302V45.3013V45.3007V45.3001V45.2995V45.2989V45.2982V45.2976V45.297V45.2963V45.2957V45.2951V45.2944V45.2938V45.2931V45.2925V45.2918V45.2912V45.2905V45.2899V45.2892V45.2886V45.2879V45.2873V45.2866V45.2859V45.2853V45.2846V45.2839V45.2832V45.2826V45.2819V45.2812V45.2805V45.2799V45.2792V45.2785V45.2778V45.2771V45.2764V45.2757V45.275V45.2743V45.2736V45.2729V45.2722V45.2715V45.2708V45.2701V45.2694V45.2687V45.268V45.2673V45.2665V45.2658V45.2651V45.2644V45.2637V45.2629V45.2622V45.2615V45.2608V45.26V45.2593V45.2586V45.2578V45.2571V45.2564V45.2556V45.2549V45.2541V45.2534V45.2526V45.2519V45.2511V45.2504V45.2496V45.2489V45.2481V45.2474V45.2466V45.2459V45.2451V45.2443V45.2436V45.2428V45.242V45.2413V45.2405V45.2397V45.239V45.2382V45.2374V45.2367V45.2359V45.2351V45.2343V45.2335V45.2328V45.232V45.2312V45.2304V45.2296V45.2288V45.2281V45.2273V45.2265V45.2257V45.2249V45.2241V45.2233V45.2225V45.2217V45.2209V45.2201V45.2193V45.2185V45.2177V45.2169V45.2161V45.2153V45.2145V45.2137V45.2129V45.2121V45.2113V45.2104V45.2096V45.2088V45.208V45.2072V45.2064V45.2056V45.2047V45.2039V45.2031V45.2023V45.2015V45.2006V45.1998V45.199V45.1982V45.1974V45.1965V45.1957V45.1949V45.194V45.1932V45.1924V45.1916V45.1907V45.1899V45.1891V45.1882V45.1874V45.1866V45.1857V45.1849V45.1841V45.1832V45.1824V45.1815V45.1807V45.1799V45.179V45.1782V45.1774V45.1765V45.1757V45.1748V45.174V45.1731V45.1723V45.1715V45.1706V45.1698V45.1689V45.1681V45.1672V45.1664V45.1655V45.1647V45.1638V45.163V45.1621V45.1613V45.1604V45.1596V45.1587V45.1579V45.157V45.1562V45.1553V45.1545V45.1536V45.1528V45.1519V45.1511V45.1502V45.1494V45.1485V45.1477V45.1468V45.146V45.1451V45.1443V45.1434V45.1425V45.1417V45.1408V45.14V45.1391V45.1383V45.1374V45.1366V45.1357V45.1349V45.134V45.1331V45.1323V45.1314V45.1306V45.1297V45.1289V45.128V45.1272V45.1263V45.1254V45.1246V45.1237V45.1229V45.122V45.1212V45.1203V45.1195V45.1186V45.1178V45.1169V45.116V45.1152V45.1143V45.1135V45.1126V45.1118V45.1109V45.1101V45.1092V45.1084V45.1075V45.1067V45.1058V45.105V45.1041V45.1033V45.1024V45.1016V45.1007V45.0999V45.099V45.0982V45.0973V45.0965V45.0956V45.0948V45.0939V45.0931V45.0922V45.0914V45.0906V45.0897V45.0889V45.088V45.0872V45.0863V45.0855V45.0847V45.0838V45.083V45.0821V45.0813V45.0805V45.0796V45.0788V45.078V45.0771V45.0763V45.0755V45.0746V45.0738V45.073V45.0721V45.0713V45.0705V45.0696V45.0688V45.068V45.0671V45.0663V45.0655V45.0647V45.0638V45.063V45.0622V45.0614V45.0606V45.0597V45.0589V45.0581V45.0573V45.0565V45.0557V45.0548V45.054V45.0532V45.0524V45.0516V45.0508V45.05V45.0492V45.0484V45.0475V45.0467V45.0459V45.0451V45.0443V45.0435V45.0427V45.0419V45.0411V45.0403V45.0395V45.0387V45.038V45.0372V45.0364V45.0356V45.0348V45.034V45.0332V45.0324V45.0316V45.0309V45.0301V45.0293V44.0512L59.4853 44.624C56.6995 46.6366 53.428 47.7967 49.9238 47.7967C46.6302 47.7967 43.5355 46.7738 40.8667 44.9785L40.0876 44.4544V45.3933V45.3939V45.3944V45.3949V45.3954V45.3959V45.3965V45.397V45.3975V45.398V45.3985V45.3991V45.3996V45.4001V45.4006V45.4011V45.4017V45.4022V45.4027V45.4032V45.4037V45.4043V45.4048V45.4053V45.4058V45.4063V45.4068V45.4074V45.4079V45.4084V45.4089V45.4094V45.41V45.4105V45.411V45.4115V45.412V45.4126V45.4131V45.4136V45.4141V45.4146V45.4151V45.4157V45.4162V45.4167V45.4172V45.4177V45.4182V45.4188V45.4193V45.4198V45.4203V45.4208V45.4213V45.4218V45.4224V45.4229V45.4234V45.4239V45.4244V45.4249V45.4254V45.426V45.4265V45.427V45.4275V45.428V45.4285V45.429V45.4295V45.4301V45.4306V45.4311V45.4316V45.4321V45.4326V45.4331V45.4336V45.4341V45.4346V45.4352V45.4357V45.4362V45.4367V45.4372V45.4377V45.4382V45.4387V45.4392V45.4397V45.4402V45.4407V45.4412V45.4417V45.4422V45.4427V45.4433V45.4438V45.4443V45.4448V45.4453V45.4458V45.4463V45.4468V45.4473V45.4478V45.4483V45.4488V45.4493V45.4498V45.4503V45.4508V45.4513V45.4518V45.4523V45.4528V45.4532V45.4537V45.4542V45.4547V45.4552V45.4557V45.4562V45.4567V45.4572V45.4577V45.4582V45.4587V45.4592V45.4597V45.4601V45.4606V45.4611V45.4616V45.4621V45.4626V45.4631V45.4636V45.464V45.4645V45.465V45.4655V45.466V45.4665V45.467V45.4674V45.4679V45.4684V45.4689V45.4694V45.4698V45.4703V45.4708V45.4713V45.4718V45.4722V45.4727V45.4732V45.4737V45.4741V45.4746V45.4751V45.4756V45.476V45.4765V45.477V45.4774V45.4779V45.4784V45.4789V45.4793V45.4798V45.4803V45.4807V45.4812V45.4817V45.4821V45.4826V45.483V45.4835V45.484V45.4844V45.4849V45.4853V45.4858V45.4863V45.4867V45.4872V45.4876V45.4881V45.4886V45.489V45.4895V45.4899V45.4904V45.4908V45.4913V45.4917V45.4922V45.4926V45.4931V45.4935V45.494V45.4944V45.4949V45.4953V45.4957V45.4962V45.4966V45.4971V45.4975V45.498V45.4984V45.4988V45.4993V45.4997V45.5001V45.5006V45.501V45.5014V45.5019V45.5023V45.5027V45.5032V45.5036V45.504V45.5045V45.5049V45.5053V45.5057V45.5062V45.5066V45.507V45.5074V45.5079V45.5083V45.5087V45.5091V45.5095V45.51V45.5104V45.5108V45.5112V45.5116V45.512V45.5125V45.5129V45.5133V45.5137V45.5141V45.5145V45.5149V45.5153V45.5157V45.5161V45.5165V45.5169V45.5173V45.5177V45.5181V45.5185V45.5189V45.5193V45.5197V45.5201V45.5205V45.5209V45.5213V45.5217V45.5221V45.5225V45.5229V45.5232V45.5236V45.524V45.5244V45.5248V45.5252V45.5256V45.5259V45.5263V45.5267V45.5271V45.5274V45.5278V45.5282V45.5286V45.5289V45.5293V45.5297V45.5301V45.5304V45.5308V45.5312V45.5315V45.5319V45.5323V45.5326V45.533V45.5333V45.5337V45.5341V45.5344V45.5348V45.5351V45.5355V45.5358V45.5362V45.5365V45.5369V45.5372V45.5376V45.5379V45.5383V45.5386V45.5389V45.5393V45.5396V45.54V45.5403V45.5406V45.541V45.5413V45.5416V45.542V45.5423V45.5426V45.543V45.5433V45.5436V45.5439V45.5443V45.5446V45.5449V45.5452V45.5456V45.5459V45.5462V45.5465V45.5468V45.5471V45.5474V45.5478V45.5481V45.5484V45.5487V45.549V45.5493V45.5496V45.5499V45.5502V45.5505V45.5508V45.5511V45.5514V45.5517V45.552V45.5523V45.5526V45.5528V45.5531V45.5534V45.5537V45.554V45.5543V45.5546V45.5548V45.5551V45.5554V45.5557V45.5559V45.5562V45.5565V45.5568V45.557V45.5573V45.5576V45.5578V45.5581V45.5584V45.5586V45.5589V45.5591V45.5594V45.5597V45.5599V45.5602V45.5604V45.5607V45.5609V45.5612V45.5614V45.5617V45.5619V45.5621V45.5624V45.5626V45.5629V45.5631V45.5633V45.5636V45.5638V45.564V45.5643V45.5645V45.5647V45.5649V45.5652V45.5654V45.5656V45.5658V45.566V45.5663V45.5665V45.5667V45.5668C40.0832 45.652 40.0788 45.7371 40.0744 45.8221C39.9426 48.3628 39.8142 50.84 39.2574 53.049Z" fill="#333333"/>
<path d="M39.2574 53.049L39.1887 53.3214L39.3856 53.5218C40.5567 54.7133 42.2435 55.5697 44.1417 56.127C46.0452 56.6858 48.1951 56.9539 50.3294 56.9442C52.4638 56.9346 54.599 56.6472 56.4732 56.0836C58.3411 55.5218 59.9866 54.6744 61.1016 53.5184L61.3148 53.2973L61.2141 53.0072C60.3631 50.5566 60.3055 48.0084 60.2781 45.3641V45.364V45.3639V45.3637V45.3635V45.3633V45.3631V45.3629V45.3627V45.3625V45.3623V45.3621V45.3619V45.3617V45.3614V45.3612V45.361V45.3608V45.3605V45.3603V45.36V45.3598V45.3596V45.3593V45.359V45.3588V45.3585V45.3583V45.358V45.3577V45.3574V45.3572V45.3569V45.3566V45.3563V45.356V45.3557V45.3554V45.3551V45.3548V45.3545V45.3542V45.3539V45.3535V45.3532V45.3529V45.3526V45.3522V45.3519V45.3516V45.3512V45.3509V45.3505V45.3502V45.3498V45.3495V45.3491V45.3487V45.3484V45.348V45.3476V45.3472V45.3469V45.3465V45.3461V45.3457V45.3453V45.3449V45.3445V45.3441V45.3437V45.3433V45.3429V45.3425V45.3421V45.3417V45.3412V45.3408V45.3404V45.3399V45.3395V45.3391V45.3386V45.3382V45.3378V45.3373V45.3369V45.3364V45.3359V45.3355V45.335V45.3346V45.3341V45.3336V45.3331V45.3327V45.3322V45.3317V45.3312V45.3307V45.3303V45.3298V45.3293V45.3288V45.3283V45.3278V45.3273V45.3268V45.3262V45.3257V45.3252V45.3247V45.3242V45.3237V45.3231V45.3226V45.3221V45.3215V45.321V45.3205V45.3199V45.3194V45.3188V45.3183V45.3177V45.3172V45.3166V45.3161V45.3155V45.3149V45.3144V45.3138V45.3132V45.3127V45.3121V45.3115V45.3109V45.3103V45.3098V45.3092V45.3086V45.308V45.3074V45.3068V45.3062V45.3056V45.305V45.3044V45.3038V45.3032V45.3026V45.302V45.3013V45.3007V45.3001V45.2995V45.2989V45.2982V45.2976V45.297V45.2963V45.2957V45.2951V45.2944V45.2938V45.2931V45.2925V45.2918V45.2912V45.2905V45.2899V45.2892V45.2886V45.2879V45.2873V45.2866V45.2859V45.2853V45.2846V45.2839V45.2832V45.2826V45.2819V45.2812V45.2805V45.2799V45.2792V45.2785V45.2778V45.2771V45.2764V45.2757V45.275V45.2743V45.2736V45.2729V45.2722V45.2715V45.2708V45.2701V45.2694V45.2687V45.268V45.2673V45.2665V45.2658V45.2651V45.2644V45.2637V45.2629V45.2622V45.2615V45.2608V45.26V45.2593V45.2586V45.2578V45.2571V45.2564V45.2556V45.2549V45.2541V45.2534V45.2526V45.2519V45.2511V45.2504V45.2496V45.2489V45.2481V45.2474V45.2466V45.2459V45.2451V45.2443V45.2436V45.2428V45.242V45.2413V45.2405V45.2397V45.239V45.2382V45.2374V45.2367V45.2359V45.2351V45.2343V45.2335V45.2328V45.232V45.2312V45.2304V45.2296V45.2288V45.2281V45.2273V45.2265V45.2257V45.2249V45.2241V45.2233V45.2225V45.2217V45.2209V45.2201V45.2193V45.2185V45.2177V45.2169V45.2161V45.2153V45.2145V45.2137V45.2129V45.2121V45.2113V45.2104V45.2096V45.2088V45.208V45.2072V45.2064V45.2056V45.2047V45.2039V45.2031V45.2023V45.2015V45.2006V45.1998V45.199V45.1982V45.1974V45.1965V45.1957V45.1949V45.194V45.1932V45.1924V45.1916V45.1907V45.1899V45.1891V45.1882V45.1874V45.1866V45.1857V45.1849V45.1841V45.1832V45.1824V45.1815V45.1807V45.1799V45.179V45.1782V45.1774V45.1765V45.1757V45.1748V45.174V45.1731V45.1723V45.1715V45.1706V45.1698V45.1689V45.1681V45.1672V45.1664V45.1655V45.1647V45.1638V45.163V45.1621V45.1613V45.1604V45.1596V45.1587V45.1579V45.157V45.1562V45.1553V45.1545V45.1536V45.1528V45.1519V45.1511V45.1502V45.1494V45.1485V45.1477V45.1468V45.146V45.1451V45.1443V45.1434V45.1425V45.1417V45.1408V45.14V45.1391V45.1383V45.1374V45.1366V45.1357V45.1349V45.134V45.1331V45.1323V45.1314V45.1306V45.1297V45.1289V45.128V45.1272V45.1263V45.1254V45.1246V45.1237V45.1229V45.122V45.1212V45.1203V45.1195V45.1186V45.1178V45.1169V45.116V45.1152V45.1143V45.1135V45.1126V45.1118V45.1109V45.1101V45.1092V45.1084V45.1075V45.1067V45.1058V45.105V45.1041V45.1033V45.1024V45.1016V45.1007V45.0999V45.099V45.0982V45.0973V45.0965V45.0956V45.0948V45.0939V45.0931V45.0922V45.0914V45.0906V45.0897V45.0889V45.088V45.0872V45.0863V45.0855V45.0847V45.0838V45.083V45.0821V45.0813V45.0805V45.0796V45.0788V45.078V45.0771V45.0763V45.0755V45.0746V45.0738V45.073V45.0721V45.0713V45.0705V45.0696V45.0688V45.068V45.0671V45.0663V45.0655V45.0647V45.0638V45.063V45.0622V45.0614V45.0606V45.0597V45.0589V45.0581V45.0573V45.0565V45.0557V45.0548V45.054V45.0532V45.0524V45.0516V45.0508V45.05V45.0492V45.0484V45.0475V45.0467V45.0459V45.0451V45.0443V45.0435V45.0427V45.0419V45.0411V45.0403V45.0395V45.0387V45.038V45.0372V45.0364V45.0356V45.0348V45.034V45.0332V45.0324V45.0316V45.0309V45.0301V45.0293V44.0512L59.4853 44.624C56.6995 46.6366 53.428 47.7967 49.9238 47.7967C46.6302 47.7967 43.5355 46.7738 40.8667 44.9785L40.0876 44.4544V45.3933V45.3939V45.3944V45.3949V45.3954V45.3959V45.3965V45.397V45.3975V45.398V45.3985V45.3991V45.3996V45.4001V45.4006V45.4011V45.4017V45.4022V45.4027V45.4032V45.4037V45.4043V45.4048V45.4053V45.4058V45.4063V45.4068V45.4074V45.4079V45.4084V45.4089V45.4094V45.41V45.4105V45.411V45.4115V45.412V45.4126V45.4131V45.4136V45.4141V45.4146V45.4151V45.4157V45.4162V45.4167V45.4172V45.4177V45.4182V45.4188V45.4193V45.4198V45.4203V45.4208V45.4213V45.4218V45.4224V45.4229V45.4234V45.4239V45.4244V45.4249V45.4254V45.426V45.4265V45.427V45.4275V45.428V45.4285V45.429V45.4295V45.4301V45.4306V45.4311V45.4316V45.4321V45.4326V45.4331V45.4336V45.4341V45.4346V45.4352V45.4357V45.4362V45.4367V45.4372V45.4377V45.4382V45.4387V45.4392V45.4397V45.4402V45.4407V45.4412V45.4417V45.4422V45.4427V45.4433V45.4438V45.4443V45.4448V45.4453V45.4458V45.4463V45.4468V45.4473V45.4478V45.4483V45.4488V45.4493V45.4498V45.4503V45.4508V45.4513V45.4518V45.4523V45.4528V45.4532V45.4537V45.4542V45.4547V45.4552V45.4557V45.4562V45.4567V45.4572V45.4577V45.4582V45.4587V45.4592V45.4597V45.4601V45.4606V45.4611V45.4616V45.4621V45.4626V45.4631V45.4636V45.464V45.4645V45.465V45.4655V45.466V45.4665V45.467V45.4674V45.4679V45.4684V45.4689V45.4694V45.4698V45.4703V45.4708V45.4713V45.4718V45.4722V45.4727V45.4732V45.4737V45.4741V45.4746V45.4751V45.4756V45.476V45.4765V45.477V45.4774V45.4779V45.4784V45.4789V45.4793V45.4798V45.4803V45.4807V45.4812V45.4817V45.4821V45.4826V45.483V45.4835V45.484V45.4844V45.4849V45.4853V45.4858V45.4863V45.4867V45.4872V45.4876V45.4881V45.4886V45.489V45.4895V45.4899V45.4904V45.4908V45.4913V45.4917V45.4922V45.4926V45.4931V45.4935V45.494V45.4944V45.4949V45.4953V45.4957V45.4962V45.4966V45.4971V45.4975V45.498V45.4984V45.4988V45.4993V45.4997V45.5001V45.5006V45.501V45.5014V45.5019V45.5023V45.5027V45.5032V45.5036V45.504V45.5045V45.5049V45.5053V45.5057V45.5062V45.5066V45.507V45.5074V45.5079V45.5083V45.5087V45.5091V45.5095V45.51V45.5104V45.5108V45.5112V45.5116V45.512V45.5125V45.5129V45.5133V45.5137V45.5141V45.5145V45.5149V45.5153V45.5157V45.5161V45.5165V45.5169V45.5173V45.5177V45.5181V45.5185V45.5189V45.5193V45.5197V45.5201V45.5205V45.5209V45.5213V45.5217V45.5221V45.5225V45.5229V45.5232V45.5236V45.524V45.5244V45.5248V45.5252V45.5256V45.5259V45.5263V45.5267V45.5271V45.5274V45.5278V45.5282V45.5286V45.5289V45.5293V45.5297V45.5301V45.5304V45.5308V45.5312V45.5315V45.5319V45.5323V45.5326V45.533V45.5333V45.5337V45.5341V45.5344V45.5348V45.5351V45.5355V45.5358V45.5362V45.5365V45.5369V45.5372V45.5376V45.5379V45.5383V45.5386V45.5389V45.5393V45.5396V45.54V45.5403V45.5406V45.541V45.5413V45.5416V45.542V45.5423V45.5426V45.543V45.5433V45.5436V45.5439V45.5443V45.5446V45.5449V45.5452V45.5456V45.5459V45.5462V45.5465V45.5468V45.5471V45.5474V45.5478V45.5481V45.5484V45.5487V45.549V45.5493V45.5496V45.5499V45.5502V45.5505V45.5508V45.5511V45.5514V45.5517V45.552V45.5523V45.5526V45.5528V45.5531V45.5534V45.5537V45.554V45.5543V45.5546V45.5548V45.5551V45.5554V45.5557V45.5559V45.5562V45.5565V45.5568V45.557V45.5573V45.5576V45.5578V45.5581V45.5584V45.5586V45.5589V45.5591V45.5594V45.5597V45.5599V45.5602V45.5604V45.5607V45.5609V45.5612V45.5614V45.5617V45.5619V45.5621V45.5624V45.5626V45.5629V45.5631V45.5633V45.5636V45.5638V45.564V45.5643V45.5645V45.5647V45.5649V45.5652V45.5654V45.5656V45.5658V45.566V45.5663V45.5665V45.5667V45.5668C40.0832 45.652 40.0788 45.7371 40.0744 45.8221C39.9426 48.3628 39.8142 50.84 39.2574 53.049Z" fill="white" fill-opacity="0.88"/>
<path d="M39.2574 53.049L39.1887 53.3214L39.3856 53.5218C40.5567 54.7133 42.2435 55.5697 44.1417 56.127C46.0452 56.6858 48.1951 56.9539 50.3294 56.9442C52.4638 56.9346 54.599 56.6472 56.4732 56.0836C58.3411 55.5218 59.9866 54.6744 61.1016 53.5184L61.3148 53.2973L61.2141 53.0072C60.3631 50.5566 60.3055 48.0084 60.2781 45.3641V45.364V45.3639V45.3637V45.3635V45.3633V45.3631V45.3629V45.3627V45.3625V45.3623V45.3621V45.3619V45.3617V45.3614V45.3612V45.361V45.3608V45.3605V45.3603V45.36V45.3598V45.3596V45.3593V45.359V45.3588V45.3585V45.3583V45.358V45.3577V45.3574V45.3572V45.3569V45.3566V45.3563V45.356V45.3557V45.3554V45.3551V45.3548V45.3545V45.3542V45.3539V45.3535V45.3532V45.3529V45.3526V45.3522V45.3519V45.3516V45.3512V45.3509V45.3505V45.3502V45.3498V45.3495V45.3491V45.3487V45.3484V45.348V45.3476V45.3472V45.3469V45.3465V45.3461V45.3457V45.3453V45.3449V45.3445V45.3441V45.3437V45.3433V45.3429V45.3425V45.3421V45.3417V45.3412V45.3408V45.3404V45.3399V45.3395V45.3391V45.3386V45.3382V45.3378V45.3373V45.3369V45.3364V45.3359V45.3355V45.335V45.3346V45.3341V45.3336V45.3331V45.3327V45.3322V45.3317V45.3312V45.3307V45.3303V45.3298V45.3293V45.3288V45.3283V45.3278V45.3273V45.3268V45.3262V45.3257V45.3252V45.3247V45.3242V45.3237V45.3231V45.3226V45.3221V45.3215V45.321V45.3205V45.3199V45.3194V45.3188V45.3183V45.3177V45.3172V45.3166V45.3161V45.3155V45.3149V45.3144V45.3138V45.3132V45.3127V45.3121V45.3115V45.3109V45.3103V45.3098V45.3092V45.3086V45.308V45.3074V45.3068V45.3062V45.3056V45.305V45.3044V45.3038V45.3032V45.3026V45.302V45.3013V45.3007V45.3001V45.2995V45.2989V45.2982V45.2976V45.297V45.2963V45.2957V45.2951V45.2944V45.2938V45.2931V45.2925V45.2918V45.2912V45.2905V45.2899V45.2892V45.2886V45.2879V45.2873V45.2866V45.2859V45.2853V45.2846V45.2839V45.2832V45.2826V45.2819V45.2812V45.2805V45.2799V45.2792V45.2785V45.2778V45.2771V45.2764V45.2757V45.275V45.2743V45.2736V45.2729V45.2722V45.2715V45.2708V45.2701V45.2694V45.2687V45.268V45.2673V45.2665V45.2658V45.2651V45.2644V45.2637V45.2629V45.2622V45.2615V45.2608V45.26V45.2593V45.2586V45.2578V45.2571V45.2564V45.2556V45.2549V45.2541V45.2534V45.2526V45.2519V45.2511V45.2504V45.2496V45.2489V45.2481V45.2474V45.2466V45.2459V45.2451V45.2443V45.2436V45.2428V45.242V45.2413V45.2405V45.2397V45.239V45.2382V45.2374V45.2367V45.2359V45.2351V45.2343V45.2335V45.2328V45.232V45.2312V45.2304V45.2296V45.2288V45.2281V45.2273V45.2265V45.2257V45.2249V45.2241V45.2233V45.2225V45.2217V45.2209V45.2201V45.2193V45.2185V45.2177V45.2169V45.2161V45.2153V45.2145V45.2137V45.2129V45.2121V45.2113V45.2104V45.2096V45.2088V45.208V45.2072V45.2064V45.2056V45.2047V45.2039V45.2031V45.2023V45.2015V45.2006V45.1998V45.199V45.1982V45.1974V45.1965V45.1957V45.1949V45.194V45.1932V45.1924V45.1916V45.1907V45.1899V45.1891V45.1882V45.1874V45.1866V45.1857V45.1849V45.1841V45.1832V45.1824V45.1815V45.1807V45.1799V45.179V45.1782V45.1774V45.1765V45.1757V45.1748V45.174V45.1731V45.1723V45.1715V45.1706V45.1698V45.1689V45.1681V45.1672V45.1664V45.1655V45.1647V45.1638V45.163V45.1621V45.1613V45.1604V45.1596V45.1587V45.1579V45.157V45.1562V45.1553V45.1545V45.1536V45.1528V45.1519V45.1511V45.1502V45.1494V45.1485V45.1477V45.1468V45.146V45.1451V45.1443V45.1434V45.1425V45.1417V45.1408V45.14V45.1391V45.1383V45.1374V45.1366V45.1357V45.1349V45.134V45.1331V45.1323V45.1314V45.1306V45.1297V45.1289V45.128V45.1272V45.1263V45.1254V45.1246V45.1237V45.1229V45.122V45.1212V45.1203V45.1195V45.1186V45.1178V45.1169V45.116V45.1152V45.1143V45.1135V45.1126V45.1118V45.1109V45.1101V45.1092V45.1084V45.1075V45.1067V45.1058V45.105V45.1041V45.1033V45.1024V45.1016V45.1007V45.0999V45.099V45.0982V45.0973V45.0965V45.0956V45.0948V45.0939V45.0931V45.0922V45.0914V45.0906V45.0897V45.0889V45.088V45.0872V45.0863V45.0855V45.0847V45.0838V45.083V45.0821V45.0813V45.0805V45.0796V45.0788V45.078V45.0771V45.0763V45.0755V45.0746V45.0738V45.073V45.0721V45.0713V45.0705V45.0696V45.0688V45.068V45.0671V45.0663V45.0655V45.0647V45.0638V45.063V45.0622V45.0614V45.0606V45.0597V45.0589V45.0581V45.0573V45.0565V45.0557V45.0548V45.054V45.0532V45.0524V45.0516V45.0508V45.05V45.0492V45.0484V45.0475V45.0467V45.0459V45.0451V45.0443V45.0435V45.0427V45.0419V45.0411V45.0403V45.0395V45.0387V45.038V45.0372V45.0364V45.0356V45.0348V45.034V45.0332V45.0324V45.0316V45.0309V45.0301V45.0293V44.0512L59.4853 44.624C56.6995 46.6366 53.428 47.7967 49.9238 47.7967C46.6302 47.7967 43.5355 46.7738 40.8667 44.9785L40.0876 44.4544V45.3933V45.3939V45.3944V45.3949V45.3954V45.3959V45.3965V45.397V45.3975V45.398V45.3985V45.3991V45.3996V45.4001V45.4006V45.4011V45.4017V45.4022V45.4027V45.4032V45.4037V45.4043V45.4048V45.4053V45.4058V45.4063V45.4068V45.4074V45.4079V45.4084V45.4089V45.4094V45.41V45.4105V45.411V45.4115V45.412V45.4126V45.4131V45.4136V45.4141V45.4146V45.4151V45.4157V45.4162V45.4167V45.4172V45.4177V45.4182V45.4188V45.4193V45.4198V45.4203V45.4208V45.4213V45.4218V45.4224V45.4229V45.4234V45.4239V45.4244V45.4249V45.4254V45.426V45.4265V45.427V45.4275V45.428V45.4285V45.429V45.4295V45.4301V45.4306V45.4311V45.4316V45.4321V45.4326V45.4331V45.4336V45.4341V45.4346V45.4352V45.4357V45.4362V45.4367V45.4372V45.4377V45.4382V45.4387V45.4392V45.4397V45.4402V45.4407V45.4412V45.4417V45.4422V45.4427V45.4433V45.4438V45.4443V45.4448V45.4453V45.4458V45.4463V45.4468V45.4473V45.4478V45.4483V45.4488V45.4493V45.4498V45.4503V45.4508V45.4513V45.4518V45.4523V45.4528V45.4532V45.4537V45.4542V45.4547V45.4552V45.4557V45.4562V45.4567V45.4572V45.4577V45.4582V45.4587V45.4592V45.4597V45.4601V45.4606V45.4611V45.4616V45.4621V45.4626V45.4631V45.4636V45.464V45.4645V45.465V45.4655V45.466V45.4665V45.467V45.4674V45.4679V45.4684V45.4689V45.4694V45.4698V45.4703V45.4708V45.4713V45.4718V45.4722V45.4727V45.4732V45.4737V45.4741V45.4746V45.4751V45.4756V45.476V45.4765V45.477V45.4774V45.4779V45.4784V45.4789V45.4793V45.4798V45.4803V45.4807V45.4812V45.4817V45.4821V45.4826V45.483V45.4835V45.484V45.4844V45.4849V45.4853V45.4858V45.4863V45.4867V45.4872V45.4876V45.4881V45.4886V45.489V45.4895V45.4899V45.4904V45.4908V45.4913V45.4917V45.4922V45.4926V45.4931V45.4935V45.494V45.4944V45.4949V45.4953V45.4957V45.4962V45.4966V45.4971V45.4975V45.498V45.4984V45.4988V45.4993V45.4997V45.5001V45.5006V45.501V45.5014V45.5019V45.5023V45.5027V45.5032V45.5036V45.504V45.5045V45.5049V45.5053V45.5057V45.5062V45.5066V45.507V45.5074V45.5079V45.5083V45.5087V45.5091V45.5095V45.51V45.5104V45.5108V45.5112V45.5116V45.512V45.5125V45.5129V45.5133V45.5137V45.5141V45.5145V45.5149V45.5153V45.5157V45.5161V45.5165V45.5169V45.5173V45.5177V45.5181V45.5185V45.5189V45.5193V45.5197V45.5201V45.5205V45.5209V45.5213V45.5217V45.5221V45.5225V45.5229V45.5232V45.5236V45.524V45.5244V45.5248V45.5252V45.5256V45.5259V45.5263V45.5267V45.5271V45.5274V45.5278V45.5282V45.5286V45.5289V45.5293V45.5297V45.5301V45.5304V45.5308V45.5312V45.5315V45.5319V45.5323V45.5326V45.533V45.5333V45.5337V45.5341V45.5344V45.5348V45.5351V45.5355V45.5358V45.5362V45.5365V45.5369V45.5372V45.5376V45.5379V45.5383V45.5386V45.5389V45.5393V45.5396V45.54V45.5403V45.5406V45.541V45.5413V45.5416V45.542V45.5423V45.5426V45.543V45.5433V45.5436V45.5439V45.5443V45.5446V45.5449V45.5452V45.5456V45.5459V45.5462V45.5465V45.5468V45.5471V45.5474V45.5478V45.5481V45.5484V45.5487V45.549V45.5493V45.5496V45.5499V45.5502V45.5505V45.5508V45.5511V45.5514V45.5517V45.552V45.5523V45.5526V45.5528V45.5531V45.5534V45.5537V45.554V45.5543V45.5546V45.5548V45.5551V45.5554V45.5557V45.5559V45.5562V45.5565V45.5568V45.557V45.5573V45.5576V45.5578V45.5581V45.5584V45.5586V45.5589V45.5591V45.5594V45.5597V45.5599V45.5602V45.5604V45.5607V45.5609V45.5612V45.5614V45.5617V45.5619V45.5621V45.5624V45.5626V45.5629V45.5631V45.5633V45.5636V45.5638V45.564V45.5643V45.5645V45.5647V45.5649V45.5652V45.5654V45.5656V45.5658V45.566V45.5663V45.5665V45.5667V45.5668C40.0832 45.652 40.0788 45.7371 40.0744 45.8221C39.9426 48.3628 39.8142 50.84 39.2574 53.049Z" stroke="#333333"/>
<path fill-rule="evenodd" clip-rule="evenodd" d="M49.9256 48.297C53.5437 48.297 56.9164 47.0983 59.7799 45.0296C61.0345 44.1239 62.189 43.0407 63.2253 41.8243C65.1253 39.5868 66.6162 36.861 67.5525 33.8332C68.2616 31.5158 68.6525 29.0209 68.6525 26.4282C68.6525 25.5226 68.607 24.6258 68.5161 23.7468C64.2617 23.3739 49.7256 22.5481 45.0166 9.54053C43.0621 14.2464 41.0167 16.6614 32.1442 19.5471C31.5351 21.7135 31.1987 24.022 31.1987 26.4282C31.1987 27.8489 31.3169 29.234 31.5351 30.5747C32.2533 34.9165 34.0623 38.8143 36.6259 41.8243C37.7986 43.2094 39.1349 44.408 40.5894 45.3847C43.3348 47.2404 46.5257 48.297 49.9256 48.297Z" fill="#333333"/>
<path fill-rule="evenodd" clip-rule="evenodd" d="M49.9256 48.297C53.5437 48.297 56.9164 47.0983 59.7799 45.0296C61.0345 44.1239 62.189 43.0407 63.2253 41.8243C65.1253 39.5868 66.6162 36.861 67.5525 33.8332C68.2616 31.5158 68.6525 29.0209 68.6525 26.4282C68.6525 25.5226 68.607 24.6258 68.5161 23.7468C64.2617 23.3739 49.7256 22.5481 45.0166 9.54053C43.0621 14.2464 41.0167 16.6614 32.1442 19.5471C31.5351 21.7135 31.1987 24.022 31.1987 26.4282C31.1987 27.8489 31.3169 29.234 31.5351 30.5747C32.2533 34.9165 34.0623 38.8143 36.6259 41.8243C37.7986 43.2094 39.1349 44.408 40.5894 45.3847C43.3348 47.2404 46.5257 48.297 49.9256 48.297Z" fill="white" fill-opacity="0.88"/>
<path fill-rule="evenodd" clip-rule="evenodd" d="M57.2513 98.5492C57.2513 89.6429 56.7787 80.7505 54.8786 72.0259C54.4332 70.3212 53.9059 68.7674 53.2695 67.4267L55.2059 62.9783C52.6523 59.3904 51.366 56.7799 50.3215 56.5554C49.1112 56.2953 48.1712 58.9852 45.097 63.0316L46.2333 65.3224L47.1969 67.2935L46.9151 67.8795C45.3949 71.0239 43.2114 81.0263 43.2114 98.8835C47.8879 98.9716 52.0144 99.2142 57.2513 98.5492Z" fill="#E07751"/>
<path d="M57.252 98.5496C57.252 89.6433 56.7793 80.7508 54.8793 72.0263C54.4338 70.3216 53.9066 68.7678 53.2702 67.427M47.275 67.1377C45.7548 70.2821 42.8735 81.0266 42.8735 98.8838" stroke="#333333"/>
<path fill-rule="evenodd" clip-rule="evenodd" d="M45.0149 9.53115C49.7148 22.5388 64.2508 23.3645 68.5144 23.7374C68.6053 24.6164 68.6507 25.5132 68.6507 26.4188C68.6507 29.0204 68.2598 31.5153 67.5507 33.8327C80.8532 2.56438 50.1964 -3.2456 44.5694 3.52013C32.1516 2.56443 25.4877 18.653 31.5424 30.5742C31.3242 29.2335 31.2061 27.8395 31.2061 26.4188C31.2061 24.0127 31.5424 21.7041 32.1515 19.5377C41.0149 16.652 43.0604 14.237 45.0149 9.53115Z" fill="#ADADAD" stroke="#333333" stroke-linejoin="round"/>
<path d="M32.3522 19.5464C29.1492 30.2721 33.2614 41.8968 43.1998 46.9111C47.5798 49.13 52.8144 49.121 57.1954 46.9111C65.6834 42.6286 69.415 32.9535 68.4999 23.5685" stroke="#333333"/>
<path d="M55.4012 63.1694C53.3697 68.1298 51.9681 69.5712 50.3225 69.5568C48.5166 69.5411 47.2753 68.1298 44.9053 63.1694" stroke="#333333" stroke-linecap="round"/>
<mask id="path-10-inside-2_4082_511609" fill="white">
<path fill-rule="evenodd" clip-rule="evenodd" d="M32.1426 55.2403C33.4698 57.4245 34.8789 59.4933 36.3061 61.6153C36.8061 62.3612 37.2697 63.036 37.7061 63.622C38.1334 64.1991 38.5243 64.6786 38.8879 65.0692C39.297 65.4954 39.6788 65.8062 40.0515 66.0015C40.3969 66.1791 40.7606 66.2679 41.1515 66.2501C41.3606 66.2413 41.5606 66.2057 41.7515 66.1525C41.9515 66.0903 42.1606 65.9926 42.3515 65.8772C42.5878 65.7352 42.8242 65.5487 43.0605 65.3445C43.3151 65.1225 43.5787 64.8561 43.8514 64.5454C44.2332 64.1281 44.615 63.7108 44.9878 63.2934C45.0423 63.2313 45.0969 63.178 45.1423 63.1159L45.1332 63.0892C47.4241 60.0793 48.9681 58.2095 49.4786 57.4511C49.5786 57.3091 49.6786 57.1759 49.7877 57.0427H50.824C51.0513 57.3357 51.2011 57.6005 51.4604 57.8862C52.3539 58.8709 53.2694 60.248 54.8966 62.5387C55.0239 62.6897 55.1421 62.8406 55.2512 63.0004C55.7239 63.5154 56.1966 64.0304 56.6693 64.5454C56.9511 64.8561 57.2148 65.1225 57.4602 65.3356C57.7057 65.5487 57.942 65.7263 58.1784 65.8683C58.3784 65.9838 58.5784 66.0814 58.7784 66.1436C58.9693 66.2057 59.1693 66.2412 59.3784 66.2412C59.7693 66.2501 60.1238 66.1702 60.4783 65.9926C60.8602 65.7884 61.242 65.4777 61.642 65.0603C62.1056 64.5631 62.6238 63.9061 63.2056 63.0892C63.8237 62.2191 64.451 61.2779 65.1692 60.2036C66.3055 58.5077 67.3146 56.9894 68.3055 55.2048C68.1236 55.1426 67.9509 55.0804 67.7691 55.0183C67.3964 54.894 67.0328 54.7697 66.6691 54.6543C66.5964 54.6365 66.5237 54.6099 66.4509 54.5832C65.3419 54.2281 64.2783 53.9262 63.3146 53.6865C62.3783 53.4556 61.5147 53.278 60.7511 53.1626C56.6057 57.4511 44.1151 57.6021 39.7515 53.1626C38.9879 53.2691 38.1243 53.4556 37.1879 53.6865C36.2243 53.9262 35.1607 54.2281 34.0516 54.5832C33.4062 54.8141 32.7698 55.0272 32.1426 55.2403Z"/>
</mask>
<path fill-rule="evenodd" clip-rule="evenodd" d="M32.1426 55.2403C33.4698 57.4245 34.8789 59.4933 36.3061 61.6153C36.8061 62.3612 37.2697 63.036 37.7061 63.622C38.1334 64.1991 38.5243 64.6786 38.8879 65.0692C39.297 65.4954 39.6788 65.8062 40.0515 66.0015C40.3969 66.1791 40.7606 66.2679 41.1515 66.2501C41.3606 66.2413 41.5606 66.2057 41.7515 66.1525C41.9515 66.0903 42.1606 65.9926 42.3515 65.8772C42.5878 65.7352 42.8242 65.5487 43.0605 65.3445C43.3151 65.1225 43.5787 64.8561 43.8514 64.5454C44.2332 64.1281 44.615 63.7108 44.9878 63.2934C45.0423 63.2313 45.0969 63.178 45.1423 63.1159L45.1332 63.0892C47.4241 60.0793 48.9681 58.2095 49.4786 57.4511C49.5786 57.3091 49.6786 57.1759 49.7877 57.0427H50.824C51.0513 57.3357 51.2011 57.6005 51.4604 57.8862C52.3539 58.8709 53.2694 60.248 54.8966 62.5387C55.0239 62.6897 55.1421 62.8406 55.2512 63.0004C55.7239 63.5154 56.1966 64.0304 56.6693 64.5454C56.9511 64.8561 57.2148 65.1225 57.4602 65.3356C57.7057 65.5487 57.942 65.7263 58.1784 65.8683C58.3784 65.9838 58.5784 66.0814 58.7784 66.1436C58.9693 66.2057 59.1693 66.2412 59.3784 66.2412C59.7693 66.2501 60.1238 66.1702 60.4783 65.9926C60.8602 65.7884 61.242 65.4777 61.642 65.0603C62.1056 64.5631 62.6238 63.9061 63.2056 63.0892C63.8237 62.2191 64.451 61.2779 65.1692 60.2036C66.3055 58.5077 67.3146 56.9894 68.3055 55.2048C68.1236 55.1426 67.9509 55.0804 67.7691 55.0183C67.3964 54.894 67.0328 54.7697 66.6691 54.6543C66.5964 54.6365 66.5237 54.6099 66.4509 54.5832C65.3419 54.2281 64.2783 53.9262 63.3146 53.6865C62.3783 53.4556 61.5147 53.278 60.7511 53.1626C56.6057 57.4511 44.1151 57.6021 39.7515 53.1626C38.9879 53.2691 38.1243 53.4556 37.1879 53.6865C36.2243 53.9262 35.1607 54.2281 34.0516 54.5832C33.4062 54.8141 32.7698 55.0272 32.1426 55.2403Z" fill="#ADADAD"/>
<path d="M32.1426 55.2403L31.8209 54.2934L30.6407 54.6944L31.288 55.7596L32.1426 55.2403ZM36.3061 61.6153L37.1368 61.0585L37.1359 61.0572L36.3061 61.6153ZM37.7061 63.622L38.5098 63.027L38.5082 63.0247L37.7061 63.622ZM38.8879 65.0692L38.1559 65.7505L38.1611 65.7562L38.1665 65.7617L38.8879 65.0692ZM40.0515 66.0015L39.5873 66.8873L39.5943 66.8909L40.0515 66.0015ZM41.1515 66.2501L41.1091 65.251L41.1061 65.2512L41.1515 66.2501ZM41.7515 66.1525L42.0203 67.1157L42.0343 67.1117L42.0482 67.1074L41.7515 66.1525ZM42.3515 65.8772L41.8363 65.0201L41.8341 65.0215L42.3515 65.8772ZM43.0605 65.3445L43.7143 66.1012L43.7178 66.0982L43.0605 65.3445ZM43.8514 64.5454L43.1136 63.8703L43.1066 63.878L43.0998 63.8858L43.8514 64.5454ZM44.9878 63.2934L45.7336 63.9596L45.7394 63.9531L44.9878 63.2934ZM45.1423 63.1159L45.9495 63.7062L46.2569 63.2858L46.0887 62.7929L45.1423 63.1159ZM45.1332 63.0892L44.3375 62.4836L44.0146 62.9078L44.1868 63.4122L45.1332 63.0892ZM49.4786 57.4511L48.6608 56.8755L48.6548 56.8841L48.649 56.8927L49.4786 57.4511ZM49.7877 57.0427V56.0427H49.3141L49.014 56.409L49.7877 57.0427ZM50.824 57.0427L51.6142 56.4298L51.3139 56.0427H50.824V57.0427ZM51.4604 57.8862L52.2009 57.2142L51.4604 57.8862ZM54.8966 62.5387L54.0814 63.1179L54.1054 63.1517L54.1321 63.1834L54.8966 62.5387ZM55.2512 63.0004L54.4252 63.5642L54.4658 63.6236L54.5145 63.6767L55.2512 63.0004ZM56.6693 64.5454L57.4101 63.8736L57.406 63.8691L56.6693 64.5454ZM58.1784 65.8683L57.6632 66.7254L57.6708 66.73L57.6785 66.7344L58.1784 65.8683ZM58.7784 66.1436L59.088 65.1926L59.0751 65.1886L58.7784 66.1436ZM59.3784 66.2412L59.4011 65.2415L59.3897 65.2412H59.3784V66.2412ZM60.4783 65.9926L60.9262 66.8868L60.9382 66.8808L60.95 66.8744L60.4783 65.9926ZM61.642 65.0603L62.3639 65.7524L62.3733 65.7423L61.642 65.0603ZM63.2056 63.0892L64.0201 63.6694L64.0208 63.6684L63.2056 63.0892ZM65.1692 60.2036L64.3384 59.6469L64.3378 59.6478L65.1692 60.2036ZM68.3055 55.2048L69.1797 55.6902L69.76 54.6452L68.6289 54.2585L68.3055 55.2048ZM67.7691 55.0183L68.0926 54.072L68.0855 54.0697L67.7691 55.0183ZM66.6691 54.6543L66.9717 53.7011L66.9393 53.6909L66.9063 53.6828L66.6691 54.6543ZM66.4509 54.5832L66.7949 53.6442L66.7755 53.6371L66.7559 53.6309L66.4509 54.5832ZM63.3146 53.6865L63.5561 52.716L63.554 52.7155L63.3146 53.6865ZM60.7511 53.1626L60.9005 52.1738L60.3905 52.0967L60.0321 52.4676L60.7511 53.1626ZM39.7515 53.1626L40.4647 52.4616L40.1118 52.1026L39.6133 52.1722L39.7515 53.1626ZM37.1879 53.6865L36.9485 52.7155L36.9465 52.716L37.1879 53.6865ZM34.0516 54.5832L33.7467 53.6309L33.7307 53.636L33.7149 53.6416L34.0516 54.5832ZM31.288 55.7596C32.63 57.9681 34.0545 60.0593 35.4763 62.1734L37.1359 61.0572C35.7033 58.9272 34.3096 56.8808 32.9972 54.721L31.288 55.7596ZM35.4755 62.1722C35.9778 62.9215 36.4525 63.6128 36.904 64.2192L38.5082 63.0247C38.087 62.4591 37.6344 61.8008 37.1368 61.0585L35.4755 62.1722ZM36.9024 64.217C37.3443 64.814 37.7594 65.3245 38.1559 65.7505L39.6199 64.3879C39.2892 64.0326 38.9224 63.5842 38.5098 63.027L36.9024 64.217ZM38.1665 65.7617C38.6162 66.2303 39.0834 66.6232 39.5873 66.8873L40.5157 65.1158C40.2742 64.9892 39.9777 64.7606 39.6093 64.3767L38.1665 65.7617ZM39.5943 66.8909C40.08 67.1406 40.6158 67.2755 41.1969 67.2491L41.1061 65.2512C40.9054 65.2603 40.7139 65.2176 40.5087 65.1121L39.5943 66.8909ZM41.1939 67.2492C41.4895 67.2367 41.7658 67.1867 42.0203 67.1157L41.4827 65.1893C41.3553 65.2248 41.2316 65.2458 41.1091 65.251L41.1939 67.2492ZM42.0482 67.1074C42.337 67.0177 42.6198 66.8835 42.8689 66.733L41.8341 65.0215C41.7013 65.1018 41.5659 65.163 41.4547 65.1975L42.0482 67.1074ZM42.8666 66.7343C43.1752 66.5488 43.4617 66.3194 43.7143 66.1012L42.4068 64.5878C42.1867 64.7779 42.0004 64.9215 41.8363 65.0201L42.8666 66.7343ZM43.7178 66.0982C44.0123 65.8413 44.3072 65.5421 44.603 65.205L43.0998 63.8858C42.8502 64.1702 42.6179 64.4037 42.4033 64.5908L43.7178 66.0982ZM44.5892 65.2204C44.9703 64.8039 45.3562 64.3821 45.7336 63.9596L44.2419 62.6273C43.8739 63.0394 43.4961 63.4523 43.1136 63.8703L44.5892 65.2204ZM45.7394 63.9531C45.7621 63.9272 45.7624 63.9281 45.8096 63.876C45.8436 63.8385 45.896 63.7794 45.9495 63.7062L44.3351 62.5256C44.3432 62.5145 44.3456 62.5131 44.3273 62.5333C44.3171 62.5446 44.3091 62.5532 44.2917 62.5721C44.2768 62.5884 44.2572 62.6099 44.2361 62.6338L45.7394 63.9531ZM46.0887 62.7929L46.0796 62.7662L44.1868 63.4122L44.1959 63.4389L46.0887 62.7929ZM45.929 63.6949C47.0694 62.1965 48.0239 60.9819 48.7604 60.043C49.4831 59.1216 50.027 58.4271 50.3081 58.0095L48.649 56.8927C48.4196 57.2335 47.9363 57.8531 47.1867 58.8086C46.4509 59.7467 45.4879 60.972 44.3375 62.4836L45.929 63.6949ZM50.2963 58.0267C50.3846 57.9012 50.47 57.7878 50.5613 57.6763L49.014 56.409C48.8872 56.5639 48.7725 56.7169 48.6608 56.8755L50.2963 58.0267ZM49.7877 58.0427H50.824V56.0427H49.7877V58.0427ZM50.0338 57.6556C50.13 57.7796 50.2006 57.885 50.3146 58.0458C50.4215 58.1965 50.5506 58.3717 50.7198 58.5582L52.2009 57.2142C52.1109 57.115 52.0354 57.0149 51.9458 56.8886C51.8633 56.7722 51.7453 56.5988 51.6142 56.4298L50.0338 57.6556ZM50.7198 58.5582C51.5603 59.4844 52.4193 60.778 54.0814 63.1179L55.7119 61.9596C54.1195 59.7179 53.1475 58.2573 52.2009 57.2142L50.7198 58.5582ZM54.1321 63.1834C54.2445 63.3166 54.3405 63.44 54.4252 63.5642L56.0771 62.4367C55.9437 62.2413 55.8034 62.0628 55.6611 61.8941L54.1321 63.1834ZM54.5145 63.6767C54.7509 63.9342 54.9872 64.1917 55.2236 64.4491C55.4599 64.7066 55.6963 64.9641 55.9326 65.2216L57.406 63.8691C57.1697 63.6117 56.9333 63.3542 56.6969 63.0967C56.4606 62.8392 56.2242 62.5817 55.9879 62.3242L54.5145 63.6767ZM55.9286 65.2171C56.2255 65.5445 56.5184 65.8423 56.8046 66.0907L58.1158 64.5805C57.9111 64.4028 57.6768 64.1677 57.4101 63.8736L55.9286 65.2171ZM56.8046 66.0907C57.0813 66.3309 57.3647 66.546 57.6632 66.7254L58.6935 65.0112C58.5194 64.9065 58.3301 64.7665 58.1158 64.5805L56.8046 66.0907ZM57.6785 66.7344C57.9121 66.8692 58.1836 67.0059 58.4816 67.0985L59.0751 65.1886C58.9732 65.1569 58.8447 65.0983 58.6783 65.0022L57.6785 66.7344ZM58.4688 67.0945C58.7497 67.1859 59.0541 67.2412 59.3784 67.2412V65.2412C59.2844 65.2412 59.1889 65.2256 59.088 65.1927L58.4688 67.0945ZM59.3557 67.241C59.9115 67.2536 60.4274 67.1366 60.9262 66.8868L60.0305 65.0985C59.8202 65.2038 59.6271 65.2466 59.4011 65.2415L59.3557 67.241ZM60.95 66.8744C61.4556 66.604 61.92 66.2154 62.3639 65.7523L60.92 64.3684C60.5639 64.7399 60.2647 64.9729 60.0067 65.1108L60.95 66.8744ZM62.3733 65.7423C62.8788 65.2002 63.4256 64.5041 64.0201 63.6694L62.391 62.5091C61.822 63.3081 61.3323 63.9261 60.9106 64.3784L62.3733 65.7423ZM64.0208 63.6684C64.649 62.7841 65.2851 61.8296 66.0005 60.7593L64.3378 59.6478C63.6169 60.7262 62.9985 61.6541 62.3903 62.5101L64.0208 63.6684ZM65.9999 60.7602C67.1356 59.0654 68.1662 57.5156 69.1797 55.6902L67.4312 54.7193C66.4629 56.4632 65.4754 57.95 64.3384 59.6469L65.9999 60.7602ZM68.6289 54.2585C68.5423 54.2289 68.4573 54.1991 68.3681 54.1678C68.2801 54.137 68.1878 54.1046 68.0926 54.0721L67.4456 55.9645C67.5322 55.9941 67.6172 56.0239 67.7064 56.0552C67.7945 56.0861 67.8868 56.1184 67.982 56.151L68.6289 54.2585ZM68.0855 54.0697C67.7223 53.9485 67.3445 53.8195 66.9717 53.7011L66.3666 55.6074C66.721 55.7199 67.0705 55.8394 67.4527 55.9669L68.0855 54.0697ZM66.9063 53.6828C66.9067 53.6829 66.9047 53.6824 66.8998 53.6809C66.8949 53.6795 66.8879 53.6773 66.8783 53.6741C66.857 53.6669 66.8334 53.6583 66.7949 53.6442L66.107 55.5222C66.1697 55.5452 66.2955 55.5924 66.4319 55.6257L66.9063 53.6828ZM66.7559 53.6309C65.6273 53.2695 64.5425 52.9614 63.5561 52.716L63.0732 54.6569C64.014 54.8909 65.0564 55.1867 66.146 55.5356L66.7559 53.6309ZM63.554 52.7155C62.5963 52.4794 61.7018 52.2949 60.9005 52.1738L60.6016 54.1514C61.3276 54.2611 62.1603 54.4318 63.0753 54.6574L63.554 52.7155ZM60.0321 52.4676C59.1574 53.3725 57.7764 54.1184 56.0467 54.6385C54.3296 55.1548 52.3404 55.4265 50.3286 55.4356C48.3169 55.4447 46.3151 55.1909 44.5724 54.6791C42.8193 54.1642 41.3951 53.4083 40.4647 52.4616L39.0383 53.8636C40.2897 55.1367 42.0632 56.0266 44.0088 56.598C45.965 57.1725 48.1631 57.4454 50.3376 57.4356C52.5121 57.4258 54.6955 57.1332 56.6226 56.5538C58.5372 55.9781 60.2721 55.097 61.4701 53.8576L60.0321 52.4676ZM39.6133 52.1722C38.7995 52.2857 37.8973 52.4816 36.9485 52.7155L37.4273 54.6574C38.3512 54.4296 39.1763 54.2525 39.8897 54.153L39.6133 52.1722ZM36.9465 52.716C35.9601 52.9614 34.8752 53.2695 33.7467 53.6309L34.3566 55.5356C35.4462 55.1867 36.4886 54.8909 37.4293 54.6569L36.9465 52.716ZM33.7149 53.6416C33.0792 53.869 32.4538 54.0784 31.8209 54.2934L32.4642 56.1871C33.0859 55.9759 33.7332 55.7592 34.3884 55.5248L33.7149 53.6416Z" fill="#333333" mask="url(#path-10-inside-2_4082_511609)"/>
</svg>
