<svg width="100" height="100" viewBox="0 0 100 100" fill="none" xmlns="http://www.w3.org/2000/svg">
<path d="M17 55.4999H17.5V54.9999V31V30.5H17H11C9.04108 30.5 7.41455 31.3808 6.28494 32.5842C5.16343 33.7789 4.5 35.3257 4.5 36.7152V54.9999V55.4999H5H17Z" fill="#D9F4FF" stroke="#333333"/>
<path d="M81 30.5H80.5V31V46.9999V47.4999H81H93H93.5V46.9999V36.2096C93.5 32.6762 90.5593 30.5 87.6667 30.5H81Z" fill="#D9F4FF" stroke="#333333"/>
<path d="M74.6665 2.5H75.1665V3V56.0001V56.5001H74.6665H11H10.5V56.0001V15.3678V15.1588L10.6488 15.0119L23.1794 2.64414L23.3254 2.5H23.5306H74.6665Z" fill="white" stroke="#333333"/>
<path d="M22.6464 2.64645C22.7894 2.50345 23.0045 2.46067 23.1913 2.53806C23.3782 2.61545 23.5 2.79777 23.5 3V15C23.5 15.2761 23.2761 15.5 23 15.5H11C10.7978 15.5 10.6155 15.3782 10.5381 15.1913C10.4607 15.0045 10.5034 14.7894 10.6464 14.6464L22.6464 2.64645Z" fill="url(#paint0_linear_30718_19464)" stroke="#333333" stroke-linejoin="round"/>
<path d="M87 12.5H87.5V13V67V67.5H87H23H22.5V67V25.6011V25.3941L22.6464 25.2476L35.2426 12.6465L35.3891 12.5H35.5962H87Z" fill="white" stroke="#333333"/>
<path d="M34.6464 12.6464C34.7894 12.5034 35.0045 12.4607 35.1913 12.5381C35.3782 12.6155 35.5 12.7978 35.5 13V25C35.5 25.2761 35.2761 25.5 35 25.5H23C22.7978 25.5 22.6155 25.3782 22.5381 25.1913C22.4607 25.0045 22.5034 24.7894 22.6464 24.6464L34.6464 12.6464Z" fill="#D9F4FF" stroke="#333333" stroke-linejoin="round"/>
<path fill-rule="evenodd" clip-rule="evenodd" d="M79.498 32.999C79.7742 32.999 79.998 33.2229 79.998 33.499C79.998 33.7752 79.7742 33.999 79.498 33.999H41.2402C40.9641 33.999 40.7402 33.7752 40.7402 33.499C40.7402 33.2229 40.9641 32.999 41.2402 32.999H79.498ZM78.1556 48.7217H79.1622C79.4383 48.7217 79.6622 48.4978 79.6622 48.2217C79.6622 47.9455 79.4383 47.7217 79.1622 47.7217H78.1556H59.6977H30.5011C30.2249 47.7217 30.0011 47.9455 30.0011 48.2217C30.0011 48.4978 30.2249 48.7217 30.5011 48.7217H59.6977H78.1556ZM79.998 40.8594C79.998 40.5832 79.7742 40.3594 79.498 40.3594H30.5012C30.225 40.3594 30.0012 40.5832 30.0012 40.8594C30.0012 41.1355 30.225 41.3594 30.5012 41.3594H79.498C79.7742 41.3594 79.998 41.1355 79.998 40.8594Z" fill="#333333"/>
<path d="M68.2344 24.0689H46.1199" stroke="url(#paint1_linear_30718_19464)" stroke-width="2" stroke-linecap="round"/>
<path fill-rule="evenodd" clip-rule="evenodd" d="M46.9087 47.7391L40.8863 54.5228H6.06253C3.18567 54.5228 0.71251 57.1271 1.02706 59.2445L6.63442 93.6567C6.95553 95.7742 9.20001 98 12.0769 98H89.0957C91.9726 98 93.5497 96.1149 93.7135 93.9908L98.9674 49.1927C99.2296 47.8586 97.8927 46 95.5401 46H51.0045C49.4383 46 48.0293 46.5974 46.9087 47.7391Z" fill="url(#paint2_linear_30718_19464)" stroke="#333333"/>
<path fill-rule="evenodd" clip-rule="evenodd" d="M42.6665 58.6603V64.0037C42.6665 64.7153 42.3753 65.3595 41.9043 65.8257C41.4334 66.292 40.7827 66.5803 40.0639 66.5803H34.6665V65.7521H40.0639C40.5472 65.7521 40.9934 65.5558 41.3094 65.2368C41.6316 64.9178 41.8299 64.4822 41.8299 64.0037V58.6603H42.6665Z" fill="white"/>
<path fill-rule="evenodd" clip-rule="evenodd" d="M65.1468 60.5961V60.4962C65.1468 60.0656 64.9586 59.6662 64.6575 59.3729C64.3501 59.0734 63.9235 58.8737 63.4719 58.8425H42.2807L34.872 66.2188L36.6473 88.3478C36.6912 88.8657 36.9045 89.3338 37.237 89.6645C37.5444 89.9703 37.9647 90.1638 38.4415 90.1638H61.5334C62.0102 90.1638 62.4368 89.9703 62.7504 89.6583C63.0829 89.3275 63.2962 88.8657 63.3276 88.354L65.1468 60.5961ZM66 60.4962L64.1745 88.4039C64.1243 89.1216 63.8232 89.7769 63.3527 90.2511C62.8884 90.7129 62.2548 91 61.5397 91H38.4415C37.7263 91 37.1053 90.7129 36.641 90.2574C36.1706 89.7893 35.8632 89.1278 35.8067 88.4164L34 65.9005L41.9357 58H63.3589L63.5283 58.0062C64.187 58.0499 64.8018 58.337 65.2535 58.7738C65.7051 59.2231 66 59.8222 66 60.4962Z" fill="white"/>
<defs>
<linearGradient id="paint0_linear_30718_19464" x1="25.5853" y1="2.3578" x2="18.8102" y2="13.3145" gradientUnits="userSpaceOnUse">
<stop stop-color="#FFC671"/>
<stop offset="1" stop-color="#FF6F3D"/>
</linearGradient>
<linearGradient id="paint1_linear_30718_19464" x1="68.2343" y1="24.0298" x2="68.1474" y2="26.0275" gradientUnits="userSpaceOnUse">
<stop stop-color="#FF8E3D"/>
<stop offset="1" stop-color="#FF6F3D"/>
</linearGradient>
<linearGradient id="paint2_linear_30718_19464" x1="25.5748" y1="28.8275" x2="61.5943" y2="83.7024" gradientUnits="userSpaceOnUse">
<stop stop-color="#FFC671"/>
<stop offset="1" stop-color="#FF6F3D"/>
</linearGradient>
</defs>
</svg>
