<svg width="72" height="72" viewBox="0 0 72 72" fill="none" xmlns="http://www.w3.org/2000/svg">
<g clip-path="url(#clip0_30397_16741)">
<path d="M49 0.5H49.5V1V57V57.5H49H3H2.5V57V10.0123V9.80859L2.64235 9.66289L11.447 0.65059L11.5942 0.5H11.8047H49Z" fill="white" stroke="#333333"/>
<path d="M11.6533 0.647434C11.7961 0.503857 12.0113 0.460567 12.1985 0.537794C12.3857 0.61502 12.5078 0.797515 12.5078 1V10.0582C12.5078 10.3344 12.284 10.5582 12.0078 10.5582H2.99997C2.79799 10.5582 2.61585 10.4367 2.5383 10.2502C2.46075 10.0637 2.50301 9.84889 2.64543 9.70567L11.6533 0.647434Z" fill="#D9F4FF" stroke="#333333" stroke-linejoin="round"/>
<path d="M56 5.5H56.5V6V62V62.5H56H10H9.5V62V14.931V14.7263L9.64364 14.5803L18.4334 5.64928L18.5803 5.5H18.7897H56Z" fill="white" stroke="#333333"/>
<path d="M18.6464 5.64645C18.7894 5.50345 19.0045 5.46067 19.1913 5.53806C19.3782 5.61545 19.5 5.79777 19.5 6V15C19.5 15.2761 19.2761 15.5 19 15.5H10C9.79777 15.5 9.61545 15.3782 9.53806 15.1913C9.46067 15.0045 9.50345 14.7894 9.64645 14.6464L18.6464 5.64645Z" fill="#D9F4FF" stroke="#333333" stroke-linejoin="round"/>
<path fill-rule="evenodd" clip-rule="evenodd" d="M62.7627 10.2375H26.1971L17.2369 19.0971V65.7633H62.7627V10.2375Z" fill="white"/>
<path d="M63 35.6273V10H25.7732L17 18.7797V66.0004H37.6289" stroke="#333333" stroke-linecap="round" stroke-linejoin="round"/>
<path fill-rule="evenodd" clip-rule="evenodd" d="M26 10L17 19H26V10Z" fill="url(#paint0_linear_30397_16741)" stroke="#333333" stroke-linejoin="round"/>
<path fill-rule="evenodd" clip-rule="evenodd" d="M55.7314 23.4997C56.0076 23.4997 56.2314 23.7236 56.2314 23.9997C56.2314 24.2759 56.0076 24.4997 55.7314 24.4997H32.0002C31.7241 24.4997 31.5002 24.2759 31.5002 23.9997C31.5002 23.7236 31.7241 23.4997 32.0002 23.4997H55.7314ZM40.4883 33.9997C40.4883 33.7236 40.2644 33.4997 39.9883 33.4997H25.0001C24.724 33.4997 24.5001 33.7236 24.5001 33.9997C24.5001 34.2759 24.724 34.4997 25.0001 34.4997H39.9883C40.2644 34.4997 40.4883 34.2759 40.4883 33.9997ZM33.4795 50.9997C33.4795 50.7236 33.2556 50.4997 32.9795 50.4997H25.0001C24.7239 50.4997 24.5001 50.7236 24.5001 50.9997C24.5001 51.2759 24.7239 51.4997 25.0001 51.4997H32.9795C33.2556 51.4997 33.4795 51.2759 33.4795 50.9997ZM37.8276 39.9997C37.8276 39.7236 37.6038 39.4997 37.3276 39.4997H25.0001C24.7239 39.4997 24.5001 39.7236 24.5001 39.9997C24.5001 40.2759 24.7239 40.4997 25.0001 40.4997H37.3276C37.6038 40.4997 37.8276 40.2759 37.8276 39.9997ZM55.3926 28.4997C55.6687 28.4997 55.8926 28.7236 55.8926 28.9997C55.8926 29.2759 55.6687 29.4997 55.3926 29.4997H25C24.7238 29.4997 24.5 29.2759 24.5 28.9997C24.5 28.7236 24.7238 28.4997 25 28.4997H55.3926ZM34.6704 44.9997C34.6704 44.7236 34.4466 44.4997 34.1704 44.4997H24.9999C24.7237 44.4997 24.4999 44.7236 24.4999 44.9997C24.4999 45.2759 24.7237 45.4997 24.9999 45.4997H34.1704C34.4466 45.4997 34.6704 45.2759 34.6704 44.9997ZM33.0693 55.535C33.3455 55.535 33.5693 55.7588 33.5693 56.035C33.5693 56.3111 33.3455 56.535 33.0693 56.535H25.032C24.7559 56.535 24.532 56.3111 24.532 56.035C24.532 55.7588 24.7559 55.535 25.032 55.535H33.0693ZM55.5737 33.9997C55.5737 33.7236 55.3499 33.4997 55.0737 33.4997H43C42.7238 33.4997 42.5 33.7236 42.5 33.9997C42.5 34.2759 42.7238 34.4997 43 34.4997H55.0737C55.3499 34.4997 55.5737 34.2759 55.5737 33.9997ZM55.2163 50.3143C55.4925 50.3143 55.7163 50.5382 55.7163 50.8143C55.7163 51.0905 55.4925 51.3143 55.2163 51.3143H43.1425C42.8664 51.3143 42.6425 51.0905 42.6425 50.8143C42.6425 50.5382 42.8664 50.3143 43.1425 50.3143H55.2163Z" fill="#333333"/>
<path d="M52.6494 17H36.9999" stroke="url(#paint1_linear_30397_16741)" stroke-width="2" stroke-linecap="round"/>
<path d="M54.8652 71.2318C45.8277 71.2318 38.5 63.9038 38.5 54.8659C38.5 45.828 45.8277 38.5 54.8652 38.5C63.9025 38.5 71.2302 45.8279 71.2303 54.8656C71.2256 63.9038 63.8976 71.2318 54.8652 71.2318Z" fill="#FEFEFE" stroke="#333333"/>
<path d="M40.3911 54.8658C40.3911 62.8593 46.8719 69.3404 54.8651 69.3404C62.8583 69.3404 69.3391 62.8593 69.3391 54.8658C69.3391 46.8723 62.8583 40.3912 54.8651 40.3912C46.8719 40.3912 40.3911 46.8723 40.3911 54.8658Z" fill="url(#paint2_linear_30397_16741)" stroke="#333333"/>
<path fill-rule="evenodd" clip-rule="evenodd" d="M54.8651 55.3481C54.3319 55.3481 53.9014 54.9176 53.9014 54.3844C53.9014 53.8511 54.3319 53.4206 54.8651 53.4206C55.3983 53.4206 55.8288 53.8511 55.8288 54.3844C55.8239 54.9176 55.3934 55.3481 54.8651 55.3481Z" fill="white"/>
<path fill-rule="evenodd" clip-rule="evenodd" d="M55.3468 48.6617V54.6852L61.611 61.1907C61.9365 61.5162 61.611 61.9135 61.3174 61.5991L54.3831 54.5045V48.6617C54.3831 47.9389 55.3468 47.9389 55.3468 48.6617Z" fill="white"/>
</g>
<defs>
<linearGradient id="paint0_linear_30397_16741" x1="26" y1="9.64844" x2="17" y2="19" gradientUnits="userSpaceOnUse">
<stop stop-color="#FF8E3D"/>
<stop offset="1" stop-color="#FF6F3D"/>
</linearGradient>
<linearGradient id="paint1_linear_30397_16741" x1="52.6494" y1="16.9609" x2="52.5268" y2="18.9549" gradientUnits="userSpaceOnUse">
<stop stop-color="#FF8E3D"/>
<stop offset="1" stop-color="#FF6F3D"/>
</linearGradient>
<linearGradient id="paint2_linear_30397_16741" x1="40.4662" y1="39.0042" x2="57.0341" y2="57.2525" gradientUnits="userSpaceOnUse">
<stop stop-color="#FFC671"/>
<stop offset="1" stop-color="#FF6F3D"/>
</linearGradient>
<clipPath id="clip0_30397_16741">
<rect width="72" height="72" fill="white"/>
</clipPath>
</defs>
</svg>
