<svg width="100" height="100" viewBox="0 0 100 100" fill="none" xmlns="http://www.w3.org/2000/svg">
<path fill-rule="evenodd" clip-rule="evenodd" d="M14.1041 57.7761L13.8689 12.0715C13.9289 10.5249 14.1552 9 14.1552 9L9.64338 9.0013C5.77243 9.0013 1.36612 12.6045 2.58695 18.4707L11.6311 55.1958C12.3458 58.5436 11.6029 63.1203 19.8212 62.9974C19.8808 62.9974 19.9403 62.9974 19.9999 62.9974C19.9403 62.9667 19.851 62.9667 19.7915 62.936C19.6128 62.9053 18.7493 62.721 18.5706 62.6903C16.3076 62.1374 14.1041 60.2946 14.1041 57.7761Z" fill="#ADADAD"/>
<path d="M19.6317 63.3769C19.6333 63.3765 19.6351 63.3761 19.6371 63.3756C19.6587 63.3705 19.6991 63.3629 19.7641 63.3541C20.0278 63.3184 20.5173 63.2856 21.2205 63.2574C22.6158 63.2014 24.7758 63.166 27.461 63.1467C32.8287 63.1081 40.2719 63.1338 47.8376 63.1853C59.7826 63.2667 72.0411 63.4124 76.8904 63.4701C78.1804 63.4854 78.9462 63.4945 79.0422 63.4945H79.4135L79.5209 63.139L79.0422 62.9945C79.5209 63.139 79.5209 63.1389 79.521 63.1387L79.5212 63.138L79.522 63.1353L79.5251 63.1248L79.5376 63.0833L79.5866 62.919C79.6299 62.7734 79.6942 62.556 79.7784 62.2679C79.947 61.6916 80.1955 60.8327 80.5156 59.7006C81.156 57.4363 82.0831 54.0793 83.2308 49.7055C85.5263 40.9579 88.7044 28.143 92.2366 11.869C92.7551 9.48018 92.5126 7.15211 91.4665 5.40004C90.4067 3.62493 88.5547 2.5 86.0104 2.5H21.1336C17.8294 2.5 14.2053 4.72796 14.2053 9.15304L14.2053 9.15573L14.2638 20.0278V20.0291V38.9427L13.9563 55.3903L13.9552 55.4495L13.9679 55.5072C14.1284 56.2357 14.0162 57.0492 13.8461 57.9348C13.8224 58.0586 13.7972 58.1847 13.7717 58.3124C13.6241 59.0521 13.4657 59.8455 13.5068 60.5542C13.5318 60.9855 13.63 61.4159 13.862 61.8108C14.0959 62.2089 14.4475 62.5401 14.9303 62.7983C15.8727 63.3023 17.3381 63.5406 19.5318 63.4944L19.6111 62.8715C19.688 62.8586 19.7876 62.8464 19.9089 62.8347C19.9169 62.8712 19.9211 62.9115 19.9197 62.9554C19.9125 63.1779 19.7668 63.296 19.7292 63.3239C19.6874 63.3548 19.6496 63.3707 19.6317 63.3769ZM19.6317 63.3769C19.6241 63.3789 19.6208 63.38 19.621 63.3801C19.6212 63.3802 19.6251 63.3793 19.6317 63.3769Z" fill="#333333"/>
<path d="M19.6317 63.3769C19.6333 63.3765 19.6351 63.3761 19.6371 63.3756C19.6587 63.3705 19.6991 63.3629 19.7641 63.3541C20.0278 63.3184 20.5173 63.2856 21.2205 63.2574C22.6158 63.2014 24.7758 63.166 27.461 63.1467C32.8287 63.1081 40.2719 63.1338 47.8376 63.1853C59.7826 63.2667 72.0411 63.4124 76.8904 63.4701C78.1804 63.4854 78.9462 63.4945 79.0422 63.4945H79.4135L79.5209 63.139L79.0422 62.9945C79.5209 63.139 79.5209 63.1389 79.521 63.1387L79.5212 63.138L79.522 63.1353L79.5251 63.1248L79.5376 63.0833L79.5866 62.919C79.6299 62.7734 79.6942 62.556 79.7784 62.2679C79.947 61.6916 80.1955 60.8327 80.5156 59.7006C81.156 57.4363 82.0831 54.0793 83.2308 49.7055C85.5263 40.9579 88.7044 28.143 92.2366 11.869C92.7551 9.48018 92.5126 7.15211 91.4665 5.40004C90.4067 3.62493 88.5547 2.5 86.0104 2.5H21.1336C17.8294 2.5 14.2053 4.72796 14.2053 9.15304L14.2053 9.15573L14.2638 20.0278V20.0291V38.9427L13.9563 55.3903L13.9552 55.4495L13.9679 55.5072C14.1284 56.2357 14.0162 57.0492 13.8461 57.9348C13.8224 58.0586 13.7972 58.1847 13.7717 58.3124C13.6241 59.0521 13.4657 59.8455 13.5068 60.5542C13.5318 60.9855 13.63 61.4159 13.862 61.8108C14.0959 62.2089 14.4475 62.5401 14.9303 62.7983C15.8727 63.3023 17.3381 63.5406 19.5318 63.4944L19.6111 62.8715C19.688 62.8586 19.7876 62.8464 19.9089 62.8347C19.9169 62.8712 19.9211 62.9115 19.9197 62.9554C19.9125 63.1779 19.7668 63.296 19.7292 63.3239C19.6874 63.3548 19.6496 63.3707 19.6317 63.3769ZM19.6317 63.3769C19.6241 63.3789 19.6208 63.38 19.621 63.3801C19.6212 63.3802 19.6251 63.3793 19.6317 63.3769Z" fill="white" fill-opacity="0.88"/>
<path d="M19.6317 63.3769C19.6333 63.3765 19.6351 63.3761 19.6371 63.3756C19.6587 63.3705 19.6991 63.3629 19.7641 63.3541C20.0278 63.3184 20.5173 63.2856 21.2205 63.2574C22.6158 63.2014 24.7758 63.166 27.461 63.1467C32.8287 63.1081 40.2719 63.1338 47.8376 63.1853C59.7826 63.2667 72.0411 63.4124 76.8904 63.4701C78.1804 63.4854 78.9462 63.4945 79.0422 63.4945H79.4135L79.5209 63.139L79.0422 62.9945C79.5209 63.139 79.5209 63.1389 79.521 63.1387L79.5212 63.138L79.522 63.1353L79.5251 63.1248L79.5376 63.0833L79.5866 62.919C79.6299 62.7734 79.6942 62.556 79.7784 62.2679C79.947 61.6916 80.1955 60.8327 80.5156 59.7006C81.156 57.4363 82.0831 54.0793 83.2308 49.7055C85.5263 40.9579 88.7044 28.143 92.2366 11.869C92.7551 9.48018 92.5126 7.15211 91.4665 5.40004C90.4067 3.62493 88.5547 2.5 86.0104 2.5H21.1336C17.8294 2.5 14.2053 4.72796 14.2053 9.15304L14.2053 9.15573L14.2638 20.0278V20.0291V38.9427L13.9563 55.3903L13.9552 55.4495L13.9679 55.5072C14.1284 56.2357 14.0162 57.0492 13.8461 57.9348C13.8224 58.0586 13.7972 58.1847 13.7717 58.3124C13.6241 59.0521 13.4657 59.8455 13.5068 60.5542C13.5318 60.9855 13.63 61.4159 13.862 61.8108C14.0959 62.2089 14.4475 62.5401 14.9303 62.7983C15.8727 63.3023 17.3381 63.5406 19.5318 63.4944L19.6111 62.8715C19.688 62.8586 19.7876 62.8464 19.9089 62.8347C19.9169 62.8712 19.9211 62.9115 19.9197 62.9554C19.9125 63.1779 19.7668 63.296 19.7292 63.3239C19.6874 63.3548 19.6496 63.3707 19.6317 63.3769ZM19.6317 63.3769C19.6241 63.3789 19.6208 63.38 19.621 63.3801C19.6212 63.3802 19.6251 63.3793 19.6317 63.3769Z" stroke="#333333"/>
<path d="M6.22947 35.0459L2.21578 18.2266C2.06374 17.5582 2.00293 16.8897 2.00293 16.2821C2.00293 14.0337 3.1841 10.954 6.22947 9.44702" stroke="#333333" stroke-linecap="round" stroke-linejoin="round"/>
<path d="M42.5146 12.5156C42.5061 12.983 42.606 13.5378 42.8845 14.0437C43.3361 14.864 44.2253 15.5 45.6987 15.5H82.1474C83.4918 15.5 84.5605 15.111 85.371 14.4841C86.0712 13.9425 86.5585 13.2395 86.8691 12.5007L90.9046 12.5007L90.9104 12.5007C93.1746 12.4747 95.0087 13.1877 96.1524 14.4201C97.286 15.6418 97.8063 17.4439 97.3153 19.748L97.3152 19.748L97.3133 19.7577L90.3337 56.0214C90.3335 56.0225 90.3332 56.0237 90.333 56.0248C89.9655 57.7983 88.8461 59.4192 87.3374 60.6012C85.8277 61.7839 83.9623 62.5 82.1474 62.5H21.9194C20.1307 62.5 18.6409 61.7946 17.6827 60.6708C16.7265 59.5492 16.2718 57.9784 16.6125 56.186C16.6125 56.1857 16.6126 56.1854 16.6126 56.1851L23.997 18.1998L23.997 18.1998L23.9975 18.197C24.703 14.4524 27.9114 12.5156 31.7148 12.5156H42.5146Z" fill="#E07751" stroke="#333333"/>
<path fill-rule="evenodd" clip-rule="evenodd" d="M43.0981 31L31.626 31.0001C29.4923 31.0001 29.4237 34 31.6266 34H43.2983C45.5005 34 45.7007 31 43.0981 31Z" fill="#333333"/>
<path fill-rule="evenodd" clip-rule="evenodd" d="M43.0981 31L31.626 31.0001C29.4923 31.0001 29.4237 34 31.6266 34H43.2983C45.5005 34 45.7007 31 43.0981 31Z" fill="white" fill-opacity="0.88"/>
<path fill-rule="evenodd" clip-rule="evenodd" d="M52.0025 25L33.7078 25.0001C31.4668 25.0001 31.3947 28 33.7084 28H52.2127C54.5257 28 54.7359 25 52.0025 25Z" fill="#333333"/>
<path fill-rule="evenodd" clip-rule="evenodd" d="M52.0025 25L33.7078 25.0001C31.4668 25.0001 31.3947 28 33.7084 28H52.2127C54.5257 28 54.7359 25 52.0025 25Z" fill="white" fill-opacity="0.88"/>
<path d="M8.45151 41.5H91.5485C94.2483 41.5 96.5 43.7681 96.5 46.6095V91.3905C96.5 94.2039 94.2755 96.5 91.5485 96.5H8.45151C5.75166 96.5 3.5 94.2319 3.5 91.3905V46.612C3.5295 43.7633 5.75681 41.5 8.45151 41.5Z" fill="#333333"/>
<path d="M8.45151 41.5H91.5485C94.2483 41.5 96.5 43.7681 96.5 46.6095V91.3905C96.5 94.2039 94.2755 96.5 91.5485 96.5H8.45151C5.75166 96.5 3.5 94.2319 3.5 91.3905V46.612C3.5295 43.7633 5.75681 41.5 8.45151 41.5Z" fill="white" fill-opacity="0.88"/>
<path d="M8.45151 41.5H91.5485C94.2483 41.5 96.5 43.7681 96.5 46.6095V91.3905C96.5 94.2039 94.2755 96.5 91.5485 96.5H8.45151C5.75166 96.5 3.5 94.2319 3.5 91.3905V46.612C3.5295 43.7633 5.75681 41.5 8.45151 41.5Z" stroke="#333333"/>
<path d="M65.1182 62.5H35.8838C35.1109 62.5 34.4586 63.1239 34.502 63.9318V71.117C34.502 71.8553 35.0858 72.5 35.8838 72.5H65.1182C65.8572 72.5 66.5 71.9144 66.5 71.117V63.917C66.5 63.1572 65.9282 62.5 65.1182 62.5Z" fill="#E07751" stroke="#333333"/>
</svg>
