<svg width="100" height="100" viewBox="0 0 100 100" fill="none" xmlns="http://www.w3.org/2000/svg">
<path d="M68 0.5H68.5V1V79V79.5H68H4H3.5V79V13.5528V13.3452L3.64706 13.1987L16.2433 0.645837L16.3896 0.5H16.5962H68Z" fill="white" stroke="#333333"/>
<path d="M15.6464 0.646447C15.7894 0.503448 16.0045 0.46067 16.1913 0.53806C16.3782 0.615451 16.5 0.797769 16.5 1V13C16.5 13.2761 16.2761 13.5 16 13.5H4C3.79777 13.5 3.61545 13.3782 3.53806 13.1913C3.46067 13.0045 3.50345 12.7894 3.64645 12.6464L15.6464 0.646447Z" fill="#D9F4FF" stroke="#333333" stroke-linejoin="round"/>
<path d="M77 7.5H77.5V8V86V86.5H77H13H12.5V86V20.5528V20.3452L12.6471 20.1987L25.2433 7.64584L25.3896 7.5H25.5962H77Z" fill="white" stroke="#333333"/>
<path d="M24.6464 7.64645C24.7894 7.50345 25.0045 7.46067 25.1913 7.53806C25.3782 7.61545 25.5 7.79777 25.5 8V20C25.5 20.2761 25.2761 20.5 25 20.5H13C12.7978 20.5 12.6155 20.3782 12.5381 20.1913C12.4607 20.0045 12.5034 19.7894 12.6464 19.6464L24.6464 7.64645Z" fill="#D9F4FF" stroke="#333333" stroke-linejoin="round"/>
<path fill-rule="evenodd" clip-rule="evenodd" d="M85 15H34.3994L22 27.286V92H85V15Z" fill="white"/>
<path d="M85.5 45.9913V14.5H34.0962L21.5 26.9456V92.5H50.5" stroke="#333333" stroke-linecap="round"/>
<path d="M33.6464 14.6464C33.7894 14.5034 34.0045 14.4607 34.1913 14.5381C34.3782 14.6155 34.5 14.7978 34.5 15V27C34.5 27.2761 34.2761 27.5 34 27.5H22C21.7978 27.5 21.6154 27.3782 21.5381 27.1913C21.4607 27.0045 21.5034 26.7894 21.6464 26.6464L33.6464 14.6464Z" fill="url(#paint0_linear_36017_46073)" stroke="#333333" stroke-linejoin="round"/>
<path fill-rule="evenodd" clip-rule="evenodd" d="M75.5 32.998C75.7761 32.998 76 33.2219 76 33.498C76 33.7742 75.7761 33.998 75.5 33.998H42.5C42.2238 33.998 42 33.7742 42 33.498C42 33.2219 42.2238 32.998 42.5 32.998H75.5ZM47.4914 68.998C47.7675 68.998 47.9914 69.2219 47.9914 69.498C47.9914 69.7742 47.7675 69.998 47.4914 69.998H32.2739C31.9978 69.998 31.7739 69.7742 31.7739 69.498C31.7739 69.2219 31.9978 68.998 32.2739 68.998H47.4914ZM56.7706 55.498C56.7706 55.2219 56.5468 54.998 56.2706 54.998H32.2739C31.9978 54.998 31.7739 55.2219 31.7739 55.498C31.7739 55.7742 31.9978 55.998 32.2739 55.998H56.2706C56.5468 55.998 56.7706 55.7742 56.7706 55.498ZM75.5 39.998C75.7761 39.998 76 40.2219 76 40.498C76 40.7742 75.7761 40.998 75.5 40.998H32.2739C31.9978 40.998 31.7739 40.7742 31.7739 40.498C31.7739 40.2219 31.9978 39.998 32.2739 39.998H75.5ZM50.3325 62.498C50.3325 62.2219 50.1087 61.998 49.8325 61.998H32.2739C31.9978 61.998 31.7739 62.2219 31.7739 62.498C31.7739 62.7742 31.9978 62.998 32.2739 62.998H49.8325C50.1087 62.998 50.3325 62.7742 50.3325 62.498ZM46.9061 75.998C47.1822 75.998 47.4061 76.2219 47.4061 76.498C47.4061 76.7742 47.1822 76.998 46.9061 76.998H32.2739C31.9978 76.998 31.7739 76.7742 31.7739 76.498C31.7739 76.2219 31.9978 75.998 32.2739 75.998H46.9061ZM75.5 46.9999C75.7761 46.9999 76 47.2237 76 47.4999C76 47.776 75.7761 47.9999 75.5 47.9999H58.5267C58.2506 47.9999 58.0267 47.776 58.0267 47.4999C58.0267 47.2237 58.2506 46.9999 58.5267 46.9999H75.5ZM53.8442 46.9999C54.1204 46.9999 54.3442 47.2237 54.3442 47.4999C54.3442 47.776 54.1204 47.9999 53.8442 47.9999H32.7739C32.4978 47.9999 32.2739 47.776 32.2739 47.4999C32.2739 47.2237 32.4978 46.9999 32.7739 46.9999H53.8442ZM75.2075 70.1945C75.4836 70.1945 75.7075 70.4184 75.7075 70.6945C75.7075 70.9707 75.4836 71.1945 75.2075 71.1945H58.2342C57.9581 71.1945 57.7342 70.9707 57.7342 70.6945C57.7342 70.4184 57.9581 70.1945 58.2342 70.1945H75.2075Z" fill="#333333"/>
<path d="M73 26H51" stroke="url(#paint1_linear_36017_46073)" stroke-width="2" stroke-linecap="round"/>
<path d="M76 99.5C88.9401 99.5 99.5 88.9472 99.5 76C99.5 63.0529 88.9471 52.5 76 52.5C63.0529 52.5 52.5 63.0529 52.5 76C52.5 88.9471 63.0529 99.5 76 99.5Z" fill="#D9F4FF" stroke="#333333"/>
<path d="M69.1787 76.7831L69.1808 76.7808L69.285 76.6659C69.3363 76.6099 69.4092 76.518 69.4446 76.3761C69.4682 76.2814 69.4681 76.1837 69.468 76.131C69.468 76.1282 69.468 76.1256 69.468 76.1232V75.731V73.3198V72.5393L68.7589 72.8656C68.217 73.1151 67.7229 73.1212 67.0035 73.1212C66.3057 73.1212 65.7258 73.071 65.2367 72.8605L64.5391 72.5604V73.3198V75.7456V76.1232C64.5391 76.1269 64.539 76.1312 64.539 76.1361C64.5388 76.1818 64.5383 76.2727 64.5551 76.355C64.5848 76.5006 64.6553 76.5987 64.7168 76.6659L64.821 76.7808L64.821 76.7808L64.8231 76.7831C65.0601 77.0412 65.3109 77.2805 65.552 77.5107C65.5649 77.523 65.5778 77.5353 65.5906 77.5476C65.8473 77.7927 66.0949 78.031 66.3333 78.2945L66.334 78.2954C66.3987 78.3666 66.4872 78.4585 66.5948 78.5272C66.6997 78.594 66.8393 78.6491 67.0035 78.6415C67.1677 78.6491 67.3074 78.594 67.4122 78.5272C67.5198 78.4585 67.6083 78.3666 67.673 78.2954L67.3029 77.9592L67.6725 78.296C67.9121 78.033 68.1595 77.7938 68.4151 77.5479C68.4246 77.5388 68.4341 77.5296 68.4436 77.5205C68.687 77.2864 68.9392 77.0438 69.1787 76.7831Z" fill="white" stroke="#333333"/>
<ellipse cx="66.9926" cy="68.2973" rx="5.39495" ry="5.29728" fill="white" stroke="#333333"/>
<path fill-rule="evenodd" clip-rule="evenodd" d="M67.2661 65.3095C68.2855 66.9933 70.6884 68.9415 72.3632 68.7093C72.3831 68.5416 72.3897 68.3738 72.3897 68.1996C72.3897 65.3289 70 63 67.0542 63C64.1085 63 61.7188 65.3289 61.7188 68.1996C61.7188 68.3996 61.732 68.5932 61.7518 68.7867C63.3604 68.7674 65.9951 67.7158 67.2661 65.3095Z" fill="#AAAAAA" stroke="#333333"/>
<path d="M70.0285 75.7158L69.7816 75.6914L69.6129 75.8733L67.3994 78.2586C67.2025 78.4708 66.8671 78.4719 66.6688 78.2611L64.4192 75.8707L64.2539 75.6951L64.0136 75.7151C62.0687 75.8769 59.9249 76.3684 58.2707 77.3576L57.7832 77.6491L58.1343 78.0957C60.2465 80.7827 63.4491 82.5001 67.0451 82.5001C70.6191 82.5001 73.8067 80.7983 75.9187 78.1426L76.2791 77.6893L75.7782 77.3988C74.6587 76.7495 72.6887 75.9783 70.0285 75.7158Z" fill="#D9F4FF" stroke="#333333"/>
<path d="M87.1513 76.7831L87.1534 76.7808L87.2576 76.6659C87.3089 76.6099 87.3818 76.518 87.4173 76.3761C87.4409 76.2814 87.4407 76.1837 87.4407 76.131C87.4407 76.1282 87.4406 76.1256 87.4406 76.1232V75.731V73.3198V72.5393L86.7316 72.8656C86.1897 73.1151 85.6955 73.1212 84.9762 73.1212C84.2784 73.1212 83.6985 73.071 83.2093 72.8605L82.5117 72.5604V73.3198V75.7456V76.1232C82.5117 76.1269 82.5117 76.1312 82.5117 76.1361C82.5114 76.1818 82.5109 76.2727 82.5277 76.355C82.5574 76.5006 82.628 76.5987 82.6895 76.6659L82.7937 76.7808L82.7937 76.7808L82.7958 76.7831C83.0328 77.0412 83.2836 77.2805 83.5247 77.5107C83.5376 77.523 83.5504 77.5353 83.5633 77.5476C83.82 77.7927 84.0676 78.031 84.3059 78.2945L84.3067 78.2954C84.3714 78.3666 84.4599 78.4585 84.5675 78.5272C84.6723 78.594 84.812 78.6491 84.9762 78.6415C85.1404 78.6491 85.28 78.594 85.3849 78.5272C85.4925 78.4585 85.581 78.3666 85.6457 78.2954L85.2756 77.9592L85.6452 78.296C85.8847 78.033 86.1322 77.7938 86.3878 77.5479C86.3973 77.5388 86.4068 77.5296 86.4163 77.5205C86.6596 77.2864 86.9119 77.0438 87.1513 76.7831Z" fill="white" stroke="#333333"/>
<ellipse cx="84.9653" cy="68.2973" rx="5.39495" ry="5.29728" fill="white" stroke="#333333"/>
<path fill-rule="evenodd" clip-rule="evenodd" d="M85.2387 65.3095C86.2581 66.9933 88.6611 68.9415 90.3359 68.7093C90.3557 68.5416 90.3624 68.3738 90.3624 68.1996C90.3624 65.3289 87.9727 63 85.0269 63C82.0811 63 79.6914 65.3289 79.6914 68.1996C79.6914 68.3996 79.7046 68.5932 79.7245 68.7867C81.3331 68.7674 83.9677 67.7158 85.2387 65.3095Z" fill="#AAAAAA" stroke="#333333"/>
<path d="M88.0011 75.7158L87.7543 75.6914L87.5855 75.8733L85.372 78.2586C85.1751 78.4708 84.8398 78.4719 84.6414 78.2611L82.3918 75.8707L82.2265 75.6951L81.9862 75.7151C80.0413 75.8769 77.8975 76.3684 76.2434 77.3576L75.7559 77.6491L76.1069 78.0957C78.2191 80.7827 81.4218 82.5001 85.0178 82.5001C88.5918 82.5001 91.7793 80.7983 93.8913 78.1426L94.2518 77.6893L93.7509 77.3988C92.6314 76.7495 90.6614 75.9783 88.0011 75.7158Z" fill="#D9F4FF" stroke="#333333"/>
<path d="M78.1513 86.2831L78.1534 86.2808L78.2576 86.1659C78.3089 86.1099 78.3818 86.018 78.4173 85.8761C78.4409 85.7814 78.4407 85.6837 78.4407 85.631C78.4407 85.6282 78.4406 85.6256 78.4406 85.6232V85.231V82.8198V82.0393L77.7316 82.3656C77.1897 82.6151 76.6955 82.6212 75.9762 82.6212C75.2784 82.6212 74.6985 82.571 74.2093 82.3605L73.5117 82.0604V82.8198V85.2456V85.6232C73.5117 85.6269 73.5117 85.6312 73.5117 85.6361C73.5114 85.6818 73.5109 85.7727 73.5277 85.855C73.5574 86.0006 73.628 86.0987 73.6895 86.1659L73.7937 86.2808L73.7937 86.2808L73.7958 86.2831C74.0328 86.5412 74.2836 86.7805 74.5247 87.0107C74.5376 87.023 74.5504 87.0353 74.5633 87.0476C74.82 87.2927 75.0676 87.531 75.3059 87.7945L75.3067 87.7954C75.3714 87.8666 75.4599 87.9585 75.5675 88.0272C75.6723 88.094 75.812 88.1491 75.9762 88.1415C76.1404 88.1491 76.28 88.094 76.3849 88.0272C76.4925 87.9585 76.581 87.8666 76.6457 87.7954L76.2756 87.4592L76.6452 87.796C76.8847 87.533 77.1322 87.2938 77.3878 87.0479C77.3973 87.0388 77.4068 87.0296 77.4163 87.0205C77.6596 86.7864 77.9119 86.5438 78.1513 86.2831Z" fill="white" stroke="#333333"/>
<ellipse cx="75.9653" cy="77.7973" rx="5.39495" ry="5.29728" fill="white" stroke="#333333"/>
<path fill-rule="evenodd" clip-rule="evenodd" d="M76.2387 74.8095C77.2581 76.4933 79.6611 78.4415 81.3359 78.2093C81.3557 78.0416 81.3624 77.8738 81.3624 77.6996C81.3624 74.8289 78.9727 72.5 76.0269 72.5C73.0811 72.5 70.6914 74.8289 70.6914 77.6996C70.6914 77.8996 70.7046 78.0932 70.7245 78.2867C72.3331 78.2674 74.9677 77.2158 76.2387 74.8095Z" fill="#AAAAAA" stroke="#333333"/>
<path d="M79.0011 85.2158L78.7543 85.1914L78.5855 85.3733L76.372 87.7586C76.1751 87.9708 75.8398 87.9719 75.6414 87.7611L73.3918 85.3707L73.2265 85.1951L72.9862 85.2151C71.0413 85.3769 68.8975 85.8684 67.2434 86.8576L66.7559 87.1491L67.1069 87.5957C69.2191 90.2827 72.4218 92.0001 76.0178 92.0001C79.5918 92.0001 82.7793 90.2983 84.8913 87.6426L85.2518 87.1893L84.7509 86.8988C83.6314 86.2495 81.6614 85.4783 79.0011 85.2158Z" fill="#D9F4FF"/>
<path d="M79.0011 85.2158L78.7543 85.1914L78.5855 85.3733L76.372 87.7586C76.1751 87.9708 75.8398 87.9719 75.6414 87.7611L73.3918 85.3707L73.2265 85.1951L72.9862 85.2151C71.0413 85.3769 68.8975 85.8684 67.2434 86.8576L66.7559 87.1491L67.1069 87.5957C69.2191 90.2827 72.4218 92.0001 76.0178 92.0001C79.5918 92.0001 82.7793 90.2983 84.8913 87.6426L85.2518 87.1893L84.7509 86.8988C83.6314 86.2495 81.6614 85.4783 79.0011 85.2158Z" fill="url(#paint2_linear_36017_46073)"/>
<path d="M79.0011 85.2158L78.7543 85.1914L78.5855 85.3733L76.372 87.7586C76.1751 87.9708 75.8398 87.9719 75.6414 87.7611L73.3918 85.3707L73.2265 85.1951L72.9862 85.2151C71.0413 85.3769 68.8975 85.8684 67.2434 86.8576L66.7559 87.1491L67.1069 87.5957C69.2191 90.2827 72.4218 92.0001 76.0178 92.0001C79.5918 92.0001 82.7793 90.2983 84.8913 87.6426L85.2518 87.1893L84.7509 86.8988C83.6314 86.2495 81.6614 85.4783 79.0011 85.2158Z" stroke="#333333"/>
<defs>
<linearGradient id="paint0_linear_36017_46073" x1="34" y1="14.5312" x2="22" y2="27" gradientUnits="userSpaceOnUse">
<stop stop-color="#FF8E3D"/>
<stop offset="1" stop-color="#FF6F3D"/>
</linearGradient>
<linearGradient id="paint1_linear_36017_46073" x1="73" y1="25.9609" x2="72.9126" y2="27.9586" gradientUnits="userSpaceOnUse">
<stop stop-color="#FF8E3D"/>
<stop offset="1" stop-color="#FF6F3D"/>
</linearGradient>
<linearGradient id="paint2_linear_36017_46073" x1="71.763" y1="83.8024" x2="74.8882" y2="91.2241" gradientUnits="userSpaceOnUse">
<stop stop-color="#FFC671"/>
<stop offset="1" stop-color="#FF6F3D"/>
</linearGradient>
</defs>
</svg>
