<svg width="100" height="100" viewBox="0 0 100 100" fill="none" xmlns="http://www.w3.org/2000/svg">
<path d="M47.4091 1.5H10.5C5.52944 1.5 1.5 5.52944 1.5 10.5V88.5C1.5 93.4706 5.52944 97.5 10.5 97.5H88.5C93.4706 97.5 97.5 93.4706 97.5 88.5V19.3182" stroke="#333333" stroke-linecap="round"/>
<path d="M47.4091 1.5H10.5C5.52944 1.5 1.5 5.52944 1.5 10.5V88.5C1.5 93.4706 5.52944 97.5 10.5 97.5H88.5C93.4706 97.5 97.5 93.4706 97.5 88.5V19.3182" stroke="white" stroke-opacity="0.88" stroke-linecap="round"/>
<path d="M97.8058 5.36437L97.7949 5.3762L97.7848 5.3887L80.6108 26.6861L80.5 26.8235V27V49.263C80.5 50.461 79.1648 51.1756 78.1679 50.511L73.1679 47.1777C72.7507 46.8995 72.5 46.4312 72.5 45.9296V27V26.8309L72.3974 26.6966L56.1454 5.40978L56.141 5.40398L56.1364 5.39832C55.4933 4.605 55.3501 3.61486 55.6511 2.85048C55.94 2.11683 56.6757 1.5 58.0085 1.5H96.199C97.3845 1.5 98.091 2.11014 98.3658 2.86117C98.6491 3.63568 98.4934 4.61562 97.8058 5.36437Z" fill="#282828"/>
<path d="M97.8058 5.36437L97.7949 5.3762L97.7848 5.3887L80.6108 26.6861L80.5 26.8235V27V49.263C80.5 50.461 79.1648 51.1756 78.1679 50.511L73.1679 47.1777C72.7507 46.8995 72.5 46.4312 72.5 45.9296V27V26.8309L72.3974 26.6966L56.1454 5.40978L56.141 5.40398L56.1364 5.39832C55.4933 4.605 55.3501 3.61486 55.6511 2.85048C55.94 2.11683 56.6757 1.5 58.0085 1.5H96.199C97.3845 1.5 98.091 2.11014 98.3658 2.86117C98.6491 3.63568 98.4934 4.61562 97.8058 5.36437Z" stroke="#333333"/>
<path d="M97.8058 5.36437L97.7949 5.3762L97.7848 5.3887L80.6108 26.6861L80.5 26.8235V27V49.263C80.5 50.461 79.1648 51.1756 78.1679 50.511L73.1679 47.1777C72.7507 46.8995 72.5 46.4312 72.5 45.9296V27V26.8309L72.3974 26.6966L56.1454 5.40978L56.141 5.40398L56.1364 5.39832C55.4933 4.605 55.3501 3.61486 55.6511 2.85048C55.94 2.11683 56.6757 1.5 58.0085 1.5H96.199C97.3845 1.5 98.091 2.11014 98.3658 2.86117C98.6491 3.63568 98.4934 4.61562 97.8058 5.36437Z" stroke="white" stroke-opacity="0.88"/>
<path fill-rule="evenodd" clip-rule="evenodd" d="M70 66.1504C70 68.0834 68.433 69.6504 66.5 69.6504C64.567 69.6504 63 68.0834 63 66.1504C63 64.2174 64.567 62.6504 66.5 62.6504C68.433 62.6504 70 64.2174 70 66.1504ZM71 66.1504C71 68.6357 68.9853 70.6504 66.5 70.6504C64.1838 70.6504 62.2763 68.9005 62.0275 66.6506H43.0605C42.6297 69.7946 40.9359 73.4685 37.1371 75.6617C31.7071 78.7967 25.0668 76.7514 21.9516 71.3558C20.8195 69.395 20.3406 67.2346 20.4484 65.129C20.4625 64.8532 20.6975 64.641 20.9733 64.6552C21.2491 64.6693 21.4612 64.9043 21.4471 65.1801C21.3489 67.0989 21.7849 69.067 22.8176 70.8558C25.6767 75.8079 31.7195 77.6349 36.6371 74.7957C40.273 72.6965 41.8164 69.1033 42.1191 66.1005L42.1644 65.6506H42.6166H62.0274C62.2761 63.4005 64.1837 61.6504 66.5 61.6504C68.9853 61.6504 71 63.6651 71 66.1504Z" fill="#333333"/>
<path fill-rule="evenodd" clip-rule="evenodd" d="M70 66.1504C70 68.0834 68.433 69.6504 66.5 69.6504C64.567 69.6504 63 68.0834 63 66.1504C63 64.2174 64.567 62.6504 66.5 62.6504C68.433 62.6504 70 64.2174 70 66.1504ZM71 66.1504C71 68.6357 68.9853 70.6504 66.5 70.6504C64.1838 70.6504 62.2763 68.9005 62.0275 66.6506H43.0605C42.6297 69.7946 40.9359 73.4685 37.1371 75.6617C31.7071 78.7967 25.0668 76.7514 21.9516 71.3558C20.8195 69.395 20.3406 67.2346 20.4484 65.129C20.4625 64.8532 20.6975 64.641 20.9733 64.6552C21.2491 64.6693 21.4612 64.9043 21.4471 65.1801C21.3489 67.0989 21.7849 69.067 22.8176 70.8558C25.6767 75.8079 31.7195 77.6349 36.6371 74.7957C40.273 72.6965 41.8164 69.1033 42.1191 66.1005L42.1644 65.6506H42.6166H62.0274C62.2761 63.4005 64.1837 61.6504 66.5 61.6504C68.9853 61.6504 71 63.6651 71 66.1504Z" fill="white" fill-opacity="0.88"/>
<path d="M62.0275 66.6506L62.5245 66.5956L62.4752 66.1506H62.0275V66.6506ZM43.0605 66.6506V66.1506H42.6244L42.5652 66.5827L43.0605 66.6506ZM37.1371 75.6617L36.8871 75.2287L37.1371 75.6617ZM21.9516 71.3558L21.5186 71.6058L21.9516 71.3558ZM20.4484 65.129L19.949 65.1034L20.4484 65.129ZM20.9733 64.6552L20.9988 64.1558L20.9733 64.6552ZM21.4471 65.1801L21.9464 65.2056L21.4471 65.1801ZM22.8176 70.8558L23.2507 70.6058L22.8176 70.8558ZM36.6371 74.7957L36.3871 74.3627L36.6371 74.7957ZM42.1191 66.1005L42.6166 66.1506L42.6166 66.1506L42.1191 66.1005ZM42.1644 65.6506V65.1506H41.7123L41.6669 65.6005L42.1644 65.6506ZM62.0274 65.6506V66.1506H62.4752L62.5244 65.7055L62.0274 65.6506ZM66.5 70.1504C68.7091 70.1504 70.5 68.3595 70.5 66.1504H69.5C69.5 67.8072 68.1569 69.1504 66.5 69.1504V70.1504ZM62.5 66.1504C62.5 68.3595 64.2909 70.1504 66.5 70.1504V69.1504C64.8431 69.1504 63.5 67.8072 63.5 66.1504H62.5ZM66.5 62.1504C64.2909 62.1504 62.5 63.9413 62.5 66.1504H63.5C63.5 64.4935 64.8431 63.1504 66.5 63.1504V62.1504ZM70.5 66.1504C70.5 63.9413 68.7091 62.1504 66.5 62.1504V63.1504C68.1569 63.1504 69.5 64.4935 69.5 66.1504H70.5ZM66.5 71.1504C69.2614 71.1504 71.5 68.9118 71.5 66.1504H70.5C70.5 68.3595 68.7091 70.1504 66.5 70.1504V71.1504ZM61.5305 66.7056C61.807 69.2059 63.9261 71.1504 66.5 71.1504V70.1504C64.4415 70.1504 62.7456 68.595 62.5245 66.5956L61.5305 66.7056ZM62.0275 66.1506H43.0605V67.1506H62.0275V66.1506ZM42.5652 66.5827C42.1499 69.613 40.521 73.1307 36.8871 75.2287L37.3871 76.0947C41.3507 73.8064 43.1095 69.9762 43.5559 66.7185L42.5652 66.5827ZM36.8871 75.2287C31.7135 78.2157 25.3719 76.2799 22.3846 71.1058L21.5186 71.6058C24.7616 77.2229 31.7007 79.3778 37.3871 76.0947L36.8871 75.2287ZM22.3846 71.1058C21.3022 69.231 20.8448 67.1668 20.9477 65.1545L19.949 65.1034C19.8365 67.3025 20.3368 69.5589 21.5186 71.6058L22.3846 71.1058ZM20.9477 65.1545H20.9477L20.9988 64.1558C20.4473 64.1276 19.9773 64.5518 19.949 65.1034L20.9477 65.1545ZM20.9477 65.1545H20.9477L21.9464 65.2056C21.9746 64.654 21.5504 64.184 20.9988 64.1558L20.9477 65.1545ZM20.9477 65.1545C20.8448 67.1668 21.3022 69.231 22.3846 71.1058L23.2507 70.6058C22.2675 68.903 21.853 67.031 21.9464 65.2056L20.9477 65.1545ZM22.3846 71.1058C25.3719 76.2799 31.7135 78.2157 36.8871 75.2287L36.3871 74.3627C31.7254 77.0541 25.9816 75.3359 23.2507 70.6058L22.3846 71.1058ZM36.8871 75.2287C40.6957 73.0298 42.3021 69.2707 42.6166 66.1506L41.6216 66.0503C41.3308 68.9359 39.8503 72.3632 36.3871 74.3627L36.8871 75.2287ZM42.6166 66.1506L42.6619 65.7007L41.6669 65.6005L41.6216 66.0503L42.6166 66.1506ZM42.1644 66.1506H42.6166V65.1506H42.1644V66.1506ZM42.6166 66.1506H62.0274V65.1506H42.6166V66.1506ZM66.5 61.1504C63.9259 61.1504 61.8068 63.0951 61.5305 65.5957L62.5244 65.7055C62.7454 63.706 64.4414 62.1504 66.5 62.1504V61.1504ZM71.5 66.1504C71.5 63.389 69.2614 61.1504 66.5 61.1504V62.1504C68.7091 62.1504 70.5 63.9413 70.5 66.1504H71.5Z" fill="#333333"/>
<path d="M62.0275 66.6506L62.5245 66.5956L62.4752 66.1506H62.0275V66.6506ZM43.0605 66.6506V66.1506H42.6244L42.5652 66.5827L43.0605 66.6506ZM37.1371 75.6617L36.8871 75.2287L37.1371 75.6617ZM21.9516 71.3558L21.5186 71.6058L21.9516 71.3558ZM20.4484 65.129L19.949 65.1034L20.4484 65.129ZM20.9733 64.6552L20.9988 64.1558L20.9733 64.6552ZM21.4471 65.1801L21.9464 65.2056L21.4471 65.1801ZM22.8176 70.8558L23.2507 70.6058L22.8176 70.8558ZM36.6371 74.7957L36.3871 74.3627L36.6371 74.7957ZM42.1191 66.1005L42.6166 66.1506L42.6166 66.1506L42.1191 66.1005ZM42.1644 65.6506V65.1506H41.7123L41.6669 65.6005L42.1644 65.6506ZM62.0274 65.6506V66.1506H62.4752L62.5244 65.7055L62.0274 65.6506ZM66.5 70.1504C68.7091 70.1504 70.5 68.3595 70.5 66.1504H69.5C69.5 67.8072 68.1569 69.1504 66.5 69.1504V70.1504ZM62.5 66.1504C62.5 68.3595 64.2909 70.1504 66.5 70.1504V69.1504C64.8431 69.1504 63.5 67.8072 63.5 66.1504H62.5ZM66.5 62.1504C64.2909 62.1504 62.5 63.9413 62.5 66.1504H63.5C63.5 64.4935 64.8431 63.1504 66.5 63.1504V62.1504ZM70.5 66.1504C70.5 63.9413 68.7091 62.1504 66.5 62.1504V63.1504C68.1569 63.1504 69.5 64.4935 69.5 66.1504H70.5ZM66.5 71.1504C69.2614 71.1504 71.5 68.9118 71.5 66.1504H70.5C70.5 68.3595 68.7091 70.1504 66.5 70.1504V71.1504ZM61.5305 66.7056C61.807 69.2059 63.9261 71.1504 66.5 71.1504V70.1504C64.4415 70.1504 62.7456 68.595 62.5245 66.5956L61.5305 66.7056ZM62.0275 66.1506H43.0605V67.1506H62.0275V66.1506ZM42.5652 66.5827C42.1499 69.613 40.521 73.1307 36.8871 75.2287L37.3871 76.0947C41.3507 73.8064 43.1095 69.9762 43.5559 66.7185L42.5652 66.5827ZM36.8871 75.2287C31.7135 78.2157 25.3719 76.2799 22.3846 71.1058L21.5186 71.6058C24.7616 77.2229 31.7007 79.3778 37.3871 76.0947L36.8871 75.2287ZM22.3846 71.1058C21.3022 69.231 20.8448 67.1668 20.9477 65.1545L19.949 65.1034C19.8365 67.3025 20.3368 69.5589 21.5186 71.6058L22.3846 71.1058ZM20.9477 65.1545H20.9477L20.9988 64.1558C20.4473 64.1276 19.9773 64.5518 19.949 65.1034L20.9477 65.1545ZM20.9477 65.1545H20.9477L21.9464 65.2056C21.9746 64.654 21.5504 64.184 20.9988 64.1558L20.9477 65.1545ZM20.9477 65.1545C20.8448 67.1668 21.3022 69.231 22.3846 71.1058L23.2507 70.6058C22.2675 68.903 21.853 67.031 21.9464 65.2056L20.9477 65.1545ZM22.3846 71.1058C25.3719 76.2799 31.7135 78.2157 36.8871 75.2287L36.3871 74.3627C31.7254 77.0541 25.9816 75.3359 23.2507 70.6058L22.3846 71.1058ZM36.8871 75.2287C40.6957 73.0298 42.3021 69.2707 42.6166 66.1506L41.6216 66.0503C41.3308 68.9359 39.8503 72.3632 36.3871 74.3627L36.8871 75.2287ZM42.6166 66.1506L42.6619 65.7007L41.6669 65.6005L41.6216 66.0503L42.6166 66.1506ZM42.1644 66.1506H42.6166V65.1506H42.1644V66.1506ZM42.6166 66.1506H62.0274V65.1506H42.6166V66.1506ZM66.5 61.1504C63.9259 61.1504 61.8068 63.0951 61.5305 65.5957L62.5244 65.7055C62.7454 63.706 64.4414 62.1504 66.5 62.1504V61.1504ZM71.5 66.1504C71.5 63.389 69.2614 61.1504 66.5 61.1504V62.1504C68.7091 62.1504 70.5 63.9413 70.5 66.1504H71.5Z" fill="white" fill-opacity="0.88"/>
<path fill-rule="evenodd" clip-rule="evenodd" d="M47.2028 33.3623C48.8768 32.3958 51.0174 32.9694 51.9839 34.6434C52.9504 36.3174 52.3768 38.458 50.7028 39.4245C49.0288 40.391 46.8882 39.8174 45.9217 38.1434C44.9552 36.4694 45.5288 34.3288 47.2028 33.3623ZM46.7028 32.4963C48.8551 31.2537 51.6072 31.9911 52.8499 34.1434C54.0081 36.1494 53.4462 38.6765 51.6219 40.0169L61.1052 56.4425C64.0435 55.2436 68.072 54.8736 71.8708 57.0668C77.3008 60.2018 78.8497 66.9752 75.7345 72.3707C74.6024 74.3316 72.971 75.8265 71.0935 76.786C70.8476 76.9117 70.5464 76.8142 70.4208 76.5683C70.2951 76.3224 70.3925 76.0212 70.6384 75.8956C72.3493 75.0212 73.8357 73.6596 74.8685 71.8707C77.7276 66.9186 76.2884 60.772 71.3708 57.9328C67.7349 55.8336 63.8514 56.2936 61.0995 57.5329L60.6873 57.7185L60.4612 57.327L50.7558 40.5168C48.683 41.4263 46.2138 40.6493 45.0557 38.6434C43.813 36.4911 44.5505 33.7389 46.7028 32.4963Z" fill="#333333"/>
<path fill-rule="evenodd" clip-rule="evenodd" d="M47.2028 33.3623C48.8768 32.3958 51.0174 32.9694 51.9839 34.6434C52.9504 36.3174 52.3768 38.458 50.7028 39.4245C49.0288 40.391 46.8882 39.8174 45.9217 38.1434C44.9552 36.4694 45.5288 34.3288 47.2028 33.3623ZM46.7028 32.4963C48.8551 31.2537 51.6072 31.9911 52.8499 34.1434C54.0081 36.1494 53.4462 38.6765 51.6219 40.0169L61.1052 56.4425C64.0435 55.2436 68.072 54.8736 71.8708 57.0668C77.3008 60.2018 78.8497 66.9752 75.7345 72.3707C74.6024 74.3316 72.971 75.8265 71.0935 76.786C70.8476 76.9117 70.5464 76.8142 70.4208 76.5683C70.2951 76.3224 70.3925 76.0212 70.6384 75.8956C72.3493 75.0212 73.8357 73.6596 74.8685 71.8707C77.7276 66.9186 76.2884 60.772 71.3708 57.9328C67.7349 55.8336 63.8514 56.2936 61.0995 57.5329L60.6873 57.7185L60.4612 57.327L50.7558 40.5168C48.683 41.4263 46.2138 40.6493 45.0557 38.6434C43.813 36.4911 44.5505 33.7389 46.7028 32.4963Z" fill="white" fill-opacity="0.88"/>
<path d="M51.6219 40.0169L51.3258 39.6139L50.965 39.8791L51.1889 40.2669L51.6219 40.0169ZM61.1052 56.4425L60.6722 56.6925L60.8903 57.0702L61.2941 56.9054L61.1052 56.4425ZM71.8708 57.0668L71.6208 57.4998L71.8708 57.0668ZM75.7345 72.3707L76.1676 72.6207L75.7345 72.3707ZM71.0935 76.786L71.3211 77.2312L71.0935 76.786ZM70.6384 75.8956L70.866 76.3408L70.6384 75.8956ZM74.8685 71.8707L74.4355 71.6207L74.8685 71.8707ZM71.3708 57.9328L71.1208 58.3658L71.3708 57.9328ZM61.0995 57.5329L60.8942 57.077L60.8942 57.077L61.0995 57.5329ZM60.6873 57.7185L60.2542 57.9685L60.4803 58.3601L60.8926 58.1744L60.6873 57.7185ZM50.7558 40.5168L51.1889 40.2668L50.965 39.8791L50.555 40.0589L50.7558 40.5168ZM52.4169 34.3934C51.3123 32.4802 48.8659 31.8247 46.9528 32.9293L47.4528 33.7953C48.8877 32.9669 50.7224 33.4585 51.5509 34.8934L52.4169 34.3934ZM50.9528 39.8575C52.8659 38.7529 53.5214 36.3066 52.4169 34.3934L51.5509 34.8934C52.3793 36.3283 51.8877 38.1631 50.4528 38.9915L50.9528 39.8575ZM45.4887 38.3934C46.5932 40.3066 49.0396 40.9621 50.9528 39.8575L50.4528 38.9915C49.0179 39.8199 47.1831 39.3283 46.3547 37.8934L45.4887 38.3934ZM46.9528 32.9293C45.0396 34.0339 44.3841 36.4802 45.4887 38.3934L46.3547 37.8934C45.5263 36.4585 46.0179 34.6238 47.4528 33.7953L46.9528 32.9293ZM53.2829 33.8934C51.9022 31.5019 48.8442 30.6826 46.4528 32.0633L46.9528 32.9293C48.8659 31.8247 51.3123 32.4802 52.4169 34.3934L53.2829 33.8934ZM51.9179 40.4198C53.9454 38.9302 54.5699 36.1226 53.2829 33.8934L52.4169 34.3934C53.4462 36.1762 52.947 38.4228 51.3258 39.6139L51.9179 40.4198ZM51.1889 40.2669L60.6722 56.6925L61.5382 56.1925L52.0549 39.7669L51.1889 40.2669ZM61.2941 56.9054C64.1261 55.7499 67.9869 55.4017 71.6208 57.4998L72.1208 56.6338C68.1572 54.3454 63.9609 54.7373 60.9163 55.9795L61.2941 56.9054ZM71.6208 57.4998C76.7944 60.4867 78.2888 66.9467 75.3015 72.1207L76.1676 72.6207C79.4106 67.0036 77.8072 59.9168 72.1208 56.6338L71.6208 57.4998ZM75.3015 72.1207C74.2191 73.9956 72.6601 75.4238 70.866 76.3408L71.3211 77.2312C73.2818 76.2291 74.9858 74.6676 76.1676 72.6207L75.3015 72.1207ZM70.866 76.3408L70.866 76.3408L69.9755 76.7959C70.2269 77.2877 70.8293 77.4826 71.3211 77.2312L70.866 76.3408ZM70.866 76.3408L70.866 76.3408L70.4109 75.4503C69.9191 75.7017 69.7242 76.3041 69.9755 76.7959L70.866 76.3408ZM70.866 76.3408C72.6601 75.4238 74.2191 73.9956 75.3015 72.1207L74.4355 71.6207C73.4524 73.3235 72.0385 74.6185 70.4109 75.4503L70.866 76.3408ZM75.3015 72.1207C78.2888 66.9466 76.7944 60.4867 71.6208 57.4998L71.1208 58.3658C75.7825 61.0572 77.1664 66.8907 74.4355 71.6207L75.3015 72.1207ZM71.6208 57.4998C67.8122 55.3009 63.7535 55.7893 60.8942 57.077L61.3048 57.9888C63.9492 56.7979 67.6576 56.3663 71.1208 58.3658L71.6208 57.4998ZM60.8942 57.077L60.4819 57.2626L60.8926 58.1744L61.3048 57.9888L60.8942 57.077ZM61.1203 57.4685L60.8942 57.077L60.0282 57.577L60.2542 57.9685L61.1203 57.4685ZM60.8942 57.077L51.1889 40.2668L50.3228 40.7668L60.0282 57.577L60.8942 57.077ZM44.6226 38.8934C45.9096 41.1225 48.6531 41.9854 50.9567 40.9747L50.555 40.0589C48.7129 40.8671 46.5179 40.1761 45.4887 38.3934L44.6226 38.8934ZM46.4528 32.0633C44.0613 33.444 43.2419 36.5019 44.6226 38.8934L45.4887 38.3934C44.3841 36.4802 45.0396 34.0339 46.9528 32.9293L46.4528 32.0633Z" fill="#333333"/>
<path d="M51.6219 40.0169L51.3258 39.6139L50.965 39.8791L51.1889 40.2669L51.6219 40.0169ZM61.1052 56.4425L60.6722 56.6925L60.8903 57.0702L61.2941 56.9054L61.1052 56.4425ZM71.8708 57.0668L71.6208 57.4998L71.8708 57.0668ZM75.7345 72.3707L76.1676 72.6207L75.7345 72.3707ZM71.0935 76.786L71.3211 77.2312L71.0935 76.786ZM70.6384 75.8956L70.866 76.3408L70.6384 75.8956ZM74.8685 71.8707L74.4355 71.6207L74.8685 71.8707ZM71.3708 57.9328L71.1208 58.3658L71.3708 57.9328ZM61.0995 57.5329L60.8942 57.077L60.8942 57.077L61.0995 57.5329ZM60.6873 57.7185L60.2542 57.9685L60.4803 58.3601L60.8926 58.1744L60.6873 57.7185ZM50.7558 40.5168L51.1889 40.2668L50.965 39.8791L50.555 40.0589L50.7558 40.5168ZM52.4169 34.3934C51.3123 32.4802 48.8659 31.8247 46.9528 32.9293L47.4528 33.7953C48.8877 32.9669 50.7224 33.4585 51.5509 34.8934L52.4169 34.3934ZM50.9528 39.8575C52.8659 38.7529 53.5214 36.3066 52.4169 34.3934L51.5509 34.8934C52.3793 36.3283 51.8877 38.1631 50.4528 38.9915L50.9528 39.8575ZM45.4887 38.3934C46.5932 40.3066 49.0396 40.9621 50.9528 39.8575L50.4528 38.9915C49.0179 39.8199 47.1831 39.3283 46.3547 37.8934L45.4887 38.3934ZM46.9528 32.9293C45.0396 34.0339 44.3841 36.4802 45.4887 38.3934L46.3547 37.8934C45.5263 36.4585 46.0179 34.6238 47.4528 33.7953L46.9528 32.9293ZM53.2829 33.8934C51.9022 31.5019 48.8442 30.6826 46.4528 32.0633L46.9528 32.9293C48.8659 31.8247 51.3123 32.4802 52.4169 34.3934L53.2829 33.8934ZM51.9179 40.4198C53.9454 38.9302 54.5699 36.1226 53.2829 33.8934L52.4169 34.3934C53.4462 36.1762 52.947 38.4228 51.3258 39.6139L51.9179 40.4198ZM51.1889 40.2669L60.6722 56.6925L61.5382 56.1925L52.0549 39.7669L51.1889 40.2669ZM61.2941 56.9054C64.1261 55.7499 67.9869 55.4017 71.6208 57.4998L72.1208 56.6338C68.1572 54.3454 63.9609 54.7373 60.9163 55.9795L61.2941 56.9054ZM71.6208 57.4998C76.7944 60.4867 78.2888 66.9467 75.3015 72.1207L76.1676 72.6207C79.4106 67.0036 77.8072 59.9168 72.1208 56.6338L71.6208 57.4998ZM75.3015 72.1207C74.2191 73.9956 72.6601 75.4238 70.866 76.3408L71.3211 77.2312C73.2818 76.2291 74.9858 74.6676 76.1676 72.6207L75.3015 72.1207ZM70.866 76.3408L70.866 76.3408L69.9755 76.7959C70.2269 77.2877 70.8293 77.4826 71.3211 77.2312L70.866 76.3408ZM70.866 76.3408L70.866 76.3408L70.4109 75.4503C69.9191 75.7017 69.7242 76.3041 69.9755 76.7959L70.866 76.3408ZM70.866 76.3408C72.6601 75.4238 74.2191 73.9956 75.3015 72.1207L74.4355 71.6207C73.4524 73.3235 72.0385 74.6185 70.4109 75.4503L70.866 76.3408ZM75.3015 72.1207C78.2888 66.9466 76.7944 60.4867 71.6208 57.4998L71.1208 58.3658C75.7825 61.0572 77.1664 66.8907 74.4355 71.6207L75.3015 72.1207ZM71.6208 57.4998C67.8122 55.3009 63.7535 55.7893 60.8942 57.077L61.3048 57.9888C63.9492 56.7979 67.6576 56.3663 71.1208 58.3658L71.6208 57.4998ZM60.8942 57.077L60.4819 57.2626L60.8926 58.1744L61.3048 57.9888L60.8942 57.077ZM61.1203 57.4685L60.8942 57.077L60.0282 57.577L60.2542 57.9685L61.1203 57.4685ZM60.8942 57.077L51.1889 40.2668L50.3228 40.7668L60.0282 57.577L60.8942 57.077ZM44.6226 38.8934C45.9096 41.1225 48.6531 41.9854 50.9567 40.9747L50.555 40.0589C48.7129 40.8671 46.5179 40.1761 45.4887 38.3934L44.6226 38.8934ZM46.4528 32.0633C44.0613 33.444 43.2419 36.5019 44.6226 38.8934L45.4887 38.3934C44.3841 36.4802 45.0396 34.0339 46.9528 32.9293L46.4528 32.0633Z" fill="white" fill-opacity="0.88"/>
<path fill-rule="evenodd" clip-rule="evenodd" d="M29.8177 69.4199C28.1437 68.4534 27.5701 66.3128 28.5366 64.6388C29.5031 62.9648 31.6437 62.3912 33.3177 63.3577C34.9918 64.3242 35.5653 66.4648 34.5988 68.1388C33.6323 69.8128 31.4918 70.3864 29.8177 69.4199ZM29.3177 70.2859C27.1654 69.0433 26.428 66.2911 27.6706 64.1388C28.8288 62.1328 31.2983 61.3558 33.3713 62.2656L42.8547 45.8397C40.3473 43.8946 38.0126 40.5908 38.0126 36.2043C38.0126 29.9343 43.1041 25.2063 49.3343 25.2063C51.5986 25.2063 53.7089 25.8717 55.4786 27.0179C55.7104 27.168 55.7766 27.4776 55.6265 27.7093C55.4764 27.9411 55.1668 28.0073 54.935 27.8572C53.3223 26.8128 51.3999 26.2063 49.3343 26.2063C43.6162 26.2063 39.0126 30.5259 39.0126 36.2043C39.0126 40.4027 41.3527 43.536 43.8019 45.2995L44.1688 45.5637L43.9427 45.9553L34.2373 62.7657C36.0612 64.1061 36.6229 66.6329 35.4648 68.6388C34.2222 70.7911 31.47 71.5286 29.3177 70.2859Z" fill="#E07751"/>
<path d="M33.3713 62.2656L33.1703 62.7235L33.5804 62.9034L33.8043 62.5156L33.3713 62.2656ZM42.8547 45.8397L43.2878 46.0897L43.5058 45.712L43.1612 45.4447L42.8547 45.8397ZM38.0126 36.2043L38.5126 36.2043L38.0126 36.2043ZM49.3343 25.2063L49.3343 25.7063L49.3343 25.2063ZM55.4786 27.0179L55.7504 26.5982L55.4786 27.0179ZM55.6265 27.7093L56.0461 27.9811L55.6265 27.7093ZM54.935 27.8572L54.6632 28.2769L54.935 27.8572ZM49.3343 26.2063L49.3343 26.7063L49.3343 26.2063ZM39.0126 36.2043L39.5126 36.2043L39.0126 36.2043ZM43.8019 45.2995L43.5097 45.7053L43.5097 45.7053L43.8019 45.2995ZM44.1688 45.5637L44.6018 45.8137L44.8279 45.4221L44.461 45.1579L44.1688 45.5637ZM43.9427 45.9553L43.5097 45.7053L43.9427 45.9553ZM34.2373 62.7657L33.8042 62.5157L33.5804 62.9034L33.9412 63.1686L34.2373 62.7657ZM28.1036 64.3888C26.9991 66.302 27.6546 68.7483 29.5677 69.8529L30.0677 68.9869C28.6328 68.1585 28.1412 66.3237 28.9697 64.8888L28.1036 64.3888ZM33.5677 62.9247C31.6546 61.8201 29.2082 62.4756 28.1036 64.3888L28.9697 64.8888C29.7981 63.4539 31.6328 62.9623 33.0677 63.7907L33.5677 62.9247ZM35.0318 68.3888C36.1364 66.4756 35.4809 64.0293 33.5677 62.9247L33.0677 63.7907C34.5026 64.6192 34.9942 66.4539 34.1658 67.8888L35.0318 68.3888ZM29.5677 69.8529C31.4809 70.9575 33.9273 70.302 35.0318 68.3888L34.1658 67.8888C33.3374 69.3237 31.5026 69.8153 30.0677 68.9869L29.5677 69.8529ZM27.2376 63.8888C25.8569 66.2803 26.6763 69.3382 29.0677 70.7189L29.5677 69.8529C27.6546 68.7483 26.9991 66.302 28.1036 64.3888L27.2376 63.8888ZM33.5722 61.8078C31.2684 60.7967 28.5246 61.6596 27.2376 63.8888L28.1036 64.3888C29.133 62.606 31.3282 61.915 33.1703 62.7235L33.5722 61.8078ZM33.8043 62.5156L43.2878 46.0897L42.4217 45.5897L32.9382 62.0156L33.8043 62.5156ZM43.1612 45.4447C40.7445 43.5699 38.5126 40.4004 38.5126 36.2043L37.5126 36.2043C37.5126 40.7811 39.9502 44.2193 42.5483 46.2348L43.1612 45.4447ZM38.5126 36.2043C38.5126 30.2304 43.3598 25.7063 49.3343 25.7063L49.3343 24.7063C42.8483 24.7063 37.5126 29.6382 37.5126 36.2043L38.5126 36.2043ZM49.3343 25.7063C51.4992 25.7063 53.5156 26.3422 55.2068 27.4375L55.7504 26.5982C53.9022 25.4012 51.6979 24.7063 49.3343 24.7063L49.3343 25.7063ZM55.2068 27.4375L55.2068 27.4375L56.0461 27.9811C56.3464 27.5176 56.214 26.8984 55.7504 26.5982L55.2068 27.4375ZM55.2068 27.4375L55.2068 27.4375L54.6632 28.2769C55.1268 28.5771 55.7459 28.4447 56.0461 27.9811L55.2068 27.4375ZM55.2068 27.4375C53.5156 26.3422 51.4992 25.7063 49.3343 25.7063L49.3343 26.7063C51.3006 26.7063 53.129 27.2833 54.6632 28.2769L55.2068 27.4375ZM49.3343 25.7063C43.3598 25.7063 38.5126 30.2304 38.5126 36.2043L39.5126 36.2043C39.5126 30.8215 43.8725 26.7063 49.3343 26.7063L49.3343 25.7063ZM38.5126 36.2043C38.5126 40.6021 40.9649 43.8729 43.5097 45.7053L44.0941 44.8937C41.7405 43.1991 39.5126 40.2033 39.5126 36.2043L38.5126 36.2043ZM43.5097 45.7053L43.8767 45.9694L44.461 45.1579L44.0941 44.8937L43.5097 45.7053ZM43.7358 45.3137L43.5097 45.7053L44.3758 46.2053L44.6018 45.8137L43.7358 45.3137ZM43.5097 45.7053L33.8042 62.5157L34.6703 63.0157L44.3758 46.2053L43.5097 45.7053ZM35.8979 68.8888C37.1848 66.6598 36.5604 63.8524 34.5333 62.3628L33.9412 63.1686C35.562 64.3598 36.0611 66.6061 35.0318 68.3888L35.8979 68.8888ZM29.0677 70.7189C31.4592 72.0997 34.5171 71.2803 35.8979 68.8888L35.0318 68.3888C33.9273 70.302 31.4809 70.9575 29.5677 69.8529L29.0677 70.7189Z" fill="#E07751"/>
</svg>
