<svg width="100" height="100" viewBox="0 0 100 100" fill="none" xmlns="http://www.w3.org/2000/svg">
<path d="M68 0.5H68.5V1V79V79.5H68H4H3.5V79V13.5528V13.3493L3.64216 13.2036L15.8922 0.650789L16.0393 0.5H16.25H68Z" fill="#333333"/>
<path d="M68 0.5H68.5V1V79V79.5H68H4H3.5V79V13.5528V13.3493L3.64216 13.2036L15.8922 0.650789L16.0393 0.5H16.25H68Z" fill="white" fill-opacity="0.88"/>
<path d="M68 0.5H68.5V1V79V79.5H68H4H3.5V79V13.5528V13.3493L3.64216 13.2036L15.8922 0.650789L16.0393 0.5H16.25H68Z" stroke="#333333"/>
<path d="M15.6464 0.646447C15.7894 0.503448 16.0045 0.46067 16.1913 0.53806C16.3782 0.615451 16.5 0.797769 16.5 1V13C16.5 13.2761 16.2761 13.5 16 13.5H4C3.79777 13.5 3.61545 13.3782 3.53806 13.1913C3.46067 13.0045 3.50345 12.7894 3.64645 12.6464L15.6464 0.646447Z" fill="#ADADAD" stroke="#333333" stroke-linejoin="round"/>
<path d="M77 7.5H77.5V8V86V86.5H77H13H12.5V86V20.4397V20.235L12.6434 20.0891L24.8726 7.64948L25.0196 7.5H25.2292H77Z" fill="#333333"/>
<path d="M77 7.5H77.5V8V86V86.5H77H13H12.5V86V20.4397V20.235L12.6434 20.0891L24.8726 7.64948L25.0196 7.5H25.2292H77Z" fill="white" fill-opacity="0.88"/>
<path d="M77 7.5H77.5V8V86V86.5H77H13H12.5V86V20.4397V20.235L12.6434 20.0891L24.8726 7.64948L25.0196 7.5H25.2292H77Z" stroke="#333333"/>
<path d="M24.6464 7.64645C24.7894 7.50345 25.0045 7.46067 25.1913 7.53806C25.3782 7.61545 25.5 7.79777 25.5 8V20C25.5 20.2761 25.2761 20.5 25 20.5H13C12.7978 20.5 12.6155 20.3782 12.5381 20.1913C12.4607 20.0045 12.5034 19.7894 12.6464 19.6464L24.6464 7.64645Z" fill="#ADADAD" stroke="#333333" stroke-linejoin="round"/>
<path fill-rule="evenodd" clip-rule="evenodd" d="M85.5 14.5H34.0962L21.5 26.786V91.5H85.5V14.5Z" fill="#333333"/>
<path fill-rule="evenodd" clip-rule="evenodd" d="M85.5 14.5H34.0962L21.5 26.786V91.5H85.5V14.5Z" fill="white" fill-opacity="0.88"/>
<path d="M86 49.6949V14H34.2062L22 26.2288V92H50.701" stroke="#333333" stroke-linecap="round" stroke-linejoin="round"/>
<path d="M34.1464 14.1464C34.2894 14.0034 34.5045 13.9607 34.6913 14.0381C34.8782 14.1155 35 14.2978 35 14.5V26.5C35 26.7761 34.7761 27 34.5 27H22.5C22.2978 27 22.1155 26.8782 22.0381 26.6913C21.9607 26.5045 22.0034 26.2894 22.1464 26.1464L34.1464 14.1464Z" fill="#E07751" stroke="#333333" stroke-linejoin="round"/>
<path fill-rule="evenodd" clip-rule="evenodd" d="M76 33.498C76.2761 33.498 76.5 33.7219 76.5 33.998C76.5 34.2742 76.2761 34.498 76 34.498H43C42.7238 34.498 42.5 34.2742 42.5 33.998C42.5 33.7219 42.7238 33.498 43 33.498H76ZM45.9914 69.498C46.2675 69.498 46.4914 69.7219 46.4914 69.998C46.4914 70.2742 46.2675 70.498 45.9914 70.498H32.7739C32.4978 70.498 32.2739 70.2742 32.2739 69.998C32.2739 69.7219 32.4978 69.498 32.7739 69.498H45.9914ZM56.0773 55.998C56.0773 55.7219 55.8534 55.498 55.5773 55.498H32.7739C32.4978 55.498 32.2739 55.7219 32.2739 55.998C32.2739 56.2742 32.4978 56.498 32.7739 56.498H55.5773C55.8534 56.498 56.0773 56.2742 56.0773 55.998ZM76 40.498C76.2761 40.498 76.5 40.7219 76.5 40.998C76.5 41.2742 76.2761 41.498 76 41.498H32.7739C32.4978 41.498 32.2739 41.2742 32.2739 40.998C32.2739 40.7219 32.4978 40.498 32.7739 40.498H76ZM50.2758 62.998C50.2758 62.7219 50.052 62.498 49.7758 62.498H32.7739C32.4978 62.498 32.2739 62.7219 32.2739 62.998C32.2739 63.2742 32.4978 63.498 32.7739 63.498H49.7758C50.052 63.498 50.2758 63.2742 50.2758 62.998ZM45.4061 76.498C45.6822 76.498 45.9061 76.7219 45.9061 76.998C45.9061 77.2742 45.6822 77.498 45.4061 77.498H32.7739C32.4978 77.498 32.2739 77.2742 32.2739 76.998C32.2739 76.7219 32.4978 76.498 32.7739 76.498H45.4061ZM76 47.4999C76.2761 47.4999 76.5 47.7237 76.5 47.9999C76.5 48.276 76.2761 48.4999 76 48.4999H59.0267C58.7506 48.4999 58.5267 48.276 58.5267 47.9999C58.5267 47.7237 58.7506 47.4999 59.0267 47.4999H76ZM54.3442 47.4999C54.6204 47.4999 54.8442 47.7237 54.8442 47.9999C54.8442 48.276 54.6204 48.4999 54.3442 48.4999H33.2739C32.9978 48.4999 32.7739 48.276 32.7739 47.9999C32.7739 47.7237 32.9978 47.4999 33.2739 47.4999H54.3442ZM75.7075 70.6945C75.9836 70.6945 76.2075 70.9184 76.2075 71.1945C76.2075 71.4707 75.9836 71.6945 75.7075 71.6945H58.7342C58.4581 71.6945 58.2342 71.4707 58.2342 71.1945C58.2342 70.9184 58.4581 70.6945 58.7342 70.6945H75.7075Z" fill="#333333"/>
<path d="M71.5 25.5H49.5" stroke="#E07751" stroke-width="2" stroke-linecap="round"/>
<path d="M76 98.5017C63.5747 98.5017 53.5 88.4267 53.5 76.0009C53.5 63.575 63.5747 53.5 76 53.5C88.4252 53.5 98.4999 63.5749 98.5 76.0006C98.4935 88.4268 88.4186 98.5017 76 98.5017Z" fill="#333333"/>
<path d="M76 98.5017C63.5747 98.5017 53.5 88.4267 53.5 76.0009C53.5 63.575 63.5747 53.5 76 53.5C88.4252 53.5 98.4999 63.5749 98.5 76.0006C98.4935 88.4268 88.4186 98.5017 76 98.5017Z" fill="white" fill-opacity="0.88"/>
<path d="M76 98.5017C63.5747 98.5017 53.5 88.4267 53.5 76.0009C53.5 63.575 63.5747 53.5 76 53.5C88.4252 53.5 98.4999 63.5749 98.5 76.0006C98.4935 88.4268 88.4186 98.5017 76 98.5017Z" stroke="#333333"/>
<path d="M56.5 76C56.5 86.7688 65.2309 95.5 75.9993 95.5C86.7677 95.5 95.4986 86.7688 95.4986 76C95.4986 65.2312 86.7677 56.5 75.9993 56.5C65.2309 56.5 56.5 65.2312 56.5 76Z" fill="#E07751" stroke="#333333"/>
<path fill-rule="evenodd" clip-rule="evenodd" d="M75.9992 78C74.8926 78 73.9993 77.1066 73.9993 76C73.9993 74.8934 74.8926 74 75.9992 74C77.1058 74 77.9991 74.8934 77.9991 76C77.989 77.1066 77.0956 78 75.9992 78Z" fill="#333333"/>
<path fill-rule="evenodd" clip-rule="evenodd" d="M75.9992 78C74.8926 78 73.9993 77.1066 73.9993 76C73.9993 74.8934 74.8926 74 75.9992 74C77.1058 74 77.9991 74.8934 77.9991 76C77.989 77.1066 77.0956 78 75.9992 78Z" fill="white" fill-opacity="0.88"/>
<path d="M75.9993 67.998V75.998" stroke="#333333" stroke-width="2" stroke-linecap="round"/>
<path d="M75.9993 67.998V75.998" stroke="white" stroke-opacity="0.88" stroke-width="2" stroke-linecap="round"/>
<path d="M86.0509 86.0497L75.9993 75.998" stroke="#333333" stroke-linecap="round"/>
<path d="M86.0509 86.0497L75.9993 75.998" stroke="white" stroke-opacity="0.88" stroke-linecap="round"/>
</svg>
