<svg width="100" height="100" viewBox="0 0 100 100" fill="none" xmlns="http://www.w3.org/2000/svg">
<g clip-path="url(#clip0_4082_220269)">
<path fill-rule="evenodd" clip-rule="evenodd" d="M80 6C80 3.79086 78.2091 2 76 2H48.2712H16.9625C16.6938 2 16.4364 2.10815 16.2483 2.30006L2.2858 16.5471C2.10261 16.7341 2 16.9854 2 17.2471V95C2 97.2091 3.79086 99 6 99H77C78.6569 99 80 97.6569 80 96V62.7958V37.8627V12.9296V6Z" fill="#333333"/>
<path fill-rule="evenodd" clip-rule="evenodd" d="M80 6C80 3.79086 78.2091 2 76 2H48.2712H16.9625C16.6938 2 16.4364 2.10815 16.2483 2.30006L2.2858 16.5471C2.10261 16.7341 2 16.9854 2 17.2471V95C2 97.2091 3.79086 99 6 99H77C78.6569 99 80 97.6569 80 96V62.7958V37.8627V12.9296V6Z" fill="white" fill-opacity="0.88"/>
<path d="M80.5 57L80.5 95.5C80.5 97.7091 78.7091 99.5 76.5 99.5L5.49999 99.5C3.29085 99.5 1.49999 97.7091 1.49999 95.5L1.49999 17.8697L16.5874 2.5L76.5 2.5C78.7091 2.5 80.5 4.29087 80.5 6.5V14.55" stroke="#333333" stroke-linecap="round" stroke-linejoin="round"/>
<path fill-rule="evenodd" clip-rule="evenodd" d="M16.55 2.55005L2.00004 17.5203L14.5528 17.5028C15.6563 17.5013 16.5501 16.6063 16.5501 15.5028L16.55 2.55005Z" fill="#E07751" stroke="#333333" stroke-linejoin="round"/>
<path fill-rule="evenodd" clip-rule="evenodd" d="M29.9286 24.5029C29.9286 24.2268 29.7048 24.0029 29.4286 24.0029H24.4286C24.1525 24.0029 23.9286 24.2268 23.9286 24.5029C23.9286 24.7791 24.1525 25.0029 24.4286 25.0029H29.4286C29.7048 25.0029 29.9286 24.7791 29.9286 24.5029ZM51.755 44.4999C51.755 44.2238 51.5311 43.9999 51.255 43.9999H36.4566C36.1804 43.9999 35.9566 44.2238 35.9566 44.4999C35.9566 44.7761 36.1804 44.9999 36.4566 44.9999H51.255C51.5311 44.9999 51.755 44.7761 51.755 44.4999ZM30.23 44.4999C30.23 44.2238 30.0061 43.9999 29.73 43.9999H14.9315C14.6554 43.9999 14.4315 44.2238 14.4315 44.4999C14.4315 44.7761 14.6554 44.9999 14.9315 44.9999H29.73C30.0061 44.9999 30.23 44.7761 30.23 44.4999ZM55.9636 53.9999C56.2398 53.9999 56.4636 54.2238 56.4636 54.4999C56.4636 54.7761 56.2398 54.9999 55.9636 54.9999H14.9316C14.6554 54.9999 14.4316 54.7761 14.4316 54.4999C14.4316 54.2238 14.6554 53.9999 14.9316 53.9999H55.9636ZM44.4315 34.4999C44.4315 34.2238 44.2077 33.9999 43.9315 33.9999H14.9315C14.6554 33.9999 14.4315 34.2238 14.4315 34.4999C14.4315 34.7761 14.6554 34.9999 14.9315 34.9999H43.9315C44.2077 34.9999 44.4315 34.7761 44.4315 34.4999ZM34.1316 63.9999C34.4077 63.9999 34.6316 64.2238 34.6316 64.4999C34.6316 64.7761 34.4077 64.9999 34.1316 64.9999H14.9316C14.6554 64.9999 14.4316 64.7761 14.4316 64.4999C14.4316 64.2238 14.6554 63.9999 14.9316 63.9999H34.1316ZM43 85.4996C43 85.2234 42.7762 84.9996 42.5 84.9996H15.5C15.2239 84.9996 15 85.2234 15 85.4996C15 85.7757 15.2239 85.9996 15.5 85.9996H42.5C42.7762 85.9996 43 85.7757 43 85.4996ZM57.5 73.9999C57.7761 73.9999 58 74.2238 58 74.4999C58 74.7761 57.7761 74.9999 57.5 74.9999H14.5C14.2239 74.9999 14 74.7761 14 74.4999C14 74.2238 14.2239 73.9999 14.5 73.9999H57.5Z" fill="#333333"/>
<path d="M56 64.5H42" stroke="#333333" stroke-linecap="round"/>
<path d="M61 13.55H34" stroke="#E07751" stroke-width="2" stroke-linecap="round"/>
<path d="M93.3847 25.9247L93.3847 25.9247L93.3806 25.93L74.6016 50.6979L74.5 50.8319V51V76.9194C74.5 77.3386 74.015 77.5717 73.6877 77.3098L65.6877 70.9098C65.569 70.8149 65.5 70.6713 65.5 70.5194V50V49.8265L65.3925 49.6903L46.651 25.9356C46.6508 25.9354 46.6506 25.9351 46.6504 25.9349C46.0449 25.1616 45.5091 23.9549 45.5001 22.9943C45.4957 22.5255 45.6159 22.1725 45.8478 21.9355C46.078 21.7004 46.4964 21.5 47.2584 21.5H48.2006H93.0076C93.6829 21.5 94.0308 21.6989 94.2186 21.9259C94.4186 22.1676 94.5191 22.5391 94.497 23.0329C94.4525 24.0311 93.9168 25.2421 93.3847 25.9247Z" fill="#ADADAD" stroke="#333333"/>
</g>
<defs>
<clipPath id="clip0_4082_220269">
<rect width="100" height="100" fill="white"/>
</clipPath>
</defs>
</svg>
