<svg width="16" height="16" viewBox="0 0 16 16" fill="none" xmlns="http://www.w3.org/2000/svg">
<g clip-path="url(#clip0_17302:17825)">
<path d="M7.5211 6.49995C9.25981 6.49995 10.0001 5.14276 10.0001 2.85706V2.49943C10.0001 1.11905 8.88114 2.72332e-05 7.50076 4.98402e-10C6.12035 -2.7224e-05 5.00128 1.11901 5.00128 2.49943V2.85706C5.00128 5.14276 5.7824 6.49995 7.5211 6.49995Z" fill="#333333"/>
<path d="M2.08587 12.003C2.28012 9.89946 2.9164 6.99995 5.0006 6.99995C5.4805 6.99995 5.8042 7.11494 6.14113 7.23463C6.50678 7.36452 6.88801 7.49995 7.50138 7.49995C7.56189 7.49995 7.62013 7.49863 7.67632 7.49613L2.24822 12.9242C2.11685 12.6484 2.05521 12.3349 2.08587 12.003Z" fill="#333333"/>
<path d="M6.82984 13.9995L12.1517 8.67759C12.6064 9.67074 12.8175 10.9387 12.9155 12.003C13.0168 13.1029 12.105 13.9995 11.0004 13.9995L6.82984 13.9995Z" fill="#333333"/>
<path d="M13.7081 5.70711L3.70808 15.7071L2.29387 14.2929L12.2939 4.29289L13.7081 5.70711Z" fill="#333333"/>
</g>
<defs>
<clipPath id="clip0_17302:17825">
<rect width="16" height="16" fill="white"/>
</clipPath>
</defs>
</svg>
