<svg width="32" height="32" viewBox="0 0 32 32" fill="none" xmlns="http://www.w3.org/2000/svg">
<path fill-rule="evenodd" clip-rule="evenodd" d="M13.0136 10.0186C12.9822 8.33891 14.3539 7 16.0011 7C17.6483 7 19.0201 8.33904 18.9885 10.0189C18.9622 11.4109 18.8797 12.699 18.5276 13.6523C18.344 14.1496 18.0618 14.6296 17.6099 14.9817C17.1449 15.344 16.5912 15.5 16.0001 15.5C15.4089 15.5 14.8552 15.3439 14.3902 14.9814C13.9384 14.6292 13.6565 14.1489 13.4731 13.6516C13.1215 12.6983 13.0395 11.4102 13.0136 10.0186ZM16.0011 9C15.4401 9 15.0034 9.45322 15.0132 9.9813C15.0398 11.4049 15.131 12.3669 15.3496 12.9597C15.4513 13.2355 15.5537 13.3525 15.6199 13.4041C15.673 13.4455 15.7711 13.5 16.0001 13.5C16.2291 13.5 16.3275 13.4455 16.3808 13.404C16.4472 13.3522 16.5497 13.2352 16.6515 12.9595C16.8703 12.3668 16.962 11.4049 16.9888 9.98123C16.9988 9.45328 16.5621 9 16.0011 9ZM13.0334 18.2724L13.0319 18.2741C12.7919 18.5425 12.5514 18.9867 12.335 19.5975C12.1233 20.1954 11.9573 20.8874 11.8311 21.5936C11.5778 23.0098 11.5001 24.3913 11.5001 25H9.50007C9.50007 24.2823 9.58673 22.7825 9.86228 21.2416C10.0004 20.4692 10.1899 19.6636 10.4498 18.9299C10.705 18.2091 11.0522 17.4875 11.541 16.9409C12.1267 16.286 12.9016 16.1561 13.554 16.2391C14.1759 16.3182 14.7633 16.5918 15.2147 16.8626C15.6981 17.1526 16.302 17.1526 16.7854 16.8626C17.2368 16.5918 17.8242 16.3182 18.4462 16.2391C19.0986 16.1561 19.8735 16.286 20.4592 16.9409C20.9479 17.4875 21.2951 18.2091 21.5504 18.9299C21.8102 19.6636 21.9998 20.4692 22.1379 21.2416C22.4134 22.7825 22.5001 24.2823 22.5001 25H20.5001C20.5001 24.3913 20.4223 23.0098 20.1691 21.5936C20.0428 20.8874 19.8768 20.1954 19.6651 19.5975C19.4488 18.9867 19.2083 18.5425 18.9683 18.2741L18.9668 18.2724C18.9419 18.2444 18.9 18.1975 18.6986 18.2231C18.4626 18.2531 18.1483 18.3772 17.8144 18.5776C16.6977 19.2476 15.3025 19.2476 14.1857 18.5776C13.8518 18.3772 13.5376 18.2531 13.3015 18.2231C13.1001 18.1975 13.0583 18.2444 13.0334 18.2724ZM12.0137 10.0372C12.0121 9.95035 12.0133 9.86416 12.0172 9.77875C11.7156 9.60078 11.3654 9.5 10.9997 9.5C9.91388 9.5 8.96835 10.3866 9.01547 11.5405C9.03897 12.1161 9.09937 12.8451 9.28148 13.4556C9.37171 13.758 9.51449 14.1118 9.76072 14.4072C10.0292 14.7292 10.443 15 10.9879 15C11.5318 15 11.945 14.7303 12.2139 14.4112C12.3374 14.2646 12.4355 14.1034 12.5144 13.9411C12.1143 12.816 12.039 11.3901 12.0137 10.0372ZM19.9883 10.0378C19.9626 11.4005 19.8859 12.8368 19.4779 13.9655C19.553 14.118 19.6455 14.269 19.7607 14.4072C20.0292 14.7292 20.4429 15 20.9879 15C21.5318 15 21.945 14.7303 22.2139 14.4112C22.4613 14.1177 22.6068 13.7654 22.6996 13.4629C22.8868 12.8524 22.9528 12.1234 22.9798 11.546C23.0339 10.3873 22.0848 9.5 20.9997 9.5C20.6348 9.5 20.2857 9.60015 19.9848 9.77695C19.9887 9.86313 19.9899 9.95011 19.9883 10.0378ZM21.309 16.4945C21.7092 17.0127 22.0303 17.6139 22.2892 18.2406C22.4164 18.1734 22.5396 18.0956 22.6574 18.0072C22.7535 17.9352 22.8494 17.88 22.9354 17.8434C22.9901 17.8201 23.0341 17.807 23.0667 17.8C23.4283 18.4071 23.7693 19.4621 23.9206 20.5002H22.9803C23.03 20.7241 23.0741 20.9421 23.1132 21.1513C23.1996 21.6124 23.2686 22.0675 23.323 22.5002H24.0001C25.071 22.5002 26.0819 21.6015 25.9221 20.3742C25.7549 19.09 25.3209 17.6292 24.7275 16.6825C24.3028 16.0049 23.6233 15.7543 22.9789 15.7975C22.3966 15.8366 21.8609 16.1046 21.4574 16.4072C21.4106 16.4423 21.3608 16.4714 21.309 16.4945ZM8.88691 21.1513C8.92608 20.9421 8.9701 20.7241 9.01984 20.5002H8.07973C8.23063 19.4645 8.56974 18.4105 8.92901 17.8015C8.96101 17.8084 9.00405 17.8211 9.05745 17.8436C9.14309 17.8798 9.2388 17.9344 9.33493 18.006C9.45509 18.0956 9.58068 18.1743 9.71037 18.242C9.9693 17.6149 10.2905 17.0133 10.6909 16.4949C10.6348 16.471 10.5809 16.4403 10.5304 16.4027C10.126 16.1011 9.58924 15.8348 9.00651 15.7983C8.36127 15.758 7.68409 16.013 7.26316 16.6915C6.67665 17.6368 6.24518 19.0924 6.07827 20.3739C5.91841 21.6011 6.92908 22.5002 8.00039 22.5002H8.67714C8.73156 22.0675 8.80058 21.6124 8.88691 21.1513Z" fill="#FBCC86"/>
<rect x="1" y="1" width="30" height="30" rx="15" stroke="#FBCC86" stroke-width="2"/>
</svg>
