<svg width="16" height="16" viewBox="0 0 16 16" fill="none" xmlns="http://www.w3.org/2000/svg">
<g clip-path="url(#clip0_21793_4355)">
<path fill-rule="evenodd" clip-rule="evenodd" d="M7.99998 4C6.70827 4 5.48007 4.38712 4.4336 4.89144L3.5653 3.08976C4.7867 2.50113 6.31673 2 7.99998 2C9.68323 2 11.2133 2.50113 12.4347 3.08976L11.5664 4.89144C10.5199 4.38712 9.29169 4 7.99998 4ZM2 7.50037V7.54659C2.89128 8.28478 5.27889 10.0004 8 10.0004C8.76316 10.0004 9.50545 9.86534 10.2041 9.64893C11.0398 9.39007 11.8006 9.01861 12.4403 8.63988C13.1414 8.22479 13.6823 7.8097 14 7.54659V7.50037H16V7.5733C16 8.1151 15.7774 8.66728 15.3212 9.04905C15.1043 9.23054 14.7948 9.47607 14.4072 9.74834L15.2904 10.8877L13.7096 12.113L12.6825 10.7879C12.394 10.9345 12.0881 11.0767 11.7668 11.209L12.4452 13.174L10.5548 13.8267L9.85615 11.8034C9.57762 11.8617 9.29192 11.9089 9 11.9424V14.0004H7V11.9424C6.70876 11.9089 6.42309 11.8618 6.14387 11.8034L5.44524 13.8267L3.55476 13.174L4.23325 11.2089C3.90351 11.0732 3.58954 10.9269 3.29349 10.7757L2.3 12.1004L0.7 10.9004L1.57387 9.73521C1.18783 9.4631 0.884448 9.22111 0.678614 9.04887C0.222168 8.66693 0 8.11481 0 7.5733V7.50037H2Z" fill="#A3A9AE"/>
</g>
<defs>
<clipPath id="clip0_21793_4355">
<rect width="16" height="16" fill="white"/>
</clipPath>
</defs>
</svg>
