<svg width="16" height="16" viewBox="0 0 16 16" fill="none" xmlns="http://www.w3.org/2000/svg">
<path fill-rule="evenodd" clip-rule="evenodd" d="M4.5005 10.4663C3.47291 9.6138 2.665 8.61284 2.21621 8C2.665 7.38716 3.47291 6.3862 4.5005 5.53367C5.58449 4.63435 6.79226 4 8.00099 4C9.20972 4 10.4175 4.63435 11.5015 5.53367C12.5291 6.3862 13.337 7.38716 13.7858 8C13.337 8.61284 12.5291 9.6138 11.5015 10.4663C10.4175 11.3656 9.20972 12 8.00099 12C6.79226 12 5.58449 11.3656 4.5005 10.4663ZM8.00099 2C6.11258 2 4.4581 2.97015 3.22349 3.99443C1.97331 5.03163 1.0293 6.22746 0.54349 6.8996C0.0662313 7.55992 0.0662334 8.44008 0.543491 9.1004C1.0293 9.77254 1.97331 10.9684 3.22349 12.0056C4.4581 13.0298 6.11258 14 8.00099 14C9.8894 14 11.5439 13.0298 12.7785 12.0056C14.0287 10.9684 14.9727 9.77254 15.4585 9.1004C15.9357 8.44008 15.9357 7.55992 15.4585 6.8996C14.9727 6.22746 14.0287 5.03163 12.7785 3.99443C11.5439 2.97015 9.8894 2 8.00099 2ZM8.00099 6C6.89642 6 6.00099 6.89543 6.00099 8C6.00099 9.10457 6.89642 10 8.00099 10C9.10556 10 10.001 9.10457 10.001 8C10.001 6.89543 9.10556 6 8.00099 6Z" fill="#333333"/>
</svg>
