<svg width="16" height="6" viewBox="0 0 16 6" fill="none" xmlns="http://www.w3.org/2000/svg">
<path d="M15.1508 1.0515L15.2658 0.969172C15.4895 0.801214 15.5421 0.469603 15.3872 0.228352C15.231 -0.0150493 14.9238 -0.0699825 14.7047 0.0956798C7.03837 5.91294 1.45783 0.381967 1.2234 0.144302C1.02556 -0.0566439 0.713815 -0.0464608 0.529595 0.166964C0.344449 0.381249 0.353435 0.716448 0.549285 0.918111C0.559858 0.929012 0.734431 1.10242 1.05305 1.35902L0.0710252 3.11676C-0.0690566 3.36747 0.00442013 3.69478 0.235555 3.84811C0.314582 3.89975 0.404314 3.92571 0.491138 3.92571C0.656197 3.92571 0.816894 3.83463 0.910326 3.67069L1.87055 1.95339C2.40894 2.3091 3.0993 2.69751 3.92182 3.02568L3.44858 4.74283C3.37021 5.02553 3.51677 5.32043 3.77566 5.40448L3.9168 5.42714C4.126 5.42714 4.32158 5.27797 4.38528 5.04719L4.85389 3.35356C5.61311 3.57889 6.46245 3.73107 7.37906 3.76722V5.46802C7.37906 5.76234 7.59804 6 7.86922 6C8.14013 6 8.35924 5.76234 8.35924 5.46802V3.75775C9.15903 3.71013 10.0067 3.56082 10.8917 3.28687L11.495 5.01348C11.5702 5.22619 11.7565 5.35643 11.9533 5.35643L12.1266 5.32286C12.3797 5.21845 12.508 4.91165 12.4118 4.63712L11.8244 2.95482C12.6303 2.62995 13.4632 2.20224 14.3236 1.63483L15.1177 2.78529C15.2144 2.92427 15.362 2.99886 15.5095 2.99886C15.6123 2.99886 15.715 2.96501 15.8031 2.892C16.0204 2.71558 16.0643 2.38211 15.9025 2.14731L15.1508 1.0515Z" fill="#A3A9AE"/>
</svg>
