<svg width="14" height="16" viewBox="0 0 14 16" fill="none" xmlns="http://www.w3.org/2000/svg">
<path fill-rule="evenodd" clip-rule="evenodd" d="M7 0C4.79086 0 3 1.79086 3 4V6H2C0.895431 6 0 6.89543 0 8V14C0 15.1046 0.89543 16 2 16H12C13.1046 16 14 15.1046 14 14V8C14 6.89543 13.1046 6 12 6H11V4C11 1.79086 9.20914 0 7 0ZM9 6V4C9 2.89543 8.10457 2 7 2C5.89543 2 5 2.89543 5 4V6H9ZM9 11C9 12.1046 8.10457 13 7 13C5.89543 13 5 12.1046 5 11C5 9.89543 5.89543 9 7 9C8.10457 9 9 9.89543 9 11Z" fill="#3B72A7"/>
</svg>
