<svg width="16" height="15" viewBox="0 0 16 15" fill="none" xmlns="http://www.w3.org/2000/svg">
<path fill-rule="evenodd" clip-rule="evenodd" d="M8.00118 0C8.39132 0 8.74583 0.226888 8.90924 0.581154L10.6497 4.35457L14.7763 4.84384C15.1637 4.88977 15.4891 5.15682 15.6096 5.52786C15.7302 5.8989 15.624 6.30618 15.3375 6.57106L12.2866 9.39243L13.0965 13.4682C13.1725 13.8509 13.0191 14.2428 12.7035 14.4721C12.3878 14.7015 11.9677 14.7263 11.6272 14.5357L8.00118 12.506L4.37513 14.5357C4.03469 14.7263 3.61452 14.7015 3.2989 14.4721C2.98327 14.2428 2.82983 13.8509 2.90586 13.4682L3.71571 9.39243L0.664833 6.57106C0.378402 6.30618 0.27217 5.8989 0.392728 5.52786C0.513286 5.15682 0.838621 4.88977 1.22604 4.84384L5.35262 4.35457L7.09312 0.581154C7.25653 0.226888 7.61105 0 8.00118 0Z" fill="#3B72A7"/>
</svg>
