<svg width="16" height="16" viewBox="0 0 16 16" fill="none" xmlns="http://www.w3.org/2000/svg">
<g clip-path="url(#clip0_19005_5308)">
<path fill-rule="evenodd" clip-rule="evenodd" d="M0.0944228 2.57584C0.259003 2.22446 0.611995 2 1.00001 2H15C15.388 2 15.741 2.22446 15.9056 2.57584C16.0702 2.92723 16.0166 3.3421 15.7682 3.64018L11 9.36205V13C11 13.3788 10.786 13.725 10.4472 13.8944L6.44723 15.8944C6.13724 16.0494 5.7691 16.0329 5.47428 15.8507C5.17946 15.6684 5.00001 15.3466 5.00001 15V9.36205L0.231791 3.64018C-0.0166119 3.3421 -0.070157 2.92723 0.0944228 2.57584ZM3.13505 4L6.76823 8.35982C6.918 8.53953 7.00001 8.76606 7.00001 9V13.382L9.00001 12.382V9C9.00001 8.76606 9.08203 8.53953 9.23179 8.35982L12.865 4H3.13505Z" fill="#A3A9AE"/>
</g>
<defs>
<clipPath id="clip0_19005_5308">
<rect width="16" height="16" fill="white"/>
</clipPath>
</defs>
</svg>
