<svg width="16" height="16" viewBox="0 0 16 16" fill="none" xmlns="http://www.w3.org/2000/svg">
<path fill-rule="evenodd" clip-rule="evenodd" d="M6.00134 1H1.00195C0.448417 1 0.00018709 1.44967 0.00195824 2.0032L0.040355 14.0032C0.0421182 14.5542 0.489314 15 1.04035 15H14.9995C15.5518 15 15.9995 14.5523 15.9995 14V4.99571C15.9995 4.44342 15.5518 3.99571 14.9995 3.99571H8.99901L6.00134 1ZM5.00184 3H3.00324C2.4492 3 2.00077 3.45045 2.00325 4.00448L2.03908 12.0045C2.04155 12.555 2.48854 13 3.03907 13H12.9995C13.5518 13 13.9995 12.5523 13.9995 12V6.99571C13.9995 6.44342 13.5518 5.99571 12.9995 5.99571H7.99951L5.00184 3Z" fill="#333333"/>
<path fill-rule="evenodd" clip-rule="evenodd" d="M8.82929 10C8.41746 11.1652 7.30622 12 6 12C4.34315 12 3 10.6569 3 9C3 7.34315 4.34315 6 6 6C7.30622 6 8.41746 6.83481 8.82929 8H12.5C12.7761 8 13 8.22386 13 8.5V9V10V10.5C13 10.7761 12.7761 11 12.5 11C12.2239 11 12 10.7761 12 10.5V10H11V10.5C11 10.7761 10.7761 11 10.5 11C10.2239 11 10 10.7761 10 10.5V10H8.82929ZM7.5 9C7.5 9.82843 6.82843 10.5 6 10.5C5.17157 10.5 4.5 9.82843 4.5 9C4.5 8.17157 5.17157 7.5 6 7.5C6.82843 7.5 7.5 8.17157 7.5 9Z" fill="#333333"/>
</svg>
