<svg width="16" height="16" viewBox="0 0 16 16" fill="none" xmlns="http://www.w3.org/2000/svg">
<g clip-path="url(#clip0_42837_103993)">
<path fill-rule="evenodd" clip-rule="evenodd" d="M0 5.5C0 4.67157 0.671573 4 1.5 4H7H9H14.5C15.3284 4 16 4.67157 16 5.5V10H15V14.5C15 15.3284 14.3284 16 13.5 16H9H7H2.5C1.67157 16 1 15.3284 1 14.5V10H0V5.5ZM9 14H13V10H9V14ZM7 10V14H3V10H7ZM9 8H13.5H14V6H9V8ZM7 6V8H2.5H2V6H7Z" fill="#657077"/>
<path fill-rule="evenodd" clip-rule="evenodd" d="M3.89455 2.44742L3.90191 2.4324C3.92265 2.38961 3.92325 2.38836 3.99853 2.38383C4.16242 2.37396 4.45365 2.43104 4.87058 2.61424C5.68303 2.97124 6.55633 3.61658 7.03596 4.00001H8.96412C9.44386 3.61658 10.3173 2.97132 11.1298 2.61437C11.5468 2.43117 11.838 2.3741 12.0019 2.38398C12.0771 2.38851 12.0777 2.38973 12.0983 2.43236L12.1057 2.44746L12.1073 2.45052C12.1123 2.45967 12.1171 2.4685 12.1054 2.5133C12.086 2.58682 12.0244 2.72121 11.8668 2.91381C11.5864 3.25656 11.1303 3.63043 10.5781 4.00001H13.5539C14.0046 3.37994 14.3649 2.49368 13.8946 1.55302C13.5116 0.787025 12.8373 0.430704 12.1223 0.387603C11.4879 0.349364 10.8487 0.553341 10.3253 0.783279C9.43429 1.17474 8.55815 1.78869 8.00007 2.21524C7.44208 1.78867 6.5661 1.1747 5.67514 0.78321C5.1518 0.553248 4.5127 0.349247 3.87833 0.387442C3.16331 0.430493 2.48908 0.786703 2.10592 1.55254C1.63521 2.49335 1.99568 3.37986 2.44644 4.00001H5.42237C4.87001 3.63034 4.4138 3.25638 4.13334 2.91358C3.97577 2.72098 3.91424 2.58662 3.89491 2.51315C3.88315 2.46842 3.88794 2.45962 3.89293 2.45048L3.89455 2.44742Z" fill="#657077"/>
</g>
<defs>
<clipPath id="clip0_42837_103993">
<rect width="16" height="16" fill="white"/>
</clipPath>
</defs>
</svg>
