<svg width="16" height="16" viewBox="0 0 16 16" fill="none" xmlns="http://www.w3.org/2000/svg">
<path fill-rule="evenodd" clip-rule="evenodd" d="M8 14C11.3137 14 14 11.3137 14 8C14 4.68629 11.3137 2 8 2C4.68629 2 2 4.68629 2 8C2 11.3137 4.68629 14 8 14ZM8 16C12.4183 16 16 12.4183 16 8C16 3.58172 12.4183 0 8 0C3.58172 0 0 3.58172 0 8C0 12.4183 3.58172 16 8 16Z" fill="#333333"/>
<path d="M6.80713 9.22852V8.7666C6.80713 8.5446 6.83398 8.34408 6.8877 8.16504C6.94499 7.986 7.04525 7.81592 7.18848 7.65479C7.33171 7.49365 7.53044 7.33252 7.78467 7.17139C8.02816 7.01742 8.20719 6.88493 8.32178 6.77393C8.43636 6.65934 8.51156 6.5555 8.54736 6.4624C8.58317 6.36572 8.60107 6.26904 8.60107 6.17236C8.60107 6.02197 8.53304 5.90381 8.39697 5.81787C8.26091 5.72835 8.08366 5.68359 7.86523 5.68359C7.5931 5.68359 7.29769 5.73193 6.979 5.82861C6.6639 5.92529 6.32731 6.06852 5.96924 6.2583L5.22266 4.79736C5.62728 4.56462 6.05876 4.38021 6.51709 4.24414C6.97542 4.10449 7.47493 4.03467 8.01562 4.03467C8.82845 4.03467 9.45866 4.21549 9.90625 4.57715C10.3538 4.93522 10.5776 5.40788 10.5776 5.99512C10.5776 6.27441 10.5347 6.53044 10.4487 6.76318C10.3628 6.99593 10.2267 7.21436 10.0405 7.41846C9.85433 7.62256 9.60905 7.82308 9.30469 8.02002C9.08984 8.15609 8.91976 8.27246 8.79443 8.36914C8.67269 8.46582 8.58496 8.55892 8.53125 8.64844C8.48112 8.73796 8.45605 8.84001 8.45605 8.95459V9.22852H6.80713ZM6.57617 11.1084C6.57617 10.7288 6.68538 10.4621 6.90381 10.3081C7.12581 10.1541 7.39437 10.0771 7.70947 10.0771C8.01025 10.0771 8.26986 10.1541 8.48828 10.3081C8.71029 10.4621 8.82129 10.7288 8.82129 11.1084C8.82129 11.4701 8.71029 11.7314 8.48828 11.8926C8.26986 12.0537 8.01025 12.1343 7.70947 12.1343C7.39437 12.1343 7.12581 12.0537 6.90381 11.8926C6.68538 11.7314 6.57617 11.4701 6.57617 11.1084Z" fill="#333333"/>
</svg>
