<svg width="16" height="16" viewBox="0 0 16 16" fill="none" xmlns="http://www.w3.org/2000/svg">
<path fill-rule="evenodd" clip-rule="evenodd" d="M2 14V2H14V14H2ZM0 1C0 0.447715 0.447715 0 1 0H15C15.5523 0 16 0.447715 16 1V15C16 15.5523 15.5523 16 15 16H1C0.447715 16 0 15.5523 0 15V1ZM4.5 4C4.22386 4 4 4.22386 4 4.5V5.5V7.5V8.5V11.5C4 11.7761 4.22386 12 4.5 12H5.5C5.77614 12 6 11.7761 6 11.5V9H7.5C7.77614 9 8 8.77614 8 8.5V7.5C8 7.22386 7.77614 7 7.5 7H6V6H8.5C8.77614 6 9 5.77614 9 5.5V4.5C9 4.22386 8.77614 4 8.5 4H5.5H4.5Z" fill="#333333"/>
</svg>
