<svg width="16" height="16" viewBox="0 0 16 16" fill="none" xmlns="http://www.w3.org/2000/svg">
<path d="M0.167772 10.1745C0.448625 10.7175 1.04755 11.1922 1.61279 11.32C1.81728 11.3662 3.29631 11.381 3.34229 11.3372C3.36027 11.3201 3.32873 11.2199 3.2722 11.1146C3.12227 10.8351 3.01425 10.3471 3.0141 9.94821C3.01362 8.8525 3.70758 7.99615 4.89652 7.62536C5.28055 7.50557 5.37046 7.45283 5.37046 7.34722C5.37046 7.19839 5.6541 6.59879 5.87654 6.2774C6.18858 5.82659 6.6017 5.48066 7.11573 5.2397C8.40254 4.63657 9.91619 4.82721 10.8437 5.70922L11.1726 6.02204L11.5331 5.93268C11.7314 5.88354 11.9585 5.84204 12.0377 5.84046C12.2193 5.83684 12.227 5.71402 12.073 5.27547C11.5911 3.90289 10.2881 3.00354 8.77613 3.00001C8.23513 2.99875 7.78277 3.09446 7.3478 3.30221C6.94482 3.49471 6.45244 3.87259 6.20878 4.17644C5.92534 4.52988 5.84727 4.63265 5.7627 4.63825C5.72434 4.64078 5.68465 4.62332 5.62383 4.60019C5.00942 4.36644 4.29975 4.32562 3.73486 4.49154C2.68928 4.79866 1.94047 5.75495 1.89573 6.84028C1.88853 7.01498 1.86616 7.18324 1.84602 7.21414C1.82588 7.24505 1.69842 7.29688 1.56277 7.32936C0.920034 7.48329 0.407782 7.87523 0.140419 8.41765C0.0135997 8.67502 0 8.75813 0 9.2764C0 9.82121 0.00845803 9.86652 0.167772 10.1745Z" fill="#094AB1"/>
<path d="M3.67823 9.89768C3.67994 10.9836 4.21935 11.7155 5.18757 11.9456C5.38888 11.9935 6.55353 12.0058 10.2175 11.9991L14.9854 11.9904L15.1999 11.8812C15.6563 11.649 15.9443 11.1812 15.9918 10.5952C16.0644 9.69927 15.664 9.0898 14.8121 8.79957L14.5138 8.69793L14.4805 8.30996C14.3588 6.89177 12.8488 6.04314 11.334 6.54166L11.021 6.64467L10.6716 6.29575C10.0364 5.66133 9.5822 5.47352 8.67182 5.46888C8.03081 5.4656 7.76326 5.52254 7.23337 5.77501C6.72706 6.01623 6.25323 6.60591 5.99732 7.31327C5.94099 7.46899 5.8949 7.64467 5.8949 7.70363C5.8949 7.89162 5.77559 7.97278 5.38833 8.04847C4.61006 8.20044 4.01862 8.61346 3.79523 9.16083C3.7041 9.38415 3.67769 9.55052 3.67823 9.89768Z" fill="#094AB1"/>
</svg>
