<svg width="16" height="16" viewBox="0 0 16 16" fill="none" xmlns="http://www.w3.org/2000/svg">
<g clip-path="url(#clip0_743_33365)">
<path opacity="0.504232" fill-rule="evenodd" clip-rule="evenodd" d="M6.89884 0.0620607L8.2498 0.640118C8.45658 0.728587 8.61647 0.903445 8.68898 1.12048L9.22621 2.72751C9.31262 2.98621 9.52192 3.182 9.78141 3.24696L15.4025 4.65406C15.7532 4.74186 15.9999 5.06358 15.9999 5.43312V12.146C15.9999 12.5889 15.649 12.948 15.2163 12.948C15.1382 12.948 15.0605 12.9361 14.9859 12.9126L6.36612 10.1981C6.03735 10.0945 5.81299 9.78359 5.81299 9.43142V0.802025C5.81299 0.359076 6.16386 0 6.59661 0C6.70039 0 6.80313 0.0210928 6.89884 0.0620607Z" fill="#D0DFFF"/>
<path opacity="0.8" fill-rule="evenodd" clip-rule="evenodd" d="M4.93986 1.66558L6.29088 2.24363C6.49766 2.3321 6.65754 2.50696 6.73006 2.724L7.2672 4.33102C7.35369 4.58973 7.56299 4.78552 7.82249 4.85048L13.4435 6.25762C13.7942 6.34535 14.041 6.66712 14.041 7.03662V13.7495C14.041 14.1925 13.6901 14.5516 13.2574 14.5516C13.1792 14.5516 13.1016 14.5396 13.0269 14.5161L4.40717 11.8016C4.07837 11.698 3.854 11.3871 3.854 11.035V2.40554C3.854 1.9626 4.20484 1.60352 4.63762 1.60352C4.74138 1.60352 4.84412 1.62461 4.93986 1.66558Z" fill="#B3CAFF"/>
<path opacity="0.8" fill-rule="evenodd" clip-rule="evenodd" d="M12.0819 11.9974L14.0409 12.6144V7.03653C14.0409 6.66694 13.7942 6.34526 13.4434 6.25744L7.82244 4.85036C7.56294 4.7854 7.35365 4.58961 7.26715 4.3309L6.73001 2.72387C6.65749 2.50684 6.49761 2.33198 6.29083 2.24351L5.81299 2.03906V6.19939C5.82955 6.20476 5.84635 6.20958 5.86338 6.21384L11.4845 7.62097C11.8351 7.7087 12.0819 8.03047 12.0819 8.39997V11.9974Z" fill="#AAC4FF"/>
<path fill-rule="evenodd" clip-rule="evenodd" d="M2.98087 3.03081L4.33187 3.60887C4.53864 3.69734 4.6985 3.8722 4.77106 4.08923L5.3082 5.69626C5.39468 5.95496 5.60397 6.15075 5.86346 6.21571L11.4845 7.62284C11.8352 7.71066 12.0819 8.03234 12.0819 8.40184V15.1147C12.0819 15.5578 11.7311 15.9168 11.2983 15.9168C11.2203 15.9168 11.1425 15.9049 11.0678 15.8813L2.44817 13.1668C2.11938 13.0632 1.89502 12.7523 1.89502 12.4002V3.77078C1.89502 3.32783 2.24585 2.96875 2.67863 2.96875C2.78239 2.96875 2.88513 2.98984 2.98087 3.03081Z" fill="#1A47FF"/>
<path fill-rule="evenodd" clip-rule="evenodd" d="M0.993555 6.58589L9.69995 9.06121C9.96274 9.13587 10.1687 9.34511 10.2437 9.61364L11.8836 15.4883C11.9431 15.7013 11.8225 15.9233 11.6145 15.9841C11.5416 16.0054 11.4641 16.0046 11.3916 15.9818L2.27226 13.1099C2.03501 13.0352 1.84639 12.8498 1.76377 12.6103L0.0448891 7.6256C-0.0991528 7.20792 0.114921 6.74979 0.523017 6.60233C0.67451 6.54767 0.83877 6.54189 0.993555 6.58589Z" fill="#5287FF"/>
</g>
<defs>
<clipPath id="clip0_743_33365">
<rect width="16" height="16" fill="white"/>
</clipPath>
</defs>
</svg>
