<svg width="216" height="216" viewBox="0 0 216 216" fill="none" xmlns="http://www.w3.org/2000/svg">
<path fill-rule="evenodd" clip-rule="evenodd" d="M144.761 0.744576V71.7716H215.787V72.7315H144.761L144.761 143.758H215.787V144.718H144.761V215.745H143.802V144.718H72.772V215.745H71.8122V144.718H0.78653V143.758H71.8122L71.8122 72.7315H0.78653V71.7716H71.8122V0.744576H72.772V71.7716H143.802V0.744576H144.761ZM72.772 72.7315L72.772 143.758H143.802V72.7315H72.772ZM2.77727 0.744576H30.6476V2.73532H2.77727V30.6057H0.78653V2.73532V0.744576H2.77727ZM185.925 0.744576H213.796H215.787V2.73532L215.787 30.6057H213.796V2.73532H185.925V0.744576ZM185.925 213.754H213.796V185.883H215.787L215.787 213.754V215.745H213.796H185.925V213.754ZM2.77727 213.754H30.6476V215.745H2.77727H0.78653V213.754V185.883H2.77727V213.754Z" fill="black"/>
</svg>
