<svg width="16" height="16" viewBox="0 0 16 16" fill="none" xmlns="http://www.w3.org/2000/svg">
<path d="M15.6868 8.78273L15.5718 8.60175C15.3878 8.33117 15.2047 8.06059 14.9282 7.88014C14.6984 7.72192 14.4223 7.60956 14.1702 7.49649C14.8824 7.158 15.3697 6.68457 15.5999 6.0755C15.7606 5.57878 15.4667 5.17362 15.4667 4.76739V4.72242C15.4667 4.2705 14.8417 3.9777 14.2673 3.81965C13.9215 3.75209 13.5403 3.75209 13.1958 3.77396L12.4407 3.93218L12.6968 3.36862C12.9261 2.6463 12.8589 1.94745 12.4681 1.29269L12.3995 1.18069C12.0544 0.616059 11.549 0.277922 10.859 0.0976536C10.1469 -0.0831484 9.54045 -0.0155921 8.89689 0.322901C8.25226 0.662104 7.64443 1.18104 7.64443 1.85696V1.90194L7.56318 2.06016L7.44194 1.90194L7.19714 1.4966C6.82913 0.93233 6.36246 0.593837 5.78734 0.435613C5.28138 0.323078 4.86502 0.368234 4.42804 0.593837C3.9459 0.88664 3.6675 1.33909 3.55229 1.97003C3.43709 2.62426 3.55194 3.25627 3.89683 3.88721L4.05666 4.11352L3.50518 3.93218C2.81522 3.77396 2.17184 3.86463 1.52845 4.20294C0.861243 4.54108 0.447727 5.01522 0.171457 5.66927C-0.0813453 6.30092 -0.0578784 6.90929 0.263725 7.47391C0.40186 7.72209 0.608618 7.92512 0.792087 8.06059C1.06836 8.33099 1.41325 8.48904 1.82694 8.55659L1.9873 8.60157L1.64312 8.89562C1.3208 9.16673 1.13751 9.50469 1.02249 9.84283C0.907821 10.2487 0.953688 10.6549 1.18338 11.0391C1.29858 11.2192 1.41325 11.3758 1.59725 11.49C1.78125 11.6469 2.01094 11.7602 2.2865 11.7829C2.79246 11.8962 3.32136 11.8962 3.89541 11.7148L3.48118 12.392L3.36723 12.6852C3.137 13.4059 3.20545 14.0377 3.55052 14.6919C3.71159 14.9412 3.89541 15.1664 4.07941 15.3693C4.35515 15.6175 4.69933 15.7755 5.11391 15.8888C5.80228 16.0687 6.49224 16.0452 7.15962 15.7074C7.80319 15.3693 8.21617 14.8271 8.42364 14.1511L8.44586 14.0164C8.88302 14.4889 9.29671 14.8052 9.75699 14.9181C10.2164 15.053 10.6759 15.0313 11.0898 14.7599C11.4806 14.5339 11.7563 14.1508 11.8939 13.6766C12.0087 13.1806 12.0087 12.6848 11.8939 12.122C12.1232 12.2786 12.3538 12.3917 12.6292 12.4587C13.3643 12.6848 14.0086 12.6617 14.652 12.3236C15.2726 11.9858 15.6863 11.4432 15.8929 10.7444C16.0778 10.0679 16.0319 9.41402 15.6868 8.78273ZM12.3542 5.0154L12.6296 4.90215C13.0441 4.72242 13.434 4.67673 13.8486 4.72242C14.2379 4.76739 14.5151 4.94713 14.6523 5.21842L14.7442 5.51122L14.6984 5.73736C14.5378 6.14341 14.1924 6.45915 13.6184 6.70715C13.3885 6.81933 13.136 6.86502 12.8603 6.90928L10.0329 7.24867L9.98632 7.09044L9.94046 7.02235L10.0329 6.90911L12.3542 5.0154ZM8.44604 2.17305C8.56088 1.72203 8.8832 1.38371 9.29689 1.15793C9.71076 0.93233 10.1703 0.886818 10.6068 1.04486C11.0902 1.15793 11.4342 1.40593 11.6418 1.78941C11.7567 2.01519 11.8249 2.28594 11.8249 2.5791L11.7565 3.07493C11.6647 3.32311 11.5495 3.54907 11.4119 3.75227L9.34329 6.23337C9.13671 6.0755 8.90684 5.96243 8.67626 5.8499L8.44604 3.30107L8.42382 2.3983L8.44604 2.17305ZM4.51693 2.24043C4.53897 1.83456 4.69933 1.5638 4.97578 1.40611C5.11391 1.29304 5.32067 1.29304 5.50414 1.38371C5.91837 1.49678 6.26344 1.78958 6.53828 2.35368C6.65349 2.57946 6.76815 2.80488 6.81473 3.07529L7.27411 5.73789L6.92993 5.85043L4.88351 3.66178L4.76884 3.43636C4.58484 3.02995 4.47035 2.64666 4.51693 2.24043ZM1.13716 7.02253C0.953511 6.68475 0.953511 6.34661 1.09165 6.00812C1.25236 5.57878 1.55103 5.241 1.98694 5.06038C2.40153 4.8346 2.81451 4.76757 3.2746 4.87957L3.89523 5.12775L5.91801 6.5715C5.73419 6.79764 5.61898 7.02235 5.54965 7.24867L2.23992 7.65472L2.01059 7.60974C1.5969 7.54165 1.3208 7.36209 1.13716 7.02253ZM7.64443 13.6777L7.56318 13.9037C7.40212 14.3095 7.09705 14.648 6.68353 14.8274C6.26948 15.0536 5.81721 15.0985 5.40458 14.9867C4.9436 14.8735 4.59213 14.6029 4.40813 14.2416C4.29381 14.0169 4.19888 13.7456 4.19888 13.4745L4.31035 12.9566C4.35693 12.7307 4.47177 12.5045 4.65542 12.3245L6.58522 10.0677C6.81509 10.1811 7.10291 10.2939 7.35625 10.317C7.40158 11.0834 7.64443 11.8967 7.64443 12.7753V13.6777ZM6.76798 9.16709C6.46931 8.89597 6.30913 8.51161 6.30913 8.10592C6.30913 7.69969 6.46931 7.36173 6.76798 7.04546C7.04425 6.79764 7.41207 6.63959 7.8487 6.63959C8.26257 6.63959 8.65333 6.79782 8.90684 7.04546C9.22738 7.36173 9.36623 7.69969 9.36623 8.10592C9.36623 8.51161 9.22738 8.89562 8.90684 9.16709C8.60746 9.46007 8.26257 9.61687 7.8487 9.61687C7.41207 9.61723 7.04442 9.46042 6.76798 9.16709ZM11.0214 13.1138C10.9753 13.5209 10.8374 13.8139 10.5607 13.927C10.4007 14.0386 10.2165 14.0386 10.0325 14.0173C9.59592 13.9039 9.25103 13.5661 8.99858 13.0237L8.72195 12.2795L8.37777 10.3171L8.76764 10.181L9.0672 10.0243L10.0327 10.9929L10.6304 11.7152L10.7451 11.9403C10.9518 12.3245 11.0672 12.6857 11.0214 13.1138ZM14.9745 10.4741C14.8594 10.9264 14.5837 11.2644 14.1924 11.4441C13.7794 11.6702 13.3648 11.7154 12.906 11.5575C12.6296 11.4905 12.4459 11.376 12.2854 11.1966L9.87148 9.23411L10.0325 8.89597L10.1021 8.62468L12.6989 8.39872L13.618 8.37686L13.8486 8.39872C14.1924 8.51197 14.5151 8.71499 14.698 9.05295C14.9279 9.3022 15.0431 9.64034 15.0431 10.0247L14.9745 10.4741Z" fill="#333333"/>
</svg>
