<svg width="16" height="16" viewBox="0 0 16 16" fill="none" xmlns="http://www.w3.org/2000/svg">
<g clip-path="url(#clip0_29072_128698)">
<path fill-rule="evenodd" clip-rule="evenodd" d="M2 0C0.895431 0 0 0.895431 0 2V14C0 15.1046 0.895431 16 2 16H14C15.1046 16 16 15.1046 16 14V2C16 0.895431 15.1046 0 14 0H2ZM3 2C2.44772 2 2 2.44772 2 3V13C2 13.2039 2.061 13.3935 2.16574 13.5516C2.36203 12.7891 2.70459 11.9307 3.13414 11.1873C3.43608 10.6647 3.80997 10.1476 4.2529 9.74895C4.68917 9.3563 5.28267 9.00005 5.99992 9C6.63551 8.99995 7.14006 9.12159 7.57452 9.34501C7.93191 9.5288 8.21217 9.77254 8.39772 9.93391C8.4211 9.95425 8.44297 9.97327 8.46331 9.9907C8.66149 10.1606 8.79983 10.2645 8.98773 10.3432C9.17599 10.422 9.477 10.5 10 10.5C10.2033 10.5 10.5477 10.3665 11.0271 9.84136C11.487 9.33765 11.9395 8.615 12.36 7.79412C13.0592 6.42886 13.5892 4.95961 13.9013 4.09421L13.9014 4.09397C13.9372 3.99488 13.97 3.9037 14 3.82151V3C14 2.44772 13.5523 2 13 2H3ZM14 8.97402C13.5744 9.77283 13.0742 10.5655 12.5041 11.1899C11.8898 11.8627 11.0467 12.5 10 12.5C9.273 12.5 8.69901 12.3905 8.2154 12.188C7.73142 11.9854 7.40101 11.7143 7.16169 11.5092L7.09803 11.4545L7.09801 11.4545C6.88784 11.274 6.79169 11.1914 6.65986 11.1236C6.54744 11.0658 6.36449 11 6.00008 11C5.96733 11 5.83166 11.0188 5.59085 11.2355C5.3567 11.4463 5.10559 11.7729 4.86586 12.1878C4.52301 12.7812 4.26234 13.4506 4.11564 14H13C13.5523 14 14 13.5523 14 13V8.97402ZM7 5C7 6.10457 6.10457 7 5 7C3.89543 7 3 6.10457 3 5C3 3.89543 3.89543 3 5 3C6.10457 3 7 3.89543 7 5Z" fill="#333333"/>
</g>
<defs>
<clipPath id="clip0_29072_128698">
<rect width="16" height="16" fill="white"/>
</clipPath>
</defs>
</svg>
