<svg width="16" height="16" viewBox="0 0 16 16" fill="none" xmlns="http://www.w3.org/2000/svg">
<g clip-path="url(#clip0_460_8224)">
<path fill-rule="evenodd" clip-rule="evenodd" d="M8 2C4.68629 2 2 4.68629 2 8C2 11.3137 4.68629 14 8 14C11.3137 14 14 11.3137 14 8C14 4.68629 11.3137 2 8 2ZM0 8C0 3.58172 3.58172 0 8 0C12.4183 0 16 3.58172 16 8C16 12.4183 12.4183 16 8 16C3.58172 16 0 12.4183 0 8ZM9 5C9 5.55228 8.55228 6 8 6C7.44772 6 7 5.55228 7 5C7 4.44772 7.44772 4 8 4C8.55228 4 9 4.44772 9 5ZM8 7C7.44772 7 7 7.44772 7 8V11C7 11.5523 7.44772 12 8 12C8.55228 12 9 11.5523 9 11V8C9 7.44772 8.55228 7 8 7Z" fill="#657077"/>
</g>
<defs>
<clipPath id="clip0_460_8224">
<rect width="16" height="16" fill="white"/>
</clipPath>
</defs>
</svg>