<svg width="17" height="16" viewBox="0 0 17 16" fill="none" xmlns="http://www.w3.org/2000/svg">
<g clip-path="url(#clip0_21120_56765)">
<path fill-rule="evenodd" clip-rule="evenodd" d="M8.5 2C5.18629 2 2.5 4.68629 2.5 8C2.5 11.3137 5.18629 14 8.5 14C11.8137 14 14.5 11.3137 14.5 8C14.5 4.68629 11.8137 2 8.5 2ZM0.5 8C0.5 3.58172 4.08172 0 8.5 0C12.9183 0 16.5 3.58172 16.5 8C16.5 12.4183 12.9183 16 8.5 16C4.08172 16 0.5 12.4183 0.5 8Z" fill="#333333"/>
<circle cx="8.5" cy="5" r="1" fill="#333333"/>
<rect x="7.5" y="7" width="2" height="5" rx="1" fill="#333333"/>
</g>
<defs>
<clipPath id="clip0_21120_56765">
<rect width="16" height="16" fill="white" transform="translate(0.5)"/>
</clipPath>
</defs>
</svg>
