<svg width="96" height="96" viewBox="0 0 96 96" fill="none" xmlns="http://www.w3.org/2000/svg">
<g clip-path="url(#clip0_29513_373128)">
<path d="M65.2812 0.459961H65.7812V0.959961V75.84V76.34H65.2812H3.84125H3.34125V75.84V13.0107V12.8031L3.48831 12.6565L15.5807 0.605798L15.727 0.459961H15.9336H65.2812Z" fill="white" stroke="#333333"/>
<path d="M15.0058 0.606408C15.1488 0.463409 15.3639 0.420631 15.5507 0.498021C15.7376 0.575412 15.8594 0.75773 15.8594 0.959961V12.48C15.8594 12.7561 15.6355 12.98 15.3594 12.98H3.83937C3.63714 12.98 3.45483 12.8581 3.37743 12.6713C3.30004 12.4845 3.34282 12.2694 3.48582 12.1264L15.0058 0.606408Z" fill="#D9F4FF" stroke="#333333" stroke-linejoin="round"/>
<path d="M73.9219 6.21997H74.4219V6.71997V81.6V82.1H73.9219H12.4819H11.9819V81.6V18.7707V18.5631L12.1289 18.4165L24.2213 6.36581L24.3676 6.21997H24.5742H73.9219Z" fill="white" stroke="#333333"/>
<path d="M23.6464 6.36642C23.7894 6.22342 24.0045 6.18064 24.1913 6.25803C24.3782 6.33542 24.5 6.51774 24.5 6.71997V18.24C24.5 18.5161 24.2761 18.74 24 18.74H12.48C12.2778 18.74 12.0955 18.6181 12.0181 18.4313C11.9407 18.2445 11.9834 18.0294 12.1264 17.8864L23.6464 6.36642Z" fill="#D9F4FF" stroke="#333333" stroke-linejoin="round"/>
<path d="M82.5586 11.98H83.0586V12.48V87.36V87.86H82.5586H21.1186H20.6186V87.36V24.4277V24.2188L20.7672 24.072L32.8595 12.1243L33.0056 11.98H33.211H82.5586Z" fill="white" stroke="#333333"/>
<path d="M32.2832 12.1264C32.4262 11.9834 32.6412 11.9407 32.8281 12.018C33.0149 12.0954 33.1367 12.2777 33.1367 12.48V24C33.1367 24.2761 32.9129 24.5 32.6367 24.5H21.1167C20.9145 24.5 20.7322 24.3782 20.6548 24.1913C20.5774 24.0045 20.6202 23.7894 20.7632 23.6464L32.2832 12.1264Z" fill="url(#paint0_linear_29513_373128)" stroke="#333333" stroke-linejoin="round"/>
<path fill-rule="evenodd" clip-rule="evenodd" d="M72.6562 31.6582C72.9324 31.6582 73.1562 31.8821 73.1562 32.1582C73.1562 32.4343 72.9324 32.6582 72.6562 32.6582H40.6294C40.3533 32.6582 40.1294 32.4343 40.1294 32.1582C40.1294 31.8821 40.3533 31.6582 40.6294 31.6582H72.6562ZM52.3667 46.187C52.3667 45.9109 52.1429 45.687 51.8667 45.687H31.6392C31.3631 45.687 31.1392 45.9109 31.1392 46.187C31.1392 46.4632 31.3631 46.687 31.6392 46.687H51.8667C52.1429 46.687 52.3667 46.4632 52.3667 46.187ZM46.7487 67.8668C46.7487 67.5907 46.5249 67.3668 46.2487 67.3668H31.64C31.3639 67.3668 31.14 67.5907 31.14 67.8668C31.14 68.143 31.3639 68.3668 31.64 68.3668H46.2487C46.5249 68.3668 46.7487 68.143 46.7487 67.8668ZM55.1759 53.8389C55.1759 53.5628 54.9521 53.3389 54.6759 53.3389H31.6391C31.3629 53.3389 31.1391 53.5628 31.1391 53.8389C31.1391 54.1151 31.3629 54.3389 31.6391 54.3389H54.6759C54.9521 54.3389 55.1759 54.1151 55.1759 53.8389ZM72.6562 38.6721C72.9324 38.6721 73.1562 38.896 73.1562 39.1721C73.1562 39.4483 72.9324 39.6721 72.6562 39.6721H31.6394C31.3633 39.6721 31.1394 39.4483 31.1394 39.1721C31.1394 38.896 31.3633 38.6721 31.6394 38.6721H72.6562ZM48.9964 60.8529C48.9964 60.5767 48.7725 60.3529 48.4964 60.3529H31.6402C31.364 60.3529 31.1402 60.5767 31.1402 60.8529C31.1402 61.129 31.364 61.3529 31.6402 61.3529H48.4964C48.7725 61.3529 48.9964 61.129 48.9964 60.8529ZM45.6862 74.3817C45.9624 74.3817 46.1862 74.6056 46.1862 74.8817C46.1862 75.1579 45.9624 75.3817 45.6862 75.3817H31.6394C31.3632 75.3817 31.1394 75.1579 31.1394 74.8817C31.1394 74.6056 31.3632 74.3817 31.6394 74.3817H45.6862ZM73.1562 46.187C73.1562 45.9109 72.9324 45.687 72.6562 45.687H56.3619C56.0858 45.687 55.8619 45.9109 55.8619 46.187C55.8619 46.4632 56.0858 46.687 56.3619 46.687H72.6562C72.9324 46.687 73.1562 46.4632 73.1562 46.187ZM72.3755 67.3668C72.6516 67.3668 72.8755 67.5907 72.8755 67.8668C72.8755 68.143 72.6516 68.3668 72.3755 68.3668H56.0811C55.805 68.3668 55.5811 68.143 55.5811 67.8668C55.5811 67.5907 55.805 67.3668 56.0811 67.3668H72.3755Z" fill="#333333"/>
<path d="M69.4375 23.0398H48.3175" stroke="url(#paint1_linear_29513_373128)" stroke-width="2" stroke-linecap="round"/>
<path d="M72.0019 95.5399C84.4354 95.5399 94.5819 85.4002 94.5819 72.9599C94.5819 60.5196 84.4421 50.3799 72.0019 50.3799C59.5616 50.3799 49.4219 60.5196 49.4219 72.9599C49.4219 85.4001 59.5616 95.5399 72.0019 95.5399Z" fill="#D9F4FF" stroke="#333333"/>
<path d="M66.631 74.3936L66.633 74.3912L66.7378 74.2656C66.7888 74.2051 66.8548 74.1132 66.8865 73.9751C66.9079 73.882 66.9078 73.7847 66.9077 73.7262C66.9077 73.7238 66.9077 73.7213 66.9077 73.719V73.2902V70.6538V69.8448L66.1841 70.2066C65.6443 70.4765 65.1542 70.4834 64.4304 70.4834C63.7298 70.4834 63.1521 70.4286 62.6648 70.2008L61.9531 69.8682V70.6538V73.3062V73.719C61.9531 73.7235 61.9531 73.7284 61.9531 73.7338C61.9529 73.7851 61.9525 73.8749 61.9677 73.9555C61.9941 74.096 62.0573 74.1938 62.1177 74.2655L62.2226 74.3912L62.2226 74.3912L62.2246 74.3936C62.4625 74.675 62.7144 74.9361 62.9572 75.188C62.9702 75.2014 62.983 75.2147 62.9959 75.2281C63.2542 75.496 63.5041 75.7572 63.7448 76.0464L63.7455 76.0473C63.8097 76.124 63.8974 76.2231 64.0049 76.2976C64.1097 76.3701 64.2557 76.4343 64.4304 76.4259C64.6052 76.4343 64.7512 76.3701 64.8559 76.2976C64.9634 76.2231 65.0512 76.124 65.1153 76.0473L64.7318 75.7265L65.1149 76.0478C65.3567 75.7595 65.6064 75.4973 65.8636 75.2285C65.8731 75.2186 65.8826 75.2087 65.892 75.1988C66.1372 74.9427 66.3906 74.678 66.631 74.3936Z" fill="white" stroke="#333333"/>
<ellipse cx="64.4291" cy="66.0404" rx="5.27284" ry="5.27283" fill="white" stroke="#333333"/>
<path fill-rule="evenodd" clip-rule="evenodd" d="M64.6384 63.1351C65.6459 64.8611 68.0206 66.8582 69.6758 66.6202C69.6954 66.4482 69.7019 66.2763 69.7019 66.0977C69.7019 63.1549 67.3403 60.7676 64.4291 60.7676C61.5179 60.7676 59.1562 63.1549 59.1562 66.0977C59.1562 66.3027 59.1693 66.5011 59.189 66.6995C60.7787 66.6797 63.3824 65.6017 64.6384 63.1351Z" fill="#AAAAAA" stroke="#333333"/>
<path d="M64.3711 75.9922L64.3564 76.0072C64.0215 75.5644 63.609 75.1498 63.2292 74.77L63.2042 74.745C62.8602 74.4009 62.546 74.0867 62.2936 73.7766V72.9609V72.3648L61.7065 72.4686C59.471 72.8639 57.6481 73.7812 56.1989 74.9433L55.8037 75.2602L56.1258 75.6512C58.0828 78.0271 61.0441 79.5392 64.362 79.5392C67.6597 79.5392 70.607 78.0408 72.5637 75.6927L72.8882 75.3033L72.4944 74.9842C71.0637 73.8247 69.4043 72.8803 67.1564 72.4691L66.5664 72.3612V72.9609V73.7458L64.3711 75.9922Z" fill="#D9F4FF" stroke="#333333"/>
<path d="M82.299 74.3936L82.3009 74.3912L82.4059 74.2656C82.4568 74.2051 82.5228 74.1131 82.5545 73.9751C82.5758 73.882 82.5758 73.7847 82.5757 73.7262C82.5757 73.7238 82.5757 73.7213 82.5757 73.719V73.2902V70.6538V69.8448L81.8521 70.2066C81.3123 70.4765 80.8222 70.4834 80.0984 70.4834C79.3978 70.4834 78.82 70.4286 78.3328 70.2008L77.6211 69.8682V70.6538V73.3062V73.719C77.6211 73.7235 77.6211 73.7284 77.6211 73.7338C77.6208 73.7851 77.6205 73.8749 77.6356 73.9555C77.662 74.096 77.7253 74.1938 77.7857 74.2655L77.8906 74.3912L77.8906 74.3912L77.8926 74.3936C78.1305 74.675 78.3823 74.9361 78.6252 75.188C78.6381 75.2014 78.651 75.2147 78.6639 75.2281C78.9221 75.496 79.1721 75.7572 79.4128 76.0464L79.4135 76.0473C79.4777 76.124 79.5654 76.2231 79.6729 76.2976C79.7776 76.3701 79.9237 76.4343 80.0984 76.4259C80.2731 76.4343 80.4192 76.3701 80.5239 76.2976C80.6314 76.2231 80.7192 76.124 80.7833 76.0473L80.3998 75.7265L80.7828 76.0478C81.0247 75.7595 81.2744 75.4973 81.5316 75.2285C81.5411 75.2186 81.5505 75.2087 81.56 75.1988C81.8052 74.9427 82.0586 74.678 82.299 74.3936Z" fill="white" stroke="#333333"/>
<circle cx="80.0971" cy="66.0404" r="5.27283" fill="white" stroke="#333333"/>
<path fill-rule="evenodd" clip-rule="evenodd" d="M80.3064 63.1351C81.3139 64.8611 83.6886 66.8582 85.3437 66.6202C85.3633 66.4482 85.3699 66.2763 85.3699 66.0977C85.3699 63.1549 83.0082 60.7676 80.0971 60.7676C77.1859 60.7676 74.8242 63.1549 74.8242 66.0977C74.8242 66.3027 74.8373 66.5011 74.8569 66.6995C76.4466 66.6797 79.0503 65.6017 80.3064 63.1351Z" fill="#AAAAAA" stroke="#333333"/>
<path d="M80.0391 75.9922L80.0244 76.0072C79.6895 75.5644 79.2769 75.1498 78.8972 74.77L78.8722 74.745C78.5282 74.4009 78.2139 74.0867 77.9615 73.7766V72.9609V72.3648L77.3745 72.4686C75.139 72.8639 73.3161 73.7812 71.8669 74.9433L71.4717 75.2602L71.7938 75.6512C73.7508 78.0271 76.7121 79.5392 80.03 79.5392C83.3277 79.5392 86.275 78.0408 88.2317 75.6927L88.5562 75.3033L88.1624 74.9842C86.7317 73.8247 85.0723 72.8803 82.8243 72.4691L82.2344 72.3612V72.9609V73.7458L80.0391 75.9922Z" fill="#D9F4FF" stroke="#333333"/>
<path d="M74.5411 82.3005L74.5431 82.2982L74.648 82.1726C74.699 82.1121 74.7649 82.0201 74.7966 81.8821C74.818 81.7889 74.818 81.6917 74.8179 81.6332C74.8179 81.6307 74.8179 81.6283 74.8179 81.626V81.1972V78.5608V77.7518L74.0943 78.1136C73.5545 78.3835 73.0643 78.3903 72.3406 78.3903C71.64 78.3903 71.0622 78.3355 70.575 78.1078L69.8633 77.7752V78.5608V81.2132V81.626C69.8633 81.6304 69.8633 81.6354 69.8632 81.6408C69.863 81.6921 69.8627 81.7819 69.8778 81.8625C69.9042 82.003 69.9674 82.1007 70.0278 82.1725L70.1328 82.2982L70.1328 82.2982L70.1348 82.3005C70.3726 82.5819 70.6245 82.8431 70.8674 83.095C70.8803 83.1083 70.8932 83.1217 70.9061 83.1351C71.1643 83.403 71.4143 83.6642 71.6549 83.9534L71.6557 83.9543C71.7199 84.031 71.8076 84.1301 71.9151 84.2046C72.0198 84.2771 72.1659 84.3412 72.3406 84.3329C72.5153 84.3412 72.6614 84.2771 72.7661 84.2046C72.8736 84.1301 72.9613 84.031 73.0255 83.9543L72.6419 83.6335L73.025 83.9548C73.2669 83.6665 73.5166 83.4042 73.7738 83.1355C73.7832 83.1256 73.7927 83.1157 73.8022 83.1058C74.0474 82.8497 74.3007 82.5849 74.5411 82.3005Z" fill="white" stroke="#333333"/>
<circle cx="72.3392" cy="73.9474" r="5.27284" fill="white" stroke="#333333"/>
<path fill-rule="evenodd" clip-rule="evenodd" d="M72.5486 71.042C73.5561 72.7681 75.9308 74.7652 77.5859 74.5272C77.6055 74.3552 77.6121 74.1833 77.6121 74.0047C77.6121 71.0619 75.2504 68.6746 72.3392 68.6746C69.4281 68.6746 67.0664 71.0619 67.0664 74.0047C67.0664 74.2097 67.0795 74.4081 67.0991 74.6065C68.6888 74.5867 71.2925 73.5087 72.5486 71.042Z" fill="#AAAAAA" stroke="#333333"/>
<path d="M72.2813 83.8992L72.2666 83.9142C71.9316 83.4714 71.5191 83.0568 71.1394 82.677L71.1144 82.652C70.7704 82.3079 70.4561 81.9936 70.2037 81.6836V80.8679V80.2717L69.6167 80.3756C67.3812 80.7709 65.5583 81.6882 64.1091 82.8503L63.7138 83.1672L64.0359 83.5582C65.9929 85.9341 68.9543 87.4462 72.2722 87.4462C75.5699 87.4462 78.5172 85.9478 80.4739 83.5997L80.7984 83.2103L80.4046 82.8912C78.9739 81.7317 77.3145 80.7873 75.0665 80.3761L74.4766 80.2682V80.8679V81.6528L72.2813 83.8992Z" fill="url(#paint2_linear_29513_373128)" stroke="#333333"/>
</g>
<defs>
<linearGradient id="paint0_linear_29513_373128" x1="32.6367" y1="12.03" x2="21.1167" y2="24" gradientUnits="userSpaceOnUse">
<stop stop-color="#FF8E3D"/>
<stop offset="1" stop-color="#FF6F3D"/>
</linearGradient>
<linearGradient id="paint1_linear_29513_373128" x1="69.4375" y1="23.0007" x2="69.3464" y2="24.9981" gradientUnits="userSpaceOnUse">
<stop stop-color="#FF8E3D"/>
<stop offset="1" stop-color="#FF6F3D"/>
</linearGradient>
<linearGradient id="paint2_linear_29513_373128" x1="64.4219" y1="80.6305" x2="68.4083" y2="91.3076" gradientUnits="userSpaceOnUse">
<stop stop-color="#FF8E3D"/>
<stop offset="1" stop-color="#FF6F3D"/>
</linearGradient>
<clipPath id="clip0_29513_373128">
<rect width="96" height="96" fill="white"/>
</clipPath>
</defs>
</svg>
