<svg width="18" height="18" viewBox="0 0 18 18" fill="none" xmlns="http://www.w3.org/2000/svg">
<path fill-rule="evenodd" clip-rule="evenodd" d="M1.28571 0C0.575634 0 0 0.575634 0 1.28571V6.71429C0 7.42437 0.575634 8 1.28571 8H6.71429C7.42437 8 8 7.42437 8 6.71429V1.28571C8 0.575634 7.42437 0 6.71429 0H1.28571ZM2.5 6C2.22386 6 2 5.77614 2 5.5V2.5C2 2.22386 2.22386 2 2.5 2H5.5C5.77614 2 6 2.22386 6 2.5V5.5C6 5.77614 5.77614 6 5.5 6H2.5ZM1.28571 10C0.575634 10 0 10.5756 0 11.2857V16.7143C0 17.4244 0.575634 18 1.28571 18H6.71429C7.42437 18 8 17.4244 8 16.7143V11.2857C8 10.5756 7.42437 10 6.71429 10H1.28571ZM2.5 16C2.22386 16 2 15.7761 2 15.5V12.5C2 12.2239 2.22386 12 2.5 12H5.5C5.77614 12 6 12.2239 6 12.5V15.5C6 15.7761 5.77614 16 5.5 16H2.5ZM10 1.28571C10 0.575634 10.5756 0 11.2857 0H16.7143C17.4244 0 18 0.575634 18 1.28571V6.71429C18 7.42437 17.4244 8 16.7143 8H11.2857C10.5756 8 10 7.42437 10 6.71429V1.28571ZM12.5 2C12.2239 2 12 2.22386 12 2.5V5.5C12 5.77614 12.2239 6 12.5 6H15.5C15.7761 6 16 5.77614 16 5.5V2.5C16 2.22386 15.7761 2 15.5 2H12.5ZM11.2857 10C10.5756 10 10 10.5756 10 11.2857V16.7143C10 17.4244 10.5756 18 11.2857 18H16.7143C17.4244 18 18 17.4244 18 16.7143V11.2857C18 10.5756 17.4244 10 16.7143 10H11.2857ZM12.5 16C12.2239 16 12 15.7761 12 15.5V12.5C12 12.2239 12.2239 12 12.5 12H15.5C15.7761 12 16 12.2239 16 12.5V15.5C16 15.7761 15.7761 16 15.5 16H12.5Z" fill="#657077"/>
</svg>
