<svg width="92" height="68" viewBox="0 0 92 68" fill="none" xmlns="http://www.w3.org/2000/svg">
<g id="Third-party services">
<path id="Vector" d="M78.692 59H10.3098C8.43478 59 7.00098 57.57 7.00098 55.7V7.3C7.00098 5.43 8.20818 4 10.0832 4H78.694C80.569 4 82.001 5.43 82.001 7.3V55.7C82.001 57.57 80.567 59 78.692 59Z" fill="#CCCCCC"/>
<path id="Vector_2" fill-rule="evenodd" clip-rule="evenodd" d="M9.91458 4C8.33438 4 7.00098 5.3243 7.00098 6.9161L7.13418 40.7724H6.00098V6.9161C6.00098 4.7086 7.70158 3 9.91458 3H74.501C74.7771 3 75.001 3.2239 75.001 3.5C75.001 3.7761 74.7771 4 74.501 4H9.91458ZM28.0975 60H79.087C81.3 60 83.001 58.2914 83.001 56.0839V27.8086C83.001 27.4957 82.747 27.242 82.434 27.242C82.122 27.242 81.868 27.4957 81.868 27.8086V56.0839C81.868 57.6757 80.668 58.8725 79.087 58.8725H28.0975V60Z" fill="#333333"/>
<g id="Vector_3">
<path d="M79.787 59H10.3686C8.46518 59 7.00098 58.1048 7.00098 56.2024V12H82.001V56.2024C82.001 58.1048 81.69 59 79.787 59Z" fill="#333333"/>
<path d="M79.787 59H10.3686C8.46518 59 7.00098 58.1048 7.00098 56.2024V12H82.001V56.2024C82.001 58.1048 81.69 59 79.787 59Z" fill="white" fill-opacity="0.88"/>
</g>
<path id="Vector_4" fill-rule="evenodd" clip-rule="evenodd" d="M6.00098 11.5568C6.00098 11.2493 6.25448 11 6.56718 11H66.501C66.7771 11 67.001 11.2239 67.001 11.5C67.001 11.7761 66.7771 12 66.501 12H7.00098V41.125C7.00098 41.4011 6.77708 41.625 6.50098 41.625C6.22488 41.625 6.00098 41.4011 6.00098 41.125V11.5568ZM27.001 59.5C27.001 59.7761 27.2249 60 27.501 60H79.662C80.776 60 81.643 59.5652 82.213 58.8165C82.766 58.0902 83.001 57.123 83.001 56.1023V26.5341C83.001 26.2579 82.777 26.0341 82.501 26.0341C82.225 26.0341 82.001 26.2579 82.001 26.5341V56.1023C82.001 56.9747 81.665 57.678 81.307 58.1488C80.965 58.5973 80.445 59 79.662 59H27.501C27.2249 59 27.001 59.2239 27.001 59.5Z" fill="#333333"/>
<path id="Vector_5" d="M12.001 8C12.5533 8 13.001 7.5523 13.001 7C13.001 6.4477 12.5533 6 12.001 6C11.4487 6 11.001 6.4477 11.001 7C11.001 7.5523 11.4487 8 12.001 8Z" fill="#333333"/>
<path id="Vector_6" d="M17.001 8C17.5533 8 18.001 7.5523 18.001 7C18.001 6.4477 17.5533 6 17.001 6C16.4487 6 16.001 6.4477 16.001 7C16.001 7.5523 16.4487 8 17.001 8Z" fill="#333333"/>
<path id="Vector_7" d="M22.001 8C22.5533 8 23.001 7.5523 23.001 7C23.001 6.4477 22.5533 6 22.001 6C21.4487 6 21.001 6.4477 21.001 7C21.001 7.5523 21.4487 8 22.001 8Z" fill="#333333"/>
<path id="Vector_8" fill-rule="evenodd" clip-rule="evenodd" d="M56.2204 50.1959C56.1875 48.5537 54.7101 41.3535 57.9996 41.7489C59.9623 41.9867 61.4465 44.4445 63.2512 41.5858C65.0581 38.7223 63.2592 34.5183 61.4395 34.5183C60.1709 34.5183 57.1495 36.0942 56.3946 34.3529C56.0717 33.6122 56.3063 26.5424 56.3063 25.2399H48.1536C44.3899 25.2399 46.9458 21.4968 46.9458 19.6447C46.9458 16.5482 37.7362 15.5515 37.7362 20.0865C37.7362 21.3149 39.8378 24.1768 38.1892 24.9544C37.418 25.3169 31.3255 25.0949 30.1851 25.0926C30.1851 26.1794 29.3052 33.0436 31.3929 33.0436C33.9241 33.0436 35.2136 30.6242 37.4993 33.8613C39.8406 37.189 38.224 42.467 34.7144 42.467C32.0897 42.467 32.3568 41.0512 30.1851 42.1725L30.487 50.5652C32.9212 50.5652 35.6086 50.7192 37.9848 50.5765C41.4184 50.3709 38.9417 48.663 38.9417 46.7369C38.9417 41.1595 49.6634 41.2161 49.6634 47.0291C49.6634 48.2909 48.4556 48.9569 48.4556 49.8267C48.4556 51.8348 56.2204 50.7816 56.2204 50.1959Z" fill="#E07751"/>
<path id="Vector_9" fill-rule="evenodd" clip-rule="evenodd" d="M57.2183 50.2055V50.1957L57.2181 50.1858C57.2114 49.8511 57.1531 49.3176 57.089 48.7317C57.0642 48.5049 57.0386 48.2702 57.0147 48.0362C56.9239 47.1447 56.844 46.1508 56.8617 45.2339C56.88 44.2874 57.002 43.5578 57.2225 43.1181C57.2447 43.0738 57.2666 43.0351 57.2881 43.001C57.3652 42.8786 57.4361 42.8178 57.489 42.7865C57.5463 42.7526 57.6554 42.7089 57.8828 42.7361C58.1958 42.7741 58.5293 42.9063 58.9555 43.1171C59.0348 43.1563 59.1218 43.2008 59.2143 43.2482C59.5545 43.4223 59.971 43.6355 60.3666 43.7703C60.9167 43.9577 61.595 44.0623 62.3183 43.7756C63.0158 43.4991 63.5902 42.9229 64.099 42.1167C65.1985 40.3736 65.1731 38.2861 64.6586 36.6794C64.3993 35.8697 63.9985 35.1228 63.4895 34.5591C62.994 34.0101 62.2924 33.5286 61.4441 33.5286C60.9782 33.5286 60.4251 33.6653 59.9797 33.7787C59.8947 33.8003 59.8107 33.822 59.7276 33.8434L59.7264 33.8437C59.3202 33.9485 58.9339 34.0481 58.5558 34.1142C58.0916 34.1954 57.7656 34.2006 57.5571 34.1511C57.4249 34.1197 57.371 34.0801 57.3278 33.9964L57.324 33.9753C57.314 33.9177 57.3029 33.8312 57.2919 33.7119C57.2701 33.4743 57.2535 33.1551 57.2421 32.7697C57.2192 32.0013 57.2181 31.0221 57.2273 30.0136C57.2373 28.901 57.2605 27.7275 57.2788 26.8006C57.293 26.0836 57.3043 25.5142 57.3043 25.2347V24.2447H48.1541C47.3449 24.2447 47.1845 24.0417 47.1697 24.0223C47.1296 23.9696 47.0487 23.7863 47.123 23.2711C47.1873 22.8261 47.3341 22.3318 47.5021 21.7665L47.5598 21.5721C47.7312 20.9922 47.9409 20.2685 47.9409 19.6362C47.9409 18.316 46.9635 17.4113 45.9747 16.8866C44.9499 16.3428 43.642 16.0425 42.3698 16.0042C41.1037 15.966 39.7507 16.184 38.6754 16.8018C37.5519 17.4473 36.7386 18.5383 36.7386 20.0782C36.7386 20.5932 36.9427 21.1674 37.1049 21.5967C37.1722 21.775 37.2386 21.943 37.3028 22.1059C37.4221 22.4081 37.5344 22.6927 37.6333 22.9919C37.7851 23.4516 37.8367 23.7601 37.8204 23.9465C37.8127 24.0333 37.8074 24.0354 37.7788 24.0468C37.7738 24.0487 37.7681 24.051 37.7615 24.054C37.7824 24.0442 37.7943 24.0388 37.7943 24.0388C37.7943 24.0388 37.7274 24.0553 37.5507 24.0762C37.3432 24.1007 37.0651 24.1204 36.7274 24.135C36.0545 24.1641 35.2041 24.1703 34.3278 24.1651C33.4542 24.1599 32.5674 24.1434 31.8247 24.128L31.3643 24.1182C30.8397 24.107 30.4148 24.0979 30.1821 24.0974L29.1851 24.0954V25.0873C29.1851 25.2285 29.1667 25.4899 29.1402 25.866C29.1233 26.1067 29.103 26.3944 29.0822 26.7276C29.0317 27.5335 28.9849 28.5265 29.0063 29.4947C29.0273 30.4437 29.1145 31.4523 29.3703 32.2528C29.6033 32.9821 30.1569 34.0329 31.3882 34.0329C32.1831 34.0329 32.86 33.8417 33.4144 33.651C33.6189 33.5806 33.7923 33.5168 33.947 33.4599C34.2551 33.3465 34.4888 33.2605 34.7462 33.2047C35.058 33.1372 35.2754 33.1514 35.5056 33.2606C35.7709 33.3864 36.1601 33.6905 36.6818 34.4295C37.6534 35.8112 37.8188 37.6367 37.3495 39.1175C36.8759 40.612 35.876 41.482 34.7107 41.482C33.8046 41.482 33.3777 41.2979 32.9203 41.1006C32.8318 41.0624 32.7422 41.0238 32.6477 40.9859C32.3117 40.851 31.8953 40.7213 31.3578 40.7631C30.8492 40.8026 30.3229 40.9882 29.7217 41.2987L29.1633 41.5871L29.5221 51.5649H30.4821C31.2619 51.5649 32.0922 51.5819 32.9419 51.5994C34.6482 51.6345 36.4326 51.6711 38.0421 51.5744C38.1252 51.5694 38.2076 51.5636 38.2892 51.5567C39.0624 51.491 39.7624 51.3293 40.2375 50.9138C40.4017 50.7703 40.5293 50.6053 40.6211 50.4256C40.699 50.2731 40.751 50.1102 40.7775 49.9408C40.8303 49.603 40.7743 49.2901 40.7087 49.0507C40.6422 48.808 40.545 48.5689 40.4573 48.3644C40.4187 48.2742 40.3833 48.1937 40.3493 48.1165L40.3487 48.1151C40.2961 47.9954 40.2468 47.8834 40.1937 47.7541C40.0271 47.3487 39.9343 47.0272 39.9343 46.7444C39.9343 45.7134 40.4101 44.96 41.1793 44.4332C41.979 43.8855 43.1046 43.5873 44.2856 43.6065C45.4656 43.6257 46.5934 43.9602 47.3989 44.5499C48.1298 45.0849 48.6098 45.8334 48.6642 46.8427C48.6677 46.9063 48.6694 46.9711 48.6694 47.0368C48.6694 47.337 48.5368 47.5975 48.2428 48.0192L48.222 48.0489L48.1736 48.1175C48.0515 48.2904 47.8946 48.5125 47.7735 48.7314C47.6189 49.0105 47.4612 49.3852 47.4612 49.8361C47.4612 50.2494 47.6026 50.596 47.8144 50.8718C47.9224 51.0124 48.0486 51.1346 48.1838 51.2379C48.5538 51.5207 49.0102 51.684 49.4367 51.7862C50.2989 51.993 51.3785 52.0273 52.3838 51.983C53.4034 51.9381 54.4272 51.8083 55.2112 51.647C55.5977 51.5675 55.9607 51.4733 56.2456 51.3647C56.3818 51.3127 56.5513 51.2386 56.7047 51.1324C56.7816 51.0791 56.8922 50.9921 56.9914 50.8631C57.0922 50.7319 57.2183 50.5068 57.2183 50.2055ZM31.1749 25.1043L31.3337 25.1077C33.4919 25.1539 37.5654 25.2411 38.1866 24.9491C39.2877 24.4296 38.7164 22.9803 38.2152 21.7086C37.9657 21.0757 37.7335 20.4867 37.7335 20.0782C37.7335 15.5405 46.9459 16.5378 46.9459 19.6362C46.9459 20.1493 46.75 20.8074 46.5464 21.4908C46.0148 23.2761 45.4316 25.2347 48.1541 25.2347H56.3093C56.3093 25.4387 56.3036 25.7841 56.2951 26.2246L56.2842 26.7758C56.2337 29.3112 56.1448 33.7728 56.3976 34.3531C56.9327 35.5877 58.6062 35.1557 59.9876 34.7991C60.5556 34.6524 61.0743 34.5185 61.4441 34.5185C63.2643 34.5185 65.0638 38.7251 63.2564 41.5903C62.0111 43.5634 60.9183 43.0053 59.7158 42.391C59.175 42.1148 58.6121 41.8273 58.0031 41.7535C56.854 41.6153 56.2865 42.4039 56.0358 43.5589C55.6944 45.1315 55.9406 47.3832 56.1063 48.8993C56.1674 49.4584 56.2176 49.9174 56.2234 50.2055C56.2234 50.2262 56.2137 50.2475 56.1949 50.2692C55.8007 50.7266 51.4091 51.3741 49.4223 50.7562C48.8337 50.5731 48.4561 50.279 48.4561 49.8361C48.4561 49.4412 48.7048 49.0884 48.9765 48.7028C49.3037 48.2384 49.6643 47.7266 49.6643 47.0368C49.6643 46.8221 49.6497 46.6152 49.6216 46.4162C48.8871 41.2239 38.9394 41.3697 38.9394 46.7444C38.9394 47.3782 39.2073 47.9883 39.4447 48.5291C39.9294 49.633 40.2874 50.4482 37.9821 50.5863C36.4107 50.6807 34.7032 50.6453 33.0228 50.6105C32.1614 50.5927 31.3072 50.575 30.4821 50.575L30.1801 42.1773C31.4267 41.5335 31.87 41.7256 32.5175 42.0063C32.9984 42.2147 33.5919 42.472 34.7107 42.472C38.2214 42.472 39.8386 37.1908 37.4965 33.8612C35.949 31.6689 34.858 32.0695 33.5293 32.5573C32.895 32.7902 32.2065 33.043 31.3882 33.043C29.6348 33.043 29.9741 28.2011 30.128 26.0044C30.157 25.5914 30.1794 25.2719 30.18 25.0957L30.1801 25.0873C30.3791 25.0877 30.7289 25.0948 31.1749 25.1043Z" fill="#333333"/>
<path id="Vector_10" fill-rule="evenodd" clip-rule="evenodd" d="M19.1549 65.018L18.2192 64.416C17.8162 64.156 17.3069 64.136 16.8626 64.32C16.4197 64.504 16.072 64.879 15.9699 65.348L15.7327 66.435C15.661 66.764 15.3698 67 15.0331 66.999L10.969 67C10.6323 67 10.3397 66.765 10.2693 66.436L10.0332 65.35C9.931 64.88 9.5846 64.507 9.1402 64.322C8.6972 64.138 8.188 64.159 7.7837 64.416L6.8481 65.018C6.5639 65.2 6.1926 65.16 5.9539 64.921L3.0789 62.046C2.8402 61.808 2.8001 61.437 2.9822 61.152L3.5838 60.217C3.8445 59.8128 3.8638 59.3051 3.6788 58.8607C3.4952 58.4178 3.1212 58.0714 2.6506 57.9678L1.5645 57.7317C1.2361 57.6599 1 57.3687 1 57.032L1.0008 52.9686C1.0008 52.632 1.2353 52.3395 1.5651 52.2692L2.6525 52.0321C3.1217 51.9301 3.4956 51.5839 3.6805 51.1396C3.864 50.6968 3.8432 50.1876 3.5851 49.7833L2.9819 48.8463C2.7997 48.5621 2.8397 48.1909 3.0784 47.9523L5.9511 45.0802C6.1898 44.8416 6.5611 44.8016 6.8454 44.9838L7.7811 45.5856C8.1841 45.845 8.6947 45.8645 9.1376 45.681C9.5806 45.4976 9.9297 45.1238 10.0303 44.6533L10.2675 43.5661C10.3393 43.2377 10.6304 43.0019 10.9685 43.0006L15.0326 43C15.3693 43.0001 15.6619 43.2347 15.7323 43.5645L15.9684 44.6504C16.0706 45.1195 16.4171 45.4935 16.8614 45.6785C17.3044 45.8621 17.8137 45.8415 18.218 45.5835L19.1535 44.9822C19.4378 44.8001 19.809 44.8402 20.0478 45.0789L22.9213 47.9522C23.1601 48.1909 23.1988 48.5634 23.018 48.8463L22.4165 49.7816C22.1571 50.1844 22.1365 50.6936 22.3214 51.1379C22.505 51.5808 22.8777 51.9286 23.3496 52.0308L24.4357 52.2669C24.7642 52.3388 25.0002 52.6299 25.0002 52.9666L24.9994 57.03C24.9995 57.3666 24.7649 57.6591 24.4337 57.7308L23.3463 57.9679C22.8771 58.0699 22.5032 58.4161 22.3184 58.8604C22.1349 59.3032 22.1543 59.8137 22.4138 60.217L23.0156 61.152C23.1978 61.437 23.1578 61.808 22.9191 62.046L20.045 64.92C19.8104 65.16 19.4378 65.201 19.1549 65.018ZM16.042 58.0423C17.7199 56.3648 17.7195 53.6357 16.0412 51.9576C14.3629 50.2794 11.6333 50.2789 9.9554 51.9563C8.2776 53.6338 8.278 56.3629 9.9563 58.0411C11.6346 59.7192 14.3642 59.7197 16.042 58.0423Z" fill="#ADADAD"/>
<path id="Vector_11" fill-rule="evenodd" clip-rule="evenodd" d="M17.6778 65.257C17.5839 65.196 17.4257 65.169 17.2466 65.244H17.2452C17.0654 65.319 16.9708 65.451 16.9471 65.561L16.7097 66.648C16.5383 67.433 15.8426 67.999 15.0332 67.999L10.9691 68C10.1655 68 9.4624 67.44 9.2918 66.647C9.2917 66.646 9.2915 66.645 9.2914 66.644L9.0561 65.563C9.0324 65.454 8.9393 65.321 8.7567 65.245C8.5797 65.172 8.4197 65.197 8.3225 65.259C8.3228 65.259 8.3221 65.259 8.3225 65.259L7.3875 65.86C6.7077 66.295 5.8179 66.199 5.2468 65.628L2.3719 62.754C1.8008 62.183 1.7047 61.293 2.1403 60.613L2.1412 60.611L2.7435 59.675C2.8037 59.5816 2.8308 59.4258 2.7556 59.2451L2.755 59.2437C2.681 59.0651 2.5497 58.9698 2.4363 58.9446C2.4365 58.9447 2.4361 58.9446 2.4363 58.9446L1.3509 58.7086C0.566299 58.537 0.0001 57.8417 0 57.0322L0.000799179 52.9688C0.000899179 52.1651 0.560299 51.4622 1.3541 51.2918C1.355 51.2916 1.3559 51.2914 1.3568 51.2912L2.4396 51.0551C2.5483 51.0314 2.6809 50.9385 2.757 50.7562C2.8298 50.5798 2.8046 50.42 2.7429 50.3225C2.7427 50.3222 2.7425 50.3218 2.7422 50.3214L2.14 49.386C1.7046 48.7066 1.7999 47.8165 2.3714 47.2451L5.2442 44.373C5.8156 43.8017 6.7057 43.7065 7.385 44.1418L7.3863 44.1427L8.3221 44.7445C8.4145 44.804 8.5748 44.8318 8.7551 44.7571C8.9379 44.6815 9.03 44.5493 9.0525 44.4441L9.0533 44.4402L9.2906 43.353C9.4624 42.5662 10.1586 42.0037 10.9647 42.0006H10.9685L15.0325 42C15.8362 42.0002 16.5393 42.5596 16.7099 43.3535C16.71 43.3542 16.7102 43.3549 16.7103 43.3556L16.9456 44.4375C16.9693 44.5463 17.0624 44.6787 17.2451 44.755C17.4221 44.8281 17.582 44.8026 17.6792 44.7411C17.6796 44.7409 17.6799 44.7407 17.6802 44.7405L18.6142 44.1401C19.294 43.7047 20.1838 43.8008 20.7549 44.3718L23.6284 47.245C24.2014 47.8179 24.2925 48.709 23.8607 49.3847L23.8591 49.3871L23.2576 50.3225C23.1974 50.4159 23.17 50.5742 23.2447 50.7535L23.2453 50.7549C23.3207 50.9368 23.4517 51.0297 23.5614 51.0534L24.6494 51.29C25.434 51.4616 26.0002 52.1569 26.0003 52.9664L25.9995 57.0298C25.9994 57.8359 25.4379 58.5362 24.6461 58.708C24.6464 58.7079 24.6458 58.708 24.6461 58.708L23.5593 58.9449C23.4506 58.9686 23.3181 59.0615 23.242 59.2437C23.1677 59.4236 23.1951 59.5829 23.2545 59.6752L23.8575 60.613C24.293 61.292 24.1976 62.182 23.6261 62.754L20.7553 65.624C20.1869 66.201 19.2916 66.297 18.6127 65.858C18.612 65.857 18.6113 65.857 18.6106 65.856L17.6778 65.257ZM19.1549 65.018C19.4378 65.201 19.8104 65.16 20.045 64.92L22.9191 62.046C23.1578 61.808 23.1978 61.437 23.0156 61.152L22.4138 60.217C22.1543 59.8137 22.1349 59.3032 22.3184 58.8604C22.5032 58.4161 22.8772 58.0699 23.3464 57.9679L24.4338 57.7308C24.765 57.6591 24.9995 57.3666 24.9995 57.03L25.0003 52.9666C25.0002 52.6299 24.7642 52.3388 24.4358 52.267L23.3497 52.0308C22.8777 51.9286 22.5051 51.5808 22.3215 51.1379C22.1365 50.6936 22.1571 50.1844 22.4165 49.7816L23.0181 48.8463C23.1988 48.5634 23.1601 48.1909 22.9213 47.9522L20.0478 45.0789C19.809 44.8402 19.4378 44.8001 19.1535 44.9822L18.218 45.5835C17.8137 45.8415 17.3045 45.8621 16.8615 45.6785C16.4171 45.4935 16.0707 45.1195 15.9685 44.6504L15.7323 43.5645C15.6619 43.2347 15.3693 43.0001 15.0326 43L10.9685 43.0006C10.6304 43.0019 10.3393 43.2377 10.2676 43.5661L10.0304 44.6533C9.9297 45.1238 9.5806 45.4976 9.1377 45.681C8.6947 45.8645 8.1841 45.845 7.7811 45.5856L6.8454 44.9838C6.5611 44.8016 6.1899 44.8416 5.9512 45.0802L3.0784 47.9523C2.8397 48.1909 2.7997 48.5621 2.9819 48.8463L3.5851 49.7833C3.8432 50.1876 3.864 50.6968 3.6805 51.1396C3.4957 51.5839 3.1217 51.9301 2.6526 52.0321L1.5652 52.2692C1.2354 52.3395 1.0008 52.632 1.0008 52.9686L1 57.032C1.0001 57.3687 1.2361 57.6599 1.5645 57.7317L2.6506 57.9678C3.1212 58.0714 3.4952 58.4178 3.6788 58.8607C3.8638 59.3051 3.8446 59.8128 3.5838 60.217L2.9823 61.152C2.8001 61.437 2.8402 61.808 3.079 62.046L5.9539 64.921C6.1927 65.16 6.5639 65.2 6.8481 65.018L7.7837 64.416C8.188 64.159 8.6972 64.138 9.1402 64.322C9.5846 64.507 9.931 64.88 10.0332 65.35L10.2693 66.436C10.3398 66.765 10.6324 67 10.9691 67L15.0331 66.999C15.3699 67 15.661 66.764 15.7327 66.435L15.9699 65.348C16.072 64.879 16.4197 64.504 16.8626 64.32C17.307 64.136 17.8162 64.156 18.2192 64.416L19.1549 65.018ZM15.3351 57.3351C16.622 56.0485 16.6221 53.9526 15.3341 52.6647C14.0461 51.3768 11.9495 51.3768 10.6625 52.6635C9.3755 53.9501 9.3754 56.046 10.6634 57.3339C11.9515 58.6218 14.048 58.6218 15.3351 57.3351ZM16.0412 51.9576C17.7195 53.6357 17.7199 56.3648 16.0421 58.0423C14.3642 59.7197 11.6346 59.7192 9.9563 58.0411C8.278 56.3629 8.2776 53.6338 9.9555 51.9563C11.6333 50.2789 14.3629 50.2794 16.0412 51.9576Z" fill="#333333"/>
<path id="Vector_12" d="M82.817 7.8394C82.817 8.6126 83.444 9.2394 84.217 9.2394H89.601C90.374 9.2394 91.001 9.8662 91.001 10.6394V12.4662C91.001 13.2394 90.374 13.8662 89.601 13.8662H84.217C83.444 13.8662 82.817 14.493 82.817 15.2662V20.6C82.817 21.3732 82.19 22 81.417 22H79.585C78.812 22 78.185 21.3732 78.185 20.6V15.2662C78.185 14.493 77.558 13.8662 76.785 13.8662H71.401C70.6278 13.8662 70.001 13.2394 70.001 12.4662V10.6394C70.001 9.8662 70.6278 9.2394 71.401 9.2394H76.785C77.558 9.2394 78.185 8.6126 78.185 7.8394V2.4C78.185 1.6268 78.812 1 79.585 1H81.417C82.19 1 82.817 1.6268 82.817 2.4V7.8394Z" fill="#ADADAD"/>
<path id="Vector_13" fill-rule="evenodd" clip-rule="evenodd" d="M84.217 8.2394H89.601C90.926 8.2394 92.001 9.314 92.001 10.6394V12.4662C92.001 13.7917 90.926 14.8662 89.601 14.8662H84.217C83.996 14.8662 83.817 15.0453 83.817 15.2662V20.6C83.817 21.9255 82.742 23 81.417 23H79.585C78.26 23 77.185 21.9255 77.185 20.6V15.2662C77.185 15.0453 77.006 14.8662 76.785 14.8662H71.401C70.0755 14.8662 69.001 13.7917 69.001 12.4662V10.6394C69.001 9.314 70.0755 8.2394 71.401 8.2394H76.785C77.006 8.2394 77.185 8.0603 77.185 7.8394V2.4C77.185 1.0745 78.26 0 79.585 0H81.417C82.742 0 83.817 1.0745 83.817 2.4V7.8394C83.817 8.0603 83.996 8.2394 84.217 8.2394ZM84.217 9.2394C83.444 9.2394 82.817 8.6126 82.817 7.8394V2.4C82.817 1.6268 82.19 1 81.417 1H79.585C78.812 1 78.185 1.6268 78.185 2.4V7.8394C78.185 8.6126 77.558 9.2394 76.785 9.2394H71.401C70.6278 9.2394 70.001 9.8662 70.001 10.6394V12.4662C70.001 13.2394 70.6278 13.8662 71.401 13.8662H76.785C77.558 13.8662 78.185 14.493 78.185 15.2662V20.6C78.185 21.3732 78.812 22 79.585 22H81.417C82.19 22 82.817 21.3732 82.817 20.6V15.2662C82.817 14.493 83.444 13.8662 84.217 13.8662H89.601C90.374 13.8662 91.001 13.2394 91.001 12.4662V10.6394C91.001 9.8662 90.374 9.2394 89.601 9.2394H84.217Z" fill="#333333"/>
</g>
</svg>
