<svg width="38" height="38" viewBox="0 0 38 38" fill="none" xmlns="http://www.w3.org/2000/svg">
<circle cx="19" cy="19" r="18" stroke="#F2675A" stroke-width="2"/>
<path fill-rule="evenodd" clip-rule="evenodd" d="M23.2929 13.2929C23.6834 12.9024 24.3166 12.9024 24.7071 13.2929C25.0976 13.6834 25.0976 14.3166 24.7071 14.7071L20.4142 19L24.7071 23.2929C25.0976 23.6834 25.0976 24.3166 24.7071 24.7071C24.3166 25.0976 23.6834 25.0976 23.2929 24.7071L19 20.4142L14.7071 24.7071C14.3166 25.0976 13.6834 25.0976 13.2929 24.7071C12.9024 24.3166 12.9024 23.6834 13.2929 23.2929L17.5858 19L13.2929 14.7071C12.9024 14.3166 12.9024 13.6834 13.2929 13.2929C13.6834 12.9024 14.3166 12.9024 14.7071 13.2929L19 17.5858L23.2929 13.2929Z" fill="#F2675A"/>
</svg>
