<svg width="32" height="32" viewBox="0 0 32 32" fill="none" xmlns="http://www.w3.org/2000/svg">
<path d="M2.78699 22.4004H5.00032V13.0137H2.78699V22.4004ZM3.89365 11.7871C4.05347 11.7906 4.21238 11.7622 4.36107 11.7035C4.50975 11.6448 4.6452 11.5569 4.75947 11.4452C4.87374 11.3334 4.96453 11.1999 5.02649 11.0525C5.08846 10.9052 5.12036 10.7469 5.12032 10.5871C5.12032 9.92036 4.58699 9.38701 3.89365 9.38701C3.73384 9.38346 3.57492 9.41188 3.42624 9.47059C3.27756 9.5293 3.1421 9.61714 3.02783 9.72893C2.91356 9.84071 2.82278 9.97419 2.76081 10.1216C2.69885 10.269 2.66695 10.4272 2.66699 10.5871C2.66699 11.2537 3.20032 11.7871 3.89365 11.7871ZM12.3337 9.41369C8.61365 9.41369 6.26699 11.9471 6.26699 16.0004C6.26699 20.0804 8.61365 22.6137 12.3337 22.6137C16.0537 22.6137 18.4004 20.0804 18.4004 16.0004C18.4004 11.9471 16.0537 9.41369 12.3337 9.41369ZM12.3337 11.3337C14.6137 11.3337 16.067 13.1604 16.067 16.0004C16.067 18.8671 14.6137 20.6671 12.3337 20.6671C10.0537 20.6671 8.61365 18.8671 8.61365 16.0004C8.61365 13.1604 10.0537 11.3337 12.3337 11.3337ZM19.3337 18.8137C19.427 21.1604 21.3337 22.6137 24.2937 22.6137C27.387 22.6137 29.3337 21.0937 29.3337 18.6671C29.3337 16.7604 28.2404 15.6937 25.6404 15.0937L24.1737 14.7604C22.6004 14.3871 21.9604 13.8937 21.9604 13.0404C21.9604 12.0004 22.9337 11.2671 24.3737 11.2671C25.8404 11.2671 26.8404 12.0004 26.947 13.1871H29.1204C29.067 10.9337 27.2137 9.41369 24.387 9.41369C21.6137 9.41369 19.6404 10.9471 19.6404 13.2137C19.6404 15.0404 20.747 16.1737 23.107 16.7071L24.7604 17.0937C26.3737 17.4804 27.027 18.0004 27.027 18.9337C27.027 20.0004 25.9604 20.7604 24.4137 20.7604C22.867 20.7604 21.6804 20.0004 21.547 18.8137H19.3337Z" fill="#A3A9AE"/>
</svg>
