<svg width="32" height="32" viewBox="0 0 32 32" fill="none" xmlns="http://www.w3.org/2000/svg">
<path fill-rule="evenodd" clip-rule="evenodd" d="M0 6.30012C0 2.82066 2.82066 0 6.30012 0H25.6999C29.1793 0 32 2.82066 32 6.30012V25.6999C32 29.1793 29.1793 32 25.6999 32H6.30012C2.82066 32 0 29.1793 0 25.6999V6.30012ZM16.566 4.75229C17.1546 4.0319 18.1648 3.47869 19.0291 3.41891C19.174 4.40375 18.7737 5.36832 18.2449 6.05021C17.6795 6.78276 16.7038 7.34914 15.7595 7.31976C15.5872 6.37646 16.029 5.40581 16.566 4.75229ZM19.347 7.21327C20.4484 7.21327 21.6146 7.81714 22.4444 8.8577C19.7239 10.3583 20.1647 14.2672 22.9135 15.3139C22.5356 16.1568 22.3542 16.5327 21.8669 17.2795C21.187 18.3211 20.2295 19.619 19.041 19.6281C18.5525 19.6332 18.232 19.4854 17.8864 19.3259C17.4859 19.1412 17.0516 18.9408 16.2831 18.9452C15.5188 18.949 15.0776 19.1468 14.6716 19.3289C14.3171 19.4879 13.9894 19.6348 13.4968 19.6301C12.3093 19.62 11.4015 18.4487 10.7216 17.4071C8.82184 14.4962 8.62122 11.0787 9.7935 9.26096C10.6274 7.97013 11.9425 7.21529 13.1776 7.21529C13.8359 7.21529 14.3664 7.40551 14.872 7.58679C15.3321 7.75177 15.7716 7.90934 16.2679 7.90934C16.7271 7.90934 17.1047 7.76549 17.5165 7.60857C18.0106 7.42032 18.554 7.21327 19.347 7.21327ZM10.137 27.9097H9.06393V22.9148H10.137V27.9097ZM9 21.5916C9 21.4019 9.05175 21.2559 9.15525 21.1535C9.2618 21.0512 9.41248 21 9.60731 21C9.79604 21 9.94216 21.0512 10.0457 21.1535C10.1522 21.2559 10.2055 21.4019 10.2055 21.5916C10.2055 21.7723 10.1522 21.9153 10.0457 22.0206C9.94216 22.123 9.79604 22.1742 9.60731 22.1742C9.41248 22.1742 9.2618 22.123 9.15525 22.0206C9.05175 21.9153 9 21.7723 9 21.5916ZM17.7169 24.5994C17.7169 25.6742 17.4444 26.5097 16.8995 27.1058C16.3577 27.7019 15.589 28 14.5936 28C13.586 28 12.8113 27.7049 12.2694 27.1148C11.7306 26.5217 11.4612 25.6802 11.4612 24.5903C11.4612 23.5004 11.7321 22.6634 12.274 22.0794C12.8189 21.4953 13.5951 21.2032 14.6027 21.2032C15.5951 21.2032 16.3623 21.4998 16.9041 22.0929C17.446 22.686 17.7169 23.5215 17.7169 24.5994ZM12.621 24.5994C12.621 25.4123 12.7869 26.0295 13.1187 26.451C13.4505 26.8695 13.9422 27.0787 14.5936 27.0787C15.242 27.0787 15.7306 26.871 16.0594 26.4555C16.3912 26.04 16.5571 25.4213 16.5571 24.5994C16.5571 23.7895 16.3927 23.1753 16.0639 22.7568C15.7382 22.3383 15.2511 22.129 14.6027 22.129C13.9482 22.129 13.4536 22.3383 13.1187 22.7568C12.7869 23.1753 12.621 23.7895 12.621 24.5994ZM22.3562 27.4987C22.7854 27.1645 23 26.7039 23 26.1168C23 25.8187 22.9467 25.5598 22.8402 25.34C22.7336 25.1202 22.5662 24.923 22.3379 24.7484C22.1096 24.5738 21.7504 24.3856 21.2603 24.1839C20.825 24.0062 20.5236 23.8632 20.3562 23.7548C20.1887 23.6465 20.0685 23.532 19.9954 23.4116C19.9224 23.2882 19.8858 23.1406 19.8858 22.969C19.8858 22.7191 19.9772 22.5189 20.1598 22.3684C20.3425 22.2148 20.6103 22.1381 20.9635 22.1381C21.4292 22.1381 21.9589 22.2615 22.5525 22.5084L22.8995 21.6277C22.2664 21.3508 21.6301 21.2123 20.9909 21.2123C20.3242 21.2123 19.793 21.3703 19.3973 21.6865C19.0015 22.0026 18.8037 22.4361 18.8037 22.9871C18.8037 23.4267 18.9285 23.803 19.1781 24.1161C19.4277 24.4292 19.8569 24.7077 20.4658 24.9516C21.0563 25.1865 21.446 25.3897 21.6347 25.5613C21.8234 25.7329 21.9178 25.9422 21.9178 26.189C21.9178 26.463 21.8143 26.6813 21.6073 26.8439C21.4033 27.0065 21.0852 27.0877 20.653 27.0877C20.3577 27.0877 20.0381 27.0471 19.6941 26.9658C19.3531 26.8845 19.0304 26.7731 18.726 26.6316V27.6523C19.207 27.8841 19.825 28 20.5799 28C21.3349 28 21.9269 27.8329 22.3562 27.4987Z" fill="#657077"/>
</svg>
