<svg width="32" height="32" viewBox="0 0 32 32" fill="none" xmlns="http://www.w3.org/2000/svg">
<defs>
<linearGradient id="iosGradient" x1="5.50036" y1="10.0004" x2="26.5004" y2="23.0004" gradientUnits="userSpaceOnUse">
<stop stop-color="#009688"/>
<stop offset="0.138984" stop-color="#03A9F4"/>
<stop offset="0.283761" stop-color="#3F51B5"/>
<stop offset="0.429821" stop-color="#9C27B0"/>
<stop offset="0.57304" stop-color="#E91E63"/>
<stop offset="0.698208" stop-color="#F44336"/>
<stop offset="0.846467" stop-color="#FF5722"/>
<stop offset="1" stop-color="#FFC107"/>
</linearGradient>
</defs>
<path d="M2.78663 22.3999H4.99996V13.0132H2.78663V22.3999ZM3.89329 11.7866C4.05311 11.7901 4.21202 11.7617 4.36071 11.703C4.50939 11.6443 4.64484 11.5564 4.75911 11.4447C4.87338 11.3329 4.96417 11.1994 5.02613 11.052C5.0881 10.9047 5.12 10.7464 5.11996 10.5866C5.11996 9.91987 4.58663 9.38653 3.89329 9.38653C3.73348 9.38298 3.57456 9.4114 3.42588 9.47011C3.2772 9.52882 3.14174 9.61665 3.02747 9.72844C2.9132 9.84022 2.82242 9.97371 2.76045 10.1211C2.69849 10.2685 2.66659 10.4267 2.66663 10.5866C2.66663 11.2532 3.19996 11.7866 3.89329 11.7866ZM12.3333 9.4132C8.61329 9.4132 6.26663 11.9466 6.26663 15.9999C6.26663 20.0799 8.61329 22.6132 12.3333 22.6132C16.0533 22.6132 18.4 20.0799 18.4 15.9999C18.4 11.9466 16.0533 9.4132 12.3333 9.4132ZM12.3333 11.3332C14.6133 11.3332 16.0666 13.1599 16.0666 15.9999C16.0666 18.8666 14.6133 20.6666 12.3333 20.6666C10.0533 20.6666 8.61329 18.8666 8.61329 15.9999C8.61329 13.1599 10.0533 11.3332 12.3333 11.3332ZM19.3333 18.8132C19.4266 21.1599 21.3333 22.6132 24.2933 22.6132C27.3866 22.6132 29.3333 21.0932 29.3333 18.6666C29.3333 16.7599 28.24 15.6932 25.64 15.0932L24.1733 14.7599C22.6 14.3866 21.96 13.8932 21.96 13.0399C21.96 11.9999 22.9333 11.2666 24.3733 11.2666C25.84 11.2666 26.84 11.9999 26.9466 13.1866H29.12C29.0666 10.9332 27.2133 9.4132 24.3866 9.4132C21.6133 9.4132 19.64 10.9466 19.64 13.2132C19.64 15.0399 20.7466 16.1732 23.1066 16.7066L24.76 17.0932C26.3733 17.4799 27.0266 17.9999 27.0266 18.9332C27.0266 19.9999 25.96 20.7599 24.4133 20.7599C22.8666 20.7599 21.68 19.9999 21.5466 18.8132H19.3333Z" fill="#CDCFD1"/>
</svg>
