<svg width="24" height="24" viewBox="0 0 24 24" fill="none" xmlns="http://www.w3.org/2000/svg">
<g clip-path="url(#clip0_42308_666868)">
<path d="M11.8362 1.13507C11.9302 1.05352 12.0698 1.05352 12.1638 1.13507L13.7499 2.51113C14.1559 2.86337 14.7013 3.0095 15.229 2.90745L17.2906 2.50878C17.4128 2.48515 17.5337 2.55499 17.5744 2.67261L18.2599 4.65734C18.4354 5.1654 18.8346 5.56463 19.3427 5.74011L21.3274 6.42565C21.445 6.46628 21.5148 6.58724 21.4912 6.70942L22.2276 6.85181L21.4912 6.70942L21.0925 8.77102C20.9905 9.29875 21.1366 9.8441 21.4889 10.2501L22.0554 9.75861L21.4889 10.2501L22.8649 11.8362C22.9465 11.9302 22.9465 12.0698 22.8649 12.1638L21.4889 13.7499C21.1366 14.1559 20.9905 14.7013 21.0925 15.229L21.4912 17.2906C21.5148 17.4128 21.445 17.5337 21.3274 17.5744L19.3427 18.2599C18.8346 18.4354 18.4354 18.8346 18.2599 19.3427L18.9688 19.5875L18.2599 19.3427L17.5743 21.3274C17.5337 21.445 17.4128 21.5148 17.2906 21.4912L15.229 21.0925C14.7013 20.9905 14.1559 21.1366 13.7499 21.4889L14.2414 22.0554L13.7499 21.4889L12.1638 22.8649C12.0698 22.9465 11.9302 22.9465 11.8362 22.8649L10.2501 21.4889C9.84411 21.1366 9.29875 20.9905 8.77102 21.0925L6.70942 21.4912L6.85182 22.2276L6.70942 21.4912C6.58724 21.5148 6.46628 21.445 6.42565 21.3274L5.74011 19.3427C5.56463 18.8346 5.1654 18.4354 4.65735 18.2599L4.41248 18.9688L4.65734 18.2599L2.67261 17.5743C2.55498 17.5337 2.48515 17.4128 2.50878 17.2906L2.90745 15.229C3.0095 14.7013 2.86338 14.1559 2.51113 13.7499L1.13507 12.1638C1.05352 12.0698 1.05352 11.9302 1.13507 11.8362L2.51113 10.2501C2.86337 9.8441 3.0095 9.29875 2.90745 8.77102L2.50878 6.70942C2.48515 6.58724 2.55498 6.46628 2.67261 6.42565L4.65734 5.74011C5.1654 5.56463 5.56463 5.1654 5.74011 4.65734L6.42565 2.67261C6.46628 2.55498 6.58724 2.48515 6.70942 2.50878L8.77102 2.90745C9.29875 3.0095 9.8441 2.86338 10.2501 2.51113L11.8362 1.13507Z" stroke="#657077" stroke-width="1.5"/>
<path d="M8 11.5L11.5 14.5L16.5 9" stroke="#657077" stroke-width="1.5" stroke-linecap="round"/>
</g>
<defs>
<clipPath id="clip0_42308_666868">
<rect width="24" height="24" fill="white"/>
</clipPath>
</defs>
</svg>
