<svg width="16" height="16" viewBox="0 0 16 16" fill="none" xmlns="http://www.w3.org/2000/svg">
<g clip-path="url(#clip0_710_65287)">
<path fill-rule="evenodd" clip-rule="evenodd" d="M11.5 7.08616L13.293 5.2932C14.007 4.57915 14.007 3.42145 13.293 2.70741C12.5789 1.99336 11.4212 1.99336 10.7072 2.70741L8.91029 4.50428L8.91145 4.50191L8.91194 4.5003L8.91168 4.49929L8.91027 4.49644L8.90631 4.5003L7.49608 5.91053C6.71723 5.13168 6.71723 3.86892 7.49608 3.09007L9.29295 1.2932C10.788 -0.201898 13.2121 -0.201899 14.7072 1.2932C16.2023 2.78829 16.2023 5.21232 14.7072 6.70741L12.9142 8.50038C12.1332 9.28139 10.8669 9.28138 10.0859 8.50038L11.5 7.08616ZM4.50013 8.91444L2.70717 10.7074C1.99312 11.4215 1.99312 12.5791 2.70716 13.2932C3.42121 14.0072 4.57891 14.0072 5.29295 13.2932L7.08983 11.4963L7.08866 11.4987L7.08818 11.5003L7.08844 11.5013L7.08984 11.5042L7.09381 11.5003L8.50404 10.0901C9.28289 10.8689 9.28289 12.1317 8.50404 12.9105L6.70716 14.7074C5.21207 16.2025 2.78805 16.2025 1.29295 14.7074C-0.202143 13.2123 -0.202142 10.7883 1.29295 9.29319L3.08592 7.50023C3.86693 6.71922 5.13319 6.71922 5.9142 7.50023L4.50013 8.91444ZM5.70716 11.7074L11.7072 5.70741L10.293 4.29319L4.29295 10.2932L5.70716 11.7074Z" fill="#A3A9AE"/>
</g>
<path fill-rule="evenodd" clip-rule="evenodd" d="M12 10H14V12H16V14H14V16H12V14H10V12H12V10Z" fill="#A3A9AE"/>
<defs>
<clipPath id="clip0_710_65287">
<rect width="16" height="16" fill="white"/>
</clipPath>
</defs>
</svg>
