<svg width="32" height="32" viewBox="0 0 32 32" fill="none" xmlns="http://www.w3.org/2000/svg">
<path d="M28.8169 25.6933C27.8785 25.309 27.4771 24.799 27.5159 24.038C27.5559 23.1498 27.052 22.4992 26.8127 22.2421C26.9572 21.6898 27.3797 19.7793 26.8131 18.1198C26.2041 16.3435 24.345 13.6306 22.4266 10.9639C21.6413 9.86876 21.6042 8.67835 21.5613 7.29993C21.5201 5.98519 21.4738 4.49493 20.7406 2.83826C19.9434 1.03439 18.3438 0 16.3517 0C15.1667 0 13.9502 0.370363 13.0142 1.01603C11.0973 2.33895 11.3507 5.22327 11.5183 7.13185C11.5413 7.3932 11.5629 7.64008 11.5755 7.85086C11.6872 9.72009 11.5856 10.7053 11.4528 11.0047C11.3668 11.2004 10.9438 11.7573 10.4961 12.3469C10.0331 12.9567 9.5082 13.6479 9.07793 14.292C8.56456 15.0671 8.15013 16.2517 7.74934 17.3973C7.45609 18.2356 7.17911 19.0274 6.90947 19.5006C6.39841 20.4109 6.52557 21.2597 6.63175 21.652C6.43828 21.7864 6.15877 22.051 5.92281 22.5498C5.63764 23.1583 5.05902 23.4853 3.85581 23.7167C3.30289 23.8298 2.92161 24.0623 2.72227 24.4077C2.43217 24.9103 2.59017 25.5419 2.73433 25.9736C2.94732 26.6081 2.81459 27.0098 2.57328 27.7389C2.51767 27.9072 2.45462 28.0978 2.39072 28.3079C2.29011 28.6396 2.32641 28.9411 2.49837 29.2041C2.95277 29.8988 4.27874 30.1438 5.64373 30.3049C6.45874 30.4017 7.35076 30.7277 8.2135 31.043C9.05883 31.3519 9.93291 31.6714 10.7275 31.7683C10.8482 31.7836 10.9678 31.7912 11.0831 31.7912C12.2828 31.7912 12.8248 30.9952 12.9966 30.6682C13.4275 30.5802 14.9137 30.2986 16.4454 30.2609C17.9747 30.2172 19.4544 30.5192 19.8735 30.6131C20.0053 30.8653 20.3527 31.4414 20.9065 31.7382C21.2108 31.9046 21.6344 32 22.0682 32C22.0683 32 22.0682 32 22.0683 32C22.5317 32 23.4131 31.8905 24.1107 31.1566C24.8065 30.4192 26.545 29.4779 27.8145 28.7905C28.0978 28.6371 28.3628 28.4936 28.5952 28.364C29.3084 27.9687 29.6975 27.4038 29.6628 26.8143C29.6338 26.3246 29.3097 25.8951 28.8169 25.6933ZM13.0298 25.5514C12.941 24.9261 12.1366 24.3059 11.205 23.5878C10.4433 23.0006 9.57996 22.3351 9.34211 21.7715C8.85057 20.6088 9.23803 18.5643 9.91361 17.5116C10.2475 16.9845 10.5201 16.1851 10.7839 15.412C11.0687 14.5773 11.3632 13.7142 11.6925 13.3364C12.2141 12.7466 12.696 11.5989 12.7815 10.6944C13.2698 11.1606 14.0275 11.7523 14.7274 11.7523C14.8351 11.7523 14.9397 11.7382 15.0397 11.71C15.5186 11.5717 16.2229 11.1647 16.904 10.7713C17.4913 10.432 18.2154 10.0135 18.4879 9.97546C18.9551 10.6463 21.6699 16.6541 21.9473 18.5834C22.1667 20.11 21.9349 21.3719 21.8183 21.8662C21.7245 21.8534 21.6127 21.843 21.4952 21.843C20.739 21.843 20.5388 22.2558 20.4867 22.5022C20.3526 23.1426 20.3384 25.19 20.337 25.6501C20.0635 25.9975 18.6808 27.6334 16.6957 27.9275C15.887 28.045 15.1319 28.1046 14.4514 28.1046C13.8698 28.1046 13.4986 28.0597 13.3444 28.0363L12.3469 26.8949C12.7402 26.7007 13.1335 26.2908 13.0298 25.5514ZM14.2956 6.73043C14.2645 6.74386 14.2338 6.75823 14.2037 6.77355C14.2007 6.70599 14.1937 6.63747 14.1829 6.56875C14.0739 5.94186 13.6583 5.48683 13.1946 5.48683C13.1603 5.48683 13.1258 5.48945 13.0879 5.49522C12.8121 5.54118 12.5957 5.74839 12.4772 6.04216C12.5812 5.39754 12.9464 4.92027 13.3797 4.92027C13.8886 4.92027 14.3184 5.60602 14.3184 6.41767C14.3184 6.51996 14.311 6.62174 14.2956 6.73043ZM18.2496 7.21379C18.2962 7.06544 18.3214 6.90491 18.3214 6.7383C18.3214 6.0024 17.8545 5.42587 17.2584 5.42587C16.6759 5.42587 16.202 6.01457 16.202 6.7383C16.202 6.78761 16.2044 6.83703 16.209 6.88634C16.1782 6.87449 16.1481 6.86294 16.1187 6.85182C16.0517 6.6488 16.0178 6.43697 16.0178 6.22074C16.0178 5.34078 16.5801 4.62482 17.2716 4.62482C17.9629 4.62482 18.5253 5.34078 18.5253 6.22074C18.5253 6.5868 18.4243 6.93618 18.2496 7.21379ZM17.7398 8.92649C17.7298 8.97097 17.7086 8.99069 17.4743 9.11261C17.3559 9.1742 17.2086 9.25089 17.0243 9.36316L16.9011 9.43775C16.4061 9.73782 15.247 10.4407 14.9324 10.4819C14.7187 10.5107 14.5865 10.4278 14.2892 10.2258C14.2222 10.1802 14.1509 10.1317 14.0748 10.0829C13.539 9.73132 13.1943 9.34406 13.1554 9.19266C13.3301 9.05763 13.7631 8.71969 13.9848 8.51961C14.4348 8.1012 14.8876 7.82001 15.1117 7.82001C15.1236 7.82001 15.1343 7.82085 15.1454 7.82295C15.4087 7.86943 16.0583 8.12868 16.5327 8.31796C16.752 8.40546 16.9414 8.481 17.0746 8.52884C17.4944 8.673 17.7133 8.85745 17.7398 8.92649ZM21.5113 28.4802C21.7481 27.412 22.0209 25.9589 21.9767 25.1022C21.9666 24.9076 21.9494 24.6958 21.9327 24.491C21.9015 24.108 21.8552 23.5388 21.903 23.37C21.9124 23.3656 21.9229 23.3618 21.9346 23.3586C21.9366 23.8483 22.0429 24.8252 22.8242 25.1659C23.057 25.2675 23.3231 25.3189 23.6149 25.3189C24.3975 25.3189 25.2658 24.935 25.6215 24.5793C25.8309 24.3699 26.0071 24.1137 26.1305 23.9108C26.1574 23.9898 26.174 24.093 26.1653 24.226C26.1188 24.9484 26.4699 25.9067 27.138 26.2599L27.2353 26.311C27.4732 26.4358 28.1053 26.7677 28.1154 26.9251C28.1153 26.9252 28.1101 26.9437 28.0748 26.9764C27.9165 27.1211 27.3593 27.4056 26.8204 27.6808C25.8645 28.1689 24.781 28.7221 24.2944 29.2339C23.6093 29.9549 22.8343 30.4392 22.3664 30.4392C22.3101 30.4392 22.2588 30.4321 22.2131 30.4176C21.7049 30.2592 21.2866 29.5259 21.5113 28.4802ZM4.18809 25.7551C4.13626 25.5126 4.09534 25.3211 4.1393 25.1356C4.17119 24.9981 4.8497 24.8508 5.13949 24.788C5.54689 24.6995 5.96824 24.6082 6.24376 24.4409C6.61632 24.2152 6.81808 23.799 6.99603 23.4318C7.12487 23.1663 7.2579 22.8917 7.41622 22.8016C7.42514 22.7963 7.43878 22.7902 7.4648 22.7902C7.76141 22.7902 8.38378 23.4138 8.7424 23.9718C8.83336 24.1125 9.00186 24.3944 9.1968 24.7208C9.77983 25.6964 10.5782 27.0325 10.9951 27.4803C11.3708 27.8829 11.979 28.6569 11.8294 29.3207C11.7199 29.8357 11.1367 30.2546 10.9992 30.3472C10.9493 30.3585 10.8875 30.3643 10.8148 30.3643C10.0167 30.3643 8.43708 29.7004 7.5884 29.3437L7.46281 29.2909C6.98889 29.0922 6.21522 28.967 5.46704 28.8459C4.87174 28.7495 4.05652 28.6176 3.92138 28.4984C3.81185 28.3756 3.9389 27.9762 4.05096 27.6237C4.13164 27.3705 4.21494 27.1086 4.26058 26.8344C4.32532 26.3971 4.24915 26.0411 4.18809 25.7551Z" fill="#657077"/>
</svg>
