<svg width="211" height="24" viewBox="0 0 211 24" fill="none" xmlns="http://www.w3.org/2000/svg">
<path fill-rule="evenodd" clip-rule="evenodd" d="M11.411 23.7059L0.685256 18.7649C-0.228419 18.3335 -0.228419 17.6669 0.685256 17.2747L4.4194 15.5493L11.3713 18.7649C12.285 19.1963 13.7548 19.1963 14.6287 18.7649L21.5806 15.5493L25.3147 17.2747C26.2284 17.7061 26.2284 18.3727 25.3147 18.7649L14.589 23.7059C13.7548 24.098 12.285 24.098 11.411 23.7059Z" fill="#FF6F3D"/>
<path fill-rule="evenodd" clip-rule="evenodd" d="M11.3762 17.5916L0.683168 12.6449C-0.227723 12.213 -0.227723 11.5456 0.683168 11.153L4.32673 9.46484L11.3762 12.7234C12.2871 13.1553 13.7525 13.1553 14.6238 12.7234L21.6733 9.46484L25.3168 11.153C26.2277 11.5849 26.2277 12.2523 25.3168 12.6449L14.6238 17.5916C13.7129 18.0235 12.2475 18.0235 11.3762 17.5916Z" fill="#95C038"/>
<path fill-rule="evenodd" clip-rule="evenodd" d="M11.3762 11.5408L0.683168 6.6652C-0.227723 6.23956 -0.227723 5.58174 0.683168 5.19479L11.3762 0.319233C12.2871 -0.106411 13.7525 -0.106411 14.6238 0.319233L25.3168 5.19479C26.2277 5.62044 26.2277 6.27825 25.3168 6.6652L14.6238 11.5408C13.7129 11.9277 12.2475 11.9277 11.3762 11.5408Z" fill="#5DC0E8"/>
<path fill-rule="evenodd" clip-rule="evenodd" d="M171.944 17.1235C172.718 16.5259 173.106 15.693 173.106 14.625C173.106 13.7949 172.865 13.1198 172.384 12.5996C171.908 12.0794 171.033 11.5924 169.76 11.1387C169.002 10.8675 168.438 10.6213 168.067 10.3999C167.702 10.173 167.442 9.92676 167.287 9.66113C167.132 9.38997 167.054 9.04411 167.054 8.62354C167.054 8.05355 167.265 7.60807 167.685 7.28711C168.106 6.96615 168.69 6.80566 169.437 6.80566C170.383 6.80566 171.357 7.01595 172.359 7.43652L172.799 6.20801C171.786 5.7653 170.676 5.54395 169.47 5.54395C168.313 5.54395 167.384 5.82064 166.681 6.37402C165.978 6.92741 165.627 7.67171 165.627 8.60693C165.627 9.49788 165.867 10.2201 166.349 10.7734C166.836 11.3268 167.644 11.8055 168.773 12.2095C169.581 12.4972 170.181 12.7546 170.574 12.9814C170.972 13.2083 171.255 13.4574 171.421 13.7285C171.592 13.9941 171.678 14.3372 171.678 14.7578C171.678 15.3942 171.44 15.8923 170.964 16.252C170.488 16.6061 169.78 16.7832 168.839 16.7832C168.264 16.7832 167.683 16.7223 167.096 16.6006C166.509 16.4788 165.967 16.3128 165.469 16.1025V17.4639C166.244 17.8346 167.351 18.02 168.789 18.02C170.117 18.02 171.169 17.7212 171.944 17.1235ZM144.04 16.2686C145.13 15.2061 145.675 13.6732 145.675 11.6699C145.675 9.79395 145.152 8.33301 144.106 7.28711C143.061 6.24121 141.594 5.71826 139.707 5.71826H135.988V17.854H139.35C141.392 17.854 142.955 17.3255 144.04 16.2686ZM142.986 8.14209C143.783 8.9445 144.181 10.137 144.181 11.7197C144.181 13.3411 143.758 14.5669 142.911 15.397C142.064 16.2215 140.8 16.6338 139.118 16.6338H137.399V6.93848H139.45C141.016 6.93848 142.194 7.33968 142.986 8.14209ZM154.744 16.7749C155.491 15.9393 155.865 14.7799 155.865 13.2969C155.865 11.8525 155.488 10.707 154.736 9.86035C153.989 9.01367 152.979 8.59033 151.706 8.59033C150.389 8.59033 149.36 9.00537 148.618 9.83545C147.877 10.66 147.506 11.8138 147.506 13.2969C147.506 14.2542 147.677 15.0898 148.02 15.8037C148.364 16.5176 148.851 17.0654 149.481 17.4473C150.112 17.8291 150.834 18.02 151.648 18.02C152.965 18.02 153.997 17.605 154.744 16.7749ZM149.631 15.9531C149.166 15.3444 148.934 14.459 148.934 13.2969C148.934 12.1237 149.163 11.241 149.622 10.6489C150.082 10.0568 150.762 9.76074 151.664 9.76074C152.578 9.76074 153.267 10.0623 153.731 10.6655C154.202 11.2632 154.437 12.1403 154.437 13.2969C154.437 14.4645 154.202 15.3527 153.731 15.9614C153.267 16.5646 152.583 16.8662 151.681 16.8662C150.779 16.8662 150.096 16.5618 149.631 15.9531ZM161.754 18.02C160.437 18.02 159.416 17.616 158.691 16.8081C157.972 15.9946 157.612 14.8464 157.612 13.3633C157.612 11.8415 157.977 10.6655 158.708 9.83545C159.444 9.00537 160.49 8.59033 161.846 8.59033C162.283 8.59033 162.72 8.63737 163.157 8.73145C163.594 8.82552 163.937 8.9362 164.186 9.06348L163.763 10.2339C163.459 10.1121 163.127 10.0125 162.767 9.93506C162.407 9.85205 162.089 9.81055 161.812 9.81055C159.964 9.81055 159.04 10.9893 159.04 13.3467C159.04 14.4645 159.264 15.3223 159.712 15.9199C160.166 16.5176 160.836 16.8164 161.721 16.8164C162.479 16.8164 163.257 16.6532 164.054 16.3267V17.5469C163.445 17.8623 162.678 18.02 161.754 18.02ZM179.444 18.02C178.851 18.02 178.309 17.9121 177.817 17.6963C177.33 17.4749 176.92 17.1374 176.588 16.6836H176.488C176.555 17.2148 176.588 17.7184 176.588 18.1943V21.938H175.21V8.75635H176.331L176.522 10.0015H176.588C176.942 9.50342 177.355 9.14372 177.825 8.92236C178.295 8.70101 178.835 8.59033 179.444 8.59033C180.65 8.59033 181.58 9.0026 182.233 9.82715C182.891 10.6517 183.22 11.8083 183.22 13.2969C183.22 14.791 182.886 15.9531 182.216 16.7832C181.552 17.6077 180.628 18.02 179.444 18.02ZM179.244 9.76074C178.315 9.76074 177.642 10.0181 177.227 10.5327C176.812 11.0474 176.599 11.8664 176.588 12.9897V13.2969C176.588 14.5752 176.801 15.491 177.227 16.0444C177.653 16.5923 178.337 16.8662 179.278 16.8662C180.063 16.8662 180.678 16.548 181.12 15.9116C181.569 15.2752 181.793 14.3981 181.793 13.2803C181.793 12.1458 181.569 11.277 181.12 10.6738C180.678 10.0651 180.052 9.76074 179.244 9.76074ZM190.787 16.5591L191.061 17.854H192.082V11.645C192.082 10.5825 191.819 9.81055 191.293 9.3291C190.773 8.84766 189.97 8.60693 188.886 8.60693C188.349 8.60693 187.812 8.67611 187.275 8.81445C186.744 8.9528 186.254 9.14372 185.806 9.38721L186.23 10.4414C187.187 9.97656 188.045 9.74414 188.803 9.74414C189.478 9.74414 189.968 9.91569 190.272 10.2588C190.582 10.5964 190.737 11.1221 190.737 11.8359V12.4004L189.193 12.4502C186.254 12.5387 184.785 13.5016 184.785 15.3389C184.785 16.1966 185.04 16.8579 185.549 17.3228C186.064 17.7876 186.772 18.02 187.674 18.02C188.349 18.02 188.911 17.9204 189.359 17.7212C189.813 17.5164 190.267 17.1291 190.72 16.5591H190.787ZM189.965 16.1772C189.478 16.6476 188.806 16.8828 187.948 16.8828C187.406 16.8828 186.982 16.7528 186.678 16.4927C186.379 16.2326 186.23 15.8535 186.23 15.3555C186.23 14.7191 186.47 14.2515 186.952 13.9526C187.439 13.6483 188.23 13.4767 189.326 13.438L190.704 13.3799V14.2017C190.704 15.0483 190.457 15.7069 189.965 16.1772ZM198.395 18.02C197.077 18.02 196.057 17.616 195.332 16.8081C194.612 15.9946 194.252 14.8464 194.252 13.3633C194.252 11.8415 194.618 10.6655 195.348 9.83545C196.084 9.00537 197.13 8.59033 198.486 8.59033C198.923 8.59033 199.36 8.63737 199.797 8.73145C200.235 8.82552 200.578 8.9362 200.827 9.06348L200.403 10.2339C200.099 10.1121 199.767 10.0125 199.407 9.93506C199.048 9.85205 198.729 9.81055 198.453 9.81055C196.604 9.81055 195.68 10.9893 195.68 13.3467C195.68 14.4645 195.904 15.3223 196.353 15.9199C196.806 16.5176 197.476 16.8164 198.361 16.8164C199.119 16.8164 199.897 16.6532 200.694 16.3267V17.5469C200.085 17.8623 199.319 18.02 198.395 18.02ZM203.346 16.7915C204.126 17.6105 205.189 18.02 206.534 18.02C207.148 18.02 207.671 17.973 208.102 17.8789C208.54 17.7904 209.002 17.641 209.489 17.4307V16.2021C208.531 16.6117 207.563 16.8164 206.583 16.8164C205.654 16.8164 204.932 16.5397 204.417 15.9863C203.908 15.4329 203.639 14.6222 203.612 13.5542H209.879V12.6826C209.879 11.4541 209.547 10.4663 208.883 9.71924C208.219 8.96663 207.317 8.59033 206.177 8.59033C204.959 8.59033 203.988 9.02197 203.263 9.88525C202.544 10.7485 202.184 11.9134 202.184 13.3799C202.184 14.8353 202.571 15.9725 203.346 16.7915ZM204.409 10.458C204.846 9.9821 205.43 9.74414 206.16 9.74414C206.88 9.74414 207.433 9.97656 207.82 10.4414C208.208 10.9007 208.401 11.5648 208.401 12.4336H203.645C203.722 11.5924 203.977 10.9339 204.409 10.458ZM32.2354 12C32.2354 7.64842 35.202 5.86667 38.2211 5.86667C41.2401 5.86667 44.2068 7.64842 44.2068 12C44.2068 16.3516 41.2401 18.1333 38.2211 18.1333C35.202 18.1333 32.2354 16.3516 32.2354 12ZM41.5891 12C41.5891 7.93966 39.146 7.57989 38.2211 7.57989C37.2962 7.57989 34.853 7.93966 34.853 12C34.853 16.0603 37.2962 16.4201 38.2211 16.4201C39.146 16.4201 41.5891 16.0603 41.5891 12ZM48.6982 17.9963H46.2201V6.00373H49.4311L53.6543 13.559L54.3 15.1866H54.3523L54.3 13.0622V6.00373H56.778V17.9963H53.567L49.3089 10.1497L48.6982 8.81341H48.6458L48.6982 10.9378V17.9963ZM59.2232 17.9963H66.5527V15.9747H61.7013V6.00373H59.2232V17.9963ZM68.9609 13.0965L64.4585 6.00373H67.3205L69.8335 10.2182L70.2174 11.0406H70.2698L70.6886 10.2182L73.219 6.00373H75.8367L71.439 13.1307V17.9963H68.9609V13.0965ZM81.6103 5.86667C78.5912 5.86667 75.6245 7.64842 75.6245 12C75.6245 16.3516 78.5912 18.1333 81.6103 18.1333C84.6293 18.1333 87.596 16.3516 87.596 12C87.596 7.64842 84.6293 5.86667 81.6103 5.86667ZM81.6103 7.57989C82.5352 7.57989 84.9783 7.93966 84.9783 12C84.9783 16.0603 82.5352 16.4201 81.6103 16.4201C80.6853 16.4201 78.2422 16.0603 78.2422 12C78.2422 7.93966 80.6853 7.57989 81.6103 7.57989ZM92.0873 17.9963H89.6093V6.00373H96.4501V8.02533H92.0873V10.9378H96.2407V12.908H92.0873V17.9963ZM98.1985 17.9963H100.677V12.908H104.83V10.9378H100.677V8.02533H105.039V6.00373H98.1985V17.9963ZM109.266 17.9963H106.788V6.00373H109.266V17.9963ZM120.63 15.5806C120.02 15.8547 119.164 16.1117 118.083 16.1117C115.884 16.1117 113.894 14.9296 113.894 12.0343C113.894 9.58436 115.517 7.88827 118.257 7.88827C119.182 7.88827 119.967 8.05959 120.683 8.3337L120.787 6.27784C119.863 5.98659 119.042 5.86667 118.083 5.86667C114.243 5.86667 111.277 7.93966 111.277 12.0685C111.277 16.4372 114.592 18.1333 117.629 18.1333C118.606 18.1333 119.705 17.9791 120.787 17.6194L120.63 15.5806ZM130 17.9963H122.705V6.00373H130V8.12812H125.183V10.835H129.563V12.8052H125.183V15.8719H130V17.9963Z" fill="#333333"/>
</svg>
