<svg width="16" height="16" viewBox="0 0 16 16" fill="none" xmlns="http://www.w3.org/2000/svg">
<g clip-path="url(#clip0_4275_9979)">
<path fill-rule="evenodd" clip-rule="evenodd" d="M14.7071 7.29278L10.7077 3.29366L9.29357 4.70791L11.5858 7L6.00066 7L6.00066 9L11.5861 9L9.29369 11.293L10.7081 12.707L14.7072 8.70693C15.0976 8.31638 15.0976 7.68327 14.7071 7.29278ZM8 2L3 2L3 14L8 14L8 16L3 16C1.89543 16 0.999999 15.1046 0.999999 14L1 2C1 0.895431 1.89543 -5.72819e-07 3 -5.24537e-07L8 -3.0598e-07L8 2Z" fill="#333333"/>
</g>
<defs>
<clipPath id="clip0_4275_9979">
<rect width="16" height="16" fill="white"/>
</clipPath>
</defs>
</svg>
