<svg width="32" height="32" viewBox="0 0 32 32" fill="none" xmlns="http://www.w3.org/2000/svg">
<path fill-rule="evenodd" clip-rule="evenodd" d="M32 16C32 24.8366 24.8366 32 16 32C7.16344 32 0 24.8366 0 16C0 7.16344 7.16344 0 16 0C24.8366 0 32 7.16344 32 16ZM16.5009 4.93366C17.0897 4.21312 18.1 3.65979 18.9645 3.6C19.1094 4.58504 18.7091 5.54982 18.1801 6.23185C17.6146 6.96455 16.6387 7.53105 15.6942 7.50166C15.5219 6.55817 15.9637 5.58731 16.5009 4.93366ZM19.2828 7.39533C20.3844 7.39533 21.5508 7.99933 22.3808 9.04011C19.6598 10.541 20.1006 14.4507 22.85 15.4976C22.472 16.3408 22.2906 16.7167 21.8031 17.4636C21.1231 18.5054 20.1655 19.8036 18.9767 19.8127C18.4881 19.8179 18.1675 19.67 17.8218 19.5105C17.4212 19.3257 16.9869 19.1253 16.2182 19.1297C15.4537 19.1335 15.0125 19.3314 14.6063 19.5135C14.2518 19.6725 13.924 19.8195 13.4313 19.8148C12.2436 19.8046 11.3355 18.6331 10.6555 17.5913C8.75539 14.6798 8.55473 11.2615 9.72725 9.44345C10.5613 8.15235 11.8767 7.39736 13.1121 7.39736C13.7705 7.39736 14.3011 7.58762 14.8068 7.76893C15.267 7.93394 15.7066 8.09155 16.203 8.09155C16.6623 8.09155 17.04 7.94766 17.4519 7.79072C17.9461 7.60242 18.4896 7.39533 19.2828 7.39533ZM12.0904 26.9127H11.0547V23.9372C11.0547 23.5678 10.9844 23.2929 10.844 23.1126C10.7036 22.9293 10.4841 22.8377 10.1857 22.8377C9.78774 22.8377 9.49515 22.9671 9.30789 23.226C9.12356 23.482 9.03139 23.9095 9.03139 24.5087V26.9127H8V22.0873H8.80756L8.95239 22.7199H9.00506C9.13965 22.4901 9.33422 22.3127 9.58878 22.1876C9.84626 22.0625 10.1286 22 10.4358 22C11.1819 22 11.6764 22.2531 11.9193 22.7592H11.9895C12.1329 22.5207 12.3348 22.3345 12.5952 22.2007C12.8556 22.0669 13.154 22 13.4905 22C14.0698 22 14.4912 22.1454 14.7545 22.4363C15.0208 22.7272 15.1539 23.1707 15.1539 23.767V26.9127H14.1225V23.9372C14.1225 23.5678 14.0508 23.2929 13.9074 23.1126C13.767 22.9293 13.5476 22.8377 13.2491 22.8377C12.8483 22.8377 12.5542 22.9628 12.3669 23.2129C12.1826 23.4602 12.0904 23.8412 12.0904 24.356V26.9127ZM19.0153 26.9127L18.809 26.2408H18.7739C18.5398 26.5346 18.3043 26.7353 18.0673 26.8429C17.8303 26.9476 17.526 27 17.1544 27C16.6774 27 16.3044 26.872 16.0352 26.6161C15.7689 26.3601 15.6358 25.998 15.6358 25.5297C15.6358 25.0323 15.8216 24.6571 16.1932 24.404C16.5648 24.151 17.131 24.0128 17.8917 23.9895L18.73 23.9634V23.7059C18.73 23.3976 18.6568 23.1678 18.5105 23.0166C18.3672 22.8624 18.1433 22.7853 17.839 22.7853C17.5903 22.7853 17.3519 22.8217 17.1236 22.8944C16.8954 22.9671 16.676 23.0529 16.4653 23.1518L16.1318 22.4188C16.3951 22.2821 16.6833 22.1789 16.9964 22.1091C17.3094 22.0364 17.605 22 17.8829 22C18.5003 22 18.9655 22.1338 19.2786 22.4014C19.5946 22.669 19.7526 23.0893 19.7526 23.6623V26.9127H19.0153ZM17.4791 26.2147C17.8537 26.2147 18.1536 26.1114 18.3789 25.9049C18.6071 25.6955 18.7212 25.4031 18.7212 25.0279V24.6091L18.098 24.6353C17.6123 24.6527 17.2582 24.7341 17.0359 24.8796C16.8164 25.0221 16.7067 25.2417 16.7067 25.5384C16.7067 25.7536 16.7711 25.9209 16.8998 26.0401C17.0285 26.1565 17.2217 26.2147 17.4791 26.2147ZM20.8576 26.363C21.2409 26.7877 21.7997 27 22.5341 27C22.8326 27 23.0856 26.9767 23.2934 26.9302C23.5041 26.8837 23.7016 26.8066 23.8859 26.699V25.8045C23.4763 26.0314 23.0418 26.1449 22.5824 26.1449C22.1786 26.1449 21.8714 26.0096 21.6607 25.7391C21.453 25.4657 21.3491 25.0585 21.3491 24.5175C21.3491 23.4093 21.769 22.8551 22.6087 22.8551C22.8925 22.8551 23.2524 22.9395 23.6884 23.1082L24 22.2836C23.5904 22.0945 23.1295 22 22.6175 22C21.8626 22 21.2847 22.2181 20.8839 22.6544C20.486 23.0907 20.287 23.7147 20.287 24.5262C20.287 25.3232 20.4772 25.9354 20.8576 26.363Z" fill="#657077"/>
</svg>
