<svg width="33" height="32" viewBox="0 0 33 32" fill="none" xmlns="http://www.w3.org/2000/svg">
<path d="M24.5 16.9404C24.0624 17.929 23.8532 18.371 23.2912 19.2446C22.5061 20.4647 21.3976 21.9872 20.0271 21.9976C18.8081 22.0081 18.4934 21.186 16.839 21.1994C15.1847 21.2076 14.84 22.0125 13.6195 21.9999C12.2491 21.9872 11.1998 20.6155 10.4139 19.3977C8.21663 15.9817 7.98468 11.978 9.34272 9.84774C10.3034 8.33722 11.8239 7.45017 13.2515 7.45017C14.7054 7.45017 15.6193 8.26554 16.8215 8.26554C17.9878 8.26554 18.6983 7.44793 20.3798 7.44793C21.6515 7.44793 22.9963 8.15503 23.9571 9.3751C20.8137 11.1328 21.3244 15.7144 24.5 16.9404ZM19.1037 6.08451C19.7154 5.28333 20.1793 4.15286 20.011 3C19.0129 3.06944 17.8459 3.71979 17.1639 4.56204C16.5464 5.32887 16.0342 6.4683 16.2339 7.57039C17.3227 7.60623 18.4495 6.94393 19.1037 6.08451Z" fill="#CDCFD1"/>
<path d="M2.50002 28.9034H3.59794V26.2917C3.59794 25.7766 3.96832 25.4024 4.49745 25.4024C5.00892 25.4024 5.32641 25.6961 5.32641 26.171V28.9033H6.39346V26.2675C6.39346 25.7564 6.75502 25.4023 7.28414 25.4023C7.82207 25.4023 8.12191 25.7001 8.12191 26.2232V28.9033H9.21983V25.9778C9.21983 25.1247 8.61575 24.5573 7.69417 24.5573C7.01954 24.5573 6.46402 24.8873 6.23905 25.4145H6.2126C6.04064 24.8672 5.56884 24.5573 4.90749 24.5573C4.27255 24.5573 3.77871 24.8833 3.57587 25.3783H3.55382V24.6378H2.5L2.50002 28.9034ZM11.6231 28.2152C11.1469 28.2152 10.8294 27.9939 10.8294 27.6438C10.8294 27.3058 11.1337 27.0885 11.6628 27.0563L12.743 26.9959V27.3219C12.743 27.837 12.2448 28.2152 11.6231 28.2152ZM11.2924 28.9718C11.892 28.9718 12.4785 28.6861 12.7475 28.2233H12.7695V28.9034H13.8278V25.9657C13.8278 25.1086 13.0738 24.5493 11.9142 24.5493C10.7236 24.5493 9.97851 25.1207 9.92997 25.9174H10.9485C11.0191 25.5633 11.3498 25.3339 11.8701 25.3339C12.4124 25.3339 12.7431 25.5915 12.7431 26.0381V26.344L11.5085 26.4084C10.3709 26.4728 9.73152 26.9275 9.73152 27.684C9.73152 28.4526 10.3885 28.9718 11.2924 28.9718ZM18.6473 26.1589C18.5724 25.2615 17.8095 24.5493 16.575 24.5493C15.2169 24.5493 14.335 25.4064 14.335 26.7705C14.335 28.1549 15.2169 28.9877 16.5838 28.9877C17.7567 28.9877 18.5636 28.36 18.6517 27.4062H17.6155C17.5141 27.8891 17.1525 28.1789 16.597 28.1789C15.9003 28.1789 15.4506 27.6638 15.4506 26.7704C15.4506 25.8932 15.8959 25.362 16.5882 25.362C17.1746 25.362 17.5229 25.704 17.6111 26.1587L18.6473 26.1589ZM22.0383 23C20.182 23 19.0179 24.1549 19.0179 26.002C19.0179 27.8491 20.1819 29 22.0383 29C23.8902 29 25.0543 27.8491 25.0543 26.002C25.0543 24.1549 23.8903 23 22.0383 23ZM22.0383 23.8853C23.1715 23.8853 23.8946 24.7062 23.8946 26.002C23.8946 27.2937 23.1715 28.1147 22.0383 28.1147C20.9007 28.1147 20.182 27.2937 20.182 26.002C20.182 24.7062 20.9007 23.8853 22.0383 23.8853ZM25.5174 27.2696C25.5659 28.3401 26.5272 29 27.9911 29C29.5299 29 30.5 28.3078 30.5 27.2052C30.5 26.34 29.9532 25.8531 28.6613 25.5835L27.9294 25.4306C27.1489 25.2616 26.827 25.0363 26.827 24.6499C26.827 24.1671 27.3121 23.8451 28.0308 23.8451C28.7583 23.8451 29.2565 24.1711 29.3095 24.7143H30.3942C30.3677 23.6922 29.4418 23 28.0396 23C26.6551 23 25.6718 23.6962 25.6718 24.7264C25.6718 25.5553 26.2274 26.0704 27.4002 26.3159L28.2247 26.493C29.0272 26.666 29.3535 26.9075 29.3535 27.326C29.3535 27.8089 28.82 28.1549 28.0528 28.1549C27.2768 28.1549 26.6904 27.8049 26.6198 27.2696H25.5174Z" fill="#CDCFD1"/>
</svg>
