<svg width="12" height="12" viewBox="0 0 12 12" fill="none" xmlns="http://www.w3.org/2000/svg">
<circle cx="6" cy="6" r="6" fill="white"/>
<path fill-rule="evenodd" clip-rule="evenodd" d="M6 12C9.31371 12 12 9.31371 12 6C12 2.68629 9.31371 0 6 0C2.68629 0 0 2.68629 0 6C0 9.31371 2.68629 12 6 12ZM5.0625 8.99997C5.0625 9.51678 5.48319 9.93747 6 9.93747C6.51681 9.93747 6.9375 9.51678 6.9375 8.99997C6.9375 8.48316 6.51681 8.06247 6 8.06247C5.48319 8.06247 5.0625 8.48316 5.0625 8.99997ZM6 6.99999C6.51682 6.99999 6.9375 6.57934 6.9375 6.06253L6.9375 3.00002C6.9375 2.48321 6.51681 2.0625 6 2.0625C5.48319 2.0625 5.0625 2.48321 5.0625 3.00002L5.0625 6.06253C5.0625 6.57934 5.48319 6.99999 6 6.99999Z" fill="#3B72A7"/>
</svg>
