<svg width="100" height="100" viewBox="0 0 100 100" fill="none" xmlns="http://www.w3.org/2000/svg">
<path fill-rule="evenodd" clip-rule="evenodd" d="M69.0828 87.4179L65.5737 85.138C64.0624 84.1549 62.1528 84.0761 60.4866 84.7763C58.8256 85.4712 57.5218 86.8928 57.1392 88.67L56.2499 92.7891C55.9811 94.0332 54.8894 94.9269 53.6267 94.9266L38.3864 94.9287C37.1237 94.9285 36.0264 94.0396 35.7622 92.7901L34.8765 88.6759C34.4932 86.8985 33.194 85.4816 31.5275 84.7808C29.8662 84.0852 27.9567 84.1632 26.4406 85.1404L22.9324 87.4189C21.8665 88.1087 20.4744 87.9568 19.579 87.0523L8.79731 76.1613C7.90186 75.2568 7.7515 73.8505 8.43438 72.7738L10.69 69.23C11.6677 67.6986 11.7398 65.7749 11.046 64.0915C10.3574 62.4133 8.95472 61.101 7.18997 60.7085L3.11709 59.8138C1.8854 59.5417 1.00026 58.4386 1 57.1631L1.00209 41.7682C1.00183 40.4927 1.88136 39.3846 3.11812 39.1183L7.19582 38.22C8.95523 37.8335 10.3574 36.5217 11.0505 34.8386C11.7384 33.1607 11.6604 31.2318 10.6924 29.6999L8.43022 26.15C7.74691 25.073 7.8967 23.6669 8.79179 22.7627L19.5639 11.8813C20.459 10.9771 21.851 10.8258 22.9172 11.5161L26.4263 13.7959C27.9376 14.779 29.8523 14.8526 31.5134 14.1577C33.1744 13.4628 34.4834 12.0464 34.8608 10.2639L35.7501 6.14484C36.0189 4.90075 37.1106 4.00708 38.3785 4.00211L53.6188 4C54.8815 4.00026 55.9788 4.88915 56.2429 6.13857L57.1287 10.2528C57.512 12.0302 58.8112 13.4471 60.4777 14.1479C62.139 14.8435 64.0485 14.7655 65.5646 13.7883L69.0728 11.5098C70.1387 10.82 71.5308 10.9719 72.4262 11.8764L83.2027 22.7622C84.0981 23.6667 84.2433 25.0782 83.5656 26.1497L81.31 29.6934C80.3374 31.2197 80.2602 33.1486 80.954 34.832C81.6426 36.5101 83.0401 37.8277 84.81 38.2149L88.8829 39.1097C90.1146 39.3817 90.9997 40.4849 91 41.7604L90.9979 57.1553C90.9982 58.4308 90.1186 59.5389 88.8767 59.8104L84.799 60.7087C83.0396 61.0952 81.6374 62.407 80.9443 64.0901C80.2564 65.768 80.3292 67.7022 81.3024 69.2288L83.5594 72.7735C84.2428 73.8505 84.0929 75.2566 83.1979 76.1608L72.4206 87.0474C71.541 87.9568 70.1438 88.1134 69.0828 87.4179ZM57.9926 61.4523C64.2841 55.097 64.2867 44.0378 57.9926 37.6799C51.6986 31.322 40.8732 31.5775 34.5817 37.9328C28.2902 44.2882 27.8706 55.0944 34.1646 61.4523C40.4587 67.8102 51.7011 67.8077 57.9926 61.4523Z" fill="#E07751"/>
<path d="M88.5 67.8091V68.3091H89H91.3228C91.8615 68.3091 92.3872 68.3687 92.8848 68.4865L93.5 68.6323V68V63.3917C93.5 57.9395 88.939 53.5 83.3871 53.5H76.6129C71.061 53.5 66.5 57.9395 66.5 63.3917V68V68.6308L67.1141 68.4868C67.6183 68.3686 68.1391 68.3091 68.6772 68.3091H71H71.5V67.8091V64.1606C71.5 60.9629 73.8052 58.5002 77.0521 58.5002H82.8926C86.1455 58.5002 88.5 60.969 88.5 64.1606V67.8091Z" fill="#333333"/>
<path d="M88.5 67.8091V68.3091H89H91.3228C91.8615 68.3091 92.3872 68.3687 92.8848 68.4865L93.5 68.6323V68V63.3917C93.5 57.9395 88.939 53.5 83.3871 53.5H76.6129C71.061 53.5 66.5 57.9395 66.5 63.3917V68V68.6308L67.1141 68.4868C67.6183 68.3686 68.1391 68.3091 68.6772 68.3091H71H71.5V67.8091V64.1606C71.5 60.9629 73.8052 58.5002 77.0521 58.5002H82.8926C86.1455 58.5002 88.5 60.969 88.5 64.1606V67.8091Z" fill="white" fill-opacity="0.88"/>
<path d="M88.5 67.8091V68.3091H89H91.3228C91.8615 68.3091 92.3872 68.3687 92.8848 68.4865L93.5 68.6323V68V63.3917C93.5 57.9395 88.939 53.5 83.3871 53.5H76.6129C71.061 53.5 66.5 57.9395 66.5 63.3917V68V68.6308L67.1141 68.4868C67.6183 68.3686 68.1391 68.3091 68.6772 68.3091H71H71.5V67.8091V64.1606C71.5 60.9629 73.8052 58.5002 77.0521 58.5002H82.8926C86.1455 58.5002 88.5 60.969 88.5 64.1606V67.8091Z" stroke="#333333"/>
<path fill-rule="evenodd" clip-rule="evenodd" d="M68.773 67.5H91.227C95.2269 67.5 98.5 70.6779 98.5 74.5614V91.4386C98.5 95.3221 95.2269 98.5 91.227 98.5H68.773C64.7731 98.5 61.5 95.3221 61.5 91.4386V74.5561C61.5 70.6727 64.7731 67.5 68.773 67.5Z" fill="#ADADAD" stroke="#333333"/>
<path d="M82.9357 90.5H83.5472L83.4258 89.9007L82.0127 82.9256C82.9144 82.2862 83.5 81.2278 83.5 80.0337V80.0336V80.0336V80.0335V80.0334V80.0334V80.0333V80.0333V80.0332V80.0331V80.0331V80.033V80.033V80.0329V80.0328V80.0328V80.0327V80.0327V80.0326V80.0325V80.0325V80.0324V80.0324V80.0323V80.0323V80.0322V80.0321V80.0321V80.032V80.032V80.0319V80.0318V80.0318V80.0317V80.0317V80.0316V80.0316V80.0315V80.0314V80.0314V80.0313V80.0313V80.0312V80.0312V80.0311V80.031V80.031V80.0309V80.0309V80.0308V80.0308V80.0307V80.0306V80.0306V80.0305V80.0305V80.0304V80.0304V80.0303V80.0303V80.0302V80.0301V80.0301V80.03V80.03V80.0299V80.0299V80.0298V80.0298V80.0297V80.0296V80.0296V80.0295V80.0295V80.0294V80.0294V80.0293V80.0293V80.0292V80.0291V80.0291V80.029V80.029V80.0289V80.0289V80.0288V80.0288V80.0287V80.0287V80.0286V80.0285V80.0285V80.0284V80.0284V80.0283V80.0283V80.0282V80.0282V80.0281V80.0281V80.028V80.028V80.0279V80.0278V80.0278V80.0277V80.0277V80.0276V80.0276V80.0275V80.0275V80.0274V80.0274V80.0273V80.0273V80.0272V80.0271V80.0271V80.027V80.027V80.0269V80.0269V80.0268V80.0268V80.0267V80.0267V80.0266V80.0266V80.0265V80.0265V80.0264V80.0264V80.0263V80.0263V80.0262V80.0261V80.0261V80.026V80.026V80.0259V80.0259V80.0258V80.0258V80.0257V80.0257V80.0256V80.0256V80.0255V80.0255V80.0254V80.0254V80.0253V80.0253V80.0252V80.0252V80.0251V80.0251V80.025V80.025V80.0249V80.0248V80.0248V80.0247V80.0247V80.0246V80.0246V80.0245V80.0245V80.0244V80.0244V80.0243V80.0243V80.0242V80.0242V80.0241V80.0241V80.024V80.024V80.0239V80.0239V80.0238V80.0238V80.0237V80.0237V80.0236V80.0236V80.0235V80.0235V80.0234V80.0234V80.0233V80.0233V80.0232V80.0232V80.0231V80.0231V80.023V80.023V80.0229V80.0229V80.0228V80.0228V80.0227V80.0227V80.0226V80.0226V80.0225V80.0225V80.0224V80.0224V80.0223V80.0223V80.0222V80.0222V80.0221V80.0221V80.022V80.022V80.0219V80.0219V80.0218V80.0218V80.0217V80.0216V80.0216V80.0215V80.0215V80.0214V80.0214V80.0213V80.0213V80.0212V80.0212V80.0211V80.0211V80.021V80.021V80.0209V80.0209V80.0208V80.0208V80.0207V80.0207V80.0206V80.0206V80.0205V80.0205V80.0204V80.0204V80.0203V80.0203V80.0202V80.0202V80.0201V80.0201V80.02V80.02V80.0199V80.0199V80.0198V80.0198V80.0197V80.0197V80.0196V80.0196V80.0195V80.0195V80.0194V80.0194V80.0193V80.0193V80.0192V80.0192V80.0191V80.0191V80.019V80.019V80.0189V80.0189V80.0188V80.0188V80.0187V80.0187V80.0186V80.0186V80.0185V80.0185V80.0184V80.0184V80.0183V80.0183V80.0182V80.0182V80.0181V80.0181V80.018V80.018V80.0179V80.0179V80.0178V80.0178V80.0177V80.0177V80.0176V80.0176V80.0175V80.0175V80.0174V80.0174V80.0173V80.0173V80.0172V80.0172V80.0171V80.0171V80.017V80.017V80.0169V80.0169V80.0168V80.0168V80.0167V80.0167V80.0166V80.0166V80.0165V80.0165V80.0164V80.0164V80.0163V80.0163V80.0162V80.0162V80.0161V80.0161V80.016V80.016V80.0159V80.0159V80.0158V80.0158V80.0157V80.0157V80.0156V80.0156V80.0155V80.0154V80.0154V80.0153V80.0153V80.0152V80.0152V80.0151V80.0151V80.015V80.015V80.0149V80.0149V80.0148V80.0148V80.0147V80.0147V80.0146V80.0146V80.0145V80.0145V80.0144V80.0144V80.0143V80.0143V80.0142V80.0142V80.0141V80.0141V80.014V80.0139V80.0139V80.0138V80.0138V80.0137V80.0137V80.0136V80.0136V80.0135V80.0135V80.0134V80.0134V80.0133V80.0133V80.0132V80.0132V80.0131V80.0131V80.013V80.0129V80.0129V80.0128V80.0128V80.0127V80.0127V80.0126V80.0126V80.0125V80.0125V80.0124V80.0124V80.0123V80.0123V80.0122V80.0121V80.0121V80.012V80.012V80.0119V80.0119V80.0118V80.0118V80.0117V80.0117V80.0116V80.0116V80.0115V80.0114V80.0114V80.0113V80.0113V80.0112V80.0112V80.0111V80.0111V80.011V80.011V80.0109V80.0108V80.0108V80.0107V80.0107V80.0106V80.0106V80.0105V80.0105V80.0104V80.0103V80.0103V80.0102V80.0102V80.0101V80.0101V80.01V80.01V80.0099V80.0098V80.0098V80.0097V80.0097V80.0096V80.0096V80.0095V80.0095V80.0094V80.0093V80.0093V80.0092V80.0092V80.0091V80.0091V80.009V80.0089V80.0089V80.0088V80.0088V80.0087V80.0087V80.0086V80.0085V80.0085V80.0084V80.0084V80.0083V80.0083V80.0082V80.0081V80.0081V80.008V80.008V80.0079V80.0079V80.0078V80.0077V80.0077V80.0076V80.0076V80.0075V80.0074V80.0074V80.0073V80.0073V80.0072V80.0071V80.0071V80.007V80.007V80.0069V80.0069V80.0068V80.0067V80.0067V80.0066V80.0066V80.0065V80.0064V80.0064V80.0063H83.5L83.5 80.0022C83.4843 78.0705 81.9267 76.5 80 76.5C78.0733 76.5 76.5157 78.0705 76.5 80.0022L76.5 80.0022V80.0063V80.0064V80.0064V80.0065V80.0066V80.0066V80.0067V80.0067V80.0068V80.0069V80.0069V80.007V80.007V80.0071V80.0071V80.0072V80.0073V80.0073V80.0074V80.0074V80.0075V80.0076V80.0076V80.0077V80.0077V80.0078V80.0079V80.0079V80.008V80.008V80.0081V80.0081V80.0082V80.0083V80.0083V80.0084V80.0084V80.0085V80.0085V80.0086V80.0087V80.0087V80.0088V80.0088V80.0089V80.0089V80.009V80.0091V80.0091V80.0092V80.0092V80.0093V80.0093V80.0094V80.0095V80.0095V80.0096V80.0096V80.0097V80.0097V80.0098V80.0098V80.0099V80.01V80.01V80.0101V80.0101V80.0102V80.0102V80.0103V80.0103V80.0104V80.0105V80.0105V80.0106V80.0106V80.0107V80.0107V80.0108V80.0108V80.0109V80.011V80.011V80.0111V80.0111V80.0112V80.0112V80.0113V80.0113V80.0114V80.0114V80.0115V80.0116V80.0116V80.0117V80.0117V80.0118V80.0118V80.0119V80.0119V80.012V80.012V80.0121V80.0121V80.0122V80.0123V80.0123V80.0124V80.0124V80.0125V80.0125V80.0126V80.0126V80.0127V80.0127V80.0128V80.0128V80.0129V80.0129V80.013V80.0131V80.0131V80.0132V80.0132V80.0133V80.0133V80.0134V80.0134V80.0135V80.0135V80.0136V80.0136V80.0137V80.0137V80.0138V80.0138V80.0139V80.0139V80.014V80.0141V80.0141V80.0142V80.0142V80.0143V80.0143V80.0144V80.0144V80.0145V80.0145V80.0146V80.0146V80.0147V80.0147V80.0148V80.0148V80.0149V80.0149V80.015V80.015V80.0151V80.0151V80.0152V80.0152V80.0153V80.0153V80.0154V80.0154V80.0155V80.0156V80.0156V80.0157V80.0157V80.0158V80.0158V80.0159V80.0159V80.016V80.016V80.0161V80.0161V80.0162V80.0162V80.0163V80.0163V80.0164V80.0164V80.0165V80.0165V80.0166V80.0166V80.0167V80.0167V80.0168V80.0168V80.0169V80.0169V80.017V80.017V80.0171V80.0171V80.0172V80.0172V80.0173V80.0173V80.0174V80.0174V80.0175V80.0175V80.0176V80.0176V80.0177V80.0177V80.0178V80.0178V80.0179V80.0179V80.018V80.018V80.0181V80.0181V80.0182V80.0182V80.0183V80.0183V80.0184V80.0184V80.0185V80.0185V80.0186V80.0186V80.0187V80.0187V80.0188V80.0188V80.0189V80.0189V80.019V80.019V80.0191V80.0191V80.0192V80.0192V80.0193V80.0193V80.0194V80.0194V80.0195V80.0195V80.0196V80.0196V80.0197V80.0197V80.0198V80.0198V80.0199V80.0199V80.02V80.02V80.0201V80.0201V80.0202V80.0202V80.0203V80.0203V80.0204V80.0204V80.0205V80.0205V80.0206V80.0206V80.0207V80.0207V80.0208V80.0208V80.0209V80.0209V80.021V80.021V80.0211V80.0211V80.0212V80.0212V80.0213V80.0213V80.0214V80.0214V80.0215V80.0215V80.0216V80.0216V80.0217V80.0218V80.0218V80.0219V80.0219V80.022V80.022V80.0221V80.0221V80.0222V80.0222V80.0223V80.0223V80.0224V80.0224V80.0225V80.0225V80.0226V80.0226V80.0227V80.0227V80.0228V80.0228V80.0229V80.0229V80.023V80.023V80.0231V80.0231V80.0232V80.0232V80.0233V80.0233V80.0234V80.0234V80.0235V80.0235V80.0236V80.0236V80.0237V80.0237V80.0238V80.0238V80.0239V80.0239V80.024V80.024V80.0241V80.0241V80.0242V80.0242V80.0243V80.0243V80.0244V80.0244V80.0245V80.0245V80.0246V80.0246V80.0247V80.0247V80.0248V80.0248V80.0249V80.025V80.025V80.0251V80.0251V80.0252V80.0252V80.0253V80.0253V80.0254V80.0254V80.0255V80.0255V80.0256V80.0256V80.0257V80.0257V80.0258V80.0258V80.0259V80.0259V80.026V80.026V80.0261V80.0261V80.0262V80.0263V80.0263V80.0264V80.0264V80.0265V80.0265V80.0266V80.0266V80.0267V80.0267V80.0268V80.0268V80.0269V80.0269V80.027V80.027V80.0271V80.0271V80.0272V80.0273V80.0273V80.0274V80.0274V80.0275V80.0275V80.0276V80.0276V80.0277V80.0277V80.0278V80.0278V80.0279V80.028V80.028V80.0281V80.0281V80.0282V80.0282V80.0283V80.0283V80.0284V80.0284V80.0285V80.0285V80.0286V80.0287V80.0287V80.0288V80.0288V80.0289V80.0289V80.029V80.029V80.0291V80.0291V80.0292V80.0293V80.0293V80.0294V80.0294V80.0295V80.0295V80.0296V80.0296V80.0297V80.0298V80.0298V80.0299V80.0299V80.03V80.03V80.0301V80.0301V80.0302V80.0303V80.0303V80.0304V80.0304V80.0305V80.0305V80.0306V80.0306V80.0307V80.0308V80.0308V80.0309V80.0309V80.031V80.031V80.0311V80.0312V80.0312V80.0313V80.0313V80.0314V80.0314V80.0315V80.0316V80.0316V80.0317V80.0317V80.0318V80.0318V80.0319V80.032V80.032V80.0321V80.0321V80.0322V80.0323V80.0323V80.0324V80.0324V80.0325V80.0325V80.0326V80.0327V80.0327V80.0328V80.0328V80.0329V80.033V80.033V80.0331V80.0331V80.0332V80.0333V80.0333V80.0334V80.0334V80.0335V80.0336V80.0336V80.0337C76.5 81.2283 77.0887 82.2861 77.9874 82.925L76.5742 89.9007L76.4528 90.5H77.0643H79.9966H82.9357Z" fill="#333333" stroke="#333333"/>
</svg>
