<svg width="100" height="100" viewBox="0 0 100 100" fill="none" xmlns="http://www.w3.org/2000/svg">
<path fill-rule="evenodd" clip-rule="evenodd" d="M69.0828 87.4833L65.5737 85.2016C64.0624 84.2178 62.1528 84.1389 60.4866 84.8396C58.8256 85.535 57.5218 86.9578 57.1392 88.7364L56.2499 92.8587C55.9811 94.1038 54.8894 94.9981 53.6267 94.9979L38.3864 95C37.1237 94.9997 36.0264 94.1101 35.7622 92.8597L34.8765 88.7423C34.4932 86.9635 33.194 85.5455 31.5275 84.8441C29.8662 84.148 27.9567 84.2261 26.4406 85.2041L22.9324 87.4843C21.8665 88.1747 20.4744 88.0227 19.579 87.1174L8.79731 76.2179C7.90186 75.3126 7.7515 73.9053 8.43438 72.8277L10.69 69.2812C11.6677 67.7485 11.7398 65.8233 11.046 64.1386C10.3574 62.4591 8.95472 61.1457 7.18997 60.753L3.11709 59.8576C1.8854 59.5853 1.00026 58.4812 1 57.2047L1.00209 41.7978C1.00183 40.5213 1.88136 39.4124 3.11812 39.1458L7.19582 38.2468C8.95523 37.86 10.3574 36.5472 11.0505 34.8628C11.7384 33.1836 11.6604 31.2531 10.6924 29.7201L8.43022 26.1674C7.74691 25.0895 7.8967 23.6823 8.79179 22.7774L19.5639 11.8875C20.459 10.9826 21.851 10.8312 22.9172 11.5219L26.4263 13.8036C27.9376 14.7875 29.8523 14.8611 31.5134 14.1656C33.1744 13.4702 34.4834 12.0527 34.8608 10.2688L35.7501 6.14652C36.0189 4.90146 37.1106 4.00709 38.3785 4.00211L53.6188 4C54.8815 4.00026 55.9788 4.88985 56.2429 6.14025L57.1287 10.2577C57.512 12.0365 58.8112 13.4545 60.4777 14.1559C62.139 14.852 64.0485 14.7739 65.5646 13.7959L69.0728 11.5157C70.1387 10.8253 71.5308 10.9773 72.4262 11.8826L83.2027 22.7769C84.0981 23.6822 84.2433 25.0947 83.5656 26.167L81.31 29.7136C80.3374 31.241 80.2602 33.1714 80.954 34.8561C81.6426 36.5356 83.0401 37.8543 84.81 38.2418L88.8829 39.1372C90.1146 39.4095 90.9997 40.5135 91 41.79L90.9979 57.197C90.9982 58.4735 90.1186 59.5824 88.8767 59.8542L84.799 60.7532C83.0396 61.14 81.6374 62.4528 80.9443 64.1372C80.2564 65.8164 80.3292 67.7521 81.3024 69.2799L83.5594 72.8274C84.2428 73.9052 84.0929 75.3125 83.1979 76.2174L72.4206 87.1125C71.541 88.0226 70.1438 88.1793 69.0828 87.4833ZM57.4079 61.0353C63.6994 54.675 63.6974 44.327 57.4033 37.9641C51.1093 31.6012 40.8732 31.5991 34.5817 37.9594C28.2902 44.3197 28.2923 54.6678 34.5863 61.0307C40.8804 67.3935 51.1165 67.3956 57.4079 61.0353Z" fill="url(#paint0_linear_27512_5446)"/>
<path d="M57.7343 61.4386C64.2471 54.9269 64.2448 44.3338 57.7297 37.8199C51.2146 31.3059 40.6199 31.3036 34.1071 37.8152C27.5943 44.3269 27.5966 54.92 34.1117 61.434C40.6268 67.9479 51.2216 67.9503 57.7343 61.4386Z" stroke="#333333" stroke-linecap="round" stroke-linejoin="round"/>
<path d="M88.7083 67.8091V68.3091H89.2083H91.3228C91.8615 68.3091 92.3872 68.3687 92.8848 68.4865L93.5 68.6323V68V63.3917C93.5 57.9395 88.939 53.5 83.3871 53.5H76.6129C71.061 53.5 66.5 57.9395 66.5 63.3917V68V68.6308L67.1141 68.4868C67.6183 68.3686 68.1391 68.3091 68.6772 68.3091H70.7917H71.2917V67.8091V64.1606C71.2917 60.9471 73.8203 58.1296 77.0521 58.1296H82.8926C86.1301 58.1296 88.7083 60.953 88.7083 64.1606V67.8091Z" fill="#EFEFEF" stroke="#333333"/>
<path fill-rule="evenodd" clip-rule="evenodd" d="M68.7617 67.4077H91.2382C95.2421 67.4077 98.5185 70.597 98.5185 74.4944V91.4322C98.5185 95.3296 95.2421 98.5188 91.2382 98.5188H68.7617C64.7578 98.5188 61.4814 95.3296 61.4814 91.4322V74.4892C61.4814 70.5917 64.7578 67.4077 68.7617 67.4077Z" fill="#BDECFF" stroke="#333333"/>
<path d="M82.8996 90.1297H83.5065L83.3903 89.534L81.9915 82.3636C82.8875 81.7075 83.463 80.6232 83.463 79.4078V79.4078V79.4077V79.4077V79.4076V79.4075V79.4075V79.4074V79.4074V79.4073V79.4072V79.4072V79.4071V79.4071V79.407V79.4069V79.4069V79.4068V79.4068V79.4067V79.4066V79.4066V79.4065V79.4065V79.4064V79.4063V79.4063V79.4062V79.4062V79.4061V79.406V79.406V79.4059V79.4059V79.4058V79.4057V79.4057V79.4056V79.4056V79.4055V79.4054V79.4054V79.4053V79.4053V79.4052V79.4052V79.4051V79.405V79.405V79.4049V79.4049V79.4048V79.4047V79.4047V79.4046V79.4046V79.4045V79.4045V79.4044V79.4043V79.4043V79.4042V79.4042V79.4041V79.4041V79.404V79.4039V79.4039V79.4038V79.4038V79.4037V79.4037V79.4036V79.4035V79.4035V79.4034V79.4034V79.4033V79.4033V79.4032V79.4031V79.4031V79.403V79.403V79.4029V79.4029V79.4028V79.4028V79.4027V79.4026V79.4026V79.4025V79.4025V79.4024V79.4024V79.4023V79.4023V79.4022V79.4021V79.4021V79.402V79.402V79.4019V79.4019V79.4018V79.4018V79.4017V79.4016V79.4016V79.4015V79.4015V79.4014V79.4014V79.4013V79.4013V79.4012V79.4012V79.4011V79.401V79.401V79.4009V79.4009V79.4008V79.4008V79.4007V79.4007V79.4006V79.4006V79.4005V79.4005V79.4004V79.4003V79.4003V79.4002V79.4002V79.4001V79.4001V79.4V79.4V79.3999V79.3999V79.3998V79.3998V79.3997V79.3996V79.3996V79.3995V79.3995V79.3994V79.3994V79.3993V79.3993V79.3992V79.3992V79.3991V79.3991V79.399V79.399V79.3989V79.3988V79.3988V79.3987V79.3987V79.3986V79.3986V79.3985V79.3985V79.3984V79.3984V79.3983V79.3983V79.3982V79.3982V79.3981V79.3981V79.398V79.398V79.3979V79.3979V79.3978V79.3977V79.3977V79.3976V79.3976V79.3975V79.3975V79.3974V79.3974V79.3973V79.3973V79.3972V79.3972V79.3971V79.3971V79.397V79.397V79.3969V79.3969V79.3968V79.3968V79.3967V79.3967V79.3966V79.3965V79.3965V79.3964V79.3964V79.3963V79.3963V79.3962V79.3962V79.3961V79.3961V79.396V79.396V79.3959V79.3959V79.3958V79.3958V79.3957V79.3957V79.3956V79.3956V79.3955V79.3955V79.3954V79.3954V79.3953V79.3953V79.3952V79.3952V79.3951V79.3951V79.395V79.3949V79.3949V79.3948V79.3948V79.3947V79.3947V79.3946V79.3946V79.3945V79.3945V79.3944V79.3944V79.3943V79.3943V79.3942V79.3942V79.3941V79.3941V79.394V79.394V79.3939V79.3939V79.3938V79.3938V79.3937V79.3937V79.3936V79.3936V79.3935V79.3935V79.3934V79.3934V79.3933V79.3933V79.3932V79.3931V79.3931V79.393V79.393V79.3929V79.3929V79.3928V79.3928V79.3927V79.3927V79.3926V79.3926V79.3925V79.3925V79.3924V79.3924V79.3923V79.3923V79.3922V79.3922V79.3921V79.3921V79.392V79.392V79.3919V79.3919V79.3918V79.3918V79.3917V79.3917V79.3916V79.3916V79.3915V79.3914V79.3914V79.3913V79.3913V79.3912V79.3912V79.3911V79.3911V79.391V79.391V79.3909V79.3909V79.3908V79.3908V79.3907V79.3907V79.3906V79.3906V79.3905V79.3905V79.3904V79.3904V79.3903V79.3903V79.3902V79.3902V79.3901V79.39V79.39V79.3899V79.3899V79.3898V79.3898V79.3897V79.3897V79.3896V79.3896V79.3895V79.3895V79.3894V79.3894V79.3893V79.3893V79.3892V79.3892V79.3891V79.389V79.389V79.3889V79.3889V79.3888V79.3888V79.3887V79.3887V79.3886V79.3886V79.3885V79.3885V79.3884V79.3884V79.3883V79.3883V79.3882V79.3881V79.3881V79.388V79.388V79.3879V79.3879V79.3878V79.3878V79.3877V79.3877V79.3876V79.3876V79.3875V79.3875V79.3874V79.3873V79.3873V79.3872V79.3872V79.3871V79.3871V79.387V79.387V79.3869V79.3869V79.3868V79.3868V79.3867V79.3866V79.3866V79.3865V79.3865V79.3864V79.3864V79.3863V79.3863V79.3862V79.3862V79.3861V79.386V79.386V79.3859V79.3859V79.3858V79.3858V79.3857V79.3857V79.3856V79.3855V79.3855V79.3854V79.3854V79.3853V79.3853V79.3852V79.3852V79.3851V79.385V79.385V79.3849V79.3849V79.3848V79.3848V79.3847V79.3847V79.3846V79.3845V79.3845V79.3844V79.3844V79.3843V79.3843V79.3842V79.3842V79.3841V79.384V79.384V79.3839V79.3839V79.3838V79.3838V79.3837V79.3836V79.3836V79.3835V79.3835V79.3834V79.3834V79.3833V79.3832V79.3832V79.3831V79.3831V79.383V79.3829V79.3829V79.3828V79.3828V79.3827V79.3827V79.3826V79.3825V79.3825V79.3824V79.3824V79.3823V79.3823V79.3822V79.3821V79.3821V79.382V79.382V79.3819V79.3818V79.3818V79.3817V79.3817V79.3816V79.3815V79.3815V79.3814V79.3814V79.3813V79.3812V79.3812V79.3811V79.3811V79.381V79.3809V79.3809V79.3808V79.3808V79.3807V79.3806V79.3806V79.3805V79.3805V79.3804V79.3803V79.3803V79.3802V79.3802V79.3801V79.38V79.38V79.3799V79.3798V79.3798H83.4631L83.463 79.3759C83.4477 77.4193 81.9238 75.7964 80.0001 75.7964C78.0764 75.7964 76.5525 77.4193 76.5371 79.3759L76.5371 79.3759V79.3798V79.3798V79.3799V79.38V79.38V79.3801V79.3802V79.3802V79.3803V79.3803V79.3804V79.3805V79.3805V79.3806V79.3806V79.3807V79.3808V79.3808V79.3809V79.3809V79.381V79.3811V79.3811V79.3812V79.3812V79.3813V79.3814V79.3814V79.3815V79.3815V79.3816V79.3817V79.3817V79.3818V79.3818V79.3819V79.382V79.382V79.3821V79.3821V79.3822V79.3823V79.3823V79.3824V79.3824V79.3825V79.3825V79.3826V79.3827V79.3827V79.3828V79.3828V79.3829V79.3829V79.383V79.3831V79.3831V79.3832V79.3832V79.3833V79.3834V79.3834V79.3835V79.3835V79.3836V79.3836V79.3837V79.3838V79.3838V79.3839V79.3839V79.384V79.384V79.3841V79.3842V79.3842V79.3843V79.3843V79.3844V79.3844V79.3845V79.3845V79.3846V79.3847V79.3847V79.3848V79.3848V79.3849V79.3849V79.385V79.385V79.3851V79.3852V79.3852V79.3853V79.3853V79.3854V79.3854V79.3855V79.3855V79.3856V79.3857V79.3857V79.3858V79.3858V79.3859V79.3859V79.386V79.386V79.3861V79.3862V79.3862V79.3863V79.3863V79.3864V79.3864V79.3865V79.3865V79.3866V79.3866V79.3867V79.3868V79.3868V79.3869V79.3869V79.387V79.387V79.3871V79.3871V79.3872V79.3872V79.3873V79.3873V79.3874V79.3875V79.3875V79.3876V79.3876V79.3877V79.3877V79.3878V79.3878V79.3879V79.3879V79.388V79.388V79.3881V79.3881V79.3882V79.3883V79.3883V79.3884V79.3884V79.3885V79.3885V79.3886V79.3886V79.3887V79.3887V79.3888V79.3888V79.3889V79.3889V79.389V79.389V79.3891V79.3892V79.3892V79.3893V79.3893V79.3894V79.3894V79.3895V79.3895V79.3896V79.3896V79.3897V79.3897V79.3898V79.3898V79.3899V79.3899V79.39V79.39V79.3901V79.3902V79.3902V79.3903V79.3903V79.3904V79.3904V79.3905V79.3905V79.3906V79.3906V79.3907V79.3907V79.3908V79.3908V79.3909V79.3909V79.391V79.391V79.3911V79.3911V79.3912V79.3912V79.3913V79.3913V79.3914V79.3914V79.3915V79.3916V79.3916V79.3917V79.3917V79.3918V79.3918V79.3919V79.3919V79.392V79.392V79.3921V79.3921V79.3922V79.3922V79.3923V79.3923V79.3924V79.3924V79.3925V79.3925V79.3926V79.3926V79.3927V79.3927V79.3928V79.3928V79.3929V79.3929V79.393V79.393V79.3931V79.3931V79.3932V79.3933V79.3933V79.3934V79.3934V79.3935V79.3935V79.3936V79.3936V79.3937V79.3937V79.3938V79.3938V79.3939V79.3939V79.394V79.394V79.3941V79.3941V79.3942V79.3942V79.3943V79.3943V79.3944V79.3944V79.3945V79.3945V79.3946V79.3946V79.3947V79.3947V79.3948V79.3948V79.3949V79.3949V79.395V79.3951V79.3951V79.3952V79.3952V79.3953V79.3953V79.3954V79.3954V79.3955V79.3955V79.3956V79.3956V79.3957V79.3957V79.3958V79.3958V79.3959V79.3959V79.396V79.396V79.3961V79.3961V79.3962V79.3962V79.3963V79.3963V79.3964V79.3964V79.3965V79.3965V79.3966V79.3967V79.3967V79.3968V79.3968V79.3969V79.3969V79.397V79.397V79.3971V79.3971V79.3972V79.3972V79.3973V79.3973V79.3974V79.3974V79.3975V79.3975V79.3976V79.3976V79.3977V79.3977V79.3978V79.3979V79.3979V79.398V79.398V79.3981V79.3981V79.3982V79.3982V79.3983V79.3983V79.3984V79.3984V79.3985V79.3985V79.3986V79.3986V79.3987V79.3987V79.3988V79.3988V79.3989V79.399V79.399V79.3991V79.3991V79.3992V79.3992V79.3993V79.3993V79.3994V79.3994V79.3995V79.3995V79.3996V79.3996V79.3997V79.3998V79.3998V79.3999V79.3999V79.4V79.4V79.4001V79.4001V79.4002V79.4002V79.4003V79.4003V79.4004V79.4005V79.4005V79.4006V79.4006V79.4007V79.4007V79.4008V79.4008V79.4009V79.4009V79.401V79.401V79.4011V79.4012V79.4012V79.4013V79.4013V79.4014V79.4014V79.4015V79.4015V79.4016V79.4016V79.4017V79.4018V79.4018V79.4019V79.4019V79.402V79.402V79.4021V79.4021V79.4022V79.4023V79.4023V79.4024V79.4024V79.4025V79.4025V79.4026V79.4026V79.4027V79.4028V79.4028V79.4029V79.4029V79.403V79.403V79.4031V79.4031V79.4032V79.4033V79.4033V79.4034V79.4034V79.4035V79.4035V79.4036V79.4037V79.4037V79.4038V79.4038V79.4039V79.4039V79.404V79.4041V79.4041V79.4042V79.4042V79.4043V79.4043V79.4044V79.4045V79.4045V79.4046V79.4046V79.4047V79.4047V79.4048V79.4049V79.4049V79.405V79.405V79.4051V79.4052V79.4052V79.4053V79.4053V79.4054V79.4054V79.4055V79.4056V79.4056V79.4057V79.4057V79.4058V79.4059V79.4059V79.406V79.406V79.4061V79.4062V79.4062V79.4063V79.4063V79.4064V79.4065V79.4065V79.4066V79.4066V79.4067V79.4068V79.4068V79.4069V79.4069V79.407V79.4071V79.4071V79.4072V79.4072V79.4073V79.4074V79.4074V79.4075V79.4075V79.4076V79.4077V79.4077V79.4078V79.4078C76.5371 80.6238 77.1157 81.7074 78.0088 82.363L76.6098 89.534L76.4936 90.1297H77.1006H79.9967H82.8996Z" fill="white" stroke="#333333"/>
<defs>
<linearGradient id="paint0_linear_27512_5446" x1="-0.690846" y1="-2.48276" x2="53.6755" y2="56.7662" gradientUnits="userSpaceOnUse">
<stop stop-color="#FFC671"/>
<stop offset="1" stop-color="#FF6F3D"/>
</linearGradient>
</defs>
</svg>
