<svg width="16" height="16" viewBox="0 0 16 16" fill="none" xmlns="http://www.w3.org/2000/svg">
<path fill-rule="evenodd" clip-rule="evenodd" d="M7.00331 14C3.13704 14.0008 0.00248369 10.8687 1.63867e-07 7.00248C-0.000827171 3.13622 3.13125 0.0016573 6.99834 6.56004e-07C10.8596 -0.00165357 13.9925 3.12546 14 6.98676C14.0025 8.47474 13.5406 9.85499 12.751 10.9905C12.7616 11.0005 12.7722 11.0106 12.7826 11.021L15.6358 13.8743C16.1223 14.3607 16.1223 15.1494 15.6358 15.6359C15.1494 16.1224 14.3606 16.1224 13.8742 15.6359L11.021 12.7827C11.0105 12.7722 11.0003 12.7616 10.9902 12.7509C9.86056 13.5362 8.48841 13.9975 7.00827 14H7.00331ZM7.00226 12.2C4.13018 12.2006 1.80165 9.87393 1.79981 7.00185C1.79919 4.12976 4.12588 1.80123 6.99857 1.8C9.86696 1.79877 12.1943 4.12177 12.1998 6.99016C12.2047 9.86286 9.87926 12.1951 7.00595 12.2H7.00226Z" fill="#657077"/>
<rect x="4" y="6" width="6" height="2" rx="0.5" fill="#657077"/>
<rect x="6" y="10" width="6" height="2" rx="0.5" transform="rotate(-90 6 10)" fill="#657077"/>
</svg>
