<svg width="16" height="16" viewBox="0 0 16 16" fill="none" xmlns="http://www.w3.org/2000/svg">
<path fill-rule="evenodd" clip-rule="evenodd" d="M13 3H10V1H13C14.1046 1 15 1.89543 15 3V6H13V3Z" fill="#657077"/>
<path fill-rule="evenodd" clip-rule="evenodd" d="M3 3H6V1H3C1.89543 1 1 1.89543 1 3V6H3V3Z" fill="#657077"/>
<path fill-rule="evenodd" clip-rule="evenodd" d="M3 13H6V15H3C1.89543 15 1 14.1046 1 13V10H3V13Z" fill="#657077"/>
<path fill-rule="evenodd" clip-rule="evenodd" d="M12.9971 13H10V15H12.9971C14.1017 15 14.9971 14.1046 14.9971 13V10H12.9971V13Z" fill="#657077"/>
<rect x="5" y="5" width="6" height="6" rx="1" fill="#657077"/>
</svg>
