<svg width="16" height="16" viewBox="0 0 16 16" fill="none" xmlns="http://www.w3.org/2000/svg">
<g clip-path="url(#clip0_14531:193499)">
<path fill-rule="evenodd" clip-rule="evenodd" d="M7.49963 0H8.49963C9.32806 0 9.99963 0.671573 9.99963 1.5V2H10.0007H13.0007C14.1055 2 15.0007 2.89593 15.0007 4.00022H13.0007V4H10.0007H8.49963H7.49963H6.00067H3.00067V4.00022H1.00067C1.00067 2.89593 1.89582 2 3.00067 2H5.99963V1.5C5.99963 0.671573 6.67121 0 7.49963 0ZM3.00067 5.00023V13.0002C3.00067 14.6571 4.34382 16.0002 6.00067 16.0002H10.0007C11.6575 16.0002 13.0007 14.6571 13.0007 13.0002V5.00023H11.0007V13.0002C11.0007 13.5525 10.553 14.0002 10.0007 14.0002H6.00067C5.44839 14.0002 5.00067 13.5525 5.00067 13.0002V5.00023H3.00067ZM7.00067 6V14H9.00067V6H7.00067Z" fill="#657077"/>
</g>
<defs>
<clipPath id="clip0_14531:193499">
<rect width="16" height="16" fill="white"/>
</clipPath>
</defs>
</svg>
