<svg width="16" height="16" viewBox="0 0 16 16" fill="none" xmlns="http://www.w3.org/2000/svg">
<g clip-path="url(#clip0_14531:193615)">
<path fill-rule="evenodd" clip-rule="evenodd" d="M13.4851 5.24297C15.505 6.46199 15.505 9.53801 13.4851 10.757L5.49871 15.5769C3.49434 16.7866 1.00043 15.258 1.00043 12.8199L1.00043 11.1754L3.00482 11.1754L3.00482 12.8199C3.00482 13.6326 3.83613 14.1421 4.50425 13.7389L12.4906 8.91901C13.1639 8.51267 13.1639 7.48733 12.4906 7.08099L4.50425 2.26109C3.83613 1.85787 3.00482 2.36739 3.00482 3.1801L3.00482 11.1754L1.00043 11.1754L1.00043 3.1801C1.00043 0.741951 3.49434 -0.786589 5.49871 0.423074L13.4851 5.24297Z" fill="#657077"/>
</g>
<defs>
<clipPath id="clip0_14531:193615">
<rect width="16" height="16" fill="white"/>
</clipPath>
</defs>
</svg>
