<svg width="16" height="16" viewBox="0 0 16 16" fill="none" xmlns="http://www.w3.org/2000/svg">
<path fill-rule="evenodd" clip-rule="evenodd" d="M2.10812 4H1C0.447715 4 0 4.44772 0 5V11C0 11.5523 0.447715 12 1 12H4.72301L9.4855 14.8575C9.58288 14.9159 9.6878 14.9564 9.79564 14.9789L7.05733 11.0682L5.5145 10.1425C5.35908 10.0493 5.18124 10 5 10H2V6H3.50854L2.10812 4ZM9 6.76713V3.76619L7.52036 4.65398L6.37035 3.0116L9.4855 1.14251C9.79443 0.957149 10.1792 0.952295 10.4927 1.1298C10.8062 1.30731 11 1.63973 11 2V9.62342L9 6.76713ZM13.5739 13.2993L13 12.4797V11.0007C13.6279 10.1649 14 9.12602 14 8.00019C14 6.87437 13.6279 5.83545 13 4.99971V2.25488C14.8135 3.51983 16 5.62145 16 8.00019C16 10.1178 15.0597 12.0157 13.5739 13.2993Z" fill="#657077"/>
<rect x="1.47437" y="1.39648" width="2" height="16.9164" rx="1" transform="rotate(-35 1.47437 1.39648)" fill="#657077"/>
</svg>
