<svg width="16" height="16" viewBox="0 0 16 16" fill="none" xmlns="http://www.w3.org/2000/svg">
<path fill-rule="evenodd" clip-rule="evenodd" d="M4.46447 4.46447C5.37038 3.55855 6.61901 3 8 3C10.7614 3 13 5.23858 13 8C13 10.7614 10.7614 13 8 13C5.23858 13 3 10.7614 3 8H1C1 11.866 4.13401 15 8 15C11.866 15 15 11.866 15 8C15 4.13401 11.866 1 8 1C6.07026 1 4.32132 1.78217 3.05612 3.04439L3.0548 3.04567L3.03407 3.066C3.02467 3.07528 3.01328 3.08659 3 3.09992V2H1V6C1 6.55228 1.44772 7 2 7H6V5H3.96528C4.048 4.90538 4.12216 4.8231 4.18619 4.75355C4.27504 4.65703 4.34423 4.58519 4.38956 4.53907C4.41223 4.51601 4.42891 4.4994 4.43908 4.48935L4.44939 4.47924L4.45047 4.47819L4.45051 4.47815L4.45075 4.47792L4.45707 4.47186L4.46447 4.46447Z" fill="#657077"/>
</svg>
