<svg width="28" height="20" viewBox="0 0 28 20" fill="none" xmlns="http://www.w3.org/2000/svg">
<path d="M13.6699 14H11.9414L10.2812 11.2998L8.62109 14H7L9.36816 10.3184L7.15137 6.86133H8.82129L10.3594 9.42969L11.8682 6.86133H13.499L11.2578 10.4014L13.6699 14ZM18.8008 14H17.292V9.86914C17.292 9.75521 17.2936 9.61523 17.2969 9.44922C17.3001 9.27995 17.305 9.10742 17.3115 8.93164C17.318 8.7526 17.3245 8.59147 17.3311 8.44824C17.2952 8.49056 17.222 8.5638 17.1113 8.66797C17.0039 8.76888 16.903 8.86003 16.8086 8.94141L15.9883 9.60059L15.2607 8.69238L17.5605 6.86133H18.8008V14Z" fill="black"/>
<rect x="1" y="1" width="26" height="18" rx="2" stroke="black" stroke-width="2"/>
</svg>
