<svg width="28" height="20" viewBox="0 0 28 20" fill="none" xmlns="http://www.w3.org/2000/svg">
<path d="M10.6699 14H8.94141L7.28125 11.2998L5.62109 14H4L6.36816 10.3184L4.15137 6.86133H5.82129L7.35938 9.42969L8.86816 6.86133H10.499L8.25781 10.4014L10.6699 14ZM16.0215 10.4307C16.0215 11.0068 15.9759 11.5212 15.8848 11.9736C15.7969 12.4261 15.6536 12.8102 15.4551 13.126C15.2598 13.4417 15.0026 13.6826 14.6836 13.8486C14.3646 14.0146 13.9772 14.0977 13.5215 14.0977C12.9486 14.0977 12.4782 13.9528 12.1104 13.6631C11.7425 13.3701 11.4707 12.9502 11.2949 12.4033C11.1191 11.8532 11.0312 11.1956 11.0312 10.4307C11.0312 9.65918 11.111 9 11.2705 8.45312C11.4333 7.90299 11.6969 7.48145 12.0615 7.18848C12.4261 6.89551 12.9128 6.74902 13.5215 6.74902C14.0911 6.74902 14.5599 6.89551 14.9277 7.18848C15.2988 7.47819 15.5739 7.89811 15.7529 8.44824C15.932 8.99512 16.0215 9.65592 16.0215 10.4307ZM12.5303 10.4307C12.5303 10.9743 12.5596 11.4284 12.6182 11.793C12.68 12.1543 12.7826 12.4261 12.9258 12.6084C13.069 12.7907 13.2676 12.8818 13.5215 12.8818C13.7721 12.8818 13.9691 12.7923 14.1123 12.6133C14.2588 12.431 14.363 12.1592 14.4248 11.7979C14.4867 11.4333 14.5176 10.9775 14.5176 10.4307C14.5176 9.88704 14.4867 9.43294 14.4248 9.06836C14.363 8.70378 14.2588 8.43034 14.1123 8.24805C13.9691 8.0625 13.7721 7.96973 13.5215 7.96973C13.2676 7.96973 13.069 8.0625 12.9258 8.24805C12.7826 8.43034 12.68 8.70378 12.6182 9.06836C12.5596 9.43294 12.5303 9.88704 12.5303 10.4307ZM16.9639 13.3018C16.9639 12.9958 17.0469 12.7809 17.2129 12.6572C17.3822 12.5335 17.5856 12.4717 17.8232 12.4717C18.0544 12.4717 18.2529 12.5335 18.4189 12.6572C18.5882 12.7809 18.6729 12.9958 18.6729 13.3018C18.6729 13.5947 18.5882 13.8063 18.4189 13.9365C18.2529 14.0667 18.0544 14.1318 17.8232 14.1318C17.5856 14.1318 17.3822 14.0667 17.2129 13.9365C17.0469 13.8063 16.9639 13.5947 16.9639 13.3018ZM22.2422 9.43945C22.6784 9.43945 23.0658 9.52246 23.4043 9.68848C23.7461 9.85449 24.0146 10.0986 24.21 10.4209C24.4053 10.7432 24.5029 11.1403 24.5029 11.6123C24.5029 12.1266 24.3955 12.571 24.1807 12.9453C23.9691 13.3164 23.6517 13.6012 23.2285 13.7998C22.8086 13.9984 22.2845 14.0977 21.6562 14.0977C21.2819 14.0977 20.9287 14.0651 20.5967 14C20.2679 13.9382 19.9798 13.8421 19.7324 13.7119V12.4082C19.9798 12.5384 20.276 12.6491 20.6211 12.7402C20.9694 12.8281 21.2965 12.8721 21.6025 12.8721C21.902 12.8721 22.1543 12.833 22.3594 12.7549C22.5645 12.6735 22.7191 12.5498 22.8232 12.3838C22.9307 12.2145 22.9844 11.9997 22.9844 11.7393C22.9844 11.391 22.8672 11.124 22.6328 10.9385C22.3984 10.7529 22.0387 10.6602 21.5537 10.6602C21.3682 10.6602 21.1745 10.6781 20.9727 10.7139C20.7741 10.7497 20.6081 10.7855 20.4746 10.8213L19.874 10.499L20.1426 6.86133H24.0146V8.14062H21.4658L21.334 9.54199C21.4447 9.51921 21.5651 9.49642 21.6953 9.47363C21.8255 9.45085 22.0078 9.43945 22.2422 9.43945Z" fill="black"/>
<rect x="1" y="1" width="26" height="18" rx="2" stroke="black" stroke-width="2"/>
</svg>
