<svg width="28" height="20" viewBox="0 0 28 20" fill="none" xmlns="http://www.w3.org/2000/svg">
<path d="M13.6699 14H11.9414L10.2812 11.2998L8.62109 14H7L9.36816 10.3184L7.15137 6.86133H8.82129L10.3594 9.42969L11.8682 6.86133H13.499L11.2578 10.4014L13.6699 14ZM20.0605 14H15.0703V12.9502L16.8623 11.1387C17.2236 10.7676 17.5133 10.4583 17.7314 10.2109C17.9528 9.96029 18.1123 9.73242 18.21 9.52734C18.3109 9.32227 18.3613 9.10254 18.3613 8.86816C18.3613 8.58496 18.2816 8.37337 18.1221 8.2334C17.9658 8.09017 17.7559 8.01855 17.4922 8.01855C17.2155 8.01855 16.9469 8.08203 16.6865 8.20898C16.4261 8.33594 16.1543 8.5166 15.8711 8.75098L15.0508 7.7793C15.2559 7.60352 15.4723 7.4375 15.7002 7.28125C15.9313 7.125 16.1982 6.99967 16.501 6.90527C16.807 6.80762 17.1732 6.75879 17.5996 6.75879C18.0684 6.75879 18.4704 6.84342 18.8057 7.0127C19.1442 7.18197 19.4046 7.41309 19.5869 7.70605C19.7692 7.99577 19.8604 8.32454 19.8604 8.69238C19.8604 9.08626 19.7822 9.44596 19.626 9.77148C19.4697 10.097 19.2419 10.4193 18.9424 10.7383C18.6462 11.0573 18.2881 11.4105 17.8682 11.7979L16.9502 12.6621V12.7305H20.0605V14Z" fill="black"/>
<rect x="1" y="1" width="26" height="18" rx="2" stroke="black" stroke-width="2"/>
</svg>
