<svg width="16" height="16" viewBox="0 0 16 16" fill="none" xmlns="http://www.w3.org/2000/svg">
<path fill-rule="evenodd" clip-rule="evenodd" d="M11.5355 4.46447C10.6296 3.55855 9.38099 3 8 3C5.23858 3 3 5.23858 3 8C3 10.7614 5.23858 13 8 13C10.7614 13 13 10.7614 13 8H15C15 11.866 11.866 15 8 15C4.13401 15 1 11.866 1 8C1 4.13401 4.13401 1 8 1C9.92974 1 11.6787 1.78217 12.9439 3.04439L12.9452 3.04567L12.9659 3.066C12.9753 3.07528 12.9867 3.08659 13 3.09992V2H15V6C15 6.55228 14.5523 7 14 7H10V5H12.0347C11.952 4.90538 11.8778 4.8231 11.8138 4.75355C11.725 4.65703 11.6558 4.58519 11.6104 4.53907C11.5878 4.51601 11.5711 4.4994 11.5609 4.48935L11.5506 4.47924L11.5495 4.47819L11.5495 4.47815L11.5492 4.47792L11.5429 4.47186L11.5355 4.46447Z" fill="#657077"/>
</svg>
