<svg width="28" height="28" viewBox="0 0 28 28" fill="none" xmlns="http://www.w3.org/2000/svg">
<path d="M5 10H9L14 5V23L9 18H5V10Z" fill="white"/>
<mask id="mask0_34536_416933" style="mask-type:alpha" maskUnits="userSpaceOnUse" x="14" y="5" width="9" height="18">
<path d="M23 5L14 14L23 23V5Z" fill="#D9D9D9"/>
</mask>
<g mask="url(#mask0_34536_416933)">
<path fill-rule="evenodd" clip-rule="evenodd" d="M14 21C17.866 21 21 17.866 21 14C21 10.134 17.866 7 14 7C10.134 7 7 10.134 7 14C7 17.866 10.134 21 14 21ZM14 23C18.9706 23 23 18.9706 23 14C23 9.02944 18.9706 5 14 5C9.02944 5 5 9.02944 5 14C5 18.9706 9.02944 23 14 23Z" fill="white"/>
<path fill-rule="evenodd" clip-rule="evenodd" d="M14 17C15.6569 17 17 15.6569 17 14C17 12.3431 15.6569 11 14 11C12.3431 11 11 12.3431 11 14C11 15.6569 12.3431 17 14 17ZM14 19C16.7614 19 19 16.7614 19 14C19 11.2386 16.7614 9 14 9C11.2386 9 9 11.2386 9 14C9 16.7614 11.2386 19 14 19Z" fill="white"/>
</g>
</svg>
