<svg width="28" height="20" viewBox="0 0 28 20" fill="none" xmlns="http://www.w3.org/2000/svg">
<path d="M10.6699 14H8.94141L7.28125 11.2998L5.62109 14H4L6.36816 10.3184L4.15137 6.86133H5.82129L7.35938 9.42969L8.86816 6.86133H10.499L8.25781 10.4014L10.6699 14ZM14.8008 14H13.292V9.86914C13.292 9.75521 13.2936 9.61523 13.2969 9.44922C13.3001 9.27995 13.305 9.10742 13.3115 8.93164C13.318 8.7526 13.3245 8.59147 13.3311 8.44824C13.2952 8.49056 13.222 8.5638 13.1113 8.66797C13.0039 8.76888 12.903 8.86003 12.8086 8.94141L11.9883 9.60059L11.2607 8.69238L13.5605 6.86133H14.8008V14ZM16.9639 13.3018C16.9639 12.9958 17.0469 12.7809 17.2129 12.6572C17.3822 12.5335 17.5856 12.4717 17.8232 12.4717C18.0544 12.4717 18.2529 12.5335 18.4189 12.6572C18.5882 12.7809 18.6729 12.9958 18.6729 13.3018C18.6729 13.5947 18.5882 13.8063 18.4189 13.9365C18.2529 14.0667 18.0544 14.1318 17.8232 14.1318C17.5856 14.1318 17.3822 14.0667 17.2129 13.9365C17.0469 13.8063 16.9639 13.5947 16.9639 13.3018ZM22.2422 9.43945C22.6784 9.43945 23.0658 9.52246 23.4043 9.68848C23.7461 9.85449 24.0146 10.0986 24.21 10.4209C24.4053 10.7432 24.5029 11.1403 24.5029 11.6123C24.5029 12.1266 24.3955 12.571 24.1807 12.9453C23.9691 13.3164 23.6517 13.6012 23.2285 13.7998C22.8086 13.9984 22.2845 14.0977 21.6562 14.0977C21.2819 14.0977 20.9287 14.0651 20.5967 14C20.2679 13.9382 19.9798 13.8421 19.7324 13.7119V12.4082C19.9798 12.5384 20.276 12.6491 20.6211 12.7402C20.9694 12.8281 21.2965 12.8721 21.6025 12.8721C21.902 12.8721 22.1543 12.833 22.3594 12.7549C22.5645 12.6735 22.7191 12.5498 22.8232 12.3838C22.9307 12.2145 22.9844 11.9997 22.9844 11.7393C22.9844 11.391 22.8672 11.124 22.6328 10.9385C22.3984 10.7529 22.0387 10.6602 21.5537 10.6602C21.3682 10.6602 21.1745 10.6781 20.9727 10.7139C20.7741 10.7497 20.6081 10.7855 20.4746 10.8213L19.874 10.499L20.1426 6.86133H24.0146V8.14062H21.4658L21.334 9.54199C21.4447 9.51921 21.5651 9.49642 21.6953 9.47363C21.8255 9.45085 22.0078 9.43945 22.2422 9.43945Z" fill="black"/>
<rect x="1" y="1" width="26" height="18" rx="2" stroke="black" stroke-width="2"/>
</svg>
