<svg width="16" height="15" viewBox="0 0 16 15" fill="none" xmlns="http://www.w3.org/2000/svg">
<path fill-rule="evenodd" clip-rule="evenodd" d="M7.99996 0C8.39009 0 8.74461 0.226888 8.90802 0.581154L10.6485 4.35457L14.7751 4.84384C15.1625 4.88977 15.4879 5.15682 15.6084 5.52786C15.729 5.8989 15.6227 6.30618 15.3363 6.57106L12.2854 9.39243L13.0953 13.4682C13.1713 13.8509 13.0179 14.2428 12.7022 14.4721C12.3866 14.7015 11.9664 14.7263 11.626 14.5357L7.99996 12.506L4.3739 14.5357C4.03347 14.7263 3.6133 14.7015 3.29768 14.4721C2.98205 14.2428 2.8286 13.8509 2.90464 13.4682L3.71449 9.39243L0.663612 6.57106C0.377181 6.30618 0.270949 5.8989 0.391507 5.52786C0.512066 5.15682 0.837401 4.88977 1.22482 4.84384L5.3514 4.35457L7.0919 0.581154C7.25531 0.226888 7.60982 0 7.99996 0ZM7.99996 3.38751L6.93306 5.70055C6.78739 6.01636 6.48811 6.2338 6.14274 6.27475L3.61322 6.57466L5.48336 8.30411C5.7387 8.54024 5.85301 8.89207 5.78523 9.23319L5.28881 11.7316L7.51152 10.4874C7.81499 10.3175 8.18493 10.3175 8.4884 10.4874L10.7111 11.7316L10.2147 9.23319C10.1469 8.89207 10.2612 8.54024 10.5166 8.30411L12.3867 6.57466L9.85718 6.27475C9.51181 6.2338 9.21253 6.01636 9.06686 5.70055L7.99996 3.38751Z" fill="white"/>
</svg>
