<svg width="16" height="16" viewBox="0 0 16 16" fill="none" xmlns="http://www.w3.org/2000/svg">
<path fill-rule="evenodd" clip-rule="evenodd" d="M6.00329 1H1.00391C0.450371 1 0.00214033 1.44967 0.00391148 2.0032L0.0423083 14.0032C0.0440714 14.5542 0.491268 15 1.0423 15H15.0015C15.5538 15 16.0015 14.5523 16.0015 14V4.99571C16.0015 4.44342 15.5538 3.99571 15.0015 3.99571H9.00096L6.00329 1ZM5.00379 3H3.00519C2.45116 3 2.00272 3.45045 2.0052 4.00448L2.04104 12.0045C2.0435 12.555 2.49049 13 3.04103 13H13.0015C13.5538 13 14.0015 12.5523 14.0015 12V6.99571C14.0015 6.44342 13.5538 5.99571 13.0015 5.99571H8.00147L5.00379 3Z" fill="#333333"/>
</svg>
