<svg width="16" height="16" viewBox="0 0 16 16" fill="none" xmlns="http://www.w3.org/2000/svg">
<path fill-rule="evenodd" clip-rule="evenodd" d="M2 8C2 4.68629 4.68629 2 8 2C11.3137 2 14 4.68629 14 8C14 11.3137 11.3137 14 8 14C4.68629 14 2 11.3137 2 8ZM8 0C3.58172 0 0 3.58172 0 8C0 12.4183 3.58172 16 8 16C12.4183 16 16 12.4183 16 8C16 3.58172 12.4183 0 8 0ZM11.7074 10.2938L9.41412 8.00086L11.7075 5.70749L10.2933 4.29328L7.9998 6.58677L5.70588 4.29322L4.29178 5.70755L6.58558 8.00098L4.29328 10.2933L5.7075 11.7075L7.99991 9.41508L10.2933 11.7081L11.7074 10.2938Z" fill="#A3A9AE"/>
</svg>
