<svg width="16" height="16" viewBox="0 0 16 16" fill="none" xmlns="http://www.w3.org/2000/svg">
<path d="M10 14C10 14.2626 9.94827 14.5227 9.84776 14.7654C9.74725 15.008 9.59993 15.2285 9.41421 15.4142C9.2285 15.5999 9.00802 15.7472 8.76537 15.8478C8.52272 15.9483 8.26264 16 8 16C7.73736 16 7.47728 15.9483 7.23463 15.8478C6.99198 15.7472 6.7715 15.5999 6.58579 15.4142C6.40007 15.2285 6.25275 15.008 6.15224 14.7654C6.05173 14.5227 6 14.2626 6 14L8 14H10Z" fill="#333333"/>
<rect x="7" width="2" height="3" rx="1" fill="#333333"/>
<path fill-rule="evenodd" clip-rule="evenodd" d="M0.353516 12.2383L13.3535 1.23828L14.6454 2.76505L1.6454 13.7651L0.353516 12.2383Z" fill="#333333"/>
<path fill-rule="evenodd" clip-rule="evenodd" d="M10.9387 1.97176C10.1899 1.36702 9.21596 1 8 1C6.62795 1 5.56406 1.46729 4.78403 2.21611C4.02807 2.94184 3.59987 3.87187 3.3525 4.72C3.1036 5.57337 3.01852 6.4098 2.99305 7.02087C2.98751 7.15389 2.98474 7.2776 2.98383 7.39005L2.65836 7.55279C1.64201 8.06096 1 9.09975 1 10.2361V10.3814L4.99626 6.99998C5.02269 6.50228 5.09641 5.88375 5.2725 5.28C5.46263 4.62813 5.75318 4.05816 6.16909 3.65889C6.56094 3.28271 7.12205 3 8 3C8.57421 3 9.01289 3.12093 9.35732 3.30985L10.9387 1.97176ZM12.583 4.51025C12.3849 3.89762 12.0889 3.25528 11.6417 2.68685L10.1132 3.9802C10.3826 4.34106 10.5837 4.78711 10.7275 5.28C10.7926 5.50303 10.8436 5.72808 10.8835 5.94831L12.583 4.51025ZM6.46146 11H13V10.2361C13 9.8573 12.786 9.51103 12.4472 9.34164L11.5528 8.89443L10.9472 8.59165L11.0033 7.91879L11.0033 7.9185L11.0034 7.91814L11.0034 7.91761L11.0035 7.91695L11.0038 7.91173L11.0062 7.87438C11.0083 7.83925 11.011 7.78431 11.0131 7.71244C11.0172 7.5773 11.019 7.38388 11.0105 7.15081L12.8517 5.5929C12.9482 6.12633 12.9903 6.62168 13.0069 7.02087C13.0125 7.15389 13.0153 7.2776 13.0162 7.39005L13.3416 7.55279C14.358 8.06096 15 9.09975 15 10.2361V11C15 12.1046 14.1046 13 13 13H4.09783L6.46146 11ZM4.91334 11H3V10.2361C3 10.1442 3.0126 10.0542 3.03652 9.96817L1.09504 11.611C1.31333 12.2921 1.88683 12.8143 2.59757 12.9595L4.91334 11ZM4.10078 9.06765L4.44721 8.89443L5.05277 8.59165L5.02712 8.28382L4.10078 9.06765Z" fill="#333333"/>
</svg>
