<svg width="147" height="24" viewBox="0 0 147 24" fill="none" xmlns="http://www.w3.org/2000/svg">
<path fill-rule="evenodd" clip-rule="evenodd" d="M34.1654 6.82411C32.7061 8.0184 32 9.85576 32 12.2903C32 14.7248 32.7061 16.5621 34.1654 17.8023C35.6248 19.0426 37.2725 19.6397 39.2026 19.6397C41.0855 19.6397 42.7803 19.0426 44.1925 17.8023C45.6048 16.6081 46.311 14.7707 46.311 12.3362C46.311 9.85576 45.6048 8.06433 44.1925 6.82411C42.7803 5.58389 41.1326 4.98676 39.2026 4.98676C37.2725 4.98676 35.5777 5.58389 34.1654 6.82411ZM36.0485 15.9651C35.4365 15.1842 35.107 13.9898 35.107 12.2904C35.107 10.6366 35.4365 9.4424 36.0485 8.70746C36.7075 7.92658 37.4136 7.4213 38.1669 7.23756C38.3551 7.19162 38.5434 7.14569 38.6847 7.14569C38.8259 7.09976 38.9671 7.09976 39.1553 7.09976H39.1554C39.2496 7.09976 39.332 7.11124 39.4143 7.12273C39.4967 7.13421 39.5791 7.14569 39.6732 7.14569C39.8145 7.14569 40.0029 7.19162 40.1912 7.23756C40.9443 7.4213 41.6505 7.92658 42.2624 8.70746C42.8744 9.48833 43.2039 10.7286 43.2039 12.3362C43.2039 13.944 42.8744 15.1842 42.2624 15.9651C41.6505 16.7459 40.9443 17.2512 40.1912 17.435C40.1587 17.4429 40.1276 17.4508 40.0974 17.4585C39.9527 17.4953 39.8291 17.5268 39.6732 17.5268C39.485 17.5727 39.3437 17.5727 39.1554 17.5727H39.1554C39.0848 17.5727 39.0024 17.5612 38.9201 17.5498C38.8377 17.5383 38.7553 17.5268 38.6847 17.5268C38.5289 17.5268 38.4053 17.4953 38.2606 17.4585C38.2304 17.4508 38.1993 17.4429 38.1669 17.435C37.4136 17.2512 36.7075 16.7459 36.0485 15.9651Z" fill="white"/>
<path d="M47.8643 5.12457H51.7245L56.8086 14.1736L57.5618 16.1029H57.6088L57.5618 13.5764V5.12457H60.5275V19.456H56.6674L51.5832 10.0855L50.83 8.47776H50.7829L50.83 11.0041V19.456H47.8643V5.12457Z" fill="white"/>
<path d="M63.1172 5.12457H66.0829V17.0215H71.9202V19.456H63.1172V5.12457Z" fill="white"/>
<path d="M70.084 5.12457H73.5205L76.5332 10.1773L77.004 11.1419H77.0982L77.5689 10.1773L80.6289 5.12457H83.7829L78.4633 13.6224V19.456H75.4976V13.6224L70.084 5.12457Z" fill="white"/>
<path fill-rule="evenodd" clip-rule="evenodd" d="M86.0424 6.82411C84.583 8.0184 83.877 9.85576 83.877 12.2903C83.877 14.7248 84.6302 16.5621 86.0424 17.8023C87.5017 19.0426 89.1493 19.6397 91.0794 19.6397C92.9625 19.6397 94.6572 19.0426 96.0694 17.8023C97.4817 16.6081 98.1878 14.7707 98.1878 12.3362C98.1878 9.85576 97.4817 8.06433 96.0694 6.82411C94.6572 5.58389 93.0095 4.98676 91.0794 4.98676C89.1493 4.98676 87.4547 5.58389 86.0424 6.82411ZM87.9254 15.9651C87.3134 15.1842 86.9839 13.9898 86.9839 12.2904C86.9839 10.6366 87.3134 9.4424 87.9254 8.70746C88.5845 7.92658 89.2906 7.4213 90.0438 7.23756C90.2321 7.19162 90.4204 7.14569 90.5616 7.14569C90.7028 7.09976 90.844 7.09976 91.0323 7.09976H91.0324C91.1265 7.09976 91.2089 7.11124 91.2913 7.12273C91.3737 7.13421 91.456 7.14569 91.5502 7.14569C91.6913 7.14569 91.8794 7.19156 92.0677 7.23746L92.0681 7.23756C92.8212 7.4213 93.5274 7.92658 94.1393 8.70746C94.7513 9.48833 95.0809 10.7286 95.0809 12.3362C95.0809 13.944 94.7513 15.1842 94.1393 15.9651C93.5274 16.7459 92.8212 17.2512 92.0681 17.435C92.0355 17.4429 92.0044 17.4508 91.9742 17.4585C91.8295 17.4954 91.7059 17.5268 91.5502 17.5268C91.3619 17.5727 91.2207 17.5727 91.0324 17.5727H91.0324C90.9618 17.5727 90.8794 17.5612 90.797 17.5498C90.7146 17.5383 90.6322 17.5268 90.5616 17.5268C90.4208 17.5268 90.2332 17.4811 90.0455 17.4354L90.0438 17.435C89.2435 17.2512 88.5845 16.7459 87.9254 15.9651Z" fill="white"/>
<path d="M99.7881 5.12457H107.979V7.55908H102.754V11.0041H107.743V13.4386H102.754V19.456H99.7881V5.12457Z" fill="white"/>
<path d="M109.722 5.12457H117.913V7.55908H112.687V11.0041H117.677V13.4386H112.687V19.456H109.722V5.12457Z" fill="white"/>
<path d="M119.654 19.456V5.12457H122.621V19.456H119.654Z" fill="white"/>
<path d="M136.014 5.44608V7.92652C135.496 7.74278 134.978 7.60499 134.414 7.51312C133.849 7.42125 133.237 7.37531 132.577 7.37531C131.024 7.37531 129.848 7.83465 129 8.79927C128.153 9.71796 127.729 10.9122 127.729 12.3362C127.729 13.7142 128.105 14.8626 128.906 15.7813C129.706 16.6999 130.836 17.2052 132.295 17.2052C132.813 17.2052 133.331 17.1593 133.943 17.1134C134.554 17.0214 135.166 16.8837 135.826 16.6081L136.014 19.0425C135.92 19.0885 135.779 19.1345 135.638 19.1804C135.45 19.2263 135.261 19.2722 135.026 19.3182C134.649 19.41 134.178 19.456 133.613 19.5479C133.049 19.5937 132.483 19.6397 131.871 19.6397C131.777 19.6397 131.683 19.6397 131.636 19.6397C131.542 19.6397 131.448 19.6397 131.401 19.6397C129.706 19.5479 128.153 18.9048 126.741 17.8023C125.328 16.654 124.622 14.8626 124.622 12.474C124.622 10.1314 125.328 8.294 126.693 7.00784C128.058 5.72169 129.942 5.07861 132.249 5.07861C132.86 5.07861 133.425 5.07861 133.896 5.12454C134.414 5.17047 134.884 5.26234 135.402 5.35421C135.496 5.40015 135.638 5.40015 135.732 5.44608C135.779 5.40015 135.873 5.44608 136.014 5.44608Z" fill="white"/>
<path d="M137.866 5.12457H146.669V7.37534H140.879V10.9582H146.105V13.209H140.879V17.2053H146.669V19.456H137.866V5.12457Z" fill="white"/>
<path fill-rule="evenodd" clip-rule="evenodd" d="M11.3099 23.7112L0.67919 18.8606C-0.226397 18.4371 -0.226397 17.7827 0.67919 17.3976L4.38028 15.7038L11.2707 18.8606C12.1762 19.284 13.6331 19.284 14.4992 18.8606L21.3895 15.7038L25.0907 17.3976C25.9963 17.8212 25.9963 18.4756 25.0907 18.8606L14.4598 23.7112C13.6331 24.0962 12.1762 24.0962 11.3099 23.7112Z" fill="url(#paint0_linear)"/>
<path fill-rule="evenodd" clip-rule="evenodd" d="M11.31 17.5139L0.67919 12.6633C-0.226397 12.2398 -0.226397 11.5853 0.67919 11.2003L4.30154 9.54492L11.31 12.7403C12.2156 13.1637 13.6723 13.1637 14.5386 12.7403L21.5471 9.54492L25.1694 11.2003C26.075 11.6238 26.075 12.2783 25.1694 12.6633L14.5386 17.5139C13.6331 17.9374 12.1762 17.9374 11.31 17.5139Z" fill="url(#paint1_linear)"/>
<path fill-rule="evenodd" clip-rule="evenodd" d="M11.31 11.4819L0.67919 6.63119C-0.226397 6.20772 -0.226397 5.55326 0.67919 5.16829L11.31 0.317604C12.2155 -0.105868 13.6724 -0.105868 14.5387 0.317604L25.1694 5.16829C26.075 5.59176 26.075 6.24622 25.1694 6.63119L14.5387 11.4819C13.633 11.8669 12.1763 11.8669 11.31 11.4819Z" fill="url(#paint2_linear)"/>
<defs>
<linearGradient id="paint0_linear" x1="40.4198" y1="28.3092" x2="40.4198" y2="10.5998" gradientUnits="userSpaceOnUse">
<stop stop-color="#FCC2B1"/>
<stop offset="0.8848" stop-color="#D9420B"/>
</linearGradient>
<linearGradient id="paint1_linear" x1="31.0804" y1="20.4113" x2="31.0804" y2="8.76439" gradientUnits="userSpaceOnUse">
<stop stop-color="#DEEDC9"/>
<stop offset="0.6606" stop-color="#8BBA25"/>
</linearGradient>
<linearGradient id="paint2_linear" x1="30.3174" y1="15.4763" x2="30.3174" y2="-0.372617" gradientUnits="userSpaceOnUse">
<stop stop-color="#C2EBFA"/>
<stop offset="1" stop-color="#26A8DE"/>
</linearGradient>
</defs>
</svg>
