<svg width="16" height="16" viewBox="0 0 16 16" fill="none" xmlns="http://www.w3.org/2000/svg">
<path fill-rule="evenodd" clip-rule="evenodd" d="M14 8C14 11.3137 11.3137 14 8 14C4.68629 14 2 11.3137 2 8C2 4.68629 4.68629 2 8 2C11.3137 2 14 4.68629 14 8ZM16 8C16 12.4183 12.4183 16 8 16C3.58172 16 0 12.4183 0 8C0 3.58172 3.58172 0 8 0C12.4183 0 16 3.58172 16 8ZM8 4C7.44772 4 7 4.44772 7 5C7 5.0612 7.0055 5.12111 7.01603 5.17928C6.78399 5.25702 6.57785 5.36006 6.3976 5.48837C5.94023 5.81395 5.69605 6.28294 5.66504 6.89535C5.66504 7.43798 5.80457 7.85659 6.08364 8.15116C6.37047 8.44574 6.83558 8.65504 7.47899 8.77907C7.78907 8.83333 7.99837 8.89535 8.1069 8.96512C8.22318 9.03488 8.28132 9.12403 8.28132 9.23256C8.28132 9.44961 8.08752 9.55814 7.69992 9.55814C7.17279 9.55814 6.63016 9.45737 6.07202 9.25581L5.80457 10.6395C6.16812 10.7822 6.56718 10.8825 7.00175 10.9405C7.00059 10.9602 7 10.98 7 11C7 11.5523 7.44772 12 8 12C8.55228 12 9 11.5523 9 11C9 10.9575 8.99734 10.9156 8.99219 10.8744C9.30853 10.7873 9.57545 10.6547 9.79295 10.4767C10.2271 10.1202 10.4441 9.63566 10.4441 9.02326C10.4441 8.48837 10.2697 8.06589 9.92085 7.75581C9.57202 7.44574 9.04488 7.22868 8.33946 7.10465C7.95186 7.03488 7.75806 6.91473 7.75806 6.74419C7.75806 6.65116 7.80845 6.57752 7.90923 6.52326C8.01 6.46899 8.19217 6.44186 8.45574 6.44186C8.63403 6.44186 8.85496 6.46512 9.11853 6.51163C9.38984 6.55814 9.63791 6.62403 9.86271 6.7093L10.1069 5.32558C9.86659 5.2093 9.59915 5.12791 9.30457 5.0814C9.20925 5.06336 9.10752 5.04833 8.99935 5.03629C8.99978 5.02424 9 5.01215 9 5C9 4.44772 8.55228 4 8 4Z" fill="#333333"/>
</svg>
