<svg width="12" height="12" viewBox="0 0 12 12" fill="none" xmlns="http://www.w3.org/2000/svg">
<g clip-path="url(#clip0_28708_80637)">
<path fill-rule="evenodd" clip-rule="evenodd" d="M6.54291 1.04308C7.62379 -0.037799 9.37624 -0.0377976 10.4571 1.04308C11.538 2.12396 11.538 3.87642 10.4571 4.9573L4.70712 10.7073C4.55974 10.8547 4.37 10.9523 4.16441 10.9866L1.16441 11.4866C0.845855 11.5397 0.521267 11.4357 0.292906 11.2073C0.0645449 10.9789 -0.0394742 10.6543 0.0136187 10.3358L0.513619 7.33579C0.547883 7.1302 0.645528 6.94046 0.792906 6.79308L6.54291 1.04308ZM9.04291 2.4573C8.74307 2.15746 8.25695 2.15746 7.95712 2.4573L7.41423 3.00019L8.50001 4.08598L9.0429 3.54308C9.34274 3.24325 9.34274 2.75713 9.04291 2.4573ZM7.0858 5.50019L6.00001 4.4144L2.43372 7.98069L2.21657 9.28364L3.51951 9.06648L7.0858 5.50019Z" fill="#657077"/>
</g>
<defs>
<clipPath id="clip0_28708_80637">
<rect width="12" height="12" fill="white"/>
</clipPath>
</defs>
</svg>
