<svg width="16" height="16" viewBox="0 0 16 16" fill="none" xmlns="http://www.w3.org/2000/svg">
<path fill-rule="evenodd" clip-rule="evenodd" d="M7.99912 7.49987C9.49831 7.49987 10.4991 5.7587 10.4991 3.53517C10.4991 2.16136 9.38214 1.02737 8.00838 1.01764C6.63044 1.00788 5.49957 2.1219 5.49912 3.49987C5.49912 5.7234 6.49993 7.49987 7.99912 7.49987ZM2.86535 14.0038C3.08879 12.0623 3.8453 8.63891 5.20706 8.07817C5.45115 7.97766 5.72192 8.05174 5.9656 8.15324L7.23005 8.67994C7.72249 8.88506 8.27647 8.88496 8.76884 8.67964L10.0305 8.15354C10.2744 8.05184 10.5454 7.97762 10.7897 8.07832C12.1512 8.63953 12.9076 12.0624 13.131 14.0038C13.1942 14.5524 12.7543 14.9995 12.202 14.9995H3.79443C3.24214 14.9995 2.8022 14.5524 2.86535 14.0038ZM1.50056 4.4995C1.50056 5.29969 1.87556 6.9995 3.00056 6.9995C4.12556 6.9995 4.50056 5.29969 4.50056 4.4995C4.50056 3.6993 4.12556 2.9995 3.00056 2.9995C1.87556 2.9995 1.50056 3.6993 1.50056 4.4995ZM1.00056 12.9995C0.448278 12.9995 0.00327256 12.5518 0.0641842 12.0029C0.185552 10.9092 0.4908 9.42413 1.06644 8.27259C1.44438 7.51652 2.41332 7.61864 2.88219 8.32194C2.91517 8.3714 2.94157 8.42456 2.961 8.48007C2.35944 9.6599 1.88626 11.3777 1.65522 12.9995H1.00056ZM13 6.99994C14.125 6.99994 14.5 5.30013 14.5 4.49994C14.5 3.69974 14.125 2.99994 13 2.99994C11.875 2.99994 11.5 3.69974 11.5 4.49994C11.5 5.30013 11.875 6.99994 13 6.99994ZM15.9364 12.0034C15.9973 12.5523 15.5523 12.9999 15 12.9999H14.3441C14.1131 11.3788 13.6402 9.66178 13.039 8.48206C13.0585 8.42599 13.0851 8.3723 13.1184 8.32238C13.5872 7.61908 14.5562 7.51696 14.9341 8.27303C15.5098 9.42457 15.815 10.9096 15.9364 12.0034Z" fill="#657077"/>
</svg>
