<svg width="12" height="12" viewBox="0 0 12 12" fill="none" xmlns="http://www.w3.org/2000/svg">
<g clip-path="url(#clip0_30397_17375)">
<path fill-rule="evenodd" clip-rule="evenodd" d="M5.99982 5.99996C7.4996 5.99996 8.00012 3.89125 8.00012 2.22355L8.00006 1.99942C7.99975 0.8951 7.10445 2.38256e-05 6.00013 4.75576e-10C4.89556 -2.38281e-05 4.00012 0.895399 4.00012 1.99997V2.22355C4.00012 3.89125 4.50004 5.99996 5.99982 5.99996ZM1.09749 11.0058C1.34278 9.46773 2.09796 7 3.85765 7C3.98837 7 4.16694 7.0957 4.39336 7.21703C4.78553 7.4272 5.32124 7.71429 6.0005 7.71429C6.67954 7.71429 7.21512 7.42725 7.60726 7.21709C7.83386 7.09565 8.01256 6.99987 8.14336 7C9.90295 7.00169 10.6581 9.4682 10.9035 11.0058C10.9905 11.5511 10.5528 12 10.0005 12L2.0005 12C1.44822 12 1.0105 11.5511 1.09749 11.0058Z" fill="#657077"/>
</g>
<defs>
<clipPath id="clip0_30397_17375">
<rect width="12" height="12" fill="white"/>
</clipPath>
</defs>
</svg>
