<svg width="16" height="16" viewBox="0 0 16 16" fill="none" xmlns="http://www.w3.org/2000/svg">
<g clip-path="url(#clip0_27240_241381)">
<path fill-rule="evenodd" clip-rule="evenodd" d="M6.99872 2.99973C6.99872 2.44759 7.44633 1.99999 7.99847 2C8.5506 2.00001 8.99818 2.4476 8.99818 2.99973V3.49996C8.99818 4.41142 8.84295 5.10385 8.61602 5.52952C8.40902 5.9178 8.20481 5.99996 7.99872 5.99996C7.79254 5.99996 7.58819 5.91771 7.38107 5.52937C7.15405 5.1037 6.99872 4.41131 6.99872 3.49996V2.99973ZM7.99851 7.13983e-10C6.34178 -3.57564e-05 4.99872 1.343 4.99872 2.99973V3.49996C4.99872 4.58861 5.17672 5.64621 5.61637 6.47055C6.07592 7.33221 6.87156 7.99996 7.99872 7.99996C9.12596 7.99996 9.92148 7.33211 10.3809 6.4704C10.8203 5.64607 10.9982 4.5885 10.9982 3.49996V2.99973C10.9982 1.34305 9.65519 3.57692e-05 7.99851 7.13983e-10ZM5.42766 8.64271C3.85259 8.64271 2.81605 9.64685 2.19389 10.6849C1.57466 11.7181 1.25397 12.9469 1.10782 13.8463C0.90554 15.091 1.92662 16 2.99909 16H8.9995C8.31322 15.4844 7.76394 14.7962 7.41604 14H3.11077C3.24542 13.2632 3.50212 12.3926 3.90938 11.7131C4.32073 11.0267 4.78444 10.6821 5.33038 10.6459C5.35391 10.6569 5.38321 10.6713 5.42016 10.6903C5.47197 10.717 5.52853 10.7472 5.59817 10.7846L5.6315 10.8024L5.63151 10.8024C5.94826 10.9724 6.4298 11.2308 7.03797 11.3808C7.12304 10.692 7.34816 10.0467 7.68396 9.47417C7.28255 9.40873 6.9247 9.22637 6.54286 9.02174L6.52559 9.01248C6.40349 8.94702 6.25136 8.86544 6.10709 8.80228C5.97152 8.74293 5.72137 8.64271 5.42766 8.64271ZM9.74672 8.8556C9.67666 8.80869 9.5844 8.81038 9.5183 8.86273C9.27531 9.0552 9.0552 9.27531 8.86273 9.5183C8.81038 9.5844 8.80869 9.67666 8.8556 9.74672L9.38231 10.5334C9.26777 10.7374 9.17638 10.9562 9.11172 11.1861L8.18303 11.3699C8.10029 11.3863 8.03622 11.4528 8.02656 11.5366C8.00902 11.6886 8 11.8433 8 12C8 12.1567 8.00902 12.3114 8.02656 12.4634C8.03622 12.5472 8.10029 12.6137 8.18303 12.6301L9.11172 12.8139C9.17638 13.0438 9.26777 13.2626 9.38231 13.4666L8.8556 14.2533C8.80869 14.3233 8.81038 14.4156 8.86273 14.4817C9.0552 14.7247 9.27531 14.9448 9.5183 15.1373C9.5844 15.1896 9.67666 15.1913 9.74672 15.1444L10.5334 14.6177C10.7374 14.7322 10.9562 14.8236 11.1861 14.8883L11.3699 15.817C11.3863 15.8997 11.4528 15.9638 11.5366 15.9734C11.6886 15.991 11.8433 16 12 16C12.1567 16 12.3114 15.991 12.4634 15.9734C12.5472 15.9638 12.6137 15.8997 12.6301 15.817L12.8139 14.8883C13.0438 14.8236 13.2626 14.7322 13.4666 14.6177L14.2533 15.1444C14.3233 15.1913 14.4156 15.1896 14.4817 15.1373C14.7247 14.9448 14.9448 14.7247 15.1373 14.4817C15.1896 14.4156 15.1913 14.3233 15.1444 14.2533L14.6177 13.4666C14.7322 13.2626 14.8236 13.0438 14.8883 12.8139L15.817 12.6301C15.8997 12.6137 15.9638 12.5472 15.9734 12.4634C15.991 12.3114 16 12.1567 16 12C16 11.8433 15.991 11.6886 15.9734 11.5366C15.9638 11.4528 15.8997 11.3863 15.817 11.3699L14.8883 11.1861C14.8236 10.9562 14.7322 10.7374 14.6177 10.5334L15.1444 9.74672C15.1913 9.67666 15.1896 9.5844 15.1373 9.5183C14.9448 9.27531 14.7247 9.0552 14.4817 8.86273C14.4156 8.81038 14.3233 8.80869 14.2533 8.8556L13.4666 9.38231C13.2626 9.26777 13.0438 9.17638 12.8139 9.11172L12.6301 8.18303C12.6137 8.10029 12.5472 8.03622 12.4634 8.02656C12.3114 8.00902 12.1567 8 12 8C11.8433 8 11.6886 8.00902 11.5366 8.02656C11.4528 8.03622 11.3863 8.10029 11.3699 8.18303L11.1861 9.11172C10.9562 9.17638 10.7374 9.26777 10.5334 9.38231L9.74672 8.8556ZM13 12C13 12.5523 12.5523 13 12 13C11.4477 13 11 12.5523 11 12C11 11.4477 11.4477 11 12 11C12.5523 11 13 11.4477 13 12Z" fill="#657077"/>
</g>
<defs>
<clipPath id="clip0_27240_241381">
<rect width="16" height="16" fill="white"/>
</clipPath>
</defs>
</svg>
