<svg width="16" height="16" viewBox="0 0 16 16" fill="none" xmlns="http://www.w3.org/2000/svg">
<g clip-path="url(#clip0_3533_28347)">
<path fill-rule="evenodd" clip-rule="evenodd" d="M6.9997 2.99973C6.9997 2.44759 7.4473 1.99999 7.99945 2C8.55157 2.00001 8.99916 2.4476 8.99916 2.99973V3.49996C8.99916 4.41142 8.84392 5.10385 8.61699 5.52952C8.40999 5.9178 8.20579 5.99996 7.9997 5.99996C7.79352 5.99996 7.58916 5.91771 7.38205 5.52937C7.15503 5.1037 6.9997 4.41131 6.9997 3.49996V2.99973ZM7.99949 0C6.34276 -3.57614e-05 4.9997 1.343 4.9997 2.99973V3.49996C4.9997 4.58861 5.1777 5.64621 5.61734 6.47055C6.0769 7.33221 6.87254 7.99996 7.9997 7.99996C9.12694 7.99996 9.92246 7.33211 10.3819 6.4704C10.8213 5.64607 10.9992 4.5885 10.9992 3.49996V2.99973C10.9992 1.34305 9.65617 3.57642e-05 7.99949 0ZM5.42864 8.64271C3.85357 8.64271 2.81702 9.64685 2.19486 10.6849C1.57564 11.7181 1.25495 12.9469 1.1088 13.8463C0.906516 15.091 1.92759 16 3.00006 16H10.3542C9.76376 15.4789 9.32837 14.7862 9.12602 14H3.11175C3.2464 13.2632 3.5031 12.3926 3.91036 11.7131C4.32171 11.0267 4.78542 10.6821 5.33135 10.6459C5.35488 10.6569 5.38419 10.6713 5.42114 10.6903C5.47295 10.717 5.52951 10.7472 5.59915 10.7846L5.63248 10.8024C6.10156 11.0542 6.93207 11.4999 8.00006 11.4999C8.53185 11.4999 9.00476 11.3893 9.40346 11.2472C9.94486 10.1384 10.9839 9.31707 12.2299 9.07407C11.7603 8.8086 11.2106 8.64333 10.5725 8.64271C10.2782 8.64243 10.0277 8.74278 9.89198 8.80217C9.74757 8.86537 9.59529 8.94703 9.4731 9.01255L9.4558 9.02182C8.97707 9.27839 8.53622 9.49986 8.00006 9.49986C7.46362 9.49986 7.02258 9.2783 6.54384 9.02174L6.52657 9.01248C6.40447 8.94702 6.25233 8.86544 6.10807 8.80228C5.9725 8.74293 5.72234 8.64271 5.42864 8.64271Z" fill="#333333"/>
<rect x="12" y="10" width="2" height="6" fill="#333333"/>
<rect x="16" y="12" width="2" height="6" transform="rotate(90 16 12)" fill="#333333"/>
</g>
<defs>
<clipPath id="clip0_3533_28347">
<rect width="16" height="16" fill="white"/>
</clipPath>
</defs>
</svg>
