<svg width="16" height="16" viewBox="0 0 16 16" fill="none" xmlns="http://www.w3.org/2000/svg">
<g clip-path="url(#clip0_3533_11529)">
<mask id="path-1-inside-1_3533_11529" fill="white">
<path d="M10.6351 0.137193L15.6973 5.19933C15.8802 5.38216 15.8802 5.6787 15.6973 5.86171L15.6758 5.88316C15.3655 6.19366 14.9528 6.36459 14.5138 6.36459C14.2311 6.36459 13.9597 6.29275 13.7191 6.15928L9.17334 11.4559C9.53553 11.8613 9.73391 12.3787 9.73391 12.9267C9.73391 13.5172 9.50397 14.0724 9.08642 14.4899L9.05467 14.5216C8.96334 14.6132 8.84336 14.6589 8.72357 14.6589C8.60377 14.6589 8.48388 14.6132 8.39247 14.5216L5.52224 11.6514L3.04175 14.1319C3.04175 14.1319 1.86038 15.1241 1.32603 15.5763C0.791678 16.0284 0.465194 16 0.465194 16H0V15.5C0 15.5 0.0189498 15.1861 0.420771 14.671C0.822592 14.156 1.86038 12.9598 1.86038 12.9598L4.34564 10.4746L1.31301 7.442C1.13008 7.25917 1.13008 6.96263 1.31301 6.7798L1.34476 6.74805C1.76222 6.3305 2.31736 6.10055 2.90791 6.10055C3.45593 6.10055 3.97333 6.29884 4.37871 6.66113L9.67537 2.11536C9.5419 1.87474 9.47006 1.6034 9.47006 1.32063C9.47006 0.881724 9.64109 0.468949 9.95149 0.158642L9.97294 0.137193C10.1557 -0.0457312 10.4524 -0.0457312 10.6351 0.137193Z"/>
</mask>
<path d="M15.6973 5.19933L14.2831 6.61354L14.2834 6.6139L15.6973 5.19933ZM10.6351 0.137193L9.22021 1.55068L9.22093 1.55141L10.6351 0.137193ZM9.97294 0.137193L11.3872 1.55141L11.3879 1.55068L9.97294 0.137193ZM9.95149 0.158642L11.3655 1.57307L11.3657 1.57286L9.95149 0.158642ZM9.67537 2.11536L10.9779 3.63306L12.2153 2.57113L11.4243 1.14523L9.67537 2.11536ZM4.37871 6.66113L3.04596 8.15237L4.35202 9.31961L5.68124 8.17883L4.37871 6.66113ZM1.34476 6.74805L2.75898 8.16226L2.75913 8.1621L1.34476 6.74805ZM1.31301 6.7798L2.72686 8.19438L2.72722 8.19401L1.31301 6.7798ZM1.31301 7.442L2.72722 6.02779L2.72686 6.02743L1.31301 7.442ZM4.34564 10.4746L5.75983 11.8889L7.1741 10.4747L5.75986 9.06042L4.34564 10.4746ZM1.86038 12.9598L0.446191 11.5456L0.396099 11.5957L0.349676 11.6492L1.86038 12.9598ZM0.420771 14.671L-1.15609 13.4408H-1.15609L0.420771 14.671ZM1.32603 15.5763L0.0341375 14.0495L0.0341359 14.0495L1.32603 15.5763ZM3.04175 14.1319L4.32805 15.6634L4.39455 15.6075L4.45597 15.5461L3.04175 14.1319ZM5.52224 11.6514L6.93645 10.2372L5.52224 8.823L4.10803 10.2372L5.52224 11.6514ZM8.39247 14.5216L9.8074 13.1082L9.80668 13.1074L8.39247 14.5216ZM9.05467 14.5216L7.64047 13.1074L7.63901 13.1089L9.05467 14.5216ZM9.08642 14.4899L7.67236 13.0755L7.67223 13.0757L9.08642 14.4899ZM9.17334 11.4559L7.65564 10.1534L6.51501 11.4825L7.68193 12.7885L9.17334 11.4559ZM13.7191 6.15928L14.6892 4.41033L13.2633 3.6194L12.2014 4.85675L13.7191 6.15928ZM15.6758 5.88316L14.2616 4.46893L14.2612 4.46938L15.6758 5.88316ZM15.6973 5.86171L17.1115 7.27594L17.1119 7.27556L15.6973 5.86171ZM0 15.5L-1.99637 15.3795L-2 15.4397V15.5H0ZM0.465194 16L0.638759 14.0075L0.55214 14H0.465194V16ZM0 16H-2V18H0V16ZM17.1115 3.78511L12.0494 -1.27702L9.22093 1.55141L14.2831 6.61354L17.1115 3.78511ZM12.0501 -1.2763C11.0861 -2.24123 9.52196 -2.24123 8.55801 -1.2763L11.3879 1.55068C10.7894 2.14977 9.81868 2.14977 9.22021 1.55068L12.0501 -1.2763ZM8.55874 -1.27703L8.53729 -1.25558L11.3657 1.57286L11.3872 1.55141L8.55874 -1.27703ZM8.53749 -1.25579C7.85192 -0.570423 7.47006 0.351137 7.47006 1.32063H11.4701C11.4701 1.41231 11.4303 1.50832 11.3655 1.57307L8.53749 -1.25579ZM7.47006 1.32063C7.47006 1.94593 7.6298 2.55075 7.92642 3.08549L11.4243 1.14523C11.454 1.19874 11.4701 1.26088 11.4701 1.32063H7.47006ZM8.37284 0.597668L3.07617 5.14343L5.68124 8.17883L10.9779 3.63306L8.37284 0.597668ZM5.71145 5.16989C4.93936 4.47987 3.94747 4.10055 2.90791 4.10055V8.10056C2.96439 8.10056 3.0073 8.11782 3.04596 8.15237L5.71145 5.16989ZM2.90791 4.10055C1.78699 4.10055 0.723034 4.54117 -0.0696119 5.33399L2.75913 8.1621C2.8014 8.11983 2.84772 8.10056 2.90791 8.10056V4.10055ZM-0.0694559 5.33384L-0.101208 5.36559L2.72722 8.19401L2.75898 8.16226L-0.0694559 5.33384ZM-0.100842 5.36523C-1.0653 6.32919 -1.0653 7.89262 -0.100842 8.85658L2.72686 6.02743C3.32547 6.62573 3.32547 7.59608 2.72686 8.19438L-0.100842 5.36523ZM-0.101205 8.85622L2.93143 11.8888L5.75986 9.06042L2.72722 6.02779L-0.101205 8.85622ZM2.93146 9.0604L0.446191 11.5456L3.27456 14.374L5.75983 11.8889L2.93146 9.0604ZM1.86038 12.9598C0.349676 11.6492 0.349658 11.6492 0.349637 11.6492C0.349624 11.6492 0.349598 11.6493 0.349573 11.6493C0.349523 11.6493 0.349458 11.6494 0.349376 11.6495C0.349213 11.6497 0.348987 11.65 0.3487 11.6503C0.348124 11.651 0.347301 11.6519 0.346236 11.6531C0.344106 11.6556 0.34101 11.6592 0.336998 11.6638C0.328976 11.6731 0.317289 11.6865 0.302348 11.7038C0.272473 11.7384 0.22955 11.788 0.176864 11.8492C0.0716079 11.9713 -0.0731814 12.1399 -0.23105 12.3251C-0.536594 12.6837 -0.924374 13.1438 -1.15609 13.4408L1.99763 15.9013C2.16774 15.6833 2.49976 15.2877 2.81356 14.9194C2.96537 14.7413 3.10514 14.5786 3.20703 14.4603C3.25791 14.4013 3.2992 14.3535 3.32765 14.3206C3.34187 14.3042 3.35288 14.2915 3.36025 14.2829C3.36394 14.2787 3.36672 14.2755 3.36854 14.2734C3.36945 14.2723 3.37012 14.2716 3.37055 14.2711C3.37076 14.2708 3.37091 14.2706 3.371 14.2705C3.37104 14.2705 3.37107 14.2705 3.37109 14.2704C3.37109 14.2704 3.37109 14.2704 3.37109 14.2704C3.37109 14.2704 3.37108 14.2704 1.86038 12.9598ZM2.61792 17.1031C2.8825 16.8792 3.30926 16.5199 3.6716 16.2152C3.8524 16.0631 4.01655 15.9251 4.1355 15.8252C4.19497 15.7752 4.24313 15.7347 4.27642 15.7068C4.29306 15.6928 4.30598 15.6819 4.31473 15.6746C4.31911 15.6709 4.32245 15.6681 4.32468 15.6662C4.3258 15.6653 4.32665 15.6646 4.32721 15.6641C4.32749 15.6639 4.3277 15.6637 4.32784 15.6636C4.32791 15.6635 4.32796 15.6635 4.328 15.6634C4.32802 15.6634 4.32803 15.6634 4.32804 15.6634C4.32804 15.6634 4.32805 15.6634 3.04175 14.1319C1.75546 12.6004 1.75545 12.6004 1.75544 12.6004C1.75543 12.6004 1.75542 12.6005 1.7554 12.6005C1.75536 12.6005 1.75531 12.6006 1.75523 12.6006C1.75509 12.6007 1.75487 12.6009 1.75458 12.6012C1.754 12.6016 1.75314 12.6024 1.75201 12.6033C1.74975 12.6052 1.74638 12.608 1.74198 12.6117C1.73316 12.6192 1.72018 12.6301 1.70348 12.6441C1.67006 12.6722 1.62176 12.7127 1.56212 12.7629C1.44287 12.8631 1.27828 13.0014 1.09694 13.1539C0.735003 13.4583 0.303905 13.8213 0.0341375 14.0495L2.61792 17.1031ZM4.45597 15.5461L6.93645 13.0656L4.10803 10.2372L1.62754 12.7177L4.45597 15.5461ZM4.10803 13.0656L6.97825 15.9359L9.80668 13.1074L6.93645 10.2372L4.10803 13.0656ZM6.97753 15.9351C7.45948 16.4176 8.09519 16.6589 8.72357 16.6589V12.6589C9.11236 12.6589 9.50828 12.8087 9.8074 13.1082L6.97753 15.9351ZM8.72357 16.6589C9.35134 16.6589 9.98776 16.418 10.4703 15.9344L7.63901 13.1089C7.93893 12.8083 8.33538 12.6589 8.72357 12.6589V16.6589ZM10.4689 15.9359L10.5006 15.9041L7.67223 13.0757L7.64047 13.1074L10.4689 15.9359ZM10.5005 15.9043C11.2933 15.1116 11.7339 14.0475 11.7339 12.9267H7.73391C7.73391 12.9869 7.71461 13.0333 7.67236 13.0755L10.5005 15.9043ZM11.7339 12.9267C11.7339 11.887 11.3544 10.8952 10.6648 10.1234L7.68193 12.7885C7.71669 12.8274 7.73391 12.8705 7.73391 12.9267H11.7339ZM10.691 12.7585L15.2368 7.46182L12.2014 4.85675L7.65564 10.1534L10.691 12.7585ZM12.749 7.90824C13.2837 8.20485 13.8885 8.36459 14.5138 8.36459V4.36459C14.5736 4.36459 14.6357 4.38065 14.6892 4.41033L12.749 7.90824ZM14.5138 8.36459C15.4832 8.36459 16.4049 7.98296 17.0905 7.29695L14.2612 4.46938C14.2907 4.43983 14.3302 4.41223 14.3776 4.3926C14.425 4.37297 14.4723 4.36459 14.5138 4.36459V8.36459ZM17.09 7.29739L17.1115 7.27594L14.2831 4.44748L14.2616 4.46893L17.09 7.29739ZM17.1119 7.27556C18.0749 6.31198 18.076 4.74911 17.1111 3.78475L14.2834 6.6139C13.6844 6.0152 13.6855 5.04541 14.2827 4.44786L17.1119 7.27556ZM-1.15609 13.4408C-1.47019 13.8434 -1.67655 14.2217 -1.80691 14.5605C-1.87172 14.7289 -1.91629 14.8839 -1.94611 15.0226C-1.96098 15.0919 -1.97208 15.1565 -1.98019 15.2162C-1.98425 15.2461 -1.98755 15.2747 -1.99021 15.3019C-1.99154 15.3155 -1.99271 15.3288 -1.99373 15.3417C-1.99424 15.3482 -1.99472 15.3546 -1.99516 15.3609C-1.99538 15.364 -1.99559 15.3671 -1.99579 15.3703C-1.99589 15.3718 -1.99599 15.3733 -1.99608 15.3749C-1.99613 15.3757 -1.9962 15.3768 -1.99623 15.3772C-1.9963 15.3783 -1.99637 15.3795 0 15.5C1.99637 15.6205 1.9963 15.6217 1.99623 15.6228C1.9962 15.6232 1.99613 15.6243 1.99608 15.6251C1.99599 15.6266 1.99589 15.6281 1.99579 15.6296C1.9956 15.6327 1.99539 15.6357 1.99519 15.6387C1.99477 15.6447 1.99433 15.6506 1.99387 15.6564C1.99294 15.6681 1.99193 15.6796 1.99084 15.6908C1.98865 15.7132 1.98614 15.7345 1.98339 15.7548C1.97788 15.7953 1.97141 15.8314 1.96459 15.8632C1.95088 15.927 1.93616 15.9712 1.92631 15.9968C1.90589 16.0499 1.90991 16.0137 1.99763 15.9013L-1.15609 13.4408ZM0.0341359 14.0495C-0.061627 14.1306 -0.0567976 14.1001 0.0635032 14.0601C0.121913 14.0406 0.200942 14.0212 0.300169 14.01C0.349341 14.0045 0.402353 14.0011 0.45912 14.0005C0.487459 14.0002 0.516618 14.0006 0.546592 14.0017C0.561574 14.0023 0.576748 14.0031 0.592113 14.004C0.599795 14.0045 0.607523 14.0051 0.615298 14.0056C0.619185 14.0059 0.623084 14.0062 0.626994 14.0066C0.628949 14.0067 0.630907 14.0069 0.632868 14.007C0.633848 14.0071 0.635322 14.0072 0.635811 14.0073C0.637285 14.0074 0.638759 14.0075 0.465194 16C0.291628 17.9925 0.293105 17.9926 0.294583 17.9927C0.295078 17.9928 0.296559 17.9929 0.297549 17.993C0.29953 17.9931 0.301517 17.9933 0.303512 17.9935C0.307502 17.9938 0.31152 17.9941 0.315567 17.9944C0.323659 17.995 0.331864 17.9956 0.34018 17.9961C0.356813 17.9971 0.373886 17.998 0.39139 17.9987C0.426406 18.0001 0.463102 18.0006 0.501412 18.0002C0.578121 17.9994 0.660813 17.9947 0.748942 17.9848C0.926084 17.9648 1.12013 17.9242 1.32696 17.8553C1.74409 17.7164 2.17933 17.4742 2.61792 17.1031L0.0341359 14.0495ZM-2 15.5V16H2V15.5H-2ZM0 18H0.465194V14H0V18Z" fill="#333333" mask="url(#path-1-inside-1_3533_11529)"/>
</g>
<defs>
<clipPath id="clip0_3533_11529">
<rect width="16" height="16" fill="white"/>
</clipPath>
</defs>
</svg>
