<svg width="16" height="16" viewBox="0 0 16 16" fill="none" xmlns="http://www.w3.org/2000/svg">
<g clip-path="url(#clip0_260_50584)">
<path fill-rule="evenodd" clip-rule="evenodd" d="M14 6C15.1046 6 16 6.89543 16 8C16 9.10457 15.1046 10 14 10C12.8954 10 12 9.10457 12 8C12 6.89543 12.8954 6 14 6ZM8 6C9.10457 6 10 6.89543 10 8C10 9.10457 9.10457 10 8 10C6.89543 10 6 9.10457 6 8C6 6.89543 6.89543 6 8 6ZM4 8C4 6.89543 3.10457 6 2 6C0.895431 6 -3.91405e-08 6.89543 -8.74228e-08 8C-1.35705e-07 9.10457 0.89543 10 2 10C3.10457 10 4 9.10457 4 8Z" fill="#333333"/>
</g>
<defs>
<clipPath id="clip0_260_50584">
<rect width="16" height="16" fill="white" transform="translate(16) rotate(90)"/>
</clipPath>
</defs>
</svg>
