<svg width="16" height="16" viewBox="0 0 16 16" fill="none" xmlns="http://www.w3.org/2000/svg">
<g clip-path="url(#clip0_5_16946)">
<path fill-rule="evenodd" clip-rule="evenodd" d="M2.98173 1.76932C3.1458 1.637 3.37667 1.63302 3.55181 1.75028L5.06682 2.76461C5.47482 2.53553 5.91232 2.35277 6.3722 2.22344L6.72621 0.435008C6.76716 0.228156 6.93333 0.0676944 7.14301 0.0453639C7.42457 0.0153787 7.71049 0 8 0C8.28951 0 8.57543 0.0153788 8.85699 0.0453639C9.06667 0.0676944 9.23284 0.228155 9.27379 0.435008L9.6278 2.22344C10.0877 2.35277 10.5252 2.53553 10.9332 2.76461L12.4482 1.75028C12.6233 1.63302 12.8542 1.637 13.0183 1.76932C13.4643 2.12903 13.871 2.53567 14.2307 2.98173C14.363 3.1458 14.367 3.37667 14.2497 3.55181L13.2354 5.06682C13.4645 5.47482 13.6472 5.91232 13.7766 6.3722L15.565 6.72621C15.7718 6.76716 15.9323 6.93333 15.9546 7.14301C15.9846 7.42457 16 7.71049 16 8C16 8.28951 15.9846 8.57543 15.9546 8.85699C15.9323 9.06667 15.7718 9.23284 15.565 9.27379L13.7766 9.6278C13.6472 10.0877 13.4645 10.5252 13.2354 10.9332L14.2497 12.4482C14.367 12.6233 14.363 12.8542 14.2307 13.0183C13.871 13.4643 13.4643 13.871 13.0183 14.2307C12.8542 14.363 12.6233 14.367 12.4482 14.2497L10.9332 13.2354C10.5252 13.4645 10.0877 13.6472 9.6278 13.7766L9.27379 15.565C9.23284 15.7718 9.06667 15.9323 8.85699 15.9546C8.57543 15.9846 8.28951 16 8 16C7.71049 16 7.42457 15.9846 7.14301 15.9546C6.93333 15.9323 6.76716 15.7718 6.72621 15.565L6.3722 13.7766C5.91232 13.6472 5.47482 13.4645 5.06682 13.2354L3.55181 14.2497C3.37667 14.367 3.1458 14.363 2.98173 14.2307C2.53567 13.871 2.12903 13.4643 1.76932 13.0183C1.637 12.8542 1.63302 12.6233 1.75028 12.4482L2.76461 10.9332C2.53553 10.5252 2.35277 10.0877 2.22344 9.6278L0.435008 9.27379C0.228156 9.23284 0.0676944 9.06667 0.0453639 8.85699C0.0153788 8.57543 0 8.28951 0 8C0 7.71049 0.0153788 7.42457 0.0453639 7.14301C0.0676944 6.93333 0.228155 6.76716 0.435008 6.72621L2.22344 6.3722C2.35277 5.91232 2.53553 5.47482 2.76461 5.06682L1.75028 3.55181C1.63302 3.37667 1.637 3.1458 1.76932 2.98173C2.12903 2.53567 2.53567 2.12903 2.98173 1.76932ZM8 10C9.10457 10 10 9.10457 10 8C10 6.89543 9.10457 6 8 6C6.89543 6 6 6.89543 6 8C6 9.10457 6.89543 10 8 10Z" fill="#A3A9AE"/>
</g>
<defs>
<clipPath id="clip0_5_16946">
<rect width="16" height="16" fill="white"/>
</clipPath>
</defs>
</svg>
