<svg width="16" height="16" viewBox="0 0 16 16" fill="none" xmlns="http://www.w3.org/2000/svg">
<path fill-rule="evenodd" clip-rule="evenodd" d="M1 2C1 1.44769 1.44775 1 2 1H4C4.55225 1 5 1.44769 5 2V4C5 4.55231 4.55225 5 4 5H2C1.44775 5 1 4.55231 1 4V2ZM1 7C1 6.44769 1.44775 6 2 6H4C4.55225 6 5 6.44769 5 7V9C5 9.55231 4.55225 10 4 10H2C1.44775 10 1 9.55231 1 9V7ZM2 11C1.44775 11 1 11.4477 1 12V14C1 14.5523 1.44775 15 2 15H4C4.55225 15 5 14.5523 5 14V12C5 11.4477 4.55225 11 4 11H2ZM6 2C6 1.44769 6.44775 1 7 1H9C9.55225 1 10 1.44769 10 2V4C10 4.55231 9.55225 5 9 5H7C6.44775 5 6 4.55231 6 4V2ZM7 6C6.44775 6 6 6.44769 6 7V9C6 9.55231 6.44775 10 7 10H9C9.55225 10 10 9.55231 10 9V7C10 6.44769 9.55225 6 9 6H7ZM6 12C6 11.4477 6.44775 11 7 11H9C9.55225 11 10 11.4477 10 12V14C10 14.5523 9.55225 15 9 15H7C6.44775 15 6 14.5523 6 14V12ZM12 1C11.4478 1 11 1.44769 11 2V4C11 4.55231 11.4478 5 12 5H14C14.5522 5 15 4.55231 15 4V2C15 1.44769 14.5522 1 14 1H12ZM11 7C11 6.44769 11.4478 6 12 6H14C14.5522 6 15 6.44769 15 7V9C15 9.55231 14.5522 10 14 10H12C11.4478 10 11 9.55231 11 9V7ZM12 11C11.4478 11 11 11.4477 11 12V14C11 14.5523 11.4478 15 12 15H14C14.5522 15 15 14.5523 15 14V12C15 11.4477 14.5522 11 14 11H12Z" fill="#333333"/>
</svg>
