<svg width="16" height="16" viewBox="0 0 16 16" fill="none" xmlns="http://www.w3.org/2000/svg">
<g clip-path="url(#clip0_4275_11951)">
<path fill-rule="evenodd" clip-rule="evenodd" d="M7.99945 2C7.4473 1.99999 6.9997 2.44759 6.9997 2.99973V3.49996C6.9997 4.41131 7.15503 5.1037 7.38205 5.52937C7.58916 5.91771 7.79352 5.99996 7.9997 5.99996C8.20579 5.99996 8.40999 5.9178 8.61699 5.52952C8.84392 5.10385 8.99916 4.41142 8.99916 3.49996V2.99973C8.99916 2.4476 8.55157 2.00001 7.99945 2ZM4.9997 2.99973C4.9997 1.343 6.34276 -3.57621e-05 7.99949 7.14211e-10C9.65617 3.57635e-05 10.9992 1.34305 10.9992 2.99973V3.49996C10.9992 4.5885 10.8213 5.64607 10.3819 6.4704C9.92246 7.33211 9.12694 7.99996 7.9997 7.99996C6.87254 7.99996 6.0769 7.33221 5.61734 6.47055C5.1777 5.64621 4.9997 4.58861 4.9997 3.49996V2.99973ZM2.19486 10.6849C2.81702 9.64685 3.85357 8.64271 5.42864 8.64271C5.72234 8.64271 5.9725 8.74293 6.10807 8.80228C6.25233 8.86544 6.40447 8.94702 6.52657 9.01248L6.54384 9.02174C7.02258 9.2783 7.46362 9.49986 8.00006 9.49986C8.53622 9.49986 8.97707 9.27839 9.4558 9.02182C9.46149 9.01877 9.46726 9.01568 9.4731 9.01255C9.59529 8.94703 9.74757 8.86537 9.89198 8.80217C10.0277 8.74278 10.2782 8.64243 10.5725 8.64271C12.1468 8.64423 13.183 9.64797 13.8051 10.6859C14.4244 11.7188 14.7451 12.9471 14.8913 13.8462C15.0937 15.091 14.0725 16 13.0001 16H3.00006C1.92759 16 0.906516 15.091 1.1088 13.8463C1.25495 12.9469 1.57564 11.7181 2.19486 10.6849ZM3.11175 14H12.8883C12.7537 13.2636 12.497 12.3935 12.0897 11.7142C11.6785 11.0281 11.2145 10.6829 10.6682 10.646C10.6447 10.657 10.6155 10.6714 10.5787 10.6903C10.5268 10.717 10.4702 10.7473 10.4005 10.7846C10.3896 10.7905 10.3785 10.7964 10.3672 10.8025C9.89817 11.0542 9.06781 11.4999 8.00006 11.4999C6.93207 11.4999 6.10156 11.0542 5.63248 10.8024C5.62116 10.7964 5.61004 10.7904 5.59915 10.7846C5.52951 10.7472 5.47295 10.717 5.42114 10.6903C5.38419 10.6713 5.35488 10.6569 5.33135 10.6459C4.78542 10.6821 4.32171 11.0267 3.91036 11.7131C3.5031 12.3926 3.2464 13.2632 3.11175 14Z" fill="#333333"/>
</g>
<defs>
<clipPath id="clip0_4275_11951">
<rect width="16" height="16" fill="white"/>
</clipPath>
</defs>
</svg>
