<svg width="16" height="16" viewBox="0 0 16 16" fill="none" xmlns="http://www.w3.org/2000/svg">
<path fill-rule="evenodd" clip-rule="evenodd" d="M3.75736 3.75736C4.84424 2.67048 6.34287 2 8 2C11.3137 2 14 4.68629 14 8H16C16 3.58172 12.4183 0 8 0C5.79413 0 3.79519 0.894098 2.34903 2.33727L2.34682 2.33941L2.3235 2.36228C2.30404 2.38149 2.27684 2.40861 2.24255 2.44351C2.18243 2.50467 2.10045 2.58976 2 2.69795V1H0V5C0 5.55228 0.447715 6 1 6H5V4H3.52058C3.58201 3.93468 3.632 3.88303 3.66896 3.84542C3.696 3.81791 3.71606 3.79793 3.72851 3.78563L3.7414 3.77298L3.74296 3.77147L3.74328 3.77116L3.74331 3.77114L3.74343 3.77102L3.74997 3.76475L3.75736 3.75736ZM8 14C4.68629 14 2 11.3137 2 8H0C0 12.4183 3.58172 16 8 16C10.3903 16 12.535 14.9513 14 13.2915V15H16V11C16 10.4477 15.5523 10 15 10H11V12H12.4724C11.3728 13.2286 9.77618 14 8 14Z" fill="#333333"/>
</svg>
