<svg width="32" height="26" viewBox="0 0 32 26" fill="none" xmlns="http://www.w3.org/2000/svg">
<path d="M0.5 3C0.5 1.61929 1.61929 0.5 3 0.5H21.1954C21.9785 0.5 22.7163 0.866919 23.1889 1.49134L31.2783 12.1803C31.6858 12.7188 31.6832 13.4633 31.2719 13.999L23.1913 24.5226C22.7182 25.1388 21.9854 25.5 21.2084 25.5H3C1.61929 25.5 0.5 24.3807 0.5 23V3Z" fill="#F8F9F9" stroke="#ECEEF1"/>
<path fill-rule="evenodd" clip-rule="evenodd" d="M12 12L6 12V14L12 14V20H14L14 14H20V12H14V6L12 6L12 12Z" fill="#A3A9AE"/>
</svg>
