<svg width="12" height="12" viewBox="0 0 12 12" fill="none" xmlns="http://www.w3.org/2000/svg">
<path fill-rule="evenodd" clip-rule="evenodd" d="M0.500912 0.800786C0.365458 0.800786 0.248231 0.85037 0.149337 0.94921C0.050169 1.04821 0.00102234 1.16536 0.00102234 1.30079V4.49994C0.00102234 4.63536 0.0504694 4.75253 0.149337 4.85148C0.248259 4.95046 0.365486 4.99991 0.500912 4.99991H3.7821C3.91753 4.99991 4.03475 4.95046 4.13384 4.85148C4.23257 4.75253 4.28218 4.63533 4.28218 4.49994C4.28218 4.36451 4.23254 4.24725 4.13384 4.14828L3.19301 3.1964C3.96392 2.48285 4.95411 1.99986 6.00109 1.99986C6.69896 1.99986 7.34998 2.16919 7.95424 2.50771C8.55844 2.84626 9.04281 3.31244 9.40736 3.90619C9.46472 3.99476 9.60269 4.29944 9.82141 4.82023C9.86311 4.93995 9.94118 4.99988 10.0558 4.99988H11.6105C11.6782 4.99988 11.7367 4.97517 11.7862 4.92567C11.8357 4.87625 11.8605 4.81761 11.8605 4.74991V4.69526C11.5219 3.29933 10.8188 2.16793 9.75103 1.30079C8.68328 0.433531 7.43333 0 6.00098 0C5.24053 0 4.50074 0.144483 3.7821 0.433504C3.06341 0.722497 2.27061 1.22604 1.71334 1.75215L0.85246 0.94921C0.753374 0.85037 0.63631 0.800786 0.500912 0.800786ZM11.5001 11.1966C11.6356 11.1966 11.7528 11.147 11.8517 11.0481C11.9509 10.9491 12 10.832 12 10.6966V7.49741C12 7.36198 11.9506 7.24481 11.8517 7.14586C11.7528 7.04689 11.6355 6.99744 11.5001 6.99744H8.21892C8.0835 6.99744 7.96627 7.04689 7.86718 7.14586C7.76845 7.24481 7.71884 7.36201 7.71884 7.49741C7.71884 7.63283 7.76848 7.75009 7.86718 7.84907L8.80801 8.80094C8.03711 9.51449 7.04691 9.99749 5.99993 9.99749C5.30206 9.99749 4.65104 9.82816 4.04678 9.48963C3.44258 9.15108 2.95821 8.68491 2.59366 8.09116C2.53631 8.00258 2.39834 7.69791 2.17961 7.17711C2.13791 7.05739 2.05984 6.99746 1.94521 6.99746H0.390542C0.322843 6.99746 0.264283 7.02217 0.214782 7.07168C0.165279 7.1211 0.14057 7.17974 0.14057 7.24744V7.30208C0.479119 8.69801 1.18222 9.82941 2.24999 10.6966C3.31775 11.5638 4.56769 11.9973 6.00004 11.9973C6.76049 11.9973 7.50028 11.8529 8.21892 11.5638C8.93762 11.2748 9.73041 10.7713 10.2877 10.2452L11.1486 11.0481C11.2476 11.147 11.3647 11.1966 11.5001 11.1966Z" fill="#A3A9AE"/>
</svg>
