<svg width="16" height="16" viewBox="0 0 16 16" fill="none" xmlns="http://www.w3.org/2000/svg">
<g clip-path="url(#clip0_28469_63832)">
<path fill-rule="evenodd" clip-rule="evenodd" d="M1.72512 8.26705C0.284379 10.1498 0.0271454 12.4155 -5.91278e-05 13.9825C-0.00915718 14.5066 0.387966 14.9488 0.910014 14.9958C1.43206 15.0429 1.90186 14.6789 1.98663 14.1616C2.07359 13.6309 2.24038 12.9427 3.14488 12.3263C4.03662 11.7186 5.73943 11.1174 9.00078 11.0153L9.00052 13C9.00046 13.4045 9.2441 13.7691 9.6178 13.924C9.9915 14.0788 10.4217 13.9932 10.7077 13.7072L15.7071 8.70714C16.0976 8.31664 16.0976 7.68356 15.7072 7.29304L10.7081 2.29299C10.4221 2.00697 9.99203 1.92137 9.61835 2.0761C9.24467 2.23083 9.00098 2.59541 9.00091 2.99986L9.00057 5.02607C5.36674 5.22082 3.08591 6.48878 1.72512 8.26705ZM3.31343 9.48248C4.3189 8.16854 6.22099 6.99978 10.0003 6.99997C10.5526 7 11.0003 6.55238 11.0004 6.00014L11.0005 5.41416L13.5859 8.00004L11.0008 10.5854L11.0009 10.0002C11.0009 9.73498 10.8956 9.48059 10.7081 9.29303C10.5205 9.10546 10.2661 9.00009 10.0009 9.00009C6.61495 9.00009 4.36165 9.46423 2.85465 10.1934C2.98707 9.94832 3.1391 9.7103 3.31343 9.48248Z" fill="#333333"/>
</g>
<defs>
<clipPath id="clip0_28469_63832">
<rect width="16" height="16" fill="white"/>
</clipPath>
</defs>
</svg>
