<svg width="16" height="16" viewBox="0 0 16 16" fill="none" xmlns="http://www.w3.org/2000/svg">
<path fill-rule="evenodd" clip-rule="evenodd" d="M8 2C6.34287 2 4.84424 2.67048 3.75736 3.75736L3.74997 3.76475L3.74343 3.77102L3.74331 3.77114L3.74326 3.77118L3.74296 3.77147L3.7414 3.77298L3.72851 3.78563C3.71606 3.79793 3.696 3.81791 3.66896 3.84542C3.632 3.88303 3.58201 3.93468 3.52058 4H5V6H1C0.447715 6 0 5.55228 0 5V1H2V2.69795C2.10045 2.58976 2.18243 2.50467 2.24255 2.44351C2.27684 2.40861 2.30404 2.38149 2.3235 2.36228L2.34682 2.33941L2.34903 2.33727C3.79519 0.894098 5.79413 0 8 0C12.4183 0 16 3.58172 16 8C16 12.4183 12.4183 16 8 16C3.58172 16 0 12.4183 0 8H2C2 11.3137 4.68629 14 8 14C11.3137 14 14 11.3137 14 8C14 4.68629 11.3137 2 8 2ZM7 3.5V9C7 9.55228 7.44772 10 8 10H11V8H9V3.5H7Z" fill="#657077"/>
</svg>
