<svg width="32" height="32" viewBox="0 0 32 32" fill="none" xmlns="http://www.w3.org/2000/svg">
<g clip-path="url(#clip0_32798_113392)">
<path fill-rule="evenodd" clip-rule="evenodd" d="M16.0012 8C16.3913 8 16.7458 8.22689 16.9092 8.58115L18.6497 12.3546L22.7763 12.8438C23.1637 12.8898 23.4891 13.1568 23.6096 13.5279C23.7302 13.8989 23.624 14.3062 23.3375 14.5711L20.2866 17.3924L21.0965 21.4682C21.1725 21.8509 21.0191 22.2428 20.7035 22.4721C20.3878 22.7015 19.9677 22.7263 19.6272 22.5357L16.0012 20.506L12.3751 22.5357C12.0347 22.7263 11.6145 22.7015 11.2989 22.4721C10.9833 22.2428 10.8298 21.8509 10.9059 21.4682L11.7157 17.3924L8.66483 14.5711C8.3784 14.3062 8.27217 13.8989 8.39273 13.5279C8.51329 13.1568 8.83862 12.8898 9.22604 12.8438L13.3526 12.3546L15.0931 8.58115C15.2565 8.22689 15.611 8 16.0012 8ZM16.0012 11.3875L14.9343 13.7005C14.7886 14.0164 14.4893 14.2338 14.144 14.2747L11.6144 14.5747L13.4846 16.3041C13.7399 16.5402 13.8542 16.8921 13.7865 17.2332L13.29 19.7316L15.5127 18.4874C15.8162 18.3175 16.1861 18.3175 16.4896 18.4874L18.7123 19.7316L18.2159 17.2332C18.1481 16.8921 18.2624 16.5402 18.5178 16.3041L20.3879 14.5747L17.8584 14.2747C17.513 14.2338 17.2137 14.0164 17.0681 13.7005L16.0012 11.3875Z" fill="#F2557C"/>
</g>
<rect x="1" y="1" width="30" height="30" rx="5" stroke="#F2557C" stroke-width="2"/>
<defs>
<clipPath id="clip0_32798_113392">
<rect width="16" height="16" fill="white" transform="translate(8 8)"/>
</clipPath>
</defs>
</svg>
