<svg width="32" height="32" viewBox="0 0 32 32" fill="none" xmlns="http://www.w3.org/2000/svg">
<path fill-rule="evenodd" clip-rule="evenodd" d="M9 13C8.44772 13 8 12.5523 8 12V10C8 9.44772 8.44772 9 9 9H23C23.5523 9 24 9.44772 24 10V12C24 12.5523 23.5523 13 23 13V22C23 22.5523 22.5523 23 22 23H10C9.44772 23 9 22.5523 9 22V13ZM11 14V21H21V14H11ZM13 17C13 16.4477 13.4477 16 14 16H18C18.5523 16 19 16.4477 19 17C19 17.5523 18.5523 18 18 18H14C13.4477 18 13 17.5523 13 17ZM11.5 11C11.2239 11 11 11.2239 11 11.5C11 11.7761 11.2239 12 11.5 12H20.5C20.7761 12 21 11.7761 21 11.5C21 11.2239 20.7761 11 20.5 11H11.5Z" fill="#657077"/>
<rect x="1" y="1" width="30" height="30" rx="5" stroke="#657077" stroke-width="2"/>
</svg>
