<svg width="32" height="32" viewBox="0 0 32 32" fill="none" xmlns="http://www.w3.org/2000/svg">
<g clip-path="url(#clip0_32798_113354)">
<path fill-rule="evenodd" clip-rule="evenodd" d="M18.2929 9.29312C19.5119 8.07417 21.4882 8.07417 22.7071 9.29312C23.9261 10.5121 23.9261 12.4884 22.7071 13.7073L13.7071 22.7073C13.579 22.8355 13.4184 22.9264 13.2426 22.9704L9.24256 23.9704C8.90178 24.0556 8.54129 23.9557 8.29291 23.7073C8.04453 23.459 7.94468 23.0985 8.02988 22.7577L9.02988 18.7577C9.07384 18.5819 9.16476 18.4213 9.29291 18.2931L18.2929 9.29312ZM21.2929 10.7073C20.855 10.2694 20.145 10.2694 19.7071 10.7073L18.9142 11.5002L20.5 13.086L21.2929 12.2931C21.7308 11.8552 21.7308 11.1452 21.2929 10.7073ZM19.0858 14.5002L17.5 12.9144L10.903 19.5115L10.3744 21.6259L12.4888 21.0973L19.0858 14.5002Z" fill="#EB7B0C"/>
</g>
<rect x="1" y="1" width="30" height="30" rx="5" stroke="#EB7B0C" stroke-width="2"/>
<defs>
<clipPath id="clip0_32798_113354">
<rect width="16" height="16" fill="white" transform="translate(8 8)"/>
</clipPath>
</defs>
</svg>
