<svg width="12" height="12" viewBox="0 0 12 12" fill="none" xmlns="http://www.w3.org/2000/svg">
<path fill-rule="evenodd" clip-rule="evenodd" d="M0 4C0 2.34315 1.34315 1 3 1H8C9.65685 1 11 2.34315 11 4V9C11 10.6569 9.65685 12 8 12H3C1.34315 12 0 10.6569 0 9V4ZM3 3C2.44772 3 2 3.44772 2 4V9C2 9.55228 2.44772 10 3 10H8C8.55228 10 9 9.55228 9 9V4C9 3.44772 8.55228 3 8 3H3Z" fill="#657077"/>
<path d="M3 4H5V6H3V4Z" fill="#657077"/>
<path d="M6 4H8V6H6V4Z" fill="#657077"/>
<path d="M6 7H8V9H6V7Z" fill="#657077"/>
<path d="M3 7H5V9H3V7Z" fill="#657077"/>
</svg>
