<svg width="16" height="16" viewBox="0 0 16 16" fill="none" xmlns="http://www.w3.org/2000/svg">
<path fill-rule="evenodd" clip-rule="evenodd" d="M1 5C0.447715 5 0 4.55228 0 4V2C0 1.44772 0.447715 1 1 1H15C15.5523 1 16 1.44772 16 2V4C16 4.55228 15.5523 5 15 5V14C15 14.5523 14.5523 15 14 15H2C1.44772 15 1 14.5523 1 14V5ZM3 6V13H13V6H3ZM5 9C5 8.44772 5.44772 8 6 8H10C10.5523 8 11 8.44772 11 9C11 9.55229 10.5523 10 10 10H6C5.44772 10 5 9.55229 5 9ZM3.5 3C3.22386 3 3 3.22386 3 3.5C3 3.77614 3.22386 4 3.5 4H12.5C12.7761 4 13 3.77614 13 3.5C13 3.22386 12.7761 3 12.5 3H3.5Z" fill="#A3A9AE"/>
</svg>
