<svg width="32" height="32" viewBox="0 0 32 32" fill="none" xmlns="http://www.w3.org/2000/svg">
<path fill-rule="evenodd" clip-rule="evenodd" d="M12.4985 18.4663C11.471 17.6138 10.663 16.6128 10.2143 16C10.663 15.3872 11.471 14.3862 12.4985 13.5337C13.5825 12.6344 14.7903 12 15.999 12C17.2078 12 18.4155 12.6344 19.4995 13.5337C20.5271 14.3862 21.335 15.3872 21.7838 16C21.335 16.6128 20.5271 17.6138 19.4995 18.4663C18.4155 19.3656 17.2078 20 15.999 20C14.7903 20 13.5825 19.3656 12.4985 18.4663ZM15.999 10C14.1106 10 12.4561 10.9702 11.2215 11.9944C9.97136 13.0316 9.02734 14.2275 8.54154 14.8996C8.06428 15.5599 8.06428 16.4401 8.54154 17.1004C9.02735 17.7725 9.97136 18.9684 11.2215 20.0056C12.4561 21.0298 14.1106 22 15.999 22C17.8874 22 19.5419 21.0298 20.7765 20.0056C22.0267 18.9684 22.9707 17.7725 23.4565 17.1004C23.9338 16.4401 23.9338 15.5599 23.4565 14.8996C22.9707 14.2275 22.0267 13.0316 20.7765 11.9944C19.5419 10.9702 17.8874 10 15.999 10ZM15.999 14C14.8945 14 13.999 14.8954 13.999 16C13.999 17.1046 14.8945 18 15.999 18C17.1036 18 17.999 17.1046 17.999 16C17.999 14.8954 17.1036 14 15.999 14Z" fill="#388BDE"/>
<rect x="1" y="1" width="30" height="30" rx="5" stroke="#388BDE" stroke-width="2"/>
</svg>
