<svg width="24" height="24" viewBox="0 0 24 24" fill="none" xmlns="http://www.w3.org/2000/svg">
<rect x="1.75" y="1.75" width="20.5" height="20.5" rx="3.25" stroke="#657077" stroke-width="1.5"/>
<path d="M7 6.25C6.58579 6.25 6.25 6.58579 6.25 7L6.25 13.75C6.25 14.1642 6.58579 14.5 7 14.5C7.41421 14.5 7.75 14.1642 7.75 13.75L7.75 7.75L13.75 7.75C14.1642 7.75 14.5 7.41421 14.5 7C14.5 6.58579 14.1642 6.25 13.75 6.25L7 6.25ZM17 17.75C17.4142 17.75 17.75 17.4142 17.75 17L17.75 10.25C17.75 9.83579 17.4142 9.5 17 9.5C16.5858 9.5 16.25 9.83579 16.25 10.25V16.25H10.25C9.83579 16.25 9.5 16.5858 9.5 17C9.5 17.4142 9.83579 17.75 10.25 17.75L17 17.75ZM6.46967 7.53033L16.4697 17.5303L17.5303 16.4697L7.53033 6.46967L6.46967 7.53033Z" fill="#657077"/>
</svg>
