<svg width="18" height="20" viewBox="0 0 18 20" fill="none" xmlns="http://www.w3.org/2000/svg">
<path fill-rule="evenodd" clip-rule="evenodd" d="M0.244609 2.7991C0.280801 2.54115 0.467822 2.32912 0.720639 2.2594L8.82343 0.0239217C8.93904 -0.00797391 9.06105 -0.00797391 9.17657 0.0239217L17.2794 2.2594C17.5322 2.32912 17.7192 2.54124 17.7554 2.7991C17.8024 3.13444 18.8745 11.0557 16.1246 14.9962C13.3779 18.9321 9.3259 19.9407 9.1547 19.9818C9.10383 19.9939 9.052 20 9 20C8.948 20 8.89617 19.994 8.84531 19.9818C8.67418 19.9407 4.62217 18.9321 1.87545 14.9962C-0.874533 11.0556 0.197612 3.13436 0.244609 2.7991ZM10.7183 17.1926C9.97606 17.5963 9.35298 17.8289 9.00002 17.9442C8.647 17.8289 8.02396 17.5962 7.28175 17.1926C6.10269 16.5514 4.66872 15.5041 3.51556 13.8517C2.49926 12.3953 2.07867 9.94885 2.01039 7.49014C1.97021 6.04306 2.05424 4.75284 2.12887 3.94561L9 2.04993L15.8711 3.94561C15.9458 4.75288 16.0298 6.04312 15.9896 7.4902C15.9213 9.94892 15.5007 12.3954 14.4845 13.8516L14.4844 13.8517C13.3313 15.5041 11.8974 16.5514 10.7183 17.1926ZM13.3892 7.73261C13.5845 7.53735 13.5845 7.22077 13.3892 7.0255L12.6821 6.3184C12.4868 6.12314 12.1702 6.12314 11.975 6.3184L8.08582 10.2076L7.02509 9.14682C6.82983 8.95156 6.51325 8.95156 6.31798 9.14682L5.61088 9.85393C5.41562 10.0492 5.41562 10.3658 5.61088 10.561L7.73227 12.6824C7.92753 12.8777 8.24412 12.8777 8.43938 12.6824L13.3892 7.73261Z" fill="#657077"/>
</svg>
