<svg width="100" height="100" viewBox="0 0 100 100" fill="none" xmlns="http://www.w3.org/2000/svg">
<g id="For empty screen">
<g id="Group 40828">
<path id="Vector" d="M77.5824 82.4878H17.5395C15.8932 82.4878 14.6342 81.2195 14.6342 79.561V36.6342C14.6342 34.9756 15.8932 33.7073 17.5395 33.7073H77.5824C79.2288 33.7073 80.4878 34.9756 80.4878 36.6342V79.561C80.4878 81.2195 79.2288 82.4878 77.5824 82.4878Z" fill="#EFEFEF"/>
<path id="Vector_2" d="M14.6343 36.3665C14.6343 35.2857 16.2039 33.7073 17.2812 33.7073H76.6211C77.6001 33.7073 78.986 33.7073 79.2307 35.5377C79.2754 35.8715 79.5415 36.1463 79.8782 36.1463C80.2149 36.1463 80.4934 35.8716 80.4424 35.5387C80.1595 33.6937 78.5893 32.4878 76.6211 32.4878H17.2812C15.1045 32.4878 13.4146 34.1829 13.4146 36.3665V54.4389C13.4146 55.1124 13.9606 55.6585 14.6343 55.6585V36.3665Z" fill="#444444"/>
<path id="Vector_3" d="M77.5824 82.4878H17.5395C15.8932 82.4878 14.6342 81.2343 14.6342 79.5949V41.0244H80.4878V79.5949C80.4878 81.2343 79.2288 82.4878 77.5824 82.4878Z" fill="white"/>
<path id="Vector_4" fill-rule="evenodd" clip-rule="evenodd" d="M13.4146 42.0372C13.4146 41.4778 13.8603 41.0244 14.41 41.0244H61.5854C61.9221 41.0244 62.1951 41.2974 62.1951 41.6341C62.1951 41.9708 61.9221 42.2439 61.5854 42.2439H14.6342V57.5311C14.6342 57.8678 14.3611 58.1408 14.0244 58.1408C13.6877 58.1408 13.4146 57.8678 13.4146 57.5311V42.0372ZM79.8781 72.7317C79.5414 72.7317 79.2683 73.0048 79.2683 73.3415V74.561C79.2683 74.8977 79.5414 75.1707 79.8781 75.1707C80.2148 75.1707 80.4878 74.8977 80.4878 74.561V73.3415C80.4878 73.0048 80.2148 72.7317 79.8781 72.7317ZM46.3415 84.3171C46.3415 83.9804 46.6145 83.7073 46.9512 83.7073H49.3903C49.727 83.7073 50 83.9804 50 84.3171C50 84.6538 49.727 84.9268 49.3903 84.9268H46.9512C46.6145 84.9268 46.3415 84.6538 46.3415 84.3171Z" fill="#444444"/>
<path id="Vector_5" d="M18.2927 38.5854C18.9662 38.5854 19.5122 38.0394 19.5122 37.3658C19.5122 36.6923 18.9662 36.1463 18.2927 36.1463C17.6192 36.1463 17.0732 36.6923 17.0732 37.3658C17.0732 38.0394 17.6192 38.5854 18.2927 38.5854Z" fill="#444444"/>
<path id="Vector_6" d="M23.1707 38.5854C23.8443 38.5854 24.3903 38.0394 24.3903 37.3658C24.3903 36.6923 23.8443 36.1463 23.1707 36.1463C22.4972 36.1463 21.9512 36.6923 21.9512 37.3658C21.9512 38.0394 22.4972 38.5854 23.1707 38.5854Z" fill="#444444"/>
<path id="Vector_7" d="M28.0488 38.5854C28.7223 38.5854 29.2683 38.0394 29.2683 37.3658C29.2683 36.6923 28.7223 36.1463 28.0488 36.1463C27.3752 36.1463 26.8293 36.6923 26.8293 37.3658C26.8293 38.0394 27.3752 38.5854 28.0488 38.5854Z" fill="#444444"/>
<rect id="Rectangle 2242" x="18.2927" y="44.6829" width="36.5854" height="1.21951" rx="0.609756" fill="#EFEFEF"/>
<rect id="Rectangle 2243" x="20.7317" y="48.3415" width="36.5854" height="1.21951" rx="0.609756" fill="#EFEFEF"/>
<rect id="Rectangle 2244" x="18.2927" y="52" width="36.5854" height="1.21951" rx="0.609756" fill="#EFEFEF"/>
<path id="Vector_8" d="M36.5854 32.4878L46.3415 22.7317L56.0976 32.4878" stroke="#444444" stroke-linecap="round" stroke-linejoin="round"/>
<path id="Vector_9" d="M48.9592 18.3754V15.2205H47.5608H46.1622V19.1642C46.1622 19.1642 48.7727 19.8543 48.7727 22.4177C48.7727 24.291 47.3743 25.7698 45.6028 25.7698C44.0178 25.7698 42.7125 24.5867 42.526 23.0093C42.526 23.2065 42.4328 23.5022 42.4328 23.6994C42.4328 26.6572 44.7637 29.0234 47.5608 29.0234C50.3577 29.0234 52.6887 26.6572 52.6887 23.6994C52.6887 21.0375 51.1969 18.967 48.9592 18.3754Z" fill="#EFEFEF"/>
<path id="Vector_10" d="M49.3194 17.6279C49.3194 17.8747 49.4682 18.0973 49.6963 18.1915C51.7188 19.0267 53.0488 21.1044 53.0488 23.6994C53.0488 26.928 50.5167 29.439 47.561 29.439C44.6052 29.439 42.0732 26.928 42.0732 23.6994C42.0732 23.6161 42.0828 23.5343 42.0929 23.4662C42.1028 23.4001 42.1156 23.3318 42.1266 23.2738L42.1279 23.2666C42.1399 23.2036 42.1499 23.1508 42.1569 23.1027C42.1594 23.0867 42.1611 23.0734 42.1624 23.0627C42.1648 23.0423 42.1661 23.0219 42.1665 23.0015C42.1704 22.756 42.3456 22.6049 42.5061 22.5944C42.6648 22.5839 42.854 22.7091 42.8829 22.9537C43.0401 24.2835 44.1574 25.3543 45.603 25.3543C47.2074 25.3543 48.4132 24.0289 48.4132 22.4177C48.4132 21.3289 47.8683 20.6282 47.2717 20.1774C46.9743 19.9528 46.6739 19.7993 46.4465 19.7019C46.3333 19.6535 46.2397 19.6196 46.1756 19.5982C46.1435 19.5874 46.119 19.5799 46.1032 19.5752L46.0999 19.5743L46.0922 19.5719L46.0812 19.5689C45.9377 19.53 45.8026 19.3779 45.8026 19.1641V15.2205C45.8026 14.9584 45.9954 14.8049 46.1624 14.8049H48.9595C49.1266 14.8049 49.3194 14.9584 49.3194 15.2205V17.6279Z" fill="#AAAAAA" stroke="#444444" stroke-miterlimit="10" stroke-linecap="round" stroke-linejoin="round"/>
<path id="Vector_11" d="M97.561 38.5854H67.0732V69.0732H97.561V38.5854Z" fill="white"/>
<path id="Vector_12" fill-rule="evenodd" clip-rule="evenodd" d="M66.4634 41.0244C66.1267 41.0244 65.8537 40.7513 65.8537 40.4146V38.5854C65.8537 37.9118 66.3996 37.3658 67.0732 37.3658H68.9024C69.2392 37.3658 69.5122 37.6389 69.5122 37.9756C69.5122 38.3123 69.2392 38.5854 68.9024 38.5854H67.0732V40.4146C67.0732 40.7513 66.8001 41.0244 66.4634 41.0244ZM79.5732 37.9756C79.5732 37.6389 79.3001 37.3658 78.9634 37.3658H74.6951C74.3584 37.3658 74.0854 37.6389 74.0854 37.9756C74.0854 38.3123 74.3584 38.5854 74.6951 38.5854H78.9634C79.3001 38.5854 79.5732 38.3123 79.5732 37.9756ZM85.6707 37.3658C85.334 37.3658 85.061 37.6389 85.061 37.9756C85.061 38.3123 85.334 38.5854 85.6707 38.5854H89.939C90.2757 38.5854 90.5488 38.3123 90.5488 37.9756C90.5488 37.6389 90.2757 37.3658 89.939 37.3658H85.6707ZM95.7317 37.3658C95.3951 37.3658 95.122 37.6389 95.122 37.9756C95.122 38.3123 95.3951 38.5854 95.7317 38.5854H97.561V40.4146C97.561 40.7513 97.8342 41.0244 98.1707 41.0244C98.5073 41.0244 98.7805 40.7513 98.7805 40.4146V38.5854C98.7805 37.9118 98.2342 37.3658 97.561 37.3658H96.9512H95.7317ZM98.7805 46.2073C98.7805 45.8706 98.5073 45.5976 98.1707 45.5976C97.8342 45.5976 97.561 45.8706 97.561 46.2073V50.4756C97.561 50.8123 97.8342 51.0854 98.1707 51.0854C98.5073 51.0854 98.7805 50.8123 98.7805 50.4756V46.2073ZM98.7805 57.1829C98.7805 56.8462 98.5073 56.5732 98.1707 56.5732C97.8342 56.5732 97.561 56.8462 97.561 57.1829V61.4512C97.561 61.7879 97.8342 62.061 98.1707 62.061C98.5073 62.061 98.7805 61.7879 98.7805 61.4512V57.1829ZM98.7805 67.2439C98.7805 66.9072 98.5073 66.6341 98.1707 66.6341C97.8342 66.6341 97.561 66.9072 97.561 67.2439V69.0732H95.7317C95.3951 69.0732 95.122 69.3462 95.122 69.6829C95.122 70.0196 95.3951 70.2927 95.7317 70.2927H97.561C98.2342 70.2927 98.7805 69.7467 98.7805 69.0732V67.2439ZM89.939 70.2927C90.2757 70.2927 90.5488 70.0196 90.5488 69.6829C90.5488 69.3462 90.2757 69.0732 89.939 69.0732H85.6707C85.334 69.0732 85.061 69.3462 85.061 69.6829C85.061 70.0196 85.334 70.2927 85.6707 70.2927H89.939ZM78.9634 70.2927C79.3001 70.2927 79.5732 70.0196 79.5732 69.6829C79.5732 69.3462 79.3001 69.0732 78.9634 69.0732H74.6951C74.3584 69.0732 74.0854 69.3462 74.0854 69.6829C74.0854 70.0196 74.3584 70.2927 74.6951 70.2927H78.9634ZM68.9024 70.2927C69.2392 70.2927 69.5122 70.0196 69.5122 69.6829C69.5122 69.3462 69.2392 69.0732 68.9024 69.0732H67.0732V67.2439C67.0732 66.9072 66.8001 66.6341 66.4634 66.6341C66.1267 66.6341 65.8537 66.9072 65.8537 67.2439V69.0732C65.8537 69.7467 66.3996 70.2927 67.0732 70.2927H68.9024ZM65.8537 61.4512C65.8537 61.7879 66.1267 62.061 66.4634 62.061C66.8001 62.061 67.0732 61.7879 67.0732 61.4512V57.1829C67.0732 56.8462 66.8001 56.5732 66.4634 56.5732C66.1267 56.5732 65.8537 56.8462 65.8537 57.1829V61.4512ZM65.8537 50.4756C65.8537 50.8123 66.1267 51.0854 66.4634 51.0854C66.8001 51.0854 67.0732 50.8123 67.0732 50.4756V46.2073C67.0732 45.8706 66.8001 45.5976 66.4634 45.5976C66.1267 45.5976 65.8537 45.8706 65.8537 46.2073V50.4756Z" fill="#808080"/>
<path id="Vector_13" d="M65.8537 38.5854C66.5272 38.5854 67.0732 38.0394 67.0732 37.3658C67.0732 36.6923 66.5272 36.1463 65.8537 36.1463C65.1801 36.1463 64.6342 36.6923 64.6342 37.3658C64.6342 38.0394 65.1801 38.5854 65.8537 38.5854Z" fill="#808080"/>
<path id="Vector_14" d="M98.7805 38.5854C99.4537 38.5854 100 38.0394 100 37.3658C100 36.6923 99.4537 36.1463 98.7805 36.1463C98.1073 36.1463 97.561 36.6923 97.561 37.3658C97.561 38.0394 98.1073 38.5854 98.7805 38.5854Z" fill="#808080"/>
<path id="Vector_15" d="M65.8537 71.5122C66.5272 71.5122 67.0732 70.9662 67.0732 70.2927C67.0732 69.6191 66.5272 69.0732 65.8537 69.0732C65.1801 69.0732 64.6342 69.6191 64.6342 70.2927C64.6342 70.9662 65.1801 71.5122 65.8537 71.5122Z" fill="#808080"/>
<path id="Vector_16" d="M98.7805 71.5122C99.4537 71.5122 100 70.9662 100 70.2927C100 69.6191 99.4537 69.0732 98.7805 69.0732C98.1073 69.0732 97.561 69.6191 97.561 70.2927C97.561 70.9662 98.1073 71.5122 98.7805 71.5122Z" fill="#808080"/>
<path id="Vector_17" d="M91.9584 65.4146H73.8954C72.1605 65.4146 70.7317 64.063 70.7317 62.4217V45.2368C70.7317 43.5955 72.1605 42.2439 73.8954 42.2439H91.9584C94.5122 42.2439 95.1219 43.5955 95.1219 45.2368V62.3252C95.1219 64.1951 93.9024 65.4146 91.9584 65.4146Z" fill="white"/>
<path id="Vector_18" fill-rule="evenodd" clip-rule="evenodd" d="M73.7876 42.2439C72.6251 42.2439 70.7317 43.9844 70.7317 45.0897V62.5688C70.7317 64.1951 71.9512 65.4146 73.7876 65.4146H92.0661C93.9024 65.4146 95.1219 64.1951 95.1219 62.3658V45.0897C95.1219 43.4634 93.9024 42.2439 92.0661 42.2439H73.7876ZM69.5122 45.0897C69.5122 42.8563 71.4389 41.0244 73.7876 41.0244H92.0661C94.4146 41.0244 96.3415 42.8563 96.3415 45.0897V62.4706C96.3415 64.7808 94.4366 66.6341 92.0661 66.6341H73.7876C71.4389 66.6341 69.5122 64.8022 69.5122 62.5688V45.0897Z" fill="#444444"/>
<path id="Vector_19" d="M76.8293 50.7805C76.8293 50.107 76.2833 49.561 75.6098 49.561C74.9362 49.561 74.3902 50.107 74.3902 50.7805V60.5366C74.3902 61.2101 74.9362 61.7561 75.6098 61.7561C76.2833 61.7561 76.8293 61.2101 76.8293 60.5366V50.7805Z" fill="#FF6F3D"/>
<path id="Vector_20" d="M81.7073 55.6585C81.7073 54.985 81.1613 54.439 80.4878 54.439C79.8143 54.439 79.2683 54.985 79.2683 55.6585V60.5366C79.2683 61.2101 79.8143 61.7561 80.4878 61.7561C81.1613 61.7561 81.7073 61.2101 81.7073 60.5366V55.6585Z" fill="#FF6F3D"/>
<path id="Vector_21" d="M86.5854 53.2195C86.5854 52.546 86.0394 52 85.3658 52C84.6923 52 84.1463 52.546 84.1463 53.2195V60.5366C84.1463 61.2101 84.6923 61.7561 85.3658 61.7561C86.0394 61.7561 86.5854 61.2101 86.5854 60.5366V53.2195Z" fill="#FF6F3D"/>
<path id="Vector_22" d="M91.4634 47.1219C91.4634 46.4484 90.9174 45.9024 90.2439 45.9024C89.5704 45.9024 89.0244 46.4484 89.0244 47.1219V60.5366C89.0244 61.2101 89.5704 61.7561 90.2439 61.7561C90.9174 61.7561 91.4634 61.2101 91.4634 60.5366V47.1219Z" fill="#FF6F3D"/>
<path id="Vector_23" d="M97.561 76.3902H52.439V95.9024H97.561V76.3902Z" fill="white"/>
<path id="Vector_24" fill-rule="evenodd" clip-rule="evenodd" d="M51.814 78.8293C51.4857 78.8293 51.2195 78.563 51.2195 78.2348V76.3902C51.2195 75.7167 51.7655 75.1707 52.439 75.1707H54.1768C54.5135 75.1707 54.7866 75.4438 54.7866 75.7805C54.7866 76.1172 54.5135 76.3902 54.1768 76.3902H52.4085V78.2348C52.4085 78.563 52.1423 78.8293 51.814 78.8293ZM66.0823 75.7805C66.0823 75.4438 65.8093 75.1707 65.4726 75.1707H60.747C60.4102 75.1707 60.1372 75.4438 60.1372 75.7805C60.1372 76.1172 60.4102 76.3902 60.747 76.3902H65.4726C65.8093 76.3902 66.0823 76.1172 66.0823 75.7805ZM72.6372 75.1707C72.3005 75.1707 72.0274 75.4438 72.0274 75.7805C72.0274 76.1172 72.3005 76.3902 72.6372 76.3902H77.3628C77.6995 76.3902 77.9726 76.1172 77.9726 75.7805C77.9726 75.4438 77.6995 75.1707 77.3628 75.1707H72.6372ZM84.5274 75.1707C84.1907 75.1707 83.9177 75.4438 83.9177 75.7805C83.9177 76.1172 84.1907 76.3902 84.5274 76.3902H89.253C89.5898 76.3902 89.8628 76.1172 89.8628 75.7805C89.8628 75.4438 89.5898 75.1707 89.253 75.1707H84.5274ZM95.8232 75.1707C95.4866 75.1707 95.2134 75.4438 95.2134 75.7805C95.2134 76.1172 95.4866 76.3902 95.8232 76.3902H97.5915V78.2348C97.5915 78.563 97.8573 78.8293 98.1854 78.8293C98.5146 78.8293 98.7805 78.563 98.7805 78.2348V76.3902C98.7805 75.7167 98.2341 75.1707 97.561 75.1707H95.8232ZM98.7805 83.997C98.7805 83.6687 98.5146 83.4024 98.1854 83.4024C97.8573 83.4024 97.5915 83.6687 97.5915 83.997V88.2957C97.5915 88.624 97.8573 88.8902 98.1854 88.8902C98.5146 88.8902 98.7805 88.624 98.7805 88.2957V83.997ZM98.7805 94.0585C98.7805 93.7293 98.5146 93.4634 98.1854 93.4634C97.8573 93.4634 97.5915 93.7293 97.5915 94.0585V95.9024H95.8232C95.4866 95.9024 95.2134 96.1756 95.2134 96.5122C95.2134 96.8488 95.4866 97.122 95.8232 97.122H97.561C98.2341 97.122 98.7805 96.5756 98.7805 95.9024V94.0585ZM89.253 97.122C89.5898 97.122 89.8628 96.8488 89.8628 96.5122C89.8628 96.1756 89.5898 95.9024 89.253 95.9024H84.5274C84.1907 95.9024 83.9177 96.1756 83.9177 96.5122C83.9177 96.8488 84.1907 97.122 84.5274 97.122H89.253ZM77.3628 97.122C77.6995 97.122 77.9726 96.8488 77.9726 96.5122C77.9726 96.1756 77.6995 95.9024 77.3628 95.9024H72.6372C72.3005 95.9024 72.0274 96.1756 72.0274 96.5122C72.0274 96.8488 72.3005 97.122 72.6372 97.122H77.3628ZM65.4726 97.122C65.8093 97.122 66.0823 96.8488 66.0823 96.5122C66.0823 96.1756 65.8093 95.9024 65.4726 95.9024H60.747C60.4102 95.9024 60.1372 96.1756 60.1372 96.5122C60.1372 96.8488 60.4102 97.122 60.747 97.122H65.4726ZM54.1768 97.122C54.5135 97.122 54.7866 96.8488 54.7866 96.5122C54.7866 96.1756 54.5135 95.9024 54.1768 95.9024H52.4085V94.0585C52.4085 93.7293 52.1423 93.4634 51.814 93.4634C51.4857 93.4634 51.2195 93.7293 51.2195 94.0585V95.9024C51.2195 96.5756 51.7655 97.122 52.439 97.122H54.1768ZM51.2195 88.2957C51.2195 88.624 51.4857 88.8902 51.814 88.8902C52.1423 88.8902 52.4085 88.624 52.4085 88.2957V83.997C52.4085 83.6687 52.1423 83.4024 51.814 83.4024C51.4857 83.4024 51.2195 83.6687 51.2195 83.997V88.2957Z" fill="#808080"/>
<path id="Vector_25" d="M51.2195 76.3902C51.893 76.3902 52.439 75.8443 52.439 75.1707C52.439 74.4972 51.893 73.9512 51.2195 73.9512C50.546 73.9512 50 74.4972 50 75.1707C50 75.8443 50.546 76.3902 51.2195 76.3902Z" fill="#808080"/>
<path id="Vector_26" d="M98.7805 76.3902C99.4537 76.3902 100 75.8443 100 75.1707C100 74.4972 99.4537 73.9512 98.7805 73.9512C98.1073 73.9512 97.561 74.4972 97.561 75.1707C97.561 75.8443 98.1073 76.3902 98.7805 76.3902Z" fill="#808080"/>
<path id="Vector_27" d="M51.2195 98.3415C51.893 98.3415 52.439 97.7951 52.439 97.1219C52.439 96.4488 51.893 95.9024 51.2195 95.9024C50.546 95.9024 50 96.4488 50 97.1219C50 97.7951 50.546 98.3415 51.2195 98.3415Z" fill="#808080"/>
<path id="Vector_28" d="M98.7805 98.3415C99.4537 98.3415 100 97.7951 100 97.1219C100 96.4488 99.4537 95.9024 98.7805 95.9024C98.1073 95.9024 97.561 96.4488 97.561 97.1219C97.561 97.7951 98.1073 98.3415 98.7805 98.3415Z" fill="#808080"/>
<path id="Vector_29" d="M63.4146 80.0488H57.3171C56.6436 80.0488 56.0976 80.5948 56.0976 81.2683C56.0976 81.9418 56.6436 82.4878 57.3171 82.4878H63.4146C64.0882 82.4878 64.6342 81.9418 64.6342 81.2683C64.6342 80.5948 64.0882 80.0488 63.4146 80.0488Z" fill="#BDECFF"/>
<path id="Vector_30" d="M63.4146 84.9268H57.3171C56.6436 84.9268 56.0976 85.4728 56.0976 86.1463C56.0976 86.8199 56.6436 87.3659 57.3171 87.3659H63.4146C64.0882 87.3659 64.6342 86.8199 64.6342 86.1463C64.6342 85.4728 64.0882 84.9268 63.4146 84.9268Z" fill="#BDECFF"/>
<path id="Vector_31" d="M63.4146 89.8049H57.3171C56.6436 89.8049 56.0976 90.3509 56.0976 91.0244C56.0976 91.6979 56.6436 92.2439 57.3171 92.2439H63.4146C64.0882 92.2439 64.6342 91.6979 64.6342 91.0244C64.6342 90.3509 64.0882 89.8049 63.4146 89.8049Z" fill="#BDECFF"/>
<path id="Vector_32" d="M73.1707 80.0488H67.0732C66.3997 80.0488 65.8537 80.5948 65.8537 81.2683C65.8537 81.9418 66.3997 82.4878 67.0732 82.4878H73.1707C73.8443 82.4878 74.3903 81.9418 74.3903 81.2683C74.3903 80.5948 73.8443 80.0488 73.1707 80.0488Z" fill="#BDECFF"/>
<path id="Vector_33" d="M73.1707 84.9268H67.0732C66.3997 84.9268 65.8537 85.4728 65.8537 86.1463C65.8537 86.8199 66.3997 87.3659 67.0732 87.3659H73.1707C73.8443 87.3659 74.3903 86.8199 74.3903 86.1463C74.3903 85.4728 73.8443 84.9268 73.1707 84.9268Z" fill="#BDECFF"/>
<path id="Vector_34" d="M73.1707 89.8049H67.0732C66.3997 89.8049 65.8537 90.3509 65.8537 91.0244C65.8537 91.6979 66.3997 92.2439 67.0732 92.2439H73.1707C73.8443 92.2439 74.3903 91.6979 74.3903 91.0244C74.3903 90.3509 73.8443 89.8049 73.1707 89.8049Z" fill="#BDECFF"/>
<path id="Vector_35" d="M82.9268 80.0488H76.8293C76.1558 80.0488 75.6098 80.5948 75.6098 81.2683C75.6098 81.9418 76.1558 82.4878 76.8293 82.4878H82.9268C83.6003 82.4878 84.1463 81.9418 84.1463 81.2683C84.1463 80.5948 83.6003 80.0488 82.9268 80.0488Z" fill="#BDECFF"/>
<path id="Vector_36" d="M82.9268 84.9268H76.8293C76.1558 84.9268 75.6098 85.4728 75.6098 86.1463C75.6098 86.8199 76.1558 87.3659 76.8293 87.3659H82.9268C83.6003 87.3659 84.1463 86.8199 84.1463 86.1463C84.1463 85.4728 83.6003 84.9268 82.9268 84.9268Z" fill="#BDECFF"/>
<path id="Vector_37" d="M82.9268 89.8049H76.8293C76.1558 89.8049 75.6098 90.3509 75.6098 91.0244C75.6098 91.6979 76.1558 92.2439 76.8293 92.2439H82.9268C83.6003 92.2439 84.1463 91.6979 84.1463 91.0244C84.1463 90.3509 83.6003 89.8049 82.9268 89.8049Z" fill="#BDECFF"/>
<path id="Vector_38" d="M92.6829 80.0488H86.5854C85.9118 80.0488 85.3658 80.5948 85.3658 81.2683C85.3658 81.9418 85.9118 82.4878 86.5854 82.4878H92.6829C93.3564 82.4878 93.9024 81.9418 93.9024 81.2683C93.9024 80.5948 93.3564 80.0488 92.6829 80.0488Z" fill="#BDECFF"/>
<path id="Vector_39" d="M92.6829 84.9268H86.5854C85.9118 84.9268 85.3658 85.4728 85.3658 86.1463C85.3658 86.8199 85.9118 87.3659 86.5854 87.3659H92.6829C93.3564 87.3659 93.9024 86.8199 93.9024 86.1463C93.9024 85.4728 93.3564 84.9268 92.6829 84.9268Z" fill="#BDECFF"/>
<path id="Vector_40" d="M92.6829 89.8049H86.5854C85.9118 89.8049 85.3658 90.3509 85.3658 91.0244C85.3658 91.6979 85.9118 92.2439 86.5854 92.2439H92.6829C93.3564 92.2439 93.9024 91.6979 93.9024 91.0244C93.9024 90.3509 93.3564 89.8049 92.6829 89.8049Z" fill="#BDECFF"/>
<path id="Vector_41" d="M43.9024 60.5366H2.43903V89.8049H43.9024V60.5366Z" fill="white"/>
<path id="Vector_42" d="M36.142 65.4146H10.1995C8.5661 65.4146 7.31708 66.6226 7.31708 68.2021V82.1394C7.31708 83.7189 8.5661 84.9268 10.1995 84.9268H36.142C37.7754 84.9268 39.0244 83.7189 39.0244 82.1394V68.2021C39.0244 66.6226 37.7754 65.4146 36.142 65.4146Z" fill="white"/>
<path id="Vector_43" d="M25.0924 80.5955L17.4057 71.5122L7.31708 83.1185C7.31708 84.8343 8.5661 86.1463 10.1995 86.1463H36.142C37.7754 86.1463 39.0244 84.8343 39.0244 83.1185L30.8573 74.54L25.0924 80.5955Z" fill="#FF6F3D"/>
<path id="Vector_44" d="M25.6098 72.7317C26.9568 72.7317 28.0488 71.6398 28.0488 70.2927C28.0488 68.9456 26.9568 67.8537 25.6098 67.8537C24.2627 67.8537 23.1707 68.9456 23.1707 70.2927C23.1707 71.6398 24.2627 72.7317 25.6098 72.7317Z" fill="#FF6F3D"/>
<path id="Vector_45" fill-rule="evenodd" clip-rule="evenodd" d="M6.09756 68.0376C6.09756 65.8744 7.81623 64.1951 10.03 64.1951H36.3115C38.5252 64.1951 40.2439 65.8744 40.2439 68.0376V82.3039C40.2439 84.4671 38.5252 86.1463 36.3115 86.1463H10.03C7.81623 86.1463 6.09756 84.4671 6.09756 82.3039V68.0376ZM10.03 65.4146C8.53659 65.4146 7.31708 66.6342 7.31708 68.0376V82.3039C7.31708 83.7073 8.53659 84.9268 10.03 84.9268H36.3115C37.8049 84.9268 39.0244 83.7073 39.0244 82.3039V68.0376C39.0244 66.6342 37.8049 65.4146 36.3115 65.4146H10.03Z" fill="#444444"/>
<path id="Vector_46" d="M1.21951 60.5366C1.89305 60.5366 2.43902 59.9906 2.43902 59.3171C2.43902 58.6435 1.89305 58.0976 1.21951 58.0976C0.545976 58.0976 0 58.6435 0 59.3171C0 59.9906 0.545976 60.5366 1.21951 60.5366Z" fill="#808080"/>
<path id="Vector_47" d="M45.1219 60.5366C45.7955 60.5366 46.3415 59.9906 46.3415 59.3171C46.3415 58.6435 45.7955 58.0976 45.1219 58.0976C44.4484 58.0976 43.9024 58.6435 43.9024 59.3171C43.9024 59.9906 44.4484 60.5366 45.1219 60.5366Z" fill="#808080"/>
<path id="Vector_48" d="M1.21951 92.2439C1.89305 92.2439 2.43902 91.6979 2.43902 91.0244C2.43902 90.3509 1.89305 89.8049 1.21951 89.8049C0.545976 89.8049 0 90.3509 0 91.0244C0 91.6979 0.545976 92.2439 1.21951 92.2439Z" fill="#808080"/>
<path id="Vector_49" d="M45.1219 92.2439C45.7955 92.2439 46.3415 91.6979 46.3415 91.0244C46.3415 90.3509 45.7955 89.8049 45.1219 89.8049C44.4484 89.8049 43.9024 90.3509 43.9024 91.0244C43.9024 91.6979 44.4484 92.2439 45.1219 92.2439Z" fill="#808080"/>
<path id="Vector_50" fill-rule="evenodd" clip-rule="evenodd" d="M1.86512 63.122C1.50854 63.122 1.21951 62.8329 1.21951 62.4763V60.5366C1.21951 59.8631 1.76549 59.3171 2.43903 59.3171H4.2439C4.59415 59.3171 4.87805 59.601 4.87805 59.9512C4.87805 60.3015 4.59415 60.5854 4.2439 60.5854H2.51073V62.4763C2.51073 62.8329 2.22171 63.122 1.86512 63.122ZM12.8293 59.3171C12.479 59.3171 12.1951 59.601 12.1951 59.9512C12.1951 60.3015 12.479 60.5854 12.8293 60.5854H18.878C19.2283 60.5854 19.5122 60.3015 19.5122 59.9512C19.5122 59.601 19.2283 59.3171 18.878 59.3171H12.8293ZM27.4634 59.3171C27.1132 59.3171 26.8293 59.601 26.8293 59.9512C26.8293 60.3015 27.1132 60.5854 27.4634 60.5854H33.5122C33.8624 60.5854 34.1463 60.3015 34.1463 59.9512C34.1463 59.601 33.8624 59.3171 33.5122 59.3171H27.4634ZM42.0976 59.3171C41.7473 59.3171 41.4634 59.601 41.4634 59.9512C41.4634 60.3015 41.7473 60.5854 42.0976 60.5854H43.8307V62.4763C43.8307 62.8329 44.1198 63.122 44.4763 63.122C44.8329 63.122 45.122 62.8329 45.122 62.4763V60.5366C45.122 59.8631 44.576 59.3171 43.9024 59.3171H42.0976ZM44.4763 72.5284C44.8329 72.5284 45.122 72.2394 45.122 71.8828V67.8895C45.122 67.5329 44.8329 67.2439 44.4763 67.2439C44.1198 67.2439 43.8307 67.5329 43.8307 67.8895V71.8828C43.8307 72.2394 44.1198 72.5284 44.4763 72.5284ZM45.122 78.4587C45.122 78.1021 44.8329 77.8131 44.4763 77.8131C44.1198 77.8131 43.8307 78.1021 43.8307 78.4587V82.452C43.8307 82.8085 44.1198 83.0976 44.4763 83.0976C44.8329 83.0976 45.122 82.8085 45.122 82.452V78.4587ZM45.122 87.8651C45.122 87.5085 44.8329 87.2195 44.4763 87.2195C44.1198 87.2195 43.8307 87.5085 43.8307 87.8651V89.7561H42.0976C41.7473 89.7561 41.4634 90.04 41.4634 90.3903C41.4634 90.7405 41.7473 91.0244 42.0976 91.0244H43.9024C44.576 91.0244 45.122 90.4784 45.122 89.8049V87.8651ZM33.5122 91.0244C33.8624 91.0244 34.1463 90.7405 34.1463 90.3903C34.1463 90.04 33.8624 89.7561 33.5122 89.7561H27.4634C27.1132 89.7561 26.8293 90.04 26.8293 90.3903C26.8293 90.7405 27.1132 91.0244 27.4634 91.0244H33.5122ZM18.878 91.0244C19.2283 91.0244 19.5122 90.7405 19.5122 90.3903C19.5122 90.04 19.2283 89.7561 18.878 89.7561H12.8293C12.479 89.7561 12.1951 90.04 12.1951 90.3903C12.1951 90.7405 12.479 91.0244 12.8293 91.0244H18.878ZM4.2439 91.0244C4.59415 91.0244 4.87805 90.7405 4.87805 90.3903C4.87805 90.04 4.59415 89.7561 4.2439 89.7561H2.51073V87.8651C2.51073 87.5085 2.22171 87.2195 1.86512 87.2195C1.50854 87.2195 1.21951 87.5085 1.21951 87.8651V89.8049C1.21951 90.4784 1.76549 91.0244 2.43903 91.0244H4.2439ZM1.21951 82.452C1.21951 82.8085 1.50854 83.0976 1.86512 83.0976C2.22171 83.0976 2.51073 82.8085 2.51073 82.452V78.4587C2.51073 78.1021 2.22171 77.8131 1.86512 77.8131C1.50854 77.8131 1.21951 78.1021 1.21951 78.4587V82.452ZM1.21951 71.8828C1.21951 72.2394 1.50854 72.5284 1.86512 72.5284C2.22171 72.5284 2.51073 72.2394 2.51073 71.8828V67.8895C2.51073 67.5329 2.22171 67.2439 1.86512 67.2439C1.50854 67.2439 1.21951 67.5329 1.21951 67.8895V71.8828Z" fill="#808080"/>
<path id="Vector_51" d="M51.2195 10.7911C51.2195 11.1167 51.1433 11.4374 50.9976 11.7252L49.6652 14.3557C49.3352 15.0073 48.6888 15.4146 47.9848 15.4146H47.1372C46.4332 15.4146 45.7867 15.0073 45.4567 14.3557L44.1244 11.7252C43.9787 11.4374 43.9024 11.1167 43.9024 10.7911V3.99305C43.9024 2.89232 44.7541 2 45.8049 2H49.3171C50.3678 2 51.2195 2.89232 51.2195 3.99305V10.7911Z" fill="#EFEFEF"/>
<path id="Vector_52" fill-rule="evenodd" clip-rule="evenodd" d="M47.9848 14.3557L50 10.7911V3.21951H45.1219V10.7911L47.1372 14.3557H47.9848ZM50.9976 11.7252C51.1433 11.4374 51.2195 11.1167 51.2195 10.7911V3.99305C51.2195 2.89232 50.3678 2 49.3171 2H45.8049C44.7541 2 43.9024 2.89232 43.9024 3.99305V10.7911C43.9024 11.1167 43.9787 11.4374 44.1244 11.7252L45.4567 14.3557C45.7867 15.0073 46.4332 15.4146 47.1372 15.4146H47.9848C48.6888 15.4146 49.3352 15.0073 49.6652 14.3557L50.9976 11.7252Z" fill="#444444"/>
</g>
</g>
</svg>
