<svg width="16" height="16" viewBox="0 0 16 16" fill="none" xmlns="http://www.w3.org/2000/svg">
<g clip-path="url(#clip0_12525_302812)">
<path fill-rule="evenodd" clip-rule="evenodd" d="M2.71269 1.99574C3.02898 1.71703 3.49293 1.71119 3.84323 1.94572L4.87825 2.63869C4.94787 2.6853 5.02044 2.72184 5.09451 2.74889C5.48528 2.53225 5.90278 2.35796 6.34081 2.23222C6.37394 2.16087 6.39933 2.0839 6.41556 2.00191L6.65748 0.77978C6.73937 0.366075 7.0718 0.0421062 7.49271 0.0157933C7.6603 0.00531678 7.82928 0 7.99951 0C8.16974 0 8.33873 0.00531679 8.50631 0.0157934C8.92723 0.0421062 9.25966 0.366074 9.34155 0.77978L9.58347 2.00191C9.5997 2.0839 9.62508 2.16086 9.65821 2.23222C10.0962 2.35796 10.5137 2.53225 10.9045 2.74889C10.9786 2.72184 11.0511 2.6853 11.1208 2.63869L12.1558 1.94572C12.5061 1.71119 12.97 1.71703 13.2863 1.99574C13.5403 2.21954 13.78 2.45921 14.0038 2.71318C14.2825 3.02947 14.2883 3.49342 14.0538 3.84372L13.3608 4.87874C13.3142 4.94836 13.2777 5.02092 13.2506 5.095C13.4673 5.48577 13.6416 5.90327 13.7673 6.3413C13.8386 6.37443 13.9156 6.39982 13.9976 6.41605L15.2197 6.65796C15.6334 6.73986 15.9574 7.07229 15.9837 7.4932C15.9942 7.66079 15.9995 7.82977 15.9995 8C15.9995 8.17023 15.9942 8.33921 15.9837 8.5068C15.9574 8.92771 15.6334 9.26015 15.2197 9.34204L13.9976 9.58395C13.9156 9.60018 13.8386 9.62557 13.7673 9.6587C13.6416 10.0967 13.4673 10.5142 13.2506 10.905C13.2777 10.9791 13.3142 11.0516 13.3608 11.1213L14.0538 12.1563C14.2883 12.5066 14.2825 12.9705 14.0038 13.2868C13.78 13.5408 13.5403 13.7805 13.2863 14.0043C12.97 14.283 12.5061 14.2888 12.1558 14.0543L11.1208 13.3613C11.0511 13.3147 10.9786 13.2782 10.9045 13.2511C10.5137 13.4678 10.0962 13.642 9.65821 13.7678C9.62508 13.8391 9.5997 13.9161 9.58347 13.9981L9.34155 15.2202C9.25966 15.6339 8.92723 15.9579 8.50631 15.9842C8.33873 15.9947 8.16974 16 7.99951 16C7.82928 16 7.6603 15.9947 7.49271 15.9842C7.0718 15.9579 6.73937 15.6339 6.65748 15.2202L6.41556 13.9981C6.39933 13.9161 6.37394 13.8391 6.34081 13.7678C5.90278 13.642 5.48528 13.4678 5.09451 13.2511C5.02044 13.2782 4.94787 13.3147 4.87825 13.3613L3.84323 14.0543C3.49293 14.2888 3.02898 14.283 2.71269 14.0043C2.45872 13.7805 2.21905 13.5408 1.99525 13.2868C1.71654 12.9705 1.7107 12.5066 1.94523 12.1563L2.6382 11.1213C2.68482 11.0516 2.72135 10.9791 2.7484 10.905C2.53176 10.5142 2.35747 10.0967 2.23173 9.6587C2.16038 9.62557 2.08341 9.60018 2.00143 9.58395L0.779292 9.34204C0.365587 9.26015 0.0416179 8.92771 0.0153051 8.5068C0.0048285 8.33922 -0.000488281 8.17023 -0.000488281 8C-0.000488281 7.82977 0.00482851 7.66079 0.0153051 7.4932C0.0416179 7.07229 0.365586 6.73986 0.779291 6.65796L2.00142 6.41605C2.08341 6.39982 2.16038 6.37443 2.23173 6.3413C2.35747 5.90327 2.53176 5.48577 2.7484 5.095C2.72135 5.02092 2.68481 4.94836 2.6382 4.87874L1.94523 3.84372C1.7107 3.49342 1.71654 3.02947 1.99525 2.71318C2.21905 2.45921 2.45872 2.21954 2.71269 1.99574ZM7.99951 10C9.10408 10 9.99951 9.10457 9.99951 8C9.99951 6.89543 9.10408 6 7.99951 6C6.89494 6 5.99951 6.89543 5.99951 8C5.99951 9.10457 6.89494 10 7.99951 10Z" fill="#657077"/>
</g>
<defs>
<clipPath id="clip0_12525_302812">
<rect width="16" height="16" fill="white" transform="translate(-0.000488281)"/>
</clipPath>
</defs>
</svg>
