<svg width="12" height="12" viewBox="0 0 12 12" fill="none" xmlns="http://www.w3.org/2000/svg">
<path fill-rule="evenodd" clip-rule="evenodd" d="M2.16834 1.38262C2.33047 1.24792 2.56169 1.2443 2.73684 1.36157L3.80011 2.07346C4.10611 1.90165 4.43424 1.76458 4.77915 1.66758L5.0276 0.412448C5.06854 0.205596 5.23471 0.0446258 5.44469 0.0253558C5.62755 0.00857572 5.81277 0 6 0C6.18723 0 6.37246 0.00857572 6.55531 0.0253558C6.76529 0.0446258 6.93146 0.205596 6.9724 0.412449L7.22085 1.66758C7.56576 1.76458 7.89389 1.90165 8.19989 2.07346L9.26316 1.36157C9.43831 1.2443 9.66953 1.24792 9.83166 1.38261C10.1171 1.61976 10.3802 1.88288 10.6174 2.16834C10.7521 2.33047 10.7557 2.56169 10.6384 2.73684L9.92654 3.80011C10.0984 4.10611 10.2354 4.43424 10.3324 4.77915L11.5876 5.0276C11.7944 5.06854 11.9554 5.23471 11.9746 5.44469C11.9914 5.62755 12 5.81277 12 6C12 6.18723 11.9914 6.37246 11.9746 6.55531C11.9554 6.76529 11.7944 6.93146 11.5876 6.9724L10.3324 7.22085C10.2354 7.56576 10.0984 7.89389 9.92654 8.19989L10.6384 9.26316C10.7557 9.43831 10.7521 9.66953 10.6174 9.83166C10.3802 10.1171 10.1171 10.3802 9.83166 10.6174C9.66953 10.7521 9.43831 10.7557 9.26316 10.6384L8.19989 9.92654C7.89389 10.0984 7.56576 10.2354 7.22085 10.3324L6.9724 11.5876C6.93146 11.7944 6.76529 11.9554 6.55531 11.9746C6.37246 11.9914 6.18723 12 6 12C5.81277 12 5.62755 11.9914 5.44469 11.9746C5.23471 11.9554 5.06854 11.7944 5.0276 11.5876L4.77915 10.3324C4.43424 10.2354 4.10611 10.0984 3.80011 9.92654L2.73684 10.6384C2.56169 10.7557 2.33047 10.7521 2.16834 10.6174C1.88288 10.3802 1.61976 10.1171 1.38261 9.83166C1.24792 9.66953 1.2443 9.43831 1.36157 9.26316L2.07346 8.19989C1.90165 7.89389 1.76458 7.56576 1.66758 7.22085L0.412449 6.9724C0.205596 6.93146 0.0446258 6.76529 0.0253558 6.55531C0.00857572 6.37246 0 6.18723 0 6C0 5.81277 0.00857572 5.62755 0.0253558 5.44469C0.0446258 5.23471 0.205596 5.06854 0.412449 5.0276L1.66758 4.77915C1.76458 4.43424 1.90165 4.10611 2.07346 3.80011L1.36157 2.73684C1.2443 2.56169 1.24792 2.33047 1.38262 2.16834C1.61976 1.88288 1.88288 1.61976 2.16834 1.38262ZM6 7.5C6.82843 7.5 7.5 6.82843 7.5 6C7.5 5.17157 6.82843 4.5 6 4.5C5.17157 4.5 4.5 5.17157 4.5 6C4.5 6.82843 5.17157 7.5 6 7.5Z" fill="#657077"/>
</svg>
