<svg width="18" height="18" viewBox="0 0 18 18" fill="none" xmlns="http://www.w3.org/2000/svg">
<path d="M9 0C6.61305 0 4.32387 0.948211 2.63604 2.63604C0.948211 4.32387 0 6.61305 0 9C0 11.3869 0.948211 13.6761 2.63604 15.364C4.32387 17.0518 6.61305 18 9 18C11.3869 18 13.6761 17.0518 15.364 15.364C17.0518 13.6761 18 11.3869 18 9C18 6.61305 17.0518 4.32387 15.364 2.63604C13.6761 0.948211 11.3869 0 9 0Z" fill="#1877F2"/>
<path d="M10.1047 11.5264H12.5862L12.9758 9.21077H10.1042V7.94516C10.1042 6.98321 10.4464 6.1302 11.4259 6.1302H13V4.10941C12.7234 4.0751 12.1385 4 11.0333 4C8.72546 4 7.37245 5.11957 7.37245 7.67025V9.21077H5V11.5264H7.37245V17.8911C7.84229 17.956 8.31819 18 8.80671 18C9.2483 18 9.67928 17.9629 10.1047 17.9101V11.5264Z" fill="white"/>
</svg>
