<svg width="20" height="20" viewBox="0 0 20 20" fill="none" xmlns="http://www.w3.org/2000/svg">
<path fill-rule="evenodd" clip-rule="evenodd" d="M12.9659 3.19435C13.6533 2.34751 14.1155 1.17255 13.9899 0C13.0014 0.0410135 11.8044 0.670717 11.0957 1.51755C10.4605 2.26548 9.90352 3.46215 10.0552 4.61055C11.1527 4.69744 12.2809 4.03877 12.9659 3.19435ZM17.4783 6.82707C17.3159 6.92704 15.3386 8.14444 15.3619 10.6273C15.3903 13.6488 17.9665 14.6553 17.9999 14.6684L18 14.6684C17.9988 14.6722 17.9966 14.6793 17.9934 14.6898C17.9345 14.8815 17.5365 16.1767 16.6418 17.5154C15.8217 18.7338 14.9732 19.9473 13.6339 19.9739C12.9914 19.9857 12.5614 19.796 12.1146 19.5988C11.6466 19.3924 11.1601 19.1777 10.3914 19.1777C9.58658 19.1777 9.07817 19.3985 8.588 19.6113C8.16295 19.7959 7.7516 19.9745 7.17257 19.998C5.87841 20.0487 4.89711 18.6807 4.06988 17.4672C2.37988 14.9845 1.09046 10.4487 2.82075 7.39431C3.68116 5.87436 5.21947 4.91174 6.88814 4.88762C7.60726 4.87254 8.30348 5.15385 8.91331 5.40025C9.37889 5.58836 9.7941 5.75612 10.1307 5.75612C10.4328 5.75612 10.8372 5.59367 11.3085 5.40435C12.0502 5.10642 12.9575 4.74195 13.8923 4.83932C14.5323 4.86585 16.3289 5.10233 17.4856 6.82252C17.4839 6.82362 17.4814 6.82514 17.4783 6.82707Z" fill="black"/>
</svg>
