<svg width="16" height="16" viewBox="0 0 16 16" fill="none" xmlns="http://www.w3.org/2000/svg">
<path fill-rule="evenodd" clip-rule="evenodd" d="M14.9973 2.0376C14.9973 1.7592 14.8812 1.49341 14.677 1.30417C14.4728 1.11492 14.199 1.01936 13.9214 1.04048C7.04656 1.56346 1.56102 7.049 1.03804 13.9239C1.01692 14.2015 1.11248 14.4753 1.30172 14.6795C1.49097 14.8837 1.75676 14.9997 2.03516 14.9997L12.9973 14.9997C14.1018 14.9997 14.9973 14.1043 14.9973 12.9997V7.99951C14.9975 7.99951 14.9978 7.99951 14.998 7.99951L14.998 5.99951C14.9978 5.99951 14.9975 5.99951 14.9973 5.99951V2.0376ZM12.9973 6.22271V3.16551C7.9727 4.00826 4.00582 7.97515 3.16307 12.9997H6.22102C6.98441 9.63512 9.63282 6.98646 12.9973 6.22271ZM8.28787 12.9997H12.9973V8.28963C10.7398 8.96177 8.9597 10.7421 8.28787 12.9997Z" fill="#333333"/>
</svg>
