<svg width="18" height="18" viewBox="0 0 18 18" fill="none" xmlns="http://www.w3.org/2000/svg">
<g clip-path="url(#clip0_505_4235)">
<path fill-rule="evenodd" clip-rule="evenodd" d="M2.63604 2.63604C4.32387 0.948211 6.61305 0 9 0C11.3869 0 13.6761 0.948211 15.364 2.63604C17.0518 4.32387 18 6.61305 18 9C18 11.3869 17.0518 13.6761 15.364 15.364C13.6761 17.0518 11.3869 18 9 18C8.96536 18 8.93075 17.9998 8.89615 17.9994C9.30659 17.9948 9.70812 17.9592 10.1048 17.91V11.5263H12.5863L12.9759 9.21067H10.1043V7.94507C10.1043 6.98311 10.4465 6.13011 11.426 6.13011H13.0001V4.10931L12.9852 4.10746C12.7028 4.07239 12.1192 3.9999 11.0334 3.9999C8.72556 3.9999 7.37254 5.11948 7.37254 7.67016V9.21067H5.0001V11.5263H7.37254V17.8517C5.59053 17.524 3.93515 16.6631 2.63604 15.364C0.948211 13.6761 0 11.3869 0 9C0 6.61305 0.948211 4.32387 2.63604 2.63604Z" fill="#1877F2"/>
</g>
<defs>
<clipPath id="clip0_505_4235">
<rect width="18" height="18" fill="white"/>
</clipPath>
</defs>
</svg>
