<svg width="16" height="16" viewBox="0 0 16 16" fill="none" xmlns="http://www.w3.org/2000/svg">
<path fill-rule="evenodd" clip-rule="evenodd" d="M10.2479 2.17119C10.2479 3.37031 9.2859 4.34238 8.09917 4.34238C6.91244 4.34238 5.95041 3.37031 5.95041 2.17119C5.95041 0.972075 6.91244 0 8.09917 0C9.2859 0 10.2479 0.972075 10.2479 2.17119ZM4.05039 2.55303C4.12527 3.37381 4.43908 4.12467 4.9209 4.73393C3.88707 5.5577 3.18438 6.7869 3.04772 8.18418C2.75854 8.11824 2.45767 8.08343 2.14876 8.08343C1.66435 8.08343 1.19972 8.16903 0.768881 8.32606C0.884459 5.90756 2.16239 3.7972 4.05039 2.55303ZM12.9523 8.18419C12.8209 6.84106 12.1666 5.65324 11.1978 4.83153C11.6989 4.2362 12.035 3.49462 12.1345 2.67903C13.9207 3.93683 15.1194 5.98737 15.2311 8.32606C14.8003 8.16903 14.3357 8.08343 13.8512 8.08343C13.5423 8.08343 13.2415 8.11824 12.9523 8.18419ZM4.84264 15.2695C5.79685 15.7375 6.86809 16 8 16C9.13191 16 10.2032 15.7375 11.1574 15.2695C10.5838 14.7565 10.1546 14.0823 9.93948 13.3171C9.34346 13.5722 8.68803 13.7133 8 13.7133C7.31197 13.7133 6.65655 13.5722 6.06052 13.3171C5.84537 14.0823 5.41624 14.7565 4.84264 15.2695ZM4.29752 12.1921C4.29752 13.3912 3.33549 14.3633 2.14876 14.3633C0.962033 14.3633 0 13.3912 0 12.1921C0 10.993 0.962033 10.0209 2.14876 10.0209C3.33549 10.0209 4.29752 10.993 4.29752 12.1921ZM13.8512 14.3633C15.038 14.3633 16 13.3912 16 12.1921C16 10.993 15.038 10.0209 13.8512 10.0209C12.6645 10.0209 11.7025 10.993 11.7025 12.1921C11.7025 13.3912 12.6645 14.3633 13.8512 14.3633Z" fill="#333333"/>
</svg>
