<svg width="19" height="18" viewBox="0 0 19 18" fill="none" xmlns="http://www.w3.org/2000/svg">
<path fill-rule="evenodd" clip-rule="evenodd" d="M9.5 18C14.4706 18 18.5 13.9706 18.5 9C18.5 4.02944 14.4706 0 9.5 0C4.52944 0 0.5 4.02944 0.5 9C0.5 13.9706 4.52944 18 9.5 18ZM11.2647 10.4706C13.0515 10.4706 14.5 9.0221 14.5 7.23529C14.5 5.44849 13.0515 4 11.2647 4C9.47793 4 8.02944 5.44849 8.02944 7.23529C8.02944 7.63189 8.10081 8.01182 8.23139 8.36294L4.61392 11.8392C4.54031 11.9109 4.5 12.0066 4.5 12.1083V13.6192C4.5 13.8292 4.67456 13.9998 4.88909 13.9998H6.19341C6.40786 13.9998 6.58267 13.8292 6.58267 13.6192V12.8787H7.34002C7.55473 12.8787 7.72928 12.7081 7.72928 12.4981V11.7577H8.52604C8.63008 11.7577 8.72761 11.718 8.80146 11.6462L10.1738 10.282C10.5146 10.4041 10.8819 10.4706 11.2647 10.4706ZM11.2648 8.70599C12.0769 8.70599 12.7353 8.04758 12.7353 7.2354C12.7353 6.42322 12.0769 5.76481 11.2648 5.76481C10.4526 5.76481 9.79417 6.42322 9.79417 7.2354C9.79417 8.04758 10.4526 8.70599 11.2648 8.70599Z" fill="#3B72A7"/>
</svg>
