<svg width="16" height="16" viewBox="0 0 16 16" fill="none" xmlns="http://www.w3.org/2000/svg">
<path d="M13 0C12.4478 0 12 0.447266 12 1V2H16V1C16 0.447266 15.5522 0 15 0H13Z" fill="#657077"/>
<path d="M12 3H16V15C16 15.5527 15.5522 16 15 16H13C12.4478 16 12 15.5527 12 15V3Z" fill="#657077"/>
<path d="M10 7H6V15C6 15.5527 6.44775 16 7 16H9C9.55225 16 10 15.5527 10 15V7Z" fill="#657077"/>
<path d="M4 11H0V15C0 15.1729 0.0437012 15.335 0.120605 15.4766C0.139526 15.5117 0.1604 15.5459 0.183105 15.5781C0.209106 15.6143 0.237549 15.6484 0.268066 15.6816C0.450684 15.877 0.71106 16 1 16H3C3.25269 16 3.48364 15.9062 3.65967 15.752C3.86829 15.5684 4 15.2998 4 15V11Z" fill="#657077"/>
<path d="M6.37036 4.22363C6.54224 4.08398 6.76135 4 7 4H9C9.55225 4 10 4.44727 10 5V6H6V5C6 4.68652 6.14441 4.40625 6.37036 4.22363Z" fill="#657077"/>
<path d="M1 8C0.447754 8 0 8.44727 0 9V10H4V9C4 8.44727 3.55225 8 3 8H1Z" fill="#657077"/>
</svg>
