<svg width="16" height="16" viewBox="0 0 16 16" fill="none" xmlns="http://www.w3.org/2000/svg">
<path fill-rule="evenodd" clip-rule="evenodd" d="M2 1C0.89543 1 0 1.89543 0 3V13.5858C0 15.3676 2.15428 16.2599 3.41421 15L5.41421 13H14C15.1046 13 16 12.1046 16 11V3C16 1.89543 15.1046 1 14 1H2ZM2 3L14 3V11H5.41421C4.88378 11 4.37507 11.2107 4 11.5858L2 13.5858V3ZM5 8C5.55228 8 6 7.55228 6 7C6 6.44772 5.55228 6 5 6C4.44772 6 4 6.44772 4 7C4 7.55228 4.44772 8 5 8ZM8 8C8.55228 8 9 7.55228 9 7C9 6.44772 8.55228 6 8 6C7.44772 6 7 6.44772 7 7C7 7.55228 7.44772 8 8 8ZM12 7C12 7.55228 11.5523 8 11 8C10.4477 8 10 7.55228 10 7C10 6.44772 10.4477 6 11 6C11.5523 6 12 6.44772 12 7Z" fill="#333333"/>
</svg>
