<svg width="24" height="24" viewBox="0 0 24 24" fill="none" xmlns="http://www.w3.org/2000/svg">
<g clip-path="url(#clip0_42308_666876)">
<path fill-rule="evenodd" clip-rule="evenodd" d="M9.82853 0L11.3637 1.83811H12.6363L14.171 0.000537529L14.4183 0.0515676C15.3043 0.234366 16.1524 0.522755 16.9538 0.888511L17.1856 0.994267L17.365 3.39578L18.3949 4.15603L20.6957 3.58698L20.8663 3.77708C21.4646 4.44377 21.9893 5.17973 22.4318 5.96905L22.5572 6.19262L21.3148 8.24233L21.7076 9.47329L23.8968 10.3891L23.9248 10.6447C23.9734 11.0893 24 11.5395 24 11.9995C24 12.4594 23.9734 12.9096 23.9248 13.3542L23.8968 13.6098L21.7072 14.5258L21.3129 15.7548L22.555 17.8041L22.4297 18.0277C21.9872 18.817 21.4625 19.553 20.8641 20.2197L20.6935 20.4098L18.3928 19.8407L17.3628 20.601L17.1835 23.0015L16.953 23.1077C16.1522 23.4764 15.304 23.7624 14.4194 23.9472L14.1715 23.9989L12.6363 22.1608H11.3637L9.82853 23.9989L9.58065 23.9472C8.69604 23.7624 7.84781 23.4764 7.04701 23.1077L6.8165 23.0015L6.63721 20.6015L5.60556 19.8428L3.30434 20.412L3.13373 20.2219C2.53539 19.5552 2.01068 18.8192 1.56817 18.0299L1.44283 17.8063L2.68522 15.7566L2.29237 14.5256L0.103176 13.6098L0.0752299 13.3542C0.0266278 12.9096 0 12.4594 0 11.9995C0 11.5395 0.0266278 11.0893 0.0752299 10.6447L0.103215 10.3887L2.2946 9.47516L2.68735 8.2445L1.44496 6.19479L1.5703 5.97122C2.01253 5.1824 2.53516 4.44611 3.1364 3.77866L3.30699 3.58928L5.60725 4.1582L6.63718 3.39795L6.8165 0.997412L7.04701 0.891276C7.84781 0.522541 8.69604 0.236553 9.58065 0.0517766L9.82853 0ZM14.4935 0.95622L13.0317 2.70642H10.9683L9.5069 0.956664C8.85849 1.10812 8.23105 1.31839 7.62982 1.57925L7.45911 3.86438L5.78939 5.09689L3.5992 4.5552C3.16698 5.05833 2.78 5.60238 2.43955 6.18021L3.62181 8.13071L2.9851 10.1258L0.899145 10.9954C0.869915 11.3268 0.854321 11.6607 0.854321 11.9995C0.854321 12.3383 0.869926 12.6723 0.899176 13.0039L2.98306 13.8756L3.61967 15.8704L2.43744 17.8209C2.7779 18.3982 3.16603 18.9423 3.5975 19.4458L5.7868 18.9043L7.45908 20.1341L7.62982 22.4197C8.23105 22.6805 8.85849 22.8908 9.5069 23.0423L10.9683 21.2925H13.0317L14.4931 23.0423C15.1415 22.8908 15.769 22.6805 16.3702 22.4197L16.5409 20.1346L18.2106 18.902L20.4004 19.4436C20.8318 18.9401 21.22 18.396 21.5604 17.8187L20.378 15.8679L21.0173 13.8754L23.1008 13.0039C23.1301 12.6723 23.1457 12.3383 23.1457 11.9995C23.1457 11.6606 23.1301 11.3266 23.1008 10.9951L21.0169 10.1233L20.3803 8.12854L21.5626 6.17808C21.2221 5.60074 20.834 5.05665 20.4025 4.55313L18.2127 5.09472L16.543 3.86221L16.3724 1.5779C15.7688 1.31766 15.1411 1.1064 14.4935 0.95622Z" fill="black"/>
<path fill-rule="evenodd" clip-rule="evenodd" d="M9.82853 0L11.3637 1.83811H12.6363L14.171 0.000537529L14.4183 0.0515676C15.3043 0.234366 16.1524 0.522755 16.9538 0.888511L17.1856 0.994267L17.365 3.39578L18.3949 4.15603L20.6957 3.58698L20.8663 3.77708C21.4646 4.44377 21.9893 5.17973 22.4318 5.96905L22.5572 6.19262L21.3148 8.24233L21.7076 9.47329L23.8968 10.3891L23.9248 10.6447C23.9734 11.0893 24 11.5395 24 11.9995C24 12.4594 23.9734 12.9096 23.9248 13.3542L23.8968 13.6098L21.7072 14.5258L21.3129 15.7548L22.555 17.8041L22.4297 18.0277C21.9872 18.817 21.4625 19.553 20.8641 20.2197L20.6935 20.4098L18.3928 19.8407L17.3628 20.601L17.1835 23.0015L16.953 23.1077C16.1522 23.4764 15.304 23.7624 14.4194 23.9472L14.1715 23.9989L12.6363 22.1608H11.3637L9.82853 23.9989L9.58065 23.9472C8.69604 23.7624 7.84781 23.4764 7.04701 23.1077L6.8165 23.0015L6.63721 20.6015L5.60556 19.8428L3.30434 20.412L3.13373 20.2219C2.53539 19.5552 2.01068 18.8192 1.56817 18.0299L1.44283 17.8063L2.68522 15.7566L2.29237 14.5256L0.103176 13.6098L0.0752299 13.3542C0.0266278 12.9096 0 12.4594 0 11.9995C0 11.5395 0.0266278 11.0893 0.0752299 10.6447L0.103215 10.3887L2.2946 9.47516L2.68735 8.2445L1.44496 6.19479L1.5703 5.97122C2.01253 5.1824 2.53516 4.44611 3.1364 3.77866L3.30699 3.58928L5.60725 4.1582L6.63718 3.39795L6.8165 0.997412L7.04701 0.891276C7.84781 0.522541 8.69604 0.236553 9.58065 0.0517766L9.82853 0ZM14.4935 0.95622L13.0317 2.70642H10.9683L9.5069 0.956664C8.85849 1.10812 8.23105 1.31839 7.62982 1.57925L7.45911 3.86438L5.78939 5.09689L3.5992 4.5552C3.16698 5.05833 2.78 5.60238 2.43955 6.18021L3.62181 8.13071L2.9851 10.1258L0.899145 10.9954C0.869915 11.3268 0.854321 11.6607 0.854321 11.9995C0.854321 12.3383 0.869926 12.6723 0.899176 13.0039L2.98306 13.8756L3.61967 15.8704L2.43744 17.8209C2.7779 18.3982 3.16603 18.9423 3.5975 19.4458L5.7868 18.9043L7.45908 20.1341L7.62982 22.4197C8.23105 22.6805 8.85849 22.8908 9.5069 23.0423L10.9683 21.2925H13.0317L14.4931 23.0423C15.1415 22.8908 15.769 22.6805 16.3702 22.4197L16.5409 20.1346L18.2106 18.902L20.4004 19.4436C20.8318 18.9401 21.22 18.396 21.5604 17.8187L20.378 15.8679L21.0173 13.8754L23.1008 13.0039C23.1301 12.6723 23.1457 12.3383 23.1457 11.9995C23.1457 11.6606 23.1301 11.3266 23.1008 10.9951L21.0169 10.1233L20.3803 8.12854L21.5626 6.17808C21.2221 5.60074 20.834 5.05665 20.4025 4.55313L18.2127 5.09472L16.543 3.86221L16.3724 1.5779C15.7688 1.31766 15.1411 1.1064 14.4935 0.95622Z" fill="#657077"/>
<path fill-rule="evenodd" clip-rule="evenodd" d="M9.82853 0L11.3637 1.83811H12.6363L14.171 0.000537529L14.4183 0.0515676C15.3043 0.234366 16.1524 0.522755 16.9538 0.888511L17.1856 0.994267L17.365 3.39578L18.3949 4.15603L20.6957 3.58698L20.8663 3.77708C21.4646 4.44377 21.9893 5.17973 22.4318 5.96905L22.5572 6.19262L21.3148 8.24233L21.7076 9.47329L23.8968 10.3891L23.9248 10.6447C23.9734 11.0893 24 11.5395 24 11.9995C24 12.4594 23.9734 12.9096 23.9248 13.3542L23.8968 13.6098L21.7072 14.5258L21.3129 15.7548L22.555 17.8041L22.4297 18.0277C21.9872 18.817 21.4625 19.553 20.8641 20.2197L20.6935 20.4098L18.3928 19.8407L17.3628 20.601L17.1835 23.0015L16.953 23.1077C16.1522 23.4764 15.304 23.7624 14.4194 23.9472L14.1715 23.9989L12.6363 22.1608H11.3637L9.82853 23.9989L9.58065 23.9472C8.69604 23.7624 7.84781 23.4764 7.04701 23.1077L6.8165 23.0015L6.63721 20.6015L5.60556 19.8428L3.30434 20.412L3.13373 20.2219C2.53539 19.5552 2.01068 18.8192 1.56817 18.0299L1.44283 17.8063L2.68522 15.7566L2.29237 14.5256L0.103176 13.6098L0.0752299 13.3542C0.0266278 12.9096 0 12.4594 0 11.9995C0 11.5395 0.0266278 11.0893 0.0752299 10.6447L0.103215 10.3887L2.2946 9.47516L2.68735 8.2445L1.44496 6.19479L1.5703 5.97122C2.01253 5.1824 2.53516 4.44611 3.1364 3.77866L3.30699 3.58928L5.60725 4.1582L6.63718 3.39795L6.8165 0.997412L7.04701 0.891276C7.84781 0.522541 8.69604 0.236553 9.58065 0.0517766L9.82853 0ZM14.4935 0.95622L13.0317 2.70642H10.9683L9.5069 0.956664C8.85849 1.10812 8.23105 1.31839 7.62982 1.57925L7.45911 3.86438L5.78939 5.09689L3.5992 4.5552C3.16698 5.05833 2.78 5.60238 2.43955 6.18021L3.62181 8.13071L2.9851 10.1258L0.899145 10.9954C0.869915 11.3268 0.854321 11.6607 0.854321 11.9995C0.854321 12.3383 0.869926 12.6723 0.899176 13.0039L2.98306 13.8756L3.61967 15.8704L2.43744 17.8209C2.7779 18.3982 3.16603 18.9423 3.5975 19.4458L5.7868 18.9043L7.45908 20.1341L7.62982 22.4197C8.23105 22.6805 8.85849 22.8908 9.5069 23.0423L10.9683 21.2925H13.0317L14.4931 23.0423C15.1415 22.8908 15.769 22.6805 16.3702 22.4197L16.5409 20.1346L18.2106 18.902L20.4004 19.4436C20.8318 18.9401 21.22 18.396 21.5604 17.8187L20.378 15.8679L21.0173 13.8754L23.1008 13.0039C23.1301 12.6723 23.1457 12.3383 23.1457 11.9995C23.1457 11.6606 23.1301 11.3266 23.1008 10.9951L21.0169 10.1233L20.3803 8.12854L21.5626 6.17808C21.2221 5.60074 20.834 5.05665 20.4025 4.55313L18.2127 5.09472L16.543 3.86221L16.3724 1.5779C15.7688 1.31766 15.1411 1.1064 14.4935 0.95622Z" stroke="#657077" stroke-width="0.6" stroke-miterlimit="10"/>
<path d="M15.0771 17.6871L15.206 17.6145L15.1351 17.4846L14.7208 16.7253L14.6479 16.5918L14.5154 16.6664C14.2889 16.7941 14.0509 16.9036 13.805 16.9961L13.666 17.0483L13.7168 17.1878L14.0133 18.0021L14.0652 18.1446L14.2071 18.0912C14.5036 17.9797 14.7953 17.8459 15.0771 17.6871Z" fill="#657077" stroke="#657077" stroke-width="0.3" stroke-miterlimit="10"/>
<path d="M16.8862 16.1787L16.9801 16.0648L16.8678 15.9691L16.213 15.4114L16.097 15.3125L16 15.4301C15.8311 15.6349 15.647 15.826 15.4495 16.0014L15.3391 16.0994L15.4353 16.2113L15.9975 16.8652L16.0968 16.9808L16.2108 16.8796C16.4533 16.6642 16.6792 16.4298 16.8862 16.1787Z" fill="#657077" stroke="#657077" stroke-width="0.3" stroke-miterlimit="10"/>
<path d="M17.4571 15.0718L17.5909 15.1434L17.6609 15.0088C17.7098 14.9147 17.7555 14.8207 17.7982 14.727C17.8902 14.5262 17.97 14.3256 18.0379 14.1252L18.0853 13.985L17.9458 13.9356L17.1391 13.65L16.9968 13.5996L16.9473 13.7422C16.8899 13.9077 16.8251 14.0729 16.7505 14.2365L16.887 14.2987L16.7507 14.2361C16.7157 14.3125 16.6783 14.3892 16.6385 14.4664L16.5708 14.5977L16.7011 14.6674L17.4571 15.0718Z" fill="#657077" stroke="#657077" stroke-width="0.3" stroke-miterlimit="10"/>
<path d="M12.0015 9.11167H12.1515V8.96167V8.09336V7.94336H12.0015C9.79243 7.94336 8.00708 9.76147 8.00708 12.0007C8.00708 14.24 9.79243 16.0581 12.0015 16.0581C14.2106 16.0581 15.996 14.24 15.996 12.0007V11.8507H15.846H14.9917H14.8417V12.0007C14.8417 13.5991 13.5666 14.8898 12.0015 14.8898C10.4345 14.8898 9.1614 13.5994 9.1614 12.0007C9.1614 10.4021 10.4345 9.11167 12.0015 9.11167Z" fill="#657077" stroke="#657077" stroke-width="0.3" stroke-miterlimit="10"/>
<path d="M17.1405 11.5149L17.16 11.6637L17.3086 11.6435L18.1554 11.5286L18.3041 11.5085L18.2845 11.3597C17.8226 7.84161 14.6434 5.36832 11.1764 5.83861C7.70937 6.3089 5.27968 9.543 5.74164 13.0611C6.2036 16.5792 9.38273 19.0525 12.8498 18.5822L12.9984 18.5619L12.9789 18.4133L12.8659 17.5526L12.8463 17.4038L12.6977 17.4241C9.86713 17.808 7.26384 15.7854 6.88573 12.9059C6.50718 10.0231 8.49768 7.38072 11.3285 6.99673C14.1593 6.61274 16.7619 8.63201 17.1405 11.5149Z" fill="#657077" stroke="#657077" stroke-width="0.3" stroke-miterlimit="10"/>
</g>
<defs>
<clipPath id="clip0_42308_666876">
<rect width="24" height="24" fill="white"/>
</clipPath>
</defs>
</svg>
