<svg width="16" height="16" viewBox="0 0 16 16" fill="none" xmlns="http://www.w3.org/2000/svg">
<path fill-rule="evenodd" clip-rule="evenodd" d="M14.0005 8C14.0005 7.75799 13.9862 7.51933 13.9583 7.28482L15.6364 5.60676C15.873 6.36243 16.0005 7.16632 16.0005 8C16.0005 12.4183 12.4188 16 8.00049 16C3.58221 16 0.000488281 12.4183 0.000488281 8C0.000488281 3.58172 3.58221 0 8.00049 0C9.37555 0 10.6696 0.34692 11.7998 0.95801L10.301 2.45685C9.59253 2.16249 8.81549 2 8.00049 2C4.68678 2 2.00049 4.68629 2.00049 8C2.00049 11.3137 4.68678 14 8.00049 14C11.3142 14 14.0005 11.3137 14.0005 8ZM14.2076 4.20678L7.7076 10.7068C7.31708 11.0973 6.68391 11.0973 6.29339 10.7068L3.29338 7.70677L4.7076 6.29256L7.0005 8.58546L12.7934 2.79257L14.2076 4.20678Z" fill="#657077"/>
</svg>
