<svg width="16" height="16" viewBox="0 0 16 16" fill="none" xmlns="http://www.w3.org/2000/svg">
<g clip-path="url(#clip0_20466_224117)">
<path fill-rule="evenodd" clip-rule="evenodd" d="M7.49945 0H8.49945C9.32788 0 9.99945 0.671573 9.99945 1.5V2H10.0005H13.0005C14.1053 2 15.0005 2.89593 15.0005 4.00022H13.0005V4H10.0005H8.49945H7.49945H6.00049H3.00049V4.00022H1.00049C1.00049 2.89593 1.89564 2 3.00049 2H5.99945V1.5C5.99945 0.671573 6.67102 0 7.49945 0ZM3.00049 5.00023V13.0002C3.00049 14.6571 4.34364 16.0002 6.00049 16.0002H10.0005C11.6573 16.0002 13.0005 14.6571 13.0005 13.0002V5.00023H11.0005V13.0002C11.0005 13.5525 10.5528 14.0002 10.0005 14.0002H6.00049C5.4482 14.0002 5.00049 13.5525 5.00049 13.0002V5.00023H3.00049ZM7.00049 6V14H9.00049V6H7.00049Z" fill="#A3A9AE"/>
</g>
<defs>
<clipPath id="clip0_20466_224117">
<rect width="16" height="16" fill="white"/>
</clipPath>
</defs>
</svg>
