<svg width="18" height="18" viewBox="0 0 18 18" fill="none" xmlns="http://www.w3.org/2000/svg">
<path fill-rule="evenodd" clip-rule="evenodd" d="M16.2 0H1.8C0.81 0 0 0.81 0 1.8V16.2C0 17.19 0.81 18 1.8 18H16.2C17.19 18 18 17.19 18 16.2V1.8C18 0.81 17.19 0 16.2 0ZM14.13 6.57002C14.04 10.71 11.43 13.59 7.47 13.77C5.85 13.86 4.68 13.32 3.6 12.69C4.77 12.8701 6.3 12.4201 7.11 11.7C5.94 11.61 5.22 10.98 4.86 9.99002C5.22 10.08 5.58 9.99002 5.85 9.99002C4.77 9.63002 4.05 9.00002 3.96 7.56002C4.23 7.74002 4.59 7.83002 4.95 7.83002C4.14 7.38002 3.6 5.67002 4.23 4.59002C5.4 5.85002 6.84 6.93002 9.18 7.11002C8.55 4.59002 11.97 3.24002 13.32 4.95002C13.95 4.86002 14.4 4.59002 14.85 4.41002C14.67 5.04002 14.31 5.40002 13.86 5.76002C14.31 5.67002 14.76 5.58002 15.12 5.40002C15.03 5.85002 14.58 6.21002 14.13 6.57002Z" fill="#2AA3EF"/>
</svg>
