<svg width="16" height="16" viewBox="0 0 16 16" fill="none" xmlns="http://www.w3.org/2000/svg">
<path d="M10 14C10 14.2626 9.94827 14.5227 9.84776 14.7654C9.74725 15.008 9.59993 15.2285 9.41421 15.4142C9.2285 15.5999 9.00802 15.7472 8.76537 15.8478C8.52272 15.9483 8.26264 16 8 16C7.73736 16 7.47728 15.9483 7.23463 15.8478C6.99198 15.7472 6.7715 15.5999 6.58579 15.4142C6.40007 15.2285 6.25275 15.008 6.15224 14.7654C6.05173 14.5227 6 14.2626 6 14L8 14H10Z" fill="#333333"/>
<rect x="7" width="2" height="3" rx="1" fill="#333333"/>
<path fill-rule="evenodd" clip-rule="evenodd" d="M4.9966 7.91761L4.99664 7.91814L4.99667 7.91846L4.99667 7.9185L4.9967 7.91879L4.99671 7.91891L5.05277 8.59165L4.44721 8.89443L3.55279 9.34164C3.214 9.51103 3 9.8573 3 10.2361V11H13V10.2361C13 9.8573 12.786 9.51103 12.4472 9.34164L11.5528 8.89443L10.9472 8.59165L11.0033 7.91879L11.0033 7.9185L11.0034 7.91814L11.0034 7.91761L11.0035 7.91695L11.0038 7.91173L11.0062 7.87438C11.0083 7.83925 11.011 7.78431 11.0131 7.71244C11.0174 7.56837 11.0193 7.35809 11.0087 7.10413C10.9873 6.5902 10.9161 5.92663 10.7275 5.28C10.5374 4.62813 10.2468 4.05816 9.83091 3.65889C9.43906 3.28271 8.87795 3 8 3C7.12205 3 6.56094 3.28271 6.16909 3.65889C5.75318 4.05816 5.46263 4.62813 5.2725 5.28C5.0839 5.92663 5.01273 6.5902 4.99132 7.10413C4.98074 7.35809 4.98257 7.56837 4.98686 7.71244C4.989 7.78431 4.99174 7.83925 4.99379 7.87438L4.99618 7.91173L4.9966 7.91761ZM13.0162 7.39005C13.0153 7.2776 13.0125 7.15389 13.0069 7.02087C12.9815 6.4098 12.8964 5.57337 12.6475 4.72C12.4001 3.87187 11.9719 2.94184 11.216 2.21611C10.4359 1.46729 9.37205 1 8 1C6.62795 1 5.56406 1.46729 4.78403 2.21611C4.02807 2.94184 3.59987 3.87187 3.3525 4.72C3.1036 5.57337 3.01852 6.4098 2.99305 7.02087C2.98751 7.15389 2.98474 7.2776 2.98383 7.39005L2.65836 7.55279C1.64201 8.06096 1 9.09975 1 10.2361V11C1 12.1046 1.89543 13 3 13H13C14.1046 13 15 12.1046 15 11V10.2361C15 9.09975 14.358 8.06096 13.3416 7.55279L13.0162 7.39005Z" fill="#333333"/>
</svg>