<svg width="16" height="16" viewBox="0 0 16 16" fill="none" xmlns="http://www.w3.org/2000/svg">
<g clip-path="url(#clip0_2308_53266)">
<path fill-rule="evenodd" clip-rule="evenodd" d="M11.5765 -0.000242493L4.41753 -0.000241966C4.15897 -0.000374434 3.94915 0.209442 3.94928 0.468004L3.94928 0.498338C3.94922 0.937244 4.12016 1.35006 4.43051 1.66041C4.63046 1.86036 4.87313 2.00143 5.13765 2.07719L4.60668 7.27556C4.06386 7.30602 3.5578 7.53167 3.17029 7.91918C2.75271 8.33676 2.52275 8.8919 2.52282 9.48234L2.52282 9.52725C2.52276 9.78587 2.73244 9.99556 2.99107 9.99549L6.99754 9.99549L6.99747 13.5101C6.99867 13.5949 7.16833 15.0259 7.18954 15.2188C7.21075 15.4118 7.36141 15.5487 7.36233 15.5624C7.3783 15.8082 7.75338 15.9992 7.99995 15.9998C8.1291 16 8.4148 15.9478 8.50004 15.8625C8.57773 15.7848 8.62846 15.6798 8.63634 15.5624C8.63707 15.5521 8.79254 15.3697 8.80914 15.2188C8.82574 15.068 8.99981 13.595 9.00101 13.5036V9.99562L13.0031 9.99562C13.1324 9.99569 13.2495 9.94324 13.3342 9.85853C13.4189 9.77382 13.4714 9.65666 13.4713 9.52738V9.48247C13.4714 8.89203 13.2414 8.33683 12.8238 7.91931C12.4363 7.5318 11.9302 7.30622 11.3874 7.27569L10.8565 2.07733C11.121 2.00156 11.3637 1.86049 11.5636 1.66054C11.874 1.35012 12.045 0.937442 12.0448 0.49847L12.0448 0.468136C12.0448 0.209376 11.8351 -0.000308727 11.5765 -0.000242493Z" fill="#3B72A7"/>
</g>
<defs>
<clipPath id="clip0_2308_53266">
<rect width="16" height="16" fill="white"/>
</clipPath>
</defs>
</svg>
