<svg width="20" height="16" viewBox="0 0 20 16" fill="none" xmlns="http://www.w3.org/2000/svg">
<path fill-rule="evenodd" clip-rule="evenodd" d="M9 0.0618897C8.26343 0.153738 7.55797 0.345717 6.89765 0.623775L7.90848 2.3746C8.25808 2.24456 8.62308 2.14619 9 2.08295L9 0.0618897ZM11 2.08295V0.0618896C14.9463 0.553988 18 3.92038 18 8C18 12.0796 14.9463 15.446 11 15.9381V13.917C13.8377 13.441 16 10.973 16 8C16 5.027 13.8377 2.55903 11 2.08295ZM7.90735 13.625C8.25729 13.7552 8.62267 13.8537 9 13.917L8.99999 15.9381C8.26302 15.8462 7.55718 15.6541 6.89654 15.3758L7.90735 13.625ZM5.37637 11.8241C5.61726 12.1151 5.88508 12.3829 6.17601 12.6237L5.16529 14.3744C4.58493 13.9335 4.06662 13.4152 3.62574 12.8349L5.37637 11.8241ZM4.08295 9C4.14627 9.37738 4.24481 9.74283 4.37509 10.0928L2.62432 11.1036C2.34597 10.4429 2.1538 9.73704 2.06189 9H4.08295ZM4.37523 5.90678C4.24488 6.2569 4.14629 6.62247 4.08295 7H2.06189C2.15381 6.26281 2.34604 5.55678 2.62448 4.89598L4.37523 5.90678ZM6.17694 3.37547C5.88576 3.61647 5.61771 3.88443 5.37663 4.17554L3.62599 3.16481C4.06705 2.58427 4.58561 2.06583 5.16625 1.6249L6.17694 3.37547Z" fill="white"/>
<path d="M8 5L13 8L8 11V5Z" fill="white"/>
</svg>
