<svg width="16" height="16" viewBox="0 0 16 16" fill="none" xmlns="http://www.w3.org/2000/svg">
<path fill-rule="evenodd" clip-rule="evenodd" d="M2 1C1.44772 1 1 1.44772 1 2V6C1 6.55228 1.44772 7 2 7H6C6.55228 7 7 6.55228 7 6V2C7 1.44772 6.55228 1 6 1H2ZM3.5 5C3.22386 5 3 4.77614 3 4.5V3.5C3 3.22386 3.22386 3 3.5 3H4.5C4.77614 3 5 3.22386 5 3.5V4.5C5 4.77614 4.77614 5 4.5 5H3.5ZM2 9C1.44772 9 1 9.44771 1 10V14C1 14.5523 1.44772 15 2 15H6C6.55228 15 7 14.5523 7 14V10C7 9.44771 6.55228 9 6 9H2ZM3.5 13C3.22386 13 3 12.7761 3 12.5V11.5C3 11.2239 3.22386 11 3.5 11H4.5C4.77614 11 5 11.2239 5 11.5V12.5C5 12.7761 4.77614 13 4.5 13H3.5ZM9 2C9 1.44772 9.44771 1 10 1H14C14.5523 1 15 1.44772 15 2V6C15 6.55228 14.5523 7 14 7H10C9.44771 7 9 6.55228 9 6V2ZM11.5 3C11.2239 3 11 3.22386 11 3.5V4.5C11 4.77614 11.2239 5 11.5 5H12.5C12.7761 5 13 4.77614 13 4.5V3.5C13 3.22386 12.7761 3 12.5 3H11.5ZM10 9C9.44771 9 9 9.44771 9 10V14C9 14.5523 9.44771 15 10 15H14C14.5523 15 15 14.5523 15 14V10C15 9.44771 14.5523 9 14 9H10ZM11.5 13C11.2239 13 11 12.7761 11 12.5V11.5C11 11.2239 11.2239 11 11.5 11H12.5C12.7761 11 13 11.2239 13 11.5V12.5C13 12.7761 12.7761 13 12.5 13H11.5Z" fill="#A3A9AE"/>
</svg>
