<svg width="18" height="14" viewBox="0 0 18 14" fill="none" xmlns="http://www.w3.org/2000/svg">
<path fill-rule="evenodd" clip-rule="evenodd" d="M3.41425 6L3.42339 5.99086L3.43975 5.9745L3.45611 5.95815L3.47245 5.9418L3.48879 5.92546L3.50513 5.90912L3.52146 5.8928L3.53778 5.87647L3.55409 5.86016L3.5704 5.84385L3.5867 5.82755L3.60299 5.81126L3.61928 5.79497L3.63556 5.7787L3.65183 5.76243L3.66809 5.74616L3.68434 5.72991L3.70059 5.71367L3.71682 5.69743L3.73305 5.6812L3.74927 5.66498L3.76548 5.64877L3.78168 5.63257L3.79787 5.61638L3.81406 5.6002L3.83023 5.58402L3.84639 5.56786L3.86254 5.55171L3.87869 5.53557L3.89482 5.51943L3.91094 5.50331L3.92705 5.4872L3.94315 5.4711L3.95924 5.45501L3.97531 5.43894L3.99138 5.42287L4.00743 5.40682L4.02348 5.39077L4.03951 5.37474L4.05553 5.35873L4.07153 5.34272L4.08753 5.32673L4.10351 5.31074L4.11948 5.29478L4.13543 5.27882L4.15137 5.26288L4.1673 5.24695L4.18322 5.23103L4.19912 5.21513L4.21501 5.19924L4.23088 5.18337L4.24674 5.16751L4.26259 5.15166L4.27842 5.13583L4.29424 5.12001L4.31004 5.10421L4.32583 5.08843L4.3416 5.07265L4.35735 5.0569L4.3731 5.04116L4.38882 5.02543L4.40453 5.00972L4.42022 4.99403L4.4359 4.97835L4.45156 4.96269L4.46721 4.94705L4.48283 4.93142L4.49845 4.91581L4.51404 4.90021L4.52962 4.88464L4.54518 4.86908L4.56072 4.85353L4.57624 4.83801L4.59175 4.8225L4.60724 4.80702L4.62271 4.79155L4.63816 4.77609L4.65359 4.76066L4.669 4.74525L4.6844 4.72985L4.69978 4.71448L4.71513 4.69912L4.73047 4.68378L4.74579 4.66846L4.76109 4.65316L4.77637 4.63788L4.79163 4.62263L4.80686 4.60739L4.82208 4.59217L4.83728 4.57697L4.85246 4.5618L4.86761 4.54664L4.88275 4.53151L4.89786 4.51639L4.91295 4.5013L4.92802 4.48623L4.94307 4.47118L4.9581 4.45616L4.9731 4.44115L4.98808 4.42617L5.00304 4.41121L5.01798 4.39627L5.03289 4.38136L5.04778 4.36647L5.06265 4.3516L5.0775 4.33675L5.09232 4.32193L5.10712 4.30714L5.12189 4.29236L5.13664 4.27761L5.15137 4.26289L5.16607 4.24818L5.18075 4.23351L5.1954 4.21885L5.21002 4.20423L5.22463 4.18962L5.2392 4.17505L5.25376 4.1605L5.26828 4.14597L5.28278 4.13147L5.29726 4.11699L5.31171 4.10254L5.32613 4.08812L5.34053 4.07373L5.3549 4.05936L5.36924 4.04501L5.38356 4.0307L5.39784 4.01641L5.41211 4.00214L5.42634 3.98791L5.44055 3.9737L5.45473 3.95952L5.46888 3.94537L5.483 3.93125L5.4971 3.91715L5.51117 3.90309L5.5252 3.88905L5.53921 3.87504L5.55319 3.86106L5.56714 3.84711L5.58107 3.83318L5.59496 3.81929L5.60882 3.80543L5.62266 3.79159L5.63646 3.77779L5.65023 3.76402L5.66398 3.75027L5.67769 3.73656L5.69137 3.72288L5.70502 3.70923L5.71864 3.69561L5.73223 3.68202L5.74579 3.66846L5.75932 3.65493L5.77281 3.64144L5.78628 3.62798L5.79971 3.61454L5.81311 3.60115L5.82647 3.58778L5.83981 3.57444L5.85311 3.56114L5.86638 3.54787L5.87961 3.53464L5.89282 3.52144L5.90599 3.50827L5.91912 3.49513L5.93222 3.48203L5.94529 3.46896L5.95833 3.45592L5.97133 3.44292L5.98429 3.42996L5.99722 3.41703L6.01012 3.40413L6.02298 3.39127L6.03581 3.37844L6.0486 3.36565L6.06136 3.35289L6.07408 3.34017L6.08676 3.32749L6.09941 3.31484L6.11203 3.30223L6.1246 3.28965L6.13714 3.27711L6.14965 3.2646L6.16211 3.25214L6.17454 3.23971L6.18694 3.22731L6.19929 3.21496L6.21161 3.20264L6.22389 3.19036L6.23614 3.17811L6.24834 3.16591L6.26051 3.15374L6.27264 3.14161L6.28473 3.12952L6.29678 3.11747L6.3088 3.10546L6.32077 3.09348L6.33271 3.08155L6.3446 3.06965L6.35646 3.05779L6.36828 3.04598L6.38005 3.0342L6.39179 3.02246L6.40349 3.01076L6.41514 2.99911L6.42676 2.98749L6.43834 2.97591L6.44987 2.96438L6.46137 2.95289L6.47282 2.94143L6.48423 2.93002L6.4956 2.91865L6.50693 2.90732L6.51822 2.89604L6.52946 2.88479L6.54066 2.87359L6.55182 2.86243L6.56294 2.85131L6.57402 2.84023L6.58505 2.8292L6.59604 2.81821L6.60698 2.80727L6.61789 2.79636L6.62875 2.78551L6.63956 2.77469L6.65033 2.76392L6.66106 2.75319L6.67175 2.74251L6.68238 2.73187L6.69298 2.72127L6.70353 2.71072L6.71403 2.70022L6.72449 2.68976L6.73491 2.67934L6.74528 2.66897L6.7556 2.65865L6.76588 2.64837L6.77611 2.63814L6.7863 2.62795L6.79644 2.61781L6.80653 2.60772L6.81658 2.59767L6.82658 2.58767L6.83653 2.57772L6.84644 2.56781L6.8563 2.55795L6.86611 2.54814L6.87587 2.53838L6.88559 2.52866L6.89526 2.51899L6.90488 2.50937L6.91445 2.4998L6.92397 2.49028L6.93345 2.4808L6.94288 2.47138L6.95225 2.462L6.96158 2.45267L6.97086 2.44339L6.98009 2.43416L6.98927 2.42498L6.9984 2.41585L7.00748 2.40677L7.01651 2.39774L7.02549 2.38876L7.03442 2.37983L7.0433 2.37096L7.05212 2.36213L7.0609 2.35335L7.06963 2.34463L7.0783 2.33595L7.08692 2.32733L7.09549 2.31876L7.10401 2.31024L7.11248 2.30177L7.12089 2.29336L7.12926 2.28499L7.13757 2.27668L7.14582 2.26843L7.15403 2.26022L7.16218 2.25207L7.17028 2.24397L7.17832 2.23593L7.18632 2.22794L7.19425 2.22L7.20214 2.21211L7.20997 2.20428L7.21774 2.19651L7.22546 2.18879L7.23313 2.18112L7.24074 2.17351L7.2483 2.16595L7.2558 2.15845L7.26325 2.151L7.27064 2.14361L7.27798 2.13628L7.28526 2.129L7.29248 2.12177L7.29965 2.1146L7.30676 2.10749L7.31382 2.10044L7.32081 2.09344L7.32776 2.0865L7.33464 2.07961L7.34147 2.07278L7.34824 2.06601L7.35495 2.0593L7.36161 2.05264L7.36821 2.04604L7.37475 2.0395L7.38123 2.03302L7.38765 2.0266L7.39402 2.02023L7.40032 2.01393L7.40657 2.00768L7.41276 2.00149L7.41889 1.99536L7.42496 1.98929L7.43097 1.98328L7.43692 1.97733L7.44281 1.97144L7.44865 1.96561L7.45442 1.95983L7.46013 1.95412L7.46578 1.94847L7.47137 1.94288L7.4769 1.93735L7.48237 1.93189L7.48777 1.92648L7.49312 1.92113L7.4984 1.91585L7.50362 1.91063L7.50878 1.90547L7.51388 1.90037L7.51892 1.89533L7.52389 1.89036L7.5288 1.88545L7.53365 1.8806L7.53844 1.87581L7.54316 1.87109L7.54782 1.86643L7.55242 1.86184L7.55695 1.8573L7.56142 1.85283L7.56582 1.84843L7.57016 1.84409L7.57444 1.83981L7.57865 1.8356L7.5828 1.83145L7.58688 1.82737L7.5909 1.82335L7.59485 1.8194L7.59874 1.81551L7.60256 1.81169L7.60632 1.80793L7.61001 1.80424L7.61364 1.80062L7.61719 1.79706L7.62069 1.79356L7.62411 1.79014L7.62747 1.78678L7.63077 1.78349L7.63399 1.78026L7.63715 1.7771L7.64024 1.77401L7.64327 1.77099L7.64622 1.76803L7.64911 1.76514L7.65193 1.76232L7.65468 1.75957L7.65737 1.75688L7.65998 1.75427L7.66253 1.75172L7.66501 1.74924L7.66742 1.74683L7.66976 1.74449L7.67203 1.74222L7.67423 1.74002L7.67636 1.73789L7.67842 1.73583L7.68041 1.73384L7.68234 1.73192L7.68419 1.73007L7.68597 1.72828L7.68768 1.72657L7.68932 1.72494L7.69088 1.72337L7.69238 1.72187L7.69381 1.72045L7.69516 1.71909L7.69644 1.71781L7.69765 1.7166L7.69879 1.71546L7.69986 1.71439L7.70085 1.7134L7.70177 1.71248L7.70262 1.71163L7.7034 1.71085L7.7041 1.71015L7.70473 1.70952L7.70529 1.70897L7.70577 1.70848L7.70618 1.70808L7.70651 1.70774L7.70677 1.70748L7.70696 1.70729L7.70707 1.70718L7 1.00004L6.29286 0.292969L6.29274 0.293081L6.29256 0.293267L6.2923 0.293528L6.29196 0.293862L6.29155 0.294271L6.29107 0.294753L6.29052 0.295309L6.28989 0.295939L6.28918 0.296641L6.28841 0.297417L6.28756 0.298265L6.28664 0.299186L6.28564 0.30018L6.28458 0.301246L6.28344 0.302385L6.28223 0.303595L6.28095 0.304878L6.27959 0.306232L6.27817 0.307657L6.27667 0.309154L6.2751 0.310722L6.27346 0.312361L6.27175 0.314071L6.26997 0.315852L6.26812 0.317703L6.2662 0.319624L6.26421 0.321616L6.26215 0.323678L6.26002 0.325809L6.25781 0.328011L6.25554 0.330281L6.2532 0.332621L6.25079 0.33503L6.24832 0.337509L6.24577 0.340056L6.24315 0.342671L6.24047 0.345355L6.23772 0.348108L6.2349 0.350928L6.23201 0.353817L6.22905 0.356773L6.22603 0.359797L6.22294 0.362888L6.21978 0.366047L6.21655 0.369273L6.21326 0.372566L6.2099 0.375925L6.20647 0.379351L6.20298 0.382844L6.19942 0.386403L6.1958 0.390028L6.19211 0.393718L6.18835 0.397475L6.18453 0.401297L6.18064 0.405185L6.17669 0.409138L6.17267 0.413156L6.16859 0.417239L6.16444 0.421386L6.16023 0.425598L6.15595 0.429875L6.15161 0.434216L6.1472 0.438621L6.14274 0.443089L6.1382 0.447622L6.13361 0.452218L6.12895 0.456877L6.12422 0.4616L6.11944 0.466386L6.11459 0.471234L6.10968 0.476146L6.10471 0.481119L6.09967 0.486156L6.09457 0.491254L6.08941 0.496414L6.08419 0.501637L6.0789 0.50692L6.07356 0.512266L6.06815 0.517673L6.06268 0.523141L6.05716 0.528669L6.05157 0.534259L6.04592 0.53991L6.0402 0.545621L6.03443 0.551392L6.0286 0.557223L6.02271 0.563115L6.01676 0.569066L6.01075 0.575077L6.00468 0.581147L5.99855 0.587277L5.99236 0.593466L5.98611 0.599713L5.9798 0.60602L5.97344 0.612385L5.96702 0.618809L5.96053 0.625291L5.95399 0.631831L5.9474 0.638429L5.94074 0.645084L5.93403 0.651798L5.92726 0.658568L5.92043 0.665397L5.91354 0.672282L5.9066 0.679224L5.8996 0.686223L5.89255 0.693278L5.88543 0.70039L5.87827 0.707558L5.87104 0.714782L5.86376 0.722062L5.85643 0.729398L5.84904 0.73679L5.84159 0.744236L5.83409 0.751738L5.82653 0.759296L5.81892 0.766908L5.81125 0.774574L5.80353 0.782296L5.79575 0.790071L5.78792 0.797901L5.78004 0.805785L5.7721 0.813723L5.76411 0.821714L5.75607 0.829759L5.74797 0.837858L5.73982 0.846009L5.73161 0.854214L5.72335 0.862471L5.71504 0.870781L5.70668 0.879144L5.69827 0.887559L5.6898 0.896026L5.68128 0.904545L5.67271 0.913116L5.66409 0.921739L5.65541 0.930413L5.64669 0.939138L5.63791 0.947915L5.62908 0.956743L5.6202 0.965621L5.61127 0.97455L5.60229 0.98353L5.59327 0.992559L5.58419 1.00164L5.57506 1.01077L5.56588 1.01995L5.55665 1.02918L5.54737 1.03846L5.53804 1.04779L5.52866 1.05716L5.51924 1.06659L5.50976 1.07606L5.50024 1.08559L5.49067 1.09516L5.48105 1.10478L5.47138 1.11445L5.46166 1.12416L5.4519 1.13393L5.44208 1.14374L5.43223 1.1536L5.42232 1.16351L5.41237 1.17346L5.40237 1.18346L5.39232 1.19351L5.38223 1.2036L5.37209 1.21374L5.3619 1.22393L5.35167 1.23416L5.34139 1.24444L5.33106 1.25476L5.3207 1.26513L5.31028 1.27554L5.29982 1.286L5.28932 1.29651L5.27877 1.30706L5.26817 1.31765L5.25753 1.32829L5.24685 1.33898L5.23612 1.3497L5.22535 1.36048L5.21453 1.37129L5.20367 1.38215L5.19277 1.39305L5.18183 1.404L5.17084 1.41499L5.1598 1.42602L5.14873 1.4371L5.13761 1.44821L5.12645 1.45937L5.11525 1.47058L5.104 1.48182L5.09272 1.49311L5.08139 1.50444L5.07002 1.51581L5.05861 1.52722L5.04715 1.53867L5.03566 1.55017L5.02412 1.5617L5.01255 1.57328L5.00093 1.58489L4.98927 1.59655L4.97758 1.60825L4.96584 1.61999L4.95406 1.63176L4.94225 1.64358L4.93039 1.65544L4.91849 1.66733L4.90656 1.67927L4.89458 1.69124L4.88257 1.70326L4.87052 1.71531L4.85843 1.7274L4.8463 1.73953L4.83413 1.7517L4.82192 1.7639L4.80968 1.77614L4.7974 1.78843L4.78508 1.80074L4.77272 1.8131L4.76033 1.82549L4.7479 1.83792L4.73543 1.85039L4.72293 1.8629L4.71039 1.87544L4.69781 1.88801L4.6852 1.90063L4.67255 1.91327L4.65986 1.92596L4.64714 1.93868L4.63439 1.95144L4.6216 1.96423L4.60877 1.97706L4.59591 1.98992L4.58301 2.00281L4.57008 2.01575L4.55711 2.02871L4.54411 2.04171L4.53108 2.05475L4.51801 2.06781L4.50491 2.08092L4.49177 2.09405L4.4786 2.10722L4.4654 2.12042L4.45216 2.13366L4.4389 2.14693L4.42559 2.16023L4.41226 2.17357L4.39889 2.18693L4.38549 2.20033L4.37206 2.21376L4.3586 2.22723L4.3451 2.24072L4.33158 2.25425L4.31802 2.26781L4.30443 2.28139L4.29081 2.29501L4.27716 2.30867L4.26348 2.32235L4.24976 2.33606L4.23602 2.3498L4.22225 2.36358L4.20844 2.37738L4.19461 2.39122L4.18075 2.40508L4.16685 2.41897L4.15293 2.43289L4.13898 2.44685L4.125 2.46083L4.11099 2.47483L4.09695 2.48887L4.08288 2.50294L4.06879 2.51704L4.05467 2.53116L4.04051 2.54531L4.02634 2.55949L4.01213 2.5737L3.99789 2.58793L3.98363 2.60219L3.96934 2.61648L3.95503 2.6308L3.94068 2.64514L3.92631 2.65951L3.91192 2.67391L3.89749 2.68833L3.88304 2.70278L3.86857 2.71725L3.85407 2.73176L3.83954 2.74628L3.82499 2.76083L3.81041 2.77541L3.79581 2.79001L3.78118 2.80464L3.76653 2.81929L3.75185 2.83397L3.73715 2.84867L3.72243 2.8634L3.70768 2.87815L3.6929 2.89292L3.67811 2.90772L3.66328 2.92254L3.64844 2.93739L3.63357 2.95225L3.61868 2.96714L3.60377 2.98206L3.58883 2.997L3.57387 3.01196L3.55889 3.02694L3.54388 3.04194L3.52886 3.05697L3.51381 3.07202L3.49874 3.08709L3.48365 3.10218L3.46853 3.11729L3.4534 3.13243L3.43824 3.14758L3.42307 3.16276L3.40787 3.17796L3.39265 3.19317L3.37741 3.20841L3.36215 3.22367L3.34688 3.23895L3.33158 3.25425L3.31626 3.26957L3.30092 3.2849L3.28556 3.30026L3.27019 3.31564L3.25479 3.33103L3.23938 3.34645L3.22394 3.36188L3.20849 3.37733L3.19302 3.3928L3.17753 3.40829L3.16203 3.4238L3.1465 3.43932L3.13096 3.45486L3.1154 3.47042L3.09983 3.486L3.08423 3.50159L3.06862 3.5172L3.05299 3.53283L3.03735 3.54848L3.02169 3.56414L3.00601 3.57981L2.99032 3.59551L2.97461 3.61122L2.95888 3.62694L2.94314 3.64268L2.92738 3.65844L2.91161 3.67421L2.89583 3.69L2.88002 3.7058L2.86421 3.72162L2.84838 3.73745L2.83253 3.75329L2.81667 3.76916L2.8008 3.78503L2.78491 3.80092L2.76901 3.81682L2.75309 3.83274L2.73716 3.84866L2.72122 3.86461L2.70526 3.88056L2.68929 3.89653L2.67331 3.91251L2.65732 3.92851L2.64131 3.94451L2.62529 3.96053L2.60926 3.97656L2.59322 3.9926L2.57717 4.00866L2.5611 4.02472L2.54502 4.0408L2.52893 4.05689L2.51284 4.07299L2.49673 4.0891L2.4806 4.10522L2.46447 4.12135L2.44833 4.1375L2.43218 4.15365L2.41601 4.16981L2.39984 4.18598L2.38366 4.20216L2.36747 4.21836L2.35127 4.23456L2.33506 4.25077L2.31884 4.26699L2.30261 4.28321L2.28637 4.29945L2.27013 4.3157L2.25387 4.33195L2.23761 4.34821L2.22134 4.36448L2.20506 4.38076L2.18878 4.39705L2.17249 4.41334L2.15619 4.42964L2.13988 4.44595L2.12356 4.46226L2.10724 4.47858L2.09091 4.49491L2.07458 4.51124L2.05824 4.52759L2.04189 4.54393L2.02554 4.56029L2.00918 4.57664L1.99282 4.59301L1.97645 4.60938L1.96007 4.62575L1.94369 4.64213L1.92731 4.65852L1.91092 4.67491L1.89452 4.6913L1.87812 4.7077L1.86172 4.72411L1.84531 4.74051L1.8289 4.75692L1.81249 4.77334L1.79607 4.78976L1.77964 4.80618L1.76322 4.82261L1.74679 4.83903L1.73036 4.85547L1.71392 4.8719L1.69749 4.88834L1.68105 4.90478L1.66461 4.92122L1.64816 4.93766L1.63172 4.95411L1.61527 4.97055L1.59882 4.987L1.58237 5.00345L1.56592 5.0199L1.54947 5.03636L1.53302 5.05281L1.51656 5.06926L1.50011 5.08572L1.48365 5.10217L1.4672 5.11863L1.45074 5.13508L1.43429 5.15154L1.41783 5.16799L1.40138 5.18445L1.38492 5.2009L1.36847 5.21735L1.35202 5.23381L1.33557 5.25026L1.31912 5.26671L1.30267 5.28315L1.28622 5.2996L1.26978 5.31604L1.25334 5.33249L1.2369 5.34893L1.22046 5.36537L1.20402 5.3818L1.18759 5.39823L1.17116 5.41466L1.15474 5.43109L1.13831 5.44751L1.12189 5.46393L1.10547 5.48035L1.08906 5.49676L1.07265 5.51317L1.05625 5.52958L1.03985 5.54598L1.02345 5.56237L1.00706 5.57877L0.990671 5.59515L0.974288 5.61154L0.957911 5.62791L0.941539 5.64429L0.925172 5.66065L0.908811 5.67701L0.892456 5.69337L0.876106 5.70972L0.859763 5.72606L0.843426 5.7424L0.827095 5.75873L0.810771 5.77505L0.794454 5.79137L0.778143 5.80768L0.76184 5.82398L0.745544 5.84028L0.729255 5.85657L0.712974 5.87285L0.696701 5.88912L0.680435 5.90539L0.664178 5.92165L0.647929 5.9379L0.631689 5.95414L0.615457 5.97037L0.599234 5.98659L0.58302 6.0028L0.566815 6.01901L0.550619 6.03521L0.534433 6.05139L0.518257 6.06757L0.50209 6.08373L0.485933 6.09989L0.469787 6.11604L0.45365 6.13217L0.437525 6.1483L0.42141 6.16441L0.405305 6.18052L0.389212 6.19661L0.37313 6.21269L0.357059 6.22877L0.341 6.24482L0.324953 6.26087L0.308917 6.27691L0.292893 6.29293C-0.0976311 6.68346 -0.0976311 7.31662 0.292893 7.70714L6.29289 13.7071L7.70711 12.2929L3.41418 8H18V6H3.41425Z" fill="white"/>
</svg>
