<svg width="16" height="16" viewBox="0 0 16 16" fill="none" xmlns="http://www.w3.org/2000/svg">
<path fill-rule="evenodd" clip-rule="evenodd" d="M2 2.5C2 2.22386 1.77614 2 1.5 2H0.5C0.223858 2 0 2.22386 0 2.5V3.5C0 3.77614 0.223858 4 0.5 4H1.5C1.77614 4 2 3.77614 2 3.5V2.5ZM16 2.5C16 2.22386 15.7761 2 15.5 2H4.5C4.22386 2 4 2.22386 4 2.5V3.5C4 3.77614 4.22386 4 4.5 4L15.5 4C15.7761 4 16 3.77614 16 3.5V2.5ZM2 7.5C2 7.22386 1.77614 7 1.5 7H0.5C0.223858 7 0 7.22386 0 7.5V8.5C0 8.77614 0.223858 9 0.5 9H1.5C1.77614 9 2 8.77614 2 8.5V7.5ZM16 7.5C16 7.22386 15.7761 7 15.5 7H4.5C4.22386 7 4 7.22386 4 7.5V8.5C4 8.77614 4.22386 9 4.5 9H15.5C15.7761 9 16 8.77614 16 8.5V7.5ZM0 12.5C0 12.2239 0.223858 12 0.5 12H1.5C1.77614 12 2 12.2239 2 12.5V13.5C2 13.7761 1.77614 14 1.5 14H0.5C0.223858 14 0 13.7761 0 13.5V12.5ZM4 12.5C4 12.2239 4.22386 12 4.5 12L15.5 12C15.7761 12 16 12.2239 16 12.5V13.5C16 13.7761 15.7761 14 15.5 14L4.5 14C4.22386 14 4 13.7761 4 13.5V12.5Z" fill="white"/>
</svg>
