<svg width="16" height="17" viewBox="0 0 16 17" fill="none" xmlns="http://www.w3.org/2000/svg">
<path fill-rule="evenodd" clip-rule="evenodd" d="M7.00331 14.9961C3.13704 14.9969 0.00248369 11.8648 1.63867e-07 7.99858C-0.000827171 4.13231 3.13125 0.997751 6.99834 0.996094C10.8596 0.99444 13.9925 4.12155 14 7.98285C14.0025 9.47083 13.5406 10.8511 12.751 11.9866C12.7616 11.9966 12.7722 12.0067 12.7826 12.0171L15.6358 14.8704C16.1223 15.3568 16.1223 16.1455 15.6358 16.632C15.1494 17.1185 14.3606 17.1185 13.8742 16.632L11.021 13.7788C11.0105 13.7683 11.0003 13.7577 10.9902 13.747C9.86056 14.5323 8.48841 14.9936 7.00827 14.9961H7.00331ZM7.00226 13.1961C4.13018 13.1967 1.80165 10.87 1.79981 7.99794C1.79919 5.12586 4.12588 2.79733 6.99857 2.7961C9.86696 2.79487 12.1943 5.11786 12.1998 7.98626C12.2047 10.859 9.87926 13.1912 7.00595 13.1961H7.00226Z" fill="#D0D5DA"/>
<rect x="4" y="6.99609" width="6" height="2" rx="0.5" fill="#D0D5DA"/>
<rect x="6" y="10.9961" width="6" height="2" rx="0.5" transform="rotate(-90 6 10.9961)" fill="#D0D5DA"/>
</svg>
