<svg width="10" height="10" viewBox="0 0 10 10" fill="none" xmlns="http://www.w3.org/2000/svg">
<path fill-rule="evenodd" clip-rule="evenodd" d="M0 9C0 9.55228 0.447715 10 1 10H5C5.55228 10 6 9.55228 6 9C6 8.44772 5.55228 8 5 8H1C0.447715 8 0 8.44772 0 9ZM0 5C0 5.55228 0.447715 6 1 6H7C7.55228 6 8 5.55228 8 5C8 4.44772 7.55228 4 7 4H1C0.447715 4 0 4.44772 0 5ZM1 2C0.447715 2 0 1.55229 0 1C0 0.447715 0.447715 0 1 0H9C9.55229 0 10 0.447715 10 1C10 1.55229 9.55228 2 9 2H1Z" fill="#A3A9AE"/>
</svg>
