<svg width="17" height="16" viewBox="0 0 17 16" fill="none" xmlns="http://www.w3.org/2000/svg">
<path fill-rule="evenodd" clip-rule="evenodd" d="M11.6684 1.64743e-06L4.50945 2.17427e-06C4.25089 -0.000130251 4.04107 0.209686 4.0412 0.468248L4.0412 0.498582C4.04114 0.937488 4.21208 1.3503 4.52243 1.66065C4.72238 1.8606 4.96504 2.00167 5.22957 2.07744L4.6986 7.2758C4.15578 7.30627 3.64972 7.53191 3.2622 7.91942C2.84462 8.337 2.61467 8.89214 2.61474 9.48259L2.61474 9.52749C2.61467 9.78612 2.82436 9.9958 3.08299 9.99574L7.08946 9.99574L7.08939 13.5104C7.09058 13.5951 7.26025 15.0262 7.28146 15.2191C7.30267 15.412 7.45333 15.549 7.45425 15.5626C7.47021 15.8084 7.8453 15.9994 8.09187 16C8.22102 16.0003 8.50672 15.948 8.59196 15.8628C8.66965 15.7851 8.72038 15.68 8.72826 15.5626C8.72899 15.5524 8.88446 15.37 8.90106 15.2191C8.91766 15.0682 9.09173 13.5952 9.09293 13.5038V9.99587L13.095 9.99587C13.2243 9.99593 13.3414 9.94348 13.4261 9.85877C13.5108 9.77406 13.5634 9.6569 13.5632 9.52762V9.48272C13.5633 8.89228 13.3333 8.33707 12.9158 7.91956C12.5282 7.53205 12.0221 7.30647 11.4794 7.27593L10.9484 2.07757C11.2129 2.0018 11.4556 1.86073 11.6555 1.66079C11.966 1.35037 12.1369 0.937686 12.1368 0.498714L12.1368 0.468381C12.1367 0.20962 11.927 -6.44388e-05 11.6684 1.64743e-06Z" fill="#657077"/>
</svg>
