<svg width="27" height="22" viewBox="0 0 27 22" fill="none" xmlns="http://www.w3.org/2000/svg">
<path fill-rule="evenodd" clip-rule="evenodd" d="M8 5L15 0V22L8 17H0V5H8ZM13 3.88638V18.1136L8.64093 15H2V7H8.64093L13 3.88638Z" fill="white"/>
<path d="M19.5 11C19.5 9.23919 18.4887 7.71457 17.0152 6.97535L18.3288 4.84065C20.5152 6.02475 22 8.33898 22 11C22 13.6904 20.4822 16.0264 18.2561 17.1982L17.0143 15.0251C18.4883 14.286 19.5 12.7612 19.5 11Z" fill="white"/>
<path d="M20.7381 21.5417L19.4973 19.3702C22.4756 17.7666 24.5 14.6197 24.5 11C24.5 7.43877 22.5405 4.33521 19.6408 2.70872L20.9521 0.577835C24.5653 2.64579 27 6.53857 27 11C27 15.549 24.4689 19.5067 20.7381 21.5417Z" fill="white"/>
</svg>
