<svg width="150" height="28" viewBox="0 0 150 28" fill="none" xmlns="http://www.w3.org/2000/svg">
<g opacity="0.8">
<path fill-rule="evenodd" clip-rule="evenodd" d="M10.9387 25.7058L0.656893 20.7626C-0.218964 20.3311 -0.218964 19.6642 0.656893 19.2718L4.23648 17.5457L10.9006 20.7626C11.7765 21.1942 13.1855 21.1942 14.0232 20.7626L20.6874 17.5457L24.267 19.2718C25.1428 19.7034 25.1428 20.3703 24.267 20.7626L13.9852 25.7058C13.1855 26.0981 11.7765 26.0981 10.9387 25.7058Z" fill="#FF6F3D"/>
<path fill-rule="evenodd" clip-rule="evenodd" d="M10.9387 19.6249L0.656893 14.6817C-0.218964 14.2501 -0.218964 13.5832 0.656893 13.1909L4.16032 11.5039L10.9387 14.7601C11.8145 15.1917 13.2235 15.1917 14.0613 14.7601L20.8397 11.5039L24.3431 13.1909C25.219 13.6224 25.219 14.2894 24.3431 14.6817L14.0613 19.6249C13.1855 20.0564 11.7765 20.0564 10.9387 19.6249Z" fill="#95C038"/>
<path fill-rule="evenodd" clip-rule="evenodd" d="M10.9387 13.7008L0.656893 8.75765C-0.218964 8.3261 -0.218964 7.65916 0.656893 7.26684L10.9387 2.32366C11.8145 1.89211 13.2235 1.89211 14.0613 2.32366L24.3431 7.26684C25.219 7.69839 25.219 8.36533 24.3431 8.75765L14.0613 13.7008C13.1855 14.0931 11.7765 14.0931 10.9387 13.7008Z" fill="#5DC0E8"/>
</g>
<path d="M33 13.977C33 11.5499 33.6769 9.71804 35.076 8.52737C36.4298 7.29089 38.0545 6.69556 39.9048 6.69556C41.7551 6.69556 43.3346 7.29089 44.6885 8.52737C46.0424 9.76384 46.7194 11.5499 46.7194 14.0228C46.7194 16.45 46.0424 18.2818 44.6885 19.4724C43.3346 20.7089 41.71 21.3043 39.9048 21.3043C38.0545 21.3043 36.475 20.7089 35.076 19.4724C33.6769 18.236 33 16.4042 33 13.977ZM35.9785 13.977C35.9785 15.6714 36.2944 16.8621 36.8811 17.6406C37.5129 18.4191 38.1899 18.9229 38.912 19.1061C39.0925 19.1519 39.2279 19.1977 39.4084 19.1977C39.5438 19.1977 39.7243 19.2435 39.8597 19.2435C40.0402 19.2435 40.1756 19.2435 40.3561 19.1977C40.5366 19.1977 40.672 19.1519 40.8525 19.1061C41.5746 18.9229 42.2515 18.4191 42.8382 17.6406C43.4249 16.8621 43.7408 15.6256 43.7408 14.0228C43.7408 12.3742 43.4249 11.1835 42.8382 10.405C42.2515 9.62645 41.5746 9.12271 40.8525 8.93953C40.672 8.89373 40.4915 8.84793 40.3561 8.84793C40.1756 8.84793 40.0402 8.80214 39.8597 8.80214C39.6792 8.80214 39.5438 8.80214 39.4084 8.84793C39.273 8.84793 39.0925 8.89373 38.912 8.93953C38.1899 9.12271 37.5129 9.62645 36.8811 10.405C36.2944 11.0919 35.9785 12.3284 35.9785 13.977Z" fill="white" fill-opacity="0.92"/>
<path d="M48.2085 6.83301H51.9091L56.7831 15.8089L57.5052 17.7781H57.5503L57.5052 15.2135V6.83301H60.3483V21.1211H56.6477L51.7737 11.7789L51.0517 10.1761H51.0065L51.0517 12.6948V21.1211H48.2085V6.83301Z" fill="white" fill-opacity="0.92"/>
<path d="M63.2817 6.83301H66.1249V18.694H71.7209V21.1211H63.2817V6.83301Z" fill="white" fill-opacity="0.92"/>
<path d="M69.9609 6.83301H73.2554L76.1437 11.8247L76.595 12.8322H76.6852L77.1365 11.8247L80.0699 6.83301H83.0936L77.994 15.3051V21.1211H75.1508V15.2593L69.9609 6.83301Z" fill="white" fill-opacity="0.92"/>
<path d="M82.7324 13.977C82.7324 11.5499 83.4094 9.71804 84.8084 8.52737C86.1623 7.29089 87.7869 6.69556 89.6372 6.69556C91.4875 6.69556 93.0671 7.29089 94.421 8.52737C95.7748 9.76384 96.4518 11.5499 96.4518 14.0228C96.4518 16.4499 95.7748 18.2818 94.421 19.4724C93.0671 20.7089 91.4424 21.3042 89.6372 21.3042C87.7869 21.3042 86.2074 20.7089 84.8084 19.4724C83.4545 18.236 82.7324 16.4042 82.7324 13.977ZM85.711 13.977C85.711 15.6714 86.0269 16.8621 86.6136 17.6406C87.2454 18.4191 87.8772 18.9229 88.6444 19.1061C88.8249 19.1519 88.9603 19.1977 89.1408 19.1977C89.2762 19.1977 89.4567 19.2435 89.5921 19.2435C89.7726 19.2435 89.908 19.2435 90.0885 19.1977C90.269 19.1977 90.4044 19.1519 90.585 19.1061C91.307 18.9229 91.984 18.4191 92.5706 17.6406C93.1573 16.8621 93.4732 15.6256 93.4732 14.0228C93.4732 12.3742 93.1573 11.1835 92.5706 10.405C91.984 9.62645 91.307 9.12271 90.585 8.93953C90.4044 8.89373 90.2239 8.84793 90.0885 8.84793C89.908 8.84793 89.7726 8.80214 89.5921 8.80214C89.4116 8.80214 89.2762 8.80214 89.1408 8.84793C89.0054 8.84793 88.8249 8.89373 88.6444 8.93953C87.9223 9.12271 87.2454 9.62645 86.6136 10.405C86.0269 11.0919 85.711 12.3284 85.711 13.977Z" fill="white" fill-opacity="0.92"/>
<path d="M98.4375 6.83301H106.29V9.21436H101.281V12.6948H106.064V15.122H101.281V21.1211H98.4375V6.83301Z" fill="white" fill-opacity="0.92"/>
<path d="M108.412 6.83301H116.264V9.21436H111.255V12.6948H116.039V15.122H111.255V21.1211H108.412V6.83301Z" fill="white" fill-opacity="0.92"/>
<path d="M117.934 21.1211V6.83301H120.777V21.1211H117.934Z" fill="white" fill-opacity="0.92"/>
<path d="M133.304 7.15347V9.62642C132.808 9.44324 132.311 9.30585 131.77 9.21426C131.228 9.12267 130.597 9.07687 129.965 9.07687C128.475 9.07687 127.347 9.53483 126.535 10.4965C125.723 11.4124 125.316 12.6031 125.316 14.0228C125.316 15.3966 125.677 16.5415 126.445 17.4574C127.212 18.3733 128.295 18.8771 129.694 18.8771C130.19 18.8771 130.687 18.8313 131.274 18.7855C131.86 18.6939 132.447 18.5565 133.079 18.2817L133.259 20.7089C133.169 20.7547 133.034 20.8005 132.898 20.8463C132.718 20.8921 132.537 20.9379 132.311 20.9836C131.95 21.0752 131.499 21.121 130.958 21.2126C130.416 21.2584 129.875 21.3042 129.288 21.3042C129.198 21.3042 129.107 21.3042 129.062 21.3042C128.972 21.3042 128.882 21.3042 128.837 21.3042C127.212 21.2126 125.723 20.5715 124.369 19.4724C123.015 18.3275 122.338 16.5415 122.338 14.1602C122.338 11.8246 123.015 9.99278 124.324 8.71051C125.632 7.42824 127.438 6.78711 129.649 6.78711C130.236 6.78711 130.777 6.78711 131.228 6.8329C131.725 6.8787 132.176 6.97029 132.673 7.06188C132.763 7.10768 132.898 7.10768 132.988 7.15347C133.079 7.10768 133.169 7.15347 133.304 7.15347Z" fill="white" fill-opacity="0.92"/>
<path d="M135.561 6.83301H144V9.07698H138.449V12.649H143.458V14.8472H138.449V18.8772H144V21.1211H135.561V6.83301Z" fill="white" fill-opacity="0.92"/>
</svg>
