<svg width="26" height="24" viewBox="0 0 26 24" fill="none" xmlns="http://www.w3.org/2000/svg">
<path fill-rule="evenodd" clip-rule="evenodd" d="M11.3099 23.7112L0.67919 18.8606C-0.226397 18.4371 -0.226397 17.7827 0.67919 17.3977L4.38028 15.7038L11.2707 18.8606C12.1762 19.284 13.633 19.284 14.4992 18.8606L21.3895 15.7038L25.0907 17.3977C25.9962 17.8212 25.9962 18.4756 25.0907 18.8606L14.4598 23.7112C13.633 24.0962 12.1762 24.0962 11.3099 23.7112Z" fill="url(#paint0_linear)"/>
<path fill-rule="evenodd" clip-rule="evenodd" d="M11.3099 17.5139L0.679189 12.6633C-0.226397 12.2397 -0.226397 11.5853 0.679189 11.2003L4.30153 9.54492L11.3099 12.7403C12.2156 13.1637 13.6723 13.1637 14.5386 12.7403L21.5471 9.54492L25.1694 11.2003C26.075 11.6238 26.075 12.2782 25.1694 12.6633L14.5386 17.5139C13.633 17.9374 12.1762 17.9374 11.3099 17.5139Z" fill="url(#paint1_linear)"/>
<path fill-rule="evenodd" clip-rule="evenodd" d="M11.31 11.4819L0.679189 6.63118C-0.226397 6.20771 -0.226397 5.55325 0.679189 5.16828L11.31 0.317604C12.2155 -0.105868 13.6724 -0.105868 14.5386 0.317604L25.1694 5.16828C26.075 5.59175 26.075 6.24621 25.1694 6.63118L14.5386 11.4819C13.633 11.8669 12.1762 11.8669 11.31 11.4819Z" fill="url(#paint2_linear)"/>
<defs>
<linearGradient id="paint0_linear" x1="40.4198" y1="28.3092" x2="40.4198" y2="10.5998" gradientUnits="userSpaceOnUse">
<stop stop-color="#FCC2B1"/>
<stop offset="0.8848" stop-color="#D9420B"/>
</linearGradient>
<linearGradient id="paint1_linear" x1="31.0804" y1="20.4113" x2="31.0804" y2="8.76439" gradientUnits="userSpaceOnUse">
<stop stop-color="#DEEDC9"/>
<stop offset="0.6606" stop-color="#8BBA25"/>
</linearGradient>
<linearGradient id="paint2_linear" x1="30.3174" y1="15.4762" x2="30.3174" y2="-0.372617" gradientUnits="userSpaceOnUse">
<stop stop-color="#C2EBFA"/>
<stop offset="1" stop-color="#26A8DE"/>
</linearGradient>
</defs>
</svg>
