<svg width="17" height="15" viewBox="0 0 17 15" fill="none" xmlns="http://www.w3.org/2000/svg">
<path fill-rule="evenodd" clip-rule="evenodd" d="M11.5 2.5H13.5C14.0523 2.5 14.5 2.94772 14.5 3.5V11.5C14.5 12.0523 14.0523 12.5 13.5 12.5H11.5V2.5ZM9 2.5H3.5C2.94772 2.5 2.5 2.94772 2.5 3.5V11.5C2.5 12.0523 2.94772 12.5 3.5 12.5H9V2.5ZM17 1.5C17 0.671573 16.3284 0 15.5 0H14.5H2.5H1.5C0.671573 0 0 0.671573 0 1.5V2.88462V12.1154V13.5C0 14.3284 0.671573 15 1.5 15H2.5H14.5H15.5C16.3284 15 17 14.3284 17 13.5V12.1154V2.88462V1.5Z" fill="#A3A9AE"/>
</svg>
