<svg width="12" height="12" viewBox="0 0 12 12" fill="none" xmlns="http://www.w3.org/2000/svg">
<path d="M11.1955 2.98823C10.6589 2.06902 9.93115 1.34122 9.01191 0.804692C8.09251 0.268194 7.08885 0 6.00018 0C4.91161 0 3.90766 0.268194 2.98842 0.804692C2.06913 1.34114 1.34133 2.06893 0.804774 2.98823C0.268194 3.90757 0 4.91153 0 6.00001C0 7.08855 0.268276 8.09234 0.804692 9.01175C1.34122 9.93096 2.06902 10.6588 2.98831 11.1953C3.90766 11.7318 4.91153 12 6.00007 12C7.08861 12 8.09259 11.7318 9.01188 11.1953C9.93112 10.6589 10.6589 9.93096 11.1954 9.01175C11.7318 8.09243 12 7.0885 12 6.00001C12 4.91142 11.7318 3.90744 11.1955 2.98823ZM7.00025 9.75002C7.00025 9.82287 6.97666 9.88282 6.92984 9.92962C6.88321 9.97643 6.82326 9.99986 6.75042 9.99986H5.25024C5.17734 9.99986 5.11742 9.97643 5.07054 9.92962C5.02364 9.8828 5.00022 9.82287 5.00022 9.75002V8.24985C5.00022 8.17701 5.02361 8.11705 5.07054 8.07026C5.11742 8.02352 5.17734 8.00013 5.25024 8.00013H6.75042C6.82326 8.00013 6.88321 8.02352 6.92984 8.07026C6.97666 8.11708 7.00025 8.17701 7.00025 8.24985V9.75002ZM8.90254 5.13277C8.83736 5.32549 8.76451 5.48314 8.68379 5.60548C8.60309 5.72788 8.48712 5.8529 8.33602 5.98045C8.18525 6.10805 8.06536 6.19925 7.97659 6.25403C7.88821 6.30862 7.76047 6.383 7.59399 6.47664C7.42206 6.5755 7.28026 6.70447 7.16835 6.8634C7.05634 7.02222 7.00036 7.15108 7.00036 7.24994C7.00036 7.32301 6.97677 7.38291 6.92992 7.42975C6.88321 7.47657 6.82329 7.49997 6.75042 7.49997H5.25032C5.17743 7.49997 5.1175 7.47657 5.07062 7.42975C5.02369 7.38291 5.00035 7.32301 5.00035 7.24994V6.96867C5.00035 6.61972 5.13698 6.29275 5.41046 5.98816C5.68393 5.68344 5.98472 5.45818 6.31289 5.31233C6.56273 5.19778 6.73988 5.08056 6.84403 4.96078C6.94834 4.84101 7.00041 4.682 7.00041 4.48419C7.00041 4.31226 6.90267 4.15864 6.70732 4.02313C6.51197 3.88776 6.28947 3.82006 6.03939 3.82006C5.76849 3.82006 5.5446 3.88259 5.36747 4.00764C5.19554 4.13256 4.97165 4.37219 4.69557 4.7263C4.6487 4.78886 4.58357 4.82019 4.50022 4.82019C4.43772 4.82019 4.38822 4.80459 4.3518 4.77342L3.32062 3.99213C3.20084 3.89835 3.18002 3.78903 3.25806 3.66401C3.92481 2.55462 4.89092 1.99992 6.15651 1.99992C6.60974 1.99992 7.05251 2.10672 7.48478 2.3203C7.91702 2.53377 8.27776 2.83589 8.56692 3.22657C8.85572 3.61711 9.0005 4.04166 9.0005 4.5C9.00012 4.72915 8.96744 4.93999 8.90254 5.13277Z" fill="#A3A9AE"/>
</svg>
