<svg width="16" height="16" viewBox="0 0 16 16" fill="none" xmlns="http://www.w3.org/2000/svg">
<g clip-path="url(#clip0_2381_53318)">
<path fill-rule="evenodd" clip-rule="evenodd" d="M2 3L8.75736 3L10.7574 1H2C0.89543 1 0 1.89543 0 3V13.5858C0 15.3676 2.15428 16.2599 3.41421 15L5.41421 13H14C15.1046 13 16 12.1046 16 11V4.24264L14 6.24264V11H5.41421C4.88378 11 4.37507 11.2107 4 11.5858L2 13.5858V3ZM14.7071 2.70711L8.20711 9.20711C7.81658 9.59763 7.18342 9.59763 6.79289 9.20711L3.79289 6.2071L5.2071 4.79289L7.5 7.08579L13.2929 1.29289L14.7071 2.70711Z" fill="#CC5BCC"/>
</g>
<defs>
<clipPath id="clip0_2381_53318">
<rect width="16" height="16" fill="white"/>
</clipPath>
</defs>
</svg>
