<svg width="24" height="24" viewBox="0 0 24 24" fill="none" xmlns="http://www.w3.org/2000/svg">
<path fill-rule="evenodd" clip-rule="evenodd" d="M20.7444 9.85584L23.1218 10.2525C23.6287 10.3359 23.9993 10.7739 24 11.288V12.7118C24 13.226 23.6294 13.664 23.1226 13.7475L20.7453 14.1444C20.5255 15.0438 20.1702 15.8876 19.7031 16.6574L21.137 18.6679C21.438 19.0854 21.389 19.6574 21.0265 20.02L20.0194 21.0271C19.6562 21.3911 19.0834 21.438 18.6674 21.1392L16.6533 19.7006C15.8871 20.1628 15.0508 20.5137 14.1587 20.7319L13.7603 23.1225C13.6768 23.6287 13.2388 24 12.7247 24H11.2998C10.7867 24 10.3473 23.6286 10.2657 23.1225L9.86578 20.7319C8.80635 20.4719 7.81909 20.0332 6.94641 19.4362L4.88397 20.7319C4.45037 21.0051 3.8817 20.9252 3.53893 20.54L2.59412 19.4758C2.25285 19.0912 2.2393 18.517 2.5619 18.1186L4.07691 16.2422C3.72645 15.5896 3.46278 14.8857 3.28115 14.1489L0.877394 13.7475C0.37207 13.6641 0 13.226 0 12.7119V11.2881C0 10.7739 0.37207 10.3359 0.877394 10.2525L3.28115 9.8511C3.50232 8.95568 3.85569 8.11343 4.32151 7.34623L2.93839 5.40893C2.6399 4.99219 2.68645 4.41981 3.04933 4.05614L4.05599 3.04873C4.41965 2.68583 4.99202 2.63928 5.40874 2.937L7.34229 4.31695C8.1153 3.8467 8.96235 3.48965 9.86578 3.26845L10.2657 0.877474C10.3473 0.371358 10.7867 0 11.2998 0H12.7247C13.2388 0 13.6768 0.371358 13.7603 0.877474L14.158 3.2677C15.2507 3.53542 16.2637 3.99681 17.1579 4.62161L19.1911 3.3435C19.6246 3.06959 20.193 3.15091 20.5357 3.53542L21.4813 4.59959C21.8225 4.98451 21.8372 5.55834 21.5135 5.95715L19.9916 7.84426C20.3197 8.4741 20.5716 9.14939 20.7444 9.85584ZM7.53782 12C7.53782 14.4844 9.55301 16.5 12.0377 16.5C14.5219 16.5 16.5375 14.4844 16.5375 12C16.5375 9.51526 14.5219 7.50001 12.0377 7.50001C9.55301 7.50001 7.53782 9.51526 7.53782 12Z" fill="white"/>
</svg>
