<svg width="18" height="18" viewBox="0 0 18 18" fill="none" xmlns="http://www.w3.org/2000/svg">
<path d="M9.75036 8.05344C9.74586 8.06301 9.73967 8.07201 9.73292 8.08044H9.75036V8.05344Z" fill="#1276B3"/>
<path fill-rule="evenodd" clip-rule="evenodd" d="M2.25 0C1.00736 0 0 1.00736 0 2.25V15.75C0 16.9926 1.00736 18 2.25 18H15.75C16.9926 18 18 16.9926 18 15.75V2.25C18 1.00736 16.9926 0 15.75 0H2.25ZM2.89855 6.91044H5.5828V14.9846H2.89855V6.91044ZM4.25755 3.01794C5.17611 3.01794 5.74142 3.62094 5.7583 4.41407C5.7583 5.18751 5.17611 5.80851 4.24011 5.80851H4.22267C3.32211 5.80851 2.73992 5.18751 2.73992 4.41407C2.73992 3.62094 3.34011 3.01794 4.25755 3.01794ZM12.1697 6.72144C13.9354 6.72144 15.26 7.87513 15.26 10.3546L15.2595 14.9846H12.5758V10.6646C12.5758 9.57782 12.1882 8.83869 11.2157 8.83869C10.4754 8.83869 10.0333 9.34044 9.83867 9.82082C9.7678 9.99463 9.75036 10.2314 9.75036 10.4756V14.9846H7.06723C7.06723 14.9846 7.10155 7.66757 7.06723 6.91044H9.75036V8.05344C10.1087 7.50388 10.746 6.72144 12.1697 6.72144Z" fill="#1276B3"/>
</svg>
