<svg width="17" height="17" viewBox="0 0 17 17" fill="none" xmlns="http://www.w3.org/2000/svg">
<path fill-rule="evenodd" clip-rule="evenodd" d="M8.5 17C13.1944 17 17 13.1944 17 8.5C17 3.80558 13.1944 0 8.5 0C3.80558 0 0 3.80558 0 8.5C0 13.1944 3.80558 17 8.5 17ZM8.5 14.6504C11.8968 14.6504 14.6504 11.8968 14.6504 8.5C14.6504 5.10322 11.8968 2.34959 8.5 2.34959C5.10322 2.34959 2.34959 5.10322 2.34959 8.5C2.34959 11.8968 5.10322 14.6504 8.5 14.6504ZM11.3415 5.44352C10.951 5.053 10.3179 5.053 9.92733 5.44352L5.44331 9.92754C5.05279 10.3181 5.05279 10.9512 5.44331 11.3417L5.65798 11.5564C6.0485 11.9469 6.68167 11.9469 7.07219 11.5564L11.5562 7.0724C11.9467 6.68188 11.9467 6.04871 11.5562 5.65819L11.3415 5.44352Z" fill="#A3A9AE"/>
<path d="M5.44551 7.07039C5.05499 6.67986 5.05499 6.0467 5.44551 5.65617L5.65568 5.446C6.04621 5.05548 6.67937 5.05548 7.06989 5.446L11.5547 9.93076C11.9452 10.3213 11.9452 10.9544 11.5547 11.345L11.3445 11.5551C10.954 11.9457 10.3208 11.9457 9.93027 11.5551L5.44551 7.07039Z" fill="#A3A9AE"/>
</svg>
