<svg width="16" height="16" viewBox="0 0 16 16" fill="none" xmlns="http://www.w3.org/2000/svg">
<g clip-path="url(#clip0_26231_36088)">
<path fill-rule="evenodd" clip-rule="evenodd" d="M12.3136 2.27152L10.8995 0.857399C9.72793 -0.314174 7.82844 -0.314174 6.65687 0.857399L6.06451 1.44976L0.552799 4.20561C0.265291 4.34937 0.0644141 4.62256 0.0129249 4.93986C-0.0385649 5.25715 0.0656106 5.57985 0.292905 5.80715L3.12133 8.63557L5.24265 10.7569L7.36397 12.8782L10.1924 15.7066C10.4197 15.9339 10.7424 16.0381 11.0597 15.9866C11.377 15.9351 11.6502 15.7343 11.7939 15.4467L14.5498 9.93504L15.1421 9.34268C16.3137 8.17111 16.3137 6.27161 15.1421 5.10004L13.7278 3.68573L16.7077 0.705042L15.2933 -0.708984L12.3136 2.27152ZM13.7279 7.92847C14.1185 7.53794 14.1185 6.90478 13.7279 6.51425L11.6066 4.39293L9.48529 2.27161C9.09477 1.88109 8.4616 1.88109 8.07108 2.27161L13.7279 7.92847ZM6.45941 3.48837L2.68818 5.37399L3.82844 6.51425L5.67122 4.67147L7.08543 6.08569L5.24265 7.92847L5.94976 8.63557L7.79254 6.79279L9.20675 8.20701L7.36397 10.0498L8.07108 10.7569L9.91386 8.91411L11.3281 10.3283L9.48529 12.1711L10.6256 13.3114L12.5112 9.54013L6.45941 3.48837Z" fill="#657077"/>
</g>
<defs>
<clipPath id="clip0_26231_36088">
<rect width="16" height="16" fill="white"/>
</clipPath>
</defs>
</svg>
