<svg width="76" height="76" viewBox="0 0 76 76" fill="none" xmlns="http://www.w3.org/2000/svg">
<path d="M26.7475 1L26.7473 1C12.5292 1.00505 1 12.5342 1 26.7574C1 40.9807 12.5293 52.505 26.7475 52.505C40.9708 52.505 52.5 40.9757 52.5 26.7525C52.5 12.5292 40.9708 1 26.7475 1Z" fill="#BDECFF" stroke="#333333"/>
<path d="M26.5 47.5C37.8218 47.5 47 38.3218 47 27C47 15.6782 37.8218 6.5 26.5 6.5C15.1782 6.5 6 15.6782 6 27C6 38.3218 15.1782 47.5 26.5 47.5Z" fill="#FEFEFE" stroke="#333333"/>
<path d="M45.8722 44.065L45.5186 43.7115L45.1651 44.0651L43.0649 46.1656L42.7113 46.5192L43.0649 46.8728L49.5323 53.3392L49.8859 53.6928L50.2394 53.3392L52.3396 51.2386L52.6932 50.885L52.3396 50.5315L45.8722 44.065Z" fill="#FEFEFE" stroke="#333333"/>
<mask id="path-4-inside-1_962_171010" fill="white">
<path fill-rule="evenodd" clip-rule="evenodd" d="M49.9405 55.74L69.0133 74.8079C69.7683 75.5629 71.0051 75.5629 71.76 74.8079L73.861 72.7069C74.616 71.952 74.616 70.7152 73.861 69.9602L54.7882 50.8874C54.0332 50.1324 52.7964 50.1324 52.0415 50.8874L49.9405 52.9884C49.1855 53.7483 49.1855 54.9851 49.9405 55.74Z"/>
</mask>
<path fill-rule="evenodd" clip-rule="evenodd" d="M49.9405 55.74L69.0133 74.8079C69.7683 75.5629 71.0051 75.5629 71.76 74.8079L73.861 72.7069C74.616 71.952 74.616 70.7152 73.861 69.9602L54.7882 50.8874C54.0332 50.1324 52.7964 50.1324 52.0415 50.8874L49.9405 52.9884C49.1855 53.7483 49.1855 54.9851 49.9405 55.74Z" fill="url(#paint0_linear_962_171010)"/>
<path d="M49.9405 55.74L49.2334 56.4471L49.2335 56.4472L49.9405 55.74ZM69.0133 74.8079L69.7204 74.1008L69.7204 74.1007L69.0133 74.8079ZM71.76 74.8079L72.4671 75.515V75.515L71.76 74.8079ZM73.861 72.7069L73.1539 71.9998L73.1539 71.9998L73.861 72.7069ZM73.861 69.9602L73.1539 70.6673L73.861 69.9602ZM54.7882 50.8874L54.0811 51.5945L54.7882 50.8874ZM52.0415 50.8874L52.7486 51.5945V51.5945L52.0415 50.8874ZM49.9405 52.9884L49.2334 52.2813L49.2311 52.2836L49.9405 52.9884ZM49.2335 56.4472L68.3063 75.5151L69.7204 74.1007L50.6475 55.0328L49.2335 56.4472ZM68.3062 75.515C69.4517 76.6605 71.3216 76.6605 72.4671 75.515L71.0529 74.1008C70.6885 74.4653 70.0849 74.4653 69.7204 74.1008L68.3062 75.515ZM72.4671 75.515L74.5681 73.414L73.1539 71.9998L71.0529 74.1008L72.4671 75.515ZM74.5681 73.414C75.7136 72.2685 75.7136 70.3986 74.5681 69.2531L73.1539 70.6673C73.5183 71.0318 73.5183 71.6354 73.1539 71.9998L74.5681 73.414ZM74.5681 69.2531L55.4953 50.1803L54.0811 51.5945L73.1539 70.6673L74.5681 69.2531ZM55.4953 50.1803C54.3498 49.0348 52.4799 49.0348 51.3344 50.1803L52.7486 51.5945C53.113 51.2301 53.7166 51.2301 54.0811 51.5945L55.4953 50.1803ZM51.3344 50.1803L49.2334 52.2813L50.6476 53.6955L52.7486 51.5945L51.3344 50.1803ZM49.2311 52.2836C48.0899 53.4322 48.0866 55.3004 49.2334 56.4471L50.6476 55.0329C50.2844 54.6698 50.2811 54.0644 50.6499 53.6932L49.2311 52.2836Z" fill="#333333" mask="url(#path-4-inside-1_962_171010)"/>
<defs>
<linearGradient id="paint0_linear_962_171010" x1="45.9493" y1="45.2847" x2="64.303" y2="65.5008" gradientUnits="userSpaceOnUse">
<stop stop-color="#FFC671"/>
<stop offset="1" stop-color="#FF6F3D"/>
</linearGradient>
</defs>
</svg>
