<svg width="16" height="16" viewBox="0 0 16 16" fill="none" xmlns="http://www.w3.org/2000/svg">
<path fill-rule="evenodd" clip-rule="evenodd" d="M8 16C12.4183 16 16 12.4183 16 8C16 3.58172 12.4183 0 8 0C3.58172 0 0 3.58172 0 8C0 12.4183 3.58172 16 8 16ZM5.92946 11.3447C6.38262 11.7704 7.11827 11.7704 7.57165 11.3447L12.705 6.52487C13.5659 5.66404 12.5449 4.32781 11.4764 5.39665L7.04492 9.57739C6.93026 9.68463 6.74449 9.68463 6.63005 9.57739L4.70054 7.7408C3.54497 6.58529 2.37389 8.00675 3.38509 8.95572L5.92946 11.3447Z" fill="#657077"/>
</svg>
