<svg width="24" height="24" viewBox="0 0 24 24" fill="none" xmlns="http://www.w3.org/2000/svg">
<rect y="7" width="23" height="14" rx="2" fill="#B2BBC0"/>
<path d="M2 2C0.895447 2 0 2.89551 0 4V9C0 7.89551 0.895447 7 2 7H21C22.1046 7 23 7.89551 23 9V7C23 5.89551 22.1046 5 21 5H10V4C10 2.89551 9.10455 2 8 2H2Z" fill="#788790"/>
<path opacity="0.504232" fill-rule="evenodd" clip-rule="evenodd" d="M17.7654 12.6353L18.6909 13.0222C18.8326 13.0814 18.9421 13.1985 18.9918 13.3437L19.3598 14.4194C19.419 14.5926 19.5624 14.7236 19.7402 14.7671L23.5911 15.7089C23.8313 15.7677 24.0004 15.983 24.0004 16.2304V20.7237C24.0004 21.0202 23.76 21.2605 23.4635 21.2605C23.41 21.2605 23.3568 21.2525 23.3057 21.2368L17.4004 19.4198C17.1752 19.3505 17.0215 19.1424 17.0215 18.9067V13.1306C17.0215 12.8341 17.2618 12.5938 17.5583 12.5938C17.6294 12.5938 17.6998 12.6079 17.7654 12.6353Z" fill="#D0DFFF"/>
<path opacity="0.8" fill-rule="evenodd" clip-rule="evenodd" d="M16.4226 13.7095L17.3482 14.0964C17.4898 14.1556 17.5993 14.2727 17.649 14.418L18.017 15.4936C18.0763 15.6668 18.2196 15.7978 18.3974 15.8413L22.2483 16.7832C22.4886 16.8419 22.6576 17.0573 22.6576 17.3046V21.7979C22.6576 22.0944 22.4172 22.3347 22.1208 22.3347C22.0672 22.3347 22.014 22.3267 21.9629 22.311L16.0577 20.494C15.8324 20.4247 15.6787 20.2166 15.6787 19.9809V14.2048C15.6787 13.9083 15.9191 13.668 16.2155 13.668C16.2866 13.668 16.357 13.6821 16.4226 13.7095Z" fill="#B3CAFF"/>
<path opacity="0.8" d="M21.3162 20.6226L22.6583 21.0356V17.3021C22.6583 17.0547 22.4893 16.8394 22.249 16.7806L18.3981 15.8388C18.2203 15.7953 18.0769 15.6642 18.0177 15.4911L17.6497 14.4154C17.6 14.2701 17.4905 14.1531 17.3488 14.0939L17.0215 13.957V16.7417C17.0328 16.7453 17.0444 16.7486 17.056 16.7514L20.9069 17.6933C21.1472 17.752 21.3162 17.9674 21.3162 18.2147V20.6226Z" fill="#AAC4FF"/>
<path fill-rule="evenodd" clip-rule="evenodd" d="M15.0808 14.6197L16.0064 15.0066C16.148 15.0658 16.2575 15.1828 16.3072 15.3281L16.6752 16.4038C16.7345 16.5769 16.8778 16.708 17.0556 16.7515L20.9065 17.6933C21.1468 17.7521 21.3158 17.9674 21.3158 18.2148V22.7081C21.3158 23.0045 21.0754 23.2449 20.779 23.2449C20.7254 23.2449 20.6722 23.2369 20.6211 23.2211L14.7159 21.4042C14.4906 21.3349 14.3369 21.1267 14.3369 20.8911V15.115C14.3369 14.8185 14.5773 14.5781 14.8738 14.5781C14.9448 14.5781 15.0152 14.5922 15.0808 14.6197Z" fill="#1A47FF"/>
<path fill-rule="evenodd" clip-rule="evenodd" d="M13.7197 17.0001L19.6843 18.6569C19.8644 18.7069 20.0055 18.847 20.0568 19.0267L21.1803 22.9589C21.221 23.1014 21.1385 23.25 20.9959 23.2907C20.946 23.305 20.8929 23.3045 20.8433 23.2892L14.5957 21.3669C14.4332 21.3169 14.304 21.1928 14.2474 21.0324L13.0698 17.696C12.9711 17.4164 13.1178 17.1098 13.3974 17.0111C13.5012 16.9744 13.6137 16.9706 13.7197 17.0001Z" fill="#5287FF"/>
</svg>
