<svg width="24" height="24" viewBox="0 0 24 24" fill="none" xmlns="http://www.w3.org/2000/svg">
<rect y="7" width="23" height="14" rx="2" fill="#B2BBC0"/>
<path d="M16.5758 17.4469C16.0916 17.1465 15.5301 16.9935 14.9615 17.0002C13.3055 17.0208 11.9797 18.3821 12.0002 20.0408C12.0077 20.6425 12.2074 21.2728 12.551 21.7664L19.0002 19.0007L16.5758 17.4469Z" fill="#0078D4"/>
<path d="M12.5391 21.7602C13.0994 22.5671 14.0187 23.048 15 23.0475H21.5622C22.4586 23.0477 23.2828 22.555 23.7081 21.7646L19.0001 19L12.5391 21.7602Z" fill="#28A8EA"/>
<path d="M21.999 18C21.1377 17.9992 19.7725 18.6738 19 18.9993L23.708 21.7637C24.6282 19.4083 22.9932 18.3512 21.999 18Z" fill="#1490DF"/>
<path d="M22.0009 18.0012L22.0045 18C21.5653 16.2849 20.0006 15 18.5006 15C16.501 15 15.6814 15.9698 15.0049 16.9993C15.5587 17.0006 16.1042 17.1533 16.5762 17.4462L19.0006 19C19.1265 18.9469 19.2682 18.8846 19.4209 18.8174C20.2048 18.4725 21.2787 18 21.9996 18.0007L22.0009 18.0012Z" fill="#0364B8"/>
<path d="M2 2C0.895447 2 0 2.89551 0 4V9C0 7.89551 0.895447 7 2 7H21C22.1046 7 23 7.89551 23 9V7C23 5.89551 22.1046 5 21 5H10V4C10 2.89551 9.10455 2 8 2H2Z" fill="#788790"/>
</svg>
