<svg width="24" height="24" viewBox="0 0 24 24" fill="none" xmlns="http://www.w3.org/2000/svg">
<rect y="7" width="23" height="14" rx="2" fill="#B2BBC0"/>
<path d="M2 2C0.895447 2 0 2.89551 0 4V9C0 7.89551 0.895447 7 2 7H21C22.1046 7 23 7.89551 23 9V7C23 5.89551 22.1046 5 21 5H10V4C10 2.89551 9.10455 2 8 2H2Z" fill="#788790"/>
<circle cx="18.5" cy="14.5" r="3.5" fill="#036C70"/>
<circle cx="21" cy="18" r="3" fill="#1A9BA1"/>
<circle cx="18.5" cy="20.5" r="2.5" fill="#37C6D0"/>
<rect x="12" y="14" width="6" height="6" fill="#04898D"/>
<path d="M14.3226 16.9294C14.2247 16.8401 14.1429 16.7213 14.0835 16.5819C14.026 16.4362 13.9973 16.2723 14.0003 16.1065C13.9952 15.8821 14.0503 15.663 14.1551 15.4908C14.2652 15.3184 14.4076 15.1907 14.5667 15.1217C14.7481 15.0396 14.9381 14.9991 15.129 15.002C15.3801 14.9893 15.6309 15.0376 15.8698 15.1445V15.8653C15.766 15.7788 15.6529 15.7153 15.5348 15.6772C15.4065 15.634 15.275 15.6123 15.1429 15.6127C15.0037 15.6057 14.8654 15.6459 14.7402 15.7299C14.6435 15.7872 14.5808 15.9179 14.5806 16.0627C14.5802 16.1505 14.6048 16.235 14.649 16.2983C14.7013 16.3729 14.7631 16.4337 14.8314 16.4775C14.9073 16.5296 15.0213 16.5987 15.1733 16.685C15.19 16.6923 15.2063 16.7013 15.222 16.7119C15.3716 16.7923 15.5159 16.8901 15.6533 17.0043C15.7574 17.0925 15.8447 17.2134 15.9081 17.3571C15.9731 17.52 16.0047 17.7042 15.9993 17.8898C16.0067 18.1202 15.9554 18.3469 15.8543 18.5309C15.7535 18.7001 15.6188 18.8248 15.4668 18.8894C15.2881 18.9664 15.1016 19.0037 14.9143 18.9997C14.7463 19.0008 14.5785 18.9819 14.4129 18.9433C14.273 18.9118 14.1365 18.8567 14.0065 18.7791V18.0192C14.1308 18.1413 14.2696 18.2325 14.4168 18.2887C14.5634 18.3515 14.7159 18.3851 14.8694 18.3884C15.0116 18.4007 15.1535 18.3593 15.2797 18.2687C15.3681 18.2001 15.4219 18.0701 15.4197 17.9306C15.4203 17.8335 15.3923 17.7401 15.3422 17.6717C15.2798 17.5876 15.2076 17.5184 15.1286 17.4671C15.0374 17.4044 14.9032 17.3218 14.7258 17.2193C14.5848 17.1413 14.4497 17.0442 14.3226 16.9294Z" fill="white"/>
</svg>
