<svg width="24" height="24" viewBox="0 0 24 24" fill="none" xmlns="http://www.w3.org/2000/svg">
<rect y="7" width="23" height="14" rx="2" fill="#B2BBC0"/>
<path d="M2 2C0.895447 2 0 2.89551 0 4V9C0 7.89551 0.895447 7 2 7H21C22.1046 7 23 7.89551 23 9V7C23 5.89551 22.1046 5 21 5H10V4C10 2.89551 9.10455 2 8 2H2Z" fill="#788790"/>
<path d="M21.675 18.02C21.335 16.295 19.82 15 18 15C16.555 15 15.3 15.82 14.675 17.02C13.17 17.18 12 18.455 12 20C12 21.655 13.345 23 15 23H21.5C22.88 23 24 21.88 24 20.5C24 19.18 22.975 18.11 21.675 18.02Z" fill="#96D1DE"/>
</svg>
