<svg width="24" height="24" viewBox="0 0 24 24" fill="none" xmlns="http://www.w3.org/2000/svg">
<g clip-path="url(#clip0_623_3910)">
<rect y="7" width="23" height="14" rx="2" fill="#B2BBC0"/>
<path d="M2 2C0.895447 2 0 2.89551 0 4V9C0 7.89551 0.895447 7 2 7H21C22.1046 7 23 7.89551 23 9V7C23 5.89551 22.1046 5 21 5H10V4C10 2.89551 9.10455 2 8 2H2Z" fill="#788790"/>
<path d="M12.168 21.918C12.1295 21.7994 12.0936 21.6685 12.0792 21.5578C11.9686 20.7065 12.9265 19.5076 12.9265 19.5076L13.7015 18.6014C14.229 17.3779 14.292 16.644 15.9172 15.733C17.3253 14.9438 18.7232 15.0926 20.0038 15.5644C20.0038 15.5644 21.3373 15.5487 22.126 15.6559C22.1994 15.6659 22.2686 15.6744 22.3345 15.6825C22.7333 15.7752 23.0866 15.8616 23.477 16.1145C23.6567 16.231 23.7689 16.3706 23.8622 16.4938C23.0072 15.4756 20.1881 15.9252 16.9943 17.3246C14.1082 18.764 11.9585 20.6498 12.168 21.918Z" fill="black"/>
<path d="M23.9134 16.5625C24.4048 17.6579 22.8065 20.0964 19.4942 21.8117C16.6542 23.1804 13.193 23.4112 12.2827 22.2471C11.5738 20.9956 13.8454 18.895 16.9928 17.3252C20.2556 15.8957 23.1273 15.4573 23.9134 16.5625Z" fill="#0077FF"/>
<path d="M21.2737 18.9203C21.5421 19.4425 20.5915 20.3528 19.0122 21.1664C17.6609 21.8208 16.1548 22.136 15.7398 21.5994C15.4449 21.0892 16.4748 20.0839 17.9739 19.3363C19.5225 18.6448 20.9126 18.4177 21.2737 18.9203Z" fill="white"/>
</g>
<defs>
<clipPath id="clip0_623_3910">
<rect width="24" height="24" fill="white"/>
</clipPath>
</defs>
</svg>
