<svg width="20" height="20" viewBox="0 0 20 20" fill="none" xmlns="http://www.w3.org/2000/svg">
<path d="M9.2464 0.430092C11.1845 0.277292 13.1234 0.716562 14.8065 1.68979C16.4896 2.66302 17.8375 4.12434 18.6718 5.88038C19.5062 7.63641 19.7878 9.6044 19.4792 11.524C19.1707 13.4435 18.2866 15.2241 16.9439 16.6302C15.6012 18.0363 13.8633 19.0016 11.96 19.3984C10.0567 19.7951 8.0778 19.6047 6.28518 18.8522C4.49252 18.0996 2.97059 16.8206 1.92077 15.1842C0.870952 13.5478 0.342712 11.6313 0.405962 9.6881C0.409512 9.5699 0.436302 9.4536 0.484802 9.3457C0.533312 9.2379 0.602582 9.1407 0.688662 9.0596C0.774742 8.9785 0.875942 8.9152 0.986492 8.8733C1.09704 8.8313 1.21477 8.8115 1.33296 8.8151C1.45115 8.8186 1.56749 8.8454 1.67532 8.8939C1.78316 8.9424 1.88038 9.0117 1.96145 9.0978C2.04252 9.1839 2.10583 9.2851 2.14779 9.3956C2.18974 9.5062 2.20951 9.6239 2.20596 9.7421C2.14515 11.5815 2.73672 13.3832 3.87608 14.8286C5.01543 16.2739 6.62917 17.2698 8.4319 17.6402C10.2347 18.0106 12.1104 17.7316 13.7273 16.8525C15.3442 15.9735 16.5982 14.551 17.2676 12.8366C17.9369 11.1222 17.9785 9.2263 17.3849 7.48421C16.7913 5.74212 15.6009 4.26603 14.024 3.31695C12.4472 2.36787 10.5855 2.00693 8.7683 2.29797C6.95099 2.589 5.29516 3.51325 4.09356 4.90729L3.84876 5.20489H6.70356L6.82596 5.21449C7.04138 5.24413 7.23878 5.35076 7.38167 5.51466C7.52456 5.67856 7.60329 5.88865 7.60329 6.10609C7.60329 6.32354 7.52456 6.53363 7.38167 6.69753C7.23878 6.86143 7.04138 6.96806 6.82596 6.99769L6.70356 7.00609H1.90356L1.78116 6.99769C1.58658 6.97098 1.40608 6.88134 1.2672 6.74246C1.12832 6.60358 1.03868 6.42308 1.01196 6.22849L1.00356 6.10609V1.30609L1.01196 1.18369C1.03868 0.989112 1.12832 0.808612 1.2672 0.669732C1.40608 0.530852 1.58658 0.441212 1.78116 0.414492L1.90356 0.406092L2.02596 0.414492C2.22054 0.441212 2.40104 0.530852 2.53992 0.669732C2.67881 0.808612 2.76844 0.989112 2.79516 1.18369L2.80356 1.30609L2.80236 3.64969C4.44942 1.77883 6.76126 0.624202 9.2464 0.431292V0.430092ZM9.7 5.20489L9.8224 5.21329C10.0169 5.24001 10.1974 5.32965 10.3363 5.46853C10.4752 5.60741 10.5648 5.78791 10.5916 5.98249L10.6 6.10489V9.9989L12.7 10.0001L12.8224 10.0085C13.0387 10.0372 13.2372 10.1434 13.381 10.3076C13.5248 10.4717 13.6041 10.6825 13.6041 10.9007C13.6041 11.1189 13.5248 11.3297 13.381 11.4938C13.2372 11.6579 13.0387 11.7642 12.8224 11.7929L12.7 11.8001H9.7L9.5776 11.7929C9.3828 11.7661 9.2022 11.6763 9.0633 11.5372C8.9244 11.3981 8.8348 11.2173 8.8084 11.0225L8.8 10.9001V6.10489L8.8084 5.98249C8.8351 5.78791 8.9247 5.60741 9.0636 5.46853C9.2025 5.32965 9.383 5.24001 9.5776 5.21329L9.7 5.20489Z" fill="#657077"/>
</svg>
