<svg width="20" height="18" viewBox="0 0 20 18" fill="none" xmlns="http://www.w3.org/2000/svg">
<path d="M10.446 4.15L10.53 4.222L14.455 8.147C14.5879 8.281 14.6654 8.4602 14.6721 8.6489C14.6787 8.8375 14.614 9.0217 14.4908 9.1648C14.3676 9.3078 14.195 9.3991 14.0074 9.4204C13.8199 9.4418 13.6312 9.3917 13.479 9.28L13.395 9.208L10.738 6.548L10.74 16.256C10.74 16.4549 10.6609 16.6457 10.5203 16.7863C10.3796 16.927 10.1889 17.006 9.99 17.006C9.791 17.006 9.6003 16.927 9.4596 16.7863C9.319 16.6457 9.24 16.4549 9.24 16.256V6.571L6.60495 9.208C6.47784 9.3349 6.30942 9.4119 6.13031 9.4251C5.95121 9.4383 5.77331 9.3868 5.62895 9.28L5.54495 9.208C5.41767 9.081 5.34028 8.9124 5.32688 8.7331C5.31348 8.5537 5.36497 8.3756 5.47195 8.231L5.54495 8.147L9.47 4.222C9.5969 4.09498 9.7653 4.01775 9.9444 4.00436C10.1235 3.99096 10.3015 4.04229 10.446 4.149V4.15ZM10 0C13.52 0 15.517 2.273 15.808 5.018H15.896C18.162 5.018 19.998 6.805 19.998 9.009C19.998 11.213 18.162 13 15.896 13H12.741L12.647 12.993C12.4684 12.9675 12.3051 12.8785 12.1869 12.7423C12.0687 12.6061 12.0037 12.4318 12.0037 12.2515C12.0037 12.0712 12.0687 11.8969 12.1869 11.7607C12.3051 11.6245 12.4684 11.5355 12.647 11.51L12.748 11.503H15.896L16.065 11.498C17.402 11.414 18.46 10.332 18.46 9.009C18.46 7.687 17.402 6.604 16.065 6.519L15.896 6.515H15.121L15.02 6.508C14.654 6.462 14.353 6.168 14.353 5.803C14.353 3.255 12.326 1.465 10 1.465C7.67395 1.465 5.64695 3.287 5.64695 5.803C5.64695 6.169 5.34695 6.462 4.97995 6.508L4.87995 6.515H4.10395L3.93495 6.52C2.65395 6.6 1.62895 7.598 1.54495 8.845L1.53995 9.009L1.54595 9.173C1.62895 10.42 2.65395 11.417 3.93595 11.498L4.10395 11.503L7.24195 11.504C7.42426 11.502 7.60106 11.5665 7.73928 11.6854C7.8775 11.8043 7.96768 11.9694 7.99295 12.15L7.99995 12.252C7.99971 12.4328 7.93407 12.6074 7.81515 12.7436C7.69624 12.8798 7.53207 12.9684 7.35295 12.993L7.24295 13H4.10295C1.83795 13 0.00195312 11.213 0.00195312 9.009C0.00195312 6.805 1.83795 5.018 4.10395 5.018H4.19295C4.48495 2.255 6.47995 0 10 0Z" fill="#657077"/>
</svg>
