<svg width="22" height="12" viewBox="0 0 22 12" fill="none" xmlns="http://www.w3.org/2000/svg">
<path fill-rule="evenodd" clip-rule="evenodd" d="M10.4026 8.61141L10.44 8.55741L10.4053 8.50161C10.1447 8.08211 9.92001 7.66711 9.70081 7.26241C9.66301 7.19261 9.62541 7.12301 9.58771 7.05391L9.50451 6.90091L9.41431 7.04991C8.49828 8.56321 7.49302 9.64991 5.7499 9.64991C3.73663 9.64991 2.0999 8.01321 2.0999 5.99991C2.0999 3.97538 3.72538 2.3499 5.7499 2.3499C6.93105 2.3499 7.67717 2.76891 8.37339 3.49154C9.07401 4.21801 9.66881 5.27201 10.279 6.39921L10.3785 6.58321C10.9557 7.65051 11.5611 8.76981 12.4275 9.67791C13.3483 10.6437 14.6213 11.3499 16.2499 11.3499C19.1964 11.3499 21.5999 8.94641 21.5999 5.99991C21.5999 3.04968 19.2001 0.649902 16.2499 0.649902C14.0193 0.649902 12.642 1.84727 11.5979 3.31699L11.559 3.37168L11.5949 3.42837C11.9013 3.91264 12.1815 4.38861 12.4354 4.85241L12.5178 5.00291L12.6082 4.85701C13.5173 3.38855 14.5112 2.3499 16.2499 2.3499C18.2632 2.3499 19.8999 3.98663 19.8999 5.99991C19.8999 8.02441 18.2744 9.64991 16.2499 9.64991C15.6664 9.64991 15.1957 9.54401 14.786 9.35041C14.3757 9.15651 14.0214 8.87231 13.674 8.50861C12.9783 7.78181 12.3812 6.72761 11.7672 5.60031L11.7054 5.48651C11.1136 4.39781 10.4893 3.24943 9.59521 2.32079C8.66551 1.35603 7.39263 0.649902 5.7499 0.649902C2.80343 0.649902 0.399902 3.05343 0.399902 5.99991C0.399902 8.95011 2.79968 11.3499 5.7499 11.3499C7.99392 11.3499 9.36211 10.1126 10.4026 8.61141ZM12.4678 4.70391L12.5231 4.80441C12.5048 4.77101 12.4864 4.73751 12.4678 4.70391ZM13.8692 8.84011C13.7788 8.75761 13.6899 8.67001 13.6016 8.57771L13.8692 8.84011ZM9.49991 7.10161C9.47991 7.13471 9.45981 7.16761 9.43971 7.20031C8.66592 8.45691 7.80457 9.42811 6.47198 9.68371C7.83924 9.42141 8.71042 8.40591 9.49991 7.10161ZM10.3669 6.35161L10.4648 6.53251C10.4321 6.47211 10.3995 6.41181 10.3669 6.35161Z" fill="#657077"/>
</svg>
