<svg width="24" height="19" viewBox="0 0 24 19" fill="none" xmlns="http://www.w3.org/2000/svg">
<path fill-rule="evenodd" clip-rule="evenodd" d="M10.4 3.25024C10.4 2.36659 11.1163 1.65024 12 1.65024C12.8837 1.65024 13.6 2.36659 13.6 3.25024C13.6 4.1339 12.8837 4.85024 12 4.85024C11.1163 4.85024 10.4 4.1339 10.4 3.25024ZM12 0.250244C10.3431 0.250244 9 1.59339 9 3.25024C9 3.99975 9.27486 4.68507 9.72928 5.21089L4.11777 12.9267L4.28406 13.0476C4.11075 13.0165 3.93227 13.0002 3.75 13.0002C2.09315 13.0002 0.75 14.3434 0.75 16.0002C0.75 17.6571 2.09315 19.0002 3.75 19.0002C5.40685 19.0002 6.75 17.6571 6.75 16.0002C6.75 14.9634 6.22399 14.0494 5.42427 13.5105L10.8658 6.02843C11.2157 6.17143 11.5986 6.25024 12 6.25024C12.4014 6.25024 12.7844 6.17142 13.1343 6.0284L18.5758 13.5105C17.776 14.0493 17.25 14.9634 17.25 16.0002C17.25 17.6571 18.5931 19.0002 20.25 19.0002C21.9069 19.0002 23.25 17.6571 23.25 16.0002C23.25 14.3434 21.9069 13.0002 20.25 13.0002C20.0678 13.0002 19.8894 13.0165 19.7161 13.0476L19.8823 12.9267L14.2708 5.21083C14.7252 4.68501 15 3.99972 15 3.25024C15 1.59339 13.6569 0.250244 12 0.250244ZM2.15 16.0002C2.15 15.1166 2.86634 14.4002 3.75 14.4002C4.63366 14.4002 5.35 15.1166 5.35 16.0002C5.35 16.8839 4.63366 17.6002 3.75 17.6002C2.86634 17.6002 2.15 16.8839 2.15 16.0002ZM20.25 14.4002C19.3663 14.4002 18.65 15.1166 18.65 16.0002C18.65 16.8839 19.3663 17.6002 20.25 17.6002C21.1337 17.6002 21.85 16.8839 21.85 16.0002C21.85 15.1166 21.1337 14.4002 20.25 14.4002ZM10.5 15.625C10.5 16.2464 10.1643 16.75 9.75005 16.75C9.33584 16.75 9.00005 16.2464 9.00005 15.625C9.00005 15.0037 9.33584 14.5 9.75005 14.5C10.1643 14.5 10.5 15.0037 10.5 15.625ZM12 16.75C12.4143 16.75 12.75 16.2464 12.75 15.625C12.75 15.0037 12.4143 14.5 12 14.5C11.5858 14.5 11.25 15.0037 11.25 15.625C11.25 16.2464 11.5858 16.75 12 16.75ZM15 15.625C15 16.2464 14.6643 16.75 14.25 16.75C13.8358 16.75 13.5 16.2464 13.5 15.625C13.5 15.0037 13.8358 14.5 14.25 14.5C14.6643 14.5 15 15.0037 15 15.625Z" fill="#657077"/>
</svg>
