<svg width="24" height="24" viewBox="0 0 24 24" fill="none" xmlns="http://www.w3.org/2000/svg">
<path d="M5.4439 5.16706L5.31714 5.13184V5.26341V6.52645V6.60473L5.39313 6.62352C7.57536 7.16329 9.81759 7.42219 12.0654 7.39394C13.3211 7.39226 14.5756 7.3194 15.823 7.17573L16.0054 7.15472L15.8888 7.01289C15.6129 6.67726 15.3879 6.3029 15.221 5.90182L15.1925 5.83337L15.1187 5.84075C14.2157 5.93105 13.1916 5.98529 12.0647 5.98526L12.0622 5.98532C9.82781 6.04101 7.59747 5.76526 5.4439 5.16706Z" fill="#657077" stroke="#657077" stroke-width="0.2"/>
<path d="M19.9077 8.59067L19.821 8.60229V8.68979V9.16387C19.8014 9.2005 19.7548 9.25271 19.6649 9.31674C19.5658 9.38741 19.4257 9.46441 19.2439 9.5444C18.8805 9.70419 18.3611 9.87131 17.6953 10.023C16.3643 10.3263 14.4577 10.5659 12.0648 10.5659L12.0622 10.566C9.82779 10.623 7.5973 10.3472 5.44402 9.74771L5.3172 9.7124V9.84405V11.101V11.1792L5.39305 11.1981C7.5748 11.7412 9.81723 12.0022 12.0654 11.9746C13.2774 11.9746 14.7818 11.9019 16.2167 11.7139C17.5777 11.5356 18.8852 11.2524 19.821 10.8242V13.7688C19.8014 13.8055 19.7548 13.8577 19.6649 13.9217C19.5658 13.9924 19.4257 14.0694 19.2439 14.1494C18.8805 14.3092 18.3611 14.4763 17.6953 14.628C16.3643 14.9313 14.4577 15.1709 12.0648 15.1709H12.0626C9.82694 15.2201 7.59643 14.9362 5.44438 14.3286L5.3172 14.2927V14.4248V15.6818V15.76L5.39305 15.7789C7.5748 16.322 9.81723 16.583 12.0654 16.5554C13.2774 16.5553 14.7818 16.4826 16.2167 16.2947C17.5777 16.1163 18.8852 15.8332 19.821 15.405V18.3062C19.8001 18.3436 19.7519 18.3961 19.6614 18.4599C19.561 18.5307 19.4198 18.6078 19.2372 18.6878C18.8723 18.8476 18.352 19.0148 17.6862 19.1665C16.3552 19.4698 14.4516 19.7094 12.0648 19.7094C9.67814 19.7094 7.76702 19.4637 6.43223 19.1567C5.76449 19.0031 5.24326 18.8346 4.8797 18.6751C4.6977 18.5952 4.55791 18.5187 4.45971 18.4491C4.3705 18.3858 4.32615 18.3355 4.30855 18.302V4.71611C4.32618 4.68293 4.3701 4.63313 4.45796 4.57044C4.55498 4.50122 4.6931 4.42501 4.87319 4.34529C5.23294 4.18603 5.74959 4.01742 6.41424 3.86346C7.74289 3.5557 9.65395 3.30855 12.0648 3.30855C13.089 3.30855 14.0228 3.35675 14.8603 3.42905L14.9497 3.43676L14.967 3.34871C15.0454 2.95015 15.1786 2.56438 15.3629 2.20239L15.4295 2.07148L15.2833 2.05748C14.1439 1.94839 13.0107 1.8999 12.0648 1.8999C10.378 1.8999 8.10383 2.04059 6.24863 2.44763C5.32188 2.65096 4.49215 2.92231 3.8917 3.28055C3.29271 3.63792 2.8999 4.09614 2.8999 4.67706V18.3227C2.8999 18.9023 3.29284 19.3597 3.89173 19.7167C4.49215 20.0746 5.32185 20.3462 6.24859 20.5499C8.10378 20.9577 10.3779 21.0999 12.0648 21.0999C13.7516 21.0999 16.0257 20.9592 17.8809 20.5522C18.8077 20.3488 19.6374 20.0775 20.2379 19.7192C20.8369 19.3619 21.2297 18.9037 21.2297 18.3227V8.35136V8.19839L21.0895 8.25977C20.713 8.42471 20.3152 8.53609 19.9077 8.59067Z" fill="#657077" stroke="#657077" stroke-width="0.2"/>
<path d="M20.0999 0.899902H18.8999V8.0999H20.0999V0.899902Z" fill="#657077" stroke="#657077" stroke-width="0.2"/>
<path d="M15.8999 3.9001V5.1001H23.0999V3.9001L15.8999 3.9001Z" fill="#657077" stroke="#657077" stroke-width="0.2"/>
</svg>
