<svg width="20" height="21" viewBox="0 0 20 21" fill="none" xmlns="http://www.w3.org/2000/svg">
<path d="M17.9077 7.59067L17.821 7.60229V7.68979V8.16387C17.8014 8.2005 17.7548 8.25271 17.6649 8.31674C17.5658 8.38741 17.4257 8.46441 17.2439 8.5444C16.8805 8.70419 16.3611 8.87131 15.6953 9.023C14.3643 9.3263 12.4577 9.5659 10.0648 9.5659L10.0622 9.566C7.82779 9.623 5.5973 9.3472 3.44402 8.74771L3.3172 8.7124V8.84405V10.101V10.1792L3.39305 10.1981C5.5748 10.7412 7.81723 11.0022 10.0654 10.9746C11.2774 10.9746 12.7818 10.9019 14.2167 10.7139C15.5777 10.5356 16.8852 10.2524 17.821 9.8242V12.7688C17.8014 12.8055 17.7548 12.8577 17.6649 12.9217C17.5658 12.9924 17.4257 13.0694 17.2439 13.1494C16.8805 13.3092 16.3611 13.4763 15.6953 13.628C14.3643 13.9313 12.4577 14.1709 10.0648 14.1709H10.0626C7.82694 14.2201 5.59643 13.9362 3.44438 13.3286L3.3172 13.2927V13.4248V14.6818V14.76L3.39305 14.7789C5.5748 15.322 7.81723 15.583 10.0654 15.5554C11.2774 15.5553 12.7818 15.4826 14.2167 15.2947C15.5777 15.1163 16.8852 14.8332 17.821 14.405V17.3062C17.8001 17.3436 17.7519 17.3961 17.6614 17.4599C17.561 17.5307 17.4198 17.6078 17.2372 17.6878C16.8723 17.8476 16.352 18.0148 15.6862 18.1665C14.3552 18.4698 12.4516 18.7094 10.0648 18.7094C7.67814 18.7094 5.76702 18.4637 4.43223 18.1567C3.76449 18.0031 3.24326 17.8346 2.8797 17.6751C2.6977 17.5952 2.55791 17.5187 2.45971 17.4491C2.3705 17.3858 2.32615 17.3355 2.30855 17.302V3.71611C2.32618 3.68293 2.3701 3.63313 2.45796 3.57044C2.55498 3.50122 2.6931 3.42501 2.87319 3.34529C3.23294 3.18603 3.74959 3.01742 4.41424 2.86346C5.74289 2.5557 7.65395 2.30855 10.0648 2.30855C11.089 2.30855 12.0228 2.35675 12.8603 2.42905L12.9497 2.43676L12.967 2.34871C13.0454 1.95015 13.1786 1.56438 13.3629 1.20239L13.4295 1.07148L13.2833 1.05748C12.1439 0.948392 11.0107 0.899902 10.0648 0.899902C8.378 0.899902 6.10383 1.04059 4.24863 1.44763C3.32188 1.65096 2.49215 1.92231 1.8917 2.28055C1.29271 2.63792 0.899902 3.09614 0.899902 3.67706V17.3227C0.899902 17.9023 1.29284 18.3597 1.89173 18.7167C2.49215 19.0746 3.32185 19.3462 4.24859 19.5499C6.10378 19.9577 8.3779 20.0999 10.0648 20.0999C11.7516 20.0999 14.0257 19.9592 15.8809 19.5522C16.8077 19.3488 17.6374 19.0775 18.2379 18.7192C18.8369 18.3619 19.2297 17.9037 19.2297 17.3227V7.35136V7.19839L19.0895 7.25977C18.713 7.42471 18.3152 7.53609 17.9077 7.59067Z" fill="#657077" stroke="#657077" stroke-width="0.2"/>
</svg>
