<svg width="18" height="17" viewBox="0 0 18 17" fill="none" xmlns="http://www.w3.org/2000/svg">
<path d="M9.744 9C10.3407 9 10.913 9.2371 11.335 9.659C11.7569 10.081 11.994 10.6533 11.994 11.25L11.9925 12.372C12.147 15.1275 10.0245 16.5015 6.09 16.5015C2.169 16.5 0 15.1455 0 12.4125V11.25C0 10.6533 0.23705 10.081 0.65901 9.659C1.08097 9.2371 1.65326 9 2.25 9H9.744ZM15.744 9C16.3407 9 16.913 9.2371 17.335 9.659C17.7569 10.081 17.994 10.6533 17.994 11.25V12.0405C18.129 14.511 16.254 15.75 12.828 15.75C12.363 15.75 11.925 15.7275 11.517 15.6825C11.952 15.2805 12.2775 14.802 12.4845 14.2455L12.828 14.25C15.504 14.25 16.5735 13.5435 16.494 12.081V11.25C16.494 11.0511 16.415 10.8603 16.2743 10.7197C16.1337 10.579 15.9429 10.5 15.744 10.5H12.6495C12.499 9.919 12.1776 9.3965 11.727 9H15.744ZM9.744 10.5H2.25C2.05109 10.5 1.86032 10.579 1.71967 10.7197C1.57902 10.8603 1.5 11.0511 1.5 11.25V12.4125C1.5 14.13 2.892 15 6.09 15C9.276 15 10.59 14.1495 10.494 12.4125V11.25C10.494 11.0511 10.415 10.8603 10.2743 10.7197C10.1337 10.579 9.9429 10.5 9.744 10.5ZM6 0C6.99456 0 7.9484 0.39509 8.6517 1.09835C9.3549 1.80161 9.75 2.75544 9.75 3.75C9.75 4.74456 9.3549 5.69839 8.6517 6.40165C7.9484 7.1049 6.99456 7.5 6 7.5C5.00544 7.5 4.05161 7.1049 3.34835 6.40165C2.64509 5.69839 2.25 4.74456 2.25 3.75C2.25 2.75544 2.64509 1.80161 3.34835 1.09835C4.05161 0.39509 5.00544 0 6 0ZM13.5 1.5C14.2956 1.5 15.0587 1.81607 15.6213 2.37868C16.1839 2.94129 16.5 3.70435 16.5 4.5C16.5 5.29565 16.1839 6.05871 15.6213 6.62132C15.0587 7.1839 14.2956 7.5 13.5 7.5C12.7044 7.5 11.9413 7.1839 11.3787 6.62132C10.8161 6.05871 10.5 5.29565 10.5 4.5C10.5 3.70435 10.8161 2.94129 11.3787 2.37868C11.9413 1.81607 12.7044 1.5 13.5 1.5ZM6 1.5C5.40326 1.5 4.83097 1.73705 4.40901 2.15901C3.98705 2.58097 3.75 3.15326 3.75 3.75C3.75 4.34674 3.98705 4.91903 4.40901 5.34099C4.83097 5.76295 5.40326 6 6 6C6.59674 6 7.169 5.76295 7.591 5.34099C8.0129 4.91903 8.25 4.34674 8.25 3.75C8.25 3.15326 8.0129 2.58097 7.591 2.15901C7.169 1.73705 6.59674 1.5 6 1.5ZM13.5 3C13.1022 3 12.7206 3.15804 12.4393 3.43934C12.158 3.72065 12 4.10218 12 4.5C12 4.89783 12.158 5.27936 12.4393 5.56066C12.7206 5.84197 13.1022 6 13.5 6C13.8978 6 14.2794 5.84197 14.5607 5.56066C14.842 5.27936 15 4.89783 15 4.5C15 4.10218 14.842 3.72065 14.5607 3.43934C14.2794 3.15804 13.8978 3 13.5 3Z" fill="#657077"/>
</svg>
