<svg width="14" height="14" viewBox="0 0 14 14" fill="none" xmlns="http://www.w3.org/2000/svg">
<path d="M12.1405 6.51436L12.16 6.66316L12.3086 6.64296L13.1554 6.52806L13.3041 6.50796L13.2845 6.35916C12.8226 2.84112 9.64341 0.367832 6.17641 0.838122C2.70937 1.30841 0.279677 4.54251 0.741637 8.06056C1.2036 11.5787 4.38273 14.052 7.84981 13.5817L7.99841 13.5615L7.97891 13.4128L7.86591 12.5522L7.84631 12.4034L7.69771 12.4236C4.86713 12.8075 2.26384 10.7849 1.88573 7.90536C1.50718 5.02256 3.49768 2.38023 6.32851 1.99624C9.15931 1.61225 11.7619 3.63152 12.1405 6.51436Z" fill="#657077" stroke="#657077" stroke-width="0.3" stroke-miterlimit="10"/>
</svg>
