<svg width="24" height="24" viewBox="0 0 24 24" fill="none" xmlns="http://www.w3.org/2000/svg">
<g clip-path="url(#clip0_28649_4557)">
<path fill-rule="evenodd" clip-rule="evenodd" d="M9.82853 0.000488281L11.3637 1.8386H12.6363L14.171 0.00102581L14.4183 0.0520559C15.3043 0.234854 16.1524 0.523243 16.9538 0.888999L17.1856 0.994755L17.365 3.39627L18.3949 4.15652L20.6957 3.58747L20.8663 3.77757C21.4646 4.44426 21.9893 5.18022 22.4318 5.96954L22.5572 6.19311L21.3148 8.24282L21.7076 9.47378L23.8968 10.3896L23.9248 10.6452C23.9734 11.0898 24 11.54 24 12C24 12.4599 23.9734 12.9101 23.9248 13.3547L23.8968 13.6103L21.7072 14.5263L21.3129 15.7553L22.555 17.8046L22.4297 18.0282C21.9872 18.8175 21.4625 19.5535 20.8641 20.2202L20.6935 20.4103L18.3928 19.8412L17.3628 20.6015L17.1835 23.002L16.953 23.1082C16.1522 23.4769 15.304 23.7629 14.4194 23.9477L14.1715 23.9994L12.6363 22.1613H11.3637L9.82853 23.9994L9.58065 23.9477C8.69604 23.7629 7.84781 23.4769 7.04701 23.1082L6.8165 23.002L6.63721 20.602L5.60556 19.8433L3.30434 20.4125L3.13373 20.2224C2.53539 19.5557 2.01068 18.8197 1.56817 18.0304L1.44283 17.8068L2.68522 15.7571L2.29237 14.5261L0.103176 13.6103L0.0752299 13.3547C0.0266278 12.9101 0 12.4599 0 12C0 11.54 0.0266278 11.0898 0.0752299 10.6452L0.103215 10.3892L2.2946 9.47565L2.68735 8.24499L1.44496 6.19528L1.5703 5.97171C2.01253 5.18289 2.53516 4.4466 3.1364 3.77915L3.30699 3.58977L5.60725 4.15869L6.63718 3.39844L6.8165 0.9979L7.04701 0.891764C7.84781 0.523029 8.69604 0.237041 9.58065 0.0522649L9.82853 0.000488281ZM14.4935 0.956708L13.0317 2.70691H10.9683L9.5069 0.957152C8.85849 1.10861 8.23105 1.31888 7.62982 1.57974L7.45911 3.86487L5.78939 5.09738L3.5992 4.55569C3.16698 5.05882 2.78 5.60287 2.43955 6.1807L3.62181 8.1312L2.9851 10.1263L0.899145 10.9959C0.869915 11.3273 0.854321 11.6612 0.854321 12C0.854321 12.3388 0.869926 12.6728 0.899176 13.0044L2.98306 13.8761L3.61967 15.8709L2.43744 17.8214C2.7779 18.3987 3.16603 18.9428 3.5975 19.4463L5.7868 18.9048L7.45908 20.1346L7.62982 22.4202C8.23105 22.681 8.85849 22.8913 9.5069 23.0428L10.9683 21.293H13.0317L14.4931 23.0428C15.1415 22.8913 15.769 22.681 16.3702 22.4202L16.5409 20.1351L18.2106 18.9025L20.4004 19.4441C20.8318 18.9406 21.22 18.3965 21.5604 17.8192L20.378 15.8684L21.0173 13.8759L23.1008 13.0044C23.1301 12.6728 23.1457 12.3388 23.1457 12C23.1457 11.6611 23.1301 11.3271 23.1008 10.9956L21.0169 10.1238L20.3803 8.12903L21.5626 6.17857C21.2221 5.60123 20.834 5.05714 20.4025 4.55362L18.2127 5.09521L16.543 3.8627L16.3724 1.57839C15.7688 1.31815 15.1411 1.10689 14.4935 0.956708Z" fill="black"/>
<path fill-rule="evenodd" clip-rule="evenodd" d="M9.82853 0.000488281L11.3637 1.8386H12.6363L14.171 0.00102581L14.4183 0.0520559C15.3043 0.234854 16.1524 0.523243 16.9538 0.888999L17.1856 0.994755L17.365 3.39627L18.3949 4.15652L20.6957 3.58747L20.8663 3.77757C21.4646 4.44426 21.9893 5.18022 22.4318 5.96954L22.5572 6.19311L21.3148 8.24282L21.7076 9.47378L23.8968 10.3896L23.9248 10.6452C23.9734 11.0898 24 11.54 24 12C24 12.4599 23.9734 12.9101 23.9248 13.3547L23.8968 13.6103L21.7072 14.5263L21.3129 15.7553L22.555 17.8046L22.4297 18.0282C21.9872 18.8175 21.4625 19.5535 20.8641 20.2202L20.6935 20.4103L18.3928 19.8412L17.3628 20.6015L17.1835 23.002L16.953 23.1082C16.1522 23.4769 15.304 23.7629 14.4194 23.9477L14.1715 23.9994L12.6363 22.1613H11.3637L9.82853 23.9994L9.58065 23.9477C8.69604 23.7629 7.84781 23.4769 7.04701 23.1082L6.8165 23.002L6.63721 20.602L5.60556 19.8433L3.30434 20.4125L3.13373 20.2224C2.53539 19.5557 2.01068 18.8197 1.56817 18.0304L1.44283 17.8068L2.68522 15.7571L2.29237 14.5261L0.103176 13.6103L0.0752299 13.3547C0.0266278 12.9101 0 12.4599 0 12C0 11.54 0.0266278 11.0898 0.0752299 10.6452L0.103215 10.3892L2.2946 9.47565L2.68735 8.24499L1.44496 6.19528L1.5703 5.97171C2.01253 5.18289 2.53516 4.4466 3.1364 3.77915L3.30699 3.58977L5.60725 4.15869L6.63718 3.39844L6.8165 0.9979L7.04701 0.891764C7.84781 0.523029 8.69604 0.237041 9.58065 0.0522649L9.82853 0.000488281ZM14.4935 0.956708L13.0317 2.70691H10.9683L9.5069 0.957152C8.85849 1.10861 8.23105 1.31888 7.62982 1.57974L7.45911 3.86487L5.78939 5.09738L3.5992 4.55569C3.16698 5.05882 2.78 5.60287 2.43955 6.1807L3.62181 8.1312L2.9851 10.1263L0.899145 10.9959C0.869915 11.3273 0.854321 11.6612 0.854321 12C0.854321 12.3388 0.869926 12.6728 0.899176 13.0044L2.98306 13.8761L3.61967 15.8709L2.43744 17.8214C2.7779 18.3987 3.16603 18.9428 3.5975 19.4463L5.7868 18.9048L7.45908 20.1346L7.62982 22.4202C8.23105 22.681 8.85849 22.8913 9.5069 23.0428L10.9683 21.293H13.0317L14.4931 23.0428C15.1415 22.8913 15.769 22.681 16.3702 22.4202L16.5409 20.1351L18.2106 18.9025L20.4004 19.4441C20.8318 18.9406 21.22 18.3965 21.5604 17.8192L20.378 15.8684L21.0173 13.8759L23.1008 13.0044C23.1301 12.6728 23.1457 12.3388 23.1457 12C23.1457 11.6611 23.1301 11.3271 23.1008 10.9956L21.0169 10.1238L20.3803 8.12903L21.5626 6.17857C21.2221 5.60123 20.834 5.05714 20.4025 4.55362L18.2127 5.09521L16.543 3.8627L16.3724 1.57839C15.7688 1.31815 15.1411 1.10689 14.4935 0.956708Z" fill="#657077"/>
<path fill-rule="evenodd" clip-rule="evenodd" d="M9.82853 0.000488281L11.3637 1.8386H12.6363L14.171 0.00102581L14.4183 0.0520559C15.3043 0.234854 16.1524 0.523243 16.9538 0.888999L17.1856 0.994755L17.365 3.39627L18.3949 4.15652L20.6957 3.58747L20.8663 3.77757C21.4646 4.44426 21.9893 5.18022 22.4318 5.96954L22.5572 6.19311L21.3148 8.24282L21.7076 9.47378L23.8968 10.3896L23.9248 10.6452C23.9734 11.0898 24 11.54 24 12C24 12.4599 23.9734 12.9101 23.9248 13.3547L23.8968 13.6103L21.7072 14.5263L21.3129 15.7553L22.555 17.8046L22.4297 18.0282C21.9872 18.8175 21.4625 19.5535 20.8641 20.2202L20.6935 20.4103L18.3928 19.8412L17.3628 20.6015L17.1835 23.002L16.953 23.1082C16.1522 23.4769 15.304 23.7629 14.4194 23.9477L14.1715 23.9994L12.6363 22.1613H11.3637L9.82853 23.9994L9.58065 23.9477C8.69604 23.7629 7.84781 23.4769 7.04701 23.1082L6.8165 23.002L6.63721 20.602L5.60556 19.8433L3.30434 20.4125L3.13373 20.2224C2.53539 19.5557 2.01068 18.8197 1.56817 18.0304L1.44283 17.8068L2.68522 15.7571L2.29237 14.5261L0.103176 13.6103L0.0752299 13.3547C0.0266278 12.9101 0 12.4599 0 12C0 11.54 0.0266278 11.0898 0.0752299 10.6452L0.103215 10.3892L2.2946 9.47565L2.68735 8.24499L1.44496 6.19528L1.5703 5.97171C2.01253 5.18289 2.53516 4.4466 3.1364 3.77915L3.30699 3.58977L5.60725 4.15869L6.63718 3.39844L6.8165 0.9979L7.04701 0.891764C7.84781 0.523029 8.69604 0.237041 9.58065 0.0522649L9.82853 0.000488281ZM14.4935 0.956708L13.0317 2.70691H10.9683L9.5069 0.957152C8.85849 1.10861 8.23105 1.31888 7.62982 1.57974L7.45911 3.86487L5.78939 5.09738L3.5992 4.55569C3.16698 5.05882 2.78 5.60287 2.43955 6.1807L3.62181 8.1312L2.9851 10.1263L0.899145 10.9959C0.869915 11.3273 0.854321 11.6612 0.854321 12C0.854321 12.3388 0.869926 12.6728 0.899176 13.0044L2.98306 13.8761L3.61967 15.8709L2.43744 17.8214C2.7779 18.3987 3.16603 18.9428 3.5975 19.4463L5.7868 18.9048L7.45908 20.1346L7.62982 22.4202C8.23105 22.681 8.85849 22.8913 9.5069 23.0428L10.9683 21.293H13.0317L14.4931 23.0428C15.1415 22.8913 15.769 22.681 16.3702 22.4202L16.5409 20.1351L18.2106 18.9025L20.4004 19.4441C20.8318 18.9406 21.22 18.3965 21.5604 17.8192L20.378 15.8684L21.0173 13.8759L23.1008 13.0044C23.1301 12.6728 23.1457 12.3388 23.1457 12C23.1457 11.6611 23.1301 11.3271 23.1008 10.9956L21.0169 10.1238L20.3803 8.12903L21.5626 6.17857C21.2221 5.60123 20.834 5.05714 20.4025 4.55362L18.2127 5.09521L16.543 3.8627L16.3724 1.57839C15.7688 1.31815 15.1411 1.10689 14.4935 0.956708Z" stroke="#657077" stroke-width="0.6" stroke-miterlimit="10"/>
<path d="M15.0771 17.6876L15.206 17.615L15.1351 17.4851L14.7208 16.7258L14.6479 16.5923L14.5154 16.6669C14.2889 16.7946 14.0509 16.9041 13.805 16.9966L13.666 17.0488L13.7168 17.1883L14.0133 18.0026L14.0652 18.1451L14.2071 18.0917C14.5036 17.9802 14.7953 17.8464 15.0771 17.6876Z" fill="#657077" stroke="#657077" stroke-width="0.3" stroke-miterlimit="10"/>
<path d="M16.8862 16.1797L16.9801 16.0658L16.8678 15.9701L16.213 15.4124L16.097 15.3135L16 15.4311C15.8311 15.6359 15.647 15.827 15.4495 16.0024L15.3391 16.1004L15.4353 16.2123L15.9975 16.8662L16.0968 16.9818L16.2108 16.8806C16.4533 16.6652 16.6792 16.4308 16.8862 16.1797Z" fill="#657077" stroke="#657077" stroke-width="0.3" stroke-miterlimit="10"/>
<path d="M17.4571 15.0723L17.5909 15.1439L17.6609 15.0093C17.7098 14.9152 17.7555 14.8212 17.7982 14.7275C17.8902 14.5267 17.97 14.3261 18.0379 14.1257L18.0853 13.9855L17.9458 13.9361L17.1391 13.6505L16.9968 13.6001L16.9473 13.7427C16.8899 13.9082 16.8251 14.0734 16.7505 14.237L16.887 14.2992L16.7507 14.2366C16.7157 14.313 16.6783 14.3897 16.6385 14.4669L16.5708 14.5982L16.7011 14.6679L17.4571 15.0723Z" fill="#657077" stroke="#657077" stroke-width="0.3" stroke-miterlimit="10"/>
<path d="M12.0015 9.11069H12.1515V8.96069V8.09238V7.94238H12.0015C9.79243 7.94238 8.00708 9.76049 8.00708 11.9998C8.00708 14.2391 9.79243 16.0572 12.0015 16.0572C14.2106 16.0572 15.996 14.2391 15.996 11.9998V11.8498H15.846H14.9917H14.8417V11.9998C14.8417 13.5982 13.5666 14.8889 12.0015 14.8889C10.4345 14.8889 9.1614 13.5985 9.1614 11.9998C9.1614 10.4012 10.4345 9.11069 12.0015 9.11069Z" fill="#657077" stroke="#657077" stroke-width="0.3" stroke-miterlimit="10"/>
<path d="M17.1405 11.5144L17.16 11.6632L17.3086 11.643L18.1554 11.5281L18.3041 11.508L18.2845 11.3592C17.8226 7.84112 14.6434 5.36783 11.1764 5.83812C7.70937 6.30841 5.27968 9.54251 5.74164 13.0606C6.2036 16.5787 9.38273 19.052 12.8498 18.5817L12.9984 18.5615L12.9789 18.4128L12.8659 17.5522L12.8463 17.4034L12.6977 17.4236C9.86713 17.8075 7.26384 15.7849 6.88573 12.9054C6.50718 10.0226 8.49768 7.38023 11.3285 6.99624C14.1593 6.61225 16.7619 8.63152 17.1405 11.5144Z" fill="#657077" stroke="#657077" stroke-width="0.3" stroke-miterlimit="10"/>
</g>
<defs>
<clipPath id="clip0_28649_4557">
<rect width="24" height="24" fill="white"/>
</clipPath>
</defs>
</svg>
