<svg width="24" height="24" viewBox="0 0 24 24" fill="none" xmlns="http://www.w3.org/2000/svg">
<rect y="7" width="23" height="14" rx="2" fill="#B2BBC0"/>
<path d="M15.1999 18.6001C15.0744 18.4331 15 18.2251 15 18C15 17.4478 15.4477 17 16 17C16.5523 17 17 17.4478 17 18C16.3246 18 15.7013 18.2236 15.1999 18.6001Z" fill="#1D2D44"/>
<path d="M12.5 19C12.7761 19 13 18.7764 13 18.5C13 18.2236 12.7761 18 12.5 18C12.2239 18 12 18.2236 12 18.5C12 18.7764 12.2239 19 12.5 19Z" fill="#1D2D44"/>
<path d="M13 22C13 22.5522 12.5523 23 12 23C11.4477 23 11 22.5522 11 22C11 21.4478 11.4477 21 12 21C12.5523 21 13 21.4478 13 22Z" fill="#1D2D44"/>
<path d="M24 22.5C24 22.7764 23.7761 23 23.5 23C23.2239 23 23 22.7764 23 22.5C23 22.2236 23.2239 22 23.5 22C23.7761 22 24 22.2236 24 22.5Z" fill="#1D2D44"/>
<path d="M19 21C19 22.1045 18.1046 23 17 23C15.8954 23 15 22.1045 15 21C15 19.8955 15.8954 19 17 19C18.1046 19 19 19.8955 19 21Z" fill="#1D2D44"/>
<path d="M14.5 19C14.5838 19 14.666 19.0068 14.7461 19.02C14.2816 19.5483 14 20.2412 14 21C14 21.3359 14.0552 21.6587 14.1571 21.9604C13.4939 21.8052 13 21.2104 13 20.5C13 19.6714 13.6716 19 14.5 19Z" fill="#1D2D44"/>
<path d="M20 19C20 19.2759 19.8883 19.5254 19.7076 19.7065C19.412 19.0889 18.9112 18.5879 18.2934 18.2925C18.4743 18.1118 18.7241 18 19 18C19.5523 18 20 18.4478 20 19Z" fill="#1D2D44"/>
<path d="M19.517 22.6333C19.8225 22.1636 20 21.6021 20 21C20 20.6997 19.9559 20.4102 19.8739 20.1367C20.0644 20.0493 20.2765 20 20.5 20C21.3284 20 22 20.6714 22 21.5C22 22.3286 21.3284 23 20.5 23C20.1239 23 19.7802 22.8618 19.517 22.6333Z" fill="#1D2D44"/>
<path d="M14 22.5C14 22.3335 14.0813 22.186 14.2062 22.0952C14.3294 22.4092 14.504 22.6973 14.7196 22.9492C14.6533 22.9814 14.5788 23 14.5 23C14.2239 23 14 22.7764 14 22.5Z" fill="#1D2D44"/>
<path d="M2 2C0.895447 2 0 2.89551 0 4V9C0 7.89551 0.895447 7 2 7H21C22.1046 7 23 7.89551 23 9V7C23 5.89551 22.1046 5 21 5H10V4C10 2.89551 9.10455 2 8 2H2Z" fill="#788790"/>
</svg>
