<svg width="192" height="192" viewBox="0 0 192 192" fill="none" xmlns="http://www.w3.org/2000/svg">
<path d="M1.99316 78.0551C1.99316 72.5018 6.49536 68 12.0491 68H179.937C185.491 68 189.993 72.5018 189.993 78.0552V175.945C189.993 181.498 185.491 186 179.937 186H12.0491C6.49537 186 1.99316 181.498 1.99316 175.945V78.0551Z" fill="white"/>
<path fill-rule="evenodd" clip-rule="evenodd" d="M111.993 123C90.9932 137 98.9932 136 76.9932 123L6 182.957C6.81358 184.792 10.9953 186.06 13.4963 185.994H174.187C180.703 186.06 183.499 185.593 186 183.059L111.993 123Z" fill="#EFEFEF"/>
<path fill-rule="evenodd" clip-rule="evenodd" d="M153.993 48V94L187.993 71.6216L153.993 48Z" fill="#BDECFF"/>
<path fill-rule="evenodd" clip-rule="evenodd" d="M88.1165 10.7254C86.3404 11.7433 87.064 14.4515 89.1121 14.4515L103.028 14.4515C105.075 14.4515 105.799 11.745 104.025 10.7262L97.0729 6.73522C96.4562 6.38117 95.6974 6.38089 95.0804 6.73447L88.1165 10.7254Z" fill="#BDECFF"/>
<path fill-rule="evenodd" clip-rule="evenodd" d="M37.9932 48V96L3.99316 72.6154L37.9932 48Z" fill="#BDECFF"/>
<path fill-rule="evenodd" clip-rule="evenodd" d="M188.003 176.036V76.9452C188.003 74.3952 186.78 71.9991 184.714 70.4991L100.699 9.51764C97.8975 7.48447 94.1025 7.48447 91.3013 9.51764L7.2862 70.4991C5.21962 71.9991 3.99697 74.3952 3.99697 76.9452V176.036C3.99697 180.438 7.57329 184.007 11.9849 184.007H180.015C184.427 184.007 188.003 180.438 188.003 176.036ZM6.11153 68.8875C3.52831 70.7625 2 73.7577 2 76.9452V176.036C2 181.539 6.47039 186 11.9849 186H180.015C185.53 186 190 181.539 190 176.036V76.9452C190 73.7577 188.472 70.7625 185.888 68.8875L101.873 7.9061C98.3719 5.36463 93.6281 5.36463 90.1267 7.9061L6.11153 68.8875Z" fill="#333333"/>
<path fill-rule="evenodd" clip-rule="evenodd" d="M99.9932 132L155.105 93.7683C155.664 93.3915 156 92.755 156 92.0732V16.0317C156 14.9084 155.105 13.9978 154 13.9978H59.4257C58.8953 13.9978 58.3865 14.2121 58.0114 14.5936L36.5858 36.3516C36.2117 36.732 36.0011 37.2476 36 37.7855V94.4637C35.9986 95.1277 36.3161 95.7506 36.8504 96.1322L88.9932 131C92.3975 133.325 95.3444 134.865 99.9932 132Z" fill="white"/>
<path fill-rule="evenodd" clip-rule="evenodd" d="M99.9932 131.449C97.3871 133.028 96.3382 133.24 93.9932 133C91.6973 132.765 89.8042 132.216 87.9932 131L36.9927 96C35.9241 95.2493 34.0004 93.9062 34.0004 93.9062L34 37.3297C34.0022 36.2718 34.5414 35.2202 35.2894 34.4721L56.5972 13.1636C57.3473 12.4134 58.3648 11.9919 59.4257 11.9919H154C156.209 11.9919 158 13.7828 158 15.9919V92H157.993L99.9932 131.449ZM87.9932 131L36 94.125V37.3339C36.0012 36.805 36.3297 36.2603 36.7037 35.8863L58.0115 14.5778C58.3865 14.2027 58.8953 13.9919 59.4257 13.9919H154C155.104 13.9919 156 14.8874 156 15.9919L155.993 93L99.9932 131.449C95.2589 134.318 91.9932 133 87.9932 131Z" fill="#333333"/>
<path d="M120.545 66.1588C120.545 69.0588 120.099 71.7155 119.208 74.1288C118.316 76.5218 117.059 78.3876 115.434 79.726C113.83 81.0645 111.968 81.7337 109.848 81.7337C108.284 81.7337 106.927 81.3079 105.778 80.4561C104.629 79.6044 103.856 78.4484 103.46 76.9883H103.104C102.133 78.5701 100.935 79.7565 99.5086 80.5474C98.0824 81.3383 96.4779 81.7337 94.6952 81.7337C91.4664 81.7337 88.9211 80.669 87.0591 78.5397C85.217 76.4103 84.2959 73.5305 84.2959 69.9005C84.2959 65.7228 85.524 62.3361 87.9802 59.7403C90.4364 57.1242 93.7345 55.8161 97.8744 55.8161C99.3798 55.8161 101.044 55.9581 102.866 56.242C104.708 56.5056 106.342 56.8808 107.769 57.3675L107.115 71.5127V72.2428C107.115 75.4876 108.145 77.1099 110.205 77.1099C111.77 77.1099 113.008 76.0757 113.919 74.0071C114.85 71.9386 115.315 69.3022 115.315 66.098C115.315 62.6301 114.622 59.5882 113.236 56.9721C111.849 54.3357 109.878 52.3077 107.323 50.8881C104.768 49.4685 101.836 48.7587 98.5281 48.7587C94.3089 48.7587 90.6345 49.651 87.5048 51.4357C84.3949 53.2203 82.018 55.7756 80.3739 59.1014C78.7298 62.4071 77.9078 66.2501 77.9078 70.6305C77.9078 76.5117 79.4429 81.0341 82.5132 84.1977C85.5834 87.3614 89.9907 88.9432 95.7351 88.9432C100.113 88.9432 104.678 88.0306 109.432 86.2054V91.1943C105.273 92.9383 100.747 93.8104 95.854 93.8104C88.5249 93.8104 82.8103 91.7925 78.71 87.7568C74.6097 83.7009 72.5596 78.0529 72.5596 70.813C72.5596 65.52 73.6688 60.8151 75.8873 56.6983C78.1059 52.5612 81.1761 49.3976 85.0981 47.2073C89.04 45.0171 93.4968 43.922 98.4686 43.922C102.767 43.922 106.59 44.8346 109.938 46.6598C113.305 48.485 115.91 51.0909 117.752 54.4776C119.614 57.8441 120.545 61.7378 120.545 66.1588ZM90.0006 70.0221C90.0006 74.7473 91.8131 77.1099 95.438 77.1099C99.261 77.1099 101.351 74.1389 101.707 68.197L102.064 60.9266C100.816 60.5819 99.4788 60.4095 98.0527 60.4095C95.5172 60.4095 93.5364 61.2714 92.1102 62.9952C90.7038 64.719 90.0006 67.0613 90.0006 70.0221Z" fill="url(#paint0_linear)"/>
<path d="M58.0557 14.2578V36.2087H36.0117L58.0557 14.2578Z" fill="url(#paint1_linear)"/>
<path fill-rule="evenodd" clip-rule="evenodd" d="M58.9301 12.0674C59.7154 12.3852 60 12.9585 60 13.789V35.9465C60 37.0806 59.0591 38 57.8984 38L34.6659 37.9574C34.6659 37.9574 34.0007 37.4469 34 36.6689C34.2179 35.3959 34.9513 34.6132 35.5524 34.0259L56.4124 13.2144C57.0134 12.6272 58.1448 11.7496 58.9301 12.0674ZM57.8984 14.6664L36.7552 35.9465H57.8984V14.6664Z" fill="#333333"/>
<path fill-rule="evenodd" clip-rule="evenodd" d="M75.8085 123.172L3.99268 74L5.14338 72.3535L77.993 122.266L89.6805 130.335C92.7316 132.445 96.8174 132.445 99.8685 130.335L111.993 122.266L186.901 71.3129L187.993 73L114.195 123.217L186.499 182.468L185.202 184L112.471 124.378L100.993 132C97.2638 134.579 92.2852 134.579 88.556 132L77.4946 124.364L7.08182 183.65L5.78021 182.123L75.8085 123.172Z" fill="#333333"/>
<defs>
<linearGradient id="paint0_linear" x1="96.5522" y1="43.922" x2="96.5522" y2="93.8104" gradientUnits="userSpaceOnUse">
<stop stop-color="#FF8E3D"/>
<stop offset="1" stop-color="#FF6F3D"/>
</linearGradient>
<linearGradient id="paint1_linear" x1="47.0337" y1="14.2578" x2="47.0337" y2="36.2087" gradientUnits="userSpaceOnUse">
<stop stop-color="#FF8E3D"/>
<stop offset="1" stop-color="#FF6F3D"/>
</linearGradient>
</defs>
</svg>
