<svg width="32" height="32" viewBox="0 0 32 32" fill="none" xmlns="http://www.w3.org/2000/svg">
<path d="M4 1H19L28 9L28.1676 31H4V1Z" fill="white"/>
<path fill-rule="evenodd" clip-rule="evenodd" d="M4 31H28.148L28 9L19 1L4.08333 1.06667L4 31ZM19 0H3V32H29V9L19 0Z" fill="#BFBFBF"/>
<path d="M12 23V25H10V23H12Z" fill="#07B5AF"/>
<path fill-rule="evenodd" clip-rule="evenodd" d="M7 20C6.44772 20 6 20.4477 6 21V28C6 28.5523 6.44772 29 7 29H25C25.5523 29 26 28.5523 26 28V21C26 20.4477 25.5523 20 25 20H7ZM12 23V22H10V23H9V27H10V26H12V27H13V23H12ZM22 22H23V27H22V22ZM16 22H15V24H16V26H17V27H18V25H19V23H20V22H18V25H17V23H16V22Z" fill="#07B5AF"/>
<path fill-rule="evenodd" clip-rule="evenodd" d="M18 4H6V6H8V8H6V13H8V15H6V17H26V10H18V4ZM12 13H10V15H12V13ZM10 6H12V8H10V6ZM16 13H14V15H16V13ZM14 6H16V8H14V6ZM20 13H18V15H20V13ZM24 13H22V15H24V13Z" fill="#BFBFBF"/>
<path opacity="0.3" d="M17 11V1H18V10H28V11H17Z" fill="black"/>
</svg>
