<svg width="32" height="32" viewBox="0 0 32 32" fill="none" xmlns="http://www.w3.org/2000/svg">
<path d="M4 1L19 1L28 9V31H4V1Z" fill="white"/>
<path fill-rule="evenodd" clip-rule="evenodd" d="M4.00003 31H28V9L19 1L4.08336 1.06667L4.00003 31ZM19 0H3.00003V32H29V9L19 0Z" fill="#BFBFBF"/>
<path fill-rule="evenodd" clip-rule="evenodd" d="M7 20C6.44772 20 6 20.4477 6 21V28C6 28.5523 6.44772 29 7 29H25C25.5523 29 26 28.5523 26 28V21C26 20.4477 25.5523 20 25 20H7ZM21 22H20V24H21V26H22V27H23V25H24V23H25V22H23V25H22V23H21V22ZM18 22H16V23H15V24H16V25H18V26H15V27H18V26H19V25H18V24H16V23H18V22ZM9 23V22H12V23H9ZM9 26H8V23H9V26ZM12 26V27H9V26H12ZM12 26V25H13V26H12ZM12 23H13V24H12V23Z" fill="#6AAA1E"/>
<path d="M15 16H24V15H15V16Z" fill="#BFBFBF"/>
<path d="M12 16H8V15H12V16Z" fill="#BFBFBF"/>
<path d="M8 12H12V11H8V12Z" fill="#BFBFBF"/>
<path d="M8 8H12V7H8V8Z" fill="#BFBFBF"/>
<path fill-rule="evenodd" clip-rule="evenodd" d="M18 5H6V18H26V10H25V13H14V10H18V9H14V6H18V5ZM25 14H14V17H25V14ZM13 17V14H7V17H13ZM13 13V10H7V13H13ZM7 9H13V6H7V9Z" fill="#BFBFBF"/>
<path d="M18 7H15V8H18V7Z" fill="#BFBFBF"/>
<path d="M15 12H24V11H15V12Z" fill="#BFBFBF"/>
<path opacity="0.3" d="M17 11V1H18V10H28V11H17Z" fill="black"/>
</svg>
