<svg width="32" height="32" viewBox="0 0 32 32" fill="none" xmlns="http://www.w3.org/2000/svg">
<path d="M4 1L19 1L28 9V31H4V1Z" fill="white"/>
<path fill-rule="evenodd" clip-rule="evenodd" d="M4.00003 31H28V9L19 1L4.08336 1.06667L4.00003 31ZM19 0H3.00003V32H29V9L19 0Z" fill="#BFBFBF"/>
<path fill-rule="evenodd" clip-rule="evenodd" d="M7 20C6.44772 20 6 20.4477 6 21V28C6 28.5523 6.44772 29 7 29H25C25.5523 29 26 28.5523 26 28V21C26 20.4477 25.5523 20 25 20H7ZM8 27V22H11V23H9V26H11V27H8ZM11 26V23H12V26H11ZM23 22H21V23H20V26H21V27H23V26H24V25H23V26H21V23H23V24H24V23H23V22ZM15 23V22H17V23H15ZM15 26H14V23H15V26ZM17 26V27H15V26H17ZM17 26H18V23H17V26Z" fill="#1E7AAA"/>
<path d="M18 4H6V6H18V4Z" fill="#C4C4C4"/>
<path d="M18 8H6V10H18V8Z" fill="#C4C4C4"/>
<path d="M26 12H6V14H26V12Z" fill="#C4C4C4"/>
<path d="M6 16H20V18H6V16Z" fill="#C4C4C4"/>
<path opacity="0.3" d="M17 11V1H18V10H28V11H17Z" fill="black"/>
</svg>
