<svg width="32" height="32" viewBox="0 0 32 32" fill="none" xmlns="http://www.w3.org/2000/svg">
<path d="M4 1L19 1L28 9V31H4V1Z" fill="white"/>
<path fill-rule="evenodd" clip-rule="evenodd" d="M4 31H28V9L19 1L4.08333 1.06667L4 31ZM19 0H3V32H29V9L19 0Z" fill="#BFBFBF"/>
<path fill-rule="evenodd" clip-rule="evenodd" d="M7 20C6.44772 20 6 20.4477 6 21V28C6 28.5523 6.44772 29 7 29H25C25.5523 29 26 28.5523 26 28V21C26 20.4477 25.5523 20 25 20H7ZM7 27V22H9V23H8V26H9V27H7ZM9 26H10V23H9V26ZM23 22H24V27H23V25H22V23H23V22ZM21 25H22V27H21V25ZM21 25H20V27H19V22H20V23H21V25ZM11 23H12V26H11V23ZM13 26V27H12V26H13ZM13 23H14V26H13V23ZM13 23V22H12V23H13ZM16 26H17V27H16V26ZM16 23V26H15V23H16ZM16 23H17V24H18V23H17V22H16V23ZM17 26H18V25H17V26Z" fill="#1E7AAA"/>
<path d="M6 4H18V6H6V4Z" fill="#BFBFBF"/>
<path d="M18 8H6V10H18V8Z" fill="#BFBFBF"/>
<path d="M26 12H6V14H26V12Z" fill="#BFBFBF"/>
<path d="M6 16H26V18H6V16Z" fill="#BFBFBF"/>
<path opacity="0.3" d="M17 11V1H18V10H28V11H17Z" fill="black"/>
</svg>
