<svg width="32" height="32" viewBox="0 0 32 32" fill="none" xmlns="http://www.w3.org/2000/svg">
<g id="32x32">
<g id="32X32 / Docf2">
<path id="background" d="M4.25 1L20.25 1L28.25 9V31H4.25V1Z" fill="white"/>
<path id="shadow" fill-rule="evenodd" clip-rule="evenodd" d="M4.25 31H28.25V9.5L19.75 1H4.25V31ZM20.25 0H3.25V32H29.25V9L20.25 0Z" fill="url(#paint0_linear_1467:7143)"/>
<g id="Group 78">
<path id="Rectangle 396" d="M6.25 4H18.25V11H25.25V17H6.25V4Z" fill="#F2F2F2"/>
<path id="Rectangle 398 (Stroke)" fill-rule="evenodd" clip-rule="evenodd" d="M6.25 3H19.25V10H26.25V17H6.25L7.25 16H25.25V11H18.25V4H7.25V9L6.25 10V3Z" fill="#BFBFBF"/>
<rect id="Rectangle 397" x="10.25" y="13.5" width="1" height="0.5" fill="#F2F2F2"/>
</g>
<path id="ear shadow" opacity="0.3" d="M18.25 11V1H19.25V10H28.25V11H18.25Z" fill="black"/>
<rect id="Rectangle 380" x="6.25" y="20" width="20" height="9" rx="1" fill="#007267"/>
<g id="Group 135">
<path id="Union" fill-rule="evenodd" clip-rule="evenodd" d="M7.25 22.5V26.5V27H7.75H9.25V26H10.25V23H9.25V22H7.75L7.25 22V22.5ZM9.25 26V23L8.25 23V26L9.25 26Z" fill="white"/>
<path id="Union_2" d="M22.25 27L22.25 22H23.25H25.25V23L23.25 23V24L24.25 24V25H23.25L23.25 27H22.25Z" fill="white"/>
<path id="Exclude" fill-rule="evenodd" clip-rule="evenodd" d="M11.25 26V23H12.25V22H13.25V23H14.25V26H13.25V27H12.25V26H11.25ZM13.25 23H12.25V26H13.25V23Z" fill="white"/>
<path id="Union_3" fill-rule="evenodd" clip-rule="evenodd" d="M16.25 22H17.25V23H16.25V22ZM16.25 26V23H15.25V26H16.25ZM16.25 26V27H17.25V26H16.25Z" fill="white"/>
<path id="Rectangle 411" opacity="0.4" d="M15.25 26H16.25V27H15.25V26Z" fill="white"/>
<path id="Rectangle 413" opacity="0.4" d="M9.25 26H10.25V27H9.25V26Z" fill="white"/>
<path id="Rectangle 415" opacity="0.4" d="M11.25 26H12.25V27H11.25V26Z" fill="white"/>
<path id="Rectangle 417" opacity="0.4" d="M13.25 26H14.25V27H13.25V26Z" fill="white"/>
<path id="Rectangle 412" opacity="0.4" d="M15.25 22H16.25V23H15.25V22Z" fill="white"/>
<path id="Rectangle 414" opacity="0.4" d="M9.25 22H10.25V23H9.25V22Z" fill="white"/>
<path id="Rectangle 416" opacity="0.4" d="M11.25 22H12.25V23H11.25V22Z" fill="white"/>
<path id="Rectangle 419" opacity="0.55" d="M18.25 23H19.25V24H18.25V23Z" fill="white"/>
<path id="Rectangle 421" opacity="0.55" d="M18.25 25H19.25V26H18.25V25Z" fill="white"/>
<path id="Rectangle 420" opacity="0.55" d="M20.25 23H21.25V24H20.25V23Z" fill="white"/>
<path id="Rectangle 422" opacity="0.55" d="M20.25 25H21.25V26H20.25V25Z" fill="white"/>
<path id="Rectangle 423" opacity="0.4" d="M24.25 24H25.25V25H24.25V24Z" fill="white"/>
<path id="Rectangle 418" opacity="0.4" d="M13.25 22H14.25V23H13.25V22Z" fill="white"/>
<path id="Union_4" fill-rule="evenodd" clip-rule="evenodd" d="M18.25 22H19.25V23H18.25V22ZM20.25 23H19.25V26H18.25V27H19.25V26H20.25V27H21.25V26H20.25V23ZM20.25 23V22H21.25V23H20.25Z" fill="white"/>
</g>
</g>
<g id="Group 40456">
<path id="Union_5" d="M13.027 7.7068C13.4175 7.31628 14.0507 7.31628 14.4412 7.7068L15.8554 9.12102C16.2459 9.51154 16.2459 10.1447 15.8554 10.5352L9.84499 16.5456L6.66301 16.8992L7.01656 13.7172L13.027 7.7068Z" fill="#A6A6A6"/>
<path id="Line 32 (Stroke)" fill-rule="evenodd" clip-rule="evenodd" d="M13.0269 10.5352L10.1985 13.3637C9.80798 13.7542 9.17481 13.7542 8.78429 13.3637L12.3198 9.82812L13.0269 10.5352Z" fill="white"/>
<path id="Line 33 (Stroke)" fill-rule="evenodd" clip-rule="evenodd" d="M14.4411 11.9496L11.6127 9.12117L12.3198 8.41406L15.1483 11.2425L14.4411 11.9496Z" fill="white"/>
</g>
</g>
<defs>
<linearGradient id="paint0_linear_1467:7143" x1="16.25" y1="0" x2="16.25" y2="32" gradientUnits="userSpaceOnUse">
<stop stop-color="#DADADA"/>
<stop offset="1" stop-color="#828282"/>
</linearGradient>
</defs>
</svg>
