<svg width="32" height="32" viewBox="0 0 32 32" fill="none" xmlns="http://www.w3.org/2000/svg">
<g id="32X32 / docxf">
<path id="background" d="M4 1H19L28 9L28.1676 31H4V1Z" fill="white"/>
<path id="shadow" fill-rule="evenodd" clip-rule="evenodd" d="M4 31H28.148L28 9L19 1L4.08333 1.06667L4 31ZM19 0H3V32H29V9L19 0Z" fill="#BFBFBF"/>
<rect id="Rectangle 505" x="6.5" y="12.5" width="19" height="5" fill="#F2F2F2" stroke="#BFBFBF"/>
<path id="Rectangle 504" d="M6 4H18V10H6V4Z" fill="#F2F2F2"/>
<path id="Rectangle 504 (Stroke)" fill-rule="evenodd" clip-rule="evenodd" d="M18 5H7V9H18V5ZM6 4V10H18V4H6Z" fill="#BFBFBF"/>
<path id="ear shadow" opacity="0.3" d="M17 11V1H18V10H28V11H17Z" fill="black"/>
<path id="Union" d="M6 21C6 20.4477 6.44772 20 7 20H25C25.5523 20 26 20.4477 26 21V28C26 28.5523 25.5523 29 25 29H7C6.44772 29 6 28.5523 6 28V21Z" fill="#27ABA3"/>
<path id="Union_2" fill-rule="evenodd" clip-rule="evenodd" d="M16 22H17V23H16V22ZM16 26V23H15V26H16ZM16 26V27H17V26H16Z" fill="white"/>
<path id="Exclude" fill-rule="evenodd" clip-rule="evenodd" d="M11 26V23H12V22H13V23H14V26H13V27H12V26H11ZM13 23H12V26H13V23Z" fill="white"/>
<path id="Union_3" d="M22 27L22 22H23H25V23L23 23V24L24 24V25H23L23 27H22Z" fill="white"/>
<path id="Union_4" fill-rule="evenodd" clip-rule="evenodd" d="M7 22.5V26.5V27H7.5H9V26H10V23H9V22H7.5L7 22V22.5ZM9 26V23L8 23V26L9 26Z" fill="white"/>
<path id="Union_5" fill-rule="evenodd" clip-rule="evenodd" d="M18 22H19V23H18V22ZM20 23H19V26H18V27H19V26H20V27H21V26H20V23ZM20 23V22H21V23H20Z" fill="white"/>
</g>
</svg>
