<svg width="32" height="32" viewBox="0 0 32 32" fill="none" xmlns="http://www.w3.org/2000/svg">
<g id="32X32 / dotx">
<path id="background" d="M4 1L19 1L28 9V31H4V1Z" fill="white"/>
<path id="shadow" fill-rule="evenodd" clip-rule="evenodd" d="M4 31H28V9L19 1L4.08333 1.06667L4 31ZM19 0H3V32H29V9L19 0Z" fill="#BFBFBF"/>
<g id="logo">
<path d="M6 4H18V6H6V4Z" fill="#BFBFBF"/>
<path d="M18 8H6V10H18V8Z" fill="#BFBFBF"/>
<path d="M26 12H6V14H26V12Z" fill="#BFBFBF"/>
<path d="M6 16H26V18H6V16Z" fill="#BFBFBF"/>
</g>
<path id="ear shadow" opacity="0.3" d="M17 11V1H18V10H28V11H17Z" fill="black"/>
<path id="Subtract" fill-rule="evenodd" clip-rule="evenodd" d="M7 20C6.44772 20 6 20.4477 6 21V28C6 28.5523 6.44772 29 7 29H25C25.5523 29 26 28.5523 26 28V21C26 20.4477 25.5523 20 25 20H7ZM7 27V22H10V23H8V26H10V27H7ZM10 26H11V23H10V26ZM13 22H15V23H13V22ZM13 26H12V23H13V26ZM15 26V27H13V26H15ZM15 26H16V23H15V26ZM22 22H21V24H22V25H21V27H22V25H24V27H25V25H24V24H25V22H24V24H22V22ZM20 22H17V23H18V27H19V23H20V22Z" fill="#1E7AAA"/>
</g>
</svg>
