<svg width="32" height="32" viewBox="0 0 32 32" fill="none" xmlns="http://www.w3.org/2000/svg">
<path d="M4 1H19L28 9L28.1676 31H4V1Z" fill="white"/>
<path fill-rule="evenodd" clip-rule="evenodd" d="M4 31H28.148L28 9L19 1L4.08333 1.06667L4 31ZM19 0H3V32H29V9L19 0Z" fill="#BFBFBF"/>
<path d="M23 23V26H21V23H23Z" fill="#464B4F"/>
<path fill-rule="evenodd" clip-rule="evenodd" d="M7 20C6.44772 20 6 20.4477 6 21V28C6 28.5523 6.44772 29 7 29H25C25.5523 29 26 28.5523 26 28V21C26 20.4477 25.5523 20 25 20H7ZM8 27V22H11V23H9V26H11V27H8ZM11 26V23H12V26H11ZM20 22V27H23V26H24V23H23V22H20ZM15 22H14V24H15V26H16V27H17V25H18V22H17V25H16V23H15V22Z" fill="#464B4F"/>
<path d="M6 3V16H13V17H11V18H21V17H19V16H26V10H25V15H7V4H18V3H6Z" fill="#BFBFBF"/>
<path opacity="0.3" d="M17 11V1H18V10H28V11H17Z" fill="black"/>
</svg>
