<svg width="32" height="32" viewBox="0 0 32 32" fill="none" xmlns="http://www.w3.org/2000/svg">
<path d="M4 1H19L28 9L28.1676 31H4V1Z" fill="white"/>
<path fill-rule="evenodd" clip-rule="evenodd" d="M4 31H28V9L19 1L4.08333 1.06667L4 31ZM19 0H3V32H29V9L19 0Z" fill="#BFBFBF"/>
<path d="M6 17H5V19H4V22H5V20H6V22H7V20H8V22H9V20H10V22H11V20H12V22H13V20H14V22H15V20H16V26H19V20H28V19H16V17H15V19H14V17H13V19H12V17H11V19H10V17H9V19H8V17H7V19H6V17Z" fill="#BFBFBF"/>
<path opacity="0.3" d="M17 11V1H18V10H28V11H17Z" fill="black"/>
</svg>
