<svg width="32" height="32" viewBox="0 0 32 32" fill="none" xmlns="http://www.w3.org/2000/svg">
<path d="M4 1H19L28 9L28.1676 31H4V1Z" fill="white"/>
<path fill-rule="evenodd" clip-rule="evenodd" d="M4 31H28.148L28 9L19 1L4.08333 1.06667L4 31ZM19 0H3V32H29V9L19 0Z" fill="#BFBFBF"/>
<path fill-rule="evenodd" clip-rule="evenodd" d="M7 20C6.44772 20 6 20.4477 6 21V28C6 28.5523 6.44772 29 7 29H25C25.5523 29 26 28.5523 26 28V21C26 20.4477 25.5523 20 25 20H7ZM12 22H8V27H9V25H11V24H9V23H12V22ZM15 22H14V27H17V26H15V22ZM20 22H19V24H20V26H21V27H22V25H23V23H24V22H22V25H21V23H20V22Z" fill="#C83F28"/>
<path fill-rule="evenodd" clip-rule="evenodd" d="M6 4V17H7V16H8V17H9V15H23V17H24V16H25V17H26V10H25V11H24V10H23V14H9V7H18V6H9V4H8V5H7V4H6ZM8 6H7V7H8V6ZM7 8H8V9H7V8ZM8 10H7V11H8V10ZM7 12H8V13H7V12ZM8 14H7V15H8V14ZM24 12H25V13H24V12ZM25 14H24V15H25V14Z" fill="#BFBFBF"/>
<path opacity="0.3" d="M17 11V1H18V10H28V11H17Z" fill="black"/>
</svg>
