<svg width="32" height="32" viewBox="0 0 32 32" fill="none" xmlns="http://www.w3.org/2000/svg">
<path d="M5 2H19L27 10V30H5V2Z" fill="white"/>
<path fill-rule="evenodd" clip-rule="evenodd" d="M5 30H27V10L19 2H5V30ZM19 1H4V31H28V10L19 1Z" fill="url(#paint0_linear)"/>
<path d="M18 21.8789V25.1484C18.0338 25.1445 18.0651 25.1401 18.0937 25.1357C18.125 25.1309 18.1532 25.125 18.1782 25.1187C18.2667 25.0967 18.3469 25.0659 18.4189 25.0273C18.4803 24.9946 18.5356 24.9556 18.585 24.9102C18.6614 24.8413 18.7279 24.7422 18.7843 24.6123C18.8086 24.5566 18.831 24.4951 18.8516 24.4282C18.9199 24.2026 18.9541 23.896 18.9541 23.5088C18.9541 23.1216 18.9199 22.8242 18.8516 22.6167C18.8082 22.4849 18.7537 22.3716 18.6882 22.2769C18.6506 22.2222 18.6093 22.1738 18.5645 22.1313C18.5349 22.1035 18.5034 22.0776 18.4699 22.0542C18.4436 22.0356 18.4161 22.0186 18.3873 22.0024C18.3341 21.9731 18.2768 21.9482 18.2154 21.9277C18.1772 21.915 18.1375 21.9043 18.0962 21.8955C18.0784 21.8916 18.0585 21.8877 18.0364 21.8843L18 21.8789Z" fill="#128DC0"/>
<path d="M15 22.5V24.5C15 24.7764 14.7761 25 14.5 25C14.2239 25 14 24.7764 14 24.5V22.5C14 22.2236 14.2239 22 14.5 22C14.7761 22 15 22.2236 15 22.5Z" fill="#128DC0"/>
<path fill-rule="evenodd" clip-rule="evenodd" d="M7 20C7 19.4478 7.44769 19 8 19H24C24.5523 19 25 19.4478 25 20V27C25 27.5522 24.5523 28 24 28H8C7.44769 28 7 27.5522 7 27V20ZM21 21.8477H21.9883V26H23V21.8477H24V21H21V21.8477ZM9 21H12V21.8477H10.0117V23.0337H12V23.8813H10.0117V26.0107H9V21ZM17 21V26H18C18.1408 25.9932 18.268 25.9785 18.3817 25.9575C18.4605 25.9434 18.5328 25.9258 18.5986 25.9048C18.8972 25.8091 19.1341 25.6758 19.3096 25.5049C19.4272 25.3906 19.5312 25.2588 19.6214 25.1089C19.7094 24.9629 19.7843 24.7998 19.8462 24.6196C19.904 24.4517 19.9455 24.2651 19.9707 24.0605C19.9902 23.9023 20 23.7334 20 23.5532C20 23.084 19.9453 22.6895 19.8359 22.3706C19.7867 22.2261 19.7274 22.0918 19.6578 21.9673C19.5729 21.8154 19.4728 21.6787 19.3574 21.5571C19.1478 21.3359 18.896 21.1821 18.6021 21.0957C18.4495 21.0513 18.2488 21.0137 18 21H17ZM13 22.5C13 21.6714 13.6716 21 14.5 21C15.3284 21 16 21.6714 16 22.5V24.5C16 25.3286 15.3284 26 14.5 26C13.6716 26 13 25.3286 13 24.5V22.5Z" fill="#128DC0"/>
<path d="M7 6H19V8H7V6Z" fill="#BFBFBF"/>
<path d="M7 9H19V10H25V11H7V9Z" fill="#BFBFBF"/>
<path d="M7 12H25V14H7V12Z" fill="#BFBFBF"/>
<path d="M7 15H25V17H7V15Z" fill="#BFBFBF"/>
<path opacity="0.3" d="M18 11V2H19V10H27V11H18Z" fill="black"/>
<defs>
<linearGradient id="paint0_linear" x1="16" y1="30" x2="16" y2="1" gradientUnits="userSpaceOnUse">
<stop stop-color="#A8A8A8"/>
<stop offset="1" stop-color="#DADADA"/>
</linearGradient>
</defs>
</svg>
