<svg width="32" height="32" viewBox="0 0 32 32" fill="none" xmlns="http://www.w3.org/2000/svg">
<path d="M4 1H19L28 9L28.1676 31H4V1Z" fill="white"/>
<path fill-rule="evenodd" clip-rule="evenodd" d="M4 31H28.148L28 9L19 1L4.08333 1.06667L4 31ZM19 0H3V32H29V9L19 0Z" fill="#BFBFBF"/>
<path d="M16 23V25H14V23H16Z" fill="#EEC33F"/>
<path fill-rule="evenodd" clip-rule="evenodd" d="M7 20C6.44772 20 6 20.4477 6 21V28C6 28.5523 6.44772 29 7 29H25C25.5523 29 26 28.5523 26 28V21C26 20.4477 25.5523 20 25 20H7ZM16 23V22H14V23H13V27H14V26H16V27H17V23H16ZM9 22H10V27H9V22ZM24 22H20V27H21V25H23V24H21V23H24V22Z" fill="#EEC33F"/>
<path fill-rule="evenodd" clip-rule="evenodd" d="M6 3V18H26V10H25V16.2266L19.8174 10.6454L20.3911 10H19.0532L17.2755 11.9999H14.7245L7.61349 4H18V3H6ZM19.15 11.3963L24.3535 17H7.64651L12.85 11.3963L14.2755 12.9999H17.7245L19.15 11.3963ZM7 16.2266V4.81502L12.1826 10.6454L7 16.2266Z" fill="#BFBFBF"/>
<path opacity="0.3" d="M17 11V1H18V10H28V11H17Z" fill="black"/>
</svg>
