<svg width="32" height="32" viewBox="0 0 32 32" fill="none" xmlns="http://www.w3.org/2000/svg">
<path d="M5 2V30H27V9H26V8H25V7H24V6H23V5H22V4H21V3H20V2H5Z" fill="white"/>
<rect x="4" y="30" width="24" height="1" fill="#828282"/>
<path d="M4 30V2H5V30H4Z" fill="black"/>
<path d="M4 30V2H5V30H4Z" fill="url(#paint0_linear)"/>
<path d="M27 30V9H28V30H27Z" fill="black"/>
<path d="M27 30V9H28V30H27Z" fill="url(#paint1_linear)"/>
<path d="M20 1H4V2H20V1Z" fill="#D8D8D8"/>
<rect x="20" y="2" width="1" height="1" fill="#C1C1C1"/>
<rect x="21" y="3" width="1" height="1" fill="#C4C4C4"/>
<rect x="22" y="4" width="1" height="1" fill="#C7C7C7"/>
<rect x="23" y="5" width="1" height="1" fill="#C7C7C7"/>
<rect x="24" y="6" width="1" height="1" fill="#C5C5C5"/>
<rect x="25" y="7" width="1" height="1" fill="#C0C0C0"/>
<rect x="26" y="8" width="1" height="1" fill="#B9B9B9"/>
<path opacity="0.25" d="M19 2H18V11H27V10H19V2Z" fill="black"/>
<path d="M10 6H12V8H19V9H12V11H10V9H8V20H7V8H10V6Z" fill="#BFBFBF"/>
<path d="M24 10H25V20H24V10Z" fill="#BFBFBF"/>
<path d="M13 12H14V19H13V14H12V13H13V12Z" fill="#BFBFBF"/>
<path d="M16 12H20V14H19V13H16V12Z" fill="#BFBFBF"/>
<path d="M18 16H19V14H18V16Z" fill="#BFBFBF"/>
<path d="M18 16V19H17V16H18Z" fill="#BFBFBF"/>
<rect x="7" y="19" width="18" height="9" rx="1" fill="#DD4A4A"/>
<rect x="10" y="21" width="1" height="5" fill="white"/>
<path d="M14 21H16V22H14V21Z" fill="white"/>
<path d="M14 25V22H13V25H14Z" fill="white"/>
<path d="M16 25V26H14V25H16Z" fill="white"/>
<path d="M16 25V24H17V25H16Z" fill="white"/>
<path d="M16 22H17V23H16V22Z" fill="white"/>
<path d="M20 21H22V22H20V21Z" fill="white"/>
<path d="M20 23V22H19V23H20Z" fill="white"/>
<path d="M22 24H20V23H22V24Z" fill="white"/>
<path d="M22 25V24H23V25H22Z" fill="white"/>
<path d="M22 25H19V26H22V25Z" fill="white"/>
<defs>
<linearGradient id="paint0_linear" x1="16" y1="2" x2="16" y2="30" gradientUnits="userSpaceOnUse">
<stop stop-color="#CCCCCC"/>
<stop offset="1" stop-color="#A8A8A8"/>
</linearGradient>
<linearGradient id="paint1_linear" x1="16" y1="2" x2="16" y2="30" gradientUnits="userSpaceOnUse">
<stop stop-color="#CCCCCC"/>
<stop offset="1" stop-color="#A8A8A8"/>
</linearGradient>
</defs>
</svg>
