<svg width="32" height="32" viewBox="0 0 32 32" fill="none" xmlns="http://www.w3.org/2000/svg">
<path d="M4 1H19L28 9L28.1676 31H4V1Z" fill="white"/>
<path fill-rule="evenodd" clip-rule="evenodd" d="M4 31H28.148L28 9L19 1L4.08333 1.06667L4 31ZM19 0H3V32H29V9L19 0Z" fill="#BFBFBF"/>
<path fill-rule="evenodd" clip-rule="evenodd" d="M7 20C6.44772 20 6 20.4477 6 21V28C6 28.5523 6.44772 29 7 29H25C25.5523 29 26 28.5523 26 28V21C26 20.4477 25.5523 20 25 20H7ZM10 22H9V27H10V22ZM13 22H12V27H13V25H14V27H15V25H16V27H17V22H16V23H15V25H14V23H13V22ZM20 23V22H23V23H20ZM20 26H19V23H20V26ZM23 26V27H20V26H23ZM23 25H24V26H23V25ZM23 25H22V24H23V25Z" fill="#A671D8"/>
<path d="M18 4H7V17H25V10H26V18H6V3H18V4Z" fill="#BFBFBF"/>
<path fill-rule="evenodd" clip-rule="evenodd" d="M18 5V8L11 16H8V5H18ZM12 10C13.1046 10 14 9.10457 14 8C14 6.89543 13.1046 6 12 6C10.8954 6 10 6.89543 10 8C10 9.10457 10.8954 10 12 10Z" fill="#BFBFBF"/>
<path d="M19.5 10H24V16L19.5 10Z" fill="#BFBFBF"/>
<path opacity="0.3" d="M17 11V1H18V10H28V11H17Z" fill="black"/>
</svg>
