<svg width="32" height="32" viewBox="0 0 32 32" fill="none" xmlns="http://www.w3.org/2000/svg">
<path d="M4 1H19L28 9L28.1676 31H4V1Z" fill="white"/>
<path fill-rule="evenodd" clip-rule="evenodd" d="M4 31H28.148L28 9L19 1L4.08333 1.06667L4 31ZM19 0H3V32H29V9L19 0Z" fill="#BFBFBF"/>
<path fill-rule="evenodd" clip-rule="evenodd" d="M7 20C6.44772 20 6 20.4477 6 21V28C6 28.5523 6.44772 29 7 29H25C25.5523 29 26 28.5523 26 28V21C26 20.4477 25.5523 20 25 20H7ZM21 22V23H22V27H23V23H24V22H21ZM15 22H16V24H18V22H19V27H18V25H16V27H15V22ZM8 22H9V23H10V25H9V27H8V22ZM11 25V27H10V25H11ZM11 25V23H12V22H13V27H12V25H11Z" fill="#5E93A2"/>
<path d="M10 7H14V9H12V11H10V13H12V15H14V17H10V15H8V13H6V11H8V9H10V7Z" fill="#BFBFBF"/>
<path d="M13 13V11H15V13H13Z" fill="#BFBFBF"/>
<path d="M19 13V11H17V13H19Z" fill="#BFBFBF"/>
<path d="M24 10H20V11H22V13H20V15H18V17H22V15H24V13H26V11H24V10Z" fill="#BFBFBF"/>
<path opacity="0.3" d="M17 11V1H18V10H28V11H17Z" fill="black"/>
</svg>
