<svg width="32" height="32" viewBox="0 0 32 32" fill="none" xmlns="http://www.w3.org/2000/svg">
<path d="M4 1H19L28 9L28.1676 31H4V1Z" fill="white"/>
<path fill-rule="evenodd" clip-rule="evenodd" d="M4 31H28.148L28 9L19 1L4.08333 1.06667L4 31ZM19 0H3V32H29V9L19 0Z" fill="#BFBFBF"/>
<path d="M16 23H18V24H16V23Z" fill="#00A9CD"/>
<path fill-rule="evenodd" clip-rule="evenodd" d="M7 20C6.44772 20 6 20.4477 6 21V28C6 28.5523 6.44772 29 7 29H25C25.5523 29 26 28.5523 26 28V21C26 20.4477 25.5523 20 25 20H7ZM15 27V22H19V25H16V27H15ZM24 22V25H25V26H24V27H23V26H21V23H22V25H23V23H22V22H24ZM8 22H9V23H10V25H9V27H8V22ZM11 25V27H10V25H11ZM11 25H12V27H13V22H12V23H11V25Z" fill="#00A9CD"/>
<path fill-rule="evenodd" clip-rule="evenodd" d="M6 5H18V8L16 6H14L16 8H18V10H16L14 12H16L18 10H20L18 12H20L22 10H24L22 12H24L26 10V18H6V5ZM10 6H12L14 8H12L10 6ZM12 12H10L12 10H14L12 12ZM25 17V13H7V17H25Z" fill="#BFBFBF"/>
<path opacity="0.3" d="M17 11V1H18V10H28V11H17Z" fill="black"/>
</svg>
