<svg width="32" height="32" viewBox="0 0 32 32" fill="none" xmlns="http://www.w3.org/2000/svg">
<path d="M4 1H19L28 9L28.1676 31H4V1Z" fill="white"/>
<path fill-rule="evenodd" clip-rule="evenodd" d="M4 31H28.148L28 9L19 1L4.08333 1.06667L4 31ZM19 0H3V32H29V9L19 0Z" fill="#BFBFBF"/>
<path d="M15 23H17V24H15V23Z" fill="#2BBDC6"/>
<path fill-rule="evenodd" clip-rule="evenodd" d="M7 20C6.44772 20 6 20.4477 6 21V28C6 28.5523 6.44772 29 7 29H25C25.5523 29 26 28.5523 26 28V21C26 20.4477 25.5523 20 25 20H7ZM14 27V22H18V25H15V27H14ZM9 22H8V27H9V25H10V27H11V25H12V27H13V22H12V23H11V25H10V23H9V22ZM20 23V22H23V23H20ZM20 26H19V23H20V26ZM23 26V27H20V26H23ZM23 25H24V26H23V25ZM23 25H22V24H23V25Z" fill="#2BBDC6"/>
<path fill-rule="evenodd" clip-rule="evenodd" d="M18 5H6V18H26V10L24 12H22L24 10H22L20 12H18L20 10H18V8V5ZM18 8H16L14 6H16L18 8ZM18 10L16 12H14L16 10H18ZM12 6H10L12 8H14L12 6ZM10 12H12L14 10H12L10 12Z" fill="#BFBFBF"/>
<path opacity="0.3" d="M17 11V1H18V10H28V11H17Z" fill="black"/>
</svg>
