<svg width="32" height="32" viewBox="0 0 32 32" fill="none" xmlns="http://www.w3.org/2000/svg">
<path d="M4 1L19 1L28 9V31H4V1Z" fill="white"/>
<path fill-rule="evenodd" clip-rule="evenodd" d="M4.00003 31H28V9L19 1L4.08336 1.06667L4.00003 31ZM19 0H3.00003V32H29V9L19 0Z" fill="#BFBFBF"/>
<path d="M21 23H23V24H21V23Z" fill="#D6771B"/>
<path d="M15 23H17V26H15V23Z" fill="#D6771B"/>
<path fill-rule="evenodd" clip-rule="evenodd" d="M7 20C6.44772 20 6 20.4477 6 21V28C6 28.5523 6.44772 29 7 29H25C25.5523 29 26 28.5523 26 28V21C26 20.4477 25.5523 20 25 20H7ZM20 27V22H24V25H21V27H20ZM14 22V27H17V26H18V23H17V22H14ZM9 23V22H11V23H9ZM8 23H9V26H8V23ZM11 26V27H9V26H11ZM11 26H12V23H11V26Z" fill="#D6771B"/>
<path d="M18 4H6V18H26V10H25V17H7V5H18V4Z" fill="#BFBFBF"/>
<path d="M11 10V12H23V10H11Z" fill="#BFBFBF"/>
<path d="M10 6H8V8H10V6Z" fill="#BFBFBF"/>
<path d="M10 10H8V12H10V10Z" fill="#BFBFBF"/>
<path d="M10 14H8V16H10V14Z" fill="#BFBFBF"/>
<path d="M11 14H20V16H11V14Z" fill="#BFBFBF"/>
<path d="M11 6H16V8H11V6Z" fill="#BFBFBF"/>
<path opacity="0.3" d="M17 11V1H18V10H28V11H17Z" fill="black"/>
</svg>
