<svg width="32" height="32" viewBox="0 0 32 32" fill="none" xmlns="http://www.w3.org/2000/svg">
<path d="M4 0.999998L19 1L28 9V31H4V0.999998Z" fill="white"/>
<path fill-rule="evenodd" clip-rule="evenodd" d="M4.00003 31H28V9L19 1L4.08336 1.06667L4.00003 31ZM19 0H3.00003V32H29V9L19 0Z" fill="#BFBFBF"/>
<path d="M11 26H9V23H11V26Z" fill="#679F24"/>
<path fill-rule="evenodd" clip-rule="evenodd" d="M7 20C6.44772 20 6 20.4477 6 21V28C6 28.5523 6.44772 29 7 29H25C25.5523 29 26 28.5523 26 28V21C26 20.4477 25.5523 20 25 20H7ZM14 27V22H17V23H15V26H17V27H14ZM17 26V23H18V26H17ZM23 22H21V23H20V24H21V25H23V26H20V27H23V26H24V25H23V24H21V23H23V22ZM11 23V22H9V23H8V26H9V27H11V26H12V23H11Z" fill="#679F24"/>
<path fill-rule="evenodd" clip-rule="evenodd" d="M18 4H6V18H26V10H25V13H13V5H18V4ZM7 13V5H9V13H7ZM10 13V5H12V13H10ZM13 14H25V17H13V14ZM12 14V17H10V14H12ZM9 14V17H7V14H9Z" fill="#BFBFBF"/>
<path opacity="0.3" d="M17 11V1H18V10H28V11H17Z" fill="black"/>
</svg>
