<svg width="32" height="32" viewBox="0 0 32 32" fill="none" xmlns="http://www.w3.org/2000/svg">
<g id="32X32 / OFORM">
<path id="background" d="M4 1H19L28 9L28.1676 31H4V1Z" fill="white"/>
<path id="shadow" fill-rule="evenodd" clip-rule="evenodd" d="M4 31H28.148L28 9L19 1L4.08333 1.06667L4 31ZM19 0H3V32H29V9L19 0Z" fill="#BFBFBF"/>
<path id="Rectangle 505" d="M6 4H18V10H26V18H6V4Z" fill="#F2F2F2"/>
<path id="Rectangle 505 (Stroke)" fill-rule="evenodd" clip-rule="evenodd" d="M18 10V4H6V18H26V10H18ZM25 10H18V5H7V17H25V10Z" fill="#BFBFBF"/>
<path id="Subtract" fill-rule="evenodd" clip-rule="evenodd" d="M12 7V8L11 8V7H12ZM11 14V8H10V7H9V8H10V14H9V15H10L10 14H11ZM11 15V14H12V15H11Z" fill="#888888"/>
<path id="ear shadow" opacity="0.3" d="M17 11V1H18V10H28V11H17Z" fill="black"/>
<path id="Union" d="M6 21C6 20.4477 6.44772 20 7 20H25C25.5523 20 26 20.4477 26 21V28C26 28.5523 25.5523 29 25 29H7C6.44772 29 6 28.5523 6 28V21Z" fill="#188079"/>
<path id="Exclude" fill-rule="evenodd" clip-rule="evenodd" d="M7 26V23H8V22H9V23H10V26H9V27H8V26H7ZM9 23H8V26H9V23Z" fill="white"/>
<path id="Exclude_2" fill-rule="evenodd" clip-rule="evenodd" d="M14 26V23H15V22H16V23H17V26H16V27H15V26H14ZM16 23H15V26H16V23Z" fill="white"/>
<path id="Union_2" d="M11 27L11 22H12H13V23L12 23V24L13 24V25H12L12 27H11Z" fill="white"/>
<g id="Group 40491">
<rect id="Rectangle 596" x="23" y="24" width="1" height="1" fill="white"/>
<rect id="Rectangle 597" x="23" y="23" width="1" height="1" fill="white" fill-opacity="0.6"/>
<rect id="Rectangle 594" x="22" y="22" width="1" height="5" fill="white"/>
<rect id="Rectangle 595" x="24" y="22" width="1" height="5" fill="white"/>
</g>
<path id="Union_3" fill-rule="evenodd" clip-rule="evenodd" d="M19 22H18V27H19V25H20V26V27H21V26V25H20V24H21V23H20V22H19ZM20 23H19V24H20V23Z" fill="white"/>
</g>
</svg>
