<svg width="32" height="32" viewBox="0 0 32 32" fill="none" xmlns="http://www.w3.org/2000/svg">
<g id="32X32 / otp">
<path id="background" d="M5 2H19L27 10V30H5V2Z" fill="white"/>
<path id="shadow" fill-rule="evenodd" clip-rule="evenodd" d="M5 30H27V10L19 2H5V30ZM19 1H4V31H28V10L19 1Z" fill="url(#paint0_linear)"/>
<g id="format">
<path d="M10.0425 23.4912C10.0425 24.0586 10.1735 24.4893 10.4355 24.7832C10.6976 25.0749 11.0303 25.2207 11.4336 25.2207C11.8369 25.2207 12.1673 25.076 12.4248 24.7866C12.6846 24.495 12.8145 24.0586 12.8145 23.4775C12.8145 22.9033 12.688 22.4749 12.4351 22.1924C12.1844 21.9098 11.8506 21.7686 11.4336 21.7686C11.0166 21.7686 10.6805 21.9121 10.4253 22.1992C10.1701 22.484 10.0425 22.9147 10.0425 23.4912Z" fill="#F37600"/>
<path d="M19.9443 23.2588V21.8369H20.4331C20.7977 21.8369 21.0404 21.8483 21.1611 21.8711C21.3252 21.9007 21.4608 21.9748 21.5679 22.0933C21.675 22.2118 21.7285 22.3621 21.7285 22.5444C21.7285 22.6925 21.6898 22.8224 21.6123 22.9341C21.5371 23.0457 21.4323 23.1278 21.2979 23.1802C21.1634 23.2326 20.8968 23.2588 20.498 23.2588H19.9443Z" fill="#F37600"/>
<path fill-rule="evenodd" clip-rule="evenodd" d="M8 19C7.44772 19 7 19.4477 7 20V27C7 27.5523 7.44772 28 8 28H24C24.5523 28 25 27.5523 25 27V20C25 19.4477 24.5523 19 24 19H8ZM9 23.5254C9 23.015 9.07633 22.5866 9.229 22.2402C9.34294 21.985 9.49788 21.756 9.69385 21.5532C9.89209 21.3504 10.1086 21.2 10.3433 21.1021C10.6554 20.9699 11.0155 20.9038 11.4233 20.9038C12.1616 20.9038 12.7518 21.1328 13.1938 21.5908C13.6382 22.0488 13.8604 22.6857 13.8604 23.5015C13.8604 24.3104 13.6405 24.9438 13.2007 25.4019C12.7609 25.8576 12.173 26.0854 11.437 26.0854C10.6919 26.0854 10.0994 25.8587 9.65967 25.4053C9.21989 24.9495 9 24.3229 9 23.5254ZM15.7812 26V21.8369H14.2944V20.9893H18.2764V21.8369H16.793V26H15.7812ZM18.9326 20.9893V26H19.9443V24.1099H20.604C21.062 24.1099 21.4118 24.0859 21.6533 24.0381C21.8311 23.9993 22.0054 23.9207 22.1763 23.8022C22.3494 23.6815 22.4919 23.5163 22.6035 23.3066C22.7152 23.097 22.771 22.8384 22.771 22.5308C22.771 22.132 22.6742 21.8073 22.4805 21.5566C22.2868 21.3037 22.0464 21.1396 21.7593 21.0645C21.5724 21.0143 21.1714 20.9893 20.5562 20.9893H18.9326Z" fill="#F37600"/>
</g>
<g id="logo">
<path fill-rule="evenodd" clip-rule="evenodd" d="M7 5H19V6H8V16H24V10H25V17H7V5Z" fill="#BFBFBF"/>
<path d="M11 15V13H9V15H11Z" fill="#BFBFBF"/>
<path d="M11 10V12H9V10H11Z" fill="#BFBFBF"/>
<path d="M11 7V9H9V7H11Z" fill="#BFBFBF"/>
<path d="M12 7V9H19V8H16V7H12Z" fill="#BFBFBF"/>
<path d="M17 10H12V12H15V11H17V10Z" fill="#BFBFBF"/>
<path d="M18 13H12V15H22V14H18V13Z" fill="#BFBFBF"/>
</g>
<path id="ear shadow" opacity="0.3" d="M18 11V2H19V10H27V11H18Z" fill="black"/>
</g>
<defs>
<linearGradient id="paint0_linear" x1="16" y1="30" x2="16" y2="1" gradientUnits="userSpaceOnUse">
<stop stop-color="#A8A8A8"/>
<stop offset="1" stop-color="#DADADA"/>
</linearGradient>
</defs>
</svg>
