<svg width="32" height="32" viewBox="0 0 32 32" fill="none" xmlns="http://www.w3.org/2000/svg">
<g id="32X32 / ots">
<path id="background" d="M5 2H19L27 10V30H5V2Z" fill="white"/>
<path id="shadow" fill-rule="evenodd" clip-rule="evenodd" d="M5 30H27V10L19 2H5V30ZM19 1H4V31H28V10L19 1Z" fill="url(#paint0_linear)"/>
<g id="format">
<path d="M10.1484 23.4912C10.1484 24.0586 10.2795 24.4893 10.5415 24.7832C10.8035 25.0749 11.1362 25.2207 11.5396 25.2207C11.9429 25.2207 12.2733 25.076 12.5308 24.7866C12.7905 24.495 12.9204 24.0586 12.9204 23.4775C12.9204 22.9033 12.7939 22.4749 12.541 22.1924C12.2904 21.9098 11.9565 21.7686 11.5396 21.7686C11.1226 21.7686 10.7865 21.9121 10.5312 22.1992C10.276 22.484 10.1484 22.9147 10.1484 23.4912Z" fill="#679F24"/>
<path fill-rule="evenodd" clip-rule="evenodd" d="M8 19C7.44772 19 7 19.4477 7 20V27C7 27.5523 7.44772 28 8 28H24C24.5523 28 25 27.5523 25 27V20C25 19.4477 24.5523 19 24 19H8ZM9.10596 23.5254C9.10596 23.015 9.18229 22.5866 9.33496 22.2402C9.44889 21.985 9.60384 21.756 9.7998 21.5532C9.99805 21.3504 10.2145 21.2 10.4492 21.1021C10.7614 20.9699 11.1214 20.9038 11.5293 20.9038C12.2676 20.9038 12.8577 21.1328 13.2998 21.5908C13.7441 22.0488 13.9663 22.6857 13.9663 23.5015C13.9663 24.3104 13.7464 24.9438 13.3066 25.4019C12.8669 25.8576 12.279 26.0854 11.543 26.0854C10.7979 26.0854 10.2054 25.8587 9.76562 25.4053C9.32585 24.9495 9.10596 24.3229 9.10596 23.5254ZM15.8872 26V21.8369H14.4004V20.9893H18.3823V21.8369H16.8989V26H15.8872ZM19.7666 24.2739L18.7822 24.3696C18.8483 24.9302 19.0511 25.3574 19.3906 25.6514C19.7301 25.943 20.2166 26.0889 20.8501 26.0889C21.2853 26.0889 21.6488 26.0285 21.9404 25.9077C22.2321 25.7847 22.4577 25.5978 22.6172 25.3472C22.7767 25.0965 22.8564 24.8276 22.8564 24.5405C22.8564 24.2238 22.7892 23.9583 22.6548 23.7441C22.5226 23.5277 22.3381 23.3579 22.1011 23.2349C21.8664 23.1095 21.5029 22.9888 21.0107 22.8726C20.5186 22.7563 20.2087 22.6447 20.0811 22.5376C19.9808 22.4533 19.9307 22.3519 19.9307 22.2334C19.9307 22.1035 19.9842 21.9998 20.0913 21.9224C20.2576 21.8016 20.4878 21.7412 20.7817 21.7412C21.0666 21.7412 21.2796 21.7982 21.4209 21.9121C21.5645 22.0238 21.6579 22.2083 21.7012 22.4658L22.7129 22.4214C22.6969 21.9611 22.5295 21.5931 22.2104 21.3174C21.8937 21.0417 21.4209 20.9038 20.792 20.9038C20.4069 20.9038 20.0776 20.9619 19.8042 21.0781C19.533 21.1943 19.3245 21.3641 19.1787 21.5874C19.0352 21.8084 18.9634 22.0465 18.9634 22.3018C18.9634 22.6982 19.1172 23.0343 19.4248 23.3101C19.6436 23.506 20.0241 23.6712 20.5664 23.8057C20.988 23.9105 21.258 23.9834 21.3765 24.0244C21.5496 24.0859 21.6704 24.1589 21.7388 24.2432C21.8094 24.3252 21.8447 24.4255 21.8447 24.5439C21.8447 24.7285 21.7616 24.8903 21.5952 25.0293C21.4312 25.166 21.1862 25.2344 20.8604 25.2344C20.5527 25.2344 20.3078 25.1569 20.1255 25.002C19.9455 24.847 19.8258 24.6043 19.7666 24.2739Z" fill="#679F24"/>
</g>
<path id="logo" fill-rule="evenodd" clip-rule="evenodd" d="M7 5H19V6H14V13H24V10H25V17H7V5ZM24 14H14V16H24V14ZM13 16V14H11V16H13ZM10 16V14H8V16H10ZM8 13H10V6H8V13ZM11 6V13H13V6H11Z" fill="#BFBFBF"/>
<path id="ear shadow" opacity="0.3" d="M18 11V2H19V10H27V11H18Z" fill="black"/>
</g>
<defs>
<linearGradient id="paint0_linear" x1="16" y1="30" x2="16" y2="1" gradientUnits="userSpaceOnUse">
<stop stop-color="#A8A8A8"/>
<stop offset="1" stop-color="#DADADA"/>
</linearGradient>
</defs>
</svg>
