<svg width="32" height="32" viewBox="0 0 32 32" fill="none" xmlns="http://www.w3.org/2000/svg">
<path d="M4 1H19L28 9L28.1676 31H4V1Z" fill="white"/>
<path fill-rule="evenodd" clip-rule="evenodd" d="M4 31H28.148L28 9L19 1L4.08333 1.06667L4 31ZM19 0H3V32H29V9L19 0Z" fill="#BFBFBF"/>
<path d="M9 23H11V24H9V23Z" fill="#9E1919"/>
<path d="M17 23V26H15V23H17Z" fill="#9E1919"/>
<path fill-rule="evenodd" clip-rule="evenodd" d="M7 20C6.44772 20 6 20.4477 6 21V28C6 28.5523 6.44772 29 7 29H25C25.5523 29 26 28.5523 26 28V21C26 20.4477 25.5523 20 25 20H7ZM8 27V22H12V25H9V27H8ZM14 22V27H17V26H18V23H17V22H14ZM24 22H20V27H21V25H23V24H21V23H24V22Z" fill="#9E1919"/>
<path d="M16 4H18V6H16V4Z" fill="#BFBFBF"/>
<path d="M18 8H16V10H18V8Z" fill="#BFBFBF"/>
<path d="M26 12H16V14H26V12Z" fill="#BFBFBF"/>
<path d="M26 16V18H6V16H26Z" fill="#BFBFBF"/>
<path d="M6 4H14V14H6V4Z" fill="#BFBFBF"/>
<path opacity="0.3" d="M17 11V1H18V10H28V11H17Z" fill="black"/>
</svg>
