<svg width="32" height="32" viewBox="0 0 32 32" fill="none" xmlns="http://www.w3.org/2000/svg">
<g id="32X32 / pptm">
<path id="background" d="M4 1H19L28 9L28.1676 31H4V1Z" fill="white"/>
<path id="shadow" fill-rule="evenodd" clip-rule="evenodd" d="M4 31H28.148L28 9L19 1L4.08333 1.06667L4 31ZM19 0H3V32H29V9L19 0Z" fill="#BFBFBF"/>
<g id="logo">
<path d="M6 4V18H26V10H25V17H7V5H18V4H6Z" fill="#BFBFBF"/>
<path d="M18 7H16V6H12V8H18V7Z" fill="#BFBFBF"/>
<path d="M10 6H8V8H10V6Z" fill="#BFBFBF"/>
<path d="M17 10V11H15V12H12V10H17Z" fill="#BFBFBF"/>
<path d="M10 14H8V16H10V14Z" fill="#BFBFBF"/>
<path d="M12 14H15V15H23V16H12V14Z" fill="#BFBFBF"/>
<path d="M10 10H8V12H10V10Z" fill="#BFBFBF"/>
</g>
<path id="ear shadow" opacity="0.3" d="M17 11V1H18V10H28V11H17Z" fill="black"/>
<g id="Subtract">
<path d="M9 23H10V24H9V23Z" fill="#F36700"/>
<path d="M14 23H13V24H14V23Z" fill="#F36700"/>
<path fill-rule="evenodd" clip-rule="evenodd" d="M7 20C6.44771 20 6 20.4477 6 21V28C6 28.5523 6.44772 29 7 29H25C25.5523 29 26 28.5523 26 28V21C26 20.4477 25.5523 20 25 20H7ZM8 27V22H11V25H9V27H8ZM15 22H12V27H13V25H15V22ZM16 22H19V23H18V27H17V23H16V22ZM20 22H21V23H22V25H21V27H20V22ZM23 25V27H22V25H23ZM23 25V23H24V22H25V27H24V25H23Z" fill="#F36700"/>
</g>
</g>
</svg>
