<svg width="32" height="32" viewBox="0 0 32 32" fill="none" xmlns="http://www.w3.org/2000/svg">
<path d="M4 1H19L28 9L28.1676 31H4V1Z" fill="white"/>
<path fill-rule="evenodd" clip-rule="evenodd" d="M4 31H28.148L28 9L19 1L4.08333 1.06667L4 31ZM19 0H3V32H29V9L19 0Z" fill="#BFBFBF"/>
<path d="M9 23H8V24H9V23Z" fill="#F36700"/>
<path d="M12 23H13V24H12V23Z" fill="#F36700"/>
<path fill-rule="evenodd" clip-rule="evenodd" d="M6 21C6 20.4477 6.44771 20 7 20H25C25.5523 20 26 20.4477 26 21V28C26 28.5523 25.5523 29 25 29H7C6.44772 29 6 28.5523 6 28V21ZM22 22H21V24H22V25H21V27H22V25H24V27H25V25H24V24H25V22H24V24H22V22ZM15 22H20V23H18V27H17V23H15V22ZM7 22V27H8V25H10V22H7ZM11 27V22H14V25H12V27H11Z" fill="#F36700"/>
<path d="M6 4V18H26V10H25V17H7V5H18V4H6Z" fill="#BFBFBF"/>
<path d="M18 7H16V6H12V8H18V7Z" fill="#BFBFBF"/>
<path d="M10 6H8V8H10V6Z" fill="#BFBFBF"/>
<path d="M17 10V11H15V12H12V10H17Z" fill="#BFBFBF"/>
<path d="M10 14H8V16H10V14Z" fill="#BFBFBF"/>
<path d="M12 14H15V15H23V16H12V14Z" fill="#BFBFBF"/>
<path d="M10 10H8V12H10V10Z" fill="#BFBFBF"/>
<path opacity="0.3" d="M17 11V1H18V10H28V11H17Z" fill="black"/>
</svg>
