<svg width="32" height="32" viewBox="0 0 32 32" fill="none" xmlns="http://www.w3.org/2000/svg">
<g id="webm">
<path id="Vector" d="M4 1H19L28 9V31H4V1Z" fill="white"/>
<path id="Vector_2" fill-rule="evenodd" clip-rule="evenodd" d="M4 31H28V9L19 1H4V31ZM19 0H3V32H29V9L19 0Z" fill="#BFBFBF"/>
<path id="Subtract" fill-rule="evenodd" clip-rule="evenodd" d="M7 20C6.44772 20 6 20.4477 6 21V28C6 28.5523 6.44772 29 7 29H25C25.5523 29 26 28.5523 26 28V21C26 20.4477 25.5523 20 25 20H7ZM10 22H9L10 27H11L11.5 24.5L12 27H13L14 22H13L12.5 24.5L12 22H11L10.5 24.5L10 22ZM20 27L19 24.5V27H18V22H19L20.5 25.75L22 22H23V27H22V24.5L21 27H20ZM17 24H15V25H17V24Z" fill="#1DAA91"/>
<path id="logo" d="M11.4948 5.13869C11.8014 4.95828 12.1806 4.95358 12.4916 5.12635L18 8.18682V10H21.2635L21.4836 10.1223C21.8023 10.2994 22 10.6354 22 11C22 11.3646 21.8023 11.7006 21.4836 11.8777L12.4916 16.8736C12.1806 17.0464 11.8014 17.0417 11.4948 16.8613C11.1882 16.6809 11 16.3517 11 15.9959V6.00406C11 5.6483 11.1882 5.3191 11.4948 5.13869Z" fill="#BFBFBF"/>
<path id="Vector_3" opacity="0.3" d="M17 11V1H18V10H28V11H17Z" fill="black"/>
</g>
</svg>
