<svg width="32" height="32" viewBox="0 0 32 32" fill="none" xmlns="http://www.w3.org/2000/svg">
<path d="M4 1H19L28 9L28.1676 31H4V1Z" fill="white"/>
<path fill-rule="evenodd" clip-rule="evenodd" d="M4 31H28.148L28 9L19 1L4.08333 1.06667L4 31ZM19 0H3V32H29V9L19 0Z" fill="#BFBFBF"/>
<path fill-rule="evenodd" clip-rule="evenodd" d="M7 20C6.44771 20 6 20.4477 6 21V28C6 28.5523 6.44772 29 7 29H25C25.5523 29 26 28.5523 26 28V21C26 20.4477 25.5523 20 25 20H7ZM15 22H16V26H18V27H15V22ZM23 22H21V23H20V24H21V25H23V26H20V27H23V26H24V25H23V24H21V23H23V22ZM10 23V22H8V23H9V24H10V25H9V26H8V27H10V26H11V27H13V26H12V25H11V24H12V23H13V22H11V23H10Z" fill="#6AAA1E"/>
<path fill-rule="evenodd" clip-rule="evenodd" d="M6 18H26V10H25V13H20V10H19V13H13V10H18V9H13V6H18V5H6V18ZM12 6V9H7V6H12ZM7 10H12V13H7V10ZM7 14H12V17H7V14ZM19 14H13V17H19V14ZM20 17V14H25V17H20Z" fill="#BFBFBF"/>
<path opacity="0.3" d="M17 11V1H18V10H28V11H17Z" fill="black"/>
</svg>
