<svg width="32" height="32" viewBox="0 0 32 32" fill="none" xmlns="http://www.w3.org/2000/svg">
<g id="32x32 / xlsm">
<g id="background 32x32">
<path id="background 32x32_2" d="M5 2V30H27V9H26V8H25V7H24V6H23V5H22V4H21V3H20V2H5Z" fill="white"/>
</g>
<path id="Union" fill-rule="evenodd" clip-rule="evenodd" d="M7 4H19V5H14V7H19V8H14V10H25V17H7V4ZM13 5H8V7H13V5ZM8 10V8H13V10H8ZM8 11V13H13V11H8ZM14 11V13H19V11H14ZM20 11V13H24V11H20ZM8 16V14H13V16H8ZM14 16V14H19V16H14ZM20 16V14H24V16H20Z" fill="#BFBFBF"/>
<g id="32">
<rect id="bottom shadow" x="4" y="30" width="24" height="1" fill="#828282"/>
<g id="side shadow">
<path d="M4 30V2H5V30H4Z" fill="black"/>
<path d="M4 30V2H5V30H4Z" fill="url(#paint0_linear)"/>
<path d="M27 30V9H28V30H27Z" fill="black"/>
<path d="M27 30V9H28V30H27Z" fill="url(#paint1_linear)"/>
</g>
<path id="top shadow" d="M20 1H4V2H20V1Z" fill="#D8D8D8"/>
<g id="slice">
<rect id="Rectangle 51" x="20" y="2" width="1" height="1" fill="#C1C1C1"/>
<rect id="Rectangle 52" x="21" y="3" width="1" height="1" fill="#C4C4C4"/>
<rect id="Rectangle 53" x="22" y="4" width="1" height="1" fill="#C7C7C7"/>
<rect id="Rectangle 54" x="23" y="5" width="1" height="1" fill="#C7C7C7"/>
<rect id="Rectangle 55" x="24" y="6" width="1" height="1" fill="#C5C5C5"/>
<rect id="Rectangle 56" x="25" y="7" width="1" height="1" fill="#C0C0C0"/>
<rect id="Rectangle 57" x="26" y="8" width="1" height="1" fill="#B9B9B9"/>
</g>
<path id="corner" opacity="0.25" d="M19 2H18V11H27V10H19V2Z" fill="black"/>
</g>
<g id="Group 13">
<rect id="Rectangle 70" x="7" y="19" width="18" height="9" rx="1" fill="#6AAA1E"/>
<path id="Union_2" d="M20 21H19V26H20V24H21V26H22V24H23V26H24V21H23V22H22V24H21V22H20V21Z" fill="white"/>
<g id="Union_3">
<path d="M16 21H18V22H16V21Z" fill="white"/>
<path d="M16 23H15V22H16V23Z" fill="white"/>
<path d="M17 24V23H16V24H17Z" fill="white"/>
<path d="M17 25V24H18V25H17Z" fill="white"/>
<path d="M17 25H15V26H17V25Z" fill="white"/>
</g>
<path id="Union_4" d="M13 21H12V26H14V25H13V21Z" fill="white"/>
<g id="Union_5">
<path d="M8 21H9V23H8V21Z" fill="white"/>
<path d="M10 23H9V24H8V26H9V24H10V26H11V24H10V23Z" fill="white"/>
<path d="M10 23H11V21H10V23Z" fill="white"/>
</g>
</g>
<g id="Group 14">
<rect id="Rectangle 70_2" x="7" y="19" width="18" height="9" rx="1" fill="#6AAA1E"/>
<path id="Union_6" d="M20 21H19V26H20V24H21V26H22V24H23V26H24V21H23V22H22V24H21V22H20V21Z" fill="white"/>
<g id="Union_7">
<path d="M16 21H18V22H16V21Z" fill="white"/>
<path d="M16 23H15V22H16V23Z" fill="white"/>
<path d="M17 24V23H16V24H17Z" fill="white"/>
<path d="M17 25V24H18V25H17Z" fill="white"/>
<path d="M17 25H15V26H17V25Z" fill="white"/>
</g>
<path id="Union_8" d="M13 21H12V26H14V25H13V21Z" fill="white"/>
<g id="Union_9">
<path d="M8 21H9V23H8V21Z" fill="white"/>
<path d="M10 23H9V24H8V26H9V24H10V26H11V24H10V23Z" fill="white"/>
<path d="M10 23H11V21H10V23Z" fill="white"/>
</g>
</g>
</g>
<defs>
<linearGradient id="paint0_linear" x1="16" y1="2" x2="16" y2="30" gradientUnits="userSpaceOnUse">
<stop stop-color="#CCCCCC"/>
<stop offset="1" stop-color="#A8A8A8"/>
</linearGradient>
<linearGradient id="paint1_linear" x1="16" y1="2" x2="16" y2="30" gradientUnits="userSpaceOnUse">
<stop stop-color="#CCCCCC"/>
<stop offset="1" stop-color="#A8A8A8"/>
</linearGradient>
</defs>
</svg>
