<svg width="512" height="512" viewBox="0 0 512 512" fill="none" xmlns="http://www.w3.org/2000/svg">
<path fill-rule="evenodd" clip-rule="evenodd" d="M234.61 410.115L90.2246 344.853C77.9251 339.155 77.9251 330.35 90.2246 325.17L140.492 302.38L234.075 344.853C246.374 350.55 266.16 350.55 277.925 344.853L371.508 302.38L421.775 325.17C434.075 330.868 434.075 339.673 421.775 344.853L277.39 410.115C266.16 415.295 246.374 415.295 234.61 410.115Z" fill="#FF6F3D"/>
<path fill-rule="evenodd" clip-rule="evenodd" d="M234.142 329.356L90.1965 264.017C77.9345 258.313 77.9345 249.498 90.1965 244.312L139.244 222.014L234.142 265.054C246.404 270.759 266.129 270.759 277.858 265.054L372.756 222.014L421.804 244.312C434.066 250.016 434.066 258.832 421.804 264.017L277.858 329.356C265.596 335.06 245.871 335.06 234.142 329.356Z" fill="#95C038"/>
<path fill-rule="evenodd" clip-rule="evenodd" d="M234.142 249.434L90.1965 185.036C77.9345 179.414 77.9345 170.726 90.1965 165.615L234.142 101.217C246.404 95.5945 266.129 95.5945 277.858 101.217L421.804 165.615C434.066 171.237 434.066 179.925 421.804 185.036L277.858 249.434C265.596 254.545 245.871 254.545 234.142 249.434Z" fill="#5DC0E8"/>
</svg>
