<svg width="64" height="64" viewBox="0 0 64 64" fill="none" xmlns="http://www.w3.org/2000/svg">
<path d="M7 1H38L57 20V63H7V1Z" fill="white"/>
<path fill-rule="evenodd" clip-rule="evenodd" d="M7 63H57V20L38 1H7V63ZM38 0H6V64H58V20L38 0Z" fill="#BFBFBF"/>
<path d="M20.5049 44.7422C22.4007 44.7422 23.3486 45.8154 23.3486 47.9619C23.3486 50.154 22.3278 51.25 20.2861 51.25H19.377V44.7422H20.5049Z" fill="#BC8C18"/>
<path fill-rule="evenodd" clip-rule="evenodd" d="M15 39C13.8954 39 13 39.8954 13 41V57C13 58.1046 13.8954 59 15 59H49C50.1046 59 51 58.1046 51 57V41C51 39.8954 50.1046 39 49 39H15ZM24.1416 51.6875C25.0804 50.8125 25.5498 49.5524 25.5498 47.9072C25.5498 46.3623 25.0986 45.1592 24.1963 44.2979C23.2939 43.4365 22.027 43.0059 20.3955 43.0059H17.2578V53H20.0879C21.8561 53 23.2074 52.5625 24.1416 51.6875ZM25.0478 56.1924C25.4306 56.3063 25.8886 56.3633 26.4218 56.3633C27.2831 56.3633 27.9485 56.1423 28.4179 55.7002C28.8873 55.2627 29.122 54.6383 29.122 53.8271V45.3574H27.037V53.5195C27.037 53.9023 26.955 54.1917 26.7909 54.3877C26.6314 54.5837 26.3762 54.6816 26.0253 54.6816C25.6926 54.6816 25.3668 54.6383 25.0478 54.5518V56.1924ZM28.0829 42.3633C27.3264 42.3633 26.9482 42.7028 26.9482 43.3818C26.9482 44.0654 27.3264 44.4072 28.0829 44.4072C28.4612 44.4072 28.7437 44.3184 28.9306 44.1406C29.122 43.9583 29.2177 43.7054 29.2177 43.3818C29.2177 42.7028 28.8394 42.3633 28.0829 42.3633ZM38.9012 43.0059H36.7616L34.868 48.9531C34.5763 50.0013 34.4054 50.735 34.3553 51.1543C34.328 50.972 34.2573 50.6484 34.1434 50.1836C34.034 49.7142 33.9269 49.304 33.8221 48.9531L31.9422 43.0059H29.8026L33.1932 53H35.5037L38.9012 43.0059ZM44.7156 52.0225L44.9959 53H46.5955V45.3574H44.5105V48.9531C44.5105 49.8555 44.3806 50.5026 44.1209 50.8945C43.8611 51.2819 43.4395 51.4756 42.8562 51.4756C42.4278 51.4756 42.1157 51.3389 41.9197 51.0654C41.7237 50.7874 41.6257 50.3727 41.6257 49.8213V45.3574H39.5408V50.3408C39.5408 51.2432 39.7686 51.9359 40.2244 52.4189C40.6801 52.8975 41.3569 53.1367 42.2546 53.1367C42.7787 53.1367 43.2459 53.041 43.656 52.8496C44.0662 52.6536 44.3829 52.3779 44.6062 52.0225H44.7156Z" fill="#BC8C18"/>
<path d="M38 7H13V33H51V19H49V31H15V9H38V7Z" fill="#BFBFBF"/>
<path d="M38 11H25V19H17V23H21V25H17V29H43V27H47V23H31V21H47V19H38V11Z" fill="#BFBFBF"/>
<path d="M23 11H17V17H23V11Z" fill="#BFBFBF"/>
<path opacity="0.3" d="M37 20V1H38V19H57L58 20H37Z" fill="black"/>
</svg>
