<svg width="64" height="64" viewBox="0 0 64 64" fill="none" xmlns="http://www.w3.org/2000/svg">
<path d="M7 1H38L57 20V63H7V1Z" fill="white"/>
<path fill-rule="evenodd" clip-rule="evenodd" d="M7 63H57V20L38 1H7V63ZM38 0H6V64H58V20L38 0Z" fill="#BFBFBF"/>
<path d="M29.6784 48.9893C29.6784 50.1058 29.8904 50.9466 30.3142 51.5117C30.738 52.0768 31.3715 52.3594 32.2146 52.3594C33.9053 52.3594 34.7507 51.236 34.7507 48.9893C34.7507 46.738 33.9099 45.6123 32.2282 45.6123C31.3851 45.6123 30.7494 45.8971 30.321 46.4668C29.8926 47.0319 29.6784 47.8727 29.6784 48.9893Z" fill="#1E7AAA"/>
<path d="M23.3486 48.9619C23.3486 46.8154 22.4007 45.7422 20.5049 45.7422H19.377V52.25H20.2861C22.3278 52.25 23.3486 51.154 23.3486 48.9619Z" fill="#1E7AAA"/>
<path fill-rule="evenodd" clip-rule="evenodd" d="M15 39C13.8954 39 13 39.8954 13 41V57C13 58.1046 13.8954 59 15 59H49C50.1046 59 51 58.1046 51 57V41C51 39.8954 50.1046 39 49 39H15ZM36.9724 48.9893C36.9724 50.6436 36.5622 51.915 35.7419 52.8037C34.9216 53.6924 33.7458 54.1367 32.2146 54.1367C30.6833 54.1367 29.5075 53.6924 28.6872 52.8037C27.8669 51.915 27.4568 50.639 27.4568 48.9756C27.4568 47.3122 27.8669 46.043 28.6872 45.168C29.5121 44.2884 30.6924 43.8486 32.2282 43.8486C33.764 43.8486 34.9375 44.2907 35.7487 45.1748C36.5645 46.0589 36.9724 47.3304 36.9724 48.9893ZM25.5498 48.9072C25.5498 50.5524 25.0804 51.8125 24.1416 52.6875C23.2074 53.5625 21.8561 54 20.0879 54H17.2578V44.0059H20.3955C22.027 44.0059 23.2939 44.4365 24.1963 45.2979C25.0986 46.1592 25.5498 47.3623 25.5498 48.9072ZM41.7162 46.5283C42.1537 45.9268 42.7713 45.626 43.5688 45.626C43.9334 45.626 44.3048 45.6921 44.683 45.8242C45.0613 45.9564 45.4373 46.1113 45.811 46.2891L46.4946 44.5664C45.5148 44.097 44.5395 43.8623 43.5688 43.8623C42.6163 43.8623 41.7846 44.0719 41.0737 44.4912C40.3673 44.9059 39.825 45.5052 39.4467 46.2891C39.0685 47.0684 38.8793 47.9775 38.8793 49.0166C38.8793 50.6663 39.2644 51.9333 40.0346 52.8174C40.8048 53.6969 41.9168 54.1367 43.3705 54.1367C44.3823 54.1367 45.2983 53.9658 46.1186 53.624V51.8467C45.1205 52.1976 44.2706 52.373 43.5688 52.373C41.8963 52.373 41.06 51.2588 41.06 49.0303C41.06 47.9593 41.2787 47.1253 41.7162 46.5283Z" fill="#1E7AAA"/>
<path d="M13 9H38V14H13V9Z" fill="#BFBFBF"/>
<path d="M13 16H38V19H51V21H13V16Z" fill="#BFBFBF"/>
<path d="M13 23H51V28H13V23Z" fill="#BFBFBF"/>
<path d="M13 30H40V35H13V30Z" fill="#BFBFBF"/>
<path opacity="0.3" d="M37 20V1H38V19H57L58 20H37Z" fill="black"/>
</svg>
