<svg width="64" height="64" viewBox="0 0 64 64" fill="none" xmlns="http://www.w3.org/2000/svg">
<path d="M7 1H38L57 20V63H7V1Z" fill="white"/>
<path fill-rule="evenodd" clip-rule="evenodd" d="M7 63H57V20L38 1H7V63ZM38 0H6V64H58V20L38 0Z" fill="#BFBFBF"/>
<path d="M25.4369 51.8159C24.9664 51.2881 24.7311 50.5147 24.7311 49.4958C24.7311 48.4606 24.9602 47.6873 25.4185 47.1758C25.8768 46.6602 26.4803 46.4024 27.2291 46.4024C27.9779 46.4024 28.5774 46.6561 29.0275 47.1635C29.4817 47.6709 29.7088 48.4402 29.7088 49.4713C29.7088 50.5147 29.4755 51.2983 29.0091 51.822C28.5467 52.3417 27.9534 52.6015 27.2291 52.6015C26.5049 52.6015 25.9075 52.3396 25.4369 51.8159Z" fill="#1E7AAA"/>
<path d="M16.8341 52.4849V46.5252H17.6504C18.391 46.5252 18.8882 46.5538 19.1419 46.6111C19.4815 46.6848 19.7618 46.8259 19.9827 47.0346C20.2037 47.2433 20.3755 47.5338 20.4983 47.9062C20.621 48.2785 20.6824 48.8125 20.6824 49.5081C20.6824 50.2037 20.621 50.7541 20.4983 51.1592C20.3755 51.5602 20.216 51.8486 20.0196 52.0246C19.8272 52.2005 19.5838 52.3253 19.2892 52.399C19.0641 52.4563 18.6979 52.4849 18.1905 52.4849H16.8341Z" fill="#1E7AAA"/>
<path fill-rule="evenodd" clip-rule="evenodd" d="M15 39C13.8954 39 13 39.8955 13 41V57C13 58.1045 13.8954 59 15 59H49C50.1046 59 51 58.1045 51 57V41C51 39.8955 50.1046 39 49 39H15ZM23.2703 47.2494C22.9962 47.8714 22.8591 48.6407 22.8591 49.5572C22.8591 50.9893 23.254 52.1146 24.0437 52.933C24.8334 53.7472 25.8973 54.1544 27.2353 54.1544C28.5569 54.1544 29.6126 53.7452 30.4023 52.9268C31.192 52.1044 31.5869 50.9668 31.5869 49.5143C31.5869 48.0494 31.188 46.9057 30.3901 46.0833C29.5962 45.2608 28.5365 44.8496 27.2107 44.8496C26.4783 44.8496 25.8318 44.9683 25.2712 45.2056C24.8498 45.3815 24.461 45.6516 24.1051 46.0158C23.7532 46.3799 23.4749 46.7912 23.2703 47.2494ZM18.3378 45.0031H15.0173V54.0009H18.436C19.1071 54.0009 19.6431 53.9375 20.0441 53.8106C20.5801 53.6388 21.0057 53.3994 21.3207 53.0925C21.7381 52.6874 22.0593 52.1576 22.2844 51.5029C22.4685 50.9668 22.5606 50.3285 22.5606 49.5879C22.5606 48.745 22.4624 48.0371 22.266 47.4643C22.0695 46.8873 21.7831 46.4004 21.4067 46.0035C21.0302 45.6066 20.5781 45.3304 20.0502 45.1749C19.6574 45.0603 19.0866 45.0031 18.3378 45.0031ZM37.8881 50.6927L39.6496 51.2512C39.3796 52.2333 38.9295 52.9636 38.2993 53.4424C37.6733 53.917 36.8774 54.1544 35.9118 54.1544C34.717 54.1544 33.7349 53.7472 32.9657 52.933C32.1964 52.1146 31.8118 50.9975 31.8118 49.5818C31.8118 48.0842 32.1985 46.9221 32.9718 46.0956C33.7452 45.2649 34.762 44.8496 36.0222 44.8496C37.1229 44.8496 38.017 45.1749 38.7044 45.8255C39.1136 46.2101 39.4205 46.7625 39.6251 47.4827L37.8267 47.9123C37.7203 47.4459 37.4973 47.0776 37.1577 46.8075C36.8222 46.5375 36.413 46.4024 35.9302 46.4024C35.2632 46.4024 34.7211 46.6418 34.3037 47.1206C33.8904 47.5993 33.6838 48.3747 33.6838 49.4467C33.6838 50.5843 33.8884 51.3944 34.2976 51.8773C34.7067 52.3601 35.2387 52.6015 35.8934 52.6015C36.3762 52.6015 36.7915 52.4481 37.1393 52.1412C37.4871 51.8343 37.7367 51.3515 37.8881 50.6927ZM40.3103 45.0031V54.0009H41.9981V46.918L43.7781 54.0009H45.5273L47.3134 46.918V54.0009H49.0013V45.0031H46.2761L44.6619 51.1407L43.0293 45.0031H40.3103Z" fill="#1E7AAA"/>
<path d="M13 9H38V14H13V9Z" fill="#BFBFBF"/>
<path d="M13 16H38V19H51V21H13V16Z" fill="#BFBFBF"/>
<path d="M13 23H51V28H13V23Z" fill="#BFBFBF"/>
<path d="M13 30H51V35H13V30Z" fill="#BFBFBF"/>
<path opacity="0.3" d="M37 20V1H38V19H57L58 20H37Z" fill="black"/>
</svg>
