<svg width="64" height="64" viewBox="0 0 64 64" fill="none" xmlns="http://www.w3.org/2000/svg">
<path d="M7 1H38L57 20V63H7V1Z" fill="white"/>
<path fill-rule="evenodd" clip-rule="evenodd" d="M7 63H57V20L38 1H7V63ZM38 0H6V64H58V20L38 0Z" fill="#BFBFBF"/>
<path d="M16.8184 52.4321V46.2686H17.6626C18.4285 46.2686 18.9427 46.2982 19.2051 46.3574C19.5563 46.4336 19.8462 46.5796 20.0747 46.7954C20.3032 47.0112 20.481 47.3117 20.6079 47.6968C20.7349 48.0819 20.7983 48.6341 20.7983 49.3535C20.7983 50.0729 20.7349 50.6421 20.6079 51.061C20.481 51.4757 20.3159 51.7741 20.1128 51.9561C19.9139 52.138 19.6621 52.2671 19.3574 52.3433C19.1247 52.4025 18.7459 52.4321 18.2212 52.4321H16.8184Z" fill="#1E7AAA"/>
<path d="M25.9755 51.7402C25.4888 51.1943 25.2455 50.3945 25.2455 49.3408C25.2455 48.2702 25.4825 47.4704 25.9565 46.9414C26.4304 46.4082 27.0546 46.1416 27.829 46.1416C28.6034 46.1416 29.2234 46.404 29.6889 46.9287C30.1586 47.4535 30.3935 48.249 30.3935 49.3154C30.3935 50.3945 30.1523 51.2049 29.6698 51.7466C29.1916 52.284 28.578 52.5527 27.829 52.5527C27.08 52.5527 26.4621 52.2819 25.9755 51.7402Z" fill="#1E7AAA"/>
<path fill-rule="evenodd" clip-rule="evenodd" d="M15 39C13.8954 39 13 39.8954 13 41V57C13 58.1046 13.8954 59 15 59H49C50.1046 59 51 58.1046 51 57V41C51 39.8954 50.1046 39 49 39H15ZM18.3735 44.6943H14.9395V54H18.4751C19.1691 54 19.7235 53.9344 20.1382 53.8032C20.6926 53.6255 21.1326 53.3779 21.4585 53.0605C21.8901 52.6416 22.2223 52.0936 22.4551 51.4165C22.6455 50.8622 22.7407 50.202 22.7407 49.436C22.7407 48.5643 22.6392 47.8322 22.436 47.2397C22.2329 46.6431 21.9367 46.1395 21.5474 45.729C21.158 45.3185 20.6904 45.0329 20.1445 44.8721C19.7383 44.7536 19.1479 44.6943 18.3735 44.6943ZM23.7348 47.0176C23.4512 47.6608 23.3095 48.4564 23.3095 49.4043C23.3095 50.8854 23.7178 52.0492 24.5346 52.8955C25.3513 53.7376 26.4516 54.1587 27.8354 54.1587C29.2022 54.1587 30.294 53.7355 31.1107 52.8892C31.9275 52.0386 32.3358 50.8622 32.3358 49.3599C32.3358 47.8449 31.9232 46.6621 31.0981 45.8115C30.2771 44.9609 29.1811 44.5356 27.81 44.5356C27.0525 44.5356 26.3839 44.6584 25.8041 44.9038C25.3682 45.0858 24.9662 45.3651 24.5981 45.7417C24.2341 46.1183 23.9464 46.5436 23.7348 47.0176ZM40.9344 51.1562L39.1126 50.5786C38.956 51.2599 38.6979 51.7593 38.3382 52.0767C37.9785 52.394 37.549 52.5527 37.0496 52.5527C36.3725 52.5527 35.8224 52.3031 35.3992 51.8037C34.976 51.3044 34.7645 50.4665 34.7645 49.29C34.7645 48.1813 34.9782 47.3794 35.4056 46.8843C35.8372 46.3892 36.3979 46.1416 37.0877 46.1416C37.5871 46.1416 38.0102 46.2812 38.3572 46.5605C38.7085 46.8398 38.9391 47.2207 39.0491 47.7031L40.909 47.2588C40.6974 46.514 40.38 45.9427 39.9568 45.5449C39.2459 44.8721 38.3213 44.5356 37.1829 44.5356C35.8795 44.5356 34.8279 44.9652 34.0281 45.8242C33.2283 46.679 32.8284 47.8809 32.8284 49.4297C32.8284 50.8939 33.2262 52.0492 34.0218 52.8955C34.8174 53.7376 35.833 54.1587 37.0686 54.1587C38.0674 54.1587 38.8904 53.9132 39.5379 53.4224C40.1896 52.9272 40.6551 52.1719 40.9344 51.1562ZM44.1374 49.144L40.9572 54H43.2106L45.28 50.7817L47.343 54H49.6091L46.4289 49.2139L49.3234 44.6943H47.1462L45.3181 47.6841L43.4519 44.6943H41.2556L44.1374 49.144Z" fill="#1E7AAA"/>
<path d="M13 9H38V14H13V9Z" fill="#BFBFBF"/>
<path d="M13 16H38V19H51V21H13V16Z" fill="#BFBFBF"/>
<path d="M13 23H51V28H13V23Z" fill="#BFBFBF"/>
<path d="M13 30H40V35H13V30Z" fill="#BFBFBF"/>
<path opacity="0.3" d="M37 20V1H38V19H57L58 20H37Z" fill="black"/>
</svg>
