<svg width="64" height="64" viewBox="0 0 64 64" fill="none" xmlns="http://www.w3.org/2000/svg">
<g id="64X64 / docxf">
<path id="background" d="M7 1H38L57 20V63H7V1Z" fill="white"/>
<path id="shadow" fill-rule="evenodd" clip-rule="evenodd" d="M7 63H57V20L38 1H7V63ZM38 0H6V64H58V20L38 0Z" fill="#BFBFBF"/>
<path id="Rectangle 504" d="M13 9H38V21H13V9Z" fill="#F2F2F2"/>
<rect id="Rectangle 505" x="14" y="24" width="36" height="10" fill="#F2F2F2" stroke="#BFBFBF" stroke-width="2"/>
<path id="Rectangle 504 (Stroke)" fill-rule="evenodd" clip-rule="evenodd" d="M38 11H14.9231V19H38V11ZM13 9V21H51V19H38V9H13Z" fill="#BFBFBF"/>
<path id="ear shadow" opacity="0.3" d="M37 20V1H38V19H57L58 20H37Z" fill="black"/>
<path id="Union" d="M13 41C13 39.8945 13.8955 39 15 39H49C50.1045 39 51 39.8945 51 41V57C51 58.1055 50.1045 59 49 59H15C13.8955 59 13 58.1055 13 57V41Z" fill="#27ABA3"/>
<path id="DOCXF" d="M22.6804 48.9985C22.6804 50.2912 22.3115 51.2812 21.5739 51.9688C20.8399 52.6562 19.7782 53 18.3888 53H16.1652V45.1475H18.6305C19.9124 45.1475 20.9079 45.4858 21.6169 46.1626C22.3259 46.8394 22.6804 47.7847 22.6804 48.9985ZM20.9509 49.0415C20.9509 47.355 20.2061 46.5117 18.7165 46.5117H17.8303V51.625H18.5446C20.1488 51.625 20.9509 50.7638 20.9509 49.0415ZM30.7752 49.063C30.7752 50.3628 30.453 51.3618 29.8084 52.0601C29.1639 52.7583 28.2401 53.1074 27.037 53.1074C25.8338 53.1074 24.91 52.7583 24.2655 52.0601C23.6209 51.3618 23.2987 50.3592 23.2987 49.0522C23.2987 47.7453 23.6209 46.748 24.2655 46.0605C24.9136 45.3695 25.841 45.0239 27.0477 45.0239C28.2544 45.0239 29.1764 45.3713 29.8138 46.0659C30.4548 46.7606 30.7752 47.7596 30.7752 49.063ZM25.0443 49.063C25.0443 49.9403 25.2108 50.6009 25.5438 51.0449C25.8768 51.4889 26.3745 51.7109 27.037 51.7109C28.3654 51.7109 29.0296 50.8283 29.0296 49.063C29.0296 47.2941 28.369 46.4097 27.0477 46.4097C26.3853 46.4097 25.8857 46.6335 25.5492 47.0811C25.2126 47.5251 25.0443 48.1857 25.0443 49.063ZM35.0781 46.4204C34.4515 46.4204 33.9663 46.6567 33.6226 47.1294C33.2788 47.5985 33.1069 48.2537 33.1069 49.0952C33.1069 50.8462 33.764 51.7217 35.0781 51.7217C35.6296 51.7217 36.2974 51.5838 37.0815 51.3081V52.7046C36.437 52.9731 35.7173 53.1074 34.9224 53.1074C33.7801 53.1074 32.9064 52.7619 32.3013 52.0708C31.6961 51.3761 31.3936 50.3807 31.3936 49.0845C31.3936 48.2681 31.5422 47.5537 31.8394 46.9414C32.1366 46.3255 32.5627 45.8547 33.1177 45.5288C33.6763 45.1994 34.3298 45.0347 35.0781 45.0347C35.8408 45.0347 36.6071 45.2191 37.377 45.5879L36.8398 46.9414C36.5462 46.8018 36.2508 46.68 35.9536 46.5762C35.6564 46.4723 35.3646 46.4204 35.0781 46.4204ZM44.446 53H42.5446L40.7184 50.0298L38.8922 53H37.109L39.714 48.9502L37.2755 45.1475H39.1125L40.8044 47.9727L42.464 45.1475H44.258L41.7926 49.0415L44.446 53ZM46.4124 53H44.7742V45.1475H49.2752V46.5117H46.4124V48.5366H49.0765V49.8955H46.4124V53Z" fill="white"/>
</g>
</svg>
