<svg width="64" height="64" viewBox="0 0 64 64" fill="none" xmlns="http://www.w3.org/2000/svg">
<g id="64x64/ Docf">
<g id="Group 110">
<path id="Rectangle 383" d="M6.25 0H32.25H39.8333L58.25 18.5V64H6.25V0Z" fill="white"/>
<path id="Union" fill-rule="evenodd" clip-rule="evenodd" d="M39.8333 0L58.25 18.5V64H6.25V0H39.8333ZM7.25 63V1H39.2541L57.25 19V63H7.25Z" fill="url(#paint0_linear_1467:7570)"/>
<path id="Rectangle 405" d="M11.25 7H39.25V20H53.25V35H11.25V24.9242V23.3239V11.4811V7Z" fill="#F2F2F2"/>
<g id="Frame 160">
<rect x="10.25" y="39" width="43" height="19" rx="2" fill="#007267"/>
<g id="DOCXF">
<path d="M21.3338 48.4252C21.3338 49.8645 20.9328 50.9668 20.1308 51.7322C19.3327 52.4977 18.1783 53 16.6677 53H14.25V44H16.9305C18.3243 44 19.4066 44.5143 20.1775 45.2678C20.9484 46.0213 21.3338 47.0738 21.3338 48.4252ZM19.4534 48.4731C19.4534 46.5953 18.6436 45.6565 17.024 45.6565H16.0604V51.3495H16.8371C18.5813 51.3495 19.4534 50.3907 19.4534 48.4731Z" fill="white"/>
<path d="M30.1353 48.497C30.1353 49.9442 29.7849 51.0565 29.0841 51.8339C28.3833 52.6113 27.3788 53 26.0707 53C24.7625 53 23.7581 52.6113 23.0573 51.8339C22.3565 51.0565 22.0061 49.9402 22.0061 48.485C22.0061 47.0299 22.3565 45.9196 23.0573 45.1542C23.762 44.3847 24.7703 44 26.0824 44C27.3944 44 28.3969 44.3867 29.0899 45.1601C29.7868 45.9336 30.1353 47.0458 30.1353 48.497ZM23.9041 48.497C23.9041 49.4738 24.0851 50.2093 24.4472 50.7037C24.8093 51.198 25.3504 51.4452 26.0707 51.4452C27.5151 51.4452 28.2373 50.4625 28.2373 48.497C28.2373 46.5276 27.519 45.5429 26.0824 45.5429C25.3621 45.5429 24.819 45.792 24.453 46.2904C24.0871 46.7847 23.9041 47.5203 23.9041 48.497Z" fill="white"/>
<path d="M34.8137 45.5548C34.1324 45.5548 33.6049 45.8179 33.2311 46.3442C32.8574 46.8664 32.6705 47.596 32.6705 48.5329C32.6705 50.4824 33.3849 51.4571 34.8137 51.4571C35.4133 51.4571 36.1394 51.3037 36.992 50.9967V52.5515C36.2912 52.8505 35.5087 53 34.6444 53C33.4024 53 32.4524 52.6153 31.7945 51.8458C31.1365 51.0724 30.8075 49.9641 30.8075 48.5209C30.8075 47.612 30.9691 46.8166 31.2923 46.1349C31.6154 45.4492 32.0787 44.9249 32.6822 44.5621C33.2895 44.1953 34 44.012 34.8137 44.012C35.643 44.012 36.4761 44.2173 37.3132 44.6279L36.7292 46.1349C36.41 45.9794 36.0888 45.8439 35.7656 45.7282C35.4425 45.6126 35.1252 45.5548 34.8137 45.5548Z" fill="white"/>
<path d="M44.9992 52.8804H42.9319L40.9463 49.5734L38.9608 52.8804H37.0219L39.8543 48.3714L37.2029 44.1375H39.2002L41.0398 47.2831L42.8443 44.1375H44.7948L42.1143 48.4731L44.9992 52.8804Z" fill="white"/>
<path d="M46.9431 53H45.25V44H50.25V45.6565H46.9431V47.911H50.0339V49.4239H46.9431V53Z" fill="white"/>
</g>
</g>
<g id="Group 78">
<path id="Rectangle 287 (Stroke)" fill-rule="evenodd" clip-rule="evenodd" d="M53.25 35L10.25 34.9951L11.25 34H52.25V20H38.25V8H11.25L11.2373 20.0007L10.2373 21.0064L10.25 7H39.25V19H53.25V35Z" fill="#BFBFBF"/>
</g>
<path id="Union_2" fill-rule="evenodd" clip-rule="evenodd" d="M38.2539 0L38.2539 19.999H58.25V19H39.25V0H38.2539Z" fill="black" fill-opacity="0.35"/>
<g id="Group 40456">
<path id="Union_3" d="M22.8078 16.4429C23.5889 15.6619 24.8552 15.6619 25.6363 16.4429L28.4647 19.2713C29.2457 20.0524 29.2457 21.3187 28.4647 22.0998L17.1513 33.4131L10.5625 34.3086L11.4945 27.7563L22.8078 16.4429Z" fill="#A6A6A6"/>
<path id="Line 32 (Stroke)" fill-rule="evenodd" clip-rule="evenodd" d="M22.8078 22.0998L19.0365 25.871C17.9951 26.9124 16.5177 27.1234 15.7367 26.3424L21.3936 20.6855L22.8078 22.0998Z" fill="white"/>
<path id="Line 33 (Stroke)" fill-rule="evenodd" clip-rule="evenodd" d="M25.6362 24.9285L19.9793 19.2716L21.3936 17.8574L27.0504 23.5143L25.6362 24.9285Z" fill="white"/>
</g>
</g>
</g>
<defs>
<linearGradient id="paint0_linear_1467:7570" x1="32.25" y1="-1" x2="32.25" y2="64" gradientUnits="userSpaceOnUse">
<stop stop-color="#DADADA"/>
<stop offset="1" stop-color="#828282"/>
</linearGradient>
</defs>
</svg>
