<svg width="64" height="64" viewBox="0 0 64 64" fill="none" xmlns="http://www.w3.org/2000/svg">
<g id="64X64 / dotx">
<path id="background" d="M7 1H38L57 20V63H7V1Z" fill="white"/>
<path id="shadow" fill-rule="evenodd" clip-rule="evenodd" d="M7 63H57V20L38 1H7V63ZM38 0H6V64H58V20L38 0Z" fill="#BFBFBF"/>
<g id="logo">
<path d="M13 9H38V14H13V9Z" fill="#BFBFBF"/>
<path d="M13 16H38V19H51V21H13V16Z" fill="#BFBFBF"/>
<path d="M13 23H51V28H13V23Z" fill="#BFBFBF"/>
<path d="M13 30H51V35H13V30Z" fill="#BFBFBF"/>
</g>
<path id="ear shadow" opacity="0.3" d="M37 20V1H38V19H57L58 20H37Z" fill="black"/>
<g id="Subtract">
<path d="M27.0543 51.8139C26.5837 51.2861 26.3485 50.5127 26.3485 49.4939C26.3485 48.4587 26.5776 47.6853 27.0359 47.1738C27.4942 46.6583 28.0977 46.4005 28.8465 46.4005C29.5953 46.4005 30.1948 46.6542 30.6448 47.1616C31.099 47.6689 31.3261 48.4382 31.3261 49.4693C31.3261 50.5127 31.0929 51.2963 30.6264 51.8201C30.1641 52.3397 29.5708 52.5996 28.8465 52.5996C28.1223 52.5996 27.5249 52.3377 27.0543 51.8139Z" fill="#1E7AAA"/>
<path d="M18.2001 52.4829V46.5232H19.0164C19.757 46.5232 20.2541 46.5519 20.5078 46.6092C20.8475 46.6828 21.1277 46.824 21.3487 47.0327C21.5697 47.2414 21.7415 47.5319 21.8643 47.9042C21.987 48.2766 22.0484 48.8106 22.0484 49.5062C22.0484 50.2018 21.987 50.7521 21.8643 51.1572C21.7415 51.5582 21.5819 51.8467 21.3855 52.0226C21.1932 52.1986 20.9497 52.3234 20.6551 52.397C20.4301 52.4543 20.0639 52.4829 19.5565 52.4829H18.2001Z" fill="#1E7AAA"/>
<path fill-rule="evenodd" clip-rule="evenodd" d="M15 39C13.8954 39 13 39.8955 13 41V57C13 58.1045 13.8954 59 15 59H49C50.1046 59 51 58.1045 51 57V41C51 39.8955 50.1046 39 49 39H15ZM24.8877 47.2475C24.6135 47.8694 24.4765 48.6387 24.4765 49.5553C24.4765 50.9874 24.8713 52.1126 25.661 52.931C26.4508 53.7453 27.5146 54.1524 28.8526 54.1524C30.1743 54.1524 31.23 53.7432 32.0197 52.9249C32.8094 52.1024 33.2043 50.9649 33.2043 49.5123C33.2043 48.0474 32.8053 46.9038 32.0074 46.0813C31.2136 45.2589 30.1538 44.8477 28.8281 44.8477C28.0957 44.8477 27.4492 44.9663 26.8886 45.2036C26.4671 45.3796 26.0784 45.6496 25.7224 46.0138C25.3705 46.378 25.0923 46.7892 24.8877 47.2475ZM19.7038 45.0011H16.3833V53.999H19.802C20.4731 53.999 21.0091 53.9355 21.4101 53.8087C21.9461 53.6368 22.3716 53.3975 22.6867 53.0906C23.1041 52.6855 23.4253 52.1556 23.6503 51.5009C23.8345 50.9649 23.9265 50.3266 23.9265 49.586C23.9265 48.743 23.8283 48.0352 23.6319 47.4623C23.4355 46.8854 23.1491 46.3984 22.7726 46.0015C22.3962 45.6046 21.9441 45.3284 21.4162 45.173C21.0234 45.0584 20.4526 45.0011 19.7038 45.0011ZM36.0252 53.999V46.5232H33.3553V45.0011H42.5532L44.3577 47.892L46.1253 45.0011H48.2306L45.4318 49.3711L48.5068 53.999H46.3156L44.3209 50.8871L42.32 53.999H40.1411L43.2161 49.3036L40.5057 45.1186V46.5232H37.8419V53.999H36.0252Z" fill="#1E7AAA"/>
</g>
</g>
</svg>
