<svg width="64" height="64" viewBox="0 0 64 64" fill="none" xmlns="http://www.w3.org/2000/svg">
<path d="M7 1H38L57 20V63H7V1Z" fill="white"/>
<path fill-rule="evenodd" clip-rule="evenodd" d="M7 63H57V20L38 1H7V63ZM38 0H6V64H58V20L38 0Z" fill="#BFBFBF"/>
<path fill-rule="evenodd" clip-rule="evenodd" d="M15 39C13.8954 39 13 39.8954 13 41V57C13 58.1046 13.8954 59 15 59H49C50.1046 59 51 58.1046 51 57V41C51 39.8954 50.1046 39 49 39H15ZM19.2853 54H21.3702V50.0488H24.7609V48.3193H21.3702V45.7422H25.0138V44.0059H19.2853V54ZM28.0889 44.0059V54H34.2617V52.25H30.208V44.0059H28.0889ZM44.9657 44.0059H42.8261L40.9325 49.9531C40.6408 51.0013 40.4699 51.735 40.4198 52.1543C40.3925 51.972 40.3218 51.6484 40.2079 51.1836C40.0985 50.7142 39.9914 50.304 39.8866 49.9531L38.0067 44.0059H35.8671L39.2577 54H41.5682L44.9657 44.0059Z" fill="#C83F28"/>
<path fill-rule="evenodd" clip-rule="evenodd" d="M13 9H15V11H17V9H19V13H38V15H19V29H45V19H51V35H49V33H47V35H45V31H19V35H17V33H15V35H13V9ZM15 31H17V29H15V31ZM15 27H17V25H15V27ZM15 23H17V21H15V23ZM15 19H17V17H15V19ZM15 15H17V13H15V15ZM47 31H49V29H47V31ZM47 27H49V25H47V27ZM47 23H49V21H47V23Z" fill="#BFBFBF"/>
<path opacity="0.3" d="M37 20V1H38V19H57L58 20H37Z" fill="black"/>
</svg>
