<svg width="64" height="64" viewBox="0 0 64 64" fill="none" xmlns="http://www.w3.org/2000/svg">
<path d="M7 1H38L57 20V63H7V1Z" fill="white"/>
<path fill-rule="evenodd" clip-rule="evenodd" d="M7 63H57V20L38 1H7V63ZM38 0H6V64H58V20L38 0Z" fill="url(#paint0_linear)"/>
<path d="M25.7996 51.7402C25.313 51.1943 25.0696 50.3945 25.0696 49.3408C25.0696 48.2702 25.3066 47.4704 25.7806 46.9414C26.2545 46.4082 26.8787 46.1416 27.6531 46.1416C28.4275 46.1416 29.0475 46.404 29.513 46.9287C29.9827 47.4534 30.2176 48.249 30.2176 49.3154C30.2176 50.3945 29.9764 51.2049 29.4939 51.7466C29.0158 52.284 28.4021 52.5527 27.6531 52.5527C26.9041 52.5527 26.2863 52.2819 25.7996 51.7402Z" fill="#128DC0"/>
<path d="M34.8552 52.4321V46.2686H35.6994C36.4654 46.2686 36.9795 46.2982 37.2419 46.3574C37.5931 46.4336 37.883 46.5796 38.1115 46.7954C38.34 47.0112 38.5178 47.3117 38.6447 47.6968C38.7717 48.0819 38.8352 48.6341 38.8352 49.3535C38.8352 50.0729 38.7717 50.6421 38.6447 51.061C38.5178 51.4757 38.3527 51.7741 38.1496 51.9561C37.9507 52.138 37.6989 52.2671 37.3942 52.3433C37.1615 52.4025 36.7827 52.4321 36.258 52.4321H34.8552Z" fill="#128DC0"/>
<path fill-rule="evenodd" clip-rule="evenodd" d="M15 39C13.8954 39 13 39.8954 13 41V57C13 58.1046 13.8954 59 15 59H49C50.1046 59 51 58.1046 51 57V41C51 39.8954 50.1046 39 49 39H15ZM16.2299 44.6943V54H18.1088V50.0454H21.9936V48.4712H18.1088V46.2686H22.6093V44.6943H16.2299ZM23.5589 47.0176C23.2754 47.6608 23.1336 48.4564 23.1336 49.4043C23.1336 50.8854 23.542 52.0492 24.3587 52.8955C25.1754 53.7376 26.2757 54.1587 27.6595 54.1587C29.0263 54.1587 30.1181 53.7355 30.9349 52.8892C31.7516 52.0386 32.16 50.8621 32.16 49.3599C32.16 47.8449 31.7474 46.6621 30.9222 45.8115C30.1012 44.9609 29.0052 44.5356 27.6341 44.5356C26.8766 44.5356 26.208 44.6584 25.6282 44.9038C25.1924 45.0858 24.7903 45.3651 24.4222 45.7417C24.0582 46.1183 23.7705 46.5436 23.5589 47.0176ZM36.4104 44.6943H32.9763V54H36.5119C37.2059 54 37.7603 53.9344 38.175 53.8032C38.7294 53.6255 39.1695 53.3779 39.4953 53.0605C39.927 52.6416 40.2591 52.0936 40.4919 51.4165C40.6823 50.8621 40.7775 50.202 40.7775 49.436C40.7775 48.5643 40.676 47.8322 40.4729 47.2397C40.2697 46.6431 39.9735 46.1395 39.5842 45.729C39.1949 45.3185 38.7272 45.0329 38.1814 44.8721C37.7751 44.7536 37.1848 44.6943 36.4104 44.6943ZM43.8219 46.2686V54H45.7008V46.2686H48.4557V44.6943H41.0606V46.2686H43.8219Z" fill="#128DC0"/>
<path d="M13 9H38V14H13V9Z" fill="#BFBFBF"/>
<path d="M13 16H38V19H51V21H13V16Z" fill="#BFBFBF"/>
<path d="M13 23H51V28H13V23Z" fill="#BFBFBF"/>
<path d="M13 30H51V35H13V30Z" fill="#BFBFBF"/>
<path opacity="0.3" d="M37 20V1H38V19H57L58 20H37Z" fill="black"/>
<defs>
<linearGradient id="paint0_linear" x1="32" y1="62.8333" x2="32" y2="8.08663e-07" gradientUnits="userSpaceOnUse">
<stop stop-color="#A8A8A8"/>
<stop offset="1" stop-color="#DADADA"/>
</linearGradient>
</defs>
</svg>
