<svg width="64" height="64" viewBox="0 0 64 64" fill="none" xmlns="http://www.w3.org/2000/svg">
<path d="M7 1H38L57 20V63H7V1Z" fill="white"/>
<path fill-rule="evenodd" clip-rule="evenodd" d="M7 63H57V20L38 1H7V63ZM38 0H6V64H58V20L38 0Z" fill="#BFBFBF"/>
<path fill-rule="evenodd" clip-rule="evenodd" d="M15 39C13.8954 39 13 39.8954 13 41V57C13 58.1046 13.8954 59 15 59H49C50.1046 59 51 58.1046 51 57V41C51 39.8954 50.1046 39 49 39H15ZM21.0771 53.9941H23.1895V44H21.0771V47.917H17.1191V44H15V53.9941H17.1191V49.6807H21.0771V53.9941ZM26.3809 53.9941H28.5V45.7637H31.2139V44H23.667V45.7637H26.3809V53.9941ZM36.0469 53.9941L33.6406 46.1533H33.5791C33.6657 47.7484 33.709 48.8125 33.709 49.3457V53.9941H31.8154V44H34.7002L37.0654 51.6426H37.1064L39.6152 44H42.5V53.9941H40.5244V49.2637C40.5244 49.0404 40.5267 48.7829 40.5312 48.4912C40.5404 48.1995 40.5723 47.4248 40.627 46.167H40.5654L37.9883 53.9941H36.0469ZM43.7843 44V53.9941H50.0234L50 52.2441H45.9035V44H43.7843Z" fill="#5E93A2"/>
<path fill-rule="evenodd" clip-rule="evenodd" d="M24 33H27L19 25L27 17H24L16 25L24 33ZM43 19L40 19L46 25L38 33L41 33L49 25L43 19ZM30 24H28V26H30V24ZM36 24H34V26H36V24Z" fill="#BFBFBF"/>
<path opacity="0.3" d="M37 20V1H38V19H57L58 20H37Z" fill="black"/>
</svg>
