<svg width="64" height="64" viewBox="0 0 64 64" fill="none" xmlns="http://www.w3.org/2000/svg">
<path d="M7 1H38L57 20V63H7V1Z" fill="white"/>
<path fill-rule="evenodd" clip-rule="evenodd" d="M7 63H57V20L38 1H7V63ZM38 0H6V64H58V20L38 0Z" fill="#BFBFBF"/>
<path d="M31.1533 46.1865C31.2399 46.4691 31.6182 47.6882 32.2881 49.8438H29.6836C30.3945 47.5423 30.8252 46.0999 30.9756 45.5166C31.012 45.6807 31.0713 45.904 31.1533 46.1865Z" fill="#EEC33F"/>
<path fill-rule="evenodd" clip-rule="evenodd" d="M15 39C13.8954 39 13 39.8954 13 41V57C13 58.1046 13.8954 59 15 59H49C50.1046 59 51 58.1046 51 57V41C51 39.8954 50.1046 39 49 39H15ZM21.6456 44.0059V54H23.7648V44.0059H21.6456ZM32.7939 51.6211L33.5186 54H35.8018L32.2607 43.9648H29.6699L26.1426 54H28.4258L29.1504 51.6211H32.7939ZM38.1864 54H40.2714V50.0488H43.662V48.3193H40.2714V45.7422H43.9149V44.0059H38.1864V54Z" fill="#EEC33F"/>
<path fill-rule="evenodd" clip-rule="evenodd" d="M38 10H13V35H51V19H49V31.5741L39.2382 21.7453L42.3757 19H39.3386L33.6243 24H30.3757L16.6614 12H38V10ZM37.7301 23.065L47.5974 33H16.4026L26.2699 23.065L29.6243 26H34.3757L37.7301 23.065ZM15 13.2038L24.7618 21.7453L15 31.5741V13.2038Z" fill="#BFBFBF"/>
<path opacity="0.3" d="M37 20V1H38V19H57L58 20H37Z" fill="black"/>
</svg>
