<svg width="64" height="64" viewBox="0 0 64 64" fill="none" xmlns="http://www.w3.org/2000/svg">
<g id="64x64 / ics">
<g id="background_64x64">
<path id="background_64x64_2" d="M38.5858 4L54 19.4142V60H10V4H38.5858Z" fill="white"/>
</g>
<g id="shadow_64x64">
<path id="shadow_64x64_2" fill-rule="evenodd" clip-rule="evenodd" d="M39.4142 2H8V62H56V18.5858L39.4142 2ZM54 60V19.4142L38.5858 4H10V60H54Z" fill="url(#paint0_linear)"/>
<path id="corner_64x64" opacity="0.25" d="M38 4H36V22H54V20H38V4Z" fill="black"/>
</g>
<g id="Union">
<path d="M20 12H24V16H38V18H24V22H20V18H16V40H14V16H20V12Z" fill="#BFBFBF"/>
<path d="M48 20V40H50V20H48Z" fill="#BFBFBF"/>
<path d="M28 24H26V26H24V28H26V38H28V24Z" fill="#BFBFBF"/>
<path d="M32 24H40V28H38V26H32V24Z" fill="#BFBFBF"/>
<path d="M36 28H38V32H36V28Z" fill="#BFBFBF"/>
<path d="M36 32V38H34V32H36Z" fill="#BFBFBF"/>
</g>
<g id="Group 2">
<rect id="Rectangle 62" x="14" y="38" width="36" height="18" rx="2" fill="#DD4A4A"/>
<path id="ICS" d="M20.5813 52V41.9785H22.6047V52H20.5813ZM31.6514 48.3154L33.6133 48.9375C33.3125 50.0312 32.8112 50.8447 32.1094 51.3779C31.4121 51.9066 30.5257 52.1709 29.4502 52.1709C28.1195 52.1709 27.0257 51.7174 26.1689 50.8105C25.3122 49.8991 24.8838 48.6549 24.8838 47.0781C24.8838 45.4102 25.3145 44.1159 26.1758 43.1953C27.0371 42.2702 28.1696 41.8076 29.5732 41.8076C30.7992 41.8076 31.7949 42.1699 32.5605 42.8945C33.0163 43.3229 33.3581 43.9382 33.5859 44.7402L31.583 45.2188C31.4645 44.6992 31.2161 44.2891 30.8379 43.9883C30.4642 43.6875 30.0085 43.5371 29.4707 43.5371C28.7279 43.5371 28.124 43.8037 27.6592 44.3369C27.1989 44.8701 26.9688 45.7337 26.9688 46.9277C26.9688 48.1947 27.1966 49.097 27.6523 49.6348C28.1081 50.1725 28.7005 50.4414 29.4297 50.4414C29.9674 50.4414 30.43 50.2705 30.8174 49.9287C31.2048 49.5869 31.4827 49.0492 31.6514 48.3154ZM35.5438 48.7393L37.5125 48.5479C37.631 49.2087 37.8702 49.694 38.2303 50.0039C38.5949 50.3138 39.0848 50.4688 39.7 50.4688C40.3517 50.4688 40.8416 50.332 41.1697 50.0586C41.5024 49.7806 41.6688 49.457 41.6688 49.0879C41.6688 48.8509 41.5981 48.6504 41.4568 48.4863C41.3201 48.3177 41.0786 48.1719 40.7322 48.0488C40.4952 47.9668 39.9552 47.821 39.1121 47.6113C38.0275 47.3424 37.2664 47.012 36.8289 46.6201C36.2137 46.0687 35.9061 45.3965 35.9061 44.6035C35.9061 44.0931 36.0496 43.6169 36.3367 43.1748C36.6284 42.7282 37.0454 42.3887 37.5877 42.1562C38.1346 41.9238 38.7931 41.8076 39.5633 41.8076C40.8211 41.8076 41.7667 42.0833 42.4002 42.6348C43.0382 43.1862 43.3732 43.9222 43.4051 44.8428L41.3816 44.9316C41.2951 44.4167 41.1082 44.0475 40.8211 43.8242C40.5385 43.5964 40.1124 43.4824 39.5428 43.4824C38.9549 43.4824 38.4946 43.6032 38.1619 43.8447C37.9477 43.9997 37.8406 44.207 37.8406 44.4668C37.8406 44.7038 37.9409 44.9066 38.1414 45.0752C38.3966 45.2894 39.0164 45.5127 40.0008 45.7451C40.9852 45.9775 41.712 46.2191 42.1814 46.4697C42.6554 46.7158 43.0245 47.0553 43.2889 47.4883C43.5577 47.9167 43.6922 48.4476 43.6922 49.0811C43.6922 49.6553 43.5327 50.193 43.2137 50.6943C42.8947 51.1956 42.4435 51.5693 41.8602 51.8154C41.2768 52.057 40.5499 52.1777 39.6795 52.1777C38.4126 52.1777 37.4396 51.8861 36.7605 51.3027C36.0815 50.7148 35.6759 49.8604 35.5438 48.7393Z" fill="white"/>
</g>
</g>
<defs>
<linearGradient id="paint0_linear" x1="29" y1="2" x2="29" y2="62" gradientUnits="userSpaceOnUse">
<stop stop-color="#DCDCDC"/>
<stop offset="1" stop-color="#ADADAD"/>
</linearGradient>
</defs>
</svg>
