<svg width="64" height="64" viewBox="0 0 64 64" fill="none" xmlns="http://www.w3.org/2000/svg">
<path d="M7 1H38L57 20V63H7V1Z" fill="white"/>
<path fill-rule="evenodd" clip-rule="evenodd" d="M7 63H57V20L38 1H7V63ZM38 0H6V64H58V20L38 0Z" fill="#BFBFBF"/>
<path fill-rule="evenodd" clip-rule="evenodd" d="M15 39C13.8954 39 13 39.8954 13 41V57C13 58.1046 13.8954 59 15 59H49C50.1046 59 51 58.1046 51 57V41C51 39.8954 50.1046 39 49 39H15ZM45.2822 49.3877H41.3174V51.1514H43.2109V53.2363C42.7552 53.3275 42.3063 53.373 41.8643 53.373C41.0166 53.373 40.3695 53.0882 39.9229 52.5186C39.4808 51.9443 39.2598 51.1149 39.2598 50.0303C39.2598 48.9912 39.5355 48.1641 40.0869 47.5488C40.6383 46.9336 41.3721 46.626 42.2881 46.626C43.0765 46.626 43.8353 46.8083 44.5645 47.1729L45.2686 45.4775C44.3161 45.0674 43.3271 44.8623 42.3018 44.8623C40.6657 44.8623 39.3851 45.3135 38.46 46.2158C37.5394 47.1182 37.0791 48.376 37.0791 49.9893C37.0791 51.6481 37.4756 52.9219 38.2686 53.8105C39.0661 54.6947 40.2191 55.1367 41.7275 55.1367C42.32 55.1367 42.8988 55.0934 43.4639 55.0068C44.0335 54.9248 44.6396 54.779 45.2822 54.5693V49.3877ZM19 55V45.0059H21.1191V55H19ZM28.5469 55L26.1406 47.1592H26.0791C26.1657 48.7542 26.209 49.8184 26.209 50.3516V55H24.3154V45.0059H27.2002L29.5654 52.6484H29.6064L32.1152 45.0059H35V55H33.0244V50.2695C33.0244 50.0462 33.0267 49.7887 33.0312 49.4971C33.0404 49.2054 33.0723 48.4307 33.127 47.1729H33.0654L30.4883 55H28.5469Z" fill="#A671D8"/>
<path d="M38 7H13V35H51V19H49V33H15V9H38V7Z" fill="#BFBFBF"/>
<path fill-rule="evenodd" clip-rule="evenodd" d="M38 11H17V31H21L36 15L38 17.9091V11ZM27 16C27 17.6567 25.6569 19 24 19C22.3431 19 21 17.6567 21 16C21 14.3433 22.3431 13 24 13C25.6569 13 27 14.3433 27 16Z" fill="#BFBFBF"/>
<path d="M38.75 19L47 31V19H38.75Z" fill="#BFBFBF"/>
<path opacity="0.3" d="M37 20V1H38V19H57L58 20H37Z" fill="black"/>
</svg>
