<svg width="64" height="64" viewBox="0 0 64 64" fill="none" xmlns="http://www.w3.org/2000/svg">
<path d="M7 1H38L57 20V63H7V1Z" fill="white"/>
<path fill-rule="evenodd" clip-rule="evenodd" d="M7 63H57V20L38 1H7V63ZM38 0H6V64H58V20L38 0Z" fill="#BFBFBF"/>
<path fill-rule="evenodd" clip-rule="evenodd" d="M15 39C13.8954 39 13 39.8954 13 41V57C13 58.1046 13.8954 59 15 59H49C50.1046 59 51 58.1046 51 57V41C51 39.8954 50.1046 39 49 39H15ZM27.1332 54H34.1195V52.2227H29.765V52.127L31.0502 50.917C31.907 50.1331 32.504 49.5293 32.8412 49.1055C33.183 48.6816 33.4337 48.2692 33.5932 47.8682C33.7572 47.4626 33.8393 47.0296 33.8393 46.5693C33.8393 46.0407 33.7071 45.5713 33.4428 45.1611C33.1785 44.751 32.807 44.432 32.3285 44.2041C31.85 43.9762 31.2986 43.8623 30.6742 43.8623C30.2003 43.8623 29.7719 43.9102 29.3891 44.0059C29.0063 44.097 28.6531 44.2292 28.3295 44.4023C28.0059 44.5755 27.598 44.8717 27.1059 45.291L28.2543 46.6514C28.6508 46.3232 29.0313 46.0703 29.3959 45.8926C29.7605 45.7148 30.1365 45.626 30.5238 45.626C30.893 45.626 31.1869 45.724 31.4057 45.9199C31.629 46.1159 31.7406 46.4144 31.7406 46.8154C31.7406 47.0843 31.6905 47.3441 31.5902 47.5947C31.49 47.8454 31.3259 48.1188 31.098 48.415C30.8702 48.7067 30.3848 49.2331 29.642 49.9941L27.1332 52.5303V54ZM16.8252 46.1592L19.2314 54H21.1729L23.75 46.1729H23.8115C23.7568 47.4307 23.7249 48.2054 23.7158 48.4971C23.7113 48.7887 23.709 49.0462 23.709 49.2695V54H25.6846V44.0059H22.7998L20.291 51.6484H20.25L17.8848 44.0059H15V54H16.8936V49.3516C16.8936 48.8184 16.8503 47.7542 16.7637 46.1592H16.8252ZM39.5 54H37.3809V45.7695H34.667V44.0059H42.2139V45.7695H39.5V54ZM48.0371 53.3574C48.6888 52.8379 49.0146 52.127 49.0146 51.2246C49.0146 50.5729 48.8415 50.0238 48.4951 49.5771C48.1488 49.126 47.5085 48.6771 46.5742 48.2305C45.8678 47.8932 45.4189 47.6608 45.2275 47.5332C45.0407 47.401 44.904 47.2666 44.8174 47.1299C44.7308 46.9886 44.6875 46.8245 44.6875 46.6377C44.6875 46.3369 44.7946 46.0931 45.0088 45.9062C45.223 45.7194 45.5306 45.626 45.9316 45.626C46.2689 45.626 46.6107 45.6693 46.957 45.7559C47.3079 45.8424 47.75 45.9951 48.2832 46.2139L48.9668 44.5664C48.4518 44.3431 47.9574 44.1699 47.4834 44.0469C47.014 43.9238 46.5195 43.8623 46 43.8623C44.9427 43.8623 44.1133 44.1152 43.5117 44.6211C42.9147 45.127 42.6162 45.8219 42.6162 46.7061C42.6162 47.1755 42.7074 47.5856 42.8896 47.9365C43.0719 48.2874 43.3158 48.5951 43.6211 48.8594C43.9264 49.1237 44.3844 49.3994 44.9951 49.6865C45.6468 49.9964 46.0775 50.222 46.2871 50.3633C46.5013 50.5046 46.6631 50.6527 46.7725 50.8076C46.8818 50.958 46.9365 51.1312 46.9365 51.3271C46.9365 51.6781 46.8112 51.9424 46.5605 52.1201C46.3145 52.2979 45.959 52.3867 45.4941 52.3867C45.1068 52.3867 44.6784 52.3252 44.209 52.2021C43.7441 52.0791 43.1745 51.8672 42.5 51.5664V53.5352C43.3203 53.9362 44.2637 54.1367 45.3301 54.1367C46.4876 54.1367 47.39 53.877 48.0371 53.3574Z" fill="#3C5D8D"/>
<path fill-rule="evenodd" clip-rule="evenodd" d="M32 35C39.732 35 46 28.7319 46 21C46 20.321 45.9517 19.6532 45.8582 19H42H38V15.7324C37.4022 15.3866 37 14.7402 37 14C37 13.2598 37.4022 12.6134 38 12.2676V8.34727C36.1815 7.48339 34.1472 7 32 7C24.268 7 18 13.2681 18 21C18 28.7319 24.268 35 32 35ZM42 19C43.1046 19 44 19.8955 44 21C44 22.1045 43.1046 23 42 23C40.8954 23 40 22.1045 40 21C40 19.8955 40.8954 19 42 19ZM32 33C33.1046 33 34 32.1045 34 31C34 29.8955 33.1046 29 32 29C30.8954 29 30 29.8955 30 31C30 32.1045 30.8954 33 32 33ZM34 11C34 12.1045 33.1046 13 32 13C30.8954 13 30 12.1045 30 11C30 9.89551 30.8954 9 32 9C33.1046 9 34 9.89551 34 11ZM24 21C24 22.1045 23.1046 23 22 23C20.8954 23 20 22.1045 20 21C20 19.8955 20.8954 19 22 19C23.1046 19 24 19.8955 24 21ZM25 16C26.1046 16 27 15.1045 27 14C27 12.8955 26.1046 12 25 12C23.8954 12 23 12.8955 23 14C23 15.1045 23.8954 16 25 16ZM38 29C39.1046 29 40 28.1045 40 27C40 25.8955 39.1046 25 38 25C36.8954 25 36 25.8955 36 27C36 28.1045 36.8954 29 38 29ZM27 27C27 28.1045 26.1046 29 25 29C23.8954 29 23 28.1045 23 27C23 25.8955 23.8954 25 25 25C26.1046 25 27 25.8955 27 27Z" fill="#BFBFBF"/>
<path opacity="0.3" d="M37 20V1H38V19H57L58 20H37Z" fill="black"/>
</svg>
