<svg width="63" height="64" viewBox="0 0 63 64" fill="none" xmlns="http://www.w3.org/2000/svg">
<path d="M7 1H38L57 20V63H7V1Z" fill="white"/>
<path fill-rule="evenodd" clip-rule="evenodd" d="M7 63H57V20L38 1H7V63ZM38 0H6V64H58V20L38 0Z" fill="#BFBFBF"/>
<path fill-rule="evenodd" clip-rule="evenodd" d="M15 39C13.8954 39 13 39.8954 13 41V57C13 58.1046 13.8954 59 15 59H49C50.1046 59 51 58.1046 51 57V41C51 39.8954 50.1046 39 49 39H15ZM39 44H47V46H44V54H42V46H39V44ZM36 44H38V54H36V50H32V54H30V44H32V48H36V44ZM21.077 44H18V54H20V47.6637L21.7217 54H24.2909L26 47.7102V54H28V44H24.9357L23.0063 51.1005L21.077 44Z" fill="#5E93A2"/>
<path fill-rule="evenodd" clip-rule="evenodd" d="M24 33H27L19 25L27 17H24L16 25L24 33ZM43 19L40 19L46 25L38 33L41 33L49 25L43 19ZM30 24H28V26H30V24ZM36 24H34V26H36V24Z" fill="#BFBFBF"/>
<path opacity="0.3" d="M37 20V1H38V19H57L58 20H37Z" fill="black"/>
</svg>
