<svg width="64" height="64" viewBox="0 0 64 64" fill="none" xmlns="http://www.w3.org/2000/svg">
<path d="M7 1H38L57 20V63H7V1Z" fill="white"/>
<path fill-rule="evenodd" clip-rule="evenodd" d="M7 63H57V20L38 1H7V63ZM38 0H6V64H58V20L38 0Z" fill="#BFBFBF"/>
<path d="M31.5146 48.9893C31.5146 50.1058 31.7266 50.9466 32.1504 51.5117C32.5742 52.0768 33.2077 52.3594 34.0508 52.3594C35.7415 52.3594 36.5869 51.236 36.5869 48.9893C36.5869 46.738 35.7461 45.6123 34.0645 45.6123C33.2214 45.6123 32.5856 45.8971 32.1572 46.4668C31.7288 47.0319 31.5146 47.8727 31.5146 48.9893Z" fill="#0087CD"/>
<path fill-rule="evenodd" clip-rule="evenodd" d="M15 39C13.8954 39 13 39.8954 13 41V57C13 58.1046 13.8954 59 15 59H49C50.1046 59 51 58.1046 51 57V41C51 39.8954 50.1046 39 49 39H15ZM38.8086 48.9893C38.8086 50.6436 38.3984 51.915 37.5781 52.8037C36.7578 53.6924 35.582 54.1367 34.0508 54.1367C32.5195 54.1367 31.3438 53.6924 30.5234 52.8037C29.7031 51.915 29.293 50.639 29.293 48.9756C29.293 47.3122 29.7031 46.043 30.5234 45.168C31.3483 44.2884 32.5286 43.8486 34.0645 43.8486C35.6003 43.8486 36.7738 44.2907 37.585 45.1748C38.4007 46.0589 38.8086 47.3304 38.8086 48.9893ZM20.7617 54L18.3555 46.1592H18.2939C18.3805 47.7542 18.4238 48.8184 18.4238 49.3516V54H16.5303V44.0059H19.415L21.7803 51.6484H21.8213L24.3301 44.0059H27.2148V54H25.2393V49.2695C25.2393 49.0462 25.2415 48.7887 25.2461 48.4971C25.2552 48.2054 25.2871 47.4307 25.3418 46.1729H25.2803L22.7031 54H20.7617ZM48.7207 44.0059H46.5811L44.6875 49.9531C44.3958 51.0013 44.2249 51.735 44.1748 52.1543C44.1475 51.972 44.0768 51.6484 43.9629 51.1836C43.8535 50.7142 43.7464 50.304 43.6416 49.9531L41.7617 44.0059H39.6221L43.0127 54H45.3232L48.7207 44.0059Z" fill="#0087CD"/>
<path d="M32 35C34.8319 35 37.4601 34.1279 39.6308 32.6379L42 35H45.5V31.5L43.138 29.1309C44.6281 26.9602 45.5 24.3318 45.5 21.5C45.5 20.6458 45.4207 19.8102 45.269 19H40.1264C40.3693 19.7904 40.5 20.6299 40.5 21.5C40.5 22.9419 40.141 24.2996 39.5076 25.4893L33.7678 19.7322C32.7915 18.7559 31.2086 18.7559 30.2322 19.7322C29.2559 20.7085 29.2559 22.2915 30.2322 23.2678L35.9894 29.0076C34.7998 29.6411 33.4418 30 32 30C27.3056 30 23.5 26.1943 23.5 21.5C23.5 16.8057 27.3056 13 32 13C34.3419 13 36.4626 13.9471 38 15.4792V9.40329C36.1926 8.50506 34.1553 8 32 8C24.5442 8 18.5 14.0442 18.5 21.5C18.5 28.9558 24.5442 35 32 35Z" fill="#BFBFBF"/>
<path opacity="0.3" d="M37 20V1H38V19H57L58 20H37Z" fill="black"/>
</svg>
