<svg width="64" height="64" viewBox="0 0 64 64" fill="none" xmlns="http://www.w3.org/2000/svg">
<path d="M7 1H38L57 20V63H7V1Z" fill="white"/>
<path fill-rule="evenodd" clip-rule="evenodd" d="M7 63H57V20L38 1H7V63ZM38 0H6V64H58V20L38 0Z" fill="#BFBFBF"/>
<path d="M34.2832 48.709H33.5859V45.7422H34.5498C35.1286 45.7422 35.5524 45.8607 35.8213 46.0977C36.0947 46.3346 36.2314 46.7015 36.2314 47.1982C36.2314 47.6904 36.0697 48.0664 35.7461 48.3262C35.4225 48.5814 34.9349 48.709 34.2832 48.709Z" fill="#00A9CD"/>
<path d="M43.5049 48.5928V50.2881H41.0986L42.9307 47.5195C43.1676 47.1641 43.3704 46.7995 43.5391 46.4258H43.5938C43.5801 46.5124 43.5618 46.8245 43.5391 47.3623C43.5163 47.9001 43.5049 48.3102 43.5049 48.5928Z" fill="#00A9CD"/>
<path fill-rule="evenodd" clip-rule="evenodd" d="M15 39C13.8954 39 13 39.8954 13 41V57C13 58.1046 13.8954 59 15 59H49C50.1046 59 51 58.1046 51 57V41C51 39.8954 50.1046 39 49 39H15ZM20.085 46.1592L22.4912 54H24.4326L27.0098 46.1729H27.0713C27.0166 47.4307 26.9847 48.2054 26.9756 48.4971C26.971 48.7887 26.9688 49.0462 26.9688 49.2695V54H28.9443V44.0059H26.0596L23.5508 51.6484H23.5098L21.1445 44.0059H18.2598V54H20.1533V49.3516C20.1533 48.8184 20.11 47.7542 20.0234 46.1592H20.085ZM37.3594 49.5908C38.0339 49.0212 38.3711 48.1986 38.3711 47.123C38.3711 46.0885 38.0544 45.3115 37.4209 44.792C36.792 44.2679 35.8714 44.0059 34.6592 44.0059H31.4668V54H33.5859V50.4453H34.4951C35.7347 50.4453 36.6895 50.1605 37.3594 49.5908ZM45.5693 51.9287H46.7725V50.2881H45.5693V44.0059H43.6211L39.2393 50.459V51.9287H43.5049V54H45.5693V51.9287Z" fill="#00A9CD"/>
<path fill-rule="evenodd" clip-rule="evenodd" d="M38 12H13V35H51V19H38V18H37L33 14H37L38 15V12ZM49 27H15V33H49V27ZM17 14H21L25 18H21L17 14ZM17 24H21L25 20H21L17 24ZM29 14H25L29 18H33L29 14ZM25 24H29L33 20H29L25 24ZM33 24H37L41 20H37L33 24ZM45 24H41L45 20H49L45 24Z" fill="#BFBFBF"/>
<path opacity="0.3" d="M37 20V1H38V19H57L58 20H37Z" fill="black"/>
</svg>
