<svg width="64" height="64" viewBox="0 0 64 64" fill="none" xmlns="http://www.w3.org/2000/svg">
<path d="M7 1H38L57 20V63H7V1Z" fill="white"/>
<path fill-rule="evenodd" clip-rule="evenodd" d="M7 63H57V20L38 1H7V63ZM38 0H6V64H58V20L38 0Z" fill="#BFBFBF"/>
<path d="M19.2217 49.1406C19.2217 50.2572 19.4336 51.098 19.8574 51.6631C20.2812 52.2282 20.9147 52.5107 21.7578 52.5107C23.4486 52.5107 24.2939 51.3874 24.2939 49.1406C24.2939 46.8893 23.4531 45.7637 21.7715 45.7637C20.9284 45.7637 20.2926 46.0485 19.8643 46.6182C19.4359 47.1833 19.2217 48.0241 19.2217 49.1406Z" fill="#D6771B"/>
<path d="M35.0977 49.1133C35.0977 46.9668 34.1498 45.8936 32.254 45.8936H31.1261V52.4014H32.0352C34.0769 52.4014 35.0977 51.3053 35.0977 49.1133Z" fill="#D6771B"/>
<path d="M42.6066 48.8604H41.9093V45.8936H42.8732C43.452 45.8936 43.8758 46.012 44.1447 46.249C44.4181 46.486 44.5548 46.8529 44.5548 47.3496C44.5548 47.8418 44.3931 48.2178 44.0695 48.4775C43.7459 48.7327 43.2583 48.8604 42.6066 48.8604Z" fill="#D6771B"/>
<path fill-rule="evenodd" clip-rule="evenodd" d="M15 39C13.8954 39 13 39.8954 13 41V57C13 58.1046 13.8954 59 15 59H49C50.1046 59 51 58.1046 51 57V41C51 39.8954 50.1046 39 49 39H15ZM26.5156 49.1406C26.5156 50.7949 26.1055 52.0664 25.2852 52.9551C24.4648 53.8438 23.2891 54.2881 21.7578 54.2881C20.2266 54.2881 19.0508 53.8438 18.2305 52.9551C17.4102 52.0664 17 50.7904 17 49.127C17 47.4635 17.4102 46.1943 18.2305 45.3193C19.0553 44.4398 20.2357 44 21.7715 44C23.3073 44 24.4808 44.4421 25.292 45.3262C26.1077 46.2103 26.5156 47.4818 26.5156 49.1406ZM37.2989 49.0586C37.2989 50.7038 36.8295 51.9639 35.8907 52.8389C34.9565 53.7139 33.6052 54.1514 31.837 54.1514H29.0069V44.1572H32.1446C33.7761 44.1572 35.043 44.5879 35.9454 45.4492C36.8477 46.3105 37.2989 47.5137 37.2989 49.0586ZM45.6828 49.7422C46.3573 49.1725 46.6945 48.3499 46.6945 47.2744C46.6945 46.2399 46.3778 45.4629 45.7443 44.9434C45.1154 44.4193 44.1948 44.1572 42.9826 44.1572H39.7902V54.1514H41.9093V50.5967H42.8185C44.0581 50.5967 45.0128 50.3119 45.6828 49.7422Z" fill="#D6771B"/>
<path d="M15 33V11H38V9H13V35H51V19H49V33H15Z" fill="#BFBFBF"/>
<path d="M21 13V17H17V13H21Z" fill="#BFBFBF"/>
<path d="M32 17H23V13H32V17Z" fill="#BFBFBF"/>
<path d="M21 24V20H17V24H21Z" fill="#BFBFBF"/>
<path d="M17 31V27H21V31H17Z" fill="#BFBFBF"/>
<path d="M23 31V27H41V31H23Z" fill="#BFBFBF"/>
<path d="M23 24V20H47V24H23Z" fill="#BFBFBF"/>
<path opacity="0.3" d="M37 20V1H38V19H57L58 20H37Z" fill="black"/>
</svg>
