<svg width="64" height="64" viewBox="0 0 64 64" fill="none" xmlns="http://www.w3.org/2000/svg">
<path d="M7 1H38L57 20V63H7V1Z" fill="white"/>
<path fill-rule="evenodd" clip-rule="evenodd" d="M7 63H57V20L38 1H7V63ZM38 0H6V64H58V20L38 0Z" fill="#BFBFBF"/>
<path d="M19.2217 48.9893C19.2217 50.1058 19.4336 50.9466 19.8574 51.5117C20.2812 52.0768 20.9147 52.3594 21.7578 52.3594C23.4486 52.3594 24.2939 51.236 24.2939 48.9893C24.2939 46.738 23.4531 45.6123 21.7715 45.6123C20.9284 45.6123 20.2926 45.8971 19.8643 46.4668C19.4359 47.0319 19.2217 47.8727 19.2217 48.9893Z" fill="#679F24"/>
<path d="M35.7988 48.9619C35.7988 46.8154 34.8509 45.7422 32.9551 45.7422H31.8271V52.25H32.7363C34.778 52.25 35.7988 51.154 35.7988 48.9619Z" fill="#679F24"/>
<path fill-rule="evenodd" clip-rule="evenodd" d="M15 39C13.8954 39 13 39.8954 13 41V57C13 58.1046 13.8954 59 15 59H49C50.1046 59 51 58.1046 51 57V41C51 39.8954 50.1046 39 49 39H15ZM26.5156 48.9893C26.5156 50.6436 26.1055 51.915 25.2852 52.8037C24.4648 53.6924 23.2891 54.1367 21.7578 54.1367C20.2266 54.1367 19.0508 53.6924 18.2305 52.8037C17.4102 51.915 17 50.639 17 48.9756C17 47.3122 17.4102 46.043 18.2305 45.168C19.0553 44.2884 20.2357 43.8486 21.7715 43.8486C23.3073 43.8486 24.4808 44.2907 25.292 45.1748C26.1077 46.0589 26.5156 47.3304 26.5156 48.9893ZM38 48.9072C38 50.5524 37.5306 51.8125 36.5918 52.6875C35.6576 53.5625 34.3063 54 32.5381 54H29.708V44.0059H32.8457C34.4772 44.0059 35.7441 44.4365 36.6465 45.2979C37.5488 46.1592 38 47.3623 38 48.9072ZM46.0225 53.3574C46.6742 52.8379 47 52.127 47 51.2246C47 50.5729 46.8268 50.0238 46.4805 49.5771C46.1341 49.126 45.4938 48.6771 44.5596 48.2305C43.8532 47.8932 43.4043 47.6608 43.2129 47.5332C43.026 47.401 42.8893 47.2666 42.8027 47.1299C42.7161 46.9886 42.6729 46.8245 42.6729 46.6377C42.6729 46.3369 42.7799 46.0931 42.9941 45.9062C43.2083 45.7194 43.516 45.626 43.917 45.626C44.2542 45.626 44.596 45.6693 44.9424 45.7559C45.2933 45.8424 45.7354 45.9951 46.2686 46.2139L46.9521 44.5664C46.4372 44.3431 45.9427 44.1699 45.4688 44.0469C44.9994 43.9238 44.5049 43.8623 43.9854 43.8623C42.9281 43.8623 42.0986 44.1152 41.4971 44.6211C40.9001 45.127 40.6016 45.8219 40.6016 46.7061C40.6016 47.1755 40.6927 47.5856 40.875 47.9365C41.0573 48.2874 41.3011 48.5951 41.6064 48.8594C41.9118 49.1237 42.3698 49.3994 42.9805 49.6865C43.6322 49.9964 44.0628 50.222 44.2725 50.3633C44.4867 50.5046 44.6484 50.6527 44.7578 50.8076C44.8672 50.958 44.9219 51.1312 44.9219 51.3271C44.9219 51.6781 44.7965 51.9424 44.5459 52.1201C44.2998 52.2979 43.9443 52.3867 43.4795 52.3867C43.0921 52.3867 42.6637 52.3252 42.1943 52.2021C41.7295 52.0791 41.1598 51.8672 40.4854 51.5664V53.5352C41.3057 53.9362 42.249 54.1367 43.3154 54.1367C44.473 54.1367 45.3753 53.877 46.0225 53.3574Z" fill="#679F24"/>
<path fill-rule="evenodd" clip-rule="evenodd" d="M13 9H38V11H27V26H49V19H51V35H13V9ZM49 28H27V33H49V28ZM25 33V28H21V33H25ZM19 33V28H15V33H19ZM15 26H19V11H15V26ZM21 11V26H25V11H21Z" fill="#BFBFBF"/>
<path opacity="0.3" d="M37 20V1H38V19H57L58 20H37Z" fill="black"/>
</svg>
