<svg width="64" height="64" viewBox="0 0 64 64" fill="none" xmlns="http://www.w3.org/2000/svg">
<g id="64X64 / OFORM">
<path id="background" d="M7 1H38L57 20V63H7V1Z" fill="white"/>
<path id="shadow" fill-rule="evenodd" clip-rule="evenodd" d="M7 63H57V20L38 1H7V63ZM38 0H6V64H58V20L38 0Z" fill="#BFBFBF"/>
<path id="Rectangle 504" d="M13 9H38V19H51V35H13V9Z" fill="#F2F2F2"/>
<g id="Group 137">
<rect id="Rectangle 398" x="19" y="15" width="3" height="1" fill="#888888"/>
<rect id="Rectangle 399" x="23" y="15" width="3" height="1" fill="#888888"/>
<rect id="Rectangle 400" x="19" y="28" width="3" height="1" fill="#888888"/>
<rect id="Rectangle 401" x="23" y="28" width="3" height="1" fill="#888888"/>
<rect id="Rectangle 402" width="12" height="1" transform="matrix(-4.37114e-08 1 1 4.37114e-08 22 16)" fill="#888888"/>
</g>
<path id="Rectangle 504 (Stroke)" fill-rule="evenodd" clip-rule="evenodd" d="M38 11H14.9231V33H38V11ZM13 9V35H51V19H49V33H38V9H13Z" fill="#BFBFBF"/>
<path id="ear shadow" opacity="0.3" d="M37 20V1H38V19H57L58 20H37Z" fill="black"/>
<path id="Union" d="M13 41C13 39.8945 13.8955 39 15 39H49C50.1045 39 51 39.8945 51 41V57C51 58.1055 50.1045 59 49 59H15C13.8955 59 13 58.1055 13 57V41Z" fill="#188079"/>
<path id="OFORM" d="M21.4572 49.4209C21.4572 50.6025 21.1643 51.5107 20.5783 52.1455C19.9924 52.7803 19.1525 53.0977 18.0588 53.0977C16.965 53.0977 16.1252 52.7803 15.5393 52.1455C14.9533 51.5107 14.6604 50.5993 14.6604 49.4111C14.6604 48.223 14.9533 47.3164 15.5393 46.6914C16.1284 46.0632 16.9715 45.749 18.0686 45.749C19.1656 45.749 20.0038 46.0648 20.5832 46.6963C21.1659 47.3278 21.4572 48.236 21.4572 49.4209ZM16.2473 49.4209C16.2473 50.2184 16.3986 50.819 16.7014 51.2227C17.0041 51.6263 17.4566 51.8281 18.0588 51.8281C19.2665 51.8281 19.8703 51.0257 19.8703 49.4209C19.8703 47.8128 19.2697 47.0088 18.0686 47.0088C17.4663 47.0088 17.0122 47.2122 16.7062 47.6191C16.4003 48.0228 16.2473 48.6234 16.2473 49.4209ZM24.026 53H22.5367V45.8613H26.6285V47.1016H24.026V48.9424H26.4479V50.1777H24.026V53ZM34.1045 49.4209C34.1045 50.6025 33.8115 51.5107 33.2256 52.1455C32.6396 52.7803 31.7998 53.0977 30.7061 53.0977C29.6123 53.0977 28.7725 52.7803 28.1865 52.1455C27.6006 51.5107 27.3076 50.5993 27.3076 49.4111C27.3076 48.223 27.6006 47.3164 28.1865 46.6914C28.7757 46.0632 29.6188 45.749 30.7158 45.749C31.8128 45.749 32.651 46.0648 33.2305 46.6963C33.8132 47.3278 34.1045 48.236 34.1045 49.4209ZM28.8945 49.4209C28.8945 50.2184 29.0459 50.819 29.3486 51.2227C29.6514 51.6263 30.1038 51.8281 30.7061 51.8281C31.9137 51.8281 32.5176 51.0257 32.5176 49.4209C32.5176 47.8128 31.917 47.0088 30.7158 47.0088C30.1136 47.0088 29.6595 47.2122 29.3535 47.6191C29.0475 48.0228 28.8945 48.6234 28.8945 49.4209ZM36.6977 49.0303H37.1859C37.6645 49.0303 38.0176 48.9505 38.2455 48.791C38.4734 48.6315 38.5873 48.3809 38.5873 48.0391C38.5873 47.7005 38.4701 47.4596 38.2357 47.3164C38.0046 47.1732 37.6449 47.1016 37.1566 47.1016H36.6977V49.0303ZM36.6977 50.2607V53H35.184V45.8613H37.2641C38.2341 45.8613 38.9519 46.0387 39.4174 46.3936C39.8829 46.7451 40.1156 47.2806 40.1156 48C40.1156 48.4199 40.0001 48.7943 39.7689 49.123C39.5378 49.4486 39.2107 49.7041 38.7875 49.8896C39.8617 51.4945 40.5616 52.5312 40.8871 53H39.2074L37.5033 50.2607H36.6977ZM44.408 53L42.6893 47.3994H42.6453C42.7072 48.5387 42.7381 49.2988 42.7381 49.6797V53H41.3855V45.8613H43.4461L45.1355 51.3203H45.1648L46.9568 45.8613H49.0174V53H47.6062V49.6211C47.6062 49.4616 47.6079 49.2777 47.6111 49.0693C47.6176 48.861 47.6404 48.3076 47.6795 47.4092H47.6355L45.7947 53H44.408Z" fill="white"/>
</g>
</svg>
