<svg width="64" height="64" viewBox="0 0 64 64" fill="none" xmlns="http://www.w3.org/2000/svg">
<g id="64X64 / OFORM">
<path id="background" d="M7 1H38L57 20V63H7V1Z" fill="white"/>
<g id="Group 78">
<path id="Rectangle 287" d="M38 19.5H53.5V32.5H10.5V7.5H37.5V19V19.5H38Z" fill="#F2F2F2" stroke="#BFBFBF"/>
<g id="Group 137">
<rect id="Rectangle 398" x="16" y="13" width="3" height="1" fill="#888888"/>
<rect id="Rectangle 399" x="20" y="13" width="2.625" height="1" fill="#888888"/>
<rect id="Rectangle 400" x="16" y="26" width="3" height="1" fill="#888888"/>
<rect id="Rectangle 401" x="20" y="26" width="2.625" height="1" fill="#888888"/>
<rect id="Rectangle 402" width="12" height="1" transform="matrix(-4.37114e-08 1 1 4.37114e-08 19 14)" fill="#888888"/>
</g>
</g>
<path id="shadow" fill-rule="evenodd" clip-rule="evenodd" d="M7 63H57V20L38 1H7V63ZM38 0H6V64H58V20L38 0Z" fill="url(#paint0_linear_1357:6948)"/>
<rect id="Rectangle 389" x="10" y="39" width="44" height="20" rx="2" fill="#2CA498"/>
<g id="Group 130">
<path id="OFORM" d="M22.6 53H21V45H26V46.5H22.6V48.5H26V50H22.6V53Z" fill="white"/>
<path id="OFORM_2" d="M37.5 48.5721H38.0133C38.5288 48.5721 38.9092 48.4853 39.1546 48.3116C39.4001 48.138 39.5228 47.8651 39.5228 47.493C39.5228 47.1245 39.3966 46.8622 39.1441 46.7063C38.8952 46.5504 38.5077 46.4724 37.9818 46.4724H37.5V48.5721ZM37.5 50.1429V53H36V45H38.0975C39.1424 45 39.9155 45.3154 40.4169 45.7017C40.9183 46.0844 41.169 46.6673 41.169 47.4505C41.169 47.9076 41.0445 48.3152 40.7956 48.6731C40.5466 49.0275 40.1942 49.3056 39.7384 49.5076C40.8955 51.2547 41.6494 52.4897 42 53H40.1907L38.2022 50.1429H37.5Z" fill="white"/>
<path id="OFORM_3" d="M46.5751 53L44.7668 47.2857C44.7572 47.2857 44.7668 52.6911 44.7668 53H43V45H45.4299L47.4793 51.2857L49.5701 45H52V53H50.3359C50.3359 51.8043 50.4253 46.7366 50.4016 47.2857L48.3834 53H46.5751Z" fill="white"/>
<path id="OFORM_4" d="M19.9333 48.9464C19.9333 50.3132 19.5914 51.3637 18.9075 52.0979C18.2236 52.8321 17.2433 53.1992 15.9667 53.1992C14.69 53.1992 13.7098 52.8321 13.0259 52.0979C12.342 51.3637 12 50.3094 12 48.9351C12 47.5608 12.342 46.5122 13.0259 45.7893C13.7136 45.0626 14.6976 44.6992 15.9781 44.6992C17.2585 44.6992 18.2369 45.0644 18.9132 45.7949C19.5933 46.5254 19.9333 47.5759 19.9333 48.9464ZM13.8523 48.9464C13.8523 49.8689 14.0289 50.5636 14.3823 51.0304C14.7356 51.4973 15.2638 51.7308 15.9667 51.7308C17.3763 51.7308 18.0811 50.8027 18.0811 48.9464C18.0811 47.0864 17.3801 46.1564 15.9781 46.1564C15.2752 46.1564 14.7451 46.3917 14.388 46.8623C14.0308 47.3292 13.8523 48.0239 13.8523 48.9464Z" fill="white"/>
<path id="OFORM_5" d="M34.9333 48.9464C34.9333 50.3132 34.5914 51.3637 33.9075 52.0979C33.2236 52.8321 32.2433 53.1992 30.9667 53.1992C29.69 53.1992 28.7098 52.8321 28.0259 52.0979C27.342 51.3637 27 50.3094 27 48.9351C27 47.5608 27.342 46.5122 28.0259 45.7893C28.7136 45.0626 29.6976 44.6992 30.9781 44.6992C32.2585 44.6992 33.2369 45.0644 33.9132 45.7949C34.5933 46.5254 34.9333 47.5759 34.9333 48.9464ZM28.8523 48.9464C28.8523 49.8689 29.0289 50.5636 29.3823 51.0304C29.7356 51.4973 30.2638 51.7308 30.9667 51.7308C32.3763 51.7308 33.0811 50.8027 33.0811 48.9464C33.0811 47.0864 32.3801 46.1564 30.9781 46.1564C30.2752 46.1564 29.7451 46.3917 29.388 46.8623C29.0308 47.3292 28.8523 48.0239 28.8523 48.9464Z" fill="white"/>
</g>
<path id="ear shadow" opacity="0.3" d="M37 20V1H38V19H57L58 20H37Z" fill="black"/>
</g>
<defs>
<linearGradient id="paint0_linear_1357:6948" x1="32" y1="0" x2="32" y2="64" gradientUnits="userSpaceOnUse">
<stop stop-color="#DADADA"/>
<stop offset="1" stop-color="#828282"/>
</linearGradient>
</defs>
</svg>
