<svg width="64" height="64" viewBox="0 0 64 64" fill="none" xmlns="http://www.w3.org/2000/svg">
<g id="64X64 / ots">
<path id="background" d="M7 1H38L57 20V63H7V1Z" fill="white"/>
<path id="shadow" fill-rule="evenodd" clip-rule="evenodd" d="M7 63H57V20L38 1H7V63ZM38 0H6V64H58V20L38 0Z" fill="url(#paint0_linear)"/>
<g id="format">
<path d="M19.2339 48.624C19.2339 49.8398 19.5146 50.7627 20.0762 51.3926C20.6377 52.0176 21.3506 52.3301 22.2148 52.3301C23.0791 52.3301 23.7871 52.02 24.3389 51.3999C24.8955 50.7749 25.1738 49.8398 25.1738 48.5947C25.1738 47.3643 24.9028 46.4463 24.3608 45.8408C23.8237 45.2354 23.1084 44.9326 22.2148 44.9326C21.3213 44.9326 20.6011 45.2402 20.0542 45.8555C19.5073 46.4658 19.2339 47.3887 19.2339 48.624Z" fill="#679F24"/>
<path fill-rule="evenodd" clip-rule="evenodd" d="M15 39C13.8954 39 13 39.8954 13 41V57C13 58.1046 13.8954 59 15 59H49C50.1046 59 51 58.1046 51 57V41C51 39.8954 50.1046 39 49 39H15ZM17 48.6973C17 47.6035 17.1636 46.6855 17.4907 45.9434C17.7349 45.3965 18.0669 44.9058 18.4868 44.4712C18.9116 44.0366 19.3755 43.7144 19.8784 43.5044C20.5474 43.2212 21.3188 43.0796 22.1929 43.0796C23.7749 43.0796 25.0396 43.5703 25.9868 44.5518C26.939 45.5332 27.415 46.8979 27.415 48.646C27.415 50.3794 26.9438 51.7368 26.0015 52.7183C25.0591 53.6948 23.7993 54.1831 22.2222 54.1831C20.6255 54.1831 19.356 53.6973 18.4136 52.7256C17.4712 51.749 17 50.4062 17 48.6973ZM31.5312 54V45.0791H28.3452V43.2627H36.8779V45.0791H33.6992V54H31.5312ZM39.8442 50.3013L37.7349 50.5063C37.8765 51.7075 38.311 52.623 39.0386 53.2529C39.7661 53.8779 40.8086 54.1904 42.166 54.1904C43.0986 54.1904 43.8774 54.061 44.5024 53.8022C45.1274 53.5386 45.6108 53.1382 45.9526 52.6011C46.2944 52.064 46.4653 51.4878 46.4653 50.8726C46.4653 50.1938 46.3213 49.625 46.0332 49.166C45.75 48.7021 45.3545 48.3384 44.8467 48.0747C44.3438 47.8062 43.5649 47.5474 42.5103 47.2983C41.4556 47.0493 40.7915 46.8101 40.5181 46.5806C40.3032 46.3999 40.1958 46.1826 40.1958 45.9287C40.1958 45.6504 40.3105 45.4282 40.54 45.2622C40.8965 45.0034 41.3896 44.874 42.0195 44.874C42.6299 44.874 43.0864 44.9961 43.3892 45.2402C43.6968 45.4795 43.897 45.875 43.9897 46.4268L46.1577 46.3315C46.1235 45.3452 45.7646 44.5566 45.0811 43.9658C44.4023 43.375 43.3892 43.0796 42.0415 43.0796C41.2163 43.0796 40.5107 43.2041 39.9248 43.4531C39.3438 43.7021 38.897 44.0659 38.5845 44.5444C38.2769 45.0181 38.123 45.5283 38.123 46.0752C38.123 46.9248 38.4526 47.645 39.1118 48.2358C39.5806 48.6558 40.396 49.0098 41.5581 49.2979C42.4614 49.5225 43.04 49.6787 43.2939 49.7666C43.665 49.8984 43.9238 50.0547 44.0703 50.2354C44.2217 50.4111 44.2974 50.626 44.2974 50.8799C44.2974 51.2754 44.1191 51.6221 43.7627 51.9199C43.4111 52.2129 42.8862 52.3594 42.188 52.3594C41.5288 52.3594 41.0039 52.1934 40.6133 51.8613C40.2275 51.5293 39.9712 51.0093 39.8442 50.3013Z" fill="#679F24"/>
</g>
<path id="logo" fill-rule="evenodd" clip-rule="evenodd" d="M13 9H38V11H27V26H49V19H51V35H13V9ZM49 28H27V33H49V28ZM25 33V28H21V33H25ZM19 33V28H15V33H19ZM15 26H19V11H15V26ZM21 11V26H25V11H21Z" fill="#BFBFBF"/>
<path id="ear shadow" opacity="0.3" d="M37 20V1H38V19H57L58 20H37Z" fill="black"/>
</g>
<defs>
<linearGradient id="paint0_linear" x1="32" y1="62.8333" x2="32" y2="8.08663e-07" gradientUnits="userSpaceOnUse">
<stop stop-color="#A8A8A8"/>
<stop offset="1" stop-color="#DADADA"/>
</linearGradient>
</defs>
</svg>
