<svg width="64" height="64" viewBox="0 0 64 64" fill="none" xmlns="http://www.w3.org/2000/svg">
<g id="64X64 / ott">
<path id="background" d="M7 1H38L57 20V63H7V1Z" fill="white"/>
<path id="shadow" fill-rule="evenodd" clip-rule="evenodd" d="M7 63H57V20L38 1H7V63ZM38 0H6V64H58V20L38 0Z" fill="#BFBFBF"/>
<g id="logo">
<path d="M13 9H38V14H13V9Z" fill="#BFBFBF"/>
<path d="M13 16H38V19H51V21H13V16Z" fill="#BFBFBF"/>
<path d="M13 23H51V28H13V23Z" fill="#BFBFBF"/>
<path d="M13 30H51V35H13V30Z" fill="#BFBFBF"/>
</g>
<path id="ear shadow" opacity="0.3" d="M37 20V1H38V19H57L58 20H37Z" fill="black"/>
<g id="Subtract">
<path d="M19.8784 48.6245C19.8784 49.8403 20.1592 50.7632 20.7207 51.3931C21.2822 52.0181 21.9951 52.3306 22.8594 52.3306C23.7236 52.3306 24.4316 52.0205 24.9834 51.4004C25.54 50.7754 25.8184 49.8403 25.8184 48.5952C25.8184 47.3647 25.5474 46.4468 25.0054 45.8413C24.4683 45.2358 23.7529 44.9331 22.8594 44.9331C21.9658 44.9331 21.2456 45.2407 20.6987 45.856C20.1519 46.4663 19.8784 47.3892 19.8784 48.6245Z" fill="#0984B7"/>
<path fill-rule="evenodd" clip-rule="evenodd" d="M15 39C13.8954 39 13 39.8954 13 41V57C13 58.1046 13.8954 59 15 59H49C50.1046 59 51 58.1046 51 57V41C51 39.8954 50.1046 39 49 39H15ZM17.6445 48.6978C17.6445 47.604 17.8081 46.686 18.1353 45.9438C18.3794 45.397 18.7114 44.9062 19.1313 44.4717C19.5562 44.0371 20.02 43.7148 20.5229 43.5049C21.1919 43.2217 21.9634 43.0801 22.8374 43.0801C24.4194 43.0801 25.6841 43.5708 26.6313 44.5522C27.5835 45.5337 28.0596 46.8984 28.0596 48.6465C28.0596 50.3799 27.5884 51.7373 26.646 52.7188C25.7036 53.6953 24.4438 54.1836 22.8667 54.1836C21.27 54.1836 20.0005 53.6978 19.0581 52.7261C18.1157 51.7495 17.6445 50.4067 17.6445 48.6978ZM32.1758 54.0005V45.0796H28.9897V43.2632H37.5225V45.0796H34.3438V54.0005H32.1758ZM41.3457 45.0796V54.0005H43.5137V45.0796H46.6924V43.2632H38.1597V45.0796H41.3457Z" fill="#0984B7"/>
</g>
</g>
</svg>
