<svg width="64" height="64" viewBox="0 0 64 64" fill="none" xmlns="http://www.w3.org/2000/svg">
<path d="M7 1H38L57 20V63H7V1Z" fill="white"/>
<path fill-rule="evenodd" clip-rule="evenodd" d="M7 63H57V20L38 1H7V63ZM38 0H6V64H58V20L38 0Z" fill="#BFBFBF"/>
<path d="M21.1191 48.709H21.8164C22.4681 48.709 22.9557 48.5814 23.2793 48.3262C23.6029 48.0664 23.7646 47.6904 23.7646 47.1982C23.7646 46.7015 23.6279 46.3346 23.3545 46.0977C23.0856 45.8607 22.6618 45.7422 22.083 45.7422H21.1191V48.709Z" fill="#9E1919"/>
<path d="M35.0908 48.9619C35.0908 46.8154 34.1429 45.7422 32.2471 45.7422H31.1191V52.25H32.0283C34.07 52.25 35.0908 51.154 35.0908 48.9619Z" fill="#9E1919"/>
<path fill-rule="evenodd" clip-rule="evenodd" d="M15 39C13.8954 39 13 39.8954 13 41V57C13 58.1046 13.8954 59 15 59H49C50.1046 59 51 58.1046 51 57V41C51 39.8954 50.1046 39 49 39H15ZM25.9043 47.123C25.9043 48.1986 25.5671 49.0212 24.8926 49.5908C24.2227 50.1605 23.2679 50.4453 22.0283 50.4453H21.1191V54H19V44.0059H22.1924C23.4046 44.0059 24.3252 44.2679 24.9541 44.792C25.5876 45.3115 25.9043 46.0885 25.9043 47.123ZM37.292 48.9072C37.292 50.5524 36.8226 51.8125 35.8838 52.6875C34.9495 53.5625 33.5983 54 31.8301 54H29V44.0059H32.1377C33.7692 44.0059 35.0361 44.4365 35.9385 45.2979C36.8408 46.1592 37.292 47.3623 37.292 48.9072ZM40.2715 54H42.3564V50.0488H45.7471V48.3193H42.3564V45.7422H46V44.0059H40.2715V54Z" fill="#9E1919"/>
<path d="M28 28V12H13V28H28Z" fill="#BFBFBF"/>
<path d="M30 16V12H38V16H30Z" fill="#BFBFBF"/>
<path d="M30 22V18H38V19H51V22H30Z" fill="#BFBFBF"/>
<path d="M51 24H30V28H51V24Z" fill="#BFBFBF"/>
<path d="M51 30H13V34H51V30Z" fill="#BFBFBF"/>
<path opacity="0.3" d="M37 20V1H38V19H57L58 20H37Z" fill="black"/>
</svg>
