<svg width="64" height="64" viewBox="0 0 64 64" fill="none" xmlns="http://www.w3.org/2000/svg">
<g id="64X64 / pot">
<path id="background" d="M7 1H38L57 20V63H7V1Z" fill="white"/>
<path id="shadow" fill-rule="evenodd" clip-rule="evenodd" d="M7 63H57V20L38 1H7V63ZM38 0H6V64H58V20L38 0Z" fill="#BFBFBF"/>
<g id="logo">
<path fill-rule="evenodd" clip-rule="evenodd" d="M13 9H38V11H15V33H49V19H51V35H13V9Z" fill="#BFBFBF"/>
<path d="M17 31V27H21V31H17Z" fill="#BFBFBF"/>
<path d="M21 24H17V20H21V24Z" fill="#BFBFBF"/>
<path d="M17 13V17H21V13H17Z" fill="#BFBFBF"/>
<path d="M23 13V17H34V15H30V13H23Z" fill="#BFBFBF"/>
<path d="M41 20H23V24H33V22H41V20Z" fill="#BFBFBF"/>
<path d="M23 31V27H47V29H39V31H23Z" fill="#BFBFBF"/>
</g>
<path id="ear shadow" opacity="0.3" d="M37 20V1H38V19H57L58 20H37Z" fill="black"/>
<g id="Subtract">
<path d="M29.4034 48.4917C29.4034 49.7376 29.691 50.6832 30.2664 51.3286C30.8418 51.969 31.5723 52.2892 32.4578 52.2892C33.3434 52.2892 34.0689 51.9715 34.6343 51.3361C35.2046 50.6957 35.4898 49.7376 35.4898 48.4617C35.4898 47.2009 35.2121 46.2603 34.6568 45.6399C34.1064 45.0195 33.3734 44.7093 32.4578 44.7093C31.5422 44.7093 30.8043 45.0245 30.2439 45.6549C29.6835 46.2803 29.4034 47.2259 29.4034 48.4917Z" fill="#F36700"/>
<path d="M19.5344 44.8594V47.9814H20.7502C21.6258 47.9814 22.2112 47.9239 22.5064 47.8088C22.8016 47.6937 23.0317 47.5136 23.1968 47.2684C23.3669 47.0233 23.452 46.7381 23.452 46.4129C23.452 46.0126 23.3344 45.6824 23.0993 45.4222C22.8641 45.1621 22.5664 44.9995 22.2062 44.9344C21.941 44.8844 21.4082 44.8594 20.6076 44.8594H19.5344Z" fill="#F36700"/>
<path fill-rule="evenodd" clip-rule="evenodd" d="M15 39C13.8955 39 13 39.8955 13 41V57C13 58.1045 13.8955 59 15 59H49C50.1045 59 51 58.1045 51 57V41C51 39.8955 50.1045 39 49 39H15ZM27.1144 48.5668C27.1144 47.4461 27.282 46.5055 27.6172 45.745C27.8674 45.1846 28.2076 44.6818 28.6379 44.2365C29.0731 43.7912 29.5485 43.461 30.0638 43.2458C30.7492 42.9556 31.5397 42.8105 32.4353 42.8105C34.0564 42.8105 35.3522 43.3134 36.3229 44.319C37.2985 45.3247 37.7863 46.7231 37.7863 48.5143C37.7863 50.2904 37.3035 51.6813 36.3379 52.687C35.3722 53.6876 34.0814 54.188 32.4653 54.188C30.8293 54.188 29.5284 53.6901 28.5628 52.6945C27.5972 51.6938 27.1144 50.3179 27.1144 48.5668ZM17.313 54.0003V42.9982H20.8778C22.2287 42.9982 23.1093 43.0532 23.5195 43.1633C24.1499 43.3284 24.6778 43.6886 25.1031 44.244C25.5283 44.7943 25.741 45.5073 25.741 46.3829C25.741 47.0583 25.6184 47.6262 25.3732 48.0865C25.1281 48.5468 24.8154 48.9095 24.4351 49.1747C24.0599 49.4349 23.6771 49.6075 23.2869 49.6925C22.7565 49.7976 21.9885 49.8501 20.9829 49.8501H19.5344V54.0003H17.313ZM42.0041 44.8594V54.0003H44.2255V44.8594H47.4826V42.9982H38.7394V44.8594H42.0041Z" fill="#F36700"/>
</g>
</g>
</svg>
