<svg width="64" height="64" viewBox="0 0 64 64" fill="none" xmlns="http://www.w3.org/2000/svg">
<path d="M7 1H38L57 20V63H7V1Z" fill="white"/>
<path fill-rule="evenodd" clip-rule="evenodd" d="M7 63H57V20L38 1H7V63ZM38 0H6V64H58V20L38 0Z" fill="#BFBFBF"/>
<path d="M21.2148 48.7031H21.9121C22.5638 48.7031 23.0514 48.5755 23.375 48.3203C23.6986 48.0605 23.8604 47.6846 23.8604 47.1924C23.8604 46.6956 23.7236 46.3288 23.4502 46.0918C23.1813 45.8548 22.7575 45.7363 22.1787 45.7363H21.2148V48.7031Z" fill="#F38400"/>
<path d="M31.1191 48.709H31.8164C32.4681 48.709 32.9557 48.5814 33.2793 48.3262C33.6029 48.0664 33.7646 47.6904 33.7646 47.1982C33.7646 46.7015 33.6279 46.3346 33.3545 46.0977C33.0856 45.8607 32.6618 45.7422 32.083 45.7422H31.1191V48.709Z" fill="#F38400"/>
<path fill-rule="evenodd" clip-rule="evenodd" d="M15 39C13.8954 39 13 39.8954 13 41V57C13 58.1046 13.8954 59 15 59H49C50.1046 59 51 58.1046 51 57V41C51 39.8954 50.1046 39 49 39H15ZM44.1274 53.3574C44.7791 52.8379 45.1049 52.127 45.1049 51.2246C45.1049 50.5729 44.9317 50.0238 44.5854 49.5771C44.239 49.126 43.5987 48.6771 42.6645 48.2305C41.9581 47.8932 41.5092 47.6608 41.3178 47.5332C41.131 47.401 40.9942 47.2666 40.9077 47.1299C40.8211 46.9886 40.7778 46.8245 40.7778 46.6377C40.7778 46.3369 40.8849 46.0931 41.0991 45.9062C41.3133 45.7194 41.6209 45.626 42.0219 45.626C42.3592 45.626 42.701 45.6693 43.0473 45.7559C43.3982 45.8424 43.8403 45.9951 44.3735 46.2139L45.0571 44.5664C44.5421 44.3431 44.0476 44.1699 43.5737 44.0469C43.1043 43.9238 42.6098 43.8623 42.0903 43.8623C41.033 43.8623 40.2036 44.1152 39.602 44.6211C39.005 45.127 38.7065 45.8219 38.7065 46.7061C38.7065 47.1755 38.7976 47.5856 38.9799 47.9365C39.1622 48.2874 39.406 48.5951 39.7114 48.8594C40.0167 49.1237 40.4747 49.3994 41.0854 49.6865C41.7371 49.9964 42.1677 50.222 42.3774 50.3633C42.5916 50.5046 42.7534 50.6527 42.8627 50.8076C42.9721 50.958 43.0268 51.1312 43.0268 51.3271C43.0268 51.6781 42.9015 51.9424 42.6508 52.1201C42.4047 52.2979 42.0493 52.3867 41.5844 52.3867C41.197 52.3867 40.7687 52.3252 40.2993 52.2021C39.8344 52.0791 39.2648 51.8672 38.5903 51.5664V53.5352C39.4106 53.9362 40.3539 54.1367 41.4204 54.1367C42.5779 54.1367 43.4802 53.877 44.1274 53.3574ZM26 47.1172C26 48.1927 25.6628 49.0153 24.9883 49.585C24.3184 50.1546 23.3636 50.4395 22.124 50.4395H21.2148V53.9941H19.0957V44H22.2881C23.5003 44 24.4209 44.262 25.0498 44.7861C25.6833 45.3057 26 46.0827 26 47.1172ZM35.9043 47.123C35.9043 48.1986 35.5671 49.0212 34.8926 49.5908C34.2227 50.1605 33.2679 50.4453 32.0283 50.4453H31.1191V54H29V44.0059H32.1924C33.4046 44.0059 34.3252 44.2679 34.9541 44.792C35.5876 45.3115 35.9043 46.0885 35.9043 47.123Z" fill="#F38400"/>
<path d="M38 9V11H15V33H49V19H51V35H13V9H38Z" fill="#BFBFBF"/>
<path d="M21 27H17V31H21V27Z" fill="#BFBFBF"/>
<path d="M17 20V24H21V20H17Z" fill="#BFBFBF"/>
<path d="M17 13V17H21V13H17Z" fill="#BFBFBF"/>
<path d="M23 13V17H38V15H31V13H23Z" fill="#BFBFBF"/>
<path d="M23 24V20H34V22H29V24H23Z" fill="#BFBFBF"/>
<path d="M23 31V27H36V29H44V31H23Z" fill="#BFBFBF"/>
<path opacity="0.3" d="M37 20V1H38V19H57L58 20H37Z" fill="black"/>
</svg>
