<svg width="64" height="64" viewBox="0 0 64 64" fill="none" xmlns="http://www.w3.org/2000/svg">
<path d="M7 1H38L57 20V63H7V1Z" fill="white"/>
<path fill-rule="evenodd" clip-rule="evenodd" d="M7 63H57V20L38 1H7V63ZM38 0H6V64H58V20L38 0Z" fill="#BFBFBF"/>
<path d="M21.2148 48.7031H21.9121C22.5638 48.7031 23.0514 48.5755 23.375 48.3203C23.6986 48.0605 23.8604 47.6846 23.8604 47.1924C23.8604 46.6956 23.7236 46.3288 23.4502 46.0918C23.1813 45.8548 22.7575 45.7363 22.1787 45.7363H21.2148V48.7031Z" fill="#F36700"/>
<path d="M31.1191 48.7031H31.8164C32.4681 48.7031 32.9557 48.5755 33.2793 48.3203C33.6029 48.0605 33.7646 47.6846 33.7646 47.1924C33.7646 46.6956 33.6279 46.3288 33.3545 46.0918C33.0856 45.8548 32.6618 45.7363 32.083 45.7363H31.1191V48.7031Z" fill="#F36700"/>
<path fill-rule="evenodd" clip-rule="evenodd" d="M15 39C13.8954 39 13 39.8954 13 41V57C13 58.1046 13.8954 59 15 59H49C50.1046 59 51 58.1046 51 57V41C51 39.8954 50.1046 39 49 39H15ZM26 47.1172C26 48.1927 25.6628 49.0153 24.9883 49.585C24.3184 50.1546 23.3636 50.4395 22.124 50.4395H21.2148V53.9941H19.0957V44H22.2881C23.5003 44 24.4209 44.262 25.0498 44.7861C25.6833 45.3057 26 46.0827 26 47.1172ZM35.9043 47.1172C35.9043 48.1927 35.5671 49.0153 34.8926 49.585C34.2227 50.1546 33.2679 50.4395 32.0283 50.4395H31.1191V53.9941H29V44H32.1924C33.4046 44 34.3252 44.262 34.9541 44.7861C35.5876 45.3057 35.9043 46.0827 35.9043 47.1172ZM41.167 54H43.2861V45.7695H46V44.0059H38.4531V45.7695H41.167V54Z" fill="#F36700"/>
<path fill-rule="evenodd" clip-rule="evenodd" d="M13 9H38V11H15V33H49V19H51V35H13V9Z" fill="#BFBFBF"/>
<path d="M17 31V27H21V31H17Z" fill="#BFBFBF"/>
<path d="M21 24H17V20H21V24Z" fill="#BFBFBF"/>
<path d="M17 13V17H21V13H17Z" fill="#BFBFBF"/>
<path d="M23 13V17H34V15H30V13H23Z" fill="#BFBFBF"/>
<path d="M41 20H23V24H33V22H41V20Z" fill="#BFBFBF"/>
<path d="M23 31V27H47V29H39V31H23Z" fill="#BFBFBF"/>
<path opacity="0.3" d="M37 20V1H38V19H57L58 20H37Z" fill="black"/>
</svg>
