<svg width="64" height="64" viewBox="0 0 64 64" fill="none" xmlns="http://www.w3.org/2000/svg">
<g id="64X64 / pptm">
<path id="background" d="M7 1H38L57 20V63H7V1Z" fill="white"/>
<path id="shadow" fill-rule="evenodd" clip-rule="evenodd" d="M7 63H57V20L38 1H7V63ZM38 0H6V64H58V20L38 0Z" fill="#BFBFBF"/>
<g id="logo">
<path fill-rule="evenodd" clip-rule="evenodd" d="M13 9H38V11H15V33H49V19H51V35H13V9Z" fill="#BFBFBF"/>
<path d="M17 31V27H21V31H17Z" fill="#BFBFBF"/>
<path d="M21 24H17V20H21V24Z" fill="#BFBFBF"/>
<path d="M17 13V17H21V13H17Z" fill="#BFBFBF"/>
<path d="M23 13V17H34V15H30V13H23Z" fill="#BFBFBF"/>
<path d="M41 20H23V24H33V22H41V20Z" fill="#BFBFBF"/>
<path d="M23 31V27H47V29H39V31H23Z" fill="#BFBFBF"/>
</g>
<path id="ear shadow" opacity="0.3" d="M37 20V1H38V19H57L58 20H37Z" fill="black"/>
<g id="Subtract">
<path d="M18.2123 48.0793V45.5261H19.09C19.7446 45.5261 20.1804 45.5465 20.3973 45.5874C20.6919 45.6406 20.9354 45.7736 21.1277 45.9864C21.32 46.1992 21.4161 46.4692 21.4161 46.7966C21.4161 47.0625 21.3466 47.2958 21.2075 47.4963C21.0724 47.6968 20.8842 47.8441 20.6428 47.9382C20.4014 48.0323 19.9226 48.0793 19.2066 48.0793H18.2123Z" fill="#F36700"/>
<path d="M25.9679 48.0793V45.5261H26.8455C27.5002 45.5261 27.936 45.5465 28.1529 45.5874C28.4475 45.6406 28.6909 45.7736 28.8833 45.9864C29.0756 46.1992 29.1717 46.4692 29.1717 46.7966C29.1717 47.0625 29.1022 47.2958 28.9631 47.4963C28.828 47.6968 28.6398 47.8441 28.3984 47.9382C28.157 48.0323 27.6782 48.0793 26.9622 48.0793H25.9679Z" fill="#F36700"/>
<path fill-rule="evenodd" clip-rule="evenodd" d="M15 39C13.8955 39 13 39.8955 13 41V57C13 58.1045 13.8955 59 15 59H49C50.1045 59 51 58.1045 51 57V41C51 39.8955 50.1045 39 49 39H15ZM16.3955 44.0039V53.0018H18.2123V49.6076H19.3968C20.2193 49.6076 20.8474 49.5647 21.2811 49.4787C21.6003 49.4092 21.9133 49.268 22.2202 49.0552C22.5312 48.8384 22.7869 48.5417 22.9874 48.1653C23.1879 47.7888 23.2881 47.3244 23.2881 46.772C23.2881 46.0559 23.1142 45.4729 22.7664 45.0228C22.4186 44.5686 21.9869 44.274 21.4714 44.1389C21.1359 44.0489 20.4157 44.0039 19.3109 44.0039H16.3955ZM24.1511 44.0039V53.0018H25.9679V49.6076H27.1524C27.9749 49.6076 28.603 49.5647 29.0367 49.4787C29.3559 49.4092 29.6689 49.268 29.9758 49.0552C30.2867 48.8384 30.5425 48.5417 30.743 48.1653C30.9435 47.7888 31.0437 47.3244 31.0437 46.772C31.0437 46.0559 30.8698 45.4729 30.522 45.0228C30.1742 44.5686 29.7425 44.274 29.227 44.1389C28.8914 44.0489 28.1713 44.0039 27.0665 44.0039H24.1511ZM33.9321 53.0018V45.5261H31.2622V44.0039H38.4126V45.5261H35.7489V53.0018H33.9321ZM38.938 44.0039V53.0018H40.6259V45.9189L42.4058 53.0018H44.1551L45.9411 45.9189V53.0018H47.629V44.0039H44.9039L43.2897 50.1416L41.657 44.0039H38.938Z" fill="#F36700"/>
</g>
</g>
</svg>
