<svg width="64" height="64" viewBox="0 0 64 64" fill="none" xmlns="http://www.w3.org/2000/svg">
<path d="M7 1H38L57 20V63H7V1Z" fill="white"/>
<path fill-rule="evenodd" clip-rule="evenodd" d="M7 63H57V20L38 1H7V63ZM38 0H6V64H58V20L38 0Z" fill="#BFBFBF"/>
<path d="M42.0731 45.7422C43.9689 45.7422 44.9168 46.8154 44.9168 48.9619C44.9168 51.154 43.896 52.25 41.8543 52.25H40.9451V45.7422H42.0731Z" fill="#D56DB6"/>
<path fill-rule="evenodd" clip-rule="evenodd" d="M15 39C13.8954 39 13 39.8954 13 41V57C13 58.1046 13.8954 59 15 59H49C50.1046 59 51 58.1046 51 57V41C51 39.8954 50.1046 39 49 39H15ZM24.2258 51.2246C24.2258 52.127 23.8999 52.8379 23.2482 53.3574C22.6011 53.877 21.6988 54.1367 20.5412 54.1367C19.4748 54.1367 18.5314 53.9362 17.7111 53.5352V51.5664C18.3856 51.8672 18.9553 52.0791 19.4201 52.2021C19.8895 52.3252 20.3179 52.3867 20.7053 52.3867C21.1701 52.3867 21.5256 52.2979 21.7717 52.1201C22.0223 51.9424 22.1477 51.6781 22.1477 51.3271C22.1477 51.1312 22.093 50.958 21.9836 50.8076C21.8742 50.6527 21.7124 50.5046 21.4982 50.3633C21.2886 50.222 20.8579 49.9964 20.2063 49.6865C19.5956 49.3994 19.1376 49.1237 18.8322 48.8594C18.5269 48.5951 18.2831 48.2874 18.1008 47.9365C17.9185 47.5856 17.8273 47.1755 17.8273 46.7061C17.8273 45.8219 18.1258 45.127 18.7229 44.6211C19.3244 44.1152 20.1538 43.8623 21.2111 43.8623C21.7307 43.8623 22.2251 43.9238 22.6945 44.0469C23.1685 44.1699 23.663 44.3431 24.1779 44.5664L23.4943 46.2139C22.9611 45.9951 22.5191 45.8424 22.1682 45.7559C21.8218 45.6693 21.48 45.626 21.1428 45.626C20.7417 45.626 20.4341 45.7194 20.2199 45.9062C20.0057 46.0931 19.8986 46.3369 19.8986 46.6377C19.8986 46.8245 19.9419 46.9886 20.0285 47.1299C20.1151 47.2666 20.2518 47.401 20.4387 47.5332C20.6301 47.6608 21.079 47.8932 21.7854 48.2305C22.7196 48.6771 23.3599 49.126 23.7063 49.5771C24.0526 50.0238 24.2258 50.5729 24.2258 51.2246ZM35.6035 54H32.9102L28.5625 46.4395H28.501C28.5876 47.7747 28.6309 48.7272 28.6309 49.2969V54H26.7373V44.0059H29.4102L33.751 51.4912H33.7988C33.7305 50.1924 33.6963 49.2741 33.6963 48.7363V44.0059H35.6035V54ZM45.7098 52.6875C46.6486 51.8125 47.118 50.5524 47.118 48.9072C47.118 47.3623 46.6668 46.1592 45.7645 45.2979C44.8621 44.4365 43.5952 44.0059 41.9637 44.0059H38.826V54H41.6561C43.4243 54 44.7755 53.5625 45.7098 52.6875Z" fill="#D56DB6"/>
<path d="M40 19V24.3369C39.5454 24.1208 39.0368 24 38.5 24C36.567 24 35 25.5669 35 27.5C35 29.4331 36.567 31 38.5 31C40.2632 31 41.722 29.6963 41.9646 28H42V19H40Z" fill="#BFBFBF"/>
<path d="M38 15L28 17.5V32H27.9646C27.722 33.6963 26.2632 35 24.5 35C22.567 35 21 33.4331 21 31.5C21 29.5669 22.567 28 24.5 28C25.0368 28 25.5454 28.1208 26 28.3369V12L38 9V15Z" fill="#BFBFBF"/>
<path opacity="0.3" d="M37 20V1H38V19H57L58 20H37Z" fill="black"/>
</svg>
