<svg width="64" height="64" viewBox="0 0 64 64" fill="none" xmlns="http://www.w3.org/2000/svg">
<g id="64x64 / xlsm">
<g id="background_64x64">
<path id="background_64x64_2" d="M38.5858 4L54 19.4142V60H10V4H38.5858Z" fill="white"/>
</g>
<path id="Union" fill-rule="evenodd" clip-rule="evenodd" d="M14 8V34H50V20H38V8H14ZM37 10H27V14H37V10ZM37 16H27V20H37V16ZM48 28V32H39V28H48ZM48 22V26H39V22H48ZM37 22H27V26H37V22ZM37 28H27V32H37V28ZM16 10H25V14H16V10ZM16 16H25V20H16V16ZM16 22H25V26H16V22ZM16 28H25V32H16V28Z" fill="#BFBFBF"/>
<g id="shadow_64x64">
<path id="shadow_64x64_2" fill-rule="evenodd" clip-rule="evenodd" d="M39.4142 2H8V62H56V18.5858L39.4142 2ZM54 60V19.4142L38.5858 4H10V60H54Z" fill="url(#paint0_linear)"/>
<path id="corner_64x64" opacity="0.25" d="M38 4H36V22H54V20H38V4Z" fill="black"/>
</g>
<g id="Group 14">
<rect id="Rectangle 62" x="14" y="38" width="36" height="18" rx="2" fill="#6AAA1E"/>
<path id="XLSM" d="M16.7192 51L19.4102 46.8911L16.9717 43.126H18.8301L20.4092 45.6558L21.9561 43.126H23.7983L21.3491 46.9502L24.04 51H22.1226L20.377 48.2769L18.626 51H16.7192ZM24.8994 51V43.1904H26.4893V49.6733H30.4424V51H24.8994ZM31.1782 48.438L32.7251 48.2876C32.8182 48.8068 33.0062 49.1882 33.2891 49.4316C33.5755 49.6751 33.9604 49.7969 34.4438 49.7969C34.9559 49.7969 35.3408 49.6895 35.5986 49.4746C35.86 49.2562 35.9907 49.002 35.9907 48.7119C35.9907 48.5257 35.9352 48.3682 35.8242 48.2393C35.7168 48.1068 35.527 47.9922 35.2549 47.8955C35.0687 47.8311 34.6444 47.7165 33.9819 47.5518C33.1297 47.3405 32.5317 47.0809 32.188 46.7729C31.7046 46.3397 31.4629 45.8115 31.4629 45.1885C31.4629 44.7874 31.5757 44.4132 31.8013 44.0659C32.0304 43.715 32.3581 43.4482 32.7842 43.2656C33.2139 43.083 33.7313 42.9917 34.3364 42.9917C35.3247 42.9917 36.0677 43.2083 36.5654 43.6416C37.0667 44.0749 37.3299 44.6532 37.355 45.3765L35.7651 45.4463C35.6971 45.0417 35.5503 44.7516 35.3247 44.5762C35.1027 44.3971 34.7679 44.3076 34.3203 44.3076C33.8584 44.3076 33.4967 44.4025 33.2354 44.5923C33.0671 44.714 32.9829 44.877 32.9829 45.0811C32.9829 45.2673 33.0617 45.4266 33.2192 45.5591C33.4198 45.7274 33.9067 45.9028 34.6802 46.0854C35.4536 46.2681 36.0247 46.4578 36.3936 46.6548C36.766 46.8481 37.056 47.1149 37.2637 47.4551C37.4749 47.7917 37.5806 48.2088 37.5806 48.7065C37.5806 49.1577 37.4552 49.5802 37.2046 49.9741C36.9539 50.368 36.5994 50.6616 36.1411 50.855C35.6828 51.0448 35.1117 51.1396 34.4277 51.1396C33.4323 51.1396 32.6678 50.9105 32.1343 50.4521C31.6007 49.9902 31.2821 49.3188 31.1782 48.438ZM38.8965 51V43.126H41.2759L42.7046 48.4971L44.1172 43.126H46.502V51H45.0249V44.8018L43.4619 51H41.9312L40.3735 44.8018V51H38.8965Z" fill="white"/>
</g>
</g>
<defs>
<linearGradient id="paint0_linear" x1="29" y1="2" x2="29" y2="62" gradientUnits="userSpaceOnUse">
<stop stop-color="#DCDCDC"/>
<stop offset="1" stop-color="#ADADAD"/>
</linearGradient>
</defs>
</svg>
