<svg width="96" height="96" viewBox="0 0 96 96" fill="none" xmlns="http://www.w3.org/2000/svg">
<rect y="24" width="91" height="58" rx="6" fill="#B2BBC0"/>
<path d="M0 11C0 7.68629 2.68629 5 6 5H33C36.3137 5 39 7.68629 39 11V18H85C88.3137 18 91 20.6863 91 24V30C91 26.6863 88.3137 24 85 24H6C2.68629 24 0 26.6863 0 30V11Z" fill="#788790"/>
<path opacity="0.504232" fill-rule="evenodd" clip-rule="evenodd" d="M72.1101 50.1592L75.6564 51.6417C76.1992 51.8686 76.6189 52.3171 76.8093 52.8737L78.2193 56.9952C78.4463 57.6587 78.9957 58.1609 79.6768 58.3275L94.4319 61.9362C95.3526 62.1614 96.0002 62.9865 96.0002 63.9343V81.1508C96.0002 82.2869 95.0793 83.2078 93.9433 83.2078C93.7382 83.2078 93.5343 83.1771 93.3383 83.1168L70.7118 76.1548C69.8487 75.8893 69.2598 75.0918 69.2598 74.1888V52.057C69.2598 50.9209 70.1807 50 71.3167 50C71.5891 50 71.8588 50.0541 72.1101 50.1592Z" fill="#D0DFFF"/>
<path opacity="0.8" fill-rule="evenodd" clip-rule="evenodd" d="M66.9675 54.2724L70.5139 55.755C71.0566 55.9819 71.4763 56.4303 71.6667 56.987L73.0767 61.1085C73.3037 61.772 73.8531 62.2741 74.5343 62.4407L89.2894 66.0495C90.21 66.2747 90.8577 67.0998 90.8577 68.0476V85.2641C90.8577 86.4002 89.9367 87.3211 88.8007 87.3211C88.5956 87.3211 88.3918 87.2904 88.1958 87.2301L65.5692 80.2681C64.7061 80.0025 64.1172 79.2051 64.1172 78.3021V56.1702C64.1172 55.0342 65.0381 54.1133 66.1741 54.1133C66.4465 54.1133 66.7162 54.1674 66.9675 54.2724Z" fill="#B3CAFF"/>
<path opacity="0.8" d="M85.7155 80.771L90.8579 82.3532V68.0474C90.8579 67.0997 90.2103 66.2746 89.2896 66.0494L74.5345 62.4406C73.8533 62.274 73.3039 61.7718 73.077 61.1084L71.6669 56.9868C71.4765 56.4302 71.0569 55.9817 70.5141 55.7548L69.2598 55.2305V65.9005C69.3033 65.9143 69.3474 65.9266 69.3921 65.9376L84.1472 69.5463C85.0678 69.7715 85.7155 70.5966 85.7155 71.5444V80.771Z" fill="#AAC4FF"/>
<path fill-rule="evenodd" clip-rule="evenodd" d="M61.8249 57.7685L65.3713 59.2511C65.9141 59.478 66.3337 59.9264 66.5241 60.4831L67.9342 64.6046C68.1611 65.2681 68.7105 65.7702 69.3917 65.9368L84.1468 69.5456C85.0675 69.7708 85.7151 70.5959 85.7151 71.5437V88.7602C85.7151 89.8962 84.7941 90.8172 83.6581 90.8172C83.4531 90.8172 83.2492 90.7865 83.0532 90.7262L60.4266 83.7642C59.5636 83.4986 58.9746 82.7012 58.9746 81.7982V59.6663C58.9746 58.5303 59.8955 57.6094 61.0316 57.6094C61.304 57.6094 61.5736 57.6635 61.8249 57.7685Z" fill="#1A47FF"/>
<path fill-rule="evenodd" clip-rule="evenodd" d="M56.6081 66.8914L79.4621 73.2398C80.152 73.4314 80.6926 73.9681 80.8893 74.6566L85.1942 89.7235C85.3502 90.2697 85.034 90.8389 84.4878 90.995C84.2963 91.0497 84.0931 91.0476 83.9028 90.9891L59.9646 83.6235C59.3419 83.4319 58.8467 82.9565 58.6299 82.3421L54.1178 69.558C53.7397 68.4867 54.3017 67.3118 55.3729 66.9337C55.7706 66.7933 56.2017 66.7786 56.6081 66.8914Z" fill="#5287FF"/>
</svg>
