<svg width="28" height="28" viewBox="0 0 28 28" fill="none" xmlns="http://www.w3.org/2000/svg">
<path fill-rule="evenodd" clip-rule="evenodd" d="M12.411 25.7059L1.68526 20.7649C0.771581 20.3335 0.771581 19.6669 1.68526 19.2748L5.4194 17.5493L12.3713 20.7649C13.285 21.1963 14.7548 21.1963 15.6287 20.7649L22.5806 17.5493L26.3147 19.2748C27.2284 19.7061 27.2284 20.3728 26.3147 20.7649L15.589 25.7059C14.7548 26.0981 13.285 26.0981 12.411 25.7059Z" fill="#FF6F3D"/>
<path fill-rule="evenodd" clip-rule="evenodd" d="M12.3762 19.5917L1.68317 14.6449C0.772277 14.213 0.772277 13.5456 1.68317 13.153L5.32673 11.4648L12.3762 14.7234C13.2871 15.1553 14.7525 15.1553 15.6238 14.7234L22.6733 11.4648L26.3168 13.153C27.2277 13.5849 27.2277 14.2523 26.3168 14.6449L15.6238 19.5917C14.7129 20.0235 13.2475 20.0235 12.3762 19.5917Z" fill="#95C038"/>
<path fill-rule="evenodd" clip-rule="evenodd" d="M12.3762 13.5408L1.68317 8.66521C0.772277 8.23956 0.772277 7.58175 1.68317 7.1948L12.3762 2.31923C13.2871 1.89359 14.7525 1.89359 15.6238 2.31923L26.3168 7.1948C27.2277 7.62044 27.2277 8.27826 26.3168 8.66521L15.6238 13.5408C14.7129 13.9277 13.2475 13.9277 12.3762 13.5408Z" fill="#5DC0E8"/>
</svg>
