<svg width="26" height="24" viewBox="0 0 26 24" fill="none" xmlns="http://www.w3.org/2000/svg">
<path fill-rule="evenodd" clip-rule="evenodd" d="M11.411 23.7059L0.685256 18.7649C-0.228419 18.3335 -0.228419 17.6669 0.685256 17.2748L4.4194 15.5493L11.3713 18.7649C12.285 19.1963 13.7548 19.1963 14.6287 18.7649L21.5806 15.5493L25.3147 17.2748C26.2284 17.7061 26.2284 18.3728 25.3147 18.7649L14.589 23.7059C13.7548 24.0981 12.285 24.0981 11.411 23.7059Z" fill="#FF6F3D"/>
<path fill-rule="evenodd" clip-rule="evenodd" d="M11.3762 17.5917L0.683168 12.6449C-0.227723 12.213 -0.227723 11.5456 0.683168 11.153L4.32673 9.46484L11.3762 12.7234C12.2871 13.1553 13.7525 13.1553 14.6238 12.7234L21.6733 9.46484L25.3168 11.153C26.2277 11.5849 26.2277 12.2523 25.3168 12.6449L14.6238 17.5917C13.7129 18.0235 12.2475 18.0235 11.3762 17.5917Z" fill="#95C038"/>
<path fill-rule="evenodd" clip-rule="evenodd" d="M11.3762 11.5408L0.683168 6.66521C-0.227723 6.23956 -0.227723 5.58175 0.683168 5.1948L11.3762 0.319234C12.2871 -0.106411 13.7525 -0.106411 14.6238 0.319234L25.3168 5.1948C26.2277 5.62044 26.2277 6.27826 25.3168 6.66521L14.6238 11.5408C13.7129 11.9277 12.2475 11.9277 11.3762 11.5408Z" fill="#5DC0E8"/>
</svg>
