<svg width="133" height="40" viewBox="0 0 133 40" fill="none" xmlns="http://www.w3.org/2000/svg">
<path d="M97.0153 25.9376C96.1878 25.9519 95.3659 25.7988 94.599 25.4875C93.8321 25.1763 93.136 24.7133 92.5525 24.1263C91.969 23.5393 91.5101 22.8405 91.2035 22.0717C90.8968 21.303 90.7486 20.4802 90.7678 19.6528C90.7486 18.8254 90.8968 18.0026 91.2035 17.2339C91.5101 16.4651 91.969 15.7663 92.5525 15.1793C93.136 14.5923 93.8321 14.1293 94.599 13.8181C95.3659 13.5068 96.1878 13.3537 97.0153 13.368C97.8529 13.3418 98.6855 13.5052 99.4511 13.8461C100.217 14.1869 100.895 14.6963 101.436 15.3362L100.363 16.3799C99.9655 15.8804 99.456 15.4816 98.8757 15.216C98.2953 14.9504 97.6605 14.8256 97.0228 14.8516C96.4089 14.8378 95.7985 14.9482 95.2284 15.1763C94.6583 15.4043 94.1402 15.7453 93.7052 16.1786C93.2529 16.6334 92.8996 17.1768 92.6673 17.7747C92.4351 18.3725 92.329 19.012 92.3558 19.6528C92.329 20.2936 92.4351 20.933 92.6673 21.5309C92.8996 22.1288 93.2529 22.6722 93.7052 23.127C94.1402 23.5603 94.6583 23.9013 95.2284 24.1293C95.7985 24.3574 96.4089 24.4678 97.0228 24.454C97.7352 24.462 98.4404 24.3093 99.0857 24.0073C99.7311 23.7052 100.3 23.2616 100.75 22.7095L101.824 23.783C101.262 24.4552 100.556 24.9927 99.7588 25.3561C98.8994 25.7529 97.9618 25.9516 97.0153 25.9376Z" fill="#5F6368"/>
<path d="M104.709 25.6691H103.166V13.6289H104.709V25.6691Z" fill="#5F6368"/>
<path d="M107.229 18.4218C108.038 17.6187 109.131 17.168 110.271 17.168C111.411 17.168 112.504 17.6187 113.313 18.4218C113.708 18.8393 114.017 19.3309 114.222 19.8683C114.426 20.4056 114.523 20.9782 114.505 21.553C114.523 22.1278 114.426 22.7003 114.222 23.2377C114.017 23.7751 113.708 24.2667 113.313 24.6842C112.504 25.4873 111.411 25.938 110.271 25.938C109.131 25.938 108.038 25.4873 107.229 24.6842C106.834 24.2667 106.525 23.7751 106.32 23.2377C106.115 22.7003 106.019 22.1278 106.036 21.553C106.019 20.9782 106.115 20.4056 106.32 19.8683C106.525 19.3309 106.834 18.8393 107.229 18.4218ZM108.377 23.715C108.62 23.972 108.913 24.1767 109.238 24.3166C109.563 24.4564 109.913 24.5286 110.267 24.5286C110.621 24.5286 110.971 24.4564 111.296 24.3166C111.621 24.1767 111.914 23.972 112.157 23.715C112.427 23.4256 112.636 23.0854 112.773 22.7142C112.91 22.343 112.972 21.9483 112.955 21.553C112.972 21.1577 112.91 20.763 112.773 20.3918C112.636 20.0206 112.427 19.6804 112.157 19.391C111.914 19.134 111.621 18.9293 111.296 18.7894C110.971 18.6495 110.621 18.5774 110.267 18.5774C109.913 18.5774 109.563 18.6495 109.238 18.7894C108.913 18.9293 108.62 19.134 108.377 19.391C108.107 19.6804 107.898 20.0206 107.761 20.3918C107.624 20.763 107.562 21.1577 107.58 21.553C107.564 21.9475 107.628 22.3412 107.766 22.711C107.904 23.0809 108.115 23.4196 108.385 23.7076L108.377 23.715Z" fill="#5F6368"/>
<path d="M123.057 25.6681H121.566V24.5274H121.521C121.255 24.9606 120.88 25.3157 120.432 25.5562C119.968 25.8254 119.441 25.9668 118.904 25.9663C118.468 25.9961 118.031 25.9271 117.626 25.7644C117.221 25.6018 116.857 25.3497 116.563 25.0269C115.998 24.3126 115.715 23.4162 115.765 22.507V17.4375H117.309V22.2237C117.309 23.7595 117.987 24.5274 119.344 24.5274C119.645 24.5368 119.945 24.4741 120.217 24.3444C120.489 24.2147 120.727 24.0219 120.91 23.7819C121.31 23.275 121.523 22.6457 121.513 22.0001V17.4375H123.057V25.6681Z" fill="#5F6368"/>
<path d="M128.298 25.9375C127.774 25.9393 127.257 25.8275 126.78 25.61C126.304 25.3925 125.881 25.0744 125.539 24.6776C124.766 23.8239 124.352 22.705 124.384 21.5538C124.352 20.4027 124.766 19.2838 125.539 18.4301C125.881 18.0333 126.304 17.7151 126.78 17.4976C127.257 17.2801 127.774 17.1684 128.298 17.1701C128.884 17.1609 129.464 17.2993 129.983 17.5727C130.439 17.8022 130.825 18.1498 131.101 18.5792H131.168L131.101 17.4385V13.6289H132.644V25.6691H131.153V24.5285H131.086C130.81 24.9579 130.424 25.3055 129.968 25.5349C129.453 25.8059 128.879 25.9443 128.298 25.9375ZM128.551 24.5285C128.9 24.5336 129.246 24.4644 129.566 24.3256C129.886 24.1868 130.173 23.9815 130.408 23.7233C130.932 23.1264 131.2 22.3469 131.153 21.5538C131.2 20.7608 130.932 19.9813 130.408 19.3844C130.171 19.1248 129.884 18.9174 129.563 18.7755C129.242 18.6336 128.895 18.5603 128.544 18.5603C128.193 18.5603 127.846 18.6336 127.525 18.7755C127.204 18.9174 126.916 19.1248 126.68 19.3844C126.42 19.6779 126.22 20.0201 126.092 20.3911C125.964 20.7621 125.91 21.1547 125.934 21.5464C125.91 21.9381 125.964 22.3307 126.092 22.7017C126.22 23.0727 126.42 23.4148 126.68 23.7084C126.915 23.9712 127.204 24.1804 127.526 24.3219C127.849 24.4634 128.199 24.5338 128.551 24.5285Z" fill="#5F6368"/>
<path d="M39.3562 25.937C38.4423 25.9486 37.5354 25.7757 36.6899 25.4285C35.8444 25.0814 35.0777 24.5671 34.4357 23.9166C33.7734 23.2937 33.2479 22.54 32.8924 21.7032C32.5369 20.8664 32.3592 19.9649 32.3706 19.0558C32.3597 18.1468 32.5376 17.2454 32.893 16.4087C33.2485 15.5719 33.7738 14.8181 34.4357 14.1949C35.0746 13.5377 35.8399 13.0166 36.6855 12.6629C37.5311 12.3093 38.4396 12.1305 39.3562 12.1373C40.2295 12.1257 41.0964 12.2877 41.9066 12.6141C42.7168 12.9405 43.454 13.4246 44.0753 14.0384L42.7483 15.3878C41.8395 14.5095 40.6198 14.027 39.3562 14.0458C38.7006 14.0378 38.0506 14.1662 37.4474 14.4229C36.8441 14.6796 36.3009 15.059 35.8522 15.5369C35.3858 15.9996 35.0179 16.5518 34.7707 17.1604C34.5234 17.769 34.4018 18.4213 34.4133 19.0781C34.4078 19.7275 34.5323 20.3713 34.7794 20.9718C35.0265 21.5723 35.3913 22.1173 35.8522 22.5747C36.7754 23.4947 38.0213 24.0181 39.3246 24.0334C40.6279 24.0487 41.8857 23.5548 42.8303 22.6567C43.4151 22.0163 43.7739 21.2018 43.8517 20.3381H39.3785V18.4295H45.7081C45.7702 18.8139 45.7952 19.2034 45.7826 19.5926C45.822 20.398 45.6976 21.2031 45.4169 21.9592C45.1363 22.7152 44.7053 23.4065 44.1499 23.9912C43.5324 24.6341 42.7864 25.1396 41.9604 25.4749C41.1344 25.8102 40.2471 25.9676 39.3562 25.937ZM54.0729 24.6696C53.2234 25.4838 52.0922 25.9384 50.9156 25.9384C49.7389 25.9384 48.6077 25.4838 47.7582 24.6696C47.3355 24.2597 47.0025 23.7663 46.7805 23.2209C46.5584 22.6754 46.4522 22.0898 46.4685 21.5011C46.4526 20.9125 46.5591 20.327 46.7811 19.7816C47.0031 19.2362 47.3358 18.7428 47.7582 18.3326C48.6086 17.5201 49.7394 17.0666 50.9156 17.0666C52.0917 17.0666 53.2225 17.5201 54.0729 18.3326C54.4953 18.7428 54.828 19.2362 55.05 19.7816C55.272 20.327 55.3785 20.9125 55.3626 21.5011C55.378 22.0903 55.2706 22.6763 55.0472 23.2218C54.8239 23.7673 54.4895 24.2603 54.0654 24.6696H54.0729ZM49.1524 23.4246C49.3783 23.6659 49.6514 23.8582 49.9547 23.9897C50.258 24.1212 50.585 24.189 50.9156 24.189C51.2461 24.189 51.5732 24.1212 51.8764 23.9897C52.1797 23.8582 52.4528 23.6659 52.6787 23.4246C52.9251 23.1699 53.118 22.8686 53.246 22.5382C53.3741 22.2079 53.4347 21.8552 53.4243 21.5011C53.4352 21.1458 53.3749 20.7918 53.2469 20.4602C53.1188 20.1286 52.9257 19.8259 52.6787 19.5702C52.4498 19.3314 52.1749 19.1413 51.8706 19.0115C51.5663 18.8817 51.2389 18.8148 50.9081 18.8148C50.5773 18.8148 50.2499 18.8817 49.9456 19.0115C49.6413 19.1413 49.3664 19.3314 49.1375 19.5702C48.8906 19.8259 48.6974 20.1286 48.5693 20.4602C48.4413 20.7918 48.381 21.1458 48.392 21.5011C48.3825 21.8558 48.4443 22.2087 48.5736 22.5391C48.703 22.8695 48.8972 23.1706 49.1449 23.4246H49.1524ZM63.7796 24.6696C62.9302 25.4838 61.799 25.9384 60.6223 25.9384C59.4456 25.9384 58.3145 25.4838 57.465 24.6696C57.0422 24.2597 56.7092 23.7663 56.4872 23.2209C56.2652 22.6754 56.1589 22.0898 56.1752 21.5011C56.1594 20.9125 56.2658 20.327 56.4878 19.7816C56.7098 19.2362 57.0426 18.7428 57.465 18.3326C58.3145 17.5184 59.4456 17.0638 60.6223 17.0638C61.799 17.0638 62.9302 17.5184 63.7796 18.3326C64.202 18.7428 64.5348 19.2362 64.7568 19.7816C64.9788 20.327 65.0852 20.9125 65.0694 21.5011C65.0857 22.0898 64.9794 22.6754 64.7574 23.2209C64.5354 23.7663 64.2024 24.2597 63.7796 24.6696ZM58.8591 23.4246C59.0851 23.6659 59.3581 23.8582 59.6614 23.9897C59.9647 24.1212 60.2918 24.189 60.6223 24.189C60.9529 24.189 61.2799 24.1212 61.5832 23.9897C61.8865 23.8582 62.1595 23.6659 62.3855 23.4246C62.6318 23.1699 62.8247 22.8686 62.9528 22.5382C63.0808 22.2079 63.1414 21.8552 63.131 21.5011C63.142 21.1458 63.0817 20.7918 62.9536 20.4602C62.8256 20.1286 62.6324 19.8259 62.3855 19.5702C62.1565 19.3314 61.8817 19.1413 61.5774 19.0115C61.2731 18.8817 60.9457 18.8148 60.6149 18.8148C60.284 18.8148 59.9566 18.8817 59.6523 19.0115C59.348 19.1413 59.0732 19.3314 58.8442 19.5702C58.5973 19.8259 58.4041 20.1286 58.2761 20.4602C58.148 20.7918 58.0877 21.1458 58.0987 21.5011C58.0893 21.8558 58.1511 22.2087 58.2804 22.5391C58.4097 22.8695 58.604 23.1706 58.8517 23.4246H58.8591ZM70.1613 29.9181C69.2677 29.9465 68.3915 29.6676 67.6787 29.1278C67.0459 28.6521 66.5475 28.0201 66.2324 27.2939L67.9322 26.5856C68.1172 27.0196 68.4066 27.4012 68.7746 27.6964C69.1686 28.014 69.663 28.1806 70.1688 28.1661C70.4895 28.1856 70.8107 28.1358 71.1105 28.02C71.4102 27.9042 71.6815 27.7252 71.9059 27.4951C72.355 26.9533 72.5768 26.2586 72.5246 25.5568V24.9156H72.4576C72.1735 25.253 71.8147 25.5197 71.4096 25.6944C71.0046 25.8691 70.5644 25.947 70.1241 25.9221C69.5643 25.9238 69.0103 25.8094 68.497 25.5861C67.9837 25.3628 67.5223 25.0355 67.1419 24.6249C66.7292 24.2175 66.4034 23.7306 66.1843 23.1937C65.9652 22.6568 65.8572 22.0809 65.8671 21.5011C65.8568 20.9179 65.9644 20.3386 66.1835 19.798C66.4026 19.2573 66.7286 18.7665 67.1419 18.355C67.5214 17.9426 67.9824 17.6137 68.4958 17.3891C69.0092 17.1645 69.5637 17.0491 70.1241 17.0503C70.5983 17.0495 71.0668 17.1539 71.4958 17.356C71.867 17.5181 72.1979 17.7599 72.465 18.0642H72.5321V17.356H74.381V25.2958C74.4297 25.9239 74.3497 26.5553 74.1458 27.1514C73.942 27.7475 73.6187 28.2957 73.1956 28.7625C72.7927 29.148 72.3166 29.4489 71.7954 29.6474C71.2743 29.8459 70.7186 29.9379 70.1613 29.9181ZM70.2955 24.1925C70.6139 24.1995 70.9299 24.1363 71.221 24.0074C71.5122 23.8786 71.7715 23.6872 71.9804 23.4469C72.4404 22.9198 72.6829 22.2376 72.6588 21.5384C72.6865 20.8274 72.4441 20.1323 71.9804 19.5926C71.7718 19.3519 71.5126 19.1602 71.2214 19.0313C70.9301 18.9025 70.6139 18.8395 70.2955 18.847C69.9685 18.8403 69.6438 18.9033 69.343 19.0319C69.0422 19.1604 68.7722 19.3516 68.551 19.5926C68.0578 20.1129 67.7899 20.8068 67.8055 21.5235C67.7979 21.875 67.8598 22.2246 67.9878 22.5521C68.1157 22.8797 68.3071 23.1787 68.551 23.432C68.7711 23.6754 69.0406 23.869 69.3414 24.0001C69.6422 24.1313 69.9674 24.1968 70.2955 24.1925ZM77.6688 12.6368V25.6686H75.723V12.6368H77.6688ZM83.0068 25.937C82.424 25.952 81.8445 25.8465 81.3044 25.6271C80.7643 25.4077 80.2753 25.0792 79.8681 24.6621C79.4548 24.2481 79.1301 23.7544 78.9135 23.211C78.6969 22.6676 78.593 22.0859 78.6081 21.5011C78.5861 20.9149 78.6823 20.3303 78.8911 19.782C79.0999 19.2338 79.4169 18.7333 79.8234 18.3103C80.2063 17.9065 80.6694 17.5872 81.1829 17.3728C81.6965 17.1584 82.2491 17.0537 82.8055 17.0652C83.3171 17.0598 83.8244 17.1588 84.2965 17.356C84.7218 17.5276 85.1093 17.7809 85.4372 18.1015C85.7187 18.3733 85.9688 18.6759 86.1827 19.0036C86.3557 19.2803 86.5029 19.5723 86.6226 19.8759L86.8239 20.3828L80.8596 22.8356C81.04 23.25 81.3417 23.6001 81.725 23.8397C82.1083 24.0792 82.5552 24.197 83.0068 24.1775C83.4461 24.1787 83.8783 24.0661 84.2611 23.8505C84.644 23.6349 84.9644 23.3238 85.1911 22.9474L86.6822 23.9539C86.3017 24.4983 85.8147 24.9599 85.2508 25.3108C84.5801 25.7345 83.7999 25.9522 83.0068 25.937ZM80.5167 21.3669L84.4829 19.7193C84.3607 19.4288 84.1422 19.1892 83.8641 19.0409C83.5527 18.865 83.2003 18.775 82.8427 18.7799C82.236 18.7957 81.66 19.0502 81.2399 19.4882C80.9884 19.7288 80.7932 20.0219 80.6682 20.3467C80.5432 20.6715 80.4915 21.0198 80.5167 21.3669Z" fill="#5F6368"/>
<path d="M16.2897 14.6806H17.0352L19.1599 12.5558L19.2643 11.6537C18.0471 10.5794 16.5761 9.83313 14.9903 9.48536C13.4045 9.13758 11.7562 9.19982 10.2011 9.6662C8.64607 10.1325 7.23556 10.9876 6.10285 12.1507C4.97014 13.3138 4.15263 14.7464 3.72754 16.3133C3.96425 16.2163 4.22646 16.2005 4.47307 16.2686L8.72257 15.5678C8.72257 15.5678 8.93878 15.2099 9.05061 15.2323C9.96114 14.2323 11.2195 13.6181 12.568 13.5156C13.9165 13.413 15.2533 13.8298 16.3046 14.6806H16.2897Z" fill="#EA4335"/>
<path d="M22.1867 16.3123C21.6983 14.5138 20.6956 12.897 19.3015 11.6602L16.3194 14.6423C16.9409 15.1501 17.439 15.7925 17.776 16.5208C18.1131 17.2492 18.2804 18.0446 18.2652 18.8471V19.3764C18.6137 19.3764 18.9589 19.4451 19.2809 19.5784C19.6029 19.7118 19.8955 19.9073 20.1419 20.1538C20.3884 20.4002 20.5839 20.6928 20.7173 21.0148C20.8506 21.3368 20.9193 21.6819 20.9193 22.0305C20.9193 22.379 20.8506 22.7241 20.7173 23.0461C20.5839 23.3682 20.3884 23.6607 20.1419 23.9072C19.8955 24.1536 19.6029 24.3491 19.2809 24.4825C18.9589 24.6159 18.6137 24.6846 18.2652 24.6846H12.9571L12.4277 25.2213V28.4047L12.9571 28.9341H18.2652C19.7475 28.9456 21.1941 28.4797 22.3911 27.6054C23.5881 26.731 24.4719 25.4946 24.9117 24.079C25.3515 22.6634 25.324 21.1439 24.8332 19.7451C24.3425 18.3464 23.4145 17.1428 22.1867 16.3123Z" fill="#4285F4"/>
<path d="M7.64162 28.9041H12.9498V24.6546H7.64162C7.26344 24.6545 6.88969 24.5731 6.5457 24.416L5.80017 24.6471L3.66051 26.7719L3.47412 27.5174C4.674 28.4234 6.1381 28.9106 7.64162 28.9041Z" fill="#34A853"/>
<path d="M7.64164 15.1192C6.20339 15.1278 4.80373 15.5854 3.63816 16.4281C2.47259 17.2707 1.59931 18.4564 1.1403 19.8195C0.681287 21.1825 0.659466 22.6549 1.07789 24.031C1.4963 25.4071 2.33406 26.6181 3.47415 27.495L6.55317 24.4159C6.16189 24.2392 5.81934 23.9701 5.55491 23.6318C5.29048 23.2935 5.11207 22.8962 5.03498 22.4738C4.95789 22.0514 4.98442 21.6166 5.11231 21.2067C5.24019 20.7969 5.4656 20.4241 5.76921 20.1205C6.07281 19.8169 6.44554 19.5915 6.85542 19.4636C7.26529 19.3358 7.70007 19.3092 8.12245 19.3863C8.54484 19.4634 8.94221 19.6418 9.28048 19.9062C9.61875 20.1707 9.88782 20.5132 10.0646 20.9045L13.1436 17.8255C12.4974 16.9806 11.6644 16.2967 10.71 15.8272C9.75547 15.3577 8.70533 15.1154 7.64164 15.1192Z" fill="#FBBC05"/>
</svg>
