<svg width="106" height="40" viewBox="0 0 106 40" fill="none" xmlns="http://www.w3.org/2000/svg">
<path d="M71.208 8.9571C71.208 7.95308 72.0425 7.13867 73.072 7.13867H94.569C95.5985 7.13867 96.4331 7.95308 96.4331 8.9571V30.7054C96.4331 31.7098 95.5985 32.5239 94.569 32.5239H73.072C72.0425 32.5239 71.208 31.7098 71.208 30.7054V8.9571Z" fill="#006699"/>
<path fill-rule="evenodd" clip-rule="evenodd" d="M0.594727 28.4037H11.1219V24.9477H4.40439V11.7617H0.594727V28.4037Z" fill="black"/>
<path fill-rule="evenodd" clip-rule="evenodd" d="M16.4513 28.4024V16.9399H12.6413V28.4024H16.4513ZM14.5463 15.3749C15.8749 15.3749 16.7019 14.4947 16.7019 13.394C16.6771 12.2695 15.8749 11.4141 14.5716 11.4141C13.2681 11.4141 12.416 12.2695 12.416 13.394C12.416 14.4947 13.2428 15.3749 14.5214 15.3749H14.5462H14.5463Z" fill="black"/>
<path fill-rule="evenodd" clip-rule="evenodd" d="M18.2207 28.4037H22.0307V22.0024C22.0307 21.6598 22.0555 21.3176 22.1562 21.0727C22.4315 20.3885 23.0584 19.6796 24.1109 19.6796C25.4897 19.6796 26.0413 20.7311 26.0413 22.271V28.4037H29.8509V21.8311C29.8509 18.3102 27.9711 16.6719 25.4644 16.6719C23.4092 16.6719 22.5067 17.8208 22.0053 18.6033H22.0308V16.9412H18.2207C18.2708 18.0168 18.2207 28.4037 18.2207 28.4037Z" fill="black"/>
<path fill-rule="evenodd" clip-rule="evenodd" d="M35.2257 11.7617H31.4155V28.4037H35.2257V24.6875L36.1778 23.4888L39.1607 28.4037H43.8477L38.8349 21.2884L43.2213 16.4474H38.6345C38.6345 16.4474 35.5014 20.7786 35.2257 21.2921V11.7617Z" fill="black"/>
<path fill-rule="evenodd" clip-rule="evenodd" d="M54.0368 23.6211C54.0868 23.3267 54.1622 22.7619 54.1622 22.1235C54.1622 19.1603 52.658 16.1523 48.6979 16.1523C44.4618 16.1523 42.5068 19.5026 42.5068 22.5411C42.5068 26.2994 44.8879 28.6466 49.0487 28.6466C50.7031 28.6466 52.2318 28.4024 53.4853 27.8889L52.9838 25.3727C51.9563 25.7136 50.9035 25.8839 49.6003 25.8839C47.8206 25.8839 46.2667 25.1536 46.1412 23.5967L54.0368 23.6204V23.6211ZM46.1164 21.0435C46.2166 20.0653 46.8683 18.6223 48.4975 18.6223C50.2266 18.6223 50.6279 20.1633 50.6279 21.0435H46.1164Z" fill="black"/>
<path fill-rule="evenodd" clip-rule="evenodd" d="M63.5661 11.7598V17.5208H63.516C62.9645 16.7145 61.8113 16.1765 60.2827 16.1765C57.3499 16.1765 54.7683 18.5238 54.7931 22.5334C54.7931 26.2503 57.1243 28.6709 60.0318 28.6709C61.6109 28.6709 63.1147 27.986 63.8666 26.6655H63.942L64.0924 28.4019H67.4764C67.4262 27.5949 67.3757 26.2012 67.3757 24.8322V11.7598H63.5661ZM63.5661 23.0961C63.5661 23.3892 63.541 23.683 63.4907 23.9272C63.2654 24.9787 62.3628 25.712 61.2602 25.712C59.681 25.712 58.6533 24.4407 58.6533 22.4357C58.6533 20.5532 59.5308 19.0373 61.2851 19.0373C62.463 19.0373 63.2903 19.8439 63.516 20.8463C63.5661 21.0667 63.5661 21.3113 63.5661 21.5311V23.0961Z" fill="black"/>
<path fill-rule="evenodd" clip-rule="evenodd" d="M78.8546 28.3891V16.9263H75.0446V28.3891H78.8546ZM76.9496 15.3612C78.2782 15.3612 79.1052 14.481 79.1052 13.381C79.0804 12.2562 78.2782 11.4004 76.9748 11.4004C75.6715 11.4004 74.8193 12.2562 74.8193 13.381C74.8193 14.481 75.6461 15.3612 76.9247 15.3612H76.9495H76.9496Z" fill="white"/>
<path fill-rule="evenodd" clip-rule="evenodd" d="M80.9629 28.39H84.7729V21.9887C84.7729 21.6461 84.7976 21.3039 84.8983 21.059C85.1737 20.3745 85.8006 19.6655 86.8531 19.6655C88.2318 19.6655 88.7833 20.7167 88.7833 22.2577V28.39H92.593V21.8174C92.593 18.2965 90.7133 16.6582 88.2066 16.6582C86.1512 16.6582 85.2489 17.8071 84.7475 18.5896H84.773V16.9272H80.963C81.013 18.0028 80.963 28.39 80.963 28.39H80.9629Z" fill="white"/>
</svg>
