<svg width="106" height="40" viewBox="0 0 106 40" fill="none" xmlns="http://www.w3.org/2000/svg">
<path d="M12.7193 19.5095C12.5633 17.2144 11.0032 15.903 9.13112 15.903C6.94701 15.903 5.69895 17.7062 5.69895 19.6734C5.69895 21.9685 7.25903 23.4439 9.13112 23.4439C11.3152 23.4439 12.5633 21.8045 12.7193 19.8373V19.5095ZM9.13112 13.9358C10.5352 13.9358 11.9393 14.5915 12.8753 15.739C12.8753 15.2472 13.1873 14.9194 13.6553 14.9194H13.8114C14.5914 14.9194 14.5914 15.5751 14.5914 15.903V23.7717C14.5914 24.2635 15.0594 24.5914 15.3714 24.2635C16.6195 22.9521 18.0236 17.5423 14.5914 14.4276C11.4712 11.4768 7.25903 11.9686 4.91891 13.6079C2.7348 15.2472 1.17472 19.0177 2.7348 22.6242C4.29488 26.5586 8.97511 27.7061 11.7833 26.5586C13.1873 25.9028 13.8114 27.87 12.4073 28.5258C10.2232 29.5093 4.13887 29.3454 1.33073 24.2635C-0.853376 20.8209 -0.697368 14.5915 4.45089 11.4768C8.35108 9.01782 13.4993 9.67354 16.6195 13.1161C19.8957 16.7226 19.7396 23.2799 16.4635 25.9028C15.0594 27.0504 12.8753 25.9028 12.8753 24.2635V23.7717C11.9393 24.7553 10.5352 25.411 9.13112 25.411C6.32298 25.411 3.67085 22.7881 3.67085 19.8373C3.67085 16.5587 6.32298 13.9358 9.13112 13.9358Z" fill="#F89C0E"/>
<path d="M64.7143 24.2432C63.1071 24.2432 61.5 22.9459 61.5 21V11.2703C61.5 10.4595 60.8571 9.97297 60.2143 9.97297C59.4107 9.97297 58.9286 10.6216 58.9286 11.2703V21C58.9286 24.2432 61.6607 26.8378 64.7143 26.8378C65.6786 26.8378 66 26.027 66 25.3784C66 24.8919 65.6786 24.2432 64.7143 24.2432ZM45.5893 24.2432C43.1786 24.2432 41.25 22.2973 41.25 20.027C41.25 17.5946 43.1786 15.6486 45.5893 15.6486C48 15.6486 49.9286 17.5946 49.9286 20.027C49.9286 22.2973 48 24.2432 45.5893 24.2432ZM51.0536 13.0541C50.25 13.0541 49.7679 13.7027 49.7679 14.1892V14.6757C48.6429 13.7027 47.0357 13.0541 45.4286 13.0541C41.8929 13.0541 38.6786 16.1351 38.6786 20.027C38.6786 23.5946 41.7321 26.8378 45.4286 26.8378C46.875 26.8378 48.6429 26.1892 49.7679 25.2162V25.5405C49.7679 26.1892 50.25 26.8378 51.0536 26.8378C52.0179 26.8378 52.3393 26.027 52.3393 25.5405V14.3514C52.5 13.8649 51.8571 13.0541 51.0536 13.0541ZM55.7143 13.0541C54.9107 13.0541 54.4286 13.7027 54.4286 14.3514V25.5405C54.4286 26.3514 55.0714 26.8378 55.7143 26.8378C56.5179 26.8378 57 26.1892 57 25.5405V14.5135C57 13.7027 56.3571 13.0541 55.7143 13.0541ZM33.2143 13.0541C31.6071 13.0541 30.3214 14.027 29.5179 14.6757C28.7143 13.7027 27.5893 13.2162 26.4643 13.0541C25.3393 13.0541 24.2143 13.3784 23.4107 14.027C23.0893 13.3784 22.7679 13.0541 22.2857 13.0541C21.6429 13.0541 21 13.5405 21 14.5135C21 15.4865 21 25.7027 21 25.7027C21 26.3514 21.4821 27 22.2857 27C23.0893 27 23.5714 26.3514 23.5714 25.7027V17.2703C23.5714 16.4595 24.8571 15.4865 26.1429 15.4865C26.9464 15.4865 27.75 16.2973 27.75 17.4324V25.5405C27.75 26.1892 28.3929 26.8378 29.0357 26.8378C29.8393 26.8378 30.3214 26.1892 30.3214 25.5405V17.4324C30.3214 16.4595 31.7679 15.6486 32.8929 15.6486C33.6964 15.6486 34.5 16.6216 34.5 17.4324V25.5405C34.5 26.1892 35.1429 26.8378 35.9464 26.8378C36.5893 26.8378 37.2321 26.3514 37.2321 25.5405V17.4324C37.3929 14.3514 34.5 13.0541 33.2143 13.0541ZM57 10.9459C57 11.4324 56.5179 11.9189 55.7143 11.9189C54.9107 11.9189 54.4286 11.4324 54.4286 10.7838V10.1351C54.4286 9.64865 54.9107 9 55.7143 9C56.6786 9 57 9.64865 57 10.1351V10.9459Z" fill="#228FDE"/>
<path d="M94.8306 13C94.0175 13 93.5297 13.6512 93.5297 14.3023V20C93.5297 22.1163 91.741 24.3953 89.1392 24.3953C87.0253 24.3953 84.7488 22.6047 84.7488 20.1628V14.3023C84.7488 13.6512 84.261 13 83.4479 13C82.7975 13 82.147 13.4884 82.147 14.3023V20C82.147 23.7442 85.3992 26.8372 88.9766 26.8372C92.8793 26.8372 95.9688 23.4186 95.9688 20V14.3023C96.1315 13.6512 95.6436 13 94.8306 13ZM79.3827 13C75.6426 13 72.5531 16.2558 72.5531 20V25.6977C72.5531 26.5116 73.2035 27 73.8539 27C74.667 27 75.1548 26.5116 75.1548 25.6977V19.8372C75.1548 17.7209 76.9435 15.4419 79.3827 15.6047C80.1957 15.6047 80.6835 14.9535 80.6835 14.3023C80.6835 13.6512 80.3583 13 79.3827 13ZM70.6018 25.8605C70.6018 26.3488 70.1139 27 69.3009 27C68.4878 27 68 26.3488 68 25.8605V24.8837C68 24.3953 68.4878 23.7442 69.3009 23.7442C70.2765 23.7442 70.6018 24.3953 70.6018 24.8837V25.8605Z" fill="#F89C0E"/>
</svg>
