<svg width="111" height="40" viewBox="0 0 111 40" fill="none" xmlns="http://www.w3.org/2000/svg">
<path d="M67.7016 15.9766C68.9998 15.9766 69.9925 16.2821 70.4507 16.5112L69.9925 18.8785C69.458 18.573 68.5417 18.2676 67.549 18.2676C66.709 18.2676 66.1743 18.6112 66.1743 19.1839C66.1743 19.6039 66.5943 19.9857 67.4725 20.4058C68.618 20.9785 69.9162 21.8185 69.9162 23.3458C69.9162 24.3385 69.5725 25.1785 68.9234 25.8276C68.0452 26.7058 66.6325 27.1639 64.9525 27.1639C63.6543 27.1258 62.318 26.8203 61.6689 26.3239L62.127 23.9185C62.8525 24.3767 64.227 24.8349 65.258 24.8349C66.0598 24.8349 66.5943 24.453 66.5943 23.8803C66.5943 23.3458 66.2125 22.9639 65.258 22.5058C63.7307 21.7421 62.967 20.7876 62.967 19.6421C62.9289 17.5039 64.838 15.9766 67.7016 15.9766Z" fill="black"/>
<path d="M49.9472 16.0156C50.749 16.0156 51.589 16.1683 52.1618 16.3974L51.6654 18.9556C51.169 18.6884 50.5963 18.5356 49.909 18.5356C47.6181 18.5356 46.2818 20.5211 46.2818 22.4302C46.2818 24.072 47.3508 24.6447 48.3818 24.6447C49.2981 24.6447 50.0618 24.4538 51.0163 23.9575L50.5199 26.592C49.7945 26.9356 48.649 27.1647 47.4654 27.1647C44.7163 27.1647 42.9217 25.4466 42.9217 22.7356C42.8836 18.9174 45.9381 16.0156 49.9472 16.0156Z" fill="black"/>
<path d="M36.9654 19.0694C36.0872 19.9476 35.4763 21.5512 35.4763 22.8112C35.4763 23.9567 35.8963 24.6439 36.6217 24.6439C37.7672 24.6439 38.7981 23.4221 39.1417 21.6276C39.2181 21.2458 39.2945 20.8258 39.3708 20.4821C39.409 20.1385 39.4472 19.7948 39.4472 19.5657C39.409 18.8021 39.0272 18.3821 38.3017 18.3821C37.8436 18.4203 37.3854 18.6494 36.9654 19.0694ZM38.1872 27.0112C38.149 27.0112 38.149 27.0112 38.1872 27.0112L38.2636 26.5149C38.3399 26.0949 38.6836 25.4839 38.8363 25.293L38.8745 25.2549C38.9126 25.1403 38.8363 25.0258 38.7599 24.9876C38.6454 24.9494 38.5308 24.9876 38.4926 25.0639V25.1021C38.4545 25.3312 38.3017 25.8658 37.8054 26.3239C37.1945 26.8967 36.3163 27.2403 35.3617 27.2403C33.2235 27.2403 32.269 25.3694 32.269 23.4603C32.269 21.3221 33.109 19.1839 34.5217 17.7712C35.7054 16.5876 37.2326 15.9766 38.9508 15.9766C40.249 15.9766 41.2036 16.3585 41.8145 17.0839C42.6927 18.153 42.6163 19.7948 42.4254 20.9785L41.2799 27.0112H38.1872Z" fill="black"/>
<path d="M75.1853 24.8349C76.8653 24.8349 78.0871 22.4676 78.0871 20.3294C78.0871 19.833 77.9725 18.573 76.7889 18.573C75.6053 18.573 74.5743 19.9476 74.1925 21.9712C74.078 22.6967 73.6962 24.8349 75.1853 24.8349ZM77.9344 15.9766C80.0344 15.9766 81.4089 17.5803 81.4089 20.1003C81.4089 22.7348 80.1489 25.4076 77.8962 26.6294C76.1398 27.584 74.5362 27.3549 73.7343 26.7439C73.5434 26.5912 73.5053 26.2094 73.4671 26.0567V26.0185C73.4289 25.9039 73.3143 25.8658 73.1998 25.9039C73.1234 25.9421 73.0471 26.0567 73.0852 26.133V26.1712C73.238 26.4385 73.3525 26.6294 73.3143 26.8585L72.6271 30.4858H69.458L72.1689 16.1676H74.9562L74.8798 16.6639C74.7271 17.4276 74.498 17.733 74.3453 17.9239L74.3071 17.9621C74.2689 18.0767 74.3071 18.153 74.3834 18.2294C74.4598 18.2676 74.6125 18.2676 74.6507 18.1912V18.153C74.7271 17.9239 74.918 17.3894 75.338 17.0076C76.1016 16.3203 77.018 15.9766 77.9344 15.9766Z" fill="black"/>
<path d="M54.1851 12.4258H57.316L55.6742 21.0549L59.9506 16.2058H63.3869L58.996 21.1313L61.6688 26.9349H58.2706L55.6742 21.2077L54.5669 26.9349H51.436L54.1851 12.4258Z" fill="black"/>
<path d="M32.7653 15.9766C32.9562 15.9766 33.1853 16.0148 33.3762 16.0148L32.7653 19.1076C32.6507 19.0694 32.4598 19.0694 32.2689 19.0694C30.0925 19.0694 29.2525 21.2076 28.9089 22.9639L28.1452 27.0876H24.9761L27.038 16.2057H29.7871L29.6343 16.9312C29.5198 17.6185 29.2907 18.0385 29.138 18.2294L29.0998 18.2676C29.0616 18.3821 29.138 18.4967 29.2143 18.5348C29.2907 18.573 29.4434 18.573 29.4816 18.4585V18.4203C29.558 18.1912 29.6725 17.6948 30.0925 17.1985C30.9325 16.3967 31.8107 15.9766 32.7653 15.9766Z" fill="black"/>
<path d="M107.984 19.2232C107.984 18.6504 107.525 18.3068 106.838 18.3068C105.769 18.3068 105.005 18.9941 104.585 19.7577C104.28 20.3305 104.204 20.3686 103.898 20.5595L103.86 20.5977C103.784 20.6741 103.784 20.7886 103.86 20.865C103.936 20.9414 104.051 20.9795 104.127 20.9032L104.165 20.865C104.395 20.5977 104.433 20.5214 105.273 20.4832C106.571 20.445 107.335 20.2541 107.716 19.8723C107.869 19.7195 107.984 19.4904 107.984 19.2232ZM103.555 22.5832C103.86 22.8505 104.051 23.2323 104.089 23.3468C104.127 23.5377 104.242 23.7668 104.356 23.9195C104.776 24.4541 105.502 24.7214 106.418 24.7214C107.755 24.7214 108.9 24.4159 110.16 23.6905L109.664 26.325C108.136 27.0886 106.342 27.2032 105.655 27.2032C102.676 27.2032 100.958 25.5614 100.958 22.6595C100.958 20.9795 101.569 19.3377 102.638 18.0777C103.822 16.7032 105.425 15.9395 107.258 15.9395C109.511 15.9395 111 17.2377 111 19.185C111 20.0632 110.695 20.8268 110.122 21.3995C109.167 22.3541 107.411 22.8123 104.776 22.8505C104.165 22.8505 104.013 22.545 103.898 22.3159L103.86 22.2777C103.784 22.2014 103.669 22.2014 103.593 22.2777C103.516 22.3541 103.44 22.4686 103.555 22.5832Z" fill="black"/>
<path d="M99.3165 16.0156C100.118 16.0156 100.958 16.1683 101.531 16.3974L101.035 18.9556C100.538 18.6884 99.9656 18.5356 99.2783 18.5356C96.9874 18.5356 95.6511 20.5211 95.6511 22.4302C95.6511 24.072 96.7202 24.6447 97.7511 24.6447C98.6674 24.6447 99.4311 24.4538 100.385 23.9575L99.8893 26.592C99.1638 26.9356 98.0183 27.1647 96.8347 27.1647C94.0856 27.1647 92.291 25.4466 92.291 22.7356C92.291 18.9174 95.3074 16.0156 99.3165 16.0156Z" fill="black"/>
<path d="M86.3728 19.0694C85.4946 19.9476 84.8837 21.5512 84.8837 22.8112C84.8837 23.9567 85.3037 24.6439 86.0291 24.6439C87.1746 24.6439 88.2055 23.4221 88.5491 21.6276C88.6255 21.2458 88.7018 20.8258 88.7782 20.4821C88.8164 20.1385 88.8546 19.7948 88.8546 19.5657C88.8164 18.8021 88.4346 18.3821 87.7091 18.3821C87.2509 18.4203 86.7928 18.6494 86.3728 19.0694ZM87.5564 27.0112L87.6328 26.5149C87.7091 26.0949 88.0528 25.4839 88.2055 25.293L88.2437 25.2549C88.2819 25.1403 88.2055 25.0258 88.1291 24.9876C88.0146 24.9494 87.9 24.9876 87.8618 25.0639V25.1021C87.7855 25.3312 87.6709 25.8658 87.1746 26.3239C86.5255 26.8967 85.6855 27.2403 84.7309 27.2403C82.5927 27.2403 81.6382 25.3694 81.6382 23.4603C81.6382 21.3221 82.4782 19.1839 83.8909 17.7712C85.0746 16.5876 86.6018 15.9766 88.32 15.9766C89.6182 15.9766 90.5728 16.3585 91.1837 17.0839C92.0619 18.153 91.9855 19.7948 91.7946 20.9785L90.6491 27.0112H87.5564Z" fill="black"/>
<path d="M15.6979 24.989C15.2398 25.2945 14.7434 25.5999 14.2852 25.8672C14.2088 24.4163 13.8652 23.0036 13.3307 21.8199C11.8798 18.689 9.35972 18.4599 7.71789 21.2854C6.68698 23.0036 6.2288 25.4854 6.34335 27.8909C8.09971 28.4636 10.1616 28.5018 12.3379 27.9672C18.6379 26.3636 23.4489 20.1781 23.1052 14.1454C22.7234 8.79994 18.5616 5.36356 13.2543 5.7072C12.7579 6.24175 12.2616 6.73811 11.8034 7.27266C14.8961 6.89084 17.3779 7.50175 18.9816 8.79993C13.4452 16.7036 14.1325 21.1708 15.6979 24.989C15.6979 24.9509 15.6979 24.9509 15.6979 24.989C15.6979 24.989 15.6979 24.9509 15.6979 24.989Z" fill="black"/>
<path fill-rule="evenodd" clip-rule="evenodd" d="M11.9945 12.0836C11.5363 13.0381 11.7272 13.8018 12.4145 13.84C13.1018 13.84 14.0181 13.0763 14.4381 12.1218C14.8963 11.1672 14.7054 10.4036 14.0181 10.3654C13.3309 10.4036 12.4145 11.129 11.9945 12.0836ZM17.4927 8.64726C17.4927 8.64726 17.4927 8.68544 17.4927 8.64726C17.4927 8.68544 17.4927 8.68544 17.4927 8.64726C17.1109 9.79271 16.4236 11.0909 15.7745 12.0836C14.3618 14.1454 12.3763 15.4818 11.3072 14.9854C10.2381 14.5272 10.5054 12.4654 11.88 10.4036C12.1854 9.94544 12.529 9.52544 12.9109 9.14362C12.4909 9.21998 12.0327 9.29635 11.5745 9.41089C6.80175 15.1763 4.77811 22.6982 5.08356 29.4182C2.29628 28.3109 0.272642 25.6 0.043551 22.2018V22.1636C-0.338269 16.1309 4.51083 9.90726 10.8109 8.3418C13.2545 7.73089 15.5454 7.88362 17.4927 8.64726Z" fill="#B90010"/>
</svg>
