<svg width="106" height="40" viewBox="0 0 106 40" fill="none" xmlns="http://www.w3.org/2000/svg">
<path fill-rule="evenodd" clip-rule="evenodd" d="M70.736 26.3652C69.5774 26.3652 69.0707 26.0081 69.0225 25.1426H65.2915C65.3231 28.1776 67.2999 29.4367 69.1521 29.6028C69.2866 29.6136 69.4362 29.6195 69.5973 29.6195C70.7352 29.6195 72.4088 29.2739 72.4088 29.2739V26.2589C72.4088 26.2589 71.0732 26.3652 70.736 26.3652Z" fill="#23242A"/>
<path fill-rule="evenodd" clip-rule="evenodd" d="M89.3212 29.6314H92.9999V10.0586H89.3204L89.3212 29.6314ZM25.4424 20.5439H20.0046C20.1458 19.2731 20.4182 17.9334 22.6882 17.9334C25.3154 17.9334 25.376 19.1925 25.4358 20.4102L25.4424 20.5439ZM22.8161 14.8685H22.6367C21.1425 14.8685 19.0793 15.1875 17.7363 16.7083C16.5776 17.9957 15.9131 19.9226 15.9131 21.9958V22.5249C15.9131 22.8704 15.9605 24.6836 16.8974 26.4369C17.8692 28.2576 19.473 29.3415 21.5354 29.5724C21.89 29.6123 22.2721 29.6322 22.6699 29.6322C25.1426 29.6322 27.5779 28.878 27.68 28.8465L27.8503 28.7925V26.01C27.8503 26.01 24.6401 26.3705 23.5803 26.4045C20.341 26.5092 19.9589 24.8596 19.9207 23.5631H29.0098V21.0771C29.0098 19.0339 28.4882 17.5197 27.4151 16.4508C26.1244 15.1426 24.2024 14.8685 22.8161 14.8685ZM46.6498 20.563H41.2136C41.3548 19.2922 41.6273 17.9525 43.8964 17.9525C46.5236 17.9525 46.585 19.2117 46.644 20.4293L46.6498 20.563ZM44.026 14.8868H43.8458C42.3515 14.8868 40.2884 15.2066 38.9453 16.7265C37.7866 18.0139 37.1222 19.9409 37.1222 22.0141V22.5431C37.1222 22.8887 37.1695 24.7027 38.1056 26.4552C39.0782 28.2758 40.6821 29.3598 42.7436 29.5907C43.0982 29.6305 43.4803 29.6505 43.8782 29.6505C46.3516 29.6505 48.7869 28.8971 48.8891 28.8647L49.0594 28.8107V26.0283C49.0594 26.0283 45.8491 26.3888 44.7885 26.4228C41.5492 26.5275 41.1688 24.8787 41.1289 23.5814H50.2189V21.0954C50.2189 19.0522 49.6964 17.538 48.6241 16.4691C47.3334 15.1592 45.4106 14.8851 44.0252 14.8851L44.026 14.8868ZM83.3302 20.5614H77.8924C78.0327 19.2906 78.306 17.9508 80.5751 17.9508C83.2023 17.9508 83.2638 19.21 83.3227 20.4276C83.3252 20.4725 83.3269 20.5173 83.3302 20.5614ZM80.7039 14.8851H80.5245C79.0303 14.8851 76.9671 15.2049 75.624 16.7249C74.4654 18.0123 73.8009 19.9392 73.8009 22.0124V22.5415C73.8009 22.887 73.8482 24.701 74.7851 26.4535C75.7569 28.2742 77.3608 29.3581 79.4223 29.589C79.7778 29.6289 80.159 29.6488 80.5569 29.6488C83.0304 29.6488 85.4656 28.8955 85.5678 28.8631L85.7381 28.8091V26.0266C85.7381 26.0266 82.5279 26.3871 81.4672 26.4211C78.2279 26.5258 77.8475 24.8771 77.8076 23.5797H86.8976V21.0938C86.8976 19.0505 86.376 17.5364 85.3029 16.4674C84.0121 15.1592 82.0885 14.8851 80.7039 14.8851ZM31.4343 29.6496H35.1138V10.0594H31.4343V29.6496Z" fill="#23242A"/>
<path fill-rule="evenodd" clip-rule="evenodd" d="M59.2293 14.9512C58.6246 14.9512 58.0723 14.9819 57.5872 15.0425C55.5813 15.2884 54.0381 16.4163 53.1245 18.3018C52.2914 20.0211 52.2266 21.7919 52.2266 22.2936C52.2266 22.7927 52.2914 24.5544 53.1261 26.2696C54.0398 28.1467 55.5822 29.2796 57.5847 29.5462C58.0083 29.6027 58.5116 29.631 59.0798 29.631C60.8157 29.631 62.6513 29.3627 62.6696 29.3602L62.8755 29.3295V26.2056C62.8755 26.2056 60.8647 26.3468 59.8539 26.3468C58.598 26.3468 58.0565 26.2638 57.8222 26.1932C56.4069 25.7704 56.2649 23.5536 56.2691 22.6216C56.2707 22.5103 56.2707 22.0793 56.2691 21.9688C56.2649 21.0136 56.4061 18.7528 57.8131 18.3989C58.2243 18.2951 58.9519 18.2411 59.917 18.2411C60.9245 18.2411 62.8755 18.384 62.8755 18.384V15.2444L62.6721 15.2128C62.6554 15.2103 60.986 14.952 59.2293 14.952" fill="#23242A"/>
<path fill-rule="evenodd" clip-rule="evenodd" d="M9.85407 25.1318C9.41385 26.0911 8.18459 26.1824 6.94701 26.1824H6.7975C4.82154 26.1824 0.57392 25.7281 0.530729 25.7231L0.266602 25.6949V29.0546L0.44767 29.102C0.478402 29.1103 4.02168 29.8952 6.61311 29.8952C10.9745 29.8952 13.463 28.2489 13.8293 25.1309H9.85407V25.1318Z" fill="#23242A"/>
<path fill-rule="evenodd" clip-rule="evenodd" d="M69.0185 18.1213H72.2893V15.0124H69.0185V10.0605H65.29V23.4437H69.0185V18.1213Z" fill="#DE1F26"/>
<path fill-rule="evenodd" clip-rule="evenodd" d="M4.96359 20.996C5.89302 21.3581 8.42714 22.3482 8.98363 22.5824C9.35822 22.7385 9.6373 22.9811 9.81422 23.3017L9.88316 23.4279H13.8559L13.8226 23.1414C13.4605 20.03 11.4247 19.2526 9.45623 18.5001C8.5594 18.1658 7.65956 17.8396 6.75683 17.5216C6.28007 17.3514 5.90298 17.2168 5.80497 17.1794C4.6679 16.7384 3.73432 16.2757 3.85475 15.0755C3.95609 14.0589 4.7684 13.642 6.65549 13.6353C8.56252 13.6395 12.4164 13.9758 12.4555 13.9792L12.7146 14.0024V10.8479L12.5344 10.798C12.5078 10.7914 8.86486 10.0762 6.60566 10.0605H6.5118C4.86973 10.0605 3.5084 10.3545 2.46352 10.9359C0.828926 11.8462 0 13.421 0 15.6171C0 18.0324 1.48426 19.6404 4.96359 20.9968V20.996Z" fill="#DE1F26"/>
</svg>
