<svg width="117" height="40" viewBox="0 0 117 40" fill="none" xmlns="http://www.w3.org/2000/svg">
<path d="M44.1067 27.5533C42.1756 27.5533 40.6291 26.917 39.4673 25.6444C38.3055 24.3718 37.7246 22.7161 37.7246 20.6773C37.7246 18.4867 38.3166 16.7392 39.5006 15.4349C40.6845 14.1306 42.2959 13.4785 44.3346 13.4785C46.2151 13.4785 47.7299 14.1116 48.8791 15.3779C50.0282 16.6442 50.6028 18.2999 50.6028 20.3449C50.6028 22.5673 50.014 24.3243 48.8363 25.6159C47.6587 26.9075 46.0821 27.5533 44.1067 27.5533ZM44.2207 14.922C42.7898 14.9221 41.6279 15.4381 40.7352 16.4701C39.8425 17.5021 39.3961 18.8571 39.3961 20.5349C39.3961 22.2127 39.8314 23.5629 40.702 24.5854C41.5725 25.608 42.7074 26.1192 44.1067 26.1192C45.6009 26.1192 46.7786 25.6317 47.6397 24.6567C48.5007 23.6816 48.9313 22.3172 48.9313 20.5634C48.9313 18.7653 48.5134 17.3755 47.6777 16.3941C46.8419 15.4127 45.6896 14.9221 44.2207 14.922Z" fill="#094AB1"/>
<path d="M61.1449 27.3242H59.5874V21.7778C59.5874 19.7138 58.8339 18.6817 57.327 18.6817C56.5482 18.6817 55.904 18.9746 55.3943 19.5602C54.8847 20.1459 54.6298 20.8851 54.6298 21.7778V27.3242H53.0723V17.5991H54.6298V19.2136H54.6678C55.4023 17.9853 56.4659 17.3711 57.8589 17.3711C58.9225 17.3711 59.7361 17.7146 60.2997 18.4016C60.8631 19.0885 61.1449 20.081 61.1449 21.3789V27.3242Z" fill="#094AB1"/>
<path d="M71.9053 22.851H65.0389C65.0642 23.9337 65.3554 24.7694 65.9126 25.3583C66.4698 25.9471 67.2359 26.2415 68.2109 26.2415C69.3063 26.2415 70.313 25.8806 71.231 25.1588V26.6214C70.3763 27.2419 69.2461 27.5521 67.8405 27.5521C66.4666 27.5521 65.3871 27.1105 64.602 26.2273C63.8169 25.344 63.4243 24.1015 63.4243 22.4996C63.4243 20.9864 63.8533 19.7533 64.7112 18.8005C65.5691 17.8476 66.6344 17.3711 67.907 17.3711C69.1796 17.3711 70.1642 17.7827 70.8606 18.6058C71.5571 19.4289 71.9053 20.5717 71.9053 22.0343V22.851ZM70.3098 21.5309C70.3035 20.6318 70.0866 19.9322 69.6592 19.432C69.2319 18.9318 68.6383 18.6817 67.8785 18.6817C67.1441 18.6817 66.5204 18.9445 66.0076 19.47C65.4947 19.9955 65.1781 20.6825 65.0578 21.5309H70.3098Z" fill="#094AB1"/>
<path d="M74.479 27.3241V13.7051H78.2399C83.0391 13.7051 85.4388 15.9179 85.4388 20.3436C85.4388 22.4457 84.7724 24.1346 83.4396 25.4104C82.1068 26.6862 80.3229 27.3241 78.0879 27.3241H74.479ZM76.0745 15.1486V25.8805H78.1069C79.8924 25.8805 81.2822 25.4025 82.2762 24.4464C83.2702 23.4904 83.7673 22.1354 83.7673 20.3816C83.7673 16.893 81.9121 15.1486 78.2019 15.1486H76.0745Z" fill="#094AB1"/>
<path d="M92.9798 19.1752C92.7075 18.9663 92.3149 18.8618 91.8021 18.8618C91.1373 18.8618 90.5817 19.1752 90.1353 19.802C89.689 20.4289 89.4658 21.2836 89.4658 22.3663V27.3238H87.9082V17.5987H89.4658V19.6026H89.5038C89.7254 18.9188 90.0641 18.3854 90.52 18.0023C90.9758 17.6193 91.4855 17.4277 92.049 17.4277C92.4542 17.4277 92.7645 17.4721 92.9798 17.5607V19.1752Z" fill="#094AB1"/>
<path d="M95.4676 15.1303C95.189 15.1303 94.9516 15.0353 94.7553 14.8454C94.5591 14.6554 94.4609 14.4148 94.4609 14.1236C94.4609 13.8323 94.5591 13.5902 94.7553 13.397C94.9516 13.2039 95.189 13.1074 95.4676 13.1074C95.7525 13.1074 95.9947 13.2039 96.1942 13.397C96.3936 13.5902 96.4933 13.8323 96.4933 14.1236C96.4933 14.4022 96.3936 14.6396 96.1942 14.8359C95.9947 15.0322 95.7525 15.1303 95.4676 15.1303ZM96.2274 27.3247H94.6699V17.5996H96.2274V27.3247Z" fill="#094AB1"/>
<path d="M107.026 17.5996L103.151 27.3248H101.622L97.937 17.5996H99.6465L102.116 24.6655C102.299 25.1847 102.413 25.6374 102.458 26.0236H102.496C102.559 25.5361 102.66 25.0961 102.8 24.7035L105.383 17.5996H107.026Z" fill="#094AB1"/>
<path d="M116.504 22.851H109.638C109.663 23.9337 109.954 24.7694 110.511 25.3583C111.069 25.9471 111.835 26.2415 112.81 26.2415C113.905 26.2415 114.912 25.8806 115.83 25.1588V26.6214C114.975 27.2419 113.845 27.5521 112.439 27.5521C111.065 27.5521 109.986 27.1105 109.201 26.2273C108.416 25.344 108.023 24.1015 108.023 22.4996C108.023 20.9864 108.452 19.7533 109.31 18.8005C110.168 17.8476 111.233 17.3711 112.506 17.3711C113.778 17.3711 114.763 17.7827 115.459 18.6058C116.156 19.4289 116.504 20.5717 116.504 22.0343V22.851ZM114.909 21.5309C114.902 20.6318 114.685 19.9322 114.258 19.432C113.831 18.9318 113.237 18.6817 112.477 18.6817C111.743 18.6817 111.119 18.9445 110.606 19.47C110.094 19.9955 109.777 20.6825 109.657 21.5309H114.909Z" fill="#094AB1"/>
<path d="M10.8057 29.4779C8.80888 28.979 7.69641 27.3917 7.69289 25.0366C7.69177 24.2837 7.74625 23.9229 7.9342 23.4386C8.39491 22.2515 9.61467 21.3559 11.2198 21.0262C12.0184 20.8622 12.2645 20.686 12.2645 20.2784C12.2645 20.1505 12.3595 19.7695 12.4757 19.4318C13.0035 17.8978 13.9807 16.619 15.0249 16.0958C16.1178 15.5483 16.6695 15.4248 17.9915 15.4319C19.869 15.442 20.8057 15.8493 22.1158 17.2252L22.8363 17.9818L23.4818 17.7585C26.6058 16.6773 29.7202 18.5177 29.9712 21.5933L30.0399 22.4347L30.6551 22.6551C32.412 23.2846 33.2378 24.6064 33.0881 26.5494C32.9902 27.8201 32.396 28.8346 31.4549 29.3383L31.0124 29.575L21.1792 29.594C13.6229 29.6085 11.2209 29.5817 10.8057 29.4779Z" fill="#094AB1"/>
<path d="M3.43406 28.1196C2.26834 27.8426 1.03313 26.813 0.453918 25.6355C0.125356 24.9676 0.10791 24.8693 0.10791 23.6877C0.10791 22.5638 0.135949 22.3835 0.397509 21.8254C0.948903 20.649 2.00537 19.799 3.33091 19.4652C3.61067 19.3947 3.87354 19.2823 3.91507 19.2153C3.95661 19.1484 4.00275 18.7835 4.0176 18.4045C4.10987 16.0508 5.65419 13.9769 7.81057 13.3109C8.97556 12.9511 10.4391 13.0396 11.7063 13.5465C12.1081 13.7073 12.0629 13.7417 12.9126 12.6275C13.4152 11.9686 14.4306 11.1491 15.2618 10.7316C16.1588 10.2811 17.0918 10.0735 18.2074 10.0762C21.3257 10.0839 24.0131 12.0343 25.0068 15.011C25.3243 15.9621 25.3085 16.2284 24.934 16.2363C24.7705 16.2397 24.3023 16.3297 23.8933 16.4363L23.15 16.6301L22.4714 15.9517C20.5586 14.0388 17.437 13.6254 14.7831 14.9334C13.7229 15.456 12.871 16.2062 12.2274 17.1838C11.7687 17.8808 11.1837 19.1811 11.1837 19.504C11.1837 19.733 10.9983 19.8474 10.2063 20.1072C7.75428 20.9113 6.32309 22.7684 6.32407 25.1447C6.3244 26.0097 6.54716 27.068 6.85639 27.6741C6.97296 27.9026 7.038 28.1199 7.00093 28.157C6.90611 28.2518 3.85579 28.2198 3.43406 28.1196Z" fill="#094AB1"/>
</svg>
