<svg width="108" height="40" viewBox="0 0 108 40" fill="none" xmlns="http://www.w3.org/2000/svg">
<path d="M35.9263 26.999V15.0034H31.4453V13.3984H42.2256V15.0034H37.7261V26.999H35.9263Z" fill="black"/>
<path d="M48.4971 23.8261L50.2227 24.0395C49.9505 25.0477 49.4465 25.8301 48.7104 26.3867C47.9744 26.9433 47.0343 27.2217 45.8901 27.2217C44.4491 27.2217 43.3049 26.7794 42.4575 25.895C41.6164 25.0044 41.1958 23.7581 41.1958 22.1562C41.1958 20.4987 41.6226 19.2122 42.4761 18.2969C43.3296 17.3815 44.4367 16.9238 45.7974 16.9238C47.1147 16.9238 48.1909 17.3722 49.0259 18.269C49.8608 19.1658 50.2783 20.4275 50.2783 22.0542C50.2783 22.1531 50.2752 22.3016 50.269 22.4995H42.9214C42.9832 23.5818 43.2894 24.4106 43.8398 24.9858C44.3903 25.561 45.0768 25.8486 45.8994 25.8486C46.5117 25.8486 47.0343 25.6878 47.4673 25.3662C47.9002 25.0446 48.2435 24.5312 48.4971 23.8261ZM43.0142 21.1264H48.5156C48.4414 20.2977 48.2311 19.6761 47.8848 19.2617C47.3529 18.6185 46.6632 18.2969 45.8159 18.2969C45.049 18.2969 44.4027 18.5535 43.877 19.0669C43.3574 19.5802 43.0698 20.2667 43.0142 21.1264Z" fill="black"/>
<path d="M52.2915 26.999V13.3984H53.9614V26.999H52.2915Z" fill="black"/>
<path d="M63.3037 23.8261L65.0293 24.0395C64.7572 25.0477 64.2531 25.8301 63.5171 26.3867C62.7811 26.9433 61.841 27.2217 60.6968 27.2217C59.2557 27.2217 58.1115 26.7794 57.2642 25.895C56.423 25.0044 56.0024 23.7581 56.0024 22.1562C56.0024 20.4987 56.4292 19.2122 57.2827 18.2969C58.1362 17.3815 59.2433 16.9238 60.604 16.9238C61.9214 16.9238 62.9976 17.3722 63.8325 18.269C64.6675 19.1658 65.085 20.4275 65.085 22.0542C65.085 22.1531 65.0819 22.3016 65.0757 22.4995H57.728C57.7899 23.5818 58.096 24.4106 58.6465 24.9858C59.1969 25.561 59.8835 25.8486 60.7061 25.8486C61.3184 25.8486 61.841 25.6878 62.2739 25.3662C62.7069 25.0446 63.0501 24.5312 63.3037 23.8261ZM57.8208 21.1264H63.3223C63.248 20.2977 63.0378 19.6761 62.6914 19.2617C62.1595 18.6185 61.4699 18.2969 60.6226 18.2969C59.8556 18.2969 59.2093 18.5535 58.6836 19.0669C58.1641 19.5802 57.8765 20.2667 57.8208 21.1264Z" fill="black"/>
<path d="M66.8291 27.8154L68.4526 28.0566C68.5207 28.5576 68.7093 28.9225 69.0186 29.1513C69.4329 29.4606 69.9989 29.6152 70.7163 29.6152C71.4894 29.6152 72.0863 29.4606 72.5068 29.1513C72.9274 28.8421 73.2119 28.4092 73.3604 27.8525C73.4469 27.5123 73.4871 26.798 73.481 25.7094C72.7511 26.5691 71.842 26.999 70.7534 26.999C69.3989 26.999 68.3506 26.5104 67.6084 25.5332C66.8662 24.556 66.4951 23.3839 66.4951 22.0171C66.4951 21.077 66.6652 20.2111 67.0054 19.4194C67.3455 18.6216 67.8372 18.0062 68.4805 17.5732C69.1299 17.1403 69.8906 16.9238 70.7627 16.9238C71.9255 16.9238 72.8841 17.3939 73.6387 18.334V17.1465H75.1787V25.6631C75.1787 27.1969 75.021 28.2824 74.7056 28.9194C74.3963 29.5626 73.9015 30.0698 73.2212 30.4409C72.547 30.812 71.7152 30.9975 70.7256 30.9975C69.5505 30.9975 68.6011 30.7316 67.8774 30.1997C67.1538 29.674 66.8044 28.8792 66.8291 27.8154ZM68.2114 21.8965C68.2114 23.1891 68.4681 24.1323 68.9814 24.7261C69.4948 25.3198 70.138 25.6167 70.9111 25.6167C71.6781 25.6167 72.3213 25.3229 72.8408 24.7353C73.3604 24.1416 73.6201 23.2138 73.6201 21.9521C73.6201 20.7461 73.3511 19.8369 72.813 19.2246C72.2811 18.6123 71.6379 18.3061 70.8833 18.3061C70.1411 18.3061 69.5103 18.6092 68.9907 19.2153C68.4712 19.8152 68.2114 20.709 68.2114 21.8965Z" fill="black"/>
<path d="M77.6929 26.999V17.1465H79.1958V18.6401C79.5793 17.9412 79.9318 17.4804 80.2534 17.2578C80.5812 17.0351 80.9399 16.9238 81.3296 16.9238C81.8924 16.9238 82.4645 17.1032 83.0459 17.4619L82.4707 19.0112C82.0625 18.77 81.6543 18.6494 81.2461 18.6494C80.8812 18.6494 80.5534 18.7607 80.2627 18.9834C79.972 19.1998 79.7648 19.5029 79.6411 19.8926C79.4556 20.4863 79.3628 21.1357 79.3628 21.8408V26.999H77.6929Z" fill="black"/>
<path d="M90.4678 25.7837C89.8493 26.3094 89.2524 26.6805 88.6772 26.8969C88.1082 27.1134 87.4959 27.2217 86.8403 27.2217C85.758 27.2217 84.9261 26.9588 84.3447 26.4331C83.7633 25.9012 83.4727 25.2239 83.4727 24.4013C83.4727 23.9189 83.5809 23.4798 83.7974 23.084C84.02 22.6819 84.3076 22.3603 84.6602 22.1191C85.0189 21.8779 85.4209 21.6955 85.8662 21.5718C86.194 21.4852 86.6888 21.4017 87.3506 21.3213C88.6989 21.1605 89.6916 20.9687 90.3286 20.7461C90.3348 20.5172 90.3379 20.3719 90.3379 20.31C90.3379 19.6297 90.1802 19.1504 89.8647 18.872C89.438 18.4948 88.804 18.3061 87.9629 18.3061C87.1774 18.3061 86.596 18.4453 86.2188 18.7236C85.8477 18.9957 85.5724 19.4813 85.3931 20.1802L83.7603 19.9575C83.9087 19.2586 84.153 18.6958 84.4932 18.269C84.8333 17.8361 85.325 17.5052 85.9683 17.2763C86.6115 17.0413 87.3568 16.9238 88.2041 16.9238C89.0452 16.9238 89.7287 17.0228 90.2544 17.2207C90.7801 17.4186 91.1667 17.6691 91.4141 17.9721C91.6615 18.269 91.8346 18.6463 91.9336 19.104C91.9893 19.3885 92.0171 19.9018 92.0171 20.644V22.8706C92.0171 24.423 92.0511 25.4064 92.1191 25.8208C92.1934 26.229 92.3356 26.6217 92.5459 26.999H90.8018C90.6286 26.6526 90.5173 26.2475 90.4678 25.7837ZM90.3286 22.0542C89.7225 22.3016 88.8133 22.5119 87.6011 22.685C86.9146 22.784 86.429 22.8953 86.1445 23.019C85.86 23.1427 85.6405 23.3252 85.4858 23.5664C85.3312 23.8014 85.2539 24.0643 85.2539 24.355C85.2539 24.8003 85.4209 25.1714 85.7549 25.4682C86.0951 25.7651 86.5898 25.9136 87.2393 25.9136C87.8825 25.9136 88.4546 25.7744 88.9556 25.4961C89.4565 25.2116 89.8245 24.825 90.0596 24.3364C90.2389 23.9591 90.3286 23.4025 90.3286 22.6665V22.0542Z" fill="black"/>
<path d="M94.6147 26.999V17.1465H96.1084V18.5288C96.4176 18.0464 96.8289 17.6598 97.3423 17.3691C97.8556 17.0722 98.4401 16.9238 99.0957 16.9238C99.8255 16.9238 100.422 17.0753 100.886 17.3784C101.356 17.6815 101.687 18.1051 101.879 18.6494C102.658 17.499 103.673 16.9238 104.922 16.9238C105.899 16.9238 106.651 17.1959 107.176 17.7402C107.702 18.2783 107.965 19.1102 107.965 20.2358V26.999H106.304V20.7925C106.304 20.1245 106.249 19.6452 106.137 19.3545C106.032 19.0576 105.837 18.8195 105.553 18.6401C105.268 18.4608 104.934 18.3711 104.551 18.3711C103.858 18.3711 103.283 18.603 102.825 19.0669C102.368 19.5246 102.139 20.2606 102.139 21.2749V26.999H100.469V20.5976C100.469 19.8554 100.333 19.2988 100.061 18.9277C99.7884 18.5566 99.3431 18.3711 98.7246 18.3711C98.2546 18.3711 97.8185 18.4948 97.4165 18.7422C97.0207 18.9896 96.7331 19.3514 96.5537 19.8276C96.3743 20.3039 96.2847 20.9904 96.2847 21.8872V26.999H94.6147Z" fill="black"/>
<path d="M13 32C19.6274 32 25 26.6274 25 20C25 13.3726 19.6274 8 13 8C6.37258 8 1 13.3726 1 20C1 26.6274 6.37258 32 13 32Z" fill="url(#paint0_linear)"/>
<path d="M10.8002 25.5C10.4114 25.5 10.4775 25.3532 10.3434 24.983L9.2002 21.2206L18.0002 16" fill="#C8DAEA"/>
<path d="M10.5029 25.5007C10.7947 25.5007 10.9236 25.3635 11.0864 25.2007L12.6424 23.6449L10.7015 22.4414" fill="#A9C9DD"/>
<path d="M11.0042 22.4418L15.8402 26.0147C16.3921 26.3192 16.7903 26.1615 16.9278 25.5023L18.8963 16.226C19.0978 15.418 18.5883 15.0515 18.0604 15.2912L6.50137 19.7483C5.71236 20.0648 5.71696 20.505 6.35755 20.7011L9.32385 21.627L16.1911 17.2945C16.5153 17.0979 16.8129 17.2036 16.5687 17.4203" fill="url(#paint1_linear)"/>
<defs>
<linearGradient id="paint0_linear" x1="17.0008" y1="12.0008" x2="11.0008" y2="26" gradientUnits="userSpaceOnUse">
<stop stop-color="#37AEE2"/>
<stop offset="1" stop-color="#1E96C8"/>
</linearGradient>
<linearGradient id="paint1_linear" x1="14.5007" y1="20.0007" x2="16.3786" y2="24.274" gradientUnits="userSpaceOnUse">
<stop stop-color="#EFF7FC"/>
<stop offset="1" stop-color="white"/>
</linearGradient>
</defs>
</svg>
