<svg width="106" height="40" viewBox="0 0 106 40" fill="none" xmlns="http://www.w3.org/2000/svg">
<path d="M71.0978 10.5927H65.7548C65.6334 10.5927 65.512 10.7141 65.512 10.8356V13.932C65.512 14.0535 65.6334 14.1749 65.7548 14.1749H71.0978C71.2192 14.1749 71.3407 14.0535 71.3407 13.932V10.8356C71.4014 10.7141 71.2799 10.5927 71.0978 10.5927ZM71.0371 15.2071H60.7155C60.594 15.2071 60.4119 15.3285 60.3512 15.4499L59.0154 20.4893L58.9547 20.7322L57.3761 15.3285C57.3154 15.2071 57.194 15.0856 57.0118 15.0856H53.0046C52.8832 15.0856 52.701 15.2071 52.6403 15.3285L51.1224 20.3679L51.0617 20.6107L51.001 20.4893L50.3938 18L49.726 15.5106C49.6652 15.3892 49.5438 15.2678 49.3617 15.2678H41.2865V10.8963C41.2865 10.7748 41.1044 10.5927 40.9222 10.6534L35.8221 12.232C35.64 12.2927 35.5793 12.3534 35.5793 12.4749V15.2071H34.2435C34.1221 15.2071 34.0007 15.3285 34.0007 15.4499V19.3357C34.0007 19.4572 34.1221 19.5786 34.2435 19.5786H35.5793V24.3144C35.5793 27.6537 37.4007 29.2323 40.7401 29.2323C42.1365 29.2323 43.4723 28.9288 44.383 28.443V24.4358C44.383 24.2537 44.2009 24.193 44.0794 24.193C43.533 24.4358 43.108 24.4965 42.6222 24.4965C41.7115 24.4965 41.2258 24.1322 41.2258 23.1001V19.6393H44.1401C44.2616 19.6393 44.383 19.5179 44.383 19.3964V16.1178L48.2081 28.8073C48.2688 28.9287 48.3902 29.0502 48.5724 29.0502H52.8224C52.9439 29.0502 53.126 28.9287 53.1867 28.8073L55.0082 23.1608L55.9189 26.0751L56.769 28.7466C56.8297 28.8681 56.9511 28.9895 57.1332 28.9895H61.3833C61.5048 28.9895 61.6869 28.8681 61.7476 28.7466L65.6334 15.9964V28.7466C65.6334 28.8681 65.7548 28.9895 65.8763 28.9895H71.0371C71.1585 28.9895 71.2799 28.8681 71.2799 28.7466V15.5106C71.2799 15.3285 71.1585 15.2071 71.0371 15.2071ZM77.8372 10.5927H72.6764C72.555 10.5927 72.4335 10.7141 72.4335 10.8356V28.7466C72.4335 28.8681 72.555 28.9895 72.6764 28.9895H77.8372C77.9586 28.9895 78.0801 28.8681 78.0801 28.7466V10.8356C78.0801 10.7141 77.9586 10.5927 77.8372 10.5927ZM84.6981 10.5927H79.3551C79.2337 10.5927 79.1122 10.7141 79.1122 10.8356V13.932C79.1122 14.0535 79.2337 14.1749 79.3551 14.1749H84.6981C84.8195 14.1749 84.9409 14.0535 84.9409 13.932V10.8356C85.0016 10.7141 84.8802 10.5927 84.6981 10.5927ZM84.6373 15.2071H79.4765C79.3551 15.2071 79.2337 15.3285 79.2337 15.4499V28.7466C79.2337 28.8681 79.3551 28.9895 79.4765 28.9895H84.6373C84.7588 28.9895 84.8802 28.8681 84.8802 28.7466V15.5106C84.8802 15.3285 84.7588 15.2071 84.6373 15.2071ZM93.1982 14.9035C88.6446 14.9035 85.4266 18.2428 85.4266 22.1286V22.1893C85.4266 26.0751 88.6446 29.3538 93.1375 29.3538C97.6912 29.3538 100.909 26.0144 100.909 22.1286V22.0679C100.909 18.1821 97.6912 14.9035 93.1982 14.9035ZM95.384 22.1286C95.384 23.4644 94.4733 24.4965 93.1982 24.4965C91.9232 24.4965 90.9518 23.4037 90.9518 22.0679V22.0072C90.9518 20.6715 91.8625 19.6393 93.1375 19.6393C94.4125 19.6393 95.384 20.7322 95.384 22.1286ZM15.1789 4.64258C6.80013 4.64258 0 11.4427 0 19.8214C0 28.2002 6.80013 35.0003 15.1789 35.0003C23.5576 35.0003 30.3577 28.2002 30.3577 19.8214C30.3577 11.4427 23.5576 4.64258 15.1789 4.64258ZM15.1789 30.9931C8.98589 30.9931 4.00722 26.0144 4.00722 19.8214C4.00722 13.6285 8.98589 8.64981 15.1789 8.64981C21.3718 8.64981 26.3505 13.6285 26.3505 19.8214C26.3505 26.0144 21.3718 30.9931 15.1789 30.9931Z" fill="#F12E45"/>
<path d="M18.9433 19.2148C20.687 19.2148 22.1005 17.8013 22.1005 16.0576C22.1005 14.3139 20.687 12.9004 18.9433 12.9004C17.1997 12.9004 15.7861 14.3139 15.7861 16.0576C15.7861 17.8013 17.1997 19.2148 18.9433 19.2148Z" fill="#F12E45"/>
<path d="M18.9433 26.7421C20.687 26.7421 22.1005 25.3286 22.1005 23.5849C22.1005 21.8413 20.687 20.4277 18.9433 20.4277C17.1997 20.4277 15.7861 21.8413 15.7861 23.5849C15.7861 25.3286 17.1997 26.7421 18.9433 26.7421Z" fill="#F12E45"/>
<path d="M11.4145 26.7421C13.1582 26.7421 14.5717 25.3286 14.5717 23.5849C14.5717 21.8413 13.1582 20.4277 11.4145 20.4277C9.67083 20.4277 8.25732 21.8413 8.25732 23.5849C8.25732 25.3286 9.67083 26.7421 11.4145 26.7421Z" fill="#F12E45"/>
<path d="M11.4145 19.2148C13.1582 19.2148 14.5717 17.8013 14.5717 16.0576C14.5717 14.3139 13.1582 12.9004 11.4145 12.9004C9.67083 12.9004 8.25732 14.3139 8.25732 16.0576C8.25732 17.8013 9.67083 19.2148 11.4145 19.2148Z" fill="#F12E45"/>
</svg>
