<svg width="16" height="16" viewBox="0 0 16 16" fill="none" xmlns="http://www.w3.org/2000/svg">
<g clip-path="url(#clip0)">
<path d="M13 7.00098V5.00233C13 2.30355 10.823 0.0491111 8.14622 0.000986167C8.07308 -0.000328722 7.92693 -0.000328722 7.85383 0.000986167C5.17694 0.0491111 3 2.30355 3 5.00233V7.00085C2.39798 7.00085 2.0001 7.35791 2.0001 8.00063L2 14.8888C2 15.5004 2.55483 16.0009 3.03532 16.0009L13.0001 16.0008C13.4806 16.0008 14 15.5004 14 14.8888L14.0001 8.00062C14 7.50098 14 7.00098 13 7.00098ZM11 7.00085H8.14622H7.85383L5 7.00098V5.00098C5 3.39336 6.39666 2.00098 8 2.00098C9.60334 2.00098 11 3.39336 11 5.00098V7.00085Z" fill="#657077"/>
</g>
<defs>
<clipPath id="clip0">
<rect width="16" height="16" fill="white"/>
</clipPath>
</defs>
</svg>
