<svg width="18" height="16" viewBox="0 0 18 16" fill="none" xmlns="http://www.w3.org/2000/svg">
<path d="M9.23442 13.6372C9.0878 13.5594 8.91209 13.5594 8.76546 13.6372L4.43263 15.9378C4.05995 16.1357 3.62484 15.8114 3.70794 15.3977L4.66116 10.6524C4.69316 10.4931 4.64578 10.3282 4.53413 10.2102L1.11339 6.59532C0.829893 6.29574 1.01062 5.80108 1.42048 5.75482L6.06754 5.23028C6.24266 5.21052 6.39445 5.10001 6.46705 4.93943L8.54435 0.344916C8.72159 -0.0471014 9.2783 -0.0470999 9.45554 0.344917L11.5328 4.93943C11.6054 5.10001 11.7572 5.21052 11.9324 5.23028L16.5794 5.75482C16.9893 5.80108 17.17 6.29574 16.8865 6.59533L13.4658 10.2102C13.3541 10.3282 13.3067 10.4931 13.3387 10.6524L14.292 15.3977C14.3751 15.8114 13.94 16.1357 13.5673 15.9378L9.23442 13.6372Z" fill="#657077"/>
</svg>
