<svg width="20" height="18" viewBox="0 0 20 18" fill="none" xmlns="http://www.w3.org/2000/svg">
<path fill-rule="evenodd" clip-rule="evenodd" d="M19.8314 3.35196L14.6004 0.0893425C14.3864 -0.0442698 14.0534 -0.0259053 13.857 0.130265L9.99994 3.19445L16.0674 6.76439L10.3938 10.1137C10.1763 10.2421 10.1594 10.4728 10.3561 10.629L13.857 13.4104C14.0537 13.5666 14.3864 13.585 14.6004 13.4514L19.8314 10.189C20.0454 10.0553 20.0573 9.8233 19.8578 9.67038L16.0674 6.76439L19.8573 3.86967C20.057 3.71726 20.0454 3.48539 19.8314 3.35196ZM5.41154 0.0889087L0.168748 3.35221C-0.0455127 3.48561 -0.0573089 3.71726 0.142358 3.86971L3.93225 6.76442L9.99994 3.19449L6.15497 0.130735C5.95852 -0.0256884 5.6258 -0.0442698 5.41154 0.0889087ZM13.881 14.1277L10.0245 11.0748V11.0509L10.0122 11.0629L9.99998 11.0509V11.0748L6.15546 14.1271C5.95878 14.2833 5.62603 14.3014 5.41199 14.1678L3.99406 13.2822V14.1081C3.99406 14.3526 4.17176 14.6524 4.39113 14.778C4.39113 14.778 10.0002 17.9942 10.0002 17.9975C10.0002 18.0008 10.0029 18.0008 10.0064 17.9975C10.0099 17.9942 10.0152 17.9942 10.0187 17.9975C10.0221 18.0008 10.0249 18.0008 10.0249 17.9975C10.0249 17.9942 15.646 14.7776 15.646 14.7776C15.8654 14.6521 16.0433 14.3523 16.0433 14.1081V13.2822L14.6254 14.1678C14.411 14.3014 14.0777 14.2835 13.881 14.1277ZM5.41131 13.4519L0.168748 10.1885C-0.0452858 10.0553 -0.0573467 9.8233 0.142131 9.67038L3.93251 6.76439L9.99998 10.3463L6.15478 13.41C5.95833 13.5665 5.62558 13.5853 5.41131 13.4519Z" fill="#657077"/>
</svg>
