<svg width="16" height="16" viewBox="0 0 16 16" fill="none" xmlns="http://www.w3.org/2000/svg">
<path fill-rule="evenodd" clip-rule="evenodd" d="M6.14502 -1.07443e-06L14.8481 -2.59613e-06C15.4812 -2.70681e-06 15.9962 0.515037 15.9962 1.14808L15.9962 9.85224C15.9962 10.4853 15.4812 11.0004 14.8481 11.0004L11.9896 11.0004L11.9896 6.03888C11.9896 4.82791 11.242 4.00369 10.031 4.00369L4.99694 4.00369L4.99694 1.14809C4.99693 0.515038 5.51194 -9.63738e-07 6.14502 -1.07443e-06ZM1.12973 4.99872L9.87024 4.99872C10.4932 4.99872 11 5.50551 11 6.12845L11 14.8703C11 15.4932 10.4932 16 9.87028 16L1.12973 16C0.50679 16 3.70837e-05 15.4932 2.6e-06 14.8703L1.07154e-06 6.12845C9.62618e-07 5.50551 0.506823 4.99872 1.12973 4.99872Z" fill="#A3A9AE"/>
</svg>
