<svg width="12" height="12" viewBox="0 0 12 12" fill="none" xmlns="http://www.w3.org/2000/svg">
<path fill-rule="evenodd" clip-rule="evenodd" d="M7.76288 6.35869C7.56764 6.16343 7.56764 5.84687 7.76288 5.65161L10.9493 2.46498C11.1445 2.26973 11.1445 1.95316 10.9493 1.75791L10.2422 1.05077C10.0469 0.855489 9.73031 0.855489 9.53504 1.05077L6.34878 4.23729C6.15352 4.43257 5.83691 4.43257 5.64165 4.23729L2.46017 1.05556C2.26491 0.860275 1.9483 0.860275 1.75304 1.05556L1.04596 1.76269C0.850716 1.95795 0.850716 2.27451 1.04596 2.46977L4.22755 5.65161C4.42279 5.84687 4.42279 6.16343 4.22755 6.35869L1.0501 9.53639C0.854858 9.73165 0.854858 10.0482 1.0501 10.2435L1.75718 10.9506C1.95245 11.1459 2.26905 11.1459 2.46432 10.9506L5.64165 7.77302C5.83691 7.57774 6.15352 7.57774 6.34878 7.77302L9.5309 10.9554C9.72616 11.1507 10.0428 11.1507 10.238 10.9554L10.9451 10.2483C11.1404 10.053 11.1404 9.73644 10.9451 9.54118L7.76288 6.35869Z" fill="#657077"/>
</svg>
