<svg width="16" height="16" viewBox="0 0 16 16" fill="none" xmlns="http://www.w3.org/2000/svg">
<path fill-rule="evenodd" clip-rule="evenodd" d="M8 0C10.1087 0 11.8182 1.65314 11.8182 3.6923C11.8182 5.73162 10.1087 7.3846 8 7.3846C5.89131 7.3846 4.18182 5.73147 4.18182 3.6923C4.18182 1.65314 5.89131 0 8 0ZM13.2033 16H2.7966C1.80438 16 1 15.2493 1 14.3349C1 10.1384 3.04722 8.5 5.22439 8.55393C5.97924 9.03774 6.8958 9.32204 7.88484 9.32204C8.91013 9.32204 9.85753 9.01658 10.6275 8.5C13.0519 8.5 15 10.1384 15 14.3349C15 15.2493 14.1956 16 13.2033 16Z" fill="#657077"/>
</svg>
