<svg width="100" height="100" viewBox="0 0 100 100" fill="none" xmlns="http://www.w3.org/2000/svg">
<g clip-path="url(#clip0_22900_255424)">
<path fill-rule="evenodd" clip-rule="evenodd" d="M80 6.667C80 4.45786 78.2091 2.66699 76 2.66699H48.5424H17.5003C17.2343 2.66699 16.9792 2.77296 16.7916 2.96145L2.958 16.8562C2.77142 17.0436 2.66666 17.2973 2.66666 17.5617V93.3337C2.66666 95.5428 4.45752 97.3337 6.66666 97.3337H76C78.2091 97.3337 80 95.5428 80 93.3337V62.0003V37.667V13.3337V6.667Z" fill="white"/>
<path d="M79.667 55.6668L79.667 93.0002C79.667 95.2093 77.8761 97.0002 75.667 97.0002L6.33366 97.0002C4.12452 97.0002 2.33366 95.2093 2.33366 93.0002L2.33366 17.7477C2.33366 17.4825 2.43901 17.2281 2.62655 17.0406L17.0408 2.62639C17.2283 2.43885 17.4827 2.3335 17.7479 2.3335L75.667 2.3335C77.8761 2.3335 79.667 4.12435 79.667 6.33349V14.1668" stroke="#333333" stroke-linecap="round" stroke-linejoin="round"/>
<path d="M16.9795 2.31344C17.1225 2.17044 17.3375 2.12766 17.5243 2.20505C17.7112 2.28244 17.833 2.46476 17.833 2.66699V14.3337C17.833 16.2667 16.266 17.8337 14.333 17.8337H2.66634C2.46411 17.8337 2.28179 17.7118 2.2044 17.525C2.12701 17.3382 2.16979 17.1231 2.31279 16.9801L16.9795 2.31344Z" fill="url(#paint0_linear_22900_255424)" stroke="#333333" stroke-linejoin="round"/>
<path fill-rule="evenodd" clip-rule="evenodd" d="M29.473 24.3359C29.473 24.0598 29.2491 23.8359 28.973 23.8359H23.7933C23.5172 23.8359 23.2933 24.0598 23.2933 24.3359C23.2933 24.6121 23.5172 24.8359 23.7933 24.8359H28.973C29.2491 24.8359 29.473 24.6121 29.473 24.3359ZM52.167 44.3316C52.167 44.0554 51.9431 43.8316 51.667 43.8316H37.0003C36.7242 43.8316 36.5003 44.0554 36.5003 44.3316C36.5003 44.6077 36.7242 44.8316 37.0003 44.8316H51.667C51.9431 44.8316 52.167 44.6077 52.167 44.3316ZM30.8337 44.3316C30.8337 44.0554 30.6098 43.8316 30.3337 43.8316H15.667C15.3909 43.8316 15.167 44.0554 15.167 44.3316C15.167 44.6077 15.3909 44.8316 15.667 44.8316H30.3337C30.6098 44.8316 30.8337 44.6077 30.8337 44.3316ZM56.0003 53.8324C56.2765 53.8324 56.5003 54.0562 56.5003 54.3324C56.5003 54.6085 56.2765 54.8324 56.0003 54.8324H15.3337C15.0575 54.8324 14.8337 54.6085 14.8337 54.3324C14.8337 54.0562 15.0575 53.8324 15.3337 53.8324H56.0003ZM44.8337 34.3367C44.8337 34.0606 44.6098 33.8367 44.3337 33.8367H15.6696C15.3935 33.8367 15.1696 34.0606 15.1696 34.3367C15.1696 34.6129 15.3935 34.8367 15.6696 34.8367H44.3337C44.6098 34.8367 44.8337 34.6129 44.8337 34.3367ZM34.3337 63.8327C34.6098 63.8327 34.8337 64.0565 34.8337 64.3327C34.8337 64.6088 34.6098 64.8327 34.3337 64.8327H15.3046C15.0285 64.8327 14.8046 64.6088 14.8046 64.3327C14.8046 64.0565 15.0285 63.8327 15.3046 63.8327H34.3337ZM42.8337 84.3285C42.8337 84.0523 42.6098 83.8285 42.3337 83.8285H15.0519C14.7758 83.8285 14.5519 84.0523 14.5519 84.3285C14.5519 84.6046 14.7758 84.8285 15.0519 84.8285H42.3337C42.6098 84.8285 42.8337 84.6046 42.8337 84.3285ZM57.667 73.8336C57.9431 73.8336 58.167 74.0575 58.167 74.3336C58.167 74.6097 57.9431 74.8336 57.667 74.8336H15.4776C15.2015 74.8336 14.9776 74.6097 14.9776 74.3336C14.9776 74.0575 15.2015 73.8336 15.4776 73.8336H57.667Z" fill="#333333"/>
<path d="M56.667 64.3325H41.9713" stroke="#333333" stroke-linecap="round"/>
<path d="M61.333 14H34.6663" stroke="url(#paint1_linear_22900_255424)" stroke-width="2" stroke-linecap="round"/>
<path d="M74.6085 50.54L74.5008 50.6763V50.85V77.1281C74.5008 77.157 74.4918 77.2141 74.4613 77.2879C74.4375 77.3456 74.4067 77.3987 74.3749 77.4408L66.9144 71.576C66.9141 71.5757 66.9137 71.5755 66.9134 71.5753C66.7972 71.4832 66.6775 71.4112 66.5833 71.356C66.5656 71.3456 66.549 71.3359 66.5334 71.3268C66.4569 71.2822 66.4043 71.2515 66.3567 71.218C66.3312 71.2 66.3147 71.1863 66.3041 71.1762C66.3001 71.1724 66.2972 71.1693 66.2952 71.1671C66.2952 71.1658 66.2951 71.1643 66.2951 71.1625V50.8441V50.6704L66.1874 50.5341L46.9854 26.2369C46.9854 26.2369 46.9854 26.2368 46.9853 26.2368C46.3784 25.4682 45.8421 24.2693 45.8331 23.3161C45.8287 22.8516 45.9486 22.502 46.1805 22.267C46.4112 22.0332 46.8314 21.8335 47.5962 21.8335H48.5404H93.4417C94.1199 21.8335 94.4692 22.0319 94.6573 22.2574C94.8569 22.4967 94.9573 22.8646 94.9353 23.3542C94.8907 24.3447 94.3548 25.5474 93.8219 26.2258C93.8218 26.2259 93.8217 26.226 93.8216 26.2261L74.6085 50.54ZM66.2914 71.1624C66.2914 71.1624 66.2914 71.1625 66.2914 71.1625L66.2914 71.1624Z" fill="#BDECFF" stroke="#333333"/>
</g>
<defs>
<linearGradient id="paint0_linear_22900_255424" x1="17.333" y1="2.09408" x2="2.66631" y2="17.3337" gradientUnits="userSpaceOnUse">
<stop stop-color="#FF8E3D"/>
<stop offset="1" stop-color="#FF6F3D"/>
</linearGradient>
<linearGradient id="paint1_linear_22900_255424" x1="61.333" y1="13.9609" x2="61.2608" y2="15.9598" gradientUnits="userSpaceOnUse">
<stop stop-color="#FF8E3D"/>
<stop offset="1" stop-color="#FF6F3D"/>
</linearGradient>
<clipPath id="clip0_22900_255424">
<rect width="100" height="100" fill="white"/>
</clipPath>
</defs>
</svg>
