<svg width="16" height="16" viewBox="0 0 16 16" fill="none" xmlns="http://www.w3.org/2000/svg">
<g clip-path="url(#clip0_0_6613)">
<path fill-rule="evenodd" clip-rule="evenodd" d="M8.00045 0C8.39058 0 8.7451 0.226888 8.90851 0.581154L10.649 4.35457L14.7756 4.84384C15.163 4.88977 15.4883 5.15682 15.6089 5.52786C15.7295 5.8989 15.6232 6.30618 15.3368 6.57106L12.2859 9.39243L13.0958 13.4682C13.1718 13.8509 13.0184 14.2428 12.7027 14.4721C12.3871 14.7015 11.9669 14.7263 11.6265 14.5357L8.00045 12.506L4.37439 14.5357C4.03396 14.7263 3.61379 14.7015 3.29817 14.4721C2.98254 14.2428 2.82909 13.8509 2.90513 13.4682L3.71498 9.39243L0.664101 6.57106C0.37767 6.30618 0.271437 5.8989 0.391996 5.52786C0.512554 5.15682 0.837889 4.88977 1.22531 4.84384L5.35188 4.35457L7.09239 0.581154C7.2558 0.226888 7.61031 0 8.00045 0ZM8.00045 3.38751L6.93355 5.70055C6.78788 6.01636 6.48859 6.2338 6.14323 6.27475L3.61371 6.57466L5.48385 8.30411C5.73919 8.54024 5.8535 8.89207 5.78572 9.23319L5.28929 11.7316L7.51201 10.4874C7.81548 10.3175 8.18542 10.3175 8.48889 10.4874L10.7116 11.7316L10.2152 9.23319C10.1474 8.89207 10.2617 8.54024 10.517 8.30411L12.3872 6.57466L9.85767 6.27475C9.5123 6.2338 9.21302 6.01636 9.06735 5.70055L8.00045 3.38751Z" fill="#657077"/>
</g>
<defs>
<clipPath id="clip0_0_6613">
<rect width="16" height="16" fill="white" transform="translate(0.000488281)"/>
</clipPath>
</defs>
</svg>
