<svg width="12" height="12" viewBox="0 0 12 12" fill="none" xmlns="http://www.w3.org/2000/svg">
<path fill-rule="evenodd" clip-rule="evenodd" d="M1 0C0.447715 0 0 0.447715 0 1V5C0 5.55228 0.447715 6 1 6H11C11.5523 6 12 5.55228 12 5V1C12 0.447715 11.5523 0 11 0H1ZM1 7C0.447715 7 0 7.44772 0 8C0 8.55229 0.447715 9 1 9H11C11.5523 9 12 8.55229 12 8C12 7.44772 11.5523 7 11 7H1ZM4 11C4 10.4477 4.44772 10 5 10H11C11.5523 10 12 10.4477 12 11C12 11.5523 11.5523 12 11 12H5C4.44772 12 4 11.5523 4 11ZM2.5 2C2.22386 2 2 2.22386 2 2.5V3.5C2 3.77614 2.22386 4 2.5 4H9.5C9.77614 4 10 3.77614 10 3.5V2.5C10 2.22386 9.77614 2 9.5 2H2.5Z" fill="#A3A9AE"/>
</svg>
