<svg width="16" height="16" viewBox="0 0 16 16" fill="none" xmlns="http://www.w3.org/2000/svg">
<g clip-path="url(#clip0_15650_227640)">
<path fill-rule="evenodd" clip-rule="evenodd" d="M8.9285 0.628609C8.77663 0.248951 8.40892 0 8.00002 0C7.59111 0 7.22341 0.248951 7.07154 0.628609L5.44293 4.70013L1.37141 3.07152C0.985924 2.91733 0.545259 3.01737 0.264136 3.32289C-0.0169859 3.62841 -0.0800827 4.07587 0.105592 4.44721L2.10559 8.44721L3.89445 7.55279L3.07071 5.90531L5.62863 6.92848C6.14141 7.13359 6.72338 6.88417 6.9285 6.37139L8.00002 3.69258L9.07154 6.37139C9.27666 6.88417 9.85863 7.13359 10.3714 6.92848L12.9293 5.90531L12.1056 7.55279L13.8944 8.44721L15.8944 4.44721C16.0801 4.07587 16.017 3.62841 15.7359 3.32289C15.4548 3.01737 15.0141 2.91733 14.6286 3.07152L10.5571 4.70013L8.9285 0.628609ZM3.00002 13V14C3.00002 15.1046 3.89545 16 5.00002 16H11C12.1046 16 13 15.1046 13 14V13H11V14H5.00002V13H3.00002ZM4.00002 12C4.5523 12 5.00002 11.3284 5.00002 10.5C5.00002 9.67157 4.5523 9 4.00002 9C3.44773 9 3.00002 9.67157 3.00002 10.5C3.00002 11.3284 3.44773 12 4.00002 12ZM9.50002 10.5C9.50002 11.8807 8.82845 13 8.00002 13C7.17159 13 6.50002 11.8807 6.50002 10.5C6.50002 9.11929 7.17159 8 8.00002 8C8.82845 8 9.50002 9.11929 9.50002 10.5ZM12 12C12.5523 12 13 11.3284 13 10.5C13 9.67157 12.5523 9 12 9C11.4477 9 11 9.67157 11 10.5C11 11.3284 11.4477 12 12 12Z" fill="#657077"/>
</g>
<defs>
<clipPath id="clip0_15650_227640">
<rect width="16" height="16" fill="white" transform="translate(0 -0.000976562)"/>
</clipPath>
</defs>
</svg>
