<svg width="14" height="12" viewBox="0 0 14 12" fill="none" xmlns="http://www.w3.org/2000/svg">
<path fill-rule="evenodd" clip-rule="evenodd" d="M11.7779 1.40022L10.6827 0.298922C10.2595 -0.126691 9.1125 -0.126691 8.50027 0.48686L7.99862 0.988305L11.0211 4.00377L11.5176 3.5032C12.1062 2.9113 12.1062 1.73033 11.7779 1.40022ZM7.00424 1.99976L10.0031 5.00699L4.00126 11.0111L1.00051 8.00828L7.00424 1.99976ZM0.342834 12C0.120587 12 0.00679293 11.8812 0 11.6677L0.00679293 9.00152L3.00121 12H0.342834ZM11 7H12V9H14V10H12V12H11V10H9V9H11V7Z" fill="#3B72A7"/>
</svg>
