<svg width="16" height="16" viewBox="0 0 16 16" fill="none" xmlns="http://www.w3.org/2000/svg">
<path fill-rule="evenodd" clip-rule="evenodd" d="M0.368909 14.6494L1.36062 11.0127C1.45219 10.6769 1.62982 10.3708 1.87595 10.1247L8.79372 3.20689L12.7937 7.20689L5.87595 14.1247C5.62982 14.3708 5.32372 14.5484 4.98791 14.64L1.3512 15.6317C0.754015 15.7945 0.206062 15.2466 0.368909 14.6494ZM14.2079 5.79264L10.2079 1.79264L11.0004 1.00012C12.1049 -0.104507 13.8958 -0.104537 15.0004 1.00006C16.105 2.1046 16.105 3.89541 15.0005 4.99999L14.2079 5.79264ZM13.501 15.9999C14.8817 15.9999 16.001 14.8807 16.001 13.4999C16.001 12.1192 14.8817 10.9999 13.501 10.9999C12.1203 10.9999 11.001 12.1192 11.001 13.4999C11.001 14.8807 12.1203 15.9999 13.501 15.9999Z" fill="#3B72A7"/>
</svg>
