<svg width="16" height="16" viewBox="0 0 16 16" fill="none" xmlns="http://www.w3.org/2000/svg">
<path fill-rule="evenodd" clip-rule="evenodd" d="M4.85714 0C3.83147 0 3 0.83147 3 1.85714V2H5H14V11V13H14.1429C15.1685 13 16 12.1685 16 11.1429V1.85714C16 0.831472 15.1685 0 14.1429 0H4.85714ZM0 4.85714C0 3.83147 0.831472 3 1.85714 3H11.1429C12.1685 3 13 3.83147 13 4.85714V14.1429C13 15.1685 12.1685 16 11.1429 16H1.85714C0.83147 16 0 15.1685 0 14.1429V4.85714ZM11 5H2V14H11V5ZM10 6H3V8H10V6ZM5 9H10V11H5V9Z" fill="#333333"/>
</svg>
