<svg width="16" height="16" viewBox="0 0 16 16" fill="none" xmlns="http://www.w3.org/2000/svg">
<path fill-rule="evenodd" clip-rule="evenodd" d="M15.9998 7.99985C15.9998 10.2089 15.1044 12.2089 13.6568 13.6566C13.6115 13.7018 13.5657 13.7465 13.5194 13.7907C12.0838 15.1595 10.2054 15.9998 7.99979 15.9999C4.5 16 2.20113 14.2298 0.875751 11.6432L2.5 10.5C3.5 12 5 14 8 14C11 14 14 11.5 14 8.00001C14 4.44332 11 2.00001 7.99979 2.00001C6 2.00001 4.81736 2.76247 3.90021 3.89413L5.28633 5.22926C5.41793 5.36122 5.48411 5.51756 5.48411 5.69812C5.48411 5.87865 5.41797 6.03491 5.28633 6.16684C5.15422 6.2988 4.99792 6.36473 4.81736 6.36473L0.6665 6.46699C0.485938 6.46699 0.329637 6.40106 0.197746 6.26909C0.0659267 6.13717 0 5.98094 0 5.80038V1.33368C0 1.15311 0.0655254 0.996923 0.197746 0.864922C0.329601 0.73314 0.485902 0.66703 0.6665 0.66703C0.847026 0.66703 1.00311 0.73314 1.13522 0.864922L2.48927 2.20883C3.23228 1.50738 4.08306 0.963868 5.04129 0.578555C5.99945 0.193204 6.9861 7.62939e-06 8.00001 7.62939e-06C8.08987 7.62939e-06 8.17939 0.00148929 8.26854 0.00442952C10.0663 0.0564243 11.6432 0.633173 12.9996 1.7349C13.774 2.36376 14.4045 3.09687 14.8912 3.93428C15.2963 4.61942 15.6021 5.3702 15.7889 6.16684C15.7968 6.19804 15.8045 6.22934 15.8121 6.26074V6.26909C15.9351 6.82642 15.9998 7.40557 15.9998 7.99985ZM11.1129 7.35337C11.5035 6.96285 11.5035 6.32968 11.1129 5.93916C10.7224 5.54863 10.0893 5.54863 9.69873 5.93916L7.58142 8.05646L6.69593 7.17097C6.3054 6.78044 5.67224 6.78044 5.28171 7.17097C4.89119 7.56149 4.89119 8.19466 5.28171 8.58518L6.79853 10.102C6.82078 10.1295 6.8447 10.1562 6.8703 10.1818C7.06081 10.3723 7.30906 10.4699 7.55871 10.4745C7.82353 10.4816 8.09062 10.3841 8.29273 10.182C8.31892 10.1558 8.34336 10.1285 8.36604 10.1003L11.1129 7.35337Z" fill="#333333"/>
</svg>
