<svg width="16" height="16" viewBox="0 0 16 16" fill="none" xmlns="http://www.w3.org/2000/svg">
<path fill-rule="evenodd" clip-rule="evenodd" d="M15.9998 8.0001C15.9998 10.2092 15.1044 12.2092 13.6568 13.6568C13.6115 13.7021 13.5657 13.7468 13.5194 13.7909C12.0838 15.1597 10.2054 16.0001 7.99979 16.0002C4.5 16.0003 2.20113 14.23 0.875751 11.6435L2.5 10.5003C3.5 12.0003 5 14.0003 8 14.0003C11 14.0003 14 11.5003 14 8.00026C14 4.44357 11 2.00026 7.99979 2.00026C6 2.00026 4.81736 2.76273 3.90021 3.89438L5.28633 5.22951C5.41793 5.36147 5.48411 5.51781 5.48411 5.69837C5.48411 5.8789 5.41797 6.03516 5.28633 6.16709C5.15422 6.29906 4.99792 6.36498 4.81736 6.36498L0.6665 6.46724C0.485938 6.46724 0.329637 6.40131 0.197746 6.26935C0.0659267 6.13742 0 5.98119 0 5.80063V1.33393C0 1.15337 0.0655254 0.997175 0.197746 0.865174C0.329601 0.733392 0.485902 0.667281 0.6665 0.667281C0.847026 0.667281 1.00311 0.733392 1.13522 0.865174L2.48927 2.20908C3.23228 1.50763 4.08306 0.96412 5.04129 0.578806C5.99945 0.193456 6.9861 0.000259399 8.00001 0.000259399C8.08987 0.000259399 8.17939 0.00174106 8.26854 0.00468129C10.0663 0.0566761 11.6432 0.633425 12.9996 1.73515C13.774 2.36402 14.4045 3.09712 14.8912 3.93453C15.2963 4.61967 15.6021 5.37045 15.7889 6.16709C15.7968 6.19829 15.8045 6.22959 15.8121 6.26099V6.26935C15.9351 6.82667 15.9998 7.40582 15.9998 8.0001ZM7.00022 4.00033C7.00022 3.44804 7.44794 3.00033 8.00022 3.00033C8.55251 3.00033 9.00022 3.44804 9.00022 4.00033V7.00033H11.0002C11.5525 7.00033 12.0002 7.44804 12.0002 8.00033C12.0002 8.55261 11.5525 9.00033 11.0002 9.00033H8.00022C7.44794 9.00033 7.00022 8.55261 7.00022 8.00033V4.00033Z" fill="#333333"/>
</svg>
