<svg width="16" height="16" viewBox="0 0 16 16" fill="none" xmlns="http://www.w3.org/2000/svg">
<g clip-path="url(#clip0)">
<path d="M13 6.99976V5.00111C13 2.30233 10.823 0.0478904 8.14622 -0.000234536C8.07308 -0.00154943 7.92693 -0.00154943 7.85383 -0.000234536C5.17694 0.0478904 3 2.30233 3 5.00111V6.99963C2.39798 6.99963 2.0001 7.35668 2.0001 7.99941L2 14.8876C2 15.4992 2.55483 15.9996 3.03532 15.9996L13.0001 15.9995C13.4806 15.9995 14 15.4992 14 14.8876L14.0001 7.9994C14 7.49976 14 6.99976 13 6.99976ZM11 6.99963H8.14622H7.85383L5 6.99976V4.99976C5 3.39214 6.39666 1.99976 8 1.99976C9.60334 1.99976 11 3.39214 11 4.99976V6.99963Z" fill="#333333"/>
</g>
<defs>
<clipPath id="clip0">
<rect width="16" height="16" fill="white" transform="translate(0 -0.000244141)"/>
</clipPath>
</defs>
</svg>
