<svg width="12" height="12" viewBox="0 0 12 12" fill="none" xmlns="http://www.w3.org/2000/svg">
<path fill-rule="evenodd" clip-rule="evenodd" d="M7.5 5.00017C7.22386 5.00017 7 4.77631 7 4.50017L7 0.500075C7 0.223933 6.77614 7.54822e-05 6.5 7.55296e-05H5.5C5.22386 7.54796e-05 5 0.223933 5 0.500075L5 4.50017C5 4.77631 4.77614 5.00017 4.5 5.00017L0.500001 5.00017C0.223859 5.00017 1.00353e-06 5.22402 1.09046e-06 5.50017L5.84693e-07 6.50017C7.11133e-07 6.77631 0.223858 7.00017 0.500001 7.00017L4.5 7.00017C4.77614 7.00017 5 7.22402 5 7.50017V11.5001C5 11.7762 5.22386 12.0001 5.5 12.0001L6.5 12.0001C6.77614 12.0001 7 11.7762 7 11.5001V7.50017C7 7.22402 7.22386 7.00017 7.5 7.00017L11.5 7.00017C11.7761 7.00017 12 6.77631 12 6.50017L12 5.50017C12 5.22402 11.7761 5.00017 11.5 5.00017L7.5 5.00017Z" fill="#657077"/>
</svg>
