<svg width="16" height="16" viewBox="0 0 16 16" fill="none" xmlns="http://www.w3.org/2000/svg">
<path fill-rule="evenodd" clip-rule="evenodd" d="M7.99875 1C4.13342 1 1 4.13442 1 8.00025C1 11.8656 4.13342 15 7.99875 15C11.8661 15 15 11.8651 15 8.00025C15 4.13442 11.8661 1 7.99875 1ZM10.9987 9.88994L9.88747 11C9.88747 11 8.12949 9.1133 7.99825 9.1133C7.86901 9.1133 6.11053 11 6.11053 11L4.99875 9.88994C4.99875 9.88994 6.88697 8.15698 6.88697 8.00275C6.88697 7.84602 4.99875 6.11255 4.99875 6.11255L6.11053 5C6.11053 5 7.88348 6.8877 7.99825 6.8877C8.11402 6.8877 9.88747 5 9.88747 5L10.9987 6.11255C10.9987 6.11255 9.11003 7.87098 9.11003 8.00275C9.11003 8.12803 10.9987 9.88994 10.9987 9.88994Z" fill="#657077"/>
</svg>
