<svg width="34" height="34" viewBox="0 0 34 34" fill="none" xmlns="http://www.w3.org/2000/svg">
<path d="M33.8505 22.6795C33.8284 22.5247 33.7141 22.3975 33.5596 22.3556L28.6079 21.0144C28.5373 20.9952 28.4627 20.9952 28.3921 21.0144L23.4404 22.3556C23.2859 22.3975 23.1716 22.5247 23.1495 22.6795C23.1208 22.8806 22.4656 28.6334 24.1461 30.9977C25.8247 33.3593 28.3009 33.9644 28.4055 33.9891C28.4365 33.9964 28.4682 34 28.5 34C28.5318 34 28.5635 33.9963 28.5945 33.9891C28.6992 33.9644 31.1754 33.3593 32.8539 30.9977C34.5344 28.6334 33.8792 22.8807 33.8505 22.6795ZM31.6932 26.4542L28.3157 29.744C28.2371 29.8205 28.134 29.8588 28.031 29.8588C27.928 29.8588 27.8249 29.8206 27.7463 29.744L25.658 27.7099C25.5824 27.6364 25.54 27.5366 25.54 27.4326C25.54 27.3286 25.5825 27.2289 25.658 27.1554L26.0726 26.7515C26.2299 26.5984 26.4848 26.5983 26.642 26.7515L28.031 28.1044L30.7092 25.4957C30.7847 25.4221 30.8871 25.3808 30.9939 25.3808C31.1007 25.3808 31.2031 25.4221 31.2786 25.4957L31.6932 25.8996C31.8505 26.0527 31.8505 26.301 31.6932 26.4542Z" fill="#35AD17"/>
<path fill-rule="evenodd" clip-rule="evenodd" d="M6 2H26C28.2091 2 30 3.79086 30 6V18C30 18 30 19 31 19C32 19 32 18 32 18V6C32 2.68629 29.3137 0 26 0H6C2.68629 0 0 2.68629 0 6V26C0 29.3137 2.68629 32 6 32H21C21 32 22 32 22 31C22 30 21 30 21 30H6C3.79086 30 2 28.2091 2 26V6C2 3.79086 3.79086 2 6 2Z" fill="#2869A9"/>
<path fill-rule="evenodd" clip-rule="evenodd" d="M12.4995 18.4663C11.4719 17.6138 10.664 16.6128 10.2152 16C10.664 15.3872 11.4719 14.3862 12.4995 13.5337C13.5835 12.6344 14.7913 12 16 12C17.2087 12 18.4165 12.6344 19.5005 13.5337C20.5281 14.3862 21.336 15.3872 21.7848 16C21.336 16.6128 20.5281 17.6138 19.5005 18.4663C18.4165 19.3656 17.2087 20 16 20C14.7913 20 13.5835 19.3656 12.4995 18.4663ZM16 10C14.1116 10 12.4571 10.9702 11.2225 11.9944C9.97234 13.0316 9.02832 14.2275 8.54251 14.8996C8.06525 15.5599 8.06526 16.4401 8.54251 17.1004C9.02832 17.7725 9.97234 18.9684 11.2225 20.0056C12.4571 21.0298 14.1116 22 16 22C17.8884 22 19.5429 21.0298 20.7775 20.0056C22.0277 18.9684 22.9717 17.7725 23.4575 17.1004C23.9348 16.4401 23.9348 15.5599 23.4575 14.8996C22.9717 14.2275 22.0277 13.0316 20.7775 11.9944C19.5429 10.9702 17.8884 10 16 10ZM16 14C14.8954 14 14 14.8954 14 16C14 17.1046 14.8954 18 16 18C17.1046 18 18 17.1046 18 16C18 14.8954 17.1046 14 16 14Z" fill="#2869A9"/>
</svg>
