<svg width="16" height="16" viewBox="0 0 16 16" fill="none" xmlns="http://www.w3.org/2000/svg">
<g clip-path="url(#clip0)">
<path d="M14.9488 2.23878C14.92 2.03249 14.7716 1.8628 14.571 1.80702L8.14028 0.018649C8.04861 -0.00686737 7.95177 -0.00686737 7.86002 0.018649L1.42935 1.80702C1.2287 1.8628 1.08028 2.03242 1.05155 2.23878C1.01425 2.50698 0.16336 8.84396 2.34584 11.9964C4.52575 15.1451 7.74157 15.952 7.87738 15.9848C7.91775 15.9946 7.95888 15.9994 8.00015 15.9994C8.04143 15.9994 8.08256 15.9945 8.12292 15.9848C8.2588 15.952 11.4746 15.1451 13.6545 11.9964C15.8369 8.84402 14.9861 2.50705 14.9488 2.23878ZM12.1471 5.93837L7.76075 10.3247C7.65868 10.4268 7.52482 10.4779 7.39104 10.4779C7.25725 10.4779 7.1234 10.4269 7.02133 10.3247L4.30928 7.61269C4.21119 7.51467 4.15611 7.38165 4.15611 7.24298C4.15611 7.10431 4.21126 6.97129 4.30928 6.87327L4.84777 6.33478C5.05197 6.13065 5.38306 6.13058 5.58719 6.33478L7.39104 8.13863L10.8692 4.66039C10.9672 4.5623 11.1002 4.50722 11.2389 4.50722C11.3776 4.50722 11.5106 4.5623 11.6086 4.66039L12.1471 5.19888C12.3513 5.40308 12.3513 5.73417 12.1471 5.93837Z" fill="#657077"/>
</g>
<defs>
<clipPath id="clip0">
<rect width="16" height="16" fill="white"/>
</clipPath>
</defs>
</svg>
