<svg width="12" height="12" viewBox="0 0 12 12" fill="none" xmlns="http://www.w3.org/2000/svg">
<path fill-rule="evenodd" clip-rule="evenodd" d="M11.5609 5.12623L10.3722 4.92792C10.2858 4.5747 10.1598 4.23705 9.99579 3.92213L10.7568 2.97857C10.9186 2.77917 10.9113 2.49225 10.7406 2.2998L10.2679 1.76771C10.0965 1.57546 9.8123 1.5348 9.59553 1.67175L8.57896 2.31081C8.13184 1.9984 7.62536 1.76771 7.079 1.63385L6.88013 0.438737C6.8384 0.185679 6.61942 0 6.36236 0H5.64991C5.39337 0 5.17366 0.185679 5.13285 0.438737L4.93289 1.63423C4.48117 1.74482 4.05765 1.92335 3.67114 2.15848L2.70437 1.4685C2.49601 1.31964 2.20982 1.34292 2.02799 1.52436L1.52467 2.02807C1.34322 2.2099 1.31995 2.4961 1.46919 2.70446L2.16075 3.67312C1.92785 4.05671 1.75116 4.47784 1.64058 4.92555L0.438697 5.12624C0.186035 5.16797 0 5.38697 0 5.64405V6.35596C0 6.61301 0.186035 6.83204 0.438697 6.87377L1.64058 7.07446C1.73139 7.44287 1.86323 7.79479 2.03845 8.12108L1.28095 9.0593C1.11965 9.25852 1.12643 9.54562 1.29706 9.7379L1.76947 10.27C1.94085 10.4626 2.22519 10.5025 2.44198 10.3659L3.4732 9.71812C3.90954 10.0166 4.40318 10.2359 4.93289 10.3659L5.13285 11.5612C5.17367 11.8143 5.39337 12 5.64991 12H6.36236C6.61942 12 6.8384 11.8143 6.88013 11.5613L7.07934 10.3659C7.52542 10.2568 7.94357 10.0814 8.32663 9.85032L9.33369 10.5696C9.54168 10.719 9.82808 10.6955 10.0097 10.5135L10.5132 10.01C10.6945 9.82871 10.719 9.54268 10.5685 9.33393L9.85154 8.32868C10.0851 7.9438 10.2627 7.52192 10.3726 7.07221L11.5613 6.87373C11.8147 6.832 12 6.61299 12 6.35592V5.64401C11.9996 5.38697 11.8143 5.16797 11.5609 5.12623ZM6.01887 8.25001C4.77653 8.25001 3.76894 7.2422 3.76894 6.00001C3.76894 4.75763 4.77653 3.75001 6.01887 3.75001C7.261 3.75001 8.26878 4.75763 8.26878 6.00001C8.26878 7.2422 7.261 8.25001 6.01887 8.25001Z" fill="#A3A9AE"/>
</svg>
