<svg width="11" height="12" viewBox="0 0 11 12" fill="none" xmlns="http://www.w3.org/2000/svg">
<path fill-rule="evenodd" clip-rule="evenodd" d="M6.96522 5.00038C7.3833 5.00038 7.61675 4.5178 7.35724 4.19002L4.42823 0.49042C4.22933 0.239197 3.84878 0.237273 3.64736 0.486472L0.657008 4.18607C0.392721 4.51304 0.625441 5.00038 1.04587 5.00038H2.49987C2.77602 5.00038 2.99987 5.22424 2.99987 5.50038V10.0027V11.5027C2.99987 11.7788 3.22373 12.0027 3.49987 12.0027H4.99987H10.4999C10.776 12.0027 10.9999 11.7788 10.9999 11.5027V10.5027C10.9999 10.2265 10.776 10.0027 10.4999 10.0027H5.49987C5.22373 10.0027 4.99987 9.77882 4.99987 9.50268V5.50038C4.99987 5.22424 5.22373 5.00038 5.49987 5.00038H6.96522Z" fill="#657077"/>
</svg>
