<svg width="24" height="24" viewBox="0 0 24 24" fill="none" xmlns="http://www.w3.org/2000/svg">
<rect width="24" height="24" fill="white"/>
<g clip-path="url(#clip0_22936_253557)">
<path d="M24 3H0V21H24V3Z" fill="#ECEEF1"/>
<path d="M10.6523 13.3867V13.0176C10.6523 12.7285 10.6855 12.4766 10.752 12.2617C10.8184 12.0469 10.9297 11.8457 11.0859 11.6582C11.2422 11.4668 11.4531 11.2676 11.7188 11.0605C11.9922 10.8457 12.209 10.6602 12.3691 10.5039C12.5332 10.3477 12.6504 10.1914 12.7207 10.0352C12.7949 9.875 12.832 9.68945 12.832 9.47852C12.832 9.14648 12.7188 8.89453 12.4922 8.72266C12.2695 8.54688 11.9551 8.45898 11.5488 8.45898C11.1895 8.45898 10.8516 8.50977 10.5352 8.61133C10.2188 8.71289 9.90625 8.83984 9.59766 8.99219L9.11133 7.96094C9.4668 7.76562 9.85156 7.60938 10.2656 7.49219C10.6836 7.37109 11.1426 7.31055 11.6426 7.31055C12.4395 7.31055 13.0547 7.50391 13.4883 7.89062C13.9258 8.27734 14.1445 8.78711 14.1445 9.41992C14.1445 9.76758 14.0898 10.0664 13.9805 10.3164C13.8711 10.5625 13.709 10.791 13.4941 11.002C13.2832 11.209 13.0273 11.4277 12.7266 11.6582C12.4805 11.8535 12.291 12.0234 12.1582 12.168C12.0293 12.3086 11.9395 12.4512 11.8887 12.5957C11.8418 12.7402 11.8184 12.9141 11.8184 13.1172V13.3867H10.6523ZM10.4297 15.2734C10.4297 14.9531 10.5117 14.7285 10.6758 14.5996C10.8438 14.4668 11.0488 14.4004 11.291 14.4004C11.5254 14.4004 11.7266 14.4668 11.8945 14.5996C12.0625 14.7285 12.1465 14.9531 12.1465 15.2734C12.1465 15.5859 12.0625 15.8125 11.8945 15.9531C11.7266 16.0898 11.5254 16.1582 11.291 16.1582C11.0488 16.1582 10.8438 16.0898 10.6758 15.9531C10.5117 15.8125 10.4297 15.5859 10.4297 15.2734Z" fill="#555F65"/>
</g>
<defs>
<clipPath id="clip0_22936_253557">
<rect width="24" height="18" fill="white" transform="translate(0 3)"/>
</clipPath>
</defs>
</svg>
