<svg width="24" height="24" viewBox="0 0 24 24" fill="none" xmlns="http://www.w3.org/2000/svg">
<path d="M20 6H4V18H20V6Z" fill="#003399"/>
<path d="M20 6L20 18L4 18L4 6L20 6ZM20 5L4 5C3.4 5 3 5.4 3 6L3 18C3 18.6 3.4 19 4 19L20 19C20.6 19 21 18.6 21 18L21 6C21 5.4 20.6 5 20 5Z" fill="#B5B5B5"/>
<g clip-path="url(#clip0_14099_117046)">
<path d="M4 6H20V18H4V6Z" fill="#0052B4"/>
<path d="M11.997 8.63477L12.1775 9.1868H12.7578L12.2872 9.52677L12.4677 10.0788L11.997 9.73715L11.528 10.0788L11.7068 9.52677L11.2379 9.1868H11.8182L11.997 8.63477ZM9.61161 9.62102L10.1278 9.88357L10.5394 9.4746L10.4484 10.0468L10.9663 10.3094L10.3927 10.4003L10.3016 10.9725L10.0384 10.4558L9.46485 10.5467L9.87478 10.1377L9.61161 9.62102ZM8.62305 12.0008L9.17637 11.8207V11.2418L9.51714 11.7113L10.0688 11.5313L9.72801 12.0008L10.0688 12.4687L9.51714 12.2903L9.17637 12.7582V12.1792L8.62305 12.0008ZM9.60993 14.3806L9.87478 13.8656L9.46316 13.455L10.0367 13.5458L10.3016 13.0292L10.3927 13.6014L10.9646 13.6923L10.4484 13.9565L10.5394 14.5287L10.1278 14.1181L9.60993 14.3806ZM11.9953 15.3669L11.8165 14.8148H11.2362L11.7051 14.4749L11.5263 13.9245L11.9953 14.2645L12.466 13.9245L12.2872 14.4749L12.7561 14.8148H12.1758L11.9953 15.3669ZM14.3807 14.3823L13.8628 14.1181L13.4528 14.5287L13.5439 13.9565L13.026 13.694L13.5996 13.6031L13.6907 13.0308L13.9539 13.5458L14.5275 13.4566L14.1175 13.8656L14.3807 14.3823ZM15.3676 12.0025L14.8159 12.1809V12.7599L14.4752 12.292L13.9218 12.4704L14.2643 12.0025L13.9218 11.5329L14.4752 11.7113L14.8159 11.2435V11.8224L15.3676 12.0025ZM14.379 9.6227L14.1158 10.1394L14.5258 10.5484L13.9522 10.4575L13.689 10.9742L13.5979 10.4019L13.0244 10.3111L13.5423 10.0485L13.4512 9.47628L13.8628 9.88526L14.379 9.6227Z" fill="#FFDA44"/>
</g>
<defs>
<clipPath id="clip0_14099_117046">
<rect width="16" height="12" fill="white" transform="translate(4 6)"/>
</clipPath>
</defs>
</svg>
