<svg width="24" height="24" viewBox="0 0 24 24" fill="none" xmlns="http://www.w3.org/2000/svg">
<path d="M20 6H4V18H20V6Z" fill="#002395"/>
<path d="M10.5067 6H4V10.51H10.5067V6Z" fill="white"/>
<path d="M6.13333 6H4V10.4H6.13333V6Z" fill="#002395"/>
<path d="M10.3999 6H8.2666V10.4H10.3999V6Z" fill="#ED2939"/>
<path d="M13.4664 11.0312L13.8097 11.595H14.7864V13.5612L14.0531 12.3787L13.0664 14.0012H13.5464L14.0531 13.0662L15.0931 14.9912L16.1331 13.0662L16.6397 14.0012H17.1197L16.1331 12.3787L15.3997 13.5612V12.475H15.8397L16.1664 11.9387H15.3997V11.595H16.3764L16.7197 11.0312H13.4664ZM14.6131 13.4375H13.5464V13.8225H14.6131V13.4375ZM16.6397 13.4375H15.5731V13.8225H16.6397V13.4375Z" fill="white"/>
<path d="M15.0931 15.3789L15.4223 16.4236L14.5605 15.7779H15.6257L14.764 16.4236L15.0931 15.3789Z" fill="white"/>
<path d="M13.8929 14.4414L14.2221 15.4861L13.3604 14.8404H14.4255L13.5638 15.4861L13.8929 14.4414Z" fill="white"/>
<path d="M16.2933 14.4414L16.6225 15.4861L15.7607 14.8404H16.8259L15.9642 15.4861L16.2933 14.4414Z" fill="white"/>
<path d="M12.8802 11.6641L13.2094 12.7088L12.3477 12.0631H13.4128L12.5511 12.7088L12.8802 11.6641Z" fill="white"/>
<path d="M17.307 11.6641L17.6362 12.7088L16.7744 12.0631H17.8396L16.9778 12.7088L17.307 11.6641Z" fill="white"/>
<path d="M20 6L20 18L4 18L4 6L20 6ZM20 5L4 5C3.4 5 3 5.4 3 6L3 18C3 18.6 3.4 19 4 19L20 19C20.6 19 21 18.6 21 18L21 6C21 5.4 20.6 5 20 5Z" fill="#B5B5B5"/>
</svg>
