<svg width="24" height="24" viewBox="0 0 24 24" fill="none" xmlns="http://www.w3.org/2000/svg">
<path d="M20 6H4V12H20V6Z" fill="black"/>
<path d="M20 12H4V18H20V12Z" fill="#007A3D"/>
<path d="M20 10H4V14H20V10Z" fill="white"/>
<path d="M4 6L12 12L4 18V6Z" fill="#C4111B"/>
<path d="M14.5 13.5C15.3284 13.5 16 12.8284 16 12C16 11.1716 15.3284 10.5 14.5 10.5C13.6716 10.5 13 11.1716 13 12C13 12.8284 13.6716 13.5 14.5 13.5Z" fill="#C4111B"/>
<path d="M15 13.5C15.5523 13.5 16 12.8284 16 12C16 11.1716 15.5523 10.5 15 10.5C14.4477 10.5 14 11.1716 14 12C14 12.8284 14.4477 13.5 15 13.5Z" fill="white"/>
<path d="M14.1878 12.4965L14.498 12.2637L14.8058 12.5L14.6908 12.1184L15 11.8841L14.6187 11.8811L14.502 11.5L14.3813 11.8797L14 11.8784L14.3068 12.1162L14.1878 12.4965V12.4965Z" fill="#C4111B"/>
<path d="M20 6L20 18L4 18L4 6L20 6ZM20 5L4 5C3.4 5 3 5.4 3 6L3 18C3 18.6 3.4 19 4 19L20 19C20.6 19 21 18.6 21 18L21 6C21 5.4 20.6 5 20 5Z" fill="#B5B5B5"/>
</svg>
