<svg width="16" height="16" viewBox="0 0 16 16" fill="none" xmlns="http://www.w3.org/2000/svg">
<path fill-rule="evenodd" clip-rule="evenodd" d="M6.125 0C7.9701 0 9.46591 1.44649 9.46591 3.23076C9.46591 5.01517 7.9701 6.46153 6.125 6.46153C4.2799 6.46153 2.78409 5.01503 2.78409 3.23076C2.78409 1.44649 4.2799 0 6.125 0ZM8.25606 14H1.57202C0.703828 14 0 13.3432 0 12.543C0 8.97743 1.68911 7.52238 3.53122 7.48433L6.12501 11.375L8.7426 7.44861C9.53875 7.50503 10.264 7.77829 10.8457 8.3138C9.179 8.97299 8 10.5988 8 12.5C8 13.026 8.09023 13.5308 8.25606 14Z" fill="#333333"/>
<path fill-rule="evenodd" clip-rule="evenodd" d="M12.5 16C14.433 16 16 14.433 16 12.5C16 10.567 14.433 9 12.5 9C10.567 9 9 10.567 9 12.5C9 14.433 10.567 16 12.5 16ZM13 10V12H15V13H13V15H12V13H9.99999V12H12V10H13Z" fill="#333333"/>
</svg>
