<svg width="20" height="20" viewBox="0 0 20 20" fill="none" xmlns="http://www.w3.org/2000/svg">
<path fill-rule="evenodd" clip-rule="evenodd" d="M9.99953 9.49993C11.9995 9.49993 12.9995 7.29993 12.9995 4.59993L12.9994 3.99926C12.999 2.34273 11.6561 1.00004 9.99953 1C8.34268 0.999962 6.99953 2.34309 6.99953 3.99993V4.59993C6.99953 7.29993 7.99953 9.49993 9.99953 9.49993ZM3.55738 18.0041C3.8006 15.4993 4.80381 10.5572 6.67781 10.0434C6.88513 9.98661 7.10251 10.0347 7.30644 10.1026L9.36609 10.7892C9.77662 10.926 10.2205 10.926 10.631 10.7892L12.6906 10.1026C12.8946 10.0347 13.112 9.98661 13.3193 10.0434C15.1933 10.5572 16.1965 15.4993 16.4397 18.0041C16.4931 18.5538 16.0508 19 15.4985 19H4.49854C3.94626 19 3.504 18.5538 3.55738 18.0041ZM14 5.99997C14 7.00021 14.5 8.99973 16 8.99973C17.5 8.99973 18 7.00021 18 5.99997C18 4.99973 17.5 3.99973 16 3.99973C14.5 3.99973 14 4.99973 14 5.99997ZM19.0059 15.9991C19.5581 15.9991 20.0103 15.5524 19.995 15.0004C19.9562 13.6009 19.7785 11.5676 18.964 10.1321C18.5259 9.35995 17.5121 9.36598 16.802 9.89871L16.4003 10.2C16.1879 10.3594 16.0492 10.5952 16.0111 10.854C16.7473 12.2021 17.3608 14.1137 17.7041 15.9991H19.0059ZM3.99932 8.99973C2.49932 8.99973 1.99932 7.00021 1.99932 5.99997C1.99932 4.99973 2.49932 3.99973 3.99932 3.99973C5.49932 3.99973 5.99932 4.99973 5.99932 5.99997C5.99932 7.00021 5.49932 8.99973 3.99932 8.99973ZM0.00233032 15C-0.01297 15.552 0.439219 15.9987 0.991504 15.9987H2.29335C2.63668 14.1134 3.25014 12.2019 3.98635 10.8539C3.94824 10.595 3.80955 10.359 3.59708 10.1996L3.19541 9.89831C2.48523 9.36558 1.47143 9.35955 1.03333 10.1317C0.218851 11.5672 0.0411153 13.6005 0.00233032 15Z" fill="#7A95B0"/>
</svg>
