<svg width="17" height="16" viewBox="0 0 17 16" fill="none" xmlns="http://www.w3.org/2000/svg">
<path fill-rule="evenodd" clip-rule="evenodd" d="M0.530829 8.10321L15.2697 0.134779C15.876 -0.19219 16.2236 0.0963119 16.0445 0.777818L12.862 12.8353C12.6829 13.5161 12.533 14.0714 12.5299 14.0701C12.5268 14.0694 12.5231 14.0572 12.5231 14.0534C12.5231 14.0496 12.0044 13.829 11.3702 13.5629L9.28326 12.6872C8.6496 12.4205 7.60864 11.9935 6.97187 11.7396L6.75174 11.6505C6.11497 11.3947 5.97568 10.7651 6.44393 10.2516L12.9049 3.12045C13.3719 2.605 13.314 2.54025 12.7768 2.97684L4.60452 9.62073C4.06476 10.056 3.10215 10.1964 2.46725 9.93744L0.585551 9.17066C-0.0505934 8.91101 -0.0754671 8.43082 0.530829 8.10321ZM5.06778 11.8498L6.5117 12.4589C7.14474 12.7262 7.35741 13.4283 6.98306 14.0194C6.98306 14.0194 5.65853 16.112 5.69709 15.9953C5.7344 15.878 4.39433 12.548 4.39371 12.548C4.13129 11.896 4.43475 11.5825 5.06778 11.8498Z" fill="#333333"/>
</svg>
