<svg width="24" height="24" viewBox="0 0 24 24" fill="none" xmlns="http://www.w3.org/2000/svg">
<rect y="7" width="23" height="14" rx="2" fill="#B2BBC0"/>
<path d="M2 2C0.895447 2 0 2.89551 0 4V9C0 7.89551 0.895447 7 2 7H21C22.1046 7 23 7.89551 23 9V7C23 5.89551 22.1046 5 21 5H10V4C10 2.89551 9.10455 2 8 2H2Z" fill="#788790"/>
<path fill-rule="evenodd" clip-rule="evenodd" d="M11 16.5V20.5C11 21.8807 12.1193 23 13.5 23C14.3178 23 15.0439 22.6073 15.5 22.0002C15.9561 22.6073 16.6822 23 17.5 23C18.8807 23 20 21.8807 20 20.5C20 19.1193 18.8807 18 17.5 18C16.6822 18 15.9561 18.3927 15.5 18.9998C15.0439 18.3927 14.3178 18 13.5 18C12.9372 18 12.4178 18.186 12 18.4998V16.5C12 16.2239 11.7761 16 11.5 16C11.2239 16 11 16.2239 11 16.5ZM15 20.5C15 21.3284 14.3284 22 13.5 22C12.6716 22 12 21.3284 12 20.5C12 19.6716 12.6716 19 13.5 19C14.3284 19 15 19.6716 15 20.5ZM19 20.5C19 21.3284 18.3284 22 17.5 22C16.6716 22 16 21.3284 16 20.5C16 19.6716 16.6716 19 17.5 19C18.3284 19 19 19.6716 19 20.5Z" fill="#0071F7"/>
<path d="M23.1 18.2C23.1912 18.0785 23.3364 18 23.5 18C23.7761 18 24 18.2239 24 18.5C24 18.6152 23.961 18.7213 23.8956 18.8059L22.625 20.5L23.8996 22.1994C23.9626 22.2831 24 22.3872 24 22.5C24 22.7761 23.7761 23 23.5 23C23.3336 23 23.1861 22.9187 23.0952 22.7936L22 21.3333L20.9049 22.7935C20.814 22.9186 20.6665 23 20.5 23C20.2239 23 20 22.7761 20 22.5C20 22.3874 20.0372 22.2835 20.1 22.2L21.375 20.5L20.1044 18.8058C20.0389 18.7212 20 18.6152 20 18.5C20 18.2239 20.2239 18 20.5 18C20.6641 18 20.8098 18.0791 20.9009 18.2012L22 19.6666L23.1 18.2Z" fill="#0071F7"/>
</svg>
