<svg width="24" height="24" viewBox="0 0 24 24" fill="none" xmlns="http://www.w3.org/2000/svg">
<rect x="3" y="7" width="23" height="14" rx="2" fill="#B2BBC0"/>
<path fill-rule="evenodd" clip-rule="evenodd" d="M15 12L12 14L15 16L12 18L15 20L18 18L21 20L24 18L21 16L24 14L21 12L18 14L15 12ZM18 14L21 16L18 18L15 16L18 14Z" fill="#0061FF"/>
<path d="M15 21L18 19L21 21L18 23L15 21Z" fill="#0061FF"/>
<path d="M4 4C3.44772 4 3 4.44775 3 5V9C3 8.44775 3.44772 8 4 8H21C21.5523 8 22 8.44775 22 9V8C22 7.44775 21.5523 7 21 7H11V5C11 4.44775 10.5523 4 10 4H4Z" fill="#788790"/>
</svg>
