<svg width="24" height="24" viewBox="0 0 24 24" fill="none" xmlns="http://www.w3.org/2000/svg">
<rect y="7" width="23" height="14" rx="2" fill="#B2BBC0"/>
<path d="M2 2C0.895447 2 0 2.89551 0 4V9C0 7.89551 0.895447 7 2 7H21C22.1046 7 23 7.89551 23 9V7C23 5.89551 22.1046 5 21 5H10V4C10 2.89551 9.10455 2 8 2H2Z" fill="#788790"/>
<path d="M20.7189 14H20.6969L20.7079 14.02L20.7189 14Z" fill="#00AC47"/>
<path d="M18.9962 17.1336L17.4203 20H14V19.9941L17.2844 14.0199L18.9962 17.1336Z" fill="#00AC47"/>
<path d="M17.4203 20H14L15.771 23L17.4203 20Z" fill="#0066DA"/>
<path d="M17.4208 20H20.5724L22.2217 23H15.7715L17.4208 20Z" fill="#2684FC"/>
<path d="M24.0005 20.0083V20H23.9959L24.0005 20.0083Z" fill="#2684FC"/>
<path d="M20.5723 20L22.2215 23L24.0003 20.0083L23.9958 20H20.5723Z" fill="#EA4335"/>
<path d="M20.7079 14.02L23.9954 20H20.5719L18.9961 17.1336L20.7079 14.02Z" fill="#FFBA00"/>
<path d="M17.2844 14.0199L17.2953 14H17.2734L17.2844 14.0199Z" fill="#FFBA00"/>
<path d="M17.2954 14L17.2881 14.0133V14.0264L18.9967 17.1328L20.697 14.04V14H17.2954Z" fill="#00832D"/>
</svg>
