<svg width="24" height="24" viewBox="0 0 24 24" fill="none" xmlns="http://www.w3.org/2000/svg">
<g clip-path="url(#clip0)">
<rect y="7" width="23" height="14" rx="2" fill="#B2BBC0"/>
<path d="M2 2C0.895447 2 0 2.89551 0 4V9C0 7.89551 0.895447 7 2 7H21C22.1046 7 23 7.89551 23 9V7C23 5.89551 22.1046 5 21 5H10V4C10 2.89551 9.10455 2 8 2H2Z" fill="#788790"/>
<path opacity="0.504232" fill-rule="evenodd" clip-rule="evenodd" d="M17.765 12.6343L18.6906 13.0212C18.8322 13.0805 18.9417 13.1975 18.9914 13.3428L19.3594 14.4184C19.4187 14.5916 19.5621 14.7226 19.7398 14.7661L23.5907 15.708C23.831 15.7667 24 15.9821 24 16.2294V20.7227C24 21.0192 23.7596 21.2595 23.4632 21.2595C23.4096 21.2595 23.3564 21.2515 23.3053 21.2358L17.4001 19.4188C17.1748 19.3495 17.0211 19.1414 17.0211 18.9057V13.1296C17.0211 12.8331 17.2615 12.5928 17.558 12.5928C17.629 12.5928 17.6994 12.6069 17.765 12.6343Z" fill="#D0DFFF"/>
<path opacity="0.8" fill-rule="evenodd" clip-rule="evenodd" d="M16.4229 13.709L17.3484 14.0959C17.4901 14.1552 17.5996 14.2722 17.6493 14.4175L18.0173 15.4931C18.0765 15.6663 18.2199 15.7974 18.3977 15.8408L22.2485 16.7827C22.4888 16.8414 22.6578 17.0568 22.6578 17.3041V21.7974C22.6578 22.0939 22.4175 22.3342 22.121 22.3342C22.0675 22.3342 22.0143 22.3262 21.9631 22.3105L16.0579 20.4935C15.8327 20.4242 15.679 20.2161 15.679 19.9804V14.2043C15.679 13.9078 15.9193 13.6675 16.2158 13.6675C16.2869 13.6675 16.3573 13.6816 16.4229 13.709Z" fill="#B3CAFF"/>
<path opacity="0.8" d="M21.3158 20.6241L22.6579 21.037V17.3035C22.6579 17.0562 22.4889 16.8408 22.2486 16.7821L18.3977 15.8402C18.22 15.7968 18.0766 15.6657 18.0173 15.4925L17.6493 14.4169C17.5996 14.2716 17.4901 14.1546 17.3485 14.0953L17.0211 13.9585V16.7432C17.0325 16.7468 17.044 16.75 17.0557 16.7529L20.9065 17.6947C21.1468 17.7535 21.3158 17.9688 21.3158 18.2162V20.6241Z" fill="#AAC4FF"/>
<path fill-rule="evenodd" clip-rule="evenodd" d="M15.0808 14.6206L16.0064 15.0076C16.148 15.0668 16.2575 15.1838 16.3072 15.3291L16.6752 16.4048C16.7345 16.5779 16.8778 16.709 17.0556 16.7525L20.9065 17.6943C21.1468 17.7531 21.3158 17.9684 21.3158 18.2158V22.709C21.3158 23.0055 21.0754 23.2459 20.779 23.2459C20.7254 23.2459 20.6722 23.2379 20.6211 23.2221L14.7159 21.4051C14.4906 21.3358 14.3369 21.1277 14.3369 20.892V15.1159C14.3369 14.8195 14.5773 14.5791 14.8738 14.5791C14.9448 14.5791 15.0152 14.5932 15.0808 14.6206Z" fill="#1A47FF"/>
<path fill-rule="evenodd" clip-rule="evenodd" d="M13.7193 17.0015L19.6839 18.6583C19.8639 18.7084 20.005 18.8484 20.0564 19.0281L21.1799 22.9604C21.2206 23.1029 21.1381 23.2515 20.9955 23.2922C20.9456 23.3065 20.8925 23.3059 20.8428 23.2907L14.5953 21.3683C14.4328 21.3183 14.3036 21.1943 14.247 21.0339L13.0694 17.6974C12.9707 17.4179 13.1174 17.1112 13.3969 17.0125C13.5007 16.9759 13.6133 16.9721 13.7193 17.0015Z" fill="#5287FF"/>
</g>
<defs>
<clipPath id="clip0">
<rect width="24" height="24" fill="white"/>
</clipPath>
</defs>
</svg>
