<svg width="24" height="24" viewBox="0 0 24 24" fill="none" xmlns="http://www.w3.org/2000/svg">
<rect x="3" y="7" width="23" height="14" rx="2" fill="#B2BBC0"/>
<path d="M4 4C3.44772 4 3 4.44775 3 5V9C3 8.44775 3.44772 8 4 8H21C21.5523 8 22 8.44775 22 9V8C22 7.44775 21.5523 7 21 7H11V5C11 4.44775 10.5523 4 10 4H4Z" fill="#788790"/>
<path fill-rule="evenodd" clip-rule="evenodd" d="M18 23C19.1298 23 20.1138 22.3755 20.6254 21.4528C20.9838 21.792 21.4676 22 22 22C23.1046 22 24 21.1046 24 20C24 18.8954 23.1046 18 22 18C21.4676 18 20.9838 18.208 20.6254 18.5472C20.1138 17.6245 19.1298 17 18 17C16.8702 17 15.8862 17.6245 15.3746 18.5472C15.0162 18.208 14.5324 18 14 18C12.8954 18 12 18.8954 12 20C12 21.1046 12.8954 22 14 22C14.5324 22 15.0162 21.792 15.3746 21.4528C15.8862 22.3755 16.8702 23 18 23ZM18 22C19.1046 22 20 21.1046 20 20C20 18.8954 19.1046 18 18 18C16.8954 18 16 18.8954 16 20C16 21.1046 16.8954 22 18 22ZM14 21C14.5523 21 15 20.5523 15 20C15 19.4477 14.5523 19 14 19C13.4477 19 13 19.4477 13 20C13 20.5523 13.4477 21 14 21ZM23 20C23 20.5523 22.5523 21 22 21C21.4477 21 21 20.5523 21 20C21 19.4477 21.4477 19 22 19C22.5523 19 23 19.4477 23 20Z" fill="#0082C9"/>
</svg>
