<svg width="24" height="24" viewBox="0 0 24 24" fill="none" xmlns="http://www.w3.org/2000/svg">
<rect y="7" width="23" height="14" rx="2" fill="#B2BBC0"/>
<path d="M16.5758 17.4462C16.0916 17.1458 15.5301 16.9928 14.9615 16.9995C13.3055 17.02 11.9797 18.3813 12.0002 20.04C12.0077 20.6417 12.2074 21.2721 12.551 21.7656L19.0002 19L16.5758 17.4462Z" fill="#0078D4"/>
<path d="M12.5392 21.7602C13.0995 22.5671 14.0188 23.048 15.0001 23.0475H21.5623C22.4587 23.0477 23.2829 22.555 23.7082 21.7646L19.0002 19L12.5392 21.7602Z" fill="#28A8EA"/>
<path d="M21.9992 18.0007C21.1379 17.9999 19.7727 18.6745 19.0002 19L23.7082 21.7645C24.6284 19.4091 22.9934 18.352 21.9992 18.0007Z" fill="#1490DF"/>
<path d="M22.0005 18.0012L22.0041 18C21.565 16.2849 20.0002 15 18.5002 15C16.5006 15 15.6811 15.9698 15.0045 16.9993C15.5584 17.0006 16.1038 17.1533 16.5758 17.4462L19.0002 19C19.1262 18.9469 19.2679 18.8846 19.4206 18.8174C20.2045 18.4725 21.2783 18 21.9992 18.0007L22.0005 18.0012Z" fill="#0364B8"/>
<path d="M2 2C0.895447 2 0 2.89551 0 4V9C0 7.89551 0.895447 7 2 7H21C22.1046 7 23 7.89551 23 9V7C23 5.89551 22.1046 5 21 5H10V4C10 2.89551 9.10455 2 8 2H2Z" fill="#788790"/>
</svg>
