<svg width="24" height="24" viewBox="0 0 24 24" fill="none" xmlns="http://www.w3.org/2000/svg">
<rect x="3" y="7" width="23" height="14" rx="2" fill="#B2BBC0"/>
<path d="M4 4C3.44772 4 3 4.44775 3 5V9C3 8.44775 3.44772 8 4 8H21C21.5523 8 22 8.44775 22 9V8C22 7.44775 21.5523 7 21 7H11V5C11 4.44775 10.5523 4 10 4H4Z" fill="#788790"/>
<path d="M21.675 18.02C21.335 16.295 19.82 15 18 15C16.555 15 15.3 15.82 14.675 17.02C13.17 17.18 12 18.455 12 20C12 21.655 13.345 23 15 23H21.5C22.88 23 24 21.88 24 20.5C24 19.18 22.975 18.11 21.675 18.02Z" fill="#96D1DE"/>
</svg>
