<svg width="24" height="24" viewBox="0 0 24 24" fill="none" xmlns="http://www.w3.org/2000/svg">
<g clip-path="url(#clip0)">
<rect y="7" width="23" height="14" rx="2" fill="#B2BBC0"/>
<path d="M2 2C0.895447 2 0 2.89551 0 4V9C0 7.89551 0.895447 7 2 7H21C22.1046 7 23 7.89551 23 9V7C23 5.89551 22.1046 5 21 5H10V4C10 2.89551 9.10455 2 8 2H2Z" fill="#788790"/>
<path d="M12.1677 21.9165C12.1292 21.7979 12.0933 21.667 12.0789 21.5563C11.9683 20.7051 12.9262 19.5061 12.9262 19.5061L13.7012 18.5999C14.2287 17.3765 14.2917 16.6425 15.9169 15.7315C17.325 14.9423 18.7229 15.0911 20.0035 15.5629C20.0035 15.5629 21.337 15.5472 22.1257 15.6545C22.1991 15.6645 22.2683 15.673 22.3342 15.6811C22.733 15.7738 23.0863 15.8601 23.4767 16.1131C23.6564 16.2295 23.7686 16.3692 23.8619 16.4924C23.0069 15.4741 20.1878 15.9238 16.994 17.3231C14.1079 18.7625 11.9582 20.6483 12.1677 21.9165Z" fill="black"/>
<path d="M23.913 16.562C24.4044 17.6574 22.8061 20.0959 19.4937 21.8112C16.6537 23.1799 13.1925 23.4107 12.2823 22.2466C11.5733 20.9951 13.845 18.8945 16.9924 17.3247C20.2551 15.8952 23.1268 15.4568 23.913 16.562Z" fill="#0077FF"/>
<path d="M21.2741 18.9189C21.5425 19.441 20.5919 20.3514 19.0126 21.1649C17.6613 21.8193 16.1552 22.1345 15.7402 21.598C15.4453 21.0878 16.4752 20.0824 17.9743 19.3348C19.5229 18.6434 20.913 18.4162 21.2741 18.9189Z" fill="white"/>
</g>
<defs>
<clipPath id="clip0">
<rect width="24" height="24" fill="white"/>
</clipPath>
</defs>
</svg>
