<svg width="64" height="64" viewBox="0 0 64 64" fill="none" xmlns="http://www.w3.org/2000/svg">
<path d="M7 1H38L57 20V63H7V1Z" fill="white"/>
<path fill-rule="evenodd" clip-rule="evenodd" d="M7 63H57V20L38 1H7V63ZM38 0H6V64H58V20L38 0Z" fill="#BFBFBF"/>
<path d="M24.1876 46.1865C24.2742 46.4691 24.6525 47.6882 25.3224 49.8438H22.7179C23.4288 47.5423 23.8595 46.0999 24.0099 45.5166C24.0463 45.6807 24.1056 45.904 24.1876 46.1865Z" fill="#07B5AF"/>
<path fill-rule="evenodd" clip-rule="evenodd" d="M15 39C13.8954 39 13 39.8954 13 41V57C13 58.1046 13.8954 59 15 59H49C50.1046 59 51 58.1046 51 57V41C51 39.8954 50.1046 39 49 39H15ZM25.8282 51.6211L26.5529 54H28.8361L25.295 43.9648H22.7042L19.1769 54H21.4601L22.1847 51.6211H25.8282ZM39.0615 44.0059H36.9219L35.0283 49.9531C34.7367 51.0013 34.5658 51.735 34.5156 52.1543C34.4883 51.972 34.4176 51.6484 34.3037 51.1836C34.1943 50.7142 34.0872 50.304 33.9824 49.9531L32.1025 44.0059H29.9629L33.3535 54H35.6641L39.0615 44.0059ZM41.4462 44.0059V54H43.5653V44.0059H41.4462Z" fill="#07B5AF"/>
<path fill-rule="evenodd" clip-rule="evenodd" d="M38 9H13V12H16V15H13V29H16V32H13V35H51V32H49V29H51V19H38V15H37V12H38V9ZM22 12H19V15H22V12ZM25 12H28V15H25V12ZM34 12H31V15H34V12ZM19 29H22V32H19V29ZM28 29H25V32H28V29ZM31 29H34V32H31V29ZM40 29H37V32H40V29ZM43 29H46V32H43V29Z" fill="#BFBFBF"/>
<path opacity="0.3" d="M37 20V1H38V19H57L58 20H37Z" fill="black"/>
</svg>
