<svg width="64" height="64" viewBox="0 0 64 64" fill="none" xmlns="http://www.w3.org/2000/svg">
<path d="M7 1H38L57 20V63H7V1Z" fill="white"/>
<path fill-rule="evenodd" clip-rule="evenodd" d="M7 63H57V20L38 1H7V63ZM38 0H6V64H58V20L38 0Z" fill="#BFBFBF"/>
<path fill-rule="evenodd" clip-rule="evenodd" d="M15 39C13.8954 39 13 39.8954 13 41V57C13 58.1046 13.8954 59 15 59H49C50.1046 59 51 58.1046 51 57V41C51 39.8954 50.1046 39 49 39H15ZM23.0244 44.8896C22.1699 44.8896 21.5083 45.2119 21.0396 45.8564C20.5708 46.4961 20.3364 47.3896 20.3364 48.5371C20.3364 50.9248 21.2324 52.1187 23.0244 52.1187C23.7764 52.1187 24.687 51.9307 25.7563 51.5547V53.459C24.8774 53.8252 23.896 54.0083 22.812 54.0083C21.2544 54.0083 20.063 53.5371 19.2378 52.5947C18.4126 51.6475 18 50.29 18 48.5225C18 47.4092 18.2026 46.4351 18.6079 45.6001C19.0132 44.7603 19.5942 44.1182 20.3511 43.6738C21.1128 43.2246 22.0039 43 23.0244 43C24.0645 43 25.1094 43.2515 26.1592 43.7544L25.4268 45.6001C25.0264 45.4097 24.6235 45.2437 24.2183 45.1021C23.813 44.9604 23.415 44.8896 23.0244 44.8896ZM35.1123 50.8882C35.1123 51.855 34.7632 52.6167 34.0649 53.1733C33.3716 53.73 32.4048 54.0083 31.1646 54.0083C30.022 54.0083 29.0112 53.7935 28.1323 53.3638V51.2544C28.855 51.5767 29.4653 51.8037 29.9634 51.9355C30.4663 52.0674 30.9253 52.1333 31.3403 52.1333C31.8384 52.1333 32.2192 52.0381 32.4829 51.8477C32.7515 51.6572 32.8857 51.374 32.8857 50.998C32.8857 50.7881 32.8271 50.6025 32.71 50.4414C32.5928 50.2754 32.4194 50.1167 32.1899 49.9653C31.9653 49.814 31.5039 49.5723 30.8057 49.2402C30.1514 48.9326 29.6606 48.6372 29.3335 48.354C29.0063 48.0708 28.7451 47.7412 28.5498 47.3652C28.3545 46.9893 28.2568 46.5498 28.2568 46.0469C28.2568 45.0996 28.5767 44.355 29.2163 43.813C29.8608 43.271 30.7495 43 31.8823 43C32.439 43 32.9688 43.0659 33.4717 43.1978C33.9795 43.3296 34.5093 43.5151 35.061 43.7544L34.3286 45.5195C33.7573 45.2852 33.2837 45.1216 32.9077 45.0288C32.5366 44.936 32.1704 44.8896 31.8091 44.8896C31.3794 44.8896 31.0498 44.9897 30.8203 45.1899C30.5908 45.3901 30.4761 45.6514 30.4761 45.9736C30.4761 46.1738 30.5225 46.3496 30.6152 46.501C30.708 46.6475 30.8545 46.7915 31.0547 46.9331C31.2598 47.0698 31.7407 47.3188 32.4976 47.6802C33.4985 48.1587 34.1846 48.6396 34.5557 49.123C34.9268 49.6016 35.1123 50.1899 35.1123 50.8882ZM46.2041 43.1538H43.9116L41.8828 49.5259C41.5703 50.6489 41.3872 51.4351 41.3335 51.8843C41.3042 51.689 41.2285 51.3423 41.1064 50.8442C40.9893 50.3413 40.8745 49.9019 40.7622 49.5259L38.748 43.1538H36.4556L40.0884 53.8618H42.564L46.2041 43.1538Z" fill="#6AAA1E"/>
<path fill-rule="evenodd" clip-rule="evenodd" d="M13 33L13 7L38 7V9H27V15H37V17H27V23L49 23V19H51V33H13ZM49 25H27L27 31L49 31V25ZM25 31L25 25H15L15 31L25 31ZM15 23H25L25 17L15 17L15 23ZM15 15L25 15V9L15 9L15 15Z" fill="#BFBFBF"/>
<path fill-rule="evenodd" clip-rule="evenodd" d="M23 29H17V27H23V29Z" fill="#BFBFBF"/>
<path fill-rule="evenodd" clip-rule="evenodd" d="M23 21H17V19H23V21Z" fill="#BFBFBF"/>
<path fill-rule="evenodd" clip-rule="evenodd" d="M23 13H17V11H23V13Z" fill="#BFBFBF"/>
<path fill-rule="evenodd" clip-rule="evenodd" d="M47 29H29V27H47L47 29Z" fill="#BFBFBF"/>
<path fill-rule="evenodd" clip-rule="evenodd" d="M47 21L29 21V19L47 19V21Z" fill="#BFBFBF"/>
<path fill-rule="evenodd" clip-rule="evenodd" d="M38 13H29V11H38V13Z" fill="#BFBFBF"/>
<path opacity="0.3" d="M37 20V1H38V19H57L58 20H37Z" fill="black"/>
</svg>
