<svg width="64" height="64" viewBox="0 0 64 64" fill="none" xmlns="http://www.w3.org/2000/svg">
<path d="M7 1H38L57 20V63H7V1Z" fill="white"/>
<path fill-rule="evenodd" clip-rule="evenodd" d="M7 63H57V20L38 1H7V63ZM38 0H6V64H58V20L38 0Z" fill="#BFBFBF"/>
<path d="M23.0908 48.9619C23.0908 46.8154 22.1429 45.7422 20.2471 45.7422H19.1191V52.25H20.0283C22.07 52.25 23.0908 51.154 23.0908 48.9619Z" fill="#464B4F"/>
<path d="M42.2471 45.7422C44.1429 45.7422 45.0908 46.8154 45.0908 48.9619C45.0908 51.154 44.07 52.25 42.0283 52.25H41.1191V45.7422H42.2471Z" fill="#464B4F"/>
<path fill-rule="evenodd" clip-rule="evenodd" d="M15 39C13.8954 39 13 39.8954 13 41V57C13 58.1046 13.8954 59 15 59H49C50.1046 59 51 58.1046 51 57V41C51 39.8954 50.1046 39 49 39H15ZM25.292 48.9072C25.292 50.5524 24.8226 51.8125 23.8838 52.6875C22.9495 53.5625 21.5983 54 19.8301 54H17V44.0059H20.1377C21.7692 44.0059 23.0361 44.4365 23.9385 45.2979C24.8408 46.1592 25.292 47.3623 25.292 48.9072ZM34.3604 44.0059H36.5L33.1025 54H30.792L27.4014 44.0059H29.541L31.4209 49.9531C31.5257 50.304 31.6328 50.7142 31.7422 51.1836C31.8561 51.6484 31.9268 51.972 31.9541 52.1543C32.0042 51.735 32.1751 51.0013 32.4668 49.9531L34.3604 44.0059ZM45.8838 52.6875C46.8226 51.8125 47.292 50.5524 47.292 48.9072C47.292 47.3623 46.8408 46.1592 45.9385 45.2979C45.0361 44.4365 43.7692 44.0059 42.1377 44.0059H39V54H41.8301C43.5983 54 44.9495 53.5625 45.8838 52.6875Z" fill="#464B4F"/>
<path d="M13 9H38V11H15V29H49V19H51V31H38V33H41V35H23V33H26V31H13V9Z" fill="#BFBFBF"/>
<path opacity="0.3" d="M37 20V1H38V19H57L58 20H37Z" fill="black"/>
</svg>
