<svg width="64" height="64" viewBox="0 0 64 64" fill="none" xmlns="http://www.w3.org/2000/svg">
<path d="M7 1H38L57 20V63H7V1Z" fill="white"/>
<path fill-rule="evenodd" clip-rule="evenodd" d="M7 63H57V20L38 1H7V63ZM38 0H6V64H58V20L38 0Z" fill="#BFBFBF"/>
<path d="M41.3496 47.9639H40.1191V45.7422H41.2334C41.8395 45.7422 42.2816 45.8265 42.5596 45.9951C42.8421 46.1592 42.9834 46.4326 42.9834 46.8154C42.9834 47.2256 42.8535 47.5195 42.5938 47.6973C42.3385 47.875 41.9238 47.9639 41.3496 47.9639Z" fill="#C8A428"/>
<path d="M40.1191 52.25V49.6455H41.4316C42.6165 49.6455 43.209 50.0602 43.209 50.8896C43.209 51.3499 43.07 51.6917 42.792 51.915C42.514 52.1383 42.0833 52.25 41.5 52.25H40.1191Z" fill="#C8A428"/>
<path fill-rule="evenodd" clip-rule="evenodd" d="M15 39C13.8954 39 13 39.8954 13 41V57C13 58.1046 13.8954 59 15 59H49C50.1046 59 51 58.1046 51 57V41C51 39.8954 50.1046 39 49 39H15ZM24.7559 54H19V44.0059H24.7559V45.7422H21.1191V47.9365H24.5029V49.6729H21.1191V52.25H24.7559V54ZM28.112 49.912V48.344H35V49.912H28.112ZM41.1104 44.0059H38V54H41.7393C42.8695 54 43.7627 53.7448 44.4189 53.2344C45.0798 52.724 45.4102 52.013 45.4102 51.1016C45.4102 50.459 45.2689 49.944 44.9863 49.5566C44.7083 49.1693 44.2526 48.9049 43.6191 48.7637V48.6953C44.084 48.6178 44.4554 48.3877 44.7334 48.0049C45.0159 47.6221 45.1572 47.1322 45.1572 46.5352C45.1572 45.6556 44.8359 45.0153 44.1934 44.6143C43.5553 44.2087 42.5277 44.0059 41.1104 44.0059Z" fill="#C8A428"/>
<path d="M38 7H13V33H51V19H49V31H15V9H38V7Z" fill="#BFBFBF"/>
<path d="M38 11H25V19H17V23H21V25H17V29H43V27H47V23H31V21H47V19H38V11Z" fill="#BFBFBF"/>
<path d="M23 11H17V17H23V11Z" fill="#BFBFBF"/>
<path opacity="0.3" d="M37 20V1H38V19H57L58 20H37Z" fill="black"/>
</svg>
