<svg width="64" height="64" viewBox="0 0 64 64" fill="none" xmlns="http://www.w3.org/2000/svg">
<path d="M7 1H38L57 20V63H7V1Z" fill="white"/>
<path fill-rule="evenodd" clip-rule="evenodd" d="M7 63H57V20L38 1H7V63ZM38 0H6V64H58V20L38 0Z" fill="#BFBFBF"/>
<path d="M29.6074 45.6465V47.9639H30.9336C31.722 47.9639 32.2119 47.9525 32.4033 47.9297C32.7496 47.8887 33.0209 47.7702 33.2168 47.5742C33.4174 47.3737 33.5176 47.1117 33.5176 46.7881C33.5176 46.4782 33.431 46.2275 33.2578 46.0361C33.0892 45.8402 32.8363 45.7217 32.499 45.6807C32.2985 45.6579 31.722 45.6465 30.7695 45.6465H29.6074Z" fill="#B07408"/>
<path d="M29.6074 49.6318V52.3115H31.4805C32.2096 52.3115 32.6722 52.291 32.8682 52.25C33.1689 52.1953 33.4127 52.0631 33.5996 51.8535C33.791 51.6393 33.8867 51.3545 33.8867 50.999C33.8867 50.6982 33.8138 50.443 33.668 50.2334C33.5221 50.0238 33.3102 49.8711 33.0322 49.7754C32.7588 49.6797 32.1617 49.6318 31.2412 49.6318H29.6074Z" fill="#B07408"/>
<path fill-rule="evenodd" clip-rule="evenodd" d="M15 39C13.8954 39 13 39.8954 13 41V57C13 58.1046 13.8954 59 15 59H49C50.1046 59 51 58.1046 51 57V41C51 39.8954 50.1046 39 49 39H15ZM43.7578 54V52.2158H39.9434C40.0436 52.0426 40.1735 51.8649 40.333 51.6826C40.4971 51.5003 40.8822 51.1312 41.4883 50.5752C42.0944 50.0192 42.5137 49.5931 42.7461 49.2969C43.097 48.8503 43.3522 48.4242 43.5117 48.0186C43.6758 47.6084 43.7578 47.1777 43.7578 46.7266C43.7578 45.9336 43.4752 45.2705 42.9102 44.7373C42.3451 44.2041 41.568 43.9375 40.5791 43.9375C39.6768 43.9375 38.9248 44.1676 38.3232 44.6279C37.7217 45.0882 37.3639 45.847 37.25 46.9043L39.1641 47.0957C39.2006 46.5352 39.3373 46.1341 39.5742 45.8926C39.8112 45.651 40.1302 45.5303 40.5312 45.5303C40.9369 45.5303 41.2535 45.6465 41.4814 45.8789C41.7139 46.1068 41.8301 46.4349 41.8301 46.8633C41.8301 47.2506 41.6979 47.6426 41.4336 48.0391C41.2377 48.3262 40.7067 48.873 39.8408 49.6797C38.7653 50.6777 38.0453 51.4798 37.6807 52.0859C37.316 52.6875 37.0973 53.3255 37.0244 54H43.7578ZM19.0322 54V43.9785H25.9023V45.6738H21.0557V48.0459H25.2393V49.7412H21.0557V54H19.0322ZM27.584 43.9785H31.5898C32.3828 43.9785 32.973 44.0127 33.3604 44.0811C33.7523 44.1449 34.101 44.2816 34.4062 44.4912C34.7162 44.7008 34.9736 44.9811 35.1787 45.332C35.3838 45.6784 35.4863 46.068 35.4863 46.501C35.4863 46.9704 35.3588 47.401 35.1035 47.793C34.8529 48.1849 34.5111 48.4789 34.0781 48.6748C34.6888 48.8525 35.1582 49.1556 35.4863 49.584C35.8145 50.0124 35.9785 50.516 35.9785 51.0947C35.9785 51.5504 35.8715 51.9948 35.6572 52.4277C35.4476 52.8561 35.1582 53.2002 34.7891 53.46C34.4244 53.7152 33.9733 53.8724 33.4355 53.9316C33.0983 53.9681 32.2848 53.9909 30.9951 54H27.584V43.9785Z" fill="#B07408"/>
<path d="M38 7H13V33H51V19H49V31H15V9H38V7Z" fill="#BFBFBF"/>
<path d="M38 11H25V19H17V23H21V25H17V29H43V27H47V23H31V21H47V19H38V11Z" fill="#BFBFBF"/>
<path d="M23 11H17V17H23V11Z" fill="#BFBFBF"/>
<path opacity="0.3" d="M37 20V1H38V19H57L58 20H37Z" fill="black"/>
</svg>
