<svg width="64" height="64" viewBox="0 0 64 64" fill="none" xmlns="http://www.w3.org/2000/svg">
<path d="M7 1H38L57 20V63H7V1Z" fill="white"/>
<path fill-rule="evenodd" clip-rule="evenodd" d="M7 63H57V20L38 1H7V63ZM38 0H6V64H58V20L38 0Z" fill="#BFBFBF"/>
<path d="M11 35H9V39H7V45H9V41H11V45H13V41H15V45H17V41H19V45H21V41H23V45H25V41H27V45H29V41H31V45H33V41H35V55H42V41H57V39H35V35H33V39H31V35H29V39H27V35H25V39H23V35H21V39H19V35H17V39H15V35H13V39H11V35Z" fill="#BFBFBF"/>
<path opacity="0.3" d="M37 20V1H38V19H57L58 20H37Z" fill="black"/>
</svg>
