<svg width="64" height="64" viewBox="0 0 64 64" fill="none" xmlns="http://www.w3.org/2000/svg">
<path d="M7 1H38L57 20V63H7V1Z" fill="white"/>
<path fill-rule="evenodd" clip-rule="evenodd" d="M7 63H57V20L38 1H7V63ZM38 0H6V64H58V20L38 0Z" fill="#BFBFBF"/>
<path fill-rule="evenodd" clip-rule="evenodd" d="M15 39C13.8954 39 13 39.8954 13 41V57C13 58.1046 13.8954 59 15 59H49C50.1046 59 51 58.1046 51 57V41C51 39.8954 50.1046 39 49 39H15ZM20.6846 54L18.2783 46.1592H18.2168C18.3034 47.7542 18.3467 48.8184 18.3467 49.3516V54H16.4531V44.0059H19.3379L21.7031 51.6484H21.7441L24.2529 44.0059H27.1377V54H25.1621V49.2695C25.1621 49.0462 25.1644 48.7887 25.1689 48.4971C25.1781 48.2054 25.21 47.4307 25.2646 46.1729H25.2031L22.626 54H20.6846ZM38.0391 54H35.6328L33.0146 49.7891L32.1191 50.4316V54H30V44.0059H32.1191V48.5791L32.9531 47.4033L35.6602 44.0059H38.0117L34.5254 48.4287L38.0391 54ZM47.8677 44.0059H45.728L43.8345 49.9531C43.5428 51.0013 43.3719 51.735 43.3218 52.1543C43.2944 51.972 43.2238 51.6484 43.1099 51.1836C43.0005 50.7142 42.8934 50.304 42.7886 49.9531L40.9087 44.0059H38.769L42.1597 54H44.4702L47.8677 44.0059Z" fill="#0E6B8D"/>
<path d="M22 20V18C22.6206 17.9846 23.1244 17.8972 23.5112 17.592C23.9062 17.2869 24.1681 16.8708 24.2971 16.3445C24.426 15.8179 24.4945 14.8679 24.5026 13.4944C24.5107 12.1206 24.563 11.1326 24.6598 10.5295C24.7645 9.92676 24.9862 9.43091 25.3247 9.0415C25.6632 8.64478 26.0904 8.35864 26.6062 8.18311C26.9609 8.06104 27.5331 8 28.323 8H29V10C28.8587 10 28.7126 9.99414 28.5655 9.98804C27.6721 9.95191 26.7402 9.91423 26.5941 11.1936C26.5619 11.4758 26.5458 12.3611 26.5458 13.8491C26.5458 15.4897 26.3443 16.6687 25.9413 17.386C25.5463 18.1111 24.8866 18.6489 24 19C24.8866 19.3511 25.5463 19.8889 25.9413 20.614C26.3443 21.3313 26.5458 22.5103 26.5458 24.1509C26.5458 25.6389 26.5619 26.5242 26.5941 26.8064C26.7402 28.0858 27.6717 28.0481 28.5652 28.012L28.5684 28.0118C28.6446 28.0087 28.7204 28.0056 28.7955 28.0034C28.8645 28.0012 28.9328 28 29 28V30H28.323C27.5331 30 26.9609 29.939 26.6062 29.8169C26.0904 29.6414 25.6632 29.3552 25.3247 28.9585C24.9862 28.5691 24.7645 28.0732 24.6598 27.4705C24.563 26.8674 24.5107 25.8794 24.5026 24.5056C24.4988 23.8682 24.4821 23.322 24.4523 22.8669C20.5716 23.8445 18 25.5544 18 27.5C18 30.5376 24.268 33 32 33C39.732 33 46 30.5376 46 27.5C46 25.5542 43.4284 23.8445 39.5477 22.8669C39.5179 23.322 39.5012 23.8682 39.4974 24.5056C39.4893 25.8794 39.437 26.8674 39.3402 27.4705C39.2355 28.0732 39.0138 28.5691 38.6753 28.9585C38.3368 29.3552 37.9096 29.6414 37.3938 29.8169C37.0391 29.939 36.4669 30 35.677 30H35V28C35.0589 28 35.1187 28.001 35.179 28.0027C35.2633 28.0049 35.3487 28.0083 35.4345 28.012C36.3279 28.0481 37.2598 28.0858 37.4059 26.8064C37.4381 26.5242 37.4542 25.6389 37.4542 24.1509C37.4542 22.5103 37.6557 21.3313 38.0587 20.614C38.4537 19.8889 39.1134 19.3511 40 19H42V20C41.3794 20.0154 40.8756 20.1028 40.4888 20.408C40.0938 20.7131 39.8319 21.1292 39.7029 21.6555C39.6491 21.8755 39.6058 22.1692 39.573 22.5369C46.2979 23.5378 51 25.8311 51 28.5C51 32.0898 42.4934 35 32 35C21.5066 35 13 32.0898 13 28.5C13 25.8311 17.7021 23.5376 24.427 22.5366C24.3942 22.1689 24.3509 21.8755 24.2971 21.6555C24.1681 21.1292 23.9062 20.7131 23.5112 20.408C23.1244 20.1028 22.6206 20.0154 22 20Z" fill="#BFBFBF"/>
<path d="M38 8.46475C37.8137 8.35114 37.6117 8.25725 37.3938 8.18311C37.0391 8.06104 36.4669 8 35.677 8H35V10C35.1413 10 35.2874 9.99414 35.4345 9.98804C36.3279 9.95191 37.2598 9.91423 37.4059 11.1936C37.4381 11.4758 37.4542 12.3611 37.4542 13.8491C37.4542 15.408 37.6362 16.5501 38 17.2754V8.46475Z" fill="#BFBFBF"/>
<path opacity="0.3" d="M37 20V1H38V19H57L58 20H37Z" fill="black"/>
</svg>
