<svg width="64" height="64" viewBox="0 0 64 64" fill="none" xmlns="http://www.w3.org/2000/svg">
<path d="M7 1H38L57 20V63H7V1Z" fill="white"/>
<path fill-rule="evenodd" clip-rule="evenodd" d="M7 63H57V20L38 1H7V63ZM38 0H6V64H58V20L38 0Z" fill="#BFBFBF"/>
<path d="M33.71 48.709H33.0127V45.7422H33.9766C34.5553 45.7422 34.9792 45.8607 35.248 46.0977C35.5215 46.3346 35.6582 46.7015 35.6582 47.1982C35.6582 47.6904 35.4964 48.0664 35.1729 48.3262C34.8493 48.5814 34.3617 48.709 33.71 48.709Z" fill="#2BBDC6"/>
<path fill-rule="evenodd" clip-rule="evenodd" d="M15 39C13.8954 39 13 39.8954 13 41V57C13 58.1046 13.8954 59 15 59H49C50.1046 59 51 58.1046 51 57V41C51 39.8954 50.1046 39 49 39H15ZM19.5117 46.1592L21.918 54H23.8594L26.4365 46.1729H26.498C26.4434 47.4307 26.4115 48.2054 26.4023 48.4971C26.3978 48.7887 26.3955 49.0462 26.3955 49.2695V54H28.3711V44.0059H25.4863L22.9775 51.6484H22.9365L20.5713 44.0059H17.6865V54H19.5801V49.3516C19.5801 48.8184 19.5368 47.7542 19.4502 46.1592H19.5117ZM36.7861 49.5908C37.4606 49.0212 37.7979 48.1986 37.7979 47.123C37.7979 46.0885 37.4811 45.3115 36.8477 44.792C36.2188 44.2679 35.2982 44.0059 34.0859 44.0059H30.8936V54H33.0127V50.4453H33.9219C35.1615 50.4453 36.1162 50.1605 36.7861 49.5908ZM47.4434 48.3877H43.4785V50.1514H45.3721V52.2363C44.9163 52.3275 44.4674 52.373 44.0254 52.373C43.1777 52.373 42.5306 52.0882 42.084 51.5186C41.6419 50.9443 41.4209 50.1149 41.4209 49.0303C41.4209 47.9912 41.6966 47.1641 42.248 46.5488C42.7995 45.9336 43.5332 45.626 44.4492 45.626C45.2376 45.626 45.9964 45.8083 46.7256 46.1729L47.4297 44.4775C46.4772 44.0674 45.4883 43.8623 44.4629 43.8623C42.8268 43.8623 41.5462 44.3135 40.6211 45.2158C39.7005 46.1182 39.2402 47.376 39.2402 48.9893C39.2402 50.6481 39.6367 51.9219 40.4297 52.8105C41.2272 53.6947 42.3802 54.1367 43.8887 54.1367C44.4811 54.1367 45.0599 54.0934 45.625 54.0068C46.1947 53.9248 46.8008 53.779 47.4434 53.5693V48.3877Z" fill="#2BBDC6"/>
<path fill-rule="evenodd" clip-rule="evenodd" d="M13 12H38V15L37 14H33L37 18H38V19H51V35H13V12ZM17 14H21L25 18H21L17 14ZM25 14H29L33 18H29L25 14ZM25 21H21L17 25H21L25 21ZM29 21H33L29 25H25L29 21ZM41 21H37L33 25H37L41 21ZM45 21H49L45 25H41L45 21Z" fill="#BFBFBF"/>
<path opacity="0.3" d="M37 20V1H38V19H57L58 20H37Z" fill="black"/>
</svg>
