<svg width="64" height="64" viewBox="0 0 64 64" fill="none" xmlns="http://www.w3.org/2000/svg">
<path d="M7 1H38L57 20V63H7V1Z" fill="white"/>
<path fill-rule="evenodd" clip-rule="evenodd" d="M7 63H57V20L38 1H7V63ZM38 0H6V64H58V20L38 0Z" fill="#BFBFBF"/>
<path d="M19.2217 48.9893C19.2217 50.1058 19.4336 50.9466 19.8574 51.5117C20.2812 52.0768 20.9147 52.3594 21.7578 52.3594C23.4486 52.3594 24.2939 51.236 24.2939 48.9893C24.2939 46.738 23.4531 45.6123 21.7715 45.6123C20.9284 45.6123 20.2926 45.8971 19.8643 46.4668C19.4359 47.0319 19.2217 47.8727 19.2217 48.9893Z" fill="#1E7AAA"/>
<path d="M35.2988 48.9619C35.2988 46.8154 34.3509 45.7422 32.4551 45.7422H31.3271V52.25H32.2363C34.278 52.25 35.2988 51.154 35.2988 48.9619Z" fill="#1E7AAA"/>
<path fill-rule="evenodd" clip-rule="evenodd" d="M15 39C13.8954 39 13 39.8954 13 41V57C13 58.1046 13.8954 59 15 59H49C50.1046 59 51 58.1046 51 57V41C51 39.8954 50.1046 39 49 39H15ZM26.5156 48.9893C26.5156 50.6436 26.1055 51.915 25.2852 52.8037C24.4648 53.6924 23.2891 54.1367 21.7578 54.1367C20.2266 54.1367 19.0508 53.6924 18.2305 52.8037C17.4102 51.915 17 50.639 17 48.9756C17 47.3122 17.4102 46.043 18.2305 45.168C19.0553 44.2884 20.2357 43.8486 21.7715 43.8486C23.3073 43.8486 24.4808 44.2907 25.292 45.1748C26.1077 46.0589 26.5156 47.3304 26.5156 48.9893ZM37.5 48.9072C37.5 50.5524 37.0306 51.8125 36.0918 52.6875C35.1576 53.5625 33.8063 54 32.0381 54H29.208V44.0059H32.3457C33.9772 44.0059 35.2441 44.4365 36.1465 45.2979C37.0488 46.1592 37.5 47.3623 37.5 48.9072ZM42.167 54H44.2861V45.7695H47V44.0059H39.4531V45.7695H42.167V54Z" fill="#1E7AAA"/>
<path d="M13 9H38V14H13V9Z" fill="#BFBFBF"/>
<path d="M13 16H38V19H51V21H13V16Z" fill="#BFBFBF"/>
<path d="M13 23H51V28H13V23Z" fill="#BFBFBF"/>
<path d="M13 30H51V35H13V30Z" fill="#BFBFBF"/>
<path opacity="0.3" d="M37 20V1H38V19H57L58 20H37Z" fill="black"/>
</svg>
