<svg width="64" height="64" viewBox="0 0 64 64" fill="none" xmlns="http://www.w3.org/2000/svg">
<g id="64X64 / otp">
<path id="background" d="M7 1H38L57 20V63H7V1Z" fill="white"/>
<path id="shadow" fill-rule="evenodd" clip-rule="evenodd" d="M7 63H57V20L38 1H7V63ZM38 0H6V64H58V20L38 0Z" fill="url(#paint0_linear)"/>
<g id="format">
<path d="M19.2339 48.624C19.2339 49.8398 19.5146 50.7627 20.0762 51.3926C20.6377 52.0176 21.3506 52.3301 22.2148 52.3301C23.0791 52.3301 23.7871 52.02 24.3389 51.3999C24.8955 50.7749 25.1738 49.8398 25.1738 48.5947C25.1738 47.3643 24.9028 46.4463 24.3608 45.8408C23.8237 45.2354 23.1084 44.9326 22.2148 44.9326C21.3213 44.9326 20.6011 45.2402 20.0542 45.8555C19.5073 46.4658 19.2339 47.3887 19.2339 48.624Z" fill="#F37600"/>
<path d="M40.4521 48.126V45.0791H41.4995C42.2808 45.0791 42.8008 45.1035 43.0596 45.1523C43.4111 45.2158 43.7017 45.3745 43.9312 45.6284C44.1606 45.8823 44.2754 46.2046 44.2754 46.5952C44.2754 46.9126 44.1924 47.1909 44.0264 47.4302C43.8652 47.6694 43.6406 47.8452 43.3525 47.9575C43.0645 48.0698 42.4932 48.126 41.6387 48.126H40.4521Z" fill="#F37600"/>
<path fill-rule="evenodd" clip-rule="evenodd" d="M15 39C13.8954 39 13 39.8954 13 41V57C13 58.1046 13.8954 59 15 59H49C50.1046 59 51 58.1046 51 57V41C51 39.8954 50.1046 39 49 39H15ZM17 48.6973C17 47.6035 17.1636 46.6855 17.4907 45.9434C17.7349 45.3965 18.0669 44.9058 18.4868 44.4712C18.9116 44.0366 19.3755 43.7144 19.8784 43.5044C20.5474 43.2212 21.3188 43.0796 22.1929 43.0796C23.7749 43.0796 25.0396 43.5703 25.9868 44.5518C26.939 45.5332 27.415 46.8979 27.415 48.646C27.415 50.3794 26.9438 51.7368 26.0015 52.7183C25.0591 53.6948 23.7993 54.1831 22.2222 54.1831C20.6255 54.1831 19.356 53.6973 18.4136 52.7256C17.4712 51.749 17 50.4062 17 48.6973ZM31.5312 54V45.0791H28.3452V43.2627H36.8779V45.0791H33.6992V54H31.5312ZM38.2842 43.2627V54H40.4521V49.9497H41.8657C42.8472 49.9497 43.5967 49.8984 44.1143 49.7959C44.4951 49.7129 44.8687 49.5444 45.2349 49.2905C45.606 49.0317 45.9111 48.6777 46.1504 48.2285C46.3896 47.7793 46.5093 47.2251 46.5093 46.5659C46.5093 45.7114 46.3018 45.0156 45.8867 44.4785C45.4717 43.9365 44.9565 43.585 44.3413 43.4238C43.9409 43.3164 43.0815 43.2627 41.7632 43.2627H38.2842Z" fill="#F37600"/>
</g>
<g id="logo">
<path d="M38 9V11H15V33H49V19H51V35H13V9H38Z" fill="#BFBFBF"/>
<path d="M21 27H17V31H21V27Z" fill="#BFBFBF"/>
<path d="M17 20V24H21V20H17Z" fill="#BFBFBF"/>
<path d="M17 13V17H21V13H17Z" fill="#BFBFBF"/>
<path d="M23 13V17H38V15H31V13H23Z" fill="#BFBFBF"/>
<path d="M23 24V20H34V22H29V24H23Z" fill="#BFBFBF"/>
<path d="M23 31V27H36V29H44V31H23Z" fill="#BFBFBF"/>
</g>
<path id="ear shadow" opacity="0.3" d="M37 20V1H38V19H57L58 20H37Z" fill="black"/>
</g>
<defs>
<linearGradient id="paint0_linear" x1="32" y1="62.8333" x2="32" y2="8.08663e-07" gradientUnits="userSpaceOnUse">
<stop stop-color="#A8A8A8"/>
<stop offset="1" stop-color="#DADADA"/>
</linearGradient>
</defs>
</svg>
