<svg width="64" height="64" viewBox="0 0 64 64" fill="none" xmlns="http://www.w3.org/2000/svg">
<path d="M7 1H38L57 20V63H7V1Z" fill="white"/>
<path fill-rule="evenodd" clip-rule="evenodd" d="M7 63H57V20L38 1H7V63ZM38 0H6V64H58V20L38 0Z" fill="#BFBFBF"/>
<path d="M17.8164 48.709H17.1191V45.7422H18.083C18.6618 45.7422 19.0856 45.8607 19.3545 46.0977C19.6279 46.3346 19.7646 46.7015 19.7646 47.1982C19.7646 47.6904 19.6029 48.0664 19.2793 48.3262C18.9557 48.5814 18.4681 48.709 17.8164 48.709Z" fill="#F38400"/>
<path d="M26.8164 48.709H26.1191V45.7422H27.083C27.6618 45.7422 28.0856 45.8607 28.3545 46.0977C28.6279 46.3346 28.7646 46.7015 28.7646 47.1982C28.7646 47.6904 28.6029 48.0664 28.2793 48.3262C27.9557 48.5814 27.4681 48.709 26.8164 48.709Z" fill="#F38400"/>
<path fill-rule="evenodd" clip-rule="evenodd" d="M15 39C13.8954 39 13 39.8954 13 41V57C13 58.1046 13.8954 59 15 59H49C50.1046 59 51 58.1046 51 57V41C51 39.8954 50.1046 39 49 39H15ZM38.5146 51.2246C38.5146 52.127 38.1888 52.8379 37.5371 53.3574C36.89 53.877 35.9876 54.1367 34.8301 54.1367C33.7637 54.1367 32.8203 53.9362 32 53.5352V51.5664C32.6745 51.8672 33.2441 52.0791 33.709 52.2021C34.1784 52.3252 34.6068 52.3867 34.9941 52.3867C35.459 52.3867 35.8145 52.2979 36.0605 52.1201C36.3112 51.9424 36.4365 51.6781 36.4365 51.3271C36.4365 51.1312 36.3818 50.958 36.2725 50.8076C36.1631 50.6527 36.0013 50.5046 35.7871 50.3633C35.5775 50.222 35.1468 49.9964 34.4951 49.6865C33.8844 49.3994 33.4264 49.1237 33.1211 48.8594C32.8158 48.5951 32.5719 48.2874 32.3896 47.9365C32.2074 47.5856 32.1162 47.1755 32.1162 46.7061C32.1162 45.8219 32.4147 45.127 33.0117 44.6211C33.6133 44.1152 34.4427 43.8623 35.5 43.8623C36.0195 43.8623 36.514 43.9238 36.9834 44.0469C37.4574 44.1699 37.9518 44.3431 38.4668 44.5664L37.7832 46.2139C37.25 45.9951 36.8079 45.8424 36.457 45.7559C36.1107 45.6693 35.7689 45.626 35.4316 45.626C35.0306 45.626 34.723 45.7194 34.5088 45.9062C34.2946 46.0931 34.1875 46.3369 34.1875 46.6377C34.1875 46.8245 34.2308 46.9886 34.3174 47.1299C34.404 47.2666 34.5407 47.401 34.7275 47.5332C34.9189 47.6608 35.3678 47.8932 36.0742 48.2305C37.0085 48.6771 37.6488 49.126 37.9951 49.5771C38.3415 50.0238 38.5146 50.5729 38.5146 51.2246ZM20.8926 49.5908C21.5671 49.0212 21.9043 48.1986 21.9043 47.123C21.9043 46.0885 21.5876 45.3115 20.9541 44.792C20.3252 44.2679 19.4046 44.0059 18.1924 44.0059H15V54H17.1191V50.4453H18.0283C19.2679 50.4453 20.2227 50.1605 20.8926 49.5908ZM29.8926 49.5908C30.5671 49.0212 30.9043 48.1986 30.9043 47.123C30.9043 46.0885 30.5876 45.3115 29.9541 44.792C29.3252 44.2679 28.4046 44.0059 27.1924 44.0059H24V54H26.1191V50.4453H27.0283C28.2679 50.4453 29.2227 50.1605 29.8926 49.5908ZM46.5801 54H49L45.623 48.9619L48.7607 44.0059H46.4775L44.3652 47.6016L42.2119 44.0059H39.874L42.9775 48.8457L39.6621 54H41.9316L44.2559 50.2197L46.5801 54Z" fill="#F38400"/>
<path d="M38 9V11H15V33H49V19H51V35H13V9H38Z" fill="#BFBFBF"/>
<path d="M21 27H17V31H21V27Z" fill="#BFBFBF"/>
<path d="M17 20V24H21V20H17Z" fill="#BFBFBF"/>
<path d="M17 13V17H21V13H17Z" fill="#BFBFBF"/>
<path d="M23 13V17H38V15H31V13H23Z" fill="#BFBFBF"/>
<path d="M23 24V20H34V22H29V24H23Z" fill="#BFBFBF"/>
<path d="M23 31V27H36V29H44V31H23Z" fill="#BFBFBF"/>
<path opacity="0.3" d="M37 20V1H38V19H57L58 20H37Z" fill="black"/>
</svg>
