<svg width="64" height="64" viewBox="0 0 64 64" fill="none" xmlns="http://www.w3.org/2000/svg">
<path d="M7 1H38L57 20V63H7V1Z" fill="white"/>
<path fill-rule="evenodd" clip-rule="evenodd" d="M7 63H57V20L38 1H7V63ZM38 0H6V64H58V20L38 0Z" fill="#BFBFBF"/>
<path d="M17.9121 48.709H17.2148V45.7422H18.1787C18.7575 45.7422 19.1813 45.8607 19.4502 46.0977C19.7236 46.3346 19.8604 46.7015 19.8604 47.1982C19.8604 47.6904 19.6986 48.0664 19.375 48.3262C19.0514 48.5814 18.5638 48.709 17.9121 48.709Z" fill="#F36700"/>
<path d="M26.9121 48.709H26.2148V45.7422H27.1787C27.7575 45.7422 28.1813 45.8607 28.4502 46.0977C28.7236 46.3346 28.8604 46.7015 28.8604 47.1982C28.8604 47.6904 28.6986 48.0664 28.375 48.3262C28.0514 48.5814 27.5638 48.709 26.9121 48.709Z" fill="#F36700"/>
<path fill-rule="evenodd" clip-rule="evenodd" d="M15 39C13.8954 39 13 39.8954 13 41V57C13 58.1046 13.8954 59 15 59H49C50.1046 59 51 58.1046 51 57V41C51 39.8954 50.1046 39 49 39H15ZM20.9883 49.5908C21.6628 49.0212 22 48.1986 22 47.123C22 46.0885 21.6833 45.3115 21.0498 44.792C20.4209 44.2679 19.5003 44.0059 18.2881 44.0059H15.0957V54H17.2148V50.4453H18.124C19.3636 50.4453 20.3184 50.1605 20.9883 49.5908ZM29.9883 49.5908C30.6628 49.0212 31 48.1986 31 47.123C31 46.0885 30.6833 45.3115 30.0498 44.792C29.4209 44.2679 28.5003 44.0059 27.2881 44.0059H24.0957V54H26.2148V50.4453H27.124C28.3636 50.4453 29.3184 50.1605 29.9883 49.5908ZM36.5 54H34.3809V45.7695H31.667V44.0059H39.2139V45.7695H36.5V54ZM46.5801 54H49L45.623 48.9619L48.7607 44.0059H46.4775L44.3652 47.6016L42.2119 44.0059H39.874L42.9775 48.8457L39.6621 54H41.9316L44.2559 50.2197L46.5801 54Z" fill="#F36700"/>
<path fill-rule="evenodd" clip-rule="evenodd" d="M13 9H38V11H15V33H49V19H51V35H13V9Z" fill="#BFBFBF"/>
<path d="M17 31V27H21V31H17Z" fill="#BFBFBF"/>
<path d="M21 24H17V20H21V24Z" fill="#BFBFBF"/>
<path d="M17 13V17H21V13H17Z" fill="#BFBFBF"/>
<path d="M23 13V17H34V15H30V13H23Z" fill="#BFBFBF"/>
<path d="M41 20H23V24H33V22H41V20Z" fill="#BFBFBF"/>
<path d="M23 31V27H47V29H39V31H23Z" fill="#BFBFBF"/>
<path opacity="0.3" d="M37 20V1H38V19H57L58 20H37Z" fill="black"/>
</svg>
