<svg width="64" height="64" viewBox="0 0 64 64" fill="none" xmlns="http://www.w3.org/2000/svg">
<path d="M7 1H38L57 20V63H7V1Z" fill="white"/>
<path fill-rule="evenodd" clip-rule="evenodd" d="M7 63H57V20L38 1H7V63ZM38 0H6V64H58V20L38 0Z" fill="#BFBFBF"/>
<path d="M21.1348 48.4424H21.8184C22.4883 48.4424 22.9827 48.3307 23.3018 48.1074C23.6208 47.8841 23.7803 47.5332 23.7803 47.0547C23.7803 46.5807 23.6162 46.2435 23.2881 46.043C22.9645 45.8424 22.4609 45.7422 21.7773 45.7422H21.1348V48.4424Z" fill="#3D96C5"/>
<path fill-rule="evenodd" clip-rule="evenodd" d="M15 39C13.8954 39 13 39.8954 13 41V57C13 58.1046 13.8954 59 15 59H49C50.1046 59 51 58.1046 51 57V41C51 39.8954 50.1046 39 49 39H15ZM21.1348 50.165V54H19.0156V44.0059H21.9277C23.2858 44.0059 24.2907 44.2542 24.9424 44.751C25.5941 45.2432 25.9199 45.9928 25.9199 47C25.9199 47.5879 25.7581 48.112 25.4346 48.5723C25.111 49.028 24.653 49.3857 24.0605 49.6455C25.5645 51.8923 26.5443 53.3438 27 54H24.6484L22.2627 50.165H21.1348ZM33.1191 54H31V45.7695H28.2861V44.0059H35.833V45.7695H33.1191V54ZM39 54H41.085V50.0488H44.4756V48.3193H41.085V45.7422H44.7285V44.0059H39V54Z" fill="#3D96C5"/>
<path fill-rule="evenodd" clip-rule="evenodd" d="M13 10H38V12H15V32H49V19H51V34H13V10Z" fill="#BFBFBF"/>
<path fill-rule="evenodd" clip-rule="evenodd" d="M19.0001 17C19.0001 17 19 17 19 16C19 15 19.0001 15 19.0001 15H38V17H19.0001Z" fill="#BFBFBF"/>
<path fill-rule="evenodd" clip-rule="evenodd" d="M17 19H47V21H17V19Z" fill="#BFBFBF"/>
<path fill-rule="evenodd" clip-rule="evenodd" d="M47 25H17V23H47V25Z" fill="#BFBFBF"/>
<path fill-rule="evenodd" clip-rule="evenodd" d="M17 27H47V29H17V27Z" fill="#BFBFBF"/>
<path opacity="0.3" d="M37 20V1H38V19H57L58 20H37Z" fill="black"/>
</svg>
