<svg width="64" height="64" viewBox="0 0 64 64" fill="none" xmlns="http://www.w3.org/2000/svg">
<path d="M7 1H38L57 20V63H7V1Z" fill="white"/>
<path fill-rule="evenodd" clip-rule="evenodd" d="M7 63H57V20L38 1H7V63ZM38 0H6V64H58V20L38 0Z" fill="#BFBFBF"/>
<path fill-rule="evenodd" clip-rule="evenodd" d="M15 39C13.8954 39 13 39.8954 13 41V57C13 58.1046 13.8954 59 15 59H49C50.1046 59 51 58.1046 51 57V41C51 39.8954 50.1046 39 49 39H15ZM23.5792 53.3574C24.2309 52.8379 24.5568 52.127 24.5568 51.2246C24.5568 50.5729 24.3836 50.0238 24.0372 49.5771C23.6909 49.126 23.0506 48.6771 22.1163 48.2305C21.4099 47.8932 20.9611 47.6608 20.7696 47.5332C20.5828 47.401 20.4461 47.2666 20.3595 47.1299C20.2729 46.9886 20.2296 46.8245 20.2296 46.6377C20.2296 46.3369 20.3367 46.0931 20.5509 45.9062C20.7651 45.7194 21.0727 45.626 21.4738 45.626C21.811 45.626 22.1528 45.6693 22.4991 45.7559C22.8501 45.8424 23.2921 45.9951 23.8253 46.2139L24.5089 44.5664C23.9939 44.3431 23.4995 44.1699 23.0255 44.0469C22.5561 43.9238 22.0616 43.8623 21.5421 43.8623C20.4848 43.8623 19.6554 44.1152 19.0538 44.6211C18.4568 45.127 18.1583 45.8219 18.1583 46.7061C18.1583 47.1755 18.2495 47.5856 18.4318 47.9365C18.614 48.2874 18.8579 48.5951 19.1632 48.8594C19.4685 49.1237 19.9265 49.3994 20.5372 49.6865C21.1889 49.9964 21.6196 50.222 21.8292 50.3633C22.0434 50.5046 22.2052 50.6527 22.3146 50.8076C22.4239 50.958 22.4786 51.1312 22.4786 51.3271C22.4786 51.6781 22.3533 51.9424 22.1027 52.1201C21.8566 52.2979 21.5011 52.3867 21.0363 52.3867C20.6489 52.3867 20.2205 52.3252 19.7511 52.2021C19.2863 52.0791 18.7166 51.8672 18.0421 51.5664V53.5352C18.8624 53.9362 19.8058 54.1367 20.8722 54.1367C22.0297 54.1367 22.9321 53.877 23.5792 53.3574ZM35.3291 44.0059H33.1895L31.2959 49.9531C31.0042 51.0013 30.8333 51.735 30.7832 52.1543C30.7559 51.972 30.6852 51.6484 30.5713 51.1836C30.4619 50.7142 30.3548 50.304 30.25 49.9531L28.3701 44.0059H26.2305L29.6211 54H31.9316L35.3291 44.0059ZM45.4725 48.3877H41.5077V50.1514H43.4012V52.2363C42.9455 52.3275 42.4966 52.373 42.0546 52.373C41.2069 52.373 40.5598 52.0882 40.1132 51.5186C39.6711 50.9443 39.4501 50.1149 39.4501 49.0303C39.4501 47.9912 39.7258 47.1641 40.2772 46.5488C40.8287 45.9336 41.5624 45.626 42.4784 45.626C43.2668 45.626 44.0256 45.8083 44.7548 46.1729L45.4589 44.4775C44.5064 44.0674 43.5175 43.8623 42.4921 43.8623C40.856 43.8623 39.5754 44.3135 38.6503 45.2158C37.7297 46.1182 37.2694 47.376 37.2694 48.9893C37.2694 50.6481 37.6659 51.9219 38.4589 52.8105C39.2564 53.6947 40.4094 54.1367 41.9179 54.1367C42.5103 54.1367 43.0891 54.0934 43.6542 54.0068C44.2238 53.9248 44.83 53.779 45.4725 53.5693V48.3877Z" fill="#507C8B"/>
<path d="M36 17C36 18.8638 34.7252 20.4299 33 20.874V30.5857L39.5538 24.032C39.2019 23.4365 39 22.7417 39 22C39 20.8053 39.5237 19.7329 40.3541 19H45.6459C46.4763 19.7329 47 20.8053 47 22C47 24.2092 45.2091 26 43 26C42.2582 26 41.5635 25.7981 40.968 25.4463L34.4142 32H43.126C43.5701 30.2747 45.1362 29 47 29C49.2091 29 51 30.7908 51 33C51 33.7285 50.8052 34.4116 50.4649 35H13.5351C13.1948 34.4116 13 33.7285 13 33C13 30.7908 14.7909 29 17 29C18.8638 29 20.4299 30.2747 20.874 32H29.5858L23.032 25.4463C22.4364 25.7981 21.7418 26 21 26C18.7909 26 17 24.2092 17 22C17 19.7908 18.7909 18 21 18C23.2091 18 25 19.7908 25 22C25 22.7417 24.7981 23.4365 24.4462 24.032L31 30.5857V20.874C29.2748 20.4299 28 18.8638 28 17C28 14.7908 29.7909 13 32 13C34.2091 13 36 14.7908 36 17Z" fill="#BFBFBF"/>
<path opacity="0.3" d="M37 20V1H38V19H57L58 20H37Z" fill="black"/>
</svg>
