<svg width="64" height="64" viewBox="0 0 64 64" fill="none" xmlns="http://www.w3.org/2000/svg">
<path d="M7 1H38L57 20V63H7V1Z" fill="white"/>
<path fill-rule="evenodd" clip-rule="evenodd" d="M7 63H57V20L38 1H7V63ZM38 0H6V64H58V20L38 0Z" fill="#BFBFBF"/>
<path fill-rule="evenodd" clip-rule="evenodd" d="M15 39C13.8954 39 13 39.8954 13 41V57C13 58.1046 13.8954 59 15 59H49C50.1046 59 51 58.1046 51 57V41C51 39.8954 50.1046 39 49 39H15ZM23.1191 54H21V45.7695H18.2861V44.0059H25.833V45.7695H23.1191V54ZM37.5 54H35.0801L32.7559 50.2197L30.4316 54H28.1621L31.4775 48.8457L28.374 44.0059H30.7119L32.8652 47.6016L34.9775 44.0059H37.2607L34.123 48.9619L37.5 54ZM41.8809 54H44V45.7695H46.7139V44.0059H39.167V45.7695H41.8809V54Z" fill="#848F92"/>
<path fill-rule="evenodd" clip-rule="evenodd" d="M13 12H34V14H13V12Z" fill="#BFBFBF"/>
<path fill-rule="evenodd" clip-rule="evenodd" d="M13 16H34V18H13V16Z" fill="#BFBFBF"/>
<path fill-rule="evenodd" clip-rule="evenodd" d="M13 20H34V22H13V20Z" fill="#BFBFBF"/>
<path fill-rule="evenodd" clip-rule="evenodd" d="M13 24H51V26H13V24Z" fill="#BFBFBF"/>
<path fill-rule="evenodd" clip-rule="evenodd" d="M13 28H51V30H13V28Z" fill="#BFBFBF"/>
<path fill-rule="evenodd" clip-rule="evenodd" d="M13 32H51V34H13V32Z" fill="#BFBFBF"/>
<path opacity="0.3" d="M37 20V1H38V19H57L58 20H37Z" fill="black"/>
</svg>
