<svg width="64" height="64" viewBox="0 0 64 64" fill="none" xmlns="http://www.w3.org/2000/svg">
<g id="webm">
<path id="Vector" d="M7 1H38L57 20V63H7V1Z" fill="white"/>
<path id="Vector_2" fill-rule="evenodd" clip-rule="evenodd" d="M7 63H57V20L38 1H7V63ZM38 0H6V64H58V20L38 0Z" fill="#BFBFBF"/>
<path id="format" fill-rule="evenodd" clip-rule="evenodd" d="M15 39C13.8954 39 13 39.8954 13 41V57C13 58.1046 13.8954 59 15 59H49C50.1046 59 51 58.1046 51 57V41C51 39.8954 50.1046 39 49 39H15ZM16 43.2627L18.5635 54H20.9146L23.0459 45.9727L25.1846 54H27.4844L30.0918 43.2627H27.9092L26.2612 50.7627L24.3789 43.2627H21.8008L19.8379 50.6382L18.2192 43.2627H16ZM36 54V43.2627H39.4414L41.5078 50.5869L43.5508 43.2627H47V54H44.8637V45.5479L42.6031 54H40.3891L38.1363 45.5479V54H36ZM34 48H31V50H34V48Z" fill="#1DAA91"/>
<path id="logo" d="M22.5027 10.1343C22.8138 9.95492 23.1969 9.95526 23.5076 10.1352L37.9975 18.5245V19.0012H38.8209L42.4988 21.1307C42.809 21.3103 43 21.6416 43 22C43 22.3584 42.809 22.6897 42.4988 22.8693L23.5076 33.8648C23.1969 34.0447 22.8138 34.0451 22.5027 33.8657C22.1917 33.6864 22 33.3546 22 32.9955V11.0045C22 10.6454 22.1917 10.3136 22.5027 10.1343Z" fill="#BFBFBF"/>
<path id="Vector_3" opacity="0.3" d="M37 20V1H38V19H57L58 20H37Z" fill="black"/>
</g>
</svg>
