<svg width="64" height="64" viewBox="0 0 64 64" fill="none" xmlns="http://www.w3.org/2000/svg">
<path d="M7 1H38L57 20V63H7V1Z" fill="white"/>
<path fill-rule="evenodd" clip-rule="evenodd" d="M7 63H57V20L38 1H7V63ZM38 0H6V64H58V20L38 0Z" fill="#BFBFBF"/>
<path fill-rule="evenodd" clip-rule="evenodd" d="M15 39C13.8954 39 13 39.8954 13 41V57C13 58.1046 13.8954 59 15 59H49C50.1046 59 51 58.1046 51 57V41C51 39.8954 50.1046 39 49 39H15ZM44.5225 53.3574C45.1742 52.8379 45.5 52.127 45.5 51.2246C45.5 50.5729 45.3268 50.0238 44.9805 49.5771C44.6341 49.126 43.9938 48.6771 43.0596 48.2305C42.3532 47.8932 41.9043 47.6608 41.7129 47.5332C41.526 47.401 41.3893 47.2666 41.3027 47.1299C41.2161 46.9886 41.1729 46.8245 41.1729 46.6377C41.1729 46.3369 41.2799 46.0931 41.4941 45.9062C41.7083 45.7194 42.0159 45.626 42.417 45.626C42.7542 45.626 43.096 45.6693 43.4424 45.7559C43.7933 45.8424 44.2354 45.9951 44.7686 46.2139L45.4521 44.5664C44.9372 44.3431 44.4427 44.1699 43.9688 44.0469C43.4993 43.9238 43.0049 43.8623 42.4854 43.8623C41.4281 43.8623 40.5986 44.1152 39.9971 44.6211C39.4001 45.127 39.1016 45.8219 39.1016 46.7061C39.1016 47.1755 39.1927 47.5856 39.375 47.9365C39.5573 48.2874 39.8011 48.5951 40.1064 48.8594C40.4118 49.1237 40.8698 49.3994 41.4805 49.6865C42.1322 49.9964 42.5628 50.222 42.7725 50.3633C42.9867 50.5046 43.1484 50.6527 43.2578 50.8076C43.3672 50.958 43.4219 51.1312 43.4219 51.3271C43.4219 51.6781 43.2966 51.9424 43.0459 52.1201C42.7998 52.2979 42.4443 52.3867 41.9795 52.3867C41.5921 52.3867 41.1637 52.3252 40.6943 52.2021C40.2295 52.0791 39.6598 51.8672 38.9854 51.5664V53.5352C39.8057 53.9362 40.749 54.1367 41.8154 54.1367C42.973 54.1367 43.8753 53.877 44.5225 53.3574ZM27.3379 54H24.918L22.5938 50.2197L20.2695 54H18L21.3154 48.8457L18.2119 44.0059H20.5498L22.7031 47.6016L24.8154 44.0059H27.0986L23.9609 48.9619L27.3379 54ZM30 54V44.0059H32.1191V52.25H36.1729V54H30Z" fill="#6AAA1E"/>
<path fill-rule="evenodd" clip-rule="evenodd" d="M13 7H38V19H51V34H13V7ZM49 21H39V25H49V21ZM49 27H39V32H49V27ZM37 32V27H28V32H37ZM26 32V27H15V32H26ZM15 25H26V21H15V25ZM15 19H26V15H15V19ZM15 13H26V9H15V13ZM28 9V13H37V9H28ZM37 15H28V19H37V15ZM37 21H28V25H37V21Z" fill="#BFBFBF"/>
<path opacity="0.3" d="M37 20V1H38V19H57L58 20H37Z" fill="black"/>
</svg>
