<svg width="64" height="64" viewBox="0 0 64 64" fill="none" xmlns="http://www.w3.org/2000/svg">
<path d="M7 1H38L57 20V63H7V1Z" fill="white"/>
<path fill-rule="evenodd" clip-rule="evenodd" d="M7 63H57V20L38 1H7V63ZM38 0H6V64H58V20L38 0Z" fill="#BFBFBF"/>
<path fill-rule="evenodd" clip-rule="evenodd" d="M15 39C13.8954 39 13 39.8954 13 41V57C13 58.1046 13.8954 59 15 59H49C50.1046 59 51 58.1046 51 57V41C51 39.8954 50.1046 39 49 39H15ZM38.8398 51.2246C38.8398 52.127 38.5139 52.8379 37.8622 53.3574C37.2151 53.877 36.3128 54.1367 35.1552 54.1367C34.0888 54.1367 33.1454 53.9362 32.3251 53.5352V51.5664C32.9996 51.8672 33.5693 52.0791 34.0341 52.2021C34.5035 52.3252 34.9319 52.3867 35.3193 52.3867C35.7841 52.3867 36.1396 52.2979 36.3857 52.1201C36.6363 51.9424 36.7616 51.6781 36.7616 51.3271C36.7616 51.1312 36.707 50.958 36.5976 50.8076C36.4882 50.6527 36.3264 50.5046 36.1122 50.3633C35.9026 50.222 35.4719 49.9964 34.8202 49.6865C34.2096 49.3994 33.7516 49.1237 33.4462 48.8594C33.1409 48.5951 32.8971 48.2874 32.7148 47.9365C32.5325 47.5856 32.4413 47.1755 32.4413 46.7061C32.4413 45.8219 32.7398 45.127 33.3368 44.6211C33.9384 44.1152 34.7678 43.8623 35.8251 43.8623C36.3447 43.8623 36.8391 43.9238 37.3085 44.0469C37.7825 44.1699 38.2769 44.3431 38.7919 44.5664L38.1083 46.2139C37.5751 45.9951 37.1331 45.8424 36.7822 45.7559C36.4358 45.6693 36.094 45.626 35.7568 45.626C35.3557 45.626 35.0481 45.7194 34.8339 45.9062C34.6197 46.0931 34.5126 46.3369 34.5126 46.6377C34.5126 46.8245 34.5559 46.9886 34.6425 47.1299C34.7291 47.2666 34.8658 47.401 35.0527 47.5332C35.2441 47.6608 35.693 47.8932 36.3993 48.2305C37.3336 48.6771 37.9739 49.126 38.3202 49.5771C38.6666 50.0238 38.8398 50.5729 38.8398 51.2246ZM22.918 54H25.3379L21.9609 48.9619L25.0986 44.0059H22.8154L20.7031 47.6016L18.5498 44.0059H16.2119L19.3154 48.8457L16 54H18.2695L20.5938 50.2197L22.918 54ZM25.8643 44.0059V54H32.0372V52.25H27.9835V44.0059H25.8643ZM45.5801 54H48L44.623 48.9619L47.7607 44.0059H45.4775L43.3652 47.6016L41.2119 44.0059H38.874L41.9775 48.8457L38.6621 54H40.9316L43.2559 50.2197L45.5801 54Z" fill="#6AAA1E"/>
<path fill-rule="evenodd" clip-rule="evenodd" d="M13 7H38V19H51V34H13V7ZM49 21H39V25H49V21ZM49 27H39V32H49V27ZM37 32V27H28V32H37ZM26 32V27H15V32H26ZM15 25H26V21H15V25ZM15 19H26V15H15V19ZM15 13H26V9H15V13ZM28 9V13H37V9H28ZM37 15H28V19H37V15ZM37 21H28V25H37V21Z" fill="#BFBFBF"/>
<path opacity="0.3" d="M37 20V1H38V19H57L58 20H37Z" fill="black"/>
</svg>
