<svg width="63" height="64" viewBox="0 0 63 64" fill="none" xmlns="http://www.w3.org/2000/svg">
<path d="M7 1H38L57 20V63H7V1Z" fill="white"/>
<path fill-rule="evenodd" clip-rule="evenodd" d="M7 63H57V20L38 1H7V63ZM38 0H6V64H58V20L38 0Z" fill="#BFBFBF"/>
<path fill-rule="evenodd" clip-rule="evenodd" d="M15 39C13.8954 39 13 39.8954 13 41V57C13 58.1046 13.8954 59 15 59H49C50.1046 59 51 58.1046 51 57V41C51 39.8954 50.1046 39 49 39H15ZM39 44V54L46 53.9965V52H41V44H39ZM27 54.0262V44H30L32 51L34 44H37V54H35V46L33 54.0262H31L29 46V53.9965L27 54.0262ZM17.5 44L20.3207 48.6L17 54H19.3042L21.5 50.4868L23.6957 54H26L22.6792 48.6L25.5 44H23.1957L21.5 46.7131L19.8043 44H17.5Z" fill="#5BB2A9"/>
<path fill-rule="evenodd" clip-rule="evenodd" d="M24 33H27L19 25L27 17H24L16 25L24 33ZM43 19L40 19L46 25L38 33L41 33L49 25L43 19ZM30 24H28V26H30V24ZM36 24H34V26H36V24Z" fill="#BFBFBF"/>
<path opacity="0.3" d="M37 20V1H38V19H57L58 20H37Z" fill="black"/>
</svg>
