<svg width="63" height="64" viewBox="0 0 63 64" fill="none" xmlns="http://www.w3.org/2000/svg">
<path d="M7 1H38L57 20V63H7V1Z" fill="white"/>
<path fill-rule="evenodd" clip-rule="evenodd" d="M7 63H57V20L38 1H7V63ZM38 0H6V64H58V20L38 0Z" fill="#BFBFBF"/>
<path d="M32.1191 48.709H32.8164C33.4681 48.709 33.9557 48.5814 34.2793 48.3262C34.6029 48.0664 34.7646 47.6904 34.7646 47.1982C34.7646 46.7015 34.6279 46.3346 34.3545 46.0977C34.0856 45.8607 33.6618 45.7422 33.083 45.7422H32.1191V48.709Z" fill="#5BB2A9"/>
<path fill-rule="evenodd" clip-rule="evenodd" d="M15 39C13.8954 39 13 39.8954 13 41V57C13 58.1046 13.8954 59 15 59H49C50.1046 59 51 58.1046 51 57V41C51 39.8954 50.1046 39 49 39H15ZM44.3687 53.3574C45.0204 52.8379 45.3462 52.127 45.3462 51.2246C45.3462 50.5729 45.173 50.0238 44.8267 49.5771C44.4803 49.126 43.84 48.6771 42.9058 48.2305C42.1994 47.8932 41.7505 47.6608 41.5591 47.5332C41.3723 47.401 41.2355 47.2666 41.1489 47.1299C41.0624 46.9886 41.0191 46.8245 41.0191 46.6377C41.0191 46.3369 41.1262 46.0931 41.3404 45.9062C41.5545 45.7194 41.8622 45.626 42.2632 45.626C42.6004 45.626 42.9422 45.6693 43.2886 45.7559C43.6395 45.8424 44.0816 45.9951 44.6148 46.2139L45.2984 44.5664C44.7834 44.3431 44.2889 44.1699 43.815 44.0469C43.3456 43.9238 42.8511 43.8623 42.3316 43.8623C41.2743 43.8623 40.4448 44.1152 39.8433 44.6211C39.2463 45.127 38.9478 45.8219 38.9478 46.7061C38.9478 47.1755 39.0389 47.5856 39.2212 47.9365C39.4035 48.2874 39.6473 48.5951 39.9527 48.8594C40.258 49.1237 40.716 49.3994 41.3267 49.6865C41.9784 49.9964 42.409 50.222 42.6187 50.3633C42.8329 50.5046 42.9947 50.6527 43.104 50.8076C43.2134 50.958 43.2681 51.1312 43.2681 51.3271C43.2681 51.6781 43.1428 51.9424 42.8921 52.1201C42.646 52.2979 42.2906 52.3867 41.8257 52.3867C41.4383 52.3867 41.01 52.3252 40.5406 52.2021C40.0757 52.0791 39.506 51.8672 38.8316 51.5664V53.5352C39.6519 53.9362 40.5952 54.1367 41.6616 54.1367C42.8192 54.1367 43.7215 53.877 44.3687 53.3574ZM27.3379 54H24.918L22.5938 50.2197L20.2695 54H18L21.3154 48.8457L18.2119 44.0059H20.5498L22.7031 47.6016L24.8154 44.0059H27.0986L23.9609 48.9619L27.3379 54ZM36.9043 47.123C36.9043 48.1986 36.5671 49.0212 35.8926 49.5908C35.2227 50.1605 34.2679 50.4453 33.0283 50.4453H32.1191V54H30V44.0059H33.1924C34.4046 44.0059 35.3252 44.2679 35.9541 44.792C36.5876 45.3115 36.9043 46.0885 36.9043 47.123Z" fill="#5BB2A9"/>
<path fill-rule="evenodd" clip-rule="evenodd" d="M24 33H27L19 25L27 17H24L16 25L24 33ZM43 19L40 19L46 25L38 33L41 33L49 25L43 19ZM30 24H28V26H30V24ZM36 24H34V26H36V24Z" fill="#BFBFBF"/>
<path opacity="0.3" d="M37 20V1H38V19H57L58 20H37Z" fill="black"/>
</svg>
