<svg width="258" height="126" viewBox="0 0 258 126" fill="none" xmlns="http://www.w3.org/2000/svg">
<path d="M215.066 49.6708C211.381 49.6708 207.804 50.0931 204.397 50.883C198.29 42.997 188.104 37.8318 176.564 37.8318C172.815 37.8318 169.216 38.384 165.845 39.39C160.164 16.9104 137.704 0.11731 110.844 0.11731C79.6939 0.11731 54.4417 22.696 54.4417 50.5483C54.4417 51.1228 54.4698 51.6915 54.4891 52.2588C50.5248 51.1479 46.3076 50.5483 41.9337 50.5483C18.7753 50.5483 0.00012207 67.3321 0.00012207 88.0437C0.00012207 108.75 18.7761 125.535 41.9337 125.535H215.067C238.499 125.535 257.495 108.552 257.495 87.6029C257.493 66.6528 238.497 49.6708 215.066 49.6708Z" fill="#FAF7F7"/>
</svg>
