<svg width="100" height="71" viewBox="0 0 100 71" fill="none" xmlns="http://www.w3.org/2000/svg">
<path d="M1.18411 17C2.75536 18.9811 5 19.3585 5 19.3585C3.65322 20.2075 3.76545 20.7736 3.65321 22C2.1942 21.5283 1.07187 20.7736 0.174018 19.6415C-0.274911 18.5094 0.174019 17.6604 1.18411 17Z" fill="url(#paint0_linear_1404_1156)"/>
<path d="M31.2949 53C32.7545 55.037 35 55.5 35 55.5C33.6527 56.2407 33.6527 56.7963 33.5404 58C32.1931 57.4444 31.0703 56.6111 30.1721 55.5C29.723 54.3889 30.1721 53.5556 31.2949 53Z" fill="#BDECFF"/>
<path d="M43.1567 17C45.6299 18.4842 47.4848 17.2968 47.4848 17.2968C46.9695 19.3748 47.3817 19.9685 48 21.7495C46.6604 22.1948 45.2177 22.0464 43.878 21.3043C42.9506 20.1169 42.8475 18.6327 43.1567 17Z" fill="#BDECFF"/>
<path d="M51.2206 66C52.7768 68.0192 55 68.4038 55 68.4038C53.7773 69.2692 53.7773 69.75 53.6661 71C52.2211 70.5192 51.1095 69.75 50.2202 68.5962C49.6644 67.4423 50.2202 66.6731 51.2206 66Z" fill="url(#paint1_linear_1404_1156)"/>
<path d="M30.4828 0C32.7965 1.70732 35 1.34146 35 1.34146C34.2288 2.80488 34.4491 3.53658 34.8898 5C33.3474 5 31.9151 4.5122 30.593 3.53659C29.8218 2.43902 29.8218 1.34146 30.4828 0Z" fill="url(#paint2_linear_1404_1156)"/>
<path d="M8.37622 44.2638C10.4671 42.9135 11.0126 40.7755 11.0126 40.7755C11.7399 42.1258 12.1944 42.2383 13.3762 42.4634C12.7399 43.8137 11.9217 44.9389 10.7399 45.7266C9.73986 45.9517 8.92168 45.389 8.37622 44.2638Z" fill="url(#paint3_linear_1404_1156)"/>
<path d="M95.055 5.76482C97.4324 6.6826 99.049 5 99.049 5C98.8588 7.14149 99.2392 7.75335 100 9.28298C98.7637 10.0478 97.5275 10.2008 96.1961 9.74187C95.1501 8.97706 94.8648 7.60038 95.055 5.76482Z" fill="#BDECFF"/>
<path d="M65.2006 31C67.6514 32.4864 69.4894 31.2973 69.4894 31.2973C68.9789 33.3783 69.3873 33.9728 70 35.7565C68.6725 36.2024 67.2429 36.0538 65.9154 35.1619C64.9964 34.1215 64.7921 32.635 65.2006 31Z" fill="url(#paint4_linear_1404_1156)"/>
<path d="M48.0005 50.6384L59.4545 44.0235L59.4536 57.2518L48.0005 50.6384Z" fill="#BDECFF"/>
<path d="M75.1973 10.5994L69.7993 13.7173L69.7993 7.48295L75.1973 10.5994Z" fill="url(#paint5_linear_1404_1156)"/>
<path d="M12.6558 25.0541L25.7681 26.7921L17.704 37.2782L12.6558 25.0541Z" fill="#BDECFF"/>
<defs>
<linearGradient id="paint0_linear_1404_1156" x1="-0.0107161" y1="19.4903" x2="5.04882" y2="19.4903" gradientUnits="userSpaceOnUse">
<stop stop-color="#FFC671"/>
<stop offset="0.5938" stop-color="#FF7541"/>
<stop offset="1" stop-color="#FF6F3D"/>
</linearGradient>
<linearGradient id="paint1_linear_1404_1156" x1="49.9954" y1="68.4902" x2="55.0064" y2="68.4902" gradientUnits="userSpaceOnUse">
<stop stop-color="#FFC671"/>
<stop offset="0.5938" stop-color="#FF7541"/>
<stop offset="1" stop-color="#FF6F3D"/>
</linearGradient>
<linearGradient id="paint2_linear_1404_1156" x1="30" y1="-0.195313" x2="35" y2="5" gradientUnits="userSpaceOnUse">
<stop stop-color="#FFC671"/>
<stop offset="0.59375" stop-color="#FF7541"/>
<stop offset="1" stop-color="#FF6F3D"/>
</linearGradient>
<linearGradient id="paint3_linear_1404_1156" x1="8.40949" y1="43.2602" x2="13.396" y2="43.2602" gradientUnits="userSpaceOnUse">
<stop stop-color="#FFC671"/>
<stop offset="0.5938" stop-color="#FF7541"/>
<stop offset="1" stop-color="#FF6F3D"/>
</linearGradient>
<linearGradient id="paint4_linear_1404_1156" x1="65.0089" y1="33.4212" x2="70.084" y2="33.4212" gradientUnits="userSpaceOnUse">
<stop stop-color="#FFC671"/>
<stop offset="0.5938" stop-color="#FF7541"/>
<stop offset="1" stop-color="#FF6F3D"/>
</linearGradient>
<linearGradient id="paint5_linear_1404_1156" x1="75.1973" y1="10.5994" x2="68" y2="10.5994" gradientUnits="userSpaceOnUse">
<stop stop-color="#FF8E3D"/>
<stop offset="1" stop-color="#FF6F3D"/>
</linearGradient>
</defs>
</svg>
