<svg width="77" height="65" viewBox="0 0 77 65" fill="none" xmlns="http://www.w3.org/2000/svg">
<g clip-path="url(#clip0_1404_1168)">
<path d="M51 52.1841C49.0189 53.7554 48.6415 56 48.6415 56C47.7925 54.6532 47.2264 54.7654 46 54.6532C46.4717 53.1942 47.2264 52.0719 48.3585 51.174C49.4906 50.7251 50.3396 51.174 51 52.1841Z" fill="#BDECFF"/>
<path d="M12 42.2949C9.96296 43.7545 9.5 46 9.5 46C8.75926 44.6527 8.2037 44.6527 7 44.5404C7.55556 43.1931 8.38889 42.0703 9.5 41.1721C10.6111 40.723 11.4444 41.1721 12 42.2949Z" fill="#BDECFF"/>
<path d="M41 17.1567C39.5158 19.6299 40.7032 21.4848 40.7032 21.4848C38.6252 20.9695 38.0315 21.3817 36.2505 22C35.8052 20.6604 35.9536 19.2177 36.6957 17.878C37.8831 16.9506 39.3673 16.8475 41 17.1567Z" fill="#BDECFF"/>
<path d="M12 56.2206C9.98077 57.7768 9.59615 60 9.59615 60C8.73077 58.7773 8.25 58.7773 7 58.6661C7.48077 57.2211 8.25 56.1095 9.40385 55.2202C10.5577 54.6644 11.3269 55.2202 12 56.2206Z" fill="url(#paint0_linear_1404_1168)"/>
<path d="M38 40.4828C36.2927 42.7965 36.6585 45 36.6585 45C35.1951 44.2288 34.4634 44.4491 33 44.8898C33 43.3474 33.4878 41.9151 34.4634 40.593C35.561 39.8218 36.6585 39.8218 38 40.4828Z" fill="url(#paint1_linear_1404_1168)"/>
<path d="M19.5117 5C20.862 7.09091 23 7.63636 23 7.63636C21.6497 8.36364 21.5372 8.81818 21.3121 10C19.9618 9.36364 18.8366 8.54545 18.0489 7.36364C17.8239 6.36364 18.3865 5.54545 19.5117 5Z" fill="url(#paint2_linear_1404_1168)"/>
<path d="M64.2352 35.055C63.3174 37.4324 65 39.049 65 39.049C62.8585 38.8588 62.2467 39.2392 60.717 40C59.9522 38.7637 59.7992 37.5275 60.2581 36.1961C61.0229 35.1501 62.3996 34.8648 64.2352 35.055Z" fill="#BDECFF"/>
<path d="M58 0.200598C56.5136 2.65136 57.7027 4.48943 57.7027 4.48943C55.6217 3.97885 55.0272 4.38731 53.2435 5C52.7976 3.6725 52.9462 2.24289 53.8381 0.9154C54.8785 -0.00363513 56.365 -0.207862 58 0.200598Z" fill="#BDECFF"/>
<path d="M6.63755 15.0004L12.3865 24.955L0.889932 24.9542L6.63755 15.0004Z" fill="#BDECFF"/>
<path d="M61.6003 64.1973L58.4824 58.7993L64.7168 58.7993L61.6003 64.1973Z" fill="url(#paint3_linear_1404_1168)"/>
<path d="M70.0161 12.5827L68.2781 25.695L57.792 17.6308L70.0161 12.5827Z" fill="url(#paint4_linear_1404_1168)"/>
</g>
<defs>
<linearGradient id="paint0_linear_1404_1168" x1="9.50981" y1="54.9954" x2="9.50981" y2="60.0064" gradientUnits="userSpaceOnUse">
<stop stop-color="#FFC671"/>
<stop offset="0.5938" stop-color="#FF7541"/>
<stop offset="1" stop-color="#FF6F3D"/>
</linearGradient>
<linearGradient id="paint1_linear_1404_1168" x1="38.1953" y1="40" x2="33" y2="45" gradientUnits="userSpaceOnUse">
<stop stop-color="#FFC671"/>
<stop offset="0.59375" stop-color="#FF7541"/>
<stop offset="1" stop-color="#FF6F3D"/>
</linearGradient>
<linearGradient id="paint2_linear_1404_1168" x1="20.5153" y1="5.03327" x2="20.5153" y2="10.0198" gradientUnits="userSpaceOnUse">
<stop stop-color="#FFC671"/>
<stop offset="0.5938" stop-color="#FF7541"/>
<stop offset="1" stop-color="#FF6F3D"/>
</linearGradient>
<linearGradient id="paint3_linear_1404_1168" x1="61.6003" y1="64.1973" x2="61.6003" y2="57" gradientUnits="userSpaceOnUse">
<stop stop-color="#FF8E3D"/>
<stop offset="1" stop-color="#FF6F3D"/>
</linearGradient>
<linearGradient id="paint4_linear_1404_1168" x1="64.3255" y1="7.45397" x2="66.7574" y2="29.346" gradientUnits="userSpaceOnUse">
<stop stop-color="#FFC671"/>
<stop offset="0.59375" stop-color="#FF7541"/>
<stop offset="1" stop-color="#FF6F3D"/>
</linearGradient>
<clipPath id="clip0_1404_1168">
<rect width="65" height="76.0703" fill="white" transform="translate(76.0703) rotate(90)"/>
</clipPath>
</defs>
</svg>
