<svg width="493" height="307" viewBox="0 0 493 307" fill="none" xmlns="http://www.w3.org/2000/svg">
<path fill-rule="evenodd" clip-rule="evenodd" d="M241.5 307C374.445 307 483 299.889 483 291C483 282.259 374.554 275 241.5 275C108.446 275 0 282.111 0 291C0.108882 299.889 108.555 307 241.5 307Z" fill="#EFEFEF"/>
<path d="M99.5033 244H384.497C391.356 244 397 238.5 397 231.73V41.2698C397 34.4999 391.356 29 384.497 29H99.5033C92.6436 29 87 34.4999 87 41.2698V231.73C87 238.5 92.6436 244 99.5033 244Z" fill="#FCFCFC" stroke="#333333" stroke-width="2"/>
<path d="M285.8 244V263.86C285.8 271.023 291.115 277.004 297.915 277.587C297.948 277.59 297.975 277.605 297.991 277.621C297.997 277.628 297.999 277.632 298 277.634C298 277.634 298 277.634 298 277.634V281H185V277.634C185 277.634 185 277.634 185 277.634C185.001 277.632 185.003 277.628 185.009 277.621C185.025 277.605 185.052 277.59 185.085 277.587C191.885 277.004 197.2 271.023 197.2 263.86V244L285.8 244ZM298 277.634C298 277.634 298 277.634 298 277.634C298 277.634 298 277.634 298 277.634L298 277.634Z" fill="white" stroke="#333333" stroke-width="2"/>
<path d="M300 273H184C182.895 273 182 273.895 182 275V280C182 281.105 182.895 282 184 282H300C301.105 282 302 281.105 302 280V275C302 273.895 301.105 273 300 273Z" fill="white" stroke="#333333" stroke-width="2"/>
<mask id="path-5-inside-1_634_0" fill="white">
<path d="M241.866 234.709C238.827 234.709 236.366 232.248 236.366 229.209C236.366 226.169 238.827 223.709 241.866 223.709C244.906 223.709 247.366 226.169 247.366 229.209C247.366 232.248 244.906 234.709 241.866 234.709ZM241.866 224.505C239.261 224.505 237.09 226.676 237.09 229.281C237.09 231.887 239.261 234.058 241.866 234.058C244.471 234.058 246.643 231.887 246.643 229.281C246.643 226.676 244.471 224.505 241.866 224.505Z"/>
</mask>
<path d="M241.866 234.709C238.827 234.709 236.366 232.248 236.366 229.209C236.366 226.169 238.827 223.709 241.866 223.709C244.906 223.709 247.366 226.169 247.366 229.209C247.366 232.248 244.906 234.709 241.866 234.709ZM241.866 224.505C239.261 224.505 237.09 226.676 237.09 229.281C237.09 231.887 239.261 234.058 241.866 234.058C244.471 234.058 246.643 231.887 246.643 229.281C246.643 226.676 244.471 224.505 241.866 224.505Z" fill="#333333"/>
<path d="M241.866 233.709C239.379 233.709 237.366 231.696 237.366 229.209H235.366C235.366 232.801 238.274 235.709 241.866 235.709V233.709ZM237.366 229.209C237.366 226.722 239.379 224.709 241.866 224.709V222.709C238.274 222.709 235.366 225.617 235.366 229.209H237.366ZM241.866 224.709C244.353 224.709 246.366 226.722 246.366 229.209H248.366C248.366 225.617 245.458 222.709 241.866 222.709V224.709ZM246.366 229.209C246.366 231.696 244.353 233.709 241.866 233.709V235.709C245.458 235.709 248.366 232.801 248.366 229.209H246.366ZM241.866 223.505C238.709 223.505 236.09 226.124 236.09 229.281H238.09C238.09 227.228 239.813 225.505 241.866 225.505V223.505ZM236.09 229.281C236.09 232.439 238.709 235.058 241.866 235.058V233.058C239.813 233.058 238.09 231.334 238.09 229.281H236.09ZM241.866 235.058C245.024 235.058 247.643 232.439 247.643 229.281H245.643C245.643 231.334 243.919 233.058 241.866 233.058V235.058ZM247.643 229.281C247.643 226.124 245.024 223.505 241.866 223.505V225.505C243.919 225.505 245.643 227.228 245.643 229.281H247.643Z" fill="#333333" mask="url(#path-5-inside-1_634_0)"/>
<rect x="95.5" y="38.5" width="291" height="178" rx="1.5" stroke="#666666"/>
<path d="M96 40C96 39.4477 96.4477 39 97 39H385C385.552 39 386 39.4477 386 40V59H96V40Z" fill="#0F4071" fill-opacity="0.9"/>
<rect x="198" y="59" width="1" height="157" fill="#CCCCCC"/>
<rect x="104" y="71" width="86" height="18" rx="2" fill="url(#paint0_linear_634_0)"/>
<path fill-rule="evenodd" clip-rule="evenodd" d="M111.9 56.7912L104.474 53.2831C103.842 52.9768 103.842 52.5035 104.474 52.2251L107.06 51L111.872 53.2831C112.505 53.5893 113.523 53.5893 114.128 53.2831L118.94 51L121.526 52.2251C122.158 52.5313 122.158 53.0046 121.526 53.2831L114.1 56.7912C113.523 57.0696 112.505 57.0696 111.9 56.7912Z" fill="#FF6F3D"/>
<path fill-rule="evenodd" clip-rule="evenodd" d="M111.876 52.77L104.473 49.2578C103.842 48.9512 103.842 48.4774 104.473 48.1986L106.995 47L111.876 49.3136C112.506 49.6202 113.521 49.6202 114.124 49.3136L119.005 47L121.527 48.1986C122.158 48.5052 122.158 48.9791 121.527 49.2578L114.124 52.77C113.494 53.0767 112.479 53.0767 111.876 52.77Z" fill="#95C038"/>
<path fill-rule="evenodd" clip-rule="evenodd" d="M111.876 48.8038L104.473 45.507C103.842 45.2191 103.842 44.7743 104.473 44.5127L111.876 41.2159C112.506 40.928 113.521 40.928 114.124 41.2159L121.527 44.5127C122.158 44.8005 122.158 45.2453 121.527 45.507L114.124 48.8038C113.494 49.0654 112.479 49.0654 111.876 48.8038Z" fill="#5DC0E8"/>
<path d="M126.02 48.9675C126.02 47.6045 126.415 46.5759 127.231 45.9073C128.022 45.213 128.97 44.8787 130.05 44.8787C131.13 44.8787 132.051 45.213 132.842 45.9073C133.632 46.6016 134.027 47.6045 134.027 48.9932C134.027 50.3561 133.632 51.3847 132.842 52.0533C132.051 52.7477 131.103 53.082 130.05 53.082C128.97 53.082 128.048 52.7477 127.231 52.0533C126.415 51.359 126.02 50.3304 126.02 48.9675ZM127.758 48.9675C127.758 49.9189 127.943 50.5875 128.285 51.0247C128.654 51.4619 129.049 51.7448 129.47 51.8476C129.576 51.8733 129.655 51.8991 129.76 51.8991C129.839 51.8991 129.944 51.9248 130.023 51.9248C130.129 51.9248 130.208 51.9248 130.313 51.8991C130.418 51.8991 130.497 51.8733 130.603 51.8476C131.024 51.7448 131.419 51.4619 131.762 51.0247C132.104 50.5875 132.288 49.8932 132.288 48.9932C132.288 48.0674 132.104 47.3988 131.762 46.9616C131.419 46.5245 131.024 46.2416 130.603 46.1387C130.497 46.113 130.392 46.0873 130.313 46.0873C130.208 46.0873 130.129 46.0616 130.023 46.0616C129.918 46.0616 129.839 46.0616 129.76 46.0873C129.681 46.0873 129.576 46.113 129.47 46.1387C129.049 46.2416 128.654 46.5245 128.285 46.9616C127.943 47.3474 127.758 48.0417 127.758 48.9675Z" fill="white"/>
<path d="M134.896 44.9561H137.056L139.9 49.9963L140.322 51.1021H140.348L140.322 49.662V44.9561H141.981V52.9794H139.821L136.977 47.7334L136.555 46.8333H136.529L136.555 48.2477V52.9794H134.896V44.9561Z" fill="white"/>
<path d="M143.693 44.9561H145.352V51.6164H148.618V52.9794H143.693V44.9561Z" fill="white"/>
<path d="M147.591 44.9561H149.514L151.2 47.7591L151.463 48.3248H151.516L151.779 47.7591L153.491 44.9561H155.256L152.28 49.7135V52.9794H150.62V49.6877L147.591 44.9561Z" fill="white"/>
<path d="M155.045 48.9675C155.045 47.6045 155.44 46.5759 156.257 45.9073C157.047 45.213 157.995 44.8787 159.075 44.8787C160.155 44.8787 161.077 45.213 161.867 45.9073C162.657 46.6016 163.052 47.6045 163.052 48.9932C163.052 50.3561 162.657 51.3847 161.867 52.0533C161.077 52.7477 160.129 53.082 159.075 53.082C157.995 53.082 157.073 52.7477 156.257 52.0533C155.467 51.359 155.045 50.3304 155.045 48.9675ZM156.784 48.9675C156.784 49.9189 156.968 50.5875 157.31 51.0247C157.679 51.4619 158.048 51.7448 158.496 51.8476C158.601 51.8733 158.68 51.899 158.785 51.899C158.864 51.899 158.97 51.9248 159.049 51.9248C159.154 51.9248 159.233 51.9248 159.338 51.899C159.444 51.899 159.523 51.8733 159.628 51.8476C160.05 51.7448 160.445 51.4619 160.787 51.0247C161.129 50.5875 161.314 49.8932 161.314 48.9932C161.314 48.0674 161.129 47.3988 160.787 46.9616C160.445 46.5245 160.05 46.2416 159.628 46.1387C159.523 46.113 159.417 46.0873 159.338 46.0873C159.233 46.0873 159.154 46.0616 159.049 46.0616C158.943 46.0616 158.864 46.0616 158.785 46.0873C158.706 46.0873 158.601 46.113 158.496 46.1387C158.074 46.2416 157.679 46.5245 157.31 46.9616C156.968 47.3474 156.784 48.0417 156.784 48.9675Z" fill="white"/>
<path d="M164.211 44.9561H168.794V46.2933H165.87V48.2477H168.662V49.6106H165.87V52.9794H164.211V44.9561Z" fill="white"/>
<path d="M170.032 44.9561H174.615V46.2933H171.692V48.2477H174.484V49.6106H171.692V52.9794H170.032V44.9561Z" fill="white"/>
<path d="M175.59 52.9794V44.9561H177.249V52.9794H175.59Z" fill="white"/>
<path d="M184.56 45.1354V46.5241C184.271 46.4212 183.981 46.3441 183.665 46.2926C183.349 46.2412 182.98 46.2155 182.611 46.2155C181.742 46.2155 181.084 46.4726 180.609 47.0127C180.135 47.527 179.898 48.1956 179.898 48.9928C179.898 49.7642 180.109 50.4071 180.557 50.9214C181.005 51.4358 181.637 51.7186 182.453 51.7186C182.743 51.7186 183.033 51.6929 183.375 51.6672C183.717 51.6158 184.06 51.5386 184.429 51.3843L184.534 52.7473C184.481 52.773 184.402 52.7987 184.323 52.8244C184.218 52.8501 184.112 52.8758 183.981 52.9016C183.77 52.953 183.507 52.9787 183.191 53.0301C182.875 53.0559 182.558 53.0816 182.216 53.0816C182.163 53.0816 182.111 53.0816 182.084 53.0816C182.032 53.0816 181.979 53.0816 181.953 53.0816C181.005 53.0301 180.135 52.6701 179.345 52.0529C178.555 51.41 178.16 50.4071 178.16 49.0699C178.16 47.7584 178.555 46.7298 179.319 46.0097C180.083 45.2897 181.136 44.9297 182.427 44.9297C182.769 44.9297 183.085 44.9297 183.349 44.9554C183.638 44.9811 183.902 45.0326 184.192 45.084C184.244 45.1097 184.323 45.1097 184.376 45.1354C184.429 45.1097 184.481 45.1354 184.56 45.1354Z" fill="white"/>
<path d="M185.877 44.9561H190.803V46.2161H187.563V48.2219H190.487V49.4563H187.563V51.7193H190.803V52.9794H185.877V44.9561Z" fill="white"/>
<rect x="212.718" y="75.5" width="59" height="7" rx="3.5" fill="#EFEFEF" stroke="#CCCCCC"/>
<path fill-rule="evenodd" clip-rule="evenodd" d="M212.218 98.5C212.218 98.2239 213.767 98 215.678 98H359.759C361.669 98 363.218 98.2239 363.218 98.5C363.218 98.7761 361.669 99 359.759 99H215.678C213.767 99 212.218 98.7761 212.218 98.5Z" fill="#CCCCCC"/>
<path fill-rule="evenodd" clip-rule="evenodd" d="M212.218 109.5C212.218 109.224 213.767 109 215.678 109H359.759C361.669 109 363.218 109.224 363.218 109.5C363.218 109.776 361.669 110 359.759 110H215.678C213.767 110 212.218 109.776 212.218 109.5Z" fill="#CCCCCC"/>
<path fill-rule="evenodd" clip-rule="evenodd" d="M212.218 120.5C212.218 120.224 213.767 120 215.678 120H359.759C361.669 120 363.218 120.224 363.218 120.5C363.218 120.776 361.669 121 359.759 121H215.678C213.767 121 212.218 120.776 212.218 120.5Z" fill="#CCCCCC"/>
<path fill-rule="evenodd" clip-rule="evenodd" d="M212.218 131.5C212.218 131.224 213.767 131 215.678 131H359.759C361.669 131 363.218 131.224 363.218 131.5C363.218 131.776 361.669 132 359.759 132H215.678C213.767 132 212.218 131.776 212.218 131.5Z" fill="#CCCCCC"/>
<path fill-rule="evenodd" clip-rule="evenodd" d="M212.218 142.5C212.218 142.224 213.767 142 215.678 142H359.759C361.669 142 363.218 142.224 363.218 142.5C363.218 142.776 361.669 143 359.759 143H215.678C213.767 143 212.218 142.776 212.218 142.5Z" fill="#CCCCCC"/>
<path d="M169 281.545L169 132.455C169 128.897 166.125 126 162.594 126L63.4058 126C59.875 126 57 128.897 57 132.455L57 281.545C57 285.103 59.875 288 63.4058 288H162.619C166.15 287.975 169 285.103 169 281.545Z" fill="#333333"/>
<path d="M170 282.289L170 131.711C170 127.613 166.598 125 163.086 125L62.5423 125C58.9359 125 56 127.939 56 131.546L56 282.303C56 285.876 58.9016 289 62.5423 289L163.16 289C166.734 289 170 285.955 170 282.289Z" fill="url(#paint1_linear_634_0)" stroke="#333333" stroke-width="2"/>
<rect x="60.5" y="132.5" width="105" height="152" rx="1.5" fill="white" stroke="#666666"/>
<rect x="105" y="151" width="1" height="133" fill="#CCCCCC"/>
<rect x="66" y="157" width="34" height="9" rx="2" fill="url(#paint2_linear_634_0)"/>
<path d="M61 151H165V134C165 133.448 164.552 133 164 133H62C61.4477 133 61 133.448 61 134V151Z" fill="#0F4071" fill-opacity="0.9"/>
<path d="M82.3594 141.976C82.3594 140.953 82.6558 140.182 83.2685 139.68C83.8614 139.16 84.5729 138.909 85.3833 138.909C86.1936 138.909 86.8853 139.16 87.4783 139.68C88.0712 140.201 88.3676 140.953 88.3676 141.995C88.3676 143.017 88.0712 143.788 87.4783 144.29C86.8853 144.811 86.1738 145.061 85.3833 145.061C84.5729 145.061 83.8812 144.811 83.2685 144.29C82.6558 143.769 82.3594 142.998 82.3594 141.976ZM83.6638 141.976C83.6638 142.689 83.8021 143.191 84.0591 143.518C84.3358 143.846 84.6322 144.059 84.9485 144.136C85.0275 144.155 85.0868 144.174 85.1659 144.174C85.2252 144.174 85.3042 144.194 85.3635 144.194C85.4426 144.194 85.5019 144.194 85.5809 144.174C85.66 144.174 85.7193 144.155 85.7983 144.136C86.1145 144.059 86.411 143.846 86.6679 143.518C86.9249 143.191 87.0632 142.67 87.0632 141.995C87.0632 141.3 86.9249 140.799 86.6679 140.471C86.411 140.143 86.1145 139.931 85.7983 139.854C85.7193 139.835 85.6402 139.815 85.5809 139.815C85.5019 139.815 85.4426 139.796 85.3635 139.796C85.2845 139.796 85.2252 139.796 85.1659 139.815C85.1066 139.815 85.0275 139.835 84.9485 139.854C84.6322 139.931 84.3358 140.143 84.0591 140.471C83.8021 140.76 83.6638 141.281 83.6638 141.976Z" fill="white"/>
<path d="M89.0198 138.967H90.6404L92.7749 142.747L93.0912 143.576H93.1109L93.0912 142.496V138.967H94.3363V144.984H92.7157L90.5811 141.05L90.2649 140.375H90.2451L90.2649 141.436V144.984H89.0198V138.967Z" fill="white"/>
<path d="M95.6211 138.967H96.8662V143.962H99.317V144.984H95.6211V138.967Z" fill="white"/>
<path d="M98.5461 138.967H99.9889L101.254 141.069L101.451 141.493H101.491L101.689 141.069L102.973 138.967H104.297L102.064 142.535V144.984H100.819V142.516L98.5461 138.967Z" fill="white"/>
<path d="M104.139 141.976C104.139 140.953 104.436 140.182 105.049 139.68C105.641 139.16 106.353 138.909 107.163 138.909C107.974 138.909 108.665 139.16 109.258 139.68C109.851 140.201 110.148 140.953 110.148 141.995C110.148 143.017 109.851 143.788 109.258 144.29C108.665 144.811 107.954 145.061 107.163 145.061C106.353 145.061 105.661 144.811 105.049 144.29C104.456 143.769 104.139 142.998 104.139 141.976ZM105.444 141.976C105.444 142.689 105.582 143.191 105.839 143.518C106.116 143.846 106.393 144.058 106.728 144.136C106.808 144.155 106.867 144.174 106.946 144.174C107.005 144.174 107.084 144.194 107.144 144.194C107.223 144.194 107.282 144.194 107.361 144.174C107.44 144.174 107.499 144.155 107.578 144.136C107.895 144.058 108.191 143.846 108.448 143.518C108.705 143.191 108.843 142.67 108.843 141.995C108.843 141.3 108.705 140.799 108.448 140.471C108.191 140.143 107.895 139.931 107.578 139.854C107.499 139.835 107.42 139.815 107.361 139.815C107.282 139.815 107.223 139.796 107.144 139.796C107.064 139.796 107.005 139.796 106.946 139.815C106.887 139.815 106.808 139.835 106.728 139.854C106.412 139.931 106.116 140.143 105.839 140.471C105.582 140.76 105.444 141.281 105.444 141.976Z" fill="white"/>
<path d="M111.017 138.967H114.456V139.97H112.262V141.436H114.357V142.458H112.262V144.984H111.017V138.967Z" fill="white"/>
<path d="M115.385 138.967H118.824V139.97H116.63V141.436H118.725V142.458H116.63V144.984H115.385V138.967Z" fill="white"/>
<path d="M119.555 144.984V138.967H120.801V144.984H119.555Z" fill="white"/>
<path d="M126.287 139.102V140.143C126.069 140.066 125.852 140.008 125.615 139.97C125.378 139.931 125.101 139.912 124.824 139.912C124.172 139.912 123.678 140.105 123.322 140.51C122.966 140.895 122.789 141.397 122.789 141.995C122.789 142.573 122.947 143.056 123.283 143.441C123.619 143.827 124.093 144.039 124.706 144.039C124.923 144.039 125.14 144.02 125.397 144.001C125.654 143.962 125.911 143.904 126.188 143.788L126.267 144.811C126.227 144.83 126.168 144.849 126.109 144.869C126.03 144.888 125.951 144.907 125.852 144.926C125.694 144.965 125.496 144.984 125.259 145.023C125.022 145.042 124.785 145.061 124.528 145.061C124.488 145.061 124.449 145.061 124.429 145.061C124.389 145.061 124.35 145.061 124.33 145.061C123.619 145.023 122.966 144.753 122.374 144.29C121.781 143.808 121.484 143.056 121.484 142.053C121.484 141.069 121.781 140.298 122.354 139.758C122.927 139.218 123.717 138.948 124.686 138.948C124.943 138.948 125.18 138.948 125.378 138.967C125.595 138.986 125.793 139.025 126.01 139.063C126.05 139.083 126.109 139.083 126.148 139.102C126.188 139.083 126.227 139.102 126.287 139.102Z" fill="white"/>
<path d="M127.275 138.967H130.971V139.912H128.54V141.416H130.734V142.342H128.54V144.039H130.971V144.984H127.275V138.967Z" fill="white"/>
<path fill-rule="evenodd" clip-rule="evenodd" d="M71.7203 147.853L66.3437 145.381C65.8857 145.165 65.8857 144.832 66.3437 144.636L68.2156 143.773L71.7004 145.381C72.1584 145.597 72.8952 145.597 73.3333 145.381L76.8181 143.773L78.6899 144.636C79.1479 144.852 79.1479 145.185 78.6899 145.381L73.3133 147.853C72.8952 148.049 72.1584 148.049 71.7203 147.853Z" fill="#FF6F3D"/>
<path fill-rule="evenodd" clip-rule="evenodd" d="M71.7203 144.813L66.3437 142.341C65.8857 142.125 65.8857 141.792 66.3437 141.596L68.1758 140.752L71.7203 142.38C72.1783 142.596 72.9151 142.596 73.3532 142.38L76.8977 140.752L78.7297 141.596C79.1877 141.811 79.1877 142.145 78.7297 142.341L73.3532 144.813C72.8952 145.028 72.1584 145.028 71.7203 144.813Z" fill="#95C038"/>
<path fill-rule="evenodd" clip-rule="evenodd" d="M71.72 141.85L66.3435 139.379C65.8855 139.163 65.8855 138.83 66.3435 138.633L71.72 136.162C72.1781 135.946 72.9148 135.946 73.3529 136.162L78.7295 138.633C79.1875 138.849 79.1875 139.183 78.7295 139.379L73.3529 141.85C72.8949 142.046 72.1581 142.046 71.72 141.85Z" fill="#5DC0E8"/>
<g clip-path="url(#clip0_634_0)">
<path fill-rule="evenodd" clip-rule="evenodd" d="M113 175.5C113 175.224 113.462 175 114.031 175H156.969C157.538 175 158 175.224 158 175.5C158 175.776 157.538 176 156.969 176H114.031C113.462 176 113 175.776 113 175.5Z" fill="#CCCCCC"/>
<path fill-rule="evenodd" clip-rule="evenodd" d="M113 184.5C113 184.224 113.462 184 114.031 184H156.969C157.538 184 158 184.224 158 184.5C158 184.776 157.538 185 156.969 185H114.031C113.462 185 113 184.776 113 184.5Z" fill="#CCCCCC"/>
<path fill-rule="evenodd" clip-rule="evenodd" d="M113 193.5C113 193.224 113.462 193 114.031 193H156.969C157.538 193 158 193.224 158 193.5C158 193.776 157.538 194 156.969 194H114.031C113.462 194 113 193.776 113 193.5Z" fill="#CCCCCC"/>
<path fill-rule="evenodd" clip-rule="evenodd" d="M113 202.5C113 202.224 113.462 202 114.031 202H156.969C157.538 202 158 202.224 158 202.5C158 202.776 157.538 203 156.969 203H114.031C113.462 203 113 202.776 113 202.5Z" fill="#CCCCCC"/>
<path fill-rule="evenodd" clip-rule="evenodd" d="M113 211.5C113 211.224 113.462 211 114.031 211H156.969C157.538 211 158 211.224 158 211.5C158 211.776 157.538 212 156.969 212H114.031C113.462 212 113 211.776 113 211.5Z" fill="#CCCCCC"/>
<path fill-rule="evenodd" clip-rule="evenodd" d="M113 220.5C113 220.224 113.462 220 114.031 220H156.969C157.538 220 158 220.224 158 220.5C158 220.776 157.538 221 156.969 221H114.031C113.462 221 113 220.776 113 220.5Z" fill="#CCCCCC"/>
</g>
<rect x="113.5" y="159.5" width="44" height="5" rx="2.5" fill="#EFEFEF" stroke="#CCCCCC"/>
<path d="M113 130C113.559 130 114 129.559 114 129C114 128.441 113.559 128 113 128C112.441 128 112 128.441 112 129C112 129.559 112.441 130 113 130Z" fill="#333333"/>
<path d="M73.3252 296C78.104 296 82 292.193 82 287.453V198.547C82 193.807 78.104 190 73.3252 190H36.6748C31.896 190 28 193.807 28 198.547L28 287.453C28 292.193 31.896 296 36.6748 296H73.3252Z" fill="#F5F5F5"/>
<path d="M73.3252 296C78.104 296 82 292.193 82 287.453V198.547C82 193.807 78.104 190 73.3252 190H36.6748C31.896 190 28 193.807 28 198.547L28 287.453C28 292.193 31.896 296 36.6748 296H73.3252Z" fill="url(#paint3_linear_634_0)"/>
<path d="M73.3252 296C78.104 296 82 292.193 82 287.453V198.547C82 193.807 78.104 190 73.3252 190H36.6748C31.896 190 28 193.807 28 198.547L28 287.453C28 292.193 31.896 296 36.6748 296H73.3252Z" fill="url(#paint4_linear_634_0)"/>
<path d="M73.3252 296C78.104 296 82 292.193 82 287.453V198.547C82 193.807 78.104 190 73.3252 190H36.6748C31.896 190 28 193.807 28 198.547L28 287.453C28 292.193 31.896 296 36.6748 296H73.3252Z" stroke="#333333" stroke-width="2" stroke-miterlimit="10"/>
<rect x="32.0002" y="219" width="46" height="8" rx="2" fill="url(#paint5_linear_634_0)"/>
<path fill-rule="evenodd" clip-rule="evenodd" d="M32.0002 233.5C32.0002 233.224 32.4721 233 33.0541 233H76.9464C77.5284 233 78.0002 233.224 78.0002 233.5C78.0002 233.776 77.5284 234 76.9464 234H33.0541C32.4721 234 32.0002 233.776 32.0002 233.5Z" fill="#CCCCCC"/>
<path fill-rule="evenodd" clip-rule="evenodd" d="M32.0002 239.5C32.0002 239.224 32.4721 239 33.0541 239H76.9464C77.5284 239 78.0002 239.224 78.0002 239.5C78.0002 239.776 77.5284 240 76.9464 240H33.0541C32.4721 240 32.0002 239.776 32.0002 239.5Z" fill="#CCCCCC"/>
<path fill-rule="evenodd" clip-rule="evenodd" d="M32.0002 245.5C32.0002 245.224 32.4721 245 33.0541 245H76.9464C77.5284 245 78.0002 245.224 78.0002 245.5C78.0002 245.776 77.5284 246 76.9464 246H33.0541C32.4721 246 32.0002 245.776 32.0002 245.5Z" fill="#CCCCCC"/>
<path fill-rule="evenodd" clip-rule="evenodd" d="M32.0002 251.5C32.0002 251.224 32.4721 251 33.0541 251H76.9464C77.5284 251 78.0002 251.224 78.0002 251.5C78.0002 251.776 77.5284 252 76.9464 252H33.0541C32.4721 252 32.0002 251.776 32.0002 251.5Z" fill="#CCCCCC"/>
<rect x="32" y="201" width="46" height="12" rx="1" fill="#0F4071" fill-opacity="0.9"/>
<path fill-rule="evenodd" clip-rule="evenodd" d="M38.9379 210.902L35.2365 209.254C34.9212 209.11 34.9212 208.888 35.2365 208.757L36.5251 208.182L38.9242 209.254C39.2395 209.398 39.7468 209.398 40.0484 209.254L42.4475 208.182L43.7361 208.757C44.0514 208.901 44.0514 209.123 43.7361 209.254L40.0347 210.902C39.7468 211.032 39.2395 211.032 38.9379 210.902Z" fill="#FF6F3D"/>
<path fill-rule="evenodd" clip-rule="evenodd" d="M38.9379 208.875L35.2365 207.227C34.9212 207.084 34.9212 206.861 35.2365 206.731L36.4977 206.168L38.9379 207.254C39.2532 207.397 39.7605 207.397 40.0621 207.254L42.5023 206.168L43.7635 206.731C44.0788 206.874 44.0788 207.097 43.7635 207.227L40.0621 208.875C39.7468 209.019 39.2395 209.019 38.9379 208.875Z" fill="#95C038"/>
<path fill-rule="evenodd" clip-rule="evenodd" d="M38.9379 206.9L35.2365 205.253C34.9212 205.109 34.9212 204.886 35.2365 204.756L38.9379 203.108C39.2532 202.964 39.7605 202.964 40.0621 203.108L43.7635 204.756C44.0788 204.899 44.0788 205.122 43.7635 205.253L40.0621 206.9C39.7468 207.031 39.2395 207.031 38.9379 206.9Z" fill="#5DC0E8"/>
<path d="M62 197C62.5332 197 63 196.552 63 196C63 195.448 62.5332 195 62 195C61.4668 195 61 195.448 61 196C61 196.552 61.4668 197 62 197Z" fill="#666666"/>
<rect x="47" y="195" width="12" height="2" rx="1" fill="#666666"/>
<path fill-rule="evenodd" clip-rule="evenodd" d="M404.232 4.54969C400.909 2.64108 393.297 5.29193 388.473 12.5023C379.039 26.6048 374.966 37.2082 367.354 43.5703C359.743 49.9323 348.594 52.3711 348.594 52.3711C348.594 52.3711 353.633 61.7021 354.276 61.8082C354.919 61.9142 368.105 56.1883 373.679 52.053C375.287 50.8866 377.324 48.3418 374.966 52.159C371.535 57.7789 357.921 64.6711 357.921 64.6711C357.921 64.6711 369.713 90.9676 394.905 91.3917C420.098 91.8158 442.181 81.6366 442.181 81.6366C442.181 81.6366 442.181 24.6962 426.851 9.42727C413.88 -3.40287 404.232 4.54969 404.232 4.54969Z" fill="white"/>
<path d="M396.299 92.8758C395.763 92.8758 395.334 92.8758 394.798 92.8758C369.07 92.4517 356.742 65.625 356.635 65.4129C356.313 64.7767 356.635 64.0345 357.278 63.7164C357.385 63.7164 363.281 60.6414 368.105 57.1423C362.209 60.3233 355.134 63.5043 354.062 63.2922C353.311 63.1862 352.775 63.0802 347.415 53.113C347.201 52.7949 347.201 52.2647 347.415 51.9466C347.63 51.5224 347.951 51.3104 348.38 51.2044C348.487 51.2044 359.315 48.8716 366.604 42.7216C371.321 38.6923 374.752 32.9665 379.04 25.5441C381.398 21.5148 384.078 16.8493 387.401 11.8656C392.225 4.65532 399.837 1.47431 404.125 3.06482C406.698 1.47431 416.239 -2.97914 427.816 8.68462C443.361 24.1656 443.468 79.5155 443.468 81.8482C443.468 82.3784 443.146 82.8026 442.717 83.0146C442.503 83.1207 420.848 92.8758 396.299 92.8758ZM359.636 65.4129C362.209 70.2905 373.787 89.9068 394.905 90.2249C416.882 90.6491 436.714 82.6965 440.788 80.8939C440.68 73.6836 439.608 24.1656 425.887 10.4872C413.88 -1.49465 405.09 5.5036 405.09 5.60963C404.661 5.92774 404.018 6.03378 403.589 5.71568C401.016 4.2312 394.155 6.56392 389.545 13.2441C386.222 18.2277 383.542 22.7872 381.184 26.8165C376.788 34.3449 373.251 40.2828 368.212 44.6302C362.102 49.7199 354.062 52.3707 350.524 53.325C352.132 56.294 353.847 59.2629 354.705 60.4293C357.492 59.369 367.891 54.8095 372.822 51.2044C373.251 50.8862 373.68 50.4621 374.108 50.144C374.966 49.4018 375.824 48.5535 376.788 49.4018C377.86 50.25 377.217 51.2043 376.038 53.113C373.036 57.9905 363.067 63.6104 359.636 65.4129Z" fill="#333333"/>
<path d="M350.416 45.585C348.165 45.585 346.343 45.2669 345.271 44.6307C344.627 44.3126 344.413 43.4643 344.735 42.8281C345.056 42.1919 345.914 41.9798 346.557 42.2979C348.487 43.3583 357.492 43.3583 365.853 38.2686C374.537 32.9669 381.612 20.5609 381.719 20.4549C382.041 19.8187 382.898 19.6066 383.542 19.9247C384.185 20.2428 384.399 21.0911 384.078 21.7273C383.756 22.2574 376.573 34.8755 367.354 40.4953C361.458 44.1005 355.026 45.585 350.416 45.585Z" fill="#333333"/>
<path d="M466.407 151.088C466.729 152.254 467.801 152.996 469.194 152.996C469.945 152.996 470.695 152.678 471.339 152.784C472.732 153.102 472.947 154.693 473.911 155.541C475.091 156.601 477.127 156.92 478.735 156.708C480.879 156.283 482.809 154.481 482.916 152.254C483.023 150.452 482.487 148.437 480.987 147.483C472.947 142.287 468.658 138.046 465.121 133.486C463.62 131.577 461.047 133.592 461.369 136.455C461.476 137.621 465.335 145.15 465.657 146.21C466.086 147.695 466.3 148.967 466.514 150.452C466.3 150.664 466.3 150.876 466.407 151.088Z" fill="white"/>
<path d="M477.664 157.875C476.056 157.875 474.341 157.345 473.269 156.391C472.733 155.967 472.411 155.437 472.197 154.906C471.768 154.164 471.553 153.952 471.232 153.846C471.017 153.846 470.696 153.846 470.267 153.952C469.945 154.058 469.624 154.058 469.302 154.058C467.587 154.164 465.979 153.104 465.443 151.407C465.336 151.089 465.336 150.877 465.228 150.559C465.121 149.287 464.907 148.014 464.478 146.53C464.371 146.105 463.513 144.303 462.763 142.818C461.048 139.213 460.297 137.411 460.19 136.668C459.868 134.336 461.155 132.639 462.548 132.003C463.728 131.473 465.014 131.897 465.872 132.957C468.873 136.774 472.733 141.016 481.523 146.636C483.453 147.908 484.096 150.453 483.989 152.362C483.881 154.906 481.737 157.239 478.95 157.769C478.414 157.769 478.093 157.875 477.664 157.875ZM470.91 151.725C471.124 151.725 471.339 151.725 471.553 151.831C472.947 152.149 473.483 153.21 473.912 153.952C474.126 154.27 474.341 154.694 474.555 154.8C475.413 155.543 477.128 155.967 478.414 155.649C480.129 155.331 481.63 153.846 481.63 152.255C481.737 150.877 481.309 149.074 480.129 148.438C472.84 143.773 468.23 139.637 463.942 134.23C463.62 133.805 463.406 133.912 463.192 134.018C462.656 134.23 461.905 135.184 462.12 136.456C462.227 136.987 463.62 140.168 464.478 141.97C465.55 144.197 466.086 145.575 466.3 146.106C466.729 147.802 467.051 149.074 467.158 150.559C467.158 150.665 467.158 150.877 467.265 150.983C467.48 151.619 468.016 152.255 468.98 152.149C469.195 152.149 469.409 152.149 469.624 152.043C470.053 151.725 470.481 151.725 470.91 151.725Z" fill="#333333"/>
<path d="M311.852 77.5078C311.154 76.519 309.894 76.1833 308.583 76.6549C307.877 76.9088 307.278 77.4621 306.637 77.5799C305.218 77.7522 304.478 76.328 303.283 75.8563C301.815 75.2575 299.791 75.6474 298.349 76.391C296.475 77.5156 295.269 79.8648 295.922 81.9965C296.431 83.729 297.617 85.4434 299.352 85.8336C308.676 88.0022 314.146 90.5424 319.018 93.6358C321.076 94.924 322.816 92.1576 321.544 89.5724C321.049 88.5111 314.87 82.7327 314.208 81.8437C313.302 80.5919 312.67 79.4671 311.966 78.1427C312.096 77.8706 312.024 77.6711 311.852 77.5078Z" fill="white"/>
<path d="M298.962 74.9296C300.476 74.3855 302.269 74.304 303.601 74.8393C304.249 75.057 304.731 75.4471 305.112 75.8735C305.766 76.4268 306.04 76.5539 306.378 76.5448C306.58 76.4723 306.883 76.3634 307.25 76.1185C307.517 75.9099 307.82 75.8011 308.122 75.6923C309.701 75.0121 311.573 75.4658 312.651 76.8809C312.86 77.144 312.931 77.3435 313.14 77.6066C313.671 78.7677 314.304 79.8925 315.209 81.1443C315.454 81.5071 316.871 82.9132 318.079 84.0562C320.913 86.8683 322.229 88.3106 322.581 88.9728C323.673 91.0591 323.037 93.0909 321.941 94.1612C321.01 95.0591 319.656 95.0952 318.491 94.3876C314.374 91.8113 309.308 89.126 299.134 86.8121C296.888 86.2677 295.421 84.0907 294.876 82.2583C294.116 79.8274 295.344 76.9067 297.788 75.4647C298.292 75.2833 298.559 75.0747 298.962 74.9296ZM307.399 78.4316C307.197 78.5041 306.995 78.5767 306.758 78.5494C305.338 78.7217 304.475 77.9052 303.821 77.3519C303.511 77.1251 303.166 76.7985 302.928 76.7713C301.87 76.363 300.113 76.5443 299.01 77.2789C297.503 78.1586 296.593 80.0634 297.132 81.5601C297.497 82.8935 298.511 84.4447 299.836 84.6443C308.274 86.568 314.011 88.8996 319.876 92.5374C320.322 92.8276 320.488 92.6553 320.654 92.483C321.086 92.1021 321.47 90.9501 320.837 89.8253C320.557 89.3627 318.169 86.8409 316.752 85.4348C314.99 83.7022 314.019 82.5864 313.638 82.1601C312.66 80.7087 311.927 79.6202 311.324 78.2595C311.288 78.1598 311.216 77.9602 311.08 77.8967C310.663 77.3706 309.943 76.9533 309.071 77.3795C308.869 77.4521 308.667 77.5246 308.502 77.6969C308.206 78.1414 307.802 78.2865 307.399 78.4316Z" fill="#333333"/>
<path fill-rule="evenodd" clip-rule="evenodd" d="M381.72 266.454L381.827 285.01L389.224 288.085L392.654 266.242L381.72 266.454Z" fill="white"/>
<path d="M389.223 289.145C389.116 289.145 388.901 289.145 388.794 289.039L381.397 285.964C380.969 285.752 380.754 285.434 380.754 285.01L380.647 266.454C380.647 265.924 381.076 265.393 381.719 265.393L392.653 265.181C392.975 265.181 393.297 265.287 393.511 265.5C393.725 265.712 393.833 266.03 393.726 266.348L390.295 288.085C390.295 288.403 390.081 288.721 389.759 288.827C389.545 289.039 389.437 289.145 389.223 289.145ZM382.898 284.268L388.365 286.494L391.474 267.302L382.898 267.408V284.268Z" fill="#333333"/>
<path fill-rule="evenodd" clip-rule="evenodd" d="M430.925 265.288L435.321 285.964L443.146 285.116L441.645 264.545L430.925 265.288Z" fill="white"/>
<path d="M435.32 287.025C434.784 287.025 434.355 286.707 434.248 286.177L429.853 265.606C429.745 265.288 429.853 264.97 430.067 264.758C430.281 264.546 430.496 264.334 430.817 264.334L441.43 263.592C441.966 263.485 442.502 264.016 442.61 264.546L444.11 285.01C444.11 285.541 443.682 286.071 443.146 286.177L435.32 287.025C435.427 287.025 435.32 287.025 435.32 287.025ZM432.211 266.348L436.178 284.798L441.966 284.162L440.573 265.712L432.211 266.348Z" fill="#333333"/>
<path d="M385.256 127.762C385.256 127.762 378.502 180.037 378.395 199.547C378.288 213.968 380.968 269.848 380.968 269.848C380.968 269.848 384.291 273.559 388.793 273.347C393.296 273.135 394.368 271.014 394.368 271.014C394.368 271.014 398.87 225.631 399.513 218.527C400.264 210.681 398.013 200.183 398.013 200.183C398.013 200.183 411.091 157.133 409.376 148.757C407.661 140.38 406.803 126.701 406.803 126.701L385.256 127.762Z" fill="#F5F5F5"/>
<path d="M388.258 274.937C383.327 274.937 379.789 271.014 379.682 270.908C379.468 270.59 379.253 270.272 379.253 269.953C379.253 269.423 376.681 213.861 376.681 199.547C376.788 180.142 383.434 128.08 383.542 127.549C383.649 126.807 384.292 126.171 385.042 126.171L406.59 125.217C407.447 125.111 408.198 125.853 408.305 126.701C408.305 126.807 409.27 140.38 410.878 148.544C412.593 156.815 401.337 194.351 399.622 200.395C400.051 202.41 401.766 211.635 401.015 218.845C400.372 225.949 395.87 271.332 395.87 271.332C395.87 271.544 395.762 271.756 395.655 271.968C395.548 272.286 393.94 274.831 388.687 275.149C388.58 274.937 388.473 274.937 388.258 274.937ZM382.47 269.211C383.327 270.059 385.793 271.968 388.58 271.756C391.153 271.65 392.332 270.802 392.654 270.378C393.082 265.606 397.156 225.101 397.799 218.421C398.55 210.892 396.406 200.607 396.298 200.501C396.191 200.289 396.298 199.971 396.298 199.759C399.943 187.883 408.948 155.649 407.662 149.074C406.268 142.288 405.411 132.215 405.196 128.398L386.65 129.246C385.578 137.517 380.111 182.051 380.004 199.547C379.897 213.013 382.255 263.061 382.47 269.211Z" fill="#333333"/>
<path d="M404.231 151.194C404.231 151.194 408.626 171.023 413.879 187.988C415.273 192.548 416.559 197.637 416.345 203.045C416.238 207.816 430.067 271.861 430.067 271.861C430.067 271.861 434.247 273.134 437.356 272.391C440.358 271.649 443.038 270.271 443.038 270.271C443.038 270.271 438.428 208.241 435.212 199.546C433.711 195.517 434.033 189.048 433.926 184.595C433.604 167.736 434.998 144.832 433.604 135.607C432.961 131.472 433.604 128.397 429.852 123.731C426.1 119.066 414.415 114.824 414.415 114.824L399.943 128.821" fill="#F5F5F5"/>
<path d="M435.32 274.194C432.533 274.194 429.852 273.452 429.745 273.346C429.209 273.134 428.78 272.71 428.673 272.179C427.28 265.605 414.737 207.817 414.844 203.045C414.951 197.637 413.665 192.654 412.379 188.518C407.126 171.659 402.731 151.724 402.731 151.512C402.516 150.664 403.052 149.816 403.91 149.604C404.767 149.392 405.625 149.922 405.839 150.77C405.839 150.982 410.235 170.705 415.487 187.458C416.881 191.911 418.275 197.213 418.06 203.045C417.953 206.332 425.993 244.823 431.568 270.483C432.961 270.801 435.427 271.119 437.142 270.801C438.857 270.377 440.465 269.741 441.43 269.316C439.822 247.579 436.285 206.65 433.819 200.076C432.533 196.577 432.533 191.593 432.425 187.14C432.425 186.292 432.425 185.337 432.425 184.595C432.318 178.021 432.425 170.705 432.533 163.494C432.747 152.149 432.961 141.333 432.104 135.819C431.997 134.865 431.889 134.017 431.782 133.168C431.461 130.306 431.353 128.079 428.673 124.792C426.1 121.611 418.596 118.218 414.951 116.733L401.23 129.987C400.587 130.624 399.622 130.624 398.978 129.987C398.335 129.351 398.335 128.397 398.978 127.761L413.451 113.764C413.879 113.34 414.523 113.234 415.166 113.446C415.702 113.658 427.28 117.9 431.246 122.777C434.462 126.806 434.784 129.881 434.998 132.85C435.105 133.699 435.105 134.441 435.32 135.395C436.285 141.227 436.07 152.149 435.856 163.6C435.749 170.705 435.534 178.127 435.749 184.595C435.749 185.443 435.749 186.292 435.749 187.246C435.749 191.169 435.749 196.047 436.928 199.016C440.251 207.817 444.646 267.62 444.861 270.165C444.861 270.801 444.539 271.331 444.003 271.649C443.896 271.755 441.109 273.134 438 273.876C437.035 274.088 436.177 274.194 435.32 274.194Z" fill="#333333"/>
<path d="M352.346 95.3149C352.346 95.3149 378.181 53.0072 384.721 50.8865C391.26 48.7658 422.884 51.4166 426.744 52.583C431.889 54.1735 434.033 55.552 436.499 57.9908C438.965 60.3235 450.006 102.313 451.614 104.222C453.222 106.13 468.874 135.82 468.874 135.82C468.874 135.82 466.515 135.502 464.693 136.986C462.871 138.577 460.405 140.379 460.405 140.379L439.179 105.812L426.529 77.8192C426.529 77.8192 419.883 91.1795 421.276 99.1321C422.134 104.222 425.35 114.825 429.96 122.354C432.104 125.853 433.819 131.367 433.819 131.367C433.819 131.367 431.139 137.835 419.025 139.425C393.833 142.818 381.719 136.774 381.719 136.774L383.863 100.723L383.97 86.9381C382.577 84.0752 380.754 79.6218 380.754 79.6218C380.754 79.6218 358.992 108.781 353.954 108.675C345.699 108.463 317.505 93.7243 317.505 93.7243C317.505 93.7243 319.971 91.3916 320.829 89.2709C321.579 87.3623 320.829 85.0295 320.829 85.0295L352.346 95.3149Z" fill="url(#paint6_linear_634_0)"/>
<path d="M404.446 142.076C389.116 142.076 381.505 138.471 381.183 138.258C380.647 137.94 380.218 137.41 380.325 136.774L382.469 100.722L382.577 87.468C381.933 86.0896 381.183 84.287 380.54 82.9086C373.143 92.6637 359.1 110.371 354.061 110.371C345.485 110.159 318.041 95.8448 316.969 95.2086C316.541 94.9965 316.219 94.5723 316.112 94.0422C316.005 93.512 316.219 92.9818 316.648 92.6637C317.291 92.0275 319.006 90.2249 319.542 88.8465C319.971 87.7862 319.649 86.0896 319.542 85.5594C319.328 85.0293 319.542 84.3931 319.971 83.9689C320.4 83.5448 321.043 83.4388 321.579 83.5448L351.81 93.406C357.384 84.287 377.967 51.5224 384.399 49.4018C391.582 47.069 423.849 50.038 427.387 51.0983C432.854 52.7949 435.213 54.3854 437.785 56.8242C439.286 58.2026 441.645 65.625 447.541 85.5594C449.792 93.2999 452.472 102.207 453.115 103.267C454.616 105.07 467.909 130.094 470.482 135.077C470.803 135.608 470.696 136.244 470.375 136.774C470.053 137.304 469.41 137.516 468.874 137.41C468.874 137.41 467.159 137.198 465.979 138.258C464.157 139.849 461.691 141.758 461.691 141.758C461.37 142.076 460.834 142.182 460.405 142.076C459.976 141.97 459.547 141.758 459.333 141.333L438.107 106.766C438.107 106.66 438 106.66 438 106.554L426.636 81.8482C424.814 86.1956 422.027 93.9362 422.884 99.0258C423.742 104.115 426.958 114.401 431.353 121.611C433.605 125.216 435.32 130.836 435.32 131.048C435.427 131.366 435.427 131.79 435.213 132.108C435.105 132.427 431.996 139.425 419.24 141.121C413.772 141.864 408.841 142.076 404.446 142.076ZM383.541 135.82C386.865 137.092 398.55 140.591 419.025 137.94C428.137 136.774 431.353 132.639 432.211 131.26C431.675 129.776 430.388 125.852 428.78 123.202C423.849 115.249 420.633 104.434 419.883 99.4499C418.489 91.0732 425.028 77.7129 425.35 77.1827C425.672 76.6526 426.208 76.3344 426.851 76.3344C427.494 76.3344 428.03 76.7586 428.244 77.2888L440.787 105.176L460.941 138.152C461.798 137.516 462.871 136.668 463.728 135.82C464.586 135.077 465.551 134.653 466.408 134.441C460.298 122.99 451.507 106.554 450.435 105.282C449.685 104.328 448.398 100.51 444.325 86.5137C441.323 76.2284 436.713 60.7474 435.427 59.1569C433.176 57.0362 431.246 55.7638 426.315 54.1733C422.67 53.0069 391.367 50.4621 385.257 52.4767C380.861 53.8552 363.602 80.0457 353.739 96.1629C353.311 96.7991 352.56 97.1172 351.81 96.7991L322.865 87.362C322.865 88.2103 322.758 89.0586 322.437 89.9068C321.901 91.0732 321.043 92.3456 320.185 93.2999C329.083 97.8594 348.058 106.978 354.061 107.084C356.848 106.872 369.498 92.1336 379.575 78.6672C379.897 78.2431 380.433 77.925 381.076 78.031C381.612 78.137 382.148 78.4551 382.362 78.9853C382.362 78.9853 384.185 83.4388 385.578 86.3017C385.685 86.5138 385.793 86.7258 385.686 87.0439L385.578 100.828L383.541 135.82Z" fill="#333333"/>
<path fill-rule="evenodd" clip-rule="evenodd" d="M360.174 291.266C360.388 294.447 368.964 294.553 376.468 294.235C383.972 293.811 391.691 292.856 391.477 289.675C391.262 286.494 389.976 281.299 382.364 281.723C374.753 282.147 359.959 288.085 360.174 291.266Z" fill="white"/>
<path d="M371.106 295.719C368.855 295.719 367.033 295.613 365.425 295.401C363.817 295.189 358.993 294.659 358.885 291.372C358.671 286.706 375.18 280.874 382.362 280.45C386.115 280.238 389.009 281.298 390.831 283.631C392.011 285.116 392.761 287.236 392.868 289.675C393.083 292.962 388.687 294.022 387.187 294.341C384.721 294.977 381.29 295.295 376.574 295.613C374.537 295.613 372.714 295.719 371.106 295.719ZM361.565 291.266C361.673 291.584 362.53 292.432 365.746 292.75C368.319 293.068 371.857 293.068 376.466 292.856C381.076 292.644 384.292 292.22 386.651 291.69C389.331 291.054 390.295 290.311 390.295 289.781C390.188 288.509 389.867 286.6 388.795 285.222C387.508 283.631 385.471 282.995 382.577 283.101C374.858 283.419 362.101 289.145 361.565 291.266Z" fill="#333333"/>
<path fill-rule="evenodd" clip-rule="evenodd" d="M453.009 290.418C453.545 293.599 450.972 294.13 445.505 294.342C439.18 294.66 433.82 293.493 433.391 290.418C432.855 287.237 436.393 282.678 442.611 281.724C448.828 280.769 452.473 287.237 453.009 290.418Z" fill="white"/>
<path d="M443.467 295.719C436.714 295.719 432.533 293.917 431.997 290.629C431.675 288.615 432.64 286.282 434.462 284.373C436.392 282.359 439.286 280.98 442.395 280.45C445.611 279.92 448.506 281.086 450.971 283.631C453.008 285.858 454.08 288.615 454.402 290.205C454.616 291.584 454.402 292.644 453.651 293.492C452.365 295.083 449.899 295.401 445.611 295.613C444.861 295.719 444.218 295.719 443.467 295.719ZM443.896 282.995C443.574 282.995 443.253 282.995 442.931 283.101C440.358 283.525 438.107 284.586 436.606 286.176C435.32 287.448 434.677 289.039 434.891 290.205C435.213 292.22 439.501 293.386 445.611 293.068C447.434 292.962 450.971 292.75 451.722 291.902C451.829 291.796 452.043 291.584 451.829 290.629C451.614 289.357 450.65 287.13 449.149 285.434C447.862 284.267 446.147 282.995 443.896 282.995Z" fill="#333333"/>
<path d="M402.838 35.4048C402.838 35.8289 401.015 50.1435 401.015 50.1435H395.012C395.012 50.1435 393.726 62.5495 399.407 63.7159C410.02 65.8366 422.134 51.8401 422.134 51.8401L413.558 50.1435L414.201 36.8893L402.838 35.4048Z" fill="white"/>
<path d="M401.658 65.0949C400.801 65.0949 399.943 64.9888 399.085 64.8828C392.653 63.6104 393.725 51.5225 393.94 50.144C394.047 49.6139 394.476 49.1897 395.012 49.1897H400.157C400.908 43.6759 401.766 36.0414 401.873 35.5113C401.873 35.1932 401.98 34.9811 402.302 34.7691C402.516 34.557 402.838 34.4509 403.159 34.557L414.415 36.0414C414.951 36.1475 415.38 36.5716 415.38 37.1018L414.737 49.5078L422.455 51.0983C422.777 51.2044 423.099 51.4164 423.206 51.8406C423.313 52.2647 423.206 52.5828 422.991 52.9009C422.455 53.113 411.95 65.0949 401.658 65.0949ZM395.977 51.2044C395.762 54.9156 396.084 62.0199 399.514 62.7621C407.447 64.3526 416.667 55.9759 419.99 52.5828L413.236 51.2044C412.7 51.0983 412.378 50.6742 412.378 50.144L413.022 37.844L403.802 36.6777C403.481 39.4346 402.623 46.0087 402.087 50.3561C401.98 50.8862 401.551 51.3104 401.015 51.3104H395.977V51.2044Z" fill="#333333"/>
<path d="M423.956 27.5584C422.67 36.9954 411.628 44.5239 403.374 43.4635C396.942 42.6152 392.118 31.5877 393.404 22.0446C394.69 12.5015 403.159 7.41186 411.414 8.4722C419.668 9.53255 425.136 18.1213 423.956 27.5584Z" fill="white"/>
<path d="M404.982 44.6302C404.339 44.6302 403.803 44.6302 403.16 44.5242C395.548 43.4639 390.939 31.2699 392.225 21.9389C393.619 11.4416 403.052 6.35191 411.414 7.41225C420.205 8.57863 426.208 17.6976 424.921 27.6648C424.278 32.2243 421.384 36.7837 416.989 40.1768C413.344 43.0398 408.949 44.6302 404.982 44.6302ZM409.27 9.42693C402.516 9.42693 395.548 13.8803 394.369 22.257C393.19 31.2699 397.8 41.7673 403.481 42.5096C407.233 43.0397 411.843 41.5553 415.809 38.5863C419.776 35.6174 422.349 31.588 422.885 27.5587C424.064 18.6519 418.811 10.5933 411.2 9.63897C410.557 9.42691 409.913 9.42693 409.27 9.42693Z" fill="#333333"/>
<path fill-rule="evenodd" clip-rule="evenodd" d="M425.673 47.9168C425.673 47.9168 420.205 37.3134 419.133 30.7393C418.061 24.1652 416.346 19.4997 413.023 15.8945C409.593 12.1833 406.591 10.5928 406.591 10.5928C406.591 10.5928 403.911 13.3497 401.981 14.198C397.05 16.4247 395.442 15.3643 394.048 13.7738C394.906 11.335 397.05 9.42644 399.408 8.26007C401.66 7.09369 404.232 6.56351 406.698 5.9273C409.164 5.39713 411.737 4.86695 414.095 5.29109C417.097 5.92729 419.562 8.048 421.17 10.4868C422.778 13.0316 423.85 15.8945 424.708 18.6514C426.53 24.0591 428.353 29.5729 429.425 35.2988C429.854 37.5255 430.068 39.7522 429.425 41.9789C428.674 44.2056 427.281 46.1143 425.673 47.9168Z" fill="white"/>
<path d="M425.136 44.3118C424.922 44.3118 424.707 44.2058 424.493 44.0998C424.278 43.8877 419.026 39.9644 417.954 30.7394C417.203 24.4834 415.381 20.03 412.058 16.4248C409.699 13.88 407.555 12.3955 406.483 11.6533C405.518 12.5015 403.696 14.1981 402.195 14.8343C397.049 17.1671 394.798 16.2128 392.976 14.1981C392.547 13.774 392.654 13.1378 393.083 12.7136C393.512 12.2895 394.155 12.3955 394.584 12.8197C395.548 13.88 396.62 15.0464 401.337 12.9257C402.731 12.2895 404.875 10.2748 405.625 9.53259C405.947 9.21449 406.483 9.10847 406.912 9.32054C407.019 9.42658 410.128 11.1231 413.666 14.8343C417.31 18.7576 419.347 23.6351 420.098 30.3153C421.062 38.586 425.672 42.0851 425.779 42.1912C426.208 42.5093 426.315 43.2515 425.994 43.6756C425.779 44.2058 425.458 44.3118 425.136 44.3118Z" fill="#333333"/>
<path d="M400.372 23.9533C400.908 22.7871 399.622 21.5148 398.55 21.1967C397.156 20.7727 395.441 21.6209 396.084 23.2112C396.299 23.8473 396.942 24.5895 397.585 24.6955C398.443 24.9075 399.193 24.3774 399.407 23.5292C399.622 22.7871 399.407 22.257 398.764 21.8329C398.335 21.6208 397.585 21.4088 397.156 21.5148C396.835 21.5148 396.62 21.7269 396.513 22.151C396.406 22.6811 396.942 22.9991 397.371 23.2112C397.692 23.4232 397.799 23.5292 397.692 22.9991C397.692 22.363 397.478 22.7871 397.478 22.9991C397.478 23.1051 397.478 23.1052 397.371 23.2112C397.799 23.1052 397.907 22.9991 397.692 22.8931C397.585 22.6811 397.263 22.575 397.585 22.469C397.799 22.363 398.335 22.681 398.55 22.7871C398.764 22.9991 398.979 23.1051 399.193 23.3172C399.407 23.4232 399.729 23.5292 399.836 23.8473C399.943 24.0593 400.265 24.1654 400.372 23.9533Z" fill="#333333"/>
<path d="M410.342 24.8017C409.485 22.8933 407.984 21.409 405.733 21.621C404.768 21.7271 404.339 22.1511 404.125 23.1053C403.91 23.9535 404.018 24.8017 404.875 25.2258C405.84 25.7559 407.126 25.1198 407.448 24.1656C408.091 22.5752 406.054 22.1511 404.982 22.5752C404.018 22.8933 404.125 24.4836 405.197 24.3776C405.304 24.3776 406.054 24.3776 406.162 24.2716C406.483 23.7415 405.947 23.6355 405.733 23.7415C405.626 23.8475 404.982 24.2716 405.304 23.5294C405.411 23.1053 406.805 23.9535 407.234 24.1656C407.984 24.5897 408.734 24.9077 409.485 25.4378C409.806 25.6499 410.557 25.4378 410.342 24.8017Z" fill="#333333"/>
<path d="M400.694 26.3928C399.944 27.2411 399.301 28.6195 398.979 29.7859C398.55 31.3764 400.373 31.9065 401.552 31.3764C401.766 31.2703 401.873 30.9522 401.659 30.8462C401.23 30.6341 400.587 30.7402 400.265 30.5281C399.729 30.104 399.944 29.5738 400.051 29.0436C400.265 28.1954 400.48 27.241 400.909 26.4988C400.909 26.3928 400.801 26.2868 400.694 26.3928Z" fill="#333333"/>
<path fill-rule="evenodd" clip-rule="evenodd" d="M406.804 35.5107C407.233 34.9806 407.876 33.3902 407.554 33.4963C407.126 33.6023 406.375 33.6023 406.054 33.4963C405.946 33.4963 405.839 33.4963 405.839 33.4963C405.196 33.4963 404.338 33.4963 403.802 33.9203C402.409 33.6023 401.444 34.4505 401.122 34.8746C400.908 35.0866 400.908 35.2986 401.015 35.6167C401.444 36.3588 402.302 37.101 403.159 37.313C404.553 37.6311 405.946 36.8889 406.804 35.5107Z" fill="#333333"/>
<defs>
<linearGradient id="paint0_linear_634_0" x1="104" y1="70.2969" x2="110.974" y2="104.919" gradientUnits="userSpaceOnUse">
<stop stop-color="#FFC671"/>
<stop offset="0.59375" stop-color="#FF7541"/>
<stop offset="1" stop-color="#FF6F3D"/>
</linearGradient>
<linearGradient id="paint1_linear_634_0" x1="171.396" y1="207" x2="57.0004" y2="207.214" gradientUnits="userSpaceOnUse">
<stop stop-color="white"/>
<stop offset="1" stop-color="#F9F9F9"/>
</linearGradient>
<linearGradient id="paint2_linear_634_0" x1="66.0001" y1="156.648" x2="70.3093" y2="173.564" gradientUnits="userSpaceOnUse">
<stop stop-color="#FFC671"/>
<stop offset="0.59375" stop-color="#FF7541"/>
<stop offset="1" stop-color="#FF6F3D"/>
</linearGradient>
<linearGradient id="paint3_linear_634_0" x1="29" y1="229.349" x2="80.8955" y2="229.824" gradientUnits="userSpaceOnUse">
<stop stop-color="#D0D0D0"/>
<stop offset="0.04397" stop-color="white" stop-opacity="0"/>
<stop offset="0.953125" stop-color="white" stop-opacity="0"/>
<stop offset="1" stop-color="#DBDBDB" stop-opacity="0.76"/>
</linearGradient>
<linearGradient id="paint4_linear_634_0" x1="77.8953" y1="191.972" x2="31.9974" y2="293.652" gradientUnits="userSpaceOnUse">
<stop offset="0.00296774" stop-color="#F3F3F3" stop-opacity="0.39"/>
<stop offset="0.130257" stop-color="#F9F9F9" stop-opacity="0.79"/>
<stop offset="0.606763" stop-color="white" stop-opacity="0.53"/>
<stop offset="0.90625" stop-color="#F4F4F4" stop-opacity="0.686173"/>
<stop offset="1" stop-color="#EDEDED" stop-opacity="0.79"/>
</linearGradient>
<linearGradient id="paint5_linear_634_0" x1="32.0003" y1="218.688" x2="34.6073" y2="234.263" gradientUnits="userSpaceOnUse">
<stop stop-color="#FFC671"/>
<stop offset="0.59375" stop-color="#FF7541"/>
<stop offset="1" stop-color="#FF6F3D"/>
</linearGradient>
<linearGradient id="paint6_linear_634_0" x1="317.653" y1="95.3554" x2="469.029" y2="95.3554" gradientUnits="userSpaceOnUse">
<stop stop-color="#FFA363"/>
<stop offset="0.9127" stop-color="#FF7743"/>
</linearGradient>
<clipPath id="clip0_634_0">
<rect width="45" height="46" fill="white" transform="translate(113 175)"/>
</clipPath>
</defs>
</svg>
