<svg width="24" height="24" viewBox="0 0 24 24" fill="none" xmlns="http://www.w3.org/2000/svg">
<path d="M5.25622 2.07122C7.22961 0.724734 9.55907 0 12.0002 0C14.4414 0 16.7707 0.724734 18.7441 2.07122L14.5896 6.22575C13.7858 5.8649 12.9076 5.67483 12.0001 5.67483C11.0927 5.67483 10.2145 5.8649 9.41071 6.22575L5.25622 2.07122Z" fill="white"/>
<path d="M3.51463 3.51482C3.70012 3.32933 3.89113 3.1513 4.08632 2.97955L8.11434 7.00775C7.90982 7.16755 7.71374 7.34089 7.52723 7.52746C7.34076 7.71388 7.16737 7.90996 7.00743 8.11461L2.97937 4.0865C3.15112 3.89127 3.3291 3.7003 3.51463 3.51482Z" fill="white"/>
<path d="M7.00757 15.8855C7.16737 16.09 7.34076 16.2861 7.52727 16.4726C7.71374 16.6591 7.90982 16.8325 8.11438 16.9925L4.08632 21.0206C3.89109 20.8489 3.70012 20.6708 3.51463 20.4854C3.3291 20.2999 3.15107 20.1089 2.97937 19.9137L7.00757 15.8855Z" fill="white"/>
<path d="M16.992 15.8856C16.832 16.0901 16.6587 16.2861 16.4723 16.4726C16.2858 16.6591 16.0897 16.8326 15.8851 16.9923L19.9133 21.0206C20.1084 20.8488 20.2995 20.6708 20.485 20.4853C20.6705 20.2998 20.8484 20.1088 21.0201 19.9136L16.992 15.8856Z" fill="white"/>
<path d="M17.7743 9.41057L21.9288 5.25604C23.2752 7.22938 24 9.55884 24 12C24 14.4411 23.2753 16.7706 21.9288 18.744L17.7743 14.5895C18.1351 13.7857 18.3252 12.9075 18.3252 12C18.3252 11.0925 18.1351 10.2143 17.7743 9.41057Z" fill="white"/>
<path d="M20.4849 3.51479C20.2994 3.3293 20.1084 3.15136 19.9132 2.97961L15.8851 7.00767C16.0898 7.16756 16.2858 7.34091 16.4723 7.52742C16.6588 7.71389 16.8322 7.91002 16.992 8.11449L21.02 4.08638C20.8483 3.89124 20.6704 3.70027 20.4849 3.51479Z" fill="white"/>
<path d="M12.0001 18.3252C12.9075 18.3252 13.7857 18.1352 14.5896 17.7743L18.7441 21.9289C16.7707 23.2753 14.4413 24 12.0002 24C9.55902 24 7.22957 23.2754 5.25622 21.9289L9.41066 17.7743C10.2144 18.1352 11.0926 18.3252 12.0001 18.3252Z" fill="white"/>
<path d="M6.22558 9.41069L2.07105 5.25616C0.724612 7.22951 -0.00012207 9.55886 -0.00012207 12C-0.00012207 14.4412 0.724612 16.7706 2.0711 18.744L6.22558 14.5894C5.86474 13.7857 5.6747 12.9076 5.6747 12.0001C5.6747 11.0927 5.86474 10.2145 6.22558 9.41069Z" fill="white"/>
</svg>
