<svg width="16" height="16" viewBox="0 0 16 16" fill="none" xmlns="http://www.w3.org/2000/svg">
<g clip-path="url(#clip0)">
<path d="M4.05284 2.5291C3.9756 2.45186 3.86943 2.40919 3.76116 2.41226C3.65208 2.41501 3.54882 2.4622 3.47546 2.54283C1.07914 5.1809 2.38274 10.8849 2.51945 11.4492L0.116834 13.852C0.0420151 13.9268 0 14.0283 0 14.1342C0 14.2398 0.0420151 14.3415 0.116834 14.4163L1.56442 15.8637C1.64231 15.9413 1.74443 15.9806 1.84656 15.9806C1.94853 15.9806 2.05082 15.9418 2.12855 15.8637L4.53068 13.4618C5.70016 13.7622 7.16293 13.9414 8.45425 13.9414C10.0054 13.9414 12.1288 13.692 13.4372 12.5054C13.518 12.4321 13.5654 12.3288 13.568 12.2196C13.5709 12.1103 13.5284 12.005 13.4511 11.9279L4.05284 2.5291Z" fill="#657077"/>
<path d="M7.52326 4.9033C7.60115 4.98119 7.70328 5.02014 7.80541 5.02014C7.90754 5.02014 8.00967 4.98119 8.08756 4.90314L11.0655 1.92524C11.2763 1.71436 11.3924 1.43399 11.3924 1.13584C11.3924 0.837533 11.2762 0.557001 11.0655 0.34628C10.8546 0.135396 10.5744 0.0195312 10.2761 0.0195312C9.97791 0.0195312 9.69738 0.135558 9.48634 0.34628L6.50844 3.32434C6.35266 3.48012 6.35266 3.7327 6.50844 3.88864L7.52326 4.9033Z" fill="#657077"/>
<path d="M15.673 4.95402C15.4622 4.74314 15.182 4.62695 14.8836 4.62695C14.5852 4.62695 14.3048 4.74298 14.0941 4.95386L11.116 7.93192C11.041 8.00674 10.999 8.10823 10.999 8.21407C10.999 8.31992 11.041 8.42124 11.116 8.49622L12.1308 9.51072C12.2086 9.58861 12.3107 9.62772 12.413 9.62772C12.515 9.62772 12.6173 9.58877 12.6951 9.51072L15.6734 6.53266C16.1087 6.09716 16.1087 5.38904 15.673 4.95402Z" fill="#657077"/>
</g>
<defs>
<clipPath id="clip0">
<rect width="16" height="16" fill="white"/>
</clipPath>
</defs>
</svg>
