<svg width="190" height="48" xmlns="http://www.w3.org/2000/svg">

 <g>
  <title>background</title>
  <rect fill="none" id="canvas_background" height="50" width="192" y="-1" x="-1"/>
 </g>
 <g>
  <title>Layer 1</title>
  <path id="svg_1" fill="#FF6F3D" d="m17.422379,40.847401l-15.381599,-7.002899c-1.310196,-0.611301 -1.310196,-1.556202 0,-2.112001l5.355103,-2.4454l9.969505,4.557402c1.310303,0.611397 3.418198,0.611397 4.671494,0l9.969894,-4.557402l5.355011,2.4454c1.309998,0.611399 1.309998,1.5562 0,2.112001l-15.381897,7.002899c-1.196304,0.555698 -3.304199,0.555698 -4.55751,0z" clip-rule="evenodd" fill-rule="evenodd"/>
  <path id="svg_2" fill="#95C038" d="m17.422379,32.2327l-15.381599,-7.0028c-1.310196,-0.611401 -1.310196,-1.5562 0,-2.112l5.241203,-2.3899l10.140396,4.612999c1.310303,0.611401 3.418106,0.611401 4.671402,0l10.139999,-4.612999l5.242004,2.3899c1.309998,0.6113 1.309998,1.5562 0,2.112l-15.382004,7.0028c-1.310196,0.611401 -3.418091,0.611401 -4.671402,0z" clip-rule="evenodd" fill-rule="evenodd"/>
  <path id="svg_3" fill="#5DC0E8" d="m17.422379,23.8403l-15.381599,-7.0028c-1.310196,-0.611399 -1.310196,-1.5562 0,-2.112l15.381599,-7.00282c1.310303,-0.61136 3.418106,-0.61136 4.671402,0l15.382004,7.00282c1.309998,0.6114 1.309998,1.5562 0,2.112l-15.382004,7.0028c-1.310196,0.555799 -3.418091,0.555799 -4.671402,0z" clip-rule="evenodd" fill-rule="evenodd"/>
  <path id="svg_4" fill="#333333" d="m47.807785,17.224501c0,-2.895101 0.844986,-5.080001 2.591995,-6.5002c1.688995,-1.47488 3.71701,-2.18499 6.027008,-2.18499c2.30899,0 4.280991,0.71011 5.970993,2.18499c1.690002,1.474799 2.535004,3.6051 2.535004,6.5548c0,2.8951 -0.845001,5.08 -2.535004,6.500299c-1.690002,1.4748 -3.718002,2.1849 -5.970993,2.1849c-2.309998,0 -4.281006,-0.7101 -6.027008,-2.1849c-1.747009,-1.474899 -2.591995,-3.6598 -2.591995,-6.554899zm3.718002,0c0,2.021099 0.393997,3.441299 1.126984,4.3699c0.78801,0.9286 1.633011,1.529499 2.535004,1.747999c0.03801,0.0093 0.075012,0.0187 0.111008,0.0278c0.173996,0.043901 0.322006,0.0814 0.507996,0.0814c0.085007,0 0.182999,0.0137 0.281998,0.027302c0.098007,0.013699 0.197006,0.0273 0.282013,0.0273c0.224991,0 0.393997,0 0.618988,-0.054602c0.187012,0 0.335007,-0.037498 0.508011,-0.0814l0.000992,-0.000099c0.035004,-0.009001 0.072006,-0.0184 0.111008,-0.0277c0.901001,-0.2185 1.745987,-0.819399 2.477997,-1.747999c0.733002,-0.9286 1.126999,-2.4035 1.126999,-4.3153c0,-1.9664 -0.393997,-3.386701 -1.126999,-4.3153c-0.73201,-0.9286 -1.576996,-1.529401 -2.477997,-1.7479c-0.225006,-0.054701 -0.451004,-0.109301 -0.62001,-0.109301c-0.112,0 -0.210999,-0.013599 -0.309998,-0.0273c-0.097992,-0.0136 -0.196991,-0.0273 -0.30899,-0.0273c-0.226013,0 -0.395004,0 -0.564011,0.0546c-0.168991,0 -0.393997,0.0547 -0.619003,0.109301c-0.901993,0.218499 -1.746994,0.8193 -2.535004,1.7479c-0.732986,0.8194 -1.126984,2.2942 -1.126984,4.2607zm15.265991,-8.52132l4.619003,0l6.082993,10.706221l0.902008,2.3489l0.056,0l-0.056,-3.059l0,-9.99612l3.548996,0l0,17.04262l-4.619995,0l-6.083008,-11.1432l-0.901993,-1.911901l-0.056,0l0.056,3.0043l0,10.0508l-3.548004,0l0,-17.04262zm18.813995,0l3.549011,0l0,14.14752l6.985001,0l0,2.8951l-10.534012,0l0,-17.04262zm8.337006,0l4.112,0l3.604996,5.95402l0.564011,1.2017l0.112,0l0.563995,-1.2017l3.660995,-5.95402l3.774002,0l-6.36499,10.105419l0,6.937201l-3.549011,0l0,-6.9918l-6.477997,-10.050819zm18.533005,2.02112c-1.747009,1.420199 -2.59201,3.6051 -2.59201,6.5002c0,2.8951 0.902008,5.08 2.59201,6.5548c1.746002,1.474899 3.716995,2.184999 6.026993,2.184999c2.253006,0 4.281006,-0.7101 5.971008,-2.184999c1.690002,-1.4202 2.534988,-3.605101 2.534988,-6.5002c0,-2.9497 -0.844986,-5.080001 -2.534988,-6.5548c-1.690002,-1.47488 -3.661011,-2.18499 -5.971008,-2.18499c-2.309998,0 -4.33699,0.71011 -6.026993,2.18499zm2.252991,10.8701c-0.731995,-0.9286 -1.126999,-2.348801 -1.126999,-4.3699c0,-1.9665 0.395004,-3.4413 1.126999,-4.2607c0.789001,-0.9286 1.633011,-1.529401 2.535004,-1.7479c0.225006,-0.054701 0.449997,-0.109301 0.619003,-0.109301c0.169006,-0.0546 0.337997,-0.0546 0.563995,-0.0546c0.112,0 0.210999,0.0137 0.309998,0.0273c0.098007,0.0137 0.197006,0.0273 0.309006,0.0273c0.169006,0 0.395004,0.0546 0.619995,0.109301c0.901001,0.218499 1.746002,0.8193 2.479004,1.7479c0.731995,0.928599 1.126007,2.3489 1.126007,4.3153c0,1.9118 -0.394012,3.3867 -1.126007,4.3153c-0.733002,0.9286 -1.578003,1.529499 -2.479004,1.747999c-0.039001,0.0093 -0.075989,0.0187 -0.112,0.0278c-0.172989,0.043901 -0.320999,0.0814 -0.507996,0.0814c-0.225006,0.054602 -0.393997,0.054602 -0.619003,0.054602c-0.084991,0 -0.182999,-0.013601 -0.281998,-0.0273c-0.098999,-0.013601 -0.196991,-0.027302 -0.281998,-0.027302c-0.186005,0 -0.334,-0.037498 -0.507996,-0.0814l-0.054001,-0.0138l-0.057007,-0.014c-0.957993,-0.2185 -1.746002,-0.819399 -2.535004,-1.747999zm24.560013,-12.89122l-9.802002,0l0,17.04262l3.548996,0l0,-7.155701l5.970993,0l0,-2.8951l-5.970993,0l0,-4.1514l6.253006,0l0,-2.84042zm2.64798,0l9.801025,0l0,2.84042l-6.252991,0l0,4.1514l5.970978,0l0,2.8951l-5.970978,0l0,7.155701l-3.548035,0l0,-17.04262zm11.88501,0l0,17.04262l3.549011,0l0,-17.04262l-3.549011,0zm19.186005,0.38223l0,2.94969c-0.619995,-0.2185 -1.238983,-0.3824 -1.915009,-0.4916c-0.675995,-0.1093 -1.464996,-0.1639 -2.252991,-0.1639c-1.859009,0 -3.268005,0.546201 -4.281982,1.6933c-1.014038,1.0925 -1.521027,2.5127 -1.521027,4.2061c0,1.6387 0.451019,3.004301 1.409027,4.0968c0.95697,1.092402 2.30896,1.6933 4.055969,1.6933c0.535004,0 1.071014,-0.0408 1.679016,-0.087099c0.095001,-0.007299 0.192993,-0.0147 0.291992,-0.0221c0.731995,-0.109301 1.464996,-0.273199 2.252991,-0.600901l0.226013,2.895102c-0.113007,0.0546 -0.281982,0.1092 -0.450989,0.163799c-0.225006,0.054701 -0.451019,0.109301 -0.731995,0.1639c-0.291016,0.070499 -0.629028,0.118299 -1.014038,0.172699c-0.210999,0.029902 -0.436981,0.061701 -0.675964,0.100401l0,0c-0.676025,0.0546 -1.35202,0.109299 -2.084015,0.109299l-0.282013,0l-0.281982,0c-2.028015,-0.109299 -3.887024,-0.873999 -5.575989,-2.184999c-1.690002,-1.365599 -2.535034,-3.495899 -2.535034,-6.3363c0,-2.7859 0.845032,-4.970799 2.478027,-6.500299c1.633972,-1.52945 3.886993,-2.29418 6.646973,-2.29418c0.733032,0 1.40802,0 1.972015,0.05462c0.53598,0.04728 1.029999,0.135469 1.555023,0.22916c0.08197,0.014569 0.164001,0.02926 0.246979,0.04396c0.057007,0.02731 0.126984,0.04097 0.197998,0.05463c0.070007,0.01365 0.139984,0.027309 0.196991,0.05462c0.071014,-0.034821 0.143005,-0.02525 0.230011,-0.01373c0.048981,0.00655 0.102997,0.01373 0.164001,0.01373zm13.350006,-0.38223l-10.53302,0l0,17.04262l10.53302,0l0,-2.6766l-6.928009,0l0,-4.8069l6.252014,0l0,-2.621901l-6.252014,0l0,-4.2607l6.928009,0l0,-2.676519z" clip-rule="evenodd" fill-rule="evenodd"/>
  <path id="svg_5" fill="#333333" d="m53.726776,35.283699c0,0.745399 -0.243988,1.3167 -0.731995,1.713902c-0.488007,0.397099 -1.182999,0.595699 -2.084991,0.595699l-0.742004,0l0,2.670898l-1.167007,0l0,-7.138699l2.055008,0c0.891998,0 1.559998,0.182301 2.001999,0.546902c0.445999,0.364498 0.668991,0.901699 0.668991,1.611298zm-3.55899,1.328102l0.619995,0c0.598999,0 1.037994,-0.104202 1.317993,-0.3125c0.279999,-0.208302 0.420013,-0.533802 0.420013,-0.976501c0,-0.410198 -0.125,-0.716198 -0.376007,-0.917999c-0.251007,-0.201801 -0.640991,-0.3027 -1.171997,-0.3027l-0.809998,0l0,2.509701zm10.722992,3.652397l-4.037994,0l0,-7.138699l4.037994,0l0,0.986301l-2.871002,0l0,1.943398l2.690002,0l0,0.976501l-2.690002,0l0,2.241199l2.871002,0l0,0.991299zm4.415009,-3.818398l0.810989,0c0.542999,0 0.937012,-0.100903 1.181,-0.3027c0.244003,-0.2019 0.366013,-0.501301 0.366013,-0.898502c0,-0.403599 -0.131012,-0.693298 -0.395004,-0.869099c-0.264008,-0.1758 -0.660995,-0.263699 -1.192001,-0.263699l-0.770996,0l0,2.334zm0,0.966801l0,2.851597l-1.167007,0l0,-7.138699l2.016998,0c0.921005,0 1.602997,0.172501 2.044998,0.517601c0.443008,0.344997 0.665009,0.865898 0.665009,1.5625c0,0.888599 -0.462997,1.521801 -1.387009,1.899399l2.016006,3.159199l-1.328003,0l-1.709,-2.851597l-1.151993,0zm11.04599,0.913097c0,0.634701 -0.229996,1.132801 -0.688995,1.494102c-0.459,0.361397 -1.091995,0.542 -1.899002,0.542c-0.806992,0 -1.468002,-0.125301 -1.983002,-0.375999l0,-1.1035c0.326004,0.153 0.671005,0.273499 1.036011,0.361397c0.366989,0.087803 0.709,0.131802 1.024994,0.131802c0.462006,0 0.802002,-0.087898 1.020004,-0.263699c0.222,-0.1758 0.332001,-0.4118 0.332001,-0.708c0,-0.266899 -0.100006,-0.493202 -0.302002,-0.678699c-0.201996,-0.185501 -0.619003,-0.4053 -1.25,-0.659203c-0.651001,-0.263699 -1.110001,-0.5648 -1.376999,-0.903297c-0.266998,-0.338501 -0.401001,-0.745403 -0.401001,-1.220703c0,-0.595699 0.21199,-1.064499 0.634995,-1.4063c0.423004,-0.341797 0.990997,-0.512699 1.703995,-0.512699c0.684006,0 1.364014,0.149799 2.041,0.449299l-0.370987,0.952103c-0.63501,-0.266903 -1.201004,-0.400402 -1.699005,-0.400402c-0.378006,0 -0.664001,0.083 -0.858994,0.249001c-0.196014,0.1628 -0.293015,0.379299 -0.293015,0.649502c0,0.185497 0.039001,0.344997 0.117004,0.4785c0.078003,0.130199 0.206009,0.253899 0.386002,0.371098c0.179001,0.117199 0.501007,0.271801 0.966003,0.463802c0.524002,0.218098 0.908997,0.421597 1.153,0.610397c0.244003,0.188801 0.423004,0.402 0.537003,0.639603c0.113998,0.237698 0.17099,0.517597 0.17099,0.839897zm9.419006,-1.640598c0,1.162098 -0.291,2.065399 -0.874008,2.7099c-0.578995,0.6446 -1.400986,0.966801 -2.464996,0.966801c-1.078003,0 -1.905991,-0.319 -2.485992,-0.957001c-0.576004,-0.6413 -0.863998,-1.551102 -0.863998,-2.7295c0,-1.178402 0.289993,-2.083302 0.868988,-2.714901c0.583008,-0.6315 1.41301,-0.947201 2.490005,-0.947201c1.061996,0 1.882004,0.320602 2.460999,0.961903c0.580002,0.6413 0.869003,1.544598 0.869003,2.709999zm-5.449005,0c0,0.878899 0.178009,1.5462 0.531998,2.0019c0.355011,0.452499 0.881012,0.678699 1.578003,0.678699c0.693008,0 1.214996,-0.224598 1.567001,-0.673801c0.354996,-0.4492 0.531998,-1.118198 0.531998,-2.006798c0,-0.875702 -0.175995,-1.539799 -0.526993,-1.992199c-0.348007,-0.452503 -0.869003,-0.678703 -1.563004,-0.678703c-0.699997,0 -1.229004,0.2262 -1.587006,0.678703c-0.353989,0.4524 -0.531998,1.116497 -0.531998,1.992199zm14.630005,3.579098l-1.431,0l-3.511002,-5.688499l-0.039001,0l0.025009,0.317402c0.044998,0.6054 0.067993,1.158798 0.067993,1.660099l0,3.710999l-1.059006,0l0,-7.138699l1.416,0l3.501007,5.659199l0.028992,0c-0.006989,-0.074898 -0.019989,-0.346699 -0.039001,-0.815498c-0.019989,-0.472 -0.028992,-0.839802 -0.028992,-1.1035l0,-3.7402l1.069,0l0,7.138699zm8.013,0l-0.712997,-1.982498l-2.729004,0l-0.697998,1.982498l-1.231003,0l2.671005,-7.167999l1.269989,0l2.671005,7.167999l-1.240997,0zm-1.020004,-2.988297l-0.668991,-1.943401c-0.049011,-0.130199 -0.117004,-0.3353 -0.205002,-0.6152c-0.085007,-0.279999 -0.143005,-0.485001 -0.17601,-0.6152c-0.087997,0.400299 -0.215988,0.8382 -0.386002,1.3134l-0.643997,1.860401l2.080002,0zm4.903,2.988297l0,-7.138699l1.167007,0l0,6.137699l3.021988,0l0,1.000999l-4.188995,0z"/>
 </g>
</svg>