<svg width="24" height="24" viewBox="0 0 24 24" fill="none" xmlns="http://www.w3.org/2000/svg">
<g clip-path="url(#clip0)">
<path d="M17.5998 9.47059V3.04412L11.1998 0L4.79994 3.04412V10.1471L0 12.3456V19.7868L6.39991 22.8309L11.9998 20.2941L17.5998 23L23.9997 19.9559V12.3456L17.5998 9.47059ZM11.1998 1.86029L15.6798 3.88971L11.3598 5.75L7.1999 3.72059L11.1998 1.86029ZM11.1998 6.76471V11.6691L6.39991 9.47059V4.39706L11.1998 6.76471ZM6.39991 21.1397L1.59998 18.9412V13.8676L6.39991 16.2353V21.1397ZM6.39991 15.2206L2.23997 13.1912L6.39991 11.3309L10.8799 13.3603L6.39991 15.2206ZM17.5998 21.1397L12.7998 18.9412V13.8676L17.5998 16.2353V21.1397ZM17.5998 15.2206L13.4398 13.1912L17.5998 11.3309L22.0797 13.3603L17.5998 15.2206Z" fill="#333333"/>
</g>
<defs>
<clipPath id="clip0">
<rect width="23.9997" height="24" fill="white"/>
</clipPath>
</defs>
</svg>
