<svg width="24" height="24" viewBox="0 0 24 24" fill="none" xmlns="http://www.w3.org/2000/svg">
<path d="M5.25626 2.07122C7.22961 0.724734 9.55902 0 12.0001 0C14.4413 0 16.7706 0.724734 18.7439 2.07122L14.5895 6.22575C13.7857 5.8649 12.9075 5.67483 12 5.67483C11.0926 5.67483 10.2144 5.8649 9.41067 6.22575L5.25626 2.07122Z" fill="#333333"/>
<path d="M3.5147 3.51482C3.70018 3.32933 3.89119 3.1513 4.08637 2.97955L8.11432 7.00775C7.90981 7.16755 7.71373 7.34089 7.52722 7.52746C7.34075 7.71388 7.16737 7.90996 7.00743 8.11461L2.97944 4.0865C3.15119 3.89127 3.32917 3.7003 3.5147 3.51482Z" fill="#333333"/>
<path d="M7.00757 15.8855C7.16737 16.09 7.34075 16.2861 7.52727 16.4726C7.71373 16.6591 7.90981 16.8325 8.11436 16.9925L4.08637 21.0206C3.89114 20.8489 3.70018 20.6708 3.5147 20.4854C3.32917 20.2999 3.15114 20.1089 2.97944 19.9137L7.00757 15.8855Z" fill="#333333"/>
<path d="M16.9918 15.8856C16.8319 16.0901 16.6585 16.2861 16.4721 16.4726C16.2856 16.6591 16.0895 16.8326 15.885 16.9923L19.9131 21.0206C20.1082 20.8488 20.2993 20.6708 20.4847 20.4853C20.6702 20.2998 20.8482 20.1088 21.0199 19.9136L16.9918 15.8856Z" fill="#333333"/>
<path d="M17.7741 9.41057L21.9285 5.25604C23.275 7.22938 23.9997 9.55884 23.9997 12C23.9997 14.4411 23.275 16.7706 21.9286 18.744L17.7741 14.5895C18.1349 13.7857 18.325 12.9075 18.325 12C18.325 11.0925 18.1349 10.2143 17.7741 9.41057Z" fill="#333333"/>
<path d="M20.4847 3.51479C20.2992 3.3293 20.1082 3.15136 19.913 2.97961L15.885 7.00767C16.0896 7.16756 16.2857 7.34091 16.4721 7.52742C16.6586 7.71389 16.832 7.91002 16.9918 8.11449L21.0198 4.08638C20.8481 3.89124 20.6702 3.70027 20.4847 3.51479Z" fill="#333333"/>
<path d="M12 18.3252C12.9074 18.3252 13.7856 18.1352 14.5894 17.7743L18.7439 21.9289C16.7705 23.2753 14.4412 24 12.0001 24C9.55898 24 7.22956 23.2754 5.25626 21.9289L9.41062 17.7743C10.2144 18.1352 11.0926 18.3252 12 18.3252Z" fill="#333333"/>
<path d="M6.22559 9.41069L2.07114 5.25616C0.724722 7.22951 0 9.55886 0 12C0 14.4412 0.724722 16.7706 2.07118 18.744L6.22559 14.5894C5.86476 13.7857 5.67473 12.9076 5.67473 12.0001C5.67473 11.0927 5.86476 10.2145 6.22559 9.41069Z" fill="#333333"/>
</svg>
