<svg width="16" height="16" viewBox="0 0 16 16" fill="none" xmlns="http://www.w3.org/2000/svg">
<g clip-path="url(#clip0)">
<path d="M14.9488 2.23927C14.92 2.03298 14.7716 1.86329 14.571 1.80751L8.14028 0.0191373C8.04861 -0.00637908 7.95177 -0.00637908 7.86002 0.0191373L1.42935 1.80751C1.2287 1.86329 1.08028 2.03291 1.05155 2.23927C1.01425 2.50747 0.16336 8.84444 2.34584 11.9969C4.52575 15.1456 7.74157 15.9525 7.87738 15.9853C7.91775 15.9951 7.95888 15.9999 8.00015 15.9999C8.04143 15.9999 8.08256 15.995 8.12292 15.9853C8.2588 15.9525 11.4746 15.1456 13.6545 11.9969C15.8369 8.84451 14.9861 2.50754 14.9488 2.23927ZM12.1471 5.93886L7.76075 10.3252C7.65868 10.4273 7.52482 10.4784 7.39104 10.4784C7.25725 10.4784 7.1234 10.4274 7.02133 10.3252L4.30928 7.61318C4.21119 7.51515 4.15611 7.38213 4.15611 7.24347C4.15611 7.1048 4.21126 6.97178 4.30928 6.87376L4.84777 6.33527C5.05197 6.13114 5.38306 6.13107 5.58719 6.33527L7.39104 8.13912L10.8692 4.66088C10.9672 4.56279 11.1002 4.50771 11.2389 4.50771C11.3776 4.50771 11.5106 4.56279 11.6086 4.66088L12.1471 5.19937C12.3513 5.40357 12.3513 5.73466 12.1471 5.93886Z" fill="#555F65"/>
</g>
<defs>
<clipPath id="clip0">
<rect width="16" height="16" fill="white"/>
</clipPath>
</defs>
</svg>
