<svg width="64" height="64" viewBox="0 0 64 64" fill="none" xmlns="http://www.w3.org/2000/svg">
<g clip-path="url(#clip0)">
<rect y="16" width="61" height="39" rx="4" fill="#B2BBC0"/>
<path d="M45.4396 46.8882L45.4393 46.8892C44.2561 46.1552 42.8915 45.7672 41.4997 45.769C41.4675 45.769 41.4359 45.7711 41.4038 45.7715C37.2639 45.8228 33.9493 49.2261 34.0006 53.3729C34.0192 54.8771 34.4884 56.341 35.3474 57.575L52 50.5413L45.4396 46.8882Z" fill="#0078D4"/>
<path d="M35.3474 57.5749C36.7482 59.5922 39.0468 60.5425 41.5 60.5413H58C60.2411 60.5419 62.2068 59.562 63.27 57.586L52 50.5413L35.3474 57.5749Z" fill="#28A8EA"/>
<path d="M58 48.5413C57.1693 48.5404 56.2525 48.7553 55.49 49.0855L52 50.5413L63.27 57.586C64.866 54.6182 63.7579 50.9164 60.795 49.3177C59.9837 48.88 58.9316 48.5413 58 48.5413Z" fill="#1490DF"/>
<path d="M49.5 42C53.4909 41.9909 56.9387 44.396 58 48.541C57.1711 48.5403 56.2559 48.7546 55.4945 49.0836L55.49 49.0855L52.0017 50.5406L52 50.5411L51.9989 50.5406L45.4396 46.8882L45.4393 46.8892C44.3086 46.1877 43.0123 45.8023 41.6848 45.7711C43.4849 43.2423 46.3958 42.0071 49.5 42Z" fill="#0364B8"/>
<path d="M0 7C0 4.79086 1.79086 3 4 3H22C24.2091 3 26 4.79086 26 7V12H57C59.2091 12 61 13.7909 61 16V20C61 17.7909 59.2091 16 57 16H4C1.79086 16 0 17.7909 0 20V7Z" fill="#788790"/>
</g>
<defs>
<clipPath id="clip0">
<rect width="64" height="64" fill="white"/>
</clipPath>
</defs>
</svg>
