<svg width="64" height="64" viewBox="0 0 64 64" fill="none" xmlns="http://www.w3.org/2000/svg">
<g clip-path="url(#clip0_623_3900)">
<rect y="16" width="61" height="39" rx="4" fill="#B2BBC0"/>
<path d="M37.6222 57.0986C37.4264 57.0347 37.2172 57 37 57C35.8954 57 35 57.8955 35 59C35 60.1045 35.8954 61 37 61C38.0126 61 38.8495 60.2476 38.9818 59.271C38.4193 58.6294 37.9579 57.897 37.6222 57.0986Z" fill="#1D2D44"/>
<path d="M60.0204 59.2868C60.3995 58.7089 60.6815 58.0617 60.8433 57.3682C61.1698 57.1363 61.569 57 62 57C63.1046 57 64 57.8954 64 59C64 60.1046 63.1046 61 62 61C60.9928 61 60.1595 60.2555 60.0204 59.2868Z" fill="#1D2D44"/>
<path d="M47.8806 46.5342C47.9587 46.2021 48 45.856 48 45.5C48 43.0146 45.9853 41 43.5 41C41.0147 41 39 43.0146 39 45.5C39 46.4131 39.272 47.2632 39.7395 47.9727C41.1459 46.7441 42.986 46 45 46C46.0155 46 46.9868 46.189 47.8806 46.5342Z" fill="#1D2D44"/>
<path d="M51.1195 59.1533C52.2929 57.7612 53 55.9634 53 54C53 53.1621 52.8712 52.3545 52.6322 51.5952C53.337 51.2153 54.1434 51 55 51C57.7614 51 60 53.2388 60 56C60 58.7612 57.7614 61 55 61C53.4341 61 52.0363 60.2803 51.1195 59.1533Z" fill="#1D2D44"/>
<path d="M52 54C52 57.866 48.866 61 45 61C41.134 61 38 57.866 38 54C38 50.134 41.134 47 45 47C48.866 47 52 50.134 52 54Z" fill="#1D2D44"/>
<path d="M37 47C37.4333 47 37.8536 47.0552 38.2545 47.1587C38.4291 47.7114 38.6887 48.2261 39.0178 48.688C37.7625 50.1006 37 51.9614 37 54C37 54.6943 37.0885 55.3682 37.2548 56.0107C37.1708 56.0039 37.0858 56 37 56C36.2988 56 35.6537 56.2402 35.1429 56.6436C33.301 55.9062 32 54.105 32 52C32 49.2388 34.2386 47 37 47Z" fill="#1D2D44"/>
<path d="M48.804 46.9604C48.9318 46.4956 49 46.0054 49 45.5C49 45.3418 48.9933 45.1846 48.9802 45.0298C49.1507 45.0103 49.3242 45 49.5 45C51.9853 45 54 47.0146 54 49.5C54 49.6997 53.987 49.8965 53.9617 50.0894C53.3624 50.1938 52.7937 50.3877 52.2696 50.6558C51.5441 49.0811 50.322 47.7822 48.804 46.9604Z" fill="#1D2D44"/>
<path d="M34.0157 59.3091C33.1911 60.3398 31.9227 61 30.5 61C28.0147 61 26 58.9854 26 56.5C26 54.0146 28.0147 52 30.5 52C30.669 52 30.8359 52.0093 31.0001 52.0273C31.0108 54.4146 32.4161 56.4736 34.4434 57.4297C34.1622 57.8867 34 58.4243 34 59C34 59.1045 34.0053 59.2075 34.0157 59.3091Z" fill="#1D2D44"/>
<path d="M37.7078 46.0415C37.4757 46.0142 37.2395 46 37 46C36.1666 46 35.3728 46.1699 34.6516 46.4771C34.2512 46.1113 34 45.585 34 45C34 43.8955 34.8954 43 36 43C37.1046 43 38 43.8955 38 45C38 45.3813 37.8932 45.7383 37.7078 46.0415Z" fill="#1D2D44"/>
<path d="M0 7C0 4.79086 1.79086 3 4 3H22C24.2091 3 26 4.79086 26 7V12H57C59.2091 12 61 13.7909 61 16V20C61 17.7909 59.2091 16 57 16H4C1.79086 16 0 17.7909 0 20V7Z" fill="#788790"/>
</g>
<defs>
<clipPath id="clip0_623_3900">
<rect width="64" height="64" fill="white"/>
</clipPath>
</defs>
</svg>
