<svg width="20" height="20" viewBox="0 0 20 20" fill="none" xmlns="http://www.w3.org/2000/svg">
<path fill-rule="evenodd" clip-rule="evenodd" d="M18 18V6.16176L13.8382 2H12V5C12 5.55228 11.5523 6 11 6H5C4.44772 6 4 5.55228 4 5V2H2V18H4V13C4 12.4477 4.44772 12 5 12H15C15.5523 12 16 12.4477 16 13V18H18ZM15 20H19C19.5523 20 20 19.5523 20 19V5.74755C20 5.48233 19.8946 5.22798 19.7071 5.04044L14.9596 0.292893C14.772 0.105357 14.5177 0 14.2525 0H11H5H1C0.447715 0 0 0.447716 0 1V19C0 19.5523 0.447716 20 1 20H5H15ZM14 18V14H6V18H14ZM6 2H10V4H6V2Z" fill="#657077"/>
</svg>
