<svg width="17" height="17" viewBox="0 0 17 17" fill="none" xmlns="http://www.w3.org/2000/svg">
<path fill-rule="evenodd" clip-rule="evenodd" d="M9 0C9.55229 0 10 0.447715 10 1V4C10 4.55228 10.4477 5 11 5H15C15.5523 5 16 5.44772 16 6V8C16 8.55229 15.5523 9 15 9H2C1.44772 9 1 8.55229 1 8V6C1 5.44772 1.44772 5 2 5H6C6.55228 5 7 4.55228 7 4V1C7 0.447715 7.44772 0 8 0H9ZM15 10H2V13.6972C2 13.8946 1.94156 14.0877 1.83205 14.2519L0 17H2L3.83205 14.2519C3.94156 14.0877 4 13.8946 4 13.6972V12.5C4 12.2239 4.22386 12 4.5 12C4.77614 12 5 12.2239 5 12.5V13.6972C5 13.8946 4.94156 14.0877 4.83205 14.2519L3 17H5L6.83205 14.2519C6.94156 14.0877 7 13.8946 7 13.6972V12.5C7 12.2239 7.22386 12 7.5 12C7.77614 12 8 12.2239 8 12.5V13.6972C8 13.8946 7.94156 14.0877 7.83205 14.2519L6 17H8L9.83205 14.2519C9.94156 14.0877 10 13.8946 10 13.6972V12.5C10 12.2239 10.2239 12 10.5 12C10.7761 12 11 12.2239 11 12.5V13.6972C11 13.8946 10.9416 14.0877 10.8321 14.2519L9 17H11L12.8321 14.2519C12.9416 14.0877 13 13.8946 13 13.6972V12.5C13 12.2239 13.2239 12 13.5 12C13.7761 12 14 12.2239 14 12.5V13.6972C14 13.8946 13.9416 14.0877 13.8321 14.2519L12 17H13L14.8321 14.2519C14.9416 14.0877 15 13.8946 15 13.6972V10Z" fill="#A3A9AE"/>
</svg>
