<svg width="16" height="16" viewBox="0 0 16 16" fill="none" xmlns="http://www.w3.org/2000/svg">
<path d="M11 2.99984C11 2.44756 10.5523 1.99984 10 1.99984H9.97954C9.42725 1.99984 8.97954 2.44756 8.97954 2.99984V3.99984C8.97954 4.55213 9.42725 4.99984 9.97954 4.99984H10C10.5523 4.99984 11 4.55213 11 3.99984V2.99984Z" fill="#657077"/>
<path d="M13.3134 0.295272C13.1257 0.106281 12.8703 0 12.6039 0H1C0.447716 0 0 0.447715 0 1V15C0 15.5523 0.447715 16 1 16H15C15.5523 16 16 15.5523 16 15V3.41225C16 3.14819 15.8956 2.89486 15.7095 2.70752L13.3134 0.295272ZM3 2C3 1.44772 3.44772 1 4 1H11C11.5523 1 12 1.44772 12 2V5C12 5.55228 11.5523 6 11 6H4C3.44772 6 3 5.55228 3 5V2ZM13 14C13 14.5523 12.5523 15 12 15H4C3.44772 15 3 14.5523 3 14V9C3 8.44771 3.44772 8 4 8H12C12.5523 8 13 8.44772 13 9V14Z" fill="#657077"/>
<path d="M4 11.5C4 11.7761 4.22386 12 4.5 12H8.50001C8.77615 12 9.00001 11.7761 9 11.5C9 11.2239 8.77614 11 8.5 11H4.50001C4.22386 11 4.00001 11.2239 4 11.5Z" fill="#657077"/>
<path d="M4 9.5C4 9.77614 4.22386 10 4.5 10H6.5C6.77614 10 7 9.77614 7 9.5C7 9.22386 6.77614 9 6.5 9H4.5C4.22386 9 4 9.22386 4 9.5Z" fill="#657077"/>
<path d="M10.5 12C10.635 12 10.76 11.9447 10.855 11.8541C10.945 11.7585 11 11.6277 11 11.4969C11 11.366 10.945 11.2347 10.855 11.1396C10.67 10.9535 10.335 10.9535 10.15 11.1396C10.055 11.2347 10 11.3605 10 11.4969C10 11.6327 10.0545 11.7585 10.145 11.8541C10.2395 11.9447 10.3645 12 10.5 12Z" fill="#657077"/>
</svg>
