<svg width="16" height="16" viewBox="0 0 16 16" fill="none" xmlns="http://www.w3.org/2000/svg">
<path fill-rule="evenodd" clip-rule="evenodd" d="M7.00095 1V6.58749L4.70642 4.29353L3.29238 5.70792L7.29248 9.70704C7.68302 10.0975 8.31614 10.0974 8.70662 9.70693L12.7057 5.70759L11.2915 4.29342L9.00095 6.58409V1H7.00095ZM2 12V8H0V12C0 13.1046 0.895431 14 2 14H3V12H2ZM13.9355 8V12H13V14H13.9355C15.0401 14 15.9355 13.1046 15.9355 12V8H13.9355ZM5 14C5.55228 14 6 13.5523 6 13C6 12.4477 5.55228 12 5 12C4.44772 12 4 12.4477 4 13C4 13.5523 4.44772 14 5 14ZM8 14C8.55228 14 9 13.5523 9 13C9 12.4477 8.55228 12 8 12C7.44772 12 7 12.4477 7 13C7 13.5523 7.44772 14 8 14ZM12 13C12 13.5523 11.5523 14 11 14C10.4477 14 10 13.5523 10 13C10 12.4477 10.4477 12 11 12C11.5523 12 12 12.4477 12 13Z" fill="#333333"/>
</svg>
