<svg width="100" height="100" viewBox="0 0 100 100" fill="none" xmlns="http://www.w3.org/2000/svg">
<g clip-path="url(#clip0_34373_175999)">
<path fill-rule="evenodd" clip-rule="evenodd" d="M16.6605 18.565V6.30496C16.6605 3.20576 14.2634 0.666504 11.3303 0.666504C8.39707 0.666504 6 3.19925 6 6.30496V34.6665H16.6667V18.565H16.6605Z" fill="#E0E0E0"/>
<path fill-rule="evenodd" clip-rule="evenodd" d="M84.6667 5.99984C84.6667 3.11242 82.2207 0.666504 79.3333 0.666504H34.6003H10.2715C13.4238 0.666504 16 3.24266 16 6.4016V18.8718V86.6135C16 89.5009 18.4459 91.9998 21.3333 91.9998H79.3333C82.2207 91.9998 84.6667 89.5539 84.6667 86.6665V5.99984Z" fill="#FEFEFE"/>
<path d="M85 49.3331V6.33309C85 3.44567 82.5452 0.999756 79.6472 0.999756H34.751H10.584C13.7478 0.999756 16.3333 3.57592 16.3333 6.73486V19.3331V86.9998C16.3333 89.8872 18.5376 92.3331 21.4356 92.3331H57.2324" stroke="#333333" stroke-linecap="round" stroke-linejoin="round"/>
<path fill-rule="evenodd" clip-rule="evenodd" d="M27.166 50.9998C27.166 50.7236 27.3899 50.4998 27.666 50.4998H65.666C65.9422 50.4998 66.166 50.7236 66.166 50.9998C66.166 51.2759 65.9422 51.4998 65.666 51.4998H27.666C27.3899 51.4998 27.166 51.2759 27.166 50.9998ZM27.166 77.6664C27.166 77.3903 27.3899 77.1664 27.666 77.1664H49.666C49.9422 77.1664 50.166 77.3903 50.166 77.6664C50.166 77.9426 49.9422 78.1664 49.666 78.1664H27.666C27.3899 78.1664 27.166 77.9426 27.166 77.6664ZM27.666 57.1664C27.3899 57.1664 27.166 57.3903 27.166 57.6664C27.166 57.9426 27.3899 58.1664 27.666 58.1664H48.3327C48.6088 58.1664 48.8327 57.9426 48.8327 57.6664C48.8327 57.3903 48.6088 57.1664 48.3327 57.1664H27.666ZM27.166 70.9998C27.166 70.7236 27.3899 70.4998 27.666 70.4998H48.3327C48.6088 70.4998 48.8327 70.7236 48.8327 70.9998C48.8327 71.2759 48.6088 71.4998 48.3327 71.4998H27.666C27.3899 71.4998 27.166 71.2759 27.166 70.9998ZM27.666 63.8331C27.3899 63.8331 27.166 64.0569 27.166 64.3331C27.166 64.6092 27.3899 64.8331 27.666 64.8331H46.9993C47.2755 64.8331 47.4993 64.6092 47.4993 64.3331C47.4993 64.0569 47.2755 63.8331 46.9993 63.8331H27.666Z" fill="#333333"/>
<path fill-rule="evenodd" clip-rule="evenodd" d="M75.7011 63.2317H68.2773C67.3766 63.2317 67.4494 62.2251 68.1978 62.2251H75.721C76.562 62.2251 76.5753 63.2317 75.7011 63.2317Z" fill="#333333"/>
<path d="M10.9993 0.999756C7.7664 0.999756 5.66602 3.30426 5.66602 6.47892V34.3331H11.3327" stroke="#333333" stroke-linecap="round"/>
<path fill-rule="evenodd" clip-rule="evenodd" d="M76.3333 98.6665C72.4188 91.1134 56 94.1095 56 57.9907C57.673 58.209 70.3689 58.5794 76.3333 52.6665C82.2978 58.5794 94.9937 58.209 96.6667 57.9907C96.6667 94.1095 80.2479 91.1134 76.3333 98.6665Z" fill="url(#paint0_linear_34373_175999)"/>
<path d="M75.8894 98.8966L76.3333 99.7531L76.7773 98.8966C77.6863 97.1425 79.3312 95.9771 81.4326 94.624C81.6174 94.505 81.8053 94.3848 81.996 94.2628C83.9483 93.0138 86.1901 91.5795 88.3259 89.3899C93.0438 84.5528 97.1667 76.1244 97.1667 57.9907V57.4213L96.602 57.4949C95.8169 57.5974 92.2717 57.7465 88.1835 57.1333C84.0831 56.5183 79.5512 55.1525 76.6853 52.3114L76.3333 51.9624L75.9813 52.3114C73.1155 55.1525 68.5835 56.5183 64.4832 57.1333C60.3949 57.7465 56.8497 57.5974 56.0647 57.4949L55.5 57.4213V57.9907C55.5 76.1244 59.6228 84.5528 64.3408 89.3899C66.4766 91.5795 68.7183 93.0138 70.6706 94.2628C70.8613 94.3848 71.0493 94.505 71.2341 94.624C73.3355 95.9771 74.9803 97.1425 75.8894 98.8966Z" stroke="#333333"/>
<path fill-rule="evenodd" clip-rule="evenodd" d="M74.0406 73.3574L74.0274 77.5164L73.9942 90.3971L76.7956 88.6687L78.1399 86.1322L77.0207 85.2514L78.1399 84.3243V82.5826L76.7095 81.4832L78.1399 80.2713V73.364C80.7161 72.5097 82.5704 70.0793 82.5704 67.2117C82.5704 63.6356 79.6697 60.7283 76.087 60.7283C72.683 60.7283 69.8883 63.3574 69.6234 66.6952C69.6101 66.8673 69.6035 67.0395 69.6035 67.2117C69.6101 70.066 71.4644 72.4965 74.0406 73.3574ZM78.4711 64.7283C78.4711 66.0462 77.4048 67.1124 76.087 67.1124C74.7691 67.1124 73.7029 66.0462 73.7029 64.7283C73.7029 63.4104 74.7691 62.3442 76.087 62.3442C77.4048 62.3442 78.4711 63.4104 78.4711 64.7283Z" fill="white"/>
<path fill-rule="evenodd" clip-rule="evenodd" d="M26.9987 13.3333C27.9213 13.3333 28.6654 14.0773 28.6654 14.9999C28.6654 15.9225 27.9213 16.6666 26.9987 16.6666C26.0761 16.6666 25.332 15.9225 25.332 14.9999C25.332 14.0833 26.0761 13.3333 26.9987 13.3333ZM32.9987 13.3333C33.9213 13.3333 34.6654 14.0773 34.6654 14.9999C34.6654 15.9225 33.9213 16.6666 32.9987 16.6666C32.0761 16.6666 31.332 15.9225 31.332 14.9999C31.332 14.0833 32.0761 13.3333 32.9987 13.3333ZM40.6654 14.9999C40.6654 14.0773 39.9213 13.3333 38.9987 13.3333C38.082 13.3333 37.332 14.0833 37.332 14.9999C37.332 15.9225 38.0761 16.6666 38.9987 16.6666C39.9213 16.6666 40.6654 15.9225 40.6654 14.9999ZM44.9987 13.3333C45.9213 13.3333 46.6654 14.0773 46.6654 14.9999C46.6654 15.9225 45.9213 16.6666 44.9987 16.6666C44.0761 16.6666 43.332 15.9225 43.332 14.9999C43.338 14.0833 44.082 13.3333 44.9987 13.3333ZM52.6654 14.9999C52.6654 14.0773 51.9213 13.3333 50.9987 13.3333C50.0761 13.3333 49.332 14.0833 49.332 14.9999C49.332 15.9225 50.0761 16.6666 50.9987 16.6666C51.9213 16.6666 52.6654 15.9225 52.6654 14.9999ZM56.9987 13.3333C57.9213 13.3333 58.6654 14.0773 58.6654 14.9999C58.6654 15.9225 57.9213 16.6666 56.9987 16.6666C56.0761 16.6666 55.332 15.9225 55.332 14.9999C55.332 14.0833 56.082 13.3333 56.9987 13.3333ZM64.6654 14.9999C64.6654 14.0773 63.9213 13.3333 62.9987 13.3333C62.082 13.3333 61.338 14.0833 61.332 14.9999C61.332 15.9225 62.0761 16.6666 62.9987 16.6666C63.9213 16.6666 64.6654 15.9225 64.6654 14.9999ZM68.9987 13.3333C69.9213 13.3333 70.6654 14.0773 70.6654 14.9999C70.6654 15.9225 69.9213 16.6666 68.9987 16.6666C68.0761 16.6666 67.332 15.9225 67.332 14.9999C67.332 14.0833 68.0761 13.3333 68.9987 13.3333ZM76.6654 14.9999C76.6654 14.0773 75.9213 13.3333 74.9987 13.3333C74.0761 13.3333 73.332 14.0833 73.332 14.9999C73.332 15.9225 74.0761 16.6666 74.9987 16.6666C75.9213 16.6666 76.6654 15.9225 76.6654 14.9999Z" fill="url(#paint1_linear_34373_175999)"/>
<path fill-rule="evenodd" clip-rule="evenodd" d="M28.6654 25.3333C29.3994 25.3333 29.9987 25.9325 29.9987 26.6666C29.9987 27.4007 29.3994 27.9999 28.6654 27.9999C27.9313 27.9999 27.332 27.4007 27.332 26.6666C27.332 25.925 27.9238 25.3333 28.6654 25.3333ZM33.332 25.3333C34.0661 25.3333 34.6654 25.9325 34.6654 26.6666C34.6654 27.4007 34.0661 27.9999 33.332 27.9999C32.5979 27.9999 31.9987 27.4007 31.9987 26.6666C31.9987 25.925 32.5979 25.3333 33.332 25.3333ZM39.332 26.6666C39.332 25.9325 38.7328 25.3333 37.9987 25.3333C37.2646 25.3333 36.6654 25.925 36.6654 26.6666C36.6654 27.4007 37.2646 27.9999 37.9987 27.9999C38.7328 27.9999 39.332 27.4007 39.332 26.6666ZM42.6654 25.3333C43.3994 25.3333 43.9987 25.9325 43.9987 26.6666C43.9987 27.4007 43.3994 27.9999 42.6654 27.9999C41.9313 27.9999 41.332 27.4007 41.332 26.6666C41.332 25.925 41.9313 25.3333 42.6654 25.3333ZM48.6654 26.6666C48.6654 25.9325 48.0661 25.3333 47.332 25.3333C46.5905 25.3333 45.9987 25.925 45.9987 26.6666C45.9987 27.4007 46.5979 27.9999 47.332 27.9999C48.0661 27.9999 48.6654 27.4007 48.6654 26.6666ZM51.9987 25.3333C52.7328 25.3333 53.332 25.9325 53.332 26.6666C53.332 27.4007 52.7328 27.9999 51.9987 27.9999C51.2647 27.9999 50.6654 27.4007 50.6654 26.6666C50.6579 25.925 51.2572 25.3333 51.9987 25.3333ZM57.9987 26.6666C57.9987 25.9325 57.3994 25.3333 56.6654 25.3333C55.9313 25.3333 55.332 25.925 55.332 26.6666C55.332 27.4007 55.9313 27.9999 56.6654 27.9999C57.3994 27.9999 57.9987 27.4007 57.9987 26.6666ZM61.332 25.3333C62.0661 25.3333 62.6654 25.9325 62.6654 26.6666C62.6654 27.4007 62.0661 27.9999 61.332 27.9999C60.598 27.9999 59.9987 27.4007 59.9987 26.6666C59.9987 25.925 60.598 25.3333 61.332 25.3333ZM67.332 26.6666C67.332 25.9325 66.7328 25.3333 65.9987 25.3333C65.2646 25.3333 64.6654 25.925 64.6654 26.6666C64.6654 27.4007 65.2646 27.9999 65.9987 27.9999C66.7328 27.9999 67.332 27.4007 67.332 26.6666ZM70.6654 25.3333C71.3994 25.3333 71.9987 25.9325 71.9987 26.6666C71.9987 27.4007 71.3994 27.9999 70.6654 27.9999C69.9313 27.9999 69.332 27.4007 69.332 26.6666C69.332 25.925 69.9313 25.3333 70.6654 25.3333ZM76.6654 26.6666C76.6654 25.9325 76.0661 25.3333 75.332 25.3333C74.5979 25.3333 73.9987 25.925 73.9987 26.6666C73.9987 27.4007 74.5979 27.9999 75.332 27.9999C76.0661 27.9999 76.6654 27.4007 76.6654 26.6666Z" fill="#333333"/>
<path fill-rule="evenodd" clip-rule="evenodd" d="M32.6667 33.3331C32.6667 32.599 32.0674 31.9998 31.3333 31.9998C30.5918 31.9998 30 32.5915 30 33.3331C30 34.0672 30.5993 34.6664 31.3333 34.6664C32.0674 34.6664 32.6667 34.0672 32.6667 33.3331ZM37.3333 33.3331C37.3333 32.599 36.7341 31.9998 36 31.9998C35.2659 31.9998 34.6667 32.5915 34.6667 33.3331C34.6667 34.0672 35.2659 34.6664 36 34.6664C36.7341 34.6664 37.3333 34.0672 37.3333 33.3331ZM40.6667 31.9998C41.4007 31.9998 42 32.599 42 33.3331C42 34.0672 41.4007 34.6664 40.6667 34.6664C39.9326 34.6664 39.3333 34.0672 39.3333 33.3331C39.3333 32.5915 39.9326 31.9998 40.6667 31.9998ZM46.6667 33.3331C46.6667 32.599 46.0674 31.9998 45.3333 31.9998C44.5993 31.9998 44 32.5915 44 33.3331C44 34.0672 44.5993 34.6664 45.3333 34.6664C46.0674 34.6664 46.6667 34.0672 46.6667 33.3331ZM50 31.9998C50.7341 31.9998 51.3333 32.599 51.3333 33.3331C51.3333 34.0672 50.7341 34.6664 50 34.6664C49.2659 34.6664 48.6667 34.0672 48.6667 33.3331C48.6667 32.5915 49.2584 31.9998 50 31.9998ZM56 33.3331C56 32.599 55.4008 31.9998 54.6667 31.9998C53.9251 31.9998 53.3259 32.5915 53.3334 33.3331C53.3334 34.0672 53.9326 34.6664 54.6667 34.6664C55.4008 34.6664 56 34.0672 56 33.3331ZM59.3333 31.9998C60.0674 31.9998 60.6667 32.599 60.6667 33.3331C60.6667 34.0672 60.0674 34.6664 59.3333 34.6664C58.5992 34.6664 58 34.0672 58 33.3331C58 32.5915 58.5992 31.9998 59.3333 31.9998ZM65.3333 33.3331C65.3333 32.599 64.7341 31.9998 64 31.9998C63.2659 31.9998 62.6667 32.5915 62.6667 33.3331C62.6667 34.0672 63.2659 34.6664 64 34.6664C64.7341 34.6664 65.3333 34.0672 65.3333 33.3331ZM68.6667 31.9998C69.4007 31.9998 70 32.599 70 33.3331C70 34.0672 69.4007 34.6664 68.6667 34.6664C67.9326 34.6664 67.3333 34.0672 67.3333 33.3331C67.3333 32.5915 67.9326 31.9998 68.6667 31.9998ZM74.6667 33.3331C74.6667 32.599 74.0674 31.9998 73.3333 31.9998C72.5993 31.9998 72 32.5915 72 33.3331C72 34.0672 72.5993 34.6664 73.3333 34.6664C74.0674 34.6664 74.6667 34.0672 74.6667 33.3331Z" fill="#333333"/>
<path fill-rule="evenodd" clip-rule="evenodd" d="M28.6654 38.6665C29.3994 38.6665 29.9987 39.2658 29.9987 39.9998C29.9987 40.7339 29.3994 41.3332 28.6654 41.3332C27.9313 41.3332 27.332 40.7339 27.332 39.9998C27.332 39.2583 27.9238 38.6665 28.6654 38.6665ZM33.332 38.6665C34.0661 38.6665 34.6654 39.2658 34.6654 39.9998C34.6654 40.7339 34.0661 41.3332 33.332 41.3332C32.5979 41.3332 31.9987 40.7339 31.9987 39.9998C31.9987 39.2583 32.5979 38.6665 33.332 38.6665ZM39.332 39.9998C39.332 39.2658 38.7328 38.6665 37.9987 38.6665C37.2646 38.6665 36.6654 39.2583 36.6654 39.9998C36.6654 40.7339 37.2646 41.3332 37.9987 41.3332C38.7328 41.3332 39.332 40.7339 39.332 39.9998ZM42.6654 38.6665C43.3994 38.6665 43.9987 39.2658 43.9987 39.9998C43.9987 40.7339 43.3994 41.3332 42.6654 41.3332C41.9313 41.3332 41.332 40.7339 41.332 39.9998C41.332 39.2583 41.9313 38.6665 42.6654 38.6665ZM48.6654 39.9998C48.6654 39.2658 48.0661 38.6665 47.332 38.6665C46.5905 38.6665 45.9987 39.2583 45.9987 39.9998C45.9987 40.7339 46.5979 41.3332 47.332 41.3332C48.0661 41.3332 48.6654 40.7339 48.6654 39.9998ZM51.9987 38.6665C52.7328 38.6665 53.332 39.2658 53.332 39.9998C53.332 40.7339 52.7328 41.3332 51.9987 41.3332C51.2647 41.3332 50.6654 40.7339 50.6654 39.9998C50.6579 39.2583 51.2572 38.6665 51.9987 38.6665ZM57.9987 39.9998C57.9987 39.2658 57.3994 38.6665 56.6654 38.6665C55.9313 38.6665 55.332 39.2583 55.332 39.9998C55.332 40.7339 55.9313 41.3332 56.6654 41.3332C57.3994 41.3332 57.9987 40.7339 57.9987 39.9998ZM61.332 38.6665C62.0661 38.6665 62.6654 39.2658 62.6654 39.9998C62.6654 40.7339 62.0661 41.3332 61.332 41.3332C60.598 41.3332 59.9987 40.7339 59.9987 39.9998C59.9987 39.2583 60.598 38.6665 61.332 38.6665ZM67.332 39.9998C67.332 39.2658 66.7328 38.6665 65.9987 38.6665C65.2646 38.6665 64.6654 39.2583 64.6654 39.9998C64.6654 40.7339 65.2646 41.3332 65.9987 41.3332C66.7328 41.3332 67.332 40.7339 67.332 39.9998ZM70.6654 38.6665C71.3994 38.6665 71.9987 39.2658 71.9987 39.9998C71.9987 40.7339 71.3994 41.3332 70.6654 41.3332C69.9313 41.3332 69.332 40.7339 69.332 39.9998C69.332 39.2583 69.9313 38.6665 70.6654 38.6665ZM76.6654 39.9998C76.6654 39.2658 76.0661 38.6665 75.332 38.6665C74.5979 38.6665 73.9987 39.2583 73.9987 39.9998C73.9987 40.7339 74.5979 41.3332 75.332 41.3332C76.0661 41.3332 76.6654 40.7339 76.6654 39.9998Z" fill="#333333"/>
</g>
<defs>
<linearGradient id="paint0_linear_34373_175999" x1="53.8358" y1="43.9467" x2="80.2266" y2="73.009" gradientUnits="userSpaceOnUse">
<stop stop-color="#FFC671"/>
<stop offset="1" stop-color="#FF6F3D"/>
</linearGradient>
<linearGradient id="paint1_linear_34373_175999" x1="25.3321" y1="13.203" x2="25.7474" y2="19.8487" gradientUnits="userSpaceOnUse">
<stop stop-color="#FF8E3D"/>
<stop offset="1" stop-color="#FF6F3D"/>
</linearGradient>
<clipPath id="clip0_34373_175999">
<rect width="100" height="100" fill="white"/>
</clipPath>
</defs>
</svg>
