<svg width="100" height="100" viewBox="0 0 100 100" fill="none" xmlns="http://www.w3.org/2000/svg">
<g clip-path="url(#clip0_36017_191171)">
<path fill-rule="evenodd" clip-rule="evenodd" d="M18.7421 76.4931L19.972 93.0121C20.0651 94.3699 21.069 96.2311 22.3057 97.1385C23.5622 98.0724 25.9424 98.8672 27.9104 98.8672L74.7759 98.9997C76.7372 98.9997 79.0975 98.2048 80.354 97.2709C81.584 96.3635 82.701 94.3831 82.794 93.0253C84.4828 68.4456 86.218 43.1175 87.9998 18.9684C82.1425 18.9684 76.3317 18.8359 70.4743 18.8359L14.6665 18.9684L18.7421 76.4931Z" fill="#FEFEFE"/>
<path d="M87.7895 24.9999C86.1638 47.2981 84.4432 69.4801 82.8957 92.0045C82.5925 96.4168 79.711 98.4999 74.7202 98.4999L28.451 98.5499C25.0169 98.5499 20.6968 97.4077 20.2077 92.0045L15.333 24.9999" stroke="#333333" stroke-linecap="round" stroke-linejoin="round"/>
<path d="M9.5 19C9.5 19.2761 9.72386 19.5 10 19.5H93C93.2761 19.5 93.5 19.2761 93.5 19V15.5C93.5 13.3087 91.7538 11.5 89.5915 11.5H13.4085C11.2462 11.5 9.5 13.3087 9.5 15.5V19Z" fill="url(#paint0_linear_36017_191171)" stroke="#333333" stroke-linejoin="round"/>
<path d="M39.5 8.49994V6.49994C39.5 3.18623 42.1863 0.499939 45.5 0.499939H58.5C61.8137 0.499939 64.5 3.18623 64.5 6.49994V8.49994" stroke="#333333" stroke-linecap="round" stroke-linejoin="round"/>
<path fill-rule="evenodd" clip-rule="evenodd" d="M51.5 31.9999C51.7761 31.9999 52 32.2237 52 32.4999V87.9465C52 88.2226 51.7761 88.4465 51.5 88.4465C51.2239 88.4465 51 88.2226 51 87.9465V32.4999C51 32.2237 51.2239 31.9999 51.5 31.9999ZM70.4841 32.0766C70.7599 32.091 70.9717 32.3263 70.9573 32.6021L68.0614 87.9727C68.047 88.2485 67.8118 88.4603 67.536 88.4458C67.2602 88.4313 67.0484 88.196 67.0628 87.9203L69.9587 32.5497C69.9731 32.2739 70.2084 32.0621 70.4841 32.0766ZM32.1672 32.6021C32.1528 32.3263 32.3646 32.091 32.6404 32.0766C32.9162 32.0621 33.1514 32.2739 33.1658 32.5497L36.0617 87.9203C36.0762 88.196 35.8643 88.4313 35.5885 88.4458C35.3128 88.4603 35.0775 88.2485 35.0631 87.9727L32.1672 32.6021Z" fill="#333333"/>
</g>
<defs>
<linearGradient id="paint0_linear_36017_191171" x1="21.0823" y1="-21.8046" x2="61.3361" y2="16.8422" gradientUnits="userSpaceOnUse">
<stop stop-color="#FFC671"/>
<stop offset="1" stop-color="#FF6F3D"/>
</linearGradient>
<clipPath id="clip0_36017_191171">
<rect width="100" height="100" fill="white"/>
</clipPath>
</defs>
</svg>
