<svg width="72" height="72" viewBox="0 0 72 72" fill="none" xmlns="http://www.w3.org/2000/svg">
<path fill-rule="evenodd" clip-rule="evenodd" d="M10.3381 41.4032L10.1652 8.84911C10.2093 7.74755 10.3757 6.66141 10.3757 6.66141L7.05888 6.66233C4.21324 6.66233 0.684815 9.31055 1.58229 13.4889L7.25169 39.7843C7.77704 42.1688 8.49939 45.2097 14.5409 45.1222C14.5847 45.1222 14.6285 45.1222 14.6723 45.1222C14.6285 45.1003 14.5628 45.1003 14.519 45.0784C14.3877 45.0565 13.7529 44.9253 13.6216 44.9034C11.9579 44.5096 10.3381 43.197 10.3381 41.4032Z" fill="#D9F4FF"/>
<path d="M14.0821 45.4063C14.0927 45.404 14.1162 45.3996 14.1571 45.394C14.3391 45.3694 14.6844 45.3461 15.1896 45.3259C16.1888 45.2858 17.7376 45.2605 19.6653 45.2466C23.518 45.219 28.861 45.2374 34.2927 45.2743C42.8657 45.3326 51.6675 45.437 55.1507 45.4784C56.0777 45.4894 56.6279 45.4959 56.697 45.4959H57.0681L57.1756 45.1406L56.697 44.9959C57.1756 45.1406 57.1756 45.1405 57.1756 45.1404L57.1758 45.1399L57.1764 45.1379L57.1787 45.1303L57.1876 45.1005L57.2229 44.9824C57.254 44.8779 57.3003 44.7218 57.3608 44.5151C57.482 44.1018 57.6605 43.4858 57.8905 42.674C58.3504 41.0505 59.0163 38.6438 59.8405 35.5083C61.489 29.2374 63.7713 20.0514 66.3077 8.38617C66.6854 6.64891 66.5121 4.94133 65.7379 3.64691C64.9499 2.32955 63.5729 1.49985 61.6998 1.49985H15.1216C12.6956 1.49985 10.0064 3.13776 10.0064 6.40953L10.0064 6.41222L10.0484 14.2031V14.2045V27.7575L9.8276 39.5436L9.82649 39.6028L9.83927 39.6607C9.94748 40.151 9.87323 40.7077 9.75106 41.3429C9.73445 41.4293 9.71666 41.5181 9.69851 41.6087C9.59263 42.1373 9.47444 42.7273 9.50509 43.2553C9.52396 43.5804 9.5986 43.9122 9.77951 44.2197C9.96229 44.5303 10.2353 44.7847 10.6017 44.9804C11.3114 45.3593 12.3939 45.529 13.9745 45.4958L14.0497 44.9044C14.1311 44.8918 14.2431 44.8801 14.3838 44.8691C14.3894 44.901 14.3922 44.9355 14.391 44.9725C14.3837 45.1971 14.2365 45.3168 14.1968 45.3461C14.1481 45.382 14.1026 45.3998 14.0821 45.4063ZM14.0821 45.4063C14.0812 45.4065 14.0803 45.4067 14.0796 45.4069C14.0661 45.4101 14.0689 45.4106 14.0821 45.4063Z" fill="#EFEFEF" stroke="#333333"/>
<path d="M4.48525 25.3119L1.59539 13.2021C1.48592 12.7208 1.44214 12.2395 1.44214 11.802C1.44214 10.1831 2.29258 7.96575 4.48525 6.88074" stroke="#333333" stroke-linecap="round" stroke-linejoin="round"/>
<path d="M30.9389 9.51083C30.952 9.84542 31.0339 10.2224 31.2159 10.5702C31.5603 11.2284 32.2459 11.7497 33.368 11.7498L33.3677 11.7498L30.9389 9.51083ZM30.9389 9.51083H23.307C20.6088 9.51083 18.3814 10.8539 17.8918 13.4031L17.8913 13.406L17.8912 13.406L12.5782 40.2185C12.5782 40.2189 12.5781 40.2192 12.578 40.2195C12.3417 41.4402 12.6576 42.5009 13.3144 43.2567C13.974 44.0157 15.0064 44.4998 16.2591 44.4998H59.5939C60.8666 44.4998 62.1803 44.0065 63.2453 43.1879C64.3097 42.3699 65.0907 41.2545 65.3464 40.0454C65.3466 40.0443 65.3468 40.0432 65.3471 40.0421L70.3685 14.4463L70.3705 14.4364L70.3706 14.4365C70.7148 12.8518 70.3482 11.6333 69.5711 10.8117C68.7823 9.97777 67.5036 9.4823 65.9004 9.50032L65.8948 9.50038L63.0821 9.50035C62.5722 10.6411 61.476 11.7968 59.5939 11.7968H59.593L33.3686 11.7498L30.9389 9.51083Z" fill="url(#paint0_linear_29664_8855)" stroke="#333333"/>
<path fill-rule="evenodd" clip-rule="evenodd" d="M31.6053 21.9998L23.1924 21.9999C21.6277 21.9999 21.5774 23.9998 23.1929 23.9998H31.7521C33.367 23.9998 33.5138 21.9998 31.6053 21.9998Z" fill="#FEFEFE"/>
<path fill-rule="evenodd" clip-rule="evenodd" d="M36.638 17.9998L24.1644 17.9999C22.6365 17.9999 22.5873 19.9998 24.1648 19.9998H36.7814C38.3584 19.9998 38.5018 17.9998 36.638 17.9998Z" fill="#FEFEFE"/>
<path d="M5.94364 30.4998H66.0564C67.9358 30.4998 69.5 32.0587 69.5 34.0066V65.9931C69.5 67.9221 67.9544 69.4998 66.0564 69.4998H5.94364C4.06421 69.4998 2.5 67.941 2.5 65.9931V34.0092C2.52091 32.0539 4.06948 30.4998 5.94364 30.4998Z" fill="#FEFEFE" stroke="#333333"/>
<path d="M47.3458 44.4998H25.6557C24.9902 44.4998 24.4686 45.056 24.5015 45.7269V51.3131C24.5015 51.9229 24.9673 52.4998 25.6557 52.4998H47.3458C47.9845 52.4998 48.5 51.975 48.5 51.3131V45.7131C48.5 45.0895 48.0458 44.4998 47.3458 44.4998Z" fill="url(#paint1_linear_29664_8855)" stroke="#333333"/>
<defs>
<linearGradient id="paint0_linear_29664_8855" x1="13.3168" y1="-4.26818" x2="45.6221" y2="31.5404" gradientUnits="userSpaceOnUse">
<stop stop-color="#FFC671"/>
<stop offset="1" stop-color="#FF6F3D"/>
</linearGradient>
<linearGradient id="paint1_linear_29664_8855" x1="26.2687" y1="36.672" x2="38.6733" y2="49.6873" gradientUnits="userSpaceOnUse">
<stop stop-color="#FFC671"/>
<stop offset="1" stop-color="#FF6F3D"/>
</linearGradient>
</defs>
</svg>
