<svg width="16" height="16" viewBox="0 0 16 16" fill="none" xmlns="http://www.w3.org/2000/svg">
<path fill-rule="evenodd" clip-rule="evenodd" d="M2 8.00029C2 4.6863 4.68608 2 7.99857 2C11.3139 2 14 4.68685 14 8.00029C14 11.3126 11.3139 14 7.99857 14C6.28313 14 4.73839 13.2822 3.64247 12.1249C2.62256 11.0478 2 9.59875 2 8.00029ZM7.99857 0C3.58105 0 0 3.58219 0 8.00029C0 10.1304 0.83265 12.0663 2.19023 13.5C3.64805 15.0395 5.71117 16 7.99857 16C12.4184 16 16 12.4172 16 8.00029C16 3.58219 12.4184 0 7.99857 0ZM7.42453 11.2527L7.5358 11.3632L7.64758 11.2527L12.4849 6.41401L11.0705 5L7.53622 8.53504L5.41533 6.41473L4 7.82841L7.42453 11.2527Z" fill="#333333"/>
</svg>
