<svg width="16" height="16" viewBox="0 0 16 16" fill="none" xmlns="http://www.w3.org/2000/svg">
<g clip-path="url(#clip0_12671_229095)">
<path fill-rule="evenodd" clip-rule="evenodd" d="M0.00397432 3.00531C0.00100911 1.89884 0.89718 1 2.00397 1H5.96626L8.36394 3.00003H14.0008C15.1054 3.00003 16.0008 3.89546 16.0008 5.00003V12C16.0008 13.1046 15.1054 14 14.0008 14H2.0471C1.00059 14 0.00453657 13.1588 7.56979e-06 12.0039L0 11.9996L0.00397432 3.00531ZM5.24161 3H2.00397L2.00398 3.00436L2.00001 11.9752L2.00285 11.978C2.01068 11.9854 2.02062 11.9918 2.03054 11.9958C2.03996 11.9997 2.0471 12 2.0471 12H14.0008V5.00003H7.63929L5.24161 3Z" fill="#657077"/>
</g>
<defs>
<clipPath id="clip0_12671_229095">
<rect width="16" height="16" fill="white" transform="translate(0.000488281)"/>
</clipPath>
</defs>
</svg>
