<svg width="16" height="16" viewBox="0 0 16 16" fill="none" xmlns="http://www.w3.org/2000/svg">
<g clip-path="url(#clip0_26408_15469)">
<path fill-rule="evenodd" clip-rule="evenodd" d="M2 1C0.895431 1 0 1.89543 0 3V13C0 14.1046 0.89543 15 2 15H5V13H2V3L6.58579 3L9 5.41421C9.37507 5.78929 9.88378 6 10.4142 6H14V13H11V15H14C15.1046 15 16 14.1046 16 13V6C16 4.89543 15.1046 4 14 4H10.4142L8 1.58579C7.62493 1.21071 7.11622 1 6.58579 1H2ZM5.70711 11.7071L7 10.4142V15H9V10.4142L10.2929 11.7071L11.7071 10.2929L8.70711 7.29289C8.51957 7.10536 8.26522 7 8 7C7.73478 7 7.48043 7.10536 7.29289 7.29289L4.29289 10.2929L5.70711 11.7071Z" fill="#333333"/>
</g>
<defs>
<clipPath id="clip0_26408_15469">
<rect width="16" height="16" fill="white"/>
</clipPath>
</defs>
</svg>
