<svg width="16" height="16" viewBox="0 0 16 16" fill="none" xmlns="http://www.w3.org/2000/svg">
<g clip-path="url(#clip0_743_33362)">
<path d="M0 10.4629L2.54685 14.998H13.4526L15.9994 10.4629H0Z" fill="#4788F4"/>
<path d="M15.888 10.5286L13.415 14.9323H2.58546L2.58535 14.9321L2.54736 14.998H13.453L15.9999 10.4629L15.888 10.5286Z" fill="black" fill-opacity="0.1"/>
<path d="M5.15994 10.4629L5.12207 10.5286H15.8879L15.9999 10.4629H5.15994Z" fill="white" fill-opacity="0.2"/>
<path d="M5.15951 10.4629L7.77161 14.998H2.54736L5.15951 10.4629Z" fill="url(#paint0_linear_743_33362)"/>
<path d="M0 10.4645L2.54684 14.9996L10.6119 1H5.38755L0 10.4645Z" fill="#1EA362"/>
<path d="M7.9997 5.53426L2.54685 14.9996L0 10.4645L0.0751417 10.4648L2.54756 14.8673L7.96198 5.46875L7.9997 5.53426Z" fill="black" fill-opacity="0.1"/>
<path d="M0 10.4645L5.38755 1L5.4254 1.06573L0.0751417 10.4648L0 10.4645Z" fill="white" fill-opacity="0.2"/>
<path d="M7.61492 6.20364L8.00053 5.53427L5.38821 1L5.00488 1.67339L7.61492 6.20364Z" fill="url(#paint1_linear_743_33362)"/>
<path d="M5.3877 1H10.612L15.9995 10.4645H10.8401L5.3877 1Z" fill="#FFCF49"/>
<path d="M10.8401 10.4645L5.3877 1L5.50104 1.06573L10.9156 10.4645H10.8401Z" fill="black" fill-opacity="0.1"/>
<path d="M5.3877 1H10.612L15.9995 10.4645H15.9243L10.5741 1.06573H5.50104L5.3877 1Z" fill="white" fill-opacity="0.2"/>
</g>
<defs>
<linearGradient id="paint0_linear_743_33362" x1="3.86976" y1="12.6647" x2="7.78469" y2="14.9758" gradientUnits="userSpaceOnUse">
<stop stop-opacity="0.2"/>
<stop offset="0.116022" stop-opacity="0.13"/>
<stop offset="1" stop-opacity="0"/>
</linearGradient>
<linearGradient id="paint1_linear_743_33362" x1="6.82489" y1="3.25111" x2="5.85871" y2="3.78805" gradientUnits="userSpaceOnUse">
<stop stop-opacity="0.1"/>
<stop offset="0.19337" stop-opacity="0.04"/>
<stop offset="0.681779" stop-opacity="0"/>
</linearGradient>
<clipPath id="clip0_743_33362">
<rect width="16" height="16" fill="white"/>
</clipPath>
</defs>
</svg>
