<svg width="16" height="16" viewBox="0 0 16 16" fill="none" xmlns="http://www.w3.org/2000/svg">
<g clip-path="url(#clip0_743_33370)">
<path d="M1.83296 7.27906L1.83635 7.2753C1.86069 7.24858 1.88526 7.22186 1.91003 7.19514C2.24212 6.81463 2.4961 6.25895 2.75067 5.70189C2.84377 5.4982 2.93693 5.29433 3.03403 5.0988C3.59247 3.98298 4.48516 3.08838 5.57602 2.55134C6.92566 1.88797 8.39933 1.86536 9.58973 2.25953C9.68285 2.29033 9.77325 2.32181 9.86253 2.35288C10.2935 2.50292 10.6978 2.64367 11.2515 2.65303C13.5884 2.48871 15.4184 3.05674 15.8443 3.98443C15.8503 3.99735 15.8557 4.01042 15.8607 4.02366C8.79997 4.92246 5.59998 6.17495 0.180055 11.7283C0.173247 11.7159 0.166863 11.7033 0.160919 11.6903C-0.333903 10.6123 0.337263 8.92307 1.83296 7.27906Z" fill="black"/>
<path d="M3.26751 11.4705C3.72741 12.4128 6.39806 12.115 9.23249 10.805C12.067 9.49453 13.9917 7.66866 13.5318 6.72588C13.0722 5.78347 10.4016 6.08177 7.56721 7.3922C4.73273 8.70221 2.80801 10.5284 3.26751 11.4705Z" fill="white"/>
<path fill-rule="evenodd" clip-rule="evenodd" d="M9.67257 11.4754C5.34184 13.6037 0.904556 13.3109 0.20195 11.7804C-0.500663 10.2501 2.38561 7.1643 6.71658 5.03634C11.0476 2.90842 15.1828 2.5442 15.8854 4.07474C16.588 5.6053 14.0033 9.34779 9.67257 11.4754ZM9.21969 10.4891C7.16274 11.4996 5.22474 11.7294 4.89101 11.0024C4.55756 10.2758 5.95429 8.86717 8.01122 7.85667C10.0681 6.84592 12.0061 6.61579 12.3395 7.34273C12.6733 8.06993 11.2766 9.4783 9.21969 10.4891Z" fill="#0077FF"/>
</g>
<defs>
<clipPath id="clip0_743_33370">
<rect width="16" height="11" fill="white" transform="translate(0 2)"/>
</clipPath>
</defs>
</svg>
