<svg width="16" height="16" viewBox="0 0 16 16" fill="none" xmlns="http://www.w3.org/2000/svg">
<path fill-rule="evenodd" clip-rule="evenodd" d="M8.44095 15V1L0.5 2.43066V13.5694L8.44095 15ZM5.29189 10.4728C5.55622 10.1971 5.6884 9.80023 5.6884 9.28196C5.6884 8.95839 5.61596 8.67016 5.47108 8.41738C5.32875 8.1645 5.07585 7.91679 4.71239 7.67406C4.44297 7.49714 4.25362 7.33911 4.14433 7.20008C4.03758 7.06104 3.98421 6.89794 3.98421 6.71086C3.98421 6.52125 4.02868 6.37206 4.11764 6.26339C4.20915 6.15213 4.33877 6.09652 4.50652 6.09652C4.65902 6.09652 4.80135 6.12432 4.93352 6.17995C5.06823 6.23556 5.19658 6.29874 5.31858 6.36952L5.6617 5.54285C5.26775 5.30521 4.85727 5.18639 4.43027 5.18639C3.98293 5.18639 3.62583 5.32543 3.35895 5.60353C3.09463 5.88162 2.96245 6.25831 2.96245 6.73361C2.96245 6.98133 2.9955 7.19876 3.06158 7.38584C3.13021 7.57291 3.22552 7.74231 3.34752 7.89404C3.47206 8.04314 3.65379 8.19994 3.89271 8.36426C4.16721 8.55134 4.36418 8.72196 4.48364 8.87622C4.6031 9.02786 4.66283 9.19604 4.66283 9.38057C4.66283 9.56765 4.612 9.71552 4.51033 9.82429C4.41121 9.93296 4.26252 9.9873 4.06427 9.9873C3.71606 9.9873 3.33354 9.85202 2.9167 9.58156V10.6016C3.25729 10.7912 3.67031 10.8861 4.15577 10.8861C4.6514 10.8861 5.0301 10.7483 5.29189 10.4728Z" fill="#0072C6"/>
<path d="M9.32373 12.8355C9.58349 13.0917 9.94083 13.25 10.3354 13.25C11.1293 13.25 11.773 12.609 11.773 11.8181C11.773 11.7161 11.7622 11.6165 11.7418 11.5205C12.7264 11.1504 13.5179 10.3883 13.9243 9.42529C13.9697 9.42957 14.0159 9.43185 14.0624 9.43185C14.8564 9.43185 15.5 8.79074 15.5 8C15.5 7.20926 14.8564 6.56815 14.0624 6.56815C14.03 6.56815 13.9978 6.56929 13.9658 6.57139C13.5758 5.5657 12.7705 4.76576 11.7593 4.38008C11.7683 4.31528 11.773 4.24909 11.773 4.18182C11.773 3.39105 11.1293 2.75 10.3354 2.75C9.94083 2.75 9.58349 2.90826 9.32373 3.16452V5.19912C9.58349 5.45537 9.94083 5.61364 10.3354 5.61364C10.7543 5.61364 11.1314 5.43516 11.3941 5.15038C12.2089 5.441 12.8596 6.07475 13.1708 6.87676C12.8382 7.139 12.6249 7.54474 12.6249 8C12.6249 8.44039 12.8245 8.83431 13.1385 9.09699C12.8052 9.8865 12.1391 10.5024 11.3152 10.7705C11.0585 10.5322 10.714 10.3864 10.3354 10.3864C9.94083 10.3864 9.58349 10.5446 9.32373 10.8009V12.8355Z" fill="#0072C6"/>
</svg>
