<svg width="16" height="16" viewBox="0 0 16 16" fill="none" xmlns="http://www.w3.org/2000/svg">
<g clip-path="url(#clip0_743_33368)">
<path d="M8.0122 4C6.35375 4 4.94807 5.12419 4.51241 6.64735C4.13377 5.83944 3.31325 5.27343 2.36815 5.27343C1.06841 5.27343 0 6.34173 0 7.64133C0 8.94093 1.06841 10.0097 2.36815 10.0097C3.31325 10.0097 4.13377 9.44333 4.51241 8.63527C4.94807 10.1585 6.35375 11.2831 8.0122 11.2831C9.6584 11.2831 11.0569 10.1755 11.5037 8.6694C11.8893 9.45913 12.6997 10.0097 13.6313 10.0097C14.9311 10.0097 16 8.94093 16 7.64133C16 6.34173 14.9311 5.27343 13.6313 5.27343C12.6997 5.27343 11.8893 5.82364 11.5037 6.6132C11.0569 5.10723 9.6584 4 8.0122 4ZM8.0122 5.39C9.26413 5.39 10.2643 6.38952 10.2643 7.64133C10.2643 8.89313 9.26413 9.89313 8.0122 9.89313C6.76027 9.89313 5.76063 8.89313 5.76063 7.64133C5.76063 6.38952 6.76027 5.39 8.0122 5.39ZM2.36815 6.66344C2.91665 6.66344 3.34663 7.09287 3.34663 7.64133C3.34663 8.18973 2.91665 8.61967 2.36815 8.61967C1.81965 8.61967 1.39016 8.18973 1.39016 7.64133C1.39016 7.09287 1.81965 6.66344 2.36815 6.66344ZM13.6313 6.66344C14.1799 6.66344 14.6099 7.09287 14.6099 7.64133C14.6099 8.18973 14.1799 8.61967 13.6313 8.61967C13.0829 8.61967 12.6534 8.18973 12.6534 7.64133C12.6534 7.09287 13.0829 6.66344 13.6313 6.66344Z" fill="#0082C9"/>
</g>
<defs>
<clipPath id="clip0_743_33368">
<rect width="16" height="16" fill="white"/>
</clipPath>
</defs>
</svg>
