<svg width="16" height="16" viewBox="0 0 16 16" fill="none" xmlns="http://www.w3.org/2000/svg">
<path fill-rule="evenodd" clip-rule="evenodd" d="M11.0011 9.05422C11.0051 9.00045 11.0077 8.94645 11.0091 8.892C11.0097 8.86522 11.0111 8.83837 11.0111 8.81137C11.0111 8.3613 10.9188 7.9335 10.754 7.54627C10.7371 7.50682 10.7199 7.4676 10.7015 7.42898C10.6836 7.3911 10.6653 7.35338 10.6459 7.3164C10.3793 6.80723 9.98073 6.38371 9.49876 6.09412C9.46313 6.07262 9.42706 6.0519 9.3904 6.03193C9.35389 6.01204 9.31709 5.99264 9.27971 5.97428C8.90975 5.79238 8.49869 5.68703 8.06531 5.67667C8.04204 5.67616 8.01891 5.67482 7.99549 5.67482C7.96647 5.67482 7.93796 5.67628 7.90916 5.67711C7.85724 5.67864 7.80575 5.6815 7.75455 5.68576C7.2792 5.72505 6.83462 5.87878 6.44657 6.12145C6.4105 6.14402 6.37492 6.16761 6.33978 6.19177C6.30433 6.21606 6.26955 6.2413 6.23513 6.26711C6.03403 6.4181 5.85151 6.5939 5.69173 6.79058C5.66502 6.8235 5.63904 6.85717 5.61362 6.89115C5.58849 6.92482 5.5641 6.95895 5.54026 6.9936C5.18806 7.5069 4.97999 8.13412 4.97999 8.81137C4.97999 8.99002 4.99521 9.16508 5.02296 9.3357C5.03091 9.38475 5.03996 9.43357 5.0501 9.48187C5.06116 9.53452 5.07357 9.58665 5.0872 9.6384C5.16245 9.92445 5.27522 10.1944 5.42058 10.4417C5.44252 10.4792 5.46538 10.5161 5.48886 10.5525C5.51245 10.589 5.53696 10.6249 5.56202 10.6604C5.61838 10.7404 5.67828 10.8175 5.74148 10.8915C5.77602 10.9319 5.81129 10.9713 5.84772 11.0099C5.88103 11.0451 5.91527 11.0795 5.95017 11.1131C6.48813 11.6304 7.20676 11.9475 7.99549 11.9475C8.75535 11.9475 9.44989 11.6531 9.98073 11.1689C10.0114 11.1411 10.0413 11.1125 10.0708 11.0833C10.101 11.0535 10.1306 11.0231 10.1596 10.9921C10.601 10.5183 10.9001 9.90105 10.9852 9.21465C10.9919 9.16147 10.9972 9.10815 11.0011 9.05422ZM5.24148 10.6222C5.21832 10.5841 5.19583 10.5457 5.17412 10.5067C5.00841 10.2095 4.88476 9.88417 4.8119 9.5391C4.73433 9.5223 4.65407 9.51345 4.5718 9.51345C4.56305 9.51345 4.55462 9.5145 4.54594 9.5148C4.50474 9.51563 4.46409 9.51893 4.42406 9.5241C4.38304 9.52943 4.34276 9.53715 4.30309 9.54667C3.95559 9.63135 3.66745 9.87585 3.51348 10.2017C3.49532 10.2402 3.47912 10.2796 3.46482 10.3203C3.45064 10.3606 3.43847 10.4018 3.42833 10.444C3.40553 10.5391 3.39214 10.6381 3.39214 10.7404C3.39214 10.9762 3.45755 11.196 3.56885 11.3831C3.59068 11.4199 3.61409 11.4553 3.63933 11.4892C3.66415 11.5224 3.69031 11.5544 3.71818 11.5849C3.93322 11.8199 4.23597 11.9673 4.5718 11.9673C5.07149 11.9673 5.49864 11.6419 5.67022 11.1844C5.53929 11.0457 5.41985 10.8955 5.31319 10.7351C5.28855 10.698 5.26477 10.6603 5.24148 10.6222ZM14.3899 9.4686C14.3881 9.42412 14.3854 9.38003 14.3814 9.33623C14.3775 9.2925 14.3725 9.24915 14.3663 9.2061C14.202 8.06408 13.2717 7.1796 12.1386 7.13715C12.1103 7.13618 12.0821 7.13497 12.0536 7.13497C12.0411 7.13497 12.0287 7.13572 12.0164 7.13595C11.9753 7.13655 11.9345 7.13842 11.894 7.14127C11.5605 7.16475 11.2461 7.26105 10.9652 7.41533C11.1343 7.80285 11.2354 8.22893 11.2522 8.6772C11.254 8.72175 11.2555 8.7663 11.2555 8.81137C11.2555 8.8245 11.2547 8.8374 11.2546 8.85045C11.254 8.90768 11.252 8.96445 11.2487 9.02092C11.1988 9.8646 10.8516 10.6256 10.3143 11.1917C10.7427 11.6875 11.3636 12 12.0536 12C12.6492 12 13.1933 11.7668 13.6067 11.3841C13.638 11.355 13.6687 11.3254 13.6985 11.2947C13.7285 11.2638 13.7579 11.2322 13.7863 11.1995C14.1626 10.7675 14.3922 10.1948 14.3922 9.56752C14.3922 9.53437 14.3911 9.50145 14.3899 9.4686ZM14.8204 9.3828C14.7558 9.3828 14.6929 9.3897 14.6312 9.39998C14.6345 9.45548 14.6367 9.51127 14.6367 9.56752C14.6367 10.2811 14.3673 10.9301 13.9295 11.4118C14.146 11.6716 14.4646 11.8369 14.8204 11.8369C15.4708 11.8369 16 11.2864 16 10.6099C16 9.93322 15.4708 9.3828 14.8204 9.3828ZM5.1177 5.59369C5.12461 5.63884 5.13317 5.6834 5.14258 5.72759C5.16441 5.82926 5.19252 5.92837 5.22706 6.02431C5.2424 6.06691 5.25915 6.10861 5.27694 6.15C5.2943 6.1905 5.31276 6.23042 5.33244 6.26965C5.38971 6.38441 5.45609 6.49345 5.53091 6.59561C5.68128 6.41492 5.84919 6.25052 6.03263 6.10613C6.06716 6.07898 6.10249 6.05279 6.13813 6.02698C6.17364 6.00129 6.20964 5.97649 6.24614 5.95228C6.7408 5.62371 7.32567 5.43005 7.95309 5.42166C7.96727 5.42146 7.98131 5.42051 7.99549 5.42051C8.03622 5.42051 8.07665 5.42223 8.11709 5.42369C8.17287 5.42585 8.22836 5.42948 8.28335 5.4345C8.65993 5.46896 9.01811 5.5703 9.3472 5.72702C9.38073 5.57024 9.39898 5.40754 9.39898 5.24046C9.39898 5.11623 9.3888 4.99442 9.36996 4.87559C9.36327 4.83357 9.35542 4.79192 9.34655 4.75066C9.33753 4.70908 9.32749 4.66795 9.31629 4.62739C9.0592 3.68917 8.22822 3 7.24487 3C6.43348 3 5.72572 3.46914 5.35841 4.16016C5.338 4.19862 5.31844 4.23778 5.3001 4.27765C5.28116 4.31904 5.26367 4.36132 5.24705 4.4041C5.14662 4.66273 5.09075 4.94489 5.09075 5.24046C5.09075 5.31535 5.09441 5.38936 5.10132 5.46235C5.1056 5.50654 5.11111 5.55028 5.1177 5.59369ZM10.8567 7.18755C11.1681 7.0173 11.5169 6.91147 11.8867 6.88687C11.7912 5.7426 10.8657 4.84164 9.74131 4.84164C9.69826 4.84164 9.65556 4.8433 9.61324 4.8459C9.63287 4.97452 9.64349 5.10619 9.64349 5.24046C9.64349 5.4488 9.61847 5.65105 9.57193 5.84464C10.1126 6.15667 10.5595 6.62346 10.8567 7.18755ZM3.30907 10.0566C3.50247 9.6717 3.85358 9.3858 4.27277 9.29227C4.31238 9.28335 4.35266 9.27645 4.39343 9.27112C4.43372 9.2658 4.47442 9.2622 4.51562 9.26055C4.53433 9.2598 4.55297 9.25912 4.5718 9.25912C4.63787 9.25912 4.70279 9.26422 4.76654 9.27322C4.74661 9.1221 4.73549 8.96805 4.73549 8.81137C4.73549 8.0583 4.97296 7.36207 5.37369 6.79882C5.28292 6.68119 5.20193 6.55511 5.13256 6.42141C5.11312 6.3839 5.0946 6.34569 5.07694 6.30697C5.05927 6.26832 5.04264 6.22909 5.02693 6.18935C4.96434 6.03175 4.91721 5.866 4.88671 5.69415C4.83231 5.69021 4.77767 5.68747 4.72235 5.68747C4.31758 5.68747 3.93652 5.79511 3.60412 5.98406C3.56739 6.00504 3.53138 6.02704 3.49587 6.04993C3.46084 6.0725 3.42655 6.09608 3.39275 6.12043C3.01353 6.39414 2.71579 6.7812 2.54482 7.23428C2.52979 7.27418 2.51573 7.31445 2.50265 7.35533C2.48963 7.39605 2.47765 7.43715 2.46671 7.47877C2.41292 7.68322 2.38364 7.8981 2.38364 8.12003C2.38364 8.90948 2.74721 9.61185 3.30907 10.0566ZM3.21249 10.2982C2.56292 9.8097 2.13913 9.0156 2.13913 8.12003C2.13913 7.8912 2.16695 7.66882 2.21897 7.45672C2.19739 7.45597 2.17593 7.45493 2.15423 7.45493C0.966385 7.45493 0 8.46007 0 9.69555C0 10.931 0.966385 11.9362 2.15423 11.9362C2.60692 11.9362 3.02722 11.7898 3.37436 11.5406C3.23113 11.3098 3.14764 11.0351 3.14764 10.7404C3.14764 10.5864 3.17038 10.4379 3.21249 10.2982ZM3.4595 5.77744C3.36647 5.60768 3.31262 5.4118 3.31262 5.20276C3.31262 4.56012 3.81531 4.03726 4.43316 4.03726C4.66171 4.03726 4.87436 4.10917 5.05175 4.23187C4.92003 4.54048 4.84625 4.88163 4.84625 5.24046C4.84625 5.30658 4.84943 5.37188 4.85431 5.43666C4.81061 5.43437 4.7666 5.43316 4.72235 5.43316C4.26379 5.43316 3.83316 5.55867 3.4595 5.77744Z" fill="#1D2D44"/>
</svg>
