<svg width="16" height="16" viewBox="0 0 16 16" fill="none" xmlns="http://www.w3.org/2000/svg">
<path d="M15.8589 10.9925C16.0587 11.2839 16.0187 11.6586 15.779 11.8667C15.4994 12.0749 15.0999 12.0333 14.9002 11.7835L13.502 9.91022L12.1438 11.7419C11.9441 12.0333 11.5446 12.0333 11.265 11.8251C10.9854 11.617 10.9454 11.2423 11.1452 10.9509L12.743 8.78629L11.1452 6.62162C10.9454 6.33022 11.0254 5.91394 11.265 5.70581C11.5446 5.49767 11.9441 5.58093 12.1438 5.83069L13.502 7.70397L14.9002 5.91394C15.0999 5.62255 15.4595 5.58093 15.779 5.78906C16.0587 5.9972 16.0587 6.41348 15.8589 6.70488L14.301 8.8279L15.8589 10.9925ZM8.58857 10.7427C7.54996 10.7427 6.71105 9.91022 6.71105 8.8279C6.71105 7.78719 7.54996 6.91298 8.58857 6.91298C9.62719 6.91298 10.4661 7.78719 10.4661 8.8279C10.4262 9.91022 9.58726 10.7427 8.58857 10.7427ZM3.07591 10.7427C2.03729 10.7427 1.19841 9.91022 1.19841 8.8279C1.19841 7.78719 2.03729 6.91298 3.07591 6.91298C4.11453 6.91298 4.95341 7.78719 4.95341 8.8279C4.95341 9.91022 4.11453 10.7427 3.07591 10.7427ZM8.58857 5.66418C7.4301 5.66418 6.39151 6.33022 5.87219 7.32928C5.35288 6.33022 4.31426 5.66418 3.11586 5.66418C2.39681 5.66418 1.75766 5.91394 1.23836 6.2886V3.62442C1.23836 3.2914 0.958726 3 0.639148 3C0.279629 3 0 3.2914 0 3.62442V8.86951C0.0399491 10.6178 1.39814 11.9916 3.07591 11.9916C4.27432 11.9916 5.31294 11.2839 5.83225 10.2848C6.35156 11.2839 7.39017 11.9916 8.54865 11.9916C10.2663 11.9916 11.6645 10.5762 11.6645 8.78629C11.7044 7.07949 10.3063 5.66418 8.58857 5.66418Z" fill="#0061D5"/>
</svg>
