<svg width="16" height="16" viewBox="0 0 17 17" fill="none" xmlns="http://www.w3.org/2000/svg">
<path fill-rule="evenodd" clip-rule="evenodd" d="M17 5.5C17 8.53757 14.5376 11 11.5 11C10.8493 11 10.225 10.887 9.64565 10.6796L7.31248 12.9987C7.18693 13.1209 7.02114 13.1884 6.84426 13.1884H5.48978V14.4471C5.48978 14.804 5.19304 15.0941 4.82804 15.0941H3.54053V16.353C3.54053 16.7099 3.24336 17 2.87879 17H0.661456C0.296745 17 0 16.7099 0 16.353V13.7843C0 13.6115 0.0685343 13.4488 0.193659 13.3269L6.34339 7.41723C6.12134 6.82026 6 6.1743 6 5.5C6 2.46243 8.46243 0 11.5 0C14.5376 0 17 2.46243 17 5.5ZM14 5.5C14 6.88071 12.8807 8 11.5 8C10.1193 8 9 6.88071 9 5.5C9 4.11929 10.1193 3 11.5 3C12.8807 3 14 4.11929 14 5.5Z" fill="#A3A9AE"/>
</svg>
