<svg width="24" height="24" viewBox="0 0 24 24" fill="none" xmlns="http://www.w3.org/2000/svg">
<path d="M23.9997 10.125C23.9997 7.6875 21.9959 6.3012 19.6074 6.30176C19.4722 6.30176 19.3321 6.30344 19.1897 6.31203C19.0207 2.80507 15.8918 3.11419e-05 12.0701 3.11419e-05C10.5022 -0.00445394 8.97752 0.475636 7.73645 1.36462C6.58501 2.18744 5.88495 3.21708 5.43743 4.5C2.40569 4.5 0.000402814 6.75 0.000402814 9.95847V9.98762L0 10.3716C0.000402814 12.9554 2.26583 15.0449 5.05049 15.0449H18.9496C21.7343 15.0449 23.9997 13.6875 23.9997 10.875V10.125Z" fill="#333333"/>
<path d="M11.9133 21.8836H8.92795C7.92651 21.8836 7.11179 21.0691 7.11179 20.0679C7.11179 19.254 7.63935 18.5629 8.36592 18.327V18.6858C8.36592 18.9062 8.50147 19.0601 8.69557 19.0601C8.76989 19.0601 8.84489 19.0368 8.91852 18.9908L10.6012 17.9402C10.727 17.8616 10.7991 17.7434 10.7991 17.6159C10.7991 17.4889 10.7274 17.3712 10.6023 17.2931L8.91856 16.2426C8.84489 16.1966 8.76989 16.1732 8.69557 16.1732C8.50147 16.1732 8.36592 16.3272 8.36592 16.5475V16.8497C6.84193 17.1135 5.6785 18.4561 5.6785 20.068C5.6785 21.8618 7.13619 23.3212 8.92795 23.3212H11.9133C12.3091 23.3212 12.63 22.9994 12.63 22.6024C12.63 22.2055 12.3091 21.8836 11.9133 21.8836Z" fill="#333333"/>
<path d="M15.3264 16.8161C17.1182 16.8161 18.5759 18.2836 18.5759 20.0873C18.5759 20.9578 18.2407 21.7752 17.6322 22.3891C17.1526 22.8728 16.547 23.1848 15.8884 23.2967V23.6257C15.8884 23.8461 15.7529 24 15.5588 24C15.4845 24 15.4095 23.9766 15.3358 23.9306L13.652 22.8801C13.5269 22.802 13.4552 22.6843 13.4552 22.5573C13.4552 22.4298 13.5274 22.3116 13.6532 22.233L15.3358 21.1824C15.4095 21.1364 15.4845 21.1131 15.5588 21.1131C15.7529 21.1131 15.8884 21.267 15.8884 21.4874V21.8197C16.615 21.5849 17.1426 20.8972 17.1426 20.0873C17.1426 19.0762 16.3279 18.2537 15.3264 18.2537H12.341C11.9452 18.2537 11.6244 17.9319 11.6244 17.5349C11.6244 17.1379 11.9452 16.8161 12.341 16.8161H15.3264Z" fill="#333333"/>
</svg>
