<svg width="24" height="24" viewBox="0 0 24 24" fill="none" xmlns="http://www.w3.org/2000/svg">
<g clip-path="url(#clip0)">
<path d="M18.2497 0H15.9997H7.99981H5.74984C4.23286 0 2.99988 1.233 2.99988 2.75V21.25C2.99988 22.767 4.23286 24 5.74984 24H18.2497C19.7667 24 20.9996 22.767 20.9996 21.25V2.75C20.9996 1.233 19.7667 0 18.2497 0ZM18.9997 21C18.9997 21.552 18.5517 22 17.9997 22H5.99984C5.44784 22 4.99985 21.552 4.99985 21V3C4.99985 2.448 5.44784 2 5.99984 2H7.49982C8.05181 2 8.4998 2.448 8.4998 3C8.4998 3.552 8.9478 4 9.49979 4H14.4997C15.0517 4 15.4997 3.552 15.4997 3C15.4997 2.448 15.9477 2 16.4997 2H17.9997C18.5517 2 18.9997 2.448 18.9997 3V21Z" fill="#333333"/>
<path fill-rule="evenodd" clip-rule="evenodd" d="M6.0321 8.27197C6.0321 7.04425 7.2725 6 8.50003 6C9.72773 6 11 7.04425 11 8.27197V13.98H9.50001V11.5H7.50004V13.98L6 14L6.0321 8.27197ZM17.9998 14H11.9999V12H17.9998V14ZM12 11H17.9998V9H11.9999L12 11ZM18.0319 17H6.0321L6 15H17.9998L18.0319 17ZM11.9999 8H17.9998L17.9999 6H12L11.9999 8ZM18.0319 20H6V18H17.9998L18.0319 20ZM8.49996 7.5C7.94768 7.5 7.49996 7.94772 7.49996 8.5V10H9.49996V8.5C9.49996 7.94772 9.05224 7.5 8.49996 7.5Z" fill="#333333"/>
</g>
<defs>
<clipPath id="clip0">
<rect width="23.9997" height="24" fill="white"/>
</clipPath>
</defs>
</svg>
