<svg width="24" height="24" viewBox="0 0 24 24" fill="none" xmlns="http://www.w3.org/2000/svg">
<path d="M18.9998 11.0001L18.9999 8.00009C18.9999 2.5 14.4999 1.0001 12.1461 1.0001C12.073 1.0001 11.9268 0.998781 11.8537 1.0001C9.49993 1.0001 4.99999 2.5 4.99999 8.00144V11C4.39797 11 4.0001 11.357 4.0001 11.9997L4 20.8879C4 21.4996 4.55482 22 5.03531 22L18.9999 21.9999C19.4804 21.9999 19.9998 21.4995 19.9998 20.8879L19.9999 11.9997C19.9998 11.5001 19.9998 11.0001 18.9998 11.0001ZM15.9998 11H12.1461H11.8537L7.99995 11.0001V8.00009C7.99995 4.00009 11.3966 4.00009 11.9999 4.00009C12.6032 4.00009 15.9998 4.00009 15.9998 8.00009V11Z" fill="#333333"/>
</svg>
