<svg width="222" height="247" viewBox="0 0 222 247" fill="none" xmlns="http://www.w3.org/2000/svg">
<path d="M131.182 28.3443C138.971 28.3443 145.309 21.986 145.309 14.1721C145.309 6.35823 138.971 0 131.182 0C123.393 0 117.055 6.35823 117.055 14.1721C117.055 21.986 123.393 28.3443 131.182 28.3443ZM131.182 8.09836C134.521 8.09836 137.236 10.8224 137.236 14.1721C137.236 17.5218 134.521 20.2459 131.182 20.2459C127.843 20.2459 125.127 17.5218 125.127 14.1721C125.127 10.8224 127.843 8.09836 131.182 8.09836ZM197.782 24.2951V16.1967C197.782 13.9585 199.589 12.1475 201.818 12.1475C204.047 12.1475 205.855 13.9585 205.855 16.1967V24.2951C205.855 26.5333 204.047 28.3443 201.818 28.3443C199.589 28.3443 197.782 26.5333 197.782 24.2951ZM205.855 40.4918V48.5902C205.855 50.8284 204.047 52.6394 201.818 52.6394C199.589 52.6394 197.782 50.8284 197.782 48.5902V40.4918C197.782 38.2536 199.589 36.4426 201.818 36.4426C204.047 36.4426 205.855 38.2536 205.855 40.4918ZM181.636 32.3934C181.636 30.1553 183.444 28.3443 185.673 28.3443H193.745C195.975 28.3443 197.782 30.1553 197.782 32.3934C197.782 34.6316 195.975 36.4426 193.745 36.4426H185.673C183.444 36.4426 181.636 34.6316 181.636 32.3934ZM222 32.3934C222 34.6316 220.193 36.4426 217.964 36.4426H209.891C207.662 36.4426 205.855 34.6316 205.855 32.3934C205.855 30.1553 207.662 28.3443 209.891 28.3443H217.964C220.193 28.3443 222 30.1553 222 32.3934ZM176.271 80.93C176.271 78.5399 178.203 76.6014 180.586 76.6014C182.968 76.6014 184.901 78.5399 184.901 80.93C184.901 83.321 182.968 85.2585 180.586 85.2585C178.203 85.2585 176.271 83.322 176.271 80.93ZM211.481 146.098L154.972 121.803C153.955 121.368 152.808 121.368 151.791 121.803L121.091 135.003V52.6394C121.091 51.0177 120.129 49.5549 118.645 48.9181L62.1358 24.6231C61.1186 24.1878 59.9713 24.1878 58.9551 24.6231L2.44604 48.9181C0.961663 49.5549 0 51.0177 0 52.6394V190.311C0 191.933 0.961663 193.396 2.44604 194.033L58.9551 218.328C59.4637 218.545 60.0036 218.656 60.5455 218.656C61.0873 218.656 61.6272 218.545 62.1358 218.328L92.8364 205.128V218.656C92.8364 220.277 93.798 221.74 95.2824 222.377L151.791 246.672C152.3 246.89 152.84 247 153.382 247C153.924 247 154.464 246.89 154.972 246.672L211.481 222.377C212.966 221.74 213.927 220.277 213.927 218.656V149.82C213.927 148.198 212.966 146.735 211.481 146.098ZM153.382 129.93L199.646 149.82L153.382 169.709L107.118 149.82L153.382 129.93ZM8.07273 58.7789L56.5091 79.6028V139.63L8.07273 118.806V58.7789ZM64.5818 79.6039L113.018 58.7799V118.807L64.5818 139.631V79.6039ZM60.5455 32.7498L106.809 52.6394L60.5455 72.5289L14.2817 52.6394L60.5455 32.7498ZM8.07273 127.615L56.5091 148.439V208.465L8.07273 187.641V127.615ZM100.909 155.959L149.345 176.783V236.809L100.909 215.985V155.959Z" fill="#E6EBF0"/>
</svg>
