<svg width="16" height="16" viewBox="0 0 16 16" fill="none" xmlns="http://www.w3.org/2000/svg">
<g clip-path="url(#clip0_28469_39135)">
<path fill-rule="evenodd" clip-rule="evenodd" d="M10.2929 1.29312C11.5119 0.074169 13.4882 0.0741679 14.7071 1.29312C15.9261 2.51207 15.9261 4.48838 14.7071 5.70733L5.70713 14.7073C5.57897 14.8355 5.41839 14.9264 5.24256 14.9704L1.24256 15.9704C0.901782 16.0556 0.541295 15.9557 0.292914 15.7073C0.0445341 15.459 -0.055315 15.0985 0.0298787 14.7577L1.02988 10.7577C1.07384 10.5819 1.16476 10.4213 1.29291 10.2931L10.2929 1.29312ZM13.2929 2.70733C12.855 2.26943 12.145 2.26943 11.7071 2.70733L10.9142 3.50023L12.5 5.08601L13.2929 4.29312C13.7308 3.85522 13.7308 3.14524 13.2929 2.70733ZM11.0858 6.50023L9.50002 4.91444L2.90299 11.5115L2.37439 13.6259L4.48877 13.0973L11.0858 6.50023Z" fill="#333333"/>
</g>
<defs>
<clipPath id="clip0_28469_39135">
<rect width="16" height="16" fill="white"/>
</clipPath>
</defs>
</svg>
