<svg width="13" height="15" viewBox="0 0 13 15" fill="none" xmlns="http://www.w3.org/2000/svg">
<g id="privacy.with-background.svg">
<path id="background" d="M12.8233 1.93784C12.7972 1.75932 12.6621 1.61247 12.4795 1.5642L6.62752 0.0165612C6.54409 -0.0055204 6.45597 -0.0055204 6.37248 0.0165612L0.520461 1.5642C0.337871 1.61247 0.202801 1.75926 0.176662 1.93784C0.14272 2.16994 -0.631607 8.80774 1.35449 11.5358C3.33824 14.2607 6.26469 14.959 6.38828 14.9874C6.42501 14.9958 6.46244 15 6.5 15C6.53756 15 6.57499 14.9958 6.61172 14.9874C6.73537 14.959 9.66183 14.2607 11.6455 11.5358C13.6316 8.8078 12.8573 2.17 12.8233 1.93784Z" fill="white"/>
<path id="check" d="M11.8505 2.67946C11.8284 2.52474 11.7141 2.39747 11.5596 2.35564L6.6079 1.01435C6.53731 0.995216 6.46274 0.995216 6.3921 1.01435L1.44039 2.35564C1.28589 2.39747 1.1716 2.52469 1.14948 2.67946C1.12076 2.88061 0.465563 8.63338 2.14611 10.9977C3.82466 13.3593 6.30089 13.9644 6.40546 13.9891C6.43655 13.9964 6.46822 14 6.5 14C6.53178 14 6.56345 13.9963 6.59454 13.9891C6.69916 13.9644 9.17539 13.3593 10.8539 10.9977C12.5344 8.63343 11.8792 2.88067 11.8505 2.67946ZM9.69322 6.45417L6.31565 9.74397C6.23706 9.82052 6.13399 9.85885 6.03097 9.85885C5.92796 9.85885 5.82488 9.82057 5.74629 9.74397L3.65798 7.70992C3.58244 7.6364 3.54003 7.53664 3.54003 7.43264C3.54003 7.32864 3.5825 7.22887 3.65798 7.15535L4.07262 6.75148C4.22986 6.59838 4.4848 6.59833 4.64198 6.75148L6.03097 8.10438L8.70921 5.49568C8.78469 5.42211 8.88712 5.38081 8.99389 5.38081C9.10067 5.38081 9.20309 5.42211 9.27857 5.49568L9.69322 5.89955C9.85045 6.05271 9.85045 6.30102 9.69322 6.45417Z" fill="#35AD17"/>
</g>
</svg>
