<svg width="12" height="12" viewBox="0 0 12 12" fill="none" xmlns="http://www.w3.org/2000/svg">
<path d="M11.2111 1.67921C11.1895 1.52449 11.0782 1.39722 10.9277 1.35539L6.10473 0.0141088C6.03597 -0.00502845 5.96334 -0.00502845 5.89453 0.0141088L1.07152 1.35539C0.921039 1.39722 0.809718 1.52444 0.788176 1.67921C0.760202 1.88036 0.122032 6.63309 1.75889 8.99743C3.39382 11.3589 5.80569 11.9641 5.90755 11.9887C5.93782 11.9961 5.96867 11.9997 5.99963 11.9997C6.03058 11.9997 6.06143 11.996 6.09171 11.9887C6.19361 11.9641 8.60548 11.3589 10.2404 8.99743C11.8772 6.63314 11.2391 1.88041 11.2111 1.67921ZM9.10985 4.4539L5.82007 7.74368C5.74352 7.82023 5.64313 7.85855 5.54279 7.85855C5.44245 7.85855 5.34206 7.82028 5.26551 7.74368L3.23147 5.70964C3.1579 5.63612 3.11659 5.53636 3.11659 5.43236C3.11659 5.32836 3.15795 5.22859 3.23147 5.15508L3.63534 4.75121C3.78849 4.59811 4.0368 4.59806 4.1899 4.75121L5.54279 6.1041L8.15142 3.49542C8.22493 3.42185 8.3247 3.38054 8.4287 3.38054C8.5327 3.38054 8.63246 3.42185 8.70598 3.49542L9.10985 3.89929C9.263 4.05244 9.263 4.30075 9.10985 4.4539Z" fill="#35AD17"/>
</svg>
