<svg width="16" height="16" viewBox="0 0 16 16" fill="none" xmlns="http://www.w3.org/2000/svg">
<path fill-rule="evenodd" clip-rule="evenodd" d="M1.6 8.00029C1.6 4.46548 4.46508 1.6 7.99857 1.6C11.5348 1.6 14.4 4.46592 14.4 8.00029C14.4 11.5335 11.5348 14.4 7.99857 14.4C6.16874 14.4 4.52033 13.6337 3.35202 12.3999C2.26458 11.2515 1.6 9.70508 1.6 8.00029ZM7.99857 0C3.58105 0 0 3.58219 0 8.00029C0 10.1304 0.83265 12.0663 2.19023 13.5C3.64805 15.0395 5.71117 16 7.99857 16C12.4184 16 16 12.4172 16 8.00029C16 3.58219 12.4184 0 7.99857 0ZM9.88726 11L10.9985 9.88994L9.10981 8.00274L10.9985 6.11255L9.88726 5L7.99804 6.8877L6.11031 5L4.99854 6.11255L6.88676 8.00274L4.99854 9.88994L6.11031 11L7.99804 9.1133L9.88726 11Z" fill="#A3A9AE"/>
</svg>
