<svg width="34" height="34" viewBox="0 0 34 34" fill="none" xmlns="http://www.w3.org/2000/svg">
<path d="M33.8505 22.6795C33.8284 22.5247 33.7141 22.3975 33.5596 22.3556L28.6079 21.0144C28.5373 20.9952 28.4627 20.9952 28.3921 21.0144L23.4404 22.3556C23.2859 22.3975 23.1716 22.5247 23.1495 22.6795C23.1208 22.8806 22.4656 28.6334 24.1461 30.9977C25.8247 33.3593 28.3009 33.9644 28.4055 33.9891C28.4365 33.9964 28.4682 34 28.5 34C28.5318 34 28.5635 33.9963 28.5945 33.9891C28.6992 33.9644 31.1754 33.3593 32.8539 30.9977C34.5344 28.6334 33.8792 22.8807 33.8505 22.6795ZM31.6932 26.4542L28.3157 29.744C28.2371 29.8205 28.134 29.8588 28.031 29.8588C27.928 29.8588 27.8249 29.8206 27.7463 29.744L25.658 27.7099C25.5824 27.6364 25.54 27.5366 25.54 27.4326C25.54 27.3286 25.5825 27.2289 25.658 27.1554L26.0726 26.7515C26.2299 26.5984 26.4848 26.5983 26.642 26.7515L28.031 28.1044L30.7092 25.4957C30.7847 25.4221 30.8871 25.3808 30.9939 25.3808C31.1007 25.3808 31.2031 25.4221 31.2786 25.4957L31.6932 25.8996C31.8505 26.0527 31.8505 26.301 31.6932 26.4542Z" fill="#35AD17"/>
<path fill-rule="evenodd" clip-rule="evenodd" d="M6 2H26C28.2091 2 30 3.79086 30 6V18C30 18 30 19 31 19C32 19 32 18 32 18V6C32 2.68629 29.3137 0 26 0H6C2.68629 0 0 2.68629 0 6V26C0 29.3137 2.68629 32 6 32H21C21 32 22 32 22 31C22 30 21 30 21 30H6C3.79086 30 2 28.2091 2 26V6C2 3.79086 3.79086 2 6 2Z" fill="#F2557C"/>
<g clip-path="url(#clip0_2383_53093)">
<path fill-rule="evenodd" clip-rule="evenodd" d="M16 8C16.3901 8 16.7446 8.22689 16.908 8.58115L18.6485 12.3546L22.7751 12.8438C23.1625 12.8898 23.4879 13.1568 23.6084 13.5279C23.729 13.8989 23.6227 14.3062 23.3363 14.5711L20.2854 17.3924L21.0953 21.4682C21.1713 21.8509 21.0179 22.2428 20.7022 22.4721C20.3866 22.7015 19.9664 22.7263 19.626 22.5357L16 20.506L12.3739 22.5357C12.0335 22.7263 11.6133 22.7015 11.2977 22.4721C10.9821 22.2428 10.8286 21.8509 10.9046 21.4682L11.7145 17.3924L8.66361 14.5711C8.37718 14.3062 8.27095 13.8989 8.39151 13.5279C8.51207 13.1568 8.8374 12.8898 9.22482 12.8438L13.3514 12.3546L15.0919 8.58115C15.2553 8.22689 15.6098 8 16 8ZM16 11.3875L14.9331 13.7005C14.7874 14.0164 14.4881 14.2338 14.1427 14.2747L11.6132 14.5747L13.4834 16.3041C13.7387 16.5402 13.853 16.8921 13.7852 17.2332L13.2888 19.7316L15.5115 18.4874C15.815 18.3175 16.1849 18.3175 16.4884 18.4874L18.7111 19.7316L18.2147 17.2332C18.1469 16.8921 18.2612 16.5402 18.5166 16.3041L20.3867 14.5747L17.8572 14.2747C17.5118 14.2338 17.2125 14.0164 17.0669 13.7005L16 11.3875Z" fill="#F2557C"/>
</g>
<defs>
<clipPath id="clip0_2383_53093">
<rect width="16" height="16" fill="white" transform="translate(8 8)"/>
</clipPath>
</defs>
</svg>
