<svg width="34" height="34" viewBox="0 0 34 34" fill="none" xmlns="http://www.w3.org/2000/svg">
<path d="M33.8505 22.6795C33.8284 22.5247 33.7141 22.3975 33.5596 22.3556L28.6079 21.0144C28.5373 20.9952 28.4627 20.9952 28.3921 21.0144L23.4404 22.3556C23.2859 22.3975 23.1716 22.5247 23.1495 22.6795C23.1208 22.8806 22.4656 28.6334 24.1461 30.9977C25.8247 33.3593 28.3009 33.9644 28.4055 33.9891C28.4365 33.9964 28.4682 34 28.5 34C28.5318 34 28.5635 33.9963 28.5945 33.9891C28.6992 33.9644 31.1754 33.3593 32.8539 30.9977C34.5344 28.6334 33.8792 22.8807 33.8505 22.6795ZM31.6932 26.4542L28.3157 29.744C28.2371 29.8205 28.134 29.8588 28.031 29.8588C27.928 29.8588 27.8249 29.8206 27.7463 29.744L25.658 27.7099C25.5824 27.6364 25.54 27.5366 25.54 27.4326C25.54 27.3286 25.5825 27.2289 25.658 27.1554L26.0726 26.7515C26.2299 26.5984 26.4848 26.5983 26.642 26.7515L28.031 28.1044L30.7092 25.4957C30.7847 25.4221 30.8871 25.3808 30.9939 25.3808C31.1007 25.3808 31.2031 25.4221 31.2786 25.4957L31.6932 25.8996C31.8505 26.0527 31.8505 26.301 31.6932 26.4542Z" fill="#35AD17"/>
<path fill-rule="evenodd" clip-rule="evenodd" d="M6 2H26C28.2091 2 30 3.79086 30 6V18C30 18 30 19 31 19C32 19 32 18 32 18V6C32 2.68629 29.3137 0 26 0H6C2.68629 0 0 2.68629 0 6V26C0 29.3137 2.68629 32 6 32H21C21 32 22 32 22 31C22 30 21 30 21 30H6C3.79086 30 2 28.2091 2 26V6C2 3.79086 3.79086 2 6 2Z" fill="#A3A9AE"/>
<path fill-rule="evenodd" clip-rule="evenodd" d="M9 13C8.44772 13 8 12.5523 8 12V10C8 9.44772 8.44772 9 9 9H23C23.5523 9 24 9.44772 24 10V12C24 12.5523 23.5523 13 23 13V22C23 22.5523 22.5523 23 22 23H10C9.44772 23 9 22.5523 9 22V13ZM11 14V21H21V14H11ZM13 17C13 16.4477 13.4477 16 14 16H18C18.5523 16 19 16.4477 19 17C19 17.5523 18.5523 18 18 18H14C13.4477 18 13 17.5523 13 17ZM11.5 11C11.2239 11 11 11.2239 11 11.5C11 11.7761 11.2239 12 11.5 12H20.5C20.7761 12 21 11.7761 21 11.5C21 11.2239 20.7761 11 20.5 11H11.5Z" fill="#A3A9AE"/>
</svg>
