<svg width="16" height="16" viewBox="0 0 16 16" fill="none" xmlns="http://www.w3.org/2000/svg">
<path d="M15.0133 9.35222C15.0972 8.91428 15.1416 8.46236 15.1416 7.99998C15.1416 4.05529 11.9436 0.857515 7.99909 0.857515C7.53666 0.857515 7.08469 0.901979 6.6467 0.985961C5.06985 -0.388592 2.67578 -0.326284 1.17428 1.17516C-0.327266 2.67656 -0.389623 5.07078 0.985076 6.64773C0.901143 7.08563 0.856679 7.53759 0.856679 7.99998C0.856679 11.9447 4.05464 15.1425 7.99914 15.1425C8.46162 15.1425 8.91363 15.098 9.35168 15.014C10.9284 16.3886 13.3226 16.3263 14.824 14.8248C16.3254 13.3234 16.3879 10.9292 15.0133 9.35222ZM8.1352 12.3991C6.01979 12.3991 4.25699 11.4536 4.25699 10.2997C4.25699 9.78693 4.5453 9.32202 5.20227 9.32202C6.21209 9.32202 6.30834 10.7644 8.03939 10.7644C8.87252 10.7644 9.40148 10.3957 9.40148 9.91508C9.40148 9.32202 8.88866 9.22591 8.05534 9.0176L6.6771 8.68114C5.31462 8.34449 4.25699 7.78362 4.25699 6.21298C4.25699 4.30583 6.14794 3.60076 7.76664 3.60076C9.54573 3.60076 11.3406 4.30583 11.3406 5.37951C11.3406 5.92433 10.9717 6.40543 10.363 6.40543C9.44938 6.40543 9.41709 5.3316 7.94304 5.3316C7.12576 5.3316 6.5969 5.55591 6.5969 6.05282C6.5969 6.59764 7.12576 6.7257 7.84713 6.8861L8.82446 7.11055C10.1544 7.41482 11.7413 7.97583 11.7413 9.61081C11.7413 11.5176 9.898 12.3991 8.1352 12.3991Z" fill="#333333"/>
</svg>
