<svg width="16" height="16" viewBox="0 0 16 16" fill="none" xmlns="http://www.w3.org/2000/svg">
<path fill-rule="evenodd" clip-rule="evenodd" d="M2 1C0.895431 1 0 1.89543 0 3V5H2V3H6.58579L9 5.41421C9.37507 5.78929 9.88378 6 10.4142 6H14V13H2V11H0V13C0 14.1046 0.895431 15 2 15H14C15.1046 15 16 14.1046 16 13V6C16 4.89543 15.1046 4 14 4H10.4142L8 1.58579C7.62493 1.21071 7.11622 1 6.58579 1H2ZM3.29289 5.70711L4.58577 6.99998L6.3888e-05 6.99994L4.80408e-05 8.99994L4.58581 8.99998L3.29289 10.2929L4.70711 11.7071L7.70711 8.70711C8.09763 8.31658 8.09763 7.68342 7.70711 7.29289L4.70711 4.29289L3.29289 5.70711Z" fill="#333333"/>
</svg>
