<svg width="16" height="16" viewBox="0 0 16 16" fill="none" xmlns="http://www.w3.org/2000/svg">
<g clip-path="url(#clip0_25409_57824)">
<path fill-rule="evenodd" clip-rule="evenodd" d="M7.49896 0H8.49896C9.32739 0 9.99896 0.671573 9.99896 1.5V2H10H13C14.1049 2 15 2.89593 15 4.00022H13V4H10H8.49896H7.49896H6H3V4.00022H1C1 2.89593 1.89515 2 3 2H5.99896V1.5C5.99896 0.671573 6.67054 0 7.49896 0ZM3 5.00023V13.0002C3 14.6571 4.34315 16.0002 6 16.0002H10C11.6569 16.0002 13 14.6571 13 13.0002V5.00023H11V13.0002C11 13.5525 10.5523 14.0002 10 14.0002H6C5.44771 14.0002 5 13.5525 5 13.0002V5.00023H3ZM7 6V14H9V6H7Z" fill="#333333"/>
</g>
<defs>
<clipPath id="clip0_25409_57824">
<rect width="16" height="16" fill="white"/>
</clipPath>
</defs>
</svg>
