<svg width="16" height="16" viewBox="0 0 16 16" fill="none" xmlns="http://www.w3.org/2000/svg">
<path d="M12.888 4.96647C12.4964 5.09839 8.91426 8.57072 8.67812 9.42272C8.62608 9.71696 8.68337 12.5707 8.73541 12.9986C8.97155 13.0642 10.6755 13.0071 10.9882 13.0724L10.9507 13.9546C10.6445 13.9249 8.47918 13.9318 7.24376 13.9318C6.6158 13.9318 4.59748 14.0186 3.9776 13.996L4.09477 13.1564C4.43496 13.1249 5.84243 13.2348 6.15092 12.8237C6.30433 12.6193 6.25612 9.90728 6.20404 9.44876C6.07373 8.95829 2.93449 4.04157 2.11429 3.23603H0V2H7.13049V2.08528C7.13674 2.08528 7.14864 2.08667 7.1547 2.08821L7.13049 2.29708V3.23598H4.9803C5.93863 4.98772 7.31269 7.10262 7.89873 8.1189L10.7707 4.86553H9.06358L8.82312 3.63085H15.0765L15.0303 3.71887C15.0351 3.71887 15.0455 3.72026 15.0524 3.72026L14.6056 4.53013C14.6016 4.53013 14.5949 4.53153 14.5914 4.53287L14.4111 4.86553H13.2577C13.1084 4.90668 12.9769 4.94336 12.888 4.96647ZM14.9285 12.7074L14.3764 12.6734L13.7604 12.5794L13.7656 13.8993L14.2514 13.9516L14.775 14L14.9285 12.7074ZM16 6.39821C15.8137 6.38998 14.1198 6.18957 13.8997 6.13508L13.9257 11.7111L14.8844 11.8079L16 6.39821Z" fill="#333333"/>
</svg>
