<svg width="773" height="88" viewBox="0 0 773 88" fill="none" xmlns="http://www.w3.org/2000/svg">
<path fill-rule="evenodd" clip-rule="evenodd" d="M42.2502 86.9216L3.00719 68.8046C-0.335731 67.223 -0.335731 64.7786 3.00719 63.3407L16.6696 57.0142L42.1049 68.8046C45.4478 70.3863 50.8255 70.3863 54.0231 68.8046L79.4584 57.0142L93.1208 63.3407C96.4637 64.9224 96.4637 67.3667 93.1208 68.8046L53.8778 86.9216C50.8255 88.3595 45.4478 88.3595 42.2502 86.9216Z" fill="#FF6F3D"/>
<path fill-rule="evenodd" clip-rule="evenodd" d="M42.123 64.5028L2.99955 46.3648C-0.333185 44.7813 -0.333185 42.3341 2.99955 40.8946L16.3305 34.7046L42.123 46.6527C45.4558 48.2362 50.8171 48.2362 54.005 46.6527L79.7975 34.7046L93.1284 40.8946C96.4612 42.478 96.4612 44.9252 93.1284 46.3648L54.005 64.5028C50.6722 66.0863 45.3109 66.0863 42.123 64.5028Z" fill="#95C038"/>
<path fill-rule="evenodd" clip-rule="evenodd" d="M42.123 42.3161L2.99955 24.4391C-0.333185 22.8784 -0.333185 20.4664 2.99955 19.0476L42.123 1.17052C45.4558 -0.390174 50.8171 -0.390174 54.005 1.17052L93.1284 19.0476C96.4612 20.6083 96.4612 23.0203 93.1284 24.4391L54.005 42.3161C50.6722 43.7349 45.3109 43.7349 42.123 42.3161Z" fill="#5DC0E8"/>
<path fill-rule="evenodd" clip-rule="evenodd" d="M626.338 62.3262C629.158 60.1509 630.568 57.1195 630.568 53.232C630.568 50.2107 629.691 47.7534 627.939 45.86C626.207 43.9666 623.024 42.1941 618.392 40.5425C615.632 39.5555 613.578 38.6592 612.228 37.8535C610.899 37.0276 609.952 36.1313 609.388 35.1645C608.824 34.1775 608.542 32.9186 608.542 31.3878C608.542 29.3132 609.308 27.6917 610.838 26.5235C612.369 25.3553 614.494 24.7711 617.213 24.7711C620.658 24.7711 624.203 25.5365 627.848 27.0673L629.45 22.5958C625.764 20.9844 621.725 20.1787 617.334 20.1787C613.124 20.1787 609.741 21.1858 607.182 23.2C604.624 25.2143 603.345 27.9234 603.345 31.3274C603.345 34.5703 604.222 37.1989 605.974 39.2131C607.746 41.2273 610.687 42.9696 614.796 44.44C617.737 45.4874 619.922 46.424 621.353 47.2498C622.803 48.0756 623.83 48.982 624.434 49.969C625.059 50.9358 625.371 52.1846 625.371 53.7154C625.371 56.0318 624.505 57.8446 622.773 59.1538C621.04 60.4429 618.462 61.0875 615.038 61.0875C612.943 61.0875 610.828 60.8659 608.693 60.4228C606.558 59.9797 604.584 59.3754 602.771 58.61V63.565C605.591 64.9145 609.62 65.5893 614.857 65.5893C619.691 65.5893 623.518 64.5016 626.338 62.3262ZM524.774 59.2143C528.742 55.347 530.726 49.7676 530.726 42.4761C530.726 35.6479 528.823 30.3304 525.016 26.5235C521.209 22.7166 515.871 20.8132 509.003 20.8132H495.467V64.985H507.704C515.136 64.985 520.826 63.0614 524.774 59.2143ZM520.937 29.6355C523.837 32.5561 525.288 36.8967 525.288 42.6574C525.288 48.559 523.747 53.0205 520.665 56.0419C517.583 59.043 512.981 60.5436 506.858 60.5436H500.603V25.2545H508.066C513.766 25.2545 518.057 26.7148 520.937 29.6355ZM563.735 61.0573C566.454 58.0158 567.813 53.796 567.813 48.3979C567.813 43.1408 566.444 38.9714 563.704 35.8896C560.985 32.8079 557.309 31.267 552.677 31.267C547.883 31.267 544.136 32.7776 541.437 35.799C538.738 38.8002 537.389 42.9998 537.389 48.3979C537.389 51.8825 538.013 54.924 539.262 57.5223C540.511 60.1207 542.283 62.1147 544.579 63.5045C546.876 64.8943 549.504 65.5893 552.465 65.5893C557.259 65.5893 561.015 64.0786 563.735 61.0573ZM545.123 58.0662C543.431 55.8505 542.585 52.6278 542.585 48.3979C542.585 44.1278 543.421 40.9151 545.093 38.7599C546.765 36.6047 549.242 35.5271 552.526 35.5271C555.849 35.5271 558.357 36.6248 560.049 38.8203C561.761 40.9957 562.617 44.1882 562.617 48.3979C562.617 52.6479 561.761 55.8807 560.049 58.0964C558.357 60.2919 555.869 61.3896 552.586 61.3896C549.303 61.3896 546.815 60.2818 545.123 58.0662ZM589.25 65.5893C584.457 65.5893 580.74 64.1189 578.102 61.1781C575.483 58.2172 574.174 54.0377 574.174 48.6396C574.174 43.1005 575.503 38.8203 578.162 35.799C580.841 32.7776 584.648 31.267 589.583 31.267C591.174 31.267 592.765 31.4382 594.356 31.7806C595.948 32.123 597.196 32.5259 598.103 32.9891L596.562 37.2492C595.454 36.8061 594.246 36.4435 592.936 36.1615C591.627 35.8594 590.469 35.7083 589.462 35.7083C582.734 35.7083 579.371 39.9986 579.371 48.5792C579.371 52.6479 580.186 55.7699 581.818 57.9453C583.47 60.1207 585.907 61.2083 589.13 61.2083C591.889 61.2083 594.719 60.6141 597.619 59.4257V63.8671C595.404 65.0152 592.614 65.5893 589.25 65.5893ZM653.636 65.5893C651.481 65.5893 649.507 65.1965 647.714 64.4109C645.942 63.6052 644.451 62.3766 643.243 60.7249H642.88C643.122 62.6586 643.243 64.4915 643.243 66.2237V79.8499H638.227V31.8712H642.306L643.001 36.4032H643.243C644.532 34.5904 646.032 33.2812 647.744 32.4755C649.457 31.6698 651.42 31.267 653.636 31.267C658.027 31.267 661.411 32.7676 663.788 35.7688C666.185 38.7699 667.383 42.9797 667.383 48.3979C667.383 53.8363 666.164 58.0662 663.727 61.0875C661.31 64.0887 657.946 65.5893 653.636 65.5893ZM652.911 35.5271C649.527 35.5271 647.08 36.4637 645.569 38.3369C644.058 40.2101 643.283 43.1912 643.243 47.28V48.3979C643.243 53.0507 644.018 56.3843 645.569 58.3985C647.12 60.3926 649.608 61.3896 653.032 61.3896C655.892 61.3896 658.128 60.2314 659.739 57.9151C661.371 55.5987 662.186 52.4062 662.186 48.3375C662.186 44.2083 661.371 41.046 659.739 38.8505C658.128 36.6349 655.852 35.5271 652.911 35.5271ZM694.923 60.2717L695.92 64.985H699.636V42.3855C699.636 38.5182 698.68 35.7083 696.766 33.956C694.873 32.2036 691.952 31.3274 688.004 31.3274C686.05 31.3274 684.097 31.5792 682.143 32.0827C680.209 32.5863 678.427 33.2812 676.795 34.1675L678.336 38.0045C681.821 36.3126 684.943 35.4666 687.702 35.4666C690.159 35.4666 691.942 36.091 693.05 37.3398C694.178 38.5685 694.742 40.482 694.742 43.0804V45.1349L689.122 45.3162C678.427 45.6384 673.079 49.1432 673.079 55.8304C673.079 58.9524 674.005 61.3594 675.858 63.0513C677.732 64.7433 680.31 65.5893 683.593 65.5893C686.05 65.5893 688.095 65.2267 689.726 64.5016C691.378 63.7563 693.03 62.3464 694.681 60.2717H694.923ZM691.932 58.8819C690.159 60.594 687.712 61.45 684.59 61.45C682.616 61.45 681.075 60.9767 679.967 60.03C678.88 59.0833 678.336 57.7036 678.336 55.8908C678.336 53.5744 679.212 51.8724 680.965 50.7848C682.737 49.6769 685.617 49.0525 689.606 48.9115L694.621 48.7V51.6912C694.621 54.7729 693.725 57.1698 691.932 58.8819ZM722.614 65.5893C717.82 65.5893 714.104 64.1189 711.465 61.1781C708.847 58.2172 707.538 54.0377 707.538 48.6396C707.538 43.1005 708.867 38.8203 711.526 35.799C714.205 32.7776 718.012 31.267 722.946 31.267C724.538 31.267 726.129 31.4382 727.72 31.7806C729.311 32.123 730.56 32.5259 731.467 32.9891L729.926 37.2492C728.818 36.8061 727.609 36.4435 726.3 36.1615C724.991 35.8594 723.833 35.7083 722.826 35.7083C716.098 35.7083 712.734 39.9986 712.734 48.5792C712.734 52.6479 713.55 55.7699 715.182 57.9453C716.833 60.1207 719.271 61.2083 722.493 61.2083C725.253 61.2083 728.083 60.6141 730.983 59.4257V63.8671C728.768 65.0152 725.978 65.5893 722.614 65.5893ZM740.637 61.1177C743.477 64.0987 747.344 65.5893 752.239 65.5893C754.475 65.5893 756.378 65.418 757.949 65.0756C759.54 64.7534 761.222 64.2095 762.995 63.4441V58.9725C759.51 60.4631 755.985 61.2083 752.42 61.2083C749.036 61.2083 746.408 60.2012 744.534 58.187C742.681 56.1728 741.704 53.222 741.604 49.3345H764.415V46.1621C764.415 41.6906 763.206 38.0952 760.789 35.376C758.372 32.6366 755.089 31.267 750.94 31.267C746.508 31.267 742.973 32.8381 740.335 35.9803C737.716 39.1224 736.407 43.3624 736.407 48.7C736.407 53.9974 737.817 58.1366 740.637 61.1177ZM744.504 38.065C746.096 36.3327 748.22 35.4666 750.879 35.4666C753.498 35.4666 755.512 36.3126 756.922 38.0045C758.332 39.6763 759.037 42.0934 759.037 45.2557H741.725C742.007 42.1941 742.933 39.7972 744.504 38.065ZM117.826 43.6775C117.826 27.8386 128.624 21.3534 139.613 21.3534C150.602 21.3534 161.4 27.8386 161.4 43.6775C161.4 59.5164 150.602 66.0016 139.613 66.0016C128.624 66.0016 117.826 59.5164 117.826 43.6775ZM151.872 43.6775C151.872 28.8987 142.98 27.5892 139.613 27.5892C136.247 27.5892 127.354 28.8987 127.354 43.6775C127.354 58.4563 136.247 59.7659 139.613 59.7659C142.98 59.7659 151.872 58.4563 151.872 43.6775ZM177.748 65.5028H168.728V21.8522H180.415L195.787 49.3521L198.137 55.2761H198.328L198.137 47.5437V21.8522H207.157V65.5028H195.469L179.971 36.9428L177.748 32.0789H177.557L177.748 39.8113V65.5028ZM216.057 65.5028H242.735V58.1446H225.077V21.8522H216.057V65.5028ZM251.5 47.6684L235.112 21.8522H245.53L254.676 37.1923L256.074 40.1855H256.264L257.789 37.1923L266.999 21.8522H276.527L260.52 47.7931V65.5028H251.5V47.6684ZM297.541 21.3534C286.553 21.3534 275.755 27.8386 275.755 43.6775C275.755 59.5164 286.553 66.0016 297.541 66.0016C308.53 66.0016 319.328 59.5164 319.328 43.6775C319.328 27.8386 308.53 21.3534 297.541 21.3534ZM297.541 27.5892C300.908 27.5892 309.801 28.8987 309.801 43.6775C309.801 58.4563 300.908 59.7659 297.541 59.7659C294.175 59.7659 285.282 58.4563 285.282 43.6775C285.282 28.8987 294.175 27.5892 297.541 27.5892ZM335.676 65.5028H326.656V21.8522H351.556V29.2105H335.676V39.8113H350.793V46.9825H335.676V65.5028ZM357.919 65.5028H366.939V46.9825H382.057V39.8113H366.939V29.2105H382.819V21.8522H357.919V65.5028ZM398.202 65.5028H389.183V21.8522H398.202V65.5028ZM439.567 56.7103C437.344 57.708 434.232 58.6434 430.294 58.6434C422.29 58.6434 415.049 54.3407 415.049 43.8022C415.049 34.885 420.956 28.7116 430.929 28.7116C434.295 28.7116 437.154 29.3352 439.758 30.3329L440.139 22.85C436.772 21.7899 433.787 21.3534 430.294 21.3534C416.319 21.3534 405.521 28.8987 405.521 43.9269C405.521 59.8282 417.59 66.0016 428.642 66.0016C432.199 66.0016 436.201 65.4404 440.139 64.1309L439.567 56.7103ZM473.669 65.5028H447.119V21.8522H473.669V29.5846H456.138V39.4372H472.081V46.6083H456.138V57.7704H473.669V65.5028Z" fill="#333333"/>
</svg>
