<svg width="2560" height="1440" viewBox="0 0 2560 1440" fill="none" xmlns="http://www.w3.org/2000/svg">
<g clip-path="url(#clip0_2330_141)">
<rect width="2560" height="1440" fill="#D9F4FF"/>
<g opacity="0.9">
<path d="M661.324 -496.323C706.935 -484.688 749.601 -463.512 778.271 -435.713L778.287 -435.697L778.303 -435.683L1495.97 220.582C1526.22 248.828 1537.18 277.492 1531.18 300.963C1525.2 324.415 1502.09 343.45 1462.46 351.991L1462.44 351.996L1462.42 352.002L517.947 584.249C478.341 592.778 430.177 589.848 384.565 578.212C339.648 566.754 297.367 546.896 268.274 521.421L266.898 520.203L-450.744 -136.039L-450.743 -136.039C-481.005 -164.289 -491.963 -192.956 -485.971 -216.43C-479.984 -239.882 -456.878 -258.917 -417.248 -267.459L-417.227 -267.464L-417.206 -267.469L527.274 -499.72L527.281 -499.721L527.289 -499.724C567.335 -510.008 615.718 -507.958 661.324 -496.323Z" stroke="white" stroke-width="3"/>
<path fill-rule="evenodd" clip-rule="evenodd" d="M265.898 521.322L-451.767 -134.943C-512.661 -191.787 -497.36 -251.726 -417.564 -268.925L526.916 -501.177C607.612 -521.901 721.499 -492.848 779.316 -436.789L1496.98 219.475C1557.87 276.319 1542.57 336.259 1462.78 353.458L518.298 585.709C438.502 602.908 324.615 573.855 265.898 521.322Z" fill="url(#paint0_linear_2330_141)"/>
</g>
<g opacity="0.9">
<g filter="url(#filter0_d_2330_141)">
<path d="M503.35 992.584C522.167 1016.64 536.111 1044.36 540.66 1069.86L540.662 1069.87L540.666 1069.89L668.609 1688.04L668.61 1688.04C673.801 1714.41 669.113 1733.24 657.819 1742.69C646.537 1752.14 628.195 1752.61 605.208 1741.14L605.183 1741.13L47.537 1482.66C24.5827 1471.21 1.3927 1450.55 -17.4225 1426.49C-35.9519 1402.8 -50.1708 1375.9 -55.7589 1351.41L-56.0184 1350.25L-183.961 732.103L-183.961 732.102C-189.151 705.733 -184.463 686.905 -173.169 677.451C-161.887 668.008 -143.546 667.536 -120.559 678.999L-120.534 679.011L437.112 937.478L437.12 937.482C460.92 948.22 484.536 968.527 503.35 992.584Z" stroke="white" stroke-width="2" shape-rendering="crispEdges"/>
</g>
<path opacity="0.18" fill-rule="evenodd" clip-rule="evenodd" d="M-56.9782 1350.48L-184.923 732.322C-195.367 679.284 -166.379 655.019 -120.126 678.083L437.519 936.55C485.477 958.187 532.453 1018.25 541.627 1069.67L669.572 1687.82C680.016 1740.86 651.028 1765.12 604.775 1742.06L47.1299 1483.59C0.877171 1460.53 -46.0984 1400.46 -56.9782 1350.48Z" fill="white"/>
</g>
<g opacity="0.9">
<g filter="url(#filter1_d_2330_141)">
<path d="M1596.1 799.723C1625.31 750.963 1664.22 709.073 1705.66 685.88L1705.68 685.866L2694.71 92.9955C2737.18 68.1406 2773.49 65.7726 2798.01 81.5258C2822.52 97.2715 2835.71 131.421 2831.25 180.687L2831.25 180.702L2831.25 180.717L2757.55 1361.65C2753.09 1410.9 2732.72 1465.85 2703.51 1514.61C2674.29 1563.38 2636.28 1605.87 2596.64 1630.22L2596.64 1630.23L1607.62 2223.09C1565.15 2247.94 1528.84 2250.31 1504.32 2234.56C1479.81 2218.81 1466.63 2184.66 1471.08 2135.4L1471.08 2135.38L1471.08 2135.37L1544.78 954.425L1544.78 954.414C1547.43 904.011 1566.89 848.481 1596.1 799.723Z" stroke="white" stroke-width="2" shape-rendering="crispEdges"/>
</g>
<path opacity="0.18" fill-rule="evenodd" clip-rule="evenodd" d="M2597.16 1631.1L1608.13 2223.97C1522.91 2273.85 1461.16 2234.18 1470.1 2135.29L1543.8 954.345C1549.11 853.124 1621.92 731.585 1705.17 684.988L2694.21 92.1173C2779.42 42.2359 2841.17 81.9077 2832.23 180.795L2758.53 1361.74C2749.59 1460.63 2676.78 1582.17 2597.16 1631.1Z" fill="white"/>
</g>
<rect x="148" y="728" width="1006" height="245" rx="24" fill="#FF6F3D"/>
<path d="M307.328 687H276.303L258.9 619.5C258.256 617.098 257.143 612.146 255.561 604.646C254.037 597.088 253.158 592.02 252.924 589.441C252.572 592.605 251.693 597.703 250.287 604.734C248.881 611.707 247.797 616.688 247.035 619.676L229.721 687H198.783L166 558.504H192.807L209.242 628.641C212.113 641.59 214.193 652.811 215.482 662.303C215.834 658.963 216.625 653.807 217.855 646.834C219.145 639.803 220.346 634.354 221.459 630.486L240.18 558.504H265.932L284.652 630.486C285.473 633.709 286.498 638.631 287.729 645.252C288.959 651.873 289.896 657.557 290.541 662.303C291.127 657.732 292.064 652.049 293.354 645.252C294.643 638.396 295.814 632.859 296.869 628.641L313.217 558.504H340.023L307.328 687ZM441.189 687H414.382V629.607C414.382 615.428 409.109 608.338 398.562 608.338C391.062 608.338 385.642 610.887 382.302 615.984C378.962 621.082 377.293 629.344 377.293 640.77V687H350.486V550.242H377.293V578.104C377.293 580.271 377.087 585.369 376.677 593.396L376.062 601.307H377.468C383.445 591.697 392.937 586.893 405.945 586.893C417.488 586.893 426.248 589.998 432.224 596.209C438.201 602.42 441.189 611.326 441.189 622.928V687ZM527.589 687L522.404 673.641H521.7C517.189 679.324 512.53 683.279 507.726 685.506C502.98 687.674 496.769 688.758 489.093 688.758C479.659 688.758 472.218 686.062 466.769 680.672C461.378 675.281 458.683 667.605 458.683 657.645C458.683 647.215 462.316 639.539 469.581 634.617C476.905 629.637 487.921 626.883 502.628 626.355L519.679 625.828V621.521C519.679 611.561 514.581 606.58 504.386 606.58C496.534 606.58 487.306 608.953 476.7 613.699L467.823 595.594C479.132 589.676 491.671 586.717 505.441 586.717C518.624 586.717 528.732 589.588 535.763 595.33C542.794 601.072 546.31 609.803 546.31 621.521V687H527.589ZM519.679 641.473L509.308 641.824C501.515 642.059 495.714 643.465 491.905 646.043C488.097 648.621 486.193 652.547 486.193 657.82C486.193 665.379 490.529 669.158 499.2 669.158C505.411 669.158 510.362 667.371 514.054 663.797C517.804 660.223 519.679 655.477 519.679 649.559V641.473ZM611.792 667.4C616.479 667.4 622.104 666.375 628.667 664.324V684.275C621.987 687.264 613.784 688.758 604.057 688.758C593.335 688.758 585.513 686.062 580.591 680.672C575.727 675.223 573.296 667.078 573.296 656.238V608.865H560.464V597.527L575.229 588.562L582.964 567.82H600.102V588.738H627.612V608.865H600.102V656.238C600.102 660.047 601.157 662.859 603.266 664.676C605.434 666.492 608.276 667.4 611.792 667.4ZM687.033 563.338C687.033 554.607 691.896 550.242 701.623 550.242C711.35 550.242 716.213 554.607 716.213 563.338C716.213 567.498 714.982 570.75 712.521 573.094C710.119 575.379 706.486 576.521 701.623 576.521C691.896 576.521 687.033 572.127 687.033 563.338ZM714.982 687H688.176V588.738H714.982V687ZM808.15 657.82C808.15 667.898 804.634 675.574 797.603 680.848C790.63 686.121 780.172 688.758 766.226 688.758C759.078 688.758 752.984 688.26 747.945 687.264C742.906 686.326 738.189 684.92 733.795 683.045V660.896C738.775 663.24 744.371 665.203 750.582 666.785C756.851 668.367 762.359 669.158 767.105 669.158C776.832 669.158 781.695 666.346 781.695 660.721C781.695 658.611 781.05 656.912 779.761 655.623C778.472 654.275 776.246 652.781 773.082 651.141C769.918 649.441 765.699 647.479 760.425 645.252C752.867 642.088 747.3 639.158 743.726 636.463C740.211 633.768 737.632 630.691 735.992 627.234C734.41 623.719 733.619 619.412 733.619 614.314C733.619 605.584 736.988 598.846 743.726 594.1C750.523 589.295 760.132 586.893 772.554 586.893C784.39 586.893 795.904 589.471 807.095 594.627L799.009 613.963C794.088 611.854 789.488 610.125 785.211 608.777C780.933 607.43 776.568 606.756 772.115 606.756C764.205 606.756 760.25 608.895 760.25 613.172C760.25 615.574 761.509 617.654 764.029 619.412C766.607 621.17 772.203 623.777 780.816 627.234C788.492 630.34 794.117 633.24 797.691 635.936C801.265 638.631 803.902 641.736 805.601 645.252C807.3 648.768 808.15 652.957 808.15 657.82Z" fill="#333333"/>
<path d="M288.783 843.521C288.783 864.674 282.748 880.875 270.678 892.125C258.666 903.375 241.293 909 218.559 909H182.172V780.504H222.514C243.49 780.504 259.779 786.041 271.381 797.115C282.982 808.189 288.783 823.658 288.783 843.521ZM260.482 844.225C260.482 816.627 248.295 802.828 223.92 802.828H209.418V886.5H221.107C247.357 886.5 260.482 872.408 260.482 844.225ZM331.062 859.693C331.062 869.42 332.644 876.773 335.808 881.754C339.031 886.734 344.246 889.225 351.453 889.225C358.601 889.225 363.728 886.764 366.834 881.842C369.998 876.861 371.58 869.479 371.58 859.693C371.58 849.967 369.998 842.672 366.834 837.809C363.67 832.945 358.484 830.514 351.277 830.514C344.129 830.514 338.972 832.945 335.808 837.809C332.644 842.613 331.062 849.908 331.062 859.693ZM399.002 859.693C399.002 875.689 394.783 888.199 386.345 897.223C377.908 906.246 366.16 910.758 351.101 910.758C341.668 910.758 333.347 908.707 326.14 904.605C318.933 900.445 313.396 894.498 309.529 886.764C305.662 879.029 303.728 870.006 303.728 859.693C303.728 843.639 307.918 831.158 316.296 822.252C324.675 813.346 336.453 808.893 351.629 808.893C361.062 808.893 369.382 810.943 376.589 815.045C383.796 819.146 389.334 825.035 393.201 832.711C397.068 840.387 399.002 849.381 399.002 859.693ZM457.452 910.758C426.866 910.758 411.573 893.971 411.573 860.396C411.573 843.697 415.734 830.953 424.054 822.164C432.374 813.316 444.298 808.893 459.825 808.893C471.193 808.893 481.388 811.119 490.411 815.572L482.501 836.314C478.282 834.615 474.357 833.238 470.724 832.184C467.091 831.07 463.458 830.514 459.825 830.514C445.88 830.514 438.907 840.416 438.907 860.221C438.907 879.439 445.88 889.049 459.825 889.049C464.982 889.049 469.757 888.375 474.152 887.027C478.546 885.621 482.941 883.453 487.335 880.523V903.463C482.999 906.217 478.605 908.121 474.152 909.176C469.757 910.23 464.191 910.758 457.452 910.758ZM584.546 873.316C584.546 884.918 580.356 894.059 571.977 900.738C563.657 907.418 552.055 910.758 537.173 910.758C523.462 910.758 511.333 908.18 500.786 903.023V877.711C509.458 881.578 516.782 884.303 522.759 885.885C528.794 887.467 534.302 888.258 539.282 888.258C545.259 888.258 549.829 887.115 552.993 884.83C556.216 882.545 557.827 879.146 557.827 874.635C557.827 872.115 557.124 869.889 555.718 867.955C554.311 865.963 552.231 864.059 549.477 862.242C546.782 860.426 541.245 857.525 532.866 853.541C525.014 849.85 519.126 846.305 515.2 842.906C511.274 839.508 508.139 835.553 505.796 831.041C503.452 826.529 502.28 821.256 502.28 815.221C502.28 803.854 506.118 794.918 513.794 788.414C521.528 781.91 532.192 778.658 545.786 778.658C552.466 778.658 558.823 779.449 564.858 781.031C570.952 782.613 577.309 784.84 583.93 787.711L575.141 808.893C568.286 806.08 562.602 804.117 558.091 803.004C553.638 801.891 549.243 801.334 544.907 801.334C539.751 801.334 535.796 802.535 533.042 804.938C530.288 807.34 528.911 810.475 528.911 814.342C528.911 816.744 529.468 818.854 530.581 820.67C531.694 822.428 533.452 824.156 535.854 825.855C538.315 827.496 544.087 830.484 553.169 834.82C565.18 840.562 573.413 846.334 577.866 852.135C582.319 857.877 584.546 864.938 584.546 873.316ZM656.092 910.758C644.549 910.758 635.496 906.568 628.934 898.189H627.528C628.465 906.393 628.934 911.139 628.934 912.428V952.242H602.127V810.738H623.924L627.704 823.482H628.934C635.204 813.756 644.491 808.893 656.795 808.893C668.397 808.893 677.479 813.375 684.041 822.34C690.604 831.305 693.885 843.756 693.885 859.693C693.885 870.182 692.332 879.293 689.227 887.027C686.18 894.762 681.815 900.65 676.131 904.693C670.448 908.736 663.768 910.758 656.092 910.758ZM648.182 830.338C641.561 830.338 636.727 832.389 633.68 836.49C630.633 840.533 629.051 847.242 628.934 856.617V859.518C628.934 870.064 630.487 877.623 633.592 882.193C636.756 886.764 641.737 889.049 648.534 889.049C660.545 889.049 666.551 879.146 666.551 859.342C666.551 849.674 665.057 842.438 662.069 837.633C659.139 832.77 654.51 830.338 648.182 830.338ZM774.836 909L769.65 895.641H768.947C764.436 901.324 759.777 905.279 754.973 907.506C750.227 909.674 744.016 910.758 736.34 910.758C726.906 910.758 719.465 908.062 714.016 902.672C708.625 897.281 705.93 889.605 705.93 879.645C705.93 869.215 709.562 861.539 716.828 856.617C724.152 851.637 735.168 848.883 749.875 848.355L766.926 847.828V843.521C766.926 833.561 761.828 828.58 751.633 828.58C743.781 828.58 734.553 830.953 723.947 835.699L715.07 817.594C726.379 811.676 738.918 808.717 752.688 808.717C765.871 808.717 775.979 811.588 783.01 817.33C790.041 823.072 793.557 831.803 793.557 843.521V909H774.836ZM766.926 863.473L756.555 863.824C748.762 864.059 742.961 865.465 739.152 868.043C735.344 870.621 733.439 874.547 733.439 879.82C733.439 887.379 737.775 891.158 746.447 891.158C752.658 891.158 757.609 889.371 761.301 885.797C765.051 882.223 766.926 877.477 766.926 871.559V863.473ZM857.545 910.758C826.959 910.758 811.666 893.971 811.666 860.396C811.666 843.697 815.826 830.953 824.146 822.164C832.466 813.316 844.39 808.893 859.918 808.893C871.285 808.893 881.48 811.119 890.504 815.572L882.593 836.314C878.375 834.615 874.449 833.238 870.816 832.184C867.183 831.07 863.55 830.514 859.918 830.514C845.972 830.514 839 840.416 839 860.221C839 879.439 845.972 889.049 859.918 889.049C865.074 889.049 869.849 888.375 874.244 887.027C878.638 885.621 883.033 883.453 887.427 880.523V903.463C883.091 906.217 878.697 908.121 874.244 909.176C869.849 910.23 864.283 910.758 857.545 910.758ZM947.372 827.965C941.689 827.965 937.236 829.781 934.013 833.414C930.79 836.988 928.945 842.086 928.476 848.707H966.093C965.976 842.086 964.247 836.988 960.907 833.414C957.568 829.781 953.056 827.965 947.372 827.965ZM951.152 910.758C935.331 910.758 922.968 906.393 914.062 897.662C905.155 888.932 900.702 876.568 900.702 860.572C900.702 844.107 904.804 831.393 913.007 822.428C921.269 813.404 932.665 808.893 947.196 808.893C961.083 808.893 971.894 812.848 979.628 820.758C987.362 828.668 991.23 839.596 991.23 853.541V866.549H927.861C928.154 874.166 930.409 880.113 934.628 884.391C938.847 888.668 944.765 890.807 952.382 890.807C958.3 890.807 963.896 890.191 969.169 888.961C974.443 887.73 979.95 885.768 985.693 883.072V903.814C981.005 906.158 975.995 907.887 970.663 909C965.331 910.172 958.827 910.758 951.152 910.758ZM1062.78 866.373V859.869C1062.78 854.244 1063.98 849.352 1066.38 845.191C1068.79 841.031 1073.18 836.607 1079.57 831.92C1085.72 827.525 1089.76 823.951 1091.7 821.197C1093.69 818.443 1094.68 815.367 1094.68 811.969C1094.68 808.16 1093.28 805.26 1090.47 803.268C1087.65 801.275 1083.73 800.279 1078.69 800.279C1069.9 800.279 1059.88 803.15 1048.63 808.893L1039.05 789.645C1052.12 782.32 1065.97 778.658 1080.62 778.658C1092.69 778.658 1102.27 781.559 1109.36 787.359C1116.51 793.16 1120.08 800.895 1120.08 810.562C1120.08 817.008 1118.62 822.574 1115.69 827.262C1112.76 831.949 1107.19 837.223 1098.99 843.082C1093.37 847.242 1089.79 850.406 1088.27 852.574C1086.8 854.742 1086.07 857.584 1086.07 861.1V866.373H1062.78ZM1059.97 896.432C1059.97 891.51 1061.29 887.789 1063.92 885.27C1066.56 882.75 1070.4 881.49 1075.44 881.49C1080.3 881.49 1084.05 882.779 1086.69 885.357C1089.38 887.936 1090.73 891.627 1090.73 896.432C1090.73 901.061 1089.38 904.723 1086.69 907.418C1083.99 910.055 1080.24 911.373 1075.44 911.373C1070.51 911.373 1066.71 910.084 1064.01 907.506C1061.31 904.869 1059.97 901.178 1059.97 896.432Z" fill="white"/>
<g filter="url(#filter2_d_2330_141)">
<path d="M1898.85 870.448C1897.5 865.085 1900.75 859.641 1906.11 858.286L2187.69 787.183L2260.65 830.729L2361.18 1228.82C2362.53 1234.18 2359.28 1239.63 2353.92 1240.98L2023.8 1324.34C2018.44 1325.7 2012.99 1322.45 2011.64 1317.08L1898.85 870.448Z" fill="white"/>
<path d="M1907.34 863.141L2186.9 792.546L2256.31 833.965L2356.32 1230.05C2357 1232.73 2355.38 1235.45 2352.7 1236.13L2022.57 1319.49C2019.89 1320.16 2017.17 1318.54 2016.49 1315.86L1903.71 869.222C1903.03 866.541 1904.65 863.818 1907.34 863.141Z" stroke="#AAAAAA" stroke-width="10.0143"/>
</g>
<path d="M2187.69 787.184L2260.65 830.73L2207.25 844.215C2204.57 844.892 2201.85 843.267 2201.17 840.586L2187.69 787.184Z" fill="#AAAAAA"/>
<path d="M2076.25 954.761C2073.54 944.036 2061.56 937.812 2049.5 940.858C2037.43 943.905 2029.85 955.069 2032.55 965.794" stroke="#AAAAAA" stroke-width="10.0143" stroke-linecap="round"/>
<path d="M2182.53 927.921C2179.82 917.196 2167.85 910.972 2155.78 914.019C2143.71 917.065 2136.13 928.229 2138.84 938.954" stroke="#AAAAAA" stroke-width="10.0143" stroke-linecap="round"/>
<path d="M2087.99 1005.2C2099.03 1017.01 2113.37 1022.85 2127.01 1019.4C2140.64 1015.96 2150.5 1004.02 2154.61 988.377C2155.51 984.938 2152.29 982.032 2148.85 982.902L2090.46 997.646C2087.01 998.517 2085.56 1002.6 2087.99 1005.2Z" fill="#AAAAAA"/>
<rect x="2005.07" y="1107" width="40.0571" height="40.0571" rx="10.0143" transform="rotate(-14.172 2005.07 1107)" fill="#27ABA3"/>
<rect x="2063.32" y="1092.29" width="210.3" height="40.0571" rx="10.0143" transform="rotate(-14.172 2063.32 1092.29)" fill="#E2E2E2"/>
<rect x="2079.26" y="1155.41" width="210.3" height="40.0571" rx="10.0143" transform="rotate(-14.172 2079.26 1155.41)" fill="#E2E2E2"/>
<rect x="2095.2" y="1218.52" width="210.3" height="40.0571" rx="10.0143" transform="rotate(-14.172 2095.2 1218.52)" fill="#94D5D2"/>
<rect x="2021" y="1170.12" width="40.0571" height="40.0571" rx="10.0143" transform="rotate(-14.172 2021 1170.12)" fill="#27ABA3"/>
<path fill-rule="evenodd" clip-rule="evenodd" d="M2186.54 1207.88L2186.7 1205.99C2187.91 1200.75 2189.14 1193.04 2187.37 1188.56C2186.79 1186.24 2184.56 1184.95 2179.19 1186.31C2176.8 1186.91 2174.7 1188.67 2173.21 1190.28C2171.71 1191.9 2170.81 1193.36 2170.05 1195.4C2169.89 1197.29 2169.74 1199.17 2170.32 1201.49C2170.91 1203.81 2172.69 1205.83 2174.46 1207.84C2175.21 1208.27 2176.84 1209.71 2179.07 1211C2183.68 1214.15 2189.91 1218.74 2194.22 1223.2C2196.16 1220.86 2197.52 1218.67 2198.42 1217.21C2199.77 1215.02 2200.67 1213.56 2202.75 1214.26C2205.43 1214.82 2206.31 1218.3 2207.34 1222.35C2207.92 1224.67 2207.91 1227.14 2208.51 1226.99C2208.51 1226.99 2208.66 1225.1 2209.59 1218.7C2209.44 1218.12 2209.15 1216.96 2209 1216.38C2209.31 1215.07 2209.61 1213.76 2209.92 1212.45C2211.88 1207.64 2214.26 1207.04 2215.43 1211.68C2216.49 1208.33 2218 1204.25 2218.16 1202.36C2216.16 1184.37 2215.95 1165.93 2220.59 1161.68C2223.28 1159.76 2225.22 1159.89 2226.85 1161.33C2231.15 1165.79 2225.65 1194.3 2224.58 1200.12L2223.83 1202.16C2224.11 1205.79 2224.39 1209.42 2225.27 1212.89C2225.72 1212.16 2226.17 1211.43 2227.36 1211.13C2228.86 1209.52 2230.5 1208.49 2232.15 1207.46C2235.89 1204.66 2239.63 1201.87 2241.73 1197.64C2242.31 1202.42 2241.99 1206.2 2235.71 1211.49C2234.06 1212.52 2232.56 1214.13 2231.52 1215.01C2229.42 1216.77 2228.22 1219.54 2227.61 1222.16L2227.75 1222.74L2228.18 1226.95C2229.04 1235.37 2230.5 1241.16 2227.51 1241.91C2225.72 1242.37 2223.8 1239.77 2222.19 1233.4C2221.46 1230.5 2221.18 1226.87 2222.09 1222.94L2221.23 1214.53C2219.58 1218.03 2217.78 1220.95 2215.24 1220.97C2212.82 1228.98 2210.27 1231.47 2208.34 1231.35C2205.66 1230.79 2204.04 1226.88 2203.01 1222.83C2202.87 1222.25 2202.72 1221.67 2202.57 1221.09C2201.67 1222.55 2200.32 1224.74 2198.22 1226.5C2201.19 1230.69 2201.61 1234.89 2199.36 1238.54C2196.21 1243.66 2190.24 1245.16 2185.77 1245.06C2183.23 1245.08 2181 1243.8 2179.37 1242.36C2177.74 1240.92 2176.56 1238.75 2177.16 1236.14C2177.77 1233.52 2181.37 1230.14 2187.64 1227.33C2188.83 1227.02 2189.28 1226.29 2190.48 1225.99C2186.32 1222.11 2180.68 1217.37 2176.22 1214.8C2173.84 1212.93 2172.21 1211.49 2171.47 1211.07C2168.8 1208.04 2166.87 1205.45 2165.55 1202.7C2164.81 1199.8 2164.68 1196.75 2165.14 1193.55C2165.75 1190.93 2167.55 1188.01 2169.65 1186.25C2171.6 1183.91 2174.43 1182.58 2177.87 1181.09C2186.68 1178.25 2191.14 1180.83 2193.2 1186.47C2194.95 1193.42 2194 1204.76 2186.54 1207.88ZM2194.45 1236.7C2195.35 1235.24 2194.77 1232.92 2193.58 1230.76C2192.54 1231.64 2190.75 1232.09 2189.7 1232.97C2184.47 1234.91 2182.52 1237.25 2182.22 1238.56C2182.37 1239.14 2182.37 1239.14 2182.51 1239.72C2183.26 1240.14 2184.6 1240.42 2185.94 1240.7C2189.07 1240.53 2192.65 1239.62 2194.45 1236.7ZM2223.48 1180.67C2223.95 1175 2224.57 1169.92 2224.44 1166.87C2223.23 1169.64 2223.21 1174.58 2223.48 1180.67Z" fill="#333333"/>
<path d="M1961.1 1095.77C1961.18 1116.95 1949.29 1152.25 1924.48 1160.08C1908.87 1165.01 1896.49 1162.07 1891.32 1159.64" stroke="#AAAAAA" stroke-width="10.0143" stroke-linecap="round"/>
<path d="M1868.03 1163.34C1869.65 1165.58 1873.7 1168.34 1878.6 1168.09C1885.16 1167.76 1888.49 1163.33 1891.33 1159.66" stroke="#AAAAAA" stroke-width="10.0143" stroke-linecap="round"/>
<path d="M2302.03 1005.55C2323.16 1004.13 2357.54 989.776 2363.6 964.47C2367.41 948.558 2363.6 936.417 2360.82 931.433" stroke="#AAAAAA" stroke-width="10.0143" stroke-linecap="round"/>
<path d="M2362.84 907.922C2365.19 909.381 2368.24 913.224 2368.33 918.133C2368.46 924.698 2364.28 928.334 2360.81 931.423" stroke="#AAAAAA" stroke-width="10.0143" stroke-linecap="round"/>
<path d="M2491.48 1098.66C2492.35 1101.24 2490.16 1103.82 2487.48 1103.37L2458.23 1098.53C2455.47 1098.07 2454.27 1094.77 2456.08 1092.64L2475.83 1069.4C2477.65 1067.27 2481.09 1067.93 2481.99 1070.58L2491.48 1098.66Z" fill="#F36700"/>
<path d="M1903.52 770.11C1904.39 772.686 1902.2 775.26 1899.52 774.816L1870.28 769.972C1867.51 769.514 1866.31 766.218 1868.12 764.085L1887.88 740.848C1889.69 738.715 1893.14 739.376 1894.03 742.029L1903.52 770.11Z" fill="#F36700"/>
<path d="M1757.11 1111.95C1755.08 1113.76 1751.85 1112.76 1751.21 1110.12L1744.21 1081.31C1743.54 1078.59 1746.1 1076.19 1748.78 1077.02L1777.9 1086.09C1780.57 1086.93 1781.31 1090.36 1779.22 1092.22L1757.11 1111.95Z" fill="#95C03D"/>
<path d="M2350.84 684.879C2351.71 687.455 2349.52 690.03 2346.84 689.586L2317.59 684.741C2314.83 684.284 2313.63 680.988 2315.44 678.855L2335.19 655.618C2337.01 653.485 2340.46 654.146 2341.35 656.798L2350.84 684.879Z" fill="#95C03D"/>
<path d="M2493.2 772.526C2493.44 775.234 2490.71 777.223 2488.21 776.162L2460.92 764.591C2458.34 763.498 2457.94 760.011 2460.21 758.363L2484.86 740.411C2487.13 738.763 2490.32 740.214 2490.57 743.003L2493.2 772.526Z" fill="#5FC1E8"/>
<circle cx="2251.78" cy="221.136" r="93.1045" transform="rotate(-5.99751 2251.78 221.136)" stroke="#9ADAF3" stroke-width="7.75871" stroke-linecap="round" stroke-dasharray="19.4 27.16"/>
<circle cx="2042.4" cy="344.552" r="162.933" transform="rotate(-5.99751 2042.4 344.552)" stroke="#9ADAF3" stroke-width="7.75871" stroke-linecap="round" stroke-dasharray="19.4 27.16"/>
<g filter="url(#filter3_d_2330_141)">
<path d="M2022.12 225.763C2021.67 221.502 2024.77 217.684 2029.03 217.236L2214.22 197.78L2256.85 232.308L2284.41 494.66C2284.86 498.922 2281.77 502.739 2277.51 503.187L2061.45 525.886C2057.19 526.333 2053.38 523.242 2052.93 518.98L2022.12 225.763Z" fill="white"/>
<path d="M2029.43 221.094L2213.02 201.806L2253.16 234.311L2280.56 495.066C2280.78 497.196 2279.23 499.105 2277.1 499.329L2061.05 522.027C2058.92 522.251 2057.01 520.706 2056.79 518.575L2025.98 225.358C2025.76 223.294 2027.21 221.438 2029.23 221.121L2029.43 221.094Z" stroke="#AAAAAA" stroke-width="7.75871"/>
</g>
<path d="M2232.11 374.867L2232.06 383.284L2240.25 380.047L2241.59 385.665L2233.96 387.015L2239.71 393.2L2234.86 396.474L2230.59 389.769L2228.24 397.125L2222.62 394.995L2226.91 387.756L2219.21 387.971L2219.49 382.227L2227.99 383.711L2226.19 375.489L2232.11 374.867Z" fill="#CCCCCC"/>
<path d="M2195.31 378.73L2195.26 387.147L2203.44 383.91L2204.79 389.528L2197.16 390.878L2202.91 397.063L2198.06 400.337L2193.79 393.632L2191.43 400.988L2185.81 398.858L2190.11 391.619L2182.4 391.834L2182.69 386.09L2191.19 387.574L2189.39 379.353L2195.31 378.73Z" fill="#CCCCCC"/>
<path d="M2158.51 382.598L2158.46 391.014L2166.64 387.777L2167.99 393.396L2160.36 394.746L2166.1 400.93L2161.26 404.204L2156.99 397.499L2154.63 404.855L2149.01 402.726L2153.3 395.487L2145.6 395.702L2145.89 389.957L2154.39 391.442L2152.59 383.22L2158.51 382.598Z" fill="#CCCCCC"/>
<path d="M2121.71 386.461L2121.65 394.877L2129.84 391.64L2131.18 397.259L2123.55 398.609L2129.3 404.793L2124.46 408.068L2120.19 401.363L2117.83 408.718L2112.21 406.589L2116.5 399.35L2108.8 399.565L2109.09 393.821L2117.58 395.305L2115.78 387.083L2121.71 386.461Z" fill="#CCCCCC"/>
<path d="M2084.9 390.332L2084.85 398.748L2093.03 395.512L2094.38 401.13L2086.75 402.48L2092.5 408.664L2087.65 411.939L2083.38 405.234L2081.02 412.59L2075.41 410.46L2079.7 403.221L2071.99 403.436L2072.28 397.692L2080.78 399.176L2078.98 390.954L2084.9 390.332Z" fill="#CCCCCC"/>
<path d="M2236.21 413.898L2236.16 422.315L2244.35 419.078L2245.69 424.696L2238.06 426.046L2243.81 432.231L2238.96 435.505L2234.69 428.8L2232.34 436.156L2226.72 434.026L2231.01 426.787L2223.31 427.002L2223.59 421.258L2232.09 422.742L2230.29 414.521L2236.21 413.898Z" fill="#CCCCCC"/>
<path d="M2199.41 417.766L2199.36 426.182L2207.54 422.945L2208.89 428.564L2201.26 429.914L2207.01 436.098L2202.16 439.372L2197.89 432.667L2195.53 440.023L2189.92 437.893L2194.21 430.655L2186.5 430.87L2186.79 425.125L2195.29 426.61L2193.49 418.388L2199.41 417.766Z" fill="#CCCCCC"/>
<path d="M2162.61 421.633L2162.56 430.049L2170.74 426.812L2172.09 432.431L2164.46 433.781L2170.2 439.965L2165.36 443.24L2161.09 436.534L2158.73 443.89L2153.11 441.761L2157.4 434.522L2149.7 434.737L2149.99 428.993L2158.49 430.477L2156.69 422.255L2162.61 421.633Z" fill="#CCCCCC"/>
<path d="M2125.81 425.5L2125.75 433.916L2133.94 430.68L2135.28 436.298L2127.65 437.648L2133.4 443.832L2128.56 447.107L2124.29 440.402L2121.93 447.757L2116.31 445.628L2120.6 438.389L2112.9 438.604L2113.19 432.86L2121.68 434.344L2119.88 426.122L2125.81 425.5Z" fill="#CCCCCC"/>
<path d="M2089 429.363L2088.95 437.78L2097.14 434.543L2098.48 440.161L2090.85 441.511L2096.6 447.696L2091.75 450.97L2087.48 444.265L2085.12 451.621L2079.51 449.491L2083.8 442.252L2076.1 442.467L2076.38 436.723L2084.88 438.207L2083.08 429.986L2089 429.363Z" fill="#CCCCCC"/>
<path d="M2240.32 452.934L2240.26 461.35L2248.45 458.113L2249.79 463.731L2242.16 465.082L2247.91 471.266L2243.07 474.54L2238.8 467.835L2236.44 475.191L2230.82 473.061L2235.11 465.823L2227.41 466.038L2227.7 460.293L2236.19 461.778L2234.39 453.556L2240.32 452.934Z" fill="#CCCCCC"/>
<path d="M2203.51 456.797L2203.46 465.213L2211.64 461.976L2212.99 467.595L2205.36 468.945L2211.11 475.129L2206.26 478.404L2201.99 471.698L2199.63 479.054L2194.02 476.925L2198.31 469.686L2190.6 469.901L2190.89 464.157L2199.39 465.641L2197.59 457.419L2203.51 456.797Z" fill="#CCCCCC"/>
<path d="M2166.71 460.664L2166.66 469.081L2174.84 465.844L2176.19 471.462L2168.56 472.812L2174.3 478.996L2169.46 482.271L2165.19 475.566L2162.83 482.922L2157.21 480.792L2161.5 473.553L2153.8 473.768L2154.09 468.024L2162.59 469.508L2160.79 461.286L2166.71 460.664Z" fill="#CCCCCC"/>
<path d="M2129.91 464.527L2129.85 472.944L2138.04 469.707L2139.38 475.325L2131.75 476.675L2137.5 482.86L2132.66 486.134L2128.39 479.429L2126.03 486.785L2120.41 484.655L2124.7 477.416L2117 477.631L2117.29 471.887L2125.78 473.371L2123.98 465.15L2129.91 464.527Z" fill="#CCCCCC"/>
<path d="M2093.1 468.398L2093.05 476.815L2101.24 473.578L2102.58 479.196L2094.95 480.546L2100.7 486.731L2095.85 490.005L2091.58 483.3L2089.23 490.656L2083.61 488.526L2087.9 481.287L2080.2 481.502L2080.48 475.758L2088.98 477.242L2087.18 469.021L2093.1 468.398Z" fill="#CCCCCC"/>
<path d="M2039.15 350.75C2034 366.715 2015.47 386.756 1994.98 386.645C1982.1 386.575 1973.56 381.365 1970.29 378.288" stroke="#AAAAAA" stroke-width="7.75871" stroke-linecap="round"/>
<path d="M1951.95 375.414C1952.61 377.497 1954.96 380.557 1958.69 381.555C1963.68 382.889 1967.26 380.365 1970.28 378.283" stroke="#AAAAAA" stroke-width="7.75871" stroke-linecap="round"/>
<path d="M2264.29 334.833C2277.74 344.855 2303.16 352.989 2319.79 341.021C2330.25 333.495 2334.19 324.301 2335.07 319.899" stroke="#AAAAAA" stroke-width="7.75871" stroke-linecap="round"/>
<path d="M2348.36 306.942C2349.03 309.022 2348.89 312.877 2346.42 315.852C2343.13 319.831 2338.75 319.85 2335.08 319.909" stroke="#AAAAAA" stroke-width="7.75871" stroke-linecap="round"/>
<path fill-rule="evenodd" clip-rule="evenodd" d="M2143.25 264.894C2149.34 263.845 2164.7 261.49 2182.71 259.598C2201.39 257.635 2213.15 257.995 2216.69 258.419C2218.05 271.427 2215.66 299.19 2203 302.899C2190.27 306.627 2168.21 308.945 2162.16 301.212C2157.31 295.026 2151.23 280.441 2148.79 273.922L2144.04 272.329L2139.71 274.876C2138.69 281.758 2135.77 297.289 2132.31 304.347C2127.99 313.17 2105.94 315.487 2092.72 314.485C2079.56 313.488 2071.45 286.83 2070.08 273.822C2073.46 272.67 2084.88 269.876 2103.56 267.913C2121.57 266.021 2137.09 265.132 2143.25 264.894Z" fill="#AAAAAA"/>
<path d="M2210.76 202.043L2253.4 236.571L2218.68 240.219C2216.55 240.443 2214.64 238.897 2214.41 236.766L2210.76 202.043Z" fill="#AAAAAA"/>
<path d="M1932.7 535.575L1975.34 504.599L1979.13 480.679L1934.48 419.208C1933.22 417.475 1930.79 417.09 1929.06 418.349L1875.7 457.111C1873.97 458.37 1873.58 460.797 1874.84 462.53L1927.29 534.716C1928.54 536.45 1930.97 536.834 1932.7 535.575Z" fill="white" stroke="#9ADAF3" stroke-width="7.75871"/>
<path d="M1975.79 509.07L1980.94 476.558L1962.11 490.239L1975.79 509.07Z" fill="#9ADAF3"/>
<path d="M2141.92 252.179C2163.62 249.899 2183.44 250.831 2197.36 254.154L2088.1 265.632C2101.03 259.489 2120.22 254.459 2141.92 252.179Z" fill="white"/>
<path d="M2442.85 220.563L2451.38 227.468" stroke="#FF6F3D" stroke-width="7.75871" stroke-linecap="round"/>
<path d="M2476.96 248.184L2468.43 241.278" stroke="#FF6F3D" stroke-width="7.75871" stroke-linecap="round"/>
<path d="M2473.72 217.32L2466.81 225.847" stroke="#FF6F3D" stroke-width="7.75871" stroke-linecap="round"/>
<path d="M2446.1 251.426L2453 242.899" stroke="#FF6F3D" stroke-width="7.75871" stroke-linecap="round"/>
<path d="M2346.43 82.4648L2354.96 89.3704" stroke="#5FC1E8" stroke-width="7.75871" stroke-linecap="round"/>
<path d="M2380.54 110.086L2372.01 103.18" stroke="#5FC1E8" stroke-width="7.75871" stroke-linecap="round"/>
<path d="M2377.29 79.2227L2370.39 87.7496" stroke="#5FC1E8" stroke-width="7.75871" stroke-linecap="round"/>
<path d="M2349.67 113.328L2356.58 104.801" stroke="#5FC1E8" stroke-width="7.75871" stroke-linecap="round"/>
<path d="M1909.25 116.699L1917.77 123.605" stroke="#95C03D" stroke-width="7.75871" stroke-linecap="round"/>
<path d="M1943.35 144.32L1934.83 137.415" stroke="#95C03D" stroke-width="7.75871" stroke-linecap="round"/>
<path d="M1940.11 113.457L1933.21 121.984" stroke="#95C03D" stroke-width="7.75871" stroke-linecap="round"/>
<path d="M1912.49 147.563L1919.39 139.036" stroke="#95C03D" stroke-width="7.75871" stroke-linecap="round"/>
<path d="M2138.45 330.561C2138.45 330.561 2153.24 331.695 2161.6 328.129C2166.27 326.135 2172.57 321.125 2172.57 321.125" stroke="#AAAAAA" stroke-width="7.75871" stroke-linecap="round"/>
<path fill-rule="evenodd" clip-rule="evenodd" d="M1937.4 245.338C1927.3 236.99 1913.51 236.449 1903.13 242.996L1851.6 202.042C1849.78 200.536 1847.12 200.808 1845.65 202.653L1843.01 205.986C1841.55 207.823 1838.49 212.174 1840.32 213.68L1844.88 217.397L1836.37 228.109C1834.91 229.954 1835.2 232.665 1837.03 234.172L1842.91 239.031C1844.73 240.537 1847.37 240.245 1848.84 238.407L1857.94 228.063L1891.97 255.838C1886.42 268.056 1889.53 283.08 1900.35 292.02C1913.1 302.559 1931.73 300.651 1941.97 287.76C1952.2 274.869 1950.15 255.87 1937.4 245.338ZM1917.97 254.421C1910.52 255.204 1905.13 262.006 1905.92 269.605C1906.72 277.21 1913.42 282.735 1920.87 281.953C1928.32 281.169 1933.72 274.375 1932.92 266.769C1932.12 259.17 1925.43 253.638 1917.97 254.421Z" fill="#FF6F3D"/>
<path d="M2409.26 384.799C2414.49 373.055 2428.25 367.774 2439.99 373.003V373.003C2451.73 378.232 2457.01 391.991 2451.78 403.735L2442.32 424.998L2399.79 406.062L2409.26 384.799Z" stroke="#9ADAF3" stroke-width="7.75871"/>
<path d="M2429.38 474.444L2371.69 448.756C2368.05 447.133 2366.27 443.188 2367.72 439.937L2387.73 394.999C2389.18 391.749 2393.3 390.431 2396.94 392.054L2454.63 417.741C2458.27 419.364 2460.05 423.309 2458.61 426.56L2438.6 471.498C2437.15 474.749 2433.03 476.066 2429.38 474.444Z" fill="white" stroke="#9ADAF3" stroke-width="7.75871"/>
<circle cx="2416.32" cy="426.162" r="7.75871" transform="rotate(24.0025 2416.32 426.162)" fill="#9ADAF3"/>
<path d="M2411.2 428.125L2418.28 431.281L2411.97 445.457C2411.1 447.414 2408.81 448.294 2406.85 447.423C2404.89 446.551 2404.01 444.258 2404.88 442.301L2411.2 428.125Z" fill="#9ADAF3"/>
<path fill-rule="evenodd" clip-rule="evenodd" d="M254.166 357.207L166.55 316.909C159.086 313.391 159.086 307.954 166.55 304.756L197.053 290.684L253.841 316.909C261.305 320.427 273.312 320.427 280.45 316.909L337.238 290.684L367.742 304.756C375.205 308.274 375.205 313.711 367.742 316.909L280.126 357.207C273.312 360.405 261.305 360.405 254.166 357.207Z" fill="#FF6F3D"/>
<path fill-rule="evenodd" clip-rule="evenodd" d="M254.166 307.633L166.55 267.335C159.086 263.818 159.086 258.381 166.55 255.182L196.404 241.43L254.166 267.975C261.629 271.493 273.636 271.493 280.775 267.975L338.536 241.43L368.39 255.182C375.854 258.7 375.854 264.137 368.39 267.335L280.775 307.633C273.311 311.151 261.305 311.151 254.166 307.633Z" fill="#95C038"/>
<path fill-rule="evenodd" clip-rule="evenodd" d="M254.166 259.341L166.55 219.043C159.086 215.524 159.086 210.088 166.55 206.889L254.166 166.592C261.629 163.074 273.636 163.074 280.775 166.592L368.39 206.889C375.854 210.408 375.854 215.844 368.39 219.043L280.775 259.341C273.311 262.539 261.305 262.539 254.166 259.341Z" fill="#5DC0E8"/>
<path d="M427.54 261.382C427.54 244.715 432.371 232.137 442.355 223.961C452.017 215.471 463.611 211.383 476.816 211.383C490.021 211.383 501.293 215.471 510.955 223.961C520.617 232.452 525.448 244.715 525.448 261.696C525.448 278.362 520.617 290.941 510.955 299.117C501.293 307.607 489.699 311.695 476.816 311.695C463.611 311.695 452.339 307.607 442.355 299.117C432.371 290.626 427.54 278.048 427.54 261.382ZM448.796 261.382C448.796 273.017 451.051 281.192 455.237 286.538C459.746 291.884 464.578 295.343 469.731 296.601C471.019 296.915 471.985 297.23 473.273 297.23C474.239 297.23 475.528 297.545 476.494 297.545C477.782 297.545 478.748 297.544 480.037 297.23C481.325 297.23 482.291 296.915 483.579 296.601C488.733 295.343 493.563 291.884 497.75 286.538C501.937 281.192 504.192 272.702 504.192 261.696C504.192 250.375 501.937 242.2 497.75 236.854C493.563 231.508 488.733 228.049 483.579 226.791C482.291 226.477 481.003 226.162 480.037 226.162C478.748 226.162 477.782 225.848 476.494 225.848C475.206 225.848 474.239 225.848 473.273 226.162C472.307 226.162 471.019 226.477 469.731 226.791C464.578 228.049 459.746 231.508 455.237 236.854C451.051 241.571 448.796 250.061 448.796 261.382Z" fill="#333333"/>
<path d="M536.077 212.328H562.486L597.272 273.962L602.424 287.483H602.745L602.424 269.874V212.328H622.714V310.439H596.302L561.52 246.289L556.367 235.283H556.045L556.367 252.579V310.439H536.077V212.328Z" fill="#333333"/>
<path d="M643.648 212.328H663.939V293.772H703.872V310.439H643.648V212.328Z" fill="#333333"/>
<path d="M691.312 212.328H714.824L735.436 246.604L738.658 253.522H739.301L742.523 246.604L763.457 212.328H785.035L748.64 270.503V310.439H728.35V270.188L691.312 212.328Z" fill="#333333"/>
<path d="M782.456 261.382C782.456 244.715 787.291 232.137 797.273 223.961C806.934 215.471 818.529 211.383 831.733 211.383C844.941 211.383 856.21 215.471 865.875 223.961C875.536 232.452 880.366 244.715 880.366 261.696C880.366 278.362 875.536 290.941 865.875 299.117C856.21 307.607 844.619 311.695 831.733 311.695C818.529 311.695 807.256 307.607 797.273 299.117C787.613 290.626 782.456 278.048 782.456 261.382ZM803.717 261.382C803.717 273.017 805.969 281.192 810.155 286.538C814.664 291.884 819.173 295.343 824.651 296.601C825.938 296.915 826.903 297.23 828.194 297.23C829.159 297.23 830.446 297.544 831.411 297.544C832.702 297.544 833.668 297.544 834.955 297.23C836.246 297.23 837.211 296.915 838.498 296.601C843.65 295.343 848.48 291.884 852.671 286.538C856.858 281.192 859.11 272.702 859.11 261.696C859.11 250.375 856.858 242.2 852.671 236.854C848.48 231.508 843.65 228.049 838.498 226.791C837.211 226.477 835.92 226.162 834.955 226.162C833.668 226.162 832.702 225.848 831.411 225.848C830.124 225.848 829.159 225.848 828.194 226.162C827.224 226.162 825.938 226.477 824.651 226.791C819.494 228.049 814.664 231.508 810.155 236.854C805.969 241.571 803.717 250.061 803.717 261.382Z" fill="#333333"/>
<path d="M894.54 212.328H950.577V228.68H914.826V252.579H948.968V269.245H914.826V310.439H894.54V212.328Z" fill="#333333"/>
<path d="M965.715 212.328H1021.76V228.68H986.006V252.579H1020.14V269.245H986.006V310.439H965.715V212.328Z" fill="#333333"/>
<path d="M1033.67 310.439V212.328H1053.96V310.439H1033.67Z" fill="#333333"/>
<path d="M1143.37 214.527V231.508C1139.82 230.25 1136.28 229.307 1132.41 228.678C1128.55 228.049 1124.04 227.734 1119.53 227.734C1108.9 227.734 1100.85 230.879 1095.05 237.483C1089.26 243.772 1086.36 251.948 1086.36 261.696C1086.36 271.13 1088.93 278.991 1094.41 285.28C1099.88 291.57 1107.61 295.029 1117.6 295.029C1121.14 295.029 1124.68 294.714 1128.87 294.4C1133.06 293.771 1137.24 292.827 1141.75 290.941L1143.04 307.607C1142.4 307.921 1141.43 308.236 1140.47 308.55C1139.18 308.865 1137.89 309.179 1136.28 309.494C1133.7 310.123 1130.48 310.437 1126.62 311.066C1122.75 311.38 1118.89 311.695 1114.7 311.695C1114.06 311.695 1113.41 311.695 1113.09 311.695C1112.45 311.695 1111.8 311.695 1111.48 311.695C1099.88 311.066 1089.26 306.663 1079.59 299.117C1069.93 291.255 1065.1 278.991 1065.1 262.64C1065.1 246.602 1069.93 234.024 1079.27 225.219C1088.61 216.414 1101.5 212.012 1117.28 212.012C1121.46 212.012 1125.33 212.012 1128.55 212.326C1132.09 212.64 1135.31 213.27 1138.86 213.898C1139.5 214.213 1140.47 214.213 1141.11 214.527C1141.75 214.213 1142.4 214.527 1143.37 214.527Z" fill="#333333"/>
<path d="M1159.47 212.328H1219.69V227.737H1180.08V252.265H1215.83V267.359H1180.08V295.031H1219.69V310.439H1159.47V212.328Z" fill="#333333"/>
<rect x="159.39" y="1121.39" width="194.422" height="194.422" rx="29.4821" fill="#FFFEFE" stroke="white" stroke-width="4.78088"/>
<rect x="154.61" y="1117.41" width="203.984" height="203.984" rx="38.6739" fill="#F2557C" fill-opacity="0.2"/>
<rect x="154.61" y="1117.41" width="203.984" height="203.984" rx="38.6739" stroke="white" stroke-width="4.78088"/>
<g clip-path="url(#clip1_2330_141)">
<path fill-rule="evenodd" clip-rule="evenodd" d="M256.602 1169.59C259.03 1169.59 261.237 1171.01 262.254 1173.21L273.089 1196.7L298.778 1199.75C301.189 1200.03 303.214 1201.7 303.965 1204.01C304.715 1206.32 304.054 1208.85 302.271 1210.5L283.279 1228.06L288.32 1253.43C288.794 1255.82 287.839 1258.26 285.874 1259.68C283.909 1261.11 281.293 1261.27 279.174 1260.08L256.602 1247.44L234.029 1260.08C231.91 1261.27 229.294 1261.11 227.329 1259.68C225.365 1258.26 224.409 1255.82 224.883 1253.43L229.924 1228.06L210.932 1210.5C209.149 1208.85 208.488 1206.32 209.238 1204.01C209.989 1201.7 212.014 1200.03 214.426 1199.75L240.114 1196.7L250.949 1173.21C251.966 1171.01 254.173 1169.59 256.602 1169.59ZM256.602 1190.68L249.96 1205.08C249.053 1207.05 247.19 1208.4 245.04 1208.65L229.294 1210.52L240.936 1221.29C242.525 1222.76 243.237 1224.95 242.815 1227.07L239.724 1242.62L253.561 1234.88C255.45 1233.82 257.753 1233.82 259.642 1234.88L273.479 1242.62L270.388 1227.07C269.967 1224.95 270.678 1222.76 272.268 1221.29L283.909 1210.52L268.163 1208.65C266.013 1208.4 264.15 1207.05 263.243 1205.08L256.602 1190.68Z" fill="#F2557C"/>
</g>
<rect x="405.603" y="1121.4" width="195.2" height="195.2" rx="29.6" fill="#FFFEFE" stroke="white" stroke-width="4.8"/>
<rect x="400.803" y="1116.6" width="204.8" height="204.8" rx="38.8286" fill="#6D4EC2" fill-opacity="0.2"/>
<rect x="400.803" y="1116.6" width="204.8" height="204.8" rx="38.8286" stroke="white" stroke-width="4.8"/>
<g clip-path="url(#clip2_2330_141)">
<path d="M472.846 1249.34H533.56V1231.13H545.703V1249.34C545.703 1256.05 540.267 1261.49 533.56 1261.49H472.846C466.139 1261.49 460.703 1256.05 460.703 1249.34V1231.13H472.846V1249.34ZM509.274 1231.13C509.274 1234.48 506.556 1237.2 503.203 1237.2C499.85 1237.2 497.132 1234.48 497.132 1231.13V1212.92H509.274V1231.13ZM512.31 1176.49C517.34 1176.49 521.418 1180.57 521.418 1185.6V1188.63H539.632C546.338 1188.63 551.774 1194.07 551.774 1200.77V1225.06H515.346V1212.92H539.632V1200.77H466.774V1212.92H491.06V1225.06H454.632V1200.77C454.632 1194.07 460.068 1188.63 466.774 1188.63H484.989V1185.6C484.989 1180.57 489.067 1176.49 494.097 1176.49H512.31Z" fill="#6D4EC2" fill-opacity="0.85"/>
</g>
<rect x="652.603" y="1121.4" width="195.2" height="195.2" rx="29.6" fill="#FFFEFE" stroke="white" stroke-width="4.8"/>
<rect x="647.803" y="1116.6" width="204.8" height="204.8" rx="38.8286" fill="#56A8F4" fill-opacity="0.2"/>
<rect x="647.803" y="1116.6" width="204.8" height="204.8" rx="38.8286" stroke="white" stroke-width="4.8"/>
<g clip-path="url(#clip3_2330_141)">
<path d="M777.703 1173.64C784.41 1173.64 789.846 1179.07 789.846 1185.78V1246.49C789.846 1253.2 784.41 1258.64 777.703 1258.64H753.417V1246.49H777.703V1185.78H716.989V1222.21H704.846V1185.78C704.846 1179.07 710.283 1173.64 716.989 1173.64H777.703ZM771.632 1240.42H759.489V1228.28H771.632V1240.42ZM771.632 1222.21H741.275V1210.07H771.632V1222.21ZM771.632 1203.99H723.06V1191.85H771.632V1203.99Z" fill="#56A8F4"/>
<path fill-rule="evenodd" clip-rule="evenodd" d="M713.432 1236.14L721.282 1243.99V1216.14H733.425V1243.99L741.275 1236.14L749.861 1244.72L731.647 1262.94C730.508 1264.08 728.964 1264.71 727.354 1264.71C725.743 1264.71 724.199 1264.08 723.06 1262.94L704.846 1244.72L713.432 1236.14Z" fill="#56A8F4"/>
</g>
<rect x="899.603" y="1121.4" width="195.2" height="195.2" rx="29.6" fill="#FFFEFE" stroke="white" stroke-width="4.8"/>
<rect x="894.803" y="1116.6" width="204.8" height="204.8" rx="38.8286" fill="#EB7B0C" fill-opacity="0.2"/>
<rect x="894.803" y="1116.6" width="204.8" height="204.8" rx="38.8286" stroke="white" stroke-width="4.8"/>
<g clip-path="url(#clip4_2330_141)">
<path fill-rule="evenodd" clip-rule="evenodd" d="M1011.53 1177.08C1019.15 1169.46 1031.5 1169.46 1039.12 1177.08C1046.74 1184.7 1046.74 1197.05 1039.12 1204.67L982.873 1260.92C982.072 1261.72 981.068 1262.29 979.969 1262.56L954.969 1268.81C952.839 1269.35 950.586 1268.72 949.034 1267.17C947.481 1265.62 946.857 1263.36 947.39 1261.23L953.64 1236.23C953.915 1235.14 954.483 1234.13 955.284 1233.33L1011.53 1177.08ZM1030.28 1185.92C1027.55 1183.18 1023.11 1183.18 1020.37 1185.92L1015.42 1190.88L1025.33 1200.79L1030.28 1195.83C1033.02 1193.09 1033.02 1188.66 1030.28 1185.92ZM1016.49 1209.63L1006.58 1199.71L965.347 1240.95L962.043 1254.16L975.258 1250.86L1016.49 1209.63Z" fill="#EB7B0C"/>
</g>
<rect x="1146.6" y="1121.4" width="195.2" height="195.2" rx="29.6" fill="#FFFEFE" stroke="white" stroke-width="4.8"/>
<rect x="1141.8" y="1116.6" width="204.8" height="204.8" rx="47.4" fill="#22C386" fill-opacity="0.2"/>
<rect x="1141.8" y="1116.6" width="204.8" height="204.8" rx="47.4" stroke="white" stroke-width="4.8"/>
<path fill-rule="evenodd" clip-rule="evenodd" d="M1208.81 1254.24C1204.31 1249.72 1200.75 1244.45 1198.14 1238.45C1195.52 1232.4 1194.2 1225.92 1194.2 1219.01C1194.2 1212.09 1195.52 1205.61 1198.14 1199.57C1200.77 1193.53 1204.35 1188.24 1208.89 1183.7C1213.43 1179.15 1218.74 1175.57 1224.83 1172.95C1230.91 1170.32 1237.37 1169.01 1244.2 1169.01C1251.12 1169.01 1257.6 1170.32 1263.64 1172.95C1269.68 1175.57 1274.97 1179.15 1279.52 1183.7C1284.06 1188.24 1287.64 1193.53 1290.27 1199.57C1292.89 1205.61 1294.2 1212.09 1294.2 1219.01C1294.2 1225.92 1292.89 1232.4 1290.27 1238.45C1287.64 1244.49 1284.06 1249.78 1279.52 1254.32C1274.97 1258.86 1269.66 1262.45 1263.58 1265.07C1257.49 1267.7 1251.04 1269.01 1244.2 1269.01C1237.29 1269.01 1230.81 1267.7 1224.77 1265.07C1218.76 1262.46 1213.49 1258.9 1208.97 1254.4C1208.94 1254.37 1208.92 1254.35 1208.89 1254.32C1208.86 1254.29 1208.84 1254.27 1208.81 1254.24ZM1227.27 1248.2C1228.39 1251.15 1229.7 1254.01 1231.2 1256.76C1230.91 1256.66 1230.62 1256.57 1230.33 1256.47C1226.02 1254.97 1222.16 1252.77 1218.77 1249.88C1218.31 1249.5 1217.87 1249.1 1217.43 1248.7C1214.39 1245.88 1211.82 1242.65 1209.7 1239.01H1224.45C1225.2 1242.17 1226.14 1245.24 1227.27 1248.2ZM1221.89 1224.07C1222.02 1225.7 1222.2 1227.34 1222.45 1229.01H1205.45C1205.04 1227.34 1204.72 1225.7 1204.52 1224.07C1204.49 1223.87 1204.47 1223.66 1204.44 1223.46C1204.28 1222.02 1204.2 1220.54 1204.2 1219.01C1204.2 1217.74 1204.26 1216.51 1204.37 1215.31C1204.42 1214.88 1204.49 1214.45 1204.58 1214.01H1204.51C1204.51 1213.99 1204.51 1213.97 1204.52 1213.95C1204.72 1212.32 1205.04 1210.67 1205.45 1209.01H1222.45C1222.2 1210.67 1222.02 1212.32 1221.89 1213.95C1221.89 1213.97 1221.89 1213.99 1221.89 1214.01H1221.83C1221.74 1214.84 1221.7 1215.65 1221.7 1216.45L1221.7 1219.01C1221.7 1220.76 1221.77 1222.45 1221.89 1224.07ZM1249.2 1250.63C1249.42 1250.22 1249.62 1249.8 1249.83 1249.38C1251.41 1246.13 1252.7 1242.67 1253.7 1239.01H1234.7C1235.58 1242.22 1236.68 1245.26 1238 1248.15C1238.19 1248.57 1238.38 1248.98 1238.58 1249.38C1239.96 1252.23 1241.57 1254.97 1243.4 1257.63C1243.67 1258.01 1243.93 1258.38 1244.2 1258.76C1244.2 1258.76 1244.2 1258.76 1244.2 1258.76C1245.12 1257.42 1245.99 1256.07 1246.83 1254.7C1247.66 1253.32 1248.45 1251.92 1249.2 1250.51V1250.63ZM1255.95 1229.01C1256.2 1227.34 1256.39 1225.7 1256.52 1224.07C1256.64 1222.45 1256.7 1220.76 1256.7 1219.01C1256.7 1217.26 1256.64 1215.57 1256.52 1213.95C1256.39 1212.32 1256.2 1210.67 1255.95 1209.01H1232.45C1232.2 1210.67 1232.02 1212.32 1231.89 1213.95C1231.77 1215.57 1231.7 1217.26 1231.7 1219.01C1231.7 1220.54 1231.75 1222.02 1231.85 1223.46C1231.86 1223.66 1231.88 1223.87 1231.89 1224.07C1232.02 1225.7 1232.2 1227.34 1232.45 1229.01H1255.95ZM1253.7 1199.01C1252.7 1195.34 1251.41 1191.88 1249.83 1188.63C1248.24 1185.38 1246.37 1182.26 1244.2 1179.26C1243.29 1180.59 1242.41 1181.95 1241.58 1183.32C1240.74 1184.7 1239.95 1186.09 1239.2 1187.51V1187.39C1238.99 1187.8 1238.78 1188.22 1238.58 1188.63C1236.99 1191.88 1235.7 1195.34 1234.7 1199.01H1253.7ZM1266.52 1224.01C1266.52 1224.03 1266.52 1224.05 1266.52 1224.07C1266.39 1225.7 1266.2 1227.34 1265.95 1229.01H1282.95C1283.37 1227.34 1283.68 1225.7 1283.89 1224.07C1283.89 1224.05 1283.9 1224.03 1283.9 1224.01H1283.83C1283.92 1223.57 1283.99 1223.13 1284.04 1222.71C1284.15 1221.51 1284.2 1220.27 1284.2 1219.01C1284.2 1217.26 1284.1 1215.57 1283.89 1213.95C1283.68 1212.32 1283.37 1210.67 1282.95 1209.01H1265.95C1266.17 1210.47 1266.34 1211.91 1266.47 1213.33C1266.48 1213.54 1266.5 1213.74 1266.52 1213.95C1266.64 1215.57 1266.7 1217.26 1266.7 1219.01V1221.57C1266.7 1222.36 1266.66 1223.17 1266.58 1224.01H1266.52ZM1224.45 1199.01H1209.7C1212.12 1194.84 1215.14 1191.22 1218.77 1188.13C1222.39 1185.05 1226.54 1182.76 1231.2 1181.26C1229.7 1184.01 1228.39 1186.86 1227.27 1189.82C1226.14 1192.78 1225.2 1195.84 1224.45 1199.01ZM1269.64 1188.13C1273.27 1191.22 1276.29 1194.84 1278.7 1199.01H1263.95C1263.2 1195.84 1262.27 1192.78 1261.14 1189.82C1261.07 1189.64 1261 1189.45 1260.93 1189.27C1259.85 1186.51 1258.61 1183.84 1257.2 1181.26C1261.87 1182.76 1266.02 1185.05 1269.64 1188.13ZM1263.95 1239.01H1278.7C1276.29 1243.17 1273.27 1246.8 1269.64 1249.88C1266.02 1252.97 1261.87 1255.26 1257.2 1256.76C1258.7 1254.01 1260.02 1251.15 1261.14 1248.2C1262.27 1245.24 1263.2 1242.17 1263.95 1239.01Z" fill="#22C386"/>
<g filter="url(#filter4_d_2330_141)">
<path d="M1459.7 502.607C1459.88 497.927 1463.82 494.279 1468.5 494.459L1714.26 503.912L1763.14 556.713L1749.78 904.155C1749.6 908.835 1745.66 912.483 1740.98 912.303L1452.86 901.219C1448.18 901.039 1444.53 897.099 1444.71 892.419L1459.7 502.607Z" fill="white"/>
<path d="M1468.34 498.696L1712.34 508.082L1758.84 558.305L1745.54 903.992C1745.45 906.332 1743.48 908.156 1741.14 908.066L1453.02 896.982C1450.68 896.892 1448.86 894.922 1448.95 892.582L1463.94 502.77C1464.03 500.43 1466 498.606 1468.34 498.696Z" stroke="#AAAAAA" stroke-width="8.48044"/>
</g>
<rect x="1594.15" y="758.133" width="118.726" height="8.48044" rx="4.24022" transform="rotate(2.203 1594.15 758.133)" fill="#CCCCCC"/>
<rect x="1493.44" y="728.801" width="89.0446" height="8.48044" rx="4.24022" transform="rotate(2.203 1493.44 728.801)" fill="#5FC1E8"/>
<rect x="1593.17" y="783.555" width="118.726" height="8.48044" rx="4.24022" transform="rotate(2.203 1593.17 783.555)" fill="#CCCCCC"/>
<rect x="1592.19" y="808.977" width="118.726" height="8.48044" rx="4.24022" transform="rotate(2.203 1592.19 808.977)" fill="#CCCCCC"/>
<rect x="1489.52" y="830.488" width="220.491" height="8.48044" rx="4.24022" transform="rotate(2.203 1489.52 830.488)" fill="#CCCCCC"/>
<rect x="1488.55" y="855.914" width="220.491" height="8.48044" rx="4.24022" transform="rotate(2.203 1488.55 855.914)" fill="#5FC1E8"/>
<path d="M1520.81 789.263L1494.41 813.708L1579.16 816.968L1550.96 777.693L1533.2 798.227L1520.81 789.263Z" fill="#5FC1E8"/>
<circle cx="1515.35" cy="765.706" r="6.36033" transform="rotate(2.203 1515.35 765.706)" fill="#5FC1E8"/>
<path d="M1714.25 503.914L1763.14 556.715L1716.53 554.922C1714.19 554.832 1712.37 552.862 1712.46 550.522L1714.25 503.914Z" fill="#AAAAAA"/>
<path d="M1457.17 678.593C1446.19 692.77 1416.4 709.66 1395.76 701.953C1382.78 697.107 1376.05 688.694 1373.86 684.382" stroke="#AAAAAA" stroke-width="8.48044" stroke-linecap="round"/>
<path d="M1356.4 674.707C1356.31 677.05 1357.57 681.004 1360.98 683.392C1365.53 686.585 1370.06 685.369 1373.87 684.394" stroke="#AAAAAA" stroke-width="8.48044" stroke-linecap="round"/>
<path d="M1754.1 681.56C1759.97 694.516 1786.94 697.069 1796.31 687.426C1812.94 670.301 1808.15 646.918 1806.49 643.262" stroke="#AAAAAA" stroke-width="8.48044" stroke-linecap="round"/>
<path d="M1337.36 450.314C1335.12 449.811 1334.21 447.095 1335.72 445.349L1352.08 426.314C1353.62 424.517 1356.54 425.092 1357.29 427.342L1365.42 451.856C1366.16 454.107 1364.17 456.311 1361.86 455.794L1337.36 450.314Z" fill="#F36700"/>
<path d="M1321.83 777.49C1320.32 775.751 1321.21 773.031 1323.45 772.517L1347.92 766.914C1350.23 766.385 1352.23 768.579 1351.5 770.833L1343.49 795.388C1342.75 797.642 1339.84 798.232 1338.29 796.442L1321.83 777.49Z" fill="#95C03D"/>
<path d="M1934.69 716.511C1934.24 718.769 1931.54 719.733 1929.76 718.272L1910.36 702.356C1908.52 700.853 1909.03 697.924 1911.26 697.126L1935.58 688.427C1937.81 687.628 1940.06 689.57 1939.6 691.895L1934.69 716.511Z" fill="#5FC1E8"/>
<path d="M1582.9 609.197C1583.26 599.836 1575.02 591.92 1564.49 591.515C1553.96 591.11 1545.13 598.369 1544.77 607.73" stroke="#AAAAAA" stroke-width="8.48044" stroke-linecap="round"/>
<path d="M1675.66 612.767C1676.02 603.407 1667.78 595.49 1657.25 595.085C1646.72 594.68 1637.89 601.94 1637.53 611.3" stroke="#AAAAAA" stroke-width="8.48044" stroke-linecap="round"/>
<rect x="1736.15" y="603.941" width="38.162" height="25.4413" rx="12.7207" transform="rotate(-21.797 1736.15 603.941)" fill="#D9F4FF" stroke="#9ADAF3" stroke-width="8.48044"/>
<rect x="1773.89" y="608.188" width="21.2011" height="76.324" rx="10.6006" transform="rotate(-21.797 1773.89 608.188)" fill="#D9F4FF" stroke="#9ADAF3" stroke-width="8.48044"/>
<path d="M1873.46 616.125L1778.48 627.33C1772.77 628.004 1767.32 624.762 1765.18 619.421L1755.94 596.315C1753.87 591.141 1755.42 585.246 1759.7 581.745L1760.12 581.414L1836.64 524.036L1873.46 616.125Z" fill="#D9F4FF" stroke="#9ADAF3" stroke-width="8.48044"/>
<path d="M1840.09 521.268C1841.32 520.777 1843.18 520.764 1845.94 522.102C1848.69 523.441 1851.9 525.943 1855.33 529.637C1862.16 537.005 1869.23 548.438 1874.74 562.215C1880.25 575.991 1883.01 589.147 1883.14 599.193C1883.21 604.231 1882.61 608.256 1881.54 611.125C1880.47 613.991 1879.11 615.267 1877.88 615.758C1876.66 616.248 1874.79 616.261 1872.04 614.923C1869.29 613.585 1866.08 611.082 1862.65 607.387C1855.82 600.02 1848.75 588.587 1843.24 574.811C1837.73 561.034 1834.97 547.878 1834.83 537.832C1834.77 532.794 1835.37 528.769 1836.44 525.901C1837.51 523.034 1838.87 521.759 1840.09 521.268Z" fill="#D9F4FF" stroke="#9ADAF3" stroke-width="8.48044"/>
<path d="M1838.52 562.996L1842.45 561.422C1848.98 558.813 1856.38 561.986 1858.99 568.509C1861.6 575.033 1858.42 582.435 1851.9 585.044L1847.96 586.618L1838.52 562.996Z" fill="#9ADAF3"/>
<path d="M1802.57 634.998C1804.55 633.755 1808.98 633.67 1811.04 635.324C1815.37 638.807 1815.99 640.8 1817.05 644.589" stroke="#AAAAAA" stroke-width="8.48044" stroke-linecap="round"/>
<path d="M1626.79 657.567L1590.52 656.171C1587.84 656.069 1585.82 658.435 1586.73 660.952C1589.02 667.308 1594.73 677.55 1607.84 678.055C1620.94 678.559 1627.43 668.786 1630.2 662.624C1631.3 660.184 1629.46 657.67 1626.79 657.567Z" fill="#AAAAAA"/>
<circle cx="1304.07" cy="577.256" r="42.4022" transform="rotate(2.203 1304.07 577.256)" fill="#D9F4FF" stroke="#9ADAF3" stroke-width="8.48044"/>
<rect x="1287.28" y="572.367" width="33.9218" height="8.48044" rx="4.24022" transform="rotate(2.203 1287.28 572.367)" fill="#9ADAF3"/>
<rect x="1299.18" y="594.043" width="33.9218" height="8.48044" rx="4.24022" transform="rotate(-87.797 1299.18 594.043)" fill="#9ADAF3"/>
<path d="M1674.19 366.546C1672.43 368.024 1669.72 367.088 1669.25 364.835L1664.09 340.271C1663.6 337.951 1665.83 335.986 1668.07 336.762L1692.48 345.211C1694.72 345.986 1695.25 348.91 1693.44 350.432L1674.19 366.546Z" fill="#95C03D"/>
<g filter="url(#filter5_d_2330_141)">
<circle opacity="0.8" cx="1282" cy="651" r="147.5" fill="white" stroke="white"/>
<path d="M1340.37 636.27C1350.46 641.923 1350.46 656.436 1340.37 662.089L1263.34 705.275C1253.47 710.806 1241.3 703.675 1241.3 692.365L1241.3 605.993C1241.3 594.683 1253.47 587.553 1263.34 593.084L1340.37 636.27Z" fill="#FF6F3D"/>
</g>
</g>
<defs>
<filter id="filter0_d_2330_141" x="-214.052" y="638.363" width="906.753" height="1129.42" filterUnits="userSpaceOnUse" color-interpolation-filters="sRGB">
<feFlood flood-opacity="0" result="BackgroundImageFix"/>
<feColorMatrix in="SourceAlpha" type="matrix" values="0 0 0 0 0 0 0 0 0 0 0 0 0 0 0 0 0 0 127 0" result="hardAlpha"/>
<feOffset dx="-3" dy="-7"/>
<feGaussianBlur stdDeviation="12"/>
<feComposite in2="hardAlpha" operator="out"/>
<feColorMatrix type="matrix" values="0 0 0 0 0.8 0 0 0 0 0.8 0 0 0 0 0.8 0 0 0 1 0"/>
<feBlend mode="normal" in2="BackgroundImageFix" result="effect1_dropShadow_2330_141"/>
<feBlend mode="normal" in="SourceGraphic" in2="effect1_dropShadow_2330_141" result="shape"/>
</filter>
<filter id="filter1_d_2330_141" x="1442.24" y="39.5742" width="1411.85" height="2222.94" filterUnits="userSpaceOnUse" color-interpolation-filters="sRGB">
<feFlood flood-opacity="0" result="BackgroundImageFix"/>
<feColorMatrix in="SourceAlpha" type="matrix" values="0 0 0 0 0 0 0 0 0 0 0 0 0 0 0 0 0 0 127 0" result="hardAlpha"/>
<feOffset dx="-3" dy="-7"/>
<feGaussianBlur stdDeviation="12"/>
<feComposite in2="hardAlpha" operator="out"/>
<feColorMatrix type="matrix" values="0 0 0 0 0.8 0 0 0 0 0.8 0 0 0 0 0.8 0 0 0 1 0"/>
<feBlend mode="normal" in2="BackgroundImageFix" result="effect1_dropShadow_2330_141"/>
<feBlend mode="normal" in="SourceGraphic" in2="effect1_dropShadow_2330_141" result="shape"/>
</filter>
<filter id="filter2_d_2330_141" x="1823.44" y="747.126" width="613.155" height="687.679" filterUnits="userSpaceOnUse" color-interpolation-filters="sRGB">
<feFlood flood-opacity="0" result="BackgroundImageFix"/>
<feColorMatrix in="SourceAlpha" type="matrix" values="0 0 0 0 0 0 0 0 0 0 0 0 0 0 0 0 0 0 127 0" result="hardAlpha"/>
<feOffset dy="35.05"/>
<feGaussianBlur stdDeviation="37.5536"/>
<feColorMatrix type="matrix" values="0 0 0 0 0.333333 0 0 0 0 0.333333 0 0 0 0 0.333333 0 0 0 0.1 0"/>
<feBlend mode="normal" in2="BackgroundImageFix" result="effect1_dropShadow_2330_141"/>
<feBlend mode="normal" in="SourceGraphic" in2="effect1_dropShadow_2330_141" result="shape"/>
</filter>
<filter id="filter3_d_2330_141" x="1963.89" y="166.746" width="378.759" height="444.529" filterUnits="userSpaceOnUse" color-interpolation-filters="sRGB">
<feFlood flood-opacity="0" result="BackgroundImageFix"/>
<feColorMatrix in="SourceAlpha" type="matrix" values="0 0 0 0 0 0 0 0 0 0 0 0 0 0 0 0 0 0 127 0" result="hardAlpha"/>
<feOffset dy="27.1555"/>
<feGaussianBlur stdDeviation="29.0951"/>
<feColorMatrix type="matrix" values="0 0 0 0 0.333333 0 0 0 0 0.333333 0 0 0 0 0.333333 0 0 0 0.1 0"/>
<feBlend mode="normal" in2="BackgroundImageFix" result="effect1_dropShadow_2330_141"/>
<feBlend mode="normal" in="SourceGraphic" in2="effect1_dropShadow_2330_141" result="shape"/>
</filter>
<filter id="filter4_d_2330_141" x="1381.1" y="460.531" width="445.649" height="545.062" filterUnits="userSpaceOnUse" color-interpolation-filters="sRGB">
<feFlood flood-opacity="0" result="BackgroundImageFix"/>
<feColorMatrix in="SourceAlpha" type="matrix" values="0 0 0 0 0 0 0 0 0 0 0 0 0 0 0 0 0 0 127 0" result="hardAlpha"/>
<feOffset dy="29.6815"/>
<feGaussianBlur stdDeviation="31.8017"/>
<feColorMatrix type="matrix" values="0 0 0 0 0.333333 0 0 0 0 0.333333 0 0 0 0 0.333333 0 0 0 0.1 0"/>
<feBlend mode="normal" in2="BackgroundImageFix" result="effect1_dropShadow_2330_141"/>
<feBlend mode="normal" in="SourceGraphic" in2="effect1_dropShadow_2330_141" result="shape"/>
</filter>
<filter id="filter5_d_2330_141" x="1084" y="473" width="396" height="396" filterUnits="userSpaceOnUse" color-interpolation-filters="sRGB">
<feFlood flood-opacity="0" result="BackgroundImageFix"/>
<feColorMatrix in="SourceAlpha" type="matrix" values="0 0 0 0 0 0 0 0 0 0 0 0 0 0 0 0 0 0 127 0" result="hardAlpha"/>
<feOffset dy="20"/>
<feGaussianBlur stdDeviation="25"/>
<feColorMatrix type="matrix" values="0 0 0 0 0.333333 0 0 0 0 0.333333 0 0 0 0 0.333333 0 0 0 0.3 0"/>
<feBlend mode="normal" in2="BackgroundImageFix" result="effect1_dropShadow_2330_141"/>
<feBlend mode="normal" in="SourceGraphic" in2="effect1_dropShadow_2330_141" result="shape"/>
</filter>
<linearGradient id="paint0_linear_2330_141" x1="1109" y1="371.5" x2="146.955" y2="94.6576" gradientUnits="userSpaceOnUse">
<stop stop-color="white" stop-opacity="0.1"/>
<stop offset="1" stop-color="white" stop-opacity="0.3"/>
</linearGradient>
<clipPath id="clip0_2330_141">
<rect width="2560" height="1440" fill="white"/>
</clipPath>
<clipPath id="clip1_2330_141">
<rect width="99.6016" height="99.6016" fill="white" transform="translate(206.801 1169.59)"/>
</clipPath>
<clipPath id="clip2_2330_141">
<rect width="97.1429" height="97.1429" fill="white" transform="translate(454.632 1176.49)"/>
</clipPath>
<clipPath id="clip3_2330_141">
<rect width="97.1429" height="97.1429" fill="white" transform="translate(698.775 1167.57)"/>
</clipPath>
<clipPath id="clip4_2330_141">
<rect width="100" height="100" fill="white" transform="translate(947.203 1169)"/>
</clipPath>
</defs>
</svg>
