<svg xmlns="http://www.w3.org/2000/svg" width="864" height="220"><path fill="#FF6F3D" d="m71.62 154.933-41.082-18.966c-3.5-1.656-3.5-4.215 0-5.72l14.302-6.623 26.627 12.343c3.5 1.656 9.13 1.656 12.477 0l26.627-12.343 14.303 6.623c3.499 1.656 3.499 4.215 0 5.72l-41.082 18.966c-3.195 1.505-8.825 1.505-12.172 0"/><path fill="#95C038" d="M71.487 131.464 30.53 112.476c-3.49-1.658-3.49-4.22 0-5.727l13.955-6.48 27.002 12.508c3.489 1.658 9.1 1.658 12.438 0l27.001-12.508 13.956 6.48c3.489 1.658 3.489 4.219 0 5.727l-40.957 18.988c-3.489 1.657-9.101 1.657-12.438 0"/><path fill="#5DC0E8" d="M71.487 108.237 30.53 89.522c-3.49-1.633-3.49-4.158 0-5.644l40.957-18.714c3.489-1.634 9.1-1.634 12.438 0l40.957 18.714c3.489 1.634 3.489 4.16 0 5.644l-40.957 18.715c-3.489 1.485-9.101 1.485-12.438 0"/><path fill="#333" d="M683.077 129.185q4.428-3.416 4.429-9.52 0-4.745-2.752-7.718-2.72-2.973-9.995-5.567-4.334-1.55-6.452-2.815-2.089-1.296-2.973-2.815-.887-1.549-.887-3.953 0-3.259 2.404-5.092 2.403-1.835 6.674-1.835 5.408 0 11.132 2.404l1.678-4.681q-5.789-2.53-12.684-2.53-6.61 0-10.627 3.162t-4.016 8.509q-.001 5.091 2.752 8.255 2.783 3.162 9.234 5.472 4.618 1.644 6.865 2.941 2.276 1.297 3.224 2.847.983 1.518.982 3.922 0 3.637-2.72 5.693-2.72 2.024-8.096 2.024-3.291 0-6.644-.696-3.352-.695-6.2-1.897v5.187q4.431 2.12 12.654 2.119 7.59 0 12.018-3.416m-106.323-3.258q6.232-6.072 6.231-17.522.001-10.722-5.978-16.7-5.977-5.978-16.764-5.978h-14.169v46.241h12.81q11.67 0 17.87-6.041m-4.017-30.965q4.556 4.587 4.556 13.632 0 9.268-4.84 14.012-4.84 4.713-14.454 4.713h-6.549V90.376h7.813q8.952 0 13.474 4.586m44.804 32.895q4.27-4.776 4.269-13.253 0-8.255-4.303-13.094-4.268-4.84-11.543-4.84-7.527 0-11.765 4.745-4.24 4.713-4.238 13.189-.001 5.472 1.96 9.552 1.962 4.08 5.565 6.262 3.609 2.183 8.256 2.183 7.529 0 11.799-4.744m-19.484-3.132q-2.658-3.479-2.657-10.121 0-6.705 2.626-10.09 2.624-3.384 7.78-3.384 5.218 0 7.877 3.448 2.687 3.416 2.688 10.026 0 6.673-2.688 10.153-2.659 3.447-7.814 3.447t-7.812-3.479m46.195 7.876q-7.528 0-11.671-4.618-4.113-4.65-4.113-13.126 0-8.698 4.177-13.442 4.205-4.745 11.954-4.745 2.498 0 4.999.538 2.497.538 3.921 1.265l-1.614 4.46a23.5 23.5 0 0 0-3.795-1.139q-2.056-.474-3.637-.474-10.564 0-10.564 13.474 0 6.388 2.562 9.805 2.593 3.416 7.654 3.416 4.333 0 8.889-1.867v4.65q-3.481 1.803-8.762 1.803m67.402 0q-3.384 0-6.199-1.234-2.783-1.264-4.68-3.858h-.38q.38 3.036.38 5.756v14.265h-5.252V97.303h4.27l.729 4.744h.253q2.024-2.847 4.712-4.111 2.689-1.266 6.167-1.266 6.897 0 10.627 4.713 3.764 4.713 3.764 13.221 0 8.54-3.827 13.284-3.795 4.713-10.564 4.713m-.758-31.471q-5.313 0-7.687 2.941-2.372 2.942-2.434 9.363v1.17q0 7.307 2.434 10.469 2.437 3.132 7.813 3.131 4.49 0 7.022-3.637 2.562-3.638 2.56-10.026.002-6.484-2.56-9.932-2.53-3.479-7.148-3.479m43.98 25.904 1.045 4.934h3.89V108.31q0-6.073-3.005-8.825-2.973-2.751-9.173-2.751-3.067 0-6.136.79-3.036.79-5.597 2.183l1.612 4.017q5.473-2.657 9.805-2.657 3.858 0 5.599 1.961 1.77 1.929 1.77 6.009v2.151l-5.884.19q-16.793.505-16.794 11.007 0 4.902 2.91 7.559 2.941 2.657 8.098 2.657 3.858 0 6.419-1.139 2.595-1.17 5.188-4.428zm-3.132-1.455q-2.783 2.69-7.685 2.689-3.101 0-4.84-1.487-1.707-1.486-1.707-4.333-.001-3.638 2.752-5.345 2.782-1.74 9.046-1.961l5.249-.222v3.131q0 4.84-2.815 7.528m32.12 7.022q-7.527 0-11.67-4.618-4.112-4.65-4.111-13.126 0-8.698 4.174-13.442 4.208-4.745 11.955-4.745 2.5 0 4.998.538 2.5.538 3.922 1.265l-1.612 4.46a23.6 23.6 0 0 0-3.797-1.139q-2.056-.474-3.636-.474-10.565 0-10.565 13.474 0 6.388 2.562 9.805 2.594 3.416 7.654 3.416 4.334 0 8.888-1.867v4.65q-3.478 1.803-8.762 1.803m18.868-4.681q4.459 4.681 12.146 4.681 3.51 0 5.978-.538 2.497-.506 5.283-1.708v-4.681q-5.474 2.341-11.072 2.341-5.313 0-8.256-3.163-2.91-3.163-3.066-9.267h23.88v-3.322q-.001-7.022-3.796-11.291-3.796-4.302-10.311-4.302-6.96 0-11.103 4.934-4.11 4.935-4.111 13.316 0 8.319 4.428 13m4.048-24.133q2.5-2.72 6.673-2.72 4.113 0 6.328 2.657 2.214 2.625 2.213 7.59h-18.123q.443-4.808 2.909-7.527m-656.043 5.875c0-16.58 11.304-23.37 22.808-23.37s22.808 6.79 22.808 23.37-11.304 23.37-22.808 23.37-22.808-6.789-22.808-23.37m35.641 0c0-15.47-9.308-16.842-12.833-16.842-3.524 0-12.834 1.371-12.834 16.842 0 15.472 9.31 16.843 12.834 16.843 3.525 0 12.833-1.371 12.833-16.843m27.089 22.848h-9.443V86.814h12.235l16.091 28.789 2.462 6.201h.2l-.2-8.094V86.814h9.442v45.696h-12.236l-16.224-29.898-2.327-5.092h-.2l.2 8.095zm40.104 0h27.927v-7.703h-18.484V86.814h-9.443zm37.104-18.67-17.156-27.026h10.905L294 102.873l1.462 3.134h.2l1.596-3.134 9.641-16.059h9.975l-16.757 27.157v18.539h-9.442zm48.198-27.548c-11.502 0-22.807 6.79-22.807 23.37s11.305 23.37 22.807 23.37c11.504 0 22.809-6.789 22.809-23.37 0-16.58-11.305-23.37-22.809-23.37m0 6.528c3.524 0 12.834 1.371 12.834 16.842 0 15.472-9.31 16.843-12.834 16.843-3.525 0-12.834-1.371-12.834-16.843 0-15.47 9.309-16.842 12.834-16.842m39.922 39.69h-9.442V86.814h26.067v7.704h-16.625v11.097h15.825v7.507h-15.825zm23.285 0h9.443v-19.388h15.827v-7.507h-15.827V94.518h16.623v-7.704H402.08zm42.172 0h-9.442V86.814h9.442zm43.302-9.204c-2.328 1.044-5.585 2.023-9.707 2.023-8.378 0-15.959-4.504-15.959-15.536 0-9.335 6.184-15.798 16.623-15.798 3.525 0 6.518.653 9.244 1.697l.397-7.833c-3.524-1.11-6.648-1.567-10.305-1.567-14.629 0-25.934 7.9-25.934 23.631 0 16.647 12.634 23.109 24.204 23.109 3.724 0 7.914-.587 12.035-1.958zm35.699 9.204H495.46V86.814h27.793v8.095h-18.351v10.314h16.69v7.507h-16.69v11.686h18.351z"/></svg>