<svg xmlns="http://www.w3.org/2000/svg" width="1520" height="470"><path fill="#fff" d="M0 0h1520v470H0z"/><path fill="#FF6F3D" d="m161.265 309.902-68.254-31.51c-5.814-2.751-5.814-7.002 0-9.503l23.763-11.003 44.238 20.506c5.814 2.751 15.167 2.751 20.729 0l44.238-20.506 23.762 11.003c5.814 2.751 5.814 7.002 0 9.503l-68.253 31.51c-5.309 2.501-14.662 2.501-20.223 0"/><path fill="#95C038" d="m161.044 270.91-68.046-31.546c-5.796-2.754-5.796-7.011 0-9.514l23.186-10.766 44.86 20.78c5.796 2.755 15.121 2.755 20.665 0l44.86-20.78 23.185 10.766c5.797 2.754 5.797 7.01 0 9.514l-68.045 31.546c-5.796 2.754-15.121 2.754-20.665 0"/><path fill="#5DC0E8" d="M161.044 232.322 92.998 201.23c-5.796-2.715-5.796-6.91 0-9.377l68.046-31.093c5.796-2.715 15.121-2.715 20.665 0l68.045 31.093c5.797 2.714 5.797 6.909 0 9.377l-68.045 31.092c-5.796 2.468-15.121 2.468-20.665 0"/><path fill="#333" d="M1177.14 267.125c4.9-3.784 7.36-9.056 7.36-15.817 0-5.255-1.53-9.529-4.58-12.822-3.01-3.293-8.55-6.376-16.6-9.249-4.8-1.716-8.37-3.275-10.72-4.677-2.32-1.436-3.96-2.995-4.94-4.676q-1.47-2.575-1.47-6.569 0-5.412 3.99-8.46c2.66-2.032 6.36-3.048 11.09-3.048 5.99 0 12.15 1.331 18.49 3.994l2.79-7.777c-6.41-2.803-13.43-4.204-21.07-4.204-7.33 0-13.21 1.751-17.66 5.255s-6.67 8.215-6.67 14.135c0 5.64 1.52 10.212 4.57 13.715 3.08 3.503 8.2 6.534 15.34 9.091 5.12 1.822 8.92 3.451 11.41 4.887 2.52 1.436 4.31 3.013 5.36 4.729 1.09 1.682 1.63 3.854 1.63 6.516 0 4.029-1.51 7.182-4.52 9.459-3.02 2.242-7.5 3.363-13.45 3.363q-5.475 0-11.04-1.156c-3.71-.771-7.15-1.822-10.3-3.153v8.618c4.9 2.347 11.91 3.521 21.02 3.521 8.41 0 15.06-1.892 19.97-5.675m-176.65-5.413c6.91-6.726 10.36-16.43 10.36-29.112 0-11.876-3.31-21.124-9.94-27.745q-9.927-9.932-27.848-9.932h-23.541v76.826h21.283q19.39 0 29.686-10.037m-6.67-51.445q7.569 7.62 7.57 22.649-.001 15.396-8.043 23.278-8.041 7.83-24.013 7.83h-10.881v-61.376h12.981q14.871 0 22.386 7.619m74.44 54.651c4.73-5.29 7.09-12.63 7.09-22.018 0-9.144-2.38-16.395-7.15-21.755-4.73-5.36-11.12-8.04-19.18-8.04-8.34 0-14.85 2.627-19.54 7.882q-7.05 7.83-7.05 21.913c0 6.06 1.09 11.35 3.26 15.869s5.26 7.988 9.25 10.405c4 2.417 8.56 3.626 13.71 3.626 8.34 0 14.88-2.628 19.61-7.882m-32.37-5.203c-2.95-3.853-4.42-9.458-4.42-16.815 0-7.427 1.46-13.015 4.36-16.763q4.365-5.623 12.93-5.623c5.78 0 10.14 1.909 13.09 5.728 2.97 3.784 4.46 9.336 4.46 16.658 0 7.392-1.49 13.014-4.46 16.868-2.95 3.818-7.27 5.728-12.99 5.728-5.7 0-10.03-1.927-12.97-5.781m76.74 13.085c-8.33 0-14.8-2.557-19.39-7.672-4.55-5.15-6.83-12.419-6.83-21.808 0-9.634 2.31-17.078 6.94-22.333q6.99-7.882 19.86-7.882c2.77 0 5.53.298 8.31.893q4.14.893 6.51 2.102l-2.68 7.409c-1.93-.77-4.03-1.401-6.31-1.891-2.27-.526-4.29-.788-6.04-.788q-17.55 0-17.55 22.385 0 10.615 4.26 16.29c2.87 3.783 7.11 5.675 12.71 5.675 4.8 0 9.73-1.033 14.77-3.1v7.724c-3.85 1.997-8.71 2.996-14.56 2.996m111.99 0c-3.75 0-7.19-.683-10.3-2.05-3.09-1.401-5.68-3.538-7.78-6.411h-.63q.63 5.046.63 9.564v23.7h-8.72v-83.447h7.09l1.21 7.882h.42q3.36-4.73 7.83-6.831c2.98-1.401 6.39-2.102 10.25-2.102 7.63 0 13.52 2.61 17.65 7.83 4.17 5.219 6.25 12.541 6.25 21.965 0 9.459-2.12 16.815-6.35 22.07q-6.315 7.83-17.55 7.83m-1.26-52.286q-8.835 0-12.78 4.887c-2.62 3.258-3.97 8.443-4.04 15.554v1.945c0 8.092 1.35 13.89 4.04 17.393q4.05 5.202 12.99 5.203c4.97 0 8.86-2.015 11.66-6.043 2.84-4.029 4.25-9.582 4.25-16.658 0-7.182-1.41-12.682-4.25-16.501-2.8-3.853-6.76-5.78-11.87-5.78m73.06 43.037 1.74 8.198h6.46v-39.306c0-6.727-1.66-11.613-4.99-14.661q-4.935-4.572-15.24-4.572c-3.4 0-6.79.438-10.19 1.313q-5.055 1.314-9.3 3.626l2.67 6.674c6.07-2.942 11.5-4.414 16.3-4.414q6.405 0 9.3 3.258 2.94 3.206 2.94 9.984v3.574l-9.78.315q-27.9.84-27.9 18.287c0 5.43 1.61 9.616 4.84 12.559 3.25 2.942 7.74 4.414 13.45 4.414 4.27 0 7.83-.631 10.66-1.892 2.88-1.296 5.75-3.748 8.62-7.357zm-5.2-2.417c-3.08 2.978-7.34 4.467-12.77 4.467q-5.145 0-8.04-2.47c-1.89-1.647-2.84-4.046-2.84-7.199 0-4.029 1.53-6.989 4.58-8.881q4.62-2.89 15.03-3.258l8.72-.368v5.203q0 8.039-4.68 12.506m53.36 11.666c-8.33 0-14.8-2.557-19.38-7.672-4.56-5.15-6.83-12.419-6.83-21.808q0-14.45 6.93-22.333 6.99-7.882 19.86-7.882 4.155 0 8.31.893c2.76.596 4.94 1.296 6.51 2.102l-2.68 7.409c-1.92-.77-4.03-1.401-6.3-1.891-2.28-.526-4.29-.788-6.04-.788-11.71 0-17.56 7.461-17.56 22.385q0 10.615 4.26 16.29c2.87 3.783 7.11 5.675 12.71 5.675 4.81 0 9.73-1.033 14.77-3.1v7.724c-3.85 1.997-8.7 2.996-14.56 2.996m31.35-7.777c4.94 5.184 11.67 7.777 20.18 7.777q5.835 0 9.93-.894c2.77-.56 5.69-1.506 8.78-2.837v-7.777q-9.09 3.888-18.39 3.888c-5.89 0-10.46-1.751-13.72-5.254q-4.83-5.256-5.1-15.397h39.68v-5.518c0-7.777-2.11-14.03-6.31-18.759q-6.3-7.147-17.13-7.147c-7.71 0-13.86 2.733-18.44 8.198-4.56 5.464-6.83 12.839-6.83 22.122q0 13.82 7.35 21.598m6.73-40.095c2.77-3.013 6.46-4.519 11.08-4.519 4.56 0 8.06 1.472 10.52 4.414 2.45 2.908 3.67 7.112 3.67 12.612h-30.11c.49-5.325 2.11-9.494 4.84-12.507M292.71 234.69c0-27.548 18.78-38.827 37.893-38.827 19.112 0 37.893 11.279 37.893 38.827s-18.781 38.827-37.893 38.827-37.893-11.28-37.893-38.827m59.214 0c0-25.704-15.465-27.982-21.321-27.982-5.855 0-21.322 2.278-21.322 27.982s15.467 27.982 21.322 27.982c5.856 0 21.321-2.278 21.321-27.982m45.005 37.959h-15.688V196.73h20.326l26.735 47.829 4.09 10.304h.331l-.331-13.449V196.73h15.686v75.919h-20.327l-26.956-49.672-3.866-8.46h-.332l.332 13.449zm66.629 0h46.398v-12.797h-30.709V196.73h-15.689zm61.645-31.018-28.504-44.901h18.119l15.909 26.68 2.429 5.206h.331l2.653-5.206 16.017-26.68h16.573l-27.841 45.118v30.801h-15.686zm80.075-45.768c-19.109 0-37.891 11.279-37.891 38.827s18.782 38.827 37.891 38.827c19.113 0 37.895-11.28 37.895-38.827 0-27.548-18.782-38.827-37.895-38.827m0 10.845c5.856 0 21.322 2.278 21.322 27.982s-15.466 27.982-21.322 27.982-21.322-2.278-21.322-27.982 15.467-27.982 21.322-27.982m66.326 65.941h-15.686V196.73h43.307v12.798h-27.621v18.438h26.292v12.472h-26.292zm38.686 0h15.689v-32.211h26.295v-12.472h-26.295v-18.438h27.617V196.73H710.29zm70.064 0h-15.686V196.73h15.686zm71.942-15.292c-3.867 1.735-9.279 3.362-16.126 3.362-13.921 0-26.515-7.483-26.515-25.812 0-15.509 10.274-26.247 27.618-26.247 5.855 0 10.828 1.085 15.358 2.82l.659-13.014c-5.855-1.844-11.045-2.603-17.12-2.603-24.306 0-43.087 13.123-43.087 39.261 0 27.656 20.99 38.393 40.211 38.393 6.188 0 13.15-.976 19.996-3.254zm59.311 15.292h-46.175V196.73h46.175v13.449h-30.489v17.136h27.729v12.472h-27.729v19.414h30.489z"/></svg>