<svg width="864" height="220" viewBox="0 0 864 220" fill="none" xmlns="http://www.w3.org/2000/svg">
<path fill-rule="evenodd" clip-rule="evenodd" d="M68.5835 150.986L30.4847 133.675C27.1718 132.162 27.1718 129.809 30.4847 128.464L43.7365 122.414L68.3995 133.675C71.7124 135.187 76.8659 135.187 79.9948 133.675L104.658 122.414L117.91 128.464C121.222 129.977 121.222 132.33 117.91 133.675L79.8107 150.986C76.8659 152.331 71.5284 152.331 68.5835 150.986Z" fill="#F36F43"/>
<path fill-rule="evenodd" clip-rule="evenodd" d="M68.3995 129.641L30.4847 112.497C27.1718 110.985 27.1718 108.632 30.4847 107.287L43.3684 101.405L68.3995 112.834C71.7124 114.346 76.8659 114.346 79.8107 112.834L104.842 101.405L117.725 107.287C121.038 108.8 121.038 111.153 117.725 112.497L79.8107 129.641C76.6818 131.154 71.5284 131.154 68.3995 129.641Z" fill="#95C03D"/>
<path fill-rule="evenodd" clip-rule="evenodd" d="M68.3995 108.8L30.4847 91.6564C27.1718 90.1437 27.1718 87.7907 30.4847 86.4461L68.3995 69.1345C71.7124 67.6218 76.8659 67.6218 79.8107 69.1345L117.725 86.4461C121.038 87.9587 121.038 90.3118 117.725 91.6564L79.8107 108.8C76.6818 110.313 71.5284 110.313 68.3995 108.8Z" fill="#5FC1E8"/>
<path d="M145.593 109.999C145.593 102.244 147.772 96.4698 152.465 92.8401C156.823 88.8803 162.186 87.0654 168.22 87.0654C174.254 87.0654 179.45 88.8803 183.975 92.8401C188.333 96.7998 190.679 102.409 190.679 110.164C190.679 117.918 188.501 123.693 183.975 127.323C179.617 131.283 174.254 133.098 168.22 133.098C162.186 133.098 156.99 131.283 152.465 127.323C147.939 123.363 145.593 117.589 145.593 109.999ZM155.482 109.999C155.482 115.279 156.487 119.073 158.499 121.548C160.51 124.023 162.856 125.673 165.203 126.168C165.873 126.333 166.209 126.498 166.879 126.498C167.382 126.498 167.885 126.663 168.388 126.663C169.058 126.663 169.393 126.663 170.064 126.498C170.734 126.498 171.069 126.333 171.74 126.168C174.086 125.508 176.265 124.023 178.276 121.548C180.12 119.073 181.293 115.114 181.293 110.164C181.293 104.884 180.288 101.255 178.276 98.7797C176.433 96.3049 174.086 94.655 171.74 94.16C171.069 93.995 170.566 93.83 170.064 93.83C169.393 93.83 169.058 93.665 168.388 93.665C167.717 93.665 167.382 93.665 166.879 93.83C166.376 93.83 165.873 93.995 165.203 94.16C162.856 94.8199 160.678 96.3049 158.499 98.7797C156.487 100.76 155.482 104.719 155.482 109.999Z" fill="#666666"/>
<path d="M197.384 86.8973H209.619L225.71 115.935L228.056 122.37H228.224L228.056 114.121V86.8973H237.442V133.094H225.207L209.116 102.901L206.77 97.7866H206.602L206.77 105.871V133.094H197.384V86.8973Z" fill="#666666"/>
<path d="M246.325 86.8973H255.711V125.175H274.148V133.094H246.325V86.8973V86.8973Z" fill="#666666"/>
<path d="M270.127 86.8973H280.854L290.408 102.736L291.916 105.871H292.251L293.76 102.736L303.313 86.8973H313.202L296.442 113.791V132.269H287.055V113.626L270.127 86.8973Z" fill="#666666"/>
<path d="M312.196 109.999C312.196 102.244 314.375 96.4698 319.068 92.8401C323.426 88.8803 328.789 87.0654 334.823 87.0654C340.857 87.0654 346.053 88.8803 350.578 92.8401C354.936 96.7998 357.283 102.409 357.283 110.164C357.283 117.918 355.104 123.693 350.578 127.323C346.22 131.283 340.857 133.098 334.823 133.098C328.789 133.098 323.593 131.283 319.068 127.323C314.542 123.363 312.196 117.589 312.196 109.999ZM321.917 109.999C321.917 115.279 322.923 119.073 324.934 121.548C326.945 124.023 329.124 125.673 331.638 126.168C332.309 126.333 332.644 126.498 333.314 126.498C333.817 126.498 334.32 126.663 334.823 126.663C335.493 126.663 335.829 126.663 336.499 126.498C337.169 126.498 337.505 126.333 338.175 126.168C340.522 125.508 342.701 124.023 344.712 121.548C346.556 119.073 347.729 115.114 347.729 110.164C347.729 104.884 346.723 101.255 344.712 98.7797C342.701 96.3049 340.522 94.655 338.175 94.16C337.505 93.995 337.002 93.83 336.499 93.83C335.829 93.83 335.493 93.665 334.823 93.665C334.153 93.665 333.817 93.665 333.314 93.83C332.812 93.83 332.309 93.995 331.638 94.16C329.292 94.8199 327.113 96.3049 324.934 98.7797C323.09 100.76 321.917 104.719 321.917 109.999Z" fill="#666666"/>
<path d="M363.987 86.8973H389.799V94.4868H373.373V105.541H389.129V113.296H373.373V132.269H363.987V86.8973Z" fill="#666666"/>
<path d="M396.502 86.8973H422.314V94.4868H405.889V105.541H421.644V113.296H405.889V132.269H396.502V86.8973Z" fill="#666666"/>
<path d="M429.186 132.104V86.8973H438.739V132.104H429.186Z" fill="#666666"/>
<path d="M481.815 88.0522V95.9717C480.139 95.3118 478.463 94.9818 476.787 94.6518C474.943 94.3218 472.932 94.1568 470.753 94.1568C465.892 94.1568 462.037 95.6417 459.355 98.6115C456.673 101.581 455.333 105.376 455.333 109.831C455.333 114.121 456.506 117.915 459.02 120.72C461.534 123.69 465.222 125.175 469.747 125.175C471.423 125.175 473.099 125.01 474.943 124.845C476.954 124.515 478.798 124.185 480.977 123.195L481.647 130.95C481.312 131.115 480.977 131.28 480.474 131.444C479.803 131.609 479.301 131.774 478.463 131.939C477.289 132.269 475.781 132.434 473.937 132.599C472.093 132.764 470.417 132.929 468.406 132.929C468.071 132.929 467.736 132.929 467.736 132.929C467.4 132.929 467.065 132.929 467.065 132.929C461.702 132.599 456.673 130.62 452.316 127.155C447.79 123.525 445.611 117.75 445.611 110.326C445.611 102.901 447.79 97.1266 452.148 93.0019C456.506 88.8772 462.54 86.8973 469.747 86.8973C471.758 86.8973 473.434 86.8973 474.943 87.0623C476.619 87.2273 478.127 87.5572 479.803 87.7222C480.139 87.8872 480.474 87.8872 480.809 88.0522C480.977 87.8872 481.312 88.0522 481.815 88.0522Z" fill="#666666"/>
<path d="M488.353 86.8973H515.17V93.9918H497.571V105.376H513.494V112.306H497.571V125.01H515.17V132.104H488.353V86.8973Z" fill="#666666"/>
<path d="M813.915 97.4327C816.863 97.4327 819.389 98.0854 821.494 99.3907C823.6 100.696 825.21 102.528 826.326 104.886C827.442 107.223 828 109.959 828 113.096V116.349H804.094C804.157 120.412 805.168 123.507 807.126 125.634C809.084 127.76 811.842 128.823 815.4 128.823C817.589 128.823 819.526 128.623 821.21 128.223C822.895 127.823 824.642 127.234 826.453 126.455V131.066C824.705 131.844 822.968 132.413 821.242 132.771C819.537 133.129 817.515 133.308 815.178 133.308C811.852 133.308 808.947 132.634 806.462 131.287C803.999 129.918 802.083 127.918 800.715 125.286C799.346 122.655 798.662 119.434 798.662 115.623C798.662 111.896 799.283 108.675 800.525 105.959C801.789 103.222 803.557 101.117 805.831 99.6433C808.126 98.1696 810.82 97.4327 813.915 97.4327ZM813.852 101.728C811.052 101.728 808.82 102.643 807.157 104.475C805.494 106.307 804.504 108.865 804.189 112.149H822.505C822.484 110.086 822.158 108.275 821.526 106.717C820.916 105.138 819.979 103.917 818.715 103.054C817.452 102.17 815.831 101.728 813.852 101.728Z" fill="#666666"/>
<path d="M783.44 133.308C780.324 133.308 777.577 132.666 775.198 131.381C772.819 130.097 770.966 128.139 769.64 125.507C768.313 122.876 767.65 119.56 767.65 115.56C767.65 111.37 768.345 107.949 769.734 105.296C771.145 102.622 773.082 100.643 775.545 99.3591C778.008 98.0749 780.809 97.4327 783.945 97.4327C785.672 97.4327 787.335 97.6117 788.935 97.9696C790.556 98.3065 791.883 98.7381 792.914 99.2644L791.335 103.654C790.283 103.233 789.061 102.854 787.672 102.517C786.303 102.18 785.019 102.012 783.819 102.012C781.419 102.012 779.419 102.528 777.819 103.559C776.24 104.591 775.05 106.107 774.25 108.107C773.471 110.107 773.082 112.57 773.082 115.497C773.082 118.297 773.461 120.686 774.219 122.665C774.998 124.644 776.145 126.16 777.661 127.213C779.198 128.244 781.114 128.76 783.409 128.76C785.24 128.76 786.893 128.571 788.367 128.192C789.84 127.792 791.177 127.329 792.377 126.802V131.476C791.219 132.066 789.925 132.518 788.493 132.834C787.082 133.15 785.398 133.308 783.44 133.308Z" fill="#666666"/>
<path d="M746.587 97.4958C750.713 97.4958 753.776 98.4222 755.776 100.275C757.776 102.128 758.777 105.086 758.777 109.149V132.676H754.955L753.945 127.56H753.692C752.724 128.823 751.713 129.886 750.66 130.75C749.608 131.592 748.387 132.234 746.997 132.676C745.629 133.097 743.944 133.308 741.944 133.308C739.839 133.308 737.965 132.939 736.323 132.202C734.702 131.465 733.418 130.35 732.47 128.855C731.544 127.36 731.081 125.465 731.081 123.17C731.081 119.718 732.449 117.065 735.186 115.212C737.923 113.36 742.092 112.349 747.692 112.181L753.661 111.928V109.812C753.661 106.822 753.018 104.728 751.734 103.528C750.45 102.328 748.639 101.728 746.302 101.728C744.492 101.728 742.765 101.991 741.123 102.517C739.481 103.043 737.923 103.664 736.449 104.38L734.839 100.401C736.397 99.6012 738.186 98.917 740.207 98.3485C742.229 97.7801 744.355 97.4958 746.587 97.4958ZM753.597 115.623L748.324 115.844C744.008 116.012 740.965 116.718 739.197 117.96C737.428 119.202 736.544 120.96 736.544 123.234C736.544 125.213 737.144 126.676 738.344 127.623C739.544 128.571 741.134 129.044 743.113 129.044C746.187 129.044 748.702 128.192 750.66 126.486C752.618 124.781 753.597 122.223 753.597 118.812V115.623Z" fill="#666666"/>
<path d="M710.302 97.4327C714.618 97.4327 718.06 98.917 720.628 101.886C723.197 104.854 724.481 109.317 724.481 115.275C724.481 119.212 723.892 122.518 722.713 125.192C721.534 127.865 719.87 129.887 717.723 131.255C715.596 132.623 713.081 133.308 710.175 133.308C708.344 133.308 706.733 133.066 705.344 132.581C703.954 132.097 702.764 131.444 701.775 130.623C700.785 129.802 699.964 128.908 699.312 127.939H698.933C698.996 128.76 699.07 129.75 699.154 130.908C699.259 132.066 699.312 133.076 699.312 133.939V148.15H694.038V98.0643H698.364L699.059 103.18H699.312C699.985 102.128 700.807 101.17 701.775 100.307C702.743 99.4223 703.922 98.7275 705.312 98.2222C706.722 97.6959 708.386 97.4327 710.302 97.4327ZM709.386 101.854C706.986 101.854 705.049 102.317 703.575 103.243C702.122 104.17 701.059 105.559 700.385 107.412C699.712 109.244 699.354 111.549 699.312 114.328V115.339C699.312 118.265 699.628 120.739 700.259 122.76C700.912 124.781 701.975 126.318 703.449 127.371C704.943 128.423 706.944 128.95 709.449 128.95C711.596 128.95 713.386 128.371 714.818 127.213C716.249 126.055 717.312 124.444 718.007 122.381C718.723 120.297 719.081 117.907 719.081 115.212C719.081 111.128 718.281 107.886 716.681 105.486C715.102 103.065 712.67 101.854 709.386 101.854Z" fill="#666666"/>
<path d="M685.384 120.391C685.384 123.128 684.7 125.465 683.331 127.402C681.984 129.318 680.089 130.781 677.647 131.792C675.205 132.802 672.331 133.308 669.026 133.308C667.278 133.308 665.625 133.223 664.067 133.055C662.509 132.886 661.078 132.644 659.773 132.329C658.467 132.013 657.32 131.623 656.33 131.16V126.013C657.909 126.665 659.836 127.276 662.109 127.844C664.383 128.392 666.762 128.665 669.247 128.665C671.562 128.665 673.52 128.36 675.12 127.749C676.721 127.118 677.931 126.223 678.752 125.065C679.594 123.886 680.015 122.476 680.015 120.833C680.015 119.254 679.668 117.939 678.973 116.886C678.278 115.812 677.121 114.844 675.499 113.981C673.899 113.096 671.71 112.159 668.931 111.17C666.973 110.475 665.246 109.717 663.752 108.896C662.257 108.054 661.004 107.107 659.994 106.054C658.983 105.001 658.215 103.78 657.688 102.391C657.183 101.001 656.93 99.4116 656.93 97.6221C656.93 95.1588 657.551 93.0535 658.794 91.3061C660.057 89.5376 661.794 88.1902 664.004 87.2638C666.236 86.3164 668.794 85.8427 671.678 85.8427C674.141 85.8427 676.415 86.0743 678.5 86.5375C680.605 87.0006 682.531 87.6217 684.279 88.4007L682.605 93.0114C680.942 92.3166 679.173 91.7377 677.299 91.2745C675.447 90.8113 673.531 90.5797 671.552 90.5797C669.573 90.5797 667.899 90.8745 666.531 91.464C665.183 92.0324 664.152 92.843 663.436 93.8956C662.72 94.9483 662.362 96.201 662.362 97.6537C662.362 99.2748 662.699 100.622 663.373 101.696C664.067 102.77 665.162 103.728 666.657 104.57C668.173 105.391 670.173 106.254 672.657 107.159C675.373 108.149 677.678 109.201 679.573 110.317C681.468 111.412 682.91 112.759 683.9 114.36C684.889 115.939 685.384 117.949 685.384 120.391Z" fill="#666666"/>
<path d="M641.394 133.308C638.278 133.308 635.53 132.666 633.151 131.381C630.772 130.097 628.919 128.139 627.593 125.507C626.267 122.876 625.604 119.56 625.604 115.56C625.604 111.37 626.298 107.949 627.688 105.296C629.098 102.622 631.035 100.643 633.499 99.3591C635.962 98.0749 638.762 97.4327 641.899 97.4327C643.625 97.4327 645.288 97.6117 646.888 97.9696C648.51 98.3065 649.836 98.7381 650.868 99.2644L649.289 103.654C648.236 103.233 647.015 102.854 645.625 102.517C644.257 102.18 642.973 102.012 641.772 102.012C639.372 102.012 637.372 102.528 635.772 103.559C634.193 104.591 633.004 106.107 632.204 108.107C631.425 110.107 631.035 112.57 631.035 115.497C631.035 118.297 631.414 120.686 632.172 122.665C632.951 124.644 634.099 126.16 635.614 127.213C637.151 128.244 639.067 128.76 641.362 128.76C643.194 128.76 644.846 128.571 646.32 128.192C647.794 127.792 649.131 127.329 650.331 126.802V131.476C649.173 132.066 647.878 132.518 646.446 132.834C645.036 133.15 643.352 133.308 641.394 133.308Z" fill="#666666"/>
<path d="M618.466 115.307C618.466 118.149 618.097 120.686 617.361 122.918C616.624 125.15 615.56 127.034 614.171 128.571C612.781 130.108 611.097 131.287 609.118 132.108C607.16 132.908 604.939 133.308 602.455 133.308C600.139 133.308 598.012 132.908 596.076 132.108C594.16 131.287 592.496 130.108 591.086 128.571C589.696 127.034 588.612 125.15 587.833 122.918C587.075 120.686 586.696 118.149 586.696 115.307C586.696 111.517 587.338 108.296 588.623 105.644C589.907 102.97 591.739 100.938 594.118 99.5486C596.518 98.138 599.37 97.4327 602.676 97.4327C605.834 97.4327 608.592 98.138 610.95 99.5486C613.329 100.959 615.171 103.001 616.476 105.675C617.803 108.328 618.466 111.538 618.466 115.307ZM592.128 115.307C592.128 118.086 592.496 120.497 593.233 122.539C593.97 124.581 595.107 126.16 596.644 127.276C598.181 128.392 600.16 128.95 602.581 128.95C604.981 128.95 606.95 128.392 608.487 127.276C610.044 126.16 611.192 124.581 611.929 122.539C612.666 120.497 613.034 118.086 613.034 115.307C613.034 112.549 612.666 110.17 611.929 108.17C611.192 106.149 610.055 104.591 608.518 103.496C606.981 102.401 604.992 101.854 602.549 101.854C598.949 101.854 596.307 103.043 594.623 105.422C592.96 107.802 592.128 111.096 592.128 115.307Z" fill="#666666"/>
<path d="M579.149 109.149C579.149 114.349 578.201 118.697 576.307 122.192C574.412 125.665 571.664 128.287 568.064 130.055C564.485 131.802 560.138 132.676 555.022 132.676H542.484V86.5061H556.411C561.106 86.5061 565.148 87.3693 568.538 89.0957C571.928 90.801 574.538 93.3379 576.37 96.7065C578.222 100.054 579.149 104.201 579.149 109.149ZM573.496 109.338C573.496 105.191 572.801 101.77 571.412 99.075C570.043 96.3801 568.022 94.3801 565.348 93.0748C562.696 91.7484 559.443 91.0852 555.59 91.0852H547.853V128.065H554.39C560.748 128.065 565.517 126.497 568.696 123.36C571.896 120.223 573.496 115.549 573.496 109.338Z" fill="#666666"/>
</svg>
