<svg width="24" height="24" viewBox="0 0 24 24" fill="none" xmlns="http://www.w3.org/2000/svg">
<path d="M20 6H4V18H20V6Z" fill="#0053A5"/>
<path d="M11.9998 6H8.92285V18H11.9998V6Z" fill="#FFCE00"/>
<path d="M20 10.2344H4V13.7638H20V10.2344Z" fill="#FFCE00"/>
<path d="M11.0765 6H9.8457V18H11.0765V6Z" fill="#D21034"/>
<path d="M20 11.293H4V12.7047H20V11.293Z" fill="#D21034"/>
<path d="M20 6L20 18L4 18L4 6L20 6ZM20 5L4 5C3.4 5 3 5.4 3 6L3 18C3 18.6 3.4 19 4 19L20 19C20.6 19 21 18.6 21 18L21 6C21 5.4 20.6 5 20 5Z" fill="#B5B5B5"/>
</svg>
