<svg width="24" height="24" viewBox="0 0 24 24" fill="none" xmlns="http://www.w3.org/2000/svg">
<path d="M20 6H4V18H20V6Z" fill="#E41E20"/>
<path d="M10.7838 8.0002C10.6644 7.99805 10.4663 8.04077 10.4708 8.13845C10.1384 8.07769 10.1037 8.22412 10.1233 8.35441C10.1549 8.3027 10.1934 8.27463 10.223 8.26934C10.2673 8.26149 10.3137 8.27676 10.3611 8.30778C10.4085 8.33881 10.4606 8.38888 10.4838 8.41986C10.3665 8.44977 10.2759 8.43046 10.1839 8.41331C10.1385 8.40485 10.0751 8.37765 10.0374 8.3495C9.99963 8.32135 9.98775 8.29485 9.92842 8.23006C9.85846 8.15368 9.78401 8.17519 9.80721 8.29387C9.86086 8.4041 9.95049 8.45326 10.0634 8.47303C10.1178 8.48255 10.1987 8.5032 10.2905 8.5033C10.3823 8.5034 10.4853 8.48916 10.5414 8.50166C10.5077 8.52421 10.4696 8.56308 10.3941 8.57856C10.3173 8.5943 10.2006 8.52987 10.1294 8.51229C10.1384 8.57613 10.214 8.63581 10.3626 8.66691C10.6069 8.72363 10.8099 8.76674 10.9441 8.84443C11.0783 8.92211 11.1629 9.01936 11.2234 9.09557C11.3436 9.24722 11.3499 9.36364 11.3576 9.38925C11.3823 9.63155 11.3031 9.76784 11.1558 9.80973C11.0822 9.83068 10.9514 9.79124 10.9035 9.7312C10.8555 9.67118 10.8088 9.568 10.8221 9.40643C10.8351 9.34305 10.903 9.17795 10.8452 9.14384C10.5785 8.98668 10.2547 8.82775 10.0205 8.73318C9.95645 8.70733 9.90371 8.80012 9.88316 8.83625C9.4852 8.78457 9.1264 8.4974 8.96489 8.19162C8.85489 7.98336 8.67359 8.19205 8.70407 8.38877C8.75327 8.60834 8.91015 8.76709 9.09838 8.87961C9.29156 8.99304 9.53303 9.10466 9.77729 9.09885C9.90889 9.1254 9.90759 9.30695 9.74968 9.34099C9.44084 9.34308 9.19445 9.33487 8.96182 9.09558C8.78537 8.92378 8.68604 9.12848 8.73705 9.24446C8.82349 9.60201 9.30182 9.70213 9.78573 9.58641C9.97312 9.55332 9.86091 9.76744 9.80798 9.76966C9.60578 9.92425 9.24379 10.0755 8.925 9.76802C8.77912 9.64891 8.68049 9.74903 8.73475 9.921C8.8762 10.3694 9.41729 10.2752 9.7888 10.0543C9.88442 9.9975 9.97121 10.1297 9.85477 10.2302C9.39277 10.5745 9.16177 10.5784 8.95338 10.4462C8.69249 10.3365 8.66954 10.645 8.8245 10.7464C8.99673 10.8591 9.43503 10.7746 9.75658 10.5591C9.89443 10.4498 9.90067 10.6207 9.81335 10.6883C9.43176 11.04 9.28136 11.1326 8.88357 11.0753C8.68632 11.0589 8.68929 11.3182 8.84445 11.4197C9.0563 11.5582 9.47001 11.3283 9.7911 11.0442C9.92625 10.9672 9.94844 11.0935 9.88162 11.243C9.68543 11.5069 9.50129 11.6626 9.32391 11.7346C9.14654 11.8067 8.97593 11.7952 8.85519 11.751C8.70789 11.697 8.68942 11.8603 8.7708 12.0087C8.81986 12.0981 9.02316 12.1268 9.24259 12.0438C9.46204 11.9609 9.69762 11.7663 9.85938 11.5383C10.0001 11.4069 9.98261 11.5834 9.91845 11.7076C9.59454 12.2537 9.2983 12.4562 8.90812 12.4218C8.73512 12.3905 8.69582 12.5339 8.80609 12.6664C8.99972 12.8376 9.24181 12.8323 9.45356 12.6631C9.6418 12.4696 10.0019 12.0528 10.1908 11.8295C10.3239 11.7164 10.3664 11.8279 10.3273 12.0577C10.2918 12.1894 10.2029 12.328 9.96064 12.4291C9.79513 12.5299 9.91942 12.6687 10.0435 12.6713C10.1118 12.6727 10.2504 12.5876 10.3565 12.4602C10.496 12.2927 10.5043 12.1802 10.5813 11.9195C10.6539 11.7924 10.7838 11.8517 10.7838 11.9849C10.7215 12.2461 10.668 12.2929 10.5421 12.3997C10.4217 12.5202 10.626 12.5604 10.6948 12.511C10.8939 12.3678 10.9666 12.1827 11.0331 12.0144C11.0811 11.8929 11.2204 11.9518 11.1558 12.1502C11.0015 12.6243 10.748 12.811 10.3043 12.9069C10.2594 12.9154 10.2319 12.9437 10.2476 12.9993C10.3071 13.0653 10.3668 13.1251 10.4263 13.1908C10.152 13.2759 9.92909 13.3238 9.65455 13.4092C9.51985 13.315 9.41104 13.2351 9.27635 13.1409C9.24083 13.0523 9.22427 12.9172 9.02549 13.0124C8.8908 12.9461 8.82867 12.9704 8.75392 13.037C8.86183 13.0413 8.90877 13.0721 8.95108 13.1245C9.00632 13.2796 9.13369 13.2946 9.26407 13.2505C9.34889 13.3267 9.39407 13.3851 9.47887 13.4616C9.32055 13.4558 9.21026 13.4528 9.05234 13.4476C8.9016 13.275 8.78128 13.2845 8.67337 13.4198C8.59113 13.4333 8.55627 13.4352 8.5 13.5417C8.5885 13.503 8.64418 13.4914 8.68258 13.5336C8.84285 13.6326 8.94755 13.6105 9.02703 13.5336C9.18165 13.5436 9.32099 13.5522 9.4758 13.563C9.41894 13.6145 9.34089 13.6419 9.28402 13.6939C9.05178 13.623 8.93057 13.7184 8.88971 13.9205C8.85858 14.0021 8.84401 14.086 8.85749 14.1733C8.87997 14.0935 8.91611 14.0249 8.98253 13.9819C9.18952 14.0379 9.26736 13.9478 9.27865 13.8158C9.37843 13.729 9.52888 13.7098 9.62846 13.6219C9.7449 13.6617 9.80118 13.6863 9.91844 13.7258C9.96014 13.8609 10.0545 13.9144 10.2077 13.8796C10.39 13.8857 10.3578 13.9655 10.3726 14.0293C10.4211 13.9376 10.4197 13.8485 10.3074 13.7675C10.2665 13.6491 10.176 13.5953 10.0573 13.6636C9.94558 13.6298 9.91621 13.5812 9.80491 13.5475C10.0864 13.4518 10.2861 13.4302 10.5674 13.3348C10.6379 13.4056 10.6937 13.4565 10.7646 13.5196C10.802 13.5434 10.8378 13.5494 10.8597 13.5196C11.036 13.2476 11.1147 13.0078 11.2786 12.8284C11.3412 12.7542 11.4203 12.654 11.508 12.6296C11.5518 12.6174 11.6056 12.6248 11.6399 12.6648C11.6742 12.7047 11.7012 12.7783 11.6898 12.8881C11.6734 13.0457 11.6376 13.0955 11.5962 13.19C11.5547 13.2845 11.504 13.3426 11.452 13.4149C11.3478 13.5596 11.2103 13.6439 11.129 13.7004C10.9663 13.8136 10.8975 13.7641 10.7715 13.7569C10.6087 13.7764 10.5654 13.8609 10.6986 13.9778C10.8232 14.0469 10.9352 14.0554 11.0262 14.0375C11.1043 14.0221 11.1958 13.9145 11.2609 13.8567C11.3343 13.7663 11.4559 13.8735 11.3729 13.9786C11.2222 14.1695 11.0716 14.2954 10.8858 14.2927C10.6905 14.3207 10.7271 14.4377 10.8567 14.4948C11.0899 14.5974 11.3005 14.4052 11.4075 14.2788C11.49 14.1825 11.5486 14.1788 11.534 14.3279C11.4521 14.5979 11.3401 14.7022 11.1574 14.7156C11.0091 14.701 11.0075 14.823 11.116 14.9054C11.3629 15.0877 11.5418 14.7773 11.6253 14.5897C11.6849 14.4204 11.7762 14.5009 11.7857 14.6404C11.7869 14.8268 11.7079 14.9789 11.4965 15.1697C11.6583 15.4446 11.8469 15.7242 12.0089 16L12.5 10.1674L12.009 9.2459C11.9579 9.19555 11.785 8.97828 11.7398 8.94812C11.7233 8.92935 11.7133 8.91608 11.7375 8.9064C11.7609 8.89705 11.8157 8.88657 11.8525 8.87941C11.7484 8.76818 11.6592 8.73251 11.4621 8.67163C11.5101 8.64981 11.5568 8.66251 11.6983 8.65528C11.6422 8.57023 11.5167 8.43997 11.3547 8.37713C11.4617 8.29601 11.4825 8.29058 11.5886 8.19552C11.4049 8.18162 11.2479 8.14428 11.09 8.09326C10.9902 8.04348 10.8515 8.00121 10.7839 8L10.7838 8.0002ZM10.8014 8.22843C10.8986 8.22843 10.9587 8.26393 10.9587 8.30697C10.9587 8.35075 10.8986 8.38632 10.8014 8.38632C10.7047 8.38632 10.6434 8.3475 10.6434 8.3037C10.6434 8.26066 10.7047 8.22843 10.8014 8.22843Z" fill="black"/>
<path d="M13.2162 8.0002C13.3356 7.99805 13.5337 8.04077 13.5292 8.13845C13.8616 8.07769 13.8963 8.22412 13.8767 8.35441C13.8451 8.3027 13.8066 8.27463 13.777 8.26934C13.7327 8.26149 13.6863 8.27676 13.6389 8.30778C13.5915 8.33881 13.5394 8.38888 13.5162 8.41986C13.6335 8.44977 13.7241 8.43046 13.8161 8.41331C13.8615 8.40485 13.9249 8.37765 13.9626 8.3495C14.0004 8.32135 14.0122 8.29485 14.0716 8.23006C14.1415 8.15368 14.216 8.17519 14.1928 8.29387C14.1391 8.4041 14.0495 8.45326 13.9366 8.47303C13.8822 8.48255 13.8013 8.5032 13.7095 8.5033C13.6177 8.5034 13.5147 8.48916 13.4586 8.50166C13.4923 8.52421 13.5304 8.56308 13.6059 8.57856C13.6827 8.5943 13.7994 8.52987 13.8706 8.51229C13.8616 8.57613 13.786 8.63581 13.6374 8.66691C13.3931 8.72363 13.1901 8.76674 13.0559 8.84443C12.9217 8.92211 12.8371 9.01936 12.7766 9.09557C12.6564 9.24722 12.6501 9.36364 12.6424 9.38925C12.6177 9.63155 12.6969 9.76784 12.8442 9.80973C12.9178 9.83068 13.0486 9.79124 13.0965 9.7312C13.1445 9.67118 13.1912 9.568 13.1779 9.40643C13.1649 9.34305 13.097 9.17795 13.1548 9.14384C13.4215 8.98668 13.7453 8.82775 13.9795 8.73318C14.0435 8.70733 14.0963 8.80012 14.1168 8.83625C14.5148 8.78457 14.8736 8.4974 15.0351 8.19162C15.1451 7.98336 15.3264 8.19205 15.2959 8.38877C15.2467 8.60834 15.0898 8.76709 14.9016 8.87961C14.7084 8.99304 14.467 9.10466 14.2227 9.09885C14.0911 9.1254 14.0924 9.30695 14.2503 9.34099C14.5592 9.34308 14.8055 9.33487 15.0382 9.09558C15.2146 8.92378 15.314 9.12848 15.2629 9.24446C15.1765 9.60201 14.6982 9.70213 14.2143 9.58641C14.0269 9.55332 14.1391 9.76744 14.192 9.76966C14.3942 9.92425 14.7562 10.0755 15.075 9.76802C15.2209 9.64891 15.3195 9.74903 15.2653 9.921C15.1238 10.3694 14.5827 10.2752 14.2112 10.0543C14.1156 9.9975 14.0288 10.1297 14.1452 10.2302C14.6072 10.5745 14.8382 10.5784 15.0466 10.4462C15.3075 10.3365 15.3305 10.645 15.1755 10.7464C15.0033 10.8591 14.565 10.7746 14.2434 10.5591C14.1056 10.4498 14.0993 10.6207 14.1867 10.6883C14.5682 11.04 14.7186 11.1326 15.1164 11.0753C15.3137 11.0589 15.3107 11.3182 15.1556 11.4197C14.9437 11.5582 14.53 11.3283 14.2089 11.0442C14.0738 10.9672 14.0516 11.0935 14.1184 11.243C14.3146 11.5069 14.4987 11.6626 14.6761 11.7346C14.8535 11.8067 15.0241 11.7952 15.1448 11.751C15.2921 11.697 15.3106 11.8603 15.2292 12.0087C15.1801 12.0981 14.9768 12.1268 14.7574 12.0438C14.538 11.9609 14.3024 11.7663 14.1406 11.5383C13.9999 11.4069 14.0174 11.5834 14.0816 11.7076C14.4055 12.2537 14.7017 12.4562 15.0919 12.4218C15.2649 12.3905 15.3042 12.5339 15.1939 12.6664C15.0003 12.8376 14.7582 12.8323 14.5464 12.6631C14.3582 12.4696 13.9981 12.0528 13.8092 11.8295C13.6761 11.7164 13.6336 11.8279 13.6727 12.0577C13.7082 12.1894 13.7971 12.328 14.0394 12.4291C14.2049 12.5299 14.0806 12.6687 13.9565 12.6713C13.8882 12.6727 13.7496 12.5876 13.6435 12.4602C13.504 12.2927 13.4957 12.1802 13.4187 11.9195C13.3461 11.7924 13.2162 11.8517 13.2162 11.9849C13.2785 12.2461 13.332 12.2929 13.4579 12.3997C13.5783 12.5202 13.374 12.5604 13.3052 12.511C13.1061 12.3678 13.0334 12.1827 12.9669 12.0144C12.9189 11.8929 12.7796 11.9518 12.8442 12.1502C12.9985 12.6243 13.252 12.811 13.6957 12.9069C13.7406 12.9154 13.7681 12.9437 13.7524 12.9993C13.6929 13.0653 13.6332 13.1251 13.5737 13.1908C13.848 13.2759 14.0709 13.3238 14.3455 13.4092C14.4801 13.315 14.589 13.2351 14.7237 13.1409C14.7592 13.0523 14.7757 12.9172 14.9745 13.0124C15.1092 12.9461 15.1713 12.9704 15.2461 13.037C15.1382 13.0413 15.0912 13.0721 15.0489 13.1245C14.9937 13.2796 14.8663 13.2946 14.7359 13.2505C14.6511 13.3267 14.6059 13.3851 14.5211 13.4616C14.6794 13.4558 14.7897 13.4528 14.9477 13.4476C15.0984 13.275 15.2187 13.2845 15.3266 13.4198C15.4089 13.4333 15.4437 13.4352 15.5 13.5417C15.4115 13.503 15.3558 13.4914 15.3174 13.5336C15.1572 13.6326 15.0524 13.6105 14.973 13.5336C14.8183 13.5436 14.679 13.5522 14.5242 13.563C14.5811 13.6145 14.6591 13.6419 14.716 13.6939C14.9482 13.623 15.0694 13.7184 15.1103 13.9205C15.1414 14.0021 15.156 14.086 15.1425 14.1733C15.12 14.0935 15.0839 14.0249 15.0175 13.9819C14.8105 14.0379 14.7326 13.9478 14.7214 13.8158C14.6216 13.729 14.4711 13.7098 14.3715 13.6219C14.2551 13.6617 14.1988 13.6863 14.0816 13.7258C14.0399 13.8609 13.9455 13.9144 13.7923 13.8796C13.61 13.8857 13.6422 13.9655 13.6274 14.0293C13.5789 13.9376 13.5803 13.8485 13.6926 13.7675C13.7335 13.6491 13.824 13.5953 13.9427 13.6636C14.0544 13.6298 14.0838 13.5812 14.1951 13.5475C13.9136 13.4518 13.7139 13.4302 13.4326 13.3348C13.3621 13.4056 13.3063 13.4565 13.2354 13.5196C13.198 13.5434 13.1622 13.5494 13.1403 13.5196C12.964 13.2476 12.8853 13.0078 12.7214 12.8284C12.6588 12.7542 12.5797 12.654 12.492 12.6296C12.4482 12.6174 12.3944 12.6248 12.3601 12.6648C12.3258 12.7047 12.2988 12.7783 12.3102 12.8881C12.3266 13.0457 12.3624 13.0955 12.4038 13.19C12.4453 13.2845 12.496 13.3426 12.548 13.4149C12.6522 13.5596 12.7897 13.6439 12.871 13.7004C13.0337 13.8136 13.1025 13.7641 13.2285 13.7569C13.3913 13.7764 13.4346 13.8609 13.3014 13.9778C13.1768 14.0469 13.0648 14.0554 12.9738 14.0375C12.8957 14.0221 12.8042 13.9145 12.7391 13.8567C12.6657 13.7663 12.5441 13.8735 12.6271 13.9786C12.7778 14.1695 12.9284 14.2954 13.1142 14.2927C13.3095 14.3207 13.2729 14.4377 13.1433 14.4948C12.9101 14.5974 12.6995 14.4052 12.5925 14.2788C12.51 14.1825 12.4514 14.1788 12.466 14.3279C12.5479 14.5979 12.6599 14.7022 12.8426 14.7156C12.9909 14.701 12.9925 14.823 12.884 14.9054C12.6371 15.0877 12.4582 14.7773 12.3747 14.5897C12.3151 14.4204 12.2238 14.5009 12.2143 14.6404C12.2131 14.8268 12.2921 14.9789 12.5035 15.1697C12.3417 15.4446 12.1531 15.7242 11.9911 16L11.5 10.1674L11.991 9.2459C12.0421 9.19555 12.215 8.97828 12.2602 8.94812C12.2767 8.92935 12.2867 8.91608 12.2625 8.9064C12.2391 8.89705 12.1843 8.88657 12.1475 8.87941C12.2516 8.76818 12.3408 8.73251 12.5379 8.67163C12.4899 8.64981 12.4432 8.66251 12.3017 8.65528C12.3578 8.57023 12.4833 8.43997 12.6453 8.37713C12.5383 8.29601 12.5175 8.29058 12.4114 8.19552C12.5951 8.18162 12.7521 8.14428 12.91 8.09326C13.0098 8.04348 13.1485 8.00121 13.2161 8L13.2162 8.0002ZM13.1986 8.22843C13.1014 8.22843 13.0413 8.26393 13.0413 8.30697C13.0413 8.35075 13.1014 8.38632 13.1986 8.38632C13.2953 8.38632 13.3566 8.3475 13.3566 8.3037C13.3566 8.26066 13.2953 8.22843 13.1986 8.22843Z" fill="black"/>
<path d="M20 6L20 18L4 18L4 6L20 6ZM20 5L4 5C3.4 5 3 5.4 3 6L3 18C3 18.6 3.4 19 4 19L20 19C20.6 19 21 18.6 21 18L21 6C21 5.4 20.6 5 20 5Z" fill="#B5B5B5"/>
</svg>
