<svg width="24" height="24" viewBox="0 0 24 24" fill="none" xmlns="http://www.w3.org/2000/svg">
<path d="M20 6H4V18H20V6Z" fill="#00247D"/>
<path d="M4 6L13 10.5L4 6ZM13 6L4 10.5L13 6Z" fill="black"/>
<path d="M4 6L13 10.5M13 6L4 10.5" stroke="white"/>
<path d="M4 6L13 10.5L4 6ZM13 6L4 10.5L13 6Z" fill="black"/>
<path d="M4 6L13 10.5M13 6L4 10.5" stroke="#CF142B" stroke-width="0.5"/>
<path d="M8.5 6V11.25V6ZM4 8.25H14.5H4Z" fill="black"/>
<path d="M8.5 6V11.25M4 8.25H14.5" stroke="white"/>
<path d="M8.5 6V11.25V6ZM4 8.25H14.5H4Z" fill="black"/>
<path d="M8.5 6V11.25M4 8.25H14.5" stroke="#CF142B" stroke-width="0.5"/>
<path d="M4 10.5H13V6H16V12H4V10.5Z" fill="#00247D"/>
<path d="M14.709 12.3106C14.709 14.543 14.8871 15.3357 15.4981 15.9478C16.1091 16.5598 16.3406 16.6562 16.5109 16.75C16.7074 16.6418 16.9339 16.523 17.4877 15.9692C18.0353 15.4215 18.3002 14.632 18.3002 12.2725C17.9019 12.443 17.7035 12.4992 17.3551 12.4982C17.097 12.5235 16.699 12.3582 16.4609 12.25C16.3054 12.349 16.0797 12.4671 15.6742 12.4804C15.2058 12.5 15.0574 12.4244 14.709 12.3106L14.709 12.3106Z" fill="#CCCC33"/>
<path d="M14.8168 12.4531C14.8168 13.1437 14.776 14.085 14.9219 14.6296C15.0684 15.1765 15.1021 15.2566 15.2123 15.4475L17.7804 15.4284C17.939 15.1537 17.947 14.9835 18.0646 14.5444C18.1819 14.1069 18.2115 13.1318 18.2149 12.4054C17.9567 12.5363 17.6185 12.629 17.2902 12.5883C17.0271 12.5692 16.784 12.5119 16.5008 12.3594C16.2552 12.4997 16.1696 12.5637 15.7641 12.5801C15.4483 12.5949 15.1925 12.6193 14.8168 12.4531L14.8168 12.4531Z" fill="white"/>
<path d="M15.2178 15.4297C15.4006 15.7964 16.2623 16.4992 16.5143 16.6447C16.8018 16.4787 17.562 15.7842 17.7739 15.4297H15.2178H15.2178Z" fill="#99CCFF"/>
<path d="M16.5638 13.4724C16.645 13.6545 16.9054 13.8555 16.9769 13.9541C16.8858 14.0526 16.8676 14.0419 16.8796 14.225C17.038 14.067 17.0408 14.0505 17.1427 14.0744C17.3659 14.2868 17.1827 14.7428 16.9982 14.8419C16.8138 14.9477 16.8473 14.8383 16.5709 14.9708C16.6976 15.0741 16.8444 14.9557 16.9644 14.9873C17.0296 15.0611 16.9334 15.1955 16.9841 15.3221C17.0901 15.3124 17.0774 15.1083 17.1021 15.0343C17.1795 14.7631 17.6453 14.574 17.669 14.3253C17.7672 14.2814 17.8653 14.3116 17.9847 14.3755C17.9253 14.1425 17.7286 14.145 17.6758 14.0722C17.5503 13.8894 17.4391 13.6807 17.171 13.6266C16.9675 13.5855 16.9827 13.639 16.8523 13.5542C16.7711 13.4939 16.5243 13.3799 16.5638 13.4724L16.5638 13.4724Z" fill="#FF9900"/>
<path d="M15.9126 14.2447C16.0435 14.0911 16.1084 13.7778 16.1663 13.6714C16.3003 13.7021 16.2988 13.7225 16.463 13.6269C16.2425 13.5672 16.2259 13.5725 16.2005 13.4754C16.2932 13.1881 16.8017 13.1295 16.9798 13.2387C17.164 13.3447 17.0469 13.3676 17.299 13.5387C17.3356 13.3836 17.1571 13.3152 17.1304 13.1992C17.1684 13.1098 17.338 13.1281 17.4317 13.0263C17.3731 12.9414 17.1898 13.0475 17.1096 13.0613C16.822 13.1226 16.429 12.8184 16.1873 12.9146C16.1007 12.8524 16.0828 12.7555 16.0863 12.625C15.898 12.784 15.9923 12.9486 15.9494 13.0271C15.8385 13.2183 15.697 13.4095 15.772 13.6608C15.829 13.8515 15.8714 13.8137 15.8537 13.9633C15.8357 14.0599 15.8453 14.3211 15.9126 14.2447V14.2447Z" fill="#FF9900"/>
<path d="M16.9764 14.3558C16.7709 14.3284 16.456 14.4376 16.3306 14.4453C16.2889 14.3202 16.3079 14.3108 16.1372 14.2263C16.1976 14.4371 16.211 14.4479 16.137 14.5188C15.8311 14.5919 15.5155 14.2072 15.5214 14.0054C15.5212 13.8003 15.6024 13.884 15.6256 13.5898C15.4674 13.6402 15.4983 13.8212 15.408 13.9029C15.3081 13.9182 15.2368 13.7704 15.0969 13.7466C15.0511 13.8383 15.2411 13.933 15.2949 13.9913C15.4988 14.1942 15.429 14.6722 15.6404 14.8197C15.6293 14.9226 15.5516 14.9872 15.4326 15.0519C15.6728 15.1233 15.7718 14.9612 15.8644 14.9556C16.0935 14.9472 16.3383 14.9638 16.525 14.7726C16.6668 14.6274 16.6109 14.6123 16.7543 14.5494C16.8503 14.5141 17.0799 14.3712 16.9764 14.3558L16.9764 14.3558Z" fill="#FF9900"/>
<path d="M17.1069 13.7216C17.1303 13.7216 17.1493 13.7035 17.1493 13.6812C17.1493 13.6589 17.1303 13.6407 17.1069 13.6407C17.0834 13.6407 17.0645 13.6589 17.0645 13.6812C17.0645 13.7035 17.0834 13.7216 17.1069 13.7216Z" fill="white"/>
<path d="M15.8892 13.6726C15.8782 13.6528 15.8526 13.6453 15.8319 13.6557C15.8111 13.6661 15.8032 13.6906 15.8142 13.7103C15.8251 13.7301 15.8508 13.7376 15.8715 13.7272C15.8922 13.7168 15.9001 13.6923 15.8892 13.6726Z" fill="white"/>
<path d="M16.4748 14.6727C16.4627 14.6918 16.4692 14.7167 16.4893 14.7282C16.5094 14.7397 16.5354 14.7335 16.5475 14.7144C16.5596 14.6952 16.5531 14.6704 16.533 14.6589C16.5129 14.6474 16.4868 14.6536 16.4748 14.6727Z" fill="white"/>
<path d="M20 6L20 18L4 18L4 6L20 6ZM20 5L4 5C3.4 5 3 5.4 3 6L3 18C3 18.6 3.4 19 4 19L20 19C20.6 19 21 18.6 21 18L21 6C21 5.4 20.6 5 20 5Z" fill="#B5B5B5"/>
</svg>
