<svg width="24" height="24" viewBox="0 0 24 24" fill="none" xmlns="http://www.w3.org/2000/svg">
<path d="M20 6H4V18H20V6Z" fill="#74ACDF"/>
<path d="M20 11H4V14H20V11Z" fill="white"/>
<path d="M11.9287 12.0284L12.5689 13.3922C12.5689 13.3922 12.5799 13.4183 12.5977 13.4111C12.6155 13.4039 12.6044 13.3779 12.6044 13.3779L12.0709 11.9708M12.0556 12.5015C12.0478 12.7089 12.1782 12.823 12.1612 13.0082C12.1442 13.1934 12.2482 13.2981 12.2723 13.3702C12.2965 13.4422 12.2462 13.4853 12.2679 13.4955C12.2895 13.5058 12.3369 13.4489 12.3215 13.3465C12.306 13.244 12.2265 13.2136 12.2452 12.9874C12.2639 12.7612 12.1506 12.7085 12.1782 12.5021" fill="#F6B40E"/>
<path d="M11.9287 12.0284L12.5689 13.3922C12.5689 13.3922 12.5799 13.4183 12.5977 13.4111C12.6155 13.4039 12.6044 13.3779 12.6044 13.3779L12.0709 11.9708M12.0556 12.5015C12.0478 12.7089 12.1782 12.823 12.1612 13.0082C12.1442 13.1934 12.2482 13.2981 12.2723 13.3702C12.2965 13.4422 12.2462 13.4853 12.2679 13.4955C12.2895 13.5058 12.3369 13.4489 12.3215 13.3465C12.306 13.244 12.2265 13.2136 12.2452 12.9874C12.2639 12.7612 12.1506 12.7085 12.1782 12.5021" stroke="#85340A" stroke-width="0.01"/>
<path d="M12.0964 12.5359C12.1066 12.735 12.2221 12.8232 12.1994 13.0048C12.2492 12.8612 12.1291 12.7499 12.136 12.5379M11.9639 12.0153L12.4023 12.952L12.0349 11.9865" fill="#85340A"/>
<path d="M12 12.6116C12.3452 12.6116 12.625 12.338 12.625 12.0005C12.625 11.663 12.3452 11.3894 12 11.3894C11.6548 11.3894 11.375 11.663 11.375 12.0005C11.375 12.338 11.6548 12.6116 12 12.6116Z" fill="#F6B40E" stroke="#85340A" stroke-width="0.01"/>
<path d="M12.213 11.8699C12.1704 11.8699 12.1295 11.888 12.1055 11.9256C12.1535 11.9679 12.2597 11.9725 12.3319 11.9207C12.3006 11.8878 12.2557 11.8699 12.213 11.8699L12.213 11.8699ZM12.2123 11.8795C12.2539 11.8788 12.2927 11.8974 12.2981 11.9159C12.25 11.9676 12.1732 11.9632 12.1252 11.9256C12.1462 11.8927 12.18 11.8801 12.2123 11.8795V11.8795Z" fill="#843511"/>
<path d="M11.9043 12.0847C11.8837 12.0884 11.8691 12.1062 11.8691 12.1267C11.8691 12.15 11.8889 12.1686 11.9127 12.1686C11.9268 12.1686 11.9398 12.1621 11.9479 12.1507C11.9645 12.1629 11.9876 12.1642 11.9999 12.1645C12.0018 12.1645 12.0043 12.1645 12.0055 12.1645C12.0179 12.1642 12.0409 12.1629 12.0576 12.1507C12.0657 12.1621 12.0786 12.1686 12.0927 12.1686C12.1166 12.1686 12.1363 12.15 12.1363 12.1267C12.1363 12.1062 12.1217 12.0884 12.1012 12.0847C12.1127 12.0887 12.1202 12.0996 12.1202 12.1115C12.1202 12.1271 12.1073 12.1397 12.0913 12.1397C12.076 12.1397 12.0634 12.1278 12.0625 12.1129C12.0578 12.1221 12.0392 12.1493 12.0027 12.1507C11.9662 12.1493 11.9477 12.1221 11.943 12.1129C11.9421 12.1278 11.9295 12.1397 11.9141 12.1397C11.8982 12.1397 11.8853 12.1271 11.8853 12.1115C11.8853 12.0996 11.8928 12.0887 11.9043 12.0847H11.9043Z" fill="#85340A"/>
<path d="M11.9512 12.2097C11.9031 12.2097 11.8841 12.2523 11.8408 12.2805C11.8649 12.2712 11.8838 12.2526 11.9175 12.2338C11.9511 12.215 11.9798 12.2379 11.999 12.2379H11.9997C12.0189 12.2379 12.0476 12.215 12.0813 12.2338C12.115 12.2526 12.1346 12.2712 12.1586 12.2805C12.1154 12.2523 12.0956 12.2097 12.0475 12.2097C12.0379 12.2097 12.0189 12.2148 11.9997 12.2242H11.999C11.9798 12.2148 11.9608 12.2097 11.9512 12.2097Z" fill="#85340A"/>
<path d="M11.9356 12.2649C11.9166 12.2657 11.8915 12.2695 11.8555 12.28C11.942 12.2612 11.9611 12.2897 11.9996 12.2897H12.0003C12.0388 12.2897 12.0579 12.2612 12.1444 12.28C12.0483 12.2518 12.0292 12.2704 12.0003 12.2704H11.9996C11.9816 12.2704 11.9673 12.2635 11.9356 12.2649H11.9356Z" fill="#85340A"/>
<path d="M11.8591 12.2803C11.8535 12.2804 11.8474 12.2804 11.8408 12.281C11.9418 12.2904 11.8933 12.347 11.999 12.347H11.9997C12.1055 12.347 12.0577 12.2904 12.1586 12.281C12.0529 12.2716 12.0863 12.3326 11.9997 12.3326H11.999C11.9179 12.3326 11.9429 12.2793 11.8591 12.2803H11.8591Z" fill="#85340A"/>
<path d="M12.0862 12.4311C12.0862 12.3843 12.0474 12.3464 11.9996 12.3464C11.9519 12.3464 11.9131 12.3843 11.9131 12.4311C11.9226 12.3919 11.9585 12.3642 11.9996 12.3642C12.0409 12.3642 12.0767 12.3919 12.0862 12.4311Z" fill="#85340A"/>
<path d="M11.6113 11.8653C11.7219 11.7713 11.8613 11.7572 11.9383 11.8277C11.9571 11.8524 11.9692 11.8787 11.9741 11.9063C11.9838 11.9598 11.9667 12.0176 11.9238 12.0769C11.9286 12.0769 11.9383 12.0816 11.9431 12.0863C11.9812 12.0149 11.9947 11.9416 11.9822 11.8719C11.9789 11.8537 11.9738 11.8357 11.9671 11.8183C11.8614 11.7337 11.7172 11.7243 11.6114 11.8653L11.6113 11.8653Z" fill="#85340A"/>
<path d="M11.7849 11.8386C11.8473 11.8386 11.8618 11.8528 11.8906 11.8763C11.9195 11.8998 11.9339 11.895 11.9387 11.8998C11.9435 11.9045 11.9387 11.9185 11.9291 11.9138C11.9195 11.9091 11.9002 11.8998 11.8714 11.8762C11.8426 11.8527 11.8138 11.8527 11.7849 11.8527C11.6984 11.8527 11.6503 11.9232 11.6407 11.9185C11.6311 11.9138 11.6888 11.8386 11.7849 11.8386L11.7849 11.8386Z" fill="#85340A"/>
<path d="M11.7874 11.9545C11.8113 11.9545 11.8307 11.9355 11.8307 11.9122C11.8307 11.8888 11.8113 11.8699 11.7874 11.8699C11.7635 11.8699 11.7441 11.8888 11.7441 11.9122C11.7441 11.9355 11.7635 11.9545 11.7874 11.9545Z" fill="#85340A"/>
<path d="M11.6689 11.9418C11.7507 12.0029 11.8324 11.9982 11.8805 11.97C11.9286 11.9418 11.9286 11.9324 11.919 11.9324C11.9094 11.9324 11.8998 11.9418 11.8613 11.9606C11.8228 11.9794 11.7651 11.9794 11.669 11.9418L11.6689 11.9418Z" fill="#85340A"/>
<path d="M20 6L20 18L4 18L4 6L20 6ZM20 5L4 5C3.4 5 3 5.4 3 6L3 18C3 18.6 3.4 19 4 19L20 19C20.6 19 21 18.6 21 18L21 6C21 5.4 20.6 5 20 5Z" fill="none"/>
<g clip-path="url(#clip0_14099_112221)">
<path d="M20 6.00006H4V10.0001H20V6.00006Z" fill="#74ACDF"/>
<path d="M20 10.0001H4V14.0001H20V10.0001Z" fill="white"/>
<path d="M20 14.0001H4V18.0001H20V14.0001Z" fill="#74ACDF"/>
<path fill-rule="evenodd" clip-rule="evenodd" d="M12.7656 11.9118C12.7656 12.0817 12.6939 12.2445 12.5662 12.3646C12.4386 12.4847 12.2655 12.5522 12.0849 12.5522C11.9044 12.5522 11.7313 12.4847 11.6037 12.3646C11.476 12.2445 11.4043 12.0817 11.4043 11.9118C11.4043 11.742 11.476 11.5791 11.6037 11.459C11.7313 11.339 11.9044 11.2715 12.0849 11.2715C12.2655 11.2715 12.4386 11.339 12.5662 11.459C12.6939 11.5791 12.7656 11.742 12.7656 11.9118Z" fill="#FFD600" stroke="black" stroke-opacity="0.38662" stroke-width="0.03"/>
<path d="M12.277 11.4551C12.191 11.4358 12.1029 11.4629 12.0751 11.461C12.0369 11.461 11.9405 11.43 11.873 11.461" stroke="black" stroke-opacity="0.38662" stroke-width="0.03"/>
<path d="M11.7666 11.5501C11.8521 11.4945 11.9475 11.57 11.9729 11.5558C12.0421 11.5135 12.1063 11.5213 12.1728 11.5597C12.2154 11.5831 12.29 11.4912 12.3768 11.5656" stroke="black" stroke-opacity="0.38662" stroke-width="0.03"/>
<path fill-rule="evenodd" clip-rule="evenodd" d="M11.6711 11.6466C11.7163 11.6125 11.8635 11.6112 12.0148 11.6913C12.0376 11.6861 12.0523 11.6712 12.0334 11.6505C11.9196 11.6138 11.7871 11.5673 11.665 11.6022C11.6316 11.6241 11.64 11.6383 11.6711 11.6466Z" fill="#EFC000" stroke="black" stroke-opacity="0.38662" stroke-width="0.03"/>
<path fill-rule="evenodd" clip-rule="evenodd" d="M12.4764 11.6466C12.4311 11.6125 12.284 11.6112 12.1327 11.6913C12.1099 11.6861 12.0952 11.6712 12.114 11.6505C12.2279 11.6138 12.3603 11.5673 12.4825 11.6022C12.5158 11.6241 12.5075 11.6383 12.4764 11.6466Z" fill="#EFC000" stroke="black" stroke-opacity="0.38662" stroke-width="0.03"/>
<path fill-rule="evenodd" clip-rule="evenodd" d="M11.6104 11.7594C11.7595 11.6703 11.9566 11.7168 12.0393 11.7651C11.9185 11.7439 11.9164 11.7342 11.8289 11.7323C11.7672 11.7342 11.6762 11.7284 11.6104 11.7594Z" fill="#F0BF00" stroke="black" stroke-opacity="0.38662" stroke-width="0.03" stroke-linejoin="round"/>
<path d="M11.9517 11.7499C11.8787 11.8914 11.7518 11.8933 11.6621 11.7422" stroke="black" stroke-opacity="0.38662" stroke-width="0.03"/>
<path fill-rule="evenodd" clip-rule="evenodd" d="M11.9138 11.7936C11.9034 11.8045 11.8851 11.8138 11.863 11.8195C11.8408 11.8251 11.8166 11.8266 11.7957 11.8237C11.7747 11.8208 11.7587 11.8137 11.7513 11.8039C11.7438 11.7942 11.7454 11.7826 11.7558 11.7717C11.7662 11.7608 11.7844 11.7515 11.8066 11.7458C11.8287 11.7402 11.853 11.7387 11.8739 11.7416C11.8949 11.7445 11.9108 11.7516 11.9183 11.7613C11.9258 11.7711 11.9241 11.7827 11.9138 11.7936Z" fill="black" fill-opacity="0.36803"/>
<path fill-rule="evenodd" clip-rule="evenodd" d="M11.8055 11.765C11.8066 11.7675 11.8056 11.7706 11.8027 11.7735C11.7998 11.7764 11.7953 11.779 11.7902 11.7806C11.785 11.7822 11.7797 11.7828 11.7753 11.7821C11.7709 11.7815 11.7678 11.7797 11.7667 11.7771C11.7657 11.7746 11.7667 11.7715 11.7696 11.7686C11.7724 11.7657 11.777 11.7631 11.7821 11.7615C11.7872 11.7599 11.7926 11.7593 11.797 11.76C11.8014 11.7606 11.8045 11.7624 11.8055 11.765Z" fill="#FFD700"/>
<path d="M11.9748 11.9941C11.8907 12.1255 12.0053 12.0329 12.024 12.0709C12.0567 12.1061 12.0894 12.0978 12.1087 12.0709C12.1281 12.0405 12.2501 12.1283 12.1668 11.9982" stroke="black" stroke-opacity="0.38662" stroke-width="0.03"/>
<path d="M11.8252 12.2108C11.8974 12.2033 12.0188 12.152 12.0618 12.1942C12.0991 12.1562 12.23 12.2053 12.3141 12.2108C12.253 12.2455 12.1294 12.2219 12.0707 12.2586C12.0134 12.2262 11.8871 12.2559 11.8252 12.2108V12.2108Z" stroke="black" stroke-opacity="0.38662" stroke-width="0.03" stroke-linecap="round" stroke-linejoin="round"/>
<path d="M11.9414 12.2715C12.0507 12.313 12.0753 12.3067 12.1935 12.2755C12.1689 12.3357 12.1062 12.3484 12.0707 12.3462C12.0338 12.344 11.9836 12.3482 11.9414 12.2715Z" stroke="black" stroke-opacity="0.38662" stroke-width="0.03" stroke-linejoin="round"/>
<path fill-rule="evenodd" clip-rule="evenodd" d="M11.8554 12.6121C11.7765 12.8042 11.863 12.8955 11.8243 12.9989C11.7872 13.0985 11.6256 13.3454 11.7485 13.4526C11.8463 13.4568 11.7317 13.3166 11.9272 13.0568C12.0181 12.935 11.9036 12.8581 11.9992 12.6193C12.0081 12.5989 11.8679 12.5819 11.8554 12.6121Z" fill="#FFD700" stroke="black" stroke-opacity="0.38662" stroke-width="0.03" stroke-linejoin="round"/>
<path fill-rule="evenodd" clip-rule="evenodd" d="M12.0219 12.6284C11.9916 12.8439 12.0096 13.5062 12.0822 13.4797C12.1625 13.5037 12.173 12.831 12.1657 12.6319C12.1647 12.6099 12.0261 12.5963 12.0219 12.6284Z" fill="#FFD700" stroke="black" stroke-opacity="0.38662" stroke-width="0.03" stroke-linejoin="round"/>
<path d="M11.7167 12.5533C11.6287 12.7419 11.4982 12.7509 11.4482 12.85C11.3998 12.9453 11.3298 13.2269 11.1613 13.2235C11.0882 13.1629 11.2756 13.1373 11.3311 12.8244C11.3577 12.6783 11.4973 12.6977 11.6085 12.4649C11.6175 12.4444 11.7305 12.5235 11.7167 12.5533Z" stroke="black" stroke-opacity="0.38662" stroke-width="0.03" stroke-linejoin="round"/>
<path d="M11.3938 12.2631C11.191 12.3451 11.1814 12.4664 11.075 12.513C10.9725 12.5581 10.6699 12.6234 10.6736 12.7801C10.7388 12.8481 10.7662 12.6738 11.1025 12.622C11.2596 12.5971 11.2386 12.4672 11.4888 12.3637C11.5108 12.3553 11.4257 12.2503 11.3938 12.2631Z" stroke="black" stroke-opacity="0.38662" stroke-width="0.03" stroke-linejoin="round"/>
<path d="M11.3301 12.126C11.1241 12.2005 11.0254 12.1206 10.9146 12.1572C10.8077 12.1922 10.5433 12.344 10.4273 12.2303C10.4222 12.1393 10.5736 12.2452 10.8517 12.0618C10.9821 11.9766 11.0654 12.0826 11.3215 11.9923C11.3435 11.9838 11.3625 12.1142 11.3301 12.126Z" stroke="black" stroke-opacity="0.38662" stroke-width="0.03" stroke-linejoin="round"/>
<path d="M11.8627 12.5962C11.7983 12.8051 11.4983 13.4061 11.4431 13.3548C11.3592 13.3471 11.6374 12.7261 11.7293 12.5462C11.7396 12.5264 11.8726 12.5652 11.8627 12.5962Z" stroke="black" stroke-opacity="0.38662" stroke-width="0.03" stroke-linejoin="round"/>
<path d="M11.5791 12.4653C11.4382 12.6386 10.9256 13.0986 10.894 13.0323C10.8187 12.997 11.3187 12.5109 11.4741 12.3739C11.4913 12.3589 11.6004 12.4397 11.5791 12.4653Z" stroke="black" stroke-opacity="0.38662" stroke-width="0.03" stroke-linejoin="round"/>
<path d="M11.4015 12.2434C11.2001 12.3536 10.5377 12.597 10.5356 12.5244C10.4805 12.465 11.142 12.1932 11.3418 12.1217C11.3639 12.1139 11.4316 12.2273 11.4015 12.2434Z" stroke="black" stroke-opacity="0.38662" stroke-width="0.03" stroke-linejoin="round"/>
<path d="M11.9748 11.9941C11.8907 12.1255 12.0053 12.0329 12.024 12.0709C12.0567 12.1061 12.0894 12.0978 12.1087 12.0709C12.1281 12.0405 12.2501 12.1283 12.1668 11.9982" stroke="black" stroke-opacity="0.081784" stroke-width="0.03"/>
<path fill-rule="evenodd" clip-rule="evenodd" d="M11.8252 12.2108C11.8974 12.2033 12.0188 12.152 12.0618 12.1942C12.0991 12.1562 12.23 12.2053 12.3141 12.2108C12.253 12.2455 12.1294 12.2219 12.0707 12.2586C12.0134 12.2262 11.8871 12.2559 11.8252 12.2108Z" fill="#F0BF00" stroke="black" stroke-opacity="0.081784" stroke-width="0.03" stroke-linecap="round" stroke-linejoin="round"/>
<path fill-rule="evenodd" clip-rule="evenodd" d="M11.9414 12.2715C12.0507 12.313 12.0753 12.3067 12.1935 12.2755C12.1689 12.3357 12.1062 12.3484 12.0707 12.3462C12.0338 12.344 11.9836 12.3482 11.9414 12.2715Z" fill="#F0BF00" stroke="black" stroke-opacity="0.081784" stroke-width="0.03" stroke-linejoin="round"/>
<path fill-rule="evenodd" clip-rule="evenodd" d="M11.7167 12.5533C11.6287 12.7419 11.4982 12.7509 11.4482 12.85C11.3998 12.9453 11.3298 13.2269 11.1613 13.2235C11.0882 13.1629 11.2756 13.1373 11.3311 12.8244C11.3577 12.6783 11.4973 12.6977 11.6085 12.4649C11.6175 12.4444 11.7305 12.5235 11.7167 12.5533Z" fill="#FFD700" stroke="black" stroke-opacity="0.1487" stroke-width="0.03" stroke-linejoin="round"/>
<path fill-rule="evenodd" clip-rule="evenodd" d="M11.3938 12.2631C11.191 12.3451 11.1814 12.4664 11.075 12.513C10.9725 12.5581 10.6699 12.6234 10.6736 12.7801C10.7388 12.8481 10.7662 12.6738 11.1025 12.622C11.2596 12.5971 11.2386 12.4672 11.4888 12.3637C11.5108 12.3553 11.4257 12.2503 11.3938 12.2631Z" fill="#FFD700" stroke="black" stroke-opacity="0.1487" stroke-width="0.03" stroke-linejoin="round"/>
<path fill-rule="evenodd" clip-rule="evenodd" d="M11.3301 12.126C11.1241 12.2005 11.0254 12.1206 10.9146 12.1572C10.8077 12.1922 10.5433 12.344 10.4273 12.2303C10.4222 12.1393 10.5736 12.2452 10.8517 12.0618C10.9821 11.9766 11.0654 12.0826 11.3215 11.9923C11.3435 11.9838 11.3625 12.1142 11.3301 12.126Z" fill="#FFD700" stroke="black" stroke-opacity="0.1487" stroke-width="0.03" stroke-linejoin="round"/>
<path fill-rule="evenodd" clip-rule="evenodd" d="M11.8627 12.5962C11.7983 12.8051 11.4983 13.4061 11.4431 13.3548C11.3592 13.3471 11.6374 12.7261 11.7293 12.5462C11.7396 12.5264 11.8726 12.5652 11.8627 12.5962Z" fill="#FFD700" stroke="black" stroke-opacity="0.1487" stroke-width="0.03" stroke-linejoin="round"/>
<path fill-rule="evenodd" clip-rule="evenodd" d="M11.5791 12.4653C11.4382 12.6386 10.9256 13.0986 10.894 13.0323C10.8187 12.997 11.3187 12.5109 11.4741 12.3739C11.4913 12.3589 11.6004 12.4397 11.5791 12.4653Z" fill="#FFD700" stroke="black" stroke-opacity="0.1487" stroke-width="0.03" stroke-linejoin="round"/>
<path fill-rule="evenodd" clip-rule="evenodd" d="M11.4015 12.2434C11.2001 12.3536 10.5377 12.597 10.5356 12.5244C10.4805 12.465 11.142 12.1932 11.3418 12.1217C11.3639 12.1139 11.4316 12.2273 11.4015 12.2434Z" fill="#FFD700" stroke="black" stroke-opacity="0.1487" stroke-width="0.03" stroke-linejoin="round"/>
<path fill-rule="evenodd" clip-rule="evenodd" d="M12.8554 11.9752C13.087 12.0034 13.799 11.9866 13.7705 11.9191C13.7962 11.8444 13.0732 11.8346 12.8592 11.8414C12.8356 11.8423 12.8209 11.9713 12.8554 11.9752Z" fill="#FFD700" stroke="black" stroke-opacity="0.38662" stroke-width="0.03" stroke-linejoin="round"/>
<path fill-rule="evenodd" clip-rule="evenodd" d="M12.3184 12.6219C12.3973 12.814 12.3109 12.9053 12.3495 13.0086C12.3866 13.1083 12.5482 13.3551 12.4253 13.4623C12.3275 13.4666 12.4421 13.3263 12.2466 13.0666C12.1558 12.9448 12.2702 12.8679 12.1746 12.6291C12.1657 12.6086 12.3059 12.5917 12.3184 12.6219Z" fill="#FFD700" stroke="black" stroke-opacity="0.38662" stroke-width="0.03" stroke-linejoin="round"/>
<path fill-rule="evenodd" clip-rule="evenodd" d="M12.463 12.5632C12.551 12.7518 12.6815 12.7608 12.7315 12.8598C12.7799 12.9552 12.8499 13.2368 13.0184 13.2334C13.0915 13.1728 12.9041 13.1472 12.8486 12.8343C12.822 12.6881 12.6824 12.7076 12.5712 12.4748C12.5622 12.4543 12.4492 12.5334 12.463 12.5632Z" fill="#FFD700" stroke="black" stroke-opacity="0.38662" stroke-width="0.03" stroke-linejoin="round"/>
<path fill-rule="evenodd" clip-rule="evenodd" d="M12.7869 12.2672C12.9896 12.3491 12.9993 12.4705 13.1057 12.5171C13.2081 12.5621 13.5108 12.6274 13.5071 12.7842C13.4419 12.8521 13.4144 12.6778 13.0781 12.626C12.9211 12.6012 12.942 12.4713 12.6918 12.3677C12.6698 12.3593 12.7549 12.2543 12.7869 12.2672Z" fill="#FFD700" stroke="black" stroke-opacity="0.38662" stroke-width="0.03" stroke-linejoin="round"/>
<path fill-rule="evenodd" clip-rule="evenodd" d="M12.8437 12.126C13.0497 12.2005 13.1484 12.1206 13.2592 12.1572C13.3661 12.1922 13.6306 12.344 13.7465 12.2303C13.7516 12.1393 13.6002 12.2452 13.3221 12.0618C13.1917 11.9766 13.1084 12.0826 12.8523 11.9923C12.8303 11.9838 12.8113 12.1142 12.8437 12.126Z" fill="#FFD700" stroke="black" stroke-opacity="0.38662" stroke-width="0.03" stroke-linejoin="round"/>
<path fill-rule="evenodd" clip-rule="evenodd" d="M12.315 12.606C12.3794 12.8149 12.6794 13.4158 12.7346 13.3646C12.8185 13.3568 12.5403 12.7358 12.4484 12.5559C12.4381 12.5362 12.3051 12.575 12.315 12.606Z" fill="#FFD700" stroke="black" stroke-opacity="0.38662" stroke-width="0.03" stroke-linejoin="round"/>
<path fill-rule="evenodd" clip-rule="evenodd" d="M12.5869 12.4653C12.7278 12.6386 13.2404 13.0986 13.272 13.0323C13.3474 12.997 12.8474 12.5109 12.6919 12.3739C12.6747 12.3589 12.5656 12.4397 12.5869 12.4653Z" fill="#FFD700" stroke="black" stroke-opacity="0.38662" stroke-width="0.03" stroke-linejoin="round"/>
<path fill-rule="evenodd" clip-rule="evenodd" d="M12.7812 12.2434C12.9825 12.3536 13.645 12.597 13.647 12.5244C13.7021 12.465 13.0406 12.1932 12.8408 12.1217C12.8187 12.1139 12.751 12.2273 12.7812 12.2434Z" fill="#FFD700" stroke="black" stroke-opacity="0.38662" stroke-width="0.03" stroke-linejoin="round"/>
<path fill-rule="evenodd" clip-rule="evenodd" d="M12.463 12.5632C12.551 12.7518 12.6815 12.7608 12.7315 12.8598C12.7799 12.9552 12.8499 13.2368 13.0184 13.2334C13.0915 13.1728 12.9041 13.1472 12.8486 12.8343C12.822 12.6881 12.6824 12.7076 12.5712 12.4748C12.5622 12.4543 12.4492 12.5334 12.463 12.5632Z" fill="#FFD700" stroke="black" stroke-opacity="0.1487" stroke-width="0.03" stroke-linejoin="round"/>
<path fill-rule="evenodd" clip-rule="evenodd" d="M12.7869 12.2672C12.9896 12.3491 12.9993 12.4705 13.1057 12.5171C13.2081 12.5621 13.5108 12.6274 13.5071 12.7842C13.4419 12.8521 13.4144 12.6778 13.0781 12.626C12.9211 12.6012 12.942 12.4713 12.6918 12.3677C12.6698 12.3593 12.7549 12.2543 12.7869 12.2672Z" fill="#FFD700" stroke="black" stroke-opacity="0.1487" stroke-width="0.03" stroke-linejoin="round"/>
<path fill-rule="evenodd" clip-rule="evenodd" d="M12.8437 12.126C13.0497 12.2005 13.1484 12.1206 13.2592 12.1572C13.3661 12.1922 13.6306 12.344 13.7465 12.2303C13.7516 12.1393 13.6002 12.2452 13.3221 12.0618C13.1917 11.9766 13.1084 12.0826 12.8523 11.9923C12.8303 11.9838 12.8113 12.1142 12.8437 12.126Z" fill="#FFD700" stroke="black" stroke-opacity="0.1487" stroke-width="0.03" stroke-linejoin="round"/>
<path fill-rule="evenodd" clip-rule="evenodd" d="M12.315 12.606C12.3794 12.8149 12.6794 13.4158 12.7346 13.3646C12.8185 13.3568 12.5403 12.7358 12.4484 12.5559C12.4381 12.5362 12.3051 12.575 12.315 12.606Z" fill="#FFD700" stroke="black" stroke-opacity="0.1487" stroke-width="0.03" stroke-linejoin="round"/>
<path fill-rule="evenodd" clip-rule="evenodd" d="M12.5869 12.4653C12.7278 12.6386 13.2404 13.0986 13.272 13.0323C13.3474 12.997 12.8474 12.5109 12.6919 12.3739C12.6747 12.3589 12.5656 12.4397 12.5869 12.4653Z" fill="#FFD700" stroke="black" stroke-opacity="0.1487" stroke-width="0.03" stroke-linejoin="round"/>
<path fill-rule="evenodd" clip-rule="evenodd" d="M12.7812 12.2434C12.9825 12.3536 13.645 12.597 13.647 12.5244C13.7021 12.465 13.0406 12.1932 12.8408 12.1217C12.8187 12.1139 12.751 12.2273 12.7812 12.2434Z" fill="#FFD700" stroke="black" stroke-opacity="0.1487" stroke-width="0.03" stroke-linejoin="round"/>
<path fill-rule="evenodd" clip-rule="evenodd" d="M11.3165 11.8489C11.0848 11.8206 10.3729 11.8374 10.4014 11.9049C10.3756 11.9797 11.0987 11.9894 11.3127 11.9826C11.3363 11.9817 11.351 11.8527 11.3165 11.8489Z" fill="#FFD700" stroke="black" stroke-opacity="0.38662" stroke-width="0.03" stroke-linejoin="round"/>
<path fill-rule="evenodd" clip-rule="evenodd" d="M11.8535 11.2004C11.7745 11.0083 11.861 10.917 11.8223 10.8136C11.7853 10.714 11.6236 10.4671 11.7466 10.3599C11.8444 10.3557 11.7297 10.4959 11.9253 10.7557C12.0161 10.8775 11.9017 10.9544 11.9973 11.1932C12.0062 11.2136 11.866 11.2306 11.8535 11.2004Z" fill="#FFD700" stroke="black" stroke-opacity="0.38662" stroke-width="0.03" stroke-linejoin="round"/>
<path fill-rule="evenodd" clip-rule="evenodd" d="M11.7088 11.2612C11.6209 11.0725 11.4904 11.0635 11.4404 10.9645C11.392 10.8692 11.3219 10.5875 11.1535 10.5909C11.0804 10.6515 11.2677 10.6772 11.3233 10.9901C11.3499 11.1362 11.4895 11.1167 11.6007 11.3496C11.6097 11.37 11.7227 11.2909 11.7088 11.2612Z" fill="#FFD700" stroke="black" stroke-opacity="0.38662" stroke-width="0.03" stroke-linejoin="round"/>
<path fill-rule="evenodd" clip-rule="evenodd" d="M11.3859 11.5572C11.1832 11.4753 11.1736 11.3539 11.0672 11.3073C10.9647 11.2622 10.6621 11.1969 10.6658 11.0402C10.7309 10.9722 10.7584 11.1465 11.0947 11.1983C11.2518 11.2232 11.2308 11.3531 11.481 11.4566C11.503 11.465 11.4179 11.5701 11.3859 11.5572Z" fill="#FFD700" stroke="black" stroke-opacity="0.38662" stroke-width="0.03" stroke-linejoin="round"/>
<path fill-rule="evenodd" clip-rule="evenodd" d="M11.3281 11.6963C11.1221 11.6217 11.0235 11.7017 10.9126 11.6651C10.8057 11.63 10.5413 11.4782 10.4254 11.592C10.4203 11.6829 10.5717 11.5771 10.8498 11.7605C10.9801 11.8457 11.0635 11.7397 11.3196 11.83C11.3415 11.8384 11.3606 11.7081 11.3281 11.6963Z" fill="#FFD700" stroke="black" stroke-opacity="0.38662" stroke-width="0.03" stroke-linejoin="round"/>
<path fill-rule="evenodd" clip-rule="evenodd" d="M11.8569 11.2182C11.7925 11.0093 11.4925 10.4084 11.4373 10.4597C11.3533 10.4674 11.6316 11.0884 11.7235 11.2683C11.7338 11.2881 11.8668 11.2492 11.8569 11.2182Z" fill="#FFD700" stroke="black" stroke-opacity="0.38662" stroke-width="0.03" stroke-linejoin="round"/>
<path fill-rule="evenodd" clip-rule="evenodd" d="M11.585 11.3591C11.444 11.1857 10.9315 10.7257 10.8998 10.792C10.8245 10.8274 11.3245 11.3134 11.4799 11.4504C11.4972 11.4654 11.6062 11.3846 11.585 11.3591Z" fill="#FFD700" stroke="black" stroke-opacity="0.38662" stroke-width="0.03" stroke-linejoin="round"/>
<path fill-rule="evenodd" clip-rule="evenodd" d="M11.3907 11.581C11.1894 11.4708 10.5269 11.2274 10.5248 11.3C10.4697 11.3594 11.1312 11.6312 11.3311 11.7027C11.3532 11.7105 11.4209 11.5971 11.3907 11.581Z" fill="#FFD700" stroke="black" stroke-opacity="0.38662" stroke-width="0.03" stroke-linejoin="round"/>
<path fill-rule="evenodd" clip-rule="evenodd" d="M11.7088 11.2612C11.6209 11.0725 11.4904 11.0635 11.4404 10.9645C11.392 10.8692 11.3219 10.5875 11.1535 10.5909C11.0804 10.6515 11.2677 10.6772 11.3233 10.9901C11.3499 11.1362 11.4895 11.1167 11.6007 11.3496C11.6097 11.37 11.7227 11.2909 11.7088 11.2612Z" fill="#FFD700" stroke="black" stroke-opacity="0.1487" stroke-width="0.03" stroke-linejoin="round"/>
<path fill-rule="evenodd" clip-rule="evenodd" d="M11.3859 11.5572C11.1832 11.4753 11.1736 11.3539 11.0672 11.3073C10.9647 11.2622 10.6621 11.1969 10.6658 11.0402C10.7309 10.9722 10.7584 11.1465 11.0947 11.1983C11.2518 11.2232 11.2308 11.3531 11.481 11.4566C11.503 11.465 11.4179 11.5701 11.3859 11.5572Z" fill="#FFD700" stroke="black" stroke-opacity="0.1487" stroke-width="0.03" stroke-linejoin="round"/>
<path fill-rule="evenodd" clip-rule="evenodd" d="M11.3281 11.6963C11.1221 11.6217 11.0235 11.7017 10.9126 11.6651C10.8057 11.63 10.5413 11.4782 10.4254 11.592C10.4203 11.6829 10.5717 11.5771 10.8498 11.7605C10.9801 11.8457 11.0635 11.7397 11.3196 11.83C11.3415 11.8384 11.3606 11.7081 11.3281 11.6963Z" fill="#FFD700" stroke="black" stroke-opacity="0.1487" stroke-width="0.03" stroke-linejoin="round"/>
<path fill-rule="evenodd" clip-rule="evenodd" d="M11.8569 11.2182C11.7925 11.0093 11.4925 10.4084 11.4373 10.4597C11.3533 10.4674 11.6316 11.0884 11.7235 11.2683C11.7338 11.2881 11.8668 11.2492 11.8569 11.2182Z" fill="#FFD700" stroke="black" stroke-opacity="0.1487" stroke-width="0.03" stroke-linejoin="round"/>
<path fill-rule="evenodd" clip-rule="evenodd" d="M11.585 11.3591C11.444 11.1857 10.9315 10.7257 10.8998 10.792C10.8245 10.8274 11.3245 11.3134 11.4799 11.4504C11.4972 11.4654 11.6062 11.3846 11.585 11.3591Z" fill="#FFD700" stroke="black" stroke-opacity="0.1487" stroke-width="0.03" stroke-linejoin="round"/>
<path fill-rule="evenodd" clip-rule="evenodd" d="M11.3907 11.581C11.1894 11.4708 10.5269 11.2274 10.5248 11.3C10.4697 11.3594 11.1312 11.6312 11.3311 11.7027C11.3532 11.7105 11.4209 11.5971 11.3907 11.581Z" fill="#FFD700" stroke="black" stroke-opacity="0.1487" stroke-width="0.03" stroke-linejoin="round"/>
<path fill-rule="evenodd" clip-rule="evenodd" d="M12.149 11.1958C12.1793 10.9803 12.1613 10.318 12.0887 10.3445C12.0084 10.3206 11.9979 10.9932 12.0052 11.1923C12.0062 11.2143 12.1448 11.2279 12.149 11.1958Z" fill="#FFD700" stroke="black" stroke-opacity="0.38662" stroke-width="0.03" stroke-linejoin="round"/>
<path fill-rule="evenodd" clip-rule="evenodd" d="M12.8448 11.6944C13.0513 11.621 13.1494 11.7014 13.2605 11.6655C13.3676 11.631 13.633 11.4806 13.7482 11.595C13.7527 11.6859 13.602 11.5793 13.3228 11.7612C13.1919 11.8457 13.1092 11.7393 12.8526 11.8282C12.8305 11.8365 12.8123 11.7061 12.8448 11.6944Z" fill="#FFD700" stroke="black" stroke-opacity="0.38662" stroke-width="0.03" stroke-linejoin="round"/>
<path fill-rule="evenodd" clip-rule="evenodd" d="M12.7811 11.5609C12.9839 11.479 12.9936 11.3577 13.1 11.3111C13.2025 11.2661 13.5052 11.2009 13.5016 11.0442C13.4365 10.9762 13.4089 11.1505 13.0725 11.2022C12.9154 11.2269 12.9364 11.3568 12.6861 11.4602C12.6641 11.4686 12.7491 11.5737 12.7811 11.5609Z" fill="#FFD700" stroke="black" stroke-opacity="0.38662" stroke-width="0.03" stroke-linejoin="round"/>
<path fill-rule="evenodd" clip-rule="evenodd" d="M12.463 11.2593C12.5511 11.0707 12.6815 11.0617 12.7316 10.9627C12.7801 10.8674 12.8503 10.5859 13.0187 10.5893C13.0918 10.6499 12.9044 10.6755 12.8487 10.9884C12.822 11.1345 12.6824 11.115 12.5711 11.3477C12.5621 11.3682 12.4491 11.289 12.463 11.2593Z" fill="#FFD700" stroke="black" stroke-opacity="0.38662" stroke-width="0.03" stroke-linejoin="round"/>
<path fill-rule="evenodd" clip-rule="evenodd" d="M12.3117 11.2074C12.3918 11.0157 12.3059 10.9239 12.3452 10.8208C12.3829 10.7214 12.5461 10.4754 12.4238 10.3675C12.326 10.3628 12.4398 10.5036 12.2426 10.7623C12.151 10.8836 12.265 10.9612 12.1679 11.1994C12.1589 11.2198 12.299 11.2375 12.3117 11.2074Z" fill="#FFD700" stroke="black" stroke-opacity="0.38662" stroke-width="0.03" stroke-linejoin="round"/>
<path fill-rule="evenodd" clip-rule="evenodd" d="M12.8276 11.6992C13.0522 11.6393 13.6981 11.3602 13.643 11.3088C13.6347 11.2307 12.9672 11.4895 12.7738 11.5751C12.7526 11.5846 12.7943 11.7084 12.8276 11.6992Z" fill="#FFD700" stroke="black" stroke-opacity="0.38662" stroke-width="0.03" stroke-linejoin="round"/>
<path fill-rule="evenodd" clip-rule="evenodd" d="M12.6746 11.446C12.8609 11.3149 13.3554 10.838 13.2841 10.8086C13.2461 10.7385 12.7237 11.2037 12.5764 11.3483C12.5602 11.3643 12.6471 11.4658 12.6746 11.446Z" fill="#FFD700" stroke="black" stroke-opacity="0.38662" stroke-width="0.03" stroke-linejoin="round"/>
<path fill-rule="evenodd" clip-rule="evenodd" d="M12.4364 11.2645C12.5549 11.0772 12.8165 10.4609 12.7385 10.459C12.6746 10.4077 12.3824 11.0231 12.3055 11.209C12.2972 11.2296 12.4191 11.2925 12.4364 11.2645Z" fill="#FFD700" stroke="black" stroke-opacity="0.38662" stroke-width="0.03" stroke-linejoin="round"/>
<path fill-rule="evenodd" clip-rule="evenodd" d="M12.7811 11.5609C12.9839 11.479 12.9936 11.3577 13.1 11.3111C13.2025 11.2661 13.5052 11.2009 13.5016 11.0442C13.4365 10.9762 13.4089 11.1505 13.0725 11.2022C12.9154 11.2269 12.9364 11.3568 12.6861 11.4602C12.6641 11.4686 12.7491 11.5737 12.7811 11.5609Z" fill="#FFD700" stroke="black" stroke-opacity="0.1487" stroke-width="0.03" stroke-linejoin="round"/>
<path fill-rule="evenodd" clip-rule="evenodd" d="M12.463 11.2593C12.5511 11.0707 12.6815 11.0617 12.7316 10.9627C12.7801 10.8674 12.8503 10.5859 13.0187 10.5893C13.0918 10.6499 12.9044 10.6755 12.8487 10.9884C12.822 11.1345 12.6824 11.115 12.5711 11.3477C12.5621 11.3682 12.4491 11.289 12.463 11.2593Z" fill="#FFD700" stroke="black" stroke-opacity="0.1487" stroke-width="0.03" stroke-linejoin="round"/>
<path fill-rule="evenodd" clip-rule="evenodd" d="M12.3117 11.2074C12.3918 11.0157 12.3059 10.9239 12.3452 10.8208C12.3829 10.7214 12.5461 10.4754 12.4238 10.3675C12.326 10.3628 12.4398 10.5036 12.2426 10.7623C12.151 10.8836 12.265 10.9612 12.1679 11.1994C12.1589 11.2198 12.299 11.2375 12.3117 11.2074Z" fill="#FFD700" stroke="black" stroke-opacity="0.1487" stroke-width="0.03" stroke-linejoin="round"/>
<path fill-rule="evenodd" clip-rule="evenodd" d="M12.8276 11.6992C13.0522 11.6393 13.6981 11.3602 13.643 11.3088C13.6347 11.2307 12.9672 11.4895 12.7738 11.5751C12.7526 11.5846 12.7943 11.7084 12.8276 11.6992Z" fill="#FFD700" stroke="black" stroke-opacity="0.1487" stroke-width="0.03" stroke-linejoin="round"/>
<path fill-rule="evenodd" clip-rule="evenodd" d="M12.6746 11.446C12.8609 11.3149 13.3554 10.838 13.2841 10.8086C13.2461 10.7385 12.7237 11.2037 12.5764 11.3483C12.5602 11.3643 12.6471 11.4658 12.6746 11.446Z" fill="#FFD700" stroke="black" stroke-opacity="0.1487" stroke-width="0.03" stroke-linejoin="round"/>
<path fill-rule="evenodd" clip-rule="evenodd" d="M12.4364 11.2645C12.5549 11.0772 12.8165 10.4609 12.7385 10.459C12.6746 10.4077 12.3824 11.0231 12.3055 11.209C12.2972 11.2296 12.4191 11.2925 12.4364 11.2645Z" fill="#FFD700" stroke="black" stroke-opacity="0.1487" stroke-width="0.03" stroke-linejoin="round"/>
<path d="M11.5674 11.6035H11.5049" stroke="black" stroke-opacity="0.171" stroke-width="0.03"/>
<path d="M11.5517 11.6405H11.4893" stroke="black" stroke-opacity="0.171" stroke-width="0.03"/>
<path d="M11.5448 11.6758H11.4756" stroke="black" stroke-opacity="0.171" stroke-width="0.03"/>
<path d="M11.5252 11.709H11.4561" stroke="black" stroke-opacity="0.171" stroke-width="0.03"/>
<path d="M11.5201 11.7443H11.4375" stroke="black" stroke-opacity="0.171" stroke-width="0.03"/>
<path d="M11.5221 11.7793H11.4307" stroke="black" stroke-opacity="0.171" stroke-width="0.03"/>
<path d="M11.5089 11.8184H11.4219" stroke="black" stroke-opacity="0.171" stroke-width="0.03"/>
<path d="M11.5135 11.8594H11.4287" stroke="black" stroke-opacity="0.171" stroke-width="0.03"/>
<path d="M11.5138 11.8965H11.4268" stroke="black" stroke-opacity="0.171" stroke-width="0.03"/>
<path d="M11.5361 11.9395H11.4268" stroke="black" stroke-opacity="0.171" stroke-width="0.03"/>
<path d="M11.5273 11.9902H11.4336" stroke="black" stroke-opacity="0.171" stroke-width="0.03"/>
<path d="M11.5292 12.0254H11.4355" stroke="black" stroke-opacity="0.078067" stroke-width="0.03"/>
<path d="M11.5449 12.0724H11.4512" stroke="black" stroke-opacity="0.078067" stroke-width="0.03"/>
<path d="M11.5468 12.1133H11.4531" stroke="black" stroke-opacity="0.078067" stroke-width="0.03"/>
<path d="M11.5742 12.1602H11.4805" stroke="black" stroke-opacity="0.078067" stroke-width="0.03"/>
<path d="M11.6005 12.1973H11.5068" stroke="black" stroke-opacity="0.078067" stroke-width="0.03"/>
<path d="M11.625 12.2402H11.5312" stroke="black" stroke-opacity="0.078067" stroke-width="0.03"/>
<path d="M11.6542 12.2812H11.5605" stroke="black" stroke-opacity="0.078067" stroke-width="0.03"/>
<path d="M11.6738 12.3223H11.5801" stroke="black" stroke-opacity="0.078067" stroke-width="0.03"/>
<path d="M11.7167 12.3691H11.623" stroke="black" stroke-opacity="0.078067" stroke-width="0.03"/>
<path d="M11.735 12.4121H11.6748" stroke="black" stroke-opacity="0.078067" stroke-width="0.03"/>
<path d="M11.5292 12.0254H11.4355" stroke="black" stroke-opacity="0.078067" stroke-width="0.03"/>
<path d="M11.5449 12.0724H11.4512" stroke="black" stroke-opacity="0.078067" stroke-width="0.03"/>
<path d="M11.5468 12.1133H11.4531" stroke="black" stroke-opacity="0.078067" stroke-width="0.03"/>
<path d="M11.5742 12.1602H11.4805" stroke="black" stroke-opacity="0.078067" stroke-width="0.03"/>
<path d="M11.6005 12.1973H11.5068" stroke="black" stroke-opacity="0.078067" stroke-width="0.03"/>
<path d="M11.625 12.2402H11.5312" stroke="black" stroke-opacity="0.078067" stroke-width="0.03"/>
<path d="M11.6542 12.2812H11.5605" stroke="black" stroke-opacity="0.078067" stroke-width="0.03"/>
<path d="M11.6738 12.3223H11.5801" stroke="black" stroke-opacity="0.078067" stroke-width="0.03"/>
<path d="M11.7167 12.3691H11.623" stroke="black" stroke-opacity="0.078067" stroke-width="0.03"/>
<path d="M11.7448 12.4102H11.6846" stroke="black" stroke-opacity="0.078067" stroke-width="0.03"/>
<path fill-rule="evenodd" clip-rule="evenodd" d="M12.6016 11.5936H12.6641H12.6016Z" fill="#00699D" fill-opacity="0.86667"/>
<path d="M12.6016 11.5936H12.6641" stroke="black" stroke-opacity="0.13383" stroke-width="0.03"/>
<path fill-rule="evenodd" clip-rule="evenodd" d="M12.6172 11.631H12.6797H12.6172Z" fill="#00699D" fill-opacity="0.86667"/>
<path d="M12.6172 11.631H12.6797" stroke="black" stroke-opacity="0.13383" stroke-width="0.03"/>
<path fill-rule="evenodd" clip-rule="evenodd" d="M12.6242 11.666H12.6934H12.6242Z" fill="#00699D" fill-opacity="0.86667"/>
<path d="M12.6242 11.666H12.6934" stroke="black" stroke-opacity="0.13383" stroke-width="0.03"/>
<path fill-rule="evenodd" clip-rule="evenodd" d="M12.6437 11.6992H12.7129H12.6437Z" fill="#00699D" fill-opacity="0.86667"/>
<path d="M12.6437 11.6992H12.7129" stroke="black" stroke-opacity="0.13383" stroke-width="0.03"/>
<path fill-rule="evenodd" clip-rule="evenodd" d="M12.6489 11.7344H12.7314H12.6489Z" fill="#00699D" fill-opacity="0.86667"/>
<path d="M12.6489 11.7344H12.7314" stroke="black" stroke-opacity="0.13383" stroke-width="0.03"/>
<path fill-rule="evenodd" clip-rule="evenodd" d="M12.6468 11.7695H12.7383H12.6468Z" fill="#00699D" fill-opacity="0.86667"/>
<path d="M12.6468 11.7695H12.7383" stroke="black" stroke-opacity="0.13383" stroke-width="0.03"/>
<path fill-rule="evenodd" clip-rule="evenodd" d="M12.6601 11.8086H12.7471H12.6601Z" fill="#00699D" fill-opacity="0.86667"/>
<path d="M12.6601 11.8086H12.7471" stroke="black" stroke-opacity="0.13383" stroke-width="0.03"/>
<path fill-rule="evenodd" clip-rule="evenodd" d="M12.6555 11.8496H12.7402H12.6555Z" fill="#00699D" fill-opacity="0.86667"/>
<path d="M12.6555 11.8496H12.7402" stroke="black" stroke-opacity="0.13383" stroke-width="0.03"/>
<path fill-rule="evenodd" clip-rule="evenodd" d="M12.6552 11.8867H12.7422H12.6552Z" fill="#00699D" fill-opacity="0.86667"/>
<path d="M12.6552 11.8867H12.7422" stroke="black" stroke-opacity="0.13383" stroke-width="0.03"/>
<path fill-rule="evenodd" clip-rule="evenodd" d="M12.6329 11.9297H12.7422H12.6329Z" fill="#00699D" fill-opacity="0.86667"/>
<path d="M12.6329 11.9297H12.7422" stroke="black" stroke-opacity="0.13383" stroke-width="0.03"/>
<path fill-rule="evenodd" clip-rule="evenodd" d="M12.6416 11.9805H12.7354H12.6416Z" fill="#00699D" fill-opacity="0.86667"/>
<path d="M12.6416 11.9805H12.7354" stroke="black" stroke-opacity="0.13383" stroke-width="0.03"/>
<path fill-rule="evenodd" clip-rule="evenodd" d="M12.6397 12.0156H12.7334H12.6397Z" fill="#00699D" fill-opacity="0.86667"/>
<path d="M12.6397 12.0156H12.7334" stroke="black" stroke-opacity="0.063197" stroke-width="0.03"/>
<path fill-rule="evenodd" clip-rule="evenodd" d="M12.6241 12.0625H12.7178H12.6241Z" fill="#00699D" fill-opacity="0.86667"/>
<path d="M12.6241 12.0625H12.7178" stroke="black" stroke-opacity="0.063197" stroke-width="0.03"/>
<path fill-rule="evenodd" clip-rule="evenodd" d="M12.6221 12.1035H12.7158H12.6221Z" fill="#00699D" fill-opacity="0.86667"/>
<path d="M12.6221 12.1035H12.7158" stroke="black" stroke-opacity="0.063197" stroke-width="0.03"/>
<path fill-rule="evenodd" clip-rule="evenodd" d="M12.5948 12.1504H12.6885H12.5948Z" fill="#00699D" fill-opacity="0.86667"/>
<path d="M12.5948 12.1504H12.6885" stroke="black" stroke-opacity="0.063197" stroke-width="0.03"/>
<path fill-rule="evenodd" clip-rule="evenodd" d="M12.5684 12.1874H12.6621H12.5684Z" fill="#00699D" fill-opacity="0.86667"/>
<path d="M12.5684 12.1874H12.6621" stroke="black" stroke-opacity="0.063197" stroke-width="0.03"/>
<path fill-rule="evenodd" clip-rule="evenodd" d="M12.544 12.2305H12.6377H12.544Z" fill="#00699D" fill-opacity="0.86667"/>
<path d="M12.544 12.2305H12.6377" stroke="black" stroke-opacity="0.063197" stroke-width="0.03"/>
<path fill-rule="evenodd" clip-rule="evenodd" d="M12.5147 12.2734H12.6084H12.5147Z" fill="#00699D" fill-opacity="0.86667"/>
<path d="M12.5147 12.2734H12.6084" stroke="black" stroke-opacity="0.063197" stroke-width="0.03"/>
<path fill-rule="evenodd" clip-rule="evenodd" d="M12.4952 12.3125H12.5889H12.4952Z" fill="#00699D" fill-opacity="0.86667"/>
<path d="M12.4952 12.3125H12.5889" stroke="black" stroke-opacity="0.063197" stroke-width="0.03"/>
<path fill-rule="evenodd" clip-rule="evenodd" d="M12.4522 12.3594H12.5459H12.4522Z" fill="#00699D" fill-opacity="0.86667"/>
<path d="M12.4522 12.3594H12.5459" stroke="black" stroke-opacity="0.063197" stroke-width="0.03"/>
<path fill-rule="evenodd" clip-rule="evenodd" d="M12.4339 12.4023H12.4941H12.4339Z" fill="#00699D" fill-opacity="0.86667"/>
<path d="M12.4339 12.4023H12.4941" stroke="black" stroke-opacity="0.063197" stroke-width="0.03"/>
<path d="M12.6397 12.0156H12.7334" stroke="black" stroke-opacity="0.063197" stroke-width="0.03"/>
<path d="M12.6241 12.0625H12.7178" stroke="black" stroke-opacity="0.063197" stroke-width="0.03"/>
<path d="M12.6221 12.1035H12.7158" stroke="black" stroke-opacity="0.063197" stroke-width="0.03"/>
<path d="M12.5948 12.1504H12.6885" stroke="black" stroke-opacity="0.063197" stroke-width="0.03"/>
<path d="M12.5684 12.1874H12.6621" stroke="black" stroke-opacity="0.063197" stroke-width="0.03"/>
<path d="M12.544 12.2305H12.6377" stroke="black" stroke-opacity="0.063197" stroke-width="0.03"/>
<path d="M12.5147 12.2734H12.6084" stroke="black" stroke-opacity="0.063197" stroke-width="0.03"/>
<path d="M12.4952 12.3125H12.5889" stroke="black" stroke-opacity="0.063197" stroke-width="0.03"/>
<path d="M12.4522 12.3594H12.5459" stroke="black" stroke-opacity="0.063197" stroke-width="0.03"/>
<path d="M12.4339 12.4023H12.4941" stroke="black" stroke-opacity="0.063197" stroke-width="0.03"/>
<path fill-rule="evenodd" clip-rule="evenodd" d="M12.5576 11.7553C12.4085 11.6662 12.2113 11.7127 12.1286 11.761C12.2494 11.7398 12.2516 11.73 12.3391 11.7282C12.4007 11.73 12.4918 11.7243 12.5576 11.7553Z" fill="#F0BF00" stroke="black" stroke-opacity="0.38662" stroke-width="0.03" stroke-linejoin="round"/>
<path d="M12.4702 11.7402C12.3972 11.8817 12.2703 11.8835 12.1807 11.7324" stroke="black" stroke-opacity="0.38662" stroke-width="0.03"/>
<path fill-rule="evenodd" clip-rule="evenodd" d="M12.4304 11.785C12.4197 11.7954 12.4008 11.8043 12.3779 11.8097C12.355 11.8151 12.33 11.8166 12.3084 11.8138C12.2867 11.811 12.2702 11.8042 12.2625 11.7948C12.2548 11.7855 12.2565 11.7744 12.2672 11.7639C12.2779 11.7535 12.2968 11.7446 12.3197 11.7392C12.3426 11.7338 12.3676 11.7323 12.3892 11.7351C12.4109 11.7379 12.4274 11.7447 12.4351 11.7541C12.4428 11.7634 12.4411 11.7745 12.4304 11.785Z" fill="black" fill-opacity="0.36803"/>
<path fill-rule="evenodd" clip-rule="evenodd" d="M12.3241 11.7551C12.3252 11.7576 12.3241 11.7607 12.3213 11.7636C12.3184 11.7666 12.3139 11.7691 12.3087 11.7707C12.3036 11.7723 12.2982 11.7729 12.2938 11.7722C12.2894 11.7716 12.2864 11.7698 12.2853 11.7673C12.2842 11.7647 12.2852 11.7616 12.2881 11.7587C12.291 11.7558 12.2955 11.7532 12.3007 11.7516C12.3058 11.75 12.3112 11.7494 12.3156 11.7501C12.3199 11.7507 12.323 11.7525 12.3241 11.7551Z" fill="#FFD700"/>
</g>
<defs>
<clipPath id="clip0_14099_112221">
<rect width="16" height="12" fill="white" transform="translate(4 6)"/>
</clipPath>
</defs>
</svg>
