<svg width="24" height="24" viewBox="0 0 24 24" fill="none" xmlns="http://www.w3.org/2000/svg">
<path d="M4 6H20V18H4V6Z" fill="#00247D"/>
<path d="M4 6L12 10L4 6ZM12 6L4 10L12 6Z" fill="black"/>
<path d="M4 6L12 10M12 6L4 10" stroke="white" stroke-width="1.5"/>
<path d="M4 6L12 10L4 6ZM12 6L4 10L12 6Z" fill="black"/>
<path d="M4 6L12 10M12 6L4 10" stroke="#CF142B"/>
<path d="M7.85714 6V11V6ZM4 8.14286H13H4Z" fill="black"/>
<path d="M7.85714 6V11M4 8.14286H13" stroke="white" stroke-width="1.5"/>
<path d="M7.85714 6V11V6ZM4 8.14286H13H4Z" fill="black"/>
<path d="M7.85714 6V11M4 8.14286H13" stroke="#CF142B"/>
<path d="M4 10H11.5V6H20V18H4V10Z" fill="#CF142B"/>
<path d="M14 11V14.6091C14.0443 15.1259 15.16 15.4512 15.9379 16C16.9582 15.3394 17.9478 15.2058 17.9876 14.4653L18 11H14.0001H14Z" fill="white"/>
<path d="M14.2305 14.2696L14.2683 14.4628L14.3942 14.6139L15.3054 15.2017L15.973 15.6175L17.2747 14.9078L17.724 14.5635L17.8122 14.1142L17.7576 14.0093L17.7702 14.1184L17.7366 14.2066L17.6988 14.1814L17.6736 14.0177L17.6694 14.1394L17.6065 14.2108L17.5939 14.1226L17.6107 14.0596L17.5855 13.9883L17.5771 14.131L17.5435 14.194L17.5141 14.152L17.5267 14.089L17.5225 14.0302L17.5015 14.0008L17.4973 14.0638L17.4847 14.0848L17.4889 14.1226L17.4637 14.1478L17.4469 14.0974L17.4553 14.0512L17.4469 14.0092L17.4301 13.963L17.4343 14.0386L17.3923 14.131L17.3587 14.152L17.3377 14.1268L17.3419 14.0386L17.3125 13.9882L17.3209 14.0974L17.2789 14.194L17.2538 14.1646L17.2411 14.1352V14.089L17.2873 13.9714L17.2411 14.0134L17.2034 14.1142L17.1866 14.1436L17.1656 14.0932L17.195 13.9798L17.1782 13.9588L17.1404 14.0974L17.1068 14.1184L17.0816 14.11L17.0648 14.1184L15.0325 14.2318L14.9779 14.152L14.9653 14.2318L14.9317 14.2611L14.8981 14.1142L14.8729 14.2696L14.8393 14.194L14.8561 14.0218L14.8393 14.0092L14.8141 14.1016V14.2317L14.8015 14.3199L14.7763 14.3031L14.7427 14.2233L14.7385 14.0932L14.7511 14.0008L14.7175 14.11V14.2443L14.7133 14.3115L14.6713 14.2191L14.6503 14.1435L14.6083 14.0554L14.6335 14.1687V14.2275L14.5622 14.1645L14.5244 13.9882L14.516 14.1184L14.5328 14.1813L14.5118 14.2065L14.4698 14.1309L14.4446 14.0302L14.4152 13.9336V14.0889L14.4362 14.1729L14.4194 14.1939L14.3858 14.1771L14.3732 14.0847L14.3648 13.9504L14.3313 14.0428L14.3228 14.1393L14.3102 14.2149L14.2893 14.2653L14.2305 14.2696V14.2696Z" fill="#2F8F22" stroke="black" stroke-width="0.03"/>
<path d="M15.6798 15.2961C15.6689 15.0977 15.8484 14.8992 15.3652 14.7007" stroke="#4DCF4A" stroke-width="0.03"/>
<path d="M16.1408 15.1839C16.1408 14.9218 15.991 14.8094 15.6914 14.8469" stroke="#38BB26" stroke-width="0.03"/>
<path d="M16.2986 15.2955C16.1403 15.1048 15.9288 15.1269 15.6807 15.2955M16.6918 15.0483C16.6317 14.9362 16.4122 15.01 16.175 15.1045" stroke="#51C757" stroke-width="0.03"/>
<path d="M17.4894 14.6888C17.4295 14.5165 17.3246 14.4191 17.1748 14.3967" stroke="#7ACB73" stroke-width="0.03"/>
<path d="M17.6915 14.419C17.6517 14.33 17.6101 14.2446 17.5117 14.2729" stroke="#4CB135" stroke-width="0.03"/>
<path d="M15.2759 15.1264C15.3282 14.9467 15.2715 14.8761 15.1748 14.8455" stroke="#60C85A" stroke-width="0.03"/>
<path d="M14.4215 14.4635C14.5215 14.4201 14.6013 14.3364 14.7473 14.3849M14.2979 14.3512C14.3795 14.3529 14.4365 14.3848 14.4551 14.4635" stroke="#71CE5B" stroke-width="0.03"/>
<path d="M16.0715 11.0078C16.0242 11.0513 15.9758 11.0911 15.9077 11.0739C15.8611 11.093 15.9063 11.2029 15.8305 11.1802C15.7569 11.122 15.7764 11.2497 15.7292 11.2764C15.6861 11.2902 15.6061 11.3114 15.6695 11.3625C15.7082 11.4004 15.7454 11.4661 15.682 11.499C15.6453 11.5681 15.6375 11.4353 15.583 11.5133C15.5653 11.5922 15.7002 11.575 15.6375 11.6362C15.627 11.6727 15.5895 11.546 15.5515 11.6468C15.522 11.6885 15.5209 11.75 15.5776 11.7686C15.6259 11.7964 15.7271 11.7542 15.6668 11.8356C15.6668 11.8836 15.5875 11.9634 15.6176 11.8729C15.6718 11.81 15.5931 11.7926 15.5575 11.8355C15.4844 11.8854 15.5147 11.9964 15.5862 12.0284C15.6074 12.0727 15.6289 12.0845 15.5753 12.1378C15.5826 12.1912 15.5715 12.2372 15.5011 12.2338C15.4617 12.2711 15.4353 12.3333 15.3604 12.3239C15.2886 12.3529 15.2705 12.3056 15.257 12.2486C15.2337 12.192 15.1388 12.1596 15.1041 12.2222C15.0625 12.2053 15.0085 12.1263 14.9658 12.2041C14.9279 12.256 14.868 12.1737 14.8279 12.2413C14.7813 12.2924 14.8569 12.3402 14.8678 12.3793C14.9301 12.4295 14.8966 12.4592 14.8833 12.5241C14.8607 12.5829 14.9658 12.6194 14.9332 12.6665C14.8865 12.703 14.8114 12.7451 14.8295 12.8149C14.7633 12.8383 14.7722 12.9142 14.7927 12.9668C14.8261 13.0418 14.9672 13.0333 14.9604 12.9414C14.9978 12.9361 15.0417 13.0172 15.0689 13.0566C15.0425 13.0843 14.9569 13.0509 14.9096 13.0749C14.8476 13.0685 14.7945 13.1358 14.7326 13.1449C14.6878 13.1715 14.6281 13.206 14.643 13.2705C14.6541 13.3247 14.6746 13.3787 14.6666 13.4344C14.6369 13.4837 14.6114 13.5359 14.6139 13.5953C14.5877 13.6822 14.6462 13.7869 14.5719 13.858C14.5509 13.9222 14.608 13.9219 14.6334 13.881C14.6678 13.8961 14.6896 13.8372 14.6863 13.8118C14.7165 13.8668 14.7269 13.7968 14.7541 13.8484C14.8093 13.8301 14.7416 13.671 14.7762 13.7376C14.8025 13.7762 14.8165 13.8583 14.8544 13.8641C14.8967 13.8473 14.8752 13.692 14.9057 13.8129C14.9386 13.9206 14.9557 14.0342 15.0101 14.1332C15.0421 14.2264 15.1263 14.3134 15.233 14.2952C15.2632 14.3238 15.1861 14.3831 15.1713 14.4235C15.1237 14.4596 15.0648 14.413 15.0144 14.411C14.9639 14.4307 14.9059 14.4414 14.8699 14.4848C14.8469 14.5354 14.8293 14.5795 14.8241 14.6296C14.8123 14.7004 14.8259 14.7819 14.8965 14.8169C14.9142 14.7627 14.9008 14.7165 14.9764 14.7211C15.0292 14.7514 14.9706 14.8291 15.0175 14.8768C15.0413 14.9263 15.1098 14.9881 15.0871 14.8906C15.0603 14.814 15.1319 14.8133 15.1754 14.7817C15.2326 14.7213 15.2417 14.7801 15.234 14.8391C15.2661 14.8811 15.3302 14.8 15.3457 14.7639C15.3679 14.7219 15.347 14.6315 15.3865 14.6497C15.4372 14.6367 15.4701 14.5902 15.51 14.5572C15.5459 14.4873 15.6131 14.5563 15.666 14.5664C15.7319 14.5948 15.8204 14.5847 15.8501 14.6647C15.7993 14.6396 15.74 14.6865 15.7585 14.7498C15.7842 14.8147 15.8627 14.7958 15.9099 14.7866C15.9574 14.8061 16.0109 14.7465 16.062 14.7905C16.112 14.7796 16.1671 14.7865 16.2141 14.7615C16.2603 14.7235 16.2413 14.6377 16.1737 14.6508C16.2046 14.6051 16.2749 14.5922 16.3216 14.5604C16.3753 14.5555 16.422 14.4959 16.469 14.5048C16.536 14.5511 16.5693 14.626 16.6269 14.6796C16.6834 14.6861 16.6311 14.7646 16.6371 14.8125C16.622 14.8705 16.6544 14.9507 16.7028 14.8715C16.7319 14.8188 16.8121 14.8339 16.8164 14.7647C16.8388 14.7063 16.8539 14.8501 16.9112 14.8424C16.915 14.887 16.8981 14.9962 16.9654 14.9244C17.0245 14.8702 17.0343 14.7872 17.0133 14.7136C17.0228 14.6535 17.1098 14.7498 17.094 14.793C17.1075 14.8486 17.1764 14.745 17.1861 14.7134C17.1937 14.6322 17.1961 14.5364 17.1346 14.4742C17.088 14.451 17.0687 14.3785 17.0019 14.3812C16.956 14.4065 16.9036 14.4546 16.884 14.3702C16.8234 14.3164 16.9251 14.3126 16.959 14.2879C17.0273 14.2448 17.0647 14.1707 17.0786 14.0937C17.1034 14.0231 17.1247 13.9513 17.141 13.8781C17.1945 13.8589 17.2446 13.8198 17.2743 13.7874C17.335 13.6733 17.2769 13.873 17.2554 13.9199C17.3018 13.9404 17.3624 13.9033 17.3823 13.8542C17.4122 13.821 17.4187 13.6908 17.4343 13.7951C17.4412 13.8312 17.3769 13.9384 17.429 13.9194C17.4829 13.9022 17.5261 13.8504 17.5509 13.8005C17.5725 13.7336 17.5939 13.6522 17.5667 13.5877C17.61 13.558 17.5636 13.434 17.5167 13.5014C17.4565 13.4901 17.4738 13.4025 17.4628 13.3593C17.5121 13.2895 17.471 13.1544 17.3751 13.1577C17.3266 13.1299 17.288 13.1175 17.2383 13.0987C17.1737 13.1189 17.1276 13.0579 17.0634 13.0684C16.9663 13.0732 17.0715 12.9622 17.1092 13.0005C17.1532 13.0572 17.2464 13.0841 17.2917 13.0148C17.2896 12.9625 17.2897 12.8904 17.243 12.8495C17.2337 12.791 17.2181 12.7357 17.1779 12.6902C17.1285 12.6175 17.2193 12.6007 17.2493 12.5554C17.2625 12.4969 17.2271 12.4328 17.192 12.385C17.2297 12.3473 17.2676 12.2775 17.2272 12.2297C17.2422 12.184 17.1395 12.1761 17.1063 12.1806C17.0397 12.1762 16.9839 12.2369 16.9176 12.2414C16.8609 12.2877 16.7922 12.3133 16.7193 12.2949C16.6677 12.2821 16.6273 12.2255 16.5996 12.1918C16.5324 12.2286 16.5874 12.1192 16.5328 12.0871C16.4951 12.0353 16.4168 12.0465 16.4452 12.1225C16.3958 12.1828 16.4389 12.0413 16.408 12.0123C16.3678 11.9153 16.3843 11.9849 16.4386 12.0114C16.4989 12.0528 16.5869 12.0278 16.602 11.9536C16.5723 11.9095 16.6054 11.8226 16.5386 11.8289C16.4897 11.8363 16.4872 11.9555 16.4598 11.8581C16.4524 11.8043 16.4221 11.7596 16.395 11.7134C16.4314 11.7774 16.5019 11.8464 16.5802 11.807C16.6222 11.7795 16.6371 11.7113 16.6118 11.6704C16.6142 11.5289 16.5325 11.7455 16.495 11.6336C16.4083 11.6079 16.6611 11.5146 16.5575 11.4837C16.5222 11.5328 16.4456 11.5097 16.4375 11.4581C16.4812 11.4336 16.5229 11.3392 16.494 11.3079C16.4309 11.2721 16.4064 11.2181 16.4205 11.1456C16.3836 11.106 16.289 11.1756 16.2835 11.0865C16.2805 11.0038 16.2051 11.0974 16.1638 11.0675C16.1326 11.0491 16.1009 11.0308 16.0715 11.0078Z" fill="black" stroke="black" stroke-width="0.03"/>
<path d="M16.0552 11.5923C16.0511 11.684 15.9723 11.6648 15.9498 11.6397C15.9281 11.5558 16.0538 11.5328 16.0552 11.5923ZM16.0979 11.587C16.1061 11.6595 16.1892 11.6695 16.2049 11.6392C16.2324 11.57 16.1293 11.5261 16.0979 11.587Z" fill="#D40000" stroke="black" stroke-width="0.03"/>
<path d="M16.0461 11.5167V11.5326L16.0374 11.5342L16.0342 11.5302L16.0319 11.5056L16.0271 11.5032V11.4921L16.0382 11.4913V11.481H16.0247L16.0199 11.4913L16.0175 11.5056L16.0231 11.5175L16.0175 11.527L16.0072 11.5326L15.9929 11.5461L15.9833 11.5509L15.9611 11.5532L15.9429 11.5445L15.9245 11.527C15.9245 11.527 15.9166 11.5143 15.9158 11.5111C15.915 11.508 15.9103 11.4968 15.9103 11.4968L15.9055 11.4849L15.8967 11.4754L15.8832 11.4738L15.8793 11.4905L15.8745 11.4968L15.8634 11.4984L15.8515 11.4881L15.8435 11.4746L15.8348 11.4571L15.8276 11.4452L15.8173 11.4301L15.8125 11.4214L15.8078 11.4007L15.7958 11.3856L15.7879 11.3729L15.7752 11.3626L15.7617 11.3523H15.7458L15.7355 11.3443L15.7204 11.33L15.7093 11.3149L15.7021 11.3062L15.7037 11.2982L15.7093 11.2911L15.7212 11.2839L15.7331 11.2831L15.7466 11.28L15.7601 11.2728L15.7625 11.2633L15.7649 11.2474L15.7792 11.222L15.7855 11.2037L15.7863 11.1894L15.807 11.1862L15.8269 11.1886L15.8412 11.1926L15.8563 11.1973L15.8737 11.1886L15.888 11.1703L15.8928 11.1386L15.8991 11.1092L15.9063 11.0925H15.9429L15.9555 11.1012L15.9659 11.0965L15.9754 11.0917L15.9984 11.0941H16.0103C16.0103 11.0941 16.0199 11.079 16.0239 11.0766C16.0278 11.0742 16.0469 11.0488 16.0469 11.0488L16.0715 11.0424L16.0842 11.044L16.1017 11.0639L16.116 11.0727L16.1287 11.0735L16.1589 11.0933C16.1589 11.0933 16.1684 11.1012 16.1716 11.0996C16.1748 11.0981 16.2018 11.0861 16.2018 11.0861L16.2256 11.0846L16.2511 11.0758L16.2598 11.0957C16.2598 11.0957 16.2725 11.1259 16.2765 11.129C16.2805 11.1322 16.2963 11.1624 16.2963 11.1624C16.2963 11.1624 16.3043 11.1584 16.3083 11.1576C16.3122 11.1568 16.3305 11.1616 16.3305 11.1616L16.3829 11.164L16.3901 11.156L16.3956 11.1656L16.3885 11.2021L16.3917 11.2299L16.4012 11.2673L16.4131 11.2847L16.429 11.2855L16.4497 11.303L16.4505 11.3205L16.4346 11.326L16.4203 11.3213L16.402 11.3316L16.3734 11.3483L16.3495 11.3721L16.3289 11.4015L16.3154 11.4309L16.3019 11.4404L16.29 11.4357L16.2781 11.4364L16.2725 11.4507L16.2606 11.465L16.2503 11.5016L16.228 11.5262L16.205 11.5373L16.1883 11.55H16.1772L16.1581 11.5317L16.1494 11.5238L16.147 11.4952L16.1287 11.4809H16.1152L16.1351 11.4968L16.1359 11.5182L16.1248 11.5278L16.1192 11.5262L16.1136 11.5151H16.1073L16.1065 11.5365L16.0826 11.5643L16.0588 11.5444L16.058 11.519L16.0461 11.5167Z" fill="#D40000" stroke="black" stroke-width="0.03" stroke-linejoin="round"/>
<path d="M15.6577 11.3166L15.6931 11.3177L15.7115 11.3452L15.7275 11.3624L15.7435 11.375L15.7573 11.3773L15.7836 11.4162V11.4208L15.8042 11.4391L15.8099 11.4632L15.8122 11.4712L15.8111 11.4815L15.7996 11.4884L15.7859 11.4861L15.7779 11.4803L15.7527 11.5021L15.7367 11.5239L15.7264 11.5262L15.6989 11.5559L15.6851 11.5605L15.6634 11.5765L15.629 11.5754L15.6073 11.5491L15.6027 11.5387L15.6016 11.5181L15.621 11.5044L15.6302 11.5147L15.6256 11.525L15.6267 11.5376L15.6382 11.5422L15.6497 11.541L15.6909 11.5055L15.7012 11.4998L15.7252 11.4758L15.7401 11.4677L15.739 11.4529L15.7218 11.4265L15.7161 11.4082L15.7115 11.391L15.707 11.3784L15.6909 11.3601L15.6817 11.3498L15.6783 11.3395L15.6623 11.3269L15.6577 11.3246V11.3166H15.6577Z" fill="#D40000" stroke="black" stroke-width="0.03"/>
<path d="M16.3465 11.4507H16.3649L16.3843 11.4415L16.3992 11.429H16.413L16.4221 11.4381L16.437 11.437L16.4462 11.4255L16.4496 11.4118L16.4622 11.3946L16.4657 11.3774L16.4771 11.3534L16.4805 11.3362L16.4519 11.3351L16.4187 11.3637L16.3935 11.3648L16.3729 11.3866L16.3569 11.3889L16.3397 11.4141L16.334 11.429L16.3363 11.4439L16.3465 11.4507Z" fill="#AA0000" stroke="black" stroke-width="0.03"/>
<path d="M15.9933 11.681L15.9715 11.7028L15.9658 11.7223L15.975 11.7417L15.9956 11.7451L16.0105 11.7371L16.0242 11.7532L16.0265 11.7806L16.054 11.8104L16.0666 11.8138L16.0769 11.8024L16.0884 11.7909L16.0895 11.7795L16.1078 11.7715L16.1124 11.7371L16.1227 11.7497L16.1399 11.7394L16.1617 11.7371V11.7085L16.1537 11.689L16.1365 11.6764L16.1101 11.665L16.0815 11.6547L16.0678 11.6558L16.0425 11.6707L16.0151 11.6799L15.9933 11.681Z" fill="#D40000" stroke="black" stroke-width="0.03" stroke-linejoin="round"/>
<path d="M16.165 11.6735L16.2063 11.6716C16.2347 11.6532 16.247 11.5783 16.2665 11.5288C16.2968 11.4895 16.334 11.4778 16.3793 11.4987L16.4056 11.5062L16.4395 11.5325H16.4639L16.4808 11.5363L16.5071 11.5382L16.5541 11.5006L16.5523 11.54L16.5203 11.5682L16.4545 11.5927L16.4037 11.5626L16.4019 11.5701L16.5109 11.6904H16.5203L16.5391 11.7092L16.5485 11.7017L16.5504 11.6698L16.588 11.6359L16.5917 11.6848L16.6049 11.7092V11.7562L16.5692 11.8013L16.5128 11.8089L16.447 11.7675L16.4451 11.7487L16.3849 11.6792V11.7092L16.4207 11.7826L16.4263 11.8107L16.4395 11.8239L16.4489 11.8465V11.8747L16.4658 11.9142L16.4959 11.9179L16.5034 11.8991V11.8728L16.5354 11.8408L16.5561 11.839L16.5636 11.8502L16.5542 11.8596L16.5504 11.8803V11.8935L16.5767 11.9292L16.5843 11.9517L16.5448 12.0119L16.5184 12.0194L16.4715 12.0119L16.4433 11.9931H16.4282L16.385 11.9273L16.3793 11.8953L16.3211 11.8032L16.3192 11.822L16.3417 11.8502L16.353 11.8935L16.3643 11.9705L16.3981 12.0363L16.4 12.1585L16.4113 12.1717H16.4263L16.4451 12.1566L16.4601 12.136L16.4564 12.0645H16.4771L16.5128 12.0852L16.5391 12.1285L16.5485 12.1473V12.1867L16.5353 12.1886L16.509 12.2168L16.4658 12.2356H16.3906L16.3737 12.2206H16.3587L16.3474 12.2093H16.3267L16.2684 12.1266L16.2665 11.9894L16.2741 11.9593V11.9179H16.2647V11.9593L16.2552 11.9856L16.2534 12.0232L16.2552 12.1266L16.3173 12.2262L16.3624 12.2488L16.3756 12.2638H16.3549L16.3568 12.2789L16.3398 12.2751L16.3361 12.2826L16.3267 12.2789L16.3097 12.2676L16.2872 12.2714L16.2722 12.2789H16.2327L16.2158 12.245L16.2026 12.2187L16.1575 12.1774H16.1237L16.1161 12.1529L16.1218 12.1097L16.1312 12.0702V11.9649L16.1237 12.0853L16.103 12.1529L16.0955 12.1586L16.0936 12.2356L16.1067 12.2714L16.1594 12.3296L16.1237 12.3334L16.0973 12.3221L16.0691 12.3277L16.0259 12.3183L15.977 12.3014L15.9451 12.2695L15.93 12.2338L15.9244 12.1981L15.9169 12.1605L15.9244 12.1304L15.9281 12.1003L15.9131 12.1341V12.215L15.8924 12.2093V12.1868L15.8755 12.1642L15.8718 12.1341L15.8661 12.089L15.8642 12.0157L15.8661 11.9706L15.8755 11.9198L15.868 11.918L15.8623 11.9819L15.8586 12.1078L15.8454 12.1116L15.8154 12.153H15.7477L15.7213 12.1304L15.7721 12.0759L15.7665 12.0326L15.7608 11.9819L15.7552 11.8954L15.6969 11.9575L15.6311 12.0045H15.5747L15.5428 11.965L15.5371 11.9199L15.5409 11.8879L15.5747 11.8428L15.5991 11.8391L15.6085 11.8296L15.6142 11.8372L15.601 11.8748L15.5879 11.903L15.5991 11.9293L15.6311 11.933L15.6725 11.8691L15.7044 11.7939L15.7289 11.7563V11.7357L15.7063 11.7526L15.68 11.7582L15.6029 11.7601L15.5578 11.7319L15.5503 11.7093L15.5522 11.6887L15.5541 11.6605L15.6029 11.6285L15.6048 11.6962L15.6368 11.6698V11.6568L15.6781 11.6022L15.7778 11.5139H15.8379L15.8736 11.5402L15.8886 11.544L15.9319 11.5853L15.9338 11.638L15.9845 11.6793L15.9545 11.715L15.9563 11.7338L15.9845 11.7545L16.0108 11.747L16.0221 11.8166L16.0541 11.8354L16.071 11.8372L16.1349 11.762L16.1631 11.7583L16.18 11.7207L16.1725 11.6906L16.165 11.6736V11.6735Z" fill="#D40000" stroke="black" stroke-width="0.03" stroke-linejoin="round"/>
<path d="M15.4429 12.3265V12.3375L15.465 12.3675L15.4634 12.3991L15.3514 12.4558L15.3025 12.459L15.2773 12.4827L15.2126 12.5032L15.1842 12.4968L15.1889 12.4811L15.1921 12.4543L15.1889 12.4385L15.1685 12.4275V12.4022L15.1937 12.3943L15.1858 12.3833L15.1716 12.3817L15.1747 12.3486L15.1811 12.336L15.1826 12.3281L15.1811 12.3123L15.1747 12.2981L15.1574 12.2934L15.1069 12.3139L15.099 12.306L15.0754 12.3312L15.0627 12.3328L15.0612 12.3123L15.0359 12.2791V12.2728L14.9886 12.265L14.9555 12.3075H14.9318L14.9145 12.2949H14.9003L14.8845 12.3044L14.8751 12.3012L14.8609 12.3265H14.853L14.8435 12.306L14.8309 12.2855L14.8262 12.2728L14.8325 12.2476L14.853 12.235L14.8782 12.2223L14.8972 12.2192L14.9192 12.2318L14.9287 12.2523L14.9571 12.2255L14.9855 12.194L15.0091 12.1845L15.0391 12.1892L15.0722 12.2334L15.1038 12.2365L15.1416 12.2097L15.1558 12.2018L15.1905 12.2066L15.2253 12.2255L15.2615 12.2791L15.2678 12.3312L15.2757 12.3454L15.3388 12.3406L15.405 12.328L15.4429 12.3265Z" fill="#D40000" stroke="black" stroke-width="0.03"/>
<path d="M15.4812 12.2553L15.4639 12.3326L15.4844 12.3547L15.4828 12.38L15.4938 12.391L15.5143 12.38L15.5348 12.3658L15.5553 12.3578L15.579 12.3452L15.5821 12.331L15.6073 12.3184L15.6342 12.3105L15.6689 12.3011L15.7036 12.2963L15.6783 12.279L15.6058 12.2317L15.5758 12.2285L15.5648 12.238L15.5222 12.2396L15.4986 12.2458L15.4812 12.2553Z" fill="#D40000"/>
<path d="M15.8292 12.1785L15.7787 12.1769H15.7456L15.7188 12.1659L15.6967 12.1438L15.6935 12.1233L15.6778 12.0981L15.662 12.0823H15.6383L15.6052 12.1044L15.591 12.1328L15.5879 12.1785L15.6068 12.218L15.6699 12.2653L15.7062 12.2732L15.7314 12.2621L15.7882 12.2369L15.8245 12.2133L15.8371 12.1927L15.8292 12.1785ZM15.7077 12.106L15.7361 12.076L15.7377 12.0082L15.7298 12.0019L15.7377 11.9751L15.7408 11.953H15.7298L15.6683 12.0113L15.6257 12.0176L15.6036 12.0303L15.602 12.046L15.6194 12.0571L15.6509 12.0539L15.6683 12.0555L15.7077 12.106Z" fill="#D40000" stroke="black" stroke-width="0.03"/>
<path d="M15.7331 12.2845L15.7883 12.2797L15.8325 12.2829L15.8546 12.2892L15.8988 12.3129L15.924 12.3255L15.9729 12.3223L15.954 12.2987L15.935 12.275L15.9224 12.2513L15.9192 12.2277L15.9082 12.2309L15.8956 12.2277L15.8798 12.2072L15.8704 12.1772L15.864 12.1378L15.8515 12.1362L15.842 12.1551L15.8515 12.1646L15.8609 12.1835L15.8451 12.204L15.8436 12.2198L15.8231 12.2356L15.7947 12.2482L15.7678 12.2592L15.7379 12.2703L15.7331 12.2845ZM16.1369 12.2119L16.1385 12.2797L16.1622 12.3002H16.1842L16.2016 12.2908L16.2063 12.2766L16.1906 12.2671L16.1842 12.2482L16.1511 12.2119H16.1369V12.2119H16.1369ZM16.394 12.2655L16.4618 12.3113L16.4824 12.3176L16.5013 12.3113L16.5328 12.286L16.5486 12.2513L16.5502 12.2261L16.5344 12.2245L16.5092 12.2419L16.4729 12.245L16.4445 12.2498H16.4224L16.4003 12.2545L16.394 12.2655ZM16.5896 12.2135L16.577 12.234L16.5644 12.2655L16.536 12.2955L16.5376 12.3176H16.5249L16.5265 12.3349L16.5486 12.3523L16.6101 12.3617L16.659 12.2987V12.2813L16.6322 12.2497L16.6133 12.245L16.5896 12.2135ZM16.8767 12.3901L16.9082 12.4059V12.417L16.8956 12.4343L16.8877 12.4674L16.8846 12.4879L16.8467 12.4895L16.8073 12.4753L16.7852 12.4611H16.7647L16.7536 12.4517L16.7347 12.4391L16.7111 12.4233L16.6858 12.3902L16.6685 12.3681V12.3523L16.6922 12.3223L16.7158 12.3145H16.8215L16.8704 12.2971L16.9098 12.264L16.9571 12.2545L16.9682 12.2419L16.9997 12.2356L17.0786 12.1946L17.1228 12.2024L17.1669 12.2009L17.2048 12.2119L17.219 12.2245L17.2111 12.2293L17.1906 12.2277L17.1669 12.2403L17.1638 12.2829L17.1827 12.3176L17.178 12.3271L17.1543 12.3255L17.1386 12.3176L17.1306 12.3034V12.2892L17.1149 12.2671L17.1023 12.2624H17.0739L17.0644 12.3223H17.0502L17.0234 12.2987L16.984 12.2939L16.9572 12.3176L16.9666 12.3491L17.0061 12.387H17.0266L17.0455 12.409L17.0439 12.4264L17.0155 12.4201L16.9871 12.4138L16.9635 12.4027L16.9445 12.4059L16.9224 12.3932L16.9004 12.3838L16.8862 12.3775L16.8767 12.3901ZM16.9831 13.0949L16.958 13.1176L16.9413 13.1499L16.9353 13.1833L16.9246 13.2251L16.9198 13.2574L16.9246 13.3279L16.927 13.3661L16.9496 13.4019L16.9616 13.4055L16.9759 13.4342L16.9962 13.378L17.0058 13.3852L17.0118 13.427L17.0452 13.4557C17.0452 13.4557 17.0142 13.4402 17.007 13.4402C16.9998 13.4402 16.9986 13.4485 16.9986 13.4485L17.007 13.4664L17.0261 13.4855L17.0596 13.4987L17.1217 13.4999L17.1074 13.5142H17.0644L17.0536 13.5225L17.0691 13.5453L17.0882 13.5751L17.1229 13.5918L17.1587 13.5823H17.1707L17.1647 13.5966L17.1826 13.6097L17.1981 13.6241L17.2125 13.6396L17.2244 13.642V13.6599L17.2029 13.7137L17.1981 13.7388L17.1862 13.7591L17.179 13.7901L17.1575 13.8272L17.1551 13.8403H17.1659L17.1814 13.82L17.2041 13.8104L17.2316 13.7746C17.2316 13.7746 17.2471 13.7794 17.2507 13.7722C17.2543 13.765 17.271 13.7149 17.271 13.7149L17.2878 13.7113L17.2961 13.6587L17.3105 13.7077L17.3224 13.7698L17.3176 13.8224L17.2866 13.8797L17.2782 13.8893L17.283 13.9084H17.3057L17.332 13.8809L17.3774 13.82L17.3953 13.7591L17.4049 13.6408L17.4252 13.6957L17.4443 13.7495L17.4539 13.7913L17.4395 13.8463L17.4216 13.9108L17.4455 13.8941L17.4957 13.8379L17.5351 13.7794L17.5459 13.7364L17.5555 13.6539L17.5495 13.5894L17.5518 13.5655L17.5602 13.5524L17.559 13.5094L17.5507 13.4914L17.522 13.5297L17.5101 13.5321L17.4766 13.5094L17.4682 13.507L17.4491 13.4795L17.436 13.4353L17.4372 13.3851H17.43C17.43 13.3851 17.4336 13.3433 17.4372 13.3325C17.4408 13.3218 17.4456 13.3015 17.4456 13.3015L17.4396 13.2573L17.4169 13.2154L17.3894 13.1916L17.3452 13.1784L17.2938 13.1641L17.2639 13.1402L17.2078 13.1342L17.1791 13.1378L17.1253 13.1127L17.0907 13.0996L17.0465 13.0984L17.0047 13.0936L16.9831 13.0949ZM15.0608 13.0975L14.9506 13.0953L14.9329 13.0865L14.9065 13.1085H14.8558L14.8007 13.1393L14.7633 13.168L14.7434 13.1658L14.6663 13.2363L14.6773 13.2936L14.6861 13.309L14.6905 13.3641L14.6927 13.4435L14.6751 13.4567L14.6487 13.5228L14.6332 13.5801L14.62 13.6925L14.631 13.7762L14.6156 13.8203L14.5847 13.8688L14.5781 13.8931L14.6046 13.8754L14.6002 13.8666L14.6134 13.8864L14.6464 13.8269L14.6597 13.849L14.6729 13.8511V13.7762L14.6575 13.6594L14.6949 13.7807L14.7037 13.8247L14.7104 13.8225L14.7148 13.7233L14.739 13.7784L14.7412 13.8269L14.7522 13.8357L14.7588 13.8225V13.7498L14.7192 13.633L14.6993 13.525L14.7522 13.666L14.7831 13.6947L14.8117 13.7718L14.836 13.8159L14.8404 13.8445L14.858 13.8335L14.8647 13.8225L14.8492 13.8115L14.8602 13.8027L14.858 13.763L14.8448 13.6705H14.8316L14.7853 13.5735L14.8272 13.633H14.8448L14.847 13.6176L14.8272 13.5779L14.8228 13.5316L14.8624 13.5889L14.8756 13.5823L14.8536 13.5184L14.8492 13.4457L14.8624 13.4765L14.8602 13.5118L14.8889 13.5471L14.9175 13.5625L14.9396 13.5361L14.9241 13.525L14.9175 13.4942L14.8955 13.4677V13.4324L14.9264 13.4875L14.955 13.5074L14.9836 13.514L15.0123 13.4942L15.0608 13.4391L15.0542 13.4324L15.0035 13.4347L14.9638 13.4082L14.9286 13.3752V13.3465L14.9352 13.3509L14.9506 13.3818L14.9792 13.4105L15.0123 13.4148L15.0542 13.4171L15.1004 13.3752L15.1247 13.2958L15.1313 13.2518L15.1225 13.1967L15.0938 13.1327L15.0762 13.1041L15.0608 13.0975ZM16.6828 14.3184L16.566 14.4396L16.5506 14.4352L16.5087 14.4705L16.5065 14.5079L16.5462 14.5388L16.5616 14.5675L16.5727 14.5652L16.6123 14.6137L16.6498 14.6666L16.6652 14.6755L16.6762 14.6997L16.6564 14.7283L16.663 14.746L16.6939 14.7416L16.7292 14.7438L16.7512 14.757L16.76 14.7967V14.8121L16.7842 14.7989L16.8041 14.7702L16.8063 14.6997L16.8019 14.6799L16.8085 14.627L16.8151 14.6975L16.8305 14.7195L16.8415 14.7107L16.8547 14.757L16.8834 14.7857L16.8988 14.8121L16.9011 14.7945L16.8988 14.7592L16.9143 14.7195L16.9319 14.6733L16.9496 14.6622L16.965 14.6689L16.987 14.6909L16.9848 14.6997L17.0047 14.6975L17.0002 14.6446L16.9716 14.6049L16.9275 14.5763L16.9055 14.5543L16.8856 14.519L16.9165 14.5366L16.9496 14.5675L16.9804 14.5829L17.0024 14.5873L17.0399 14.6601L17.0642 14.6953L17.0686 14.6468L17.0862 14.5917L17.1039 14.5675L17.1259 14.5653L17.1546 14.5741L17.1479 14.541L17.1259 14.4992L17.0818 14.4595L17.0355 14.4243L16.9959 14.4066L16.9606 14.4375L16.9496 14.4419L16.9297 14.4595L16.9143 14.4529L16.8636 14.4044L16.8504 14.3956L16.8284 14.3427L16.7953 14.3272L16.7446 14.3317L16.6828 14.3184ZM15.3583 14.2898L15.3737 14.3162L15.387 14.3581L15.409 14.3823L15.4068 14.3955L15.4376 14.422L15.4685 14.4705L15.5192 14.5123L15.4817 14.5454L15.3936 14.6115L15.3649 14.6204L15.3274 14.5983L15.3318 14.6512L15.3473 14.6754L15.3076 14.6666L15.2613 14.671L15.2327 14.6953L15.226 14.7195L15.215 14.7019L15.1996 14.6776L15.1952 14.6732L15.1864 14.6798L15.193 14.6842L15.1952 14.7283L15.1842 14.7371L15.182 14.7503L15.1313 14.7834L15.1181 14.7503L15.1004 14.7129L15.0696 14.6974L15.0365 14.7019L14.9991 14.7239L15.0101 14.693L15.0321 14.6578L15.074 14.6225L15.1158 14.5961L15.1489 14.5829L15.1577 14.5784L15.1467 14.5674L15.085 14.585L15.0409 14.6137L14.9946 14.6468L14.9594 14.6974L14.9417 14.7106V14.6732L14.9219 14.6225L14.9153 14.5894L14.8954 14.5652H14.8712L14.8382 14.5718L14.8624 14.53L14.9109 14.5035L14.9329 14.4661L14.9726 14.433L15.0056 14.4264L15.0541 14.433L15.0784 14.4462L15.1247 14.4484L15.1533 14.4462L15.1886 14.4286L15.2172 14.3757L15.2569 14.3184L15.3032 14.2941L15.3583 14.2898Z" fill="#D40000" stroke="black" stroke-width="0.03"/>
<path d="M15.9052 11.3093V11.3371L15.8949 11.3537H15.8766L15.8655 11.3657L15.8623 11.3752L15.883 11.3943L15.902 11.4077L15.91 11.4173L15.9148 11.4197L15.9942 11.4189L16.0037 11.4284L16.0212 11.4157L16.0427 11.3831L16.1102 11.3839L16.1459 11.4101L16.1483 11.4316L16.1563 11.4348L16.1753 11.4181L16.1912 11.4173L16.1991 11.4276H16.2134L16.2603 11.3855L16.2683 11.3744L16.2857 11.3736L16.2834 11.3601L16.2643 11.3553L16.2476 11.3387L16.2428 11.3109L16.2278 11.3085L16.2015 11.322L16.1563 11.3442L16.1412 11.3553L16.1277 11.3561C16.1277 11.3561 16.1221 11.3514 16.1189 11.3514H16.1015L16.0871 11.3633H16.076L16.072 11.3593L16.0109 11.3545L15.96 11.3418L15.9338 11.3244L15.9171 11.3109L15.9123 11.3061L15.9052 11.3093Z" fill="black" stroke="black" stroke-width="0.03"/>
<path d="M15.9429 11.3822H15.9778L15.9866 11.3894V11.3989L15.9699 11.406L15.9405 11.4076L15.9198 11.4045L15.9055 11.3917L15.9023 11.3663L15.9214 11.3449H15.9397L15.9413 11.352L15.9429 11.3822ZM16.1764 11.3806L16.1709 11.3854V11.3949L16.178 11.3997L16.213 11.4013L16.2511 11.3711L16.2519 11.3592L16.2289 11.3393H16.209L16.2058 11.3449L16.2106 11.3552L16.2169 11.3648L16.2106 11.3775L16.1764 11.3806Z" fill="white" stroke="black" stroke-width="0.03"/>
<path d="M14.9255 12.3268L14.946 12.363L14.9444 12.4277L14.9365 12.4356L14.9066 12.4104L14.8908 12.3883L14.875 12.3615V12.3378L14.8908 12.3252L14.9113 12.3205L14.9255 12.3268ZM14.9886 12.4308L15.0343 12.3362V12.311L15.017 12.2857H14.9933L14.9681 12.3094V12.393L14.9886 12.4308ZM15.0674 12.4308L15.0927 12.4198L15.1542 12.3614L15.1637 12.3441L15.1589 12.3299L15.1416 12.3173L15.1305 12.3141L15.1053 12.3252L15.0911 12.3394L15.0627 12.3898L15.0674 12.4308ZM15.1763 12.4718L15.1542 12.4876L15.1289 12.4861L15.0832 12.4545L15.0848 12.4482L15.1132 12.4434L15.1384 12.4324L15.1637 12.434L15.1779 12.4466L15.1826 12.4608L15.1763 12.4718Z" fill="#5656A6" stroke="black" stroke-width="0.03"/>
<path d="M16.933 12.4254H16.9693L16.9898 12.4364H17.0308V12.4522L17.0071 12.4695L16.9614 12.4822L16.9409 12.4916L16.9251 12.49L16.9141 12.4758V12.4538L16.9235 12.4348L16.933 12.4254ZM17.1838 12.3765C17.1838 12.3765 17.209 12.3623 17.2137 12.3513C17.2185 12.3402 17.2295 12.3166 17.2295 12.3166L17.239 12.2755L17.2264 12.2409L17.2027 12.2346L17.1822 12.2361L17.1712 12.2471L17.168 12.2771L17.1791 12.3024L17.1885 12.3166L17.187 12.3434L17.1838 12.3765ZM17.0891 12.3891L17.1144 12.3765L17.1301 12.3465L17.1317 12.3134L17.1191 12.2881L17.1018 12.2693H17.0781L17.0718 12.3134L17.0891 12.3308V12.3891H17.0891ZM17.0592 12.4175L17.0686 12.4065L17.0734 12.3828L17.0639 12.3481L17.0497 12.3323L17.0324 12.3166L17.0134 12.304H16.9866L16.9693 12.3181L16.974 12.3465L17.0056 12.3702L17.0308 12.3749L17.0592 12.4175ZM17.1744 12.3425V12.3709L17.146 12.375L17.1439 12.3364L17.1744 12.3425Z" fill="#48489C" stroke="black" stroke-width="0.03"/>
<path d="M16.9555 14.7113L16.9313 14.7444V14.7995L16.9423 14.826L16.9313 14.9295L16.9864 14.8524L17.0062 14.8127L17.004 14.7598L16.9886 14.7356L16.9709 14.7201L16.9555 14.7113ZM17.1384 14.5968L17.1208 14.6012L17.101 14.643L17.0966 14.6981L17.1076 14.7267V14.7664L17.112 14.7907L17.1318 14.7621L17.1605 14.7135L17.1648 14.6783V14.6298L17.1516 14.6078L17.1384 14.5968ZM16.658 14.8832L16.6866 14.8634L16.7087 14.848L16.7374 14.8105L16.7329 14.7819L16.7153 14.7687L16.6932 14.7598L16.6734 14.7621L16.6514 14.7929L16.6536 14.8546L16.658 14.8832Z" fill="#4F4D9F" stroke="black" stroke-width="0.03"/>
<path d="M15.3159 14.6897L15.3379 14.6985V14.7581L15.3005 14.7999L15.2586 14.8308L15.2608 14.7911L15.2498 14.7779V14.736L15.2586 14.725V14.7052L15.2961 14.6853L15.3159 14.6897ZM15.0294 14.725L15.0602 14.7228L15.0933 14.7426L15.1065 14.7801L15.0867 14.7977L15.0757 14.8153L15.0691 14.844L15.0735 14.8903L15.0757 14.9322L15.0382 14.8859L15.0074 14.8374L15.0051 14.7889L15.0161 14.7471L15.0294 14.725ZM14.9236 14.6699L14.9148 14.7007L14.9038 14.7073L14.8905 14.725V14.7911L14.8685 14.7779L14.8443 14.747L14.8311 14.714L14.8355 14.6302L14.8465 14.595L14.8729 14.5861L14.8994 14.595L14.9214 14.6457L14.9236 14.6699ZM14.9258 14.4561L14.9126 14.4892L14.8773 14.5156C14.8719 14.4804 14.8901 14.4619 14.9258 14.4561Z" fill="#4748A5" stroke="black" stroke-width="0.03"/>
<path d="M15.0077 12.4828L15.0502 12.5223L15.0818 12.5427L15.107 12.5522L15.1386 12.5696H15.2049L15.2648 12.5632L15.2947 12.5522L15.3531 12.5506L15.4004 12.5285L15.4351 12.5049L15.4698 12.5033L15.4888 12.4844H15.514L15.5644 12.4465L15.6355 12.415L15.7096 12.3882L15.79 12.3724L15.8231 12.374L15.8358 12.3834L15.8515 12.4102L15.8578 12.4229L15.85 12.4497L15.82 12.4671L15.8137 12.4481L15.8326 12.4323L15.8279 12.4229L15.7979 12.4181H15.7774L15.7585 12.4371L15.7553 12.4797L15.7806 12.5017L15.8074 12.5191L15.831 12.5207L15.8594 12.5033L15.8973 12.4702L15.9194 12.4323L15.913 12.3771L15.9004 12.3424L15.8626 12.314L15.8153 12.2951L15.7332 12.2967L15.6843 12.3093L15.6654 12.3156L15.6134 12.3503L15.5897 12.3519L15.5377 12.3866L15.5171 12.3945L15.4935 12.4039L15.4572 12.4197L15.3878 12.4512L15.3405 12.4796L15.3168 12.4828L15.2616 12.5175L15.1827 12.5238L15.1686 12.5159L15.1323 12.5112L15.1086 12.5017L15.085 12.4891L15.0518 12.4497L15.0424 12.4433H15.0124L15.0029 12.456L15.0077 12.4828Z" fill="#DFDA4D" stroke="black" stroke-width="0.03"/>
<path d="M15.9258 12.3505L15.9353 12.4294L15.918 12.4782L15.9542 12.4798H15.9968L16.0347 12.4719L16.071 12.4688L16.1041 12.4704L16.1309 12.4735L16.164 12.4609L16.1656 12.4357L16.1577 12.4136L16.1735 12.3647L16.1671 12.3536L15.9258 12.3505Z" fill="#D9D24D" stroke="black" stroke-width="0.03"/>
<path d="M16.2988 12.4366L16.2894 12.4429L16.2752 12.4366L16.2673 12.4145L16.283 12.4003L16.3177 12.4019L16.3493 12.4303V12.4713L16.3067 12.4918L16.2626 12.5029L16.2136 12.4887L16.1837 12.4476L16.1758 12.4193L16.1821 12.3704L16.19 12.3388L16.2326 12.3072L16.2783 12.2931L16.3319 12.2852L16.3935 12.3009L16.518 12.3483L16.6016 12.3861L16.6947 12.435L16.7499 12.4603L16.8225 12.4949L16.8667 12.5107L16.9171 12.5044L16.9392 12.506L16.9834 12.4918L17.0133 12.4886L17.0796 12.4113L17.1064 12.3956L17.1032 12.4303L17.0591 12.4792L17.0212 12.5218L17.0055 12.5234L16.985 12.5407L16.9455 12.5391L16.854 12.5438L16.8099 12.5296L16.7405 12.5154L16.6585 12.4792L16.5938 12.446L16.5622 12.4413L16.5133 12.4161L16.4834 12.4129L16.466 12.4003L16.4124 12.3845L16.3682 12.3688L16.3256 12.364L16.2925 12.3593L16.2767 12.3688L16.261 12.3908L16.2531 12.4208L16.2641 12.4571L16.2831 12.4603L16.3004 12.4524L16.3067 12.4398L16.2988 12.4366V12.4366Z" fill="#D9D34A" stroke="black" stroke-width="0.03"/>
<path d="M15.3675 14.1748L15.3474 14.1949L15.3157 14.1748L15.3301 14.1374L15.3818 14.1288L15.4106 14.1719L15.3991 14.215L15.3588 14.2553L15.3099 14.2697L15.261 14.2754L15.2036 14.2726L15.1259 14.2553L15.0655 14.1834L15.0195 14.0914L14.985 14.0137L14.9448 13.8556L14.9246 13.7894L14.916 13.7291L14.8729 13.6457L14.8901 13.6313L15.0396 13.499H15.0483L15.0799 13.4703L15.1345 13.3667L15.1403 13.361L15.1575 13.2977L15.1546 13.1885L15.1403 13.1367L15.1058 13.0792C15.1058 13.0792 15.0943 13.0591 15.1058 13.0619C15.1173 13.0648 15.0742 13.0131 15.0742 13.0131L15.0224 12.9584V12.9469L14.985 12.9095L14.9591 12.8952H14.939L14.9304 12.8836L14.893 12.8721L14.8757 12.8894L14.8642 12.9268V12.9412L14.8901 12.9527L14.8987 12.9469L14.8901 12.9325L14.893 12.9153L14.9131 12.9009L14.9361 12.9181L14.9332 12.9613L14.916 12.9814L14.8729 12.9843L14.8384 12.967L14.824 12.9383L14.8125 12.8952L14.824 12.8693L14.8412 12.8549L14.87 12.8606L14.916 12.8491L14.9304 12.8434L14.9678 12.8491L14.9936 12.875L15.0224 12.8923L15.0943 12.9728L15.1144 12.9929L15.1518 13.0476L15.1978 13.1511L15.2093 13.2229L15.2036 13.2949L15.1662 13.3984L15.123 13.4645L15.0627 13.5393L14.9592 13.6256L14.9448 13.6284L14.9218 13.6572L14.962 13.7435L15.0253 14.008L15.0771 14.1173L15.1518 14.1949L15.2093 14.2265L15.2841 14.2352L15.3502 14.2179L15.379 14.1921L15.3675 14.1748H15.3675Z" fill="#DDD457" stroke="black" stroke-width="0.03"/>
<path d="M15.4887 14.2361L15.4801 14.2504L15.4916 14.2735L15.5203 14.2792L15.5404 14.2533V14.2245L15.5232 14.1929L15.5002 14.1871L15.4743 14.19L15.4369 14.2159L15.4168 14.2389L15.4053 14.2935L15.434 14.3827L15.4801 14.4431L15.5951 14.5179L15.7187 14.5639L15.7963 14.5753L15.8539 14.6329L15.8826 14.7019L15.8568 14.745L15.8223 14.7479V14.7307L15.8366 14.7278L15.8539 14.7105L15.8453 14.6933L15.8108 14.6731L15.782 14.6961L15.7791 14.7479L15.805 14.7738L15.8424 14.7824L15.8711 14.7709L15.8999 14.7392L15.9028 14.7019L15.8913 14.6472L15.8424 14.5782L15.7906 14.5523L15.6612 14.5063L15.5778 14.4747L15.5174 14.4315L15.4628 14.3741L15.4312 14.2907L15.4456 14.2361L15.4772 14.213L15.4944 14.2188L15.4887 14.2361Z" fill="#DBD45D" stroke="black" stroke-width="0.03"/>
<path d="M16.5325 14.2387L16.5555 14.2531L16.5584 14.2761L16.5325 14.2876L16.498 14.2819V14.2474L16.5181 14.2042L16.5757 14.2014L16.6015 14.233L16.6188 14.2934L16.6015 14.3566L16.5354 14.4113L16.4434 14.4746L16.3427 14.5177L16.1932 14.5895L16.1501 14.6211L16.1127 14.6902L16.1357 14.7305L16.1645 14.7362V14.7218L16.1558 14.7103L16.1616 14.6787L16.1788 14.6614L16.2133 14.6816L16.222 14.7247L16.1903 14.7563L16.1558 14.7621L16.1012 14.7362L16.0839 14.7075L16.0811 14.6672L16.1041 14.6298L16.1501 14.5838L16.222 14.5435L16.3255 14.5004L16.4779 14.4256L16.5843 14.3106V14.2646L16.5612 14.2359L16.5325 14.2387Z" fill="#E5DC5E" stroke="black" stroke-width="0.03"/>
<path d="M16.664 14.1543V14.1801H16.6841L16.7043 14.1773L16.7129 14.1428L16.6957 14.1198L16.6726 14.1169L16.6439 14.1226L16.6123 14.1457L16.6094 14.1917L16.6237 14.2233L16.6525 14.2664L16.7043 14.2923L16.756 14.3067L16.8337 14.3009L16.9228 14.2578L17.0062 14.1974L17.0407 14.114L17.0838 13.9616L17.1384 13.769L17.1729 13.6971L17.2017 13.6712L17.1931 13.6597H17.1672L17.1011 13.6108L17.0321 13.5677L16.9429 13.4613L16.8969 13.3722L16.8825 13.2457L16.9084 13.122L16.963 13.03L17.0522 12.9552L17.1327 12.8977L17.2132 12.8949L17.2247 12.9265L17.2132 12.9524L17.1959 12.938L17.1701 12.9351L17.1586 12.9782L17.1873 12.9926L17.2391 12.9869L17.2535 12.9524L17.2477 12.9035L17.2103 12.869L17.1442 12.8747L17.0953 12.8804L17.0349 12.915L16.9717 12.9811L16.9285 13.0444L16.8739 13.1335L16.8566 13.214L16.8595 13.3549L16.9314 13.5073L16.9947 13.5878L17.1183 13.6712L17.1384 13.6856L17.1011 13.769L17.0464 13.9444L17.0119 14.0853L16.9832 14.1457L16.8912 14.2262L16.7876 14.2664L16.6985 14.2636L16.6554 14.2319L16.6439 14.2032L16.641 14.1601L16.664 14.1543Z" fill="#D7D643" stroke="black" stroke-width="0.03"/>
<path d="M15.8774 12.7937L15.873 12.8377L15.8863 12.9347L15.9347 13.2014H15.959L15.9612 13.1595L15.8774 12.7937Z" fill="#44B3CC" stroke="black" stroke-width="0.03"/>
<path d="M16.0012 13.1822L15.9131 12.7965L15.9792 13.1888L16.0012 13.1822Z" fill="#50AECE" stroke="black" stroke-width="0.03"/>
<path d="M16.0164 13.1778L16.0472 13.1668L15.9326 12.7965L16.0164 13.1778Z" fill="#50AFCE" stroke="black" stroke-width="0.03"/>
<path d="M15.9658 12.7738L16.1002 13.1595L16.0738 13.1683L15.9658 12.7738Z" fill="#50ABCE" stroke="black" stroke-width="0.03"/>
<path d="M16.1203 13.1511L15.9902 12.761L16.1555 13.1467L16.1203 13.1511Z" fill="#50B0CE" stroke="black" stroke-width="0.03"/>
<path d="M16.1689 13.1306L16.0146 12.7581L16.2064 13.135L16.1689 13.1306Z" fill="#50B3CE" stroke="black" stroke-width="0.03"/>
<path d="M14.9608 12.4495L14.94 12.4527L14.9144 12.4735L14.9033 12.5006L14.9049 12.5502L14.9225 12.5806L14.9528 12.6126L14.9672 12.6366L14.9592 12.6797L14.9161 12.7069L14.8697 12.7405L14.8521 12.7677L14.8457 12.798L14.8473 12.83L14.8537 12.838L14.8889 12.8364L14.9097 12.83L14.9416 12.8268L14.972 12.8316L15.0184 12.8636L15.0839 12.9228L15.1127 12.9564L15.0919 12.9068L15.0807 12.8476L15.0727 12.7884L15.0824 12.7533L15.0983 12.7309L15.1159 12.7405L15.1303 12.7325L15.1495 12.7421L15.1655 12.7325L15.1911 12.7405L15.223 12.7245L15.271 12.6877H15.3046L15.3142 12.6957L15.3334 12.6877L15.3446 12.7037L15.3846 12.6733L15.4165 12.6573L15.4485 12.6701L15.4901 12.6797L15.5061 12.6653L15.5396 12.6637L15.586 12.6573L15.6084 12.6733L15.6307 12.7277L15.6467 12.7453L15.6707 12.7501L15.6835 12.7565L15.7059 12.8124L15.7219 12.8572L15.7299 12.9116L15.7267 12.9259L15.7411 12.9244L15.7635 12.9467L15.7827 12.9563L15.7986 12.9739L15.8034 13.0027L15.8162 13.0011L15.8274 12.9867L15.8498 12.9915L15.869 13.0123L15.8882 13.0139L15.8546 12.7916L15.8226 12.774L15.821 12.7229L15.8961 12.6957L15.8977 12.6765L15.8866 12.6445L15.8722 12.6158L15.8434 12.6189L15.8658 12.547L15.9217 12.6046L15.8961 12.6078L15.9185 12.6957L16.0144 12.6797L16.0321 12.7037L16.0257 12.7245L16.0337 12.7389L16.0384 12.7645L16.0672 12.8012L16.1424 12.9643L16.2143 13.1114L16.2463 13.0778L16.2799 13.0698L16.3167 13.0442L16.339 13.0362L16.355 13.0155L16.3966 13.0139L16.4589 13.0698L16.4686 13.0554L16.5277 13.0522L16.5469 13.0906L16.5501 13.1066L16.5741 13.097L16.6396 13.1114L16.6796 13.1434L16.7099 13.1561L16.718 13.1721L16.7355 13.1513L16.7483 13.153L16.7691 13.1578L16.8347 13.153L16.8683 13.0858C16.8683 13.0858 16.8986 13.0235 16.9131 13.0075C16.9274 12.9915 16.9866 12.9275 16.9866 12.9275L17.0585 12.8795L17.1129 12.8492L17.1641 12.8428L17.2121 12.8412L17.2105 12.798L17.1913 12.7564L17.1433 12.6941L17.1337 12.6445V12.6141L17.1753 12.5869L17.2248 12.547L17.2264 12.5054L17.2121 12.4542L17.1833 12.4111L17.1737 12.4031L17.1577 12.3999L17.1353 12.4143L17.0905 12.4766L17.041 12.5262L16.9802 12.563L16.9099 12.571L16.7979 12.5534L16.7196 12.5294L16.6221 12.4926L16.5197 12.4446L16.4638 12.4334L16.379 12.3919L16.3471 12.3903L16.3454 12.4047L16.371 12.4302L16.3646 12.475L16.3422 12.499L16.3007 12.5006C16.3007 12.5006 16.3055 12.5038 16.2815 12.5102C16.2575 12.5166 16.2367 12.5102 16.2367 12.5102L16.1968 12.4862L16.1584 12.4798H16.0816L15.9969 12.4878L15.901 12.4958L15.853 12.5374L15.8114 12.5438L15.7667 12.5326L15.7203 12.4782L15.7219 12.4479L15.7555 12.4063L15.7379 12.4047L15.6323 12.4431L15.5668 12.4798L15.5316 12.5022L15.506 12.5006L15.4724 12.531L15.4309 12.5342L15.4069 12.5598L15.3989 12.5566L15.3318 12.5742L15.271 12.5853C15.271 12.5853 15.1942 12.5965 15.1863 12.5965C15.1782 12.5965 15.1047 12.5869 15.1047 12.5869L15.0503 12.5598L15.0248 12.531L15.0008 12.515L14.9688 12.4814L14.9704 12.4558L14.9608 12.4495Z" fill="#64B4D1" stroke="black" stroke-width="0.03"/>
<path d="M15.9163 13.247L15.9141 13.2969L15.9504 13.2878L15.9458 13.2402L15.9163 13.247ZM15.964 13.2334V13.2742H15.9799V13.2311L15.964 13.2334ZM16.0003 13.2243V13.2697L16.023 13.2628L16.0207 13.222L16.0003 13.2243ZM16.0479 13.2152L16.0502 13.2492H16.0706L16.0729 13.2084L16.0479 13.2152ZM16.0933 13.2061V13.2424H16.125L16.1205 13.2016L16.0933 13.2061ZM16.1432 13.1948V13.2288L16.1704 13.222L16.1636 13.1857L16.1432 13.1948Z" fill="#5DB7D2" stroke="black" stroke-width="0.03"/>
<path d="M16.9824 13.6081V13.644L16.9908 13.6488L16.9932 13.6607L17.0302 13.6667L17.0266 13.6548L17.0027 13.632L16.9967 13.6153L16.9824 13.6081Z" fill="#FFFCFC" stroke="black" stroke-width="0.03"/>
<path d="M16.2261 13.1316L16.22 13.1194L16.2403 13.097L16.2789 13.0889L16.3094 13.0645L16.348 13.0402L16.3886 13.03L16.4415 13.0747L16.4232 13.089L16.4049 13.0869L16.3703 13.1093L16.3439 13.1255L16.3216 13.1215L16.3013 13.1154L16.2891 13.1255H16.2708L16.2565 13.1337L16.2261 13.1316ZM16.474 13.0747L16.4943 13.0666H16.5248L16.5411 13.1113V13.1255L16.5675 13.1174H16.6163L16.6508 13.1336L16.6813 13.1641L16.7138 13.1824H16.7402V13.1682H16.7666L16.7727 13.1763L16.8011 13.1804L16.8215 13.1743L16.8276 13.1926L16.8235 13.2169L16.8174 13.2353L16.8255 13.3125L16.8621 13.4445L16.9312 13.5563L16.9048 13.5441L16.8459 13.536L16.8276 13.5441L16.8032 13.5421L16.7747 13.5685L16.7605 13.5705L16.7483 13.5807L16.726 13.5502L16.6406 13.4364L16.6183 13.412L16.5695 13.3064L16.5025 13.1621L16.4984 13.1031L16.4821 13.0869L16.474 13.0849V13.0747H16.474ZM16.4496 13.8611L16.4842 13.8774L16.4822 13.8611L16.5065 13.8774C16.5065 13.8774 16.5289 13.8815 16.5411 13.8794C16.5532 13.8774 16.5797 13.851 16.5797 13.851L16.5878 13.7961L16.6407 13.7047L16.6792 13.6823L16.6915 13.6803L16.728 13.6396L16.7971 13.6031L16.8296 13.5909L16.8825 13.601L16.9211 13.6193L16.9292 13.6518L16.9353 13.7392L16.9597 13.7575L16.98 13.7473L16.9983 13.725L17.043 13.7087L17.0755 13.7128L17.0735 13.7534L17.0593 13.8286L17.0369 13.9079L17.0003 14.0338L16.9658 14.1233L16.8804 14.1883L16.8134 14.231H16.7057L16.6732 14.2005L16.7138 14.1903L16.728 14.166L16.7321 14.1233L16.6955 14.0969L16.659 14.0989L16.6102 14.1274L16.5919 14.1517L16.5817 14.1802H16.5635L16.5228 14.1781L16.4923 14.1985L16.47 14.2269L16.4639 14.2696L16.474 14.3001L16.4964 14.3143L16.537 14.3122L16.5472 14.3041H16.5553L16.5187 14.3447L16.472 14.3935L16.411 14.4342L16.3704 14.4463L16.3033 14.4707L16.2546 14.4931L16.1997 14.4951L16.1428 14.5459L16.1042 14.5764L16.0778 14.613L16.0656 14.676V14.7227L16.096 14.7633L16.092 14.7756L16.0737 14.7735L16.0635 14.7654H16.0188L16.0066 14.7471L15.9843 14.7512L15.9518 14.7613L15.9375 14.7756L15.9131 14.7633L15.9274 14.7268L15.9294 14.6923L15.9193 14.6455L15.8888 14.5845L15.8624 14.5561L15.8156 14.5276L15.7262 14.5012L15.6287 14.4647L15.5576 14.4301L15.5311 14.3895L15.521 14.3387L15.5372 14.3549L15.523 14.298L15.5433 14.3244L15.5576 14.3264L15.5982 14.3773L15.6307 14.3834L15.6389 14.3874H15.649L15.651 14.3834L15.6815 14.3997L15.7161 14.4098H15.7648L15.7222 14.3997L15.6693 14.3753L15.6145 14.3447L15.584 14.3042L15.5799 14.2859L15.5636 14.2838L15.5657 14.2716L15.5779 14.2574L15.5941 14.2594L15.5982 14.2716L15.6145 14.2655L15.6409 14.2858L15.6856 14.2899L15.7181 14.2939L15.6897 14.2777L15.645 14.2533L15.6003 14.2127L15.586 14.2106L15.5413 14.1416L15.5169 14.0745L15.4966 14.0034V13.9201L15.523 13.853L15.5616 13.792L15.584 13.7717L15.6023 13.7778L15.649 13.7433L15.6815 13.7331L15.7242 13.7351L15.7567 13.7453L15.8034 13.7595L15.8258 13.788L15.8481 13.79L15.8542 13.8063L15.842 13.8103L15.8583 13.8327L15.8522 13.8469L15.8664 13.8652L15.8644 13.8916L15.838 13.9221L15.8563 13.9526L15.8542 13.9627L15.8766 13.9871L15.8969 14.0176L15.9314 14.0237L16.0127 14.0257L16.0716 14.0196L16.1062 14.0176L16.092 14.0013L16.1163 13.9952L16.1468 13.9891L16.2017 13.9465C16.2017 13.9465 16.2444 13.8733 16.2525 13.8631C16.2606 13.853 16.2769 13.8184 16.2769 13.8184L16.346 13.7473L16.3724 13.7371L16.4333 13.7067H16.4963L16.5126 13.725L16.539 13.7291L16.5634 13.7595L16.5756 13.8429L16.537 13.8693H16.5045L16.4822 13.855L16.476 13.8672L16.4496 13.8611ZM15.4635 14.1606C15.4635 14.1606 15.4683 14.1511 15.4731 14.1511C15.4779 14.1511 15.4887 14.1499 15.4887 14.1499L15.4899 14.0877C15.4899 14.0877 15.4815 14.083 15.4803 14.0782C15.4791 14.0734 15.4791 14.0507 15.4791 14.0507L15.4707 14.0423L15.4695 13.7914L15.4456 13.7269L15.4253 13.6923L15.4086 13.6791L15.3823 13.6768L15.3525 13.6959L15.3345 13.7054L15.2963 13.6971L15.282 13.6875L15.2592 13.6863L15.2389 13.6493L15.1971 13.6361L15.178 13.6302L15.1207 13.6254L15.1039 13.6242L15.0824 13.6385L15.0573 13.6684L15.0394 13.703L15.037 13.7592L15.0502 13.7771V13.8034L15.0562 13.8142V13.8369L15.037 13.8142L15.0179 13.7676L15.0084 13.7389L15 13.7509L15.0024 13.7891L15.0036 13.8201L15.0143 13.8488L15.0251 13.8894L15.043 13.9408L15.0573 13.9958L15.0705 14.0483L15.0956 14.0961L15.1171 14.126L15.1661 14.175L15.1971 14.1965L15.2449 14.2132L15.2987 14.2121L15.3154 14.2001L15.2939 14.1798C15.2939 14.1798 15.2903 14.1667 15.2903 14.1619C15.2903 14.1571 15.2975 14.1332 15.2975 14.1332L15.3202 14.1093L15.3859 14.0973L15.4086 14.1141L15.4385 14.1475L15.4635 14.1606ZM16.1828 13.1841V13.2181L16.2032 13.2136L16.1987 13.1841H16.1828ZM16.2168 13.1751V13.2023H16.2304V13.1728L16.2168 13.1751ZM16.2463 13.1728L16.2486 13.1977L16.2712 13.1932L16.269 13.1637L16.2463 13.1728ZM16.2916 13.1546V13.1887H16.3053L16.3098 13.1546H16.2916ZM16.3302 13.1478V13.1773L16.3484 13.1796L16.3438 13.1479H16.3302V13.1478ZM16.3665 13.1388V13.1728L16.3847 13.175V13.1456L16.3665 13.1388ZM16.4028 13.1274L16.396 13.166H16.4164L16.4142 13.1365L16.4028 13.1274ZM16.43 13.1274V13.1592L16.4595 13.1455L16.455 13.1115L16.43 13.1274Z" fill="#CCCCCC" stroke="black" stroke-width="0.03"/>
<path d="M15.8675 12.5536L15.8477 12.6131L15.916 12.6021L15.8675 12.5536Z" fill="#76401B"/>
<path d="M16.4297 13.6863L16.3658 13.704L16.3217 13.7392L16.2644 13.7987L16.2181 13.8825L16.1652 13.9464L16.0682 13.986L15.9801 13.9883L15.9117 13.9684L15.8875 13.9309L15.8809 13.8825L15.8721 13.823L15.8522 13.7855L15.8214 13.748L15.7861 13.7238L15.8236 13.5651L15.8346 13.5298V13.4835L15.8412 13.4219L15.8743 13.3668L15.9073 13.3359L15.9646 13.3095L16.066 13.283L16.1674 13.25L16.2732 13.2257L16.3922 13.1971L16.4429 13.1927L16.4385 13.2588L16.4517 13.283L16.4495 13.4549L16.4385 13.607L16.4297 13.6863ZM16.4539 13.6841L16.5156 13.6973L16.5641 13.726L16.5839 13.7546L16.6104 13.7326L16.6214 13.6951L16.6677 13.6687L16.7382 13.607L16.6787 13.5166L16.6478 13.4725L16.606 13.4241L16.5553 13.3315L16.498 13.2059H16.4671L16.4627 13.4549L16.4649 13.5452L16.4539 13.6841Z" fill="#784421" stroke="black" stroke-width="0.03"/>
<path d="M15.8262 12.7235L15.8284 12.7698L16.0179 12.7103V12.6927L15.8262 12.7235Z" fill="#A05A2C" stroke="black" stroke-width="0.03"/>
<path d="M15.2871 13.7908L15.2957 13.8336L15.3242 13.885L15.3784 13.932L15.3328 13.8992L15.367 13.9449L15.3085 13.9078L15.3656 13.9449L15.3057 13.8593L15.2871 13.7908V13.7908ZM15.2173 13.9805L15.1959 14.0033L15.1588 13.9976L15.1602 14.0447L15.2115 14.1203L15.1602 14.049L15.1617 14.0005L15.1973 14.0033L15.2173 13.9805V13.9805ZM15.1559 14.1117L15.1445 14.0789V14.0418L15.1559 14.1117Z" stroke="black" stroke-width="0.03"/>
<path d="M15.8308 13.929L15.8137 13.9461L15.7852 13.9533C15.7852 13.9533 15.7567 13.9504 15.751 13.9461C15.7453 13.9418 15.7139 13.9233 15.7139 13.9233L15.751 13.9433H15.8165L15.8308 13.929ZM15.8764 13.9961L15.8836 14.0374L15.9121 14.0873L15.9306 14.1115L15.8764 13.9961Z" fill="#666666" stroke="black" stroke-width="0.03"/>
<path d="M15.9743 14.114L15.9471 14.1055L15.9229 14.0826L15.8887 14.0213L15.9243 14.067L15.9743 14.114Z" fill="#808080" stroke="black" stroke-width="0.03"/>
<path d="M15.7363 13.9474L15.7406 14.0687L15.752 14.1157L15.7691 14.15L15.7919 14.1856L15.7976 14.1714L15.8219 14.1885L15.829 14.1813L15.8048 14.1571L15.7805 14.1243L15.7662 14.0901L15.7506 14.0316L15.7449 13.9689H15.7648L15.7591 13.9574L15.7363 13.9474Z" fill="#666666" stroke="black" stroke-width="0.03"/>
<path d="M16.2754 14.1374L16.321 14.1331L16.3638 14.0975L16.3709 14.0732L16.3909 14.0589L16.388 14.1003L16.398 14.1217L16.4251 14.1303L16.4422 14.1459L16.4722 14.1488L16.5149 14.1217L16.5463 14.0889L16.5734 14.0646L16.5934 14.0561L16.6005 14.0162H16.6133L16.6162 13.9976L16.6105 13.962L16.5977 13.9278L16.5806 13.905L16.552 13.8793L16.5392 13.885L16.5706 13.9149L16.5962 13.9477L16.5977 13.9991L16.5905 14.019L16.552 14.0632L16.5021 14.1174L16.4779 14.1288L16.4266 14.1217L16.408 14.0975L16.4037 14.0804L16.398 14.0633V14.0433L16.4052 14.029L16.3524 14.0889L16.331 14.0903L16.2754 14.1374Z" fill="#808080" stroke="black" stroke-width="0.03"/>
<path d="M16.9609 13.7643L16.9723 13.7543L16.9852 13.7728L16.988 13.8242L16.9895 13.8256V13.8598L16.9695 13.8969L16.9267 13.9425L16.8768 13.9639L16.8312 13.9696L16.7998 13.9625L16.7884 13.9439L16.7812 13.9254V13.8826L16.7898 13.8655L16.7927 13.8741L16.7912 13.9211L16.8069 13.9397L16.8397 13.9496L16.8696 13.9397L16.9053 13.9297L16.9352 13.9126L16.9367 13.9026L16.9253 13.9012L16.9281 13.8969H16.9452L16.9666 13.8541L16.9737 13.8184V13.7899L16.9652 13.7814L16.9609 13.7743V13.7643H16.9609Z" fill="#808080" stroke="black" stroke-width="0.03"/>
<path d="M15.8317 14.4247L15.7604 14.4589L15.6948 14.4789L15.6592 14.4732L15.729 14.4989L15.7562 14.4775L15.7989 14.4561L15.8317 14.4247Z" fill="#666666" stroke="black" stroke-width="0.03"/>
<path d="M15.8877 14.5682L15.9262 14.5796L15.9447 14.5868L15.9847 14.5925L15.9547 14.611L15.9932 14.6195C15.9932 14.6195 15.9561 14.6238 15.9504 14.6238C15.9447 14.6238 15.9247 14.6366 15.9247 14.6366C15.9247 14.6366 15.9205 14.6595 15.9333 14.658C15.9462 14.6566 15.9647 14.6537 15.9718 14.6537C15.9789 14.6537 16.0018 14.658 16.0018 14.658L16.016 14.6695L16.0075 14.6823L15.9476 14.6837L15.9561 14.6909H16.0046L15.9576 14.7222L16.0146 14.7208L16.0602 14.7393V14.7508L16.016 14.7608L16.006 14.7436L15.949 14.7593L15.9376 14.7736L15.9162 14.7593L15.9333 14.7222L15.9319 14.6837L15.9233 14.6538L15.9034 14.6096L15.8877 14.5682Z" fill="#999999" stroke="black" stroke-width="0.03"/>
<path d="M15.5848 12.664L15.5389 12.6695L15.5064 12.6735L15.485 12.6862L15.4676 12.6759L15.4573 12.6822L15.4185 12.6616L15.3733 12.6862L15.3519 12.7052H15.3385L15.3282 12.6917L15.3076 12.706L15.2957 12.6941L15.283 12.687L15.1975 12.7488L15.1666 12.7385L15.1531 12.7504L15.1475 12.7551L15.1444 12.7686L15.1317 12.7353L15.1206 12.7432L15.1016 12.7368L15.0881 12.7559L15.085 12.8058L15.0929 12.8684L15.1135 12.9373L15.1325 12.9658L15.1483 12.969L15.1531 12.9492L15.1618 12.9864L15.1745 12.999L15.1785 13.0664L15.2299 13.182L15.2347 13.2415L15.2371 13.3444L15.2181 13.3674L15.1935 13.4047L15.1943 13.4157L15.169 13.4641L15.1705 13.5377L15.1761 13.5441L15.1777 13.6146L15.1975 13.6162L15.2133 13.6336L15.2482 13.6304V13.609L15.2529 13.6336L15.2807 13.67L15.3044 13.689L15.321 13.6898L15.3298 13.6772L15.329 13.598L15.3345 13.6851L15.3519 13.6843L15.3741 13.6645L15.4035 13.6605L15.413 13.6613C15.413 13.6613 15.4209 13.6661 15.4248 13.6732C15.4288 13.6803 15.4431 13.6867 15.4431 13.6867L15.4534 13.7081L15.466 13.7128L15.4724 13.6993L15.4637 13.5306L15.455 13.3928L15.4455 13.2177L15.4359 12.9943L15.4343 12.923L15.4233 12.9135L15.4241 12.8905L15.451 12.8826L15.4668 12.8779L15.4597 12.8565L15.4518 12.7852V12.7583L15.4613 12.7504L15.4803 12.7496L15.4938 12.7654L15.5199 12.8739L15.5334 12.8787L15.5809 12.8779L15.6887 13.0482L15.7267 13.1052L15.779 13.2027L15.8471 13.3001L15.8685 13.3286L15.8828 13.3302L15.8875 13.2264L15.9177 13.2003L15.8923 13.0213L15.8717 13.0173L15.8432 12.9912L15.8273 12.9936L15.8115 13.0197L15.7917 12.9975L15.7893 12.9722L15.7711 12.9603H15.7576L15.7402 12.9365L15.7307 12.9341L15.7196 12.9444L15.7172 12.8637L15.6998 12.8256L15.6966 12.8027L15.6642 12.7567L15.6301 12.7488C15.6301 12.7488 15.6151 12.7147 15.6151 12.71C15.6151 12.7052 15.6087 12.6886 15.6087 12.6886L15.5848 12.664Z" fill="#E4CB5E" stroke="black" stroke-width="0.03"/>
<path d="M15.6131 13.7472L15.5901 13.7179L15.5822 13.6871L15.579 13.6205L15.5719 13.5571L15.5592 13.4589L15.5386 13.3377L15.522 13.2395L15.5156 13.1816L15.5022 13.1135L15.4966 13.0668L15.4911 13.0279L15.4863 12.9725L15.5022 13.0224L15.5283 13.1389L15.5576 13.2197L15.5695 13.2743V13.3052L15.5901 13.3495L15.6036 13.4058L15.6313 13.5246L15.6606 13.6221L15.6756 13.6926L15.678 13.7195L15.6471 13.7298L15.6321 13.7369L15.6131 13.7472Z" fill="#DCC56A" stroke="black" stroke-width="0.03"/>
<path d="M15.7679 13.7235L15.7846 13.6435L15.8044 13.5825L15.8131 13.5413L15.8194 13.5081L15.8178 13.4582L15.8043 13.4288L15.7426 13.3045L15.7053 13.2292L15.6902 13.1904L15.6625 13.1421L15.6253 13.0644L15.592 13.0066L15.5643 12.9591L15.5382 12.9242L15.5303 12.9314L15.554 13.0201L15.5738 13.0961L15.5928 13.1801L15.6245 13.2902L15.6427 13.3662L15.661 13.413L15.6784 13.4787L15.7267 13.6356L15.7362 13.6768L15.76 13.7243L15.7679 13.7235Z" fill="#E2CC75" stroke="black" stroke-width="0.03"/>
<path d="M15.5196 13.7665L15.4947 13.7914L15.4969 13.8005H15.5264L15.5355 13.7801L15.5196 13.7665ZM15.4901 13.7324L15.4946 13.7596L15.5151 13.7574L15.5264 13.737L15.5241 13.7211L15.5037 13.7256L15.4901 13.7324ZM15.54 13.7211L15.5468 13.7392H15.5854V13.7256L15.5695 13.7188L15.54 13.7211ZM15.5355 13.6871L15.5377 13.7075H15.565L15.5786 13.6893L15.5627 13.6757L15.5355 13.6871ZM15.481 13.6938L15.4765 13.7075L15.4901 13.7143L15.5196 13.7075V13.6961L15.481 13.6938ZM15.481 13.6598V13.6757L15.5105 13.678L15.5196 13.6644L15.5083 13.6553L15.481 13.6598ZM15.54 13.6462L15.5355 13.6598L15.5627 13.6666L15.5763 13.6553L15.5559 13.6417L15.54 13.6462ZM15.4833 13.6099L15.4788 13.6303L15.4969 13.6326L15.5128 13.6213L15.5151 13.6054L15.4969 13.6031L15.4833 13.6099ZM15.5332 13.6008V13.6212L15.5627 13.628V13.5985L15.5491 13.594L15.5332 13.6008ZM15.506 13.5668H15.4788L15.4765 13.5985L15.5082 13.5849L15.506 13.5668ZM15.5287 13.5577L15.5173 13.5804H15.5491L15.5627 13.5509L15.5446 13.5464L15.5287 13.5577ZM15.5219 13.5191L15.5242 13.5373L15.5537 13.5328L15.5423 13.5101L15.5219 13.5191ZM15.4924 13.526L15.472 13.5214L15.4743 13.5464L15.5037 13.5419L15.4924 13.526ZM15.472 13.4851L15.4697 13.5078H15.506L15.4992 13.4851H15.472ZM15.5151 13.4738V13.501H15.5491L15.5423 13.4738H15.5151ZM15.4969 13.4534L15.4743 13.4806L15.4652 13.4579L15.481 13.4307L15.4969 13.4534ZM15.5173 13.4329L15.5128 13.4556H15.5423V13.4329L15.531 13.4261L15.5173 13.4329ZM15.481 13.4057H15.4652L15.4629 13.4239H15.4901L15.481 13.4057Z" fill="#DDD690" stroke="black" stroke-width="0.03"/>
<path d="M15.5131 13.3987L15.5085 13.4191H15.5312V13.3987H15.5131ZM15.5063 13.3578L15.5017 13.3782H15.5335L15.5358 13.3601L15.5063 13.3578ZM15.47 13.3669L15.4654 13.3964L15.4926 13.3851V13.3692L15.47 13.3669ZM15.4677 13.3261L15.4586 13.3442L15.4722 13.351L15.4836 13.3352L15.4791 13.3216L15.4677 13.3261ZM15.5052 13.3108L15.498 13.3258L15.5097 13.3461L15.5261 13.3422L15.5268 13.3193L15.5084 13.3101L15.5052 13.3108ZM15.4666 13.2878L15.4607 13.3042L15.4724 13.3147C15.4724 13.3147 15.4822 13.3108 15.4822 13.3075C15.4822 13.3042 15.4855 13.2937 15.4855 13.2937L15.4725 13.2859L15.4666 13.2878ZM15.498 13.2794L15.4941 13.2977L15.5032 13.3036L15.5196 13.3049C15.5196 13.3049 15.5202 13.2924 15.5202 13.2879C15.5202 13.2833 15.5084 13.2781 15.5084 13.2781L15.498 13.2794ZM15.4633 13.2545L15.462 13.2728L15.4757 13.2761C15.4757 13.2761 15.4829 13.2689 15.4829 13.2663C15.4829 13.2637 15.4764 13.2519 15.4764 13.2519L15.4633 13.2545ZM15.4941 13.2492L15.4914 13.2643C15.4914 13.2643 15.4967 13.2715 15.5032 13.2715C15.5098 13.2715 15.5124 13.2649 15.5124 13.2623C15.5124 13.2597 15.5097 13.2486 15.5097 13.2486L15.4941 13.2492ZM15.462 13.229L15.4574 13.244L15.4705 13.2499L15.4803 13.2368L15.4698 13.2296L15.462 13.229ZM15.4927 13.2198L15.4908 13.2335C15.4908 13.2335 15.4999 13.2401 15.5032 13.2381C15.5065 13.2361 15.5104 13.2276 15.5104 13.2276L15.4986 13.2198H15.4927ZM15.4528 13.1903L15.4495 13.2074C15.4495 13.2074 15.4593 13.2165 15.462 13.2152C15.4646 13.2139 15.4783 13.21 15.4783 13.21L15.4711 13.193C15.4711 13.193 15.4626 13.191 15.46 13.191C15.4574 13.191 15.4522 13.191 15.4528 13.1903ZM15.4869 13.1818L15.483 13.1982L15.5052 13.2021C15.5052 13.2021 15.5085 13.1838 15.5039 13.1838C15.4993 13.1838 15.4882 13.1825 15.4869 13.1818ZM15.4548 13.1596L15.4509 13.1694L15.462 13.1779L15.4711 13.1727L15.4652 13.1602L15.4548 13.1596ZM15.4881 13.153L15.4797 13.1662L15.4934 13.172L15.5052 13.1629L15.4881 13.153ZM15.4554 13.1243L15.4495 13.1341L15.4561 13.1445L15.4666 13.136L15.4554 13.1243ZM15.479 13.1177L15.4738 13.1249L15.4816 13.1354L15.4947 13.1282L15.496 13.1223L15.4901 13.1151L15.479 13.1177ZM15.4522 13.0974L15.4463 13.1112L15.4593 13.1184L15.4666 13.1092L15.462 13.0987L15.4522 13.0974ZM15.477 13.0843L15.4698 13.0935L15.4797 13.1033L15.4921 13.0961L15.4836 13.0856L15.477 13.0843ZM15.4522 13.0745H15.4469V13.0856L15.462 13.0843L15.4593 13.0732L15.4522 13.0745ZM15.4725 13.0614L15.4718 13.0738L15.4855 13.0719L15.4849 13.0608L15.4725 13.0614ZM15.4489 13.0516L15.4443 13.0582L15.4522 13.0686L15.46 13.0614C15.46 13.0614 15.4626 13.0516 15.46 13.0516H15.4489ZM15.4502 13.03L15.4443 13.0352L15.4515 13.0424L15.4607 13.0379L15.4502 13.03ZM15.4522 13.0137L15.445 13.0241H15.4574L15.4522 13.0137ZM15.4685 13.0195L15.4698 13.03H15.4803L15.4685 13.0195ZM15.4692 13.0366C15.4692 13.0366 15.4666 13.0503 15.4692 13.0503C15.4718 13.0503 15.479 13.0483 15.479 13.0483L15.4692 13.0366Z" fill="#E2D67E" stroke="black" stroke-width="0.03"/>
<path d="M15.8171 13.3532L15.8027 13.3728L15.804 13.3931L15.823 13.4108L15.8407 13.3859L15.8171 13.3532Z" fill="#D3C55F" stroke="black" stroke-width="0.03"/>
<path d="M15.8429 13.3248L15.8252 13.3503L15.8422 13.3772L15.8599 13.3661C15.8599 13.3661 15.8625 13.3438 15.8592 13.3398C15.8559 13.3359 15.8422 13.3241 15.8429 13.3248Z" fill="#D3C75F" stroke="black" stroke-width="0.03"/>
<path d="M15.8096 13.2892C15.8096 13.2892 15.8018 13.301 15.8018 13.3037C15.8018 13.3063 15.8063 13.3252 15.8063 13.3252L15.8175 13.3396C15.8175 13.3396 15.8299 13.3357 15.8312 13.3318C15.8325 13.3279 15.8371 13.3128 15.8371 13.3128L15.8221 13.2932L15.8096 13.2892Z" fill="#E2D67E" stroke="black" stroke-width="0.03"/>
<path d="M15.7821 13.3174L15.7788 13.324C15.7788 13.324 15.7769 13.3397 15.7808 13.3423C15.7847 13.3449 15.7965 13.3574 15.7965 13.3574C15.7965 13.3574 15.8069 13.3508 15.8069 13.3475C15.8069 13.3442 15.7991 13.324 15.7991 13.324L15.7899 13.3148L15.7821 13.3174Z" fill="#D3C95F" stroke="black" stroke-width="0.03"/>
<path d="M15.7552 13.2712L15.75 13.2836L15.7565 13.3007L15.769 13.3131C15.769 13.3131 15.7827 13.3105 15.7827 13.3078V13.2895L15.7742 13.2751L15.7598 13.2686L15.7552 13.2712ZM15.7847 13.2594L15.7814 13.2692C15.7814 13.2692 15.7827 13.283 15.7853 13.2843L15.7984 13.2908L15.8076 13.2758L15.7984 13.2568L15.7847 13.2594ZM15.7703 13.228L15.7637 13.2424L15.7677 13.2529L15.7769 13.2575C15.7769 13.2575 15.7873 13.2522 15.7873 13.2496V13.2359L15.7755 13.2287L15.7703 13.228ZM15.7402 13.2385L15.7317 13.2496L15.735 13.2634L15.7494 13.2679L15.7592 13.2562L15.7513 13.2405L15.7402 13.2385ZM15.729 13.209L15.7219 13.2156V13.2241L15.733 13.2326L15.7434 13.2274L15.7408 13.2156L15.7356 13.2077L15.729 13.209ZM15.7579 13.2005L15.7533 13.211L15.7598 13.2247L15.7703 13.2189L15.7683 13.2071L15.7579 13.2005ZM15.7382 13.1724L15.7356 13.196L15.752 13.1933L15.7559 13.1809L15.75 13.1717L15.7382 13.1724ZM15.7212 13.1776C15.7186 13.1783 15.7094 13.1789 15.7094 13.1789L15.7121 13.2025L15.7225 13.2012L15.7264 13.1927L15.7251 13.1822L15.7212 13.1776ZM15.7016 13.1541L15.6937 13.1639L15.7016 13.177L15.7088 13.1757L15.7133 13.1659L15.7016 13.1541ZM15.7271 13.1475L15.7205 13.1547L15.7258 13.1626L15.7323 13.1632L15.7389 13.1554L15.733 13.1482L15.7271 13.1475ZM15.6852 13.1305L15.6806 13.1429L15.6931 13.1462L15.6963 13.1384L15.6924 13.1311L15.6852 13.1305ZM15.7068 13.124L15.7055 13.1384L15.7193 13.137L15.7179 13.1253L15.7068 13.124ZM15.6695 13.1076L15.6702 13.12H15.6839C15.6839 13.12 15.6885 13.1056 15.6826 13.1063C15.6767 13.107 15.6708 13.1082 15.6695 13.1076ZM15.6957 13.1017V13.1141L15.7101 13.1122L15.7068 13.1011L15.6957 13.1017ZM15.6767 13.0886H15.6623L15.6643 13.1011L15.6773 13.0997L15.6767 13.0886ZM15.6859 13.0801L15.6839 13.0919L15.699 13.0912V13.0801H15.6859ZM15.6715 13.0611L15.6708 13.0749C15.6708 13.0749 15.6872 13.0775 15.6872 13.0749C15.6872 13.0723 15.6839 13.0631 15.6839 13.0631L15.6715 13.0611ZM15.6623 13.0624H15.6492L15.6505 13.0775H15.6662L15.6682 13.067L15.6623 13.0624ZM15.6316 13.0179L15.625 13.0245L15.6453 13.0566H15.6577L15.646 13.0402C15.646 13.0402 15.6479 13.0324 15.6447 13.0311C15.6414 13.0298 15.6388 13.0298 15.6388 13.0298L15.6316 13.0179Z" fill="#E2D67E" stroke="black" stroke-width="0.03"/>
<path d="M15.6344 13.0066L15.6299 13.0125L15.6541 13.0288V13.0426L15.6652 13.053L15.6744 13.0556L15.6711 13.0445L15.6665 13.0321L15.6573 13.0249L15.6508 13.0131C15.6508 13.0131 15.6476 13.0125 15.6449 13.0118C15.6423 13.0112 15.6397 13.0072 15.6397 13.0072L15.6344 13.0066Z" fill="#E2D67E" stroke="black" stroke-width="0.03"/>
<path d="M15.354 12.7784L15.3517 12.885L15.3585 12.9191V12.9781L15.3608 13.0688V13.1301L15.3086 13.0665L15.363 13.1346L15.3721 13.2004L15.3858 13.2253L15.3767 13.2594L15.379 13.3161V13.4771L15.3268 13.3501L15.3313 13.6133L15.3358 13.4613L15.354 13.434L15.3835 13.5089L15.388 13.543L15.3812 13.4159" fill="black"/>
<path d="M15.354 12.7784L15.3517 12.885L15.3585 12.9191V12.9781L15.3608 13.0688V13.1301L15.3086 13.0665L15.363 13.1346L15.3721 13.2004L15.3858 13.2253L15.3767 13.2594L15.379 13.3161V13.4771L15.3268 13.3501L15.3313 13.6133L15.3358 13.4613L15.354 13.434L15.3835 13.5089L15.388 13.543L15.3812 13.4159" stroke="black" stroke-width="0.03"/>
<path d="M15.2067 12.8095V12.8957L15.2226 12.9161L15.2181 13.0069L15.2317 13.0341V13.1838M15.2997 12.7074L15.2816 12.7414L15.2884 12.8027L15.2929 12.8458L15.2861 12.9138M15.7126 12.873L15.7103 12.9774L15.7217 13.0341L15.7308 13.0953M15.8102 13.025L15.8306 13.2519M15.2271 13.3631L15.2316 13.4946L15.2407 13.5514L15.243 13.6126M15.1409 12.7686L15.1318 12.8367L15.15 12.8843L15.1523 12.9501L15.15 12.8775L15.1318 12.8413L15.1409 12.7686Z" stroke="black" stroke-width="0.03"/>
<path d="M15.9105 13.6062V13.5835L16.0104 13.5608L15.9945 13.5722L15.9967 13.6403M16.1828 13.5495V13.52L16.2826 13.5019L16.2599 13.5064L16.2644 13.5767M15.9673 13.7696V13.7469L16.0512 13.731L16.0489 13.8149M16.1669 13.7378V13.7015L16.2576 13.6856L16.2622 13.765M15.872 13.4406V13.4973L15.8516 13.5019V13.4746L15.872 13.4406ZM15.9196 13.4315L15.9219 13.4883H15.906L15.9015 13.4383L15.9196 13.4315ZM15.9559 13.4202L15.94 13.4293V13.4746L15.9627 13.4701L15.9559 13.4202ZM15.999 13.4043L15.9831 13.4179V13.4588L16.0081 13.4565L15.999 13.4043ZM16.0489 13.393L16.0262 13.402V13.4474L16.0512 13.4429L16.0489 13.393ZM16.0966 13.3793L16.0762 13.3816V13.4384L16.1011 13.4338L16.0966 13.3793ZM16.1578 13.368L16.1351 13.3771L16.1374 13.4156L16.1601 13.4088L16.1578 13.368ZM16.2145 13.3521L16.1919 13.3635V13.4021H16.2123L16.2145 13.3521ZM16.2599 13.3385L16.2418 13.3476V13.3907H16.2645L16.2599 13.3385ZM16.3098 13.334L16.2917 13.3453V13.3793H16.3166L16.3098 13.334ZM16.3643 13.3158L16.3439 13.3249L16.3461 13.3589L16.3665 13.3544L16.3643 13.3158ZM16.4233 13.3022L16.4006 13.3135V13.3499L16.4278 13.3476L16.4233 13.3022Z" fill="#D38D5F"/>
<path d="M15.9105 13.6062V13.5835L16.0104 13.5608L15.9945 13.5722L15.9967 13.6403M16.1828 13.5495V13.52L16.2826 13.5019L16.2599 13.5064L16.2644 13.5767M15.9673 13.7696V13.7469L16.0512 13.731L16.0489 13.8149M16.1669 13.7378V13.7015L16.2576 13.6856L16.2622 13.765M15.872 13.4406V13.4973L15.8516 13.5019V13.4746L15.872 13.4406ZM15.9196 13.4315L15.9219 13.4883H15.906L15.9015 13.4383L15.9196 13.4315V13.4315ZM15.9559 13.4202L15.94 13.4293V13.4746L15.9627 13.4701L15.9559 13.4202V13.4202ZM15.999 13.4043L15.9831 13.4179V13.4588L16.0081 13.4565L15.999 13.4043ZM16.0489 13.393L16.0262 13.402V13.4474L16.0512 13.4429L16.0489 13.393ZM16.0966 13.3793L16.0762 13.3816V13.4384L16.1011 13.4338L16.0966 13.3793V13.3793ZM16.1578 13.368L16.1351 13.3771L16.1374 13.4156L16.1601 13.4088L16.1578 13.368ZM16.2145 13.3521L16.1919 13.3635V13.4021H16.2123L16.2145 13.3521V13.3521ZM16.2599 13.3385L16.2418 13.3476V13.3907H16.2645L16.2599 13.3385ZM16.3098 13.334L16.2917 13.3453V13.3793H16.3166L16.3098 13.334V13.334ZM16.3643 13.3158L16.3439 13.3249L16.3461 13.3589L16.3665 13.3544L16.3643 13.3158V13.3158ZM16.4233 13.3022L16.4006 13.3135V13.3499L16.4278 13.3476L16.4233 13.3022Z" stroke="black" stroke-width="0.03"/>
<path d="M15.8867 13.9162L16.2383 13.8368L15.8867 13.9162Z" fill="#FFFCFC"/>
<path d="M15.8867 13.9162L16.2383 13.8368" stroke="black" stroke-width="0.03"/>
<path d="M15.8008 13.6957L15.8371 13.7002L16.436 13.5641" fill="#C87137"/>
<path d="M15.8008 13.6957L15.8371 13.7002L16.436 13.5641" stroke="black" stroke-width="0.03"/>
<path d="M15.835 13.542L15.928 13.5283L16.4452 13.3922" fill="#C87137"/>
<path d="M15.835 13.542L15.928 13.5283L16.4452 13.3922" stroke="black" stroke-width="0.03"/>
<path d="M16.4678 13.3712L16.5562 13.3553" stroke="black" stroke-width="0.03"/>
<path d="M16.4678 13.5566L16.6629 13.5044L16.4678 13.5566Z" fill="#FFFCFC"/>
<path d="M16.4678 13.5566L16.6629 13.5044" stroke="black" stroke-width="0.03"/>
<path d="M14 11V14.6091C14.0443 15.1259 15.16 15.4512 15.9379 16C16.9582 15.3394 17.9478 15.2058 17.9876 14.4653L18 11H14.0001H14Z" stroke="black" stroke-width="0.03"/>
<path d="M20 6L20 18L4 18L4 6L20 6ZM20 5L4 5C3.4 5 3 5.4 3 6L3 18C3 18.6 3.4 19 4 19L20 19C20.6 19 21 18.6 21 18L21 6C21 5.4 20.6 5 20 5Z" fill="#B5B5B5"/>
</svg>
