<svg width="24" height="24" viewBox="0 0 24 24" fill="none" xmlns="http://www.w3.org/2000/svg">
<path d="M20 6H4V18H20V6Z" fill="#FFD520"/>
<path d="M3 18H20V6L3 18Z" fill="#FF4E12"/>
<path d="M12.6347 9.75114C12.5349 9.71572 12.4705 9.76724 12.4738 9.89602C12.4769 10.0248 12.5446 10.0989 12.6443 10.0506L12.6347 9.75114L12.6347 9.75114Z" fill="white" stroke="black" stroke-width="0.01"/>
<path d="M12.7228 9.51095C12.6398 9.44535 12.5623 9.47347 12.5239 9.59647C12.4856 9.71945 12.5258 9.81131 12.6358 9.79763L12.7228 9.51097V9.51095Z" fill="white" stroke="black" stroke-width="0.01"/>
<path d="M12.8612 9.27701C12.7896 9.19892 12.7086 9.21424 12.651 9.3295C12.5935 9.44477 12.6185 9.54186 12.7293 9.546L12.8612 9.277L12.8612 9.27701Z" fill="white" stroke="black" stroke-width="0.01"/>
<path d="M12.7703 10.4122C12.6479 10.4573 12.635 10.6247 12.7123 10.7277C12.7896 10.8307 12.9313 10.8501 13.0085 10.7277L12.7703 10.4121L12.7703 10.4122Z" fill="white" stroke="black" stroke-width="0.01"/>
<path d="M12.6287 10.0568C12.5128 10.0181 12.4084 10.1738 12.3905 10.3143C12.368 10.4914 12.1168 10.5493 12.2553 10.8166C12.2842 10.646 12.397 10.5526 12.4871 10.5461C12.5772 10.5397 12.7125 10.5204 12.7704 10.4109L12.6287 10.0568L12.6287 10.0568Z" fill="white" stroke="black" stroke-width="0.01"/>
<path d="M12.9953 10.7461C12.8601 10.7783 12.8407 10.9586 12.9373 11.0874C13.02 11.1976 13.2786 11.1711 13.2721 11.0616L12.9953 10.7461V10.7461Z" fill="white" stroke="black" stroke-width="0.01"/>
<path d="M13.3788 11.832C13.3852 11.7161 13.1985 11.671 13.1084 11.6936C13.0182 11.7161 12.8459 11.6903 12.8057 11.5938C12.7735 11.671 12.8202 11.7547 12.9506 11.7966C13.0493 11.8283 13.0472 11.8996 13.0182 11.9318C13.0923 11.9447 13.3112 11.9447 13.3788 11.832V11.832Z" fill="white" stroke="black" stroke-width="0.01"/>
<path d="M13.2725 11.091C13.1405 11.0331 13.0623 11.1213 13.0118 11.2069C12.9377 11.3325 12.7091 11.1715 12.6318 11.3389C12.7365 11.2939 12.843 11.39 12.8926 11.4226C13.0343 11.516 13.3079 11.487 13.3466 11.2681L13.2725 11.091L13.2725 11.091Z" fill="white" stroke="black" stroke-width="0.01"/>
<path d="M13.3493 11.2461C13.2173 11.3459 13.1658 11.465 13.1691 11.5455C13.1723 11.626 13.285 11.8031 13.4073 11.8127C13.4782 11.6678 13.5136 11.362 13.3493 11.2461H13.3493Z" fill="white" stroke="black" stroke-width="0.01"/>
<path d="M12.8027 11.8676C12.8027 11.8193 12.8736 11.8 12.9218 11.8161C12.9702 11.8322 13.0442 11.8805 13.0184 11.932L12.8027 11.8676H12.8027Z" fill="white" stroke="black" stroke-width="0.01"/>
<path d="M12.0744 11.6033C12.0616 11.5453 12.1549 11.4455 12.2805 11.5002C12.406 11.555 12.4222 11.6612 12.3706 11.7031L12.0744 11.6033L12.0744 11.6033Z" fill="white" stroke="black" stroke-width="0.01"/>
<path d="M12.3806 11.7086C12.3709 11.6764 12.4613 11.6121 12.6157 11.6506C12.7702 11.6893 12.8081 11.7888 12.8024 11.8663L12.3806 11.7086L12.3806 11.7086Z" fill="white" stroke="black" stroke-width="0.01"/>
<path d="M12.0587 11.6031C12.1392 11.5419 12.1087 11.426 12.0361 11.3906C11.9041 11.3262 11.9525 11.1588 11.8687 11.1266C11.785 11.0944 11.7045 11.0365 11.7013 10.9785C11.6595 11.059 11.6852 11.1331 11.7432 11.1846C11.8011 11.2361 11.6981 11.4454 11.7721 11.5001L12.0587 11.6031L12.0587 11.6031Z" fill="white" stroke="black" stroke-width="0.01"/>
<path d="M10.3329 11.5584C10.2653 11.4522 10.1043 11.4715 10.0367 11.5456C9.96909 11.6196 9.97875 11.7291 10.0431 11.7774L10.3329 11.5584L10.3329 11.5584Z" fill="white" stroke="black" stroke-width="0.01"/>
<path d="M10.7189 11.4C10.6932 11.2584 10.5225 11.2423 10.4292 11.2777C10.3358 11.3131 10.2714 11.4547 10.3326 11.5578L10.7189 11.4H10.7189Z" fill="white" stroke="black" stroke-width="0.01"/>
<path d="M10.9771 11.3797C11.0383 11.2606 10.9191 11.0835 10.7839 11.0578C10.671 11.0363 10.5376 11.0369 10.4942 10.9258C10.4668 11.0224 10.5392 11.0835 10.623 11.1383C10.7067 11.193 10.6068 11.3347 10.7421 11.4152L10.9771 11.3797L10.9771 11.3797Z" fill="white" stroke="black" stroke-width="0.01"/>
<path d="M10.9641 11.3848C10.936 11.2995 10.9931 11.1859 11.1088 11.1939C11.2245 11.2019 11.2904 11.2859 11.2394 11.391L10.9641 11.3848H10.9641Z" fill="white" stroke="black" stroke-width="0.01"/>
<path d="M11.2219 11.3912C11.206 11.3028 11.2785 11.1984 11.3919 11.2225C11.5053 11.2466 11.5588 11.3391 11.4936 11.436L11.2219 11.3912L11.2219 11.3912Z" fill="white" stroke="black" stroke-width="0.01"/>
<path d="M11.4777 11.431C11.4662 11.3418 11.5439 11.2412 11.6559 11.2709C11.768 11.3007 11.8168 11.3958 11.7468 11.4892L11.4777 11.431L11.4777 11.431Z" fill="white" stroke="black" stroke-width="0.01"/>
<path d="M9.53463 12.9062C9.31891 12.9062 9.26623 12.9576 9.23521 13.1799C9.19657 13.4568 9.57327 13.489 9.53463 12.9062Z" fill="white" stroke="black" stroke-width="0.01"/>
<path d="M9.63132 12.617C9.2997 12.4914 9.11942 13.0162 8.79102 12.9229C8.90852 13.1096 9.19338 12.9232 9.2997 12.9422C9.48 12.9744 9.86956 12.9068 9.63132 12.617V12.617Z" fill="white" stroke="black" stroke-width="0.01"/>
<path d="M9.41544 13.3357C9.25124 13.2617 9.07416 13.5128 9.10636 13.6222C9.14724 13.7613 9.52168 13.648 9.41544 13.3357Z" fill="white" stroke="black" stroke-width="0.01"/>
<path d="M8.64918 14.4168C8.73933 14.4425 8.84879 14.4941 8.82947 14.6679C8.81015 14.8417 8.48177 15.1959 8.18557 15.2152C7.88937 15.2346 7.78311 15.5919 7.52877 15.4921C7.76701 15.4471 7.76701 15.1766 7.95375 15.0929C7.81853 15.0446 7.74769 15.3505 7.57385 15.3505C7.39999 15.3505 7.31629 15.6273 7.10379 15.608C6.89129 15.5887 6.86893 15.9451 6.44379 15.9493C6.11861 15.9525 5.71617 16.3324 5.57129 16.1683C5.88681 16.1232 6.01413 15.9483 6.20233 15.7561C6.50497 15.4471 6.84625 15.5855 6.96215 15.3118C6.8237 15.4052 6.66273 15.4502 6.50497 15.4471C6.30693 15.443 6.08965 15.7626 5.86749 15.6209C5.99627 15.6048 6.07999 15.5501 6.21521 15.4084C6.35369 15.2633 6.55687 15.3571 6.71747 15.2088C6.96859 14.977 7.18431 15.1702 7.42577 14.8804C7.35815 14.8482 7.21327 14.8707 7.07805 14.9416C6.94282 15.0124 6.76897 14.8932 6.61443 14.977C6.63375 14.7871 6.99433 14.8957 7.21971 14.7645C7.47407 14.6164 7.68495 14.6598 7.88617 14.6776C7.60607 14.676 7.49661 14.4103 7.11027 14.4876C6.94177 14.5213 6.80763 14.2558 6.64021 14.391C6.64503 14.2912 6.82051 14.2107 7.00081 14.3073C7.1811 14.4039 7.25377 14.2228 7.61253 14.449C7.76063 14.5423 8.01497 14.391 8.17595 14.4908C8.15503 14.4297 8.06326 14.391 7.95541 14.3991C8.02303 14.2607 8.45927 14.2783 8.64923 14.4168L8.64918 14.4168Z" fill="white" stroke="black" stroke-width="0.01"/>
<path d="M8.93617 14.207C8.79451 14.0975 8.59811 14.2295 8.46289 14.178C8.46289 14.2681 8.50797 14.4034 8.65607 14.4549C8.70114 14.4227 8.90397 14.2456 8.93617 14.207L8.93617 14.207Z" fill="white" stroke="black" stroke-width="0.01"/>
<path d="M9.15827 13.8961C8.93611 13.7835 8.89749 14.0636 8.72363 14.0056C8.73007 14.0861 8.79447 14.1859 8.93613 14.2085L9.15829 13.8962L9.15827 13.8961Z" fill="white" stroke="black" stroke-width="0.01"/>
<path d="M9.28998 13.6408C8.96158 13.512 8.91972 13.8276 8.72656 13.7664C8.77164 13.8758 9.04852 13.9338 9.19018 13.8952L9.28999 13.6408L9.28998 13.6408Z" fill="white" stroke="black" stroke-width="0.01"/>
<path d="M9.74046 12.2601C9.65352 12.1378 9.47002 12.2376 9.44104 12.3824C9.41206 12.5273 9.48289 12.7302 9.60524 12.6851L9.74045 12.2601L9.74046 12.2601Z" fill="white" stroke="black" stroke-width="0.01"/>
<path d="M9.96317 11.8732C9.81185 11.8378 9.63799 11.8539 9.65731 12.002C9.59935 12.0278 9.58326 12.2177 9.74101 12.2596L9.96317 11.8732L9.96317 11.8732Z" fill="white" stroke="black" stroke-width="0.01"/>
<path d="M10.0624 11.7734C9.91427 11.5996 9.74911 11.6036 9.65671 11.6768C9.48607 11.8121 9.32025 11.7348 9.31543 11.87C9.41846 11.7911 9.50861 11.8861 9.59231 11.8571C9.67602 11.8281 9.73719 11.9891 9.96901 11.9215L10.0624 11.7734L10.0624 11.7734Z" fill="white" stroke="black" stroke-width="0.01"/>
<path d="M9.70518 14.3723C9.72772 14.4141 9.86616 14.4335 9.93378 14.3626C10.0234 14.2687 9.92412 14.0085 9.78246 13.9891C9.6408 13.9698 9.62792 14.2821 9.70519 14.3723L9.70518 14.3723Z" fill="white" stroke="black" stroke-width="0.01"/>
<path d="M9.54395 14.3774C9.74677 14.4514 9.83371 14.2839 9.72424 14.1777C9.69526 14.2132 9.58901 14.3419 9.54395 14.3774Z" fill="white" stroke="black" stroke-width="0.01"/>
<path d="M8.78464 14.6557C8.74599 14.7716 8.54637 14.7909 8.32102 15.1515C8.09563 15.5121 7.87994 15.3608 7.8252 15.6087C8.09564 15.3897 8.30804 15.5352 8.4691 15.3189C8.7138 14.9905 8.91528 15.0376 9.01 14.8166C9.14521 14.5011 9.73761 14.5076 9.76981 14.0118C9.5702 13.9731 8.93915 14.5076 8.78464 14.6556V14.6557Z" fill="white" stroke="black" stroke-width="0.01"/>
<path d="M13.8652 9.787C14.1228 9.87071 14.1292 10.2055 14.4254 10.315C14.7217 10.4245 14.7507 10.6885 14.9921 10.6241C14.7667 10.5629 14.7828 10.3021 14.5478 10.2377C14.2721 10.1622 14.1679 9.7419 13.9489 9.67752" fill="white"/>
<path d="M13.8652 9.787C14.1228 9.87071 14.1292 10.2055 14.4254 10.315C14.7217 10.4245 14.7507 10.6885 14.9921 10.6241C14.7667 10.5629 14.7828 10.3021 14.5478 10.2377C14.2721 10.1622 14.1679 9.7419 13.9489 9.67752" stroke="black" stroke-width="0.01"/>
<path d="M15.0462 11.5352C15.0912 11.6382 15.0848 11.8218 14.9238 11.8701C15.0107 11.9248 15.1395 11.8733 15.2103 11.7542C15.1041 11.9892 15.1749 12.2017 15.3423 12.2435C15.2618 12.0793 15.4422 12.0021 15.3842 11.8958C15.4905 11.9409 15.5838 12.0858 15.5806 12.1759C15.7191 12.0214 15.4776 11.8153 15.5227 11.6705L15.0462 11.5352V11.5352Z" fill="white" stroke="black" stroke-width="0.01"/>
<path d="M13.3792 13.19C13.2214 13.0516 13.1541 13.2262 13.0765 13.1659C13.0041 13.1095 12.9075 13.1015 12.8705 13.1578C13.0058 13.1626 12.9397 13.2673 13.2021 13.293C12.9397 13.3107 12.988 13.6037 12.8125 13.5892C12.9993 13.7663 13.0958 13.4315 13.2472 13.4862C13.2021 13.4991 13.318 13.6053 13.2375 13.747C13.3679 13.7438 13.421 13.5635 13.4372 13.4701L13.3792 13.19V13.19Z" fill="white" stroke="black" stroke-width="0.01"/>
<path d="M9.90445 14.6944C9.84649 14.6461 9.67907 14.6235 9.61469 14.6622C9.55031 14.7008 9.57284 14.7104 9.65011 14.7169C9.72738 14.7234 9.82716 14.8484 9.65977 14.8554C9.5825 14.8585 9.60826 15.0453 9.44727 15.0582C9.51327 15.1387 9.70163 15.0855 9.76923 14.997C9.75635 15.0695 9.85293 15.1355 9.8143 15.2224C9.93343 15.2353 9.8642 14.981 10.0526 14.9938C9.97529 15.0035 10.0075 15.1773 10.1427 15.1322C10.0622 15.1709 10.1041 15.2642 10.1942 15.2417C10.1363 15.261 10.1169 15.335 10.1974 15.377C10.2747 15.2707 10.1878 14.8908 9.90446 14.6944L9.90445 14.6944Z" fill="white" stroke="black" stroke-width="0.01"/>
<path d="M16.917 11.1405C17.1634 11.1405 17.3631 10.9407 17.3631 10.6942C17.3631 10.4478 17.1634 10.248 16.917 10.248C16.6705 10.248 16.4707 10.4478 16.4707 10.6942C16.4707 10.9407 16.6705 11.1405 16.917 11.1405Z" fill="white" stroke="black" stroke-width="0.01"/>
<path d="M14.5865 11.6792C14.7217 11.5505 14.9278 11.4861 15.0694 11.5826C15.2111 11.6792 15.6812 11.7951 15.913 11.6342C16.1447 11.4732 16.2542 11.3895 16.3572 11.4088C16.4346 11.5247 16.5279 11.5794 16.6438 11.5891C16.6792 11.6277 16.8048 11.6599 16.8757 11.6502C16.9787 11.676 17.1042 11.6438 17.204 11.5343C17.3586 11.5569 17.5034 11.441 17.5582 11.2671C17.7223 11.2478 17.732 11.0643 17.629 10.9419C17.5324 10.9226 17.6065 10.5974 17.2555 10.6618C17.4037 10.752 17.2909 10.9323 17.4133 11.016C17.3296 11.016 17.2218 11.0514 17.196 11.177C17.2282 11.0901 17.1912 11.0321 17.1686 11.0128C17.1718 10.9387 17.0077 10.7568 16.8531 10.8228C16.9642 10.847 16.9014 11.0257 16.9819 11.0933C16.9239 11.0965 16.8627 11.1255 16.8273 11.177C16.7855 11.1029 16.6374 11.0257 16.5472 11.0192C16.5472 10.9935 16.5424 10.942 16.5312 10.9162C16.4909 10.8389 16.4571 10.7472 16.4732 10.6297C16.3959 10.7134 16.3315 10.8293 16.2929 10.913C16.1706 10.8293 15.8679 10.9516 15.7263 10.9838C15.5846 11.016 15.1081 10.9387 14.9986 10.8228C14.8892 10.7069 14.6767 10.6361 14.4771 10.5781C14.2026 10.4985 14.2002 10.1982 13.8975 9.99219C13.8911 10.3657 14.4578 11.5505 14.5865 11.6792L14.5865 11.6792Z" fill="white" stroke="black" stroke-width="0.01"/>
<path d="M11.4314 14.5269C11.6697 14.5269 11.8628 14.3337 11.8628 14.0955C11.8628 13.8572 11.6697 13.6641 11.4314 13.6641C11.1932 13.6641 11 13.8572 11 14.0955C11 14.3337 11.1932 14.5269 11.4314 14.5269Z" fill="white" stroke="black" stroke-width="0.01"/>
<path d="M10.4005 14.1951C10.4875 14.3078 10.6355 14.3014 10.6967 14.2917C10.7482 14.4269 10.9124 14.4237 10.9833 14.4977C11.0541 14.5718 11.2955 14.5654 11.3664 14.5235C11.302 14.5171 11.2183 14.4785 11.1378 14.4108C11.0406 14.3292 11.0863 14.1661 11.009 14.1082C11.067 14.0438 11.0766 13.9376 11.0638 13.8957C11.1249 13.8603 11.17 13.8023 11.1764 13.7733C11.2827 13.7669 11.376 13.7122 11.4147 13.6703C11.4695 13.7218 11.6079 13.6542 11.682 13.7411C11.698 13.5286 11.4952 13.416 11.36 13.4868C11.3052 13.4578 11.1604 13.4771 11.1346 13.5158C11.0895 13.4965 10.964 13.5609 10.906 13.6027C10.9704 13.5673 10.9801 13.461 10.9543 13.4224C11.009 13.3999 11.0702 13.3258 11.0766 13.2711C11.1539 13.284 11.2698 13.2325 11.3213 13.2453C11.2376 13.1359 11.0992 13.0972 10.9575 13.1069C10.811 13.115 10.7483 13.218 10.7289 13.3291C10.642 13.3806 10.613 13.5544 10.6452 13.6156C10.5953 13.614 10.5486 13.6623 10.5293 13.6896C10.4617 13.6607 10.3651 13.6398 10.2959 13.6398" fill="white"/>
<path d="M10.4005 14.1951C10.4875 14.3078 10.6355 14.3014 10.6967 14.2917C10.7482 14.4269 10.9124 14.4237 10.9833 14.4977C11.0541 14.5718 11.2955 14.5654 11.3664 14.5235C11.302 14.5171 11.2183 14.4785 11.1378 14.4108C11.0406 14.3292 11.0863 14.1661 11.009 14.1082C11.067 14.0438 11.0766 13.9376 11.0638 13.8957C11.1249 13.8603 11.17 13.8023 11.1764 13.7733C11.2827 13.7669 11.376 13.7122 11.4147 13.6703C11.4695 13.7218 11.6079 13.6542 11.682 13.7411C11.698 13.5286 11.4952 13.416 11.36 13.4868C11.3052 13.4578 11.1604 13.4771 11.1346 13.5158C11.0895 13.4965 10.964 13.5609 10.906 13.6027C10.9704 13.5673 10.9801 13.461 10.9543 13.4224C11.009 13.3999 11.0702 13.3258 11.0766 13.2711C11.1539 13.284 11.2698 13.2325 11.3213 13.2453C11.2376 13.1359 11.0992 13.0972 10.9575 13.1069C10.811 13.115 10.7483 13.218 10.7289 13.3291C10.642 13.3806 10.613 13.5544 10.6452 13.6156C10.5953 13.614 10.5486 13.6623 10.5293 13.6896C10.4617 13.6607 10.3651 13.6398 10.2959 13.6398" stroke="black" stroke-width="0.01"/>
<path d="M10.3261 13.4638C10.2972 13.3801 10.3355 13.3048 10.3551 13.2385C10.405 13.0694 10.3744 13.026 10.2231 13.0485C10.2102 13.129 10.2875 13.393 10.3261 13.4638L10.3261 13.4638Z" fill="white" stroke="black" stroke-width="0.01"/>
<path d="M10.2158 13.0571C10.2545 13.0957 10.3913 13.1135 10.4058 12.9911C10.4224 12.8507 10.3655 12.7963 10.2432 12.8511C10.2335 12.8833 10.2223 13.0153 10.2158 13.0571L10.2158 13.0571Z" fill="white" stroke="black" stroke-width="0.01"/>
<path d="M10.2441 12.8465C10.2957 12.8674 10.4067 12.9093 10.4679 12.7902C10.5192 12.6902 10.4518 12.6131 10.3456 12.6195C10.3198 12.6485 10.2683 12.7515 10.2441 12.8465L10.2441 12.8465Z" fill="white" stroke="black" stroke-width="0.01"/>
<path d="M10.3399 12.6097C10.3527 12.6483 10.4847 12.7771 10.5813 12.6837C10.6779 12.5903 10.6779 12.4519 10.533 12.4004C10.4944 12.4068 10.3785 12.542 10.3398 12.6097L10.3399 12.6097Z" fill="white" stroke="black" stroke-width="0.01"/>
<path d="M10.5322 12.4014C10.5612 12.4819 10.6513 12.6203 10.8188 12.5559C10.9862 12.4915 10.9154 12.2823 10.8381 12.2404C10.793 12.2436 10.6095 12.3274 10.5322 12.4014L10.5322 12.4014Z" fill="white" stroke="black" stroke-width="0.01"/>
<path d="M10.8384 12.2397C10.8255 12.3105 10.8384 12.5037 11.067 12.5005C11.2955 12.4973 11.2312 12.23 11.1732 12.1914C11.0799 12.1914 10.9221 12.1946 10.8384 12.2397L10.8384 12.2397Z" fill="white" stroke="black" stroke-width="0.01"/>
<path d="M11.1835 12.201C11.1577 12.2557 11.0997 12.616 11.5473 12.5165C11.6052 12.5037 11.7565 12.172 11.1835 12.201Z" fill="white" stroke="black" stroke-width="0.01"/>
<path d="M11.4273 12.2331C11.3823 12.2782 11.4982 12.642 11.8008 12.5808C12.1035 12.5196 11.8492 12.1751 11.4273 12.2331Z" fill="white" stroke="black" stroke-width="0.01"/>
<path d="M11.6851 12.2891C11.6369 12.3889 11.7094 12.6851 12.0828 12.6851C12.4212 12.6851 12.0651 12.2955 11.6851 12.2891Z" fill="white" stroke="black" stroke-width="0.01"/>
<path d="M11.9786 12.375C11.9544 12.4304 11.9247 12.7444 12.365 12.771C12.6837 12.7903 12.6065 12.3396 11.9786 12.375Z" fill="white" stroke="black" stroke-width="0.01"/>
<path d="M12.4517 12.5076C12.397 12.6042 12.339 12.8457 12.8219 12.865C13.1314 12.8774 12.9411 12.514 12.4517 12.5076Z" fill="white" stroke="black" stroke-width="0.01"/>
<path d="M12.8537 12.5812C12.7829 12.6778 12.8351 12.8673 13.0146 12.9032C13.2401 12.9483 13.2722 12.7358 13.1177 12.6328C12.9631 12.5297 12.8537 12.5812 12.8537 12.5812V12.5812Z" fill="white" stroke="black" stroke-width="0.01"/>
<path d="M13.0733 12.627C13.0218 12.7171 13.0537 12.936 13.3952 12.936C13.466 12.936 13.7365 12.6592 13.0733 12.627Z" fill="white" stroke="black" stroke-width="0.01"/>
<path d="M10.4296 16.826C10.7062 16.826 10.9304 16.6017 10.9304 16.3251C10.9304 16.0485 10.7062 15.8242 10.4296 15.8242C10.153 15.8242 9.92871 16.0485 9.92871 16.3251C9.92871 16.6017 10.153 16.826 10.4296 16.826Z" fill="white" stroke="black" stroke-width="0.01"/>
<path d="M14.1028 9.54286C14.0641 9.58149 13.9837 9.69739 13.9675 9.74247C13.8001 10.2447 14.247 10.6199 14.5085 11.1591C14.7145 11.584 14.6888 12.2537 14.3668 12.6787C14.2566 12.8241 14.2895 12.8654 14.1479 13.0135C14.0935 13.0704 14.032 13.1423 14.0513 13.3484C14.1415 13.3162 14.2702 13.3999 14.296 13.4707C14.3604 13.4385 14.4505 13.4514 14.4827 13.49C14.5921 13.4385 14.6823 13.4643 14.7789 13.5673C14.8626 13.5544 14.9528 13.5673 15.0364 13.6575C15.0815 13.5673 15.1717 13.5351 15.236 13.5544C15.2296 13.4385 15.3455 13.3548 15.4485 13.3999C15.4164 13.2454 15.558 13.1294 15.6933 13.1745C15.8091 13.0844 16.0409 13.0779 16.1569 13.2132C15.9508 13.1552 15.9573 13.3741 15.7834 13.3548C15.8284 13.4836 15.7125 13.5577 15.5967 13.5995C15.6707 13.5641 15.7512 13.5222 15.7769 13.5673C15.8414 13.511 15.9701 13.5319 16.0024 13.5609C16.0876 13.5335 16.1698 13.5544 16.2084 13.6575C16.3243 13.7283 16.4015 13.9086 16.3179 14.0438C16.2921 13.9022 16.1955 13.9086 16.1569 13.8506C16.0667 13.8828 15.9765 13.8828 15.9508 13.8249C15.8993 13.8764 15.7254 13.9215 15.6482 13.8442C15.6192 13.9601 15.5194 14.0567 15.4034 14.0567C15.4357 14.1468 15.3455 14.3014 15.2747 14.3787C15.3842 14.4366 15.3519 14.5654 15.3262 14.6427C15.4936 14.6684 15.3519 14.8165 15.6417 14.9131C15.5001 14.9582 15.2232 14.9131 15.1845 14.7392C15.0429 14.7328 14.9463 14.5912 14.9528 14.443C14.8433 14.34 14.8272 14.1919 14.9785 14.0889C14.8497 14.1275 14.7789 13.9215 14.5921 14.0052C14.4993 14.0468 14.2541 13.9762 14.2573 13.8893C14.2187 13.9537 13.9837 13.9279 13.9514 13.8184C13.8742 13.8603 13.6938 13.7895 13.6971 13.6832C13.5973 13.7283 13.4621 13.6478 13.4685 13.5448C13.3752 13.5319 13.3655 13.4482 13.3719 13.3774C13.2882 13.3387 13.3108 13.2582 13.3429 13.1617C13.285 13.0973 13.3108 13.0071 13.3558 12.9234C13.2914 12.859 13.3043 12.7817 13.3236 12.6916C13.0145 12.6658 12.6273 12.5913 11.7396 12.3181C10.4002 11.906 10.0396 12.8719 10.3358 13.4772C10.6776 14.1756 10.2972 14.3272 10.4131 14.8488C10.5355 14.8745 10.5999 14.9775 10.5934 15.087C10.6658 15.0902 10.7174 15.1578 10.6916 15.2866C10.7528 15.2754 10.8317 15.293 10.8832 15.3445C10.9283 15.2609 11.0764 15.2415 11.1536 15.3381C11.321 15.3252 11.4048 15.4604 11.3983 15.6279C11.4884 15.7889 11.4563 15.9853 11.3597 16.1108C11.3693 16.0432 11.3597 15.9466 11.3565 15.8887C11.3505 15.7821 11.2019 15.7599 11.218 15.6729C11.1408 15.6794 11.0667 15.6375 11.0409 15.5796C10.9959 15.6182 10.9315 15.6311 10.8767 15.6118C10.9637 15.6504 11.0313 15.8049 11.0055 15.9079C11.0506 15.9853 11.0409 16.1269 10.9862 16.1881C10.9605 16.3136 10.8639 16.3587 10.7383 16.3039C10.8091 16.2589 10.8349 16.1784 10.8317 16.1108C10.7866 16.0722 10.7641 15.9981 10.7608 15.953C10.6353 15.9723 10.4614 15.8661 10.4294 15.8241C10.1527 15.8241 9.9285 16.0484 9.9285 16.325C9.91563 16.2219 9.78533 16.1204 9.80142 16.0335C9.72415 15.7953 9.83362 15.5731 10.1491 15.5281C10.1105 15.4379 10.2457 15.3445 10.1942 15.2415C10.1284 15.1099 10.0075 14.9389 9.8272 14.7393C9.93666 14.5525 9.90446 14.3014 9.84007 14.1469C9.7476 13.9249 9.65977 13.9794 9.33137 14.34C8.79617 14.9277 8.08217 14.765 7.45113 15.1514C7.28345 15.254 7.11631 15.293 7.2966 15.1128C7.4769 14.9324 7.9534 14.7522 8.26246 14.5976C8.84126 14.3082 9.33136 13.8249 9.52454 12.8848C9.97848 10.6756 11.6493 11.4038 12.7053 11.8159C13.6968 12.2028 13.5167 11.3265 13.0144 10.7985C12.4108 10.1639 12.5315 9.66525 12.8148 9.26601C13.3235 9.19519 14.2991 9.37226 14.1027 9.54291L14.1028 9.54286Z" fill="white" stroke="black" stroke-width="0.01"/>
<path d="M15.8968 14.9694C16.2011 14.9694 16.4479 14.7228 16.4479 14.4184C16.4479 14.1141 16.2011 13.8673 15.8968 13.8673C15.5924 13.8673 15.3457 14.1141 15.3457 14.4184C15.3457 14.7228 15.5925 14.9694 15.8968 14.9694Z" fill="white" stroke="black" stroke-width="0.01"/>
<path d="M13.7945 9.56836C13.6721 10.1093 13.7751 10.3539 13.9555 10.5922C14.328 11.0846 14.6251 12.2084 14.2001 12.9424" stroke="black" stroke-width="0.01"/>
<path d="M14.4375 12.3098C14.489 12.2905 14.5856 12.2293 14.6082 12.123" stroke="black" stroke-width="0.01" stroke-linecap="round"/>
<path d="M14.4766 12.0752C14.4926 11.9818 14.6375 11.9416 14.6407 11.8418" stroke="black" stroke-width="0.01" stroke-linecap="round"/>
<path d="M14.4799 11.7098C14.4703 11.6132 14.6248 11.5263 14.6023 11.4297" stroke="black" stroke-width="0.01" stroke-linecap="round"/>
<path d="M14.3963 11.3638C14.3834 11.3091 14.5251 11.2061 14.4865 11.1191" stroke="black" stroke-width="0.01" stroke-linecap="round"/>
<path d="M14.2897 11.0245C14.2607 10.9633 14.3573 10.8925 14.3155 10.8281" stroke="black" stroke-width="0.01" stroke-linecap="round"/>
<path d="M14.1358 10.7547C14.1262 10.7129 14.1858 10.6211 14.1536 10.5664" stroke="black" stroke-width="0.01" stroke-linecap="round"/>
<path d="M13.9805 10.4351C13.9933 10.419 14.0449 10.3803 14.0239 10.332" stroke="black" stroke-width="0.01" stroke-linecap="round"/>
<path d="M13.875 10.2023C13.8959 10.191 13.9587 10.1717 13.9507 10.125" stroke="black" stroke-width="0.01" stroke-linecap="round"/>
<path d="M10.652 16.2724C10.5233 16.2273 10.3623 16.2917 10.3301 16.4012" stroke="black" stroke-width="0.01" stroke-linecap="round" stroke-linejoin="round"/>
<path d="M10.4268 16.5019C10.4429 16.3925 10.6103 16.3441 10.6618 16.3956C10.5555 16.3377 10.504 16.5437 10.5974 16.5502" stroke="black" stroke-width="0.01" stroke-linecap="round" stroke-linejoin="round"/>
<path d="M11.4631 13.9551C11.3859 13.9937 11.3634 14.1354 11.4631 14.2417" stroke="black" stroke-width="0.01" stroke-linecap="round" stroke-linejoin="round"/>
<path d="M11.5789 13.9863C11.5242 14.0314 11.5274 14.1666 11.6079 14.1988C11.5403 14.1505 11.6079 14.0668 11.6562 14.0636C11.7045 14.0604 11.7367 14.1183 11.6787 14.1763" stroke="black" stroke-width="0.01" stroke-linecap="round" stroke-linejoin="round"/>
<path d="M16.1028 14.3059C15.9226 14.2576 15.7777 14.4669 15.9418 14.6536C15.9387 14.4733 16.0674 14.3542 16.2252 14.3864" stroke="black" stroke-width="0.01" stroke-linecap="round" stroke-linejoin="round"/>
<path d="M16.1523 14.5098C16.1079 14.5098 16.083 14.5444 16.083 14.5782C16.083 14.6136 16.1136 14.6474 16.1635 14.6474C16.1958 14.6474 16.2215 14.6104 16.2215 14.5814" stroke="black" stroke-width="0.01" stroke-linecap="round" stroke-linejoin="round"/>
<path d="M16.7881 10.5586C16.8171 10.6681 16.9684 10.7131 17.0875 10.6874" stroke="black" stroke-width="0.01" stroke-linecap="round" stroke-linejoin="round"/>
<path d="M17.0874 10.6167C16.9941 10.62 16.9168 10.533 16.9232 10.459C16.9232 10.5137 17.0488 10.5395 17.0874 10.5041" stroke="black" stroke-width="0.01" stroke-linecap="round" stroke-linejoin="round"/>
<path d="M10.6965 14.2931C10.6708 14.2287 10.7738 14.1643 10.777 14.1031C10.7802 14.042 10.8929 13.9937 11.0088 14.1096" stroke="black" stroke-width="0.01" stroke-linecap="round"/>
<path d="M10.9547 13.4238C10.9322 13.4335 10.9129 13.4464 10.8936 13.4528" stroke="black" stroke-width="0.01" stroke-linecap="round"/>
<path d="M11.1768 13.7743C11.1494 13.7759 11.0931 13.7727 11.0625 13.7517" stroke="black" stroke-width="0.01" stroke-linecap="round"/>
<path d="M11.0643 13.8967C11.0418 13.908 10.9919 13.9273 10.9629 13.9337" stroke="black" stroke-width="0.01" stroke-linecap="round"/>
<path d="M9.95911 15.8418C9.95589 15.8998 10.0138 15.9835 10.046 16.0092" stroke="black" stroke-width="0.01" stroke-linecap="round"/>
<path d="M10.2108 15.7031C10.1786 15.7514 10.1593 15.8351 10.1786 15.893" stroke="black" stroke-width="0.01" stroke-linecap="round"/>
<path d="M10.6907 15.8968C10.6327 15.8581 10.6714 15.7583 10.6649 15.6939C10.6585 15.6295 10.7325 15.5265 10.8774 15.6134" stroke="black" stroke-width="0.01" stroke-linecap="round"/>
<path d="M10.1494 15.5291C10.2074 15.5194 10.2685 15.5226 10.3072 15.5387" stroke="black" stroke-width="0.01" stroke-linecap="round"/>
<path d="M10.884 15.3455C10.8583 15.3809 10.8518 15.4195 10.8486 15.4453" stroke="black" stroke-width="0.01" stroke-linecap="round"/>
<path d="M11.1538 15.3398C11.1087 15.3398 11.0701 15.372 11.0508 15.4043" stroke="black" stroke-width="0.01" stroke-linecap="round"/>
<path d="M10.5293 13.6914C10.5808 13.7091 10.7144 13.7912 10.7193 13.8765" stroke="black" stroke-width="0.01" stroke-linecap="round"/>
<path d="M11.0763 13.2716C10.9186 13.2684 10.8574 13.1074 10.9765 13.1074" stroke="black" stroke-width="0.01" stroke-linecap="round"/>
<path d="M11.3606 13.4883C11.2995 13.514 11.3285 13.6203 11.4154 13.6718" stroke="black" stroke-width="0.01" stroke-linecap="round"/>
<path d="M10.9837 14.4987C10.9531 14.4601 10.9933 14.3474 11.0931 14.3812" stroke="black" stroke-width="0.01" stroke-linecap="round"/>
<path d="M11.2188 15.6739C11.2251 15.5757 11.3492 15.5177 11.3991 15.6288" stroke="black" stroke-width="0.01" stroke-linecap="round"/>
<path d="M10.7615 15.9531C10.7535 15.8452 10.8082 15.8098 10.8565 15.8034C10.9048 15.797 10.974 15.8372 11.0062 15.908" stroke="black" stroke-width="0.01" stroke-linecap="round"/>
<path d="M9.80176 16.0354C9.8082 15.971 9.86293 15.9034 9.92088 15.913" stroke="black" stroke-width="0.01" stroke-linecap="round"/>
<path d="M15.6935 13.1758C15.6516 13.2064 15.6242 13.3432 15.7836 13.3561" stroke="black" stroke-width="0.01" stroke-linecap="round"/>
<path d="M15.4492 13.4004C15.4492 13.4165 15.4701 13.439 15.4831 13.4487" stroke="black" stroke-width="0.01" stroke-linecap="round"/>
<path d="M16.2088 13.6593C16.167 13.6271 16.0591 13.7575 16.1573 13.8525" stroke="black" stroke-width="0.01" stroke-linecap="round"/>
<path d="M15.1848 14.7395C15.1607 14.6478 15.246 14.6236 15.3265 14.6429" stroke="black" stroke-width="0.01" stroke-linecap="round"/>
<path d="M14.9785 14.0896C15.0268 14.0574 15.0751 14.022 15.1363 14.0059" stroke="black" stroke-width="0.01" stroke-linecap="round"/>
<path d="M14.9531 14.4441C14.9531 14.3669 14.9917 14.3025 15.0271 14.2832" stroke="black" stroke-width="0.01" stroke-linecap="round"/>
<path d="M15.2361 13.5547C15.2296 13.6481 15.2683 13.7382 15.2973 13.7865" stroke="black" stroke-width="0.01" stroke-linecap="round"/>
<path d="M16.0027 13.5625C15.956 13.577 15.9142 13.5947 15.8965 13.6333" stroke="black" stroke-width="0.01" stroke-linecap="round"/>
<path d="M15.9512 13.8255C15.9738 13.8062 15.9995 13.7837 16.0108 13.7676" stroke="black" stroke-width="0.01" stroke-linecap="round"/>
<path d="M17.1681 11.0156C17.1681 11.1058 17.0554 11.1541 16.9814 11.0961" stroke="black" stroke-width="0.01" stroke-linecap="round"/>
<path d="M17.4131 11.0183C17.4629 11.0569 17.6352 11.0199 17.5949 10.9201" stroke="black" stroke-width="0.01" stroke-linecap="round"/>
<path d="M17.2034 11.5363C17.168 11.5298 17.1068 11.4912 17.0811 11.459" stroke="black" stroke-width="0.01" stroke-linecap="round"/>
<path d="M17.5582 11.2687C17.5003 11.2816 17.4616 11.2687 17.4326 11.2559" stroke="black" stroke-width="0.01" stroke-linecap="round"/>
<path d="M16.6436 11.591C16.6757 11.591 16.753 11.5781 16.8061 11.5508" stroke="black" stroke-width="0.01" stroke-linecap="round"/>
<path d="M16.5468 11.0209C16.5049 11.0161 16.4743 11.0241 16.4502 11.0402" stroke="black" stroke-width="0.01" stroke-linecap="round"/>
<path d="M17.1958 11.1797C17.1845 11.2199 17.1555 11.2827 17.1201 11.3101" stroke="black" stroke-width="0.01" stroke-linecap="round"/>
<path d="M16.4375 11.3215C16.518 11.2861 16.6178 11.5598 16.811 11.4632" stroke="black" stroke-width="0.01" stroke-linecap="round" stroke-linejoin="round"/>
<path d="M16.8273 11.1797C16.8016 11.2151 16.7855 11.2698 16.7822 11.3181" stroke="black" stroke-width="0.01" stroke-linecap="round" stroke-linejoin="round"/>
<path d="M12.9766 10.7601C13.0023 10.7569 13.0474 10.7472 13.0571 10.715" stroke="black" stroke-width="0.01"/>
<path d="M9.66309 13.7578C9.75968 13.8125 9.82729 13.9059 9.78544 14.0444" stroke="black" stroke-width="0.01"/>
<path d="M14.0898 10.4642C14.1188 10.4835 14.2283 10.4835 14.2895 10.4609" stroke="black" stroke-width="0.01"/>
<path d="M14.3673 10.5273C14.364 10.5724 14.377 10.743 14.29 10.7785" stroke="black" stroke-width="0.01"/>
<path d="M14.3223 10.7569C14.4028 10.7826 14.5638 10.773 14.6153 10.6249" stroke="black" stroke-width="0.01"/>
<path d="M14.5025 10.75C14.5443 10.8144 14.5571 10.94 14.4316 11.0076" stroke="black" stroke-width="0.01"/>
<path d="M14.5342 10.8571C14.6275 10.8893 14.8433 10.8925 14.8207 10.709" stroke="black" stroke-width="0.01"/>
<path d="M14.7471 10.8574C14.8115 10.9476 15.0948 11.0538 15.0497 10.8671" stroke="black" stroke-width="0.01"/>
<path d="M14.4863 11.1165C14.5957 11.1422 14.7503 11.0682 14.6859 10.875" stroke="black" stroke-width="0.01"/>
<path d="M14.9951 10.9731C15.0112 11.0472 15.3718 11.1244 15.3235 10.957" stroke="black" stroke-width="0.01"/>
<path d="M15.2559 11.0527C15.3235 11.2072 15.6809 11.1943 15.5682 10.9883" stroke="black" stroke-width="0.01"/>
<path d="M15.5098 11.1504C15.5806 11.2374 15.8962 11.1858 15.7706 10.9766" stroke="black" stroke-width="0.01"/>
<path d="M15.7676 11.1467C15.964 11.2948 16.1926 11.0823 15.9447 10.9277" stroke="black" stroke-width="0.01"/>
<path d="M16.0576 11.0976C16.2315 11.236 16.444 10.9849 16.2927 10.9141" stroke="black" stroke-width="0.01"/>
<path d="M14.6826 11.0394C14.7374 11.0555 14.8533 11.049 14.879 10.9492" stroke="black" stroke-width="0.01"/>
<path d="M14.8351 11.0175C14.8287 11.164 15.075 11.2203 15.1377 11.0513" stroke="black" stroke-width="0.01"/>
<path d="M15.0566 11.1439C15.1017 11.2404 15.3174 11.2791 15.3528 11.1406" stroke="black" stroke-width="0.01"/>
<path d="M15.3174 11.2043C15.3528 11.3009 15.5395 11.2912 15.591 11.1914" stroke="black" stroke-width="0.01"/>
<path d="M15.5234 11.2552C15.5814 11.3808 15.8196 11.3808 15.8744 11.1973" stroke="black" stroke-width="0.01"/>
<path d="M15.832 11.2777C15.9254 11.3356 16.125 11.3131 16.1089 11.1328" stroke="black" stroke-width="0.01"/>
<path d="M16.0703 11.2629C16.2087 11.3756 16.4052 11.2661 16.3086 11.0762" stroke="black" stroke-width="0.01"/>
<path d="M16.2988 11.4105C16.3729 11.3977 16.4115 11.2496 16.3342 11.2109" stroke="black" stroke-width="0.01"/>
<path d="M14.583 11.4361C14.7375 11.3524 14.7665 11.2107 14.6603 11.0723" stroke="black" stroke-width="0.01"/>
<path d="M14.7148 11.2953C14.8114 11.3532 14.9949 11.2921 15.0271 11.1504" stroke="black" stroke-width="0.01"/>
<path d="M14.8473 11.3105C14.902 11.3813 14.9117 11.4682 14.8408 11.5487" stroke="black" stroke-width="0.01"/>
<path d="M14.8916 11.4016C15.0622 11.2953 15.2747 11.4917 15.1169 11.6108" stroke="black" stroke-width="0.01"/>
<path d="M15.0879 11.3914C15.1266 11.3818 15.1941 11.311 15.2006 11.2305" stroke="black" stroke-width="0.01"/>
<path d="M15.166 11.4647C15.2368 11.3906 15.7199 11.542 15.4139 11.6965" stroke="black" stroke-width="0.01"/>
<path d="M15.3906 11.2617C15.484 11.2971 15.5323 11.4291 15.3906 11.4742" stroke="black" stroke-width="0.01"/>
<path d="M15.5137 11.5835C15.6167 11.4773 15.9387 11.5449 15.8228 11.6801" stroke="black" stroke-width="0.01"/>
<path d="M15.7451 11.5433C15.803 11.3469 16.1475 11.4692 16.0349 11.5497" stroke="black" stroke-width="0.01"/>
<path d="M15.6745 11.3459C15.6842 11.3845 15.6874 11.4811 15.623 11.5326" stroke="black" stroke-width="0.01"/>
<path d="M15.9637 11.3066C15.9765 11.3388 15.9733 11.4 15.9443 11.4386" stroke="black" stroke-width="0.01"/>
<path d="M16.1834 11.3105C16.2027 11.3459 16.2349 11.4135 16.1641 11.4682" stroke="black" stroke-width="0.01"/>
<path d="M13.4268 9.83008C13.4299 10.0136 13.4943 10.1359 13.7423 10.02" stroke="black" stroke-width="0.01"/>
<path d="M13.5043 10.0488C13.382 10.213 13.5204 10.3901 13.7619 10.213" stroke="black" stroke-width="0.01"/>
<path d="M13.1279 10.1297C13.2953 10.31 13.5948 10.178 13.4016 9.9043" stroke="black" stroke-width="0.01"/>
<path d="M13.6042 10.2832C13.5719 10.4603 13.7168 10.4957 13.8359 10.4152" stroke="black" stroke-width="0.01"/>
<path d="M12.9795 10.1582C13.01 10.3362 13.192 10.4769 13.3691 10.3675" stroke="black" stroke-width="0.01"/>
<path d="M13.1982 10.4023C13.1982 10.6567 13.5492 10.6857 13.6297 10.4217" stroke="black" stroke-width="0.01"/>
<path d="M13.5039 10.5833C13.6166 10.8151 13.8612 10.7217 13.9417 10.5801" stroke="black" stroke-width="0.01"/>
<path d="M13.2559 10.2127C13.3009 10.3254 13.3911 10.4509 13.6004 10.3576" stroke="black" stroke-width="0.01"/>
<path d="M12.6123 10.1582C12.6413 10.2516 12.8087 10.3643 13.0019 10.2355" stroke="black" stroke-width="0.01"/>
<path d="M12.7313 10.2773C12.6282 10.4287 12.8343 10.5703 13.0822 10.345" stroke="black" stroke-width="0.01"/>
<path d="M12.8535 10.4648C12.8953 10.6773 12.979 10.848 13.2817 10.5743" stroke="black" stroke-width="0.01"/>
<path d="M13.1309 10.6835C13.2404 10.8187 13.4078 10.9024 13.5655 10.6738" stroke="black" stroke-width="0.01"/>
<path d="M13.6813 10.7207C13.6716 10.8817 13.7038 10.9622 13.8294 10.9557C13.9284 10.9507 14.0225 10.872 14.0773 10.7883" stroke="black" stroke-width="0.01"/>
<path d="M13.8067 10.957C13.8034 11.1405 13.9483 11.2854 14.2188 11.0987" stroke="black" stroke-width="0.01"/>
<path d="M13.9199 11.1721C13.8684 11.3105 14.0229 11.5359 14.3256 11.42" stroke="black" stroke-width="0.01"/>
<path d="M13.2789 10.8047C13.2596 10.9818 13.4238 11.1009 13.6878 10.8723" stroke="black" stroke-width="0.01"/>
<path d="M13.4082 11.002C13.4179 11.1468 13.582 11.3207 13.8235 11.0696" stroke="black" stroke-width="0.01"/>
<path d="M13.5236 11.1855C13.5043 11.4334 13.7329 11.5043 13.926 11.3143" stroke="black" stroke-width="0.01"/>
<path d="M13.1787 11.0018C13.2302 11.005 13.272 10.9599 13.2978 10.9277" stroke="black" stroke-width="0.01"/>
<path d="M13.2881 11.1814C13.3332 11.191 13.4105 11.1492 13.4363 11.0977" stroke="black" stroke-width="0.01"/>
<path d="M13.4014 11.474C13.4529 11.5287 13.6267 11.4901 13.6492 11.416" stroke="black" stroke-width="0.01"/>
<path d="M13.5947 11.4722C13.6913 11.6976 13.9488 11.6879 14.0551 11.4336" stroke="black" stroke-width="0.01"/>
<path d="M14.0068 11.5234C14.0551 11.6554 14.1775 11.7391 14.3771 11.6941" stroke="black" stroke-width="0.01"/>
<path d="M14.1027 11.6583C13.9901 11.8418 14.1382 12.0575 14.3892 11.845" stroke="black" stroke-width="0.01"/>
<path d="M14.1641 11.9316C14.1513 12.0475 14.2576 12.1795 14.4024 12.1956" stroke="black" stroke-width="0.01"/>
<path d="M13.6877 11.5939C13.649 11.8547 13.8358 11.9802 14.0709 11.8418" stroke="black" stroke-width="0.01"/>
<path d="M13.4141 11.7188C13.4752 11.767 13.5847 11.7735 13.6877 11.7348" stroke="black" stroke-width="0.01"/>
<path d="M13.813 11.8869C13.755 12.1058 13.9804 12.2636 14.1736 12.0189" stroke="black" stroke-width="0.01"/>
<path d="M13.501 11.7559C13.5042 11.8685 13.6137 11.9909 13.8036 11.9555" stroke="black" stroke-width="0.01"/>
<path d="M14.3345 12.1799C14.2057 12.2668 14.1799 12.4214 14.3603 12.5212" stroke="black" stroke-width="0.01"/>
<path d="M14.0195 12.1347C14.026 12.2667 14.0872 12.3407 14.232 12.3536" stroke="black" stroke-width="0.01"/>
<path d="M13.8298 12.0664C13.6366 12.2435 13.8266 12.4495 14.0551 12.2757" stroke="black" stroke-width="0.01"/>
<path d="M13.9648 12.332C13.9004 12.5349 14.1419 12.6572 14.2707 12.4512" stroke="black" stroke-width="0.01"/>
<path d="M13.5654 11.9004C13.4946 12.1 13.5847 12.232 13.7489 12.2191" stroke="black" stroke-width="0.01"/>
<path d="M13.3115 11.8611C13.3212 11.9802 13.4242 12.0221 13.5401 11.9963" stroke="black" stroke-width="0.01"/>
<path d="M13.3849 11.9863C13.298 12.1537 13.43 12.2439 13.6039 12.1795" stroke="black" stroke-width="0.01"/>
<path d="M14.1319 12.5527C14.1029 12.659 14.119 12.7363 14.2767 12.7717" stroke="black" stroke-width="0.01"/>
<path d="M14.1417 12.7051C13.9517 12.792 13.9356 12.9755 14.0837 13.0946" stroke="black" stroke-width="0.01"/>
<path d="M13.9888 12.5C13.8891 12.5902 13.9083 12.7463 14.0178 12.8075" stroke="black" stroke-width="0.01"/>
<path d="M13.144 11.9121C13.0345 12.02 13.1391 12.3178 13.3805 12.1552" stroke="black" stroke-width="0.01"/>
<path d="M13.7713 12.2893C13.6231 12.4116 13.6908 12.6338 13.9355 12.5726" stroke="black" stroke-width="0.01"/>
<path d="M13.5266 12.1953C13.4493 12.4143 13.5234 12.4915 13.6973 12.4947" stroke="black" stroke-width="0.01"/>
<path d="M12.9831 11.9023C12.8511 12.0021 12.8865 12.1438 12.9445 12.2082C13.0025 12.2726 13.1119 12.2436 13.1473 12.1599" stroke="black" stroke-width="0.01"/>
<path d="M12.7054 11.8164C12.5573 12.0064 12.7054 12.2317 12.9147 12.1641" stroke="black" stroke-width="0.01"/>
<path d="M13.4982 12.3789C13.3469 12.4336 13.2314 12.571 13.3243 12.6912C13.379 12.762 13.6173 12.7717 13.6849 12.498" stroke="black" stroke-width="0.01"/>
<path d="M13.2239 12.2031C13.137 12.3287 13.1659 12.4478 13.3269 12.509" stroke="black" stroke-width="0.01"/>
<path d="M13.2148 12.4375C13.1214 12.489 13.0602 12.5502 13.0828 12.6629" stroke="black" stroke-width="0.01"/>
<path d="M13.0057 12.2402C12.9703 12.3916 13.0121 12.4849 13.1054 12.53" stroke="black" stroke-width="0.01"/>
<path d="M13.0018 12.4209C12.8569 12.4112 12.7829 12.4724 12.8311 12.6141" stroke="black" stroke-width="0.01"/>
<path d="M12.844 12.4569C12.7024 12.4054 12.6798 12.2831 12.7409 12.1543" stroke="black" stroke-width="0.01"/>
<path d="M12.7222 12.3438C12.5676 12.3502 12.5 12.4275 12.5 12.5337" stroke="black" stroke-width="0.01"/>
<path d="M12.5129 11.7422C12.4002 11.7905 12.3648 11.9418 12.4066 12.0255C12.4486 12.1092 12.5806 12.1157 12.6611 12.0609" stroke="black" stroke-width="0.01"/>
<path d="M12.1973 11.6229C12.0943 11.7388 12.2133 11.9642 12.3969 11.9094" stroke="black" stroke-width="0.01"/>
<path d="M11.9328 11.5332C11.8362 11.6684 11.9425 11.8938 12.1904 11.8294" stroke="black" stroke-width="0.01"/>
<path d="M12.2038 12.4575C12.178 12.2965 12.3455 12.1903 12.5516 12.3996" stroke="black" stroke-width="0.01"/>
<path d="M12.4514 12.0742C12.3903 12.129 12.3614 12.2159 12.3709 12.2867" stroke="black" stroke-width="0.01"/>
<path d="M11.6696 11.4551C11.5633 11.6354 11.6922 11.7996 11.9207 11.7352" stroke="black" stroke-width="0.01"/>
<path d="M12.2649 11.9023C12.1136 12.0537 12.1651 12.205 12.2778 12.2919" stroke="black" stroke-width="0.01"/>
<path d="M12.1685 12.0801C11.9399 12.0833 11.9271 12.3473 12.1138 12.431" stroke="black" stroke-width="0.01"/>
<path d="M11.994 11.8164C11.9007 11.8808 11.8717 12.0579 12.0327 12.1287" stroke="black" stroke-width="0.01"/>
<path d="M11.9876 12.2131C11.891 12.168 11.7751 12.2227 11.7847 12.3354" stroke="black" stroke-width="0.01"/>
<path d="M11.8425 12.2153C11.7556 12.0092 11.5013 12.0447 11.5239 12.2572" stroke="black" stroke-width="0.01"/>
<path d="M11.914 11.9609C11.8593 11.9705 11.7498 12.0027 11.708 12.0864" stroke="black" stroke-width="0.01"/>
<path d="M11.7243 11.7285C11.6213 11.8444 11.7017 11.9829 11.7855 12.0118" stroke="black" stroke-width="0.01"/>
<path d="M11.4178 11.4043C11.3984 11.5427 11.4532 11.6104 11.627 11.5975" stroke="black" stroke-width="0.01"/>
<path d="M11.4796 11.582C11.4119 11.7494 11.5021 11.8235 11.6759 11.8138" stroke="black" stroke-width="0.01"/>
<path d="M11.5173 11.7871C11.4143 11.9094 11.4851 12.0414 11.5849 12.0962" stroke="black" stroke-width="0.01"/>
<path d="M11.4694 11.9411C11.2859 11.9186 11.2569 12.1311 11.318 12.2309" stroke="black" stroke-width="0.01"/>
<path d="M11.3211 11.3887C11.2085 11.437 11.1441 11.5786 11.2053 11.6656C11.2665 11.7525 11.3888 11.7235 11.4564 11.6784" stroke="black" stroke-width="0.01"/>
<path d="M11.2437 11.7033C11.1503 11.8449 11.234 11.9512 11.3339 11.993" stroke="black" stroke-width="0.01"/>
<path d="M10.8837 11.3711C10.8096 11.4484 10.8547 11.6061 11.035 11.6094C11.1801 11.612 11.2539 11.4741 11.2088 11.3776" stroke="black" stroke-width="0.01"/>
<path d="M11.0091 11.6094C10.9512 11.7382 10.9866 11.8766 11.2055 11.8541" stroke="black" stroke-width="0.01"/>
<path d="M11.2988 12.0585C11.1636 11.9973 10.9833 12.0585 11.0606 12.2194" stroke="black" stroke-width="0.01"/>
<path d="M11.041 11.8281C10.9863 11.9054 11.0056 12.0149 11.0667 12.0825" stroke="black" stroke-width="0.01"/>
<path d="M11.032 12.0352C10.9418 12.0513 10.8549 12.0995 10.9096 12.2412" stroke="black" stroke-width="0.01"/>
<path d="M10.896 12.1254C10.7801 12.09 10.632 12.1737 10.7221 12.2928" stroke="black" stroke-width="0.01"/>
<path d="M10.703 12.1794C10.6032 12.1633 10.4841 12.2695 10.5806 12.3758" stroke="black" stroke-width="0.01"/>
<path d="M10.5426 12.2893C10.4524 12.3118 10.3462 12.4148 10.4395 12.4953" stroke="black" stroke-width="0.01"/>
<path d="M10.9967 11.7832C10.8679 11.8412 10.8551 11.986 10.9162 12.0923" stroke="black" stroke-width="0.01"/>
<path d="M10.8607 11.5176C10.6676 11.5916 10.6708 11.8492 10.8833 11.9297" stroke="black" stroke-width="0.01"/>
<path d="M10.7929 11.8711C10.677 11.9387 10.6545 12.0675 10.7318 12.1512" stroke="black" stroke-width="0.01"/>
<path d="M10.5904 11.4201C10.5132 11.4458 10.5196 11.6841 10.7257 11.6776" stroke="black" stroke-width="0.01"/>
<path d="M10.3785 11.5C10.224 11.603 10.4107 11.8638 10.6618 11.6771" stroke="black" stroke-width="0.01"/>
<path d="M10.5233 11.7422C10.5007 11.8484 10.5297 11.9643 10.7003 11.9772" stroke="black" stroke-width="0.01"/>
<path d="M10.5328 11.8828C10.4104 11.9279 10.3879 12.179 10.6101 12.1983" stroke="black" stroke-width="0.01"/>
<path d="M10.1431 11.6543C9.98532 11.7992 10.2719 11.9247 10.3781 11.7155" stroke="black" stroke-width="0.01"/>
<path d="M9.92382 11.897C9.84654 11.9904 10.117 12.2351 10.2361 11.8262" stroke="black" stroke-width="0.01"/>
<path d="M10.2656 11.8184C10.2721 11.9149 10.33 11.9729 10.4491 11.9793" stroke="black" stroke-width="0.01"/>
<path d="M10.446 12.0742C10.256 12.1032 10.1948 12.3414 10.4073 12.393" stroke="black" stroke-width="0.01"/>
<path d="M10.095 12.041C10.0886 12.1312 10.182 12.2052 10.2882 12.1891" stroke="black" stroke-width="0.01"/>
<path d="M10.3845 12.3867C10.2107 12.4254 10.1881 12.6507 10.3427 12.6378" stroke="black" stroke-width="0.01"/>
<path d="M10.2619 12.8463C10.117 12.8028 10.1138 12.6306 10.2426 12.5662" stroke="black" stroke-width="0.01"/>
<path d="M10.143 12.6953C10.0206 12.7694 10.0689 12.9464 10.1333 12.9722C10.1977 12.998 10.2492 12.9658 10.2557 12.911" stroke="black" stroke-width="0.01"/>
<path d="M10.2465 13.1585C10.2594 13.2422 9.94871 13.21 10.1081 12.9492" stroke="black" stroke-width="0.01"/>
<path d="M10.1059 13.1738C10.0013 13.338 10.1719 13.4716 10.2798 13.3316" stroke="black" stroke-width="0.01"/>
<path d="M10.1201 13.3711C10.0783 13.5031 10.2376 13.5981 10.3407 13.4951" stroke="black" stroke-width="0.01"/>
<path d="M9.7723 12.1352C9.71434 12.2543 10.0041 12.2994 10.0234 12.0547" stroke="black" stroke-width="0.01"/>
<path d="M9.69281 12.3112C9.63486 12.543 10.0727 12.4947 9.96003 12.1953" stroke="black" stroke-width="0.01"/>
<path d="M9.96875 12.3511C10.0299 12.3865 10.2134 12.3898 10.2585 12.1934" stroke="black" stroke-width="0.01"/>
<path d="M10.127 12.3574C10.1398 12.4186 10.1946 12.4926 10.2461 12.5152" stroke="black" stroke-width="0.01"/>
<path d="M9.91799 12.4181C9.89867 12.5437 10.0242 12.6467 10.1691 12.637" stroke="black" stroke-width="0.01"/>
<path d="M9.93987 12.541C9.86905 12.6376 9.84651 12.8243 10.0687 12.8372" stroke="black" stroke-width="0.01"/>
<path d="M9.60261 12.5723C9.5672 12.6721 9.77647 12.7751 9.89881 12.6109" stroke="black" stroke-width="0.01"/>
<path d="M9.5373 12.8265C9.51958 12.9022 9.70793 13.0036 9.81418 12.6816" stroke="black" stroke-width="0.01"/>
<path d="M9.73047 12.8469C9.77554 12.9274 9.92686 12.9917 10.0202 12.834" stroke="black" stroke-width="0.01"/>
<path d="M9.86937 12.9297C9.83074 13.0424 9.93699 13.1486 10.0658 13.1164" stroke="black" stroke-width="0.01"/>
<path d="M9.62839 12.9043C9.60263 13.0653 9.78936 13.1586 9.90527 13.0749" stroke="black" stroke-width="0.01"/>
<path d="M9.50543 12.9746C9.45071 13.1807 9.71471 13.2579 9.81451 13.1034" stroke="black" stroke-width="0.01"/>
<path d="M9.74707 13.166C9.75674 13.2819 9.93704 13.3817 10.0787 13.2851" stroke="black" stroke-width="0.01"/>
<path d="M9.42536 13.2609C9.41248 13.3124 9.6282 13.3639 9.66038 13.1836" stroke="black" stroke-width="0.01"/>
<path d="M9.55078 13.3067C9.60229 13.4387 9.77614 13.4709 9.87596 13.3099" stroke="black" stroke-width="0.01"/>
<path d="M9.81836 13.375C9.8409 13.4973 9.99866 13.565 10.1371 13.4812" stroke="black" stroke-width="0.01"/>
<path d="M10.1942 13.5293C10.1588 13.6935 10.3294 13.8255 10.4357 13.7354" stroke="black" stroke-width="0.01"/>
<path d="M9.92061 13.4999C9.8691 13.6802 10.0945 13.7832 10.22 13.6834" stroke="black" stroke-width="0.01"/>
<path d="M9.65028 13.4102C9.63741 13.5776 9.76941 13.6774 9.92072 13.6033" stroke="black" stroke-width="0.01"/>
<path d="M9.364 13.4259C9.31892 13.5353 9.55718 13.6255 9.66986 13.5321" stroke="black" stroke-width="0.01"/>
<path d="M9.21582 13.7261C9.277 13.7969 9.48948 13.7261 9.5088 13.5684" stroke="black" stroke-width="0.01"/>
<path d="M9.45117 13.6836C9.52844 13.7738 9.71195 13.8221 9.78601 13.6289" stroke="black" stroke-width="0.01"/>
<path d="M9.72171 13.729C9.71849 13.8674 9.96641 13.9673 10.0469 13.7129" stroke="black" stroke-width="0.01"/>
<path d="M10.3381 13.7617C10.3156 13.8293 10.3687 13.9372 10.4798 13.9501" stroke="black" stroke-width="0.01"/>
<path d="M10.1334 13.7205C10.1173 13.7978 10.23 13.9056 10.3491 13.8621" stroke="black" stroke-width="0.01"/>
<path d="M10.372 13.8945C10.3398 13.9782 10.3671 14.099 10.4798 14.0974" stroke="black" stroke-width="0.01"/>
<path d="M10.3826 14.0508C10.2989 14.1216 10.3343 14.2472 10.4551 14.252" stroke="black" stroke-width="0.01"/>
<path d="M10.3391 14.1699C10.22 14.2504 10.2618 14.4275 10.4196 14.4179" stroke="black" stroke-width="0.01"/>
<path d="M9.97852 13.8283C9.97852 14.0021 10.1942 14.0279 10.2361 13.8669" stroke="black" stroke-width="0.01"/>
<path d="M10.1524 13.9707C10.1202 14.0737 10.2039 14.1735 10.3359 14.1446" stroke="black" stroke-width="0.01"/>
<path d="M10.1784 15.2134C10.2074 15.2553 10.3265 15.1845 10.2943 15.1136C10.2621 15.0428 10.1359 15.0813 10.1494 15.1555" stroke="black" stroke-width="0.01"/>
<path d="M10.2654 15.0843C10.2815 14.9426 10.1141 14.9201 10.0723 15.0424" stroke="black" stroke-width="0.01"/>
<path d="M10.1333 14.9707C10.1752 14.8999 10.0335 14.8033 9.97559 14.9063" stroke="black" stroke-width="0.01"/>
<path d="M10.0268 14.8654C10.0655 14.7623 9.90449 14.7173 9.8916 14.8106" stroke="black" stroke-width="0.01"/>
<path d="M9.85645 14.6745C9.87577 14.623 10.0561 14.6551 9.9788 14.7614" stroke="black" stroke-width="0.01"/>
<path d="M10.1175 14.8907C10.1883 14.8263 10.0692 14.6943 9.99512 14.7426" stroke="black" stroke-width="0.01"/>
<path d="M10.5936 15.0879C10.5372 15.0943 10.4793 15.1313 10.5211 15.2505C10.5502 15.3331 10.6741 15.3374 10.6918 15.2875" stroke="black" stroke-width="0.01"/>
<path d="M10.5121 15.1467C10.4573 15.1113 10.3382 15.1708 10.393 15.2868C10.4342 15.374 10.5378 15.3383 10.5539 15.2932" stroke="black" stroke-width="0.01"/>
<path d="M10.2041 15.3129C10.2315 15.3611 10.3683 15.3403 10.3924 15.2871" stroke="black" stroke-width="0.01"/>
<path d="M10.2979 15.1535C10.3268 15.1342 10.3799 15.1583 10.3912 15.1824" stroke="black" stroke-width="0.01"/>
<path d="M10.2875 14.3595C10.1941 14.4207 10.2521 14.6074 10.397 14.5591" stroke="black" stroke-width="0.01"/>
<path d="M10.259 14.5117C10.1849 14.5696 10.2525 14.75 10.391 14.6824" stroke="black" stroke-width="0.01"/>
<path d="M10.2816 14.6815C10.2301 14.733 10.28 14.8762 10.4136 14.8489" stroke="black" stroke-width="0.01"/>
<path d="M10.2618 14.7533C10.2329 14.7403 10.1572 14.75 10.125 14.7983" stroke="black" stroke-width="0.01"/>
<path d="M10.1788 14.0996C10.108 14.1672 10.1418 14.3057 10.2738 14.3169" stroke="black" stroke-width="0.01"/>
<path d="M10.1526 14.2422C10.0511 14.2921 10.0511 14.4933 10.254 14.5013" stroke="black" stroke-width="0.01"/>
<path d="M10.1445 14.4689C10.0881 14.514 10.1155 14.6878 10.2604 14.6652" stroke="black" stroke-width="0.01"/>
<path d="M10.1918 14.6582C10.1708 14.6791 10.1676 14.7323 10.1853 14.7548" stroke="black" stroke-width="0.01"/>
<path d="M10.1271 14.5938C10.0756 14.5953 10.008 14.6324 9.99023 14.6855" stroke="black" stroke-width="0.01"/>
<path d="M9.89648 14.4987C9.9158 14.4472 10.0752 14.4505 10.0864 14.6018" stroke="black" stroke-width="0.01"/>
<path d="M10.1027 14.4199C10.0801 14.4248 10.0367 14.4457 10.0254 14.4892" stroke="black" stroke-width="0.01"/>
<path d="M10.0335 13.9491C9.96425 14.0119 9.93046 14.2099 10.1413 14.2485" stroke="black" stroke-width="0.01"/>
<path d="M9.89355 14.3588C9.89355 14.3057 10.0368 14.2606 10.0867 14.3395" stroke="black" stroke-width="0.01"/>
<path d="M9.80176 14.0703C9.82267 14.1106 9.92248 14.1653 9.98366 14.1202" stroke="black" stroke-width="0.01"/>
<path d="M9.2833 13.7552C9.28009 13.8485 9.35736 13.9323 9.4636 13.9194C9.56984 13.9065 9.59238 13.8131 9.56018 13.752" stroke="black" stroke-width="0.01"/>
<path d="M9.47927 13.9217C9.40843 14.0086 9.49537 14.131 9.57585 14.0955" stroke="black" stroke-width="0.01"/>
<path d="M9.56055 13.8596C9.6024 13.8435 9.74085 13.8241 9.78271 13.8885" stroke="black" stroke-width="0.01"/>
<path d="M9.11286 13.8867C9.08066 13.935 9.28029 13.9833 9.34788 13.8899" stroke="black" stroke-width="0.01"/>
<path d="M9.28006 13.9377C9.27361 14.0021 9.30581 14.1115 9.47001 14.0665" stroke="black" stroke-width="0.01"/>
<path d="M9.49642 14.1663C9.52217 14.1116 9.39982 14.0214 9.30646 14.1212C9.21309 14.221 9.31933 14.3337 9.37729 14.295" stroke="black" stroke-width="0.01"/>
<path d="M9.0674 13.9512C9.0191 14.0349 9.20584 14.1878 9.3121 14.0462" stroke="black" stroke-width="0.01"/>
<path d="M8.94337 14.0946C8.87576 14.1638 8.95947 14.291 9.06089 14.2523C9.1623 14.2137 9.15264 14.1074 9.12851 14.0801" stroke="black" stroke-width="0.01"/>
<path d="M8.81351 14.2246C8.75878 14.2745 8.81188 14.392 8.88756 14.392C8.9632 14.392 9.0099 14.3325 8.9954 14.2568" stroke="black" stroke-width="0.01"/>
<path d="M9.12072 14.2147C9.11105 14.2887 9.22052 14.3402 9.29135 14.2711" stroke="black" stroke-width="0.01"/>
<path d="M9.29474 14.1364C9.3044 14.1203 9.29637 14.093 9.28027 14.0801" stroke="black" stroke-width="0.01"/>
<path d="M8.69578 14.3241C8.63302 14.374 8.76824 14.5124 8.85354 14.3853" stroke="black" stroke-width="0.01"/>
<path d="M9.18046 14.2967C9.14021 14.3353 9.2046 14.4367 9.26899 14.4061" stroke="black" stroke-width="0.01"/>
<path d="M8.95996 14.3672C8.96962 14.4364 9.10485 14.4879 9.19016 14.3817" stroke="black" stroke-width="0.01"/>
<path d="M9.03382 14.4375C9.01291 14.481 9.05477 14.5503 9.10627 14.5406" stroke="black" stroke-width="0.01"/>
<path d="M10.3151 14.834C10.2652 14.9322 10.4245 15.0465 10.5404 14.9273" stroke="black" stroke-width="0.01"/>
<path d="M10.4316 14.9805C10.4075 15.0336 10.4364 15.1076 10.4799 15.135" stroke="black" stroke-width="0.01"/>
<path d="M10.2803 15.0925C10.2916 15.0441 10.3608 14.999 10.4236 15.0216" stroke="black" stroke-width="0.01"/>
<path d="M10.1963 14.9641C10.2059 14.9207 10.2639 14.8772 10.3074 14.8885" stroke="black" stroke-width="0.01"/>
<path d="M13.9872 12.9551C13.7586 12.9583 13.8552 13.3253 14.0516 13.2513" stroke="black" stroke-width="0.01"/>
<path d="M13.9136 13.2266C13.8685 13.3006 13.9554 13.4181 14.052 13.3489" stroke="black" stroke-width="0.01"/>
<path d="M14.0255 13.3631C13.9578 13.4758 14.1993 13.648 14.2959 13.4709" stroke="black" stroke-width="0.01"/>
<path d="M14.2188 13.5385C14.2219 13.6447 14.531 13.7123 14.486 13.4998" stroke="black" stroke-width="0.01"/>
<path d="M14.457 13.6167C14.531 13.7422 14.808 13.7551 14.779 13.5684" stroke="black" stroke-width="0.01"/>
<path d="M14.7178 13.6968C14.7758 13.7806 15.0462 13.8321 15.0365 13.6582" stroke="black" stroke-width="0.01"/>
<path d="M13.6201 12.6367C13.6587 12.7365 13.7907 12.7719 13.9356 12.714" stroke="black" stroke-width="0.01"/>
<path d="M13.5367 12.707C13.6269 12.765 13.4949 13.029 13.3564 12.9227" stroke="black" stroke-width="0.01"/>
<path d="M13.5361 12.8729C13.636 12.9212 13.7583 12.8858 13.7937 12.7441" stroke="black" stroke-width="0.01"/>
<path d="M13.7334 12.8535C13.7431 12.9276 13.8493 12.9855 13.9877 12.9565" stroke="black" stroke-width="0.01"/>
<path d="M13.4854 12.9297C13.6143 13.0392 13.4275 13.2645 13.3438 13.1615" stroke="black" stroke-width="0.01"/>
<path d="M13.5332 13.0137C13.5944 13.0588 13.7521 13.033 13.7682 12.9139" stroke="black" stroke-width="0.01"/>
<path d="M13.6973 13.0137C13.7102 13.0909 13.7713 13.1199 13.8583 13.1231" stroke="black" stroke-width="0.01"/>
<path d="M13.498 13.1204C13.5624 13.2106 13.7234 13.2363 13.7942 13.1172" stroke="black" stroke-width="0.01"/>
<path d="M13.723 13.1836C13.7165 13.2705 13.8131 13.3414 13.913 13.322" stroke="black" stroke-width="0.01"/>
<path d="M13.3721 13.3775C13.4557 13.4193 13.5459 13.2616 13.4751 13.1521" stroke="black" stroke-width="0.01"/>
<path d="M13.4688 13.5449C13.5686 13.5513 13.5814 13.4 13.4881 13.3163" stroke="black" stroke-width="0.01"/>
<path d="M13.6977 13.6838C13.7814 13.6645 13.7556 13.4809 13.5527 13.4648" stroke="black" stroke-width="0.01"/>
<path d="M13.9521 13.8187C14.0326 13.7961 13.9682 13.5933 13.7461 13.6062" stroke="black" stroke-width="0.01"/>
<path d="M14.258 13.8889C14.3127 13.8051 14.1325 13.6635 13.9844 13.7375" stroke="black" stroke-width="0.01"/>
<path d="M14.4088 14.0043C14.5087 14.0333 14.5762 13.7693 14.2607 13.8111" stroke="black" stroke-width="0.01"/>
<path d="M14.5925 14.0062C14.6795 13.9837 14.7407 13.8259 14.4863 13.8775" stroke="black" stroke-width="0.01"/>
<path d="M14.7855 14.019C14.8628 14.0576 14.8982 13.8322 14.6631 13.8934" stroke="black" stroke-width="0.01"/>
<path d="M13.4883 13.3156C13.5849 13.3703 13.7362 13.3059 13.7233 13.1836" stroke="black" stroke-width="0.01"/>
<path d="M13.6844 13.291C13.7167 13.349 13.7037 13.4616 13.6426 13.4906" stroke="black" stroke-width="0.01"/>
<path d="M13.6943 13.4259C13.7588 13.4516 13.8457 13.4291 13.8972 13.3261" stroke="black" stroke-width="0.01"/>
<path d="M13.8072 13.4259C13.8264 13.4709 13.8329 13.5611 13.791 13.6062" stroke="black" stroke-width="0.01"/>
<path d="M13.8232 13.5031C13.8941 13.5417 13.9777 13.4902 14.0132 13.4161" stroke="black" stroke-width="0.01"/>
<path d="M13.9678 13.4805C14.0193 13.5127 14.0644 13.664 13.9774 13.7252" stroke="black" stroke-width="0.01"/>
<path d="M14.0264 13.6541C14.0875 13.6573 14.1777 13.6573 14.2356 13.5801" stroke="black" stroke-width="0.01"/>
<path d="M14.1934 13.623C14.2481 13.6391 14.3124 13.7293 14.2899 13.8098" stroke="black" stroke-width="0.01"/>
<path d="M14.293 13.7806C14.3542 13.7741 14.4604 13.7323 14.4894 13.6582" stroke="black" stroke-width="0.01"/>
<path d="M14.4609 13.7051C14.5125 13.7341 14.5479 13.7952 14.5414 13.8661" stroke="black" stroke-width="0.01"/>
<path d="M14.541 13.8159C14.6022 13.8127 14.6569 13.7805 14.673 13.7129" stroke="black" stroke-width="0.01"/>
<path d="M14.6572 13.7578C14.7023 13.7739 14.7571 13.8254 14.7603 13.8866" stroke="black" stroke-width="0.01"/>
<path d="M14.7539 13.8481C14.799 13.8416 14.8312 13.8127 14.8602 13.7676" stroke="black" stroke-width="0.01"/>
<path d="M14.9822 13.7598C15.0402 13.8177 14.9629 14.0109 14.8438 13.9755" stroke="black" stroke-width="0.01"/>
<path d="M13.7457 9.85875C13.6265 9.92958 13.2884 9.90705 13.4558 9.62695" stroke="black" stroke-width="0.01"/>
<path d="M13.7779 9.66809C13.5429 9.76145 13.2531 9.58116 13.5557 9.38477" stroke="black" stroke-width="0.01"/>
<path d="M13.475 9.32031C13.2786 9.32031 13.1466 9.63583 13.4107 9.74529" stroke="black" stroke-width="0.01"/>
<path d="M12.712 9.45289C12.6605 9.55269 12.844 9.66215 12.9696 9.56235C13.0669 9.48503 13.0597 9.27581 13.0018 9.19531" stroke="black" stroke-width="0.01"/>
<path d="M12.6125 9.69082C12.5481 9.9033 13.0214 9.91618 12.9473 9.57812" stroke="black" stroke-width="0.01"/>
<path d="M12.5869 10.0067C12.603 10.1677 13.0409 10.1161 12.8992 9.79095" stroke="black" stroke-width="0.01"/>
<path d="M12.9502 9.70117C12.9856 9.74946 13.0822 9.83317 13.2464 9.81707" stroke="black" stroke-width="0.01"/>
<path d="M13.0273 9.47266C13.0418 9.53061 13.14 9.57568 13.2656 9.53223" stroke="black" stroke-width="0.01"/>
<path d="M8.63434 14.3711C8.52328 14.45 8.69392 14.5739 8.75668 14.4371" stroke="black" stroke-width="0.01"/>
<path d="M8.54742 14.4316C8.43637 14.5105 8.607 14.6344 8.66977 14.4976" stroke="black" stroke-width="0.01"/>
<path d="M8.45565 14.4922C8.34455 14.5711 8.51519 14.695 8.57799 14.5582" stroke="black" stroke-width="0.01"/>
<path d="M8.35893 14.5469C8.25268 14.6032 8.37662 14.7416 8.48448 14.6193" stroke="black" stroke-width="0.01"/>
<path d="M8.25443 14.5995C8.14818 14.6557 8.27215 14.7942 8.38 14.6719" stroke="black" stroke-width="0.01"/>
<path d="M8.79396 14.4342C8.79233 14.5163 8.9485 14.5502 9.00482 14.4277" stroke="black" stroke-width="0.01"/>
<path d="M8.8919 14.5098C8.84361 14.5709 8.93216 14.6466 8.98045 14.6192" stroke="black" stroke-width="0.01"/>
<path d="M8.6847 14.4979C8.67986 14.5671 8.81507 14.6074 8.88109 14.5317" stroke="black" stroke-width="0.01"/>
<path d="M8.759 14.5705C8.71552 14.6268 8.80085 14.7025 8.85558 14.6799" stroke="black" stroke-width="0.01"/>
<path d="M8.59473 14.5607C8.59954 14.6154 8.67681 14.6782 8.76053 14.6428" stroke="black" stroke-width="0.01"/>
<path d="M8.64483 14.6347C8.61263 14.6637 8.62873 14.7313 8.6738 14.7523" stroke="black" stroke-width="0.01"/>
<path d="M8.47688 14.6309C8.46401 14.6808 8.54933 14.7694 8.63626 14.7114" stroke="black" stroke-width="0.01"/>
<path d="M8.49416 14.6875C8.44265 14.7278 8.44909 14.7889 8.51508 14.7969" stroke="black" stroke-width="0.01"/>
<path d="M8.37075 14.6815C8.36432 14.7152 8.40779 14.77 8.46253 14.7636" stroke="black" stroke-width="0.01"/>
<path d="M8.09558 14.6777C8.04407 14.7051 8.17607 14.8451 8.25815 14.7147" stroke="black" stroke-width="0.01"/>
<path d="M7.96813 14.7361C7.90374 14.7667 8.06311 14.9213 8.13396 14.7635" stroke="black" stroke-width="0.01"/>
<path d="M8.38473 14.7305C8.33481 14.7417 8.30262 14.8142 8.34447 14.8431" stroke="black" stroke-width="0.01"/>
<path d="M8.22215 14.7559C8.21571 14.7849 8.27688 14.8331 8.32681 14.8154" stroke="black" stroke-width="0.01"/>
<path d="M8.18067 14.7676C8.13238 14.7982 8.15813 14.8834 8.21449 14.8706" stroke="black" stroke-width="0.01"/>
<path d="M8.00878 14.8242C7.9637 14.858 7.99428 14.9256 8.05707 14.9096" stroke="black" stroke-width="0.01"/>
<path d="M8.09082 14.8203C8.09245 14.838 8.13268 14.8654 8.1665 14.8541" stroke="black" stroke-width="0.01"/>
<path d="M7.85212 14.7909C7.7958 14.8151 7.79902 14.9567 7.98897 14.8795" stroke="black" stroke-width="0.01"/>
<path d="M7.7252 14.8477C7.64631 14.8863 7.67207 14.9926 7.84433 14.8912" stroke="black" stroke-width="0.01"/>
<path d="M7.85874 14.8984C7.83782 14.9145 7.81529 14.9854 7.89415 14.9579" stroke="black" stroke-width="0.01"/>
<path d="M7.71394 14.9316C7.68175 14.9606 7.70269 15.0202 7.77352 14.9976" stroke="black" stroke-width="0.01"/>
<path d="M7.54784 14.9429C7.48989 14.9767 7.61704 15.0218 7.70238 14.9316" stroke="black" stroke-width="0.01"/>
<path d="M7.5872 14.9844C7.56144 15.0101 7.56144 15.0858 7.62905 15.0585" stroke="black" stroke-width="0.01"/>
<path d="M7.42217 15.0156C7.38353 15.0446 7.44953 15.0833 7.57027 15.0301" stroke="black" stroke-width="0.01"/>
<path d="M7.47098 15.0565C7.4259 15.0935 7.43072 15.1402 7.49673 15.1257" stroke="black" stroke-width="0.01"/>
<path d="M7.33664 15.0781C7.28675 15.1232 7.35918 15.1538 7.44611 15.1167" stroke="black" stroke-width="0.01"/>
<path d="M7.33874 15.127C7.25341 15.1655 7.29044 15.2364 7.34356 15.209" stroke="black" stroke-width="0.01"/>
<path d="M10.1882 15.3743C10.1684 15.4169 10.2333 15.4516 10.2944 15.4419C10.3532 15.4327 10.4094 15.3842 10.3653 15.3164" stroke="black" stroke-width="0.01"/>
<path d="M10.3682 15.4003C10.4261 15.4453 10.5291 15.3938 10.5291 15.3262" stroke="black" stroke-width="0.01"/>
<path d="M13.9199 8.57671C13.6623 8.44792 13.1279 8.20967 12.9766 8.40285C13.115 8.3449 13.5206 8.40607 13.8555 8.71515L13.9199 8.57671H13.9199Z" fill="white" stroke="black" stroke-width="0.01"/>
<path d="M14.0758 8.56225C13.7779 8.21531 13.6025 8.29297 13.3883 8.17347C13.1872 8.06119 12.8668 8.03825 12.8047 8.21681C13.0986 8.07366 13.3684 8.29379 13.5342 8.32042C13.7618 8.35698 13.8903 8.53298 13.9569 8.61392L14.0758 8.56225L14.0758 8.56225Z" fill="white" stroke="black" stroke-width="0.01"/>
<path d="M15.1981 8.51817C15.0435 8.16401 14.713 8.25651 14.567 8.10607C14.3546 7.88715 13.8169 7.68431 13.5947 7.83563C14.0841 7.80987 14.2925 8.17293 14.5541 8.29925C14.7409 8.3894 14.9405 8.58257 15.1981 8.51819V8.51817Z" fill="white" stroke="black" stroke-width="0.01"/>
<path d="M14.6191 8.4795C14.3551 8.1511 13.9494 7.86134 13.7627 7.9708C14.0074 7.98368 14.0846 8.15432 14.2585 8.26378C14.4324 8.37325 14.3551 8.531 14.6191 8.4795Z" fill="white" stroke="black" stroke-width="0.01"/>
<path d="M13.3629 9.05971C13.0859 8.95668 12.5451 8.90518 12.2939 9.22069C12.7125 9.29152 13.3435 9.25289 13.3629 9.05971Z" fill="white" stroke="black" stroke-width="0.01"/>
<path d="M13.3115 9.18181C13.0346 9.05303 12.8183 9.23291 12.5581 9.20756C12.0623 9.15927 11.7082 9.18825 11.6631 9.4265C11.9464 9.17216 12.4229 9.38143 12.6161 9.32992C12.8093 9.2784 13.524 9.32348 13.7493 9.42006C13.6334 9.2784 13.4532 9.23977 13.3115 9.18182V9.18181Z" fill="white" stroke="black" stroke-width="0.01"/>
<path d="M14.1803 8.44346C14.1159 8.23096 14.1191 8.0056 14.4378 8.0217C14.3573 7.92189 14.0612 7.87038 14.0128 8.24386C13.6619 7.9863 13.2788 7.94122 13.208 8.16338C13.3883 8.00883 13.6683 8.12152 14.0032 8.50144C14.0322 8.48534 14.1094 8.45314 14.1803 8.44349L14.1803 8.44346Z" fill="white" stroke="black" stroke-width="0.01"/>
<path d="M13.6979 8.73684C13.4983 8.60806 13.2278 8.39878 13.7012 8.31508C13.4983 8.20561 13.2021 8.2539 13.2343 8.62738C12.6934 8.40844 12.305 8.48233 12.2233 8.6982C12.1332 8.93646 12.4681 9.06846 12.526 8.91714C12.4648 8.9429 12.2556 8.87207 12.365 8.73684C12.4745 8.60163 13.0355 8.70313 13.5691 8.98154C13.7172 9.05881 14.2259 9.04593 13.6979 8.73684L13.6979 8.73684Z" fill="white" stroke="black" stroke-width="0.01"/>
<path d="M13.5564 9.09137C13.4024 8.77693 12.9029 9.0624 12.8022 8.75781C12.6646 9.20405 13.5126 8.95713 13.5564 9.09137Z" fill="white" stroke="black" stroke-width="0.01"/>
<path d="M16.7344 9.43236C16.8391 9.48441 16.9297 9.40259 16.7695 9.3384C16.8743 9.39043 16.9657 9.31055 16.8055 9.24635C16.9103 9.29837 17.0017 9.2185 16.8415 9.1543C16.7987 9.19733 16.7375 9.3551 16.7344 9.43236V9.43236Z" fill="white" stroke="black" stroke-width="0.01"/>
<path d="M16.7881 8.82762C17.0199 8.58294 16.7688 8.49922 17.0521 8.2481C17.2839 8.04264 17.0963 7.9057 17.3162 7.74584C17.387 7.69433 17.5415 7.59131 17.5544 7.48828C17.6478 7.72008 17.2646 7.75228 17.2903 8.12576C17.3068 8.36356 17.146 8.34278 17.0843 8.74392C17.0714 8.82763 17.0135 9.01436 16.7881 8.82763V8.82762Z" fill="white" stroke="black" stroke-width="0.01"/>
<path d="M16.8916 8.9362C17.0204 8.65932 17.1682 8.66464 17.2393 8.5563C17.3745 8.35024 17.661 8.59172 17.9025 8.4082C17.8607 8.66898 17.5355 8.57562 17.3939 8.74304C17.2522 8.91046 17.1363 8.98774 16.8916 8.93622V8.9362Z" fill="white" stroke="black" stroke-width="0.01"/>
<path d="M16.9243 9.02775C17.1498 8.84745 17.3158 8.96773 17.4717 8.87321C17.8644 8.63495 18.0223 8.9215 18.3732 8.80881C18.2798 9.03417 17.7614 8.84101 17.5361 9.00843C17.3107 9.17585 16.5187 9.33683 16.9243 9.02775V9.02775Z" fill="white" stroke="black" stroke-width="0.01"/>
<path d="M16.2667 10.3121C16.2635 10.2091 16.1669 10.0771 16.0316 10.061C15.8965 10.0449 15.8385 9.90325 15.7355 9.89682C15.6325 9.89038 15.5648 9.68432 15.4231 9.68754C15.2815 9.69076 15.2235 9.87427 15.5551 10.0417C15.8868 10.2091 16.2538 10.4023 16.2667 10.3122V10.3121Z" fill="white" stroke="black" stroke-width="0.01"/>
<path d="M15.8489 10.3984C15.7072 10.4049 15.6879 10.6109 15.5527 10.6174C15.7394 10.7172 15.8747 10.5723 15.9712 10.4435L15.8489 10.3984L15.8489 10.3984Z" fill="white" stroke="black" stroke-width="0.01"/>
<path d="M15.964 10.4238C15.8417 10.5269 15.8063 10.7426 15.9834 10.8037C15.8771 10.6572 16.1701 10.5912 16.0799 10.456L15.964 10.4238L15.964 10.4238Z" fill="white" stroke="black" stroke-width="0.01"/>
<path d="M16.0871 10.4314C15.9905 10.6182 16.2384 10.6407 16.174 10.7824C16.3157 10.7502 16.3382 10.4829 16.2094 10.4121L16.0871 10.4314L16.0871 10.4314Z" fill="white" stroke="black" stroke-width="0.01"/>
<path d="M15.1396 10.0312C15.3715 10.0184 15.5835 10.1438 15.7256 10.3468C15.8158 10.4755 16.1184 10.5271 16.2215 10.424C16.3245 10.321 16.2666 10.1021 16.009 10.1729C15.9446 10.0634 15.7578 10.1021 15.6677 10.0119C15.5776 9.92178 15.2298 9.66422 15.1396 10.0312V10.0312Z" fill="white" stroke="black" stroke-width="0.01"/>
<path d="M16.0091 10.1738C15.9479 10.1867 15.9286 10.293 15.9672 10.3477L16.0091 10.1738Z" fill="white"/>
<path d="M16.0091 10.1738C15.9479 10.1867 15.9286 10.293 15.9672 10.3477" stroke="black" stroke-width="0.01" stroke-linecap="round"/>
<path d="M16.1419 10.2383C16.1613 10.2705 16.1483 10.3155 16.1387 10.3381L16.1419 10.2383Z" fill="white"/>
<path d="M16.1419 10.2383C16.1613 10.2705 16.1483 10.3155 16.1387 10.3381" stroke="black" stroke-width="0.01" stroke-linecap="round"/>
<path d="M15.5068 10.041C15.6259 10.0475 15.6485 10.1344 15.7773 10.1666L15.5068 10.041Z" fill="white"/>
<path d="M15.5068 10.041C15.6259 10.0475 15.6485 10.1344 15.7773 10.1666" stroke="black" stroke-width="0.01" stroke-linecap="round"/>
<path d="M15.4282 9.74867C15.8396 9.85169 16.166 9.94184 16.3685 10.0577C16.5709 10.1737 16.8843 10.2058 17.1585 10.1286C17.4328 10.0513 17.9616 9.98048 17.9355 10.3218C18.0793 10.1511 17.8964 9.9676 17.5307 9.9354C17.5373 9.76798 17.3581 9.61666 17.2293 9.71646C17.3485 9.70036 17.4513 9.92252 17.2163 10.0127C17.262 9.84524 17.0955 9.69392 16.9224 9.76798C17.0334 9.80017 17.1457 9.98632 16.8974 10.0577C16.7406 10.1028 16.5121 10.0449 16.3424 9.94184C16.1726 9.8388 15.2193 9.46534 15.4282 9.74866L15.4282 9.74867Z" fill="white" stroke="black" stroke-width="0.01"/>
<path d="M16.4671 9.58047C16.3384 9.63842 16.422 9.77365 16.2224 9.85091C16.0228 9.92818 15.8844 10.1053 15.9294 10.2566C16.0647 9.96037 16.3029 9.97325 16.3866 9.85735C16.4704 9.74144 16.5927 9.57081 16.4671 9.58047Z" fill="white" stroke="black" stroke-width="0.01"/>
<path d="M16.5021 9.59941C16.4957 9.83443 16.3107 9.74882 16.3829 10.0791C16.4055 10.1822 16.4473 10.3496 16.3765 10.517C16.5842 10.3657 16.4506 10.0478 16.5439 9.92781C16.589 9.86986 16.6469 9.77971 16.6695 9.70245C16.6212 9.83767 16.6244 10.0888 16.7564 10.1532C16.6502 9.90205 17.043 9.69601 16.7725 9.40625C16.7339 9.47708 16.6115 9.60264 16.5021 9.59943L16.5021 9.59941Z" fill="white" stroke="black" stroke-width="0.01"/>
<path d="M15.8457 9.36493C15.878 9.41323 15.9101 9.53558 15.8811 9.60319C15.9455 9.56456 16.039 9.46475 16.0679 9.39713C16.1999 9.41645 16.2514 9.58065 16.1259 9.65147C16.2031 9.65147 16.3351 9.65147 16.4091 9.56455C16.319 9.46474 16.039 9.31019 15.8457 9.36493H15.8457Z" fill="white" stroke="black" stroke-width="0.01"/>
<path d="M13.843 8.90375C13.8222 8.88476 13.787 8.86671 13.724 8.85375C13.529 8.81378 13.6297 8.63807 13.7956 8.63963C14.1497 8.25329 14.3485 8.55111 14.78 8.42877C14.931 8.38597 15.0346 8.39862 15.1169 8.43421C15.31 8.30542 15.5366 8.34141 15.7009 8.49273C15.7191 8.4637 15.7436 8.44155 15.778 8.43199C15.9293 8.38998 16.0516 8.51895 16.0935 8.68637C16.2114 8.66453 16.346 8.72289 16.4346 8.80338C16.5573 8.74038 16.6418 8.73758 16.6729 8.80235C16.7824 8.75084 16.9242 8.71854 16.995 8.8924C17.0659 9.06625 16.8276 9.01474 16.789 9.38178C16.7651 9.6082 16.5121 9.6973 16.3125 9.56208C15.9931 9.34574 15.6815 9.31094 15.5269 9.63934C15.3724 9.96774 15.2513 10.1585 14.8765 10.0514C14.7414 10.0128 14.5675 10.0643 14.458 10.2124C14.3485 10.3605 14.1811 10.2221 13.9815 10.2382C14.2326 10.1995 14.1365 10.1364 14.355 10.1223C14.5546 10.1094 14.5031 9.92266 14.6319 9.89691C14.1296 10.0257 14.149 9.83895 13.7369 9.96773C13.9171 9.73593 14.2005 9.86471 14.3421 9.72949C13.9686 9.72305 13.8016 9.47905 13.6338 9.58139C13.3698 9.74237 13.4856 10.2007 12.7967 10.1609C12.4619 10.1416 12.2494 10.1867 12.0498 10.3863C12.3976 9.66511 12.8706 10.0613 13.0994 9.83253C13.2346 9.69731 13.3376 9.59427 13.4085 9.46549C13.4334 9.42016 13.4671 9.39425 13.5093 9.38423C12.9362 9.20393 13.2828 8.92307 13.8431 8.90377L13.843 8.90375Z" fill="white" stroke="black" stroke-width="0.01"/>
<path d="M16.6723 8.80273C16.681 8.82084 16.6855 8.84433 16.6855 8.87338C16.6855 9.01504 16.473 9.02148 16.4602 9.23076C16.4534 9.34023 16.4409 9.4014 16.3668 9.38852C16.2928 9.37564 16.2284 9.25974 16.2992 9.12452" fill="white"/>
<path d="M16.6723 8.80273C16.681 8.82084 16.6855 8.84433 16.6855 8.87338C16.6855 9.01504 16.473 9.02148 16.4602 9.23076C16.4534 9.34023 16.4409 9.4014 16.3668 9.38852C16.2928 9.37564 16.2284 9.25974 16.2992 9.12452" stroke="black" stroke-width="0.01" stroke-linecap="round"/>
<path d="M13.9484 8.69181C13.8951 8.65434 13.8418 8.63911 13.7939 8.63867L13.9484 8.69181Z" fill="white"/>
<path d="M13.9484 8.69181C13.8951 8.65434 13.8418 8.63911 13.7939 8.63867" stroke="black" stroke-width="0.01"/>
<path d="M15.1152 8.43359C15.2857 8.50741 15.3689 8.68451 15.6166 8.69319C15.855 8.70156 16.003 9.04735 16.4022 8.82197C16.413 8.81587 16.4236 8.81018 16.4338 8.80489" fill="white"/>
<path d="M15.1152 8.43359C15.2857 8.50741 15.3689 8.68451 15.6166 8.69319C15.855 8.70156 16.003 9.04735 16.4022 8.82197C16.413 8.81587 16.4236 8.81018 16.4338 8.80489" stroke="black" stroke-width="0.01"/>
<path d="M15.7008 8.49243C15.6652 8.54902 15.6572 8.628 15.6669 8.69731L15.7008 8.49243Z" fill="white"/>
<path d="M15.7008 8.49243C15.6652 8.54902 15.6572 8.628 15.6669 8.69731" stroke="black" stroke-width="0.01"/>
<path d="M14.9209 9.2207C14.6184 9.2207 14.541 9.37524 14.541 9.52334C14.541 9.67144 14.6827 9.86462 14.9339 9.86462C15.1849 9.86462 15.3202 9.71009 15.3202 9.54266C15.3202 9.37524 15.1656 9.2207 14.9209 9.2207Z" fill="white" stroke="black" stroke-width="0.01"/>
<path d="M14.9758 9.85812C14.9693 9.77441 14.818 9.78729 14.8244 9.72289C14.8308 9.6585 14.9082 9.63274 14.9082 9.5426C14.9082 9.45245 15.0433 9.44601 15.0884 9.51684C15.1335 9.58767 15.2688 9.7261 15.2978 9.65529" fill="white"/>
<path d="M14.9758 9.85812C14.9693 9.77441 14.818 9.78729 14.8244 9.72289C14.8308 9.6585 14.9082 9.63274 14.9082 9.5426C14.9082 9.45245 15.0433 9.44601 15.0884 9.51684C15.1335 9.58767 15.2688 9.7261 15.2978 9.65529" stroke="black" stroke-width="0.01"/>
<path d="M15.0889 9.51758C15.018 9.5884 14.9859 9.73328 15.0792 9.84598L15.0889 9.51758Z" fill="white"/>
<path d="M15.0889 9.51758C15.018 9.5884 14.9859 9.73328 15.0792 9.84598" stroke="black" stroke-width="0.01"/>
<path d="M15.1849 9.62695C15.1624 9.67525 15.156 9.7493 15.1817 9.79437L15.1849 9.62695Z" fill="white"/>
<path d="M15.1849 9.62695C15.1624 9.67525 15.156 9.7493 15.1817 9.79437" stroke="black" stroke-width="0.01"/>
<path d="M16.3877 9.39037C16.6244 9.40969 16.6646 9.14889 16.4875 9.13281" stroke="black" stroke-width="0.01"/>
<path d="M16.0969 8.68564C16.0148 8.58101 15.8265 8.5456 15.8232 8.76775" stroke="black" stroke-width="0.01"/>
<path d="M15.8005 9.02051C15.72 8.82089 15.5139 8.79191 15.4044 8.89172C15.3133 8.97479 15.3111 9.19114 15.5075 9.23622C15.5751 9.15574 15.7071 9.04949 15.8005 9.02052L15.8005 9.02051Z" fill="white" stroke="black" stroke-width="0.01"/>
<path d="M15.7113 8.89582C15.5954 8.79279 15.4247 8.98759 15.5793 9.16626L15.7113 8.89582Z" fill="white"/>
<path d="M15.7113 8.89582C15.5954 8.79279 15.4247 8.98759 15.5793 9.16626" stroke="black" stroke-width="0.01"/>
<path d="M13.5064 9.38275C13.584 9.36433 13.6974 9.4023 13.8714 9.4841C13.9809 9.53561 14.3093 9.64508 14.5153 9.53561C14.3028 9.61288 14.1419 9.29091 13.9809 9.32955C13.8199 9.36819 13.5253 9.42774 13.4014 9.31023C13.7039 9.32955 13.8667 9.08981 14.2126 9.29735C14.3093 9.3553 14.4316 9.39394 14.541 9.3875C14.2578 9.04622 13.8843 9.26515 13.8456 8.98828C14.0163 9.1718 14.4332 8.94642 14.6457 9.29092" fill="white"/>
<path d="M13.5064 9.38275C13.584 9.36433 13.6974 9.4023 13.8714 9.4841C13.9809 9.53561 14.3093 9.64508 14.5153 9.53561C14.3028 9.61288 14.1419 9.29091 13.9809 9.32955C13.8199 9.36819 13.5253 9.42774 13.4014 9.31023C13.7039 9.32955 13.8667 9.08981 14.2126 9.29735C14.3093 9.3553 14.4316 9.39394 14.541 9.3875C14.2578 9.04622 13.8843 9.26515 13.8456 8.98828C14.0163 9.1718 14.4332 8.94642 14.6457 9.29092" stroke="black" stroke-width="0.01"/>
<path d="M13.9074 9.04045C13.8675 8.99087 13.8855 8.94144 13.8428 8.90234L13.9074 9.04045Z" fill="white"/>
<path d="M13.9074 9.04045C13.8675 8.99087 13.8855 8.94144 13.8428 8.90234" stroke="black" stroke-width="0.01"/>
<path d="M16.0957 8.68507C16.0249 8.60942 15.8704 8.66897 15.9138 8.82192C15.9477 8.75109 16.0201 8.69152 16.0957 8.68507Z" fill="black"/>
<path d="M15.6586 9.09804C15.7073 9.06265 15.7577 9.03358 15.8001 9.02041C15.7769 8.96312 15.7435 8.91988 15.7049 8.88972C15.6681 8.86427 15.5622 9.0066 15.6586 9.09804V9.09804Z" fill="black"/>
<path d="M15.4675 8.8378C15.3515 8.76054 15.2453 8.76698 15.2099 8.83137C15.1262 8.82814 15.057 8.88932 15.0537 9.01166" stroke="black" stroke-width="0.01" stroke-linecap="round"/>
<path d="M15.2331 9.06175C15.0947 8.96678 14.9047 9.0022 14.9176 9.21469" stroke="black" stroke-width="0.01" stroke-linecap="round"/>
<path d="M14.834 9.3354C14.9016 9.28067 14.9982 9.24203 15.0722 9.33862" stroke="black" stroke-width="0.01" stroke-linecap="round"/>
<path d="M15.8669 9.12701C15.8412 9.16242 15.8218 9.21716 15.8637 9.30087C15.8122 9.23326 15.6834 9.23326 15.5449 9.41355" stroke="black" stroke-width="0.01" stroke-linecap="round"/>
<path d="M16.1731 9.1174C16.0057 9.13672 16.0089 9.24618 16.1441 9.29448" stroke="black" stroke-width="0.01" stroke-linecap="round"/>
<path d="M14.9821 8.70923C14.8405 8.68025 14.7375 8.76396 14.9339 8.83479" stroke="black" stroke-width="0.01" stroke-linecap="round"/>
<path d="M15.2521 8.61144C15.0525 8.56315 14.972 8.61466 15.0621 8.65973" stroke="black" stroke-width="0.01" stroke-linecap="round"/>
<path d="M14.6755 9.41428C14.6691 9.48511 14.7076 9.57848 14.8236 9.47223" stroke="black" stroke-width="0.01" stroke-linecap="round"/>
<path d="M14.7144 9.62521C14.7144 9.64453 14.7112 9.66706 14.6982 9.68316" stroke="black" stroke-width="0.01" stroke-linecap="round"/>
<path d="M14.2512 8.68221C14.1289 8.64679 14.1064 8.53411 14.248 8.54377" stroke="black" stroke-width="0.01" stroke-linecap="round"/>
<path d="M14.2089 8.94264C14.0737 8.89756 14.0737 8.76556 14.1864 8.77844" stroke="black" stroke-width="0.01" stroke-linecap="round"/>
<path d="M14.4602 8.8758C14.3025 8.83716 14.2961 8.72769 14.4152 8.74379" stroke="black" stroke-width="0.01" stroke-linecap="round"/>
<path d="M14.4795 8.54155C14.3958 8.53511 14.267 8.62848 14.4827 8.68321" stroke="black" stroke-width="0.01" stroke-linecap="round"/>
<path d="M14.7141 8.72704C14.5177 8.69806 14.5209 8.77855 14.6367 8.83007" stroke="black" stroke-width="0.01" stroke-linecap="round"/>
<path d="M14.8625 8.54101C14.7112 8.51204 14.6597 8.60219 14.7627 8.64082" stroke="black" stroke-width="0.01" stroke-linecap="round"/>
<path d="M14.3859 9.09885C14.3488 9.06827 14.3183 8.92176 14.4953 8.96525" stroke="black" stroke-width="0.01" stroke-linecap="round"/>
<path d="M14.7527 9.05262C14.6336 9.02042 14.5209 9.13633 14.6304 9.20394" stroke="black" stroke-width="0.01" stroke-linecap="round"/>
<path d="M14.9108 8.9154C14.7853 8.89286 14.679 8.92827 14.7466 8.97335" stroke="black" stroke-width="0.01" stroke-linecap="round"/>
<path d="M16.0893 8.68555C16.0186 8.69866 15.9551 8.74023 15.9141 8.82234L16.0893 8.68555Z" fill="white"/>
<path d="M16.0893 8.68555C16.0186 8.69866 15.9551 8.74023 15.9141 8.82234" stroke="black" stroke-width="0.01"/>
<path d="M20 6L20 18L4 18L4 6L20 6ZM20 5L4 5C3.4 5 3 5.4 3 6L3 18C3 18.6 3.4 19 4 19L20 19C20.6 19 21 18.6 21 18L21 6C21 5.4 20.6 5 20 5Z" fill="#B5B5B5"/>
</svg>
