<svg width="24" height="24" viewBox="0 0 24 24" fill="none" xmlns="http://www.w3.org/2000/svg">
<path d="M20 6H4V18H20V6Z" fill="#002395"/>
<path d="M6 6H18V18L6 6Z" fill="#FECB00"/>
<path d="M4.53034 9.4529L5.20042 7.39062L5.87049 9.4529L4.11621 8.17835H6.28462L4.53034 9.4529Z" fill="white"/>
<path d="M20 6L20 18L4 18L4 6L20 6ZM20 5L4 5C3.4 5 3 5.4 3 6L3 18C3 18.6 3.4 19 4 19L20 19C20.6 19 21 18.6 21 18L21 6C21 5.4 20.6 5 20 5Z" fill="none"/>
<path d="M20 6H4V18H20V6Z" fill="#000099"/>
<path fill-rule="evenodd" clip-rule="evenodd" d="M8 6L18 18V6H8Z" fill="#FFCC00"/>
<path fill-rule="evenodd" clip-rule="evenodd" d="M6.41424 5.93762L6.62754 6.59405H7.31774L6.75934 6.99975L6.97264 7.65619L6.41424 7.25049L5.85584 7.65619L6.06914 6.99975L5.51074 6.59405H6.20094L6.41424 5.93762Z" fill="white"/>
<path fill-rule="evenodd" clip-rule="evenodd" d="M7.66424 7.18762L7.87754 7.84405H8.56774L8.00934 8.24975L8.22264 8.90619L7.66424 8.50049L7.10584 8.90619L7.31914 8.24975L6.76074 7.84405H7.45094L7.66424 7.18762Z" fill="white"/>
<path fill-rule="evenodd" clip-rule="evenodd" d="M8.91424 8.43762L9.12754 9.09405H9.81774L9.25934 9.49975L9.47264 10.1562L8.91424 9.75049L8.35584 10.1562L8.56914 9.49975L8.01074 9.09405H8.70094L8.91424 8.43762Z" fill="white"/>
<path fill-rule="evenodd" clip-rule="evenodd" d="M10.1642 9.68762L10.3775 10.3441H11.0677L10.5093 10.7498L10.7226 11.4062L10.1642 11.0005L9.60584 11.4062L9.81914 10.7498L9.26074 10.3441H9.95094L10.1642 9.68762Z" fill="white"/>
<path fill-rule="evenodd" clip-rule="evenodd" d="M11.4142 10.9376L11.6275 11.5941H12.3177L11.7593 11.9998L11.9726 12.6562L11.4142 12.2505L10.8558 12.6562L11.0691 11.9998L10.5107 11.5941H11.2009L11.4142 10.9376Z" fill="white"/>
<path fill-rule="evenodd" clip-rule="evenodd" d="M12.6642 12.1876L12.8775 12.8441H13.5677L13.0093 13.2498L13.2226 13.9062L12.6642 13.5005L12.1058 13.9062L12.3191 13.2498L11.7607 12.8441H12.4509L12.6642 12.1876Z" fill="white"/>
<path fill-rule="evenodd" clip-rule="evenodd" d="M13.9142 13.4376L14.1275 14.0941H14.8177L14.2593 14.4998L14.4726 15.1562L13.9142 14.7505L13.3558 15.1562L13.5691 14.4998L13.0107 14.0941H13.7009L13.9142 13.4376Z" fill="white"/>
<path fill-rule="evenodd" clip-rule="evenodd" d="M14.9035 14.6876L15.1168 15.3441H15.807L15.2486 15.7498L15.4619 16.4062L14.9035 16.0005L14.3451 16.4062L14.5584 15.7498L14 15.3441H14.6902L14.9035 14.6876Z" fill="white"/>
<path fill-rule="evenodd" clip-rule="evenodd" d="M15.9035 15.9376L16.1168 16.5941H16.807L16.2486 16.9998L16.4619 17.6562L15.9035 17.2505L15.3451 17.6562L15.5584 16.9998L15 16.5941H15.6902L15.9035 15.9376Z" fill="white"/>
</svg>
