<svg width="24" height="24" viewBox="0 0 24 24" fill="none" xmlns="http://www.w3.org/2000/svg">
<path d="M20 6H4V14H20V6Z" fill="#00247D"/>
<path d="M4 6L12 10.5L4 6ZM12 6L4 10.5L12 6Z" fill="black"/>
<path d="M4 6L12 10.5M12 6L4 10.5" stroke="white" stroke-width="1.4"/>
<path d="M4 6L12 10.5L4 6ZM12 6L4 10.5L12 6Z" fill="black"/>
<path d="M4 6L12 10.5M12 6L4 10.5" stroke="#CF142B"/>
<path d="M8 6V11V6ZM4 8.14286H12H4Z" fill="black"/>
<path d="M8 6V11M4 8.14286H12" stroke="white" stroke-width="1.5"/>
<path d="M8 6.00079V11.0008V6.00079ZM4 8.20001H8.44444L12 8.23359" fill="black"/>
<path d="M8 6.00079V11.0008M4 8.20001H8.44444L12 8.23359" stroke="#CF142B" stroke-width="0.7"/>
<path d="M4 12H12V6H20V18H4V12Z" fill="#00247D"/>
<path d="M14.4136 10.9225L17.7523 10.9102L17.7461 13.8834C17.7461 13.8834 17.8638 14.3356 16.3462 15.0231C16.8913 14.9674 17.486 14.3851 17.486 14.3851C17.486 14.3851 17.7276 14.0754 17.8452 14.2488C17.9629 14.4223 18.0744 14.509 18.1611 14.5771C18.2479 14.6453 18.316 14.8311 18.1859 14.9674C18.0558 15.1036 17.8514 15.1222 17.7957 14.955C17.709 14.9983 17.1763 15.6425 16.0861 15.6735C14.9773 15.6549 14.3703 14.9488 14.3703 14.9488C14.3703 14.9488 14.2216 15.1842 14.011 14.9983C13.8066 14.7568 13.9615 14.6019 13.9615 14.6019C13.9615 14.6019 14.1349 14.5028 14.1845 14.4347C14.265 14.3418 14.2898 14.2179 14.426 14.2179C14.5871 14.2303 14.649 14.3603 14.649 14.3603C14.649 14.3603 15.2065 14.9488 15.8073 15.0231C14.4509 14.3727 14.4013 13.9701 14.4075 13.8709L14.4137 10.9225L14.4136 10.9225Z" fill="white"/>
<path d="M14.4938 11.0046L17.6777 10.986V13.8478C17.6839 14.2194 17.0582 14.5973 16.0796 15.0804C15.0699 14.5601 14.4876 14.2442 14.4814 13.8416L14.4938 11.0046L14.4938 11.0046Z" fill="#006129" stroke="black" stroke-width="0.05"/>
<path d="M14.9268 11.4273L15.1147 11.1512L15.3035 11.4278" stroke="#F7C600" stroke-width="0.05"/>
<path d="M15.1528 11.3225C15.1528 11.3431 15.1361 11.3598 15.1154 11.3598C15.0948 11.3598 15.0781 11.3431 15.0781 11.3225C15.0781 11.3019 15.0948 11.2852 15.1154 11.2852C15.1361 11.2852 15.1528 11.3019 15.1528 11.3225Z" fill="#F7C600" stroke="black" stroke-width="0.05"/>
<path d="M14.9625 11.6315L15.2538 11.6324C15.2538 11.6324 15.2584 11.5946 15.2234 11.5716C15.376 11.5506 15.3363 11.416 15.4642 11.4084C15.489 11.4122 15.3974 11.4656 15.3974 11.4656C15.3974 11.4656 15.3203 11.52 15.3554 11.5476C15.3833 11.5696 15.3955 11.5343 15.3993 11.5076C15.4031 11.4808 15.5233 11.4637 15.5061 11.3874C15.4775 11.3244 15.3096 11.4293 15.3096 11.4293L15.1899 11.4287C15.1824 11.4152 15.1494 11.3613 15.1153 11.3611C15.0749 11.3626 15.0464 11.4293 15.0464 11.4293H14.8728H14.7755C14.7755 11.4293 14.7662 11.4988 14.9036 11.5122C14.9345 11.5526 14.9585 11.5639 14.9854 11.5743C14.9674 11.5893 14.9624 11.6073 14.9625 11.6315V11.6315Z" fill="#F7C600" stroke="black" stroke-width="0.05"/>
<path d="M14.9834 11.5717L15.2261 11.5709L14.9834 11.5717Z" fill="#F7C600"/>
<path d="M14.9834 11.5717L15.2261 11.5709" stroke="black" stroke-width="0.05"/>
<path d="M14.8721 11.428C14.8721 11.428 14.8915 11.5415 14.9811 11.5684L14.8721 11.428Z" fill="#F7C600"/>
<path d="M14.8721 11.428C14.8721 11.428 14.8915 11.5415 14.9811 11.5684" stroke="black" stroke-width="0.05"/>
<path d="M14.857 11.4275C14.8659 11.3842 14.8823 11.3768 14.9003 11.3215C14.9033 11.2677 14.857 11.2737 14.8704 11.2394C14.8943 11.202 14.8823 11.1662 14.8375 11.1378C14.8465 11.1871 14.7793 11.2334 14.7793 11.2737C14.7793 11.314 14.8136 11.3051 14.8092 11.3663C14.8122 11.4022 14.8002 11.3932 14.7972 11.4275H14.857V11.4275Z" fill="url(#paint0_linear_14099_114166)" stroke="black" stroke-width="0.05"/>
<path d="M15.1497 11.1588C15.1497 11.1778 15.1344 11.1931 15.1154 11.1931C15.0964 11.1931 15.081 11.1778 15.0811 11.1588C15.081 11.1398 15.0964 11.1245 15.1154 11.1245C15.1344 11.1245 15.1497 11.1398 15.1497 11.1588Z" fill="#F7C600" stroke="black" stroke-width="0.05"/>
<path d="M16.275 14.4199C16.275 14.4199 16.351 14.5952 16.4376 14.4874C16.5242 14.3797 16.4925 14.3333 16.4925 14.3333L16.2982 14.2277L16.2412 14.348L16.275 14.4199V14.4199Z" fill="#F7C600" stroke="black" stroke-width="0.05"/>
<path d="M16.4418 14.3958C16.4418 14.3958 16.4545 14.3979 16.4651 14.3789C16.4756 14.3599 16.4418 14.3514 16.4271 14.3303L16.4102 14.3641L16.4418 14.3958Z" fill="#FFC6B5" stroke="black" stroke-width="0.05"/>
<path d="M16.003 14.3519L15.8319 14.4448C15.8319 14.4448 15.7475 14.4617 15.7411 14.4448C15.7348 14.4279 15.7432 14.4131 15.7876 14.411C15.8319 14.4089 15.9523 14.2991 15.9523 14.2991L16.003 14.3519H16.003Z" fill="#FFC6B5" stroke="black" stroke-width="0.05"/>
<path d="M16.0047 11.3124C16.0047 11.3124 16.0089 11.3525 16.011 11.3736C16.0131 11.3947 15.9772 11.4391 15.9751 11.437C15.973 11.4349 15.9561 11.4391 15.9582 11.4518C15.9603 11.4644 15.9856 11.4687 15.9856 11.4687C15.9856 11.4687 15.9751 11.513 15.9856 11.5151C15.9962 11.5172 15.9582 11.5722 15.9856 11.5869C16.0131 11.6017 16.0596 11.6207 16.0807 11.6165C16.1018 11.6123 16.0807 11.6989 16.0807 11.6989L16.0216 11.8256L16.3468 11.7918L16.2792 11.6841C16.2792 11.6841 16.2475 11.663 16.256 11.6017C16.2644 11.5405 16.2518 11.2638 16.2518 11.2638L16.0194 11.2321L16.0047 11.3124V11.3124Z" fill="#FFC6B5" stroke="black" stroke-width="0.05"/>
<path d="M15.9456 11.7946C15.9456 11.7946 15.84 11.8432 15.8443 11.9741C15.8168 12.1009 15.802 12.2276 15.802 12.2276C15.802 12.2276 15.6774 12.3691 15.6394 12.4198C15.6014 12.4705 15.5444 12.5739 15.5232 12.6014C15.5021 12.6289 15.4197 12.7197 15.4219 12.7535C15.424 12.7873 15.4028 12.9372 15.4852 12.9541C15.5063 12.9626 15.5739 12.7809 15.5739 12.7809C15.5739 12.7809 15.5781 12.7028 15.5549 12.688C15.5317 12.6732 15.6056 12.6225 15.6056 12.6225C15.6056 12.6225 15.7471 12.519 15.7788 12.4937C15.8105 12.4683 15.8971 12.3712 15.8971 12.3712L15.9456 11.7946V11.7946Z" fill="#FFC6B5" stroke="black" stroke-width="0.05"/>
<path d="M16.0658 11.6917C16.0658 11.6917 16.0933 11.7656 16.1545 11.753C16.2158 11.7403 16.2876 11.6833 16.2876 11.6833C16.2876 11.6833 16.3446 11.6812 16.353 11.6896C16.3615 11.6981 16.5072 11.8396 16.503 11.8839C16.4988 11.9283 16.4354 11.9156 16.4122 11.9452C16.3889 11.9747 16.3509 12.0487 16.3615 12.1036C16.372 12.1585 16.4037 12.2303 16.3995 12.2577C16.3953 12.2852 16.372 12.2936 16.372 12.3084C16.372 12.3232 16.3911 12.3486 16.3911 12.376C16.3911 12.4035 16.3657 12.4436 16.3699 12.4711C16.3742 12.4985 16.3763 12.5788 16.3763 12.5788L16.3699 12.9505C16.3699 12.9505 16.3911 12.9632 16.3932 12.9843C16.3953 13.0054 16.5368 13.62 16.5368 13.62C16.5368 13.62 16.5304 13.639 16.5157 13.6369C16.5009 13.6348 16.5727 13.7319 16.5748 13.7594C16.5769 13.7868 16.6487 14.0023 16.6466 14.0318C16.6445 14.0614 16.6339 14.1269 16.6276 14.129C16.6213 14.1311 16.6741 14.2642 16.6656 14.2853C16.6572 14.3064 16.5706 14.3043 16.5706 14.3043L16.5473 14.3001C16.5473 14.3001 16.5495 14.3275 16.5326 14.3296C16.5157 14.3317 16.3911 14.3233 16.3911 14.3233C16.3911 14.3233 16.3551 14.3782 16.334 14.3761C16.3129 14.374 16.2855 14.336 16.2791 14.3423C16.2728 14.3486 16.2981 14.3845 16.2918 14.3951C16.2855 14.4057 16.1777 14.4289 16.1566 14.3782C16.1355 14.3275 16.1693 14.3402 16.163 14.3296C16.1566 14.3191 16.108 14.2916 16.0933 14.3001C16.0785 14.3085 16.1313 14.3212 16.1292 14.3423C16.1271 14.3634 16.0827 14.3951 16.0658 14.3951C16.0489 14.3951 16.0088 14.3169 15.9496 14.3254C15.8905 14.3338 15.8525 14.3486 15.8525 14.3486C15.8525 14.3486 15.7828 14.3782 15.7532 14.3719C15.7237 14.3655 15.711 14.3423 15.711 14.3296C15.711 14.3169 15.7321 14.262 15.73 14.2451C15.7279 14.2282 15.711 14.2113 15.711 14.186C15.711 14.1607 15.7596 14.0741 15.7596 14.0741L15.7574 13.6855C15.7574 13.6855 15.7131 13.6855 15.711 13.658C15.7089 13.6305 15.7786 13.0434 15.7891 13.0054C15.7997 12.9674 15.8271 12.8322 15.8271 12.8322C15.8271 12.8322 15.7955 12.847 15.7934 12.8322C15.7912 12.8174 15.8884 12.4816 15.8884 12.4816C15.8884 12.4816 15.9053 12.3148 15.9053 12.2704C15.9053 12.2261 15.8968 12.1648 15.8968 12.1648C15.8968 12.1648 15.8101 12.1281 15.8081 12.0719C15.8002 11.9824 15.8905 11.9325 15.9011 11.9029C15.9116 11.8734 15.9433 11.7847 15.9433 11.7847C15.9433 11.7847 15.9898 11.7044 16.0658 11.6917L16.0658 11.6917Z" fill="white" stroke="black" stroke-width="0.05"/>
<path d="M16.0339 14.3775C16.0339 14.3775 15.829 14.4853 15.7995 14.4937C15.7699 14.5021 15.7509 14.4578 15.7805 14.4493C15.81 14.4409 15.8565 14.4367 15.8565 14.4367C15.8565 14.4367 15.7868 14.3818 15.7889 14.3797C15.791 14.3775 15.8839 14.3438 15.8861 14.3438C15.8882 14.3438 15.9156 14.3987 15.9346 14.3944C15.9536 14.3902 16.0085 14.348 16.0085 14.348C16.0085 14.348 16.0381 14.3818 16.0339 14.3775Z" fill="#F7C600" stroke="black" stroke-width="0.05"/>
<path d="M16.3232 14.4357C16.3426 14.4606 16.3502 14.504 16.3945 14.4786C16.4389 14.4533 16.3718 14.4062 16.3718 14.4062L16.3232 14.4357Z" fill="#FFC6B5" stroke="black" stroke-width="0.05"/>
<path d="M16.4043 14.4318C16.4043 14.4318 16.4254 14.4487 16.4444 14.4297C16.4634 14.4107 16.4064 14.3705 16.4064 14.3705L16.3789 14.4022L16.4043 14.4318Z" fill="#FFC6B5" stroke="black" stroke-width="0.05"/>
<path d="M16.4951 11.8973C16.4972 11.8973 16.5648 12.1064 16.5732 12.1592C16.5817 12.212 16.6091 12.4232 16.5986 12.4528C16.588 12.4824 16.4803 12.6239 16.4676 12.6598C16.455 12.6957 16.3789 12.833 16.3789 12.833C16.3789 12.833 16.3599 12.9681 16.3515 12.9745C16.343 12.9808 16.3733 13.014 16.3705 13.0252C16.3663 13.0377 16.3092 13.097 16.2839 13.0906C16.2586 13.0843 16.2184 13.0547 16.2163 13.0273C16.2142 12.9998 16.2184 12.909 16.2374 12.8858C16.2564 12.8625 16.3557 12.6281 16.362 12.6133C16.3684 12.5985 16.4529 12.4148 16.455 12.3831C16.4571 12.3514 16.4287 12.2782 16.3988 12.2513C16.3323 12.0556 16.3585 11.9377 16.4951 11.8973V11.8973Z" fill="#FFC6B5" stroke="black" stroke-width="0.05"/>
<path d="M15.9985 11.2989C15.9985 11.2989 16.045 11.3053 16.0703 11.2905C16.0957 11.2757 16.1252 11.2694 16.1464 11.2989C16.1675 11.3285 16.1823 11.3264 16.1823 11.3264C16.1823 11.3264 16.1506 11.4045 16.1823 11.413C16.2139 11.4214 16.2287 11.4214 16.2308 11.432C16.233 11.4426 16.2034 11.4658 16.2118 11.4764C16.2203 11.4869 16.2351 11.4996 16.2372 11.508C16.2393 11.5165 16.2182 11.5524 16.2245 11.5608C16.2308 11.5693 16.2499 11.6031 16.2625 11.6031C16.2752 11.6031 16.2667 11.6559 16.3048 11.6432C16.3428 11.6305 16.3407 11.5967 16.3407 11.5967C16.3407 11.5967 16.3808 11.5904 16.3914 11.5545C16.4019 11.5186 16.4273 11.5101 16.4273 11.5101C16.4273 11.5101 16.4779 11.4827 16.4104 11.4405C16.4104 11.1448 16.2161 11.1764 16.2161 11.1764C16.2161 11.1764 16.1928 11.1236 16.1548 11.13C16.1168 11.1363 16.1147 11.1807 16.0872 11.1764C16.0598 11.1722 16.0534 11.1532 16.0513 11.1553C16.0492 11.1574 16.026 11.1997 16.026 11.2102C16.026 11.2208 15.9521 11.1955 15.9584 11.2504C15.9647 11.3053 16.0006 11.3032 15.9985 11.2989L15.9985 11.2989Z" fill="#9C5100" stroke="black" stroke-width="0.05"/>
<path d="M16.3401 11.7779C16.3401 11.7779 16.1521 11.8983 16.1563 11.9405" stroke="black" stroke-width="0.05"/>
<path d="M16.3822 11.8002C16.3822 11.8002 16.34 11.8466 16.3379 11.8466" stroke="black" stroke-width="0.05"/>
<path d="M16.4391 11.8493C16.4391 11.8493 16.3462 11.9253 16.361 11.9739" stroke="black" stroke-width="0.05"/>
<path d="M16.0006 11.7689C16.0006 11.7689 15.9731 11.8259 15.9795 11.845C15.9858 11.864 16.0323 11.9358 16.0386 11.9801C16.0449 12.0245 16.0386 12.0562 16.0386 12.0562" stroke="black" stroke-width="0.05"/>
<path d="M15.9521 11.8716C15.9521 11.8716 15.9606 11.9392 15.9733 11.9519C15.9859 11.9646 16.0197 12.0216 16.024 12.0448" stroke="black" stroke-width="0.05"/>
<path d="M15.9346 12.1551C15.9346 12.1551 15.9895 12.1826 16.0402 12.077" stroke="black" stroke-width="0.05"/>
<path d="M16.1229 12.0011C16.1208 12.0011 16.0828 12.1046 16.1504 12.1426C16.2179 12.1806 16.2686 12.1764 16.2982 12.1658C16.3278 12.1553 16.3594 12.1363 16.3594 12.1363" stroke="black" stroke-width="0.05"/>
<path d="M16.0938 12.1306C16.0938 12.1306 16.098 12.2699 16.3028 12.4072" stroke="black" stroke-width="0.05"/>
<path d="M16.1016 12.26C16.1016 12.26 16.0995 12.3825 16.1797 12.4374" stroke="black" stroke-width="0.05"/>
<path d="M16.059 12.1171C16.059 12.1171 15.9978 12.2988 15.9492 12.3178" stroke="black" stroke-width="0.05"/>
<path d="M16.0405 12.2511C16.0405 12.2511 16.0384 12.382 16.0215 12.4285" stroke="black" stroke-width="0.05"/>
<path d="M16.0049 12.4594C16.0049 12.4594 16.0471 12.5122 16.0936 12.508C16.1401 12.5038 16.1591 12.4489 16.1907 12.4573C16.2224 12.4658 16.252 12.4911 16.3259 12.4848" stroke="black" stroke-width="0.05"/>
<path d="M16.2197 12.5368C16.2197 12.5368 16.2197 12.6445 16.2387 12.6551C16.2577 12.6656 16.2493 12.7649 16.2493 12.7649" stroke="black" stroke-width="0.05"/>
<path d="M15.9621 12.4877C15.9621 12.4877 15.96 12.589 15.9473 12.625C15.9347 12.6609 15.9093 12.7221 15.9136 12.7749" stroke="black" stroke-width="0.05"/>
<path d="M15.834 12.8361C15.8445 12.8318 15.8804 12.8002 15.8804 12.8002" stroke="black" stroke-width="0.05"/>
<path d="M15.899 12.8225C15.899 12.8225 15.8082 13.2111 15.8336 13.4434" stroke="black" stroke-width="0.05"/>
<path d="M15.9205 12.8404C15.9205 12.8404 15.874 13.1319 15.8952 13.1868" stroke="black" stroke-width="0.05"/>
<path d="M15.8965 12.8314C15.8986 12.8314 16.0739 12.8441 16.0739 12.8441" stroke="black" stroke-width="0.05"/>
<path d="M16.0996 12.8225C16.0996 12.8225 16.1482 12.8479 16.2158 12.8436" stroke="black" stroke-width="0.05"/>
<path d="M16.0787 12.9609C16.0787 12.9609 16.0703 13.4593 16.0576 13.5691" stroke="black" stroke-width="0.05"/>
<path d="M16.3379 13.077C16.3379 13.077 16.3928 13.5142 16.4245 13.5543" stroke="black" stroke-width="0.05"/>
<path d="M16.2324 13.1306C16.2324 13.1306 16.2662 13.5171 16.2852 13.5508" stroke="black" stroke-width="0.05"/>
<path d="M15.7529 13.6849C15.7529 13.6849 15.8184 13.6638 15.8775 13.6004C15.9451 13.6912 16.0486 13.6047 16.0486 13.6047C16.0486 13.6047 16.2091 13.7145 16.2809 13.592C16.3908 13.6638 16.4457 13.5814 16.4457 13.5814C16.4457 13.5814 16.4858 13.6427 16.5154 13.6363" stroke="black" stroke-width="0.05"/>
<path d="M16.3398 13.6796C16.3398 13.6796 16.4222 14.0661 16.5447 14.1759" stroke="black" stroke-width="0.05"/>
<path d="M15.916 13.6395C15.916 13.6395 15.9266 13.9626 15.9456 14.1907" stroke="black" stroke-width="0.05"/>
<path d="M15.9012 14.0056C15.9012 14.0056 15.8906 14.2168 15.8779 14.2315" stroke="black" stroke-width="0.05"/>
<path d="M15.7764 14.253C15.7764 14.253 15.7996 14.3438 15.9158 14.2593C16.0319 14.1748 16.034 14.291 16.0383 14.3037C16.0425 14.3163 16.0615 14.4072 16.1058 14.3311" stroke="black" stroke-width="0.05"/>
<path d="M16.1989 14.2069C16.1989 14.2069 16.1799 14.3949 16.3467 14.2576C16.5136 14.1203 16.541 14.2555 16.5453 14.2977" stroke="black" stroke-width="0.05"/>
<path d="M16.201 11.2288C16.201 11.2288 16.1862 11.3217 16.2855 11.3132C16.2728 11.3639 16.3108 11.3808 16.3108 11.3808" stroke="black" stroke-width="0.05"/>
<path d="M16.3849 11.4386C16.387 11.4386 16.4293 11.4661 16.3828 11.4998" stroke="black" stroke-width="0.05"/>
<path d="M16.2412 11.51C16.2412 11.51 16.2623 11.5354 16.2856 11.529C16.3088 11.5227 16.3468 11.5523 16.3468 11.5523C16.3468 11.5523 16.3785 11.5628 16.3827 11.5565" stroke="black" stroke-width="0.05"/>
<path d="M16.1123 11.5921C16.1123 11.5921 16.1841 11.6196 16.2306 11.5056" stroke="black" stroke-width="0.05"/>
<path d="M15.9795 11.4698L16.0217 11.472" stroke="black" stroke-width="0.05"/>
<path d="M15.5107 12.8046L15.514 12.8972" stroke="black" stroke-width="0.05"/>
<path d="M15.4238 12.7957C15.4238 12.7957 15.4832 12.895 15.4782 12.9478" stroke="black" stroke-width="0.05"/>
<path d="M15.9854 11.5145H16.0234L15.9896 11.5292" stroke="black" stroke-width="0.05" stroke-linejoin="round"/>
<path d="M16.2188 13.0036C16.2188 13.0036 16.2631 12.9989 16.2617 13.073C16.2901 12.9809 16.3477 12.9788 16.3477 12.9788" stroke="black" stroke-width="0.05" stroke-linejoin="round"/>
<path d="M16.0381 11.3939C16.0444 11.3939 16.0677 11.3855 16.0719 11.3918C16.0761 11.3982 16.0465 11.4024 16.0381 11.3939Z" stroke="black" stroke-width="0.05" stroke-linejoin="round"/>
<path d="M16.0676 15.1179C16.9596 15.0931 17.5356 14.4489 17.5294 14.4427C17.5232 14.4365 17.6471 14.2631 17.7462 14.2878C17.8453 14.3126 17.9878 14.6037 18.1612 14.6657C18.248 14.8019 18.1365 14.9258 18.0993 14.9506C18.0621 14.9754 17.8949 15.0435 17.8701 14.9444C17.8453 14.8453 17.7958 14.8639 17.7958 14.8639C17.7958 14.8639 17.0029 15.6382 16.0862 15.6072C15.1385 15.6134 14.358 14.8639 14.358 14.8639L14.2899 14.9382C14.2899 14.9382 14.2155 15.0187 14.1784 15.0126C14.1412 15.0064 13.9801 14.9011 13.9678 14.7958C13.9554 14.6905 14.0669 14.6223 14.0669 14.6223C14.0669 14.6223 14.3394 14.4117 14.3704 14.3002C14.4323 14.2383 14.55 14.3436 14.55 14.3436C14.55 14.3436 15.2685 15.1674 16.0676 15.1179L16.0676 15.1179Z" fill="#F7C600" stroke="black" stroke-width="0.05"/>
<path d="M14.0488 14.6396C14.0488 14.6396 14.1225 14.6199 14.1496 14.6506C14.1766 14.6813 14.3621 14.8631 14.3621 14.8631" stroke="black" stroke-width="0.05"/>
<path d="M14.2163 14.7227L14.1426 14.7779C14.1426 14.7779 14.3281 14.8148 14.2863 14.9364" stroke="black" stroke-width="0.05"/>
<path d="M18.0944 14.6334C18.0944 14.6334 18.0576 14.6137 17.9998 14.6567C17.9421 14.6997 17.7959 14.8631 17.7959 14.8631" stroke="black" stroke-width="0.05"/>
<path d="M17.9287 14.7182L18.0086 14.7796C18.0086 14.7796 17.8415 14.7907 17.8784 14.9491" stroke="black" stroke-width="0.05"/>
<path d="M14.9924 14.8326C14.9876 14.8467 14.9748 14.8323 14.9642 14.8351C14.9363 14.8361 14.9131 14.8543 14.8892 14.8668C14.8074 14.9145 14.7256 14.9622 14.6437 15.0099C14.6355 15.0071 14.6374 15.0005 14.6395 14.9938C14.6613 14.8916 14.6839 14.7896 14.7051 14.6873C14.7086 14.6694 14.7143 14.6472 14.697 14.6341C14.6897 14.6291 14.7011 14.6189 14.7058 14.6282C14.7476 14.658 14.7894 14.6878 14.8312 14.7177C14.8272 14.7295 14.8201 14.7212 14.8129 14.7164C14.7956 14.6997 14.7746 14.7151 14.7751 14.7362C14.7602 14.8036 14.7457 14.871 14.7309 14.9384C14.7864 14.9054 14.8426 14.8735 14.8977 14.8396C14.9173 14.8309 14.9318 14.8045 14.9114 14.7882C14.9036 14.7837 14.8908 14.7712 14.9036 14.7693C14.9332 14.7904 14.9628 14.8115 14.9924 14.8326V14.8326Z" fill="black"/>
<path d="M15.0809 15.2612C15.0786 15.2689 15.0746 15.2706 15.0686 15.2651C15.0193 15.2381 14.9701 15.2112 14.9209 15.1843C14.9231 15.1767 14.9271 15.175 14.9332 15.1805C14.9465 15.1896 14.9683 15.193 14.978 15.1771C14.9976 15.1458 15.0141 15.1126 15.0322 15.0804C15.0568 15.0348 15.0824 14.9897 15.1063 14.9437C15.1177 14.9275 15.105 14.9074 15.089 14.9004C15.0836 14.8975 15.0756 14.8954 15.0825 14.8889C15.0857 14.8848 15.0927 14.8935 15.0975 14.8945C15.1447 14.9203 15.1919 14.9461 15.2391 14.9719C15.2368 14.9796 15.2329 14.9812 15.2268 14.9758C15.2134 14.9667 15.1915 14.9632 15.1817 14.979C15.1622 15.0104 15.1457 15.0435 15.1276 15.0757C15.103 15.1213 15.0773 15.1664 15.0535 15.2124C15.0421 15.2288 15.0548 15.249 15.071 15.2559C15.0743 15.2576 15.0776 15.2594 15.0809 15.2612Z" fill="black"/>
<path d="M15.6486 15.1273C15.6353 15.1648 15.6219 15.2024 15.6086 15.2399C15.5921 15.2382 15.6031 15.2171 15.5979 15.206C15.5921 15.1554 15.5547 15.1081 15.5038 15.0972C15.4649 15.0866 15.4238 15.1067 15.4009 15.1383C15.3664 15.1855 15.3454 15.243 15.3425 15.3015C15.3405 15.3347 15.3557 15.3687 15.3847 15.3862C15.4077 15.4014 15.4356 15.4075 15.4629 15.4067C15.4725 15.3783 15.484 15.3505 15.4921 15.3216C15.4953 15.3028 15.4759 15.2915 15.4604 15.2872C15.458 15.2817 15.464 15.275 15.4703 15.2809C15.5194 15.2984 15.5684 15.3158 15.6175 15.3333C15.6157 15.3514 15.5953 15.3319 15.5839 15.3391C15.5658 15.346 15.5642 15.3678 15.5574 15.3836C15.5514 15.4004 15.5454 15.4172 15.5394 15.434C15.4735 15.4386 15.4055 15.4247 15.3481 15.3915C15.2923 15.3563 15.2546 15.2884 15.2656 15.2218C15.2741 15.1649 15.3096 15.1115 15.3621 15.0863C15.4104 15.0607 15.4693 15.0608 15.5194 15.0811C15.5468 15.0903 15.5705 15.1073 15.5917 15.1266C15.6045 15.1439 15.6294 15.1439 15.6399 15.1242C15.6428 15.1253 15.6457 15.1263 15.6486 15.1273" fill="black"/>
<path d="M15.8885 15.5083C15.8883 15.5143 15.8876 15.5197 15.8804 15.5164C15.8242 15.5079 15.7681 15.4994 15.7119 15.4909C15.7122 15.4849 15.7129 15.4794 15.72 15.4827C15.7347 15.4857 15.7542 15.4855 15.7613 15.4697C15.7684 15.4472 15.7698 15.4234 15.7739 15.4002C15.7836 15.3354 15.7939 15.2708 15.8031 15.206C15.8067 15.192 15.8019 15.1762 15.7874 15.1708C15.7792 15.1669 15.7701 15.1663 15.7613 15.1648C15.7616 15.1589 15.7623 15.1534 15.7694 15.1567C15.8256 15.1652 15.8818 15.1737 15.9379 15.1822C15.9376 15.1882 15.937 15.1937 15.9298 15.1904C15.9151 15.1873 15.8956 15.1877 15.8883 15.2034C15.8812 15.2259 15.8798 15.2497 15.8757 15.2729C15.866 15.3376 15.8557 15.4023 15.8465 15.4671C15.843 15.481 15.8478 15.4972 15.8623 15.5024C15.8706 15.5062 15.8797 15.5068 15.8885 15.5083V15.5083Z" fill="black"/>
<path d="M16.3432 15.3999C16.341 15.4397 16.3388 15.4796 16.3366 15.5194C16.2364 15.5245 16.1361 15.5296 16.0359 15.5347C16.0341 15.5274 16.0361 15.5235 16.044 15.525C16.0591 15.5254 16.0786 15.519 16.0805 15.5017C16.0819 15.472 16.0785 15.4423 16.0775 15.4126C16.0743 15.3534 16.0719 15.2941 16.0681 15.2349C16.0697 15.2173 16.0539 15.2043 16.0371 15.2048C16.0318 15.2021 16.0175 15.2103 16.0189 15.2006C16.0165 15.1928 16.0274 15.197 16.032 15.1955C16.0877 15.1926 16.1434 15.1898 16.1992 15.187C16.201 15.1943 16.1991 15.1982 16.1911 15.1966C16.1757 15.1965 16.1556 15.2003 16.1513 15.2177C16.1489 15.2434 16.1524 15.2693 16.1531 15.295C16.1565 15.3567 16.1589 15.4184 16.163 15.48C16.1617 15.4962 16.1747 15.5104 16.1914 15.5073C16.2158 15.5061 16.2407 15.5072 16.2646 15.501C16.298 15.4921 16.3162 15.459 16.3254 15.4281C16.3314 15.4197 16.3264 15.3989 16.3396 15.4001C16.3408 15.4 16.342 15.3999 16.3432 15.3999" fill="black"/>
<path d="M16.5774 15.1111C16.5695 15.1112 16.573 15.1214 16.5709 15.1267C16.5576 15.2264 16.545 15.3262 16.5313 15.4258C16.5279 15.4479 16.5224 15.4737 16.5006 15.4848C16.4926 15.4877 16.4997 15.5003 16.507 15.4933C16.5405 15.4832 16.574 15.4732 16.6074 15.4632C16.6062 15.4463 16.5869 15.4616 16.5761 15.4586C16.5531 15.4586 16.5496 15.4307 16.5528 15.4132C16.5542 15.4014 16.5556 15.3896 16.557 15.3778C16.5953 15.3662 16.6337 15.3547 16.672 15.3432C16.6867 15.3616 16.7029 15.379 16.7161 15.3985C16.7261 15.4173 16.7019 15.4259 16.6878 15.4296C16.6812 15.4303 16.687 15.444 16.693 15.4376C16.7433 15.4225 16.7937 15.4074 16.8441 15.3923C16.8436 15.3752 16.8217 15.3913 16.8125 15.3799C16.7842 15.3586 16.7639 15.329 16.7405 15.3028C16.6861 15.2389 16.6318 15.175 16.5774 15.1111ZM16.5766 15.2307C16.6038 15.2632 16.631 15.2957 16.6583 15.3282C16.6256 15.3379 16.593 15.3476 16.5603 15.3573C16.5658 15.3151 16.5712 15.2729 16.5766 15.2307Z" fill="black"/>
<path d="M17.0914 14.8878C17.1059 14.9148 17.1204 14.9417 17.1349 14.9686C17.1214 14.9802 17.1143 14.9533 17.1021 14.9492C17.082 14.9323 17.0517 14.9291 17.0293 14.9434C17.0202 14.9482 17.0111 14.9532 17.002 14.958C17.0457 15.0389 17.0888 15.1202 17.1329 15.2009C17.1397 15.2216 17.1651 15.2254 17.1815 15.2138C17.1879 15.2092 17.1936 15.2066 17.1957 15.2163C17.1735 15.2291 17.1492 15.2414 17.1263 15.254C17.0973 15.2695 17.0684 15.2851 17.0395 15.3006C17.0327 15.2936 17.0372 15.2899 17.0449 15.2872C17.0655 15.2796 17.0734 15.2546 17.0596 15.2371C17.0169 15.1567 16.9735 15.0767 16.9305 14.9965C16.9065 15.0098 16.8759 15.0217 16.8699 15.0516C16.8631 15.0704 16.8731 15.0934 16.8731 15.1094C16.8657 15.117 16.8638 15.1066 16.8604 15.1011C16.848 15.078 16.8356 15.055 16.8232 15.032C16.9126 14.9839 17.002 14.9359 17.0914 14.8878V14.8878Z" fill="black"/>
<path d="M17.2954 14.7643C17.3231 14.801 17.3508 14.8378 17.3785 14.8745C17.3978 14.8622 17.4139 14.8403 17.4081 14.8164C17.4103 14.7978 17.3836 14.7766 17.3928 14.7635C17.3989 14.7598 17.4024 14.7737 17.4074 14.7774C17.4391 14.8194 17.4707 14.8613 17.5023 14.9032C17.4899 14.9173 17.481 14.8886 17.4679 14.8855C17.4494 14.8724 17.4234 14.8658 17.4036 14.8802C17.3888 14.8849 17.3895 14.8932 17.3996 14.9024C17.4218 14.9311 17.4425 14.9612 17.4663 14.9887C17.4808 15.0028 17.4989 14.9881 17.5112 14.9782C17.5431 14.9566 17.571 14.9227 17.5694 14.8821C17.5715 14.8644 17.5604 14.8446 17.5605 14.8296C17.5676 14.8201 17.5696 14.8349 17.5737 14.8397C17.5887 14.8667 17.6036 14.8937 17.6186 14.9208C17.5406 14.9796 17.4626 15.0384 17.3847 15.0972C17.3745 15.09 17.3845 15.0858 17.3909 15.0808C17.4127 15.0673 17.4058 15.0398 17.3897 15.0246C17.3398 14.9588 17.2907 14.8923 17.24 14.827C17.2271 14.8094 17.2032 14.8187 17.1901 14.8309C17.1847 14.8386 17.1762 14.8232 17.1865 14.8221C17.26 14.7666 17.3335 14.7112 17.407 14.6557C17.4272 14.6824 17.4473 14.7091 17.4674 14.7357C17.4534 14.7499 17.441 14.7183 17.4251 14.7167C17.3961 14.7016 17.3617 14.7137 17.3377 14.7328C17.3234 14.743 17.3095 14.7538 17.2954 14.7643" fill="black"/>
<path d="M20 6L20 18L4 18L4 6L20 6ZM20 5L4 5C3.4 5 3 5.4 3 6L3 18C3 18.6 3.4 19 4 19L20 19C20.6 19 21 18.6 21 18L21 6C21 5.4 20.6 5 20 5Z" fill="none"/>
<defs>
<linearGradient id="paint0_linear_14099_114166" x1="14.8165" y1="11.3444" x2="14.6644" y2="11.322" gradientUnits="userSpaceOnUse">
<stop stop-color="#FF0000"/>
<stop offset="1" stop-color="#FFFF00"/>
</linearGradient>
</defs>
</svg>
