<svg width="24" height="24" viewBox="0 0 24 24" fill="none" xmlns="http://www.w3.org/2000/svg">
<path d="M20 6H4V18H20V6Z" fill="#F7E017"/>
<path d="M4.17969 4.99933L3.49954 7.06357L19.8949 17.4334L20.6695 15.8393L4.17969 4.99933Z" fill="white"/>
<path d="M3.98535 6.25195L3.4058 8.18482L20.191 18.1991L20.7706 16.2663L3.98535 6.25195Z" fill="black"/>
<path d="M11.6971 14.1207C11.4551 14.0885 11.2332 14.0115 11.0791 13.906C11.0492 13.8855 11.0211 13.8688 11.0167 13.8688C11.0122 13.8688 11.0086 13.8915 11.0086 13.9197C11.0086 13.9993 10.9766 14.0394 10.8961 14.0603C10.8191 14.0803 10.7016 14.0399 10.6064 13.9609C10.5077 13.879 10.3939 13.8165 10.2975 13.7915C10.2181 13.7708 10.1127 13.7742 10.0366 13.7997C10.0012 13.8115 9.96099 13.8283 9.94699 13.8369C9.93312 13.8455 9.91749 13.8525 9.91249 13.8525C9.89899 13.8525 9.90087 13.7669 9.91499 13.7395C9.93362 13.7037 9.97949 13.6683 10.033 13.6488C10.06 13.6389 10.0821 13.6263 10.0821 13.6207C10.0821 13.615 10.073 13.5944 10.0619 13.575C10.0256 13.5115 10.0405 13.45 10.1037 13.4017C10.1685 13.3522 10.2781 13.3437 10.375 13.3805C10.3994 13.3898 10.4221 13.3974 10.4255 13.3974C10.4382 13.3974 10.4305 13.3795 10.3954 13.3284C10.3549 13.2692 10.3469 13.2399 10.3519 13.1694C10.3584 13.0802 10.4311 13.0072 10.5202 13.0007C10.593 12.9954 10.6382 13.0199 10.7456 13.1222C11.0662 13.4279 11.4149 13.5964 11.8215 13.642C11.9241 13.6535 12.1306 13.6474 12.2517 13.6292C12.6176 13.574 12.9862 13.39 13.2741 13.1189C13.3539 13.0438 13.3922 13.0239 13.4576 13.0237C13.5145 13.0234 13.5544 13.0418 13.5951 13.0868C13.6322 13.128 13.6449 13.1672 13.6409 13.2298C13.6382 13.2699 13.6317 13.2897 13.6079 13.3285C13.5726 13.3859 13.5786 13.3912 13.6484 13.3642C13.7426 13.3274 13.8587 13.3444 13.9214 13.4039C13.9765 13.4563 13.9817 13.5087 13.9389 13.5797C13.9232 13.6057 13.9105 13.63 13.9105 13.6339C13.9105 13.641 13.9224 13.6444 13.9796 13.6537C14.0545 13.6657 14.0974 13.7213 14.0974 13.8063C14.0974 13.8318 14.0942 13.8525 14.0904 13.8525C14.0866 13.8525 14.0582 13.8422 14.0274 13.8294C13.9401 13.7934 13.8905 13.7842 13.7885 13.7848C13.7109 13.7853 13.6841 13.7889 13.63 13.8065C13.5471 13.8337 13.4585 13.8859 13.3862 13.9503C13.3066 14.0213 13.2565 14.0437 13.179 14.043C13.107 14.0423 13.0577 14.0214 13.0317 13.9803C13.0179 13.9583 13.0159 13.9449 13.0192 13.8952C13.0215 13.8628 13.021 13.8363 13.0184 13.8363C13.0156 13.8363 12.9876 13.854 12.956 13.8759C12.873 13.9329 12.8201 13.9612 12.7251 13.9988C12.4354 14.1134 12.0172 14.163 11.6971 14.1207Z" fill="#CF1126"/>
<path d="M11.8296 13.5648C11.3473 13.5185 10.8859 13.2673 10.6053 12.869C10.3007 12.4536 10.2047 11.9051 10.2977 11.4035C10.3471 11.1752 10.4468 10.9467 10.617 10.7841C10.4814 11.0717 10.4355 11.4012 10.5079 11.7127C10.6202 12.3347 11.1458 12.8611 11.7746 12.9522C12.0234 13.0242 12.2807 12.9482 12.5183 12.871C13.0425 12.6863 13.4418 12.1887 13.4905 11.6325C13.5322 11.3316 13.486 11.0186 13.3505 10.7461C13.4277 10.787 13.5253 10.9472 13.5828 11.0549C13.7829 11.4425 13.792 11.9069 13.6742 12.3204C13.5145 12.8466 13.1122 13.3077 12.5803 13.4752C12.339 13.5541 12.0823 13.5781 11.8296 13.5648L11.8296 13.5648Z" fill="#CF1126"/>
<path d="M9.40068 12.8736C9.36907 12.8686 9.33423 12.8997 9.34614 12.9323C9.36893 12.9652 9.40819 12.9813 9.44362 12.997C9.52851 13.0311 9.62086 13.0443 9.71201 13.0421C9.68059 13.042 9.72279 13.0424 9.73452 13.0421C9.8067 13.0423 9.87847 13.0293 9.94632 13.0048C9.98405 12.9916 10.0321 12.9795 10.0476 12.9378C10.0627 12.9106 10.0353 12.8835 10.0078 12.8889C9.96937 12.8973 9.93347 12.9147 9.89539 12.9246C9.81324 12.9478 9.72672 12.9568 9.6416 12.9498C9.57936 12.9422 9.51906 12.9223 9.46148 12.898C9.44151 12.8892 9.42278 12.8763 9.40067 12.8736L9.40068 12.8736Z" fill="#CF1126"/>
<path d="M9.43533 12.7426C9.40338 12.7378 9.37586 12.7746 9.38918 12.804C9.41374 12.8396 9.45502 12.8585 9.49363 12.8752C9.56076 12.902 9.63368 12.9133 9.70582 12.9111C9.67842 12.9111 9.71523 12.9115 9.72538 12.9111C9.78672 12.9112 9.84773 12.8991 9.90444 12.8757C9.93911 12.8623 9.98156 12.8492 9.996 12.811C10.0072 12.7901 9.99866 12.7596 9.97225 12.7579C9.94814 12.7567 9.92734 12.7721 9.90502 12.779C9.82396 12.8125 9.73475 12.8267 9.64735 12.8191C9.59289 12.8121 9.54086 12.792 9.49147 12.7688C9.47291 12.7598 9.45622 12.7458 9.43534 12.7426L9.43533 12.7426Z" fill="#CF1126"/>
<path d="M9.47883 12.6194C9.45144 12.6161 9.43261 12.647 9.43722 12.6717C9.4413 12.6933 9.46075 12.7079 9.47683 12.7212C9.54345 12.7699 9.62787 12.7906 9.70966 12.7879C9.67789 12.7878 9.75227 12.7884 9.72959 12.7878C9.78139 12.7876 9.83256 12.7749 9.87916 12.7525C9.91028 12.739 9.94681 12.7233 9.95729 12.6878C9.96231 12.6712 9.96545 12.6475 9.94678 12.6382C9.92723 12.6272 9.90782 12.644 9.89004 12.6509C9.83018 12.6813 9.76348 12.6983 9.69621 12.698C9.63807 12.6999 9.58329 12.6755 9.53286 12.6491C9.51456 12.6398 9.49947 12.6236 9.47884 12.6194L9.47883 12.6194Z" fill="#CF1126"/>
<path d="M9.01917 10.7832C8.97845 10.824 9.00954 10.8991 9.00734 10.9525C9.02844 11.117 9.05465 11.2835 9.11605 11.4384C9.19124 11.5896 9.35094 11.6705 9.44771 11.8042C9.48231 11.8687 9.47002 11.9462 9.47731 12.0166C9.48304 12.2087 9.48126 12.4009 9.4779 12.593C9.56464 12.6365 9.65883 12.6804 9.7586 12.6636C9.81773 12.6495 9.9275 12.6407 9.9398 12.5818C9.93502 12.2506 9.93192 11.9192 9.92752 11.588C9.89389 11.4865 9.79063 11.434 9.7134 11.3691C9.64966 11.3062 9.59035 11.2386 9.53605 11.1678C9.50328 11.1126 9.3752 11.0927 9.42154 11.1888C9.44871 11.272 9.51804 11.3339 9.5354 11.4213C9.5392 11.4692 9.59637 11.5573 9.54757 11.5852C9.51652 11.5325 9.47154 11.4876 9.41404 11.4608C9.35864 11.4195 9.26705 11.4023 9.24705 11.3293C9.23237 11.2258 9.17936 11.132 9.11097 11.0545C9.12859 10.9615 9.11103 10.8453 9.03067 10.7859L9.01916 10.7832H9.01916L9.01917 10.7832Z" fill="#CF1126"/>
<path d="M9.14345 10.8027C9.10641 10.8087 9.10767 10.8559 9.12481 10.8807C9.14304 10.9343 9.14801 10.9925 9.13814 11.0483C9.20398 11.1254 9.25497 11.2176 9.27034 11.3188C9.27071 11.3569 9.31075 11.3695 9.3367 11.3883C9.39759 11.427 9.46605 11.4552 9.52027 11.5037C9.53168 11.5159 9.5403 11.529 9.53223 11.5041C9.52377 11.4723 9.51942 11.4371 9.49447 11.4131C9.46029 11.3763 9.4176 11.3435 9.36781 11.3323C9.36366 11.2809 9.33917 11.2337 9.31654 11.1882C9.29146 11.1447 9.26526 11.0981 9.22228 11.0699C9.22401 10.9937 9.22276 10.9137 9.18996 10.8434C9.18034 10.8253 9.16617 10.8038 9.14346 10.8027H9.14345Z" fill="#CF1126"/>
<path d="M9.2468 10.8322C9.221 10.8399 9.22593 10.8717 9.2341 10.8912C9.24646 10.9451 9.2484 11.0008 9.24739 11.056C9.29478 11.0935 9.32442 11.1478 9.35141 11.2008C9.36833 11.2362 9.38437 11.2727 9.39085 11.3116C9.4293 11.3243 9.46294 11.3484 9.49299 11.3751C9.48109 11.339 9.45453 11.3112 9.43669 11.2783C9.41729 11.2441 9.39877 11.2084 9.39056 11.1696C9.35358 11.1302 9.33322 11.0742 9.3413 11.0202C9.34296 10.9605 9.32368 10.8988 9.28373 10.8538C9.27366 10.8439 9.26165 10.833 9.2468 10.8322L9.2468 10.8322Z" fill="#CF1126"/>
<path d="M9.36447 10.8497C9.35044 10.8522 9.34191 10.8655 9.33439 10.8764C9.33149 10.8873 9.34487 10.8991 9.347 10.9109C9.3634 10.9521 9.3696 10.9972 9.3647 11.0412C9.36362 11.0725 9.37481 11.1031 9.39075 11.1296C9.39535 11.11 9.41345 11.096 9.43308 11.0941C9.44022 11.0928 9.45071 11.0964 9.44655 11.0855C9.44157 11.0257 9.43245 10.9655 9.41154 10.909C9.40344 10.8888 9.39424 10.8676 9.37675 10.8538C9.3732 10.8513 9.36896 10.8491 9.36447 10.8497L9.36447 10.8497Z" fill="#CF1126"/>
<path d="M14.6491 12.8736C14.6807 12.8686 14.7156 12.8997 14.7037 12.9323C14.6809 12.9652 14.6416 12.9813 14.6062 12.997C14.5213 13.0311 14.4289 13.0443 14.3378 13.0421C14.3692 13.042 14.327 13.0424 14.3153 13.0421C14.2431 13.0423 14.1713 13.0293 14.1035 13.0048C14.0658 12.9916 14.0177 12.9795 14.0022 12.9378C13.9871 12.9106 14.0145 12.8835 14.042 12.8889C14.0804 12.8973 14.1163 12.9147 14.1544 12.9246C14.2366 12.9478 14.3231 12.9568 14.4082 12.9498C14.4704 12.9422 14.5307 12.9223 14.5883 12.898C14.6083 12.8892 14.627 12.8763 14.6491 12.8736L14.6491 12.8736Z" fill="#CF1126"/>
<path d="M14.6145 12.7426C14.6464 12.7378 14.6739 12.7746 14.6606 12.804C14.6361 12.8396 14.5948 12.8585 14.5562 12.8752C14.489 12.902 14.4161 12.9133 14.344 12.9111C14.3714 12.9111 14.3346 12.9115 14.3244 12.9111C14.2631 12.9112 14.2021 12.8991 14.1454 12.8757C14.1107 12.8623 14.0682 12.8492 14.0538 12.811C14.0426 12.7901 14.0511 12.7596 14.0776 12.7579C14.1017 12.7567 14.1225 12.7721 14.1448 12.779C14.2258 12.8125 14.3151 12.8267 14.4025 12.8191C14.4569 12.8121 14.5089 12.792 14.5583 12.7688C14.5769 12.7598 14.5936 12.7458 14.6145 12.7426L14.6145 12.7426Z" fill="#CF1126"/>
<path d="M14.571 12.6194C14.5984 12.6161 14.6172 12.647 14.6126 12.6717C14.6085 12.6933 14.5891 12.7079 14.573 12.7212C14.5064 12.7699 14.4219 12.7906 14.3401 12.7879C14.3719 12.7878 14.2975 12.7884 14.3202 12.7878C14.2684 12.7876 14.2172 12.7749 14.1706 12.7525C14.1395 12.739 14.103 12.7233 14.0925 12.6878C14.0875 12.6712 14.0844 12.6475 14.103 12.6382C14.1226 12.6272 14.142 12.644 14.1598 12.6509C14.2196 12.6813 14.2863 12.6983 14.3536 12.698C14.4117 12.6999 14.4665 12.6755 14.5169 12.6491C14.5352 12.6398 14.5503 12.6236 14.571 12.6194L14.571 12.6194Z" fill="#CF1126"/>
<path d="M15.0306 10.7832C15.0714 10.824 15.0403 10.8991 15.0425 10.9525C15.0214 11.117 14.9952 11.2835 14.9338 11.4384C14.8586 11.5896 14.6989 11.6705 14.6021 11.8042C14.5675 11.8687 14.5798 11.9462 14.5725 12.0166C14.5668 12.2087 14.5685 12.4009 14.5719 12.593C14.4852 12.6365 14.391 12.6804 14.2912 12.6636C14.2321 12.6495 14.1223 12.6407 14.11 12.5818C14.1148 12.2506 14.1179 11.9192 14.1223 11.588C14.1559 11.4865 14.2592 11.434 14.3364 11.3691C14.4001 11.3062 14.4595 11.2386 14.5138 11.1678C14.5465 11.1126 14.6746 11.0927 14.6283 11.1888C14.6011 11.272 14.5318 11.3339 14.5144 11.4213C14.5106 11.4692 14.4534 11.5573 14.5022 11.5852C14.5333 11.5325 14.5783 11.4876 14.6358 11.4608C14.6912 11.4195 14.7828 11.4023 14.8028 11.3293C14.8174 11.2258 14.8704 11.132 14.9388 11.0545C14.9212 10.9615 14.9388 10.8453 15.0191 10.7859L15.0306 10.7832H15.0306L15.0306 10.7832Z" fill="#CF1126"/>
<path d="M14.9064 10.8027C14.9434 10.8087 14.9421 10.8559 14.925 10.8807C14.9068 10.9343 14.9018 10.9925 14.9117 11.0483C14.8458 11.1254 14.7948 11.2176 14.7795 11.3188C14.7791 11.3569 14.7391 11.3695 14.7131 11.3883C14.6522 11.427 14.5838 11.4552 14.5295 11.5037C14.5181 11.5159 14.5095 11.529 14.5176 11.5041C14.526 11.4723 14.5304 11.4371 14.5553 11.4131C14.5895 11.3763 14.6322 11.3435 14.682 11.3323C14.6861 11.2809 14.7106 11.2337 14.7333 11.1882C14.7583 11.1447 14.7845 11.0981 14.8275 11.0699C14.8258 10.9937 14.827 10.9137 14.8598 10.8434C14.8695 10.8253 14.8836 10.8038 14.9063 10.8027H14.9064Z" fill="#CF1126"/>
<path d="M14.803 10.8322C14.8288 10.8399 14.8239 10.8717 14.8157 10.8912C14.8033 10.9451 14.8014 11.0008 14.8024 11.056C14.755 11.0935 14.7254 11.1478 14.6984 11.2008C14.6815 11.2362 14.6654 11.2727 14.659 11.3116C14.6205 11.3243 14.5869 11.3484 14.5568 11.3751C14.5687 11.339 14.5953 11.3112 14.6131 11.2783C14.6325 11.2441 14.651 11.2084 14.6592 11.1696C14.6962 11.1302 14.7166 11.0742 14.7085 11.0202C14.7068 10.9605 14.7261 10.8988 14.7661 10.8538C14.7761 10.8439 14.7882 10.833 14.803 10.8322L14.803 10.8322Z" fill="#CF1126"/>
<path d="M14.6853 10.8497C14.6994 10.8522 14.7079 10.8655 14.7154 10.8764C14.7183 10.8873 14.7049 10.8991 14.7028 10.9109C14.6864 10.9521 14.6802 10.9972 14.6851 11.0412C14.6862 11.0725 14.675 11.1031 14.6591 11.1296C14.6545 11.11 14.6364 11.096 14.6167 11.0941C14.6096 11.0928 14.5991 11.0964 14.6033 11.0855C14.6082 11.0257 14.6174 10.9655 14.6383 10.909C14.6464 10.8888 14.6556 10.8676 14.6731 10.8538C14.6766 10.8513 14.6808 10.8491 14.6853 10.8497L14.6853 10.8497Z" fill="#CF1126"/>
<path d="M11.9461 12.949C11.7774 12.9329 11.6253 12.81 11.5732 12.649C11.576 12.6212 11.6106 12.6645 11.6269 12.6674C11.6575 12.6844 11.6906 12.6984 11.7259 12.7006C11.7704 12.7197 11.7979 12.7635 11.8403 12.7864C11.86 12.8017 11.9297 12.8319 11.9168 12.783C11.9004 12.7575 11.8892 12.7252 11.9033 12.696C11.9269 12.6442 11.9633 12.599 11.9999 12.5557C12.0268 12.5467 12.0448 12.5998 12.0641 12.6177C12.0907 12.6586 12.1228 12.7087 12.1072 12.7596C12.0919 12.7784 12.0819 12.8352 12.1227 12.8161C12.1729 12.794 12.2141 12.7568 12.2558 12.7221C12.2923 12.6966 12.339 12.6948 12.3772 12.6725C12.3949 12.668 12.4318 12.6326 12.4395 12.6522C12.4186 12.7083 12.3835 12.7586 12.346 12.8049C12.2853 12.8742 12.2031 12.9264 12.1112 12.9411C12.0569 12.9511 12.0011 12.9532 11.9461 12.949L11.9461 12.949Z" fill="#CF1126"/>
<path d="M12.1439 12.7525C12.1476 12.7187 12.1399 12.6841 12.1226 12.6534C12.0961 12.5993 12.0586 12.5513 12.0221 12.5038C11.9876 12.4837 11.9685 12.5496 11.9456 12.5685C11.9099 12.622 11.865 12.6767 11.8628 12.7439C11.8428 12.7752 11.8053 12.7184 11.7891 12.6997C11.7583 12.6561 11.7349 12.6045 11.7388 12.5499C11.7351 12.462 11.752 12.3744 11.784 12.2926C11.8082 12.2229 11.8475 12.1551 11.8435 12.0788C11.8463 12.0215 11.8346 11.9581 11.7882 11.9195C11.7439 11.8848 11.8168 11.8774 11.8399 11.8954C11.8796 11.8981 11.901 11.9635 11.9372 11.9473C11.9516 11.9131 11.9544 11.8724 11.9842 11.8457C12.0133 11.8058 12.0438 11.8627 12.0538 11.8893C12.0744 11.9127 12.0526 11.9706 12.0861 11.9722C12.1261 11.9441 12.1547 11.8969 12.206 11.8866C12.2267 11.8747 12.2623 11.885 12.2349 11.9089C12.1969 11.9445 12.1645 11.9889 12.1576 12.0418C12.146 12.1081 12.1626 12.1754 12.1915 12.2352C12.2471 12.3525 12.2901 12.4851 12.262 12.6157C12.2489 12.6738 12.2095 12.7238 12.1616 12.7575C12.1555 12.7611 12.146 12.7609 12.1439 12.7525V12.7525Z" fill="#CF1126"/>
<path d="M12.0842 11.8694C12.066 11.8366 12.0439 11.8043 12.0133 11.782C11.9835 11.7819 11.9651 11.8195 11.9449 11.8392C11.9307 11.8655 11.9135 11.9096 11.8786 11.8751C11.823 11.8427 11.8132 11.7717 11.8136 11.7132C11.8101 11.6183 11.8483 11.5297 11.8822 11.4433C11.9038 11.3892 11.8985 11.3283 11.8853 11.2729C11.8687 11.2093 11.8177 11.1651 11.7783 11.1155C11.781 11.0963 11.8313 11.1068 11.8502 11.1104C11.8922 11.1211 11.9173 11.1582 11.9486 11.1845C11.9708 11.1777 11.9617 11.1327 11.9721 11.1116C11.9729 11.0818 12.0125 11.0425 12.0289 11.0852C12.0533 11.1123 12.0281 11.166 12.0597 11.1829C12.0899 11.1717 12.1047 11.1388 12.1331 11.1239C12.1609 11.1048 12.2003 11.1027 12.2303 11.1176C12.2408 11.1453 12.1973 11.1683 12.1847 11.1924C12.134 11.2549 12.1162 11.3412 12.1379 11.4188C12.1551 11.4796 12.1856 11.5363 12.1961 11.5992C12.2087 11.6698 12.2083 11.744 12.19 11.8137C12.1791 11.8559 12.1425 11.8842 12.1047 11.9017C12.0954 11.8931 12.0905 11.8803 12.0842 11.8694L12.0842 11.8694Z" fill="#CF1126"/>
<path d="M11.8949 11.0859C11.8529 11.0551 11.839 11.0258 11.839 10.9676C11.839 10.9379 11.8445 10.9218 11.8642 10.8948C11.893 10.8548 11.8878 10.8421 11.8469 10.8539C11.7812 10.8728 11.7498 10.8555 11.7475 10.7995C11.7465 10.7721 11.7523 10.7605 11.7892 10.7163C11.8187 10.6808 11.8294 10.6621 11.8235 10.6563C11.8178 10.6505 11.7829 10.6808 11.7113 10.7536C11.6542 10.8118 11.5899 10.8711 11.5685 10.8856C11.4455 10.9686 11.328 10.9815 11.2744 10.9176C11.2469 10.885 11.2484 10.8666 11.2802 10.8469C11.2948 10.8379 11.3194 10.8171 11.335 10.8008C11.3719 10.7624 11.4818 10.6831 11.5363 10.6556C11.5805 10.6333 11.591 10.6181 11.5623 10.6181C11.525 10.6181 11.4055 10.6959 11.3149 10.7791C11.2883 10.8038 11.2499 10.8311 11.2298 10.84C11.1845 10.86 11.0957 10.8674 11.0562 10.8544C11.0283 10.8451 10.9774 10.7971 10.9774 10.78C10.9774 10.7755 10.989 10.7655 11.0032 10.7579C11.0173 10.7504 11.0427 10.732 11.0594 10.7174C11.1319 10.6538 11.2693 10.5883 11.3783 10.5654C11.4129 10.5581 11.4002 10.5406 11.3615 10.5424C11.2867 10.5456 11.138 10.6153 11.0493 10.6885C10.9453 10.7743 10.7884 10.7661 10.7379 10.6724C10.7292 10.6563 10.724 10.6411 10.7265 10.6388C10.7289 10.6364 10.7598 10.6271 10.7952 10.6181C10.8334 10.6085 10.9092 10.5771 10.9815 10.541C11.0954 10.4843 11.1292 10.4721 11.2075 10.4595C11.2428 10.4539 11.2447 10.4366 11.2104 10.4326C11.1663 10.4274 11.0987 10.4495 10.9792 10.5083C10.8257 10.5838 10.7827 10.5968 10.7018 10.592C10.628 10.5875 10.5864 10.5686 10.5265 10.512C10.4874 10.4749 10.4319 10.3806 10.4428 10.3698C10.4454 10.3671 10.4634 10.3698 10.4828 10.3754C10.5043 10.3818 10.5659 10.386 10.6402 10.3861C10.744 10.3864 10.7717 10.3836 10.827 10.3676C10.9197 10.3409 11.0428 10.2783 11.127 10.2154C11.2882 10.0949 11.4195 10.0465 11.587 10.0458C11.7417 10.0451 11.84 10.0809 11.9272 10.1693C11.9567 10.1991 11.9818 10.2185 11.9859 10.2144C11.9898 10.2105 11.994 10.1583 11.9953 10.0983C11.9953 10.0983 12.0408 10.0939 12.0504 10.1066C12.0504 10.204 12.0515 10.2116 12.0657 10.2116C12.0749 10.2116 12.0848 10.2021 12.0909 10.1874C12.1042 10.1555 12.1532 10.1119 12.2055 10.0854C12.3187 10.028 12.5144 10.0263 12.6717 10.0811C12.7379 10.1044 12.8114 10.1459 12.8814 10.1999C12.9517 10.2539 13.0953 10.3261 13.1802 10.3503C13.266 10.3746 13.4174 10.3808 13.495 10.3631C13.527 10.3559 13.557 10.3499 13.5618 10.3499C13.5904 10.3499 13.5417 10.4453 13.4844 10.5011C13.3798 10.6034 13.2437 10.6029 13.0522 10.4996C12.9328 10.4354 12.79 10.4003 12.79 10.4353C12.79 10.4425 12.7975 10.4474 12.8087 10.4474C12.8502 10.4474 12.9303 10.4753 13.042 10.5283C13.1629 10.5858 13.2308 10.61 13.271 10.61C13.3003 10.61 13.3012 10.6281 13.2739 10.6681C13.245 10.7108 13.196 10.7319 13.1268 10.7318C13.0607 10.7315 13.0239 10.717 12.9648 10.6679C12.8659 10.5856 12.6195 10.4939 12.629 10.5429C12.6309 10.5526 12.6428 10.5586 12.6682 10.5625C12.7539 10.5756 12.8545 10.6236 12.9575 10.7008C12.9893 10.7246 13.0223 10.7481 13.0307 10.7531C13.0448 10.7614 13.045 10.7639 13.0339 10.7848C13.0154 10.8193 12.9688 10.846 12.9183 10.8513C12.8529 10.858 12.796 10.8385 12.7372 10.7893C12.6129 10.6853 12.4958 10.61 12.4583 10.61C12.4277 10.61 12.4414 10.6269 12.4954 10.6555C12.5664 10.6931 12.6394 10.744 12.6932 10.7934C12.7185 10.8169 12.7472 10.8401 12.7567 10.8453C12.7792 10.8573 12.7783 10.8749 12.7535 10.9073C12.7283 10.9403 12.6865 10.9548 12.6324 10.949C12.5244 10.9376 12.4402 10.8855 12.3078 10.7481C12.256 10.6945 12.2099 10.6506 12.2052 10.6506C12.1875 10.6506 12.1979 10.6745 12.232 10.7128C12.2743 10.76 12.2824 10.7866 12.2664 10.825C12.2523 10.859 12.2288 10.8669 12.1805 10.8539C12.1312 10.8405 12.1234 10.8526 12.1558 10.8929C12.204 10.953 12.1969 11.0266 12.1378 11.0773C12.1194 11.0929 12.1002 11.1058 12.0949 11.1058C12.0898 11.1058 12.0768 11.0924 12.0659 11.076C12.0279 11.0183 11.9945 11.0186 11.9575 11.077C11.9447 11.0974 11.9338 11.1139 11.9334 11.1138C11.9329 11.1136 11.9155 11.1011 11.8949 11.0859Z" fill="#CF1126"/>
<path d="M12.0835 9.91211L12.0194 9.96286L11.9619 9.91948V10.2662L12.0835 10.2677V9.91211Z" fill="#CF1126"/>
<path d="M11.6865 9.55288C11.6737 9.71675 11.6321 9.83113 11.5742 9.95725L11.713 9.82863L11.8095 9.94325L11.914 9.82663L12.0206 9.92513L12.1231 9.82263L12.2296 9.94725L12.3221 9.84475L12.4788 9.95725C12.422 9.83113 12.345 9.72425 12.3546 9.54675C12.2027 9.65963 11.8418 9.68 11.6865 9.55288Z" fill="#CF1126"/>
<path d="M11.9623 9.46875C11.9065 9.46975 11.8478 9.4705 11.7949 9.48088C11.7583 9.48813 11.725 9.5 11.6973 9.51963C11.7018 9.62625 12.2098 9.67075 12.346 9.52162C12.3174 9.50075 12.2824 9.48838 12.2439 9.48088C12.193 9.471 12.1368 9.47 12.0834 9.46912C12.0834 9.49837 12.0836 9.52775 12.0836 9.55713L11.9623 9.55675V9.46875Z" fill="#CF1126"/>
<path d="M12.0613 8.92383L11.9824 8.92445V9.5417L12.0629 9.54208L12.0613 8.92383Z" fill="#CF1126"/>
<path d="M12.0614 8.93945L12.0312 9.23495L12.3353 9.38345L12.1814 9.1777L12.3915 9.10958L12.0614 8.93945Z" fill="#CF1126"/>
<path d="M12.0275 8.86328C11.9814 8.86328 11.9473 8.88053 11.9473 8.90103C11.9473 8.92153 11.9814 8.93891 12.0275 8.93891C12.0736 8.93891 12.1075 8.92153 12.1075 8.90103C12.1075 8.88053 12.0736 8.86328 12.0275 8.86328Z" fill="#CF1126"/>
<path d="M11.8884 13.0486C11.9383 13.0321 11.9667 13.0019 11.987 12.9436C11.9972 12.9146 12.004 12.8845 12.0023 12.8766C11.998 12.858 11.9765 12.859 11.9528 12.8788C11.9365 12.8924 11.9345 12.8993 11.9392 12.927C11.951 12.997 11.9262 13.0144 11.7937 13.0286C11.7805 13.03 11.7425 13.0278 11.709 13.0236C11.646 13.0158 11.6235 13.022 11.6464 13.041C11.6533 13.0468 11.6708 13.0545 11.6853 13.0581C11.7207 13.0673 11.8505 13.0611 11.8884 13.0486Z" fill="#F7E017"/>
<path d="M12.1626 13.0369C12.1701 13.03 12.1959 13.0181 12.2199 13.0104C12.2519 13.0001 12.2684 12.9891 12.2819 12.969C12.3208 12.9111 12.3135 12.8612 12.2564 12.794C12.2254 12.7575 12.2116 12.7585 12.1869 12.799C12.1655 12.834 12.166 12.8362 12.1968 12.8442C12.2129 12.8484 12.2284 12.8602 12.2369 12.8749C12.2704 12.9329 12.2605 12.9687 12.2109 12.9691C12.1659 12.9695 12.1535 12.9759 12.1414 13.005C12.135 13.0201 12.1299 13.0362 12.1299 13.0409C12.1299 13.0531 12.1469 13.051 12.1626 13.0369Z" fill="#F7E017"/>
<path d="M12.0726 12.9706C12.0811 12.9476 12.0841 12.9062 12.0831 12.8218C12.0825 12.7576 12.0799 12.7031 12.0774 12.7006C12.0699 12.6931 12.0329 12.717 12.0281 12.7323C12.0256 12.7403 12.0297 12.7588 12.0372 12.7733C12.0487 12.7957 12.0502 12.8166 12.0467 12.9042C12.0422 13.015 12.0494 13.0336 12.0726 12.9706Z" fill="#F7E017"/>
<path d="M11.8619 12.9187C11.8664 12.8981 11.8721 12.8558 11.8747 12.825C11.8774 12.7941 11.8837 12.7551 11.8887 12.7382C11.9015 12.695 11.8886 12.6836 11.8545 12.7078L11.8291 12.726L11.8344 12.7881C11.8392 12.8441 11.8304 12.9485 11.8175 12.989C11.814 12.9997 11.819 12.997 11.8331 12.9805C11.8445 12.9672 11.8575 12.9393 11.8619 12.9187Z" fill="#F7E017"/>
<path d="M11.6742 12.948C11.7198 12.9098 11.7146 12.8446 11.7247 12.7915C11.7237 12.7562 11.7473 12.7138 11.732 12.6829C11.6894 12.6907 11.6631 12.7311 11.6849 12.7714C11.6867 12.8181 11.6851 12.869 11.6611 12.9103C11.6414 12.9373 11.5793 12.9306 11.5821 12.8923C11.5977 12.8347 11.5288 12.8627 11.5018 12.8778C11.481 12.8923 11.437 12.8934 11.4523 12.8571C11.4422 12.8088 11.3801 12.839 11.3463 12.8388C11.3144 12.8382 11.3437 12.7742 11.2979 12.7854C11.2128 12.7787 11.1189 12.7862 11.0453 12.7348C11.0021 12.714 11.0085 12.6622 11.031 12.6286C11.0578 12.5828 11.0654 12.5255 11.108 12.49C11.1501 12.4496 11.0683 12.4667 11.0498 12.4803C11.0088 12.5027 11.0469 12.5605 11.0133 12.5926C10.9937 12.6259 10.9679 12.6718 10.9225 12.6655C10.857 12.6531 10.8192 12.5922 10.7722 12.5513C10.732 12.5433 10.7546 12.6166 10.7754 12.632C10.8165 12.6628 10.8645 12.6852 10.9141 12.6985C10.9634 12.6906 10.965 12.7552 11.0071 12.7653C11.0845 12.8013 11.1707 12.8121 11.255 12.8165C11.2882 12.8193 11.2695 12.8783 11.3131 12.8667C11.3374 12.873 11.3924 12.8576 11.3952 12.8859C11.3583 12.9297 11.4306 12.9287 11.4574 12.9209C11.4917 12.9156 11.5355 12.9025 11.5445 12.9495C11.5731 12.9797 11.6257 12.9752 11.6605 12.958C11.6654 12.9551 11.67 12.9518 11.6742 12.948L11.6742 12.948Z" fill="#F7E017"/>
<path d="M10.9269 12.5703C10.9407 12.5527 10.9615 12.5171 10.973 12.4911C10.9844 12.465 11.0015 12.4353 11.0109 12.4252C11.0329 12.4015 11.0206 12.3868 10.9851 12.3947C10.9664 12.3988 10.9587 12.4057 10.9556 12.422C10.945 12.475 10.9257 12.5292 10.9086 12.5545C10.8776 12.6002 10.8769 12.6021 10.8896 12.6021C10.8962 12.6021 10.913 12.5878 10.9269 12.5703Z" fill="#F7E017"/>
<path d="M10.4588 12.2754C10.4238 12.2754 10.4223 12.2975 10.4564 12.3094C10.4729 12.3151 10.4869 12.329 10.4981 12.3516C10.5314 12.4178 10.5509 12.4295 10.6391 12.4371L10.6958 12.4423L10.6985 12.4766C10.6999 12.4956 10.7044 12.5114 10.7088 12.5114C10.7131 12.5114 10.735 12.5019 10.7571 12.4906C10.7986 12.4696 10.838 12.4206 10.838 12.3903C10.838 12.3704 10.8049 12.3489 10.7748 12.3489C10.7614 12.3489 10.7359 12.3596 10.7158 12.3743C10.6528 12.4199 10.5854 12.4106 10.5485 12.3513C10.5183 12.3023 10.4866 12.2754 10.4588 12.2754ZM10.7645 12.3973C10.7813 12.3973 10.7854 12.4096 10.7763 12.4333C10.77 12.4495 10.7496 12.45 10.7435 12.434C10.7363 12.4151 10.7464 12.3973 10.7645 12.3973Z" fill="#F7E017"/>
<path d="M13.1355 12.3204C13.1126 12.3212 13.1058 12.3262 13.0913 12.3477C13.0676 12.383 13.0652 12.4594 13.0871 12.4864C13.1007 12.5031 13.1027 12.5035 13.1316 12.4915C13.1718 12.4746 13.1786 12.4752 13.1785 12.4969C13.1782 12.5521 13.099 12.6586 13.016 12.7152C12.9936 12.7305 12.9736 12.7475 12.9715 12.7531C12.9655 12.7689 12.9962 12.7654 13.034 12.7461C13.0855 12.7199 13.1531 12.6509 13.1808 12.5965C13.2028 12.5531 13.206 12.5384 13.2086 12.4625C13.211 12.3926 13.2091 12.3721 13.1972 12.3489C13.184 12.3227 13.1797 12.3204 13.1465 12.3204C13.1425 12.3204 13.1388 12.3202 13.1355 12.3204ZM13.1382 12.3691C13.1555 12.3691 13.1585 12.373 13.1605 12.3977C13.1622 12.4182 13.1586 12.4307 13.1472 12.441C13.1317 12.455 13.1305 12.4549 13.1167 12.434C13.0975 12.4045 13.1093 12.3691 13.1382 12.3691Z" fill="#F7E017"/>
<path d="M12.7589 12.9041C12.832 12.8681 12.8751 12.8276 12.9029 12.769C12.916 12.7411 12.9268 12.7149 12.9268 12.7104C12.9268 12.7002 12.8908 12.6835 12.8691 12.6835C12.8476 12.6835 12.8433 12.6686 12.8525 12.6275C12.8615 12.5874 12.8506 12.5371 12.833 12.5371C12.8266 12.5371 12.8154 12.5465 12.8079 12.5579C12.7964 12.5755 12.7958 12.583 12.8043 12.6086C12.8168 12.6466 12.8069 12.675 12.7729 12.6992C12.7568 12.7107 12.7479 12.724 12.7479 12.7369C12.7479 12.7477 12.7493 12.7566 12.7509 12.7566C12.7526 12.7566 12.7704 12.7474 12.7904 12.7362L12.8269 12.7159L12.8484 12.7327C12.8601 12.742 12.8699 12.7571 12.8699 12.7664C12.8699 12.8109 12.743 12.8856 12.6559 12.8926C12.6095 12.8964 12.6016 12.8947 12.5855 12.8787C12.5724 12.8656 12.5686 12.8546 12.5719 12.8391C12.5744 12.8272 12.5789 12.8056 12.5819 12.7911C12.5899 12.7524 12.5733 12.7576 12.5445 12.8029C12.5209 12.8402 12.5139 12.8801 12.5271 12.9011C12.538 12.9182 12.6103 12.9346 12.6614 12.9315C12.6935 12.9296 12.7253 12.9206 12.7589 12.9041Z" fill="#F7E017"/>
<path d="M13.2475 12.6305C13.2935 12.5846 13.313 12.5288 13.3132 12.4424L13.3134 12.3775L13.3514 12.3595C13.4007 12.336 13.4475 12.2893 13.4475 12.2633C13.4475 12.2365 13.4356 12.2379 13.4141 12.267C13.3985 12.2881 13.3776 12.3009 13.3012 12.336C13.282 12.3449 13.2807 12.3496 13.2764 12.4304C13.2712 12.5235 13.2586 12.5584 13.2066 12.622C13.1747 12.6608 13.1736 12.6659 13.1957 12.6659C13.2049 12.6659 13.2281 12.65 13.2475 12.6305Z" fill="#F7E017"/>
<path d="M12.7464 12.579C12.7508 12.5657 12.7254 12.5562 12.7144 12.567C12.7098 12.5717 12.7086 12.5797 12.7117 12.5848C12.7189 12.5964 12.7419 12.5925 12.7464 12.579Z" fill="#F7E017"/>
<path d="M13.4369 12.3995C13.4414 12.3862 13.4159 12.3767 13.405 12.3875C13.4002 12.3923 13.399 12.4003 13.4021 12.4054C13.4094 12.417 13.4324 12.4132 13.4369 12.3995Z" fill="#F7E017"/>
<path d="M12.6057 11.916C12.5878 11.9245 12.5785 11.9438 12.5661 11.9585C12.5572 11.9646 12.5643 11.9703 12.5695 11.976C12.601 12.0099 12.6143 12.0558 12.6293 12.0986C12.644 12.1491 12.6626 12.2033 12.6472 12.2559C12.6411 12.2761 12.6253 12.297 12.6016 12.2903C12.5637 12.2879 12.5264 12.2778 12.4885 12.2782C12.4546 12.28 12.4285 12.3108 12.3939 12.3074C12.3719 12.3089 12.3728 12.2622 12.3523 12.2747C12.3421 12.299 12.3471 12.3262 12.3459 12.3519C12.3497 12.3556 12.3605 12.3524 12.3669 12.3535H12.435C12.4398 12.377 12.4392 12.4039 12.4561 12.4226C12.4797 12.431 12.5063 12.4238 12.5287 12.4146C12.5528 12.4034 12.556 12.3744 12.5628 12.3519C12.57 12.3276 12.6018 12.334 12.6205 12.3245C12.6663 12.3111 12.6963 12.2635 12.6936 12.2166C12.6907 12.1451 12.6634 12.0778 12.6427 12.0101C12.6323 11.9803 12.625 11.9492 12.613 11.9201C12.6115 11.9176 12.6086 11.9155 12.6057 11.916L12.6057 11.916ZM12.4923 12.325C12.5177 12.3233 12.5288 12.3546 12.5234 12.3753C12.5139 12.4035 12.4792 12.3854 12.4722 12.3651C12.4593 12.347 12.4673 12.3226 12.4923 12.325L12.4923 12.325Z" fill="#F7E017"/>
<path d="M11.5495 12.0899C11.5381 12.0896 11.5254 12.0939 11.5128 12.1027C11.4464 12.1492 11.4294 12.2042 11.4745 12.2257C11.5076 12.2416 11.4993 12.2602 11.4471 12.2864C11.3725 12.3236 11.3066 12.319 11.1815 12.2672C11.1508 12.2545 11.1428 12.2594 11.1499 12.2875C11.1568 12.3151 11.182 12.3302 11.2448 12.3445C11.3123 12.36 11.3939 12.355 11.4464 12.3324C11.472 12.3214 11.5024 12.2982 11.528 12.2704L11.5686 12.2257L11.6159 12.2316C11.6741 12.2387 11.6753 12.2394 11.6753 12.2672C11.6753 12.2894 11.6765 12.2899 11.73 12.2949C11.7601 12.2977 11.7998 12.3004 11.8183 12.3004C11.8419 12.3005 11.8553 12.3046 11.8631 12.3156C11.8736 12.3302 11.8799 12.331 11.9679 12.3231C12.0501 12.3156 12.0663 12.3162 12.1034 12.3289C12.1298 12.3379 12.1588 12.3415 12.1808 12.3391C12.2438 12.332 12.3306 12.2805 12.3433 12.2426C12.3448 12.238 12.3676 12.2299 12.394 12.2246C12.4576 12.2119 12.4604 12.198 12.401 12.1906C12.3753 12.1874 12.3366 12.178 12.3151 12.1695C12.2935 12.161 12.264 12.1539 12.2495 12.1539C12.2175 12.1539 12.1874 12.1739 12.1874 12.1945C12.1874 12.208 12.1921 12.2094 12.23 12.2055C12.2656 12.2019 12.276 12.2039 12.2948 12.2187C12.3071 12.2285 12.3154 12.24 12.3128 12.2441C12.3044 12.2577 12.23 12.2916 12.1971 12.2969C12.1751 12.3004 12.1574 12.298 12.1401 12.2891C12.1113 12.2741 12.0688 12.2719 12.0608 12.2847C12.0574 12.2904 12.0483 12.2867 12.0358 12.275L12.0163 12.2566L11.9721 12.275C11.9273 12.2936 11.9108 12.2929 11.9108 12.2715C11.9108 12.2617 11.8976 12.2606 11.8315 12.2649C11.7586 12.2696 11.751 12.2684 11.7374 12.2531C11.7248 12.2391 11.7245 12.2342 11.7335 12.2199C11.7418 12.2066 11.7418 12.2009 11.7339 12.193C11.726 12.1851 11.7158 12.1852 11.687 12.193C11.6145 12.2124 11.594 12.2015 11.594 12.1449C11.594 12.1109 11.5745 12.0902 11.5495 12.0899ZM11.5315 12.1419C11.5354 12.1419 11.5386 12.1442 11.5436 12.1492C11.55 12.1556 11.5534 12.1667 11.5506 12.1739C11.5441 12.1907 11.5134 12.1901 11.5069 12.1731C11.5038 12.1649 11.5078 12.1556 11.517 12.1489C11.5235 12.1441 11.5276 12.1417 11.5315 12.1419Z" fill="#F7E017"/>
<path d="M11.4012 12.1958C11.4453 12.1678 11.4443 12.17 11.4507 12.0922C11.4551 12.0373 11.4543 12.0332 11.4394 12.0332C11.4178 12.0332 11.4066 12.057 11.4066 12.1022C11.4066 12.1312 11.4021 12.1442 11.3866 12.1596C11.3498 12.1963 11.2586 12.1796 11.2471 12.134C11.2432 12.1183 11.2482 12.1042 11.2673 12.0771C11.3072 12.0205 11.2982 12.0066 11.2493 12.0496C11.2157 12.079 11.2097 12.0798 11.2161 12.0545C11.222 12.0311 11.2097 12.0218 11.1823 12.0287C11.1683 12.0322 11.1607 12.041 11.1573 12.058C11.1541 12.0746 11.1464 12.0838 11.1332 12.0871C11.1111 12.0927 11.0733 12.0717 11.0733 12.0538C11.0733 12.0406 11.1298 11.9716 11.2023 11.8963C11.2297 11.8678 11.2521 11.8413 11.2521 11.8373C11.2521 11.8333 11.2375 11.8301 11.2196 11.8301C11.1935 11.8301 11.1871 11.833 11.1871 11.8451C11.1871 11.8533 11.1506 11.9012 11.1058 11.9516C11.0126 12.0566 11.0048 12.0785 11.051 12.1065C11.0881 12.1292 11.1357 12.1275 11.1731 12.1021L11.2033 12.0815V12.1188C11.2033 12.1666 11.2128 12.1837 11.2503 12.2036C11.2975 12.2285 11.3544 12.2255 11.4012 12.1958Z" fill="#F7E017"/>
<path d="M13.3583 11.5469C13.3237 11.5675 13.3508 11.6109 13.356 11.6397C13.3419 11.6791 13.2914 11.6897 13.2546 11.697C13.2024 11.7056 13.1654 11.7492 13.1456 11.7956C13.1348 11.8257 13.1089 11.8724 13.0806 11.8266C13.056 11.8016 13.0108 11.7819 12.9817 11.811C12.9596 11.832 12.954 11.8629 12.9458 11.891C12.9328 11.8694 12.9269 11.8373 12.8993 11.8305C12.8552 11.8367 12.8712 11.8923 12.8919 11.9152C12.9107 11.9419 12.9288 11.9772 12.9104 12.0089C12.8941 12.0471 12.8377 12.0728 12.8047 12.0402C12.7738 12.0239 12.7944 11.9656 12.764 11.9624C12.7489 11.9733 12.7477 12.0342 12.7236 12.0012C12.7062 11.973 12.7154 11.9343 12.6942 11.9089C12.669 11.912 12.6488 11.9553 12.6572 11.9785C12.6907 12.0237 12.7045 12.0805 12.7176 12.1344C12.7257 12.1559 12.7164 12.1997 12.7366 12.2082C12.7506 12.1735 12.7376 12.1341 12.7486 12.099C12.7813 12.0949 12.8177 12.1099 12.852 12.1019C12.9011 12.0955 12.9391 12.0541 12.9563 12.01C12.9615 11.9768 12.9553 11.9431 12.9544 11.9098C12.9932 11.9158 13.0335 11.9157 13.0708 11.9283C13.0893 11.9566 13.065 11.9964 13.0598 12.0274C13.0404 12.0905 12.9909 12.1364 12.9428 12.1786C12.9226 12.1905 12.9199 12.2221 12.9497 12.2051C13.0143 12.1774 13.0625 12.1188 13.0903 12.0554C13.1105 12.0067 13.0942 11.9524 13.1074 11.9025C13.127 11.865 13.174 11.8729 13.2087 11.873C13.2447 11.8717 13.2754 11.8297 13.2634 11.7948C13.252 11.7542 13.2949 11.7346 13.3242 11.7201C13.3631 11.7005 13.393 11.6606 13.39 11.6156C13.3884 11.5926 13.3895 11.549 13.3583 11.5469L13.3583 11.5469ZM13.2204 11.7812C13.2621 11.7923 13.2129 11.8719 13.1907 11.8215C13.1839 11.8022 13.2001 11.7806 13.2204 11.7812ZM13.0271 11.8382C13.0813 11.8351 13.0618 11.9143 13.016 11.8783C12.9922 11.8664 13.0001 11.8368 13.0271 11.8382Z" fill="#F7E017"/>
<path d="M11.0644 12.1444C11.0659 12.1365 11.0619 12.1309 11.0547 12.1309C11.0396 12.1309 11.0305 12.1441 11.0376 12.1556C11.045 12.1675 11.0612 12.1607 11.0644 12.1444Z" fill="#F7E017"/>
<path d="M11.6993 12.0731C11.6993 12.0615 11.6949 12.0571 11.6852 12.059C11.6639 12.063 11.6616 12.09 11.6824 12.09C11.6941 12.09 11.6993 12.0848 11.6993 12.0731Z" fill="#F7E017"/>
<path d="M10.9134 11.6902C10.888 11.685 10.872 11.7065 10.8634 11.727C10.8444 11.7588 10.8212 11.7914 10.7872 11.8083C10.7627 11.8151 10.736 11.8058 10.7149 11.7932C10.6897 11.7807 10.6955 11.7504 10.6847 11.7294C10.6664 11.7151 10.6342 11.7356 10.6349 11.7578C10.6329 11.7877 10.6608 11.8049 10.6839 11.8164C10.7036 11.8285 10.7321 11.8352 10.74 11.8596C10.7395 11.8803 10.7478 11.904 10.7731 11.896C10.8013 11.8956 10.8086 11.93 10.7972 11.9506C10.7856 11.9739 10.7778 12.0011 10.7833 12.0271C10.7968 12.0384 10.8106 12.0079 10.8204 11.9992C10.827 11.9904 10.8337 11.9815 10.8403 11.9727C10.8903 11.9754 10.9402 11.9818 10.9903 11.98C11.0259 11.9793 11.0563 11.9573 11.0789 11.9315C11.111 11.898 11.1373 11.8587 11.1739 11.8298C11.2 11.8234 11.186 11.7743 11.1588 11.7885C11.1342 11.7977 11.1265 11.8254 11.1095 11.8431C11.0806 11.8781 11.0511 11.9136 11.0146 11.9411C10.9881 11.9521 10.9575 11.9473 10.9302 11.9411C10.9188 11.9311 10.9528 11.923 10.9576 11.912C10.9732 11.8963 10.9918 11.8815 11.0009 11.8609C10.9922 11.842 10.9656 11.8405 10.9469 11.8401C10.9009 11.8456 10.8657 11.8843 10.8192 11.8879C10.7838 11.8892 10.8022 11.8509 10.8181 11.8379C10.8493 11.8009 10.8829 11.7661 10.9155 11.7303C10.9247 11.7192 10.9581 11.7086 10.9367 11.693C10.9293 11.6904 10.9212 11.6904 10.9134 11.6902L10.9134 11.6902ZM10.936 11.8774C10.9592 11.8904 10.9212 11.9118 10.9052 11.9089C10.8841 11.9152 10.8838 11.8937 10.9024 11.8895C10.9129 11.884 10.924 11.8783 10.936 11.8774ZM10.8645 11.9262C10.8777 11.9259 10.9055 11.9386 10.8794 11.9468C10.8613 11.9608 10.8409 11.9325 10.8645 11.9262Z" fill="#F7E017"/>
<path d="M11.4273 11.9592C11.4273 11.9416 11.3957 11.9441 11.3922 11.962C11.39 11.9735 11.3936 11.9762 11.4083 11.9741C11.4188 11.9726 11.4273 11.966 11.4273 11.9592Z" fill="#F7E017"/>
<path d="M12.8279 11.8354C12.8311 11.8186 12.8076 11.8073 12.7953 11.8197C12.7829 11.8321 12.7943 11.8556 12.811 11.8523C12.8188 11.8508 12.8264 11.8432 12.8279 11.8354Z" fill="#F7E017"/>
<path d="M10.648 11.6636C10.67 11.6447 10.6703 11.6434 10.6608 11.6019C10.6473 11.5438 10.6481 11.5376 10.6703 11.5321C10.6983 11.5249 10.7694 11.5631 10.7851 11.5936C10.7974 11.6172 10.797 11.6188 10.7763 11.6381C10.7539 11.6587 10.754 11.6828 10.7764 11.6828C10.7949 11.6828 10.846 11.6344 10.846 11.6171C10.846 11.5929 10.7893 11.5359 10.7444 11.5151C10.7166 11.5021 10.6889 11.4961 10.6568 11.4959C10.5993 11.4959 10.5915 11.5083 10.607 11.5752C10.6253 11.6536 10.6005 11.6642 10.5374 11.6051C10.4905 11.5612 10.472 11.5156 10.4723 11.4437C10.4724 11.3666 10.5019 11.3284 10.5684 11.3194C10.6125 11.3136 10.6114 11.3032 10.566 11.2964C10.4998 11.2864 10.4438 11.3307 10.4225 11.4097C10.3989 11.4973 10.453 11.6041 10.5488 11.6591C10.5989 11.6878 10.6189 11.6887 10.648 11.6636Z" fill="#F7E017"/>
<path d="M13.2581 11.5667C13.2635 11.5613 13.2679 11.5492 13.2679 11.5398C13.2679 11.5304 13.277 11.5103 13.2881 11.4952C13.2994 11.48 13.3085 11.4645 13.3085 11.4608C13.3085 11.4454 13.2831 11.4459 13.2631 11.4618C13.2426 11.4778 13.2272 11.4782 13.2272 11.4625C13.2272 11.4587 13.237 11.4507 13.249 11.4448C13.2787 11.4303 13.2812 11.4159 13.2561 11.4044C13.2239 11.3898 13.1915 11.4165 13.1881 11.4607C13.186 11.4902 13.1884 11.4953 13.2111 11.5087C13.2319 11.5209 13.2357 11.5274 13.2322 11.5449C13.2262 11.5753 13.2389 11.5859 13.2581 11.5667Z" fill="#F7E017"/>
<path d="M13.5039 11.5404C13.5219 11.5242 13.5365 11.5059 13.5365 11.4997C13.5365 11.4936 13.552 11.4774 13.571 11.4637C13.6249 11.425 13.6367 11.3859 13.6126 11.3257C13.6032 11.3021 13.5737 11.2695 13.5096 11.2117C13.4604 11.1672 13.415 11.1309 13.4091 11.1309C13.3916 11.1309 13.3947 11.1952 13.4125 11.2009C13.4445 11.2111 13.4639 11.2242 13.5142 11.2696C13.5727 11.3225 13.5997 11.3719 13.585 11.3994C13.5709 11.426 13.5521 11.4177 13.5005 11.3624C13.4734 11.3332 13.4465 11.3095 13.441 11.3095C13.435 11.3096 13.4307 11.3201 13.4307 11.3349C13.4307 11.3534 13.4406 11.371 13.4674 11.4007C13.511 11.4492 13.5152 11.4784 13.4825 11.5041C13.4707 11.5134 13.4586 11.521 13.4556 11.521C13.4527 11.521 13.4431 11.5065 13.4344 11.4889C13.4161 11.4519 13.3045 11.334 13.2877 11.334C13.2801 11.334 13.2764 11.3435 13.2764 11.3622C13.2764 11.3849 13.2809 11.3929 13.2989 11.4021C13.321 11.4136 13.3757 11.4687 13.4307 11.5352C13.4465 11.5542 13.462 11.5696 13.4654 11.5697C13.4686 11.5697 13.486 11.5565 13.5039 11.5404Z" fill="#F7E017"/>
<path d="M13.6132 11.2263C13.606 11.203 13.4562 11.0488 13.4409 11.0488C13.4329 11.0488 13.4304 11.0583 13.4322 11.0828C13.4344 11.1126 13.4376 11.1177 13.4581 11.1231C13.4709 11.1265 13.5104 11.1575 13.5457 11.1918C13.581 11.2262 13.612 11.2523 13.6145 11.2497C13.617 11.2472 13.6165 11.2367 13.6132 11.2263Z" fill="#F7E017"/>
<path d="M12.7193 12.9618C12.7193 12.9672 12.717 12.9724 12.7128 12.9762C12.7086 12.9801 12.703 12.9822 12.6971 12.9822C12.6912 12.9822 12.6855 12.9801 12.6813 12.9762C12.6771 12.9724 12.6748 12.9672 12.6748 12.9618C12.6748 12.9564 12.6771 12.9512 12.6813 12.9474C12.6855 12.9436 12.6912 12.9414 12.6971 12.9414C12.703 12.9414 12.7086 12.9436 12.7128 12.9474C12.717 12.9512 12.7193 12.9564 12.7193 12.9618Z" fill="#F7E017"/>
<path d="M12.7974 12.9345C12.7974 12.9399 12.7951 12.9451 12.7909 12.9489C12.7868 12.9527 12.7811 12.9549 12.7752 12.9549C12.7693 12.9549 12.7636 12.9527 12.7594 12.9489C12.7553 12.9451 12.7529 12.9399 12.7529 12.9345C12.7529 12.9291 12.7553 12.9239 12.7594 12.92C12.7636 12.9162 12.7693 12.9141 12.7752 12.9141C12.7811 12.9141 12.7868 12.9162 12.7909 12.92C12.7951 12.9239 12.7974 12.9291 12.7974 12.9345Z" fill="#F7E017"/>
<path d="M20 6L20 18L4 18L4 6L20 6ZM20 5L4 5C3.4 5 3 5.4 3 6L3 18C3 18.6 3.4 19 4 19L20 19C20.6 19 21 18.6 21 18L21 6C21 5.4 20.6 5 20 5Z" fill="#B5B5B5"/>
</svg>
