<svg width="24" height="24" viewBox="0 0 24 24" fill="none" xmlns="http://www.w3.org/2000/svg">
<path d="M20 6H4V18H20V6Z" fill="#FF0000"/>
<path d="M16 6H8V18H16V6Z" fill="white"/>
<path d="M11.9999 8.84375L11.3858 9.98901C11.3161 10.1135 11.1913 10.1019 11.0665 10.0324L10.6219 9.80222L10.9533 11.5613C11.0229 11.8827 10.7994 11.8827 10.6891 11.7437L9.91324 10.8752L9.78729 11.3163C9.77276 11.3742 9.7089 11.435 9.61309 11.4205L8.63206 11.2143L8.88973 12.1511C8.94489 12.3595 8.98792 12.4458 8.83405 12.5008L8.48438 12.6651L10.1732 14.0369C10.24 14.0888 10.2738 14.1821 10.25 14.2666L10.1022 14.7517C10.6836 14.6846 11.2047 14.5838 11.7864 14.5217C11.8378 14.5162 11.9238 14.601 11.9234 14.6605L11.8464 16.4375H12.1291L12.0846 14.6643C12.0842 14.6048 12.1622 14.5162 12.2136 14.5217C12.7953 14.5838 13.3164 14.6846 13.8978 14.7517L13.75 14.2666C13.7262 14.1821 13.76 14.0888 13.8268 14.0369L15.5156 12.6651L15.166 12.5008C15.0121 12.4458 15.0551 12.3595 15.1103 12.1511L15.3679 11.2143L14.3869 11.4205C14.2911 11.435 14.2272 11.3742 14.2127 11.3163L14.0868 10.8752L13.3109 11.7437C13.2006 11.8827 12.9771 11.8827 13.0467 11.5613L13.3781 9.80222L12.9335 10.0324C12.8087 10.1019 12.6839 10.1135 12.6142 9.98901" fill="#FF0000"/>
<path d="M20 6L20 18L4 18L4 6L20 6ZM20 5L4 5C3.4 5 3 5.4 3 6L3 18C3 18.6 3.4 19 4 19L20 19C20.6 19 21 18.6 21 18L21 6C21 5.4 20.6 5 20 5Z" fill="#B5B5B5"/>
</svg>
