<svg width="24" height="24" viewBox="0 0 24 24" fill="none" xmlns="http://www.w3.org/2000/svg">
<path d="M20 6H4V16H20V6Z" fill="#00247D"/>
<path d="M4 6L14 11L4 6ZM14 6L4 11L14 6Z" fill="black"/>
<path d="M4 6L14 11M14 6L4 11" stroke="white" stroke-width="1.5"/>
<path d="M4 6L14 11L4 6ZM14 6L4 11L14 6Z" fill="black"/>
<path d="M4 6L14 11M14 6L4 11" stroke="#CF142B"/>
<path d="M9 6V11.8333V6ZM4 8.5H15.6667H4Z" fill="black"/>
<path d="M9 6V11.8333M4 8.5H15.6667" stroke="white" stroke-width="1.5"/>
<path d="M9 6V11.8333V6ZM4 8.5H15.6667H4Z" fill="black"/>
<path d="M9 6V11.8333M4 8.5H15.6667" stroke="#CF142B"/>
<path d="M4 11H14V6H20V18H4L4 11Z" fill="#00247D"/>
<path d="M14.5737 16.4936C14.6216 16.6214 14.9651 16.7892 15.3644 16.5735C15.636 16.4218 15.8117 16.2061 15.9794 15.8227C16.0274 15.7269 16.0513 15.6071 15.9395 15.5352C15.8516 15.4713 15.7079 15.3994 15.644 15.3355C15.612 15.3035 15.5801 15.2796 15.5561 15.2556C15.5721 15.2716 15.5881 15.2876 15.604 15.3115C15.7638 15.5032 15.5961 15.7828 15.4203 15.9505C15.2925 16.0703 15.0609 16.3658 14.7254 16.0863C14.6536 16.0224 14.4858 16.286 14.5737 16.4936L14.5737 16.4936Z" fill="#FCEA83" stroke="black" stroke-width="0.03"/>
<path d="M19.4295 16.4936C19.3736 16.6214 19.0301 16.7892 18.6387 16.5735C18.3672 16.4218 18.1915 16.2061 18.0157 15.8227C17.9758 15.7269 17.9518 15.6071 18.0637 15.5352C18.1515 15.4713 18.2953 15.3994 18.3592 15.3355C18.3911 15.3035 18.4151 15.2796 18.447 15.2556C18.4311 15.2716 18.4151 15.2876 18.3991 15.3115C18.2394 15.5032 18.4071 15.7828 18.5748 15.9505C18.7026 16.0703 18.9423 16.3658 19.2777 16.0863C19.3496 16.0224 19.5094 16.286 19.4295 16.4936V16.4936Z" fill="#FCEA83" stroke="black" stroke-width="0.03"/>
<path d="M17.0021 17.1806C17.6411 17.1806 18.6235 16.893 19.1507 15.8866C19.2386 15.7189 19.1507 15.631 19.0469 15.5751C18.935 15.5272 18.7993 15.4154 18.7274 15.3435C18.8552 15.4713 18.8312 15.5592 18.7433 15.7029C18.336 16.3818 17.7769 16.7253 17.0021 16.7253C16.2274 16.7253 15.6683 16.3818 15.2609 15.7029C15.1731 15.5592 15.1491 15.4713 15.2689 15.3435C15.205 15.4154 15.0612 15.5272 14.9494 15.5751C14.8456 15.631 14.7577 15.7189 14.8456 15.8866C15.3727 16.893 16.3632 17.1806 17.0021 17.1806H17.0021Z" fill="#FCEA83" stroke="black" stroke-width="0.03"/>
<path d="M15.524 15.8307C15.5081 15.7509 15.4042 15.7828 15.3723 15.8787C15.3323 15.8227 15.2924 15.7668 15.2605 15.7029C15.1646 15.5592 15.1486 15.4633 15.2844 15.3275C15.3483 15.2636 15.4761 15.1918 15.564 15.2716C15.7477 15.4234 15.6518 15.671 15.524 15.8307V15.8307Z" fill="#DB161C" stroke="black" stroke-width="0.03"/>
<path d="M18.4706 15.8307C18.4866 15.7509 18.5984 15.7828 18.6304 15.8787C18.6703 15.8227 18.7102 15.7668 18.7422 15.7029C18.838 15.5592 18.854 15.4633 18.7102 15.3275C18.6543 15.2636 18.5265 15.1918 18.4307 15.2716C18.255 15.4234 18.3428 15.671 18.4706 15.8307L18.4706 15.8307Z" fill="#DB161C" stroke="black" stroke-width="0.03"/>
<path d="M14.5732 16.4931C14.4933 16.3733 14.4295 16.0618 14.4135 15.9819C14.3895 15.91 14.3815 15.8461 14.4694 15.8142C14.5572 15.7822 14.6371 15.894 14.6771 15.9899C14.717 16.0857 14.7809 16.2295 14.8528 16.4052C14.6771 16.3014 14.5333 16.3733 14.5732 16.4931H14.5732Z" fill="#DB161C" stroke="black" stroke-width="0.03"/>
<path d="M19.429 16.4931C19.5009 16.3733 19.5648 16.0618 19.5887 15.9819C19.6047 15.91 19.6207 15.8461 19.5328 15.8142C19.4449 15.7822 19.3651 15.894 19.3251 15.9899C19.2852 16.0857 19.2213 16.2295 19.1494 16.4052C19.3251 16.3014 19.4609 16.3733 19.429 16.4931Z" fill="#DB161C" stroke="black" stroke-width="0.03"/>
<path d="M15.0368 15.7738L14.9729 15.8057C14.9569 15.8137 14.9569 15.8297 14.9569 15.8377H14.9489L14.917 15.7658H14.925C14.925 15.7738 14.933 15.7817 14.9489 15.7738L15.0847 15.7019C15.1007 15.6939 15.1007 15.6859 15.0927 15.6779L15.1007 15.6699L15.1406 15.7498H15.1326C15.1247 15.7418 15.1167 15.7338 15.1007 15.7418L15.0448 15.7738L15.0688 15.8217L15.1326 15.7977C15.1486 15.7897 15.1406 15.7738 15.1406 15.7658H15.1486L15.1806 15.8377C15.1726 15.8297 15.1646 15.8217 15.1486 15.8297L15.0128 15.9016C14.9969 15.9095 14.9969 15.9175 15.0049 15.9255L14.9969 15.9335L14.9569 15.8616L14.9649 15.8536C14.9729 15.8616 14.9809 15.8696 14.9969 15.8616L15.0608 15.8297L15.0368 15.7738Z" fill="#00493D"/>
<path d="M15.1724 15.8777C15.1884 15.8697 15.1884 15.8617 15.1804 15.8457H15.1884L15.2683 15.9655L15.2124 16.0054V15.9975C15.2443 15.9735 15.2443 15.9416 15.2363 15.9336C15.2284 15.9256 15.2204 15.9176 15.2204 15.9096C15.2124 15.9096 15.2124 15.9016 15.1964 15.9176C15.1884 15.9256 15.1405 15.9575 15.1405 15.9575C15.1485 15.9655 15.1565 15.9895 15.1964 15.9655H15.2044L15.1165 16.0294V16.0214C15.1565 15.9895 15.1405 15.9655 15.1325 15.9575L15.0766 15.9975C15.0606 16.0054 15.0606 16.0134 15.0606 16.0214C15.0686 16.0214 15.0686 16.0294 15.0766 16.0374C15.0846 16.0534 15.1085 16.0693 15.1485 16.0534L15.1565 16.0614L15.0926 16.0853L15.0127 15.9575H15.0207C15.0287 15.9655 15.0367 15.9735 15.0526 15.9655L15.1724 15.8777Z" fill="#00493D"/>
<path d="M15.3005 16.1823L15.2446 16.2302C15.2366 16.2382 15.2366 16.2542 15.2446 16.2622H15.2366L15.1807 16.2063L15.1887 16.1983C15.1966 16.2063 15.2046 16.2143 15.2206 16.1983L15.3244 16.0944C15.3404 16.0865 15.3404 16.0785 15.3324 16.0625L15.3883 16.1264C15.3803 16.1184 15.3644 16.1184 15.3564 16.1264L15.3085 16.1743L15.3484 16.2143L15.3963 16.1743C15.4123 16.1583 15.4043 16.1504 15.3963 16.1424L15.4043 16.1344L15.4602 16.1983H15.4522C15.4442 16.1983 15.4363 16.1903 15.4203 16.2063L15.3164 16.3021C15.3005 16.3181 15.3005 16.3261 15.3085 16.3341V16.3421L15.2526 16.2782C15.2605 16.2782 15.2765 16.2861 15.2845 16.2782L15.3404 16.2222L15.3005 16.1823Z" fill="#00493D"/>
<path d="M15.4201 16.3493L15.444 16.3733C15.476 16.3014 15.476 16.3014 15.476 16.3014C15.476 16.3014 15.452 16.3094 15.4121 16.3334L15.4201 16.3493L15.4121 16.3573L15.3961 16.3413C15.3881 16.3493 15.3801 16.3493 15.3721 16.3573C15.3482 16.3733 15.3562 16.3813 15.3642 16.3893V16.3973L15.3242 16.3573H15.3322L15.3642 16.3493C15.5239 16.2615 15.5239 16.2615 15.5239 16.2615L15.5319 16.2695C15.5319 16.2695 15.5239 16.2774 15.452 16.4372C15.452 16.4532 15.444 16.4612 15.452 16.4771L15.3881 16.4212L15.3961 16.4132C15.4041 16.4292 15.4201 16.4292 15.4281 16.4132C15.4281 16.4052 15.436 16.3893 15.436 16.3813L15.4121 16.3573L15.4201 16.3493V16.3493Z" fill="#00493D"/>
<path d="M15.4844 16.5099L15.4924 16.5019C15.5003 16.5099 15.5083 16.5099 15.5243 16.5019L15.6281 16.3661L15.6202 16.3581C15.6042 16.3501 15.5802 16.3501 15.5563 16.3741V16.3661L15.5882 16.3262L15.708 16.414L15.6681 16.462H15.6601C15.6841 16.438 15.6761 16.406 15.6601 16.3981V16.3901L15.5563 16.5259C15.5403 16.5338 15.5483 16.5498 15.5563 16.5578H15.5483L15.4844 16.5099Z" fill="#00493D"/>
<path d="M15.6917 16.5419L15.6518 16.5978C15.6438 16.6137 15.6518 16.6217 15.6598 16.6297L15.6518 16.6377L15.5879 16.5898V16.5818C15.6039 16.5898 15.6119 16.5898 15.6198 16.5738L15.7077 16.454C15.7157 16.438 15.7077 16.43 15.6997 16.422L15.7077 16.4141L15.7716 16.462V16.47C15.7556 16.462 15.7476 16.462 15.7396 16.478L15.6997 16.5339L15.7476 16.5658L15.7876 16.5099C15.7956 16.4939 15.7876 16.4859 15.7796 16.478L15.7876 16.47L15.8515 16.5179V16.5259C15.8435 16.5179 15.8275 16.5179 15.8195 16.5339L15.7396 16.6617C15.7237 16.6697 15.7317 16.6776 15.7396 16.6856V16.6936L15.6678 16.6457H15.6757C15.6837 16.6457 15.6917 16.6457 15.6997 16.6377L15.7396 16.5738L15.6917 16.5419Z" fill="#00493D"/>
<path d="M15.8516 16.7638L15.8595 16.7558C15.8675 16.7638 15.8835 16.7638 15.8915 16.7478L15.9554 16.612C15.9634 16.5961 15.9554 16.5881 15.9474 16.5801L16.0832 16.644L16.0512 16.7079L16.0433 16.6999C16.0672 16.6679 16.0433 16.636 16.0353 16.628C16.0273 16.628 16.0193 16.62 16.0113 16.62C16.0033 16.62 16.0033 16.62 15.9953 16.636C15.9873 16.644 15.9634 16.6919 15.9634 16.6919C15.9714 16.6999 15.9873 16.7159 16.0193 16.6759H16.0273L15.9794 16.7718L15.9714 16.7638C15.9953 16.7159 15.9634 16.7079 15.9554 16.7079L15.9234 16.7718C15.9155 16.7877 15.9234 16.7957 15.9314 16.7957V16.8037L15.8516 16.7638Z" fill="#00493D"/>
<path d="M16.0833 16.8775C16.0593 16.8615 16.0593 16.8136 16.0833 16.7657C16.0993 16.7177 16.1312 16.6778 16.1632 16.6938C16.1871 16.7018 16.1791 16.7497 16.1632 16.7976C16.1392 16.8535 16.1073 16.8855 16.0833 16.8775H16.0753C16.1312 16.9014 16.1712 16.8695 16.1951 16.8136C16.2191 16.7657 16.2111 16.7097 16.1632 16.6858C16.1152 16.6618 16.0673 16.6938 16.0434 16.7497C16.0194 16.8056 16.0274 16.8615 16.0753 16.8775H16.0833Z" fill="#00493D"/>
<path d="M16.3309 16.8925L16.3629 16.7967C16.3709 16.7807 16.3629 16.7727 16.3549 16.7647L16.3948 16.7727V16.7807C16.3869 16.7807 16.3789 16.7807 16.3709 16.7967L16.3389 16.8925C16.323 16.9325 16.299 16.9644 16.2511 16.9484C16.2191 16.9404 16.1952 16.9005 16.2111 16.8606L16.2511 16.7567C16.2591 16.7408 16.2511 16.7328 16.2431 16.7248V16.7168L16.315 16.7487V16.7567C16.307 16.7487 16.291 16.7487 16.291 16.7647L16.2511 16.8686C16.2431 16.9005 16.2431 16.9325 16.2671 16.9404C16.291 16.9484 16.315 16.9325 16.3309 16.8925Z" fill="#00493D"/>
<path d="M16.4026 16.7892C16.4026 16.7813 16.4026 16.7812 16.3946 16.7812L16.4505 16.7892L16.4984 16.941L16.5224 16.8451C16.5304 16.8292 16.5224 16.8212 16.5144 16.8132L16.5623 16.8212L16.5543 16.8292C16.5464 16.8292 16.5384 16.8292 16.5304 16.8451L16.4905 17.0209H16.4825L16.4186 16.8292L16.3786 16.957C16.3786 16.9809 16.3866 16.9809 16.3946 16.9889V16.9969L16.3467 16.9809V16.9729C16.3547 16.9809 16.3706 16.9729 16.3706 16.957L16.4106 16.8132L16.4026 16.7892V16.7892Z" fill="#00493D"/>
<path d="M16.6742 16.9481C16.6582 17.02 16.6263 17.036 16.6103 17.036H16.5943C16.5943 17.036 16.5864 17.028 16.5943 17.02L16.6183 16.8602C16.6263 16.8523 16.6263 16.8443 16.6343 16.8523H16.6503C16.6662 16.8523 16.6822 16.8842 16.6742 16.9481L16.6982 16.9561C16.7142 16.8762 16.6822 16.8443 16.6423 16.8363C16.6103 16.8283 16.5624 16.8203 16.5624 16.8203V16.8283C16.5704 16.8363 16.5864 16.8363 16.5784 16.8602L16.5544 17.004C16.5464 17.02 16.5384 17.028 16.5304 17.028H16.5225L16.6023 17.044C16.6423 17.0519 16.6822 17.044 16.6982 16.9561L16.6742 16.9481Z" fill="#00493D"/>
<path d="M16.7462 16.8855C16.7462 16.8695 16.7302 16.8615 16.7222 16.8615V16.8535L16.866 16.8695L16.858 16.9334C16.858 16.8935 16.834 16.8775 16.8181 16.8775C16.8101 16.8695 16.8021 16.8695 16.7941 16.8695C16.7861 16.8695 16.7861 16.8695 16.7861 16.8935C16.7861 16.9014 16.7781 16.9573 16.7781 16.9573C16.7861 16.9573 16.8101 16.9653 16.826 16.9174L16.8181 17.0212H16.8101C16.8101 16.9733 16.7861 16.9733 16.7781 16.9733L16.7701 17.0452C16.7701 17.0612 16.7701 17.0612 16.7781 17.0612L16.7941 17.0692C16.8181 17.0692 16.842 17.0612 16.858 17.0133H16.866L16.85 17.0772L16.6982 17.0612C16.7142 17.0612 16.7222 17.0532 16.7302 17.0372L16.7462 16.8855Z" fill="#00493D"/>
<path d="M17.0096 16.981C17.0096 17.0528 16.9857 17.0768 16.9617 17.0768C16.9537 17.0688 16.9537 17.0688 16.9457 17.0688L16.9377 17.0608L16.9457 16.8931C16.9457 16.8851 16.9457 16.8851 16.9537 16.8851H16.9697C16.9857 16.8851 17.0096 16.9091 17.0096 16.981H17.0416C17.0416 16.9011 17.0016 16.8771 16.9617 16.8771C16.9298 16.8691 16.8818 16.8691 16.8818 16.8691V16.8771C16.8898 16.8771 16.9058 16.8851 16.9058 16.9011L16.8978 17.0528C16.8978 17.0688 16.8898 17.0768 16.8818 17.0768V17.0848H16.9537C16.9937 17.0848 17.0336 17.0688 17.0416 16.981H17.0096V16.981Z" fill="#00493D"/>
<path d="M17.2412 17.045C17.2412 17.061 17.2492 17.061 17.2651 17.061V17.069L17.1773 17.077C17.1853 17.069 17.2012 17.061 17.2012 17.045L17.1853 16.8933C17.1773 16.8773 17.1693 16.8773 17.1533 16.8773V16.8693L17.2412 16.8613C17.2332 16.8693 17.2172 16.8773 17.2252 16.8933L17.2412 17.045Z" fill="#00493D"/>
<path d="M17.3207 17.0596V17.0516C17.3287 17.0516 17.3367 17.0436 17.3367 17.0276L17.3048 16.8599H17.2968C17.2808 16.8679 17.2648 16.8839 17.2728 16.9158H17.2648L17.2568 16.8599L17.4006 16.8359L17.4086 16.8918H17.4006C17.4006 16.8599 17.3766 16.8519 17.3527 16.8519H17.3447L17.3766 17.0196C17.3766 17.0356 17.3846 17.0436 17.4006 17.0436V17.0516L17.3207 17.0596Z" fill="#00493D"/>
<path d="M17.665 16.9014L17.633 16.8056C17.633 16.7896 17.6171 16.7896 17.6091 16.7896V16.7816L17.649 16.7656V16.7736C17.641 16.7816 17.641 16.7816 17.641 16.7976L17.673 16.9014C17.681 16.9334 17.681 16.9813 17.633 16.9973C17.6011 17.0052 17.5611 16.9893 17.5532 16.9413L17.5212 16.8375C17.5132 16.8215 17.5052 16.8215 17.4972 16.8215L17.4893 16.8135L17.5691 16.7896V16.7976C17.5611 16.8056 17.5532 16.8135 17.5611 16.8295L17.5851 16.9334C17.5931 16.9653 17.6171 16.9813 17.641 16.9813C17.665 16.9733 17.673 16.9413 17.665 16.9014Z" fill="#00493D"/>
<path d="M17.7521 16.8452C17.792 16.8292 17.784 16.8052 17.7761 16.7813C17.7681 16.7573 17.7521 16.7413 17.7361 16.7493C17.7281 16.7493 17.7201 16.7573 17.7281 16.7653L17.7521 16.8452L17.7601 16.8532L17.7761 16.9171C17.784 16.933 17.8 16.933 17.808 16.925V16.933L17.7361 16.965L17.7281 16.957C17.7441 16.949 17.7441 16.941 17.7441 16.925L17.6882 16.7893C17.6802 16.7653 17.6722 16.7733 17.6562 16.7733V16.7653L17.7361 16.7333C17.7681 16.7254 17.8 16.7333 17.816 16.7653C17.824 16.8052 17.808 16.8292 17.7761 16.8452C17.7681 16.8452 17.7601 16.8532 17.7601 16.8532L17.7521 16.8452Z" fill="#00493D"/>
<path d="M17.9521 16.8677C17.9281 16.8757 17.8962 16.8438 17.8722 16.7879C17.8483 16.7399 17.8483 16.692 17.8722 16.684C17.8962 16.676 17.9281 16.708 17.9521 16.7559C17.9761 16.8038 17.9761 16.8518 17.9521 16.8677C18 16.8518 18.016 16.7958 17.992 16.7399C17.9681 16.692 17.9202 16.6601 17.8722 16.676C17.8243 16.7 17.8083 16.7559 17.8323 16.8038C17.8563 16.8597 17.9042 16.8917 17.9521 16.8677Z" fill="#00493D"/>
<path d="M17.9603 16.6443H17.9523H17.9443L17.9923 16.6124L18.136 16.6922L18.0881 16.6044C18.0801 16.5884 18.0641 16.5884 18.0562 16.5884V16.5804L18.0961 16.5645C18.0881 16.5724 18.0801 16.5804 18.0961 16.5964L18.176 16.7561L18.168 16.7641L17.9923 16.6683L18.0562 16.7881C18.0641 16.8041 18.0801 16.8041 18.0881 16.7961V16.8041L18.0482 16.828V16.82C18.0562 16.8121 18.0562 16.8041 18.0482 16.7881L17.9843 16.6603L17.9603 16.6443Z" fill="#00493D"/>
<path d="M18.3196 16.6693V16.6613C18.3196 16.6533 18.3275 16.6453 18.3196 16.6294L18.2237 16.4936H18.2157C18.1997 16.5016 18.1918 16.5335 18.2157 16.5575L18.2077 16.5655L18.1758 16.5096L18.2956 16.4297L18.3275 16.4776C18.3036 16.4536 18.2796 16.4536 18.2636 16.4616L18.2557 16.4696L18.3515 16.6054C18.3595 16.6214 18.3755 16.6214 18.3835 16.6134V16.6214L18.3196 16.6693Z" fill="#00493D"/>
<path d="M18.4077 16.4763L18.4556 16.5322C18.4636 16.5402 18.4796 16.5402 18.4876 16.5322V16.5402L18.4237 16.5961V16.5881C18.4317 16.5802 18.4317 16.5722 18.4237 16.5562L18.3278 16.4364C18.3199 16.4204 18.3119 16.4284 18.2959 16.4284L18.3598 16.3725V16.3805C18.3598 16.3885 18.3518 16.3965 18.3598 16.4124L18.3997 16.4604L18.4477 16.4284L18.4077 16.3725C18.3997 16.3565 18.3838 16.3645 18.3758 16.3645L18.4397 16.3086V16.3166C18.4317 16.3246 18.4317 16.3326 18.4397 16.3485L18.5355 16.4683C18.5435 16.4763 18.5515 16.4763 18.5595 16.4683L18.5675 16.4763L18.5036 16.5322L18.4956 16.5242C18.5036 16.5163 18.5116 16.5083 18.5036 16.4923L18.4556 16.4364L18.4077 16.4763Z" fill="#00493D"/>
<path d="M18.4792 16.3089C18.4712 16.3009 18.4553 16.3009 18.4473 16.3089V16.3009L18.5511 16.2051L18.599 16.253H18.591C18.5671 16.2211 18.5351 16.237 18.5192 16.245C18.5192 16.253 18.5112 16.253 18.5032 16.261C18.5032 16.261 18.5032 16.269 18.5112 16.285C18.5192 16.2929 18.5591 16.3329 18.5591 16.3329C18.5671 16.3249 18.591 16.3089 18.5591 16.269H18.5671L18.631 16.3409V16.3488C18.591 16.3089 18.5751 16.3329 18.5671 16.3409L18.615 16.3888C18.623 16.4048 18.631 16.4048 18.631 16.4048C18.639 16.3968 18.6469 16.3888 18.6549 16.3808C18.6629 16.3728 18.6709 16.3488 18.6549 16.3009H18.6629L18.6949 16.3568L18.591 16.4607L18.583 16.4527C18.591 16.4447 18.599 16.4367 18.583 16.4207L18.4792 16.3089Z" fill="#00493D"/>
<path d="M18.6708 16.085C18.6628 16.093 18.6628 16.109 18.6788 16.117C18.6948 16.133 18.7108 16.133 18.7427 16.117C18.7587 16.109 18.7906 16.101 18.8146 16.125C18.8545 16.1649 18.8386 16.1969 18.8306 16.2128C18.8226 16.2208 18.8066 16.2288 18.7986 16.2368C18.7906 16.2368 18.7906 16.2368 18.7906 16.2448V16.2528L18.7347 16.2048H18.7427C18.7747 16.2208 18.8066 16.2288 18.8226 16.2048C18.8386 16.1889 18.8226 16.1729 18.8146 16.1649C18.7986 16.1489 18.7826 16.1489 18.7587 16.1649C18.7347 16.1729 18.7028 16.1729 18.6788 16.1569C18.6469 16.125 18.6469 16.101 18.6628 16.077C18.6708 16.0691 18.6868 16.0611 18.6948 16.0531C18.7028 16.0531 18.7028 16.0531 18.6948 16.0371L18.7507 16.077H18.7427C18.7028 16.0611 18.6788 16.0691 18.6708 16.085Z" fill="#00493D"/>
<path d="M18.7431 16.0222C18.7271 16.0142 18.7191 16.0222 18.7111 16.0301H18.7031L18.791 15.9023L18.8469 15.9423L18.8389 15.9503C18.807 15.9263 18.775 15.9423 18.767 15.9503C18.767 15.9583 18.759 15.9662 18.759 15.9742C18.751 15.9742 18.751 15.9822 18.767 15.9902C18.775 15.9982 18.8229 16.0301 18.8229 16.0301C18.8309 16.0222 18.8469 16.0062 18.8149 15.9742V15.9662L18.8948 16.0301C18.8469 16.0062 18.8389 16.0301 18.8309 16.0381L18.8868 16.0781C18.9028 16.0861 18.9108 16.0861 18.9108 16.0861C18.9108 16.0781 18.9188 16.0701 18.9268 16.0621C18.9348 16.0461 18.9427 16.0222 18.9108 15.9902L18.9188 15.9822L18.9587 16.0301L18.8788 16.1499H18.8709C18.8788 16.134 18.8788 16.126 18.8629 16.11L18.7431 16.0222Z" fill="#00493D"/>
<path d="M18.9587 15.8781L18.9347 15.918C18.9028 15.8861 18.8868 15.8621 18.8868 15.8621L18.9587 15.8781H18.9747C18.9826 15.8781 18.9986 15.8861 19.0066 15.8861C19.0306 15.8941 19.0226 15.9021 19.0146 15.918H19.0226L19.0625 15.8462C19.0465 15.8621 19.0385 15.8541 19.0226 15.8541C18.8548 15.8222 18.8389 15.8142 18.8389 15.8142V15.8222L18.9667 15.966C18.9747 15.974 18.9747 15.9899 18.9747 15.9979H18.9826L19.0066 15.958L18.9986 15.95C18.9906 15.966 18.9826 15.974 18.9667 15.95C18.9587 15.942 18.9507 15.934 18.9507 15.934L18.9747 15.8781H18.9587Z" fill="#00493D"/>
<path d="M18.9107 15.7024C18.9028 15.7104 18.9028 15.7264 18.9267 15.7343C18.9507 15.7423 18.9587 15.7343 18.9826 15.7184C19.0066 15.7024 19.0305 15.6864 19.0625 15.7024C19.1104 15.7264 19.1024 15.7663 19.0944 15.7823C19.0865 15.7903 19.0785 15.8062 19.0705 15.8142V15.8222V15.8302L19.0066 15.7982C19.0465 15.8062 19.0785 15.7982 19.0865 15.7743C19.0944 15.7583 19.0785 15.7423 19.0705 15.7343C19.0545 15.7264 19.0385 15.7343 19.0146 15.7503C18.9906 15.7743 18.9666 15.7823 18.9347 15.7663C18.9028 15.7503 18.8868 15.7264 18.9028 15.7024C18.9028 15.6864 18.9187 15.6784 18.9267 15.6704C18.9267 15.6625 18.9267 15.6625 18.9187 15.6545V15.6465L18.9826 15.6784H18.9746C18.9347 15.6704 18.9107 15.6864 18.9107 15.7024Z" fill="#00493D"/>
<path d="M16.3865 12.8749C16.2826 12.8988 16.2107 12.9068 16.1149 12.819C16.051 12.7551 16.067 12.6432 16.1309 12.6033C16.2028 12.5554 16.2667 12.5234 16.3545 12.5474C16.4424 12.5714 16.674 12.787 16.6181 12.795C16.5622 12.795 16.4743 12.8509 16.3865 12.8749L16.3865 12.8749Z" fill="white" stroke="black" stroke-width="0.03"/>
<path d="M16.6338 12.4909C16.6657 12.4669 16.7057 12.4509 16.8095 12.4429C16.9054 12.435 16.9772 12.435 17.0012 12.5068C17.0332 12.5947 17.0571 12.6985 17.121 12.7465C17.0811 12.7704 16.8814 12.7944 16.8095 12.7545C16.7137 12.7065 16.6897 12.5228 16.6338 12.4909H16.6338Z" fill="white" stroke="black" stroke-width="0.03"/>
<path d="M17.3213 12.4995C17.3532 12.4755 17.3932 12.4755 17.497 12.4835C17.6008 12.4915 17.6408 12.4995 17.6647 12.5713C17.6887 12.6512 17.6647 12.755 17.7127 12.8269C17.6647 12.8429 17.505 12.8429 17.4491 12.787C17.3612 12.7231 17.3692 12.5394 17.3213 12.4994L17.3213 12.4995Z" fill="white" stroke="black" stroke-width="0.03"/>
<path d="M17.8002 12.5483C17.7283 12.5324 17.6804 12.5244 17.6484 12.5483C17.6884 12.5962 17.6564 12.7879 17.7363 12.8518C17.7922 12.8918 17.936 12.8998 17.9679 12.8119C18.0079 12.732 18.0079 12.6122 17.8002 12.5483V12.5483Z" fill="#073163" stroke="black" stroke-width="0.03"/>
<path d="M16.9775 12.4675C17.0015 12.4435 17.0494 12.4355 17.1453 12.4355C17.2491 12.4355 17.313 12.4515 17.345 12.5154C17.3769 12.5953 17.3689 12.6991 17.4248 12.763C17.4009 12.795 17.1852 12.795 17.1213 12.747C17.0334 12.6911 17.0255 12.5074 16.9775 12.4675L16.9775 12.4675Z" fill="#073163" stroke="black" stroke-width="0.03"/>
<path d="M16.2988 12.5388C16.2988 12.4989 16.3547 12.4909 16.4985 12.4829C16.6423 12.467 16.6503 12.4749 16.6982 12.5788C16.7222 12.6347 16.7541 12.7305 16.818 12.7625C16.6423 12.8024 16.5864 12.8264 16.4905 12.7705C16.4186 12.7305 16.3388 12.6347 16.3228 12.5948C16.3148 12.5708 16.3148 12.5468 16.2988 12.5388L16.2988 12.5388Z" fill="#073163" stroke="black" stroke-width="0.03"/>
<path d="M16.681 11.7247C16.5133 11.5969 16.3136 11.4771 16.1299 11.4531C16.2497 11.525 16.5852 11.7886 16.673 11.8765" fill="#F9D050"/>
<path d="M16.681 11.7247C16.5133 11.5969 16.3136 11.4771 16.1299 11.4531C16.2497 11.525 16.5852 11.7886 16.673 11.8765" stroke="black" stroke-width="0.03"/>
<path d="M16.777 11.6045C16.5773 11.4687 16.3457 11.3169 16.1221 11.301C16.2898 11.3888 16.5374 11.5965 16.6732 11.7642" fill="#F9D050"/>
<path d="M16.777 11.6045C16.5773 11.4687 16.3457 11.3169 16.1221 11.301C16.2898 11.3888 16.5374 11.5965 16.6732 11.7642" stroke="black" stroke-width="0.03"/>
<path d="M17.0322 11.3808C17.144 11.1332 17.2639 10.9975 17.4236 10.8457C17.3437 11.0134 17.2559 11.3569 17.2159 11.4927" fill="#F9D050"/>
<path d="M17.0322 11.3808C17.144 11.1332 17.2639 10.9975 17.4236 10.8457C17.3437 11.0134 17.2559 11.3569 17.2159 11.4927" stroke="black" stroke-width="0.03"/>
<path d="M17.208 11.3413C17.2879 11.1656 17.4077 11.0138 17.6154 10.918C17.5115 11.0218 17.3518 11.3333 17.3118 11.501" fill="#F9D050"/>
<path d="M17.208 11.3413C17.2879 11.1656 17.4077 11.0138 17.6154 10.918C17.5115 11.0218 17.3518 11.3333 17.3118 11.501" stroke="black" stroke-width="0.03"/>
<path d="M17.2803 11.4998C17.3761 11.364 17.5678 11.1084 17.9113 10.9727C17.7116 11.1723 17.4161 11.5398 17.3442 11.6835" fill="#F9D050"/>
<path d="M17.2803 11.4998C17.3761 11.364 17.5678 11.1084 17.9113 10.9727C17.7116 11.1723 17.4161 11.5398 17.3442 11.6835" stroke="black" stroke-width="0.03"/>
<path d="M17.3925 11.6772C17.5362 11.5974 17.8238 11.4696 18.0315 11.5095C17.9037 11.5574 17.5203 11.7331 17.3525 11.8929" fill="#F9D050"/>
<path d="M17.3925 11.6772C17.5362 11.5974 17.8238 11.4696 18.0315 11.5095C17.9037 11.5574 17.5203 11.7331 17.3525 11.8929" stroke="black" stroke-width="0.03"/>
<path d="M17.3605 11.6211C17.4963 11.4773 17.7439 11.2617 18.0075 11.1738C17.8158 11.3575 17.4085 11.7729 17.3525 11.8368" fill="#F9D050"/>
<path d="M17.3605 11.6211C17.4963 11.4773 17.7439 11.2617 18.0075 11.1738C17.8158 11.3575 17.4085 11.7729 17.3525 11.8368" stroke="black" stroke-width="0.03"/>
<path d="M16.9768 11.5321C16.8809 11.2366 16.7371 10.957 16.5215 10.8691C16.6413 11.0449 16.7931 11.3005 16.8729 11.6838" fill="#F9D050"/>
<path d="M16.9768 11.5321C16.8809 11.2366 16.7371 10.957 16.5215 10.8691C16.6413 11.0449 16.7931 11.3005 16.8729 11.6838" stroke="black" stroke-width="0.03"/>
<path d="M16.7929 11.5249C16.6332 11.3332 16.4175 11.1415 16.1699 11.1016C16.3377 11.1974 16.6172 11.477 16.721 11.7485" fill="#F9D050"/>
<path d="M16.7929 11.5249C16.6332 11.3332 16.4175 11.1415 16.1699 11.1016C16.3377 11.1974 16.6172 11.477 16.721 11.7485" stroke="black" stroke-width="0.03"/>
<path d="M16.8807 11.5166C16.681 11.1572 16.5293 11.0933 16.4414 11.0214C16.5133 11.1572 16.689 11.5166 16.7928 11.6684" fill="#F9D050"/>
<path d="M16.8807 11.5166C16.681 11.1572 16.5293 11.0933 16.4414 11.0214C16.5133 11.1572 16.689 11.5166 16.7928 11.6684" stroke="black" stroke-width="0.03"/>
<path d="M16.4814 11.4922C16.5773 11.5481 16.7211 11.6839 16.769 11.7717" stroke="black" stroke-width="0.03"/>
<path d="M16.4814 11.6604C16.5294 11.7003 16.6172 11.7483 16.6971 11.8201L16.4814 11.6604Z" fill="#F9D050"/>
<path d="M16.4814 11.6604C16.5294 11.7003 16.6172 11.7483 16.6971 11.8201" stroke="black" stroke-width="0.03"/>
<path d="M17.4316 11.7798C17.5115 11.7159 17.6872 11.612 17.7751 11.5801L17.4316 11.7798Z" fill="#F9D050"/>
<path d="M17.4316 11.7798C17.5115 11.7159 17.6872 11.612 17.7751 11.5801" stroke="black" stroke-width="0.03"/>
<path d="M17.376 11.7252C17.4558 11.6214 17.6156 11.4776 17.6715 11.4297L17.376 11.7252Z" fill="#F9D050"/>
<path d="M17.376 11.7252C17.4558 11.6214 17.6156 11.4776 17.6715 11.4297" stroke="black" stroke-width="0.03"/>
<path d="M17.5994 11.2285C17.5275 11.3084 17.3598 11.5081 17.2959 11.6039L17.5994 11.2285Z" fill="#F9D050"/>
<path d="M17.5994 11.2285C17.5275 11.3084 17.3598 11.5081 17.2959 11.6039" stroke="black" stroke-width="0.03"/>
<path d="M17.3921 11.1562C17.3362 11.2281 17.2243 11.4358 17.1924 11.5077L17.3921 11.1562Z" fill="#F9D050"/>
<path d="M17.3921 11.1562C17.3362 11.2281 17.2243 11.4358 17.1924 11.5077" stroke="black" stroke-width="0.03"/>
<path d="M16.7607 11.1738C16.8087 11.3016 16.8965 11.5173 16.9285 11.6051L16.7607 11.1738Z" fill="#F9D050"/>
<path d="M16.7607 11.1738C16.8087 11.3016 16.8965 11.5173 16.9285 11.6051" stroke="black" stroke-width="0.03"/>
<path d="M16.6895 11.3086C16.7214 11.3565 16.7853 11.4683 16.8093 11.5482L16.6895 11.3086Z" fill="#F9D050"/>
<path d="M16.6895 11.3086C16.7214 11.3565 16.7853 11.4683 16.8093 11.5482" stroke="black" stroke-width="0.03"/>
<path d="M16.9609 11.2689C16.9609 11.1971 17.0089 11.1172 17.0568 11.1172C17.1127 11.1172 17.1526 11.213 17.1526 11.2689C17.1526 11.3328 17.1047 11.3888 17.0568 11.3888C17.0089 11.3888 16.9609 11.3408 16.9609 11.2689Z" fill="#F9D050" stroke="black" stroke-width="0.03"/>
<path d="M16.8575 11.3336C16.8655 11.2537 16.9214 11.1898 16.9693 11.1978C17.0172 11.2058 17.0412 11.3017 17.0332 11.3576C17.0252 11.4215 16.9693 11.4694 16.9294 11.4614C16.8894 11.4614 16.8495 11.4055 16.8575 11.3336Z" fill="#F9D050" stroke="black" stroke-width="0.03"/>
<path d="M17.0725 11.3576C17.0565 11.2857 17.0885 11.2058 17.1364 11.1978C17.1843 11.1898 17.2323 11.2697 17.2402 11.3336C17.2562 11.3975 17.2163 11.4614 17.1763 11.4614C17.1364 11.4694 17.0805 11.4295 17.0725 11.3576Z" fill="#F9D050" stroke="black" stroke-width="0.03"/>
<path d="M16.9531 11.4215C16.9531 11.3416 17.001 11.2697 17.049 11.2697C17.1049 11.2697 17.1448 11.3576 17.1448 11.4215C17.1448 11.4854 17.0969 11.5413 17.049 11.5413C17.001 11.5413 16.9531 11.4934 16.9531 11.4215Z" fill="#F9D050" stroke="black" stroke-width="0.03"/>
<path d="M16.8096 11.4623C16.8096 11.3904 16.8655 11.3105 16.9134 11.3105C16.9613 11.3105 17.0093 11.4064 17.0093 11.4623C17.0093 11.5262 16.9533 11.5821 16.9134 11.5821C16.8655 11.5821 16.8096 11.5342 16.8096 11.4623Z" fill="#F9D050" stroke="black" stroke-width="0.03"/>
<path d="M17.1045 11.4291C17.1045 11.3572 17.1524 11.2773 17.2003 11.2773C17.2562 11.2773 17.2962 11.3732 17.2962 11.4291C17.2962 11.493 17.2483 11.5489 17.2003 11.5489C17.1524 11.5489 17.1045 11.501 17.1045 11.4291Z" fill="#F9D050" stroke="black" stroke-width="0.03"/>
<path d="M17.0732 11.4934C17.0732 11.4135 17.1292 11.3416 17.1771 11.3416C17.225 11.3416 17.2729 11.4295 17.2729 11.4934C17.2729 11.5573 17.225 11.6132 17.1771 11.6132C17.1292 11.6132 17.0732 11.5653 17.0732 11.4934Z" fill="#F9D050" stroke="black" stroke-width="0.03"/>
<path d="M16.9453 11.5658C16.9453 11.4859 16.9932 11.4141 17.0412 11.4141C17.0971 11.4141 17.137 11.5099 17.137 11.5658C17.137 11.6297 17.0891 11.6856 17.0412 11.6856C16.9932 11.6856 16.9453 11.6377 16.9453 11.5658Z" fill="#F9D050" stroke="black" stroke-width="0.03"/>
<path d="M16.7451 11.5658C16.7451 11.4859 16.7851 11.4141 16.825 11.4141C16.8649 11.4141 16.8969 11.5099 16.8969 11.5658C16.8969 11.6297 16.8569 11.6856 16.825 11.6856C16.7851 11.6856 16.7451 11.6377 16.7451 11.5658Z" fill="#F9D050" stroke="black" stroke-width="0.03"/>
<path d="M17.1924 11.55C17.1924 11.4781 17.2323 11.4062 17.2723 11.4062C17.3122 11.4062 17.3521 11.4941 17.3521 11.55C17.3521 11.6219 17.3042 11.6698 17.2723 11.6698C17.2323 11.6698 17.1924 11.6219 17.1924 11.55Z" fill="#F9D050" stroke="black" stroke-width="0.03"/>
<path d="M17.2406 11.6851C17.2566 11.6052 17.3045 11.5413 17.3365 11.5493C17.3684 11.5573 17.3764 11.6532 17.3605 11.7091C17.3525 11.781 17.3045 11.8209 17.2726 11.8129C17.2406 11.8049 17.2247 11.749 17.2406 11.6851Z" fill="#F9D050" stroke="black" stroke-width="0.03"/>
<path d="M17.0889 11.6618C17.0969 11.5899 17.1448 11.518 17.1848 11.526C17.2327 11.526 17.2567 11.6218 17.2487 11.6778C17.2407 11.7496 17.2007 11.7976 17.1608 11.7896C17.1209 11.7896 17.0809 11.7337 17.0889 11.6618Z" fill="#F9D050" stroke="black" stroke-width="0.03"/>
<path d="M16.8653 11.6851C16.8413 11.6052 16.7934 11.5493 16.7614 11.5573C16.7295 11.5653 16.7215 11.6611 16.7375 11.717C16.7535 11.7809 16.8014 11.8209 16.8333 11.8129C16.8573 11.8049 16.8813 11.749 16.8653 11.6851Z" fill="#F9D050" stroke="black" stroke-width="0.03"/>
<path d="M16.8096 11.6691C16.8096 11.5972 16.8495 11.5253 16.8894 11.5253C16.9374 11.5253 16.9693 11.6132 16.9693 11.6691C16.9693 11.741 16.9294 11.7889 16.8894 11.7889C16.8575 11.7889 16.8096 11.741 16.8096 11.6691Z" fill="#F9D050" stroke="black" stroke-width="0.03"/>
<path d="M16.9287 11.7006C16.9287 11.6207 16.9766 11.5488 17.0246 11.5488C17.0805 11.5488 17.1204 11.6367 17.1204 11.7006C17.1204 11.7645 17.0725 11.8204 17.0246 11.8204C16.9766 11.8204 16.9287 11.7725 16.9287 11.7006Z" fill="#F9D050" stroke="black" stroke-width="0.03"/>
<path d="M16.9688 10.8224C16.9528 10.8863 16.8969 10.9422 16.9368 11.0301C16.8649 11.0061 16.801 10.9982 16.7451 11.0621C16.817 11.0541 16.8809 11.078 16.9128 11.126C16.849 11.118 16.817 11.1499 16.801 11.1899C16.8569 11.1739 16.9128 11.1579 16.9368 11.1659C16.9128 11.1899 16.8729 11.2298 16.8649 11.2617C16.9128 11.2218 16.9688 11.2298 17.0007 11.2058C16.9767 11.2617 17.0247 11.3177 17.0646 11.3736C17.0566 11.2937 17.1045 11.2378 17.0806 11.1978C17.1525 11.2138 17.1605 11.2777 17.2643 11.2777C17.2244 11.2538 17.2004 11.1739 17.1525 11.1739C17.1764 11.1659 17.2723 11.1579 17.2882 11.1739C17.2723 11.1419 17.2164 11.11 17.1844 11.11C17.2164 11.078 17.2723 11.0141 17.3122 10.9982C17.2563 11.0061 17.1684 11.0141 17.1365 11.0621C17.2164 10.9982 17.2004 10.8784 17.2882 10.8624C17.2403 10.8544 17.1684 10.8863 17.1125 10.9422C17.1365 10.8943 17.1365 10.8304 17.1684 10.8145C17.1045 10.8304 17.0327 10.9103 17.0087 10.9502C17.0087 10.9103 16.9847 10.8464 16.9688 10.8224Z" fill="#F9D050" stroke="black" stroke-width="0.03"/>
<path d="M17.009 10.9512C17.009 10.9751 17.009 11.0231 17.001 11.039L17.009 10.9512Z" fill="#F9D050"/>
<path d="M17.009 10.9512C17.009 10.9751 17.009 11.0231 17.001 11.039" stroke="black" stroke-width="0.03"/>
<path d="M17.1124 10.9414C17.0964 10.9574 17.0645 11.0133 17.0645 11.0612L17.1124 10.9414Z" fill="#F9D050"/>
<path d="M17.1124 10.9414C17.0964 10.9574 17.0645 11.0133 17.0645 11.0612" stroke="black" stroke-width="0.03"/>
<path d="M17.1604 11.0391C17.1364 11.055 17.1125 11.079 17.1045 11.1109" stroke="black" stroke-width="0.03"/>
<path d="M16.3142 11.8295C16.2583 11.8295 16.2104 11.8056 16.1784 11.7656C16.1225 11.6937 15.9708 11.6618 15.9069 11.7257C15.8829 11.7417 15.851 11.7417 15.827 11.7496C15.7871 11.7496 15.7391 11.7896 15.7551 11.8695C15.7871 11.8455 15.795 11.8695 15.819 11.8695C15.835 11.8615 15.827 11.8774 15.827 11.8934C15.827 11.9334 15.9149 12.0132 15.9947 12.0052C16.0826 12.0052 16.1225 12.0372 16.1385 12.0532C16.1625 12.0771 16.1465 12.0691 16.1625 12.1091C16.1864 12.133 16.1944 12.141 16.1545 12.173C16.0986 12.2209 16.0586 12.3327 16.1545 12.4206C16.2583 12.5004 16.5219 12.6203 16.8174 12.3886C17.105 12.165 17.5522 12.2928 17.5842 12.3727C17.6241 12.4525 17.6401 12.5004 17.6481 12.5404C17.6561 12.5723 17.696 12.6043 17.7519 12.5963C17.8078 12.5963 17.8717 12.6203 17.9037 12.6442C17.9436 12.6682 17.9995 12.6602 17.9835 12.5883C17.9516 12.3647 17.8158 12.3327 17.7998 12.2289C17.8797 12.2369 17.9356 12.2369 17.9676 12.2049C17.9915 12.173 18.0235 12.1171 18.0554 12.1011C18.0794 12.0851 18.0794 12.0691 18.0474 12.0771C18.0075 12.0851 17.9835 12.1011 17.9117 12.0931C17.5443 12.0532 16.5139 11.7736 16.3142 11.8295H16.3142Z" fill="#059334" stroke="black" stroke-width="0.03"/>
<path d="M17.944 12.1002C17.904 12.1242 17.8641 12.1641 17.7922 12.2599C17.7123 12.3638 17.4727 12.4676 17.1772 12.4676C16.8896 12.4676 16.7139 12.4197 16.5861 12.3158C16.5142 12.2599 16.4583 12.228 16.4104 12.204C16.3226 12.1641 16.3066 12.0762 16.3305 12.0043C16.3066 12.0443 16.2906 12.0842 16.2427 12.0762C16.2107 12.0762 16.1468 12.0762 16.1628 12.1082C16.1548 12.0922 16.1548 12.0682 16.1468 12.0603C16.1388 12.0523 16.1309 12.0443 16.1309 12.0443C16.1548 12.0603 16.2107 12.0123 16.2507 12.0123C16.2826 12.0203 16.3226 11.9804 16.3146 11.9325C16.3066 11.8925 16.2986 11.8606 16.2906 11.8286C16.3545 11.7967 17.1932 11.9484 17.3609 11.9644C17.5286 11.9724 18.0079 12.0443 17.944 12.1002V12.1002Z" fill="black" stroke="black" stroke-width="0.03"/>
<path d="M16.4258 11.7976C16.5057 11.7177 16.6015 11.6777 16.6974 11.7017H16.7214C16.7693 11.6618 16.8811 11.6538 16.945 11.6857H16.9769C17.0728 11.6538 17.2565 11.6857 17.3204 11.7496L17.3444 11.7656C17.56 11.7496 17.6878 11.8455 17.8396 11.9972C17.8555 12.0132 17.8795 12.0452 17.9194 12.0531C17.9674 12.0611 17.9753 12.0851 17.9354 12.1091C17.8875 12.133 17.8476 12.173 17.7677 12.2608C17.6958 12.3567 17.4642 12.4525 17.1766 12.4525C16.8971 12.4525 16.7293 12.4046 16.6015 12.3087C16.5297 12.2528 16.4737 12.2209 16.4338 12.1969C16.3859 12.1809 16.322 12.117 16.3459 12.0531C16.3619 11.9892 16.322 11.9094 16.29 11.8295C16.314 11.8135 16.3779 11.7896 16.4098 11.8055L16.4258 11.7975L16.4258 11.7976Z" fill="#059334" stroke="black" stroke-width="0.03"/>
<path d="M17.8401 11.9972C17.6884 11.8455 17.5606 11.7496 17.3449 11.7656C17.3449 11.7736 17.3449 11.7975 17.3369 11.8135C17.4647 11.8614 17.6484 12.0052 17.7283 12.109C17.7602 12.0771 17.8161 12.0372 17.8401 11.9972L17.8401 11.9972Z" fill="#00493D" stroke="black" stroke-width="0.03"/>
<path d="M17.3204 11.7503C17.2565 11.6864 17.0728 11.6544 16.9769 11.6864C16.9769 11.7183 16.9769 11.7662 16.9609 11.7982C17.0168 11.8221 17.0648 11.8781 17.1127 11.934C17.1446 11.926 17.2245 11.902 17.2645 11.894C17.2804 11.8621 17.3124 11.7902 17.3204 11.7503H17.3204Z" fill="#00493D" stroke="black" stroke-width="0.03"/>
<path d="M16.9449 11.6857C16.881 11.6538 16.7692 11.6618 16.7212 11.7017C16.7053 11.7337 16.6973 11.7976 16.6973 11.8295C16.7292 11.8295 16.7771 11.8535 16.7931 11.8694C16.841 11.8535 16.9049 11.8215 16.9289 11.7976C16.9369 11.7656 16.9529 11.7177 16.9449 11.6857Z" fill="#00493D" stroke="black" stroke-width="0.03"/>
<path d="M16.4258 11.7981C16.5057 11.7182 16.6015 11.6783 16.6973 11.7022C16.6814 11.7262 16.6734 11.7741 16.6734 11.822C16.5855 11.814 16.4737 11.838 16.4258 11.87V11.7981Z" fill="#00493D" stroke="black" stroke-width="0.03"/>
<path d="M17.6961 12.125C17.6242 12.0212 17.4485 11.9014 17.3286 11.8455C17.3286 11.8534 17.3127 11.8854 17.3047 11.9094C17.3526 11.9812 17.4485 12.141 17.4884 12.2288C17.5283 12.2129 17.6402 12.1649 17.6961 12.125V12.125Z" fill="#00493D" stroke="black" stroke-width="0.03"/>
<path d="M17.0889 12.301C17.1048 12.1892 17.1128 12.0294 17.1128 11.9735C17.1528 11.9655 17.2326 11.9416 17.2646 11.9336C17.3045 11.9975 17.4004 12.1652 17.4403 12.2451C17.3445 12.2691 17.1847 12.309 17.0889 12.301V12.301Z" fill="#00493D" stroke="black" stroke-width="0.03"/>
<path d="M16.8096 11.9178C16.8495 11.9018 16.9054 11.8698 16.9454 11.8379C16.9773 11.8619 17.0412 11.9178 17.0652 11.9497C17.0652 12.0216 17.0412 12.2293 17.0332 12.3012C16.9693 12.3012 16.8655 12.2852 16.8096 12.2532C16.8176 12.1334 16.8255 11.9976 16.8096 11.9178L16.8096 11.9178Z" fill="#00493D" stroke="black" stroke-width="0.03"/>
<path d="M16.4102 12.0126C16.4181 11.9966 16.4261 11.9407 16.4261 11.9167C16.49 11.8768 16.6498 11.8368 16.7696 11.9007C16.7776 11.9806 16.7696 12.1803 16.7616 12.2282C16.6578 12.1484 16.49 12.0365 16.4102 12.0126L16.4102 12.0126Z" fill="#00493D" stroke="black" stroke-width="0.03"/>
<path d="M16.0109 11.8703C15.9949 11.8703 15.9869 11.8224 15.955 11.8224C15.947 11.8224 15.923 11.8304 15.915 11.8224C15.915 11.8384 15.923 11.8543 15.931 11.8623C15.939 11.8863 15.9789 11.8703 16.0109 11.8703Z" fill="black"/>
<path d="M16.0107 12.0067C16.1066 12.0067 16.1226 11.8869 16.1705 11.8789" stroke="black" stroke-width="0.03"/>
<path d="M16.0664 12.0148C16.1383 12.0467 16.1942 11.879 16.2501 11.887" stroke="black" stroke-width="0.03"/>
<path d="M15.9229 11.807C15.9468 11.807 15.9628 11.7751 16.0027 11.815C16.0187 11.831 16.0427 11.839 16.0586 11.839" stroke="black" stroke-width="0.03"/>
<path d="M16.0427 11.9258C16.0107 11.9737 15.9548 12.0057 15.9229 11.9897" stroke="black" stroke-width="0.03"/>
<path d="M15.9075 11.7266C15.8835 11.7425 15.8675 11.7745 15.8516 11.7984" stroke="black" stroke-width="0.03"/>
<path d="M15.8271 11.8457V11.8856" stroke="black" stroke-width="0.03"/>
<path d="M18.4952 12.8828V14.4403C18.4952 15.7902 17.8562 16.2534 17.0016 16.6208C16.147 16.2534 15.5 15.7902 15.5 14.4403V12.8828H18.4952H18.4952Z" fill="white"/>
<path d="M17.0016 14.2008C17.0735 14.2008 17.1853 14.1369 17.2812 14.041C17.385 13.9292 17.5607 13.8893 17.7444 14.041C17.9281 14.1928 18.0399 14.1289 18.1358 14.041C18.2316 13.9532 18.3115 13.9212 18.4952 13.9212V12.8829H15.5V13.9212C15.6837 13.9212 15.7636 13.9532 15.8594 14.041C15.9553 14.1289 16.0671 14.1928 16.2508 14.041C16.4425 13.8893 16.6102 13.9292 16.722 14.041C16.8099 14.1369 16.9217 14.2008 17.0016 14.2008H17.0016Z" fill="#CF142B"/>
<path d="M17.0016 15.0004C17.0974 15.0004 17.2891 14.8966 17.3371 14.8726C17.5128 14.7688 17.6406 14.8646 17.7444 14.9125C17.8562 14.9605 18.0639 15.0164 18.1917 14.9125C18.3195 14.8087 18.3914 14.8167 18.4792 14.8167C18.4952 14.6969 18.4952 14.5771 18.4952 14.4413V14.3454C18.3834 14.3215 18.3275 14.3534 18.2077 14.4573C18.0879 14.5611 17.9521 14.5371 17.7764 14.4732C17.6086 14.4014 17.4409 14.2736 17.2732 14.4732C17.2252 14.5291 17.1134 14.609 17.0016 14.609C16.8818 14.609 16.778 14.5291 16.73 14.4732C16.5543 14.2736 16.3946 14.4014 16.2268 14.4732C16.0511 14.5371 15.9074 14.5611 15.7875 14.4573C15.6757 14.3534 15.6198 14.3215 15.5 14.3454V14.4413C15.5 14.5771 15.508 14.6969 15.524 14.8167C15.6118 14.8167 15.6757 14.8087 15.8035 14.9125C15.9313 15.0164 16.147 14.9605 16.2508 14.9125C16.3626 14.8646 16.4904 14.7688 16.6661 14.8726C16.7141 14.8966 16.8978 15.0004 17.0016 15.0004H17.0016Z" fill="#0B50A0"/>
<path d="M17.0016 15.3434C17.1214 15.3434 17.2652 15.2954 17.393 15.2235C17.5528 15.1357 17.6646 15.1756 17.8243 15.2555C17.9921 15.3354 18.1278 15.3114 18.2237 15.2555C18.2716 15.2235 18.3115 15.1596 18.4154 15.1836C18.3675 15.3833 18.2956 15.559 18.2077 15.7028C18.048 15.7427 17.9601 15.7427 17.7924 15.6708C17.6246 15.591 17.417 15.543 17.3052 15.6149C17.2013 15.6788 17.0895 15.7108 17.0016 15.7108C16.9138 15.7108 16.802 15.6788 16.6981 15.6149C16.5863 15.543 16.3786 15.591 16.2109 15.6708C16.0432 15.7427 15.9553 15.7427 15.7956 15.7028C15.7077 15.559 15.6358 15.3833 15.5879 15.1836C15.6917 15.1596 15.7317 15.2235 15.7796 15.2555C15.8674 15.3114 16.0112 15.3354 16.171 15.2555C16.3387 15.1756 16.4505 15.1357 16.6103 15.2235C16.7381 15.2954 16.8818 15.3434 17.0016 15.3434H17.0016Z" fill="#0B50A0"/>
<path d="M17.0011 16.6211C17.3206 16.4853 17.6161 16.3335 17.8558 16.1258C17.7919 16.1019 17.7519 16.1179 17.696 16.0779C17.6401 16.038 17.4724 16.022 17.3286 16.1019C17.1768 16.1738 17.1129 16.1897 17.0011 16.1897C16.8893 16.1897 16.8254 16.1738 16.6736 16.1019C16.5299 16.022 16.3621 16.038 16.3062 16.0779C16.2503 16.1179 16.2104 16.1019 16.1465 16.1258C16.3861 16.3335 16.6736 16.4853 17.0011 16.6211H17.0011Z" fill="#0B50A0"/>
<path d="M16.7942 13.2749C16.8022 13.2909 16.7863 13.3308 16.7942 13.3468C16.8102 13.3788 16.8102 13.3947 16.8342 13.4107H16.8901C17.0658 13.4107 17.2735 13.3388 17.4492 13.3388C17.6169 13.3388 17.7208 13.3947 17.8166 13.3947C17.8725 13.3947 17.9204 13.3548 17.9204 13.3149C17.9204 13.2749 17.8565 13.251 17.7208 13.251C17.5291 13.251 17.4252 13.2989 17.2655 13.2989C17.0259 13.2989 16.9859 13.211 16.9859 13.1711C16.9859 13.1311 17.0259 13.0752 17.1537 13.0752C17.1936 13.0752 17.2256 13.0672 17.2415 13.0513C17.2495 13.0353 17.2735 13.0034 17.3214 12.9794C17.3773 12.9474 17.4891 12.9794 17.545 12.9395C17.545 12.9714 17.4971 13.0193 17.4572 13.0353C17.5371 13.0113 17.6249 13.0113 17.6409 13.0752C17.601 13.0513 17.5371 13.0672 17.5131 13.0752C17.4811 13.0832 17.4652 13.0912 17.4332 13.0992C17.4652 13.0912 17.4811 13.1551 17.5291 13.1551C17.4811 13.195 17.4013 13.195 17.3214 13.1631C17.2974 13.1551 17.2335 13.1311 17.1936 13.1311C17.1137 13.1311 17.0658 13.1471 17.0658 13.1791C17.0658 13.219 17.1137 13.243 17.2575 13.243C17.4013 13.243 17.4811 13.203 17.6968 13.203C17.6808 13.1791 17.7048 13.1551 17.6728 13.1311C17.7527 13.1311 17.8406 13.1551 17.8725 13.211C17.8645 13.1551 17.9125 13.1072 17.8965 13.0593C17.9444 13.0672 17.9843 13.1152 17.9923 13.1551C17.9923 13.1311 18.0243 13.1311 18.0243 13.1072C18.0722 13.1311 18.0962 13.1871 18.0882 13.235C18.1121 13.195 18.1361 13.211 18.1521 13.1631C18.1681 13.195 18.1601 13.2909 18.1042 13.3228C18.1521 13.2909 18.224 13.2909 18.2719 13.3468C18.224 13.3388 18.2 13.3628 18.176 13.3708C18.0802 13.4267 17.9204 13.4586 17.8006 13.4506C17.6728 13.4427 17.6569 13.4187 17.577 13.4187C17.6249 13.4267 17.7208 13.5225 17.8086 13.5225C17.8645 13.5225 17.9045 13.5225 17.9284 13.5145C17.9524 13.5065 17.9923 13.5145 18.0243 13.5305C18.0482 13.5545 18.0962 13.5784 18.1281 13.5704C18.1201 13.6024 18.1042 13.6184 18.0802 13.6264C18.1201 13.6503 18.0962 13.6663 18.1361 13.6982C18.1201 13.6982 18.1042 13.7142 18.0802 13.7062C18.1042 13.7302 18.1042 13.7621 18.1281 13.7781C18.1201 13.7781 18.0962 13.7861 18.0802 13.7781C18.1042 13.8101 18.0802 13.85 18.1042 13.866C18.1281 13.8979 18.0802 13.9379 18.0403 13.9059C18.0482 13.9299 18.0243 13.9538 18.0003 13.9458C17.9764 13.9379 17.9604 13.9139 17.9684 13.9059C17.9684 13.8979 17.9684 13.8979 17.9764 13.8899C17.9604 13.9139 17.9284 13.9139 17.9125 13.9059C17.9045 13.8979 17.8965 13.8899 17.8965 13.8819C17.8406 13.8979 17.8166 13.85 17.8246 13.826C17.8326 13.8021 17.8805 13.7941 17.8965 13.8021C17.9125 13.8101 17.9284 13.8181 17.9444 13.8021C17.9604 13.7941 17.9684 13.7781 17.9684 13.7621C17.9684 13.7382 17.9444 13.6663 17.8406 13.6743C17.7208 13.6823 17.5291 13.6503 17.4332 13.6184C17.4252 13.6104 17.4172 13.6104 17.4093 13.6024C17.4093 13.6343 17.3773 13.6503 17.3773 13.6823C17.3773 13.7222 17.3933 13.7542 17.4412 13.7701C17.4172 13.8101 17.3773 13.8021 17.3613 13.7781C17.3613 13.8021 17.3294 13.8181 17.3294 13.85C17.3214 13.834 17.3134 13.826 17.3054 13.8101C17.2815 13.866 17.2176 13.8979 17.1856 13.8819C17.1457 13.9139 17.0978 13.9059 17.0818 13.874C17.0578 13.8899 17.0259 13.8899 17.0099 13.874C17.0099 13.8979 16.9939 13.8899 16.9859 13.9219C16.9859 13.9379 16.954 13.9458 16.938 13.9379C16.922 13.9299 16.9141 13.8979 16.93 13.8819C16.9061 13.8979 16.8821 13.8979 16.8661 13.8819C16.8661 13.866 16.8661 13.842 16.8821 13.834H16.8981C16.8821 13.826 16.8581 13.834 16.8422 13.826C16.8262 13.8101 16.8262 13.7941 16.8342 13.7781C16.8422 13.7701 16.8661 13.7542 16.8821 13.7701L16.8901 13.7781C16.8901 13.7621 16.8981 13.7462 16.9061 13.7462C16.922 13.7382 16.946 13.7382 16.97 13.7621C16.9859 13.7861 17.0019 13.7861 17.0498 13.7781C17.0898 13.7781 17.1537 13.7382 17.2016 13.6982C17.0658 13.6743 17.1457 13.5864 17.1856 13.5545C17.1537 13.5465 17.1057 13.5465 17.0738 13.5625C16.9061 13.6503 16.7303 13.7542 16.6185 13.7222C16.6185 13.7382 16.6265 13.7542 16.6345 13.7701C16.6105 13.7701 16.5626 13.7701 16.5466 13.7462C16.5386 13.7621 16.5227 13.8021 16.5387 13.834C16.5227 13.8181 16.4748 13.8021 16.4508 13.7941C16.4668 13.8101 16.4508 13.842 16.4588 13.866C16.4348 13.842 16.3949 13.826 16.3789 13.842C16.3629 13.858 16.331 13.866 16.307 13.858C16.291 13.8819 16.2671 13.8979 16.2431 13.9059C16.2431 13.8899 16.2431 13.866 16.2351 13.858C16.2271 13.8819 16.2032 13.9139 16.1712 13.9299C16.1712 13.9139 16.1712 13.8899 16.1632 13.874C16.1632 13.9059 16.0994 13.9219 16.0914 13.9458C16.0994 13.9219 16.0994 13.8979 16.0994 13.8819C16.0834 13.9059 16.0594 13.9299 16.0195 13.9379C16.0275 13.9219 16.0355 13.9059 16.0275 13.8899C16.0195 13.9219 15.9716 13.9379 15.9316 13.9299C15.9316 13.9458 15.8997 13.9698 15.8597 13.9458C15.8358 13.9379 15.8198 13.9139 15.8358 13.8979C15.8038 13.8979 15.7719 13.866 15.7878 13.842C15.7878 13.834 15.7958 13.826 15.7958 13.8181C15.7719 13.8021 15.7639 13.7701 15.7878 13.7462C15.7958 13.7382 15.8198 13.7382 15.8358 13.7382C15.8358 13.6743 15.8917 13.6743 15.9156 13.7222C15.9316 13.7462 15.9795 13.7861 16.0195 13.7781C16.0355 13.7781 16.0434 13.7701 16.0594 13.7701C16.1073 13.7542 16.2032 13.7142 16.2591 13.6663C16.2671 13.6423 16.2671 13.6264 16.2671 13.6104C16.2351 13.6264 16.2032 13.6423 16.1872 13.6663V13.6423C16.1632 13.6423 16.1233 13.6343 16.1073 13.6343C16.1153 13.6264 16.1233 13.5864 16.1393 13.5784C16.0994 13.5864 16.0594 13.5784 16.0275 13.5704C16.0434 13.5545 16.0434 13.5305 16.0514 13.5065C16.0355 13.5145 15.9955 13.4986 15.9636 13.5065C15.9716 13.4826 15.9795 13.4506 16.0035 13.4427C15.9716 13.4506 15.9316 13.4427 15.8917 13.4267C15.9236 13.4267 15.9396 13.3867 15.9636 13.3867C15.8997 13.3867 15.8837 13.3548 15.8517 13.3388C15.8757 13.3468 15.8917 13.3228 15.9156 13.3228C15.8917 13.3149 15.8517 13.2749 15.8677 13.251C15.8597 13.2589 15.8517 13.2749 15.8358 13.2829C15.8198 13.2909 15.7878 13.2829 15.7639 13.2589C15.7479 13.227 15.7559 13.1871 15.7878 13.1791C15.7479 13.1711 15.7479 13.1311 15.7639 13.1152C15.7719 13.0992 15.8038 13.0752 15.8198 13.0992C15.8278 13.1072 15.8358 13.1232 15.8438 13.1311C15.8358 13.1152 15.8358 13.0832 15.8358 13.0593C15.8438 13.0353 15.8597 13.0353 15.8837 13.0273C15.9077 13.0273 15.9236 13.0513 15.9236 13.0752C15.9236 13.0992 15.9316 13.1152 15.9396 13.1471C15.9396 13.1391 15.9476 13.1232 15.9476 13.1152C15.9476 13.0832 15.9875 13.0912 16.0115 13.0992C16.0355 13.1072 16.0434 13.1551 16.0115 13.1791C15.9955 13.195 16.0035 13.219 16.0195 13.235C16.0754 13.3228 16.1712 13.3947 16.2511 13.4027C16.2511 13.3708 16.2671 13.3388 16.291 13.3149C16.291 13.2989 16.299 13.2749 16.307 13.2589C16.315 13.211 16.339 13.1871 16.3709 13.203C16.3629 13.195 16.3549 13.1871 16.3549 13.1791C16.331 13.1551 16.307 13.1152 16.323 13.0832C16.339 13.0513 16.3869 13.0593 16.4029 13.0752C16.3949 13.0273 16.4508 12.9874 16.4508 12.9634C16.4588 12.9874 16.4748 13.0193 16.4668 13.0433C16.4748 13.0113 16.5307 12.9714 16.5706 12.9554C16.5546 12.9794 16.6025 13.0193 16.5946 13.0433C16.6105 13.0034 16.6744 12.9794 16.7224 12.9794C16.7064 12.9954 16.7064 13.0273 16.7064 13.0433C16.7303 13.0433 16.7703 13.0353 16.7863 13.0113C16.7863 13.0433 16.7703 13.0752 16.7543 13.0912C16.7623 13.0832 16.7942 13.0832 16.8182 13.0832C16.7942 13.1072 16.8022 13.1311 16.7783 13.1471C16.8102 13.1311 16.8502 13.1311 16.8581 13.1631C16.8741 13.1871 16.8502 13.227 16.8342 13.251C16.8182 13.2589 16.8022 13.2749 16.7942 13.2749L16.7942 13.2749Z" fill="#F9D050" stroke="black" stroke-width="0.03"/>
<path d="M16.2986 13.3691C16.2427 13.3931 16.2267 13.449 16.2188 13.481" stroke="black" stroke-width="0.03"/>
<path d="M16.2903 13.4258C16.2104 13.4738 16.1784 13.5137 16.1944 13.6016" stroke="black" stroke-width="0.03"/>
<path d="M16.3301 13.6663C16.378 13.6504 16.41 13.6344 16.4499 13.5625" stroke="black" stroke-width="0.03"/>
<path d="M16.4263 13.5936C16.4103 13.6255 16.4263 13.6814 16.4023 13.7054C16.4423 13.6814 16.4742 13.6495 16.4822 13.5936" stroke="black" stroke-width="0.03"/>
<path d="M16.4424 13.6814C16.4743 13.6654 16.5223 13.6175 16.5462 13.5616C16.5382 13.5856 16.5462 13.6255 16.5302 13.6495C16.5702 13.6095 16.5862 13.5856 16.5941 13.5456C16.5941 13.5536 16.6021 13.5696 16.6021 13.5776C16.6181 13.5616 16.6341 13.5456 16.6341 13.5137" stroke="black" stroke-width="0.03"/>
<path d="M16.6338 13.5383V13.5783C16.6657 13.5543 16.6737 13.5224 16.6737 13.4824" stroke="black" stroke-width="0.03"/>
<path d="M16.666 13.5287C16.7139 13.4968 16.7219 13.4488 16.7219 13.377" stroke="black" stroke-width="0.03"/>
<path d="M16.7217 13.4575C16.7536 13.4336 16.7616 13.4176 16.7616 13.3457" stroke="black" stroke-width="0.03"/>
<path d="M16.658 13.1303C16.642 13.1303 16.626 13.1383 16.626 13.1623C16.626 13.1782 16.6021 13.2022 16.6021 13.2262C16.5941 13.2581 16.5781 13.2661 16.5541 13.2581C16.5302 13.2421 16.5302 13.2421 16.5302 13.2182C16.5302 13.1862 16.5701 13.1782 16.5701 13.1463C16.5781 13.1303 16.5861 13.1063 16.5941 13.1063C16.5541 13.1303 16.4982 13.1143 16.4902 13.0664" stroke="black" stroke-width="0.03"/>
<path d="M16.7296 13.1543C16.7137 13.1623 16.6977 13.1383 16.6737 13.1463C16.6657 13.1463 16.6418 13.1543 16.6338 13.1463" stroke="black" stroke-width="0.03"/>
<path d="M16.6182 13.1942C16.6262 13.2022 16.6661 13.2182 16.706 13.2022C16.6741 13.2102 16.6501 13.1703 16.6821 13.1463" stroke="black" stroke-width="0.03"/>
<path d="M16.5456 13.1152C16.5136 13.1152 16.4897 13.1392 16.4976 13.1632C16.5056 13.1871 16.5376 13.1871 16.5615 13.1711" stroke="black" stroke-width="0.03"/>
<path d="M16.4902 13.5143C16.4982 13.5063 16.5062 13.4903 16.5062 13.4824C16.5222 13.4824 16.5382 13.4744 16.5461 13.4664C16.5781 13.4664 16.6021 13.4424 16.61 13.4185C16.626 13.4185 16.634 13.3785 16.642 13.3626C16.65 13.3705 16.666 13.3626 16.6739 13.3306C16.6899 13.3386 16.7139 13.3306 16.7219 13.3066" stroke="black" stroke-width="0.03"/>
<path d="M16.3938 13.2501C16.3938 13.2581 16.3778 13.2741 16.3619 13.2821C16.3698 13.298 16.3619 13.338 16.3459 13.346C16.3539 13.3619 16.3459 13.3859 16.3379 13.4019C16.3379 13.4099 16.3459 13.4338 16.3459 13.4418" stroke="black" stroke-width="0.03"/>
<path d="M16.426 13.0898C16.41 13.1298 16.418 13.1777 16.4499 13.1857" stroke="black" stroke-width="0.03"/>
<path d="M16.4417 13.2188C16.4338 13.2587 16.4338 13.3146 16.4258 13.3386C16.4178 13.3545 16.4018 13.4104 16.4657 13.4264C16.5376 13.4424 16.5775 13.4344 16.6175 13.3146" stroke="black" stroke-width="0.03"/>
<path d="M16.7378 13.625C16.7378 13.633 16.7298 13.649 16.7139 13.649" stroke="black" stroke-width="0.03"/>
<path d="M16.7935 13.6096C16.7935 13.6255 16.7775 13.6495 16.7695 13.6575" stroke="black" stroke-width="0.03"/>
<path d="M16.849 13.5936C16.849 13.6095 16.849 13.6335 16.833 13.6415" stroke="black" stroke-width="0.03"/>
<path d="M16.3618 13.0977C16.3698 13.0977 16.3778 13.1136 16.3858 13.1296C16.3618 13.1136 16.3378 13.1536 16.3538 13.1775" stroke="black" stroke-width="0.03"/>
<path d="M16.3386 13.2341C16.3306 13.2421 16.3146 13.2501 16.3066 13.2581" stroke="black" stroke-width="0.03"/>
<path d="M16.314 13.3066C16.306 13.3066 16.298 13.3146 16.29 13.3146" stroke="black" stroke-width="0.03"/>
<path d="M15.9307 13.1623C15.9307 13.1543 15.9307 13.1543 15.9387 13.1463" stroke="black" stroke-width="0.03"/>
<path d="M15.8587 13.1388C15.8508 13.1388 15.8508 13.1388 15.8428 13.1309" stroke="black" stroke-width="0.03"/>
<path d="M15.8672 13.2501H15.8832" stroke="black" stroke-width="0.03"/>
<path d="M15.835 13.2017C15.8191 13.1857 15.7951 13.1777 15.7871 13.1777" stroke="black" stroke-width="0.03"/>
<path d="M16.2744 13.498C16.2185 13.546 16.1945 13.5859 16.1865 13.6418" stroke="black" stroke-width="0.03"/>
<path d="M16.3305 13.5371C16.3145 13.5691 16.2906 13.593 16.2666 13.609" stroke="black" stroke-width="0.03"/>
<path d="M16.0187 13.7782C15.9548 13.7942 15.9068 13.7862 15.8589 13.7543C15.8509 13.7463 15.8429 13.7463 15.835 13.7383" stroke="black" stroke-width="0.03"/>
<path d="M16.2585 13.6655C16.2505 13.6974 16.2425 13.7373 16.2266 13.7453C16.2905 13.7134 16.3464 13.6655 16.3544 13.5936" stroke="black" stroke-width="0.03"/>
<path d="M15.7949 13.8166C15.8189 13.8086 15.8428 13.8246 15.8588 13.8086" stroke="black" stroke-width="0.03"/>
<path d="M17.1846 13.5533C17.2005 13.5612 17.2245 13.5692 17.2325 13.5772C17.2405 13.5612 17.2724 13.5373 17.2964 13.5293" stroke="black" stroke-width="0.03"/>
<path d="M16.6182 13.7207C16.6102 13.6887 16.6262 13.6488 16.6741 13.6328" stroke="black" stroke-width="0.03"/>
<path d="M16.3066 13.8567C16.3146 13.8407 16.3146 13.8168 16.3226 13.8008" stroke="black" stroke-width="0.03"/>
<path d="M15.9546 13.8809C15.9466 13.8968 15.9307 13.9128 15.9307 13.9288" stroke="black" stroke-width="0.03"/>
<path d="M15.835 13.8975C15.835 13.8975 15.835 13.8895 15.8429 13.8895C15.8589 13.8816 15.8829 13.8656 15.8909 13.8496" stroke="black" stroke-width="0.03"/>
<path d="M16.9216 13.7853C16.9056 13.7933 16.8976 13.7853 16.8896 13.7773" stroke="black" stroke-width="0.03"/>
<path d="M16.9134 13.8262C16.9134 13.8262 16.9054 13.8342 16.8975 13.8342" stroke="black" stroke-width="0.03"/>
<path d="M16.9536 13.8651C16.9457 13.8731 16.9377 13.8811 16.9297 13.8811" stroke="black" stroke-width="0.03"/>
<path d="M17.1846 13.8801C17.2005 13.8721 17.2085 13.8562 17.2165 13.8242" stroke="black" stroke-width="0.03"/>
<path d="M17.0811 13.8741C17.105 13.8661 17.121 13.8501 17.145 13.8262" stroke="black" stroke-width="0.03"/>
<path d="M17.3047 13.8096C17.3047 13.7937 17.3047 13.7777 17.3127 13.7617" stroke="black" stroke-width="0.03"/>
<path d="M17.8959 13.8807C17.8799 13.8647 17.8799 13.8407 17.9039 13.8247C17.9199 13.8168 17.9278 13.8088 17.9438 13.8008" stroke="black" stroke-width="0.03"/>
<path d="M17.4082 13.6009C17.2804 13.545 17.2884 13.4731 17.1846 13.4811" stroke="black" stroke-width="0.03"/>
<path d="M17.9756 13.8496C17.9836 13.8576 17.9756 13.8816 17.9756 13.8895" stroke="black" stroke-width="0.03"/>
<path d="M18.047 13.8496C18.0391 13.8736 18.0391 13.8816 18.0391 13.9055" stroke="black" stroke-width="0.03"/>
<path d="M17.4321 13.0977H17.3682" stroke="black" stroke-width="0.03"/>
<path d="M16.7617 13.3691C16.7617 13.3851 16.7857 13.4171 16.8496 13.4171C16.8416 13.4171 16.8336 13.4091 16.8336 13.4091" stroke="black" stroke-width="0.03"/>
<path d="M16.793 13.2741C16.7851 13.2821 16.7771 13.2741 16.7771 13.2741C16.7611 13.2581 16.7851 13.2262 16.809 13.2102C16.7851 13.2182 16.7691 13.2182 16.7531 13.2182C16.7371 13.2661 16.6892 13.2901 16.6573 13.2581C16.6493 13.2901 16.6093 13.33 16.5774 13.322C16.5454 13.3061 16.5375 13.2821 16.5454 13.2581C16.5055 13.3061 16.4576 13.2741 16.4416 13.2581C16.4336 13.2422 16.4416 13.2022 16.4576 13.1543" stroke="black" stroke-width="0.03"/>
<path d="M17.3047 13.5781C17.2807 13.5941 17.2568 13.5781 17.2328 13.6021C17.2168 13.6181 17.2408 13.626 17.2568 13.626C17.2488 13.65 17.2488 13.658 17.2887 13.658C17.2727 13.682 17.3207 13.6899 17.3127 13.7219C17.3366 13.6979 17.3366 13.666 17.3287 13.642C17.3207 13.6181 17.2807 13.6021 17.3047 13.5781Z" fill="black"/>
<path d="M16.5783 13.3237C16.5464 13.3078 16.5384 13.2838 16.5464 13.2598C16.5384 13.2758 16.5224 13.2838 16.5064 13.2838C16.4745 13.3557 16.4345 13.4196 16.3866 13.4196C16.3307 13.4276 16.3387 13.4835 16.3786 13.4835C16.4665 13.4994 16.5064 13.4675 16.5783 13.3237Z" fill="#073163"/>
<path d="M15.7874 13.1329C15.8114 13.109 15.7954 13.085 15.7794 13.077C15.7555 13.069 15.7076 13.077 15.6836 13.1169C15.7076 13.109 15.7315 13.109 15.7395 13.1249C15.7475 13.1409 15.7635 13.1569 15.7874 13.1329Z" fill="#073163"/>
<path d="M15.8271 12.9883C15.8831 12.9883 15.899 12.9963 15.907 13.0202C15.915 13.0362 15.899 13.0602 15.8831 13.0602C15.8591 13.0602 15.8351 13.0442 15.8431 13.0362C15.8511 13.0202 15.8511 12.9963 15.8271 12.9883Z" fill="#073163"/>
<path d="M15.9872 13.1152C16.0271 13.1231 16.0431 13.0992 16.0192 13.0672C16.0112 13.0433 15.9872 13.0273 15.9473 13.0353C15.9872 13.0592 15.9473 13.0992 15.9872 13.1152Z" fill="#073163"/>
<path d="M15.6914 13.2519C15.7154 13.2918 15.7553 13.2918 15.7713 13.2838C15.7952 13.2759 15.8032 13.2519 15.7952 13.2359C15.7793 13.212 15.7553 13.204 15.7473 13.2359C15.7313 13.2679 15.7074 13.2599 15.6914 13.2519Z" fill="#073163"/>
<path d="M15.8118 13.7388C15.7959 13.7069 15.7479 13.7069 15.708 13.7388C15.724 13.7308 15.7559 13.7388 15.7639 13.7548C15.7719 13.7708 15.7879 13.7708 15.7959 13.7708C15.8039 13.7628 15.8198 13.7548 15.8118 13.7388Z" fill="#073163"/>
<path d="M15.875 13.692C15.875 13.6521 15.8191 13.6441 15.7871 13.6601C15.8031 13.6601 15.827 13.676 15.827 13.692C15.835 13.708 15.851 13.716 15.859 13.716C15.875 13.708 15.883 13.7 15.875 13.692Z" fill="#073163"/>
<path d="M15.7955 13.8349C15.7476 13.8269 15.7236 13.8829 15.7236 13.9228C15.7316 13.8988 15.7556 13.8829 15.7795 13.8908C15.8035 13.8908 15.8115 13.8829 15.8115 13.8669C15.8195 13.8509 15.8115 13.8429 15.7955 13.8349Z" fill="#073163"/>
<path d="M15.8037 13.971C15.8197 13.979 15.8357 13.963 15.8436 13.939C15.8436 13.923 15.8756 13.923 15.8836 13.931C15.8996 13.939 15.8996 13.971 15.8756 13.9869C15.8596 13.9949 15.8197 14.0029 15.8037 13.971Z" fill="#073163"/>
<path d="M16.914 13.7314C16.8981 13.7234 16.8581 13.7074 16.8262 13.7314C16.8501 13.7234 16.8661 13.7394 16.8741 13.7554C16.8741 13.7713 16.8981 13.7793 16.906 13.7634C16.914 13.7554 16.922 13.7394 16.914 13.7314Z" fill="#073163"/>
<path d="M16.8416 13.787C16.8096 13.771 16.7697 13.811 16.7617 13.8429C16.7697 13.8349 16.8017 13.819 16.8176 13.819C16.8336 13.827 16.8496 13.819 16.8496 13.803C16.8576 13.795 16.8576 13.787 16.8416 13.787Z" fill="#073163"/>
<path d="M16.8821 13.8516C16.8581 13.8516 16.8262 13.8835 16.8262 13.9155C16.8342 13.8995 16.8501 13.8915 16.8661 13.8995C16.8821 13.8995 16.906 13.8915 16.906 13.8755C16.906 13.8595 16.8981 13.8516 16.8821 13.8516Z" fill="#073163"/>
<path d="M16.9532 13.9151C16.9372 13.9071 16.9133 13.9151 16.9133 13.9391C16.9133 13.963 16.9133 13.987 16.9053 13.995C16.9212 13.979 16.9372 13.971 16.9532 13.963C16.9612 13.955 16.9692 13.9311 16.9532 13.9151Z" fill="#073163"/>
<path d="M17.856 13.8429C17.84 13.827 17.816 13.8349 17.8081 13.8509C17.8001 13.8669 17.7921 13.9068 17.8081 13.9388C17.8081 13.9228 17.824 13.8988 17.84 13.8988C17.864 13.8909 17.8719 13.8589 17.856 13.8429Z" fill="#073163"/>
<path d="M17.904 13.8749C17.872 13.8908 17.872 13.9467 17.896 13.9787C17.896 13.9627 17.904 13.9388 17.9199 13.9308C17.9439 13.9308 17.9519 13.8988 17.9439 13.8828C17.9279 13.8669 17.912 13.8749 17.904 13.8749Z" fill="#073163"/>
<path d="M17.9998 13.9064C17.9839 13.8984 17.9679 13.9144 17.9679 13.9304C17.9599 13.9543 17.9759 13.9863 17.9998 14.0023C17.9998 13.9863 18.0078 13.9703 18.0158 13.9623C18.0398 13.9464 18.0318 13.9144 17.9998 13.9064Z" fill="#073163"/>
<path d="M18.0714 13.8984C18.0554 13.8984 18.0395 13.9224 18.0554 13.9464C18.0634 13.9623 18.0794 13.9703 18.1114 13.9623C18.1034 13.9623 18.0874 13.9384 18.0954 13.9304C18.1034 13.9144 18.0954 13.8984 18.0714 13.8984Z" fill="#073163"/>
<path d="M15.8511 15.3902L16.2505 14.1602L16.6498 15.3902L15.6035 14.6314H16.8975L15.8511 15.3902Z" fill="#F9D050"/>
<path d="M15.931 15.2791L16.7616 14.6721H15.7393L16.5619 15.2791L16.2504 14.3047L15.931 15.2791Z" fill="#024919"/>
<path d="M18.4952 12.8828V14.4403C18.4952 15.7902 17.8562 16.2534 17.0016 16.6208C16.147 16.2534 15.5 15.7902 15.5 14.4403V12.8828H18.4952H18.4952Z" stroke="black" stroke-width="0.03"/>
<path d="M20 6L20 18L4 18L4 6L20 6ZM20 5L4 5C3.4 5 3 5.4 3 6L3 18C3 18.6 3.4 19 4 19L20 19C20.6 19 21 18.6 21 18L21 6C21 5.4 20.6 5 20 5Z" fill="#B5B5B5"/>
</svg>
