<svg width="24" height="24" viewBox="0 0 24 24" fill="none" xmlns="http://www.w3.org/2000/svg">
<path d="M20 18H4V6H20V18Z" fill="#D52B1E"/>
<path d="M8.89279 12H20V6H4L8.89279 12Z" fill="white"/>
<path d="M9 12H4V6H9V12Z" fill="#0039A6"/>
<path d="M20 6L20 18L4 18L4 6L20 6ZM20 5L4 5C3.4 5 3 5.4 3 6L3 18C3 18.6 3.4 19 4 19L20 19C20.6 19 21 18.6 21 18L21 6C21 5.4 20.6 5 20 5Z" fill="none"/>
<path d="M6.5 7.5L6.83677 8.53647H7.92658L7.04491 9.17705L7.38168 10.2135L6.5 9.57295L5.61832 10.2135L5.95509 9.17705L5.07342 8.53647H6.16323L6.5 7.5Z" fill="white"/>
</svg>
