<svg width="24" height="24" viewBox="0 0 24 24" fill="none" xmlns="http://www.w3.org/2000/svg">
<path d="M20 6H4V18H20V6Z" fill="#3A75C4"/>
<path d="M20 6H4V15H20V6Z" fill="#CE1126"/>
<path d="M20 6H4V12H20V6Z" fill="white"/>
<path d="M20 6H4V9H20V6Z" fill="#FFC61E"/>
<path d="M4 18L12 12L4 6V18Z" fill="#3D8E33"/>
<path d="M7 14C8.10457 14 9 12.8807 9 11.5C9 10.1193 8.10457 9 7 9C5.89543 9 5 10.1193 5 11.5C5 12.8807 5.89543 14 7 14Z" fill="white"/>
<path d="M7.5 14C8.32843 14 9 12.8807 9 11.5C9 10.1193 8.32843 9 7.5 9C6.67157 9 6 10.1193 6 11.5C6 12.8807 6.67157 14 7.5 14Z" fill="#3D8E33"/>
<path d="M7.6002 9.27148L7.86514 10.0997L7.17188 9.58828H8.02777L7.33451 10.0997L7.6002 9.27148Z" fill="white"/>
<path d="M7.59825 10.5L7.86318 11.3282L7.16992 10.8168H8.02582L7.33256 11.3282L7.59825 10.5Z" fill="white"/>
<path d="M7.59825 11.5L7.86318 12.3282L7.16992 11.8168H8.02582L7.33256 12.3282L7.59825 11.5Z" fill="white"/>
<path d="M7.59825 12.7L7.86318 13.5282L7.16992 13.0168H8.02582L7.33256 13.5283L7.59825 12.7Z" fill="white"/>
<path d="M20 6L20 18L4 18L4 6L20 6ZM20 5L4 5C3.4 5 3 5.4 3 6L3 18C3 18.6 3.4 19 4 19L20 19C20.6 19 21 18.6 21 18L21 6C21 5.4 20.6 5 20 5Z" fill="#B5B5B5"/>
</svg>
