<svg width="24" height="24" viewBox="0 0 24 24" fill="none" xmlns="http://www.w3.org/2000/svg">
<path d="M20 6H4V18H20V6Z" fill="white"/>
<path d="M11.6957 15.9657C11.6921 15.964 11.6914 15.9633 11.6888 15.9608L11.6863 15.9585C11.6798 15.9525 11.6691 15.942 11.6546 15.9256C11.628 15.8954 11.5923 15.8511 11.5608 15.8119C11.4985 15.7343 11.4471 15.6674 11.4374 15.6548L11.4215 15.6341L11.2662 15.5862L11.1527 15.5333L11.2133 15.4652L11.4215 15.5543L11.5768 15.5862L11.8641 15.7975L11.8639 15.7977C11.8633 15.7982 11.8221 15.8324 11.7812 15.8697C11.7629 15.8863 11.7399 15.9076 11.7236 15.9253C11.7161 15.9335 11.7095 15.9416 11.705 15.9481C11.7023 15.9521 11.7007 15.9558 11.7 15.9575L11.7178 15.9464L11.7372 15.9615L11.6978 15.9652L11.696 15.9656L11.6957 15.9657ZM10.6289 15.6453C10.4934 15.6453 10.3595 15.6078 10.231 15.534L10.2309 15.5339L10.2309 15.5337C10.2309 15.5337 10.2477 15.5017 10.2885 15.4718C10.3273 15.4433 10.3973 15.4093 10.5105 15.4088H10.5128C10.6469 15.4088 10.8109 15.4544 11.0003 15.5442C10.9939 15.5485 10.8452 15.6453 10.629 15.6453L10.6292 15.6455L10.6289 15.6453ZM10.0415 15.5151C10.0165 15.5151 9.99395 15.5056 9.97813 15.4885C9.96515 15.4743 9.95585 15.4555 9.94969 15.4309C9.93961 15.3905 9.94239 15.3504 9.94267 15.3466C9.95319 15.3421 9.96391 15.3397 9.97391 15.3395L9.97615 15.3394C10.0264 15.3394 10.0659 15.383 10.0829 15.4262C10.0925 15.4507 10.0944 15.4714 10.0884 15.4875C10.0824 15.5037 10.0636 15.5149 10.0416 15.5149L10.0415 15.5151ZM11.0751 15.3953C10.7279 15.3457 10.5808 15.2202 10.5185 15.1237C10.452 15.0207 10.4656 14.9254 10.4658 14.9245L10.4658 14.9242L10.4661 14.9241C10.4662 14.9241 10.4873 14.9184 10.5193 14.9182C10.6116 14.9182 10.8479 14.9647 11.0752 15.3951L11.0754 15.3954L11.075 15.3952L11.0751 15.3953ZM10.3635 15.3265C10.2152 15.3265 10.1023 15.3009 10.0279 15.2504C9.98513 15.2214 9.96421 15.1896 9.95417 15.1679C9.94477 15.1477 9.94263 15.1308 9.94229 15.1275C9.94621 15.1257 10.0069 15.0987 10.0976 15.0945C10.1052 15.0941 10.113 15.0939 10.1211 15.0939C10.2357 15.0939 10.41 15.1313 10.594 15.3095L10.5942 15.3097L10.5939 15.3097C10.5099 15.3207 10.4323 15.3265 10.3633 15.3265L10.3635 15.3265ZM9.64533 15.2989C9.48893 15.2989 9.27407 15.2512 9.14007 15.1172L9.13993 15.117L9.14033 15.1169C9.14173 15.1166 9.28717 15.0797 9.45079 15.0757C9.46055 15.0754 9.47037 15.0753 9.48029 15.0753C9.62693 15.0753 9.73917 15.1037 9.81393 15.1598C9.84003 15.1794 9.85429 15.1976 9.85749 15.2155C9.86017 15.2304 9.85229 15.2465 9.83637 15.2585C9.80271 15.2839 9.74253 15.2974 9.65747 15.2988L9.64547 15.2992L9.64533 15.2989ZM9.13853 15.0389C9.11927 15.0389 9.10119 15.0304 9.08895 15.0156C9.07883 15.0033 9.07179 14.9873 9.06679 14.9651C9.05843 14.9282 9.06095 14.892 9.06097 14.8917L9.06099 14.8913C9.06827 14.8879 9.07641 14.886 9.08533 14.8858H9.08539C9.10853 14.8858 9.12617 14.8984 9.13717 14.909C9.15183 14.9231 9.16383 14.9419 9.17093 14.9619C9.17823 14.9825 9.17941 14.9997 9.17453 15.0146C9.17053 15.0264 9.15693 15.0388 9.13853 15.0388V15.0389ZM10.3091 15.0125C10.2841 15.0125 10.2615 15.003 10.2457 14.9859C10.2327 14.9717 10.2234 14.9529 10.2173 14.9283C10.2072 14.8879 10.21 14.8478 10.2103 14.844C10.2208 14.8395 10.2315 14.8371 10.2415 14.8369L10.2437 14.8368C10.294 14.8368 10.3335 14.8804 10.3505 14.9236C10.3601 14.9481 10.362 14.9688 10.356 14.9849C10.35 15.0013 10.331 15.0123 10.3092 15.0123L10.3091 15.0125ZM9.73893 14.9889C9.42419 14.9778 9.26085 14.8884 9.17925 14.8153C9.13331 14.7741 9.10777 14.7333 9.09445 14.7063C9.08189 14.6808 9.07713 14.6613 9.07629 14.6576L9.07671 14.6574C9.07677 14.6574 9.10649 14.6467 9.15441 14.6458L9.16177 14.6457C9.26791 14.6457 9.48399 14.6903 9.73881 14.9888V14.989L9.73893 14.9889ZM10.0807 14.9571C9.82751 14.9186 9.68405 14.8099 9.60829 14.7254C9.52887 14.6369 9.50509 14.5545 9.50403 14.5507C9.50449 14.5505 9.53543 14.5425 9.58203 14.5413C9.58541 14.5412 9.58893 14.5411 9.59251 14.5411C9.59613 14.5411 9.59981 14.5412 9.60357 14.5413C9.73093 14.5441 9.96225 14.6017 10.0807 14.957H10.0809L10.0807 14.9571ZM8.78073 14.8355C8.69775 14.8355 8.61725 14.8259 8.54149 14.807C8.40891 14.7738 8.35203 14.7232 8.32767 14.6866C8.31383 14.6658 8.30881 14.6475 8.30705 14.6359C8.30535 14.6248 8.30625 14.6159 8.30643 14.6144L8.30705 14.6142C8.30739 14.6141 8.39505 14.5895 8.51633 14.5876C8.52111 14.5876 8.52593 14.5875 8.53083 14.5875C8.58937 14.5875 8.64699 14.5931 8.70211 14.6041C8.91283 14.6463 9.02211 14.8053 9.02317 14.8069L9.02327 14.8071L9.02301 14.8072C9.02181 14.8074 8.92141 14.8356 8.78061 14.8356L8.78073 14.8355ZM9.36853 14.6219C9.34315 14.6219 9.32063 14.6127 9.30509 14.5958C9.29231 14.582 9.28301 14.563 9.27669 14.5377C9.26657 14.4974 9.26939 14.4576 9.26967 14.454C9.28019 14.4496 9.29091 14.4471 9.30091 14.4469L9.30315 14.4469C9.35327 14.4469 9.39291 14.4904 9.40993 14.5336C9.41929 14.5574 9.42093 14.5778 9.41479 14.5943C9.40859 14.6111 9.39039 14.6219 9.36859 14.6219L9.36853 14.6219ZM8.92653 14.5613C8.92463 14.5609 8.80699 14.5306 8.68719 14.4568C8.57631 14.3886 8.44067 14.2678 8.42413 14.0802V14.0801L8.42441 14.08C8.42443 14.08 8.43473 14.0775 8.44997 14.077C8.45207 14.0769 8.45431 14.0768 8.45665 14.0768C8.48977 14.0768 8.55757 14.0862 8.63959 14.1485C8.74399 14.2281 8.84039 14.3669 8.92659 14.5615L8.92653 14.5613ZM9.21513 14.5507C9.21439 14.5504 9.13055 14.5169 9.02575 14.429C8.92811 14.3472 8.79083 14.1998 8.69143 13.9624C8.69149 13.9624 8.71427 13.9503 8.74915 13.9481C8.75117 13.9479 8.75321 13.9479 8.75527 13.9479C8.75827 13.9479 8.76137 13.948 8.76453 13.9481C8.81275 13.9494 8.88619 13.9695 8.96761 14.0573C9.06113 14.1583 9.14461 14.3241 9.21569 14.5504L9.21589 14.551L9.21529 14.5508L9.21513 14.5507ZM8.46733 14.5289C8.37091 14.5289 8.33791 14.4766 8.32819 14.4541C8.31223 14.4171 8.31707 14.3803 8.31711 14.38L8.31717 14.3796C8.33277 14.3757 8.34927 14.3735 8.36513 14.3733L8.36843 14.3733C8.44441 14.3733 8.50439 14.4119 8.53011 14.4501C8.53521 14.4577 8.55085 14.484 8.53791 14.5045C8.52751 14.5207 8.50391 14.5289 8.46731 14.5289H8.46733ZM8.25373 14.2595C8.19989 14.2595 8.11751 14.2562 8.03091 14.2405C7.94503 14.2249 7.89635 14.1518 7.87065 14.0934C7.84267 14.0297 7.83477 13.9689 7.83469 13.9683H7.83493C8.10057 13.9761 8.22603 14.0537 8.28449 14.1174C8.34485 14.1832 8.34843 14.2515 8.34861 14.2559L8.34843 14.2559C8.34803 14.2559 8.31063 14.2595 8.25363 14.2595L8.25373 14.2595ZM8.53033 13.9831C8.52997 13.9827 8.49963 13.9452 8.46967 13.8986C8.43821 13.8497 8.40911 13.7986 8.40911 13.7569C8.40911 13.7166 8.39963 13.6316 8.39397 13.5845C8.38681 13.5248 8.37957 13.4737 8.37897 13.4694L8.37923 13.4694C8.38597 13.4719 8.54539 13.5317 8.54539 13.6813C8.54539 13.831 8.53063 13.9815 8.53049 13.983L8.53047 13.9833H8.53027L8.53033 13.9831ZM8.32373 13.9689C8.32205 13.9689 8.32039 13.9688 8.31873 13.9685C8.27161 13.9606 8.18881 13.9246 8.09727 13.8721C7.99563 13.8139 7.91309 13.7514 7.86487 13.6963C7.82091 13.6461 7.79481 13.5672 7.78727 13.4618C7.78193 13.387 7.78833 13.3247 7.78901 13.3185C7.79725 13.3158 7.80601 13.3145 7.81531 13.3145C7.85059 13.315 7.88825 13.3309 7.93909 13.3659C7.97871 13.3932 8.02239 13.4304 8.06889 13.4762C8.14913 13.5554 8.21225 13.6349 8.21287 13.6356L8.21351 13.6364C8.21881 13.6459 8.26425 13.7279 8.29965 13.8076C8.32213 13.8582 8.33499 13.8947 8.34013 13.9225C8.34307 13.9383 8.34393 13.9487 8.34005 13.9581C8.33843 13.962 8.33535 13.9657 8.33235 13.9671C8.32955 13.9683 8.32675 13.9689 8.32355 13.9689L8.32373 13.9689Z" fill="#435125"/>
<path d="M11.9537 15.9657C11.9573 15.964 11.958 15.9633 11.9606 15.9608L11.9631 15.9585C11.9696 15.9525 11.9803 15.942 11.9948 15.9256C12.0214 15.8954 12.0571 15.8511 12.0886 15.8119C12.1509 15.7343 12.2023 15.6674 12.212 15.6548L12.2279 15.6341L12.3832 15.5862L12.4967 15.5333L12.4361 15.4652L12.2279 15.5543L12.0726 15.5862L11.7853 15.7975L11.7855 15.7977C11.7861 15.7982 11.8273 15.8324 11.8682 15.8697C11.8865 15.8863 11.9095 15.9076 11.9258 15.9253C11.9333 15.9335 11.9399 15.9416 11.9444 15.9481C11.9471 15.9521 11.9487 15.9558 11.9494 15.9575L11.9316 15.9464L11.9122 15.9615L11.9516 15.9652L11.9534 15.9656L11.9537 15.9657ZM13.0205 15.6453C13.156 15.6453 13.2899 15.6078 13.4184 15.534L13.4185 15.5339L13.4185 15.5337C13.4185 15.5337 13.4017 15.5017 13.3609 15.4718C13.3221 15.4433 13.2521 15.4093 13.1389 15.4088H13.1366C13.0025 15.4088 12.8385 15.4544 12.6491 15.5442C12.6555 15.5485 12.8042 15.6453 13.0204 15.6453L13.0202 15.6455L13.0205 15.6453ZM13.6079 15.5151C13.6329 15.5151 13.6555 15.5056 13.6713 15.4885C13.6843 15.4743 13.6936 15.4555 13.6997 15.4309C13.7098 15.3905 13.707 15.3504 13.7067 15.3466C13.6962 15.3421 13.6855 15.3397 13.6755 15.3395L13.6733 15.3394C13.623 15.3394 13.5835 15.383 13.5665 15.4262C13.5569 15.4507 13.555 15.4714 13.561 15.4875C13.567 15.5037 13.5858 15.5149 13.6078 15.5149L13.6079 15.5151ZM12.5743 15.3953C12.9215 15.3457 13.0686 15.2202 13.1309 15.1237C13.1974 15.0207 13.1838 14.9254 13.1836 14.9245L13.1836 14.9242L13.1833 14.9241C13.1832 14.9241 13.1621 14.9184 13.1301 14.9182C13.0378 14.9182 12.8015 14.9647 12.5742 15.3951L12.574 15.3954L12.5744 15.3952L12.5743 15.3953ZM13.2859 15.3265C13.4342 15.3265 13.5471 15.3009 13.6215 15.2504C13.6643 15.2214 13.6852 15.1896 13.6952 15.1679C13.7046 15.1477 13.7068 15.1308 13.7071 15.1275C13.7032 15.1257 13.6425 15.0987 13.5518 15.0945C13.5442 15.0941 13.5364 15.0939 13.5283 15.0939C13.4137 15.0939 13.2394 15.1313 13.0554 15.3095L13.0552 15.3097L13.0555 15.3097C13.1395 15.3207 13.2171 15.3265 13.2861 15.3265L13.2859 15.3265ZM14.0041 15.2989C14.1605 15.2989 14.3753 15.2512 14.5093 15.1172L14.5095 15.117L14.5091 15.1169C14.5077 15.1166 14.3622 15.0797 14.1986 15.0757C14.1889 15.0754 14.179 15.0753 14.1691 15.0753C14.0225 15.0753 13.9102 15.1037 13.8355 15.1598C13.8094 15.1794 13.7951 15.1976 13.7919 15.2155C13.7892 15.2304 13.7971 15.2465 13.813 15.2585C13.8467 15.2839 13.9069 15.2974 13.9919 15.2988L14.0039 15.2992L14.0041 15.2989ZM14.5109 15.0389C14.5301 15.0389 14.5482 15.0304 14.5605 15.0156C14.5706 15.0033 14.5776 14.9873 14.5826 14.9651C14.591 14.9282 14.5885 14.892 14.5884 14.8917L14.5884 14.8913C14.5811 14.8879 14.573 14.886 14.5641 14.8858H14.564C14.5409 14.8858 14.5232 14.8984 14.5122 14.909C14.4976 14.9231 14.4856 14.9419 14.4785 14.9619C14.4712 14.9825 14.47 14.9997 14.4749 15.0146C14.4789 15.0264 14.4925 15.0388 14.5109 15.0388V15.0389ZM13.3403 15.0125C13.3653 15.0125 13.3879 15.003 13.4037 14.9859C13.4167 14.9717 13.426 14.9529 13.4321 14.9283C13.4422 14.8879 13.4394 14.8478 13.4391 14.844C13.4286 14.8395 13.4179 14.8371 13.4079 14.8369L13.4057 14.8368C13.3554 14.8368 13.3159 14.8804 13.2989 14.9236C13.2893 14.9481 13.2874 14.9688 13.2934 14.9849C13.2994 15.0013 13.3184 15.0123 13.3402 15.0123L13.3403 15.0125ZM13.9105 14.9889C14.2252 14.9778 14.3886 14.8884 14.4702 14.8153C14.5161 14.7741 14.5416 14.7333 14.555 14.7063C14.5675 14.6808 14.5723 14.6613 14.5731 14.6576L14.5727 14.6574C14.5726 14.6574 14.5429 14.6467 14.495 14.6458L14.4876 14.6457C14.3815 14.6457 14.1654 14.6903 13.9106 14.9888V14.989L13.9105 14.9889ZM13.5687 14.9571C13.8219 14.9186 13.9654 14.8099 14.0411 14.7254C14.1205 14.6369 14.1443 14.5545 14.1454 14.5507C14.1449 14.5505 14.114 14.5425 14.0674 14.5413C14.064 14.5412 14.0605 14.5411 14.0569 14.5411C14.0533 14.5411 14.0496 14.5412 14.0458 14.5413C13.9185 14.5441 13.6872 14.6017 13.5687 14.957H13.5685L13.5687 14.9571ZM14.8687 14.8355C14.9517 14.8355 15.0322 14.8259 15.1079 14.807C15.2405 14.7738 15.2974 14.7232 15.3217 14.6866C15.3356 14.6658 15.3406 14.6475 15.3424 14.6359C15.3441 14.6248 15.3432 14.6159 15.343 14.6144L15.3424 14.6142C15.342 14.6141 15.2544 14.5895 15.1331 14.5876C15.1283 14.5876 15.1235 14.5875 15.1186 14.5875C15.06 14.5875 15.0024 14.5931 14.9473 14.6041C14.7366 14.6463 14.6273 14.8053 14.6262 14.8069L14.6261 14.8071L14.6264 14.8072C14.6276 14.8074 14.728 14.8356 14.8688 14.8356L14.8687 14.8355ZM14.2809 14.6219C14.3063 14.6219 14.3288 14.6127 14.3443 14.5958C14.3571 14.582 14.3664 14.563 14.3727 14.5377C14.3828 14.4974 14.38 14.4576 14.3797 14.454C14.3692 14.4496 14.3585 14.4471 14.3485 14.4469L14.3463 14.4469C14.2961 14.4469 14.2565 14.4904 14.2395 14.5336C14.2301 14.5574 14.2285 14.5778 14.2346 14.5943C14.2408 14.6111 14.259 14.6219 14.2808 14.6219L14.2809 14.6219ZM14.7229 14.5613C14.7248 14.5609 14.8424 14.5306 14.9622 14.4568C15.0731 14.3886 15.2087 14.2678 15.2253 14.0802V14.0801L15.225 14.08C15.225 14.08 15.2147 14.0775 15.1994 14.077C15.1973 14.0769 15.1951 14.0768 15.1928 14.0768C15.1596 14.0768 15.0918 14.0862 15.0098 14.1485C14.9054 14.2281 14.809 14.3669 14.7228 14.5615L14.7229 14.5613ZM14.4343 14.5507C14.435 14.5504 14.5189 14.5169 14.6237 14.429C14.7213 14.3472 14.8586 14.1998 14.958 13.9624C14.9579 13.9624 14.9351 13.9503 14.9003 13.9481C14.8982 13.9479 14.8962 13.9479 14.8941 13.9479C14.8911 13.9479 14.888 13.948 14.8849 13.9481C14.8367 13.9494 14.7632 13.9695 14.6818 14.0573C14.5883 14.1583 14.5048 14.3241 14.4337 14.5504L14.4335 14.551L14.4341 14.5508L14.4343 14.5507ZM15.1821 14.5289C15.2785 14.5289 15.3115 14.4766 15.3212 14.4541C15.3372 14.4171 15.3323 14.3803 15.3323 14.38L15.3322 14.3796C15.3166 14.3757 15.3001 14.3735 15.2843 14.3733L15.281 14.3733C15.205 14.3733 15.145 14.4119 15.1193 14.4501C15.1142 14.4577 15.0986 14.484 15.1115 14.5045C15.1219 14.5207 15.1455 14.5289 15.1821 14.5289H15.1821ZM15.3957 14.2595C15.4495 14.2595 15.5319 14.2562 15.6185 14.2405C15.7044 14.2249 15.7531 14.1518 15.7788 14.0934C15.8067 14.0297 15.8146 13.9689 15.8147 13.9683H15.8145C15.5488 13.9761 15.4234 14.0537 15.3649 14.1174C15.3046 14.1832 15.301 14.2515 15.3008 14.2559L15.301 14.2559C15.3014 14.2559 15.3388 14.2595 15.3958 14.2595L15.3957 14.2595ZM15.1191 13.9831C15.1194 13.9827 15.1498 13.9452 15.1797 13.8986C15.2112 13.8497 15.2403 13.7986 15.2403 13.7569C15.2403 13.7166 15.2498 13.6316 15.2554 13.5845C15.2626 13.5248 15.2698 13.4737 15.2704 13.4694L15.2702 13.4694C15.2634 13.4719 15.104 13.5317 15.104 13.6813C15.104 13.831 15.1188 13.9815 15.1189 13.983L15.1189 13.9833H15.1191L15.1191 13.9831ZM15.3257 13.9689C15.3274 13.9689 15.329 13.9688 15.3307 13.9685C15.3778 13.9606 15.4606 13.9246 15.5521 13.8721C15.6538 13.8139 15.7363 13.7514 15.7845 13.6963C15.8285 13.6461 15.8546 13.5672 15.8621 13.4618C15.8675 13.387 15.8611 13.3247 15.8604 13.3185C15.8522 13.3158 15.8434 13.3145 15.8341 13.3145C15.7988 13.315 15.7612 13.3309 15.7103 13.3659C15.6707 13.3932 15.627 13.4304 15.5805 13.4762C15.5003 13.5554 15.4372 13.6349 15.4365 13.6356L15.4359 13.6364C15.4306 13.6459 15.3852 13.7279 15.3498 13.8076C15.3273 13.8582 15.3144 13.8947 15.3093 13.9225C15.3063 13.9383 15.3055 13.9487 15.3094 13.9581C15.311 13.962 15.3141 13.9657 15.3171 13.9671C15.3199 13.9683 15.3227 13.9689 15.3259 13.9689L15.3257 13.9689Z" fill="#435125"/>
<path d="M16.977 7.9089L16.9299 7.92766L16.9114 7.93502L16.8544 7.93188L16.8009 7.95754L16.7061 8.02232L16.7019 8.02532L16.6666 8.03454L16.6338 8.02038L16.6151 8.02886L16.6087 8.06726L16.591 8.09484L16.5691 8.11018L16.4935 8.11792L16.4297 8.15082L16.3467 8.1286L16.3081 8.1437L16.2261 8.21754L16.1842 8.23738L16.1696 8.23654L16.114 8.23368L16.0906 8.24136L16.0555 8.27522L15.9892 8.28038L15.9686 8.29468L15.9362 8.35988L15.9011 8.39604L15.8811 8.40028L15.8593 8.39232L15.843 8.3952L15.8356 8.43692L15.8197 8.4544L15.7754 8.46968L15.7399 8.49922L15.7088 8.5152L15.6671 8.51416H15.6575L15.616 8.53708L15.5379 8.54392L15.5054 8.5749L15.4983 8.58152L15.4831 8.59068L15.4583 8.60548L15.4522 8.60916L15.4223 8.60382L15.3873 8.61768L15.3732 8.5959L15.3489 8.61044L15.3169 8.61182L15.2769 8.59404L15.2465 8.58048L15.2242 8.5837L15.2165 8.6225L15.2157 8.62662L15.1923 8.65776L15.1486 8.68422L15.1427 8.69196L15.093 8.75612L14.9985 8.85544L14.9187 8.896L14.8359 8.92118L14.7779 8.96878L14.626 9.04412L14.3861 9.16346L14.337 9.17918L14.2666 9.19042L14.1411 9.23666L14.0303 9.27008L14.0241 9.27196L14.0022 9.2786L13.846 9.32586L13.7733 9.31818L13.7302 9.33382L13.6181 9.32138L13.5402 9.32292L13.4909 9.33318L13.3981 9.37766L13.2416 9.4529L13.1899 9.50022L13.1093 9.54224L13.015 9.5721L13.0152 9.53248L13.0147 9.5308L12.982 9.54114L12.9583 9.5486L12.8818 9.5604H12.8393L12.8129 9.55272L12.8088 9.5541L12.6524 9.60562L12.478 9.62246L12.3908 9.65044L12.3256 9.6494L12.2848 9.66154L12.2049 9.6713L12.1764 9.66368L12.1699 9.66192L11.9349 9.67212L11.8275 9.65998L11.7762 9.67164L11.6903 9.64274L11.5649 9.6282L11.5356 9.61942L11.4697 9.59986L11.4399 9.61704L11.4176 9.61942L11.3642 9.60008L11.345 9.59958L11.301 9.6155L11.2756 9.609L11.2521 9.59024L11.1969 9.58202L11.1632 9.55374L10.9752 9.57866L10.9242 9.56366L10.7531 9.51382L10.7259 9.5152L10.692 9.54062L10.641 9.5592L10.5968 9.5707L10.5365 9.5728L10.4666 9.55444L10.3945 9.51948L10.3678 9.51314L10.3083 9.51914L10.2901 9.5208L10.1808 9.46216L10.04 9.37408L9.94441 9.32816L9.90853 9.32234L9.90371 9.3394L9.92151 9.3955L9.92757 9.45098L9.92575 9.50224L9.92477 9.53398L9.93369 9.56248L9.96819 9.60072L9.98257 9.63912L9.99309 9.7448L9.99297 9.85204L9.97619 10.0231L9.97053 10.0491L9.95051 10.1377L9.93223 10.2191L9.86131 10.4357L9.84183 10.4626L9.79401 10.4952L9.68563 10.569L9.60583 10.615L9.58057 10.6255L9.51579 10.6304L9.47543 10.6283L9.42517 10.601L9.37583 10.5883L9.31119 10.5419L9.23929 10.527L9.16047 10.4814L9.13995 10.4568L9.09703 10.4527L9.03751 10.4349L9.03755 10.4348L9.01569 10.4282L9.00059 10.4238V10.4238L8.92467 10.4217L8.85387 10.389L8.81659 10.38L8.76565 10.3775L8.71233 10.4022L8.71231 10.4022L8.68529 10.4147L8.65115 10.4012L8.62645 10.4027L8.59847 10.445L8.59429 10.4516L8.57501 10.4618L8.55101 10.4614L8.53223 10.4609L8.51191 10.4698L8.48455 10.4817V10.4817L8.46039 10.4923L8.44859 10.4974L8.44839 10.4972L8.44113 10.4986L8.42823 10.5009L8.41223 10.5039L8.38403 10.4875L8.36903 10.4786L8.34389 10.4735L8.33035 10.4833L8.32769 10.5293L8.31533 10.5569L8.27611 10.5915L8.23625 10.6266L8.20847 10.6676L8.13495 10.8354L8.08889 10.9031L8.07459 10.9189L8.02643 10.972L7.98371 11.0051L7.88527 11.0814L7.79209 11.1162L7.71183 11.1326L7.67281 11.1328L7.59889 11.123L7.53243 11.1026L7.45943 11.0569L7.37937 10.9926L7.26349 10.8781L7.24709 10.8682L7.24367 10.866L7.20717 10.8426L7.18009 10.8433L7.16949 10.8608L7.16369 10.8861L7.15879 10.9085L7.14551 11.0358L7.14649 11.0432L7.15347 11.0956L7.24149 11.2186L7.26865 11.284L7.27311 11.2914L7.29127 11.3219L7.30509 11.3452L7.30647 11.3475L7.33655 11.4373L7.31541 11.488L7.32609 11.5219L7.29937 11.5427L7.29447 11.572L7.37349 11.671L7.39073 11.7147L7.37147 11.7753L7.34075 11.8087L7.33217 11.8179L7.33649 11.8435L7.37285 11.8762L7.43463 11.9312L7.46757 12.0129L7.49263 12.0348L7.52175 12.0286L7.53795 12.041L7.56251 12.0405L7.58667 12.0647L7.60231 12.0723L7.62703 12.0846L7.64657 12.11L7.65089 12.1883L7.68733 12.2855L7.68789 12.3382L7.68809 12.3456L7.71077 12.3846L7.71789 12.4154L7.70581 12.4967L7.73471 12.5229L7.76605 12.5165L7.78629 12.5197L7.81881 12.5467L7.85819 12.6068L7.89671 12.6011L7.92115 12.6129L8.03919 12.7196L8.06597 12.7331L8.06745 12.7339L8.08671 12.7436L8.11065 12.7678L8.14777 12.7431L8.15189 12.7427L8.19225 12.7391L8.20997 12.7511L8.24405 12.7741L8.28873 12.7735L8.38561 12.8032L8.42799 12.814L8.51321 12.867L8.54943 12.8894L8.57087 12.9068L8.59935 12.93L8.65625 12.9545L8.70505 12.9662L8.73149 12.9725L8.75139 12.9802L8.75189 12.9789L8.75217 12.979L8.75169 12.9803L8.85737 13.0207L8.91461 13.0341L8.96757 13.0536L9.00611 13.0676L9.03439 13.0681L9.07439 13.0345L9.11313 13.0322L9.14531 13.0402L9.17671 13.035L9.22641 13.0044L9.23611 12.99L9.27135 12.9732L9.39023 12.9584L9.42497 12.9697L9.51417 12.9309L9.57393 12.9475L9.62683 12.9288L9.74241 12.9545L9.77313 12.9761L9.80747 13.0154L9.81167 13.0156L9.84991 13.0163L9.83393 13.0429L9.88439 13.0959L9.92997 13.1648L9.93305 13.1739L9.96619 13.2711L9.99083 13.3056L10.0081 13.3537L10.0089 13.3851L9.98211 13.4055L9.97771 13.4172L9.97619 13.4215L9.98163 13.4346L9.99175 13.4291L10.011 13.4184L10.0343 13.4148L10.0756 13.4192L10.1029 13.422L10.146 13.4007L10.1745 13.3865L10.2204 13.4062L10.2708 13.4056L10.292 13.4151L10.3519 13.4422L10.3824 13.4451L10.3937 13.4377L10.4009 13.4206L10.3972 13.4006L10.3743 13.3742L10.3237 13.3154L10.303 13.2852L10.2872 13.2415L10.2823 13.1856L10.2788 13.1479L10.2851 13.0984L10.2987 13.0807L10.3087 13.0413H10.3089L10.3115 13.031L10.3396 12.9937L10.4141 12.9459L10.4941 12.8742L10.5573 12.8325L10.6225 12.8043L10.6243 12.7964L10.6315 12.7993L10.7974 12.7429L10.8001 12.7426L10.8739 12.7297L11.3723 12.7648L11.3908 12.7592L11.3909 12.7591L11.4075 12.7125L11.4164 12.7039L11.4224 12.6982L11.4772 12.6741L11.5028 12.6705L11.5739 12.688L11.603 12.6952L11.6497 12.6691L11.6828 12.6696L11.7511 12.6323L11.7933 12.6334L11.8094 12.6269L11.8916 12.5678L11.9708 12.5451L11.9914 12.5342L11.9987 12.5302L12.0799 12.4873L12.1315 12.4477L12.176 12.424L12.2248 12.4115L12.3524 12.4025L12.378 12.3597L12.4329 12.3524L12.466 12.315L12.504 12.2996L12.5311 12.2604L12.5539 12.2276L12.5857 12.2092L12.6877 12.2028L12.8086 12.2178L12.8246 12.2081L12.8519 12.1106L12.8805 12.0923L12.9576 11.98L12.9578 11.9391L12.9579 11.905L12.9706 11.8563L12.962 11.7685L12.9722 11.6796L13.02 11.5666L13.0622 11.521L13.1302 11.475L13.1648 11.4599L13.2138 11.4517V11.4516L13.221 11.4503L13.2335 11.4482L13.4021 11.4459C13.4045 11.4441 13.4635 11.445 13.4635 11.445L13.5197 11.4443L13.662 11.4696L13.6721 11.4714L13.7202 11.4869L13.7757 11.5301L13.8344 11.5874L13.8454 11.5981L13.8835 11.6142L13.895 11.6192L13.9264 11.6142L13.9711 11.5909L14.0049 11.5623L14.0509 11.5372L14.052 11.5356L14.0779 11.4966L14.0787 11.4958L14.0793 11.496L14.0793 11.4957L14.0789 11.4956L14.0891 11.4801L14.1781 11.4455L14.2827 11.4394L14.2944 11.433L14.301 11.4295L14.3286 11.3971L14.3545 11.3969L14.4172 11.4195L14.4613 11.4108L14.4963 11.4248L14.5235 11.4216L14.5748 11.4155L14.6299 11.4542L14.662 11.4583L14.7751 11.5245L14.781 11.5255L14.784 11.5261L14.7905 11.5271L14.8039 11.5231L14.8239 11.5174L14.8265 11.5166L14.8291 11.5201L14.8419 11.5382L14.8596 11.5407L14.8804 11.5129L14.8721 11.5002L14.869 11.4956L14.8286 11.4874L14.7923 11.4253L14.8268 11.3881L14.7726 11.3216L14.7636 11.3106L14.7606 11.3059L14.7418 11.2774L14.6469 11.1327L14.5233 11.034L14.5232 11.0341L14.4799 10.9995L14.4796 10.9993L14.4645 10.9874L14.3984 10.9202L14.3513 10.8576L14.3451 10.8441L14.3354 10.8229L14.3071 10.7613L14.2579 10.7234L14.2177 10.6796L14.2158 10.677L14.133 10.5645L14.1194 10.5456L14.0998 10.5343L14.0585 10.534L14.0546 10.5301L14.0523 10.5277L14.0537 10.5262L14.0735 10.5065L14.0956 10.501L14.1051 10.4792L14.063 10.3571L14.0627 10.3528L14.0595 10.3138L14.0939 10.1367L14.0983 10.1152L14.1569 9.996L14.1931 9.96628L14.2327 9.88844L14.2667 9.83868L14.2992 9.80704L14.3048 9.80368L14.3635 9.76816L14.4128 9.76122L14.4598 9.7546L14.5418 9.77988L14.6198 9.77836L14.635 9.77674L14.6704 9.77268L14.7286 9.75434L14.7561 9.73738L14.7704 9.71552L14.8001 9.61578L14.8097 9.58404L14.828 9.54956L14.9341 9.4274L15.0143 9.3532L15.1947 9.22094L15.283 9.16816L15.3281 9.14122L15.7306 8.9623L15.8352 8.85626L15.8897 8.80112L15.9861 8.73642L16.099 8.6902L16.196 8.61336L16.2172 8.58668L16.244 8.50062L16.2662 8.49524L16.2863 8.45176L16.292 8.4394L16.3713 8.38356L16.3802 8.3791L16.688 8.2249L16.7327 8.23104L16.7566 8.19518L16.8462 8.18016L16.8627 8.17736L16.8847 8.16634L16.9035 8.13436V8.12804L16.9061 8.04258L16.9252 8.01948L16.9356 7.96316L16.9455 7.95016L16.9557 7.93664L16.9811 7.91882L16.9767 7.9082L16.977 7.9089Z" fill="#D47600"/>
<path d="M20 6L20 18L4 18L4 6L20 6ZM20 5L4 5C3.4 5 3 5.4 3 6L3 18C3 18.6 3.4 19 4 19L20 19C20.6 19 21 18.6 21 18L21 6C21 5.4 20.6 5 20 5Z" fill="#B5B5B5"/>
</svg>
