<svg width="24" height="24" viewBox="0 0 24 24" fill="none" xmlns="http://www.w3.org/2000/svg">
<path d="M20 6H4V18H20V6Z" fill="#007FFF"/>
<path d="M4.72 8.4H6.4L6.92 6.72L7.44 8.4H9.12L7.76 9.44L8.28 11.12L6.92 10.08L5.56 11.12L6.08 9.44L4.72 8.4ZM19 6L4 15V18H5L20 9V6H19Z" fill="#F7D618"/>
<path d="M20 6L4 15.6V18L20 8.4V6Z" fill="#CE1021"/>
<path d="M20 6L20 18L4 18L4 6L20 6ZM20 5L4 5C3.4 5 3 5.4 3 6L3 18C3 18.6 3.4 19 4 19L20 19C20.6 19 21 18.6 21 18L21 6C21 5.4 20.6 5 20 5Z" fill="#B5B5B5"/>
</svg>
