<svg width="24" height="24" viewBox="0 0 24 24" fill="none" xmlns="http://www.w3.org/2000/svg">
<path d="M20 6H4V18H20V6Z" fill="#E32118"/>
<path d="M20 6H4V14H20V6Z" fill="white"/>
<path d="M20 6H4V10H20V6Z" fill="#3E9A00"/>
<path d="M4 6V18L8 12L4 6Z" fill="#0073CE"/>
<path d="M11.2842 10.793H13.2572V12.799C13.2572 13.474 12.3505 12.954 12.2733 13.314C12.1393 12.944 11.2893 13.479 11.2893 12.759C11.2893 12.059 11.2842 10.793 11.2842 10.793Z" fill="white" stroke="black" stroke-width="0.03"/>
<path d="M12.4127 12.9935C12.4127 12.9935 12.3869 13.0185 12.3406 12.9985C12.2942 12.9785 12.2891 11.7135 12.2891 11.7135C12.3921 11.6035 12.4745 11.5685 12.4745 11.5685L12.5363 11.6185C12.3045 11.7335 12.3251 11.8985 12.3457 12.1835C12.3509 12.2885 12.3509 12.4235 12.3766 12.5535C12.4127 12.7185 12.4848 12.8585 12.49 12.9635C12.4951 13.0285 12.4127 12.9935 12.4127 12.9935Z" fill="#73452B" stroke="black" stroke-width="0.03"/>
<path d="M12.253 11.5387H12.3458C12.2685 12.2637 12.3355 12.6937 12.3355 12.9037C12.3355 12.9737 12.3767 12.9987 12.3715 12.9987C12.2788 13.0987 12.2324 12.9937 12.2324 12.9937L12.253 11.5387Z" fill="#73452B" stroke="black" stroke-width="0.03"/>
<path d="M12.1085 12.995C12.0209 13.035 12.0106 12.955 12.0157 12.945C12.2063 12.57 12.2888 11.745 12.1136 11.655L12.1239 11.575C12.1909 11.595 12.2527 11.68 12.2527 11.68C12.2785 12.605 12.2527 12.985 12.2373 13C12.1445 13.095 12.1085 12.985 12.1033 12.975" fill="#A36629"/>
<path d="M12.1085 12.995C12.0209 13.035 12.0106 12.955 12.0157 12.945C12.2063 12.57 12.2888 11.745 12.1136 11.655L12.1239 11.575C12.1909 11.595 12.2527 11.68 12.2527 11.68C12.2785 12.605 12.2527 12.985 12.2373 13C12.1445 13.095 12.1085 12.985 12.1033 12.975" stroke="black" stroke-width="0.03"/>
<path d="M12.1037 12.9783C12.0882 12.8983 12.2376 12.6933 12.2273 12.4783" stroke="black" stroke-width="0.03"/>
<path d="M12.3555 12.6531C12.4018 12.7781 12.4224 12.8881 12.4121 12.9931" stroke="black" stroke-width="0.03"/>
<path d="M12.5562 11.1981C12.5871 11.1631 12.5871 11.1631 12.6438 11.1631C12.6541 11.0881 12.7829 11.0881 12.7932 11.1831C12.8962 11.1631 12.9168 11.2231 12.8756 11.2831C12.9735 11.2581 13.0611 11.2831 13.0353 11.3931C13.2104 11.4381 13.1435 11.5581 13.0662 11.5831C13.0559 11.6581 12.9838 11.6831 12.8859 11.6531C12.7623 11.7381 12.6901 11.7081 12.6335 11.6231C12.4944 11.6431 12.4841 11.6131 12.4223 11.5381C12.3141 11.5831 12.2935 11.5831 12.2007 11.5281C12.1956 11.5981 12.1698 11.5781 12.1235 11.5731C12.1286 11.6631 12.0926 11.7031 12.0101 11.6731C12.072 11.7981 11.9123 11.8531 11.835 11.7481C11.7629 11.7531 11.7577 11.7331 11.7217 11.7081C11.6907 11.8081 11.5774 11.7931 11.5568 11.7381C11.4126 11.7181 11.428 11.6431 11.5465 11.6381C11.5568 11.5581 11.6289 11.5731 11.6753 11.5831C11.6804 11.5331 11.7114 11.5431 11.7371 11.5531C11.7217 11.5181 11.732 11.4981 11.7783 11.4881C11.7114 11.4031 11.7526 11.3731 11.8195 11.3431C11.7835 11.2631 11.8453 11.2681 11.8917 11.2631C11.8865 11.1781 11.9123 11.1631 12.005 11.1531C11.9947 11.1231 12.0101 11.0981 12.0617 11.0981C12.0307 11.0131 12.072 10.9936 12.1647 11.0081C12.1801 10.8846 12.4532 10.9431 12.4326 11.1131C12.5098 11.1231 12.5356 11.1381 12.5562 11.1981Z" fill="#009A3B" stroke="black" stroke-width="0.03"/>
<path d="M12.0059 11.1557C12.0265 11.1657 12.0522 11.1557 12.0574 11.2107C12.0986 11.1407 12.1501 11.1807 12.1501 11.2607" stroke="black" stroke-width="0.03"/>
<path d="M12.4335 11.1152C12.4129 11.1452 12.3356 11.1452 12.3459 11.2252C12.3202 11.1902 12.2687 11.1802 12.248 11.2152" stroke="black" stroke-width="0.03"/>
<path d="M12.557 11.2004C12.557 11.2204 12.5519 11.2804 12.5312 11.3104" stroke="black" stroke-width="0.03"/>
<path d="M12.8767 11.2857C12.8819 11.2907 12.8046 11.2857 12.7686 11.3107" stroke="black" stroke-width="0.03"/>
<path d="M13.0674 11.5858C13.0468 11.5758 13.0055 11.5508 12.9746 11.5908C12.9746 11.5708 12.9746 11.5158 12.918 11.5158" stroke="black" stroke-width="0.03"/>
<path d="M12.8868 11.6554C12.8868 11.6054 12.8765 11.5904 12.8662 11.5754" stroke="black" stroke-width="0.03"/>
<path d="M12.7172 11.5854C12.676 11.5554 12.6348 11.6004 12.6348 11.6254" stroke="black" stroke-width="0.03"/>
<path d="M12.4183 11.5397C12.4183 11.5197 12.4029 11.4797 12.4389 11.4647" stroke="black" stroke-width="0.03"/>
<path d="M11.8306 11.75C11.8409 11.7 11.877 11.7 11.8719 11.675C11.8667 11.635 11.8203 11.6 11.7637 11.655" stroke="black" stroke-width="0.03"/>
<path d="M11.8721 11.6744C11.903 11.6644 11.9339 11.6694 11.9442 11.6844" stroke="black" stroke-width="0.03"/>
<path d="M11.7842 11.4907C11.8048 11.4707 11.8563 11.4757 11.8872 11.4907" stroke="black" stroke-width="0.03"/>
<path d="M11.8877 11.3707C11.9135 11.3707 11.9598 11.3607 11.9753 11.4057C12.0319 11.3207 12.0731 11.3307 12.0835 11.3507" stroke="black" stroke-width="0.03"/>
<path d="M12.1865 11.34C12.2277 11.325 12.2999 11.365 12.3411 11.435C12.3617 11.38 12.3926 11.39 12.4235 11.385" stroke="black" stroke-width="0.03"/>
<path d="M12.6191 11.4345C12.6861 11.4045 12.7273 11.4645 12.7479 11.4895C12.7788 11.4495 12.8046 11.4495 12.8355 11.4495" stroke="black" stroke-width="0.03"/>
<path d="M11.9951 11.5542C12.0106 11.5292 12.0466 11.5242 12.0724 11.5392C12.0672 11.4942 12.0981 11.4742 12.1188 11.4842" stroke="black" stroke-width="0.03"/>
<path d="M12.206 10.513L12.0927 10.518L12.036 10.6165L11.9742 10.5225L11.8609 10.527L11.9124 10.428L11.8506 10.334L11.9691 10.329L12.0206 10.2305L12.0824 10.3245L12.1957 10.32L12.1442 10.419L12.206 10.513Z" fill="#FFD700" stroke="black" stroke-width="0.03"/>
<path d="M11.722 10.5487L11.6087 10.5757L11.5778 10.6822L11.4954 10.6022L11.3872 10.6282L11.4181 10.5217L11.3408 10.4407L11.449 10.4142L11.4799 10.3072L11.5623 10.3872L11.6757 10.3612L11.6396 10.4682L11.722 10.5487Z" fill="#FFD700" stroke="black" stroke-width="0.03"/>
<path d="M11.2531 10.6434L11.1501 10.6929L11.1449 10.8039L11.0471 10.7429L10.944 10.7919L10.9543 10.6809L10.8564 10.6194L10.9595 10.5694L10.9698 10.4584L11.0625 10.5194L11.1655 10.4704L11.1604 10.5814L11.2531 10.6434Z" fill="#FFD700" stroke="black" stroke-width="0.03"/>
<path d="M12.3555 10.513L12.4688 10.518L12.5203 10.6165L12.5821 10.5225L12.6955 10.527L12.644 10.428L12.7058 10.334L12.5924 10.329L12.5358 10.2305L12.474 10.3245L12.3606 10.32L12.4121 10.419L12.3555 10.513Z" fill="#FFD700" stroke="black" stroke-width="0.03"/>
<path d="M12.8398 10.5487L12.948 10.5757L12.9789 10.6822L13.0614 10.6022L13.1695 10.6282L13.1386 10.5217L13.2211 10.4407L13.1077 10.4142L13.0768 10.3072L12.9944 10.3872L12.8862 10.3612L12.9171 10.4682L12.8398 10.5487Z" fill="#FFD700" stroke="black" stroke-width="0.03"/>
<path d="M13.3037 10.6434L13.4067 10.6929L13.4119 10.8039L13.5098 10.7429L13.6128 10.7919L13.6077 10.6809L13.7004 10.6194L13.5973 10.5694L13.5922 10.4584L13.4943 10.5194L13.3913 10.4704L13.4016 10.5814L13.3037 10.6434Z" fill="#FFD700" stroke="black" stroke-width="0.03"/>
<path d="M13.4424 12.7631L13.5712 12.9431L13.6897 12.7731L13.6072 12.6281L13.4424 12.7631Z" fill="white" stroke="black" stroke-width="0.03"/>
<path d="M12.623 13.2886L12.6333 13.4686C12.6333 13.4686 12.6849 13.4686 12.7312 13.4536C12.7724 13.4386 12.8085 13.4086 12.8085 13.4086L12.8033 13.3136L12.623 13.2886Z" fill="white" stroke="black" stroke-width="0.03"/>
<path d="M11.933 13.2886L11.9227 13.4636C11.9227 13.4636 11.8763 13.4636 11.83 13.4536C11.7887 13.4436 11.7527 13.4186 11.7527 13.4186L11.7012 13.2986L11.933 13.2886Z" fill="white" stroke="black" stroke-width="0.03"/>
<path d="M11.1034 12.7625L10.9694 12.9425L10.8252 12.7125L10.9334 12.6025L11.1034 12.7625Z" fill="white" stroke="black" stroke-width="0.03"/>
<path d="M11.7471 13.6478C11.7471 13.8178 12.8083 13.8178 12.8083 13.6478V13.4078C12.8083 13.5328 11.7471 13.5078 11.7471 13.4078V13.6478Z" fill="white" stroke="black" stroke-width="0.03"/>
<path d="M10.7998 13.0943C10.8925 13.5543 11.7477 13.5643 11.7477 13.5643V13.4093C11.7271 13.3493 11.7631 13.3293 11.9022 13.3093C11.9589 13.3043 11.9331 13.2243 11.9331 13.2243C11.9331 13.2243 11.5622 13.2893 11.2995 13.1893C10.944 13.0493 10.8925 12.7793 10.8925 12.7793C10.8925 12.7793 10.8668 12.9893 10.7998 13.0943Z" fill="white" stroke="black" stroke-width="0.03"/>
<path d="M13.7509 13.0943C13.6633 13.5543 12.8081 13.5643 12.8081 13.5643V13.4093C12.8236 13.3493 12.7875 13.3293 12.6484 13.3093C12.5918 13.3043 12.6227 13.2243 12.6227 13.2243C12.6227 13.2243 12.9936 13.2893 13.2563 13.1893C13.6066 13.0493 13.6478 12.7793 13.6478 12.7793C13.6478 12.7793 13.6839 12.9893 13.7509 13.0943Z" fill="white" stroke="black" stroke-width="0.03"/>
<path d="M10.8664 12.9185C10.6295 12.7935 10.8149 12.6635 10.8355 12.2935C10.8716 12.5185 11.1343 12.6135 11.1034 12.7585C10.9952 12.7635 10.9437 12.6035 10.8922 12.7785L10.8664 12.9185Z" fill="white" stroke="black" stroke-width="0.03"/>
<path d="M13.6841 12.9185C13.9211 12.7885 13.7254 12.6635 13.7047 12.2935C13.6687 12.5185 13.4111 12.6135 13.442 12.7585C13.5451 12.7635 13.5966 12.6035 13.6481 12.7785L13.6841 12.9135V12.9185Z" fill="white" stroke="black" stroke-width="0.03"/>
<path d="M11.0111 13.0872L11.0369 13.1072L10.9802 13.1672C10.9575 13.1912 10.9521 13.2071 10.9678 13.2217C10.9874 13.2399 11.0011 13.2336 11.0214 13.2122L11.0833 13.1472L11.1039 13.1672L11.0421 13.2372C11.0086 13.2751 10.9774 13.2664 10.9513 13.2428C10.9286 13.2222 10.9156 13.1923 10.949 13.1555L11.0113 13.0875L11.0111 13.0872Z" fill="black"/>
<path d="M11.1139 13.1724L11.1397 13.1874L11.1345 13.3074L11.1912 13.2224L11.217 13.2374L11.1345 13.3674L11.1036 13.3524L11.1088 13.2324L11.0521 13.3174L11.0264 13.3024L11.1139 13.1724Z" fill="black"/>
<path d="M11.1602 13.3806L11.2323 13.2406L11.258 13.2556L11.1911 13.3906L11.1602 13.3806Z" fill="black"/>
<path d="M11.2737 13.2619L11.2168 13.4068L11.2737 13.4269C11.3267 13.4457 11.3516 13.423 11.3684 13.3795C11.3854 13.3353 11.378 13.3027 11.325 13.282L11.2737 13.2619ZM11.2941 13.297C11.3474 13.315 11.3506 13.3347 11.3361 13.3702C11.322 13.404 11.3089 13.4172 11.2582 13.3918L11.2941 13.297Z" fill="black"/>
<path d="M11.4443 13.3173L11.3516 13.4523L11.3874 13.4625L11.4081 13.4274L11.4699 13.4424L11.4752 13.4775L11.5111 13.4823L11.4752 13.3224L11.4443 13.3173ZM11.4545 13.3524L11.4647 13.4124L11.4236 13.4073L11.4545 13.3524Z" fill="black"/>
<path d="M11.532 13.3301L11.5264 13.485L11.587 13.4862C11.6434 13.4872 11.6594 13.4581 11.6608 13.4116C11.6622 13.3644 11.6442 13.3359 11.5871 13.3331L11.532 13.3301L11.532 13.3301ZM11.5629 13.357C11.6194 13.3572 11.629 13.3747 11.627 13.4129C11.6251 13.4493 11.617 13.4659 11.5607 13.4578L11.5629 13.357L11.5629 13.357Z" fill="black"/>
<path d="M12.0724 13.5474V13.7073H12.1085V13.6473C12.1085 13.6473 12.1394 13.6491 12.1651 13.6425C12.1853 13.6374 12.1994 13.6248 12.1999 13.5938C12.2003 13.5633 12.1821 13.5474 12.1506 13.5474H12.0723H12.0724ZM12.1085 13.5723L12.1449 13.5728C12.1751 13.5728 12.1694 13.6173 12.1458 13.6173H12.1085V13.5723Z" fill="black"/>
<path d="M12.2575 13.5475L12.1904 13.7074H12.2266L12.242 13.6675H12.3091L12.3246 13.7074H12.3604L12.2935 13.5474H12.2574L12.2575 13.5475ZM12.273 13.5826L12.2986 13.6426H12.2522L12.273 13.5826Z" fill="black"/>
<path d="M12.3604 13.6774L12.4479 13.5724H12.3707V13.5474H12.4943V13.5724L12.4016 13.6774H12.4943V13.7074H12.3604V13.6774Z" fill="black"/>
<path d="M12.8816 13.3671L12.9125 13.3621L12.928 13.4521C12.9335 13.4841 12.9184 13.5059 12.8949 13.5143C12.8682 13.5239 12.8341 13.5151 12.8301 13.4721L12.8558 13.4671C12.8618 13.4928 12.8725 13.4951 12.8849 13.491C12.8947 13.4878 12.8998 13.4728 12.897 13.4571L12.8816 13.3671Z" fill="black"/>
<path d="M12.9326 13.3572L12.9631 13.3516L12.9772 13.4265C12.9833 13.4585 12.9936 13.4721 13.0151 13.4685C13.0418 13.464 13.0447 13.4495 13.039 13.421L13.02 13.3411L13.0512 13.3365L13.0719 13.4196C13.0841 13.4682 13.0579 13.4875 13.0228 13.4939C12.9922 13.4994 12.9597 13.4919 12.949 13.4439L12.9326 13.3572Z" fill="black"/>
<path d="M13.0926 13.4257L13.1183 13.4157C13.131 13.4378 13.1507 13.4366 13.166 13.43C13.1873 13.4209 13.1897 13.4028 13.1792 13.3967C13.1642 13.388 13.1284 13.4004 13.1091 13.3936C13.086 13.3854 13.0761 13.3728 13.0772 13.3534C13.0787 13.3301 13.0998 13.3172 13.1228 13.3103C13.1485 13.3026 13.1739 13.3053 13.1904 13.3357L13.1595 13.3457C13.1495 13.3293 13.1365 13.3301 13.125 13.3353C13.1154 13.3397 13.1004 13.348 13.1084 13.3614C13.115 13.3723 13.1529 13.3652 13.1728 13.366C13.1934 13.3668 13.2101 13.3802 13.2129 13.3994C13.2168 13.4263 13.2066 13.4408 13.1746 13.4529C13.1351 13.4678 13.0995 13.4511 13.0926 13.4257H13.0926Z" fill="black"/>
<path d="M13.2312 13.3013L13.19 13.3213L13.1797 13.2963L13.293 13.2513L13.3033 13.2713L13.2621 13.2913L13.3085 13.4013L13.2827 13.4163L13.2312 13.3013Z" fill="black"/>
<path d="M13.2988 13.2471L13.3246 13.2321L13.3967 13.3621L13.3709 13.3771L13.2988 13.2471Z" fill="black"/>
<path d="M13.4739 13.2564L13.5048 13.2464C13.5193 13.276 13.4975 13.3299 13.4441 13.3288C13.366 13.3272 13.3575 13.2437 13.3698 13.2161C13.3905 13.1699 13.4482 13.1708 13.4739 13.1964L13.4481 13.2164C13.4318 13.196 13.3955 13.2088 13.393 13.2275C13.3891 13.2581 13.4029 13.2865 13.431 13.3C13.4549 13.3114 13.4916 13.2827 13.4739 13.2564L13.4739 13.2564Z" fill="black"/>
<path d="M13.458 13.152L13.4838 13.132L13.5765 13.252L13.5507 13.272L13.458 13.152Z" fill="black"/>
<path d="M13.5559 13.0765L13.5303 13.0966L13.5868 13.2466L13.6125 13.2217L13.597 13.1917L13.6434 13.1515L13.6743 13.1665L13.7003 13.1467L13.5559 13.0765ZM13.5661 13.1116L13.6177 13.1365L13.5868 13.1665L13.5661 13.1116Z" fill="black"/>
<path d="M20 6L20 18L4 18L4 6L20 6ZM20 5L4 5C3.4 5 3 5.4 3 6L3 18C3 18.6 3.4 19 4 19L20 19C20.6 19 21 18.6 21 18L21 6C21 5.4 20.6 5 20 5Z" fill="#B5B5B5"/>
</svg>
