<svg width="24" height="24" viewBox="0 0 24 24" fill="none" xmlns="http://www.w3.org/2000/svg">
<path d="M20 6H4V18H20V6Z" fill="#DA121A"/>
<path d="M20 6H4V14H20V6Z" fill="#FCDD09"/>
<path d="M20 6H4V10H20V6Z" fill="#078930"/>
<path d="M12 16C14.2091 16 16 14.2091 16 12C16 9.79086 14.2091 8 12 8C9.79086 8 8 9.79086 8 12C8 14.2091 9.79086 16 12 16Z" fill="#0F47AF"/>
<path d="M11.9996 8.80011L11.8594 9.23159L12.4377 11.0113H11.6667L11.5801 11.2779H14.0522L14.4192 11.0113H12.7181L11.9996 8.80011Z" fill="#FCDD09"/>
<path d="M12.8613 10.8131L13.8802 9.41081L12.8613 10.8131Z" fill="black"/>
<path d="M12.8613 10.8131L13.8802 9.41081" stroke="#FCDD09" stroke-width="0.1"/>
<g clip-path="url(#clip0_14099_117026)">
<path fill-rule="evenodd" clip-rule="evenodd" d="M-0.155273 6.08228H24.2377V17.7853H-0.155273V6.08228Z" fill="#FFC621"/>
<path fill-rule="evenodd" clip-rule="evenodd" d="M-0.202148 14.0488H24.2214V18.032H-0.202148V14.0488Z" fill="#EF2118"/>
<path fill-rule="evenodd" clip-rule="evenodd" d="M-0.155273 6H24.2377V10.23H-0.155273V6Z" fill="#298C08"/>
<path d="M12.0147 14.752C13.4143 14.752 14.5489 13.6174 14.5489 12.2178C14.5489 10.8182 13.4143 9.68359 12.0147 9.68359C10.6151 9.68359 9.48047 10.8182 9.48047 12.2178C9.48047 13.6174 10.6151 14.752 12.0147 14.752Z" fill="#006BC6"/>
<path fill-rule="evenodd" clip-rule="evenodd" d="M10.8778 10.4236L10.7251 10.5293L11.2773 11.3048L11.4254 11.2108L10.8755 10.4236H10.8778ZM11.5687 12.2566L11.3408 12.0968L11.4348 11.7983L10.3044 11.8148L9.97543 11.5633L11.5194 11.5469L11.8061 10.6797L11.9612 11.0322L11.5687 12.2542V12.2566ZM13.3665 10.5951L13.2184 10.4823L12.6474 11.2437L12.779 11.3542L13.3665 10.5951ZM11.8296 11.8054L11.9118 11.5422H12.2244L11.8672 10.4659L12.0082 10.0781L12.4899 11.5445L13.4017 11.5563L13.115 11.8077L11.8296 11.803V11.8054ZM13.9587 13.0086L14.0221 12.8347L13.1221 12.5221L13.0563 12.6866L13.9587 13.0086ZM12.3348 11.9182L12.6098 11.9158L12.7061 12.2119L13.6179 11.5422L14.0315 11.5563L12.7837 12.4657L13.0539 13.3399L12.7249 13.1425L12.3348 11.9182ZM11.8695 14.3152L12.0552 14.3199L12.0622 13.3681L11.8883 13.3564L11.8695 14.3175V14.3152ZM12.3865 12.4281L12.4758 12.689L12.2244 12.877L13.1503 13.5279L13.2678 13.9227L12.0082 13.0297L11.2679 13.5632L11.3502 13.1872L12.3842 12.4281H12.3865ZM9.95898 12.7336L10.013 12.9099L10.9225 12.6232L10.8755 12.454L9.95898 12.7336ZM11.9142 12.6396L11.6933 12.8065L11.4395 12.6255L11.1058 13.7065L10.7674 13.9415L11.2256 12.4681L10.4877 11.9276L10.8708 11.89L11.9142 12.6396Z" fill="#FFC621"/>
</g>
<path d="M20 6L20 18L4 18L4 6L20 6ZM20 5L4 5C3.4 5 3 5.4 3 6L3 18C3 18.6 3.4 19 4 19L20 19C20.6 19 21 18.6 21 18L21 6C21 5.4 20.6 5 20 5Z" fill="none"/>
<defs>
<clipPath id="clip0_14099_117026">
<rect width="16" height="12" fill="white" transform="translate(4 6)"/>
</clipPath>
</defs>
</svg>
