<svg width="24" height="24" viewBox="0 0 24 24" fill="none" xmlns="http://www.w3.org/2000/svg">
<path d="M20 6H4V18H20V6Z" fill="#DA000C"/>
<path d="M20 6H4V14H20V6Z" fill="white"/>
<path d="M13.2148 11.4525H10.2148V13.5146H13.2148V11.4525Z" fill="black"/>
<path d="M11.7734 13.2129H9.94208L9.53613 13.4801V13.7632H11.7734" fill="#DA000C"/>
<path d="M11.7734 13.2129H9.94208L9.53613 13.4801V13.7632H11.7734" stroke="black" stroke-width="0.01" stroke-linecap="square"/>
<path d="M11.0063 12.0293C11.27 12.0293 11.4854 12.2491 11.4854 12.52V13.2129H11.8296V10.5879H9.94141V13.2129H10.5273V12.52C10.5273 12.2597 10.739 12.0293 11.0063 12.0293Z" fill="#DA000C" stroke="black" stroke-width="0.01" stroke-linecap="square"/>
<path d="M11.4562 8.81183H10.5879V10.4037H11.4562V8.81183Z" fill="black"/>
<path d="M11.4536 10.1569H10.6938V9.88739H10.1367V10.1569H9.75879V9.88739H9.5332V10.3766H11.4536M9.75879 10.3749H11.398V10.5876H9.75879V10.3749Z" fill="#DA000C"/>
<path d="M11.4536 10.1569H10.6938V9.88739H10.1367V10.1569H9.75879V9.88739H9.5332V10.3766H11.4536M9.75879 10.3749H11.398V10.5876H9.75879V10.3749Z" stroke="black" stroke-width="0.01" stroke-linecap="square"/>
<path d="M10.4092 8.2337V9.88751H10.6938V9.43341C10.6938 9.26329 10.8139 9.12407 10.9819 9.11554C10.9874 9.11526 10.9926 9.11554 10.998 9.11554C11.1737 9.11554 11.3159 9.2578 11.3159 9.43341V9.88751H11.5869V8.2337H10.4092Z" fill="#DA000C" stroke="black" stroke-width="0.01" stroke-linecap="square"/>
<path d="M10.3066 8.00977V8.23389H11.6777V8.00977H10.3066Z" fill="#DA000C" stroke="black" stroke-width="0.01" stroke-linecap="square"/>
<path d="M10.1309 7.58008V8.00928H11.7759V7.58008H11.5225V7.79834H11.2163V7.58008H10.749V7.79834H10.4429V7.58008H10.1309Z" fill="#DA000C" stroke="black" stroke-width="0.01" stroke-linecap="square"/>
<path d="M9.53613 13.4811H11.7819H9.53613Z" fill="#DA000C"/>
<path d="M9.53613 13.4811H11.7819" stroke="black" stroke-width="0.01" stroke-linecap="square"/>
<path d="M13.2349 13.3509H11.7144L11.2559 13.5721V13.9017H13.2349" fill="#DA000C"/>
<path d="M13.2349 13.3509H11.7144L11.2559 13.5721V13.9017H13.2349" stroke="black" stroke-width="0.01" stroke-linecap="square"/>
<path d="M11.2559 13.5723H13.2822H11.2559Z" fill="#DA000C"/>
<path d="M11.2559 13.5723H13.2822" stroke="black" stroke-width="0.01"/>
<path d="M12.7188 11.4531H15.7188V13.5152H12.7188V11.4531Z" fill="black"/>
<path d="M14.1602 13.2129H15.9915L16.3975 13.4801V13.7632H14.1602" fill="#DA000C"/>
<path d="M14.1602 13.2129H15.9915L16.3975 13.4801V13.7632H14.1602" stroke="black" stroke-width="0.01" stroke-linecap="square"/>
<path d="M14.9272 12.0293C14.6636 12.0293 14.4482 12.2491 14.4482 12.52V13.2129H14.104V10.5879H15.9922V13.2129H15.4062V12.52C15.4063 12.2597 15.1946 12.0293 14.9272 12.0293Z" fill="#DA000C" stroke="black" stroke-width="0.01" stroke-linecap="square"/>
<path d="M14.4774 8.81244H15.3457V10.4043H14.4774V8.81244Z" fill="black"/>
<path d="M14.48 10.1562H15.2398V9.88666H15.7969V10.1562H16.1748V9.88666H16.4004V10.3759H14.48M16.1748 10.3741H14.5356V10.5869H16.1748V10.3741Z" fill="#DA000C"/>
<path d="M14.48 10.1562H15.2398V9.88666H15.7969V10.1562H16.1748V9.88666H16.4004V10.3759H14.48M16.1748 10.3741H14.5356V10.5869H16.1748V10.3741Z" stroke="black" stroke-width="0.01" stroke-linecap="square"/>
<path d="M15.5244 8.23431V9.88812H15.2398V9.43402C15.2398 9.2639 15.1197 9.12468 14.9517 9.11615C14.9462 9.11587 14.941 9.11615 14.9355 9.11615C14.7599 9.11615 14.6177 9.25841 14.6177 9.43402V10.1537H14.3467V8.23431H15.5244Z" fill="#DA000C" stroke="black" stroke-width="0.01" stroke-linecap="square"/>
<path d="M15.627 8.00977V8.23389H14.2559V8.00977H15.627Z" fill="#DA000C" stroke="black" stroke-width="0.01" stroke-linecap="square"/>
<path d="M15.8027 7.58008V8.00928H14.1577V7.58008H14.4111V7.79834H14.7173V7.58008H15.1846V7.79834H15.4907V7.58008H15.8027Z" fill="#DA000C" stroke="black" stroke-width="0.01" stroke-linecap="square"/>
<path d="M16.3975 13.4804H14.1517H16.3975Z" fill="#DA000C"/>
<path d="M16.3975 13.4804H14.1517" stroke="black" stroke-width="0.01" stroke-linecap="square"/>
<path d="M12.6987 13.3515H14.2192L14.6777 13.5727V13.9023H12.6987" fill="#DA000C"/>
<path d="M12.6987 13.3515H14.2192L14.6777 13.5727V13.9023H12.6987" stroke="black" stroke-width="0.01" stroke-linecap="square"/>
<path d="M14.6777 13.5723H12.6514H14.6777Z" fill="#DA000C"/>
<path d="M14.6777 13.5723H12.6514" stroke="black" stroke-width="0.01"/>
<path d="M13.8114 13.0345C13.687 13.0759 13.5745 13.1455 13.4613 13.2104C13.3159 13.2963 13.175 13.3898 13.0439 13.4963C12.9977 13.5267 12.9534 13.5601 12.9178 13.6028C12.8697 13.644 12.821 13.6992 12.8302 13.7675C12.8327 13.7977 12.8712 13.7321 12.8965 13.7289C12.9407 13.7036 12.9942 13.6954 13.0438 13.7068C13.1034 13.6441 13.1802 13.6021 13.2465 13.5472C13.3874 13.4421 13.5389 13.3518 13.693 13.2678C13.7468 13.2402 13.8009 13.2122 13.8583 13.1927C13.8426 13.14 13.827 13.0872 13.8114 13.0345Z" fill="#F8D80E" stroke="black" stroke-width="0.01" stroke-linecap="round"/>
<path d="M13.2061 13.3782V13.5616V13.3782Z" fill="#F8D80E"/>
<path d="M13.2061 13.3782V13.5616" stroke="black" stroke-width="0.01" stroke-linecap="round"/>
<path d="M13.3193 13.3001V13.4821V13.3001Z" fill="#F8D80E"/>
<path d="M13.3193 13.3001V13.4821" stroke="black" stroke-width="0.01" stroke-linecap="round"/>
<path d="M13.4326 13.2298V13.4106V13.2298Z" fill="#F8D80E"/>
<path d="M13.4326 13.2298V13.4106" stroke="black" stroke-width="0.01" stroke-linecap="round"/>
<path d="M13.5459 13.1595V13.3461V13.1595Z" fill="#F8D80E"/>
<path d="M13.5459 13.1595V13.3461" stroke="black" stroke-width="0.01" stroke-linecap="round"/>
<path d="M12.1982 13.0397C12.1797 13.0914 12.1611 13.1432 12.1426 13.1949C12.4021 13.2934 12.6492 13.4236 12.8831 13.5728C12.9623 13.6267 13.0456 13.679 13.1079 13.7531C13.1216 13.7911 13.0838 13.8228 13.0463 13.8114C13.012 13.7997 12.9782 13.7864 12.942 13.8112C12.8901 13.8348 12.8432 13.9116 12.922 13.9373C13.0305 14.0102 13.2071 13.9785 13.2592 13.8508C13.2865 13.7851 13.2882 13.7011 13.2354 13.6472C13.1388 13.5364 13.0106 13.4593 12.8876 13.3813C12.6678 13.2491 12.4388 13.1294 12.1982 13.0397L12.1982 13.0397Z" fill="#F8D80E" stroke="black" stroke-width="0.01" stroke-linecap="round"/>
<path d="M12.9092 13.4095L12.8945 13.566L12.9092 13.4095Z" fill="#F8D80E"/>
<path d="M12.9092 13.4095L12.8945 13.566" stroke="black" stroke-width="0.01" stroke-linecap="round"/>
<path d="M13.0394 13.4902L12.999 13.6435L13.0394 13.4902Z" fill="#F8D80E"/>
<path d="M13.0394 13.4902L12.999 13.6435" stroke="black" stroke-width="0.01" stroke-linecap="round"/>
<path d="M13.1785 13.597L13.0938 13.7159L13.1785 13.597Z" fill="#F8D80E"/>
<path d="M13.1785 13.597L13.0938 13.7159" stroke="black" stroke-width="0.01" stroke-linecap="round"/>
<path d="M13.221 13.884L13.0986 13.8184L13.221 13.884Z" fill="#F8D80E"/>
<path d="M13.221 13.884L13.0986 13.8184" stroke="black" stroke-width="0.01" stroke-linecap="round"/>
<path d="M13.2596 13.7559L13.1191 13.769L13.2596 13.7559Z" fill="#F8D80E"/>
<path d="M13.2596 13.7559L13.1191 13.769" stroke="black" stroke-width="0.01" stroke-linecap="round"/>
<path d="M13.078 13.9599L13.0684 13.8365L13.078 13.9599Z" fill="#F8D80E"/>
<path d="M13.078 13.9599L13.0684 13.8365" stroke="black" stroke-width="0.01" stroke-linecap="round"/>
<path d="M13.0271 13.8184L12.9111 13.9038L13.0271 13.8184Z" fill="#F8D80E"/>
<path d="M13.0271 13.8184L12.9111 13.9038" stroke="black" stroke-width="0.01" stroke-linecap="round"/>
<path d="M12.4697 13.1699V13.3159V13.1699Z" fill="#F8D80E"/>
<path d="M12.4697 13.1699V13.3159" stroke="black" stroke-width="0.01" stroke-linecap="round"/>
<path d="M12.7637 13.3262V13.4918V13.3262Z" fill="#F8D80E"/>
<path d="M12.7637 13.3262V13.4918" stroke="black" stroke-width="0.01" stroke-linecap="round"/>
<path d="M12.6172 13.248V13.4036V13.248Z" fill="#F8D80E"/>
<path d="M12.6172 13.248V13.4036" stroke="black" stroke-width="0.01" stroke-linecap="round"/>
<path d="M12.0527 16.6693V17.0457H12.2886V16.8568H12.6094V17.0457H12.8628V16.6693H12.0527ZM12.0527 17.1878V17.5657H12.8628V17.1878H12.6094V17.3768H12.2886V17.1878H12.0527Z" fill="#F8D80E" stroke="black" stroke-width="0.01"/>
<path d="M13.0962 15.0781H12.8623V17.8023H13.0962V15.0781Z" fill="#F8D80E" stroke="black" stroke-width="0.01"/>
<path d="M13.0962 15.3151H12.8623V17.6616H13.0962V15.3151Z" fill="#F8D80E" stroke="black" stroke-width="0.01"/>
<path d="M12.9795 14.4116L13.4775 14.7017L12.9795 14.9902L12.4814 14.7017L12.9795 14.4116ZM12.313 14.5977H12.1826V14.8057H12.313L12.9795 15.1924L13.646 14.8057H13.7764V14.5977H13.646L12.9795 14.2109L12.313 14.5977Z" fill="#F8D80E" stroke="black" stroke-width="0.01"/>
<path d="M12.9696 13.7009C12.8562 13.7168 12.7715 13.8289 12.7777 13.9416C12.7781 14.1168 12.7768 14.292 12.7783 14.4672C12.7843 14.5801 12.883 14.6813 12.9974 14.6823C13.0905 14.6911 13.1839 14.6367 13.223 14.552C13.1961 14.5359 13.1693 14.5198 13.1424 14.5037C13.1216 14.5592 13.0616 14.5936 13.0033 14.5872C12.9266 14.5893 12.8645 14.5148 12.8714 14.4402C12.8719 14.2662 12.8705 14.0921 12.8721 13.918C12.8763 13.847 12.944 13.7889 13.015 13.7961C13.0443 13.7877 13.0847 13.8279 13.1028 13.7932C13.1302 13.7543 13.0834 13.724 13.0574 13.7024C13.0287 13.6985 12.9986 13.702 12.9696 13.7009L12.9696 13.7009ZM13.2406 13.884C13.222 13.919 13.1835 13.9398 13.1527 13.9581V14.3103C13.1839 14.3284 13.2152 14.3464 13.2464 14.3645C13.246 14.2143 13.2471 14.0641 13.2459 13.914C13.2444 13.9047 13.2455 13.8906 13.2406 13.884H13.2406Z" fill="#F8D80E" stroke="black" stroke-width="0.01"/>
<path d="M13.6629 7.79816H12.2881V10.2945H13.6629V7.79816Z" fill="black"/>
<path d="M12.1914 7.79816V9.88702H12.6279V9.2674C12.6279 9.12448 12.7195 8.92609 13 8.92609C13.2805 8.92609 13.3721 9.12448 13.3721 9.2674V9.88702H13.8086V7.79816H12.1914ZM12.9326 8.03253H13.0674V8.74738H12.9326V8.03253ZM12.5459 8.17316H12.6821V8.69611H12.5459V8.17316ZM13.3179 8.17316H13.4541V8.69611H13.3179V8.17316Z" fill="#DA000C" stroke="black" stroke-width="0.01"/>
<path d="M12.0439 7.49872V7.79608H13.957V7.49872H12.0439Z" fill="#DA000C" stroke="black" stroke-width="0.01"/>
<path d="M11.8633 7.15234V7.49805H14.1367V7.15234H13.8511V7.34277H13.5288V7.15234H13.1611V7.34277H12.8389V7.15234H12.4712V7.34277H12.1489V7.15234H11.8633Z" fill="#DA000C" stroke="black" stroke-width="0.01"/>
<path d="M11.4414 10.5872V10.8026H14.5586V10.5872H11.4414Z" fill="#DA000C" stroke="black" stroke-width="0.01"/>
<path d="M11.3145 9.88672V10.5869H14.6865V9.88672H14.3672V10.1562H13.9424V9.88672H13.3726V10.1562H12.6284V9.88672H12.0586V10.1562H11.6338V9.88672H11.3145Z" fill="#DA000C" stroke="black" stroke-width="0.01"/>
<path d="M11.7207 10.8008V13.3481H12.3228V12.3945C12.3228 11.9453 12.6226 11.7339 13.001 11.7339C13.3647 11.7339 13.6792 11.9453 13.6792 12.3945V13.3481H14.2812V10.8008H11.7207Z" fill="#DA000C" stroke="black" stroke-width="0.01" stroke-linejoin="round"/>
<path d="M20 6L20 18L4 18L4 6L20 6ZM20 5L4 5C3.4 5 3 5.4 3 6L3 18C3 18.6 3.4 19 4 19L20 19C20.6 19 21 18.6 21 18L21 6C21 5.4 20.6 5 20 5Z" fill="#B5B5B5"/>
</svg>
