<svg width="24" height="24" viewBox="0 0 24 24" fill="none" xmlns="http://www.w3.org/2000/svg">
<path d="M20 6H4V18H20V6Z" fill="white"/>
<path d="M4 12H20V18H4V12ZM7 12C7 13.0609 7.42143 14.0783 8.17157 14.8284C8.92172 15.5786 9.93913 16 11 16C12.0609 16 13.0783 15.5786 13.8284 14.8284C14.5786 14.0783 15 13.0609 15 12C15 10.9391 14.5786 9.92172 13.8284 9.17157C13.0783 8.42143 12.0609 8 11 8C9.93913 8 8.92172 8.42143 8.17157 9.17157C7.42143 9.92172 7 10.9391 7 12Z" fill="#D00C33"/>
<path d="M20 6L20 18L4 18L4 6L20 6ZM20 5L4 5C3.4 5 3 5.4 3 6L3 18C3 18.6 3.4 19 4 19L20 19C20.6 19 21 18.6 21 18L21 6C21 5.4 20.6 5 20 5Z" fill="#B5B5B5"/>
</svg>
