<svg width="24" height="24" viewBox="0 0 24 24" fill="none" xmlns="http://www.w3.org/2000/svg">
<path d="M20 6H4V18H20V6Z" fill="#CE1126"/>
<path d="M19.4 8.04102H4.5V15.5061H19.4V8.04102Z" fill="#007A5E"/>
<path d="M4.5 8.04102H19.4L4.5 15.5061H19.4L4.5 8.04102Z" fill="#FCD116"/>
<path d="M11.9496 13.0177C12.6617 13.0177 13.239 12.4606 13.239 11.7735C13.239 11.0863 12.6617 10.5293 11.9496 10.5293C11.2375 10.5293 10.6602 11.0863 10.6602 11.7735C10.6602 12.4606 11.2375 13.0177 11.9496 13.0177Z" fill="#CE1126"/>
<path d="M5.42188 11.7894C5.5832 12.0793 5.89699 12.3949 6.17103 12.5058C6.17544 12.2113 6.06716 11.8339 5.91909 11.5333L5.42188 11.7894Z" fill="#CE1126"/>
<path d="M5.14912 10.793C5.38297 11.2633 4.54262 12.3855 5.94268 12.6485C5.76997 12.4211 5.65862 12.0458 5.70074 11.7444C5.99448 11.8523 6.30354 12.1678 6.42844 12.409C6.79485 11.1251 5.48859 11.2032 5.14912 10.793Z" fill="#FCD116"/>
<path d="M20 6L20 18L4 18L4 6L20 6ZM20 5L4 5C3.4 5 3 5.4 3 6L3 18C3 18.6 3.4 19 4 19L20 19C20.6 19 21 18.6 21 18L21 6C21 5.4 20.6 5 20 5Z" fill="none"/>
<g clip-path="url(#clip0_14099_117555)">
<path d="M4 6H20.0036V18H4V6Z" fill="#FF0000"/>
<path d="M7.65137 8.08679H16.6764V15.9468H7.65137V8.08679Z" fill="#009A00"/>
<path d="M7.65039 15.9468L12.1635 12.0168L16.6766 15.9468H7.65159H7.65039ZM16.6754 8.08801L12.1623 12.018L7.65039 8.08801H16.6754Z" fill="#FFCA00"/>
<path d="M8.44386 7.53358L8.03335 7.24078L7.62165 7.53358L7.77289 7.05238L7.36719 6.75118L7.87251 6.74638L8.03335 6.26758L8.19419 6.74638L8.69952 6.75238L8.29262 7.05238M12.5669 7.54678L12.1564 7.25278L11.7447 7.54558L11.8959 7.06438L11.4914 6.76318L11.9955 6.75838L12.1576 6.27958L12.3172 6.75838L12.8226 6.76438L12.4156 7.06438M16.6935 7.53958L16.2818 7.24678L15.8701 7.53958L16.0225 7.05718L15.6168 6.75598L16.1222 6.75238L16.283 6.27358L16.4427 6.75238L16.948 6.75718L16.5423 7.05838M8.44386 17.7204L8.03335 17.4264L7.62165 17.7192L7.77289 17.238L7.36719 16.9368L7.87251 16.932L8.03335 16.4532L8.19419 16.932L8.69952 16.938L8.29262 17.238M12.5669 17.7324L12.1564 17.4384L11.7447 17.7312L11.8959 17.25L11.4914 16.9488L11.9955 16.944L12.1576 16.4652L12.3172 16.944L12.8226 16.95L12.4156 17.25M16.6935 17.7252L16.2818 17.4324L15.8701 17.7252L16.0225 17.2428L15.6168 16.9416L16.1222 16.938L16.283 16.4592L16.4427 16.938L16.948 16.9428L16.5423 17.244" fill="#FFCE00"/>
<path d="M13.246 12.078C13.246 12.6816 12.7551 13.1712 12.1513 13.1712C11.5464 13.1712 11.0566 12.6816 11.0566 12.078C11.0566 11.4732 11.5464 10.9836 12.1513 10.9836C12.7551 10.9836 13.246 11.4732 13.246 12.078Z" fill="#FF0000"/>
<path d="M12.6455 12.7512L12.157 12.4032L11.6685 12.75L11.8485 12.1776L11.3672 11.82L11.9673 11.8152L12.1582 11.2464L12.349 11.8152L12.948 11.8224L12.4667 12.1788" fill="#FFCE00"/>
<path d="M7.44141 12.3924L7.44981 11.6712C7.44981 11.6712 8.24201 11.7588 8.27441 12.0672C8.30562 12.3768 8.25041 12.8364 8.25041 12.8364C8.07636 12.9084 7.44141 12.3924 7.44141 12.3924Z" fill="#FF0000"/>
<path d="M8.21867 11.4732C8.86323 11.6568 8.54395 12.8364 8.54395 12.8364C8.54395 12.8364 8.13945 12.0036 7.71095 11.9484C7.63173 12.5592 7.94861 12.8916 8.06743 13.098C7.48049 12.9636 7.00277 12.6648 7.06038 12.2256C7.16841 11.418 7.09159 11.0136 7.09159 11.0136C7.09159 11.0208 7.59092 11.2968 8.21867 11.4732Z" fill="#FFCE00"/>
</g>
<defs>
<clipPath id="clip0_14099_117555">
<rect width="16" height="12" fill="white" transform="translate(4 6)"/>
</clipPath>
</defs>
</svg>
