<svg width="24" height="24" viewBox="0 0 24 24" fill="none" xmlns="http://www.w3.org/2000/svg">
<path d="M4 6H20V18H4V6Z" fill="#4997D0"/>
<path d="M9 6H15V18H9V6Z" fill="white"/>
<path d="M11.548 13.5496C11.6008 13.5416 11.6311 13.5268 11.6675 13.5138M11.7113 13.4328C11.7374 13.459 11.7576 13.4907 11.7706 13.5256M11.6099 13.424C11.6352 13.4479 11.6562 13.4759 11.6721 13.507M10.6908 10.7754C10.6702 10.8074 10.6295 10.83 10.5962 10.844M10.5895 10.84C10.5903 10.8126 10.5847 10.7794 10.5905 10.752M10.5513 10.8526C10.5535 10.86 10.56 10.8806 10.5647 10.8932M10.6047 10.9116C10.5972 10.9132 10.5746 10.9168 10.5645 10.9184M10.4864 10.9008C10.4862 10.9512 10.4921 11.0118 10.4968 11.0572M10.4614 11.038C10.4707 11.0532 10.4802 11.068 10.4919 11.0756M10.4013 11.205C10.411 11.2238 10.4199 11.2474 10.427 11.2842M10.5006 11.1916C10.4925 11.1956 10.4767 11.2102 10.4624 11.2224M10.4939 11.3104C10.4745 11.3278 10.4503 11.3404 10.426 11.3528M10.3506 12.161C10.3705 12.197 10.3971 12.2288 10.429 12.2546M10.4404 12.2884C10.4199 12.2858 10.4001 12.2792 10.3821 12.269M10.4691 12.4372L10.5026 12.4566M10.4939 12.526C10.5186 12.5424 10.5436 12.5716 10.5685 12.6032M10.5398 12.6602C10.5673 12.6662 10.5893 12.673 10.6037 12.6814M10.5827 12.7298L10.6247 12.7312M10.6486 12.6236C10.6467 12.6542 10.6437 12.683 10.6391 12.7086M10.6591 12.7404L10.6676 12.7076M10.7605 12.8274L10.7575 12.8922M11.5335 13.4502L11.5106 13.4822M11.4629 13.4038L11.4494 13.3672" stroke="#24420E" stroke-width="0.03"/>
<path d="M12.2201 13.698C12.2042 13.6728 12.1785 13.6574 12.1552 13.6448C12.0024 13.5638 11.8504 13.528 11.678 13.5C11.638 13.4932 11.5982 13.4556 11.5574 13.4362C11.4593 13.389 11.3498 13.3706 11.2544 13.3222C11.239 13.3143 11.2249 13.3039 11.2129 13.2914C11.1747 13.247 11.106 13.2334 11.0634 13.192C10.8986 13.0346 10.7234 12.8896 10.6326 12.681C10.5223 12.427 10.3852 12.1652 10.4036 11.8764C10.4157 11.694 10.3887 11.5094 10.4333 11.3356C10.4992 11.0776 10.5835 10.8228 10.7381 10.6094L10.7123 10.6258C10.5566 10.8392 10.4723 11.0942 10.4064 11.352C10.362 11.526 10.3887 11.7104 10.3767 11.8928C10.3583 12.1816 10.4954 12.4434 10.6057 12.6984C10.6965 12.906 10.8727 13.0508 11.0367 13.2094C11.0793 13.2498 11.148 13.2634 11.1858 13.3088C11.197 13.3214 11.222 13.3368 11.2275 13.3396C11.3231 13.388 11.4324 13.4064 11.5305 13.4526C11.5713 13.473 11.6113 13.5096 11.6513 13.5166C11.8234 13.5446 11.9754 13.5812 12.1282 13.6612C12.1542 13.6727 12.1766 13.6911 12.1932 13.7144L12.2201 13.698Z" fill="#406325"/>
<path d="M12.2201 13.698C12.2042 13.6728 12.1785 13.6574 12.1552 13.6448C12.0024 13.5638 11.8504 13.528 11.678 13.5C11.638 13.4932 11.5982 13.4556 11.5574 13.4362C11.4593 13.389 11.3498 13.3706 11.2544 13.3222C11.239 13.3143 11.2249 13.3039 11.2129 13.2914C11.1747 13.247 11.106 13.2334 11.0634 13.192C10.8986 13.0346 10.7234 12.8896 10.6326 12.681C10.5223 12.427 10.3852 12.1652 10.4036 11.8764C10.4157 11.694 10.3887 11.5094 10.4333 11.3356C10.4992 11.0776 10.5835 10.8228 10.7381 10.6094L10.7123 10.6258C10.5566 10.8392 10.4723 11.0942 10.4064 11.352C10.362 11.526 10.3887 11.7104 10.3767 11.8928C10.3583 12.1816 10.4954 12.4434 10.6057 12.6984C10.6965 12.906 10.8727 13.0508 11.0367 13.2094C11.0793 13.2498 11.148 13.2634 11.1858 13.3088C11.197 13.3214 11.222 13.3368 11.2275 13.3396C11.3231 13.388 11.4324 13.4064 11.5305 13.4526C11.5713 13.473 11.6113 13.5096 11.6513 13.5166C11.8234 13.5446 11.9754 13.5812 12.1282 13.6612C12.1542 13.6727 12.1766 13.6911 12.1932 13.7144L12.2201 13.698" stroke="#24420E" stroke-width="0.03"/>
<path d="M10.6414 12.6308C10.586 12.5048 10.6145 12.1988 10.6375 12.1602C10.7687 12.4202 10.7251 12.635 10.6414 12.6308ZM11.5491 13.5386C11.4086 13.5458 11.1412 13.7246 11.1164 13.7666C11.4149 13.7688 11.5918 13.6202 11.5491 13.5386ZM11.6967 13.4528C11.5611 13.3438 11.4159 12.9796 11.419 12.9228C11.7179 13.1394 11.7937 13.4084 11.6967 13.4528Z" fill="#67923D" stroke="#24420E" stroke-width="0.03"/>
<path d="M11.5964 13.4547C11.4588 13.3699 11.2839 13.0525 11.2809 12.9997C11.5817 13.1635 11.6807 13.4021 11.5964 13.4547ZM11.2884 13.3191C11.3078 13.1627 11.1762 12.8343 11.1382 12.7995C11.0798 13.1289 11.1976 13.3509 11.2884 13.3191ZM10.7479 12.8335C10.7024 12.7205 10.7358 12.4471 10.7572 12.4135C10.8665 12.6475 10.8217 12.8379 10.7479 12.8335ZM10.4766 11.2969C10.5476 11.1639 10.8403 10.9827 10.892 10.9783C10.758 11.2697 10.5349 11.3749 10.4766 11.2969Z" fill="#67923D" stroke="#24420E" stroke-width="0.03"/>
<path d="M10.4908 11.1858C10.5333 11.0402 10.7851 10.8004 10.8343 10.7852C10.7605 11.0986 10.5636 11.2486 10.4908 11.1858ZM11.0412 13.1688C10.9422 13.0452 10.8826 12.6916 10.8969 12.6416C11.1199 12.8918 11.135 13.1462 11.0412 13.1688ZM10.4741 12.4396C10.3376 12.4614 10.0514 12.3468 10.0205 12.3128C10.3081 12.2498 10.5012 12.3542 10.4741 12.4396ZM10.4302 12.246C10.4464 12.1344 10.6018 11.93 10.6352 11.9128C10.6135 12.152 10.4878 12.2848 10.4302 12.246ZM11.4461 13.4168C11.2783 13.4254 10.9586 13.6388 10.9289 13.6892C11.2858 13.692 11.497 13.5144 11.4461 13.4168Z" fill="#67923D" stroke="#24420E" stroke-width="0.03"/>
<path d="M10.6431 12.6301C10.7268 12.6343 10.7697 12.4221 10.6377 12.1625C10.6617 12.4089 10.6615 12.6087 10.6431 12.6301ZM10.8643 13.0299C10.7759 12.9205 10.4808 12.8033 10.4347 12.8071C10.6104 13.0487 10.8281 13.1091 10.8643 13.0299ZM10.381 11.9703C10.3583 11.8095 10.137 11.5161 10.0893 11.4909C10.1192 11.8345 10.2981 12.0249 10.381 11.9703ZM10.5471 12.6561C10.4481 12.5825 10.1716 12.5493 10.1326 12.5617C10.3333 12.7277 10.5326 12.7309 10.5471 12.6561ZM10.3618 12.1595C10.3046 12.0457 10.0687 11.8899 10.0273 11.8855C10.1368 12.1333 10.3157 12.2243 10.3618 12.1595ZM10.4159 11.2087C10.4337 11.0573 10.3064 10.7397 10.2706 10.7055C10.2138 11.0241 10.3282 11.2389 10.4159 11.2087ZM10.5043 10.9103C10.557 10.7803 10.5194 10.4617 10.494 10.4219C10.3674 10.6921 10.4182 10.9149 10.5043 10.9103Z" fill="#406325" stroke="#24420E" stroke-width="0.03"/>
<path d="M10.6039 10.7566C10.666 10.6612 10.6862 10.403 10.6728 10.3672C10.5297 10.5614 10.5352 10.746 10.6039 10.7566ZM10.7216 10.6338C10.8087 10.5642 10.9041 10.3238 10.9013 10.2852C10.7086 10.4242 10.6595 10.602 10.7216 10.6338ZM10.404 11.4978C10.406 11.5152 10.3846 11.3342 10.2051 11.1316C10.213 11.4278 10.3288 11.54 10.404 11.4978ZM11.0484 13.2134C10.9261 13.1222 10.5855 13.0788 10.5384 13.0948C10.787 13.302 11.0308 13.3058 11.0484 13.2134ZM11.2873 13.3182C11.1974 13.3502 11.0807 13.1298 11.1381 12.8006C11.1937 13.0796 11.2604 13.3018 11.2873 13.3182ZM11.5505 13.5412C11.5925 13.6228 11.4179 13.77 11.1193 13.7674C11.356 13.6696 11.5396 13.5702 11.5505 13.5412ZM11.6968 13.4518C11.793 13.4068 11.7185 13.141 11.4197 12.9244C11.5897 13.1886 11.7057 13.4166 11.6968 13.4518Z" fill="#406325" stroke="#24420E" stroke-width="0.03"/>
<path d="M11.5958 13.4533C11.6805 13.3999 11.5821 13.1645 11.2811 13.0005C11.4673 13.2241 11.5997 13.4199 11.5958 13.4533ZM10.7489 12.8335C10.8227 12.8379 10.8669 12.6483 10.7584 12.4151C10.7726 12.6345 10.7667 12.8145 10.7489 12.8335ZM10.4766 11.2987C10.5349 11.3767 10.7546 11.2727 10.889 10.9803C10.6877 11.1671 10.5084 11.3015 10.4766 11.2987Z" fill="#406325" stroke="#24420E" stroke-width="0.03"/>
<path d="M10.4935 11.1865C10.5664 11.2493 10.7615 11.1005 10.8353 10.7869C10.675 11.0119 10.5258 11.1817 10.4935 11.1865ZM11.0422 13.1683C11.136 13.1459 11.1203 12.8927 10.8987 12.6429C10.9976 12.9111 11.0572 13.1379 11.0422 13.1683ZM10.4708 12.4391C10.4985 12.3543 10.3065 12.2517 10.0195 12.3139C10.2622 12.3579 10.4557 12.4147 10.4708 12.4391ZM10.4324 12.2469C10.4898 12.2847 10.6141 12.1537 10.636 11.9145C10.5434 12.0981 10.4546 12.2399 10.4324 12.2469ZM11.4457 13.4205C11.4968 13.5181 11.2882 13.6939 10.9303 13.6909C11.2132 13.5741 11.4327 13.4553 11.4457 13.4205Z" fill="#406325" stroke="#24420E" stroke-width="0.03"/>
<path d="M10.5031 12.526C10.4504 12.4008 10.2101 12.2168 10.167 12.2092C10.2648 12.482 10.449 12.5922 10.5031 12.526Z" fill="#406325" stroke="#24420E" stroke-width="0.03"/>
<path d="M10.3658 11.4783C10.4463 11.3849 10.7116 11.2957 10.7537 11.3011C10.5946 11.5091 10.3986 11.5513 10.3658 11.4783ZM10.862 13.0301C10.8263 13.1085 10.6106 13.0485 10.4335 12.8071C10.649 12.9437 10.8343 13.0371 10.862 13.0301ZM10.3793 11.9691C10.2961 12.0237 10.1194 11.8343 10.0885 11.4915C10.2197 11.7555 10.3466 11.9591 10.3793 11.9691ZM10.5459 12.6559C10.5307 12.7305 10.3343 12.7277 10.133 12.5615C10.3452 12.6295 10.5235 12.6683 10.5459 12.6559ZM10.3589 12.1569C10.3128 12.2217 10.1354 12.1315 10.0264 11.8837C10.1885 12.0431 10.3327 12.1587 10.3589 12.1569ZM10.4135 11.2059C10.3258 11.2371 10.2124 11.0243 10.269 10.7059C10.3219 10.9755 10.3866 11.1893 10.4135 11.2059ZM10.502 10.9087C10.4169 10.9133 10.366 10.6925 10.4927 10.4223C10.4764 10.6783 10.4828 10.8869 10.502 10.9087ZM10.6017 10.7553C10.533 10.7447 10.5281 10.5621 10.6714 10.3679C10.6171 10.5675 10.5892 10.7353 10.6017 10.7553ZM10.7201 10.6337C10.6579 10.6009 10.7062 10.4251 10.899 10.2869C10.7895 10.4599 10.7145 10.6105 10.7201 10.6337Z" fill="#67923D" stroke="#24420E" stroke-width="0.03"/>
<path d="M10.4021 11.4971C10.3269 11.5391 10.2125 11.4271 10.2044 11.1307C10.3054 11.3643 10.3746 11.4867 10.4021 11.4971ZM11.0468 13.2131C11.0291 13.3057 10.7867 13.3011 10.5385 13.0951C10.7992 13.1807 11.0185 13.2291 11.0468 13.2131ZM10.8851 13.0235C10.8055 12.9367 10.7434 12.6765 10.7515 12.6387C10.9298 12.8135 10.9537 13.0019 10.8851 13.0235ZM10.551 12.5237C10.4803 12.4079 10.4742 12.1057 10.4932 12.0645C10.6567 12.3007 10.6367 12.5163 10.551 12.5237ZM10.4989 12.5255C10.4447 12.5915 10.2628 12.4823 10.165 12.2089C10.3259 12.3909 10.4712 12.5249 10.4989 12.5255Z" fill="#67923D" stroke="#24420E" stroke-width="0.03"/>
<path d="M10.3652 11.4803C10.3973 11.5527 10.5918 11.5109 10.7512 11.3027C10.5141 11.4387 10.4203 11.4975 10.3652 11.4803ZM10.5501 12.5217C10.6358 12.5143 10.6556 12.3009 10.4921 12.0647C10.5447 12.3019 10.5671 12.4983 10.5501 12.5217ZM10.8858 13.0239C10.9544 13.0025 10.9303 12.8149 10.753 12.6403C10.84 12.8349 10.8955 13.0005 10.8858 13.0239Z" fill="#406325" stroke="#24420E" stroke-width="0.03"/>
<path d="M10.4022 11.8354C10.443 11.6676 10.3686 11.3834 10.3171 11.3242C10.2237 11.6328 10.3124 11.8562 10.4022 11.8354Z" fill="#406325" stroke="#24420E" stroke-width="0.03"/>
<path d="M10.3964 11.8753C10.2797 11.9021 10.2254 11.6347 10.3157 11.3337C10.3369 11.6047 10.3717 11.8567 10.3964 11.8753Z" fill="#67923D" stroke="#24420E" stroke-width="0.03"/>
<path d="M10.3727 11.8749C10.3616 11.7243 10.5098 11.4131 10.549 11.3809C10.589 11.6969 10.4607 11.9069 10.3727 11.8749Z" fill="#67923D" stroke="#24420E" stroke-width="0.03"/>
<path d="M10.374 11.8722C10.4613 11.905 10.5888 11.697 10.5488 11.381C10.4795 11.6462 10.4015 11.8562 10.374 11.8722Z" fill="#406325" stroke="#24420E" stroke-width="0.03"/>
<path d="M10.4004 12.0642C10.4004 11.9122 10.568 11.6196 10.6094 11.5918C10.626 11.915 10.4841 12.1084 10.4004 12.0642Z" fill="#67923D" stroke="#24420E" stroke-width="0.03"/>
<path d="M10.4014 12.0682C10.4851 12.1124 10.625 11.921 10.6086 11.5978C10.5215 11.8548 10.4295 12.0558 10.4014 12.0682Z" fill="#406325" stroke="#24420E" stroke-width="0.03"/>
<path d="M10.454 11.047C10.4658 11.047 10.4754 11.0373 10.4754 11.0254C10.4754 11.0135 10.4658 11.0038 10.454 11.0038C10.4422 11.0038 10.4326 11.0135 10.4326 11.0254C10.4326 11.0373 10.4422 11.047 10.454 11.047Z" fill="#BA1F3E" stroke="#511124" stroke-width="0.03"/>
<path d="M10.619 10.9239C10.6308 10.9239 10.6404 10.9143 10.6404 10.9023C10.6404 10.8904 10.6308 10.8807 10.619 10.8807C10.6072 10.8807 10.5977 10.8904 10.5977 10.9023C10.5977 10.9143 10.6072 10.9239 10.619 10.9239Z" fill="#BA1F3E" stroke="#511124" stroke-width="0.03"/>
<path d="M10.547 10.856C10.5589 10.856 10.5685 10.8462 10.5685 10.8342C10.5685 10.8221 10.5589 10.8124 10.547 10.8124C10.535 10.8124 10.5254 10.8221 10.5254 10.8342C10.5254 10.8462 10.535 10.856 10.547 10.856Z" fill="#BA1F3E" stroke="#511124" stroke-width="0.03"/>
<path d="M10.3681 12.2874C10.3821 12.2874 10.3934 12.2759 10.3934 12.2618C10.3934 12.2477 10.3821 12.2362 10.3681 12.2362C10.3541 12.2362 10.3428 12.2477 10.3428 12.2618C10.3428 12.2759 10.3541 12.2874 10.3681 12.2874Z" fill="#BA1F3E" stroke="#511124" stroke-width="0.03"/>
<path d="M10.4179 11.969C10.4319 11.969 10.4432 11.9576 10.4432 11.9434C10.4432 11.9293 10.4319 11.9178 10.4179 11.9178C10.4039 11.9178 10.3926 11.9293 10.3926 11.9434C10.3926 11.9576 10.4039 11.969 10.4179 11.969Z" fill="#BA1F3E" stroke="#511124" stroke-width="0.03"/>
<path d="M10.6787 12.7151C10.6926 12.7151 10.704 12.7037 10.704 12.6895C10.704 12.6754 10.6926 12.6639 10.6787 12.6639C10.6647 12.6639 10.6533 12.6754 10.6533 12.6895C10.6533 12.7037 10.6647 12.7151 10.6787 12.7151Z" fill="#BA1F3E" stroke="#511124" stroke-width="0.03"/>
<path d="M10.5634 12.7542C10.5774 12.7542 10.5888 12.7427 10.5888 12.7286C10.5888 12.7145 10.5774 12.703 10.5634 12.703C10.5494 12.703 10.5381 12.7145 10.5381 12.7286C10.5381 12.7427 10.5494 12.7542 10.5634 12.7542Z" fill="#BA1F3E" stroke="#511124" stroke-width="0.03"/>
<path d="M11.4404 13.3772C11.4544 13.3772 11.4657 13.3658 11.4657 13.3516C11.4657 13.3375 11.4544 13.326 11.4404 13.326C11.4264 13.326 11.415 13.3375 11.415 13.3516C11.415 13.3658 11.4264 13.3772 11.4404 13.3772Z" fill="#BA1F3E" stroke="#511124" stroke-width="0.03"/>
<path d="M11.498 13.5198C11.512 13.5198 11.5233 13.5083 11.5233 13.4942C11.5233 13.48 11.512 13.4686 11.498 13.4686C11.484 13.4686 11.4727 13.48 11.4727 13.4942C11.4727 13.5083 11.484 13.5198 11.498 13.5198Z" fill="#BA1F3E" stroke="#511124" stroke-width="0.03"/>
<path d="M13.7055 11.1806C13.7178 11.193 13.7286 11.1966 13.751 11.2186M13.6198 10.8396C13.619 10.8122 13.6073 10.7676 13.6016 10.7402M13.6699 10.7998C13.6711 10.8388 13.6655 10.8758 13.6489 10.9098M13.5666 10.8992C13.6012 10.9308 13.6358 10.9608 13.6707 10.9772M13.7463 11.0016C13.7481 11.0417 13.7436 11.0818 13.7328 11.1204M13.7391 11.1506L13.7651 11.1054M13.7283 11.3498C13.756 11.3558 13.7839 11.3888 13.7975 11.4194M13.807 11.3936L13.8395 11.3498M13.8733 11.9644C13.8592 11.989 13.8429 12.0123 13.8246 12.034M13.7463 12.0326C13.7619 12.0618 13.7771 12.0916 13.7977 12.1132M13.8462 12.2306C13.8234 12.264 13.7934 12.2915 13.7583 12.3112M13.7611 12.4012C13.7393 12.4162 13.713 12.4602 13.6881 12.4954M13.8551 12.0918L13.8132 12.1092M13.7855 11.9594L13.8104 11.9816M13.6263 12.7294C13.6097 12.7274 13.5974 12.7294 13.5844 12.7308M13.5448 12.6922L13.5569 12.725M13.4043 12.8274C13.3991 12.8648 13.4029 12.902 13.4082 12.9394M13.4935 12.759L13.5137 12.804M13.5895 12.8L13.5394 12.8082M12.9289 13.3136L12.9107 13.3484M13.1462 13.2698C13.1165 13.2736 13.0912 13.269 13.065 13.2658M12.957 13.3846C12.938 13.3771 12.9185 13.3707 12.8988 13.3654M12.6071 13.4186C12.5892 13.434 12.5677 13.4674 12.5463 13.5006M12.5354 13.4092C12.4873 13.4342 12.4725 13.4834 12.4475 13.5252M12.503 13.5826C12.4671 13.5709 12.4319 13.5572 12.3975 13.5416M12.7294 13.528C12.6835 13.504 12.6354 13.5062 12.5881 13.4986M12.801 13.4918C12.7292 13.4778 12.6623 13.4796 12.5976 13.489M12.7515 13.437L12.7238 13.4254M12.6144 13.5354L12.5685 13.5094M13.7152 12.5256C13.6903 12.542 13.6655 12.5712 13.6406 12.6028M13.6768 11.0104L13.6342 10.996" stroke="#24420E" stroke-width="0.03"/>
<path d="M11.9883 13.698C12.0041 13.6728 12.0298 13.6574 12.0532 13.6448C12.206 13.5638 12.358 13.528 12.5304 13.5C12.5704 13.4932 12.6101 13.4556 12.6511 13.4362C12.7491 13.389 12.8585 13.3706 12.9539 13.3222C12.9695 13.3144 12.9836 13.3039 12.9957 13.2914C13.0337 13.247 13.1022 13.2334 13.1449 13.192C13.3098 13.0346 13.4849 12.8896 13.5758 12.681C13.686 12.427 13.8232 12.1652 13.8048 11.8766C13.7927 11.694 13.8196 11.5096 13.7751 11.3356C13.7092 11.0776 13.6249 10.8228 13.4703 10.6094L13.496 10.6258C13.6518 10.8392 13.7361 11.0942 13.802 11.352C13.8463 11.526 13.8196 11.7104 13.8317 11.893C13.8501 12.1816 13.7129 12.4434 13.6027 12.6984C13.5116 12.906 13.3357 13.051 13.1716 13.2094C13.1291 13.2498 13.0604 13.2634 13.0224 13.3088C13.0099 13.3208 12.996 13.3312 12.9808 13.3396C12.8852 13.388 12.776 13.4064 12.6778 13.4528C12.6371 13.4728 12.5971 13.5096 12.5571 13.5164C12.3849 13.5444 12.2329 13.5812 12.0801 13.6614C12.0542 13.6729 12.0318 13.6912 12.0152 13.7144L11.9883 13.698Z" fill="#406325"/>
<path d="M11.9883 13.698C12.0041 13.6728 12.0298 13.6574 12.0532 13.6448C12.206 13.5638 12.358 13.528 12.5304 13.5C12.5704 13.4932 12.6101 13.4556 12.6511 13.4362C12.7491 13.389 12.8585 13.3706 12.9539 13.3222C12.9695 13.3144 12.9836 13.3039 12.9957 13.2914C13.0337 13.247 13.1022 13.2334 13.1449 13.192C13.3098 13.0346 13.4849 12.8896 13.5758 12.681C13.686 12.427 13.8232 12.1652 13.8048 11.8766C13.7927 11.694 13.8196 11.5096 13.7751 11.3356C13.7092 11.0776 13.6249 10.8228 13.4703 10.6094L13.496 10.6258C13.6518 10.8392 13.7361 11.0942 13.802 11.352C13.8463 11.526 13.8196 11.7104 13.8317 11.893C13.8501 12.1816 13.7129 12.4434 13.6027 12.6984C13.5116 12.906 13.3357 13.051 13.1716 13.2094C13.1291 13.2498 13.0604 13.2634 13.0224 13.3088C13.0099 13.3208 12.996 13.3312 12.9808 13.3396C12.8852 13.388 12.776 13.4064 12.6778 13.4528C12.6371 13.4728 12.5971 13.5096 12.5571 13.5164C12.3849 13.5444 12.2329 13.5812 12.0801 13.6614C12.0542 13.6729 12.0318 13.6912 12.0152 13.7144L11.9883 13.698" stroke="#24420E" stroke-width="0.03"/>
<path d="M13.5566 12.6913C13.6109 12.5429 13.5566 12.1945 13.5271 12.1523C13.3955 12.4597 13.461 12.7023 13.5566 12.6913Z" fill="#406325" stroke="#24420E" stroke-width="0.03"/>
<path d="M13.4156 12.832C13.4611 12.719 13.4276 12.4456 13.4063 12.412C13.297 12.646 13.3417 12.8364 13.4156 12.832ZM13.7483 11.349C13.683 11.227 13.4144 11.0606 13.3671 11.0566C13.49 11.324 13.6946 11.4206 13.7483 11.349Z" fill="#406325" stroke="#24420E" stroke-width="0.03"/>
<path d="M13.7171 11.1895C13.6814 11.0681 13.4716 10.8685 13.4307 10.8555C13.492 11.1169 13.6563 11.2419 13.7171 11.1895ZM13.8109 11.4887C13.7408 11.4077 13.5108 11.3301 13.4742 11.3347C13.6124 11.5155 13.7824 11.5521 13.8109 11.4887ZM13.7554 12.4153C13.8768 12.4347 14.1307 12.3329 14.158 12.3027C13.9027 12.2467 13.7315 12.3395 13.7554 12.4153ZM13.7525 12.3025C13.7517 12.1897 13.6258 11.9653 13.5949 11.9439C13.5841 12.1839 13.6899 12.3329 13.7525 12.3025Z" fill="#406325" stroke="#24420E" stroke-width="0.03"/>
<path d="M13.7606 12.0289C13.7606 11.8769 13.593 11.5843 13.5516 11.5565C13.535 11.8797 13.6769 12.0731 13.7606 12.0289ZM12.7139 13.5343C12.8025 13.6443 13.1028 13.7569 13.1511 13.7523C12.9769 13.5077 12.7538 13.4513 12.7139 13.5343Z" fill="#406325" stroke="#24420E" stroke-width="0.03"/>
<path d="M13.5548 12.6895C13.4594 12.7005 13.3947 12.4607 13.5271 12.1537C13.5174 12.4377 13.5318 12.6663 13.5548 12.6895ZM12.4985 13.5627C12.639 13.5699 12.9064 13.7487 12.9312 13.7907C12.6327 13.7929 12.4558 13.6443 12.4985 13.5627ZM12.4985 13.4039C12.5401 13.2445 12.7954 12.9797 12.8451 12.9609C12.7738 13.3035 12.5731 13.4715 12.4985 13.4039ZM12.9195 13.3193C12.9001 13.1629 13.0317 12.8345 13.0695 12.7997C13.1281 13.1291 13.0101 13.3513 12.9195 13.3193ZM13.3442 13.0285C13.4327 12.9191 13.7278 12.8019 13.7739 12.8057C13.5981 13.0473 13.3804 13.1077 13.3442 13.0285ZM13.8546 11.9633C13.8725 11.8367 14.0468 11.6057 14.0842 11.5859C14.0607 11.8563 13.92 12.0063 13.8546 11.9633Z" fill="#67923D" stroke="#24420E" stroke-width="0.03"/>
<path d="M13.6232 12.724C13.7384 12.6382 14.0606 12.5994 14.1061 12.614C13.8724 12.8074 13.64 12.811 13.6232 12.724ZM13.8265 12.2336C13.8864 12.114 14.1346 11.9502 14.1778 11.9456C14.063 12.206 13.8749 12.3016 13.8265 12.2336ZM13.7972 11.3224C13.7952 11.1698 13.9551 10.8678 13.9945 10.8376C14.0174 11.1604 13.8811 11.3616 13.7972 11.3224ZM13.66 10.804C13.6141 10.6984 13.6382 10.4358 13.658 10.4026C13.7681 10.6218 13.7309 10.806 13.66 10.804ZM13.5763 10.7604C13.472 10.6668 13.3657 10.3652 13.3703 10.3184C13.6028 10.5036 13.6551 10.7256 13.5763 10.7604Z" fill="#67923D" stroke="#24420E" stroke-width="0.03"/>
<path d="M13.8067 11.4518C13.8004 11.4682 13.8649 11.2978 14.0882 11.1458C14.0088 11.431 13.8697 11.5112 13.8067 11.4518ZM13.1318 13.2498C13.2704 13.1464 13.6569 13.0972 13.7103 13.1154C13.4283 13.3502 13.1518 13.3548 13.1318 13.2498ZM13.4155 12.833C13.3416 12.8374 13.2975 12.6478 13.406 12.4146C13.3917 12.634 13.3976 12.814 13.4155 12.833ZM13.7489 11.3516C13.6955 11.4232 13.4936 11.3276 13.3705 11.0594C13.5552 11.2308 13.7196 11.3542 13.7489 11.3516ZM13.7153 11.1904C13.6545 11.2428 13.4918 11.1188 13.4303 10.8574C13.5641 11.0448 13.6886 11.1864 13.7153 11.1904ZM13.8121 11.491C13.7844 11.554 13.6153 11.5176 13.4772 11.337C13.6828 11.4548 13.7642 11.506 13.8121 11.491ZM13.7588 12.4152C13.7341 12.34 13.9045 12.2488 14.1594 12.304C13.9441 12.343 13.7721 12.3936 13.7588 12.4152ZM13.7509 12.3032C13.6888 12.3326 13.5837 12.1856 13.5948 11.9456C13.6613 12.1404 13.7299 12.2932 13.7509 12.3032Z" fill="#67923D" stroke="#24420E" stroke-width="0.03"/>
<path d="M13.7586 12.0329C13.6749 12.0769 13.535 11.8857 13.5514 11.5625C13.6385 11.8195 13.7305 12.0205 13.7586 12.0329ZM12.7158 13.5343C12.7558 13.4513 12.9761 13.5067 13.1508 13.7521C12.9331 13.6171 12.7453 13.5261 12.7158 13.5343Z" fill="#67923D" stroke="#24420E" stroke-width="0.03"/>
<path d="M12.9219 13.3164C13.0117 13.3484 13.1285 13.128 13.0711 12.7988C13.0155 13.0778 12.9488 13.3 12.9219 13.3164Z" fill="#406325" stroke="#24420E" stroke-width="0.03"/>
<path d="M13.1256 13.2116C13.2115 13.0786 13.2354 12.7206 13.2162 12.6722C13.0195 12.9442 13.03 13.1988 13.1256 13.2116ZM12.4984 13.5624C12.4564 13.644 12.631 13.7912 12.9296 13.7886C12.6931 13.691 12.5093 13.5914 12.4984 13.5624ZM12.5015 13.4014C12.5765 13.4682 12.7747 13.3024 12.8459 12.9598C12.6852 13.2082 12.535 13.3958 12.5015 13.4014ZM13.3468 13.0284C13.3825 13.1068 13.5982 13.0468 13.7753 12.8054C13.5598 12.942 13.3745 13.0356 13.3468 13.0284ZM13.8565 11.9618C13.9218 12.0048 14.0611 11.8558 14.0853 11.5858C13.9822 11.7938 13.8822 11.9538 13.8565 11.9618ZM13.6251 12.724C13.6429 12.811 13.8715 12.8076 14.1062 12.614C13.8589 12.6934 13.651 12.7384 13.6251 12.724ZM13.8302 12.2312C13.8786 12.2992 14.0651 12.2046 14.1797 11.9442C14.0095 12.1116 13.8575 12.233 13.8302 12.2312ZM13.8003 11.32C13.8842 11.3604 14.0192 11.161 13.9962 10.838C13.9155 11.1008 13.8288 11.3064 13.8003 11.32ZM13.6625 10.8026C13.7326 10.8046 13.7696 10.622 13.6599 10.4026C13.6787 10.6126 13.6778 10.7842 13.6625 10.8026ZM13.5788 10.7578C13.6574 10.723 13.6051 10.5036 13.3726 10.3184C13.5006 10.5388 13.5873 10.7298 13.5788 10.7578ZM13.8086 11.4512C13.8713 11.5106 14.0093 11.43 14.0886 11.1446C13.9343 11.3462 13.8377 11.448 13.8086 11.4512ZM13.1339 13.2494C13.1537 13.3544 13.429 13.3494 13.7104 13.1156C13.4147 13.2126 13.1661 13.2676 13.1339 13.2494Z" fill="#406325" stroke="#24420E" stroke-width="0.03"/>
<path d="M13.2705 13.0939C13.3352 12.9953 13.355 12.7285 13.3409 12.6923C13.1929 12.8939 13.1992 13.0837 13.2705 13.0939ZM13.6584 12.5217C13.7291 12.4059 13.7352 12.1037 13.7162 12.0625C13.5527 12.2987 13.5727 12.5143 13.6584 12.5217Z" fill="#406325" stroke="#24420E" stroke-width="0.03"/>
<path d="M13.1243 13.2112C13.0287 13.1984 13.0188 12.945 13.2144 12.6738C13.1427 12.9508 13.1063 13.1826 13.1243 13.2112ZM13.8202 11.8446C13.8016 11.6894 13.899 11.4418 13.9514 11.3942C14.0025 11.6818 13.8988 11.8732 13.8202 11.8446ZM13.2692 13.0944C13.1979 13.0844 13.192 12.8954 13.3393 12.6944C13.2842 12.9004 13.2559 13.073 13.2692 13.0944ZM13.7315 11.0096C13.6886 10.892 13.7321 10.6088 13.7561 10.5742C13.8606 10.8192 13.8081 11.0164 13.7315 11.0096ZM12.582 13.4126C12.6309 13.2506 12.9027 12.991 12.9541 12.9744C12.8684 13.3228 12.6561 13.4848 12.582 13.4126ZM13.6613 12.5808C13.7139 12.4556 13.9542 12.2716 13.9973 12.264C13.8996 12.5368 13.7153 12.6468 13.6613 12.5808ZM13.6589 12.5202C13.5732 12.5128 13.5534 12.2994 13.7169 12.0632C13.6642 12.3004 13.6419 12.4968 13.6589 12.5202Z" fill="#67923D" stroke="#24420E" stroke-width="0.03"/>
<path d="M13.8213 11.8805C13.9234 11.9173 14.001 11.6827 13.9519 11.4023C13.9038 11.6435 13.8454 11.8663 13.8213 11.8805Z" fill="#406325" stroke="#24420E" stroke-width="0.03"/>
<path d="M13.8362 11.8724C13.8473 11.7218 13.699 11.4106 13.6597 11.3784C13.6199 11.6944 13.7481 11.9044 13.8362 11.8724ZM13.7329 11.008C13.8087 11.0148 13.8609 10.8194 13.7564 10.5742C13.763 10.8032 13.7507 10.9892 13.7329 11.008ZM12.584 13.4102C12.659 13.4826 12.8684 13.3218 12.9541 12.9734C12.7791 13.2204 12.6184 13.4056 12.584 13.4102ZM13.6654 12.5804C13.7196 12.6464 13.9015 12.5372 13.9993 12.2638C13.8384 12.4458 13.6931 12.5798 13.6654 12.5804Z" fill="#406325" stroke="#24420E" stroke-width="0.03"/>
<path d="M13.8347 11.8701C13.7474 11.9029 13.6199 11.6949 13.6599 11.3789C13.7292 11.6441 13.8072 11.8541 13.8347 11.8701Z" fill="#67923D" stroke="#24420E" stroke-width="0.03"/>
<path d="M13.7743 11.1194C13.7861 11.1194 13.7957 11.1097 13.7957 11.0978C13.7957 11.0858 13.7861 11.0762 13.7743 11.0762C13.7625 11.0762 13.7529 11.0858 13.7529 11.0978C13.7529 11.1097 13.7625 11.1194 13.7743 11.1194Z" fill="#BA1F3E" stroke="#511124" stroke-width="0.03"/>
<path d="M13.8495 11.3575C13.8613 11.3575 13.8709 11.3478 13.8709 11.3359C13.8709 11.3239 13.8613 11.3143 13.8495 11.3143C13.8377 11.3143 13.8281 11.3239 13.8281 11.3359C13.8281 11.3478 13.8377 11.3575 13.8495 11.3575Z" fill="#BA1F3E" stroke="#511124" stroke-width="0.03"/>
<path d="M13.8759 12.1117C13.8899 12.1117 13.9013 12.1003 13.9013 12.0861C13.9013 12.072 13.8899 12.0605 13.8759 12.0605C13.8619 12.0605 13.8506 12.072 13.8506 12.0861C13.8506 12.1003 13.8619 12.1117 13.8759 12.1117Z" fill="#BA1F3E" stroke="#511124" stroke-width="0.03"/>
<path d="M13.7744 11.9709C13.7883 11.9709 13.7997 11.9594 13.7997 11.9453C13.7997 11.9311 13.7883 11.9197 13.7744 11.9197C13.7604 11.9197 13.749 11.9311 13.749 11.9453C13.749 11.9594 13.7604 11.9709 13.7744 11.9709Z" fill="#BA1F3E" stroke="#511124" stroke-width="0.03"/>
<path d="M13.4833 12.768C13.4973 12.768 13.5087 12.7565 13.5087 12.7424C13.5087 12.7283 13.4973 12.7168 13.4833 12.7168C13.4693 12.7168 13.458 12.7283 13.458 12.7424C13.458 12.7565 13.4693 12.768 13.4833 12.768Z" fill="#BA1F3E" stroke="#511124" stroke-width="0.03"/>
<path d="M13.6074 12.8227C13.6214 12.8227 13.6327 12.8112 13.6327 12.7971C13.6327 12.7829 13.6214 12.7715 13.6074 12.7715C13.5934 12.7715 13.582 12.7829 13.582 12.7971C13.582 12.8112 13.5934 12.8227 13.6074 12.8227Z" fill="#BA1F3E" stroke="#511124" stroke-width="0.03"/>
<path d="M12.7685 13.4711C12.7825 13.4711 12.7938 13.4597 12.7938 13.4455C12.7938 13.4314 12.7825 13.4199 12.7685 13.4199C12.7545 13.4199 12.7432 13.4314 12.7432 13.4455C12.7432 13.4597 12.7545 13.4711 12.7685 13.4711Z" fill="#BA1F3E" stroke="#511124" stroke-width="0.03"/>
<path d="M12.6298 13.5709C12.6438 13.5709 12.6552 13.5595 12.6552 13.5453C12.6552 13.5312 12.6438 13.5197 12.6298 13.5197C12.6158 13.5197 12.6045 13.5312 12.6045 13.5453C12.6045 13.5595 12.6158 13.5709 12.6298 13.5709Z" fill="#BA1F3E" stroke="#511124" stroke-width="0.03"/>
<path d="M13.6239 11.0061C13.6357 11.0061 13.6453 10.9964 13.6453 10.9845C13.6453 10.9726 13.6357 10.9629 13.6239 10.9629C13.6121 10.9629 13.6025 10.9726 13.6025 10.9845C13.6025 10.9964 13.6121 11.0061 13.6239 11.0061Z" fill="#BA1F3E" stroke="#511124" stroke-width="0.03"/>
<path d="M11.1946 12.7251C11.192 12.7465 11.2112 12.7719 11.2367 12.7665C11.2442 12.7649 11.249 12.7549 11.2393 12.7567C11.2308 12.7587 11.2219 12.7553 11.2155 12.7493C11.2104 12.7446 11.2069 12.7383 11.2055 12.7314C11.204 12.7245 11.2048 12.7174 11.2076 12.7109L11.1946 12.7249V12.7251Z" fill="#8C959D" stroke="#485654" stroke-width="0.03"/>
<path d="M11.2537 12.7672C11.2335 12.7906 11.2028 12.8008 11.1858 12.7838C11.1745 12.7726 11.1705 12.7598 11.1765 12.7458L11.1543 12.7702C11.1553 12.7722 11.1685 12.7964 11.1881 12.8054C11.2123 12.8164 11.2469 12.7998 11.2677 12.7742C11.2823 12.756 11.2986 12.7256 11.2869 12.702C11.278 12.6865 11.2643 12.6746 11.2479 12.668L11.2275 12.69C11.2376 12.6852 11.2503 12.6874 11.2612 12.6962C11.2863 12.717 11.2717 12.7462 11.2537 12.7672Z" fill="#8C959D"/>
<path d="M11.2537 12.7672C11.2473 12.775 11.2395 12.7815 11.2307 12.7864C11.2218 12.791 11.2117 12.7942 11.2016 12.7926C11.1965 12.792 11.1915 12.79 11.1874 12.7866C11.1834 12.7834 11.1801 12.7796 11.1775 12.7752C11.1747 12.7707 11.173 12.7656 11.1725 12.7604C11.1721 12.7552 11.1733 12.7498 11.1753 12.745L11.1777 12.7466L11.1557 12.7714L11.1559 12.7694C11.1614 12.779 11.1684 12.7882 11.1767 12.7954C11.1806 12.7992 11.1852 12.8022 11.1903 12.8042C11.1955 12.8062 11.2009 12.807 11.2064 12.8068C11.2169 12.8066 11.2276 12.8028 11.2373 12.7974C11.2469 12.7918 11.2556 12.7847 11.263 12.7764C11.2703 12.7682 11.2766 12.7588 11.2814 12.7488C11.2861 12.7388 11.2895 12.7278 11.2889 12.7168C11.2885 12.7113 11.287 12.7061 11.2844 12.7014C11.2818 12.6966 11.2784 12.6922 11.2745 12.6882C11.2667 12.6802 11.2574 12.6738 11.2473 12.6696L11.2493 12.6692L11.2287 12.691L11.227 12.6886C11.2317 12.6866 11.2369 12.6858 11.242 12.6864C11.2469 12.6868 11.2519 12.6886 11.2561 12.6912C11.2646 12.6964 11.2719 12.7042 11.2745 12.714C11.277 12.724 11.2745 12.7342 11.2703 12.743C11.2659 12.7517 11.2603 12.7598 11.2537 12.767V12.7672ZM11.2537 12.7672C11.2598 12.7596 11.2656 12.7516 11.2695 12.7426C11.2733 12.7338 11.2754 12.7238 11.2727 12.7146C11.2701 12.7054 11.2628 12.698 11.2549 12.6934C11.2469 12.6886 11.2367 12.6874 11.2283 12.6914L11.2266 12.689L11.2468 12.6668L11.2475 12.666L11.2485 12.6664C11.2647 12.6729 11.2785 12.6846 11.2877 12.6996C11.2907 12.7046 11.2923 12.7106 11.2927 12.7166C11.2937 12.7286 11.2901 12.74 11.2851 12.7506C11.2802 12.761 11.2737 12.7706 11.2661 12.7794C11.2582 12.788 11.2493 12.7954 11.2392 12.801C11.2292 12.8069 11.2178 12.8103 11.2062 12.811C11.2003 12.8112 11.1944 12.8102 11.1889 12.808C11.1833 12.8058 11.1783 12.8025 11.1741 12.7984C11.1655 12.7905 11.1584 12.7813 11.1529 12.771L11.1523 12.77L11.1531 12.769L11.1755 12.7446L11.1779 12.7462C11.1759 12.7506 11.1749 12.7554 11.1751 12.7602C11.1753 12.765 11.1771 12.7698 11.1795 12.7738C11.1818 12.778 11.1852 12.7818 11.1888 12.785C11.1925 12.7882 11.1971 12.79 11.2018 12.791C11.2115 12.7926 11.2216 12.7898 11.2301 12.7854C11.239 12.781 11.2469 12.7746 11.2537 12.7672Z" fill="#485654"/>
<path d="M12.797 10.9844L12.0026 11.7748C11.9422 11.8354 11.2513 12.5022 11.1892 12.5624C11.1674 12.5888 11.1054 12.6596 11.0989 12.6694C11.0568 12.7156 11.011 12.776 10.9564 12.83C10.9465 12.8424 10.9339 12.838 10.9222 12.8448C10.8848 12.8689 10.8511 12.8983 10.822 12.9322L10.5806 13.2022C10.5647 13.2194 10.5608 13.23 10.5713 13.2398L10.7023 13.4168C10.7266 13.4408 10.7547 13.4534 10.7656 13.433C10.828 13.3242 10.9825 13.158 11.0409 13.0264C11.076 12.9478 11.1197 12.8052 11.151 12.7708C11.1894 12.7276 11.2929 12.6162 11.3845 12.5168L11.4031 12.4968L11.4217 12.4764C11.887 11.9974 12.4256 11.4154 12.8176 11.0052C12.8022 10.9896 12.8119 10.999 12.797 10.9844Z" fill="#6C301E" stroke="#351710" stroke-width="0.03" stroke-linejoin="round"/>
<path d="M11.1472 12.5632C11.1229 12.564 11.1072 12.5492 11.0908 12.5352C11.114 12.5422 11.1373 12.5512 11.1591 12.542L11.1472 12.5632Z" fill="#8C959D" stroke="#485654" stroke-width="0.03"/>
<path d="M13.6249 10.4023L12.9955 10.9267C12.9894 10.9341 12.9831 10.9321 12.9771 10.9267L12.9197 10.8783L12.9201 10.8763C12.9201 10.8729 12.9193 10.8697 12.9184 10.8669L12.9465 10.8379C12.95 10.8335 12.9488 10.8319 12.9441 10.8269L12.9324 10.8149C12.9281 10.8115 12.9243 10.8143 12.9197 10.8185L12.8916 10.8483C12.877 10.8489 12.8653 10.8609 12.8649 10.8755C12.4841 11.2501 12.1564 11.5843 11.7776 11.9529L11.3309 12.3839C11.3148 12.4049 11.2458 12.4421 11.2002 12.4721C11.1862 12.4798 11.1739 12.4903 11.1642 12.5031L11.1278 12.6117C11.1163 12.6357 11.0797 12.6917 11.0781 12.6957C11.1248 12.7433 11.1225 12.7397 11.1545 12.7701C11.1905 12.7297 11.2871 12.6281 11.3746 12.5331C11.3815 12.5255 11.3821 12.5247 11.391 12.5137C11.3765 12.4931 11.3592 12.4746 11.3396 12.4589L11.3273 12.4479C11.3239 12.4447 11.3321 12.4391 11.3356 12.4351C11.8595 11.9235 12.4234 11.3611 12.8849 10.9031C12.8916 10.9051 12.8989 10.9043 12.9051 10.9011L12.9603 10.9655C12.9732 10.9785 12.9841 10.9781 12.9946 10.9735L13.6251 10.4025L13.6249 10.4023Z" fill="#B2B6BA" stroke="#485654" stroke-width="0.03"/>
<path d="M11.1289 12.6086C11.1329 12.6092 11.1368 12.6096 11.1408 12.6092C11.1447 12.6088 11.1487 12.6078 11.1523 12.606L11.1519 12.6064C11.161 12.5746 11.1707 12.543 11.181 12.5116L11.1812 12.512C11.1772 12.5076 11.1726 12.5036 11.1667 12.502C11.1726 12.5032 11.1778 12.507 11.1819 12.5112L11.1821 12.5116V12.5118L11.1681 12.5594L11.1532 12.6068V12.607H11.1529C11.1491 12.609 11.1449 12.61 11.141 12.61C11.137 12.61 11.1329 12.6094 11.1289 12.6086Z" fill="#485654"/>
<path d="M11.272 12.5753C11.2788 12.5753 11.2843 12.5698 11.2843 12.5629C11.2843 12.5561 11.2788 12.5505 11.272 12.5505C11.2653 12.5505 11.2598 12.5561 11.2598 12.5629C11.2598 12.5698 11.2653 12.5753 11.272 12.5753Z" stroke="#485654" stroke-width="0.03"/>
<path d="M11.1978 12.6498C11.2046 12.6498 11.2101 12.6442 11.2101 12.6374C11.2101 12.6306 11.2046 12.625 11.1978 12.625C11.191 12.625 11.1855 12.6306 11.1855 12.6374C11.1855 12.6442 11.191 12.6498 11.1978 12.6498Z" stroke="#485654" stroke-width="0.03"/>
<path d="M11.3274 12.4486C11.3149 12.439 11.3033 12.428 11.293 12.416C11.3055 12.4257 11.3171 12.4366 11.3274 12.4486Z" fill="#485654"/>
<path d="M12.5381 11.1815L12.6072 11.2497L12.6198 11.2379L12.551 11.1699L12.5381 11.1815Z" fill="#8C959D" stroke="#485654" stroke-width="0.03"/>
<path d="M11.1877 13.3073C11.0319 13.2409 10.6555 13.2939 10.6094 13.3259C10.9318 13.4861 11.194 13.4175 11.1877 13.3073ZM12.9495 13.3737C13.1053 13.3073 13.4817 13.3603 13.5279 13.3923C13.2054 13.5519 12.9432 13.4839 12.9495 13.3737Z" fill="#67923D" stroke="#24420E" stroke-width="0.03"/>
<path d="M11.1847 13.3105C11.1911 13.4205 10.9316 13.4883 10.6094 13.3285C10.912 13.3473 11.1594 13.3361 11.1847 13.3105ZM12.9525 13.3763C12.9462 13.4863 13.2056 13.5541 13.5279 13.3943C13.2252 13.4131 12.9778 13.4025 12.9525 13.3763Z" fill="#406325" stroke="#24420E" stroke-width="0.03"/>
<path d="M12.6634 13.1999C12.2531 12.5975 11.6342 12.1077 11.1572 11.8399C11.2275 11.8367 11.384 11.9177 11.4476 11.9591C11.9214 12.2675 12.3243 12.6751 12.7471 13.1555C12.7257 13.1773 12.703 13.1977 12.679 13.2165L12.6634 13.1999Z" fill="#B2B6BA" stroke="#485654" stroke-width="0.03"/>
<path d="M12.7043 13.1947L12.6756 13.2227C12.2202 12.6299 11.5851 12.0637 11.1582 11.8397C11.7535 12.1169 12.2547 12.6751 12.7025 13.1927L12.7043 13.1945V13.1947Z" fill="#8C959D"/>
<path d="M12.7043 13.1947L12.6756 13.2227C12.57 13.0864 12.4586 12.9547 12.3418 12.8281C12.2253 12.7011 12.104 12.5788 11.9782 12.4613C11.8527 12.3436 11.7219 12.2318 11.5863 12.1261C11.5184 12.0734 11.4487 12.0229 11.3775 11.9749C11.3063 11.9269 11.233 11.8817 11.1572 11.8419L11.1592 11.8379C11.3154 11.9109 11.4626 12.0019 11.6019 12.1037C11.7407 12.2062 11.8731 12.3173 11.9984 12.4363C12.1237 12.5552 12.2447 12.6786 12.3612 12.8063C12.4779 12.9335 12.5913 13.0641 12.7043 13.1947ZM12.7043 13.1947C12.5913 13.064 12.4763 12.935 12.3596 12.8077C12.2424 12.6807 12.1221 12.5565 11.9964 12.4383C11.8705 12.3203 11.7391 12.2081 11.5998 12.1065C11.461 12.0041 11.3128 11.9155 11.1572 11.8419L11.1592 11.8379C11.2352 11.8779 11.3084 11.9235 11.3797 11.9715C11.4509 12.0195 11.5204 12.0705 11.5885 12.1231C11.7241 12.229 11.8549 12.3411 11.9804 12.4591C12.106 12.5768 12.2271 12.6993 12.3433 12.8265C12.4597 12.9536 12.5707 13.0857 12.6758 13.2225H12.6756L12.7043 13.1947Z" fill="#485654"/>
<path d="M12.8418 13.1016C12.805 13.1108 12.7699 13.1259 12.7377 13.1462C12.7331 13.1742 12.6991 13.2052 12.6668 13.2122L12.6549 13.197C12.6546 13.1964 12.654 13.1961 12.6534 13.1959C12.6528 13.1958 12.6521 13.1959 12.6516 13.1962C12.6477 13.1982 12.6439 13.2005 12.6403 13.203C12.6284 13.201 12.6138 13.207 12.6074 13.2224C12.5999 13.2418 12.6152 13.2674 12.6318 13.2842C12.65 13.2988 12.6591 13.3056 12.6803 13.3026C12.7018 13.298 12.7135 13.2782 12.7185 13.272C12.7921 13.362 12.8475 13.4106 12.9407 13.4848C12.9823 13.4852 13.0045 13.4588 12.9906 13.4288C12.9861 13.4188 12.974 13.412 12.9643 13.4156C12.9651 13.4126 12.9647 13.4096 12.9643 13.4066C13.013 13.3614 13.0336 13.305 12.9823 13.2092C12.9384 13.1286 12.8891 13.1012 12.842 13.1016H12.8418ZM12.9655 13.1922C12.974 13.207 12.9791 13.2198 12.9857 13.2332C13.015 13.2932 12.9896 13.3652 12.9395 13.3874C12.937 13.3874 12.9378 13.387 12.9352 13.3878C12.9435 13.374 12.919 13.3448 12.9063 13.355C12.9122 13.3398 12.893 13.3146 12.8774 13.321C12.8857 13.307 12.8669 13.283 12.8493 13.291C12.8584 13.2756 12.843 13.2536 12.8248 13.2576C12.8301 13.2412 12.8164 13.2224 12.798 13.2256C12.7994 13.2112 12.7949 13.2032 12.7879 13.1966C12.8099 13.1796 12.8345 13.1536 12.856 13.1418C12.9099 13.1182 12.9431 13.1632 12.9653 13.1922H12.9655Z" fill="#FAB81C" stroke="#6C301E" stroke-width="0.03"/>
<path d="M12.9883 13.2552C12.978 13.2502 12.9733 13.24 12.9767 13.2332C12.98 13.2262 12.9905 13.2244 13.0008 13.2296C13.0111 13.2346 13.0166 13.2444 13.0133 13.2514C13.0099 13.2582 12.9986 13.2604 12.9883 13.2554V13.2552Z" fill="#FAB81C" stroke="#6C301E" stroke-width="0.03"/>
<path d="M12.9825 13.2356C12.9722 13.2306 12.9674 13.2204 12.9708 13.2136C12.9742 13.2066 12.9847 13.2048 12.9949 13.21C13.0052 13.215 13.0108 13.2248 13.0074 13.2318C13.004 13.2386 12.9928 13.2408 12.9825 13.2358V13.2356Z" fill="#FAB81C" stroke="#6C301E" stroke-width="0.03"/>
<path d="M12.9698 13.2122C12.9595 13.2072 12.9547 13.197 12.9581 13.1902C12.9615 13.1832 12.972 13.1814 12.9822 13.1866C12.9925 13.1916 12.9981 13.2014 12.9947 13.2084C12.9914 13.2152 12.9801 13.2174 12.9698 13.2124V13.2122Z" fill="#FAB81C" stroke="#6C301E" stroke-width="0.03"/>
<path d="M12.9542 13.1927C12.9439 13.1877 12.9391 13.1775 12.9425 13.1707C12.9458 13.1637 12.9563 13.1619 12.9666 13.1671C12.9769 13.1721 12.9825 13.1819 12.9791 13.1889C12.9757 13.1957 12.9644 13.1977 12.9542 13.1929V13.1927Z" fill="#FAB81C" stroke="#6C301E" stroke-width="0.03"/>
<path d="M12.9336 13.1731C12.9234 13.1681 12.9186 13.1579 12.922 13.1511C12.9226 13.1501 12.9222 13.1483 12.9232 13.1487C12.9271 13.1507 12.9358 13.1525 12.935 13.1459C12.9336 13.1439 12.9321 13.1415 12.9336 13.1431C12.9364 13.1431 12.9427 13.1459 12.9461 13.1475C12.9564 13.1527 12.9619 13.1625 12.9586 13.1695C12.9552 13.1761 12.9439 13.1783 12.9336 13.1733V13.1731Z" fill="#FAB81C" stroke="#6C301E" stroke-width="0.03"/>
<path d="M12.7188 13.2713C12.7322 13.2359 12.7593 13.2031 12.788 13.1953L12.7188 13.2713ZM12.7233 13.2763C12.7482 13.2815 12.7886 13.2515 12.7985 13.2245L12.7233 13.2763ZM12.7469 13.3053C12.7797 13.3129 12.8122 13.2809 12.8246 13.2573L12.7469 13.3053ZM12.7763 13.3369C12.8151 13.3381 12.8389 13.3103 12.8504 13.2891L12.7763 13.3369ZM12.8062 13.3675C12.8391 13.3677 12.869 13.3403 12.8785 13.3191L12.8062 13.3675ZM12.8351 13.3955C12.8708 13.3941 12.8961 13.3775 12.9068 13.3541L12.8351 13.3955ZM12.8676 13.4239C12.9004 13.4259 12.927 13.4059 12.9357 13.3867L12.8676 13.4239ZM12.9028 13.4529C12.9357 13.4549 12.9563 13.4343 12.965 13.4149L12.9028 13.4529Z" fill="#FAB81C"/>
<path d="M12.7188 13.2717C12.7274 13.2461 12.7432 13.2236 12.7643 13.2069C12.7714 13.2017 12.7795 13.1975 12.788 13.1955C12.7797 13.1983 12.7722 13.2029 12.7651 13.2081C12.7581 13.2135 12.752 13.2197 12.7463 13.2265C12.735 13.2401 12.7257 13.2554 12.7188 13.2717ZM12.7233 13.2767C12.7312 13.2779 12.7391 13.2759 12.7467 13.2727C12.7614 13.2663 12.7745 13.2567 12.7853 13.2447C12.7906 13.2389 12.7953 13.2323 12.7987 13.2249C12.7961 13.2329 12.7916 13.2397 12.7864 13.2461C12.7758 13.2585 12.7623 13.2683 12.7473 13.2745C12.7397 13.2776 12.7313 13.2784 12.7233 13.2767ZM12.7469 13.3057C12.7548 13.3071 12.7631 13.3065 12.7706 13.3039C12.7783 13.3015 12.7854 13.2979 12.792 13.2931C12.805 13.2836 12.8161 13.2715 12.8246 13.2577C12.8172 13.2725 12.8063 13.2852 12.793 13.2949C12.7864 13.2995 12.7791 13.3035 12.7712 13.3055C12.7633 13.3077 12.7546 13.3081 12.7469 13.3057ZM12.7763 13.3373C12.7918 13.3372 12.8068 13.3324 12.8195 13.3235C12.8258 13.3193 12.8314 13.3139 12.8365 13.3083C12.8417 13.3023 12.8464 13.2963 12.8504 13.2895C12.8438 13.3035 12.8335 13.3163 12.8207 13.3253C12.8078 13.3345 12.7921 13.3387 12.7763 13.3373ZM12.8062 13.3679C12.8213 13.3668 12.8358 13.3615 12.848 13.3525C12.8604 13.3439 12.8708 13.3326 12.8785 13.3195C12.8757 13.3267 12.8713 13.3331 12.8664 13.3389C12.8564 13.3508 12.8434 13.3597 12.8288 13.3647C12.8215 13.3671 12.8138 13.3683 12.8062 13.3679ZM12.8351 13.3959C12.8423 13.3951 12.8496 13.3939 12.8565 13.3921C12.8704 13.3884 12.8832 13.3815 12.8939 13.3719C12.8991 13.3667 12.9034 13.3609 12.9068 13.3545C12.9042 13.3613 12.9 13.3675 12.8949 13.3731C12.8898 13.3784 12.8839 13.3829 12.8775 13.3863C12.8644 13.3931 12.8498 13.3963 12.8351 13.3959ZM12.8676 13.4243C12.8811 13.4241 12.8945 13.4208 12.9066 13.4147C12.9125 13.4117 12.9181 13.4077 12.9232 13.4031C12.9283 13.3985 12.9325 13.3931 12.9357 13.3871C12.9333 13.3935 12.9291 13.3993 12.9242 13.4043C12.9168 13.4116 12.9079 13.4172 12.8981 13.4206C12.8883 13.4241 12.8779 13.4253 12.8676 13.4243ZM12.9028 13.4533C12.9093 13.4533 12.9157 13.4525 12.9218 13.4509C12.9342 13.4476 12.9453 13.4407 12.9539 13.4311C12.9582 13.4265 12.9618 13.4211 12.965 13.4153C12.9603 13.4278 12.9517 13.4383 12.9404 13.4452C12.9291 13.4521 12.9159 13.4549 12.9028 13.4533Z" fill="#6C301E"/>
<path d="M10.699 10.7998C10.8417 10.7524 11.0697 10.4908 11.0846 10.4414C10.7758 10.5246 10.6341 10.7284 10.699 10.7998ZM13.5835 10.8938C13.5498 10.753 13.3207 10.5136 13.2753 10.4956C13.3302 10.7988 13.5112 10.9508 13.5835 10.8938Z" fill="#406325" stroke="#24420E" stroke-width="0.03"/>
<path d="M10.6994 10.7998C10.6337 10.7284 10.7746 10.5264 11.0822 10.4434C10.8653 10.6114 10.7022 10.767 10.6994 10.7998ZM13.5839 10.8938C13.5114 10.9518 13.3321 10.8008 13.2773 10.4984C13.4192 10.7198 13.5532 10.8886 13.5839 10.8938Z" fill="#67923D" stroke="#24420E" stroke-width="0.03"/>
<path d="M11.5497 12.3621C11.5497 12.3621 11.4278 12.3753 11.3937 12.2055C11.3571 12.0237 11.4986 12.0043 11.4986 12.0043C11.4986 12.0043 11.659 11.9887 11.7589 11.9863L11.8032 12.3453L11.5497 12.3621Z" fill="url(#paint0_radial_14099_117618)" stroke="#999270" stroke-width="0.03"/>
<path d="M11.5654 12.307C11.5654 12.307 11.4866 12.3222 11.4704 12.196C11.4587 12.1064 11.5135 12.0938 11.5135 12.0938L11.6962 12.125L11.6972 12.2898L11.5654 12.307Z" fill="url(#paint1_radial_14099_117618)" stroke="#999270" stroke-width="0.03"/>
<path d="M11.5137 12.0947C11.5137 12.0947 11.6304 12.0861 11.6916 12.0781L11.7169 12.1923L11.5764 12.2013C11.5764 12.2013 11.5667 12.0981 11.5137 12.0947Z" fill="url(#paint2_radial_14099_117618)" stroke="#999270" stroke-width="0.03"/>
<path d="M11.4893 12.0077C11.4893 12.0077 11.6393 11.9705 11.6579 12.1375C11.6626 12.1811 11.6393 12.2809 11.5657 12.3077L11.8404 12.2787L11.8154 11.9785L11.7228 11.9863C11.7228 11.9863 11.5265 11.9931 11.4893 12.0077Z" fill="url(#paint3_radial_14099_117618)" stroke="#999270" stroke-width="0.03"/>
<path d="M11.5491 12.3624C11.5501 12.3624 12.5763 12.2924 12.6816 12.297C12.9931 12.1242 12.68 11.4458 12.4174 11.0662C12.4475 10.9808 11.8266 10.7884 11.5458 10.8058C11.5105 10.8078 11.4765 10.8104 11.4436 10.8128C11.2913 10.8292 11.2899 11.0268 11.352 11.1514C11.4122 11.2722 11.9519 12.2538 11.5725 12.3576L11.5491 12.3624Z" fill="#F9F0AA" stroke="#999270" stroke-width="0.03"/>
<path d="M12.6494 11.4672C12.5826 11.3276 12.505 11.1935 12.4174 11.0662C12.4475 10.9808 11.8265 10.7884 11.5458 10.8058C11.5104 10.8078 11.4763 10.8104 11.4437 10.8128C11.2913 10.8292 11.2899 11.0268 11.3519 11.1514C11.3709 11.1894 11.437 11.3122 11.5072 11.466" fill="url(#paint4_linear_14099_117618)"/>
<path d="M12.6494 11.4672C12.5826 11.3276 12.505 11.1935 12.4174 11.0662C12.4475 10.9808 11.8265 10.7884 11.5458 10.8058C11.5104 10.8078 11.4763 10.8104 11.4437 10.8128C11.2913 10.8292 11.2899 11.0268 11.3519 11.1514C11.3709 11.1894 11.437 11.3122 11.5072 11.466" stroke="#999270" stroke-width="0.03"/>
<path d="M11.6056 11.6988C11.7155 11.9918 11.777 12.3012 11.5732 12.3568L11.5498 12.3616C11.5508 12.3616 12.577 12.2918 12.6823 12.2962C12.8513 12.2026 12.8367 11.9602 12.7456 11.6974" fill="url(#paint5_linear_14099_117618)"/>
<path d="M11.6056 11.6988C11.7155 11.9918 11.777 12.3012 11.5732 12.3568L11.5498 12.3616C11.5508 12.3616 12.577 12.2918 12.6823 12.2962C12.8513 12.2026 12.8367 11.9602 12.7456 11.6974" stroke="#999270" stroke-width="0.03"/>
<path d="M11.4544 10.8692C11.3811 10.8692 11.3621 10.9404 11.3633 10.9856C11.3659 11.1036 11.4544 11.1094 11.4544 11.1094L11.5723 11.1028L11.6289 10.8594L11.4544 10.8692Z" fill="url(#paint6_radial_14099_117618)" stroke="#999270" stroke-width="0.03"/>
<path d="M11.4541 10.8711L11.6287 10.8613L11.6467 11.0431L11.4943 11.0499C11.4943 11.0499 11.5438 10.9043 11.4541 10.8711Z" fill="url(#paint7_linear_14099_117618)" stroke="#999270" stroke-width="0.03"/>
<path d="M12.4182 11.0656C12.5506 11.0442 12.5488 10.8642 12.4583 10.7922C12.1516 10.7808 11.7478 10.7892 11.4563 10.8114C11.4893 10.8104 11.5816 10.8188 11.5919 10.9414C11.5938 10.9679 11.5892 10.9946 11.5787 11.0189C11.5681 11.0433 11.5519 11.0648 11.5313 11.0814C11.5091 11.0988 11.4822 11.1089 11.4541 11.1104C11.4589 11.1124 11.4969 11.1106 11.5254 11.1088C11.5398 11.1078 11.5756 11.1034 11.5857 11.1022C12.0015 11.047 12.4168 11.0656 12.4168 11.0656H12.4182Z" fill="url(#paint8_linear_14099_117618)" stroke="#999270" stroke-width="0.03"/>
<path d="M11.6734 11.3482C11.6706 11.3416 11.6671 11.3332 11.6589 11.3322C11.654 11.3322 11.6461 11.331 11.6477 11.3242C11.6524 11.322 11.6584 11.3234 11.6635 11.323C11.6746 11.323 11.6855 11.3206 11.6966 11.32C11.7033 11.322 11.7017 11.3308 11.6946 11.3292C11.6865 11.3312 11.691 11.3406 11.693 11.3454C11.7017 11.3662 11.7102 11.387 11.7193 11.4074C11.7217 11.4136 11.7268 11.419 11.7336 11.4196C11.7407 11.4204 11.7484 11.4206 11.7551 11.4174C11.7611 11.4134 11.7599 11.4048 11.7591 11.3986C11.7565 11.3914 11.7698 11.393 11.769 11.3994C11.7714 11.408 11.7743 11.4166 11.7777 11.4248C11.7773 11.4288 11.7722 11.4278 11.7694 11.4282C11.7496 11.4298 11.73 11.4308 11.7104 11.4326C11.7041 11.4324 11.6946 11.4382 11.6908 11.4306C11.6884 11.423 11.7009 11.4274 11.7027 11.4216C11.7027 11.415 11.6987 11.4092 11.6966 11.4032L11.6734 11.3482ZM11.769 11.3414C11.7662 11.335 11.7631 11.327 11.7553 11.3254C11.7506 11.325 11.7425 11.3252 11.7433 11.318C11.7462 11.3148 11.7522 11.3168 11.7565 11.316C11.7682 11.3166 11.7797 11.3144 11.7914 11.3132C11.7971 11.3128 11.7993 11.3236 11.7918 11.3222C11.7848 11.3224 11.7842 11.3302 11.7872 11.3352C11.7965 11.358 11.8062 11.3808 11.8157 11.4034C11.8177 11.4084 11.8204 11.4144 11.8264 11.4152C11.8313 11.4162 11.8392 11.4146 11.8402 11.4216C11.8394 11.4268 11.8317 11.4238 11.8278 11.4248C11.8175 11.4243 11.8072 11.4251 11.7971 11.4272C11.7925 11.4284 11.7862 11.4276 11.786 11.4218C11.787 11.4162 11.7975 11.4204 11.7979 11.4138C11.7973 11.4072 11.7939 11.4014 11.7916 11.3952L11.769 11.3414ZM11.8573 11.3556C11.859 11.3602 11.8652 11.3568 11.8689 11.3572C11.8741 11.3566 11.8796 11.3528 11.879 11.347C11.8782 11.338 11.8739 11.3288 11.8666 11.3232C11.8598 11.3184 11.8511 11.319 11.8434 11.32C11.843 11.3232 11.8454 11.326 11.8464 11.329L11.8573 11.3556ZM11.8705 11.3876C11.8737 11.3946 11.8761 11.4024 11.8816 11.4078C11.8866 11.4112 11.8929 11.4098 11.8984 11.4092C11.9044 11.4088 11.9079 11.4026 11.9059 11.397C11.9032 11.3842 11.8951 11.371 11.8814 11.3682C11.8755 11.3672 11.8693 11.367 11.8634 11.3682C11.863 11.3712 11.8652 11.3742 11.866 11.3768L11.8705 11.3876ZM11.8301 11.34C11.8272 11.3332 11.8242 11.3248 11.8167 11.3216C11.8117 11.32 11.8038 11.3222 11.8028 11.3152C11.804 11.3092 11.8139 11.3132 11.8187 11.312C11.8357 11.3114 11.8531 11.3066 11.8701 11.312C11.8846 11.3154 11.8976 11.328 11.8986 11.3436C11.8992 11.3512 11.8935 11.3572 11.8871 11.3604C11.8864 11.3576 11.8945 11.3616 11.897 11.362C11.9089 11.3658 11.9194 11.3736 11.9246 11.3848C11.9285 11.3928 11.9315 11.4034 11.9253 11.4112C11.9182 11.4192 11.9067 11.4194 11.8968 11.4198C11.882 11.4202 11.8672 11.4204 11.8523 11.4234C11.8472 11.4242 11.8434 11.4138 11.8507 11.4144C11.8581 11.414 11.8586 11.406 11.8555 11.401L11.8301 11.34ZM11.977 11.302C11.9835 11.301 11.9841 11.3084 11.9861 11.3126C11.9881 11.3184 11.9914 11.3234 11.993 11.3292C11.9875 11.3348 11.9831 11.3264 11.9806 11.322C11.9778 11.3172 11.973 11.3126 11.9669 11.313C11.959 11.313 11.9509 11.3134 11.9428 11.3144C11.94 11.3176 11.9441 11.3224 11.9451 11.326C11.9489 11.335 11.9523 11.344 11.9562 11.3528C11.9616 11.3524 11.9685 11.3532 11.9722 11.3488C11.9738 11.344 11.9669 11.3338 11.9764 11.3358C11.9823 11.3392 11.9816 11.3478 11.9847 11.3536C11.9871 11.3612 11.9922 11.368 11.9944 11.3758C11.9893 11.3816 11.9839 11.3732 11.9821 11.3686C11.9784 11.3616 11.9697 11.3626 11.9631 11.3626C11.9584 11.3616 11.9616 11.366 11.9624 11.3682C11.9665 11.3782 11.9699 11.3884 11.9754 11.3978C11.9794 11.4046 11.9883 11.4038 11.9952 11.4034C12.0015 11.403 12.0095 11.4028 12.0134 11.3966C12.0176 11.3916 12.0079 11.3816 12.016 11.38C12.0229 11.3794 12.0227 11.3876 12.0245 11.392C12.0259 11.3978 12.0281 11.4032 12.03 11.4086C12.0296 11.4126 12.0245 11.4114 12.0217 11.4118C12.0015 11.4132 11.9814 11.414 11.9612 11.4158C11.9552 11.4158 11.9453 11.4204 11.9434 11.4118C11.9437 11.4058 11.956 11.409 11.9542 11.4008C11.9529 11.3938 11.9493 11.3876 11.9469 11.3808C11.9394 11.363 11.9325 11.3448 11.9248 11.3272C11.922 11.3212 11.9174 11.3148 11.9103 11.3146C11.9056 11.3154 11.8984 11.312 11.901 11.3064C11.9079 11.305 11.9152 11.306 11.9222 11.3052L11.977 11.302ZM12.0227 11.3284C12.0197 11.3214 12.0168 11.313 12.0093 11.3098C12.0041 11.3082 11.995 11.31 11.9954 11.3018C12.0004 11.2982 12.0085 11.3012 12.0146 11.3002C12.0304 11.3 12.0467 11.2954 12.0623 11.3002C12.0785 11.3048 12.0924 11.3196 12.0934 11.337C12.094 11.3452 12.0874 11.352 12.0799 11.3542C12.074 11.3546 12.0845 11.3562 12.0859 11.3582C12.0985 11.3642 12.1072 11.3756 12.1138 11.3876C12.1153 11.3922 12.1241 11.4016 12.1254 11.3926C12.1248 11.3826 12.1381 11.391 12.1351 11.3978C12.1351 11.405 12.1282 11.4096 12.1217 11.4094C12.1124 11.4102 12.1039 11.4048 12.0991 11.397C12.0908 11.386 12.0851 11.3726 12.074 11.3638C12.0694 11.3604 12.0629 11.3584 12.0576 11.3608C12.0566 11.3636 12.0589 11.3664 12.0595 11.369C12.0633 11.3772 12.0657 11.386 12.0704 11.3934C12.0744 11.3996 12.0823 11.4006 12.089 11.4006C12.0961 11.4024 12.094 11.4122 12.0864 11.4092C12.075 11.4092 12.0633 11.4084 12.0518 11.4108C12.0465 11.4134 12.0346 11.411 12.0389 11.4034C12.0445 11.403 12.0522 11.4 12.0484 11.3928C12.0419 11.3754 12.0346 11.3582 12.0277 11.3408L12.0227 11.3284ZM12.0504 11.3464C12.0532 11.3528 12.0623 11.3492 12.0676 11.3484C12.0746 11.347 12.0744 11.3384 12.0722 11.333C12.069 11.3236 12.0649 11.3124 12.0544 11.309C12.0494 11.3084 12.0378 11.305 12.037 11.3122C12.0409 11.3228 12.0455 11.3332 12.0494 11.3438L12.0504 11.3462V11.3464ZM12.1933 11.3806C12.1953 11.3858 12.1975 11.3928 12.204 11.3938C12.209 11.3948 12.2171 11.3932 12.2181 11.4004C12.2173 11.4056 12.2096 11.4024 12.2056 11.4032C12.195 11.4025 12.1844 11.403 12.1739 11.4048C12.1692 11.4062 12.1628 11.4042 12.1634 11.3984C12.166 11.3944 12.1763 11.3978 12.1757 11.3904C12.1741 11.3824 12.1704 11.375 12.1676 11.3674L12.1448 11.3098C12.1429 11.3036 12.1359 11.3038 12.131 11.3042C12.1254 11.3042 12.1173 11.3054 12.1173 11.3124C12.1157 11.317 12.1217 11.3248 12.1165 11.3272C12.1106 11.3284 12.1094 11.3216 12.108 11.3172C12.106 11.311 12.1029 11.3052 12.1005 11.2988C12.1011 11.2946 12.1068 11.2954 12.1102 11.2948L12.1919 11.2916C12.1979 11.2906 12.2018 11.2954 12.2022 11.301C12.2042 11.3078 12.2076 11.3142 12.2103 11.3206C12.2082 11.3272 12.2004 11.3214 12.1995 11.3166C12.1955 11.3096 12.1894 11.3026 12.1809 11.3026C12.1757 11.3026 12.1682 11.3006 12.1646 11.3054C12.1648 11.3102 12.1676 11.3144 12.169 11.3188L12.1933 11.3806ZM12.2671 11.3624C12.2632 11.3624 12.2652 11.3672 12.2648 11.3698C12.265 11.3754 12.2644 11.3812 12.2654 11.3868C12.2679 11.3928 12.2759 11.3914 12.281 11.393C12.2856 11.3956 12.2844 11.403 12.2782 11.401C12.2699 11.4004 12.2614 11.3994 12.2531 11.4014C12.2481 11.4042 12.239 11.399 12.2434 11.3936C12.2474 11.393 12.2523 11.3916 12.2533 11.387C12.2547 11.3786 12.2539 11.3702 12.2541 11.3618L12.2545 11.2876C12.2569 11.282 12.2648 11.2866 12.2664 11.2908C12.2901 11.3212 12.3135 11.3518 12.3376 11.3816C12.3416 11.3862 12.3467 11.3896 12.3528 11.39C12.358 11.39 12.3608 11.4006 12.3534 11.3984C12.3431 11.3978 12.3331 11.3972 12.323 11.399C12.3184 11.399 12.3131 11.401 12.3091 11.3984C12.3044 11.395 12.3077 11.3898 12.3131 11.3904C12.32 11.3884 12.3131 11.3808 12.3107 11.3774C12.3069 11.3722 12.3032 11.367 12.299 11.3624C12.2956 11.3606 12.2917 11.3618 12.2881 11.3616L12.2671 11.3624ZM12.2903 11.3522C12.2941 11.3524 12.2893 11.349 12.2887 11.3474L12.2634 11.3142C12.2652 11.314 12.2638 11.3178 12.2642 11.3194V11.353L12.2903 11.3522ZM12.3509 11.3152C12.3479 11.3072 12.3439 11.2974 12.3346 11.2956C12.3299 11.2964 12.3208 11.292 12.3257 11.2868C12.3366 11.2868 12.3475 11.2874 12.3584 11.2864C12.3722 11.2852 12.3865 11.2856 12.3996 11.2904C12.4142 11.2952 12.4273 11.304 12.4375 11.3157C12.4476 11.3274 12.4545 11.3417 12.4573 11.357C12.4593 11.369 12.4558 11.383 12.4449 11.3898C12.4304 11.3992 12.4124 11.3974 12.396 11.3964C12.3867 11.396 12.3774 11.3972 12.3683 11.3982C12.3623 11.3974 12.3616 11.388 12.3687 11.389C12.376 11.389 12.376 11.3806 12.3732 11.3758L12.3509 11.3152ZM12.3899 11.3652C12.3928 11.3718 12.3946 11.3802 12.4009 11.3846C12.4069 11.3874 12.414 11.387 12.4203 11.3862C12.429 11.385 12.4346 11.3762 12.4346 11.368C12.4342 11.3529 12.4299 11.3382 12.4221 11.3254C12.4185 11.3183 12.4133 11.3122 12.407 11.3075C12.4007 11.3027 12.3934 11.2995 12.3857 11.298C12.3792 11.297 12.3724 11.296 12.3659 11.297C12.3645 11.2996 12.3671 11.3024 12.3679 11.305L12.3899 11.365V11.3652ZM11.9721 11.6134C11.9744 11.6204 11.9808 11.6254 11.9879 11.626C11.993 11.627 12.0017 11.6258 12.0021 11.6332C11.9994 11.6378 11.9916 11.6346 11.9869 11.6356C11.9766 11.6356 11.9663 11.6356 11.9562 11.6376C11.9507 11.6376 11.9449 11.64 11.9396 11.6384C11.9348 11.636 11.9356 11.629 11.9416 11.6298C11.9467 11.6288 11.9536 11.6272 11.954 11.621C11.9536 11.6152 11.9505 11.6102 11.9485 11.605L11.9257 11.55C11.924 11.5434 11.9168 11.5432 11.9117 11.5442C11.9067 11.5452 11.8994 11.5468 11.8982 11.5398C11.8988 11.534 11.9081 11.535 11.9121 11.532C11.9182 11.5296 11.9244 11.527 11.9307 11.525C11.935 11.524 11.937 11.528 11.9382 11.5314L11.9721 11.6134ZM11.9869 11.5232C12.0004 11.5226 12.014 11.5248 12.0275 11.5232C12.0334 11.5226 12.0294 11.5132 12.035 11.5138C12.0423 11.5142 12.0411 11.5234 12.0415 11.5286C12.0417 11.5301 12.0415 11.5317 12.0411 11.5331C12.0406 11.5346 12.0398 11.5359 12.0387 11.537C12.0376 11.5381 12.0364 11.539 12.0349 11.5395C12.0335 11.5401 12.032 11.5403 12.0304 11.5402C12.0197 11.5408 12.0093 11.5392 11.9988 11.5398C12.0011 11.5482 12.0045 11.556 12.0075 11.564C12.0081 11.5614 12.0166 11.561 12.0201 11.5604C12.0308 11.5599 12.0413 11.5626 12.0505 11.568C12.0597 11.5735 12.0671 11.5815 12.0718 11.5912C12.0762 11.6008 12.0783 11.6132 12.0714 11.6222C12.0635 11.6312 12.051 11.633 12.0397 11.6332C12.03 11.6332 12.0188 11.631 12.013 11.6222C12.0097 11.6178 12.0102 11.6086 12.0174 11.6094C12.0233 11.6094 12.0304 11.6146 12.0293 11.6214C12.0326 11.6258 12.0397 11.6242 12.0447 11.624C12.0506 11.624 12.0564 11.6192 12.056 11.613C12.056 11.6032 12.0524 11.5936 12.0471 11.5858C12.0411 11.5772 12.0316 11.5716 12.0213 11.5718C12.0154 11.5708 12.0104 11.5748 12.0049 11.5748C11.9992 11.574 11.9982 11.5674 11.9962 11.5632C11.9916 11.5512 11.9871 11.5392 11.9833 11.5268C11.9829 11.5248 11.9849 11.5228 11.9869 11.5232ZM12.1225 11.5436C12.1193 11.5356 12.1151 11.526 12.1058 11.5242C12.1011 11.5254 12.092 11.5208 12.0967 11.5156C12.1076 11.5152 12.1187 11.5156 12.1298 11.5142C12.1436 11.5126 12.1581 11.5128 12.1714 11.5178C12.201 11.5278 12.225 11.5542 12.2295 11.5856C12.2313 11.5972 12.2274 11.6104 12.2171 11.6168C12.2028 11.6262 12.1852 11.6248 12.169 11.6244C12.1601 11.6244 12.1512 11.6258 12.1425 11.627C12.1365 11.6262 12.1353 11.617 12.1425 11.6178C12.15 11.6172 12.1494 11.6088 12.1464 11.604L12.1225 11.5436ZM12.1626 11.5928C12.1658 11.5996 12.1678 11.6078 12.1743 11.6122C12.1803 11.615 12.1872 11.6142 12.1935 11.6132C12.2022 11.6118 12.2072 11.6028 12.207 11.5944C12.207 11.5792 12.2006 11.5648 12.1931 11.5518C12.1894 11.5448 12.1841 11.5388 12.1777 11.5342C12.1713 11.5296 12.164 11.5265 12.1563 11.5252C12.1499 11.524 12.1434 11.5238 12.1369 11.5248C12.1355 11.5274 12.1381 11.5302 12.1389 11.5328L12.1626 11.5928ZM12.2901 11.5076C12.2962 11.5066 12.297 11.5136 12.2988 11.5176C12.3008 11.5234 12.3036 11.5286 12.3055 11.5344C12.3018 11.5404 12.2956 11.5332 12.2939 11.5286C12.2911 11.5238 12.2869 11.5182 12.2806 11.5186C12.2725 11.518 12.2644 11.5186 12.2563 11.5192C12.2517 11.5212 12.2565 11.527 12.2572 11.5304C12.2608 11.5394 12.2642 11.5488 12.2679 11.5576C12.2733 11.5576 12.2794 11.5578 12.2838 11.5546C12.2873 11.5504 12.2784 11.5398 12.2879 11.541C12.2945 11.5434 12.2935 11.5524 12.2962 11.5578C12.2986 11.5658 12.3032 11.5726 12.3059 11.5806C12.3024 11.5872 12.2952 11.5794 12.2941 11.5746C12.2913 11.568 12.284 11.5672 12.2778 11.5674C12.2739 11.5668 12.2705 11.5676 12.2733 11.5718C12.2776 11.582 12.2808 11.5928 12.2863 11.6026C12.2903 11.6096 12.2992 11.6086 12.3061 11.6086C12.3125 11.6084 12.3206 11.6086 12.3245 11.6022C12.3285 11.5974 12.3206 11.589 12.3261 11.5862C12.3329 11.5842 12.3344 11.5916 12.3354 11.5964C12.337 11.6026 12.339 11.6084 12.3412 11.6144C12.3406 11.6184 12.3356 11.6172 12.3327 11.6176C12.3123 11.6184 12.2919 11.6188 12.2715 11.62C12.266 11.6198 12.2578 11.6242 12.2543 11.618C12.2507 11.61 12.2642 11.6142 12.2648 11.6074C12.2654 11.6014 12.2618 11.5958 12.2598 11.5902C12.2523 11.571 12.245 11.5514 12.2373 11.5322C12.2345 11.526 12.2301 11.519 12.2226 11.5186C12.2179 11.5194 12.2107 11.516 12.2135 11.5106C12.2206 11.5092 12.228 11.5104 12.2353 11.5098L12.2901 11.5076ZM11.7502 11.7932C11.7532 11.803 11.7634 11.807 11.7722 11.8096C11.7874 11.8148 11.8038 11.82 11.8147 11.8328C11.8206 11.8402 11.825 11.8498 11.8246 11.8596C11.8238 11.8696 11.8153 11.877 11.8062 11.8794C11.7949 11.883 11.7824 11.882 11.772 11.8774C11.7666 11.8752 11.7686 11.8868 11.7621 11.8828C11.7573 11.8792 11.7589 11.8716 11.7561 11.8666C11.7541 11.86 11.7514 11.8536 11.7486 11.8472C11.7488 11.8408 11.7581 11.8442 11.7585 11.8492C11.7648 11.8612 11.7767 11.8716 11.7908 11.8718C11.7979 11.8718 11.8066 11.8682 11.8072 11.86C11.8074 11.8494 11.7991 11.841 11.7902 11.8364C11.7775 11.8298 11.7629 11.8276 11.7506 11.8202C11.7451 11.8168 11.7405 11.8121 11.7372 11.8065C11.734 11.8008 11.7322 11.7945 11.732 11.788C11.7322 11.7792 11.7393 11.7724 11.7472 11.77C11.7571 11.7666 11.768 11.766 11.7781 11.7688C11.7828 11.7714 11.7848 11.7634 11.79 11.7674C11.7921 11.7714 11.7916 11.7766 11.7939 11.7808C11.7953 11.7866 11.7991 11.7916 11.8005 11.7972C11.7973 11.8022 11.7912 11.7976 11.7902 11.7932C11.7858 11.786 11.7799 11.7778 11.7708 11.7772C11.7638 11.7766 11.7551 11.7766 11.7508 11.783C11.7488 11.786 11.7488 11.79 11.7502 11.7932ZM11.8826 11.7602C11.8891 11.759 11.8893 11.7664 11.8909 11.7708C11.8925 11.7762 11.8949 11.7814 11.8966 11.7868C11.8939 11.7924 11.8867 11.7872 11.886 11.7826C11.8832 11.7774 11.8792 11.771 11.8727 11.7714C11.8646 11.7714 11.8565 11.772 11.8484 11.773C11.8438 11.775 11.8484 11.7808 11.8489 11.7844L11.8581 11.8116C11.8634 11.8112 11.8695 11.8114 11.8739 11.808C11.8778 11.804 11.8701 11.796 11.8767 11.794C11.8842 11.793 11.8836 11.8028 11.8854 11.8076C11.8873 11.8166 11.8919 11.8246 11.8945 11.8334C11.8917 11.8398 11.884 11.8336 11.8836 11.8284C11.8816 11.8218 11.8741 11.8204 11.8679 11.821C11.8646 11.821 11.8596 11.821 11.8626 11.8254C11.8662 11.8354 11.8689 11.8458 11.8735 11.8554C11.8759 11.8614 11.8824 11.8624 11.8879 11.862C11.8957 11.8614 11.9046 11.8622 11.9107 11.8564C11.9154 11.8516 11.9115 11.8446 11.9127 11.8394C11.9174 11.8354 11.923 11.8406 11.9226 11.8462C11.9238 11.853 11.9255 11.8598 11.9277 11.8666C11.9269 11.8706 11.9218 11.8694 11.919 11.87C11.8988 11.8716 11.8786 11.8726 11.8584 11.8746C11.8529 11.8742 11.845 11.8792 11.8416 11.8726C11.8385 11.8652 11.8505 11.8686 11.8521 11.8626C11.8539 11.8568 11.8501 11.8512 11.8487 11.8456C11.8422 11.826 11.8359 11.8064 11.829 11.7868C11.8266 11.7808 11.8224 11.7736 11.8151 11.7736C11.8104 11.7748 11.8032 11.771 11.8066 11.7656C11.8135 11.7642 11.8206 11.765 11.8278 11.7642L11.8826 11.7602ZM11.9653 11.843C11.9673 11.849 11.9707 11.8558 11.9774 11.857C11.9823 11.8588 11.9907 11.8556 11.9918 11.8628C11.9918 11.8692 11.9821 11.8658 11.978 11.8668C11.9677 11.8662 11.9576 11.8668 11.9477 11.8688C11.9434 11.8696 11.9368 11.871 11.9358 11.8652C11.9346 11.8584 11.9447 11.8622 11.9469 11.8572C11.9485 11.852 11.9457 11.8468 11.9443 11.8418C11.9376 11.8218 11.9313 11.8016 11.9244 11.7816C11.9222 11.7756 11.919 11.768 11.9119 11.7674C11.9073 11.7672 11.8994 11.7668 11.9008 11.76C11.9044 11.7568 11.9105 11.759 11.9149 11.7584C11.9295 11.7586 11.9436 11.7544 11.9582 11.7554C11.973 11.756 11.9875 11.7656 11.9924 11.78C11.9958 11.788 11.9968 11.7984 11.9909 11.8056C11.9831 11.8146 11.9707 11.8166 11.9596 11.818C11.9554 11.8174 11.9588 11.822 11.959 11.824L11.9653 11.843ZM11.954 11.8086C11.958 11.8092 11.9631 11.808 11.9673 11.807C11.9736 11.8056 11.9768 11.799 11.9752 11.793C11.974 11.7843 11.9703 11.7761 11.9645 11.7696C11.9586 11.7644 11.9497 11.7644 11.9424 11.7662C11.9398 11.7686 11.9424 11.7726 11.9432 11.7756L11.954 11.8086ZM12.0758 11.8372C12.0775 11.8422 12.0791 11.8494 12.0857 11.8502C12.0904 11.8514 12.0985 11.8496 12.0991 11.8566C12.0979 11.862 12.0904 11.859 12.0864 11.8598C12.0759 11.8592 12.0652 11.8599 12.0548 11.8618C12.0502 11.8636 12.0439 11.8616 12.0449 11.8558C12.0477 11.8514 12.0577 11.8548 12.0576 11.8474C12.0566 11.8396 12.0534 11.8324 12.051 11.8248L12.0322 11.7668C12.0308 11.7606 12.0237 11.7608 12.0188 11.7614C12.0138 11.7618 12.0065 11.7624 12.0051 11.7684C12.0035 11.7734 12.0059 11.779 12.0049 11.784C12.0002 11.7872 11.9956 11.782 11.9958 11.7774C11.9942 11.7704 11.9918 11.7638 11.9891 11.7574C11.9889 11.7526 11.995 11.753 11.9984 11.7526L12.0805 11.7476C12.0864 11.7466 12.0902 11.7514 12.09 11.757C12.0916 11.7638 12.0944 11.7702 12.0967 11.7766C12.0956 11.7822 12.0872 11.7792 12.0868 11.7742C12.0835 11.767 12.0781 11.7594 12.0696 11.759C12.0641 11.759 12.0572 11.7578 12.0526 11.7614C12.0516 11.7654 12.0542 11.7694 12.0552 11.7734L12.0758 11.8372ZM12.1173 11.7714C12.1153 11.7654 12.113 11.7574 12.106 11.7556C12.1013 11.7544 12.0932 11.7558 12.0936 11.7486C12.0956 11.7442 12.1019 11.7468 12.1056 11.7462C12.1175 11.7466 12.1294 11.745 12.1411 11.7438C12.1462 11.7414 12.1506 11.7522 12.144 11.7522C12.1391 11.7522 12.1332 11.756 12.1353 11.7616C12.1379 11.7722 12.1417 11.7826 12.1448 11.793C12.1496 11.8076 12.1541 11.8224 12.1591 11.837C12.1605 11.8416 12.164 11.8456 12.169 11.8458C12.1737 11.8458 12.182 11.8466 12.1807 11.8534C12.1771 11.8566 12.1712 11.8546 12.1666 11.855C12.1559 11.8542 12.1454 11.856 12.1349 11.8572C12.1302 11.8592 12.1243 11.8546 12.127 11.8498C12.131 11.8478 12.1399 11.8488 12.1393 11.842C12.1377 11.834 12.1345 11.826 12.1322 11.818L12.1173 11.7714ZM12.2313 11.7394C12.2377 11.7382 12.2379 11.7454 12.2392 11.7498C12.2408 11.7552 12.2432 11.7606 12.2448 11.766C12.242 11.7718 12.2349 11.7664 12.2343 11.7616C12.2317 11.7564 12.2278 11.7502 12.221 11.7504C12.2131 11.7502 12.2048 11.7508 12.1967 11.7514C12.1921 11.7534 12.1965 11.7594 12.1971 11.7628C12.1999 11.7718 12.2026 11.781 12.2058 11.79C12.2111 11.7898 12.2173 11.79 12.2216 11.7868C12.2256 11.7828 12.2181 11.7746 12.2248 11.7728C12.2321 11.7722 12.2315 11.7818 12.2331 11.7868C12.2349 11.7958 12.2394 11.8038 12.2418 11.8126C12.2396 11.8184 12.2315 11.8134 12.2315 11.8082C12.2295 11.8018 12.223 11.7992 12.2169 11.7998C12.2139 11.8002 12.207 11.7984 12.2097 11.8032C12.2131 11.8136 12.2157 11.8242 12.2202 11.8342C12.2226 11.8398 12.2291 11.8412 12.2347 11.8408C12.2426 11.8404 12.2515 11.8414 12.2576 11.8356C12.2626 11.8312 12.2586 11.824 12.2598 11.8188C12.265 11.8148 12.2703 11.8202 12.2697 11.8258C12.2709 11.8326 12.2727 11.8394 12.2747 11.8462C12.2737 11.8502 12.2691 11.849 12.2662 11.8494C12.2458 11.8504 12.2252 11.8514 12.2048 11.8528C12.1995 11.8524 12.1921 11.8568 12.1884 11.8514C12.184 11.8436 12.1959 11.8464 12.1983 11.8418C12.201 11.8364 12.1975 11.8308 12.1963 11.8256L12.1773 11.7656C12.1749 11.7594 12.171 11.7516 12.1634 11.7516C12.1585 11.7526 12.1516 11.7486 12.1549 11.7434C12.1617 11.742 12.1688 11.743 12.1757 11.7424L12.2313 11.7394ZM12.2709 11.7586C12.2695 11.7514 12.2642 11.745 12.2565 11.7462C12.2489 11.7482 12.2466 11.7348 12.2557 11.7376C12.2658 11.7376 12.2761 11.736 12.2859 11.7382C12.2909 11.7436 12.2947 11.7498 12.299 11.7554L12.342 11.8134C12.339 11.8142 12.3414 11.8098 12.341 11.8074L12.3481 11.7366C12.3534 11.7322 12.3625 11.734 12.3693 11.7326C12.375 11.7318 12.3877 11.73 12.3841 11.7396C12.3774 11.7408 12.3689 11.744 12.3734 11.7526C12.3806 11.7766 12.3881 11.8004 12.3956 11.8242C12.397 11.8324 12.4053 11.835 12.4126 11.8346C12.4187 11.835 12.4191 11.846 12.4116 11.8432C12.3997 11.8432 12.3879 11.8424 12.3764 11.8446C12.3711 11.8464 12.3602 11.8458 12.3637 11.8374C12.3697 11.8364 12.3796 11.8346 12.3752 11.826C12.3691 11.8048 12.3623 11.7838 12.3558 11.7626C12.3572 11.7646 12.3556 11.7676 12.3558 11.7702C12.3538 11.79 12.3513 11.8096 12.3499 11.8296C12.3491 11.8348 12.3509 11.841 12.3485 11.8456C12.3437 11.8476 12.3408 11.8432 12.3386 11.84L12.282 11.766C12.284 11.7652 12.2838 11.77 12.2848 11.772C12.2907 11.791 12.2964 11.8104 12.3028 11.8294C12.3047 11.8372 12.3127 11.8394 12.3196 11.8394C12.3271 11.8434 12.3216 11.8504 12.315 11.8476C12.3051 11.8462 12.2953 11.8482 12.2854 11.8492C12.2794 11.8492 12.279 11.8392 12.2859 11.8404C12.2953 11.8404 12.2925 11.8298 12.2903 11.8244L12.2701 11.7588L12.2709 11.7586ZM12.4439 11.7756C12.4451 11.78 12.451 11.777 12.4544 11.7776C12.4599 11.7772 12.4666 11.774 12.4668 11.7676C12.467 11.7588 12.4637 11.7496 12.4569 11.7438C12.4504 11.7388 12.4417 11.7392 12.434 11.7398C12.4332 11.7428 12.4352 11.746 12.436 11.749L12.4439 11.7756ZM12.4536 11.8076C12.456 11.8146 12.4573 11.8224 12.4625 11.828C12.4672 11.8316 12.4736 11.83 12.4791 11.8298C12.4843 11.8294 12.4888 11.8252 12.4882 11.8198C12.4876 11.8078 12.4821 11.7946 12.4704 11.7898C12.4636 11.7876 12.4563 11.7869 12.4492 11.788C12.4469 11.79 12.4498 11.794 12.4502 11.7966L12.4536 11.8076ZM12.4184 11.7596C12.4162 11.7526 12.414 11.7442 12.4069 11.7408C12.4023 11.739 12.3942 11.7412 12.3938 11.734C12.3954 11.7284 12.4045 11.7326 12.4091 11.7314C12.4267 11.7314 12.4447 11.7268 12.4617 11.7326C12.4756 11.7362 12.487 11.749 12.487 11.7638C12.487 11.7718 12.4805 11.778 12.4734 11.781C12.473 11.7784 12.4805 11.7824 12.4833 11.783C12.4938 11.7868 12.5035 11.794 12.5076 11.805C12.511 11.813 12.5132 11.8238 12.5068 11.8314C12.4997 11.8394 12.488 11.84 12.4781 11.8402C12.4623 11.8402 12.4467 11.84 12.4312 11.8426C12.4255 11.8432 12.4233 11.8326 12.4304 11.8336C12.4376 11.8336 12.4395 11.826 12.4368 11.8204L12.4184 11.7596ZM12.5175 11.756C12.5153 11.749 12.5132 11.7406 12.506 11.7372C12.5013 11.7354 12.4924 11.7376 12.493 11.7298C12.4967 11.7248 12.5058 11.729 12.5118 11.7278C12.5252 11.7278 12.5387 11.7252 12.5521 11.7268C12.5678 11.7288 12.5826 11.7398 12.5866 11.7558C12.5894 11.7642 12.5876 11.7748 12.5795 11.7796C12.5777 11.7816 12.5692 11.7836 12.5706 11.7834C12.5824 11.7882 12.5927 11.7972 12.5985 11.8088C12.6016 11.814 12.6034 11.8204 12.6078 11.8248C12.6131 11.8288 12.6137 11.8214 12.6145 11.8182C12.6214 11.8146 12.625 11.8246 12.6222 11.8298C12.6192 11.8382 12.6087 11.8398 12.6012 11.8378C12.5945 11.8364 12.5894 11.831 12.5862 11.825C12.5795 11.8142 12.5753 11.8016 12.5658 11.7928C12.5614 11.7888 12.5547 11.7866 12.549 11.7888C12.5476 11.7916 12.5498 11.7946 12.5502 11.7974C12.5527 11.8054 12.5543 11.8134 12.5579 11.8208C12.5611 11.8274 12.5686 11.829 12.5751 11.829C12.5814 11.829 12.582 11.8402 12.5745 11.8376C12.5626 11.8376 12.5504 11.8362 12.5383 11.8382C12.5339 11.8382 12.5278 11.841 12.525 11.8362C12.5207 11.8278 12.5331 11.8318 12.5359 11.827C12.5379 11.8214 12.5347 11.8158 12.5335 11.8102L12.5175 11.756ZM12.5434 11.7744C12.5454 11.7808 12.5545 11.7774 12.5593 11.7772C12.5652 11.7766 12.5686 11.7708 12.5672 11.7652C12.5658 11.7562 12.5634 11.7464 12.5565 11.7402C12.5506 11.7356 12.5422 11.7356 12.5351 11.737C12.532 11.7394 12.5349 11.7438 12.5355 11.747L12.5434 11.7744ZM12.6798 11.7236C12.6859 11.7226 12.6863 11.7296 12.6873 11.7338C12.6889 11.7394 12.6913 11.7448 12.6925 11.7504C12.6899 11.7556 12.6828 11.751 12.6824 11.7464C12.6798 11.7412 12.6764 11.7344 12.6699 11.7344C12.6615 11.7338 12.653 11.7338 12.6446 11.7344C12.6398 11.736 12.644 11.742 12.6444 11.7456C12.6469 11.7546 12.6493 11.7638 12.6523 11.7728C12.6572 11.7728 12.6628 11.7728 12.6675 11.7708C12.6733 11.7676 12.6656 11.7588 12.6715 11.7568C12.6786 11.755 12.6786 11.7646 12.6798 11.7694C12.681 11.7788 12.6857 11.7874 12.6877 11.7964C12.6853 11.802 12.6774 11.7968 12.6774 11.7918C12.6758 11.7858 12.6701 11.7826 12.6644 11.783C12.6614 11.7834 12.6533 11.7806 12.6557 11.7856C12.6588 11.7962 12.661 11.807 12.6654 11.817C12.6673 11.823 12.6741 11.8242 12.6796 11.8242C12.6875 11.824 12.6964 11.8254 12.703 11.8198C12.7081 11.8154 12.7043 11.8082 12.7057 11.803C12.7109 11.7994 12.7162 11.805 12.7154 11.8104C12.7164 11.8172 12.7178 11.824 12.7196 11.8308C12.7186 11.8348 12.7136 11.8332 12.7107 11.8336C12.6901 11.834 12.6697 11.8342 12.6491 11.835C12.6438 11.8344 12.6373 11.838 12.6329 11.8338C12.6278 11.8262 12.6388 11.8278 12.6422 11.8244C12.6462 11.82 12.643 11.8144 12.6418 11.8094C12.6359 11.7888 12.6303 11.7682 12.6242 11.7478C12.6222 11.7418 12.6188 11.7342 12.6117 11.7334C12.607 11.7336 12.5996 11.7314 12.602 11.7254C12.608 11.7234 12.6151 11.7254 12.6214 11.7246L12.6798 11.7236ZM12.0302 11.9862C12.0283 11.9788 12.0259 11.9692 12.0176 11.9672C12.0128 11.9672 12.0047 11.966 12.0077 11.9592C12.0136 11.9568 12.0209 11.9588 12.0275 11.9578C12.0437 11.957 12.0601 11.953 12.0762 11.9574C12.088 11.9601 12.099 11.9658 12.108 11.9741C12.117 11.9824 12.1237 11.9929 12.1274 12.0046C12.1318 12.0192 12.1326 12.0366 12.1229 12.0494C12.1126 12.0628 12.0948 12.0664 12.0789 12.0666C12.0669 12.0666 12.0546 12.0666 12.0425 12.069C12.0378 12.0718 12.03 12.067 12.0342 12.0618C12.0391 12.0604 12.0475 12.0588 12.0459 12.0514C12.0439 12.0412 12.0409 12.0312 12.0387 12.021L12.0302 11.9862ZM12.0627 12.035C12.0647 12.0414 12.0655 12.049 12.0706 12.0538C12.0762 12.0572 12.0829 12.0558 12.0888 12.0554C12.0981 12.054 12.1051 12.0458 12.1066 12.0366C12.1084 12.0213 12.1057 12.0059 12.0989 11.9922C12.0938 11.9802 12.0831 11.9706 12.0704 11.9678C12.0629 11.966 12.0551 11.9657 12.0475 11.967C12.0459 11.9694 12.0479 11.9724 12.0482 11.975L12.0627 12.035ZM12.2024 11.9464C12.2088 11.9452 12.2086 11.9524 12.2096 11.9566C12.2107 11.9622 12.2127 11.9674 12.2139 11.973C12.2113 11.9782 12.204 11.9742 12.204 11.9692C12.2016 11.9642 12.1987 11.9576 12.1921 11.9576C12.1838 11.9572 12.1753 11.958 12.167 11.9588C12.1622 11.9604 12.166 11.9664 12.1662 11.9702C12.1686 11.9792 12.1704 11.9882 12.1729 11.9972C12.1783 11.997 12.1844 11.9972 12.1892 11.9938C12.1933 11.99 12.1866 11.9816 12.1931 11.98C12.2006 11.9792 12.1991 11.989 12.2004 11.9938C12.2014 12.0026 12.2054 12.0108 12.2072 12.0196C12.2048 12.0252 12.1967 12.0206 12.1973 12.0154C12.1957 12.0088 12.1892 12.0062 12.1832 12.007C12.1803 12.0074 12.1733 12.0056 12.1759 12.0104C12.1785 12.0208 12.1803 12.0314 12.1838 12.0414C12.1858 12.0474 12.1925 12.0484 12.1977 12.048C12.206 12.0476 12.2155 12.0484 12.2218 12.042C12.2268 12.0374 12.2222 12.0298 12.2252 12.0252C12.2311 12.0218 12.2349 12.028 12.2341 12.0332C12.2347 12.04 12.2359 12.0464 12.2373 12.053C12.2361 12.057 12.2313 12.0558 12.228 12.0562C12.2078 12.0576 12.1874 12.0586 12.1672 12.0602C12.1621 12.06 12.1561 12.0632 12.1518 12.0604C12.1466 12.055 12.1537 12.0524 12.1581 12.0516C12.164 12.0496 12.1632 12.0428 12.1619 12.038C12.1565 12.0164 12.1518 11.9948 12.1462 11.9732C12.1446 11.9672 12.1417 11.9598 12.1343 11.9592C12.1298 11.9598 12.1225 11.9576 12.1252 11.9514C12.1312 11.949 12.1381 11.9508 12.1444 11.95L12.2024 11.9464ZM12.3309 12.0284C12.3317 12.0344 12.3364 12.0398 12.3427 12.0408C12.3473 12.0428 12.3546 12.04 12.3572 12.0456C12.3592 12.0526 12.3495 12.0504 12.3453 12.0506C12.3342 12.0506 12.3228 12.0502 12.3117 12.052C12.3057 12.0524 12.3002 12.054 12.2945 12.0534C12.2891 12.051 12.2915 12.0434 12.2974 12.0444C12.3028 12.0432 12.3099 12.0418 12.3113 12.0356C12.3121 12.0302 12.3099 12.025 12.3089 12.0198L12.2962 11.9646C12.2956 11.958 12.2885 11.9578 12.2836 11.9586C12.2792 11.9588 12.2721 11.962 12.2705 11.9554C12.2699 11.9486 12.2798 11.95 12.2838 11.9474C12.2911 11.9448 12.2984 11.9418 12.3057 11.9398C12.3099 11.9388 12.3117 11.9428 12.3121 11.9462L12.3309 12.0284ZM12.4039 11.962C12.4025 11.9548 12.3984 11.9462 12.3902 11.9452C12.3843 11.9442 12.377 11.9458 12.3748 11.952C12.3728 11.9596 12.3756 11.9682 12.3821 11.9726C12.3877 11.9766 12.394 11.9786 12.3999 11.9816C12.4011 11.9792 12.4047 11.9746 12.4045 11.9704C12.4049 11.9676 12.4045 11.9646 12.4039 11.962ZM12.4205 12.02C12.4186 12.01 12.4092 12.0044 12.4007 12.0008C12.3972 12.0002 12.392 11.9954 12.3897 11.9974C12.3837 12.0028 12.3806 12.0116 12.3833 12.0194C12.3857 12.0292 12.3928 12.0388 12.4031 12.0394C12.41 12.0404 12.4184 12.0374 12.4203 12.03C12.4212 12.0267 12.4212 12.0232 12.4203 12.02H12.4205ZM12.4381 12.0156C12.4394 12.0203 12.4392 12.0254 12.4376 12.0301C12.4359 12.0347 12.4329 12.0387 12.4288 12.0416C12.4229 12.0453 12.4163 12.0476 12.4094 12.0485C12.4025 12.0493 12.3955 12.0486 12.3889 12.0464C12.383 12.0447 12.3777 12.0414 12.3735 12.0369C12.3694 12.0324 12.3665 12.0268 12.3653 12.0208C12.3629 12.011 12.3669 12 12.3756 11.9946C12.3776 11.9926 12.3853 11.9918 12.379 11.9902C12.3691 11.9854 12.3594 11.9774 12.3574 11.9658C12.355 11.956 12.3594 11.9452 12.3683 11.9404C12.3853 11.931 12.4096 11.9364 12.4195 11.9538C12.4237 11.9612 12.4245 11.971 12.4195 11.9782C12.4166 11.9822 12.413 11.9862 12.4083 11.9872C12.418 11.9892 12.4267 11.9952 12.4324 12.003C12.4352 12.0068 12.4372 12.011 12.4381 12.0156ZM12.5027 12.0268C12.5074 12.0268 12.5126 12.024 12.5134 12.0188C12.5151 12.015 12.5118 12.0068 12.5185 12.0072C12.5244 12.0076 12.5238 12.0146 12.5244 12.0192C12.525 12.0272 12.5244 12.0366 12.5177 12.0418C12.5128 12.045 12.5066 12.0438 12.5011 12.0438C12.49 12.0434 12.4789 12.041 12.4678 12.0424C12.4631 12.0428 12.4579 12.048 12.4536 12.0444C12.4498 12.0398 12.4522 12.034 12.4536 12.029C12.4575 12.0168 12.4659 12.0066 12.4754 11.9982C12.4819 11.9922 12.4892 11.9852 12.4904 11.9756C12.4912 11.9674 12.4888 11.9588 12.4845 11.9518C12.4789 11.9428 12.4659 11.9398 12.4567 11.9454C12.4524 11.9484 12.4488 11.9554 12.4524 11.9604C12.4566 11.9636 12.4643 11.9606 12.4662 11.9674C12.4688 11.972 12.4663 11.9794 12.4603 11.9794C12.4516 11.9806 12.4437 11.9738 12.4415 11.9654C12.4398 11.9603 12.4399 11.9547 12.4417 11.9496C12.4434 11.9446 12.4469 11.9402 12.4514 11.9374C12.4613 11.9314 12.4738 11.9314 12.4847 11.934C12.4959 11.9368 12.5052 11.9456 12.5088 11.9568C12.5118 11.9654 12.512 11.9754 12.5072 11.9836C12.4997 11.998 12.4845 12.005 12.4744 12.017C12.4716 12.0202 12.4694 12.0246 12.4706 12.0288C12.4722 12.0248 12.4785 12.0262 12.4821 12.0254C12.489 12.0252 12.4959 12.027 12.5027 12.0268ZM12.5806 12.0184C12.5814 12.0246 12.586 12.03 12.5921 12.031C12.5967 12.033 12.6034 12.0308 12.6064 12.0356C12.6091 12.0424 12.5998 12.0412 12.5957 12.041C12.584 12.0406 12.5723 12.04 12.5607 12.0414C12.5549 12.0418 12.5492 12.0432 12.5436 12.0424C12.5381 12.0398 12.5411 12.0324 12.5468 12.0336C12.5521 12.0326 12.5593 12.0314 12.5611 12.0252C12.5616 12.0198 12.5597 12.0146 12.5589 12.0094L12.5474 11.954C12.547 11.9484 12.5411 11.9472 12.5365 11.948C12.5318 11.9474 12.5254 11.9512 12.5225 11.946C12.5189 11.939 12.5292 11.939 12.5333 11.9372C12.5413 11.9348 12.5492 11.9316 12.5575 11.9296C12.5616 11.9286 12.5634 11.9326 12.5636 11.936L12.5806 12.0184Z" fill="#B07E09"/>
<path d="M12.0163 10.3888L11.9417 10.4784C11.918 10.5832 11.9769 10.6622 12.0931 10.7308C12.1871 10.7898 12.3613 10.8046 12.4163 10.7568L12.1448 10.4956L12.0163 10.3888Z" fill="url(#paint9_radial_14099_117618)" stroke="#4C0505" stroke-width="0.03"/>
<path d="M12.5657 13.086C12.5524 13.0698 12.5389 13.0536 12.5253 13.0376C12.3561 13.2636 12.1445 13.466 11.8799 13.609C12.1781 13.5236 12.3735 13.3038 12.5657 13.086ZM12.2601 13.8002C12.3654 13.5848 12.4922 13.3694 12.6203 13.1538C12.6064 13.1362 12.5922 13.1186 12.5779 13.1012C12.4325 13.3448 12.2617 13.6348 12.2601 13.8002ZM13.086 11.5102C13.0666 11.4252 13.0411 11.3334 13.0009 11.2492C12.948 11.1404 12.8697 11.0324 12.7665 10.9132C12.5809 10.7096 12.3951 10.5132 12.1346 10.368L12.136 10.3652L12.1376 10.3662H12.1407L12.1376 10.3622H12.1469L12.1419 10.357H12.1504L12.1435 10.349H12.1526L12.1463 10.3424H12.156L12.1504 10.3352L12.1584 10.3358L12.151 10.328L12.1619 10.326L12.153 10.3204L12.1625 10.3184L12.1546 10.313L12.1663 10.3092L12.156 10.3032L12.1688 10.2972L12.1564 10.2882L12.1696 10.2836L12.1552 10.2776L12.1675 10.2714L12.153 10.2688L12.1629 10.2574L12.149 10.2582L12.1552 10.2462L12.1419 10.2472L12.1411 10.2462L12.1485 10.2372L12.135 10.2396L12.1409 10.2274L12.1281 10.2338L12.1316 10.2198L12.1194 10.2284L12.1213 10.214L12.1097 10.224L12.1109 10.21L12.101 10.2208L12.1017 10.2064L12.0919 10.2184L12.0907 10.2044L12.0827 10.2154L12.0788 10.202L12.0721 10.2154L12.0687 10.2012L12.0624 10.2154L12.0594 10.2012L12.054 10.2154L12.0501 10.202L12.0457 10.2154L12.0426 10.2034L12.0378 10.2178L12.0333 10.2044L12.0285 10.2198L12.0228 10.206L12.0202 10.2224L12.0133 10.209L12.0125 10.225L12.005 10.213L12.0044 10.2286L11.9965 10.2172L11.997 10.2312L11.9883 10.2238L11.9927 10.2386L11.9822 10.2326L11.9862 10.2456L11.9777 10.2408L11.9806 10.2534L11.9727 10.2508L11.9769 10.2602L11.9763 10.2616L11.9703 10.2604L11.9737 10.2676C11.9668 10.2903 11.9645 10.3143 11.9668 10.338C11.9672 10.3426 11.9786 10.3472 11.9804 10.35C11.986 10.3588 11.985 10.3634 11.985 10.3634C11.9533 10.415 11.9252 10.4548 11.922 10.514C11.9474 10.4816 11.9735 10.442 12.0103 10.442C11.9921 10.4728 11.9836 10.5654 12.004 10.5796L12.0192 10.5524C12.0198 10.574 12.0228 10.5884 12.0269 10.599C12.0333 10.586 12.0396 10.5734 12.0459 10.564C12.0473 10.5942 12.0513 10.6184 12.0598 10.6304C12.0683 10.6156 12.0798 10.6064 12.0919 10.599C12.0879 10.6162 12.0816 10.6324 12.0841 10.653C12.097 10.631 12.1099 10.618 12.1225 10.6028C12.115 10.6344 12.1217 10.6582 12.1306 10.6932C12.1386 10.6516 12.1417 10.6472 12.1607 10.6298C12.1627 10.6678 12.1556 10.7024 12.1635 10.7238C12.1809 10.6902 12.1924 10.695 12.2027 10.6732C12.2007 10.7048 12.1946 10.7392 12.2025 10.7672C12.2081 10.7451 12.2218 10.726 12.2409 10.7138C12.2421 10.7578 12.2522 10.7506 12.225 10.7878C12.2365 10.7932 12.2753 10.7804 12.2963 10.7712C12.2864 10.7948 12.2894 10.8132 12.2791 10.83C12.3005 10.8192 12.3187 10.8016 12.3365 10.7836C12.3282 10.8106 12.3064 10.8376 12.3173 10.8646C12.3222 10.8394 12.3426 10.8186 12.3616 10.8148C12.3586 10.8288 12.3567 10.8582 12.3365 10.8724C12.3848 10.8774 12.4038 10.8444 12.4283 10.8184C12.4251 10.8456 12.4259 10.8672 12.459 10.9054C12.4523 10.8568 12.4637 10.8668 12.4855 10.8376C12.4962 10.8806 12.5083 10.9262 12.5526 10.958C12.5342 10.9126 12.5308 10.8892 12.5411 10.8606C12.5469 10.8902 12.5746 10.9256 12.5811 10.9536C12.5851 10.9226 12.5898 10.8926 12.6001 10.8724C12.613 10.9076 12.6239 10.9438 12.627 10.9844C12.6365 10.9644 12.6444 10.9438 12.65 10.9228C13.0405 11.3352 13.1275 11.8596 12.6995 12.4136C12.8534 12.3086 12.893 12.1422 12.9785 12.0002C12.8952 12.1862 12.858 12.395 12.7111 12.5488C12.8534 12.4248 12.8835 12.311 12.969 12.1914C12.878 12.4414 12.7517 12.7154 12.5767 12.9664C12.6078 13.0004 12.6389 13.0352 12.6702 13.07L12.7513 12.9332C12.9368 12.6244 13.2392 12.1832 13.086 11.5102Z" fill="#448127" stroke="#34541F" stroke-width="0.03"/>
<path d="M11.9636 10.3066C11.9438 10.3112 11.9359 10.3194 11.9219 10.3354C11.9401 10.3394 11.9555 10.3404 11.9718 10.3408C11.9769 10.3402 11.9785 10.3338 11.9775 10.329L11.9749 10.31C11.9745 10.3056 11.963 10.306 11.9577 10.3082L11.9636 10.3066Z" fill="#EAC102" stroke="#A08307" stroke-width="0.03"/>
<path d="M11.9219 10.334C11.9355 10.3292 11.9497 10.3259 11.964 10.3242C11.9504 10.3291 11.9362 10.3323 11.9219 10.334Z" fill="#A08307"/>
<path d="M12.0535 10.3254C12.062 10.3254 12.069 10.3181 12.069 10.3092C12.069 10.3002 12.062 10.293 12.0535 10.293C12.045 10.293 12.0381 10.3002 12.0381 10.3092C12.0381 10.3181 12.045 10.3254 12.0535 10.3254Z" fill="black" stroke="black" stroke-width="0.03"/>
<path d="M12.0575 10.3128C12.0612 10.3128 12.0642 10.3097 12.0642 10.3058C12.0642 10.302 12.0612 10.2988 12.0575 10.2988C12.0538 10.2988 12.0508 10.302 12.0508 10.3058C12.0508 10.3097 12.0538 10.3128 12.0575 10.3128Z" fill="url(#paint10_radial_14099_117618)"/>
<path d="M12.2615 13.7944C12.2801 13.7347 12.302 13.676 12.3271 13.6186C12.352 13.5614 12.3797 13.5052 12.409 13.45C12.4531 13.3673 12.5 13.2862 12.5497 13.2068L12.5994 13.1274L12.5515 13.208L12.504 13.2886C12.4727 13.3426 12.4418 13.3968 12.4128 13.452C12.3832 13.5071 12.3556 13.5631 12.33 13.62C12.3045 13.677 12.2816 13.7352 12.2615 13.7944ZM11.8887 13.6052C12.0859 13.5171 12.2619 13.387 12.4048 13.2238C12.4526 13.1699 12.4985 13.1143 12.5424 13.057C12.5001 13.1156 12.455 13.172 12.4072 13.226C12.3596 13.2803 12.3084 13.3313 12.254 13.3786C12.1446 13.4729 12.0214 13.5493 11.8887 13.6052ZM12.6265 13.0184C12.6561 12.9749 12.6845 12.9305 12.7116 12.8852C12.7387 12.84 12.7648 12.7942 12.79 12.748C12.8153 12.7017 12.84 12.6551 12.8642 12.6082L12.937 12.4676L12.9024 12.539L12.8672 12.6098C12.8434 12.6568 12.8189 12.7038 12.7937 12.75C12.7682 12.7962 12.7423 12.842 12.7146 12.887C12.6871 12.9321 12.6577 12.9759 12.6265 13.0184ZM12.7431 12.5162C12.8106 12.4348 12.8672 12.3447 12.9113 12.2482C12.955 12.1518 12.988 12.0508 13.0099 11.947L13.018 11.908C13.0245 11.8689 13.0291 11.8295 13.0318 11.7898C13.0352 11.7368 13.0352 11.6838 13.031 11.6308C13.0224 11.525 12.9981 11.4211 12.959 11.3224C12.9999 11.4205 13.0253 11.5246 13.034 11.6306C13.0406 11.7102 13.0385 11.7903 13.0277 11.8694C13.0261 11.8826 13.0243 11.8954 13.0221 11.9088L13.014 11.9478C12.9917 12.0518 12.9581 12.1531 12.9139 12.2496C12.8693 12.346 12.8118 12.4357 12.7431 12.5162Z" fill="#34541F"/>
<path d="M12.7109 12.4011C12.7473 12.3657 12.7798 12.3264 12.8079 12.2841C12.8362 12.2419 12.8613 12.1976 12.8831 12.1517C12.9049 12.1057 12.9247 12.0587 12.9429 12.0113C12.952 11.9877 12.9611 11.9637 12.9698 11.9399L12.9763 11.9219L12.9823 11.9039C12.9858 11.8919 12.9892 11.8795 12.9938 11.8673V11.8677C13.0037 11.8171 13.009 11.7657 13.0096 11.7143C13.0102 11.6627 13.0062 11.6111 12.9983 11.5603C12.9904 11.5093 12.9785 11.4591 12.9641 11.4097C12.9496 11.3601 12.9324 11.3115 12.9134 11.2637C12.9332 11.3113 12.951 11.3597 12.9661 11.4091C12.9811 11.4585 12.9928 11.5089 13.0011 11.5599C13.0094 11.6109 13.0136 11.6625 13.0132 11.7143C13.0128 11.766 13.0076 11.8177 12.9977 11.8685V11.8689C12.9934 11.8807 12.9898 11.8929 12.9862 11.9051L12.9803 11.9233L12.9736 11.9413C12.9647 11.9653 12.9556 11.9889 12.9463 12.0127C12.9278 12.0602 12.9076 12.107 12.8855 12.1529C12.8634 12.1988 12.838 12.2431 12.8095 12.2853C12.7808 12.3273 12.7478 12.3661 12.7109 12.4011Z" fill="#34541F"/>
<path d="M12.5957 12.9849C12.6195 12.9517 12.643 12.9183 12.6664 12.8849L12.7016 12.8349C12.7133 12.8181 12.7253 12.8017 12.7358 12.7841C12.7565 12.7489 12.7757 12.7129 12.7932 12.6761C12.811 12.6391 12.8292 12.6025 12.8469 12.5657C12.8821 12.4919 12.9161 12.4177 12.9452 12.3411C12.9743 12.2647 12.9971 12.186 13.0135 12.1059C13.0303 12.0259 13.0414 11.9447 13.0507 11.8633C13.0592 11.7821 13.0602 11.6997 13.0515 11.6183C13.0429 11.5368 13.0248 11.4566 12.9977 11.3795C12.9703 11.3023 12.9365 11.2276 12.8967 11.1562C12.9372 11.2274 12.9716 11.3018 12.9997 11.3789C13.0271 11.4561 13.0455 11.5364 13.0545 11.6181C13.0632 11.6997 13.0626 11.7821 13.0545 11.8637C13.0454 11.9451 13.0343 12.0265 13.0177 12.1067C13.001 12.187 12.9778 12.2659 12.9484 12.3425C12.9186 12.4186 12.8855 12.4935 12.8494 12.5669C12.8316 12.6039 12.8134 12.6403 12.7954 12.6771C12.7778 12.7139 12.7585 12.75 12.7376 12.7851C12.7271 12.8029 12.7147 12.8191 12.703 12.8357L12.6673 12.8857C12.6436 12.9187 12.6198 12.9519 12.5957 12.9849Z" fill="#34541F"/>
<path d="M12.65 13.0456C12.6967 12.9688 12.7432 12.892 12.7876 12.814C12.8321 12.736 12.8764 12.6576 12.9156 12.5768C12.9554 12.4963 12.9885 12.4125 13.0146 12.3264C13.0403 12.2403 13.0583 12.1519 13.0682 12.0624C13.0799 11.9732 13.0866 11.8832 13.0866 11.7932C13.0866 11.7032 13.0793 11.6132 13.0629 11.5248C13.0467 11.4362 13.0202 11.3498 12.9841 11.2674C12.9479 11.1851 12.9016 11.1076 12.8463 11.0368C12.9022 11.1072 12.9492 11.1844 12.9861 11.2666C13.0225 11.3491 13.0492 11.4355 13.0656 11.5242C13.082 11.613 13.0902 11.703 13.0902 11.7932C13.0903 11.906 13.0812 12.0186 13.0631 12.1298C13.0525 12.1967 13.0374 12.2627 13.0179 12.3274C12.9916 12.4136 12.9582 12.4974 12.9182 12.578C12.8786 12.659 12.8343 12.7372 12.7895 12.815C12.7442 12.8926 12.6977 12.9695 12.65 13.0456ZM12.0996 10.416C12.1089 10.4158 12.1184 10.4168 12.1277 10.4182C12.1555 10.4235 12.1826 10.4318 12.2085 10.4432C12.2429 10.4586 12.2752 10.4786 12.3054 10.5012C12.3506 10.5355 12.3915 10.5751 12.4274 10.6192C12.4392 10.634 12.4511 10.6488 12.4622 10.664C12.4386 10.6347 12.4136 10.6065 12.3874 10.5794C12.3611 10.5525 12.3328 10.5275 12.3029 10.5048C12.2731 10.4819 12.241 10.4623 12.2071 10.4462C12.1901 10.4382 12.1726 10.4314 12.1546 10.4262C12.1368 10.4208 12.1184 10.4168 12.0996 10.416Z" fill="#34541F"/>
<path d="M12.4245 10.6312C12.4245 10.6312 12.4851 10.6672 12.5181 10.72C12.5181 10.72 12.4247 10.7024 12.3584 10.627" fill="#448127"/>
<path d="M12.4245 10.6312C12.4434 10.6418 12.4611 10.6545 12.4771 10.6692C12.4934 10.6838 12.5078 10.7005 12.5199 10.7188L12.5225 10.7232L12.5177 10.722C12.487 10.7148 12.4576 10.703 12.4304 10.687C12.4033 10.6712 12.3784 10.651 12.3584 10.627C12.3799 10.6498 12.4047 10.6691 12.432 10.6842C12.4455 10.6918 12.4597 10.6986 12.474 10.7042C12.4884 10.7098 12.5035 10.7146 12.5185 10.7178L12.5161 10.7212C12.5106 10.712 12.5043 10.7032 12.4971 10.6952C12.4831 10.6787 12.4674 10.6638 12.4504 10.6506C12.4421 10.6438 12.4334 10.6372 12.4245 10.6312Z" fill="#34541F"/>
<path d="M12.2891 10.6133C12.2891 10.6133 12.4322 10.7055 12.4527 10.7129C12.4527 10.7129 12.4211 10.6433 12.3528 10.6135" fill="#448127"/>
<path d="M12.2891 10.6133L12.371 10.6631C12.3914 10.6756 12.4119 10.6879 12.4326 10.6999C12.4395 10.7039 12.4464 10.7079 12.4535 10.7109L12.451 10.7137C12.44 10.6925 12.4262 10.673 12.41 10.6557C12.3934 10.6385 12.3741 10.6242 12.3528 10.6135C12.3639 10.6179 12.3746 10.6235 12.3845 10.6305C12.4142 10.6514 12.4384 10.6794 12.4547 10.7121L12.4571 10.7169L12.4521 10.7149C12.4369 10.7083 12.4236 10.6997 12.4098 10.6915L12.369 10.6661C12.3421 10.6489 12.3156 10.6315 12.2891 10.6133Z" fill="#34541F"/>
<path d="M12.3466 10.5664C12.3466 10.5664 12.421 10.5984 12.4378 10.654C12.4378 10.654 12.3042 10.5972 12.2803 10.567" fill="#448127"/>
<path d="M12.3466 10.5664C12.3666 10.5747 12.3853 10.586 12.402 10.6C12.4105 10.607 12.418 10.615 12.4246 10.624C12.4311 10.6328 12.4366 10.6426 12.4398 10.6534L12.4412 10.6578L12.437 10.6558C12.4094 10.6438 12.3821 10.6309 12.3553 10.6172C12.3418 10.6102 12.3286 10.603 12.3157 10.595C12.3094 10.591 12.303 10.587 12.2969 10.5824C12.291 10.5778 12.285 10.573 12.2803 10.567C12.2852 10.5728 12.2914 10.577 12.2975 10.5814C12.3038 10.5856 12.3104 10.5894 12.3169 10.5934C12.3567 10.6147 12.3974 10.6343 12.4388 10.6522L12.4358 10.6546C12.4327 10.6446 12.4277 10.635 12.4214 10.6262C12.415 10.6176 12.4078 10.6097 12.3998 10.6026C12.3836 10.5883 12.3657 10.5761 12.3464 10.5664H12.3466Z" fill="#34541F"/>
<path d="M12.2334 10.6251C12.2334 10.6251 12.365 10.7203 12.4038 10.7203C12.4038 10.7203 12.3652 10.6551 12.2971 10.6253" fill="#448127"/>
<path d="M12.2334 10.6251C12.2606 10.6433 12.2882 10.661 12.3161 10.6781C12.33 10.6865 12.3442 10.6947 12.3589 10.7021C12.3662 10.7057 12.3735 10.7093 12.381 10.7121C12.3884 10.7151 12.3963 10.7181 12.4038 10.7181L12.402 10.7213C12.3889 10.7011 12.3735 10.6826 12.3561 10.6661C12.3384 10.6498 12.3186 10.636 12.2971 10.6253C12.3195 10.6343 12.3401 10.6479 12.3583 10.6639C12.3766 10.6799 12.3926 10.6985 12.4058 10.7191L12.4078 10.7225H12.4038C12.3954 10.7218 12.3872 10.7197 12.3795 10.7163C12.3717 10.7131 12.3642 10.7095 12.3571 10.7057C12.3425 10.6981 12.3282 10.6897 12.3143 10.6813C12.2867 10.6636 12.2597 10.6448 12.2334 10.6251Z" fill="#34541F"/>
<path d="M12.2334 10.6557C12.2334 10.6557 12.3019 10.7141 12.3409 10.7141C12.3409 10.7141 12.3023 10.6489 12.234 10.6191" fill="#448127"/>
<path d="M12.2334 10.6557C12.2499 10.6682 12.267 10.6798 12.2847 10.6905C12.2934 10.6957 12.3025 10.7005 12.3118 10.7045C12.3165 10.7065 12.3213 10.7085 12.3262 10.7097C12.331 10.7111 12.3359 10.7119 12.3409 10.7121L12.3389 10.7151C12.333 10.7051 12.3256 10.6953 12.3179 10.6861C12.2949 10.6581 12.2664 10.6353 12.2342 10.6191C12.2566 10.6281 12.2769 10.6417 12.2951 10.6577C12.3135 10.6738 12.3295 10.6925 12.3426 10.7131L12.3446 10.7161H12.3407C12.33 10.7161 12.3197 10.7125 12.3102 10.7083C12.3007 10.7043 12.2916 10.6991 12.2827 10.6935C12.2653 10.6823 12.2488 10.6696 12.2334 10.6557Z" fill="#34541F"/>
<path d="M12.1992 10.5234C12.1992 10.5234 12.3417 10.6258 12.3587 10.6814C12.3587 10.6814 12.2297 10.6214 12.2057 10.5914" fill="#448127"/>
<path d="M12.1994 10.5236C12.2304 10.5452 12.2601 10.5685 12.2885 10.5934C12.3029 10.6058 12.3166 10.619 12.3293 10.6332C12.3356 10.6402 12.3417 10.6474 12.3473 10.6552C12.3528 10.6632 12.3581 10.6712 12.3611 10.6808L12.3623 10.6856L12.3579 10.6836C12.3312 10.6708 12.3048 10.6572 12.2788 10.6428C12.2657 10.6354 12.2529 10.628 12.2404 10.6198C12.2341 10.6158 12.2281 10.6114 12.2222 10.6068C12.2162 10.6022 12.2103 10.5974 12.2059 10.5914C12.2109 10.5972 12.2168 10.6014 12.2228 10.606C12.2287 10.6102 12.235 10.614 12.2414 10.618C12.254 10.6258 12.2671 10.633 12.2802 10.64C12.3065 10.6538 12.3328 10.6672 12.3597 10.6796L12.357 10.6822C12.3538 10.6735 12.3494 10.6653 12.3439 10.6578C12.3386 10.65 12.3326 10.6428 12.3263 10.6358C12.3138 10.6218 12.3002 10.6088 12.2863 10.5958C12.2582 10.5705 12.2292 10.5464 12.1992 10.5234L12.1994 10.5236Z" fill="#34541F"/>
<path d="M11.4067 13.4069C11.3099 13.4797 11.0396 13.5155 11.002 13.5029C11.1987 13.3375 11.3924 13.3335 11.4067 13.4069ZM12.7874 13.4957C12.8913 13.5911 13.205 13.6567 13.2521 13.6449C13.0433 13.4295 12.8147 13.4077 12.7874 13.4957Z" fill="#406325" stroke="#24420E" stroke-width="0.03"/>
<path d="M11.4053 13.4068C11.3911 13.3334 11.1983 13.3378 11.002 13.5024C11.2088 13.4334 11.3827 13.3942 11.4053 13.4068ZM12.7889 13.495C12.8161 13.407 13.0423 13.4282 13.2513 13.6442C13.0162 13.5438 12.817 13.4822 12.7889 13.495Z" fill="#67923D" stroke="#24420E" stroke-width="0.03"/>
<path d="M20 6L20 18L4 18L4 6L20 6ZM20 5L4 5C3.4 5 3 5.4 3 6L3 18C3 18.6 3.4 19 4 19L20 19C20.6 19 21 18.6 21 18L21 6C21 5.4 20.6 5 20 5Z" fill="none"/>
<defs>
<radialGradient id="paint0_radial_14099_117618" cx="0" cy="0" r="1" gradientUnits="userSpaceOnUse" gradientTransform="translate(11.4549 12.1655) scale(0.327156 0.3306)">
<stop offset="0.22" stop-color="#F9F0AA"/>
<stop offset="1" stop-color="#B07E09"/>
</radialGradient>
<radialGradient id="paint1_radial_14099_117618" cx="0" cy="0" r="1" gradientUnits="userSpaceOnUse" gradientTransform="translate(11.5365 12.2598) scale(0.215927 0.218199)">
<stop offset="0.22" stop-color="#F9F0AA"/>
<stop offset="1" stop-color="#B07E09"/>
</radialGradient>
<radialGradient id="paint2_radial_14099_117618" cx="0" cy="0" r="1" gradientUnits="userSpaceOnUse" gradientTransform="translate(11.5871 12.1735) scale(0.193563 0.1956)">
<stop offset="0.22" stop-color="#F9F0AA"/>
<stop offset="1" stop-color="#B07E09"/>
</radialGradient>
<radialGradient id="paint3_radial_14099_117618" cx="0" cy="0" r="1" gradientUnits="userSpaceOnUse" gradientTransform="translate(11.6719 12.1417) scale(0.343385 0.347)">
<stop offset="0.22" stop-color="#F9F0AA"/>
<stop offset="1" stop-color="#B07E09"/>
</radialGradient>
<linearGradient id="paint4_linear_14099_117618" x1="11.9789" y1="11.1838" x2="11.9475" y2="10.6396" gradientUnits="userSpaceOnUse">
<stop offset="0.22" stop-color="#B07E09" stop-opacity="0"/>
<stop offset="1" stop-color="#B07E09"/>
</linearGradient>
<linearGradient id="paint5_linear_14099_117618" x1="12.1616" y1="11.933" x2="12.2093" y2="12.5313" gradientUnits="userSpaceOnUse">
<stop offset="0.22" stop-color="#B07E09" stop-opacity="0"/>
<stop offset="1" stop-color="#B07E09"/>
</linearGradient>
<radialGradient id="paint6_radial_14099_117618" cx="0" cy="0" r="1" gradientUnits="userSpaceOnUse" gradientTransform="translate(11.4263 11.0466) scale(0.257688 0.2604)">
<stop offset="0.22" stop-color="#F9F0AA"/>
<stop offset="1" stop-color="#B07E09"/>
</radialGradient>
<linearGradient id="paint7_linear_14099_117618" x1="11.536" y1="10.9909" x2="11.6132" y2="10.8127" gradientUnits="userSpaceOnUse">
<stop offset="0.22" stop-color="#F9F0AA"/>
<stop offset="1" stop-color="#B07E09"/>
</linearGradient>
<linearGradient id="paint8_linear_14099_117618" x1="11.9667" y1="10.7448" x2="12.0197" y2="11.4087" gradientUnits="userSpaceOnUse">
<stop offset="0.22" stop-color="#F9F0AA"/>
<stop offset="1" stop-color="#B07E09"/>
</linearGradient>
<radialGradient id="paint9_radial_14099_117618" cx="0" cy="0" r="1" gradientUnits="userSpaceOnUse" gradientTransform="translate(12.0571 10.306) scale(0.00672917 0.0068)">
<stop offset="0.26" stop-color="#A50A0A"/>
<stop offset="1" stop-color="#4C0505"/>
</radialGradient>
<radialGradient id="paint10_radial_14099_117618" cx="0" cy="0" r="1" gradientUnits="userSpaceOnUse" gradientTransform="translate(12.0575 10.3058) scale(0.0067294 0.00699997)">
<stop stop-color="white"/>
<stop offset="1" stop-color="white" stop-opacity="0"/>
</radialGradient>
</defs>
</svg>
