<svg width="24" height="24" viewBox="0 0 24 24" fill="none" xmlns="http://www.w3.org/2000/svg">
<path d="M12 6H4V18H12V6Z" fill="#CE1126"/>
<path d="M20 6H12V12H20V6Z" fill="#FCD116"/>
<path d="M20 12H12V18H20V12Z" fill="#009E49"/>
<path d="M20 6L20 18L4 18L4 6L20 6ZM20 5L4 5C3.4 5 3 5.4 3 6L3 18C3 18.6 3.4 19 4 19L20 19C20.6 19 21 18.6 21 18L21 6C21 5.4 20.6 5 20 5Z" fill="none"/>
<path d="M8 9.5L8.56129 11.2275H10.3776L8.90818 12.2951L9.46946 14.0225L8 12.9549L6.53054 14.0225L7.09182 12.2951L5.62236 11.2275H7.43871L8 9.5Z" fill="black"/>
</svg>
