<svg width="24" height="24" viewBox="0 0 24 24" fill="none" xmlns="http://www.w3.org/2000/svg">
<path d="M20 6H4V18H20V6Z" fill="#D21034"/>
<path d="M20 6H4V12H20V6Z" fill="#00209F"/>
<path d="M13.7168 10.4915H10V13.5051H13.7168V10.4915Z" fill="white"/>
<path d="M12.6064 12.6711L11.8479 12.6936L11.0928 12.7023C11.0928 12.7023 10.7049 12.8485 10.5463 12.8812C10.3882 12.9139 10.4087 12.9669 10.2864 12.9947C10.1884 13.017 10.1771 13.024 10.1196 13.0279C10.0848 13.0302 10.0419 13.0575 10 13.0875V13.5055H13.7168V13.1079C13.6765 13.0856 13.6382 13.0702 13.5989 13.0566C13.5443 13.0377 13.5075 13.017 13.4095 12.9947C13.2871 12.9669 13.3077 12.9139 13.1495 12.8812C12.991 12.8485 12.6064 12.6711 12.6064 12.6711V12.6711Z" fill="#016A16" stroke="#016A16" stroke-width="0.03"/>
<path d="M11.6445 11.7392L11.6994 11.7379L11.7998 12.1679L11.7783 12.3033L11.6445 11.7392V11.7392Z" fill="#F1B517" stroke="black" stroke-width="0.03"/>
<path d="M11.5869 11.4524L11.6244 11.7837L11.6645 11.7811L11.5869 11.4524V11.4524Z" fill="white" stroke="black" stroke-width="0.03"/>
<path d="M11.6911 12.1821L11.5225 11.7206L11.5854 11.7166L11.7821 12.2807L11.6911 12.1821V12.1821Z" fill="#F1B517" stroke="black" stroke-width="0.03"/>
<path d="M11.4434 11.4567L11.5129 11.7775H11.5691L11.4434 11.4567Z" fill="white" stroke="black" stroke-width="0.03"/>
<path d="M11.5414 12.0194L11.4424 11.8025L11.4852 11.7933L11.6658 12.1535L11.5414 12.0194Z" fill="#F1B517" stroke="black" stroke-width="0.03"/>
<path d="M11.3125 11.5504L11.4222 11.8555H11.4784L11.3125 11.5504Z" fill="white" stroke="black" stroke-width="0.03"/>
<path d="M11.5545 12.0551L11.1054 11.5557C10.9651 11.6689 10.9912 11.8766 10.9912 11.8766L11.5 12.2832L11.5545 12.0551L11.5545 12.0551Z" fill="#0A328C" stroke="black" stroke-width="0.03"/>
<path d="M11.8141 12.3299L11.4809 11.9861C11.34 11.9911 11.4518 12.2053 11.4589 12.2322L11.8141 12.5416V12.3299Z" fill="#D20014" stroke="black" stroke-width="0.03"/>
<path d="M11.786 12.2708L11.0972 11.5195L11.0703 11.5389L11.7993 12.3637L11.786 12.2708V12.2708Z" fill="#F1B517" stroke="black" stroke-width="0.03"/>
<path d="M11.0571 11.4712L11.042 11.4534L11.0435 11.4177L10.9014 11.3256L10.9649 11.4712L11.0133 11.4801L11.0284 11.498L11.0571 11.4712Z" fill="#F1B517" stroke="black" stroke-width="0.03"/>
<path d="M10.9844 11.5241C11.0086 11.4943 11.0373 11.4646 11.0887 11.4364L11.128 11.4943L11.0433 11.5672L10.9844 11.5241Z" fill="#F1B517" stroke="black" stroke-width="0.03"/>
<path d="M10.9092 11.6514L10.9323 11.6924C10.9466 11.687 11.0906 11.5541 11.0906 11.5541L11.1939 11.5509L11.2236 11.5174C11.1478 11.4342 11.0763 11.5293 11.0763 11.5293L10.9092 11.6514V11.6514Z" fill="#0A328C" stroke="#0A328C" stroke-width="0.03"/>
<path d="M10.9911 11.7216C10.9966 11.6849 11.0648 11.593 11.0747 11.5898C11.1259 11.6054 11.1735 11.6354 11.2253 11.5163C11.1802 11.5747 11.089 11.5153 11.089 11.5153L11.0494 11.5487L11.0505 11.565L10.9307 11.6784L10.9911 11.7216H10.9911Z" fill="#D20014" stroke="#D20014" stroke-width="0.03"/>
<path d="M11.3579 12.1866L10.7937 11.7301C10.6971 11.8302 10.7774 12.1394 10.7774 12.1394L11.3289 12.4437L11.3579 12.1866L11.3579 12.1866Z" fill="#0A328C" stroke="black" stroke-width="0.03"/>
<path d="M11.8263 12.5562L11.3621 12.1775C11.2036 12.2001 11.3282 12.4377 11.3377 12.4639L11.8279 12.7347L11.8263 12.5562H11.8263Z" fill="#D20014" stroke="black" stroke-width="0.03"/>
<path d="M11.8079 12.4803L10.8043 11.713L10.7812 11.7366L11.8352 12.5748L11.8079 12.4803V12.4803Z" fill="#F1B517" stroke="black" stroke-width="0.03"/>
<path d="M10.7563 11.6722L10.7382 11.6572L10.7334 11.6218L10.5771 11.5554L10.6654 11.6879L10.7147 11.6884L10.7327 11.7034L10.7563 11.6722V11.6722Z" fill="#F1B517" stroke="black" stroke-width="0.03"/>
<path d="M10.6943 11.7362C10.7129 11.7028 10.736 11.6687 10.7816 11.6321L10.8306 11.6824L10.76 11.7686L10.6943 11.7362Z" fill="#F1B517" stroke="black" stroke-width="0.03"/>
<path d="M10.6387 11.8652L10.6449 11.9076C10.6582 11.9001 10.7848 11.7586 10.7848 11.7586L10.8863 11.7395L10.907 11.7062C10.8364 11.6216 10.7612 11.7341 10.7612 11.7341L10.6387 11.8652Z" fill="#0A328C" stroke="#0A328C" stroke-width="0.03"/>
<path d="M10.7188 11.9422C10.714 11.9029 10.7667 11.7877 10.776 11.783C10.8367 11.8014 10.8896 11.8291 10.912 11.7003C10.8767 11.7648 10.776 11.7147 10.776 11.7147L10.7423 11.7539L10.747 11.7751L10.6445 11.9099L10.7188 11.9422Z" fill="#D20014" stroke="#D20014" stroke-width="0.03"/>
<path d="M11.3174 12.4654C11.3099 12.4636 10.5901 12.0477 10.5901 12.0477C10.5377 12.1378 10.5851 12.2686 10.6081 12.2889C10.6094 12.3489 10.5844 12.3811 10.6359 12.5064C10.651 12.5879 10.688 12.663 10.7419 12.7076C10.8075 12.9642 11.0648 12.9815 11.1639 12.7725L11.3174 12.4654L11.3174 12.4654Z" fill="#0A328C" stroke="black" stroke-width="0.03"/>
<path d="M11.7935 12.7404L11.3007 12.4462C11.1422 12.4688 11.3041 12.7684 11.3135 12.7945L11.7893 12.9667L11.7935 12.7404H11.7935Z" fill="#D20014" stroke="black" stroke-width="0.03"/>
<path d="M11.7115 12.6343L10.5981 12.0307L10.5791 12.0576L11.7535 12.7235L11.7115 12.6343H11.7115Z" fill="#F1B517" stroke="black" stroke-width="0.03"/>
<path d="M10.5441 11.9969L10.5239 11.9849L10.5135 11.9507L10.3486 11.9091L10.4569 12.0264L10.5056 12.0194L10.5258 12.0314L10.5441 11.9969Z" fill="#F1B517" stroke="black" stroke-width="0.03"/>
<path d="M10.4932 12.0702C10.5062 12.0344 10.5235 11.9971 10.5628 11.954L10.6191 11.9962L10.5632 12.0921L10.4932 12.0702Z" fill="#F1B517" stroke="black" stroke-width="0.03"/>
<path d="M10.4492 12.206L10.4725 12.2527C10.4846 12.2434 10.5905 12.0695 10.5905 12.0695L10.6883 12.0368L10.7068 11.9962C10.6282 11.9222 10.5694 12.0499 10.5694 12.0499L10.4492 12.206Z" fill="#0A328C" stroke="#0A328C" stroke-width="0.03"/>
<path d="M10.5541 12.2731C10.5462 12.2332 10.5731 12.1053 10.5816 12.0993C10.6429 12.118 10.694 12.1232 10.7082 11.9944C10.6725 12.0556 10.5775 12.0326 10.5775 12.0326L10.5496 12.076L10.5555 12.0912L10.4746 12.2492L10.5541 12.2731Z" fill="#D20014" stroke="#D20014" stroke-width="0.03"/>
<path d="M11.8097 11.023L11.7914 11.3858H11.9053L11.8886 11.0262L12.0073 11.0092L11.9942 10.8659L11.6992 10.8775L11.7009 11.0076L11.8097 11.023H11.8097Z" fill="#016A16" stroke="#016A16" stroke-width="0.03"/>
<path d="M11.8512 10.8734C11.5463 10.5626 11.3062 10.7142 11.249 10.7573C11.2868 10.7648 11.3207 10.7408 11.3383 10.7381C11.3273 10.7522 11.3043 10.7873 11.3043 10.7873C11.3043 10.7873 11.3986 10.7419 11.4091 10.7461C11.3955 10.7571 11.3805 10.7835 11.3805 10.7835C11.3875 10.7863 11.4406 10.7412 11.451 10.7405C11.4349 10.7591 11.4299 10.8016 11.4299 10.8016L11.4758 10.7798C11.4877 10.7884 11.4725 10.805 11.4829 10.8041C11.5592 10.7977 11.6666 10.8752 11.6813 10.899" fill="#016A16"/>
<path d="M11.8512 10.8734C11.5463 10.5626 11.3062 10.7142 11.249 10.7573C11.2868 10.7648 11.3207 10.7408 11.3383 10.7381C11.3273 10.7522 11.3043 10.7873 11.3043 10.7873C11.3043 10.7873 11.3986 10.7419 11.4091 10.7461C11.3955 10.7571 11.3805 10.7835 11.3805 10.7835C11.3875 10.7863 11.4406 10.7412 11.451 10.7405C11.4349 10.7591 11.4299 10.8016 11.4299 10.8016L11.4758 10.7798C11.4877 10.7884 11.4725 10.805 11.4829 10.8041C11.5592 10.7977 11.6666 10.8752 11.6813 10.899" stroke="black" stroke-width="0.03"/>
<path d="M11.7758 10.9309C11.744 10.8567 11.1636 10.7306 11.0469 10.9406C11.0926 10.9523 11.1362 10.9016 11.1362 10.9016L11.1323 10.9484L11.2097 10.8879L11.1819 10.9504L11.2435 10.8996L11.2415 10.9504L11.317 10.8665L11.307 10.9152L11.3746 10.886L11.3666 10.927" fill="#016A16"/>
<path d="M11.7758 10.9309C11.744 10.8567 11.1636 10.7306 11.0469 10.9406C11.0926 10.9523 11.1362 10.9016 11.1362 10.9016L11.1323 10.9484L11.2097 10.8879L11.1819 10.9504L11.2435 10.8996L11.2415 10.9504L11.317 10.8665L11.307 10.9152L11.3746 10.886L11.3666 10.927" stroke="black" stroke-width="0.03"/>
<path d="M11.7496 10.9425C11.6006 10.841 11.3703 10.9093 11.3703 10.9093C11.2233 10.9932 11.145 10.9781 11.126 11.1338C11.1399 11.1279 11.1796 11.0791 11.1796 11.0791L11.2094 11.1396L11.2193 11.0537L11.2432 11.1201L11.2789 11.0108L11.2868 11.085L11.3425 11.0108L11.3683 11.0323L11.3921 10.9757L11.414 11.0128C11.414 11.0128 11.4517 10.9893 11.4735 11.003L11.5152 10.9542L11.5252 10.9893L11.5609 10.9464L11.5748 10.9776L11.6106 10.9445L11.6086 10.9679L11.7317 10.9698" fill="#016A16"/>
<path d="M11.7496 10.9425C11.6006 10.841 11.3703 10.9093 11.3703 10.9093C11.2233 10.9932 11.145 10.9781 11.126 11.1338C11.1399 11.1279 11.1796 11.0791 11.1796 11.0791L11.2094 11.1396L11.2193 11.0537L11.2432 11.1201L11.2789 11.0108L11.2868 11.085L11.3425 11.0108L11.3683 11.0323L11.3921 10.9757L11.414 11.0128C11.414 11.0128 11.4517 10.9893 11.4735 11.003L11.5152 10.9542L11.5252 10.9893L11.5609 10.9464L11.5748 10.9776L11.6106 10.9445L11.6086 10.9679L11.7317 10.9698" stroke="black" stroke-width="0.03"/>
<path d="M11.7159 10.9593C11.6121 10.9573 11.3143 11.0718 11.2373 11.1916C11.268 11.1741 11.2869 11.1662 11.2869 11.1662L11.3021 11.2143L11.3207 11.1662L11.3246 11.2032C11.336 11.1743 11.3489 11.171 11.3703 11.2013L11.3782 11.1564L11.3902 11.1993L11.41 11.1525C11.41 11.1525 11.4225 11.2033 11.4299 11.2013C11.4299 11.2013 11.4628 11.1135 11.4775 11.1096L11.4815 11.1642L11.5014 11.1096L11.5193 11.1505L11.5232 11.092L11.5431 11.1369C11.5431 11.1369 11.5535 11.0927 11.5689 11.0842L11.5987 11.1115L11.7313 11.0144" fill="#016A16"/>
<path d="M11.7159 10.9593C11.6121 10.9573 11.3143 11.0718 11.2373 11.1916C11.268 11.1741 11.2869 11.1662 11.2869 11.1662L11.3021 11.2143L11.3207 11.1662L11.3246 11.2032C11.336 11.1743 11.3489 11.171 11.3703 11.2013L11.3782 11.1564L11.3902 11.1993L11.41 11.1525C11.41 11.1525 11.4225 11.2033 11.4299 11.2013C11.4299 11.2013 11.4628 11.1135 11.4775 11.1096L11.4815 11.1642L11.5014 11.1096L11.5193 11.1505L11.5232 11.092L11.5431 11.1369C11.5431 11.1369 11.5535 11.0927 11.5689 11.0842L11.5987 11.1115L11.7313 11.0144" stroke="black" stroke-width="0.03"/>
<path d="M11.7364 10.9849C11.5981 11.0388 11.4744 11.232 11.4839 11.3139C11.5454 11.2362 11.5321 11.2469 11.5596 11.3363C11.5596 11.3363 11.57 11.2581 11.5804 11.2488L11.5984 11.3067L11.6051 11.231L11.6236 11.2319L11.6188 11.1844L11.6463 11.2058C11.6399 11.1787 11.633 11.1695 11.6615 11.1462C11.6615 11.1462 11.6255 11.1509 11.6539 11.0848L11.6804 11.1109C11.6804 11.1109 11.6757 11.082 11.6851 11.0709L11.7827 11.0364" fill="#016A16"/>
<path d="M11.7364 10.9849C11.5981 11.0388 11.4744 11.232 11.4839 11.3139C11.5454 11.2362 11.5321 11.2469 11.5596 11.3363C11.5596 11.3363 11.57 11.2581 11.5804 11.2488L11.5984 11.3067L11.6051 11.231L11.6236 11.2319L11.6188 11.1844L11.6463 11.2058C11.6399 11.1787 11.633 11.1695 11.6615 11.1462C11.6615 11.1462 11.6255 11.1509 11.6539 11.0848L11.6804 11.1109C11.6804 11.1109 11.6757 11.082 11.6851 11.0709L11.7827 11.0364" stroke="black" stroke-width="0.03"/>
<path d="M11.7498 10.9998L11.6976 11.1011L11.7244 11.109L11.6641 11.1551L11.715 11.1498C11.715 11.1498 11.6373 11.1788 11.6279 11.2564L11.707 11.2209C11.707 11.2209 11.64 11.2906 11.6306 11.3328L11.6762 11.292C11.6762 11.292 11.6319 11.3407 11.6386 11.4144L11.6721 11.3762C11.6641 11.4657 11.6668 11.4736 11.707 11.542C11.707 11.542 11.6962 11.4367 11.7083 11.4236L11.7967 11.517L11.7471 11.3841C11.7471 11.3841 11.8021 11.4683 11.8355 11.4604L11.7659 11.3525L11.8342 11.4091L11.7565 11.2906L11.8288 11.313C11.8288 11.313 11.7766 11.2459 11.7806 11.2038L11.8302 11.259C11.8302 11.259 11.8114 11.1959 11.8168 11.1774L11.8422 11.1827L11.7927 11.1248L11.8262 11.1182L11.8222 11.08L11.8463 11.0721L11.8449 11.03" fill="#016A16"/>
<path d="M11.7498 10.9998L11.6976 11.1011L11.7244 11.109L11.6641 11.1551L11.715 11.1498C11.715 11.1498 11.6373 11.1788 11.6279 11.2564L11.707 11.2209C11.707 11.2209 11.64 11.2906 11.6306 11.3328L11.6762 11.292C11.6762 11.292 11.6319 11.3407 11.6386 11.4144L11.6721 11.3762C11.6641 11.4657 11.6668 11.4736 11.707 11.542C11.707 11.542 11.6962 11.4367 11.7083 11.4236L11.7967 11.517L11.7471 11.3841C11.7471 11.3841 11.8021 11.4683 11.8355 11.4604L11.7659 11.3525L11.8342 11.4091L11.7565 11.2906L11.8288 11.313C11.8288 11.313 11.7766 11.2459 11.7806 11.2038L11.8302 11.259C11.8302 11.259 11.8114 11.1959 11.8168 11.1774L11.8422 11.1827L11.7927 11.1248L11.8262 11.1182L11.8222 11.08L11.8463 11.0721L11.8449 11.03" stroke="black" stroke-width="0.03"/>
<path d="M11.8014 11.0296C11.7157 11.1481 11.7599 11.331 11.709 11.4245L11.8014 11.0296Z" fill="#016A16"/>
<path d="M11.8014 11.0296C11.7157 11.1481 11.7599 11.331 11.709 11.4245" stroke="black" stroke-width="0.03"/>
<path d="M11.8951 12.6606C11.8951 12.6606 11.9418 12.2628 11.9416 12.0915C11.9416 11.9568 11.9097 11.6581 11.9097 11.6581H11.7755C11.7755 11.6581 11.7551 11.9553 11.7581 12.0897C11.762 12.261 11.8047 12.6605 11.8047 12.6605H11.8951V12.6606Z" fill="#F1B517" stroke="black" stroke-width="0.03"/>
<path d="M11.7666 11.6774H11.9221L11.9039 11.5708H11.7911L11.7666 11.6774Z" fill="#F1B517" stroke="black" stroke-width="0.03"/>
<path d="M11.7764 11.5922H11.9153L11.8891 11.4856H11.8035L11.7764 11.5922Z" fill="#F1B517" stroke="black" stroke-width="0.03"/>
<path d="M11.7852 11.5048H11.901L11.8814 11.3982H11.8077L11.7852 11.5048Z" fill="#F1B517" stroke="black" stroke-width="0.03"/>
<path d="M11.8861 11.3854H11.8051L11.7969 11.424H11.8927L11.8861 11.3854Z" fill="#F1B517" stroke="black" stroke-width="0.03"/>
<path d="M11.9027 12.5722H11.7998H11.9027Z" fill="#F1B517"/>
<path d="M11.9027 12.5722H11.7998" stroke="black" stroke-width="0.03"/>
<path d="M11.9084 12.4955H11.793H11.9084Z" fill="#F1B517"/>
<path d="M11.9084 12.4955H11.793" stroke="black" stroke-width="0.03"/>
<path d="M11.9237 12.4167H11.7773H11.9237Z" fill="#F1B517"/>
<path d="M11.9237 12.4167H11.7773" stroke="black" stroke-width="0.03"/>
<path d="M11.9305 12.3293H11.7773H11.9305Z" fill="#F1B517"/>
<path d="M11.9305 12.3293H11.7773" stroke="black" stroke-width="0.03"/>
<path d="M11.9316 12.2441H11.7705H11.9316Z" fill="#F1B517"/>
<path d="M11.9316 12.2441H11.7705" stroke="black" stroke-width="0.03"/>
<path d="M11.9384 12.1653H11.7637H11.9384Z" fill="#F1B517"/>
<path d="M11.9384 12.1653H11.7637" stroke="black" stroke-width="0.03"/>
<path d="M11.9385 12.0928H11.7559H11.9385Z" fill="#F1B517"/>
<path d="M11.9385 12.0928H11.7559" stroke="black" stroke-width="0.03"/>
<path d="M11.9375 12.0076H11.7549H11.9375Z" fill="#F1B517"/>
<path d="M11.9375 12.0076H11.7549" stroke="black" stroke-width="0.03"/>
<path d="M11.9314 11.9224H11.7549H11.9314Z" fill="#F1B517"/>
<path d="M11.9314 11.9224H11.7549" stroke="black" stroke-width="0.03"/>
<path d="M11.9233 11.835H11.7637H11.9233Z" fill="#F1B517"/>
<path d="M11.9233 11.835H11.7637" stroke="black" stroke-width="0.03"/>
<path d="M11.9157 11.7562H11.7715H11.9157Z" fill="#F1B517"/>
<path d="M11.9157 11.7562H11.7715" stroke="black" stroke-width="0.03"/>
<path d="M11.8546 10.7599C11.8276 10.747 11.7664 10.7074 11.7846 10.6838L11.8126 10.6353C11.8523 10.5442 11.8119 10.5795 11.8076 10.551C11.8036 10.5238 11.9594 10.5451 11.9617 10.6069C11.9624 10.624 11.9502 10.614 11.9518 10.7114L11.9222 10.7697C11.9 10.7718 11.8737 10.7691 11.8546 10.7599Z" fill="#0A328C" stroke="#0A328C" stroke-width="0.03"/>
<path d="M11.8737 10.9953L11.835 10.9621L11.8457 10.6779L11.8836 10.6892L11.8737 10.9953Z" fill="#F1B517" stroke="black" stroke-width="0.03"/>
<path d="M11.9237 10.7678C11.948 10.7533 11.9639 10.7101 11.9492 10.6844C11.9093 10.6329 11.8835 10.6542 11.8165 10.631C11.8032 10.6455 11.7751 10.6733 11.7811 10.6941C11.8692 10.7364 11.835 10.7004 11.8641 10.7057C11.8798 10.7085 11.89 10.7275 11.9237 10.7678Z" fill="#D20014" stroke="#D20014" stroke-width="0.03"/>
<path d="M11.4006 12.4722C11.4006 12.5242 11.3686 12.5663 11.3292 12.5663C11.2898 12.5663 11.2578 12.5242 11.2578 12.4722V12.4211H11.4006V12.4722Z" fill="#016A16" stroke="white" stroke-width="0.03" stroke-linecap="round"/>
<path d="M11.3287 12.4398C11.3679 12.4398 11.3997 12.4237 11.3997 12.4038C11.3997 12.384 11.3679 12.3679 11.3287 12.3679C11.2896 12.3679 11.2578 12.384 11.2578 12.4038C11.2578 12.4237 11.2896 12.4398 11.3287 12.4398Z" fill="white"/>
<path d="M11.313 12.4444L11.3008 12.3125H11.3551L11.3462 12.4444H11.313Z" fill="#016A16" stroke="#F1B517" stroke-width="0.03"/>
<path d="M11.4077 12.4062C11.3973 12.426 11.3661 12.4403 11.3292 12.4403C11.2924 12.4403 11.2614 12.426 11.251 12.4062C11.2486 12.4108 11.2471 12.4156 11.2471 12.4206C11.2471 12.4474 11.2839 12.469 11.3292 12.469C11.3746 12.469 11.4114 12.4474 11.4114 12.4206C11.4114 12.4156 11.4101 12.4108 11.4077 12.4062H11.4077Z" fill="#016A16" stroke="white" stroke-width="0.03" stroke-linecap="round"/>
<path d="M11.7028 12.9133L11.4256 12.8257L11.3047 12.6155L10.877 12.5941L10.8918 12.7517L11.2562 12.8228L11.2909 12.886L11.7098 13.0048L11.7028 12.9133H11.7028Z" fill="#F1B517" stroke="black" stroke-width="0.03"/>
<path d="M11.4124 12.9718L10.9746 12.3159L10.9531 12.3323L11.3875 12.991L11.4124 12.9718L11.4124 12.9718Z" fill="#503200" stroke="black" stroke-width="0.03"/>
<path d="M11.0154 12.3421L10.9686 12.2624C10.9599 12.2477 10.9466 12.2428 10.9271 12.2533C10.908 12.2635 10.9099 12.2837 10.9176 12.2982L10.9609 12.3723L11.0154 12.3421Z" fill="white" stroke="black" stroke-width="0.03"/>
<path d="M11.4655 12.5657L10.582 12.4742L10.5605 12.6051L11.4397 12.6951L11.4655 12.5657Z" fill="#F1B517" stroke="black" stroke-width="0.03"/>
<path d="M10.5659 12.4401L10.543 12.6216H10.5802L10.606 12.4556L10.5659 12.4401Z" fill="#F1B517" stroke="black" stroke-width="0.03"/>
<path d="M10.7131 12.47L10.7031 12.6332L10.726 12.636L10.7447 12.4911L10.7131 12.47V12.47Z" fill="#F1B517" stroke="black" stroke-width="0.03"/>
<path d="M11.3115 12.5403L11.29 12.6937L11.333 12.6922L11.3502 12.5403H11.3115V12.5403Z" fill="#F1B517" stroke="black" stroke-width="0.03"/>
<path d="M11.4437 12.5446L11.4131 12.7219L11.4617 12.7291L11.4756 12.6358C11.4795 12.6546 11.4965 12.6688 11.5167 12.6688C11.5398 12.6688 11.5587 12.6502 11.5587 12.6275C11.5587 12.6048 11.5398 12.5865 11.5167 12.5865C11.5006 12.5865 11.486 12.5961 11.4797 12.614L11.4888 12.5475L11.4437 12.5446V12.5446Z" fill="#F1B517" stroke="black" stroke-width="0.03"/>
<path d="M11.1244 12.5722L11.0029 12.7115L11.0171 12.7284L11.173 12.62L11.1244 12.5722Z" fill="#F1B517" stroke="black" stroke-width="0.03"/>
<path d="M10.8425 12.9202L10.964 12.7809L10.9499 12.764L10.7939 12.8724L10.8425 12.9202Z" fill="#F1B517" stroke="black" stroke-width="0.03"/>
<path d="M11.1601 12.8847L11.0123 12.7682L10.9971 12.7792L11.1135 12.9294L11.1601 12.8847Z" fill="#F1B517" stroke="black" stroke-width="0.03"/>
<path d="M10.7959 12.6176L10.9458 12.73L10.964 12.7161L10.8465 12.5659L10.7959 12.6176Z" fill="#F1B517" stroke="black" stroke-width="0.03"/>
<path d="M10.959 12.5232L10.9733 12.7061L10.9935 12.7052L11.0409 12.5272L10.959 12.5232V12.5232Z" fill="#F1B517" stroke="black" stroke-width="0.03"/>
<path d="M11.008 12.9682L10.9937 12.7853L10.9715 12.7831L10.9443 12.9682H11.008V12.9682Z" fill="#F1B517" stroke="black" stroke-width="0.03"/>
<path d="M11.2068 12.7214L11.0185 12.7418L11.0156 12.7601L11.2061 12.7854L11.2068 12.7214H11.2068Z" fill="#F1B517" stroke="black" stroke-width="0.03"/>
<path d="M10.7583 12.785L10.9421 12.7554L10.946 12.7409L10.7559 12.7192L10.7583 12.785H10.7583Z" fill="#F1B517" stroke="black" stroke-width="0.03"/>
<path d="M10.9825 12.7917C11.01 12.7917 11.0324 12.7697 11.0324 12.7427C11.0324 12.7156 11.01 12.6937 10.9825 12.6937C10.9549 12.6937 10.9326 12.7156 10.9326 12.7427C10.9326 12.7697 10.9549 12.7917 10.9825 12.7917Z" fill="#F1B517" stroke="black" stroke-width="0.03"/>
<path fill-rule="evenodd" clip-rule="evenodd" d="M11.2476 12.743C11.2476 12.8867 11.1289 13.0033 10.9827 13.0033C10.8364 13.0033 10.7178 12.8867 10.7178 12.743C10.7178 12.5993 10.8364 12.4827 10.9827 12.4827C11.1289 12.4827 11.2476 12.5993 11.2476 12.743ZM11.1946 12.743C11.1946 12.858 11.0997 12.9513 10.9827 12.9513C10.8657 12.9513 10.7707 12.858 10.7707 12.743C10.7707 12.628 10.8657 12.5347 10.9827 12.5347C11.0997 12.5347 11.1946 12.628 11.1946 12.743Z" fill="#F1B517" stroke="black" stroke-width="0.03" stroke-linecap="round"/>
<path d="M10.8169 12.6105L10.7754 12.5786L10.8169 12.6105Z" fill="#F1B517"/>
<path d="M10.8169 12.6105L10.7754 12.5786" stroke="black" stroke-width="0.03"/>
<path d="M11.1133 12.5792L11.1487 12.5424L11.1133 12.5792Z" fill="#F1B517"/>
<path d="M11.1133 12.5792L11.1487 12.5424" stroke="black" stroke-width="0.03"/>
<path d="M11.189 12.9075L11.1455 12.8727L11.189 12.9075Z" fill="#F1B517"/>
<path d="M11.189 12.9075L11.1455 12.8727" stroke="black" stroke-width="0.03"/>
<path d="M10.8164 12.9475L10.8539 12.9067L10.8164 12.9475Z" fill="#F1B517"/>
<path d="M10.8164 12.9475L10.8539 12.9067" stroke="black" stroke-width="0.03"/>
<path d="M11.7092 12.4858L11.7545 12.7213L11.7175 12.7411L11.6777 12.4892L11.7092 12.4858Z" fill="#F1B517" stroke="black" stroke-width="0.03"/>
<path d="M11.6853 12.4565C11.6643 12.4476 11.6369 12.4627 11.5921 12.4048C11.5183 12.4737 11.5879 12.4841 11.5991 12.5523C11.6199 12.561 11.6328 12.4993 11.6895 12.493C11.6965 12.4923 11.7797 12.4849 11.7797 12.4849L11.7588 12.4559C11.7588 12.4559 11.701 12.4574 11.6853 12.4565V12.4565Z" fill="white" stroke="black" stroke-width="0.03"/>
<path d="M11.7156 12.5035L11.7072 12.4333C11.6981 12.4085 11.668 12.4298 11.668 12.4443L11.6757 12.509L11.7156 12.5035Z" fill="white" stroke="black" stroke-width="0.03"/>
<path fill-rule="evenodd" clip-rule="evenodd" d="M11.4952 12.6965L11.4959 12.7619C11.4749 12.7693 11.4781 12.7853 11.4788 12.8087L11.4795 12.9995C11.4721 13.0122 11.449 13.0128 11.4381 13.0227C11.4273 13.0326 11.4286 13.0519 11.4782 13.0646L11.5165 13.066C11.5748 13.053 11.5869 13.0333 11.5576 13.0222C11.5421 13.0163 11.5216 13.0092 11.5138 12.9999L11.5151 12.9544L11.5529 12.9558C11.5631 12.9558 11.5825 12.9298 11.5832 12.9084L11.5834 12.8096C11.582 12.7536 11.5407 12.7473 11.5292 12.7479L11.53 12.6964L11.4952 12.6965L11.4952 12.6965ZM11.5592 12.8057C11.5599 12.7897 11.5374 12.7754 11.5284 12.775C11.5193 12.7746 11.4995 12.7937 11.4988 12.8097V12.8497C11.5002 12.8644 11.5117 12.9141 11.5348 12.9177C11.5457 12.9194 11.5599 12.9017 11.5599 12.887L11.5592 12.8057H11.5592Z" fill="#F1B517" stroke="black" stroke-width="0.03"/>
<path d="M11.2405 12.8936C11.2155 12.8833 11.2157 12.9405 11.2157 12.9405L11.2551 12.9409C11.2723 12.9489 11.2862 12.9746 11.2752 12.9873C11.2661 12.9977 11.1897 12.9696 11.1846 12.9858C11.1981 13.0634 11.2991 13.0933 11.3357 13.0594C11.3714 13.0261 11.3805 12.9374 11.2643 12.9142L11.2405 12.8936V12.8936Z" fill="white" stroke="black" stroke-width="0.03"/>
<path d="M11.2634 12.9137L11.252 12.9393L11.2634 12.9137Z" fill="white"/>
<path d="M11.2634 12.9137L11.252 12.9393" stroke="black" stroke-width="0.03"/>
<path d="M10.4812 12.923L10.4434 12.761L10.4812 12.923Z" fill="#F1B517"/>
<path d="M10.4812 12.923L10.4434 12.761" stroke="black" stroke-width="0.03"/>
<path d="M10.5268 12.9148L10.4688 12.7887L10.5268 12.9148Z" fill="#F1B517"/>
<path d="M10.5268 12.9148L10.4688 12.7887" stroke="black" stroke-width="0.03"/>
<path d="M10.6271 12.8817L10.4961 12.81L10.6271 12.8817Z" fill="#F1B517"/>
<path d="M10.6271 12.8817L10.4961 12.81" stroke="black" stroke-width="0.03"/>
<path d="M10.6836 12.8664L10.4404 12.7589L10.6836 12.8664Z" fill="#F1B517"/>
<path d="M10.6836 12.8664L10.4404 12.7589" stroke="black" stroke-width="0.03"/>
<path d="M10.2957 12.6419C10.2957 12.6419 10.2072 12.6404 10.1914 12.6467C10.1851 12.6493 10.2137 12.6797 10.2077 12.6914C10.1856 12.7346 10.0352 12.7287 10.0233 12.7192C10.0029 12.703 10.1634 12.6891 10.1645 12.6781C10.1657 12.6654 10.1407 12.6322 10.1446 12.6119C10.1496 12.5855 10.2148 12.5756 10.2148 12.5756L10.2957 12.6419Z" fill="#D20014" stroke="#D20014" stroke-width="0.03"/>
<path d="M10.4145 12.7236L10.2142 12.5547C10.2142 12.5547 10.2053 12.5452 10.1979 12.5534C10.1907 12.5614 10.2007 12.5706 10.2007 12.5706L10.4074 12.7445L10.4145 12.7236V12.7236Z" fill="#503200" stroke="black" stroke-width="0.03"/>
<path d="M10.6075 12.891C10.604 12.8875 10.4444 12.7467 10.4444 12.7467L10.4337 12.7056C10.4337 12.7056 10.4091 12.7226 10.4 12.7314C10.391 12.7401 10.377 12.7641 10.377 12.7641L10.4217 12.7662L10.5628 12.898L10.6075 12.891V12.891Z" fill="#F1B517" stroke="black" stroke-width="0.03"/>
<path d="M11.1726 13.112C11.1887 13.112 11.2017 13.0992 11.2017 13.0834C11.2017 13.0676 11.1887 13.0548 11.1726 13.0548C11.1566 13.0548 11.1436 13.0676 11.1436 13.0834C11.1436 13.0992 11.1566 13.112 11.1726 13.112Z" fill="#F1B517" stroke="black" stroke-width="0.03"/>
<path d="M11.0984 13.0588C11.1144 13.0588 11.1275 13.046 11.1275 13.0302C11.1275 13.0144 11.1144 13.0016 11.0984 13.0016C11.0823 13.0016 11.0693 13.0144 11.0693 13.0302C11.0693 13.046 11.0823 13.0588 11.0984 13.0588Z" fill="#F1B517" stroke="black" stroke-width="0.03"/>
<path d="M10.9978 13.0928C11.0139 13.0928 11.0269 13.08 11.0269 13.0642C11.0269 13.0484 11.0139 13.0356 10.9978 13.0356C10.9818 13.0356 10.9688 13.0484 10.9688 13.0642C10.9688 13.08 10.9818 13.0928 10.9978 13.0928Z" fill="#F1B517" stroke="black" stroke-width="0.03"/>
<path d="M10.8435 13.127C10.8596 13.127 10.8726 13.1142 10.8726 13.0984C10.8726 13.0826 10.8596 13.0698 10.8435 13.0698C10.8275 13.0698 10.8145 13.0826 10.8145 13.0984C10.8145 13.1142 10.8275 13.127 10.8435 13.127Z" fill="#F1B517" stroke="black" stroke-width="0.03"/>
<path d="M10.7781 13.1354C10.7941 13.1354 10.8071 13.1226 10.8071 13.1068C10.8071 13.0911 10.7941 13.0782 10.7781 13.0782C10.762 13.0782 10.749 13.0911 10.749 13.1068C10.749 13.1226 10.762 13.1354 10.7781 13.1354Z" fill="#F1B517" stroke="black" stroke-width="0.03"/>
<path d="M10.7136 13.1354C10.7297 13.1354 10.7427 13.1226 10.7427 13.1068C10.7427 13.0911 10.7297 13.0782 10.7136 13.0782C10.6976 13.0782 10.6846 13.0911 10.6846 13.1068C10.6846 13.1226 10.6976 13.1354 10.7136 13.1354Z" fill="#F1B517" stroke="black" stroke-width="0.03"/>
<path d="M10.6482 13.1333C10.6643 13.1333 10.6773 13.1205 10.6773 13.1047C10.6773 13.0889 10.6643 13.0761 10.6482 13.0761C10.6322 13.0761 10.6191 13.0889 10.6191 13.1047C10.6191 13.1205 10.6322 13.1333 10.6482 13.1333Z" fill="#F1B517" stroke="black" stroke-width="0.03"/>
<path d="M10.6795 13.0822C10.6955 13.0822 10.7085 13.0694 10.7085 13.0536C10.7085 13.0378 10.6955 13.025 10.6795 13.025C10.6634 13.025 10.6504 13.0378 10.6504 13.0536C10.6504 13.0694 10.6634 13.0822 10.6795 13.0822Z" fill="#F1B517" stroke="black" stroke-width="0.03"/>
<path d="M10.7429 13.0844C10.759 13.0844 10.772 13.0716 10.772 13.0558C10.772 13.04 10.759 13.0272 10.7429 13.0272C10.7269 13.0272 10.7139 13.04 10.7139 13.0558C10.7139 13.0716 10.7269 13.0844 10.7429 13.0844Z" fill="#F1B517" stroke="black" stroke-width="0.03"/>
<path d="M10.8035 13.078C10.8195 13.078 10.8325 13.0651 10.8325 13.0494C10.8325 13.0336 10.8195 13.0208 10.8035 13.0208C10.7874 13.0208 10.7744 13.0336 10.7744 13.0494C10.7744 13.0651 10.7874 13.078 10.8035 13.078Z" fill="#F1B517" stroke="black" stroke-width="0.03"/>
<path d="M10.7732 13.0268C10.7893 13.0268 10.8023 13.014 10.8023 12.9982C10.8023 12.9824 10.7893 12.9696 10.7732 12.9696C10.7572 12.9696 10.7441 12.9824 10.7441 12.9982C10.7441 13.014 10.7572 13.0268 10.7732 13.0268Z" fill="#F1B517" stroke="black" stroke-width="0.03"/>
<path d="M10.7136 13.0268C10.7297 13.0268 10.7427 13.014 10.7427 12.9982C10.7427 12.9824 10.7297 12.9696 10.7136 12.9696C10.6976 12.9696 10.6846 12.9824 10.6846 12.9982C10.6846 13.014 10.6976 13.0268 10.7136 13.0268Z" fill="#F1B517" stroke="black" stroke-width="0.03"/>
<path fill-rule="evenodd" clip-rule="evenodd" d="M11.3271 13.1215C11.3271 13.1089 11.2969 13.1143 11.2969 13.0995C11.2969 13.083 11.3429 13.0951 11.3493 13.1096C11.3752 13.0858 11.3863 13.1032 11.4022 13.1104C11.4248 13.0762 11.4528 13.0775 11.48 13.1025C11.4958 13.0848 11.5354 13.0907 11.549 13.1104C11.5751 13.084 11.5983 13.0905 11.6164 13.1096C11.6237 13.0958 11.6344 13.0988 11.6421 13.1088C11.656 13.0837 11.6908 13.0912 11.7055 13.1078C11.7186 13.0932 11.7319 13.1046 11.7493 13.1154C11.761 13.1043 11.7798 13.1064 11.7798 13.1175C11.7798 13.129 11.7552 13.1249 11.7552 13.1364C11.7552 13.1466 11.7732 13.1415 11.7732 13.1544C11.7732 13.1646 11.7465 13.1684 11.7423 13.1522C11.7333 13.1698 11.7006 13.163 11.6974 13.1467C11.6866 13.16 11.6622 13.1641 11.6485 13.1443C11.6372 13.1536 11.6238 13.155 11.6176 13.1455C11.5973 13.1678 11.563 13.1632 11.5512 13.1387L11.5397 13.1392C11.5198 13.1668 11.4886 13.154 11.48 13.1388C11.4465 13.1634 11.4265 13.1556 11.4078 13.1396C11.3863 13.1662 11.3536 13.1644 11.3461 13.1396C11.3316 13.1503 11.3014 13.1528 11.3014 13.1403C11.3014 13.1282 11.3271 13.1326 11.3271 13.1215V13.1215ZM11.392 13.1275C11.392 13.1332 11.3844 13.1379 11.375 13.1379C11.3655 13.1379 11.3579 13.1332 11.3579 13.1275C11.3579 13.1218 11.3655 13.1171 11.375 13.1171C11.3844 13.1171 11.392 13.1218 11.392 13.1275ZM11.4635 13.1188C11.4635 13.1257 11.4543 13.1313 11.443 13.1313C11.4316 13.1313 11.4224 13.1257 11.4224 13.1188C11.4224 13.1119 11.4316 13.1063 11.443 13.1063C11.4543 13.1063 11.4635 13.1119 11.4635 13.1188ZM11.6039 13.1267C11.6039 13.1337 11.5956 13.1393 11.5853 13.1393C11.575 13.1393 11.5667 13.1337 11.5667 13.1267C11.5667 13.1197 11.575 13.114 11.5853 13.114C11.5956 13.114 11.6039 13.1197 11.6039 13.1267ZM11.5292 13.1234C11.5292 13.1322 11.521 13.1393 11.511 13.1393C11.5009 13.1393 11.4928 13.1322 11.4928 13.1234C11.4928 13.1145 11.5009 13.1074 11.511 13.1074C11.521 13.1074 11.5292 13.1145 11.5292 13.1234ZM11.6886 13.1238C11.6886 13.1317 11.6813 13.1381 11.6723 13.1381C11.6633 13.1381 11.6561 13.1317 11.6561 13.1238C11.6561 13.1159 11.6633 13.1095 11.6723 13.1095C11.6813 13.1095 11.6886 13.1159 11.6886 13.1238ZM11.6398 13.1271C11.6398 13.1322 11.6351 13.1363 11.6292 13.1363C11.6234 13.1363 11.6187 13.1322 11.6187 13.1271C11.6187 13.122 11.6234 13.1179 11.6292 13.1179C11.6351 13.1179 11.6398 13.122 11.6398 13.1271ZM11.7349 13.1308C11.7349 13.1382 11.7296 13.1441 11.723 13.1441C11.7165 13.1441 11.7112 13.1382 11.7112 13.1308C11.7112 13.1235 11.7165 13.1176 11.723 13.1176C11.7296 13.1176 11.7349 13.1235 11.7349 13.1308Z" fill="#F1B517" stroke="black" stroke-width="0.03"/>
<path d="M11.8515 12.6287C11.7529 12.6287 11.6729 12.6665 11.6729 12.7128C11.6729 12.7208 11.6751 12.7284 11.6795 12.7357C11.7008 12.7608 11.7701 12.7792 11.8522 12.7792C11.9291 12.7792 11.9945 12.7631 12.0202 12.7404C12.0266 12.7317 12.0302 12.7225 12.0302 12.7128C12.0302 12.6665 11.9502 12.6287 11.8515 12.6287Z" fill="#0A328C" stroke="#0A328C" stroke-width="0.03"/>
<path d="M12.032 12.7203V13.0027C12.032 13.0358 11.9515 13.0626 11.8524 13.0626C11.7533 13.0626 11.6729 13.0358 11.6729 13.0027V12.7203C11.6729 12.7534 11.7533 12.7803 11.8524 12.7803C11.9515 12.7803 12.032 12.7534 12.032 12.7203Z" fill="#F1B517" stroke="black" stroke-width="0.03"/>
<path d="M11.6729 12.7203V12.7636L11.76 13.0374L11.8296 12.8268L11.9061 13.0455L11.962 12.8391L12.032 12.9778V12.9011L11.967 12.7665C11.9597 12.7686 11.9519 12.7703 11.9437 12.7719L11.9033 12.9244L11.8465 12.7802C11.837 12.7801 11.8275 12.7799 11.8184 12.7793L11.7614 12.9244L11.6961 12.7497C11.6814 12.741 11.6729 12.731 11.6729 12.7203V12.7203Z" fill="#D20014" stroke="#D20014" stroke-width="0.03"/>
<path d="M12.032 12.9483V13.001C12.032 13.0341 11.9515 13.061 11.8524 13.061C11.7533 13.061 11.6729 13.0341 11.6729 13.001V12.9483C11.6729 12.9814 11.7533 13.0083 11.8524 13.0083C11.9515 13.0083 12.032 12.9814 12.032 12.9483Z" fill="#0A328C" stroke="#0A328C" stroke-width="0.03"/>
<path d="M11.9264 13.0037C11.9118 13.0059 11.8963 13.0076 11.8799 13.0084L11.8803 13.0611C11.8967 13.0603 11.9123 13.0586 11.9269 13.0564L11.9264 13.0037Z" fill="#F1B517" stroke="black" stroke-width="0.03"/>
<path d="M11.7348 12.9952L11.7344 13.0476C11.7482 13.0517 11.7638 13.055 11.7809 13.0575V13.0048C11.764 13.0024 11.7486 12.9992 11.7348 12.9952H11.7348Z" fill="#F1B517" stroke="black" stroke-width="0.03"/>
<path d="M11.6729 12.9483V13.001C11.6729 13.0108 11.6801 13.0199 11.6927 13.0281L11.6936 12.9761C11.6804 12.9678 11.6729 12.9584 11.6729 12.9483H11.6729Z" fill="#F1B517" stroke="black" stroke-width="0.03"/>
<path d="M12.0316 12.9547L12.0307 12.955C12.0275 12.9657 12.0158 12.9756 11.998 12.9839L11.9983 13.0363C12.0191 13.0266 12.0316 13.0147 12.0316 13.0018V12.9547L12.0316 12.9547Z" fill="#F1B517" stroke="black" stroke-width="0.03"/>
<path d="M12.032 12.7203V13.0008C12.032 13.0339 11.9515 13.0608 11.8524 13.0608C11.7533 13.0608 11.6729 13.0339 11.6729 13.0008V12.7203" stroke="black" stroke-width="0.03"/>
<path d="M11.9907 12.7012C11.9907 12.7213 11.9285 12.7375 11.8518 12.7375C11.7751 12.7375 11.7129 12.7213 11.7129 12.7012C11.7129 12.6812 11.7751 12.6649 11.8518 12.6649C11.9285 12.6649 11.9907 12.6812 11.9907 12.7012Z" fill="white" stroke="white" stroke-width="0.03"/>
<path d="M11.8066 12.7289L11.8128 12.7789C11.8249 12.7798 11.8374 12.7804 11.8502 12.7805L11.8594 12.7289H11.8066V12.7289Z" fill="#F1B517" stroke="black" stroke-width="0.03"/>
<path d="M11.9675 12.7161L11.9316 12.7259L11.9339 12.773C11.9461 12.7709 11.9576 12.7683 11.9679 12.7654L11.9675 12.7161H11.9675Z" fill="#F1B517" stroke="black" stroke-width="0.03"/>
<path d="M11.7558 12.6393C11.7457 12.6424 11.7362 12.646 11.7275 12.6499L11.7326 12.6876L11.7554 12.6802L11.7558 12.6393H11.7558Z" fill="#F1B517" stroke="black" stroke-width="0.03"/>
<path d="M11.8511 12.6245C11.8463 12.6245 11.8416 12.6247 11.8369 12.6249L11.8447 12.6722L11.8684 12.6717L11.8778 12.6256C11.869 12.625 11.8602 12.6245 11.8511 12.6245V12.6245Z" fill="#F1B517" stroke="black" stroke-width="0.03"/>
<path d="M11.956 12.6415L11.9512 12.6828L11.9783 12.6926L11.9813 12.652C11.9736 12.6481 11.9651 12.6446 11.956 12.6415H11.956Z" fill="#F1B517" stroke="black" stroke-width="0.03"/>
<path d="M11.7004 12.7516L11.7076 12.7001L11.6709 12.6799L11.672 12.7385L11.7004 12.7516Z" fill="#F1B517" stroke="black" stroke-width="0.03"/>
<path d="M12.0308 12.742L12.0324 12.6905L11.998 12.701L12.0308 12.742Z" fill="#F1B517" stroke="black" stroke-width="0.03"/>
<path d="M12.3963 12.4017C12.429 12.3972 12.4773 12.4427 12.4802 12.4991C12.4825 12.5438 12.4138 12.5414 12.4138 12.5414C12.4103 12.5598 12.3724 12.5767 12.3416 12.5781C12.3116 12.5794 12.3497 12.5208 12.3497 12.5208C12.3311 12.4705 12.3555 12.4109 12.3555 12.4109L12.3963 12.4017Z" fill="#F1B517" stroke="black" stroke-width="0.03"/>
<path d="M12.3496 12.5198L12.3811 12.5186C12.3811 12.5186 12.3835 12.5351 12.3892 12.5358C12.3954 12.5365 12.402 12.5198 12.402 12.5198L12.4498 12.5186" fill="#F1B517"/>
<path d="M12.3496 12.5198L12.3811 12.5186C12.3811 12.5186 12.3835 12.5351 12.3892 12.5358C12.3954 12.5365 12.402 12.5198 12.402 12.5198L12.4498 12.5186" stroke="black" stroke-width="0.03"/>
<path d="M12.4135 12.4354C12.4402 12.4157 12.4168 12.3762 12.3983 12.3759L12.3552 12.377C12.3349 12.3774 12.3005 12.3999 12.3051 12.4194C12.3091 12.4363 12.3203 12.4441 12.3377 12.4411C12.3457 12.4398 12.3623 12.4186 12.3704 12.4182C12.3811 12.4177 12.4048 12.4418 12.4135 12.4354V12.4354Z" fill="#D20014" stroke="#F1B517" stroke-width="0.03"/>
<path fill-rule="evenodd" clip-rule="evenodd" d="M10.4534 12.9939C10.4292 12.997 10.4247 13.0254 10.4338 13.0515C10.3283 13.0817 10.234 13.1211 10.141 13.1477C10.1372 13.1288 10.1871 13.0739 10.1871 13.0739C10.2003 13.0804 10.2101 13.1112 10.2101 13.1112C10.2134 13.048 10.2745 13.006 10.2745 13.006C10.2382 13.0011 10.1279 13.0447 10.1147 13.0625C10.1147 13.0625 10.1574 13.0576 10.164 13.0625C10.164 13.0625 10.0799 13.155 10.0762 13.1825C10.0893 13.2125 10.2343 13.2349 10.2343 13.2349C10.232 13.2427 10.1916 13.2722 10.1916 13.2722C10.2493 13.2851 10.3363 13.2434 10.3623 13.2181C10.3623 13.2181 10.2945 13.2124 10.2416 13.1688C10.2416 13.1688 10.2525 13.196 10.2459 13.2089C10.2459 13.2089 10.1635 13.1847 10.1549 13.1708C10.1551 13.1696 10.3499 13.1182 10.4443 13.0908C10.4477 13.1079 10.4665 13.1403 10.489 13.1327C10.5037 13.1277 10.499 13.0981 10.4935 13.0771C10.4988 13.0817 10.5057 13.0845 10.5134 13.0845C10.53 13.0845 10.5435 13.0714 10.5435 13.0551C10.5435 13.0388 10.53 13.0255 10.5134 13.0255C10.5001 13.0255 10.4891 13.034 10.4851 13.0457C10.4813 13.0276 10.4715 12.9915 10.4534 12.9939ZM10.5276 13.055C10.5276 13.0626 10.5213 13.0688 10.5135 13.0688C10.5057 13.0688 10.4994 13.0626 10.4994 13.055C10.4994 13.0474 10.5057 13.0412 10.5135 13.0412C10.5213 13.0412 10.5276 13.0474 10.5276 13.055Z" fill="#F1B517" stroke="black" stroke-width="0.03"/>
<path d="M13.5497 13.1163C13.5569 13.1017 13.5434 13.0279 13.5434 13.0279C13.5287 13.0295 13.5087 13.0551 13.5087 13.0551C13.5276 12.9947 13.4748 12.8936 13.4748 12.8936C13.5105 12.9012 13.6297 13.0187 13.6359 13.0399C13.6359 13.0399 13.5837 13.021 13.5758 13.0233C13.5843 13.0835 13.6252 13.1115 13.6406 13.1428C13.6406 13.1428 13.5728 13.158 13.5796 13.2157L13.5353 13.2165C13.52 13.1973 13.5413 13.1655 13.5413 13.1655L13.2374 13.0359C13.2178 13.0275 13.1738 13.0071 13.1804 12.9832C13.187 12.959 13.2595 12.9932 13.2774 12.9991L13.5497 13.1163V13.1163Z" fill="#F1B517" stroke="black" stroke-width="0.03"/>
<path d="M13.2581 13.0619L13.2939 12.995C13.3066 12.9774 13.2803 12.9582 13.2615 12.9808L13.2215 13.0418C13.2036 13.0753 13.2411 13.0845 13.2581 13.0619Z" fill="#F1B517" stroke="black" stroke-width="0.03"/>
<path d="M11.1273 13.2136L11.1248 13.1406L11.0382 13.1455L11.0332 13.225L11.1273 13.2136H11.1273Z" fill="white" stroke="black" stroke-width="0.03"/>
<path d="M10.4935 13.3158L10.3776 13.2496C10.8555 13.2942 10.9531 13.1244 11.0686 13.1153C11.1396 13.1097 11.1507 13.1954 11.0131 13.1546L11.0487 13.2443C11.0487 13.2443 10.7094 13.4387 10.376 13.3584L10.4935 13.3158H10.4935Z" fill="white" stroke="black" stroke-width="0.03"/>
<path d="M12.5752 13.2136L12.5777 13.1406L12.6837 13.1431L12.6886 13.2226L12.5752 13.2136L12.5752 13.2136Z" fill="white" stroke="black" stroke-width="0.03"/>
<path d="M13.2309 13.2981L13.3399 13.2375C12.7925 13.2541 12.9171 13.1459 12.6432 13.1155C12.5725 13.1077 12.5193 13.2003 12.6987 13.1548L12.6632 13.2445L12.7492 13.2446C12.9357 13.3696 13.1874 13.3808 13.3541 13.3406L13.2309 13.2981L13.2309 13.2981Z" fill="white" stroke="black" stroke-width="0.03"/>
<path d="M11.0107 13.1555V13.2817C11.0107 13.2817 11.3142 13.3964 11.8558 13.3964C12.3998 13.3964 12.7009 13.2817 12.7009 13.2817V13.1555C12.7009 13.1555 12.4712 13.2633 11.8558 13.2633C11.2428 13.2633 11.0107 13.1555 11.0107 13.1555Z" fill="white" stroke="black" stroke-width="0.03"/>
<path d="M11.0566 13.2827L11.0834 13.1903L11.0959 13.1938L11.0722 13.2753L11.1185 13.2882L11.1154 13.2991L11.0566 13.2827L11.0566 13.2827ZM11.1445 13.2421L11.146 13.2239L11.15 13.2084L11.1632 13.2116L11.1592 13.2272L11.1516 13.2438L11.1445 13.2421L11.1445 13.2421ZM11.2751 13.2358L11.2877 13.2384L11.2765 13.2927C11.2745 13.3022 11.2719 13.3095 11.2685 13.3146C11.2652 13.3197 11.2603 13.3235 11.2539 13.3258C11.2475 13.3282 11.2397 13.3284 11.2305 13.3266C11.2215 13.3248 11.2145 13.3218 11.2094 13.3176C11.2043 13.3135 11.2012 13.3082 11.1999 13.302C11.1987 13.2958 11.1991 13.2876 11.2011 13.2777L11.2124 13.2233L11.2251 13.2258L11.2138 13.2801C11.2121 13.2883 11.2117 13.2945 11.2124 13.2987C11.2131 13.3029 11.2152 13.3064 11.2185 13.3092C11.2219 13.3121 11.2262 13.314 11.2317 13.3151C11.241 13.317 11.2481 13.3163 11.2529 13.3129C11.2577 13.3095 11.2614 13.302 11.2638 13.2901L11.2751 13.2358L11.2751 13.2358ZM11.2893 13.3362L11.3051 13.2414L11.3182 13.2435L11.3565 13.3261L11.3689 13.2517L11.3811 13.2537L11.3653 13.3484L11.3522 13.3463L11.314 13.2637L11.3016 13.3382L11.2893 13.3362V13.3362ZM11.3891 13.3516L11.4025 13.2564L11.4154 13.2582L11.4019 13.3533L11.3891 13.3516V13.3516ZM11.4259 13.3096C11.4278 13.2938 11.4336 13.2819 11.4433 13.2739C11.4529 13.2659 11.4646 13.2627 11.4783 13.2642C11.4873 13.2652 11.4951 13.2682 11.5018 13.2732C11.5086 13.2782 11.5134 13.2847 11.5163 13.2927C11.5192 13.3006 11.5201 13.3094 11.5189 13.3189C11.5178 13.3286 11.5148 13.337 11.51 13.3442C11.5051 13.3514 11.4988 13.3566 11.4911 13.3597C11.4833 13.3628 11.4752 13.3639 11.4668 13.3629C11.4576 13.3619 11.4497 13.3588 11.443 13.3537C11.4363 13.3485 11.4316 13.342 11.4287 13.3341C11.4259 13.3261 11.425 13.318 11.4259 13.3096L11.4259 13.3096ZM11.4392 13.3113C11.4378 13.3228 11.4399 13.3322 11.4454 13.3395C11.451 13.3469 11.4585 13.3511 11.468 13.3521C11.4776 13.3532 11.486 13.3508 11.493 13.3448C11.5 13.3388 11.5043 13.3297 11.5057 13.3174C11.5066 13.3096 11.5061 13.3027 11.5041 13.2966C11.5021 13.2905 11.4987 13.2856 11.4939 13.2818C11.4891 13.278 11.4835 13.2758 11.4771 13.2751C11.468 13.2741 11.4599 13.2762 11.4526 13.2816C11.4453 13.287 11.4408 13.2969 11.4392 13.3113H11.4392ZM11.5298 13.3679L11.5378 13.2722L11.551 13.2733L11.5959 13.3526L11.6022 13.2774L11.6145 13.2784L11.6066 13.3741L11.5934 13.373L11.5484 13.2937L11.5422 13.3689L11.5298 13.3679ZM11.6669 13.3777L11.6711 13.2817L11.737 13.2845L11.7365 13.2958L11.6835 13.2936L11.6822 13.3233L11.7281 13.3253L11.7276 13.3366L11.6817 13.3346L11.6798 13.3782L11.6669 13.3776L11.6669 13.3777ZM11.7389 13.3808L11.7783 13.2855L11.7922 13.2857L11.8303 13.3825L11.8156 13.3823L11.8048 13.353L11.7639 13.3522L11.7526 13.3811L11.7389 13.3808V13.3808ZM11.7678 13.3419L11.801 13.3425L11.7913 13.3157C11.7883 13.3076 11.7862 13.3009 11.7848 13.2957C11.7834 13.3018 11.7815 13.3079 11.7791 13.3139L11.7678 13.3419V13.3419ZM11.843 13.3823L11.8432 13.2863L11.8561 13.2863L11.8559 13.3823L11.843 13.3823H11.843ZM11.9036 13.382L11.9023 13.2973L11.8701 13.2978L11.87 13.2864L11.9474 13.2854L11.9476 13.2967L11.9153 13.2971L11.9165 13.3819L11.9036 13.3821V13.382ZM11.9995 13.3797L11.9949 13.2838L12.0078 13.2832L12.0119 13.3678L12.0599 13.3656L12.0605 13.3769L11.9995 13.3797L11.9995 13.3797ZM12.0652 13.3768L12.0957 13.2784L12.1096 13.2774L12.1565 13.3704L12.1418 13.3714L12.1283 13.3432L12.0875 13.3461L12.0789 13.3758L12.0652 13.3768V13.3768ZM12.0905 13.3355L12.1236 13.3332L12.1115 13.3074C12.1078 13.2995 12.105 13.2931 12.1031 13.288C12.1023 13.2942 12.101 13.3004 12.0992 13.3066L12.0905 13.3355V13.3355ZM12.2053 13.3658L12.1945 13.2703L12.2601 13.2632L12.2614 13.2745L12.2087 13.2802L12.212 13.3098L12.2576 13.3048L12.2588 13.3161L12.2133 13.3211L12.2181 13.3644L12.2053 13.3658L12.2053 13.3658ZM12.2769 13.311C12.2746 13.2952 12.2772 13.2823 12.2845 13.2721C12.2918 13.262 12.3023 13.256 12.3159 13.254C12.3249 13.2528 12.3332 13.2538 12.341 13.257C12.3488 13.2601 12.3551 13.2652 12.36 13.2722C12.3648 13.2792 12.3679 13.2874 12.3693 13.2969C12.3707 13.3066 12.37 13.3155 12.3671 13.3236C12.3643 13.3318 12.3595 13.3384 12.3528 13.3433C12.3461 13.3482 12.3386 13.3513 12.3302 13.3525C12.3211 13.3537 12.3126 13.3527 12.3048 13.3494C12.297 13.3461 12.2907 13.3409 12.2859 13.334C12.2811 13.327 12.2782 13.3194 12.2769 13.311L12.2769 13.311ZM12.2902 13.3094C12.2918 13.3208 12.2963 13.3294 12.3035 13.3351C12.3107 13.3408 12.3191 13.343 12.3285 13.3417C12.3382 13.3403 12.3456 13.3359 12.3509 13.3284C12.3561 13.3208 12.3579 13.311 12.3561 13.2987C12.355 13.291 12.3527 13.2844 12.3492 13.279C12.3457 13.2736 12.3411 13.2697 12.3355 13.2672C12.33 13.2648 12.324 13.264 12.3176 13.2649C12.3085 13.2661 12.3012 13.2703 12.2955 13.2773C12.2899 13.2844 12.2881 13.295 12.2902 13.3094V13.3094ZM12.3928 13.3416L12.3754 13.2471L12.418 13.2395C12.4266 13.238 12.4333 13.2376 12.438 13.2385C12.4428 13.2394 12.4469 13.2418 12.4504 13.2456C12.4538 13.2495 12.4561 13.254 12.457 13.2592C12.4583 13.2659 12.4571 13.2719 12.4535 13.2773C12.4499 13.2827 12.4437 13.2868 12.4347 13.2897C12.4383 13.2907 12.4412 13.2918 12.4432 13.2931C12.4476 13.2957 12.4518 13.2993 12.4561 13.3037L12.4776 13.3265L12.4616 13.3293L12.4452 13.3119C12.4404 13.3069 12.4366 13.3031 12.4336 13.3006C12.4307 13.298 12.4281 13.2963 12.426 13.2954C12.4239 13.2945 12.4218 13.294 12.4197 13.2939C12.4182 13.2939 12.4158 13.2942 12.4126 13.2947L12.3978 13.2974L12.4055 13.3393L12.3928 13.3416H12.3928ZM12.3958 13.2865L12.4232 13.2816C12.429 13.2806 12.4334 13.2792 12.4365 13.2774C12.4395 13.2757 12.4417 13.2733 12.4429 13.2704C12.4441 13.2675 12.4445 13.2646 12.4439 13.2615C12.4431 13.257 12.4407 13.2537 12.4369 13.2514C12.4331 13.2491 12.4276 13.2486 12.4205 13.2498L12.39 13.2553L12.3958 13.2865H12.3958ZM12.5502 13.2761L12.5635 13.2764C12.5632 13.2872 12.5602 13.296 12.5546 13.3029C12.5489 13.3097 12.5411 13.3143 12.5312 13.3165C12.5209 13.3187 12.5121 13.3185 12.5047 13.3159C12.4973 13.3132 12.4911 13.3083 12.4859 13.3012C12.4808 13.2942 12.4772 13.2862 12.4751 13.2772C12.4729 13.2675 12.4728 13.2585 12.475 13.2504C12.4771 13.2423 12.4812 13.2356 12.4874 13.2303C12.4935 13.225 12.5008 13.2214 12.5092 13.2195C12.5187 13.2174 12.5273 13.218 12.5349 13.2214C12.5425 13.2247 12.5486 13.2304 12.5531 13.2385L12.5414 13.2441C12.5376 13.2378 12.5332 13.2335 12.5283 13.2314C12.5234 13.2292 12.5178 13.2288 12.5114 13.2302C12.504 13.2318 12.4983 13.2349 12.4942 13.2394C12.4901 13.244 12.4877 13.2494 12.487 13.2556C12.4863 13.2619 12.4867 13.2681 12.4881 13.2743C12.49 13.2823 12.4927 13.289 12.4965 13.2944C12.5002 13.2998 12.5049 13.3034 12.5105 13.3053C12.5162 13.3071 12.5219 13.3074 12.5277 13.3061C12.5348 13.3045 12.5403 13.3012 12.5443 13.2961C12.5483 13.291 12.5503 13.2843 12.5502 13.2761L12.5502 13.2761ZM12.5861 13.3022L12.5598 13.2097L12.6279 13.191L12.631 13.2019L12.5754 13.2172L12.5834 13.2455L12.6355 13.2312L12.6386 13.2421L12.5865 13.2564L12.5955 13.2878L12.6533 13.272L12.6564 13.2829L12.5861 13.3022H12.5861Z" fill="black"/>
<path d="M20 6L20 18L4 18L4 6L20 6ZM20 5L4 5C3.4 5 3 5.4 3 6L3 18C3 18.6 3.4 19 4 19L20 19C20.6 19 21 18.6 21 18L21 6C21 5.4 20.6 5 20 5Z" fill="#B5B5B5"/>
</svg>
