<svg width="24" height="24" viewBox="0 0 24 24" fill="none" xmlns="http://www.w3.org/2000/svg">
<path d="M20 6H4V18H20V6Z" fill="#00008B"/>
<path d="M4 6L13 10.5L4 6ZM13 6L4 10.5L13 6Z" fill="black"/>
<path d="M4 6L13 10.5M13 6L4 10.5" stroke="white" stroke-width="1.5"/>
<path d="M4 6L13 10.5L4 6ZM13 6L4 10.5L13 6Z" fill="black"/>
<path d="M4 6L13 10.5M13 6L4 10.5" stroke="#FF0000"/>
<path d="M8.5 6V11.25V6ZM4 8.25H14.5H4Z" fill="black"/>
<path d="M8.5 6V11.25M4 8.25H14.5" stroke="white" stroke-width="1.5"/>
<path d="M8.5 6V11.25V6ZM4 8.25H14.5H4Z" fill="black"/>
<path d="M8.5 6V11.25M4 8.25H14.5" stroke="#FF0000"/>
<path d="M4 10.5H13V6H16V12H4V10.5Z" fill="#00008B"/>
<path d="M16.4998 15.8574L16.6238 16.2429L17.0024 16.0995L16.7783 16.4367L17.1265 16.6433L16.7232 16.6784L16.7787 17.0795L16.4998 16.786L16.2209 17.0795L16.2764 16.6784L15.873 16.6433L16.2212 16.4367L15.9972 16.0995L16.3758 16.2429L16.4998 15.8574Z" fill="white"/>
<path d="M14.2498 12.2949L14.3738 12.6804L14.7524 12.537L14.5283 12.8742L14.8765 13.0808L14.4732 13.1159L14.5287 13.517L14.2498 13.2235L13.9709 13.517L14.0264 13.1159L13.623 13.0808L13.9712 12.8742L13.7472 12.537L14.1258 12.6804L14.2498 12.2949Z" fill="white"/>
<path d="M8.7002 13L9.09579 14.2616L10.3041 13.7922L9.58908 14.8961L10.7002 15.5724L9.41303 15.6873L9.59028 17L8.7002 16.0394L7.81011 17L7.98736 15.6873L6.7002 15.5724L7.81131 14.8961L7.09632 13.7922L8.3046 14.2616L8.7002 13Z" fill="white"/>
<path d="M16.4998 9.85742L16.6238 10.2429L17.0024 10.0995L16.7783 10.4367L17.1265 10.6433L16.7232 10.6784L16.7787 11.0795L16.4998 10.786L16.2209 11.0795L16.2764 10.6784L15.873 10.6433L16.2212 10.4367L15.9972 10.0995L16.3758 10.2429L16.4998 9.85742Z" fill="white"/>
<path d="M18.4998 11.6953L18.6238 12.0807L19.0024 11.9374L18.7783 12.2746L19.1265 12.4812L18.7232 12.5163L18.7787 12.9174L18.4998 12.6239L18.2209 12.9174L18.2764 12.5163L17.873 12.4812L18.2212 12.2746L17.9972 11.9374L18.3758 12.0807L18.4998 11.6953Z" fill="white"/>
<path d="M17.4006 13.5L17.4986 13.7402L17.7572 13.7591L17.5591 13.9265L17.621 14.1784L17.4006 14.0417L17.1802 14.1784L17.2421 13.9265L17.0439 13.7591L17.3026 13.7402L17.4006 13.5Z" fill="white"/>
<path d="M20 6L20 18L4 18L4 6L20 6ZM20 5L4 5C3.4 5 3 5.4 3 6L3 18C3 18.6 3.4 19 4 19L20 19C20.6 19 21 18.6 21 18L21 6C21 5.4 20.6 5 20 5Z" fill="#B5B5B5"/>
</svg>
