<svg width="24" height="24" viewBox="0 0 24 24" fill="none" xmlns="http://www.w3.org/2000/svg">
<path d="M20 6H4V18H20V6Z" fill="#DE2910"/>
<path d="M12.1932 13.9988C10.088 13.1091 11.0212 10.3672 13.0346 10.505C12.6273 10.7144 12.5683 11.105 12.8009 11.4668C13.0614 11.8719 12.7769 12.5238 12.4248 12.6822C11.8461 12.9427 11.7302 13.6372 12.1932 13.9988Z" fill="white"/>
<path d="M12.079 12.019L11.9606 12.2048L11.9177 11.9886L11.7041 11.9334L11.8966 11.8256L11.8832 11.6056L12.0449 11.7554L12.25 11.6745L12.1578 11.8747L12.2978 12.0448L12.079 12.019Z" fill="#DE2910"/>
<path d="M12.2053 13.9764C11.9507 13.8457 11.7454 13.5733 11.6559 13.2478C11.5536 12.8744 11.6125 12.4729 11.8176 12.147L11.7734 12.1191C11.5606 12.4577 11.4996 12.874 11.6057 13.2615C11.7003 13.606 11.91 13.8835 12.1815 14.0228L12.2053 13.9764Z" fill="#DE2910"/>
<path d="M20 6L20 18L4 18L4 6L20 6ZM20 5L4 5C3.4 5 3 5.4 3 6L3 18C3 18.6 3.4 19 4 19L20 19C20.6 19 21 18.6 21 18L21 6C21 5.4 20.6 5 20 5Z" fill="none"/>
<g clip-path="url(#clip0_14099_118002)">
<path fill-rule="evenodd" clip-rule="evenodd" d="M20.6108 18.032H3.42285V6H20.6108V18.032Z" fill="#BA0000"/>
<path fill-rule="evenodd" clip-rule="evenodd" d="M11.7726 11.8233C11.7726 11.8233 10.56 11.3016 10.7339 9.948C10.9007 9.29705 11.1992 8.8529 11.7373 8.61085C11.9911 8.5333 12.2496 8.49805 12.5128 8.4769C12.4423 8.5427 12.3859 8.6085 12.3554 8.6884C12.299 8.8388 12.3413 8.9798 12.4188 9.12315C12.5152 9.28765 12.5739 9.45685 12.5927 9.67775C12.6104 9.82828 12.5879 9.9808 12.5277 10.1199C12.4674 10.2589 12.3715 10.3796 12.2496 10.4697C12.0945 10.5895 11.9112 10.6318 11.7608 10.7681C11.6433 10.8809 11.5728 10.9961 11.5493 11.1935C11.5446 11.5718 11.6457 11.6259 11.7726 11.8233Z" fill="white"/>
<path fill-rule="evenodd" clip-rule="evenodd" d="M11.54 9.86626V9.8587V9.86626Z" fill="#BA0000"/>
<path d="M11.54 9.86626V9.8587" stroke="black" stroke-width="0.1"/>
<path d="M11.6169 11.6823C11.1469 11.2664 11.1869 10.2159 11.5464 9.86575" stroke="#BA0000" stroke-width="0.1"/>
<path fill-rule="evenodd" clip-rule="evenodd" d="M11.8361 9.63075L11.9137 9.76L11.7727 9.70125L11.6622 9.81875L11.681 9.666L11.54 9.60725L11.6928 9.572L11.7116 9.4216L11.7891 9.55085L11.9442 9.5156" fill="#BA0000"/>
<path fill-rule="evenodd" clip-rule="evenodd" d="M11.876 11.734C11.876 11.734 12.017 10.4203 13.3635 10.19C14.0356 10.1618 14.5479 10.3146 14.938 10.7611C15.0861 10.9796 15.1942 11.217 15.2905 11.4614C15.2083 11.4144 15.1307 11.3791 15.0414 11.3744C14.884 11.3627 14.7594 11.4449 14.6466 11.5601C14.5149 11.7059 14.3507 11.8186 14.1672 11.8891C14.0286 11.9504 13.8763 11.9739 13.7257 11.9574C13.5751 11.9409 13.4315 11.8849 13.3095 11.7951C13.1497 11.6799 13.0557 11.5178 12.8818 11.4144C12.7404 11.3304 12.5729 11.3019 12.4118 11.3345C12.0475 11.4426 12.0287 11.5554 11.876 11.734Z" fill="white"/>
<path fill-rule="evenodd" clip-rule="evenodd" d="M13.6787 10.9397H13.6853H13.6787Z" fill="#BA0000"/>
<path d="M13.6787 10.9397H13.6853" stroke="black" stroke-width="0.1"/>
<path d="M11.9629 11.546C12.2261 10.9726 13.2413 10.7047 13.6807 10.9444" stroke="#BA0000" stroke-width="0.1"/>
<path fill-rule="evenodd" clip-rule="evenodd" d="M13.9906 11.1536L13.8896 11.264L13.9037 11.1113L13.7627 11.0408L13.9107 11.0173L13.9248 10.8598L14.0047 11.0008L14.1551 10.9726L14.0541 11.0831L14.1316 11.2241" fill="#BA0000"/>
<path fill-rule="evenodd" clip-rule="evenodd" d="M11.9648 11.828C11.9648 11.828 13.2573 11.546 13.9012 12.7515C14.1433 13.379 14.1597 13.9124 13.8613 14.4224C13.7015 14.6339 13.5088 14.8101 13.309 14.9817C13.3278 14.8877 13.3349 14.8031 13.3114 14.7185C13.2738 14.5634 13.1563 14.4717 13.0106 14.4012C12.8298 14.3222 12.6703 14.2014 12.5453 14.0487C12.4439 13.9368 12.3738 13.8 12.342 13.6524C12.3103 13.5047 12.318 13.3512 12.3643 13.2074C12.4207 13.0194 12.5453 12.8784 12.5876 12.681C12.6228 12.5208 12.5968 12.3531 12.5147 12.211C12.2962 11.9008 12.1834 11.9173 11.9648 11.828Z" fill="white"/>
<path fill-rule="evenodd" clip-rule="evenodd" d="M13.29 13.2874L13.2953 13.2927L13.29 13.2874Z" fill="#BA0000"/>
<path d="M13.29 13.2874L13.2953 13.2927" stroke="black" stroke-width="0.1"/>
<path d="M12.1738 11.8515C12.7989 11.9197 13.3747 12.7962 13.2877 13.2921" stroke="#BA0000" stroke-width="0.1"/>
<path fill-rule="evenodd" clip-rule="evenodd" d="M13.1875 13.6516L13.0488 13.5905L13.2016 13.5552L13.2204 13.3978L13.2932 13.5317L13.446 13.4965L13.3402 13.614L13.4107 13.7479L13.2744 13.6868L13.1687 13.8067" fill="#BA0000"/>
<path fill-rule="evenodd" clip-rule="evenodd" d="M11.9369 11.9619C11.9369 11.9619 12.5691 13.1228 11.5962 14.0769C11.0604 14.4858 10.5528 14.6527 9.97938 14.5093C9.73263 14.4153 9.50938 14.2814 9.28613 14.1357C9.38013 14.1286 9.46708 14.1122 9.54228 14.0652C9.67858 13.9853 9.73263 13.8466 9.76083 13.6892C9.78529 13.4928 9.85618 13.3051 9.96763 13.1416C10.0465 13.0126 10.158 12.9067 10.2908 12.8345C10.4237 12.7623 10.5732 12.7264 10.7243 12.7304C10.9217 12.7327 11.0909 12.815 11.293 12.8009C11.4552 12.7797 11.5821 12.7351 11.7254 12.5941C11.9604 12.3003 11.9134 12.1946 11.9369 11.9596V11.9619Z" fill="white"/>
<path fill-rule="evenodd" clip-rule="evenodd" d="M10.9077 13.6446L10.9053 13.6495L10.9077 13.6446Z" fill="#BA0000"/>
<path d="M10.9077 13.6446L10.9053 13.6495" stroke="black" stroke-width="0.1"/>
<path d="M11.9702 12.1664C12.0854 12.7868 11.4039 13.5882 10.9033 13.6399" stroke="#BA0000" stroke-width="0.1"/>
<path fill-rule="evenodd" clip-rule="evenodd" d="M10.5297 13.6469L10.5509 13.4965L10.6284 13.6304L10.7835 13.6069L10.6754 13.715L10.753 13.849L10.6096 13.7808L10.5015 13.8889L10.5203 13.7385L10.377 13.6704" fill="#BA0000"/>
<path fill-rule="evenodd" clip-rule="evenodd" d="M11.7939 11.9361C11.7939 11.9361 10.9103 12.9184 9.68356 12.3215C9.11956 11.9526 8.79526 11.5272 8.74121 10.9397C8.74826 10.6742 8.79761 10.4204 8.86106 10.1642C8.90101 10.2488 8.94566 10.324 9.01381 10.3804C9.13366 10.4815 9.28406 10.4862 9.44386 10.4603C9.63567 10.4183 9.83477 10.4231 10.0243 10.4744C10.1727 10.5057 10.3102 10.5756 10.4229 10.6771C10.5356 10.7786 10.6194 10.9081 10.6659 11.0525C10.7293 11.2382 10.7082 11.4262 10.7904 11.6118C10.8609 11.7575 10.9455 11.8609 11.1265 11.9502C11.4837 12.0748 11.5659 11.9949 11.7939 11.9385V11.9361Z" fill="white"/>
<path fill-rule="evenodd" clip-rule="evenodd" d="M9.86465 11.5275L9.85938 11.5248L9.86465 11.5275Z" fill="#BA0000"/>
<path d="M9.86465 11.5275L9.85938 11.5248" stroke="black" stroke-width="0.1"/>
<path d="M11.6099 12.0371C11.0647 12.3497 10.0824 11.9737 9.86621 11.5201" stroke="#BA0000" stroke-width="0.1"/>
<path fill-rule="evenodd" clip-rule="evenodd" d="M9.73775 11.17L9.8858 11.1394L9.78475 11.2569L9.8576 11.3956L9.7213 11.3298L9.62025 11.4473L9.6367 11.2875L9.49805 11.2217L9.6461 11.1911L9.66255 11.0313" fill="#BA0000"/>
</g>
<defs>
<clipPath id="clip0_14099_118002">
<rect width="16" height="12" fill="white" transform="translate(4 6)"/>
</clipPath>
</defs>
</svg>
