<svg width="24" height="24" viewBox="0 0 24 24" fill="none" xmlns="http://www.w3.org/2000/svg">
<path d="M20 6H4V18H20V6Z" fill="#DA0000"/>
<path d="M20 6H4V14H20V6Z" fill="white"/>
<path d="M20 6H4V10H20V6Z" fill="#239F40"/>
<path d="M4.2666 9.392H5.42216M4.31105 9.812V9.57867H4.6666V9.76534H5.02216V9.57867H4.79993M4.44438 9.76534H4.53327M5.42216 9.76534H5.19993V9.57867H5.55549M5.55549 9.34534V9.76534H5.91105V9.34534M5.73327 9.34534V9.76534" stroke="white" stroke-width="0.1"/>
<path d="M4.2666 9.99927H5.0666M5.15549 9.99927H5.95549" stroke="white" stroke-width="0.1"/>
<path d="M11.2168 13.255C11.5031 13.3526 11.8128 13.3432 12.0932 13.2283C12.3736 13.1133 12.6075 12.9 12.7551 12.6245C12.9026 12.349 12.9548 12.0283 12.9027 11.717C12.8506 11.4057 12.6974 11.123 12.4692 10.9168C12.6177 11.1475 12.7021 11.417 12.713 11.6952C12.7238 11.9734 12.6607 12.2493 12.5307 12.492C12.4007 12.7347 12.209 12.9346 11.9769 13.0694C11.7449 13.2041 11.4817 13.2684 11.2168 13.255Z" fill="#DA0000"/>
<path d="M12.8835 12.9924C13.0717 12.8782 13.2231 12.7076 13.3184 12.5025C13.4136 12.2974 13.4484 12.0671 13.4182 11.8411C13.388 11.6151 13.2942 11.4037 13.1489 11.2341C13.0036 11.0644 12.8134 10.9441 12.6025 10.8887C12.7528 11.0073 12.8792 11.1558 12.9747 11.3258C13.0701 11.4958 13.1327 11.6839 13.1588 11.8793C13.1849 12.0747 13.174 12.2736 13.1268 12.4646C13.0796 12.6556 12.9969 12.835 12.8835 12.9924Z" fill="#DA0000"/>
<path d="M12.0001 13.4993L11.9287 11.9993L12.0001 10.8184C12.0435 10.882 12.1015 10.9331 12.1688 10.967V11.8487L12.1113 13.3386L12.0001 13.4993Z" fill="#DA0000"/>
<path d="M11.9717 10.7254L12.0003 10.7536C12.0293 10.797 12.0725 10.8276 12.1217 10.8398C12.1709 10.8519 12.2226 10.8446 12.267 10.8194C12.3115 10.7941 12.3455 10.7526 12.3627 10.7027C12.3799 10.6529 12.3791 10.5981 12.3604 10.5488C12.353 10.5899 12.3338 10.6275 12.3055 10.6568C12.2771 10.6861 12.2409 10.7055 12.2017 10.7126C12.1625 10.7196 12.1222 10.7139 12.0862 10.6962C12.0502 10.6784 12.0202 10.6496 12.0003 10.6134" fill="#DA0000"/>
<path d="M20 6L20 18L4 18L4 6L20 6ZM20 5L4 5C3.4 5 3 5.4 3 6L3 18C3 18.6 3.4 19 4 19L20 19C20.6 19 21 18.6 21 18L21 6C21 5.4 20.6 5 20 5Z" fill="none"/>
<g clip-path="url(#clip0_14099_118080)">
<path fill-rule="evenodd" clip-rule="evenodd" d="M2.8125 6H21.1875V18H2.8125V6Z" fill="white"/>
<path fill-rule="evenodd" clip-rule="evenodd" d="M2.8125 14.0586H21.1875V18.0008H2.8125V14.0586Z" fill="#DA0000"/>
<path fill-rule="evenodd" clip-rule="evenodd" d="M6.30664 14.2266H7.31152V14.3039H6.30664V14.2266ZM6.45635 14.6203H6.52607V14.6977H6.45635V14.6203ZM7.31563 14.6203V14.6977H7.11465V14.618L7.31563 14.6203ZM7.42227 14.2266H7.49199V14.6953H7.42227V14.2266Z" fill="white"/>
<path fill-rule="evenodd" clip-rule="evenodd" d="M7.82393 14.6188V14.6984H7.44248V14.6188H7.82393ZM7.11436 14.4336H7.17998V14.6984H7.1123L7.11436 14.4336Z" fill="white"/>
<path fill-rule="evenodd" clip-rule="evenodd" d="M7.7668 14.2266H7.83652V14.6953H7.7668V14.2266ZM7.59453 14.2266H7.66221V14.6953H7.59453V14.2266ZM6.67578 14.4141V14.4937H6.30664V14.4141H6.67578ZM7.48174 14.4141V14.4937H7.1126V14.4141H7.48174Z" fill="white"/>
<path fill-rule="evenodd" clip-rule="evenodd" d="M7.11436 14.4355H7.17998V14.6957H7.1123L7.11436 14.4355Z" fill="white"/>
<path fill-rule="evenodd" clip-rule="evenodd" d="M7.11436 14.4355H7.17998V14.6957H7.1123L7.11436 14.4355Z" fill="white"/>
<path fill-rule="evenodd" clip-rule="evenodd" d="M7.11455 14.4355H7.18018V14.6957H7.1125L7.11455 14.4355ZM6.30859 14.4355H6.37627V14.6957H6.30859V14.4355ZM6.89922 14.4355H6.96895V14.6957H6.89922V14.4355ZM6.60596 14.4355H6.67568V14.6957H6.60596V14.4355Z" fill="white"/>
<path fill-rule="evenodd" clip-rule="evenodd" d="M6.94639 14.618V14.6977H6.63672V14.618H6.94639ZM6.96689 14.4141V14.4937H6.77002V14.4141H6.96689Z" fill="white"/>
<path fill-rule="evenodd" clip-rule="evenodd" d="M4.6543 14.2266H5.65918V14.3039H4.6543V14.2266ZM4.804 14.6203H4.87373V14.6977H4.80195L4.804 14.6203ZM5.66328 14.6203V14.6977H5.4623V14.618L5.66328 14.6203ZM5.76992 14.2266H5.83965V14.6953H5.76992V14.2266Z" fill="white"/>
<path fill-rule="evenodd" clip-rule="evenodd" d="M6.17148 14.6188V14.6984H5.79004V14.6188H6.17148ZM5.46191 14.4336H5.52959V14.6984H5.46191V14.4336Z" fill="white"/>
<path fill-rule="evenodd" clip-rule="evenodd" d="M6.11445 14.2266H6.18418V14.6953H6.11445V14.2266ZM5.94219 14.2266H6.00986V14.6953H5.94219V14.2266ZM5.02344 14.4141V14.4937H4.6543V14.4141H5.02344ZM5.82939 14.4141V14.4937H5.46025V14.4141H5.82939Z" fill="white"/>
<path fill-rule="evenodd" clip-rule="evenodd" d="M5.46191 14.4355H5.52959V14.6957H5.46191V14.4355Z" fill="white"/>
<path fill-rule="evenodd" clip-rule="evenodd" d="M5.46191 14.4355H5.52959V14.6957H5.46191V14.4355Z" fill="white"/>
<path fill-rule="evenodd" clip-rule="evenodd" d="M5.46221 14.4355H5.52988V14.6957H5.46221V14.4355ZM4.65625 14.4355H4.72393V14.6957H4.65625V14.4355ZM5.24687 14.4355H5.31455V14.6957H5.24687V14.4355ZM4.95361 14.4355H5.02334V14.6957H4.95361V14.4355Z" fill="white"/>
<path fill-rule="evenodd" clip-rule="evenodd" d="M5.29395 14.618V14.6977H4.98633V14.618H5.29395ZM5.31445 14.4141V14.4937H5.11758V14.4141H5.31445Z" fill="white"/>
<path fill-rule="evenodd" clip-rule="evenodd" d="M7.94531 14.2266H8.9502V14.3039H7.94531V14.2266ZM8.09502 14.6203H8.16475V14.6977H8.09502V14.6203ZM8.9543 14.6203V14.6977H8.75332V14.618L8.9543 14.6203ZM9.06299 14.2266H9.13271V14.6953H9.06299V14.2266Z" fill="white"/>
<path fill-rule="evenodd" clip-rule="evenodd" d="M9.4625 14.6188V14.6984H9.08105V14.6188H9.4625ZM8.75293 14.4336H8.82266V14.6984H8.75293V14.4336Z" fill="white"/>
<path fill-rule="evenodd" clip-rule="evenodd" d="M9.40547 14.2266H9.4752V14.6953H9.40547V14.2266ZM9.2332 14.2266H9.30293V14.6953H9.23115L9.2332 14.2266ZM8.31445 14.4141V14.4937H7.94531V14.4141H8.31445ZM9.12041 14.4141V14.4937H8.75127V14.4141H9.12041Z" fill="white"/>
<path fill-rule="evenodd" clip-rule="evenodd" d="M8.75293 14.4355H8.82266V14.6957H8.75293V14.4355Z" fill="white"/>
<path fill-rule="evenodd" clip-rule="evenodd" d="M8.75293 14.4355H8.82266V14.6957H8.75293V14.4355Z" fill="white"/>
<path fill-rule="evenodd" clip-rule="evenodd" d="M8.75322 14.4355H8.82295V14.6957H8.75322V14.4355ZM7.94727 14.4355H8.01699V14.6957H7.94727V14.4355ZM8.53789 14.4355H8.60762V14.6957H8.53789V14.4355ZM8.24463 14.4355H8.31436V14.6957H8.24463V14.4355Z" fill="white"/>
<path fill-rule="evenodd" clip-rule="evenodd" d="M8.58711 14.618V14.6977H8.27539V14.618H8.58711ZM8.60762 14.4141V14.4937H8.41074V14.4141H8.60762Z" fill="white"/>
<path fill-rule="evenodd" clip-rule="evenodd" d="M19.5205 14.2266H20.5254V14.3039H19.5205V14.2266ZM19.6702 14.6203H19.7399V14.6977H19.6702V14.6203ZM20.5295 14.6203V14.6977H20.3265V14.618L20.5295 14.6203ZM20.6382 14.2266H20.7059V14.6953H20.6361L20.6382 14.2266Z" fill="white"/>
<path fill-rule="evenodd" clip-rule="evenodd" d="M20.9827 14.2266H21.0504V14.6953H20.9807L20.9827 14.2266ZM20.8084 14.2266H20.8781V14.6953H20.8084V14.2266ZM19.8896 14.4141V14.4937H19.5205V14.4141H19.8896ZM20.6956 14.4141V14.4937H20.3265V14.4141H20.6956Z" fill="white"/>
<path fill-rule="evenodd" clip-rule="evenodd" d="M20.3264 14.4355H20.3981V14.6957H20.3264V14.4355ZM19.5225 14.4355H19.5922V14.6957H19.5225V14.4355ZM20.1131 14.4355H20.1828V14.6957H20.1131V14.4355ZM19.8198 14.4355H19.8896V14.6957H19.8198V14.4355Z" fill="white"/>
<path fill-rule="evenodd" clip-rule="evenodd" d="M20.1623 14.618V14.6977H19.8506V14.618H20.1623ZM20.1828 14.4141V14.4937H19.9859V14.4141H20.1828Z" fill="white"/>
<path fill-rule="evenodd" clip-rule="evenodd" d="M9.59473 14.2266H10.6017V14.3039H9.59678L9.59473 14.2266ZM9.74648 14.6203H9.81416V14.6977H9.74648V14.6203ZM10.6037 14.6203V14.6977H10.4027V14.618L10.6037 14.6203ZM10.7124 14.2266H10.7821V14.6953H10.7124V14.2266Z" fill="white"/>
<path fill-rule="evenodd" clip-rule="evenodd" d="M11.114 14.6188V14.6984H10.7325V14.6188H11.114ZM10.4023 14.4336H10.4721V14.6984H10.4023V14.4336Z" fill="white"/>
<path fill-rule="evenodd" clip-rule="evenodd" d="M11.0568 14.2266H11.1266V14.6953H11.0568V14.2266ZM10.8825 14.2266H10.9522V14.6953H10.8825V14.2266ZM9.96377 14.4141V14.4937H9.59668V14.4141H9.96377ZM10.7697 14.4141V14.4937H10.4026V14.4141H10.7697Z" fill="white"/>
<path fill-rule="evenodd" clip-rule="evenodd" d="M10.4023 14.4355H10.4721V14.6957H10.4023V14.4355Z" fill="white"/>
<path fill-rule="evenodd" clip-rule="evenodd" d="M10.4023 14.4355H10.4721V14.6957H10.4023V14.4355Z" fill="white"/>
<path fill-rule="evenodd" clip-rule="evenodd" d="M10.4026 14.4355H10.4724V14.6957H10.4026V14.4355ZM9.59668 14.4355H9.66641V14.6957H9.59668V14.4355ZM10.1873 14.4355H10.257V14.6957H10.1873V14.4355ZM9.89609 14.4355H9.96377V14.6957H9.89609V14.4355Z" fill="white"/>
<path fill-rule="evenodd" clip-rule="evenodd" d="M10.2364 14.618V14.6977H9.92676V14.618H10.2364ZM10.2569 14.4141V14.4937H10.0601V14.4141H10.2569Z" fill="white"/>
<path fill-rule="evenodd" clip-rule="evenodd" d="M11.252 14.2266H12.2568V14.3039H11.252V14.2266ZM11.4017 14.6203H11.4714V14.6977H11.4017V14.6203ZM12.2609 14.6203V14.6977H12.06V14.618L12.2609 14.6203ZM12.3696 14.2266H12.4373V14.6953H12.3696V14.2266Z" fill="white"/>
<path fill-rule="evenodd" clip-rule="evenodd" d="M12.7691 14.6188V14.6984H12.3877V14.6188H12.7691ZM12.0596 14.4336H12.1293V14.6984H12.0596V14.4336Z" fill="white"/>
<path fill-rule="evenodd" clip-rule="evenodd" d="M12.7121 14.2266H12.7818V14.6953H12.7121V14.2266ZM12.5398 14.2266H12.6096V14.6953H12.5398V14.2266ZM11.6211 14.4141V14.4937H11.252V14.4141H11.6211ZM12.4271 14.4141V14.4937H12.0579V14.4141H12.4271Z" fill="white"/>
<path fill-rule="evenodd" clip-rule="evenodd" d="M12.0596 14.4355H12.1293V14.6957H12.0596V14.4355Z" fill="white"/>
<path fill-rule="evenodd" clip-rule="evenodd" d="M12.0596 14.4355H12.1293V14.6957H12.0596V14.4355Z" fill="white"/>
<path fill-rule="evenodd" clip-rule="evenodd" d="M12.0599 14.4355H12.1296V14.6957H12.0599V14.4355ZM11.2539 14.4355H11.3216V14.6957H11.2539V14.4355ZM11.8445 14.4355H11.9143V14.6957H11.8445V14.4355ZM11.5513 14.4355H11.621V14.6957H11.5492L11.5513 14.4355Z" fill="white"/>
<path fill-rule="evenodd" clip-rule="evenodd" d="M11.8937 14.618V14.6977H11.582V14.618H11.8937ZM11.9143 14.4141V14.4937H11.7133V14.4141H11.9143Z" fill="white"/>
<path fill-rule="evenodd" clip-rule="evenodd" d="M2.8125 6H21.1875V9.94219H2.8125V6Z" fill="#239F40"/>
<path fill-rule="evenodd" clip-rule="evenodd" d="M12.917 14.2266H13.9219V14.3039H12.917V14.2266ZM13.0667 14.6203H13.1364V14.6977H13.0667V14.6203ZM13.926 14.6203V14.6977H13.7229V14.618L13.926 14.6203ZM14.0347 14.2266H14.1023V14.6953H14.0347V14.2266Z" fill="white"/>
<path fill-rule="evenodd" clip-rule="evenodd" d="M14.4343 14.6188V14.6984H14.0528V14.6188H14.4343ZM13.7247 14.4336H13.7944V14.6984H13.7227L13.7247 14.4336Z" fill="white"/>
<path fill-rule="evenodd" clip-rule="evenodd" d="M14.3792 14.2266H14.4469V14.6953H14.3792V14.2266ZM14.2049 14.2266H14.2746V14.6953H14.2049V14.2266ZM13.2861 14.4141V14.4937H12.917V14.4141H13.2861ZM14.0921 14.4141V14.4937H13.7229V14.4141H14.0921Z" fill="white"/>
<path fill-rule="evenodd" clip-rule="evenodd" d="M13.7227 14.4355H13.7944V14.6957H13.7227V14.4355Z" fill="white"/>
<path fill-rule="evenodd" clip-rule="evenodd" d="M13.7227 14.4355H13.7944V14.6957H13.7227V14.4355Z" fill="white"/>
<path fill-rule="evenodd" clip-rule="evenodd" d="M13.7229 14.4355H13.7946V14.6957H13.7229V14.4355ZM12.9189 14.4355H12.9887V14.6957H12.9189V14.4355ZM13.5096 14.4355H13.5793V14.6957H13.5096V14.4355ZM13.2163 14.4355H13.286V14.6957H13.2163V14.4355Z" fill="white"/>
<path fill-rule="evenodd" clip-rule="evenodd" d="M13.5588 14.618V14.6977H13.2471V14.618H13.5588ZM13.5793 14.4141V14.4937H13.3824V14.4141H13.5793Z" fill="white"/>
<path fill-rule="evenodd" clip-rule="evenodd" d="M14.5713 14.2266H15.5762V14.3039H14.5713V14.2266ZM14.721 14.6203H14.7907V14.6977H14.721V14.6203ZM15.5823 14.6203V14.6977H15.3793V14.618L15.5823 14.6203ZM15.689 14.2266H15.7587V14.6953H15.689V14.2266Z" fill="white"/>
<path fill-rule="evenodd" clip-rule="evenodd" d="M16.0885 14.6188V14.6984H15.707V14.6188H16.0885ZM15.3789 14.4336H15.4486V14.6984H15.3789V14.4336Z" fill="white"/>
<path fill-rule="evenodd" clip-rule="evenodd" d="M16.0334 14.2266H16.1011V14.6953H16.0334V14.2266ZM15.8591 14.2266H15.9288V14.6953H15.8591V14.2266ZM14.9403 14.4141V14.4937H14.5732V14.4141H14.9403ZM15.7463 14.4141V14.4937H15.3792V14.4141H15.7463Z" fill="white"/>
<path fill-rule="evenodd" clip-rule="evenodd" d="M15.3789 14.4355H15.4486V14.6957H15.3789V14.4355Z" fill="white"/>
<path fill-rule="evenodd" clip-rule="evenodd" d="M15.3789 14.4355H15.4486V14.6957H15.3789V14.4355Z" fill="white"/>
<path fill-rule="evenodd" clip-rule="evenodd" d="M15.3792 14.4355H15.4489V14.6957H15.3792V14.4355ZM14.5732 14.4355H14.643V14.6957H14.5732V14.4355ZM15.1639 14.4355H15.2336V14.6957H15.1639V14.4355ZM14.8706 14.4355H14.9403V14.6957H14.8727L14.8706 14.4355Z" fill="white"/>
<path fill-rule="evenodd" clip-rule="evenodd" d="M15.213 14.618V14.6977H14.9033V14.618H15.213ZM15.2335 14.4141V14.4937H15.0346V14.4141H15.2335Z" fill="white"/>
<path fill-rule="evenodd" clip-rule="evenodd" d="M16.2285 14.2266H17.2334V14.3039H16.2285V14.2266ZM16.3782 14.6203H16.4479V14.6977H16.3782V14.6203ZM17.2375 14.6203V14.6977H17.0365V14.618L17.2375 14.6203ZM17.3441 14.2266H17.4139V14.6953H17.3441V14.2266Z" fill="white"/>
<path fill-rule="evenodd" clip-rule="evenodd" d="M17.7458 14.6188V14.6984H17.3644V14.6188H17.7458ZM17.0342 14.4336H17.1039V14.6984H17.0342V14.4336Z" fill="white"/>
<path fill-rule="evenodd" clip-rule="evenodd" d="M17.6887 14.2266H17.7584V14.6953H17.6887V14.2266ZM17.5164 14.2266H17.5841V14.6953H17.5164V14.2266ZM16.5977 14.4141V14.4937H16.2285V14.4141H16.5977ZM17.4036 14.4141V14.4937H17.0345V14.4141H17.4036Z" fill="white"/>
<path fill-rule="evenodd" clip-rule="evenodd" d="M17.0361 14.4355H17.1038V14.6957H17.0361V14.4355Z" fill="white"/>
<path fill-rule="evenodd" clip-rule="evenodd" d="M17.0361 14.4355H17.1038V14.6957H17.0361V14.4355Z" fill="white"/>
<path fill-rule="evenodd" clip-rule="evenodd" d="M17.0365 14.4355H17.1042V14.6957H17.0365V14.4355ZM16.2285 14.4355H16.2982V14.6957H16.2285V14.4355ZM16.8212 14.4355H16.8889V14.6957H16.8212V14.4355ZM16.5279 14.4355H16.5977V14.6957H16.5279V14.4355Z" fill="white"/>
<path fill-rule="evenodd" clip-rule="evenodd" d="M16.8683 14.618V14.6977H16.5586V14.618H16.8683ZM16.8888 14.4141V14.4937H16.6919V14.4141H16.8888Z" fill="white"/>
<path fill-rule="evenodd" clip-rule="evenodd" d="M17.8936 14.2266H18.8984V14.3039H17.8936V14.2266ZM18.0433 14.6203H18.113V14.6977H18.0433V14.6203ZM18.9025 14.6203V14.6977H18.7016V14.618L18.9025 14.6203ZM19.0092 14.2266H19.0789V14.6953H19.0092V14.2266Z" fill="white"/>
<path fill-rule="evenodd" clip-rule="evenodd" d="M19.4107 14.6188V14.6984H19.0293V14.6188H19.4107ZM18.7012 14.4336H18.7688V14.6984H18.7012V14.4336Z" fill="white"/>
<path fill-rule="evenodd" clip-rule="evenodd" d="M19.3537 14.2266H19.4234V14.6953H19.3537V14.2266ZM19.1814 14.2266H19.2491V14.6953H19.1814V14.2266ZM18.2627 14.4141V14.4937H17.8936V14.4141H18.2627ZM19.0687 14.4141V14.4937H18.6995V14.4141H19.0687Z" fill="white"/>
<path fill-rule="evenodd" clip-rule="evenodd" d="M18.7012 14.4355H18.7688V14.6957H18.7012V14.4355Z" fill="white"/>
<path fill-rule="evenodd" clip-rule="evenodd" d="M18.7012 14.4355H18.7688V14.6957H18.7012V14.4355Z" fill="white"/>
<path fill-rule="evenodd" clip-rule="evenodd" d="M18.7015 14.4355H18.7691V14.6957H18.7015V14.4355ZM17.8955 14.4355H17.9632V14.6957H17.8955V14.4355ZM18.4861 14.4355H18.5559V14.6957H18.4861V14.4355ZM18.1929 14.4355H18.2626V14.6957H18.1929V14.4355Z" fill="white"/>
<path fill-rule="evenodd" clip-rule="evenodd" d="M18.5333 14.618V14.6977H18.2236V14.618H18.5333ZM18.5538 14.4141V14.4937H18.3569V14.4141H18.5538Z" fill="white"/>
<path fill-rule="evenodd" clip-rule="evenodd" d="M2.98047 14.2266H3.98535V14.3039H2.98047V14.2266ZM3.13018 14.6203H3.1999V14.6977H3.13018V14.6203ZM3.9915 14.6203V14.6977H3.78848V14.618L3.9915 14.6203ZM4.09814 14.2266H4.16787V14.6953H4.09814V14.2266Z" fill="white"/>
<path fill-rule="evenodd" clip-rule="evenodd" d="M4.49766 14.6188V14.6984H4.11621V14.6188H4.49766ZM3.78809 14.4336H3.85781V14.6984H3.78809V14.4336Z" fill="white"/>
<path fill-rule="evenodd" clip-rule="evenodd" d="M4.44258 14.2266H4.51025V14.6953H4.44258V14.2266ZM4.26826 14.2266H4.33799V14.6953H4.26826V14.2266ZM3.34951 14.4141V14.4937H2.98242V14.4141H3.34951ZM4.15547 14.4141V14.4937H3.78838V14.4141H4.15547Z" fill="white"/>
<path fill-rule="evenodd" clip-rule="evenodd" d="M6.30664 9.36133H7.31152V9.44102H6.30664V9.36133ZM6.45635 9.75977H6.52607V9.83477H6.45635V9.75977ZM7.31563 9.75508V9.83477H7.11465V9.75508H7.31563ZM7.42227 9.36133H7.49199V9.83477H7.42227V9.36133Z" fill="white"/>
<path fill-rule="evenodd" clip-rule="evenodd" d="M7.82393 9.75547V9.83516H7.44248V9.75547H7.82393ZM7.11436 9.57031H7.17998V9.83516H7.1123L7.11436 9.57031Z" fill="white"/>
<path fill-rule="evenodd" clip-rule="evenodd" d="M7.7668 9.36133H7.83652V9.83477H7.7668V9.36133ZM7.59453 9.36133H7.66221V9.83477H7.59453V9.36133ZM6.67578 9.54883V9.62852H6.30664V9.55117L6.67578 9.54883ZM7.48174 9.54883V9.62852H7.1126V9.55117L7.48174 9.54883Z" fill="white"/>
<path fill-rule="evenodd" clip-rule="evenodd" d="M7.11436 9.57031H7.17998V9.83516H7.1123L7.11436 9.57031Z" fill="white"/>
<path fill-rule="evenodd" clip-rule="evenodd" d="M7.11436 9.57031H7.17998V9.83516H7.1123L7.11436 9.57031Z" fill="white"/>
<path fill-rule="evenodd" clip-rule="evenodd" d="M7.11455 9.57031H7.18018V9.83516H7.1125L7.11455 9.57031ZM6.30859 9.57031H6.37627V9.83516H6.30859V9.57031ZM6.89922 9.57031H6.96895V9.83516H6.89922V9.57031ZM6.60596 9.57031H6.67568V9.83516H6.60596V9.57031Z" fill="white"/>
<path fill-rule="evenodd" clip-rule="evenodd" d="M6.94639 9.75469V9.83438H6.63672V9.75469H6.94639ZM6.96689 9.55078V9.62813H6.77002V9.55078H6.96689Z" fill="white"/>
<path fill-rule="evenodd" clip-rule="evenodd" d="M4.6543 9.36133H5.65918V9.44102H4.6543V9.36133ZM4.804 9.75977H4.87373V9.83477H4.80195L4.804 9.75977ZM5.66328 9.75508V9.83477H5.4623V9.75508H5.66328ZM5.76992 9.36133H5.83965V9.83477H5.76992V9.36133Z" fill="white"/>
<path fill-rule="evenodd" clip-rule="evenodd" d="M6.17148 9.75547V9.83516H5.79004V9.75547H6.17148ZM5.46191 9.57031H5.52959V9.83516H5.46191V9.57031Z" fill="white"/>
<path fill-rule="evenodd" clip-rule="evenodd" d="M6.11445 9.36133H6.18418V9.83477H6.11445V9.36133ZM5.94219 9.36133H6.00986V9.83477H5.94219V9.36133ZM5.02344 9.54883V9.62852H4.6543V9.55117L5.02344 9.54883ZM5.82939 9.54883V9.62852H5.46025V9.55117L5.82939 9.54883Z" fill="white"/>
<path fill-rule="evenodd" clip-rule="evenodd" d="M5.46191 9.57031H5.52959V9.83516H5.46191V9.57031Z" fill="white"/>
<path fill-rule="evenodd" clip-rule="evenodd" d="M5.46191 9.57031H5.52959V9.83516H5.46191V9.57031Z" fill="white"/>
<path fill-rule="evenodd" clip-rule="evenodd" d="M5.46221 9.57031H5.52988V9.83516H5.46221V9.57031ZM4.65625 9.57031H4.72393V9.83516H4.65625V9.57031ZM5.24687 9.57031H5.31455V9.83516H5.24687V9.57031ZM4.95361 9.57031H5.02334V9.83516H4.95361V9.57031Z" fill="white"/>
<path fill-rule="evenodd" clip-rule="evenodd" d="M5.29395 9.75469V9.83438H4.98633V9.75469H5.29395ZM5.31445 9.55078V9.62813H5.11758V9.55078H5.31445Z" fill="white"/>
<path fill-rule="evenodd" clip-rule="evenodd" d="M7.94531 9.36133H8.9502V9.44102H7.94531V9.36133ZM8.09502 9.75977H8.16475V9.83477H8.09502V9.75977ZM8.9543 9.75508V9.83477H8.75332V9.75508H8.9543ZM9.06299 9.36133H9.13271V9.83477H9.06299V9.36133Z" fill="white"/>
<path fill-rule="evenodd" clip-rule="evenodd" d="M9.4625 9.75547V9.83516H9.08105V9.75547H9.4625ZM8.75293 9.57031H8.82266V9.83516H8.75293V9.57031Z" fill="white"/>
<path fill-rule="evenodd" clip-rule="evenodd" d="M9.40547 9.36133H9.4752V9.83477H9.40547V9.36133ZM9.2332 9.36133H9.30293V9.83477H9.23115L9.2332 9.36133ZM8.31445 9.54883V9.62852H7.94531V9.55117L8.31445 9.54883ZM9.12041 9.54883V9.62852H8.75127V9.55117L9.12041 9.54883Z" fill="white"/>
<path fill-rule="evenodd" clip-rule="evenodd" d="M8.75293 9.57031H8.82266V9.83516H8.75293V9.57031Z" fill="white"/>
<path fill-rule="evenodd" clip-rule="evenodd" d="M8.75293 9.57031H8.82266V9.83516H8.75293V9.57031Z" fill="white"/>
<path fill-rule="evenodd" clip-rule="evenodd" d="M8.75322 9.57031H8.82295V9.83516H8.75322V9.57031ZM7.94727 9.57031H8.01699V9.83516H7.94727V9.57031ZM8.53789 9.57031H8.60762V9.83516H8.53789V9.57031ZM8.24463 9.57031H8.31436V9.83516H8.24463V9.57031Z" fill="white"/>
<path fill-rule="evenodd" clip-rule="evenodd" d="M8.58711 9.75469V9.83438H8.27539V9.75469H8.58711ZM8.60762 9.55078V9.62813H8.41074V9.55078H8.60762Z" fill="white"/>
<path fill-rule="evenodd" clip-rule="evenodd" d="M19.5205 9.36133H20.5254V9.44102H19.5205V9.36133ZM19.6702 9.75977H19.7399V9.83477H19.6702V9.75977ZM20.5295 9.75508V9.83477H20.3265V9.75508H20.5295ZM20.6382 9.36133H20.7059V9.83477H20.6361L20.6382 9.36133Z" fill="white"/>
<path fill-rule="evenodd" clip-rule="evenodd" d="M20.9827 9.36133H21.0504V9.83477H20.9807L20.9827 9.36133ZM20.8084 9.36133H20.8781V9.83477H20.8084V9.36133ZM19.8896 9.54883V9.62852H19.5205V9.55117L19.8896 9.54883ZM20.6956 9.54883V9.62852H20.3265V9.55117L20.6956 9.54883Z" fill="white"/>
<path fill-rule="evenodd" clip-rule="evenodd" d="M20.3264 9.57031H20.3981V9.83516H20.3264V9.57031ZM19.5225 9.57031H19.5922V9.83516H19.5225V9.57031ZM20.1131 9.57031H20.1828V9.83516H20.1131V9.57031ZM19.8198 9.57031H19.8896V9.83516H19.8198V9.57031Z" fill="white"/>
<path fill-rule="evenodd" clip-rule="evenodd" d="M20.1623 9.75469V9.83438H19.8506V9.75469H20.1623ZM20.1828 9.55078V9.62813H19.9859V9.55078H20.1828Z" fill="white"/>
<path fill-rule="evenodd" clip-rule="evenodd" d="M9.59473 9.36133H10.6017V9.44102H9.59678L9.59473 9.36133ZM9.74648 9.75977H9.81416V9.83477H9.74648V9.75977ZM10.6037 9.75508V9.83477H10.4027V9.75508H10.6037ZM10.7124 9.36133H10.7821V9.83477H10.7124V9.36133Z" fill="white"/>
<path fill-rule="evenodd" clip-rule="evenodd" d="M11.114 9.75547V9.83516H10.7325V9.75547H11.114ZM10.4023 9.57031H10.4721V9.83516H10.4023V9.57031Z" fill="white"/>
<path fill-rule="evenodd" clip-rule="evenodd" d="M11.0568 9.36133H11.1266V9.83477H11.0568V9.36133ZM10.8825 9.36133H10.9522V9.83477H10.8825V9.36133ZM9.96377 9.54883V9.62852H9.59668V9.55117L9.96377 9.54883ZM10.7697 9.54883V9.62852H10.4026V9.55117L10.7697 9.54883Z" fill="white"/>
<path fill-rule="evenodd" clip-rule="evenodd" d="M10.4023 9.57031H10.4721V9.83516H10.4023V9.57031Z" fill="white"/>
<path fill-rule="evenodd" clip-rule="evenodd" d="M10.4023 9.57031H10.4721V9.83516H10.4023V9.57031Z" fill="white"/>
<path fill-rule="evenodd" clip-rule="evenodd" d="M10.4026 9.57031H10.4724V9.83516H10.4026V9.57031ZM9.59668 9.57031H9.66641V9.83516H9.59668V9.57031ZM10.1873 9.57031H10.257V9.83516H10.1873V9.57031ZM9.89609 9.57031H9.96377V9.83516H9.89609V9.57031Z" fill="white"/>
<path fill-rule="evenodd" clip-rule="evenodd" d="M10.2364 9.75469V9.83438H9.92676V9.75469H10.2364ZM10.2569 9.55078V9.62813H10.0601V9.55078H10.2569Z" fill="white"/>
<path fill-rule="evenodd" clip-rule="evenodd" d="M11.252 9.36133H12.2568V9.44102H11.252V9.36133ZM11.4017 9.75977H11.4714V9.83477H11.4017V9.75977ZM12.2609 9.75508V9.83477H12.06V9.75508H12.2609ZM12.3696 9.36133H12.4373V9.83477H12.3696V9.36133Z" fill="white"/>
<path fill-rule="evenodd" clip-rule="evenodd" d="M12.7691 9.75547V9.83516H12.3877V9.75547H12.7691ZM12.0596 9.57031H12.1293V9.83516H12.0596V9.57031Z" fill="white"/>
<path fill-rule="evenodd" clip-rule="evenodd" d="M12.7121 9.36133H12.7818V9.83477H12.7121V9.36133ZM12.5398 9.36133H12.6096V9.83477H12.5398V9.36133ZM11.6211 9.54883V9.62852H11.252V9.55117L11.6211 9.54883ZM12.4271 9.54883V9.62852H12.0579V9.55117L12.4271 9.54883Z" fill="white"/>
<path fill-rule="evenodd" clip-rule="evenodd" d="M12.0596 9.57031H12.1293V9.83516H12.0596V9.57031Z" fill="white"/>
<path fill-rule="evenodd" clip-rule="evenodd" d="M12.0596 9.57031H12.1293V9.83516H12.0596V9.57031Z" fill="white"/>
<path fill-rule="evenodd" clip-rule="evenodd" d="M12.0599 9.57031H12.1296V9.83516H12.0599V9.57031ZM11.2539 9.57031H11.3216V9.83516H11.2539V9.57031ZM11.8445 9.57031H11.9143V9.83516H11.8445V9.57031ZM11.5513 9.57031H11.621V9.83516H11.5492L11.5513 9.57031Z" fill="white"/>
<path fill-rule="evenodd" clip-rule="evenodd" d="M11.8937 9.75469V9.83438H11.582V9.75469H11.8937ZM11.9143 9.55078V9.62813H11.7133V9.55078H11.9143Z" fill="white"/>
<path fill-rule="evenodd" clip-rule="evenodd" d="M12.917 9.36133H13.9219V9.44102H12.917V9.36133ZM13.0667 9.75977H13.1364V9.83477H13.0667V9.75977ZM13.926 9.75508V9.83477H13.7229V9.75508H13.926ZM14.0347 9.36133H14.1023V9.83477H14.0347V9.36133Z" fill="white"/>
<path fill-rule="evenodd" clip-rule="evenodd" d="M14.4343 9.75547V9.83516H14.0528V9.75547H14.4343ZM13.7247 9.57031H13.7944V9.83516H13.7227L13.7247 9.57031Z" fill="white"/>
<path fill-rule="evenodd" clip-rule="evenodd" d="M14.3792 9.36133H14.4469V9.83477H14.3792V9.36133ZM14.2049 9.36133H14.2746V9.83477H14.2049V9.36133ZM13.2861 9.54883V9.62852H12.917V9.55117L13.2861 9.54883ZM14.0921 9.54883V9.62852H13.7229V9.55117L14.0921 9.54883Z" fill="white"/>
<path fill-rule="evenodd" clip-rule="evenodd" d="M13.7227 9.57031H13.7944V9.83516H13.7227V9.57031Z" fill="white"/>
<path fill-rule="evenodd" clip-rule="evenodd" d="M13.7227 9.57031H13.7944V9.83516H13.7227V9.57031Z" fill="white"/>
<path fill-rule="evenodd" clip-rule="evenodd" d="M13.7229 9.57031H13.7946V9.83516H13.7229V9.57031ZM12.9189 9.57031H12.9887V9.83516H12.9189V9.57031ZM13.5096 9.57031H13.5793V9.83516H13.5096V9.57031ZM13.2163 9.57031H13.286V9.83516H13.2163V9.57031Z" fill="white"/>
<path fill-rule="evenodd" clip-rule="evenodd" d="M13.5588 9.75469V9.83438H13.2471V9.75469H13.5588ZM13.5793 9.55078V9.62813H13.3824V9.55078H13.5793Z" fill="white"/>
<path fill-rule="evenodd" clip-rule="evenodd" d="M14.5713 9.36133H15.5762V9.44102H14.5713V9.36133ZM14.721 9.75977H14.7907V9.83477H14.721V9.75977ZM15.5823 9.75508V9.83477H15.3793V9.75508H15.5823ZM15.689 9.36133H15.7587V9.83477H15.689V9.36133Z" fill="white"/>
<path fill-rule="evenodd" clip-rule="evenodd" d="M16.0885 9.75547V9.83516H15.707V9.75547H16.0885ZM15.3789 9.57031H15.4486V9.83516H15.3789V9.57031Z" fill="white"/>
<path fill-rule="evenodd" clip-rule="evenodd" d="M16.0334 9.36133H16.1011V9.83477H16.0334V9.36133ZM15.8591 9.36133H15.9288V9.83477H15.8591V9.36133ZM14.9403 9.54883V9.62852H14.5732V9.55117L14.9403 9.54883ZM15.7463 9.54883V9.62852H15.3792V9.55117L15.7463 9.54883Z" fill="white"/>
<path fill-rule="evenodd" clip-rule="evenodd" d="M15.3789 9.57031H15.4486V9.83516H15.3789V9.57031Z" fill="white"/>
<path fill-rule="evenodd" clip-rule="evenodd" d="M15.3789 9.57031H15.4486V9.83516H15.3789V9.57031Z" fill="white"/>
<path fill-rule="evenodd" clip-rule="evenodd" d="M15.3792 9.57031H15.4489V9.83516H15.3792V9.57031ZM14.5732 9.57031H14.643V9.83516H14.5732V9.57031ZM15.1639 9.57031H15.2336V9.83516H15.1639V9.57031ZM14.8706 9.57031H14.9403V9.83516H14.8727L14.8706 9.57031Z" fill="white"/>
<path fill-rule="evenodd" clip-rule="evenodd" d="M15.213 9.75469V9.83438H14.9033V9.75469H15.213ZM15.2335 9.55078V9.62813H15.0346V9.55078H15.2335Z" fill="white"/>
<path fill-rule="evenodd" clip-rule="evenodd" d="M16.2285 9.36133H17.2334V9.44102H16.2285V9.36133ZM16.3782 9.75977H16.4479V9.83477H16.3782V9.75977ZM17.2375 9.75508V9.83477H17.0365V9.75508H17.2375ZM17.3441 9.36133H17.4139V9.83477H17.3441V9.36133Z" fill="white"/>
<path fill-rule="evenodd" clip-rule="evenodd" d="M17.7458 9.75547V9.83516H17.3644V9.75547H17.7458ZM17.0342 9.57031H17.1039V9.83516H17.0342V9.57031Z" fill="white"/>
<path fill-rule="evenodd" clip-rule="evenodd" d="M17.6887 9.36133H17.7584V9.83477H17.6887V9.36133ZM17.5164 9.36133H17.5841V9.83477H17.5164V9.36133ZM16.5977 9.54883V9.62852H16.2285V9.55117L16.5977 9.54883ZM17.4036 9.54883V9.62852H17.0345V9.55117L17.4036 9.54883Z" fill="white"/>
<path fill-rule="evenodd" clip-rule="evenodd" d="M17.0361 9.57031H17.1038V9.83516H17.0361V9.57031Z" fill="white"/>
<path fill-rule="evenodd" clip-rule="evenodd" d="M17.0361 9.57031H17.1038V9.83516H17.0361V9.57031Z" fill="white"/>
<path fill-rule="evenodd" clip-rule="evenodd" d="M17.0365 9.57031H17.1042V9.83516H17.0365V9.57031ZM16.2285 9.57031H16.2982V9.83516H16.2285V9.57031ZM16.8212 9.57031H16.8889V9.83516H16.8212V9.57031ZM16.5279 9.57031H16.5977V9.83516H16.5279V9.57031Z" fill="white"/>
<path fill-rule="evenodd" clip-rule="evenodd" d="M16.8683 9.75469V9.83438H16.5586V9.75469H16.8683ZM16.8888 9.55078V9.62813H16.6919V9.55078H16.8888Z" fill="white"/>
<path fill-rule="evenodd" clip-rule="evenodd" d="M17.8936 9.36133H18.8984V9.44102H17.8936V9.36133ZM18.0433 9.75977H18.113V9.83477H18.0433V9.75977ZM18.9025 9.75508V9.83477H18.7016V9.75508H18.9025ZM19.0092 9.36133H19.0789V9.83477H19.0092V9.36133Z" fill="white"/>
<path fill-rule="evenodd" clip-rule="evenodd" d="M19.4107 9.75547V9.83516H19.0293V9.75547H19.4107ZM18.7012 9.57031H18.7688V9.83516H18.7012V9.57031Z" fill="white"/>
<path fill-rule="evenodd" clip-rule="evenodd" d="M19.3537 9.36133H19.4234V9.83477H19.3537V9.36133ZM19.1814 9.36133H19.2491V9.83477H19.1814V9.36133ZM18.2627 9.54883V9.62852H17.8936V9.55117L18.2627 9.54883ZM19.0687 9.54883V9.62852H18.6995V9.55117L19.0687 9.54883Z" fill="white"/>
<path fill-rule="evenodd" clip-rule="evenodd" d="M18.7012 9.57031H18.7688V9.83516H18.7012V9.57031Z" fill="white"/>
<path fill-rule="evenodd" clip-rule="evenodd" d="M18.7012 9.57031H18.7688V9.83516H18.7012V9.57031Z" fill="white"/>
<path fill-rule="evenodd" clip-rule="evenodd" d="M18.7015 9.57031H18.7691V9.83516H18.7015V9.57031ZM17.8955 9.57031H17.9632V9.83516H17.8955V9.57031ZM18.4861 9.57031H18.5559V9.83516H18.4861V9.57031ZM18.1929 9.57031H18.2626V9.83516H18.1929V9.57031Z" fill="white"/>
<path fill-rule="evenodd" clip-rule="evenodd" d="M18.5333 9.75469V9.83438H18.2236V9.75469H18.5333ZM18.5538 9.55078V9.62813H18.3569V9.55078H18.5538Z" fill="white"/>
<path fill-rule="evenodd" clip-rule="evenodd" d="M2.98047 9.36133H3.98535V9.44102H2.98047V9.36133ZM3.13018 9.75977H3.1999V9.83477H3.13018V9.75977ZM3.9915 9.75508V9.83477H3.78848V9.75508H3.9915ZM4.09814 9.36133H4.16787V9.83477H4.09814V9.36133Z" fill="white"/>
<path fill-rule="evenodd" clip-rule="evenodd" d="M4.49766 9.75547V9.83516H4.11621V9.75547H4.49766ZM3.78809 9.57031H3.85781V9.83516H3.78809V9.57031Z" fill="white"/>
<path fill-rule="evenodd" clip-rule="evenodd" d="M4.44258 9.36133H4.51025V9.83477H4.44258V9.36133ZM4.26826 9.36133H4.33799V9.83477H4.26826V9.36133ZM3.34951 9.54883V9.62852H2.98242V9.55117L3.34951 9.54883ZM4.15547 9.54883V9.62852H3.78838V9.55117L4.15547 9.54883Z" fill="white"/>
<path fill-rule="evenodd" clip-rule="evenodd" d="M5.33906 13.957H5.46211V14.2031H5.33906V13.957ZM8.63057 13.957H8.75361V14.2031H8.63057V13.957ZM2.8125 13.957H2.93555V14.2031H2.8125V13.957ZM4.48389 13.957H4.60693V14.2031H4.48389V13.957ZM6.14297 13.957H6.26602V14.2031H6.14297V13.957ZM6.96328 13.957H7.08633V14.2031H6.96328V13.957ZM7.80205 13.957H7.9251V14.2031H7.80205V13.957ZM9.45088 13.957H9.57393V14.2031H9.45088V13.957ZM13.614 13.957H13.7391V14.2031H13.616L13.614 13.957ZM10.2896 13.957H10.4127V14.2031H10.2896V13.957ZM11.11 13.957H11.233V14.2031H11.11V13.957ZM11.9405 13.957H12.0636V14.2031H11.9405V13.957ZM12.769 13.957H12.8921V14.2031H12.769V13.957ZM19.3972 13.957H19.5202V14.2031H19.3972V13.957ZM14.4199 13.957H14.543V14.2031H14.4199V13.957ZM15.2566 13.957H15.3797V14.2031H15.2566V13.957ZM16.1036 13.957H16.2267V14.2031H16.1036V13.957ZM16.8993 13.957H17.0224V14.2031H16.8993V13.957ZM17.7463 13.957H17.8693V14.2031H17.7463V13.957ZM18.5748 13.957H18.6979V14.2031H18.5748V13.957ZM21.0296 13.957H21.1526V14.2031H21.0296V13.957ZM20.2339 13.957H20.3569V14.2031H20.2339V13.957ZM3.64512 13.957H3.76816V14.2031H3.64512V13.957Z" fill="#D90000"/>
<path fill-rule="evenodd" clip-rule="evenodd" d="M5.33906 9.81055H5.46211V10.0566H5.33906V9.81055ZM8.63057 9.81055H8.75361V10.0566H8.63057V9.81055ZM2.8125 9.81055H2.93555V10.0566H2.8125V9.81055ZM4.48389 9.81055H4.60693V10.0566H4.48389V9.81055ZM6.14297 9.81055H6.26602V10.0566H6.14297V9.81055ZM6.96328 9.81055H7.08633V10.0566H6.96328V9.81055ZM7.80205 9.81055H7.9251V10.0566H7.80205V9.81055ZM9.45088 9.81055H9.57393V10.0566H9.45088V9.81055ZM13.614 9.81055H13.7391V10.0566H13.616L13.614 9.81055ZM10.2896 9.81055H10.4127V10.0566H10.2896V9.81055ZM11.11 9.81055H11.233V10.0566H11.11V9.81055ZM11.9405 9.81055H12.0636V10.0566H11.9405V9.81055ZM12.769 9.81055H12.8921V10.0566H12.769V9.81055ZM19.3972 9.81055H19.5202V10.0566H19.3972V9.81055ZM14.4199 9.81055H14.543V10.0566H14.4199V9.81055ZM15.2566 9.81055H15.3797V10.0566H15.2566V9.81055ZM16.1036 9.81055H16.2267V10.0566H16.1036V9.81055ZM16.8993 9.81055H17.0224V10.0566H16.8993V9.81055ZM17.7463 9.81055H17.8693V10.0566H17.7463V9.81055ZM18.5748 9.81055H18.6979V10.0566H18.5748V9.81055ZM21.0296 9.81055H21.1526V10.0566H21.0296V9.81055ZM20.2339 9.81055H20.3569V10.0566H20.2339V9.81055ZM3.64512 9.81055H3.76816V10.0566H3.64512V9.81055Z" fill="#239E3F"/>
<path fill-rule="evenodd" clip-rule="evenodd" d="M12.4883 10.6289C12.6606 10.8727 13.1958 12.2133 12.1664 13.0945C11.6803 13.5117 11.9818 13.5305 11.9961 13.6008C12.7754 13.1297 13.0277 12.4875 13.0215 11.9133C13.0174 11.3414 12.7508 10.8352 12.4883 10.6289Z" fill="#DA0000"/>
<path fill-rule="evenodd" clip-rule="evenodd" d="M12.5909 10.5664C12.7812 10.6987 12.9434 10.8777 13.0657 11.0904C13.188 11.3031 13.2675 11.5443 13.2983 11.7964C13.3291 12.0485 13.3105 12.3053 13.2439 12.5481C13.1772 12.791 13.0642 13.0139 12.9129 13.2008C13.4707 13.0602 14.1844 11.1758 12.5909 10.5664ZM11.4097 10.5664C11.2196 10.6989 11.0576 10.8781 10.9354 11.0909C10.8133 11.3037 10.7341 11.5449 10.7034 11.7969C10.6728 12.049 10.6916 12.3057 10.7584 12.5485C10.8252 12.7913 10.9384 13.0141 11.0898 13.2008C10.5299 13.0602 9.81828 11.1758 11.4097 10.5664Z" fill="#DA0000"/>
<path fill-rule="evenodd" clip-rule="evenodd" d="M11.5118 10.6289C11.3396 10.8727 10.8043 12.2133 11.8338 13.0945C12.3178 13.5117 12.0184 13.5305 12.004 13.6008C11.2247 13.1297 10.9725 12.4875 10.9786 11.9133C10.9827 11.3414 11.2493 10.8352 11.5118 10.6289Z" fill="#DA0000"/>
<path fill-rule="evenodd" clip-rule="evenodd" d="M12.9893 13.4793C12.6837 13.484 12.3002 13.4324 12.0151 13.2613C12.0623 13.3668 12.1013 13.4324 12.1484 13.5355C12.4191 13.566 12.7944 13.6012 12.9893 13.4793ZM11.041 13.4793C11.3466 13.484 11.7301 13.4324 12.0151 13.2613C11.968 13.3668 11.929 13.4324 11.8818 13.5355C11.6111 13.566 11.2358 13.6012 11.041 13.4793ZM11.6009 10.2285C11.6624 10.416 11.8244 10.4441 11.9967 10.334C12.1238 10.4184 12.3187 10.4254 12.3863 10.2379C12.4376 10.702 12.011 10.5895 11.9967 10.5004C11.8367 10.6762 11.5414 10.5754 11.6009 10.2285Z" fill="#DA0000"/>
<path fill-rule="evenodd" clip-rule="evenodd" d="M12.0085 13.7727L12.1685 13.5617L12.191 10.7469L12.0003 10.5547L11.8096 10.7375L11.8485 13.5734L12.0085 13.7727Z" fill="#DA0000"/>
</g>
<defs>
<clipPath id="clip0_14099_118080">
<rect width="16" height="12" fill="white" transform="translate(4 6)"/>
</clipPath>
</defs>
</svg>
