<svg width="24" height="24" viewBox="0 0 24 24" fill="none" xmlns="http://www.w3.org/2000/svg">
<path d="M20 10H4V14H20V10Z" fill="white"/>
<path d="M20 6H4V10H20V6Z" fill="#CE1126"/>
<path d="M20 14H4V18H20V14Z" fill="black"/>
<path d="M13.7759 11.2776C13.7515 11.2648 13.724 11.2441 13.7148 11.2315C13.7011 11.2123 13.7091 11.2116 13.7658 11.2269C13.8673 11.2545 13.9328 11.2437 13.9978 11.1887L14.0551 11.1404L14.1225 11.1748C14.1597 11.1935 14.1991 11.2065 14.2105 11.2035C14.2397 11.1958 14.3002 11.1181 14.2983 11.0912C14.2959 11.058 14.324 11.0663 14.3375 11.1027C14.3645 11.1742 14.3252 11.2561 14.2558 11.2743C14.2219 11.2832 14.1907 11.2799 14.1394 11.2621C14.0764 11.2401 14.0656 11.2404 14.034 11.2646C13.9632 11.3189 13.8646 11.3239 13.7759 11.2776Z" fill="#007A3D"/>
<path d="M14.027 11.0488C14.0023 11.0175 13.9727 10.8989 13.9823 10.8698C13.9907 10.8446 13.9994 10.8396 14.0223 10.8467C14.0626 10.8593 14.0718 10.887 14.0658 10.9809C14.0612 11.0574 14.0498 11.0775 14.027 11.0488Z" fill="#007A3D"/>
<path d="M11.0705 10.9629C11.0624 11.0203 11.1723 11.1629 11.2219 11.1887C11.1882 11.2039 11.1462 11.197 11.1153 11.214C10.9424 11.3869 10.3109 12.0026 10.1956 12.1498C10.5372 12.1565 10.916 12.1451 11.2362 12.1305C11.2359 11.8984 11.456 11.8864 11.6033 11.8019C11.679 11.9212 11.8693 11.9121 11.8931 12.0917C11.8931 12.3068 11.8935 12.6307 11.8935 12.8645C10.9274 12.8645 9.94171 12.8645 8.97562 12.8645C8.92429 13.0912 8.71968 13.2642 8.43457 13.193C8.52277 13.1009 8.67133 13.0692 8.72445 12.9419C8.76934 12.6631 8.63489 12.491 8.54791 12.3328C8.69174 12.2805 8.71355 12.2674 8.85978 12.1692C8.75717 12.481 9.12654 12.4467 9.40079 12.4396C9.41003 12.3337 9.40469 12.2087 9.32345 12.1933C9.42838 12.1552 9.44581 12.1421 9.61333 12.0001C9.61333 12.1289 9.61333 12.2914 9.61333 12.4201C10.2653 12.4201 10.9685 12.4153 11.634 12.4153C11.634 12.2838 11.6688 12.0726 11.5648 12.0726C11.4654 12.0726 11.5601 12.343 11.4829 12.343C11.4057 12.343 10.4441 12.343 9.92244 12.343C9.92244 12.2848 9.92095 12.1632 9.92095 12.0756C9.98708 12.0095 9.97924 12.0152 10.4311 11.5633C10.4761 11.5183 10.7931 11.2319 11.0705 10.9629Z" fill="#007A3D"/>
<path d="M14.9707 10.9531C15.0797 11.0117 15.1659 11.0929 15.2993 11.127C15.2838 11.1822 15.2347 11.2041 15.2218 11.2622C15.2218 11.6551 15.2218 12.048 15.2218 12.4408C15.3708 12.4736 15.4022 12.3892 15.4731 12.3442C15.4924 12.5328 15.6126 12.7178 15.6083 12.8658C15.3959 12.8658 15.1832 12.8658 14.9707 12.8658C14.9707 12.2284 14.9707 11.5907 14.9707 10.9531Z" fill="#007A3D"/>
<path d="M14.1208 11.5828C14.1208 11.5828 14.3528 11.387 14.3528 11.3794C14.3528 11.7143 14.3528 12.073 14.3528 12.408L14.5198 12.4077C14.5198 12.0158 14.5147 11.6184 14.5147 11.2542C14.5825 11.1864 14.7152 11.0882 14.7484 11.0195C14.7484 11.7197 14.7484 12.3123 14.7484 12.8615C14.2778 12.8615 13.3998 12.8621 13.2838 12.8621C13.2622 12.4798 13.2585 12.0838 13.7042 12.1689C13.7042 12.1038 13.7042 12.0652 13.7042 12.0129C13.6906 11.9863 13.6662 12.0194 13.6605 11.9847C13.7312 11.9139 13.7552 11.8958 13.9468 11.7285C13.9468 11.9304 13.9503 12.4072 13.9503 12.4072C13.9972 12.4072 14.0884 12.4074 14.1193 12.4074C14.1193 12.4075 14.1208 11.6091 14.1208 11.5828ZM13.571 12.3975C13.6024 12.4446 13.7092 12.4437 13.7042 12.3644C13.6862 12.299 13.5459 12.3239 13.571 12.3975Z" fill="#007A3D"/>
<path d="M9.33064 13.171C9.38003 13.171 9.42007 13.131 9.42007 13.0816C9.42007 13.0322 9.38003 12.9922 9.33064 12.9922C9.28125 12.9922 9.24121 13.0322 9.24121 13.0816C9.24121 13.131 9.28125 13.171 9.33064 13.171Z" fill="#007A3D"/>
<path d="M12.0909 10.9551C12.1998 11.0137 12.2861 11.0948 12.4194 11.129C12.404 11.1842 12.3548 11.206 12.342 11.2642C12.342 11.657 12.342 12.0499 12.342 12.4428C12.4909 12.4756 12.5223 12.3911 12.5932 12.3462C12.6125 12.5348 12.7327 12.7197 12.7284 12.8678C12.516 12.8678 12.3034 12.8678 12.0908 12.8678C12.0909 12.2303 12.0909 11.5927 12.0909 10.9551Z" fill="#007A3D"/>
<path d="M20 6L20 18L4 18L4 6L20 6ZM20 5L4 5C3.4 5 3 5.4 3 6L3 18C3 18.6 3.4 19 4 19L20 19C20.6 19 21 18.6 21 18L21 6C21 5.4 20.6 5 20 5Z" fill="#B5B5B5"/>
</svg>
