<svg width="24" height="24" viewBox="0 0 24 24" fill="none" xmlns="http://www.w3.org/2000/svg">
<path d="M20 6H4V18H20V6Z" fill="white"/>
<path d="M4 6L20 18L4 6ZM4 18L20 6L4 18Z" fill="black"/>
<path d="M4 6L20 18M4 18L20 6" stroke="#DF112D" stroke-width="2"/>
<path d="M12.9417 7.64672C13.173 8.6007 13.0462 9.77892 12.0013 10.4326C10.9564 9.77892 10.8296 8.6007 11.0609 7.64672C11.3072 7.41867 12.4267 7.27805 12.9417 7.64672H12.9417Z" fill="#E8112D" stroke="black" stroke-width="0.0153"/>
<path d="M12 7.45437C12.3831 7.45437 12.7398 7.55764 12.9501 7.69151C12.9914 7.36258 13.1378 7.03366 13.3106 6.78505C13.1304 6.78122 13.0496 6.87875 13.0478 6.98011C13.0027 6.85007 12.8262 6.85772 12.7717 6.92847C12.9689 7.06425 12.8168 7.30521 12.6385 7.25549C12.5547 7.23215 12.5104 7.17265 12.4947 7.08626C12.5186 7.08472 12.541 7.07427 12.5577 7.05692C12.5745 7.03957 12.5843 7.01653 12.5854 6.99223C12.5865 6.96793 12.5787 6.94408 12.5636 6.92525C12.5485 6.90642 12.5271 6.89394 12.5035 6.8902C12.4799 6.88646 12.4558 6.89173 12.4357 6.90499C12.4157 6.91826 12.4012 6.93859 12.395 6.96208C12.3888 6.98556 12.3913 7.01056 12.4021 7.03227C12.4129 7.05398 12.4311 7.07088 12.4534 7.07971C12.397 7.17342 12.2959 7.20155 12.2235 7.1809C12.1296 7.15413 12.0902 7.06808 12.0902 6.99158C12.0902 6.7927 12.2779 6.7621 12.3343 6.79653C12.3306 6.66266 12.124 6.55557 12.0602 6.66649C12.1315 6.53645 12.1278 6.35286 12.0001 6.23047C11.8724 6.35286 11.8687 6.53645 11.9401 6.66649C11.8762 6.55557 11.6697 6.66267 11.6659 6.79653C11.7222 6.76211 11.91 6.7927 11.91 6.99159C11.91 7.06808 11.8706 7.15414 11.7767 7.18091C11.7043 7.20156 11.6032 7.17343 11.5467 7.07972C11.569 7.07088 11.5873 7.05399 11.598 7.03228C11.6088 7.01057 11.6113 6.98557 11.6051 6.96208C11.5989 6.93859 11.5844 6.91827 11.5644 6.905C11.5444 6.89174 11.5202 6.88647 11.4966 6.8902C11.473 6.89394 11.4516 6.90642 11.4365 6.92525C11.4214 6.94408 11.4136 6.96794 11.4147 6.99224C11.4158 7.01654 11.4256 7.03957 11.4424 7.05693C11.4591 7.07428 11.4816 7.08473 11.5054 7.08627C11.4897 7.17265 11.4453 7.23215 11.3616 7.2555C11.1833 7.30521 11.0312 7.06426 11.2283 6.92848C11.1739 6.85772 10.9974 6.85007 10.9523 6.98011C10.9504 6.87876 10.8697 6.78123 10.6895 6.78506C10.8621 7.03366 11.0086 7.36259 11.0499 7.69152C11.2602 7.55764 11.617 7.45438 12 7.45438L12 7.45437Z" fill="#F9DD16" stroke="black" stroke-width="0.0153"/>
<path d="M12.795 8.39004C12.7719 8.39564 12.7719 8.42595 12.7598 8.42595C12.8199 8.42426 12.849 8.40743 12.8672 8.37657C12.854 8.38891 12.8655 8.41248 12.8611 8.41809C12.9052 8.40238 12.9261 8.36423 12.9108 8.33842C12.9206 8.353 12.9493 8.36086 12.9581 8.36198C12.9272 8.33729 12.9493 8.28119 12.8997 8.25202C12.9163 8.25089 12.9482 8.26997 12.957 8.29242C12.9493 8.24192 12.9415 8.20937 12.9008 8.18133C12.9052 8.18637 12.9283 8.19086 12.9382 8.18133C12.9119 8.16449 12.9041 8.13644 12.9064 8.11849C12.9094 8.09337 12.8931 8.08818 12.8622 8.09605C12.8345 8.10312 12.7708 8.10727 12.7334 8.10727C12.6563 8.10727 12.589 8.10727 12.5251 8.06238C12.621 8.10277 12.7433 8.0175 12.7433 7.94681C12.7433 7.86825 12.6485 7.80429 12.4568 7.84694C12.2651 7.88957 12.0316 7.87162 12.0316 7.80654C12.0316 7.74146 12.199 7.73248 12.285 7.74595C12.3709 7.75941 12.4326 7.76839 12.5934 7.71004C12.5538 7.72575 12.426 7.73023 12.3247 7.70107C12.2233 7.67189 11.9743 7.67189 11.9721 7.80879C11.9699 7.94568 12.2372 7.93321 12.4679 7.89856C12.6022 7.87835 12.6728 7.89182 12.6728 7.93671C12.6728 7.97934 12.5494 7.9973 12.4546 7.98608C12.3599 7.97486 12.2629 7.9771 12.1506 8.01077C12.0567 8.03887 11.9919 8.01077 11.8884 8.02872C11.8382 8.03741 11.7165 8.02872 11.6565 7.92772C11.6195 7.95466 11.5082 8.01104 11.4896 8.06603C11.4631 8.11652 11.4808 8.16674 11.5159 8.21611C11.5604 8.27825 11.494 8.26885 11.4466 8.27109C11.3817 8.27417 11.2947 8.26407 11.2494 8.21162C11.2092 8.16515 11.1557 8.1279 11.1129 8.16235C11.091 8.18008 11.112 8.20342 11.1294 8.19688C11.1467 8.19043 11.167 8.20342 11.1854 8.21162C11.156 8.19875 11.1237 8.20874 11.1111 8.22021C11.0937 8.23608 11.1148 8.26638 11.1359 8.25568C11.1524 8.24728 11.1862 8.24168 11.2082 8.26221C11.1844 8.25754 11.1596 8.25853 11.1478 8.27154C11.1359 8.28455 11.1451 8.3035 11.1707 8.30234C11.2119 8.30047 11.2224 8.32987 11.2637 8.32383C11.2384 8.3272 11.224 8.34066 11.2174 8.35076C11.2559 8.3328 11.2985 8.3812 11.3485 8.36983C11.329 8.37801 11.2976 8.39753 11.2979 8.41248C11.3276 8.37769 11.527 8.43941 11.5314 8.36311C11.5369 8.37882 11.5358 8.40238 11.5204 8.42258C11.5459 8.40686 11.6284 8.40126 11.6537 8.34066C11.6559 8.35861 11.6526 8.38218 11.6372 8.38779C11.6636 8.3966 11.6985 8.37653 11.7341 8.32271C11.7482 8.30136 11.7516 8.28717 11.7492 8.27111C11.7845 8.27247 11.8101 8.26344 11.8377 8.23967C11.8663 8.21499 11.8972 8.25987 11.9456 8.22845C11.9941 8.19703 12.036 8.22396 12.0624 8.20825C12.0888 8.19255 12.1252 8.21386 12.1539 8.19591C12.1825 8.17796 12.2269 8.2047 12.2744 8.16655C12.349 8.19439 12.4361 8.24598 12.6497 8.20601C12.7721 8.18309 12.8105 8.22508 12.8105 8.28231C12.8105 8.32158 12.7879 8.325 12.7708 8.32608C12.7027 8.33034 12.6735 8.30011 12.6466 8.3098C12.6286 8.31634 12.6176 8.34621 12.6436 8.35647C12.6221 8.36767 12.6249 8.38867 12.6359 8.39637C12.6469 8.40406 12.6752 8.39707 12.6945 8.38797C12.6697 8.3994 12.6441 8.41993 12.6587 8.44139C12.6676 8.45442 12.69 8.46546 12.711 8.43766C12.732 8.40966 12.7705 8.38633 12.795 8.39003L12.795 8.39004Z" fill="#F9DD16" stroke="black" stroke-width="0.0153"/>
<path d="M11.4378 7.79849C11.3761 7.77269 11.3553 7.77198 11.3695 7.82318C11.3756 7.84506 11.3904 7.87592 11.4053 7.88995C11.4059 7.86863 11.4136 7.80972 11.4378 7.79849H11.4378Z" fill="#F9DD16" stroke="black" stroke-width="0.0153"/>
<path d="M11.6309 7.79849C11.6926 7.77269 11.7134 7.77198 11.6992 7.82318C11.6931 7.84506 11.6782 7.87592 11.6633 7.88995C11.6628 7.86863 11.6551 7.80972 11.6309 7.79849H11.6309Z" fill="#F9DD16" stroke="black" stroke-width="0.0153"/>
<path d="M11.5341 7.76367C11.6509 7.76367 11.6655 7.81949 11.6649 7.88906C11.6644 7.96424 11.6247 7.93843 11.6022 8.03493C11.5934 8.07266 11.5638 8.07477 11.5341 8.07477C11.5044 8.07477 11.4749 8.07266 11.466 8.03493C11.4436 7.93843 11.4039 7.96423 11.4033 7.88905C11.4028 7.81949 11.4174 7.76367 11.5342 7.76367L11.5341 7.76367Z" fill="#F9DD16" stroke="black" stroke-width="0.0153"/>
<path d="M11.2336 8.03883C11.2038 8.02087 11.1846 8.0333 11.1725 8.03667C11.2111 8.04676 11.2126 8.09718 11.3008 8.12074C11.2809 8.11514 11.2699 8.12636 11.2511 8.11625C11.2875 8.14543 11.3283 8.17921 11.4142 8.18021C11.4622 8.18077 11.429 8.20602 11.3977 8.19143C11.4302 8.22566 11.4946 8.19761 11.5354 8.25989C11.5431 8.21164 11.4594 8.13533 11.4979 8.08035C11.3791 8.07519 11.3693 8.00808 11.3008 7.95467C11.245 7.91125 11.24 7.86712 11.2154 7.78448C11.2042 7.74706 11.1611 7.72373 11.1373 7.73259C11.1165 7.74034 11.1089 7.75873 11.1268 7.77249C11.1446 7.78626 11.1675 7.78812 11.1724 7.823C11.1492 7.79465 11.1144 7.78439 11.0977 7.80212C11.0875 7.81292 11.0916 7.8381 11.1135 7.84039C11.1492 7.84412 11.1235 7.87958 11.1641 7.91428C11.1282 7.87305 11.097 7.86932 11.0777 7.89172C11.0662 7.90513 11.0777 7.92904 11.1025 7.92648C11.1383 7.92277 11.1799 8.01538 11.2336 8.03883V8.03883Z" fill="#F9DD16" stroke="black" stroke-width="0.0153"/>
<path d="M12.1916 8.38485C12.1729 8.38821 12.1785 8.41964 12.1531 8.42188C12.2137 8.42188 12.2445 8.40729 12.2732 8.38373C12.26 8.39158 12.2545 8.41178 12.2534 8.42299C12.2853 8.39495 12.3613 8.39271 12.401 8.40056C12.4406 8.40841 12.4472 8.38934 12.4615 8.36353C12.4759 8.33772 12.456 8.32313 12.4362 8.30294C12.4164 8.28274 12.412 8.25469 12.4164 8.20756C12.3106 8.06393 12.1211 8.1335 12.1189 8.19634C12.1872 8.27712 12.196 8.26815 12.2534 8.27937C12.3106 8.29059 12.3457 8.29056 12.3073 8.32313C12.2941 8.33435 12.239 8.32909 12.196 8.33099C12.0999 8.33524 12.056 8.26338 12.0276 8.30071C12.0042 8.33141 12.0283 8.34496 12.076 8.34333C12.043 8.34357 11.9992 8.34175 12.0067 8.37304C12.0193 8.42576 12.0688 8.36324 12.0881 8.38493C12.0716 8.38097 12.0459 8.39124 12.045 8.4071C12.0441 8.42297 12.0816 8.4435 12.1229 8.41013C12.1455 8.39184 12.1743 8.38499 12.1916 8.38485H12.1916Z" fill="#F9DD16" stroke="black" stroke-width="0.0153"/>
<path d="M12.2742 8.16609C12.2398 8.15328 12.2083 8.14545 12.168 8.15393L12.2742 8.16609Z" fill="#F9DD16"/>
<path d="M12.2742 8.16609C12.2398 8.15328 12.2083 8.14545 12.168 8.15393" stroke="black" stroke-width="0.0153"/>
<path d="M11.7562 8.15039C11.7279 8.21231 11.745 8.24288 11.7492 8.2716L11.7562 8.15039Z" fill="#F9DD16"/>
<path d="M11.7562 8.15039C11.7279 8.21231 11.745 8.24288 11.7492 8.2716" stroke="black" stroke-width="0.0153"/>
<path d="M11.4541 7.85601C11.4735 7.8659 11.4844 7.83794 11.513 7.86763C11.5051 7.85897 11.4954 7.89064 11.4735 7.86962" fill="#F9DD16"/>
<path d="M11.4541 7.85601C11.4735 7.8659 11.4844 7.83794 11.513 7.86763C11.5051 7.85897 11.4954 7.89064 11.4735 7.86962" stroke="black" stroke-width="0.0153"/>
<path d="M11.6126 7.85601C11.5931 7.8659 11.5822 7.83794 11.5537 7.86763C11.5616 7.85897 11.5713 7.89064 11.5931 7.86962" fill="#F9DD16"/>
<path d="M11.6126 7.85601C11.5931 7.8659 11.5822 7.83794 11.5537 7.86763C11.5616 7.85897 11.5713 7.89064 11.5931 7.86962" stroke="black" stroke-width="0.0153"/>
<path d="M11.5538 7.86719C11.5471 7.87279 11.5464 7.86271 11.5515 7.8892C11.5609 7.93782 11.5719 7.96057 11.5333 7.96057C11.4939 7.96057 11.5058 7.93782 11.5151 7.8892C11.5203 7.86272 11.5196 7.87279 11.5129 7.86719" fill="#F9DD16"/>
<path d="M11.5538 7.86719C11.5471 7.87279 11.5464 7.86271 11.5515 7.8892C11.5609 7.93782 11.5719 7.96057 11.5333 7.96057C11.4939 7.96057 11.5058 7.93782 11.5151 7.8892C11.5203 7.86272 11.5196 7.87279 11.5129 7.86719" stroke="black" stroke-width="0.0153"/>
<path d="M11.5342 8.05299C11.5656 8.05299 11.5838 8.05243 11.5789 8.00755C11.5768 7.98954 11.6003 7.98236 11.5921 7.95312C11.6009 7.98903 11.5342 7.9856 11.5342 7.96933C11.5342 7.9856 11.4676 7.98903 11.4764 7.95312C11.4681 7.98236 11.4916 7.98954 11.4896 8.00755C11.4847 8.05243 11.5028 8.05299 11.5342 8.05299Z" fill="#FF0016" stroke="black" stroke-width="0.00765"/>
<path d="M11.506 7.96281L11.4307 7.94141L11.506 7.96281Z" fill="#FF0016"/>
<path d="M11.506 7.96281L11.4307 7.94141" stroke="black" stroke-width="0.00765"/>
<path d="M11.506 7.96751L11.4219 7.9668L11.506 7.96751Z" fill="#FF0016"/>
<path d="M11.506 7.96751L11.4219 7.9668" stroke="black" stroke-width="0.00765"/>
<path d="M11.5063 7.9707L11.4346 7.99029L11.5063 7.9707Z" fill="#FF0016"/>
<path d="M11.5063 7.9707L11.4346 7.99029" stroke="black" stroke-width="0.00765"/>
<path d="M11.5625 7.96282L11.6379 7.94141L11.5625 7.96282Z" fill="#FF0016"/>
<path d="M11.5625 7.96282L11.6379 7.94141" stroke="black" stroke-width="0.00765"/>
<path d="M11.5625 7.96751L11.6466 7.9668L11.5625 7.96751Z" fill="#FF0016"/>
<path d="M11.5625 7.96751L11.6466 7.9668" stroke="black" stroke-width="0.00765"/>
<path d="M11.5615 7.9707L11.6333 7.99029L11.5615 7.9707Z" fill="#FF0016"/>
<path d="M11.5615 7.9707L11.6333 7.99029" stroke="black" stroke-width="0.00765"/>
<path d="M11.1443 7.73492C11.1224 7.70713 11.0675 7.7306 11.0664 7.76509C11.085 7.74273 11.1152 7.77493 11.1317 7.76816C11.1432 7.76347 11.1532 7.74623 11.1443 7.73492L11.1443 7.73492Z" fill="#0051BA" stroke="black" stroke-width="0.00159"/>
<path d="M11.1159 7.80133C11.094 7.77354 11.0392 7.79701 11.0381 7.83149C11.0566 7.80914 11.0868 7.84134 11.1034 7.83457C11.1148 7.82988 11.1249 7.81264 11.1159 7.80133L11.1159 7.80133Z" fill="#0051BA" stroke="black" stroke-width="0.00159"/>
<path d="M11.1015 7.88827C11.0766 7.86316 11.0247 7.89277 11.0274 7.92716C11.0434 7.90283 11.077 7.93136 11.0927 7.92273C11.1035 7.91677 11.1116 7.89849 11.1015 7.88827V7.88827Z" fill="#0051BA" stroke="black" stroke-width="0.00159"/>
<path d="M11.1274 8.16301C11.0999 8.14098 11.0517 8.17647 11.0582 8.21032C11.0713 8.18428 11.1079 8.20868 11.1225 8.19828C11.1326 8.19108 11.1386 8.17198 11.1274 8.16301H11.1274Z" fill="#0051BA" stroke="black" stroke-width="0.00159"/>
<path d="M11.126 8.22266C11.0932 8.21032 11.058 8.2592 11.0745 8.28935C11.0791 8.26047 11.1213 8.27222 11.1321 8.25774C11.1395 8.24772 11.1394 8.22768 11.126 8.22266Z" fill="#0051BA" stroke="black" stroke-width="0.00159"/>
<path d="M11.1681 8.26777C11.1352 8.25542 11.1001 8.3043 11.1165 8.33446C11.1211 8.30557 11.1633 8.31732 11.1741 8.30284C11.1816 8.29282 11.1814 8.27278 11.1681 8.26777L11.1681 8.26777Z" fill="#0051BA" stroke="black" stroke-width="0.00159"/>
<path d="M12.0284 8.35547C11.9955 8.34314 11.9604 8.39201 11.9769 8.42216C11.9815 8.39328 12.0236 8.40504 12.0344 8.39055C12.0419 8.38053 12.0417 8.3605 12.0284 8.35547Z" fill="#0051BA" stroke="black" stroke-width="0.00159"/>
<path d="M12.0735 8.39526C12.0395 8.3868 12.0101 8.43944 12.0298 8.46749C12.0311 8.43826 12.0744 8.44504 12.0834 8.4294C12.0898 8.41859 12.0874 8.39869 12.0736 8.39526H12.0735Z" fill="#0051BA" stroke="black" stroke-width="0.00159"/>
<path d="M12.0423 8.29704C12.0119 8.27919 11.9691 8.32126 11.9803 8.35383C11.9897 8.32617 12.0293 8.34506 12.0424 8.33266C12.0514 8.32407 12.0546 8.3043 12.0423 8.29704V8.29704Z" fill="#0051BA" stroke="black" stroke-width="0.00159"/>
<path d="M12.6536 8.36809C12.6196 8.35965 12.5901 8.41228 12.6099 8.44033C12.6112 8.4111 12.6545 8.41789 12.6635 8.40225C12.6698 8.39143 12.6675 8.37154 12.6536 8.36809H12.6536Z" fill="#0051BA" stroke="black" stroke-width="0.00159"/>
<path d="M12.6549 8.31219C12.6241 8.29542 12.5827 8.33897 12.595 8.37112C12.6034 8.34315 12.6436 8.36064 12.6563 8.34779C12.665 8.33889 12.6675 8.31902 12.6549 8.31219Z" fill="#0051BA" stroke="black" stroke-width="0.00159"/>
<path d="M12.6788 8.41644C12.6445 8.40951 12.6173 8.46341 12.6382 8.49055C12.6383 8.4613 12.6818 8.46614 12.6901 8.45012C12.696 8.43903 12.6928 8.41926 12.6788 8.41644Z" fill="#0051BA" stroke="black" stroke-width="0.00159"/>
<path d="M11.5372 8.0293C11.5587 8.0293 11.5674 8.0357 11.5674 8.07535C11.5674 8.15936 11.5665 8.19548 11.5399 8.19548C11.5133 8.19548 11.5152 8.16116 11.5152 8.09948C11.5152 8.06731 11.5152 8.05122 11.5088 8.0539C11.5088 8.0329 11.518 8.0293 11.5372 8.0293Z" fill="#0051BA" stroke="black" stroke-width="0.00159"/>
<path d="M12.723 9.26864C12.7044 9.27315 12.7044 9.29755 12.6946 9.29755C12.743 9.29619 12.7664 9.28264 12.7811 9.2578C12.7705 9.26773 12.7797 9.28671 12.7762 9.29122C12.8116 9.27857 12.8285 9.24786 12.8161 9.22709C12.8241 9.23883 12.8472 9.24515 12.8542 9.24606C12.8294 9.22618 12.8472 9.18102 12.8072 9.15754C12.8205 9.15663 12.8463 9.17199 12.8534 9.19006C12.8472 9.14941 12.8409 9.12321 12.8081 9.10063C12.8116 9.10469 12.8303 9.10831 12.8382 9.10063C12.817 9.08708 12.8108 9.0645 12.8126 9.05005C12.815 9.02982 12.8019 9.02565 12.7771 9.03198C12.7547 9.03767 12.7035 9.04102 12.6733 9.04102C12.6113 9.04102 12.5572 9.04102 12.5057 9.00488C12.5829 9.0374 12.6813 8.96875 12.6813 8.91185C12.6813 8.84861 12.605 8.79713 12.4507 8.83146C12.2964 8.86578 12.1084 8.85132 12.1084 8.79894C12.1084 8.74654 12.2432 8.73932 12.3124 8.75016C12.3816 8.761 12.4312 8.76823 12.5607 8.72125C12.5288 8.7339 12.4259 8.73751 12.3443 8.71403C12.2627 8.69054 12.0623 8.69054 12.0605 8.80075C12.0587 8.91094 12.2739 8.9009 12.4596 8.87301C12.5678 8.85674 12.6245 8.86759 12.6245 8.90372C12.6245 8.93804 12.5252 8.95249 12.4489 8.94346C12.3727 8.93443 12.2946 8.93624 12.2042 8.96333C12.1287 8.98595 12.0765 8.96333 11.9931 8.97779C11.9527 8.98478 11.8548 8.97779 11.8064 8.89649C11.7767 8.91817 11.6871 8.96356 11.6721 9.00782C11.6508 9.04846 11.665 9.08889 11.6933 9.12863C11.7291 9.17865 11.6756 9.17108 11.6375 9.17289C11.5852 9.17537 11.5152 9.16724 11.4787 9.12502C11.4464 9.08761 11.4033 9.05763 11.3689 9.08535C11.3512 9.09963 11.3682 9.11841 11.3822 9.11316C11.3961 9.10796 11.4125 9.11841 11.4273 9.12502C11.4036 9.11466 11.3776 9.1227 11.3674 9.13194C11.3535 9.14471 11.3704 9.1691 11.3874 9.16048C11.4007 9.15372 11.4279 9.14921 11.4456 9.16574C11.4264 9.16198 11.4065 9.16278 11.3969 9.17325C11.3874 9.18373 11.3948 9.19898 11.4154 9.19804C11.4486 9.19654 11.4571 9.22021 11.4903 9.21535C11.4699 9.21806 11.4583 9.22889 11.453 9.23702C11.484 9.22257 11.5183 9.26153 11.5586 9.25238C11.5429 9.25896 11.5175 9.27467 11.5178 9.2867C11.5417 9.2587 11.7022 9.30838 11.7058 9.24696C11.7102 9.25961 11.7093 9.27857 11.6969 9.29484C11.7175 9.28219 11.7838 9.27767 11.8042 9.22889C11.806 9.24334 11.8033 9.26232 11.7909 9.26683C11.8122 9.27392 11.8402 9.25777 11.8689 9.21444C11.8803 9.19726 11.883 9.18583 11.8811 9.17291C11.9095 9.174 11.9301 9.16673 11.9523 9.1476C11.9754 9.12773 12.0002 9.16386 12.0392 9.13856C12.0783 9.11328 12.112 9.13495 12.1332 9.12231C12.1545 9.10966 12.1838 9.12682 12.2068 9.11237C12.2299 9.09792 12.2657 9.11945 12.3038 9.08874C12.3639 9.11115 12.434 9.15267 12.606 9.1205C12.7045 9.10205 12.7354 9.13585 12.7354 9.18192C12.7354 9.21354 12.7172 9.21629 12.7035 9.21715C12.6487 9.22059 12.6251 9.19625 12.6035 9.20405C12.589 9.20932 12.5801 9.23336 12.6011 9.24162C12.5838 9.25063 12.586 9.26754 12.5949 9.27374C12.6037 9.27993 12.6265 9.2743 12.6421 9.26697C12.6221 9.27618 12.6015 9.2927 12.6133 9.30998C12.6204 9.32047 12.6385 9.32936 12.6553 9.30698C12.6723 9.28444 12.7032 9.26566 12.7229 9.26864L12.723 9.26864Z" fill="#F9DD16" stroke="black" stroke-width="0.0153"/>
<path d="M11.6307 8.79159C11.581 8.77082 11.5643 8.77025 11.5757 8.81147C11.5806 8.82908 11.5925 8.85392 11.6045 8.86521C11.605 8.84805 11.6112 8.80063 11.6307 8.79159H11.6307Z" fill="#F9DD16" stroke="black" stroke-width="0.0153"/>
<path d="M11.7861 8.79159C11.8358 8.77082 11.8526 8.77025 11.8411 8.81147C11.8362 8.82908 11.8243 8.85392 11.8123 8.86521C11.8119 8.84805 11.8057 8.80063 11.7861 8.79159H11.7861Z" fill="#F9DD16" stroke="black" stroke-width="0.0153"/>
<path d="M11.7078 8.76404C11.8018 8.76404 11.8136 8.80897 11.8131 8.86497C11.8127 8.92549 11.7808 8.90472 11.7626 8.9824C11.7555 9.01277 11.7317 9.01447 11.7078 9.01447C11.6839 9.01447 11.6602 9.01277 11.653 8.9824C11.635 8.90471 11.603 8.92549 11.6026 8.86497C11.6021 8.80897 11.6139 8.76404 11.7079 8.76404L11.7078 8.76404Z" fill="#F9DD16" stroke="black" stroke-width="0.0153"/>
<path d="M11.466 8.98667C11.442 8.97222 11.4265 8.98222 11.4168 8.98494C11.4479 8.99306 11.4491 9.03365 11.5201 9.05261C11.5041 9.0481 11.4952 9.05713 11.4801 9.049C11.5094 9.07249 11.5422 9.09968 11.6114 9.10049C11.65 9.10094 11.6233 9.12126 11.5981 9.10952C11.6243 9.13707 11.6761 9.11449 11.7089 9.16462C11.7151 9.12578 11.6478 9.06436 11.6788 9.0201C11.5831 9.01595 11.5752 8.96192 11.5201 8.91893C11.4752 8.88398 11.4712 8.84845 11.4513 8.78193C11.4423 8.75181 11.4077 8.73303 11.3885 8.74016C11.3717 8.7464 11.3656 8.7612 11.38 8.77228C11.3944 8.78336 11.4128 8.78486 11.4168 8.81294C11.398 8.79012 11.37 8.78186 11.3566 8.79613C11.3484 8.80482 11.3517 8.8251 11.3693 8.82693C11.3981 8.82994 11.3774 8.85849 11.4101 8.88641C11.3811 8.85323 11.356 8.85022 11.3405 8.86825C11.3313 8.87905 11.3405 8.8983 11.3605 8.89624C11.3893 8.89325 11.4228 8.9678 11.466 8.98667V8.98667Z" fill="#F9DD16" stroke="black" stroke-width="0.0153"/>
<path d="M12.2374 9.26384C12.2223 9.26655 12.2268 9.29185 12.2064 9.29366C12.2552 9.29366 12.28 9.28191 12.3031 9.26294C12.2924 9.26926 12.288 9.28553 12.2871 9.29455C12.3129 9.27197 12.374 9.27017 12.406 9.27649C12.4379 9.28282 12.4432 9.26746 12.4547 9.24669C12.4663 9.22591 12.4503 9.21417 12.4343 9.19791C12.4184 9.18165 12.4148 9.15907 12.4183 9.12113C12.3332 9.00551 12.1807 9.06151 12.1789 9.1121C12.2339 9.17713 12.241 9.1699 12.2871 9.17894C12.3332 9.18797 12.3615 9.18795 12.3305 9.21417C12.3199 9.2232 12.2756 9.21896 12.241 9.22049C12.1636 9.22391 12.1282 9.16606 12.1054 9.19611C12.0866 9.22083 12.106 9.23174 12.1443 9.23042C12.1178 9.23062 12.0826 9.22915 12.0886 9.25434C12.0987 9.29678 12.1385 9.24645 12.1541 9.26392C12.1408 9.26072 12.1201 9.26899 12.1194 9.28176C12.1186 9.29453 12.1489 9.31106 12.1821 9.2842C12.2003 9.26947 12.2235 9.26396 12.2374 9.26384H12.2374Z" fill="#F9DD16" stroke="black" stroke-width="0.0153"/>
<path d="M12.3033 9.08918C12.2756 9.07886 12.2502 9.07256 12.2178 9.07939L12.3033 9.08918Z" fill="#F9DD16"/>
<path d="M12.3033 9.08918C12.2756 9.07886 12.2502 9.07256 12.2178 9.07939" stroke="black" stroke-width="0.0153"/>
<path d="M11.8859 9.07654C11.8631 9.12638 11.8769 9.15099 11.8803 9.17411L11.8859 9.07654Z" fill="#F9DD16"/>
<path d="M11.8859 9.07654C11.8631 9.12638 11.8769 9.15099 11.8803 9.17411" stroke="black" stroke-width="0.0153"/>
<path d="M11.6436 8.83831C11.6592 8.84628 11.668 8.82377 11.6909 8.84766C11.6846 8.84069 11.6768 8.86619 11.6592 8.84927" fill="#F9DD16"/>
<path d="M11.6436 8.83831C11.6592 8.84628 11.668 8.82377 11.6909 8.84766C11.6846 8.84069 11.6768 8.86619 11.6592 8.84927" stroke="black" stroke-width="0.0153"/>
<path d="M11.771 8.83831C11.7554 8.84628 11.7466 8.82377 11.7236 8.84766C11.7299 8.84069 11.7378 8.86619 11.7554 8.84927" fill="#F9DD16"/>
<path d="M11.771 8.83831C11.7554 8.84628 11.7466 8.82377 11.7236 8.84766C11.7299 8.84069 11.7378 8.86619 11.7554 8.84927" stroke="black" stroke-width="0.0153"/>
<path d="M11.7241 8.84802C11.7187 8.85253 11.7182 8.84442 11.7223 8.86574C11.7298 8.90488 11.7387 8.92319 11.7076 8.92319C11.6759 8.92319 11.6855 8.90488 11.693 8.86574C11.6972 8.84442 11.6966 8.85254 11.6912 8.84802" fill="#F9DD16"/>
<path d="M11.7241 8.84802C11.7187 8.85253 11.7182 8.84442 11.7223 8.86574C11.7298 8.90488 11.7387 8.92319 11.7076 8.92319C11.6759 8.92319 11.6855 8.90488 11.693 8.86574C11.6972 8.84442 11.6966 8.85254 11.6912 8.84802" stroke="black" stroke-width="0.0153"/>
<path d="M11.7072 8.99677C11.7324 8.99677 11.7471 8.99632 11.7431 8.96019C11.7415 8.94569 11.7604 8.93992 11.7537 8.91638C11.7608 8.94528 11.7072 8.94252 11.7072 8.92942C11.7072 8.94252 11.6535 8.94528 11.6606 8.91638C11.6539 8.93992 11.6728 8.94569 11.6712 8.96019C11.6673 8.99632 11.6819 8.99677 11.7072 8.99677Z" fill="#FF0016" stroke="black" stroke-width="0.00765"/>
<path d="M11.6847 8.92385L11.624 8.90662L11.6847 8.92385Z" fill="#FF0016"/>
<path d="M11.6847 8.92385L11.624 8.90662" stroke="black" stroke-width="0.00765"/>
<path d="M11.6849 8.92672L11.6172 8.92615L11.6849 8.92672Z" fill="#FF0016"/>
<path d="M11.6849 8.92672L11.6172 8.92615" stroke="black" stroke-width="0.00765"/>
<path d="M11.6857 8.93005L11.6279 8.94582L11.6857 8.93005Z" fill="#FF0016"/>
<path d="M11.6857 8.93005L11.6279 8.94582" stroke="black" stroke-width="0.00765"/>
<path d="M11.7305 8.92385L11.7911 8.90662L11.7305 8.92385Z" fill="#FF0016"/>
<path d="M11.7305 8.92385L11.7911 8.90662" stroke="black" stroke-width="0.00765"/>
<path d="M11.7305 8.92672L11.7982 8.92615L11.7305 8.92672Z" fill="#FF0016"/>
<path d="M11.7305 8.92672L11.7982 8.92615" stroke="black" stroke-width="0.00765"/>
<path d="M11.7295 8.93005L11.7873 8.94582L11.7295 8.93005Z" fill="#FF0016"/>
<path d="M11.7295 8.93005L11.7873 8.94582" stroke="black" stroke-width="0.00765"/>
<path d="M11.3938 8.74071C11.3761 8.71834 11.3319 8.73723 11.3311 8.76499C11.346 8.747 11.3704 8.77292 11.3836 8.76746C11.3928 8.76369 11.4009 8.74981 11.3938 8.74071L11.3938 8.74071Z" fill="#0051BA" stroke="black" stroke-width="0.00159"/>
<path d="M11.3713 8.79344C11.3536 8.77107 11.3095 8.78997 11.3086 8.81772C11.3235 8.79973 11.3478 8.82565 11.3612 8.8202C11.3704 8.81643 11.3785 8.80255 11.3713 8.79344L11.3713 8.79344Z" fill="#0051BA" stroke="black" stroke-width="0.00159"/>
<path d="M11.3595 8.86337C11.3395 8.84316 11.2977 8.867 11.2999 8.89468C11.3127 8.87509 11.3398 8.89806 11.3524 8.89112C11.3611 8.88631 11.3676 8.8716 11.3595 8.86338V8.86337Z" fill="#0051BA" stroke="black" stroke-width="0.00159"/>
<path d="M11.3804 9.08593C11.3582 9.0682 11.3195 9.09677 11.3247 9.12402C11.3353 9.10306 11.3647 9.1227 11.3764 9.11433C11.3846 9.10853 11.3894 9.09316 11.3804 9.08593H11.3804Z" fill="#0051BA" stroke="black" stroke-width="0.00159"/>
<path d="M11.3798 9.1328C11.3534 9.12287 11.3251 9.16221 11.3383 9.18648C11.342 9.16324 11.376 9.1727 11.3847 9.16104C11.3907 9.15297 11.3906 9.13684 11.3798 9.1328Z" fill="#0051BA" stroke="black" stroke-width="0.00159"/>
<path d="M11.4131 9.16991C11.3866 9.15998 11.3583 9.19932 11.3715 9.2236C11.3752 9.20034 11.4092 9.2098 11.4179 9.19814C11.4239 9.19008 11.4238 9.17395 11.4131 9.16991L11.4131 9.16991Z" fill="#0051BA" stroke="black" stroke-width="0.00159"/>
<path d="M12.1064 9.24022C12.08 9.23029 12.0516 9.26963 12.0649 9.29391C12.0686 9.27066 12.1025 9.28012 12.1112 9.26846C12.1172 9.2604 12.1171 9.24427 12.1064 9.24022Z" fill="#0051BA" stroke="black" stroke-width="0.00159"/>
<path d="M12.1419 9.27258C12.1145 9.26578 12.0908 9.30815 12.1067 9.33073C12.1077 9.3072 12.1426 9.31266 12.1499 9.30007C12.1549 9.29136 12.1531 9.27535 12.1419 9.27258H12.1419Z" fill="#0051BA" stroke="black" stroke-width="0.00159"/>
<path d="M12.1168 9.19324C12.0923 9.17888 12.0579 9.21274 12.0669 9.23896C12.0745 9.21669 12.1063 9.2319 12.1168 9.22191C12.1241 9.215 12.1267 9.19909 12.1168 9.19324V9.19324Z" fill="#0051BA" stroke="black" stroke-width="0.00159"/>
<path d="M12.6097 9.2511C12.5823 9.2443 12.5586 9.28666 12.5744 9.30925C12.5756 9.28572 12.6104 9.29118 12.6176 9.27859C12.6227 9.26988 12.6208 9.25387 12.6097 9.2511H12.6097Z" fill="#0051BA" stroke="black" stroke-width="0.00159"/>
<path d="M12.6096 9.20453C12.5848 9.19103 12.5515 9.22609 12.5613 9.25197C12.5681 9.22945 12.6005 9.24353 12.6107 9.23319C12.6177 9.22602 12.6198 9.21003 12.6096 9.20453Z" fill="#0051BA" stroke="black" stroke-width="0.00159"/>
<path d="M12.6294 9.28992C12.6018 9.28434 12.5799 9.32773 12.5967 9.34958C12.5968 9.32603 12.6318 9.32993 12.6385 9.31703C12.6433 9.3081 12.6407 9.29218 12.6294 9.28992Z" fill="#0051BA" stroke="black" stroke-width="0.00159"/>
<path d="M11.7103 8.97693C11.7277 8.97693 11.7347 8.98209 11.7347 9.014C11.7347 9.08162 11.7339 9.1107 11.7126 9.1107C11.6912 9.1107 11.6926 9.08307 11.6926 9.03343C11.6926 9.00752 11.6926 8.99457 11.6875 8.99673C11.6875 8.97983 11.6949 8.97693 11.7103 8.97693Z" fill="#0051BA" stroke="black" stroke-width="0.00159"/>
<path d="M12.4152 9.96568C12.4033 9.96859 12.4033 9.98429 12.397 9.98429C12.4281 9.98341 12.4432 9.9747 12.4526 9.95871C12.4458 9.9651 12.4518 9.97731 12.4495 9.98021C12.4723 9.97208 12.4832 9.95232 12.4752 9.93895C12.4803 9.9465 12.4952 9.95057 12.4997 9.95115C12.4837 9.93836 12.4952 9.9093 12.4695 9.89419C12.478 9.89361 12.4946 9.90349 12.4991 9.91512C12.4952 9.88896 12.4911 9.8721 12.47 9.85758C12.4723 9.86019 12.4843 9.86251 12.4894 9.85758C12.4758 9.84886 12.4717 9.83433 12.4729 9.82503C12.4745 9.81201 12.466 9.80933 12.4501 9.8134C12.4357 9.81706 12.4027 9.81921 12.3833 9.81921C12.3434 9.81921 12.3085 9.81921 12.2754 9.79597C12.3251 9.81689 12.3884 9.77272 12.3884 9.7361C12.3884 9.69541 12.3393 9.66228 12.2401 9.68437C12.1408 9.70645 12.0198 9.69715 12.0198 9.66344C12.0198 9.62973 12.1065 9.62508 12.1511 9.63206C12.1956 9.63903 12.2275 9.64368 12.3108 9.61346C12.2903 9.62159 12.2241 9.62392 12.1716 9.60881C12.1191 9.5937 11.9901 9.5937 11.989 9.66461C11.9878 9.73551 12.1263 9.72906 12.2458 9.7111C12.3154 9.70064 12.3519 9.70762 12.3519 9.73087C12.3519 9.75295 12.288 9.76225 12.2389 9.75644C12.1899 9.75063 12.1396 9.75179 12.0814 9.76923C12.0328 9.78378 11.9993 9.76923 11.9456 9.77853C11.9196 9.78303 11.8566 9.77853 11.8255 9.72621C11.8063 9.74017 11.7487 9.76937 11.739 9.79785C11.7253 9.82401 11.7345 9.85002 11.7527 9.87559C11.7757 9.90778 11.7413 9.90291 11.7168 9.90407C11.6831 9.90567 11.6381 9.90044 11.6146 9.87327C11.5938 9.8492 11.5661 9.8299 11.5439 9.84775C11.5326 9.85693 11.5435 9.86902 11.5525 9.86563C11.5614 9.86229 11.572 9.86902 11.5815 9.87327C11.5663 9.8666 11.5495 9.87177 11.543 9.87772C11.534 9.88594 11.5449 9.90163 11.5558 9.89609C11.5644 9.89174 11.5819 9.88884 11.5933 9.89947C11.581 9.89705 11.5681 9.89757 11.562 9.90431C11.5558 9.91105 11.5606 9.92086 11.5739 9.92026C11.5952 9.91929 11.6007 9.93452 11.622 9.93139C11.6089 9.93314 11.6015 9.94011 11.598 9.94534C11.618 9.93604 11.6401 9.96111 11.666 9.95522C11.6559 9.95945 11.6396 9.96957 11.6397 9.97731C11.6551 9.95929 11.7584 9.99126 11.7607 9.95174C11.7636 9.95987 11.763 9.97208 11.755 9.98254C11.7682 9.9744 11.8109 9.9715 11.824 9.94011C11.8252 9.94941 11.8235 9.96162 11.8155 9.96452C11.8292 9.96908 11.8472 9.95869 11.8657 9.93081C11.873 9.91975 11.8748 9.9124 11.8735 9.90409C11.8918 9.90479 11.9051 9.90011 11.9193 9.8878C11.9342 9.87501 11.9502 9.89826 11.9753 9.88198C12.0004 9.86571 12.0221 9.87966 12.0357 9.87152C12.0495 9.86339 12.0683 9.87443 12.0831 9.86513C12.098 9.85583 12.121 9.86968 12.1455 9.84992C12.1842 9.86434 12.2293 9.89106 12.3399 9.87036C12.4034 9.85849 12.4232 9.88024 12.4232 9.90989C12.4232 9.93023 12.4116 9.932 12.4027 9.93256C12.3674 9.93476 12.3523 9.91911 12.3384 9.92412C12.329 9.92751 12.3233 9.94298 12.3368 9.9483C12.3257 9.9541 12.3271 9.96498 12.3328 9.96896C12.3385 9.97295 12.3532 9.96933 12.3632 9.96461C12.3503 9.97053 12.3371 9.98117 12.3446 9.99229C12.3492 9.99903 12.3609 10.0048 12.3717 9.99036C12.3826 9.97585 12.4025 9.96377 12.4152 9.96568L12.4152 9.96568Z" fill="#F9DD16" stroke="black" stroke-width="0.0153"/>
<path d="M11.7124 9.65835C11.6804 9.64498 11.6697 9.64461 11.677 9.67113C11.6802 9.68247 11.6878 9.69845 11.6956 9.70572C11.6959 9.69468 11.6998 9.66416 11.7124 9.65835H11.7124Z" fill="#F9DD16" stroke="black" stroke-width="0.0153"/>
<path d="M11.8125 9.65835C11.8445 9.64498 11.8553 9.64461 11.8479 9.67113C11.8447 9.68247 11.837 9.69845 11.8293 9.70572C11.8291 9.69468 11.8251 9.66416 11.8125 9.65835H11.8125Z" fill="#F9DD16" stroke="black" stroke-width="0.0153"/>
<path d="M11.7621 9.64179C11.8226 9.64179 11.8301 9.6707 11.8298 9.70673C11.8296 9.74568 11.809 9.73231 11.7973 9.78229C11.7928 9.80184 11.7775 9.80293 11.7621 9.80293C11.7467 9.80293 11.7314 9.80184 11.7268 9.78229C11.7152 9.7323 11.6946 9.74567 11.6943 9.70673C11.6941 9.6707 11.7016 9.64178 11.7621 9.64178L11.7621 9.64179Z" fill="#F9DD16" stroke="black" stroke-width="0.0153"/>
<path d="M11.6065 9.7838C11.5911 9.7745 11.5811 9.78094 11.5749 9.78269C11.5948 9.78792 11.5956 9.81403 11.6413 9.82624C11.631 9.82333 11.6253 9.82914 11.6156 9.82391C11.6344 9.83902 11.6555 9.85652 11.7001 9.85704C11.7249 9.85733 11.7077 9.87041 11.6915 9.86285C11.7083 9.88058 11.7417 9.86605 11.7628 9.89831C11.7668 9.87332 11.7235 9.83379 11.7434 9.80531C11.6818 9.80264 11.6768 9.76788 11.6413 9.74022C11.6124 9.71772 11.6098 9.69486 11.5971 9.65206C11.5913 9.63267 11.569 9.62059 11.5566 9.62518C11.5458 9.62919 11.5419 9.63872 11.5512 9.64585C11.5604 9.65298 11.5723 9.65394 11.5748 9.67201C11.5628 9.65733 11.5447 9.65201 11.5361 9.66119C11.5308 9.66679 11.5329 9.67983 11.5443 9.68102C11.5628 9.68295 11.5495 9.70132 11.5705 9.71929C11.5519 9.69794 11.5357 9.696 11.5258 9.7076C11.5198 9.71455 11.5258 9.72694 11.5386 9.72561C11.5572 9.72369 11.5787 9.77166 11.6065 9.78381V9.7838Z" fill="#F9DD16" stroke="black" stroke-width="0.0153"/>
<path d="M12.1031 9.96294C12.0934 9.96468 12.0962 9.98096 12.0831 9.98212C12.1145 9.98212 12.1304 9.97456 12.1453 9.96236C12.1385 9.96643 12.1356 9.97689 12.135 9.9827C12.1516 9.96817 12.191 9.96701 12.2115 9.97108C12.232 9.97515 12.2355 9.96527 12.2429 9.9519C12.2503 9.93853 12.24 9.93097 12.2298 9.92051C12.2195 9.91005 12.2172 9.89552 12.2195 9.87111C12.1647 9.79671 12.0665 9.83274 12.0654 9.86529C12.1008 9.90714 12.1053 9.90249 12.135 9.9083C12.1647 9.91412 12.1829 9.9141 12.163 9.93097C12.1561 9.93679 12.1276 9.93406 12.1053 9.93504C12.0556 9.93725 12.0328 9.90002 12.0181 9.91936C12.006 9.93526 12.0185 9.94228 12.0432 9.94143C12.0261 9.94156 12.0034 9.94062 12.0073 9.95683C12.0138 9.98414 12.0394 9.95175 12.0494 9.96299C12.0409 9.96093 12.0276 9.96625 12.0271 9.97447C12.0266 9.98269 12.0461 9.99332 12.0675 9.97604C12.0791 9.96656 12.0941 9.96302 12.1031 9.96294H12.1031Z" fill="#F9DD16" stroke="black" stroke-width="0.0153"/>
<path d="M12.1458 9.85109C12.128 9.84445 12.1117 9.8404 12.0908 9.84479L12.1458 9.85109Z" fill="#F9DD16"/>
<path d="M12.1458 9.85109C12.128 9.84445 12.1117 9.8404 12.0908 9.84479" stroke="black" stroke-width="0.0153"/>
<path d="M11.8774 9.84296C11.8627 9.87503 11.8716 9.89086 11.8738 9.90574L11.8774 9.84296Z" fill="#F9DD16"/>
<path d="M11.8774 9.84296C11.8627 9.87503 11.8716 9.89086 11.8738 9.90574" stroke="black" stroke-width="0.0153"/>
<path d="M11.7207 9.688C11.7308 9.69312 11.7364 9.67864 11.7512 9.69402C11.7471 9.68953 11.7421 9.70594 11.7308 9.69505" fill="#F9DD16"/>
<path d="M11.7207 9.688C11.7308 9.69312 11.7364 9.67864 11.7512 9.69402C11.7471 9.68953 11.7421 9.70594 11.7308 9.69505" stroke="black" stroke-width="0.0153"/>
<path d="M11.8029 9.688C11.7929 9.69312 11.7872 9.67864 11.7725 9.69402C11.7765 9.68953 11.7816 9.70594 11.7929 9.69505" fill="#F9DD16"/>
<path d="M11.8029 9.688C11.7929 9.69312 11.7872 9.67864 11.7725 9.69402C11.7765 9.68953 11.7816 9.70594 11.7929 9.69505" stroke="black" stroke-width="0.0153"/>
<path d="M11.7729 9.69452C11.7694 9.69742 11.7691 9.6922 11.7717 9.70592C11.7765 9.73111 11.7823 9.74289 11.7623 9.74289C11.7418 9.74289 11.748 9.73111 11.7528 9.70592C11.7555 9.6922 11.7552 9.69742 11.7517 9.69452" fill="#F9DD16"/>
<path d="M11.7729 9.69452C11.7694 9.69742 11.7691 9.6922 11.7717 9.70592C11.7765 9.73111 11.7823 9.74289 11.7623 9.74289C11.7418 9.74289 11.748 9.73111 11.7528 9.70592C11.7555 9.6922 11.7552 9.69742 11.7517 9.69452" stroke="black" stroke-width="0.0153"/>
<path d="M11.7623 9.78922C11.7786 9.78922 11.788 9.78893 11.7854 9.76568C11.7844 9.75635 11.7966 9.75263 11.7923 9.73749C11.7968 9.75608 11.7623 9.75431 11.7623 9.74588C11.7623 9.75431 11.7278 9.75608 11.7324 9.73749C11.7281 9.75263 11.7402 9.75635 11.7392 9.76568C11.7367 9.78893 11.7461 9.78922 11.7623 9.78922Z" fill="#FF0016" stroke="black" stroke-width="0.00765"/>
<path d="M11.748 9.74272L11.709 9.73163L11.748 9.74272Z" fill="#FF0016"/>
<path d="M11.748 9.74272L11.709 9.73163" stroke="black" stroke-width="0.00765"/>
<path d="M11.7477 9.74372L11.7041 9.74335L11.7477 9.74372Z" fill="#FF0016"/>
<path d="M11.7477 9.74372L11.7041 9.74335" stroke="black" stroke-width="0.00765"/>
<path d="M11.7481 9.74725L11.7109 9.7574L11.7481 9.74725Z" fill="#FF0016"/>
<path d="M11.7481 9.74725L11.7109 9.7574" stroke="black" stroke-width="0.00765"/>
<path d="M11.7773 9.74272L11.8164 9.73163L11.7773 9.74272Z" fill="#FF0016"/>
<path d="M11.7773 9.74272L11.8164 9.73163" stroke="black" stroke-width="0.00765"/>
<path d="M11.7773 9.74372L11.8209 9.74335L11.7773 9.74372Z" fill="#FF0016"/>
<path d="M11.7773 9.74372L11.8209 9.74335" stroke="black" stroke-width="0.00765"/>
<path d="M11.7764 9.74725L11.8135 9.7574L11.7764 9.74725Z" fill="#FF0016"/>
<path d="M11.7764 9.74725L11.8135 9.7574" stroke="black" stroke-width="0.00765"/>
<path d="M11.5609 9.6247C11.5495 9.6103 11.5211 9.62246 11.5205 9.64032C11.5301 9.62875 11.5458 9.64543 11.5543 9.64192C11.5603 9.63949 11.5655 9.63056 11.5609 9.6247L11.5609 9.6247Z" fill="#0051BA" stroke="black" stroke-width="0.00159"/>
<path d="M11.5462 9.6579C11.5348 9.64351 11.5064 9.65567 11.5059 9.67353C11.5154 9.66195 11.5311 9.67863 11.5397 9.67512C11.5456 9.6727 11.5508 9.66376 11.5462 9.6579L11.5462 9.6579Z" fill="#0051BA" stroke="black" stroke-width="0.00159"/>
<path d="M11.5384 9.70328C11.5255 9.69027 11.4986 9.70561 11.5001 9.72342C11.5083 9.71082 11.5257 9.7256 11.5338 9.72113C11.5395 9.71804 11.5436 9.70857 11.5384 9.70328V9.70328Z" fill="#0051BA" stroke="black" stroke-width="0.00159"/>
<path d="M11.5518 9.84649C11.5375 9.83508 11.5126 9.85346 11.5159 9.87099C11.5227 9.85751 11.5417 9.87015 11.5492 9.86476C11.5545 9.86103 11.5576 9.85114 11.5518 9.84649H11.5518Z" fill="#0051BA" stroke="black" stroke-width="0.00159"/>
<path d="M11.5513 9.87717C11.5343 9.87078 11.5161 9.8961 11.5246 9.91172C11.527 9.89676 11.5489 9.90285 11.5544 9.89534C11.5583 9.89015 11.5582 9.87978 11.5513 9.87717Z" fill="#0051BA" stroke="black" stroke-width="0.00159"/>
<path d="M11.5728 9.90061C11.5558 9.89422 11.5376 9.91953 11.5461 9.93516C11.5485 9.92019 11.5704 9.92628 11.5759 9.91878C11.5798 9.91359 11.5797 9.90321 11.5728 9.90061L11.5728 9.90061Z" fill="#0051BA" stroke="black" stroke-width="0.00159"/>
<path d="M12.0191 9.94553C12.0021 9.93914 11.9839 9.96446 11.9924 9.98008C11.9948 9.96512 12.0166 9.97121 12.0222 9.9637C12.0261 9.95851 12.026 9.94813 12.0191 9.94553Z" fill="#0051BA" stroke="black" stroke-width="0.00159"/>
<path d="M12.0416 9.96647C12.024 9.9621 12.0087 9.98936 12.0189 10.0039C12.0196 9.98875 12.042 9.99226 12.0467 9.98416C12.05 9.97856 12.0488 9.96825 12.0416 9.96647H12.0416Z" fill="#0051BA" stroke="black" stroke-width="0.00159"/>
<path d="M12.0252 9.91547C12.0095 9.90623 11.9873 9.92802 11.9931 9.94489C11.998 9.93056 12.0185 9.94034 12.0253 9.93392C12.0299 9.92947 12.0316 9.91923 12.0252 9.91547V9.91547Z" fill="#0051BA" stroke="black" stroke-width="0.00159"/>
<path d="M12.3424 9.9528C12.3247 9.94843 12.3095 9.97569 12.3197 9.99022C12.3204 9.97508 12.3428 9.97859 12.3475 9.97049C12.3508 9.96489 12.3495 9.95458 12.3424 9.9528H12.3424Z" fill="#0051BA" stroke="black" stroke-width="0.00159"/>
<path d="M12.3427 9.92276C12.3268 9.91408 12.3053 9.93663 12.3117 9.95329C12.3161 9.9388 12.3369 9.94786 12.3434 9.9412C12.3479 9.93659 12.3493 9.9263 12.3427 9.92276Z" fill="#0051BA" stroke="black" stroke-width="0.00159"/>
<path d="M12.3559 9.97804C12.3381 9.97445 12.324 10.0024 12.3348 10.0164C12.3349 10.0013 12.3574 10.0038 12.3618 9.99548C12.3648 9.98974 12.3631 9.9795 12.3559 9.97804Z" fill="#0051BA" stroke="black" stroke-width="0.00159"/>
<path d="M11.7637 9.77631C11.7749 9.77631 11.7794 9.77962 11.7794 9.80016C11.7794 9.84368 11.7789 9.86238 11.7652 9.86238C11.7514 9.86238 11.7523 9.84461 11.7523 9.81266C11.7523 9.79599 11.7523 9.78766 11.749 9.78905C11.749 9.77817 11.7538 9.77631 11.7637 9.77631Z" fill="#0051BA" stroke="black" stroke-width="0.00159"/>
<path d="M20 6L20 18L4 18L4 6L20 6ZM20 5L4 5C3.4 5 3 5.4 3 6L3 18C3 18.6 3.4 19 4 19L20 19C20.6 19 21 18.6 21 18L21 6C21 5.4 20.6 5 20 5Z" fill="#B5B5B5"/>
</svg>
