<svg width="24" height="24" viewBox="0 0 24 24" fill="none" xmlns="http://www.w3.org/2000/svg">
<path d="M20 6H4V18H20V6Z" fill="#007A3D"/>
<path d="M20 6H4V14H20V6Z" fill="white"/>
<path d="M20 6H4V10H20V6Z" fill="black"/>
<path d="M4 6V18L16 12L4 6Z" fill="#CE1126"/>
<path d="M8 11L8.22252 11.5781L8.80194 11.3961L8.5 11.935L9 12.2862L8.40097 12.3801L8.44504 13L8 12.5781L7.55496 13L7.59903 12.3801L7 12.2862L7.5 11.935L7.19806 11.3961L7.77748 11.5781L8 11Z" fill="white"/>
<path d="M20 6L20 18L4 18L4 6L20 6ZM20 5L4 5C3.4 5 3 5.4 3 6L3 18C3 18.6 3.4 19 4 19L20 19C20.6 19 21 18.6 21 18L21 6C21 5.4 20.6 5 20 5Z" fill="#B5B5B5"/>
</svg>
