<svg width="24" height="24" viewBox="0 0 24 24" fill="none" xmlns="http://www.w3.org/2000/svg">
<path d="M20 6H4V18H20V6Z" fill="white"/>
<path d="M20 6H4V10H20V6Z" fill="black"/>
<path d="M20 14H4V18H20V14Z" fill="#006600"/>
<path d="M10.8561 15.5625L10.986 15.6375L14.4894 9.56933C14.6943 9.51442 14.8068 9.31957 14.9193 9.12471C14.9943 8.99481 15.2943 8.47519 15.4243 7.8C14.9046 8.25019 14.6046 8.76981 14.5296 8.89971C14.4171 9.09457 14.3046 9.28942 14.3595 9.49433L10.8561 15.5625Z" fill="black" stroke="black" stroke-width="0.01"/>
<path d="M10.8561 15.5625L10.986 15.6375L14.4894 9.56933C14.6943 9.51442 14.8068 9.31957 14.9193 9.12471C14.9943 8.99481 15.2943 8.47519 15.4243 7.8C14.9046 8.25019 14.6046 8.76981 14.5296 8.89971C14.4171 9.09457 14.3046 9.28942 14.3595 9.49433L10.8561 15.5625Z" fill="white"/>
<path d="M4 10.25V13.75H10.7333C10.9333 14.3333 11.6 15.5 12 15.5C12.4 15.5 13.0667 14.3333 13.2667 13.75H20V10.25H13.2667C13.0667 9.66667 12.4 8.5 12 8.5C11.6 8.5 10.9333 9.66667 10.7333 10.25H4Z" fill="#BB0000"/>
<path d="M14.4248 13.7992C14.6498 13.1992 14.7998 12.5992 14.7998 11.9992C14.7998 11.3992 14.6498 10.7992 14.4248 10.1992C14.1998 10.7992 14.0498 11.3992 14.0498 11.9992C14.0498 12.5992 14.1998 13.1992 14.4248 13.7992Z" fill="black"/>
<path d="M13.0002 12.4508C13.1659 12.4508 13.3002 12.2493 13.3002 12.0008C13.3002 11.7523 13.1659 11.5508 13.0002 11.5508C12.8345 11.5508 12.7002 11.7523 12.7002 12.0008C12.7002 12.2493 12.8345 12.4508 13.0002 12.4508Z" fill="white"/>
<path d="M13.0752 12.4395C13.0752 12.4395 13.3752 13.0395 13.3752 14.0145C13.3752 14.9895 13.0752 15.5895 13.0752 15.5895V12.4395Z" fill="white"/>
<path d="M20 6L20 18L4 18L4 6L20 6ZM20 5L4 5C3.4 5 3 5.4 3 6L3 18C3 18.6 3.4 19 4 19L20 19C20.6 19 21 18.6 21 18L21 6C21 5.4 20.6 5 20 5Z" fill="none"/>
<g clip-path="url(#clip0_14099_118592)">
<path d="M4 6H20.0036V18H4V6Z" fill="white"/>
<path d="M4 6H20.0036V9.6H4V6Z" fill="black"/>
<path d="M4 14.4H20.0036V18H4V14.4Z" fill="#006600"/>
<path d="M13.3623 9.49439C13.3071 9.28919 13.4199 9.09479 13.5327 8.89919C13.6072 8.76959 13.9072 8.24999 14.427 7.79999C14.2973 8.47559 13.9973 8.99519 13.9228 9.12479C13.81 9.31919 13.6972 9.51479 13.4919 9.56879L9.98825 15.6372L9.85742 15.5628L13.3623 9.49439Z" fill="black"/>
<path d="M13.3623 9.49439C13.3071 9.28919 13.4199 9.09479 13.5327 8.89919C13.6072 8.76959 13.9072 8.24999 14.427 7.79999C14.2973 8.47559 13.9973 8.99519 13.9228 9.12479C13.81 9.31919 13.6972 9.51479 13.4919 9.56879L9.98825 15.6372L9.85742 15.5628L13.3623 9.49439Z" stroke="black" stroke-width="0.1"/>
<path d="M13.3623 9.49439C13.3071 9.28919 13.4199 9.09479 13.5327 8.89919C13.6072 8.76959 13.9072 8.24999 14.427 7.79999C14.2973 8.47559 13.9973 8.99519 13.9228 9.12479C13.81 9.31919 13.6972 9.51479 13.4919 9.56879L9.98825 15.6372L9.85742 15.5628L13.3623 9.49439Z" fill="white"/>
<path d="M14.1467 15.5628L14.0171 15.6372L10.5122 9.56879C10.3069 9.51479 10.1953 9.31919 10.0825 9.12479C10.0069 8.99519 9.70678 8.47559 9.57715 7.79999C10.0969 8.24999 10.397 8.76959 10.4726 8.89919C10.5842 9.09479 10.697 9.28919 10.6418 9.49439L14.1467 15.5628Z" fill="black"/>
<path d="M14.1467 15.5628L14.0171 15.6372L10.5122 9.56879C10.3069 9.51479 10.1953 9.31919 10.0825 9.12479C10.0069 8.99519 9.70678 8.47559 9.57715 7.79999C10.0969 8.24999 10.397 8.76959 10.4726 8.89919C10.5842 9.09479 10.697 9.28919 10.6418 9.49439L14.1467 15.5628Z" stroke="black" stroke-width="0.1"/>
<path d="M14.1467 15.5628L14.0171 15.6372L10.5122 9.56879C10.3069 9.51479 10.1953 9.31919 10.0825 9.12479C10.0069 8.99519 9.70678 8.47559 9.57715 7.79999C10.0969 8.24999 10.397 8.76959 10.4726 8.89919C10.5842 9.09479 10.697 9.28919 10.6418 9.49439L14.1467 15.5628Z" fill="white"/>
<path d="M20.0169 13.8H13.4273C13.2028 14.4 12.4527 15.6 12.0025 15.6C11.5524 15.6 10.8022 14.4 10.5766 13.8H3.99414V10.2H10.5766C10.8022 9.60002 11.5524 8.40002 12.0025 8.40002C12.4527 8.40002 13.2028 9.60002 13.4273 10.2H20.0169V13.8Z" fill="#BB0000"/>
<path d="M13.0529 12C13.0529 11.4 13.2029 10.8 13.4274 10.2C13.653 10.8 13.803 11.4 13.803 12C13.803 12.6 13.653 13.2 13.4274 13.8C13.2029 13.2 13.0529 12.6 13.0529 12ZM10.5766 13.8C10.3522 13.2 10.2021 12.6 10.2021 12C10.2021 11.4 10.3522 10.8 10.5766 10.2C10.8023 10.8 10.9523 11.4 10.9523 12C10.9523 12.6 10.8023 13.2 10.5766 13.8Z" fill="black"/>
<path d="M12.0026 12.45C11.837 12.45 11.7026 12.2484 11.7026 12C11.7026 11.7516 11.837 11.55 12.0026 11.55C12.1683 11.55 12.3027 11.7516 12.3027 12C12.3027 12.2484 12.1683 12.45 12.0026 12.45ZM12.0771 12.4392C12.0771 12.4392 12.3771 13.0392 12.3771 14.0136C12.3771 14.9892 12.0771 15.5892 12.0771 15.5892V12.4392ZM11.927 11.5608C11.927 11.5608 11.627 10.9608 11.627 9.98643C11.627 9.01083 11.927 8.41083 11.927 8.41083V11.5608ZM11.927 15.5892C11.927 15.5892 11.627 14.9892 11.627 14.0136C11.627 13.0392 11.927 12.4392 11.927 12.4392V15.5892ZM12.0771 8.41083C12.0771 8.41083 12.3771 9.01083 12.3771 9.98643C12.3771 10.9608 12.0771 11.5608 12.0771 11.5608V8.41083Z" fill="white"/>
</g>
<defs>
<clipPath id="clip0_14099_118592">
<rect width="16" height="12" fill="white" transform="translate(4 6)"/>
</clipPath>
</defs>
</svg>
