<svg width="24" height="24" viewBox="0 0 24 24" fill="none" xmlns="http://www.w3.org/2000/svg">
<path d="M20 6H4V18H20V6Z" fill="#244AA5"/>
<path d="M9.72111 11.6914C9.72111 11.6914 9.75264 11.6704 9.76417 11.6676C9.77571 11.6648 9.81647 11.6522 9.81647 11.6522C9.81647 11.6522 9.84262 11.6389 9.85646 11.6389C9.87107 11.6389 9.89953 11.6543 9.90876 11.6676C9.91722 11.6809 9.96336 11.704 9.96336 11.704C9.96336 11.704 9.99489 11.7145 10.001 11.704C10.0072 11.6935 10.021 11.6858 10.0356 11.6858C10.0503 11.6858 10.0526 11.6725 10.0526 11.662C10.0526 11.6515 10.0587 11.6382 10.0695 11.6256C10.081 11.6123 10.1041 11.6046 10.1041 11.6046C10.1041 11.6046 10.1356 11.5913 10.1387 11.5731C10.1418 11.5549 10.1733 11.5416 10.191 11.5388C10.2079 11.536 10.191 11.5283 10.2371 11.5332C10.2833 11.5388 10.2894 11.5227 10.2917 11.5094C10.2948 11.4961 10.2917 11.4828 10.321 11.4856C10.3502 11.4884 10.364 11.4884 10.364 11.4723C10.364 11.4569 10.3902 11.4485 10.344 11.4359C10.2979 11.4226 10.301 11.4331 10.2979 11.4121C10.2948 11.3911 10.2979 11.3939 10.2664 11.3911C10.2348 11.3883 10.2518 11.3729 10.2494 11.3568C10.2464 11.3414 10.2379 11.333 10.2325 11.3225C10.2264 11.312 10.2095 11.312 10.2095 11.2966C10.2095 11.2812 10.2064 11.2728 10.1895 11.2728C10.1725 11.2728 10.1664 11.2728 10.1664 11.2574C10.1664 11.242 10.1695 11.2287 10.1864 11.2287C10.2033 11.2287 10.2125 11.2154 10.2095 11.2C10.2064 11.1846 10.2064 11.1503 10.2064 11.1503L10.2294 11.1237C10.2294 11.1237 10.2987 11.0684 10.3048 11.0579C10.311 11.0474 10.334 11.0397 10.3448 11.0607C10.3563 11.0817 10.3617 11.0873 10.371 11.0971C10.3794 11.1076 10.4056 11.0999 10.4109 11.0894C10.4171 11.0789 10.4194 11.0404 10.4348 11.0194C10.4502 10.9991 10.4609 10.9886 10.4648 10.9718C10.4686 10.955 10.4763 10.941 10.4948 10.941C10.5132 10.941 10.5248 10.9172 10.5248 10.9032C10.5248 10.8892 10.5325 10.8759 10.5548 10.8724C10.5771 10.8689 10.5886 10.8556 10.5963 10.8759C10.604 10.8962 10.6117 10.8962 10.6263 10.9032C10.6417 10.9102 10.664 10.92 10.6747 10.9102C10.6863 10.8997 10.6916 10.8829 10.7086 10.8934C10.7247 10.9039 10.7363 10.8934 10.7401 10.8731C10.7439 10.8528 10.7478 10.8255 10.7478 10.8255C10.7478 10.8255 10.7516 10.8115 10.7778 10.8115C10.8039 10.8115 10.7855 10.7947 10.8001 10.7842C10.8155 10.7737 10.8155 10.7639 10.8339 10.7702C10.8524 10.7772 10.8824 10.7618 10.8678 10.745C10.8524 10.7282 10.8193 10.7009 10.8378 10.6799C10.8562 10.6596 10.8639 10.6253 10.8455 10.6218C10.827 10.6183 10.8001 10.6253 10.797 10.605C10.7932 10.5847 10.7855 10.5707 10.8085 10.5672C10.8308 10.5637 10.8685 10.5637 10.8801 10.5532C10.8916 10.5427 10.9285 10.5364 10.9285 10.5056C10.9285 10.4748 10.94 10.4713 10.9439 10.4545C10.9477 10.4377 10.9477 10.402 10.9324 10.3852C10.917 10.3684 10.8947 10.3439 10.8908 10.3341C10.887 10.3236 10.8724 10.3068 10.8493 10.2998C10.827 10.2928 10.8078 10.2893 10.8078 10.2725C10.8078 10.2557 10.8232 10.276 10.8232 10.2312C10.8232 10.1871 10.7932 10.1801 10.7932 10.1801L10.7478 10.1528C10.7478 10.1528 10.6678 10.1318 10.6463 10.1318C10.6247 10.1318 10.6001 10.1094 10.6247 10.0954C10.6493 10.0814 10.6555 10.0562 10.6463 10.0366C10.637 10.017 10.6309 10.003 10.5971 9.99464C10.5632 9.98624 10.554 9.97784 10.5694 9.95824C10.5847 9.93864 10.5878 9.92464 10.6063 9.93864C10.6247 9.95264 10.6555 9.95824 10.6801 9.94704C10.7047 9.93584 10.7139 9.92744 10.7263 9.93864C10.7386 9.94984 10.7539 9.96104 10.7724 9.94424C10.7909 9.92744 10.8247 9.92464 10.8401 9.93304C10.8555 9.94144 10.8924 9.93864 10.9047 9.93304C10.917 9.92744 10.9416 9.90784 10.9416 9.89664C10.9416 9.88544 10.957 9.86584 10.9723 9.85744C10.9877 9.84904 11.0062 9.82104 11.0216 9.82104C11.0369 9.82104 11.0431 9.80424 11.0431 9.79304C11.0431 9.78184 11.0554 9.75944 11.0585 9.75104C11.0616 9.74264 11.0923 9.73074 11.1139 9.74824C11.1354 9.76504 11.1631 9.77064 11.1631 9.77064C11.1631 9.77064 11.1938 9.77624 11.2092 9.77064C11.2246 9.76504 11.2461 9.75944 11.2677 9.77344C11.2892 9.78744 11.32 9.78744 11.32 9.78744C11.32 9.78744 11.3261 9.76504 11.3261 9.75384C11.3261 9.74264 11.3323 9.72304 11.32 9.71464C11.3077 9.70624 11.2923 9.69504 11.3169 9.67824C11.3415 9.66144 11.3415 9.66424 11.3661 9.66424C11.3907 9.66424 11.4061 9.66704 11.4245 9.66704C11.443 9.66704 11.4738 9.68384 11.4738 9.70064C11.4738 9.71744 11.4861 9.72864 11.5015 9.73704C11.5168 9.74544 11.5353 9.75384 11.5291 9.76784C11.523 9.78184 11.523 9.79304 11.5414 9.79024C11.5599 9.78744 11.5661 9.79864 11.5661 9.81264C11.5661 9.82664 11.5722 9.83504 11.5907 9.84064C11.6091 9.84624 11.6183 9.85744 11.6183 9.87144C11.6183 9.88544 11.6153 9.89384 11.6214 9.90784C11.6276 9.92184 11.646 9.94424 11.646 9.94424C11.646 9.94424 11.6799 9.98344 11.6368 9.96384C11.5937 9.94424 11.5845 9.93584 11.5691 9.93864C11.5537 9.94144 11.5445 9.94984 11.5445 9.94984C11.5445 9.94984 11.523 9.95544 11.5076 9.95544C11.4922 9.95544 11.4768 9.98624 11.5015 9.99184C11.5261 9.99744 11.5353 10.003 11.5353 10.0226C11.5353 10.0422 11.5261 10.0366 11.5138 10.0506C11.5015 10.0646 11.4922 10.0562 11.4707 10.0562C11.4492 10.0562 11.443 10.073 11.443 10.0898C11.443 10.1066 11.4522 10.1038 11.4615 10.1178C11.4707 10.1318 11.4861 10.1346 11.5015 10.1206C11.5168 10.1066 11.5291 10.0982 11.5384 10.1234C11.5476 10.1486 11.5599 10.1486 11.5784 10.1486C11.5968 10.1486 11.603 10.1486 11.6183 10.1402C11.6337 10.1318 11.6522 10.1402 11.6553 10.1626C11.6583 10.185 11.6737 10.1878 11.6891 10.1962C11.7045 10.2046 11.7137 10.2102 11.7168 10.2242C11.7199 10.2382 11.7291 10.2438 11.7445 10.2354C11.7599 10.227 11.7845 10.2214 11.7937 10.2326C11.8029 10.2438 11.8183 10.2662 11.8183 10.2662L11.8214 10.2942L11.8798 10.3138C11.8798 10.3138 11.886 10.3278 11.886 10.339C11.886 10.3502 11.8952 10.3558 11.9106 10.353C11.926 10.3502 11.9537 10.353 11.9537 10.353C11.9537 10.353 11.9752 10.3446 11.9752 10.3278C11.9752 10.311 11.9844 10.3054 11.9998 10.3054C12.0152 10.3054 12.049 10.3166 12.0582 10.2998C12.0675 10.283 12.0952 10.2774 12.1167 10.2858C12.1382 10.2942 12.1936 10.3166 12.1936 10.3166C12.1936 10.3166 12.1874 10.3194 12.2059 10.3474C12.2244 10.3754 12.2582 10.3754 12.2582 10.3754C12.2582 10.3754 12.2613 10.4006 12.2674 10.4118C12.2736 10.423 12.3013 10.4286 12.3166 10.4174C12.332 10.4062 12.3536 10.3922 12.372 10.3922C12.3905 10.3922 12.4028 10.3922 12.4028 10.381C12.4028 10.3698 12.3843 10.3614 12.3843 10.3446C12.3843 10.3278 12.4028 10.3278 12.4059 10.311C12.4089 10.2942 12.4274 10.311 12.4397 10.3194C12.452 10.3278 12.4674 10.3418 12.4674 10.353C12.4674 10.3642 12.492 10.4034 12.5074 10.409C12.5227 10.4146 12.5627 10.4174 12.575 10.4034C12.5873 10.3894 12.6181 10.3838 12.615 10.4174C12.612 10.451 12.6058 10.4538 12.6273 10.465C12.6489 10.4762 12.6519 10.5154 12.6335 10.5266C12.615 10.5378 12.6089 10.5406 12.6089 10.5602C12.6089 10.5798 12.6027 10.6022 12.6181 10.6134C12.6335 10.6246 12.6427 10.633 12.6427 10.6442C12.6427 10.6554 12.6612 10.7058 12.6612 10.7058C12.6612 10.7058 12.6704 10.7562 12.6673 10.7674C12.6643 10.7786 12.6581 10.7982 12.6858 10.7954C12.7135 10.7926 12.7196 10.7926 12.7196 10.815C12.7196 10.8374 12.7289 10.8458 12.7135 10.8542C12.6981 10.8626 12.6889 10.8906 12.7042 10.8962C12.7196 10.9018 12.7319 10.9102 12.735 10.9214C12.7381 10.9326 12.7627 10.9522 12.7781 10.941C12.7935 10.9298 12.7965 10.9242 12.8088 10.9214C12.8211 10.9186 12.8304 10.9102 12.8181 10.8962C12.8058 10.8822 12.8027 10.8682 12.815 10.8598C12.8273 10.8514 12.8334 10.8234 12.8334 10.8234C12.8334 10.8234 12.8519 10.7982 12.8734 10.8234C12.895 10.8486 12.898 10.8402 12.9134 10.8402C12.9288 10.8402 12.935 10.8542 12.935 10.8682C12.935 10.8822 12.9657 10.8794 12.9657 10.9018C12.9657 10.9242 12.9719 10.9774 12.9719 10.9774C12.9719 10.9774 12.9719 11.0082 12.9903 11.0194C13.0088 11.0306 13.0057 11.0334 12.9965 11.0474C12.9873 11.0614 12.9903 11.0838 12.9903 11.095C12.9903 11.1062 12.9965 11.1118 12.9811 11.123C12.9657 11.1342 12.9596 11.1482 12.9688 11.165C12.978 11.1818 12.9749 11.193 12.9996 11.2126C13.0242 11.2322 13.0211 11.2406 13.0211 11.2546C13.0211 11.2686 13.0457 11.2882 13.0457 11.3022C13.0457 11.3162 13.0642 11.333 13.0795 11.3358C13.0949 11.3386 13.1134 11.3638 13.1134 11.3778C13.1134 11.3918 13.1165 11.4282 13.1165 11.4282C13.1165 11.4282 13.1134 11.4366 13.1318 11.4366C13.1503 11.4366 13.1626 11.4562 13.1687 11.4338C13.1749 11.4114 13.1934 11.4086 13.2057 11.403C13.218 11.3974 13.2426 11.3862 13.2549 11.3946C13.2672 11.403 13.2826 11.403 13.2949 11.403C13.3072 11.403 13.3656 11.4058 13.3656 11.4058C13.3656 11.4058 13.381 11.403 13.3902 11.4254C13.3995 11.4478 13.4271 11.473 13.4118 11.4842C13.3964 11.4954 13.3964 11.5178 13.4148 11.5178C13.4333 11.5178 13.4518 11.5178 13.4518 11.5318C13.4518 11.5458 13.4548 11.557 13.4702 11.5486C13.4856 11.5402 13.4948 11.5374 13.501 11.5486C13.5071 11.5598 13.5194 11.5598 13.5348 11.5682C13.5502 11.5766 13.5563 11.571 13.5656 11.5598C13.5748 11.5486 13.6117 11.5374 13.6117 11.5374C13.6117 11.5374 13.6609 11.5262 13.6794 11.5318C13.6979 11.5374 13.7225 11.5486 13.7225 11.5486C13.7225 11.5486 13.7348 11.5766 13.7286 11.5934C13.7225 11.6102 13.7163 11.6074 13.7225 11.6326C13.7286 11.6578 13.7163 11.6606 13.704 11.6578C13.6917 11.655 13.6794 11.655 13.6794 11.6774C13.6794 11.6998 13.6671 11.7054 13.6671 11.725C13.6671 11.7446 13.6671 11.7418 13.6548 11.7502C13.6425 11.7586 13.6394 11.7726 13.6579 11.7754C13.6763 11.7782 13.6702 11.7978 13.6702 11.809C13.6702 11.8202 13.6671 11.8454 13.6671 11.8454C13.6671 11.8454 13.6702 11.8594 13.6486 11.8594C13.6271 11.8594 13.6086 11.8566 13.6056 11.8706C13.6025 11.8846 13.5779 11.907 13.5994 11.921C13.6209 11.935 13.6148 11.9434 13.6025 11.949C13.5902 11.9546 13.581 11.9826 13.6056 11.991C13.6302 11.9994 13.6271 12.0078 13.6117 12.019C13.5963 12.0302 13.5656 12.0386 13.5656 12.0554C13.5656 12.0722 13.5594 12.0722 13.541 12.075C13.5225 12.0778 13.5133 12.1002 13.5348 12.1282C13.5563 12.1562 13.5625 12.1506 13.5779 12.1506C13.5933 12.1506 13.5933 12.1282 13.5933 12.1282C13.5933 12.1282 13.6456 12.131 13.6609 12.131C13.6763 12.131 13.6979 12.131 13.7102 12.1226C13.7225 12.1142 13.7563 12.1002 13.7563 12.1254C13.7563 12.1506 13.7625 12.1478 13.7778 12.159C13.7932 12.1702 13.7963 12.1618 13.8086 12.1786C13.8209 12.1954 13.824 12.1814 13.8332 12.1618C13.8424 12.1422 13.8609 12.1226 13.8763 12.145C13.8917 12.1674 13.8917 12.1618 13.9101 12.1618C13.9286 12.1618 13.9347 12.1702 13.9347 12.1842C13.9347 12.1982 13.9532 12.1982 13.9747 12.1954C13.9962 12.1926 13.9993 12.2066 14.0085 12.2206C14.0178 12.2346 14.0209 12.2318 14.0332 12.2318C14.0455 12.2318 14.0578 12.2318 14.067 12.2206C14.0762 12.2094 14.0885 12.1954 14.1008 12.2122C14.1131 12.229 14.1377 12.2262 14.1439 12.2066C14.1501 12.187 14.1777 12.1702 14.1931 12.1926C14.2085 12.215 14.2208 12.215 14.2362 12.2178C14.2516 12.2206 14.2731 12.2206 14.2823 12.2346C14.2916 12.2486 14.3223 12.271 14.3008 12.2878C14.2793 12.3046 14.2546 12.327 14.2731 12.3326C14.2916 12.3382 14.3039 12.3438 14.3162 12.3578C14.3285 12.3718 14.3685 12.3774 14.3869 12.3802C14.4054 12.383 14.4208 12.3858 14.4423 12.369C14.4638 12.3522 14.4854 12.3522 14.4823 12.3746C14.4792 12.397 14.4915 12.4222 14.4915 12.4222C14.4915 12.4222 14.5069 12.4586 14.5069 12.4726C14.5069 12.4866 14.5038 12.4894 14.5315 12.5062C14.5592 12.523 14.5561 12.5342 14.5776 12.5174C14.5992 12.5006 14.6053 12.4922 14.6053 12.4782C14.6053 12.4642 14.6053 12.4334 14.6053 12.4334C14.6053 12.4334 14.6361 12.4278 14.6484 12.4194C14.6607 12.411 14.7099 12.3858 14.7222 12.397C14.7345 12.4082 14.7499 12.4054 14.7622 12.3998C14.7745 12.3942 14.7991 12.3942 14.8114 12.3942C14.8237 12.3942 14.8453 12.397 14.8699 12.3774C14.8945 12.3578 14.8945 12.3634 14.9099 12.3774C14.9253 12.3914 14.9253 12.4082 14.916 12.4194C14.9068 12.4306 14.916 12.4558 14.9376 12.4558C14.9591 12.4558 14.9652 12.467 14.9652 12.481C14.9652 12.495 14.9683 12.5146 14.9714 12.5258C14.9745 12.537 14.9745 12.5426 15.0083 12.551C15.0421 12.5594 15.036 12.579 15.0421 12.593C15.0483 12.607 15.0483 12.6182 15.0298 12.6182C15.0114 12.6182 15.0052 12.6266 15.0022 12.6406C14.9991 12.6546 14.9714 12.6602 14.9714 12.6602L14.9437 12.6546C14.9437 12.6546 14.9253 12.6546 14.916 12.6658C14.9068 12.677 14.8883 12.6994 14.9006 12.719C14.9129 12.7386 14.9129 12.7498 14.9006 12.7582C14.8883 12.7666 14.8822 12.8086 14.8699 12.8002C14.8576 12.7918 14.8422 12.803 14.8299 12.8086C14.8176 12.8142 14.8207 12.8534 14.8453 12.8674C14.8699 12.8814 14.876 12.901 14.876 12.901L14.9037 12.943C14.9037 12.943 14.8945 12.9514 14.8883 12.9654C14.8822 12.9794 14.8637 13.0074 14.8822 13.013C14.9006 13.0186 14.8914 13.0494 14.873 13.0494C14.8545 13.0494 14.833 13.041 14.8299 13.0634C14.8268 13.0858 14.8176 13.0802 14.7991 13.0774C14.7807 13.0746 14.7345 13.0634 14.7222 13.0858C14.7099 13.1082 14.7068 13.1166 14.6853 13.1138C14.6638 13.111 14.673 13.1474 14.6792 13.1614C14.6853 13.1754 14.7068 13.195 14.7068 13.195C14.7068 13.195 14.7253 13.209 14.7253 13.237C14.7253 13.265 14.713 13.2622 14.7007 13.2426C14.6884 13.223 14.6638 13.2258 14.6607 13.2482C14.6576 13.2706 14.6545 13.3042 14.633 13.3042C14.6115 13.3042 14.6023 13.3098 14.593 13.321C14.5838 13.3322 14.5684 13.3518 14.5684 13.363C14.5684 13.3742 14.5653 13.3854 14.55 13.3882C14.5346 13.391 14.5315 13.4218 14.5315 13.4218C14.5315 13.4218 14.4946 13.4274 14.4915 13.4414C14.4884 13.4554 14.4946 13.4778 14.4638 13.4806C14.4331 13.4834 14.4146 13.503 14.4054 13.517C14.3961 13.531 14.3931 13.5422 14.4054 13.5562C14.4177 13.5702 14.4269 13.615 14.4423 13.6234C14.4577 13.6318 14.47 13.6346 14.4669 13.657C14.4638 13.6794 14.4454 13.6962 14.47 13.6962C14.4946 13.6962 14.51 13.7018 14.5007 13.7214C14.4915 13.741 14.4915 13.7438 14.4731 13.7522C14.4546 13.7606 14.4454 13.7606 14.4454 13.783C14.4454 13.8054 14.4515 13.8054 14.4361 13.8138C14.4208 13.8222 14.4208 13.8334 14.4208 13.8502C14.4208 13.867 14.4146 13.8614 14.3961 13.881C14.3777 13.9006 14.3531 13.9006 14.3377 13.895C14.3223 13.8894 14.3192 13.8894 14.3162 13.8726C14.3131 13.8558 14.2854 13.8558 14.27 13.8586C14.2546 13.8614 14.2331 13.8782 14.2331 13.8782C14.2331 13.8782 14.2054 13.895 14.2177 13.909C14.23 13.923 14.2239 13.9454 14.2023 13.9426C14.1808 13.9398 14.1316 13.965 14.1162 13.9398C14.1008 13.9146 14.0578 13.8978 14.0516 13.9314C14.0455 13.965 14.0701 13.9622 14.067 13.9958C14.0639 14.0294 14.0578 14.0294 14.0455 14.0406C14.0332 14.0518 14.0332 14.0602 14.0301 14.0742C14.027 14.0882 14.0239 14.119 14.0455 14.1302C14.067 14.1414 14.0762 14.1722 14.0762 14.189C14.0762 14.2058 14.0762 14.2226 14.0978 14.2226C14.1193 14.2226 14.1377 14.2198 14.1408 14.2002C14.1439 14.1806 14.187 14.1694 14.19 14.2086C14.1931 14.2478 14.1931 14.2674 14.2085 14.2842C14.2239 14.301 14.2362 14.3234 14.2485 14.3318C14.2608 14.3402 14.2816 14.4116 14.2816 14.4116C14.2516 14.4179 14.2439 14.4564 14.2247 14.4641C14.2139 14.4683 14.2023 14.4648 14.1924 14.4718C14.1847 14.4774 14.1847 14.4879 14.1739 14.4928C14.1516 14.5026 14.1554 14.4683 14.1285 14.4809C14.1039 14.4921 14.1016 14.5201 14.0662 14.5082C14.0478 14.5019 14.0362 14.4305 14.0309 14.4137C14.0278 14.4039 14.0085 14.3745 14.0024 14.3654C13.9816 14.3346 13.9401 14.3654 13.927 14.3563C13.9063 14.3423 13.9155 14.3185 13.884 14.3157C13.8201 14.3115 13.8655 14.3542 13.8386 14.364C13.7871 14.3822 13.7871 14.3164 13.7486 14.3465C13.734 14.3577 13.7717 14.3647 13.7625 14.3843C13.7548 14.4004 13.7171 14.4249 13.7194 14.4438C13.7225 14.4697 13.7509 14.4774 13.7594 14.4991C13.7824 14.5565 13.744 14.5964 13.6863 14.5516C13.654 14.5264 13.6479 14.4795 13.5979 14.483C13.5863 14.4837 13.5825 14.4956 13.571 14.497C13.5594 14.4977 13.5502 14.4865 13.5379 14.49C13.5194 14.4963 13.5356 14.5089 13.5317 14.5194C13.5317 14.5194 13.5071 14.5397 13.5033 14.5453C13.4894 14.5635 13.4941 14.5796 13.4741 14.5943C13.4571 14.6069 13.4441 14.5992 13.4256 14.6188C13.4064 14.6391 13.4048 14.6692 13.3802 14.6888C13.3679 14.6986 13.3595 14.6594 13.3441 14.6853C13.3418 14.6888 13.3395 14.6923 13.3379 14.6958C13.3341 14.7035 13.3333 14.707 13.3372 14.7154C13.3695 14.777 13.3018 14.8001 13.281 14.8435C13.2718 14.8617 13.2972 14.8785 13.2872 14.8925C13.2803 14.903 13.2503 14.9317 13.248 14.938C13.2457 14.9443 13.2426 14.9583 13.2372 14.9632C13.2318 14.9688 13.2134 14.966 13.2118 14.9744C13.2103 14.9842 13.231 14.9919 13.2364 14.9982C13.2433 15.0059 13.2333 15.0164 13.2357 15.0185C13.2703 15.0528 13.2495 15.0423 13.2672 15.0724C13.2695 15.0766 13.2803 15.0689 13.2841 15.0801C13.288 15.0906 13.2756 15.0899 13.2803 15.1018C13.281 15.1053 13.3056 15.1368 13.3056 15.1375C13.3072 15.148 13.2587 15.1697 13.248 15.1697C13.2187 15.1704 13.2733 15.1102 13.2257 15.1102C13.2049 15.1102 13.2034 15.1571 13.198 15.162C13.1957 15.1641 13.1764 15.162 13.1718 15.162C13.1411 15.162 13.1211 15.1998 13.1088 15.2033C13.1011 15.2061 13.0842 15.1991 13.0711 15.2012C13.0588 15.2033 13.0442 15.2152 13.0326 15.2152C13.0249 15.2152 13.0211 15.2103 13.0149 15.2068C13.0011 15.1991 12.9757 15.1956 12.9603 15.1907C12.9519 15.1879 12.9357 15.2012 12.9303 15.1977C12.9203 15.1914 12.9373 15.1739 12.9142 15.1613C12.9111 15.1599 12.8942 15.1193 12.895 15.1172C12.9027 15.0906 12.9111 15.0619 12.9073 15.0339C12.9027 15.0052 12.8573 14.9807 12.845 14.9576C12.8358 14.9401 12.8273 14.8939 12.8096 14.882C12.7904 14.8694 12.7727 14.8449 12.7627 14.826C12.7596 14.8204 12.7688 14.8106 12.7619 14.8008C12.7542 14.7903 12.7396 14.7861 12.7358 14.7721C12.7327 14.7609 12.7358 14.7245 12.7227 14.7168C12.7081 14.7084 12.6143 14.6972 12.5912 14.6951C12.5789 14.6944 12.5697 14.6944 12.5604 14.6853C12.5566 14.6818 12.5504 14.6671 12.5474 14.6671C12.5381 14.6664 12.5274 14.6713 12.5181 14.672C12.5112 14.6727 12.4997 14.6678 12.4935 14.672C12.4635 14.6923 12.4558 14.7182 12.4274 14.7399C12.3982 14.7616 12.3659 14.7609 12.3366 14.7861C12.3182 14.8022 12.3059 14.8407 12.2874 14.8589C12.2797 14.8666 12.2674 14.8589 12.2643 14.8624C12.249 14.8813 12.2274 14.8925 12.2121 14.91C12.209 14.9135 12.2097 14.9205 12.2059 14.9233L12.1728 14.9317C12.1644 14.9331 12.1482 14.931 12.1413 14.9331C12.1259 14.938 12.1267 14.9541 12.0744 14.9646C12.0705 14.9653 12.0636 14.9688 12.0606 14.9709C12.0544 14.9751 12.0498 14.9814 12.0436 14.9856C12.0398 14.9884 12.0283 14.9835 12.0213 14.9842C12.0083 14.9863 12.0006 14.9975 11.9883 14.9989C11.9606 15.0024 11.916 14.9863 11.8944 14.9947C11.8814 14.9996 11.8452 15.0395 11.8321 15.0437C11.8237 15.0465 11.8175 15.043 11.8083 15.0395C11.8037 15.0451 11.7929 15.0885 11.7891 15.0983C11.7891 15.099 11.7299 15.148 11.7252 15.1536C11.7176 15.162 11.7145 15.1711 11.7053 15.1802C11.6991 15.1865 11.6891 15.1921 11.6791 15.1921C11.6668 15.1921 11.6483 15.183 11.6368 15.1809C11.6145 15.1774 11.5476 15.1746 11.5276 15.1788C11.5068 15.183 11.513 15.2418 11.4615 15.2474C11.4315 15.2509 11.4038 15.2565 11.373 15.2593C11.3699 15.2593 11.3515 15.2467 11.333 15.2516C11.3261 15.2537 11.3038 15.2761 11.3038 15.2831V15.2957C11.3038 15.2978 11.31 15.3055 11.3092 15.3062C11.2977 15.3195 11.2715 15.3405 11.263 15.3559C11.2607 15.3601 11.2577 15.365 11.2538 15.3678C11.2469 15.3727 11.2115 15.386 11.2084 15.3923C11.2 15.4133 11.2331 15.4329 11.23 15.4413C11.2208 15.4686 11.1838 15.4945 11.1723 15.5197C11.1677 15.5302 11.1846 15.5652 11.1838 15.5771C11.18 15.61 11.1685 15.652 11.17 15.6842C11.17 15.6905 11.1746 15.7234 11.1769 15.7269C11.1808 15.7332 11.1892 15.7367 11.1946 15.7423C11.2 15.7479 11.2407 15.8263 11.2423 15.8347C11.25 15.8928 11.1646 15.8725 11.2138 15.9306C11.2215 15.9397 11.2277 15.9495 11.2361 15.9572C11.2469 15.9677 11.31 16.0132 11.3107 16.0181C11.3123 16.0265 11.26 16.0349 11.2507 16.044C11.2261 16.0678 11.2054 16.1119 11.1815 16.1364C11.1669 16.1518 11.1538 16.135 11.1346 16.1707C11.1277 16.184 11.1346 16.2141 11.1262 16.2225C11.1139 16.2351 11.1039 16.2183 11.0916 16.2239C11.0862 16.226 11.0831 16.2414 11.0777 16.2456C11.0639 16.2575 10.9408 16.3219 10.9293 16.3163C10.9231 16.3135 10.9162 16.2932 10.9154 16.2869C10.9139 16.2799 10.9062 16.2645 10.9001 16.2596C10.8685 16.233 10.8201 16.2281 10.7893 16.2603C10.7816 16.2687 10.7809 16.2813 10.7709 16.2897C10.7539 16.3037 10.7347 16.3163 10.7186 16.3303C10.7155 16.3331 10.7063 16.3436 10.7024 16.3429C10.6901 16.3415 10.6601 16.3079 10.6524 16.2988C10.6386 16.2827 10.5986 16.2442 10.5947 16.226C10.5947 16.1637 10.5455 16.0986 10.5248 16.0377L10.5555 16.0384C10.5901 16.0153 10.5801 15.9586 10.6424 15.981C10.6501 15.9705 10.6493 15.9593 10.664 15.9516C10.6693 15.9488 10.6793 15.946 10.6824 15.9411C10.7032 15.9096 10.7278 15.7892 10.7063 15.7584C10.687 15.7304 10.667 15.7318 10.6517 15.6856C10.647 15.673 10.6555 15.6583 10.6517 15.6443C10.6486 15.6331 10.6278 15.5666 10.6247 15.5617C10.6209 15.5561 10.6078 15.5491 10.6071 15.5456C10.6063 15.54 10.6017 15.4679 10.604 15.4623C10.5832 15.4063 10.5132 15.3706 10.5094 15.3643C10.5009 15.351 10.4925 15.3335 10.4832 15.3188C10.4725 15.3013 10.4725 15.2922 10.4663 15.2754C10.464 15.2677 10.4525 15.2614 10.4517 15.253C10.4502 15.2383 10.4925 15.2075 10.4909 15.1816C10.4902 15.1732 10.464 15.148 10.4694 15.134C10.4748 15.1193 10.5017 15.0864 10.5009 15.0703C10.4994 15.0486 10.4586 15.0017 10.4532 14.9786C10.4509 14.9674 10.4694 14.9583 10.4648 14.9506C10.4594 14.9408 10.4163 14.9023 10.4094 14.8911C10.404 14.8827 10.4256 14.8715 10.4102 14.8561C10.3963 14.8421 10.4079 14.847 10.404 14.8351C10.3994 14.8218 10.384 14.8099 10.3779 14.7959C10.3725 14.784 10.3356 14.6524 10.3363 14.6447C10.3302 14.6356 10.3194 14.6279 10.314 14.6188C10.3087 14.6097 10.3064 14.5922 10.3017 14.5852C10.301 14.5845 10.2602 14.5726 10.2525 14.5607C10.2464 14.5509 10.2448 14.5187 10.2341 14.5026C10.2287 14.4949 10.2202 14.4963 10.2141 14.4907C10.2087 14.4865 10.2095 14.4788 10.2056 14.4739C10.1933 14.4571 10.1687 14.4725 10.1518 14.4109C10.1295 14.3955 10.1087 14.3822 10.0895 14.3633C10.0856 14.3598 10.0833 14.3556 10.0787 14.3535C10.0633 14.3472 10.0403 14.3451 10.0272 14.3339C10.0195 14.3339 9.97874 14.3325 9.97412 14.3297C9.96951 14.3269 9.9649 14.3094 9.96182 14.3087C9.94029 14.3045 9.90491 14.3066 9.88645 14.2912C9.87184 14.2786 9.86876 14.2177 9.84262 14.2261C9.83954 14.2247 9.8357 14.2233 9.83185 14.224C9.81493 14.2023 9.75648 14.1995 9.73264 14.1855C9.72572 14.1813 9.70342 14.1848 9.70342 14.1785C9.7088 14.1666 9.70727 14.1568 9.70803 14.1449C9.69496 14.1323 9.6865 14.1176 9.67727 14.1085C9.65497 14.1036 9.66343 14.1015 9.64959 14.0931C9.61113 14.0903 9.60729 14.0966 9.58268 14.119C9.57653 14.1246 9.56422 14.126 9.55653 14.1302C9.54346 14.1372 9.53961 14.1603 9.52116 14.1498C9.515 14.1463 9.51116 14.1407 9.50654 14.1365C9.49578 14.1274 9.48962 14.1323 9.48424 14.1155C9.45271 14.0987 9.36581 14.1568 9.34504 14.1162C9.33043 14.1085 9.31966 14.1183 9.30736 14.1057C9.30121 14.0994 9.32428 14.0294 9.26122 14.0007C9.27583 13.9895 9.29121 13.9818 9.30505 13.9713C9.3089 13.9636 9.30428 13.9517 9.30428 13.944C9.30428 13.9321 9.31197 13.909 9.30967 13.9006C9.30736 13.8922 9.29813 13.8852 9.29506 13.8754C9.29121 13.8656 9.29582 13.853 9.29044 13.8425C9.2866 13.8397 9.27506 13.8327 9.27045 13.8327C9.2543 13.8194 9.23661 13.811 9.22353 13.7949C9.22046 13.7914 9.21815 13.7851 9.21431 13.7823C9.20277 13.7739 9.16509 13.7627 9.16662 13.7452C9.16739 13.7396 9.17508 13.7389 9.17739 13.7333C9.1797 13.7263 9.17816 13.7172 9.18354 13.7109C9.20123 13.6871 9.24045 13.6976 9.2343 13.6535C9.23122 13.6339 9.21738 13.6171 9.21354 13.5961C9.20662 13.5912 9.20585 13.5828 9.19969 13.5779C9.16124 13.5744 9.16662 13.5352 9.15278 13.5261C9.11202 13.4988 9.08049 13.5156 9.12586 13.4617C9.13202 13.4442 9.08664 13.4162 9.07742 13.4064C9.06127 13.391 9.06896 13.3588 9.0628 13.342C9.05973 13.3336 9.03281 13.3189 9.02435 13.307C9.02204 13.3035 9.01512 13.2853 9.01128 13.2832L9.01205 13.2776C9.02051 13.2713 9.01589 13.2587 9.01358 13.2503C9.0082 13.2454 8.99667 13.2468 8.99282 13.2433C8.95591 13.2104 8.9113 13.1957 8.86285 13.1768C8.84978 13.1719 8.85362 13.1614 8.84286 13.1565C8.83363 13.1523 8.76826 13.1236 8.76364 13.125C8.75595 13.1229 8.75057 13.0942 8.74519 13.0851C8.74057 13.0767 8.72211 13.0613 8.72211 13.0606C8.72365 13.034 8.70673 13.0305 8.68597 13.0165C8.68751 13.013 8.68366 13.0046 8.68366 13.0004C8.68366 12.9969 8.69751 12.9507 8.69981 12.9444C8.70366 12.9346 8.71673 12.9255 8.71442 12.9143C8.71135 12.8968 8.70904 12.8695 8.70289 12.8541C8.68212 12.7995 8.65751 12.8065 8.67059 12.7351C8.67367 12.7204 8.66828 12.712 8.67982 12.6987C8.67828 12.698 8.6852 12.691 8.68597 12.6896C8.69289 12.6833 8.71212 12.6728 8.71596 12.6679C8.7275 12.6525 8.73442 12.6175 8.74903 12.6063C8.7598 12.5979 8.79056 12.5818 8.79594 12.5748C8.80056 12.5692 8.80748 12.5517 8.80363 12.5447C8.79287 12.5384 8.7821 12.5412 8.77133 12.5398C8.76749 12.5391 8.75365 12.5293 8.74288 12.5272C8.7398 12.5237 8.73442 12.5195 8.73442 12.5146L8.72981 12.5104C8.7175 12.509 8.70366 12.5013 8.69289 12.4978C8.67905 12.4922 8.65982 12.4915 8.64675 12.4838C8.62214 12.4698 8.59445 12.4313 8.57061 12.4257C8.53831 12.4187 8.51755 12.4285 8.48679 12.4299C8.46679 12.4313 8.46679 12.4194 8.45064 12.4145C8.42911 12.4082 8.44526 12.4257 8.39604 12.4103C8.38989 12.4054 8.39912 12.3886 8.39988 12.3823C8.39219 12.3802 8.38297 12.3844 8.37374 12.3823C8.33298 12.3725 8.34836 12.3361 8.33759 12.3123C8.33298 12.3067 8.31606 12.3081 8.30837 12.3074C8.30606 12.3067 8.30529 12.3032 8.30606 12.3018L8.30991 12.299C8.31683 12.2885 8.29222 12.2619 8.29299 12.2584C8.29452 12.25 8.34451 12.2423 8.35143 12.2416C8.35374 12.2353 8.34682 12.2297 8.34605 12.2234C8.34451 12.2094 8.35374 12.1912 8.35836 12.1786L8.35682 12.1744C8.34297 12.1667 8.33836 12.1555 8.32606 12.1464C8.32682 12.1401 8.33528 12.1359 8.33682 12.1296C8.36066 12.0645 8.39758 12.1163 8.42988 12.0561C8.43295 12.0505 8.44218 12.0358 8.44526 12.026L8.45141 12.0246C8.45756 12.026 8.46602 12.0309 8.47217 12.0288C8.47679 12.0225 8.48679 12.0204 8.49448 12.0183L8.50601 12.0211C8.566 12.0085 8.55216 11.9868 8.58676 11.9623C8.59599 11.956 8.62291 11.9532 8.63521 11.949C8.64829 11.9546 8.66674 11.9749 8.69135 11.984C8.70904 11.991 8.7698 12.0036 8.77979 12.0092C8.79287 12.0162 8.79517 12.033 8.80671 12.0393C8.84132 12.0575 8.82132 12.0267 8.85439 12.033C8.88823 12.04 8.91591 12.0673 8.94745 12.0806C8.95283 12.0827 8.9659 12.0799 8.97206 12.0785C8.98205 12.0764 9.03589 12.0666 9.04127 12.0687C9.04742 12.0708 9.05665 12.0764 9.0628 12.0778C9.07049 12.0792 9.07665 12.0631 9.08203 12.0638C9.1051 12.0673 9.10587 12.0764 9.13663 12.0736C9.13817 12.0736 9.15278 11.9882 9.16739 11.984C9.17585 11.9819 9.19892 12.0043 9.20585 12.0057C9.21738 12.0085 9.20508 11.9882 9.20431 11.9868C9.20123 11.9798 9.18508 11.9273 9.18585 11.9224C9.18662 11.9196 9.20123 11.9266 9.20815 11.9245C9.22507 11.9189 9.24814 11.9147 9.26045 11.9014C9.26199 11.9 9.28813 11.8629 9.2889 11.8615C9.29044 11.8552 9.28198 11.8405 9.28583 11.8356C9.28967 11.8314 9.30428 11.8258 9.31121 11.8188C9.3212 11.809 9.32274 11.7922 9.33658 11.7852C9.39119 11.7803 9.41041 11.7383 9.45963 11.7327C9.46271 11.7327 9.47347 11.7306 9.47578 11.7313L9.48578 11.7474C9.48886 11.7516 9.52192 11.7712 9.52731 11.7698C9.53192 11.7691 9.53423 11.7614 9.53884 11.76C9.54884 11.7614 9.57653 11.7446 9.5796 11.7362C9.58037 11.7348 9.57345 11.7264 9.57653 11.7208C9.57883 11.7166 9.61344 11.6914 9.61882 11.6886C9.63113 11.6886 9.6442 11.6858 9.65574 11.69C9.66266 11.6928 9.66343 11.7033 9.67112 11.7047C9.67958 11.7054 9.69496 11.7019 9.70111 11.7033C9.70803 11.7047 9.71111 11.6907 9.71957 11.69L9.72111 11.6914Z" fill="#D0A650"/>
<path d="M12.3462 7.71484L12.7745 9.01734L11.6533 8.21235H13.0391L11.918 9.01734L12.3462 7.71484Z" fill="white"/>
<path d="M14.0142 8.00391L14.4424 9.3064L13.3213 8.50141H14.7071L13.586 9.3064L14.0142 8.00391Z" fill="white"/>
<path d="M15.605 8.57812L16.0333 9.88062L14.9121 9.07563H16.2979L15.1768 9.88062L15.605 8.57812Z" fill="white"/>
<path d="M20 6L20 18L4 18L4 6L20 6ZM20 5L4 5C3.4 5 3 5.4 3 6L3 18C3 18.6 3.4 19 4 19L20 19C20.6 19 21 18.6 21 18L21 6C21 5.4 20.6 5 20 5Z" fill="#B5B5B5"/>
</svg>
