<svg width="24" height="24" viewBox="0 0 24 24" fill="none" xmlns="http://www.w3.org/2000/svg">
<path d="M20 6H4V18H20V6Z" fill="#CE1126"/>
<path d="M20 9H4V15H20V9Z" fill="#002868"/>
<path d="M11.9996 14.4016C13.3251 14.4016 14.3996 13.327 14.3996 12.0016C14.3996 10.6761 13.3251 9.60156 11.9996 9.60156C10.6741 9.60156 9.59961 10.6761 9.59961 12.0016C9.59961 13.327 10.6741 14.4016 11.9996 14.4016Z" fill="white"/>
<path d="M20 6L20 18L4 18L4 6L20 6ZM20 5L4 5C3.4 5 3 5.4 3 6L3 18C3 18.6 3.4 19 4 19L20 19C20.6 19 21 18.6 21 18L21 6C21 5.4 20.6 5 20 5Z" fill="#B5B5B5"/>
</svg>
