<svg width="24" height="24" viewBox="0 0 24 24" fill="none" xmlns="http://www.w3.org/2000/svg">
<path d="M20 6H4V18H20V6Z" fill="#002B7F"/>
<path d="M20 12H4V18H20V12Z" fill="#CE1126"/>
<path d="M8.24964 8.44835L8.21354 9.69835H6.96822C6.81501 9.39498 6.68848 9.13732 6.68848 8.78842C6.68848 8.49643 6.91396 8.26453 7.23894 8.26453C7.58297 8.26453 7.96095 8.3826 8.24964 8.44835Z" fill="#FFD83D"/>
<path d="M6.83691 8.50494V9.22645V8.50494Z" fill="#FFD83D"/>
<path d="M6.83691 8.50494V9.22645" stroke="black" stroke-width="0.01" stroke-linecap="round" stroke-linejoin="round"/>
<path d="M6.9375 8.4325V9.39318V8.4325Z" fill="#FFD83D"/>
<path d="M6.9375 8.4325V9.39318" stroke="black" stroke-width="0.01" stroke-linecap="round" stroke-linejoin="round"/>
<path d="M7.03711 8.38135V9.52585V8.38135Z" fill="#FFD83D"/>
<path d="M7.03711 8.38135V9.52585" stroke="black" stroke-width="0.01" stroke-linecap="round" stroke-linejoin="round"/>
<path d="M7.13672 8.35583V9.25346V8.35583Z" fill="#FFD83D"/>
<path d="M7.13672 8.35583V9.25346" stroke="black" stroke-width="0.01" stroke-linecap="round" stroke-linejoin="round"/>
<path d="M7.2373 8.35156V9.25809V8.35156Z" fill="#FFD83D"/>
<path d="M7.2373 8.35156V9.25809" stroke="black" stroke-width="0.01" stroke-linecap="round" stroke-linejoin="round"/>
<path d="M7.33691 8.32172V9.25942V8.32172Z" fill="#FFD83D"/>
<path d="M7.33691 8.32172V9.25942" stroke="black" stroke-width="0.01" stroke-linecap="round" stroke-linejoin="round"/>
<path d="M7.4375 8.32172V9.25942V8.32172Z" fill="#FFD83D"/>
<path d="M7.4375 8.32172V9.25942" stroke="black" stroke-width="0.01" stroke-linecap="round" stroke-linejoin="round"/>
<path d="M7.53711 8.33026V9.26796V8.33026Z" fill="#FFD83D"/>
<path d="M7.53711 8.33026V9.26796" stroke="black" stroke-width="0.01" stroke-linecap="round" stroke-linejoin="round"/>
<path d="M7.6377 8.33875V9.27645V8.33875Z" fill="#FFD83D"/>
<path d="M7.6377 8.33875V9.27645" stroke="black" stroke-width="0.01" stroke-linecap="round" stroke-linejoin="round"/>
<path d="M7.7373 8.39844V9.33614V8.39844Z" fill="#FFD83D"/>
<path d="M7.7373 8.39844V9.33614" stroke="black" stroke-width="0.01" stroke-linecap="round" stroke-linejoin="round"/>
<path d="M7.83691 8.40692V9.46411V8.40692Z" fill="#FFD83D"/>
<path d="M7.83691 8.40692V9.46411" stroke="black" stroke-width="0.01" stroke-linecap="round" stroke-linejoin="round"/>
<path d="M7.9375 8.40692V9.34462V8.40692Z" fill="#FFD83D"/>
<path d="M7.9375 8.40692V9.34462" stroke="black" stroke-width="0.01" stroke-linecap="round" stroke-linejoin="round"/>
<path d="M8.03711 8.40692V9.34462V8.40692Z" fill="#FFD83D"/>
<path d="M8.03711 8.40692V9.34462" stroke="black" stroke-width="0.01" stroke-linecap="round" stroke-linejoin="round"/>
<path d="M7.46425 8.36005C7.6756 8.39556 8.13986 8.61679 8.08691 8.91611C8.01187 9.3403 7.76865 9.17007 7.4462 9.10913L7.20255 9.19185C7.11537 9.28248 6.98699 9.36552 6.90024 9.25619H6.75586V9.83063H8.35312V8.44277L7.46425 8.36005Z" fill="black" stroke="black" stroke-width="0.01" stroke-linecap="round" stroke-linejoin="round"/>
<path d="M8.17904 8.3599C8.23262 8.3599 8.27605 8.31567 8.27605 8.2611C8.27605 8.20653 8.23262 8.16229 8.17904 8.16229C8.12546 8.16229 8.08203 8.20653 8.08203 8.2611C8.08203 8.31567 8.12546 8.3599 8.17904 8.3599Z" fill="#FFD83D" stroke="black" stroke-width="0.01" stroke-linecap="round" stroke-linejoin="round"/>
<path d="M7.96127 8.30448C8.01484 8.30448 8.05828 8.26025 8.05828 8.20568C8.05828 8.15111 8.01484 8.10687 7.96127 8.10687C7.90769 8.10687 7.86426 8.15111 7.86426 8.20568C7.86426 8.26025 7.90769 8.30448 7.96127 8.30448Z" fill="#FFD83D" stroke="black" stroke-width="0.01" stroke-linecap="round" stroke-linejoin="round"/>
<path d="M7.73959 8.24906C7.79316 8.24906 7.8366 8.20483 7.8366 8.15026C7.8366 8.09569 7.79316 8.05145 7.73959 8.05145C7.68601 8.05145 7.64258 8.09569 7.64258 8.15026C7.64258 8.20483 7.68601 8.24906 7.73959 8.24906Z" fill="#FFD83D" stroke="black" stroke-width="0.01" stroke-linecap="round" stroke-linejoin="round"/>
<path d="M7.51791 8.21073C7.57148 8.21073 7.61492 8.1665 7.61492 8.11193C7.61492 8.05736 7.57148 8.01312 7.51791 8.01312C7.46433 8.01312 7.4209 8.05736 7.4209 8.11193C7.4209 8.1665 7.46433 8.21073 7.51791 8.21073Z" fill="#FFD83D" stroke="black" stroke-width="0.01" stroke-linecap="round" stroke-linejoin="round"/>
<path d="M7.29623 8.18943C7.3498 8.18943 7.39324 8.1452 7.39324 8.09063C7.39324 8.03606 7.3498 7.99182 7.29623 7.99182C7.24265 7.99182 7.19922 8.03606 7.19922 8.09063C7.19922 8.1452 7.24265 8.18943 7.29623 8.18943Z" fill="#FFD83D" stroke="black" stroke-width="0.01" stroke-linecap="round" stroke-linejoin="round"/>
<path d="M7.07845 8.20219C7.13203 8.20219 7.17546 8.15795 7.17546 8.10338C7.17546 8.04881 7.13203 8.00458 7.07845 8.00458C7.02488 8.00458 6.98145 8.04881 6.98145 8.10338C6.98145 8.15795 7.02488 8.20219 7.07845 8.20219Z" fill="#FFD83D" stroke="black" stroke-width="0.01" stroke-linecap="round" stroke-linejoin="round"/>
<path d="M6.87045 8.27464C6.92402 8.27464 6.96746 8.2304 6.96746 8.17583C6.96746 8.12126 6.92402 8.07703 6.87045 8.07703C6.81687 8.07703 6.77344 8.12126 6.77344 8.17583C6.77344 8.2304 6.81687 8.27464 6.87045 8.27464Z" fill="#FFD83D" stroke="black" stroke-width="0.01" stroke-linecap="round" stroke-linejoin="round"/>
<path d="M6.69564 8.40678C6.74922 8.40678 6.79265 8.36254 6.79265 8.30797C6.79265 8.2534 6.74922 8.20917 6.69564 8.20917C6.64207 8.20917 6.59863 8.2534 6.59863 8.30797C6.59863 8.36254 6.64207 8.40678 6.69564 8.40678Z" fill="#FFD83D" stroke="black" stroke-width="0.01" stroke-linecap="round" stroke-linejoin="round"/>
<path d="M6.57162 8.59001C6.62519 8.59001 6.66863 8.54577 6.66863 8.4912C6.66863 8.43663 6.62519 8.3924 6.57162 8.3924C6.51804 8.3924 6.47461 8.43663 6.47461 8.4912C6.47461 8.54577 6.51804 8.59001 6.57162 8.59001Z" fill="#FFD83D" stroke="black" stroke-width="0.01" stroke-linecap="round" stroke-linejoin="round"/>
<path d="M6.51205 8.80308C6.56562 8.80308 6.60906 8.75884 6.60906 8.70427C6.60906 8.64971 6.56562 8.60547 6.51205 8.60547C6.45847 8.60547 6.41504 8.64971 6.41504 8.70427C6.41504 8.75884 6.45847 8.80308 6.51205 8.80308Z" fill="#FFD83D" stroke="black" stroke-width="0.01" stroke-linecap="round" stroke-linejoin="round"/>
<path d="M6.514 9.02464C6.56758 9.02464 6.61101 8.9804 6.61101 8.92583C6.61101 8.87126 6.56758 8.82703 6.514 8.82703C6.46042 8.82703 6.41699 8.87126 6.41699 8.92583C6.41699 8.9804 6.46042 9.02464 6.514 9.02464Z" fill="#FFD83D" stroke="black" stroke-width="0.01" stroke-linecap="round" stroke-linejoin="round"/>
<path d="M6.55599 9.24198C6.60957 9.24198 6.653 9.19775 6.653 9.14318C6.653 9.08861 6.60957 9.04437 6.55599 9.04437C6.50242 9.04437 6.45898 9.08861 6.45898 9.14318C6.45898 9.19775 6.50242 9.24198 6.55599 9.24198Z" fill="#FFD83D" stroke="black" stroke-width="0.01" stroke-linecap="round" stroke-linejoin="round"/>
<path d="M8.22226 8.39299L8.21324 8.52167C7.97188 8.484 7.62974 8.34704 7.31083 8.34704C7.01616 8.34704 6.78743 8.46709 6.78743 8.76983C6.78743 9.0682 6.91149 9.33953 7.0762 9.61542L6.90475 9.69814C6.75153 9.39477 6.625 9.13711 6.625 8.78821C6.625 8.49622 6.85049 8.20917 7.23864 8.20917C7.58266 8.20917 7.93357 8.32724 8.22226 8.39299Z" fill="#FFD83D" stroke="black" stroke-width="0.01" stroke-linecap="round" stroke-linejoin="round"/>
<path d="M8.51794 8.44927L8.55403 9.69927H9.79936C9.95257 9.3959 10.0791 9.13824 10.0791 8.78934C10.0791 8.49735 9.85362 8.26544 9.52863 8.26544C9.18461 8.26544 8.80663 8.38351 8.51794 8.44927Z" fill="#FFD83D"/>
<path d="M9.93066 8.50586V9.22737V8.50586Z" fill="#FFD83D"/>
<path d="M9.93066 8.50586V9.22737" stroke="black" stroke-width="0.01" stroke-linecap="round" stroke-linejoin="round"/>
<path d="M9.83008 8.43341V9.39409V8.43341Z" fill="#FFD83D"/>
<path d="M9.83008 8.43341V9.39409" stroke="black" stroke-width="0.01" stroke-linecap="round" stroke-linejoin="round"/>
<path d="M9.73047 8.38226V9.52677V8.38226Z" fill="#FFD83D"/>
<path d="M9.73047 8.38226V9.52677" stroke="black" stroke-width="0.01" stroke-linecap="round" stroke-linejoin="round"/>
<path d="M9.63086 8.35675V9.25437V8.35675Z" fill="#FFD83D"/>
<path d="M9.63086 8.35675V9.25437" stroke="black" stroke-width="0.01" stroke-linecap="round" stroke-linejoin="round"/>
<path d="M9.53027 8.35248V9.25901V8.35248Z" fill="#FFD83D"/>
<path d="M9.53027 8.35248V9.25901" stroke="black" stroke-width="0.01" stroke-linecap="round" stroke-linejoin="round"/>
<path d="M9.43066 8.32263V9.26033V8.32263Z" fill="#FFD83D"/>
<path d="M9.43066 8.32263V9.26033" stroke="black" stroke-width="0.01" stroke-linecap="round" stroke-linejoin="round"/>
<path d="M9.33008 8.32263V9.26033V8.32263Z" fill="#FFD83D"/>
<path d="M9.33008 8.32263V9.26033" stroke="black" stroke-width="0.01" stroke-linecap="round" stroke-linejoin="round"/>
<path d="M9.23047 8.33118V9.26888V8.33118Z" fill="#FFD83D"/>
<path d="M9.23047 8.33118V9.26888" stroke="black" stroke-width="0.01" stroke-linecap="round" stroke-linejoin="round"/>
<path d="M9.12988 8.33966V9.27736V8.33966Z" fill="#FFD83D"/>
<path d="M9.12988 8.33966V9.27736" stroke="black" stroke-width="0.01" stroke-linecap="round" stroke-linejoin="round"/>
<path d="M9.03027 8.39935V9.33706V8.39935Z" fill="#FFD83D"/>
<path d="M9.03027 8.39935V9.33706" stroke="black" stroke-width="0.01" stroke-linecap="round" stroke-linejoin="round"/>
<path d="M8.93066 8.40784V9.46502V8.40784Z" fill="#FFD83D"/>
<path d="M8.93066 8.40784V9.46502" stroke="black" stroke-width="0.01" stroke-linecap="round" stroke-linejoin="round"/>
<path d="M8.83008 8.40784V9.34554V8.40784Z" fill="#FFD83D"/>
<path d="M8.83008 8.40784V9.34554" stroke="black" stroke-width="0.01" stroke-linecap="round" stroke-linejoin="round"/>
<path d="M8.73047 8.40784V9.34554V8.40784Z" fill="#FFD83D"/>
<path d="M8.73047 8.40784V9.34554" stroke="black" stroke-width="0.01" stroke-linecap="round" stroke-linejoin="round"/>
<path d="M9.30333 8.36096C9.09197 8.39647 8.62772 8.6177 8.68067 8.91703C8.75571 9.34121 8.99893 9.17098 9.32138 9.11004L9.56503 9.19276C9.65221 9.2834 9.78059 9.36643 9.86733 9.2571H10.0117V9.83155H8.41446V8.44368L9.30333 8.36096Z" fill="black" stroke="black" stroke-width="0.01" stroke-linecap="round" stroke-linejoin="round"/>
<path d="M8.58854 8.36082C8.53496 8.36082 8.49153 8.31658 8.49153 8.26201C8.49153 8.20744 8.53496 8.16321 8.58854 8.16321C8.64211 8.16321 8.68555 8.20744 8.68555 8.26201C8.68555 8.31658 8.64211 8.36082 8.58854 8.36082Z" fill="#FFD83D" stroke="black" stroke-width="0.01" stroke-linecap="round" stroke-linejoin="round"/>
<path d="M8.80631 8.3054C8.75274 8.3054 8.7093 8.26116 8.7093 8.20659C8.7093 8.15202 8.75274 8.10779 8.80631 8.10779C8.85989 8.10779 8.90332 8.15202 8.90332 8.20659C8.90332 8.26116 8.85989 8.3054 8.80631 8.3054Z" fill="#FFD83D" stroke="black" stroke-width="0.01" stroke-linecap="round" stroke-linejoin="round"/>
<path d="M9.02799 8.24998C8.97441 8.24998 8.93098 8.20574 8.93098 8.15117C8.93098 8.0966 8.97441 8.05237 9.02799 8.05237C9.08157 8.05237 9.125 8.0966 9.125 8.15117C9.125 8.20574 9.08157 8.24998 9.02799 8.24998Z" fill="#FFD83D" stroke="black" stroke-width="0.01" stroke-linecap="round" stroke-linejoin="round"/>
<path d="M9.24967 8.21165C9.19609 8.21165 9.15266 8.16741 9.15266 8.11284C9.15266 8.05827 9.19609 8.01404 9.24967 8.01404C9.30325 8.01404 9.34668 8.05827 9.34668 8.11284C9.34668 8.16741 9.30325 8.21165 9.24967 8.21165Z" fill="#FFD83D" stroke="black" stroke-width="0.01" stroke-linecap="round" stroke-linejoin="round"/>
<path d="M9.47135 8.19035C9.41777 8.19035 9.37434 8.14611 9.37434 8.09154C9.37434 8.03697 9.41777 7.99274 9.47135 7.99274C9.52493 7.99274 9.56836 8.03697 9.56836 8.09154C9.56836 8.14611 9.52493 8.19035 9.47135 8.19035Z" fill="#FFD83D" stroke="black" stroke-width="0.01" stroke-linecap="round" stroke-linejoin="round"/>
<path d="M9.68912 8.2031C9.63555 8.2031 9.59212 8.15887 9.59212 8.1043C9.59212 8.04973 9.63555 8.00549 9.68912 8.00549C9.7427 8.00549 9.78613 8.04973 9.78613 8.1043C9.78613 8.15887 9.7427 8.2031 9.68912 8.2031Z" fill="#FFD83D" stroke="black" stroke-width="0.01" stroke-linecap="round" stroke-linejoin="round"/>
<path d="M9.89713 8.27555C9.84356 8.27555 9.80012 8.23132 9.80012 8.17675C9.80012 8.12218 9.84356 8.07794 9.89713 8.07794C9.95071 8.07794 9.99414 8.12218 9.99414 8.17675C9.99414 8.23132 9.95071 8.27555 9.89713 8.27555Z" fill="#FFD83D" stroke="black" stroke-width="0.01" stroke-linecap="round" stroke-linejoin="round"/>
<path d="M10.0719 8.40769C10.0184 8.40769 9.97493 8.36346 9.97493 8.30889C9.97493 8.25432 10.0184 8.21008 10.0719 8.21008C10.1255 8.21008 10.1689 8.25432 10.1689 8.30889C10.1689 8.36346 10.1255 8.40769 10.0719 8.40769Z" fill="#FFD83D" stroke="black" stroke-width="0.01" stroke-linecap="round" stroke-linejoin="round"/>
<path d="M10.196 8.59092C10.1424 8.59092 10.099 8.54668 10.099 8.49212C10.099 8.43755 10.1424 8.39331 10.196 8.39331C10.2495 8.39331 10.293 8.43755 10.293 8.49212C10.293 8.54668 10.2495 8.59092 10.196 8.59092Z" fill="#FFD83D" stroke="black" stroke-width="0.01" stroke-linecap="round" stroke-linejoin="round"/>
<path d="M10.2555 8.80399C10.202 8.80399 10.1585 8.75976 10.1585 8.70519C10.1585 8.65062 10.202 8.60638 10.2555 8.60638C10.3091 8.60638 10.3525 8.65062 10.3525 8.70519C10.3525 8.75976 10.3091 8.80399 10.2555 8.80399Z" fill="#FFD83D" stroke="black" stroke-width="0.01" stroke-linecap="round" stroke-linejoin="round"/>
<path d="M10.2536 9.02555C10.2 9.02555 10.1566 8.98132 10.1566 8.92675C10.1566 8.87218 10.2 8.82794 10.2536 8.82794C10.3072 8.82794 10.3506 8.87218 10.3506 8.92675C10.3506 8.98132 10.3072 9.02555 10.2536 9.02555Z" fill="#FFD83D" stroke="black" stroke-width="0.01" stroke-linecap="round" stroke-linejoin="round"/>
<path d="M10.2116 9.2429C10.158 9.2429 10.1146 9.19866 10.1146 9.14409C10.1146 9.08952 10.158 9.04529 10.2116 9.04529C10.2652 9.04529 10.3086 9.08952 10.3086 9.14409C10.3086 9.19866 10.2652 9.2429 10.2116 9.2429Z" fill="#FFD83D" stroke="black" stroke-width="0.01" stroke-linecap="round" stroke-linejoin="round"/>
<path d="M8.54532 8.39391L8.55434 8.52258C8.79569 8.48492 9.13784 8.34795 9.45675 8.34795C9.75142 8.34795 9.98014 8.468 9.98014 8.77074C9.98014 9.06911 9.85609 9.34045 9.69137 9.61633L9.86283 9.69905C10.016 9.39569 10.1426 9.13803 10.1426 8.78913C10.1426 8.49714 9.91709 8.21008 9.52894 8.21008C9.18492 8.21008 8.83401 8.32815 8.54532 8.39391Z" fill="#FFD83D" stroke="black" stroke-width="0.01" stroke-linecap="round" stroke-linejoin="round"/>
<path d="M8.35906 7.0611L8.25781 7.25422L8.35906 7.44672L8.46031 7.25422L8.35906 7.0611ZM8.35906 7.5486L8.25781 7.7411L8.35906 7.93422L8.46031 7.7411L8.35906 7.5486Z" fill="#FFD83D" stroke="black" stroke-width="0.01" stroke-linecap="round" stroke-linejoin="round"/>
<path d="M7.99805 7.49662L8.15772 7.59974L8.31688 7.49662L8.15772 7.39349L7.99805 7.49662ZM8.40111 7.49662L8.56026 7.59974L8.71994 7.49662L8.56026 7.39349L8.40111 7.49662Z" fill="#FFD83D" stroke="black" stroke-width="0.01" stroke-linecap="round" stroke-linejoin="round"/>
<path d="M8.35893 7.57959C8.40129 7.57959 8.43564 7.54461 8.43564 7.50146C8.43564 7.45832 8.40129 7.42334 8.35893 7.42334C8.31657 7.42334 8.28223 7.45832 8.28223 7.50146C8.28223 7.54461 8.31657 7.57959 8.35893 7.57959Z" fill="#FFD83D" stroke="black" stroke-width="0.01" stroke-linecap="round" stroke-linejoin="round"/>
<path d="M8.35862 8.20799C8.472 8.20799 8.56391 8.11438 8.56391 7.99889C8.56391 7.88341 8.472 7.78979 8.35862 7.78979C8.24524 7.78979 8.15332 7.88341 8.15332 7.99889C8.15332 8.11438 8.24524 8.20799 8.35862 8.20799Z" fill="#FFD83D" stroke="black" stroke-width="0.01" stroke-linecap="round" stroke-linejoin="round"/>
<path d="M8.30743 7.79407C8.30743 7.85636 8.30699 7.89255 8.30682 7.92657C8.25732 7.9288 8.20852 7.9341 8.16077 7.94219M8.55718 7.94219C8.50943 7.9341 8.46063 7.9288 8.41113 7.92657C8.41113 7.8926 8.41113 7.85651 8.41113 7.79407M8.16016 8.04782C8.22485 8.03681 8.29121 8.03094 8.35897 8.03094C8.42674 8.03094 8.4931 8.03681 8.55779 8.04782" stroke="black" stroke-width="0.01" stroke-linecap="round" stroke-linejoin="round"/>
<path d="M8.15836 8.35229C8.13889 8.69394 8.09929 9.04188 7.96875 9.29479L8.18107 9.20729C8.25522 8.92072 8.2708 8.55044 8.29336 8.37542L8.15836 8.35229ZM8.55968 8.35229L8.42468 8.37542C8.44724 8.55044 8.46282 8.92072 8.53698 9.20729L8.7493 9.29479C8.61876 9.04188 8.57916 8.69394 8.55968 8.35229Z" fill="#FFD83D" stroke="black" stroke-width="0.01" stroke-linecap="round" stroke-linejoin="round"/>
<path d="M8.35838 9.09375C8.10481 9.09375 7.91854 9.21548 7.90736 9.52562C7.84537 9.41453 7.58316 9.06511 7.33851 9.11187C7.19301 9.13969 7.06445 9.34519 7.08631 9.58062C6.96584 9.22803 6.61294 9.17024 6.35547 9.37875C6.58408 9.5702 6.68577 10.1354 6.87829 10.3806H8.35838H9.83847C10.031 10.1354 10.1333 9.5702 10.3619 9.37875C10.1044 9.17024 9.75153 9.22803 9.63106 9.58062C9.65292 9.34519 9.52374 9.13969 9.37824 9.11187C9.1336 9.06511 8.872 9.41453 8.81001 9.52562C8.79883 9.21548 8.61195 9.09375 8.35838 9.09375Z" fill="#FFD83D" stroke="black" stroke-width="0.01" stroke-linecap="round" stroke-linejoin="round"/>
<path d="M9.83466 10.3771C9.83466 10.4887 9.17366 10.6114 8.35922 10.6114C7.54478 10.6114 6.88379 10.4887 6.88379 10.3771C6.88379 10.2655 7.54478 10.207 8.35922 10.207C9.17366 10.207 9.83466 10.2655 9.83466 10.3771Z" fill="black" stroke="black" stroke-width="0.01" stroke-linecap="round" stroke-linejoin="round"/>
<path d="M8.35885 8.35715C8.39685 8.35715 8.42766 8.32577 8.42766 8.28706C8.42766 8.24836 8.39685 8.21698 8.35885 8.21698C8.32085 8.21698 8.29004 8.24836 8.29004 8.28706C8.29004 8.32577 8.32085 8.35715 8.35885 8.35715Z" fill="#FFD83D" stroke="black" stroke-width="0.01" stroke-linecap="round" stroke-linejoin="round"/>
<path d="M8.35945 8.51551C8.39995 8.51551 8.43277 8.48207 8.43277 8.44083C8.43277 8.39958 8.39995 8.36615 8.35945 8.36615C8.31896 8.36615 8.28613 8.39958 8.28613 8.44083C8.28613 8.48207 8.31896 8.51551 8.35945 8.51551Z" fill="#FFD83D" stroke="black" stroke-width="0.01" stroke-linecap="round" stroke-linejoin="round"/>
<path d="M8.35939 8.68267C8.40362 8.68267 8.43947 8.64615 8.43947 8.6011C8.43947 8.55605 8.40362 8.51953 8.35939 8.51953C8.31515 8.51953 8.2793 8.55605 8.2793 8.6011C8.2793 8.64615 8.31515 8.68267 8.35939 8.68267Z" fill="#FFD83D" stroke="black" stroke-width="0.01" stroke-linecap="round" stroke-linejoin="round"/>
<path d="M8.35895 8.87612C8.40941 8.87612 8.45032 8.83446 8.45032 8.78306C8.45032 8.73167 8.40941 8.69 8.35895 8.69C8.30849 8.69 8.26758 8.73167 8.26758 8.78306C8.26758 8.83446 8.30849 8.87612 8.35895 8.87612Z" fill="#FFD83D" stroke="black" stroke-width="0.01" stroke-linecap="round" stroke-linejoin="round"/>
<path d="M8.35918 9.08628C8.41463 9.08628 8.45957 9.0405 8.45957 8.98403C8.45957 8.92755 8.41463 8.88177 8.35918 8.88177C8.30374 8.88177 8.25879 8.92755 8.25879 8.98403C8.25879 9.0405 8.30374 9.08628 8.35918 9.08628Z" fill="#FFD83D" stroke="black" stroke-width="0.01" stroke-linecap="round" stroke-linejoin="round"/>
<path d="M8.31922 9.18433C8.30836 9.18419 8.2981 9.19351 8.30081 9.2112C8.30401 9.23207 8.30802 9.27111 8.31186 9.29745C8.3162 9.32732 8.33329 9.32006 8.33763 9.29683C8.34198 9.27361 8.34022 9.25871 8.34131 9.21558C8.34186 9.19402 8.33008 9.18447 8.31922 9.18433ZM8.39899 9.18433C8.38814 9.18447 8.37636 9.19402 8.3769 9.21558C8.37799 9.25871 8.37624 9.27361 8.38059 9.29683C8.38493 9.32006 8.40202 9.32732 8.40636 9.29745C8.4102 9.27111 8.4142 9.23207 8.4174 9.2112C8.42012 9.19351 8.40985 9.18419 8.39899 9.18433ZM8.24804 9.19558C8.23811 9.19698 8.22781 9.20719 8.2284 9.21808C8.22948 9.23798 8.23489 9.26186 8.23699 9.29183C8.23916 9.32279 8.26059 9.31076 8.26277 9.29308C8.26494 9.27538 8.26739 9.24923 8.26522 9.21495C8.26441 9.20209 8.25889 9.19644 8.25234 9.19558C8.25097 9.1954 8.24946 9.19538 8.24804 9.19558ZM8.46588 9.19558C8.45932 9.19644 8.45381 9.20209 8.45299 9.21495C8.45083 9.24923 8.45328 9.27538 8.45545 9.29308C8.45763 9.31076 8.47905 9.32279 8.48122 9.29183C8.48333 9.26186 8.48873 9.23798 8.48981 9.21808C8.49041 9.20719 8.48011 9.19698 8.47018 9.19558C8.46876 9.19538 8.46725 9.1954 8.46588 9.19558ZM8.16274 9.23058C8.15365 9.23297 8.1453 9.24411 8.14802 9.25683C8.15344 9.28227 8.15845 9.31039 8.15845 9.3362C8.15845 9.35832 8.177 9.35043 8.17809 9.33495C8.17917 9.31947 8.18115 9.28668 8.18115 9.25683C8.18115 9.23454 8.17184 9.22818 8.16274 9.23058ZM8.54934 9.23058C8.54288 9.2324 8.53706 9.24011 8.53706 9.25683C8.53706 9.28668 8.53905 9.31947 8.54013 9.33495C8.54122 9.35043 8.55977 9.35832 8.55977 9.3362C8.55977 9.31039 8.56477 9.28227 8.5702 9.25683C8.57292 9.24411 8.56457 9.23297 8.55547 9.23058C8.5532 9.22998 8.55149 9.22997 8.54934 9.23058ZM7.38895 9.234C7.37807 9.23363 7.37044 9.24866 7.3779 9.26525C7.38984 9.29179 7.40253 9.30854 7.41472 9.33712C7.42558 9.36256 7.44224 9.3467 7.43681 9.329C7.43138 9.3113 7.42548 9.29159 7.4092 9.254C7.40309 9.23989 7.39548 9.23422 7.38895 9.234ZM9.32927 9.234C9.32274 9.23422 9.31513 9.23989 9.30902 9.254C9.29273 9.29159 9.28684 9.3113 9.2814 9.329C9.27598 9.3467 9.29264 9.36256 9.30349 9.33712C9.31569 9.30854 9.32837 9.29179 9.34031 9.26525C9.34778 9.24866 9.34015 9.23363 9.32927 9.234ZM7.46749 9.23525C7.45949 9.23774 7.45463 9.24808 7.45952 9.26025C7.4693 9.28458 7.48341 9.30952 7.49327 9.33587C7.50195 9.35909 7.52127 9.35251 7.51474 9.3315C7.50823 9.31049 7.5063 9.29819 7.49327 9.25837C7.48675 9.23847 7.4755 9.23276 7.46749 9.23525ZM9.24459 9.23525C9.23774 9.23674 9.22984 9.24344 9.22495 9.25837C9.21192 9.29819 9.20999 9.31049 9.20347 9.3315C9.19695 9.35251 9.21627 9.35909 9.22495 9.33587C9.23481 9.30952 9.24892 9.28458 9.2587 9.26025C9.26358 9.24808 9.25873 9.23774 9.25072 9.23525C9.24872 9.23462 9.24687 9.23475 9.24459 9.23525ZM7.56568 9.25462C7.55558 9.25658 7.54776 9.27227 7.55463 9.2915C7.56332 9.31583 7.57568 9.33885 7.58654 9.3665C7.5974 9.39414 7.61543 9.38857 7.61109 9.37087C7.60674 9.35318 7.60142 9.32385 7.58838 9.27962C7.58268 9.26027 7.57353 9.2531 7.56568 9.25462ZM9.15254 9.25462C9.14469 9.2531 9.13553 9.26027 9.12984 9.27962C9.1168 9.32385 9.11148 9.35318 9.10713 9.37087C9.10279 9.38857 9.12082 9.39414 9.13168 9.3665C9.14254 9.33885 9.15489 9.31583 9.16359 9.2915C9.17045 9.27227 9.16264 9.25658 9.15254 9.25462ZM7.32268 9.26837C7.31174 9.26951 7.30178 9.28768 7.30856 9.3015C7.31943 9.32362 7.32631 9.33114 7.33679 9.35462C7.34765 9.37895 7.35954 9.36011 7.3552 9.34462C7.35085 9.32914 7.34528 9.31111 7.33986 9.289C7.33588 9.2728 7.32924 9.26769 7.32268 9.26837ZM9.39554 9.26837C9.38898 9.26769 9.38233 9.2728 9.37836 9.289C9.37293 9.31111 9.36736 9.32914 9.36302 9.34462C9.35867 9.36011 9.37057 9.37895 9.38143 9.35462C9.39191 9.33114 9.39879 9.32362 9.40965 9.3015C9.41644 9.28768 9.40647 9.26951 9.39554 9.26837ZM8.07929 9.32433C8.06783 9.32432 8.05558 9.33981 8.05965 9.35433C8.06617 9.37756 8.07624 9.39815 8.08359 9.42808C8.0901 9.45462 8.10861 9.4414 8.10752 9.4237C8.10643 9.40601 8.10345 9.38193 8.09586 9.34433C8.09301 9.33023 8.08617 9.32433 8.07929 9.32433ZM8.63893 9.32433C8.63205 9.32433 8.62521 9.33023 8.62236 9.34433C8.61476 9.38193 8.61179 9.40601 8.6107 9.4237C8.60961 9.4414 8.62812 9.45462 8.63463 9.42808C8.64198 9.39815 8.65205 9.37756 8.65856 9.35433C8.66263 9.33981 8.65039 9.32432 8.63893 9.32433ZM8.35911 9.34808C8.34499 9.34808 8.34304 9.36739 8.34254 9.38308C8.34092 9.4345 8.31996 9.48445 8.30204 9.50933C8.28413 9.53422 8.25775 9.5276 8.23331 9.51433C8.20888 9.50106 8.19432 9.49111 8.16827 9.4712C8.1422 9.4513 8.12244 9.46294 8.15354 9.50808C8.24421 9.63968 8.34254 9.75217 8.34254 9.96683C8.34254 9.99458 8.3473 10.0031 8.35911 10.0031C8.37092 10.0031 8.37629 9.99458 8.37629 9.96683C8.37629 9.75217 8.47401 9.63968 8.56468 9.50808C8.59577 9.46294 8.57601 9.4513 8.54995 9.4712C8.52389 9.49111 8.50934 9.50106 8.4849 9.51433C8.46047 9.5276 8.43409 9.53422 8.41618 9.50933C8.39826 9.48445 8.3773 9.4345 8.37568 9.38308C8.37518 9.36739 8.37323 9.34808 8.35911 9.34808ZM7.66631 9.31587C7.66508 9.31584 7.66373 9.31614 7.66263 9.3165C7.65736 9.31819 7.65384 9.32467 7.65588 9.33587C7.65952 9.35592 7.67316 9.3952 7.67859 9.414C7.68402 9.4328 7.70672 9.4288 7.70129 9.40337C7.69586 9.37793 7.69614 9.37025 7.68963 9.3415C7.68607 9.32577 7.67496 9.31611 7.66631 9.31587ZM9.0519 9.31587C9.04325 9.31611 9.03215 9.32577 9.02859 9.3415C9.02207 9.37025 9.02236 9.37793 9.01693 9.40337C9.0115 9.4288 9.0342 9.4328 9.03963 9.414C9.04506 9.3952 9.05869 9.35592 9.06234 9.33587C9.06437 9.32467 9.06086 9.31819 9.05559 9.3165C9.05449 9.31614 9.05314 9.31584 9.0519 9.31587ZM7.25456 9.324C7.2432 9.3249 7.23505 9.33945 7.24659 9.36087C7.25903 9.38401 7.28038 9.41304 7.29015 9.42962C7.29992 9.44621 7.31683 9.43502 7.30488 9.414C7.29294 9.39299 7.28893 9.36885 7.27481 9.339C7.26952 9.3278 7.26138 9.32345 7.25456 9.324ZM9.46365 9.324C9.45683 9.32345 9.4487 9.3278 9.4434 9.339C9.42929 9.36885 9.42527 9.39299 9.41334 9.414C9.40139 9.43502 9.41829 9.44621 9.42806 9.42962C9.43783 9.41304 9.45918 9.38401 9.47163 9.36087C9.48317 9.33945 9.47502 9.3249 9.46365 9.324ZM6.63234 9.39058C6.61922 9.38987 6.61511 9.41398 6.62743 9.42995C6.64535 9.45317 6.65782 9.46549 6.67836 9.48433C6.69465 9.49926 6.69939 9.47988 6.69124 9.46495C6.6831 9.45003 6.67132 9.43484 6.65504 9.40995C6.64611 9.39631 6.6383 9.3909 6.63234 9.39058ZM10.0859 9.39058C10.0799 9.3909 10.0721 9.39631 10.0632 9.40995C10.0469 9.43484 10.0351 9.45003 10.027 9.46495C10.0188 9.47988 10.0236 9.49926 10.0399 9.48433C10.0604 9.46549 10.0729 9.45317 10.0908 9.42995C10.1031 9.41398 10.099 9.38987 10.0859 9.39058ZM6.73113 9.41058C6.72068 9.41072 6.71378 9.41858 6.72193 9.43683C6.73359 9.46295 6.74897 9.49254 6.75874 9.51245C6.76852 9.53236 6.7983 9.53904 6.78636 9.50808C6.77441 9.47711 6.77206 9.46121 6.7612 9.43245C6.75577 9.41808 6.74158 9.41044 6.73113 9.41058ZM9.98709 9.41058C9.97663 9.41044 9.96245 9.41808 9.95702 9.43245C9.94616 9.46121 9.94381 9.47711 9.93186 9.50808C9.91992 9.53904 9.9497 9.53236 9.95947 9.51245C9.96925 9.49254 9.98463 9.46295 9.99629 9.43683C10.0044 9.41858 9.99754 9.41072 9.98709 9.41058ZM6.53968 9.41745C6.52448 9.41761 6.52317 9.43313 6.53661 9.44308C6.55453 9.45635 6.57589 9.47107 6.59674 9.48808C6.62117 9.50798 6.63064 9.48967 6.61761 9.47308C6.60458 9.45649 6.59189 9.43967 6.55931 9.42308C6.55117 9.41893 6.54474 9.4174 6.53968 9.41745ZM10.1785 9.41745C10.1735 9.4174 10.167 9.41893 10.1589 9.42308C10.1263 9.43967 10.1136 9.45649 10.1006 9.47308C10.0876 9.48967 10.097 9.50798 10.1215 9.48808C10.1423 9.47107 10.1637 9.45635 10.1816 9.44308C10.195 9.43313 10.1937 9.41761 10.1785 9.41745ZM8.02529 9.43183C8.01679 9.43304 8.00946 9.44287 8.01302 9.45558C8.01953 9.4788 8.02693 9.50341 8.03143 9.52745C8.03577 9.55068 8.06216 9.55096 8.05781 9.52995C8.05348 9.50894 8.05129 9.48265 8.0437 9.45058C8.04085 9.43855 8.0349 9.43277 8.02897 9.43183C8.02774 9.43163 8.0265 9.43165 8.02529 9.43183ZM8.68924 9.43183C8.68332 9.43277 8.67737 9.43855 8.67452 9.45058C8.66692 9.48265 8.66474 9.50894 8.6604 9.52995C8.65606 9.55096 8.68245 9.55068 8.68679 9.52745C8.69129 9.50341 8.69869 9.4788 8.7052 9.45558C8.70876 9.44287 8.70143 9.43304 8.69293 9.43183C8.69171 9.43165 8.69048 9.43163 8.68924 9.43183ZM7.43436 9.39212C7.42768 9.394 7.42384 9.407 7.42884 9.42525C7.45653 9.52644 7.46502 9.57973 7.46013 9.60462C7.45525 9.6295 7.44184 9.63291 7.42393 9.62462C7.40601 9.61633 7.38498 9.60436 7.3687 9.59275C7.35241 9.58113 7.33548 9.59503 7.35888 9.61462C7.47778 9.71416 7.56019 9.82791 7.59206 9.96587C7.59858 9.99407 7.61597 9.99739 7.61109 9.96587C7.58414 9.79208 7.57896 9.6492 7.61968 9.55962C7.63498 9.52596 7.61957 9.49363 7.59513 9.54837C7.57885 9.58487 7.55249 9.59927 7.53131 9.56775C7.51014 9.53623 7.46641 9.45215 7.45338 9.414C7.44849 9.39969 7.44246 9.39307 7.43743 9.39212C7.43638 9.39192 7.43531 9.39185 7.43436 9.39212ZM9.28079 9.39212C9.27575 9.39307 9.26972 9.39969 9.26484 9.414C9.25181 9.45215 9.20807 9.53623 9.1869 9.56775C9.16573 9.59927 9.13937 9.58487 9.12309 9.54837C9.09865 9.49363 9.08324 9.52596 9.09854 9.55962C9.13926 9.6492 9.13408 9.79208 9.10713 9.96587C9.10225 9.99739 9.11964 9.99407 9.12615 9.96587C9.15803 9.82791 9.24044 9.71416 9.35934 9.61462C9.38274 9.59503 9.3658 9.58113 9.34952 9.59275C9.33323 9.60436 9.3122 9.61633 9.29429 9.62462C9.27638 9.63291 9.26297 9.6295 9.25809 9.60462C9.2532 9.57973 9.26169 9.52644 9.28938 9.42525C9.29438 9.407 9.29053 9.394 9.28386 9.39212C9.2829 9.39185 9.28184 9.39192 9.28079 9.39212ZM6.83668 9.44058C6.82595 9.44072 6.81706 9.44837 6.82195 9.46495C6.82978 9.49152 6.84598 9.52024 6.8514 9.53683C6.85684 9.55341 6.8743 9.54567 6.87104 9.52245C6.86778 9.49923 6.86618 9.48539 6.86184 9.45995C6.85966 9.44724 6.8474 9.44044 6.83668 9.44058ZM9.88154 9.44058C9.87082 9.44044 9.85855 9.44724 9.85638 9.45995C9.85204 9.48539 9.85043 9.49923 9.84718 9.52245C9.84392 9.54567 9.86138 9.55341 9.86681 9.53683C9.87224 9.52024 9.88844 9.49152 9.89627 9.46495C9.90115 9.44837 9.89226 9.44072 9.88154 9.44058ZM7.20547 9.40587C7.193 9.40359 7.19121 9.43636 7.20179 9.44962C7.21591 9.46733 7.23551 9.48872 7.25518 9.51275C7.27146 9.53266 7.28152 9.51496 7.27174 9.49837C7.26197 9.48178 7.24748 9.46415 7.22143 9.42212C7.21491 9.41162 7.20963 9.40663 7.20547 9.40587ZM9.51274 9.40587C9.50859 9.40663 9.50331 9.41162 9.49679 9.42212C9.47073 9.46415 9.45624 9.48178 9.44647 9.49837C9.43669 9.51496 9.44676 9.53266 9.46304 9.51275C9.4827 9.48872 9.50231 9.46733 9.51643 9.44962C9.52701 9.43636 9.52521 9.40359 9.51274 9.40587ZM6.92074 9.48495C6.91301 9.4844 6.90644 9.49079 6.9097 9.50683C6.91424 9.52916 6.92083 9.54769 6.92627 9.5687C6.93169 9.58971 6.9459 9.58611 6.9459 9.5662C6.9459 9.5463 6.94241 9.52409 6.93915 9.50308C6.93753 9.49257 6.92848 9.48551 6.92074 9.48495ZM9.79747 9.48495C9.78973 9.48551 9.78069 9.49257 9.77906 9.50308C9.77581 9.52409 9.77231 9.5463 9.77231 9.5662C9.77231 9.58611 9.78652 9.58971 9.79195 9.5687C9.79738 9.54769 9.80398 9.52916 9.80852 9.50683C9.81177 9.49079 9.80521 9.4844 9.79747 9.48495ZM7.17786 9.51337C7.16571 9.51524 7.15501 9.52721 7.16927 9.54587C7.19207 9.57573 7.21703 9.59669 7.22572 9.60775C7.2344 9.61881 7.25641 9.61473 7.24229 9.5915C7.22786 9.56777 7.20604 9.53919 7.19627 9.5215C7.1926 9.51486 7.18515 9.51225 7.17786 9.51337ZM9.53545 9.51337C9.5301 9.51394 9.5247 9.51652 9.52195 9.5215C9.51218 9.53919 9.49035 9.56777 9.47593 9.5915C9.46181 9.61473 9.48381 9.61881 9.49249 9.60775C9.50119 9.59669 9.52615 9.57573 9.54895 9.54587C9.5632 9.52721 9.55251 9.51524 9.54036 9.51337C9.53854 9.51309 9.53723 9.51318 9.53545 9.51337ZM6.77224 9.59683C6.76266 9.59594 6.75935 9.60382 6.77224 9.62183C6.80156 9.66274 6.83389 9.72466 6.83606 9.7512C6.83824 9.77775 6.82535 9.77745 6.81336 9.77745C6.77752 9.77745 6.76002 9.75081 6.72745 9.74308C6.69487 9.73534 6.69014 9.75278 6.71334 9.76995C6.83277 9.85843 6.95248 9.95714 7.00052 10.0468C7.02006 10.0833 7.04648 10.0967 7.03181 10.0618C6.9869 9.95508 6.97602 9.8647 6.98579 9.80995C6.99557 9.75521 7.0089 9.71835 7.00727 9.68683C7.00564 9.65531 6.98809 9.65746 6.98088 9.68683C6.976 9.70674 6.96653 9.73312 6.96002 9.74308C6.9535 9.75303 6.92731 9.75861 6.90234 9.72433C6.87736 9.69005 6.81435 9.62404 6.79372 9.60745C6.78599 9.60123 6.778 9.59736 6.77224 9.59683ZM9.94597 9.59683C9.94022 9.59736 9.93223 9.60123 9.92449 9.60745C9.90386 9.62404 9.84086 9.69005 9.81588 9.72433C9.79091 9.75861 9.76471 9.75303 9.7582 9.74308C9.75169 9.73312 9.74222 9.70674 9.73734 9.68683C9.73013 9.65746 9.71258 9.65531 9.71095 9.68683C9.70932 9.71835 9.72265 9.75521 9.73243 9.80995C9.7422 9.8647 9.73131 9.95508 9.6864 10.0618C9.67174 10.0967 9.69816 10.0833 9.7177 10.0468C9.76573 9.95714 9.88545 9.85843 10.0049 9.76995C10.0281 9.75278 10.0233 9.73534 9.99077 9.74308C9.9582 9.75081 9.94069 9.77745 9.90486 9.77745C9.89286 9.77745 9.87998 9.77775 9.88215 9.7512C9.88432 9.72466 9.91666 9.66274 9.94597 9.62183C9.95887 9.60382 9.95556 9.59594 9.94597 9.59683Z" fill="black"/>
<path d="M6.94824 10.2504L6.98653 10.3738L6.94824 10.2504ZM7.02699 10.227L7.06092 10.3518L7.02699 10.227ZM7.11206 10.2127L7.13537 10.34L7.11206 10.2127ZM7.19101 10.1966L7.21596 10.3236L7.19101 10.1966ZM7.29224 10.1864L7.31253 10.3143L7.29224 10.1864ZM7.39994 10.1866L7.42179 10.3141L7.39994 10.1866ZM7.50507 10.1504L7.52085 10.2789L7.50507 10.1504ZM7.60397 10.1569L7.61975 10.2854L7.60397 10.1569ZM7.69969 10.1439L7.71547 10.2724L7.69969 10.1439ZM7.79576 10.1338L7.80444 10.263L7.79576 10.1338ZM7.89843 10.1337L7.90596 10.263L7.89843 10.1337ZM7.99152 10.1272L7.99793 10.2565L7.99152 10.1272ZM8.09415 10.1207L8.09948 10.2501L8.09415 10.1207ZM8.2122 10.1174L8.21753 10.2468L8.2122 10.1174ZM9.76967 10.2504L9.73138 10.3738L9.76967 10.2504ZM9.69092 10.227L9.65699 10.3518L9.69092 10.227ZM9.60585 10.2127L9.58254 10.34L9.60585 10.2127ZM9.5269 10.1966L9.50196 10.3236L9.5269 10.1966ZM9.42567 10.1864L9.40538 10.3143L9.42567 10.1864ZM9.31797 10.1866L9.29613 10.3141L9.31797 10.1866ZM9.21284 10.1504L9.19706 10.2789L9.21284 10.1504ZM9.11394 10.1569L9.09816 10.2854L9.11394 10.1569ZM9.01822 10.1439L9.00244 10.2724L9.01822 10.1439ZM8.92215 10.1338L8.91347 10.263L8.92215 10.1338ZM8.81948 10.1337L8.81195 10.263L8.81948 10.1337ZM8.7264 10.1272L8.71998 10.2565L8.7264 10.1272ZM8.62376 10.1207L8.61843 10.2501L8.62376 10.1207ZM8.50571 10.1174L8.50038 10.2468L8.50571 10.1174ZM8.35896 10.109V10.2515V10.109Z" fill="#FFD83D"/>
<path d="M6.94824 10.2504L6.98653 10.3738M7.02699 10.227L7.06092 10.3518M7.11206 10.2127L7.13537 10.34M7.19101 10.1966L7.21596 10.3236M7.29224 10.1864L7.31253 10.3143M7.39994 10.1866L7.42179 10.3141M7.50507 10.1504L7.52085 10.2789M7.60397 10.1569L7.61975 10.2854M7.69969 10.1439L7.71547 10.2724M7.79576 10.1338L7.80444 10.263M7.89843 10.1337L7.90596 10.263M7.99152 10.1272L7.99793 10.2565M8.09415 10.1207L8.09948 10.2501M8.2122 10.1174L8.21753 10.2468M9.76967 10.2504L9.73138 10.3738M9.69092 10.227L9.65699 10.3518M9.60585 10.2127L9.58254 10.34M9.5269 10.1966L9.50196 10.3236M9.42567 10.1864L9.40538 10.3143M9.31797 10.1866L9.29613 10.3141M9.21284 10.1504L9.19706 10.2789M9.11394 10.1569L9.09816 10.2854M9.01822 10.1439L9.00244 10.2724M8.92215 10.1338L8.91347 10.263M8.81948 10.1337L8.81195 10.263M8.7264 10.1272L8.71998 10.2565M8.62376 10.1207L8.61843 10.2501M8.50571 10.1174L8.50038 10.2468M8.35896 10.109V10.2515" stroke="black" stroke-width="0.01" stroke-linecap="round" stroke-linejoin="round"/>
<path d="M20 6L20 18L4 18L4 6L20 6ZM20 5L4 5C3.4 5 3 5.4 3 6L3 18C3 18.6 3.4 19 4 19L20 19C20.6 19 21 18.6 21 18L21 6C21 5.4 20.6 5 20 5Z" fill="#B5B5B5"/>
</svg>
