<svg width="24" height="24" viewBox="0 0 24 24" fill="none" xmlns="http://www.w3.org/2000/svg">
<path d="M20 6H4V18H20V6Z" fill="#00785E"/>
<path d="M12.0002 8.26172L11.6127 9.45449L12.6273 8.71739H11.373L12.3877 9.45449L12.0002 8.26172Z" fill="#FBD116"/>
<path d="M11.9998 14.2905H9.43786C9.40557 14.2577 9.37377 14.2244 9.34273 14.1904H11.9998C12.0203 14.1978 12.0343 14.2166 12.0354 14.2378C12.0365 14.2608 12.0221 14.2824 11.9998 14.2905ZM11.9998 13.507C12.0146 13.4767 12.0436 13.4063 12.0305 13.3183C12.0245 13.2784 12.0116 13.2462 11.9998 13.2231C11.856 13.3591 11.5859 13.5771 11.1875 13.6976C11.0014 13.7539 10.8041 13.7842 10.5998 13.7842H9.02146C9.06799 13.8525 9.11675 13.9193 9.16775 13.9842H10.6935C11.191 13.9842 11.6468 13.8047 11.9998 13.507ZM9.25993 12.8897C9.18398 12.9189 9.10252 12.9372 9.01756 12.9422C9.38926 13.3626 9.93243 13.6279 10.5373 13.6279C11.1118 13.6279 11.6307 13.3886 11.9998 13.0043C12.0624 12.5723 12.108 12.0779 12.1134 11.5316C12.1198 10.8956 12.0703 10.3262 11.9998 9.83984C11.8349 9.98763 11.526 10.307 11.3804 10.7965C11.3259 10.9798 11.2966 11.1739 11.2966 11.3748C11.2966 11.7918 11.4227 12.1795 11.6388 12.502C11.3734 12.1591 11.2154 11.7291 11.2154 11.2623C11.2154 10.9522 11.2852 10.6584 11.4097 10.3955C11.3237 10.3046 11.2583 10.1939 11.2214 10.0709C11.0545 10.3656 10.9591 10.7059 10.9591 11.0686C10.9591 11.5196 11.1067 11.9364 11.356 12.2733C10.9217 11.818 10.3094 11.5342 9.63101 11.5342C9.59457 11.5342 9.55827 11.5351 9.52222 11.5367C9.59048 11.6004 9.64778 11.6755 9.69098 11.7592C10.3658 11.7602 10.9749 12.0422 11.4082 12.4942C10.9944 12.1486 10.4619 11.9404 9.88104 11.9404C9.55644 11.9404 9.24695 12.0054 8.96484 12.1231C9.25473 12.889 9.99521 13.4342 10.8623 13.4342C10.9185 13.4342 10.9741 13.4317 11.0291 13.4272C10.9121 13.4482 10.7916 13.4592 10.6686 13.4592C10.1215 13.4592 9.62487 13.2422 9.25993 12.8897ZM11.9998 15.1092H10.672C11.083 15.2725 11.5309 15.3623 11.9998 15.3623C12.0111 15.3408 12.0305 15.297 12.031 15.2384C12.0316 15.1769 12.0112 15.1308 11.9998 15.1092ZM11.9998 14.4967H9.65896C9.72229 14.551 9.78744 14.6031 9.85448 14.6529H11.9998C12.0052 14.6475 12.0316 14.6192 12.0316 14.5748C12.0316 14.5304 12.0052 14.5022 11.9998 14.4967ZM11.9998 14.8092H10.0824C10.1985 14.8824 10.319 14.9493 10.4435 15.0092H11.9998C12.0088 14.9949 12.0301 14.9569 12.0288 14.9043C12.0275 14.8575 12.0089 14.8236 11.9998 14.8092Z" fill="white"/>
<path d="M9.48067 10.1094L9.11407 10.8959L9.87286 10.475L9.01172 10.3693L9.6463 10.9611L9.48067 10.1094Z" fill="#FBD116"/>
<path d="M10.1092 9.0625L10.3629 9.89238L10.6455 9.07169L9.93457 9.56953L10.8024 9.58458L10.1092 9.0625Z" fill="#FBD116"/>
<path d="M12.0051 14.2905H14.567C14.5993 14.2577 14.6311 14.2244 14.6621 14.1904H12.0051C11.9846 14.1978 11.9705 14.2166 11.9695 14.2378C11.9683 14.2608 11.9828 14.2824 12.0051 14.2905ZM12.0051 13.507C11.9902 13.4767 11.9613 13.4063 11.9744 13.3183C11.9804 13.2784 11.9933 13.2462 12.0051 13.2231C12.1489 13.3591 12.419 13.5771 12.8174 13.6976C13.0034 13.7539 13.2007 13.7842 13.4051 13.7842H14.9834C14.9369 13.8525 14.8881 13.9193 14.8371 13.9842H13.3114C12.8138 13.9842 12.3581 13.8047 12.0051 13.507ZM14.7449 12.8897C14.8209 12.9189 14.9024 12.9372 14.9873 12.9422C14.6156 13.3626 14.0725 13.6279 13.4676 13.6279C12.8931 13.6279 12.3742 13.3886 12.0051 13.0043C11.9425 12.5723 11.8969 12.0779 11.8915 11.5316C11.8851 10.8956 11.9346 10.3262 12.0051 9.83984C12.17 9.98763 12.4789 10.307 12.6245 10.7965C12.679 10.9798 12.7082 11.1739 12.7082 11.3748C12.7082 11.7918 12.5822 12.1795 12.3661 12.502C12.6314 12.1591 12.7895 11.7291 12.7895 11.2623C12.7895 10.9522 12.7197 10.6584 12.5951 10.3955C12.6812 10.3046 12.7465 10.1939 12.7834 10.0709C12.9504 10.3656 13.0457 10.7059 13.0457 11.0686C13.0457 11.5196 12.8982 11.9364 12.6489 12.2733C13.0831 11.818 13.6955 11.5342 14.3739 11.5342C14.4103 11.5342 14.4466 11.5351 14.4827 11.5367C14.4144 11.6004 14.3571 11.6755 14.3139 11.7592C13.6391 11.7602 13.03 12.0422 12.5967 12.4942C13.0105 12.1486 13.543 11.9404 14.1238 11.9404C14.4484 11.9404 14.7579 12.0054 15.04 12.1231C14.7502 12.889 14.0097 13.4342 13.1426 13.4342C13.0864 13.4342 13.0307 13.4317 12.9758 13.4272C13.0928 13.4482 13.2133 13.4592 13.3363 13.4592C13.8834 13.4592 14.38 13.2422 14.7449 12.8897ZM12.0051 15.1092H13.3328C12.9219 15.2725 12.474 15.3623 12.0051 15.3623C11.9938 15.3408 11.9744 15.297 11.9738 15.2384C11.9732 15.1769 11.9937 15.1308 12.0051 15.1092ZM12.0051 14.4967H14.3459C14.2826 14.551 14.2174 14.6031 14.1504 14.6529H12.0051C11.9997 14.6475 11.9733 14.6192 11.9733 14.5748C11.9733 14.5304 11.9997 14.5022 12.0051 14.4967ZM12.0051 14.8092H13.9225C13.8064 14.8824 13.6859 14.9493 13.5613 15.0092H12.0051C11.9961 14.9949 11.9748 14.9569 11.9761 14.9043C11.9773 14.8575 11.996 14.8236 12.0051 14.8092Z" fill="white"/>
<path d="M14.5242 10.1094L14.8908 10.8959L14.132 10.475L14.9932 10.3693L14.3586 10.9611L14.5242 10.1094Z" fill="#FBD116"/>
<path d="M13.8957 9.0625L13.642 9.89238L13.3594 9.07169L14.0703 9.56953L13.2025 9.58458L13.8957 9.0625Z" fill="#FBD116"/>
<path d="M20 6L20 18L4 18L4 6L20 6ZM20 5L4 5C3.4 5 3 5.4 3 6L3 18C3 18.6 3.4 19 4 19L20 19C20.6 19 21 18.6 21 18L21 6C21 5.4 20.6 5 20 5Z" fill="#B5B5B5"/>
</svg>
