<svg width="24" height="24" viewBox="0 0 24 24" fill="none" xmlns="http://www.w3.org/2000/svg">
<path d="M20 6H4V18H20V6Z" fill="#CC0001"/>
<path d="M20 17H4V18H20V17Z" fill="white"/>
<path d="M14 6H4V13H14V6Z" fill="#010066"/>
<path d="M7.56575 7C6.14951 7 5 8.12005 5 9.5C5 10.88 6.14951 12 7.56575 12C8.07743 12 8.55416 11.8536 8.95456 11.6018C8.7214 11.6805 8.47116 11.7235 8.21065 11.7235C6.95482 11.7235 5.9356 10.7304 5.9356 9.50674C5.9356 8.2831 6.95482 7.29 8.21065 7.29C8.48818 7.29 8.75403 7.33845 9 7.42722C8.5905 7.15758 8.09685 7 7.56575 7Z" fill="#FFCC00"/>
<path d="M12.5017 11.0617L11.2338 10.4002L11.6087 11.7541L10.7606 10.6216L10.496 12L10.2358 10.6208L9.38422 11.7507L9.76338 10.398L8.4934 11.0557L9.43683 9.99737L8 10.0525L9.32084 9.49823L8.00176 8.93994L9.4384 8.99944L8.49833 7.93826L9.76623 8.59979L9.39135 7.2459L10.2394 8.37844L10.504 7L10.7642 8.37923L11.6158 7.24925L11.2366 8.602L12.5066 7.94429L11.5632 9.00263L13 8.94746L11.6792 9.50177L12.9982 10.0601L11.5616 10.0006L12.5017 11.0617Z" fill="#FFCC00"/>
<path d="M20 6L20 18L4 18L4 6L20 6ZM20 5L4 5C3.4 5 3 5.4 3 6L3 18C3 18.6 3.4 19 4 19L20 19C20.6 19 21 18.6 21 18L21 6C21 5.4 20.6 5 20 5Z" fill="#B5B5B5"/>
</svg>
