<svg width="24" height="24" viewBox="0 0 24 24" fill="none" xmlns="http://www.w3.org/2000/svg">
<path d="M20 6H4V18H20V6Z" fill="#D21034"/>
<path d="M18 9H6V15H18V9Z" fill="#007E3A"/>
<path d="M12.75 14C13.8546 14 14.75 13.1046 14.75 12C14.75 10.8954 13.8546 10 12.75 10C11.6454 10 10.75 10.8954 10.75 12C10.75 13.1046 11.6454 14 12.75 14Z" fill="white"/>
<path d="M13.5 14C14.6046 14 15.5 13.1046 15.5 12C15.5 10.8954 14.6046 10 13.5 10C12.3954 10 11.5 10.8954 11.5 12C11.5 13.1046 12.3954 14 13.5 14Z" fill="#007E3A"/>
<path d="M20 6L20 18L4 18L4 6L20 6ZM20 5L4 5C3.4 5 3 5.4 3 6L3 18C3 18.6 3.4 19 4 19L20 19C20.6 19 21 18.6 21 18L21 6C21 5.4 20.6 5 20 5Z" fill="#B5B5B5"/>
</svg>
