<svg width="24" height="24" viewBox="0 0 24 24" fill="none" xmlns="http://www.w3.org/2000/svg">
<g clip-path="url(#clip0_14099_118952)">
<path d="M20 6H4V18H20V6Z" fill="#003893"/>
<path d="M4 18V17.6956L20 7V10.6948L4 18Z" fill="white"/>
<path d="M4 18V17.7983L20 6V8.47059L4 18Z" fill="#DD7500"/>
<path d="M7.11714 6.49609L7.31045 9.93331H6.92383L7.11714 6.49609Z" fill="white"/>
<path d="M7.7133 7.55753L7.34525 9.99999L6.88936 9.86943L7.7133 7.55753Z" fill="white"/>
<path d="M20 6L20 18L4 18L4 6L20 6ZM20 5L4 5C3.4 5 3 5.4 3 6L3 18C3 18.6 3.4 19 4 19L20 19C20.6 19 21 18.6 21 18L21 6C21 5.4 20.6 5 20 5Z" fill="none"/>
<path d="M4 6H20V18H4V6Z" fill="white"/>
<path d="M4 18V6H20V8.6281L4 18Z" fill="#DD7500"/>
<path d="M4 17.424V6H20V6.192L4 17.424ZM4 17.808V18H20V10.896L4 17.808Z" fill="#003893"/>
<path d="M8.41962 6.66144L8.57457 9.21552L9.11495 7.80816L8.87333 9.29472L9.76331 8.07408L9.14158 9.44832L10.3197 8.49744L9.36093 9.66528L10.7467 9.04944L9.51539 9.9312L11.0155 9.69168L9.59577 10.2278L12.1723 10.3814L9.59577 10.535L11.0155 11.0707L9.51539 10.8312L10.7467 11.7134L9.36093 11.0971L10.3197 12.265L9.14158 11.3146L9.76331 12.6883L8.87333 11.4677L9.11495 12.9547L8.57457 11.5474L8.41962 14.1014L8.26468 11.5474L7.72381 12.9547L7.96543 11.4677L7.07594 12.6883L7.69718 11.3146L6.5191 12.265L7.47832 11.0971L6.09202 11.7134L7.32337 10.8312L5.82377 11.0707L7.24348 10.535L4.66699 10.3814L7.24348 10.2278L5.82377 9.69168L7.32337 9.9312L6.09202 9.04944L7.47832 9.66528L6.5191 8.49744L7.69718 9.44832L7.07594 8.07408L7.96543 9.29472L7.72381 7.80816L8.26468 9.21552L8.41962 6.66144Z" fill="white"/>
</g>
<defs>
<clipPath id="clip0_14099_118952">
<rect width="24" height="24" fill="white"/>
</clipPath>
</defs>
</svg>
