<svg width="24" height="24" viewBox="0 0 24 24" fill="none" xmlns="http://www.w3.org/2000/svg">
<path d="M20 6H4V18H20V6Z" fill="#CC092F"/>
<path d="M15 6H4V18H15V6Z" fill="#FFD200"/>
<path d="M9 6H4V18H9V6Z" fill="#0046AE"/>
<path d="M11.4769 9.83204C11.4447 9.83204 11.4166 9.84026 11.4001 9.85304C11.4262 9.86064 11.4452 9.8847 11.4452 9.91396V9.98819H11.371C11.3419 9.98819 11.3178 9.96949 11.3101 9.94365C11.2973 9.96007 11.2891 9.98822 11.2891 10.0204C11.2891 10.0527 11.2973 10.0808 11.3101 10.0972C11.3177 10.0711 11.3417 10.0522 11.371 10.0522H11.4452V10.409C11.4452 10.437 11.4277 10.4603 11.4032 10.4689C11.4386 10.4737 11.4691 10.5212 11.4775 10.5472C11.4858 10.5213 11.5163 10.4737 11.5517 10.4689C11.527 10.4605 11.5092 10.4372 11.5092 10.409V10.0522H11.5834C11.6125 10.0522 11.6366 10.0709 11.6444 10.0967C11.6571 10.0803 11.6653 10.0521 11.6653 10.0199C11.6653 9.98768 11.6571 9.95953 11.6444 9.94312C11.6367 9.96921 11.6127 9.98816 11.5834 9.98816H11.5092V9.91394C11.5092 9.88486 11.5279 9.86079 11.5537 9.85301C11.5373 9.84025 11.5092 9.83203 11.4769 9.83203V9.83204Z" fill="black"/>
<path d="M11.4772 9.84745C11.4604 9.84745 11.4456 9.85059 11.4332 9.85461C11.4498 9.86908 11.4608 9.89005 11.4608 9.914V9.98823C11.4608 9.98929 11.4605 9.9903 11.4603 9.99131V10.0031H11.4485C11.4475 10.0033 11.4465 10.0036 11.4455 10.0036H11.3712C11.3476 10.0036 11.3268 9.99277 11.3124 9.97647C11.3082 9.98906 11.3047 10.0034 11.3047 10.0205C11.3047 10.0373 11.3078 10.0521 11.3118 10.0645C11.3263 10.0479 11.3473 10.0369 11.3712 10.0369H11.4608C11.4607 10.0384 11.4603 10.0399 11.4603 10.0415V10.0492C11.4605 10.0502 11.4608 10.0512 11.4608 10.0522V10.409C11.4608 10.4322 11.4489 10.4504 11.4332 10.4648C11.4444 10.4718 11.4541 10.4805 11.4623 10.4905C11.4697 10.4993 11.4726 10.508 11.4777 10.5171C11.4828 10.508 11.4857 10.4993 11.4931 10.4905C11.5012 10.4807 11.5107 10.4723 11.5217 10.4654C11.5059 10.451 11.4941 10.4323 11.4941 10.4091V10.0374H11.5064C11.5074 10.0372 11.5084 10.0369 11.5094 10.0369H11.5837C11.6073 10.0369 11.6281 10.0477 11.6425 10.064C11.6467 10.0514 11.6502 10.037 11.6502 10.02C11.6502 10.0032 11.6471 9.98841 11.6431 9.97595C11.6286 9.99259 11.6076 10.0036 11.5837 10.0036H11.5094C11.5084 10.0036 11.5074 10.0033 11.5064 10.0031H11.4946V9.99129C11.4944 9.9903 11.4941 9.98928 11.4941 9.98821V9.91399C11.4941 9.89032 11.5049 9.86961 11.5212 9.85512C11.5086 9.85098 11.4942 9.84744 11.4772 9.84744" fill="#F5D402"/>
<path d="M12.4065 11.1414C12.3611 11.1092 12.3239 11.0728 12.2974 11.0303C12.2337 10.9281 12.2068 10.8026 12.2068 10.6751C12.2068 10.6212 12.2672 10.5605 12.2672 10.5169C12.2672 10.451 12.2611 10.4114 12.2611 10.4114C12.2825 10.4143 12.32 10.4524 12.32 10.4524C12.32 10.4524 12.3187 10.343 12.2841 10.3239C12.2841 10.3239 12.2981 10.3095 12.3486 10.308C12.3344 10.2721 12.2642 10.2282 12.2642 10.2282C12.2677 10.2219 12.2742 10.2164 12.2826 10.2118C12.3002 10.202 12.325 10.1956 12.344 10.1918C12.3238 10.1876 12.3005 10.1812 12.2749 10.1729C12.2165 10.1538 12.1477 10.1259 12.0834 10.0951C11.9661 10.0388 11.8768 10.0352 11.8275 10.0352C11.7917 10.0352 11.7391 10.0361 11.7082 10.0567C11.68 10.0754 11.6823 10.0998 11.6724 10.1084C11.6491 10.1285 11.6092 10.1278 11.5899 10.1278C11.4655 10.1278 11.4609 10.2609 11.4609 10.2609C11.4609 10.2609 11.4927 10.2128 11.549 10.2128C11.6425 10.2128 11.7133 10.2637 11.7133 10.2829C11.7133 10.2907 11.7037 10.2921 11.7031 10.2921C11.642 10.2921 11.5498 10.257 11.5009 10.2553V10.2793C11.6102 10.3174 11.721 10.3712 11.721 10.6085C11.721 10.7579 11.7031 10.9104 11.6283 11.0303C11.6019 11.0728 11.5642 11.1092 11.5188 11.1414L11.9626 11.2214L12.4065 11.1414Z" fill="black"/>
<path d="M11.9625 11.0401L11.5187 11.1401C11.4985 11.134 11.4036 11.1045 11.337 11.0674C11.2197 11.0021 11.1589 10.9371 11.0196 10.9307V10.8247C11.0196 10.7681 11.0401 10.7171 11.0401 10.663C10.9813 10.6472 10.8183 10.4479 10.6679 10.3594C10.4466 10.5027 10.2752 10.738 10.2752 10.8462C10.2752 10.8462 10.2819 13.1713 10.2752 13.9813C10.2752 14.028 10.2471 14.094 10.2471 14.094C10.3279 14.0598 10.476 13.8572 10.5071 13.7801V13.817C10.6291 13.7614 10.7185 13.6152 10.7585 13.5395C10.7592 13.5505 10.7611 13.5779 10.7611 13.5779C10.8701 13.4824 11.0088 12.9175 11.0088 12.9175L11.2401 13.1448C11.2401 13.1448 11.1564 13.3146 11.1239 13.345C11.1239 13.345 11.1457 13.3477 11.1704 13.3475C11.1552 13.3694 11.039 13.5368 11.0025 13.5999C10.9684 13.659 10.9444 13.6327 10.8919 13.6327C10.8485 13.6327 10.7499 13.7019 10.7338 13.7299C10.7167 13.7594 10.7041 13.7952 10.7041 13.8246C10.7041 13.857 10.7384 13.9014 10.7384 13.9014C10.7421 13.8859 10.7486 13.8804 10.7486 13.8804C10.7486 13.8804 10.8387 13.9927 10.852 14.0074C10.8624 14.0188 10.9085 14.0263 10.9247 14.0115C10.9654 13.9745 11.0047 13.9487 11.0409 13.8953C11.0596 13.8678 11.061 13.8363 11.0824 13.8067C11.154 13.7079 11.2965 13.5187 11.3291 13.4755C11.3313 13.4875 11.3332 13.4976 11.3353 13.5098C11.3722 13.4352 11.5498 13.2927 11.5498 13.2927L11.7355 13.3782C11.7355 13.3782 11.3887 14.1756 11.0808 14.2982C11.0808 14.2982 11.2147 14.3551 11.3792 14.4405C11.4032 14.453 11.428 14.4664 11.453 14.4799C11.4737 14.455 11.4955 14.4273 11.517 14.3985C11.6153 14.2669 11.7115 14.1144 11.7115 14.1144C11.7182 14.154 11.6663 14.2764 11.5784 14.4272C11.5611 14.4569 11.5431 14.4879 11.5231 14.5194C11.5454 14.5321 11.5675 14.5449 11.5897 14.5583C11.7526 14.6563 11.9056 14.769 11.9623 14.8726L12.0023 14.7725L11.9623 14.6724V11.1728L11.9823 11.1228L11.9625 11.0401Z" fill="black"/>
<path d="M11.9618 14.673C11.9044 14.6106 11.7842 14.5344 11.6491 14.4641C11.8124 14.171 11.8933 13.7076 11.8554 13.6153C11.8554 13.6153 11.7883 13.8557 11.7064 13.9926C11.6305 14.1195 11.5371 14.2621 11.4468 14.3679C11.3726 14.3362 11.3005 14.3096 11.239 14.2911C11.5096 14.0826 11.7863 13.3937 11.7863 13.3937L11.5001 13.2611C11.5001 13.2611 11.3931 13.3858 11.3583 13.409C11.3583 13.409 11.3435 13.347 11.3348 13.3251C11.3348 13.3251 11.2938 13.3561 11.2713 13.3568C11.2713 13.3568 11.2646 13.3147 11.2595 13.2872C11.2313 13.306 11.1843 13.302 11.1843 13.302C11.2256 13.2825 11.2744 13.1628 11.2744 13.1628L11.0012 12.7993C11.0012 12.7993 10.9052 13.2605 10.7959 13.3553V11.3695L10.8824 11.4499L11.0135 11.3275V11.2343L10.8973 11.3429V11.0618C10.9148 11.0353 10.9264 11.0156 10.9351 10.9999C10.9539 11.0327 11.0147 11.1332 11.0861 11.1949C11.0979 11.1471 11.1752 11.1017 11.1752 11.1017C11.1752 11.1017 11.2029 11.1768 11.2453 11.1954C11.2603 11.1691 11.3493 11.111 11.3493 11.111C11.3493 11.111 11.2731 11.1225 11.2423 11.1514C11.2158 11.1455 11.209 11.0408 11.209 11.0408C11.209 11.0408 11.0969 11.0954 11.0774 11.1345C11.0561 11.1287 11.0228 11.0446 11.0099 11.0101C11.0294 11.008 11.057 11.0055 11.0933 11.0055C11.1253 11.0055 11.1662 11.0207 11.209 11.0408C11.2561 11.063 11.3053 11.0911 11.3493 11.111C11.4056 11.1365 11.4908 11.1417 11.5156 11.1427C11.4872 11.1627 11.4559 11.181 11.422 11.198C11.422 11.198 11.5561 11.1968 11.6503 11.1499C11.6839 11.1283 11.7188 11.1067 11.7486 11.0813C11.7357 11.1172 11.7155 11.1597 11.6841 11.1959C11.8224 11.1842 11.8913 11.1052 11.9109 11.0787C11.92 11.1025 11.9364 11.1406 11.962 11.1734H12.012V14.5734L11.9618 14.673Z" fill="#B07F55"/>
<path d="M10.9425 10.6738L10.9451 10.7372V10.9241C10.8949 10.9068 10.8318 10.8244 10.8013 10.7808V10.7552C10.8013 10.7311 10.8154 10.7135 10.8258 10.704L10.7956 10.6932C10.7841 10.7064 10.7716 10.7259 10.7716 10.7511V10.7659L10.6815 10.8627L10.5929 10.7286V10.6958C10.5929 10.6737 10.6099 10.6491 10.6241 10.6323L10.5944 10.6216C10.5795 10.641 10.5637 10.6672 10.5637 10.6917V10.7183C10.5429 10.7399 10.4619 10.8233 10.4619 10.8233C10.4619 10.8233 10.4212 10.7359 10.4102 10.7122C10.4722 10.6262 10.5728 10.53 10.6676 10.4609C10.6676 10.4609 10.8733 10.6497 10.9425 10.6738Z" fill="#B07F55"/>
<path d="M10.4213 10.855V11.0091L10.3496 11.0756V10.8468C10.3496 10.8249 10.3588 10.7985 10.3742 10.7695L10.4213 10.855Z" fill="#B07F55"/>
<path d="M10.6449 10.9144V11.0096L10.5625 11.0869V10.789L10.6449 10.9144Z" fill="#B07F55"/>
<path d="M10.5326 11.0874L10.4502 11.0106V10.899L10.5326 10.8125V11.0874Z" fill="#B07F55"/>
<path d="M10.9095 10.9713C10.8904 10.9983 10.8402 11.0645 10.7861 11.0936V10.832C10.7985 10.8527 10.8555 10.9448 10.9095 10.9713Z" fill="#B07F55"/>
<path d="M10.7563 10.8438V11.0854L10.6738 11.0086V10.9231L10.7563 10.8438Z" fill="#B07F55"/>
<path d="M10.4213 11.1016V11.3427L10.3496 11.2756V11.1686L10.4213 11.1016Z" fill="#B07F55"/>
<path d="M10.5326 11.1784V11.2649L10.4502 11.3416V11.1016L10.5326 11.1784Z" fill="#B07F55"/>
<path d="M10.6449 11.1016V11.3417L10.5625 11.2644V11.1789L10.6449 11.1016Z" fill="#B07F55"/>
<path d="M10.7563 11.1789V11.2644L10.6738 11.3417V11.1016L10.7563 11.1789Z" fill="#B07F55"/>
<path d="M10.8686 11.3422L10.7861 11.2649V11.1845C10.8146 11.1671 10.8432 11.1353 10.8686 11.1016L10.8686 11.3422Z" fill="#B07F55"/>
<path d="M10.6593 11.4486L10.7463 11.3677V13.354C10.7463 13.354 10.7524 13.4526 10.7566 13.5168C10.7179 13.5559 10.5723 13.7031 10.5723 13.7031V11.3672L10.6593 11.4486Z" fill="#B07F55"/>
<path d="M10.5226 13.6284C10.5226 13.6922 10.406 13.8411 10.3496 13.8751V11.3677L10.4356 11.4481L10.5226 11.3672V13.6284Z" fill="#B07F55"/>
<path d="M11.246 13.4137L11.3095 13.3702C11.3095 13.3702 11.3137 13.3912 11.3192 13.4199C11.292 13.457 11.1359 13.6701 11.0587 13.7741C11.0394 13.8 11.0233 13.8658 11.0233 13.8658C11.0233 13.8658 10.9952 13.8525 10.9952 13.8284C10.9952 13.8048 10.9983 13.7767 10.9983 13.7767C10.9983 13.7767 10.9772 13.8008 10.9409 13.8008C10.9409 13.7717 10.997 13.7402 10.9993 13.6989C10.9565 13.7306 10.9193 13.7143 10.8698 13.7296C10.8158 13.7462 10.8008 13.7689 10.7843 13.768C10.7745 13.7675 10.7657 13.7507 10.7694 13.7404C10.7759 13.7225 10.8426 13.673 10.8892 13.6641C10.9004 13.662 10.9882 13.6832 11.0059 13.6559C11.0788 13.5434 11.1972 13.3607 11.2086 13.3431C11.2162 13.3413 11.2231 13.3394 11.2286 13.3359C11.2286 13.3359 11.2279 13.3934 11.246 13.4137Z" fill="#D10429"/>
<path d="M10.8379 13.7654C10.8415 13.7695 10.8412 13.7754 10.8374 13.7787L10.8088 13.8038C10.805 13.807 10.799 13.8063 10.7955 13.8022C10.7919 13.7981 10.7922 13.7922 10.796 13.7889L10.8246 13.7638C10.8265 13.7622 10.8289 13.7615 10.8313 13.7618C10.8337 13.7621 10.8362 13.7633 10.8379 13.7654Z" fill="#D10429"/>
<path d="M10.8815 13.7939C10.89 13.8038 10.8895 13.8178 10.8805 13.8257L10.8108 13.8866C10.8018 13.8945 10.7872 13.8929 10.7786 13.883C10.77 13.8731 10.7705 13.8586 10.7796 13.8508L10.8492 13.7904C10.8526 13.7874 10.8572 13.7856 10.8615 13.7852C10.8686 13.7846 10.8761 13.7878 10.8815 13.7939Z" fill="#D10429"/>
<path d="M10.9215 13.8408C10.9301 13.8507 10.9295 13.8647 10.9205 13.8725L10.8504 13.9335C10.8413 13.9413 10.8272 13.9398 10.8186 13.9299C10.81 13.92 10.8106 13.9055 10.8197 13.8976L10.8893 13.8372C10.8927 13.8343 10.8968 13.8325 10.901 13.8321C10.9082 13.8315 10.9161 13.8346 10.9215 13.8408Z" fill="#D10429"/>
<path d="M10.9452 13.879C10.9524 13.8785 10.9598 13.8811 10.9652 13.8872C10.9738 13.8971 10.9732 13.9116 10.9642 13.9195L10.8945 13.9799C10.8855 13.9878 10.8714 13.9862 10.8628 13.9763C10.8542 13.9664 10.8543 13.9524 10.8633 13.9446L10.9335 13.8837C10.9368 13.8807 10.9409 13.8794 10.9452 13.879Z" fill="#D10429"/>
<path d="M11.8598 10.067C11.9744 10.067 12.055 10.1192 12.1634 10.1673C12.1918 10.1799 12.2179 10.1901 12.2412 10.198C12.2266 10.2109 12.2153 10.2239 12.212 10.2349C12.212 10.2349 12.2606 10.2439 12.2827 10.2845C12.2827 10.2845 12.2365 10.2898 12.2289 10.3168C12.2548 10.3187 12.2805 10.3514 12.2806 10.3828L12.2151 10.3623C12.2151 10.3623 12.231 10.4359 12.231 10.5159C12.231 10.5568 12.1721 10.6049 12.1721 10.6741C12.1721 10.8915 12.2269 10.975 12.2658 11.0422C12.281 11.0685 12.2934 11.0987 12.319 11.1215C12.2069 11.0618 12.1235 10.9871 12.1235 10.9178V10.6552H12.0943V10.9178C12.0943 10.9681 12.1066 10.9915 12.1066 10.9915C12.1242 11.0472 12.1598 11.133 12.1818 11.1676C12.0786 11.1118 12.0262 11.042 12.0262 11.0161V10.6552H11.997V11.0212L12.0027 11.0463C11.9901 11.0651 11.9739 11.0873 11.9627 11.0949C11.9516 11.0873 11.9358 11.065 11.9233 11.0463L11.9289 11.0212V10.6552H11.8998V11.0161C11.8998 11.042 11.8473 11.1118 11.7441 11.1676C11.7662 11.133 11.8018 11.0472 11.8194 10.9915C11.8194 10.9915 11.8317 10.9681 11.8317 10.9178V10.6552H11.8025V10.9178C11.8025 10.9871 11.7194 11.0618 11.6074 11.1215C11.6328 11.0987 11.645 11.0683 11.6601 11.0422C11.7027 10.9687 11.7554 10.8754 11.7554 10.6096C11.7554 10.5099 11.7406 10.4421 11.7149 10.3946C11.7071 10.3789 11.6966 10.3373 11.7564 10.3373C11.7874 10.3373 11.8583 10.392 11.8583 10.392C11.8583 10.392 11.8553 10.3483 11.8194 10.3234C11.8134 10.3193 11.8035 10.3063 11.8035 10.2942C11.8035 10.2852 11.819 10.2629 11.8311 10.2574C11.8395 10.2536 11.7093 10.2309 11.7093 10.1719C11.7093 10.1596 11.717 10.1514 11.7441 10.1514C11.7795 10.1514 11.8372 10.1939 11.8885 10.1939C11.9264 10.1939 11.9413 10.1847 11.9801 10.1847C12.0275 10.1847 12.1264 10.2745 12.1603 10.2712C12.1225 10.2474 12.0613 10.1575 11.9688 10.1575C11.9367 10.1575 11.9077 10.1647 11.8777 10.1647C11.8393 10.1647 11.8015 10.1294 11.76 10.1294C11.7321 10.1294 11.7011 10.1309 11.6965 10.1237C11.6884 10.1112 11.6957 10.1039 11.7031 10.0935C11.7172 10.074 11.7568 10.0683 11.7958 10.0669C11.8075 10.0665 11.8192 10.0663 11.8301 10.0664C11.841 10.0665 11.8511 10.067 11.8598 10.067Z" fill="#B07F55"/>
<path d="M11.4873 10.2077C11.4873 10.2077 11.5115 10.1619 11.5727 10.1619C11.5982 10.1619 11.6826 10.1602 11.6826 10.1602C11.6938 10.1894 11.7451 10.2382 11.7451 10.2889C11.7451 10.2889 11.6931 10.1952 11.5478 10.1952C11.5114 10.1952 11.4873 10.2077 11.4873 10.2077L11.4873 10.2077Z" fill="#CC092F"/>
<path d="M11.7242 10.3056C11.7242 10.3056 11.6932 10.3382 11.6865 10.3556C11.6559 10.344 11.6025 10.289 11.6025 10.289C11.6025 10.289 11.6478 10.3154 11.7242 10.3056H11.7242Z" fill="#D10429"/>
<path d="M11.6744 10.2189C11.6744 10.2189 11.6387 10.2075 11.6387 10.1955C11.6387 10.1802 11.656 10.1802 11.6664 10.1921C11.6735 10.2003 11.6743 10.2189 11.6743 10.2189L11.6744 10.2189Z" fill="black"/>
<path d="M11.8285 10.2607C11.8567 10.2607 11.8796 10.2426 11.8796 10.2202C11.8796 10.1979 11.8567 10.1798 11.8285 10.1798C11.8002 10.1798 11.7773 10.1979 11.7773 10.2202C11.7773 10.2426 11.8002 10.2607 11.8285 10.2607Z" fill="black"/>
<path d="M11.8286 10.2548C11.8482 10.2548 11.8642 10.2389 11.8642 10.2192C11.8642 10.1995 11.8482 10.1836 11.8286 10.1836C11.8089 10.1836 11.793 10.1995 11.793 10.2192C11.793 10.2389 11.8089 10.2548 11.8286 10.2548Z" fill="#F5D402"/>
<path d="M11.8286 10.2373C11.8369 10.2373 11.8437 10.2305 11.8437 10.2221C11.8437 10.2138 11.8369 10.207 11.8286 10.207C11.8202 10.207 11.8135 10.2138 11.8135 10.2221C11.8135 10.2305 11.8202 10.2373 11.8286 10.2373Z" fill="black"/>
<path d="M11.9652 11.0401L12.409 11.1401C12.4292 11.134 12.5242 11.1045 12.5908 11.0674C12.708 11.0021 12.7688 10.9371 12.9082 10.9307V10.8247C12.9082 10.7681 12.8877 10.7171 12.8877 10.663C12.9464 10.6472 13.1095 10.4479 13.2599 10.3594C13.4812 10.5027 13.6525 10.738 13.6525 10.8462C13.6525 10.8462 13.6459 13.1713 13.6525 13.9813C13.6525 14.028 13.6807 14.094 13.6807 14.094C13.5999 14.0598 13.4518 13.8572 13.4206 13.7801V13.817C13.2986 13.7614 13.2093 13.6152 13.1692 13.5395C13.1685 13.5505 13.1667 13.5779 13.1667 13.5779C13.0577 13.4824 12.9189 12.9175 12.9189 12.9175L12.6877 13.1448C12.6877 13.1448 12.7713 13.3146 12.8039 13.345C12.8039 13.345 12.782 13.3477 12.7573 13.3475C12.7725 13.3694 12.8888 13.5368 12.9252 13.5999C12.9593 13.659 12.9834 13.6327 13.0358 13.6327C13.0793 13.6327 13.1778 13.7019 13.194 13.7299C13.211 13.7594 13.2237 13.7952 13.2237 13.8246C13.2237 13.857 13.1894 13.9014 13.1894 13.9014C13.1857 13.8859 13.1791 13.8804 13.1791 13.8804C13.1791 13.8804 13.089 13.9927 13.0757 14.0074C13.0654 14.0188 13.0193 14.0263 13.003 14.0115C12.9624 13.9745 12.923 13.9487 12.8868 13.8953C12.8682 13.8678 12.8668 13.8363 12.8453 13.8067C12.7737 13.7079 12.6312 13.5187 12.5986 13.4755C12.5964 13.4875 12.5945 13.4976 12.5925 13.5098C12.5555 13.4352 12.378 13.2927 12.378 13.2927L12.1922 13.3782C12.1922 13.3782 12.5391 14.1756 12.8469 14.2982C12.8469 14.2982 12.713 14.3551 12.5485 14.4405C12.5245 14.453 12.4998 14.4664 12.4748 14.4799C12.4541 14.455 12.4323 14.4273 12.4108 14.3985C12.3124 14.2669 12.2162 14.1144 12.2162 14.1144C12.2095 14.154 12.2615 14.2764 12.3493 14.4272C12.3666 14.4569 12.3846 14.4879 12.4046 14.5194C12.3823 14.5321 12.3602 14.5449 12.3381 14.5583C12.1751 14.6563 12.0221 14.769 11.9654 14.8726L11.9254 14.7725L11.9654 14.6724V11.1728L11.9454 11.1228L11.9652 11.0401Z" fill="black"/>
<path d="M11.9659 14.673C12.0234 14.6106 12.1436 14.5344 12.2787 14.4641C12.1153 14.171 12.0344 13.7076 12.0724 13.6153C12.0724 13.6153 12.1394 13.8557 12.2213 13.9926C12.2972 14.1195 12.3906 14.2621 12.4809 14.3679C12.5552 14.3362 12.6272 14.3096 12.6887 14.2911C12.4182 14.0826 12.1415 13.3937 12.1415 13.3937L12.4276 13.2611C12.4276 13.2611 12.5346 13.3858 12.5694 13.409C12.5694 13.409 12.5842 13.347 12.5929 13.3251C12.5929 13.3251 12.634 13.3561 12.6564 13.3568C12.6564 13.3568 12.6631 13.3147 12.6682 13.2872C12.6964 13.306 12.7434 13.302 12.7434 13.302C12.7022 13.2825 12.6533 13.1628 12.6533 13.1628L12.9266 12.7993C12.9266 12.7993 13.0225 13.2605 13.1318 13.3553V11.3695L13.0453 11.4499L12.9143 11.3275V11.2343L13.0305 11.3429V11.0618C13.013 11.0353 13.0014 11.0156 12.9926 10.9999C12.9738 11.0327 12.913 11.1332 12.8416 11.1949C12.8298 11.1471 12.7525 11.1017 12.7525 11.1017C12.7525 11.1017 12.7248 11.1768 12.6824 11.1954C12.6675 11.1691 12.5784 11.111 12.5784 11.111C12.5784 11.111 12.6546 11.1225 12.6854 11.1514C12.7119 11.1455 12.7187 11.0408 12.7187 11.0408C12.7187 11.0408 12.8308 11.0954 12.8503 11.1345C12.8717 11.1287 12.9049 11.0446 12.9179 11.0101C12.8983 11.008 12.8707 11.0055 12.8344 11.0055C12.8025 11.0055 12.7616 11.0207 12.7187 11.0408C12.6717 11.063 12.6224 11.0911 12.5785 11.111C12.5221 11.1365 12.4369 11.1417 12.4121 11.1427C12.4405 11.1627 12.4718 11.181 12.5058 11.198C12.5058 11.198 12.3716 11.1968 12.2774 11.1499C12.2438 11.1283 12.2089 11.1067 12.1791 11.0813C12.1921 11.1172 12.2122 11.1597 12.2437 11.1959C12.1053 11.1842 12.0364 11.1052 12.0169 11.0787C12.0077 11.1025 11.9913 11.1406 11.9657 11.1734H11.9157V14.5734L11.9659 14.673Z" fill="#B07F55"/>
<path d="M12.9852 10.6738L12.9826 10.7372V10.9241C13.0328 10.9068 13.0959 10.8244 13.1265 10.7808V10.7552C13.1265 10.7311 13.1123 10.7135 13.1019 10.704L13.1321 10.6932C13.1436 10.7064 13.1562 10.7259 13.1562 10.7511V10.7659L13.2463 10.8627L13.3348 10.7286V10.6958C13.3348 10.6737 13.3178 10.6491 13.3036 10.6323L13.3333 10.6216C13.3483 10.641 13.364 10.6672 13.364 10.6917V10.7183C13.3848 10.7399 13.4659 10.8233 13.4659 10.8233C13.4659 10.8233 13.5065 10.7359 13.5176 10.7122C13.4555 10.6262 13.3549 10.53 13.2601 10.4609C13.2601 10.4609 13.0544 10.6497 12.9852 10.6738Z" fill="#B07F55"/>
<path d="M13.5065 10.855V11.0091L13.5781 11.0756V10.8468C13.5781 10.8249 13.5689 10.7985 13.5536 10.7695L13.5065 10.855Z" fill="#B07F55"/>
<path d="M13.2828 10.9144V11.0096L13.3652 11.0869V10.789L13.2828 10.9144Z" fill="#B07F55"/>
<path d="M13.3951 11.0874L13.4775 11.0106V10.899L13.3951 10.8125V11.0874Z" fill="#B07F55"/>
<path d="M13.0182 10.9713C13.0374 10.9983 13.0875 11.0645 13.1416 11.0936V10.832C13.1292 10.8527 13.0723 10.9448 13.0182 10.9713Z" fill="#B07F55"/>
<path d="M13.1715 10.8438V11.0854L13.2539 11.0086V10.9231L13.1715 10.8438Z" fill="#B07F55"/>
<path d="M13.5065 11.1016V11.3427L13.5781 11.2756V11.1686L13.5065 11.1016Z" fill="#B07F55"/>
<path d="M13.3951 11.1784V11.2649L13.4775 11.3416V11.1016L13.3951 11.1784Z" fill="#B07F55"/>
<path d="M13.2828 11.1016V11.3417L13.3652 11.2644V11.1789L13.2828 11.1016Z" fill="#B07F55"/>
<path d="M13.1715 11.1789V11.2644L13.2539 11.3417V11.1016L13.1715 11.1789Z" fill="#B07F55"/>
<path d="M13.0592 11.3422L13.1416 11.2649V11.1845C13.1132 11.1671 13.0846 11.1353 13.0592 11.1016L13.0592 11.3422Z" fill="#B07F55"/>
<path d="M13.2684 11.4486L13.1814 11.3677V13.354C13.1814 13.354 13.1753 13.4526 13.1712 13.5168C13.2099 13.5559 13.3555 13.7031 13.3555 13.7031V11.3672L13.2684 11.4486Z" fill="#B07F55"/>
<path d="M13.4051 13.6284C13.4051 13.6922 13.5217 13.8411 13.5781 13.8751V11.3677L13.4921 11.4481L13.4051 11.3672V13.6284Z" fill="#B07F55"/>
<path d="M12.6817 13.4137L12.6182 13.3702C12.6182 13.3702 12.614 13.3912 12.6085 13.4199C12.6357 13.457 12.7918 13.6701 12.8691 13.7741C12.8883 13.8 12.9044 13.8658 12.9044 13.8658C12.9044 13.8658 12.9326 13.8525 12.9326 13.8284C12.9326 13.8048 12.9295 13.7767 12.9295 13.7767C12.9295 13.7767 12.9505 13.8008 12.9868 13.8008C12.9868 13.7717 12.9307 13.7402 12.9285 13.6989C12.9713 13.7306 13.0085 13.7143 13.058 13.7296C13.1119 13.7462 13.1269 13.7689 13.1435 13.768C13.1532 13.7675 13.162 13.7507 13.1583 13.7404C13.1519 13.7225 13.0852 13.673 13.0385 13.6641C13.0274 13.662 12.9395 13.6832 12.9218 13.6559C12.8489 13.5434 12.7305 13.3607 12.7191 13.3431C12.7116 13.3413 12.7046 13.3394 12.6991 13.3359C12.6991 13.3359 12.6998 13.3934 12.6817 13.4137Z" fill="#D10429"/>
<path d="M13.0898 13.7654C13.0863 13.7695 13.0866 13.7754 13.0903 13.7787L13.119 13.8038C13.1227 13.807 13.1287 13.8063 13.1323 13.8022C13.1358 13.7981 13.1355 13.7922 13.1318 13.7889L13.1031 13.7638C13.1012 13.7622 13.0988 13.7615 13.0964 13.7618C13.0941 13.7621 13.0916 13.7633 13.0898 13.7654Z" fill="#D10429"/>
<path d="M13.0463 13.7939C13.0377 13.8038 13.0382 13.8178 13.0473 13.8257L13.1169 13.8866C13.126 13.8945 13.1406 13.8929 13.1492 13.883C13.1577 13.8731 13.1572 13.8586 13.1481 13.8508L13.0785 13.7904C13.0751 13.7874 13.0705 13.7856 13.0662 13.7852C13.0591 13.7846 13.0516 13.7878 13.0463 13.7939Z" fill="#D10429"/>
<path d="M13.0062 13.8408C12.9977 13.8507 12.9982 13.8647 13.0073 13.8725L13.0774 13.9335C13.0864 13.9413 13.1005 13.9398 13.1091 13.9299C13.1177 13.92 13.1172 13.9055 13.1081 13.8976L13.0385 13.8372C13.0351 13.8343 13.031 13.8325 13.0267 13.8321C13.0196 13.8315 13.0116 13.8346 13.0062 13.8408Z" fill="#D10429"/>
<path d="M12.9825 13.879C12.9754 13.8785 12.9679 13.8811 12.9625 13.8872C12.954 13.8971 12.9545 13.9116 12.9636 13.9195L13.0332 13.9799C13.0423 13.9878 13.0564 13.9862 13.0649 13.9763C13.0735 13.9664 13.0735 13.9524 13.0644 13.9446L12.9943 13.8837C12.9909 13.8807 12.9868 13.8794 12.9825 13.879Z" fill="#D10429"/>
<path d="M11.1757 14.0064L11.0137 13.918L10.9744 14.0983L11.1364 14.1866L11.1757 14.0064Z" fill="black"/>
<path d="M10.2595 12.1877L10.2012 12.2143L10.8605 13.6585H10.9307L10.2595 12.1877ZM11.0372 13.8909L10.9896 13.94L11.0192 14.0055L11.0771 13.9789L11.0372 13.8909Z" fill="black"/>
<path d="M10.4639 13.3281C10.4639 13.3281 10.5194 13.4428 10.5616 13.4586C10.5398 13.4526 10.4689 13.4786 10.4689 13.4786C10.4689 13.4786 10.5939 13.5903 10.6999 13.5976C10.7898 13.6038 10.8335 13.5589 10.8335 13.5589L10.8155 13.4637C10.8155 13.4637 10.7605 13.3973 10.6724 13.3666C10.5835 13.3356 10.4639 13.3281 10.4639 13.3281L10.4639 13.3281Z" fill="black"/>
<path d="M10.8828 13.1211C10.8828 13.1211 10.8061 13.1867 10.7851 13.2628C10.7641 13.3388 10.7988 13.4253 10.7988 13.4253L10.8632 13.5455C10.8632 13.5455 10.9525 13.4979 10.9905 13.4269C11.0285 13.3558 11.0146 13.2599 11.0146 13.2599C11.0146 13.2599 10.9438 13.2862 10.9348 13.2979C10.9497 13.219 10.8827 13.1211 10.8827 13.1211H10.8828Z" fill="black"/>
<path d="M10.6361 13.0917C10.6361 13.0917 10.5489 13.1212 10.4642 13.1161C10.3835 13.1112 10.3164 13.0435 10.3164 13.0435C10.3164 13.0435 10.3833 12.9982 10.4163 13.0042C10.38 12.991 10.3273 12.9 10.3273 12.9C10.3273 12.9 10.4022 12.8774 10.4685 12.9024C10.5348 12.9274 10.5927 13.0001 10.5927 13.0001L10.6361 13.0917H10.6361Z" fill="black"/>
<path d="M10.6663 12.6641C10.6663 12.6641 10.7099 12.7545 10.6996 12.7858C10.7131 12.7649 10.7643 12.7324 10.7643 12.7324C10.7643 12.7324 10.7953 12.8786 10.7657 12.969C10.7361 13.0593 10.6459 13.0937 10.6459 13.0937L10.5465 12.9003C10.5465 12.9003 10.5317 12.8286 10.5627 12.7719C10.5937 12.7152 10.6663 12.6641 10.6663 12.6641V12.6641Z" fill="black"/>
<path d="M10.0991 12.4231C10.0991 12.4231 10.1933 12.4132 10.2796 12.449C10.3517 12.4789 10.3738 12.5333 10.3738 12.5333L10.4093 12.6285C10.4093 12.6285 10.3067 12.667 10.2256 12.6376C10.1445 12.6081 10.085 12.5108 10.085 12.5108C10.085 12.5108 10.1416 12.4893 10.1632 12.4973C10.1318 12.4834 10.0991 12.4231 10.0991 12.4231V12.4231L10.0991 12.4231Z" fill="black"/>
<path d="M10.3952 12.25C10.3952 12.25 10.4366 12.3031 10.4378 12.3643C10.4488 12.3318 10.5005 12.2959 10.5005 12.2959C10.5005 12.2959 10.5536 12.4244 10.542 12.5157C10.5303 12.607 10.4539 12.661 10.4539 12.661L10.3586 12.48C10.3586 12.48 10.3275 12.4059 10.3366 12.3484C10.3458 12.2909 10.3952 12.25 10.3952 12.25V12.25Z" fill="black"/>
<path d="M10.069 11.9023C10.069 11.9023 10.0519 12.0009 10.0809 12.0576C10.1069 12.1083 10.1235 12.1194 10.1235 12.1194C10.0739 12.0867 9.99902 12.0839 9.99902 12.0839C9.99902 12.0839 10.0257 12.1911 10.0894 12.24C10.1531 12.2889 10.2513 12.2775 10.2513 12.2775C10.2513 12.2775 10.3159 12.1915 10.3114 12.0988C10.307 12.0062 10.2334 11.9069 10.2334 11.9069C10.2334 11.9069 10.2043 11.9671 10.2018 12.012C10.183 11.9657 10.0689 11.9024 10.0689 11.9024L10.069 11.9023Z" fill="black"/>
<path d="M10.8389 13.5528L10.8415 13.5881C10.9003 13.5887 10.909 13.5828 10.9241 13.6013C10.9341 13.6137 10.958 13.6245 10.982 13.6135C11.006 13.6025 11.0167 13.5737 11.0058 13.5497C10.9948 13.5257 10.9725 13.5205 10.951 13.5248C10.9378 13.5274 10.9291 13.5379 10.918 13.5437C10.8967 13.5547 10.8389 13.5528 10.8389 13.5528L10.8389 13.5528Z" fill="black"/>
<path d="M10.8342 13.5274L10.8628 13.5483C10.8321 13.5984 10.8225 13.6028 10.8303 13.6254C10.8354 13.6404 10.8319 13.6663 10.8099 13.6809C10.7879 13.6954 10.7578 13.6893 10.7432 13.6673C10.7287 13.6453 10.7361 13.6236 10.751 13.6077C10.7602 13.5978 10.7737 13.5961 10.7846 13.5896C10.8052 13.5774 10.8342 13.5273 10.8342 13.5273L10.8342 13.5274Z" fill="black"/>
<path d="M10.6348 13.1074L10.6374 13.1428C10.6962 13.1434 10.7049 13.1375 10.72 13.156C10.73 13.1684 10.7539 13.1791 10.7779 13.1682C10.8019 13.1572 10.8126 13.1284 10.8016 13.1044C10.7907 13.0804 10.7684 13.0752 10.7469 13.0795C10.7337 13.0821 10.725 13.0926 10.7139 13.0984C10.6926 13.1094 10.6348 13.1075 10.6348 13.1075L10.6348 13.1074Z" fill="black"/>
<path d="M10.6463 13.1172L10.6713 13.1424C10.6332 13.1871 10.6231 13.1899 10.6272 13.2134C10.63 13.2291 10.6225 13.2541 10.5985 13.2651C10.5745 13.276 10.5457 13.2653 10.5347 13.2413C10.5238 13.2173 10.5344 13.1971 10.5517 13.1836C10.5623 13.1753 10.576 13.1757 10.5877 13.171C10.6099 13.1621 10.6463 13.1172 10.6463 13.1172V13.1172Z" fill="black"/>
<path d="M10.4375 12.6895L10.4402 12.7249C10.4989 12.7254 10.5077 12.7196 10.5227 12.7381C10.5328 12.7504 10.5566 12.7612 10.5806 12.7502C10.6046 12.7393 10.6154 12.7105 10.6044 12.6864C10.5934 12.6625 10.5711 12.6573 10.5496 12.6615C10.5364 12.6641 10.5278 12.6746 10.5166 12.6804C10.4953 12.6914 10.4375 12.6895 10.4375 12.6895L10.4375 12.6895Z" fill="black"/>
<path d="M10.453 12.6797L10.478 12.7048C10.4399 12.7496 10.4297 12.7524 10.4338 12.7759C10.4366 12.7916 10.4291 12.8166 10.4051 12.8276C10.3811 12.8385 10.3523 12.8278 10.3414 12.8038C10.3304 12.7798 10.3411 12.7595 10.3584 12.7461C10.369 12.7378 10.3826 12.7382 10.3943 12.7335C10.4166 12.7246 10.453 12.6797 10.453 12.6797Z" fill="black"/>
<path d="M10.2266 12.2442L10.2292 12.2795C10.288 12.2801 10.2967 12.2742 10.3118 12.2927C10.3218 12.3051 10.3457 12.3159 10.3697 12.3049C10.3937 12.2939 10.4044 12.2651 10.3935 12.2411C10.3825 12.2171 10.3602 12.2119 10.3387 12.2162C10.3255 12.2188 10.3168 12.2293 10.3057 12.2351C10.2844 12.2461 10.2266 12.2442 10.2266 12.2442H10.2266Z" fill="black"/>
<path d="M10.243 12.2383L10.268 12.2635C10.2299 12.3083 10.2198 12.311 10.2239 12.3346C10.2266 12.3502 10.2191 12.3753 10.1952 12.3863C10.1712 12.3972 10.1424 12.3865 10.1314 12.3625C10.1204 12.3385 10.1311 12.3182 10.1484 12.3048C10.159 12.2965 10.1726 12.2968 10.1843 12.2922C10.2066 12.2833 10.243 12.2384 10.243 12.2384L10.243 12.2383Z" fill="black"/>
<path d="M11.1376 14.0236L11.0371 13.9688L11.0127 14.0806L11.1132 14.1354L11.1376 14.0236Z" fill="#F5D402"/>
<path d="M10.5973 12.9977C10.5762 13.0064 10.545 12.9147 10.522 12.8645C10.4985 12.8129 10.4507 12.7335 10.4643 12.7273C10.4792 12.7205 10.4988 12.7622 10.5229 12.815C10.547 12.8677 10.617 12.9895 10.5973 12.9977V12.9977Z" fill="#F5D402"/>
<path d="M10.3813 12.5167C10.3603 12.5254 10.3372 12.4654 10.3143 12.4151C10.2907 12.3636 10.2678 12.3272 10.2814 12.321C10.2963 12.3142 10.3183 12.3594 10.3376 12.4015C10.3562 12.4424 10.401 12.5084 10.3813 12.5167L10.3813 12.5167Z" fill="#F5D402"/>
<path d="M10.8813 13.6097C10.8648 13.6141 10.7926 13.4631 10.7343 13.3353C10.6759 13.2075 10.6325 13.1041 10.6461 13.0979C10.661 13.0911 10.7082 13.2118 10.7665 13.3397C10.8249 13.4675 10.8937 13.6064 10.8813 13.6097H10.8813Z" fill="#F5D402"/>
<path d="M10.0977 11.9609C10.0977 11.9609 10.0952 12.0329 10.119 12.0738C10.1428 12.1146 10.196 12.1309 10.196 12.1309C10.196 12.1309 10.1986 12.0589 10.1748 12.0181C10.1509 11.9772 10.0977 11.9609 10.0977 11.9609Z" fill="#097754"/>
<path d="M10.0479 12.125C10.0479 12.125 10.1104 12.1287 10.1465 12.1564C10.1826 12.184 10.1966 12.2417 10.1966 12.2417C10.1966 12.2417 10.1552 12.2459 10.1191 12.2182C10.083 12.1905 10.0479 12.125 10.0479 12.125Z" fill="#097754"/>
<path d="M10.2442 11.9766C10.2442 11.9766 10.2234 12.0243 10.2258 12.0757C10.2282 12.1271 10.2582 12.1851 10.2582 12.1851C10.2582 12.1851 10.2853 12.1233 10.2829 12.0719C10.2805 12.0204 10.2514 11.9911 10.2442 11.9766Z" fill="#097754"/>
<path d="M10.1387 12.4415C10.1387 12.4415 10.1694 12.4843 10.2167 12.5077C10.2639 12.5311 10.3344 12.532 10.3344 12.532C10.3344 12.532 10.2992 12.4863 10.2519 12.463C10.2047 12.4396 10.1387 12.4414 10.1387 12.4414V12.4415Z" fill="#097754"/>
<path d="M10.1543 12.543C10.1543 12.543 10.1769 12.5872 10.2181 12.6061C10.2594 12.6251 10.3439 12.6235 10.3439 12.6235C10.3439 12.6235 10.3115 12.5822 10.2702 12.5633C10.2289 12.5443 10.1543 12.543 10.1543 12.543H10.1543Z" fill="#097754"/>
<path d="M10.3918 12.3047C10.3918 12.3047 10.3669 12.3459 10.3693 12.3913C10.3718 12.4368 10.4016 12.4865 10.4016 12.4865C10.4016 12.4865 10.4225 12.4295 10.4201 12.3841C10.4177 12.3386 10.3918 12.3047 10.3918 12.3047H10.3918Z" fill="#097754"/>
<path d="M10.4832 12.3633C10.4832 12.3633 10.4405 12.4206 10.4344 12.4795C10.4283 12.5384 10.4587 12.5989 10.4587 12.5989C10.4587 12.5989 10.5103 12.5471 10.5164 12.4882C10.5225 12.4293 10.4832 12.3633 10.4832 12.3633V12.3633Z" fill="#097754"/>
<path d="M10.3662 12.9079C10.3662 12.9079 10.3713 12.9291 10.3892 12.9516C10.407 12.9741 10.4375 12.9979 10.4375 12.9979C10.4375 12.9979 10.467 12.9884 10.5037 12.9963C10.5403 13.0043 10.5891 13.0369 10.5891 13.0369C10.5891 13.0369 10.5366 12.9586 10.4821 12.9282C10.4277 12.8977 10.3662 12.9079 10.3662 12.9079L10.3662 12.9079Z" fill="#097754"/>
<path d="M10.3604 13.0423C10.3604 13.0423 10.4283 13.0133 10.4842 13.0208C10.5402 13.0283 10.5906 13.0725 10.5906 13.0725C10.5906 13.0725 10.515 13.0986 10.4591 13.0912C10.4031 13.0837 10.3604 13.0423 10.3604 13.0423H10.3604Z" fill="#097754"/>
<path d="M10.6475 12.7266C10.6475 12.7266 10.5874 12.7902 10.5824 12.8454C10.5773 12.9007 10.6311 12.9521 10.6311 12.9521C10.6311 12.9521 10.6284 12.9167 10.6377 12.8934C10.6469 12.8701 10.6666 12.8452 10.6666 12.8452C10.6666 12.8452 10.675 12.8167 10.6718 12.7939C10.6672 12.7621 10.6475 12.7266 10.6475 12.7266Z" fill="#097754"/>
<path d="M10.7334 12.8006C10.7334 12.8006 10.6767 12.8579 10.6618 12.9193C10.6468 12.9806 10.6735 13.046 10.6735 13.046C10.6735 13.046 10.725 13.0054 10.7399 12.9441C10.7549 12.8827 10.7334 12.8006 10.7334 12.8006H10.7334Z" fill="#097754"/>
<path d="M10.8758 13.1719C10.8758 13.1719 10.9015 13.2254 10.908 13.2702C10.9145 13.315 10.9085 13.3305 10.9085 13.3305C10.9085 13.3305 10.882 13.3566 10.8701 13.3719C10.8548 13.3916 10.8525 13.4276 10.8525 13.4276C10.8525 13.4276 10.7993 13.3485 10.8075 13.2906C10.8157 13.2328 10.8758 13.1719 10.8758 13.1719V13.1719Z" fill="#097754"/>
<path d="M10.9879 13.293C10.9879 13.293 10.9197 13.338 10.8927 13.3842C10.8656 13.4304 10.8796 13.4777 10.8796 13.4777C10.8796 13.4777 10.9282 13.4734 10.9553 13.4272C10.9823 13.3811 10.9879 13.293 10.9879 13.293L10.9879 13.293Z" fill="#097754"/>
<path d="M10.54 13.4845C10.54 13.4845 10.6383 13.4819 10.6984 13.4966C10.7584 13.5114 10.7803 13.5436 10.7803 13.5436C10.7803 13.5436 10.7128 13.5752 10.6527 13.5604C10.5926 13.5457 10.54 13.4845 10.54 13.4845L10.54 13.4845Z" fill="#097754"/>
<path d="M10.5234 13.3673C10.5234 13.3673 10.5678 13.436 10.6251 13.461C10.7041 13.4953 10.7955 13.4787 10.7955 13.4787C10.7955 13.4787 10.7458 13.4178 10.6775 13.3909C10.6091 13.364 10.5234 13.3673 10.5234 13.3673V13.3673Z" fill="#097754"/>
<path d="M13.8881 12.0204L13.901 12.0476C13.901 12.0476 13.8802 12.0547 13.8707 12.0732C13.8613 12.0916 13.8769 12.1177 13.8769 12.1177C13.8769 12.1177 13.7688 12.1083 13.752 12.1192C13.7367 12.1291 13.7584 12.204 13.7484 12.2672C13.7344 12.3553 13.6996 12.3479 13.6982 12.365C13.6968 12.3816 13.7115 12.4074 13.7115 12.4074C13.7115 12.4074 13.6913 12.4138 13.6869 12.4223C13.68 12.4359 13.6918 12.461 13.6834 12.4776C13.6364 12.5698 13.567 12.7059 13.5211 12.796C13.5147 12.8086 13.4975 12.8134 13.4888 12.8303C13.4809 12.8459 13.4873 12.8687 13.4873 12.8687C13.4873 12.8687 13.4569 12.8705 13.4463 12.8912C13.4351 12.9132 13.4417 12.9429 13.4417 12.9429C13.4417 12.9429 13.4225 12.9454 13.413 12.9639C13.403 12.9837 13.42 12.9941 13.4156 13.0028C13.3539 13.1239 13.2813 13.2665 13.237 13.3535C13.2207 13.3855 13.1636 13.3919 13.1305 13.4569C13.0983 13.52 13.1443 13.5665 13.1443 13.5665C13.1443 13.5665 13.0966 13.5708 13.0839 13.5957C13.071 13.621 13.0812 13.6595 13.1156 13.677C13.1501 13.6946 13.1877 13.6804 13.2006 13.655C13.2133 13.6302 13.1878 13.589 13.1878 13.589C13.1878 13.589 13.2524 13.5983 13.2846 13.5352C13.3177 13.4702 13.2898 13.4208 13.3061 13.3888C13.3504 13.3018 13.4231 13.1592 13.4847 13.0381C13.4892 13.0294 13.5074 13.037 13.5175 13.0172C13.5269 12.9986 13.5175 12.9818 13.5175 12.9818C13.5175 12.9818 13.5457 12.9696 13.5569 12.9475C13.5675 12.9268 13.5513 12.901 13.5513 12.901C13.5513 12.901 13.5735 12.893 13.5815 12.8774C13.5901 12.8605 13.5838 12.8439 13.5902 12.8313C13.6361 12.7413 13.7055 12.6051 13.7525 12.5129C13.7609 12.4964 13.788 12.4907 13.795 12.4771C13.7993 12.4686 13.7924 12.4484 13.7924 12.4484C13.7924 12.4484 13.8223 12.4455 13.8349 12.4346C13.8479 12.4234 13.8215 12.3994 13.8846 12.3363C13.9298 12.291 14.0027 12.2644 14.0018 12.2462C14.0007 12.2261 13.9296 12.1443 13.9296 12.1443C13.9296 12.1443 13.9596 12.1418 13.969 12.1233C13.9784 12.1049 13.9721 12.0834 13.9721 12.0834L14.0018 12.0783L14.0018 11.9375L13.8881 12.0204ZM12.9068 13.9812C12.9023 13.99 12.9015 14.0019 12.9068 14.0124C12.9068 14.0124 12.871 14.0012 12.8587 14.0073C12.8471 14.013 12.8587 14.1819 12.8587 14.1819C12.8587 14.1819 13.0016 14.0917 12.9994 14.0789C12.9971 14.0654 12.9672 14.0426 12.9672 14.0426C12.9788 14.0407 12.9878 14.0335 12.9923 14.0247C12.997 14.0154 12.9976 13.989 12.9651 13.9725C12.953 13.9663 12.9421 13.9644 12.9334 13.9653C12.9188 13.9668 12.9097 13.9754 12.9068 13.9812Z" fill="black"/>
<path d="M13.9141 12.0237L13.9816 12.058L13.9806 11.9766L13.9141 12.0237Z" fill="#F5D402"/>
<path d="M13.8882 12.0728C13.8795 12.0899 13.8879 12.1117 13.9071 12.1214C13.9263 12.1312 13.9486 12.1252 13.9573 12.1081C13.966 12.0911 13.9575 12.0693 13.9383 12.0595C13.9311 12.0558 13.9236 12.0544 13.9163 12.0549C13.9043 12.0557 13.8936 12.0622 13.8882 12.0728Z" fill="#F5D402"/>
<path d="M13.7719 12.1344C13.7648 12.139 13.7745 12.1998 13.7724 12.2516C13.7705 12.3004 13.7549 12.3142 13.7463 12.331C13.7384 12.3465 13.71 12.3648 13.71 12.3648L13.7335 12.3883C13.7335 12.3883 13.7488 12.3644 13.7729 12.3171C13.8014 12.2613 13.8004 12.1602 13.8088 12.1549C13.816 12.1502 13.8753 12.1354 13.8753 12.1354C13.8753 12.1354 13.8209 12.1325 13.7909 12.1328C13.7808 12.133 13.7736 12.1333 13.7719 12.1344Z" fill="#F5D402"/>
<path d="M13.7779 12.4172C13.7779 12.4172 13.7858 12.3953 13.8133 12.3414C13.8464 12.2764 13.9171 12.2293 13.9187 12.2175C13.9204 12.2054 13.8941 12.1484 13.8941 12.1484C13.8941 12.1484 13.8318 12.1604 13.823 12.1689C13.8144 12.1772 13.8182 12.2616 13.7851 12.3266C13.7576 12.3805 13.7441 12.4003 13.7441 12.4003L13.7779 12.4172Z" fill="#F5D402"/>
<path d="M13.9373 12.2218C13.9379 12.2317 13.8557 12.2904 13.8273 12.3462C13.8032 12.3935 13.793 12.4199 13.793 12.4199L13.8257 12.425C13.8257 12.425 13.8235 12.3914 13.8314 12.3759C13.8399 12.3591 13.8422 12.3386 13.8805 12.3083C13.9212 12.2762 13.9762 12.2482 13.9757 12.2397C13.9753 12.2319 13.9143 12.1562 13.9143 12.1562C13.9143 12.1562 13.9369 12.2132 13.9373 12.2218Z" fill="#F5D402"/>
<path d="M13.6963 12.5843C13.7457 12.4874 13.7607 12.4808 13.7669 12.4686C13.7736 12.4555 13.772 12.4379 13.7501 12.4266C13.7418 12.4225 13.7347 12.4214 13.7286 12.4221C13.7182 12.4232 13.7107 12.4297 13.7065 12.4379C13.7003 12.4501 13.7037 12.4665 13.6543 12.5634L13.5422 12.783C13.5422 12.783 13.5304 12.8045 13.5524 12.8157C13.5744 12.8269 13.5842 12.8045 13.5842 12.8045L13.6963 12.5843Z" fill="#F5D402"/>
<path d="M13.4988 12.8385C13.4927 12.8505 13.5032 12.8681 13.5224 12.8779C13.5416 12.8877 13.5623 12.8858 13.5684 12.8738C13.5745 12.8618 13.5636 12.8442 13.5444 12.8344C13.5348 12.8295 13.525 12.8275 13.5167 12.8283C13.5084 12.829 13.5019 12.8325 13.4988 12.8385Z" fill="#F5D402"/>
<path d="M13.4575 12.9006C13.4496 12.9161 13.4619 12.9384 13.4851 12.9503C13.5083 12.9621 13.5335 12.9591 13.5414 12.9436C13.5494 12.9281 13.537 12.9058 13.5138 12.8939C13.5051 12.8895 13.4965 12.8872 13.4882 12.8868C13.4744 12.8861 13.4624 12.8909 13.4575 12.9006Z" fill="#F5D402"/>
<path d="M13.4314 12.9713C13.4253 12.9833 13.4358 13.001 13.455 13.0107C13.4742 13.0205 13.4949 13.0187 13.5011 13.0067C13.5072 12.9947 13.4967 12.977 13.4775 12.9672C13.4679 12.9623 13.4576 12.9604 13.4494 12.9611C13.4411 12.9618 13.4345 12.9653 13.4314 12.9713Z" fill="#F5D402"/>
<path d="M13.4143 13.0375C13.4143 13.0375 13.2899 13.2825 13.2459 13.3687C13.2319 13.3962 13.1728 13.4134 13.1497 13.4588C13.1264 13.5045 13.1428 13.5472 13.1732 13.5627C13.2036 13.5782 13.2482 13.5669 13.2715 13.5212C13.2947 13.4758 13.2739 13.4177 13.2879 13.3902C13.3318 13.3039 13.4563 13.059 13.4563 13.059C13.4563 13.059 13.4686 13.0374 13.4466 13.0262C13.4411 13.0234 13.4363 13.0231 13.4323 13.0237C13.4201 13.0252 13.4143 13.0375 13.4143 13.0375Z" fill="#F5D402"/>
<path d="M13.0991 13.6044C13.0897 13.6227 13.1004 13.6471 13.1231 13.6586C13.1458 13.6702 13.1722 13.6647 13.1815 13.6464C13.1908 13.6281 13.1796 13.6037 13.1569 13.5921C13.1484 13.5877 13.1397 13.5857 13.1313 13.586C13.1173 13.5864 13.1049 13.593 13.0991 13.6044Z" fill="#F5D402"/>
<path d="M12.9335 13.9805C12.9264 13.9807 12.9206 13.983 12.9182 13.9877C12.9134 13.997 12.9233 14.0118 12.9402 14.0204C12.9571 14.0291 12.9748 14.0283 12.9796 14.0189C12.9844 14.0095 12.9745 13.9948 12.9576 13.9861C12.9491 13.9818 12.9407 13.9803 12.9335 13.9805V13.9805Z" fill="#F5D402"/>
<path d="M12.875 14.0237V14.1445L12.9733 14.0739C12.9733 14.0739 12.96 14.0503 12.9308 14.0355C12.9016 14.0206 12.875 14.0237 12.875 14.0237V14.0237Z" fill="#F5D402"/>
<path d="M12.9368 11.3347C12.9368 11.2684 13.0238 11.2031 13.0238 11.2031H10.9014C10.9014 11.2031 10.9884 11.2684 10.9884 11.3347V12.9146C10.9884 12.9562 11.0013 12.9833 11.0217 13.0098C11.0421 13.0383 11.0856 13.0777 11.1307 13.107C11.2701 13.1976 11.5032 13.293 11.6795 13.3732C11.8264 13.4401 11.8862 13.4671 11.9626 13.5616C12.039 13.4671 12.0993 13.4401 12.2462 13.3732C12.4225 13.293 12.6556 13.1976 12.795 13.107C12.8401 13.0777 12.8836 13.0383 12.904 13.0098C12.9245 12.9833 12.9368 12.9562 12.9368 12.9146V11.3347Z" fill="#F5D402"/>
<path d="M11.0383 12.2291V11.3353C11.0383 11.2847 11.0127 11.2539 11.0127 11.2539H12.912C12.912 11.2539 12.8864 11.2847 12.8864 11.3353L12.8869 12.2291L11.9626 12.5091L11.0383 12.2291Z" fill="#D10429"/>
<path d="M12.8877 12.2295L12.3153 12.2188H11.6114L11.0391 12.2295V12.9155C11.0391 12.95 11.0748 13.0308 11.2812 13.1336C11.6223 13.3036 11.8845 13.3829 11.9631 13.4796C12.0417 13.3829 12.3039 13.3035 12.645 13.1336C12.8514 13.0308 12.8871 12.95 12.8871 12.9155L12.8877 12.2295Z" fill="#0B45BB"/>
<path d="M12.3004 12.1917C12.3004 12.1917 12.6306 12.1084 12.6306 11.7555C12.6306 11.4799 12.2996 11.3431 12.2901 11.2773C12.2578 11.3912 12.4007 11.5483 12.4007 11.7345C12.4007 11.9754 12.2231 11.9869 12.2231 11.9869C12.1815 11.9869 12.1647 12.0166 12.1483 12.0166C12.1134 12.0129 12.0969 11.9684 12.0623 11.9684C12.0299 11.9684 12.0049 12.0186 11.962 12.0186C11.9191 12.0186 11.8946 11.9684 11.8622 11.9684C11.8276 11.9684 11.8111 12.0129 11.7762 12.0166C11.7598 12.0166 11.743 11.9869 11.7014 11.9869C11.7014 11.9869 11.5238 11.9754 11.5238 11.7345C11.5238 11.5483 11.6667 11.3911 11.6344 11.2773C11.625 11.3431 11.2939 11.4798 11.2939 11.7555C11.2939 12.1084 11.6241 12.1917 11.6241 12.1917L11.5299 12.3631C11.5299 12.3631 11.6664 12.37 11.7388 12.4318C11.8261 12.5062 11.8176 12.664 11.8176 12.7788C11.8176 12.8693 11.8062 12.9647 11.7598 13.0041C11.6975 13.0569 11.6553 13.0608 11.6553 13.1229C11.6553 13.1746 11.6951 13.185 11.7598 13.2191C11.8427 13.2628 11.8388 13.3215 11.962 13.3215C12.0852 13.3215 12.0818 13.2629 12.1647 13.2191C12.2294 13.185 12.2692 13.1746 12.2692 13.1229C12.2692 13.0608 12.227 13.0569 12.1647 13.0041C12.1183 12.9647 12.1069 12.8693 12.1069 12.7788C12.1069 12.664 12.0984 12.5062 12.1857 12.4318C12.2581 12.37 12.3946 12.3631 12.3946 12.3631L12.3004 12.1917Z" fill="black"/>
<path d="M11.9622 11.3008L11.9049 11.4636L11.7487 11.3894L11.8229 11.5455L11.6602 11.6033L11.8229 11.6612L11.7487 11.8168L11.9049 11.7426L11.9622 11.9054L12.0201 11.7426L12.1762 11.8168L12.102 11.6612L12.2648 11.6033L12.102 11.5455L12.1762 11.3894L12.0201 11.4636L11.9622 11.3008Z" fill="black"/>
<path d="M11.6104 12.2167C11.6104 12.2167 11.4066 12.1669 11.3304 12.0662C11.1973 12.186 11.0381 12.2275 11.0381 12.2275C11.0381 12.2275 11.2042 12.3025 11.3304 12.398C11.3886 12.3146 11.6104 12.2167 11.6104 12.2167Z" fill="black"/>
<path d="M12.3145 12.2167C12.3145 12.2167 12.5363 12.3146 12.5945 12.398C12.7207 12.3025 12.8868 12.2275 12.8868 12.2275C12.8868 12.2275 12.7276 12.186 12.5945 12.0662C12.5183 12.1669 12.3145 12.2167 12.3145 12.2167Z" fill="black"/>
<path d="M11.6936 12.4337L11.6143 12.5131L11.6936 12.5924L11.773 12.5131L11.6936 12.4337Z" fill="black"/>
<path d="M12.2307 12.4337L12.1514 12.5131L12.2307 12.5924L12.3101 12.5131L12.2307 12.4337Z" fill="black"/>
<path d="M11.6743 12.8983C11.6743 12.9986 11.6646 13.0514 11.6646 13.0514C11.6646 13.0514 11.7765 13.0185 11.7987 12.905C11.8092 12.8518 11.8208 12.6558 11.767 12.6224L11.6211 12.5938C11.6368 12.6327 11.6743 12.7535 11.6743 12.8983Z" fill="black"/>
<path d="M12.1578 12.6224C12.104 12.6558 12.1156 12.8518 12.126 12.905C12.1483 13.0185 12.2602 13.0514 12.2602 13.0514C12.2602 13.0514 12.2504 12.9986 12.2504 12.8984C12.2504 12.7535 12.2879 12.6327 12.3037 12.5938L12.1578 12.6224Z" fill="black"/>
<path d="M11.3304 12.6276C11.2801 12.6403 11.2497 12.6915 11.2624 12.7418C11.2643 12.7495 11.2675 12.7566 11.2711 12.7633C11.2637 12.7609 11.2561 12.7592 11.248 12.7587C11.2448 12.7585 11.2415 12.7586 11.2383 12.7587C11.1907 12.7603 11.151 12.7977 11.1477 12.8462C11.1441 12.898 11.1835 12.9425 11.2352 12.9461C11.243 12.9466 11.2505 12.9463 11.2577 12.945C11.2533 12.9511 11.2494 12.9577 11.2465 12.965C11.2271 13.0131 11.2506 13.0685 11.2987 13.0879C11.3468 13.1072 11.4017 13.0833 11.4211 13.0351C11.424 13.0278 11.4257 13.0206 11.4267 13.0131C11.4311 13.0193 11.4365 13.0249 11.4426 13.03C11.4823 13.0633 11.5419 13.058 11.5751 13.0182C11.6084 12.9785 11.6032 12.9194 11.5634 12.8862C11.5573 12.8811 11.5507 12.8772 11.5439 12.8739C11.5511 12.8716 11.5582 12.8684 11.5649 12.8642C11.6088 12.8366 11.6221 12.7781 11.5946 12.7341C11.5756 12.7039 11.5424 12.6884 11.5091 12.6906C11.494 12.6916 11.4788 12.6963 11.4651 12.705C11.4584 12.7092 11.4524 12.7138 11.4472 12.7193C11.4472 12.7117 11.4465 12.7039 11.4446 12.6963C11.4336 12.6522 11.3931 12.6232 11.3494 12.6251C11.3431 12.6254 11.3367 12.6261 11.3304 12.6276Z" fill="black"/>
<path d="M12.3283 12.9016C12.3384 12.9975 12.4163 13.0778 12.5125 13.1008C12.4961 13.0739 12.4852 13.0439 12.4818 13.0122C12.4698 12.8985 12.5577 12.8064 12.6779 12.8064C12.6968 12.8064 12.7152 12.8087 12.7332 12.8131C12.6908 12.7436 12.611 12.6953 12.5243 12.6953C12.4041 12.6953 12.3162 12.7879 12.3283 12.9016Z" fill="black"/>
<path d="M11.4763 11.7362C11.4763 11.9175 11.573 12.0245 11.7021 12.0245C11.7267 12.0245 11.7536 12.0577 11.7768 12.0577C11.8146 12.0577 11.8398 12.0158 11.8628 12.0158C11.8921 12.0158 11.9118 12.0618 11.9626 12.0618C12.0135 12.0618 12.0337 12.0158 12.063 12.0158C12.086 12.0158 12.1112 12.0577 12.149 12.0577C12.1722 12.0577 12.1991 12.0245 12.2237 12.0245C12.3528 12.0245 12.4495 11.9175 12.4495 11.7362C12.4495 11.5884 12.3253 11.4081 12.3389 11.3789C12.3389 11.3789 12.5811 11.5526 12.5811 11.7572C12.5811 12.0869 12.2468 12.1683 12.2468 12.1683L12.322 12.3378C12.322 12.3378 12.2184 12.3533 12.1551 12.4043C12.0707 12.4724 12.0696 12.6562 12.0696 12.7806C12.0696 12.9271 12.0751 12.9891 12.128 13.0289C12.1838 13.0708 12.2258 13.0798 12.2258 13.1226C12.2258 13.1598 12.1823 13.175 12.1259 13.1999C12.0618 13.2281 12.0554 13.2772 11.9626 13.2772C11.8699 13.2772 11.864 13.2281 11.7998 13.1999C11.7435 13.175 11.7 13.1598 11.7 13.1226C11.7 13.0798 11.742 13.0708 11.7978 13.0289C11.8507 12.9891 11.8561 12.9271 11.8561 12.7806C11.8561 12.6562 11.855 12.4724 11.7707 12.4043C11.7074 12.3533 11.6038 12.3378 11.6038 12.3378L11.679 12.1683C11.679 12.1683 11.3447 12.0869 11.3447 11.7572C11.3447 11.5526 11.5869 11.3789 11.5869 11.3789C11.6005 11.4081 11.4763 11.5884 11.4763 11.7362ZM11.8362 13.0975C11.7705 13.0975 11.7287 13.1114 11.7287 13.1313C11.7287 13.1512 11.7705 13.1646 11.8362 13.1646C11.8537 13.1646 11.8736 13.1544 11.8736 13.1313C11.8736 13.1082 11.8537 13.0975 11.8362 13.0975ZM12.0896 13.0975C12.0721 13.0975 12.0522 13.1082 12.0522 13.1313C12.0522 13.1544 12.0721 13.1646 12.0896 13.1646C12.1553 13.1646 12.1971 13.1512 12.1971 13.1313C12.1971 13.1114 12.1553 13.0975 12.0896 13.0975Z" fill="#FFD200"/>
<path d="M11.9635 11.4141L12.0004 11.518L12.0997 11.4704L12.0526 11.5702L12.156 11.6071L12.0526 11.6439L12.0997 11.7433L12.0004 11.6962L11.963 11.7996L11.9261 11.6962L11.8268 11.7433L11.8739 11.6439L11.7705 11.6071L11.8739 11.5702L11.8268 11.4704L11.9261 11.518L11.9635 11.4141Z" fill="#FFD200"/>
<path d="M11.5018 12.2237C11.5018 12.2237 11.3308 12.3506 11.3308 12.3506L11.3287 12.3532L11.3252 12.3501L11.1357 12.2313C11.1357 12.2313 11.2566 12.1897 11.3277 12.1172C11.395 12.1942 11.5018 12.2237 11.5018 12.2237Z" fill="#FFD200"/>
<path d="M12.7898 12.2313C12.7898 12.2313 12.6638 12.2941 12.6004 12.3501L12.5968 12.3532L12.5948 12.3506C12.5349 12.2819 12.4238 12.2237 12.4238 12.2237C12.4238 12.2237 12.5306 12.1942 12.5979 12.1172C12.669 12.1897 12.7898 12.2313 12.7898 12.2313Z" fill="#FFD200"/>
<path d="M11.6943 12.4727L11.7358 12.5141L11.6943 12.5561L11.6523 12.5141L11.6943 12.4727Z" fill="#FFD200"/>
<path d="M12.2309 12.4727L12.2729 12.5141L12.2309 12.5561L12.1895 12.5141L12.2309 12.4727Z" fill="#FFD200"/>
<path d="M11.7502 12.6531C11.7792 12.6931 11.7743 12.7577 11.7743 12.8477C11.7743 12.9383 11.7062 12.9731 11.7062 12.9731C11.7062 12.7551 11.6837 12.7027 11.6719 12.6367L11.7502 12.6531Z" fill="#FFD200"/>
<path d="M12.2531 12.6367C12.2412 12.7027 12.2188 12.7551 12.2188 12.9731C12.2188 12.9731 12.1507 12.9383 12.1507 12.8476C12.1507 12.7577 12.1458 12.6931 12.1748 12.6531L12.2531 12.6367Z" fill="#FFD200"/>
<path d="M11.4282 12.7194C11.4302 12.7276 11.4304 12.7356 11.4297 12.7435C11.4291 12.75 11.4274 12.756 11.4251 12.7619C11.4138 12.7578 11.4015 12.7558 11.3888 12.7558C11.3572 12.7558 11.3289 12.7697 11.3094 12.7916C11.3043 12.7871 11.2999 12.7821 11.2961 12.7762C11.2919 12.7698 11.2884 12.7627 11.2864 12.7547C11.2766 12.7156 11.3005 12.676 11.3396 12.6662C11.3445 12.6649 11.3496 12.6643 11.3545 12.6641C11.3884 12.6627 11.4196 12.6852 11.4282 12.7194Z" fill="#FFD200"/>
<path d="M11.389 12.9343C11.428 12.9343 11.4597 12.9026 11.4597 12.8636C11.4597 12.8246 11.428 12.793 11.389 12.793C11.35 12.793 11.3184 12.8246 11.3184 12.8636C11.3184 12.9026 11.35 12.9343 11.389 12.9343Z" fill="#FFD200"/>
<path d="M12.6291 12.7688C12.5118 12.7915 12.4274 12.8951 12.4397 13.0161C12.4023 12.9851 12.3749 12.9434 12.3701 12.8973C12.3605 12.8075 12.4258 12.7381 12.5242 12.7381C12.5618 12.7381 12.5979 12.7496 12.6291 12.7688Z" fill="#FFD200"/>
<path d="M20 6L20 18L4 18L4 6L20 6ZM20 5L4 5C3.4 5 3 5.4 3 6L3 18C3 18.6 3.4 19 4 19L20 19C20.6 19 21 18.6 21 18L21 6C21 5.4 20.6 5 20 5Z" fill="#B5B5B5"/>
</svg>
