<svg width="24" height="24" viewBox="0 0 24 24" fill="none" xmlns="http://www.w3.org/2000/svg">
<path d="M20 6H4V18H20V6Z" fill="#00247D"/>
<path d="M4 6L12 11L4 6ZM12 6L4 11L12 6Z" fill="black"/>
<path d="M4 6L12 11M12 6L4 11" stroke="white" stroke-width="1.5"/>
<path d="M4 6L12 11L4 6ZM12 6L4 11L12 6Z" fill="black"/>
<path d="M4 6L12 11M12 6L4 11" stroke="#CF142B"/>
<path d="M8 6V11V6ZM4 8.14286H12H4Z" fill="black"/>
<path d="M8 6V11M4 8.14286H12" stroke="white" stroke-width="1.5"/>
<path d="M8 6V11V6ZM4 8.14286H12H4Z" fill="black"/>
<path d="M8 6V11M4 8.14286H12" stroke="#CF142B"/>
<path d="M4 10.5H12V6H20V15H4V10.5Z" fill="#00247D"/>
<path d="M14.5416 11.2109H18.3947L18.3902 13.9527C18.4222 15.0549 17.7352 15.7389 16.4712 16.0473C15.5737 15.8244 14.5386 15.3633 14.5371 13.984L14.5417 11.2109H14.5416Z" fill="white"/>
<path d="M14.6274 11.293H18.3098L18.3054 13.9203C18.336 14.9764 17.6795 15.6318 16.4715 15.9273C15.6137 15.7138 14.6245 15.2719 14.623 13.9502L14.6274 11.293H14.6274Z" fill="#00A2BD" stroke="black" stroke-width="0.02"/>
<path d="M18.2808 14.2305C18.1469 15.2386 17.3704 15.6791 16.471 15.9129C15.6749 15.6993 14.8184 15.3584 14.6523 14.2355L18.2809 14.2305L18.2808 14.2305Z" fill="#A53D08"/>
<path d="M16.3253 11.7843L16.3202 11.4531L16.582 11.4557L16.5846 11.7843H17.3007L17.3033 12.0409L16.5846 12.0435L16.5788 15.0707L16.3234 15.0723L16.3202 12.0409L15.6064 12.0435L15.6066 11.7817L16.3253 11.7843Z" fill="black"/>
<path fill-rule="evenodd" clip-rule="evenodd" d="M15.7453 14.3578L16.4009 15.0379C16.6276 14.7887 16.4703 13.8575 16.1722 13.6859C16.1364 13.7962 16.0757 13.9284 16.0111 13.9711C15.869 14.0679 15.5207 14.1811 15.6371 14.2537C15.6636 14.2169 15.7331 14.1822 15.7658 14.2639C15.8046 14.3925 15.6208 14.4007 15.6208 14.4007C15.6208 14.4007 15.5044 14.3864 15.4839 14.268C15.4635 14.1495 15.6573 14.0414 15.6739 14.0331C15.6902 14.027 15.9434 13.9596 15.9863 13.7349C16.0394 13.5144 16.0945 13.5471 16.1048 13.543C16.4356 13.5756 16.6521 14.1679 16.6643 14.5845C16.6766 15.0011 16.4948 15.2768 16.4621 15.2952C16.4295 15.3136 15.6739 14.3987 15.6739 14.3987L15.7453 14.3578L15.7453 14.3578Z" fill="#FF9A08" stroke="black" stroke-width="0.02"/>
<path d="M16.2236 13.7266L16.2277 14.9539L16.2236 13.7266Z" fill="#FF9A08"/>
<path d="M16.2236 13.7266L16.2277 14.9539" stroke="black" stroke-width="0.02"/>
<path d="M16.1494 13.7461C16.1494 13.7481 16.1535 14.8612 16.1535 14.8612L16.1494 13.7461Z" fill="#FF9A08"/>
<path d="M16.1494 13.7461C16.1494 13.7481 16.1535 14.8612 16.1535 14.8612" stroke="black" stroke-width="0.02"/>
<path d="M16.0703 13.9102L16.0744 14.7965L16.0703 13.9102Z" fill="#FF9A08"/>
<path d="M16.0703 13.9102L16.0744 14.7965" stroke="black" stroke-width="0.02"/>
<path d="M16.0049 13.9727L16.009 14.7058L16.0049 13.9727Z" fill="#FF9A08"/>
<path d="M16.0049 13.9727L16.009 14.7058" stroke="black" stroke-width="0.02"/>
<path d="M15.9355 14.0039V14.6227V14.0039Z" fill="#FF9A08"/>
<path d="M15.9355 14.0039V14.6227" stroke="black" stroke-width="0.02"/>
<path d="M15.8594 14.0547V14.5448V14.0547Z" fill="#FF9A08"/>
<path d="M15.8594 14.0547V14.5448" stroke="black" stroke-width="0.02"/>
<path d="M15.7939 14.0938V14.4695V14.0938Z" fill="#FF9A08"/>
<path d="M15.7939 14.0938V14.4695" stroke="black" stroke-width="0.02"/>
<path d="M15.7354 14.4373L16.4113 15.2113" stroke="#FFDF00" stroke-width="0.02" stroke-linecap="round"/>
<path d="M16.4443 13.9492C16.4443 13.9492 16.7507 14.6191 16.4668 15.1705" stroke="#FFDF00" stroke-width="0.02" stroke-linecap="round"/>
<path d="M15.6562 14.2946C15.6562 14.2946 15.6787 14.2353 15.7073 14.2599" stroke="#FFDF00" stroke-width="0.02" stroke-linecap="round"/>
<path d="M15.6027 14.1249C15.6027 14.1249 15.4802 14.2331 15.5476 14.3026" stroke="#FFDF00" stroke-width="0.02" stroke-linecap="round"/>
<path d="M16.5857 12.4201C16.6311 12.3812 16.6546 12.3574 16.6827 12.3617C16.7108 12.366 16.7491 12.3639 16.7772 12.3552C16.8054 12.3466 16.9448 12.3293 17.0022 12.3487C17.0216 12.3509 17.0476 12.3617 17.0875 12.3952C17.1276 12.4288 17.186 12.4872 17.1665 12.6494C17.1471 12.8116 17.1534 12.881 17.1449 12.9716C17.1298 13.1317 17.0943 13.2634 17.0303 13.2528C17.1168 13.4042 17.1254 13.5339 17.1816 13.6378C17.2379 13.7416 17.2725 13.9535 17.2508 14.1828C17.2293 14.412 17.1687 14.9268 17.3503 15.2728C17.32 15.2944 17.2465 15.2728 17.1816 15.2036C17.1168 15.1344 17.0883 15.1367 17.0345 15.1776C16.8702 15.3031 16.7163 15.4543 16.4896 15.3031C16.4377 15.2685 16.4212 15.227 16.4593 15.1214C16.5544 14.8576 16.6007 14.4955 16.5857 14.3255V12.4201V12.4201Z" fill="#008021" stroke="black" stroke-width="0.02"/>
<path d="M16.7419 12.2551C16.7538 12.2919 16.7602 12.3394 16.7408 12.3827C16.7213 12.4259 16.717 12.4778 16.7494 12.5406C16.8013 12.467 16.8749 12.4822 16.9181 12.4389C16.9614 12.3957 16.97 12.3546 17.0025 12.3459C16.97 12.3178 16.9203 12.2875 16.9311 12.2053C16.9419 12.1231 17.0565 12.0561 16.9528 11.9307C16.8857 11.8497 16.7883 11.8723 16.7462 11.9036C16.7263 11.9184 16.7094 11.9393 16.703 11.9534C16.6964 11.9674 16.7046 11.9994 16.6888 12.0183C16.6781 12.0312 16.665 12.0441 16.6499 12.055C16.6402 12.0621 16.6342 12.0723 16.6445 12.0842C16.6487 12.089 16.6563 12.09 16.6646 12.0929C16.6598 12.1026 16.6543 12.1123 16.6489 12.1194C16.6437 12.126 16.6459 12.1323 16.6521 12.1376C16.6439 12.1636 16.6597 12.1664 16.6489 12.1859C16.6395 12.2027 16.6267 12.2226 16.6619 12.2421C16.6716 12.2475 16.7176 12.2582 16.7419 12.2551V12.2551Z" fill="#FFE1CF" stroke="black" stroke-width="0.02"/>
<path d="M16.3211 12.6865C16.2605 12.7016 16.1632 12.6757 16.0897 12.6843C16.0572 12.6881 16.0313 12.6713 16.0356 12.6389C16.0399 12.6064 16.0443 12.5567 16.0377 12.5113C16.0277 12.4405 16.0616 12.3426 16.1091 12.2344C16.1567 12.1263 16.1805 12.0658 16.1805 12.0149C16.1805 11.9814 16.1837 11.9436 16.214 11.9241C16.2364 11.9097 16.2407 11.8957 16.2487 11.8841C16.267 11.857 16.2843 11.8506 16.2865 11.8668C16.2878 11.8764 16.2843 11.8852 16.2756 11.8981C16.2951 11.8819 16.3281 11.863 16.3356 11.8576C16.3432 11.8522 16.3817 11.8251 16.3838 11.8506C16.399 11.843 16.4092 11.8435 16.413 11.8516C16.4171 11.8604 16.4146 11.8641 16.407 11.8706C16.4179 11.8684 16.4303 11.8873 16.4087 11.9041C16.42 11.9003 16.4313 11.9192 16.4114 11.9365C16.3907 11.9544 16.3671 11.9668 16.3595 11.9809C16.3519 11.9949 16.3005 12.0344 16.28 12.0431C16.2594 12.0517 16.2584 12.0636 16.2584 12.0939C16.2584 12.4269 16.2184 12.3999 16.2184 12.4799C16.2184 12.5016 16.214 12.521 16.2357 12.5145C16.2573 12.508 16.2886 12.4983 16.3211 12.4983V12.6865V12.6865Z" fill="#FFE1CF" stroke="black" stroke-width="0.02"/>
<path d="M16.3336 13.4029C16.4313 13.3541 16.5434 13.3359 16.6018 13.3208C16.6601 13.3056 16.7532 13.2602 16.7986 13.2364C16.844 13.2126 16.8808 13.1802 16.9067 13.1715C16.9327 13.1629 16.9618 13.145 16.9781 13.1131C17.0624 12.9488 17.1079 12.8169 17.1079 12.7022C17.1079 12.6265 17.0884 12.5422 17.0148 12.6027C16.9457 12.6596 16.8704 12.7694 16.8505 12.8493C16.8202 12.9704 16.7943 12.9963 16.7877 13.0201C16.7813 13.0439 16.7568 13.0439 16.7272 13.0504C16.5996 13.0785 16.5693 13.098 16.4742 13.1694C16.379 13.2407 16.2752 13.3035 16.206 13.3424C16.1367 13.3813 16.1238 13.3856 16.1086 13.417C16.0935 13.4484 16.0795 13.4721 16.0665 13.4862C16.0535 13.5003 16.0498 13.5167 16.0524 13.5338C16.0546 13.5478 16.0481 13.6127 16.047 13.6344C16.0459 13.656 16.0513 13.6614 16.06 13.6625C16.0687 13.6636 16.0805 13.6592 16.0849 13.6333C16.0805 13.6592 16.1162 13.6506 16.1184 13.6311C16.1173 13.6592 16.1552 13.643 16.1573 13.6171C16.1573 13.6354 16.186 13.6227 16.1887 13.6138C16.1951 13.5922 16.2005 13.5684 16.2092 13.5511C16.2218 13.526 16.2353 13.4935 16.2601 13.4754C16.2882 13.4548 16.2752 13.4321 16.3336 13.4029V13.4029Z" fill="#FFE1CF" stroke="black" stroke-width="0.02"/>
<path d="M17.0347 15.1767C17.0412 15.2005 17.0531 15.2275 17.0574 15.2438C17.0618 15.26 17.0542 15.265 17.0499 15.274C17.0272 15.3216 17.0028 15.3975 16.999 15.4384C16.9969 15.4622 16.9807 15.4849 16.9731 15.499C16.9647 15.5145 16.968 15.5264 16.9871 15.5411C16.9963 15.5482 17.0261 15.539 17.0293 15.5238C17.0401 15.5346 17.0596 15.5303 17.0682 15.5141C17.078 15.5238 17.0942 15.5173 17.105 15.5011C17.1147 15.5076 17.1288 15.4946 17.1342 15.486C17.1494 15.4935 17.1656 15.4844 17.1661 15.4546C17.1662 15.4487 17.1699 15.4384 17.1743 15.4314C17.1785 15.4243 17.1801 15.4108 17.1797 15.3989C17.1791 15.387 17.1867 15.3632 17.1969 15.3465C17.2072 15.3297 17.2251 15.3 17.2175 15.2719C17.2104 15.2457 17.1991 15.2481 17.1894 15.2102C17.1656 15.1854 17.1332 15.1507 17.0996 15.1486C17.0661 15.1464 17.0467 15.1691 17.0347 15.1767Z" fill="#FFE1CF" stroke="black" stroke-width="0.02"/>
<path d="M16.4199 15.3631C16.4502 15.3934 16.5184 15.3944 16.5659 15.3436C16.5487 15.336 16.5108 15.3187 16.4935 15.3047C16.4697 15.3285 16.4426 15.3555 16.4199 15.3631Z" fill="#FFE1CF" stroke="black" stroke-width="0.02"/>
<path d="M16.7256 11.9224C16.7375 11.8456 16.7919 11.8474 16.8261 11.8554C16.8402 11.8586 16.8748 11.8618 16.9072 11.8532C16.9714 11.8361 17.0197 11.8586 17.0133 11.9203C17.0305 11.9332 17.0489 11.9635 17.0456 11.9895C17.0424 12.0154 17.0478 12.0262 17.0716 12.0295C17.0954 12.0327 17.1463 12.0619 17.1127 12.103C17.1451 12.1225 17.17 12.1722 17.1527 12.2057C17.1354 12.2393 17.0835 12.2447 17.0619 12.2144C17.0381 12.2252 16.9991 12.2274 16.9754 12.2025C16.9591 12.2219 16.918 12.2198 16.9104 12.2025C16.9029 12.1852 16.8901 12.1759 16.8748 12.1711C16.8575 12.1657 16.8564 12.1181 16.8823 12.1127C16.8791 12.0987 16.8802 12.0825 16.8867 12.0749C16.8932 12.0673 16.8877 12.0533 16.8726 12.0414C16.8575 12.0295 16.8445 11.984 16.8596 11.9592C16.8337 11.9678 16.7764 11.943 16.7645 11.9257C16.7525 11.9083 16.7364 11.9073 16.7256 11.9224Z" fill="#870F00" stroke="black" stroke-width="0.02"/>
<path d="M16.7422 12.2559C16.7843 12.2505 16.7984 12.2245 16.8297 12.2267" stroke="black" stroke-width="0.02"/>
<path d="M16.6523 12.1406C16.6551 12.1431 16.6586 12.145 16.6626 12.1472C16.6711 12.1518 16.6804 12.1524 16.6891 12.1535" stroke="black" stroke-width="0.02"/>
<path d="M16.6641 12.0938C16.6699 12.0958 16.6762 12.0987 16.6818 12.1045" stroke="black" stroke-width="0.02"/>
<path d="M16.7621 11.9256C16.7373 11.9018 16.8043 11.8532 16.8746 11.9224C16.8877 11.9353 16.9211 11.9354 16.9308 11.9321" stroke="black" stroke-width="0.02"/>
<path d="M16.8594 11.961C16.8918 11.9534 16.9405 11.9534 16.9545 11.9902C16.9686 12.027 16.9968 12.0032 17.0194 12.0465C17.0421 12.0897 17.0778 12.1384 17.1124 12.1048" stroke="black" stroke-width="0.02"/>
<path d="M16.9754 12.2041C16.9656 12.1911 16.9614 12.163 16.9678 12.1435C16.9548 12.1284 16.9602 12.0971 16.9678 12.0819" stroke="black" stroke-width="0.02"/>
<path d="M16.8818 12.1133C16.883 12.1263 16.9003 12.1501 16.9273 12.1544" stroke="black" stroke-width="0.02"/>
<path d="M17.0619 12.2168C17.0468 12.1973 17.0489 12.1801 17.0522 12.1562" stroke="black" stroke-width="0.02"/>
<path d="M16.9044 12C16.9033 12.0195 16.9152 12.0454 16.9357 12.0541C16.9401 12.0649 16.9617 12.0952 17.0049 12.0908" stroke="black" stroke-width="0.02"/>
<path d="M17.0135 11.9218C16.9898 11.9034 16.9576 11.8807 16.915 11.8751" stroke="black" stroke-width="0.02"/>
<path d="M16.7489 12.543C16.7122 12.5927 16.6883 12.6619 16.7057 12.7592C16.723 12.8566 16.7511 12.9993 16.6797 13.0642" stroke="black" stroke-width="0.02"/>
<path d="M17.0308 13.2528C16.981 13.242 16.9096 13.242 16.8707 13.2701C16.8318 13.2982 16.7668 13.3004 16.7236 13.2787" stroke="black" stroke-width="0.02"/>
<path d="M16.9257 13.25C16.8824 13.2576 16.8619 13.2878 16.8619 13.3679C16.8619 13.4479 16.8446 13.5647 16.8597 13.6793" stroke="black" stroke-width="0.02"/>
<path d="M16.8464 13.2812C16.8183 13.2888 16.7892 13.2899 16.7946 13.3656" stroke="black" stroke-width="0.02"/>
<path d="M16.7002 13.3682C16.7012 13.3217 16.7175 13.2785 16.7478 13.286" stroke="black" stroke-width="0.02"/>
<path d="M17.0117 13.377C17.0139 13.2742 16.9912 13.245 16.9609 13.2461C17.002 13.2472 17.0301 13.2522 17.0474 13.4202C17.0604 13.5457 17.0866 13.5901 17.1166 13.6884C17.1945 13.9436 17.1556 14.3372 17.1945 14.4757" stroke="black" stroke-width="0.02"/>
<path d="M16.953 13.4062C17.0351 13.6442 17.0784 13.908 16.9443 14.3319C17.0351 14.5828 17.126 14.7645 17.1432 14.8683" stroke="black" stroke-width="0.02"/>
<path d="M16.693 13.9713C16.7081 13.9172 16.6541 13.9107 16.7017 13.7204C16.7223 13.6379 16.7255 13.5885 16.7125 13.5625" stroke="black" stroke-width="0.02"/>
<path d="M16.712 13.6719C16.6926 13.7562 16.7748 13.9141 16.7337 14.0287" stroke="black" stroke-width="0.02"/>
<path d="M16.6328 14.0508C16.6328 14.1243 16.6501 14.2195 16.6458 14.293C16.6415 14.3665 16.6715 14.4006 16.7064 14.4704C16.8318 14.7212 16.9172 14.9002 16.9053 15.1365C16.9032 15.1798 16.9183 15.2706 16.8729 15.2965" stroke="black" stroke-width="0.02"/>
<path d="M16.6357 15.3636C16.6487 15.3647 16.6628 15.3582 16.679 15.3193C16.6953 15.2803 16.7472 15.0468 16.7256 14.8867" stroke="black" stroke-width="0.02"/>
<path d="M16.7515 15.0665C16.758 15.1163 16.758 15.2179 16.7256 15.2979" stroke="black" stroke-width="0.02"/>
<path d="M16.834 14.918C16.8534 15.0239 16.8513 15.1191 16.8362 15.1862" stroke="black" stroke-width="0.02"/>
<path d="M16.7901 15.1836C16.7923 15.2268 16.8118 15.335 16.7793 15.3437" stroke="black" stroke-width="0.02"/>
<path d="M16.9521 14.6837C17.0321 14.8092 17.0948 15.1184 17.1619 15.1833" stroke="black" stroke-width="0.02"/>
<path d="M17.0219 15.1351C17.0197 15.1005 17.0175 15.0529 16.998 15.0312" stroke="black" stroke-width="0.02"/>
<path d="M16.1582 13.6184C16.1592 13.5946 16.155 13.5719 16.1809 13.5352" stroke="black" stroke-width="0.02"/>
<path d="M16.1191 13.6331C16.1224 13.5498 16.1212 13.5422 16.1451 13.5195" stroke="black" stroke-width="0.02"/>
<path d="M16.0853 13.6374C16.0864 13.5779 16.0788 13.5574 16.1026 13.5195" stroke="black" stroke-width="0.02"/>
<path d="M16.3838 11.8516C16.3746 11.8575 16.3205 11.8986 16.2979 11.9159" stroke="black" stroke-width="0.02"/>
<path d="M16.4074 11.8711C16.3971 11.8727 16.3674 11.897 16.3145 11.9381" stroke="black" stroke-width="0.02"/>
<path d="M16.4089 11.9062C16.3922 11.9138 16.3603 11.9446 16.3311 11.9652" stroke="black" stroke-width="0.02"/>
<path d="M16.2755 11.8984C16.2674 11.9044 16.2517 11.9217 16.2441 11.9276" stroke="black" stroke-width="0.02"/>
<path d="M17.0296 15.5259C17.0248 15.5205 17.0248 15.5015 17.0334 15.4805" stroke="black" stroke-width="0.02"/>
<path d="M17.0679 15.5135C17.062 15.5076 17.0679 15.4816 17.0738 15.4648" stroke="black" stroke-width="0.02"/>
<path d="M17.1046 15.4999C17.0976 15.4966 17.0954 15.4815 17.1056 15.4609" stroke="black" stroke-width="0.02"/>
<path d="M17.1341 15.4866C17.1293 15.485 17.1271 15.4769 17.1357 15.4531" stroke="black" stroke-width="0.02"/>
<path d="M16.7085 11.9931C16.7241 12.0136 16.7404 12.0115 16.7432 12.0247C16.7461 12.038 16.7482 12.0389 16.7512 12.0428C16.7542 12.0468 16.7438 12.046 16.7387 12.0438C16.7336 12.0417 16.7209 12.0419 16.7131 12.0421C16.7054 12.0422 16.6962 12.0331 16.702 12.032C16.7077 12.0309 16.707 12.0291 16.7061 12.0251C16.7052 12.0211 16.7093 12.0147 16.7117 12.0136C16.7142 12.0124 16.7125 12.0126 16.7103 12.0072C16.708 12.0018 16.7051 11.9887 16.7085 11.9931L16.7085 11.9931Z" fill="black"/>
<path d="M16.718 11.9729C16.7356 11.9749 16.7659 11.9844 16.7823 12.0026C16.7952 12.0169 16.7847 12.0131 16.7781 12.0136C16.7716 12.0142 16.7587 12.0095 16.7523 12.0014C16.7459 11.9933 16.7268 11.983 16.7167 11.9803C16.7105 11.9787 16.7047 11.9713 16.718 11.9729Z" fill="black"/>
<path d="M20 6L20 18L4 18L4 6L20 6ZM20 5L4 5C3.4 5 3 5.4 3 6L3 18C3 18.6 3.4 19 4 19L20 19C20.6 19 21 18.6 21 18L21 6C21 5.4 20.6 5 20 5Z" fill="#B5B5B5"/>
</svg>
