<svg width="24" height="24" viewBox="0 0 24 24" fill="none" xmlns="http://www.w3.org/2000/svg">
<path d="M20 6H4V12H20V6Z" fill="#FECB00"/>
<path d="M20 12H4V18H20V12Z" fill="#EA2839"/>
<path d="M20 10H4V14H20V10Z" fill="#34B233"/>
<path d="M20 6L20 18L4 18L4 6L20 6ZM20 5L4 5C3.4 5 3 5.4 3 6L3 18C3 18.6 3.4 19 4 19L20 19C20.6 19 21 18.6 21 18L21 6C21 5.4 20.6 5 20 5Z" fill="none"/>
<path d="M12 8L12.8981 10.7639H15.8042L13.4531 12.4721L14.3511 15.2361L12 13.5279L9.64886 15.2361L10.5469 12.4721L8.19577 10.7639H11.1019L12 8Z" fill="white"/>
</svg>
