<svg width="24" height="24" viewBox="0 0 24 24" fill="none" xmlns="http://www.w3.org/2000/svg">
<path d="M20 6H4V18H20V6Z" fill="#00247D"/>
<g clip-path="url(#clip0_14099_119905)">
<path d="M4 6L12 11L4 6ZM4 11L12 6L4 11Z" fill="black"/>
<path d="M4 6L12 11M4 11L12 6" stroke="white"/>
<path d="M4 6L12 11L4 6ZM4 11L12 6L4 11Z" fill="black"/>
<path d="M4 6L12 11M4 11L12 6" stroke="#CC142B" stroke-width="0.5"/>
<path d="M8 6V11V6ZM4 8.5H12H4Z" fill="black"/>
<path d="M8 6V11M4 8.5H12" stroke="white"/>
<path d="M8 6V11V6ZM4 8.5H12H4Z" fill="black"/>
<path d="M8 6V11M4 8.5H12" stroke="#CC142B" stroke-width="0.5"/>
</g>
<path d="M20 6L20 18L4 18L4 6L20 6ZM20 5L4 5C3.4 5 3 5.4 3 6L3 18C3 18.6 3.4 19 4 19L20 19C20.6 19 21 18.6 21 18L21 6C21 5.4 20.6 5 20 5Z" fill="none"/>
<path d="M16 9.1618L16.177 9.70643L16.1882 9.74098H16.2245H16.7972L16.3339 10.0776L16.3045 10.0989L16.3157 10.1335L16.4927 10.6781L16.0294 10.3415L16 10.3202L15.9706 10.3415L15.5073 10.6781L15.6843 10.1335L15.6955 10.0989L15.6661 10.0776L15.2028 9.74098H15.7755H15.8118L15.823 9.70643L16 9.1618Z" fill="#CC142B" stroke="white" stroke-width="0.1"/>
<path d="M14 11.1618L14.177 11.7064L14.1882 11.741H14.2245H14.7972L14.3339 12.0776L14.3045 12.0989L14.3157 12.1335L14.4927 12.6781L14.0294 12.3415L14 12.3202L13.9706 12.3415L13.5073 12.6781L13.6843 12.1335L13.6955 12.0989L13.6661 12.0776L13.2028 11.741H13.7755H13.8118L13.823 11.7064L14 11.1618Z" fill="#CC142B" stroke="white" stroke-width="0.1"/>
<path d="M16 14.1618L16.2892 15.0519L16.3004 15.0865H16.3368H17.2727L16.5155 15.6366L16.4861 15.658L16.4974 15.6925L16.7866 16.5826L16.0294 16.0325L16 16.0111L15.9706 16.0325L15.2134 16.5826L15.5026 15.6925L15.5139 15.658L15.4845 15.6366L14.7273 15.0865H15.6632H15.6996L15.7108 15.0519L16 14.1618Z" fill="#CC142B" stroke="white" stroke-width="0.1"/>
<path d="M18 11.1618L18.177 11.7064L18.1882 11.741H18.2245H18.7972L18.3339 12.0776L18.3045 12.0989L18.3157 12.1335L18.4927 12.6781L18.0294 12.3415L18 12.3202L17.9706 12.3415L17.5073 12.6781L17.6843 12.1335L17.6955 12.0989L17.6661 12.0776L17.2028 11.741H17.7755H17.8118L17.823 11.7064L18 11.1618Z" fill="#CC142B" stroke="white" stroke-width="0.1"/>
<defs>
<clipPath id="clip0_14099_119905">
<rect width="8" height="5" fill="white" transform="translate(4 6)"/>
</clipPath>
</defs>
</svg>
