<svg width="24" height="24" viewBox="0 0 24 24" fill="none" xmlns="http://www.w3.org/2000/svg">
<path d="M20 6H4V18H20V6Z" fill="black"/>
<path d="M4 6H20V18L4 6Z" fill="#CE1126"/>
<path d="M13.6863 9.56227C13.576 9.74045 13.3152 9.38303 13.0027 9.37487C12.6902 9.3667 12.4688 9.74964 12.3777 9.88001C12.2866 10.0104 11.9936 10.6947 12.0001 10.7681C12.0066 10.8414 12.1824 10.5644 12.2475 10.5155C12.254 10.6133 12.1759 10.7274 12.1954 10.7599C12.2149 10.7925 12.4233 10.5644 12.4949 10.5563C12.5144 10.6214 12.4558 10.6866 12.4754 10.7844C12.5014 10.817 12.6186 10.6214 12.6967 10.5807C12.7097 10.654 12.6251 10.7925 12.6707 10.8821C12.7032 10.8903 12.8985 10.6051 12.9636 10.5725C13.0287 10.5399 12.9311 10.8414 12.9636 10.8658C13.0222 10.817 13.2045 10.5562 13.2631 10.5237C13.3217 10.4911 13.2566 10.8577 13.2826 10.8577C13.3542 10.7925 13.5365 10.4829 13.5561 10.434C13.5756 10.3852 13.5365 10.9066 13.7384 11.1836C13.9402 11.4606 14.2462 11.7784 14.2787 11.7784C14.3178 11.6887 14.2657 11.5014 14.2982 11.5095C14.3894 11.6317 14.5586 11.811 14.5977 11.811C14.6368 11.811 14.5717 11.6154 14.6237 11.6154C14.7279 11.7376 15.0274 12.2183 15.6133 12.4383C15.5742 12.2998 15.4896 12.1776 15.4831 12.1124C15.5222 12.1206 15.6589 12.2021 15.6849 12.1939C15.711 12.1857 15.3985 11.705 15.418 11.6399C15.4896 11.6317 15.5222 11.6887 15.5482 11.648C15.5157 11.5828 15.2422 11.1999 15.2422 11.1103C15.2422 11.0206 15.3269 11.1266 15.3529 11.1103C15.3789 11.094 15.2487 10.7518 15.2748 10.7111C15.3008 10.6703 15.5873 10.931 15.6589 10.931C15.7305 10.931 15.6784 10.6133 15.711 10.597C15.7435 10.5807 15.9844 10.7681 16.0365 10.7681C16.0886 10.7681 16.0821 10.6296 16.1016 10.6459C16.1211 10.6622 16.6875 11.371 16.4922 12.202C16.2969 12.7968 15.9063 13.1146 15.3334 12.8538C15.3659 12.919 15.6719 13.2368 16.0039 13.1227C16.336 13.0086 16.7396 12.6827 16.694 11.868C16.6484 11.0533 16.4336 10.9392 16.401 10.817C16.3685 10.6948 16.4532 10.8496 16.5248 10.8822C16.5964 10.9148 16.5117 10.7111 16.4922 10.6214C16.4727 10.5318 16.707 10.8088 16.7656 10.8333C16.8242 10.8577 16.6289 10.1652 16.5703 10.1163C16.5117 10.0674 16.6289 10.1326 16.668 10.1489C16.707 10.1652 16.3099 9.39117 16.2253 9.39117C16.1406 9.39117 16.2969 9.35042 16.3425 9.35042C16.388 9.35042 15.8868 8.84528 15.8021 8.84528C15.7175 8.84528 15.9844 8.7149 16.0104 8.70676C16.056 8.7149 15.431 8.29124 14.8711 8.7149C14.8386 8.68234 15.1348 8.4257 15.1446 8.31571C15.1478 8.28719 15.0469 8.22608 15.0404 8.1935C15.0339 8.16092 15.1967 8.06315 15.2032 7.98982C15.1641 7.92464 15.0925 7.94908 15.0534 7.9328C15.0437 7.87169 15.1902 7.72096 15.1771 7.65579C15.1674 7.61913 15.0599 7.60691 15.0339 7.63135C15.0079 7.65579 15.1023 7.46026 15.086 7.40323C15.073 7.37879 15.0209 7.39509 14.9688 7.41137C14.9362 7.40323 15.1381 7.05288 15.099 7.00399C15.0599 6.95511 14.5131 7.36246 14.3112 7.81873C14.1094 8.27499 14.2657 8.64162 14.2396 8.79642C14.2136 8.95121 14.181 9.10603 14.0964 9.10603C14.0118 9.10603 13.8165 8.94307 13.7514 8.8616C13.6863 8.78014 13.6733 8.72309 13.5821 8.69051C13.491 8.65793 13.2826 8.7557 13.2045 8.76384C13.1264 8.77197 12.8204 8.69051 12.8009 8.71495C12.7813 8.73939 13.1003 8.88605 13.172 8.93493C13.2436 8.98382 13.2501 9.049 13.3022 9.08972C13.3542 9.13044 13.8425 9.3097 13.6863 9.56227ZM15.5938 10.7111C15.75 10.9066 16.8047 11.7865 16.8047 12.862C16.8047 13.9374 16.0365 13.9049 15.8151 13.8723C16.0625 14.133 17 14.0841 17 12.862C17 11.7865 15.7891 10.7111 15.6328 10.6133C15.4766 10.5155 15.4375 10.5155 15.5938 10.7111Z" fill="#FCD116"/>
<path d="M8.58862 15.0462L8.82727 14.25L9.06592 15.0548L8.4375 14.5615H9.21704L8.58862 15.0462Z" fill="white"/>
<path d="M8.00903 9.85767L7.53176 11.45L8.78858 10.4808H7.22949L8.4863 11.4673L8.00903 9.85767Z" fill="white"/>
<path d="M20 6L20 18L4 18L4 6L20 6ZM20 5L4 5C3.4 5 3 5.4 3 6L3 18C3 18.6 3.4 19 4 19L20 19C20.6 19 21 18.6 21 18L21 6C21 5.4 20.6 5 20 5Z" fill="#B5B5B5"/>
</svg>
