<svg width="24" height="24" viewBox="0 0 24 24" fill="none" xmlns="http://www.w3.org/2000/svg">
<path d="M20 6H4V18H20V6Z" fill="#007934"/>
<path d="M15 6H9V18H15V6Z" fill="white"/>
<path d="M12.0547 9C12.0415 9.13093 12.0282 9.26193 12.015 9.39287C11.9664 9.39955 11.9179 9.4062 11.8693 9.41288C11.8693 9.41288 11.9705 9.46476 11.9881 9.51686C11.991 9.52521 11.9898 9.53212 11.9857 9.53731C11.9844 9.53894 11.9823 9.54074 11.9805 9.5421C11.9512 9.56266 11.8645 9.55297 11.8645 9.55297C11.8645 9.55297 11.9793 9.64142 11.9881 9.67349C11.9883 9.67424 11.9886 9.67494 11.9886 9.67566C11.9886 9.67626 11.9887 9.67726 11.9886 9.67784C11.9885 9.6783 11.9879 9.67913 11.9876 9.67958C11.9869 9.68115 11.9854 9.68293 11.9838 9.68436C11.9568 9.70713 11.8296 9.71351 11.8296 9.71351C11.8296 9.71351 11.9707 9.80541 11.9795 9.85752C11.9875 9.90474 11.9808 9.9324 11.9795 9.93714C11.9696 9.92944 11.7421 9.75478 11.5953 9.80575C11.588 9.80922 11.5836 9.81252 11.5819 9.81575C11.5811 9.81737 11.5809 9.81938 11.5814 9.82097C11.5917 9.85003 11.7993 9.87979 11.944 9.99414C11.9405 10.0228 11.5314 9.90311 11.5162 9.97804C11.529 9.99917 11.9565 10.0554 11.9881 10.1064C11.8307 10.1117 11.5055 10.0747 11.5162 10.122C11.4833 10.1767 11.8234 10.1458 11.9661 10.1904C12.0079 10.2335 12.0039 10.2698 11.9311 10.2743C11.7936 10.2146 11.4858 10.1702 11.4851 10.2465C11.4851 10.2466 11.4851 10.2468 11.4851 10.2469C11.4851 10.247 11.4855 10.2473 11.4856 10.2473C11.4857 10.2476 11.4858 10.248 11.486 10.2482C11.4865 10.2486 11.4876 10.2491 11.4884 10.2495C11.5232 10.2654 11.8098 10.2576 11.9177 10.3226C11.7647 10.3542 11.246 10.2585 11.2427 10.3052C11.2575 10.327 11.3395 10.4228 11.4808 10.4188C11.622 10.4148 11.9488 10.4709 11.9709 10.511C11.9716 10.5122 11.9716 10.5135 11.9714 10.5145C11.9618 10.5424 11.541 10.4292 11.3792 10.4988C11.2115 10.571 11.8601 10.5272 11.9661 10.6154C12.072 10.7036 11.7543 10.6071 11.7543 10.6071C11.7543 10.6071 11.3132 10.5512 11.247 10.5793C11.1808 10.6074 11.1057 10.6715 11.1057 10.6715C11.1057 10.6715 11.1497 10.7515 11.1938 10.7355C11.2005 10.733 11.2051 10.7325 11.2077 10.7333C11.2078 10.7333 11.2081 10.7333 11.2082 10.7333C11.2083 10.7333 11.2086 10.7337 11.2087 10.7337C11.2088 10.7338 11.2091 10.7341 11.2091 10.7342C11.2092 10.7343 11.2095 10.7345 11.2096 10.7346C11.2097 10.7346 11.2101 10.735 11.2101 10.7351C11.2103 10.7355 11.2105 10.7363 11.2106 10.7368C11.2116 10.7488 11.1804 10.7838 11.1804 10.7838C11.1804 10.7838 11.7986 10.9198 11.9354 11.04C12.0723 11.1603 11.1497 10.8516 11.1497 10.8516C11.1497 10.8516 10.779 10.9759 11.1718 10.9839C11.128 11.0421 11.1899 11.0779 11.1938 11.08C11.1938 11.08 11.8472 11.2044 11.9134 11.3006C11.9796 11.3968 11.4676 11.2083 11.3529 11.1562C11.2422 11.1059 10.934 11.1828 10.9164 11.2062C10.9163 11.2064 10.9161 11.2069 10.916 11.2071C10.9159 11.2072 10.916 11.2074 10.916 11.2075C10.9159 11.2077 10.916 11.2082 10.916 11.2084C10.916 11.2085 10.916 11.2088 10.916 11.2088C10.916 11.2089 10.9159 11.2092 10.916 11.2093C10.916 11.2094 10.9164 11.2096 10.9164 11.2097C10.9165 11.2098 10.9164 11.2101 10.9164 11.2101C10.9166 11.2105 10.9171 11.2111 10.9174 11.2114C10.9175 11.2115 10.9178 11.2118 10.9179 11.2119C10.9376 11.2316 11.0752 11.2588 11.0793 11.2928C11.0793 11.2929 11.0793 11.2931 11.0793 11.2932C11.0794 11.295 11.0788 11.2972 11.0779 11.2989C11.0606 11.3294 10.8964 11.3424 10.8896 11.3711C10.8895 11.3716 10.8891 11.3723 10.8891 11.3729C10.8891 11.4049 11.7148 11.5613 11.9354 11.7296C12.1561 11.898 11.2868 11.529 11.2868 11.529C11.2868 11.529 11.3353 11.5891 11.2868 11.6052C11.2382 11.6212 11.0657 11.3807 10.7833 11.529C10.7318 11.5901 11.0299 11.6385 11.1057 11.6452C11.0798 11.7056 11.0572 11.7256 11.1632 11.7857C11.1748 11.7923 11.1813 11.7963 11.1838 11.7983C11.1838 11.7984 11.1842 11.7987 11.1843 11.7988L11.1847 11.7992C11.1848 11.7992 11.1847 11.7996 11.1847 11.7996C11.1847 11.7997 11.1847 11.8001 11.1847 11.8001C11.1847 11.8001 11.1843 11.8001 11.1843 11.8001C11.1842 11.8001 11.1838 11.8001 11.1838 11.8001C11.1674 11.7977 10.9771 11.7089 10.9572 11.7052C10.957 11.7052 10.9563 11.7052 10.9562 11.7052C10.9561 11.7052 10.9558 11.7052 10.9557 11.7052C10.9557 11.7133 10.9778 11.8097 10.9778 11.8097C10.88 11.7375 10.7618 11.7158 10.651 11.7896C10.6509 11.7939 10.6501 11.8631 10.7612 11.9058C10.6986 12.0221 10.832 11.986 11.0439 12.0942C10.729 12.0195 10.7038 12.1583 10.9289 12.1903C11.154 12.2224 11.7721 12.2425 11.9177 12.4148C11.9485 12.4512 11.9568 12.4695 11.9508 12.4753C11.9265 12.4953 11.703 12.3485 11.6705 12.343C11.6705 12.3431 11.6701 12.343 11.67 12.343C11.67 12.3431 11.6696 12.3434 11.6696 12.3435C11.6692 12.3439 11.6685 12.3449 11.6681 12.3457C11.6602 12.3616 11.6528 12.4309 11.6528 12.4309C11.5586 12.3814 11.4722 12.337 11.3596 12.3161C11.3508 12.3321 11.3526 12.3549 11.3438 12.3709C11.2416 12.3039 11.1525 12.2569 11.0041 12.2504C10.9982 12.2718 10.9923 12.2934 10.9864 12.3148C10.9864 12.3148 10.8627 12.1745 10.6199 12.3148C10.4843 12.403 11.132 12.3467 11.2379 12.4509C11.3438 12.5551 11.2599 12.571 11.2599 12.571C11.1717 12.5416 11.0838 12.5125 10.9955 12.4831C10.9955 12.4831 10.6818 12.4308 10.5935 12.4949C10.5053 12.559 11.8823 12.7154 11.922 12.8877C11.9488 12.9812 11.5985 12.7899 11.2954 12.7076C11.2837 12.7382 11.2717 12.7688 11.2599 12.7994C11.2527 12.793 11.1355 12.6894 11.0041 12.6715C11.0041 12.6716 11.0037 12.6719 11.0036 12.672C11.0036 12.6721 11.0036 12.6726 11.0036 12.6728C11.0038 12.686 11.0304 12.7799 11.0304 12.7799C11.0304 12.7799 10.6909 12.6354 10.5188 12.7116C10.3467 12.7877 11.1189 12.8278 11.1895 12.8999C11.1972 12.9078 11.2004 12.9136 11.2001 12.9173C11.1999 12.918 11.1994 12.919 11.1991 12.9195C11.182 12.9422 10.9517 12.8584 10.9289 12.8999C10.9024 12.948 10.5273 12.8119 10.5317 12.876C10.5362 12.9401 10.5849 12.9761 10.5849 12.9761C10.5849 12.9761 11.3662 13.0442 11.3926 13.1283C11.4191 13.2125 10.96 13.0805 10.96 13.0805C10.96 13.0805 10.9156 13.1403 10.9509 13.1684C10.9523 13.1695 10.9534 13.1705 10.9538 13.171C10.9538 13.171 10.9538 13.1714 10.9538 13.1714C10.9538 13.1714 10.9534 13.1714 10.9533 13.1714C10.9374 13.1666 10.6886 13.0187 10.7128 13.1323C10.6155 13.0971 10.3642 12.988 10.3995 13.0722C10.4343 13.1552 11.0897 13.2732 11.109 13.2767C11.0917 13.2779 10.8145 13.299 10.8273 13.365C10.4558 13.1595 10.4567 13.2827 10.4651 13.2924C10.4652 13.2924 10.4651 13.2928 10.4651 13.2928C10.4443 13.2898 9.98722 13.1864 10.3506 13.365C10.5456 13.4608 10.5931 13.4981 10.594 13.5125C10.594 13.5128 10.5941 13.5135 10.594 13.5138C10.594 13.5142 10.5937 13.5148 10.5936 13.5151C10.5935 13.5152 10.5931 13.5155 10.5931 13.5156C10.5929 13.5158 10.5928 13.5162 10.5926 13.5164C10.5925 13.5165 10.5922 13.5168 10.5921 13.5169C10.592 13.5169 10.5917 13.5172 10.5916 13.5173C10.5916 13.5174 10.5912 13.5177 10.5912 13.5177C10.5911 13.5178 10.5908 13.5181 10.5907 13.5182C10.5831 13.5226 10.5649 13.5207 10.5595 13.5208C10.5593 13.5208 10.5587 13.5208 10.5586 13.5208C10.5585 13.5208 10.5581 13.5212 10.5581 13.5212L10.5586 13.5217C10.5638 13.5287 10.5923 13.5993 10.5907 13.6117C10.5906 13.6119 10.5902 13.6124 10.5902 13.6126C10.5902 13.6126 10.5902 13.613 10.5902 13.613C10.5902 13.613 10.5897 13.613 10.5897 13.613C10.5897 13.613 10.5897 13.6134 10.5897 13.6135C10.5897 13.6135 10.5893 13.6134 10.5892 13.6135C10.5892 13.6134 10.5888 13.6135 10.5887 13.6135C10.5728 13.6098 10.3321 13.493 10.2496 13.4851C10.1657 13.4771 9.76834 13.5852 10.1921 13.7535C10.6158 13.9219 10.8761 13.7134 11.11 13.7374C11.3439 13.7615 11.4545 13.7976 11.4324 13.8658C11.4103 13.9339 11.1931 13.6424 10.9648 13.8945C10.7051 13.8478 10.529 13.8208 10.663 13.9941C10.2389 13.8502 9.97993 14.038 10.514 14.1142C11.0388 14.1283 11.3615 13.998 11.3615 13.998C11.3615 13.998 11.45 14.1466 11.578 14.0424C11.7 13.9431 11.7096 14.0695 11.7141 14.0816C11.7142 14.0818 11.7145 14.0819 11.7146 14.082C11.7146 14.082 11.7145 14.0824 11.7146 14.0825C11.7146 14.0825 11.715 14.0825 11.715 14.0825C11.7245 14.0803 11.8382 14.0342 11.8382 14.0342C11.8485 14.0342 11.859 14.0342 11.8693 14.0342V14.9961C12.012 14.9974 12.1544 14.9987 12.2971 15C12.2971 15 12.1603 14.1625 12.2353 14.0503C12.308 13.9415 12.3767 13.9533 12.381 13.9541C12.381 13.9541 12.6591 14.0301 12.69 14.0181C12.6903 14.0179 12.6911 14.0178 12.6914 14.0176C12.6916 14.0175 12.6921 14.0173 12.6924 14.0172C12.6929 14.0169 12.6938 14.0162 12.6943 14.0159C12.6944 14.0158 12.6947 14.0155 12.6948 14.0155C12.7174 13.9967 12.6943 13.9228 12.8356 13.9341C12.8792 13.9197 12.8626 13.8565 12.8907 13.841C12.8912 13.8407 12.8921 13.8404 12.8926 13.8401C12.8937 13.8397 12.8953 13.8391 12.8964 13.8388C12.8981 13.8384 12.9003 13.8381 12.9022 13.8379C12.9463 13.8339 13.7981 14.0542 13.9835 13.8458C13.9349 13.7295 13.767 13.8379 13.7228 13.8419C13.6831 13.8419 13.5153 13.7697 13.4182 13.8419C13.3299 13.7817 12.9285 13.7418 12.9285 13.7418C12.8756 13.6937 13.8863 13.7657 13.9437 13.7296C14.0629 13.6214 13.7231 13.6335 13.6701 13.6696C13.576 13.6175 13.4577 13.6213 13.3856 13.6574C13.351 13.5823 13.0228 13.6148 12.8404 13.5934C12.782 13.5623 12.7917 13.5445 12.8313 13.5251C13.2123 13.5398 13.5914 13.585 13.9744 13.5695C14.0778 13.447 13.8441 13.4008 13.7008 13.5051C13.6167 13.3795 13.4448 13.501 13.33 13.489C13.2152 13.477 13.2682 13.3489 13.4138 13.3689C13.5595 13.389 13.8199 13.3608 13.8685 13.3006C13.917 13.2405 13.8395 13.1796 13.5992 13.2367C13.5179 13.1645 13.3391 13.2366 13.2553 13.2606C13.1437 13.2041 12.8841 13.2527 12.7958 13.2728C12.7094 13.224 13.2505 13.1445 13.2505 13.1445C13.4593 13.1411 13.5771 13.1083 13.6433 13.0922C13.959 12.9386 13.6389 12.9223 13.4732 13.0339C13.3704 12.961 13.2727 13.0403 13.18 13.0683C13.0931 13.0946 12.9324 13.1138 12.9127 13.1062C12.9125 13.1061 12.9119 13.1058 12.9118 13.1057C12.9117 13.1057 12.9113 13.1053 12.9113 13.1053L12.9108 13.1049C12.9108 13.1048 12.9108 13.1045 12.9108 13.1044C12.9108 13.1044 12.9108 13.104 12.9108 13.104C12.9109 13.1038 12.9111 13.1033 12.9113 13.1031C12.9243 13.0848 13.1623 12.9521 13.1623 12.9521C13.1623 12.9521 13.4713 12.9319 13.5331 12.9239C13.5708 12.919 13.7028 12.8622 13.7027 12.8412C13.7016 12.8281 13.6466 12.8293 13.4799 12.8677C13.3299 12.8798 13.2417 12.872 13.1843 12.876C13.092 12.8673 13.0532 12.8585 13.0454 12.8508C13.0451 12.8504 13.0446 12.8498 13.0444 12.8495C13.0438 12.8481 13.0442 12.8465 13.0454 12.8451C13.0457 12.8448 13.0464 12.8441 13.0468 12.8438C13.0695 12.8274 13.2155 12.8155 13.2155 12.8155C13.2155 12.8155 13.6612 12.7784 13.6907 12.7572C13.6908 12.7571 13.6911 12.7569 13.6912 12.7568C13.6914 12.7566 13.6916 12.7561 13.6917 12.7559C13.6917 12.7558 13.6921 12.7556 13.6922 12.7555C13.7013 12.59 13.314 12.6664 13.3036 12.6676C13.3047 12.5512 12.954 12.6659 12.9376 12.6676C12.9376 12.6676 12.9372 12.6676 12.9371 12.6676C12.9221 12.6595 12.9155 12.651 12.9141 12.6432C12.9137 12.6403 12.9141 12.6369 12.9151 12.6341C12.9239 12.6101 12.9769 12.5915 12.9769 12.5915C13.074 12.5701 13.2192 12.5634 13.2572 12.5353C13.2572 12.5353 13.5312 12.5332 13.5638 12.467C13.4965 12.2985 12.9838 12.4969 12.9151 12.5271C12.9013 12.5271 12.8929 12.5239 12.8888 12.5188C12.8662 12.4889 12.9775 12.3904 12.9812 12.387C12.9813 12.387 12.9816 12.3866 12.9817 12.3866C12.9987 12.3822 13.408 12.3632 13.6035 12.1225C13.6173 11.9736 13.3697 12.2064 13.3697 12.2064C13.3513 12.0134 13.1005 12.2187 12.9549 12.2347C12.8092 12.2507 12.805 12.1745 12.9065 12.1625C13.008 12.1505 13.1226 12.1583 13.18 12.0181C13.2374 11.8778 13.4098 12.0262 13.4407 11.9741C13.4706 11.9236 13.3843 11.8806 13.3789 11.878C13.3789 11.878 13.5068 11.7574 13.2993 11.7614C13.094 11.7653 12.8285 11.738 12.8231 11.7374C12.836 11.733 13.0452 11.6613 13.2418 11.6652C13.4449 11.6692 13.3345 11.533 13.1403 11.533C12.9461 11.533 12.8447 11.4729 12.8447 11.4729C12.955 11.4355 13.0654 11.3981 13.1757 11.3607C13.1684 11.3326 13.161 11.3048 13.1537 11.2767C13.1537 11.2767 13.3478 11.1363 13.0742 11.1684C12.8005 11.2005 12.7695 11.2045 12.7695 11.2045C12.7695 11.2045 12.2308 11.2795 12.218 11.2806C12.218 11.2806 12.2176 11.2806 12.2176 11.2806C12.2124 11.2799 12.159 11.2648 12.1491 11.2463C12.1488 11.2456 12.1483 11.2447 12.1481 11.2441C12.1479 11.2433 12.1477 11.2422 12.1476 11.2415C12.1476 11.2406 12.1475 11.2393 12.1476 11.2384C12.1498 11.2286 12.1665 11.2181 12.2089 11.2084C12.3502 11.1763 12.8492 11.0843 12.9242 11.1083C12.9339 11.1114 12.9409 11.1107 12.9453 11.1075C12.9734 11.0844 12.8798 10.9369 12.6502 10.916C12.3853 10.892 12.2224 10.9761 12.2224 10.9761C12.2224 10.9761 12.05 10.9198 12.209 10.8717C12.3678 10.8236 12.6195 10.8878 12.6195 10.8878C12.6195 10.8878 12.9018 10.8115 12.6679 10.7794C12.434 10.7474 12.3602 10.8083 12.253 10.8116C12.2102 10.7631 12.6203 10.7517 12.6459 10.7116C12.6026 10.6394 12.3489 10.7116 12.2003 10.7116C12.1371 10.6872 12.1329 10.6476 12.2046 10.6232C12.3562 10.6179 12.4986 10.626 12.6502 10.6206C12.6458 10.5472 12.6503 10.4601 12.6459 10.3866C12.4536 10.3547 12.2282 10.4099 12.1203 10.4053C12.1492 10.3251 12.5642 10.3044 12.6104 10.2826C12.7058 10.1744 12.2124 10.2809 12.2003 10.2826C12.1127 10.2709 12.1181 10.2206 12.1735 10.1904C12.3015 10.177 12.5885 10.2074 12.5668 10.1286C12.5502 10.0547 12.3678 10.0943 12.2928 10.1103C12.2178 10.1263 12.1074 10.1142 12.1074 10.1142C12.0593 10.0555 12.5401 10.0795 12.5357 10.0342C12.5294 9.98215 12.231 10.018 12.1294 10.022C12.0513 9.97308 12.4965 9.94055 12.5175 9.93412C12.5176 9.93406 12.5179 9.93373 12.518 9.93368C12.5346 9.80044 12.209 9.93368 12.1472 9.93368C12.1365 9.93368 12.1285 9.93127 12.1227 9.92715C12.1214 9.9262 12.12 9.92478 12.1189 9.92367C12.0977 9.9012 12.1165 9.84971 12.1165 9.84971C12.1165 9.84971 12.2325 9.80236 12.2396 9.79098C12.2396 9.79089 12.2401 9.79063 12.2401 9.79054C12.2401 9.79051 12.2401 9.79015 12.2401 9.79011C12.2401 9.79008 12.2401 9.78971 12.2401 9.78967C12.2401 9.78961 12.2397 9.7893 12.2396 9.78924C12.2393 9.7889 12.2387 9.78833 12.2382 9.78793C12.2246 9.77841 12.1447 9.75436 12.1342 9.75356C12.1341 9.75356 12.1338 9.75356 12.1337 9.75356C12.1337 9.75354 12.1333 9.75316 12.1333 9.75313C12.1331 9.75304 12.1329 9.75282 12.1328 9.75269C12.1327 9.75263 12.1323 9.75234 12.1323 9.75226C12.1263 9.74105 12.1337 9.66133 12.1337 9.66133C12.1337 9.66133 12.2257 9.59875 12.2315 9.57388C12.2315 9.57367 12.2314 9.57321 12.2315 9.57301C12.2315 9.5728 12.2315 9.57233 12.2315 9.57214C12.2315 9.57196 12.2315 9.57145 12.2315 9.57127C12.2315 9.57109 12.2315 9.57057 12.2315 9.5704C12.2314 9.57031 12.2315 9.57004 12.2315 9.56996C12.2314 9.56972 12.2311 9.56932 12.231 9.56909C12.231 9.569 12.231 9.56873 12.231 9.56865C12.231 9.56859 12.2305 9.56829 12.2305 9.56822C12.2304 9.56807 12.2301 9.56792 12.23 9.56778C12.2299 9.56757 12.2297 9.5671 12.2295 9.56691C12.2295 9.56685 12.2291 9.56654 12.2291 9.56648C12.2287 9.56621 12.2281 9.56585 12.2276 9.56561C12.2274 9.56552 12.2269 9.56526 12.2267 9.56517C12.2034 9.55505 12.1074 9.58519 12.1074 9.58519C12.1074 9.55846 12.1074 9.53186 12.1074 9.50513C12.1074 9.50513 12.1915 9.49683 12.2003 9.46076C12.2008 9.45864 12.2006 9.45656 12.2003 9.45467C12.2002 9.45391 12.2001 9.45278 12.1998 9.45206C12.1993 9.45051 12.1985 9.44867 12.1974 9.44727C12.1973 9.44706 12.1967 9.44661 12.1965 9.4464C12.1772 9.42384 12.0987 9.42073 12.0987 9.42073C12.084 9.28044 12.0694 9.14031 12.0547 9.00003L12.0547 9ZM11.9762 10.3739V10.4292C11.9762 10.4292 11.8772 10.4246 11.8588 10.4105C11.8587 10.4104 11.8584 10.4101 11.8583 10.41C11.8582 10.41 11.8579 10.4097 11.8578 10.4096C11.8577 10.4095 11.8574 10.4092 11.8573 10.4092C11.8573 10.4091 11.8569 10.4088 11.8569 10.4087C11.8567 10.4085 11.8565 10.4081 11.8564 10.4079C11.8563 10.4078 11.8564 10.4075 11.8564 10.4074C11.8563 10.4074 11.8559 10.4071 11.8559 10.407C11.8559 10.4069 11.8559 10.4066 11.8559 10.4066C11.8559 10.4064 11.8559 10.4058 11.8559 10.4057C11.8559 10.4056 11.8559 10.4053 11.8559 10.4053C11.8559 10.4052 11.8559 10.4049 11.8559 10.4048C11.856 10.4045 11.8562 10.4038 11.8564 10.4035C11.8564 10.4034 11.8568 10.4032 11.8569 10.4031C11.8571 10.4027 11.8575 10.4021 11.8578 10.4018C11.8579 10.4017 11.8582 10.4014 11.8583 10.4013C11.8585 10.4012 11.859 10.4006 11.8593 10.4005C11.8599 10.3999 11.8608 10.3993 11.8616 10.3987C11.8949 10.3776 11.9612 10.3781 11.9742 10.3748C11.9743 10.3748 11.9746 10.3748 11.9747 10.3748C11.9748 10.3748 11.9751 10.3744 11.9752 10.3744C11.9753 10.3743 11.9756 10.3744 11.9757 10.3744C11.9757 10.3743 11.9761 10.374 11.9762 10.3739L11.9762 10.3739ZM12.1165 10.4475C12.1199 10.4475 12.3137 10.449 12.3307 10.4718C12.3308 10.472 12.331 10.4725 12.3311 10.4727C12.3313 10.473 12.3315 10.4737 12.3316 10.474C12.3317 10.4742 12.3316 10.4747 12.3316 10.4749C12.3316 10.4752 12.3317 10.4759 12.3316 10.4762C12.3315 10.4765 12.3313 10.4771 12.3311 10.4775C12.3164 10.506 12.1203 10.5232 12.1203 10.5232L12.1165 10.4475L12.1165 10.4475ZM12.1055 10.5567C12.1056 10.5567 12.1059 10.5566 12.106 10.5567C12.106 10.5567 12.1064 10.5566 12.1065 10.5567C12.118 10.5594 12.1982 10.5618 12.208 10.5741C12.2081 10.5742 12.2084 10.5744 12.2085 10.5745C12.2085 10.5746 12.2085 10.5749 12.2085 10.5749C12.2086 10.575 12.2089 10.5752 12.209 10.5754C12.209 10.5754 12.209 10.5757 12.209 10.5758C12.209 10.5759 12.209 10.5762 12.209 10.5762C12.209 10.5763 12.209 10.5766 12.209 10.5767C12.209 10.5767 12.209 10.577 12.209 10.5771C12.209 10.5772 12.209 10.5775 12.209 10.5775C12.209 10.5776 12.2085 10.5779 12.2085 10.578C12.2085 10.578 12.2085 10.5783 12.2085 10.5784C12.2084 10.5786 12.2082 10.5791 12.208 10.5793C12.208 10.5793 12.2076 10.5796 12.2075 10.5797C12.2075 10.5798 12.2076 10.5801 12.2075 10.5801C12.1909 10.5986 12.1169 10.6036 12.1132 10.6036C12.1131 10.6036 12.1127 10.6037 12.1127 10.6036C12.1127 10.6036 12.1127 10.6032 12.1127 10.6032C12.1126 10.6031 12.1123 10.6029 12.1122 10.6028C12.1088 10.5965 12.1055 10.5567 12.1055 10.5567L12.1055 10.5567ZM11.5148 10.702C11.5781 10.699 11.7036 10.7125 11.9393 10.7716C11.9393 10.7761 11.944 10.8316 11.9421 10.8408C11.9421 10.8408 11.9417 10.8411 11.9417 10.8412C11.9416 10.8412 11.9417 10.8416 11.9417 10.8416C11.9416 10.8417 11.9412 10.8421 11.9412 10.8421C11.9375 10.8404 11.5124 10.7294 11.4736 10.7311C11.4725 10.7311 11.4712 10.7312 11.4702 10.7311C11.4694 10.731 11.4682 10.7308 11.4674 10.7307C11.4663 10.7304 11.4649 10.7298 11.464 10.7294C11.4637 10.7292 11.4629 10.7291 11.4626 10.7289C11.4625 10.7289 11.4622 10.7286 11.4621 10.7285C11.4608 10.7277 11.4595 10.7265 11.4587 10.7255C11.4587 10.7254 11.4583 10.7251 11.4582 10.725C11.4581 10.7248 11.4579 10.7243 11.4578 10.7242C11.4577 10.7241 11.4578 10.7238 11.4578 10.7237C11.4577 10.7235 11.4573 10.723 11.4573 10.7228C11.4573 10.7228 11.4573 10.7225 11.4573 10.7224C11.4573 10.7222 11.4573 10.7217 11.4573 10.7215C11.4573 10.7214 11.4573 10.7209 11.4573 10.7207C11.4574 10.7202 11.4576 10.7194 11.4578 10.7189C11.4583 10.7177 11.4594 10.7162 11.4606 10.715C11.4671 10.7092 11.4834 10.7034 11.5148 10.702L11.5148 10.702ZM11.7352 10.866C11.8029 10.8638 11.9653 10.8992 11.9742 10.8973C11.9742 10.9091 11.9814 10.9646 11.9733 10.9761C11.9732 10.9761 11.9729 10.9764 11.9728 10.9765C11.9727 10.9766 11.9724 10.9768 11.9723 10.9769C11.9722 10.977 11.9719 10.9773 11.9718 10.9774C11.9717 10.9774 11.9711 10.9777 11.9709 10.9778C11.9708 10.9778 11.9705 10.9778 11.9704 10.9778C11.9702 10.9778 11.9696 10.9778 11.9694 10.9778C11.9693 10.9778 11.9691 10.9778 11.9689 10.9778C11.9551 10.9747 11.7156 10.9056 11.7064 10.8773C11.7063 10.8768 11.7064 10.876 11.7064 10.8756C11.7065 10.8746 11.707 10.8734 11.7078 10.8725C11.7079 10.8724 11.7082 10.8722 11.7083 10.8721C11.7084 10.872 11.7087 10.8717 11.7088 10.8716C11.7134 10.8683 11.7229 10.8664 11.7352 10.866L11.7352 10.866ZM12.402 11.0183C12.4667 11.0171 12.5124 11.0221 12.4955 11.04C12.4493 11.0887 12.1299 11.1288 12.1299 11.1288L12.1242 11.04C12.131 11.0391 12.2933 11.0202 12.402 11.0183H12.402ZM11.488 11.295C11.5423 11.2923 11.6687 11.3194 11.9503 11.4277L11.9522 11.4916C11.9522 11.4916 11.4754 11.3603 11.4587 11.3385C11.4506 11.3277 11.4353 11.2975 11.488 11.295L11.488 11.295ZM12.4222 11.3902C12.4367 11.3896 12.4469 11.3909 12.4504 11.3942C12.4505 11.3942 12.4508 11.3945 12.4509 11.3946C12.4511 11.3949 12.4513 11.3956 12.4514 11.3959C12.4515 11.3962 12.4519 11.3968 12.4519 11.3972C12.4517 11.399 12.4502 11.4015 12.4476 11.4042C12.4032 11.4495 12.1649 11.4947 12.1649 11.4947C12.1649 11.4947 12.1649 11.4376 12.1649 11.4359C12.1649 11.4359 12.1653 11.4359 12.1654 11.4359C12.1762 11.4356 12.3512 11.3935 12.4222 11.3902L12.4222 11.3902ZM11.3768 11.3981C11.448 11.3946 11.6087 11.4289 11.969 11.5838C11.969 11.5854 11.9722 11.6389 11.9709 11.6439C11.9708 11.6439 11.9704 11.6439 11.9704 11.6439C11.949 11.6376 11.3222 11.4377 11.3222 11.4377C11.3215 11.4355 11.3121 11.4012 11.3768 11.3981L11.3768 11.3981ZM12.5702 11.6482C12.5884 11.6475 12.6004 11.649 12.6032 11.6526C12.6035 11.653 12.6037 11.6538 12.6037 11.6543C12.6037 11.6561 12.6021 11.6583 12.5989 11.6609C12.5421 11.7075 12.1797 11.764 12.1668 11.7648C12.1667 11.7648 12.1664 11.7648 12.1663 11.7648C12.1663 11.7648 12.1659 11.7649 12.1659 11.7648C12.1658 11.7648 12.1654 11.7644 12.1654 11.7644C12.1652 11.7642 12.165 11.7637 12.1649 11.7635C12.1649 11.7634 12.1649 11.7632 12.1649 11.7631C12.1648 11.7629 12.1645 11.7624 12.1644 11.7622C12.1621 11.7514 12.1696 11.7136 12.1702 11.7083C12.1702 11.7082 12.1702 11.7079 12.1702 11.7078C12.1702 11.7079 12.1706 11.7078 12.1706 11.7078C12.1707 11.7078 12.171 11.7083 12.1711 11.7083C12.1712 11.7083 12.1715 11.7083 12.1716 11.7083C12.1948 11.7079 12.4725 11.6519 12.5702 11.6482H12.5702ZM11.5047 11.794C11.6126 11.7889 11.9395 11.925 11.9555 11.9293C11.9556 11.9293 11.956 11.9293 11.956 11.9293C11.9543 11.9354 11.9541 11.9845 11.9527 11.9924C11.9526 11.9926 11.9527 11.9931 11.9527 11.9932C11.9527 11.9933 11.9522 11.9932 11.9522 11.9932C11.9434 11.989 11.4953 11.8201 11.4755 11.8336C11.4632 11.807 11.476 11.7953 11.5047 11.794L11.5047 11.794ZM12.4686 11.8297C12.4911 11.8288 12.5075 11.8297 12.5127 11.8323C12.5133 11.8326 12.5139 11.8331 12.5141 11.8336C12.5142 11.8336 12.5141 11.8339 12.5141 11.834C12.5141 11.8341 12.5142 11.8344 12.5141 11.8344C12.5141 11.8346 12.5142 11.8351 12.5141 11.8353C12.5141 11.8354 12.5137 11.8357 12.5137 11.8357C12.5133 11.8361 12.5127 11.8366 12.5122 11.8371C12.479 11.8639 12.1702 11.9193 12.1702 11.9193C12.1702 11.9193 12.1687 11.8673 12.1687 11.8623C12.1775 11.8606 12.3768 11.8333 12.4686 11.8297L12.4686 11.8297ZM12.4437 12.0093C12.4654 12.0087 12.4808 12.0098 12.4844 12.0132L12.4849 12.0137C12.485 12.0138 12.4849 12.0144 12.4849 12.0146C12.4849 12.0146 12.4854 12.0149 12.4854 12.015C12.4854 12.0151 12.4849 12.0153 12.4849 12.0154C12.4849 12.0156 12.485 12.0161 12.4849 12.0163C12.4849 12.0164 12.4845 12.0166 12.4844 12.0167C12.4842 12.0171 12.4839 12.0176 12.4835 12.018C12.4832 12.0183 12.4824 12.019 12.482 12.0193C12.4487 12.0455 12.1869 12.0955 12.1869 12.0955C12.1869 12.0955 12.1797 12.0384 12.1797 12.0367C12.187 12.0369 12.362 12.0118 12.4437 12.0093L12.4437 12.0093ZM11.339 12.0237C11.4021 12.0201 11.5586 12.0437 11.945 12.1712L11.9579 12.2399C11.9579 12.2399 11.3146 12.0513 11.2963 12.0454C11.2964 12.0454 11.2963 12.045 11.2963 12.045C11.2963 12.0446 11.2962 12.0438 11.2963 12.0428C11.2966 12.0411 11.2975 12.0384 11.2997 12.0359C11.3042 12.0308 11.3146 12.0251 11.339 12.0237L11.339 12.0237ZM12.1865 12.1729C12.1942 12.1744 12.3021 12.1777 12.322 12.1929C12.3221 12.193 12.3224 12.1933 12.3225 12.1934C12.3226 12.1934 12.3229 12.1937 12.323 12.1938C12.3231 12.1939 12.3234 12.1942 12.3235 12.1942C12.3237 12.1945 12.3238 12.1949 12.324 12.1951C12.324 12.1952 12.3244 12.1955 12.3244 12.1955C12.3246 12.1959 12.3248 12.1965 12.3249 12.1969C12.3249 12.1969 12.3249 12.1972 12.3249 12.1973C12.3249 12.1974 12.3249 12.1976 12.3249 12.1977C12.3249 12.1979 12.3249 12.1984 12.3249 12.1986C12.3249 12.1987 12.3249 12.1989 12.3249 12.199C12.3249 12.1992 12.3245 12.1997 12.3244 12.1999C12.3244 12.2 12.3245 12.2002 12.3244 12.2003C12.3243 12.2005 12.3241 12.201 12.324 12.2012C12.3073 12.2247 12.1946 12.2334 12.1946 12.2334C12.1946 12.2334 12.1891 12.1873 12.1865 12.1729L12.1865 12.1729ZM12.4476 12.3069C12.4727 12.3064 12.4907 12.309 12.4945 12.3156C12.4966 12.3201 12.4925 12.3268 12.4806 12.3356C12.3882 12.4044 12.1869 12.4179 12.1869 12.4179V12.3422C12.187 12.3422 12.1873 12.3422 12.1874 12.3422C12.1988 12.3409 12.3642 12.3087 12.4476 12.3069H12.4476ZM12.7039 12.3774C12.7358 12.3763 12.7495 12.3812 12.7537 12.3878C12.754 12.3884 12.7545 12.3894 12.7546 12.39C12.7549 12.3911 12.7552 12.3927 12.7551 12.3939C12.7541 12.4026 12.7438 12.4129 12.736 12.4196C12.7045 12.4465 12.2037 12.5906 12.2037 12.5906C12.2037 12.5906 12.1999 12.495 12.2018 12.4866C12.4946 12.406 12.6378 12.3797 12.7039 12.3774L12.7039 12.3774ZM12.38 12.648C12.4118 12.6469 12.4367 12.6486 12.4442 12.6554C12.4447 12.6559 12.4453 12.6567 12.4456 12.6571C12.4458 12.6575 12.446 12.6581 12.4461 12.6585C12.4462 12.6588 12.4461 12.6594 12.4461 12.6598C12.4461 12.6603 12.4463 12.6613 12.4461 12.6619C12.4458 12.6632 12.4448 12.6648 12.4437 12.6663C12.4009 12.7045 12.1927 12.7102 12.1927 12.7102V12.6628C12.2318 12.6616 12.3188 12.6501 12.38 12.648L12.38 12.648ZM12.5884 12.7259C12.5983 12.7257 12.6043 12.7271 12.6052 12.7298C12.6052 12.73 12.6052 12.7304 12.6052 12.7307C12.6047 12.7329 12.6018 12.7363 12.5956 12.7402C12.5124 12.7939 12.1999 12.849 12.1999 12.849C12.1999 12.849 12.2037 12.8115 12.2056 12.8025C12.2143 12.8023 12.5136 12.7275 12.5884 12.7259L12.5884 12.7259ZM12.7637 12.7855C12.8006 12.7852 12.8287 12.7901 12.8447 12.8007C12.8447 12.8007 12.8452 12.8007 12.8452 12.8007C12.8452 12.8007 12.8452 12.8011 12.8452 12.8012C12.8452 12.8012 12.8452 12.8015 12.8452 12.8016C12.8452 12.8017 12.8452 12.8023 12.8452 12.8025C12.8436 12.8129 12.8202 12.8618 12.7379 12.8829C12.6352 12.8746 12.1994 12.9916 12.1908 12.9935C12.1907 12.9934 12.1903 12.9935 12.1903 12.9935C12.1902 12.9933 12.1903 12.9928 12.1903 12.9926C12.1901 12.9851 12.196 12.9447 12.196 12.9447C12.3463 12.8631 12.6193 12.7867 12.7637 12.7855L12.7637 12.7855ZM11.648 13.0152C11.6489 13.0152 11.6498 13.0152 11.6508 13.0152C11.8394 13.0337 11.9098 13.0977 11.9297 13.1235C11.8921 13.1834 11.5942 13.0491 11.6255 13.0204C11.629 13.0175 11.6364 13.0154 11.648 13.0152L11.648 13.0152ZM12.7283 13.0265C12.7358 13.0262 12.7426 13.0276 12.7475 13.0304C12.7494 13.0316 12.7514 13.0334 12.7527 13.0352C12.7545 13.0379 12.7557 13.0415 12.7561 13.0457C12.7364 13.0733 12.6345 13.0612 12.6282 13.0604C12.6333 13.0588 12.6921 13.0278 12.7283 13.0265H12.7283ZM12.3244 13.2127C12.3384 13.2122 12.35 13.2135 12.3565 13.2171C12.3573 13.2175 12.3583 13.2183 12.3589 13.2188C12.3591 13.219 12.3597 13.2195 12.3599 13.2197C12.3601 13.22 12.3606 13.2207 12.3608 13.221C12.361 13.2213 12.3612 13.2219 12.3613 13.2223C12.3625 13.2255 12.362 13.23 12.3589 13.2353C12.3294 13.2857 12.1999 13.2671 12.1999 13.2671V13.2319C12.1999 13.2319 12.2003 13.2319 12.2004 13.2319C12.2076 13.2324 12.279 13.2144 12.3244 13.2127L12.3244 13.2127ZM11.5617 13.3454C11.6016 13.3436 11.6364 13.3673 11.6729 13.3863C11.7542 13.3712 11.921 13.3981 11.921 13.3981V13.4651C11.921 13.4651 11.9207 13.4654 11.9206 13.4655C11.9205 13.4655 11.9202 13.4655 11.9201 13.4655C11.9049 13.4679 11.7094 13.4601 11.6657 13.435C11.6301 13.435 11.5293 13.3867 11.5215 13.3619C11.5214 13.3617 11.5211 13.3613 11.521 13.3611C11.521 13.3608 11.5211 13.3601 11.521 13.3598C11.521 13.3596 11.521 13.3591 11.521 13.3589C11.521 13.3587 11.521 13.3582 11.521 13.358C11.521 13.3579 11.521 13.3577 11.521 13.3576C11.5211 13.3574 11.5214 13.3569 11.5215 13.3567C11.5215 13.3566 11.5215 13.3564 11.5215 13.3563C11.5354 13.3495 11.549 13.346 11.5617 13.3454L11.5617 13.3454ZM12.4169 13.3785C12.4475 13.377 12.4605 13.3856 12.4365 13.4163C12.37 13.5019 12.198 13.4668 12.198 13.4668L12.1908 13.4137C12.2515 13.4159 12.3624 13.3811 12.4169 13.3785L12.4169 13.3785ZM11.774 13.5521C11.8435 13.5491 11.9191 13.5742 11.9191 13.5742C11.9209 13.5775 11.9565 13.6412 11.9249 13.6626C11.9237 13.6633 11.9224 13.6641 11.9211 13.6647C11.8822 13.6832 11.6967 13.6503 11.6858 13.5825C11.7077 13.5616 11.74 13.5535 11.774 13.5521H11.774ZM11.0568 13.5851C11.1204 13.5817 11.1915 13.6173 11.1996 13.6208C11.1997 13.6208 11.2 13.6208 11.2 13.6208C11.2 13.6228 11.1976 13.6852 11.1976 13.6852C11.1976 13.6852 11.0717 13.6533 11.0319 13.589C11.0399 13.5871 11.0484 13.5856 11.0568 13.5851H11.0568ZM12.2684 13.5938C12.3394 13.5934 12.4251 13.6086 12.4375 13.6304C12.4399 13.6348 12.4392 13.6398 12.4346 13.6447C12.3995 13.6833 12.1999 13.6482 12.1999 13.6482V13.6012C12.2176 13.5965 12.2421 13.594 12.2684 13.5938L12.2684 13.5938Z" fill="#007934"/>
<path d="M20 6L20 18L4 18L4 6L20 6ZM20 5L4 5C3.4 5 3 5.4 3 6L3 18C3 18.6 3.4 19 4 19L20 19C20.6 19 21 18.6 21 18L21 6C21 5.4 20.6 5 20 5Z" fill="#B5B5B5"/>
</svg>
