<svg width="24" height="24" viewBox="0 0 24 24" fill="none" xmlns="http://www.w3.org/2000/svg">
<path d="M20 6H4V18H20V6Z" fill="#0071BC"/>
<path d="M12.925 14.328C12.925 14.328 13.2071 14.0296 13.4783 14.0866C13.5597 13.7719 13.8662 13.7475 13.8662 13.7475C13.8662 13.7475 13.8364 13.4003 14.2297 13.3244C14.2406 13.0884 14.4793 12.8931 14.4793 12.8931C14.4793 12.8931 14.4305 12.5269 14.68 12.4428C14.5281 12.1525 14.7316 11.9409 14.7288 11.9355C14.7261 11.9301 14.4712 11.4771 14.699 11.3469C14.4576 11.1434 14.5363 10.9129 14.5363 10.9129C14.5363 10.9129 14.2731 10.8451 14.3681 10.5304C14.1511 10.4924 14.1077 10.1425 14.1077 10.1425C14.1077 10.1425 13.774 10.2103 13.7333 9.92007C13.5136 9.95533 13.4892 9.73832 13.4865 9.73832C13.4838 9.73832 13.0498 9.85496 12.9629 9.52674C12.7948 9.61355 12.7215 9.45893 12.7215 9.45893C12.7215 9.45893 12.4801 9.57828 12.3363 9.34771C12.0488 9.52674 11.8888 9.33957 11.8888 9.33957C11.8888 9.33957 11.5117 9.58913 11.3869 9.39654C11.1645 9.62168 10.9665 9.52403 10.9665 9.52403C10.9665 9.52403 10.7983 9.82241 10.527 9.74646C10.4647 10.0231 10.1527 10.0286 10.1527 10.0286C10.1527 10.0286 10.1853 10.2727 9.81092 10.3378C9.76209 10.6253 9.56679 10.6742 9.56679 10.6742C9.56679 10.6742 9.58577 10.9536 9.40946 11.0431C9.47185 11.2004 9.30909 11.393 9.30909 11.393C9.30909 11.393 9.4827 11.61 9.2467 11.8541C9.47456 11.9138 9.30909 12.3071 9.30909 12.3071C9.30909 12.3071 9.62375 12.4482 9.42573 12.7086C9.65088 12.7819 9.58035 12.9609 9.58306 13.0667C9.72683 13.1318 9.85432 13.0992 9.79193 13.3895C10.2341 13.4383 10.0252 13.6824 10.0252 13.6824C10.0252 13.6824 10.2314 13.6906 10.15 13.8533C10.527 13.8452 10.5813 14.1354 10.5813 14.1354C10.5813 14.1354 10.9312 14.0432 10.9773 14.1788C11.0234 14.3145 10.8254 15.2286 10.8254 15.2286C10.8254 15.2286 10.5298 15.2286 10.31 14.9926C9.79464 14.9791 9.90857 14.64 9.90043 14.64C9.8923 14.64 9.72954 14.7024 9.64545 14.4203C9.30095 14.4908 9.3118 14.2005 9.30909 14.1978C9.30638 14.1951 9.15447 14.1273 9.21144 13.9835C8.85609 14.0161 8.88321 13.6689 8.88321 13.6689C8.80545 13.6372 8.77652 13.5649 8.78827 13.4926C8.74216 13.4763 8.4275 13.4708 8.59025 13.0558C8.28915 12.8741 8.47632 12.6652 8.47632 12.6652C8.47632 12.6652 8.0613 12.4509 8.38138 12.2041C8.14268 11.8514 8.40037 11.6751 8.40037 11.6751C8.40037 11.6751 8.06944 11.3388 8.4058 11.1C8.35154 10.5901 8.65536 10.468 8.65536 10.468C8.65536 10.468 8.49531 10.053 8.92933 9.87938C8.95645 9.45893 9.26026 9.44808 9.26026 9.44808C9.26026 9.44808 9.2684 9.11443 9.74582 9.14698C9.83805 8.84859 10.1636 8.90827 10.1636 8.90827C10.1636 8.90827 10.2639 8.5475 10.7061 8.7211C10.9312 8.28166 11.2649 8.50681 11.2649 8.50681C11.2649 8.50681 11.4764 8.36846 11.5822 8.41186C11.7166 8.18101 12.0026 8.40292 12.1875 8.44759C12.2545 8.42153 12.4937 8.24097 12.6781 8.46883C12.9223 8.30879 13.1311 8.59632 13.1311 8.59632C13.1311 8.59632 13.4675 8.42543 13.6248 8.81604C14.3382 8.75094 14.2352 9.2175 14.2352 9.2175C14.2352 9.2175 14.7967 9.09001 14.6746 9.64881C15.1846 9.68407 15.133 10.0204 15.133 10.0204C15.133 10.0204 15.4558 10.2646 15.3148 10.4843C15.6023 10.4978 15.4965 10.7745 15.4965 10.7745C15.4965 10.7745 15.7162 10.8586 15.5345 11.2004C15.9549 11.5368 15.6159 11.8704 15.6132 11.8677C15.6104 11.865 15.8383 12.139 15.6321 12.4536C15.6945 12.9527 15.4423 13.0802 15.4423 13.0802C15.4423 13.0802 15.5074 13.403 15.2253 13.4953C15.2198 13.875 14.8618 13.9211 14.8618 13.9211C14.8618 13.9211 14.9567 14.0861 14.6014 14.2597C14.5873 14.5138 14.2162 14.5342 14.2162 14.5342C14.2162 14.5342 14.1809 15.0007 13.7089 14.876C13.5944 15.2503 13.0416 15.1391 13.0308 15.1337C13.0199 15.1282 12.925 14.3307 12.925 14.328Z" fill="white" stroke="black" stroke-width="0.03"/>
<path d="M13.5838 14.7188C13.5838 14.7188 13.5419 14.7993 13.7093 14.8701" stroke="black" stroke-width="0.03"/>
<path d="M13.9189 14.5318C13.9189 14.5318 14.1057 14.4867 14.2313 14.5318" stroke="black" stroke-width="0.03"/>
<path d="M14.4763 14.0586C14.4763 14.0618 14.4506 14.1423 14.5987 14.2582" stroke="black" stroke-width="0.03"/>
<path d="M14.582 13.8516C14.582 13.8516 14.6915 13.9321 14.8751 13.9288" stroke="black" stroke-width="0.03"/>
<path d="M13.478 14.0861C13.478 14.0861 13.4845 14.2986 13.375 14.3984" stroke="black" stroke-width="0.03"/>
<path d="M13.8447 13.7594C13.8447 13.7594 14.025 13.8045 14.1732 13.7305" stroke="black" stroke-width="0.03"/>
<path d="M15.001 13.4453C15.001 13.4453 15.0396 13.5 15.2393 13.4903" stroke="black" stroke-width="0.03"/>
<path d="M14.2217 13.3203C14.2281 13.3235 14.4568 13.3976 14.6017 13.33" stroke="black" stroke-width="0.03"/>
<path d="M14.6787 12.4454C14.6787 12.4454 14.6884 12.4325 14.7592 12.6805" stroke="black" stroke-width="0.03"/>
<path d="M14.8562 11.7461C14.8562 11.7461 14.8465 11.8781 14.7402 11.9361" stroke="black" stroke-width="0.03"/>
<path d="M15.5355 11.2031C15.5355 11.2031 15.3809 11.3287 15.4099 11.3802" stroke="black" stroke-width="0.03"/>
<path d="M14.7654 11.1133C14.7654 11.1133 14.8459 11.2485 14.7139 11.3419" stroke="black" stroke-width="0.03"/>
<path d="M14.376 10.5352C14.376 10.5352 14.5144 10.5288 14.5756 10.6479" stroke="black" stroke-width="0.03"/>
<path d="M14.6664 9.66016C14.6664 9.66338 14.6954 9.68914 14.6406 9.74388" stroke="black" stroke-width="0.03"/>
<path d="M13.6777 9.67188C13.6777 9.67188 13.7518 9.7878 13.7389 9.92949" stroke="black" stroke-width="0.03"/>
<path d="M14.1055 9.27833C14.1377 9.27511 14.2472 9.22681 14.2472 9.22681" stroke="black" stroke-width="0.03"/>
<path d="M13.6286 8.81641C13.6254 8.81641 13.5868 8.96131 13.6576 9.01284" stroke="black" stroke-width="0.03"/>
<path d="M13.4521 9.47656C13.4521 9.63113 13.5745 9.59249 13.4908 9.74061" stroke="black" stroke-width="0.03"/>
<path d="M13.1522 9.34766C13.149 9.34766 12.959 9.49578 12.959 9.52154" stroke="black" stroke-width="0.03"/>
<path d="M12.6562 9.26953C12.6562 9.26953 12.7368 9.35003 12.7174 9.45952" stroke="black" stroke-width="0.03"/>
<path d="M11.9936 9.17206C11.9903 9.1785 11.9259 9.31696 11.8809 9.34273" stroke="black" stroke-width="0.03"/>
<path d="M11.4077 9.17578C11.4109 9.17578 11.4721 9.30459 11.3916 9.39797" stroke="black" stroke-width="0.03"/>
<path d="M10.3643 9.71094C10.3675 9.71738 10.5285 9.74314 10.5285 9.74314" stroke="black" stroke-width="0.03"/>
<path d="M9.96094 10.0846C9.96416 10.0814 10.1574 10.0234 10.1574 10.0234" stroke="black" stroke-width="0.03"/>
<path d="M9.64941 10.3242C9.65585 10.3242 9.78466 10.3468 9.81685 10.3307" stroke="black" stroke-width="0.03"/>
<path d="M9.55859 10.4453C9.55859 10.4453 9.60046 10.4679 9.56503 10.6836" stroke="black" stroke-width="0.03"/>
<path d="M8.93066 9.87891L9.00795 9.99483" stroke="black" stroke-width="0.03"/>
<path d="M8.66699 10.4729C8.66699 10.4697 8.74428 10.5888 8.84733 10.6114" stroke="black" stroke-width="0.03"/>
<path d="M9.27539 11.0777C9.27861 11.0777 9.40098 11.0519 9.4203 11.0391" stroke="black" stroke-width="0.03"/>
<path d="M9.2207 11.5181C9.22392 11.5181 9.21748 11.4376 9.31731 11.3828" stroke="black" stroke-width="0.03"/>
<path d="M9.08887 11.7148C9.08887 11.7181 9.18225 11.834 9.24665 11.8501" stroke="black" stroke-width="0.03"/>
<path d="M9.03418 11.9395C9.04384 11.9363 9.14366 11.8494 9.25959 11.8558" stroke="black" stroke-width="0.03"/>
<path d="M9.00195 12.2383C9.00195 12.2383 9.00517 12.3381 9.30143 12.3123" stroke="black" stroke-width="0.03"/>
<path d="M9.03125 12.5901C9.03125 12.5869 9.11819 12.3905 9.2953 12.3164" stroke="black" stroke-width="0.03"/>
<path d="M9.26953 12.8409C9.26953 12.8409 9.29529 12.7572 9.44342 12.6992" stroke="black" stroke-width="0.03"/>
<path d="M9.43359 13.1701C9.43359 13.1701 9.53986 13.0832 9.5785 13.0703" stroke="black" stroke-width="0.03"/>
<path d="M9.56543 13.4272C9.56543 13.4272 9.62983 13.4948 9.79084 13.3789" stroke="black" stroke-width="0.03"/>
<path d="M8.78906 13.4838C8.80838 13.4806 9.04345 13.4259 9.12396 13.5482" stroke="black" stroke-width="0.03"/>
<path d="M8.88281 13.6766C8.88281 13.6766 9.13076 13.6444 9.16297 13.6701" stroke="black" stroke-width="0.03"/>
<path d="M9.76758 13.7286C9.76758 13.7286 9.73537 13.7962 10.0413 13.6835" stroke="black" stroke-width="0.03"/>
<path d="M10.1478 13.8516C10.0931 13.9449 10.1607 14.019 10.0898 14.0609" stroke="black" stroke-width="0.03"/>
<path d="M9.21777 13.979C9.22743 13.9726 9.33048 13.9372 9.31438 13.7891" stroke="black" stroke-width="0.03"/>
<path d="M9.31055 14.2019C9.32343 14.1987 9.4941 14.1246 9.52952 14.1632" stroke="black" stroke-width="0.03"/>
<path d="M9.64551 14.4174C9.64551 14.4174 9.66805 14.2661 9.71635 14.25" stroke="black" stroke-width="0.03"/>
<path d="M9.90332 14.646C9.90332 14.646 10.045 14.6427 10.1062 14.5977" stroke="black" stroke-width="0.03"/>
<path d="M10.1768 14.1328C10.18 14.136 10.3088 14.2037 10.5825 14.136" stroke="black" stroke-width="0.03"/>
<path d="M10.2803 14.75C10.2803 14.75 10.3189 14.9464 10.3157 14.9915" stroke="black" stroke-width="0.03"/>
<path d="M14.1152 10.1408L14.2215 10.1406" stroke="black" stroke-width="0.03"/>
<path d="M12.4218 9.20312C12.4218 9.20312 12.3799 9.32549 12.3252 9.35769" stroke="black" stroke-width="0.03"/>
<path d="M11.2719 8.50781C11.2752 8.51103 11.2848 8.60763 11.2236 8.69136" stroke="black" stroke-width="0.03"/>
<path d="M10.6928 8.72656C10.6928 8.72978 10.7185 8.83605 10.5479 8.87147" stroke="black" stroke-width="0.03"/>
<path fill-rule="evenodd" clip-rule="evenodd" d="M12.9874 14.7761C12.9874 14.7761 14.5958 14.3218 15.0816 12.3477C14.7996 14.3741 13.0395 15.0163 13.0395 15.0163L12.9873 14.7761L12.9874 14.7761Z" fill="#F7DF73" stroke="black" stroke-width="0.03" stroke-linejoin="round"/>
<path fill-rule="evenodd" clip-rule="evenodd" d="M10.8788 14.7339C10.8788 14.7339 9.28496 14.2714 8.80371 12.2617C9.08313 14.3244 10.8271 14.9784 10.8271 14.9784L10.8788 14.7338L10.8788 14.7339Z" fill="#F7DF73" stroke="black" stroke-width="0.03" stroke-linejoin="round"/>
<path d="M13.1519 14.8971C13.2016 14.8971 13.3246 14.761 13.3953 14.7453C13.4659 14.7296 13.4738 14.6589 13.3926 14.6563C13.3115 14.6537 13.2409 14.7479 13.2409 14.7479C13.2409 14.7479 13.1702 14.8081 13.0969 14.8159C13.0237 14.8238 13.0708 14.9154 13.1519 14.8971H13.1519Z" fill="#8C1800"/>
<path d="M13.4948 14.6468C13.4948 14.6468 13.4451 14.6285 13.5733 14.5787C13.7016 14.529 13.6937 14.4715 13.7356 14.4479C13.7774 14.4244 13.8664 14.3615 13.8847 14.3982C13.9031 14.4348 13.7905 14.5081 13.7644 14.5159C13.7382 14.5238 13.61 14.6415 13.5733 14.652C13.5367 14.6625 13.5105 14.6573 13.4948 14.6468H13.4948Z" fill="#8C1800"/>
<path d="M10.7152 14.8584C10.6659 14.8584 10.5441 14.7199 10.4741 14.7039C10.4041 14.6879 10.3963 14.616 10.4767 14.6133C10.557 14.6107 10.627 14.7066 10.627 14.7066C10.627 14.7066 10.697 14.7678 10.7696 14.7758C10.8422 14.7838 10.7956 14.8771 10.7152 14.8584L10.7152 14.8584Z" fill="#8C1800"/>
<path d="M10.3756 14.6004C10.3756 14.6004 10.4249 14.5818 10.2978 14.5312C10.1708 14.4806 10.1786 14.4219 10.1371 14.398C10.0956 14.374 10.0074 14.3101 9.98929 14.3474C9.97114 14.3847 10.0826 14.4592 10.1086 14.4672C10.1345 14.4752 10.2615 14.5951 10.2978 14.6058C10.3341 14.6164 10.3601 14.6111 10.3756 14.6004L10.3756 14.6004Z" fill="#8C1800"/>
<path d="M14.0778 14.2087C14.0778 14.2087 13.9104 14.3055 13.9339 14.329C13.9575 14.3526 14.1066 14.2374 14.1092 14.2348C14.1119 14.2322 14.172 14.1589 14.0778 14.2087H14.0778Z" fill="#8C1800" stroke="#8C1800" stroke-width="0.03"/>
<path d="M9.79737 14.1543C9.79737 14.1543 9.9633 14.2528 9.93997 14.2768C9.91664 14.3008 9.76885 14.1836 9.76626 14.1809C9.76367 14.1783 9.70403 14.1037 9.79737 14.1543L9.79737 14.1543Z" fill="#8C1800" stroke="#8C1800" stroke-width="0.03"/>
<path d="M14.3267 13.9609C14.2168 14.0839 14.2168 14.0813 14.2168 14.0813" stroke="#8C1800" stroke-width="0.03" stroke-linecap="round"/>
<path d="M14.4914 13.7617L14.3867 13.8899" stroke="#8C1800" stroke-width="0.03" stroke-linecap="round"/>
<path d="M14.6568 13.5L14.5391 13.6884" stroke="#8C1800" stroke-width="0.03" stroke-linecap="round"/>
<path d="M14.796 13.2305L14.6992 13.4241" stroke="#8C1800" stroke-width="0.03" stroke-linecap="round"/>
<path d="M14.8585 13.0898L14.8271 13.1579" stroke="#8C1800" stroke-width="0.03" stroke-linecap="round"/>
<path d="M14.9285 12.9062L14.9023 12.9874" stroke="#8C1800" stroke-width="0.03" stroke-linecap="round"/>
<path d="M9.55176 13.9023C9.66066 14.0275 9.66066 14.0249 9.66066 14.0249" stroke="#8C1800" stroke-width="0.03" stroke-linecap="round"/>
<path d="M9.3877 13.6992L9.49141 13.8297" stroke="#8C1800" stroke-width="0.03" stroke-linecap="round"/>
<path d="M9.22461 13.4336L9.34129 13.6254" stroke="#8C1800" stroke-width="0.03" stroke-linecap="round"/>
<path d="M9.08691 13.1602L9.18285 13.3573" stroke="#8C1800" stroke-width="0.03" stroke-linecap="round"/>
<path d="M9.02539 13.0156L9.0565 13.0849" stroke="#8C1800" stroke-width="0.03" stroke-linecap="round"/>
<path d="M8.95508 12.8281L8.98101 12.9107" stroke="#8C1800" stroke-width="0.03" stroke-linecap="round"/>
<path d="M9.49705 9.85162C9.49843 9.85162 9.61668 9.95418 9.59459 10.1087C9.57251 10.2633 9.48325 10.4782 9.50119 10.6383C9.51216 10.7024 9.508 10.8174 9.508 10.8174C9.508 10.8174 9.40081 10.6651 9.39943 10.5023C9.39805 10.3394 9.5155 10.1848 9.5155 10.0647C9.5155 9.94466 9.49429 9.84885 9.49705 9.85162H9.49705Z" fill="#217900" stroke="black" stroke-width="0.03" stroke-linejoin="round"/>
<path d="M9.43849 9.89844C9.43849 9.89844 9.28333 10.0466 9.26334 10.1905C9.24859 10.2647 9.24286 10.6105 9.24112 10.7639C9.23763 10.811 9.21812 10.9969 9.21397 11.0645C9.20983 11.1321 9.32812 10.9491 9.33488 10.8C9.33118 10.6457 9.33117 10.3208 9.34686 10.2719C9.36081 10.2092 9.35777 10.1398 9.37936 10.0768C9.40791 9.98946 9.43988 9.89981 9.4385 9.89844H9.43849Z" fill="#217900" stroke="black" stroke-width="0.03" stroke-linejoin="round"/>
<path d="M8.42248 10.8828C8.42248 10.8828 8.52766 11.0285 8.54654 11.1121C8.56542 11.1957 8.60048 11.3602 8.64633 11.4276C8.69218 11.495 8.95378 11.8699 8.96727 12.0263C8.96997 12.1288 8.85939 12.3041 8.69487 12.3068C8.59238 12.3041 8.32809 12.2367 8.31729 12.0102C8.3065 11.7836 8.3982 11.7782 8.40898 11.6407C8.41977 11.5031 8.42247 10.8855 8.42247 10.8828H8.42248Z" stroke="#6B18B5" stroke-width="0.03" stroke-linejoin="round"/>
<path d="M10.2297 8.90237C10.2297 8.90237 10.1208 8.91013 10.037 8.95558C9.97203 8.99564 9.862 9.05327 9.78511 9.15989C9.58954 9.31235 9.29531 9.38349 9.20251 9.51014C9.14697 9.59631 9.15038 9.80355 9.28956 9.89131C9.37853 9.94225 9.6394 10.0219 9.76631 9.83398C9.89322 9.64601 9.81767 9.59375 9.87991 9.47062C9.9826 9.18836 10.2283 8.90466 10.2297 8.90234L10.2297 8.90237Z" stroke="#6B18B5" stroke-width="0.03" stroke-linejoin="round"/>
<path d="M12.8714 8.62555C12.8714 8.62555 12.79 8.55272 12.6991 8.52411C12.6251 8.50531 12.5019 8.51349 12.3745 8.50098C12.1289 8.46654 11.8757 8.28893 11.7202 8.31039C11.6197 8.33042 11.4731 8.47704 11.5069 8.63808C11.5322 8.73743 11.6433 8.93837 11.8666 8.89879C12.09 8.8592 12.088 8.81049 12.2198 8.76954C12.5411 8.58935 12.8687 8.62616 12.8714 8.62556L12.8714 8.62555Z" stroke="#6B18B5" stroke-width="0.03" stroke-linejoin="round"/>
<path d="M15.4911 11.1733C15.5095 11.1313 15.4757 11.0526 15.4517 10.9603C15.4284 10.8876 15.3937 10.7748 15.3087 10.6746C15.2076 10.4481 15.2249 10.1375 15.1243 10.017C15.054 9.94243 14.852 9.89598 14.7333 10.01C14.6625 10.0841 14.5225 10.3182 14.6745 10.4866C14.8265 10.6549 14.8927 10.5915 14.9973 10.6815C15.2467 10.8489 15.3688 11.1425 15.4911 11.1732L15.4911 11.1733Z" stroke="#6B18B5" stroke-width="0.03" stroke-linejoin="round"/>
<path d="M15.4009 13.1499C15.435 13.1028 15.4959 13.0119 15.4887 12.9363C15.483 12.8764 15.5162 12.6947 15.5198 12.6154C15.5423 12.3685 15.6969 12.168 15.6549 11.9535C15.63 11.854 15.4843 11.7121 15.3251 11.7536C15.2271 11.7837 15.0089 11.9038 15.0592 12.1249C15.1095 12.3461 15.181 12.3424 15.2282 12.472C15.3639 12.74 15.2771 13.0583 15.4009 13.1499H15.4009Z" stroke="#6B18B5" stroke-width="0.03" stroke-linejoin="round"/>
<path d="M11.8684 8.43028C11.8685 8.39544 11.8293 8.36719 11.7809 8.36719C11.7325 8.36719 11.6933 8.39544 11.6934 8.43028C11.6933 8.46513 11.7325 8.49338 11.7809 8.49338C11.8293 8.49338 11.8685 8.46513 11.8684 8.43028Z" fill="#6B18B5"/>
<path d="M11.9058 8.57613C11.9058 8.54271 11.8655 8.51562 11.8157 8.51562C11.7659 8.51562 11.7256 8.54271 11.7256 8.57613C11.7256 8.60955 11.7659 8.63664 11.8157 8.63664C11.8655 8.63664 11.9058 8.60955 11.9058 8.57613Z" fill="#6B18B5"/>
<path d="M12.018 8.40234C12.018 8.40234 11.9151 8.47959 11.9575 8.51048C12 8.54138 12.1172 8.44354 12.1172 8.44354L12.018 8.40234Z" fill="#6B18B5"/>
<path d="M15.0446 10.1709C15.0446 10.1489 15.0343 10.1286 15.0176 10.1176C15.0009 10.1066 14.9802 10.1066 14.9635 10.1176C14.9468 10.1286 14.9365 10.1489 14.9365 10.1709C14.9365 10.1928 14.9468 10.2131 14.9635 10.2241C14.9802 10.2351 15.0009 10.2351 15.0176 10.2241C15.0343 10.2131 15.0446 10.1928 15.0446 10.1709Z" fill="#6B18B5"/>
<path d="M15.0055 10.0233C15.0055 9.98672 14.9803 9.95703 14.9491 9.95703C14.9179 9.95703 14.8926 9.98672 14.8926 10.0233C14.8926 10.06 14.9179 10.0896 14.9491 10.0896C14.9803 10.0896 15.0055 10.06 15.0055 10.0233Z" fill="#6B18B5"/>
<path d="M15.0325 10.3234C15.0325 10.3045 15.0226 10.2891 15.0104 10.2891C14.9982 10.2891 14.9883 10.3045 14.9883 10.3234C14.9883 10.3424 14.9982 10.3578 15.0104 10.3578C15.0226 10.3578 15.0325 10.3424 15.0325 10.3234Z" fill="#6B18B5"/>
<path d="M15.1233 10.0549C15.1233 10.0332 15.1134 10.0156 15.1012 10.0156C15.089 10.0156 15.0791 10.0332 15.0791 10.0549C15.0791 10.0766 15.089 10.0942 15.1012 10.0942C15.1134 10.0942 15.1233 10.0766 15.1233 10.0549Z" fill="#6B18B5"/>
<path d="M14.8753 10.0827C14.8753 10.0651 14.8654 10.0508 14.8532 10.0508C14.841 10.0508 14.8311 10.0651 14.8311 10.0827C14.8311 10.1003 14.841 10.1146 14.8532 10.1146C14.8654 10.1146 14.8753 10.1003 14.8753 10.0827Z" fill="#6B18B5"/>
<path d="M14.9146 10.2938C14.9146 10.2653 14.8937 10.2422 14.8679 10.2422C14.8422 10.2422 14.8213 10.2653 14.8213 10.2938C14.8213 10.3223 14.8422 10.3454 14.8679 10.3454C14.8937 10.3454 14.9146 10.3223 14.9146 10.2938Z" fill="#6B18B5"/>
<path d="M14.7915 10.2005C14.7915 10.176 14.7739 10.1562 14.7522 10.1562C14.7305 10.1562 14.7129 10.176 14.7129 10.2005C14.7129 10.2249 14.7305 10.2447 14.7522 10.2447C14.7739 10.2447 14.7915 10.2249 14.7915 10.2005Z" fill="#6B18B5"/>
<path d="M14.7729 10.0761C14.7729 10.0629 14.7663 10.0507 14.7557 10.0441C14.745 10.0375 14.7319 10.0375 14.7213 10.0441C14.7106 10.0507 14.7041 10.0629 14.7041 10.0761C14.7041 10.0892 14.7106 10.1014 14.7213 10.108C14.7319 10.1146 14.745 10.1146 14.7557 10.108C14.7663 10.1014 14.7729 10.0892 14.7729 10.0761Z" fill="#6B18B5"/>
<path d="M15.3321 10.7128C15.2813 10.6459 15.2001 10.6177 15.1507 10.6498C15.1012 10.682 15.1023 10.7623 15.153 10.8293C15.2037 10.8962 15.2849 10.9244 15.3344 10.8923C15.3838 10.8601 15.3828 10.7798 15.3321 10.7128H15.3321Z" fill="#6B18B5"/>
<path d="M15.4768 11.9473C15.4866 11.8652 15.4466 11.7928 15.3873 11.7857C15.3281 11.7786 15.2721 11.8395 15.2622 11.9216C15.2524 12.0038 15.2925 12.0761 15.3517 12.0832C15.411 12.0903 15.467 12.0295 15.4768 11.9473Z" fill="#6B18B5"/>
<path d="M15.5069 12.6665C15.5238 12.5855 15.4902 12.5099 15.4317 12.4978C15.3733 12.4856 15.3123 12.5414 15.2954 12.6224C15.2785 12.7034 15.3122 12.7789 15.3706 12.7911C15.429 12.8032 15.4901 12.7475 15.5069 12.6665H15.5069Z" fill="#6B18B5"/>
<path d="M15.6451 11.9925C15.6451 11.96 15.6231 11.9336 15.596 11.9336C15.5689 11.9336 15.5469 11.96 15.5469 11.9925C15.5469 12.0251 15.5689 12.0515 15.596 12.0515C15.6231 12.0515 15.6451 12.0251 15.6451 11.9925Z" fill="#6B18B5"/>
<path d="M15.5255 12.1299L15.4248 12.2441C15.4248 12.2441 15.3302 12.2466 15.3351 12.2773C15.3401 12.308 15.4653 12.4001 15.4641 12.4369C15.4629 12.4738 15.5476 12.4283 15.5476 12.4283C15.5476 12.4283 15.6151 12.2233 15.6151 12.222C15.6151 12.2208 15.6114 12.0796 15.5746 12.0821C15.5378 12.0845 15.5278 12.1273 15.5255 12.13V12.1299Z" fill="#6B18B5"/>
<path d="M8.90249 12.0831C8.90249 12.0566 8.88103 12.0352 8.85456 12.0352C8.8281 12.0352 8.80664 12.0566 8.80664 12.0831C8.80664 12.1095 8.8281 12.131 8.85456 12.131C8.88103 12.131 8.90249 12.1095 8.90249 12.0831Z" fill="#6B18B5"/>
<path d="M8.94741 11.9375C8.94741 11.9095 8.92595 11.8869 8.89948 11.8869C8.87302 11.8869 8.85156 11.9095 8.85156 11.9375C8.85156 11.9654 8.87302 11.9881 8.89948 11.9881C8.92595 11.9881 8.94741 11.9654 8.94741 11.9375Z" fill="#6B18B5"/>
<path d="M8.554 11.241C8.53602 11.2007 8.49859 11.1783 8.47039 11.1909C8.4422 11.2035 8.43391 11.2463 8.45188 11.2866C8.46985 11.3269 8.50728 11.3493 8.53548 11.3368C8.56368 11.3242 8.57197 11.2813 8.554 11.241Z" fill="#6B18B5"/>
<path d="M8.67285 11.6749C8.64816 11.6227 8.59675 11.5936 8.55801 11.6099C8.51927 11.6262 8.50789 11.6818 8.53258 11.734C8.55727 11.7862 8.60868 11.8153 8.64742 11.799C8.68616 11.7827 8.69754 11.7272 8.67285 11.6749Z" fill="#6B18B5"/>
<path d="M8.79952 11.9942C8.80752 11.929 8.7805 11.8691 8.73916 11.8604C8.69783 11.8517 8.65784 11.8976 8.64984 11.9628C8.64184 12.028 8.66886 12.0879 8.7102 12.0966C8.75153 12.1053 8.79152 12.0594 8.79952 11.9942Z" fill="#6B18B5"/>
<path d="M8.59595 12.0376C8.62151 11.9771 8.61194 11.9121 8.57457 11.8924C8.5372 11.8727 8.48618 11.9058 8.46061 11.9664C8.43505 12.0269 8.44462 12.0919 8.48199 12.1116C8.51936 12.1313 8.57038 12.0981 8.59595 12.0376Z" fill="#6B18B5"/>
<path d="M8.50298 11.9036C8.50298 11.8727 8.47914 11.8477 8.44973 11.8477C8.42032 11.8477 8.39648 11.8727 8.39648 11.9036C8.39648 11.9344 8.42032 11.9595 8.44973 11.9595C8.47914 11.9595 8.50298 11.9344 8.50298 11.9036Z" fill="#6B18B5"/>
<path d="M8.4601 11.7654C8.4601 11.7375 8.43865 11.7148 8.41218 11.7148C8.38571 11.7148 8.36426 11.7375 8.36426 11.7654C8.36426 11.7934 8.38571 11.816 8.41218 11.816C8.43865 11.816 8.4601 11.7934 8.4601 11.7654Z" fill="#6B18B5"/>
<path d="M8.50529 11.4993C8.50529 11.4522 8.48443 11.4141 8.4587 11.4141C8.43297 11.4141 8.41211 11.4522 8.41211 11.4993C8.41211 11.5463 8.43297 11.5845 8.4587 11.5845C8.48443 11.5845 8.50529 11.5463 8.50529 11.4993Z" fill="#6B18B5"/>
<path d="M8.64841 11.4777C8.65462 11.431 8.63898 11.3905 8.61347 11.3871C8.58796 11.3837 8.56225 11.4187 8.55605 11.4654C8.54984 11.512 8.56548 11.5526 8.59099 11.556C8.6165 11.5594 8.64221 11.5243 8.64841 11.4777Z" fill="#6B18B5"/>
<path d="M9.67034 9.44076C9.68933 9.3747 9.66974 9.30832 9.6266 9.29248C9.58345 9.27664 9.53308 9.31735 9.51409 9.38341C9.4951 9.44946 9.51468 9.51585 9.55783 9.53168C9.60098 9.54752 9.65135 9.50681 9.67034 9.44076Z" fill="#6B18B5"/>
<path d="M9.47622 9.73172C9.53313 9.68329 9.55744 9.61633 9.53052 9.58215C9.5036 9.54797 9.43565 9.55952 9.37875 9.60795C9.32184 9.65638 9.29753 9.72335 9.32445 9.75753C9.35137 9.79171 9.41932 9.78015 9.47622 9.73172Z" fill="#6B18B5"/>
<path d="M9.36309 9.57106C9.41936 9.52948 9.4434 9.47199 9.41678 9.44265C9.39016 9.41331 9.32297 9.42322 9.26669 9.4648C9.21042 9.50638 9.18638 9.56387 9.213 9.59321C9.23962 9.62255 9.30681 9.61263 9.36309 9.57106Z" fill="#6B18B5"/>
<path d="M9.79896 9.28496C9.83691 9.25595 9.85312 9.21583 9.83517 9.19536C9.81722 9.17489 9.7719 9.18181 9.73396 9.21082C9.69601 9.23983 9.6798 9.27994 9.69775 9.30041C9.7157 9.32089 9.76101 9.31397 9.79896 9.28496Z" fill="#6B18B5"/>
<path d="M9.57169 9.56148C9.59764 9.52138 9.59939 9.47815 9.57559 9.46493C9.55179 9.4517 9.51146 9.47349 9.48551 9.51359C9.45956 9.55369 9.45781 9.59693 9.48161 9.61015C9.50541 9.62337 9.54574 9.60159 9.57169 9.56148Z" fill="#6B18B5"/>
<path d="M9.89998 9.39057C9.94079 9.35618 9.95669 9.31062 9.9355 9.28882C9.9143 9.26701 9.86404 9.27721 9.82322 9.31161C9.78241 9.346 9.76651 9.39156 9.78771 9.41336C9.8089 9.43517 9.85917 9.42497 9.89998 9.39057Z" fill="#6B18B5"/>
<path d="M9.3074 9.78909C9.34554 9.78718 9.37434 9.76818 9.37172 9.74664C9.36909 9.7251 9.33604 9.70919 9.29788 9.71109C9.25974 9.713 9.23094 9.732 9.23356 9.75354C9.23619 9.77507 9.26924 9.79099 9.30739 9.78909L9.3074 9.78909Z" fill="#6B18B5"/>
<path d="M10.0248 9.17855C10.0508 9.13845 10.0525 9.09522 10.0287 9.08199C10.0049 9.06877 9.96458 9.09056 9.93863 9.13066C9.91268 9.17076 9.91094 9.21399 9.93474 9.22721C9.95854 9.24044 9.99887 9.21865 10.0248 9.17855Z" fill="#6B18B5"/>
<path d="M12.8517 9.41329C12.8517 9.41329 13.0529 9.32048 13.1104 9.14764C13.1679 8.97481 12.9363 8.97314 12.9057 9.02807C12.8751 9.08301 12.9318 9.2198 12.9171 9.25596C12.9025 9.29212 12.8207 9.37942 12.8517 9.41328L12.8517 9.41329Z" fill="#FFD200" stroke="#EF8A10" stroke-width="0.03"/>
<path d="M11.069 9.47468C11.069 9.47468 11.1996 9.2957 11.1657 9.11673C11.1319 8.93775 10.9287 9.04901 10.9287 9.11189C10.9287 9.17478 11.0448 9.26668 11.0496 9.30538C11.0545 9.34408 11.0255 9.46017 11.069 9.47468L11.069 9.47468Z" fill="#FFD200" stroke="#EF8A10" stroke-width="0.03"/>
<path d="M10.7155 9.58009C10.7155 9.58009 10.8461 9.40111 10.8122 9.22214C10.7784 9.04316 10.5752 9.15441 10.5752 9.2173C10.5752 9.28018 10.6913 9.37209 10.6961 9.41079C10.701 9.44948 10.6719 9.56558 10.7155 9.58008V9.58009Z" fill="#FFD200" stroke="#EF8A10" stroke-width="0.03"/>
<path d="M10.3239 9.70118C10.3239 9.70118 10.4545 9.52221 10.4206 9.34323C10.3868 9.16425 10.1836 9.27551 10.1836 9.33839C10.1836 9.40128 10.2997 9.49319 10.3045 9.53188C10.3094 9.57058 10.2803 9.68667 10.3239 9.70118L10.3239 9.70118Z" fill="#FFD200" stroke="#EF8A10" stroke-width="0.03"/>
<path d="M10.0485 9.97853C10.0485 9.97853 10.1791 9.79955 10.1452 9.62057C10.1114 9.4416 9.9082 9.55285 9.9082 9.61574C9.9082 9.67862 10.0243 9.77053 10.0291 9.80922C10.034 9.84792 10.0049 9.96401 10.0485 9.97852V9.97853Z" fill="#FFD200" stroke="#EF8A10" stroke-width="0.03"/>
<path d="M9.75844 10.2442C9.75844 10.2442 9.88905 10.0652 9.85519 9.8862C9.82133 9.70722 9.61816 9.81848 9.61816 9.88136C9.61816 9.94425 9.73426 10.0362 9.7391 10.0748C9.74393 10.1135 9.71491 10.2296 9.75844 10.2441V10.2442Z" fill="#FFD200" stroke="#EF8A10" stroke-width="0.03"/>
<path d="M10.4256 8.69531C10.4256 8.69531 10.2516 8.83257 10.2361 9.01406C10.2206 9.19555 10.4462 9.14303 10.4631 9.08247C10.48 9.0219 10.3929 8.90216 10.3987 8.86359C10.4044 8.82501 10.4636 8.721 10.4256 8.69531L10.4256 8.69531Z" fill="#FFD200" stroke="#EF8A10" stroke-width="0.03"/>
<path d="M11.0056 8.51562C11.0056 8.51562 10.8317 8.65289 10.8162 8.83438C10.8007 9.01587 11.0263 8.96335 11.0432 8.90278C11.0601 8.84221 10.973 8.72247 10.9787 8.6839C10.9845 8.64533 11.0437 8.54131 11.0056 8.51563L11.0056 8.51562Z" fill="#FFD200" stroke="#EF8A10" stroke-width="0.03"/>
<path d="M8.84278 10.081C8.84278 10.081 8.87952 10.2995 9.0312 10.4003C9.18288 10.5012 9.24528 10.2781 9.2003 10.2342C9.15532 10.1902 9.00845 10.209 8.97739 10.1854C8.94633 10.1619 8.88358 10.06 8.84277 10.081L8.84278 10.081Z" fill="#FFD200" stroke="#EF8A10" stroke-width="0.03"/>
<path d="M8.55273 10.8255C8.55273 10.8255 8.55453 11.047 8.6884 11.1706C8.82226 11.2941 8.91908 11.0837 8.88161 11.0332C8.84413 10.9827 8.69614 10.9781 8.66918 10.9499C8.64223 10.9217 8.59635 10.8112 8.55274 10.8255L8.55273 10.8255Z" fill="#FFD200" stroke="#EF8A10" stroke-width="0.03"/>
<path d="M9.22165 11.652C9.22165 11.652 9.14257 11.4451 8.97398 11.3761C8.80541 11.3071 8.78818 11.5381 8.84094 11.5723C8.89369 11.6065 9.03398 11.5591 9.06908 11.5761C9.10418 11.5931 9.18578 11.6807 9.22165 11.652L9.22165 11.652Z" fill="#FFD200" stroke="#EF8A10" stroke-width="0.03"/>
<path d="M9.08241 11.2949C9.08241 11.2949 9.21648 11.1185 9.18611 10.9389C9.15574 10.7593 8.95044 10.8666 8.94923 10.9295C8.94801 10.9923 9.06229 11.0865 9.06637 11.1253C9.07045 11.1641 9.03918 11.2796 9.08242 11.2949L9.08241 11.2949Z" fill="#FFD200" stroke="#EF8A10" stroke-width="0.03"/>
<path d="M13.2628 9.58907C13.2628 9.58907 13.464 9.49626 13.5215 9.32342C13.579 9.15059 13.3474 9.14892 13.3168 9.20386C13.2862 9.25879 13.3429 9.39558 13.3283 9.43174C13.3137 9.4679 13.2318 9.5552 13.2628 9.58907L13.2628 9.58907Z" fill="#FFD200" stroke="#EF8A10" stroke-width="0.03"/>
<path d="M13.8713 9.89557C13.8713 9.89557 13.9897 9.70826 13.9439 9.53195C13.8982 9.35565 13.7029 9.48023 13.7071 9.54298C13.7113 9.60572 13.8333 9.68966 13.8407 9.72795C13.8481 9.76624 13.8269 9.88402 13.8713 9.89558L13.8713 9.89557Z" fill="#FFD200" stroke="#EF8A10" stroke-width="0.03"/>
<path d="M15.5324 11.6165C15.5324 11.6165 15.453 11.4096 15.2844 11.3408C15.1157 11.2721 15.0988 11.5031 15.1516 11.5372C15.2044 11.5714 15.3446 11.5238 15.3797 11.5408C15.4149 11.5577 15.4966 11.6451 15.5324 11.6165V11.6165Z" fill="#FFD200" stroke="#EF8A10" stroke-width="0.03"/>
<path d="M14.7197 11.7478C14.7197 11.7478 14.7243 11.5263 14.8597 11.4045C14.9952 11.2826 15.0893 11.4942 15.0512 11.5443C15.0131 11.5943 14.865 11.597 14.8377 11.6249C14.8104 11.6527 14.7632 11.7626 14.7197 11.7478H14.7197Z" fill="#FFD200" stroke="#EF8A10" stroke-width="0.03"/>
<path d="M14.5896 9.39787C14.5896 9.39787 14.3825 9.3192 14.2188 9.39914C14.0551 9.47909 14.2161 9.64564 14.2767 9.62902C14.3374 9.6124 14.3954 9.47616 14.4314 9.46126C14.4675 9.44637 14.5871 9.44369 14.5896 9.39786L14.5896 9.39787Z" fill="#FFD200" stroke="#EF8A10" stroke-width="0.03"/>
<path d="M14.116 8.99944C14.116 8.99944 13.9088 8.92076 13.7452 9.00071C13.5815 9.08066 13.7425 9.2472 13.8031 9.23058C13.8638 9.21396 13.9217 9.07772 13.9578 9.06282C13.9938 9.04793 14.1135 9.04526 14.1159 8.99943L14.116 8.99944Z" fill="#FFD200" stroke="#EF8A10" stroke-width="0.03"/>
<path d="M13.4082 8.6211C13.4082 8.6211 13.2326 8.75622 13.2149 8.9375C13.1971 9.11879 13.4233 9.06904 13.441 9.00868C13.4586 8.94832 13.373 8.82753 13.3792 8.78901C13.3855 8.75051 13.4459 8.64724 13.4082 8.62109L13.4082 8.6211Z" fill="#FFD200" stroke="#EF8A10" stroke-width="0.03"/>
<path d="M12.9481 8.51172C12.9481 8.51172 12.868 8.71831 12.9468 8.88252C13.0257 9.04673 13.1933 8.88689 13.1771 8.82612C13.1609 8.76536 13.025 8.70647 13.0104 8.67032C12.9957 8.63418 12.9939 8.51453 12.9481 8.51173L12.9481 8.51172Z" fill="#FFD200" stroke="#EF8A10" stroke-width="0.03"/>
<path d="M11.6431 9.30594C11.6431 9.30594 11.7863 9.1369 11.7655 8.95594C11.7447 8.77498 11.534 8.87122 11.5294 8.93395C11.5249 8.99667 11.634 9.09673 11.636 9.13569C11.6381 9.17464 11.6007 9.28832 11.6431 9.30595L11.6431 9.30594Z" fill="#FFD200" stroke="#EF8A10" stroke-width="0.03"/>
<path d="M15.2258 11.7286C15.2178 11.6638 15.1865 11.6069 15.1439 11.5793C15.1013 11.5517 15.0538 11.5577 15.0193 11.5949C14.9848 11.6321 14.9685 11.695 14.9767 11.7598C14.9847 11.8246 15.0159 11.8815 15.0586 11.9091C15.1012 11.9367 15.1487 11.9307 15.1832 11.8935C15.2177 11.8563 15.2339 11.7934 15.2258 11.7286L15.2258 11.7286Z" fill="#DE2010" stroke="black" stroke-width="0.03"/>
<path d="M15.1994 11.4006C15.1914 11.3358 15.1602 11.2789 15.1176 11.2513C15.0749 11.2237 15.0274 11.2297 14.9929 11.2669C14.9584 11.3041 14.9422 11.367 14.9503 11.4318C14.9584 11.4965 14.9896 11.5535 15.0322 11.5811C15.0748 11.6087 15.1223 11.6027 15.1568 11.5655C15.1913 11.5283 15.2076 11.4654 15.1994 11.4006H15.1994Z" fill="#DE2010" stroke="black" stroke-width="0.03"/>
<path d="M15.1322 11.0524C15.1185 10.9886 15.0824 10.9346 15.0375 10.9109C14.9927 10.8871 14.9459 10.8972 14.9147 10.9373C14.8836 10.9775 14.873 11.0415 14.8868 11.1053C14.9005 11.1691 14.9366 11.2231 14.9815 11.2468C15.0263 11.2706 15.0732 11.2605 15.1043 11.2204C15.1354 11.1802 15.146 11.1162 15.1322 11.0524H15.1322Z" fill="#DE2010" stroke="black" stroke-width="0.03"/>
<path d="M15.0119 10.6858C14.9824 10.6276 14.9337 10.5846 14.8843 10.5731C14.8348 10.5616 14.7921 10.5833 14.7723 10.63C14.7524 10.6767 14.7585 10.7414 14.7881 10.7996C14.8176 10.8578 14.8663 10.9008 14.9157 10.9123C14.9652 10.9238 15.0079 10.9021 15.0277 10.8554C15.0476 10.8087 15.0415 10.744 15.0119 10.6858Z" fill="#DE2010" stroke="black" stroke-width="0.03"/>
<path d="M14.882 10.3929C14.8525 10.3346 14.8038 10.2917 14.7544 10.2801C14.705 10.2686 14.6623 10.2903 14.6424 10.337C14.6226 10.3838 14.6286 10.4484 14.6582 10.5066C14.6877 10.5648 14.7364 10.6078 14.7858 10.6193C14.8353 10.6308 14.878 10.6091 14.8978 10.5624C14.9177 10.5157 14.9116 10.451 14.882 10.3929Z" fill="#DE2010" stroke="black" stroke-width="0.03"/>
<path d="M14.6977 10.0986C14.6634 10.0431 14.6113 10.0044 14.561 9.99709C14.5108 9.9898 14.4701 10.015 14.4543 10.0633C14.4384 10.1115 14.4499 10.1754 14.4843 10.2309C14.5187 10.2864 14.5708 10.3251 14.6211 10.3324C14.6713 10.3397 14.712 10.3144 14.7278 10.2662C14.7436 10.218 14.7322 10.1541 14.6977 10.0986Z" fill="#DE2010" stroke="black" stroke-width="0.03"/>
<path d="M14.4932 9.81427C14.4536 9.76233 14.398 9.72885 14.3473 9.72646C14.2966 9.72406 14.2585 9.75311 14.2474 9.80265C14.2363 9.85219 14.2539 9.91468 14.2936 9.96655C14.3331 10.0185 14.3887 10.052 14.4394 10.0544C14.4902 10.0568 14.5282 10.0277 14.5393 9.97818C14.5504 9.92864 14.5328 9.86614 14.4932 9.81427Z" fill="#DE2010" stroke="black" stroke-width="0.03"/>
<path d="M14.2491 9.5505C14.2024 9.50484 14.1426 9.47978 14.092 9.48475C14.0415 9.48973 14.008 9.52399 14.0043 9.57462C14.0005 9.62524 14.027 9.68452 14.0737 9.7301C14.1204 9.77576 14.1802 9.80082 14.2308 9.79584C14.2813 9.79086 14.3148 9.7566 14.3185 9.70598C14.3223 9.65535 14.2958 9.59607 14.2491 9.5505H14.2491Z" fill="#DE2010" stroke="black" stroke-width="0.03"/>
<path d="M13.974 9.30727C13.9234 9.2661 13.8614 9.24666 13.8116 9.25626C13.7617 9.26586 13.7316 9.30306 13.7324 9.35382C13.7333 9.40457 13.7651 9.46117 13.8159 9.50225C13.8665 9.54343 13.9285 9.56287 13.9783 9.55327C14.0282 9.54366 14.0584 9.50647 14.0575 9.45571C14.0566 9.40495 14.0248 9.34836 13.974 9.30727Z" fill="#DE2010" stroke="black" stroke-width="0.03"/>
<path d="M13.6837 9.11412C13.6269 9.08193 13.5626 9.07304 13.515 9.09078C13.4674 9.10853 13.4439 9.15021 13.4532 9.20012C13.4625 9.25003 13.5032 9.30055 13.5601 9.33265C13.6169 9.36484 13.6812 9.37373 13.7288 9.35598C13.7763 9.33824 13.7999 9.29655 13.7906 9.24664C13.7813 9.19674 13.7405 9.14621 13.6837 9.11412Z" fill="#DE2010" stroke="black" stroke-width="0.03"/>
<path d="M13.3569 8.94041C13.2974 8.91352 13.2326 8.91052 13.1868 8.93252C13.1411 8.95452 13.1214 8.99819 13.1352 9.04704C13.149 9.09589 13.1942 9.1425 13.2537 9.16928C13.3132 9.19617 13.3781 9.19917 13.4238 9.17717C13.4696 9.15517 13.4893 9.11151 13.4755 9.06266C13.4617 9.0138 13.4165 8.96719 13.3569 8.94041Z" fill="#DE2010" stroke="black" stroke-width="0.03"/>
<path d="M13.038 8.81286C12.9769 8.79002 12.9119 8.79137 12.8678 8.81639C12.8236 8.84141 12.8069 8.88629 12.8239 8.93411C12.841 8.98192 12.8892 9.0254 12.9504 9.04813C13.0116 9.07097 13.0765 9.06961 13.1207 9.04459C13.1648 9.01958 13.1815 8.97469 13.1645 8.92688C13.1474 8.87906 13.0992 8.83559 13.038 8.81286Z" fill="#DE2010" stroke="black" stroke-width="0.03"/>
<path d="M12.7128 8.70917C12.6501 8.69107 12.5855 8.69737 12.5433 8.72569C12.5012 8.754 12.488 8.80003 12.5086 8.84641C12.5293 8.89278 12.5807 8.93245 12.6434 8.95044C12.7061 8.96855 12.7707 8.96224 12.8129 8.93393C12.855 8.90561 12.8683 8.85958 12.8476 8.81321C12.827 8.76683 12.7756 8.72717 12.7128 8.70917Z" fill="#DE2010" stroke="black" stroke-width="0.03"/>
<path d="M12.355 8.6503C12.2902 8.64208 12.2273 8.65826 12.1901 8.69272C12.1528 8.72719 12.1468 8.77471 12.1744 8.81735C12.2019 8.85999 12.2588 8.89127 12.3236 8.89939C12.3883 8.90761 12.4512 8.89143 12.4885 8.85697C12.5258 8.8225 12.5317 8.77498 12.5042 8.73234C12.4767 8.6897 12.4198 8.65842 12.355 8.6503Z" fill="#DE2010" stroke="black" stroke-width="0.03"/>
<path d="M12.0022 8.62889C11.937 8.62621 11.8757 8.64769 11.8415 8.6852C11.8073 8.72272 11.8054 8.77058 11.8365 8.81072C11.8676 8.85086 11.9269 8.87717 11.9921 8.87974C12.0574 8.88242 12.1186 8.86094 12.1528 8.82342C12.187 8.7859 12.1889 8.73805 12.1579 8.69791C12.1268 8.65777 12.0674 8.63145 12.0022 8.62889Z" fill="#DE2010" stroke="black" stroke-width="0.03"/>
<path d="M11.679 8.64061C11.6137 8.63793 11.5525 8.65941 11.5183 8.69692C11.4841 8.73444 11.4822 8.7823 11.5132 8.82244C11.5443 8.86258 11.6037 8.88889 11.6689 8.89146C11.7341 8.89414 11.7954 8.87266 11.8296 8.83514C11.8638 8.79762 11.8657 8.74977 11.8346 8.70963C11.8036 8.66949 11.7442 8.64317 11.679 8.64061Z" fill="#DE2010" stroke="black" stroke-width="0.03"/>
<path d="M11.2999 8.68608C11.2362 8.70057 11.1827 8.73734 11.1595 8.7825C11.1364 8.82766 11.147 8.87435 11.1875 8.90496C11.228 8.93556 11.2922 8.94542 11.3558 8.93082C11.4195 8.91633 11.473 8.87957 11.4962 8.8344C11.5194 8.78924 11.5087 8.74255 11.4682 8.71195C11.4277 8.68134 11.3635 8.67148 11.2999 8.68608Z" fill="#DE2010" stroke="black" stroke-width="0.03"/>
<path d="M10.9548 8.76977C10.8926 8.78946 10.8423 8.83051 10.8229 8.87743C10.8035 8.92435 10.818 8.97 10.8609 8.99716C10.9038 9.02432 10.9686 9.02886 11.0308 9.00906C11.093 8.98937 11.1433 8.94831 11.1627 8.90139C11.1821 8.85447 11.1676 8.80882 11.1247 8.78166C11.0818 8.7545 11.017 8.74997 10.9548 8.76977Z" fill="#DE2010" stroke="black" stroke-width="0.03"/>
<path d="M10.641 8.90538C10.5815 8.93235 10.5364 8.9791 10.5228 9.028C10.5091 9.07689 10.529 9.12049 10.5748 9.14235C10.6206 9.16421 10.6854 9.161 10.7448 9.13393C10.8043 9.10697 10.8494 9.06021 10.863 9.01132C10.8767 8.96242 10.8568 8.91882 10.811 8.89696C10.7652 8.87511 10.7004 8.87832 10.641 8.90538Z" fill="#DE2010" stroke="black" stroke-width="0.03"/>
<path d="M10.3271 9.06713C10.2702 9.09906 10.2293 9.14949 10.2198 9.19937C10.2104 9.24925 10.2339 9.291 10.2814 9.30887C10.3289 9.32674 10.3932 9.31801 10.4501 9.28597C10.5071 9.25403 10.5479 9.20361 10.5574 9.15373C10.5668 9.10384 10.5433 9.0621 10.4958 9.04423C10.4483 9.02636 10.384 9.03509 10.3271 9.06713Z" fill="#DE2010" stroke="black" stroke-width="0.03"/>
<path d="M10.0301 9.26779C9.977 9.30573 9.94183 9.3603 9.93787 9.41091C9.93392 9.46152 9.96178 9.50047 10.011 9.51307C10.0601 9.52567 10.1231 9.51 10.1762 9.47197C10.2293 9.43404 10.2645 9.37946 10.2685 9.32885C10.2724 9.27824 10.2446 9.23929 10.1954 9.22669C10.1462 9.21409 10.0832 9.22976 10.0301 9.26779Z" fill="#DE2010" stroke="black" stroke-width="0.03"/>
<path d="M9.7556 9.47839C9.70587 9.52068 9.67544 9.57804 9.67578 9.6288C9.67612 9.67956 9.70719 9.71602 9.75725 9.72441C9.80732 9.73281 9.86877 9.71186 9.91842 9.66948C9.96815 9.62718 9.99858 9.56983 9.99824 9.51907C9.9979 9.4683 9.96684 9.43185 9.91677 9.42346C9.8667 9.41506 9.80525 9.43601 9.7556 9.47839Z" fill="#DE2010" stroke="black" stroke-width="0.03"/>
<path d="M9.51258 9.73074C9.46601 9.77649 9.43977 9.83588 9.44376 9.88649C9.44774 9.9371 9.48133 9.97123 9.53187 9.97601C9.58241 9.9808 9.6422 9.9555 9.68869 9.90967C9.73526 9.86391 9.7615 9.80452 9.75752 9.75392C9.75354 9.70331 9.71994 9.66917 9.6694 9.66439C9.61886 9.65961 9.55907 9.68491 9.51258 9.73074Z" fill="#DE2010" stroke="black" stroke-width="0.03"/>
<path d="M9.30436 10.0126C9.26178 10.0621 9.24061 10.1235 9.24881 10.1736C9.25701 10.2237 9.29335 10.2549 9.34411 10.2554C9.39487 10.2559 9.45234 10.2257 9.49483 10.1762C9.5374 10.1267 9.55858 10.0653 9.55037 10.0152C9.54217 9.96509 9.50584 9.93389 9.45508 9.93336C9.40431 9.93282 9.34685 9.96303 9.30436 10.0126Z" fill="#DE2010" stroke="black" stroke-width="0.03"/>
<path d="M9.11334 10.2983C9.07628 10.3521 9.06177 10.4153 9.07527 10.4643C9.08877 10.5132 9.12822 10.5404 9.17875 10.5355C9.22928 10.5306 9.2832 10.4944 9.32016 10.4406C9.35722 10.3869 9.37172 10.3236 9.35823 10.2746C9.34473 10.2257 9.30527 10.1986 9.25474 10.2034C9.20421 10.2083 9.1503 10.2445 9.11334 10.2983Z" fill="#DE2010" stroke="black" stroke-width="0.03"/>
<path d="M8.95382 10.6255C8.92655 10.6849 8.92313 10.7497 8.94483 10.7956C8.96653 10.8415 9.01007 10.8615 9.05901 10.848C9.10795 10.8345 9.15485 10.7896 9.18201 10.7302C9.20929 10.6709 9.21271 10.6061 9.191 10.5602C9.1693 10.5143 9.12577 10.4943 9.07683 10.5078C9.02789 10.5213 8.98099 10.5662 8.95382 10.6255Z" fill="#DE2010" stroke="black" stroke-width="0.03"/>
<path d="M8.82824 10.9674C8.80645 11.0289 8.80892 11.0938 8.8347 11.1376C8.86047 11.1813 8.90564 11.1972 8.95315 11.1794C9.00067 11.1615 9.04331 11.1125 9.06498 11.0509C9.08676 10.9894 9.08429 10.9245 9.05852 10.8808C9.03274 10.8371 8.98758 10.8211 8.94006 10.839C8.89255 10.8569 8.84991 10.9058 8.82824 10.9674Z" fill="#DE2010" stroke="black" stroke-width="0.03"/>
<path d="M8.71893 11.6132C8.71284 11.6653 8.73108 11.7153 8.76676 11.7442C8.80244 11.7732 8.85013 11.7767 8.89184 11.7535C8.93355 11.7303 8.96294 11.6839 8.96891 11.6318C8.975 11.5797 8.95676 11.5298 8.92108 11.5008C8.8854 11.4719 8.83771 11.4683 8.796 11.4915C8.75429 11.5147 8.72491 11.5611 8.71893 11.6132V11.6132Z" fill="#DE2010" stroke="black" stroke-width="0.03"/>
<path d="M8.74782 11.3124C8.73325 11.3761 8.74316 11.4402 8.77379 11.4807C8.80441 11.5212 8.85111 11.5318 8.89626 11.5086C8.94141 11.4854 8.97814 11.4319 8.99259 11.3682C9.00716 11.3046 8.99725 11.2404 8.96662 11.1999C8.93599 11.1594 8.8893 11.1488 8.84415 11.172C8.799 11.1952 8.76227 11.2488 8.74782 11.3124Z" fill="#DE2010" stroke="black" stroke-width="0.03"/>
<path d="M14.965 11.159C15.0048 11.1165 15.0418 11.1044 15.0886 11.12C15.0721 11.0077 15.0366 10.9696 14.9933 10.9831C14.95 10.9966 14.9304 11.0543 14.965 11.159V11.159Z" fill="#FFE300"/>
<path d="M15.0268 11.4952C15.0697 11.4557 15.1075 11.4465 15.153 11.4655C15.145 11.3523 15.1124 11.3116 15.0682 11.3218C15.024 11.3321 15.0001 11.3881 15.0268 11.4952V11.4952Z" fill="#FFE300"/>
<path d="M14.8827 10.8495C14.9104 10.7983 14.9431 10.7772 14.9923 10.7803C14.9478 10.6759 14.9038 10.6481 14.8653 10.6722C14.8269 10.6962 14.8226 10.757 14.8827 10.8495V10.8495Z" fill="#FFE300"/>
<path d="M14.7314 10.5409C14.759 10.4897 14.7917 10.4686 14.841 10.4717C14.7965 10.3673 14.7524 10.3395 14.714 10.3636C14.6755 10.3876 14.6713 10.4485 14.7314 10.5409V10.5409Z" fill="#FFE300"/>
<path d="M14.3695 9.9741C14.3885 9.91904 14.4174 9.89302 14.4665 9.88819C14.4058 9.79227 14.3579 9.77188 14.3238 9.80182C14.2897 9.83176 14.2953 9.89248 14.3695 9.97409V9.9741Z" fill="#FFE300"/>
<path d="M14.133 9.72737C14.15 9.67164 14.1779 9.64454 14.2267 9.63786C14.1625 9.5443 14.1138 9.52574 14.0809 9.55695C14.048 9.58815 14.0558 9.64862 14.133 9.72738V9.72737Z" fill="#FFE300"/>
<path d="M13.6366 9.30872C13.6355 9.25047 13.6537 9.21609 13.6982 9.19469C13.6082 9.12547 13.5562 9.12281 13.5345 9.16263C13.5128 9.20246 13.5388 9.25757 13.6366 9.30872H13.6366Z" fill="#FFE300"/>
<path d="M13.8946 9.50464C13.9037 9.44709 13.9276 9.41638 13.9751 9.403C13.8984 9.31925 13.8476 9.30761 13.8194 9.34308C13.7911 9.37855 13.8072 9.43734 13.8946 9.50463V9.50464Z" fill="#FFE300"/>
<path d="M13.3409 9.14592C13.3339 9.08809 13.3484 9.05201 13.3904 9.02614C13.2938 8.96657 13.2418 8.96929 13.2243 9.01114C13.2068 9.053 13.2384 9.10512 13.3409 9.14592L13.3409 9.14592Z" fill="#FFE300"/>
<path d="M13.0399 9.01431C13.0247 8.95809 13.0339 8.92029 13.0718 8.88868C12.9676 8.84356 12.9165 8.85369 12.9052 8.89761C12.8939 8.94154 12.9327 8.9886 13.0399 9.01431L13.0399 9.01431Z" fill="#FFE300"/>
<path d="M12.7143 8.91392C12.6943 8.85919 12.7004 8.82075 12.7354 8.78604C12.6278 8.7499 12.5777 8.76433 12.5702 8.80905C12.5626 8.85377 12.6052 8.89739 12.7143 8.91392H12.7143Z" fill="#FFE300"/>
<path d="M12.3957 8.85357C12.3719 8.80042 12.3751 8.76164 12.4075 8.72449C12.2976 8.69622 12.2487 8.71424 12.2444 8.75938C12.2401 8.80454 12.2858 8.84496 12.3957 8.85357H12.3957Z" fill="#FFE300"/>
<path d="M12.0577 8.82646C12.0285 8.77607 12.0277 8.73717 12.0561 8.69686C11.9438 8.68014 11.897 8.70313 11.8975 8.74848C11.8979 8.79383 11.9475 8.8293 12.0577 8.82646H12.0577Z" fill="#FFE300"/>
<path d="M11.3959 8.87539C11.3554 8.83353 11.3452 8.79597 11.3631 8.75C11.2501 8.76085 11.2102 8.79442 11.2216 8.83834C11.2329 8.88226 11.2896 8.90472 11.3959 8.87539L11.3959 8.87539Z" fill="#FFE300"/>
<path d="M11.7209 8.83229C11.6864 8.78533 11.6814 8.74674 11.7053 8.70361C11.5919 8.69906 11.5479 8.72694 11.5532 8.77198C11.5584 8.81703 11.6115 8.84696 11.7209 8.83229H11.7209Z" fill="#FFE300"/>
<path d="M11.0757 8.9436C11.0296 8.90799 11.0142 8.87228 11.0252 8.82422C10.915 8.85115 10.8803 8.8901 10.8979 8.93193C10.9154 8.97377 10.9747 8.98788 11.0757 8.9436H11.0757Z" fill="#FFE300"/>
<path d="M10.464 9.2287C10.4119 9.2025 10.39 9.17038 10.3917 9.12109C10.2886 9.16851 10.262 9.21333 10.2872 9.25107C10.3123 9.28881 10.3732 9.29138 10.464 9.2287L10.464 9.2287Z" fill="#FFE300"/>
<path d="M10.7592 9.07652C10.7107 9.0442 10.6929 9.00965 10.7006 8.96094C10.5924 8.99548 10.5606 9.03674 10.581 9.07725C10.6014 9.11777 10.6615 9.12772 10.7592 9.07652L10.7592 9.07652Z" fill="#FFE300"/>
<path d="M9.91499 9.60972C9.85864 9.59494 9.83048 9.5681 9.8219 9.51953C9.73091 9.5874 9.71427 9.63677 9.74673 9.66844C9.77919 9.70012 9.8393 9.68993 9.915 9.60972L9.91499 9.60972Z" fill="#FFE300"/>
<path d="M10.1772 9.39407C10.1222 9.37493 10.0962 9.34596 10.0915 9.29688C9.99547 9.35742 9.97501 9.40533 10.0049 9.43944C10.0348 9.47356 10.0955 9.46812 10.1772 9.39407H10.1772Z" fill="#FFE300"/>
<path d="M9.68271 9.83916C9.62525 9.82957 9.59476 9.8054 9.5818 9.75781C9.49736 9.83367 9.48527 9.88435 9.52048 9.91294C9.55568 9.94153 9.61462 9.92593 9.6827 9.83916H9.68271Z" fill="#FFE300"/>
<path d="M9.47378 10.107C9.41569 10.1027 9.38313 10.0814 9.3659 10.0352C9.2887 10.1184 9.28126 10.1699 9.31891 10.1952C9.35657 10.2205 9.41385 10.1996 9.47378 10.107V10.107Z" fill="#FFE300"/>
<path d="M9.29908 10.3865C9.24101 10.3911 9.20557 10.3751 9.18147 10.332C9.11792 10.4261 9.11846 10.4782 9.15955 10.4974C9.20063 10.5166 9.25404 10.4872 9.29908 10.3865Z" fill="#FFE300"/>
<path d="M9.14644 10.6794C9.08946 10.6915 9.05224 10.6802 9.02276 10.6406C8.97195 10.7421 8.97925 10.7937 9.02248 10.8074C9.06571 10.8211 9.11484 10.7851 9.14644 10.6794L9.14644 10.6794Z" fill="#FFE300"/>
<path d="M9.02375 10.9835C8.9694 11.0045 8.93085 10.9992 8.89549 10.9648C8.8614 11.0731 8.87678 11.1229 8.92163 11.1296C8.96649 11.1363 9.00929 11.0929 9.02375 10.9835L9.02375 10.9835Z" fill="#FFE300"/>
<path d="M8.94138 11.3224C8.88856 11.347 8.84975 11.3443 8.81216 11.3124C8.7854 11.4227 8.80408 11.4713 8.84928 11.475C8.89449 11.4787 8.93428 11.4325 8.94138 11.3224L8.94138 11.3224Z" fill="#FFE300"/>
<path d="M8.90792 11.6055C8.8582 11.6318 8.81945 11.6349 8.77881 11.615C8.76402 11.7049 8.7877 11.7404 8.83288 11.7372C8.87806 11.734 8.91258 11.6925 8.90792 11.6055V11.6055Z" fill="#FFE300"/>
<path d="M14.597 10.2634C14.6169 10.2086 14.6462 10.183 14.6954 10.1789C14.6362 10.0821 14.5885 10.061 14.554 10.0904C14.5195 10.1198 14.5241 10.1806 14.597 10.2634V10.2634Z" fill="#FFE300"/>
<path d="M15.0639 11.8389C15.1068 11.7995 15.1446 11.7903 15.1901 11.8093C15.1821 11.696 15.1495 11.6554 15.1053 11.6656C15.0611 11.6758 15.0373 11.7319 15.0639 11.8389V11.8389Z" fill="#FFE300"/>
<path d="M14.3498 10.3917C14.3498 10.3917 14.4682 10.2043 14.4224 10.028C14.3767 9.85174 14.1814 9.97632 14.1856 10.0391C14.1898 10.1018 14.3118 10.1858 14.3192 10.224C14.3266 10.2623 14.3054 10.3801 14.3498 10.3917L14.3498 10.3917Z" fill="#FFD200" stroke="#EF8A10" stroke-width="0.03"/>
<path d="M14.6186 10.0001C14.6172 10.0001 14.4903 10.127 14.5123 10.2816C14.5344 10.4362 14.6324 10.6266 14.6145 10.7867C14.5965 10.9468 14.5675 11.053 14.5675 11.053C14.5675 11.053 14.7166 10.8833 14.718 10.7205C14.7194 10.5576 14.6158 10.3437 14.6158 10.2236C14.6158 10.1036 14.6214 9.99728 14.6186 10.0001Z" fill="#217900" stroke="black" stroke-width="0.03" stroke-linejoin="round"/>
<path d="M14.855 10.5195C14.855 10.5195 14.7556 10.5927 14.7653 10.7611C14.775 10.9294 14.9489 11.2386 14.9489 11.2386C14.9489 11.2386 15.0758 11.4994 15.0717 11.567C15.0675 11.6346 15.0952 11.5022 15.0827 11.3531C15.0703 11.2041 14.8785 10.8756 14.8785 10.8756C14.8785 10.8756 14.8371 10.808 14.8412 10.6962C14.8454 10.5844 14.8564 10.5209 14.855 10.5195L14.855 10.5195Z" fill="#217900" stroke="black" stroke-width="0.03" stroke-linejoin="round"/>
<path d="M12.0908 8.83554C12.0908 8.83554 12.5173 8.85211 12.52 9.12812C12.5186 9.1709 12.52 9.22196 12.5048 9.34479C12.589 9.29925 12.6456 9.17228 12.6346 9.09086C12.6359 8.8107 12.2537 8.61887 12.0908 8.83554H12.0908Z" fill="#217900" stroke="black" stroke-width="0.03" stroke-linejoin="round"/>
<path d="M11.8203 8.825C11.8203 8.825 12.1639 8.75323 12.1667 9.02926C12.1695 9.30527 12.0577 9.34943 12.0577 9.34943C12.0577 9.34943 12.3213 9.29285 12.3227 9.0127C12.324 8.73254 11.9832 8.60834 11.8203 8.825H11.8203Z" fill="#217900" stroke="black" stroke-width="0.03" stroke-linejoin="round"/>
<path d="M15.1579 11.9883C15.1658 12.1121 15.287 12.2307 15.2395 12.4467C15.1789 12.6917 14.9655 13.274 15.0024 13.3767C14.9392 13.2898 14.9497 13.2081 14.9444 13.0869C14.9392 12.9657 15.121 12.5152 15.1368 12.3624C15.1368 12.2254 15.15 12.0383 15.1579 11.9883L15.1579 11.9883Z" fill="#217900" stroke="black" stroke-width="0.03" stroke-linejoin="round"/>
<path d="M15.1583 11.9922C15.1583 11.9922 15.3559 12.2425 15.3453 12.4401C15.3348 12.6377 15.2241 12.8695 15.261 12.9723C15.1978 12.8853 15.182 12.83 15.1767 12.7088C15.1714 12.5876 15.2742 12.4532 15.2531 12.3215C15.232 12.1898 15.1556 11.9922 15.1583 11.9922L15.1583 11.9922Z" fill="#217900" stroke="black" stroke-width="0.03" stroke-linejoin="round"/>
<path d="M8.68533 12.0469C8.67742 12.1707 8.58521 12.2814 8.63263 12.4974C8.69323 12.7424 8.90927 13.0533 8.87501 13.409C8.93825 13.322 8.95669 13.2246 8.96196 13.1034C8.96723 12.9822 8.72222 12.5738 8.70639 12.421C8.7064 12.284 8.69322 12.0969 8.68532 12.0469H8.68533Z" fill="#217900" stroke="black" stroke-width="0.03" stroke-linejoin="round"/>
<path d="M8.68514 12.0469C8.68514 12.0469 8.4928 12.2893 8.50335 12.4869C8.50598 12.6186 8.74837 13.1692 8.71149 13.272C8.77472 13.1851 8.79317 13.1956 8.79053 13.0639C8.71939 12.7266 8.59293 12.5106 8.61402 12.3788C8.6351 12.2471 8.68779 12.0469 8.68516 12.0469L8.68514 12.0469Z" fill="#217900" stroke="black" stroke-width="0.03" stroke-linejoin="round"/>
<path d="M12.4221 9.67046C12.4221 9.67046 12.7654 9.69206 12.7822 9.88894C12.799 10.0858 12.7006 10.2058 12.7006 10.2058C12.7006 10.2058 12.7438 10.6308 12.4077 10.7556C12.0475 10.7988 11.4834 10.7652 11.4834 10.7652C11.4834 10.7652 11.3177 10.806 11.2505 10.4627C11.1833 10.1194 11.1641 9.87694 11.1641 9.87694C11.1641 9.87694 11.1977 9.68488 11.4402 9.67288C11.6826 9.66087 12.4197 9.67528 12.4221 9.67048L12.4221 9.67046Z" fill="#8C8A8C" stroke="black" stroke-width="0.03"/>
<path d="M12.6983 10.2031C12.6983 10.2031 12.5134 10.4336 12.5327 10.5272" stroke="black" stroke-width="0.03" stroke-linecap="round"/>
<path d="M12.4511 10.7422C12.4967 10.7806 12.5399 10.8238 12.5495 10.9655C12.5591 11.1071 12.5687 11.2488 12.5687 11.2488L12.8088 13.4096L13.0201 14.9725L13.0345 15.215C13.0345 15.215 12.984 15.3926 12.8424 15.407C12.7392 15.6231 12.1798 15.6855 12.1246 15.6831C12.0741 15.6807 11.8965 15.6063 11.7884 15.6159C11.6804 15.6255 11.4931 15.6975 11.4091 15.6855C11.3251 15.6735 11.1354 15.6087 11.1018 15.4719C10.8665 15.3974 10.8281 15.2174 10.8281 15.2174L11.0826 13.4095L11.3299 11.1239C11.3299 11.1239 11.3587 10.8191 11.4811 10.7734C11.6084 10.7614 12.2662 10.7854 12.4511 10.7422L12.4511 10.7422Z" fill="#8C8A8C" stroke="black" stroke-width="0.03"/>
<path d="M11.1549 13.8711L11.1045 15.47" stroke="black" stroke-width="0.03"/>
<path d="M12.708 14.082L12.8497 15.4001" stroke="black" stroke-width="0.03"/>
<path d="M11.9712 9.82812L12.45 11.3016L13.9991 11.3017L12.7459 12.2124L13.2245 13.6859L11.9712 12.7753L10.7179 13.6859L11.1966 12.2124L9.94336 11.3017L11.4925 11.3016L11.9712 9.82812Z" fill="white" stroke="black" stroke-width="0.03" stroke-linejoin="round"/>
<path d="M20 6L20 18L4 18L4 6L20 6ZM20 5L4 5C3.4 5 3 5.4 3 6L3 18C3 18.6 3.4 19 4 19L20 19C20.6 19 21 18.6 21 18L21 6C21 5.4 20.6 5 20 5Z" fill="#B5B5B5"/>
</svg>
