<svg width="24" height="24" viewBox="0 0 24 24" fill="none" xmlns="http://www.w3.org/2000/svg">
<path d="M20 6H4V18H20V6Z" fill="white"/>
<path d="M12 12H4V18H12V12Z" fill="#005293"/>
<path d="M20 6H12V12H20V6Z" fill="#D21034"/>
<path d="M20 6L20 18L4 18L4 6L20 6ZM20 5L4 5C3.4 5 3 5.4 3 6L3 18C3 18.6 3.4 19 4 19L20 19C20.6 19 21 18.6 21 18L21 6C21 5.4 20.6 5 20 5Z" fill="none"/>
<path d="M8 7L8.44903 8.38197H9.90211L8.72654 9.23607L9.17557 10.618L8 9.76393L6.82443 10.618L7.27346 9.23607L6.09789 8.38197H7.55097L8 7Z" fill="#005293"/>
<path d="M16 13L16.449 14.382H17.9021L16.7265 15.2361L17.1756 16.618L16 15.7639L14.8244 16.618L15.2735 15.2361L14.0979 14.382H15.551L16 13Z" fill="#D21034"/>
</svg>
