<svg width="24" height="24" viewBox="0 0 24 24" fill="none" xmlns="http://www.w3.org/2000/svg">
<path d="M20 6H4V18H20V6Z" fill="#CE1126"/>
<path d="M20 9H4V15H20V9Z" fill="white"/>
<path d="M11.3181 11.7284L10.8809 11.7158V11.543L11.3181 11.7284V11.7284Z" fill="#FF9C10"/>
<path d="M11.3168 11.6791L10.8814 11.4576V11.1695C10.8814 11.1695 10.8303 11.1767 10.8376 11.1191C10.84 10.9991 11.1576 11.3382 11.3204 11.4486L11.3168 11.6791L11.3168 11.6791Z" fill="#FF9C10"/>
<path d="M9.43102 12.4322L10.3492 12.4394V11.8704L9.2998 11.8203L9.43101 12.4325L9.43102 12.4322Z" fill="#FF9C10"/>
<path d="M9.38673 11.6452L10.3633 11.7388L10.356 11.3355L9.40133 10.9609L9.38672 11.6451L9.38673 11.6452Z" fill="#FF9C10"/>
<path d="M9.58399 10.8381L10.3346 11.1981L10.4418 11.0876C10.4418 11.0876 10.3728 11.0406 10.3762 10.9973C10.3775 10.9536 10.4456 10.9469 10.4469 10.8994C10.4482 10.8557 10.3697 10.8504 10.3689 10.8067C10.3638 10.7592 10.4294 10.7084 10.4294 10.7084L9.75163 10.125L9.58398 10.838L9.58399 10.8381Z" fill="#FF9C10"/>
<path d="M14.5107 12.4385H13.5414L13.5342 11.8839L14.5981 11.8047L14.5107 12.4385L14.5107 12.4385Z" fill="#FF9C10"/>
<path d="M14.5338 11.6364C14.5216 11.5464 14.5088 11.4566 14.4879 11.3683C14.46 11.2501 14.4243 11.1338 14.381 11.0205C14.3778 11.0121 14.373 11.0044 14.3698 10.9961L13.541 11.343L13.5485 11.7536L14.5338 11.6364L14.5338 11.6364Z" fill="#FF9C10"/>
<path d="M13.9671 10.3047C13.8018 10.4297 13.6365 10.5547 13.4712 10.6797C13.472 10.7156 13.5078 10.7432 13.5176 10.7775C13.5405 10.8257 13.495 10.8683 13.4669 10.9023C13.4441 10.9337 13.4932 10.9498 13.5096 10.9683C13.5456 11.0053 13.5142 11.0632 13.4759 11.0847C13.5221 11.1123 13.5454 11.164 13.5556 11.215C13.8031 11.0862 14.0506 10.9575 14.2981 10.8287C14.2093 10.6417 14.0985 10.4648 13.9671 10.3047L13.9671 10.3047Z" fill="#FF9C10"/>
<path d="M12.5869 11.7423L13.0023 11.7243L13.0096 11.5586L12.5869 11.7423L12.5869 11.7423Z" fill="#FF9C10"/>
<path d="M12.5867 11.6539L12.585 11.4667C12.585 11.4667 12.9784 11.1156 13.0622 11.0508C13.0622 11.1228 13.0167 11.1786 13.0167 11.1786V11.4523L12.5868 11.6539L12.5867 11.6539Z" fill="#FF9C10"/>
<path d="M10.0361 10.0769C10.0434 10.0841 10.4777 10.5611 10.4777 10.5611C10.4899 10.5159 10.59 10.509 10.692 10.5162C10.794 10.5234 10.8754 10.5095 10.8754 10.5815C10.8754 10.6535 10.8236 10.6433 10.8236 10.6937C10.8236 10.7441 10.9012 10.7399 10.9012 10.8046C10.9012 10.8695 10.8449 10.8562 10.8446 10.9064C10.8444 10.9479 10.9033 10.9501 10.9033 10.9501L11.3169 11.3463L11.3187 10.9231L10.4661 9.60156L10.0361 10.0769L10.0361 10.0769Z" fill="#FF9C10"/>
<path d="M10.7188 9.57544C10.7252 9.59466 11.2963 10.7426 11.2963 10.7426C11.2963 10.7426 11.3027 9.66523 11.4001 9.60751L11.2379 9.3125L10.7188 9.57545L10.7188 9.57544Z" fill="#FF9C10"/>
<path d="M12.5818 9.45313C12.51 9.70157 12.4381 9.94999 12.3662 10.1985C12.4334 10.2065 12.5013 10.2086 12.5689 10.2049C12.6296 10.2101 12.5823 10.267 12.5855 10.3007C12.5852 10.4535 12.5849 10.6063 12.5846 10.7591C12.7878 10.4003 12.9909 10.0416 13.194 9.68281C13.0539 9.60968 12.9052 9.55537 12.7555 9.50565C12.6985 9.48551 12.6405 9.46805 12.5818 9.45312L12.5818 9.45313Z" fill="#FF9C10"/>
<path d="M13.3406 9.76173C13.0894 10.148 12.8381 10.5342 12.5869 10.9205C12.5866 11.0692 12.5862 11.218 12.5859 11.3667C12.7538 11.2071 12.9224 11.0482 13.0898 10.888C13.1215 10.8431 12.989 10.821 13.0552 10.7663C13.1152 10.7473 13.1254 10.6504 13.0622 10.6317C13.0101 10.5553 13.1093 10.5148 13.1718 10.5231C13.2588 10.5271 13.3485 10.5042 13.4336 10.5284C13.4804 10.5731 13.5236 10.4607 13.5695 10.4354C13.6604 10.344 13.7514 10.2526 13.8413 10.1602C13.6932 10.0058 13.5241 9.87173 13.3406 9.76172L13.3406 9.76173Z" fill="#FF9C10"/>
<path d="M11.397 14.262C11.2117 14.2725 11.027 14.3976 10.9404 14.4645C11.0958 14.5326 11.2617 14.5857 11.4382 14.622C11.7195 14.6693 12.0007 14.6689 12.282 14.6689C12.3279 14.6631 12.3733 14.6566 12.4179 14.6492L13.0104 14.4495C13.0104 14.4495 12.7254 14.2614 12.4995 14.2695C12.2736 14.2777 12.1211 14.4987 11.9389 14.4824C11.7567 14.4661 11.6837 14.262 11.4214 14.262C11.4132 14.262 11.4052 14.2616 11.397 14.262L11.397 14.262Z" fill="#083D9C" stroke="#083D9C" stroke-width="0.01"/>
<path d="M10.3202 14.1075L13.6871 14.122C13.6871 14.122 13.3956 13.8123 13.0531 13.8051C12.7106 13.7978 12.8053 13.9491 12.543 13.9707C12.2807 13.9923 12.215 13.8122 11.9746 13.8194C11.7341 13.8266 11.5956 13.9707 11.4135 13.9779C11.2313 13.9851 10.9981 13.7978 10.8596 13.8051C10.7211 13.8122 10.2256 14.0211 10.2256 14.0211L10.3203 14.1075L10.3202 14.1075Z" fill="#083D9C" stroke="#083D9C" stroke-width="0.01"/>
<path d="M9.89092 13.7142L14.0447 13.7286C14.1103 13.635 13.8407 13.4117 13.5929 13.3901C13.3888 13.3973 13.2431 13.599 13.0755 13.6062C12.9079 13.6134 12.7185 13.3973 12.5289 13.4046C12.3395 13.4117 12.1427 13.6062 11.9532 13.6062C11.7638 13.6062 11.6253 13.3973 11.3849 13.3973C11.1444 13.3973 11.0351 13.6278 10.8529 13.6134C10.6706 13.599 10.5103 13.3829 10.3355 13.3829C10.1606 13.3829 9.86908 13.6422 9.81079 13.6278C9.7525 13.6134 9.88363 13.7358 9.89097 13.7142L9.89092 13.7142Z" fill="#083D9C" stroke="#083D9C" stroke-width="0.01"/>
<path d="M11.4969 13.316L12.4241 13.3154C12.4314 13.3082 12.2165 12.9989 11.9607 13.0208C11.6756 13.0281 11.482 13.316 11.4969 13.316V13.316Z" fill="#083D9C" stroke="#083D9C" stroke-width="0.01"/>
<path d="M14.4534 13.2933H13.1846C13.1846 13.2933 13.3488 13.1974 13.3936 13.1089C13.4756 13.1532 13.4533 13.1974 13.6175 13.2048C13.7817 13.2122 13.9384 13.0204 14.0952 13.0278C14.2519 13.0352 14.4534 13.3007 14.4534 13.2933L14.4534 13.2933Z" fill="#083D9C" stroke="#083D9C" stroke-width="0.01"/>
<path d="M9.45313 13.2933H10.722C10.722 13.2933 10.5577 13.1974 10.513 13.1089C10.4309 13.1532 10.4533 13.1974 10.289 13.2048C10.1249 13.2122 9.96814 13.0204 9.81136 13.0278C9.65464 13.0352 9.45312 13.3007 9.45312 13.2933L9.45313 13.2933Z" fill="#083D9C" stroke="#083D9C" stroke-width="0.01"/>
<path d="M9.54782 12.8992L10.4514 12.9063C10.4514 12.9063 10.3932 12.7839 10.3859 12.6327C10.1526 12.5535 9.96318 12.8055 9.79557 12.8127C9.62801 12.8199 9.45312 12.6327 9.45312 12.6327L9.54784 12.8992L9.54782 12.8992Z" fill="#083D9C" stroke="#083D9C" stroke-width="0.01"/>
<path d="M14.3724 12.8992L13.4688 12.9063C13.4688 12.9063 13.5271 12.7839 13.5343 12.6327C13.7676 12.5535 13.957 12.8055 14.1246 12.8127C14.2922 12.8199 14.4671 12.6327 14.4671 12.6327L14.3724 12.8992L14.3724 12.8992Z" fill="#083D9C" stroke="#083D9C" stroke-width="0.01"/>
<path d="M11.7266 12.9052L12.1856 12.8909C12.1856 12.8909 12.193 12.754 11.9525 12.754C11.712 12.754 11.7339 12.9125 11.7266 12.9052L11.7266 12.9052Z" fill="#083D9C" stroke="#083D9C" stroke-width="0.01"/>
<path d="M11.4858 11.43L12.4405 11.6821V10.3353C12.0032 10.3569 11.6389 9.51422 12.4113 9.45662C11.6534 9.34857 11.5659 9.54304 11.4785 9.7519L11.4858 11.43H11.4858Z" fill="#CE1126" stroke="#630810" stroke-width="0.01" stroke-linejoin="round"/>
<path d="M11.6978 12.6455C11.4901 12.9854 10.935 12.8846 10.8052 12.6474C10.7663 12.6365 10.7893 11.1834 10.7893 11.1834C10.7893 11.1834 10.7273 11.1554 10.7245 11.1108C10.7216 11.0656 10.8088 11.0615 10.8088 11.0038C10.8088 10.9461 10.7198 10.9687 10.718 10.9106C10.7184 10.8551 10.813 10.8627 10.8088 10.8114C10.8038 10.7535 10.7028 10.7621 10.6985 10.7088C10.6952 10.6664 10.7707 10.6295 10.7917 10.6104C10.7782 10.6111 10.7216 10.6096 10.7212 10.6094C10.6682 10.6104 10.6152 10.6115 10.5622 10.6126C10.4493 10.6127 10.5642 10.6369 10.5625 10.7013C10.5615 10.7434 10.5052 10.7714 10.5002 10.808C10.4984 10.8456 10.5807 10.8719 10.5817 10.917C10.5827 10.9572 10.5009 10.96 10.5038 10.9974C10.5089 11.0606 10.5762 11.0745 10.5752 11.1128C10.5742 11.1511 10.4846 11.1657 10.4844 11.1962C10.4875 11.2552 10.4973 12.6904 10.4973 12.6904C10.6401 13.4215 11.4642 13.6075 11.6978 12.6455L11.6978 12.6455Z" fill="#CE1126" stroke="#630810" stroke-width="0.01" stroke-linejoin="round"/>
<path d="M12.2412 12.6455C12.4489 12.9854 13.0039 12.8846 13.1337 12.6473C13.1726 12.6365 13.1497 11.1833 13.1497 11.1833C13.1497 11.1833 13.2117 11.1554 13.2145 11.1107C13.2174 11.0656 13.1356 11.0615 13.1356 11.0038C13.1356 10.9461 13.2192 10.9687 13.221 10.9106C13.2206 10.8551 13.1332 10.8591 13.1375 10.8078C13.1425 10.7499 13.2111 10.7567 13.215 10.7034C13.2183 10.6574 13.1719 10.6295 13.1509 10.6104C13.1645 10.6111 13.2174 10.6096 13.2178 10.6094C13.2708 10.6104 13.3238 10.6115 13.3768 10.6126C13.4898 10.6127 13.3748 10.6369 13.3765 10.7013C13.3775 10.7434 13.4338 10.7714 13.4388 10.808C13.4406 10.8456 13.3583 10.8719 13.3573 10.917C13.3564 10.9572 13.4381 10.96 13.4352 10.9974C13.4301 11.0606 13.3627 11.0745 13.3638 11.1128C13.3648 11.1511 13.4544 11.1657 13.4546 11.1962C13.4515 11.2552 13.4417 12.6904 13.4417 12.6904C13.2989 13.4215 12.4748 13.6075 12.2412 12.6455L12.2412 12.6455Z" fill="#CE1126" stroke="#630810" stroke-width="0.01" stroke-linejoin="round"/>
<path d="M11.449 12.7105C11.5292 12.6672 11.602 12.6241 11.6531 12.5232L11.3397 12.5304C11.3397 12.5304 11.194 12.6168 11.1211 12.7105H11.449L11.449 12.7105Z" fill="#630810" stroke="#630810" stroke-width="0.01" stroke-linecap="round"/>
<path d="M12.4618 12.7105C12.3817 12.6672 12.3088 12.6241 12.2578 12.5232L12.5712 12.5304C12.5712 12.5304 12.7169 12.6168 12.7898 12.7105H12.4618L12.4618 12.7105Z" fill="#630810" stroke="#630810" stroke-width="0.01" stroke-linecap="round"/>
<path d="M10.8809 12.4062L13.0379 12.4134L10.8809 12.4062Z" fill="#630810"/>
<path d="M10.8809 12.4062L13.0379 12.4134" stroke="#630810" stroke-width="0.01" stroke-linecap="round"/>
<path d="M10.9824 11.8984L11.2375 12.237L10.9824 11.8984Z" fill="#630810"/>
<path d="M10.9824 11.8984L11.2375 12.237" stroke="#630810" stroke-width="0.01" stroke-linecap="round"/>
<path d="M10.9824 12.2336L11.2594 11.9023L10.9824 12.2336Z" fill="#630810"/>
<path d="M10.9824 12.2336L11.2594 11.9023" stroke="#630810" stroke-width="0.01" stroke-linecap="round"/>
<path d="M11.1284 11.875L11.1211 12.0839L11.1284 11.875Z" fill="#630810"/>
<path d="M11.1284 11.875L11.1211 12.0839" stroke="#630810" stroke-width="0.01" stroke-linecap="round"/>
<path d="M20 6L20 18L4 18L4 6L20 6ZM20 5L4 5C3.4 5 3 5.4 3 6L3 18C3 18.6 3.4 19 4 19L20 19C20.6 19 21 18.6 21 18L21 6C21 5.4 20.6 5 20 5Z" fill="#B5B5B5"/>
</svg>
