<svg width="24" height="24" viewBox="0 0 24 24" fill="none" xmlns="http://www.w3.org/2000/svg">
<path d="M20 6H4V18H20V6Z" fill="#66CCFF"/>
<path d="M9 15.2186L12 14.7986L15 15.2186L12 7.80859L9 15.2186Z" fill="white"/>
<path d="M9.40527 15.2208L12.0003 14.8008L14.5953 15.2208L12.0003 8.80078L9.40527 15.2208Z" fill="black"/>
<path d="M9 15.22H15L12 11.5L9 15.22Z" fill="#FCD116"/>
<path d="M20 6L20 18L4 18L4 6L20 6ZM20 5L4 5C3.4 5 3 5.4 3 6L3 18C3 18.6 3.4 19 4 19L20 19C20.6 19 21 18.6 21 18L21 6C21 5.4 20.6 5 20 5Z" fill="#B5B5B5"/>
</svg>
