<svg width="24" height="24" viewBox="0 0 24 24" fill="none" xmlns="http://www.w3.org/2000/svg">
<path d="M20 6H4V18" fill="#009E49"/>
<path d="M4 18H20V6" fill="#CE1126"/>
<path d="M4 18L20 6L4 18Z" fill="black"/>
<path d="M4 18L20 6" stroke="#FCD116" stroke-width="2"/>
<path d="M4 18L20 6L4 18Z" fill="black"/>
<path d="M4 18L20 6" stroke="black"/>
<path d="M14.2119 8.32227L14.6157 9.93967L15.3346 9.71252" fill="white"/>
<path d="M20 6L20 18L4 18L4 6L20 6ZM20 5L4 5C3.4 5 3 5.4 3 6L3 18C3 18.6 3.4 19 4 19L20 19C20.6 19 21 18.6 21 18L21 6C21 5.4 20.6 5 20 5Z" fill="none"/>
<g clip-path="url(#clip0_14099_122784)">
<path d="M19.981 6.00562H4.00781V17.989H19.981V6.00562Z" fill="#FFE900"/>
<path fill-rule="evenodd" clip-rule="evenodd" d="M4 6.00564L4.01854 14.6444L16.4479 6L4.00009 6.00563L4 6.00564Z" fill="#35A100"/>
<path fill-rule="evenodd" clip-rule="evenodd" d="M19.9997 17.989L19.9714 9.00659L7.43359 17.9958L19.9997 17.989Z" fill="#C70000"/>
<path fill-rule="evenodd" clip-rule="evenodd" d="M4.00814 15.2957L4.01867 18L6.73107 17.9961L19.9788 8.38349L19.9639 6.03235L17.2831 6.00562L4.00781 15.2957H4.00814Z" fill="black"/>
<path fill-rule="evenodd" clip-rule="evenodd" d="M14.7148 10.2813L13.759 10.2466L14.583 9.67065L14.3684 8.68054L15.0906 9.3151L15.9138 8.73769L15.5362 9.70593L16.2595 10.3392L15.3039 10.3031L14.9277 11.2719L14.7148 10.2813Z" fill="white"/>
<path fill-rule="evenodd" clip-rule="evenodd" d="M8.75383 14.4746L7.79804 14.44L8.62206 13.864L8.40743 12.8739L9.12969 13.5085L9.95287 12.9311L9.57527 13.8993L10.2986 14.5326L9.34295 14.4965L8.96679 15.4652L8.75383 14.4746Z" fill="white"/>
</g>
<defs>
<clipPath id="clip0_14099_122784">
<rect width="16" height="12" fill="white" transform="translate(4 6)"/>
</clipPath>
</defs>
</svg>
