<svg width="24" height="24" viewBox="0 0 24 24" fill="none" xmlns="http://www.w3.org/2000/svg">
<path d="M20 6H4V18H20V6Z" fill="#006C35"/>
<path fill-rule="evenodd" clip-rule="evenodd" d="M10.7584 8.83595C10.7491 8.83567 10.7351 8.84087 10.7156 8.85245C10.6717 8.88186 10.5848 8.97246 10.5821 9.0767C10.5795 9.13551 10.5684 9.13528 10.6069 9.1727C10.6347 9.21281 10.6625 9.20887 10.7186 9.17945C10.7509 9.15569 10.7618 9.14054 10.7726 9.1007C10.786 9.03389 10.7023 9.13231 10.6916 9.05795C10.6729 8.98891 10.7263 8.96052 10.7771 8.8937C10.7783 8.86223 10.7788 8.83656 10.7584 8.83595L10.7584 8.83595ZM11.5759 8.84045C11.5602 8.84256 11.541 8.86265 11.5144 8.91095C11.4953 8.96153 11.4129 9.03808 11.4724 9.19595C11.521 9.29605 11.5409 9.45872 11.5189 9.63995C11.4852 9.69145 11.4775 9.7092 11.4334 9.7607C11.3713 9.82739 11.3042 9.81034 11.2526 9.78545C11.2044 9.75298 11.1666 9.73632 11.1446 9.63319C11.1486 9.46882 11.1581 9.19978 11.1281 9.14268C11.0838 9.05427 11.0108 9.08598 10.9796 9.11268C10.8297 9.24977 10.7556 9.48125 10.7103 9.66543C10.6688 9.79966 10.6245 9.76084 10.5933 9.70668C10.5176 9.6357 10.5123 9.08069 10.4208 9.17193C10.2744 9.59049 10.5049 10.049 10.6646 10.0044C10.7798 10.0521 10.8529 9.83283 10.9001 9.5927C10.9324 9.52531 10.957 9.51756 10.9736 9.5522C10.9693 9.87155 10.9965 9.94278 11.0786 10.0397C11.2617 10.181 11.4132 10.0576 11.4251 10.0457C11.437 10.0338 11.5676 9.90319 11.5676 9.90319C11.5993 9.86981 11.6413 9.86778 11.6861 9.89719C11.7297 9.93679 11.7241 10.005 11.8174 10.0524C11.8959 10.0838 12.0635 10.0601 12.1024 9.99244C12.1547 9.90277 12.1674 9.87195 12.1916 9.83794C12.229 9.78823 12.2929 9.81024 12.2929 9.82594C12.2869 9.85366 12.2494 9.88101 12.2749 9.93094C12.3193 9.96425 12.3296 9.94284 12.3559 9.93544C12.4488 9.89103 12.5186 9.68944 12.5186 9.68944C12.5227 9.61426 12.4799 9.61996 12.4526 9.63544C12.417 9.65724 12.4148 9.66464 12.3791 9.68644C12.3337 9.69319 12.2457 9.72316 12.2021 9.65569C12.1576 9.57458 12.1574 9.4615 12.1234 9.37969C12.1234 9.37374 12.0639 9.25105 12.1189 9.24319C12.1466 9.24834 12.2062 9.26375 12.2156 9.21394C12.2447 9.16539 12.1529 9.02766 12.0904 8.9582C12.0361 8.89864 11.9612 8.89138 11.8886 8.9522C11.8378 8.99896 11.8453 9.05118 11.8354 9.1007C11.8224 9.15757 11.8249 9.22801 11.8826 9.3032C11.9333 9.40322 12.0255 9.53156 11.9951 9.71268C11.9951 9.71268 11.9416 9.79889 11.8474 9.78768C11.8081 9.77912 11.7441 9.76213 11.7101 9.51094C11.6844 9.3208 11.7166 9.05441 11.6359 8.92968C11.6176 8.88262 11.602 8.83692 11.5759 8.84043L11.5759 8.84045ZM11.3171 8.86061C11.2927 8.86274 11.2657 8.89117 11.2436 8.94611C11.2247 8.98788 11.2016 9.20636 11.2054 9.20636C11.1903 9.27139 11.2733 9.29894 11.3111 9.21536C11.3678 9.06214 11.3681 8.99686 11.3719 8.93188C11.3631 8.88237 11.3415 8.85849 11.3171 8.86062L11.3171 8.86061ZM12.2726 8.87786C12.2475 8.88013 12.2276 8.89481 12.2201 8.93186C12.2101 9.01897 12.2152 9.06633 12.2299 9.13886C12.2411 9.18722 12.3115 9.26818 12.3461 9.31511C12.5116 9.53757 12.6709 9.7611 12.8246 9.99237C12.8488 10.1641 12.8665 10.3321 12.8779 10.4994C12.9028 10.8662 12.9104 11.3228 12.8876 11.7091C12.9564 11.7118 13.0665 11.5981 13.1051 11.4316C13.1303 11.2013 13.0962 10.7313 13.0939 10.5954C13.0923 10.5389 13.0888 10.4716 13.0849 10.4011C13.2638 10.6934 13.4373 11.0031 13.6076 11.3431C13.6697 11.3136 13.656 10.964 13.6196 10.9149C13.4833 10.6214 13.2949 10.3318 13.2349 10.2203C13.2132 10.1801 13.1394 10.0678 13.0519 9.93835C13.0358 9.75358 13.0183 9.59709 13.0069 9.54983C12.9788 9.35452 13.0872 9.57186 13.0721 9.45833C13.037 9.26329 12.9293 9.13073 12.8021 8.95208C12.7611 8.89397 12.7619 8.88212 12.6986 8.96633C12.6608 9.05217 12.6613 9.12359 12.6724 9.19058C12.6557 9.16638 12.6352 9.13769 12.6056 9.10208C12.4958 9.00786 12.489 9.00271 12.3979 8.92583C12.3691 8.90543 12.3144 8.87404 12.2726 8.87783L12.2726 8.87786ZM15.1046 8.90711C15.0924 8.90521 15.0791 8.91121 15.0641 8.93336C15.0355 8.95847 15.0047 9.00394 15.0056 9.06236C15.0126 9.16529 15.0309 9.27068 15.0379 9.37362C15.0403 9.38739 15.0429 9.40109 15.0454 9.41487C15.0343 9.40076 15.0247 9.38974 15.0191 9.38412C14.8185 9.17335 15.1113 9.34967 14.9809 9.18687C14.8706 9.06575 14.8383 9.02721 14.7439 8.95437C14.6965 8.92377 14.6679 8.8653 14.6524 8.96487C14.6462 9.05234 14.6397 9.15363 14.6456 9.22738C14.6453 9.26836 14.6877 9.3455 14.7244 9.39088C14.8582 9.55532 14.9949 9.73029 15.1324 9.91288C15.1613 10.2853 15.169 10.6266 15.1984 10.9996C15.1942 11.1592 15.1451 11.371 15.0986 11.3911C15.0986 11.3911 15.0276 11.4319 14.9801 11.3866C14.9456 11.3728 14.8076 11.1564 14.8076 11.1564C14.737 11.0916 14.6899 11.1101 14.6396 11.1564C14.501 11.2902 14.4383 11.5409 14.3441 11.7136C14.3198 11.7522 14.2514 11.785 14.1754 11.7106C13.9822 11.4467 14.0952 11.0711 14.0711 11.1676C13.8991 11.3615 13.9753 11.6828 14.0141 11.7519C14.0709 11.8653 14.1168 11.938 14.2271 11.9941C14.3277 12.0681 14.406 12.0219 14.4491 11.9701C14.5503 11.8653 14.5516 11.5972 14.5991 11.5441C14.6324 11.4467 14.7159 11.4634 14.7566 11.5066C14.7961 11.5634 14.8427 11.6003 14.9006 11.6311C14.995 11.7144 15.1076 11.7295 15.2186 11.6536C15.2945 11.6111 15.3437 11.5558 15.3881 11.4466C15.4358 11.3192 15.4122 10.6512 15.4016 10.2796C15.4729 10.38 15.5432 10.4826 15.6131 10.5864C15.6438 10.9126 15.6577 11.2338 15.6476 11.5419C15.6404 11.6031 15.8614 11.359 15.8599 11.2433C15.8589 11.1422 15.8601 11.0505 15.8599 10.9651C15.9671 11.1362 16.0708 11.3102 16.1689 11.4863C16.2297 11.4541 16.2088 11.1101 16.1704 11.0626C16.0677 10.8903 15.9362 10.7041 15.8344 10.5601C15.8143 10.3783 15.7869 10.1638 15.7744 10.0981C15.755 9.99562 15.7355 9.8417 15.7061 9.72009C15.6981 9.67261 15.6738 9.52093 15.6814 9.50634C15.6934 9.47241 15.7386 9.50743 15.7609 9.46809C15.7942 9.43173 15.6453 9.04574 15.5696 8.93558C15.5424 8.88621 15.4933 8.90329 15.4324 8.98358C15.3759 9.03641 15.3966 9.15694 15.4181 9.27158C15.4741 9.56376 15.5241 9.86131 15.5636 10.1581C15.4904 10.0493 15.4011 9.91759 15.3131 9.7906C15.3108 9.77836 15.3019 9.73348 15.3019 9.73286C15.3019 9.72761 15.2897 9.49384 15.2794 9.43811C15.2776 9.41549 15.2722 9.40898 15.2959 9.41186C15.321 9.433 15.3244 9.43414 15.3401 9.44111C15.3655 9.44576 15.3877 9.40286 15.3724 9.36311C15.2939 9.21833 15.2154 9.0729 15.1369 8.92811C15.1274 8.91881 15.1168 8.90901 15.1046 8.90711L15.1046 8.90711ZM7.7959 8.91461C7.75241 8.91337 7.70442 8.94033 7.72315 8.99261C7.71224 9.0211 7.80829 9.11743 7.82515 9.17036C7.84027 9.20805 7.81016 9.32941 7.84165 9.34061C7.87061 9.35316 7.91049 9.2566 7.92565 9.16736C7.93405 9.11847 7.9277 8.95116 7.8139 8.91685C7.80808 8.91553 7.80212 8.91477 7.7959 8.9146L7.7959 8.91461ZM16.1217 8.91557C16.1118 8.91655 16.0998 8.93258 16.0812 8.97182C16.0367 9.04473 16.0214 9.17528 16.0392 9.29056C16.1464 10.0154 16.226 10.7173 16.2425 11.3598C16.2333 11.4208 16.2306 11.4532 16.202 11.5301C16.1387 11.6112 16.069 11.7128 16.0032 11.7618C15.9375 11.8108 15.7977 11.8575 15.752 11.8938C15.6069 11.9777 15.6062 12.0741 15.7235 12.0776C15.9256 12.0541 16.1648 12.0375 16.3295 11.7888C16.3736 11.7191 16.4255 11.5302 16.4277 11.4146C16.4431 10.7366 16.4191 10.0738 16.3175 9.58383C16.311 9.5361 16.2899 9.42639 16.298 9.41208C16.3111 9.37852 16.3772 9.41543 16.4007 9.37683C16.4353 9.34155 16.2297 9.07836 16.1577 8.96583C16.1434 8.93756 16.1345 8.91431 16.1217 8.91557L16.1217 8.91557ZM14.0023 8.92682C13.9939 8.92826 13.9816 8.94096 13.9588 8.97107C13.9023 9.15567 13.8825 9.30642 13.904 9.42107C14.049 10.1779 14.1976 10.8674 14.174 11.5878C14.2428 11.5883 14.3223 11.4305 14.3563 11.2743C14.3749 11.0592 14.3438 10.9283 14.3383 10.8018C14.3327 10.6754 14.1951 9.64948 14.1673 9.55381C14.1336 9.37292 14.301 9.53002 14.2828 9.42481C14.2249 9.29218 14.0805 9.09904 14.0353 8.98381C14.0183 8.95296 14.0162 8.92441 14.0023 8.92681L14.0023 8.92682ZM8.84153 8.94107C8.82371 8.94416 8.80651 8.95884 8.80028 8.98307C8.79636 8.99894 8.80715 9.02534 8.79278 9.03332C8.78453 9.04164 8.75323 9.03605 8.75453 8.99207C8.75453 8.97806 8.74425 8.96345 8.73803 8.95457C8.73179 8.95048 8.72758 8.94932 8.71628 8.94932C8.70252 8.94988 8.70283 8.95351 8.69528 8.96507C8.69192 8.97683 8.6876 8.98835 8.6876 9.00179C8.68588 9.01744 8.67962 9.02274 8.6681 9.02504C8.65523 9.02504 8.65828 9.02644 8.64785 9.01979C8.64166 9.01302 8.63435 9.01035 8.63435 8.99879C8.63435 8.98682 8.63121 8.9677 8.6276 8.95979C8.62214 8.95258 8.6135 8.94883 8.6036 8.94629C8.54968 8.94648 8.54575 9.00844 8.54885 9.03179C8.54481 9.03619 8.54281 9.14601 8.61635 9.17654C8.71507 9.22361 8.9002 9.20371 8.89235 9.04454C8.89235 9.03046 8.88926 8.98318 8.88785 8.97029C8.87778 8.94682 8.85918 8.93795 8.84135 8.94104L8.84153 8.94107ZM10.166 8.94257C10.1319 8.94431 10.1018 8.95409 10.076 8.96732C10.0106 9.02997 9.99527 9.13041 10.0468 9.19307C10.0969 9.21675 10.147 9.26722 10.1135 9.29507C9.97174 9.44653 9.60266 9.69963 9.58406 9.74581C9.58391 9.74619 9.58339 9.74697 9.58331 9.74731C9.58326 9.74764 9.58331 9.74851 9.58331 9.74881C9.58332 9.74895 9.58328 9.74943 9.58331 9.74956C9.58343 9.74994 9.58382 9.75075 9.58406 9.75106C9.58415 9.75116 9.5847 9.75172 9.5848 9.75181C9.58492 9.75188 9.58542 9.75174 9.58555 9.75181C9.5857 9.75188 9.58614 9.7525 9.5863 9.75256C9.58647 9.75261 9.58686 9.75251 9.58705 9.75256C9.5871 9.75261 9.58774 9.75325 9.5878 9.75331C9.60656 9.76589 9.8375 9.76559 9.86306 9.75405C9.86325 9.75396 9.86365 9.7534 9.8638 9.75331C9.86388 9.75326 9.86449 9.75335 9.86455 9.75331C9.8646 9.75326 9.86451 9.75261 9.86455 9.75256C9.94392 9.72331 10.3206 9.29281 10.3206 9.29281C10.301 9.2761 10.2831 9.26378 10.2636 9.24706C10.2427 9.22897 10.2448 9.21118 10.2636 9.19306C10.3568 9.13878 10.3273 9.01935 10.2786 8.96506C10.2382 8.94696 10.2002 8.94082 10.1661 8.94256L10.166 8.94257ZM13.628 8.94407C13.6181 8.94505 13.6061 8.96033 13.5875 8.99957C13.543 9.07248 13.5128 9.19945 13.5163 9.31831C13.6127 9.98585 13.6423 10.57 13.7053 11.2376C13.7104 11.3021 13.701 11.3959 13.658 11.4333C13.4993 11.5991 13.2704 11.8035 13.0213 11.8976C12.9945 11.9277 13.0879 12.0559 13.2088 12.0558C13.4109 12.0324 13.5886 11.9189 13.7533 11.6201C13.7974 11.5504 13.8748 11.4012 13.8771 11.2856C13.8925 10.6076 13.8429 10.0806 13.7413 9.59057C13.7348 9.54284 13.7392 9.48639 13.7473 9.47207C13.7604 9.45644 13.8048 9.47243 13.8283 9.43382C13.8629 9.39855 13.7361 9.1061 13.6641 8.99356C13.6497 8.9653 13.6408 8.9428 13.6281 8.94406L13.628 8.94407ZM8.26477 8.96447C8.23687 8.96773 8.21063 8.99044 8.19802 9.02072C8.19335 9.12779 8.19272 9.2348 8.20477 9.33346C8.25346 9.50652 8.26888 9.65874 8.29252 9.83598C8.29907 10.0734 8.15544 9.93866 8.16202 9.82098C8.19518 9.66812 8.18623 9.42747 8.15677 9.36646C8.1334 9.30548 8.10634 9.29043 8.04952 9.30046C8.0044 9.29771 7.88785 9.4247 7.85526 9.63498C7.85526 9.63498 7.82812 9.74289 7.81626 9.83898C7.80032 9.94757 7.72839 10.0245 7.67826 9.82398C7.63494 9.67825 7.60831 9.31921 7.53576 9.40323C7.51498 9.68358 7.49031 10.1769 7.72851 10.2275C8.01663 10.2552 7.85748 9.74043 7.96176 9.64698C7.98148 9.6008 8.01802 9.59997 8.02102 9.65823V10.0955C8.01838 10.2376 8.11192 10.2799 8.18452 10.3092C8.26006 10.3034 8.31016 10.3055 8.33977 10.379C8.35157 10.631 8.36396 10.8837 8.37577 11.1357C8.37577 11.1357 8.55042 11.1859 8.55877 10.7105C8.56714 10.4313 8.50318 10.197 8.54077 10.1427C8.5421 10.0894 8.6105 10.0867 8.65777 10.1127C8.73307 10.1658 8.76648 10.2312 8.88352 10.205C9.0616 10.1559 9.16887 10.0695 9.17151 9.93272C9.16111 9.80277 9.14608 9.67268 9.08977 9.54272C9.09763 9.51909 9.05568 9.4576 9.06351 9.43397C9.09552 9.48409 9.14394 9.47993 9.15501 9.43397C9.1247 9.33409 9.07751 9.23838 9.00127 9.19697C8.93825 9.14145 8.84604 9.15319 8.81227 9.26897C8.79662 9.40238 8.86062 9.5605 8.95777 9.68971C8.9784 9.7402 9.00726 9.82417 8.99451 9.89971C8.94282 9.9292 8.89156 9.91693 8.84826 9.87121C8.84826 9.87121 8.70651 9.7651 8.70651 9.74147C8.74413 9.50063 8.71462 9.47305 8.69377 9.40621C8.6792 9.31395 8.63548 9.28473 8.60002 9.22171C8.56455 9.18412 8.51645 9.18412 8.49352 9.22171C8.43086 9.33032 8.46026 9.56352 8.50552 9.66797C8.53822 9.76403 8.58838 9.82397 8.56477 9.82397C8.54532 9.87825 8.50476 9.86562 8.47552 9.80297C8.43376 9.67347 8.42527 9.48048 8.42527 9.39348C8.41273 9.28561 8.39876 9.0552 8.32776 8.99673C8.30882 8.97093 8.28646 8.96195 8.26477 8.96448L8.26477 8.96447ZM9.27651 8.96597C9.26221 8.96778 9.24641 8.97592 9.22776 8.98022C9.16651 8.99972 9.10917 9.05267 9.12726 9.15572C9.19966 9.59569 9.24686 9.93147 9.31926 10.3715C9.33039 10.423 9.2872 10.4909 9.23151 10.484C9.13683 10.4199 9.11333 10.2902 8.95177 10.2957C8.83481 10.2971 8.70142 10.4244 8.68477 10.547C8.66527 10.6444 8.65833 10.75 8.68477 10.835C8.76697 10.9338 8.86543 10.9233 8.95177 10.901C9.02277 10.8717 9.08118 10.8018 9.10627 10.8185C9.10634 10.8185 9.10696 10.8184 9.10702 10.8185C9.10709 10.8186 9.10695 10.8191 9.10702 10.8192C9.1225 10.8463 9.10556 11.0751 8.77251 11.252C8.56783 11.3439 8.40492 11.3658 8.31725 11.1987C8.26294 11.0943 8.3212 10.6965 8.1875 10.7885C7.7921 11.8077 9.11385 11.9499 9.2615 10.8305C9.27106 10.7989 9.30019 10.7672 9.32075 10.775C9.32977 10.7788 9.33803 10.791 9.341 10.814C9.31035 11.8276 8.31846 11.8971 8.15 11.5782C8.10825 11.503 8.09569 11.3357 8.0915 11.2355C8.08387 11.1748 8.06865 11.1398 8.051 11.126C8.01081 11.0958 7.95681 11.1745 7.94525 11.3112C7.92854 11.4212 7.93325 11.4514 7.93325 11.5572C7.98616 12.3578 9.26257 12.0138 9.47 11.3525C9.57269 11.0106 9.46791 10.7526 9.50225 10.721C9.50255 10.7207 9.50343 10.7204 9.50375 10.7202C9.50407 10.72 9.5049 10.7197 9.50525 10.7195C9.50561 10.7193 9.50637 10.7189 9.50675 10.7187C9.50792 10.7184 9.50988 10.718 9.51125 10.718C9.63796 10.8545 9.81576 10.7353 9.85474 10.688C9.87145 10.6643 9.91326 10.6491 9.94248 10.6797C10.0413 10.7508 10.2146 10.7173 10.2507 10.592C10.2716 10.4695 10.2893 10.3433 10.2935 10.2125C10.2291 10.2325 10.1771 10.2475 10.1562 10.2695C10.1513 10.2749 10.1476 10.281 10.1465 10.2875C10.1409 10.3237 10.1356 10.36 10.13 10.3962C10.1294 10.3992 10.1284 10.402 10.127 10.4045C10.1242 10.4089 10.1197 10.413 10.115 10.4157C10.0922 10.4282 10.0525 10.4211 10.0505 10.388C10.0199 10.2488 9.89383 10.2306 9.81724 10.4465C9.76571 10.4883 9.67176 10.4964 9.66199 10.4337C9.67452 10.2889 9.61617 10.2695 9.49924 10.3377C9.46164 10.0509 9.42435 9.77708 9.38674 9.49026C9.43548 9.48886 9.48018 9.5242 9.52474 9.46851C9.47652 9.31854 9.37448 9.0134 9.31699 8.98477C9.31654 8.98455 9.31594 8.98419 9.31549 8.98402C9.31288 8.98089 9.30979 8.978 9.30724 8.97577C9.30618 8.97487 9.30454 8.97353 9.30349 8.97277C9.30244 8.97204 9.30079 8.97112 9.29974 8.97052C9.29743 8.96925 9.29454 8.96822 9.29224 8.96752C9.287 8.96603 9.2819 8.96533 9.27649 8.96602L9.27651 8.96597ZM13.2207 8.96822C13.1701 8.96672 13.1141 8.99859 13.1359 9.06197C13.1232 9.09653 13.2446 9.21379 13.2642 9.27797C13.2994 9.37657 13.2373 9.47062 13.2739 9.48422C13.3076 9.49943 13.3546 9.38242 13.3722 9.27422C13.3925 9.18675 13.3301 9.00748 13.2417 8.97047C13.2349 8.96888 13.2279 8.96844 13.2207 8.96823L13.2207 8.96822ZM10.148 9.07622C10.171 9.07387 10.1988 9.09504 10.2125 9.12497C10.227 9.15689 10.2197 9.1874 10.196 9.19322C10.1722 9.19903 10.1415 9.1779 10.127 9.14597C10.1124 9.11404 10.1197 9.08278 10.1435 9.07697C10.1449 9.0766 10.1464 9.07637 10.148 9.07622ZM15.8479 9.22397C15.8018 9.22235 15.7516 9.25737 15.7715 9.32597C15.7599 9.36339 15.8699 9.49049 15.8877 9.55997C15.9037 9.60941 15.8633 9.76876 15.8967 9.78347C15.9274 9.79994 15.9707 9.67337 15.9867 9.55622C15.9956 9.49209 15.9481 9.26704 15.8674 9.22696C15.8613 9.22523 15.8545 9.22419 15.8479 9.22396V9.22397ZM12.6965 9.30197C12.7007 9.32077 12.7049 9.3397 12.7078 9.35897C12.7172 9.40053 12.7254 9.44181 12.734 9.48272C12.6976 9.43259 12.6675 9.39208 12.6545 9.37772C12.5721 9.27982 12.6564 9.31343 12.6965 9.30197H12.6965ZM13.4225 9.65897C13.4047 9.66205 13.3875 9.67749 13.3813 9.70172C13.3773 9.71758 13.3889 9.74323 13.3745 9.75122C13.3663 9.75954 13.3342 9.75469 13.3355 9.71072C13.3355 9.69671 13.3252 9.68134 13.319 9.67246C13.3128 9.66838 13.3086 9.66721 13.2973 9.66721C13.2835 9.66777 13.2838 9.6714 13.2763 9.68296C13.2731 9.69475 13.2688 9.70636 13.2688 9.71971C13.267 9.73536 13.2615 9.74066 13.25 9.74296C13.2371 9.74296 13.2394 9.74436 13.229 9.73771C13.2228 9.73094 13.2155 9.72828 13.2155 9.71671C13.2155 9.70474 13.2124 9.68562 13.2088 9.67771C13.2033 9.6705 13.1947 9.6675 13.1848 9.66496C13.1308 9.66516 13.1277 9.72637 13.1308 9.74971C13.1267 9.75411 13.124 9.86468 13.1975 9.89521C13.2962 9.94229 13.4821 9.92164 13.4743 9.76246C13.4743 9.74838 13.4704 9.70111 13.469 9.68821C13.4589 9.66475 13.4403 9.65587 13.4225 9.65896L13.4225 9.65897ZM10.1076 9.69197C10.0955 9.69073 10.0795 9.69519 10.0611 9.70622C9.97383 9.75344 9.94002 9.89351 9.99438 9.97547C10.0452 10.0477 10.1254 10.0212 10.1361 10.0212C10.2217 10.0319 10.2726 9.86072 10.2726 9.86072C10.2726 9.86072 10.2752 9.81259 10.1736 9.90347C10.1309 9.91148 10.1251 9.89604 10.1144 9.87197C10.1055 9.82744 10.1074 9.78228 10.1279 9.73772C10.1373 9.711 10.1279 9.69404 10.1076 9.69197L10.1076 9.69197ZM14.7936 9.71372C14.7452 9.71136 14.6936 9.74274 14.6804 9.80897C14.6806 9.84804 14.698 9.86951 14.6946 9.90497C14.6896 9.92524 14.6687 9.93857 14.6189 9.91472C14.6267 9.90756 14.5866 9.85097 14.5866 9.85097C14.5478 9.82731 14.4959 9.85225 14.4621 9.87422C14.4436 9.90799 14.4298 9.96587 14.4509 10.025C14.5066 10.128 14.6979 10.3038 14.7891 10.3055C14.7908 10.2126 14.7999 10.0891 14.8049 10.0122C14.807 9.98322 14.8138 9.95125 14.8416 9.94397C14.8694 9.93672 14.9176 9.97191 14.9181 9.94172C14.9131 9.88263 14.9013 9.79542 14.8679 9.75422C14.8508 9.72889 14.8227 9.71514 14.7936 9.71372L14.7936 9.71372ZM10.9148 10.037C10.9135 10.0374 10.9122 10.0385 10.911 10.0392C10.9104 10.0396 10.9093 10.0403 10.9088 10.0407C10.8991 10.048 10.8877 10.0647 10.8623 10.0827C10.8193 10.1316 10.8116 10.1656 10.8143 10.2635C10.8167 10.2738 10.8958 10.4937 10.9628 10.6482C11.0079 10.8088 11.0497 10.9928 11.019 11.1665C10.9133 11.3961 10.7007 11.6021 10.4955 11.714C10.391 11.7474 10.3007 11.736 10.2765 11.7132C10.2763 11.713 10.2759 11.7126 10.2758 11.7125C10.2157 11.6721 10.2144 11.6002 10.218 11.588C10.218 11.5879 10.218 11.5873 10.218 11.5872C10.2182 11.5871 10.2186 11.5866 10.2188 11.5865C10.3919 11.4659 10.5897 11.3683 10.7445 11.0427C10.7902 10.9183 10.8042 10.8436 10.7588 10.6512C10.741 10.5795 10.7192 10.5206 10.6703 10.4697C10.6704 10.4696 10.6709 10.4691 10.671 10.469C10.7005 10.4549 10.7769 10.5112 10.7888 10.4757C10.7707 10.3839 10.7085 10.2606 10.638 10.1975C10.5763 10.1415 10.5092 10.135 10.4528 10.1862C10.3892 10.2216 10.3756 10.3487 10.4063 10.46C10.4403 10.5437 10.5321 10.5584 10.5975 10.727C10.5975 10.7271 10.5975 10.7277 10.5975 10.7277C10.5989 10.7383 10.62 10.8535 10.587 10.9002C10.5603 10.9836 10.2168 11.2544 10.1925 11.2707C10.1922 11.271 10.1905 11.272 10.1902 11.2722C10.1901 11.2724 10.1896 11.2729 10.1895 11.273C10.1894 11.273 10.1889 11.2736 10.1888 11.2737C10.1887 11.2738 10.1881 11.2744 10.188 11.2745C10.1879 11.2745 10.1873 11.2745 10.1873 11.2745C10.1872 11.2745 10.1867 11.2745 10.1865 11.2745C10.1864 11.2744 10.1859 11.2739 10.1858 11.2737C10.1858 11.2737 10.1858 11.273 10.1858 11.273C10.1856 11.2727 10.1851 11.2718 10.185 11.2715C10.184 11.2647 10.1858 11.2475 10.185 11.2197C10.1828 11.169 10.2038 11.0542 10.2023 11.0345C10.2023 11.0344 10.2023 11.0338 10.2023 11.0337C10.2021 11.0336 10.2016 11.0331 10.2015 11.033C10.2015 11.0329 10.2015 11.0323 10.2015 11.0322C10.2013 11.0322 10.2008 11.0322 10.2008 11.0322C10.0872 11.1055 10.0497 11.3302 10.029 11.3967C9.74161 11.5953 9.41523 11.7431 9.22727 11.9442C9.12937 12.0971 9.90176 11.7687 9.99152 11.729C9.99229 11.7296 9.99306 11.7305 9.99377 11.7312C10.0108 11.75 10.0123 11.8155 10.0635 11.8745C10.1438 11.9832 10.3145 12.0502 10.4805 12.0087C10.759 11.9081 10.9194 11.7183 11.0828 11.5077C11.1061 11.4738 11.1427 11.447 11.1765 11.4732C11.2888 11.7245 11.6124 11.9033 12.0308 11.9217C12.1276 11.804 12.0813 11.7461 12.042 11.7215C12.0299 11.7135 11.834 11.6371 11.8035 11.561C11.7844 11.4902 11.831 11.4274 11.9243 11.3802C12.1929 11.3478 12.457 11.3117 12.7125 11.2295C12.7151 11.1436 12.7657 11.0153 12.7995 10.9595C12.823 10.9208 12.8381 10.917 12.8438 10.9115C12.844 10.9113 12.8444 10.9109 12.8445 10.9107C12.8446 10.9107 12.8452 10.9101 12.8453 10.91C12.8454 10.9099 12.8459 10.9094 12.846 10.9093C12.846 10.909 12.846 10.908 12.846 10.9078C12.8462 10.9061 12.846 10.9031 12.8453 10.9003L12.8018 10.8748L11.9445 10.871C11.9339 10.8669 11.9261 10.8628 11.9213 10.859C11.9209 10.8587 11.9201 10.8578 11.9198 10.8575C11.9196 10.8574 11.9192 10.8569 11.919 10.8568C11.9189 10.8566 11.9184 10.8561 11.9183 10.856C11.9182 10.8557 11.9176 10.8548 11.9175 10.8545C11.9175 10.8544 11.9169 10.8538 11.9168 10.8538C11.9168 10.8537 11.9168 10.8531 11.9168 10.853C11.9167 10.8529 11.9161 10.8523 11.916 10.8523C11.916 10.8522 11.916 10.8516 11.916 10.8515C11.916 10.8514 11.916 10.8508 11.916 10.8508C11.916 10.8507 11.916 10.8501 11.916 10.85C11.916 10.8499 11.916 10.8494 11.916 10.8493C11.916 10.8492 11.916 10.8487 11.916 10.8485C11.916 10.8484 11.916 10.8478 11.916 10.8478C11.916 10.8477 11.916 10.8471 11.916 10.847C11.916 10.8469 11.916 10.8463 11.916 10.8463C11.9162 10.8461 11.9166 10.8457 11.9168 10.8455C11.917 10.8451 11.9173 10.8444 11.9175 10.844C11.9217 10.8384 11.9319 10.8331 11.9445 10.8283C12.1492 10.8004 12.5129 10.7408 12.537 10.391C12.5333 10.2088 12.4591 10.0895 12.2356 10.0565C12.0713 10.0692 11.9542 10.2281 11.973 10.403C11.9652 10.4501 11.989 10.5425 11.9408 10.553C11.6257 10.5818 11.2818 10.7792 11.2703 10.9205C11.2702 10.9205 11.2696 10.9205 11.2695 10.9205C11.2694 10.9206 11.2689 10.9211 11.2688 10.9212C11.2685 10.9214 11.2677 10.9218 11.2673 10.922C11.267 10.922 11.266 10.922 11.2658 10.922C11.2653 10.9222 11.264 10.9226 11.2635 10.9227C11.2634 10.9228 11.263 10.9227 11.2628 10.9227C11.2624 10.9227 11.2616 10.9227 11.2613 10.9227C11.2611 10.9227 11.2607 10.9227 11.2605 10.9227C11.2602 10.9228 11.2593 10.9228 11.259 10.9227C11.2582 10.9226 11.2567 10.9222 11.256 10.922C11.2355 10.9163 11.2091 10.8825 11.2133 10.835C11.2013 10.5907 11.1218 10.3144 10.9973 10.1015C10.9529 10.0571 10.9335 10.0391 10.9208 10.037C10.9204 10.037 10.9197 10.037 10.9193 10.037C10.9188 10.037 10.9177 10.037 10.917 10.037C10.9169 10.037 10.9164 10.037 10.9163 10.037C10.9162 10.037 10.9156 10.037 10.9155 10.037C10.9154 10.037 10.9149 10.037 10.9148 10.037L10.9148 10.037ZM11.7353 10.166C11.7174 10.1691 11.7002 10.1837 11.694 10.208C11.6901 10.2238 11.7016 10.2502 11.6873 10.2582C11.679 10.2665 11.647 10.2617 11.6483 10.2177C11.6483 10.2037 11.638 10.1884 11.6318 10.1795C11.6255 10.1754 11.6221 10.1742 11.6108 10.1742C11.597 10.1748 11.5966 10.1784 11.589 10.19C11.5858 10.2018 11.5815 10.2134 11.5815 10.2267C11.5798 10.2424 11.5743 10.2477 11.5628 10.25C11.5499 10.25 11.5529 10.2514 11.5425 10.2447C11.5363 10.2379 11.5283 10.2353 11.5283 10.2237C11.5283 10.2117 11.5259 10.1926 11.5223 10.1847C11.5168 10.1775 11.5074 10.1745 11.4975 10.172C11.4436 10.1722 11.4404 10.2334 11.4435 10.2567C11.4395 10.2611 11.4367 10.3717 11.5103 10.4022C11.609 10.4493 11.8442 10.4216 11.787 10.2695C11.787 10.2554 11.7832 10.2081 11.7818 10.1952C11.7717 10.1718 11.7531 10.1629 11.7353 10.166L11.7353 10.166ZM15.0465 10.3017C15.0441 10.3013 15.0412 10.3014 15.0383 10.3025C15.0383 10.3025 14.5809 10.6279 14.5695 10.6392C14.5242 10.6795 14.5469 10.8213 14.5695 10.805C14.6023 10.8176 15.0628 10.5055 15.0541 10.469C15.0741 10.4701 15.0838 10.3084 15.0466 10.3017L15.0465 10.3017ZM12.1675 10.35C12.1862 10.348 12.2107 10.3543 12.2343 10.368C12.2684 10.3877 12.2894 10.4175 12.2868 10.4392C12.2867 10.4398 12.2869 10.4409 12.2868 10.4415C12.2866 10.442 12.2854 10.4432 12.2853 10.4437C12.2851 10.4443 12.2847 10.4454 12.2845 10.446C12.2844 10.4463 12.2839 10.4471 12.2838 10.4475C12.2836 10.4478 12.2832 10.4486 12.283 10.449C12.2819 10.4508 12.28 10.4527 12.2785 10.4542C12.2621 10.4695 12.2242 10.4674 12.1885 10.4467C12.1547 10.4271 12.1338 10.3971 12.136 10.3755C12.1361 10.3749 12.1366 10.3738 12.1368 10.3732C12.1373 10.3705 12.1384 10.3681 12.1398 10.3657C12.1402 10.3649 12.1407 10.3635 12.1413 10.3627C12.1414 10.3626 12.1419 10.3621 12.142 10.362C12.143 10.3608 12.1445 10.3592 12.1458 10.3582C12.1512 10.3539 12.1589 10.3509 12.1675 10.35V10.35ZM8.16166 10.4325C7.92464 10.4368 7.57755 10.7431 7.56841 10.9132C7.81851 10.7931 8.06417 10.6775 8.31841 10.5532C8.27738 10.492 8.31592 10.4368 8.16166 10.4325L8.16166 10.4325ZM8.92966 10.539C8.9529 10.5392 8.9774 10.5507 8.99041 10.5832C9.00212 10.613 8.99097 10.6442 8.97691 10.6597C8.97684 10.6598 8.97698 10.6603 8.97691 10.6605C8.9767 10.6608 8.9764 10.6616 8.97616 10.662C8.96621 10.6748 8.93129 10.6695 8.90641 10.6695C8.87632 10.6681 8.86148 10.6632 8.84341 10.6387C8.83478 10.6115 8.86108 10.5848 8.87266 10.5645C8.87278 10.5643 8.8733 10.5639 8.87341 10.5637C8.87467 10.5618 8.87673 10.5596 8.87866 10.5577C8.88766 10.5495 8.90323 10.5418 8.91991 10.5397C8.92316 10.5393 8.92635 10.5389 8.92966 10.539L8.92966 10.539ZM14.9575 10.6333C14.9154 10.6385 14.8753 10.6783 14.8938 10.742C14.8822 10.7795 14.9509 10.9103 14.9688 10.9798C14.9848 11.0292 14.9481 11.1691 14.9815 11.1838C15.0122 11.2003 15.0931 11.1008 15.0903 10.976C15.0992 10.9119 15.0674 10.6756 14.9868 10.6355C14.9775 10.6329 14.9672 10.6321 14.9575 10.6333L14.9575 10.6333ZM9.83806 10.8643C9.80081 10.8669 9.76758 10.8868 9.78256 10.9393C9.78031 10.9774 9.8878 11.0237 9.89431 11.1118C9.90967 11.1481 9.87133 11.2645 9.90331 11.2753C9.93268 11.2874 9.97343 11.1949 9.98881 11.1088C9.99733 11.0616 9.95193 10.8967 9.87481 10.8673C9.86298 10.8647 9.85048 10.8634 9.83806 10.8643V10.8643ZM11.3703 11.0735C11.3731 11.0733 11.3756 11.0735 11.3786 11.0735C11.3791 11.0735 11.3796 11.0735 11.3801 11.0735C11.4756 11.0995 11.6164 11.1022 11.7386 11.1148C11.8381 11.1211 11.8873 11.199 11.7941 11.2318C11.7021 11.2633 11.6137 11.2879 11.6133 11.4208C11.6254 11.4866 11.6229 11.5212 11.6126 11.537C11.6118 11.5382 11.6105 11.5398 11.6096 11.5408C11.6095 11.5409 11.609 11.5414 11.6088 11.5415C11.6087 11.5417 11.6082 11.5422 11.6081 11.5423C11.6079 11.5424 11.6075 11.5429 11.6073 11.543L11.6066 11.5438C11.6063 11.5439 11.6054 11.5444 11.6051 11.5445C11.6038 11.5454 11.602 11.5462 11.6006 11.5468C11.5993 11.5472 11.5975 11.5473 11.5961 11.5475C11.5742 11.5507 11.5425 11.5299 11.5188 11.5175C11.4621 11.4768 11.303 11.3782 11.2803 11.1665C11.2771 11.1188 11.3129 11.0776 11.3703 11.0735L11.3703 11.0735ZM7.62776 11.2363C7.62179 11.2365 7.60985 11.2543 7.59401 11.2745C7.453 11.4992 7.44046 11.8345 7.51826 11.9345C7.5596 11.9818 7.62777 12.0026 7.67801 11.9878C7.7666 11.9494 7.80553 11.7699 7.78451 11.7043C7.75495 11.658 7.73152 11.6507 7.70201 11.69C7.63967 11.8166 7.61373 11.73 7.60826 11.6593C7.59871 11.5252 7.6117 11.4016 7.62626 11.3038C7.63401 11.2537 7.63373 11.2361 7.62776 11.2363L7.62776 11.2363ZM12.4316 11.5312C12.4211 11.5307 12.4099 11.5323 12.3986 11.538C12.3964 11.538 12.2977 11.6047 12.2658 11.6512C12.2464 11.666 12.2486 11.6788 12.2546 11.7045C12.2697 11.7393 12.2964 11.7283 12.3266 11.712C12.3667 11.7065 12.3861 11.7328 12.3829 11.781C12.3643 11.8411 12.3911 11.8635 12.3911 11.8672C12.3911 11.871 12.4297 11.9042 12.4751 11.8777C12.5708 11.8412 12.6305 11.8056 12.7646 11.7765C12.7998 11.7758 12.7978 11.6816 12.7421 11.6782C12.6695 11.6819 12.6025 11.6856 12.5298 11.7427C12.4852 11.7531 12.4775 11.7259 12.4676 11.7015C12.4562 11.641 12.4931 11.5983 12.4856 11.553C12.4876 11.555 12.463 11.5329 12.4316 11.5312H12.4316ZM15.5074 11.646C15.4896 11.6465 15.4709 11.649 15.4437 11.6512C15.4143 11.6575 15.404 11.6704 15.3987 11.706C15.4008 11.76 15.4338 11.7574 15.4677 11.7787C15.4873 11.8037 15.5 11.8263 15.4662 11.8672C15.4341 11.8966 15.4113 11.9128 15.3792 11.9422C15.364 11.9681 15.3546 12.0078 15.4009 12.0202C15.4865 12.0443 15.6844 11.9157 15.6844 11.913C15.7165 11.8889 15.7059 11.8432 15.7032 11.8432C15.6845 11.8219 15.6423 11.8347 15.6139 11.8312C15.6004 11.8312 15.5561 11.8247 15.5772 11.7855C15.5948 11.7611 15.6013 11.7465 15.6132 11.7165C15.6265 11.6871 15.6148 11.6673 15.5667 11.6512C15.5422 11.6468 15.5252 11.6454 15.5074 11.646L15.5074 11.646ZM14.2225 14.2476C14.2223 14.2477 14.2219 14.2482 14.2217 14.2483C14.0795 14.2848 14.0839 14.4325 14.1752 14.4973C12.673 14.4973 10.3676 14.4718 9.87323 14.4718C9.59663 14.4718 8.72154 14.4388 8.70472 14.4388C8.89239 14.7133 9.16425 14.7692 9.51997 14.7748C10.1872 14.7748 13.2789 14.7666 14.1587 14.7666C14.0961 14.8776 14.1644 15.0564 14.2134 15.0891C14.2145 15.0898 14.2162 15.0908 14.2172 15.0914C14.219 15.0923 14.2214 15.0931 14.2232 15.0936C14.2238 15.0937 14.2249 15.0935 14.2254 15.0936C14.2837 15.1073 14.3093 15.0652 14.3289 15.0343C14.4234 15.0427 14.9553 15.0504 15.0039 15.0336C15.0041 15.0335 15.0045 15.0329 15.0047 15.0328C15.0376 15.0813 15.0703 15.1271 15.1329 15.1191C15.2426 15.0956 15.329 15.0837 15.3317 14.8611C15.3317 14.8611 15.3205 14.4819 15.0714 14.5056C15.0125 14.5145 14.8472 14.5311 14.8472 14.5311C14.6559 14.5083 14.5155 14.506 14.3004 14.4981C14.3203 14.4729 14.3553 14.3708 14.3124 14.3339C14.3012 14.3246 14.2846 14.3194 14.2614 14.3211C14.2613 14.3211 14.2609 14.3211 14.2607 14.3211C14.2604 14.3211 14.2595 14.3212 14.2592 14.3211C14.259 14.3211 14.2586 14.3204 14.2584 14.3204C14.2578 14.3201 14.2568 14.32 14.2562 14.3196C14.255 14.3188 14.2535 14.3171 14.2524 14.3159C14.2522 14.3155 14.2512 14.3147 14.2509 14.3144C14.2401 14.2985 14.2341 14.2597 14.2269 14.2499C14.2268 14.2498 14.2263 14.2492 14.2262 14.2491C14.2261 14.249 14.2255 14.2484 14.2254 14.2484C14.2252 14.2482 14.2242 14.2477 14.2239 14.2476C14.2238 14.2476 14.2233 14.2476 14.2232 14.2476C14.2231 14.2476 14.2225 14.2476 14.2224 14.2476L14.2225 14.2476ZM14.3245 14.7898C14.3247 14.7897 14.325 14.79 14.3252 14.7898C14.5444 14.8005 14.7503 14.7919 14.9695 14.8026C15.0042 14.8321 14.9868 14.8998 14.9642 14.9121C14.9632 14.9126 14.9615 14.9133 14.9605 14.9136C14.9597 14.9138 14.9583 14.9136 14.9575 14.9136C14.9567 14.9136 14.9553 14.9138 14.9545 14.9136C14.8832 14.9118 14.842 14.9101 14.7707 14.9083C14.7706 14.9048 14.7702 14.901 14.7692 14.8978C14.7523 14.8478 14.63 14.8511 14.6012 14.8903C14.6008 14.8909 14.6001 14.892 14.5997 14.8926C14.5993 14.8934 14.5986 14.8948 14.5982 14.8956C14.5978 14.8966 14.5971 14.8983 14.5967 14.8993C14.5963 14.9008 14.5962 14.903 14.596 14.9046C14.5958 14.9064 14.5951 14.9087 14.5952 14.9106C14.499 14.9222 14.4124 14.9074 14.3162 14.9038C14.288 14.8687 14.2913 14.8051 14.3245 14.7898L14.3245 14.7898Z" fill="white"/>
<path d="M20 6L20 18L4 18L4 6L20 6ZM20 5L4 5C3.4 5 3 5.4 3 6L3 18C3 18.6 3.4 19 4 19L20 19C20.6 19 21 18.6 21 18L21 6C21 5.4 20.6 5 20 5Z" fill="#B5B5B5"/>
</svg>
