<svg width="24" height="24" viewBox="0 0 24 24" fill="none" xmlns="http://www.w3.org/2000/svg">
<path d="M20 6H4V18H20V6Z" fill="#EE1C25"/>
<path d="M20 6H4V14H20V6Z" fill="#0B4EA2"/>
<path d="M20 6H4V10H20V6Z" fill="white"/>
<path d="M9.77258 15.2705C8.79091 14.7524 7.38672 13.724 7.38672 11.6898C7.38672 9.65559 7.47548 8.73047 7.47548 8.73047H9.77258H12.0697C12.0697 8.73047 12.1585 9.65559 12.1585 11.6898C12.1585 13.724 10.7543 14.7524 9.77258 15.2705Z" fill="white"/>
<path d="M9.77284 15C8.87223 14.5247 7.58398 13.5812 7.58398 11.715C7.58398 9.84872 7.66542 9 7.66542 9H9.77285H11.8803C11.8803 9 11.9618 9.84873 11.9618 11.715C11.9618 13.5812 10.6735 14.5247 9.77286 15H9.77284Z" fill="#EE1C25"/>
<path d="M9.96501 11.2236C10.2089 11.2279 10.6846 11.2384 11.1083 11.083C11.1083 11.083 11.0971 11.2491 11.0971 11.4426C11.0971 11.6362 11.1083 11.8023 11.1083 11.8023C10.7197 11.6598 10.2398 11.6568 9.96501 11.6607V12.6914H9.57981V11.6607C9.30502 11.6568 8.82514 11.6598 8.43652 11.8023C8.43652 11.8023 8.44771 11.6362 8.44771 11.4426C8.44771 11.2491 8.43652 11.083 8.43652 11.083C8.86018 11.2384 9.33595 11.2279 9.57981 11.2236V10.5762C9.35755 10.5741 9.03727 10.5857 8.67513 10.7185C8.67513 10.7185 8.68632 10.5524 8.68632 10.3588C8.68632 10.1653 8.67513 9.99921 8.67513 9.99921C9.03673 10.1318 9.35662 10.1436 9.57882 10.1415C9.5674 9.73152 9.45841 9.21484 9.45841 9.21484C9.45841 9.21484 9.68272 9.23402 9.77239 9.23402C9.86215 9.23402 10.0864 9.21484 10.0864 9.21484C10.0864 9.21484 9.97744 9.73154 9.96599 10.1414C10.1882 10.1436 10.5081 10.1317 10.8697 9.99917C10.8697 9.99917 10.8585 10.1653 10.8585 10.3588C10.8585 10.5523 10.8697 10.7184 10.8697 10.7184C10.5076 10.5857 10.1873 10.574 9.96501 10.5762V11.2235L9.96501 11.2236Z" fill="white"/>
<path d="M9.77199 12.582C9.31846 12.582 9.07552 13.2714 9.07552 13.2714C9.07552 13.2714 8.94075 12.9445 8.57071 12.9445C8.32035 12.9445 8.13584 13.1886 8.01855 13.4145C8.47404 14.2086 9.20077 14.6987 9.77199 15.0002C10.3433 14.6987 11.0705 14.2087 11.526 13.4145C11.4087 13.1886 11.2242 12.9445 10.9738 12.9445C10.6038 12.9445 10.4685 13.2714 10.4685 13.2714C10.4685 13.2714 10.2256 12.582 9.77199 12.582H9.77199Z" fill="#0B4EA2"/>
<path d="M20 6L20 18L4 18L4 6L20 6ZM20 5L4 5C3.4 5 3 5.4 3 6L3 18C3 18.6 3.4 19 4 19L20 19C20.6 19 21 18.6 21 18L21 6C21 5.4 20.6 5 20 5Z" fill="#B5B5B5"/>
</svg>
