<svg width="24" height="24" viewBox="0 0 24 24" fill="none" xmlns="http://www.w3.org/2000/svg">
<path d="M20 6H4V18H20V6Z" fill="#ED1C24"/>
<path d="M20 6H4V14H20V6Z" fill="#005DA4"/>
<path d="M20 6H4V10H20V6Z" fill="white"/>
<g clip-path="url(#clip0_14099_123545)">
<path d="M8.42606 10.2089L8.55206 8.34925C8.06684 8.11931 7.53661 8.00003 6.99966 8.00003C6.46272 8.00003 5.93248 8.11931 5.44727 8.34925L5.57327 10.2089C5.6009 10.617 5.7522 11.007 6.00703 11.327C6.26185 11.6469 6.6081 11.8817 6.99966 12C7.39123 11.8817 7.73748 11.6469 7.9923 11.327C8.24712 11.007 8.39843 10.617 8.42606 10.2089Z" fill="#005DA4"/>
<path d="M5.83496 10.4608C5.90133 10.7596 6.04323 11.0363 6.24707 11.2645C6.45091 11.4928 6.7099 11.6649 6.99926 11.7645C7.28862 11.6649 7.5476 11.4928 7.75145 11.2645C7.95529 11.0363 8.09719 10.7596 8.16356 10.4608L7.58141 9.68464L7.34855 9.99512L6.99926 9.29654L6.64997 9.99512L6.41711 9.68464L5.83496 10.4608Z" fill="white"/>
<path d="M5.8877 10.6562C5.91318 10.7004 5.9471 10.7391 5.98754 10.7701C6.02797 10.8011 6.07412 10.8239 6.12335 10.8371C6.17258 10.8503 6.22393 10.8536 6.27446 10.847C6.32499 10.8403 6.37371 10.8238 6.41785 10.7983C6.47685 10.7642 6.54378 10.7463 6.6119 10.7463C6.68003 10.7463 6.74695 10.7642 6.80595 10.7983C6.86495 10.8324 6.93188 10.8503 7 10.8503C7.06813 10.8503 7.13505 10.8324 7.19405 10.7983C7.25305 10.7642 7.31998 10.7463 7.3881 10.7463C7.45623 10.7463 7.52315 10.7642 7.58215 10.7983C7.62629 10.8238 7.67501 10.8403 7.72555 10.847C7.77608 10.8536 7.82742 10.8503 7.87665 10.8371C7.92588 10.8239 7.97203 10.8011 8.01246 10.7701C8.0529 10.7391 8.08683 10.7004 8.11231 10.6562V10.7683C8.08683 10.8124 8.0529 10.8511 8.01246 10.8821C7.97203 10.9132 7.92588 10.9359 7.87665 10.9491C7.82742 10.9623 7.77608 10.9657 7.72555 10.959C7.67501 10.9524 7.62629 10.9358 7.58215 10.9103C7.52315 10.8763 7.45623 10.8583 7.3881 10.8583C7.31998 10.8583 7.25305 10.8763 7.19405 10.9103C7.13505 10.9444 7.06813 10.9623 7 10.9623C6.93188 10.9623 6.86495 10.9444 6.80595 10.9103C6.74695 10.8763 6.68003 10.8583 6.6119 10.8583C6.54378 10.8583 6.47685 10.8763 6.41785 10.9103C6.37371 10.9358 6.32499 10.9524 6.27446 10.959C6.22393 10.9657 6.17258 10.9623 6.12335 10.9491C6.07412 10.9359 6.02797 10.9132 5.98754 10.8821C5.9471 10.8511 5.91318 10.8124 5.8877 10.7683V10.6562Z" fill="#005DA4"/>
<path d="M7.00006 8.76562L7.02917 8.86075L7.1261 8.83839L7.05828 8.91116L7.1261 8.98393L7.02917 8.96158L7.00006 9.0567L6.97095 8.96158L6.87402 8.98393L6.94185 8.91116L6.87402 8.83839L6.97095 8.86075L7.00006 8.76562Z" fill="#FFDD00"/>
<path d="M5.55619 8.29688L5.68504 10.1984C5.71078 10.578 5.84983 10.9412 6.0842 11.2409C6.31857 11.5406 6.63747 11.7631 6.99966 11.8796C7.36186 11.7631 7.68076 11.5406 7.91513 11.2409C8.1495 10.9412 8.28855 10.578 8.31429 10.1984L8.44314 8.29688C8.47917 8.31395 8.51548 8.33042 8.55206 8.34629L8.42606 10.2059C8.39843 10.614 8.24712 11.004 7.9923 11.324C7.73748 11.644 7.39123 11.8787 6.99966 11.997C6.6081 11.8787 6.26185 11.644 6.00703 11.324C5.7522 11.004 5.6009 10.614 5.57327 10.2059L5.44727 8.34629C5.48384 8.33042 5.52016 8.31395 5.55619 8.29688Z" fill="#ED1C24"/>
</g>
<path d="M20 6L20 18L4 18L4 6L20 6ZM20 5L4 5C3.4 5 3 5.4 3 6L3 18C3 18.6 3.4 19 4 19L20 19C20.6 19 21 18.6 21 18L21 6C21 5.4 20.6 5 20 5Z" fill="none"/>
<defs>
<clipPath id="clip0_14099_123545">
<rect width="3.10488" height="3.99986" fill="white" transform="translate(5.44727 8)"/>
</clipPath>
</defs>
</svg>
