<svg width="24" height="24" viewBox="0 0 24 24" fill="none" xmlns="http://www.w3.org/2000/svg">
<path d="M4 6V18H20.3636V6H4Z" fill="#002395"/>
<path d="M4 6V12H20.3636V6H4Z" fill="#DE3831"/>
<path d="M4 6L12.1818 12L4 18M12.1818 12H20.3636H12.1818Z" fill="black"/>
<path d="M4 6L12.1818 12M12.1818 12L4 18M12.1818 12H20.3636" stroke="white"/>
<path d="M20 6L20 18L4 18L4 6L20 6ZM20 5L4 5C3.4 5 3 5.4 3 6L3 18C3 18.6 3.4 19 4 19L20 19C20.6 19 21 18.6 21 18L21 6C21 5.4 20.6 5 20 5Z" fill="none"/>
<g clip-path="url(#clip0_14099_123581)">
<path d="M20 6H4V18H20V6Z" fill="#000C8A"/>
<path d="M4 6H20V10H4V6Z" fill="#E1392D"/>
<path d="M4 6H7.2L12.52 10H20V14H12.52L7.2 18H4V6Z" fill="white"/>
<path d="M4 6H5.94L12.3 10.7865H20V13.2135H12.3L5.94 18H4V6Z" fill="#007847"/>
<path d="M4 7.46069L10.08 12L4 16.5393V7.46069Z" fill="#FFB915"/>
<path d="M4 8.40448L8.8 12L4 15.5955V8.40448Z" fill="black"/>
</g>
<defs>
<clipPath id="clip0_14099_123581">
<rect width="16" height="12" fill="white" transform="translate(4 6)"/>
</clipPath>
</defs>
</svg>
