<svg width="24" height="24" viewBox="0 0 24 24" fill="none" xmlns="http://www.w3.org/2000/svg">
<path d="M20 6H4V18H20V6Z" fill="#078930"/>
<path d="M20 6H4V15H20V6Z" fill="white"/>
<path d="M20 6H4V9H20V6Z" fill="black"/>
<path d="M20 10.5H4V13.5H20V10.5Z" fill="#DA121A"/>
<path d="M4 6L14 12L4 18V6Z" fill="#0F47AF"/>
<path d="M5 12.5L8 13.4271L6.1459 11V14L8 11.5729L5 12.5Z" fill="#FCDD09"/>
<path d="M20 6L20 18L4 18L4 6L20 6ZM20 5L4 5C3.4 5 3 5.4 3 6L3 18C3 18.6 3.4 19 4 19L20 19C20.6 19 21 18.6 21 18L21 6C21 5.4 20.6 5 20 5Z" fill="#B5B5B5"/>
</svg>
