<svg width="24" height="24" viewBox="0 0 24 24" fill="none" xmlns="http://www.w3.org/2000/svg">
<path d="M20 6H4V18H20V6Z" fill="#3E5EB9"/>
<path d="M20 8H4V16H20V8Z" fill="#FFD900"/>
<path d="M20 9H4V15H20V9Z" fill="#B10C0C"/>
<path d="M17.7852 10.6289L17.0566 10.886L17.7852 11.1432L18.5137 10.886L17.7852 10.6289Z" fill="white" stroke="black" stroke-width="0.1"/>
<path d="M17.3063 10.8008H6.77873C6.72727 10.8008 6.68555 10.8392 6.68555 10.8865C6.68555 10.9338 6.72727 10.9722 6.77873 10.9722H17.3063C17.3577 10.9722 17.3994 10.9338 17.3994 10.8865C17.3994 10.8392 17.3577 10.8008 17.3063 10.8008Z" fill="#FFD900" stroke="black" stroke-width="0.1"/>
<path d="M17.1436 10.9722C17.1864 10.9722 17.2293 10.9293 17.2293 10.8865C17.2293 10.8437 17.1864 10.8008 17.1436 10.8008" fill="#FFD900"/>
<path d="M17.1436 10.9722C17.1864 10.9722 17.2293 10.9293 17.2293 10.8865C17.2293 10.8437 17.1864 10.8008 17.1436 10.8008" stroke="black" stroke-width="0.1"/>
<path d="M17.0576 10.9722C17.1004 10.9722 17.1434 10.9293 17.1434 10.8865C17.1434 10.8437 17.1005 10.8008 17.0576 10.8008" fill="#FFD900"/>
<path d="M17.0576 10.9722C17.1004 10.9722 17.1434 10.9293 17.1434 10.8865C17.1434 10.8437 17.1005 10.8008 17.0576 10.8008" stroke="black" stroke-width="0.1"/>
<path d="M16.9717 10.9722C17.0145 10.9722 17.0574 10.9293 17.0574 10.8865C17.0574 10.8437 17.0145 10.8008 16.9717 10.8008" fill="#FFD900"/>
<path d="M16.9717 10.9722C17.0145 10.9722 17.0574 10.9293 17.0574 10.8865C17.0574 10.8437 17.0145 10.8008 16.9717 10.8008" stroke="black" stroke-width="0.1"/>
<path d="M19.2382 11.8711H4.92067C4.85068 11.8711 4.79395 11.9287 4.79395 11.9997C4.79395 12.0707 4.85068 12.1282 4.92067 12.1282H19.2382C19.3082 12.1282 19.3649 12.0707 19.3649 11.9997C19.3649 11.9287 19.3082 11.8711 19.2382 11.8711Z" fill="#FFD900" stroke="black" stroke-width="0.1"/>
<path d="M16.2855 12.0012C15.4283 12.8582 14.2854 14.5725 11.9997 14.5725C9.99963 14.5725 8.57127 12.8582 7.71387 12.0012C8.571 11.1439 9.99951 9.42969 11.9997 9.42969C14.2853 9.42969 15.4281 11.1439 16.2855 12.0012Z" fill="white" stroke="black" stroke-width="0.1"/>
<path d="M11.7002 10.3243C11.9283 10.5808 11.7379 10.6842 11.9792 10.701C12.2338 10.7197 12.0895 10.972 12.3036 10.9808C12.4533 10.9873 12.2887 11.5853 12.4327 11.7827C12.5795 11.9884 12.7025 11.8429 12.7051 11.9916C12.7076 12.1453 12.3055 12.1298 12.2985 12.6033C12.2867 12.8761 11.9592 12.8936 11.9436 13.0692C11.9241 13.2343 12.5888 13.327 12.5799 13.4749C12.5708 13.6223 11.8622 13.5992 11.8314 13.7673C11.8156 13.9183 12.8048 14.042 12.8843 14.4787C12.7367 14.527 12.3168 14.5724 11.9994 14.5726C9.99966 14.5741 8.57097 12.8582 7.71387 12.0012C8.571 11.1439 9.99951 9.42969 11.9997 9.42969C11.9997 9.42969 11.406 9.97215 11.7005 10.3241L11.7002 10.3243Z" fill="black"/>
<path d="M9.41797 11.7716V11.0859V11.7716ZM9.83347 11.0859V11.7716V11.0859ZM10.2493 11.0859V11.7716V11.0859Z" fill="black"/>
<path d="M9.41797 11.7716V11.0859M9.83347 11.0859V11.7716M10.2493 11.0859V11.7716" stroke="white" stroke-width="0.1"/>
<path d="M18.3401 11.8984C18.2103 12.1233 18.4397 11.8236 18.9997 12.2001C19.1034 12.27 19.1941 12.4548 19.1941 12.5829C19.1677 12.5653 19.1482 12.5261 19.1192 12.5006C19.0786 12.5413 19.158 12.7279 19.1696 12.8161C19.082 12.7671 19.0905 12.7439 19.0614 12.6837C19.0672 12.7565 19.0464 12.9569 19.0812 13.0341C19.0122 13.0144 19.0168 12.9589 18.9808 12.9477C19.0053 13.0351 18.9594 13.1301 18.9716 13.2284C18.9313 13.1885 18.8883 13.1572 18.8696 13.1411C18.8664 13.1879 18.792 13.3108 18.7903 13.355C18.7561 13.3343 18.7468 13.3021 18.7411 13.2804C18.6986 13.3338 18.5475 13.5312 18.5378 13.5913C18.4214 13.4885 18.1231 13.2381 18.0843 13.1052C18.05 13.1806 18.0003 13.2061 17.9021 13.2612C17.8633 13.0505 17.7182 12.8137 17.7958 12.6331C17.7409 12.6657 17.6956 12.6984 17.6406 12.7385C17.6927 12.4334 17.9582 12.0756 18.3402 11.8984H18.3401Z" fill="#3D5DA7" stroke="black" stroke-width="0.1"/>
<path d="M17.8555 13.0151C17.9094 12.9074 17.959 12.8732 17.9939 12.8038C18.0554 12.6818 18.0642 12.5848 18.1178 12.599C18.1714 12.6133 18.1713 12.6632 18.1019 12.7831C18.0324 12.903 17.9994 12.9287 17.8555 13.0151Z" fill="#A70000"/>
<path d="M18.2203 13.2684C18.2134 13.1863 18.2372 13.1521 18.2329 13.0992C18.2254 13.0063 18.1874 12.9424 18.2369 12.9379C18.2863 12.9334 18.3094 12.9651 18.3096 13.0588C18.3097 13.1525 18.2952 13.1771 18.2203 13.2684L18.2203 13.2684Z" fill="#A70000"/>
<path d="M18.4969 13.4292C18.4753 13.3146 18.4915 13.2638 18.4776 13.19C18.4536 13.0602 18.406 12.9747 18.4518 12.9629C18.4976 12.951 18.5253 12.993 18.5426 13.1246C18.5599 13.2563 18.5508 13.2925 18.4969 13.4292Z" fill="#A70000"/>
<path d="M18.7846 12.6301C18.717 12.5788 18.6776 12.5754 18.634 12.5424C18.5573 12.4846 18.5185 12.4227 18.4938 12.4535C18.4691 12.4842 18.4866 12.5178 18.567 12.5711C18.6474 12.6245 18.6747 12.6287 18.7846 12.6301H18.7846Z" fill="#A70000"/>
<path d="M18.7371 13.0072C18.7014 12.9332 18.664 12.9145 18.6409 12.8669C18.6002 12.7833 18.6002 12.711 18.556 12.7295C18.5118 12.748 18.5083 12.7859 18.5555 12.8668C18.6027 12.9477 18.6275 12.9624 18.7371 13.0072Z" fill="#A70000"/>
<path d="M5.42312 12.1152C5.41585 12.0497 5.42987 12.0419 5.38958 11.9925C5.44823 12.017 5.45045 12.0822 5.52176 12.0359C5.54795 12.0224 5.55938 12.022 5.52755 11.9492C5.60192 11.9527 5.84543 12.0362 5.88443 12.0381C5.98682 12.0428 6.17375 11.9305 6.3035 12.0686C6.42803 12.1945 6.38644 12.3251 6.38644 12.4994C6.3364 12.4755 6.36053 12.4637 6.30743 12.4013C6.34724 12.5537 6.3053 12.8284 6.3053 12.99C6.28487 12.9511 6.28787 12.968 6.26789 12.9276C6.21479 13.0751 6.15116 13.1055 6.15116 13.2798C6.13199 13.2115 6.1505 13.2259 6.12917 13.19C6.07757 13.3019 5.73136 13.3976 5.86478 13.5105C5.74435 13.4399 5.69156 13.4474 5.63696 13.3838C5.61344 13.399 5.59475 13.4278 5.57288 13.4672C5.36117 13.3697 5.43686 13.1597 5.27102 13.0193C5.24231 13.0781 5.25539 13.0696 5.22436 13.1654C5.1908 13.0324 5.18162 12.9479 5.14385 12.8501C5.11127 12.9043 5.11418 12.8835 5.05502 12.9654C5.03054 12.8034 4.9907 12.7651 5.00645 12.6579C4.94357 12.7023 4.98472 12.6843 4.92188 12.7389C4.98142 12.3237 5.23862 12.0169 5.42318 12.1151L5.42312 12.1152Z" fill="#3D5DA7" stroke="black" stroke-width="0.1"/>
<path d="M5.16309 12.7947C5.21763 12.661 5.2668 12.619 5.30205 12.5329C5.3643 12.3817 5.37444 12.2608 5.42673 12.2792C5.47902 12.2977 5.47818 12.3599 5.40822 12.5086C5.33826 12.6572 5.30553 12.6887 5.16309 12.7946V12.7947Z" fill="#A70000"/>
<path d="M5.36917 13.1285C5.39104 13.0087 5.42554 12.965 5.43973 12.8878C5.4649 12.7521 5.45086 12.6511 5.49946 12.6564C5.54806 12.6617 5.55904 12.7129 5.5267 12.8479C5.49436 12.983 5.47204 13.0149 5.36914 13.1285H5.36917Z" fill="#A70000"/>
<path d="M5.61621 13.361C5.62236 13.2448 5.6496 13.1995 5.65368 13.1246C5.66106 12.993 5.63571 12.8987 5.68206 12.8982C5.72841 12.8977 5.74491 12.945 5.73072 13.0768C5.71653 13.2086 5.69937 13.2415 5.61621 13.361Z" fill="#A70000"/>
<path d="M6.147 12.6025C6.04557 12.5015 5.98425 12.4826 5.91882 12.4177C5.80356 12.3035 5.74788 12.1964 5.70684 12.2344C5.6658 12.2723 5.69049 12.3293 5.81184 12.4379C5.93319 12.5465 5.9754 12.5623 6.147 12.6025Z" fill="#A70000"/>
<path d="M6.08462 12.9911C6.01856 12.8897 5.97008 12.8634 5.92742 12.7981C5.85221 12.6834 5.82635 12.5848 5.78372 12.6092C5.74106 12.6336 5.7506 12.6851 5.83211 12.7964C5.91362 12.9075 5.94641 12.928 6.08462 12.9911V12.9911Z" fill="#A70000"/>
<path d="M10.6134 9.88672C10.4946 10.1164 10.8213 9.81034 11.3333 10.1948C11.4282 10.2662 11.5642 10.5484 11.5642 10.6792C11.4552 10.656 11.2621 10.5484 11.2621 10.5484C11.2621 10.5484 11.4887 10.7753 11.4887 11.0369C11.4087 10.9869 11.3686 10.9944 11.342 10.9329C11.342 11.0176 11.4132 11.0716 11.4132 11.2024C11.3554 11.1563 11.3065 11.1256 11.2576 11.0986C11.3331 11.2294 11.12 11.4831 11.2266 11.5678C11.0401 11.5409 10.8492 11.4217 10.7737 11.2909C10.7337 11.3178 10.7294 11.3602 10.7278 11.4053C10.7337 11.4102 10.4439 11.1902 10.4705 11.1057C10.4316 11.1602 10.4262 11.1902 10.4173 11.2517C10.3108 11.1467 10.2132 11.0417 10.1777 10.9059C10.1304 10.9674 10.1274 10.9674 10.0801 11.0289C10.0446 10.8137 10.0446 10.8214 10.1156 10.637C10.0653 10.6703 10.0239 10.7036 9.97363 10.7446C10.0212 10.4331 10.2641 10.0677 10.6134 9.88681L10.6134 9.88672Z" fill="#3D5DA7" stroke="black" stroke-width="0.1"/>
<path d="M10.3203 11.0095C10.3393 10.8513 10.3807 10.7917 10.393 10.6898C10.4151 10.5106 10.3889 10.3795 10.4524 10.3829C10.5159 10.3862 10.5342 10.4523 10.5028 10.6312C10.4715 10.81 10.445 10.8534 10.3203 11.0096V11.0095Z" fill="#A70000"/>
<path d="M10.6523 11.2985C10.6394 11.165 10.6641 11.1082 10.6559 11.0221C10.6418 10.8708 10.5951 10.7683 10.6504 10.7589C10.7058 10.7495 10.7337 10.8002 10.7397 10.953C10.7457 11.1058 10.7309 11.1465 10.6523 11.2985H10.6523Z" fill="#A70000"/>
<path d="M11.1698 11.5345C11.1135 11.419 11.0652 11.3846 11.0288 11.3102C10.9647 11.1795 10.9513 11.0728 10.9018 11.0921C10.8523 11.1115 10.855 11.1667 10.9265 11.2946C10.998 11.4225 11.0303 11.4486 11.1698 11.5345Z" fill="#A70000"/>
<path d="M11.349 10.4987C11.2056 10.4232 11.132 10.4223 11.0396 10.3738C10.877 10.2888 10.7823 10.1927 10.7487 10.2456C10.7151 10.2985 10.7599 10.351 10.9276 10.4283C11.0953 10.5056 11.1468 10.5092 11.349 10.4987H11.349Z" fill="#A70000"/>
<path d="M11.4012 10.9329C11.2969 10.8461 11.2352 10.8333 11.1678 10.7774C11.0493 10.6794 10.9902 10.5831 10.9506 10.6222C10.911 10.6612 10.9375 10.7127 11.0619 10.8051C11.1864 10.8974 11.229 10.9089 11.4012 10.9329Z" fill="#A70000"/>
<path d="M20 6L20 18L4 18L4 6L20 6ZM20 5L4 5C3.4 5 3 5.4 3 6L3 18C3 18.6 3.4 19 4 19L20 19C20.6 19 21 18.6 21 18L21 6C21 5.4 20.6 5 20 5Z" fill="#B5B5B5"/>
</svg>
