<svg width="24" height="24" viewBox="0 0 24 24" fill="none" xmlns="http://www.w3.org/2000/svg">
<path d="M20 6H4V18H20V6Z" fill="black"/>
<path d="M20 6H4V14H20V6Z" fill="white"/>
<path d="M20 6H4V10H20V6Z" fill="#CE1126"/>
<path d="M20 6L20 18L4 18L4 6L20 6ZM20 5L4 5C3.4 5 3 5.4 3 6L3 18C3 18.6 3.4 19 4 19L20 19C20.6 19 21 18.6 21 18L21 6C21 5.4 20.6 5 20 5Z" fill="none"/>
<path d="M8.5 10.5L8.83677 11.5365H9.92658L9.04491 12.1771L9.38168 13.2135L8.5 12.5729L7.61832 13.2135L7.95509 12.1771L7.07342 11.5365H8.16323L8.5 10.5Z" fill="#007A3D"/>
<path d="M15.5 10.5L15.8368 11.5365H16.9266L16.0449 12.1771L16.3817 13.2135L15.5 12.5729L14.6183 13.2135L14.9551 12.1771L14.0734 11.5365H15.1632L15.5 10.5Z" fill="#007A3D"/>
</svg>
