<svg width="24" height="24" viewBox="0 0 24 24" fill="none" xmlns="http://www.w3.org/2000/svg">
<path d="M20 6H4V18H20V6Z" fill="#FE0000"/>
<path d="M12 6H4V12H12V6Z" fill="#000095"/>
<path d="M8.53333 9L8 11L7.46667 9L8 7M8 9.53333L10 9L8 8.46667L6 9" fill="white"/>
<path d="M8.418 9.33088L6.75895 10.5686L7.58142 8.66914L9.24047 7.43141M7.66884 9.4183L9.56831 10.2408L8.33058 8.58171L6.43111 7.75924" fill="white"/>
<path d="M8 10C8.55228 10 9 9.55228 9 9C9 8.44772 8.55228 8 8 8C7.44772 8 7 8.44772 7 9C7 9.55228 7.44772 10 8 10Z" fill="#000095"/>
<path d="M7.99961 9.90156C8.49667 9.90156 8.89961 9.49862 8.89961 9.00156C8.89961 8.50451 8.49667 8.10156 7.99961 8.10156C7.50255 8.10156 7.09961 8.50451 7.09961 9.00156C7.09961 9.49862 7.50255 9.90156 7.99961 9.90156Z" fill="white"/>
<path d="M20 6L20 18L4 18L4 6L20 6ZM20 5L4 5C3.4 5 3 5.4 3 6L3 18C3 18.6 3.4 19 4 19L20 19C20.6 19 21 18.6 21 18L21 6C21 5.4 20.6 5 20 5Z" fill="#B5B5B5"/>
</svg>
