<svg width="24" height="24" viewBox="0 0 24 24" fill="none" xmlns="http://www.w3.org/2000/svg">
<path d="M20 6H4V18H20V6Z" fill="#006A4E"/>
<path d="M20 8H4V10H20V8Z" fill="#FFCE00"/>
<path d="M20 14H4V16H20V14Z" fill="#FFCE00"/>
<path d="M10.6749 6H4V12.6H10.6749V6Z" fill="#D21034"/>
<path d="M20 6L20 18L4 18L4 6L20 6ZM20 5L4 5C3.4 5 3 5.4 3 6L3 18C3 18.6 3.4 19 4 19L20 19C20.6 19 21 18.6 21 18L21 6C21 5.4 20.6 5 20 5Z" fill="none"/>
<path d="M7.5 7L8.06129 8.72746H9.87764L8.40818 9.79508L8.96946 11.5225L7.5 10.4549L6.03054 11.5225L6.59182 9.79508L5.12236 8.72746H6.93871L7.5 7Z" fill="white"/>
</svg>
