<svg width="24" height="24" viewBox="0 0 24 24" fill="none" xmlns="http://www.w3.org/2000/svg">
<path d="M20 6H4V18H20V6Z" fill="#00247D"/>
<path d="M6.92766 15.9098C6.76824 15.9085 8.42654 15.026 9.8145 13.8956C11.6336 12.4141 15.5513 10.0422 16.7031 9.65678C16.8235 9.61649 16.4562 9.86187 16.4085 9.94136C15.1788 11.3968 16.1603 14.1433 17.6972 15.524C18.1593 15.8775 18.1357 15.896 18.9924 15.9306V16.0106L6.92766 15.9098Z" fill="#FED100"/>
<path d="M6.8276 16.0703C6.8276 16.0703 6.7106 16.1539 6.71094 16.2161C6.71132 16.2852 6.84219 16.3766 6.84219 16.3766L18.7421 16.5078L18.9609 16.362L18.6546 16.1724L6.8276 16.0703Z" fill="#FED100"/>
<path d="M20 6L20 18L4 18L4 6L20 6ZM20 5L4 5C3.4 5 3 5.4 3 6L3 18C3 18.6 3.4 19 4 19L20 19C20.6 19 21 18.6 21 18L21 6C21 5.4 20.6 5 20 5Z" fill="#B5B5B5"/>
</svg>
