<svg width="24" height="24" viewBox="0 0 24 24" fill="none" xmlns="http://www.w3.org/2000/svg">
<path d="M20 6H4V18H20V6Z" fill="#E70013"/>
<path d="M12.25 14.25C13.7688 14.25 15 13.0188 15 11.5C15 9.98122 13.7688 8.75 12.25 8.75C10.7312 8.75 9.5 9.98122 9.5 11.5C9.5 13.0188 10.7312 14.25 12.25 14.25Z" fill="white"/>
<path d="M12.25 13.5625C13.3891 13.5625 14.3125 12.6391 14.3125 11.5C14.3125 10.3609 13.3891 9.4375 12.25 9.4375C11.1109 9.4375 10.1875 10.3609 10.1875 11.5C10.1875 12.6391 11.1109 13.5625 12.25 13.5625Z" fill="#E70013"/>
<path d="M12.7999 13.1516C13.7112 13.1516 14.4499 12.4128 14.4499 11.5016C14.4499 10.5903 13.7112 9.85156 12.7999 9.85156C11.8886 9.85156 11.1499 10.5903 11.1499 11.5016C11.1499 12.4128 11.8886 13.1516 12.7999 13.1516Z" fill="white"/>
<path d="M11.5625 11.4988L13.8012 10.7715L12.4176 12.6758V10.3219L13.8012 12.2262L11.5625 11.4988Z" fill="#E70013"/>
<path d="M20 6L20 18L4 18L4 6L20 6ZM20 5L4 5C3.4 5 3 5.4 3 6L3 18C3 18.6 3.4 19 4 19L20 19C20.6 19 21 18.6 21 18L21 6C21 5.4 20.6 5 20 5Z" fill="#B5B5B5"/>
</svg>
