<svg width="24" height="24" viewBox="0 0 24 24" fill="none" xmlns="http://www.w3.org/2000/svg">
<g clip-path="url(#clip0_14099_124857)">
<path d="M20 6H4V14H20V6Z" fill="#00247D"/>
<path d="M4 6L12 10L4 6ZM12 6L4 10L12 6Z" fill="black"/>
<path d="M4 6L12 10M12 6L4 10" stroke="white"/>
<path d="M4 6L12 10L4 6ZM12 6L4 10L12 6Z" fill="black"/>
<path d="M4 6L12 10M12 6L4 10" stroke="#CF142B" stroke-width="0.5"/>
<path d="M7.85714 6V11V6ZM4 8.14286H13H4Z" fill="black"/>
<path d="M7.85714 6V11M4 8.14286H13" stroke="white" stroke-width="0.7"/>
<path d="M7.85714 6V11V6ZM4 8.14286H13H4Z" fill="black"/>
<path d="M7.85714 6V11M4 8.14286H13" stroke="#CF142B" stroke-width="0.5"/>
<path d="M4 10H12V6H20V18H4V10Z" fill="#00247D"/>
<path d="M18.4524 11V12.5586C18.4524 13.8382 17.9497 15.0096 16.4586 15.7216C14.9675 15.0096 14.4648 13.8382 14.4648 12.5586V11H18.4523L18.4524 11Z" fill="white"/>
<path d="M18.3183 11.1555V12.6092C18.3183 13.8027 17.8495 14.8953 16.4587 15.5593C15.0679 14.8953 14.5991 13.8027 14.5991 12.6092V11.1555H18.3183V11.1555Z" fill="#FDC300"/>
<path d="M15.5928 11.7987C15.5658 11.7785 15.5366 11.7662 15.4963 11.7651C15.5052 11.6664 15.4335 11.6237 15.3819 11.6058C15.3303 11.5878 15.3123 11.5677 15.3034 11.5273C15.2944 11.4869 15.2675 11.4622 15.2204 11.4488C15.1733 11.4353 15.1329 11.3882 15.115 11.3657C15.097 11.3433 15.0903 11.3478 15.0768 11.3859C15.0633 11.4241 15.0095 11.4959 15.0588 11.4981C15.023 11.5273 15.0028 11.5609 15.0252 11.6058C15.0005 11.626 14.9826 11.6551 15.0162 11.6664C15.0499 11.6776 15.0588 11.6866 15.0611 11.6955C15.0309 11.6955 15.023 11.7561 15.0948 11.7696C15.0791 11.7718 15.0723 11.8212 15.1015 11.8212C15.0611 11.8212 15.0274 11.8817 14.9759 11.8817C14.9243 11.8817 14.8974 11.8929 14.8952 11.9154C14.8929 11.9378 14.866 11.9647 14.8525 11.976C14.8907 11.9804 14.9153 11.976 14.9355 11.9603C14.9557 11.9445 14.9893 11.9401 15.0118 11.958C15.0342 11.976 15.0813 11.9849 15.1038 11.9804C15.0544 12.0141 15.0185 12.059 15.014 12.1016C15.0095 12.1442 14.9804 12.1936 14.9467 12.207C14.9131 12.2205 14.8682 12.2564 14.8525 12.299C14.8952 12.4045 14.9556 12.4305 15.0162 12.4583C15.124 12.5077 15.1912 12.5435 15.2361 12.5929C15.2809 12.6423 15.2989 12.6064 15.3662 12.6916C15.4335 12.7769 15.4963 12.9384 15.5636 12.9653C15.6309 12.9922 15.7161 12.9743 15.7654 12.889C15.8149 12.8038 15.8463 11.9423 15.5928 11.7987L15.5928 11.7987Z" fill="#FF9E3D" stroke="black" stroke-width="0.002"/>
<path d="M15.7071 11.4379C15.6443 11.5052 15.5635 11.5725 15.577 11.6937C15.5905 11.8148 15.6039 12.0123 15.4918 12.0796C15.3796 12.1469 15.3258 12.3174 15.4604 12.4161C15.5949 12.5148 15.5994 12.6359 15.6218 12.7481C15.6443 12.8603 15.7026 12.95 15.7924 12.8737C15.882 12.8872 15.9314 12.8513 15.9314 12.7795C15.9314 12.7077 15.9359 12.6673 16.0032 12.6449C16.0705 12.6225 16.0884 12.6 16.1198 12.5395C16.1512 12.4789 16.1692 12.452 16.1512 12.4161C16.1333 12.3802 16.1265 12.3061 16.14 12.2523C16.1535 12.1985 16.1221 12.1693 16.1041 12.1356C16.0862 12.102 16.0795 12.0728 16.0884 12.028C16.0974 11.9831 16.075 11.9539 16.0436 11.9315C16.0122 11.9091 15.9987 11.8866 16.0055 11.8507C16.0122 11.8148 15.983 11.7924 15.9494 11.7655C15.9157 11.7385 15.891 11.7027 15.891 11.6488C15.891 11.595 15.7879 11.4693 15.7071 11.4379L15.7071 11.4379Z" fill="#FF927F" stroke="black" stroke-width="0.002"/>
<path d="M15.7316 12.9045C15.8818 12.8663 15.8684 12.6196 15.846 12.5164C15.8235 12.4132 15.7659 12.2654 15.8101 12.1484C15.8729 11.9824 15.7338 11.8254 15.7697 11.7626C15.8056 11.6998 15.8011 11.6661 15.7966 11.6459C15.7922 11.6257 15.7585 11.61 15.7563 11.6526C15.754 11.6953 15.7428 11.711 15.7159 11.7379C15.6889 11.7648 15.6957 11.8231 15.7159 11.8882C15.7361 11.9533 15.7787 12.052 15.7114 12.1821C15.6441 12.3122 15.6718 12.3702 15.6979 12.4311C15.7383 12.5253 15.8348 12.8529 15.7316 12.9045V12.9045Z" fill="#FF9EE1" stroke="black" stroke-width="0.002"/>
<path d="M15.0591 11.4979C15.0759 11.4979 15.1085 11.4912 15.1085 11.5136L15.0591 11.4979Z" fill="#FF9E3D"/>
<path d="M15.0591 11.4979C15.0759 11.4979 15.1085 11.4912 15.1085 11.5136" stroke="black" stroke-width="0.002"/>
<path d="M15.0254 11.6071C15.0456 11.5926 15.0815 11.6094 15.1173 11.5881L15.0254 11.6071Z" fill="#FF9E3D"/>
<path d="M15.0254 11.6071C15.0456 11.5926 15.0815 11.6094 15.1173 11.5881" stroke="black" stroke-width="0.002"/>
<path d="M15.061 11.6965C15.0879 11.6965 15.1239 11.6954 15.1575 11.6685L15.061 11.6965Z" fill="#FF9E3D"/>
<path d="M15.061 11.6965C15.0879 11.6965 15.1239 11.6954 15.1575 11.6685" stroke="black" stroke-width="0.002"/>
<path d="M15.0947 11.7703C15.1194 11.7703 15.1654 11.7546 15.1766 11.7221L15.0947 11.7703Z" fill="#FF9E3D"/>
<path d="M15.0947 11.7703C15.1194 11.7703 15.1654 11.7546 15.1766 11.7221" stroke="black" stroke-width="0.002"/>
<path d="M15.1016 11.8197C15.1497 11.8175 15.2137 11.8354 15.2226 11.8186L15.1016 11.8197Z" fill="#FF9E3D"/>
<path d="M15.1016 11.8197C15.1497 11.8175 15.2137 11.8354 15.2226 11.8186" stroke="black" stroke-width="0.002"/>
<path d="M15.1035 11.9789C15.1371 11.9475 15.2168 11.9261 15.2347 11.8936L15.1035 11.9789Z" fill="#FF9E3D"/>
<path d="M15.1035 11.9789C15.1371 11.9475 15.2168 11.9261 15.2347 11.8936" stroke="black" stroke-width="0.002"/>
<path d="M15.189 11.4808C15.245 11.4988 15.2218 11.5335 15.2495 11.5549C15.2989 11.593 15.254 11.6356 15.2944 11.6469C15.3347 11.6581 15.3341 11.6649 15.3235 11.7097C15.3112 11.7624 15.3617 11.7646 15.3437 11.7994" fill="#FF9E3D"/>
<path d="M15.189 11.4808C15.245 11.4988 15.2218 11.5335 15.2495 11.5549C15.2989 11.593 15.254 11.6356 15.2944 11.6469C15.3347 11.6581 15.3341 11.6649 15.3235 11.7097C15.3112 11.7624 15.3617 11.7646 15.3437 11.7994" stroke="black" stroke-width="0.002"/>
<path d="M15.4965 11.765C15.4741 11.765 15.4079 11.7672 15.3799 11.8266L15.4965 11.765Z" fill="#FF9E3D"/>
<path d="M15.4965 11.765C15.4741 11.765 15.4079 11.7672 15.3799 11.8266" stroke="black" stroke-width="0.002"/>
<path d="M15.0176 12.4118C15.0434 12.4163 15.0563 12.4016 15.0636 12.3872C15.0714 12.3714 15.0748 12.3602 15.0983 12.3591C15.1219 12.358 15.1578 12.3513 15.1656 12.3333C15.1735 12.3154 15.2015 12.3322 15.2251 12.2851C15.2487 12.238 15.2644 12.1819 15.3271 12.1617" fill="#FF9E3D"/>
<path d="M15.0176 12.4118C15.0434 12.4163 15.0563 12.4016 15.0636 12.3872C15.0714 12.3714 15.0748 12.3602 15.0983 12.3591C15.1219 12.358 15.1578 12.3513 15.1656 12.3333C15.1735 12.3154 15.2015 12.3322 15.2251 12.2851C15.2487 12.238 15.2644 12.1819 15.3271 12.1617" stroke="black" stroke-width="0.002"/>
<path d="M16.7968 13.3879C16.8221 13.4248 16.7958 13.4646 16.8389 13.4806C16.8894 13.4993 16.8453 13.5657 16.9049 13.589C16.9576 13.6098 16.9052 13.6733 16.9623 13.7018C17.0133 13.7273 16.9537 13.7868 17.0218 13.8209C17.0898 13.8549 17.009 13.9315 17.0601 13.9612C17.1111 13.991 17.0431 14.0676 17.1026 14.0973C17.1622 14.1271 17.0771 14.1867 17.1324 14.2292C17.1876 14.2717 17.1196 14.3355 17.1749 14.3738C17.2302 14.4121 17.141 14.4632 17.1962 14.5184C17.2387 14.561 17.1809 14.6026 17.2132 14.6673C17.2345 14.7098 17.1919 14.88 17.0728 14.863C17.0303 14.9353 16.8645 14.9991 16.8049 14.9778C16.7454 15.0203 16.554 15.0799 16.4561 14.9863C16.3584 15.0799 16.1669 15.0203 16.1074 14.9778C16.0478 14.9991 15.882 14.9353 15.8395 14.863C15.7204 14.88 15.6778 14.7098 15.6991 14.6673C15.7314 14.6026 15.6736 14.561 15.7161 14.5184C15.7713 14.4632 15.6821 14.4121 15.7374 14.3738C15.7927 14.3355 15.7246 14.2717 15.7799 14.2292C15.8352 14.1867 15.7501 14.1271 15.8097 14.0973C15.8692 14.0676 15.8012 13.991 15.8522 13.9612C15.9033 13.9315 15.8225 13.8549 15.8905 13.8209C15.9586 13.7868 15.899 13.7273 15.95 13.7018C16.007 13.6733 15.9547 13.6098 16.0074 13.589C16.067 13.5657 16.0229 13.4993 16.0734 13.4806C16.1171 13.4644 16.0892 13.4235 16.1168 13.3861C16.2435 13.4359 16.6355 13.4717 16.7967 13.3879L16.7968 13.3879Z" fill="#00A728" stroke="black" stroke-width="0.002"/>
<path d="M16.2306 13.4022C16.1838 13.449 16.2391 13.483 16.1923 13.5383C16.1455 13.5936 16.188 13.6234 16.1498 13.6744C16.1115 13.7255 16.1668 13.751 16.1242 13.8063C16.0817 13.8616 16.1327 13.8956 16.0859 13.9424C16.0392 13.9892 16.0945 14.0317 16.0477 14.0828C16.0009 14.1338 16.0562 14.1678 16.0094 14.2146C15.9627 14.2614 16.0179 14.3125 15.9711 14.3592C15.9244 14.406 15.9797 14.4656 15.9286 14.5209C15.8776 14.5762 15.9371 14.6187 15.8946 14.6612C15.852 14.7038 15.8903 14.7463 15.8606 14.7761C15.8308 14.8059 15.8266 14.8473 15.8393 14.8654" fill="#00A728"/>
<path d="M16.2306 13.4022C16.1838 13.449 16.2391 13.483 16.1923 13.5383C16.1455 13.5936 16.188 13.6234 16.1498 13.6744C16.1115 13.7255 16.1668 13.751 16.1242 13.8063C16.0817 13.8616 16.1327 13.8956 16.0859 13.9424C16.0392 13.9892 16.0945 14.0317 16.0477 14.0828C16.0009 14.1338 16.0562 14.1678 16.0094 14.2146C15.9627 14.2614 16.0179 14.3125 15.9711 14.3592C15.9244 14.406 15.9797 14.4656 15.9286 14.5209C15.8776 14.5762 15.9371 14.6187 15.8946 14.6612C15.852 14.7038 15.8903 14.7463 15.8606 14.7761C15.8308 14.8059 15.8266 14.8473 15.8393 14.8654" stroke="black" stroke-width="0.002"/>
<path d="M16.3199 13.4129C16.2774 13.4682 16.3411 13.4937 16.3029 13.5405C16.2646 13.5873 16.3199 13.6043 16.2901 13.6596C16.2604 13.7149 16.3114 13.7277 16.2731 13.783C16.2348 13.8383 16.2944 13.8808 16.2518 13.9361C16.2093 13.9914 16.2731 14.0211 16.2348 14.0764C16.1966 14.1317 16.2518 14.1615 16.2178 14.2041C16.1838 14.2466 16.2433 14.2891 16.2008 14.3402C16.1583 14.3912 16.2178 14.4295 16.1838 14.4763C16.1498 14.5231 16.1966 14.5741 16.1668 14.6124C16.137 14.6507 16.188 14.706 16.1455 14.757C16.1029 14.808 16.154 14.8421 16.1285 14.8761C16.1029 14.9101 16.0828 14.9601 16.1072 14.9739" fill="#00A728"/>
<path d="M16.3199 13.4129C16.2774 13.4682 16.3411 13.4937 16.3029 13.5405C16.2646 13.5873 16.3199 13.6043 16.2901 13.6596C16.2604 13.7149 16.3114 13.7277 16.2731 13.783C16.2348 13.8383 16.2944 13.8808 16.2518 13.9361C16.2093 13.9914 16.2731 14.0211 16.2348 14.0764C16.1966 14.1317 16.2518 14.1615 16.2178 14.2041C16.1838 14.2466 16.2433 14.2891 16.2008 14.3402C16.1583 14.3912 16.2178 14.4295 16.1838 14.4763C16.1498 14.5231 16.1966 14.5741 16.1668 14.6124C16.137 14.6507 16.188 14.706 16.1455 14.757C16.1029 14.808 16.154 14.8421 16.1285 14.8761C16.1029 14.9101 16.0828 14.9601 16.1072 14.9739" stroke="black" stroke-width="0.002"/>
<path d="M16.456 13.4666C16.4348 13.5555 16.4858 13.6345 16.456 13.7086C16.4263 13.7828 16.4773 13.8124 16.4603 13.8717C16.4433 13.931 16.4816 13.9754 16.456 14.0397C16.4306 14.1039 16.4901 14.1533 16.456 14.2373C16.422 14.3213 16.478 14.3422 16.456 14.4251C16.4306 14.5214 16.4986 14.5725 16.456 14.6405C16.4136 14.7086 16.4944 14.7256 16.4603 14.8021C16.4263 14.8787 16.4816 14.9085 16.456 14.985" fill="#00A728"/>
<path d="M16.456 13.4666C16.4348 13.5555 16.4858 13.6345 16.456 13.7086C16.4263 13.7828 16.4773 13.8124 16.4603 13.8717C16.4433 13.931 16.4816 13.9754 16.456 14.0397C16.4306 14.1039 16.4901 14.1533 16.456 14.2373C16.422 14.3213 16.478 14.3422 16.456 14.4251C16.4306 14.5214 16.4986 14.5725 16.456 14.6405C16.4136 14.7086 16.4944 14.7256 16.4603 14.8021C16.4263 14.8787 16.4816 14.9085 16.456 14.985" stroke="black" stroke-width="0.002"/>
<path d="M16.6816 13.4022C16.7285 13.449 16.6731 13.483 16.7199 13.5383C16.7667 13.5936 16.7242 13.6234 16.7625 13.6744C16.8007 13.7255 16.7455 13.751 16.788 13.8063C16.8305 13.8616 16.7795 13.8956 16.8263 13.9424C16.873 13.9892 16.8177 14.0317 16.8645 14.0828C16.9113 14.1338 16.856 14.1678 16.9028 14.2146C16.9496 14.2614 16.8943 14.3125 16.9411 14.3592C16.9878 14.406 16.9326 14.4656 16.9836 14.5209C17.0346 14.5762 16.9751 14.6187 17.0176 14.6612C17.0602 14.7038 17.0219 14.7463 17.0516 14.7761C17.0814 14.8059 17.0857 14.8473 17.0729 14.8654" fill="#00A728"/>
<path d="M16.6816 13.4022C16.7285 13.449 16.6731 13.483 16.7199 13.5383C16.7667 13.5936 16.7242 13.6234 16.7625 13.6744C16.8007 13.7255 16.7455 13.751 16.788 13.8063C16.8305 13.8616 16.7795 13.8956 16.8263 13.9424C16.873 13.9892 16.8177 14.0317 16.8645 14.0828C16.9113 14.1338 16.856 14.1678 16.9028 14.2146C16.9496 14.2614 16.8943 14.3125 16.9411 14.3592C16.9878 14.406 16.9326 14.4656 16.9836 14.5209C17.0346 14.5762 16.9751 14.6187 17.0176 14.6612C17.0602 14.7038 17.0219 14.7463 17.0516 14.7761C17.0814 14.8059 17.0857 14.8473 17.0729 14.8654" stroke="black" stroke-width="0.002"/>
<path d="M16.5923 13.4129C16.6348 13.4682 16.571 13.4937 16.6093 13.5405C16.6476 13.5873 16.5923 13.6043 16.622 13.6596C16.6518 13.7149 16.6007 13.7277 16.639 13.783C16.6773 13.8383 16.6177 13.8808 16.6603 13.9361C16.7028 13.9914 16.639 14.0211 16.6773 14.0764C16.7156 14.1317 16.6603 14.1615 16.6943 14.2041C16.7284 14.2466 16.6688 14.2891 16.7114 14.3402C16.7538 14.3912 16.6943 14.4295 16.7284 14.4763C16.7624 14.5231 16.7156 14.5741 16.7454 14.6124C16.7751 14.6507 16.7241 14.706 16.7666 14.757C16.8092 14.808 16.7581 14.8421 16.7836 14.8761C16.8092 14.9101 16.8294 14.9601 16.8049 14.9739" fill="#00A728"/>
<path d="M16.5923 13.4129C16.6348 13.4682 16.571 13.4937 16.6093 13.5405C16.6476 13.5873 16.5923 13.6043 16.622 13.6596C16.6518 13.7149 16.6007 13.7277 16.639 13.783C16.6773 13.8383 16.6177 13.8808 16.6603 13.9361C16.7028 13.9914 16.639 14.0211 16.6773 14.0764C16.7156 14.1317 16.6603 14.1615 16.6943 14.2041C16.7284 14.2466 16.6688 14.2891 16.7114 14.3402C16.7538 14.3912 16.6943 14.4295 16.7284 14.4763C16.7624 14.5231 16.7156 14.5741 16.7454 14.6124C16.7751 14.6507 16.7241 14.706 16.7666 14.757C16.8092 14.808 16.7581 14.8421 16.7836 14.8761C16.8092 14.9101 16.8294 14.9601 16.8049 14.9739" stroke="black" stroke-width="0.002"/>
<path d="M16.1681 13.6119C16.1682 13.631 16.1677 13.65 16.15 13.6735C16.1117 13.7246 16.167 13.7501 16.1245 13.8054C16.082 13.8607 16.133 13.8947 16.0862 13.9415C16.0395 13.9883 16.0947 14.0308 16.0479 14.0819C16.0012 14.1329 16.0565 14.1669 16.0097 14.2137C15.9629 14.2605 16.0182 14.3116 15.9714 14.3583C15.9247 14.4051 15.9799 14.4647 15.9288 14.52C15.8778 14.5753 15.9374 14.6178 15.8948 14.6603C15.8523 14.7029 15.8906 14.7454 15.8608 14.7752C15.9118 14.7369 15.9118 14.6774 15.9501 14.6476C15.9884 14.6178 15.9374 14.5753 15.9587 14.554C15.9799 14.5327 15.9629 14.4434 16.0012 14.4009C16.0395 14.3583 16.0055 14.2733 16.0395 14.2435C16.0735 14.2137 16.0479 14.1244 16.0905 14.0946C16.133 14.0649 16.0905 13.9926 16.1245 13.9543C16.1586 13.916 16.1245 13.8564 16.1586 13.8097C16.1926 13.7629 16.1601 13.7204 16.184 13.6821C16.1947 13.665 16.1947 13.5417 16.1681 13.6119Z" fill="#FCC300" stroke="black" stroke-width="0.002"/>
<path d="M16.2902 13.6602C16.2605 13.7155 16.3115 13.7282 16.2732 13.7835C16.2349 13.8388 16.2945 13.8813 16.2519 13.9366C16.2094 13.9919 16.2732 14.0217 16.2349 14.077C16.1967 14.1323 16.2519 14.1621 16.2179 14.2046C16.1839 14.2471 16.2434 14.2897 16.2009 14.3407C16.1584 14.3918 16.2179 14.43 16.1839 14.4768C16.1499 14.5236 16.1967 14.5746 16.1669 14.6129C16.1371 14.6512 16.1881 14.7065 16.1456 14.7575C16.103 14.8086 16.1541 14.8426 16.1286 14.8766C16.1797 14.8596 16.1605 14.7894 16.1797 14.7746C16.1988 14.7597 16.1733 14.6618 16.203 14.6363C16.2328 14.6108 16.1839 14.5321 16.2115 14.4981C16.2583 14.4407 16.2179 14.4024 16.2455 14.3577C16.2732 14.3131 16.235 14.2557 16.2562 14.2259C16.2924 14.1748 16.2402 14.1288 16.2668 14.0919C16.3051 14.0387 16.2594 13.9949 16.2859 13.96C16.3264 13.9069 16.2817 13.8537 16.2988 13.826C16.3158 13.7984 16.3434 13.6793 16.2902 13.6602Z" fill="#FCC300" stroke="black" stroke-width="0.002"/>
<path d="M16.4564 13.7086C16.4267 13.7827 16.4777 13.8123 16.4607 13.8716C16.4437 13.9309 16.482 13.9754 16.4564 14.0396C16.431 14.1038 16.4905 14.1532 16.4564 14.2372C16.4224 14.3212 16.4784 14.3421 16.4564 14.425C16.431 14.5213 16.499 14.5724 16.4564 14.6404C16.414 14.7085 16.5051 14.731 16.4607 14.8021C16.4394 14.8361 16.4628 14.9233 16.4968 14.8191C16.5309 14.7149 16.4714 14.7021 16.5011 14.6596C16.5309 14.617 16.4905 14.5043 16.5032 14.4448C16.516 14.3852 16.4735 14.3044 16.5011 14.2406C16.5288 14.1768 16.4586 14.1088 16.4862 14.0534C16.5139 13.9982 16.4735 13.9301 16.499 13.8854C16.5245 13.8408 16.4798 13.7812 16.4905 13.7557C16.5011 13.7302 16.4798 13.6359 16.4564 13.7086V13.7086Z" fill="#FCC300" stroke="black" stroke-width="0.002"/>
<path d="M16.7751 13.4386C16.7751 12.958 16.7071 12.7921 16.4561 12.7921C16.2052 12.7921 16.1372 12.958 16.1372 13.4386H16.7751H16.7751Z" fill="#EF072D" stroke="black" stroke-width="0.002"/>
<path d="M16.1372 13.4386C16.1372 12.958 16.2052 12.7921 16.4561 12.7921C16.3413 12.7921 16.2712 12.8814 16.252 12.941C16.2329 13.0005 16.2435 12.9963 16.269 12.9729C16.2946 12.9495 16.2818 13.0005 16.2606 13.0282C16.2393 13.0558 16.218 13.1345 16.2478 13.109C16.2776 13.0835 16.3009 13.1132 16.269 13.1579C16.2372 13.2026 16.2095 13.3068 16.2414 13.2706C16.2733 13.2345 16.2796 13.294 16.2606 13.3238C16.2414 13.3536 16.2435 13.3791 16.2606 13.3663C16.2776 13.3536 16.2754 13.4152 16.2584 13.4386H16.1372V13.4386Z" fill="black" stroke="black" stroke-width="0.002"/>
<path d="M16.7261 13.4132C16.7261 13.0367 16.6794 12.924 16.5859 12.8857C16.5329 12.864 16.5313 12.8687 16.5567 12.9028C16.582 12.9368 16.5781 12.9857 16.5547 12.9517C16.5313 12.9176 16.5236 12.9113 16.5138 12.9262C16.504 12.941 16.541 13.0112 16.5683 13.075C16.5903 13.1263 16.5761 13.1516 16.543 13.1005C16.5099 13.0495 16.5099 13.0957 16.539 13.1388C16.5762 13.1941 16.5751 13.3621 16.5751 13.4323L16.7261 13.4132V13.4132Z" fill="black" stroke="black" stroke-width="0.002"/>
<path d="M16.456 13.5117C16.556 13.5117 16.6654 13.4939 16.7389 13.4654C16.8261 13.4315 16.8308 13.4018 16.8006 13.3638C16.7793 13.337 16.7325 13.3531 16.6879 13.3727C16.6432 13.3923 16.5198 13.4048 16.456 13.4048C16.3923 13.4048 16.2689 13.3923 16.2243 13.3727C16.1797 13.3531 16.1328 13.337 16.1116 13.3638C16.0814 13.4018 16.086 13.4315 16.1733 13.4654C16.2467 13.4939 16.3562 13.5117 16.456 13.5117H16.456Z" fill="#EF072D" stroke="black" stroke-width="0.002"/>
<path d="M17.4258 12.8788C17.4258 12.8788 17.4912 12.9918 17.5393 13.0742C17.5873 13.1566 17.6262 13.1753 17.661 13.1509C17.6957 13.1264 17.6662 13.0593 17.6384 13.0274C17.6105 12.9956 17.4573 12.8461 17.4573 12.8461L17.4258 12.8788Z" fill="#B95A1E" stroke="black" stroke-width="0.002"/>
<path d="M17.4102 12.8872C17.4102 12.8872 17.4361 13.0168 17.4553 13.1114C17.4745 13.2059 17.5052 13.2373 17.5457 13.2265C17.5862 13.2157 17.5797 13.142 17.5635 13.1022C17.5473 13.0623 17.4502 12.8675 17.4502 12.8675L17.4102 12.8872V12.8872Z" fill="#B95A1E" stroke="black" stroke-width="0.002"/>
<path d="M17.3829 12.8941C17.3829 12.8941 17.3827 13.0266 17.3829 13.1233C17.383 13.2199 17.4069 13.2574 17.4487 13.2557C17.4904 13.254 17.4985 13.1805 17.4905 13.138C17.4826 13.0955 17.426 12.8836 17.426 12.8836L17.3829 12.8941V12.8941Z" fill="#B95A1E" stroke="black" stroke-width="0.002"/>
<path d="M17.3398 12.8788C17.3398 12.8788 17.2744 12.9918 17.2263 13.0742C17.1783 13.1566 17.1394 13.1753 17.1047 13.1509C17.0699 13.1264 17.0994 13.0593 17.1273 13.0274C17.1551 12.9956 17.3083 12.8461 17.3083 12.8461L17.3398 12.8788Z" fill="#B95A1E" stroke="black" stroke-width="0.002"/>
<path d="M17.3554 12.8872C17.3554 12.8872 17.3294 13.0168 17.3102 13.1114C17.2911 13.2059 17.2603 13.2373 17.2198 13.2265C17.1793 13.2157 17.1859 13.142 17.202 13.1022C17.2182 13.0623 17.3153 12.8675 17.3153 12.8675L17.3554 12.8872V12.8872Z" fill="#B95A1E" stroke="black" stroke-width="0.002"/>
<path d="M17.3829 12.8941C17.3829 12.8941 17.383 13.0266 17.3829 13.1233C17.3827 13.2199 17.3588 13.2574 17.3171 13.2557C17.2753 13.254 17.2672 13.1805 17.2752 13.138C17.2832 13.0955 17.3397 12.8836 17.3397 12.8836L17.3829 12.8941V12.8941Z" fill="#B95A1E" stroke="black" stroke-width="0.002"/>
<path d="M17.4556 11.8689C17.4556 11.8689 17.5622 11.7557 17.7488 11.6424C17.9354 11.5292 18.0703 11.442 18.0953 11.4612C18.0953 11.4839 17.9354 11.5971 17.8021 11.6877C17.6688 11.7783 17.5089 11.9142 17.5089 11.9142L17.4556 11.8689L17.4556 11.8689Z" fill="#B95A1E" stroke="black" stroke-width="0.002"/>
<path d="M17.4678 11.9586C17.4678 11.9586 17.5732 11.8921 17.7753 11.8C17.9742 11.7183 18.2551 11.7321 18.2551 11.7547C18.2284 11.7774 17.9885 11.7774 17.8286 11.8453C17.6759 11.9102 17.5211 12.0039 17.5211 12.0039L17.4678 11.9586Z" fill="#B95A1E" stroke="black" stroke-width="0.002"/>
<path d="M17.4688 12.117C17.4688 12.117 17.5615 12.0721 17.7763 12.0037C17.9895 11.9358 18.2726 11.9811 18.2726 12.0037C18.2459 12.0264 18.0161 12.0126 17.8562 12.049C17.6907 12.0845 17.5221 12.1623 17.5221 12.1623L17.4688 12.117H17.4688Z" fill="#B95A1E" stroke="black" stroke-width="0.002"/>
<path d="M17.479 12.2766C17.479 12.2766 17.5859 12.1859 17.8137 12.1634C18.0429 12.1407 18.2295 12.2766 18.2295 12.2993C18.2029 12.3219 17.9896 12.1996 17.8297 12.2171C17.6602 12.2345 17.5323 12.3219 17.5323 12.3219L17.479 12.2766H17.479Z" fill="#B95A1E" stroke="black" stroke-width="0.002"/>
<path d="M17.4263 11.7817C17.4263 11.7817 17.5981 11.6684 17.5981 11.5778C17.5981 11.4872 17.5223 11.3966 17.5009 11.3513C17.5438 11.3513 17.6411 11.4872 17.6411 11.5778C17.6411 11.6768 17.4796 11.827 17.4796 11.827L17.4263 11.7817V11.7817Z" fill="#B95A1E" stroke="black" stroke-width="0.002"/>
<path d="M17.4258 11.7799C17.4258 11.7799 17.4043 11.712 17.4043 11.5761C17.4043 11.4175 17.4991 11.3167 17.5332 11.2816C17.542 11.3167 17.4473 11.4402 17.4473 11.5761C17.4473 11.6751 17.4791 11.8252 17.4791 11.8252L17.4258 11.7799V11.7799Z" fill="#B95A1E" stroke="black" stroke-width="0.002"/>
<path d="M17.3106 11.8689C17.3106 11.8689 17.204 11.7557 17.0174 11.6424C16.8308 11.5292 16.6958 11.442 16.6709 11.4612C16.6709 11.4839 16.8308 11.5971 16.9641 11.6877C17.0974 11.7783 17.2573 11.9142 17.2573 11.9142L17.3106 11.8689L17.3106 11.8689Z" fill="#B95A1E" stroke="black" stroke-width="0.002"/>
<path d="M17.298 11.9586C17.298 11.9586 17.1926 11.8921 16.9905 11.8C16.7916 11.7183 16.5107 11.7321 16.5107 11.7547C16.5374 11.7774 16.7773 11.7774 16.9372 11.8453C17.0899 11.9102 17.2447 12.0039 17.2447 12.0039L17.298 11.9586Z" fill="#B95A1E" stroke="black" stroke-width="0.002"/>
<path d="M17.297 12.117C17.297 12.117 17.2042 12.0721 16.9895 12.0037C16.7762 11.9358 16.4932 11.9811 16.4932 12.0037C16.5198 12.0264 16.7496 12.0126 16.9095 12.049C17.075 12.0845 17.2437 12.1623 17.2437 12.1623L17.297 12.117H17.297Z" fill="#B95A1E" stroke="black" stroke-width="0.002"/>
<path d="M17.2871 12.2766C17.2871 12.2766 17.1802 12.1859 16.9524 12.1634C16.7232 12.1407 16.5366 12.2766 16.5366 12.2993C16.5633 12.3219 16.7765 12.1996 16.9364 12.2171C17.1059 12.2345 17.2338 12.3219 17.2338 12.3219L17.2871 12.2766Z" fill="#B95A1E" stroke="black" stroke-width="0.002"/>
<path d="M17.3398 11.7817C17.3398 11.7817 17.168 11.6684 17.168 11.5778C17.168 11.4872 17.2437 11.3966 17.2652 11.3513C17.2222 11.3513 17.125 11.4872 17.125 11.5778C17.125 11.6768 17.2865 11.827 17.2865 11.827L17.3398 11.7817V11.7817Z" fill="#B95A1E" stroke="black" stroke-width="0.002"/>
<path d="M17.3399 11.7799C17.3399 11.7799 17.3614 11.712 17.3614 11.5761C17.3614 11.4175 17.2666 11.3167 17.2325 11.2816C17.2236 11.3167 17.3184 11.4402 17.3184 11.5761C17.3184 11.6751 17.2866 11.8252 17.2866 11.8252L17.3399 11.7799V11.7799Z" fill="#B95A1E" stroke="black" stroke-width="0.002"/>
<path d="M17.9417 13.4054C17.875 13.249 17.8558 12.9751 17.8558 12.9298C17.8558 12.8022 17.8958 12.1818 17.8988 11.9332C17.9018 11.6846 17.7484 11.5482 17.5981 11.5482C17.4692 11.5482 17.3833 11.6388 17.3833 11.7747H17.4477C17.4477 11.6841 17.5122 11.6161 17.5981 11.6161C17.727 11.6161 17.826 11.7232 17.8343 11.9332C17.8436 12.176 17.8085 12.8063 17.8129 12.9751C17.8172 13.1439 17.875 13.2943 17.9417 13.4054V13.4054Z" fill="#B95A1E" stroke="#FDC301" stroke-width="0.002"/>
<path d="M16.8247 13.4055C16.8915 13.2491 16.9106 12.9751 16.9106 12.9298C16.9106 12.8023 16.8707 12.1818 16.8677 11.9333C16.8647 11.6847 17.018 11.5482 17.1684 11.5482C17.2972 11.5482 17.3831 11.6388 17.3831 11.7747H17.3187C17.3187 11.6841 17.2543 11.6162 17.1684 11.6162C17.0395 11.6162 16.9404 11.7232 16.9321 11.9333C16.9229 12.176 16.9579 12.8064 16.9536 12.9751C16.9492 13.1439 16.8915 13.2944 16.8247 13.4055L16.8247 13.4055Z" fill="#B95A1E" stroke="#FDC301" stroke-width="0.002"/>
<path d="M17.3833 12.8869C17.5033 12.8852 17.5166 12.8416 17.5166 12.8416C17.5166 12.8416 17.5432 12.751 17.5299 12.7284C17.5166 12.7057 17.3833 12.7057 17.3833 12.7057V12.8869Z" fill="#B95A1E" stroke="black" stroke-width="0.002"/>
<path d="M17.3833 12.7958C17.5122 12.7958 17.5336 12.7505 17.5336 12.7505C17.5336 12.7505 17.5766 12.6599 17.5551 12.6373C17.5336 12.6146 17.3833 12.6146 17.3833 12.6146V12.7958Z" fill="#B95A1E" stroke="black" stroke-width="0.002"/>
<path d="M17.3833 12.6993C17.4907 12.6993 17.5551 12.654 17.5551 12.654C17.5551 12.654 17.5981 12.5634 17.5766 12.5408C17.5551 12.5181 17.3833 12.5181 17.3833 12.5181V12.6993H17.3833Z" fill="#B95A1E" stroke="black" stroke-width="0.002"/>
<path d="M17.3833 12.5904C17.5768 12.5886 17.5766 12.5322 17.5766 12.5322C17.5766 12.5322 17.6196 12.4416 17.5981 12.4189C17.5766 12.3963 17.3833 12.4092 17.3833 12.4092V12.5904Z" fill="#B95A1E" stroke="black" stroke-width="0.002"/>
<path d="M17.3833 12.501C17.5768 12.4992 17.5981 12.4557 17.5981 12.4557C17.5981 12.4557 17.641 12.3651 17.6196 12.3424C17.5981 12.3198 17.3833 12.3198 17.3833 12.3198V12.501Z" fill="#B95A1E" stroke="black" stroke-width="0.002"/>
<path d="M17.3833 12.3883C17.5768 12.3866 17.6196 12.3431 17.6196 12.3431C17.6196 12.3431 17.6625 12.2525 17.641 12.2298C17.6196 12.2072 17.3833 12.2072 17.3833 12.2072V12.3883Z" fill="#B95A1E" stroke="black" stroke-width="0.002"/>
<path d="M17.3833 12.2704C17.5768 12.2686 17.641 12.2251 17.641 12.2251C17.641 12.2251 17.6625 12.1345 17.641 12.1119C17.6196 12.0892 17.3833 12.0892 17.3833 12.0892V12.2704Z" fill="#B95A1E" stroke="black" stroke-width="0.002"/>
<path d="M17.3833 12.1578C17.5768 12.156 17.641 12.1125 17.641 12.1125C17.641 12.1125 17.641 12.0219 17.6196 11.9993C17.5981 11.9766 17.3833 11.9766 17.3833 11.9766V12.1578Z" fill="#B95A1E" stroke="black" stroke-width="0.002"/>
<path d="M17.3833 12.0453C17.5768 12.0435 17.6196 12 17.6196 12C17.6196 12 17.6196 11.9094 17.5981 11.8867C17.5766 11.8641 17.3833 11.8641 17.3833 11.8641V12.0453Z" fill="#B95A1E" stroke="black" stroke-width="0.002"/>
<path d="M17.3833 11.7622C17.5338 11.7624 17.5988 11.8931 17.5984 11.8904L17.5551 11.9331C17.5321 11.9557 17.3833 11.9557 17.3851 11.9556L17.3833 11.7622L17.3833 11.7622Z" fill="#B95A1E" stroke="black" stroke-width="0.002"/>
<path d="M17.3828 12.8869C17.2627 12.8852 17.2495 12.8416 17.2495 12.8416C17.2495 12.8416 17.2228 12.751 17.2362 12.7284C17.2495 12.7057 17.3828 12.7057 17.3828 12.7057V12.8869Z" fill="#B95A1E" stroke="black" stroke-width="0.002"/>
<path d="M17.3829 12.7958C17.254 12.7958 17.2326 12.7505 17.2326 12.7505C17.2326 12.7505 17.1896 12.6599 17.2111 12.6373C17.2326 12.6146 17.3829 12.6146 17.3829 12.6146V12.7958Z" fill="#B95A1E" stroke="black" stroke-width="0.002"/>
<path d="M17.3829 12.6993C17.2755 12.6993 17.2111 12.654 17.2111 12.654C17.2111 12.654 17.1681 12.5634 17.1896 12.5408C17.2111 12.5181 17.3829 12.5181 17.3829 12.5181V12.6993H17.3829Z" fill="#B95A1E" stroke="black" stroke-width="0.002"/>
<path d="M17.3829 12.5904C17.1895 12.5886 17.1896 12.5322 17.1896 12.5322C17.1896 12.5322 17.1466 12.4416 17.1681 12.4189C17.1896 12.3963 17.3829 12.4092 17.3829 12.4092V12.5904Z" fill="#B95A1E" stroke="black" stroke-width="0.002"/>
<path d="M17.3829 12.501C17.1894 12.4992 17.1681 12.4557 17.1681 12.4557C17.1681 12.4557 17.1252 12.3651 17.1466 12.3424C17.1681 12.3198 17.3829 12.3198 17.3829 12.3198V12.501Z" fill="#B95A1E" stroke="black" stroke-width="0.002"/>
<path d="M17.3829 12.3883C17.1894 12.3866 17.1466 12.3431 17.1466 12.3431C17.1466 12.3431 17.1037 12.2525 17.1252 12.2298C17.1466 12.2072 17.3829 12.2072 17.3829 12.2072V12.3883Z" fill="#B95A1E" stroke="black" stroke-width="0.002"/>
<path d="M17.383 12.2704C17.1896 12.2686 17.1253 12.2251 17.1253 12.2251C17.1253 12.2251 17.1038 12.1345 17.1253 12.1119C17.1467 12.0892 17.383 12.0892 17.383 12.0892V12.2704Z" fill="#B95A1E" stroke="black" stroke-width="0.002"/>
<path d="M17.3827 12.1578C17.1893 12.156 17.125 12.1125 17.125 12.1125C17.125 12.1125 17.125 12.0219 17.1465 11.9993C17.168 11.9766 17.3827 11.9766 17.3827 11.9766V12.1578H17.3827Z" fill="#B95A1E" stroke="black" stroke-width="0.002"/>
<path d="M17.3832 12.0453C17.1898 12.0435 17.147 12 17.147 12C17.147 12 17.147 11.9094 17.1685 11.8867C17.1899 11.8641 17.3832 11.8641 17.3832 11.8641V12.0453H17.3832Z" fill="#B95A1E" stroke="black" stroke-width="0.002"/>
<path d="M17.3831 11.7622C17.2326 11.7624 17.1676 11.8931 17.168 11.8904L17.2113 11.9331C17.2343 11.9557 17.3831 11.9557 17.3813 11.9556L17.3831 11.7622L17.3831 11.7622Z" fill="#B95A1E" stroke="black" stroke-width="0.002"/>
<path d="M20 6L20 18L4 18L4 6L20 6ZM20 5L4 5C3.4 5 3 5.4 3 6L3 18C3 18.6 3.4 19 4 19L20 19C20.6 19 21 18.6 21 18L21 6C21 5.4 20.6 5 20 5Z" fill="#B5B5B5"/>
</g>
<defs>
<clipPath id="clip0_14099_124857">
<rect width="24" height="24" fill="white"/>
</clipPath>
</defs>
</svg>
