<svg width="24" height="24" viewBox="0 0 24 24" fill="none" xmlns="http://www.w3.org/2000/svg">
<path d="M4 6H20V18H4V6Z" fill="#28AE66"/>
<path d="M12.1458 7.27539C12.6307 7.48358 12.9704 7.9654 12.9704 8.52647C12.9704 9.27801 12.361 9.88744 11.6095 9.88744C11.273 9.88744 10.9651 9.76522 10.7275 9.56285C10.8786 9.62758 11.0401 9.66433 11.2043 9.67134C11.9551 9.70412 12.5905 9.12185 12.6233 8.37104C12.6423 7.93516 12.454 7.53816 12.1458 7.27539Z" fill="white"/>
<path d="M10.8477 8.27549L11.0019 7.8009L10.5981 8.09423H11.0972L10.6935 7.8009L10.8477 8.27549Z" fill="white"/>
<path d="M5.96875 5.80621H8.92203V18.0011H5.96875V5.80621Z" fill="#CA3745"/>
<path d="M5.96924 5V5.11951L6.13531 5.29282L6.07931 5.35095L6.19808 5.47367L6.14594 5.52643V5.44999H6.04455V5.5415L6.27339 5.7805H6.38926L6.40182 5.69651H6.33519L6.4076 5.62117L6.58914 5.80525L6.4076 5.99041L6.33519 5.91505H6.40182L6.38926 5.83001H6.27339L6.04457 6.06901V6.16051H6.14596V6.08409L6.1981 6.13681L6.07933 6.25955L6.13533 6.31876L5.96926 6.49099V6.6105L6.25024 6.31876L6.19423 6.25955L6.31204 6.13681L6.21064 6.03133L6.27824 5.96242L6.40762 6.09592L6.6915 5.80525L6.4076 5.51461L6.27822 5.64916L6.21062 5.57918L6.31202 5.47369L6.19422 5.35095L6.25022 5.29282L5.96924 5ZM5.96924 5.58026V6.03025L6.0349 5.95596V5.86877H6.10441L6.16042 5.80525L6.10441 5.74281H6.0349V5.65454L5.96924 5.58026ZM6.44816 5.73958L6.4385 5.80094L6.44816 5.86338L6.50803 5.80094L6.44816 5.73956V5.73958Z" fill="#383739"/>
<path d="M5.96879 5.01202V5.10674L6.14646 5.2919L6.09045 5.35005L6.20921 5.47277L6.13776 5.54706V5.45771H6.05182V5.53738L6.2768 5.77098H6.38108L6.39171 5.70423H6.31447L6.40715 5.60734L6.60028 5.80435L6.40715 6.00136L6.31447 5.90555H6.39171L6.38106 5.83772H6.27678L6.05177 6.07132V6.15099H6.13772V6.06164L6.20917 6.13591L6.0904 6.25863L6.1464 6.31784L5.96875 6.50194V6.59665L6.23814 6.31784L6.18213 6.25863L6.29994 6.13591L6.19854 6.03042L6.27773 5.94859L6.40711 6.08315L6.67847 5.80435L6.40713 5.52553L6.27775 5.66008L6.19856 5.57828L6.29995 5.47279L6.18215 5.35005L6.23815 5.29192L5.96877 5.01202H5.96879ZM5.96879 5.59226V6.01644L6.02672 5.95183V5.85817H6.10106L6.14936 5.80435L6.10106 5.75053H6.02672V5.65685L5.96879 5.59228V5.59226ZM6.45351 5.75589L6.44676 5.80004L6.45351 5.84419L6.49598 5.80004L6.45351 5.75589Z" fill="#FAAE29"/>
<path d="M6.20828 16.5984C6.22287 16.6677 6.27224 16.7199 6.28401 16.7918C6.30757 16.7169 6.3293 16.6541 6.31307 16.5722C6.30146 16.5136 6.25725 16.4718 6.25213 16.4116C6.20393 16.4599 6.19355 16.5284 6.20828 16.5984ZM6.19607 16.8886C6.23696 16.9511 6.29378 16.999 6.35655 17.031C6.34419 16.9762 6.36738 16.935 6.39312 16.8916C6.42411 16.8392 6.43924 16.7878 6.41396 16.7276C6.40218 16.7589 6.38636 16.7849 6.36778 16.8117C6.34033 16.8535 6.32226 16.8906 6.31801 16.9442C6.28626 16.918 6.27231 16.8788 6.25532 16.8409C6.22943 16.7865 6.18765 16.7411 6.13965 16.7114C6.15241 16.7723 6.16222 16.8368 6.19607 16.8886ZM6.42537 17.0749C6.41662 17.1096 6.40909 17.144 6.41079 17.1803C6.38377 17.1478 6.34789 17.1234 6.31588 17.0972C6.27231 17.0579 6.22148 17.0302 6.18584 16.9802C6.19117 17.0538 6.21944 17.1139 6.27313 17.1587C6.32988 17.206 6.39832 17.2315 6.45421 17.2812C6.44582 17.2142 6.46792 17.1606 6.48673 17.099C6.50241 17.0401 6.48724 16.9804 6.45146 16.9356C6.45199 16.9853 6.43791 17.028 6.42539 17.0749H6.42537ZM6.55272 17.3011C6.56448 17.352 6.59715 17.3933 6.61945 17.4386C6.55931 17.4178 6.50624 17.3815 6.45189 17.3473C6.38714 17.3079 6.31681 17.2829 6.2582 17.231C6.28737 17.3514 6.35969 17.4212 6.46546 17.4568C6.53778 17.4812 6.59872 17.469 6.68648 17.5086C6.67642 17.4423 6.65868 17.3709 6.63059 17.3111C6.6088 17.2679 6.58463 17.2253 6.57116 17.1778C6.55165 17.2169 6.54242 17.2566 6.55272 17.3011ZM6.77402 17.4854C6.79446 17.5247 6.82243 17.5586 6.85595 17.5845C6.77057 17.5905 6.70188 17.5302 6.61864 17.5276C6.56724 17.526 6.51843 17.5438 6.466 17.5384C6.52822 17.5852 6.59336 17.6261 6.66911 17.637C6.76757 17.6512 6.85837 17.6236 6.967 17.6344C6.91623 17.5945 6.89084 17.541 6.85919 17.4835C6.81799 17.4117 6.77911 17.3606 6.69897 17.349C6.73114 17.3893 6.74987 17.4393 6.77402 17.4854V17.4854ZM7.07721 17.6434C6.92681 17.6719 6.78268 17.7088 6.62909 17.7105C6.80102 17.7773 6.96303 17.7894 7.13355 17.7204C7.22571 17.6831 7.29635 17.6631 7.36595 17.6687C7.46768 17.6768 7.59128 17.7216 7.72809 17.8824L7.78187 17.8345C7.58579 17.6397 7.32924 17.5956 7.07721 17.6434V17.6434Z" fill="#FAAE29"/>
<path d="M6.33821 7.23628L6.10156 7.07447V6.68555L6.33821 6.52377V6.31798L6.56184 6.16782H6.74049L7.08045 5.95465H7.81025L8.15021 6.16782H8.32886L8.55249 6.31798V6.52377L8.78914 6.68555V7.07447L8.55251 7.23626V7.44205L8.32886 7.59219H8.15021L7.81025 7.80537H7.08045L6.74049 7.59219H6.56184L6.33821 7.44205V7.23628Z" fill="#383739"/>
<path d="M7.0822 5.96265L6.74232 6.17579H6.56465L6.34644 6.32219V6.52782L6.10986 6.6893V7.06824L6.34644 7.22972V7.43642L6.56368 7.58282H6.74232L7.0822 7.79597H7.80831L8.14819 7.58282H8.32685L8.54506 7.4364V7.2297L8.78161 7.06824V6.6893L8.54506 6.52782V6.32219L8.32685 6.17579H8.14819L7.80831 5.96265H7.0822ZM7.10247 6.04122H7.78902L8.12889 6.25439H8.30656L8.47167 6.36526V6.57091L8.7092 6.73239V7.02517L8.47167 7.18665V7.39228L8.30656 7.50315H8.12889L7.78902 7.71632H7.10247L6.76259 7.50315H6.58494L6.41886 7.39228V7.18665L6.18229 7.02517V6.73237L6.41885 6.57089V6.36526L6.58492 6.25439H6.76259L7.10247 6.04122Z" fill="#28AE66"/>
<path d="M7.44144 6.88439V6.0509H7.10407L6.76414 6.26407H6.5869L6.42657 6.37171V6.57699L6.18994 6.73878V6.87569H7.44928V7.70919H7.78664L8.1266 7.496H8.30385L8.46417 7.38836V7.18308L8.70079 7.02129V6.88441L7.44144 6.88439Z" fill="#FAAE29"/>
<path d="M6.18994 6.88439V7.02129L6.42657 7.18308V7.38836L6.5869 7.496H6.76414L7.10409 7.70919H7.44146V6.87567H8.70081V6.73878L8.46419 6.57699V6.37171L8.30385 6.26407H8.1266L7.78664 6.0509H7.4493V6.88439H6.18994Z" fill="white"/>
<path d="M6.70628 6.34404L6.64802 6.28351L6.5903 6.32318L6.64866 6.38385L6.57373 6.4356H6.73724L6.87816 6.58377L6.92322 6.53072L6.78622 6.38662V6.28883L6.70628 6.34404Z" fill="#383739"/>
<path d="M6.98221 6.31193L6.92395 6.2514L6.86623 6.29108L6.92458 6.35173L6.84966 6.40349H7.01316L7.15408 6.55166L7.19915 6.49862L7.06215 6.35451V6.25671L6.98221 6.31193ZM6.68626 6.51242L6.628 6.45187L6.5703 6.49156L6.62864 6.55221L6.55371 6.60398H6.71724L6.85812 6.75215L6.9032 6.69908L6.7662 6.555V6.45719L6.68626 6.51242Z" fill="#383739"/>
<path d="M7.44591 6.04291H7.29837L7.22117 6.12585H7.07068L6.95947 6.1902L6.9854 6.26067L7.08457 6.20258H7.12801L7.28007 6.39865L7.44591 6.28605V6.04291Z" fill="#383739"/>
<path d="M6.64747 6.29003L6.69982 6.34442L6.65596 6.37471L6.60353 6.32024L6.64747 6.29003ZM6.77881 6.30009V6.38601L6.91259 6.52668L6.87824 6.56712L6.74075 6.42253H6.60156L6.77881 6.30009ZM6.9232 6.26345L6.97555 6.31784L6.93169 6.34812L6.87926 6.29365L6.9232 6.26343V6.26345ZM7.05454 6.27349V6.3594L7.18832 6.50009L7.15397 6.54054L7.01648 6.39595H6.87729L7.05454 6.27349Z" fill="#CA3745"/>
<path d="M6.62698 6.46498L6.67932 6.51939L6.63545 6.54968L6.58304 6.49521L6.62698 6.46498ZM6.75832 6.47504V6.56096L6.89208 6.70164L6.85775 6.74209L6.72026 6.5975H6.58105L6.75832 6.47504ZM7.44172 6.05084H7.30124L7.22403 6.13377H7.07228L6.9691 6.19348L6.98906 6.24775L7.08235 6.19312H7.13129L7.28136 6.38663L7.44172 6.27777V6.05084Z" fill="#CA3745"/>
<path d="M6.60813 6.60961L6.53778 6.58032L6.5361 6.58162L6.44528 6.65189V6.67079L6.2998 6.87589L6.44528 7.08101V7.09991L6.53778 7.17145L6.60813 7.14216L6.5652 7.11046V7.05015L6.58226 7.02739H6.65848V6.72441H6.58226L6.5652 6.70164V6.64132L6.60813 6.60961Z" fill="#383739"/>
<path d="M6.4529 6.6547L6.53869 6.58832L6.59086 6.61007L6.55721 6.63492V6.70305L6.57843 6.73134H6.65047V7.01697H6.57843L6.55721 7.04526V7.11339L6.59086 7.13825L6.53869 7.16L6.4529 7.09361V7.07624L6.30957 6.87415L6.45291 6.67206L6.4529 6.6547Z" fill="#CA3745"/>
<path d="M6.48296 7.04486L6.44335 7.00664V6.98823L6.3584 6.87268L6.44337 6.75714V6.73872L6.48298 6.70051L6.55412 6.76502L6.51306 6.76468L6.57373 6.83333H6.71237L6.82139 6.73827V6.48757H7.09411L7.41081 6.2709V6.21408L7.36237 6.17808H7.34702L7.29428 6.21743L7.28611 6.24678L7.24484 6.18397L7.32503 6.10887H7.33785L7.42834 6.03485H7.46245L7.55295 6.10887H7.56576L7.64596 6.18397L7.6047 6.24678L7.59653 6.21743L7.54378 6.17808H7.52844L7.48001 6.21406V6.2709L7.7967 6.48757H8.0694V6.73827L8.17842 6.83333H8.31708L8.37775 6.76468L8.33668 6.76502L8.40783 6.70053L8.44742 6.73874V6.75714L8.53241 6.87268L8.44742 6.98823V7.00664L8.40783 7.04486L8.33668 6.98036L8.37775 6.98071L8.31708 6.91205H8.17844L8.0694 7.00711V7.25782H7.7967L7.48001 7.47448V7.53131L7.52844 7.56729H7.54378L7.59653 7.52796L7.6047 7.49859L7.64596 7.56139L7.56576 7.63651H7.55295L7.46245 7.71054H7.42834L7.33785 7.63651H7.32503L7.24482 7.56139L7.28611 7.49859L7.29428 7.52796L7.347 7.56731H7.36235L7.41081 7.53133V7.47448L7.09409 7.25782H6.82141V7.00709L6.71235 6.91203H6.57373L6.51306 6.98069L6.55412 6.98034L6.48296 7.04486Z" fill="#383739"/>
<path d="M7.44922 7.58141L7.48387 7.61096L7.44922 7.64049V7.58143V7.58141ZM7.33904 7.63515H7.34031L7.43081 7.70919H7.44138V7.65143L7.39391 7.61096L7.44138 7.57047V7.462L7.1025 7.23013H6.85198V6.99717L6.72264 6.88437H6.52756L6.47852 6.94619L6.42948 6.88439H6.37158L6.45107 6.99247V7.01001L6.48255 7.0405L6.53312 6.9966L6.50344 6.99686V6.98589L6.5696 6.91069H6.71496L6.82912 7.01024V7.25643H7.09621L7.41852 7.47696V7.5433L7.36463 7.58334H7.34452L7.28754 7.5408L7.28316 7.52501L7.25536 7.56728L7.32779 7.63513H7.33904V7.63515ZM6.47857 6.82703L6.51717 6.87569H6.43994L6.47856 6.82703H6.47857ZM7.4414 6.11958L7.40676 6.14911L7.4414 6.17867V6.11958ZM8.37345 6.88441L8.41206 6.93304L8.45067 6.88439H8.37345V6.88441ZM7.55029 6.12493L7.45979 6.0509H7.44922V6.10863L7.49673 6.14913L7.44922 6.18962V6.29809L7.78812 6.52994H8.03862V6.76294L8.16796 6.87573H8.36302L8.41206 6.81392L8.4611 6.87571H8.51902L8.43953 6.76764V6.75008L8.40807 6.71959L8.35748 6.76349L8.38718 6.76323V6.7742L8.321 6.84941H8.17565L8.0615 6.74986V6.5036H7.79439L7.4721 6.28307V6.21673L7.52599 6.17669H7.54608L7.60308 6.21925L7.60746 6.23503L7.63526 6.19275L7.56283 6.12489H7.55029V6.12493Z" fill="#FAAE29"/>
<path d="M7.44136 7.64047L7.40672 7.61094L7.44136 7.58141V7.64047ZM6.51713 6.88439L6.47852 6.93304L6.43991 6.88439H6.51713ZM7.55153 7.63513H7.55025L7.45976 7.70917H7.44918V7.65145L7.49669 7.61094L7.44918 7.57043V7.46198L7.78808 7.23011H8.03858V6.99715L8.16792 6.88437H8.36299L8.41202 6.94617L8.46106 6.88437H8.51898L8.4395 6.99245V7.00999L8.40803 7.04048L8.35744 6.99658L8.38714 6.99684V6.98587L8.32097 6.91067H8.17562L8.06146 7.01022V7.25645H7.79435L7.47206 7.47694V7.54328L7.52595 7.58332H7.54604L7.60304 7.54078L7.60742 7.52499L7.63522 7.56728L7.56279 7.63511H7.55153V7.63513ZM8.41202 6.82701L8.37341 6.87567H8.45065L8.41202 6.82701ZM7.34033 6.12493L7.43081 6.0509H7.44138V6.10863L7.39389 6.14913L7.4414 6.18962V6.29809L7.1025 6.52996H6.85202V6.76292L6.72266 6.87571H6.52754L6.4785 6.8139L6.42946 6.87569H6.37158L6.45107 6.76762V6.75008L6.48255 6.71959L6.5331 6.76349L6.50342 6.76321V6.7742L6.5696 6.84937H6.71495L6.8291 6.74984V6.5036H7.09619L7.4185 6.28309V6.21673L7.36461 6.17671H7.34452L7.28752 6.21925L7.28314 6.23503L7.25534 6.19275L7.32779 6.12491H7.34031L7.34033 6.12493ZM7.4492 6.17869L7.48386 6.14913L7.4492 6.11958V6.17869Z" fill="white"/>
<path d="M7.44142 6.88373V6.30762L7.10473 6.53798H6.85983V6.76649L6.73535 6.87503H7.44924V7.45114L7.7859 7.22077H8.03082V6.99228L8.1553 6.88375L7.44142 6.88373Z" fill="#28AE66"/>
<path d="M6.73535 6.88371L6.85985 6.99224V7.22075H7.10475L7.44144 7.45112V6.87499L8.15531 6.87501L8.03084 6.76647V6.53796H7.78592L7.44926 6.30762V6.88371H6.73535Z" fill="#CA3745"/>
<path d="M7.08275 6.59678L7.0245 6.53625L6.96678 6.57593L7.02512 6.63658L6.9502 6.68835H7.11372L7.25462 6.83651L7.29969 6.78347L7.16269 6.63936V6.54158L7.08275 6.59678ZM7.80749 7.15566L7.86575 7.21618L7.92345 7.17649L7.86511 7.11584L7.94004 7.06409H7.77651L7.63563 6.9159L7.59055 6.96897L7.72755 7.11307V7.21086L7.80749 7.15566ZM7.08275 7.15566L7.02448 7.21618L6.96678 7.17649L7.02512 7.11584L6.9502 7.06409H7.11372L7.2546 6.9159L7.29969 6.96897L7.16269 7.11307V7.21086L7.08275 7.15566ZM7.80749 6.59678L7.86575 6.53625L7.92345 6.57593L7.86511 6.63658L7.94004 6.68835H7.77651L7.63563 6.83651L7.59055 6.78347L7.72755 6.63936V6.54158L7.80749 6.59678Z" fill="#383739"/>
<path d="M7.86711 7.20241L7.81477 7.148L7.85863 7.11772L7.91104 7.17219L7.86711 7.20241ZM7.73576 7.19235V7.10644L7.60201 6.96577L7.63635 6.92532L7.77383 7.06991H7.91303L7.73576 7.19235ZM7.02393 6.54425L7.07629 6.59866L7.03241 6.62894L6.98 6.57447L7.02393 6.54425ZM7.1553 6.55433V6.64022L7.28905 6.78091L7.25471 6.82136L7.11723 6.67677H6.97803L7.1553 6.55433Z" fill="#CA3745"/>
<path d="M7.86711 6.54425L7.81477 6.59866L7.85863 6.62894L7.91104 6.57447L7.86711 6.54425ZM7.73576 6.55433V6.64022L7.60201 6.78091L7.63635 6.82136L7.77383 6.67677H7.91303L7.73576 6.55433ZM7.02393 7.20241L7.07627 7.148L7.03241 7.11772L6.98 7.17219L7.02393 7.20241ZM7.15528 7.19235V7.10644L7.28905 6.96577L7.25471 6.92532L7.11723 7.06991H6.97803L7.15528 7.19235Z" fill="#28AE66"/>
<path d="M7.80756 6.88151L7.44553 7.15051L7.0835 6.88151L7.44553 6.61249L7.80756 6.88151Z" fill="#383739"/>
<path d="M7.44172 6.62451L7.10353 6.87581H7.78773L7.44954 6.62451V7.13582L7.78775 6.88451H7.10352L7.44172 7.13582V6.62451Z" fill="white"/>
<path d="M7.54206 6.97177V7.04573H7.34846V6.97175H7.22314V6.78675H7.34844V6.71277H7.54206V6.78675H7.66736V6.97177H7.54206Z" fill="#383739"/>
<path d="M7.35625 6.72076V6.79475H7.23096V6.8742H7.44133V6.72076H7.35625ZM7.44915 6.8742H7.65953V6.79473H7.53425V6.72076H7.44915V6.8742ZM7.23096 6.8829V6.96237H7.35625V7.03633H7.44133V6.8829H7.23096ZM7.44917 7.03633H7.53425V6.96237H7.65955V6.8829H7.44917V7.03635V7.03633Z" fill="#CA3745"/>
<path d="M8.06285 9.94002V9.82153H8.35431V9.70303H8.64577V8.63228H8.35431V8.51378H8.06285V8.39529H7.77138V8.27679H7.11907V8.39529H6.82759V8.51378H6.53613V8.63228H6.24463V9.70303H6.53611V9.82153H6.82757V9.94002H7.11905V10.0585H7.77137V9.94002H8.06285Z" fill="#383739"/>
<path d="M7.12727 8.28479V8.4032H6.83566V8.52164H6.54405V8.64005H6.25244V9.69397H6.54405V9.81241H6.83566V9.9308H7.12727V10.0492H7.76355V9.9308H8.05518V9.81241H8.34681V9.69397H8.63838V8.64005H8.34681V8.52164H8.05518V8.4032H7.76355V8.28479H7.12727ZM7.20451 8.37091H7.68633V8.48932H7.97794V8.60775H8.26955V8.72617H8.56114V9.60786H8.26955V9.72627H7.97794V9.84468H7.68631V9.96308H7.20451V9.84468H6.91292V9.72627H6.62131V9.60784H6.3297V8.72614H6.62131V8.60775H6.91292V8.48932H7.20453V8.37091H7.20451Z" fill="#CA3745"/>
<path d="M6.92035 9.8374V9.71891H6.62888V9.60041H6.3374V8.73661H6.62888V8.61809H6.92035V8.4996H7.21181V8.3811H7.67852V8.4996H7.97V8.61809H8.26145V8.73659H8.55295V9.60039H8.26145V9.71889H7.97V9.8374H7.67852V9.9559H7.21183V9.8374H6.92035Z" fill="#CA3745"/>
<path d="M6.98805 8.58647L6.91256 8.52285V8.645L6.84026 8.69622L6.84008 8.61976L6.77075 8.68919L6.7014 8.61976L6.70122 8.69624L6.62112 8.63947V8.75274L6.55636 8.805L6.55618 8.73555L6.47927 8.79766L6.40236 8.73555L6.40217 8.805L6.32962 8.74644V9.08955H6.24463V9.24574H6.32962V9.58885L6.40217 9.53027L6.40236 9.59974L6.47929 9.53763L6.55618 9.59974L6.55636 9.53027L6.6211 9.58253V9.69582L6.70122 9.63905L6.7014 9.71553L6.77073 9.6461L6.84008 9.71553L6.84026 9.63905L6.91254 9.69027V9.81244L6.98805 9.74883L6.98822 9.83415L7.0622 9.76037L7.13619 9.83415L7.13636 9.74883L7.20404 9.80586V9.93616L7.30524 9.83332V9.95417L7.44521 9.85384L7.58518 9.95417V9.83332L7.68638 9.93616V9.80588L7.75405 9.74883L7.75423 9.83415L7.82821 9.76037L7.90222 9.83415L7.90237 9.74883L7.97784 9.81244V9.69027L8.05016 9.63905L8.05034 9.71553L8.11969 9.6461L8.18902 9.71553L8.1892 9.63905L8.26932 9.69582V9.58253L8.33407 9.53029L8.33426 9.59974L8.41115 9.53763L8.48808 9.59974L8.48826 9.53027L8.56082 9.58885V9.24572H8.64579V9.08953H8.5608V8.74642L8.48825 8.80498L8.48806 8.73553L8.41115 8.79764L8.33424 8.73553L8.33407 8.80498L8.26934 8.75272V8.63945L8.18922 8.69622L8.18904 8.61974L8.11969 8.68917L8.05034 8.61974L8.05016 8.69622L7.97786 8.64498V8.52283L7.90238 8.58645L7.9022 8.5011L7.82822 8.57488L7.75421 8.5011L7.75406 8.58645L7.68638 8.52939V8.39911L7.5852 8.50196V8.3811L7.44521 8.48143L7.30524 8.3811V8.50196L7.20406 8.39911V8.52939L7.13636 8.58645L7.13619 8.5011L7.0622 8.57488L6.98822 8.5011L6.98805 8.58647Z" fill="#383739"/>
<path d="M6.40995 8.82123L6.41013 8.75176L6.47928 8.80762L6.48159 8.80573L6.54841 8.75176L6.54859 8.82123L6.62111 8.7627V9.571L6.54859 9.51246L6.54841 9.58193L6.47928 9.52608L6.41013 9.58193L6.40995 9.51246L6.33743 9.571V9.23623H6.25244V9.09747H6.33743V8.76272L6.40995 8.82123ZM6.99598 8.51978L7.06219 8.58579L7.12842 8.51978L7.12858 8.60315L7.20404 8.53955V9.79417L7.12856 9.73055L7.12842 9.81394L7.06219 9.74791L6.99598 9.81394L6.99583 9.73057L6.92037 9.79417V8.53955L6.99583 8.60317L6.99598 8.51978ZM7.89443 8.51978L7.82822 8.58579L7.76199 8.51978L7.76182 8.60315L7.68639 8.53955V9.79417L7.76182 9.73055L7.762 9.81394L7.82822 9.74791L7.89443 9.81394L7.89459 9.73057L7.97005 9.79417V8.53955L7.89459 8.60317L7.89443 8.51978ZM8.48045 8.82123L8.48027 8.75176L8.41112 8.80762L8.40879 8.80573L8.34198 8.75176L8.3418 8.82123L8.26929 8.7627V9.571L8.3418 9.51246L8.34198 9.58193L8.41112 9.52608L8.48027 9.58193L8.48045 9.51246L8.55295 9.571V9.23623H8.63794V9.09747H8.55295V8.76272L8.48045 8.82123Z" fill="#28AE66"/>
<path d="M6.70917 8.63414L6.77074 8.6958L6.83232 8.63414L6.8325 8.70696L6.91257 8.65022V9.67485L6.8325 9.61813L6.83232 9.69093L6.77074 9.62929L6.70917 9.69093L6.70899 9.61813L6.62891 9.67485V8.65022L6.70899 8.70696L6.70917 8.63414ZM7.31305 8.51658L7.21185 8.41374V9.91133L7.31305 9.80849V9.9331L7.4452 9.83839L7.57736 9.9331V9.80849L7.67854 9.91133V8.41374L7.57736 8.51658V8.39197L7.4452 8.48668L7.31305 8.39197V8.51658ZM8.18126 8.63414L8.11969 8.6958L8.05811 8.63414L8.05793 8.70696L7.97784 8.65022V9.67485L8.05795 9.61813L8.05811 9.69093L8.11969 9.62929L8.18126 9.69093L8.18144 9.61813L8.26152 9.67485V8.65022L8.18144 8.70696L8.18126 8.63414Z" fill="#FAAE29"/>
<path d="M6.44781 9.01928C6.45665 9.02924 6.46725 9.03426 6.47924 9.03426C6.49125 9.03426 6.50183 9.02924 6.51069 9.01928C6.53836 8.98818 6.53931 8.93194 6.53902 8.89145L6.50124 8.93597L6.47924 8.89363C6.47924 8.89363 6.46128 8.92822 6.45724 8.93597L6.41946 8.89145C6.41919 8.93194 6.42012 8.98818 6.44781 9.01928ZM6.75185 8.93217L6.72852 8.90619V8.85444L6.67498 8.90977L6.7707 9.01651L6.86645 8.90977L6.81289 8.85444V8.90619L6.78957 8.93217V8.84048L6.83086 8.80095L6.7707 8.74335L6.71054 8.80095L6.75185 8.84048V8.93217ZM7.0433 8.82932L7.01998 8.80333V8.75158L6.96644 8.80692L7.06217 8.91365L7.15789 8.80692L7.10435 8.75158V8.80333L7.08102 8.82932V8.73762L7.12233 8.69808L7.06217 8.6405L7.00201 8.69808L7.0433 8.73762V8.82932Z" fill="#383739"/>
<path d="M6.47936 8.9075L6.49983 8.94693L6.53099 8.91022C6.5299 8.95595 6.52091 8.99205 6.50525 9.00961C6.49792 9.01786 6.48921 9.02205 6.47936 9.02205C6.46952 9.02205 6.4608 9.01786 6.45348 9.00963C6.43782 8.99205 6.42881 8.95593 6.42773 8.91024L6.45887 8.94693L6.47936 8.9075ZM7.07334 8.73012V8.84685L7.11228 8.80346V8.76803L7.14675 8.80368L7.06229 8.89784L6.97781 8.80368L7.01228 8.76803V8.80346L7.05122 8.84685V8.73012L7.01412 8.6946L7.06229 8.6485L7.11045 8.6946L7.07334 8.73012Z" fill="white"/>
<path d="M6.78205 8.83443V8.95116L6.82099 8.90774V8.87234L6.85546 8.90797L6.77098 9.00215L6.68652 8.90797L6.721 8.87234V8.90774L6.75994 8.95116V8.83443L6.72284 8.7989L6.77098 8.75281L6.81917 8.7989L6.78205 8.83443Z" fill="#CA3745"/>
<path d="M7.55948 8.86781L7.52812 8.8195L7.60854 8.73674L7.53355 8.66804V8.7167L7.5022 8.74662V8.65837L7.57302 8.60016L7.44488 8.49487L7.31674 8.60016L7.3876 8.65837V8.74662L7.35625 8.7167V8.66804L7.28125 8.73674L7.36168 8.8195L7.33033 8.86781H7.55948Z" fill="#383739"/>
<path d="M7.34592 8.8563L7.37236 8.81553L7.29346 8.73431L7.34873 8.68368V8.71791L7.39571 8.76274V8.65116L7.33023 8.59736L7.4452 8.50287L7.56016 8.59736L7.4947 8.65116V8.76274L7.54168 8.71791V8.68368L7.59695 8.73431L7.51803 8.81553L7.54449 8.8563H7.34592Z" fill="#CA3745"/>
<path d="M7.38672 8.59915L7.44527 8.64726L7.50383 8.59915L7.44527 8.55103L7.44296 8.55296L7.38672 8.59915Z" fill="#383739"/>
<path d="M7.4453 8.55902L7.49069 8.59632L7.4453 8.63361L7.3999 8.59632L7.4453 8.55902Z" fill="#28AE66"/>
<path d="M8.48247 9.12338H8.35418V9.06637H7.96203L7.68906 8.86646H7.20113L6.92815 9.06637H6.53602V9.12338H6.40771V9.22334H6.536V9.28035H6.92815L7.20113 9.48027H7.68906L7.96203 9.28035H8.35416V9.22334H8.48247V9.12338Z" fill="#383739"/>
<path d="M7.20343 8.87042L6.93016 9.06959H6.54394V9.12664H6.41553V9.20952H6.54394V9.2666H6.93018L7.20343 9.46682H7.68719L7.95947 9.2666H8.34668V9.20952H8.47509V9.12664H8.34668V9.06959H7.95947L7.68719 8.87042H7.20343ZM7.20923 8.89949H7.68042L7.9305 9.08249V9.11048H8.20957V9.22674H7.9305V9.25475L7.68042 9.43667H7.20923L6.96012 9.25475V9.22676H6.6801V9.1105H6.96012V9.08249L7.20923 8.89949Z" fill="#CA3745"/>
<path d="M7.67865 8.90253L7.92255 9.08104V9.11275H8.20205V9.21193H7.92255V9.24362L7.67865 9.42213H7.21188L6.96796 9.24362V9.21191H6.68848V9.11273H6.96798V9.08104L7.21188 8.90253H7.67865Z" fill="#CA3745"/>
<path d="M7.09072 9.26753L7.19632 9.35593L7.26578 9.29776L7.2254 9.26396L7.19632 9.2883L7.1715 9.26753L7.56919 8.93463H7.48843L7.09072 9.26753ZM7.32124 9.39761H7.402L7.79971 9.06473L7.69412 8.97636L7.62464 9.03449L7.66502 9.06829L7.69412 9.04394L7.71895 9.06473L7.32124 9.39761ZM7.48843 9.39761H7.56919L7.1715 9.06473L7.19632 9.04394L7.2254 9.06829L7.2658 9.03451L7.19632 8.97636L7.09072 9.06473L7.48843 9.39761ZM7.71895 9.26753L7.69412 9.2883L7.66502 9.26396L7.62464 9.29776L7.69412 9.35593L7.79971 9.26753L7.402 8.93463H7.32124L7.71895 9.26753ZM7.01074 9.16613L7.08171 9.21869L7.1527 9.16613L7.08171 9.11357L7.01074 9.16613Z" fill="#383739"/>
<path d="M7.37402 9.1717L7.44499 9.22426L7.51598 9.1717L7.44499 9.11914L7.37402 9.1717ZM7.87951 9.1717L7.80854 9.22426L7.73755 9.1717L7.80854 9.11914L7.87951 9.1717Z" fill="#383739"/>
<path d="M7.78649 9.26681L7.69392 9.34431L7.63744 9.29703L7.66482 9.27413L7.69392 9.29848L7.73174 9.26681L7.34444 8.94263H7.39919L7.78649 9.26681ZM7.54556 9.38819H7.49081L7.10353 9.06401L7.19612 8.98651L7.25257 9.03378L7.2252 9.05667L7.19612 9.03232L7.15828 9.06401L7.54556 9.38819ZM7.39919 9.38819H7.34444L7.73174 9.06401L7.69392 9.03232L7.66482 9.05667L7.63744 9.03378L7.69392 8.98651L7.78649 9.06401L7.39919 9.38819ZM7.49081 8.94263H7.54556L7.15828 9.26681L7.19612 9.29848L7.2252 9.27413L7.25257 9.29703L7.19612 9.34431L7.10352 9.26681L7.49081 8.94263Z" fill="#FAAE29"/>
<path d="M7.08176 9.12714L7.13862 9.16923L7.08176 9.21132L7.0249 9.16925L7.08176 9.12714ZM7.44529 9.12714L7.50215 9.16923L7.44529 9.21132L7.38845 9.16925L7.44529 9.12714ZM7.80882 9.12714L7.75196 9.16923L7.80882 9.21132L7.86566 9.16925L7.80882 9.12714Z" fill="#28AE66"/>
<path d="M6.19682 11.3839L6.16896 11.4278L6.2189 11.4704L6.16895 11.5129L6.1968 11.5568L6.25481 11.5643L6.31098 11.516L6.45102 11.6152V11.5328L6.36288 11.4704L6.45102 11.4079V11.3256L6.31098 11.4247L6.25483 11.3764L6.19682 11.3839Z" fill="#383739"/>
<path d="M6.19682 11.0951L6.16896 11.139L6.2189 11.1815L6.16895 11.2241L6.1968 11.268L6.25481 11.2755L6.31098 11.2271L6.45102 11.3263V11.244L6.36288 11.1816L6.45102 11.1191V11.0367L6.31098 11.1359L6.25483 11.0876L6.19682 11.0951ZM6.19682 11.8403L6.16896 11.7964L6.2189 11.7538L6.16895 11.7112L6.1968 11.6673L6.25481 11.6598L6.31098 11.7082L6.45102 11.609V11.6914L6.36288 11.7538L6.45102 11.8162V11.8986L6.31098 11.7994L6.25483 11.8478L6.19682 11.8403ZM8.69376 11.3812L8.72162 11.4251L8.67169 11.4677L8.72162 11.5102L8.69376 11.5541L8.63577 11.5617L8.57961 11.5133L8.43954 11.6125V11.5301L8.5277 11.4677L8.43954 11.4053V11.3229L8.57961 11.4221L8.63575 11.3737L8.69376 11.3812Z" fill="#383739"/>
<path d="M8.6936 11.093L8.72146 11.1369L8.67153 11.1795L8.72146 11.222L8.6936 11.266L8.63561 11.2735L8.57944 11.2251L8.43938 11.3243V11.2419L8.52754 11.1795L8.43938 11.1171V11.0347L8.57944 11.1339L8.63559 11.0855L8.6936 11.093ZM8.6936 11.8382L8.72146 11.7943L8.67153 11.7517L8.72146 11.7092L8.6936 11.6653L8.63561 11.6578L8.57944 11.7061L8.43938 11.6069V11.6893L8.52754 11.7517L8.43938 11.8142V11.8965L8.57944 11.7973L8.63559 11.8457L8.6936 11.8382ZM8.13293 10.5982V10.7172H8.21059V10.7698H8.28687V10.6741H8.21883V10.5982H8.13293ZM8.36183 10.7859V10.9049H8.4394V10.9575H8.51577V10.8618H8.44773V10.7859H8.36183ZM6.75733 10.5982V10.7172H6.67967V10.7698H6.60339V10.6741H6.67143V10.5982H6.75733ZM8.13293 12.333V12.214H8.21059V12.1614H8.28687V12.2572H8.21883V12.333H8.13293ZM6.75733 12.333V12.214H6.67967V12.1614H6.60339V12.2572H6.67143V12.333H6.75733ZM8.36183 12.1453V12.0263H8.4394V11.9737H8.51577V12.0695H8.44773V12.1453H8.36183ZM6.52845 10.7859V10.9049H6.45086V10.9575H6.37451V10.8618H6.44255V10.7859H6.52845ZM6.52845 12.1453V12.0263H6.45086V11.9737H6.37451V12.0695H6.44255V12.1453H6.52845ZM7.73235 10.5955L7.6731 10.5313L7.61487 10.5915L7.66561 10.6463L7.60012 10.7172H7.69736L7.73235 10.6794L7.76735 10.7172H7.86457L7.79907 10.6463L7.8498 10.5915L7.79159 10.5313C7.77181 10.5527 7.75209 10.5741 7.73235 10.5955ZM7.44513 10.5955L7.38588 10.5313L7.32767 10.5915L7.37841 10.6463L7.31291 10.7172H7.41015L7.44513 10.6794L7.48013 10.7172H7.57735L7.51187 10.6463L7.56259 10.5915L7.5044 10.5313C7.48462 10.5527 7.46489 10.5741 7.44513 10.5955ZM7.15793 10.5955L7.21718 10.5313L7.27541 10.5915L7.22467 10.6463L7.29016 10.7172H7.19292L7.15793 10.6794L7.12293 10.7172H7.02571L7.09121 10.6463L7.04048 10.5915L7.09869 10.5313C7.11846 10.5527 7.13819 10.5741 7.15793 10.5955ZM7.73235 12.3358L7.6731 12.3999L7.61487 12.3398L7.66561 12.2849L7.60012 12.214H7.69736L7.73235 12.2519L7.76735 12.214H7.86457L7.79907 12.2849L7.8498 12.3398L7.79159 12.3999C7.77181 12.3786 7.75209 12.3572 7.73235 12.3358ZM7.44513 12.3358L7.38588 12.3999L7.32767 12.3398L7.37841 12.2849L7.31291 12.214H7.41015L7.44513 12.2519L7.48013 12.214H7.57735L7.51187 12.2849L7.56259 12.3398L7.5044 12.3999C7.48462 12.3786 7.46489 12.3572 7.44513 12.3358ZM7.15793 12.3358L7.21718 12.3999L7.27541 12.3398L7.22467 12.2849L7.29016 12.214H7.19292L7.15793 12.2519L7.12293 12.214H7.02571L7.09121 12.2849L7.04048 12.3398L7.09869 12.3999C7.11846 12.3786 7.13819 12.3572 7.15793 12.3358Z" fill="#383739"/>
<path d="M6.4432 11.5333V11.595L6.31053 11.501L6.25255 11.551L6.20116 11.5443L6.17969 11.5104L6.23175 11.466L6.17969 11.4217L6.20118 11.3878L6.25254 11.3811L6.31053 11.4311L6.4432 11.3371V11.3988L6.3483 11.466L6.4432 11.5333ZM6.4432 11.2471V11.3089L6.31053 11.2149L6.25255 11.2648L6.20116 11.2582L6.17969 11.2243L6.23175 11.1799L6.17969 11.1355L6.20118 11.1017L6.25254 11.095L6.31053 11.145L6.4432 11.051V11.1127L6.3483 11.1799L6.4432 11.2471ZM6.4432 11.685V11.6233L6.31053 11.7172L6.25255 11.6673L6.20116 11.6739L6.17969 11.7078L6.23175 11.7522L6.17969 11.7966L6.20118 11.8305L6.25254 11.8371L6.31053 11.7872L6.4432 11.8811V11.8194L6.3483 11.7522L6.4432 11.685ZM8.44739 11.5333V11.595L8.58007 11.501L8.63804 11.551L8.68941 11.5443L8.7109 11.5104L8.65884 11.466L8.7109 11.4217L8.68941 11.3878L8.63804 11.3811L8.58007 11.4311L8.44739 11.3371V11.3988L8.54229 11.466L8.44739 11.5333ZM8.44739 11.2471V11.3089L8.58007 11.2149L8.63804 11.2648L8.68941 11.2582L8.7109 11.2243L8.65884 11.1799L8.7109 11.1355L8.68941 11.1017L8.63804 11.095L8.58007 11.145L8.44739 11.051V11.1127L8.54229 11.1799L8.44739 11.2471ZM8.44739 11.685V11.6233L8.58007 11.7172L8.63804 11.6673L8.68941 11.6739L8.7109 11.7078L8.65884 11.7522L8.7109 11.7966L8.68941 11.8305L8.63804 11.8371L8.58007 11.7872L8.44739 11.8811V11.8194L8.54229 11.7522L8.44739 11.685ZM8.2112 10.6074V10.6832H8.27921V10.7616H8.21858V10.709H8.14092V10.6074H8.2112ZM8.44008 10.7951V10.8709H8.50809V10.9493H8.44744V10.8967H8.3698V10.7951H8.44008ZM6.67939 10.6074V10.6832H6.61138V10.7616H6.67203V10.709H6.74967V10.6074H6.67939ZM8.2112 12.3247V12.2489H8.27921V12.1705H8.21858V12.2231H8.14092V12.3247H8.2112ZM6.67939 12.3247V12.2489H6.61136V12.1705H6.67201V12.2231H6.74967V12.3247H6.67939ZM8.44008 12.137V12.0612H8.50809V11.9828H8.44744V12.0354H8.3698V12.137H8.44008ZM6.45051 10.7951V10.8709H6.3825V10.9493H6.44315V10.8967H6.52079V10.7951H6.45051ZM6.45053 12.137V12.0612H6.3825V11.9828H6.44315V12.0354H6.52081V12.137H6.45053ZM7.67314 10.5438L7.73251 10.608L7.79189 10.5438L7.83863 10.592L7.78802 10.6468L7.84546 10.709H7.77068L7.73251 10.6677L7.69434 10.709H7.61956L7.677 10.6468L7.62639 10.592L7.67314 10.5438ZM7.38592 10.5438L7.4453 10.608L7.50467 10.5438L7.55139 10.592L7.50081 10.6468L7.55825 10.709H7.48345L7.4453 10.6677L7.40712 10.709H7.33234L7.38977 10.6468L7.33918 10.592L7.38592 10.5438ZM7.21749 10.5438L7.15812 10.608L7.09874 10.5438L7.052 10.592L7.10261 10.6468L7.04516 10.709H7.11994L7.15812 10.6677L7.19629 10.709H7.27107L7.21363 10.6468L7.26423 10.592L7.21749 10.5438ZM7.67314 12.3883L7.73251 12.3241L7.79189 12.3883L7.83863 12.3401L7.78802 12.2853L7.84546 12.2231H7.77068L7.73251 12.2644L7.69434 12.2231H7.61956L7.677 12.2853L7.62639 12.3401L7.67314 12.3883ZM7.38592 12.3883L7.4453 12.3241L7.50467 12.3883L7.55139 12.3401L7.50081 12.2853L7.55825 12.2231H7.48345L7.4453 12.2644L7.40712 12.2231H7.33234L7.38977 12.2853L7.33918 12.3401L7.38592 12.3883ZM7.21749 12.3883L7.15812 12.3241L7.09874 12.3883L7.052 12.3401L7.10261 12.2853L7.04516 12.2231H7.11994L7.15812 12.2644L7.19629 12.2231H7.27107L7.21363 12.2853L7.26423 12.3401L7.21749 12.3883Z" fill="#28AE66"/>
<path d="M6.67215 12.0303V12.218H8.21872V12.0303H8.44751V10.8915H8.21872V10.7039H6.67215V10.8915H6.44336V12.0303H6.67215Z" fill="#383739"/>
<path d="M6.68001 10.7199V10.9072H6.45117V12.029H6.68001V12.2163H8.21043V12.029H8.43931V10.9072H8.21045V10.7199H6.68001ZM6.77851 10.7921H8.11197V10.9729L8.16701 11.0181H8.37461V11.9192H8.16606L8.11197 11.9633V12.1452H6.77851V11.9644L6.72346 11.9192H6.5149V11.0181H6.72251L6.77851 10.9729V10.792V10.7921Z" fill="#CA3745"/>
<path d="M6.78657 10.7961V10.9619L6.98741 10.7961H6.78657ZM7.90276 10.7961L8.1036 10.9619V10.7961H7.90276ZM6.52393 11.0222V11.1772L6.71319 11.0222H6.52394H6.52393ZM8.17701 11.0222L8.36723 11.1783V11.0222H8.17701ZM8.36723 11.7488L8.17701 11.906H8.36723V11.7488ZM6.52393 11.7499V11.906H6.71317L6.52393 11.7499ZM6.78657 11.9663V12.131H6.98644L6.78657 11.9663ZM8.1036 11.9663L7.90375 12.131H8.1036V11.9663Z" fill="#CA3745"/>
<path d="M7.88973 10.7961L8.36714 11.1892V11.7382L7.88973 12.1313H7.00083L6.52344 11.7382V11.1892L7.00083 10.7961H7.88973V10.7961Z" fill="#28AE66"/>
<path d="M6.63692 11.8048L6.58205 11.7338L6.63357 11.6671L6.58203 11.6004L6.63357 11.5338L6.58203 11.4671L6.63357 11.4004L6.58203 11.3337L6.63355 11.2671L6.58203 11.2004L6.63692 11.1294H8.25322L8.30811 11.2004L8.2566 11.2671L8.30811 11.3337L8.2566 11.4004L8.30811 11.4671L8.2566 11.5337L8.30811 11.6004L8.2566 11.6671L8.30811 11.7337L8.25324 11.8048H6.63692ZM7.74797 10.8854L7.68426 10.8242L7.62447 10.8816L7.56467 10.8242L7.50488 10.8816L7.44508 10.8242L7.38529 10.8816L7.32547 10.8242L7.26568 10.8816L7.20588 10.8242L7.14219 10.8853V12.0488L7.20588 12.11L7.26568 12.0526L7.32547 12.11L7.38527 12.0526L7.44506 12.11L7.50486 12.0526L7.56465 12.11L7.62445 12.0526L7.68426 12.11L7.74797 12.0488V10.8854Z" fill="#383739"/>
<path d="M7.62097 10.8899L7.56509 10.8362L7.5092 10.8899V12.0454L7.56509 12.0991L7.62097 12.0454V10.8899ZM7.38179 10.8899L7.32589 10.8362L7.27002 10.8899V12.0454L7.32589 12.0991L7.38179 12.0454V10.8899Z" fill="#FAAE29"/>
<path d="M6.64092 11.7952L6.59277 11.7329L6.64092 11.6706H8.25007L8.29822 11.7329L8.25007 11.7952H6.64092ZM8.25007 11.4039L8.29824 11.4662L8.25007 11.5285H6.64094L6.59277 11.4662L6.64094 11.4039H8.25007ZM8.25007 11.2619L8.29822 11.1996L8.25007 11.1373H6.64092L6.59277 11.1996L6.64092 11.2619H8.25007Z" fill="#FAAE29"/>
<path d="M7.74055 10.8899L7.68468 10.8362L7.62879 10.8899V12.0454L7.68468 12.0991L7.74054 12.0454L7.74055 10.8899ZM7.26218 10.8899L7.20628 10.8362L7.15039 10.8899V12.0454L7.20628 12.0991L7.26218 12.0454V10.8899Z" fill="#CA3745"/>
<path d="M6.64094 11.665L6.59277 11.6027L6.64094 11.5403H8.25007L8.29824 11.6027L8.25007 11.665H6.64094ZM6.64094 11.3983L6.59277 11.336L6.64094 11.2737H8.25007L8.29824 11.336L8.25007 11.3983H6.64094Z" fill="#CA3745"/>
<path d="M7.50144 12.0454L7.44554 12.0991L7.38965 12.0454V10.8899L7.44554 10.8362L7.50144 10.8899V12.0454Z" fill="#CA3745"/>
<path d="M7.98561 10.9164H6.90128V11.0125H6.7627V11.9308H6.90128V12.0268H7.98951V11.9308H8.1281V11.0125H7.98951V10.9164H7.98561Z" fill="#383739"/>
<path d="M6.90906 10.9205V11.0163H6.77002V11.9173H6.90906V12.0132H7.023L6.79609 11.8011V11.1326L7.023 10.9205H6.90906V10.9205ZM7.86789 10.9205L8.09382 11.1325V11.8011L7.86789 12.0132H7.98183V11.9173H8.11991V11.0163H7.98181V10.9205H7.86789Z" fill="#CA3745"/>
<path d="M7.03545 10.9149L6.80371 11.1312V11.7911C6.80645 11.7937 7.0333 12.0055 7.03545 12.0075H7.85522L8.086 11.7911V11.1312L7.85522 10.9149H7.03545ZM7.04705 10.9514H7.84268L8.05317 11.1485V11.7739L7.84268 11.9699H7.04703L6.83749 11.7739V11.1485L7.04705 10.9514Z" fill="#28AE66"/>
<path d="M7.25763 11.7864L7.29326 11.8035L7.2998 11.8499L7.25496 11.8939L7.32009 11.9641H7.25743L7.21262 11.916L7.16782 11.9641H7.10514L7.17028 11.8939L7.12543 11.8499L7.13199 11.8035L7.1676 11.7864L7.21262 11.8265L7.21507 11.8243L7.25763 11.7864ZM7.49003 11.7864L7.52564 11.8035L7.5322 11.8499L7.48735 11.8939L7.55249 11.9641H7.48983L7.445 11.916L7.40021 11.9641H7.33754L7.40267 11.8939L7.35783 11.8499L7.36439 11.8035L7.39999 11.7864L7.44502 11.8265L7.44745 11.8243L7.49003 11.7864ZM7.63239 11.7864L7.59679 11.8035L7.59023 11.8499L7.63507 11.8939L7.56994 11.9641H7.63259L7.67742 11.916L7.72221 11.9641H7.78489L7.71975 11.8939L7.7646 11.8499L7.75803 11.8035L7.72243 11.7864L7.6774 11.8265L7.67496 11.8243L7.63239 11.7864ZM7.25763 11.1407L7.29326 11.1236L7.2998 11.0772L7.25496 11.0332L7.32009 10.963H7.25743L7.21262 11.0111L7.16782 10.963H7.10514L7.17028 11.0332L7.12543 11.0772L7.13199 11.1236L7.1676 11.1407L7.21262 11.1006L7.21507 11.1028L7.25763 11.1407ZM7.49003 11.1407L7.52564 11.1236L7.5322 11.0772L7.48735 11.0332L7.55249 10.963H7.48983L7.445 11.0111L7.40021 10.963H7.33754L7.40267 11.0332L7.35783 11.0772L7.36439 11.1236L7.39999 11.1407L7.44502 11.1006L7.44745 11.1028L7.49003 11.1407ZM7.63239 11.1407L7.59679 11.1236L7.59023 11.0772L7.63507 11.0332L7.56994 10.963H7.63259L7.67742 11.0111L7.72221 10.963H7.78489L7.71975 11.0332L7.7646 11.0772L7.75803 11.1236L7.72243 11.1407L7.6774 11.1006L7.67496 11.1028L7.63239 11.1407ZM8.04483 11.2148L8.00928 11.2476L8.04483 11.2804V11.3348L7.99016 11.2846L7.95093 11.3242L7.90885 11.3183L7.89403 11.2878L7.93024 11.2476L7.89403 11.2073L7.90885 11.1769C7.91235 11.1764 7.94777 11.1714 7.95093 11.171L7.99016 11.2106L8.04483 11.1604V11.2148ZM8.04483 11.4307L8.00928 11.4636L8.04483 11.4963V11.5507L7.99016 11.5005L7.95093 11.5402C7.94777 11.5397 7.91235 11.5347 7.90885 11.5343L7.89403 11.5038L7.93024 11.4635L7.89403 11.4233L7.90885 11.3928C7.91235 11.3923 7.94777 11.3874 7.95093 11.3869L7.99016 11.4265L8.04483 11.3763V11.4307ZM8.04483 11.7123L8.00928 11.6795L8.04483 11.6467V11.5923L7.99016 11.6425L7.95093 11.6029L7.90885 11.6088L7.89403 11.6393L7.93024 11.6795L7.89403 11.7197L7.90885 11.7502C7.91235 11.7507 7.94777 11.7557 7.95093 11.7561L7.99016 11.7165L8.04483 11.7667V11.7123ZM6.84521 11.2148L6.88076 11.2476L6.84521 11.2804V11.3348L6.89989 11.2846L6.93912 11.3242L6.98119 11.3183L6.99601 11.2878L6.95981 11.2476L6.99601 11.2073L6.98119 11.1769C6.97769 11.1764 6.94225 11.1714 6.93912 11.171L6.89989 11.2106L6.84521 11.1604V11.2148ZM6.84521 11.4307L6.88076 11.4636L6.84521 11.4963V11.5507L6.89989 11.5005L6.93912 11.5402C6.94225 11.5397 6.97769 11.5347 6.98119 11.5343L6.99601 11.5038L6.95981 11.4635L6.99601 11.4233L6.98119 11.3928C6.97769 11.3923 6.94225 11.3874 6.93912 11.3869L6.89989 11.4265L6.84521 11.3763V11.4307ZM6.84521 11.7123L6.88076 11.6795L6.84521 11.6467V11.5923L6.89989 11.6425L6.93912 11.6029L6.98119 11.6088L6.99601 11.6393L6.95981 11.6795L6.99601 11.7197L6.98119 11.7502C6.97769 11.7507 6.94225 11.7557 6.93912 11.7561L6.89989 11.7165L6.84521 11.7667V11.7123Z" fill="#28AE66"/>
<path d="M7.04992 10.9686C7.04781 10.9705 6.85665 11.149 6.84811 11.157C6.86534 11.1729 6.88202 11.1895 6.89929 11.2054C6.90366 11.201 6.93695 11.1677 6.93695 11.1677L6.98619 11.1753L7.00551 11.2151L6.97075 11.2538C6.97547 11.2591 7.00549 11.2926 7.00549 11.2926L6.98619 11.3324L6.93695 11.3389C6.93695 11.3389 6.90366 11.3067 6.89929 11.3023L6.84521 11.3529V11.3701C6.86341 11.3869 6.88104 11.4039 6.89929 11.4207C6.90366 11.4163 6.93695 11.3841 6.93695 11.3841L6.98619 11.3906L7.00551 11.4304L6.97075 11.4691C6.97547 11.4744 7.00549 11.5079 7.00549 11.5079L6.98619 11.5488L6.93695 11.5553C6.93695 11.5553 6.90366 11.522 6.89929 11.5176L6.84521 11.5682V11.5865L6.89929 11.6371C6.90366 11.6327 6.93695 11.5994 6.93695 11.5994L6.98619 11.6069L7.00551 11.6468L6.97075 11.6855L7.00549 11.7243L6.98619 11.7641L6.93695 11.7716C6.93695 11.7716 6.90366 11.7384 6.89929 11.734C6.88208 11.7498 6.86529 11.7655 6.84811 11.7813L7.04992 11.9697H7.09433L7.15905 11.8998L7.11752 11.8589L7.12523 11.8029L7.16869 11.7824L7.2131 11.8212L7.25656 11.7824L7.3 11.8029L7.3087 11.8589L7.26622 11.8998L7.32897 11.9665L7.39174 11.8998L7.34926 11.8589L7.35697 11.8029L7.4014 11.7824L7.44484 11.8212L7.48925 11.7824L7.53271 11.8029L7.54044 11.8589L7.49891 11.8998L7.56071 11.9676L7.62348 11.8998L7.58195 11.8589L7.58968 11.8029L7.63409 11.7824L7.67755 11.8212L7.72099 11.7824L7.76542 11.8029L7.77315 11.8589L7.73162 11.8998L7.79632 11.9697H7.83976L8.04157 11.7813C8.02438 11.7655 8.00762 11.7498 7.99039 11.734C7.98602 11.7384 7.9537 11.7716 7.9537 11.7716L7.90446 11.7641L7.88419 11.7243L7.91893 11.6855L7.88419 11.6468L7.90446 11.6069L7.9537 11.5994C7.9537 11.5994 7.98602 11.6327 7.99039 11.6371L8.04447 11.5865V11.5682L7.99039 11.5176C7.98602 11.522 7.9537 11.5553 7.9537 11.5553L7.90446 11.5488L7.88419 11.5079L7.91893 11.4691L7.88419 11.4304L7.90446 11.3906L7.9537 11.3841C7.9537 11.3841 7.98602 11.4163 7.99039 11.4207C8.00852 11.404 8.02638 11.3878 8.04447 11.3712V11.3518L7.99039 11.3023C7.98602 11.3067 7.9537 11.3389 7.9537 11.3389L7.90446 11.3324L7.88419 11.2926L7.91893 11.2538L7.88419 11.2151L7.90446 11.1753L7.9537 11.1677C7.9537 11.1677 7.98602 11.201 7.99039 11.2054C8.00771 11.1895 8.02523 11.1739 8.04253 11.158L7.83976 10.9686H7.79632L7.73162 11.0385L7.77313 11.0794L7.76542 11.1354L7.72099 11.157L7.67755 11.1182L7.63409 11.157L7.58968 11.1354L7.58195 11.0794L7.62348 11.0385L7.56168 10.9718L7.49891 11.0385L7.54044 11.0794L7.53271 11.1354L7.48925 11.157L7.44484 11.1182L7.4014 11.157L7.35697 11.1354L7.34924 11.0794L7.39172 11.0385L7.32897 10.9718L7.2662 11.0385L7.30868 11.0794L7.3 11.1354L7.25656 11.157L7.2131 11.1182L7.16869 11.157L7.12523 11.1354L7.11752 11.0794L7.15903 11.0385L7.09336 10.9686H7.04992ZM6.84521 11.4476V11.4917L6.86839 11.4691L6.84521 11.4476Z" fill="#CA3745"/>
<path d="M7.2131 11.9342L7.1793 11.9697H7.24591L7.2131 11.9342ZM7.44484 11.9342L7.41203 11.9697H7.47864L7.44484 11.9342ZM7.67753 11.9342L7.64375 11.9697H7.71133L7.67753 11.9342ZM7.17833 10.9686L7.2131 11.0052L7.2469 10.9686H7.17833ZM7.41104 10.9686L7.44484 11.0052L7.4796 10.9686H7.41104ZM7.64377 10.9686L7.67755 11.0052L7.71135 10.9686H7.64377ZM8.04447 11.2323L8.02129 11.2538L8.04447 11.2743V11.2323ZM8.04447 11.4476L8.02129 11.4691L8.04447 11.4907V11.4476ZM8.04447 11.664L8.02129 11.6855L8.04447 11.7071V11.664ZM6.84521 11.2312V11.2754L6.86839 11.2538L6.84521 11.2312ZM6.84521 11.4476V11.4917L6.86839 11.4691L6.84521 11.4476ZM6.84521 11.6629V11.7071L6.86839 11.6855L6.84521 11.6629Z" fill="white"/>
<path d="M7.64403 11.3855V11.3084H7.57408V11.2239H7.31645V11.3084H7.2465V11.3855H7.1499V11.5297H7.24652V11.6068H7.31645V11.6913H7.57408V11.6068H7.64403V11.5297H7.74063V11.3855H7.64403Z" fill="#383739"/>
<path d="M7.44136 11.2319V11.319L7.33063 11.3892V11.4525H7.15771V11.3935H7.25432V11.3164H7.32427V11.2319H7.44136ZM7.44918 11.6819V11.5948L7.55991 11.5246V11.4613H7.73282V11.5203H7.63622V11.5974H7.56627V11.6819H7.44918Z" fill="#FAAE29"/>
<path d="M7.55989 11.4525V11.3892L7.44916 11.319V11.2319H7.56625V11.3164H7.6362V11.3935H7.7328V11.4525H7.55989ZM7.15771 11.4613H7.33061V11.5246L7.44136 11.5948V11.6819H7.32426V11.5974H7.25432V11.5203H7.15771V11.4613Z" fill="white"/>
<path d="M7.33838 11.4646V11.5233L7.44129 11.5885V11.4646H7.33838Z" fill="#CA3745"/>
<path d="M7.44129 11.3282L7.33838 11.3935V11.4522H7.44129V11.3282Z" fill="#28AE66"/>
<path d="M7.55213 11.4522V11.3935L7.44922 11.3282V11.4522H7.55213Z" fill="#CA3745"/>
<path d="M7.44922 11.5885L7.55213 11.5233V11.4646H7.44922V11.5885Z" fill="#28AE66"/>
<path d="M6.50946 12.9989V13.2371H6.30592V13.4531H6.09961V14.0681H6.30592V14.2841H6.50946V14.5222H7.24957L7.37973 14.6094L7.31716 14.6513H7.05326L7.03051 14.6227H7.26967L7.20229 14.547H6.86017L7.01518 14.7269H7.33599L7.44558 14.6535L7.55518 14.7269H7.87601L8.031 14.547H7.68889L7.62151 14.6227H7.86069L7.83791 14.6513H7.57399L7.51146 14.6094L7.64162 14.5222H8.38171V14.2841H8.58527V14.0681H8.79156V13.4531H8.58527V13.2371H8.38171V12.9989H7.64162L7.51146 12.9117L7.57399 12.8698H7.83791L7.86069 12.8985H7.62151L7.68889 12.9741H8.031L7.87601 12.7942H7.55516L7.44559 12.8676L7.33599 12.7942H7.01518L6.86017 12.9741H7.20229L7.26967 12.8985H7.03049L7.05328 12.8698H7.31716L7.37971 12.9117L7.24955 12.9989H6.50946Z" fill="#383739"/>
<path d="M7.63928 14.5128H8.37409V14.2749H8.57686V14.0585H8.7835V13.461H8.57686V13.2457H8.37409V13.0078H7.6393L7.33419 12.8022H7.01844L6.87843 12.9647H7.19899L7.25113 12.9066H7.01264L7.04934 12.8603H7.31969L7.66537 13.0928H8.29686V13.3308H8.5006V13.5471H8.70724V13.9734H8.5006V14.1898H8.29686V14.4277H7.66537L7.31969 14.6592H7.04934L7.01264 14.614H7.25115L7.19901 14.5559H6.87843L7.01844 14.7184H7.33419L7.63928 14.5128ZM7.22506 14.4277H6.59357V14.1898H6.39079V13.9734H6.18416V13.5471H6.39079V13.3308H6.59357V13.0929H7.22506L7.57169 12.8603H7.84111L7.87781 12.9066H7.64027L7.69241 12.9647H8.01298L7.87298 12.8022H7.55723L7.25211 13.0078H6.51731V13.2457H6.31357V13.461H6.10693V14.0585H6.31357V14.2749H6.51731V14.5128H7.25211L7.55723 14.7184H7.87298L8.01298 14.5559H7.69241L7.64027 14.614H7.87781L7.84111 14.6592H7.57172L7.22506 14.4277Z" fill="#CA3745"/>
<path d="M7.44523 12.9547L7.22702 13.1011H6.60131V13.339H6.39853V13.5554H6.19189V13.9645H6.39853V14.1808H6.60131V14.4188H7.227L7.44522 14.5641L7.66343 14.4188H8.28912V14.1808H8.49286V13.9645H8.6995V13.5554H8.49286V13.339H8.28912V13.1011H7.66343L7.44523 12.9547ZM7.44523 13.0149L7.65091 13.1527H8.24377V13.3906H8.44751V13.6059H8.65318V13.9128H8.44751V14.1291H8.24377V14.367H7.65091L7.44523 14.5048L7.24053 14.367H6.64767V14.1291H6.44393V13.9128H6.23731V13.6059H6.44393V13.3906H6.64767V13.1527H7.24053L7.44523 13.0149Z" fill="#FAAE29"/>
<path d="M8.23581 14.1266V14.3648H7.6488L7.44562 14.5009L7.24246 14.3648H6.65546V14.1266H6.4519V13.9106H6.24561V13.6211H6.4519V13.4051H6.65546V13.1669H7.24246L7.44562 13.0308L7.6488 13.1669H8.23581V13.4051H8.43935V13.6211H8.64564V13.9106H8.43935V14.1266H8.23581Z" fill="#28AE66"/>
<path d="M6.73242 14.0366V14.2671H7.05509L6.73242 14.0285V14.0366ZM6.73242 13.4819V13.2515H7.05509L6.73242 13.4901V13.4819ZM8.15907 14.0366V14.2671H7.8364L8.15907 14.0285V14.0366ZM8.15907 13.4819V13.2515H7.8364L8.15907 13.4901V13.4819Z" fill="#383739"/>
<path d="M6.74023 14.044L7.02918 14.2577H6.74023V14.044ZM6.74023 13.4731C6.75146 13.4648 7.00949 13.274 7.02918 13.2595H6.74023V13.4731ZM8.15125 14.044L7.8623 14.2577H8.15125V14.044ZM8.15125 13.4731L7.8623 13.2595H8.15125V13.4731Z" fill="#CA3745"/>
<path d="M7.14376 13.6966V13.5789H7.10775L6.93499 13.4585L6.93293 13.4599L6.76226 13.5789H6.72623V13.6966H6.64502V13.823H6.72623V13.9407H6.76226L6.93499 14.0611L7.10775 13.9407H7.14376V13.823H7.2674V13.6966H7.14376Z" fill="#383739"/>
<path d="M6.93486 13.4665L7.09287 13.5767H6.77686L6.93486 13.4665ZM7.09286 13.9384L6.93486 14.0486L6.77687 13.9384H7.09286ZM7.05459 13.7031V13.8121H6.85754V13.7031H7.05459Z" fill="#CA3745"/>
<path d="M7.13595 13.8282V13.9372H6.9389V13.8282H7.13595ZM6.9311 13.8282V13.9372H6.73405V13.8282H6.9311ZM7.25959 13.7105V13.8195H7.06254V13.7105H7.25959ZM6.84988 13.7105V13.8195H6.65283V13.7105H6.84988ZM7.13595 13.5928V13.7018H6.9389V13.5928H7.13595ZM6.9311 13.5928V13.7018H6.73405V13.5928H6.9311Z" fill="#FAAE29"/>
<path d="M6.79554 13.7286V13.7892H6.70703V13.7286H6.79554ZM6.87675 13.6109V13.6715H6.78825V13.6109H6.87675ZM7.08159 13.6109V13.6715H6.99308V13.6109H7.08159ZM7.00037 13.7286V13.7892H6.91186V13.7286H7.00037ZM7.20522 13.7286V13.7892H7.11672V13.7286H7.20522ZM7.08159 13.8463V13.9069H6.99308V13.8463H7.08159ZM6.87675 13.8463V13.9069H6.78825V13.8463H6.87675Z" fill="#383739"/>
<path d="M6.78716 13.7354H6.71533V13.7773H6.78716V13.7354ZM6.86837 13.6177H6.79655V13.6596H6.86837V13.6177ZM7.07323 13.6177H7.0014V13.6596H7.07323V13.6177ZM6.99201 13.7354H6.92018V13.7773H6.99201V13.7354ZM7.19686 13.7354H7.12504V13.7773H7.19686V13.7354ZM7.07323 13.8531H7.0014V13.895H7.07323V13.8531ZM6.86837 13.8531H6.79655V13.895H6.86837V13.8531Z" fill="white"/>
<path d="M7.65422 13.5055V13.6232H7.61821L7.44545 13.7436L7.44339 13.7422L7.27272 13.6232H7.23669V13.5055H7.13428V13.3791H7.23669V13.2614H7.27272L7.44545 13.1409L7.61821 13.2614H7.65422V13.3791H7.75664V13.5055H7.65422Z" fill="#383739"/>
<path d="M7.44562 13.731L7.60364 13.6209H7.2876L7.4456 13.731H7.44562ZM7.60362 13.2591L7.44562 13.1489L7.28763 13.2591H7.60362Z" fill="#FAAE29"/>
<path d="M7.64641 13.3754V13.2664H7.44936V13.3754H7.64641ZM7.44156 13.3754V13.2664H7.24451V13.3754H7.44156ZM7.74882 13.4931V13.3841H7.55178V13.4931H7.74882ZM7.54397 13.4931V13.3841H7.34692V13.4931H7.54397ZM7.33912 13.4931V13.3841H7.14209V13.4931H7.33912ZM7.64641 13.6108V13.5018H7.44936V13.6108H7.64641ZM7.44156 13.6108V13.5018H7.24451V13.6108H7.44156Z" fill="#CA3745"/>
<path d="M7.38723 13.2933V13.3539H7.29872V13.2933H7.38723ZM7.59208 13.2933V13.3539H7.50358V13.2933H7.59208ZM7.2848 13.411V13.4716H7.19629V13.411H7.2848ZM7.48967 13.411V13.4716H7.40116V13.411H7.48967ZM7.69452 13.411V13.4716H7.60601V13.411H7.69452ZM7.38723 13.5287V13.5893H7.29872V13.5287H7.38723ZM7.59208 13.5287V13.5893H7.50358V13.5287H7.59208Z" fill="#383739"/>
<path d="M7.37885 13.3078H7.30702V13.3498H7.37885V13.3078ZM7.5837 13.3078H7.51188V13.3498H7.5837V13.3078ZM7.27642 13.4255H7.20459V13.4675H7.27642V13.4255ZM7.48129 13.4255H7.40946V13.4675H7.48129V13.4255ZM7.68612 13.4255H7.61429V13.4675H7.68612V13.4255ZM7.37885 13.5432H7.30702V13.5852H7.37885V13.5432ZM7.5837 13.5432H7.51188V13.5852H7.5837V13.5432Z" fill="white"/>
<path d="M6.32764 15.5458L7.09425 15.0858H7.79682L8.56341 15.5458V16.3037L7.79682 16.7637H7.09423L6.32764 16.3037V15.5458Z" fill="#383739"/>
<path d="M7.09683 15.0938L6.33594 15.5503V16.2973L7.09683 16.7538H7.79491L8.55584 16.2973V15.5503L7.79491 15.0938H7.09683V15.0938ZM7.11032 15.1552H7.7814L8.50175 15.5869V16.2618L7.7814 16.6935H7.10992L6.38961 16.2618V15.5868L7.11032 15.1552Z" fill="#28AE66"/>
<path d="M7.44947 15.9223V16.6874H7.77934L8.49365 16.2588V15.931H7.44166V15.166H7.11179L6.39746 15.5946V15.9223H7.44947Z" fill="#FAAE29"/>
<path d="M7.44165 15.9223V16.6874H7.11177L6.39746 16.2588V15.931H7.44945V15.166H7.77934L8.49365 15.5946V15.9223H7.44165Z" fill="white"/>
<path d="M7.50959 16.6378V16.4167L7.44548 16.462L7.38134 16.4167V16.6378H7.18187L7.31646 16.5278V16.3708L7.11119 16.2256H6.96777V15.6144H7.11121L7.31648 15.4692V15.3122L7.18187 15.2021H7.38134V15.4233L7.44548 15.3779L7.50959 15.4233V15.2021H7.70906L7.57447 15.3122V15.4692L7.77974 15.6144H7.92316V16.2256H7.77972L7.57445 16.3708V16.5278L7.70906 16.6378H7.50959Z" fill="#383739"/>
<path d="M7.51776 15.2182V15.4464L7.4492 15.398V15.4626L7.76301 15.6854H7.86632V15.9223H7.91558V15.6295H7.77749L7.56702 15.4809V15.3151L7.68575 15.2182H7.51776V15.2182ZM6.97607 15.9309V16.2237H7.11316L7.32463 16.3733V16.5391L7.20588 16.636H7.37389V16.4078L7.44147 16.4562V16.3895L7.12768 16.1688H7.02531V15.9309H6.97607Z" fill="#FAAE29"/>
<path d="M7.20586 15.2182L7.32463 15.3151V15.4809L7.11316 15.6295H6.97607V15.9223H7.0253V15.6854H7.12766L7.44147 15.4636V15.398L7.37389 15.4464V15.2182H7.20586V15.2182ZM7.86632 15.9309V16.1688H7.763L7.44918 16.3895V16.4562L7.51775 16.4078V16.636H7.68575L7.567 16.5391V16.3733L7.77749 16.2237H7.91556V15.9309H7.86632Z" fill="white"/>
<path d="M7.03271 16.1598H7.13003L7.44554 16.383L7.76104 16.1598H7.85836V15.6941H7.76104L7.44554 15.4709L7.13003 15.6941H7.03271V16.1598Z" fill="#CA3745"/>
<path d="M7.66387 16.0377H7.73123V16.0022H7.68055V15.9375H7.78887V16.1023H7.68503V16.2147H7.4713V16.0532H7.56537V16.1178H7.52893V16.1501H7.62741V16.0883L7.22705 15.8163H7.15969V15.8519H7.21037V15.9165H7.10205V15.7517H7.20589V15.6393H7.41962V15.8008H7.32555V15.7362H7.36199V15.7039H7.26352V15.7657L7.66387 16.0377ZM7.62741 15.7657V15.7039H7.52893V15.7362H7.56537V15.8008H7.4713V15.6393H7.68505V15.7517H7.78887V15.9165H7.68057V15.8519H7.73125V15.8163H7.66387L7.26353 16.0883V16.1501H7.36198V16.1178H7.32555V16.0532H7.41962V16.2147H7.20589V16.1023H7.10205V15.9375H7.21037V16.0022H7.15969V16.0377H7.22705L7.62741 15.7657Z" fill="#383739"/>
<path d="M7.6352 16.0828V16.1582H7.52108V16.1084H7.55754V16.0613H7.4791V16.2053H7.6772V16.0929H7.78104V15.9456H7.68834V15.9928H7.73902V16.0458H7.66165L7.25567 15.7699V15.6946H7.36979V15.7443H7.33335V15.7915H7.41179V15.6474H7.21368V15.7598H7.10986V15.9071H7.20253V15.8599H7.15185V15.807H7.22922L7.6352 16.0828ZM7.66165 15.807H7.73904V15.8599H7.68836V15.9071H7.78104V15.7598H7.67722V15.6474H7.4791V15.7915H7.55754V15.7443H7.5211V15.6946H7.6352V15.7699L7.22922 16.0457H7.15187V15.9928H7.20255V15.9456H7.10986V16.0929H7.21368V16.2053H7.41179V16.0613H7.33335V16.1084H7.36979V16.1581H7.25567V16.0828L7.66165 15.807Z" fill="white"/>
<path d="M8.33967 15.9636V16.2026H8.24843V16.1182H8.15644V16.2026H8.0652V15.9636H8.15644V16.048H8.24843V15.9636H8.33967ZM8.01317 16.2809V16.52H7.92193V16.4356H7.82994V16.52H7.7387V16.2809H7.82994V16.3654H7.92193V16.281L8.01317 16.2809ZM8.33967 15.8869V15.6479H8.24843V15.7323H8.15644V15.6479H8.0652V15.8869H8.15644V15.8025H8.24843V15.8869H8.33967ZM6.5515 15.9636V16.2026H6.64274V16.1182H6.73473V16.2026H6.82597V15.9636H6.73473V16.048H6.64274V15.9636H6.5515ZM6.5515 15.8869V15.6479H6.64274V15.7323H6.73473V15.6479H6.82597V15.8869H6.73473V15.8025H6.64274V15.8869H6.5515ZM8.01317 15.5696V15.3305H7.92193V15.4149H7.82994V15.3305H7.7387V15.5696H7.82994V15.4852H7.92193V15.5696L8.01317 15.5696ZM6.87801 16.2809V16.52H6.96926V16.4356H7.06125V16.52H7.15249V16.2809H7.06125V16.3654H6.96926V16.281L6.87801 16.2809ZM6.87801 15.5696V15.3305H6.96926V15.4149H7.06125V15.3305H7.15249V15.5696H7.06125V15.4852H6.96926V15.5696L6.87801 15.5696ZM8.0676 15.402V15.5836H8.37017L8.0676 15.402ZM6.82356 16.4485V16.2669H6.521L6.82356 16.4485ZM6.82356 15.402V15.5836H6.521L6.82356 15.402ZM8.0676 16.4485V16.2669H8.37017L8.0676 16.4485Z" fill="#383739"/>
<path d="M8.25648 16.1094V16.1939H8.3321V15.9722H8.25648V16.0567H8.14887V15.9722H8.07325V16.1939H8.14887V16.1094H8.25648ZM7.92998 16.4268V16.5112H8.0056V16.2896H7.92998V16.374H7.82237V16.2896H7.74675V16.5112H7.82237V16.4268H7.92998ZM8.25648 15.741V15.6565H8.3321V15.8782H8.25648V15.7937H8.14887V15.8782H8.07325V15.6565H8.14887V15.741H8.25648ZM6.63519 16.1094V16.1939H6.55957V15.9722H6.63519V16.0567H6.7428V15.9722H6.81842V16.1939H6.7428V16.1094H6.63519ZM6.63519 15.741V15.6565H6.55957V15.8782H6.63519V15.7937H6.7428V15.8782H6.81842V15.6565H6.7428V15.741H6.63519ZM7.92998 15.4236V15.3392H8.0056V15.5608H7.92998V15.4764H7.82237V15.5608H7.74675V15.3392H7.82237V15.4236H7.92998ZM6.96169 16.4268V16.5112H6.88607V16.2896H6.96169V16.374H7.0693V16.2896H7.14492V16.5112H7.0693V16.4268H6.96169ZM6.96169 15.4236V15.3392H6.88607V15.5608H6.96169V15.4764H7.0693V15.5608H7.14492V15.3392H7.0693V15.4236H6.96169Z" fill="#CA3745"/>
<path d="M8.07592 15.4107V15.569H8.33955L8.07592 15.4107ZM6.55225 16.2698L6.81585 16.428V16.2698H6.55225Z" fill="#FAAE29"/>
<path d="M6.81585 15.4107L6.55225 15.569H6.81585V15.4107ZM8.07592 16.2698V16.428L8.33955 16.2698H8.07594H8.07592Z" fill="white"/>
<path d="M20 6L20 18L4 18L4 6L20 6ZM20 5L4 5C3.4 5 3 5.4 3 6L3 18C3 18.6 3.4 19 4 19L20 19C20.6 19 21 18.6 21 18L21 6C21 5.4 20.6 5 20 5Z" fill="#B5B5B5"/>
</svg>
