<svg width="24" height="24" viewBox="0 0 24 24" fill="none" xmlns="http://www.w3.org/2000/svg">
<path d="M20 6H4V18H20V6Z" fill="#E30A17"/>
<path d="M9.90625 15C11.7012 15 13.1562 13.6569 13.1562 12C13.1562 10.3431 11.7012 9 9.90625 9C8.11132 9 6.65625 10.3431 6.65625 12C6.65625 13.6569 8.11132 15 9.90625 15Z" fill="white"/>
<path d="M10.7187 14.3977C12.1546 14.3977 13.3187 13.3231 13.3187 11.9977C13.3187 10.6722 12.1546 9.59766 10.7187 9.59766C9.28271 9.59766 8.11865 10.6722 8.11865 11.9977C8.11865 13.3231 9.28271 14.3977 10.7187 14.3977Z" fill="#E30A17"/>
<path d="M12.479 12.0047L15.4186 12.8864L13.6018 10.5781V13.4313L15.4186 11.123L12.479 12.0047Z" fill="white"/>
<path d="M20 6L20 18L4 18L4 6L20 6ZM20 5L4 5C3.4 5 3 5.4 3 6L3 18C3 18.6 3.4 19 4 19L20 19C20.6 19 21 18.6 21 18L21 6C21 5.4 20.6 5 20 5Z" fill="#B5B5B5"/>
</svg>
