<svg width="24" height="24" viewBox="0 0 24 24" fill="none" xmlns="http://www.w3.org/2000/svg">
<path d="M20 6H4V18H20V6Z" fill="white"/>
<path d="M8.9893 14.5C8.9893 14.5 8.97634 14.4089 9.14285 14.3422C9.30936 14.2754 9.32231 14.0265 9.28901 13.8606C9.28901 13.8606 9.20206 14.0184 9.0966 14.071C9.0966 14.071 8.92455 14.1641 8.91667 14.3419C8.91667 14.3419 8.91531 14.4069 8.90235 14.4575C8.89526 14.4852 8.8191 14.2349 8.9634 14.0488C9.11231 13.8567 9.15395 13.7008 9.03554 13.3973C9.03554 13.3973 9.02444 13.5814 8.90789 13.6866C8.79134 13.7918 8.77651 13.7999 8.77838 14.0508C8.77838 14.0508 8.78024 14.1378 8.73584 14.1661C8.73584 14.1661 8.64519 14.0285 8.62113 13.9375C8.59708 13.8464 8.58598 13.808 8.68958 13.7028C8.68958 13.7028 9.02148 13.4801 8.78208 12.9926C8.78208 12.9926 8.77468 13.1605 8.65997 13.2597C8.54527 13.3588 8.55452 13.4256 8.54897 13.5976C8.54341 13.7696 8.53231 13.7574 8.51936 13.7817C8.51936 13.7817 8.30846 13.3791 8.47126 13.1646C8.63406 12.9501 8.72472 12.9056 8.54527 12.507C8.54527 12.507 8.55323 12.7114 8.40957 12.8125C8.26592 12.9137 8.29922 13.1504 8.29922 13.1504C8.29922 13.1504 8.30846 13.2395 8.27887 13.3042C8.27887 13.3042 8.07565 12.8926 8.26963 12.6709C8.43428 12.4827 8.44538 12.3512 8.35658 12.0841C8.35658 12.0841 8.34548 12.2076 8.25483 12.2743C8.16418 12.3411 8.09203 12.4079 8.10867 12.6648C8.10867 12.6648 8.11607 12.8449 8.09387 12.8955C8.09387 12.8955 8.00876 12.7316 7.98472 12.6243C7.96067 12.5171 7.95142 12.4544 8.01432 12.3471C8.07723 12.2399 8.32699 11.9324 8.02912 11.4893C8.02912 11.4893 8.01988 11.6329 7.94402 11.7624C7.86817 11.8919 7.90331 12.0457 7.91997 12.163C7.93663 12.2804 7.88113 12.3937 7.88113 12.3937C7.88113 12.3937 7.75162 12.1468 7.77937 11.8636C7.80712 11.5803 7.69612 11.3476 7.44451 11.1797C7.44451 11.1797 7.26135 11.6208 7.51111 11.8454C7.51111 11.8454 7.72387 12.0639 7.77752 12.3289C7.77752 12.3289 7.61656 12.3128 7.47041 12.0174C7.32425 11.7219 7.02085 11.7685 7.00049 11.7665C7.00049 11.7665 7.05045 12.2237 7.51666 12.3532C7.51666 12.3532 7.81452 12.4058 7.87002 12.6325C7.87002 12.6325 7.91997 12.7883 7.94033 12.8712C7.94033 12.8712 7.84598 12.8328 7.75902 12.6992C7.67207 12.5657 7.68317 12.5495 7.389 12.5191C7.389 12.5191 7.27059 12.505 7.20769 12.418C7.20769 12.418 7.33164 12.9016 7.64985 12.8975C7.64985 12.8975 7.94032 12.8651 8.10312 13.2617C8.10312 13.2617 8.07167 13.2415 8.02911 13.2111C7.98656 13.1808 7.87926 13.1241 7.6665 13.1504C7.45374 13.1767 7.39453 13.1403 7.34089 13.1221C7.34089 13.1221 7.55549 13.5308 7.85891 13.4094C8.16232 13.288 8.30886 13.7307 8.31217 13.7392C8.31217 13.7392 8.27147 13.7068 8.21782 13.6522C8.16418 13.5975 8.05279 13.5302 7.84225 13.5996C7.84225 13.5996 7.69056 13.6603 7.53699 13.6117C7.53699 13.6117 7.685 13.9091 8.03095 13.8586C8.37691 13.808 8.46387 14.1236 8.46387 14.1236C8.46387 14.1236 8.41763 14.0953 8.38617 14.069C8.35472 14.0427 8.23816 13.9739 7.98841 14.0508C7.73865 14.1277 7.648 14.0386 7.648 14.0386C7.648 14.0386 7.78675 14.3017 8.05316 14.332C8.05316 14.332 8.20117 14.33 8.26406 14.3057C8.32696 14.2814 8.49346 14.243 8.60817 14.415C8.60817 14.415 8.57672 14.421 8.52862 14.3988C8.52862 14.3988 8.35102 14.332 8.21596 14.4494C8.21596 14.4494 8.0957 14.5768 7.92549 14.5525C7.92549 14.5525 8.14565 14.7751 8.49531 14.5869C8.49531 14.5869 8.61371 14.4979 8.70066 14.5667C8.78764 14.6356 8.9893 14.5 8.9893 14.5Z" fill="#369443" stroke="#010002" stroke-width="0.05" stroke-miterlimit="10"/>
<path d="M10.9355 9.01035C10.9355 9.01035 10.8949 8.63381 11.1847 8.5976C11.4869 8.55982 11.6361 8.62593 11.6361 8.62593L11.7718 8.90245L11.7249 9.0886L11.5374 9.17763C11.5374 9.17763 11.5695 8.89166 11.3171 8.88571C11.2531 8.8842 11.2155 8.91054 11.1144 8.89387C11.0126 8.87709 10.9582 8.99319 10.9355 9.01035Z" fill="#F4C53D" stroke="#010002" stroke-width="0.05" stroke-miterlimit="10"/>
<path d="M12.974 9.94488C12.9308 10.0029 12.7581 10.0231 12.7581 10.0231C12.7581 10.0231 12.9357 10.1647 13.0122 10.3671C13.0887 10.5694 10.9537 10.3684 10.9537 10.3684C10.9537 10.3684 11.0462 10.2996 11.1091 10.1701C11.1091 10.1701 11.0148 10.2066 10.9204 10.1094C10.9204 10.1094 10.9907 10.1337 11.0832 9.98803C11.0832 9.98803 11.2201 9.80594 11.3163 9.75738C11.3163 9.75738 11.2719 9.78571 11.1646 9.72501C11.1646 9.72501 11.3496 9.70073 11.4162 9.37295C11.4162 9.37295 11.4273 9.30011 11.4976 9.1949C11.5679 9.08968 11.5531 9.21513 11.6826 9.05326C11.6826 9.05326 11.7418 8.93861 11.69 8.86846C11.6382 8.79832 11.5827 8.82396 11.4742 8.75651C11.3657 8.68906 11.3176 8.65129 11.3546 8.54743C11.3916 8.44357 11.4878 8.45976 11.5013 8.45976C11.5149 8.45976 11.5223 8.36939 11.6407 8.30733C11.7591 8.24528 12.0736 8.27225 12.1205 8.29924C12.1674 8.32622 12.3573 8.38422 12.4683 8.67558C12.5793 8.96694 12.4387 9.0762 12.7409 9.51593C12.7409 9.51593 12.62 9.54291 12.5423 9.51863C12.5423 9.51863 12.6989 9.80729 12.974 9.94488Z" fill="#F4C53D" stroke="#010002" stroke-width="0.05" stroke-miterlimit="10"/>
<path d="M11.6534 8.71655C11.4073 8.70441 11.5017 8.46094 11.5017 8.46094" stroke="#010002" stroke-width="0.05" stroke-miterlimit="10"/>
<path d="M12.0807 8.74772C12.0807 8.74772 12.0372 8.72648 12.0004 8.6759C11.9488 8.60492 11.8337 8.57069 11.7717 8.63746C11.7717 8.63746 11.7088 8.7103 11.6533 8.71435C11.6533 8.71435 11.7162 8.73458 11.7597 8.77606C11.8032 8.81754 11.8485 8.84789 11.9133 8.83878C11.978 8.82968 11.9882 8.79427 12.0187 8.77303C12.0492 8.75176 12.0807 8.74772 12.0807 8.74772Z" fill="#F4C53D" stroke="#010002" stroke-width="0.05" stroke-miterlimit="10"/>
<path d="M13.6807 12.3872C13.6807 12.3872 13.9101 12.5815 14.1025 12.3872C14.1025 12.3872 14.1802 12.4843 14.3356 12.456C14.491 12.4277 14.5169 12.3427 14.5317 12.2941C14.5317 12.2941 14.6661 12.3756 14.7796 12.3112C14.8931 12.2469 14.8931 12.1498 14.8931 12.1498C14.8931 12.1498 15.0904 12.1902 15.1916 12.0513C15.2927 11.9124 15.231 11.7748 15.1768 11.7586C15.1768 11.7586 15.3901 11.8167 15.4481 11.6264C15.4974 11.4646 15.3864 11.381 15.3864 11.381C15.3864 11.381 15.836 11.3787 16.0204 11.2326C16.0204 11.2326 16.1733 11.1328 16.0821 11.0276C16.0821 11.0276 16.4866 10.9601 16.5878 10.7928C16.5878 10.7928 16.6322 10.747 16.6174 10.6661C16.6174 10.6661 16.6149 10.6202 16.5705 10.6175C16.5705 10.6175 17.0318 10.5435 17.165 10.3855C17.165 10.3855 17.2291 10.3126 17.197 10.2155C17.197 10.2155 17.1903 10.1899 17.1792 10.1727C17.1792 10.1727 17.5991 10.0806 17.8063 9.88639C17.8063 9.88639 17.9259 9.77572 17.8643 9.62735C17.8643 9.62735 18.5661 9.42777 18.4033 9.10673C18.4033 9.10673 18.7314 8.99612 18.6278 8.68858C18.6278 8.68858 18.8991 8.5456 18.7807 8.31899C18.6674 8.10212 18.3194 8.35676 17.9074 8.47515C17.9074 8.47515 16.7925 8.83967 16.2434 8.93667L14.6834 11.3486L13.7732 11.7128L13.6807 12.3872Z" fill="#F4C53D" stroke="#010002" stroke-width="0.05"/>
<path d="M13.67 10.6107C13.67 10.6107 13.8162 10.4967 14.077 10.6309C14.077 10.6309 14.1648 10.6937 14.2339 10.6249C14.2916 10.5674 14.297 10.4614 14.2176 10.4002C14.0234 10.2505 13.9512 9.80131 14.2472 9.61518C14.2472 9.61518 14.6765 9.35079 16.2503 8.93486C16.2503 8.93486 16.3822 8.89689 16.4525 8.9151C16.5299 8.93515 16.5833 9.00413 16.5942 9.06315C16.5942 9.06315 16.6646 9.27099 16.4278 9.38991C16.4278 9.38991 16.321 9.44071 16.2108 9.47355C16.2108 9.47355 16.3318 9.44638 16.3834 9.57067C16.4328 9.68937 16.3612 9.81077 16.1392 9.889C16.1392 9.889 16.0792 9.91327 15.9937 9.93487C15.9937 9.93487 16.1836 9.99151 16.0924 10.1507C16.0924 10.1507 16.011 10.318 15.7236 10.3476C15.7236 10.3476 15.9382 10.3719 15.7865 10.5837C15.7865 10.5837 15.7199 10.6997 15.5102 10.7428C15.5102 10.7428 15.6693 10.7482 15.5891 10.8966C15.509 11.045 15.3203 11.1286 15.1347 11.1421C15.1347 11.1421 15.0341 11.1475 14.9638 11.1313C14.9638 11.1313 15.1402 11.223 15.0366 11.3768C15.0366 11.3768 14.9601 11.4861 14.769 11.4807C14.769 11.4807 14.8186 11.6524 14.6783 11.7174C14.5691 11.768 14.4785 11.6871 14.4785 11.6871C14.4785 11.6871 14.5155 11.8712 14.3564 11.9359C14.3564 11.9359 14.2768 11.9784 14.1584 11.9359C14.1584 11.9359 14.0678 12.1464 13.7459 11.9986C13.4239 11.851 13.67 10.6107 13.67 10.6107Z" fill="#F4C53D" stroke="#010002" stroke-width="0.05"/>
<path d="M18.6279 8.6875C18.6279 8.6875 18.1222 8.99155 16.5474 9.29559" stroke="#010002" stroke-width="0.05"/>
<path d="M9.59656 14.0671C9.59656 14.0671 9.40909 14.4016 9.18214 14.407C9.18214 14.407 8.79177 14.3577 8.68139 14.4637C8.60442 14.5376 8.52598 14.5986 8.49392 14.7874C8.46186 14.9763 8.55558 15.0167 8.57778 15.0248C8.57778 15.0248 8.59505 15.1597 8.72332 15.1246C8.72332 15.1246 8.73072 15.2649 8.95767 15.1975C9.18461 15.13 9.27835 15.1516 9.32275 14.9169C9.36716 14.6822 9.40815 14.686 9.44856 14.6579C9.50284 14.6201 9.60479 14.5844 9.68044 14.5392C9.7484 14.4986 10.0085 14.3612 10.0973 14.3504C10.1861 14.3396 10.1664 14.0293 10.1664 14.0293H9.93697L9.82596 13.8594L9.59656 14.0671Z" fill="#F4C53D" stroke="#010002" stroke-width="0.05"/>
<path d="M18.4035 9.10547C18.4035 9.10547 17.0348 9.56911 16.3975 9.62608" stroke="#010002" stroke-width="0.05"/>
<path d="M17.8642 9.62891C17.8642 9.62891 17.0613 9.89065 16.1211 10.0558" stroke="#010002" stroke-width="0.05"/>
<path d="M17.1791 10.1719C17.1791 10.1719 16.2719 10.3982 15.8389 10.4357" stroke="#010002" stroke-width="0.05"/>
<path d="M16.5706 10.6211C16.5706 10.6211 15.8033 10.7873 15.6089 10.8073" stroke="#010002" stroke-width="0.05" stroke-miterlimit="10"/>
<path d="M15.707 11.832L15.7455 13.0964L15.5305 12.9669L15.1726 14.5714L15.0249 14.4612L15.3733 12.924L15.1304 12.9287L15.707 11.832Z" fill="#0081C6" stroke="#010002" stroke-width="0.05" stroke-miterlimit="10"/>
<path d="M16.0821 11.0273C16.0821 11.0273 15.5222 11.1157 15.2993 11.111" stroke="#010002" stroke-width="0.05" stroke-miterlimit="10"/>
<path d="M15.3865 11.3814C15.3865 11.3814 15.1601 11.3703 15.0513 11.3516" stroke="#010002" stroke-width="0.05" stroke-miterlimit="10"/>
<path d="M15.177 11.7584C15.177 11.7584 14.9846 11.7044 14.8711 11.6289" stroke="#010002" stroke-width="0.05" stroke-miterlimit="10"/>
<path d="M14.8934 12.1509C14.8934 12.1509 14.7454 12.0916 14.6738 11.9297" stroke="#010002" stroke-width="0.05" stroke-miterlimit="10"/>
<path d="M14.5318 12.2917C14.5318 12.2917 14.4171 12.1851 14.4097 12.0664" stroke="#010002" stroke-width="0.05" stroke-miterlimit="10"/>
<path d="M17.0973 12.3945L16.5885 13.5306L16.4542 13.3059L15.38 14.624L15.2637 14.4888L16.3338 13.1873L16.1174 13.0667L17.0973 12.3945Z" fill="#0081C6" stroke="#010002" stroke-width="0.05" stroke-miterlimit="10"/>
<path d="M14.1025 12.3893C14.1025 12.3893 14.1455 12.3508 14.1161 12.1836" stroke="#010002" stroke-width="0.05" stroke-miterlimit="10"/>
<path d="M16.6337 11.5586L16.3716 12.7907L16.1946 12.6048L15.2331 14.5246L15.085 14.4348L16.0529 12.5189L15.8171 12.4546L16.6337 11.5586Z" fill="#0081C6" stroke="#010002" stroke-width="0.05" stroke-miterlimit="10"/>
<path d="M14.1582 11.9359C14.1582 11.9359 14.1804 11.888 14.173 11.8125" stroke="#010002" stroke-width="0.05" stroke-miterlimit="10"/>
<path d="M10.3194 12.3872C10.3194 12.3872 10.09 12.5815 9.89759 12.3872C9.89759 12.3872 9.81988 12.4843 9.66448 12.456C9.50909 12.4277 9.48317 12.3427 9.46837 12.2941C9.46837 12.2941 9.33393 12.3756 9.22047 12.3113C9.10699 12.2469 9.10699 12.1498 9.10699 12.1498C9.10699 12.1498 8.90964 12.1902 8.80851 12.0513C8.70737 11.9124 8.76903 11.7748 8.82331 11.7586C8.82331 11.7586 8.60995 11.8167 8.55196 11.6264C8.50263 11.4646 8.61364 11.381 8.61364 11.381C8.61364 11.381 8.16407 11.3787 7.97967 11.2326C7.97967 11.2326 7.82673 11.1328 7.91801 11.0276C7.91801 11.0276 7.51347 10.9601 7.41233 10.7928C7.41233 10.7928 7.36793 10.747 7.38273 10.6661C7.38273 10.6661 7.3852 10.6202 7.42959 10.6175C7.42959 10.6175 6.96825 10.5435 6.8351 10.3855C6.8351 10.3855 6.77097 10.3126 6.80303 10.2155C6.80303 10.2155 6.80981 10.1899 6.82091 10.1727C6.82091 10.1727 6.40095 10.0806 6.19374 9.88639C6.19374 9.88639 6.07413 9.77572 6.13579 9.62735C6.13579 9.62735 5.43397 9.42777 5.59678 9.10673C5.59678 9.10673 5.2687 8.99612 5.37231 8.68858C5.37231 8.68858 5.10096 8.5456 5.21937 8.31899C5.33268 8.10212 5.68066 8.35676 6.09268 8.47515C6.09268 8.47515 7.20757 8.83967 7.75662 8.93667L9.31665 11.3486L10.2269 11.7128L10.3194 12.3872Z" fill="#F4C53D" stroke="#010002" stroke-width="0.05"/>
<path d="M14.9673 9.54297C14.9673 9.54297 14.7083 9.65089 14.622 9.79926C14.5356 9.94764 14.5925 10.0918 14.622 10.1746C14.6368 10.2162 14.8193 10.5816 14.6047 10.846" stroke="#010002" stroke-width="0.05" stroke-miterlimit="10"/>
<path d="M10.3305 10.6107C10.3305 10.6107 10.1842 10.4967 9.92344 10.6309C9.92344 10.6309 9.83564 10.6937 9.76657 10.6249C9.70886 10.5674 9.70344 10.4614 9.78284 10.4002C9.9771 10.2505 10.0492 9.80131 9.75324 9.61518C9.75324 9.61518 9.32402 9.35079 7.75013 8.93486C7.75013 8.93486 7.61826 8.89689 7.54796 8.9151C7.47054 8.93515 7.41722 9.00413 7.40628 9.06315C7.40628 9.06315 7.33585 9.27099 7.57263 9.38991C7.57263 9.38991 7.67953 9.44071 7.78971 9.47355C7.78971 9.47355 7.66869 9.44638 7.61704 9.57067C7.5677 9.68937 7.63924 9.81077 7.86124 9.889C7.86124 9.889 7.92129 9.91327 8.00678 9.93487C8.00678 9.93487 7.81684 9.99152 7.90811 10.1507C7.90811 10.1507 7.98952 10.318 8.2769 10.3476C8.2769 10.3476 8.0623 10.3719 8.21399 10.5837C8.21399 10.5837 8.2806 10.6997 8.49027 10.7428C8.49027 10.7428 8.33116 10.7482 8.41134 10.8966C8.4915 11.045 8.68016 11.1286 8.86582 11.1421C8.86582 11.1421 8.96636 11.1475 9.03667 11.1313C9.03667 11.1313 8.8603 11.2231 8.96391 11.3768C8.96391 11.3768 9.04037 11.4861 9.23155 11.4807C9.23155 11.4807 9.18193 11.6524 9.3222 11.7174C9.43136 11.768 9.52201 11.6871 9.52201 11.6871C9.52201 11.6871 9.485 11.8712 9.64411 11.9359C9.64411 11.9359 9.72366 11.9784 9.84207 11.9359C9.84207 11.9359 9.93272 12.1464 10.2546 11.9987C10.5765 11.8509 10.3305 10.6107 10.3305 10.6107Z" fill="#F4C53D" stroke="#010002" stroke-width="0.05"/>
<path d="M14.9636 11.1326C14.9636 11.1326 14.9624 11.1312 14.8711 11.1016" stroke="#010002" stroke-width="0.05" stroke-miterlimit="10"/>
<path d="M15.51 10.7461C15.51 10.7461 15.3556 10.7784 15.2041 10.7798" stroke="#010002" stroke-width="0.05" stroke-miterlimit="10"/>
<path d="M15.7236 10.3477C15.7236 10.3477 15.5423 10.3665 15.3721 10.3638" stroke="#010002" stroke-width="0.05" stroke-miterlimit="10"/>
<path d="M15.9934 9.9375C15.9934 9.9375 15.7319 9.99145 15.5913 9.99415" stroke="#010002" stroke-width="0.05" stroke-miterlimit="10"/>
<path d="M16.2104 9.47656C16.2104 9.47656 15.8879 9.57215 15.6479 9.60605" stroke="#010002" stroke-width="0.05" stroke-miterlimit="10"/>
<path d="M15.1155 9.80469C15.1155 9.80469 15.3473 10.0286 15.0686 10.2363C15.0686 10.2363 15.1845 10.4252 14.9526 10.6221" stroke="#010002" stroke-width="0.05" stroke-miterlimit="10"/>
<path d="M10.3496 12.5234C10.3496 12.5234 10.3024 12.7868 9.92782 13.1183C9.92782 13.1183 9.63883 13.383 9.64623 13.6878C9.65377 13.9983 9.59442 14.0332 9.48096 14.1384C9.48096 14.1384 9.7153 14.1573 9.82877 13.9954C9.82877 13.9954 9.82384 14.2652 9.7893 14.2894C9.7893 14.2894 9.86279 14.2943 9.96937 14.1734C9.96937 14.1734 10.0335 14.1033 10.0927 14.0763C10.0927 14.0763 10.0236 14.2625 10.0779 14.4351C10.0779 14.4351 10.0952 14.3677 10.1864 14.338C10.1864 14.338 10.3517 14.3029 10.4159 14.0547C10.4159 14.0547 10.4578 13.8902 10.7168 13.7445C10.7168 13.7445 11.0103 13.6295 11.0029 13.4793C10.9956 13.329 10.3496 12.5234 10.3496 12.5234Z" fill="#F4C53D" stroke="#010002" stroke-width="0.05"/>
<path d="M15.0143 10.7109C15.0143 10.7109 15.0489 11.071 14.6246 11.0711C14.6246 11.0711 14.706 11.3921 14.2965 11.3813C14.2965 11.3813 14.2496 11.6376 13.9536 11.5864" stroke="#010002" stroke-width="0.05" stroke-miterlimit="10"/>
<path d="M14.4037 14.0671C14.4037 14.0671 14.5912 14.4016 14.8182 14.407C14.8182 14.407 15.2085 14.3577 15.3189 14.4637C15.3959 14.5376 15.4743 14.5986 15.5064 14.7874C15.5385 14.9763 15.4447 15.0167 15.4225 15.0248C15.4225 15.0248 15.4052 15.1597 15.277 15.1246C15.277 15.1246 15.2696 15.2649 15.0426 15.1975C14.8157 15.13 14.7219 15.1516 14.6775 14.9169C14.6331 14.6822 14.5921 14.686 14.5517 14.6579C14.4974 14.6201 14.3955 14.5844 14.3198 14.5392C14.2519 14.4986 13.9918 14.3612 13.903 14.3504C13.8142 14.3396 13.8339 14.0293 13.8339 14.0293H14.0633L14.1743 13.8594L14.4037 14.0671Z" fill="#F4C53D" stroke="#010002" stroke-width="0.05"/>
<path d="M13.651 12.5234C13.651 12.5234 13.6983 12.7868 14.0728 13.1183C14.0728 13.1183 14.3618 13.383 14.3544 13.6878C14.3469 13.9983 14.4062 14.0332 14.5197 14.1384C14.5197 14.1384 14.2853 14.1573 14.1719 13.9954C14.1719 13.9954 14.1768 14.2652 14.2113 14.2894C14.2113 14.2894 14.1378 14.2943 14.0313 14.1734C14.0313 14.1734 13.9671 14.1033 13.9079 14.0763C13.9079 14.0763 13.977 14.2625 13.9227 14.4351C13.9227 14.4351 13.9055 14.3677 13.8142 14.338C13.8142 14.338 13.6489 14.3029 13.5848 14.0547C13.5848 14.0547 13.5429 13.8902 13.2838 13.7445C13.2838 13.7445 12.9903 13.6295 12.9977 13.4793C13.0051 13.329 13.651 12.5234 13.651 12.5234Z" fill="#F4C53D" stroke="#010002" stroke-width="0.05"/>
<path d="M14.6055 14.4023C14.6055 14.4023 14.6726 14.4179 14.8182 14.4023" stroke="#010002" stroke-width="0.05"/>
<path d="M15.2275 14.5981C15.2275 14.5981 15.4323 14.5658 15.4224 15.0271" stroke="#010002" stroke-width="0.05" stroke-miterlimit="10"/>
<path d="M15.1045 14.7034C15.1045 14.7034 15.2895 14.6791 15.2772 15.1269" stroke="#010002" stroke-width="0.05" stroke-miterlimit="10"/>
<path d="M13.3184 13.6233C13.3184 13.6233 13.4072 13.6422 13.4688 13.715C13.5305 13.7878 13.6489 13.7744 13.6489 13.7744C13.6489 13.7744 13.5848 13.7204 13.5626 13.5855C13.5404 13.4506 13.4688 13.4102 13.4688 13.4102" stroke="#010002" stroke-width="0.05"/>
<path d="M13.6807 13.2795C13.6807 13.2795 13.7695 13.2984 13.8311 13.3713C13.8928 13.4441 14.0112 13.4306 14.0112 13.4306C14.0112 13.4306 13.9471 13.3767 13.9249 13.2418C13.9027 13.1069 13.8311 13.0664 13.8311 13.0664" stroke="#010002" stroke-width="0.05"/>
<path d="M13.7417 13.8033C13.7417 13.8033 13.8192 13.8197 13.8731 13.8834C13.9269 13.9469 14.0303 13.9352 14.0303 13.9352C14.0303 13.9352 13.9743 13.8881 13.9549 13.7703C13.9355 13.6525 13.8731 13.6172 13.8731 13.6172" stroke="#010002" stroke-width="0.05"/>
<path d="M12.2904 15.9199C12.2904 15.9199 12.3577 16.2281 12.5914 16.2032C12.5914 16.2032 12.7566 16.187 12.7443 15.901C12.7443 15.901 12.9885 16.0359 13.028 15.7014C13.028 15.7014 13.25 15.7553 13.2475 15.4424C13.2475 15.4424 13.4548 15.4802 13.4301 15.2023C13.4301 15.2023 13.6546 15.2643 13.6546 15.0027C13.6546 15.0027 14.18 14.9122 13.0847 13.875L12.1079 14.4793L12.2904 15.9199Z" fill="#F4C53D" stroke="#010002" stroke-width="0.05" stroke-miterlimit="10"/>
<path d="M12.1819 14.5383C12.1819 14.5383 12.3447 14.6883 12.4607 14.4644C12.4607 14.4644 12.6185 14.4563 12.6432 14.3322C12.6432 14.3322 12.7715 14.3187 12.7961 14.1919C12.7961 14.1919 12.9713 14.173 12.9663 14.0192C12.9663 14.0192 13.2848 13.9937 12.9664 13.6193C12.6481 13.245 12.1079 14.2405 12.1079 14.2405L12.1819 14.5383Z" fill="#F4C53D" stroke="#010002" stroke-width="0.05"/>
<path d="M12.7443 15.9012C12.7443 15.9012 12.7197 15.359 12.2671 14.582" stroke="#010002" stroke-width="0.05" stroke-miterlimit="10"/>
<path d="M13.0279 15.7027C13.0279 15.7027 13.0982 15.3898 12.4606 14.4644C12.4606 14.4644 12.5346 14.2432 12.3076 14.1016" stroke="#010002" stroke-width="0.05" stroke-miterlimit="10"/>
<path d="M13.2475 15.4429C13.2475 15.4429 13.2673 15.1044 12.6432 14.3315C12.6432 14.3315 12.6983 14.1318 12.4722 13.9727" stroke="#010002" stroke-width="0.05" stroke-miterlimit="10"/>
<path d="M13.4301 15.2029C13.4301 15.2029 13.4067 14.8603 12.7961 14.1912C12.7961 14.1912 12.8267 13.9862 12.6079 13.8594" stroke="#010002" stroke-width="0.05" stroke-miterlimit="10"/>
<path d="M13.6546 15.002C13.6546 15.002 13.6102 14.6108 12.9663 14.0173C12.9663 14.0173 12.9885 13.8635 12.7739 13.707" stroke="#010002" stroke-width="0.05" stroke-miterlimit="10"/>
<path d="M11.7103 15.9199C11.7103 15.9199 11.6431 16.2281 11.4094 16.2032C11.4094 16.2032 11.2441 16.187 11.2564 15.901C11.2564 15.901 11.0122 16.0359 10.9727 15.7014C10.9727 15.7014 10.7507 15.7553 10.7532 15.4424C10.7532 15.4424 10.546 15.4802 10.5707 15.2023C10.5707 15.2023 10.3462 15.2644 10.3462 15.0027C10.3462 15.0027 9.82078 14.9122 10.916 13.875L11.8928 14.4793L11.7103 15.9199Z" fill="#F4C53D" stroke="#010002" stroke-width="0.05" stroke-miterlimit="10"/>
<path d="M11.8186 14.5383C11.8186 14.5383 11.6558 14.6883 11.5398 14.4644C11.5398 14.4644 11.3819 14.4563 11.3573 14.3322C11.3573 14.3322 11.229 14.3187 11.2043 14.1919C11.2043 14.1919 11.0292 14.173 11.0341 14.0192C11.0341 14.0192 10.7157 13.9937 11.034 13.6193C11.3523 13.245 11.8926 14.2405 11.8926 14.2405L11.8186 14.5383Z" fill="#F4C53D" stroke="#010002" stroke-width="0.05"/>
<path d="M11.2563 15.9012C11.2563 15.9012 11.281 15.359 11.7336 14.582" stroke="#010002" stroke-width="0.05" stroke-miterlimit="10"/>
<path d="M10.9725 15.7027C10.9725 15.7027 10.9022 15.3897 11.5399 14.4644C11.5399 14.4644 11.4659 14.2432 11.6928 14.1016" stroke="#010002" stroke-width="0.05" stroke-miterlimit="10"/>
<path d="M12.0003 14.4414C12.1582 14.4414 12.337 15.4652 12.2906 16.082C12.2737 16.306 12.1582 16.489 12.0003 16.489C11.8425 16.489 11.727 16.306 11.7101 16.082C11.6637 15.4652 11.8425 14.4414 12.0003 14.4414Z" fill="#F4C53D" stroke="#010002" stroke-width="0.05"/>
<path d="M10.753 15.4429C10.753 15.4429 10.7333 15.1044 11.3574 14.3315C11.3574 14.3315 11.3022 14.1318 11.5284 13.9727" stroke="#010002" stroke-width="0.05" stroke-miterlimit="10"/>
<path d="M10.5703 15.2029C10.5703 15.2029 10.5937 14.8603 11.2043 14.1912C11.2043 14.1912 11.1737 13.9862 11.3925 13.8594" stroke="#010002" stroke-width="0.05" stroke-miterlimit="10"/>
<path d="M12.0006 14.7733C12.1212 14.7733 12.219 14.6229 12.219 14.4374C12.219 14.2519 12.1212 14.1016 12.0006 14.1016C11.88 14.1016 11.7822 14.2519 11.7822 14.4374C11.7822 14.6229 11.88 14.7733 12.0006 14.7733Z" fill="#F4C53D" stroke="#010002" stroke-width="0.05"/>
<path d="M10.3462 15.002C10.3462 15.002 10.3906 14.6108 11.0344 14.0173C11.0344 14.0173 11.0122 13.8635 11.2268 13.707" stroke="#010002" stroke-width="0.05" stroke-miterlimit="10"/>
<path d="M12.0003 14.3631C12.0003 14.3631 13.8525 13.5108 13.8571 11.5391H10.1436C10.1482 13.5108 12.0003 14.3631 12.0003 14.3631Z" fill="white" stroke="#010002" stroke-width="0.05"/>
<path d="M11.0005 11.5391H11.2861" stroke="#010002" stroke-width="0.05" stroke-miterlimit="10"/>
<path d="M10.4292 11.5391H10.7149" stroke="#010002" stroke-width="0.05" stroke-miterlimit="10"/>
<path d="M11.5718 11.5391H11.8574" stroke="#010002" stroke-width="0.05" stroke-miterlimit="10"/>
<path d="M10.4292 11.5391V12.7989C10.4292 12.7989 10.5711 13.0911 10.7149 13.2743V11.5391H10.4292Z" fill="#A60032" stroke="#010002" stroke-width="0.05"/>
<path d="M11.0005 11.5391V13.6158C11.0005 13.6158 11.1791 13.7977 11.2861 13.8854V11.5391H11.0005Z" fill="#A60032" stroke="#010002" stroke-width="0.05"/>
<path d="M11.5718 11.5391V14.1061C11.5718 14.1061 11.7756 14.2428 11.8574 14.2877V11.5391H11.5718Z" fill="#A60032" stroke="#010002" stroke-width="0.05"/>
<path d="M10.4292 11.5391H10.7149" stroke="#010002" stroke-width="0.05"/>
<path d="M11.0005 11.5391H11.2861" stroke="#010002" stroke-width="0.05"/>
<path d="M11.5718 11.5391H11.8574" stroke="#010002" stroke-width="0.05"/>
<path d="M13.5713 11.5391V12.7989C13.5713 12.7989 13.4294 13.0911 13.2856 13.2743V11.5391H13.5713Z" fill="#A60032" stroke="#010002" stroke-width="0.05"/>
<path d="M13 11.5391V13.6158C13 13.6158 12.8214 13.7977 12.7144 13.8854V11.5391H13Z" fill="#A60032" stroke="#010002" stroke-width="0.05"/>
<path d="M12.4287 11.5391V14.1061C12.4287 14.1061 12.2249 14.2428 12.1431 14.2877V11.5391H12.4287Z" fill="#A60032" stroke="#010002" stroke-width="0.05"/>
<path d="M14.9947 15.1077L14.9227 15.4135L15.1198 15.6175L14.8412 16.8398L14.5933 16.4941L14.2261 16.6721L14.5047 15.4498L14.7631 15.3749L14.8302 15.0697C14.8302 15.0697 14.9083 15.0379 14.9947 15.1077Z" fill="#0081C6" stroke="#010002" stroke-width="0.05" stroke-miterlimit="10"/>
<path d="M15.0609 14.9114L14.919 15.1864L15.0611 15.4392L14.5027 16.541L14.3451 16.1369L13.9482 16.2049L14.5067 15.1031L14.7739 15.104L14.9109 14.8281C14.911 14.8281 15.0106 14.8279 15.0609 14.9114Z" fill="#0081C6" stroke="#010002" stroke-width="0.05" stroke-miterlimit="10"/>
<path d="M15.0846 14.9865L14.7071 15.4845L14.7936 15.7659L14.0229 16.702L13.9524 16.2695L13.5518 16.2381L14.3225 15.302L14.5827 15.3686L14.9832 14.8398C14.9831 14.8399 15.0905 14.8952 15.0846 14.9865Z" fill="#0081C6" stroke="#010002" stroke-width="0.05" stroke-miterlimit="10"/>
<path d="M5.37207 8.6875C5.37207 8.6875 5.87775 8.99155 7.45261 9.29559" stroke="#010002" stroke-width="0.05"/>
<path d="M5.59668 9.10547C5.59668 9.10547 6.96534 9.56911 7.60272 9.62608" stroke="#010002" stroke-width="0.05"/>
<path d="M6.13574 9.62891C6.13574 9.62891 6.93865 9.89065 7.87889 10.0558" stroke="#010002" stroke-width="0.05"/>
<path d="M6.8208 10.1719C6.8208 10.1719 7.72795 10.3981 8.16104 10.4357" stroke="#010002" stroke-width="0.05"/>
<path d="M7.42969 10.6211C7.42969 10.6211 8.197 10.7873 8.3914 10.8073" stroke="#010002" stroke-width="0.05" stroke-miterlimit="10"/>
<path d="M7.91797 11.0273C7.91797 11.0273 8.47793 11.1157 8.70078 11.111" stroke="#010002" stroke-width="0.05" stroke-miterlimit="10"/>
<path d="M8.61377 11.3814C8.61377 11.3814 8.84018 11.3703 8.94898 11.3516" stroke="#010002" stroke-width="0.05" stroke-miterlimit="10"/>
<path d="M8.82324 11.7584C8.82324 11.7584 9.01566 11.7044 9.12912 11.6289" stroke="#010002" stroke-width="0.05" stroke-miterlimit="10"/>
<path d="M9.10693 12.1509C9.10693 12.1509 9.25494 12.0916 9.32648 11.9297" stroke="#010002" stroke-width="0.05" stroke-miterlimit="10"/>
<path d="M9.46826 12.2917C9.46826 12.2917 9.58297 12.1851 9.59037 12.0664" stroke="#010002" stroke-width="0.05" stroke-miterlimit="10"/>
<path d="M9.89738 12.3893C9.89738 12.3893 9.85443 12.3508 9.88381 12.1836" stroke="#010002" stroke-width="0.05" stroke-miterlimit="10"/>
<path d="M9.84199 11.9359C9.84199 11.9359 9.81979 11.888 9.82719 11.8125" stroke="#010002" stroke-width="0.05" stroke-miterlimit="10"/>
<path d="M9.03271 9.54297C9.03271 9.54297 9.29172 9.65087 9.37806 9.79925C9.46439 9.94763 9.40753 10.0918 9.37806 10.1746C9.36324 10.2161 9.18071 10.5816 9.39533 10.846" stroke="#010002" stroke-width="0.05" stroke-miterlimit="10"/>
<path d="M9.03662 11.1326C9.03662 11.1326 9.03785 11.1312 9.12913 11.1016" stroke="#010002" stroke-width="0.05" stroke-miterlimit="10"/>
<path d="M8.49023 10.7461C8.49023 10.7461 8.64462 10.7784 8.79611 10.7798" stroke="#010002" stroke-width="0.05" stroke-miterlimit="10"/>
<path d="M8.27686 10.3477C8.27686 10.3477 8.45817 10.3665 8.62837 10.3638" stroke="#010002" stroke-width="0.05" stroke-miterlimit="10"/>
<path d="M8.9507 15.0549C8.9507 15.0549 8.94516 14.891 9.14494 14.8789L9.73324 15.7287C9.73324 15.7287 9.71103 15.7833 9.44464 15.7772C9.44464 15.7772 9.41643 15.777 9.40163 15.8094C9.3789 15.8591 8.9507 15.0549 8.9507 15.0549Z" fill="#369443" stroke="#010002" stroke-width="0.05" stroke-miterlimit="10"/>
<path d="M8.00684 9.9375C8.00684 9.9375 8.26831 9.99145 8.40892 9.99415" stroke="#010002" stroke-width="0.05" stroke-miterlimit="10"/>
<path d="M7.78955 9.47656C7.78955 9.47656 8.11203 9.57215 8.35198 9.60605" stroke="#010002" stroke-width="0.05" stroke-miterlimit="10"/>
<path d="M8.88489 9.80469C8.88489 9.80469 8.65302 10.0286 8.93175 10.2363C8.93175 10.2363 8.81582 10.4252 9.04769 10.6221" stroke="#010002" stroke-width="0.05" stroke-miterlimit="10"/>
<path d="M8.98603 10.7109C8.98603 10.7109 8.9515 11.071 9.37577 11.0711C9.37577 11.0711 9.29437 11.3921 9.70385 11.3813C9.70385 11.3813 9.75072 11.6376 10.0467 11.5864" stroke="#010002" stroke-width="0.05" stroke-miterlimit="10"/>
<path d="M9.3944 14.4023C9.3944 14.4023 9.32727 14.4179 9.18164 14.4023" stroke="#010002" stroke-width="0.05"/>
<path d="M8.77237 14.5981C8.77237 14.5981 8.56762 14.5658 8.57749 15.0271" stroke="#010002" stroke-width="0.05" stroke-miterlimit="10"/>
<path d="M8.89543 14.7034C8.89543 14.7034 8.71042 14.6791 8.72276 15.1269" stroke="#010002" stroke-width="0.05" stroke-miterlimit="10"/>
<path d="M10.6821 13.6233C10.6821 13.6233 10.5933 13.6422 10.5316 13.715C10.47 13.7878 10.3516 13.7744 10.3516 13.7744C10.3516 13.7744 10.4157 13.7204 10.4379 13.5855C10.4601 13.4506 10.5316 13.4102 10.5316 13.4102" stroke="#010002" stroke-width="0.05"/>
<path d="M10.3198 13.2795C10.3198 13.2795 10.231 13.2984 10.1693 13.3713C10.1077 13.4441 9.98926 13.4306 9.98926 13.4306C9.98926 13.4306 10.0534 13.3767 10.0756 13.2418C10.0978 13.1069 10.1693 13.0664 10.1693 13.0664" stroke="#010002" stroke-width="0.05"/>
<path d="M10.2588 13.8033C10.2588 13.8033 10.1813 13.8198 10.1274 13.8834C10.0736 13.947 9.97021 13.9352 9.97021 13.9352C9.97021 13.9352 10.0262 13.8881 10.0456 13.7703C10.065 13.6525 10.1274 13.6172 10.1274 13.6172" stroke="#010002" stroke-width="0.05"/>
<path d="M13.8571 10.1069C13.8571 10.1069 12.9483 10.6006 12.0003 10.0664C11.0524 10.6006 10.1436 10.1069 10.1436 10.1069V11.5394H13.8571V10.1069Z" fill="#162667" stroke="#010002" stroke-width="0.05" stroke-miterlimit="10"/>
<path d="M5.51949 13.818C5.60949 13.7798 5.6743 13.743 5.67403 13.6433C5.67396 13.6195 5.66124 13.5669 5.63571 13.4855L5.03141 11.5676C4.99562 11.4537 4.96857 11.3859 4.95602 11.361C4.92886 11.307 4.87553 11.285 4.80371 11.2539H4.87809H5.49724H5.57176C5.48832 11.2948 5.41226 11.3274 5.41297 11.4192C5.41325 11.4543 5.42275 11.5038 5.44234 11.5676L5.90527 13.0726L6.36776 11.5676C6.38735 11.5038 6.39747 11.4543 6.39714 11.4192C6.39625 11.3248 6.31704 11.2908 6.23921 11.2539H6.31287H6.90949H6.98357C6.91551 11.2822 6.86004 11.3044 6.83154 11.361C6.81897 11.3859 6.79194 11.4537 6.75617 11.5676L6.15187 13.4855C6.12631 13.5669 6.11707 13.6204 6.11354 13.6452C6.11354 13.6452 6.08573 13.7665 6.26807 13.818L5.51949 13.818Z" fill="#0081C6" stroke="#010002" stroke-width="0.05" stroke-miterlimit="10"/>
<path d="M18.397 13.6208V11.4493C18.397 11.4117 18.391 11.3829 18.3791 11.3629C18.3672 11.3428 18.3153 11.2851 18.2412 11.2539H18.3153H18.8592H18.9333C18.8592 11.2794 18.8073 11.3413 18.7954 11.3619C18.7834 11.3826 18.7775 11.4117 18.7775 11.4493V13.6208C18.7775 13.6596 18.7837 13.6893 18.796 13.71C18.8083 13.7306 18.8592 13.7811 18.9333 13.818H18.8592H18.3153H18.2412C18.3153 13.783 18.3672 13.7291 18.3791 13.7091C18.391 13.689 18.397 13.6596 18.397 13.6208Z" fill="#0081C6" stroke="#010002" stroke-width="0.05" stroke-miterlimit="10"/>
<path d="M20 6L20 18L4 18L4 6L20 6ZM20 5L4 5C3.4 5 3 5.4 3 6L3 18C3 18.6 3.4 19 4 19L20 19C20.6 19 21 18.6 21 18L21 6C21 5.4 20.6 5 20 5Z" fill="#B5B5B5"/>
</svg>
