<svg width="24" height="24" viewBox="0 0 24 24" fill="none" xmlns="http://www.w3.org/2000/svg">
<path d="M20 6H4V18H20V6Z" fill="white"/>
<path d="M19.9999 7.33203H9.92578V8.66536H19.9999V7.33203Z" fill="#0038A8"/>
<path d="M19.9999 10H9.92578V11.3333H19.9999V10Z" fill="#0038A8"/>
<path d="M20 12.6641H4V13.9974H20V12.6641Z" fill="#0038A8"/>
<path d="M20 15.332H4V16.6654H20V15.332Z" fill="#0038A8"/>
<path d="M7.18232 9.98957L7.40301 10.3191C6.49618 10.9754 7.04981 11.3634 6.40717 11.5735C6.80687 11.1834 6.34424 11.1506 6.681 10.3375" fill="#FCD116"/>
<path d="M7.18232 9.98957L7.40301 10.3191C6.49618 10.9754 7.04981 11.3634 6.40717 11.5735C6.80687 11.1834 6.34424 11.1506 6.681 10.3375" stroke="black" stroke-width="0.066" stroke-miterlimit="20" stroke-linecap="square"/>
<path d="M7.02472 10.0814C6.52439 10.906 6.85252 11.3594 6.40733 11.5719" stroke="black" stroke-width="0.066" stroke-miterlimit="20"/>
<path d="M7.33355 9.33594H7.77355L7.33355 11.7559L6.89355 9.33594H7.33355V11.7559V9.33594Z" fill="#FCD116"/>
<path d="M7.33355 9.33594H7.77355L7.33355 11.7559L6.89355 9.33594H7.33355ZM7.33355 9.33594V11.7559" stroke="black" stroke-width="0.066" stroke-miterlimit="20"/>
<path d="M7.33352 10.1407C7.77903 10.1407 8.14019 9.77952 8.14019 9.33401C8.14019 8.8885 7.77903 8.52734 7.33352 8.52734C6.88801 8.52734 6.52686 8.8885 6.52686 9.33401C6.52686 9.77952 6.88801 10.1407 7.33352 10.1407Z" fill="#FCD116" stroke="black" stroke-width="0.066" stroke-miterlimit="20"/>
<path d="M7.92761 9.01249C7.87628 9.07115 7.84695 8.96849 7.66361 8.96849C7.48028 8.96849 7.45095 9.07849 7.42161 9.05649C7.39228 9.03449 7.57561 8.90249 7.63428 8.89515C7.69295 8.88782 7.86161 8.94649 7.92761 9.01249ZM7.71495 9.07849C7.76628 9.12249 7.72228 9.21782 7.67095 9.21782C7.61961 9.21782 7.52428 9.12982 7.56828 9.07115" fill="black"/>
<path d="M7.47266 9.14564C7.47999 9.05764 7.55332 9.04297 7.67066 9.04297C7.78799 9.04297 7.83932 9.13097 7.88332 9.15297C7.83199 9.15297 7.78799 9.07964 7.67066 9.07964C7.55332 9.07964 7.55332 9.07964 7.47266 9.15297M7.49466 9.16764C7.52399 9.12364 7.56066 9.21164 7.64132 9.21164C7.72199 9.21164 7.76599 9.18964 7.81732 9.15297C7.86866 9.1163 7.74399 9.24097 7.66332 9.24097C7.58266 9.24097 7.47266 9.19697 7.49466 9.16764Z" fill="black"/>
<path d="M7.74421 9.20965C7.83954 9.15831 7.78088 9.08498 7.74421 9.07031C7.75888 9.08498 7.81754 9.15831 7.74421 9.20965ZM7.33354 9.64965C7.37754 9.64965 7.39221 9.63498 7.45087 9.63498C7.50954 9.63498 7.64887 9.71565 7.72954 9.68631C7.56087 9.75231 7.62688 9.70831 7.33354 9.70831H7.29688M7.75888 9.75231C7.72954 9.70098 7.73688 9.71565 7.67821 9.63498C7.73688 9.67898 7.75154 9.70098 7.75888 9.75231ZM7.33354 9.82565C7.51688 9.82565 7.48754 9.78898 7.72954 9.68631C7.55354 9.70831 7.51688 9.76698 7.33354 9.76698H7.29688M7.33354 9.55431C7.38487 9.55431 7.39954 9.51765 7.45821 9.51765C7.51688 9.51765 7.59754 9.53965 7.63421 9.56898C7.64154 9.57631 7.61221 9.51031 7.55354 9.50298C7.49488 9.49565 7.51688 9.40031 7.45087 9.38565C7.45087 9.41498 7.47287 9.40765 7.48021 9.45165C7.48021 9.48831 7.41421 9.48831 7.39954 9.45165C7.41421 9.51031 7.37021 9.51031 7.33354 9.51031" fill="black"/>
<path d="M7.33332 9.89062C7.29665 9.89062 7.20132 9.91262 7.33332 9.91262C7.46532 9.91262 7.36999 9.89062 7.33332 9.89062Z" fill="black"/>
<path d="M20 6L20 18L4 18L4 6L20 6ZM20 5L4 5C3.4 5 3 5.4 3 6L3 18C3 18.6 3.4 19 4 19L20 19C20.6 19 21 18.6 21 18L21 6C21 5.4 20.6 5 20 5Z" fill="#B5B5B5"/>
</svg>
