<svg width="24" height="24" viewBox="0 0 24 24" fill="none" xmlns="http://www.w3.org/2000/svg">
<path d="M20 6H4V18H20V6Z" fill="#1EB53A"/>
<path d="M20 6H4V10H20V6Z" fill="#0099B5"/>
<path d="M20 10H4V14H20V10Z" fill="#CE1126"/>
<path d="M20 10.4984H4V13.6181H20V10.4984Z" fill="white"/>
<path d="M6 9C6.55228 9 7 8.55228 7 8C7 7.44772 6.55228 7 6 7C5.44772 7 5 7.44772 5 8C5 8.55228 5.44772 9 6 9Z" fill="white"/>
<path d="M7 9C7.55228 9 8 8.55228 8 8C8 7.44772 7.55228 7 7 7C6.44772 7 6 7.44772 6 8C6 8.55228 6.44772 9 7 9Z" fill="#0099B5"/>
<path d="M20 6L20 18L4 18L4 6L20 6ZM20 5L4 5C3.4 5 3 5.4 3 6L3 18C3 18.6 3.4 19 4 19L20 19C20.6 19 21 18.6 21 18L21 6C21 5.4 20.6 5 20 5Z" fill="none"/>
<path d="M10.1003 7L10.1676 7.20729H10.3856L10.2093 7.33541L10.2766 7.5427L10.1003 7.41459L9.92396 7.5427L9.99131 7.33541L9.81498 7.20729H10.0329L10.1003 7Z" fill="white"/>
<path d="M10.9001 7L10.9675 7.20729H11.1854L11.0091 7.33541L11.0764 7.5427L10.9001 7.41459L10.7238 7.5427L10.7911 7.33541L10.6148 7.20729H10.8327L10.9001 7Z" fill="white"/>
<path d="M11.6999 7L11.7673 7.20729H11.9852L11.8089 7.33541L11.8762 7.5427L11.6999 7.41459L11.5236 7.5427L11.5909 7.33541L11.4146 7.20729H11.6325L11.6999 7Z" fill="white"/>
<path d="M11.7004 7.80078L11.7677 8.00808H11.9857L11.8094 8.13619L11.8767 8.34349L11.7004 8.21537L11.5241 8.34349L11.5914 8.13619L11.4151 8.00808H11.633L11.7004 7.80078Z" fill="white"/>
<path d="M10.1003 7.80078L10.1676 8.00808H10.3856L10.2093 8.13619L10.2766 8.34349L10.1003 8.21537L9.92396 8.34349L9.99131 8.13619L9.81498 8.00808H10.0329L10.1003 7.80078Z" fill="white"/>
<path d="M9.3 7.80078L9.36735 8.00808H9.58532L9.40898 8.13619L9.47633 8.34349L9.3 8.21537L9.12366 8.34349L9.19102 8.13619L9.01468 8.00808H9.23265L9.3 7.80078Z" fill="white"/>
<path d="M10.9001 7.80078L10.9675 8.00808H11.1854L11.0091 8.13619L11.0764 8.34349L10.9001 8.21537L10.7238 8.34349L10.7911 8.13619L10.6148 8.00808H10.8327L10.9001 7.80078Z" fill="white"/>
<path d="M11.7004 8.59766L11.7677 8.80495H11.9857L11.8094 8.93307L11.8767 9.14036L11.7004 9.01225L11.5241 9.14036L11.5914 8.93307L11.4151 8.80495H11.633L11.7004 8.59766Z" fill="white"/>
<path d="M10.1003 8.59766L10.1676 8.80495H10.3856L10.2093 8.93307L10.2766 9.14036L10.1003 9.01225L9.92396 9.14036L9.99131 8.93307L9.81498 8.80495H10.0329L10.1003 8.59766Z" fill="white"/>
<path d="M9.3 8.59766L9.36735 8.80495H9.58532L9.40898 8.93307L9.47633 9.14036L9.3 9.01225L9.12366 9.14036L9.19102 8.93307L9.01468 8.80495H9.23265L9.3 8.59766Z" fill="white"/>
<path d="M8.50019 8.59766L8.56755 8.80495H8.78551L8.60918 8.93307L8.67653 9.14036L8.50019 9.01225L8.32386 9.14036L8.39121 8.93307L8.21488 8.80495H8.43284L8.50019 8.59766Z" fill="white"/>
<path d="M10.9001 8.59766L10.9675 8.80495H11.1854L11.0091 8.93307L11.0764 9.14036L10.9001 9.01225L10.7238 9.14036L10.7911 8.93307L10.6148 8.80495H10.8327L10.9001 8.59766Z" fill="white"/>
</svg>
