<svg width="24" height="24" viewBox="0 0 24 24" fill="none" xmlns="http://www.w3.org/2000/svg">
<path d="M20 6H4V11H20V6Z" fill="#D21034"/>
<path d="M20 13H4V18H20V13Z" fill="#009543"/>
<path d="M4 6L13 12L4 18V6Z" fill="black"/>
<path d="M20 13H4V11H20V13Z" fill="black"/>
<path d="M4 7L12 12L4 17V7Z" fill="#FDCE12"/>
<path d="M20 11.4H4V12.4H20V11.4Z" fill="#FDCE12"/>
<path d="M4 7.5L11 12L4 16.5V7.5Z" fill="black"/>
<path d="M5.87787 12.9401C5.87787 12.9401 5.87787 13.2952 5.87787 13.5C6.25665 13.5 7 13.1267 7 11.9249C7 10.7231 6.20708 10.5 5.96991 10.5C5.73275 10.5 5 10.7185 5 11.7018C5 12.6851 5.71859 12.7762 5.86018 12.7762C6.00176 12.7762 6.53274 12.6123 6.47257 11.8748C6.47257 12.0842 6.2885 12.5258 5.90265 12.5258C5.51681 12.5258 5.27611 12.1571 5.27611 11.7929C5.27611 11.4287 5.50973 10.9416 5.91681 10.9416C6.32388 10.9416 6.62123 11.4059 6.62123 11.8748C6.62123 12.3437 6.33451 12.9401 5.87787 12.9401Z" fill="#FDCE12"/>
<path d="M5.50391 12.2864L5.53181 12.3036C5.53181 12.3036 5.75342 11.8221 6.3493 11.4797C6.27378 11.5188 5.87489 11.7079 5.50391 12.2864Z" fill="#FDCE12" stroke="#FDCE12" stroke-width="0.005"/>
<path d="M5.56154 12.2045C5.56154 12.2045 5.49261 12.07 5.55334 12.0106C5.61408 11.9512 5.58618 12.1685 5.58618 12.1685L5.61244 12.1326C5.61244 12.1326 5.57139 11.9684 5.61736 11.934C5.66332 11.8996 5.64034 12.0919 5.64034 12.0919L5.66824 12.0575C5.66824 12.0575 5.6387 11.8981 5.68302 11.8684C5.72735 11.8387 5.69945 12.0184 5.69945 12.0184L5.73227 11.9825C5.73227 11.9825 5.70765 11.8308 5.76182 11.7949C5.816 11.7589 5.76838 11.9387 5.76838 11.9387L5.80449 11.9012C5.80449 11.9012 5.78808 11.762 5.83405 11.7308C5.88001 11.6995 5.84062 11.8621 5.84062 11.8621L5.87344 11.8293C5.87344 11.8293 5.86359 11.6995 5.90791 11.6698C5.95224 11.6401 5.91119 11.7933 5.91119 11.7933L5.94568 11.762C5.94568 11.762 5.93747 11.6323 5.99328 11.6073C6.04908 11.5823 5.98343 11.7292 5.98343 11.7292L6.02118 11.698C6.02118 11.698 6.03267 11.5463 6.08028 11.5322C6.12788 11.5182 6.05894 11.6667 6.05894 11.6667L6.09341 11.6401C6.09341 11.6401 6.11147 11.5103 6.16399 11.4947C6.21653 11.4791 6.13116 11.6135 6.13116 11.6135L6.16563 11.5885C6.16563 11.5885 6.2034 11.4588 6.25264 11.4447C6.30189 11.4306 6.20176 11.5666 6.20176 11.5666L6.23458 11.5447C6.23458 11.5447 6.28874 11.4275 6.33308 11.4197C6.37739 11.4118 6.28382 11.5166 6.28382 11.5166L6.32487 11.4931C6.32487 11.4931 6.39545 11.3712 6.42008 11.4087C6.4447 11.4463 6.32159 11.501 6.32159 11.501L6.28054 11.5228C6.28054 11.5228 6.42993 11.4556 6.44799 11.49C6.46604 11.5244 6.24279 11.5463 6.24279 11.5463L6.20668 11.5698C6.20668 11.5698 6.35606 11.5307 6.338 11.5666C6.31995 11.6026 6.17221 11.5948 6.17221 11.5948L6.13773 11.6182C6.13773 11.6182 6.2871 11.5838 6.26741 11.6167C6.24771 11.6495 6.10162 11.6464 6.10162 11.6464L6.06551 11.6745C6.06551 11.6745 6.2116 11.6385 6.19027 11.6808C6.16891 11.723 6.00312 11.7214 6.00312 11.7214L5.96209 11.7574C5.96209 11.7574 6.11639 11.7073 6.10326 11.7464C6.09013 11.7855 5.91448 11.8058 5.91448 11.8058L5.87508 11.8433C5.87508 11.8433 6.04087 11.7902 5.99163 11.8387C5.94239 11.8871 5.82256 11.8996 5.82256 11.8996L5.77495 11.9543C5.77495 11.9543 5.93911 11.8605 5.91612 11.9137C5.89314 11.9668 5.73227 12.0028 5.73227 12.0028L5.69945 12.0403C5.69945 12.0403 5.84718 11.959 5.83241 12.0044C5.81764 12.0497 5.66004 12.0982 5.66004 12.0982L5.63378 12.1326C5.63378 12.1326 5.80777 12.0341 5.793 12.0841C5.77823 12.1341 5.61244 12.1701 5.61244 12.1701L5.5911 12.2014C5.5911 12.2014 5.75197 12.1138 5.75361 12.156C5.75525 12.1982 5.56483 12.2404 5.56483 12.2404L5.56154 12.2045Z" fill="#FDCE12"/>
<path d="M20 6L20 18L4 18L4 6L20 6ZM20 5L4 5C3.4 5 3 5.4 3 6L3 18C3 18.6 3.4 19 4 19L20 19C20.6 19 21 18.6 21 18L21 6C21 5.4 20.6 5 20 5Z" fill="#B5B5B5"/>
</svg>
