<svg width="24" height="24" viewBox="0 0 24 24" fill="none" xmlns="http://www.w3.org/2000/svg">
<path d="M4 6H20V18H4V6Z" fill="#ED2939"/>
<path d="M4 6H9V11H4V6Z" fill="white"/>
<path d="M4 6H6.4V10.8H4V6Z" fill="#002395"/>
<path d="M4 10.8H11.2V6" stroke="white" stroke-width="0.4"/>
<path d="M16.6002 11.5181L15.1602 10.0781H18.0402L16.6002 11.5181ZM16.1202 11.9981L14.6802 10.5581V13.4381L16.1202 11.9981ZM16.6002 12.4781L15.1602 13.9181H18.0402L16.6002 12.4781ZM17.0802 11.9981L18.5202 10.5581V13.4381L17.0802 11.9981Z" fill="white"/>
<path d="M20 6L20 18L4 18L4 6L20 6ZM20 5L4 5C3.4 5 3 5.4 3 6L3 18C3 18.6 3.4 19 4 19L20 19C20.6 19 21 18.6 21 18L21 6C21 5.4 20.6 5 20 5Z" fill="#B5B5B5"/>
</svg>
