<svg width="24" height="24" viewBox="0 0 24 24" fill="none" xmlns="http://www.w3.org/2000/svg">
<path d="M21 6H3V18H21V6Z" fill="#198A00"/>
<path d="M20 10H18V18H20V10Z" fill="#EF7D00"/>
<path d="M18 10H16V18H18V10Z" fill="black"/>
<path d="M16 10H14V18H16V10Z" fill="#DE2010"/>
<path d="M18.4264 7.44223C18.4264 7.44223 19.1636 7.15332 19.235 7.09375C19.2675 7.12949 18.9395 7.49286 18.303 7.62689C18.8811 7.5018 19.3747 7.10864 19.4753 7.12056C19.5046 7.12651 19.4981 7.50478 18.1731 7.83241C19.0889 7.612 19.6215 7.20693 19.615 7.25161C19.6215 7.26054 19.524 7.5703 18.722 7.81156C18.946 7.76389 19.5533 7.42436 19.5468 7.48989C19.5663 7.51669 18.959 8.23152 17.8614 7.99921C18.7382 8.20769 19.3065 7.70433 19.3877 7.71327C19.4039 7.71625 19.2253 8.15408 18.1212 8.18089C18.6505 8.13026 18.4979 8.1779 18.4979 8.1779C18.4979 8.1779 18.1861 8.40129 17.8094 8.2494C18.105 8.32386 18.1374 8.32683 18.1439 8.35066C18.1244 8.38043 17.8809 8.42512 17.6471 8.30895C17.8354 8.38043 18.0043 8.39236 18.0075 8.41917C18.0043 8.42809 17.8841 8.49065 17.777 8.44597C17.6698 8.40129 16.6826 7.84432 16.6826 7.84432L18.3648 7.42138L18.4264 7.44223Z" fill="#EF7D00" stroke="black" stroke-width="0.05" stroke-linecap="round" stroke-linejoin="round"/>
<path d="M16.4489 8.94842C16.301 8.94842 16.2969 9.06915 16.2969 9.06915C16.2969 9.06915 16.2847 9.07787 16.2928 9.13638C16.3173 9.09653 16.3295 9.08409 16.3295 9.08409C16.3458 9.08658 16.4136 9.10525 16.5208 9.02808C16.4231 9.12143 16.4815 9.15628 16.4815 9.15628C16.4815 9.15628 16.4584 9.22972 16.533 9.24466C16.51 9.21478 16.5235 9.18864 16.5235 9.18864C16.5235 9.18864 16.628 9.17869 16.6213 9.06169C16.6253 9.16748 16.6878 9.19362 16.6878 9.19362C16.6878 9.19362 16.6878 9.25212 16.7556 9.25711C16.719 9.22723 16.7271 9.18117 16.7271 9.18117C16.7271 9.18117 16.8153 9.12267 16.7407 9.02309C16.7855 8.99943 16.8221 8.93348 16.8221 8.93348C16.8221 8.93348 16.761 8.90982 16.7325 8.88992C16.719 8.86376 16.7312 8.72062 16.7312 8.72062L16.6945 8.53516L16.59 8.82395C16.5941 8.78287 16.5968 8.94842 16.4489 8.94842Z" fill="#EF7D00" stroke="black" stroke-width="0.05" stroke-linecap="round" stroke-linejoin="round"/>
<path d="M17.1794 8.53265C17.1826 8.53564 17.2898 8.64585 17.3937 8.63988C17.4327 8.6101 17.3125 8.54458 17.3125 8.52968C17.3547 8.56543 17.5333 8.70541 17.647 8.65478C17.6924 8.59521 17.5658 8.60415 17.4262 8.4433C17.5236 8.50287 17.7671 8.63392 17.8808 8.58329C17.9295 8.53564 17.6275 8.3867 17.5268 8.27055L17.2671 8.14844L16.9131 8.41353L17.1794 8.53265Z" fill="#EF7D00" stroke="black" stroke-width="0.05" stroke-linecap="round" stroke-linejoin="round"/>
<path d="M16.7803 7.62806C16.7803 7.62806 16.9004 7.56253 17.381 7.5953C17.433 7.60125 17.709 7.50892 17.7967 7.48211C17.9363 7.45829 18.3812 7.36893 18.5014 7.28553C18.5858 7.2766 18.4786 7.4285 18.3715 7.46424C18.2578 7.5119 17.8454 7.64295 17.6993 7.62508C17.8746 7.62806 17.7772 7.75911 17.4849 7.69656C17.6246 7.76804 17.5726 7.77996 17.5726 7.77996C17.5726 7.77996 17.3258 7.79187 17.2609 7.74124C17.4265 7.79783 17.3583 7.81868 17.3583 7.81868C17.3583 7.81868 17.1894 7.83357 17.1115 7.80081C17.2316 7.83357 17.1699 7.85442 17.1699 7.85442C17.1699 7.85442 17.0725 7.86931 16.9913 7.84251C16.9102 7.8157 16.7868 7.62806 16.7803 7.62806Z" fill="#EF7D00" stroke="black" stroke-width="0.05" stroke-linecap="round" stroke-linejoin="round"/>
<path d="M16.9727 8.59073L16.9903 8.88201C16.9903 8.88201 16.9808 8.89695 16.9727 8.90566C16.9645 8.91437 16.7474 8.87454 16.7772 9.02639C16.7772 9.08864 16.7786 9.10481 16.8247 9.13967C16.8125 9.09859 16.8166 9.06997 16.8166 9.06997C16.8166 9.06997 16.8777 9.10358 16.9374 9.01147C16.8967 9.10233 16.9251 9.13469 16.9347 9.13719C16.9442 9.15337 16.9184 9.2268 16.9998 9.22555C16.9686 9.19817 16.9835 9.15834 16.9835 9.15834C16.9835 9.15834 17.069 9.1459 17.0392 9.004C17.0704 8.97536 17.0826 9.00275 17.0826 9.00275C17.0826 9.00275 17.0921 9.08739 17.1667 9.06997C17.2007 9.08739 17.1613 9.13344 17.1613 9.13344C17.1613 9.13344 17.2156 9.13469 17.2319 9.09236C17.2482 9.05005 17.2671 8.97412 17.1776 8.943C17.1667 8.91313 17.2129 8.91064 17.2129 8.91064C17.2129 8.91064 17.2699 8.92806 17.2861 8.9542C17.3024 8.98034 17.297 8.88575 17.2264 8.87578C17.1396 8.87329 17.1342 8.85711 17.1342 8.85339C17.1342 8.84964 17.1192 8.64178 17.1124 8.58203L16.9727 8.59073Z" fill="#EF7D00" stroke="black" stroke-width="0.05" stroke-linecap="round" stroke-linejoin="round"/>
<path d="M17.2748 8.84273C17.2759 8.82938 17.1266 8.64508 17.1645 8.62126C17.2023 8.6284 17.2644 8.71223 17.3147 8.68502C17.2995 8.65234 17.2545 8.67074 17.2035 8.5871C17.1525 8.49254 17.1451 8.35059 16.9665 8.19574C17.0821 8.3596 17.3444 8.45565 17.3555 8.40787C17.3666 8.36009 17.1246 8.17942 17.137 8.13588C17.1851 8.2253 17.4282 8.42455 17.6073 8.40805C17.6195 8.36969 17.4606 8.29226 17.4197 8.21997C17.3053 8.14948 16.9991 7.90744 16.993 7.8513C16.8816 7.70227 16.8121 7.65719 16.7797 7.64003C16.7672 7.6265 16.764 7.61358 16.7616 7.60536C16.6924 7.45582 16.784 7.40726 16.8376 7.40008C16.8818 7.39558 16.8946 7.40164 16.9263 7.38754C16.8887 7.37405 16.8511 7.36143 16.8136 7.34794C16.8626 7.38092 16.9878 7.35189 16.9606 7.44687C17.0155 7.42771 17.1323 7.30026 16.8283 7.2715C16.7293 7.16738 16.3225 7.10754 16.2206 7.56197C16.2288 7.56834 16.233 7.57357 16.2589 7.5913C16.1304 7.53418 15.7839 7.49014 15.659 7.47163C15.3216 7.38234 14.9712 7.16718 14.9375 7.19364C14.8924 7.21198 15.1413 7.42437 15.1284 7.42908C14.9126 7.31366 14.7154 7.23188 14.532 7.15747C14.4029 7.11322 14.2736 7.0102 14.2594 7.02979C14.2119 7.12005 14.4663 7.3469 14.5136 7.37359C14.5609 7.39912 14.9332 7.55748 14.9277 7.55945C14.3671 7.32606 14.2731 7.28375 14.2449 7.25684C14.1955 7.24664 14.0751 7.09758 14.0416 7.10716C14.0232 7.12371 14.0601 7.35924 14.3276 7.46496C14.3712 7.49411 14.901 7.66844 14.8958 7.68211C14.8945 7.68552 14.289 7.45288 14.2655 7.44456C14.1487 7.40257 14.0055 7.25538 13.9787 7.27193C13.9531 7.28695 14.0447 7.44626 14.1627 7.49623C14.2245 7.52126 14.4617 7.62901 14.6754 7.69759C14.6891 7.70211 14.2913 7.55924 14.1001 7.48594C14.0133 7.4418 13.9725 7.38678 13.9593 7.39862C13.9398 7.41046 13.9909 7.6458 14.6054 7.77859C14.6216 7.78491 14.8217 7.7351 14.8119 7.74171C14.8094 7.74336 14.6131 7.78255 14.594 7.78121C14.577 7.77883 14.4695 7.79289 14.4675 7.798C14.461 7.81391 14.5065 7.89818 14.8238 7.88061C14.8644 7.87837 15.0845 7.80708 15.066 7.82241C15.0568 7.83009 14.7662 7.91667 14.7441 7.91838C14.7249 7.92087 14.6228 7.93066 14.6191 7.94062C14.6145 7.95419 14.6946 8.01417 14.865 8.02378C15.0159 8.03113 15.3026 7.93922 15.2968 7.94518C15.2911 7.95114 15.0205 8.03619 15.0134 8.04138C15.0036 8.04645 14.9045 8.05139 14.901 8.05837C14.8929 8.07573 15.0439 8.20526 15.4906 8.06702C15.4457 8.12261 15.2292 8.16063 15.2295 8.17064C15.2285 8.17791 15.2772 8.22107 15.3529 8.23651C15.3908 8.24423 15.4426 8.24266 15.4899 8.2358C15.5749 8.22019 15.6645 8.18934 15.7784 8.09285C15.792 8.12313 15.494 8.26143 15.508 8.27462C15.5726 8.32957 15.7872 8.26754 15.8013 8.26033C15.8153 8.25312 16.2145 8.04665 16.2132 8.02275C16.2194 8.05338 15.6985 8.31297 15.7041 8.32362C15.7375 8.37255 15.9155 8.32105 15.924 8.31655C15.9325 8.31206 16.1511 8.20375 16.1571 8.20056C16.163 8.19736 15.9002 8.34168 15.9236 8.36364C15.9122 8.45736 16.3341 8.29896 16.3672 8.27924C16.3837 8.26938 16.1645 8.36764 16.1639 8.41432C16.2345 8.52377 16.4605 8.48905 16.4954 8.46497C16.5128 8.45293 16.4749 8.54629 16.4871 8.53781C16.4914 8.53605 16.5363 8.48736 16.5535 8.45211C16.548 8.48269 16.5233 8.53087 16.5088 8.58615C16.4943 8.64143 16.4902 8.7038 16.4703 8.77007C16.4658 8.79918 16.6096 8.71316 16.5887 8.50752C16.601 8.61449 16.5433 8.81449 16.5584 8.82489C16.5886 8.84568 16.6721 8.72528 16.6806 8.64386C16.7054 8.68499 16.7574 8.77083 16.8022 8.79058C16.7973 8.72837 16.8031 8.73122 16.7829 8.67008C16.7945 8.5889 16.7962 8.47654 16.799 8.34968C16.9207 8.56352 16.9692 8.65381 16.9352 8.81757C16.9714 8.83141 17.0292 8.70327 17.0246 8.63731C17.071 8.82058 17.2716 8.84806 17.2748 8.84273Z" fill="#EF7D00" stroke="black" stroke-width="0.05" stroke-linecap="round" stroke-linejoin="round"/>
<path d="M15.2474 7.48828C15.2474 7.48828 15.1646 7.54569 15.0615 7.54231C15.0873 7.63686 15.3008 7.56426 15.3008 7.56426C15.3008 7.56426 15.1977 7.66894 15.1241 7.68582C15.1683 7.71959 15.3542 7.70777 15.3855 7.69089C15.4168 7.674 15.472 7.60816 15.472 7.60816C15.472 7.60816 15.2806 7.81076 15.253 7.80907C15.2493 7.83271 15.4536 7.82427 15.496 7.78881C15.5383 7.75336 15.6451 7.70102 15.6451 7.70102C15.6451 7.70102 15.3653 7.87999 15.3524 7.87999C15.4573 7.90531 15.6671 7.84959 15.8015 7.77362C15.6027 7.89518 15.5843 7.91713 15.4831 7.95765C15.5733 7.97622 15.6193 8.03194 15.9249 7.91038C16.0997 7.8344 16.1991 7.69595 16.1991 7.69595C16.0905 7.82933 15.9193 7.94246 15.7297 8.05389C15.7187 8.07415 15.9322 8.15687 16.2047 7.89687" fill="#EF7D00"/>
<path d="M15.2474 7.48828C15.2474 7.48828 15.1646 7.54569 15.0615 7.54231C15.0873 7.63686 15.3008 7.56426 15.3008 7.56426C15.3008 7.56426 15.1977 7.66894 15.1241 7.68582C15.1683 7.71959 15.3542 7.70777 15.3855 7.69089C15.4168 7.674 15.472 7.60816 15.472 7.60816C15.472 7.60816 15.2806 7.81076 15.253 7.80907C15.2493 7.83271 15.4536 7.82427 15.496 7.78881C15.5383 7.75336 15.6451 7.70102 15.6451 7.70102C15.6451 7.70102 15.3653 7.87999 15.3524 7.87999C15.4573 7.90531 15.6671 7.84959 15.8015 7.77362C15.6027 7.89518 15.5843 7.91713 15.4831 7.95765C15.5733 7.97622 15.6193 8.03194 15.9249 7.91038C16.0997 7.8344 16.1991 7.69595 16.1991 7.69595C16.0905 7.82933 15.9193 7.94246 15.7297 8.05389C15.7187 8.07415 15.9322 8.15687 16.2047 7.89687" stroke="black" stroke-width="0.05" stroke-linecap="round" stroke-linejoin="round"/>
<path d="M16.7275 8.05078C16.7275 8.05078 16.7459 8.13013 16.8196 8.19092C16.8932 8.25169 16.8987 8.31079 16.8987 8.31079" fill="#EF7D00"/>
<path d="M16.7275 8.05078C16.7275 8.05078 16.7459 8.13013 16.8196 8.19092C16.8932 8.25169 16.8987 8.31079 16.8987 8.31079" stroke="black" stroke-width="0.05" stroke-linecap="round" stroke-linejoin="round"/>
<path d="M16.6909 7.53516C16.6909 7.53516 16.7167 7.60607 16.7922 7.65165C16.8695 7.69724 16.9855 7.84075 16.9947 7.86608C17.0036 7.89673 17.048 8.11765 17.0444 8.14128" fill="#EF7D00"/>
<path d="M16.6909 7.53516C16.6909 7.53516 16.7167 7.60607 16.7922 7.65165C16.8695 7.69724 16.9855 7.84075 16.9947 7.86608C17.0036 7.89673 17.048 8.11765 17.0444 8.14128" stroke="black" stroke-width="0.05" stroke-linecap="round" stroke-linejoin="round"/>
<path d="M16.2213 7.64062C16.2268 7.66764 16.1127 7.8044 16.2692 7.96479C16.1274 8.12349 16.1274 8.14376 16.1274 8.14376C16.1274 8.14376 16.2066 8.18428 16.3483 8.07285C16.5821 8.33624 16.5042 8.45678 16.5042 8.45678" fill="#EF7D00"/>
<path d="M16.2213 7.64062C16.2268 7.66764 16.1127 7.8044 16.2692 7.96479C16.1274 8.12349 16.1274 8.14376 16.1274 8.14376C16.1274 8.14376 16.2066 8.18428 16.3483 8.07285C16.5821 8.33624 16.5042 8.45678 16.5042 8.45678" stroke="black" stroke-width="0.05" stroke-linecap="round" stroke-linejoin="round"/>
<path d="M16.4855 8.27067C16.4855 8.27067 16.464 8.24237 16.5024 8.13672C16.5369 8.17492 16.5754 8.18307 16.5922 8.19853C16.6091 8.21399 16.7856 8.23743 16.7968 8.34562" fill="#EF7D00"/>
<path d="M16.4855 8.27067C16.4855 8.27067 16.464 8.24237 16.5024 8.13672C16.5369 8.17492 16.5754 8.18307 16.5922 8.19853C16.6091 8.21399 16.7856 8.23743 16.7968 8.34562" stroke="black" stroke-width="0.05" stroke-linecap="round" stroke-linejoin="round"/>
<path d="M16.693 7.28009C16.693 7.27215 16.6575 7.20219 16.5249 7.28963C16.596 7.29361 16.6662 7.33097 16.693 7.28009Z" fill="#EF7D00" stroke="black" stroke-width="0.05" stroke-linecap="round" stroke-linejoin="round"/>
<path d="M17.9591 7.59766C17.9656 7.60063 18.3552 7.67807 18.4851 7.63935C18.3195 7.84189 17.9883 7.70488 17.9883 7.70488C18.1506 7.74956 18.1572 7.74658 18.2091 7.78828C18.2253 7.827 17.9104 7.80913 17.8064 7.75551C18.0954 7.83891 18.1019 7.83295 18.1117 7.86572C18.1247 7.91039 17.6376 7.8538 17.5954 7.79423C17.7253 7.88657 17.7967 7.90444 17.8681 7.94614C17.7805 7.98188 17.6181 8.01761 17.3193 7.82402C17.7123 8.15165 18.0662 8.1308 18.1214 8.19037C17.985 8.37503 17.4557 8.08017 17.2122 7.93124C16.9686 7.78232 17.7447 8.29164 17.8162 8.2827C17.7805 8.33333 17.5239 8.28865 17.5077 8.26483" fill="#EF7D00"/>
<path d="M17.9591 7.59766C17.9656 7.60063 18.3552 7.67807 18.4851 7.63935C18.3195 7.84189 17.9883 7.70488 17.9883 7.70488C18.1506 7.74956 18.1572 7.74658 18.2091 7.78828C18.2253 7.827 17.9104 7.80913 17.8064 7.75551C18.0954 7.83891 18.1019 7.83295 18.1117 7.86572C18.1247 7.91039 17.6376 7.8538 17.5954 7.79423C17.7253 7.88657 17.7967 7.90444 17.8681 7.94614C17.7805 7.98188 17.6181 8.01761 17.3193 7.82402C17.7123 8.15165 18.0662 8.1308 18.1214 8.19037C17.985 8.37503 17.4557 8.08017 17.2122 7.93124C16.9686 7.78232 17.7447 8.29164 17.8162 8.2827C17.7805 8.33333 17.5239 8.28865 17.5077 8.26483" stroke="black" stroke-width="0.05" stroke-linecap="round" stroke-linejoin="round"/>
<path d="M18.0597 7.94141C18.0143 7.94736 17.8779 7.94736 17.8584 7.94438L18.0597 7.94141Z" fill="#EF7D00"/>
<path d="M18.0597 7.94141C18.0143 7.94736 17.8779 7.94736 17.8584 7.94438" stroke="black" stroke-width="0.05" stroke-linecap="round" stroke-linejoin="round"/>
<path d="M15.1338 7.42969C15.1338 7.42969 15.4302 7.5732 15.5553 7.56307C15.5222 7.59177 15.4725 7.60359 15.4725 7.60359C15.5038 7.61541 15.5903 7.65762 15.721 7.6306C15.6897 7.65931 15.6492 7.69139 15.6492 7.69139C15.6492 7.69139 15.7615 7.73022 15.8885 7.66944C15.8499 7.71333 15.8278 7.74541 15.8278 7.74541L15.9161 7.75048" fill="#EF7D00"/>
<path d="M15.1338 7.42969C15.1338 7.42969 15.4302 7.5732 15.5553 7.56307C15.5222 7.59177 15.4725 7.60359 15.4725 7.60359C15.5038 7.61541 15.5903 7.65762 15.721 7.6306C15.6897 7.65931 15.6492 7.69139 15.6492 7.69139C15.6492 7.69139 15.7615 7.73022 15.8885 7.66944C15.8499 7.71333 15.8278 7.74541 15.8278 7.74541L15.9161 7.75048" stroke="black" stroke-width="0.05" stroke-linecap="round" stroke-linejoin="round"/>
<path d="M20 6L20 18L4 18L4 6L20 6ZM20 5L4 5C3.4 5 3 5.4 3 6L3 18C3 18.6 3.4 19 4 19L20 19C20.6 19 21 18.6 21 18L21 6C21 5.4 20.6 5 20 5Z" fill="#B5B5B5"/>
</svg>
