<svg width="24" height="24" viewBox="0 0 24 24" fill="none" xmlns="http://www.w3.org/2000/svg">
<path d="M21 6H3V18H21V6Z" fill="#319208"/>
<path d="M21 7H3V17H21V7Z" fill="#FFD200"/>
<path d="M21 9H3V15H21V9Z" fill="#DE2010"/>
<path d="M21 11H3V13H21V11Z" fill="black"/>
<mask id="path-5-inside-1_14099_125536" fill="white">
<path d="M3 6L10 12L3 18"/>
</mask>
<path d="M3 6L10 12L3 18" fill="white"/>
<path d="M10 12L10.1302 12.1519L10.3073 12L10.1302 11.8481L10 12ZM2.86984 6.15185L9.86984 12.1519L10.1302 11.8481L3.13016 5.84815L2.86984 6.15185ZM9.86984 11.8481L2.86984 17.8481L3.13016 18.1519L10.1302 12.1519L9.86984 11.8481Z" fill="black" mask="url(#path-5-inside-1_14099_125536)"/>
<path d="M6.79917 12.5841L8 11.6304L6.61806 11.4051L6 10L5.38194 11.4051L4 11.6304L5.20083 12.5841L4.93777 14L6 13.3181L7.06223 14L6.79917 12.5841Z" fill="#DE2010"/>
<path d="M5.39491 11.9356C5.53605 12.2431 5.57134 12.2633 5.92427 12.3843C6.27712 12.5053 7.27412 12.62 7.37241 12.6313C7.30812 12.567 6.18519 11.7352 5.95455 11.5688C5.72391 11.4024 5.65962 11.3268 5.65962 11.3268C5.65962 11.3268 5.45169 10.9525 5.37984 10.8428C5.30798 10.7331 5.17569 10.5781 5.00177 10.5781C4.82784 10.5781 4.72198 10.6802 4.67155 10.8617C4.64384 10.8693 4.49512 10.96 4.50012 11.0533C4.54298 11.0482 4.81269 10.9726 4.90598 11.2776C4.99927 11.5826 5.00427 12.0817 4.90848 12.3288C4.81269 12.5758 4.66398 12.7623 4.66398 12.9791C4.66398 13.0093 4.68412 13.0698 4.73455 13.0698C4.75219 13.1656 4.89334 13.8487 4.89334 13.8487H6.90484L7.22434 12.6136" fill="#FFC618"/>
<path d="M5.39491 11.9356C5.53605 12.2431 5.57134 12.2633 5.92427 12.3843C6.27712 12.5053 7.27412 12.62 7.37241 12.6313C7.30812 12.567 6.18519 11.7352 5.95455 11.5688C5.72391 11.4024 5.65962 11.3268 5.65962 11.3268C5.65962 11.3268 5.45169 10.9525 5.37984 10.8428C5.30798 10.7331 5.17569 10.5781 5.00177 10.5781C4.82784 10.5781 4.72198 10.6802 4.67155 10.8617C4.64384 10.8693 4.49512 10.96 4.50012 11.0533C4.54298 11.0482 4.81269 10.9726 4.90598 11.2776C4.99927 11.5826 5.00427 12.0817 4.90848 12.3288C4.81269 12.5758 4.66398 12.7623 4.66398 12.9791C4.66398 13.0093 4.68412 13.0698 4.73455 13.0698C4.75219 13.1656 4.89334 13.8487 4.89334 13.8487H6.90484L7.22434 12.6136" stroke="black" stroke-width="0.1"/>
<path d="M4.73438 13.0682C4.73438 13.0682 5.16288 13.043 5.27888 13.043C5.3948 13.043 6.47416 13.0443 7.07638 13.1835" stroke="black" stroke-width="0.1"/>
<path d="M4.88586 13.0603C4.88586 13.0603 4.84293 13.0082 4.87065 12.9049C4.89836 12.8015 5.20086 12.5343 5.20086 12.1562" stroke="black" stroke-width="0.1"/>
<path d="M5.14538 13.0432C5.14538 13.0432 5.11009 12.8744 5.49573 12.7307C5.60416 12.6979 5.91416 12.524 5.92423 12.3828" stroke="black" stroke-width="0.1"/>
<path d="M5.45459 12.75C5.45459 12.75 6.40052 12.7541 7.14916 12.9054" stroke="black" stroke-width="0.1"/>
<path d="M5.69189 12.6341C5.69189 12.6341 6.01697 12.6452 6.06989 12.6301C6.12282 12.6149 6.21654 12.5756 6.25382 12.4648" stroke="black" stroke-width="0.1"/>
<path d="M5.88477 12.6376C5.88477 12.6376 6.05862 12.5473 6.09269 12.4297" stroke="black" stroke-width="0.1"/>
<path d="M5.35952 13.847C5.35952 13.847 5.28516 13.3316 5.27002 13.043L5.46409 13.2283L5.66945 13.0487L5.84602 13.2371L6.05016 13.0639L6.22666 13.2623L6.42881 13.0904L6.58966 13.2774L6.79123 13.1316L7.03088 13.3594" stroke="black" stroke-width="0.05"/>
<path d="M6.98875 13.5223C6.26868 13.4192 5.30518 13.4259 5.30518 13.4259" stroke="black" stroke-width="0.1"/>
<path d="M4.9707 11.6471C4.9707 11.6471 5.55642 11.3672 5.65977 11.3281" stroke="black" stroke-width="0.1"/>
<path d="M5.2998 13.25L5.49669 13.4293L5.67458 13.2514L5.8545 13.4369L6.04878 13.2651L6.22766 13.4531L6.4294 13.2865L6.5942 13.479L6.7949 13.3256L7.00584 13.5119" stroke="black" stroke-width="0.05"/>
<path d="M5.85842 12.9883C5.90158 12.9883 5.93657 12.9533 5.93657 12.9102C5.93657 12.867 5.90158 12.832 5.85842 12.832C5.81526 12.832 5.78027 12.867 5.78027 12.9102C5.78027 12.9533 5.81526 12.9883 5.85842 12.9883Z" stroke="black" stroke-width="0.1"/>
<path d="M6.1885 13.0118C6.23166 13.0118 6.26664 12.9768 6.26664 12.9336C6.26664 12.8905 6.23166 12.8555 6.1885 12.8555C6.14534 12.8555 6.11035 12.8905 6.11035 12.9336C6.11035 12.9768 6.14534 13.0118 6.1885 13.0118Z" stroke="black" stroke-width="0.1"/>
<path d="M4.9604 10.8827C4.99381 10.8827 5.0209 10.8556 5.0209 10.8222C5.0209 10.7888 4.99381 10.7617 4.9604 10.7617C4.92699 10.7617 4.8999 10.7888 4.8999 10.8222C4.8999 10.8556 4.92699 10.8827 4.9604 10.8827Z" stroke="black" stroke-width="0.1"/>
<path d="M20 6L20 18L4 18L4 6L20 6ZM20 5L4 5C3.4 5 3 5.4 3 6L3 18C3 18.6 3.4 19 4 19L20 19C20.6 19 21 18.6 21 18L21 6C21 5.4 20.6 5 20 5Z" fill="#B5B5B5"/>
</svg>
