<svg width="20" height="20" viewBox="0 0 20 20" fill="none" xmlns="http://www.w3.org/2000/svg">
<path d="M15.7629 0.197892C15.6044 0.0659274 15.4168 0 15.2002 0H9.5L8.00018 1.5L6.5 0H0.80016C0.583351 0 0.395833 0.0659274 0.237474 0.197892C0.0792016 0.329783 0 0.486046 0 0.666607V8.66648C0 9.26377 0.139489 9.85573 0.418687 10.4426C0.697754 11.0294 1.04363 11.5503 1.45619 12.0051C1.86875 12.4601 2.36033 12.9028 2.93116 13.3334C3.50208 13.7641 4.02913 14.1214 4.51239 14.4063C4.99566 14.691 5.49985 14.9602 6.02484 15.2134C6.54983 15.4667 6.92285 15.6389 7.1436 15.7291C7.3644 15.8195 7.54149 15.8889 7.67477 15.9373C7.77485 15.979 7.88308 16 7.99989 16C8.11683 16 8.22493 15.979 8.3251 15.9373C8.45829 15.8889 8.63539 15.8195 8.85609 15.7291C9.0768 15.6389 9.44999 15.4667 9.97503 15.2134C10.4997 14.9602 11.0041 14.691 11.4873 14.4063C11.9707 14.1214 12.4977 13.7641 13.0687 13.3334C13.6392 12.9028 14.131 12.4601 14.5435 12.0051C14.956 11.5503 15.3018 11.0294 15.5814 10.4426C15.8606 9.85573 16 9.26377 16 8.66648V0.666607C16 0.485936 15.9208 0.329819 15.7629 0.197892ZM13.6 8.66648C13.6 9.88871 12.6207 11.1386 10.6624 12.4164C9.8791 12.9302 8.99155 13.406 7.99993 13.8435L8 4L10 1.99982H13.6V8.66648Z" fill="#333333"/>
<mask id="path-5-outside-1" maskUnits="userSpaceOnUse" x="11" y="11" width="9" height="9" fill="black">
<rect fill="white" x="11" y="11" width="9" height="9"/>
<path fill-rule="evenodd" clip-rule="evenodd" d="M15.5 19C17.433 19 19 17.433 19 15.5C19 13.567 17.433 12 15.5 12C13.567 12 12 13.567 12 15.5C12 17.433 13.567 19 15.5 19ZM16 13V15H18V16H16V18H15V16H13V15H15V13H16Z"/>
</mask>
<path fill-rule="evenodd" clip-rule="evenodd" d="M15.5 19C17.433 19 19 17.433 19 15.5C19 13.567 17.433 12 15.5 12C13.567 12 12 13.567 12 15.5C12 17.433 13.567 19 15.5 19ZM16 13V15H18V16H16V18H15V16H13V15H15V13H16Z" fill="#333333"/>
<path d="M16 15H15V16H16V15ZM16 13H17V12H16V13ZM18 15H19V14H18V15ZM18 16V17H19V16H18ZM16 16V15H15V16H16ZM16 18V19H17V18H16ZM15 18H14V19H15V18ZM15 16H16V15H15V16ZM13 16H12V17H13V16ZM13 15V14H12V15H13ZM15 15V16H16V15H15ZM15 13V12H14V13H15ZM18 15.5C18 16.8807 16.8807 18 15.5 18V20C17.9853 20 20 17.9853 20 15.5H18ZM15.5 13C16.8807 13 18 14.1193 18 15.5H20C20 13.0147 17.9853 11 15.5 11V13ZM13 15.5C13 14.1193 14.1193 13 15.5 13V11C13.0147 11 11 13.0147 11 15.5H13ZM15.5 18C14.1193 18 13 16.8807 13 15.5H11C11 17.9853 13.0147 20 15.5 20V18ZM17 15V13H15V15H17ZM18 14H16V16H18V14ZM19 16V15H17V16H19ZM16 17H18V15H16V17ZM17 18V16H15V18H17ZM15 19H16V17H15V19ZM14 16V18H16V16H14ZM13 17H15V15H13V17ZM12 15V16H14V15H12ZM15 14H13V16H15V14ZM14 13V15H16V13H14ZM16 12H15V14H16V12Z" fill="white" mask="url(#path-5-outside-1)"/>
</svg>
