<svg width="16" height="16" viewBox="0 0 16 16" fill="none" xmlns="http://www.w3.org/2000/svg">
<path fill-rule="evenodd" clip-rule="evenodd" d="M9.54817 3.23076C9.54817 1.44649 8.03936 0 6.17823 0C4.31709 0 2.80828 1.44649 2.80828 3.23076C2.80828 5.01503 4.31709 6.46153 6.17823 6.46153C8.03936 6.46153 9.54817 5.01517 9.54817 3.23076ZM10.9117 8.28831C9.2102 8.93029 7.99998 10.5738 7.99998 12.5C7.99998 13.026 8.09022 13.5308 8.25604 14H1.58569C0.709944 14 0 13.3432 0 12.543C0 8.87114 1.80689 7.4375 3.72846 7.48469C4.3947 7.90803 5.20365 8.15679 6.07659 8.15679C6.98151 8.15679 7.81769 7.88951 8.49723 7.4375C9.41301 7.4375 10.2518 7.70008 10.9117 8.28831Z" fill="#333333"/>
<path fill-rule="evenodd" clip-rule="evenodd" d="M12.5 16C14.433 16 16 14.433 16 12.5C16 10.567 14.433 9 12.5 9C10.567 9 9 10.567 9 12.5C9 14.433 10.567 16 12.5 16ZM13 10V12H15V13H13V15H12V13H9.99999V12H12V10H13Z" fill="#333333"/>
</svg>
