<svg width="16" height="16" viewBox="0 0 16 16" fill="none" xmlns="http://www.w3.org/2000/svg">
<path fill-rule="evenodd" clip-rule="evenodd" d="M12.3502 0C12.5262 0 12.6786 0.053566 12.8074 0.160787C12.9357 0.267978 13 0.394823 13 0.541618V7.04151C13 7.36733 12.949 7.69119 12.8467 8.01316C12.7323 8.00444 12.6167 8 12.5 8C11.7907 8 11.1196 8.16413 10.5229 8.45648C10.8743 7.97985 11.05 7.5082 11.05 7.04151V1.62486H8.125L6.5 3.25L6.49995 11.2478C7.30564 10.8924 8.02677 10.5058 8.66324 10.0883C8.6847 10.0743 8.70601 10.0603 8.72717 10.0463C8.28239 10.7288 8.0178 11.5395 8.00087 12.4109C7.62856 12.5895 7.35999 12.7127 7.19557 12.7799C7.01625 12.8533 6.87236 12.9097 6.76415 12.9491C6.68276 12.983 6.59493 13 6.49991 13C6.405 13 6.31707 12.983 6.23575 12.9491C6.12746 12.9097 5.98357 12.8533 5.80418 12.7799C5.62482 12.7066 5.32174 12.5667 4.89518 12.3609C4.46863 12.1552 4.05897 11.9364 3.66632 11.7051C3.27367 11.4736 2.84544 11.1833 2.38157 10.8333C1.91777 10.4836 1.51836 10.1238 1.18315 9.75417C0.847951 9.38461 0.566925 8.96138 0.340183 8.4846C0.113335 8.00778 0 7.52681 0 7.04151V0.541618C0 0.394912 0.0643513 0.267949 0.192947 0.160787C0.321614 0.053566 0.473973 0 0.65013 0H5.28125L6.50014 1.21875L7.71875 0H12.3502Z" fill="#333333"/>
<path fill-rule="evenodd" clip-rule="evenodd" d="M12.5 16C14.433 16 16 14.433 16 12.5C16 10.567 14.433 9 12.5 9C10.567 9 9 10.567 9 12.5C9 14.433 10.567 16 12.5 16ZM13 10V12.0001H15V13.0001H13V15L12 15V13.0001H9.99999V12.0001H12V10H13Z" fill="#333333"/>
</svg>
