<svg width="20" height="20" viewBox="0 0 20 20" fill="none" xmlns="http://www.w3.org/2000/svg">
<path fill-rule="evenodd" clip-rule="evenodd" d="M11.8182 3.6923C11.8182 1.65314 10.1087 0 8 0C5.89131 0 4.18182 1.65314 4.18182 3.6923C4.18182 5.73147 5.89131 7.3846 8 7.3846C10.1087 7.3846 11.8182 5.73162 11.8182 3.6923ZM2.7966 16H13.2033C14.1956 16 15 15.2493 15 14.3349C15 10.3507 13.244 8.67231 10.9915 8.5127L8 13L5.03568 8.55352C2.93041 8.59701 1 10.2599 1 14.3349C1 15.2493 1.80438 16 2.7966 16Z" fill="#333333"/>
<mask id="path-5-outside-1" maskUnits="userSpaceOnUse" x="11" y="11" width="9" height="9" fill="black">
<rect fill="white" x="11" y="11" width="9" height="9"/>
<path fill-rule="evenodd" clip-rule="evenodd" d="M15.5 19C17.433 19 19 17.433 19 15.5C19 13.567 17.433 12 15.5 12C13.567 12 12 13.567 12 15.5C12 17.433 13.567 19 15.5 19ZM16 13V15H18V16H16V18H15V16H13V15H15V13H16Z"/>
</mask>
<path fill-rule="evenodd" clip-rule="evenodd" d="M15.5 19C17.433 19 19 17.433 19 15.5C19 13.567 17.433 12 15.5 12C13.567 12 12 13.567 12 15.5C12 17.433 13.567 19 15.5 19ZM16 13V15H18V16H16V18H15V16H13V15H15V13H16Z" fill="#333333"/>
<path d="M16 15H15V16H16V15ZM16 13H17V12H16V13ZM18 15H19V14H18V15ZM18 16V17H19V16H18ZM16 16V15H15V16H16ZM16 18V19H17V18H16ZM15 18H14V19H15V18ZM15 16H16V15H15V16ZM13 16H12V17H13V16ZM13 15V14H12V15H13ZM15 15V16H16V15H15ZM15 13V12H14V13H15ZM18 15.5C18 16.8807 16.8807 18 15.5 18V20C17.9853 20 20 17.9853 20 15.5H18ZM15.5 13C16.8807 13 18 14.1193 18 15.5H20C20 13.0147 17.9853 11 15.5 11V13ZM13 15.5C13 14.1193 14.1193 13 15.5 13V11C13.0147 11 11 13.0147 11 15.5H13ZM15.5 18C14.1193 18 13 16.8807 13 15.5H11C11 17.9853 13.0147 20 15.5 20V18ZM17 15V13H15V15H17ZM18 14H16V16H18V14ZM19 16V15H17V16H19ZM16 17H18V15H16V17ZM17 18V16H15V18H17ZM15 19H16V17H15V19ZM14 16V18H16V16H14ZM13 17H15V15H13V17ZM12 15V16H14V15H12ZM15 14H13V16H15V14ZM14 13V15H16V13H14ZM16 12H15V14H16V12Z" fill="white" mask="url(#path-5-outside-1)"/>
</svg>
