<svg width="14" height="16" viewBox="0 0 14 16" fill="none" xmlns="http://www.w3.org/2000/svg">
<path fill-rule="evenodd" clip-rule="evenodd" d="M4.47193 0.857422L4.0907 0C1.66151 1.07593 0.0917969 3.48438 0.0917969 6.13599H1.03162C1.03162 3.85498 2.38204 1.78296 4.47193 0.857422ZM2.37629 5.78784V8.04773C2.37629 9.29858 1.92411 10.5031 1.13045 11.4443H12.4999C11.7063 10.5031 11.2541 9.29858 11.2541 8.04773V5.78784C11.2541 3.34497 9.26278 1.35754 6.81525 1.35754C4.3676 1.35754 2.37629 3.34497 2.37629 5.78784ZM0.417017 13.9098H13.2135V12.3823H0.417017V13.9098ZM7.99065 14.8479C7.97927 15.4851 7.4564 16 6.81526 16C6.17411 16 5.65112 15.4851 5.63986 14.8479H7.99065ZM13.5386 6.13599H12.5988C12.5988 3.85498 11.2484 1.78296 9.15845 0.857422L9.53969 0C11.969 1.07593 13.5386 3.48438 13.5386 6.13599Z" fill="#333333"/>
</svg>
