<svg width="24" height="24" viewBox="0 0 24 24" fill="none" xmlns="http://www.w3.org/2000/svg">
<path fill-rule="evenodd" clip-rule="evenodd" d="M2.62496 1H9.38577C10.2819 1 11.0107 1.72875 11.0107 2.62496V9.37504C11.0107 10.2713 10.2819 11 9.38577 11H2.62496C1.72875 11 1 10.2712 1 9.37504V2.62496C1 1.72875 1.72875 1 2.62496 1ZM14.6201 1H21.3848C22.281 1 23.0098 1.72875 23.0098 2.62496V9.37504C23.0098 10.2713 22.281 11 21.3848 11H14.6201C13.7238 11 12.9951 10.2712 12.9951 9.37504V2.62496C12.9951 1.72875 13.7238 1 14.6201 1ZM9.36842 13.0148H2.62496C1.72875 13.0148 1 13.7436 1 14.6398V21.3614C1 22.2576 1.72875 22.9863 2.62496 22.9863H9.36842C10.2646 22.9863 10.9934 22.2576 10.9934 21.3614V14.6398C10.9933 13.7436 10.2646 13.0148 9.36842 13.0148ZM18.9867 16.9949H20.5382C20.7905 16.9949 20.9947 17.1991 20.9947 17.4514V18.5439C20.9947 18.7962 20.7905 19.0004 20.5382 19.0004H18.9867V20.5315C18.9867 20.7838 18.7825 20.988 18.5302 20.988H17.4481C17.1958 20.988 16.9916 20.7838 16.9916 20.5315V19.0004H15.4484C15.1961 19.0004 14.9919 18.7962 14.9919 18.5439V17.4514C14.9919 17.1991 15.1961 16.9949 15.4484 16.9949H16.9916V15.4536C16.9916 15.2013 17.1958 14.9971 17.4481 14.9971H18.5302C18.7825 14.9971 18.9867 15.2013 18.9867 15.4536V16.9949Z" fill="#7A95B0"/>
</svg>