<svg width="16" height="16" viewBox="0 0 16 16" fill="none" xmlns="http://www.w3.org/2000/svg">
<path fill-rule="evenodd" clip-rule="evenodd" d="M2 0C0.895431 0 0 0.895431 0 2V14C0 15.1046 0.895431 16 2 16H14C15.1046 16 16 15.1046 16 14V2C16 0.895431 15.1046 0 14 0H2ZM14.0757 9.48723V9.48754C14.0765 9.67003 14.0818 10.135 14.0819 10.135C14.0696 11.2898 13.7089 12.2606 13.0391 12.9419C12.3679 13.6245 11.4206 13.9902 10.2996 13.9995H10.2892H5.91699C5.88953 13.9999 5.86206 14 5.83485 14C4.57826 14 3.60831 13.6499 2.95236 12.9593C2.2959 12.2687 2.08569 11.3343 2.08569 10.036C2.08615 9.99929 2.08496 9.96295 2.08377 9.92691C2.08206 9.87522 2.08038 9.82413 2.08366 9.77335L2.08594 5.21036C2.14011 4.07874 2.65165 3.3789 3.03677 2.97827C3.65906 2.33059 4.5389 2.00213 5.65198 2.00213L5.68273 2.00225L8.54473 2L8.57168 2.00075C10.4429 2.05178 11.7911 3.339 11.8045 5.1298C11.8535 5.66753 11.8228 6.16498 11.7169 6.61365C12.3459 6.63216 13.1218 6.74099 13.6249 7.38316C14.069 7.95034 14.0718 8.59506 14.0757 9.48723ZM8.3602 4.43085L5.91484 4.43372C5.33773 4.42822 4.86415 4.87901 4.85504 5.44864C4.8458 6.01801 5.30546 6.48707 5.88181 6.4962L8.344 6.4952C8.91263 6.4952 9.37799 6.08368 9.3871 5.51968C9.39646 4.95006 8.93655 4.43985 8.3602 4.43085ZM5.62059 11.2226H10.5112C11.0877 11.2226 11.5549 10.7609 11.5549 10.1911C11.5549 9.6215 11.0878 9.1597 10.5113 9.1597H5.62059C5.04437 9.1597 4.57699 9.6215 4.57699 10.1911C4.57699 10.7609 5.04437 11.2226 5.62059 11.2226Z" fill="#333333"/>
</svg>
