<svg width="24" height="24" viewBox="0 0 24 24" fill="none" xmlns="http://www.w3.org/2000/svg">
<path d="M3.46129 22L14.5387 22C15.3445 22 16 21.3445 16 20.5388L16 16.9046L9.59254 16.9046C8.05121 16.9046 7.0996 15.8556 7.0996 14.3144L7.0996 8L3.46128 8C2.65553 8 1.99999 8.65549 1.99999 9.4612L1.99999 20.5388C2.00003 21.3445 2.65553 22 3.46129 22Z" fill="#A3A9AE"/>
<path fill-rule="evenodd" clip-rule="evenodd" d="M9.43787 16L20.5622 16C21.3549 16 22 15.3551 22 14.5623L22 3.43767C21.9999 2.64493 21.355 2 20.5621 2L9.43782 2C8.64499 2 7.99998 2.64493 7.99998 3.43762L7.99999 14.5623C7.99994 15.3551 8.64503 16 9.43787 16ZM15 13C14.4477 13 14 12.5523 14 12L14 10.5C14 10.2239 13.7761 10 13.5 10L12 10C11.4477 10 11 9.55229 11 9C11 8.44772 11.4477 8 12 8L13.5 8C13.7761 8 14 7.77614 14 7.5L14 6C14 5.44772 14.4477 5 15 5C15.5523 5 16 5.44772 16 6L16 7.5C16 7.77614 16.2238 8 16.5 8L18 8C18.5523 8 19 8.44772 19 9C19 9.55228 18.5523 10 18 10L16.5 10C16.2238 10 16 10.2239 16 10.5L16 12C16 12.5523 15.5523 13 15 13Z" fill="#A3A9AE"/>
</svg>
