<svg width="24" height="24" viewBox="0 0 24 24" fill="none" xmlns="http://www.w3.org/2000/svg">
<path fill-rule="evenodd" clip-rule="evenodd" d="M5 2C4.44772 2 4 2.44772 4 3L4 21C4 21.5523 4.44772 22 5 22L19 22C19.5523 22 20 21.5523 20 21L20 7L15.1111 2H5ZM9 19C9.55228 19 10 18.5523 10 18C10 17.4477 9.55228 17 9 17C8.44771 17 8 17.4477 8 18C8 18.5523 8.44771 19 9 19ZM13 18C13 18.5523 12.5523 19 12 19C11.4477 19 11 18.5523 11 18C11 17.4477 11.4477 17 12 17C12.5523 17 13 17.4477 13 18ZM15 19C15.5523 19 16 18.5523 16 18C16 17.4477 15.5523 17 15 17C14.4477 17 14 17.4477 14 18C14 18.5523 14.4477 19 15 19Z" fill="#A3A9AE"/>
</svg>
