<svg width="24" height="24" viewBox="0 0 24 24" fill="none" xmlns="http://www.w3.org/2000/svg">
<path fill-rule="evenodd" clip-rule="evenodd" d="M2.25 5C2.25 4.44772 2.69772 4 3.25 4H7L7.00959 1.99522C7.01222 1.44481 7.45916 1 8.00958 1H15C15.5523 1 16 1.44772 16 2V4H19.5C20.0523 4 20.5 4.44772 20.5 5V6C20.5 6.55228 20.0523 7 19.5 7H3.25C2.69772 7 2.25 6.55228 2.25 6V5ZM4 8H4.03965H18.9604C18.9802 8 19 20.843 19 20.843C19 21.4793 18.4648 22 17.8106 22H5.18944C4.53525 22 4 21.4793 4 20.843V8ZM6.5 10C6.22386 10 6 10.2239 6 10.5V19.5C6 19.7761 6.22386 20 6.5 20C6.77614 20 7 19.7761 7 19.5V10.5C7 10.2239 6.77614 10 6.5 10ZM11 10.5C11 10.2239 11.2239 10 11.5 10C11.7761 10 12 10.2239 12 10.5V19.5C12 19.7761 11.7761 20 11.5 20C11.2239 20 11 19.7761 11 19.5V10.5ZM16.5 10C16.2239 10 16 10.2239 16 10.5V19.5C16 19.7761 16.2239 20 16.5 20C16.7761 20 17 19.7761 17 19.5V10.5C17 10.2239 16.7761 10 16.5 10ZM14 3H9V4H14V3Z" fill="#A3A9AE"/>
</svg>
