<svg width="22" height="23" viewBox="0 0 22 23" fill="none" xmlns="http://www.w3.org/2000/svg">
<path fill-rule="evenodd" clip-rule="evenodd" d="M16.9943 3H18.8814C20.0491 3 20.9998 3.95017 21 5.11844V19.8965C21 21.0642 20.0493 22.0149 18.8816 22.0149H2.11844C0.950513 22.0149 0 21.0641 0 19.8965V5.11844C0 3.95017 0.950513 3 2.11844 3H4V1.02931C4 0.460813 4.46064 0 5.02914 0H5.96674C6.53507 0 6.99588 0.460813 6.99588 1.02931V3H14.001V1.02931C14.001 0.460813 14.4616 0 15.0301 0H15.9649C16.5335 0 16.9943 0.460813 16.9943 1.02931V3ZM19 20.001H2.02614V7H19V20.001ZM10.5266 16.6579C10.0732 17.114 9.33756 17.114 8.8844 16.6579L6.34004 14.0984C5.88665 13.6425 5.88665 12.9024 6.34004 12.4466C6.7932 11.9905 7.52885 11.9905 7.98223 12.4466L9.49817 13.9713C9.61261 14.0862 9.79839 14.0862 9.91304 13.9713L14.0178 9.84207C14.4709 9.38598 15.2066 9.38598 15.66 9.84207C15.8777 10.0611 16 10.3583 16 10.668C16 10.9777 15.8777 11.2748 15.66 11.4939L10.5266 16.6579Z" fill="#ECEEF1"/>
<mask id="mask0" mask-type="alpha" maskUnits="userSpaceOnUse" x="0" y="0" width="21" height="23">
<path fill-rule="evenodd" clip-rule="evenodd" d="M16.9943 3H18.8814C20.0491 3 20.9998 3.95017 21 5.11844V19.8965C21 21.0642 20.0493 22.0149 18.8816 22.0149H2.11844C0.950513 22.0149 0 21.0641 0 19.8965V5.11844C0 3.95017 0.950513 3 2.11844 3H4V1.02931C4 0.460813 4.46064 0 5.02914 0H5.96674C6.53507 0 6.99588 0.460813 6.99588 1.02931V3H14.001V1.02931C14.001 0.460813 14.4616 0 15.0301 0H15.9649C16.5335 0 16.9943 0.460813 16.9943 1.02931V3ZM19 20.001H2.02614V7H19V20.001ZM10.5266 16.6579C10.0732 17.114 9.33756 17.114 8.8844 16.6579L6.34004 14.0984C5.88665 13.6425 5.88665 12.9024 6.34004 12.4466C6.7932 11.9905 7.52885 11.9905 7.98223 12.4466L9.49817 13.9713C9.61261 14.0862 9.79839 14.0862 9.91304 13.9713L14.0178 9.84207C14.4709 9.38598 15.2066 9.38598 15.66 9.84207C15.8777 10.0611 16 10.3583 16 10.668C16 10.9777 15.8777 11.2748 15.66 11.4939L10.5266 16.6579Z" fill="white"/>
</mask>
<g mask="url(#mask0)">
<rect width="22" height="22" fill="#D0D5DA"/>
</g>
</svg>
