<svg width="17" height="16" viewBox="0 0 17 16" fill="none" xmlns="http://www.w3.org/2000/svg">
<path fill-rule="evenodd" clip-rule="evenodd" d="M15.8314 7.7654L13.3521 1.65329C13.2827 1.46861 13.1561 1.31367 12.9719 1.18825C12.788 1.06263 12.6057 1 12.4252 1H3.75852C3.57796 1 3.39568 1.06263 3.21172 1.18825C3.02776 1.31367 2.90087 1.46861 2.83147 1.65329L0.352192 7.7654C0.178559 8.2157 0.0917969 8.66961 0.0917969 9.12725L0.0917969 14.2914C0.0917969 14.4833 0.157726 14.6493 0.289693 14.7896C0.421733 14.9298 0.577999 15 0.758564 15H15.4253C15.6058 15 15.762 14.9298 15.894 14.7896C16.0259 14.6494 16.0918 14.4833 16.0918 14.2914V9.12725C16.0918 8.66961 16.0052 8.2157 15.8314 7.7654ZM10.7712 9L9.77335 11H6.41061L5.41236 9H2.0918C2.0989 8.98528 2.10755 8.95585 2.11811 8.91163C2.12868 8.86749 2.13743 8.83794 2.14443 8.82322L4.37207 3H11.8117L14.0392 8.82322C14.0463 8.84549 14.055 8.87492 14.0653 8.91163C14.0759 8.9483 14.0846 8.97773 14.0918 9H10.7712Z" fill="#657077"/>
<mask id="mask0" mask-type="alpha" maskUnits="userSpaceOnUse" x="0" y="1" width="17" height="14">
<path fill-rule="evenodd" clip-rule="evenodd" d="M15.8314 7.7654L13.3521 1.65329C13.2827 1.46861 13.1561 1.31367 12.9719 1.18825C12.788 1.06263 12.6057 1 12.4252 1H3.75852C3.57796 1 3.39568 1.06263 3.21172 1.18825C3.02776 1.31367 2.90087 1.46861 2.83147 1.65329L0.352192 7.7654C0.178559 8.2157 0.0917969 8.66961 0.0917969 9.12725L0.0917969 14.2914C0.0917969 14.4833 0.157726 14.6493 0.289693 14.7896C0.421733 14.9298 0.577999 15 0.758564 15H15.4253C15.6058 15 15.762 14.9298 15.894 14.7896C16.0259 14.6494 16.0918 14.4833 16.0918 14.2914V9.12725C16.0918 8.66961 16.0052 8.2157 15.8314 7.7654ZM10.7712 9L9.77335 11H6.41061L5.41236 9H2.0918C2.0989 8.98528 2.10755 8.95585 2.11811 8.91163C2.12868 8.86749 2.13743 8.83794 2.14443 8.82322L4.37207 3H11.8117L14.0392 8.82322C14.0463 8.84549 14.055 8.87492 14.0653 8.91163C14.0759 8.9483 14.0846 8.97773 14.0918 9H10.7712Z" fill="white"/>
</mask>
<g mask="url(#mask0)">
</g>
</svg>
