<svg width="17" height="16" viewBox="0 0 17 16" fill="none" xmlns="http://www.w3.org/2000/svg">
<path fill-rule="evenodd" clip-rule="evenodd" d="M15.9359 0.0651349C15.8205 -0.0151818 15.6695 -0.0215325 15.5478 0.047815L0.275059 7.80281C0.150423 7.87355 0.0793775 8.01082 0.0935934 8.15304C0.107809 8.29527 0.204389 8.4159 0.340411 8.46083L4.90122 9.97516L6.65928 14.7623C6.71219 14.9063 6.84961 15 7.00053 15C7.01437 15 7.02859 14.9993 7.04243 14.9975C7.14068 14.9863 7.22335 14.9336 7.28178 14.8606L9.87252 11.6261L13.4313 12.8078C13.4689 12.8205 13.5077 12.8265 13.5464 12.8265C13.6117 12.8265 13.6767 12.8088 13.7338 12.7745C13.8251 12.7201 13.8876 12.6284 13.905 12.5237L16.0868 0.421789C16.1099 0.283739 16.0513 0.145078 15.9359 0.0651349ZM7.68141 10.2123C7.64471 10.2617 7.62128 10.3194 7.61397 10.3802L7.29067 13L6.0918 9.76066L13.0918 3L7.68141 10.2123Z" fill="#657077"/>
<mask id="mask0" mask-type="alpha" maskUnits="userSpaceOnUse" x="0" y="0" width="17" height="15">
<path fill-rule="evenodd" clip-rule="evenodd" d="M15.9359 0.0651349C15.8205 -0.0151818 15.6695 -0.0215325 15.5478 0.047815L0.275059 7.80281C0.150423 7.87355 0.0793775 8.01082 0.0935934 8.15304C0.107809 8.29527 0.204389 8.4159 0.340411 8.46083L4.90122 9.97516L6.65928 14.7623C6.71219 14.9063 6.84961 15 7.00053 15C7.01437 15 7.02859 14.9993 7.04243 14.9975C7.14068 14.9863 7.22335 14.9336 7.28178 14.8606L9.87252 11.6261L13.4313 12.8078C13.4689 12.8205 13.5077 12.8265 13.5464 12.8265C13.6117 12.8265 13.6767 12.8088 13.7338 12.7745C13.8251 12.7201 13.8876 12.6284 13.905 12.5237L16.0868 0.421789C16.1099 0.283739 16.0513 0.145078 15.9359 0.0651349ZM7.68141 10.2123C7.64471 10.2617 7.62128 10.3194 7.61397 10.3802L7.29067 13L6.0918 9.76066L13.0918 3L7.68141 10.2123Z" fill="white"/>
</mask>
<g mask="url(#mask0)">
</g>
</svg>
