<svg width="88" height="88" viewBox="0 0 88 88" fill="none" xmlns="http://www.w3.org/2000/svg">
<g filter="url(#filter0_d)">
<path fill-rule="evenodd" clip-rule="evenodd" d="M44 63C57.2548 63 68 52.2548 68 39C68 25.7452 57.2548 15 44 15C30.7452 15 20 25.7452 20 39C20 52.2548 30.7452 63 44 63Z" fill="white"/>
</g>
<path fill-rule="evenodd" clip-rule="evenodd" d="M36 31C36 29.8954 36.8954 29 38 29C39.1046 29 40 29.8954 40 31V47C40 48.1046 39.1046 49 38 49C36.8954 49 36 48.1046 36 47V31ZM50 34.4142C50 33.5233 51.0771 33.0771 51.7071 33.7071L56.2929 38.2929C56.6834 38.6834 56.6834 39.3166 56.2929 39.7071L51.7071 44.2929C51.0771 44.9229 50 44.4767 50 43.5858V41H44C43.4477 41 43 40.5523 43 40V38C43 37.4477 43.4477 37 44 37H50V34.4142Z" fill="#A3A9AE"/>
<defs>
<filter id="filter0_d" x="0" y="0" width="88" height="88" filterUnits="userSpaceOnUse" color-interpolation-filters="sRGB">
<feFlood flood-opacity="0" result="BackgroundImageFix"/>
<feColorMatrix in="SourceAlpha" type="matrix" values="0 0 0 0 0 0 0 0 0 0 0 0 0 0 0 0 0 0 127 0"/>
<feOffset dy="5"/>
<feGaussianBlur stdDeviation="10"/>
<feColorMatrix type="matrix" values="0 0 0 0 0 0 0 0 0 0 0 0 0 0 0 0 0 0 0.13 0"/>
<feBlend mode="normal" in2="BackgroundImageFix" result="effect1_dropShadow"/>
<feBlend mode="normal" in="SourceGraphic" in2="effect1_dropShadow" result="shape"/>
</filter>
</defs>
</svg>
