<svg width="21" height="20" viewBox="0 0 21 20" fill="none" xmlns="http://www.w3.org/2000/svg">
<path fill-rule="evenodd" clip-rule="evenodd" d="M0 2C0 0.895431 0.895431 0 2 0C3.10457 0 4 0.895431 4 2V18C4 19.1046 3.10457 20 2 20C0.895431 20 0 19.1046 0 18V2ZM14 5.41421C14 4.52331 15.0771 4.07714 15.7071 4.70711L20.2929 9.29289C20.6834 9.68342 20.6834 10.3166 20.2929 10.7071L15.7071 15.2929C15.0771 15.9229 14 15.4767 14 14.5858V12H8C7.44772 12 7 11.5523 7 11V9C7 8.44771 7.44772 8 8 8H14V5.41421Z" fill="#A3A9AE"/>
</svg>