<svg width="24" height="24" viewBox="0 0 24 24" fill="none" xmlns="http://www.w3.org/2000/svg">
<path fill-rule="evenodd" clip-rule="evenodd" d="M6 3.3C6 2.58203 6.58203 2 7.3 2H21.7C22.418 2 23 2.58203 23 3.3V13.7C23 14.418 22.418 15 21.7 15H21V5.3C21 4.58203 20.418 4 19.7 4H6V3.3ZM17.7 6.0028C18.418 6.0028 19 6.58483 19 7.3028V18.7C19 19.418 18.418 20 17.7 20H5.67862C5.2802 20 4.90378 20.1827 4.65728 20.4957L3.32134 22.1922C2.55797 23.1616 1 22.6218 1 21.3879V7.3028C1 6.58483 1.58203 6.0028 2.3 6.0028H17.7Z" fill="#A3A9AE"/>
</svg>
