<svg width="18" height="8" viewBox="0 0 18 8" fill="none" xmlns="http://www.w3.org/2000/svg">
<path fill-rule="evenodd" clip-rule="evenodd" d="M4.5 8C1.5 8 0 6.30502 0 4C0 1.69498 1.5 0 4.5 0H14C16.9951 0 18 1.14774 18 2.96207C18 4.7764 16.9951 5.95776 14 5.95776H6.5C5.1 5.95776 4 5.27273 4 4C4 2.72727 5.1 1.97081 6.5 1.97081H14V2.96207H6.5C5.9 2.96207 4.99177 3.03124 4.99177 4C4.99177 4.96876 5.9 4.96876 6.5 4.96876H14C15.5524 4.96876 16.9951 4.80087 16.9951 2.96207C16.9951 1.12328 15.5524 0.938583 14 0.938583H4.5C2.3 0.938583 0.994912 2.21363 0.994912 4C0.994912 5.78637 2.3 6.96583 4.5 6.96583H14V8H4.5Z" fill="#A3A9AE"/>
</svg>
