<svg width="24" height="25" viewBox="0 0 24 25" fill="none" xmlns="http://www.w3.org/2000/svg">
<path fill-rule="evenodd" clip-rule="evenodd" d="M2.0004 0C1.44795 0 1.00017 0.447961 1.0004 1.0004L1.00577 14.3031C1.00577 14.5839 1.17728 14.8378 1.44145 14.9449C1.70158 15.0519 2.00692 14.9949 2.21079 14.7944L5.73913 11.2904C5.92647 11.1044 6.17977 11 6.44378 11H22C22.5523 11 23 10.5522 23 9.99996V1C23 0.447715 22.5523 0 22 0H2.0004ZM6.99579 13.0096C6.44351 13.0096 5.9958 13.4574 5.9958 14.0096V21.0039C5.9958 21.5562 6.44351 22.0039 6.9958 22.0039H19.5819C19.8518 22.0039 20.1103 22.113 20.2985 22.3064L21.7605 23.8086C21.97 24.0053 22.2841 24.0613 22.5518 23.9564C22.8236 23.8512 23 23.6023 23 23.3268V14.0096C23 13.4574 22.5523 13.0096 22 13.0096H6.99579ZM8.99999 17.5C8.99999 18.3281 9.67148 19 10.5 19C11.3281 19 12 18.3281 12 17.5C12 16.6714 11.3281 16 10.5 16C9.67148 16 8.99999 16.6714 8.99999 17.5ZM14.5 19C13.6715 19 13 18.3281 13 17.5C13 16.6714 13.6715 16 14.5 16C15.3281 16 16 16.6714 16 17.5C16 18.3281 15.3281 19 14.5 19ZM17 17.5C17 18.3281 17.6715 19 18.5 19C19.3281 19 20 18.3281 20 17.5C20 16.6714 19.3281 16 18.5 16C17.6715 16 17 16.6714 17 17.5ZM4.49999 8.99996C3.67148 8.99996 2.99999 8.32848 2.99999 7.49996C2.99999 6.67145 3.67148 5.99996 4.49999 5.99996C5.32851 5.99996 5.99999 6.67145 5.99999 7.49996C5.99999 8.32848 5.32851 8.99996 4.49999 8.99996ZM2.99999 3.49996C2.99999 4.32848 3.67148 4.99996 4.49999 4.99996C5.32851 4.99996 5.99999 4.32848 5.99999 3.49996C5.99999 2.67145 5.32851 1.99996 4.49999 1.99996C3.67148 1.99996 2.99999 2.67145 2.99999 3.49996ZM21 7.49996C21 7.77611 20.7761 7.99996 20.5 7.99996H8.49999C8.22385 7.99996 7.99999 7.77611 7.99999 7.49996C7.99999 7.22382 8.22385 6.99996 8.49999 6.99996H20.5C20.7761 6.99996 21 7.22382 21 7.49996ZM20.5 3.99996C20.7761 3.99996 21 3.7761 21 3.49996C21 3.22382 20.7761 2.99996 20.5 2.99996H8.49999C8.22385 2.99996 7.99999 3.22382 7.99999 3.49996C7.99999 3.7761 8.22385 3.99996 8.49999 3.99996H20.5Z" fill="#7A95B0"/>
</svg>