<svg width="22" height="22" viewBox="0 0 22 22" fill="none" xmlns="http://www.w3.org/2000/svg">
<path fill-rule="evenodd" clip-rule="evenodd" d="M0.000488361 1.00039C0.000270487 0.447956 0.448049 0 1.00049 0H20.0001C20.5524 0 21.0001 0.447715 21.0001 1V9C21.0001 9.55229 20.5524 10 20.0001 10H5.20886C4.93736 10 4.67753 10.1104 4.48906 10.3058L1.10561 13.8141C0.919465 13.9972 0.640669 14.0492 0.403165 13.9516C0.161967 13.8538 0.005365 13.622 0.005365 13.3655L0.000488361 1.00039ZM2.00009 7.25C2.00009 7.94043 2.55966 8.5 3.25009 8.5C3.94052 8.5 4.50009 7.94043 4.50009 7.25C4.50009 6.55957 3.94052 6 3.25009 6C2.55966 6 2.00009 6.55957 2.00009 7.25ZM3.25009 4.5C2.55966 4.5 2.00009 3.94043 2.00009 3.25C2.00009 2.55957 2.55966 2 3.25009 2C3.94052 2 4.50009 2.55957 4.50009 3.25C4.50009 3.94043 3.94052 4.5 3.25009 4.5ZM18.2501 8C18.6643 8 19.0001 7.66421 19.0001 7.25C19.0001 6.83579 18.6643 6.5 18.2501 6.5H6.75009C6.33588 6.5 6.00009 6.83579 6.00009 7.25C6.00009 7.66421 6.33588 8 6.75009 8H18.2501ZM19.0001 3.25C19.0001 3.66421 18.6643 4 18.2501 4H6.75009C6.33588 4 6.00009 3.66421 6.00009 3.25C6.00009 2.83579 6.33588 2.5 6.75009 2.5H18.2501C18.6643 2.5 19.0001 2.83579 19.0001 3.25ZM7.00009 12C6.44781 12 6.00009 12.4477 6.00009 13V19C6.00009 19.5523 6.44781 20 7.00009 20H17.0812C17.2953 20 17.5037 20.0687 17.6758 20.196L19.8683 21.8175C20.0596 21.9971 20.3464 22.0483 20.5909 21.9525C20.839 21.8564 21.0001 21.6292 21.0001 21.3776V13C21.0001 12.4477 20.5524 12 20.0001 12H7.00009ZM10.0001 17C9.44775 17 9.00009 16.5521 9.00009 16C9.00009 15.4477 9.44775 15 10.0001 15C10.5522 15 11.0001 15.4477 11.0001 16C11.0001 16.5521 10.5522 17 10.0001 17ZM12.5001 16C12.5001 16.5521 12.9478 17 13.5001 17C14.0522 17 14.5001 16.5521 14.5001 16C14.5001 15.4477 14.0522 15 13.5001 15C12.9478 15 12.5001 15.4477 12.5001 16ZM17.0001 17C16.4478 17 16.0001 16.5521 16.0001 16C16.0001 15.4477 16.4478 15 17.0001 15C17.5522 15 18.0001 15.4477 18.0001 16C18.0001 16.5521 17.5522 17 17.0001 17Z" fill="#D0D5DA"/>
<mask id="mask0" mask-type="alpha" maskUnits="userSpaceOnUse" x="0" y="0" width="21" height="22">
<path fill-rule="evenodd" clip-rule="evenodd" d="M0.000488361 1.00039C0.000270487 0.447956 0.448049 0 1.00049 0H20.0001C20.5524 0 21.0001 0.447715 21.0001 1V9C21.0001 9.55229 20.5524 10 20.0001 10H5.20886C4.93736 10 4.67753 10.1104 4.48906 10.3058L1.10561 13.8141C0.919465 13.9972 0.640669 14.0492 0.403165 13.9516C0.161967 13.8538 0.005365 13.622 0.005365 13.3655L0.000488361 1.00039ZM2.00009 7.25C2.00009 7.94043 2.55966 8.5 3.25009 8.5C3.94052 8.5 4.50009 7.94043 4.50009 7.25C4.50009 6.55957 3.94052 6 3.25009 6C2.55966 6 2.00009 6.55957 2.00009 7.25ZM3.25009 4.5C2.55966 4.5 2.00009 3.94043 2.00009 3.25C2.00009 2.55957 2.55966 2 3.25009 2C3.94052 2 4.50009 2.55957 4.50009 3.25C4.50009 3.94043 3.94052 4.5 3.25009 4.5ZM18.2501 8C18.6643 8 19.0001 7.66421 19.0001 7.25C19.0001 6.83579 18.6643 6.5 18.2501 6.5H6.75009C6.33588 6.5 6.00009 6.83579 6.00009 7.25C6.00009 7.66421 6.33588 8 6.75009 8H18.2501ZM19.0001 3.25C19.0001 3.66421 18.6643 4 18.2501 4H6.75009C6.33588 4 6.00009 3.66421 6.00009 3.25C6.00009 2.83579 6.33588 2.5 6.75009 2.5H18.2501C18.6643 2.5 19.0001 2.83579 19.0001 3.25ZM7.00009 12C6.44781 12 6.00009 12.4477 6.00009 13V19C6.00009 19.5523 6.44781 20 7.00009 20H17.0812C17.2953 20 17.5037 20.0687 17.6758 20.196L19.8683 21.8175C20.0596 21.9971 20.3464 22.0483 20.5909 21.9525C20.839 21.8564 21.0001 21.6292 21.0001 21.3776V13C21.0001 12.4477 20.5524 12 20.0001 12H7.00009ZM10.0001 17C9.44775 17 9.00009 16.5521 9.00009 16C9.00009 15.4477 9.44775 15 10.0001 15C10.5522 15 11.0001 15.4477 11.0001 16C11.0001 16.5521 10.5522 17 10.0001 17ZM12.5001 16C12.5001 16.5521 12.9478 17 13.5001 17C14.0522 17 14.5001 16.5521 14.5001 16C14.5001 15.4477 14.0522 15 13.5001 15C12.9478 15 12.5001 15.4477 12.5001 16ZM17.0001 17C16.4478 17 16.0001 16.5521 16.0001 16C16.0001 15.4477 16.4478 15 17.0001 15C17.5522 15 18.0001 15.4477 18.0001 16C18.0001 16.5521 17.5522 17 17.0001 17Z" fill="white"/>
</mask>
<g mask="url(#mask0)">
<rect width="21" height="23" fill="#D0D5DA"/>
</g>
</svg>
