<svg width="17" height="16" viewBox="0 0 17 16" fill="none" xmlns="http://www.w3.org/2000/svg">
<path fill-rule="evenodd" clip-rule="evenodd" d="M6.23682 0H14.9399C15.573 0 16.088 0.515039 16.088 1.14809V9.85224C16.088 10.4853 15.573 11.0004 14.9399 11.0004H12.0814V6.03888C12.0814 4.82791 11.3338 4.0037 10.1228 4.0037H5.08873V1.14809C5.08873 0.515039 5.60374 0 6.23682 0ZM1.22152 4.99872H9.96204C10.585 4.99872 11.0918 5.50551 11.0918 6.12845V14.8703C11.0918 15.4932 10.585 16 9.96207 16H1.22152C0.598584 16 0.0918312 15.4932 0.0917969 14.8703V6.12845C0.0917969 5.50551 0.598619 4.99872 1.22152 4.99872Z" fill="#333333"/>
</svg>
