<svg width="24" height="24" viewBox="0 0 24 24" fill="none" xmlns="http://www.w3.org/2000/svg">
<path fill-rule="evenodd" clip-rule="evenodd" d="M15.3719 3.25678C15.3719 5.05546 13.9289 6.51357 12.1488 6.51357C10.3687 6.51357 8.92562 5.05546 8.92562 3.25678C8.92562 1.45811 10.3687 0 12.1488 0C13.9289 0 15.3719 1.45811 15.3719 3.25678ZM6.07558 3.82952C6.18787 5.06074 6.65857 6.18705 7.38131 7.10098C5.83057 8.33665 4.77654 10.1805 4.57158 12.2764C4.1378 12.1775 3.6865 12.1253 3.22314 12.1253C2.49652 12.1253 1.79958 12.2537 1.15332 12.4892C1.32664 8.86139 3.24354 5.6958 6.07558 3.82952ZM19.4284 12.2764C19.2314 10.2617 18.2499 8.47996 16.7968 7.24738C17.5485 6.35435 18.0526 5.24194 18.2018 4.01852C20.8811 5.90525 22.6791 8.98112 22.8467 12.4892C22.2004 12.2537 21.5035 12.1253 20.7769 12.1253C20.3135 12.1253 19.8622 12.1775 19.4284 12.2764ZM7.26408 22.9043C8.69536 23.6063 10.3022 24 12 24C13.6978 24 15.3046 23.6063 16.7359 22.9043C15.8756 22.1348 15.2319 21.1235 14.9092 19.9757C14.0152 20.3584 13.032 20.57 12 20.57C10.968 20.57 9.98483 20.3584 9.0908 19.9757C8.76809 21.1235 8.12444 22.1348 7.26408 22.9043ZM6.44628 18.2881C6.44628 20.0868 5.00323 21.5449 3.22314 21.5449C1.44305 21.5449 0 20.0868 0 18.2881C0 16.4894 1.44305 15.0313 3.22314 15.0313C5.00323 15.0313 6.44628 16.4894 6.44628 18.2881ZM20.7769 21.5449C22.5569 21.5449 24 20.0868 24 18.2881C24 16.4894 22.5569 15.0313 20.7769 15.0313C18.9968 15.0313 17.5537 16.4894 17.5537 18.2881C17.5537 20.0868 18.9968 21.5449 20.7769 21.5449Z" fill="white"/>
</svg>