<svg width="22" height="22" viewBox="0 0 22 22" fill="none" xmlns="http://www.w3.org/2000/svg">
<path fill-rule="evenodd" clip-rule="evenodd" d="M11.1364 5.97077C12.7681 5.97077 14.0909 4.63417 14.0909 2.98539C14.0909 1.3366 12.7681 0 11.1364 0C9.50461 0 8.18182 1.3366 8.18182 2.98539C8.18182 4.63417 9.50461 5.97077 11.1364 5.97077ZM5.90909 16.7641C5.90909 18.4129 4.5863 19.7495 2.95455 19.7495C1.3228 19.7495 0 18.4129 0 16.7641C0 15.1153 1.3228 13.7787 2.95455 13.7787C4.5863 13.7787 5.90909 15.1153 5.90909 16.7641ZM22 16.7641C22 18.4129 20.6772 19.7495 19.0455 19.7495C17.4137 19.7495 16.0909 18.4129 16.0909 16.7641C16.0909 15.1153 17.4137 13.7787 19.0455 13.7787C20.6772 13.7787 22 15.1153 22 16.7641ZM5.56928 3.51039C5.67221 4.63901 6.10369 5.67146 6.7662 6.50923C5.34469 7.64192 4.3785 9.33208 4.19061 11.2534C3.79298 11.1627 3.37929 11.1148 2.95455 11.1148C2.28848 11.1148 1.64961 11.2325 1.05721 11.4484C1.21608 8.12294 2.97325 5.22115 5.56928 3.51039ZM6.65874 20.9956C7.97074 21.6391 9.44366 22 11 22C12.5563 22 14.0293 21.6391 15.3413 20.9956C14.5526 20.2902 13.9626 19.3632 13.6668 18.3111C12.8472 18.6618 11.946 18.8558 11 18.8558C10.054 18.8558 9.15276 18.6618 8.33323 18.3111C8.03742 19.3632 7.4474 20.2902 6.65874 20.9956ZM16.685 3.68364C19.141 5.41315 20.7892 8.23269 20.9428 11.4484C20.3504 11.2325 19.7115 11.1148 19.0455 11.1148C18.6207 11.1148 18.207 11.1627 17.8094 11.2534C17.6288 9.40655 16.729 7.77329 15.397 6.64343C16.0861 5.82482 16.5482 4.80511 16.685 3.68364Z" fill="#D0D5DA"/>
<mask id="mask0" mask-type="alpha" maskUnits="userSpaceOnUse" x="0" y="0" width="22" height="22">
<path fill-rule="evenodd" clip-rule="evenodd" d="M11.1364 5.97077C12.7681 5.97077 14.0909 4.63417 14.0909 2.98539C14.0909 1.3366 12.7681 0 11.1364 0C9.50461 0 8.18182 1.3366 8.18182 2.98539C8.18182 4.63417 9.50461 5.97077 11.1364 5.97077ZM5.90909 16.7641C5.90909 18.4129 4.5863 19.7495 2.95455 19.7495C1.3228 19.7495 0 18.4129 0 16.7641C0 15.1153 1.3228 13.7787 2.95455 13.7787C4.5863 13.7787 5.90909 15.1153 5.90909 16.7641ZM22 16.7641C22 18.4129 20.6772 19.7495 19.0455 19.7495C17.4137 19.7495 16.0909 18.4129 16.0909 16.7641C16.0909 15.1153 17.4137 13.7787 19.0455 13.7787C20.6772 13.7787 22 15.1153 22 16.7641ZM5.56928 3.51039C5.67221 4.63901 6.10369 5.67146 6.7662 6.50923C5.34469 7.64192 4.3785 9.33208 4.19061 11.2534C3.79298 11.1627 3.37929 11.1148 2.95455 11.1148C2.28848 11.1148 1.64961 11.2325 1.05721 11.4484C1.21608 8.12294 2.97325 5.22115 5.56928 3.51039ZM6.65874 20.9956C7.97074 21.6391 9.44366 22 11 22C12.5563 22 14.0293 21.6391 15.3413 20.9956C14.5526 20.2902 13.9626 19.3632 13.6668 18.3111C12.8472 18.6618 11.946 18.8558 11 18.8558C10.054 18.8558 9.15276 18.6618 8.33323 18.3111C8.03742 19.3632 7.4474 20.2902 6.65874 20.9956ZM16.685 3.68364C19.141 5.41315 20.7892 8.23269 20.9428 11.4484C20.3504 11.2325 19.7115 11.1148 19.0455 11.1148C18.6207 11.1148 18.207 11.1627 17.8094 11.2534C17.6288 9.40655 16.729 7.77329 15.397 6.64343C16.0861 5.82482 16.5482 4.80511 16.685 3.68364Z" fill="white"/>
</mask>
<g mask="url(#mask0)">
<rect width="22" height="22" fill="#D0D5DA"/>
</g>
</svg>
