<svg width="16" height="16" viewBox="0 0 16 16" fill="none" xmlns="http://www.w3.org/2000/svg">
<path d="M15.6676 11.9986L10.0155 1.60877C9.10743 0.0799923 6.89378 0.0779611 5.98447 1.60877L0.332715 11.9986C-0.595597 13.5608 0.528309 15.539 2.34778 15.539H13.652C15.47 15.539 16.5959 13.5624 15.6676 11.9986ZM8 13.9375C7.48318 13.9375 7.0625 13.5168 7.0625 13C7.0625 12.4832 7.48318 12.0625 8 12.0625C8.51681 12.0625 8.9375 12.4832 8.9375 13C8.9375 13.5168 8.51681 13.9375 8 13.9375ZM8.9375 10.0625C8.9375 10.5793 8.51681 11 8 11C7.48319 11 7.0625 10.5793 7.0625 10.0625L7.0625 5C7.0625 4.48319 7.48318 4.0625 8 4.0625C8.51681 4.0625 8.9375 4.48319 8.9375 5L8.9375 10.0625Z" fill="#333333"/>
</svg>
