<svg width="22" height="22" viewBox="0 0 22 22" fill="none" xmlns="http://www.w3.org/2000/svg">
<path fill-rule="evenodd" clip-rule="evenodd" d="M3 2.5C3 1.67157 3.67157 1 4.5 1H14L19 6.00587V19.5C19 20.3284 18.3284 21 17.5 21H4.5C3.67157 21 3 20.3284 3 19.5V2.5ZM6 5C6 4.44772 6.44772 4 7 4H11C11.5523 4 12 4.44772 12 5C12 5.55228 11.5523 6 11 6H7C6.44772 6 6 5.55228 6 5ZM7 8C6.44772 8 6 8.44772 6 9C6 9.55229 6.44772 10 7 10H15C15.5523 10 16 9.55229 16 9C16 8.44772 15.5523 8 15 8H7ZM6 13C6 12.4477 6.44772 12 7 12H15C15.5523 12 16 12.4477 16 13C16 13.5523 15.5523 14 15 14H7C6.44772 14 6 13.5523 6 13ZM7 16C6.44772 16 6 16.4477 6 17C6 17.5523 6.44772 18 7 18H15C15.5523 18 16 17.5523 16 17C16 16.4477 15.5523 16 15 16H7Z" fill="#D0D5DA"/>
<mask id="mask0" mask-type="alpha" maskUnits="userSpaceOnUse" x="3" y="1" width="16" height="20">
<path fill-rule="evenodd" clip-rule="evenodd" d="M3 2.5C3 1.67157 3.67157 1 4.5 1H14L19 6.00587V19.5C19 20.3284 18.3284 21 17.5 21H4.5C3.67157 21 3 20.3284 3 19.5V2.5ZM6 5C6 4.44772 6.44772 4 7 4H11C11.5523 4 12 4.44772 12 5C12 5.55228 11.5523 6 11 6H7C6.44772 6 6 5.55228 6 5ZM7 8C6.44772 8 6 8.44772 6 9C6 9.55229 6.44772 10 7 10H15C15.5523 10 16 9.55229 16 9C16 8.44772 15.5523 8 15 8H7ZM6 13C6 12.4477 6.44772 12 7 12H15C15.5523 12 16 12.4477 16 13C16 13.5523 15.5523 14 15 14H7C6.44772 14 6 13.5523 6 13ZM7 16C6.44772 16 6 16.4477 6 17C6 17.5523 6.44772 18 7 18H15C15.5523 18 16 17.5523 16 17C16 16.4477 15.5523 16 15 16H7Z" fill="white"/>
</mask>
<g mask="url(#mask0)">
<rect width="22" height="22" fill="#D0D5DA"/>
</g>
</svg>
