<svg width="10" height="10" viewBox="0 0 10 10" fill="none" xmlns="http://www.w3.org/2000/svg">
<path fill-rule="evenodd" clip-rule="evenodd" d="M4.97925 0H1.50001C1.08685 0 0.733487 0.146708 0.44007 0.44007C0.146708 0.733487 0 1.08683 0 1.50001V8.50006C0 8.91321 0.146708 9.26659 0.44007 9.56C0.733487 9.85342 1.08685 10.0001 1.50001 10.0001H8.50006C8.91322 10.0001 9.26659 9.85342 9.55988 9.56C9.85329 9.26659 10 8.91322 10 8.50006V5.02092L9.99479 5.01571H9V7.87507C9 8.18495 8.88997 8.44997 8.66991 8.67003C8.44994 8.8901 8.18492 9.00013 7.87505 9.00013H2.12501C1.81514 9.00013 1.55012 8.8901 1.33005 8.67003C1.11003 8.44997 1 8.18493 1 7.87507V2.12501C1 1.81513 1.11003 1.55012 1.33005 1.33005C1.55012 1.11003 1.81514 1 2.12501 1H4.99579V0.0165411L4.97925 0ZM9.67929 3.04609C9.7193 3.04609 9.76121 3.03774 9.80457 3.02105C9.93476 2.96423 9.99998 2.86575 10 2.72547V0.320688C10 0.233844 9.96827 0.158668 9.90487 0.0952501C9.84131 0.0317617 9.76614 0 9.67931 0H7.2746C7.13432 0 7.03573 0.0651905 6.97898 0.195414C6.92223 0.33241 6.94559 0.449244 7.04916 0.546109L7.77061 1.26754L4.09521 4.94297C4.03174 5.00638 4 5.08158 4 5.16833C4 5.25513 4.03174 5.33042 4.09521 5.39377L4.60623 5.90487C4.66968 5.96829 4.74484 6.00007 4.83174 6.00007C4.9186 6.00007 4.99369 5.96829 5.05723 5.90487L8.73246 2.22948L9.45386 2.95091C9.51403 3.01431 9.5892 3.04609 9.67929 3.04609Z" fill="#333333"/>
</svg>
