<svg width="14" height="12" viewBox="0 0 14 12" fill="none" xmlns="http://www.w3.org/2000/svg">
<path fill-rule="evenodd" clip-rule="evenodd" d="M10.7811 5.2807C10.6352 5.09507 10.4582 5.00233 10.2497 5.00233H9.9983V4.571C9.9983 3.35132 9.49834 0 6 0C2.50166 0 1.99848 3.35129 1.99848 4.571V5.00233H1.74998C1.54172 5.00233 1.36459 5.09507 1.21875 5.2807C1.0729 5.46618 1 5.69161 1 5.95691V11.0455C1 11.3105 1.07292 11.536 1.21875 11.7217C1.36459 11.9072 1.54172 12 1.74998 12H10.2499C10.4584 12 10.6354 11.9073 10.7813 11.7217C10.927 11.536 11 11.3105 11 11.0455V5.95681C11.0001 5.69171 10.927 5.46632 10.7811 5.2807ZM7.99456 5H4.03975V4.45691C4.03975 4.37952 4.03516 4.28947 4.0301 4.19048C3.98919 3.38863 3.91834 2 6.01675 2C8.11556 2 8.04492 3.38916 8.00415 4.19093L8.00415 4.19095C7.99913 4.28976 7.99456 4.37965 7.99456 4.45691V5ZM7 10V7H5V10H7Z" fill="#3B72A7"/>
</svg>
