<svg width="16" height="17" viewBox="0 0 16 17" fill="none" xmlns="http://www.w3.org/2000/svg">
<path fill-rule="evenodd" clip-rule="evenodd" d="M-8.74228e-08 14.9961C-3.91405e-08 16.1007 0.895431 16.9961 2 16.9961L14 16.9961C15.1046 16.9961 16 16.1007 16 14.9961L16 10.4961C16 10.22 15.7761 9.99609 15.5 9.99609L9 9.99609L9 13.6961C9 13.8618 8.86569 13.9961 8.7 13.9961L7.3 13.9961C7.13431 13.9961 7 13.8618 7 13.6961L7 9.99609L0.5 9.99609C0.223857 9.99609 -2.96191e-07 10.22 -2.8412e-07 10.4961L-8.74228e-08 14.9961ZM0.5 7.99609C0.223857 7.99609 -4.03188e-07 7.77224 -4.15258e-07 7.49609L-6.11959e-07 2.99609C-6.60242e-07 1.89152 0.89543 0.996094 2 0.996094L14 0.996093C15.1046 0.996093 16 1.89152 16 2.99609L16 7.49609C16 7.77224 15.7761 7.99609 15.5 7.99609L14.5 7.99609C14.2239 7.99609 14 7.77224 14 7.49609L14 3.99609C14 3.44381 13.5523 2.99609 13 2.99609L3 2.99609C2.44771 2.99609 2 3.44381 2 3.99609L2 7.49609C2 7.77224 1.77614 7.99609 1.5 7.99609L0.5 7.99609ZM10.6399 7.51609C10.7882 7.71386 10.6471 7.99609 10.3999 7.99609L9.29986 7.99609C9.13417 7.99609 8.99986 8.13041 8.99986 8.29609L8.99986 9.69609C8.99986 9.86178 8.86555 9.99609 8.69986 9.99609L7.29986 9.99609C7.13418 9.99609 6.99986 9.86178 6.99986 9.69609L6.99986 8.29609C6.99986 8.13041 6.86555 7.99609 6.69986 7.99609L5.59986 7.99609C5.35265 7.99609 5.21153 7.71386 5.35986 7.51609L7.75986 4.31609C7.87986 4.15609 8.11986 4.15609 8.23986 4.31609L10.6399 7.51609Z" fill="white"/>
</svg>
