<svg width="16" height="17" viewBox="0 0 16 17" fill="none" xmlns="http://www.w3.org/2000/svg">
<path fill-rule="evenodd" clip-rule="evenodd" d="M2 0.996094C0.895431 0.996094 0 1.89152 0 2.99609V14.9961C0 16.1007 0.89543 16.9961 2 16.9961H6.5C6.77614 16.9961 7 16.7722 7 16.4961V9.99609H3.3C3.13431 9.99609 3 9.86178 3 9.69609V8.29609C3 8.13041 3.13431 7.99609 3.3 7.99609H7V1.49609C7 1.21995 6.77614 0.996094 6.5 0.996094H2ZM9 1.49609C9 1.21995 9.22386 0.996094 9.5 0.996094H14C15.1046 0.996094 16 1.89152 16 2.99609V14.9961C16 16.1007 15.1046 16.9961 14 16.9961H9.5C9.22386 16.9961 9 16.7722 9 16.4961V15.4961C9 15.22 9.22386 14.9961 9.5 14.9961H13C13.5523 14.9961 14 14.5484 14 13.9961V3.99609C14 3.44381 13.5523 2.99609 13 2.99609H9.5C9.22386 2.99609 9 2.77224 9 2.49609V1.49609ZM9.48 11.636C9.28223 11.7843 9 11.6432 9 11.396V10.296C9 10.1303 8.86569 9.99595 8.7 9.99595H7.3C7.13431 9.99595 7 9.86164 7 9.69595V8.29595C7 8.13027 7.13431 7.99595 7.3 7.99595H8.7C8.86569 7.99595 9 7.86164 9 7.69595V6.59595C9 6.34874 9.28223 6.20763 9.48 6.35595L12.68 8.75595C12.84 8.87595 12.84 9.11595 12.68 9.23596L9.48 11.636Z" fill="white"/>
</svg>
