<svg width="22" height="22" viewBox="0 0 22 22" fill="none" xmlns="http://www.w3.org/2000/svg">
<path fill-rule="evenodd" clip-rule="evenodd" d="M2.1 3H18.9C20.055 3 21 3.9 21 5V17C21 18.1 20.055 19 18.9 19H2.1C0.945 19 0 18.1 0 17V5C0 3.9 0.945 3 2.1 3ZM10.5 11.5909L19 6.81818V4.90909L10.5 9.68182L2 4.90909V6.81818L10.5 11.5909Z" fill="#ECEEF1"/>
<mask id="mask0" mask-type="alpha" maskUnits="userSpaceOnUse" x="0" y="3" width="21" height="16">
<path fill-rule="evenodd" clip-rule="evenodd" d="M2.1 3H18.9C20.055 3 21 3.9 21 5V17C21 18.1 20.055 19 18.9 19H2.1C0.945 19 0 18.1 0 17V5C0 3.9 0.945 3 2.1 3ZM10.5 11.5909L19 6.81818V4.90909L10.5 9.68182L2 4.90909V6.81818L10.5 11.5909Z" fill="white"/>
</mask>
<g mask="url(#mask0)">
<rect width="22" height="22" fill="#D0D5DA"/>
</g>
</svg>
