<svg width="27" height="25" viewBox="0 0 27 25" fill="none" xmlns="http://www.w3.org/2000/svg">
<path fill-rule="evenodd" clip-rule="evenodd" d="M15 17.5L22 24.5L23.5303 22.9697L1.53033 0.969666L0 2.5L3.5 6H0V18H8L15 23V17.5ZM13 15.5L5.5 8H2V16H8.64093L13 19.1136V15.5Z" fill="white"/>
<path d="M13 4.88638V10L15 12V1L8.58333 5.58334L10.017 7.01706L13 4.88638Z" fill="white"/>
<path d="M18.182 15.182L19.9498 16.9498C21.2165 15.683 22 13.933 22 12C22 9.33898 20.5152 7.02475 18.3288 5.84065L17.0152 7.97535C18.4887 8.71457 19.5 10.2392 19.5 12C19.5 13.2427 18.9963 14.3677 18.182 15.182Z" fill="white"/>
<path d="M21.7175 18.7175L23.4853 20.4853C25.6569 18.3137 27 15.3137 27 12C27 7.53857 24.5653 3.64579 20.9521 1.57784L19.6408 3.70872C22.5405 5.33521 24.5 8.43877 24.5 12C24.5 14.6234 23.4367 16.9984 21.7175 18.7175Z" fill="white"/>
</svg>
