<svg width="22" height="22" viewBox="0 0 22 22" fill="none" xmlns="http://www.w3.org/2000/svg">
<path fill-rule="evenodd" clip-rule="evenodd" d="M1 11C1 5.47737 5.47737 1 11 1C16.5226 1 21 5.47737 21 11C21 16.5226 16.5226 21 11 21C5.47737 21 1 16.5226 1 11ZM12.6917 16.7179C13.5388 16.5113 14.265 16.1027 14.8228 15.4968C16.3645 13.8249 15.7752 11.3687 13.6073 10.2885C12.9809 9.98126 12.3242 9.73993 11.6647 9.49759C11.5984 9.47321 11.532 9.44882 11.4656 9.42435C11.0499 9.26937 10.6448 9.0909 10.2922 8.8373C9.59236 8.33948 9.72391 7.53169 10.5448 7.21233C10.7763 7.1231 11.0184 7.09492 11.2657 7.08083C11.3709 7.07614 11.4814 7.07144 11.5867 7.07144C12.418 7.07144 13.2126 7.23112 13.9703 7.55987C14.1177 7.62562 14.2334 7.65849 14.3281 7.65849C14.4965 7.65849 14.586 7.54108 14.6807 7.28748C14.789 6.98012 14.8888 6.66769 14.9885 6.35578C15.0243 6.24351 15.0602 6.13131 15.0964 6.01944C15.1911 5.73296 15.0753 5.5451 14.7754 5.42769C14.2282 5.21166 13.6651 5.05668 13.0705 4.97214C12.668 4.91593 12.4749 4.88897 12.3816 4.77808C12.2956 4.67588 12.2943 4.5024 12.2918 4.16905L12.2918 4.16845C12.2865 3.22506 12.2863 3.1875 11.3078 3.1875H11.1867H10.8868H10.7079C10.1922 3.20159 10.108 3.28143 10.0923 3.74168C10.0844 3.90026 10.0853 4.05619 10.0863 4.21147C10.0867 4.26313 10.087 4.31471 10.087 4.3663C10.087 4.97052 10.0818 4.97217 9.4442 5.17698L9.42398 5.18348C7.8296 5.70009 6.84561 6.66755 6.74037 8.21737C6.64565 9.58872 7.44548 10.5139 8.70835 11.1902C9.24501 11.4782 9.81915 11.6838 10.3946 11.8898C10.6542 11.9827 10.9141 12.0757 11.171 12.1765C11.4919 12.3033 11.8024 12.4488 12.0708 12.6461C12.8653 13.2285 12.718 14.2006 11.7761 14.5669C11.4025 14.7125 11.0184 14.7783 10.6237 14.7783C10.4816 14.7783 10.3396 14.7689 10.1975 14.7548C9.35031 14.6609 8.54523 14.4636 7.7875 14.1114C7.62438 14.0362 7.50336 13.994 7.40864 13.994C7.24552 13.994 7.15607 14.1161 7.06135 14.3885C6.9298 14.7595 6.81404 15.1352 6.69827 15.5109C6.54568 16.0181 6.60356 16.1355 7.14028 16.3704C7.82434 16.6662 8.56101 16.8165 9.30822 16.9245C9.89229 17.0091 9.91334 17.0279 9.9186 17.5726C9.9186 17.8169 9.9186 18.0658 9.92387 18.31C9.92387 18.6199 10.0923 18.8031 10.4501 18.8078C10.6395 18.8125 10.8289 18.8125 11.0184 18.8125C11.2341 18.8125 11.4498 18.8078 11.6656 18.8031C11.9971 18.7937 12.1707 18.634 12.1707 18.3335C12.1721 18.2485 12.174 18.1638 12.176 18.0793C12.1819 17.8274 12.1878 17.5769 12.176 17.3237C12.1549 16.9809 12.3233 16.8071 12.6917 16.7179Z" fill="#D0D5DA"/>
<mask id="mask0" mask-type="alpha" maskUnits="userSpaceOnUse" x="1" y="1" width="20" height="20">
<path fill-rule="evenodd" clip-rule="evenodd" d="M1 11C1 5.47737 5.47737 1 11 1C16.5226 1 21 5.47737 21 11C21 16.5226 16.5226 21 11 21C5.47737 21 1 16.5226 1 11ZM12.6917 16.7179C13.5388 16.5113 14.265 16.1027 14.8228 15.4968C16.3645 13.8249 15.7752 11.3687 13.6073 10.2885C12.9809 9.98126 12.3242 9.73993 11.6647 9.49759C11.5984 9.47321 11.532 9.44882 11.4656 9.42435C11.0499 9.26937 10.6448 9.0909 10.2922 8.8373C9.59236 8.33948 9.72391 7.53169 10.5448 7.21233C10.7763 7.1231 11.0184 7.09492 11.2657 7.08083C11.3709 7.07614 11.4814 7.07144 11.5867 7.07144C12.418 7.07144 13.2126 7.23112 13.9703 7.55987C14.1177 7.62562 14.2334 7.65849 14.3281 7.65849C14.4965 7.65849 14.586 7.54108 14.6807 7.28748C14.789 6.98012 14.8888 6.66769 14.9885 6.35578C15.0243 6.24351 15.0602 6.13131 15.0964 6.01944C15.1911 5.73296 15.0753 5.5451 14.7754 5.42769C14.2282 5.21166 13.6651 5.05668 13.0705 4.97214C12.668 4.91593 12.4749 4.88897 12.3816 4.77808C12.2956 4.67588 12.2943 4.5024 12.2918 4.16905L12.2918 4.16845C12.2865 3.22506 12.2863 3.1875 11.3078 3.1875H11.1867H10.8868H10.7079C10.1922 3.20159 10.108 3.28143 10.0923 3.74168C10.0844 3.90026 10.0853 4.05619 10.0863 4.21147C10.0867 4.26313 10.087 4.31471 10.087 4.3663C10.087 4.97052 10.0818 4.97217 9.4442 5.17698L9.42398 5.18348C7.8296 5.70009 6.84561 6.66755 6.74037 8.21737C6.64565 9.58872 7.44548 10.5139 8.70835 11.1902C9.24501 11.4782 9.81915 11.6838 10.3946 11.8898C10.6542 11.9827 10.9141 12.0757 11.171 12.1765C11.4919 12.3033 11.8024 12.4488 12.0708 12.6461C12.8653 13.2285 12.718 14.2006 11.7761 14.5669C11.4025 14.7125 11.0184 14.7783 10.6237 14.7783C10.4816 14.7783 10.3396 14.7689 10.1975 14.7548C9.35031 14.6609 8.54523 14.4636 7.7875 14.1114C7.62438 14.0362 7.50336 13.994 7.40864 13.994C7.24552 13.994 7.15607 14.1161 7.06135 14.3885C6.9298 14.7595 6.81404 15.1352 6.69827 15.5109C6.54568 16.0181 6.60356 16.1355 7.14028 16.3704C7.82434 16.6662 8.56101 16.8165 9.30822 16.9245C9.89229 17.0091 9.91334 17.0279 9.9186 17.5726C9.9186 17.8169 9.9186 18.0658 9.92387 18.31C9.92387 18.6199 10.0923 18.8031 10.4501 18.8078C10.6395 18.8125 10.8289 18.8125 11.0184 18.8125C11.2341 18.8125 11.4498 18.8078 11.6656 18.8031C11.9971 18.7937 12.1707 18.634 12.1707 18.3335C12.1721 18.2485 12.174 18.1638 12.176 18.0793C12.1819 17.8274 12.1878 17.5769 12.176 17.3237C12.1549 16.9809 12.3233 16.8071 12.6917 16.7179Z" fill="white"/>
</mask>
<g mask="url(#mask0)">
<rect width="22" height="22" fill="#D0D5DA"/>
</g>
</svg>
