<svg width="12" height="12" viewBox="0 0 12 12" fill="none" xmlns="http://www.w3.org/2000/svg">
<rect width="12" height="12" rx="6" fill="#EDC409"/>
<rect x="0.5" y="0.5" width="11" height="11" rx="5.5" stroke="black" stroke-opacity="0.2"/>
<path d="M9.12012 5.77881C9.12012 6.85986 8.85498 7.68164 8.32471 8.24414C7.79443 8.80664 7.01807 9.08789 5.99561 9.08789C4.98779 9.08789 4.21436 8.80518 3.67529 8.23975C3.13916 7.67432 2.87109 6.85107 2.87109 5.77002C2.87109 4.70068 3.1377 3.88477 3.6709 3.32227C4.20703 2.75684 4.98486 2.47412 6.00439 2.47412C7.02686 2.47412 7.80176 2.75391 8.3291 3.31348C8.85645 3.87305 9.12012 4.69482 9.12012 5.77881ZM4.69922 5.77881C4.69922 7.021 5.13135 7.64209 5.99561 7.64209C6.43506 7.64209 6.76025 7.49121 6.97119 7.18945C7.18506 6.8877 7.29199 6.41748 7.29199 5.77881C7.29199 5.13721 7.18359 4.66406 6.9668 4.35938C6.75293 4.05176 6.43213 3.89795 6.00439 3.89795C5.13428 3.89795 4.69922 4.5249 4.69922 5.77881Z" fill="white"/>
</svg>
