<svg width="24" height="24" viewBox="0 0 24 24" fill="none" xmlns="http://www.w3.org/2000/svg">
<path fill-rule="evenodd" clip-rule="evenodd" d="M1 12C1 5.9251 5.9251 1 12 1C18.0749 1 23 5.9251 23 12C23 18.0749 18.0749 23 12 23C5.9251 23 1 18.0749 1 12ZM13.5715 17.7967C14.4099 17.5922 15.0485 17.1878 15.6005 16.5882C17.1263 14.9336 16.543 12.5028 14.3975 11.4338C13.7777 11.1297 13.1277 10.8909 12.4751 10.6511C12.4094 10.6269 12.3437 10.6028 12.2781 10.5786C11.8667 10.4252 11.4657 10.2486 11.1168 9.9976C10.4242 9.50493 10.5544 8.7055 11.3667 8.38945C11.5959 8.30114 11.8354 8.27325 12.0802 8.25931C12.1843 8.25466 12.2937 8.25001 12.3978 8.25001C13.2206 8.25001 14.007 8.40804 14.7568 8.73339C14.9027 8.79846 15.0172 8.83099 15.111 8.83099C15.2776 8.83099 15.3661 8.7148 15.4599 8.46381C15.5671 8.15964 15.6659 7.85043 15.7645 7.54175C15.8 7.43064 15.8354 7.31961 15.8713 7.2089C15.965 6.92538 15.8504 6.73947 15.5536 6.62327C15.012 6.40947 14.4548 6.25609 13.8664 6.17243C13.468 6.1168 13.2769 6.09012 13.1846 5.98037C13.0994 5.87923 13.0981 5.70755 13.0956 5.37765L13.0956 5.37705C13.0904 4.44342 13.0902 4.40625 12.1218 4.40625H12.0021H11.7052H11.5282C11.0178 4.42019 10.9345 4.49921 10.9189 4.95469C10.9111 5.11163 10.912 5.26595 10.913 5.41962C10.9134 5.47075 10.9137 5.5218 10.9137 5.57286C10.9137 6.17082 10.9086 6.17246 10.2775 6.37515L10.2575 6.38158C8.67964 6.89284 7.70583 7.8503 7.60168 9.38409C7.50794 10.7413 8.29949 11.6569 9.5493 12.3262C10.0804 12.6112 10.6486 12.8146 11.2181 13.0185C11.4751 13.1104 11.7323 13.2025 11.9864 13.3022C12.3041 13.4277 12.6113 13.5718 12.8769 13.767C13.6633 14.3433 13.5174 15.3054 12.5853 15.668C12.2156 15.812 11.8354 15.8771 11.4448 15.8771C11.3042 15.8771 11.1636 15.8678 11.023 15.8539C10.1846 15.7609 9.38786 15.5657 8.63798 15.2171C8.47654 15.1428 8.35677 15.1009 8.26303 15.1009C8.1016 15.1009 8.01307 15.2218 7.91934 15.4913C7.78915 15.8585 7.67458 16.2304 7.56002 16.6022C7.409 17.1041 7.46628 17.2203 7.99745 17.4527C8.67443 17.7456 9.59425 17.8943 10.3337 18.0012C10.9118 18.0848 10.9326 18.1034 10.9378 18.6426C10.9378 18.8843 10.9378 19.1306 10.943 19.3723C10.943 19.6791 11.1096 19.8603 11.4638 19.865C11.6512 19.8696 11.8387 19.8696 12.0262 19.8696C12.1813 19.8696 12.2779 19.8672 12.4011 19.864C12.4474 19.8629 12.4976 19.8616 12.556 19.8603C12.8841 19.851 13.0559 19.693 13.0559 19.3955C13.0573 19.3114 13.0592 19.2276 13.0612 19.144C13.067 18.8947 13.0728 18.6468 13.0612 18.3962C13.0403 18.057 13.207 17.885 13.5715 17.7967Z" fill="white"/>
</svg>
