<svg width="16" height="16" viewBox="0 0 16 16" fill="none" xmlns="http://www.w3.org/2000/svg">
<path fill-rule="evenodd" clip-rule="evenodd" d="M15.9673 3.8126C15.973 3.88308 15.9792 3.95889 15.9862 4.04092C15.9862 4.04092 15.9997 4.15334 16 4.20071C16 4.64509 15.7014 5 15.334 5H12.6497C12.2904 4.98609 11.9999 4.63457 11.9999 4.19807L11.9956 3.87975C11.9956 3.39288 11.6675 3 11.2593 3H4.74139C4.33412 3 4.00391 3.39288 4.00391 3.87975L4.00235 4.18304C4.00235 4.61953 3.71036 4.98609 3.35165 5H0.667302C0.301382 5 0 4.64509 0 4.20071C0 4.15221 0.0144112 4.04092 0.0144112 4.04092C0.11059 2.90702 0.139086 2.84377 1 1.83093C2.03761 0.611313 5.14992 0 8.00115 0C10.8499 0 13.9636 0.610561 15 1.83093C15.8916 2.88079 15.8938 2.90886 15.9673 3.8126ZM11 4.83335V5L15.4756 8.80793C15.798 9.11119 16 9.53414 16 10L16.0007 13.6669C16.0007 14.4047 15.3796 14.9999 14.6094 14.9999H14.0007V15.1653C14.0007 15.6255 13.481 15.9999 13.0007 15.9999C12.5218 15.9999 12.0007 15.6255 12.0007 15.1653V14.9999H4.00073V15.1653C4.00073 15.6255 3.48259 15.9999 3.00073 15.9999C2.52214 15.9999 2.00073 15.6255 2.00073 15.1653V14.9999H1.39204C0.623812 14.9999 0.000732422 14.4044 0.000732422 13.6669L0 10C0 9.53382 0.2017 9.11119 0.525335 8.80793L5 5V4.83335C5 4.37438 5.51978 4 6 4C6.48055 4 7 4.3747 7 4.83335V5H9V4.83335C9 4.37438 9.52141 4 10 4C10.4789 4 11 4.3747 11 4.83335ZM8 13C9.65685 13 11 11.6569 11 10C11 8.34315 9.65685 7 8 7C6.34315 7 5 8.34315 5 10C5 11.6569 6.34315 13 8 13ZM8 11C8.55229 11 9 10.5523 9 10C9 9.44771 8.55229 9 8 9C7.44772 9 7 9.44771 7 10C7 10.5523 7.44772 11 8 11Z" fill="#333333"/>
</svg>
