<svg width="22" height="22" viewBox="0 0 22 22" fill="none" xmlns="http://www.w3.org/2000/svg">
<path fill-rule="evenodd" clip-rule="evenodd" d="M20.0119 22V18.3956C20.0119 18.3956 14.0387 5.59644 13.8936 5.34663C13.4205 4.53336 12.8412 3.98578 12 3.73769V1.02943C12 0.46102 11.573 0 11 0C10.427 0 10 0.46102 10 1.02943V3.75065C9.73865 3.75065 9.2693 3.92422 9.03928 4.05614C7.33905 5.02956 6.79964 7.45393 7.78086 9.13878C7.93885 9.36979 8.87147 10.5113 8.87147 10.5113L16.8288 19.7004L20.0119 22ZM10.9 5.69841C11.7283 5.69841 12.4 6.37 12.4 7.19862C12.4 8.02724 11.7283 8.69841 10.9 8.69841C10.0717 8.69841 9.4 8.02682 9.4 7.1982C9.4 6.36958 10.0717 5.69841 10.9 5.69841ZM2 18.3344L6.42788 8.48245C6.42788 8.48245 6.7146 9.54165 6.87184 9.81243C6.96049 9.96379 10.0339 13.8134 10.0339 13.8134L4.7322 19.6845L2 22V18.3344Z" fill="#D0D5DA"/>
<mask id="mask0" mask-type="alpha" maskUnits="userSpaceOnUse" x="2" y="0" width="19" height="22">
<path fill-rule="evenodd" clip-rule="evenodd" d="M20.0119 22V18.3956C20.0119 18.3956 14.0387 5.59644 13.8936 5.34663C13.4205 4.53336 12.8412 3.98578 12 3.73769V1.02943C12 0.46102 11.573 0 11 0C10.427 0 10 0.46102 10 1.02943V3.75065C9.73865 3.75065 9.2693 3.92422 9.03928 4.05614C7.33905 5.02956 6.79964 7.45393 7.78086 9.13878C7.93885 9.36979 8.87147 10.5113 8.87147 10.5113L16.8288 19.7004L20.0119 22ZM10.9 5.69841C11.7283 5.69841 12.4 6.37 12.4 7.19862C12.4 8.02724 11.7283 8.69841 10.9 8.69841C10.0717 8.69841 9.4 8.02682 9.4 7.1982C9.4 6.36958 10.0717 5.69841 10.9 5.69841ZM2 18.3344L6.42788 8.48245C6.42788 8.48245 6.7146 9.54165 6.87184 9.81243C6.96049 9.96379 10.0339 13.8134 10.0339 13.8134L4.7322 19.6845L2 22V18.3344Z" fill="white"/>
</mask>
<g mask="url(#mask0)">
<rect width="22" height="22" fill="#D0D5DA"/>
</g>
</svg>
