<svg width="16" height="17" viewBox="0 0 16 17" fill="none" xmlns="http://www.w3.org/2000/svg">
<g clip-path="url(#clip0)">
<path fill-rule="evenodd" clip-rule="evenodd" d="M14 8.99609C15.1046 8.99609 16 9.89152 16 10.9961L16 14.9961C16 16.1007 15.1046 16.9961 14 16.9961L2 16.9961C0.895431 16.9961 -7.82809e-08 16.1007 -1.74845e-07 14.9961L-5.24537e-07 10.9961C-6.21101e-07 9.89153 0.89543 8.9961 2 8.9961L14 8.99609ZM13 10.9961C13.5523 10.9961 14 11.4438 14 11.9961L14 13.9961C14 14.5484 13.5523 14.9961 13 14.9961L3 14.9961C2.44771 14.9961 2 14.5484 2 13.9961L2 11.9961C2 11.4438 2.44771 10.9961 3 10.9961L13 10.9961ZM-1.22392e-06 2.9961C-1.32048e-06 1.89153 0.895429 0.996097 2 0.996097L6 0.996096C7.10457 0.996095 8 1.89153 8 2.9961L8 7.9961L1.66869e-07 7.9961L-1.22392e-06 2.9961ZM10.7192 4.99683C10.4527 4.99683 10.3185 5.31842 10.506 5.50785L12.7581 7.78358C12.8747 7.90135 13.0646 7.90234 13.1824 7.78578L15.4817 5.51005C15.6722 5.32151 15.5387 4.99683 15.2707 4.99683L14.3002 4.99683C14.1345 4.99683 14.0002 4.86251 14.0002 4.69683L14.0002 2.99599C14.0002 1.89143 13.1048 0.995995 12.0002 0.995995L10.5002 0.995995C10.2241 0.995995 10.0002 1.21985 10.0002 1.496L10.0002 2.496C10.0002 2.77214 10.2241 2.996 10.5002 2.996L11.5002 2.996C11.7764 2.996 12.0002 3.21985 12.0002 3.496L12.0002 4.69683C12.0002 4.86251 11.8659 4.99683 11.7002 4.99683L10.7192 4.99683Z" fill="white"/>
</g>
<defs>
<clipPath id="clip0">
<rect width="16" height="16" fill="white" transform="translate(16 16.9961) rotate(180)"/>
</clipPath>
</defs>
</svg>
