<svg width="16" height="17" viewBox="0 0 16 17" fill="none" xmlns="http://www.w3.org/2000/svg">
<g clip-path="url(#clip0)">
<path fill-rule="evenodd" clip-rule="evenodd" d="M2 8.99609C0.895429 8.99609 -1.8633e-06 9.89152 -1.57361e-06 10.9961L-5.24533e-07 14.9961C-2.34839e-07 16.1007 0.895431 16.9961 2 16.9961L14 16.9961C15.1046 16.9961 16 16.1007 16 14.9961L16 10.9961C16 9.89152 15.1046 8.99609 14 8.99609L2 8.99609ZM3 10.9961C2.44771 10.9961 2 11.4438 2 11.9961L2 13.9961C2 14.5484 2.44771 14.9961 3 14.9961L13 14.9961C13.5523 14.9961 14 14.5484 14 13.9961L14 11.9961C14 11.4438 13.5523 10.9961 13 10.9961L3 10.9961ZM16 2.99609C16 1.89152 15.1046 0.996092 14 0.996092L10 0.996092C8.89543 0.996092 8 1.89152 8 2.99609L8 7.99609L16 7.99609L16 2.99609ZM4.85206 4.99683C5.11858 4.99683 5.25277 5.31842 5.06529 5.50785L2.81315 7.78358C2.6966 7.90135 2.50664 7.90234 2.38888 7.78578L0.0895633 5.51005C-0.100928 5.32151 0.0325814 4.99683 0.300599 4.99683L1.27106 4.99683C1.43675 4.99683 1.57106 4.86251 1.57106 4.69683L1.57106 2.99599C1.57106 1.89142 2.46649 0.995994 3.57106 0.995994L5.07106 0.995993C5.34721 0.995993 5.57106 1.21985 5.57106 1.49599L5.57106 2.49599C5.57106 2.77214 5.34721 2.99599 5.07106 2.99599L4.07106 2.99599C3.79492 2.99599 3.57106 3.21985 3.57106 3.49599L3.57106 4.69683C3.57106 4.86251 3.70538 4.99683 3.87106 4.99683L4.85206 4.99683Z" fill="white"/>
</g>
<defs>
<clipPath id="clip0">
<rect width="16" height="16" fill="white" transform="translate(16 16.9961) rotate(180)"/>
</clipPath>
</defs>
</svg>
