<svg width="16" height="16" viewBox="0 0 16 16" fill="none" xmlns="http://www.w3.org/2000/svg">
<path fill-rule="evenodd" clip-rule="evenodd" d="M10.544 1.22742C13.552 3.35708 14.2644 7.52226 12.1342 10.5302L15.2311 13.591C15.2489 13.6077 15.2652 13.624 15.282 13.6418C15.8127 14.2011 15.7903 15.085 15.2311 15.6158C14.6718 16.1471 13.7879 16.1247 13.2566 15.5654L10.0819 12.4202C7.81741 13.7576 4.97888 13.6405 2.83191 12.1205C-0.176583 9.99084 -0.888505 5.82617 1.24116 2.81818C3.37082 -0.190316 7.536 -0.902238 10.544 1.22742ZM2.37798 6.68418C2.37951 9.06115 4.30663 10.9868 6.68361 10.9862H6.68666C9.06466 10.9822 10.9892 9.052 10.9852 6.67451C10.9806 4.30059 9.05448 2.37804 6.68056 2.37906C4.30307 2.38008 2.37747 4.3072 2.37798 6.68418Z" fill="#D0D5DA"/>
</svg>
