<svg width="22" height="22" viewBox="0 0 22 22" fill="none" xmlns="http://www.w3.org/2000/svg">
<path fill-rule="evenodd" clip-rule="evenodd" d="M19.0157 9.03452L21.195 9.39809C21.6596 9.47462 21.9993 9.87612 22 10.3474V11.6525C22 12.1238 21.6603 12.5253 21.1957 12.6018L19.0165 12.9657C18.815 13.7902 18.4894 14.5636 18.0612 15.2692L19.3756 17.1122C19.6515 17.4949 19.6065 18.0193 19.2743 18.3517L18.3512 19.2748C18.0181 19.6085 17.4931 19.6515 17.1118 19.3776L15.2655 18.0589C14.5632 18.4826 13.7966 18.8042 12.9788 19.0042L12.6136 21.1956C12.5371 21.6596 12.1356 22 11.6643 22H10.3582C9.88785 22 9.48506 21.6596 9.41023 21.1956L9.04363 19.0042C8.07249 18.7659 7.1675 18.3637 6.36754 17.8166L4.47697 19.0042C4.07951 19.2547 3.55822 19.1815 3.24402 18.8283L2.37794 17.8528C2.06512 17.5003 2.05269 16.974 2.34841 16.6087L3.73717 14.8886C3.41592 14.2904 3.17422 13.6453 3.00773 12.9698L0.804278 12.6019C0.341064 12.5254 0 12.1239 0 11.6526V10.3474C0 9.87612 0.341064 9.47462 0.804278 9.39811L3.00773 9.03018C3.21046 8.20937 3.53438 7.43731 3.96138 6.73405L2.69352 4.95818C2.41991 4.57618 2.46258 4.05149 2.79522 3.71813L3.71799 2.79467C4.05134 2.46201 4.57601 2.41934 4.95801 2.69225L6.73043 3.95721C7.43902 3.52614 8.21548 3.19884 9.04363 2.99608L9.41023 0.804351C9.48504 0.340411 9.88785 0 10.3582 0H11.6643C12.1356 0 12.5371 0.340411 12.6136 0.804351L12.9782 2.99539C13.9798 3.24081 14.9084 3.66374 15.7281 4.23648L17.5918 3.06488C17.9892 2.81379 18.5102 2.88834 18.8244 3.2408L19.6911 4.21629C20.004 4.56913 20.0175 5.09514 19.7207 5.46072L18.3256 7.19057C18.6264 7.76792 18.8573 8.38694 19.0157 9.03452ZM6.90967 11C6.90967 13.2774 8.75692 15.125 11.0345 15.125C13.3118 15.125 15.1594 13.2774 15.1594 11C15.1594 8.72232 13.3118 6.87501 11.0345 6.87501C8.75692 6.87501 6.90967 8.72232 6.90967 11Z" fill="#ECEEF1"/>
<mask id="mask0" mask-type="alpha" maskUnits="userSpaceOnUse" x="0" y="0" width="22" height="22">
<path fill-rule="evenodd" clip-rule="evenodd" d="M19.0157 9.03452L21.195 9.39809C21.6596 9.47462 21.9993 9.87612 22 10.3474V11.6525C22 12.1238 21.6603 12.5253 21.1957 12.6018L19.0165 12.9657C18.815 13.7902 18.4894 14.5636 18.0612 15.2692L19.3756 17.1122C19.6515 17.4949 19.6065 18.0193 19.2743 18.3517L18.3512 19.2748C18.0181 19.6085 17.4931 19.6515 17.1118 19.3776L15.2655 18.0589C14.5632 18.4826 13.7966 18.8042 12.9788 19.0042L12.6136 21.1956C12.5371 21.6596 12.1356 22 11.6643 22H10.3582C9.88785 22 9.48506 21.6596 9.41023 21.1956L9.04363 19.0042C8.07249 18.7659 7.1675 18.3637 6.36754 17.8166L4.47697 19.0042C4.07951 19.2547 3.55822 19.1815 3.24402 18.8283L2.37794 17.8528C2.06512 17.5003 2.05269 16.974 2.34841 16.6087L3.73717 14.8886C3.41592 14.2904 3.17422 13.6453 3.00773 12.9698L0.804278 12.6019C0.341064 12.5254 0 12.1239 0 11.6526V10.3474C0 9.87612 0.341064 9.47462 0.804278 9.39811L3.00773 9.03018C3.21046 8.20937 3.53438 7.43731 3.96138 6.73405L2.69352 4.95818C2.41991 4.57618 2.46258 4.05149 2.79522 3.71813L3.71799 2.79467C4.05134 2.46201 4.57601 2.41934 4.95801 2.69225L6.73043 3.95721C7.43902 3.52614 8.21548 3.19884 9.04363 2.99608L9.41023 0.804351C9.48504 0.340411 9.88785 0 10.3582 0H11.6643C12.1356 0 12.5371 0.340411 12.6136 0.804351L12.9782 2.99539C13.9798 3.24081 14.9084 3.66374 15.7281 4.23648L17.5918 3.06488C17.9892 2.81379 18.5102 2.88834 18.8244 3.2408L19.6911 4.21629C20.004 4.56913 20.0175 5.09514 19.7207 5.46072L18.3256 7.19057C18.6264 7.76792 18.8573 8.38694 19.0157 9.03452ZM6.90967 11C6.90967 13.2774 8.75692 15.125 11.0345 15.125C13.3118 15.125 15.1594 13.2774 15.1594 11C15.1594 8.72232 13.3118 6.87501 11.0345 6.87501C8.75692 6.87501 6.90967 8.72232 6.90967 11Z" fill="white"/>
</mask>
<g mask="url(#mask0)">
<rect width="22" height="22" fill="#D0D5DA"/>
</g>
</svg>
