<svg width="17" height="16" viewBox="0 0 17 16" fill="none" xmlns="http://www.w3.org/2000/svg">
<path fill-rule="evenodd" clip-rule="evenodd" d="M2.0918 0C0.987227 0 0.0917969 0.895431 0.0917969 2V14C0.0917969 15.1046 0.987227 16 2.0918 16H14.0918C15.1964 16 16.0918 15.1046 16.0918 14V2C16.0918 0.895431 15.1964 0 14.0918 0H2.0918ZM7.0918 13.0022C4.24507 13.0022 2.0918 10.7857 2.0918 8C2.0918 5.21432 4.35457 3 7.2013 3C8.58818 3 9.75605 3.49999 10.6319 4.35716L9.17029 5.81419C8.80533 5.45706 8.12995 4.99276 7.10802 4.99276C5.35624 4.99276 4.10516 6.28571 4.10516 8C4.10516 9.71429 5.34001 11.0025 7.0918 11.0025C9.13561 11.0025 9.94818 9.71429 10.0942 8.99998H7.10802V6.99738H12.0918V8.14286C12.0918 10.7857 10.0115 13.0022 7.0918 13.0022ZM15.0931 4.99984H14.0928V6.00175H13.0889V4.99984H12.0918V3.99824H13.0889V3H14.0928V3.99824H15.0931V4.99984Z" fill="#A3A9AE"/>
</svg>
