<svg width="18" height="16" viewBox="0 0 18 16" fill="none" xmlns="http://www.w3.org/2000/svg">
<path d="M9.23442 13.6389C9.0878 13.5611 8.91209 13.5611 8.76546 13.6389L4.43263 15.9395C4.05995 16.1374 3.62484 15.8131 3.70794 15.3994L4.66116 10.6541C4.69316 10.4948 4.64578 10.3299 4.53413 10.212L1.11339 6.59703C0.829893 6.29744 1.01062 5.80279 1.42048 5.75653L6.06754 5.23199C6.24266 5.21223 6.39445 5.10172 6.46705 4.94114L8.54435 0.346625C8.72159 -0.0453924 9.2783 -0.0453909 9.45554 0.346626L11.5328 4.94114C11.6054 5.10172 11.7572 5.21223 11.9324 5.23199L16.5794 5.75653C16.9893 5.80279 17.17 6.29744 16.8865 6.59703L13.4658 10.212C13.3541 10.3299 13.3067 10.4948 13.3387 10.6541L14.292 15.3994C14.3751 15.8131 13.94 16.1374 13.5673 15.9395L9.23442 13.6389Z" fill="#EDC409"/>
</svg>
