<svg width="17" height="17" viewBox="0 0 17 17" fill="none" xmlns="http://www.w3.org/2000/svg">
<path fill-rule="evenodd" clip-rule="evenodd" d="M8.98285 14.1443C8.54298 14.6534 7.85799 14.9663 7.11735 14.9974C6.37671 15.0288 5.65939 14.7743 5.16312 14.3043L0.622949 9.09033C-0.0838516 8.42192 -0.337907 7.37768 0.662374 6.48964C1.66265 5.6016 2.4876 5.91195 3.1944 6.58068L6.93351 10.7103C6.98013 10.7545 7.0478 10.7783 7.11735 10.7754C7.18728 10.7725 7.25119 10.7427 7.29292 10.6952L13.8438 2.49345C14.4698 1.76893 15.3391 1.90564 16.1524 2.49345C16.9716 3.08547 17.2992 3.99566 16.6729 4.71985L8.98285 14.1443Z" fill="#A3A9AE"/>
</svg>
