<?xml version="1.0" encoding="UTF-8"?>
<svg width="24px" height="24px" viewBox="0 0 24 24" version="1.1" xmlns="http://www.w3.org/2000/svg" xmlns:xlink="http://www.w3.org/1999/xlink">
    <g transform="rotate(-90 12.000000000000002,12.4131498336792) " fill-rule="evenodd">
	   <g fill="#000000">
		<g>
		 <g>
		  <path id="shape" d="m20.66587,7.40533c-0.2225,-0.23584 -0.48626,-0.35366 -0.79102,-0.35366l-15.74977,0c-0.30488,0 -0.56845,0.11782 -0.79114,0.35366c-0.22269,0.23609 -0.33394,0.51522 -0.33394,0.83791c0,0.32262 0.11125,0.60175 0.33394,0.83765l7.87492,8.33982c0.22293,0.23584 0.4865,0.35392 0.79114,0.35392c0.30464,0 0.56845,-0.11808 0.79096,-0.35392l7.87491,-8.33988c0.22245,-0.23584 0.33413,-0.51497 0.33413,-0.83766c0,-0.32262 -0.11168,-0.60175 -0.33413,-0.83784l0,0z"/>
		 </g>
		</g>
	   </g>
	</g>
</svg>
