<?xml version="1.0" encoding="UTF-8"?>
<svg width="24px" height="24px" viewBox="0 0 24 24" version="1.1" xmlns="http://www.w3.org/2000/svg" xmlns:xlink="http://www.w3.org/1999/xlink">
    <g stroke="none" stroke-width="1" fill-rule="evenodd">
        <g transform="translate(-168.000000, -936.000000)" fill="#000000">
            <g transform="translate(24.000000, 888.000000)">
                <g transform="translate(144.000000, 48.000000)">
                    <path d="M20.6658731,7.4053255 C20.4433682,7.16948908 20.1796129,7.05166867 19.8748538,7.05166867 L4.12508466,7.05166867 C3.82020235,7.05166867 3.55663185,7.16948908 3.33394217,7.4053255 C3.11125249,7.64142273 3,7.92055342 3,8.24323919 C3,8.56585976 3.11125249,8.84499045 3.33394217,9.08089208 L11.2088575,17.4207121 C11.4317935,17.6565485 11.695364,17.7746297 12,17.7746297 C12.304636,17.7746297 12.5684528,17.6565485 12.7909578,17.4207121 L20.6658731,9.08082687 C20.8883165,8.84499045 21,8.56585976 21,8.24317399 C21,7.92055342 20.8883165,7.64142273 20.6658731,7.4053255 L20.6658731,7.4053255 Z" id="shape"></path>
                </g>
            </g>
        </g>
    </g>
</svg>