<svg width="17" height="17" viewBox="0 0 17 17" fill="none" xmlns="http://www.w3.org/2000/svg">
<path fill-rule="evenodd" clip-rule="evenodd" d="M17 2.5C17 3.88071 15.8807 5 14.5 5C13.1193 5 12 3.88071 12 2.5C12 1.11929 13.1193 0 14.5 0C15.8807 0 17 1.11929 17 2.5ZM14.5 11C15.8807 11 17 9.88071 17 8.5C17 7.11929 15.8807 6 14.5 6C13.1193 6 12 7.11929 12 8.5C12 9.88071 13.1193 11 14.5 11ZM14.5 17C15.8807 17 17 15.8807 17 14.5C17 13.1193 15.8807 12 14.5 12C13.1193 12 12 13.1193 12 14.5C12 15.8807 13.1193 17 14.5 17Z" fill="#A3A9AE"/>
</svg>
