<svg width="16" height="16" viewBox="0 0 16 16" fill="none" xmlns="http://www.w3.org/2000/svg">
<g clip-path="url(#clip0_18889_63322)">
<path fill-rule="evenodd" clip-rule="evenodd" d="M8.9285 0.629586C8.77663 0.249928 8.40892 0.000976562 8.00002 0.000976562C7.59111 0.000976562 7.22341 0.249928 7.07154 0.629586L5.44293 4.70111L1.37141 3.0725C0.985924 2.91831 0.545259 3.01834 0.264136 3.32387C-0.0169859 3.62939 -0.0800827 4.07684 0.105592 4.44819L2.10559 8.44819L3.89445 7.55376L3.07071 5.90628L5.62863 6.92945C6.14141 7.13457 6.72338 6.88515 6.9285 6.37237L8.00002 3.69356L9.07154 6.37237C9.27666 6.88515 9.85863 7.13457 10.3714 6.92945L12.9293 5.90628L12.1056 7.55376L13.8944 8.44819L15.8944 4.44819C16.0801 4.07684 16.017 3.62939 15.7359 3.32387C15.4548 3.01834 15.0141 2.91831 14.6286 3.0725L10.5571 4.70111L8.9285 0.629586ZM3.00002 13.001V14.001C3.00002 15.1055 3.89545 16.001 5.00002 16.001H11C12.1046 16.001 13 15.1055 13 14.001V13.001H11V14.001H5.00002V13.001H3.00002ZM4.00002 12.001C4.5523 12.001 5.00002 11.3294 5.00002 10.501C5.00002 9.67255 4.5523 9.00098 4.00002 9.00098C3.44773 9.00098 3.00002 9.67255 3.00002 10.501C3.00002 11.3294 3.44773 12.001 4.00002 12.001ZM9.50002 10.501C9.50002 11.8817 8.82845 13.001 8.00002 13.001C7.17159 13.001 6.50002 11.8817 6.50002 10.501C6.50002 9.12027 7.17159 8.00098 8.00002 8.00098C8.82845 8.00098 9.50002 9.12027 9.50002 10.501ZM12 12.001C12.5523 12.001 13 11.3294 13 10.501C13 9.67255 12.5523 9.00098 12 9.00098C11.4477 9.00098 11 9.67255 11 10.501C11 11.3294 11.4477 12.001 12 12.001Z" fill="#333333"/>
</g>
<defs>
<clipPath id="clip0_18889_63322">
<rect width="16" height="16" fill="white"/>
</clipPath>
</defs>
</svg>
