<svg width="16" height="16" viewBox="0 0 16 16" fill="none" xmlns="http://www.w3.org/2000/svg">
<path fill-rule="evenodd" clip-rule="evenodd" d="M4.49952 10.4663C3.47193 9.6138 2.66403 8.61284 2.21523 8C2.66402 7.38716 3.47193 6.3862 4.49952 5.53367C5.58351 4.63435 6.79128 4 8.00001 4C9.20874 4 10.4165 4.63435 11.5005 5.53367C12.5281 6.3862 13.336 7.38716 13.7848 8C13.336 8.61284 12.5281 9.6138 11.5005 10.4663C10.4165 11.3656 9.20874 12 8.00001 12C6.79128 12 5.58351 11.3656 4.49952 10.4663ZM8.00001 2C6.1116 2 4.45712 2.97015 3.22251 3.99443C1.97234 5.03163 1.02832 6.22746 0.542514 6.8996C0.0652547 7.55992 0.0652569 8.44008 0.542514 9.1004C1.02832 9.77254 1.97234 10.9684 3.22251 12.0056C4.45713 13.0298 6.1116 14 8.00001 14C9.88842 14 11.5429 13.0298 12.7775 12.0056C14.0277 10.9684 14.9717 9.77254 15.4575 9.1004C15.9348 8.44008 15.9348 7.55992 15.4575 6.8996C14.9717 6.22746 14.0277 5.03163 12.7775 3.99443C11.5429 2.97015 9.88842 2 8.00001 2ZM8.00001 6C6.89544 6 6.00001 6.89543 6.00001 8C6.00001 9.10457 6.89544 10 8.00001 10C9.10458 10 10 9.10457 10 8C10 6.89543 9.10458 6 8.00001 6Z" fill="#333333"/>
</svg>
