<svg width="96" height="96" viewBox="0 0 96 96" fill="none" xmlns="http://www.w3.org/2000/svg">
<g clip-path="url(#clip0)">
<path d="M10 1H57L86 30V95H10V1Z" fill="white"/>
<path fill-rule="evenodd" clip-rule="evenodd" d="M10 95H86V30L57 1H10V95ZM57 0H9.00002V96H87V30L57 0Z" fill="#BFBFBF"/>
<path d="M37.8027 69.377L40.0713 75.4863H35.5791L37.8027 69.377Z" fill="#07B5AF"/>
<path fill-rule="evenodd" clip-rule="evenodd" d="M23 58C21.3431 58 20 59.3431 20 61V86C20 87.6569 21.3431 89 23 89H73C74.6569 89 76 87.6569 76 86V61C76 59.3431 74.6569 58 73 58H23ZM42.5757 82H46.1919L39.5996 65.5361H36.0845L29.6719 82H33.1982L34.5571 78.2603H41.1382L42.5757 82ZM44.5747 65.5361L50.4595 82H54.0083L59.9043 65.5361H56.3779L52.3462 77.7212L48.1797 65.5361H44.5747ZM61.499 65.5361V82H64.8232V65.5361H61.499Z" fill="#07B5AF"/>
<path fill-rule="evenodd" clip-rule="evenodd" d="M57 11H20V16H25V21H20V40H25V45H20V50H76V29H57V11ZM35 16H30V21H35V16ZM30 40H35V45H30V40ZM45 16H40V21H45V16ZM40 40H45V45H40V40ZM55 16H50V21H55V16ZM50 40H55V45H50V40ZM60 40H65V45H60V40ZM70 40H75V45H70V40Z" fill="#BFBFBF"/>
<path opacity="0.3" d="M56 30V1H57V29H86L87 30H56Z" fill="black"/>
</g>
<defs>
<clipPath id="clip0">
<rect width="96" height="96" fill="white"/>
</clipPath>
</defs>
</svg>
