<svg width="96" height="96" viewBox="0 0 96 96" fill="none" xmlns="http://www.w3.org/2000/svg">
<g clip-path="url(#clip0)">
<path d="M10 1H57L86 30V95H10V1Z" fill="white"/>
<path fill-rule="evenodd" clip-rule="evenodd" d="M10 95H86V30L57 1H10V95ZM57 0H9.00002V96H87V30L57 0Z" fill="#BFBFBF"/>
<path d="M27.2012 79.2261V68.3213H28.6948C30.05 68.3213 30.9596 68.3737 31.4238 68.4785C32.0452 68.6133 32.5581 68.8716 32.9624 69.2534C33.3667 69.6353 33.6812 70.1668 33.9058 70.8481C34.1304 71.5295 34.2427 72.5065 34.2427 73.7793C34.2427 75.0521 34.1304 76.0591 33.9058 76.8003C33.6812 77.534 33.3892 78.0619 33.0298 78.3838C32.6779 78.7057 32.2324 78.9341 31.6934 79.0688C31.2816 79.1737 30.6115 79.2261 29.6831 79.2261H27.2012Z" fill="#BC8C18"/>
<path fill-rule="evenodd" clip-rule="evenodd" d="M23 58C21.3431 58 20 59.3431 20 61V86C20 87.6569 21.3431 89 23 89H73C74.6569 89 76 87.6569 76 86V61C76 59.3431 74.6569 58 73 58H23ZM29.9526 65.5361H23.877V82H30.1323C31.3602 82 32.341 81.8839 33.0747 81.6519C34.0555 81.3374 34.8341 80.8994 35.4106 80.3379C36.1743 79.5967 36.762 78.6271 37.1738 77.4292C37.5107 76.4484 37.6792 75.2804 37.6792 73.9253C37.6792 72.383 37.4995 71.0877 37.1401 70.0396C36.7808 68.9839 36.2567 68.0929 35.5679 67.3667C34.8791 66.6405 34.0518 66.1351 33.0859 65.8506C32.3672 65.641 31.3228 65.5361 29.9526 65.5361ZM40.4194 65.5361V68.4561H43.5752V65.5361H40.4194ZM43.5752 81.6294V70.0732H40.4194V81.4497C40.4194 82.423 40.3857 83.007 40.3184 83.2017C40.251 83.3963 40.1125 83.561 39.9028 83.6958C39.7007 83.8381 39.4386 83.9092 39.1167 83.9092C39.0044 83.9092 38.8846 83.8979 38.7573 83.8755C38.6226 83.8605 38.4803 83.8381 38.3306 83.8081L37.7803 86.5034C38.1995 86.6157 38.5889 86.6981 38.9482 86.7505C39.3151 86.8104 39.6558 86.8403 39.9702 86.8403C40.8462 86.8403 41.5649 86.6644 42.1265 86.3125C42.6955 85.9606 43.0773 85.4702 43.272 84.8413C43.4741 84.2199 43.5752 83.1493 43.5752 81.6294ZM45.2261 65.5361L51.1108 82H54.6597L60.5557 65.5361H57.0293L52.9976 77.7212L48.8311 65.5361H45.2261ZM69.2256 80.2144V82H72.1567V70.0732H69.001V75.1045C69.001 76.8115 68.9224 77.8859 68.7651 78.3276C68.6079 78.7619 68.3159 79.1287 67.8892 79.4282C67.4624 79.7202 66.9795 79.8662 66.4404 79.8662C65.9688 79.8662 65.5794 79.7577 65.2725 79.5405C64.9655 79.3159 64.7521 79.0164 64.6323 78.6421C64.52 78.2603 64.4639 77.2308 64.4639 75.5537V70.0732H61.3081V77.6201C61.3081 78.7432 61.4504 79.6229 61.7349 80.2593C62.0194 80.8957 62.4798 81.3898 63.1162 81.7417C63.7526 82.0936 64.4714 82.2695 65.2725 82.2695C66.0586 82.2695 66.8036 82.0861 67.5073 81.7192C68.2186 81.3524 68.7913 80.8507 69.2256 80.2144Z" fill="#BC8C18"/>
<path d="M57 11H20V50H76V29H73V47H23V14H57V11Z" fill="#C4C4C4"/>
<path d="M57 17H39V29H26V35H32V38H26V44H65V41H71V35H49V32H70V29H57V17Z" fill="#C4C4C4"/>
<path d="M35 17H26V26H35V17Z" fill="#C4C4C4"/>
<path opacity="0.3" d="M56 30V1H57V29H86L87 30H56Z" fill="black"/>
</g>
<defs>
<clipPath id="clip0">
<rect width="96" height="96" fill="white"/>
</clipPath>
</defs>
</svg>
