<svg width="96" height="96" viewBox="0 0 96 96" fill="none" xmlns="http://www.w3.org/2000/svg">
<g clip-path="url(#clip0)">
<path d="M10 1H57L86 30V95H10V1Z" fill="white"/>
<path d="M38.4218 76.8701C37.7479 76.1143 37.411 75.0068 37.411 73.5479C37.411 72.0654 37.7392 70.958 38.3954 70.2256C39.0517 69.4873 39.9159 69.1182 40.9882 69.1182C42.0604 69.1182 42.9188 69.4814 43.5634 70.208C44.2138 70.9346 44.539 72.0361 44.539 73.5127C44.539 75.0068 44.205 76.1289 43.537 76.8789C42.8749 77.623 42.0253 77.9951 40.9882 77.9951C39.9511 77.9951 39.0956 77.6201 38.4218 76.8701Z" fill="#1E7AAA"/>
<path d="M25.7427 77.8281V69.2939H26.9116C27.9722 69.2939 28.6841 69.335 29.0474 69.417C29.5337 69.5225 29.9351 69.7246 30.2515 70.0234C30.5679 70.3223 30.814 70.7383 30.9897 71.2715C31.1655 71.8047 31.2534 72.5693 31.2534 73.5654C31.2534 74.5615 31.1655 75.3496 30.9897 75.9297C30.814 76.5039 30.5854 76.917 30.3042 77.1689C30.0288 77.4209 29.6802 77.5996 29.2583 77.7051C28.936 77.7871 28.4116 77.8281 27.6851 77.8281H25.7427Z" fill="#1E7AAA"/>
<path fill-rule="evenodd" clip-rule="evenodd" d="M23 58C21.3433 58 20 59.3438 20 61V86C20 87.6562 21.3433 89 23 89H73C74.6567 89 76 87.6562 76 86V61C76 59.3438 74.6567 58 73 58H23ZM35.3192 70.3311C34.9267 71.2217 34.7304 72.3232 34.7304 73.6357C34.7304 75.6865 35.2958 77.2979 36.4267 78.4697C37.5575 79.6357 39.081 80.2188 40.997 80.2188C42.8895 80.2188 44.4013 79.6328 45.5321 78.4609C46.663 77.2832 47.2284 75.6543 47.2284 73.5742C47.2284 71.4766 46.6571 69.8389 45.5145 68.6611C44.3778 67.4834 42.8603 66.8945 40.9618 66.8945C39.913 66.8945 38.9872 67.0645 38.1845 67.4043C37.581 67.6562 37.0243 68.043 36.5145 68.5645C36.0106 69.0859 35.6122 69.6748 35.3192 70.3311ZM27.896 67.1143H23.1411V79.999H28.0366C28.9976 79.999 29.7651 79.9082 30.3394 79.7266C31.1069 79.4805 31.7163 79.1377 32.1675 78.6982C32.7651 78.1182 33.2251 77.3594 33.5474 76.4219C33.811 75.6543 33.9429 74.7402 33.9429 73.6797C33.9429 72.4727 33.8022 71.459 33.521 70.6387C33.2397 69.8125 32.8296 69.1152 32.2905 68.5469C31.7515 67.9785 31.104 67.583 30.3481 67.3604C29.7856 67.1963 28.9683 67.1143 27.896 67.1143ZM56.6116 75.2617L59.1341 76.0615C58.7474 77.4678 58.1028 78.5137 57.2005 79.1992C56.304 79.8789 55.1644 80.2188 53.7815 80.2188C52.0706 80.2188 50.6644 79.6357 49.5628 78.4697C48.4612 77.2979 47.9104 75.6982 47.9104 73.6709C47.9104 71.5264 48.4642 69.8623 49.5716 68.6787C50.679 67.4893 52.1351 66.8945 53.9398 66.8945C55.5159 66.8945 56.7962 67.3604 57.7806 68.292C58.3665 68.8428 58.806 69.6338 59.0989 70.665L56.5237 71.2803C56.3714 70.6123 56.0521 70.085 55.5657 69.6982C55.0853 69.3115 54.4993 69.1182 53.8079 69.1182C52.8528 69.1182 52.0765 69.4609 51.4788 70.1465C50.887 70.832 50.5911 71.9424 50.5911 73.4775C50.5911 75.1064 50.8841 76.2666 51.47 76.958C52.056 77.6494 52.8177 77.9951 53.7552 77.9951C54.4466 77.9951 55.0413 77.7754 55.5394 77.3359C56.0374 76.8965 56.3948 76.2051 56.6116 75.2617ZM60.4401 67.1143V79.999H62.8571V69.8564L65.406 79.999H67.9108L70.4685 69.8564V79.999H72.8855V67.1143H68.9831L66.6716 75.9033L64.3337 67.1143H60.4401Z" fill="#1E7AAA"/>
<path d="M57 11H20V18H57V11Z" fill="#BFBFBF"/>
<path d="M57 22H20V29H57V22Z" fill="#BFBFBF"/>
<path d="M20 33H76V40H20V33Z" fill="#BFBFBF"/>
<path d="M20 44H76V51H20V44Z" fill="#BFBFBF"/>
<path opacity="0.3" d="M56 30V1H57V29H86L87 30H56Z" fill="black"/>
</g>
<defs>
<clipPath id="clip0">
<rect width="96" height="96" fill="white"/>
</clipPath>
</defs>
</svg>
