<svg width="96" height="96" viewBox="0 0 96 96" fill="none" xmlns="http://www.w3.org/2000/svg">
<g clip-path="url(#clip0)">
<path d="M10 1H57L86 30V95H10V1Z" fill="white"/>
<path fill-rule="evenodd" clip-rule="evenodd" d="M10 95H86V30L57 0.999969H10V95ZM57 -3.05176e-05H9.00002V96H87V30L57 -3.05176e-05Z" fill="#BFBFBF"/>
<path d="M24.9297 78.5879V69.1055H26.2285C27.4069 69.1055 28.1979 69.151 28.6016 69.2422C29.1419 69.3594 29.5879 69.584 29.9395 69.916C30.291 70.248 30.5645 70.7103 30.7598 71.3027C30.9551 71.8952 31.0527 72.7448 31.0527 73.8516C31.0527 74.9583 30.9551 75.834 30.7598 76.4785C30.5645 77.1165 30.3105 77.5755 29.998 77.8555C29.6921 78.1354 29.3047 78.334 28.8359 78.4512C28.4779 78.5423 27.8952 78.5879 27.0879 78.5879H24.9297Z" fill="#1E7AAA"/>
<path d="M39.0176 77.5234C38.2689 76.6836 37.8945 75.4531 37.8945 73.832C37.8945 72.1849 38.2591 70.9544 38.9883 70.1406C39.7174 69.3203 40.6777 68.9102 41.8691 68.9102C43.0605 68.9102 44.0143 69.3138 44.7305 70.1211C45.4531 70.9284 45.8145 72.1523 45.8145 73.793C45.8145 75.4531 45.4434 76.6999 44.7012 77.5332C43.9655 78.36 43.0215 78.7734 41.8691 78.7734C40.7168 78.7734 39.7663 78.3568 39.0176 77.5234Z" fill="#1E7AAA"/>
<path fill-rule="evenodd" clip-rule="evenodd" d="M23 58C21.3431 58 20 59.3431 20 61V86C20 87.6569 21.3431 89 23 89H73C74.6569 89 76 87.6569 76 86V61C76 59.3431 74.6569 58 73 58H23ZM27.3223 66.6836H22.0391V81H27.4785C28.5462 81 29.3991 80.8991 30.0371 80.6973C30.89 80.4238 31.5671 80.043 32.0684 79.5547C32.7324 78.9102 33.2435 78.0671 33.6016 77.0254C33.8945 76.1725 34.041 75.1569 34.041 73.9785C34.041 72.6374 33.8848 71.5111 33.5723 70.5996C33.2598 69.6816 32.804 68.9069 32.2051 68.2754C31.6061 67.6439 30.8867 67.2044 30.0469 66.957C29.4219 66.7747 28.5137 66.6836 27.3223 66.6836ZM35.5703 70.2578C35.1341 71.2474 34.916 72.4714 34.916 73.9297C34.916 76.2083 35.5443 77.9987 36.8008 79.3008C38.0573 80.5964 39.75 81.2441 41.8789 81.2441C43.9818 81.2441 45.6615 80.5931 46.918 79.291C48.1745 77.9824 48.8027 76.1725 48.8027 73.8613C48.8027 71.5306 48.168 69.7109 46.8984 68.4023C45.6354 67.0938 43.9492 66.4395 41.8398 66.4395C40.6745 66.4395 39.6458 66.6283 38.7539 67.0059C38.0833 67.2858 37.4648 67.7155 36.8984 68.2949C36.3385 68.8744 35.8958 69.5286 35.5703 70.2578ZM62.0312 76.625L59.2285 75.7363C58.9876 76.7845 58.5905 77.5527 58.0371 78.041C57.4837 78.5293 56.8229 78.7734 56.0547 78.7734C55.013 78.7734 54.1667 78.3893 53.5156 77.6211C52.8646 76.8529 52.5391 75.5638 52.5391 73.7539C52.5391 72.0482 52.8678 70.8145 53.5254 70.0527C54.1895 69.291 55.0521 68.9102 56.1133 68.9102C56.8815 68.9102 57.5326 69.125 58.0664 69.5547C58.6068 69.9844 58.9616 70.5703 59.1309 71.3125L61.9922 70.6289C61.6667 69.4831 61.1784 68.6042 60.5273 67.9922C59.4336 66.957 58.0111 66.4395 56.2598 66.4395C54.2546 66.4395 52.6367 67.1003 51.4062 68.4219C50.1758 69.737 49.5605 71.5859 49.5605 73.9688C49.5605 76.2214 50.1725 77.9987 51.3965 79.3008C52.6204 80.5964 54.1829 81.2441 56.084 81.2441C57.6204 81.2441 58.8867 80.8665 59.8828 80.1113C60.8854 79.3496 61.6016 78.1875 62.0312 76.625ZM66.959 73.5293L62.0664 81H65.5332L68.7168 76.0488L71.8906 81H75.377L70.4844 73.6367L74.9375 66.6836H71.5879L68.7754 71.2832L65.9043 66.6836H62.5254L66.959 73.5293Z" fill="#1E7AAA"/>
<path d="M57 11H20V18H57V11Z" fill="#BFBFBF"/>
<path d="M57 22H20V29H57V22Z" fill="#BFBFBF"/>
<path d="M76 33H20V40H76V33Z" fill="#BFBFBF"/>
<path d="M20 44H61V51H20V44Z" fill="#BFBFBF"/>
<path opacity="0.3" d="M56 30V1H57V29H86L87 30H56Z" fill="black"/>
</g>
<defs>
<clipPath id="clip0">
<rect width="96" height="96" fill="white"/>
</clipPath>
</defs>
</svg>
