<svg width="96" height="96" viewBox="0 0 96 96" fill="none" xmlns="http://www.w3.org/2000/svg">
<g id="96X96 / Docf" clip-path="url(#clip0_1467:7569)">
<path id="background" d="M10.25 1H57.25L86.25 30V95H10.25V1Z" fill="white"/>
<path id="shadow" fill-rule="evenodd" clip-rule="evenodd" d="M10.25 95H86.25V30L57.25 1H10.25V95ZM57.25 0H9.25V96H87.25V30L57.25 0Z" fill="url(#paint0_linear_1467:7569)"/>
<rect id="Rectangle 389" x="15.25" y="58" width="66" height="31" rx="2" fill="#007267"/>
<g id="DOCXF">
<path d="M31.8757 73.3879C31.8757 75.5467 31.2742 77.2002 30.0712 78.3483C28.874 79.4965 27.1425 80.25 24.8766 80.25H21.25V66.75H25.2708C27.3615 66.75 28.985 67.5214 30.1413 68.6517C31.2976 69.7819 31.8757 71.3606 31.8757 73.3879ZM29.055 73.4596C29.055 70.643 27.8403 69.2347 25.4109 69.2347H23.9656V77.7743H25.1306C27.7469 77.7743 29.055 76.336 29.055 73.4596Z" fill="white"/>
<path d="M45.0779 73.4955C45.0779 75.6663 44.5523 77.3347 43.5011 78.5008C42.4499 79.6669 40.9432 80.25 38.981 80.25C37.0188 80.25 35.5121 79.6669 34.4609 78.5008C33.4097 77.3347 32.8841 75.6603 32.8841 73.4776C32.8841 71.2949 33.4097 69.6294 34.4609 68.4812C35.5179 67.3271 37.0305 66.75 38.9985 66.75C40.9666 66.75 42.4704 67.3301 43.5099 68.4902C44.5552 69.6503 45.0779 71.3188 45.0779 73.4955ZM35.7311 73.4955C35.7311 74.9606 36.0027 76.064 36.5458 76.8055C37.0889 77.547 37.9006 77.9178 38.981 77.9178C41.1476 77.9178 42.2309 76.4437 42.2309 73.4955C42.2309 70.5414 41.1535 69.0643 38.9985 69.0643C37.9181 69.0643 37.1035 69.438 36.5545 70.1855C36.0056 70.9271 35.7311 72.0304 35.7311 73.4955Z" fill="white"/>
<path d="M52.0956 69.0822C51.0736 69.0822 50.2823 69.4769 49.7217 70.2663C49.161 71.0497 48.8807 72.144 48.8807 73.5493C48.8807 76.4736 49.9523 77.9357 52.0956 77.9357C52.9949 77.9357 54.0841 77.7055 55.363 77.245V79.5772C54.3118 80.0257 53.138 80.25 51.8415 80.25C49.9786 80.25 48.5537 79.6729 47.5667 78.5188C46.5798 77.3586 46.0863 75.6962 46.0863 73.5314C46.0863 72.1679 46.3287 70.9749 46.8134 69.9523C47.2981 68.9238 47.993 68.1374 48.8982 67.5932C49.8093 67.043 50.875 66.7679 52.0956 66.7679C53.3395 66.7679 54.5892 67.0759 55.8448 67.6919L54.9688 69.9523C54.4899 69.7191 54.0081 69.5158 53.5234 69.3424C53.0387 69.1689 52.5628 69.0822 52.0956 69.0822Z" fill="white"/>
<path d="M67.3738 80.0706H64.2728L61.2945 75.1101L58.3161 80.0706H55.4079L59.6564 73.3071L55.6794 66.9563H58.6753L61.4346 71.6746L64.1414 66.9563H67.0672L63.0465 73.4596L67.3738 80.0706Z" fill="white"/>
<path d="M70.2897 80.25H67.75V66.75H75.25V69.2347H70.2897V72.6164H74.9259V74.8859H70.2897V80.25Z" fill="white"/>
</g>
<g id="Group 40457">
<path id="Rectangle 405" d="M17.25 11H56.25V30H80.25V48H17.25V37.8864V35.4858V17.7216V11Z" fill="#F2F2F2"/>
<path id="Rectangle 287 (Stroke)" fill-rule="evenodd" clip-rule="evenodd" d="M81.25 49L16.75 48.9926L18.25 48H80.25V30H56.25V11H17.25V29.8909L16.25 30.9788V10H57.25V29H81.25V49Z" fill="#BFBFBF"/>
</g>
<g id="Group 40456">
<path id="Union" d="M36.0887 20.9231C37.2603 19.7516 39.1598 19.7516 40.3314 20.9231L44.574 25.1658C45.7456 26.3374 45.7456 28.2369 44.574 29.4084L27.604 46.3785L17.7207 47.7217L19.1187 37.8932L36.0887 20.9231Z" fill="#A6A6A6"/>
<path id="Line 32 (Stroke)" fill-rule="evenodd" clip-rule="evenodd" d="M36.0886 29.4084L30.4318 35.0653C28.8697 36.6274 26.6536 36.944 25.482 35.7724L33.9673 27.2871L36.0886 29.4084Z" fill="white"/>
<path id="Line 33 (Stroke)" fill-rule="evenodd" clip-rule="evenodd" d="M40.3312 33.6515L31.846 25.1662L33.9673 23.0449L42.4526 31.5302L40.3312 33.6515Z" fill="white"/>
</g>
<path id="ear shadow" opacity="0.3" d="M56.25 30V1H57.25V29H86.25L87.25 30H56.25Z" fill="black"/>
</g>
<defs>
<linearGradient id="paint0_linear_1467:7569" x1="48.25" y1="0" x2="48.25" y2="96" gradientUnits="userSpaceOnUse">
<stop stop-color="#DADADA"/>
<stop offset="1" stop-color="#828282"/>
</linearGradient>
<clipPath id="clip0_1467:7569">
<rect width="96" height="96" fill="white" transform="translate(0.25)"/>
</clipPath>
</defs>
</svg>
