<svg width="96" height="96" viewBox="0 0 96 96" fill="none" xmlns="http://www.w3.org/2000/svg">
<g id="96X96 / docxf" clip-path="url(#clip0_1583_12694)">
<path id="background" d="M10 1H57L86 30V95H10V1Z" fill="white"/>
<path id="Rectangle 507" d="M20 11H57V29H20V11Z" fill="#F2F2F2"/>
<path id="Rectangle 507 (Stroke)" fill-rule="evenodd" clip-rule="evenodd" d="M57 13H22V27H57V13ZM20 11V29H57V11H20Z" fill="#BFBFBF"/>
<path id="Rectangle 506" d="M21 34H75V50H21V34Z" fill="#F2F2F2" stroke="#BFBFBF" stroke-width="2"/>
<path id="Union" d="M20 61C20 59.3433 21.3433 58 23 58H73C74.6569 58 76 59.3433 76 61V86C76 87.6567 74.6569 89 73 89H23C21.3433 89 20 87.6567 20 86V61Z" fill="#27ABA3"/>
<path id="shadow" fill-rule="evenodd" clip-rule="evenodd" d="M10 95H86V30L57 1H10V95ZM57 0H9V96H87V30L57 0Z" fill="#BFBFBF"/>
<path id="ear shadow" opacity="0.3" d="M56 30V1H57V29H86L87 30H56Z" fill="black"/>
<path id="DOCXF" d="M33.2169 73.1797C33.2169 75.0599 32.6804 76.5 31.6075 77.5C30.5398 78.5 28.9955 79 26.9747 79H23.7403V67.5781H27.3263C29.1908 67.5781 30.6388 68.0703 31.67 69.0547C32.7013 70.0391 33.2169 71.4141 33.2169 73.1797ZM30.7013 73.2422C30.7013 70.7891 29.6179 69.5625 27.4513 69.5625H26.1622V77H27.2013C29.5346 77 30.7013 75.7474 30.7013 73.2422ZM44.9913 73.2734C44.9913 75.1641 44.5225 76.6172 43.585 77.6328C42.6475 78.6484 41.3038 79.1562 39.5538 79.1562C37.8038 79.1562 36.46 78.6484 35.5225 77.6328C34.585 76.6172 34.1163 75.1589 34.1163 73.2578C34.1163 71.3568 34.585 69.9062 35.5225 68.9062C36.4652 67.901 37.8142 67.3984 39.5694 67.3984C41.3246 67.3984 42.6657 67.9036 43.5928 68.9141C44.5251 69.9245 44.9913 71.3776 44.9913 73.2734ZM36.6553 73.2734C36.6553 74.5495 36.8975 75.5104 37.3819 76.1562C37.8663 76.8021 38.5902 77.125 39.5538 77.125C41.486 77.125 42.4522 75.8411 42.4522 73.2734C42.4522 70.7005 41.4913 69.4141 39.5694 69.4141C38.6058 69.4141 37.8793 69.7396 37.3897 70.3906C36.9001 71.0365 36.6553 71.9974 36.6553 73.2734ZM51.25 69.4297C50.3385 69.4297 49.6328 69.7734 49.1328 70.4609C48.6328 71.1432 48.3828 72.0964 48.3828 73.3203C48.3828 75.8672 49.3385 77.1406 51.25 77.1406C52.0521 77.1406 53.0234 76.9401 54.1641 76.5391V78.5703C53.2266 78.9609 52.1797 79.1562 51.0234 79.1562C49.362 79.1562 48.0911 78.6536 47.2109 77.6484C46.3307 76.638 45.8906 75.1901 45.8906 73.3047C45.8906 72.1172 46.1068 71.0781 46.5391 70.1875C46.9714 69.2917 47.5911 68.6068 48.3984 68.1328C49.2109 67.6536 50.1615 67.4141 51.25 67.4141C52.3594 67.4141 53.474 67.6823 54.5938 68.2188L53.8125 70.1875C53.3854 69.9844 52.9557 69.8073 52.5234 69.6562C52.0911 69.5052 51.6667 69.4297 51.25 69.4297ZM64.8759 79H62.1103L59.4541 74.6797L56.7978 79H54.2041L57.9931 73.1094L54.4463 67.5781H57.1181L59.5791 71.6875L61.9931 67.5781H64.6025L61.0166 73.2422L64.8759 79ZM67.7363 79H65.3534V67.5781H71.9003V69.5625H67.7363V72.5078H71.6113V74.4844H67.7363V79Z" fill="white"/>
</g>
<defs>
<clipPath id="clip0_1583_12694">
<rect width="96" height="96" fill="white"/>
</clipPath>
</defs>
</svg>
