<svg width="96" height="96" viewBox="0 0 96 96" fill="none" xmlns="http://www.w3.org/2000/svg">
<g id="96x96 / dotx" clip-path="url(#clip0)">
<path id="background" d="M10 1H57L86 30V95H10V1Z" fill="white"/>
<rect id="Rectangle 1" x="20" y="58" width="56" height="31" rx="3" fill="#1E7AAA"/>
<path id="DOTX" d="M22.8523 66.6836H28.1355C29.327 66.6836 30.2352 66.7747 30.8602 66.957C31.7 67.2044 32.4194 67.6439 33.0184 68.2754C33.6173 68.9069 34.073 69.6816 34.3855 70.5996C34.698 71.5111 34.8543 72.6374 34.8543 73.9785C34.8543 75.1569 34.7078 76.1725 34.4148 77.0254C34.0568 78.0671 33.5457 78.9102 32.8816 79.5547C32.3803 80.043 31.7033 80.4238 30.8504 80.6973C30.2124 80.8991 29.3595 81 28.2918 81H22.8523V66.6836ZM25.743 69.1055V78.5879H27.9012C28.7085 78.5879 29.2911 78.5423 29.6492 78.4512C30.118 78.334 30.5053 78.1354 30.8113 77.8555C31.1238 77.5755 31.3777 77.1165 31.573 76.4785C31.7684 75.834 31.866 74.9583 31.866 73.8516C31.866 72.7448 31.7684 71.8952 31.573 71.3027C31.3777 70.7103 31.1043 70.248 30.7527 69.916C30.4012 69.584 29.9552 69.3594 29.4148 69.2422C29.0112 69.151 28.2202 69.1055 27.0418 69.1055H25.743ZM35.9293 73.9297C35.9293 72.4714 36.1474 71.2474 36.5836 70.2578C36.9091 69.5286 37.3518 68.8743 37.9117 68.2949C38.4781 67.7155 39.0966 67.2858 39.7672 67.0059C40.6591 66.6283 41.6878 66.4395 42.8531 66.4395C44.9625 66.4395 46.6487 67.0938 47.9117 68.4023C49.1813 69.7109 49.816 71.5306 49.816 73.8613C49.816 76.1725 49.1878 77.9824 47.9313 79.291C46.6747 80.5931 44.9951 81.2441 42.8922 81.2441C40.7633 81.2441 39.0706 80.5964 37.8141 79.3008C36.5576 77.9987 35.9293 76.2083 35.9293 73.9297ZM38.9078 73.832C38.9078 75.4531 39.2822 76.6836 40.0309 77.5234C40.7796 78.3568 41.7301 78.7734 42.8824 78.7734C44.0348 78.7734 44.9788 78.36 45.7145 77.5332C46.4566 76.6999 46.8277 75.4531 46.8277 73.793C46.8277 72.1523 46.4664 70.9284 45.7438 70.1211C45.0276 69.3138 44.0738 68.9102 42.8824 68.9102C41.691 68.9102 40.7307 69.3203 40.0016 70.1406C39.2724 70.9544 38.9078 72.1849 38.9078 73.832ZM54.5043 81V69.1055H50.2563V66.6836H61.6332V69.1055H57.3949V81H54.5043ZM61.2531 81L66.1457 73.5293L61.7121 66.6836H65.091L67.9621 71.2832L70.7746 66.6836H74.1242L69.6711 73.6367L74.5637 81H71.0773L67.9035 76.0488L64.7199 81H61.2531Z" fill="white"/>
<path id="shadow" fill-rule="evenodd" clip-rule="evenodd" d="M10 95H86V30L57 1H10V95ZM57 0H9V96H87V30L57 0Z" fill="url(#paint0_linear)"/>
<g id="logo">
<path d="M57 11H20V18H57V11Z" fill="#BFBFBF"/>
<path d="M57 22H20V29H57V22Z" fill="#BFBFBF"/>
<path d="M76 33H20V40H76V33Z" fill="#BFBFBF"/>
<path d="M20 44H76V51H20V44Z" fill="#BFBFBF"/>
</g>
<path id="ear shadow" opacity="0.3" d="M56 30V1H57V29H86L87 30H56Z" fill="black"/>
</g>
<defs>
<linearGradient id="paint0_linear" x1="48" y1="94.25" x2="48" y2="1.21299e-06" gradientUnits="userSpaceOnUse">
<stop stop-color="#A8A8A8"/>
<stop offset="1" stop-color="#DADADA"/>
</linearGradient>
<clipPath id="clip0">
<rect width="96" height="96" fill="white"/>
</clipPath>
</defs>
</svg>
