<svg width="96" height="96" viewBox="0 0 96 96" fill="none" xmlns="http://www.w3.org/2000/svg">
<g clip-path="url(#clip0)">
<path d="M10 1H57L86 30V95H10V1Z" fill="white"/>
<path fill-rule="evenodd" clip-rule="evenodd" d="M10 95H86V30L57 0.999969H10V95ZM57 -3.05176e-05H9.00002V96H87V30L57 -3.05176e-05Z" fill="#BFBFBF"/>
<path d="M45.0693 68.2764V72.0835H47.248C48.5433 72.0835 49.3481 72.0648 49.6626 72.0273C50.2316 71.96 50.6771 71.7653 50.999 71.4434C51.3285 71.1139 51.4932 70.6834 51.4932 70.1519C51.4932 69.6427 51.351 69.231 51.0664 68.9165C50.7894 68.5946 50.3739 68.3999 49.8198 68.3325C49.4904 68.2951 48.5433 68.2764 46.9785 68.2764H45.0693Z" fill="#B07408"/>
<path d="M45.0693 74.8237V79.2261H48.1465C49.3444 79.2261 50.1044 79.1924 50.4263 79.125C50.9204 79.0352 51.3209 78.818 51.6279 78.4736C51.9424 78.1217 52.0996 77.6538 52.0996 77.0698C52.0996 76.5757 51.9799 76.1564 51.7402 75.812C51.5006 75.4676 51.1525 75.2168 50.6958 75.0596C50.2466 74.9023 49.2657 74.8237 47.7534 74.8237H45.0693Z" fill="#B07408"/>
<path fill-rule="evenodd" clip-rule="evenodd" d="M23 58C21.3431 58 20 59.3431 20 61V86C20 87.6569 21.3431 89 23 89H73C74.6569 89 76 87.6569 76 86V61C76 59.3431 74.6569 58 73 58H23ZM68.3164 82V79.0688H62.0498C62.2145 78.7843 62.4279 78.4923 62.6899 78.1929C62.9595 77.8934 63.5922 77.287 64.5879 76.3735C65.5836 75.4601 66.2725 74.7601 66.6543 74.2734C67.2308 73.5397 67.65 72.8397 67.9121 72.1733C68.1816 71.4995 68.3164 70.792 68.3164 70.0508C68.3164 68.748 67.8522 67.6587 66.9238 66.7827C65.9955 65.9067 64.7189 65.4688 63.0942 65.4688C61.6118 65.4688 60.3765 65.8468 59.3882 66.603C58.3999 67.3592 57.8121 68.6058 57.625 70.3428L60.7695 70.6572C60.8295 69.7363 61.0541 69.0775 61.4434 68.6807C61.8326 68.2838 62.3568 68.0854 63.0156 68.0854C63.682 68.0854 64.2023 68.2764 64.5767 68.6582C64.9585 69.0326 65.1494 69.5716 65.1494 70.2754C65.1494 70.9118 64.9323 71.5557 64.498 72.207C64.1761 72.6787 63.3038 73.5771 61.8813 74.9023C60.1144 76.542 58.9315 77.8597 58.3325 78.8555C57.7335 79.8438 57.3741 80.8919 57.2544 82H68.3164ZM27.6958 82V65.5361H38.9824V68.3213H31.02V72.2183H37.8931V75.0034H31.02V82H27.6958ZM41.7451 65.5361H48.3262C49.6289 65.5361 50.5985 65.5923 51.2349 65.7046C51.8788 65.8094 52.4515 66.034 52.9531 66.3784C53.4623 66.7228 53.8853 67.1833 54.2222 67.7598C54.5591 68.3288 54.7275 68.9689 54.7275 69.6802C54.7275 70.4513 54.5179 71.1588 54.0986 71.8027C53.6869 72.4466 53.1254 72.9295 52.4141 73.2515C53.4174 73.5435 54.1885 74.0414 54.7275 74.7451C55.2666 75.4489 55.5361 76.2762 55.5361 77.2271C55.5361 77.9757 55.3602 78.7057 55.0083 79.417C54.6639 80.1208 54.1885 80.686 53.582 81.1128C52.983 81.5321 52.2418 81.7904 51.3584 81.8877C50.8043 81.9476 49.4679 81.985 47.3491 82H41.7451V65.5361Z" fill="#B07408"/>
<path d="M57 11H20V50H76V29H73V47H23V14H57V11Z" fill="#C4C4C4"/>
<path d="M57 17H39V29H26V35H32V38H26V44H65V41H71V35H49V32H70V29H57V17Z" fill="#C4C4C4"/>
<path d="M35 17H26V26H35V17Z" fill="#C4C4C4"/>
<path opacity="0.3" d="M56 30V1H57V29H86L87 30H56Z" fill="black"/>
</g>
<defs>
<clipPath id="clip0">
<rect width="96" height="96" fill="white"/>
</clipPath>
</defs>
</svg>
