<svg width="96" height="96" viewBox="0 0 96 96" fill="none" xmlns="http://www.w3.org/2000/svg">
<g clip-path="url(#clip0)">
<path d="M10 1H57L86 30V95H10V1Z" fill="white"/>
<path fill-rule="evenodd" clip-rule="evenodd" d="M10 95H86V30L57 1H10V95ZM57 0H9V96H87V30L57 0Z" fill="url(#paint0_linear)"/>
<path d="M38.4609 77.5234C37.7122 76.6836 37.3379 75.4531 37.3379 73.832C37.3379 72.1849 37.7025 70.9544 38.4316 70.1406C39.1608 69.3203 40.1211 68.9102 41.3125 68.9102C42.5039 68.9102 43.4577 69.3138 44.1738 70.1211C44.8965 70.9284 45.2578 72.1523 45.2578 73.793C45.2578 75.4531 44.8867 76.6999 44.1445 77.5332C43.4089 78.36 42.4648 78.7734 41.3125 78.7734C40.1602 78.7734 39.2096 78.3568 38.4609 77.5234Z" fill="#128DC0"/>
<path d="M52.3926 78.5879V69.1055H53.6914C54.8698 69.1055 55.6608 69.151 56.0645 69.2422C56.6048 69.3594 57.0508 69.584 57.4023 69.916C57.7539 70.248 58.0273 70.7103 58.2227 71.3027C58.418 71.8952 58.5156 72.7448 58.5156 73.8516C58.5156 74.9583 58.418 75.834 58.2227 76.4785C58.0273 77.1165 57.7734 77.5755 57.4609 77.8555C57.1549 78.1354 56.7676 78.334 56.2988 78.4512C55.9408 78.5423 55.3581 78.5879 54.5508 78.5879H52.3926Z" fill="#128DC0"/>
<path fill-rule="evenodd" clip-rule="evenodd" d="M23 58C21.3431 58 20 59.3431 20 61V86C20 87.6569 21.3431 89 23 89H73C74.6569 89 76 87.6569 76 86V61C76 59.3431 74.6569 58 73 58H23ZM23.7383 66.6836V81H26.6289V74.916H32.6055V72.4941H26.6289V69.1055H33.5527V66.6836H23.7383ZM35.0137 70.2578C34.5775 71.2474 34.3594 72.4714 34.3594 73.9297C34.3594 76.2083 34.9876 77.9987 36.2441 79.3008C37.5007 80.5964 39.1934 81.2441 41.3223 81.2441C43.4251 81.2441 45.1048 80.5931 46.3613 79.291C47.6178 77.9824 48.2461 76.1725 48.2461 73.8613C48.2461 71.5306 47.6113 69.7109 46.3418 68.4023C45.0788 67.0938 43.3926 66.4395 41.2832 66.4395C40.1178 66.4395 39.0892 66.6283 38.1973 67.0059C37.5267 67.2858 36.9082 67.7155 36.3418 68.2949C35.7819 68.8744 35.3392 69.5286 35.0137 70.2578ZM54.7852 66.6836H49.502V81H54.9414C56.0091 81 56.862 80.8991 57.5 80.6973C58.3529 80.4238 59.0299 80.043 59.5312 79.5547C60.1953 78.9102 60.7064 78.0671 61.0645 77.0254C61.3574 76.1725 61.5039 75.1569 61.5039 73.9785C61.5039 72.6374 61.3477 71.5111 61.0352 70.5996C60.7227 69.6816 60.2669 68.9069 59.668 68.2754C59.069 67.6439 58.3496 67.2044 57.5098 66.957C56.8848 66.7747 55.9766 66.6836 54.7852 66.6836ZM66.1875 69.1055V81H69.0781V69.1055H73.3164V66.6836H61.9395V69.1055H66.1875Z" fill="#128DC0"/>
<path d="M57 11H20V18H57V11Z" fill="#BFBFBF"/>
<path d="M57 22H20V29H57V22Z" fill="#BFBFBF"/>
<path d="M20 33H76V40H20V33Z" fill="#BFBFBF"/>
<path d="M20 44H76V51H20V44Z" fill="#BFBFBF"/>
<path opacity="0.3" d="M56 30V1H57V29H86L87 30H56Z" fill="black"/>
</g>
<defs>
<linearGradient id="paint0_linear" x1="48" y1="94.25" x2="48" y2="1.21299e-06" gradientUnits="userSpaceOnUse">
<stop stop-color="#A8A8A8"/>
<stop offset="1" stop-color="#DADADA"/>
</linearGradient>
<clipPath id="clip0">
<rect width="96" height="96" fill="white"/>
</clipPath>
</defs>
</svg>
