<svg width="96" height="96" viewBox="0 0 96 96" fill="none" xmlns="http://www.w3.org/2000/svg">
<g id="96x96 / ics" clip-path="url(#clip0)">
<path id="background" d="M10 1H57L86 30V95H10V1Z" fill="white"/>
<g id="Subtract">
<path d="M35 7H29V13H20V53H76V29H73V50H23V16H29V22H35V16H57V13H35V7Z" fill="#BFBFBF"/>
<path d="M57 22H48V25H57V22Z" fill="#BFBFBF"/>
<path d="M57 28H54V35H51V44H54V35H57V28Z" fill="#BFBFBF"/>
<path d="M39 22H42V44H39V28H36V25H39V22Z" fill="#BFBFBF"/>
</g>
<path id="shadow" fill-rule="evenodd" clip-rule="evenodd" d="M10 95H86V30L57 1H10V95ZM57 0H9V96H87V30L57 0Z" fill="url(#paint0_linear)"/>
<path id="ear shadow" opacity="0.3" d="M56 30V1H57V29H86L87 30H56Z" fill="black"/>
<rect id="Rectangle 1" x="20" y="58" width="56" height="31" rx="3" fill="#DD4A4A"/>
<path id="ICS" d="M29.2406 82V65.5361H32.5648V82H29.2406ZM47.4272 75.9468L50.6504 76.9688C50.1562 78.7656 49.3327 80.1021 48.1797 80.978C47.0342 81.8465 45.578 82.2808 43.811 82.2808C41.6248 82.2808 39.828 81.5358 38.4204 80.0459C37.0129 78.5485 36.3091 76.5046 36.3091 73.9141C36.3091 71.1738 37.0166 69.0475 38.4316 67.5352C39.8467 66.0153 41.7072 65.2554 44.0132 65.2554C46.0272 65.2554 47.6631 65.8506 48.9209 67.041C49.6696 67.7448 50.2311 68.7555 50.6055 70.0732L47.3149 70.8594C47.1203 70.0059 46.7122 69.332 46.0908 68.8379C45.4769 68.3438 44.7282 68.0967 43.8447 68.0967C42.6243 68.0967 41.6323 68.5347 40.8687 69.4106C40.1125 70.2866 39.7344 71.7054 39.7344 73.667C39.7344 75.7484 40.1087 77.2308 40.8574 78.1143C41.6061 78.9977 42.5794 79.4395 43.7773 79.4395C44.6608 79.4395 45.4207 79.1587 46.0571 78.5972C46.6935 78.0356 47.1502 77.1522 47.4272 75.9468ZM53.8219 76.6431L57.0563 76.3286C57.2509 77.4142 57.644 78.2116 58.2355 78.7207C58.8344 79.2298 59.6393 79.4844 60.65 79.4844C61.7206 79.4844 62.5255 79.2598 63.0646 78.8105C63.6111 78.3538 63.8844 77.8223 63.8844 77.2158C63.8844 76.8265 63.7683 76.4971 63.5362 76.2275C63.3116 75.9505 62.9148 75.7109 62.3458 75.5088C61.9565 75.374 61.0693 75.1344 59.6842 74.79C57.9023 74.3483 56.652 73.8055 55.9332 73.1616C54.9225 72.2557 54.4171 71.1514 54.4171 69.8486C54.4171 69.0101 54.6529 68.2277 55.1246 67.5015C55.6038 66.7677 56.2888 66.21 57.1798 65.8281C58.0782 65.4463 59.1601 65.2554 60.4254 65.2554C62.4918 65.2554 64.0453 65.7083 65.086 66.6143C66.1342 67.5202 66.6845 68.7293 66.7369 70.2417L63.4127 70.3877C63.2704 69.5417 62.9635 68.9352 62.4918 68.5684C62.0276 68.194 61.3276 68.0068 60.3917 68.0068C59.4259 68.0068 58.6697 68.2052 58.1231 68.6021C57.7713 68.8566 57.5953 69.1973 57.5953 69.624C57.5953 70.0133 57.76 70.3465 58.0895 70.6235C58.5087 70.9754 59.527 71.3423 61.1441 71.7241C62.7613 72.106 63.9555 72.5028 64.7267 72.9146C65.5053 73.3188 66.1118 73.8766 66.546 74.5879C66.9877 75.2917 67.2086 76.1639 67.2086 77.2046C67.2086 78.1479 66.9466 79.0314 66.4225 79.855C65.8984 80.6785 65.1572 81.2925 64.1988 81.6968C63.2405 82.0936 62.0463 82.292 60.6163 82.292C58.5349 82.292 56.9365 81.8128 55.8209 80.8545C54.7053 79.8887 54.039 78.4849 53.8219 76.6431Z" fill="white"/>
</g>
<defs>
<linearGradient id="paint0_linear" x1="48" y1="94.25" x2="48" y2="1.21299e-06" gradientUnits="userSpaceOnUse">
<stop stop-color="#A8A8A8"/>
<stop offset="1" stop-color="#DADADA"/>
</linearGradient>
<clipPath id="clip0">
<rect width="96" height="96" fill="white"/>
</clipPath>
</defs>
</svg>
