<svg width="96" height="96" viewBox="0 0 96 96" fill="none" xmlns="http://www.w3.org/2000/svg">
<g clip-path="url(#clip0)">
<path d="M10 1H57L86 30V95H10V1Z" fill="white"/>
<path fill-rule="evenodd" clip-rule="evenodd" d="M10 95H86V30L57 1H10V95ZM57 0H9.00002V96H87V30L57 0Z" fill="#BFBFBF"/>
<path fill-rule="evenodd" clip-rule="evenodd" d="M23 58C21.3431 58 20 59.3431 20 61V86C20 87.6569 21.3431 89 23 89H73C74.6569 89 76 87.6569 76 86V61C76 59.3431 74.6569 58 73 58H23ZM27.8413 65.5361V82H31.1655V65.5361H27.8413ZM34.2988 65.5361V82H37.3872V69.04L40.644 82H43.8447L47.1128 69.04V82H50.2012V65.5361H45.2148L42.2612 76.7666L39.2739 65.5361H34.2988ZM61.1621 73.1729V75.9468H64.9692V78.0356C64.4676 78.425 63.8649 78.7581 63.1611 79.0352C62.4648 79.3047 61.7686 79.4395 61.0723 79.4395C59.6647 79.4395 58.5267 78.9528 57.6582 77.9795C56.7897 76.9987 56.3555 75.5312 56.3555 73.5771C56.3555 71.7653 56.7822 70.3989 57.6357 69.478C58.4967 68.5571 59.6535 68.0967 61.106 68.0967C62.0643 68.0967 62.8617 68.3325 63.498 68.8042C64.1419 69.2684 64.5799 69.9048 64.812 70.7134L68.1138 70.0957C67.7843 68.5833 67.0431 67.4004 65.8901 66.5469C64.7446 65.6859 63.1499 65.2554 61.106 65.2554C59.5337 65.2554 58.2197 65.5286 57.1641 66.0752C55.779 66.7865 54.7271 67.8084 54.0083 69.1411C53.2896 70.4738 52.9302 71.9974 52.9302 73.7119C52.9302 75.2917 53.2521 76.7554 53.896 78.103C54.5399 79.4432 55.502 80.4764 56.7822 81.2026C58.0625 81.9214 59.5636 82.2808 61.2856 82.2808C62.6408 82.2808 63.9772 82.0262 65.2949 81.5171C66.6201 81.0005 67.6309 80.4053 68.3271 79.7314V73.1729H61.1621Z" fill="#A671D8"/>
<path d="M57 11H20V52H76V29H73V49H23V14H57V11Z" fill="#BFBFBF"/>
<path fill-rule="evenodd" clip-rule="evenodd" d="M57 17H26V46H32L54 23L57 27.3125V17ZM41 24.5C41 26.9854 38.9853 29 36.5 29C34.0147 29 32 26.9854 32 24.5C32 22.0146 34.0147 20 36.5 20C38.9853 20 41 22.0146 41 24.5Z" fill="#BFBFBF"/>
<path d="M58.1739 29L70 46V29H58.1739Z" fill="#BFBFBF"/>
<path opacity="0.3" d="M56 30V1H57V29H86L87 30H56Z" fill="black"/>
</g>
<defs>
<clipPath id="clip0">
<rect width="96" height="96" fill="white"/>
</clipPath>
</defs>
</svg>
