<svg width="96" height="96" viewBox="0 0 96 96" fill="none" xmlns="http://www.w3.org/2000/svg">
<g clip-path="url(#clip0)">
<path d="M10 1H57L86 30V95H10V1Z" fill="white"/>
<path fill-rule="evenodd" clip-rule="evenodd" d="M10 95H86V30L57 1H10V95ZM57 0H9.00002V96H87V30L57 0Z" fill="#BFBFBF"/>
<path fill-rule="evenodd" clip-rule="evenodd" d="M23 58C21.3431 58 20 59.3431 20 61V86C20 87.6569 21.3431 89 23 89H73C74.6569 89 76 87.6569 76 86V61C76 59.3431 74.6569 58 73 58H23ZM22.1031 65.9678V81H24.923V69.167L27.8966 81H30.819L33.8028 69.167V81H36.6227V65.9678H32.0699L29.3732 76.2217L26.6456 65.9678H22.1031ZM48.3125 81V78.3237H42.5909C42.7412 78.064 42.9361 77.7974 43.1753 77.5239C43.4214 77.2505 43.9991 76.6968 44.9082 75.8628C45.8174 75.0288 46.4463 74.3896 46.795 73.9453C47.3213 73.2754 47.7041 72.6362 47.9434 72.0278C48.1895 71.4126 48.3125 70.7666 48.3125 70.0898C48.3125 68.9004 47.8887 67.9058 47.0411 67.106C46.1934 66.3062 45.0279 65.9062 43.5445 65.9062C42.191 65.9062 41.063 66.2515 40.1607 66.9419C39.2583 67.6323 38.7217 68.7705 38.5508 70.3564L41.4219 70.6436C41.4766 69.8027 41.6817 69.2012 42.0371 68.8389C42.3926 68.4766 42.8711 68.2954 43.4727 68.2954C44.0811 68.2954 44.5562 68.4697 44.898 68.8184C45.2466 69.1602 45.4209 69.6523 45.4209 70.2949C45.4209 70.876 45.2227 71.4639 44.8262 72.0586C44.5323 72.4893 43.7359 73.3096 42.437 74.5195C40.8238 76.0166 39.7437 77.2197 39.1968 78.1289C38.6499 79.0312 38.3218 79.9883 38.2124 81H48.3125ZM53.8706 68.5107V81H56.9057V68.5107H61.3559V65.9678H49.4101V68.5107H53.8706ZM65.0888 75.8218L62.1356 76.1089C62.3339 77.7905 62.9423 79.0723 63.9608 79.9541C64.9794 80.8291 66.4389 81.2666 68.3392 81.2666C69.6449 81.2666 70.7352 81.0854 71.6102 80.7231C72.4852 80.354 73.162 79.7935 73.6405 79.0415C74.119 78.2896 74.3583 77.4829 74.3583 76.6216C74.3583 75.6714 74.1566 74.875 73.7533 74.2324C73.3568 73.583 72.8031 73.0737 72.0922 72.7046C71.3881 72.3286 70.2977 71.9663 68.8212 71.6177C67.3446 71.269 66.4149 70.9341 66.0321 70.6128C65.7313 70.3599 65.5809 70.0557 65.5809 69.7002C65.5809 69.3105 65.7416 68.9995 66.0629 68.7671C66.5619 68.4048 67.2523 68.2236 68.1342 68.2236C68.9887 68.2236 69.6278 68.3945 70.0516 68.7363C70.4823 69.0713 70.7626 69.625 70.8925 70.3975L73.9276 70.2642C73.8798 68.8833 73.3773 67.7793 72.4203 66.9521C71.4701 66.125 70.0516 65.7114 68.1649 65.7114C67.0097 65.7114 66.0219 65.8857 65.2015 66.2344C64.3881 66.583 63.7626 67.0923 63.3251 67.7622C62.8944 68.4253 62.6791 69.1396 62.6791 69.9053C62.6791 71.0947 63.1405 72.103 64.0634 72.9302C64.7196 73.5181 65.8612 74.0137 67.4882 74.417C68.7528 74.7314 69.5629 74.9502 69.9183 75.0732C70.4379 75.2578 70.8002 75.4766 71.0053 75.7295C71.2172 75.9756 71.3231 76.2764 71.3231 76.6318C71.3231 77.1855 71.0736 77.6709 70.5746 78.0879C70.0824 78.498 69.3475 78.7031 68.37 78.7031C67.4472 78.7031 66.7123 78.4707 66.1654 78.0059C65.6254 77.541 65.2665 76.813 65.0888 75.8218Z" fill="#3C5D8D"/>
<path fill-rule="evenodd" clip-rule="evenodd" d="M57 11.0209C54.2722 9.72507 51.2208 9 48 9C36.402 9 27 18.402 27 30C27 41.598 36.402 51 48 51C59.598 51 69 41.598 69 30C69 29.6648 68.9921 29.3314 68.9766 29H65.8293C65.9398 29.3128 66 29.6494 66 30C66 31.6569 64.6569 33 63 33C61.3431 33 60 31.6569 60 30C60 29.6494 60.0602 29.3128 60.1707 29H57V22.8293C55.8348 22.4175 55 21.3062 55 20C55 18.6938 55.8348 17.5825 57 17.1707V11.0209ZM48 18C49.6569 18 51 16.6569 51 15C51 13.3431 49.6569 12 48 12C46.3431 12 45 13.3431 45 15C45 16.6569 46.3431 18 48 18ZM41 20C41 21.6569 39.6569 23 38 23C36.3431 23 35 21.6569 35 20C35 18.3431 36.3431 17 38 17C39.6569 17 41 18.3431 41 20ZM38 43C39.6569 43 41 41.6569 41 40C41 38.3431 39.6569 37 38 37C36.3431 37 35 38.3431 35 40C35 41.6569 36.3431 43 38 43ZM61 40C61 41.6569 59.6569 43 58 43C56.3431 43 55 41.6569 55 40C55 38.3431 56.3431 37 58 37C59.6569 37 61 38.3431 61 40ZM51 45C51 46.6569 49.6569 48 48 48C46.3431 48 45 46.6569 45 45C45 43.3431 46.3431 42 48 42C49.6569 42 51 43.3431 51 45ZM33 33C34.6569 33 36 31.6569 36 30C36 28.3431 34.6569 27 33 27C31.3431 27 30 28.3431 30 30C30 31.6569 31.3431 33 33 33Z" fill="#BFBFBF"/>
<path opacity="0.3" d="M56 30V1H57V29H86L87 30H56Z" fill="black"/>
</g>
<defs>
<clipPath id="clip0">
<rect width="96" height="96" fill="white"/>
</clipPath>
</defs>
</svg>
