<svg width="96" height="96" viewBox="0 0 96 96" fill="none" xmlns="http://www.w3.org/2000/svg">
<g clip-path="url(#clip0)">
<path d="M10 1H57L86 30V95H10V1Z" fill="white"/>
<path fill-rule="evenodd" clip-rule="evenodd" d="M10 95H86V30L57 1H10V95ZM57 0H9.00002V96H87V30L57 0Z" fill="#BFBFBF"/>
<path fill-rule="evenodd" clip-rule="evenodd" d="M23 58C21.3431 58 20 59.3431 20 61V86C20 87.6569 21.3431 89 23 89H73C74.6569 89 76 87.6569 76 86V61C76 59.3431 74.6569 58 73 58H23ZM24.6284 82V65.5361H29.6035L32.5908 76.7666L35.5444 65.5361H40.5308V82H37.4424V69.04L34.1743 82H30.9736L27.7168 69.04V82H24.6284ZM43.3838 82V65.5361H46.708V72.0161H53.2217V65.5361H56.5459V82H53.2217V74.8013H46.708V82H43.3838ZM63.2396 68.3213V82H66.5638V68.3213H71.4379V65.5361H58.3544V68.3213H63.2396Z" fill="#5E93A2"/>
<path d="M57 26H56L57 27V26Z" fill="#BFBFBF"/>
<path d="M59 29L68 38L56 50H61L73 38L64 29H59Z" fill="#BFBFBF"/>
<path d="M40 50H35L23 38L35 26H40L28 38L40 50Z" fill="#BFBFBF"/>
<path d="M41 36H45V40H41V36Z" fill="#BFBFBF"/>
<path d="M51 36H55V40H51V36Z" fill="#BFBFBF"/>
<path opacity="0.3" d="M56 30V1H57V29H86L87 30H56Z" fill="black"/>
</g>
<defs>
<clipPath id="clip0">
<rect width="96" height="96" fill="white"/>
</clipPath>
</defs>
</svg>
