<svg width="96" height="96" viewBox="0 0 96 96" fill="none" xmlns="http://www.w3.org/2000/svg">
<g clip-path="url(#clip0)">
<path d="M10 1H57L86 30V95H10V1Z" fill="white"/>
<path fill-rule="evenodd" clip-rule="evenodd" d="M10 95H86V30L57 1H10V95ZM57 0H9.00002V96H87V30L57 0Z" fill="#BFBFBF"/>
<path fill-rule="evenodd" clip-rule="evenodd" d="M23 58C21.3431 58 20 59.3431 20 61V86C20 87.6569 21.3431 89 23 89H73C74.6569 89 76 87.6569 76 86V61C76 59.3431 74.6569 58 73 58H23ZM24.0386 82V65.5361H29.0137L32.001 76.7666L34.9546 65.5361H39.9409V82H36.8525V69.04L33.5845 82H30.3838L27.127 69.04V82H24.0386ZM42.7439 82V65.5361H46.0681V72.8472L52.7839 65.5361H57.2536L51.0544 71.9487L57.5906 82H53.2893L48.7634 74.2734L46.0681 77.0249V82H42.7439ZM58.2085 65.5361L64.0932 82H67.6421L73.5381 65.5361H70.0117L65.98 77.7212L61.8135 65.5361H58.2085Z" fill="#0E6B8D"/>
<path d="M57 11.5852C56.7007 11.4198 56.3628 11.2833 55.9863 11.1758C55.541 11.0586 54.8145 11 53.8066 11H52.8223V13.7598H53.3672C54.5859 13.7598 55.3945 13.9824 55.793 14.4277C56.1914 14.8613 56.3906 15.8398 56.3906 17.3633C56.3906 20.4336 56.4551 22.373 56.584 23.1816C56.6866 23.7916 56.8253 24.3337 57 24.8078V11.5852Z" fill="#BFBFBF"/>
<path d="M58.307 29C57.8834 29.3945 57.5375 29.8515 57.2695 30.3711C56.6836 31.4727 56.3906 33.2832 56.3906 35.8027C56.3906 38.0879 56.3672 39.4473 56.3203 39.8809C56.2266 40.6777 55.9922 41.2344 55.6172 41.5508C55.2305 41.8672 54.4805 42.0254 53.3672 42.0254H52.8223V44.7852H53.8066C54.9551 44.7852 55.7871 44.6914 56.3027 44.5039C57.0527 44.2344 57.6738 43.7949 58.166 43.1855C58.6582 42.5879 58.9805 41.8262 59.1328 40.9004C59.2734 39.9746 59.3496 38.457 59.3613 36.3477C59.3664 35.4424 59.3876 34.6568 59.425 33.9911C65.1883 35.3283 69 37.6477 69 40.2851C69 44.4272 59.598 47.7851 48 47.7851C36.402 47.7851 27 44.4272 27 40.2851C27 37.6477 30.8117 35.3283 36.575 33.9911C36.6124 34.6568 36.6336 35.4424 36.6387 36.3477C36.6504 38.457 36.7266 39.9746 36.8672 40.9004C37.0195 41.8262 37.3418 42.5879 37.834 43.1855C38.3262 43.7949 38.9473 44.2344 39.6973 44.5039C40.2129 44.6914 41.0449 44.7852 42.1934 44.7852H43.1777V42.0254H42.6328C41.5195 42.0254 40.7695 41.8672 40.3828 41.5508C40.0078 41.2344 39.7734 40.6777 39.6797 39.8809C39.6328 39.4473 39.6094 38.0879 39.6094 35.8027C39.6094 33.2832 39.3164 31.4727 38.7305 30.3711C38.1562 29.2578 37.2246 28.4316 35.9355 27.8926C37.0254 27.3652 37.8223 26.7617 38.3262 26.082C38.8418 25.4023 39.2051 24.4355 39.416 23.1816C39.5449 22.373 39.6094 20.4336 39.6094 17.3633C39.6094 15.8398 39.8086 14.8613 40.207 14.4277C40.6055 13.9824 41.4141 13.7598 42.6328 13.7598H43.1777V11H42.1934C41.1855 11 40.459 11.0586 40.0137 11.1758C39.3574 11.3633 38.8184 11.6387 38.3965 12.002C37.9746 12.3535 37.6172 12.8281 37.3242 13.4258C37.043 14.0234 36.8496 14.8145 36.7441 15.7988C36.6855 16.4199 36.6504 17.709 36.6387 19.666C36.627 21.623 36.5273 23.0059 36.3398 23.8145C36.1523 24.623 35.7715 25.2617 35.1973 25.7305C34.6348 26.1875 33.9023 26.4277 33 26.4512V29.3164C33.9023 29.3398 34.6348 29.5859 35.1973 30.0547C35.7715 30.5234 36.1523 31.1621 36.3398 31.9707C36.4311 32.3641 36.5015 32.9116 36.5511 33.613C26.7952 35.0979 20 38.4223 20 42.2851C20 47.5318 32.536 51.7851 48 51.7851C63.464 51.7851 76 47.5318 76 42.2851C76 38.4223 69.2048 35.0979 59.4489 33.613C59.4985 32.9116 59.5689 32.3641 59.6602 31.9707C59.8477 31.1621 60.2285 30.5234 60.8027 30.0547C61.3652 29.5859 62.0977 29.3398 63 29.3164V29H58.307Z" fill="#BFBFBF"/>
<path opacity="0.3" d="M56 30V1H57V29H86L87 30H56Z" fill="black"/>
</g>
<defs>
<clipPath id="clip0">
<rect width="96" height="96" fill="white"/>
</clipPath>
</defs>
</svg>
