<svg width="96" height="96" viewBox="0 0 96 96" fill="none" xmlns="http://www.w3.org/2000/svg">
<g clip-path="url(#clip0)">
<path d="M10 1H57L86 30V95H10V1Z" fill="white"/>
<path fill-rule="evenodd" clip-rule="evenodd" d="M10 95H86V30L57 0.999985H10V95ZM57 -1.52588e-05H9.00002V96H87V30L57 -1.52588e-05Z" fill="#BFBFBF"/>
<path d="M28.7847 78.002C27.9237 77.0361 27.4932 75.6211 27.4932 73.7568C27.4932 71.8626 27.9124 70.4476 28.751 69.5117C29.5895 68.5684 30.6938 68.0967 32.064 68.0967C33.4341 68.0967 34.5309 68.5609 35.3545 69.4893C36.1855 70.4176 36.6011 71.8252 36.6011 73.7119C36.6011 75.6211 36.1743 77.0548 35.3208 78.0132C34.4748 78.964 33.3892 79.4395 32.064 79.4395C30.7388 79.4395 29.6457 78.9603 28.7847 78.002Z" fill="#D6771B"/>
<path d="M45.9561 79.2261V68.3213H47.4497C48.8049 68.3213 49.7145 68.3737 50.1787 68.4785C50.8001 68.6133 51.313 68.8716 51.7173 69.2534C52.1216 69.6353 52.436 70.1668 52.6606 70.8481C52.8853 71.5295 52.9976 72.5065 52.9976 73.7793C52.9976 75.0521 52.8853 76.0591 52.6606 76.8003C52.436 77.534 52.144 78.0619 51.7847 78.3838C51.4328 78.7057 50.9873 78.9341 50.4482 79.0688C50.0365 79.1737 49.3664 79.2261 48.438 79.2261H45.9561Z" fill="#D6771B"/>
<path d="M62.5884 72.9932V68.3213H64.1943C65.3923 68.3213 66.1896 68.3587 66.5864 68.4336C67.1255 68.5309 67.571 68.7743 67.9229 69.1636C68.2747 69.5529 68.4507 70.047 68.4507 70.646C68.4507 71.1327 68.3234 71.5594 68.0688 71.9263C67.8218 72.2931 67.4774 72.5627 67.0356 72.7349C66.5939 72.9071 65.7179 72.9932 64.4077 72.9932H62.5884Z" fill="#D6771B"/>
<path fill-rule="evenodd" clip-rule="evenodd" d="M23 58C21.3431 58 20 59.3431 20 61V86C20 87.6569 21.3431 89 23 89H73C74.6569 89 76 87.6569 76 86V61C76 59.3431 74.6569 58 73 58H23ZM24.8203 69.6465C24.3187 70.7845 24.0679 72.1921 24.0679 73.8691C24.0679 76.4896 24.7904 78.5485 26.2354 80.0459C27.6803 81.5358 29.627 82.2808 32.0752 82.2808C34.4935 82.2808 36.4251 81.5321 37.8701 80.0347C39.3151 78.5298 40.0376 76.4484 40.0376 73.7905C40.0376 71.1102 39.3076 69.0176 37.8477 67.5127C36.3952 66.0078 34.4561 65.2554 32.0303 65.2554C30.6901 65.2554 29.5072 65.4725 28.4814 65.9067C27.7103 66.2287 26.999 66.7228 26.3477 67.3892C25.7038 68.0555 25.1947 68.8079 24.8203 69.6465ZM48.7075 65.5361H42.6318V82H48.8872C50.1151 82 51.0959 81.8839 51.8296 81.6519C52.8104 81.3374 53.589 80.8994 54.1655 80.3379C54.9292 79.5967 55.5169 78.6271 55.9287 77.4292C56.2656 76.4484 56.4341 75.2804 56.4341 73.9253C56.4341 72.383 56.2544 71.0877 55.895 70.0396C55.5356 68.9839 55.0116 68.0929 54.3228 67.3667C53.634 66.6405 52.8066 66.1351 51.8408 65.8506C51.1221 65.641 50.0776 65.5361 48.7075 65.5361ZM59.2642 65.5361V82H62.5884V75.7896H64.7559C66.2607 75.7896 67.41 75.7109 68.2036 75.5537C68.7876 75.4264 69.3604 75.1681 69.9219 74.7788C70.4909 74.382 70.9588 73.8392 71.3257 73.1504C71.6925 72.4616 71.876 71.6118 71.876 70.6011C71.876 69.2909 71.5578 68.224 70.9214 67.4004C70.285 66.5693 69.4951 66.0303 68.5518 65.7832C67.9378 65.6185 66.6201 65.5361 64.5986 65.5361H59.2642Z" fill="#D6771B"/>
<path d="M57 11H20V51H76V29H73V48H23V14H57V11Z" fill="#BFBFBF"/>
<path d="M48 17H35V23H48V17Z" fill="#BFBFBF"/>
<path d="M57 28H35V34H71V29H57V28Z" fill="#BFBFBF"/>
<path d="M26 17H32V23H26V17Z" fill="#BFBFBF"/>
<path d="M26 39H32V45H26V39Z" fill="#BFBFBF"/>
<path d="M62 39H35V45H62V39Z" fill="#BFBFBF"/>
<path d="M26 28H32V34H26V28Z" fill="#BFBFBF"/>
<path opacity="0.3" d="M56 30V1H57V29H86L87 30H56Z" fill="black"/>
</g>
<defs>
<clipPath id="clip0">
<rect width="96" height="96" fill="white"/>
</clipPath>
</defs>
</svg>
