<svg width="96" height="96" viewBox="0 0 96 96" fill="none" xmlns="http://www.w3.org/2000/svg">
<g clip-path="url(#clip0)">
<path d="M10 1H57L86 30V95H10V1Z" fill="white"/>
<path fill-rule="evenodd" clip-rule="evenodd" d="M10 95H86V30L57 0.999985H10V95ZM57 -1.52588e-05H9.00002V96H87V30L57 -1.52588e-05Z" fill="#BFBFBF"/>
<path d="M28.7847 78.002C27.9237 77.0361 27.4932 75.6211 27.4932 73.7568C27.4932 71.8626 27.9124 70.4476 28.751 69.5117C29.5895 68.5684 30.6938 68.0967 32.064 68.0967C33.4341 68.0967 34.5309 68.5609 35.3545 69.4893C36.1855 70.4176 36.6011 71.8252 36.6011 73.7119C36.6011 75.6211 36.1743 77.0548 35.3208 78.0132C34.4748 78.964 33.3892 79.4395 32.064 79.4395C30.7388 79.4395 29.6457 78.9603 28.7847 78.002Z" fill="#679F24"/>
<path d="M45.9561 79.2261V68.3213H47.4497C48.8049 68.3213 49.7145 68.3737 50.1787 68.4785C50.8001 68.6133 51.313 68.8716 51.7173 69.2534C52.1216 69.6353 52.436 70.1668 52.6606 70.8481C52.8853 71.5295 52.9976 72.5065 52.9976 73.7793C52.9976 75.0521 52.8853 76.0591 52.6606 76.8003C52.436 77.534 52.144 78.0619 51.7847 78.3838C51.4328 78.7057 50.9873 78.9341 50.4482 79.0688C50.0365 79.1737 49.3664 79.2261 48.438 79.2261H45.9561Z" fill="#679F24"/>
<path fill-rule="evenodd" clip-rule="evenodd" d="M23 58C21.3431 58 20 59.3431 20 61V86C20 87.6569 21.3431 89 23 89H73C74.6569 89 76 87.6569 76 86V61C76 59.3431 74.6569 58 73 58H23ZM24.8203 69.6465C24.3187 70.7845 24.0679 72.1921 24.0679 73.8691C24.0679 76.4896 24.7904 78.5485 26.2354 80.0459C27.6803 81.5358 29.627 82.2808 32.0752 82.2808C34.4935 82.2808 36.4251 81.5321 37.8701 80.0347C39.3151 78.5298 40.0376 76.4484 40.0376 73.7905C40.0376 71.1102 39.3076 69.0176 37.8477 67.5127C36.3952 66.0078 34.4561 65.2554 32.0303 65.2554C30.6901 65.2554 29.5072 65.4725 28.4814 65.9067C27.7103 66.2287 26.999 66.7228 26.3477 67.3892C25.7038 68.0555 25.1947 68.8079 24.8203 69.6465ZM48.7075 65.5361H42.6318V82H48.8872C50.1151 82 51.0959 81.8839 51.8296 81.6519C52.8104 81.3374 53.589 80.8994 54.1655 80.3379C54.9292 79.5967 55.5169 78.6271 55.9287 77.4292C56.2656 76.4484 56.4341 75.2804 56.4341 73.9253C56.4341 72.383 56.2544 71.0877 55.895 70.0396C55.5356 68.9839 55.0116 68.0929 54.3228 67.3667C53.634 66.6405 52.8066 66.1351 51.8408 65.8506C51.1221 65.641 50.0776 65.5361 48.7075 65.5361ZM61.6562 76.3286L58.4219 76.6431C58.639 78.4849 59.3053 79.8887 60.4209 80.8545C61.5365 81.8128 63.1349 82.292 65.2163 82.292C66.6463 82.292 67.8405 82.0936 68.7988 81.6968C69.7572 81.2925 70.4984 80.6786 71.0225 79.855C71.5465 79.0314 71.8086 78.1479 71.8086 77.2046C71.8086 76.1639 71.5877 75.2917 71.146 74.5879C70.7118 73.8766 70.1053 73.3188 69.3267 72.9146C68.5555 72.5028 67.3613 72.106 65.7441 71.7241C64.127 71.3423 63.1087 70.9754 62.6895 70.6235C62.36 70.3465 62.1953 70.0133 62.1953 69.624C62.1953 69.1973 62.3713 68.8566 62.7231 68.6021C63.2697 68.2052 64.0259 68.0068 64.9917 68.0068C65.9276 68.0068 66.6276 68.194 67.0918 68.5684C67.5635 68.9352 67.8704 69.5417 68.0127 70.3877L71.3369 70.2417C71.2845 68.7293 70.7342 67.5202 69.686 66.6143C68.6453 65.7083 67.0918 65.2554 65.0254 65.2554C63.7601 65.2554 62.6782 65.4463 61.7798 65.8281C60.8888 66.21 60.2038 66.7677 59.7246 67.5015C59.2529 68.2277 59.0171 69.0101 59.0171 69.8486C59.0171 71.1514 59.5225 72.2557 60.5332 73.1616C61.252 73.8055 62.5023 74.3483 64.2842 74.79C65.6693 75.1344 66.5565 75.374 66.9458 75.5088C67.5148 75.7109 67.9116 75.9505 68.1362 76.2275C68.3683 76.4971 68.4844 76.8265 68.4844 77.2158C68.4844 77.8223 68.2111 78.3538 67.6646 78.8105C67.1255 79.2598 66.3206 79.4844 65.25 79.4844C64.2393 79.4844 63.4344 79.2298 62.8354 78.7207C62.244 78.2116 61.8509 77.4142 61.6562 76.3286Z" fill="#679F24"/>
<path fill-rule="evenodd" clip-rule="evenodd" d="M57 11H20V50H76V29H73V37H41V14H57V11ZM29 14H23V37H29V14ZM32 14V37H38V14H32ZM32 40H38V47H32V40ZM41 40V47H73V40H41ZM29 40H23V47H29V40Z" fill="#C4C4C4"/>
<path opacity="0.3" d="M56 30V1H57V29H86L87 30H56Z" fill="black"/>
</g>
<defs>
<clipPath id="clip0">
<rect width="96" height="96" fill="white"/>
</clipPath>
</defs>
</svg>
