<svg width="96" height="96" viewBox="0 0 96 96" fill="none" xmlns="http://www.w3.org/2000/svg">
<g id="96X96 / OFORM" clip-path="url(#clip0_1357:6951)">
<path id="background" d="M10 1H57L86 30V95H10V1Z" fill="white"/>
<path id="shadow" fill-rule="evenodd" clip-rule="evenodd" d="M10 95H86V30L57 1H10V95ZM57 0H9V96H87V30L57 0Z" fill="url(#paint0_linear_1357:6951)"/>
<rect id="Rectangle 389" x="15" y="58" width="66" height="31" rx="2" fill="#2CA498"/>
<g id="Group 130">
<path id="OFORM" d="M33.48 79.4H31V67H38.75V69.325H33.48V72.425H38.75V74.75H33.48V79.4Z" fill="white"/>
<path id="OFORM_2" d="M56.325 72.5367H57.1207C57.9196 72.5367 58.5092 72.4022 58.8897 72.133C59.2701 71.8639 59.4603 71.4409 59.4603 70.8642C59.4603 70.2929 59.2647 69.8865 58.8734 69.6448C58.4875 69.4031 57.887 69.2823 57.0717 69.2823H56.325V72.5367ZM56.325 74.9714V79.4H54V67H57.2511C58.8707 67 60.069 67.4889 60.8462 68.0876C61.6234 68.6808 62.012 69.5844 62.012 70.7983C62.012 71.5068 61.819 72.1385 61.4332 72.6933C61.0473 73.2426 60.5011 73.6738 59.7946 73.9868C61.588 76.6948 62.7565 78.609 63.3 79.4H60.4957L57.4135 74.9714H56.325Z" fill="white"/>
<path id="OFORM_3" d="M70.5414 79.4L67.7386 70.5429C67.7237 70.5429 67.7386 78.9212 67.7386 79.4H65V67H68.7664L71.9429 76.7429L75.1836 67H78.95V79.4H76.3706C76.3706 77.5467 76.5092 69.6917 76.4725 70.5429L73.3443 79.4H70.5414Z" fill="white"/>
<path id="OFORM_4" d="M29.2967 73.0831C29.2967 75.2016 28.7666 76.8299 27.7066 77.9679C26.6465 79.106 25.1271 79.675 23.1483 79.675C21.1696 79.675 19.6501 79.106 18.5901 77.9679C17.53 76.8299 17 75.1958 17 73.0656C17 70.9354 17.53 69.3101 18.5901 68.1896C19.656 67.0632 21.1813 66.5 23.166 66.5C25.1507 66.5 26.6671 67.0661 27.7154 68.1983C28.7696 69.3305 29.2967 70.9588 29.2967 73.0831ZM19.871 73.0831C19.871 74.513 20.1448 75.5897 20.6925 76.3134C21.2402 77.0371 22.0588 77.3989 23.1483 77.3989C25.3332 77.3989 26.4257 75.9603 26.4257 73.0831C26.4257 70.2001 25.3391 68.7586 23.166 68.7586C22.0765 68.7586 21.255 69.1233 20.7014 69.8528C20.1478 70.5765 19.871 71.6533 19.871 73.0831Z" fill="white"/>
<path id="OFORM_5" d="M52.3435 73.0831C52.3435 75.2016 51.8135 76.8299 50.7535 77.9679C49.6934 79.106 48.174 79.675 46.1952 79.675C44.2164 79.675 42.697 79.106 41.637 77.9679C40.5769 76.8299 40.0469 75.1958 40.0469 73.0656C40.0469 70.9354 40.5769 69.3101 41.637 68.1896C42.7029 67.0632 44.2282 66.5 46.2129 66.5C48.1975 66.5 49.714 67.0661 50.7623 68.1983C51.8165 69.3305 52.3435 70.9588 52.3435 73.0831ZM42.9179 73.0831C42.9179 74.513 43.1917 75.5897 43.7394 76.3134C44.2871 77.0371 45.1057 77.3989 46.1952 77.3989C48.3801 77.3989 49.4726 75.9603 49.4726 73.0831C49.4726 70.2001 48.386 68.7586 46.2129 68.7586C45.1234 68.7586 44.3018 69.1233 43.7482 69.8528C43.1947 70.5765 42.9179 71.6533 42.9179 73.0831Z" fill="white"/>
</g>
<g id="Group 78">
<path id="Rectangle 287" d="M57 29.5H80.5V48.5H15.5V10.5H56.5V29V29.5H57Z" fill="#F2F2F2" stroke="#BFBFBF"/>
<g id="Group 137">
<rect id="Rectangle 398" x="25" y="19" width="4" height="2" fill="#888888"/>
<rect id="Rectangle 399" x="31" y="19" width="4" height="2" fill="#888888"/>
<rect id="Rectangle 400" x="25" y="39" width="4" height="2" fill="#888888"/>
<rect id="Rectangle 401" x="31" y="39" width="4" height="2" fill="#888888"/>
<rect id="Rectangle 402" width="20" height="2" transform="matrix(-4.37114e-08 1 1 4.37114e-08 29 20)" fill="#888888"/>
</g>
</g>
<path id="ear shadow" opacity="0.3" d="M56 30V1H57V29H86L87 30H56Z" fill="black"/>
</g>
<defs>
<linearGradient id="paint0_linear_1357:6951" x1="48" y1="0" x2="48" y2="96" gradientUnits="userSpaceOnUse">
<stop stop-color="#DADADA"/>
<stop offset="1" stop-color="#828282"/>
</linearGradient>
<clipPath id="clip0_1357:6951">
<rect width="96" height="96" fill="white"/>
</clipPath>
</defs>
</svg>
