<svg width="96" height="96" viewBox="0 0 96 96" fill="none" xmlns="http://www.w3.org/2000/svg">
<g id="96X96 / OFORM" clip-path="url(#clip0_1822_17486)">
<path id="background" d="M10 1H57L86 30V95H10V1Z" fill="white"/>
<path id="Rectangle 506" d="M20 11H57V29H76V51H20V11Z" fill="#F2F2F2"/>
<g id="Group 137">
<rect id="Rectangle 398" x="28" y="20" width="4" height="2" fill="#888888"/>
<rect id="Rectangle 399" x="34" y="20" width="4" height="2" fill="#888888"/>
<rect id="Rectangle 400" x="28" y="40" width="4" height="2" fill="#888888"/>
<rect id="Rectangle 401" x="34" y="40" width="4" height="2" fill="#888888"/>
<rect id="Rectangle 402" width="20" height="2" transform="matrix(-4.37114e-08 1 1 4.37114e-08 32 21)" fill="#888888"/>
</g>
<path id="Rectangle 506 (Stroke)" fill-rule="evenodd" clip-rule="evenodd" d="M57 29V11H20V51H76V29H57ZM74 29H57V13H22V49H74V29Z" fill="#BFBFBF"/>
<path id="Union" d="M20 61C20 59.3433 21.3433 58 23 58H73C74.6569 58 76 59.3433 76 61V86C76 87.6567 74.6569 89 73 89H23C21.3433 89 20 87.6567 20 86V61Z" fill="#188079"/>
<path id="shadow" fill-rule="evenodd" clip-rule="evenodd" d="M10 95H86V30L57 1H10V95ZM57 0H9V96H87V30L57 0Z" fill="#BFBFBF"/>
<path id="ear shadow" opacity="0.3" d="M56 30V1H57V29H86L87 30H56Z" fill="black"/>
<path id="OFORM" d="M32.2716 73.2734C32.2716 75.1641 31.8028 76.6172 30.8653 77.6328C29.9278 78.6484 28.5841 79.1562 26.8341 79.1562C25.0841 79.1562 23.7403 78.6484 22.8028 77.6328C21.8653 76.6172 21.3966 75.1589 21.3966 73.2578C21.3966 71.3568 21.8653 69.9062 22.8028 68.9062C23.7455 67.901 25.0945 67.3984 26.8497 67.3984C28.6049 67.3984 29.946 67.9036 30.8731 68.9141C31.8054 69.9245 32.2716 71.3776 32.2716 73.2734ZM23.9356 73.2734C23.9356 74.5495 24.1778 75.5104 24.6622 76.1562C25.1466 76.8021 25.8705 77.125 26.8341 77.125C28.7664 77.125 29.7325 75.8411 29.7325 73.2734C29.7325 70.7005 28.7716 69.4141 26.8497 69.4141C25.8861 69.4141 25.1596 69.7396 24.67 70.3906C24.1804 71.0365 23.9356 71.9974 23.9356 73.2734ZM36.0616 79H33.6788V67.5781H40.2256V69.5625H36.0616V72.5078H39.9366V74.4844H36.0616V79ZM51.8672 73.2734C51.8672 75.1641 51.3984 76.6172 50.4609 77.6328C49.5234 78.6484 48.1797 79.1562 46.4297 79.1562C44.6797 79.1562 43.3359 78.6484 42.3984 77.6328C41.4609 76.6172 40.9922 75.1589 40.9922 73.2578C40.9922 71.3568 41.4609 69.9062 42.3984 68.9062C43.3411 67.901 44.6901 67.3984 46.4453 67.3984C48.2005 67.3984 49.5417 67.9036 50.4688 68.9141C51.401 69.9245 51.8672 71.3776 51.8672 73.2734ZM43.5312 73.2734C43.5312 74.5495 43.7734 75.5104 44.2578 76.1562C44.7422 76.8021 45.4661 77.125 46.4297 77.125C48.362 77.125 49.3281 75.8411 49.3281 73.2734C49.3281 70.7005 48.3672 69.4141 46.4453 69.4141C45.4818 69.4141 44.7552 69.7396 44.2656 70.3906C43.776 71.0365 43.5312 71.9974 43.5312 73.2734ZM55.6963 72.6484H56.4775C57.2431 72.6484 57.8082 72.5208 58.1728 72.2656C58.5374 72.0104 58.7197 71.6094 58.7197 71.0625C58.7197 70.5208 58.5322 70.1354 58.1572 69.9062C57.7874 69.6771 57.2119 69.5625 56.4306 69.5625H55.6963V72.6484ZM55.6963 74.6172V79H53.2744V67.5781H56.6025C58.1546 67.5781 59.303 67.862 60.0478 68.4297C60.7926 68.9922 61.165 69.849 61.165 71C61.165 71.6719 60.9801 72.2708 60.6103 72.7969C60.2405 73.3177 59.7171 73.7266 59.04 74.0234C60.7588 76.5911 61.8785 78.25 62.3994 79H59.7119L56.9853 74.6172H55.6963ZM67.7128 79L64.9628 70.0391H64.8925C64.9915 71.862 65.0409 73.0781 65.0409 73.6875V79H62.8769V67.5781H66.1738L68.8769 76.3125H68.9238L71.7909 67.5781H75.0878V79H72.83V73.5938C72.83 73.3385 72.8326 73.0443 72.8378 72.7109C72.8482 72.3776 72.8847 71.4922 72.9472 70.0547H72.8769L69.9316 79H67.7128Z" fill="white"/>
</g>
<defs>
<clipPath id="clip0_1822_17486">
<rect width="96" height="96" fill="white"/>
</clipPath>
</defs>
</svg>
