<svg width="96" height="96" viewBox="0 0 96 96" fill="none" xmlns="http://www.w3.org/2000/svg">
<g id="96X96 / otp" clip-path="url(#clip0)">
<path id="background" d="M10 1H57L86 30V95H10V1Z" fill="white"/>
<path id="shadow" fill-rule="evenodd" clip-rule="evenodd" d="M10 95H86V30L57 1H10V95ZM57 0H9V96H87V30L57 0Z" fill="url(#paint0_linear)"/>
<g id="format">
<path d="M28.4253 73.7568C28.4253 75.6211 28.8558 77.0361 29.7168 78.002C30.5778 78.9603 31.6709 79.4395 32.9961 79.4395C34.3213 79.4395 35.4069 78.964 36.2529 78.0132C37.1064 77.0548 37.5332 75.6211 37.5332 73.7119C37.5332 71.8252 37.1177 70.4176 36.2866 69.4893C35.4631 68.5609 34.3662 68.0967 32.9961 68.0967C31.626 68.0967 30.5216 68.5684 29.6831 69.5117C28.8446 70.4476 28.4253 71.8626 28.4253 73.7568Z" fill="#F37600"/>
<path d="M60.96 72.9932V68.3213H62.5659C63.7638 68.3213 64.5612 68.3587 64.958 68.4336C65.4971 68.5309 65.9425 68.7743 66.2944 69.1636C66.6463 69.5529 66.8223 70.047 66.8223 70.646C66.8223 71.1327 66.695 71.5594 66.4404 71.9263C66.1934 72.2931 65.849 72.5627 65.4072 72.7349C64.9655 72.9071 64.0895 72.9932 62.7793 72.9932H60.96Z" fill="#F37600"/>
<path fill-rule="evenodd" clip-rule="evenodd" d="M23 58C21.3431 58 20 59.3431 20 61V86C20 87.6569 21.3431 89 23 89H73C74.6569 89 76 87.6569 76 86V61C76 59.3431 74.6569 58 73 58H23ZM25 73.8691C25 72.1921 25.2508 70.7845 25.7524 69.6465C26.1268 68.8079 26.6359 68.0555 27.2798 67.3892C27.9312 66.7228 28.6424 66.2287 29.4136 65.9067C30.4393 65.4725 31.6222 65.2554 32.9624 65.2554C35.3882 65.2554 37.3273 66.0078 38.7798 67.5127C40.2397 69.0176 40.9697 71.1102 40.9697 73.7905C40.9697 76.4484 40.2472 78.5298 38.8022 80.0347C37.3573 81.5321 35.4256 82.2808 33.0073 82.2808C30.5591 82.2808 28.6125 81.5358 27.1675 80.0459C25.7225 78.5485 25 76.4896 25 73.8691ZM47.2812 82V68.3213H42.396V65.5361H55.4795V68.3213H50.6055V82H47.2812ZM57.6357 65.5361V82H60.96V75.7896H63.1274C64.6323 75.7896 65.7816 75.7109 66.5752 75.5537C67.1592 75.4264 67.7319 75.1681 68.2935 74.7788C68.8625 74.382 69.3304 73.8392 69.6973 73.1504C70.0641 72.4616 70.2476 71.6118 70.2476 70.6011C70.2476 69.2909 69.9294 68.224 69.293 67.4004C68.6566 66.5693 67.8667 66.0303 66.9233 65.7832C66.3094 65.6185 64.9917 65.5361 62.9702 65.5361H57.6357Z" fill="#F37600"/>
</g>
<g id="logo">
<path d="M57 11H20V51H76V29H73V48H23V14H57V11Z" fill="#BFBFBF"/>
<path d="M57 20H47V17H35V23H57V20Z" fill="#BFBFBF"/>
<path d="M32 17H26V23H32V17Z" fill="#BFBFBF"/>
<path d="M67 42H54V39H35V45H67V42Z" fill="#BFBFBF"/>
<path d="M52 28H35V34H44V31H52V28Z" fill="#BFBFBF"/>
<path d="M32 28H26V34H32V28Z" fill="#BFBFBF"/>
<path d="M32 39H26V45H32V39Z" fill="#BFBFBF"/>
</g>
<path id="ear shadow" opacity="0.3" d="M56 30V1H57V29H86L87 30H56Z" fill="black"/>
</g>
<defs>
<linearGradient id="paint0_linear" x1="48" y1="94.25" x2="48" y2="1.21299e-06" gradientUnits="userSpaceOnUse">
<stop stop-color="#A8A8A8"/>
<stop offset="1" stop-color="#DADADA"/>
</linearGradient>
<clipPath id="clip0">
<rect width="96" height="96" fill="white"/>
</clipPath>
</defs>
</svg>
