<svg width="96" height="96" viewBox="0 0 96 96" fill="none" xmlns="http://www.w3.org/2000/svg">
<g id="96X96 / ots" clip-path="url(#clip0)">
<path id="background" d="M10 1H57L86 30V95H10V1Z" fill="white"/>
<path id="shadow" fill-rule="evenodd" clip-rule="evenodd" d="M10 95H86V30L57 1H10V95ZM57 0H9V96H87V30L57 0Z" fill="url(#paint0_linear)"/>
<g id="format">
<path d="M28.4253 73.7568C28.4253 75.6211 28.8558 77.0361 29.7168 78.002C30.5778 78.9603 31.6709 79.4395 32.9961 79.4395C34.3213 79.4395 35.4069 78.964 36.2529 78.0132C37.1064 77.0548 37.5332 75.6211 37.5332 73.7119C37.5332 71.8252 37.1177 70.4176 36.2866 69.4893C35.4631 68.5609 34.3662 68.0967 32.9961 68.0967C31.626 68.0967 30.5216 68.5684 29.6831 69.5117C28.8446 70.4476 28.4253 71.8626 28.4253 73.7568Z" fill="#679F24"/>
<path fill-rule="evenodd" clip-rule="evenodd" d="M23 58C21.3431 58 20 59.3431 20 61V86C20 87.6569 21.3431 89 23 89H73C74.6569 89 76 87.6569 76 86V61C76 59.3431 74.6569 58 73 58H23ZM25 73.8691C25 72.1921 25.2508 70.7845 25.7524 69.6465C26.1268 68.8079 26.6359 68.0555 27.2798 67.3892C27.9312 66.7228 28.6424 66.2287 29.4136 65.9067C30.4393 65.4725 31.6222 65.2554 32.9624 65.2554C35.3882 65.2554 37.3273 66.0078 38.7798 67.5127C40.2397 69.0176 40.9697 71.1102 40.9697 73.7905C40.9697 76.4484 40.2472 78.5298 38.8022 80.0347C37.3573 81.5321 35.4256 82.2808 33.0073 82.2808C30.5591 82.2808 28.6125 81.5358 27.1675 80.0459C25.7225 78.5485 25 76.4896 25 73.8691ZM47.2812 82V68.3213H42.396V65.5361H55.4795V68.3213H50.6055V82H47.2812ZM60.0278 76.3286L56.7935 76.6431C57.0106 78.4849 57.6769 79.8887 58.7925 80.8545C59.908 81.8128 61.5065 82.292 63.5879 82.292C65.0179 82.292 66.2121 82.0936 67.1704 81.6968C68.1287 81.2925 68.87 80.6786 69.394 79.855C69.9181 79.0314 70.1802 78.1479 70.1802 77.2046C70.1802 76.1639 69.9593 75.2917 69.5176 74.5879C69.0833 73.8766 68.4769 73.3188 67.6982 72.9146C66.9271 72.5028 65.7329 72.106 64.1157 71.7241C62.4985 71.3423 61.4803 70.9754 61.061 70.6235C60.7316 70.3465 60.5669 70.0133 60.5669 69.624C60.5669 69.1973 60.7428 68.8566 61.0947 68.6021C61.6413 68.2052 62.3975 68.0068 63.3633 68.0068C64.2992 68.0068 64.9992 68.194 65.4634 68.5684C65.9351 68.9352 66.242 69.5417 66.3843 70.3877L69.7085 70.2417C69.6561 68.7293 69.1058 67.5202 68.0576 66.6143C67.0169 65.7083 65.4634 65.2554 63.397 65.2554C62.1317 65.2554 61.0498 65.4463 60.1514 65.8281C59.2604 66.21 58.5754 66.7677 58.0962 67.5015C57.6245 68.2277 57.3887 69.0101 57.3887 69.8486C57.3887 71.1514 57.894 72.2557 58.9048 73.1616C59.6235 73.8055 60.8739 74.3483 62.6558 74.79C64.0409 75.1344 64.9281 75.374 65.3174 75.5088C65.8864 75.7109 66.2832 75.9505 66.5078 76.2275C66.7399 76.4971 66.856 76.8265 66.856 77.2158C66.856 77.8223 66.5827 78.3538 66.0361 78.8105C65.4971 79.2598 64.6922 79.4844 63.6216 79.4844C62.6108 79.4844 61.806 79.2298 61.207 78.7207C60.6156 78.2116 60.2225 77.4142 60.0278 76.3286Z" fill="#679F24"/>
</g>
<path id="logo" fill-rule="evenodd" clip-rule="evenodd" d="M57 11H20V50H76V29H73V37H41V14H57V11ZM29 14H23V37H29V14ZM32 14V37H38V14H32ZM32 40H38V47H32V40ZM41 40V47H73V40H41ZM29 40H23V47H29V40Z" fill="#C4C4C4"/>
<path id="ear shadow" opacity="0.3" d="M56 30V1H57V29H86L87 30H56Z" fill="black"/>
</g>
<defs>
<linearGradient id="paint0_linear" x1="48" y1="94.25" x2="48" y2="1.21299e-06" gradientUnits="userSpaceOnUse">
<stop stop-color="#A8A8A8"/>
<stop offset="1" stop-color="#DADADA"/>
</linearGradient>
<clipPath id="clip0">
<rect width="96" height="96" fill="white"/>
</clipPath>
</defs>
</svg>
