<svg width="96" height="96" viewBox="0 0 96 96" fill="none" xmlns="http://www.w3.org/2000/svg">
<g id="96x96 / ott" clip-path="url(#clip0)">
<path id="background" d="M10 1H57L86 30V95H10V1Z" fill="white"/>
<path id="shadow" fill-rule="evenodd" clip-rule="evenodd" d="M10 95H86V30L57 1H10V95ZM57 0H9V96H87V30L57 0Z" fill="url(#paint0_linear)"/>
<g id="logo">
<path d="M57 11H20V18H57V11Z" fill="#BFBFBF"/>
<path d="M57 22H20V29H57V22Z" fill="#BFBFBF"/>
<path d="M76 33H20V40H76V33Z" fill="#BFBFBF"/>
<path d="M20 44H76V51H20V44Z" fill="#BFBFBF"/>
</g>
<path id="ear shadow" opacity="0.3" d="M56 30V1H57V29H86L87 30H56Z" fill="black"/>
<g id="Subtract">
<path d="M31.6541 73.5488C31.6541 75.0078 31.991 76.1152 32.6648 76.8711C33.3386 77.6211 34.1941 77.9961 35.2312 77.9961C36.2683 77.9961 37.1179 77.624 37.78 76.8799C38.448 76.1299 38.782 75.0078 38.782 73.5137C38.782 72.0371 38.4568 70.9355 37.8064 70.209C37.1619 69.4824 36.3035 69.1191 35.2312 69.1191C34.1589 69.1191 33.2947 69.4883 32.6384 70.2266C31.9822 70.959 31.6541 72.0664 31.6541 73.5488Z" fill="#0984B7"/>
<path fill-rule="evenodd" clip-rule="evenodd" d="M23 58C21.3431 58 20 59.3431 20 61V86C20 87.6569 21.3431 89 23 89H73C74.6569 89 76 87.6569 76 86V61C76 59.3431 74.6569 58 73 58H23ZM28.9734 73.6367C28.9734 72.3242 29.1697 71.2227 29.5623 70.332C29.8552 69.6758 30.2537 69.0869 30.7576 68.5654C31.2673 68.0439 31.824 67.6572 32.4275 67.4053C33.2302 67.0654 34.156 66.8955 35.2048 66.8955C37.1033 66.8955 38.6208 67.4844 39.7576 68.6621C40.9001 69.8398 41.4714 71.4775 41.4714 73.5752C41.4714 75.6553 40.906 77.2842 39.7751 78.4619C38.6443 79.6338 37.1326 80.2197 35.24 80.2197C33.324 80.2197 31.8005 79.6367 30.6697 78.4707C29.5388 77.2988 28.9734 75.6875 28.9734 73.6367ZM48.2109 80V69.2949H44.3876V67.1152H54.6269V69.2949H50.8125V80H48.2109ZM61.0148 69.2949V80H63.6164V69.2949H67.4308V67.1152H57.1916V69.2949H61.0148Z" fill="#0984B7"/>
</g>
</g>
<defs>
<linearGradient id="paint0_linear" x1="48" y1="94.25" x2="48" y2="1.21299e-06" gradientUnits="userSpaceOnUse">
<stop stop-color="#A8A8A8"/>
<stop offset="1" stop-color="#DADADA"/>
</linearGradient>
<clipPath id="clip0">
<rect width="96" height="96" fill="white"/>
</clipPath>
</defs>
</svg>
