<svg width="96" height="96" viewBox="0 0 96 96" fill="none" xmlns="http://www.w3.org/2000/svg">
<g id="96X96 / pot" clip-path="url(#clip0)">
<path id="background" d="M10 1H57L86 30V95H10V1Z" fill="white"/>
<path id="shadow" fill-rule="evenodd" clip-rule="evenodd" d="M10 95H86V30L57 1H10V95ZM57 0H9V96H87V30L57 0Z" fill="url(#paint0_linear)"/>
<g id="logo">
<path d="M57 11H20V51H76V29H73V48H23V14H57V11Z" fill="#BFBFBF"/>
<path d="M32 17H26V23H32V17Z" fill="#BFBFBF"/>
<path d="M26 28H32V34H26V28Z" fill="#BFBFBF"/>
<path d="M32 39H26V45H32V39Z" fill="#BFBFBF"/>
<path d="M35 17H46V20H52V23H35V17Z" fill="#BFBFBF"/>
<path d="M57 28V29H62V31H50V34H35V28H57Z" fill="#BFBFBF"/>
<path d="M70 39H35V45H59V42H70V39Z" fill="#BFBFBF"/>
</g>
<path id="ear shadow" opacity="0.3" d="M56 30V1H57V29H86L87 30H56Z" fill="black"/>
<g id="Subtract">
<path d="M44.1143 73.7573C44.1143 75.6216 44.5448 77.0366 45.4058 78.0024C46.2668 78.9608 47.3599 79.4399 48.6851 79.4399C50.0103 79.4399 51.0959 78.9645 51.9419 78.0137C52.7954 77.0553 53.2222 75.6216 53.2222 73.7124C53.2222 71.8257 52.8066 70.4181 51.9756 69.4897C51.152 68.5614 50.0552 68.0972 48.6851 68.0972C47.3149 68.0972 46.2106 68.5688 45.3721 69.5122C44.5335 70.4481 44.1143 71.8631 44.1143 73.7573Z" fill="#F36700"/>
<path d="M29.3462 68.3218V72.9937H31.1655C32.4757 72.9937 33.3517 72.9076 33.7935 72.7354C34.2352 72.5631 34.5796 72.2936 34.8267 71.9268C35.0812 71.5599 35.2085 71.1331 35.2085 70.6465C35.2085 70.0475 35.0326 69.5534 34.6807 69.1641C34.3288 68.7747 33.8833 68.5314 33.3442 68.4341C32.9474 68.3592 32.1501 68.3218 30.9521 68.3218H29.3462Z" fill="#F36700"/>
<path fill-rule="evenodd" clip-rule="evenodd" d="M23 58C21.3431 58 20 59.3431 20 61V86C20 87.6569 21.3431 89 23 89H73C74.6569 89 76 87.6569 76 86V61C76 59.3431 74.6569 58 73 58H23ZM40.689 73.8696C40.689 72.1925 40.9398 70.785 41.4414 69.647C41.8158 68.8084 42.3249 68.056 42.9688 67.3896C43.6201 66.7233 44.3314 66.2292 45.1025 65.9072C46.1283 65.473 47.3112 65.2559 48.6514 65.2559C51.0771 65.2559 53.0163 66.0083 54.4688 67.5132C55.9287 69.0181 56.6587 71.1107 56.6587 73.791C56.6587 76.4489 55.9362 78.5303 54.4912 80.0352C53.0462 81.5326 51.1146 82.2812 48.6963 82.2812C46.248 82.2812 44.3014 81.5363 42.8564 80.0464C41.4115 78.549 40.689 76.4901 40.689 73.8696ZM26.022 82.0005V65.5366H31.3564C33.3779 65.5366 34.6956 65.619 35.3096 65.7837C36.2529 66.0308 37.0428 66.5698 37.6792 67.4009C38.3156 68.2244 38.6338 69.2913 38.6338 70.6016C38.6338 71.6123 38.4504 72.4621 38.0835 73.1509C37.7166 73.8397 37.2487 74.3825 36.6797 74.7793C36.1182 75.1686 35.5454 75.4269 34.9614 75.5542C34.1678 75.7114 33.0186 75.79 31.5137 75.79H29.3462V82.0005H26.022ZM62.9702 68.3218V82.0005H66.2944V68.3218H71.1685V65.5366H58.085V68.3218H62.9702Z" fill="#F36700"/>
</g>
</g>
<defs>
<linearGradient id="paint0_linear" x1="48" y1="94.25" x2="48" y2="1.21299e-06" gradientUnits="userSpaceOnUse">
<stop stop-color="#A8A8A8"/>
<stop offset="1" stop-color="#DADADA"/>
</linearGradient>
<clipPath id="clip0">
<rect width="96" height="96" fill="white"/>
</clipPath>
</defs>
</svg>
