<svg width="96" height="96" viewBox="0 0 96 96" fill="none" xmlns="http://www.w3.org/2000/svg">
<g clip-path="url(#clip0)">
<path d="M10 1H57L86 30V95H10V1Z" fill="white"/>
<path fill-rule="evenodd" clip-rule="evenodd" d="M10 95H86V30L57 1H10V95ZM57 0H9.00002V96H87V30L57 0Z" fill="#BFBFBF"/>
<path d="M30.6265 72.9932V68.3213H32.2324C33.4303 68.3213 34.2277 68.3587 34.6245 68.4336C35.1636 68.5309 35.6091 68.7743 35.9609 69.1636C36.3128 69.5529 36.4888 70.047 36.4888 70.646C36.4888 71.1327 36.3615 71.5594 36.1069 71.9263C35.8599 72.2931 35.5155 72.5627 35.0737 72.7349C34.632 72.9071 33.756 72.9932 32.4458 72.9932H30.6265Z" fill="#F36700"/>
<path d="M45.9673 72.9932V68.3213H47.5732C48.7712 68.3213 49.5685 68.3587 49.9653 68.4336C50.5044 68.5309 50.9499 68.7743 51.3018 69.1636C51.6536 69.5529 51.8296 70.047 51.8296 70.646C51.8296 71.1327 51.7023 71.5594 51.4478 71.9263C51.2007 72.2931 50.8563 72.5627 50.4146 72.7349C49.9728 72.9071 49.0968 72.9932 47.7866 72.9932H45.9673Z" fill="#F36700"/>
<path fill-rule="evenodd" clip-rule="evenodd" d="M23 58C21.3431 58 20 59.3431 20 61V86C20 87.6569 21.3431 89 23 89H73C74.6569 89 76 87.6569 76 86V61C76 59.3431 74.6569 58 73 58H23ZM27.3022 65.5361V82H30.6265V75.7896H32.7939C34.2988 75.7896 35.4481 75.7109 36.2417 75.5537C36.8257 75.4264 37.3984 75.1681 37.96 74.7788C38.529 74.382 38.9969 73.8392 39.3638 73.1504C39.7306 72.4616 39.9141 71.6118 39.9141 70.6011C39.9141 69.2909 39.5959 68.224 38.9595 67.4004C38.3231 66.5693 37.5332 66.0303 36.5898 65.7832C35.9759 65.6185 34.6582 65.5361 32.6367 65.5361H27.3022ZM42.6431 65.5361V82H45.9673V75.7896H48.1348C49.6396 75.7896 50.7889 75.7109 51.5825 75.5537C52.1665 75.4264 52.7393 75.1681 53.3008 74.7788C53.8698 74.382 54.3377 73.8392 54.7046 73.1504C55.0715 72.4616 55.2549 71.6118 55.2549 70.6011C55.2549 69.2909 54.9367 68.224 54.3003 67.4004C53.6639 66.5693 52.874 66.0303 51.9307 65.7832C51.3167 65.6185 49.999 65.5361 47.9775 65.5361H42.6431ZM61.6899 68.3213V82H65.0142V68.3213H69.8882V65.5361H56.8047V68.3213H61.6899Z" fill="#F36700"/>
<path d="M57 11H20V51H76V29H73V48H23V14H57V11Z" fill="#BFBFBF"/>
<path d="M32 17H26V23H32V17Z" fill="#BFBFBF"/>
<path d="M26 28H32V34H26V28Z" fill="#BFBFBF"/>
<path d="M32 39H26V45H32V39Z" fill="#BFBFBF"/>
<path d="M35 17H46V20H52V23H35V17Z" fill="#BFBFBF"/>
<path d="M57 28V29H62V31H50V34H35V28H57Z" fill="#BFBFBF"/>
<path d="M70 39H35V45H59V42H70V39Z" fill="#BFBFBF"/>
<path opacity="0.3" d="M56 30V1H57V29H86L87 30H56Z" fill="black"/>
</g>
<defs>
<clipPath id="clip0">
<rect width="96" height="96" fill="white"/>
</clipPath>
</defs>
</svg>
