<svg width="96" height="96" viewBox="0 0 96 96" fill="none" xmlns="http://www.w3.org/2000/svg">
<g id="96X96 / pptm" clip-path="url(#clip0)">
<path id="background" d="M10 1H57L86 30V95H10V1Z" fill="white"/>
<path id="shadow" fill-rule="evenodd" clip-rule="evenodd" d="M10 95H86V30L57 1H10V95ZM57 0H9V96H87V30L57 0Z" fill="url(#paint0_linear)"/>
<g id="logo">
<path d="M57 11H20V51H76V29H73V48H23V14H57V11Z" fill="#BFBFBF"/>
<path d="M32 17H26V23H32V17Z" fill="#BFBFBF"/>
<path d="M26 28H32V34H26V28Z" fill="#BFBFBF"/>
<path d="M32 39H26V45H32V39Z" fill="#BFBFBF"/>
<path d="M35 17H46V20H52V23H35V17Z" fill="#BFBFBF"/>
<path d="M57 28V29H62V31H50V34H35V28H57Z" fill="#BFBFBF"/>
<path d="M70 39H35V45H59V42H70V39Z" fill="#BFBFBF"/>
</g>
<path id="ear shadow" opacity="0.3" d="M56 30V1H57V29H86L87 30H56Z" fill="black"/>
<rect id="Rectangle 75" x="20" y="58" width="56" height="31" rx="3" fill="#F36700"/>
<path id="PPTM" d="M23.1719 81V66.6836H27.8105C29.5684 66.6836 30.7142 66.7552 31.248 66.8984C32.0684 67.1133 32.7552 67.582 33.3086 68.3047C33.862 69.0208 34.1387 69.9486 34.1387 71.0879C34.1387 71.9668 33.9792 72.7057 33.6602 73.3047C33.3411 73.9036 32.9342 74.3757 32.4395 74.7207C31.9512 75.0592 31.4531 75.2839 30.9453 75.3945C30.2552 75.5312 29.2559 75.5996 27.9473 75.5996H26.0625V81H23.1719ZM26.0625 69.1055V73.168H27.6445C28.7839 73.168 29.5456 73.0931 29.9297 72.9434C30.3138 72.7936 30.6133 72.5592 30.8281 72.2402C31.0495 71.9212 31.1602 71.5501 31.1602 71.127C31.1602 70.6061 31.0072 70.1764 30.7012 69.8379C30.3952 69.4993 30.0078 69.2878 29.5391 69.2031C29.194 69.138 28.5007 69.1055 27.459 69.1055H26.0625ZM35.5117 81V66.6836H40.1504C41.9082 66.6836 43.054 66.7552 43.5879 66.8984C44.4082 67.1133 45.0951 67.582 45.6484 68.3047C46.2018 69.0208 46.4785 69.9486 46.4785 71.0879C46.4785 71.9668 46.319 72.7057 46 73.3047C45.681 73.9036 45.2741 74.3757 44.7793 74.7207C44.291 75.0592 43.793 75.2839 43.2852 75.3945C42.5951 75.5312 41.5957 75.5996 40.2871 75.5996H38.4023V81H35.5117ZM38.4023 69.1055V73.168H39.9844C41.1237 73.168 41.8854 73.0931 42.2695 72.9434C42.6536 72.7936 42.9531 72.5592 43.168 72.2402C43.3893 71.9212 43.5 71.5501 43.5 71.127C43.5 70.6061 43.347 70.1764 43.041 69.8379C42.735 69.4993 42.3477 69.2878 41.8789 69.2031C41.5339 69.138 40.8405 69.1055 39.7988 69.1055H38.4023ZM51.0742 81V69.1055H46.8262V66.6836H58.2031V69.1055H53.9648V81H51.0742ZM59.0391 81V66.6836H63.3652L65.9629 76.4492L68.5312 66.6836H72.8672V81H70.1816V69.7305L67.3398 81H64.5566L61.7246 69.7305V81H59.0391Z" fill="white"/>
</g>
<defs>
<linearGradient id="paint0_linear" x1="48" y1="94.25" x2="48" y2="1.21299e-06" gradientUnits="userSpaceOnUse">
<stop stop-color="#A8A8A8"/>
<stop offset="1" stop-color="#DADADA"/>
</linearGradient>
<clipPath id="clip0">
<rect width="96" height="96" fill="white"/>
</clipPath>
</defs>
</svg>
