<svg width="96" height="96" viewBox="0 0 96 96" fill="none" xmlns="http://www.w3.org/2000/svg">
<g clip-path="url(#clip0)">
<path d="M10 1H57L86 30V95H10V1Z" fill="white"/>
<path fill-rule="evenodd" clip-rule="evenodd" d="M10 95H86V30L57 1H10V95ZM57 0H9.00002V96H87V30L57 0Z" fill="#BFBFBF"/>
<path d="M25.0352 72.7764V68.5107H26.5015C27.5952 68.5107 28.3232 68.5449 28.6855 68.6133C29.1777 68.7021 29.5845 68.9243 29.9058 69.2798C30.2271 69.6353 30.3877 70.0864 30.3877 70.6333C30.3877 71.0776 30.2715 71.4673 30.0391 71.8022C29.8135 72.1372 29.499 72.3833 29.0957 72.5405C28.6924 72.6978 27.8926 72.7764 26.6963 72.7764H25.0352Z" fill="#F36700"/>
<path d="M38.8506 72.7764V68.5107H40.3169C41.4107 68.5107 42.1387 68.5449 42.501 68.6133C42.9932 68.7021 43.3999 68.9243 43.7212 69.2798C44.0425 69.6353 44.2032 70.0864 44.2032 70.6333C44.2032 71.0776 44.0869 71.4673 43.8545 71.8022C43.6289 72.1372 43.3145 72.3833 42.9112 72.5405C42.5078 72.6978 41.708 72.7764 40.5117 72.7764H38.8506Z" fill="#F36700"/>
<path fill-rule="evenodd" clip-rule="evenodd" d="M23 58C21.3431 58 20 59.3431 20 61V86C20 87.6569 21.3431 89 23 89H73C74.6569 89 76 87.6569 76 86V61C76 59.3431 74.6569 58 73 58H23ZM22 65.9678V81H25.0352V75.3296H27.0142C28.3882 75.3296 29.4375 75.2578 30.1621 75.1143C30.6953 74.998 31.2183 74.7622 31.731 74.4067C32.2505 74.0444 32.6777 73.5488 33.0127 72.9199C33.3477 72.291 33.5151 71.5151 33.5151 70.5923C33.5151 69.396 33.2246 68.4219 32.6436 67.6699C32.0625 66.9111 31.3413 66.4189 30.48 66.1934C29.9194 66.043 28.7163 65.9678 26.8706 65.9678H22ZM35.8155 65.9678V81H38.8506V75.3296H40.8296C42.2036 75.3296 43.253 75.2578 43.9776 75.1143C44.5108 74.998 45.0337 74.7622 45.5464 74.4067C46.0659 74.0444 46.4932 73.5488 46.8282 72.9199C47.1631 72.291 47.3306 71.5151 47.3306 70.5923C47.3306 69.396 47.0401 68.4219 46.459 67.6699C45.878 66.9111 45.1568 66.4189 44.2954 66.1934C43.7349 66.043 42.5318 65.9678 40.6861 65.9678H35.8155ZM52.5146 81V68.5107H48.0542V65.9678H60V68.5107H55.5498V81H52.5146ZM65.4296 73.1558L60.2924 81H63.9325L67.2753 75.8013L70.6078 81H74.2684L69.1312 73.2686L73.807 65.9678H70.2899L67.3368 70.7974L64.3221 65.9678H60.7743L65.4296 73.1558Z" fill="#F36700"/>
<path d="M57 11H20V51H76V29H73V48H23V14H57V11Z" fill="#BFBFBF"/>
<path d="M32 17H26V23H32V17Z" fill="#BFBFBF"/>
<path d="M26 28H32V34H26V28Z" fill="#BFBFBF"/>
<path d="M32 39H26V45H32V39Z" fill="#BFBFBF"/>
<path d="M35 17H46V20H52V23H35V17Z" fill="#BFBFBF"/>
<path d="M57 28V29H62V31H50V34H35V28H57Z" fill="#BFBFBF"/>
<path d="M70 39H35V45H59V42H70V39Z" fill="#BFBFBF"/>
<path opacity="0.3" d="M56 30V1H57V29H86L87 30H56Z" fill="black"/>
</g>
<defs>
<clipPath id="clip0">
<rect width="96" height="96" fill="white"/>
</clipPath>
</defs>
</svg>
