<svg width="96" height="96" viewBox="0 0 96 96" fill="none" xmlns="http://www.w3.org/2000/svg">
<g clip-path="url(#clip0)">
<path d="M10 1H57L86 30V95H10V1Z" fill="white"/>
<path fill-rule="evenodd" clip-rule="evenodd" d="M10 95H86V30L57 1H10V95ZM57 0H9.00002V96H87V30L57 0Z" fill="#BFBFBF"/>
<path fill-rule="evenodd" clip-rule="evenodd" d="M23 58C21.3431 58 20 59.3431 20 61V86C20 87.6569 21.3431 89 23 89H73C74.6569 89 76 87.6569 76 86V61C76 59.3431 74.6569 58 73 58H23ZM27.7739 76.3286L24.5396 76.6431C24.7567 78.4849 25.423 79.8887 26.5386 80.8545C27.6541 81.8128 29.2526 82.292 31.334 82.292C32.764 82.292 33.9582 82.0936 34.9165 81.6968C35.8748 81.2925 36.616 80.6786 37.1401 79.855C37.6642 79.0314 37.9263 78.1479 37.9263 77.2046C37.9263 76.1639 37.7054 75.2917 37.2637 74.5879C36.8294 73.8766 36.223 73.3188 35.4443 72.9146C34.6732 72.5028 33.479 72.106 31.8618 71.7241C30.2446 71.3423 29.2264 70.9754 28.8071 70.6235C28.4777 70.3465 28.313 70.0133 28.313 69.624C28.313 69.1973 28.4889 68.8566 28.8408 68.6021C29.3874 68.2052 30.1436 68.0068 31.1094 68.0068C32.0452 68.0068 32.7453 68.194 33.2095 68.5684C33.6812 68.9352 33.9881 69.5417 34.1304 70.3877L37.4546 70.2417C37.4022 68.7293 36.8519 67.5202 35.8037 66.6143C34.763 65.7083 33.2095 65.2554 31.1431 65.2554C29.8778 65.2554 28.7959 65.4463 27.8975 65.8281C27.0065 66.21 26.3215 66.7677 25.8423 67.5015C25.3706 68.2277 25.1348 69.0101 25.1348 69.8486C25.1348 71.1514 25.6401 72.2557 26.6509 73.1616C27.3696 73.8055 28.62 74.3483 30.4019 74.79C31.7869 75.1344 32.6742 75.374 33.0635 75.5088C33.6325 75.7109 34.0293 75.9505 34.2539 76.2275C34.486 76.4971 34.6021 76.8265 34.6021 77.2158C34.6021 77.8223 34.3288 78.3538 33.7822 78.8105C33.2432 79.2598 32.4383 79.4844 31.3677 79.4844C30.3569 79.4844 29.5521 79.2298 28.9531 78.7207C28.3617 78.2116 27.9686 77.4142 27.7739 76.3286ZM39.0381 65.5361L44.9229 82H48.4717L54.3677 65.5361H50.8413L46.8096 77.7212L42.6431 65.5361H39.0381ZM63.7227 73.1729V75.9468H67.5298V78.0356C67.0282 78.425 66.4255 78.7581 65.7217 79.0352C65.0254 79.3047 64.3291 79.4395 63.6328 79.4395C62.2253 79.4395 61.0872 78.9528 60.2188 77.9795C59.3503 76.9987 58.916 75.5312 58.916 73.5771C58.916 71.7653 59.3428 70.3989 60.1963 69.478C61.0573 68.5571 62.214 68.0967 63.6665 68.0967C64.6248 68.0967 65.4222 68.3325 66.0586 68.8042C66.7025 69.2684 67.1405 69.9048 67.3726 70.7134L70.6743 70.0957C70.3449 68.5833 69.6037 67.4004 68.4507 66.5469C67.3052 65.6859 65.7104 65.2554 63.6665 65.2554C62.0942 65.2554 60.7803 65.5286 59.7246 66.0752C58.3395 66.7865 57.2876 67.8084 56.5688 69.1411C55.8501 70.4738 55.4907 71.9974 55.4907 73.7119C55.4907 75.2917 55.8127 76.7554 56.4565 78.103C57.1004 79.4432 58.0625 80.4764 59.3428 81.2026C60.623 81.9214 62.1242 82.2808 63.8462 82.2808C65.2013 82.2808 66.5378 82.0262 67.8555 81.5171C69.1807 81.0005 70.1914 80.4053 70.8877 79.7314V73.1729H63.7227Z" fill="#507C8B"/>
<path d="M58.3414 29C58.1203 29.6256 58 30.2987 58 31C58 32.1777 58.3393 33.2761 58.9255 34.2029L49.5 44.2175V29.811C52.0878 29.145 54 26.7957 54 24C54 20.6863 51.3137 18 48 18C44.6863 18 42 20.6863 42 24C42 26.7957 43.9122 29.145 46.5 29.811V44.2175L37.0745 34.2029C37.6607 33.2761 38 32.1777 38 31C38 27.6863 35.3137 25 32 25C28.6863 25 26 27.6863 26 31C26 34.3137 28.6863 37 32 37C33.0478 37 34.0329 36.7314 34.8901 36.2593L44.5284 46.5H31.811C31.1449 43.9121 28.7957 42 26 42C22.6863 42 20 44.6863 20 48C20 48.7012 20.1203 49.3745 20.3414 50H75.6586C75.8797 49.3745 76 48.7012 76 48C76 44.6863 73.3137 42 70 42C67.2042 42 64.8551 43.9121 64.189 46.5H51.4716L61.1099 36.2593C61.9671 36.7314 62.9522 37 64 37C67.3137 37 70 34.3137 70 31C70 30.2987 69.8797 29.6256 69.6586 29H58.3414Z" fill="#BFBFBF"/>
<path opacity="0.3" d="M56 30V1H57V29H86L87 30H56Z" fill="black"/>
</g>
<defs>
<clipPath id="clip0">
<rect width="96" height="96" fill="white"/>
</clipPath>
</defs>
</svg>
