<svg width="96" height="96" viewBox="0 0 96 96" fill="none" xmlns="http://www.w3.org/2000/svg">
<g clip-path="url(#clip0)">
<path d="M10 1H57L86 30V95H10V1Z" fill="white"/>
<path fill-rule="evenodd" clip-rule="evenodd" d="M10 95H86V30L57 1H10V95ZM57 0H9.00002V96H87V30L57 0Z" fill="#BFBFBF"/>
<path fill-rule="evenodd" clip-rule="evenodd" d="M23 58C21.3431 58 20 59.3431 20 61V86C20 87.6569 21.3431 89 23 89H73C74.6569 89 76 87.6569 76 86V61C76 59.3431 74.6569 58 73 58H23ZM31.1884 68.3213V82H34.5127V68.3213H39.3867V65.5361H26.3032V68.3213H31.1884ZM45.9561 73.4087L40.3296 82H44.3164L47.9775 76.3062L51.6274 82H55.6367L50.0103 73.5322L55.1313 65.5361H51.2793L48.0449 70.8257L44.7432 65.5361H40.8574L45.9561 73.4087ZM61.5098 68.3213V82H64.834V68.3213H69.708V65.5361H56.6245V68.3213H61.5098Z" fill="#848F92"/>
<path fill-rule="evenodd" clip-rule="evenodd" d="M20 17H51V20H20V17Z" fill="#BFBFBF"/>
<path fill-rule="evenodd" clip-rule="evenodd" d="M20 23H51V26H20V23Z" fill="#BFBFBF"/>
<path fill-rule="evenodd" clip-rule="evenodd" d="M20 29H51V32H20V29Z" fill="#BFBFBF"/>
<path fill-rule="evenodd" clip-rule="evenodd" d="M20 35H77V38H20V35Z" fill="#BFBFBF"/>
<path fill-rule="evenodd" clip-rule="evenodd" d="M20 41H77V44H20V41Z" fill="#BFBFBF"/>
<path fill-rule="evenodd" clip-rule="evenodd" d="M20 47H77V50H20V47Z" fill="#BFBFBF"/>
<path opacity="0.3" d="M56 30V1H57V29H86L87 30H56Z" fill="black"/>
</g>
<defs>
<clipPath id="clip0">
<rect width="96" height="96" fill="white"/>
</clipPath>
</defs>
</svg>
