<svg width="96" height="96" viewBox="0 0 96 96" fill="none" xmlns="http://www.w3.org/2000/svg">
<g id="96x96 / xlsm" clip-path="url(#clip0)">
<path id="background" d="M10 1H57L86 30V95H10V1Z" fill="white"/>
<path id="shadow" fill-rule="evenodd" clip-rule="evenodd" d="M10 95H86V30L57 1H10V95ZM57 0H9V96H87V30L57 0Z" fill="url(#paint0_linear)"/>
<path id="logo" fill-rule="evenodd" clip-rule="evenodd" d="M57 11H20V50H76V29H57V11ZM73 41V47H58V41H73ZM73 32V38H58V32H73ZM55 14H41V20H55V14ZM55 23H41V29H55V23ZM55 32H41V38H55V32ZM55 41H41V47H55V41ZM23 14H38V20H23V14ZM23 23H38V29H23V23ZM23 32H38V38H23V32ZM23 41H38V47H23V41Z" fill="#BFBFBF"/>
<path id="ear shadow" opacity="0.3" d="M56 30V1H57V29H86L87 30H56Z" fill="black"/>
<rect id="Rectangle 1" x="20" y="58" width="56" height="31" rx="3" fill="#6AAA1E"/>
<path id="XLSM" d="M21.7168 81L26.6094 73.5293L22.1758 66.6836H25.5547L28.4258 71.2832L31.2383 66.6836H34.5879L30.1348 73.6367L35.0273 81H31.541L28.3672 76.0488L25.1836 81H21.7168ZM35.5898 81V66.8008H38.4805V78.5879H45.668V81H35.5898ZM46.0059 76.3418L48.8184 76.0684C48.9876 77.0124 49.3294 77.7057 49.8438 78.1484C50.3646 78.5911 51.0645 78.8125 51.9434 78.8125C52.8743 78.8125 53.5742 78.6172 54.043 78.2266C54.5182 77.8294 54.7559 77.3672 54.7559 76.8398C54.7559 76.5013 54.6549 76.2148 54.4531 75.9805C54.2578 75.7396 53.9128 75.5312 53.418 75.3555C53.0794 75.2383 52.3079 75.0299 51.1035 74.7305C49.554 74.3464 48.4668 73.8743 47.8418 73.3145C46.9629 72.5267 46.5234 71.5664 46.5234 70.4336C46.5234 69.7044 46.7285 69.0241 47.1387 68.3926C47.5553 67.7546 48.151 67.2695 48.9258 66.9375C49.707 66.6055 50.6478 66.4395 51.748 66.4395C53.5449 66.4395 54.8958 66.8333 55.8008 67.6211C56.7122 68.4089 57.1908 69.4603 57.2363 70.7754L54.3457 70.9023C54.222 70.1667 53.9551 69.6393 53.5449 69.3203C53.1413 68.9948 52.5326 68.832 51.7188 68.832C50.8789 68.832 50.2214 69.0046 49.7461 69.3496C49.4401 69.571 49.2871 69.8672 49.2871 70.2383C49.2871 70.5768 49.4303 70.8665 49.7168 71.1074C50.0814 71.4134 50.9668 71.7324 52.373 72.0645C53.7793 72.3965 54.8177 72.7415 55.4883 73.0996C56.1654 73.4512 56.6927 73.9362 57.0703 74.5547C57.4544 75.1667 57.6465 75.9251 57.6465 76.8301C57.6465 77.6504 57.4186 78.4186 56.9629 79.1348C56.5072 79.8509 55.8626 80.3848 55.0293 80.7363C54.196 81.0814 53.1576 81.2539 51.9141 81.2539C50.1042 81.2539 48.7142 80.8372 47.7441 80.0039C46.7741 79.1641 46.1947 77.9434 46.0059 76.3418ZM59.0391 81V66.6836H63.3652L65.9629 76.4492L68.5312 66.6836H72.8672V81H70.1816V69.7305L67.3398 81H64.5566L61.7246 69.7305V81H59.0391Z" fill="white"/>
</g>
<defs>
<linearGradient id="paint0_linear" x1="48" y1="94.25" x2="48" y2="1.21299e-06" gradientUnits="userSpaceOnUse">
<stop stop-color="#A8A8A8"/>
<stop offset="1" stop-color="#DADADA"/>
</linearGradient>
<clipPath id="clip0">
<rect width="96" height="96" fill="white"/>
</clipPath>
</defs>
</svg>
