<svg width="24" height="24" viewBox="0 0 24 24" fill="none" xmlns="http://www.w3.org/2000/svg">
<path d="M3 1H16L21 7V23H3V1Z" fill="white"/>
<path d="M21 7L16 1H3V16H2V0H16L22 7V16H21V7Z" fill="#BFBFBF"/>
<path d="M8 18V20H6V18H8Z" fill="#07B5AF"/>
<path fill-rule="evenodd" clip-rule="evenodd" d="M3 15C2.44772 15 2 15.4477 2 16V23C2 23.5523 2.44772 24 3 24H21C21.5523 24 22 23.5523 22 23V16C22 15.4477 21.5523 15 21 15H3ZM8 18V17H6V18H5V22H6V21H8V22H9V18H8ZM18 17H19V22H18V17ZM12 17H11V19H12V21H13V22H14V20H15V18H16V17H14V20H13V18H12V17Z" fill="#07B5AF"/>
<path fill-rule="evenodd" clip-rule="evenodd" d="M15 3H4V4H5V5H4V11H5V12H4V13H20V8H15V5H14V4H15V3ZM7 4H6V5H7V4ZM6 11H7V12H6V11ZM9 4H8V5H9V4ZM8 11H9V12H8V11ZM11 4H10V5H11V4ZM10 11H11V12H10V11ZM13 4H12V5H13V4ZM12 11H13V12H12V11ZM14 11H15V12H14V11ZM16 11H17V12H16V11ZM18 11H19V12H18V11Z" fill="#BFBFBF"/>
<path opacity="0.3" d="M14 9V1H15V8H21V9H14Z" fill="black"/>
</svg>
