<svg width="24" height="24" viewBox="0 0 24 24" fill="none" xmlns="http://www.w3.org/2000/svg">
<g id="24X24 / dotx">
<path id="background" d="M3 1H16L21 7V23H3V1Z" fill="white"/>
<path id="shadow" d="M21 7L16 1H3V16H2V0H16L22 7V16H21V7Z" fill="#BFBFBF"/>
<g id="logo">
<path d="M15 3H4V5H15V3Z" fill="#BFBFBF"/>
<path d="M15 7H4V9H20V8H15V7Z" fill="#BFBFBF"/>
<path d="M20 11H4V13H20V11Z" fill="#BFBFBF"/>
</g>
<path id="ear shadow" opacity="0.3" d="M14 9V1H15V8H21V9H14Z" fill="black"/>
<path id="Subtract" fill-rule="evenodd" clip-rule="evenodd" d="M3 15C2.44772 15 2 15.4477 2 16V23C2 23.5523 2.44772 24 3 24H21C21.5523 24 22 23.5523 22 23V16C22 15.4477 21.5523 15 21 15H3ZM3 22V17H6V18H4V21H6V22H3ZM6 21H7V18H6V21ZM9 17H11V18H9V17ZM9 21H8V18H9V21ZM11 21V22H9V21H11ZM11 21H12V18H11V21ZM18 17H17V19H18V20H17V22H18V20H20V22H21V20H20V19H21V17H20V19H18V17ZM16 17H13V18H14V22H15V18H16V17Z" fill="#1E7AAA"/>
</g>
</svg>
