<svg width="24" height="24" viewBox="0 0 24 24" fill="none" xmlns="http://www.w3.org/2000/svg">
<path d="M3 1H16L21 7V23H3V1Z" fill="white"/>
<path d="M21 7L16 1H3V16H2V0H16L22 7V16H21V7Z" fill="#BFBFBF"/>
<path fill-rule="evenodd" clip-rule="evenodd" d="M3 15C2.44772 15 2 15.4477 2 16V23C2 23.5523 2.44772 24 3 24H21C21.5523 24 22 23.5523 22 23V16C22 15.4477 21.5523 15 21 15H3ZM14 19H9V20H14V19ZM4 17V22H7V21H5V20H7V19H5V18H7V17H4ZM16 22V17H19V18H17V19H19V20H17V21H19V20H20V22H16ZM19 19V18H20V19H19Z" fill="#C8A428"/>
<path d="M12.4486 2.16822L15 4.7196V5.89719L12 8.89719L10.6542 7.5514L12.8972 5.30841L12 4.41121L8.41121 8L12 11.5888L15.5888 8H18C18 8.16822 17.9439 8.33645 17.8318 8.4486L12.4486 13.8318C12.2243 14.0561 11.7757 14.0561 11.5514 13.8318L6.16821 8.44862C5.94391 8.22432 5.94394 7.7757 6.16821 7.55144L11.5514 2.16822C11.7757 1.94392 12.2243 1.94394 12.4486 2.16822Z" fill="#BFBFBF"/>
<path opacity="0.3" d="M14 9V1H15V8H21V9H14Z" fill="black"/>
</svg>
