<svg width="24" height="24" viewBox="0 0 24 24" fill="none" xmlns="http://www.w3.org/2000/svg">
<path d="M3 1H16L21 7V23H3V1Z" fill="white"/>
<path d="M21 7L16 1H3V16H2V0H16L22 7V16H21V7Z" fill="#BFBFBF"/>
<path fill-rule="evenodd" clip-rule="evenodd" d="M3 15C2.44772 15 2 15.4477 2 16V23C2 23.5523 2.44772 24 3 24H21C21.5523 24 22 23.5523 22 23V16C22 15.4477 21.5523 15 21 15H3ZM8 17H5V22H6V20H8V19H6V18H8V17ZM10 22V17H13V18H11V19H13V20H11V21H13V20H14V22H10ZM13 19V18H14V19H13ZM18 17H17V18H16V19H18V20H17V21H16V22H19V21H18V20H19V18H18V17Z" fill="#B07408"/>
<path d="M7 4H4V7H7V4Z" fill="#BFBFBF"/>
<path d="M15 8V4H8V8H4V10H6V11H4V13H18V12H20V10H11V9H20V8H15Z" fill="#BFBFBF"/>
<path opacity="0.3" d="M14 9V1H15V8H21V9H14Z" fill="black"/>
</svg>
