<svg width="24" height="24" viewBox="0 0 24 24" fill="none" xmlns="http://www.w3.org/2000/svg">
<path d="M3 1H16L21 7V23H3V1Z" fill="white"/>
<path d="M21 7L16 1H3V16H2V0H16L22 7V16H21V7Z" fill="#BFBFBF"/>
<path fill-rule="evenodd" clip-rule="evenodd" d="M2 16C2 15.4477 2.44772 15 3 15H21C21.5523 15 22 15.4477 22 16V23C22 23.5523 21.5523 24 21 24H3C2.44772 24 2 23.5523 2 23V16ZM11 17H8V18H9V22H10V18H11V17ZM18 17H19V21H21V22H18V17ZM3 17H4V19H6V17H7V22H6V20H4V22H3V17ZM12 17H13V18H14V20H13V22H12V17ZM15 20V22H14V20H15ZM15 20V18H16V17H17V22H16V20H15Z" fill="#5E93A2"/>
<path d="M6 7H8V8H7V9H6V10H7V11H8V12H6V11H5V10H4V9H5V8H6V7Z" fill="#BFBFBF"/>
<path d="M10 9H11V10H10V9Z" fill="#BFBFBF"/>
<path d="M13 9H14V10H13V9Z" fill="#BFBFBF"/>
<path d="M17 9V8H19V9H20V10H19V11H18V12H16V11H17V10H18V9H17Z" fill="#BFBFBF"/>
<path opacity="0.3" d="M14 9V1H15V8H21V9H14Z" fill="black"/>
</svg>
