<svg width="24" height="24" viewBox="0 0 24 24" fill="none" xmlns="http://www.w3.org/2000/svg">
<path d="M21 5.63158V23H3V1H16.5V2.15789H17.625V3.31579H18.75V4.47368H19.875V5.63158H21Z" fill="white"/>
<path d="M2 1V13H3V1H2Z" fill="black"/>
<path d="M2 1V13H3V1H2Z" fill="url(#paint0_linear)"/>
<path d="M20 5H19V13H20V5Z" fill="black"/>
<path d="M20 5H19V13H20V5Z" fill="url(#paint1_linear)"/>
<path d="M15 1V0H2V1H15Z" fill="#D4D4D4"/>
<rect x="15" y="1" width="1" height="1" fill="#C4C4C4"/>
<rect x="16" y="2" width="1" height="1" fill="#C8C8C8"/>
<rect x="17" y="3" width="1" height="1" fill="#C6C6C6"/>
<rect x="18" y="4" width="1" height="1" fill="#C5C5C5"/>
<path opacity="0.25" d="M14 1H13V7H19V6H14V1Z" fill="black"/>
<rect x="2.19048" y="13.7143" width="19.8095" height="10.2857" rx="1" fill="#DD4A4A"/>
<rect x="5.49207" y="16" width="1.10053" height="5.71429" fill="white"/>
<path d="M9.89418 16H12.0952V17.1429H9.89418V16Z" fill="white"/>
<path d="M9.89418 20.5714V17.1429H8.79365V20.5714H9.89418Z" fill="white"/>
<path d="M12.0952 20.5714V21.7143H9.89418V20.5714H12.0952Z" fill="white"/>
<path d="M12.0952 20.5714V19.4286H13.1958V20.5714H12.0952Z" fill="white"/>
<path d="M12.0952 17.1429H13.1958V18.2857H12.0952V17.1429Z" fill="white"/>
<path d="M16.4973 16H18.6984V17.1429H16.4973V16Z" fill="white"/>
<path d="M16.4973 18.2857V17.1429H15.3968V18.2857H16.4973Z" fill="white"/>
<path d="M18.6984 19.4286H16.4973V18.2857H18.6984V19.4286Z" fill="white"/>
<path d="M18.6984 20.5714V19.4286H19.7989V20.5714H18.6984Z" fill="white"/>
<path d="M18.6984 20.5714H15.3968V21.7143H18.6984V20.5714Z" fill="white"/>
<path d="M9 8H10V14H9V10.4H8V9.2H9V8Z" fill="#BFBFBF"/>
<path d="M14 8H11V9.2H13V10.4H12V14H13V10.4H14V8Z" fill="#BFBFBF"/>
<defs>
<linearGradient id="paint0_linear" x1="11" y1="1" x2="11" y2="13" gradientUnits="userSpaceOnUse">
<stop stop-color="#C9C9C9"/>
<stop offset="1" stop-color="#BABABA"/>
</linearGradient>
<linearGradient id="paint1_linear" x1="11" y1="1" x2="11" y2="13" gradientUnits="userSpaceOnUse">
<stop stop-color="#C9C9C9"/>
<stop offset="1" stop-color="#BABABA"/>
</linearGradient>
</defs>
</svg>
