<svg width="24" height="24" viewBox="0 0 24 24" fill="none" xmlns="http://www.w3.org/2000/svg">
<path d="M3 1H16L21 7V23H3V1Z" fill="white"/>
<path d="M21 7L16 1H3V16H2V0H16L22 7V16H21V7Z" fill="#BFBFBF"/>
<path fill-rule="evenodd" clip-rule="evenodd" d="M3 15C2.44772 15 2 15.4477 2 16V23C2 23.5523 2.44772 24 3 24H21C21.5523 24 22 23.5523 22 23V16C22 15.4477 21.5523 15 21 15H3ZM17 17H16V19H17V21H18V22H19V20H20V18H21V17H19V20H18V18H17V17ZM11 17H10V22H11V20H13V22H15V21H14V20H13V18H14V17H13V18H12V19H11V17ZM4 17H5V18H6V20H5V22H4V17ZM7 20V22H6V20H7ZM7 20V18H8V17H9V22H8V20H7Z" fill="#0E6B8D"/>
<path d="M8.64767 5.92404C8.48187 6.04579 8.26598 6.10978 8 6.11602V6.87929C8.26598 6.88554 8.48187 6.95109 8.64767 7.07596C8.81693 7.20083 8.92919 7.37097 8.98446 7.58637C9.01968 7.72365 9.04438 7.9313 9.05856 8.20933C6.09575 8.64884 4 9.73266 4 11C4 12.6569 7.58172 14 12 14C16.4183 14 20 12.6569 20 11C20 9.73247 17.9036 8.64852 14.9402 8.20913C14.952 7.97642 14.972 7.79148 15 7.65431V6.5626C14.747 6.68768 14.557 6.82759 14.4301 6.98231C14.2781 7.16337 14.171 7.42092 14.1088 7.75494C14.0708 7.97034 14.0518 8.48699 14.0518 9.30489C14.0518 9.71072 13.9931 9.97138 13.8756 10.0869C13.7582 10.2055 13.5199 10.2648 13.1606 10.2648H13V11H13.2902C13.5872 11 13.8014 10.9844 13.9326 10.9532C14.1261 10.9032 14.285 10.8299 14.4093 10.7331C14.5337 10.6394 14.639 10.513 14.7254 10.3538C14.8083 10.1946 14.8653 9.98387 14.8964 9.72164C14.9136 9.55619 14.924 9.2128 14.9275 8.69147C14.9284 8.55721 14.931 8.43309 14.9353 8.31913C16.7643 8.74742 18 9.56361 18 10.5C18 11.8808 15.3137 13 12 13C8.68629 13 6 11.8808 6 10.5C6 9.56382 7.23513 8.74779 9.06348 8.31941C9.06855 8.45002 9.07157 8.59433 9.07254 8.75234C9.07599 9.31426 9.09845 9.71852 9.1399 9.96514C9.1848 10.2118 9.27979 10.4147 9.42487 10.5739C9.56995 10.7362 9.75302 10.8533 9.97409 10.9251C10.1261 10.975 10.3713 11 10.7098 11H11V10.2648H10.8394C10.5112 10.2648 10.2902 10.2227 10.1762 10.1384C10.0656 10.0541 9.99655 9.90583 9.96891 9.69355C9.9551 9.57804 9.94819 9.21592 9.94819 8.60718C9.94819 7.936 9.86183 7.45369 9.68912 7.16025C9.51986 6.86368 9.24525 6.6436 8.86528 6.5C9.18653 6.35952 9.42142 6.19875 9.56995 6.01769C9.72193 5.83663 9.82902 5.57908 9.89119 5.24506C9.92919 5.02966 9.94819 4.51301 9.94819 3.69511C9.94819 3.28928 10.0069 3.02862 10.1244 2.91311C10.2418 2.79448 10.4801 2.73517 10.8394 2.73517H11V2H10.7098C10.4128 2 10.1986 2.01561 10.0674 2.04683C9.87392 2.09677 9.71503 2.17014 9.59067 2.26691C9.46632 2.36056 9.36097 2.48699 9.27461 2.6462C9.19171 2.80541 9.13472 3.01613 9.10363 3.27836C9.08636 3.44381 9.07599 3.7872 9.07254 4.30853C9.06908 4.82986 9.03972 5.19823 8.98446 5.41363C8.92919 5.62903 8.81693 5.79917 8.64767 5.92404Z" fill="#BFBFBF"/>
<path d="M15 6.44387V5.3451C14.9548 5.12017 14.9306 4.75435 14.9275 4.24766C14.924 3.68574 14.9016 3.28148 14.8601 3.03486C14.8152 2.78824 14.7202 2.58533 14.5751 2.42612C14.4301 2.26379 14.247 2.14672 14.0259 2.07492C13.8739 2.02497 13.6287 2 13.2902 2H13V2.73517H13.1606C13.4888 2.73517 13.7098 2.77732 13.8238 2.8616C13.9344 2.94589 14.0035 3.09417 14.0311 3.30645C14.0449 3.42196 14.0518 3.78408 14.0518 4.39282C14.0518 5.064 14.1382 5.54631 14.3109 5.83975C14.4594 6.10004 14.6891 6.30141 15 6.44387Z" fill="#BFBFBF"/>
<path opacity="0.3" d="M14 9V1H15V8H21V9H14Z" fill="black"/>
</svg>
