<svg width="24" height="24" viewBox="0 0 24 24" fill="none" xmlns="http://www.w3.org/2000/svg">
<path d="M3 1H16L21 7V23H3V1Z" fill="white"/>
<path d="M21 7L16 1H3V16H2V0H16L22 7V16H21V7Z" fill="#BFBFBF"/>
<path d="M12 18H14V19H12V18Z" fill="#00A9CD"/>
<path fill-rule="evenodd" clip-rule="evenodd" d="M3 15C2.44772 15 2 15.4477 2 16V23C2 23.5523 2.44772 24 3 24H21C21.5523 24 22 23.5523 22 23V16C22 15.4477 21.5523 15 21 15H3ZM11 22V17H15V20H12V22H11ZM20 17V20H21V21H20V22H19V21H17V18H18V20H19V18H18V17H20ZM4 17H5V18H6V20H5V22H4V17ZM7 20V22H6V20H7ZM7 20H8V22H9V17H8V18H7V20Z" fill="#00A9CD"/>
<path fill-rule="evenodd" clip-rule="evenodd" d="M4 3H15V5L14 4H12L14 6H15V7H14L12 9H14L15 8H17L16 9H18L19 8H20V14H4V3ZM10 4H8L10 6H12L10 4ZM10 7H12L10 9H8L10 7ZM19 13V10H5V13H19Z" fill="#BFBFBF"/>
<path opacity="0.3" d="M14 9V1H15V8H21V9H14Z" fill="black"/>
</svg>
