<svg width="24" height="24" viewBox="0 0 24 24" fill="none" xmlns="http://www.w3.org/2000/svg">
<path d="M3 1H16L21 7V23H3V1Z" fill="white"/>
<path d="M21 7L16 1H3V16H2V0H16L22 7V16H21V7Z" fill="#BFBFBF"/>
<path d="M11 18H13V19H11V18Z" fill="#2BBDC6"/>
<path fill-rule="evenodd" clip-rule="evenodd" d="M3 15C2.44772 15 2 15.4477 2 16V23C2 23.5523 2.44772 24 3 24H21C21.5523 24 22 23.5523 22 23V16C22 15.4477 21.5523 15 21 15H3ZM10 22V17H14V20H11V22H10ZM5 17H4V22H5V20H6V22H7V20H8V22H9V17H8V18H7V20H6V18H5V17ZM16 18V17H19V18H16ZM16 21H15V18H16V21ZM19 21V22H16V21H19ZM19 20H20V21H19V20ZM19 20H18V19H19V20Z" fill="#2BBDC6"/>
<path fill-rule="evenodd" clip-rule="evenodd" d="M15 3H4V14H20V8H19L18 9H16L17 8H15L14 9H12L14 7H15V6H14L12 4H14L15 5V3ZM8 4H10L12 6H10L8 4ZM12 7H10L8 9H10L12 7Z" fill="#BFBFBF"/>
<path opacity="0.3" d="M14 9V1H15V8H21V9H14Z" fill="black"/>
</svg>
