<svg width="24" height="24" viewBox="0 0 24 24" fill="none" xmlns="http://www.w3.org/2000/svg">
<g id="24X24 / otp">
<path id="background" d="M4 3H15L20 8V22H4V3Z" fill="white"/>
<path id="shadow" d="M20 8V15H21V8L15 2H3V15H4V3H15L20 8Z" fill="url(#paint0_linear)"/>
<g id="format">
<path d="M6.04248 18.4912C6.04248 19.0586 6.1735 19.4893 6.43555 19.7832C6.69759 20.0749 7.03027 20.2207 7.43359 20.2207C7.83691 20.2207 8.16732 20.076 8.4248 19.7866C8.68457 19.495 8.81445 19.0586 8.81445 18.4775C8.81445 17.9033 8.68799 17.4749 8.43506 17.1924C8.18441 16.9098 7.85059 16.7686 7.43359 16.7686C7.0166 16.7686 6.6805 16.9121 6.42529 17.1992C6.17008 17.484 6.04248 17.9147 6.04248 18.4912Z" fill="#F37600"/>
<path d="M15.9443 18.2588V16.8369H16.4331C16.7977 16.8369 17.0404 16.8483 17.1611 16.8711C17.3252 16.9007 17.4608 16.9748 17.5679 17.0933C17.675 17.2118 17.7285 17.3621 17.7285 17.5444C17.7285 17.6925 17.6898 17.8224 17.6123 17.9341C17.5371 18.0457 17.4323 18.1278 17.2979 18.1802C17.1634 18.2326 16.8968 18.2588 16.498 18.2588H15.9443Z" fill="#F37600"/>
<path fill-rule="evenodd" clip-rule="evenodd" d="M4 14C3.44772 14 3 14.4477 3 15V22C3 22.5523 3.44772 23 4 23H20C20.5523 23 21 22.5523 21 22V15C21 14.4477 20.5523 14 20 14H4ZM5 18.5254C5 18.015 5.07633 17.5866 5.229 17.2402C5.34294 16.985 5.49788 16.756 5.69385 16.5532C5.89209 16.3504 6.10856 16.2 6.34326 16.1021C6.65544 15.9699 7.01546 15.9038 7.42334 15.9038C8.16162 15.9038 8.75179 16.1328 9.19385 16.5908C9.63818 17.0488 9.86035 17.6857 9.86035 18.5015C9.86035 19.3104 9.64046 19.9438 9.20068 20.4019C8.76091 20.8576 8.17301 21.0854 7.43701 21.0854C6.69189 21.0854 6.09945 20.8587 5.65967 20.4053C5.21989 19.9495 5 19.3229 5 18.5254ZM11.7812 21V16.8369H10.2944V15.9893H14.2764V16.8369H12.793V21H11.7812ZM14.9326 15.9893V21H15.9443V19.1099H16.604C17.062 19.1099 17.4118 19.0859 17.6533 19.0381C17.8311 18.9993 18.0054 18.9207 18.1763 18.8022C18.3494 18.6815 18.4919 18.5163 18.6035 18.3066C18.7152 18.097 18.771 17.8384 18.771 17.5308C18.771 17.132 18.6742 16.8073 18.4805 16.5566C18.2868 16.3037 18.0464 16.1396 17.7593 16.0645C17.5724 16.0143 17.1714 15.9893 16.5562 15.9893H14.9326Z" fill="#F37600"/>
</g>
<g id="logo">
<path fill-rule="evenodd" clip-rule="evenodd" d="M5 4H14V5H6V12H18V9H19V13H5V4Z" fill="#BFBFBF"/>
<path d="M7 8V6H9V8H7Z" fill="#BFBFBF"/>
<path d="M9 9H7V11H9V9Z" fill="#BFBFBF"/>
<path d="M10 8V6H13V7H14V8H10Z" fill="#BFBFBF"/>
<path d="M10 9V11H13V10H17V9H10Z" fill="#BFBFBF"/>
</g>
<path id="ear shadow" opacity="0.3" d="M13 10V3H14V9H20V10H13Z" fill="black"/>
</g>
<defs>
<linearGradient id="paint0_linear" x1="11.5" y1="22.3" x2="11.5" y2="2" gradientUnits="userSpaceOnUse">
<stop stop-color="#A8A8A8"/>
<stop offset="1" stop-color="#DADADA"/>
</linearGradient>
</defs>
</svg>
