<svg width="24" height="24" viewBox="0 0 24 24" fill="none" xmlns="http://www.w3.org/2000/svg">
<path d="M3 1H16L21 7V23H3V1Z" fill="white"/>
<path d="M21 7L16 1H3V16H2V0H16L22 7V16H21V7Z" fill="#BFBFBF"/>
<path d="M5 18H7V19H5V18Z" fill="#9E1919"/>
<path d="M13 18V21H11V18H13Z" fill="#9E1919"/>
<path fill-rule="evenodd" clip-rule="evenodd" d="M3 15C2.44772 15 2 15.4477 2 16V23C2 23.5523 2.44772 24 3 24H21C21.5523 24 22 23.5523 22 23V16C22 15.4477 21.5523 15 21 15H3ZM4 22V17H8V20H5V22H4ZM10 17V22H13V21H14V18H13V17H10ZM20 17H16V22H17V20H19V19H17V18H20V17Z" fill="#9E1919"/>
<path d="M10 3H15V5H10V3Z" fill="#BFBFBF"/>
<path d="M15 7H10V9H20V8H15V7Z" fill="#BFBFBF"/>
<path d="M20 11H4V13H20V11Z" fill="#BFBFBF"/>
<path d="M8 3H4V9H8V3Z" fill="#BFBFBF"/>
<path opacity="0.3" d="M14 9V1H15V8H21V9H14Z" fill="black"/>
</svg>
