<svg width="24" height="24" viewBox="0 0 24 24" fill="none" xmlns="http://www.w3.org/2000/svg">
<path d="M3 1H16L21 7V23H3V1Z" fill="white"/>
<path d="M21 7L16 1H3V16H2V0H16L22 7V16H21V7Z" fill="#BFBFBF"/>
<path d="M5 18H7V19H5V18Z" fill="#F36700"/>
<path d="M13 18H11V19H13V18Z" fill="#F36700"/>
<path fill-rule="evenodd" clip-rule="evenodd" d="M3 15C2.44772 15 2 15.4477 2 16V23C2 23.5523 2.44772 24 3 24H21C21.5523 24 22 23.5523 22 23V16C22 15.4477 21.5523 15 21 15H3ZM4 22V17H8V20H5V22H4ZM10 17V22H11V20H14V17H10ZM15 17H20V18H18V22H17V18H15V17Z" fill="#F36700"/>
<path d="M15 2H4V14H20V8H19V13H5V3H15V2Z" fill="#BFBFBF"/>
<path d="M15 6H12V5H10V7H15V6Z" fill="#BFBFBF"/>
<path d="M8 5H6V7H8V5Z" fill="#BFBFBF"/>
<path d="M6 9H8V11H6V9Z" fill="#BFBFBF"/>
<path d="M17 9H10V11H12V10H17V9Z" fill="#BFBFBF"/>
<path opacity="0.3" d="M14 9V1H15V8H21V9H14Z" fill="black"/>
</svg>
