<svg width="24" height="24" viewBox="0 0 24 24" fill="none" xmlns="http://www.w3.org/2000/svg">
<g id="24X24 / pptm">
<path id="background" d="M3 1H16L21 7V23H3V1Z" fill="white"/>
<path id="shadow" d="M21 7L16 1H3V16H2V0H16L22 7V16H21V7Z" fill="#BFBFBF"/>
<g id="logo">
<path d="M15 2H4V14H20V8H19V13H5V3H15V2Z" fill="#BFBFBF"/>
<path d="M15 6H12V5H10V7H15V6Z" fill="#BFBFBF"/>
<path d="M8 5H6V7H8V5Z" fill="#BFBFBF"/>
<path d="M6 9H8V11H6V9Z" fill="#BFBFBF"/>
<path d="M17 9H10V11H12V10H17V9Z" fill="#BFBFBF"/>
</g>
<path id="ear shadow" opacity="0.3" d="M14 9V1H15V8H21V9H14Z" fill="black"/>
<g id="Subtract">
<path d="M5 18H6V19H5V18Z" fill="#F36700"/>
<path d="M10 18H9V19H10V18Z" fill="#F36700"/>
<path fill-rule="evenodd" clip-rule="evenodd" d="M3 15C2.44771 15 2 15.4477 2 16V23C2 23.5523 2.44772 24 3 24H21C21.5523 24 22 23.5523 22 23V16C22 15.4477 21.5523 15 21 15H3ZM4 22V17H7V20H5V22H4ZM11 17H8V22H9V20H11V17ZM12 17H15V18H14V22H13V18H12V17ZM16 17H17V18H18V20H17V22H16V17ZM19 20V22H18V20H19ZM19 20V18H20V17H21V22H20V20H19Z" fill="#F36700"/>
</g>
</g>
</svg>
