<svg width="24" height="24" viewBox="0 0 24 24" fill="none" xmlns="http://www.w3.org/2000/svg">
<path d="M3 1H16L21 7V23H3V1Z" fill="white"/>
<path d="M21 7L16 1H3V16H2V0H16L22 7V16H21V7Z" fill="#BFBFBF"/>
<path d="M5 18H4V19H5V18Z" fill="#F36700"/>
<path d="M8 18H9V19H8V18Z" fill="#F36700"/>
<path fill-rule="evenodd" clip-rule="evenodd" d="M2 16C2 15.4477 2.44771 15 3 15H21C21.5523 15 22 15.4477 22 16V23C22 23.5523 21.5523 24 21 24H3C2.44772 24 2 23.5523 2 23V16ZM18 17H17V19H18V20H17V22H18V20H20V22H21V20H20V19H21V17H20V19H18V17ZM11 17H16V18H14V22H13V18H11V17ZM3 17V22H4V20H6V17H3ZM7 22V17H10V20H8V22H7Z" fill="#F36700"/>
<path d="M15 2H4V14H20V8H19V13H5V3H15V2Z" fill="#BFBFBF"/>
<path d="M15 6H12V5H10V7H15V6Z" fill="#BFBFBF"/>
<path d="M8 5H6V7H8V5Z" fill="#BFBFBF"/>
<path d="M6 9H8V11H6V9Z" fill="#BFBFBF"/>
<path d="M17 9H10V11H12V10H17V9Z" fill="#BFBFBF"/>
<path opacity="0.3" d="M14 9V1H15V8H21V9H14Z" fill="black"/>
</svg>
