<svg width="24" height="24" viewBox="0 0 24 24" fill="none" xmlns="http://www.w3.org/2000/svg">
<path d="M3 1H16L21 7V23H3V1Z" fill="white"/>
<path d="M21 7L16 1H3V16H2V0H16L22 7V16H21V7Z" fill="#BFBFBF"/>
<path fill-rule="evenodd" clip-rule="evenodd" d="M3 15C2.44772 15 2 15.4477 2 16V23C2 23.5523 2.44772 24 3 24H21C21.5523 24 22 23.5523 22 23V16C22 15.4477 21.5523 15 21 15H3ZM5 17H7V18H5V17ZM5 19H4V18H5V19ZM7 20H5V19H7V20ZM7 21V20H8V21H7ZM7 21V22H4V21H7ZM11 17H10V22H11V20H12V21H13V22H14V17H13V19H12V18H11V17ZM16 22V17H19V18H17V21H19V22H16ZM19 21V18H20V21H19Z" fill="#D56DB6"/>
<path d="M15 2.25L9 3V10C7.89543 10 7 10.8954 7 12C7 13.1046 7.89543 14 9 14C10.1046 14 11 13.1046 11 12V5.75L15 5.25V2.25Z" fill="#BFBFBF"/>
<path d="M15 8V9C13.8954 9 13 9.89543 13 11C13 12.1046 13.8954 13 15 13C16.1046 13 17 12.1046 17 11V8H15Z" fill="#BFBFBF"/>
<path opacity="0.3" d="M14 9V1H15V8H21V9H14Z" fill="black"/>
</svg>
