<svg width="24" height="24" viewBox="0 0 24 24" fill="none" xmlns="http://www.w3.org/2000/svg">
<path d="M3 1H16L21 7V23H3V1Z" fill="white"/>
<path d="M21 7L16 1H3V16H2V0H16L22 7V16H21V7Z" fill="#BFBFBF"/>
<path fill-rule="evenodd" clip-rule="evenodd" d="M3 15C2.44772 15 2 15.4477 2 16V23C2 23.5523 2.44772 24 3 24H21C21.5523 24 22 23.5523 22 23V16C22 15.4477 21.5523 15 21 15H3ZM10 17H11V19H10V17ZM13 19H11V20H10V22H11V20H13V22H14V20H13V19ZM13 19V17H14V19H13ZM8 17H3V18H5V22H6V18H8V17ZM16 17H21V18H19V22H18V18H16V17Z" fill="#848F92"/>
<path d="M12 3H4V5H12V3Z" fill="#BFBFBF"/>
<path d="M4 6H12V8H4V6Z" fill="#BFBFBF"/>
<path d="M4 9V11H20V9H4Z" fill="#BFBFBF"/>
<path d="M4 12V14H20V12H4Z" fill="#BFBFBF"/>
<path opacity="0.3" d="M14 9V1H15V8H21V9H14Z" fill="black"/>
</svg>
