<svg width="24" height="24" viewBox="0 0 24 24" fill="none" xmlns="http://www.w3.org/2000/svg">
<path d="M3 1H16L21 7V23H3V1Z" fill="white"/>
<path d="M21 7L16 1H3V16H2V0H16L22 7V16H21V7Z" fill="#BFBFBF"/>
<path fill-rule="evenodd" clip-rule="evenodd" d="M3 15C2.44771 15 2 15.4477 2 16V23C2 23.5523 2.44772 24 3 24H21C21.5523 24 22 23.5523 22 23V16C22 15.4477 21.5523 15 21 15H3ZM11 17H12V21H14V22H11V17ZM19 17H17V18H16V19H17V20H19V21H16V22H19V21H20V20H19V19H17V18H19V17ZM6 18V17H4V18H5V19H6V20H5V21H4V22H6V21H7V22H9V21H8V20H7V19H8V18H9V17H7V18H6Z" fill="#6AAA1E"/>
<path fill-rule="evenodd" clip-rule="evenodd" d="M15 4H4V13H20V8H15V4ZM9 12H5V9H9V12ZM14 12H10V9H14V12ZM19 12H15V9H19V12ZM14 5H10V8H14V5ZM9 8V5H5V8H9Z" fill="#BFBFBF"/>
<path opacity="0.3" d="M14 9V1H15V8H21V9H14Z" fill="black"/>
</svg>
