<svg width="32" height="32" viewBox="0 0 32 32" fill="none" xmlns="http://www.w3.org/2000/svg">
<g clip-path="url(#clip0_623_3911)">
<rect y="8" width="30" height="20" rx="2" fill="#B2BBC0"/>
<path d="M0 4C0 2.89543 0.895431 2 2 2H11C12.1046 2 13 2.89543 13 4V6H28C29.1046 6 30 6.89543 30 8V10C30 8.89543 29.1046 8 28 8H2C0.895431 8 0 8.89543 0 10V4Z" fill="#788790"/>
<path d="M18.1708 29.7493C18.1258 29.6107 18.0839 29.4577 18.067 29.3283C17.9377 28.3334 19.0573 26.9321 19.0573 26.9321L19.9632 25.8729C20.5797 24.443 20.6533 23.5852 22.5529 22.5204C24.1986 21.598 25.8325 21.7719 27.3292 22.3233C27.3292 22.3233 28.8878 22.305 29.8096 22.4303C29.8954 22.442 29.9762 22.4519 30.0533 22.4614C30.5195 22.5698 30.9324 22.6707 31.3887 22.9663C31.5987 23.1024 31.7299 23.2657 31.8389 23.4097C30.8395 22.2195 27.5446 22.7451 23.8117 24.3806C20.4385 26.063 17.9259 28.2671 18.1708 29.7493Z" fill="black"/>
<path d="M31.8988 23.4916C32.4732 24.772 30.6051 27.6221 26.7337 29.6268C23.4143 31.2266 19.3689 31.4964 18.305 30.1358C17.4764 28.673 20.1315 26.2178 23.8101 24.3831C27.6236 22.7123 30.98 22.1999 31.8988 23.4916Z" fill="#0077FF"/>
<path d="M28.8146 26.2464C29.1283 26.8567 28.0173 27.9207 26.1714 28.8716C24.592 29.6365 22.8317 30.0049 22.3466 29.3777C22.002 28.7814 23.2058 27.6064 24.9578 26.7326C26.7679 25.9244 28.3925 25.6589 28.8146 26.2464Z" fill="white"/>
</g>
<defs>
<clipPath id="clip0_623_3911">
<rect width="32" height="32" fill="white"/>
</clipPath>
</defs>
</svg>
