<svg width="64" height="64" viewBox="0 0 64 64" fill="none" xmlns="http://www.w3.org/2000/svg">
<g clip-path="url(#clip0)">
<rect y="16" width="61" height="39" rx="4" fill="#B2BBC0"/>
<path d="M0 7C0 4.79086 1.79086 3 4 3H22C24.2091 3 26 4.79086 26 7V12H57C59.2091 12 61 13.7909 61 16V20C61 17.7909 59.2091 16 57 16H4C1.79086 16 0 17.7909 0 20V7Z" fill="#788790"/>
<path d="M49.004 43.0161L43.2398 53.0001H34.0022L44.3852 35.0161L49.004 43.0161Z" fill="#00AC47"/>
<path d="M38.6269 60.9898L43.2398 53H34L38.6269 60.9898Z" fill="#0066DA"/>
<path d="M43.2398 53H54.7682L59.387 61H38.621L43.2398 53Z" fill="#2684FC"/>
<path d="M59.3771 60.9829L54.7682 53L64 53.0001L59.3771 60.9829Z" fill="#EA4335"/>
<path d="M53.6228 35.0161L49.004 43.0161L54.7683 53.0001H64.0059L53.6228 35.0161Z" fill="#FFBA00"/>
<path d="M53.625 35H44.3926V35.0288L48.9947 43H49.0133L53.6228 35.0161L53.625 35.0199V35Z" fill="#00832D"/>
</g>
<defs>
<clipPath id="clip0">
<rect width="64" height="64" fill="white"/>
</clipPath>
</defs>
</svg>
