<svg width="64" height="64" viewBox="0 0 64 64" fill="none" xmlns="http://www.w3.org/2000/svg">
<rect y="16" width="61" height="39" rx="4" fill="#B2BBC0"/>
<path d="M0 7C0 4.79086 1.79086 3 4 3H22C24.2091 3 26 4.79086 26 7V12H57C59.2091 12 61 13.7909 61 16V20C61 17.7909 59.2091 16 57 16H4C1.79086 16 0 17.7909 0 20V7Z" fill="#788790"/>
<path d="M47 48.0171L43.9975 35L49.1953 44.0132L47 48.0171Z" fill="#089156"/>
<path d="M34 52.0093L39 61.0093L47 48.0093L44 35.0093L34 52.0093Z" fill="#0BA25E"/>
<path d="M49 52.0093L39 61.0093L44.5391 52.0093H49Z" fill="#296AD9"/>
<path d="M49 52.0093L39 61.0093H59L64 52.0093H49Z" fill="#2A71E9"/>
<path d="M51.5 48.0093L64 52.0093H53.8165L51.5 48.0093Z" fill="#E3B73A"/>
<path d="M54 35.0093L64 52.0093L51.5 48.0093L44 35.0093H54Z" fill="#FCCD48"/>
</svg>
