<svg width="64" height="64" viewBox="0 0 64 64" fill="none" xmlns="http://www.w3.org/2000/svg">
<g clip-path="url(#clip0)">
<rect y="16" width="61" height="39" rx="4" fill="#B2BBC0"/>
<path d="M0 7C0 4.79086 1.79086 3 4 3H22C24.2091 3 26 4.79086 26 7V12H57C59.2091 12 61 13.7909 61 16V20C61 17.7909 59.2091 16 57 16H4C1.79086 16 0 17.7909 0 20V7Z" fill="#788790"/>
<path opacity="0.504232" fill-rule="evenodd" clip-rule="evenodd" d="M47.0327 32.0227L49.5848 33.0897C49.9754 33.2529 50.2774 33.5757 50.4144 33.9762L51.4291 36.9423C51.5925 37.4198 51.9879 37.7812 52.4781 37.9011L63.0966 40.4981C63.7591 40.6602 64.2252 41.2539 64.2252 41.936V54.3259C64.2252 55.1434 63.5624 55.8062 62.7449 55.8062C62.5973 55.8062 62.4506 55.7841 62.3096 55.7407L46.0264 50.7305C45.4053 50.5394 44.9814 49.9655 44.9814 49.3157V33.3885C44.9814 32.571 45.6442 31.9082 46.4617 31.9082C46.6577 31.9082 46.8518 31.9471 47.0327 32.0227Z" fill="#D0DFFF"/>
<path opacity="0.8" fill-rule="evenodd" clip-rule="evenodd" d="M43.3319 34.9827L45.884 36.0496C46.2746 36.2129 46.5766 36.5356 46.7137 36.9362L47.7284 39.9023C47.8918 40.3798 48.2871 40.7411 48.7773 40.861L59.3958 43.4581C60.0584 43.6201 60.5244 44.2139 60.5244 44.896V57.2858C60.5244 58.1034 59.8617 58.7661 59.0441 58.7661C58.8966 58.7661 58.7498 58.7441 58.6088 58.7007L42.3256 53.6905C41.7045 53.4994 41.2807 52.9255 41.2807 52.2756V36.3485C41.2807 35.5309 41.9434 34.8682 42.761 34.8682C42.957 34.8682 43.1511 34.9071 43.3319 34.9827Z" fill="#B3CAFF"/>
<path opacity="0.8" d="M56.8237 54.052L60.5244 55.1907V44.8956C60.5244 44.2135 60.0584 43.6197 59.3958 43.4577L48.7773 40.8606C48.2871 40.7407 47.8918 40.3794 47.7284 39.9019L46.7137 36.9358C46.5767 36.5352 46.2747 36.2125 45.8841 36.0492L44.9814 35.6719V43.3506C45.0127 43.3605 45.0445 43.3694 45.0766 43.3773L55.6951 45.9744C56.3577 46.1364 56.8237 46.7302 56.8237 47.4123V54.052Z" fill="#AAC4FF"/>
<path fill-rule="evenodd" clip-rule="evenodd" d="M39.6312 37.4993L42.1834 38.5662C42.574 38.7295 42.876 39.0522 43.013 39.4528L44.0277 42.4189C44.1911 42.8964 44.5864 43.2577 45.0766 43.3776L55.6951 45.9747C56.3577 46.1367 56.8237 46.7305 56.8237 47.4126V59.8025C56.8237 60.62 56.161 61.2827 55.3435 61.2827C55.1959 61.2827 55.0492 61.2607 54.9081 61.2173L38.6249 56.2071C38.0038 56.016 37.58 55.4421 37.58 54.7922V38.8651C37.58 38.0475 38.2427 37.3848 39.0603 37.3848C39.2563 37.3848 39.4504 37.4237 39.6312 37.4993Z" fill="#1A47FF"/>
<path fill-rule="evenodd" clip-rule="evenodd" d="M35.8769 44.0633L52.3238 48.6319C52.8203 48.7698 53.2093 49.156 53.3509 49.6515L56.4489 60.4944C56.5612 60.8874 56.3336 61.2971 55.9405 61.4094C55.8027 61.4487 55.6565 61.4473 55.5195 61.4051L38.2924 56.1045C37.8443 55.9666 37.4879 55.6245 37.3319 55.1823L34.0848 45.9822C33.8127 45.2113 34.2171 44.3658 34.988 44.0937C35.2742 43.9927 35.5845 43.9821 35.8769 44.0633Z" fill="#5287FF"/>
</g>
<defs>
<clipPath id="clip0">
<rect width="64" height="64" fill="white"/>
</clipPath>
</defs>
</svg>
