<svg width="64" height="64" viewBox="0 0 64 64" fill="none" xmlns="http://www.w3.org/2000/svg">
<rect y="16" width="61" height="39" rx="4" fill="#B2BBC0"/>
<path d="M0 7C0 4.79086 1.79086 3 4 3H22C24.2091 3 26 4.79086 26 7V12H57C59.2091 12 61 13.7909 61 16V20C61 17.7909 59.2091 16 57 16H4C1.79086 16 0 17.7909 0 20V7Z" fill="#788790"/>
<path fill-rule="evenodd" clip-rule="evenodd" d="M48 61C51.0373 61 53.6228 59.0655 54.5917 56.3615C55.4348 57.932 57.0927 59 59 59C61.7614 59 64 56.7614 64 54C64 51.2386 61.7614 49 59 49C57.0927 49 55.4348 50.068 54.5917 51.6385C53.6228 48.9345 51.0373 47 48 47C44.9627 47 42.3772 48.9345 41.4083 51.6385C40.5652 50.068 38.9073 49 37 49C34.2386 49 32 51.2386 32 54C32 56.7614 34.2386 59 37 59C38.9073 59 40.5652 57.932 41.4083 56.3615C42.3772 59.0655 44.9627 61 48 61ZM48 58C50.2091 58 52 56.2091 52 54C52 51.7909 50.2091 50 48 50C45.7909 50 44 51.7909 44 54C44 56.2091 45.7909 58 48 58ZM61 54C61 55.1046 60.1046 56 59 56C57.8954 56 57 55.1046 57 54C57 52.8954 57.8954 52 59 52C60.1046 52 61 52.8954 61 54ZM37 56C38.1046 56 39 55.1046 39 54C39 52.8954 38.1046 52 37 52C35.8954 52 35 52.8954 35 54C35 55.1046 35.8954 56 37 56Z" fill="#0082C9"/>
</svg>
