<svg width="64" height="64" viewBox="0 0 64 64" fill="none" xmlns="http://www.w3.org/2000/svg">
<g clip-path="url(#clip0_623_3920)">
<rect y="16" width="61" height="39" rx="4" fill="#B2BBC0"/>
<path d="M45.4396 46.8887L45.4393 46.8897C44.2561 46.1556 42.8915 45.7676 41.4997 45.7695C41.4675 45.7695 41.4359 45.7716 41.4038 45.772C37.2639 45.8233 33.9493 49.2266 34.0006 53.3734C34.0192 54.8776 34.4884 56.3415 35.3474 57.5755L52 50.5417L45.4396 46.8887Z" fill="#0078D4"/>
<path d="M35.3477 57.5747C36.7484 59.592 39.047 60.5423 41.5002 60.541H58.0002C60.2413 60.5417 62.207 59.5618 63.2702 57.5857L52.0002 50.541L35.3477 57.5747Z" fill="#28A8EA"/>
<path d="M58 48.541C57.1693 48.5402 56.2525 48.7551 55.49 49.0853L52 50.541L63.27 57.5858C64.866 54.618 63.7579 50.9161 60.795 49.3175C59.9837 48.8797 58.9316 48.541 58 48.541Z" fill="#1490DF"/>
<path d="M49.4998 42C53.4906 41.9909 56.9385 44.396 57.9998 48.541C57.1709 48.5403 56.2556 48.7546 55.4942 49.0836L55.4897 49.0855L52.0014 50.5406L51.9998 50.5411L51.9987 50.5406L45.4394 46.8882L45.4391 46.8892C44.3084 46.1877 43.012 45.8023 41.6846 45.7711C43.4846 43.2423 46.3955 42.0071 49.4998 42Z" fill="#0364B8"/>
<path d="M0 7C0 4.79086 1.79086 3 4 3H22C24.2091 3 26 4.79086 26 7V12H57C59.2091 12 61 13.7909 61 16V20C61 17.7909 59.2091 16 57 16H4C1.79086 16 0 17.7909 0 20V7Z" fill="#788790"/>
</g>
<defs>
<clipPath id="clip0_623_3920">
<rect width="64" height="64" fill="white"/>
</clipPath>
</defs>
</svg>
