<svg width="64" height="64" viewBox="0 0 64 64" fill="none" xmlns="http://www.w3.org/2000/svg">
<rect y="16" width="61" height="39" rx="4" fill="#B2BBC0"/>
<path d="M0 7C0 4.79086 1.79086 3 4 3H22C24.2091 3 26 4.79086 26 7V12H57C59.2091 12 61 13.7909 61 16V20C61 17.7909 59.2091 16 57 16H4C1.79086 16 0 17.7909 0 20V7Z" fill="#788790"/>
<circle cx="49.5" cy="39.5" r="8.5" fill="#036C70"/>
<circle cx="56.5" cy="47.5" r="7.5" fill="#1A9BA1"/>
<circle cx="50.5" cy="54.5" r="6.5" fill="#37C6D0"/>
<path d="M44.0189 54C44.0064 54.165 44 54.3315 44 54.5V55H49C49.5523 55 50 54.5522 50 54V41C50 40.4478 49.5523 40 49 40V53C49 53.5523 48.5523 54 48 54H44.0189Z" fill="#023334" fill-opacity="0.5"/>
<rect x="34" y="39" width="15" height="15" rx="1" fill="#048A8E"/>
<path d="M39.9875 46.2958C39.6878 46.097 39.4375 45.8323 39.2557 45.522C39.0795 45.1977 38.9917 44.8327 39.001 44.4637C38.9853 43.964 39.1539 43.4761 39.4747 43.0927C39.8118 42.7089 40.2476 42.4247 40.7347 42.2709C41.2899 42.0881 41.8714 41.9981 42.4559 42.0044C43.2245 41.9763 43.992 42.0838 44.7233 42.3218V43.9265C44.4056 43.734 44.0594 43.5927 43.6977 43.5079C43.3053 43.4116 42.9025 43.3634 42.4984 43.3641C42.0723 43.3485 41.6489 43.4381 41.2656 43.6251C40.9698 43.7527 40.7779 44.0438 40.7773 44.366C40.7761 44.5615 40.8512 44.7497 40.9866 44.8907C41.1465 45.0569 41.3357 45.1921 41.5447 45.2897C41.7773 45.4055 42.1261 45.5595 42.5912 45.7516C42.6424 45.7678 42.6924 45.7878 42.7405 45.8116C43.1983 45.9905 43.6399 46.2083 44.0605 46.4625C44.3791 46.6589 44.6464 46.9282 44.8405 47.2481C45.0396 47.6108 45.136 48.0208 45.1196 48.4342C45.1423 48.9471 44.9854 49.4519 44.6759 49.8616C44.0882 50.5791 42.9165 51.014 42 51C41.0305 51.0044 39.9134 50.802 39.0198 50.4141V48.7223C39.4003 48.994 39.8253 49.197 40.2757 49.3223C40.7245 49.4622 41.1911 49.5369 41.6612 49.5442C42.0963 49.5717 42.5307 49.4795 42.9171 49.2777C43.1877 49.1249 43.3524 48.8356 43.3454 48.5249C43.3472 48.3086 43.2617 48.1009 43.1082 47.9486C42.9174 47.7612 42.6964 47.6072 42.4545 47.493C42.1754 47.3535 41.7645 47.1695 41.2217 46.9411C40.7899 46.7675 40.3765 46.5513 39.9875 46.2958Z" fill="white"/>
</svg>
