<svg width="64" height="64" viewBox="0 0 64 64" fill="none" xmlns="http://www.w3.org/2000/svg">
<rect y="16" width="61" height="39" rx="4" fill="#B2BBC0"/>
<path d="M0 7C0 4.79086 1.79086 3 4 3H22C24.2091 3 26 4.79086 26 7V12H57C59.2091 12 61 13.7909 61 16V20C61 17.7909 59.2091 16 57 16H4C1.79086 16 0 17.7909 0 20V7Z" fill="#788790"/>
<path d="M58.1875 48.55C57.3375 44.2375 53.55 41 49 41C45.3875 41 42.25 43.05 40.6875 46.05C36.925 46.45 34 49.6375 34 53.5C34 57.6375 37.3625 61 41.5 61H57.75C61.2 61 64 58.2 64 54.75C64 51.45 61.4375 48.775 58.1875 48.55Z" fill="#96D1DE"/>
</svg>
