<svg width="64" height="64" viewBox="0 0 64 64" fill="none" xmlns="http://www.w3.org/2000/svg">
<g clip-path="url(#clip0)">
<rect y="16" width="61" height="39" rx="4" fill="#B2BBC0"/>
<path d="M0 7C0 4.79086 1.79086 3 4 3H22C24.2091 3 26 4.79086 26 7V12H57C59.2091 12 61 13.7909 61 16V20C61 17.7909 59.2091 16 57 16H4C1.79086 16 0 17.7909 0 20V7Z" fill="#788790"/>
<path d="M34.2948 58.2888C34.1981 57.9911 34.108 57.6626 34.0719 57.3847C33.7942 55.2481 36.1985 52.2387 36.1985 52.2387L38.1439 49.9641C39.4679 46.8932 39.626 45.051 43.7054 42.7643C47.2397 40.7834 50.7486 41.1569 53.9629 42.3411C53.9629 42.3411 57.3101 42.3017 59.2896 42.5709C59.4739 42.596 59.6475 42.6173 59.813 42.6377C60.8141 42.8703 61.7008 43.0871 62.6807 43.722C63.1318 44.0143 63.4134 44.3649 63.6476 44.6741C61.5014 42.1182 54.4254 43.2469 46.4088 46.7592C39.1647 50.3723 33.7689 55.1057 34.2948 58.2888Z" fill="black"/>
<path d="M63.7757 44.8493C65.0092 47.5989 60.9974 53.7196 52.6834 58.025C45.5549 61.4605 36.8671 62.0399 34.5824 59.118C32.8029 55.9766 38.5048 50.704 46.4049 46.7638C54.5945 43.1756 61.8026 42.0752 63.7757 44.8493Z" fill="#0077FF"/>
<path d="M57.1521 50.7656C57.8258 52.0762 55.4397 54.3612 51.4758 56.4032C48.0839 58.0459 44.3036 58.8371 43.2618 57.4903C42.5218 56.2096 45.1068 53.6862 48.8694 51.8096C52.7566 50.0741 56.2457 49.504 57.1521 50.7656Z" fill="white"/>
</g>
<defs>
<clipPath id="clip0">
<rect width="64" height="64" fill="white"/>
</clipPath>
</defs>
</svg>
