<svg width="64" height="64" viewBox="0 0 64 64" fill="none" xmlns="http://www.w3.org/2000/svg">
<g clip-path="url(#clip0)">
<rect y="16" width="61" height="39" rx="4" fill="#B2BBC0"/>
<path d="M0 7C0 4.79086 1.79086 3 4 3H22C24.2091 3 26 4.79086 26 7V12H57C59.2091 12 61 13.7909 61 16V20C61 17.7909 59.2091 16 57 16H4C1.79086 16 0 17.7909 0 20V7Z" fill="#788790"/>
<path d="M34.2948 58.2886C34.1981 57.9909 34.108 57.6624 34.0719 57.3844C33.7942 55.2478 36.1985 52.2385 36.1985 52.2385L38.1439 49.9638C39.4679 46.893 39.626 45.0508 43.7054 42.7641C47.2397 40.7831 50.7486 41.1567 53.9629 42.3409C53.9629 42.3409 57.3101 42.3015 59.2896 42.5707C59.4739 42.5958 59.6475 42.6171 59.813 42.6374C60.8141 42.8701 61.7008 43.0868 62.6807 43.7218C63.1318 44.014 63.4134 44.3646 63.6476 44.6738C61.5014 42.118 54.4254 43.2466 46.4088 46.759C39.1647 50.372 33.7689 55.1054 34.2948 58.2886Z" fill="black"/>
<path d="M63.7757 44.8491C65.0092 47.5986 60.9974 53.7194 52.6834 58.0247C45.5549 61.4603 36.8671 62.0397 34.5824 59.1177C32.8029 55.9764 38.5048 50.7038 46.4049 46.7636C54.5945 43.1754 61.8026 42.0749 63.7757 44.8491Z" fill="#0077FF"/>
<path d="M57.1521 50.7656C57.8258 52.0762 55.4397 54.3612 51.4758 56.4032C48.0839 58.0459 44.3036 58.8371 43.2618 57.4903C42.5218 56.2096 45.1068 53.6862 48.8694 51.8096C52.7566 50.0741 56.2457 49.504 57.1521 50.7656Z" fill="white"/>
</g>
<defs>
<clipPath id="clip0">
<rect width="64" height="64" fill="white"/>
</clipPath>
</defs>
</svg>
