<svg width="24" height="24" viewBox="0 0 24 24" fill="none" xmlns="http://www.w3.org/2000/svg">
<path d="M20 6H4V18H20V6Z" fill="white"/>
<path d="M12 6H4V18H12V6Z" fill="#006233"/>
<path d="M14.244 10.5C13.8955 9.92808 13.3575 9.48109 12.7135 9.22836C12.0694 8.97564 11.3554 8.9313 10.682 9.10222C10.0087 9.27315 9.4137 9.64978 8.98934 10.1737C8.56498 10.6976 8.33496 11.3396 8.33496 12C8.33496 12.6604 8.56498 13.3024 8.98934 13.8263C9.4137 14.3502 10.0087 14.7269 10.682 14.8978C11.3554 15.0687 12.0694 15.0244 12.7135 14.7716C13.3575 14.5189 13.8955 14.0719 14.244 13.5C13.916 13.8882 13.4688 14.1702 12.9642 14.3072C12.4597 14.4441 11.9227 14.4292 11.4274 14.2646C10.9322 14.0999 10.5032 13.7935 10.1997 13.3879C9.89615 12.9822 9.73313 12.4972 9.73313 12C9.73313 11.5028 9.89615 11.0178 10.1997 10.6121C10.5032 10.2065 10.9322 9.90013 11.4274 9.73545C11.9227 9.57077 12.4597 9.55588 12.9642 9.69284C13.4688 9.8298 13.916 10.1118 14.244 10.5ZM14.3496 12L11.4996 11.12L13.2729 13.42V10.58L11.4996 12.88L14.3496 12Z" fill="#D21034"/>
<path d="M20 6L20 18L4 18L4 6L20 6ZM20 5L4 5C3.4 5 3 5.4 3 6L3 18C3 18.6 3.4 19 4 19L20 19C20.6 19 21 18.6 21 18L21 6C21 5.4 20.6 5 20 5Z" fill="#B5B5B5"/>
</svg>
