<svg width="24" height="24" viewBox="0 0 24 24" fill="none" xmlns="http://www.w3.org/2000/svg">
<path d="M20 6H4V18H20V6Z" fill="#000066"/>
<path d="M4 12L20 6V18L4 12Z" fill="#BD1021"/>
<path d="M7 12L20 7V17" fill="white"/>
<path d="M16.7206 13.2039C16.7206 13.2039 16.6018 13.1067 16.7422 12.9501C16.6666 12.8853 16.7369 12.7611 16.7369 12.7611C16.7369 12.7611 16.6072 12.7125 16.7422 12.5127C16.645 12.4479 16.6882 12.302 16.6882 12.302C16.6882 12.302 16.3696 12.1832 16.6721 12.0698C16.4236 12.1778 16.1914 11.924 16.1914 11.924L15.8296 11.9348C15.7684 11.6342 15.2914 11.8952 15.646 11.033C15.5542 11.0168 15.4516 10.9898 15.349 11.0654C15.2464 11.141 14.9548 11.303 14.782 11.141C14.6091 10.979 14.8954 10.7468 14.9008 10.7414C14.9062 10.736 15.2842 10.5415 15.3382 10.4119C15.3328 10.3147 15.214 10.2391 15.322 10.0285C15.4462 9.8287 16.2076 9.63969 16.5533 9.57489C16.7207 9.49929 16.7963 9.35347 16.7963 9.35347L16.8341 9.49388C16.8341 9.49388 17.6009 9.26707 17.6387 9.15906C17.6765 9.05105 17.6549 9.25626 17.6549 9.25626C17.9573 9.22926 18.3408 8.97004 18.3948 9.08885C18.6486 9.04025 19.1346 8.82424 19.1346 8.82424C19.1346 8.82424 19.302 8.81884 19.1832 9.00245C19.2588 9.12125 19.1616 9.22387 19.1562 9.22387C19.1508 9.22387 19.1886 9.34267 19.0914 9.40748C19.1238 9.51008 19.032 9.59108 19.032 9.59108C19.032 9.59108 19.0752 9.71529 18.9024 9.78009C18.9186 9.8881 18.8052 9.9097 18.8052 9.9097C18.8052 9.9097 18.8214 10.0231 18.7458 10.0717C18.7458 10.1581 18.6594 10.2013 18.6594 10.2013C18.6594 10.2013 18.7134 10.2337 18.6378 10.2877C18.5622 10.3417 17.7791 10.8223 17.7791 10.817C17.7791 10.8116 18.3516 10.9196 18.3894 10.9412C18.4272 10.9628 18.8592 11.249 18.8592 11.249L18.4217 11.789C18.4217 11.789 17.9357 11.735 17.9141 11.762C17.8925 11.789 18.0167 11.7998 18.0437 11.843C18.0707 11.8862 18.1139 11.9888 18.2003 11.978C18.2867 11.9672 18.0383 12.1346 17.8763 12.1508C17.8763 12.2102 18.0815 12.2156 18.1355 12.1671C18.1895 12.1184 18.0059 12.3075 17.9843 12.3344C17.9627 12.3614 18.2273 12.2966 18.2273 12.2966C18.2273 12.2966 18.1841 12.4749 17.9519 12.5289C18.0437 12.6801 18.0059 12.7773 18.0005 12.7773C17.9951 12.7773 17.8493 12.6261 17.7089 12.653C17.7467 12.7989 17.8601 12.9339 17.8925 12.9555C17.9249 12.9771 17.6387 12.9717 17.6009 12.8907C17.5631 12.8097 17.5307 13.0851 17.6333 13.1715C17.5145 13.1769 17.4119 13.1067 17.4119 13.1067C17.4119 13.1067 17.3417 13.2687 17.3903 13.3497C17.4389 13.4307 17.2229 13.1877 17.2229 13.1877L16.8125 13.3605L16.7207 13.2039L16.7206 13.2039Z" fill="#9C3900" stroke="black" stroke-width="0.01" stroke-linejoin="round"/>
<path d="M13.5488 12.8824C13.5585 12.8824 14.1451 12.8728 14.4143 12.7189C14.549 12.9305 14.7317 13.0747 14.7317 13.0747L14.8182 12.767C14.8182 12.767 15.0298 12.7766 15.049 12.8247C15.0202 12.8824 15.0106 12.9593 15.0106 12.9593C15.0106 12.9593 15.1548 12.969 15.1644 12.9882C15.1741 13.0074 15.126 13.1709 15.126 13.1709L15.7415 13.3152C15.7415 13.3152 15.7895 13.0747 15.8376 13.1036C15.8857 13.1324 16.0973 13.4306 16.3954 13.4498C16.6935 13.469 16.7128 13.1998 16.7128 13.1998L16.7801 13.2382C16.7801 13.2382 16.9051 12.969 16.9243 12.969C16.9436 12.969 16.9724 13.0074 17.1359 13.0074C17.184 13.0651 17.2032 13.1998 17.2032 13.1998C17.2032 13.1998 17.0205 13.3825 17.0782 13.5268C17.1359 13.671 17.1455 13.6325 17.1455 13.6325L18.4726 13.9499C18.4726 13.9499 18.5399 14.0557 18.4245 14.1134C18.4245 14.123 17.0878 13.8056 17.0878 13.8056C17.0878 13.8056 16.9628 13.9499 16.8666 13.921C16.7705 13.8922 16.8378 13.9787 16.8378 13.9787L18.2803 14.0941C18.2803 14.0941 18.3861 14.2288 18.3091 14.2672C18.213 14.2768 16.7512 14.1711 16.7512 14.1711C16.7512 14.1711 16.6647 14.3538 16.5685 14.1999C16.5012 14.3057 16.4243 14.1711 16.4243 14.1711C16.4243 14.1711 16.2992 14.2672 16.28 14.1614C16.1742 14.2384 16.1069 14.1134 16.1069 14.1134L15.4914 14.0749L15.453 14.1326C15.453 14.1326 15.5588 14.1614 15.3953 14.2288C15.2318 14.2961 16.3762 14.2672 16.405 14.2768C16.4339 14.2865 16.3281 14.373 16.3281 14.373C16.3281 14.373 16.9147 14.4115 17.0205 14.2865C17.1263 14.1614 16.982 14.4499 16.982 14.4499C16.982 14.4499 17.4436 14.4307 17.4436 14.4115C17.4436 14.3922 17.434 14.5557 17.1167 14.5365C17.309 14.6615 17.5494 14.7385 17.5494 14.7385C17.5494 14.7385 17.309 14.7962 17.0301 14.7288C17.0782 14.8539 17.2898 14.9693 17.2898 14.9693C17.2898 14.9693 17.1359 15.1039 16.7897 14.7769C16.8859 14.95 16.8089 15.0173 16.7993 14.9981C16.7897 14.9789 16.6262 14.7385 16.2415 14.6519C16.482 14.8058 16.3762 14.8731 16.3762 14.8731C16.3762 14.8731 16.2512 14.6519 16.0492 14.8731C15.9723 14.6711 15.6742 14.5557 15.3087 14.5365C15.1933 14.4019 15.126 14.4403 14.8567 14.3634C14.7029 14.1903 14.4817 13.998 14.4817 13.998C14.4817 13.998 14.4913 13.7383 14.7509 13.7672C14.7798 13.8537 14.7798 13.8249 14.7798 13.8249C14.7798 13.8249 15.0683 13.7191 15.1548 13.8633C15.2798 13.6421 15.4529 13.8303 15.4818 13.9072C15.5646 13.9193 15.9819 13.9306 15.9819 13.9306C15.9819 13.9306 15.9338 13.8441 15.9626 13.8537C15.9915 13.8633 16.2223 13.7672 16.2127 13.7383C16.203 13.7095 16.1934 13.6133 16.2319 13.6229C16.2704 13.6325 15.9049 13.5748 15.703 13.7287C15.6357 13.6614 15.6837 13.4787 15.6837 13.4787L15.0875 13.3537L15.0587 13.5075C15.0587 13.5075 14.8856 13.5364 14.8952 13.4979C14.9048 13.4594 14.8567 13.6325 14.8567 13.6325C14.8567 13.6325 14.6259 13.5748 14.6259 13.5652C14.6259 13.5556 14.6932 13.219 14.6932 13.2286C14.6932 13.2383 14.5009 13.2479 14.2316 13.4498C14.1547 13.2094 13.5488 12.8921 13.5488 12.8825L13.5488 12.8824Z" fill="#FFC221" stroke="black" stroke-width="0.01"/>
<path d="M14.2987 12.0964C14.2987 12.0964 13.8948 12.4426 14.2987 12.6445C14.3179 12.5099 14.3467 12.4906 14.3467 12.4906C14.3467 12.4906 14.6833 12.6157 14.8853 12.3175C14.7987 12.1925 14.6449 12.2406 14.6449 12.2406C14.6449 12.2406 14.3275 12.2406 14.2987 12.0964H14.2987Z" fill="#FFC221" stroke="black" stroke-width="0.01"/>
<path d="M14.6353 12.2468L14.3564 12.4872" stroke="black" stroke-width="0.01"/>
<path d="M14.3125 12.0997C14.3125 12.0997 14.3665 12.0457 14.3827 11.9809C14.3989 11.9161 14.3611 11.8459 14.4259 11.7865C14.4907 11.7271 15.344 11.3653 15.4142 11.2951C15.4844 11.2249 15.614 11.0737 15.6302 11.0413C15.6464 11.0089 15.695 11.2033 15.5492 11.2897C15.7058 11.2465 15.8084 11.1979 15.8732 11.2195C15.8084 11.3113 15.6356 11.4625 15.5546 11.4625C15.7436 11.3923 15.9164 11.3329 15.965 11.3707C16.0136 11.4085 15.7328 11.5975 15.6194 11.6083C15.8084 11.5597 16.0622 11.4841 16.0946 11.5651C15.992 11.5975 16.0244 11.6245 15.8138 11.7433C15.7868 11.7649 15.6518 11.7703 15.6518 11.7703C15.8138 11.7541 16.0352 11.6893 16.0568 11.8081C15.9272 11.8567 15.8786 11.9215 15.7706 11.9485C15.6626 11.9755 15.4142 12.0241 15.263 12.0835C15.1117 12.1429 14.8903 12.3157 14.8903 12.3157C14.8903 12.3157 14.4097 12.3319 14.4097 12.3265C14.4097 12.3211 14.3179 12.1051 14.3125 12.0997L14.3125 12.0997Z" fill="white" stroke="black" stroke-width="0.01" stroke-linejoin="round"/>
<path d="M18.4323 11.7689L19.3666 11.9471C19.3666 11.9471 19.4692 11.8283 19.4152 11.7635C19.5556 11.7311 19.5178 11.5475 19.5178 11.5475C19.5178 11.5475 19.6798 11.4773 19.5448 11.3153C19.6366 11.2235 19.5232 11.1533 19.5232 11.1533C19.5232 11.1533 19.561 10.9913 19.4422 10.9751C19.4746 10.8455 19.237 10.8022 19.237 10.8022C19.237 10.8022 18.7456 10.9373 18.3999 10.9481C18.5134 11.0615 18.3567 11.1317 18.3567 11.1317C18.3567 11.1317 18.4486 11.1965 18.4215 11.2505C18.3946 11.3045 18.4377 11.3639 18.3189 11.4017C18.4755 11.4719 18.3027 11.5907 18.3027 11.5907C18.3027 11.5907 18.4755 11.7095 18.4324 11.7689L18.4323 11.7689Z" fill="white" stroke="black" stroke-width="0.01"/>
<path d="M15.0108 12.9701L14.8857 13.5279" stroke="black" stroke-width="0.01"/>
<path d="M15.1264 13.1807L15.0879 13.3634" stroke="black" stroke-width="0.01"/>
<path d="M15.7413 13.3263L15.6836 13.4994" stroke="black" stroke-width="0.01"/>
<path d="M16.8092 14.4971C16.7996 14.4971 16.5015 14.5356 16.463 14.526C16.4246 14.5164 16.9342 14.6798 16.9342 14.7472" stroke="black" stroke-width="0.01"/>
<path d="M16.2707 14.5662C16.2707 14.5662 15.9726 14.3739 15.9245 14.3931C15.8764 14.4123 16.2226 14.3835 16.2515 14.3546" stroke="black" stroke-width="0.01"/>
<path d="M15.6548 14.3453C15.6548 14.3453 15.3471 14.3549 15.3182 14.3261C15.2894 14.2972 15.6163 14.5376 15.674 14.5184" stroke="black" stroke-width="0.01"/>
<path d="M15.0589 14.2092C15.0492 14.2092 14.8473 14.1323 14.7607 14.113C14.8377 14.19 14.8954 14.2958 15.0877 14.3342" stroke="black" stroke-width="0.01"/>
<path d="M15.1356 14.0824C15.126 14.0631 14.751 13.9477 14.751 13.89C14.8375 13.9189 14.9625 13.9573 15.0779 13.9285" stroke="black" stroke-width="0.01"/>
<path d="M17.1263 13.6422L17.0879 13.8153" stroke="black" stroke-width="0.01"/>
<path d="M15.4941 13.9148C15.4941 13.9148 15.5584 13.9857 15.5007 14.0722" stroke="black" stroke-width="0.01"/>
<path d="M16.847 13.9891L16.7412 13.9988" stroke="black" stroke-width="0.01"/>
<path d="M15.9814 13.9334L16.1738 13.9623" stroke="black" stroke-width="0.01"/>
<path d="M16.4998 13.4378C16.4998 13.4378 16.5052 13.6322 16.3432 13.6268C16.1812 13.6214 16.2352 13.6322 16.2352 13.6322" stroke="black" stroke-width="0.01"/>
<path d="M16.6234 13.4037C16.6234 13.4037 16.6882 13.4253 16.672 13.474C16.6558 13.5226 16.6882 13.663 16.4992 13.798C16.2994 13.8412 16.321 13.6306 16.321 13.6306" stroke="black" stroke-width="0.01"/>
<path d="M16.6934 13.4624C16.6934 13.4624 16.8122 13.3922 16.8284 13.5056C16.8446 13.619 16.7312 13.8296 16.6502 13.862C16.5692 13.8944 16.4774 13.8566 16.4882 13.8026" stroke="black" stroke-width="0.01"/>
<path d="M16.8398 13.5126C16.8398 13.5126 16.9479 13.4262 16.9802 13.5396C17.0127 13.6531 16.8939 13.9069 16.8452 13.9123" stroke="black" stroke-width="0.01"/>
<path d="M16.9912 13.5382C16.9912 13.5382 17.0452 13.5112 17.083 13.5436" stroke="black" stroke-width="0.01"/>
<path d="M16.8177 13.9246C16.7961 13.93 16.7043 13.9354 16.6719 13.8652" stroke="black" stroke-width="0.01"/>
<path d="M16.3321 13.7383C16.3267 13.7383 16.2188 13.7437 16.2188 13.7437" stroke="black" stroke-width="0.01"/>
<path d="M16.748 14.1648L16.7372 13.9866L16.694 13.9272L16.6184 14.0028C16.6184 14.0028 16.6076 14.181 16.5752 14.1972" stroke="black" stroke-width="0.01"/>
<path d="M16.6182 13.9972C16.6128 13.9865 16.5588 13.8839 16.5588 13.8839L16.467 13.9972C16.467 13.9972 16.4562 14.1593 16.4238 14.1755" stroke="black" stroke-width="0.01"/>
<path d="M16.4674 13.9918C16.4674 13.9865 16.4296 13.8839 16.4296 13.8839C16.4296 13.8839 16.3216 13.9433 16.3108 13.9865C16.3 14.0296 16.2946 14.1485 16.2676 14.1593" stroke="black" stroke-width="0.01"/>
<path d="M16.3107 13.9624C16.3107 13.9624 16.3215 13.8652 16.2891 13.8652C16.2567 13.8652 16.1109 14.0002 16.1055 14.119" stroke="black" stroke-width="0.01"/>
<path d="M14.5391 12.0587C14.5391 12.0587 14.5445 11.9507 14.5931 11.9129C14.6417 11.8751 14.8847 11.7833 14.9387 11.7023C14.9927 11.6213 14.8577 11.8427 14.8793 11.9021" stroke="black" stroke-width="0.01"/>
<path d="M14.6367 11.8953C14.6367 11.8953 14.7555 11.9385 14.7285 12.0303" stroke="black" stroke-width="0.01"/>
<path d="M14.7768 11.9596C14.7768 11.9833 14.7675 12.0059 14.7507 12.0227C14.734 12.0394 14.7114 12.0488 14.6877 12.0488C14.6641 12.0488 14.6414 12.0394 14.6247 12.0227C14.608 12.0059 14.5986 11.9833 14.5986 11.9596C14.5986 11.936 14.608 11.9134 14.6247 11.8966C14.6414 11.8799 14.6641 11.8705 14.6877 11.8705C14.7114 11.8705 14.734 11.8799 14.7507 11.8966C14.7675 11.9134 14.7768 11.936 14.7768 11.9596V11.9596Z" stroke="black" stroke-width="0.01"/>
<path d="M18.3408 11.567C18.3408 11.567 19.1671 11.6642 19.2049 11.6642C19.2427 11.6642 19.3885 11.7128 19.4155 11.7614" stroke="black" stroke-width="0.01"/>
<path d="M18.3838 11.5205L19.534 11.5475" stroke="black" stroke-width="0.01"/>
<path d="M18.3896 11.4912C18.3896 11.4912 19.4805 11.4264 19.5561 11.313" stroke="black" stroke-width="0.01"/>
<path d="M18.4219 11.2529C18.4219 11.2529 19.5181 11.1341 19.529 11.1503" stroke="black" stroke-width="0.01"/>
<path d="M18.3838 11.1188C18.3838 11.1188 19.4476 10.9513 19.4584 10.9784" stroke="black" stroke-width="0.01"/>
<path d="M15.3496 10.4333C15.3496 10.4333 15.6844 10.8006 15.652 11.049" stroke="black" stroke-width="0.01"/>
<path d="M15.6299 10.8546C15.6299 10.8546 15.7379 11.0112 15.7811 11.0274C15.8243 11.0436 16.2023 11.0652 16.2239 11.2272C16.2455 11.3298 16.1429 11.2974 16.1591 11.373C16.1861 11.4702 16.4399 11.5944 16.7153 11.4486" stroke="black" stroke-width="0.01"/>
<path d="M16.4619 11.5227C16.4619 11.5227 16.6887 11.8575 17.0235 11.4957" stroke="black" stroke-width="0.01"/>
<path d="M16.8506 11.6443C16.8506 11.6443 17.126 11.7901 17.3528 11.4121" stroke="black" stroke-width="0.01"/>
<path d="M17.0615 11.6729C17.0615 11.6729 17.1965 11.7863 17.4774 11.6351" stroke="black" stroke-width="0.01"/>
<path d="M17.8662 11.4865C17.8662 11.4865 18.282 11.5728 18.309 11.5999" stroke="black" stroke-width="0.01"/>
<path d="M18.0225 11.3966C18.0279 11.3966 18.3141 11.4074 18.3141 11.4074" stroke="black" stroke-width="0.01"/>
<path d="M17.8438 11.2311C17.8438 11.2311 18.3406 11.1987 18.4054 11.3013" stroke="black" stroke-width="0.01"/>
<path d="M17.6279 11.0745C17.6279 11.0745 18.3246 11.1015 18.357 11.1393" stroke="black" stroke-width="0.01"/>
<path d="M17.7852 11.789C17.7852 11.789 17.904 11.7566 17.9202 11.7729" stroke="black" stroke-width="0.01"/>
<path d="M17.5146 12.0812C17.5146 12.0812 17.6713 12.2162 17.8711 12.1568" stroke="black" stroke-width="0.01"/>
<path d="M17.6006 12.3104C17.6006 12.3104 17.7788 12.3914 17.9894 12.3427" stroke="black" stroke-width="0.01"/>
<path d="M17.6602 12.4404C17.6602 12.4404 17.8384 12.5592 17.9572 12.5376" stroke="black" stroke-width="0.01"/>
<path d="M17.5791 12.5117C17.5791 12.5117 17.7033 12.6035 17.7087 12.6521" stroke="black" stroke-width="0.01"/>
<path d="M17.4062 12.6201C17.4062 12.6201 17.4441 12.8145 17.5791 12.8847" stroke="black" stroke-width="0.01"/>
<path d="M17.3152 12.7068C17.3152 12.7068 17.2558 12.9607 17.407 13.1173" stroke="black" stroke-width="0.01"/>
<path d="M17.1583 12.9081C17.1583 12.9135 17.1475 13.0269 17.1529 13.0378" stroke="black" stroke-width="0.01"/>
<path d="M16.1865 11.9227L16.4781 11.9065C16.4781 11.9065 16.5861 11.8633 16.5105 11.7931" stroke="black" stroke-width="0.01"/>
<path d="M16.5479 11.8582C16.5533 11.8582 16.8233 11.8798 16.8935 11.9608C16.9637 12.0418 17.0501 12.2038 17.0987 12.2308C17.1473 12.2578 17.1581 12.22 17.1581 12.22" stroke="black" stroke-width="0.01"/>
<path d="M17.0394 12.1772C17.0394 12.1772 16.8936 12.4256 17.0071 12.5012" stroke="black" stroke-width="0.01"/>
<path d="M16.9581 12.4528C16.9581 12.4528 16.8285 12.6256 16.9311 12.712" stroke="black" stroke-width="0.01"/>
<path d="M16.905 12.6882C16.905 12.6882 16.8024 12.8557 16.9267 12.969" stroke="black" stroke-width="0.01"/>
<path d="M16.8586 12.2484C16.8517 12.2554 16.7332 12.339 16.6914 12.3181" stroke="black" stroke-width="0.01"/>
<path d="M16.7334 12.5117C16.7334 12.5117 16.7822 12.5604 16.824 12.5535" stroke="black" stroke-width="0.01"/>
<path d="M16.7393 12.7626L16.8171 12.816" stroke="black" stroke-width="0.01"/>
<path d="M16.75 12.9577L16.8173 12.9983" stroke="black" stroke-width="0.01"/>
<path d="M15.5303 10.3094C15.5303 10.3094 15.6722 10.3833 15.7858 10.3094C15.8994 10.2356 16.4446 9.95735 16.5865 9.91193C16.7285 9.8665 16.808 9.60527 16.8364 9.4917" stroke="black" stroke-width="0.01"/>
<path d="M16.7285 9.80201L17.5235 9.56917C17.5235 9.56917 17.6542 9.46127 17.6598 9.26251" stroke="black" stroke-width="0.01"/>
<path d="M17.6025 9.47624C17.6025 9.47624 18.3976 9.39674 18.3976 9.10144" stroke="black" stroke-width="0.01"/>
<path d="M18.2734 9.30537C18.2734 9.30537 19.1082 9.07822 19.1877 8.99304" stroke="black" stroke-width="0.01"/>
<path d="M15.9453 10.4922C15.9453 10.4922 16.4507 10.231 16.5302 10.2026C16.6097 10.1742 16.7914 9.94702 16.5189 9.94702" stroke="black" stroke-width="0.01"/>
<path d="M16.1895 10.5964C16.1951 10.5964 16.604 10.3295 16.7403 10.2954C16.8141 10.1932 16.7744 10.0853 16.6494 10.108" stroke="black" stroke-width="0.01"/>
<path d="M16.7736 10.2248C16.7849 10.2191 16.995 10.2134 16.9212 10.3781C16.8134 10.4576 16.3477 10.6904 16.3477 10.6904" stroke="black" stroke-width="0.01"/>
<path d="M16.666 10.0498L17.5519 9.75447C17.5519 9.75447 17.6257 9.60114 17.5178 9.57843" stroke="black" stroke-width="0.01"/>
<path d="M18.256 9.31207C18.256 9.31775 18.3696 9.38022 18.3015 9.48243C18.1765 9.55626 17.5859 9.69822 17.5859 9.69822" stroke="black" stroke-width="0.01"/>
<path d="M19.153 9.21918L18.3184 9.45207" stroke="black" stroke-width="0.01"/>
<path d="M19.0911 9.40497L18.3643 9.62644" stroke="black" stroke-width="0.01"/>
<path d="M19.0284 9.58777L18.3867 9.78074" stroke="black" stroke-width="0.01"/>
<path d="M18.9086 9.77051C18.8916 9.77051 18.4316 9.91248 18.4316 9.91248" stroke="black" stroke-width="0.01"/>
<path d="M18.807 9.91296L18.5117 10.0322" stroke="black" stroke-width="0.01"/>
<path d="M18.7331 10.0709C18.7217 10.0709 18.4775 10.1788 18.4775 10.1788" stroke="black" stroke-width="0.01"/>
<path d="M18.6588 10.2041L18.4316 10.312" stroke="black" stroke-width="0.01"/>
<path d="M18.2676 10.4457C18.2676 10.4457 18.296 10.4571 18.2903 10.4912" stroke="black" stroke-width="0.01"/>
<path d="M17.6942 10.7617C17.6942 10.7617 17.7907 10.7957 17.6999 10.8866C17.6545 10.9491 17.5238 10.932 17.4443 11.0456" stroke="black" stroke-width="0.01"/>
<path d="M18.3127 9.48865C18.3127 9.48865 18.432 9.51704 18.3411 9.67037C18.1026 9.76123 17.6199 9.90888 17.6199 9.90888C17.6199 9.90888 17.5972 9.94863 17.5347 9.9827C17.4723 10.0168 16.7852 10.2098 16.7852 10.2098" stroke="black" stroke-width="0.01"/>
<path d="M18.353 9.66211C18.353 9.66211 18.4836 9.7189 18.353 9.81544C18.2054 9.90062 17.6886 10.0596 17.6886 10.0596C17.6886 10.0596 17.6829 10.105 17.6602 10.1221C17.6375 10.1391 16.9561 10.3663 16.9561 10.3663" stroke="black" stroke-width="0.01"/>
<path d="M18.3862 9.81384C18.3862 9.81384 18.5225 9.8536 18.4033 9.96717C18.2613 10.0523 17.807 10.2057 17.807 10.2057C17.807 10.2057 17.7616 10.2625 17.6877 10.2852C17.6139 10.3079 17.1426 10.501 17.1426 10.501" stroke="black" stroke-width="0.01"/>
<path d="M18.4207 9.96875C18.4605 9.98579 18.5684 10.0028 18.4378 10.105C18.2844 10.1732 17.9096 10.3208 17.9096 10.3208L17.8756 10.3833L17.2793 10.6388" stroke="black" stroke-width="0.01"/>
<path d="M18.4548 10.1236C18.4548 10.1236 18.5116 10.1917 18.3866 10.2712C18.2504 10.3451 17.9551 10.4586 17.9551 10.4586" stroke="black" stroke-width="0.01"/>
<path d="M18.387 10.2816C18.387 10.2816 18.4494 10.3213 18.37 10.3781C18.2791 10.4235 17.9213 10.6109 17.9213 10.6109L17.6885 10.7643" stroke="black" stroke-width="0.01"/>
<path d="M17.5693 9.76117C17.5693 9.76685 17.6659 9.84635 17.6318 9.93721C17.717 9.99968 17.6999 10.0678 17.6999 10.0678C17.6999 10.0678 17.8192 10.136 17.8022 10.2325C17.9214 10.2609 17.9158 10.329 17.9158 10.329L17.876 10.3915C17.876 10.3915 17.9952 10.3858 17.893 10.5392C17.9555 10.5732 17.9271 10.613 17.9271 10.613" stroke="black" stroke-width="0.01"/>
<path d="M17.8927 10.5417C17.8757 10.5417 17.4782 10.6894 17.376 10.7803" stroke="black" stroke-width="0.01"/>
<path d="M16.9326 10.3683C16.9326 10.3683 17.0519 10.3626 17.0349 10.4933C17.1711 10.4478 17.1427 10.5784 17.1427 10.5784C17.1427 10.5784 17.3017 10.516 17.2734 10.7147C17.3756 10.692 17.3585 10.7942 17.3585 10.7942C17.3585 10.7942 17.4494 10.7885 17.4494 10.8397C17.5119 10.7829 17.58 10.8113 17.58 10.8113C17.58 10.8113 17.6254 10.7488 17.6879 10.7658" stroke="black" stroke-width="0.01"/>
<path d="M17.0407 10.4891C17.0407 10.5004 16.5068 10.7957 16.5068 10.7957" stroke="black" stroke-width="0.01"/>
<path d="M17.1434 10.582L16.7402 10.8319" stroke="black" stroke-width="0.01"/>
<path d="M17.2789 10.7059C17.2789 10.7116 16.9268 10.916 16.9268 10.916" stroke="black" stroke-width="0.01"/>
<path d="M17.3584 10.7864C17.3584 10.7864 17.1085 10.9909 17.0518 10.9795" stroke="black" stroke-width="0.01"/>
<path d="M17.4438 10.8515C17.4438 10.8515 17.3019 10.9594 17.1826 11.0105" stroke="black" stroke-width="0.01"/>
<path d="M17.592 10.805C17.592 10.805 17.6374 10.8618 17.3535 11.0094" stroke="black" stroke-width="0.01"/>
<path d="M20 6L20 18L4 18L4 6L20 6ZM20 5L4 5C3.4 5 3 5.4 3 6L3 18C3 18.6 3.4 19 4 19L20 19C20.6 19 21 18.6 21 18L21 6C21 5.4 20.6 5 20 5Z" fill="#B5B5B5"/>
</svg>
