<svg width="24" height="24" viewBox="0 0 24 24" fill="none" xmlns="http://www.w3.org/2000/svg">
<path d="M4 6H20V18H4V6Z" fill="#D0103A"/>
<path d="M4 6H15V18H4V6Z" fill="#FEDF00"/>
<path d="M4 6H9V18H4V6Z" fill="#0018A8"/>
<path d="M11.5993 9C11.7608 9 11.8268 9.192 11.9883 9.192C12.088 9.192 12.1461 9.14688 12.2329 9.07892C12.2935 9.03138 12.3322 9.00594 12.4018 9.00594C12.473 9.00594 12.5167 9.03584 12.5532 9.12051C12.5738 9.16842 12.5909 9.26219 12.5818 9.31603C12.5692 9.39883 12.5501 9.47947 12.5248 9.55649C12.5108 9.6018 12.4976 9.62891 12.4976 9.6783C12.4976 9.79714 12.6141 9.83799 12.6936 9.83966C12.7109 9.84003 12.8561 9.84338 12.9456 9.71785C12.8971 9.71488 12.8428 9.66271 12.8428 9.59549C12.8428 9.51936 12.8814 9.46792 12.9337 9.44601C12.9436 9.44193 12.9605 9.45418 12.9696 9.44768C12.9823 9.4384 12.9763 9.41853 12.9877 9.40609C13.0138 9.37712 13.0307 9.35911 13.064 9.35911C13.0859 9.35911 13.0986 9.36338 13.1162 9.38084C13.1254 9.38994 13.1287 9.40126 13.1401 9.40126C13.164 9.40126 13.1759 9.38028 13.1998 9.38028C13.2192 9.38028 13.231 9.38399 13.248 9.39606C13.2623 9.40628 13.2619 9.4397 13.278 9.4397C13.286 9.4397 13.3286 9.41556 13.3509 9.41556C13.3971 9.41556 13.4218 9.43877 13.4516 9.48742C13.4597 9.50042 13.4648 9.52697 13.4731 9.52697C13.4935 9.52925 13.5132 9.53818 13.5307 9.55302C13.5482 9.56786 13.5628 9.5882 13.5736 9.61239C13.5791 9.62445 13.5874 9.65416 13.597 9.65936C13.6083 9.66531 13.6178 9.66419 13.6327 9.67737C13.6664 9.70746 13.6925 9.7639 13.6912 9.81849C13.6908 9.83706 13.6848 9.86269 13.6812 9.88014C13.6418 10.071 13.548 10.1317 13.4534 10.2957C13.4132 10.3655 13.3813 10.4214 13.3813 10.5111C13.3813 10.5326 13.4006 10.5724 13.409 10.5902C13.4038 10.5482 13.4177 10.4964 13.4499 10.494C13.4938 10.4909 13.5277 10.5371 13.5336 10.5974C13.535 10.6115 13.5311 10.6361 13.5268 10.6504C13.552 10.6283 13.5804 10.6144 13.61 10.6095C13.6254 10.6073 13.6344 10.6065 13.6499 10.6071C13.7203 10.6095 13.7978 10.6643 13.8449 10.7198C13.9889 10.8893 14.0063 11.1374 13.9984 11.2063C13.981 11.3593 13.992 11.6365 13.7096 11.747C13.7618 11.7775 13.7973 11.8319 13.7973 11.8987C13.7973 11.9717 13.7571 12.0339 13.7045 12.0339C13.6745 12.0339 13.6536 12.0237 13.6325 11.9945C13.5738 12.0759 13.5624 12.1589 13.5624 12.2742C13.5624 12.3429 13.5718 12.3837 13.5927 12.4461C13.6148 12.512 13.6306 12.5506 13.6704 12.5984C13.6915 12.5544 13.7137 12.5222 13.7519 12.5222C13.7887 12.5222 13.8201 12.5386 13.8352 12.5852C13.8397 12.5993 13.8356 12.6108 13.8409 12.6245C13.8476 12.6422 13.8587 12.6461 13.8655 12.6639C13.8762 12.691 13.8658 12.7144 13.8749 12.7426C13.8809 12.761 13.8939 12.7636 13.8995 12.782C13.9085 12.8102 13.9109 12.8295 13.9109 12.8607C13.9109 12.948 13.8537 13.0104 13.7907 13.0104C13.7717 13.0104 13.7613 12.9998 13.7425 13.0024C13.7784 13.0524 13.8059 13.0741 13.8334 13.1337C13.873 13.22 13.8829 13.2813 13.892 13.3831C13.8936 13.402 13.8939 13.4135 13.8939 13.433C13.8939 13.5636 13.8792 13.6415 13.8371 13.7583C13.7969 13.8703 13.7625 13.9323 13.6893 14.0053C13.5753 14.1189 13.4921 14.1518 13.3541 14.1889C13.2786 14.2108 13.202 14.2248 13.125 14.2309C13.0099 14.2411 12.9444 14.2413 12.8296 14.2519C12.679 14.266 12.5746 14.2955 12.4678 14.4435C12.5182 14.4946 12.553 14.5449 12.553 14.631C12.553 14.7198 12.5135 14.7831 12.4525 14.811C12.4385 14.8175 12.428 14.8115 12.4148 14.8214C12.3988 14.8329 12.3996 14.8581 12.3845 14.8713C12.3577 14.8949 12.3369 14.9001 12.3049 14.9001C12.2486 14.9001 12.2102 14.8817 12.1704 14.8268C12.1243 14.8799 12.1087 14.9278 12.0568 14.9684C12.0397 14.9814 12.031 15 12.0112 15C11.9804 15 11.966 14.9727 11.9413 14.9475C11.9067 14.9139 11.8755 14.8742 11.8484 14.8294C11.8014 14.8684 11.7724 14.9001 11.7178 14.9001C11.6842 14.9001 11.6628 14.8936 11.6344 14.8685C11.6196 14.8559 11.617 14.837 11.6023 14.824C11.5866 14.8106 11.5736 14.8154 11.5567 14.8056C11.4935 14.7679 11.4526 14.7029 11.4526 14.6075C11.4526 14.5239 11.4907 14.4706 11.5453 14.4355C11.4406 14.2903 11.3373 14.2651 11.1894 14.2517C11.0749 14.2417 11.0098 14.2413 10.8958 14.2309C10.8051 14.2224 10.7547 14.2095 10.6647 14.1889C10.5968 14.1735 10.5566 14.1685 10.4943 14.1284C10.2799 13.9901 10.1434 13.8001 10.1155 13.4748C10.1131 13.4469 10.1136 13.431 10.1136 13.4027C10.1136 13.2334 10.1616 13.1302 10.248 13.0104C10.2258 13.003 10.2109 13.0134 10.1893 13.0024C10.1353 12.9753 10.0965 12.9233 10.0965 12.8437C10.0965 12.8141 10.0974 12.7944 10.1079 12.7688C10.1152 12.7508 10.1293 12.7473 10.1325 12.7269C10.1368 12.6999 10.1312 12.681 10.1401 12.6559C10.146 12.6392 10.1572 12.6361 10.1629 12.6192C10.1815 12.5653 10.205 12.5221 10.248 12.5221C10.285 12.5221 10.3087 12.549 10.3276 12.593C10.3636 12.57 10.3735 12.5326 10.3939 12.4853C10.4277 12.4069 10.4431 12.3521 10.4431 12.261C10.4431 12.1973 10.4387 12.16 10.4242 12.0994C10.4137 12.0562 10.4094 12.0266 10.3863 11.9945C10.3771 12.008 10.3659 12.0185 10.3534 12.0253C10.341 12.0321 10.3277 12.035 10.3143 12.0339C10.2542 12.0339 10.2082 11.9624 10.2082 11.879C10.2075 11.8506 10.2132 11.8225 10.2244 11.7986C10.2355 11.7747 10.2517 11.7561 10.2708 11.7453C10.2384 11.7063 10.2102 11.7032 10.1742 11.6716C10.1195 11.6237 10.1004 11.5732 10.0643 11.4984C10.0409 11.4495 10.0348 11.4154 10.0228 11.3593C10.0082 11.2917 10 11.2514 10 11.181C10 11.1625 10.0001 11.1517 10.0019 11.1337C10.0153 10.9913 10.0338 10.902 10.0983 10.7898C10.1368 10.7231 10.1628 10.6821 10.2196 10.6481C10.2678 10.6192 10.2968 10.598 10.3493 10.598C10.3652 10.598 10.3745 10.598 10.39 10.6008C10.4141 10.6051 10.4297 10.608 10.4507 10.6244C10.4588 10.6307 10.4735 10.6494 10.4735 10.6362C10.4735 10.6212 10.4677 10.6132 10.4677 10.5982C10.4677 10.5378 10.4989 10.4827 10.5425 10.4827C10.574 10.4827 10.5867 10.5211 10.6022 10.5588C10.6121 10.5397 10.6174 10.5168 10.6174 10.4933C10.6174 10.3934 10.5788 10.3425 10.5341 10.2649C10.4365 10.0959 10.3143 10.0168 10.3143 9.8003C10.3143 9.73568 10.3368 9.69167 10.3768 9.65843C10.3884 9.64915 10.404 9.65843 10.4153 9.64841C10.4251 9.63987 10.4239 9.62241 10.4301 9.60867C10.4399 9.5875 10.4484 9.57822 10.462 9.56188C10.4842 9.53496 10.5038 9.54294 10.5283 9.51936C10.5406 9.50766 10.5436 9.49225 10.5531 9.47665C10.5805 9.4306 10.6052 9.40832 10.6485 9.40832C10.6702 9.40832 10.6825 9.4085 10.7026 9.41965C10.7094 9.42336 10.7223 9.43766 10.724 9.43487C10.7323 9.42099 10.7425 9.4095 10.754 9.40108C10.7723 9.38901 10.7795 9.38437 10.8 9.38437C10.8232 9.38437 10.8383 9.40238 10.8616 9.40238C10.8701 9.40238 10.8721 9.39049 10.8791 9.38437C10.8996 9.36505 10.9113 9.3541 10.9365 9.3541C10.9606 9.3541 10.974 9.36524 10.9943 9.38307C11.0134 9.39978 11.0163 9.42225 11.0358 9.43803C11.0468 9.44694 11.0559 9.44286 11.0681 9.44861C11.1221 9.47349 11.1628 9.52326 11.1628 9.60199C11.1628 9.64469 11.1555 9.67515 11.1325 9.70318C11.1143 9.72547 11.097 9.72157 11.0737 9.73197C11.149 9.81534 11.2145 9.83595 11.3107 9.83595C11.3988 9.83595 11.5064 9.78619 11.5064 9.66401C11.5064 9.60737 11.4838 9.57673 11.4678 9.52474C11.4388 9.4319 11.4232 9.37712 11.4232 9.27611C11.4232 9.19608 11.4295 9.14743 11.4631 9.08244C11.4976 9.0156 11.5399 9 11.5993 9Z" fill="#C7B37F"/>
<path d="M10.8096 9.82863C10.8138 9.84415 10.8216 9.85827 10.8323 9.86966C10.843 9.88106 10.8562 9.88935 10.8707 9.89377C10.8883 9.89805 10.9067 9.89682 10.9237 9.89022C10.9407 9.88363 10.9556 9.87195 10.9665 9.85657C10.9905 9.82314 10.9889 9.78166 10.9798 9.74857C10.9739 9.72732 10.9579 9.70674 10.9366 9.68909L10.8096 9.82726V9.82863V9.82863Z" stroke="#703D29" stroke-width="0.05" stroke-linejoin="round"/>
<path d="M14.0255 11.894C13.9956 11.8168 13.9184 11.8513 13.9138 11.894C13.9028 11.9922 13.9832 12.0218 14.0404 12.0059C14.0535 12.0023 14.0658 11.9958 14.0766 11.9868C14.0873 11.9779 14.0962 11.9667 14.1028 11.954C14.1105 11.9388 14.1153 11.9222 14.117 11.9051C14.1186 11.888 14.117 11.8707 14.1124 11.8542C14.108 11.8381 14.1009 11.823 14.0912 11.8098C14.0825 11.797 14.0716 11.7861 14.0592 11.7774C14.0373 11.7625 14.0133 11.7609 13.9757 11.7609C13.8365 11.7609 13.7144 11.9373 13.6735 12.1206C13.66 12.1809 13.6415 12.3155 13.6671 12.443C13.6946 12.579 13.7495 12.6731 13.8138 12.7446C13.8487 12.7832 13.896 12.8176 13.9576 12.8548C13.9765 12.8663 14.0268 12.8901 14.0616 12.9008C14.0973 12.9117 14.1304 12.9102 14.16 12.9033C14.2426 12.8841 14.281 12.8018 14.2394 12.7177C14.2053 12.6488 14.105 12.611 14.0578 12.6988C14.0513 12.7115 14.0478 12.7258 14.0477 12.7403C14.048 12.7638 14.0572 12.7921 14.0727 12.8027C14.1087 12.8272 14.1661 12.8202 14.1636 12.7523" stroke="#703D29" stroke-width="0.05" stroke-linecap="round"/>
<path d="M13.5949 12.9109C13.6229 12.8756 13.6871 12.8228 13.7604 12.8132C13.8349 12.8033 13.8996 12.8266 13.9656 12.8646C14.0946 12.939 14.1664 13.0189 14.2144 13.167C14.2266 13.2048 14.2368 13.2613 14.2352 13.3217C14.233 13.4177 14.2103 13.5228 14.1858 13.5737C14.1645 13.6179 14.1087 13.8135 13.8028 13.9484C13.6242 14.0273 13.35 14.0454 13.1608 14.0533C12.9007 14.0645 12.6607 14.0748 12.5215 14.2587" stroke="#703D29" stroke-width="0.05"/>
<path d="M13.6592 13.2251C13.6517 13.1958 13.6587 13.1677 13.6803 13.1359C13.7095 13.0931 13.7712 13.0785 13.8272 13.1119C13.8459 13.1229 13.8693 13.1377 13.8906 13.1678C13.8986 13.1791 13.9122 13.1977 13.9192 13.2103C13.9362 13.2415 13.9432 13.2669 13.9464 13.2772C14.008 13.4644 13.9103 13.6674 13.7824 13.7488C13.6832 13.8122 13.5647 13.8403 13.4229 13.8582C13.3592 13.8662 13.3227 13.8657 13.2587 13.8688C13.2071 13.8714 13.1626 13.8705 13.1207 13.87C13.0861 13.8695 13.0533 13.8697 13.0199 13.8688C12.9597 13.8664 12.8994 13.8674 12.8394 13.8715C12.7666 13.8772 12.7119 13.8791 12.6504 13.8902C12.6101 13.8973 12.5631 13.9043 12.5136 13.9161C12.4989 13.9195 12.4839 13.9226 12.4688 13.9274L12.4386 13.9374C12.3495 13.9665 12.2629 14.002 12.1946 14.0491C12.1735 14.0637 12.1496 14.0783 12.1325 14.0954C12.1219 14.1062 12.109 14.117 12.0986 14.128C12.0506 14.1786 12.0018 14.2331 11.9903 14.307C11.9882 14.3207 11.9882 14.3349 11.9882 14.3498C11.9882 14.3978 12.0247 14.4633 12.1229 14.4846M12.2611 9.92783C12.2818 9.9676 12.2931 9.99195 12.281 10.0331C12.2675 10.0799 12.2367 10.1078 12.1927 10.1078C12.0931 10.1078 12.0347 9.98149 12.0795 9.90109C12.1591 9.75863 12.3122 9.83869 12.4539 9.90932C12.4471 9.8728 12.4352 9.8608 12.4363 9.81555C12.4395 9.70292 12.5175 9.652 12.5485 9.54812C12.5671 9.48606 12.5744 9.43223 12.532 9.38835C12.4952 9.34995 12.4523 9.35063 12.4042 9.37069C12.3079 9.41115 12.1922 9.52738 11.9887 9.53063C11.7851 9.52738 11.6685 9.41115 11.5722 9.37069C11.524 9.35046 11.4811 9.34995 11.4442 9.38835C11.4019 9.43223 11.4093 9.48606 11.4279 9.54795C11.4591 9.652 11.5368 9.70292 11.5399 9.81538C11.5411 9.8608 11.5293 9.87263 11.5224 9.90932C11.6642 9.83869 11.8232 9.75143 11.8968 9.90109C11.9379 9.98458 11.8832 10.1078 11.7837 10.1078C11.7399 10.1078 11.709 10.0778 11.6954 10.0331C11.6832 9.99332 11.6954 9.95852 11.7152 9.92783" stroke="#703D29" stroke-width="0.05"/>
<path d="M11.8636 9.85394C11.902 9.88549 11.9292 9.92423 11.9247 9.98714C11.9198 10.0557 11.9043 10.072 11.8545 10.1083M11.9145 10.0067C11.9123 10.0478 11.8964 10.0746 11.858 10.0915" stroke="#703D29" stroke-width="0.05" stroke-linecap="round"/>
<path d="M10.9178 9.67499L10.9353 9.68836L10.9538 9.70962L10.9663 9.73636L10.9727 9.75899L10.9738 9.78813L10.9725 9.80819L10.9663 9.83099L10.9538 9.84693L10.9389 9.86424L10.9178 9.87624L10.8905 9.88293L10.8668 9.88687L10.842 9.87487L10.8196 9.85773L10.8058 9.8363L10.7959 9.80956V9.79893L10.9178 9.67499Z" fill="#C7B37F"/>
<path d="M10.8798 9.77813C10.8721 9.7339 10.8238 9.72482 10.8053 9.75088C10.7765 9.79116 10.7974 9.85819 10.856 9.87773C10.8736 9.88201 10.892 9.88078 10.909 9.87418C10.926 9.86759 10.9409 9.85591 10.9518 9.84053C10.976 9.80693 10.9742 9.76545 10.9651 9.73253C10.9592 9.71128 10.9433 9.69259 10.9219 9.67528C10.8539 9.61973 10.744 9.63259 10.708 9.72585C10.6614 9.84619 10.7627 9.93653 10.856 10.0044C10.9734 10.0901 11.1072 10.1056 11.208 10.1044C11.4369 10.1018 11.6112 9.98436 11.7243 9.91785C11.7507 9.90242 11.7777 9.9055 11.7915 9.92299C11.7995 9.93376 11.8033 9.94743 11.8021 9.96114C11.8009 9.97485 11.7948 9.98753 11.7851 9.99653" stroke="#703D29" stroke-width="0.05" stroke-linecap="round"/>
<path d="M10.2011 13.1016L10.1501 13.1216L10.0979 13.1641L10.0755 13.1976L10.0467 13.2507L10.0344 13.2908L10.0245 13.3402L10.0195 13.3774M10.4947 13.1069L10.4911 13.1549L10.4835 13.1881L10.4611 13.2456L10.4263 13.2948L10.389 13.3268L10.3618 13.3414L10.3231 13.3508" stroke="#703D29" stroke-width="0.05"/>
<path d="M11.9935 14.3859C11.9842 14.4303 11.9455 14.4811 11.861 14.4994L11.8447 14.5028" stroke="#703D29" stroke-width="0.05"/>
<path d="M14.1053 12.9703C14.1587 13.0237 14.1963 13.0886 14.2251 13.1778C14.2373 13.2155 14.2474 13.2722 14.2459 13.3326C14.2437 13.4286 14.221 13.5337 14.1965 13.5846C14.1752 13.6288 14.1194 13.8244 13.8133 13.9593C13.6347 14.0382 13.3605 14.0562 13.1715 14.0642C12.915 14.075 12.6782 14.0853 12.5381 14.2617" stroke="#703D29" stroke-width="0.05"/>
<path d="M13.6865 13.1447C13.7056 13.117 13.7748 13.0818 13.8308 13.1151C13.8548 13.1278 13.8752 13.1469 13.8902 13.1706" stroke="#703D29" stroke-width="0.05"/>
<path d="M14.04 12.9021C14.0525 12.9073 14.065 12.9119 14.0759 12.9153C14.1117 12.9263 14.1453 12.9272 14.1744 12.9177C14.2452 12.8949 14.2906 12.8241 14.2538 12.7321C14.2439 12.7095 14.2291 12.6899 14.2104 12.675" stroke="#703D29" stroke-width="0.05"/>
<path d="M10.0069 10.9235C9.95937 10.955 9.92401 10.9624 9.88689 11.0083C9.85009 11.0863 9.83569 11.1283 9.82129 11.1909M10.9739 9.80627C10.9739 9.85239 10.9422 9.88136 10.8994 9.89113" stroke="#703D29" stroke-width="0.05" stroke-linecap="round"/>
<path d="M13.9277 10.7157C14.046 10.7131 14.3895 10.8124 14.3919 11.2451C14.3943 11.6723 14.1458 11.7422 14.0463 11.7705" stroke="#703D29" stroke-width="0.05"/>
<path d="M13.959 10.716C14.1628 10.7066 14.3734 10.8674 14.3825 11.2687C14.3897 11.5821 14.1822 11.7244 14.0827 11.7528" stroke="#703D29" stroke-width="0.05"/>
<path d="M13.8451 12.2235L13.8483 12.1807L13.8616 12.1125L13.8805 12.0595L13.9016 12.0158L13.9291 11.9805M14.1237 11.8894L14.1205 11.9314L14.1093 11.9601L14.092 11.9875L14.072 12.0034L14.0416 12.0154L14.0149 12.0173L13.9949 12.0139M13.6371 10.5994L13.6457 10.5542L13.6645 10.5122L13.6888 10.4702L13.7304 10.4129L13.7633 10.3735L13.8168 10.3155L13.8629 10.2655L13.8921 10.2295L13.9305 10.1796L13.9649 10.1242L13.9854 10.079L13.9966 10.0203L14 9.94766L13.9937 9.92657M13.6869 13.3598L13.7273 13.3512L13.7577 13.3337L13.7745 13.3157L13.7864 13.2951L13.7944 13.2619L13.795 13.2384M9.83887 12.913L9.86879 12.9158L9.90719 12.9123L9.94591 12.8978M10.0709 11.9187L10.0659 11.9561L10.0579 11.9727L10.0459 11.9887L10.0299 12.0021L10.0118 12.0106L9.98815 12.0147L9.97199 12.0161M10.2195 11.5977L10.2109 11.6556L10.2003 11.681L10.1784 11.713L10.1493 11.737L10.1193 11.753L10.0616 11.7684M10.444 10.7033L10.4328 10.7379L10.4192 10.7633L10.4005 10.7913L10.3744 10.8166L10.3432 10.8326L10.3171 10.8393L10.3009 10.8379M10.3104 10.6719L10.311 10.6985" stroke="#703D29" stroke-width="0.05"/>
<path d="M10.357 11.5734C10.3417 11.5883 10.3239 11.6001 10.3047 11.6082M14.0677 12.8089C14.0698 12.8113 14.077 12.8127 14.0796 12.8142C14.1149 12.8369 14.1848 12.8086 14.1644 12.7499" stroke="#703D29" stroke-width="0.05" stroke-linecap="round"/>
<path d="M13.9444 11.9866C13.9695 12.0217 14.017 12.031 14.0544 12.0205C14.0676 12.0169 14.0799 12.0104 14.0907 12.0015C14.1014 11.9925 14.1103 11.9813 14.1168 11.9686C14.1246 11.9534 14.1294 11.9368 14.1311 11.9196C14.1327 11.9025 14.1311 11.8851 14.1264 11.8686C14.1221 11.8526 14.1149 11.8376 14.1053 11.8244C14.0958 11.81 14.0843 11.7971 14.0712 11.7862C14.0685 11.7843 14.0658 11.7817 14.0629 11.7797M14.2236 12.6908C14.2268 12.6731 14.2257 12.6547 14.2203 12.6376C14.215 12.6204 14.2057 12.6051 14.1932 12.5929C14.1863 12.5864 14.1796 12.5763 14.1712 12.5718M14.1832 12.5843C14.1821 12.5345 14.1439 12.4986 14.0967 12.4899M13.9924 12.5658C13.9815 12.5564 13.97 12.5483 13.9597 12.5369C13.8984 12.4683 13.8525 12.3668 13.8519 12.2509C13.8512 12.14 13.8928 12.027 13.9415 11.9831M12.5288 14.2505L12.5736 14.2064L12.6047 14.1812L12.6632 14.1425L12.718 14.1145L12.7564 14.1039L12.8336 14.085L12.9232 14.0705M12.1855 14.5892C12.1532 14.6425 12.076 14.7224 11.9951 14.7545C11.9143 14.7224 11.8372 14.6425 11.8047 14.5892" stroke="#703D29" stroke-width="0.05"/>
<path d="M11.8602 14.4797C11.8502 14.5208 11.8312 14.5587 11.8047 14.5902" stroke="#703D29" stroke-width="0.05" stroke-linecap="round"/>
<path d="M11.8682 14.4252L11.857 14.4838M11.7986 14.5957L11.7749 14.6211L11.7327 14.6463L11.6842 14.6624M11.5431 9.8991C11.5491 9.87887 11.5554 9.86361 11.5544 9.83035C11.5512 9.71772 11.4735 9.66664 11.4424 9.56275C11.4239 9.50087 11.4165 9.44704 11.4587 9.40298C11.4955 9.36458 11.5384 9.36527 11.5867 9.3855C11.6829 9.42595 11.7995 9.54218 12.0032 9.54544C11.7995 9.54201 11.6829 9.42595 11.5866 9.3855C11.5386 9.36527 11.4917 9.35927 11.4547 9.39767C11.4125 9.44172 11.4239 9.50087 11.4424 9.56275C11.4735 9.66664 11.5474 9.71772 11.5504 9.83018C11.5514 9.86361 11.5432 9.87887 11.5371 9.8991M12.0026 9.53772C12.2029 9.52641 12.3746 9.38224 12.4298 9.37041C12.4794 9.36012 12.5067 9.36475 12.5431 9.3999C12.5067 9.36475 12.4656 9.36578 12.4187 9.3855C12.3224 9.42595 12.2067 9.54218 12.0032 9.54527M13.9931 12.5691C13.9452 12.5306 13.9062 12.4808 13.8793 12.4234C13.8523 12.3661 13.838 12.3029 13.8376 12.2388C13.8371 12.1277 13.8787 12.0147 13.9272 11.9708M12.1784 14.5844C12.1461 14.6377 12.069 14.7176 11.988 14.7497C11.9072 14.7176 11.8301 14.6377 11.7978 14.5844" stroke="#703D29" stroke-width="0.05"/>
<path d="M11.666 9.95387L11.7239 9.91924C11.7503 9.90381 11.782 9.90707 11.7958 9.92473C11.8111 9.94461 11.8134 9.97924 11.7921 10.0003" stroke="#703D29" stroke-width="0.05" stroke-linecap="round"/>
<path d="M11.3678 10.1065C11.5053 10.0757 11.6173 10.0098 11.7019 9.95908M12.5086 14.3569C12.52 14.3651 12.5274 14.3826 12.5274 14.3826C12.5306 14.3905 12.5345 14.3981 12.5357 14.4053C12.5421 14.4461 12.5171 14.4714 12.4862 14.4752C12.4681 14.4776 12.4497 14.4735 12.4339 14.4637C12.4181 14.4539 12.4057 14.4389 12.3986 14.4209M11.3608 10.099C11.4982 10.0681 11.6102 10.0023 11.6949 9.95154M14.1342 12.8151C14.1082 12.8259 14.0938 12.8243 14.0613 12.8089C14.048 12.8026 14.0326 12.7928 14.0149 12.7818C13.9512 12.7431 13.8755 12.6821 13.8046 12.5394C13.7723 12.4748 13.7534 12.4035 13.7494 12.3303C13.7477 12.2789 13.7528 12.225 13.7648 12.1637C13.7846 12.062 13.8083 12.0068 13.8667 11.9211C13.8955 11.8787 13.9203 11.853 13.9739 11.8517M10.3814 10.7989C10.4027 10.8173 10.4196 10.8407 10.4311 10.8673C10.4425 10.8939 10.4481 10.9229 10.4474 10.9522C10.4474 11.0351 10.3826 11.1707 10.2234 11.2187C10.1622 11.2371 10.1019 11.2222 10.0654 11.1985" stroke="#703D29" stroke-width="0.05"/>
<path d="M10.4072 11.0765C10.4358 11.0978 10.4471 11.1218 10.4471 11.1635C10.4471 11.1919 10.4298 11.2289 10.4006 11.2641C10.3526 11.3213 10.2711 11.3702 10.181 11.3714C10.1274 11.373 10.0747 11.3566 10.0302 11.3244C9.9826 11.291 9.94844 11.2396 9.93457 11.1804" stroke="#703D29" stroke-width="0.05"/>
<path d="M10.4045 11.2592C10.4369 11.291 10.4469 11.3312 10.4469 11.3814C10.4469 11.4549 10.419 11.5117 10.3549 11.5717C10.3405 11.5852 10.3245 11.5977 10.3064 11.609M13.5421 11.0178V11.1124M13.535 10.9945V11.1277M13.5421 10.706V10.8806M13.535 10.6674V10.906M13.4875 13.1013C13.462 13.1586 13.4265 13.2101 13.383 13.2532C13.3336 13.3053 13.2995 13.3293 13.2374 13.3626C13.1771 13.395 13.1392 13.4053 13.0733 13.4212C13.0169 13.4351 12.9594 13.4427 12.9016 13.4438C12.8398 13.4469 12.8048 13.444 12.7432 13.4396C12.6769 13.4346 12.6403 13.4248 12.5744 13.4185C12.52 13.4133 12.4893 13.4087 12.4345 13.4089C12.3784 13.4089 12.3462 13.4094 12.2909 13.4198C12.2464 13.427 12.2029 13.4401 12.1614 13.4586C12.0942 13.4877 12.0184 13.5385 12.0022 13.5611C11.9861 13.5385 11.9102 13.4877 11.843 13.4586C11.8015 13.4401 11.758 13.427 11.7136 13.4198C11.6662 13.411 11.618 13.4073 11.5699 13.4089C11.5152 13.4087 11.4845 13.4133 11.4301 13.4185C11.364 13.4248 11.3273 13.4346 11.2614 13.4396C11.1997 13.444 11.1646 13.4469 11.1029 13.4438C11.0451 13.4427 10.9875 13.4351 10.9312 13.4212C10.8653 13.4053 10.8273 13.3948 10.767 13.3626C10.7049 13.3293 10.6707 13.3053 10.6214 13.2532L10.6062 13.2369M11.6605 14.6665L11.7053 14.6605M12.4621 14.5974L12.5073 14.5928L12.5504 14.5742L12.5805 14.5547L12.6214 14.5028L12.6299 14.4832L12.6363 14.4383L12.6385 14.4176M13.8113 10.756C13.8307 10.6852 13.807 10.6106 13.743 10.6125M10.4443 11.8598C10.4299 11.9121 10.3978 11.9567 10.3544 11.985M10.4454 10.7336C10.4294 10.7831 10.4001 10.8184 10.3539 10.8409C10.3077 10.8632 10.2542 10.8424 10.2256 10.8186" stroke="#703D29" stroke-width="0.05"/>
<path d="M10.0947 10.9925C10.1331 11.014 10.1718 10.9826 10.1638 10.9291C10.1605 10.9135 10.1526 10.8994 10.1413 10.8888C10.13 10.8782 10.1159 10.8718 10.101 10.8703" stroke="#703D29" stroke-width="0.05" stroke-linecap="round"/>
<path d="M10.2533 13.2484C10.2616 13.2568 10.2634 13.2674 10.2744 13.2696C10.2912 13.273 10.3043 13.2797 10.3211 13.2557C10.3419 13.2261 10.3307 13.1801 10.3091 13.1512C10.2861 13.1203 10.2194 13.0929 10.1634 13.1261C10.1386 13.1394 10.1169 13.1585 10.0999 13.182C10.0919 13.1935 10.0783 13.2118 10.0712 13.2249C10.0544 13.2557 10.0474 13.2811 10.044 13.2914C9.99282 13.4474 10.0536 13.6113 10.1479 13.7114" stroke="#703D29" stroke-width="0.05"/>
<path d="M12.5051 14.3531C12.511 14.3597 12.5165 14.3668 12.5213 14.3744C12.5245 14.3825 12.527 14.3902 12.5281 14.3972C12.5345 14.438 12.5096 14.4634 12.4789 14.4673C12.4365 14.4725 12.4081 14.4457 12.3945 14.4131" stroke="#703D29" stroke-width="0.05" stroke-linecap="round"/>
<path d="M13.7356 9.71716C13.8192 9.72813 13.892 9.81368 13.892 9.90573C13.892 10.0242 13.8548 10.0684 13.7965 10.1533C13.7341 10.2441 13.5303 10.4104 13.5303 10.5997C13.5303 10.7144 13.5602 10.7876 13.6373 10.8249C13.6869 10.8489 13.7452 10.823 13.7717 10.7975C13.8364 10.7348 13.8104 10.6249 13.7429 10.6117C13.6608 10.5957 13.6455 10.7342 13.7256 10.725M14.1712 12.5749C14.1679 12.5517 14.1569 12.5306 14.1404 12.5153C14.1238 12.5 14.1027 12.4914 14.0808 12.4912C14.0686 12.4914 14.0566 12.4941 14.0454 12.4992C14.0342 12.5044 14.0241 12.5118 14.0155 12.5212C14.007 12.5305 14.0003 12.5416 13.9958 12.5537C13.9913 12.5658 13.989 12.5788 13.9892 12.5918C13.9892 12.6191 13.9991 12.6438 14.0151 12.662" stroke="#703D29" stroke-width="0.05"/>
<path d="M13.5967 10.7953C13.5755 10.8137 13.5585 10.8371 13.547 10.8637C13.5356 10.8903 13.53 10.9193 13.5308 10.9485C13.5308 11.0315 13.5956 11.1671 13.7548 11.2151C13.8157 11.2335 13.8741 11.2317 13.9106 11.2079M10.0098 10.9311C9.97173 10.9448 9.92421 10.9701 9.88901 11.0236C9.85925 11.0687 9.84197 11.1313 9.83141 11.1861C9.82661 11.2101 9.82101 11.2861 9.83525 11.3646C9.84511 11.4184 9.86468 11.4697 9.89285 11.5155C9.90046 11.5275 9.9092 11.5386 9.91893 11.5487C9.92709 11.5576 9.93893 11.5653 9.94725 11.5722M11.5476 14.0377C11.6688 14.0953 11.7576 14.1383 11.833 14.2659C11.8567 14.3058 11.8629 14.3632 11.8629 14.3965C11.8629 14.4685 11.8354 14.5497 11.7796 14.6005C11.7276 14.6475 11.6762 14.6617 11.6128 14.655C11.5648 14.6499 11.5196 14.6123 11.512 14.5857M10.3501 11.5722C10.4186 11.6295 10.4471 11.6852 10.4471 11.7735C10.4471 11.8746 10.4012 11.9373 10.3476 11.9733" stroke="#703D29" stroke-width="0.05"/>
<path d="M10.2871 11.9016C10.3892 12.0375 10.4433 12.1182 10.4463 12.2801C10.4492 12.432 10.4041 12.536 10.3194 12.6452" stroke="#703D29" stroke-width="0.05" stroke-linecap="round"/>
<path d="M12.2432 10.1064C12.2625 10.092 12.2766 10.071 12.2832 10.0468C12.2952 10.0068 12.2955 9.97289 12.2755 9.9422C12.3001 9.97649 12.3024 10.0056 12.2955 10.0475C12.291 10.074 12.2752 10.0881 12.2555 10.1073M13.5419 12.4151V12.8477H13.543C13.543 12.8481 13.5428 12.8887 13.5395 12.9144C13.5374 12.9312 13.5352 12.9465 13.5328 12.9607" stroke="#703D29" stroke-width="0.05"/>
<path d="M13.5353 12.3732V12.8398H13.5364C13.5364 12.8401 13.5362 12.8809 13.533 12.9066C13.5302 12.9303 13.5263 12.9538 13.5214 12.9771M13.5353 11.8268V12.216M13.5423 11.8575V12.174M13.5423 11.455V11.6922M13.5353 11.427V11.7195M13.5423 11.2124V11.3045M13.5353 11.1937V11.3271M13.4892 13.0733L13.4807 13.0918C13.4552 13.1491 13.4197 13.2007 13.3762 13.2438C13.3268 13.296 13.2927 13.3198 13.2306 13.353C13.1703 13.3856 13.1324 13.3959 13.0665 13.4117C13.0101 13.4256 12.9526 13.4332 12.8948 13.4345C12.833 13.4374 12.798 13.4345 12.7364 13.43C12.6702 13.425 12.6335 13.4153 12.5676 13.4091C12.5132 13.404 12.4825 13.3992 12.4278 13.3993C12.3716 13.3995 12.3394 13.3998 12.2841 13.4105C12.2396 13.4176 12.1962 13.4306 12.1546 13.449C12.0874 13.4782 12.0116 13.5289 11.9954 13.5517C11.9793 13.5289 11.9034 13.4782 11.8362 13.449C11.7947 13.4306 11.7513 13.4176 11.7068 13.4105C11.6594 13.4016 11.6112 13.3979 11.5631 13.3993C11.5084 13.3993 11.4777 13.404 11.4233 13.4091C11.3572 13.4153 11.3207 13.425 11.2546 13.43C11.1929 13.4346 11.1578 13.4374 11.0961 13.4343C11.0383 13.4331 10.9807 13.4256 10.9244 13.4117C10.8585 13.3957 10.8206 13.3854 10.7602 13.353C10.6982 13.3198 10.6641 13.296 10.6146 13.2438C10.5887 13.2164 10.5698 13.1941 10.5529 13.1691M10.5026 13.0837C10.5134 13.1684 10.4801 13.2517 10.4463 13.29C10.4252 13.314 10.3791 13.3599 10.3218 13.3606C10.2274 13.362 10.1991 13.2924 10.1934 13.2754" stroke="#703D29" stroke-width="0.05"/>
<path d="M10.3897 13.0406C10.4073 13.0592 10.4228 13.0818 10.4361 13.1085C10.4596 13.1565 10.4524 13.2369 10.4337 13.274C10.4316 13.2779 10.4289 13.2824 10.426 13.2866M9.91992 13.7692C9.97608 13.8325 10.0612 13.9012 10.1918 13.9586C10.3703 14.0375 10.6446 14.0557 10.8337 14.0636C11.085 14.0742 11.3169 14.0853 11.4577 14.2521M11.8919 14.1431C11.9335 14.187 11.9759 14.234 11.9938 14.294M11.8102 14.6006C11.8047 14.6068 11.799 14.6126 11.7929 14.6183C11.7409 14.6653 11.6895 14.6797 11.6262 14.673C11.5782 14.6678 11.5318 14.6293 11.5191 14.6039M11.3854 14.5261C11.3876 14.5295 11.3902 14.5329 11.3927 14.536C11.4258 14.5747 11.4714 14.5982 11.5202 14.6017M12.1921 14.5996C12.1598 14.6529 12.0826 14.7328 12.0017 14.7649C11.9209 14.7328 11.8438 14.6529 11.8113 14.5996L11.8039 14.5871M12.1934 14.5993C12.1991 14.6061 12.2054 14.6123 12.2119 14.6181C12.2638 14.6653 12.3151 14.6797 12.3785 14.673C12.4266 14.6678 12.4649 14.6336 12.4802 14.6036C12.4802 14.6036 12.4889 14.5936 12.4914 14.5842" stroke="#703D29" stroke-width="0.05"/>
<path d="M12.476 14.5875L12.4574 14.6196L12.4291 14.6446L12.3864 14.6636L12.3477 14.6654" stroke="#703D29" stroke-width="0.05"/>
<path d="M12.5758 14.2826C12.6007 14.303 12.6204 14.3297 12.6334 14.3602C12.6413 14.3799 12.6449 14.4014 12.6461 14.4236C12.6481 14.4642 12.6353 14.5041 12.6104 14.5347C12.592 14.5566 12.5693 14.5738 12.544 14.5853C12.5186 14.5967 12.4913 14.602 12.4638 14.6009M12.4685 14.5934C12.4177 14.5956 12.3725 14.5723 12.3389 14.5354M13.9309 12.7176C13.882 12.6677 13.8414 12.6093 13.8109 12.5448C13.7784 12.4802 13.7595 12.4089 13.7555 12.3356C13.7539 12.2842 13.759 12.2306 13.771 12.169C13.7907 12.0674 13.8261 11.9888 13.8729 11.9264C13.8889 11.9052 13.9075 11.8784 13.9249 11.8666M13.8905 9.83588C13.9541 9.84119 14.0128 9.91439 14.012 9.98605C14.0109 10.0903 13.9784 10.1335 13.9017 10.2355C13.8358 10.3234 13.6381 10.478 13.643 10.626C13.6438 10.6522 13.6571 10.6793 13.6718 10.7012M13.5928 10.794C13.6069 10.8089 13.6238 10.8211 13.644 10.831C13.6803 10.8485 13.7208 10.8396 13.7505 10.8233M13.2213 9.66565C13.2425 9.68108 13.2641 9.70508 13.276 9.73525C13.3224 9.85559 13.2211 9.94594 13.1278 10.0138C13.0652 10.0585 12.9945 10.0885 12.9203 10.1018" stroke="#703D29" stroke-width="0.05"/>
<path d="M13.1146 9.89786C13.092 9.89768 13.065 9.89066 13.0358 9.85774C13.0285 9.85011 13.0225 9.8411 13.0182 9.83117M12.6467 9.96248C12.6344 9.95607 12.6232 9.94737 12.6138 9.93677C12.5915 9.9102 12.5768 9.8742 12.5939 9.81917C12.6096 9.76843 12.6858 9.62597 12.6894 9.5274C12.6952 9.37654 12.6411 9.28774 12.5566 9.25311" stroke="#703D29" stroke-width="0.05"/>
<path d="M12.6826 9.49219L12.6794 9.54876L12.665 9.6067L12.6375 9.68573L12.6165 9.73647L12.5945 9.78722L12.5834 9.8227L12.5791 9.84859L12.5823 9.87344M13.5327 13.2559C13.537 13.2672 13.5476 13.2782 13.5476 13.2782C13.5637 13.3073 13.6266 13.3581 13.6839 13.3588C13.7783 13.3603 13.8007 13.2893 13.8033 13.2736C13.8153 13.1964 13.7905 13.1752 13.7537 13.1534C13.7537 13.1534 13.7317 13.1414 13.7057 13.146" stroke="#703D29" stroke-width="0.05" stroke-linecap="round"/>
<path d="M9.9234 12.9214C9.88996 12.9305 9.8586 12.9309 9.83124 12.9219C9.76052 12.8993 9.70324 12.8266 9.73236 12.7363M10.0671 11.8839C10.0741 11.8915 10.0765 11.9028 10.0775 11.9126C10.0885 12.0108 10.008 12.0394 9.95092 12.0235C9.91999 12.013 9.89337 11.9915 9.87556 11.9625C9.86552 11.9437 9.86018 11.9224 9.86004 11.9007M10.4116 11.2668C10.426 11.2809 10.4359 11.2966 10.4424 11.3141M10.4141 11.0859C10.4262 11.095 10.4362 11.107 10.4432 11.1209" stroke="#703D29" stroke-width="0.05"/>
<path d="M10.4466 11.2096C10.4371 11.233 10.4239 11.2546 10.4077 11.2734C10.3597 11.3306 10.2784 11.3795 10.1882 11.3807C10.1346 11.3823 10.0819 11.3659 10.0375 11.3337C9.98291 11.2946 9.94723 11.2389 9.93555 11.1844" stroke="#703D29" stroke-width="0.05" stroke-linecap="round"/>
<path d="M10.3857 10.8C10.4128 10.824 10.4333 10.8554 10.4449 10.8908" stroke="#703D29" stroke-width="0.05"/>
<path d="M10.4451 11.0156C10.423 11.094 10.3569 11.191 10.2296 11.2256C10.1688 11.2421 10.0904 11.2215 10.0635 11.197" stroke="#703D29" stroke-width="0.05" stroke-linecap="round"/>
<path d="M10.001 10.9944C10.0077 11.065 10.0517 11.1178 10.1354 11.1195C10.253 11.1221 10.3245 10.9383 10.22 10.8094" stroke="#703D29" stroke-width="0.05"/>
<path d="M9.73633 11.6095C9.75367 11.6324 9.77313 11.6533 9.79441 11.6719C9.83772 11.7119 9.8882 11.7419 9.94273 11.7602M10.0747 11.7734C10.1798 11.7599 10.239 11.676 10.2274 11.5778C10.2184 11.5031 10.1544 11.4455 10.1107 11.4422" stroke="#703D29" stroke-width="0.05" stroke-linecap="round"/>
<path d="M10.2461 10.6078C10.2917 10.6061 10.3176 10.6504 10.3171 10.6877" stroke="#703D29" stroke-width="0.05"/>
<path d="M10.2354 9.9375C10.2593 10.0034 10.3037 10.0585 10.3611 10.0935M13.9656 10.9229C14.0086 10.986 13.9805 11.1102 13.8635 11.1126C13.8412 11.1126 13.8192 11.1065 13.7997 11.0947C13.7803 11.0829 13.764 11.066 13.7525 11.0454" stroke="#703D29" stroke-width="0.05" stroke-linecap="round"/>
<path d="M13.542 10.1016V10.5248" stroke="#703D29" stroke-width="0.05"/>
<path d="M10.0936 10.9899C10.1296 11.0179 10.176 10.9707 10.1581 10.9205C10.146 10.8867 10.1012 10.8502 10.0389 10.8955C9.97012 10.9455 9.98916 11.1034 10.121 11.106C10.2386 11.1084 10.3101 10.9248 10.2056 10.7957C10.105 10.6718 9.92196 10.7009 9.80244 10.8026C9.75172 10.8459 9.65572 10.9594 9.62596 11.1141C9.61668 11.1621 9.6106 11.2017 9.6114 11.25C9.61172 11.2817 9.6146 11.3174 9.6234 11.3619C9.63645 11.4338 9.66255 11.5021 9.7002 11.5632C9.71156 11.5809 9.7218 11.5953 9.73284 11.6071C9.75332 11.629 9.75956 11.6407 9.7802 11.6592C9.84772 11.7194 9.93476 11.7667 10.0413 11.7617C10.1583 11.7566 10.2255 11.6685 10.213 11.5646C10.201 11.4638 10.106 11.4137 10.0439 11.4605C10.0016 11.4926 9.9866 11.5917 10.0613 11.6151C10.1036 11.6285 10.1408 11.5711 10.1109 11.538M13.3501 9.61063C13.4176 9.5712 13.4696 9.57857 13.508 9.63583C13.55 9.69805 13.5559 9.78068 13.5466 9.8292C13.533 9.9012 13.5136 9.93103 13.4602 9.98331" stroke="#703D29" stroke-width="0.05" stroke-linecap="round"/>
<path d="M13.5127 9.6442C13.5898 9.58951 13.6733 9.61283 13.7191 9.68551C13.7527 9.73883 13.7613 9.7834 13.7591 9.8494C13.7549 9.96254 13.6889 10.0522 13.6159 10.0961" stroke="#703D29" stroke-width="0.05" stroke-linecap="round"/>
<path d="M13.8765 9.83435C13.9399 9.83966 13.9909 9.90121 13.9909 9.97304C13.9909 10.0756 13.9642 10.1201 13.8877 10.2221C13.8218 10.3102 13.624 10.4647 13.629 10.6126C13.6309 10.6687 13.6749 10.7213 13.7128 10.7242" stroke="#703D29" stroke-width="0.05"/>
<path d="M13.884 10.9921C13.848 11.0201 13.8019 10.975 13.8217 10.927C13.8355 10.8937 13.8764 10.8522 13.9387 10.8977C14.0075 10.9477 13.9884 11.1056 13.8566 11.1082C13.739 11.1106 13.6595 10.9316 13.772 10.7979C13.8747 10.6762 14.0651 10.6998 14.1844 10.8017C14.2353 10.845 14.3376 10.964 14.3595 11.1202C14.3859 11.3091 14.3825 11.5414 14.2004 11.6845C14.1272 11.742 14.0257 11.7682 13.9361 11.7639C13.8193 11.7584 13.7521 11.6706 13.7646 11.5668C13.7766 11.466 13.8672 11.4233 13.9337 11.4627C14.0028 11.5038 13.9907 11.6079 13.9163 11.6173C13.8724 11.623 13.8366 11.5734 13.8667 11.5402" stroke="#703D29" stroke-width="0.05" stroke-linecap="round"/>
<path d="M13.8213 10.9246C13.8406 10.8312 13.9154 10.8225 13.9758 10.8235C14.1406 10.8259 14.2544 11.0354 14.2563 11.2378C14.2587 11.4936 14.155 11.6443 13.9805 11.6524C13.9354 11.6544 13.8576 11.6314 13.8562 11.5723" stroke="#703D29" stroke-width="0.05"/>
<path d="M13.9226 10.8844C14.0964 10.9257 14.1573 11.0935 14.1573 11.2535C14.1573 11.3841 14.1453 11.5624 13.9082 11.6251" stroke="#703D29" stroke-width="0.05" stroke-linecap="square"/>
<path d="M14.2092 12.6768C14.2123 12.6586 14.2109 12.6398 14.2051 12.6224C14.1993 12.605 14.1892 12.5895 14.176 12.5776C14.1628 12.5657 14.1468 12.5578 14.1298 12.5546C14.1127 12.5515 14.0952 12.5532 14.079 12.5597C14.0629 12.5662 14.0486 12.5772 14.0376 12.5915C14.0267 12.6059 14.0195 12.6231 14.0168 12.6414C14.0141 12.6596 14.016 12.6784 14.0223 12.6956C14.0286 12.7129 14.039 12.7281 14.0525 12.7396" stroke="#703D29" stroke-width="0.05"/>
<path d="M13.8614 12.5203C13.8941 12.5723 13.9337 12.63 14.0173 12.6787M13.9859 12.9612C13.904 12.9036 13.7485 12.8282 13.608 12.9024C13.5558 12.93 13.5208 12.9642 13.5011 13.0197C13.4656 13.1198 13.5053 13.2302 13.5457 13.276C13.5669 13.3 13.6129 13.3458 13.6701 13.3466C13.7646 13.348 13.7872 13.277 13.7896 13.2614C13.8008 13.188 13.7608 13.1586 13.7398 13.1507C13.7235 13.1447 13.6709 13.1462 13.6597 13.1862C13.6558 13.1995 13.6552 13.2227 13.6651 13.24" stroke="#703D29" stroke-width="0.05" stroke-linecap="round"/>
<path d="M12.511 14.3684C12.5371 14.4256 12.5075 14.4544 12.4712 14.459C12.4178 14.4657 12.3891 14.4203 12.3854 14.379C12.3843 14.3628 12.3863 14.3466 12.3913 14.3313C12.3963 14.3161 12.4042 14.3021 12.4144 14.2902C12.4247 14.2783 12.4371 14.2688 12.451 14.2623C12.4648 14.2559 12.4798 14.2525 12.4949 14.2525C12.5514 14.2533 12.5974 14.2924 12.619 14.3462C12.627 14.3658 12.6306 14.3874 12.6318 14.4097C12.6338 14.4502 12.621 14.49 12.5962 14.5206C12.5642 14.5605 12.5144 14.5847 12.4613 14.5869C12.3557 14.5916 12.2734 14.4858 12.2734 14.3778C12.2734 14.171 12.5594 14.0584 12.6728 14.0294C12.812 13.9938 12.8968 13.9804 13.1206 13.9672C13.2102 13.9619 13.2758 13.9645 13.3744 13.9535C13.4626 13.9437 13.5088 13.9393 13.5995 13.9165C13.7128 13.8882 13.8184 13.838 13.9131 13.7459C13.9858 13.6751 14.0274 13.6247 14.0611 13.5273C14.0902 13.4433 14.1035 13.277 14.0299 13.1541C13.9648 13.0454 13.8744 12.989 13.7712 12.9731C13.6779 12.9585 13.5962 13.0017 13.5472 13.1008C13.5237 13.1488 13.5309 13.229 13.5496 13.2661C13.5658 13.2981 13.612 13.3453 13.6691 13.3461C13.7637 13.3475 13.7862 13.2765 13.7886 13.2608C13.7998 13.1876 13.7598 13.1582 13.7389 13.1502C13.7226 13.144 13.6698 13.1456 13.6586 13.1857C13.6549 13.1989 13.6542 13.2222 13.6642 13.2395" stroke="#703D29" stroke-width="0.05" stroke-linecap="round"/>
<path d="M12.4296 14.0391C12.3083 14.0967 12.2195 14.1397 12.1442 14.2672C12.1205 14.3072 12.1143 14.3646 12.1143 14.3979C12.1143 14.4699 12.1418 14.5511 12.1976 14.6019C12.2496 14.6488 12.301 14.6631 12.3643 14.6564C12.4123 14.6512 12.4576 14.6137 12.4651 14.5871" stroke="#703D29" stroke-width="0.05" stroke-linecap="round"/>
<path d="M13.6272 11.5734C13.5706 11.5937 13.5303 11.6864 13.5303 11.7747C13.5303 11.8758 13.5762 11.9386 13.6298 11.9746" stroke="#703D29" stroke-width="0.05"/>
<path d="M13.6896 11.9016C13.5875 12.0375 13.5334 12.1182 13.5304 12.2801C13.5275 12.432 13.5726 12.536 13.6573 12.6452" stroke="#703D29" stroke-width="0.05" stroke-linecap="round"/>
<path d="M13.1455 9.64541L13.1543 9.63153C13.1965 9.56484 13.2711 9.54735 13.326 9.59158C13.3919 9.64473 13.4085 9.73558 13.3906 9.83158C13.3794 9.89158 13.3415 9.9413 13.2893 9.97747" stroke="#703D29" stroke-width="0.05"/>
<path d="M10.6268 9.61028C10.5622 9.57822 10.5089 9.58457 10.4689 9.63548C10.4228 9.69411 10.4209 9.78034 10.4303 9.82885C10.4439 9.90085 10.4633 9.93068 10.5167 9.98297" stroke="#703D29" stroke-width="0.05" stroke-linecap="round"/>
<path d="M10.4645 9.6442C10.3874 9.58951 10.3039 9.61283 10.2581 9.68551C10.2245 9.73883 10.2159 9.7834 10.2181 9.8494C10.2223 9.96254 10.2883 10.0522 10.3613 10.0961" stroke="#703D29" stroke-width="0.05"/>
<path d="M10.2412 9.71716C10.1575 9.72813 10.0908 9.80408 10.0908 9.89596C10.0908 10.0146 10.118 10.0626 10.1803 10.1531C10.2427 10.244 10.4465 10.4104 10.4465 10.5997C10.4465 10.7144 10.4166 10.7876 10.3395 10.8249C10.2899 10.8489 10.2316 10.823 10.2051 10.7975C10.1404 10.7348 10.1663 10.6249 10.2339 10.6117C10.3158 10.5957 10.3313 10.7342 10.2511 10.725" stroke="#703D29" stroke-width="0.05"/>
<path d="M10.1005 9.83435C10.037 9.83966 9.97461 9.89812 9.97461 9.96978C9.97461 10.0726 10.0128 10.1201 10.0893 10.2221C10.1552 10.3102 10.3415 10.4618 10.3365 10.6096C10.3346 10.6656 10.2996 10.734 10.2647 10.7261" stroke="#703D29" stroke-width="0.05"/>
<path d="M9.95161 11.894C9.98153 11.8168 10.0586 11.8513 10.0633 11.894C10.0743 11.9922 9.99385 12.0218 9.93673 12.0059C9.92357 12.0023 9.91124 11.9958 9.90051 11.9868C9.88978 11.9779 9.88087 11.9667 9.87433 11.954C9.86661 11.9388 9.86179 11.9222 9.86014 11.9051C9.85849 11.888 9.86005 11.8707 9.86473 11.8542C9.86905 11.8382 9.87513 11.8249 9.88585 11.8098C9.89463 11.797 9.90547 11.7861 9.91785 11.7774C9.93977 11.7625 9.96377 11.7609 10.0014 11.7609C10.1406 11.7609 10.2626 11.9373 10.3036 12.1206C10.317 12.1809 10.3356 12.3155 10.31 12.443C10.2825 12.579 10.2276 12.6731 10.1633 12.7446C10.1286 12.7832 10.081 12.8176 10.0194 12.8548C9.98615 12.8735 9.95134 12.8889 9.91545 12.9008C9.87977 12.9117 9.84617 12.9128 9.81705 12.9033C9.74633 12.8805 9.70089 12.8097 9.73769 12.7177C9.76633 12.646 9.87209 12.611 9.91929 12.6988C9.92329 12.7064 9.92953 12.7228 9.92937 12.7403C9.92905 12.7638 9.91993 12.7921 9.90441 12.8027C9.86841 12.8272 9.81097 12.8202 9.81353 12.7523" stroke="#703D29" stroke-width="0.05" stroke-linecap="round"/>
<path d="M9.84393 12.8134C9.87001 12.8242 9.88441 12.8227 9.91689 12.8072C9.93017 12.8009 9.94553 12.7911 9.96329 12.7801C10.027 12.7414 10.1027 12.6804 10.1735 12.5377C10.2059 12.4732 10.2248 12.4018 10.2287 12.3286C10.2305 12.2772 10.2254 12.2233 10.2134 12.162C10.1935 12.0603 10.1699 12.0051 10.1115 11.9194C10.0827 11.8771 10.0579 11.8513 10.0043 11.85M9.76825 12.6778C9.76509 12.6596 9.76649 12.6408 9.77232 12.6234C9.77815 12.606 9.78819 12.5905 9.80143 12.5786C9.81466 12.5667 9.83061 12.5587 9.84765 12.5556C9.86468 12.5525 9.88219 12.5542 9.89838 12.5607C9.91457 12.5672 9.92886 12.5782 9.93979 12.5925C9.95073 12.6068 9.95791 12.624 9.96061 12.6423C9.9633 12.6606 9.96142 12.6794 9.95514 12.6966C9.94887 12.7139 9.93843 12.729 9.92489 12.7405" stroke="#703D29" stroke-width="0.05"/>
<path d="M9.80566 12.5758C9.80904 12.5527 9.81998 12.5316 9.83653 12.5162C9.85309 12.5009 9.87419 12.4924 9.89606 12.4922C9.90825 12.4923 9.92029 12.4951 9.93149 12.5002C9.9427 12.5054 9.95284 12.5128 9.96136 12.5222C9.96987 12.5315 9.97658 12.5426 9.98111 12.5547C9.98564 12.5668 9.98789 12.5798 9.98774 12.5928C9.98774 12.6201 9.97782 12.6448 9.96182 12.6629" stroke="#703D29" stroke-width="0.05"/>
<path d="M9.98438 12.5701C10.0323 12.5317 10.0713 12.4818 10.0983 12.4245C10.1252 12.3672 10.1395 12.304 10.1399 12.2398C10.1404 12.1287 10.0988 12.0157 10.0503 11.9719" stroke="#703D29" stroke-width="0.05"/>
<path d="M10.1168 12.5203C10.0841 12.5723 10.0445 12.63 9.96094 12.6787" stroke="#703D29" stroke-width="0.05" stroke-linecap="round"/>
<path d="M10.3645 12.9022C10.3413 12.8439 10.2952 12.8167 10.2201 12.8081C10.1456 12.7995 10.0809 12.8217 10.0149 12.8595C9.88589 12.9339 9.81405 13.0138 9.76605 13.1621C9.75389 13.1998 9.74381 13.2564 9.74525 13.3167C9.74749 13.4127 9.77021 13.5178 9.79485 13.5687C9.81613 13.613 9.87181 13.8086 10.1779 13.9435C10.3565 14.0223 10.6307 14.0405 10.8198 14.0484C11.0798 14.0594 11.3198 14.0698 11.4592 14.2536" stroke="#703D29" stroke-width="0.05"/>
<path d="M9.99121 12.9616C10.0731 12.904 10.2287 12.8286 10.3691 12.9028C10.4213 12.9304 10.4563 12.9645 10.476 13.0201C10.5115 13.1202 10.4719 13.2306 10.4314 13.2764C10.4103 13.3004 10.3642 13.3461 10.3071 13.347C10.2125 13.3484 10.1899 13.2774 10.1875 13.2618C10.1763 13.1884 10.2163 13.1589 10.2373 13.151C10.2536 13.145 10.3063 13.1466 10.3175 13.1865C10.3213 13.1999 10.3219 13.223 10.312 13.2404" stroke="#703D29" stroke-width="0.05" stroke-linecap="round"/>
<path d="M10.3176 13.2252C10.3251 13.1959 10.3213 13.1652 10.2965 13.1361C10.2715 13.1066 10.2056 13.0786 10.1496 13.1121C10.1248 13.1254 10.1032 13.1445 10.0862 13.1679C10.0782 13.1793 10.0646 13.1978 10.0576 13.2105C10.0406 13.2417 10.0336 13.267 10.0304 13.2773C9.96879 13.4645 10.069 13.6634 10.1944 13.7489C10.304 13.8237 10.4158 13.8449 10.5539 13.8583C10.6179 13.8645 10.6541 13.8658 10.7182 13.8689C10.7698 13.8715 10.8142 13.8706 10.8563 13.8701C10.8907 13.8696 10.9235 13.8698 10.9571 13.8689C11.0115 13.8675 11.0682 13.8662 11.1374 13.8717C11.2102 13.8773 11.265 13.8792 11.3264 13.8903C11.3667 13.8974 11.4138 13.9044 11.4632 13.9162C11.4779 13.9197 11.493 13.9227 11.508 13.9275L11.5382 13.9375C11.6274 13.9666 11.7139 14.0021 11.7822 14.0493C11.8034 14.0638 11.8277 14.0779 11.8443 14.0955C11.8571 14.1093 11.8678 14.1171 11.8782 14.1281C11.9262 14.1787 11.975 14.2332 11.9866 14.3071C11.9886 14.3208 11.9886 14.335 11.9886 14.3499C11.9886 14.3979 11.9522 14.4634 11.8539 14.4847" stroke="#703D29" stroke-width="0.05"/>
<path d="M11.4659 14.3684C11.4398 14.4256 11.4694 14.4544 11.5057 14.459C11.5592 14.4657 11.5878 14.4203 11.5915 14.379C11.5926 14.3628 11.5906 14.3466 11.5856 14.3313C11.5806 14.3161 11.5727 14.3021 11.5625 14.2902C11.5522 14.2783 11.5398 14.2688 11.5259 14.2623C11.5121 14.2559 11.4971 14.2525 11.482 14.2525C11.4256 14.2533 11.3795 14.2924 11.3579 14.3462C11.3499 14.3658 11.3464 14.3874 11.3451 14.4097C11.3431 14.4502 11.3559 14.4899 11.3808 14.5206C11.4128 14.5605 11.4625 14.5847 11.5156 14.5869C11.6212 14.5916 11.7035 14.4858 11.7035 14.3778C11.7035 14.171 11.4176 14.0584 11.3041 14.0294C11.1649 13.9938 11.0801 13.9804 10.8563 13.9672C10.7667 13.9619 10.7011 13.9645 10.6025 13.9535C10.5144 13.9437 10.4681 13.9393 10.3774 13.9165C10.2641 13.8882 10.1585 13.838 10.0638 13.7459C9.99116 13.6751 9.94956 13.6247 9.9158 13.5273C9.88668 13.4433 9.8734 13.277 9.947 13.1541C10.0121 13.0454 10.1025 12.989 10.2057 12.9731C10.299 12.9585 10.3808 13.0017 10.4297 13.1008C10.4532 13.1488 10.446 13.229 10.4273 13.2661C10.4112 13.2981 10.3649 13.3453 10.3078 13.3461C10.2132 13.3475 10.1907 13.2765 10.1883 13.2608C10.1771 13.1876 10.2171 13.1582 10.238 13.1502C10.2544 13.144 10.3072 13.1456 10.3182 13.1857C10.322 13.1989 10.3227 13.2222 10.3128 13.2395" stroke="#703D29" stroke-width="0.05"/>
<path d="M10.831 9.64541L10.8222 9.63153C10.7799 9.56484 10.7054 9.54735 10.6505 9.59158C10.5846 9.64473 10.5679 9.73558 10.5858 9.83158C10.597 9.89158 10.635 9.9413 10.6871 9.97747" stroke="#703D29" stroke-width="0.05" stroke-linecap="round"/>
<path d="M13.1681 9.84547C13.0673 9.96273 12.9665 10.0003 12.8161 10.0054C12.7691 10.0071 12.6792 9.98947 12.627 9.94953C12.5934 9.92381 12.5561 9.8801 12.5796 9.80416C12.5956 9.75341 12.6716 9.61096 12.6753 9.51221C12.6811 9.36153 12.627 9.27907 12.5425 9.24701C12.386 9.18787 12.2182 9.35347 12.1169 9.38964C12.0759 9.40541 12.0325 9.41263 11.9889 9.4109C11.945 9.41266 11.9012 9.40545 11.8598 9.38964C11.7585 9.35364 11.5907 9.18787 11.4342 9.24701C11.3497 9.27907 11.2956 9.36153 11.3014 9.51221C11.3051 9.61096 11.3812 9.75341 11.3969 9.80416C11.4206 9.8801 11.3833 9.92399 11.3497 9.94953C11.2974 9.98947 11.2076 10.007 11.1606 10.0054C11.0102 10.0003 10.9094 9.96273 10.8086 9.84547" stroke="#703D29" stroke-width="0.05"/>
<path d="M11.4326 13.9922C11.4526 14.0006 11.4374 13.987 11.5638 14.047C11.6849 14.1046 11.771 14.155 11.8464 14.2826C11.8701 14.3225 11.8761 14.3798 11.8761 14.4132C11.8761 14.4346 11.8737 14.4569 11.8689 14.479" stroke="#703D29" stroke-width="0.05" stroke-linecap="round"/>
<path d="M11.4414 14.5693C11.466 14.5825 11.4939 14.5902 11.5227 14.5914C11.6283 14.5959 11.7105 14.4901 11.7105 14.3823C11.7105 14.3074 11.6724 14.2443 11.6193 14.1937" stroke="#703D29" stroke-width="0.05"/>
<path d="M11.4637 14.3662C11.4381 14.427 11.4745 14.46 11.5107 14.4646C11.5641 14.4713 11.5942 14.4258 11.5981 14.3845C11.5997 14.3626 11.5956 14.3407 11.5864 14.3211C11.5771 14.3015 11.563 14.285 11.5456 14.2734" stroke="#703D29" stroke-width="0.05" stroke-linecap="round"/>
<path d="M13.7522 9.71716C13.8326 9.71716 13.9026 9.81299 13.9026 9.91122C13.9026 10.0244 13.8463 10.0938 13.805 10.1461C13.7719 10.1882 13.7362 10.226 13.6934 10.2721" stroke="#703D29" stroke-width="0.05"/>
<path d="M13.6566 9.62499C13.6838 9.63854 13.7078 9.66151 13.7262 9.69048C13.7598 9.74362 13.7683 9.78837 13.7659 9.85437C13.7619 9.96751 13.6859 10.0459 13.618 10.0937M13.4987 9.62499C13.5043 9.63014 13.5096 9.63579 13.5147 9.64231C13.5608 9.70111 13.5643 9.78768 13.5532 9.83585C13.5368 9.90785 13.5144 9.93905 13.4596 9.98225M13.3331 9.59534C13.399 9.64865 13.4187 9.74088 13.3968 9.83585C13.3812 9.90357 13.3414 9.94419 13.2918 9.97659M13.5699 11.077C13.5779 11.1019 13.5907 11.1104 13.6072 11.1288C13.6497 11.1743 13.7029 11.2068 13.7611 11.2231C13.8222 11.2416 13.8771 11.2277 13.9192 11.1997M9.84395 12.6471C9.87499 12.6464 9.90587 12.6689 9.92603 12.7066C9.93003 12.714 9.93627 12.7303 9.93611 12.7477C9.93595 12.7714 9.92635 12.7964 9.91051 12.8071C9.87467 12.8316 9.81099 12.8211 9.81355 12.7531" stroke="#703D29" stroke-width="0.05" stroke-linecap="round"/>
<path d="M10.0365 11.7656C10.1597 11.7903 10.2785 11.9496 10.3173 12.1232C10.3308 12.1837 10.3493 12.3183 10.3237 12.4459C10.2962 12.5818 10.2413 12.6759 10.177 12.7474C10.1618 12.7642 10.1441 12.7803 10.1239 12.7963L10.0977 12.8153M9.89941 12.4903C9.94997 12.4903 9.99429 12.5422 9.99429 12.5977C9.99429 12.6252 9.98453 12.6497 9.96853 12.6679" stroke="#703D29" stroke-width="0.05"/>
<path d="M9.86523 12.5531C9.91803 12.5531 9.96811 12.6076 9.96811 12.6654C9.96811 12.6811 9.96479 12.6967 9.95839 12.7109C9.95199 12.7251 9.94268 12.7375 9.93115 12.7473" stroke="#703D29" stroke-width="0.05"/>
<path d="M10.3489 11.986C10.3974 12.0556 10.4294 12.1156 10.4441 12.1929M10.4425 12.4202C10.4347 12.4578 10.4226 12.4942 10.4063 12.5285C10.3833 12.5749 10.3532 12.6169 10.3174 12.6528" stroke="#703D29" stroke-width="0.05" stroke-linecap="round"/>
<path d="M10.3564 11.5781C10.4032 11.6172 10.4313 11.6577 10.4444 11.7062" stroke="#703D29" stroke-width="0.05"/>
<path d="M10.4459 11.4472C10.4336 11.4928 10.4059 11.5272 10.3616 11.5706M10.1328 11.1103L10.1867 11.095L10.2187 11.0693L10.2392 11.0381L10.2568 10.9894L10.264 10.95" stroke="#703D29" stroke-width="0.05" stroke-linecap="round"/>
<path d="M10.0236 10.9078C10.0067 10.9125 9.98508 10.9192 9.96252 10.9306C9.93212 10.9461 9.90012 10.9701 9.87436 11.0092C9.8446 11.0542 9.82732 11.1168 9.81676 11.1717C9.81196 11.1957 9.80636 11.2718 9.8206 11.3501C9.83044 11.404 9.85001 11.4553 9.8782 11.5012C9.88716 11.5152 9.89516 11.5272 9.90428 11.537C9.9366 11.5716 9.96636 11.5929 10.0163 11.5822" stroke="#703D29" stroke-width="0.05"/>
<path d="M10.3253 10.6547C10.3165 10.6889 10.2994 10.7318 10.249 10.727" stroke="#703D29" stroke-width="0.05" stroke-linecap="round"/>
<path d="M10.1417 10.8893C10.0934 10.8385 9.9908 10.8253 9.88888 10.8944C9.87576 10.9033 9.86264 10.9148 9.84968 10.9263C9.83576 10.9388 9.82456 10.9532 9.81368 10.9688C9.802 10.986 9.7876 11.0148 9.7788 11.034C9.76849 11.0566 9.7606 11.0804 9.75528 11.1049C9.74174 11.1596 9.73624 11.2161 9.73896 11.2726C9.74168 11.2985 9.74408 11.3223 9.74792 11.3442C9.75718 11.4025 9.77603 11.4586 9.8036 11.5098C9.826 11.5498 9.882 11.6417 9.99656 11.6538C10.0414 11.6585 10.1183 11.6365 10.1209 11.5738" stroke="#703D29" stroke-width="0.05"/>
<path d="M13.0938 9.78007C13.1015 9.73584 13.1512 9.72727 13.1699 9.7535C13.1987 9.79361 13.1795 9.86287 13.1211 9.88241C13.1035 9.88667 13.0851 9.88541 13.0681 9.87879C13.0511 9.87216 13.0363 9.86045 13.0253 9.84504C13.0011 9.81161 13.0029 9.77012 13.012 9.73704C13.0178 9.71578 13.0338 9.69727 13.0552 9.67978C13.1232 9.62441 13.233 9.63727 13.2691 9.73052C13.3155 9.85087 13.2144 9.94104 13.1211 10.0091C13.0037 10.0946 12.8699 10.1102 12.7691 10.109C12.5402 10.1063 12.3659 9.98904 12.2528 9.92235C12.2264 9.90692 12.1992 9.91001 12.1856 9.92767C12.1776 9.93841 12.1738 9.95203 12.175 9.96569C12.1762 9.97936 12.1822 9.99202 12.1919 10.001" stroke="#703D29" stroke-width="0.05" stroke-linecap="round"/>
<path d="M13.1396 9.73596C13.1639 9.73716 13.1703 9.74728 13.1778 9.75773C13.2066 9.79802 13.1855 9.8671 13.127 9.88665M13.5729 11.2673C13.4857 11.369 13.5658 11.5437 13.6311 11.5831C13.6535 11.602 13.6631 11.5918 13.6814 11.6032" stroke="#703D29" stroke-width="0.05" stroke-linecap="round"/>
<path d="M13.578 11.0733C13.5493 11.0945 13.5393 11.1185 13.5381 11.1602C13.5372 11.195 13.5429 11.2337 13.5733 11.2677C13.621 11.3208 13.7141 11.3669 13.8042 11.3681C13.8578 11.3698 13.9105 11.3534 13.9549 11.3212C14.0026 11.2878 14.0368 11.2364 14.0506 11.1772M13.5292 12.8323C13.5292 12.8327 13.5292 12.8733 13.5258 12.899C13.5197 12.9638 13.5019 13.0266 13.4735 13.0841C13.448 13.1415 13.4125 13.1931 13.369 13.2362C13.3197 13.2883 13.2855 13.3121 13.2234 13.3454C13.1631 13.378 13.1252 13.3883 13.0593 13.404C13.0029 13.4179 12.9454 13.4256 12.8876 13.4268C12.8258 13.4297 12.7908 13.4268 12.7292 13.4224C12.6631 13.4176 12.6265 13.4076 12.5605 13.4015C12.5061 13.3963 12.4753 13.3915 12.4205 13.3917C12.3645 13.3919 12.3322 13.3922 12.2769 13.4028C12.2324 13.41 12.1889 13.4229 12.1474 13.4414C12.0802 13.4705 12.0044 13.5215 11.9882 13.5441C11.9722 13.5215 11.8962 13.4705 11.829 13.4414C11.7875 13.4229 11.744 13.41 11.6996 13.4028C11.6522 13.394 11.604 13.3902 11.5559 13.3917C11.5012 13.3917 11.4705 13.3963 11.4161 13.4015C11.3501 13.4076 11.3135 13.4176 11.2474 13.4224C11.1857 13.427 11.1506 13.4297 11.089 13.4268C11.0215 13.4234 10.9829 13.42 10.9172 13.404C10.8514 13.3881 10.8133 13.3778 10.753 13.3454C10.6911 13.3121 10.6569 13.2883 10.6074 13.2362C10.5639 13.1931 10.5285 13.1415 10.5029 13.0841C10.4746 13.0266 10.4569 12.9637 10.4508 12.899C10.4476 12.8733 10.4473 12.8327 10.4473 12.8323V10.1063H13.5281V12.8323H13.5292V12.8323Z" stroke="#703D29" stroke-width="0.05"/>
<path d="M10.1983 13.2169C10.1983 13.1992 10.2049 13.1821 10.2166 13.1696C10.2283 13.157 10.2442 13.15 10.2608 13.15C10.2773 13.15 10.2932 13.157 10.305 13.1696C10.3167 13.1821 10.3233 13.1992 10.3233 13.2169C10.3233 13.2347 10.3167 13.2517 10.305 13.2642C10.2932 13.2768 10.2773 13.2839 10.2608 13.2839C10.2442 13.2839 10.2283 13.2768 10.2166 13.2642C10.2049 13.2517 10.1983 13.2347 10.1983 13.2169ZM9.81445 12.7436C9.81445 12.7105 9.83429 12.6836 9.85861 12.6836C9.88293 12.6836 9.90277 12.7105 9.90277 12.7436C9.90277 12.7767 9.88293 12.8036 9.85861 12.8036C9.83429 12.8036 9.81445 12.7767 9.81445 12.7436Z" fill="#C7B37F" stroke="#C7B37F" stroke-width="0.05"/>
<path d="M10.0322 11.5565C10.0322 11.5293 10.0514 11.5073 10.0748 11.5073C10.0985 11.5073 10.1175 11.5293 10.1175 11.5565C10.1175 11.5838 10.0983 11.6057 10.0748 11.6057C10.0513 11.6057 10.0322 11.5838 10.0322 11.5565ZM10.798 9.79853C10.7953 9.7711 10.8106 9.7471 10.8321 9.7447C10.8537 9.7423 10.8733 9.76253 10.8761 9.78979C10.8788 9.81721 10.8634 9.84121 10.8418 9.84361C10.8204 9.84601 10.8007 9.82579 10.798 9.79853Z" fill="#C7B37F"/>
<path d="M9.9827 11.8367C9.97358 11.841 9.9683 11.8446 9.96158 11.8523C9.95502 11.8597 9.95358 11.8624 9.94846 11.8746C9.94478 11.8835 9.94366 11.8938 9.94238 11.9065M10.0603 12.6229C10.0689 12.6116 10.0742 12.6056 10.0827 12.5939C10.0896 12.5843 10.0936 12.579 10.0997 12.5687C10.1053 12.5595 10.1077 12.554 10.1125 12.5442C10.1193 12.5305 10.1229 12.5228 10.1293 12.5089M10.0977 12.8823C10.083 12.8895 10.0742 12.8927 10.0598 12.901C10.0489 12.9071 10.0429 12.9112 10.0325 12.9181C10.02 12.9265 10.0133 12.9313 10.0013 12.9404C9.9891 12.9502 9.9827 12.9565 9.97086 12.9666M10.3449 11.9518C10.3369 11.9428 10.3326 11.9377 10.3245 11.9291C10.3158 11.92 10.3112 11.9147 10.3021 11.9065C10.2931 11.8984 10.2875 11.8947 10.2781 11.8873" stroke="#C7B37F" stroke-width="0.05" stroke-linecap="round"/>
<path d="M10.354 11.5977C10.3421 11.6033 10.3359 11.6079 10.3236 11.6122C10.3093 11.6172 10.2997 11.6198 10.2861 11.6205" stroke="#C7B37F" stroke-width="0.05"/>
<path d="M9.93555 11.1533C9.93955 11.1687 9.94051 11.1782 9.94595 11.1931C9.95283 11.2119 9.95875 11.222 9.96915 11.2388C9.98003 11.2565 9.98675 11.2663 10.001 11.281C10.0133 11.294 10.0211 11.3006 10.0357 11.3107C10.0495 11.3204 10.0584 11.3237 10.0728 11.3321M10.0482 11.1751C10.0603 11.1819 10.0666 11.1872 10.0792 11.1929C10.0907 11.198 10.0976 11.2003 10.1096 11.2032C10.1263 11.2073 10.1359 11.2083 10.1528 11.2087C10.1709 11.2092 10.1763 11.2087 10.1992 11.2047M10.3786 10.1156C10.3586 10.1031 10.3466 10.0976 10.3274 10.0836C10.3106 10.0717 10.295 10.0581 10.2807 10.043C10.27 10.0324 10.2603 10.0208 10.2517 10.0083C10.2427 9.9953 10.2392 9.98673 10.2312 9.97301M10.4187 9.85113C10.4251 9.86913 10.4267 9.87993 10.4347 9.89707C10.4456 9.92039 10.4539 9.93256 10.4704 9.95176C10.493 9.97833 10.5122 9.98604 10.5389 10.0078M10.5752 9.84924C10.5815 9.86536 10.5832 9.8753 10.5912 9.89056C10.5981 9.9041 10.6027 9.91113 10.612 9.92313C10.6235 9.93856 10.6312 9.94644 10.6456 9.95861C10.6623 9.97267 10.6743 9.97679 10.6925 9.98844" stroke="#C7B37F" stroke-width="0.05" stroke-linecap="round"/>
<path d="M12.3321 9.63129C12.3308 9.58587 12.2891 9.58124 12.2731 9.58124C12.227 9.58124 12.2143 9.61209 12.1567 9.64518C12.0847 9.68667 12.0535 9.69592 11.9894 9.69661C11.9252 9.69592 11.8934 9.68667 11.8211 9.64518C11.7635 9.61209 11.7539 9.58209 11.7076 9.58209C11.6999 9.58238 11.6923 9.58432 11.6852 9.5878C11.6782 9.59128 11.6719 9.59623 11.6666 9.60236C11.6614 9.60849 11.6574 9.61568 11.6547 9.6235C11.6521 9.63133 11.651 9.63963 11.6515 9.64792C11.6515 9.64792 11.651 9.66164 11.6531 9.67089C11.6537 9.67432 11.6577 9.67329 11.6588 9.67638C11.6583 9.65581 11.6622 9.64518 11.6716 9.63129C11.6765 9.62463 11.6826 9.61918 11.6896 9.6153C11.6967 9.61142 11.7044 9.60922 11.7123 9.60884C11.7585 9.60884 11.7756 9.64055 11.8332 9.67364C11.9054 9.71512 11.9364 9.72438 12.0006 9.72507C12.0647 9.72438 12.0966 9.71512 12.1689 9.67364C12.2265 9.64055 12.243 9.60609 12.2892 9.60609C12.3052 9.60609 12.3164 9.61724 12.3217 9.63472C12.3249 9.64552 12.3233 9.65255 12.3239 9.65701C12.3244 9.65889 12.3268 9.65872 12.3273 9.66095C12.3289 9.65307 12.3326 9.65015 12.3321 9.63129Z" fill="#703D29" stroke="#703D29" stroke-width="0.05"/>
<path d="M10.6101 13.4487C10.6231 13.4338 10.6329 13.4395 10.6353 13.4324C10.637 13.4273 10.6332 13.427 10.6279 13.4247C10.6209 13.422 10.6135 13.4203 10.6065 13.4175C10.5991 13.4146 10.5925 13.4107 10.5852 13.4076C10.5821 13.4064 10.5751 13.4026 10.5732 13.4083C10.5695 13.4187 10.5988 13.4179 10.589 13.446C10.5874 13.4508 10.5831 13.4611 10.5685 13.4782L10.5023 13.5554C10.5009 13.5572 10.4985 13.561 10.4969 13.5605C10.4953 13.5598 10.4956 13.5552 10.4956 13.5528L10.4965 13.4431C10.4965 13.4225 10.4981 13.4071 10.5013 13.398C10.5058 13.3855 10.5193 13.3959 10.5221 13.3877C10.5237 13.3827 10.5225 13.3826 10.5145 13.3793C10.5105 13.3776 10.5028 13.3759 10.4866 13.3695C10.4781 13.3661 10.47 13.3615 10.4617 13.3582C10.4578 13.3565 10.4509 13.3512 10.4484 13.3582C10.4476 13.3604 10.4503 13.3635 10.4509 13.3642C10.4602 13.3712 10.4626 13.376 10.4628 13.3894L10.4645 13.5888C10.4647 13.6032 10.4661 13.6073 10.4687 13.6082C10.4714 13.6094 10.4735 13.6082 10.4789 13.6013L10.6101 13.4487Z" fill="#703D29"/>
<path d="M10.6871 13.4814C10.6956 13.4525 10.7116 13.47 10.7146 13.4595C10.7158 13.4559 10.7146 13.4549 10.707 13.4523C10.6924 13.4473 10.6828 13.4454 10.6735 13.4424C10.6646 13.4393 10.655 13.4346 10.645 13.4314C10.6426 13.4305 10.6366 13.4274 10.635 13.4326C10.6318 13.4434 10.6633 13.4446 10.6551 13.4724L10.6119 13.6188C10.6036 13.6477 10.5874 13.6335 10.5842 13.6443C10.5838 13.6457 10.5838 13.6481 10.586 13.6488C10.5927 13.6512 10.6041 13.6536 10.6151 13.6573C10.6351 13.6642 10.6442 13.6685 10.6537 13.6717C10.6596 13.6736 10.6622 13.6733 10.6633 13.67C10.6662 13.6601 10.6332 13.6645 10.6442 13.627L10.6871 13.4814ZM10.7796 13.5108C10.7847 13.4924 10.7927 13.4948 10.8022 13.4979C10.8282 13.5061 10.8364 13.5334 10.8281 13.5636C10.8231 13.5816 10.8169 13.5984 10.7777 13.5858C10.7698 13.5834 10.7604 13.5804 10.7625 13.5726L10.7796 13.5108ZM10.7087 13.6428C10.698 13.6813 10.6799 13.6645 10.6772 13.6745C10.6756 13.6805 10.6812 13.6813 10.6839 13.6822C10.6969 13.6863 10.7102 13.689 10.7239 13.6937C10.7348 13.6971 10.7415 13.7005 10.7458 13.7019C10.7518 13.7036 10.7543 13.7026 10.7551 13.6998C10.7582 13.6887 10.7292 13.6932 10.7382 13.6604L10.7529 13.6073C10.7559 13.5966 10.755 13.5939 10.7686 13.5984C10.7814 13.6025 10.7854 13.6066 10.7874 13.622L10.7958 13.6774C10.799 13.6976 10.8017 13.7196 10.822 13.7261C10.8324 13.7293 10.8513 13.728 10.854 13.7185C10.8545 13.716 10.8535 13.7137 10.8511 13.7129C10.8486 13.7122 10.8455 13.7132 10.843 13.7124C10.8409 13.7117 10.8361 13.7101 10.835 13.7045C10.8271 13.6599 10.8175 13.6085 10.8182 13.6068C10.819 13.6037 10.8271 13.6033 10.8366 13.5985C10.8462 13.5936 10.8567 13.5846 10.8622 13.5649C10.866 13.5509 10.8729 13.506 10.8164 13.4881C10.7991 13.4826 10.7812 13.4782 10.7641 13.4727C10.7478 13.4676 10.7462 13.4658 10.7342 13.4621C10.7311 13.461 10.7281 13.4617 10.7273 13.4648C10.7242 13.4758 10.7554 13.4734 10.746 13.5077L10.7087 13.6428ZM10.9193 13.7088C10.911 13.7458 10.8849 13.7233 10.8822 13.7353C10.8806 13.7422 10.885 13.743 10.8898 13.7442C10.9002 13.747 10.909 13.7478 10.9266 13.7525C10.9442 13.7569 10.9524 13.7604 10.963 13.7631C10.9705 13.765 10.9754 13.7674 10.9772 13.7598C10.9791 13.7513 10.9436 13.7516 10.9522 13.7132L10.9838 13.5726C10.987 13.5577 10.9902 13.5569 11.0007 13.5596L11.0231 13.5654C11.0534 13.5718 11.0372 13.6042 11.0476 13.6069C11.0545 13.6086 11.0543 13.5958 11.0546 13.5918L11.0582 13.5627C11.0586 13.5593 11.0596 13.555 11.0556 13.5541C11.0313 13.5478 11.0135 13.5445 10.9754 13.5348C10.9372 13.525 10.9201 13.5192 10.8958 13.513C10.8918 13.512 10.891 13.5164 10.8898 13.5193L10.8766 13.5593C10.875 13.5632 10.8719 13.5696 10.8775 13.5711C10.8892 13.574 10.8905 13.5313 10.9201 13.5389L10.942 13.5445C10.9527 13.5473 10.955 13.5497 10.9516 13.5644L10.9193 13.7088ZM11.2367 13.622C11.2471 13.6049 11.2575 13.6086 11.2588 13.6014C11.2598 13.596 11.2559 13.5963 11.2503 13.5951C11.243 13.5937 11.2354 13.5934 11.2279 13.592C11.2204 13.5903 11.2132 13.5877 11.2055 13.5862C11.2023 13.5855 11.1948 13.5831 11.1938 13.5891C11.1919 13.6001 11.2206 13.5937 11.2154 13.6234C11.2146 13.6284 11.2122 13.6393 11.2006 13.6587L11.1478 13.7472C11.1466 13.7492 11.1449 13.7533 11.1433 13.7532C11.1417 13.7528 11.1412 13.748 11.1407 13.7458L11.1239 13.6378C11.1207 13.6172 11.1198 13.6018 11.1214 13.5924C11.1236 13.579 11.1386 13.5869 11.1401 13.5785C11.141 13.5732 11.1398 13.5732 11.1313 13.5716C11.127 13.5706 11.1191 13.5704 11.1023 13.567C11.0932 13.5653 11.0846 13.5622 11.0758 13.5605C11.0718 13.5596 11.0641 13.5555 11.0628 13.563C11.0623 13.5653 11.0655 13.5678 11.0662 13.5682C11.0766 13.5737 11.0796 13.5778 11.082 13.591L11.1161 13.7871C11.1185 13.8012 11.1207 13.8049 11.1233 13.8054C11.1262 13.806 11.1279 13.8044 11.1322 13.7969L11.2367 13.622ZM11.2516 13.8022C11.2516 13.8101 11.2511 13.8125 11.2574 13.8156C11.2721 13.8224 11.2846 13.8324 11.3006 13.8353C11.3353 13.8414 11.3641 13.8178 11.3706 13.7765C11.3769 13.7364 11.3615 13.7197 11.3354 13.6998C11.3028 13.6748 11.2889 13.6681 11.2922 13.647C11.2954 13.6258 11.3092 13.616 11.3268 13.6191C11.3724 13.6273 11.3671 13.6866 11.3732 13.6877C11.3791 13.6889 11.3804 13.6853 11.381 13.6782L11.3847 13.6354C11.3854 13.628 11.3868 13.6234 11.3828 13.6227C11.3794 13.6222 11.3721 13.626 11.3686 13.6253C11.3606 13.6239 11.3514 13.6097 11.3297 13.6057C11.2986 13.6002 11.2734 13.6229 11.2676 13.6592C11.2625 13.6923 11.2762 13.7072 11.2972 13.7235C11.3362 13.7535 11.3524 13.7605 11.3481 13.7874C11.3442 13.8126 11.326 13.825 11.3054 13.8212C11.2759 13.8161 11.2639 13.7844 11.2602 13.7526C11.2598 13.7482 11.2596 13.7453 11.2554 13.7444C11.2489 13.7434 11.25 13.753 11.2502 13.7574L11.2516 13.8022ZM11.6471 13.6827C11.6558 13.6645 11.6666 13.6671 11.6671 13.6597C11.6676 13.6542 11.6638 13.6549 11.6582 13.6546C11.6506 13.6537 11.643 13.6546 11.6354 13.6537C11.6278 13.6532 11.6204 13.6513 11.6126 13.6506C11.6094 13.6503 11.6017 13.6488 11.6012 13.6548C11.6004 13.6659 11.6284 13.6565 11.6262 13.6863C11.6257 13.6914 11.6244 13.7026 11.6148 13.7233L11.571 13.8171C11.57 13.8193 11.5686 13.8236 11.567 13.8234C11.5654 13.8234 11.5644 13.8188 11.5638 13.8166L11.5366 13.711C11.532 13.6965 11.5297 13.6813 11.5295 13.6661C11.5305 13.6527 11.5462 13.6589 11.5468 13.6501C11.5473 13.6448 11.5458 13.645 11.5372 13.6443C11.533 13.644 11.5252 13.6445 11.5081 13.6431C11.499 13.6422 11.4898 13.6402 11.481 13.6395C11.477 13.6392 11.4689 13.6361 11.4682 13.6436C11.4682 13.6458 11.4714 13.6481 11.4722 13.6484C11.4831 13.6525 11.4866 13.6563 11.4902 13.6692L11.5433 13.8603C11.5471 13.874 11.5497 13.8774 11.5522 13.8778C11.5551 13.878 11.5566 13.8761 11.5602 13.8682L11.6471 13.6827Z" fill="#703D29"/>
<path d="M11.6899 13.8353C11.6896 13.8679 11.6639 13.8619 11.6639 13.8748C11.6639 13.8802 11.6691 13.8787 11.6722 13.8787C11.6794 13.8787 11.6866 13.8775 11.6952 13.8777C11.7047 13.8777 11.7138 13.879 11.7269 13.8792C11.7304 13.8792 11.7371 13.8796 11.7371 13.8751C11.7371 13.86 11.7027 13.8814 11.7032 13.8202L11.7042 13.7114C11.7042 13.7085 11.7047 13.7062 11.7063 13.7062C11.7077 13.7062 11.7093 13.708 11.7111 13.7105L11.8391 13.878C11.8408 13.8806 11.8423 13.8825 11.8459 13.8825C11.8491 13.8825 11.8491 13.8801 11.8491 13.873L11.8507 13.6936C11.8509 13.66 11.8738 13.6678 11.8738 13.6582C11.8738 13.6574 11.8738 13.6541 11.8688 13.6541C11.8663 13.6541 11.857 13.6552 11.84 13.655C11.8215 13.655 11.8136 13.6536 11.8093 13.6534C11.8059 13.6534 11.805 13.6567 11.805 13.6589C11.805 13.6694 11.8378 13.6641 11.8375 13.6932L11.8367 13.7995C11.8367 13.8076 11.836 13.8115 11.8344 13.8115C11.8328 13.8115 11.8296 13.8076 11.8261 13.8029L11.7192 13.661C11.7144 13.6548 11.7176 13.6526 11.7091 13.6524C11.6949 13.6524 11.6879 13.6536 11.681 13.6536C11.6759 13.6536 11.6711 13.6522 11.6659 13.6522C11.6627 13.6522 11.6613 13.6546 11.6611 13.6576C11.6611 13.673 11.6915 13.6524 11.6909 13.7138L11.6899 13.8355V13.8353ZM11.9501 13.6913C11.9504 13.661 11.9704 13.6726 11.9704 13.6618C11.9704 13.6579 11.9691 13.6572 11.9611 13.6572C11.9458 13.657 11.9362 13.6582 11.9264 13.6582C11.917 13.6582 11.9066 13.6565 11.896 13.6565C11.8936 13.6565 11.8871 13.6555 11.8869 13.661C11.8869 13.6721 11.9157 13.6636 11.9157 13.6927V13.8461C11.9157 13.8765 11.8963 13.8681 11.8962 13.8792C11.8962 13.8809 11.8967 13.883 11.8991 13.8832C11.9061 13.8832 11.9176 13.882 11.9291 13.8821C11.9501 13.8821 11.96 13.8837 11.9701 13.8838C11.9762 13.8838 11.9786 13.8826 11.9787 13.879C11.9787 13.8688 11.9485 13.8832 11.9488 13.8439L11.9501 13.6913ZM12.0627 13.84C12.0631 13.878 12.0325 13.8629 12.0327 13.8754C12.0327 13.8823 12.0373 13.8821 12.0423 13.8821C12.0528 13.882 12.0618 13.8806 12.0797 13.8804C12.0978 13.8802 12.1066 13.8814 12.1173 13.8813C12.1251 13.8813 12.1306 13.8821 12.1304 13.8744C12.1304 13.8655 12.096 13.8751 12.0957 13.8358L12.0946 13.6913C12.0946 13.6759 12.0971 13.6742 12.1082 13.6742L12.1309 13.674C12.1619 13.6723 12.1536 13.708 12.1643 13.708C12.1712 13.708 12.1682 13.6954 12.1675 13.6915L12.1643 13.6622C12.1642 13.6589 12.1642 13.6545 12.1602 13.6545C12.1351 13.6548 12.117 13.6562 12.0779 13.6565C12.0387 13.6569 12.0207 13.6558 11.9957 13.656C11.9917 13.656 11.9917 13.6606 11.9914 13.6637L11.9875 13.7061C11.9871 13.7102 11.9855 13.7172 11.9911 13.7172C12.0032 13.717 11.9947 13.6752 12.0251 13.675L12.0477 13.6747C12.0587 13.6747 12.0615 13.6762 12.0615 13.6915L12.0627 13.84ZM12.2192 13.7794C12.2144 13.7798 12.2107 13.7805 12.2104 13.7772C12.2101 13.7728 12.2114 13.7692 12.2125 13.7652L12.229 13.7069C12.2301 13.7035 12.2311 13.703 12.2317 13.703C12.233 13.703 12.2322 13.703 12.2339 13.7054L12.2602 13.7613C12.2618 13.7649 12.2637 13.7683 12.264 13.7728C12.2642 13.776 12.2605 13.776 12.2557 13.7764L12.2192 13.7794ZM12.2651 13.7928C12.2722 13.7923 12.2738 13.7954 12.2843 13.8196C12.288 13.8278 12.2903 13.8334 12.2907 13.8405C12.2923 13.8598 12.273 13.858 12.2736 13.8672C12.2739 13.8717 12.2775 13.8706 12.2823 13.8703C12.2899 13.8698 12.2999 13.8676 12.3115 13.8667C12.3291 13.865 12.3367 13.8658 12.3463 13.865C12.3535 13.8643 12.3559 13.8648 12.3555 13.8593C12.3547 13.8489 12.3411 13.8626 12.3309 13.8405L12.2443 13.6516C12.2402 13.6423 12.2395 13.6416 12.2371 13.642C12.2336 13.6421 12.2328 13.6483 12.2312 13.6536L12.1728 13.8526C12.1675 13.871 12.1536 13.8703 12.1543 13.8777C12.1546 13.8818 12.1587 13.8808 12.1626 13.8804C12.1703 13.8797 12.1779 13.8778 12.1859 13.8772C12.1946 13.8765 12.2027 13.8772 12.2112 13.8763C12.2168 13.876 12.2253 13.8775 12.2248 13.8706C12.2242 13.8621 12.1957 13.8696 12.1939 13.8466C12.1935 13.8391 12.1963 13.8276 12.1978 13.8209C12.2024 13.7995 12.2079 13.7978 12.2125 13.7973L12.2653 13.7928H12.2651ZM12.4728 13.6603C12.4701 13.6384 12.4712 13.638 12.5034 13.6334C12.5547 13.6262 12.5386 13.6661 12.5511 13.6644C12.5573 13.6636 12.5546 13.6533 12.5538 13.6492L12.549 13.618C12.5485 13.615 12.5463 13.6121 12.5429 13.6128C12.5194 13.6159 12.5013 13.6198 12.4823 13.6226C12.4415 13.6282 12.4221 13.6296 12.4112 13.6312C12.4075 13.6318 12.4058 13.6346 12.4061 13.6375C12.4077 13.6502 12.4365 13.6358 12.44 13.6642L12.4583 13.8127C12.4631 13.8514 12.4407 13.837 12.4423 13.8516C12.4427 13.8537 12.4445 13.855 12.4479 13.8545C12.4626 13.8525 12.4735 13.8496 12.4818 13.8484C12.4936 13.8466 12.5035 13.8466 12.5138 13.8453C12.5203 13.8442 12.5261 13.8448 12.5253 13.8384C12.5243 13.8298 12.4952 13.8418 12.4909 13.8069L12.485 13.7599C12.4827 13.7416 12.4813 13.7378 12.4935 13.7361L12.5133 13.7333C12.541 13.7294 12.5376 13.7642 12.5461 13.7628C12.5525 13.762 12.5495 13.7508 12.5488 13.7467L12.54 13.6905C12.5386 13.6819 12.5357 13.6831 12.5339 13.6833C12.5285 13.6841 12.5314 13.7133 12.5083 13.7165L12.4917 13.7189C12.4802 13.7206 12.48 13.7184 12.4783 13.7047L12.4728 13.6603ZM12.5711 13.733C12.5821 13.7968 12.6251 13.8322 12.6783 13.8216C12.7624 13.805 12.7653 13.7248 12.7576 13.6807C12.7461 13.6138 12.6997 13.5813 12.6483 13.5921C12.5853 13.6053 12.5592 13.6641 12.5711 13.733ZM12.6005 13.7086C12.5925 13.663 12.5983 13.6169 12.6427 13.6072C12.6767 13.5998 12.7152 13.6298 12.7272 13.6994C12.7363 13.7515 12.7288 13.7966 12.6835 13.8065C12.6363 13.8168 12.6083 13.7546 12.6003 13.7086H12.6005ZM12.8088 13.5972C12.8047 13.5785 12.8128 13.5765 12.8224 13.5739C12.8488 13.567 12.8685 13.5864 12.8754 13.6169C12.8795 13.6353 12.8818 13.6531 12.8421 13.6632C12.8343 13.6653 12.8245 13.6678 12.8229 13.66L12.8088 13.5972ZM12.8088 13.7494C12.8178 13.7887 12.7944 13.7837 12.7965 13.7938C12.7979 13.8 12.8032 13.7976 12.8061 13.7969C12.8191 13.7935 12.8319 13.789 12.8461 13.7853C12.857 13.7825 12.8643 13.7818 12.8688 13.7808C12.8747 13.7791 12.8765 13.7769 12.8759 13.774C12.8733 13.7628 12.8503 13.7822 12.8429 13.7489L12.8307 13.6951C12.8283 13.6843 12.8263 13.6826 12.8402 13.679C12.8531 13.6756 12.8586 13.6773 12.8675 13.6893L12.9005 13.7328C12.9127 13.7488 12.9255 13.7662 12.9461 13.7609C12.9565 13.7582 12.9722 13.7469 12.9701 13.7373C12.9695 13.7349 12.9675 13.7333 12.9653 13.7338C12.9626 13.7347 12.9605 13.7373 12.9578 13.7378C12.9557 13.7383 12.9507 13.7395 12.9472 13.7352C12.9197 13.7009 12.8874 13.6615 12.8869 13.6598C12.8863 13.6565 12.8933 13.6519 12.8992 13.6426C12.9051 13.6334 12.9101 13.6198 12.9056 13.6C12.9024 13.5857 12.8874 13.5432 12.8301 13.5578C12.8125 13.5624 12.7952 13.5681 12.7776 13.5727C12.7611 13.577 12.7587 13.5761 12.7467 13.5792C12.7435 13.5801 12.7415 13.5823 12.7419 13.5854C12.7447 13.5967 12.7704 13.5778 12.7783 13.6126L12.809 13.7494H12.8088ZM13.0245 13.6978C13.0335 13.7347 13.0005 13.728 13.0034 13.74C13.005 13.7469 13.0093 13.7453 13.0139 13.744C13.0243 13.7412 13.0327 13.7376 13.0501 13.7326C13.0675 13.7278 13.0765 13.7268 13.0869 13.7239C13.0944 13.7218 13.0997 13.7213 13.0981 13.7138C13.0959 13.7052 13.0648 13.7234 13.0555 13.6853L13.0219 13.5453C13.0183 13.5304 13.0203 13.5281 13.0311 13.5252L13.0533 13.519C13.0829 13.5096 13.0827 13.5463 13.0933 13.5434C13.1 13.5415 13.0943 13.5302 13.0928 13.5266L13.0831 13.499C13.0821 13.4959 13.081 13.4916 13.0771 13.4926C13.0528 13.4995 13.0357 13.5055 12.9978 13.516C12.9599 13.5264 12.9421 13.53 12.9178 13.5367C12.9139 13.5379 12.9151 13.5422 12.9155 13.5453L12.9213 13.5874C12.9216 13.5916 12.9218 13.5988 12.9272 13.5972C12.9389 13.594 12.9213 13.5556 12.9507 13.5475L12.9727 13.5415C12.9832 13.5384 12.9863 13.5393 12.9898 13.5542L13.0245 13.6978ZM13.1619 13.5014C13.1544 13.4722 13.1767 13.4774 13.1739 13.4671C13.173 13.4633 13.1715 13.463 13.1637 13.4654C13.149 13.4697 13.14 13.4738 13.1307 13.4765C13.1216 13.4791 13.1112 13.481 13.1011 13.4839C13.0987 13.4846 13.092 13.4856 13.0935 13.4908C13.0962 13.5017 13.1232 13.4844 13.1304 13.5124L13.1688 13.6603C13.1763 13.6894 13.1557 13.687 13.1584 13.698C13.1589 13.6994 13.16 13.7014 13.1623 13.7008C13.169 13.6987 13.1799 13.6942 13.1911 13.691C13.2111 13.685 13.221 13.6833 13.2306 13.6805C13.2365 13.6788 13.2386 13.6768 13.2376 13.6733C13.2351 13.6636 13.2098 13.6864 13.2 13.6485L13.1619 13.5014ZM13.2192 13.5729C13.2384 13.6346 13.2856 13.663 13.3368 13.6447C13.4181 13.6156 13.4104 13.5357 13.3971 13.4932C13.3771 13.4289 13.3269 13.4033 13.2775 13.4218C13.2167 13.4441 13.1984 13.5065 13.2192 13.5729ZM13.2451 13.5444C13.2314 13.5004 13.2311 13.4539 13.2739 13.4376C13.3066 13.4253 13.3487 13.4493 13.3696 13.5163C13.3853 13.5667 13.3837 13.6123 13.3402 13.6289C13.2949 13.6462 13.2591 13.5886 13.2451 13.5444ZM13.4359 13.3992C13.4293 13.3814 13.437 13.3781 13.4463 13.3742C13.4715 13.3636 13.4936 13.3797 13.5043 13.4088C13.5107 13.4263 13.5155 13.4436 13.4775 13.4597C13.4699 13.4628 13.4607 13.4668 13.4579 13.4594L13.4359 13.3992ZM13.4557 13.5501C13.4696 13.5874 13.4456 13.5861 13.4493 13.5957C13.4514 13.6017 13.4563 13.5986 13.4591 13.5974C13.4715 13.5922 13.4837 13.5857 13.4971 13.5799C13.5075 13.5756 13.5147 13.5739 13.5191 13.572C13.5248 13.5696 13.5261 13.5669 13.5251 13.5643C13.5213 13.5537 13.501 13.5763 13.4893 13.5444L13.4703 13.493C13.4664 13.4825 13.4642 13.481 13.4775 13.4755C13.4899 13.4704 13.4955 13.471 13.5061 13.4817L13.5443 13.5199C13.5584 13.5338 13.5733 13.549 13.593 13.5408C13.6031 13.5367 13.6171 13.5232 13.6138 13.5139C13.6128 13.5115 13.6106 13.5105 13.6085 13.5113C13.6059 13.5124 13.6042 13.5153 13.6016 13.5163C13.5997 13.5172 13.5949 13.519 13.5909 13.5153C13.5591 13.4854 13.5221 13.4512 13.5213 13.4494C13.5202 13.4465 13.5264 13.4409 13.5312 13.4308C13.5359 13.4205 13.5391 13.4066 13.532 13.3876C13.5271 13.3738 13.5066 13.3339 13.4519 13.357C13.4351 13.3641 13.4186 13.3725 13.4018 13.3795C13.3861 13.3864 13.3835 13.3858 13.372 13.3906C13.3691 13.392 13.3672 13.3946 13.3682 13.3975C13.3722 13.4083 13.3954 13.3857 13.4077 13.4191L13.4557 13.5499V13.5501Z" fill="#703D29"/>
<path d="M10.6025 10.275H11.9174V11.6811H10.6025V10.275Z" fill="#D52B1E"/>
<path d="M11.2193 11.38C11.2193 11.38 11.2185 11.4302 11.2056 11.4707C11.1907 11.5173 11.1905 11.5173 11.1768 11.5399C11.1611 11.5665 11.1404 11.5892 11.116 11.6066C11.0846 11.6282 11.0528 11.6389 11.0208 11.6358C10.9329 11.6275 10.8921 11.5255 10.8723 11.4426C10.8512 11.3546 10.7912 11.3068 10.7528 11.3387C10.7304 11.3574 10.7293 11.3886 10.748 11.4187C10.7678 11.4506 10.8136 11.4667 10.8136 11.4667L10.7665 11.5307C10.7665 11.5307 10.6657 11.5166 10.6461 11.4038C10.6385 11.3611 10.6579 11.2816 10.7243 11.2578C10.8091 11.2274 10.8632 11.2921 10.8893 11.3469C10.9253 11.422 10.9406 11.56 11.0401 11.5386C11.0944 11.5271 11.1198 11.4426 11.1198 11.404L11.1593 11.3587L11.2177 11.3786L11.2193 11.38Z" fill="white"/>
<path d="M11.3779 10.7819L11.55 10.5823C11.55 10.5823 11.576 10.5599 11.5758 10.5241L11.5403 10.5299L11.5323 10.5103L11.5307 10.4906L11.5784 10.4798C11.579 10.4716 11.5784 10.4653 11.5798 10.4562C11.5811 10.4476 11.5828 10.4431 11.5846 10.4347L11.5324 10.4385C11.5352 10.4287 11.5345 10.4236 11.5374 10.4145C11.54 10.4068 11.5406 10.4039 11.5454 10.3957C11.5552 10.3939 11.564 10.3915 11.576 10.3903C11.5876 10.3891 11.5944 10.3897 11.606 10.3888C11.6345 10.3319 11.7531 10.2796 11.8372 10.3734C11.8982 10.4413 11.8851 10.5657 11.806 10.5986C11.788 10.6073 11.768 10.6101 11.7485 10.6067C11.729 10.6033 11.7108 10.5939 11.6963 10.5796L11.7278 10.5133C11.7713 10.5412 11.8075 10.5064 11.8049 10.4704C11.8017 10.425 11.7742 10.3969 11.7353 10.3933C11.6992 10.3898 11.6732 10.4121 11.6569 10.4464C11.6468 10.4677 11.6515 10.4831 11.6481 10.5064C11.6446 10.5319 11.6465 10.5462 11.6396 10.5719C11.632 10.5955 11.6189 10.6166 11.6017 10.6334L11.4252 10.8379L10.7382 11.6342L10.6865 11.5831L11.3779 10.7819Z" fill="#FEDF00"/>
<path d="M10.8721 10.8564C10.8721 10.8564 10.9153 11.0856 11.062 11.4295C11.1367 11.4004 11.1807 11.3815 11.2599 11.3815C11.339 11.3815 11.3831 11.3974 11.4577 11.4295C11.6044 11.0856 11.6476 10.8564 11.6476 10.8564L11.2599 10.3219L10.8721 10.8564Z" fill="white"/>
<path d="M11.2981 10.5L11.5672 10.871C11.5672 10.871 11.5314 11.0513 11.4219 11.3227C11.3797 11.3124 11.3434 11.3033 11.2982 11.3001V10.5H11.2981ZM11.2222 10.5L10.9531 10.871C10.9531 10.871 10.989 11.0513 11.0984 11.3227C11.1406 11.3124 11.177 11.3033 11.2221 11.3001V10.5H11.2222Z" fill="#FEDF00"/>
<path d="M12.0576 10.275H13.3725V11.6811H12.0576V10.275Z" fill="#FEDF00"/>
<path d="M12.2422 10.275H12.4382V11.6811H12.2422V10.275ZM12.6179 10.275H12.8139V11.6811H12.618L12.6179 10.275ZM12.9935 10.275H13.1895V11.6811H12.9935V10.275Z" fill="#D52B1E"/>
<path d="M10.6077 12.9001C10.6113 12.9255 10.6198 12.9688 10.6422 13.0132C10.6659 13.0534 10.6573 13.0523 10.7107 13.1163C10.7369 13.1478 10.7781 13.1747 10.8104 13.1934C10.8427 13.2119 10.8665 13.2212 10.9198 13.2361C11.0241 13.2654 11.0973 13.2673 11.1849 13.2635C11.2534 13.2606 11.3057 13.2515 11.3489 13.2454C11.4107 13.2364 11.4566 13.2311 11.5269 13.228C11.5609 13.2263 11.5933 13.2262 11.6251 13.228C11.6635 13.2303 11.7016 13.2366 11.7419 13.2452C11.8016 13.2589 11.8602 13.2773 11.9174 13.3L11.9176 11.8316L10.6025 11.8312V12.8348C10.6025 12.8348 10.6053 12.8838 10.6077 12.8999V12.9001Z" fill="#FEDF00"/>
<path d="M10.7607 13.1579L10.8223 13.1963L10.9068 13.2289V11.8312H10.7607V13.1579ZM11.4913 13.2215L11.4915 11.8312H11.3452V13.2438C11.3452 13.2438 11.4452 13.2301 11.4913 13.2267V13.2215ZM11.7831 11.8314H11.6374V13.2265C11.6849 13.232 11.7337 13.2411 11.7835 13.2553L11.7831 11.8314ZM11.1993 11.8314V13.2599C11.1979 13.2601 11.1017 13.2654 11.0526 13.2599V11.8316L11.1993 11.8314Z" fill="#D52B1E" stroke="#D52B1E" stroke-width="0.05"/>
<path d="M12.9961 12.7277C12.9919 12.7546 12.983 12.7807 12.9698 12.8047C12.9519 12.832 12.9584 12.8313 12.9178 12.8748C12.8979 12.8964 12.8666 12.9147 12.8421 12.9273C12.8175 12.9401 12.7994 12.9463 12.7589 12.9565C12.6796 12.9764 12.6241 12.9777 12.5574 12.9751C12.5054 12.9732 12.4657 12.967 12.4328 12.9628C12.3859 12.9567 12.351 12.9531 12.2976 12.951C12.2728 12.9498 12.2478 12.9498 12.223 12.951C12.1938 12.9525 12.1649 12.9568 12.1342 12.9627C12.068 12.9755 12 13 12 13L12.0006 12.0002L13 12V12.6832C13 12.6832 12.9979 12.7166 12.9961 12.7276V12.7277Z" fill="#FEDF00"/>
<path d="M12.3941 12.1922L12.3845 12.197C12.3797 12.2027 12.3775 12.2059 12.3722 12.2109C12.365 12.2177 12.3599 12.2195 12.3522 12.2255C12.3484 12.2282 12.3455 12.2291 12.3426 12.233C12.3386 12.2385 12.3413 12.2436 12.3386 12.2501C12.3356 12.257 12.3327 12.2604 12.3282 12.2661C12.3223 12.2736 12.3178 12.2765 12.3111 12.2832C12.3044 12.2901 12.3016 12.2957 12.2935 12.3004C12.2914 12.3016 12.2904 12.3028 12.288 12.3036C12.2847 12.3048 12.2826 12.3035 12.2791 12.3047C12.2728 12.3071 12.2711 12.3143 12.2666 12.317C12.2684 12.3208 12.2682 12.3233 12.2701 12.3273C12.2727 12.3328 12.2813 12.348 12.2831 12.3518C12.2864 12.3569 12.2874 12.3638 12.2916 12.3652C12.3002 12.3681 12.3053 12.3679 12.3127 12.3674C12.3253 12.3705 12.3332 12.3701 12.3452 12.3755C12.3549 12.3797 12.3589 12.3852 12.3687 12.3899C12.3762 12.3935 12.381 12.3957 12.3892 12.3974C12.3952 12.3986 12.3988 12.3996 12.4052 12.3991C12.4092 12.3986 12.4111 12.3969 12.4151 12.3964H12.4172L12.4167 12.4027V12.4043H12.4176L12.4506 12.4199C12.4495 12.4219 12.4482 12.4243 12.4476 12.4264C12.446 12.4319 12.4458 12.438 12.4466 12.4408C12.4567 12.4732 12.4652 12.4934 12.4701 12.4955C12.48 12.4994 12.4829 12.5102 12.4887 12.5212C12.4866 12.5234 12.485 12.5246 12.4831 12.5263C12.4733 12.5366 12.4647 12.5438 12.4567 12.5575C12.4447 12.5779 12.4367 12.5781 12.4516 12.6052C12.4604 12.6211 12.4647 12.624 12.476 12.6463C12.482 12.6578 12.4852 12.6665 12.4887 12.6803C12.4919 12.6931 12.493 12.7007 12.4935 12.714L12.5092 12.7204L12.5196 12.7092L12.5296 12.6887L12.5301 12.6732C12.5263 12.6698 12.5253 12.6652 12.5261 12.6599C12.5272 12.6535 12.5343 12.6547 12.5376 12.6492C12.5421 12.6412 12.5324 12.6365 12.5271 12.6304C12.5175 12.6189 12.5042 12.6161 12.5012 12.5988C12.5004 12.594 12.5024 12.5915 12.5071 12.5865C12.5208 12.5721 12.5252 12.5699 12.5386 12.5555C12.5424 12.5579 12.5484 12.5587 12.5541 12.5575C12.5586 12.5567 12.5626 12.5597 12.5765 12.564C12.5864 12.5669 12.5906 12.5654 12.596 12.5645L12.6021 12.5628C12.6029 12.5666 12.6039 12.57 12.604 12.5748C12.605 12.5928 12.6016 12.6261 12.6066 12.6348C12.6087 12.6383 12.6096 12.6403 12.6111 12.6443C12.6127 12.6484 12.6146 12.6511 12.6146 12.6556C12.6148 12.6676 12.6154 12.6751 12.6146 12.6876C12.614 12.6996 12.613 12.7056 12.6111 12.7176C12.61 12.7255 12.6085 12.73 12.604 12.736C12.5996 12.7421 12.5946 12.743 12.5887 12.7476L12.5871 12.7648L12.6052 12.7728L12.6256 12.7783L12.6367 12.7733C12.6367 12.7691 12.6373 12.7665 12.6391 12.7627C12.6412 12.7584 12.6428 12.7552 12.6466 12.7536C12.6524 12.7512 12.6588 12.7559 12.661 12.7519C12.6637 12.7478 12.6621 12.7463 12.6616 12.7391C12.6608 12.7277 12.6588 12.7223 12.6572 12.7108C12.6546 12.6952 12.6537 12.6794 12.6546 12.6636C12.6551 12.653 12.6552 12.6472 12.6572 12.6369C12.6599 12.6216 12.6648 12.6143 12.668 12.5992C12.6717 12.5825 12.6724 12.5717 12.6741 12.557C12.7248 12.5647 12.7669 12.5639 12.8236 12.5505C12.8263 12.55 12.8356 12.5462 12.8356 12.5462C12.8484 12.5582 12.8629 12.568 12.8791 12.5741V12.5908C12.8797 12.5957 12.8784 12.599 12.8812 12.6031C12.8828 12.6057 12.8844 12.6072 12.8871 12.6079C12.8914 12.6089 12.8944 12.6083 12.8976 12.6052C12.9013 12.6017 12.9005 12.5975 12.9016 12.5923C12.9021 12.5899 12.9016 12.5827 12.9016 12.5805C12.9076 12.5815 12.9095 12.5817 12.9156 12.5817C12.9213 12.5817 12.924 12.5819 12.9296 12.5812L12.9301 12.5891C12.9306 12.5933 12.9288 12.5966 12.9306 12.6004C12.9324 12.6043 12.9346 12.6065 12.9386 12.6072C12.9418 12.6081 12.9442 12.6076 12.9471 12.6057C12.9519 12.6026 12.9514 12.5971 12.952 12.5913C12.9524 12.5894 12.9524 12.5793 12.952 12.5779L12.9687 12.5714C12.9687 12.5757 12.968 12.5803 12.9671 12.5855C12.9662 12.5909 12.9649 12.5962 12.9631 12.6014C12.9599 12.6112 12.956 12.6161 12.9511 12.6251C12.9452 12.6359 12.942 12.6419 12.9346 12.6518C12.9312 12.6564 12.9288 12.6585 12.9256 12.6631C12.9215 12.6688 12.9202 12.6727 12.916 12.6785C12.9109 12.6861 12.908 12.6911 12.9012 12.6969C12.89 12.7063 12.8828 12.6986 12.8676 12.7113L12.864 12.7289L12.8871 12.738L12.9076 12.7423L12.9146 12.738C12.9144 12.7329 12.9151 12.7293 12.9181 12.7252C12.9215 12.7205 12.9252 12.7192 12.9306 12.7183C12.9364 12.7173 12.9426 12.7188 12.9471 12.7145C12.9527 12.7092 12.9527 12.6988 12.9572 12.6893C12.9689 12.6639 12.9852 12.6412 13.0052 12.6225C13.0149 12.6122 13.0232 12.6093 13.0316 12.5976C13.0356 12.5921 13.0399 12.5897 13.04 12.5827C13.0402 12.5779 13.0378 12.5755 13.0367 12.5709C13.0351 12.5644 13.0335 12.5537 13.0335 12.5537C13.058 12.5666 13.0492 12.5649 13.0536 12.5777C13.0572 12.5884 13.0532 12.5957 13.0546 12.6069C13.0564 12.6197 13.0621 12.6257 13.0631 12.6389C13.0644 12.6544 13.0608 12.6633 13.0581 12.6785C13.0557 12.6921 13.056 12.7005 13.0506 12.7128C13.0467 12.7234 13.0403 12.7326 13.032 12.7397C13.0288 12.7427 13.0263 12.744 13.0226 12.7466L13.0207 12.7643L13.0386 12.7708L13.0647 12.7783L13.0706 12.7723C13.0732 12.7612 13.0698 12.7447 13.077 12.7433C13.0836 12.7423 13.0882 12.7433 13.0896 12.7382C13.0903 12.7358 13.0906 12.7325 13.0912 12.7274C13.0946 12.695 13.0978 12.6648 13.1012 12.6503C13.1048 12.6336 13.1045 12.63 13.1076 12.6175C13.1104 12.6062 13.1063 12.6127 13.1141 12.5885C13.1258 12.5525 13.1109 12.5479 13.0972 12.526C13.0898 12.514 13.0872 12.5097 13.0861 12.5003C13.0845 12.4862 13.0887 12.4745 13.088 12.4531C13.0875 12.4367 13.0875 12.4202 13.088 12.4037C13.09 12.4029 13.0917 12.4017 13.0936 12.4005C13.1124 12.3895 13.1197 12.3863 13.1316 12.3583C13.1352 12.3497 13.1367 12.3412 13.1367 12.3331C13.1367 12.3273 13.1356 12.3218 13.1351 12.3155C13.1346 12.3086 13.132 12.3045 13.1301 12.2993C13.1279 12.294 13.1249 12.2891 13.1212 12.2848C13.1087 12.269 13.0927 12.2654 13.0776 12.2597C13.054 12.2505 13.0376 12.2522 13.0116 12.25C12.9848 12.2477 12.97 12.2474 12.9431 12.2489C12.9111 12.251 12.893 12.2579 12.8612 12.2618C12.8304 12.2656 12.8135 12.2681 12.7828 12.2687C12.7464 12.2695 12.7119 12.2609 12.6901 12.2628C12.6509 12.2664 12.6501 12.2759 12.5911 12.2812C12.5604 12.2837 12.5296 12.2843 12.5296 12.2843L12.4951 12.2726C12.5088 12.2673 12.5122 12.264 12.5186 12.2548C12.5229 12.2486 12.5223 12.2433 12.5276 12.2366C12.5319 12.2313 12.5348 12.226 12.54 12.22C12.5357 12.2163 12.5306 12.2138 12.5252 12.2126C12.5192 12.2112 12.5159 12.2117 12.5101 12.2126C12.5021 12.2135 12.4978 12.2147 12.4906 12.2184C12.4848 12.2215 12.4807 12.2246 12.4772 12.2287C12.4772 12.2287 12.4565 12.2143 12.4421 12.2076C12.4242 12.1994 12.4165 12.1956 12.3941 12.1922ZM12.4256 12.3962H12.4266L12.4261 12.3969L12.4256 12.3964V12.3962Z" fill="#D52B1E"/>
<path d="M13.1 12.4122L13.0878 12.4163C13.0739 12.4231 13.0625 12.4235 13.0462 12.4249C13.0038 12.4283 12.9779 12.4067 12.9342 12.4103C12.9118 12.4122 12.9017 12.4309 12.8788 12.4369C12.8684 12.4396 12.8624 12.4408 12.8516 12.4417L12.8598 12.424C12.8598 12.424 12.8393 12.4285 12.826 12.4285C12.8164 12.4285 12.811 12.4279 12.8016 12.4262L12.8179 12.4099C12.8179 12.4099 12.8049 12.4077 12.7971 12.4043C12.791 12.4017 12.7853 12.398 12.7803 12.3935C12.7908 12.3914 12.7968 12.3901 12.8073 12.3873C12.8321 12.3808 12.84 12.3678 12.8696 12.3647C12.888 12.3628 12.918 12.3638 12.9918 12.377C13.0403 12.3856 13.0619 12.3815 13.0803 12.3726C13.0926 12.3666 13.0966 12.3553 13.0979 12.3419C13.0995 12.3285 13.0915 12.3179 13.084 12.3109C13.082 12.3091 13.0769 12.3052 13.0664 12.3047" stroke="#FEDF00" stroke-width="0.01" stroke-linecap="round"/>
<path d="M12.397 12.2582C12.3885 12.257 12.3829 12.2584 12.3756 12.2634C12.3679 12.2683 12.3669 12.2752 12.3613 12.2827C12.3685 12.2844 12.3725 12.2889 12.3796 12.2872C12.3852 12.2856 12.388 12.2831 12.3919 12.2784C12.3968 12.2723 12.3988 12.2668 12.3986 12.2586L12.397 12.2582Z" fill="#FCD900" stroke="#FEDF00" stroke-width="0.01"/>
<path d="M12.5769 12.4826C12.5769 12.4826 12.5811 12.4908 12.5833 12.4963C12.5873 12.5057 12.5894 12.5114 12.5918 12.5215C12.595 12.5352 12.5936 12.5434 12.5957 12.5575C12.596 12.5599 12.5965 12.5619 12.5969 12.5638L12.5961 12.5832M12.7049 12.4641L12.6993 12.4869C12.6936 12.5102 12.6885 12.5227 12.6841 12.5462C12.6835 12.5501 12.6829 12.5539 12.6825 12.5573M12.5088 12.4891C12.5214 12.4922 12.5174 12.5467 12.5374 12.5592" stroke="#FEDF00" stroke-width="0.01" stroke-linecap="round"/>
<path d="M12.9619 12.5881L12.968 12.5838C12.9841 12.5767 12.9987 12.5663 13.011 12.5531" stroke="#FEDF00" stroke-width="0.01"/>
<path d="M12.8379 12.5554C12.8945 12.5404 12.9323 12.51 12.9593 12.5062M12.8953 12.4798C12.9001 12.4797 12.9046 12.4793 12.9086 12.4786C12.9321 12.4752 12.9358 12.4905 12.9523 12.5002C12.9819 12.5181 12.9859 12.5397 13.0211 12.5578L13.0262 12.5604L13.0397 12.5678" stroke="#FEDF00" stroke-width="0.01" stroke-linecap="round"/>
<path d="M12.2832 12.3268C12.2875 12.328 12.2901 12.3282 12.2944 12.3277C12.2998 12.3272 12.3024 12.3237 12.3075 12.3236C12.3118 12.3234 12.315 12.3229 12.3186 12.3256C12.3208 12.3273 12.3218 12.3289 12.323 12.3315C12.3243 12.3344 12.3256 12.3363 12.325 12.3395C12.324 12.3443 12.3198 12.3467 12.3152 12.3467C12.3114 12.3467 12.3082 12.3457 12.3064 12.3421C12.3059 12.3411 12.3055 12.3399 12.3054 12.3387C12.3054 12.3375 12.3055 12.3363 12.3059 12.3352C12.3013 12.3371 12.2979 12.3373 12.2934 12.3356C12.2886 12.3339 12.2858 12.3315 12.2832 12.3268Z" fill="#FCD900" stroke="#FEDF00" stroke-width="0.01"/>
<path d="M12.4026 12.4887C12.3898 12.4846 12.371 12.4744 12.371 12.4744C12.3763 12.4702 12.3806 12.47 12.385 12.465C12.3912 12.4582 12.3909 12.4515 12.3944 12.4424C12.3979 12.4335 12.3973 12.4261 12.4051 12.4194C12.4099 12.4155 12.4173 12.4148 12.423 12.4165C12.4286 12.4184 12.4352 12.4234 12.4366 12.4297C12.4387 12.4393 12.4341 12.4448 12.4326 12.4546C12.4314 12.4643 12.4278 12.47 12.4294 12.4796C12.4306 12.4861 12.4331 12.4885 12.4352 12.495C12.4352 12.495 12.415 12.4926 12.4026 12.4887ZM12.3867 12.505C12.3867 12.5021 12.3877 12.4993 12.3896 12.4973C12.3914 12.4952 12.394 12.494 12.3966 12.494C12.3993 12.4939 12.4019 12.495 12.4038 12.497C12.4057 12.499 12.4068 12.5018 12.4069 12.5046C12.4069 12.506 12.4067 12.5074 12.4062 12.5088C12.4057 12.5101 12.405 12.5113 12.404 12.5123C12.4031 12.5133 12.402 12.5141 12.4008 12.5147C12.3996 12.5153 12.3983 12.5156 12.397 12.5156C12.3956 12.5156 12.3943 12.5154 12.3931 12.5148C12.3919 12.5143 12.3907 12.5135 12.3898 12.5125C12.3888 12.5116 12.3881 12.5104 12.3875 12.5091C12.387 12.5078 12.3867 12.5064 12.3867 12.505ZM12.3586 12.2219L12.3563 12.2202C12.3501 12.2149 12.3496 12.2089 12.3467 12.2012C12.3438 12.1936 12.3426 12.1892 12.3416 12.1813C12.3408 12.1744 12.3416 12.1703 12.3416 12.1633C12.3416 12.1571 12.3422 12.1535 12.3416 12.1472C12.341 12.1407 12.3411 12.1367 12.3382 12.1311C12.3366 12.128 12.3318 12.1252 12.3333 12.1239C12.3347 12.1222 12.3373 12.1235 12.34 12.1239C12.3464 12.1246 12.3501 12.1266 12.355 12.1311C12.3611 12.1362 12.3635 12.1408 12.3658 12.1489C12.3685 12.1583 12.3698 12.1643 12.3722 12.1741C12.3738 12.1792 12.3744 12.1822 12.377 12.1868C12.3794 12.1914 12.3819 12.1933 12.3853 12.1976L12.385 12.1979C12.3802 12.2036 12.3779 12.2072 12.3726 12.2122C12.3678 12.2168 12.3637 12.219 12.359 12.2221L12.3586 12.2219ZM12.4162 12.4043L12.4518 12.422C12.4762 12.4059 12.4956 12.3825 12.5078 12.3548C12.5219 12.3253 12.5242 12.3094 12.5296 12.2809L12.501 12.271L12.4954 12.2722C12.4864 12.3016 12.4842 12.3184 12.4694 12.3442C12.4566 12.3661 12.4419 12.3836 12.427 12.3961L12.4162 12.4043ZM12.4952 12.715C12.501 12.7064 12.5034 12.7011 12.5099 12.6934C12.5173 12.6848 12.5227 12.6814 12.5309 12.6736C12.5334 12.6738 12.5363 12.6733 12.5386 12.6748C12.5381 12.6909 12.5353 12.7068 12.5302 12.722C12.528 12.7287 12.5277 12.733 12.5238 12.7388C12.5214 12.7426 12.5194 12.7441 12.5163 12.7475C12.5083 12.7348 12.495 12.7252 12.4952 12.715ZM13.0234 12.7467C13.0325 12.7503 13.0381 12.7513 13.0469 12.7559C13.0566 12.7611 13.0613 12.7657 13.0704 12.772C13.0707 12.7748 13.072 12.7775 13.0714 12.7803C13.0568 12.7843 13.0417 12.7858 13.0267 12.7847C13.0202 12.7842 13.0162 12.7851 13.0099 12.783C13.0058 12.7813 13.0038 12.7796 12.9998 12.7775C13.0091 12.7655 13.0139 12.7494 13.0234 12.7467ZM12.8672 12.7117C12.8763 12.7153 12.8819 12.7163 12.8907 12.721C12.9003 12.7261 12.9051 12.7307 12.9142 12.7371C12.9146 12.7398 12.9158 12.7426 12.9152 12.7453C12.9006 12.7493 12.8856 12.7508 12.8706 12.7498C12.864 12.7492 12.86 12.7501 12.8538 12.748C12.8496 12.7463 12.8477 12.7446 12.8437 12.7426C12.853 12.7306 12.8578 12.7144 12.8672 12.7117ZM12.5898 12.7482C12.5989 12.7518 12.6045 12.7528 12.6133 12.7575C12.623 12.7626 12.6277 12.7672 12.6368 12.7736C12.6371 12.7763 12.6384 12.7791 12.6378 12.7818C12.6232 12.7858 12.6081 12.7873 12.5931 12.7863C12.5866 12.7858 12.5826 12.7866 12.5763 12.7846C12.5722 12.7828 12.5702 12.7811 12.5662 12.7791C12.5755 12.7671 12.5803 12.751 12.5898 12.7482ZM12.4461 12.2374C12.4363 12.2326 12.4293 12.2195 12.4355 12.2099C12.4379 12.2063 12.4421 12.207 12.4446 12.2032C12.4475 12.1986 12.4469 12.1947 12.4467 12.1888C12.4467 12.1825 12.4445 12.1791 12.4435 12.1727C12.4422 12.1659 12.4411 12.1618 12.4413 12.1547C12.4413 12.1439 12.4406 12.1362 12.4467 12.1278C12.4507 12.1223 12.4573 12.1175 12.46 12.1172C12.4622 12.1196 12.459 12.1258 12.4594 12.1314C12.46 12.1393 12.4614 12.1436 12.4642 12.1511C12.4674 12.1607 12.4717 12.1648 12.4754 12.1744C12.4786 12.1834 12.4818 12.1883 12.4819 12.1979C12.4822 12.2056 12.4816 12.2104 12.4787 12.2176C12.4767 12.2233 12.4732 12.2283 12.4688 12.232C12.4645 12.2358 12.4616 12.2375 12.456 12.2392C12.4522 12.2396 12.4496 12.2391 12.4461 12.2374Z" fill="#0065BD"/>
<path d="M10.6027 10.275H11.9176V11.6811H10.6027V10.275ZM12.0577 10.275H13.3726V11.6811H12.0577V10.275ZM10.6077 12.9006C10.6113 12.926 10.6198 12.9694 10.6422 13.0138C10.6659 13.0539 10.6573 13.0529 10.7107 13.1168C10.7369 13.1483 10.7781 13.1753 10.8104 13.1939C10.8427 13.2125 10.8665 13.2217 10.9198 13.2366C11.0241 13.2659 11.0973 13.2678 11.1849 13.2641C11.2534 13.2611 11.3057 13.2521 11.3489 13.2459C11.4107 13.237 11.4566 13.2317 11.5269 13.2286C11.5609 13.2269 11.5933 13.2267 11.6251 13.2286C11.6635 13.2308 11.7016 13.2371 11.7419 13.2457C11.8016 13.2595 11.8602 13.2778 11.9174 13.3006L11.9176 11.8321L10.6025 11.8318V12.8353C10.6025 12.8353 10.6053 12.8843 10.6077 12.9005V12.9006ZM13.3678 12.9003C13.3623 12.9398 13.3506 12.9781 13.3333 13.0134C13.3096 13.0535 13.3182 13.0525 13.2648 13.1163C13.2385 13.148 13.1974 13.1749 13.1651 13.1934C13.1328 13.2123 13.1089 13.2214 13.0557 13.2363C12.9513 13.2656 12.8782 13.2675 12.7905 13.2637C12.7221 13.2608 12.6697 13.2517 12.6265 13.2455C12.5648 13.2366 12.5189 13.2313 12.4486 13.2282C12.4159 13.2265 12.3831 13.2265 12.3504 13.2282C12.312 13.2305 12.2739 13.2368 12.2336 13.2454C12.1464 13.2642 12.0569 13.3002 12.0569 13.3002L12.0577 11.8318L13.3729 11.8314V12.835C13.3729 12.835 13.3702 12.884 13.3678 12.9001V12.9003Z" stroke="#703D29" stroke-width="0.05"/>
<path d="M20 6L20 18L4 18L4 6L20 6ZM20 5L4 5C3.4 5 3 5.4 3 6L3 18C3 18.6 3.4 19 4 19L20 19C20.6 19 21 18.6 21 18L21 6C21 5.4 20.6 5 20 5Z" fill="#B5B5B5"/>
</svg>
