<svg width="24" height="24" viewBox="0 0 24 24" fill="none" xmlns="http://www.w3.org/2000/svg">
<path d="M20 6H4V18H20V6Z" fill="black"/>
<path d="M20 6H4V12H20V6Z" fill="#CE1126"/>
<path d="M12.0074 9.67376C12.3608 9.71188 12.7006 9.83425 12.9998 10.0311C13.2989 10.2279 13.549 10.4938 13.7303 10.8075C13.9115 11.1212 14.0188 11.474 14.0435 11.8378C14.0683 12.2016 14.0099 12.5663 13.8729 12.9028C13.736 13.2393 13.5243 13.5383 13.2547 13.776C12.9852 14.0136 12.6653 14.1833 12.3205 14.2715C11.9757 14.3597 11.6156 14.3639 11.2689 14.2839C10.9223 14.2039 10.5986 14.0419 10.3238 13.8107L9.99023 14.2284C10.3285 14.5129 10.7268 14.7123 11.1535 14.8108C11.5802 14.9093 12.0234 14.904 12.4477 14.7954C12.8721 14.6869 13.2658 14.478 13.5976 14.1856C13.9293 13.8931 14.1899 13.5251 14.3584 13.1109C14.527 12.6968 14.5989 12.2479 14.5684 11.8002C14.5379 11.3524 14.4059 10.9182 14.1828 10.5321C13.9598 10.146 13.6519 9.81879 13.2837 9.57652C12.9156 9.33424 12.4974 9.18364 12.0624 9.13672L12.0074 9.67376Z" fill="#F9D616"/>
<path d="M14.7947 11.6986C14.8142 11.902 14.8142 12.1069 14.7947 12.3102L14.2129 12.2514C14.2287 12.0872 14.2287 11.9217 14.2129 11.7574L14.7947 11.6986Z" fill="#F9D616"/>
<path d="M10.7686 10.5861H12.7699L11.1508 11.7934L11.7692 9.83984L12.3877 11.7934L10.7686 10.5861Z" fill="#F9D616"/>
<path d="M14.2198 14.6536C14.3694 14.8021 14.5708 14.9486 14.7169 15.0817C14.863 15.2147 14.975 15.3254 15.0656 15.4765C15.1983 15.6981 15.0492 15.949 14.8425 15.8017C14.7306 15.7221 14.6604 15.5071 14.4891 15.3291C14.3622 15.2183 14.2622 15.1021 13.9433 15.046C13.928 15.0433 13.9236 15.0101 13.9356 14.9956L14.2198 14.6536Z" fill="#F9D616"/>
<path d="M12.0166 13.9147L12.8057 14.3936L12.9773 15.0767L13.8831 15.0063L14.2811 14.5274L12.8057 13.4781L12.0166 13.9147Z" fill="black"/>
<path d="M13.8998 14.947C12.885 14.2545 12.2398 13.8805 11.2673 13.313C10.8853 13.0901 10.2921 12.5298 10.7601 11.5922C10.7895 12.2077 13.1597 13.8972 14.1612 14.6317L13.8998 14.947Z" fill="#F9D616"/>
<path d="M11.4219 12.7028C12.2031 13.4585 13.187 14.0749 14.0648 14.7562" stroke="black" stroke-width="0.1" stroke-linecap="round"/>
<path d="M14.3176 14.9325C14.3393 14.9325 14.3569 14.9145 14.3569 14.8922C14.3569 14.8699 14.3393 14.8519 14.3176 14.8519C14.2959 14.8519 14.2783 14.8699 14.2783 14.8922C14.2783 14.9145 14.2959 14.9325 14.3176 14.9325Z" fill="black"/>
<path d="M20 6L20 18L4 18L4 6L20 6ZM20 5L4 5C3.4 5 3 5.4 3 6L3 18C3 18.6 3.4 19 4 19L20 19C20.6 19 21 18.6 21 18L21 6C21 5.4 20.6 5 20 5Z" fill="#B5B5B5"/>
</svg>
