<svg width="24" height="24" viewBox="0 0 24 24" fill="none" xmlns="http://www.w3.org/2000/svg">
<path d="M20 6H4V18H20V6Z" fill="#072B5F"/>
<path d="M12.3191 14.7006L12.2407 14.6559L12.0083 14.7117L11.805 14.589V14.6364L11.7556 14.5722L11.8137 14.5164L11.805 14.349H11.8718L11.9125 14.2374L11.9589 14.2179L11.9212 14.1621L11.9793 14.1425L11.9705 14.0588L11.9125 14.0309L11.988 14.0225L11.9415 13.8188L11.8253 13.7072L11.7556 13.7351L11.7847 13.8272H11.5436L11.3403 13.7435L11.2618 13.7072L10.8755 13.6235L10.8465 13.6682L10.71 13.6793H10.6722L10.6141 13.7714L10.4485 13.6598L10.3614 13.6877L10.373 13.763L10.1581 13.6514L10.1494 13.724L9.93735 13.6319L9.92573 13.6403L9.82116 13.6793L9.80083 13.604L9.54813 13.484L9.27801 13.4003L9.22863 13.1854V13.138L9.12407 12.9539L9.17054 12.7306L9.0834 12.7027L9.05436 12.6079L9.19959 12.5911H9.13278L9.14149 12.4516L8.92946 12.5158L8.92075 12.46L8.8917 12.5632L8.77552 12.6079L8.6971 12.5353L8.66805 12.46L8.639 12.3121L8.70581 12.2646L8.73485 12.3009L8.75519 12.2563L8.70581 11.9214L8.78423 11.9382L8.82199 11.5866L8.83361 11.5754L8.90913 11.5308L8.81328 11.5392L8.77552 11.4555L8.94979 11.2685L8.79295 11.2406L8.67676 11.3522L8.63029 11.2239L8.56058 11.3159L8.54315 11.2518L8.45602 11.2797L8.39792 11.3076L8.4444 11.1402L8.40664 11.1206L8.42697 11.0732L8.37759 11.0844L8.36888 10.9895H8.55187L8.54315 10.9448H8.48506L8.37759 10.7663L8.3195 10.7858L8.28174 10.7216L8.26141 10.7774L8.20332 10.7384L8.26141 10.7021L8.17427 10.6742L8.19461 10.6267L8.1249 10.5905L8.10747 10.4426L8.03776 10.4231L8.07842 10.3951L8 10.1998L8.00871 10.1357L8.03776 9.94033H8.09585L8.07842 10.0603L8.22365 10.2556L8.32822 10.3868L8.54315 10.4426V10.451L8.5722 10.4035L8.68838 10.5347L8.74647 10.5988L8.77552 10.6267L9.10373 10.7774L9.16183 10.8053L9.18216 10.8221L9.3361 11.0006L9.42324 10.9616L10.0622 10.8221L10.0826 10.7105L10.129 10.73L10.1203 10.6937L10.1494 10.6742L10.2859 10.6267V10.4984L10.3324 10.451L10.3905 10.2361L10.3614 10.1524L10.4979 9.83709V9.78965V9.64177H10.5647L10.6432 9.53016L10.739 9.50225L10.7506 9.39901L10.8842 9.24276L10.9423 9.27066L11.2154 9.17579L11.2444 9.14789L11.3025 9.09208L11.2822 9H11.3402L11.3693 9.14789L11.6685 9.21485L11.7178 9.16742L11.7382 9.17579L11.9996 9.23159L12.0083 9.22322L12.1448 9.14789L12.1535 9.23159L12.2697 9.24276L12.3656 9.3153L12.3859 9.33484L12.5311 9.45482L12.7054 9.46598L12.8129 9.48272L12.9465 9.43808L12.9581 9.52179L13.0162 9.55806L13.0627 9.47435H13.1207L13.1614 9.6892L13.2079 9.69757L13.1992 9.77291L13.1905 9.78128H13.2079L13.3241 9.72548L13.4315 9.6892L13.7307 9.78966L13.7888 9.77291L13.8091 9.87336L13.8876 9.88453L13.8672 9.83709H13.934L13.9544 9.94033L14.0328 9.85662L14.2158 9.96823L14.2651 10.1719L14.1867 10.1915L14.2071 10.3477L14.2361 10.3952L14.4394 10.889L14.3319 10.9811L14.3232 11.0927L14.2361 11.196L14.332 11.2601L14.2942 11.288L14.3813 11.3718L14.5149 11.3913L14.5556 11.4471L14.5934 11.5196L14.6892 11.5587L14.8054 11.4834L14.8838 11.4917L14.788 11.6229L14.8838 11.8656L14.7676 11.9577L14.817 12.1056L14.788 12.2367L14.8461 12.3121L15 12.34L14.8461 12.5437L14.8751 12.58L14.9129 12.619L14.8461 12.7195L14.9129 12.7585L14.573 13.0264L14.6515 13.2134L14.6311 13.325L14.5149 13.3612L14.4859 13.4561L14.3523 13.5119L14.3116 13.6319L14.2826 13.6961L14.4191 13.763L14.2158 13.7798L14.2651 13.883L14.1664 13.9751L14.0124 14.003L13.9631 14.0867L14.0793 14.1425L13.8585 14.3378L13.9253 14.4411L13.751 14.4048L13.5564 14.5164L13.295 14.6364L13.2369 14.7201L13.1992 14.6922L13.2369 14.6085L13.0627 14.6727L13.0249 14.6085L12.7635 14.7564L12.6473 14.7201L12.4353 14.7564L12.3772 14.7285M12.3859 9.33484L12.3656 9.3153L12.3568 9.31531V9.32647H12.3772L12.3859 9.33484ZM8.24108 10.8611L8.2527 10.7942L8.14523 10.73L8.24108 10.8611Z" fill="white"/>
<path d="M20 6L20 18L4 18L4 6L20 6ZM20 5L4 5C3.4 5 3 5.4 3 6L3 18C3 18.6 3.4 19 4 19L20 19C20.6 19 21 18.6 21 18L21 6C21 5.4 20.6 5 20 5Z" fill="#B5B5B5"/>
</svg>
