<svg width="24" height="24" viewBox="0 0 24 24" fill="none" xmlns="http://www.w3.org/2000/svg">
<path d="M20 6H4V18H20V6Z" fill="white"/>
<path d="M20 6H4V11H20V6Z" fill="black"/>
<path d="M8.52148 10.6943L11.9997 9.94531V11.4433L8.52148 10.6943Z" fill="#FCD116"/>
<path d="M20 11H4V13H20V11Z" fill="#0072C6"/>
<path d="M4 6V18H12" fill="#CE1126"/>
<path d="M20 6V18H12" fill="#CE1126"/>
<path d="M20 6L20 18L4 18L4 6L20 6ZM20 5L4 5C3.4 5 3 5.4 3 6L3 18C3 18.6 3.4 19 4 19L20 19C20.6 19 21 18.6 21 18L21 6C21 5.4 20.6 5 20 5Z" fill="none"/>
<g clip-path="url(#clip0_14099_112202)">
<path fill-rule="evenodd" clip-rule="evenodd" d="M3.05469 6H20.9445V17.9883H3.05469V6Z" fill="white"/>
<path fill-rule="evenodd" clip-rule="evenodd" d="M3.09414 6.01404H20.9277V11.0789H3.0918L3.09414 6.01404Z" fill="black"/>
<path fill-rule="evenodd" clip-rule="evenodd" d="M6.36621 10.7625H18.2021V13.4297H6.36621V10.7625Z" fill="#0061FF"/>
<path fill-rule="evenodd" clip-rule="evenodd" d="M20.9326 6.0422V18H12.0076L20.9326 6.03986V6.0422ZM3.08496 6.0422V18H12.0076L3.08496 6.03986V6.0422Z" fill="#E20000"/>
<path fill-rule="evenodd" clip-rule="evenodd" d="M16.1891 10.7648L14.3984 10.3125L15.9195 9.16405L14.0516 9.43124L15.0125 7.80233L13.3555 8.76327L13.6555 6.86718L12.5328 8.36249L12.0805 6.62811L11.5719 8.41639L10.4516 6.89296L10.7727 8.84296L9.11328 7.82811L10.0742 9.45702L8.26016 9.16405L9.75547 10.2844L7.88281 10.7648H16.1867H16.1891Z" fill="#FFD600"/>
</g>
<defs>
<clipPath id="clip0_14099_112202">
<rect width="16" height="12" fill="white" transform="translate(4 6)"/>
</clipPath>
</defs>
</svg>
