<svg width="24" height="24" viewBox="0 0 24 24" fill="none" xmlns="http://www.w3.org/2000/svg">
<path d="M4 6H20V18H4V6Z" fill="#4189DD"/>
<path d="M4 14H20V14.6667H4V15.3333H20V16H4V14Z" fill="#F9D616"/>
<path d="M7.08301 8.2487L6.66634 6.89844L6.24967 8.2487L4.89941 8.66536L6.24967 9.08203L6.66634 10.4323L7.08301 9.08203L8.43327 8.66536L7.08301 8.2487Z" fill="#D21034" stroke="white" stroke-width="0.2" stroke-miterlimit="10"/>
<path d="M20 6L20 18L4 18L4 6L20 6ZM20 5L4 5C3.4 5 3 5.4 3 6L3 18C3 18.6 3.4 19 4 19L20 19C20.6 19 21 18.6 21 18L21 6C21 5.4 20.6 5 20 5Z" fill="#B5B5B5"/>
</svg>
