<svg width="24" height="24" viewBox="0 0 24 24" fill="none" xmlns="http://www.w3.org/2000/svg">
<path d="M20 6H4V18H20V6Z" fill="#3F9C35"/>
<path d="M20 6H4V14H20V6Z" fill="#ED2939"/>
<path d="M20 6H4V10H20V6Z" fill="#00B9E4"/>
<path d="M12.6996 13.25C13.4452 13.25 14.0496 12.6456 14.0496 11.9C14.0496 11.1544 13.4452 10.55 12.6996 10.55C11.954 10.55 11.3496 11.1544 11.3496 11.9C11.3496 12.6456 11.954 13.25 12.6996 13.25Z" fill="white"/>
<path d="M13 12.95C13.6213 12.95 14.125 12.4463 14.125 11.825C14.125 11.2037 13.6213 10.7 13 10.7C12.3787 10.7 11.875 11.2037 11.875 11.825C11.875 12.4463 12.3787 12.95 13 12.95Z" fill="#ED2939"/>
<path d="M14.2002 11L14.3437 11.4035L14.7305 11.2197L14.5467 11.6065L14.9502 11.75L14.5467 11.8935L14.7305 12.2803L14.3437 12.0965L14.2002 12.5L14.0567 12.0965L13.6699 12.2803L13.8537 11.8935L13.4502 11.75L13.8537 11.6065L13.6699 11.2197L14.0567 11.4035L14.2002 11Z" fill="white"/>
<path d="M20 6L20 18L4 18L4 6L20 6ZM20 5L4 5C3.4 5 3 5.4 3 6L3 18C3 18.6 3.4 19 4 19L20 19C20.6 19 21 18.6 21 18L21 6C21 5.4 20.6 5 20 5Z" fill="#B5B5B5"/>
</svg>
