<svg width="24" height="24" viewBox="0 0 24 24" fill="none" xmlns="http://www.w3.org/2000/svg">
<path d="M20 6H4V18H20V6Z" fill="#006A4E"/>
<path d="M12.0004 15.4C13.9886 15.4 15.6004 13.7882 15.6004 11.8C15.6004 9.81179 13.9886 8.20001 12.0004 8.20001C10.0122 8.20001 8.40039 9.81179 8.40039 11.8C8.40039 13.7882 10.0122 15.4 12.0004 15.4Z" fill="#F42A41"/>
<path d="M20 6L20 18L4 18L4 6L20 6ZM20 5L4 5C3.4 5 3 5.4 3 6L3 18C3 18.6 3.4 19 4 19L20 19C20.6 19 21 18.6 21 18L21 6C21 5.4 20.6 5 20 5Z" fill="#B5B5B5"/>
</svg>
