<svg width="24" height="24" viewBox="0 0 24 24" fill="none" xmlns="http://www.w3.org/2000/svg">
<path d="M20 6H4V18H20V6Z" fill="#00267F"/>
<path d="M15 6H9V18H15V6Z" fill="#FFC726"/>
<path d="M12.9434 9C12.7961 9.54876 12.646 10.12 12.3248 10.5573C12.4245 10.5124 12.5989 10.4721 12.7111 10.476V12.7841L12.2341 12.8808C12.2171 12.8785 12.2115 12.8421 12.2115 12.7926C12.1656 12.0759 12.0415 11.4737 11.8988 10.8506C11.8886 10.7655 11.7079 10.4404 11.8472 10.4977C11.8642 10.5008 12.0506 10.6045 12.0211 10.555C11.7673 10.1958 11.3963 9.93731 11.036 9.86068C11.0043 9.84985 10.9856 9.87152 11.0139 9.92183C11.492 10.9272 11.892 12.1138 11.8886 13.5217C12.0744 13.5217 12.5247 13.3715 12.7111 13.3715V15H12.9462L13 10.452L12.9434 9Z" fill="black"/>
<path d="M20 6L20 18L4 18L4 6L20 6ZM20 5L4 5C3.4 5 3 5.4 3 6L3 18C3 18.6 3.4 19 4 19L20 19C20.6 19 21 18.6 21 18L21 6C21 5.4 20.6 5 20 5Z" fill="#B5B5B5"/>
</svg>
