<svg width="24" height="24" viewBox="0 0 24 24" fill="none" xmlns="http://www.w3.org/2000/svg">
<path d="M20 6H4V18H20V6Z" fill="#C8313E"/>
<path d="M20 14H4V18H20V14Z" fill="#4AA657"/>
<path d="M7 6H4V18H7V6Z" fill="white"/>
<path fill-rule="evenodd" clip-rule="evenodd" d="M4.46377 6H4.81159V6.19672H4.92754V6.39344H5.04348V6.59016H5.15942V6.78689H5.27536V6.98361H5.15942V7.18033H5.04348V7.37705H4.92754V7.57377H4.81159V7.77049H4.69565V7.96721H4.57971V7.77049H4.46377V7.57377H4.34783V7.37705H4.23188V7.18033H4.11594V6.98361H4V6.78689H4.11594V6.59016H4.23188V6.39344H4.34783V6.19672H4.46377V6ZM4.57971 6.39344H4.69565V6.59016H4.81159V6.78689H4.92754V6.98361H4.81159V7.18033H4.69565V7.37705H4.57971V7.18033H4.46377V6.98361H4.34783V6.78689H4.46377V6.59016H4.57971V6.39344ZM4.57971 6.78689H4.69565V6.98361H4.57971V6.78689ZM4 6.19672H4.11594V6.39344H4V6.19672ZM4 7.37705H4.11594V7.57377H4V7.37705ZM5.27536 6H5.34493V6.39344H5.27536V6ZM5.27536 7.37705H5.34493V7.77049H5.27536V7.37705ZM4.23188 7.77049H4.34783V7.96721H4.46377V8.16393H4.57971V8.36066H4.46377V8.55738H4.34783V8.7541H4.23188V8.55738H4.11594V8.36066H4V8.16393H4.11594V7.96721H4.23188V7.77049ZM4.23188 8.16393H4.34783V8.36066H4.23188V8.16393ZM4.92754 7.77049H5.04348V7.96721H5.15942V8.16393H5.27536V8.36066H5.15942V8.55738H5.04348V8.7541H4.92754V8.55738H4.81159V8.36066H4.69565V8.16393H4.81159V7.96721H4.92754V7.77049ZM4.92754 8.16393H5.04348V8.36066H4.92754V8.16393ZM4 8.95082H4.11594V9.14754H4V8.95082ZM5.27536 8.7541H5.34493V9.14754H5.27536V8.7541Z" fill="#C8313E"/>
<path fill-rule="evenodd" clip-rule="evenodd" d="M4 9.54092H4.11594V9.3442H4.23188V9.14748H4.34783V8.95075H4.46377V8.75403H4.57971V8.55731H4.69565V8.75403H4.81159V8.95075H4.92754V9.14748H5.04348V9.3442H5.15942V9.54092H5.27536V9.73764H5.34493V10.5245H5.27536V10.7212H5.15942V10.918H5.04348V11.1147H4.92754V11.3114H4.81159V11.5081H4.69565V12.0196H4.46377V11.9016H4.34783V11.7049H4.23188V11.5081H4.11594V11.3114H4V10.7212H4.11594V10.918H4.23188V11.1147H4.34783V11.3114H4.46377V11.1147H4.57971V10.918H4.69565V10.7212H4.81159V10.5245H4.92754V10.3278H5.04348V10.1311H4.92754V9.93436H4.81159V9.73764H4.46377V9.93436H4.69565V10.1311H4.57971V10.3278H4.46377V10.5245H4.34783V10.3278H4.23188V10.1311H4.11594V9.93436H4V9.54092ZM4 10.3278H4.11594V10.5245H4V10.3278ZM5.27536 10.918H5.34493V11.1147H5.27536V10.918ZM5.04348 11.3114H5.15942V11.5081H5.27536V11.7049H5.34493V12.0196H5.27536V11.9016H5.15942V11.7049H5.04348V11.3114ZM4.81159 11.9016H4.92754V12.0196H4.81159V11.9016Z" fill="#C8313E"/>
<path d="M20 6L20 18L4 18L4 6L20 6ZM20 5L4 5C3.4 5 3 5.4 3 6L3 18C3 18.6 3.4 19 4 19L20 19C20.6 19 21 18.6 21 18L21 6C21 5.4 20.6 5 20 5Z" fill="none"/>
<g clip-path="url(#clip0_14099_112460)">
<path fill-rule="evenodd" clip-rule="evenodd" d="M4 6H28.0026V13.9711H4V6Z" fill="#B20000"/>
<path fill-rule="evenodd" clip-rule="evenodd" d="M4 13.9711H28.0026V18H4V13.9711Z" fill="#429F00"/>
<path fill-rule="evenodd" clip-rule="evenodd" d="M4 6H6.6581V18H4V6Z" fill="white"/>
<path fill-rule="evenodd" clip-rule="evenodd" d="M4.12695 6.20391H4.25353V6.40781H4.12695V6.20391ZM4.50668 6.20391H4.88641V6.40781H4.50668V6.20391ZM4.63326 6H4.75983V6.20391H4.63326V6ZM5.26614 6H5.39271V6.20391H5.26614V6ZM5.77244 6.20391H6.15217V6.40781H5.77244V6.20391ZM5.89902 6H6.02559V6.20391H5.89902V6ZM4.38011 6.40781H4.63326V6.60938H4.38011V6.40781ZM4.75983 6.40781H5.01299V6.60938H4.75983V6.40781ZM5.64587 6.40781H5.89902V6.60938H5.64587V6.40781ZM6.02559 6.40781H6.27875V6.60938H6.02559V6.40781ZM4.25353 6.60938H4.50668V6.81328H4.25353V6.60938ZM4.88641 6.60938H5.13956V6.81328H4.88641V6.60938ZM5.51929 6.60938H5.77244V6.81328H5.51929V6.60938ZM6.15217 6.60938H6.40532V6.81328H6.15217V6.60938ZM6.40532 6.20391H6.5319V6.40781H6.40532V6.20391ZM4.12695 6.81328H4.38011V7.01719H4.12695V6.81328ZM5.01299 6.81328H5.26614V7.01719H5.01299V6.81328ZM6.27875 6.81328H6.5319V7.01719H6.27875V6.81328ZM4.25353 7.42266H4.50668V7.62656H4.25353V7.42266ZM4.38011 7.62656H4.63326V7.83047H4.38011V7.62656ZM4.88641 7.425H5.13956V7.62656H4.88641V7.425ZM4.75983 7.62656H5.01299V7.83047H4.75983V7.62656ZM4.50668 7.83047H4.88641V8.03438H4.50668V7.83047Z" fill="#B20000"/>
<path fill-rule="evenodd" clip-rule="evenodd" d="M4.63288 8.03436H4.75946V8.23827H4.63288V8.03436ZM5.51891 7.42499H5.77206V7.62655H5.51891V7.42499ZM5.64549 7.62655H5.89864V7.83046H5.64549V7.62655ZM6.15179 7.42499H6.40494V7.62655H6.15179V7.42499ZM6.02522 7.62655H6.27837V7.83046H6.02522V7.62655ZM5.77206 7.83046H6.15179V8.03436H5.77206V7.83046ZM5.89864 8.03436H6.02522V8.23827H5.89864V8.03436ZM5.26576 7.82811H5.39234V8.03202H5.26576V7.82811ZM4 7.82811H4.12658V8.03202H4V7.82811ZM6.53152 7.82811H6.6581V8.03202H6.53152V7.82811ZM4.63288 8.8453H4.75946V9.04921H4.63288V8.8453ZM4.5063 9.05155H4.88603V9.25311H4.5063V9.05155ZM4.37973 9.25311H5.01261V9.45702H4.37973V9.25311ZM5.89864 8.84764H6.02522V9.05155H5.89864V8.84764ZM5.77206 9.05155H6.15179V9.25311H5.77206V9.05155ZM5.64549 9.25311H6.27837V9.45702H5.64549V9.25311ZM5.77206 10.2703H6.40494V10.4742H5.77206V10.2703ZM5.51891 9.45702H6.40494V9.66093H5.51891V9.45702ZM4.25315 9.45702H5.13918V9.66093H4.25315V9.45702ZM4.37973 10.4742H4.75946V10.6781H4.37973V10.4742ZM4.25315 10.2703H4.88603V10.4742H4.25315V10.2703ZM6.02522 9.86718H6.6581V10.0711H6.02522V9.86718ZM5.89864 10.4766H6.27837V10.6805H5.89864V10.4766Z" fill="#B20000"/>
<path fill-rule="evenodd" clip-rule="evenodd" d="M4.5063 10.6781H4.63288V10.882H4.5063V10.6781ZM6.02522 10.6781H6.15179V10.882H6.02522V10.6781ZM4 9.86486H4.63288V10.0688H4V9.86486ZM5.13918 10.2703H5.51891V10.4742H5.13918V10.2703ZM5.26576 10.4766H5.39234V10.6805H5.26576V10.4766ZM4.88603 9.8672H5.77206V10.0711H4.88603V9.8672ZM5.39234 6.81329H5.64549V7.0172H5.39234V6.81329ZM5.13918 7.0172H5.51891V7.22111H5.13918V7.0172ZM5.01261 7.22111H5.26576V7.42267H5.01261V7.22111ZM5.39234 7.22111H5.64549V7.42267H5.39234V7.22111ZM4 7.0172H4.25315V7.22111H4V7.0172ZM4.12658 7.22111H4.37973V7.42267H4.12658V7.22111ZM6.40494 7.0172H6.6581V7.21876H6.40494V7.0172ZM6.27837 7.21876H6.53152V7.42032H6.27837V7.21876ZM4 9.04689H4.12658V9.25079H4V9.04689ZM6.53152 9.04689H6.6581V9.25079H6.53152V9.04689ZM5.13918 10.6758H5.51891V10.8797H5.13918V10.6758ZM5.01261 10.8797H5.26576V11.0813H5.01261V10.8797ZM5.39234 10.8797H5.64549V11.0813H5.39234V10.8797ZM4.88603 11.0813H5.13918V11.2852H4.88603V11.0813ZM5.51891 11.0813H5.77206V11.2852H5.51891V11.0813ZM4.75946 11.2852H5.01261V11.4891H4.75946V11.2852ZM5.64549 11.2852H5.89864V11.4891H5.64549V11.2852ZM4.63288 11.4914H4.88603V11.6953H4.63288V11.4914ZM5.77206 11.4914H6.02522V11.6953H5.77206V11.4914ZM4.37973 11.6953H4.75946V11.8992H4.37973V11.6953ZM5.89864 11.6953H6.27837V11.8992H5.89864V11.6953ZM6.15179 11.4914H6.40494V11.6953H6.15179V11.4914ZM6.27837 11.2875H6.53152V11.4914H6.27837V11.2875ZM6.40494 11.0836H6.6581V11.2875H6.40494V11.0836ZM4.25315 11.4914H4.5063V11.6953H4.25315V11.4914ZM4.12658 11.2875H4.37973V11.4914H4.12658V11.2875ZM4 11.0859H4.25315V11.2899H4V11.0859ZM4.5063 11.9016H4.63288V12.1031H4.5063V11.9016ZM6.02522 11.9016H6.15179V12.1031H6.02522V11.9016ZM5.26576 11.2922H5.39234V11.4938H5.26576V11.2922ZM4.88603 11.9016H5.01261V12.1031H4.88603V11.9016ZM5.64549 11.9016H5.77206V12.1031H5.64549V11.9016ZM5.26576 11.9016H5.39234V12.1031H5.26576V11.9016ZM4 11.9016H4.12658V12.1031H4V11.9016ZM6.53152 11.9016H6.6581V12.1031H6.53152V11.9016ZM5.26576 9.05157H5.39234V9.25314H5.26576V9.05157ZM4.63288 7.0172H4.75946V7.22111H4.63288V7.0172ZM5.89864 7.0172H6.02522V7.22111H5.89864V7.0172ZM5.13918 8.43986H5.51891V8.64376H5.13918V8.43986ZM4.88603 8.64376H5.26576V8.84767H4.88603V8.64376ZM5.01261 8.84767H5.13918V9.05157H5.01261V8.84767ZM4.75946 8.43986H5.01261V8.64376H4.75946V8.43986ZM4.88603 8.23829H5.26576V8.43986H4.88603V8.23829ZM5.01261 8.03439H5.13918V8.23829H5.01261V8.03439ZM5.39234 8.23829H5.77206V8.43986H5.39234V8.23829ZM5.51891 8.03439H5.64549V8.23829H5.51891V8.03439ZM5.64549 8.43986H5.89864V8.64376H5.64549V8.43986ZM5.39234 8.64376H5.77206V8.84767H5.39234V8.64376ZM5.51891 8.84767H5.64549V9.05157H5.51891V8.84767ZM6.02522 8.43986H6.27837V8.64376H6.02522V8.43986ZM6.15179 8.23829H6.53152V8.43986H6.15179V8.23829ZM6.40494 8.43986H6.6581V8.64376H6.40494V8.43986ZM6.15179 8.64376H6.53152V8.84767H6.15179V8.64376ZM6.27837 8.84767H6.40494V9.05157H6.27837V8.84767ZM6.27837 8.03439H6.40494V8.23829H6.27837V8.03439ZM4 8.43751H4.25315V8.64142H4V8.43751ZM4.12658 8.23595H4.5063V8.43751H4.12658V8.23595ZM4.37973 8.43751H4.63288V8.64142H4.37973V8.43751ZM4.12658 8.64142H4.5063V8.84532H4.12658V8.64142Z" fill="#B20000"/>
<path fill-rule="evenodd" clip-rule="evenodd" d="M4.25315 8.84764H4.37973V9.05155H4.25315V8.84764ZM4.25315 8.03436H4.37973V8.23827H4.25315V8.03436ZM4.12658 9.66093H4.63288V9.86483H4.12658V9.66093ZM4.75946 9.66093H5.26576V9.86483H4.75946V9.66093ZM5.39234 9.66093H5.89864V9.86483H5.39234V9.66093ZM6.02522 9.66093H6.53152V9.86483H6.02522V9.66093ZM5.01261 10.0687H5.64549V10.2703H5.01261V10.0687ZM4.12658 10.0687H4.75946V10.2703H4.12658V10.0687ZM5.89864 10.0687H6.53152V10.2703H5.89864V10.0687ZM6.53152 10.882H6.6581V11.0836H6.53152V10.882ZM4 10.882H4.12658V11.0836H4V10.882ZM4.12658 17.7961H4.25315V17.5945H4.12658V17.7961ZM4.5063 17.7961H4.88603V17.5945H4.5063V17.7961ZM4.63288 18H4.75946V17.7961H4.63288V18ZM5.26576 18H5.39234V17.7961H5.26576V18ZM5.77206 17.7961H6.15179V17.5922H5.77206V17.7961ZM5.89864 18H6.02522V17.7961H5.89864V18ZM4.37973 17.5922H4.63288V17.3906H4.37973V17.5922ZM4.75946 17.5922H5.01261V17.3906H4.75946V17.5922ZM5.64549 17.5922H5.89864V17.3906H5.64549V17.5922ZM6.02522 17.5922H6.27837V17.3906H6.02522V17.5922ZM4.88603 17.3906H5.13918V17.1867H4.88603V17.3906ZM5.51891 17.3906H5.77206V17.1867H5.51891V17.3906ZM6.15179 17.3906H6.40494V17.1867H6.15179V17.3906ZM6.40494 17.7961H6.53152V17.5922H6.40494V17.7961ZM4.12658 17.1867H4.37973V16.9828H4.12658V17.1867ZM5.01261 17.1867H5.26576V16.9828H5.01261V17.1867ZM6.27837 17.1867H6.53152V16.9828H6.27837V17.1867ZM4.25315 16.5773H4.5063V16.3734H4.25315V16.5773ZM4.37973 16.3734H4.63288V16.1695H4.37973V16.3734ZM4.88603 16.5773H5.13918V16.3734H4.88603V16.5773ZM4.75946 16.3734H5.01261V16.1695H4.75946V16.3734ZM4.5063 16.1695H4.88603V15.9656H4.5063V16.1695ZM4.63288 15.9656H4.75946V15.7641H4.63288V15.9656ZM5.51891 16.575H5.77206V16.3734H5.51891V16.575ZM5.64549 16.3734H5.89864V16.1695H5.64549V16.3734ZM6.15179 16.5773H6.40494V16.3734H6.15179V16.5773ZM6.02522 16.3734H6.27837V16.1695H6.02522V16.3734ZM5.77206 16.1695H6.15179V15.9656H5.77206V16.1695ZM5.89864 15.9656H6.02522V15.7641H5.89864V15.9656ZM5.26576 16.1719H5.39234V15.968H5.26576V16.1719ZM4 16.1719H4.12658V15.968H4V16.1719ZM6.53152 16.1719H6.6581V15.968H6.53152V16.1719ZM4.63288 15.1547H4.75946V14.9508H4.63288V15.1547ZM4.5063 14.9484H4.88603V14.7469H4.5063V14.9484ZM4.37973 14.7469H5.01261V14.543H4.37973V14.7469ZM5.89864 15.1523H6.02522V14.9484H5.89864V15.1523Z" fill="#B20000"/>
<path fill-rule="evenodd" clip-rule="evenodd" d="M5.77206 14.9484H6.15179V14.7469H5.77206V14.9484ZM5.64549 14.7469H6.27837V14.5429H5.64549V14.7469ZM5.77206 13.7297H6.40494V13.5234H5.77206V13.7297ZM5.51891 14.5429H6.40494V14.339H5.51891V14.5429ZM4.25315 14.5429H5.13918V14.339H4.25315V14.5429ZM4.37973 13.5258H4.75946V13.3219H4.37973V13.5258ZM4.25315 13.7297H4.88603V13.5234H4.25315V13.7297ZM6.02522 14.1328H6.6581V13.9289H6.02522V14.1328ZM5.89864 13.5234H6.27837V13.3195H5.89864V13.5234ZM4 14.1328H4.63288V13.9289H4V14.1328ZM5.13918 13.7273H5.51891V13.5234H5.13918V13.7273ZM5.26576 13.5234H5.39234V13.3195H5.26576V13.5234ZM4.88603 14.1328H5.77206V13.9289H4.88603V14.1328ZM5.39234 17.1844H5.64549V16.9804H5.39234V17.1844ZM5.13918 16.9804H5.51891V16.7812H5.13918V16.9804ZM5.01261 16.7765H5.26576V16.5726H5.01261V16.7765ZM5.39234 16.7765H5.64549V16.5726H5.39234V16.7765ZM4 16.9828H4.25315V16.7812H4V16.9828ZM4.12658 16.7789H4.37973V16.5773H4.12658V16.7789ZM6.40494 16.9828H6.6581V16.7812H6.40494V16.9828ZM6.27837 16.7789H6.53152V16.5773H6.27837V16.7789ZM4 14.9531H4.12658V14.7492H4V14.9531ZM6.53152 14.9531H6.6581V14.7492H6.53152V14.9531ZM5.01261 13.1203H5.26576V12.9187H5.01261V13.1203ZM5.39234 13.1203H5.64549V12.9187H5.39234V13.1203ZM4.88603 12.9187H5.13918V12.7148H4.88603V12.9187ZM5.51891 12.9187H5.77206V12.7148H5.51891V12.9187ZM4.75946 12.7148H5.01261V12.5109H4.75946V12.7148ZM5.64549 12.7148H5.89864V12.5109H5.64549V12.7148ZM4.63288 12.5086H4.88603V12.3047H4.63288V12.5086ZM5.77206 12.5086H6.02522V12.3047H5.77206V12.5086ZM4.37973 12.3047H4.75946V12.1008H4.37973V12.3047ZM5.89864 12.3047H6.27837V12.1008H5.89864V12.3047ZM6.15179 12.5086H6.40494V12.3047H6.15179V12.5086ZM6.27837 12.7125H6.53152V12.5086H6.27837V12.7125ZM6.40494 12.9164H6.6581V12.7125H6.40494V12.9164ZM4.25315 12.5086H4.5063V12.3047H4.25315V12.5086ZM4.12658 12.7125H4.37973V12.5086H4.12658V12.7125ZM4 12.914H4.25315V12.7101H4V12.914ZM4.5063 12.0984H4.63288V11.8969H4.5063V12.0984ZM5.26576 12.7078H5.39234V12.5062H5.26576V12.7078ZM5.26576 14.9461H5.39234V14.7445H5.26576V14.9461ZM4.63288 16.9804H4.75946V16.7812H4.63288V16.9804ZM5.89864 16.9804H6.02522V16.7812H5.89864V16.9804ZM5.13918 15.5625H5.51891V15.3586H5.13918V15.5625ZM4.88603 15.3586H5.26576V15.1547H4.88603V15.3586ZM5.01261 15.1547H5.13918V14.9508H5.01261V15.1547ZM4.75946 15.5625H5.01261V15.3586H4.75946V15.5625ZM4.88603 15.7617H5.26576V15.5625H4.88603V15.7617ZM5.01261 15.9656H5.13918V15.764H5.01261V15.9656ZM5.39234 15.7617H5.77206V15.5625H5.39234V15.7617ZM5.51891 15.9656H5.64549V15.764H5.51891V15.9656ZM5.64549 15.5601H5.89864V15.3562H5.64549V15.5601ZM5.39234 15.3562H5.77206V15.1523H5.39234V15.3562ZM5.51891 15.1523H5.64549V14.9484H5.51891V15.1523ZM6.02522 15.5625H6.27837V15.3586H6.02522V15.5625ZM6.15179 15.7617H6.53152V15.5625H6.15179V15.7617ZM6.40494 15.5601H6.6581V15.3562H6.40494V15.5601ZM6.15179 15.3562H6.53152V15.1523H6.15179V15.3562ZM6.27837 15.1523H6.40494V14.9484H6.27837V15.1523ZM6.27837 15.9656H6.40494V15.764H6.27837V15.9656ZM4 15.5625H4.25315V15.3586H4V15.5625ZM4.12658 15.7617H4.5063V15.5625H4.12658V15.7617Z" fill="#B20000"/>
<path fill-rule="evenodd" clip-rule="evenodd" d="M4.37973 15.5602H4.63288V15.3563H4.37973V15.5602ZM4.12658 15.3563H4.5063V15.1523H4.12658V15.3563ZM4.25315 15.1523H4.37973V14.9484H4.25315V15.1523ZM4.25315 15.9656H4.37973V15.7641H4.25315V15.9656ZM4.12658 14.3391H4.63288V14.1352H4.12658V14.3391ZM4.75946 14.3391H5.26576V14.1352H4.75946V14.3391ZM5.39234 14.3391H5.89864V14.1352H5.39234V14.3391ZM6.02522 14.3391H6.53152V14.1352H6.02522V14.3391ZM5.01261 13.9312H5.64549V13.7297H5.01261V13.9312ZM4.12658 13.9312H4.75946V13.7297H4.12658V13.9312ZM5.89864 13.9312H6.53152V13.7297H5.89864V13.9312ZM6.53152 13.1203H6.6581V12.9141H6.53152V13.1203ZM4 13.1203H4.12658V12.9141H4V13.1203ZM5.13918 12.1008H5.26576V12.3047H5.13918V12.1008ZM5.39234 12.1008H5.51891V12.3047H5.39234V12.1008ZM5.39234 11.6953H5.51891V11.8992H5.39234V11.6953ZM5.13918 11.6953H5.26576V11.8992H5.13918V11.6953ZM4.25315 17.1867H4.5063V17.3906H4.25315V17.1867ZM6.02522 13.3219H6.15179V13.118H6.02522V13.3219ZM4.5063 13.3219H4.63288V13.118H4.5063V13.3219ZM5.13918 13.118H5.51891V13.3219H5.13918V13.118Z" fill="#B20000"/>
</g>
<defs>
<clipPath id="clip0_14099_112460">
<rect width="16" height="12" fill="white" transform="translate(4 6)"/>
</clipPath>
</defs>
</svg>
