<svg width="24" height="24" viewBox="0 0 24 24" fill="none" xmlns="http://www.w3.org/2000/svg">
<path d="M20 6H4V18H20V6Z" fill="#009B3A"/>
<path d="M4 12L11.5 17L19 12L11.5 7L4 12Z" fill="#FEDF00"/>
<path d="M12 15C13.6569 15 15 13.6569 15 12C15 10.3431 13.6569 9 12 9C10.3431 9 9 10.3431 9 12C9 13.6569 10.3431 15 12 15Z" fill="#002776"/>
<path d="M3 18C3 16.1435 3.7375 14.363 5.05025 13.0503C6.36301 11.7375 8.14349 11 10 11C11.8565 11 13.637 11.7375 14.9497 13.0503C16.2625 14.363 17 16.1435 17 18H16.5882C16.5882 16.2527 15.8941 14.5769 14.6586 13.3414C13.4231 12.1059 11.7473 11.4118 10 11.4118C8.25269 11.4118 6.57695 12.1059 5.34141 13.3414C4.10588 14.5769 3.41176 16.2527 3.41176 18H3Z" fill="white"/>
<path fill-rule="evenodd" clip-rule="evenodd" d="M9.14639 11.3147C9.18117 11.3122 9.21337 11.2948 9.2359 11.2663C9.25842 11.2378 9.26944 11.2006 9.26651 11.1628C9.26358 11.125 9.24696 11.0898 9.22029 11.0648C9.19363 11.0399 9.15911 11.0273 9.12432 11.0298C9.08954 11.0323 9.05734 11.0497 9.03481 11.0782C9.01228 11.1066 9.00127 11.1439 9.0042 11.1817C9.00712 11.2195 9.02375 11.2547 9.05041 11.2797C9.07708 11.3046 9.1116 11.3172 9.14639 11.3147ZM9.14229 11.2618C9.16272 11.2603 9.18158 11.2495 9.19472 11.2316C9.20787 11.2138 9.21422 11.1905 9.21238 11.1667C9.21054 11.1429 9.20066 11.1208 9.18492 11.105C9.16917 11.0892 9.14885 11.0812 9.12842 11.0827C9.10799 11.0841 9.08913 11.095 9.07598 11.1128C9.06284 11.1307 9.05649 11.154 9.05832 11.1778C9.06016 11.2015 9.07004 11.2237 9.08579 11.2395C9.10154 11.2552 9.12186 11.2633 9.14229 11.2618Z" fill="#009B3A"/>
<path fill-rule="evenodd" clip-rule="evenodd" d="M9.75613 11.2955L9.89386 11.2997C9.91031 11.3002 9.92668 11.2975 9.94206 11.2918C9.95743 11.2862 9.97151 11.2776 9.98347 11.2666C9.99544 11.2556 10.0051 11.2423 10.0118 11.2277C10.0185 11.213 10.0223 11.1972 10.0227 11.1811L10.0239 11.1403C10.0244 11.1243 10.0217 11.1083 10.0158 11.0932C10.01 11.0782 10.0011 11.0644 9.98986 11.0527C9.97857 11.0409 9.96503 11.0315 9.95002 11.0249C9.93502 11.0183 9.91883 11.0146 9.90239 11.0141L9.76465 11.0099L9.75613 11.2955ZM9.81197 11.2441L9.89127 11.2465C9.9123 11.2472 9.93272 11.2396 9.94803 11.2255C9.96333 11.2115 9.97227 11.192 9.97289 11.1714L9.97362 11.147C9.97423 11.1264 9.96647 11.1064 9.95203 11.0914C9.93759 11.0764 9.91766 11.0677 9.89663 11.067L9.81733 11.0646L9.81197 11.2441Z" fill="#009B3A"/>
<path d="M10.1276 11.3122L10.3898 11.3337L10.3942 11.2808L10.1819 11.2634L10.188 11.1902L10.3545 11.2038L10.3586 11.155L10.1921 11.1414L10.1969 11.0844L10.3967 11.1008L10.4011 11.0479L10.1514 11.0275L10.1276 11.3122Z" fill="#009B3A"/>
<path d="M10.4971 11.3457L10.5468 11.3524L10.5735 11.1582L10.6047 11.3601L10.6502 11.3662L10.7349 11.1798L10.7082 11.3739L10.7578 11.3806L10.7968 11.0975L10.7244 11.0878L10.6397 11.2742L10.6086 11.0723L10.5361 11.0626L10.4971 11.3457Z" fill="#009B3A"/>
<path d="M11.0987 11.4406L11.3128 11.4871L11.3236 11.4393L11.1584 11.4034L11.1728 11.3397L11.3073 11.3689L11.3181 11.3211L11.1836 11.2919L11.1934 11.248L11.3535 11.2828L11.3643 11.235L11.1553 11.1896L11.0987 11.4406Z" fill="#009B3A"/>
<path fill-rule="evenodd" clip-rule="evenodd" d="M11.6481 11.5718L11.6999 11.5875L11.732 11.4862L11.8437 11.5202C11.867 11.5273 11.8922 11.525 11.9137 11.514C11.9353 11.5029 11.9514 11.4839 11.9586 11.4611C11.9658 11.4384 11.9634 11.4138 11.9521 11.3927C11.9407 11.3716 11.9212 11.3558 11.8979 11.3487L11.7384 11.3002L11.6481 11.5718ZM11.748 11.4355L11.8557 11.4683C11.8653 11.4712 11.8756 11.4703 11.8844 11.4658C11.8932 11.4612 11.8998 11.4535 11.9027 11.4442C11.9057 11.4349 11.9047 11.4248 11.9001 11.4162C11.8954 11.4075 11.8875 11.4011 11.8779 11.3982L11.7702 11.3654L11.748 11.4355Z" fill="#009B3A"/>
<path fill-rule="evenodd" clip-rule="evenodd" d="M12.4708 11.8622C12.5028 11.8757 12.5396 11.8748 12.5731 11.8598C12.6066 11.8447 12.6339 11.8167 12.6492 11.7819C12.6644 11.7471 12.6663 11.7083 12.6544 11.6742C12.6425 11.64 12.6178 11.6133 12.5858 11.5998C12.5537 11.5863 12.5169 11.5872 12.4834 11.6023C12.45 11.6173 12.4226 11.6454 12.4073 11.6802C12.3921 11.715 12.3902 11.7537 12.4021 11.7878C12.414 11.822 12.4387 11.8487 12.4708 11.8622ZM12.4921 11.8135C12.511 11.8214 12.5328 11.8203 12.5529 11.8105C12.573 11.8006 12.5897 11.7828 12.5993 11.7609C12.6089 11.739 12.6106 11.7149 12.604 11.6938C12.5975 11.6727 12.5832 11.6565 12.5644 11.6485C12.5456 11.6406 12.5237 11.6417 12.5036 11.6516C12.4835 11.6614 12.4668 11.6793 12.4572 11.7012C12.4477 11.723 12.4459 11.7472 12.4525 11.7682C12.459 11.7893 12.4733 11.8056 12.4921 11.8135Z" fill="#009B3A"/>
<path d="M13.3444 12.3002L13.567 12.4376L13.5959 12.3928L13.4157 12.2816L13.4557 12.2195L13.5971 12.3067L13.6238 12.2653L13.4824 12.178L13.5135 12.1297L13.6832 12.2344L13.7121 12.1896L13.5 12.0587L13.3444 12.3002Z" fill="#009B3A"/>
<path d="M13.7635 12.4609C13.7467 12.4842 13.7613 12.5118 13.7954 12.5354C13.8295 12.5589 13.8535 12.5593 13.8644 12.5443C13.8987 12.4969 13.7174 12.4166 13.7784 12.3339C13.831 12.2628 13.9122 12.324 13.9429 12.3452C13.9737 12.3664 14.0221 12.4198 13.9797 12.4767L13.9277 12.4407C13.9457 12.4158 13.9284 12.3901 13.9011 12.3712C13.8747 12.3529 13.8529 12.3441 13.8354 12.3683C13.8063 12.4068 13.9837 12.4907 13.9242 12.5731C13.8803 12.6339 13.8104 12.6032 13.7643 12.5713C13.7251 12.5442 13.6675 12.4819 13.7097 12.4237L13.7635 12.4609Z" fill="#009B3A"/>
<path d="M14.0665 12.6782C14.0484 12.7006 14.0616 12.7289 14.0944 12.7542C14.1272 12.7795 14.1512 12.7811 14.1628 12.7667C14.1996 12.721 14.0229 12.6316 14.0882 12.5522C14.1445 12.4839 14.2224 12.5491 14.2519 12.5719C14.2815 12.5946 14.3269 12.6504 14.2816 12.7051L14.2315 12.6665C14.2509 12.6425 14.235 12.6159 14.2088 12.5957C14.1833 12.5761 14.162 12.5662 14.1433 12.5894C14.1122 12.6264 14.2848 12.7192 14.221 12.7985C14.1739 12.857 14.1057 12.8227 14.0614 12.7885C14.0237 12.7594 13.9695 12.6943 14.0148 12.6384L14.0665 12.6782Z" fill="#009B3A"/>
<path fill-rule="evenodd" clip-rule="evenodd" d="M14.347 13.0204C14.3733 13.0429 14.4086 13.0531 14.4452 13.0489C14.4818 13.0447 14.5167 13.0263 14.5422 12.9979C14.5678 12.9694 14.5818 12.9332 14.5813 12.8971C14.5807 12.8611 14.5657 12.8282 14.5394 12.8057C14.5132 12.7832 14.4779 12.7729 14.4413 12.7771C14.4046 12.7813 14.3697 12.7997 14.3442 12.8282C14.3187 12.8566 14.3047 12.8929 14.3052 12.9289C14.3057 12.965 14.3208 12.9978 14.347 13.0204ZM14.3828 12.9805C14.3982 12.9937 14.4193 12.9993 14.4416 12.996C14.4638 12.9927 14.4853 12.9807 14.5014 12.9629C14.5174 12.945 14.5267 12.9225 14.5271 12.9005C14.5275 12.8785 14.5191 12.8588 14.5037 12.8455C14.4883 12.8323 14.4671 12.8268 14.4449 12.8301C14.4226 12.8334 14.4011 12.8453 14.3851 12.8632C14.369 12.8811 14.3598 12.9035 14.3594 12.9255C14.3589 12.9475 14.3673 12.9673 14.3828 12.9805Z" fill="#009B3A"/>
<g clip-path="url(#clip0_14099_114012)">
<path fill-rule="evenodd" clip-rule="evenodd" d="M4 5.99945H20V17.9995H4V5.99945Z" fill="#229E45"/>
<path fill-rule="evenodd" clip-rule="evenodd" d="M12.0352 16.8994L19.5727 12.0069L11.9902 7.09943L4.42773 12.0169L12.0352 16.8994Z" fill="#F8E509"/>
<path fill-rule="evenodd" clip-rule="evenodd" d="M15.3202 11.9994C15.3202 13.7569 13.8927 15.1819 12.1302 15.1819C11.5004 15.181 10.885 14.9933 10.3618 14.6426C9.83864 14.2919 9.43119 13.794 9.19097 13.2118C8.95074 12.6295 8.88853 11.9892 9.01219 11.3716C9.13585 10.754 9.43983 10.187 9.88571 9.74217C10.3316 9.29734 10.8993 8.99469 11.5172 8.87248C12.1351 8.75028 12.7753 8.814 13.3569 9.05559C13.9386 9.29719 14.4355 9.70581 14.785 10.2298C15.1344 10.7538 15.3207 11.3696 15.3202 11.9994Z" fill="#2B49A3"/>
<path fill-rule="evenodd" clip-rule="evenodd" d="M11.0821 13.9069L10.9821 13.8494L10.8821 13.8994L10.9046 13.7869L10.8246 13.7019L10.9371 13.6894L10.9921 13.5894L11.0396 13.6944L11.1496 13.7144L11.0671 13.7894M13.2171 14.4469L13.1196 14.3894L13.0196 14.4394L13.0396 14.3269L12.9621 14.2444L13.0746 14.2319L13.1271 14.1294L13.1771 14.2344L13.2871 14.2544L13.2021 14.3319M12.2971 13.5819L12.2121 13.5319L12.1246 13.5769L12.1446 13.4794L12.0746 13.4069L12.1746 13.3969L12.2196 13.3069L12.2596 13.3994L12.3571 13.4169L12.2821 13.4844M14.4571 13.2719L14.3721 13.2219L14.2846 13.2669L14.3046 13.1694L14.2371 13.0994L14.3346 13.0894L14.3796 13.0019L14.4196 13.0919L14.5146 13.1094L14.4421 13.1744M12.2596 12.6244L12.1596 12.5694L12.0596 12.6194L12.0796 12.5044L12.0021 12.4219L12.1146 12.4094L12.1671 12.3069L12.2171 12.4119L12.3271 12.4319L12.2421 12.5119M9.62707 11.6369L9.52707 11.5819L9.42707 11.6319L9.45207 11.5169L9.36957 11.4344L9.48457 11.4219L9.53457 11.3194L9.58457 11.4244L9.69457 11.4444L9.61207 11.5219M9.94457 12.9519L9.84457 12.8944L9.74457 12.9444L9.76707 12.8319L9.68707 12.7494L9.79957 12.7344L9.85207 12.6344L9.90207 12.7394L10.0121 12.7594L9.92957 12.8369M13.2296 11.1544L13.1396 11.1044L13.0496 11.1494L13.0696 11.0494L12.9996 10.9744L13.0996 10.9619L13.1471 10.8719L13.1896 10.9669L13.2896 10.9844L13.2146 11.0519M13.0471 12.0094L12.9796 11.9694L12.9071 12.0044L12.9221 11.9244L12.8671 11.8669L12.9471 11.8569L12.9846 11.7869L13.0171 11.8619L13.0921 11.8744L13.0371 11.9294M9.48207 13.1894L9.41457 13.1519L9.34707 13.1844L9.36207 13.1094L9.30957 13.0544L9.38457 13.0444L9.41957 12.9769L9.45207 13.0469L9.52707 13.0619L9.46957 13.1119M14.4746 13.4944L14.4196 13.4669L14.3646 13.4919L14.3771 13.4344L14.3346 13.3944L14.3946 13.3869L14.4246 13.3369L14.4496 13.3869L14.5121 13.3994L14.4646 13.4369" fill="#FFFFEF"/>
<path fill-rule="evenodd" clip-rule="evenodd" d="M9.48207 13.1894L9.41457 13.1519L9.34707 13.1844L9.36207 13.1094L9.30957 13.0544L9.38457 13.0444L9.41957 12.9769L9.45207 13.0469L9.52707 13.0619L9.46957 13.1119" fill="#FFFFEF"/>
<path fill-rule="evenodd" clip-rule="evenodd" d="M9.48207 13.1894L9.41457 13.1519L9.34707 13.1844L9.36207 13.1094L9.30957 13.0544L9.38457 13.0444L9.41957 12.9769L9.45207 13.0469L9.52707 13.0619L9.46957 13.1119M10.5271 13.1869L10.4621 13.1519L10.3946 13.1844L10.4096 13.1094L10.3571 13.0544L10.4321 13.0444L10.4671 12.9769L10.4996 13.0469L10.5746 13.0594L10.5171 13.1119M10.3971 13.5369L10.3321 13.4994L10.2646 13.5344L10.2796 13.4594L10.2271 13.4019L10.3021 13.3919L10.3371 13.3244L10.3696 13.3944L10.4446 13.4094L10.3871 13.4594M12.5721 12.9044L12.5071 12.8644L12.4371 12.8994L12.4521 12.8244L12.4021 12.7669L12.4771 12.7594L12.5121 12.6919L12.5421 12.7619L12.6171 12.7744L12.5621 12.8269M11.9346 12.9019L11.8671 12.8644L11.7996 12.8994L11.8146 12.8244L11.7646 12.7669L11.8396 12.7594L11.8746 12.6894L11.9046 12.7619L11.9796 12.7744L11.9246 12.8269M10.2046 12.6819L10.1621 12.6569L10.1196 12.6769L10.1296 12.6294L10.0971 12.5944L10.1446 12.5894L10.1646 12.5469L10.1846 12.5919L10.2321 12.5994L10.1971 12.6319M14.3921 13.7669L14.3271 13.7294L14.2596 13.7644L14.2746 13.6894L14.2221 13.6319L14.2971 13.6219L14.3321 13.5544L14.3646 13.6244L14.4396 13.6394L14.3821 13.6894M13.8621 13.8394L13.8071 13.8044L13.7496 13.8344L13.7621 13.7694L13.7196 13.7244L13.7821 13.7169L13.8121 13.6594L13.8371 13.7194L13.8996 13.7294L13.8521 13.7744M14.1121 13.8319L14.0621 13.8019L14.0096 13.8269L14.0196 13.7694L13.9796 13.7269L14.0371 13.7194L14.0646 13.6694L14.0896 13.7194L14.1471 13.7319L14.1046 13.7719M14.8321 13.2019L14.7821 13.1769L14.7321 13.2019L14.7446 13.1444L14.7046 13.1019L14.7621 13.0944L14.7871 13.0444L14.8121 13.0969L14.8646 13.1069L14.8246 13.1469M13.8546 14.1919L13.7921 14.1569L13.7246 14.1869L13.7396 14.1169L13.6896 14.0669L13.7646 14.0594L13.7971 13.9969L13.8271 14.0619L13.9021 14.0744L13.8446 14.1219M13.8596 14.4769L13.7996 14.4419L13.7396 14.4744L13.7546 14.4044L13.7071 14.3544L13.7746 14.3444L13.8046 14.2819L13.8321 14.3469L13.8996 14.3594L13.8496 14.4094M13.3746 13.8319L13.3271 13.8019L13.2771 13.8269L13.2871 13.7719L13.2496 13.7294L13.3046 13.7244L13.3296 13.6744L13.3546 13.7244L13.4096 13.7344L13.3696 13.7744M12.9246 13.8319L12.8746 13.8019L12.8246 13.8269L12.8371 13.7719L12.7971 13.7294L12.8546 13.7244L12.8796 13.6744L12.9046 13.7244L12.9571 13.7344L12.9171 13.7744M12.1571 13.1594L12.1071 13.1319L12.0571 13.1569L12.0696 13.0994L12.0296 13.0594L12.0846 13.0519L12.1096 13.0019L12.1346 13.0519L12.1896 13.0644L12.1496 13.1019M12.2421 14.5269L12.2021 14.5044L12.1571 14.5269L12.1671 14.4769L12.1346 14.4419L12.1821 14.4369L12.2046 14.3944L12.2246 14.4394L12.2721 14.4469L12.2371 14.4794M11.0821 12.3144L10.9821 12.2569L10.8821 12.3069L10.9046 12.1944L10.8246 12.1119L10.9371 12.0969L10.9921 11.9969L11.0396 12.1019L11.1496 12.1219L11.0671 12.1994" fill="#FFFFEF"/>
<path fill-rule="evenodd" clip-rule="evenodd" d="M15.1102 13.1445C15.1721 12.9838 15.2206 12.8182 15.2552 12.6495C13.5602 11.162 11.6727 10.3995 9.2877 10.557C9.20119 10.7243 9.13007 10.8992 9.0752 11.0795C11.9002 10.8095 13.9752 12.0595 15.1102 13.1445Z" fill="white"/>
<path d="M14.3501 12.3095L14.4076 12.342C14.399 12.359 14.3964 12.3783 14.4001 12.397C14.4059 12.4151 14.4184 12.4303 14.4351 12.4395C14.4526 12.452 14.4701 12.4595 14.4851 12.457C14.5001 12.457 14.5101 12.4495 14.5176 12.4395C14.5219 12.4328 14.5237 12.4248 14.5226 12.417C14.5205 12.4077 14.5162 12.3992 14.5101 12.392C14.5051 12.3845 14.4926 12.367 14.4726 12.347C14.452 12.3258 14.4366 12.3001 14.4276 12.272C14.4213 12.2507 14.423 12.2279 14.4321 12.2077C14.4413 12.1875 14.4574 12.1713 14.4776 12.162C14.4958 12.1544 14.5159 12.1526 14.5351 12.157C14.5586 12.1624 14.5807 12.1726 14.6001 12.187C14.6351 12.212 14.6576 12.237 14.6651 12.267C14.6685 12.281 14.669 12.2956 14.6664 12.3098C14.6638 12.324 14.6583 12.3376 14.6501 12.3495L14.5901 12.312C14.5976 12.297 14.6001 12.282 14.5951 12.2695C14.5926 12.257 14.5826 12.2445 14.5651 12.2345C14.5522 12.2241 14.5365 12.218 14.5201 12.217C14.5155 12.2168 14.5111 12.2179 14.5071 12.2201C14.5031 12.2223 14.4998 12.2255 14.4976 12.2295C14.4926 12.237 14.4926 12.2445 14.4951 12.2545C14.4976 12.2645 14.5101 12.2845 14.5351 12.3095C14.5601 12.3345 14.5751 12.357 14.5851 12.372C14.594 12.3884 14.598 12.407 14.5967 12.4256C14.5954 12.4442 14.5887 12.462 14.5776 12.477C14.5659 12.494 14.5493 12.507 14.5301 12.5145C14.5113 12.5231 14.4904 12.5257 14.4701 12.522C14.4476 12.517 14.4251 12.507 14.4001 12.4895C14.3626 12.4645 14.3401 12.437 14.3326 12.407C14.3244 12.373 14.3298 12.3371 14.3476 12.307L14.3501 12.3095ZM14.0601 12.1195L14.1226 12.152C14.1148 12.1692 14.1131 12.1886 14.1176 12.207C14.124 12.2241 14.1364 12.2384 14.1526 12.247C14.1726 12.2595 14.1876 12.2645 14.2026 12.262C14.2176 12.262 14.2276 12.2545 14.2351 12.242C14.2389 12.236 14.2406 12.229 14.2401 12.222C14.2401 12.2145 14.2351 12.2045 14.2276 12.197C14.2148 12.1815 14.2014 12.1665 14.1876 12.152C14.1601 12.1245 14.1426 12.102 14.1376 12.082C14.1335 12.0691 14.1323 12.0555 14.134 12.0421C14.1357 12.0287 14.1404 12.0159 14.1476 12.0045C14.1571 11.989 14.171 11.9768 14.1876 11.9695C14.2048 11.9616 14.2239 11.9589 14.2426 11.962C14.2657 11.9659 14.2878 11.9744 14.3076 11.987C14.3451 12.012 14.3676 12.037 14.3751 12.0645C14.3796 12.0785 14.3811 12.0934 14.3794 12.1081C14.3776 12.1227 14.3728 12.1369 14.3651 12.1495L14.3026 12.1145C14.3101 12.097 14.3126 12.0845 14.3076 12.072C14.3026 12.0595 14.2926 12.047 14.2751 12.037C14.2612 12.027 14.2446 12.0218 14.2276 12.022C14.2235 12.0223 14.2195 12.0235 14.216 12.0257C14.2125 12.0279 14.2096 12.0309 14.2076 12.0345C14.2026 12.042 14.2026 12.0495 14.2051 12.0595C14.2076 12.0695 14.2226 12.0895 14.2476 12.1145C14.2726 12.1395 14.2901 12.1595 14.2976 12.1745C14.3076 12.1902 14.3129 12.2084 14.3129 12.227C14.3129 12.2456 14.3076 12.2638 14.2976 12.2795C14.2868 12.2969 14.2712 12.3108 14.2526 12.3195C14.2338 12.3281 14.2129 12.3307 14.1926 12.327C14.1668 12.3226 14.1422 12.3133 14.1201 12.2995C14.0878 12.2822 14.0629 12.2538 14.0501 12.2195C14.0404 12.1861 14.044 12.1503 14.0601 12.1195ZM13.7051 12.0245L13.8876 11.7245L14.1076 11.862L14.0776 11.912L13.9176 11.812L13.8776 11.8795L14.0276 11.972L13.9951 12.022L13.8451 11.9295L13.7951 12.012L13.9626 12.112L13.9326 12.162L13.7076 12.0245H13.7051ZM13.1876 11.5995L13.2151 11.5495L13.3501 11.617L13.2876 11.742C13.2676 11.747 13.2426 11.7495 13.2126 11.747C13.1838 11.7438 13.1558 11.7353 13.1301 11.722C13.0998 11.7072 13.074 11.6848 13.0551 11.657C13.0379 11.6311 13.0291 11.6005 13.0301 11.5695C13.0313 11.5372 13.0399 11.5055 13.0551 11.477C13.0701 11.4469 13.0925 11.4211 13.1201 11.402C13.1465 11.3837 13.178 11.3741 13.2101 11.3745C13.2351 11.3745 13.2601 11.382 13.2901 11.3995C13.3301 11.417 13.3551 11.442 13.3676 11.4695C13.3806 11.4968 13.3832 11.5279 13.3751 11.557L13.3076 11.537C13.3117 11.5202 13.3099 11.5026 13.3026 11.487C13.2951 11.472 13.2826 11.462 13.2626 11.452C13.2509 11.4453 13.238 11.4412 13.2246 11.4399C13.2113 11.4386 13.1978 11.4402 13.1851 11.4445C13.1601 11.452 13.1376 11.4745 13.1201 11.5095C13.1026 11.5445 13.0951 11.577 13.1026 11.6045C13.106 11.6175 13.1123 11.6296 13.1209 11.64C13.1296 11.6504 13.1404 11.6587 13.1526 11.6645C13.1651 11.672 13.1801 11.677 13.1951 11.677C13.21 11.6792 13.2252 11.6792 13.2401 11.677L13.2601 11.637L13.1876 11.5995ZM10.9326 11.042L10.9826 10.692L11.0876 10.7095L11.1151 10.9545L11.2126 10.7295L11.3176 10.7445L11.2676 11.0895L11.2001 11.0795L11.2426 10.807L11.1326 11.0695L11.0651 11.0595L11.0376 10.777L10.9976 11.052L10.9326 11.042ZM10.5801 10.9995L10.6126 10.6495L10.8701 10.6745L10.8651 10.7345L10.6776 10.717L10.6701 10.792L10.8451 10.8095L10.8376 10.8695L10.6626 10.852L10.6551 10.947L10.8501 10.9645L10.8451 11.0245L10.5801 10.9995Z" fill="#309E3A"/>
<path d="M9.4127 10.7819C9.4127 10.7444 9.4202 10.7169 9.4302 10.6919C9.43897 10.6741 9.45082 10.6581 9.4652 10.6444C9.47803 10.6315 9.49333 10.6213 9.5102 10.6144C9.5352 10.6069 9.5602 10.6019 9.5852 10.6019C9.6377 10.6019 9.6777 10.6219 9.7102 10.6519C9.72567 10.671 9.73718 10.693 9.74405 10.7167C9.75092 10.7403 9.75301 10.765 9.7502 10.7894C9.7502 10.8444 9.7327 10.8894 9.7002 10.9219C9.6835 10.9374 9.66375 10.9491 9.64222 10.9564C9.62068 10.9638 9.59785 10.9665 9.5752 10.9644C9.55286 10.9647 9.5307 10.9603 9.51007 10.9517C9.48944 10.9431 9.47078 10.9305 9.4552 10.9144C9.4241 10.8776 9.40882 10.83 9.4127 10.7819Z" fill="#309E3A"/>
<path d="M9.48535 10.7819C9.48535 10.8194 9.49285 10.8494 9.51035 10.8719C9.52785 10.8919 9.55035 10.9044 9.58035 10.9044C9.59333 10.9053 9.60635 10.9033 9.61846 10.8986C9.63057 10.8938 9.64146 10.8864 9.65035 10.8769C9.66785 10.8569 9.67535 10.8269 9.67785 10.7844C9.67785 10.7444 9.67285 10.7144 9.65285 10.6944C9.64471 10.6843 9.63443 10.6762 9.62276 10.6706C9.61108 10.665 9.59831 10.662 9.58535 10.6619C9.5722 10.6615 9.55912 10.664 9.54702 10.6691C9.53493 10.6743 9.52412 10.6821 9.51535 10.6919C9.49535 10.7119 9.48785 10.7419 9.48535 10.7819Z" fill="#F7FFFF"/>
<path d="M9.8252 10.9619L9.8302 10.6119H9.9802C10.0177 10.6119 10.0427 10.6169 10.0602 10.6244C10.0777 10.6294 10.0902 10.6419 10.1002 10.6569C10.1102 10.6719 10.1152 10.6919 10.1152 10.7144C10.1154 10.7385 10.1065 10.7617 10.0902 10.7794C10.0717 10.7968 10.0479 10.8073 10.0227 10.8094L10.0602 10.8394C10.0702 10.8494 10.0827 10.8694 10.0977 10.8969L10.1402 10.9669H10.0552L10.0052 10.8869L9.9702 10.8369C9.96413 10.8301 9.95638 10.8249 9.9477 10.8219C9.93632 10.8186 9.92454 10.8169 9.9127 10.8169H9.8977V10.9619H9.8252Z" fill="#309E3A"/>
<path d="M9.90039 10.7619H9.95039C9.98539 10.7619 10.0079 10.7619 10.0154 10.7569C10.0229 10.7569 10.0304 10.7494 10.0354 10.7444C10.0404 10.7394 10.0429 10.7269 10.0429 10.7194C10.0429 10.7044 10.0404 10.6944 10.0329 10.6894C10.0279 10.6819 10.0179 10.6769 10.0079 10.6744H9.95789L9.90039 10.6719V10.7594V10.7619Z" fill="white"/>
<path d="M10.2245 10.6295L10.3545 10.637C10.382 10.637 10.4045 10.6395 10.4195 10.6445C10.439 10.6515 10.4562 10.6636 10.4695 10.6795C10.4839 10.6969 10.4942 10.7174 10.4995 10.7395C10.507 10.762 10.5095 10.7895 10.507 10.822C10.507 10.8475 10.5028 10.8728 10.4945 10.897C10.4845 10.922 10.4695 10.942 10.452 10.957C10.4375 10.969 10.4204 10.9775 10.402 10.982C10.387 10.987 10.3645 10.987 10.3395 10.987L10.207 10.9795L10.2245 10.6295Z" fill="#309E3A"/>
<path d="M10.2918 10.692L10.2793 10.9245H10.3743C10.3868 10.9245 10.3968 10.9195 10.4043 10.912C10.4118 10.9045 10.4193 10.8945 10.4243 10.8795C10.4293 10.8645 10.4343 10.842 10.4343 10.8145L10.4318 10.752C10.4282 10.7388 10.4213 10.7267 10.4118 10.717C10.4035 10.7086 10.3932 10.7026 10.3818 10.6995C10.3629 10.6952 10.3436 10.6927 10.3243 10.692H10.2918Z" fill="white"/>
<path d="M11.9404 11.2544L12.0229 10.9144L12.1329 10.9394L12.2129 10.9644C12.2304 10.9744 12.2454 10.9894 12.2529 11.0119C12.2629 11.0319 12.2629 11.0544 12.2579 11.0819C12.2529 11.1019 12.2454 11.1194 12.2329 11.1319C12.2238 11.1429 12.2123 11.1517 12.1993 11.1578C12.1864 11.1638 12.1722 11.167 12.1579 11.1669C12.1404 11.1669 12.1154 11.1619 12.0829 11.1544L12.0404 11.1419L12.0104 11.2719L11.9404 11.2544Z" fill="#309E3A"/>
<path d="M12.0757 10.9894L12.0557 11.0844L12.0932 11.0944C12.1182 11.0994 12.1382 11.1044 12.1482 11.1019C12.1579 11.1006 12.167 11.0963 12.1741 11.0895C12.1813 11.0828 12.1862 11.0741 12.1882 11.0644C12.1882 11.0519 12.1882 11.0419 12.1832 11.0319C12.1777 11.0218 12.1688 11.0138 12.1582 11.0094L12.1107 10.9969L12.0782 10.9894H12.0757Z" fill="white"/>
<path d="M12.2646 11.352L12.3821 11.022L12.5196 11.072C12.5571 11.0845 12.5796 11.097 12.5946 11.107C12.6071 11.1195 12.6171 11.132 12.6196 11.152C12.6221 11.172 12.6246 11.1895 12.6196 11.2095C12.6096 11.2345 12.5946 11.252 12.5746 11.2645C12.5546 11.2745 12.5296 11.277 12.4996 11.272C12.5096 11.2845 12.5196 11.297 12.5246 11.312L12.5446 11.3795L12.5596 11.457L12.4821 11.4295L12.4571 11.3395C12.4526 11.3191 12.4468 11.2991 12.4396 11.2795C12.4363 11.2717 12.4312 11.2648 12.4246 11.2595C12.4196 11.252 12.4096 11.247 12.3921 11.242L12.3796 11.237L12.3296 11.377L12.2646 11.352Z" fill="#309E3A"/>
<path d="M12.4 11.1845L12.4475 11.202C12.48 11.2145 12.5 11.2195 12.51 11.2195C12.5175 11.2195 12.525 11.2195 12.5325 11.212C12.54 11.207 12.545 11.1995 12.5475 11.1895C12.5525 11.1795 12.5525 11.1695 12.5475 11.1595C12.5438 11.1498 12.5366 11.1418 12.5275 11.137L12.4775 11.1195L12.4275 11.102L12.3975 11.1845H12.4Z" fill="white"/>
<path d="M12.6747 11.3395C12.6833 11.3102 12.6977 11.283 12.7172 11.2595C12.7298 11.2444 12.7451 11.2317 12.7622 11.222C12.7777 11.2132 12.7946 11.2073 12.8122 11.2045C12.8372 11.2045 12.8622 11.2045 12.8897 11.2145C12.912 11.22 12.9329 11.2302 12.951 11.2444C12.9691 11.2587 12.984 11.2766 12.9947 11.297C13.0147 11.337 13.0147 11.3845 12.9997 11.4395C12.9873 11.4867 12.9567 11.5272 12.9147 11.552C12.8772 11.5745 12.8322 11.577 12.7847 11.562C12.7624 11.5563 12.7415 11.546 12.7235 11.5318C12.7054 11.5176 12.6905 11.4998 12.6797 11.4795C12.6697 11.4576 12.6641 11.434 12.6632 11.41C12.6623 11.3859 12.6662 11.362 12.6747 11.3395Z" fill="#309E3A"/>
<path d="M12.7448 11.3595C12.7348 11.397 12.7323 11.4295 12.7448 11.4545C12.7573 11.4795 12.7748 11.4945 12.8023 11.5045C12.8273 11.512 12.8523 11.5095 12.8773 11.4945C12.9023 11.482 12.9173 11.4545 12.9298 11.4145C12.9423 11.377 12.9423 11.347 12.9298 11.322C12.9249 11.3101 12.9174 11.2995 12.9079 11.2908C12.8984 11.2822 12.8871 11.2757 12.8748 11.272C12.8625 11.2677 12.8494 11.2662 12.8365 11.2675C12.8235 11.2688 12.811 11.2729 12.7998 11.2795C12.7748 11.2945 12.7573 11.3195 12.7448 11.3595Z" fill="white"/>
<path d="M13.3574 11.827L13.5174 11.517L13.6499 11.5845C13.6749 11.5965 13.6977 11.6125 13.7174 11.632C13.7299 11.6445 13.7374 11.6595 13.7374 11.6795C13.7374 11.6995 13.7374 11.717 13.7274 11.7345C13.7178 11.7569 13.6999 11.7749 13.6774 11.7845C13.6524 11.7895 13.6274 11.7895 13.5999 11.7795C13.6099 11.7945 13.6149 11.8095 13.6199 11.822C13.6249 11.837 13.6274 11.8595 13.6299 11.892L13.6349 11.972L13.5599 11.9345L13.5499 11.842C13.5487 11.821 13.5462 11.8001 13.5424 11.7795C13.5407 11.7701 13.5364 11.7614 13.5299 11.7545L13.4999 11.737L13.4874 11.7295L13.4199 11.8595L13.3574 11.827Z" fill="#309E3A"/>
<path d="M13.5127 11.6795L13.5602 11.7045C13.5902 11.7195 13.6102 11.7295 13.6177 11.7295C13.6252 11.7295 13.6352 11.7295 13.6427 11.7245C13.6502 11.722 13.6552 11.7145 13.6602 11.7045C13.6652 11.6945 13.6677 11.6845 13.6652 11.6745C13.6621 11.6645 13.656 11.6558 13.6477 11.6495C13.6331 11.6405 13.6181 11.6322 13.6027 11.6245L13.5527 11.5995L13.5127 11.6795Z" fill="white"/>
<path d="M14.6524 12.4669C14.6685 12.4412 14.6898 12.4191 14.7149 12.4019C14.7317 12.3912 14.7503 12.3835 14.7699 12.3794C14.788 12.3757 14.8067 12.3757 14.8249 12.3794C14.8499 12.3844 14.8724 12.3944 14.8949 12.4094C14.9143 12.4215 14.931 12.4376 14.9439 12.4565C14.9569 12.4755 14.9657 12.4969 14.9699 12.5194C14.9774 12.5619 14.9649 12.6094 14.9349 12.6569C14.9098 12.6982 14.8693 12.7279 14.8224 12.7394C14.8 12.7443 14.7768 12.7443 14.7544 12.7396C14.732 12.7348 14.7109 12.7254 14.6924 12.7119C14.6729 12.6998 14.6562 12.6838 14.6433 12.6648C14.6304 12.6459 14.6215 12.6245 14.6174 12.6019C14.6099 12.5569 14.6224 12.5119 14.6524 12.4669Z" fill="#309E3A"/>
<path d="M14.7145 12.5069C14.6895 12.5394 14.682 12.5694 14.687 12.5969C14.6889 12.6096 14.6934 12.6217 14.7003 12.6325C14.7072 12.6433 14.7163 12.6524 14.727 12.6594C14.752 12.6769 14.777 12.6819 14.802 12.6744C14.827 12.6669 14.852 12.6494 14.8745 12.6144C14.897 12.5794 14.907 12.5494 14.902 12.5244C14.8995 12.4994 14.8845 12.4769 14.862 12.4594C14.8395 12.4419 14.812 12.4394 14.787 12.4469C14.762 12.4519 14.737 12.4719 14.712 12.5069H14.7145Z" fill="white"/>
<path d="M11.5449 11.1119L11.6024 10.8669L11.7824 10.9094L11.7749 10.9494L11.6424 10.9194L11.6299 10.9744L11.7524 11.0019L11.7424 11.0444L11.6199 11.0144L11.6049 11.0819L11.7424 11.1144L11.7324 11.1544L11.5449 11.1119Z" fill="#309E3A"/>
</g>
<path d="M20 6L20 18L4 18L4 6L20 6ZM20 5L4 5C3.4 5 3 5.4 3 6L3 18C3 18.6 3.4 19 4 19L20 19C20.6 19 21 18.6 21 18L21 6C21 5.4 20.6 5 20 5Z" fill="none"/>
<defs>
<clipPath id="clip0_14099_114012">
<rect width="16" height="12" fill="white" transform="translate(4 5.99945)"/>
</clipPath>
</defs>
</svg>
