<svg width="24" height="24" viewBox="0 0 24 24" fill="none" xmlns="http://www.w3.org/2000/svg">
<path d="M20 6H4V18H20V6Z" fill="white"/>
<path d="M20 17.1407C19.8207 17.2295 19.6667 17.4372 19.1904 17.4372C18.2381 17.4372 18 17 17.2857 17C16.8095 17 16.5714 17.4372 16.0953 17.4372C15.1429 17.4372 14.9048 17 14.1905 17C13.7143 17 13.4762 17.4372 13 17.4372C12.0476 17.4372 11.8095 17 11.0953 17C10.619 17 10.381 17.4372 9.90477 17.4372C8.9524 17.4372 8.71429 17 8 17C7.52379 17 7.28571 17.4372 6.80952 17.4372C5.85715 17.4372 5.61904 17 4.90477 17C4.42856 17 4.28571 17.3115 4 17.3115V17.8743C4.28571 17.8743 4.42856 17.5628 4.90477 17.5628C5.61904 17.5628 5.85715 18 6.80952 18C7.28571 18 7.52379 17.5628 8 17.5628C8.71427 17.5628 8.9524 18 9.90477 18C10.381 18 10.619 17.5628 11.0953 17.5628C11.8095 17.5628 12.0476 18 13 18C13.4762 18 13.7143 17.5628 14.1905 17.5628C14.9048 17.5628 15.1429 18 16.0953 18C16.5714 18 16.8095 17.5628 17.2857 17.5628C18 17.5628 18.2381 18 19.1904 18C19.6667 18 19.8207 17.8761 20 17.7873V17.1407Z" fill="#002B7F"/>
<path d="M20 15.1407C19.8207 15.2295 19.6667 15.4372 19.1904 15.4372C18.2381 15.4372 18 15 17.2857 15C16.8095 15 16.5714 15.4372 16.0953 15.4372C15.1429 15.4372 14.9048 15 14.1905 15C13.7143 15 13.4762 15.4372 13 15.4372C12.0476 15.4372 11.8095 15 11.0953 15C10.619 15 10.381 15.4372 9.90477 15.4372C8.9524 15.4372 8.71429 15 8 15C7.52379 15 7.28571 15.4372 6.80952 15.4372C5.85715 15.4372 5.61904 15 4.90477 15C4.42856 15 4.28571 15.3115 4 15.3115V15.8743C4.28571 15.8743 4.42856 15.5628 4.90477 15.5628C5.61904 15.5628 5.85715 16 6.80952 16C7.28571 16 7.52379 15.5628 8 15.5628C8.71427 15.5628 8.9524 16 9.90477 16C10.381 16 10.619 15.5628 11.0953 15.5628C11.8095 15.5628 12.0476 16 13 16C13.4762 16 13.7143 15.5628 14.1905 15.5628C14.9048 15.5628 15.1429 16 16.0953 16C16.5714 16 16.8095 15.5628 17.2857 15.5628C18 15.5628 18.2381 16 19.1904 16C19.6667 16 19.8207 15.8761 20 15.7873V15.1407Z" fill="#002B7F"/>
<path d="M20 13.1407C19.8207 13.2295 19.6667 13.4372 19.1904 13.4372C18.2381 13.4372 18 13 17.2857 13C16.8095 13 16.5714 13.4372 16.0953 13.4372C15.1429 13.4372 14.9048 13 14.1905 13C13.7143 13 13.4762 13.4372 13 13.4372C12.0476 13.4372 11.8095 13 11.0953 13C10.619 13 10.381 13.4372 9.90477 13.4372C8.9524 13.4372 8.71429 13 8 13C7.52379 13 7.28571 13.4372 6.80952 13.4372C5.85715 13.4372 5.61904 13 4.90477 13C4.42856 13 4.28571 13.3115 4 13.3115V13.8743C4.28571 13.8743 4.42856 13.5628 4.90477 13.5628C5.61904 13.5628 5.85715 14 6.80952 14C7.28571 14 7.52379 13.5628 8 13.5628C8.71427 13.5628 8.9524 14 9.90477 14C10.381 14 10.619 13.5628 11.0953 13.5628C11.8095 13.5628 12.0476 14 13 14C13.4762 14 13.7143 13.5628 14.1905 13.5628C14.9048 13.5628 15.1429 14 16.0953 14C16.5714 14 16.8095 13.5628 17.2857 13.5628C18 13.5628 18.2381 14 19.1904 14C19.6667 14 19.8207 13.8761 20 13.7873V13.1407Z" fill="#002B7F"/>
<path d="M20 11.1407C19.8207 11.2295 19.6667 11.4372 19.1904 11.4372C18.2381 11.4372 18 11 17.2857 11C16.8095 11 16.5714 11.4372 16.0953 11.4372C15.1429 11.4372 14.9048 11 14.1905 11C13.7143 11 13.4762 11.4372 13 11.4372C12.0476 11.4372 11.8095 11 11.0953 11C10.619 11 10.381 11.4372 9.90477 11.4372C8.9524 11.4372 8.71429 11 8 11C7.52379 11 7.28571 11.4372 6.80952 11.4372C5.85715 11.4372 5.61904 11 4.90477 11C4.42856 11 4.28571 11.3115 4 11.3115V11.8743C4.28571 11.8743 4.42856 11.5628 4.90477 11.5628C5.61904 11.5628 5.85715 12 6.80952 12C7.28571 12 7.52379 11.5628 8 11.5628C8.71427 11.5628 8.9524 12 9.90477 12C10.381 12 10.619 11.5628 11.0953 11.5628C11.8095 11.5628 12.0476 12 13 12C13.4762 12 13.7143 11.5628 14.1905 11.5628C14.9048 11.5628 15.1429 12 16.0953 12C16.5714 12 16.8095 11.5628 17.2857 11.5628C18 11.5628 18.2381 12 19.1904 12C19.6667 12 19.8207 11.8761 20 11.7873V11.1407Z" fill="#002B7F"/>
<path d="M20 9.14068C19.8207 9.22953 19.6667 9.43719 19.1904 9.43719C18.2381 9.43719 18 9 17.2857 9C16.8095 9 16.5714 9.43719 16.0953 9.43719C15.1429 9.43719 14.9048 9 14.1905 9C13.7143 9 13.4762 9.43719 13 9.43719C12.0476 9.43719 11.8095 9 11.0953 9C10.619 9 10.381 9.43719 9.90477 9.43719C8.9524 9.43719 8.71429 9 8 9C7.52379 9 7.28571 9.43719 6.80952 9.43719C5.85715 9.43719 5.61904 9 4.90477 9C4.42856 9 4.28571 9.31153 4 9.31153V9.87435C4.28571 9.87435 4.42856 9.56284 4.90477 9.56284C5.61904 9.56284 5.85715 10 6.80952 10C7.28571 10 7.52379 9.56284 8 9.56284C8.71427 9.56284 8.9524 10 9.90477 10C10.381 10 10.619 9.56284 11.0953 9.56284C11.8095 9.56284 12.0476 10 13 10C13.4762 10 13.7143 9.56284 14.1905 9.56284C14.9048 9.56284 15.1429 10 16.0953 10C16.5714 10 16.8095 9.56284 17.2857 9.56284C18 9.56284 18.2381 10 19.1904 10C19.6667 10 19.8207 9.87611 20 9.78727V9.14068Z" fill="#002B7F"/>
<path d="M20 7.14068C19.8207 7.22953 19.6667 7.43719 19.1904 7.43719C18.2381 7.43719 18 7 17.2857 7C16.8095 7 16.5714 7.43719 16.0953 7.43719C15.1429 7.43719 14.9048 7 14.1905 7C13.7143 7 13.4762 7.43719 13 7.43719C12.0476 7.43719 11.8095 7 11.0953 7C10.619 7 10.381 7.43719 9.90477 7.43719C8.9524 7.43719 8.71429 7 8 7C7.52379 7 7.28571 7.43719 6.80952 7.43719C5.85715 7.43719 5.61904 7 4.90477 7C4.42856 7 4.28571 7.31153 4 7.31153V7.87435C4.28571 7.87435 4.42856 7.56284 4.90477 7.56284C5.61904 7.56284 5.85715 8 6.80952 8C7.28571 8 7.52379 7.56284 8 7.56284C8.71427 7.56284 8.9524 8 9.90477 8C10.381 8 10.619 7.56284 11.0953 7.56284C11.8095 7.56284 12.0476 8 13 8C13.4762 8 13.7143 7.56284 14.1905 7.56284C14.9048 7.56284 15.1429 8 16.0953 8C16.5714 8 16.8095 7.56284 17.2857 7.56284C18 7.56284 18.2381 8 19.1904 8C19.6667 8 19.8207 7.87611 20 7.78727V7.14068Z" fill="#002B7F"/>
<path d="M13 6H4V10.56H13V6Z" fill="white"/>
<g clip-path="url(#clip0_14099_114067)">
<path d="M13 6H4V10.5H13V6Z" fill="#00247D"/>
<path d="M4 6L13 10L4 6ZM13 6L4 10L13 6Z" fill="black"/>
<path d="M4 6L13 10M13 6L4 10" stroke="white" stroke-width="1.5"/>
<path d="M4 6L13 10L4 6ZM13 6L4 10L13 6Z" fill="black"/>
<path d="M3.79693 9.54309C3.54459 9.65525 3.43094 9.95073 3.54309 10.2031C3.65525 10.4554 3.95073 10.5691 4.20307 10.4569L3.79693 9.54309ZM3.79693 6.45691L12.7969 10.4569L13.2031 9.54309L4.20307 5.54309L3.79693 6.45691ZM12.7969 5.54309L3.79693 9.54309L4.20307 10.4569L13.2031 6.45691L12.7969 5.54309Z" fill="#CF142B"/>
<path d="M8.5 6V10.5V6ZM4 8.25H13H4Z" fill="black"/>
<path d="M8.5 6V10.5M4 8.25H13" stroke="white" stroke-width="1.5"/>
<path d="M8.5 6V10.5V6ZM4 8.25H13H4Z" fill="black"/>
<path d="M8.5 6V10.5M4 8.25H13" stroke="#CF142B"/>
</g>
<path d="M17.3924 11.3864L17.3281 17.4935C17.3281 17.8149 17.6188 17.8149 17.6496 17.4935L17.5853 11.3864H17.3924Z" fill="#A24300" stroke="white" stroke-width="0.03"/>
<path d="M18.0573 13.656L17.8551 13.434L17.8052 13.6582L17.7173 13.3336L17.6351 13.497L17.6206 13.1514L17.5384 13.3148L17.5239 12.9692L17.4417 13.1326L17.3949 12.7262L17.3128 12.8897L17.266 12.4833L17.1838 12.6468L17.1371 12.2404L17.1137 12.0372L17.1547 11.9554L17.2603 11.9952L17.4303 12.1564L17.7703 12.4788L17.5592 12.3993L17.8993 12.7217L17.6882 12.6422L18.0282 12.9646L17.8171 12.8852L18.1249 13.1468L17.9138 13.0674L18.2216 13.329L18.0105 13.2496L18.245 13.5322L18.0017 13.392L18.0573 13.656Z" fill="#006D00" stroke="white" stroke-width="0.03"/>
<path d="M18.0566 13.6559L17.154 11.9554" stroke="black" stroke-width="0.03"/>
<path d="M17.7705 12.4782L17.2838 12.1978L17.184 12.6462" stroke="black" stroke-width="0.03"/>
<path d="M17.8994 12.7224L17.4128 12.442L17.3129 12.8903" stroke="black" stroke-width="0.03"/>
<path d="M18.0283 12.9645L17.5417 12.6841L17.4418 13.1325" stroke="black" stroke-width="0.03"/>
<path d="M18.125 13.1462L17.6706 12.9265L17.5385 13.3142" stroke="black" stroke-width="0.03"/>
<path d="M18.2217 13.3298L17.7673 13.1101L17.6352 13.4978" stroke="black" stroke-width="0.03"/>
<path d="M18.2451 13.5329L17.8318 13.2315L17.8052 13.6589" stroke="black" stroke-width="0.03"/>
<path d="M19.0299 10.1684L18.6978 10.3907L18.6433 10.1523L18.4473 10.482L18.4122 10.3233L18.2521 10.6614L18.2296 10.5058L18.1054 10.8523L18.0343 10.6852L17.9097 11.1069L17.8387 10.9398L17.7141 11.3614L17.6431 11.1943L17.5185 11.616L17.4562 11.8268L17.4917 11.9104L17.625 11.8666L17.8562 11.6956L18.3185 11.3537L18.0518 11.4411L18.5141 11.0991L18.2474 11.1866L18.7097 10.8446L18.4431 10.932L18.905 10.6651L18.5898 10.7411L19.0876 10.4827L18.785 10.5617L19.1499 10.2719L18.8343 10.4229L19.0299 10.1684Z" fill="#006D00" stroke="white" stroke-width="0.03"/>
<path d="M18.9004 10.2887L18.4205 10.7017L17.4913 11.9108" stroke="black" stroke-width="0.03"/>
<path d="M18.2168 11.4059L17.6871 11.6568L17.6425 11.2704" stroke="black" stroke-width="0.03"/>
<path d="M18.4209 11.152L17.8832 11.401L17.8385 11.0145" stroke="black" stroke-width="0.03"/>
<path d="M18.6123 10.8961L18.0786 11.1461L18.038 10.7606" stroke="black" stroke-width="0.03"/>
<path d="M18.7715 10.7087L18.2746 10.8922L18.2169 10.5779" stroke="black" stroke-width="0.03"/>
<path d="M18.9541 10.527L18.4208 10.7018L18.4 10.3962" stroke="black" stroke-width="0.03"/>
<path d="M19.0251 10.3547L18.532 10.607L18.6272 10.2244" stroke="black" stroke-width="0.03"/>
<path d="M15.2393 12.243L15.673 11.9426L15.4558 11.8306L15.8357 11.8955L15.7053 11.7235L16.0745 11.8614L15.944 11.6893L16.3132 11.8273L16.1827 11.6552L16.628 11.8061L16.4975 11.6341L16.9319 11.8581L16.8014 11.686L17.2467 11.8369L17.4639 11.9489L17.5291 12.0349L17.4424 12.095L17.2036 12.1291L16.8184 12.288L16.8889 12.1503L16.4114 12.2185L16.5849 12.0983L16.0967 12.2396L16.2702 12.1195L15.858 12.2738L16.0422 12.0806L15.6192 12.3079L15.8035 12.1147L15.4565 12.355L15.6515 12.0887L15.2393 12.243Z" fill="#006D00" stroke="white" stroke-width="0.03"/>
<path d="M15.377 12.1617L15.8254 11.968L16.0641 11.9339L16.2634 11.9305L16.6068 11.9517L16.9165 11.9652L17.5295 12.0344" stroke="black" stroke-width="0.03"/>
<path d="M16.8778 12.2233L17.2204 12.0127L16.8712 11.7386" stroke="black" stroke-width="0.03"/>
<path d="M16.4932 12.191L16.916 11.9649L16.5668 11.6908" stroke="black" stroke-width="0.03"/>
<path d="M16.2194 12.1857L16.6066 11.9522L16.2545 11.6979" stroke="black" stroke-width="0.03"/>
<path d="M15.7061 12.2478L16.0638 11.9345L15.7755 11.776" stroke="black" stroke-width="0.03"/>
<path d="M15.5469 12.269L15.8248 11.9686L15.6032 11.8863" stroke="black" stroke-width="0.03"/>
<path d="M15.9443 12.2145L16.2975 11.932L16.0142 11.7401" stroke="black" stroke-width="0.03"/>
<path d="M16.7578 15.6731L17.5067 15.5387L18.2868 15.6731L17.9248 15.8236L17.2571 15.8343L16.7578 15.6731Z" fill="#9D9D9D" stroke="black" stroke-width="0.03"/>
<path d="M17.5123 14.4625C17.3814 14.508 17.2364 14.3985 17.0004 14.5772C17.0004 14.5772 16.5889 14.4012 16.5576 14.8081C16.5564 14.8245 16.6228 14.9237 16.632 14.9167C16.6837 14.877 16.6075 14.9552 16.6075 14.9665C16.6075 14.9779 16.615 14.9842 16.6176 14.9893C16.6201 14.9943 16.6264 15.0019 16.6277 15.0234C16.629 15.0449 16.5811 15.1036 16.6013 15.125C16.6215 15.1465 16.6228 15.2085 16.6228 15.2262C16.6228 15.2439 16.6354 15.2932 16.6443 15.3034C16.6531 15.3134 16.6683 15.3387 16.6683 15.3602C16.6683 15.3817 16.6771 15.4411 16.6733 15.4563C16.6695 15.4714 16.696 15.4904 16.7201 15.498C16.7441 15.5056 17.054 15.511 17.4889 15.5034C17.9239 15.4958 18.069 15.5646 18.2487 15.4992C18.2765 15.4892 18.2816 15.4664 18.2791 15.4537C18.2765 15.4411 18.2791 15.4007 18.2867 15.3906C18.2942 15.3805 18.3448 15.2995 18.3347 15.2844C18.3442 15.2758 18.4151 15.3253 18.37 15.2811C18.3584 15.2697 18.3765 15.1502 18.3827 15.125C18.389 15.0998 18.3986 15.0525 18.4102 15.0437C18.4219 15.0349 18.3905 15.002 18.3927 14.996C18.395 14.99 18.4034 14.9715 18.4152 14.963C18.4152 14.963 18.4371 14.8602 18.4236 14.8097C18.4102 14.7591 18.3608 14.5317 18.0523 14.5772C18.0523 14.5772 17.6393 14.4184 17.5123 14.4625Z" fill="#CC0000" stroke="black" stroke-width="0.03"/>
<path d="M16.9851 14.7256C16.9649 14.7328 16.9445 14.9066 16.962 14.9626C16.9741 15.0015 16.9887 15.0277 16.9971 15.0438C16.9796 15.017 16.9402 14.9655 16.8957 14.9695C16.8396 14.9746 16.8545 15.1548 16.8573 15.1663C16.8573 15.1663 16.8573 15.1664 16.8573 15.1665C16.8573 15.1665 16.8575 15.1666 16.8575 15.1666C16.8575 15.1666 16.8576 15.1666 16.8576 15.1666C16.8596 15.1621 16.8731 15.0858 16.9285 15.0809C16.965 15.0776 16.9987 15.1172 17.0113 15.1342C17.012 15.1399 17.0128 15.1454 17.0135 15.1509C17.0074 15.1686 17.0071 15.2093 16.9879 15.2622C16.9648 15.3261 16.8717 15.3408 16.856 15.3428C16.8599 15.3424 17.0099 15.329 17.0591 15.3246C17.0593 15.3245 17.0595 15.3245 17.0597 15.3245C17.0598 15.3245 17.0599 15.3245 17.06 15.3245C17.0602 15.3245 17.0604 15.3244 17.0606 15.3244C17.1099 15.32 17.2598 15.3066 17.2638 15.3062C17.2479 15.307 17.1514 15.3093 17.1133 15.2509C17.0817 15.2026 17.0733 15.1627 17.063 15.1465C17.0623 15.1409 17.0617 15.1355 17.061 15.1298C17.0693 15.1109 17.0925 15.0661 17.129 15.0629C17.1844 15.0579 17.2162 15.1301 17.2193 15.1342C17.2193 15.1342 17.2194 15.1341 17.2194 15.1341C17.2194 15.1341 17.2195 15.134 17.2195 15.134C17.2195 15.1339 17.2195 15.1338 17.2195 15.1338C17.2194 15.1221 17.1901 14.9431 17.134 14.9481C17.0895 14.9521 17.0634 15.0095 17.0529 15.0388C17.0572 15.0215 17.0642 14.9858 17.0661 14.9533C17.0696 14.8944 17.007 14.7237 16.9861 14.7255C16.9858 14.7255 16.9854 14.7255 16.9851 14.7256ZM16.9977 15.0449C16.9995 15.0477 17.0011 15.0501 17.0024 15.0522C17.0024 15.0523 17.0068 15.0699 17.0068 15.0699C17.0069 15.0703 17.0251 15.1301 17.0252 15.1304C17.0238 15.1282 16.9996 15.0484 16.9977 15.0449ZM17.0526 15.04C17.0516 15.0437 17.0465 15.1262 17.0457 15.1286C17.0456 15.1282 17.0499 15.0486 17.0498 15.0482C17.0498 15.0481 17.0502 15.0661 17.0502 15.066C17.0509 15.0637 17.0515 15.043 17.0526 15.04Z" fill="#F7D917" stroke="black" stroke-width="0.03"/>
<path d="M17.0033 15.1338C17.0033 15.1338 17.0184 15.1212 17.0348 15.1197C17.0512 15.1183 17.0689 15.1279 17.0689 15.1279L17.0726 15.1576C17.0726 15.1576 17.0548 15.148 17.0384 15.1494C17.022 15.1509 17.007 15.1635 17.007 15.1635L17.0033 15.1338Z" fill="#F7D917" stroke="black" stroke-width="0.03"/>
<path d="M16.6121 15.0235L16.6921 14.926C16.6921 14.926 16.6995 14.9356 16.6921 14.926C16.5282 14.7141 16.5199 14.5925 16.5383 14.5309C16.5568 14.4693 16.5937 14.4026 16.6921 14.3205C16.7905 14.2385 16.8584 14.2841 16.9507 14.2841C17.0429 14.2841 17.0675 14.3046 17.1475 14.3149C17.2275 14.3251 17.4427 14.3354 17.4427 14.3354V14.2789C17.4427 14.2789 17.4512 14.2805 17.4427 14.2789C17.3477 14.2612 17.2275 14.2789 17.1475 14.2584C17.0675 14.2379 16.9999 14.2328 16.9138 14.2328C16.8277 14.2328 16.7659 14.2077 16.7105 14.2436C16.6552 14.2795 16.5875 14.3411 16.5383 14.3924C16.4891 14.4437 16.4645 14.5463 16.4707 14.613C16.4768 14.6797 16.5014 14.7361 16.5383 14.7874C16.5752 14.8388 16.5691 14.8798 16.5814 14.9157C16.5937 14.9516 16.6121 15.0286 16.6121 15.0235Z" fill="#F7D917" stroke="black" stroke-width="0.03"/>
<path d="M18.3861 15.0235L18.3062 14.926C18.3062 14.926 18.2987 14.9356 18.3062 14.926C18.4701 14.7141 18.4784 14.5925 18.4599 14.5309C18.4415 14.4693 18.4046 14.4026 18.3062 14.3205C18.2078 14.2385 18.1399 14.2841 18.0476 14.2841C17.9553 14.2841 17.9307 14.3046 17.8508 14.3149C17.7708 14.3251 17.5555 14.3354 17.5555 14.3354V14.2789C17.5555 14.2789 17.547 14.2805 17.5555 14.2789C17.6506 14.2612 17.7708 14.2789 17.8508 14.2584C17.9307 14.2379 17.9984 14.2328 18.0845 14.2328C18.1706 14.2328 18.2324 14.2077 18.2877 14.2436C18.3431 14.2795 18.4107 14.3411 18.4599 14.3924C18.5092 14.4437 18.5338 14.5463 18.5276 14.613C18.5215 14.6797 18.4969 14.7361 18.4599 14.7874C18.423 14.8388 18.4292 14.8798 18.4169 14.9157C18.4046 14.9516 18.3861 15.0286 18.3861 15.0235Z" fill="#F7D917" stroke="black" stroke-width="0.03"/>
<path d="M17.6504 14.2321H17.3652V14.8171H17.6504V14.2321Z" fill="#F7D917" stroke="black" stroke-width="0.03"/>
<path d="M17.3995 13.7164C17.3995 13.7164 17.4302 13.7414 17.4538 13.7736C17.4773 13.8057 17.4937 13.8449 17.4937 13.8449C17.4937 13.8449 17.4545 13.8285 17.4224 13.805C17.3902 13.7814 17.3652 13.7507 17.3652 13.7507V13.9677C17.3652 13.9677 17.3902 13.937 17.4224 13.9135C17.4545 13.8899 17.4937 13.8735 17.4937 13.8735C17.4937 13.8735 17.4811 13.9059 17.4729 13.9449C17.4656 13.98 17.4054 14.061 17.4054 14.061L17.5812 14.0727C17.5812 14.0727 17.552 13.98 17.5402 13.9449C17.5275 13.9071 17.5223 13.8735 17.5223 13.8735C17.5223 13.8735 17.5616 13.8899 17.5937 13.9135C17.6258 13.937 17.6508 13.9677 17.6508 13.9677V13.7507C17.6508 13.7507 17.6258 13.7814 17.5937 13.805C17.5616 13.8285 17.5223 13.8449 17.5223 13.8449C17.5223 13.8449 17.5387 13.8057 17.5623 13.7736C17.5858 13.7414 17.6165 13.7164 17.6165 13.7164H17.3995Z" fill="#F7D917" stroke="black" stroke-width="0.03"/>
<path d="M17.6491 14.104C17.6491 14.1415 17.6342 14.1775 17.6077 14.204C17.5812 14.2305 17.5452 14.2454 17.5077 14.2454C17.4702 14.2454 17.4342 14.2305 17.4076 14.204C17.3811 14.1775 17.3662 14.1415 17.3662 14.104C17.3662 14.0665 17.3811 14.0305 17.4076 14.004C17.4342 13.9774 17.4702 13.9625 17.5077 13.9625C17.5452 13.9625 17.5812 13.9774 17.6077 14.004C17.6342 14.0305 17.6491 14.0665 17.6491 14.104Z" fill="#F7D917" stroke="black" stroke-width="0.03"/>
<path d="M17.3698 14.1228H17.6512C17.6512 14.1228 17.6552 14.0684 17.6349 14.048C17.6152 14.048 17.5475 14.048 17.5475 14.048L17.546 13.9664H17.5134H17.4631L17.4616 14.048C17.4616 14.048 17.4028 14.051 17.3757 14.051C17.3634 14.0843 17.3653 14.0871 17.3653 14.0871L17.3698 14.1228Z" fill="#F7D917" stroke="black" stroke-width="0.03"/>
<path d="M17.3267 14.7985C17.3267 14.7985 17.378 14.8402 17.4173 14.8938C17.4567 14.9475 17.4841 15.013 17.4841 15.013C17.4841 15.013 17.4185 14.9856 17.3649 14.9463C17.3113 14.9069 17.2695 14.8557 17.2695 14.8557V15.2181C17.2695 15.2181 17.3113 15.1668 17.3649 15.1275C17.4185 15.0881 17.4841 15.0607 17.4841 15.0607C17.4841 15.0607 17.4567 15.1263 17.4173 15.1799C17.378 15.2336 17.3267 15.2753 17.3267 15.2753H17.6891C17.6891 15.2753 17.6379 15.2336 17.5985 15.1799C17.5592 15.1263 17.5318 15.0607 17.5318 15.0607C17.5318 15.0607 17.5974 15.0881 17.651 15.1275C17.7046 15.1668 17.7464 15.2181 17.7464 15.2181V14.8557C17.7464 14.8557 17.7046 14.9069 17.651 14.9463C17.5974 14.9856 17.5318 15.013 17.5318 15.013C17.5318 15.013 17.5592 14.9475 17.5985 14.8938C17.6379 14.8402 17.6891 14.7985 17.6891 14.7985H17.3267Z" fill="#F7D917" stroke="black" stroke-width="0.03"/>
<path d="M16.6365 15.4128L16.815 15.3813C16.815 15.3813 16.7572 15.3491 16.7092 15.3031C16.6611 15.2572 16.6227 15.1973 16.6227 15.1973C16.6227 15.1973 16.6921 15.213 16.7517 15.2424C16.8114 15.2718 16.8614 15.315 16.8614 15.315L16.7984 14.9582C16.7984 14.9582 16.7663 15.0159 16.7203 15.0639C16.6743 15.112 16.6145 15.1504 16.6145 15.1504C16.6145 15.1504 16.6301 15.0811 16.6595 15.0214C16.6889 14.9617 16.7322 14.9117 16.7322 14.9117L16.5537 14.9432L16.6365 15.4128Z" fill="#F7D917" stroke="black" stroke-width="0.03"/>
<path d="M18.2835 14.9117C18.2835 14.9117 18.3268 14.9617 18.3562 15.0214C18.3856 15.0811 18.4012 15.1504 18.4012 15.1504C18.4012 15.1504 18.3414 15.112 18.2954 15.0639C18.2494 15.0159 18.2172 14.9582 18.2172 14.9582L18.1543 15.315C18.1543 15.315 18.2043 15.2718 18.2639 15.2424C18.3236 15.213 18.3929 15.1973 18.3929 15.1973C18.3929 15.1973 18.3546 15.2572 18.3065 15.3031C18.2584 15.3491 18.2007 15.3813 18.2007 15.3813L18.3792 15.4128L18.462 14.9432L18.2835 14.9117Z" fill="#F7D917" stroke="black" stroke-width="0.03"/>
<path d="M16.6387 15.3956L16.6399 15.6556C16.6399 15.6556 17.0744 15.5077 17.5088 15.5077C17.9432 15.5077 18.3777 15.6556 18.3777 15.6556V15.3956C18.3777 15.3956 17.9429 15.2477 17.5082 15.2477C17.0734 15.2477 16.6387 15.3956 16.6387 15.3956Z" fill="#F7D917" stroke="black" stroke-width="0.03"/>
<path d="M16.5981 14.8848C16.5982 14.8935 16.5965 14.9022 16.5932 14.9103C16.59 14.9184 16.5851 14.9258 16.5789 14.932C16.5728 14.9382 16.5655 14.9431 16.5574 14.9464C16.5493 14.9498 16.5407 14.9515 16.532 14.9515C16.5232 14.9515 16.5146 14.9498 16.5065 14.9464C16.4984 14.9431 16.4911 14.9382 16.485 14.932C16.4788 14.9258 16.474 14.9184 16.4707 14.9103C16.4674 14.9022 16.4657 14.8935 16.4658 14.8848C16.4657 14.8761 16.4674 14.8674 16.4707 14.8593C16.474 14.8512 16.4788 14.8438 16.485 14.8376C16.4911 14.8314 16.4984 14.8265 16.5065 14.8231C16.5146 14.8198 16.5232 14.8181 16.532 14.8181C16.5407 14.8181 16.5493 14.8198 16.5574 14.8231C16.5655 14.8265 16.5728 14.8314 16.5789 14.8376C16.5851 14.8438 16.59 14.8512 16.5932 14.8593C16.5965 14.8674 16.5982 14.8761 16.5981 14.8848Z" fill="white" stroke="black" stroke-width="0.03"/>
<path d="M17.5928 15.0206C17.5928 15.0433 17.5838 15.0651 17.5678 15.0811C17.5517 15.0971 17.53 15.1061 17.5073 15.1061C17.4847 15.1061 17.4629 15.0971 17.4469 15.0811C17.4309 15.0651 17.4219 15.0433 17.4219 15.0206C17.4219 14.998 17.4309 14.9762 17.4469 14.9602C17.4629 14.9442 17.4847 14.9352 17.5073 14.9352C17.53 14.9352 17.5517 14.9442 17.5678 14.9602C17.5838 14.9762 17.5928 14.998 17.5928 15.0206Z" fill="white" stroke="black" stroke-width="0.03"/>
<path d="M17.648 15.3102H17.3838V15.4253H17.648V15.3102Z" fill="#002B7F" stroke="black" stroke-width="0.03"/>
<path d="M17.8046 15.3972C17.805 15.4137 17.8178 15.4309 17.8404 15.4448C17.8629 15.4587 17.8932 15.4683 17.9246 15.4715C17.9561 15.4747 17.986 15.4712 18.008 15.4618C18.0299 15.4524 18.042 15.4378 18.0416 15.4213C18.0412 15.4048 18.0283 15.3877 18.0058 15.3737C17.9833 15.3598 17.953 15.3502 17.9215 15.347C17.8901 15.3438 17.8601 15.3473 17.8382 15.3567C17.8162 15.3661 17.8041 15.3807 17.8046 15.3972Z" fill="#3E8225" stroke="black" stroke-width="0.03"/>
<path d="M16.6404 15.456L16.5742 15.5222L16.651 15.5665L16.8295 15.5187L16.7977 15.4176L16.6404 15.456Z" fill="#CC0000" stroke="black" stroke-width="0.03"/>
<path d="M18.3913 15.456L18.4575 15.5222L18.3807 15.5665L18.2021 15.5187L18.234 15.4176L18.3913 15.456Z" fill="#CC0000" stroke="black" stroke-width="0.03"/>
<path d="M17.2267 15.3972C17.2263 15.4137 17.2134 15.4309 17.1909 15.4448C17.1684 15.4587 17.1381 15.4683 17.1066 15.4715C17.0752 15.4747 17.0452 15.4712 17.0233 15.4618C17.0013 15.4524 16.9893 15.4378 16.9897 15.4213C16.9901 15.4048 17.003 15.3877 17.0255 15.3737C17.048 15.3598 17.0783 15.3502 17.1097 15.347C17.1412 15.3438 17.1711 15.3473 17.1931 15.3567C17.215 15.3661 17.2271 15.3807 17.2267 15.3972Z" fill="#3E8225" stroke="black" stroke-width="0.03"/>
<path d="M17.3267 15.3193C17.3267 15.3279 17.3233 15.3361 17.3172 15.3422C17.3111 15.3483 17.3029 15.3518 17.2942 15.3518C17.2856 15.3518 17.2773 15.3483 17.2712 15.3422C17.2651 15.3361 17.2617 15.3279 17.2617 15.3193C17.2617 15.3106 17.2651 15.3024 17.2712 15.2963C17.2773 15.2902 17.2856 15.2867 17.2942 15.2867C17.3029 15.2867 17.3111 15.2902 17.3172 15.2963C17.3233 15.3024 17.3267 15.3106 17.3267 15.3193Z" fill="white" stroke="black" stroke-width="0.03"/>
<path d="M18.1726 15.8472C18.1974 15.8429 18.3472 15.8073 18.3788 15.7883C18.3584 15.7516 18.3219 15.7229 18.3503 15.7349C18.3656 15.7414 18.3777 15.6908 18.3333 15.6522C18.2043 15.6945 17.8949 15.7718 17.5062 15.7718C17.1084 15.7718 16.7951 15.6904 16.6661 15.6481C16.6217 15.6868 16.6355 15.7307 16.6329 15.7471C16.6328 15.7472 16.6329 15.7678 16.641 15.7842C16.6847 15.8317 16.8264 15.8551 16.8512 15.8594C16.9679 15.8797 17.0846 15.9103 17.5059 15.9103C17.8957 15.9103 18.0559 15.8675 18.1726 15.8472Z" fill="white" stroke="black" stroke-width="0.03"/>
<path d="M16.838 15.5796C16.8132 15.5839 16.6552 15.6399 16.6237 15.6589C16.6237 15.659 16.6237 15.6593 16.6237 15.6594C16.6264 15.6758 16.5963 15.7523 16.6407 15.7909C16.7697 15.7486 17.1319 15.6225 17.5207 15.6225C17.9185 15.6225 18.248 15.7486 18.377 15.7909C18.4214 15.7523 18.3913 15.6758 18.394 15.6594C18.394 15.6593 18.394 15.659 18.394 15.6589C18.3625 15.6399 18.2045 15.5839 18.1797 15.5796C18.063 15.5594 17.9423 15.484 17.5209 15.484C17.1311 15.484 16.9547 15.5594 16.838 15.5796Z" fill="white" stroke="black" stroke-width="0.03"/>
<path d="M16.7247 15.6754C16.7249 15.6767 16.7249 15.678 16.7245 15.6793C16.7241 15.6806 16.7235 15.6817 16.7226 15.6828C16.7217 15.6838 16.7206 15.6847 16.7194 15.6853C16.7181 15.686 16.7167 15.6864 16.7153 15.6865C16.7139 15.6867 16.7124 15.6865 16.7111 15.6862C16.7097 15.6858 16.7084 15.6852 16.7073 15.6844C16.7062 15.6835 16.7053 15.6825 16.7046 15.6813C16.7039 15.6802 16.7035 15.6789 16.7034 15.6776C16.7032 15.6763 16.7033 15.675 16.7037 15.6737C16.704 15.6725 16.7047 15.6713 16.7056 15.6702C16.7064 15.6692 16.7075 15.6683 16.7088 15.6677C16.71 15.6671 16.7114 15.6666 16.7128 15.6665C16.7143 15.6663 16.7157 15.6665 16.7171 15.6668C16.7184 15.6672 16.7197 15.6678 16.7208 15.6687C16.7219 15.6695 16.7229 15.6705 16.7235 15.6717C16.7242 15.6728 16.7246 15.6741 16.7247 15.6754Z" fill="black" stroke="black" stroke-width="0.03"/>
<path d="M16.716 15.6988L16.8093 15.6556L16.7646 15.6855L16.7952 15.6815L16.7682 15.6967L16.8143 15.6948L16.716 15.6988Z" fill="black" stroke="black" stroke-width="0.03"/>
<path d="M20 6L20 18L4 18L4 6L20 6ZM20 5L4 5C3.4 5 3 5.4 3 6L3 18C3 18.6 3.4 19 4 19L20 19C20.6 19 21 18.6 21 18L21 6C21 5.4 20.6 5 20 5Z" fill="none"/>
<defs>
<clipPath id="clip0_14099_114067">
<rect width="9" height="4.5" fill="white" transform="translate(4 6)"/>
</clipPath>
</defs>
</svg>
