<svg width="24" height="24" viewBox="0 0 24 24" fill="none" xmlns="http://www.w3.org/2000/svg">
<path d="M20 6H4V18H20V6Z" fill="#009E49"/>
<path d="M20 6H4V12H20V6Z" fill="#EF2B2D"/>
<path d="M20 6L20 18L4 18L4 6L20 6ZM20 5L4 5C3.4 5 3 5.4 3 6L3 18C3 18.6 3.4 19 4 19L20 19C20.6 19 21 18.6 21 18L21 6C21 5.4 20.6 5 20 5Z" fill="none"/>
<path d="M12 9L12.6735 11.0729H14.8532L13.0898 12.3541L13.7634 14.4271L12 13.1459L10.2366 14.4271L10.9102 12.3541L9.14683 11.0729H11.3265L12 9Z" fill="#FCD116"/>
</svg>
