<svg width="24" height="24" viewBox="0 0 24 24" fill="none" xmlns="http://www.w3.org/2000/svg">
<path d="M3 6H21L3 18H21L3 6Z" fill="#CE1126"/>
<path d="M3 6V18L21 6V18L3 6Z" fill="#1EB53A"/>
<path d="M3 6L21 18L3 6ZM21 6L3 18L21 6Z" fill="black"/>
<path d="M3 6L21 18M21 6L3 18" stroke="white" stroke-width="0.02"/>
<path d="M12.0004 15.1133C13.6904 15.1133 15.0604 13.718 15.0604 11.9967C15.0604 10.2754 13.6904 8.88 12.0004 8.88C10.3104 8.88 8.94043 10.2754 8.94043 11.9967C8.94043 13.718 10.3104 15.1133 12.0004 15.1133Z" fill="white"/>
<path d="M20 6L20 18L4 18L4 6L20 6ZM20 5L4 5C3.4 5 3 5.4 3 6L3 18C3 18.6 3.4 19 4 19L20 19C20.6 19 21 18.6 21 18L21 6C21 5.4 20.6 5 20 5Z" fill="none"/>
<g clip-path="url(#clip0_14099_114331)">
<path fill-rule="evenodd" clip-rule="evenodd" d="M4 6L12 12L4 18V6ZM20 6L12 12L20 18V6Z" fill="#18B637"/>
<path fill-rule="evenodd" clip-rule="evenodd" d="M4 6L12 12L20 6H4ZM4 18L12 12L20 18H4Z" fill="#CF0921"/>
<path fill-rule="evenodd" clip-rule="evenodd" d="M20 6H18.5093L4 16.882V18H5.49067L20 7.11797V6Z" fill="white"/>
<path fill-rule="evenodd" clip-rule="evenodd" d="M15 11.9995C15 12.7953 14.6839 13.5585 14.1213 14.1212C13.5587 14.6839 12.7956 15 12 15C11.2044 15 10.4413 14.6839 9.87868 14.1212C9.31607 13.5585 9 12.7953 9 11.9995C9 11.204 9.31596 10.441 9.87838 9.87853C10.4408 9.31602 11.2036 9 11.999 9C12.7944 9 13.5572 9.31602 14.1196 9.87853C14.682 10.441 14.998 11.204 14.998 11.9995H15Z" fill="white"/>
<path fill-rule="evenodd" clip-rule="evenodd" d="M4 6V7.11797L18.5093 18H20V16.882L5.49067 6H4Z" fill="white"/>
<path fill-rule="evenodd" clip-rule="evenodd" d="M12.7607 10.6859L12.2801 10.693L12.0311 11.0773L11.7845 10.693L11.3064 10.6836L11.538 10.2875L11.3089 9.89375L11.787 9.88437L12.036 9.5L12.2826 9.88672L12.7607 9.89609L12.5291 10.2898L12.7607 10.6859ZM11.152 13.3016L10.6739 13.3086L10.4249 13.693L10.1783 13.3086L9.7002 13.2992L9.93179 12.9031L9.70269 12.5094L10.1808 12.5L10.4298 12.1156L10.6764 12.5023L11.1545 12.5117L10.9229 12.9055L11.152 13.3016ZM14.4042 13.3016L13.9261 13.3086L13.6771 13.693L13.4281 13.3086L12.9524 13.2992L13.184 12.9031L12.9524 12.5094L13.4306 12.5L13.6796 12.1156L13.9286 12.5023L14.4067 12.5117L14.1727 12.9055L14.4042 13.3016Z" fill="#CF0921" stroke="#18B637" stroke-width="0.1"/>
</g>
<defs>
<clipPath id="clip0_14099_114331">
<rect width="17" height="12" fill="white" transform="translate(4 6)"/>
</clipPath>
</defs>
</svg>
