<svg width="24" height="24" viewBox="0 0 24 24" fill="none" xmlns="http://www.w3.org/2000/svg">
<path d="M20 6H4V18H20V6Z" fill="#003893"/>
<path d="M20 12H4V15H20V12Z" fill="white"/>
<path d="M20 13H4V14H20V13Z" fill="#CF2027"/>
<path d="M10.1201 9.89844L9.97179 10.4691L10.2 10.5618" fill="#F7D116"/>
<path d="M20 6L20 18L4 18L4 6L20 6ZM20 5L4 5C3.4 5 3 5.4 3 6L3 18C3 18.6 3.4 19 4 19L20 19C20.6 19 21 18.6 21 18L21 6C21 5.4 20.6 5 20 5Z" fill="none"/>
<g clip-path="url(#clip0_14099_114347)">
<path fill-rule="evenodd" clip-rule="evenodd" d="M3.99258 11.4755H23.883V16.3165H3.99023L3.99258 11.4755Z" fill="white"/>
<path fill-rule="evenodd" clip-rule="evenodd" d="M4.00684 6H23.8878V12.0301H4.00684V6ZM4.01389 15.0687H24.0382V18.032H4.01389V15.0687Z" fill="#081873"/>
<path fill-rule="evenodd" clip-rule="evenodd" d="M4.01367 13.1111H23.8947V14.0417H4.01367V13.1111Z" fill="#DE3929"/>
<path fill-rule="evenodd" clip-rule="evenodd" d="M9.97136 15.3812L10.1265 15.8606H10.6294L10.2205 16.1591L10.3756 16.6408L9.97136 16.34L9.56246 16.6385L9.71991 16.1567L9.31101 15.8583H9.81626M14.3424 11.8844L14.4998 12.3662H15.0004L14.5915 12.6623L14.7466 13.144L14.3377 12.8456L13.9288 13.144L14.0839 12.6623L13.675 12.3662H14.1826M8.96556 13.8796L9.12066 14.3613H9.62591L9.21936 14.6621L9.37681 15.1415L8.96791 14.8454L8.55901 15.1415L8.71411 14.6621L8.30521 14.3637H8.81046M14.3424 13.7433L14.4998 14.2227H15.0004L14.5915 14.5211L14.7466 15.0005L14.3377 14.7044L13.9288 15.0029L14.0839 14.5211L13.675 14.2227H14.1826M13.2308 10.4227L13.3883 10.9021H13.8959L13.487 11.2006L13.6421 11.6823L13.2332 11.3839L12.8243 11.6823L12.9817 11.2006L12.5705 10.9021H13.0781M11.5623 9.8399L11.7198 10.3217H12.225L11.8161 10.6178L11.9712 11.0995L11.5623 10.8034L11.1534 11.0995L11.3109 10.6178L10.902 10.3217H11.4049M9.88911 10.3898L10.0466 10.8716H10.5518L10.1429 11.1677L10.3004 11.6494L9.88911 11.351L9.48021 11.6494L9.63766 11.1677L9.22876 10.8716H9.73636M8.91856 11.8868L9.07366 12.3685H9.58126L9.17001 12.6646L9.32746 13.1464L8.91856 12.8479L8.50966 13.1464L8.66476 12.6646L8.25586 12.3685H8.76111M11.5623 15.8794L11.7198 16.3612H12.225L11.8161 16.6573L11.9736 17.139L11.5623 16.8406L11.1534 17.139L11.3109 16.6573L10.902 16.3612H11.4049M13.3366 15.3812L13.4917 15.8606H13.9969L13.5904 16.1591L13.7478 16.6408L13.3389 16.3424L12.9277 16.6408L13.0851 16.1591L12.6762 15.8606H13.1815" fill="#FFCE08"/>
</g>
<defs>
<clipPath id="clip0_14099_114347">
<rect width="16" height="12" fill="white" transform="translate(4 6)"/>
</clipPath>
</defs>
</svg>
