<svg width="24" height="24" viewBox="0 0 24 24" fill="none" xmlns="http://www.w3.org/2000/svg">
<path d="M20 6H4V18H20V6Z" fill="#032EA1"/>
<path d="M20 9H4V15H20V9Z" fill="#E00025"/>
<path d="M10.1592 11.6554H13.5359V12.969H10.1592V11.6554Z" fill="white" stroke="black" stroke-width="0.03" stroke-linejoin="bevel"/>
<path d="M13.4687 12.3798H13.3623V12.8746H13.4687V12.3798Z" fill="white" stroke="black" stroke-width="0.03" stroke-linejoin="bevel"/>
<path d="M13.5359 12.1369H10.1592V12.2896H13.5359V12.1369Z" fill="white" stroke="black" stroke-width="0.03" stroke-linejoin="bevel"/>
<path d="M13.5359 11.9302H10.1592V12.0649H13.5359V11.9302Z" fill="white" stroke="black" stroke-width="0.03" stroke-linejoin="bevel"/>
<path d="M13.5359 11.7235H10.1592V11.8542H13.5359V11.7235Z" fill="white" stroke="black" stroke-width="0.03" stroke-linejoin="bevel"/>
<path d="M11.1552 12.3798H11.0488V12.8746H11.1552V12.3798Z" fill="white" stroke="black" stroke-width="0.03" stroke-linejoin="bevel"/>
<path d="M12.6084 12.3798H12.502V12.8746H12.6084V12.3798Z" fill="white" stroke="black" stroke-width="0.03" stroke-linejoin="bevel"/>
<path d="M10.2929 12.3798H10.1865V12.8746H10.2929V12.3798Z" fill="white" stroke="black" stroke-width="0.03" stroke-linejoin="bevel"/>
<path d="M10.5009 12.3798H10.3945V12.8746H10.5009V12.3798Z" fill="white" stroke="black" stroke-width="0.03" stroke-linejoin="bevel"/>
<path d="M10.7236 12.3798H10.6172V12.8746H10.7236V12.3798Z" fill="white" stroke="black" stroke-width="0.03" stroke-linejoin="bevel"/>
<path d="M10.9463 12.3798H10.8398V12.8746H10.9463V12.3798Z" fill="white" stroke="black" stroke-width="0.03" stroke-linejoin="bevel"/>
<path d="M12.8105 12.3798H12.7041V12.8746H12.8105V12.3798Z" fill="white" stroke="black" stroke-width="0.03" stroke-linejoin="bevel"/>
<path d="M13.0332 12.3798H12.9268V12.8746H13.0332V12.3798Z" fill="white" stroke="black" stroke-width="0.03" stroke-linejoin="bevel"/>
<path d="M13.2558 12.3798H13.1494V12.8746H13.2558V12.3798Z" fill="white" stroke="black" stroke-width="0.03" stroke-linejoin="bevel"/>
<path d="M8.83887 13.038C8.8911 13.0111 8.95069 12.9484 8.97017 12.8784H14.6991C14.7186 12.9484 14.7782 13.0111 14.8304 13.038H8.83887Z" fill="white" stroke="black" stroke-width="0.03"/>
<path d="M11.7618 9.65383C11.7618 9.65383 11.7575 9.53045 11.8286 9.52911C11.8996 9.53045 11.8953 9.65383 11.8953 9.65383H11.7618Z" fill="white" stroke="black" stroke-width="0.03"/>
<path d="M11.3908 11.29V11.1239C11.3884 11.0408 11.3089 11.0348 11.3065 10.9743C11.3065 10.9743 11.2963 10.8835 11.3199 10.8421C11.3521 10.9635 11.4106 10.9412 11.4106 10.8912C11.4106 10.8477 11.3775 10.8072 11.3095 10.7013C11.2878 10.6675 11.3012 10.5615 11.3317 10.5237C11.3435 10.6158 11.357 10.6599 11.3961 10.6599C11.42 10.6599 11.4395 10.6441 11.4395 10.598C11.4395 10.5393 11.4001 10.5097 11.3808 10.4562C11.3583 10.3939 11.3738 10.3304 11.4113 10.2949C11.4273 10.3857 11.4226 10.422 11.4625 10.422C11.543 10.3962 11.4625 10.2784 11.4453 10.2487C11.4255 10.214 11.4719 10.1449 11.4719 10.1449C11.4975 10.2256 11.5057 10.2321 11.5333 10.2247C11.5681 10.2152 11.5637 10.163 11.5211 10.1208C11.4943 10.0941 11.4972 10.0544 11.526 10.0225C11.5549 10.0797 11.5919 10.0762 11.5955 10.0423L11.5722 9.91049H12.0842L12.0588 10.038C12.0515 10.0744 12.1002 10.0824 12.1305 10.0225C12.1593 10.0544 12.1622 10.0941 12.1353 10.1208C12.0928 10.163 12.0883 10.2152 12.1232 10.2247C12.1508 10.2321 12.159 10.2256 12.1846 10.1449C12.1846 10.1449 12.2262 10.192 12.2112 10.2487C12.194 10.2784 12.1135 10.3962 12.194 10.422C12.2339 10.422 12.2292 10.3857 12.2452 10.2949C12.2827 10.3304 12.2982 10.3939 12.2757 10.4562C12.2563 10.5097 12.217 10.5393 12.217 10.598C12.217 10.6441 12.2365 10.6599 12.2604 10.6599C12.2995 10.6599 12.313 10.6158 12.3248 10.5237C12.3553 10.5615 12.3687 10.6675 12.347 10.7013C12.279 10.8071 12.2459 10.8477 12.2459 10.8912C12.2459 10.9412 12.3044 10.9635 12.3365 10.8421C12.3602 10.8835 12.3499 10.9743 12.3499 10.9743C12.3476 11.0348 12.2681 11.0408 12.2657 11.1239V11.29L11.3908 11.29Z" fill="white" stroke="black" stroke-width="0.03"/>
<path d="M11.6055 9.90839L11.5938 9.81464H12.0637L12.0519 9.90839H11.6055Z" fill="white" stroke="black" stroke-width="0.03"/>
<path d="M11.6371 9.81284L11.627 9.73578H12.0306L12.0205 9.81284H11.6371Z" fill="white" stroke="black" stroke-width="0.03"/>
<path d="M11.7011 9.73401L11.6943 9.65695H11.9631L11.9564 9.73401H11.7011Z" fill="white" stroke="black" stroke-width="0.03"/>
<path d="M12.6806 13.0357C12.6205 13.0123 12.5329 12.9482 12.5329 12.8837V12.1547L12.6112 12.054L11.0452 12.054L11.1203 12.1548V12.8837C11.1203 12.9482 11.0601 13.0123 11 13.0357L12.6806 13.0357Z" fill="white" stroke="black" stroke-width="0.03"/>
<path d="M11.4297 12.38H11.3232V12.8748H11.4297V12.38Z" fill="white" stroke="black" stroke-width="0.03" stroke-linejoin="bevel"/>
<path d="M12.3301 12.38H12.2236V12.8748H12.3301V12.38Z" fill="white" stroke="black" stroke-width="0.03" stroke-linejoin="bevel"/>
<path d="M11.0176 11.2251V11.6646V11.8749V12.0548H12.6206V11.8761L12.6229 11.2251C12.5573 11.2512 12.5458 11.3113 12.5458 11.3113V11.6646H11.0993V11.3113C11.0993 11.3113 11.0831 11.2512 11.0176 11.2251L11.0176 11.2251Z" fill="white" stroke="black" stroke-width="0.03"/>
<path d="M12.4029 13.0374C12.3505 13.0139 12.2364 12.9498 12.2364 12.8853V12.0695C12.2476 12.024 12.3087 11.9971 12.348 11.9688H11.285C11.3356 11.9958 11.392 12.0183 11.4122 12.0695V12.8853C11.4122 12.9498 11.3219 13.0139 11.2695 13.0374H12.4029Z" fill="white" stroke="black" stroke-width="0.03"/>
<path d="M12.5455 11.9765L12.5454 11.3889L12.3997 11.3889V11.3317H11.2473V11.3889L11.1016 11.3889L11.1016 11.9765L12.5455 11.9765Z" fill="white" stroke="black" stroke-width="0.03"/>
<path d="M12.1733 13.0361C12.1219 13.0127 12.0472 12.9485 12.0472 12.884V12.1876L12.0893 12.1243H11.5644L11.6065 12.1876V12.884C11.6065 12.9485 11.5318 13.0127 11.4805 13.0361L12.1733 13.0361Z" fill="white" stroke="black" stroke-width="0.03"/>
<path d="M11.6934 12.1243H11.9594V13.0356H11.6934V12.1243Z" fill="white" stroke="black" stroke-width="0.03"/>
<path d="M12.0997 11.9249C12.1003 11.8649 12.2729 11.8622 12.3617 11.8111H11.2949C11.3838 11.8622 11.5523 11.8664 11.5523 11.9249L11.5884 12.0414L12.0301 12.0593L12.0997 11.9249Z" fill="white" stroke="black" stroke-width="0.03" stroke-linejoin="bevel"/>
<path d="M12.3083 11.2902C12.3083 11.1433 12.3144 11.0866 12.359 11.0866L12.359 11.554C12.2495 11.5942 12.1713 11.7355 12.1713 11.7355L11.4826 11.7355C11.4826 11.7355 11.4044 11.5942 11.2949 11.554V11.0866C11.35 11.0866 11.3504 11.1458 11.3504 11.2902H12.3083Z" fill="white" stroke="black" stroke-width="0.03"/>
<path d="M12.3584 11.2294C12.3584 11.0609 12.5023 11.0419 12.5023 11.0419V11.1919C12.4476 11.1895 12.4211 11.2392 12.4211 11.3132C12.4211 11.3872 12.4653 11.3884 12.4653 11.3884V11.8141H12.3584V11.2294Z" fill="white" stroke="black" stroke-width="0.03"/>
<path d="M11.2953 11.2294C11.2953 11.0609 11.1514 11.0419 11.1514 11.0419V11.1919C11.2062 11.1895 11.2326 11.2392 11.2326 11.3132C11.2326 11.3872 11.1885 11.3884 11.1885 11.3884V11.8141H11.2953V11.2294Z" fill="white" stroke="black" stroke-width="0.03"/>
<path d="M11.5791 10.0682H12.0873" stroke="black" stroke-width="0.03"/>
<path d="M11.5186 10.228H12.1393" stroke="black" stroke-width="0.03"/>
<path d="M11.459 10.424H12.198" stroke="black" stroke-width="0.03"/>
<path d="M11.3955 10.6605H12.2719" stroke="black" stroke-width="0.03"/>
<path d="M11.375 10.9332H12.2778" stroke="black" stroke-width="0.03"/>
<path d="M11.1016 11.8175H12.5455" stroke="black" stroke-width="0.03"/>
<path d="M12.0947 11.8175H11.5596V12.0163H12.0947V11.8175Z" stroke="black" stroke-width="0.03"/>
<path d="M11.4922 11.3784C11.5809 11.4861 11.5727 11.6688 11.5717 11.7765H12.0863C12.0853 11.6688 12.077 11.4861 12.1658 11.3784H11.4922Z" fill="white" stroke="black" stroke-width="0.03"/>
<path d="M11.7815 10.1439L11.7109 10.1071V10.0022C11.7398 10.011 11.7721 10.0146 11.7753 10.061C11.7853 9.9947 11.8034 9.99794 11.8319 9.97211C11.8603 9.99795 11.8784 9.9947 11.8884 10.061C11.8916 10.0146 11.9239 10.011 11.9528 10.0022V10.1071L11.8823 10.1439H11.7815Z" fill="white" stroke="black" stroke-width="0.03"/>
<path d="M11.7773 10.3159L11.6602 10.2345V10.1379C11.7012 10.1475 11.7473 10.1514 11.7518 10.2023C11.7661 10.1296 11.7919 10.0921 11.8324 10.0637C11.8729 10.0921 11.8986 10.1296 11.9129 10.2023C11.9174 10.1514 11.9635 10.1475 12.0046 10.1379V10.2345L11.8875 10.3159H11.7773Z" fill="white" stroke="black" stroke-width="0.03"/>
<path d="M11.7684 10.5855L11.6338 10.466V10.3239C11.681 10.338 11.734 10.3438 11.7392 10.4186C11.7556 10.3118 11.7852 10.2566 11.8318 10.215C11.8784 10.2566 11.908 10.3118 11.9244 10.4186C11.9296 10.3438 11.9826 10.338 12.0298 10.3239V10.466L11.8952 10.5855H11.7684Z" fill="white" stroke="black" stroke-width="0.03"/>
<path d="M12.0171 10.7434L11.8954 10.9137H11.7575L11.6357 10.7434H12.0171Z" fill="white" stroke="black" stroke-width="0.03"/>
<path d="M11.5654 11.0289C11.6263 11.0626 11.6488 11.1296 11.6553 11.2555H11.9981C12.0046 11.1296 12.0271 11.0626 12.088 11.0289H11.5654Z" fill="white" stroke="black" stroke-width="0.03"/>
<path d="M12.0926 10.7436V10.5726C12.0348 10.5887 11.9973 10.6233 11.9806 10.6703C11.9806 10.6135 11.9067 10.4826 11.8261 10.4174C11.7453 10.4904 11.6701 10.6088 11.6716 10.6703C11.6579 10.6255 11.6174 10.5887 11.5596 10.5726V10.7436L12.0926 10.7436Z" fill="white" stroke="black" stroke-width="0.03" stroke-linejoin="bevel"/>
<path d="M12.1185 11.0292L12.1185 10.8581C12.0551 10.8742 12.014 10.9088 11.9957 10.9558C11.9957 10.899 11.9147 10.7681 11.8263 10.7029C11.7377 10.7759 11.6553 10.8943 11.657 10.9558C11.6419 10.9111 11.5976 10.8742 11.5342 10.8581V11.0292L12.1185 11.0292Z" fill="white" stroke="black" stroke-width="0.03" stroke-linejoin="bevel"/>
<path d="M12.1899 11.3799V11.1826C12.111 11.2032 12.0619 11.2622 12.0371 11.2966C12.0371 11.1897 11.9178 11.0269 11.8264 10.9735C11.7326 11.0283 11.6157 11.1966 11.6157 11.2966C11.5902 11.2624 11.5418 11.2032 11.4629 11.1826V11.3799H12.1899Z" fill="white" stroke="black" stroke-width="0.03" stroke-linejoin="bevel"/>
<path d="M12.1474 11.8183V11.6155C12.0778 11.643 12.057 11.7109 12.035 11.757C12.0436 11.5512 11.9205 11.3301 11.8266 11.274C11.7328 11.3301 11.6073 11.5559 11.6182 11.757C11.5957 11.7112 11.5755 11.643 11.5059 11.6155V11.8183L12.1474 11.8183Z" fill="white" stroke="black" stroke-width="0.03" stroke-linejoin="bevel"/>
<path d="M12.0986 12.1256V11.9227C12.0257 11.9402 12.0212 11.9674 11.998 12.0129C12.0066 11.89 11.9205 11.7498 11.8267 11.6937C11.7328 11.7498 11.6467 11.89 11.6553 12.0129C11.6321 11.9674 11.6293 11.9402 11.5547 11.9227V12.1256H12.0986Z" fill="white" stroke="black" stroke-width="0.03"/>
<path d="M8.97067 12.8779V12.2647C8.9508 12.1866 8.88524 12.1175 8.83594 12.1037V11.5639L8.94697 11.6246L9.07371 12.1889V12.8779L8.97067 12.8779Z" fill="white" stroke="black" stroke-width="0.03"/>
<path d="M8.97067 12.8794V12.2639C8.9508 12.1858 8.88524 12.1167 8.83594 12.1029V11.5256C8.91047 11.5256 8.94697 11.6238 8.94697 11.6238L9.07371 12.1881V12.8747L8.97067 12.8794Z" fill="white" stroke="black" stroke-width="0.03"/>
<path d="M8.8916 13.0357C8.94293 13.0123 9.01767 12.9482 9.01767 12.8837V12.1172L8.9825 12.054H10.2739L10.2235 12.1172V12.8837C10.2235 12.9482 10.2749 13.0123 10.3262 13.0357H8.8916Z" fill="white" stroke="black" stroke-width="0.03"/>
<path d="M10.0657 13.0357C10.0144 13.0123 9.93965 12.9482 9.93965 12.8837V12.1548L10.047 12.054L9.16908 12.054L9.27646 12.1548V12.8837C9.27646 12.9482 9.20172 13.0123 9.15039 13.0357H10.0657Z" fill="white" stroke="black" stroke-width="0.03"/>
<path d="M9.94279 13.0361C9.89146 13.0127 9.81672 12.9485 9.81672 12.884V12.2251L9.88701 12.1243H9.32922L9.39951 12.2251V12.884C9.39951 12.9485 9.32477 13.0127 9.27344 13.0361H9.94279Z" fill="white" stroke="black" stroke-width="0.03"/>
<path d="M9.47461 12.1243H9.74113L9.74113 13.0361H9.47461L9.47461 12.1243Z" fill="white" stroke="black" stroke-width="0.03"/>
<path d="M9.21872 12.38H9.1123V12.8748H9.21872V12.38Z" fill="white" stroke="black" stroke-width="0.03" stroke-linejoin="bevel"/>
<path d="M10.1308 12.38H10.0244V12.8748H10.1308V12.38Z" fill="white" stroke="black" stroke-width="0.03" stroke-linejoin="bevel"/>
<path d="M9.02148 11.5447H9.14968V12.052H9.02148V11.5447Z" fill="white" stroke="black" stroke-width="0.03" stroke-linejoin="bevel"/>
<path d="M9.02148 11.4489H9.14892V11.543H9.02148V11.4489Z" fill="white" stroke="black" stroke-width="0.03" stroke-linejoin="bevel"/>
<path d="M10.0752 11.6534H10.258V12.045H10.0752V11.6534Z" fill="white" stroke="black" stroke-width="0.03" stroke-linejoin="bevel"/>
<path d="M9.14746 12.0482V11.18C9.18402 11.18 9.18966 11.3072 9.27354 11.3072C9.31721 11.3072 9.31257 11.2545 9.28805 11.2116C9.26634 11.1736 9.23947 11.121 9.27597 11.0232C9.30098 11.0981 9.36831 11.1218 9.35587 11.0749C9.33449 10.9942 9.27295 10.981 9.31913 10.8558C9.33516 10.9602 9.40141 10.9556 9.38532 10.8949C9.3672 10.8265 9.32974 10.7985 9.37596 10.7021C9.40183 10.8116 9.43684 10.8052 9.43684 10.7372C9.43684 10.6368 9.43303 10.5285 9.56155 10.4883C9.56155 10.4883 9.56897 10.3963 9.61532 10.3963C9.66168 10.3963 9.6691 10.4883 9.6691 10.4883C9.79762 10.5285 9.7938 10.6368 9.7938 10.7372C9.7938 10.8051 9.82881 10.8116 9.85469 10.7021C9.9009 10.7985 9.86345 10.8265 9.84532 10.8949C9.82923 10.9556 9.89548 10.9602 9.91152 10.8558C9.9577 10.981 9.89615 10.9942 9.87477 11.0749C9.86233 11.1218 9.92966 11.0981 9.95467 11.0232C9.99118 11.121 9.96431 11.1736 9.9426 11.2116C9.91808 11.2545 9.91344 11.3072 9.9571 11.3072C10.041 11.3072 10.0466 11.18 10.0832 11.18V12.0482H9.14746Z" fill="white" stroke="black" stroke-width="0.03"/>
<path d="M8.94629 11.3932L8.94629 12.0556H9.0208L9.0208 11.3915C8.99394 11.3778 8.96873 11.3757 8.94629 11.3932L8.94629 11.3932Z" fill="white" stroke="black" stroke-width="0.03"/>
<path d="M8.94922 11.8217C9.04157 11.8695 9.13304 11.9247 9.1562 12.0555H8.94922V11.8217Z" fill="white" stroke="black" stroke-width="0.03"/>
<path d="M10.2295 11.6232L10.2295 12.0554H10.2899V11.6221C10.271 11.6132 10.2453 11.6118 10.2295 11.6232L10.2295 11.6232Z" fill="white" stroke="black" stroke-width="0.03"/>
<path d="M10.29 11.8175C10.1976 11.8652 10.1062 11.9204 10.083 12.0513H10.29V11.8175Z" fill="white" stroke="black" stroke-width="0.03"/>
<path d="M9.68039 10.8088L9.73422 10.763V10.7045C9.71453 10.7064 9.70378 10.7132 9.68924 10.7325C9.67687 10.6937 9.64966 10.6634 9.6132 10.6445C9.57675 10.6634 9.54955 10.6923 9.53717 10.7311C9.52263 10.7119 9.51188 10.7064 9.49219 10.7045V10.763L9.54602 10.8088L9.68039 10.8088Z" fill="white" stroke="black" stroke-width="0.03"/>
<path d="M9.7092 10.9555L9.73422 10.9008V10.8246C9.71453 10.8266 9.70378 10.8335 9.68924 10.8531C9.67687 10.8137 9.64966 10.7829 9.6132 10.7639C9.57675 10.7829 9.54955 10.8123 9.53717 10.8517C9.52263 10.8321 9.51188 10.8266 9.49219 10.8246V10.9008L9.51721 10.9555L9.7092 10.9555Z" fill="white" stroke="black" stroke-width="0.03"/>
<path d="M9.71315 11.1551L9.79311 11.0565V10.9592C9.76386 10.9625 9.7479 10.9743 9.72629 11.0074C9.70792 10.9407 9.66751 10.9262 9.61335 10.8938C9.5592 10.9262 9.51879 10.9384 9.50041 11.005C9.47881 10.9719 9.46285 10.9626 9.43359 10.9592V11.0565L9.51356 11.1551H9.71315Z" fill="white" stroke="black" stroke-width="0.03"/>
<path d="M9.73575 11.3505C9.73575 11.3505 9.82893 11.2683 9.83446 11.2232V11.1192C9.79835 11.1235 9.76419 11.1329 9.73752 11.1757C9.71483 11.0896 9.6794 11.0656 9.61254 11.0238C9.54569 11.0656 9.51026 11.0896 9.48757 11.1757C9.4609 11.1329 9.42674 11.1235 9.39062 11.1192V11.2232C9.40239 11.2683 9.48934 11.3505 9.48934 11.3505H9.73575Z" fill="white" stroke="black" stroke-width="0.03"/>
<path d="M9.77578 11.7094C9.77578 11.7094 9.90341 11.5665 9.90633 11.5109V11.3487C9.85857 11.3554 9.8134 11.3886 9.77812 11.4552C9.74811 11.321 9.70126 11.2274 9.61283 11.1623C9.52441 11.2274 9.47756 11.321 9.44755 11.4552C9.41227 11.3886 9.3671 11.3554 9.31934 11.3487V11.5109C9.3285 11.5665 9.44989 11.7094 9.44989 11.7094H9.77578Z" fill="white" stroke="black" stroke-width="0.03"/>
<path d="M9.77578 11.9236C9.77578 11.9236 9.88486 11.8113 9.90633 11.7626V11.6004C9.85857 11.6071 9.8134 11.6403 9.77812 11.707C9.74811 11.5727 9.70126 11.4958 9.61283 11.4308C9.52441 11.4958 9.47756 11.5727 9.44755 11.707C9.41227 11.6403 9.3671 11.6071 9.31934 11.6004V11.7626C9.34705 11.8113 9.44989 11.9236 9.44989 11.9236H9.77578Z" fill="white" stroke="black" stroke-width="0.03"/>
<path d="M9.81961 12.0484C9.78777 11.9084 9.76039 11.8045 9.60707 11.6992C9.45375 11.8045 9.42638 11.9084 9.39453 12.0484H9.81961Z" fill="white" stroke="black" stroke-width="0.03"/>
<path d="M9.89872 12.1251V11.9223C9.82909 11.9499 9.76617 11.9907 9.74298 12.0361C9.71705 11.9235 9.66711 11.8739 9.60489 11.8058C9.54268 11.8739 9.50101 11.9235 9.47509 12.0361C9.45189 11.9907 9.38896 11.9499 9.31934 11.9223L9.31934 12.1251L9.89872 12.1251Z" fill="white" stroke="black" stroke-width="0.03"/>
<path d="M13.5351 12.881V12.2678C13.5153 12.1897 13.4497 12.1206 13.4004 12.1068V11.567L13.5114 11.6277L13.6382 12.192V12.881L13.5351 12.881Z" fill="white" stroke="black" stroke-width="0.03"/>
<path d="M13.5351 12.8818V12.2662C13.5153 12.1882 13.4497 12.1191 13.4004 12.1052V11.528C13.4749 11.528 13.5114 11.6261 13.5114 11.6261L13.6382 12.1905V12.8771L13.5351 12.8818Z" fill="white" stroke="black" stroke-width="0.03"/>
<path d="M13.4561 13.039C13.5074 13.0156 13.5821 12.9514 13.5821 12.8869V12.1205L13.547 12.0573H14.8384L14.788 12.1205V12.8869C14.788 12.9514 14.8393 13.0156 14.8906 13.039H13.4561Z" fill="white" stroke="black" stroke-width="0.03"/>
<path d="M14.6302 13.039C14.5788 13.0156 14.5041 12.9515 14.5041 12.8869V12.158L14.6115 12.0573L13.7335 12.0573L13.8409 12.158V12.8869C13.8409 12.9515 13.7662 13.0156 13.7148 13.039H14.6302Z" fill="white" stroke="black" stroke-width="0.03"/>
<path d="M14.5072 13.0394C14.4559 13.0159 14.3812 12.9518 14.3812 12.8873V12.2283L14.4515 12.1276H13.8937L13.964 12.2283V12.8873C13.964 12.9518 13.8892 13.0159 13.8379 13.0394H14.5072Z" fill="white" stroke="black" stroke-width="0.03"/>
<path d="M14.0391 12.1276H14.3056L14.3056 13.0394H14.0391L14.0391 12.1276Z" fill="white" stroke="black" stroke-width="0.03"/>
<path d="M13.7832 12.3834H13.6768V12.8783H13.7832V12.3834Z" fill="white" stroke="black" stroke-width="0.03" stroke-linejoin="bevel"/>
<path d="M14.6953 12.3834H14.5889V12.8783H14.6953V12.3834Z" fill="white" stroke="black" stroke-width="0.03" stroke-linejoin="bevel"/>
<path d="M13.5859 11.5475H13.7141V12.0548H13.5859V11.5475Z" fill="white" stroke="black" stroke-width="0.03" stroke-linejoin="bevel"/>
<path d="M13.5859 11.452H13.7134V11.5462H13.5859V11.452Z" fill="white" stroke="black" stroke-width="0.03" stroke-linejoin="bevel"/>
<path d="M14.6396 11.6569H14.8224V12.0485H14.6396V11.6569Z" fill="white" stroke="black" stroke-width="0.03" stroke-linejoin="bevel"/>
<path d="M13.7119 12.0509V11.1827C13.7485 11.1827 13.7541 11.31 13.838 11.31C13.8817 11.31 13.877 11.2573 13.8525 11.2143C13.8308 11.1763 13.8039 11.1238 13.8404 11.026C13.8654 11.1008 13.9328 11.1246 13.9203 11.0776C13.8989 10.997 13.8374 10.9837 13.8836 10.8586C13.8996 10.963 13.9659 10.9584 13.9498 10.8977C13.9317 10.8293 13.8942 10.8012 13.9404 10.7048C13.9663 10.8143 14.0013 10.8079 14.0013 10.74C14.0013 10.6396 13.9975 10.5313 14.126 10.4911C14.126 10.4911 14.1334 10.399 14.1798 10.399C14.2261 10.399 14.2336 10.4911 14.2336 10.4911C14.3621 10.5313 14.3583 10.6396 14.3583 10.74C14.3583 10.8079 14.3933 10.8143 14.4191 10.7048C14.4654 10.8012 14.4279 10.8293 14.4098 10.8977C14.3937 10.9584 14.4599 10.963 14.476 10.8586C14.5221 10.9837 14.4606 10.997 14.4392 11.0776C14.4268 11.1246 14.4941 11.1008 14.5191 11.026C14.5556 11.1238 14.5288 11.1763 14.5071 11.2143C14.4825 11.2572 14.4779 11.31 14.5216 11.31C14.6054 11.31 14.6111 11.1827 14.6476 11.1827V12.0509H13.7119Z" fill="white" stroke="black" stroke-width="0.03"/>
<path d="M13.5107 11.396L13.5107 12.0583H13.5853L13.5853 11.3943C13.5584 11.3806 13.5332 11.3785 13.5107 11.396L13.5107 11.396Z" fill="white" stroke="black" stroke-width="0.03"/>
<path d="M13.5137 11.8248C13.606 11.8726 13.6975 11.9278 13.7207 12.0586H13.5137V11.8248Z" fill="white" stroke="black" stroke-width="0.03"/>
<path d="M14.7939 11.626L14.7939 12.0582H14.8543V11.6249C14.8355 11.6159 14.8097 11.6146 14.7939 11.626L14.7939 11.626Z" fill="white" stroke="black" stroke-width="0.03"/>
<path d="M14.8544 11.8209C14.7621 11.8687 14.6706 11.9239 14.6475 12.0547H14.8544V11.8209Z" fill="white" stroke="black" stroke-width="0.03"/>
<path d="M14.2448 10.8113L14.2987 10.7656V10.707C14.279 10.709 14.2682 10.7158 14.2537 10.7351C14.2413 10.6962 14.2141 10.6659 14.1777 10.6471C14.1412 10.6659 14.114 10.6949 14.1016 10.7337C14.0871 10.7144 14.0763 10.7089 14.0566 10.707V10.7656L14.1105 10.8113L14.2448 10.8113Z" fill="white" stroke="black" stroke-width="0.03"/>
<path d="M14.2737 10.9579L14.2987 10.9032V10.827C14.279 10.829 14.2682 10.8359 14.2537 10.8555C14.2413 10.8161 14.2141 10.7853 14.1777 10.7662C14.1412 10.7853 14.114 10.8147 14.1016 10.8541C14.0871 10.8345 14.0763 10.829 14.0566 10.827V10.9032L14.0817 10.9579L14.2737 10.9579Z" fill="white" stroke="black" stroke-width="0.03"/>
<path d="M14.2776 11.1584L14.3576 11.0598V10.9625C14.3283 10.9658 14.3124 10.9776 14.2907 11.0107C14.2724 10.944 14.232 10.9294 14.1778 10.8971C14.1237 10.9294 14.0832 10.9416 14.0649 11.0083C14.0433 10.9752 14.0273 10.9658 13.998 10.9625V11.0598L14.078 11.1584H14.2776Z" fill="white" stroke="black" stroke-width="0.03"/>
<path d="M14.3002 11.3527C14.3002 11.3527 14.3934 11.2705 14.3989 11.2254V11.1214C14.3628 11.1257 14.3286 11.1351 14.302 11.1779C14.2793 11.0918 14.2439 11.0678 14.177 11.026C14.1101 11.0677 14.0747 11.0918 14.052 11.1779C14.0254 11.1351 13.9912 11.1257 13.9551 11.1214V11.2254C13.9668 11.2705 14.0538 11.3527 14.0538 11.3527H14.3002Z" fill="white" stroke="black" stroke-width="0.03"/>
<path d="M14.3402 11.7117C14.3402 11.7117 14.4679 11.5689 14.4708 11.5133V11.3511C14.423 11.3578 14.3778 11.391 14.3426 11.4576C14.3126 11.3234 14.2657 11.2298 14.1773 11.1647C14.0889 11.2298 14.042 11.3234 14.012 11.4576C13.9767 11.391 13.9316 11.3578 13.8838 11.3511V11.5133C13.893 11.5689 14.0143 11.7117 14.0143 11.7117H14.3402Z" fill="white" stroke="black" stroke-width="0.03"/>
<path d="M14.3402 11.927C14.3402 11.927 14.4493 11.8148 14.4708 11.766V11.6039C14.423 11.6106 14.3778 11.6438 14.3426 11.7104C14.3126 11.5762 14.2657 11.4993 14.1773 11.4342C14.0889 11.4993 14.042 11.5762 14.012 11.7104C13.9767 11.6438 13.9316 11.6105 13.8838 11.6039V11.766C13.9115 11.8148 14.0143 11.927 14.0143 11.927H14.3402Z" fill="white" stroke="black" stroke-width="0.03"/>
<path d="M14.3841 12.051C14.3522 11.911 14.3248 11.8071 14.1715 11.7018C14.0182 11.8071 13.9908 11.911 13.959 12.051H14.3841Z" fill="white" stroke="black" stroke-width="0.03"/>
<path d="M14.4632 12.1286V11.9257C14.3935 11.9533 14.3306 11.9941 14.3074 12.0396C14.2815 11.9269 14.2316 11.8773 14.1693 11.8092C14.1071 11.8773 14.0655 11.9269 14.0395 12.0396C14.0163 11.9941 13.9534 11.9533 13.8838 11.9257L13.8838 12.1286L14.4632 12.1286Z" fill="white" stroke="black" stroke-width="0.03"/>
<path d="M8.19141 13.7789H15.471L15.471 14.1549H8.19141L8.19141 13.7789Z" fill="white" stroke="black" stroke-width="0.03"/>
<path d="M8 14.1539H15.6633L15.6633 14.5293L8.00001 14.5293L8 14.1539Z" fill="white" stroke="black" stroke-width="0.03"/>
<path d="M8.57422 13.2164H15.0892L15.0892 13.4597H8.57422L8.57422 13.2164Z" fill="white" stroke="black" stroke-width="0.03"/>
<path d="M8.38379 13.4572H15.2797L15.2797 13.7759H8.38379L8.38379 13.4572Z" fill="white" stroke="black" stroke-width="0.03"/>
<path d="M8.6875 13.0289H14.9749L14.9749 13.2141H8.6875L8.6875 13.0289Z" fill="white" stroke="black" stroke-width="0.03"/>
<path d="M9.37012 13.0289H9.84503V14.527H9.37012V13.0289Z" fill="white" stroke="black" stroke-width="0.03"/>
<path d="M9.47559 13.0289H9.74018V14.527H9.47559L9.47559 13.0289Z" fill="white" stroke="black" stroke-width="0.03"/>
<path d="M11.5859 13.0289H12.0609V14.527H11.586L11.5859 13.0289Z" fill="white" stroke="black" stroke-width="0.03"/>
<path d="M11.6943 13.0289H11.9589V14.527H11.6943L11.6943 13.0289Z" fill="white" stroke="black" stroke-width="0.03"/>
<path d="M13.8145 13.0289H14.2894V14.527H13.8145V13.0289Z" fill="white" stroke="black" stroke-width="0.03"/>
<path d="M13.9199 13.0289H14.1845V14.527H13.9199L13.9199 13.0289Z" fill="white" stroke="black" stroke-width="0.03"/>
<path d="M8.9707 12.8787H14.6996" stroke="black" stroke-width="0.03"/>
<path d="M9.4707 14.3404H9.74499M9.4707 14.1529H9.74499M9.4707 13.9654H9.74499M9.4707 13.7779H9.74499M9.4707 13.5904H9.74499M9.4707 13.4029H9.74499M9.4707 13.2154H9.74499" stroke="black" stroke-width="0.03"/>
<path d="M11.6953 14.341H11.9507M11.6953 14.1534H11.9507M11.6953 13.9658H11.9507M11.6953 13.7782H11.9507M11.6953 13.5906H11.9507M11.6953 13.403H11.9507M11.6953 13.2154H11.9507" stroke="black" stroke-width="0.03"/>
<path d="M13.915 14.3404H14.1893M13.915 14.1529H14.1893M13.915 13.9654H14.1893M13.915 13.7779H14.1893M13.915 13.5904H14.1893M13.915 13.4029H14.1893M13.915 13.2154H14.1893" stroke="black" stroke-width="0.03"/>
<path d="M20 6L20 18L4 18L4 6L20 6ZM20 5L4 5C3.4 5 3 5.4 3 6L3 18C3 18.6 3.4 19 4 19L20 19C20.6 19 21 18.6 21 18L21 6C21 5.4 20.6 5 20 5Z" fill="#B5B5B5"/>
</svg>
