<svg width="24" height="24" viewBox="0 0 24 24" fill="none" xmlns="http://www.w3.org/2000/svg">
<path d="M10 6H4V18H10V6Z" fill="#007A5E"/>
<path d="M14 6H10V18H14V6Z" fill="#CE1126"/>
<path d="M20 6H14V18H20V6Z" fill="#FCD116"/>
<path d="M20 6L20 18L4 18L4 6L20 6ZM20 5L4 5C3.4 5 3 5.4 3 6L3 18C3 18.6 3.4 19 4 19L20 19C20.6 19 21 18.6 21 18L21 6C21 5.4 20.6 5 20 5Z" fill="none"/>
<path d="M12 10.5L12.3368 11.5365H13.4266L12.5449 12.1771L12.8817 13.2135L12 12.5729L11.1183 13.2135L11.4551 12.1771L10.5734 11.5365H11.6632L12 10.5Z" fill="#FCD116"/>
</svg>
