<svg width="24" height="24" viewBox="0 0 24 24" fill="none" xmlns="http://www.w3.org/2000/svg">
<path d="M20 6H4V18H20V6Z" fill="#DE2910"/>
<path d="M5.99999 7.19922L7.058 10.4554L4.28809 8.44299H7.71189L4.94198 10.4554L5.99999 7.19922Z" fill="#FFDE00"/>
<path d="M9.23509 6.64712L9.1349 7.78399L8.54773 6.80536L9.59799 7.25195L8.48581 7.50798L9.23509 6.64712Z" fill="#FFDE00"/>
<path d="M10.6307 7.98184L10.0972 8.99074L9.93582 7.86094L10.7305 8.6801L9.6061 8.48447L10.6307 7.98184Z" fill="#FFDE00"/>
<path d="M10.764 9.99502L9.86538 10.6985L10.1789 9.60115L10.5703 10.6732L9.6235 10.0359L10.764 9.99502Z" fill="#FFDE00"/>
<path d="M9.21167 10.838L9.15871 11.9781L8.53146 11.0246L9.59933 11.4273L8.49873 11.7292L9.21167 10.838Z" fill="#FFDE00"/>
<path d="M20 6L20 18L4 18L4 6L20 6ZM20 5L4 5C3.4 5 3 5.4 3 6L3 18C3 18.6 3.4 19 4 19L20 19C20.6 19 21 18.6 21 18L21 6C21 5.4 20.6 5 20 5Z" fill="#B5B5B5"/>
</svg>
