<svg width="24" height="24" viewBox="0 0 24 24" fill="none" xmlns="http://www.w3.org/2000/svg">
<g clip-path="url(#clip0_14099_114748)">
<path d="M20 6H3V18H20V6Z" fill="#0021AD"/>
<path d="M3 6H20V18L3 6Z" fill="#1C8A42"/>
<path d="M12 14C13.1046 14 14 13.1046 14 12C14 10.8954 13.1046 10 12 10C10.8954 10 10 10.8954 10 12C10 13.1046 10.8954 14 12 14Z" fill="#FFC639"/>
<path d="M10.503 11.4293C10.6784 11.6374 10.9442 11.9862 11.158 11.8951C11.3248 11.8956 11.411 11.9058 11.4336 12.0018C11.8271 12.0597 12.4884 11.9162 12.8999 11.4528C12.8999 11.4528 12.9345 11.4568 12.9225 11.2806C12.9248 11.2039 13.0438 11.2193 13.0467 11.2443C13.0633 11.2824 13.0604 11.3108 13.0828 11.3118C13.1334 11.2972 13.2027 11.199 13.2608 11.1367C13.2765 11.1092 13.2679 11.0803 13.2716 11.0456C13.3023 10.9806 13.3787 10.9947 13.3947 11.0288C13.4093 11.0508 13.4096 11.0676 13.4239 11.0897C13.5014 11.1344 13.6414 11.0926 13.6522 11.0926C13.666 11.038 13.7066 11.0431 13.7066 11.0431C13.7584 11.0332 13.7381 11.0372 13.7721 11.0525C13.7421 11.3472 13.8391 11.3603 13.8311 11.5114C13.8345 11.6802 13.7721 11.7282 13.7721 11.7925C13.7919 11.8711 14.0798 11.8739 13.9785 11.9404C13.8895 11.9815 13.9788 12.0584 13.8448 12.0883C13.4551 12.2593 13.3804 12.406 13.3804 12.406C13.3804 12.406 13.2825 12.5658 13.2716 12.5658C13.2064 12.6724 13.1237 12.6143 13.0776 12.6663C13.0547 12.7316 13.029 12.8763 13.0747 12.9515C13.0976 13.0549 13.0719 13.1113 13.0433 13.2147C13.0175 13.4304 12.9185 13.4631 12.9071 13.5388C12.8613 13.6197 12.9168 13.9997 12.8733 13.9997C12.5831 14.0046 12.3608 13.9517 12.246 13.9319C12.3579 13.515 12.3144 13.1489 12.3144 13.1113C12.2858 12.8132 11.7979 12.8857 11.7232 12.8461C11.6614 12.8347 11.6225 12.7912 11.6007 12.7724C11.5317 12.766 11.506 12.7524 11.437 12.7462C11.4027 12.761 11.4233 12.7764 11.3466 12.7969C11.152 12.8172 11.0661 12.6502 11.0661 12.6502C11.0756 12.594 10.6286 12.6616 10.3856 12.6128C10.286 12.6608 10.2425 12.8028 10.161 12.8196C10.1587 12.8637 10.0268 12.7835 10.0002 12.7402C9.99473 12.6143 10.1272 12.5587 10.1272 12.5587C10.2325 12.4946 10.2949 12.4842 10.3456 12.4399C10.371 12.3303 10.3582 12.2492 10.4122 12.1668C10.458 12.1039 10.5256 12.1334 10.5714 12.1052C10.6206 12.077 10.6415 11.8924 10.596 11.842C10.596 11.842 10.3991 11.6883 10.3882 11.6789C10.3241 11.5201 10.4632 11.4177 10.503 11.4293L10.503 11.4293Z" fill="#1C8A42"/>
<path d="M17.9405 8.12927C17.8763 7.88701 17.302 7.36528 16.8704 7.03327C16.7673 6.96629 16.7002 7.00619 16.7136 7.10168C16.7673 7.18719 16.8076 7.28119 16.8614 7.3667C16.8764 7.42369 16.9047 7.46359 16.9197 7.52057C16.9197 7.52057 16.9241 7.61889 16.9331 7.62744C17.0675 7.76856 17.0855 7.88821 17.0855 7.88821C17.1631 8.03072 17.2318 8.13471 17.3677 8.25158C17.5201 8.3428 17.408 8.62626 17.4125 8.77735C17.4125 8.8728 17.3409 8.86149 17.2781 8.85003C16.7838 8.41684 16.2939 8.41547 15.8623 8.29002C15.6935 8.27299 15.6905 8.34988 15.7458 8.39256C16.0475 8.70045 16.3312 8.90988 16.7046 9.08508C16.7673 9.12218 16.8301 9.15927 16.8928 9.19636C16.9644 9.25336 17.0362 9.31035 17.1078 9.36735C17.2735 9.46988 17.2871 9.56396 17.2871 9.57241C17.2916 9.7648 17.1839 9.91438 17.1526 9.97423C17.0961 10.1782 16.9824 10.2137 16.9824 10.2137C16.0593 10.8079 15.5754 10.9617 14.0789 10.7779C14.0565 10.7666 13.9131 10.7894 14.0789 10.8463C14.4598 10.9674 15.3954 11.1616 16.3005 10.7527C16.5178 10.6074 16.6632 10.655 16.8207 10.568C17.0792 10.4159 17.4484 10.2265 17.5155 10.2052C17.7172 10.1025 18.2817 9.9872 18.4118 9.88452C18.561 9.87306 18.7159 9.85436 18.7263 9.73193C18.7753 9.70162 18.847 9.72379 18.9003 9.62397C19.0187 9.60437 18.9987 9.56396 18.9987 9.56396C18.9689 9.4842 18.8582 9.45133 18.7792 9.39298C18.6626 9.35588 18.582 9.34442 18.4968 9.38438C18.4699 9.39584 18.4431 9.40715 18.4162 9.41861C18.4162 9.41861 18.2907 9.40142 18.2907 9.39298C18.0119 9.37835 18.0391 8.49688 17.9405 8.12924L17.9405 8.12927Z" fill="#FFC639"/>
<path d="M5.51604 11.5831L5.21001 11.2967L4.90032 11.5791L4.93351 11.1614L4.51953 11.0954L4.86693 10.8608L4.6604 10.496L5.06043 10.6213L5.21685 10.2324L5.36829 10.6233L5.76991 10.5031L5.5587 10.8652L5.90305 11.1042L5.48826 11.165L5.51606 11.5831L5.51604 11.5831Z" fill="white"/>
<path d="M5.72027 16L5.49908 15.7879L5.27523 15.997L5.29922 15.6878L5 15.6389L5.2511 15.4652L5.10182 15.1952L5.39096 15.2879L5.50402 15L5.61348 15.2894L5.90377 15.2004L5.7511 15.4685L6 15.6454L5.70019 15.6904L5.72029 16L5.72027 16Z" fill="white"/>
<path d="M8.72027 12L8.49908 11.7879L8.27523 11.997L8.29922 11.6878L8 11.6389L8.2511 11.4652L8.10182 11.1952L8.39096 11.2879L8.50402 11L8.61348 11.2894L8.90377 11.2004L8.7511 11.4685L9 11.6454L8.70019 11.6904L8.72029 12L8.72027 12Z" fill="white"/>
<path d="M6.72027 9.99999L6.49908 9.78791L6.27523 9.99704L6.29922 9.68778L6 9.63887L6.2511 9.4652L6.10182 9.19517L6.39096 9.28792L6.50402 9L6.61348 9.28939L6.90377 9.20042L6.7511 9.46847L7 9.64543L6.70019 9.69041L6.72029 10L6.72027 9.99999Z" fill="white"/>
<path d="M7.86432 13.9703L7.53427 13.7503L7.21289 13.9822L7.32597 13.6086L7 13.3826L7.40001 13.3719L7.51973 13L7.654 13.3672L8.054 13.3634L7.73696 13.6011L7.86434 13.9703L7.86432 13.9703Z" fill="white"/>
<path d="M20 6L20 18L4 18L4 6L20 6ZM20 5L4 5C3.4 5 3 5.4 3 6L3 18C3 18.6 3.4 19 4 19L20 19C20.6 19 21 18.6 21 18L21 6C21 5.4 20.6 5 20 5Z" fill="#B5B5B5"/>
</g>
<defs>
<clipPath id="clip0_14099_114748">
<rect width="24" height="24" fill="white"/>
</clipPath>
</defs>
</svg>
