<svg width="24" height="24" viewBox="0 0 24 24" fill="none" xmlns="http://www.w3.org/2000/svg">
<path d="M20 6H4V18H20V6Z" fill="#008000"/>
<path d="M12 14.375C13.0355 14.375 13.875 13.5355 13.875 12.5C13.875 11.4645 13.0355 10.625 12 10.625C10.9645 10.625 10.125 11.4645 10.125 12.5C10.125 13.5355 10.9645 14.375 12 14.375Z" fill="#FFE000"/>
<path d="M12.5848 14.0427C13.4369 14.0427 14.1277 13.352 14.1277 12.4999C14.1277 11.6478 13.4369 10.957 12.5848 10.957C11.7328 10.957 11.042 11.6478 11.042 12.4999C11.042 13.352 11.7328 14.0427 12.5848 14.0427Z" fill="#008000"/>
<path d="M7.08929 10.5887C8.17413 10.5887 9.05357 9.70929 9.05357 8.62444C9.05357 7.5396 8.17413 6.66016 7.08929 6.66016C6.00444 6.66016 5.125 7.5396 5.125 8.62444C5.125 9.70929 6.00444 10.5887 7.08929 10.5887Z" fill="#FFE000"/>
<path d="M6.9541 10.1067H7.44458C7.44458 10.1067 7.46672 10.0617 7.43964 10.0392C7.41257 10.0167 7.30709 10.0118 7.33559 9.93227C7.39417 9.76878 7.40235 9.81919 7.43913 9.4309C7.47592 9.0426 7.49363 8.43359 7.49363 8.43359H7.42278C7.42278 8.43359 7.43641 8.62297 7.39554 8.86958C7.35466 9.11618 7.3424 9.13797 7.29744 9.32734C7.25248 9.51672 7.24567 9.53308 7.2048 9.64343C7.16392 9.75379 7.15984 9.75924 7.0958 9.86142C7.03177 9.9636 7.05493 9.92545 7.01951 9.98676C7.00179 10.0174 6.97999 10.0092 6.96807 10.0315C6.95615 10.0539 6.95411 10.1067 6.95411 10.1067L6.9541 10.1067Z" fill="#802000" stroke="#7B3100" stroke-width="0.1"/>
<path d="M7.32782 7.19533C7.33189 7.27151 7.32423 7.37237 7.29266 7.45444C7.26064 7.5459 7.22583 7.63707 7.22755 7.73178C7.17666 7.74909 7.1242 7.62164 7.07521 7.69662C7.11204 7.80022 7.19707 7.88225 7.25532 7.97559C7.26514 8.00452 7.34896 8.08008 7.30046 8.09766C7.17806 8.05576 7.14839 7.90067 7.07246 7.80649C6.98429 7.648 6.81989 7.53598 6.63675 7.52824C6.56796 7.53005 6.34429 7.51119 6.40248 7.62899C6.48819 7.68726 6.5938 7.72526 6.67843 7.79067C6.74148 7.79656 6.85577 7.90182 6.8491 7.94159C6.73821 7.89668 6.6863 7.84285 6.56682 7.7956C6.40493 7.73307 6.181 7.77068 6.09137 7.93135C6.07466 7.97319 6.04999 8.09516 6.10254 8.10677C6.16394 8.01091 6.25177 7.90374 6.38192 7.93249C6.48414 7.94047 6.26785 8.12292 6.35059 8.08621C6.3768 8.07458 6.43734 8.03484 6.47934 8.03069C6.52134 8.02654 6.54479 8.05798 6.57666 8.06233C6.64039 8.07103 6.65793 8.09774 6.65203 8.11329C6.64506 8.13162 6.62481 8.11597 6.56003 8.13651C6.52763 8.14678 6.51072 8.17524 6.47293 8.18827C6.43515 8.2013 6.35655 8.20223 6.32718 8.19067C6.22442 8.14604 6.05595 8.15381 6.02391 8.28258C6.02388 8.33921 5.97349 8.27632 5.9502 8.30079C5.93274 8.36258 5.92822 8.42602 5.83657 8.42041C5.78094 8.47878 5.72396 8.53921 5.65332 8.58073C5.69478 8.67588 5.85903 8.48517 5.85136 8.56559C5.77955 8.6635 5.8883 8.6841 5.93591 8.60874C6.01642 8.52367 6.11614 8.42011 6.23628 8.50585C6.2935 8.55972 6.32675 8.47737 6.36817 8.48178C6.39426 8.5487 6.42709 8.48507 6.45671 8.46615C6.50519 8.46011 6.49155 8.5267 6.54916 8.48568C6.66397 8.4097 6.80521 8.47355 6.91737 8.39962C7.03675 8.34523 6.93413 8.44342 6.90118 8.48181C6.84873 8.58354 6.89422 8.7171 6.78045 8.78027C6.73474 8.90152 6.83444 9.06135 6.73275 9.15104C6.71796 9.20729 6.86353 9.20084 6.90438 9.22396C6.97597 9.22679 6.90131 9.0601 6.97234 9.03776C7.0676 9.09672 7.06313 8.93232 7.04347 8.8816C7.0527 8.76633 7.0592 8.6403 7.11649 8.53589C7.17738 8.40792 7.23375 8.58801 7.16558 8.63867C7.12685 8.75634 7.07049 8.9036 7.15854 9.01303C7.18391 9.01871 7.20475 9.08022 7.23761 9.09912C7.27046 9.11803 7.31534 9.09433 7.32353 9.03837C7.36568 8.86985 7.34445 8.68864 7.40463 8.52474C7.44711 8.47398 7.50571 8.51656 7.53205 8.56324C7.61639 8.66116 7.67568 8.78356 7.77778 8.86424C7.87075 8.90775 7.95297 8.97355 7.99582 9.06926C7.99525 9.1431 8.20555 9.15442 8.14271 9.07234C8.08241 8.99244 8.12219 8.91252 8.18327 8.85938C8.21598 8.86745 8.20631 8.80886 8.18067 8.83204C8.1396 8.82235 8.13698 8.74719 8.19405 8.78292C8.29019 8.81395 8.18656 8.71334 8.15181 8.71026C8.07053 8.65987 7.97714 8.60191 7.93717 8.51433C8.04298 8.51541 8.15283 8.57248 8.26095 8.53708C8.34763 8.49255 8.43554 8.54079 8.46581 8.61719C8.53281 8.6065 8.50425 8.53931 8.46581 8.51693C8.51482 8.49671 8.54871 8.45478 8.48929 8.4178C8.45791 8.37684 8.53137 8.30699 8.44107 8.3099C8.44402 8.24092 8.41687 8.17781 8.34168 8.15398C8.26636 8.0902 8.04534 8.24794 8.05175 8.10417C8.02948 8.02593 8.14153 8.09372 8.17284 8.05469C8.2052 7.97221 8.01867 7.98026 8.08022 7.9163C8.12042 7.89042 8.30906 7.85324 8.16112 7.82555C8.08729 7.84584 8.02392 7.83082 7.96582 7.79428C7.91286 7.88286 7.76164 7.74617 7.78858 7.90366C7.7679 7.96299 7.63273 8.11717 7.59615 7.99905C7.62727 7.90647 7.78741 7.8762 7.73775 7.75137C7.73012 7.67345 7.66552 7.76493 7.63508 7.75912C7.61967 7.71061 7.6817 7.65344 7.72493 7.64193C7.81071 7.70791 7.81331 7.55869 7.89489 7.57083C7.95445 7.55759 7.87565 7.53205 7.85904 7.52084C7.87537 7.47724 7.9668 7.45496 7.87714 7.4171C7.79803 7.3584 7.7394 7.47552 7.67414 7.48177C7.61151 7.41107 7.731 7.37708 7.76399 7.33984C7.76576 7.31209 7.69431 7.33147 7.71581 7.30729C7.73448 7.27392 7.86099 7.27143 7.80175 7.22136C7.71252 7.19072 7.59739 7.19836 7.51178 7.23804C7.45785 7.2555 7.44198 7.37745 7.39549 7.3724C7.37363 7.31811 7.40261 7.21102 7.32778 7.19531L7.32782 7.19533ZM7.74969 8.38674C7.81768 8.37523 7.75113 8.48999 7.71844 8.48831C7.72133 8.44707 7.62011 8.45104 7.68291 8.41511C7.70328 8.40196 7.72597 8.39193 7.74969 8.38674Z" fill="#008000"/>
<path d="M17.4998 14.8555L17.6238 15.2409L18.0024 15.0975L17.7783 15.4347L18.1265 15.6414L17.7232 15.6765L17.7787 16.0775L17.4998 15.784L17.2209 16.0775L17.2764 15.6765L16.873 15.6414L17.2212 15.4347L16.9972 15.0975L17.3758 15.2409L17.4998 14.8555Z" fill="#FFE000"/>
<path d="M15.2498 11.293L15.3738 11.6784L15.7524 11.535L15.5283 11.8722L15.8765 12.0789L15.4732 12.114L15.5287 12.515L15.2498 12.2215L14.9709 12.515L15.0264 12.114L14.623 12.0789L14.9712 11.8722L14.7472 11.535L15.1258 11.6784L15.2498 11.293Z" fill="#FFE000"/>
<path d="M17.4998 8.85547L17.6238 9.24091L18.0024 9.09751L17.7783 9.43475L18.1265 9.64138L17.7232 9.67647L17.7787 10.0775L17.4998 9.78404L17.2209 10.0775L17.2764 9.67647L16.873 9.64138L17.2212 9.43475L16.9972 9.09751L17.3758 9.24091L17.4998 8.85547Z" fill="#FFE000"/>
<path d="M19.4998 10.6914L19.6238 11.0768L20.0024 10.9334L19.7783 11.2707L20.1265 11.4773L19.7232 11.5124L19.7787 11.9135L19.4998 11.62L19.2209 11.9135L19.2764 11.5124L18.873 11.4773L19.2212 11.2707L18.9972 10.9334L19.3758 11.0768L19.4998 10.6914Z" fill="#FFE000"/>
<path d="M18.3996 12.5L18.4976 12.7402L18.7563 12.7591L18.5581 12.9265L18.62 13.1784L18.3996 13.0417L18.1792 13.1784L18.2411 12.9265L18.043 12.7591L18.3017 12.7402L18.3996 12.5Z" fill="#FFE000"/>
<path d="M20 6L20 18L4 18L4 6L20 6ZM20 5L4 5C3.4 5 3 5.4 3 6L3 18C3 18.6 3.4 19 4 19L20 19C20.6 19 21 18.6 21 18L21 6C21 5.4 20.6 5 20 5Z" fill="#B5B5B5"/>
</svg>
