<svg width="24" height="24" viewBox="0 0 24 24" fill="none" xmlns="http://www.w3.org/2000/svg">
<path d="M20 6H4V15H20V6Z" fill="#00247D"/>
<path d="M4 6L13 10.5L4 6ZM13 6L4 10.5L13 6Z" fill="black"/>
<path d="M4 6L13 10.5M13 6L4 10.5" stroke="white" stroke-width="1.5"/>
<path d="M4 6L13 10.5L4 6ZM13 6L4 10.5L13 6Z" fill="black"/>
<path d="M4 6L13 10.5M13 6L4 10.5" stroke="#CF142B"/>
<path d="M8.5 6V12V6ZM4 8.25H14.5H4Z" fill="black"/>
<path d="M8.5 6V12M4 8.25H14.5" stroke="white" stroke-width="1.5"/>
<path d="M8.5 6V12V6ZM4 8.25H14.5H4Z" fill="black"/>
<path d="M8.5 6V12M4 8.25H14.5" stroke="#CF142B"/>
<path d="M13 6V10.5H4V18H20V6H13Z" fill="#00247D"/>
<path d="M17.5 6.76562L17.2914 7.40759L17.6338 7.51883" fill="white"/>
<path d="M20 6L20 18L4 18L4 6L20 6ZM20 5L4 5C3.4 5 3 5.4 3 6L3 18C3 18.6 3.4 19 4 19L20 19C20.6 19 21 18.6 21 18L21 6C21 5.4 20.6 5 20 5Z" fill="none"/>
<g clip-path="url(#clip0_14099_114802)">
<path d="M4 6H20V18H4V6Z" fill="#000066"/>
<path fill-rule="evenodd" clip-rule="evenodd" d="M15.0535 10.8813L15.1754 10.4985L14.8473 10.2556L15.2598 10.251L15.4004 9.87292L15.5316 10.251L15.9465 10.2625L15.616 10.5031L15.7332 10.8858L15.3934 10.6567M16.0285 10.9546L16.2723 10.636L16.0449 10.2969L16.4363 10.4298L16.6941 10.1204V10.5238L17.0785 10.6704L16.6848 10.785L16.666 11.186L16.427 10.856M14.1207 11.1998L14.1043 10.7988L13.7105 10.6796L14.102 10.5375V10.1388L14.3574 10.4481L14.7512 10.3198L14.5215 10.6567L14.7629 10.9775L14.3645 10.8744M13.4363 11.8117L13.2629 11.4496L12.8551 11.4908L13.1551 11.209L13.0004 10.8354L13.3566 11.0233L13.6684 10.7529L13.5887 11.1517L13.9379 11.3556L13.5324 11.4129M13.1176 12.6871L12.8059 12.4327L12.4543 12.6435L12.6043 12.2608L12.302 11.995L12.7074 12.011L12.8715 11.6352L12.9723 12.0294L13.3754 12.0638L13.0332 12.2883M13.1082 13.6725L12.7215 13.5625L12.4848 13.8948L12.4684 13.4846L12.084 13.3586L12.4613 13.2165V12.804L12.7121 13.1271L13.0965 12.9988L12.8715 13.3425M13.5629 14.5067L13.1645 14.5617L13.0824 14.9604L12.8996 14.5938L12.4988 14.6304L12.7848 14.3485L12.6184 13.9727L12.977 14.1675L13.277 13.8971L13.2113 14.2958M14.266 15.1667L13.9121 15.3546L13.973 15.7579L13.6754 15.4738L13.3098 15.6479L13.4809 15.2836L13.1926 14.9879L13.598 15.0475L13.7855 14.6923L13.8652 15.0911M15.1262 15.2973L14.9316 15.6479L15.2059 15.9504L14.798 15.8748L14.5895 16.2185L14.5332 15.8221L14.1301 15.7304L14.5004 15.5608L14.4605 15.1598L14.7465 15.4531M16.0918 15.1529L16.0801 15.5517L16.4621 15.6983L16.0637 15.8129L16.0355 16.214L15.8012 15.8863L15.4027 15.9871L15.6559 15.6686L15.4355 15.3317L15.8246 15.4623M17.102 10.8079L17.3832 11.0967L17.7559 10.9271L17.5613 11.2892L17.8309 11.5894L17.4324 11.5252L17.2215 11.8804L17.1723 11.4771L16.7738 11.3969L17.1418 11.2135M17.9434 11.6948L18.0723 12.0752L18.4824 12.0821L18.1496 12.3273L18.2598 12.7123L17.9293 12.4831L17.5871 12.7146L17.7137 12.3296L17.3902 12.0867L17.8027 12.0775M18.2598 12.8383L18.2129 13.2371L18.5809 13.4135L18.1754 13.4961L18.1121 13.8925L17.9082 13.5465L17.5004 13.6129L17.7816 13.315L17.5918 12.9598L17.9668 13.1248M18.0371 14.0369L17.8543 14.3944L18.1332 14.6854L17.7254 14.6235L17.5285 14.9742L17.4582 14.5777L17.0504 14.5021L17.416 14.3188L17.3621 13.92L17.6574 14.2019M17.4277 15.0979L17.0832 15.3088L17.1723 15.7052L16.8559 15.4417L16.5043 15.6388L16.652 15.2652L16.3449 14.9879L16.7527 15.0223L16.9168 14.6556L17.0199 15.0498" fill="white"/>
<path d="M4 6H11.5V11.5H4V6Z" fill="#000066"/>
<path d="M4.87891 6L7.73828 8.07396L10.5859 6H11.5V6.71042L8.6875 8.76146L11.5 10.801V11.5H10.5625L7.75 9.44896L4.94922 11.5H4V10.8125L6.80078 8.77292L4 6.73333V6H4.87891Z" fill="white"/>
<path d="M8.96875 9.21979L11.5 11.0417V11.5L8.32422 9.21979H8.96875ZM6.8125 9.44896L6.88281 9.85L4.63281 11.5H4L6.8125 9.44896ZM11.5 6V6.03438L8.58203 8.18854L8.60547 7.68438L10.9141 6H11.5ZM4 6L6.80078 8.01667H6.09766L4 6.48125V6Z" fill="#C8102E"/>
<path d="M6.82422 6V11.5H8.69922V6H6.82422ZM4 7.83333V9.66667H11.5V7.83333H4Z" fill="white"/>
<path d="M4 8.21146V9.31146H11.5V8.21146H4ZM7.19922 6V11.5H8.32422V6H7.19922Z" fill="#C8102E"/>
</g>
<defs>
<clipPath id="clip0_14099_114802">
<rect width="16" height="12" fill="white" transform="translate(4 6)"/>
</clipPath>
</defs>
</svg>
