<svg width="24" height="24" viewBox="0 0 24 24" fill="none" xmlns="http://www.w3.org/2000/svg">
<path d="M20 6H4V18H20V6Z" fill="#002B7F"/>
<path d="M4 14H20V15H4V14Z" fill="#F9E814"/>
<path d="M20 6L20 18L4 18L4 6L20 6ZM20 5L4 5C3.4 5 3 5.4 3 6L3 18C3 18.6 3.4 19 4 19L20 19C20.6 19 21 18.6 21 18L21 6C21 5.4 20.6 5 20 5Z" fill="none"/>
<path d="M6 7L6.22451 7.69098H6.95106L6.36327 8.11803L6.58779 8.80902L6 8.38197L5.41221 8.80902L5.63673 8.11803L5.04894 7.69098H5.77549L6 7Z" fill="white"/>
<path d="M8.5 9L8.83677 10.0365H9.92658L9.04491 10.6771L9.38168 11.7135L8.5 11.0729L7.61832 11.7135L7.95509 10.6771L7.07342 10.0365H8.16323L8.5 9Z" fill="white"/>
</svg>
