<svg width="24" height="24" viewBox="0 0 24 24" fill="none" xmlns="http://www.w3.org/2000/svg">
<path d="M20 6H4V18H20V6Z" fill="#006B3F"/>
<path d="M12 6H11V18H12V6Z" fill="#FCD116"/>
<path d="M21 10.375H3V11.5H21V10.375Z" fill="#FCD116"/>
<path d="M13 6H12V18H13V6Z" fill="white"/>
<path d="M21 11.5H3V12.625H21V11.5Z" fill="white"/>
<path d="M12.25 6H11.5V18H12.25V6Z" fill="black"/>
<path d="M21 11.125H3V11.875H21V11.125Z" fill="black"/>
<path d="M12 13.75C13.2426 13.75 14.25 12.7426 14.25 11.5C14.25 10.2574 13.2426 9.25 12 9.25C10.7574 9.25 9.75 10.2574 9.75 11.5C9.75 12.7426 10.7574 13.75 12 13.75Z" fill="#D41C30"/>
<path d="M11.928 9.72338L12.0001 9.51758L12.0657 9.72008L12.2854 9.72338L12.1116 9.85613L12.1903 10.0819L12.0001 9.94253L11.8132 10.0753L11.8854 9.85613L11.7148 9.72668L11.928 9.72338Z" fill="#006B3F" stroke="black" stroke-width="0.01"/>
<path d="M12.3562 12.7559C12.4301 12.7482 12.4688 12.4459 12.4428 12.0806C12.4167 11.7154 12.3356 11.4256 12.2617 11.4333C12.1878 11.441 12.1491 11.7433 12.1752 12.1085C12.2012 12.4737 12.2823 12.7636 12.3562 12.7559Z" fill="#006B3F" stroke="black" stroke-width="0.01"/>
<path d="M12.4885 12.7551C12.5666 12.747 12.6087 12.4443 12.5825 12.0791C12.5562 11.7139 12.4716 11.4244 12.3935 11.4326C12.3153 11.4407 12.2732 11.7433 12.2995 12.1085C12.3257 12.4738 12.4103 12.7632 12.4885 12.7551Z" fill="#006B3F" stroke="black" stroke-width="0.01"/>
<path d="M12.429 12.8603C12.4915 12.8537 12.5194 12.521 12.4912 12.1173C12.4631 11.7135 12.3896 11.3916 12.3271 11.3982C12.2646 11.4048 12.2367 11.7375 12.2648 12.1412C12.293 12.5449 12.3665 12.8669 12.429 12.8603Z" fill="#006B3F" stroke="black" stroke-width="0.01"/>
<path d="M11.3369 12.4371C11.4518 12.4323 11.4019 12.3708 11.4599 12.3381C11.5179 12.3055 11.6004 12.3271 11.6251 12.3679C11.6499 12.4088 11.63 12.4489 11.6619 12.4494C11.6938 12.45 12.5608 12.4136 12.592 12.4478C12.6233 12.482 12.6285 12.5495 12.5961 12.5757C12.5637 12.6023 11.4676 12.6145 11.4298 12.5868C11.3921 12.5594 11.3368 12.4438 11.3369 12.4371Z" fill="#9C4A00" stroke="black" stroke-width="0.01"/>
<path d="M11.9494 12.5219C11.9473 12.6085 12.0755 12.584 12.0772 12.6563C12.0734 12.733 11.8624 12.661 11.8604 12.5207C11.8691 12.3805 12.0757 12.3113 12.0782 12.3913C12.0801 12.4578 11.9515 12.4352 11.9494 12.5219Z" fill="#FCD116" stroke="black" stroke-width="0.01"/>
<path d="M12.0246 12.5238C12.0225 12.6104 12.1507 12.5859 12.1524 12.6583C12.1486 12.735 11.9376 12.663 11.9355 12.5226C11.9443 12.3825 12.1509 12.3132 12.1534 12.3933C12.1553 12.4598 12.0267 12.4372 12.0246 12.5238Z" fill="#FCD116" stroke="black" stroke-width="0.01"/>
<path d="M12.1067 12.5199C12.1046 12.6065 12.2327 12.582 12.2345 12.6544C12.2306 12.7311 12.0196 12.659 12.0176 12.5187C12.0264 12.3786 12.2329 12.3093 12.2354 12.3894C12.2373 12.4559 12.1087 12.4333 12.1067 12.5199Z" fill="#FCD116" stroke="black" stroke-width="0.01"/>
<path d="M12.1819 12.5219C12.1798 12.6085 12.3079 12.584 12.3097 12.6563C12.3058 12.733 12.0948 12.661 12.0928 12.5207C12.1015 12.3805 12.3081 12.3113 12.3106 12.3913C12.3125 12.4578 12.1839 12.4352 12.1819 12.5219Z" fill="#FCD116" stroke="black" stroke-width="0.01"/>
<path d="M12.5407 12.5851C12.5811 12.5857 12.6146 12.553 12.6154 12.512C12.6163 12.471 12.5842 12.4373 12.5439 12.4366C12.5035 12.436 12.47 12.4688 12.4691 12.5098C12.4683 12.5508 12.5003 12.5845 12.5407 12.5851Z" fill="#9C4A00" stroke="black" stroke-width="0.01"/>
<path d="M12.1188 12.4053C12.1546 12.3999 12.1767 12.3315 12.1683 12.2525C12.1598 12.1734 12.124 12.1137 12.0882 12.1191C12.0524 12.1245 12.0303 12.193 12.0387 12.272C12.0472 12.351 12.083 12.4107 12.1188 12.4053Z" fill="#006B3F" stroke="black" stroke-width="0.01"/>
<path d="M12.0075 12.3956C12.0432 12.3902 12.0654 12.3217 12.0569 12.2427C12.0485 12.1637 12.0126 12.104 11.9769 12.1094C11.9411 12.1148 11.919 12.1832 11.9274 12.2622C11.9359 12.3413 11.9717 12.401 12.0075 12.3956Z" fill="#006B3F" stroke="black" stroke-width="0.01"/>
<path d="M11.9294 12.2548C11.9651 12.2494 11.9873 12.181 11.9788 12.102C11.9704 12.0229 11.9345 11.9632 11.8987 11.9686C11.863 11.974 11.8408 12.0425 11.8493 12.1215C11.8577 12.2005 11.8936 12.2602 11.9294 12.2548Z" fill="#006B3F" stroke="black" stroke-width="0.01"/>
<path d="M12.0421 12.2629C12.0765 12.2575 12.0969 12.1824 12.0876 12.0952C12.0783 12.008 12.0429 11.9417 12.0086 11.9472C11.9742 11.9526 11.9538 12.0277 11.9631 12.1149C11.9723 12.2021 12.0077 12.2684 12.0421 12.2629Z" fill="#006B3F" stroke="black" stroke-width="0.01"/>
<path d="M12.1954 12.255C12.2298 12.2497 12.2506 12.1791 12.2419 12.0973C12.2332 12.0156 12.1982 11.9536 12.1638 11.9589C12.1294 11.9643 12.1086 12.0348 12.1173 12.1166C12.1261 12.1983 12.161 12.2603 12.1954 12.255Z" fill="#006B3F" stroke="black" stroke-width="0.01"/>
<path d="M12.1104 12.2044C12.1448 12.1991 12.1657 12.1285 12.1569 12.0467C12.1482 11.965 12.1133 11.903 12.0789 11.9083C12.0445 11.9137 12.0237 11.9842 12.0324 12.066C12.0411 12.1478 12.076 12.2097 12.1104 12.2044Z" fill="#006B3F" stroke="black" stroke-width="0.01"/>
<path d="M12.004 12.1302C12.0384 12.1249 12.0592 12.0543 12.0505 11.9725C12.0418 11.8908 12.0068 11.8288 11.9724 11.8341C11.938 11.8394 11.9172 11.91 11.9259 11.9918C11.9346 12.0735 11.9696 12.1355 12.004 12.1302Z" fill="#006B3F" stroke="black" stroke-width="0.01"/>
<path d="M11.9044 12.0853C11.9388 12.0799 11.9596 12.0094 11.9509 11.9276C11.9422 11.8458 11.9072 11.7839 11.8728 11.7892C11.8384 11.7945 11.8176 11.8651 11.8263 11.9469C11.835 12.0286 11.87 12.0906 11.9044 12.0853Z" fill="#006B3F" stroke="black" stroke-width="0.01"/>
<path d="M11.7791 10.7091C11.7791 10.7091 11.5593 10.8999 11.584 11.4163C11.6116 11.9356 12.0699 12.1797 12.0699 12.1797C12.0699 12.1797 12.1867 12.0323 12.1731 11.615C12.1403 11.005 11.924 10.7355 11.924 10.7355L11.7791 10.7091Z" fill="#9461C9" stroke="black" stroke-width="0.01"/>
<path d="M12.2633 12.4219C12.2995 12.4229 12.3335 12.3595 12.3392 12.2803C12.345 12.201 12.3204 12.1359 12.2842 12.1348C12.2481 12.1337 12.2141 12.1971 12.2083 12.2764C12.2025 12.3557 12.2272 12.4208 12.2633 12.4219Z" fill="#006B3F" stroke="black" stroke-width="0.01"/>
<path d="M12.1569 12.3945C12.193 12.3955 12.227 12.3321 12.2328 12.2529C12.2386 12.1736 12.2139 12.1085 12.1778 12.1074C12.1416 12.1063 12.1076 12.1697 12.1019 12.249C12.0961 12.3283 12.1207 12.3934 12.1569 12.3945Z" fill="#006B3F" stroke="black" stroke-width="0.01"/>
<path d="M12.1041 12.2402C12.1403 12.2412 12.1743 12.1778 12.1801 12.0986C12.1858 12.0193 12.1612 11.9542 12.125 11.9531C12.0889 11.952 12.0549 12.0154 12.0491 12.0947C12.0434 12.174 12.068 12.2391 12.1041 12.2402Z" fill="#006B3F" stroke="black" stroke-width="0.01"/>
<path d="M12.2146 12.2693C12.2494 12.27 12.2828 12.1998 12.2892 12.1123C12.2956 12.0249 12.2726 11.9534 12.2378 11.9526C12.203 11.9518 12.1696 12.0221 12.1632 12.1095C12.1568 12.197 12.1798 12.2685 12.2146 12.2693Z" fill="#006B3F" stroke="black" stroke-width="0.01"/>
<path d="M12.3665 12.2888C12.4013 12.2897 12.4343 12.224 12.4403 12.142C12.4463 12.06 12.423 11.9928 12.3882 11.9919C12.3534 11.991 12.3203 12.0567 12.3143 12.1387C12.3083 12.2207 12.3317 12.2879 12.3665 12.2888Z" fill="#006B3F" stroke="black" stroke-width="0.01"/>
<path d="M12.2923 12.2224C12.3271 12.2233 12.3601 12.1576 12.3661 12.0756C12.3721 11.9936 12.3488 11.9264 12.314 11.9255C12.2792 11.9246 12.2461 11.9903 12.2401 12.0723C12.2341 12.1543 12.2575 12.2215 12.2923 12.2224Z" fill="#006B3F" stroke="black" stroke-width="0.01"/>
<path d="M12.2005 12.1306C12.2353 12.1315 12.2683 12.0658 12.2743 11.9838C12.2803 11.9018 12.257 11.8346 12.2222 11.8337C12.1874 11.8328 12.1543 11.8985 12.1483 11.9805C12.1423 12.0625 12.1657 12.1297 12.2005 12.1306Z" fill="#006B3F" stroke="black" stroke-width="0.01"/>
<path d="M12.1106 12.0701C12.1454 12.071 12.1785 12.0052 12.1845 11.9232C12.1905 11.8412 12.1671 11.774 12.1323 11.7731C12.0975 11.7722 12.0645 11.838 12.0585 11.92C12.0525 12.002 12.0758 12.0692 12.1106 12.0701Z" fill="#006B3F" stroke="black" stroke-width="0.01"/>
<path d="M12.4695 12.1206C12.5651 12.0837 12.542 11.8194 12.4181 11.5304C12.2941 11.2413 12.1162 11.0369 12.0206 11.0738C11.9251 11.1107 11.9481 11.3749 12.0721 11.664C12.1961 11.9531 12.374 12.1575 12.4695 12.1206Z" fill="#D41C30" stroke="black" stroke-width="0.01"/>
<path d="M12.1018 11.1327C12.1465 11.1335 12.1832 11.1022 12.184 11.0628C12.1847 11.0233 12.149 10.9907 12.1043 10.9899C12.0597 10.9891 12.0229 11.0204 12.0222 11.0599C12.0215 11.0993 12.0571 11.132 12.1018 11.1327Z" fill="#006B3F" stroke="black" stroke-width="0.01"/>
<path d="M12.1617 11.0309C12.2017 11.0316 12.2348 11.0002 12.2355 10.9607C12.2362 10.9213 12.2043 10.8887 12.1643 10.888C12.1242 10.8873 12.0912 10.9187 12.0905 10.9581C12.0898 10.9976 12.1217 11.0301 12.1617 11.0309Z" fill="#006B3F" stroke="black" stroke-width="0.01"/>
<path d="M12.0641 11.0309C12.1041 11.0316 12.1371 11.0002 12.1378 10.9607C12.1385 10.9213 12.1066 10.8887 12.0666 10.888C12.0266 10.8873 11.9936 10.9187 11.9929 10.9581C11.9922 10.9976 12.024 11.0301 12.0641 11.0309Z" fill="#006B3F" stroke="black" stroke-width="0.01"/>
<path d="M12.0861 10.9517C12.128 10.9524 12.1625 10.923 12.1632 10.886C12.1638 10.8489 12.1304 10.8183 12.0885 10.8176C12.0466 10.8168 12.0122 10.8462 12.0115 10.8833C12.0108 10.9203 12.0443 10.9509 12.0861 10.9517Z" fill="#006B3F" stroke="black" stroke-width="0.01"/>
<path d="M12.0774 10.8679C12.1192 10.8686 12.1537 10.8392 12.1544 10.8022C12.155 10.7651 12.1216 10.7345 12.0797 10.7338C12.0379 10.733 12.0034 10.7624 12.0027 10.7995C12.0021 10.8365 12.0355 10.8671 12.0774 10.8679Z" fill="#006B3F" stroke="black" stroke-width="0.01"/>
<path d="M11.9713 10.9723C12.0113 10.973 12.0443 10.9416 12.045 10.9021C12.0457 10.8627 12.0139 10.8301 11.9738 10.8294C11.9338 10.8287 11.9008 10.8601 11.9001 10.8995C11.8994 10.939 11.9313 10.9715 11.9713 10.9723Z" fill="#006B3F" stroke="black" stroke-width="0.01"/>
<path d="M11.9928 10.8795C12.0328 10.8802 12.0659 10.8495 12.0665 10.8108C12.0672 10.7722 12.0353 10.7403 11.9953 10.7396C11.9553 10.7389 11.9223 10.7696 11.9216 10.8082C11.9209 10.8469 11.9528 10.8788 11.9928 10.8795Z" fill="#006B3F" stroke="black" stroke-width="0.01"/>
<path d="M11.8733 10.8845C11.9179 10.8853 11.9547 10.854 11.9554 10.8145C11.9561 10.7751 11.9205 10.7425 11.8758 10.7417C11.8311 10.7409 11.7944 10.7722 11.7937 10.8117C11.7929 10.8511 11.8286 10.8837 11.8733 10.8845Z" fill="#006B3F" stroke="black" stroke-width="0.01"/>
<path d="M12.0217 10.7604C12.0636 10.7612 12.0981 10.7318 12.0987 10.6947C12.0994 10.6577 12.066 10.6271 12.0241 10.6264C11.9822 10.6256 11.9477 10.655 11.947 10.692C11.9464 10.7291 11.9798 10.7597 12.0217 10.7604Z" fill="#006B3F" stroke="black" stroke-width="0.01"/>
<path d="M11.9206 10.776C11.9606 10.7767 11.9936 10.7459 11.9943 10.7073C11.995 10.6687 11.9631 10.6368 11.9231 10.6361C11.883 10.6353 11.85 10.6661 11.8493 10.7047C11.8487 10.7434 11.8805 10.7753 11.9206 10.776Z" fill="#006B3F" stroke="black" stroke-width="0.01"/>
<path d="M11.7672 10.8883C11.8072 10.889 11.8402 10.8576 11.8409 10.8181C11.8416 10.7787 11.8098 10.7461 11.7697 10.7454C11.7297 10.7447 11.6967 10.7761 11.696 10.8156C11.6953 10.855 11.7272 10.8876 11.7672 10.8883Z" fill="#006B3F" stroke="black" stroke-width="0.01"/>
<path d="M11.7917 10.8326C11.8317 10.8333 11.8647 10.8026 11.8654 10.764C11.8661 10.7253 11.8342 10.6934 11.7941 10.6927C11.7541 10.692 11.7211 10.7227 11.7204 10.7614C11.7197 10.8 11.7516 10.8319 11.7917 10.8326Z" fill="#006B3F" stroke="black" stroke-width="0.01"/>
<path d="M11.8229 10.774C11.8629 10.7747 11.8959 10.744 11.8966 10.7054C11.8973 10.6667 11.8654 10.6348 11.8254 10.6341C11.7854 10.6334 11.7524 10.6641 11.7517 10.7028C11.751 10.7414 11.7829 10.7733 11.8229 10.774Z" fill="#006B3F" stroke="black" stroke-width="0.01"/>
<path d="M12.5671 12.1308C12.6896 12.0876 12.669 11.7735 12.5211 11.4293C12.3732 11.0852 12.1539 10.8412 12.0314 10.8845C11.9089 10.9278 11.9295 11.2418 12.0774 11.586C12.2253 11.9302 12.4446 12.1741 12.5671 12.1308Z" fill="#006B3F" stroke="black" stroke-width="0.01"/>
<path d="M12.5506 11.7457C12.5733 11.7349 12.5657 11.6681 12.5337 11.5965C12.5017 11.5248 12.4574 11.4755 12.4347 11.4863C12.412 11.4971 12.4195 11.5639 12.4515 11.6356C12.4835 11.7072 12.5279 11.7565 12.5506 11.7457Z" fill="#006B3F" stroke="black" stroke-width="0.01"/>
<path d="M12.4721 11.6164C12.6643 11.8503 12.64 11.9989 12.62 12.1246C12.5596 11.9797 12.5266 11.8884 12.3344 11.6544C12.1423 11.4204 12.2382 11.2562 12.2514 11.1697C12.2803 11.2446 12.2799 11.3824 12.4721 11.6164Z" fill="#006B3F" stroke="black" stroke-width="0.01"/>
<path d="M12.4897 11.8061C12.6819 12.04 12.6576 12.1886 12.6376 12.3143C12.5772 12.1694 12.5442 12.0781 12.352 11.8441C12.1598 11.6101 12.2558 11.4459 12.269 11.3594C12.2979 11.4343 12.2975 11.5721 12.4897 11.8061Z" fill="#006B3F" stroke="black" stroke-width="0.01"/>
<path d="M12.4948 11.9576C12.6916 12.1874 12.6703 12.3365 12.6528 12.4626C12.5895 12.319 12.5547 12.2284 12.3579 11.9986C12.161 11.7687 12.2537 11.6025 12.2651 11.5157C12.2955 11.59 12.2979 11.7277 12.4948 11.9576Z" fill="#006B3F" stroke="black" stroke-width="0.01"/>
<path d="M12.4606 11.627C12.5056 11.6155 12.4964 11.5028 12.4399 11.3751C12.3835 11.2475 12.3013 11.1533 12.2563 11.1647C12.2113 11.1762 12.2205 11.289 12.277 11.4166C12.3334 11.5442 12.4156 11.6384 12.4606 11.627Z" fill="#006B3F" stroke="black" stroke-width="0.01"/>
<path d="M12.362 11.7177C12.4025 11.7107 12.3998 11.6194 12.3559 11.5138C12.3121 11.4081 12.2437 11.3281 12.2032 11.335C12.1627 11.342 12.1654 11.4333 12.2093 11.539C12.2532 11.6446 12.3215 11.7247 12.362 11.7177Z" fill="#006B3F" stroke="black" stroke-width="0.01"/>
<path d="M12.2664 11.8065C12.307 11.8004 12.3062 11.709 12.2645 11.6025C12.2229 11.4959 12.1562 11.4145 12.1156 11.4206C12.0749 11.4267 12.0758 11.518 12.1174 11.6246C12.1591 11.7312 12.2258 11.8126 12.2664 11.8065Z" fill="#006B3F" stroke="black" stroke-width="0.01"/>
<path d="M12.3354 11.4365C12.3681 11.4305 12.3641 11.3618 12.3264 11.283C12.2887 11.2043 12.2316 11.1453 12.1989 11.1513C12.1662 11.1573 12.1702 11.226 12.2079 11.3047C12.2456 11.3835 12.3027 11.4425 12.3354 11.4365Z" fill="#006B3F" stroke="black" stroke-width="0.01"/>
<path d="M12.2486 11.4994C12.2817 11.4952 12.282 11.4264 12.2492 11.3457C12.2165 11.2651 12.1632 11.2031 12.1302 11.2073C12.0971 11.2114 12.0968 11.2802 12.1296 11.3609C12.1623 11.4416 12.2156 11.5036 12.2486 11.4994Z" fill="#006B3F" stroke="black" stroke-width="0.01"/>
<path d="M12.1296 11.2637C12.1864 11.4025 12.2094 11.5273 12.1809 11.5423C12.1524 11.5573 12.0832 11.4568 12.0264 11.318" fill="#006B3F"/>
<path d="M12.1296 11.2637C12.1864 11.4025 12.2094 11.5273 12.1809 11.5423C12.1524 11.5573 12.0832 11.4568 12.0264 11.318" stroke="black" stroke-width="0.01"/>
<path d="M12.2389 11.3373C12.2719 11.3331 12.2722 11.2643 12.2395 11.1836C12.2068 11.103 12.1534 11.0409 12.1204 11.0451C12.0873 11.0493 12.0871 11.1181 12.1198 11.1988C12.1525 11.2795 12.2058 11.3415 12.2389 11.3373Z" fill="#006B3F" stroke="black" stroke-width="0.01"/>
<path d="M12.1407 11.3835C12.1738 11.38 12.1756 11.3112 12.1447 11.2299C12.1138 11.1486 12.0619 11.0856 12.0288 11.0891C11.9956 11.0926 11.9938 11.1614 12.0247 11.2427C12.0556 11.324 12.1075 11.3871 12.1407 11.3835Z" fill="#006B3F" stroke="black" stroke-width="0.01"/>
<path d="M12.0302 11.0743C12.0854 11.1681 12.1151 11.2557 12.0965 11.2699C12.0779 11.284 12.0181 11.2194 11.9629 11.1256" fill="#006B3F"/>
<path d="M12.0302 11.0743C12.0854 11.1681 12.1151 11.2557 12.0965 11.2699C12.0779 11.284 12.0181 11.2194 11.9629 11.1256" stroke="black" stroke-width="0.01"/>
<path d="M12.0683 11.0117C12.1235 11.1055 12.1532 11.1931 12.1346 11.2073C12.116 11.2214 12.0561 11.1568 12.001 11.0629" fill="#006B3F"/>
<path d="M12.0683 11.0117C12.1235 11.1055 12.1532 11.1931 12.1346 11.2073C12.116 11.2214 12.0561 11.1568 12.001 11.0629" stroke="black" stroke-width="0.01"/>
<path d="M12.2404 11.0253C12.3172 11.1535 12.3586 11.2731 12.3327 11.2925C12.3068 11.3118 12.2234 11.2235 12.1465 11.0954" fill="#006B3F"/>
<path d="M12.2404 11.0253C12.3172 11.1535 12.3586 11.2731 12.3327 11.2925C12.3068 11.3118 12.2234 11.2235 12.1465 11.0954" stroke="black" stroke-width="0.01"/>
<path d="M12.1268 10.959C12.1822 11.0626 12.2121 11.1592 12.1935 11.1748C12.175 11.1903 12.115 11.1189 12.0596 11.0153" fill="#006B3F"/>
<path d="M12.1268 10.959C12.1822 11.0626 12.2121 11.1592 12.1935 11.1748C12.175 11.1903 12.115 11.1189 12.0596 11.0153" stroke="black" stroke-width="0.01"/>
<path d="M12.122 10.8081C12.085 10.8454 12.1212 10.915 12.1551 10.9402C12.193 10.9746 12.4062 11.1994 12.5566 11.0102C12.4361 11.008 12.2112 10.7252 12.122 10.8081Z" fill="#9461C9" stroke="black" stroke-width="0.01"/>
<path d="M12.0956 10.6969C12.0587 10.7341 12.0949 10.8037 12.1287 10.8289C12.1667 10.8633 12.3799 11.0882 12.5303 10.899C12.4097 10.8968 12.1849 10.6139 12.0956 10.6969Z" fill="#9461C9" stroke="black" stroke-width="0.01"/>
<path d="M12.0624 10.5914C12.0255 10.6286 12.0617 10.6983 12.0955 10.7234C12.1335 10.7578 12.3466 10.9827 12.497 10.7935C12.3765 10.7913 12.1516 10.5084 12.0624 10.5914Z" fill="#9461C9" stroke="black" stroke-width="0.01"/>
<path d="M11.9892 10.4684C11.9522 10.5056 11.9884 10.5752 12.0223 10.6004C12.0602 10.6348 12.2734 10.8597 12.4238 10.6705C12.3033 10.6683 12.0784 10.3854 11.9892 10.4684Z" fill="#9461C9" stroke="black" stroke-width="0.01"/>
<path d="M11.7259 10.3527C11.8021 10.296 11.9421 10.2794 12.0511 10.335C12.142 10.3795 12.2934 10.561 12.4072 10.604C12.3271 10.6183 12.2783 10.6062 12.2271 10.5816C12.1261 10.6548 12.09 10.6658 11.987 10.6802C11.8437 10.7008 11.7248 10.6635 11.683 10.5888C11.6404 10.5183 11.6588 10.4052 11.7259 10.3527Z" fill="#9461C9" stroke="black" stroke-width="0.01"/>
<path d="M11.8865 10.5031C11.9228 10.5037 11.9525 10.4872 11.9528 10.4662C11.9532 10.4452 11.9241 10.4276 11.8879 10.4269C11.8516 10.4263 11.822 10.4428 11.8216 10.4638C11.8212 10.4849 11.8503 10.5024 11.8865 10.5031Z" fill="#D41C30" stroke="black" stroke-width="0.01"/>
<path d="M11.7065 10.6721C11.7539 10.6545 11.7836 10.6168 11.7729 10.5879C11.7622 10.559 11.7151 10.5499 11.6678 10.5675C11.6204 10.5851 11.5907 10.6228 11.6014 10.6517C11.6121 10.6806 11.6592 10.6897 11.7065 10.6721Z" fill="#FCD116" stroke="black" stroke-width="0.01"/>
<path d="M11.8842 10.4846C11.8972 10.4848 11.908 10.4759 11.9082 10.4646C11.9084 10.4533 11.898 10.444 11.8849 10.4438C11.8719 10.4435 11.8612 10.4525 11.861 10.4638C11.8608 10.475 11.8712 10.4844 11.8842 10.4846Z" fill="black"/>
<path d="M11.7435 10.516C11.7495 10.5452 11.7278 10.5847 11.6808 10.5987C11.6329 10.6186 11.5965 10.6636 11.5755 10.7371C11.5027 10.5694 11.549 10.4984 11.6264 10.4811C11.6929 10.4599 11.733 10.4626 11.7435 10.516Z" fill="#FCD116" stroke="black" stroke-width="0.01"/>
<path d="M11.6738 10.5469C11.683 10.5465 11.6901 10.5384 11.6896 10.529C11.689 10.5196 11.6812 10.5123 11.6719 10.5128C11.6627 10.5133 11.6557 10.5213 11.6562 10.5307C11.6567 10.5402 11.6646 10.5474 11.6738 10.5469Z" fill="black"/>
<path d="M20 6L20 18L4 18L4 6L20 6ZM20 5L4 5C3.4 5 3 5.4 3 6L3 18C3 18.6 3.4 19 4 19L20 19C20.6 19 21 18.6 21 18L21 6C21 5.4 20.6 5 20 5Z" fill="none"/>
<g clip-path="url(#clip0_14099_115329)">
<path fill-rule="evenodd" clip-rule="evenodd" d="M-0.0771484 6H24.0691V18.032H-0.0771484V6Z" fill="#108C00"/>
<path fill-rule="evenodd" clip-rule="evenodd" d="M-0.117188 10.1877H24.1489V11.365H-0.117188V10.1877Z" fill="#FFD600"/>
<path fill-rule="evenodd" clip-rule="evenodd" d="M10.2461 6H11.3858V18.032H10.2484L10.2461 6Z" fill="#FFD600"/>
<path fill-rule="evenodd" clip-rule="evenodd" d="M11.3457 6H12.4831V18.032H11.3457V6Z" fill="black"/>
<path fill-rule="evenodd" clip-rule="evenodd" d="M-0.117188 11.3251H24.1489V12.5048H-0.117188V11.3251Z" fill="black"/>
<path fill-rule="evenodd" clip-rule="evenodd" d="M-0.117188 12.5048H24.1489V13.6822H-0.117188V12.5048Z" fill="white"/>
<path fill-rule="evenodd" clip-rule="evenodd" d="M12.4834 6H13.6231V18.032H12.4834V6Z" fill="white"/>
<path d="M8.83133 12.0254C8.83133 13.81 10.2717 15.2567 12.0485 15.2567C13.8253 15.2567 15.2656 13.81 15.2656 12.0254C15.2656 10.2408 13.8253 8.79415 12.0485 8.79415C10.2717 8.79415 8.83133 10.2408 8.83133 12.0254Z" fill="#E72910"/>
<path fill-rule="evenodd" clip-rule="evenodd" d="M11.8794 9.21951L12.011 8.84351L12.1308 9.21246C12.1308 9.21246 12.5327 9.22421 12.5327 9.21716C12.5327 9.21011 12.2154 9.45921 12.2154 9.45921L12.3588 9.87281C12.3541 9.86106 12.011 9.61666 12.011 9.61666C12.011 9.61666 11.6632 9.86106 11.6702 9.86106C11.6773 9.86106 11.8018 9.46156 11.8018 9.46156L11.4893 9.22421L11.8794 9.21716V9.21951Z" fill="black"/>
<path fill-rule="evenodd" clip-rule="evenodd" d="M11.8984 9.23595L12.0088 8.914L12.1122 9.2336C12.1122 9.2336 12.4624 9.243 12.4624 9.2383C12.4624 9.2336 12.1874 9.4498 12.1874 9.4498L12.3096 9.807C12.3049 9.79525 12.0088 9.5861 12.0088 9.5861C12.0088 9.5861 11.708 9.7976 11.7127 9.7976C11.7174 9.7976 11.8302 9.4498 11.8302 9.4498L11.5576 9.243L11.896 9.2383L11.8984 9.23595Z" fill="#FFE700"/>
<path fill-rule="evenodd" clip-rule="evenodd" d="M11.9456 9.28999L12.0114 9.10199L12.0725 9.28764C12.0725 9.28764 12.2723 9.29234 12.2723 9.28764C12.2723 9.28294 12.1148 9.40984 12.1148 9.40984L12.1853 9.61664C12.183 9.60959 12.0114 9.48974 12.0114 9.48974L11.8422 9.61194C11.8469 9.61194 11.908 9.41219 11.908 9.41219L11.7529 9.29469L11.9456 9.28999Z" fill="#108C00"/>
<path fill-rule="evenodd" clip-rule="evenodd" d="M14.3803 10.9773L14.5119 10.6013L14.6294 10.9703C14.6294 10.9703 15.0336 10.9844 15.0336 10.9773C15.0336 10.9703 14.7164 11.2194 14.7164 11.2194L14.8574 11.633C14.8527 11.6212 14.5119 11.3768 14.5119 11.3768C14.5119 11.3768 14.1641 11.6212 14.1712 11.6212C14.1782 11.6212 14.3028 11.2217 14.3028 11.2217L13.9902 10.982L14.3803 10.975V10.9773Z" fill="black"/>
<path fill-rule="evenodd" clip-rule="evenodd" d="M14.3966 10.9961L14.5117 10.6695L14.6151 10.9914C14.6151 10.9914 14.9629 11.0008 14.9629 10.9961C14.9629 10.9914 14.688 11.2076 14.688 11.2076L14.8125 11.5625C14.8078 11.5531 14.5117 11.3416 14.5117 11.3416C14.5117 11.3416 14.2109 11.5531 14.2156 11.5531C14.2203 11.5531 14.3308 11.2053 14.3308 11.2053L14.0605 11.0008L14.3966 10.9961Z" fill="#FFE700"/>
<path fill-rule="evenodd" clip-rule="evenodd" d="M14.446 11.0502L14.5118 10.8622L14.5706 11.0455L14.7727 11.0502L14.6129 11.17C14.6129 11.17 14.6881 11.3815 14.6834 11.3768C14.6834 11.3698 14.5118 11.2499 14.5118 11.2499L14.3403 11.3698L14.4061 11.17L14.251 11.0525L14.446 11.0502Z" fill="#108C00"/>
<path fill-rule="evenodd" clip-rule="evenodd" d="M13.6518 13.7691L13.7834 13.3931L13.9009 13.7644C13.9009 13.7644 14.3051 13.7762 14.3051 13.7715C14.3051 13.7668 13.9879 14.0135 13.9879 14.0135L14.1289 14.4248C14.1242 14.413 13.7834 14.171 13.7834 14.171C13.7834 14.171 13.4356 14.413 13.4403 14.413C13.445 14.413 13.5743 14.0135 13.5743 14.0135L13.2617 13.7785L13.6518 13.7715V13.7691Z" fill="black"/>
<path fill-rule="evenodd" clip-rule="evenodd" d="M13.6681 13.7879L13.7832 13.4636L13.8866 13.7832C13.8866 13.7832 14.2344 13.795 14.2344 13.7879C14.2344 13.7809 13.9595 13.9994 13.9595 13.9994L14.084 14.3566C14.0793 14.3449 13.7832 14.1357 13.7832 14.1357C13.7832 14.1357 13.4824 14.3472 13.4871 14.3472C13.4918 14.3472 13.6023 13.9994 13.6023 13.9994L13.332 13.795L13.6681 13.7879Z" fill="#FFE700"/>
<path fill-rule="evenodd" clip-rule="evenodd" d="M13.7175 13.842L13.7833 13.654L13.8421 13.8396C13.8421 13.8396 14.0442 13.8467 14.0442 13.842C14.0442 13.8373 13.8844 13.9642 13.8844 13.9642L13.9549 14.1686C13.9549 14.1639 13.7833 14.0417 13.7833 14.0417L13.6118 14.1639L13.6776 13.9642L13.5225 13.8467L13.7175 13.842Z" fill="#108C00"/>
<path fill-rule="evenodd" clip-rule="evenodd" d="M10.1567 13.7691L10.2883 13.3931L10.4058 13.7644C10.4058 13.7644 10.8077 13.7762 10.8077 13.7715C10.8077 13.7668 10.4904 14.0135 10.4904 14.0135L10.6361 14.4248C10.6291 14.413 10.2883 14.171 10.2883 14.171C10.2883 14.171 9.9405 14.413 9.9452 14.413C9.9499 14.413 10.0792 14.0135 10.0792 14.0135L9.7666 13.7785L10.1567 13.7715V13.7691Z" fill="black"/>
<path fill-rule="evenodd" clip-rule="evenodd" d="M10.1753 13.7879L10.2881 13.4636L10.3915 13.7832C10.3915 13.7832 10.7393 13.795 10.7393 13.7879C10.7393 13.7809 10.4644 13.9994 10.4644 13.9994L10.5889 14.3566C10.5842 14.3449 10.2881 14.1357 10.2881 14.1357C10.2881 14.1357 9.98731 14.3472 9.99201 14.3472C9.99671 14.3472 10.1072 13.9994 10.1072 13.9994L9.83691 13.795L10.173 13.7879H10.1753Z" fill="#FFE700"/>
<path fill-rule="evenodd" clip-rule="evenodd" d="M10.2224 13.842L10.2882 13.654L10.3469 13.8396C10.3469 13.8396 10.549 13.8467 10.549 13.842C10.549 13.8373 10.3892 13.9642 10.3892 13.9642L10.4597 14.1686C10.4597 14.1639 10.2882 14.0417 10.2882 14.0417L10.1166 14.1639L10.1824 13.9642L10.0273 13.8467L10.2224 13.842Z" fill="#108C00"/>
<path fill-rule="evenodd" clip-rule="evenodd" d="M9.51803 10.9044L9.64963 10.5284L9.76948 10.8997C9.76948 10.8997 10.1713 10.9115 10.1713 10.9044C10.1713 10.8974 9.85408 11.1488 9.85408 11.1488L9.99743 11.5601C9.99038 11.5483 9.64963 11.3063 9.64963 11.3063C9.64963 11.3063 9.30183 11.546 9.30888 11.546C9.31593 11.546 9.44048 11.1465 9.44048 11.1465L9.12793 10.9115L9.51803 10.9044Z" fill="black"/>
<path fill-rule="evenodd" clip-rule="evenodd" d="M9.53664 10.9232L9.64944 10.5989L9.75519 10.9185C9.75519 10.9185 10.1006 10.9303 10.1006 10.9232C10.1006 10.9162 9.82569 11.1347 9.82569 11.1347L9.95024 11.4919C9.94554 11.4802 9.64944 11.271 9.64944 11.271C9.64944 11.271 9.34864 11.4825 9.35569 11.4825C9.36274 11.4825 9.46849 11.1347 9.46849 11.1347L9.19824 10.9303L9.53664 10.9232Z" fill="#FFE700"/>
<path fill-rule="evenodd" clip-rule="evenodd" d="M9.5843 10.9773L9.6501 10.7893L9.7112 10.975L9.91095 10.9773L9.7535 11.0995L9.824 11.304C9.82165 11.2993 9.6501 11.1771 9.6501 11.1771L9.4809 11.2993C9.4856 11.2993 9.5467 11.0995 9.5467 11.0995L9.3916 10.982L9.5843 10.9773Z" fill="#108C00"/>
<path fill-rule="evenodd" clip-rule="evenodd" d="M13.6211 10.0913L13.4895 10.4673L13.372 10.0984C13.372 10.0984 12.9678 10.0866 12.9678 10.0913C12.9678 10.096 13.285 9.8493 13.285 9.8493L13.144 9.43805C13.1487 9.4498 13.4895 9.69185 13.4895 9.69185C13.4895 9.69185 13.8373 9.4498 13.8302 9.4498C13.8232 9.4498 13.6986 9.8493 13.6986 9.8493L14.0112 10.0843L13.6211 10.0913Z" fill="black"/>
<path fill-rule="evenodd" clip-rule="evenodd" d="M13.6044 10.0726C13.6044 10.0796 13.4869 10.3992 13.4869 10.3992L13.3859 10.0796C13.3859 10.0796 13.0381 10.0679 13.0381 10.0726C13.0381 10.0773 13.313 9.86343 13.313 9.86343L13.1885 9.50623C13.1932 9.51798 13.4893 9.72713 13.4893 9.72713C13.4893 9.72713 13.7901 9.51563 13.7854 9.51563C13.7807 9.51563 13.6702 9.86343 13.6702 9.86343L13.9405 10.0679L13.6021 10.0726H13.6044Z" fill="#FFE700"/>
<path fill-rule="evenodd" clip-rule="evenodd" d="M13.5552 10.0185L13.4894 10.2065L13.4306 10.0232C13.4306 10.0232 13.2285 10.0162 13.2285 10.0209C13.2285 10.0256 13.3883 9.89866 13.3883 9.89866L13.3178 9.69421C13.3178 9.69891 13.4894 9.82111 13.4894 9.82111L13.6609 9.69891C13.6562 9.69891 13.5928 9.89866 13.5928 9.89866L13.7502 10.0162L13.5552 10.0209V10.0185Z" fill="#108C00"/>
<path fill-rule="evenodd" clip-rule="evenodd" d="M14.624 12.822L14.4924 13.198L14.3749 12.8267C14.3749 12.8267 13.9707 12.815 13.9707 12.822C13.9707 12.8291 14.288 12.58 14.288 12.58L14.147 12.1664C14.1517 12.1781 14.4924 12.4202 14.4924 12.4202C14.4924 12.4202 14.8402 12.1781 14.8332 12.1781C14.8261 12.1781 14.7016 12.5776 14.7016 12.5776L15.0165 12.815L14.6264 12.822H14.624Z" fill="black"/>
<path fill-rule="evenodd" clip-rule="evenodd" d="M14.6074 12.8033L14.4922 13.1276L14.3888 12.808C14.3888 12.808 14.041 12.7986 14.041 12.8033C14.041 12.808 14.316 12.5918 14.316 12.5918L14.1914 12.2346C14.1961 12.2463 14.4922 12.4555 14.4922 12.4555C14.4922 12.4555 14.793 12.244 14.7883 12.244C14.7836 12.244 14.6732 12.5918 14.6732 12.5918L14.9434 12.7986L14.605 12.8033H14.6074Z" fill="#FFE700"/>
<path fill-rule="evenodd" clip-rule="evenodd" d="M14.5581 12.7492L14.4923 12.9372L14.4335 12.7515C14.4335 12.7515 14.2314 12.7468 14.2314 12.7515C14.2314 12.7562 14.3912 12.6293 14.3912 12.6293L14.3207 12.4225C14.3207 12.4296 14.4923 12.5494 14.4923 12.5494L14.6638 12.4272C14.6591 12.4272 14.5957 12.6293 14.5957 12.6293L14.7531 12.7468L14.5581 12.7492Z" fill="#108C00"/>
<path fill-rule="evenodd" clip-rule="evenodd" d="M12.1357 14.8195L12.0041 15.1955L11.8866 14.8242C11.8866 14.8242 11.4824 14.8125 11.4824 14.8172C11.4824 14.8219 11.7997 14.5751 11.7997 14.5751L11.6587 14.1639C11.6634 14.1756 12.0041 14.4177 12.0041 14.4177C12.0041 14.4177 12.3519 14.1756 12.3449 14.1756C12.3378 14.1756 12.2133 14.5751 12.2133 14.5751L12.5258 14.8125L12.1357 14.8195Z" fill="black"/>
<path fill-rule="evenodd" clip-rule="evenodd" d="M12.1191 14.7984L12.0039 15.1274L11.9005 14.8055C11.9005 14.8055 11.5527 14.7937 11.5527 14.8008C11.5527 14.8078 11.8277 14.5893 11.8277 14.5893L11.7031 14.2321C11.7078 14.2438 12.0039 14.453 12.0039 14.453C12.0039 14.453 12.3047 14.2415 12.3 14.2415C12.2953 14.2415 12.1849 14.5893 12.1849 14.5893L12.4551 14.7937L12.1191 14.8008V14.7984Z" fill="#FFE700"/>
<path fill-rule="evenodd" clip-rule="evenodd" d="M12.0698 14.7467L12.004 14.9347L11.9453 14.749C11.9453 14.749 11.7432 14.742 11.7432 14.7467C11.7432 14.7514 11.903 14.6245 11.903 14.6245L11.8325 14.42C11.8325 14.4247 12.004 14.5469 12.004 14.5469L12.1756 14.4247L12.1098 14.6245L12.2649 14.742L12.0698 14.7467Z" fill="#108C00"/>
<path fill-rule="evenodd" clip-rule="evenodd" d="M9.80018 12.822L9.66623 13.198L9.54873 12.8267C9.54873 12.8267 9.14453 12.815 9.14453 12.822C9.14453 12.8291 9.46178 12.58 9.46178 12.58L9.32078 12.1664C9.32548 12.1781 9.66623 12.4202 9.66623 12.4202L10.0117 12.1805L9.87773 12.58L10.1903 12.8173L9.80018 12.8244V12.822Z" fill="black"/>
<path fill-rule="evenodd" clip-rule="evenodd" d="M9.78119 12.8033L9.66604 13.1276L9.56264 12.808C9.56264 12.808 9.21484 12.7986 9.21484 12.8033C9.21484 12.808 9.48979 12.5918 9.48979 12.5918L9.36524 12.2346C9.36994 12.2463 9.66604 12.4555 9.66604 12.4555C9.66604 12.4555 9.96684 12.244 9.96214 12.244C9.95744 12.244 9.84699 12.5918 9.84699 12.5918L10.1172 12.7986L9.78119 12.8033Z" fill="#FFE700"/>
<path fill-rule="evenodd" clip-rule="evenodd" d="M9.73192 12.7492L9.66612 12.9372L9.60737 12.7515C9.60737 12.7515 9.40527 12.7468 9.40527 12.7515C9.40527 12.7562 9.56507 12.6293 9.56507 12.6293L9.49457 12.4225C9.49457 12.4296 9.66612 12.5494 9.66612 12.5494L9.83767 12.4272L9.77187 12.6293L9.92697 12.7468L9.73192 12.7492Z" fill="#108C00"/>
<path fill-rule="evenodd" clip-rule="evenodd" d="M10.6621 10.1313L10.5305 10.5073L10.4083 10.1384C10.4083 10.1384 10.0088 10.1266 10.0088 10.1313C10.0088 10.136 10.326 9.88928 10.326 9.88928L10.1827 9.47803C10.1874 9.48978 10.5281 9.73183 10.5281 9.73183C10.5281 9.73183 10.8759 9.48978 10.8712 9.48978C10.8665 9.48978 10.7396 9.88928 10.7396 9.88928L11.0498 10.1243L10.6621 10.1337V10.1313Z" fill="black"/>
<path fill-rule="evenodd" clip-rule="evenodd" d="M10.6435 10.1126L10.5283 10.4416L10.4249 10.1196C10.4249 10.1196 10.0771 10.1079 10.0771 10.1149C10.0771 10.122 10.3521 9.9034 10.3521 9.9034L10.2275 9.5462C10.2322 9.55795 10.5283 9.7671 10.5283 9.7671C10.5283 9.7671 10.8291 9.5556 10.8244 9.5556C10.8197 9.5556 10.7116 9.9034 10.7116 9.9034L10.9795 10.1079L10.6435 10.1149V10.1126Z" fill="#FFE700"/>
<path fill-rule="evenodd" clip-rule="evenodd" d="M10.5938 10.0608L10.528 10.2488L10.4693 10.0632C10.4693 10.0632 10.2695 10.0561 10.2695 10.0608C10.2695 10.0655 10.427 9.93864 10.427 9.93864L10.3565 9.73419C10.3565 9.73889 10.528 9.86109 10.528 9.86109L10.6996 9.73889L10.6338 9.93864L10.7889 10.0561L10.5938 10.0608Z" fill="#108C00"/>
<path d="M12.2419 13.5457C12.335 13.5341 12.4105 13.1508 12.4105 12.6897C12.4105 12.2285 12.335 11.8641 12.2419 11.8758C12.1487 11.8874 12.0732 12.2707 12.0732 12.7318C12.0732 13.193 12.1487 13.5573 12.2419 13.5457Z" fill="#009200" stroke="black" stroke-width="0.01"/>
<path d="M12.457 13.5333C12.5568 13.5208 12.6377 13.1369 12.6377 12.6757C12.6377 12.2146 12.5568 11.8509 12.457 11.8633C12.3573 11.8758 12.2764 12.2598 12.2764 12.7209C12.2764 13.182 12.3573 13.5457 12.457 13.5333Z" fill="#009200" stroke="black" stroke-width="0.01"/>
<path d="M12.3721 13.6525C12.4519 13.6426 12.5166 13.2233 12.5166 12.716C12.5166 12.2087 12.4519 11.8056 12.3721 11.8156C12.2922 11.8256 12.2275 12.2449 12.2275 12.7521C12.2275 13.2594 12.2922 13.6625 12.3721 13.6525Z" fill="#009200" stroke="black" stroke-width="0.01"/>
<path fill-rule="evenodd" clip-rule="evenodd" d="M11.3799 12.9111C11.5265 12.9037 11.463 12.8304 11.5363 12.7889C11.6096 12.7498 11.7147 12.7742 11.7465 12.8231C11.7783 12.872 11.7538 12.9208 11.7954 12.9208C11.8369 12.9208 12.944 12.8597 12.9831 12.8988C13.0223 12.9404 13.032 13.021 12.9905 13.0528C12.9514 13.087 11.551 13.1261 11.5021 13.0919C11.4532 13.0577 11.3799 12.9208 11.3799 12.9111Z" fill="#A95600" stroke="black" stroke-width="0.01"/>
<path fill-rule="evenodd" clip-rule="evenodd" d="M12.1459 13.2007C12.1459 13.2985 12.313 13.2686 12.3174 13.3503C12.3149 13.4368 12.0363 13.3588 12.0293 13.2007C12.0363 13.0423 12.3042 12.9612 12.3105 13.0516C12.3149 13.1264 12.1455 13.1029 12.1455 13.2007H12.1459Z" fill="#FFFF00" stroke="black" stroke-width="0.01"/>
<path fill-rule="evenodd" clip-rule="evenodd" d="M12.2435 13.2031C12.2435 13.3009 12.4107 13.2711 12.4151 13.3527C12.4125 13.4392 12.1339 13.3613 12.127 13.2031C12.1339 13.0448 12.4019 12.9636 12.4081 13.0541C12.4125 13.1288 12.2432 13.1054 12.2432 13.2031H12.2435Z" fill="#FFFF00" stroke="black" stroke-width="0.01"/>
<path fill-rule="evenodd" clip-rule="evenodd" d="M12.349 13.1983C12.349 13.296 12.5162 13.2662 12.5206 13.3478C12.518 13.4343 12.2394 13.3564 12.2324 13.1983C12.2394 13.0399 12.5074 12.9587 12.5136 13.0492C12.518 13.124 12.3486 13.1005 12.3486 13.1983H12.349Z" fill="#FFFF00" stroke="black" stroke-width="0.01"/>
<path fill-rule="evenodd" clip-rule="evenodd" d="M12.4467 13.1983C12.4467 13.296 12.6138 13.2662 12.6182 13.3478C12.6157 13.4343 12.337 13.3564 12.3301 13.1983C12.337 13.0399 12.605 12.9587 12.6113 13.0492C12.6157 13.124 12.4463 13.1005 12.4463 13.1983H12.4467Z" fill="#FFFF00" stroke="black" stroke-width="0.01"/>
<path d="M12.9169 13.4955C12.9689 13.4964 13.0118 13.4544 13.0127 13.4017C13.0136 13.3489 12.9722 13.3053 12.9203 13.3044C12.8683 13.3034 12.8254 13.3455 12.8245 13.3982C12.8236 13.451 12.865 13.4946 12.9169 13.4955Z" fill="#A95600" stroke="black" stroke-width="0.01"/>
<path d="M12.3321 13.4121C12.3796 13.4072 12.4095 13.3194 12.399 13.2158C12.3885 13.1123 12.3415 13.0322 12.294 13.037C12.2465 13.0419 12.2165 13.1297 12.2271 13.2333C12.2376 13.3369 12.2846 13.4169 12.3321 13.4121Z" fill="#009200" stroke="black" stroke-width="0.01"/>
<path d="M12.1885 13.3996C12.236 13.3948 12.266 13.3069 12.2555 13.2034C12.2449 13.0998 12.1979 13.0198 12.1504 13.0246C12.1029 13.0294 12.073 13.1173 12.0835 13.2208C12.094 13.3244 12.141 13.4044 12.1885 13.3996Z" fill="#009200" stroke="black" stroke-width="0.01"/>
<path d="M12.086 13.216C12.1335 13.2111 12.1634 13.1233 12.1529 13.0197C12.1424 12.9162 12.0954 12.8361 12.0479 12.8409C12.0004 12.8458 11.9704 12.9336 11.981 13.0372C11.9915 13.1407 12.0385 13.2208 12.086 13.216Z" fill="#009200" stroke="black" stroke-width="0.01"/>
<path d="M12.1909 13.1825C12.2356 13.1779 12.2625 13.0824 12.251 12.9692C12.2395 12.8559 12.194 12.7678 12.1493 12.7723C12.1046 12.7768 12.0777 12.8723 12.0892 12.9856C12.1007 13.0989 12.1463 13.187 12.1909 13.1825Z" fill="#009200" stroke="black" stroke-width="0.01"/>
<path d="M12.3927 13.2067C12.4374 13.2021 12.4648 13.1119 12.4539 13.0051C12.4431 12.8983 12.3981 12.8154 12.3534 12.8199C12.3087 12.8244 12.2813 12.9147 12.2921 13.0215C12.303 13.1283 12.348 13.2112 12.3927 13.2067Z" fill="#009200" stroke="black" stroke-width="0.01"/>
<path d="M12.2823 13.1392C12.327 13.1347 12.3544 13.0444 12.3436 12.9376C12.3327 12.8308 12.2877 12.7479 12.243 12.7525C12.1983 12.757 12.1709 12.8473 12.1818 12.9541C12.1926 13.0609 12.2376 13.1438 12.2823 13.1392Z" fill="#009200" stroke="black" stroke-width="0.01"/>
<path d="M12.1456 13.0427C12.1903 13.0381 12.2177 12.9479 12.2069 12.8411C12.196 12.7343 12.151 12.6514 12.1063 12.6559C12.0616 12.6604 12.0342 12.7507 12.045 12.8575C12.0559 12.9643 12.1009 13.0472 12.1456 13.0427Z" fill="#009200" stroke="black" stroke-width="0.01"/>
<path d="M12.0167 12.9869C12.0614 12.9824 12.0888 12.8921 12.078 12.7853C12.0671 12.6785 12.0221 12.5956 11.9774 12.6002C11.9327 12.6047 11.9053 12.695 11.9161 12.8018C11.927 12.9086 11.972 12.9915 12.0167 12.9869Z" fill="#009200" stroke="black" stroke-width="0.01"/>
<path fill-rule="evenodd" clip-rule="evenodd" d="M11.898 10.9998C11.898 10.9998 11.612 11.2442 11.6511 11.9017C11.6951 12.5615 12.2988 12.867 12.2988 12.867C12.2988 12.867 12.4503 12.6788 12.4259 12.1461C12.377 11.3689 12.0886 11.0291 12.0886 11.0291L11.898 10.9974V10.9998Z" fill="#804BFF" stroke="black" stroke-width="0.01"/>
<path d="M12.496 13.4388C12.5436 13.4425 12.5888 13.3614 12.597 13.2577C12.6051 13.1539 12.5732 13.0667 12.5256 13.063C12.478 13.0592 12.4328 13.1403 12.4247 13.2441C12.4165 13.3479 12.4484 13.435 12.496 13.4388Z" fill="#009200" stroke="black" stroke-width="0.01"/>
<path d="M12.3564 13.4009C12.404 13.4046 12.4491 13.3235 12.4573 13.2198C12.4655 13.116 12.4335 13.0288 12.386 13.0251C12.3384 13.0213 12.2932 13.1024 12.285 13.2062C12.2768 13.31 12.3088 13.3971 12.3564 13.4009Z" fill="#009200" stroke="black" stroke-width="0.01"/>
<path d="M12.289 13.2019C12.3366 13.2056 12.3818 13.1245 12.3899 13.0207C12.3981 12.917 12.3662 12.8298 12.3186 12.8261C12.271 12.8223 12.2258 12.9034 12.2176 13.0072C12.2095 13.1109 12.2414 13.1981 12.289 13.2019Z" fill="#009200" stroke="black" stroke-width="0.01"/>
<path d="M12.3983 13.1878C12.4431 13.1913 12.4867 13.1022 12.4956 12.9887C12.5045 12.8752 12.4755 12.7803 12.4307 12.7768C12.3859 12.7732 12.3424 12.8624 12.3334 12.9759C12.3245 13.0894 12.3536 13.1843 12.3983 13.1878Z" fill="#009200" stroke="black" stroke-width="0.01"/>
<path d="M12.5926 13.2476C12.6374 13.2511 12.6805 13.1673 12.6889 13.0602C12.6973 12.9532 12.6679 12.8636 12.6231 12.8601C12.5783 12.8566 12.5352 12.9405 12.5267 13.0475C12.5183 13.1545 12.5478 13.2441 12.5926 13.2476Z" fill="#009200" stroke="black" stroke-width="0.01"/>
<path d="M12.4959 13.1616C12.5407 13.1651 12.5838 13.0813 12.5922 12.9742C12.6007 12.8672 12.5712 12.7776 12.5264 12.7741C12.4816 12.7706 12.4385 12.8545 12.4301 12.9615C12.4216 13.0685 12.4511 13.1581 12.4959 13.1616Z" fill="#009200" stroke="black" stroke-width="0.01"/>
<path d="M12.3777 13.042C12.4225 13.0455 12.4656 12.9616 12.4741 12.8546C12.4825 12.7476 12.453 12.658 12.4082 12.6545C12.3635 12.6509 12.3203 12.7348 12.3119 12.8418C12.3035 12.9489 12.3329 13.0385 12.3777 13.042Z" fill="#009200" stroke="black" stroke-width="0.01"/>
<path d="M12.2615 12.9642C12.3063 12.9677 12.3494 12.8838 12.3579 12.7768C12.3663 12.6698 12.3368 12.5802 12.292 12.5766C12.2472 12.5731 12.2041 12.657 12.1957 12.764C12.1873 12.871 12.2167 12.9607 12.2615 12.9642Z" fill="#009200" stroke="black" stroke-width="0.01"/>
<path d="M12.7398 12.8922C12.8657 12.8449 12.8453 12.5006 12.6943 12.123C12.5432 11.7454 12.3187 11.4775 12.1928 11.5247C12.0669 11.572 12.0873 11.9163 12.2383 12.2939C12.3894 12.6715 12.6139 12.9394 12.7398 12.8922Z" fill="#C90000" stroke="black" stroke-width="0.01"/>
<path d="M12.3259 11.6399C12.3842 11.6409 12.4322 11.5994 12.4331 11.5472C12.434 11.4949 12.3875 11.4518 12.3292 11.4508C12.2709 11.4497 12.2229 11.4913 12.222 11.5435C12.2211 11.5957 12.2676 11.6389 12.3259 11.6399Z" fill="#009200" stroke="black" stroke-width="0.01"/>
<path d="M12.3596 11.5061C12.4106 11.5069 12.4527 11.4653 12.4536 11.4131C12.4545 11.3609 12.4139 11.3178 12.3629 11.3169C12.3119 11.316 12.2698 11.3576 12.2689 11.4099C12.2679 11.4621 12.3086 11.5052 12.3596 11.5061Z" fill="#009200" stroke="black" stroke-width="0.01"/>
<path d="M12.2326 11.5038C12.2836 11.5047 12.3257 11.4631 12.3266 11.4108C12.3276 11.3586 12.2869 11.3156 12.2359 11.3147C12.1849 11.3138 12.1428 11.3554 12.1419 11.4076C12.141 11.4598 12.1816 11.5029 12.2326 11.5038Z" fill="#009200" stroke="black" stroke-width="0.01"/>
<path d="M12.2822 11.2947C12.3361 11.2956 12.3805 11.2583 12.3813 11.2113C12.3821 11.1643 12.3391 11.1254 12.2851 11.1244C12.2312 11.1235 12.1868 11.1608 12.186 11.2079C12.1852 11.2549 12.2282 11.2937 12.2822 11.2947Z" fill="#009200" stroke="black" stroke-width="0.01"/>
<path d="M12.2714 11.1845C12.3254 11.1854 12.3697 11.1481 12.3706 11.1011C12.3714 11.0541 12.3283 11.0152 12.2744 11.0143C12.2205 11.0133 12.1761 11.0507 12.1753 11.0977C12.1745 11.1447 12.2175 11.1836 12.2714 11.1845Z" fill="#009200" stroke="black" stroke-width="0.01"/>
<path d="M12.1115 11.4332C12.1625 11.4341 12.2046 11.3925 12.2055 11.3403C12.2065 11.2881 12.1658 11.245 12.1148 11.2441C12.0638 11.2432 12.0217 11.2848 12.0208 11.3371C12.0199 11.3893 12.0605 11.4324 12.1115 11.4332Z" fill="#009200" stroke="black" stroke-width="0.01"/>
<path d="M12.1369 11.3652C12.1879 11.3661 12.23 11.3245 12.2309 11.2723C12.2318 11.2201 12.1912 11.177 12.1402 11.1761C12.0892 11.1752 12.0471 11.2168 12.0462 11.2691C12.0453 11.3213 12.0859 11.3644 12.1369 11.3652Z" fill="#009200" stroke="black" stroke-width="0.01"/>
<path d="M12.0329 11.317C12.0912 11.318 12.1392 11.2765 12.1401 11.2243C12.1411 11.1721 12.0945 11.1289 12.0362 11.1279C11.9779 11.1269 11.9299 11.1684 11.929 11.2206C11.9281 11.2728 11.9746 11.316 12.0329 11.317Z" fill="#009200" stroke="black" stroke-width="0.01"/>
<path d="M12.2001 11.0488C12.2541 11.0498 12.2985 11.0124 12.2993 10.9654C12.3001 10.9184 12.257 10.8795 12.2031 10.8786C12.1492 10.8777 12.1048 10.915 12.104 10.962C12.1032 11.009 12.1462 11.0479 12.2001 11.0488Z" fill="#009200" stroke="black" stroke-width="0.01"/>
<path d="M12.0471 11.2317C12.0981 11.2326 12.1402 11.191 12.1411 11.1387C12.142 11.0865 12.1014 11.0435 12.0504 11.0426C11.9994 11.0417 11.9573 11.0833 11.9564 11.1355C11.9554 11.1878 11.9961 11.2308 12.0471 11.2317Z" fill="#009200" stroke="black" stroke-width="0.01"/>
<path d="M11.8469 11.3211C11.8979 11.322 11.94 11.2804 11.9409 11.2282C11.9418 11.1759 11.9012 11.1329 11.8502 11.132C11.7992 11.1311 11.7571 11.1727 11.7562 11.2249C11.7552 11.2772 11.7959 11.3202 11.8469 11.3211Z" fill="#009200" stroke="black" stroke-width="0.01"/>
<path d="M11.8791 11.3046C11.9301 11.3055 11.9722 11.2639 11.9731 11.2116C11.974 11.1594 11.9334 11.1163 11.8824 11.1154C11.8314 11.1146 11.7893 11.1562 11.7884 11.2084C11.7875 11.2606 11.8281 11.3037 11.8791 11.3046Z" fill="#009200" stroke="black" stroke-width="0.01"/>
<path d="M11.9201 11.2295C11.9711 11.2304 12.0132 11.1888 12.0141 11.1366C12.0151 11.0843 11.9744 11.0413 11.9234 11.0404C11.8724 11.0395 11.8303 11.0811 11.8294 11.1333C11.8285 11.1856 11.8691 11.2286 11.9201 11.2295Z" fill="#009200" stroke="black" stroke-width="0.01"/>
<path d="M12.81 13.2326C12.9704 13.178 12.9548 12.7423 12.7749 12.2594C12.5951 11.7765 12.3192 11.4293 12.1587 11.4839C11.9983 11.5385 12.0139 11.9742 12.1938 12.4571C12.3736 12.94 12.6495 13.2872 12.81 13.2326Z" fill="#009200" stroke="black" stroke-width="0.01"/>
<path d="M12.8008 12.692C12.8304 12.6778 12.8225 12.5843 12.7832 12.4832C12.7438 12.3821 12.6878 12.3117 12.6582 12.326C12.6285 12.3402 12.6364 12.4338 12.6758 12.5348C12.7151 12.6359 12.7711 12.7063 12.8008 12.692Z" fill="#009200" stroke="black" stroke-width="0.01"/>
<path fill-rule="evenodd" clip-rule="evenodd" d="M12.691 12.4983C12.9321 12.8311 12.8957 13.0378 12.8658 13.2123C12.792 13.008 12.7535 12.8797 12.5123 12.5469C12.2712 12.2141 12.3998 11.9886 12.4193 11.8679C12.4544 11.9737 12.4498 12.1655 12.691 12.4983Z" fill="#009200" stroke="black" stroke-width="0.01"/>
<path fill-rule="evenodd" clip-rule="evenodd" d="M12.7085 12.7623C12.9497 13.0951 12.9133 13.3018 12.8833 13.4763C12.8095 13.272 12.771 13.1437 12.5299 12.8109C12.2888 12.4781 12.4174 12.2525 12.4369 12.1319C12.472 12.2377 12.4674 12.4295 12.7085 12.7623Z" fill="#009200" stroke="black" stroke-width="0.01"/>
<path fill-rule="evenodd" clip-rule="evenodd" d="M12.7273 12.9741C12.9761 13.3012 12.9443 13.5088 12.9182 13.684C12.8398 13.4814 12.7984 13.354 12.5496 13.0269C12.3009 12.6997 12.4246 12.4711 12.4414 12.35C12.4788 12.455 12.4786 12.6469 12.7273 12.9741Z" fill="#009200" stroke="black" stroke-width="0.01"/>
<path d="M12.6662 12.5397C12.7243 12.5254 12.7152 12.3673 12.6458 12.1867C12.5765 12.006 12.4731 11.8713 12.4149 11.8856C12.3567 11.9 12.3658 12.0581 12.4352 12.2387C12.5046 12.4193 12.608 12.5541 12.6662 12.5397Z" fill="#009200" stroke="black" stroke-width="0.01"/>
<path d="M12.5617 12.6369C12.6143 12.6287 12.6137 12.5014 12.5601 12.3527C12.5066 12.204 12.4205 12.0902 12.3678 12.0985C12.3152 12.1067 12.3159 12.2339 12.3694 12.3826C12.4229 12.5313 12.509 12.6452 12.5617 12.6369Z" fill="#009200" stroke="black" stroke-width="0.01"/>
<path d="M12.392 12.748C12.4447 12.7408 12.4472 12.6136 12.3977 12.4638C12.3481 12.314 12.2652 12.1984 12.2126 12.2056C12.1599 12.2127 12.1574 12.34 12.2069 12.4898C12.2565 12.6396 12.3394 12.7552 12.392 12.748Z" fill="#009200" stroke="black" stroke-width="0.01"/>
<path d="M12.5006 12.2206C12.5426 12.2135 12.5389 12.1183 12.4923 12.0082C12.4458 11.8981 12.3739 11.8146 12.3319 11.8218C12.2899 11.829 12.2936 11.9241 12.3402 12.0342C12.3868 12.1444 12.4586 12.2278 12.5006 12.2206Z" fill="#009200" stroke="black" stroke-width="0.01"/>
<path d="M12.4157 12.3293C12.4587 12.3246 12.4614 12.2288 12.4218 12.1154C12.3821 12.0019 12.3151 11.9138 12.2722 11.9184C12.2292 11.9231 12.2265 12.0188 12.2661 12.1323C12.3058 12.2457 12.3728 12.3339 12.4157 12.3293Z" fill="#009200" stroke="black" stroke-width="0.01"/>
<path fill-rule="evenodd" clip-rule="evenodd" d="M12.2609 12.0051C12.3297 12.2012 12.3552 12.3768 12.3176 12.3971C12.28 12.4174 12.1938 12.2745 12.125 12.0784" fill="#009200"/>
<path d="M12.2609 12.0051C12.3297 12.2012 12.3552 12.3768 12.3176 12.3971C12.28 12.4174 12.1938 12.2745 12.125 12.0784" stroke="black" stroke-width="0.01"/>
<path d="M12.4089 12.1015C12.4519 12.0968 12.4546 12.0011 12.4149 11.8876C12.3753 11.7742 12.3083 11.686 12.2653 11.6906C12.2223 11.6953 12.2196 11.7911 12.2593 11.9045C12.2989 12.018 12.3659 12.1061 12.4089 12.1015Z" fill="#009200" stroke="black" stroke-width="0.01"/>
<path d="M12.2845 12.1847C12.3275 12.1812 12.3318 12.0854 12.2942 11.9708C12.2565 11.8563 12.1911 11.7663 12.1481 11.7699C12.1052 11.7735 12.1008 11.8693 12.1385 11.9838C12.1762 12.0984 12.2416 12.1883 12.2845 12.1847Z" fill="#009200" stroke="black" stroke-width="0.01"/>
<path fill-rule="evenodd" clip-rule="evenodd" d="M12.148 11.74C12.2168 11.8729 12.2529 11.9963 12.2284 12.0153C12.204 12.0344 12.1284 11.9419 12.0596 11.8089" fill="#009200"/>
<path d="M12.148 11.74C12.2168 11.8729 12.2529 11.9963 12.2284 12.0153C12.204 12.0344 12.1284 11.9419 12.0596 11.8089" stroke="black" stroke-width="0.01"/>
<path fill-rule="evenodd" clip-rule="evenodd" d="M12.1988 11.6545C12.2676 11.7874 12.3037 11.9107 12.2792 11.9298C12.2548 11.9489 12.1792 11.8563 12.1104 11.7234" fill="#009200"/>
<path d="M12.1988 11.6545C12.2676 11.7874 12.3037 11.9107 12.2792 11.9298C12.2548 11.9489 12.1792 11.8563 12.1104 11.7234" stroke="black" stroke-width="0.01"/>
<path fill-rule="evenodd" clip-rule="evenodd" d="M12.4209 11.7013C12.5167 11.8841 12.5667 12.0534 12.5323 12.0794C12.498 12.1054 12.3926 11.9779 12.2969 11.7951" fill="#009200"/>
<path d="M12.4209 11.7013C12.5167 11.8841 12.5667 12.0534 12.5323 12.0794C12.498 12.1054 12.3926 11.9779 12.2969 11.7951" stroke="black" stroke-width="0.01"/>
<path fill-rule="evenodd" clip-rule="evenodd" d="M12.2759 11.5746C12.3447 11.7209 12.3808 11.8566 12.3564 11.8777C12.3319 11.8988 12.2563 11.7971 12.1875 11.6509" fill="#009200"/>
<path d="M12.2759 11.5746C12.3447 11.7209 12.3808 11.8566 12.3564 11.8777C12.3319 11.8988 12.2563 11.7971 12.1875 11.6509" stroke="black" stroke-width="0.01"/>
<path fill-rule="evenodd" clip-rule="evenodd" d="M12.3771 11.0655C12.329 11.115 12.3787 11.201 12.424 11.2306C12.4749 11.272 12.7627 11.5435 12.957 11.2951C12.7975 11.2994 12.4928 10.9553 12.3771 11.0655Z" fill="#804BFF" stroke="black" stroke-width="0.01"/>
<path fill-rule="evenodd" clip-rule="evenodd" d="M12.3429 10.9213C12.2948 10.9708 12.3445 11.0568 12.3898 11.0864C12.4407 11.1278 12.7285 11.3993 12.9228 11.1509C12.7633 11.1552 12.4587 10.8111 12.3429 10.9213Z" fill="#804BFF" stroke="black" stroke-width="0.01"/>
<path fill-rule="evenodd" clip-rule="evenodd" d="M12.299 10.7845C12.2509 10.8339 12.3005 10.92 12.3459 10.9495C12.3967 10.9909 12.6845 11.2625 12.8789 11.0141C12.7193 11.0184 12.4147 10.6743 12.299 10.7845Z" fill="#804BFF" stroke="black" stroke-width="0.01"/>
<path fill-rule="evenodd" clip-rule="evenodd" d="M12.2033 10.628C12.1552 10.6775 12.2048 10.7635 12.2502 10.7931C12.301 10.8345 12.5888 11.106 12.7832 10.8576C12.6236 10.8619 12.319 10.5178 12.2033 10.628Z" fill="#804BFF" stroke="black" stroke-width="0.01"/>
<path fill-rule="evenodd" clip-rule="evenodd" d="M11.7666 10.5589C11.8593 10.4865 12.0329 10.465 12.1703 10.5373C12.2849 10.5951 12.4785 10.8292 12.6213 10.8847C12.584 10.8934 12.545 10.8952 12.5065 10.8902C12.4679 10.8851 12.4307 10.8732 12.3969 10.8552C12.2734 10.9494 12.2292 10.963 12.101 10.9817C11.9239 11.0074 11.7747 10.9591 11.721 10.8629C11.6652 10.7721 11.6845 10.6266 11.7666 10.5589Z" fill="#804BFF" stroke="black" stroke-width="0.01"/>
<path d="M12.0372 10.7169C12.0851 10.7178 12.1244 10.6971 12.1248 10.6708C12.1253 10.6445 12.0868 10.6225 12.0389 10.6216C11.991 10.6208 11.9518 10.6415 11.9513 10.6678C11.9509 10.6941 11.9893 10.7161 12.0372 10.7169Z" fill="#FF0000" stroke="black" stroke-width="0.01"/>
<path d="M11.8259 10.9285C11.8893 10.9045 11.9289 10.8552 11.9146 10.8185C11.9002 10.7817 11.8372 10.7714 11.7738 10.7955C11.7105 10.8195 11.6708 10.8688 11.6852 10.9056C11.6996 10.9423 11.7626 10.9526 11.8259 10.9285Z" fill="#FFFF00" stroke="black" stroke-width="0.01"/>
<path d="M11.9004 10.849C11.9161 10.8493 11.929 10.8368 11.9292 10.8211C11.9295 10.8055 11.917 10.7926 11.9014 10.7923C11.8857 10.792 11.8728 10.8045 11.8726 10.8202C11.8723 10.8358 11.8847 10.8487 11.9004 10.849Z" fill="black"/>
<path fill-rule="evenodd" clip-rule="evenodd" d="M11.9391 10.7295C11.9492 10.7649 11.9212 10.8133 11.8564 10.8309C11.7904 10.8556 11.7423 10.9106 11.7173 11.0006C11.6055 10.7968 11.6661 10.7097 11.7731 10.6881C11.865 10.6615 11.9211 10.6644 11.9391 10.7295Z" fill="#FFFF00" stroke="black" stroke-width="0.01"/>
<path d="M11.6647 10.947C11.6774 10.9473 11.6879 10.9372 11.6881 10.9245C11.6883 10.9118 11.6782 10.9013 11.6655 10.9011C11.6529 10.9009 11.6424 10.911 11.6422 10.9237C11.642 10.9364 11.6521 10.9468 11.6647 10.947Z" fill="black"/>
</g>
<defs>
<clipPath id="clip0_14099_115329">
<rect width="16" height="12" fill="white" transform="translate(4 6)"/>
</clipPath>
</defs>
</svg>
