<svg width="24" height="24" viewBox="0 0 24 24" fill="none" xmlns="http://www.w3.org/2000/svg">
<path d="M20 6H4V18H20V6Z" fill="black"/>
<path d="M20 6H4V14H20V6Z" fill="white"/>
<path d="M20 6H4V10H20V6Z" fill="#CE1126"/>
<path d="M12.0162 12.0468L13.386 13.3183L13.2885 11.0089C13.2741 10.6589 12.97 10.7392 12.749 10.8655C12.5252 11.0089 12.2699 11.0089 12.0001 10.9142C11.7304 11.0089 11.4751 11.0089 11.2512 10.8655C11.0303 10.7392 10.7262 10.6589 10.7118 11.0089L10.6143 13.3183L12.0162 12.0468H12.0162Z" fill="white" stroke="#C09300" stroke-width="0.01" stroke-linejoin="round"/>
<path d="M10.8696 10.9297L10.775 13.1761L10.6143 13.3194L10.7118 11.01C10.7577 10.9785 10.8381 10.9297 10.8696 10.9297V10.9297Z" fill="#C09300"/>
<path d="M11.0623 11.0911L10.9819 12.9702L10.8213 13.1346L10.9188 10.9648C10.9504 10.9964 11.0451 11.0738 11.0623 11.0911L11.0623 11.0911Z" fill="#C09300"/>
<path d="M11.2371 11.2333L11.174 12.8006L11.0449 12.9268L11.1253 11.1387C11.1568 11.1702 11.2199 11.2161 11.2371 11.2333V11.2333Z" fill="#C09300"/>
<path d="M11.4267 11.3143L11.3636 12.65L11.2373 12.7524L11.3004 11.2655C11.332 11.2798 11.3951 11.3143 11.4267 11.3143V11.3143Z" fill="#C09300"/>
<path d="M11.6018 11.3143L11.5558 12.4274L11.4268 12.5537L11.4755 11.3286C11.5071 11.3286 11.5874 11.3286 11.6018 11.3143V11.3143Z" fill="#C09300"/>
<path d="M13.1245 10.9297L13.2192 13.1761L13.3799 13.3194L13.2823 11.01C13.2364 10.9785 13.1561 10.9297 13.1245 10.9297V10.9297Z" fill="#C09300"/>
<path d="M12.9319 11.0911L13.0122 12.9702L13.1729 13.1346L13.0753 10.9648C13.0437 10.9964 12.949 11.0738 12.9319 11.0911L12.9319 11.0911Z" fill="#C09300"/>
<path d="M12.757 11.2333L12.8201 12.8006L12.9492 12.9268L12.8689 11.1387C12.8374 11.1702 12.7742 11.2161 12.757 11.2333V11.2333Z" fill="#C09300"/>
<path d="M12.5674 11.3143L12.6306 12.65L12.7568 12.7524L12.6937 11.2655C12.6621 11.2798 12.599 11.3143 12.5674 11.3143V11.3143Z" fill="#C09300"/>
<path d="M12.3923 11.3143L12.4383 12.4274L12.5674 12.5537L12.5186 11.3286C12.4871 11.3286 12.4067 11.3286 12.3923 11.3143V11.3143Z" fill="#C09300"/>
<path d="M12.0636 12.3008L12.2559 13.1759L12.1927 13.239L12.1267 13.1902L12.0177 12.4098L12.0636 13.1902L12.0005 13.2705L11.9373 13.1902L11.9833 12.4098L11.8743 13.1902L11.8082 13.239L11.7451 13.1759L11.9373 12.3008H12.0636H12.0636Z" fill="#C09300" stroke="#C09300" stroke-width="0.01"/>
<path d="M11.5701 11.9161L11.1885 13.2702L11.7136 13.3505L11.9373 12.3321L11.5701 11.9161V11.9161Z" fill="white" stroke="#C09300" stroke-width="0.01" stroke-linejoin="round"/>
<path d="M11.4443 12.3771L11.4902 12.489L11.7383 12.252" stroke="#C09300" stroke-width="0.01" stroke-linejoin="round"/>
<path d="M11.6152 12.0977L11.6671 12.5846L11.825 12.378" stroke="#C09300" stroke-width="0.01" stroke-linejoin="round"/>
<path d="M11.7627 12.459L11.8489 12.7565" stroke="#C09300" stroke-width="0.01" stroke-linejoin="round"/>
<path d="M11.8822 12.6465L11.7078 12.9113M11.7622 13.1756L11.7064 12.9117L11.6577 12.6432L11.5409 12.8014L11.4897 12.619L11.3262 12.7867L11.4093 13.0917L11.5241 12.903L11.5872 13.0953L11.705 12.912" stroke="#C09300" stroke-width="0.01" stroke-linejoin="round"/>
<path d="M11.2998 13.2387L11.4058 13.0898L11.4749 13.3189L11.5695 13.1583L11.6327 13.3505" stroke="#C09300" stroke-width="0.01" stroke-linejoin="round"/>
<path d="M12.4182 11.916L12.7998 13.2701L12.2747 13.3505L12.0509 12.332L12.4182 11.916V11.916Z" fill="white" stroke="#C09300" stroke-width="0.01" stroke-linejoin="round"/>
<path d="M12.5439 12.3771L12.498 12.4889L12.2499 12.252" stroke="#C09300" stroke-width="0.01" stroke-linejoin="round"/>
<path d="M12.373 12.0976L12.3211 12.5845L12.1633 12.378" stroke="#C09300" stroke-width="0.01" stroke-linejoin="round"/>
<path d="M12.2256 12.459L12.1394 12.7565" stroke="#C09300" stroke-width="0.01" stroke-linejoin="round"/>
<path d="M12.1061 12.6464L12.2804 12.9113M12.2261 13.1756L12.2819 12.9116L12.3306 12.6432L12.4474 12.8013L12.4986 12.619L12.6621 12.7867L12.579 13.0917L12.4642 12.903L12.4011 13.0952L12.2833 12.912" stroke="#C09300" stroke-width="0.01" stroke-linejoin="round"/>
<path d="M12.6885 13.2386L12.5825 13.0897L12.5134 13.3189L12.4187 13.1582L12.3556 13.3505" stroke="#C09300" stroke-width="0.01" stroke-linejoin="round"/>
<path d="M11.9999 13.8739C12.3987 13.8739 12.7803 13.8423 13.0041 13.7792C13.0988 13.762 13.0988 13.7133 13.0988 13.6501C13.1935 13.6186 13.1447 13.5067 13.2107 13.5067C13.1447 13.524 13.1304 13.3948 13.0501 13.4121C13.0501 13.3001 12.9382 13.2858 12.8435 13.3173C12.6541 13.3805 12.3184 13.3948 11.9999 13.3948C11.6814 13.3805 11.3485 13.3805 11.1563 13.3173C11.0616 13.2858 10.9497 13.3001 10.9497 13.4121C10.8694 13.3948 10.855 13.524 10.7891 13.5067C10.855 13.5067 10.8063 13.6186 10.9009 13.6501C10.9009 13.7133 10.9009 13.762 10.9985 13.7792C11.2194 13.8423 11.6011 13.8739 11.9999 13.8739H11.9999Z" fill="white" stroke="#C09300" stroke-width="0.01" stroke-linecap="round" stroke-linejoin="round"/>
<path d="M11.458 13.2693C11.5871 13.2865 11.7306 13.3008 11.8425 13.2865C11.9056 13.2865 11.9515 13.3955 11.8253 13.4128C11.7134 13.4271 11.5384 13.4128 11.4437 13.3955C11.3633 13.3812 11.1883 13.3496 11.0764 13.318C10.9645 13.2693 11.0449 13.1746 11.1079 13.189C11.2055 13.2205 11.3318 13.2521 11.458 13.2693L11.458 13.2693Z" fill="white" stroke="#C09300" stroke-width="0.01" stroke-linecap="round" stroke-linejoin="round"/>
<path d="M12.5427 13.2693C12.4136 13.2865 12.2702 13.3008 12.1611 13.2865C12.0951 13.2865 12.0492 13.3955 12.1755 13.4128C12.2874 13.4271 12.4624 13.4128 12.557 13.3955C12.6374 13.3812 12.8124 13.3496 12.9243 13.318C13.0362 13.2693 12.9559 13.1746 12.8927 13.189C12.7952 13.2205 12.6689 13.2521 12.5427 13.2693L12.5427 13.2693Z" fill="white" stroke="#C09300" stroke-width="0.01" stroke-linecap="round" stroke-linejoin="round"/>
<path d="M11.0612 13.2069C10.9637 13.1896 10.9178 13.3015 10.9493 13.3646C10.9637 13.333 11.0297 13.333 11.044 13.3015C11.0612 13.2528 11.0297 13.2528 11.0612 13.2069Z" fill="white" stroke="#C09300" stroke-width="0.01" stroke-linecap="round" stroke-linejoin="round"/>
<path d="M11.4435 13.4997C11.4435 13.4366 11.5066 13.4444 11.5066 13.3812C11.5066 13.3497 11.4894 13.3009 11.4579 13.3009C11.4263 13.3009 11.3947 13.3325 11.3947 13.364C11.3803 13.4271 11.4435 13.4366 11.4435 13.4997Z" fill="white" stroke="#C09300" stroke-width="0.01" stroke-linecap="round" stroke-linejoin="round"/>
<path d="M11.8975 13.3184C11.9921 13.3184 11.9827 13.4446 11.9368 13.5078C11.9368 13.4619 11.8564 13.4446 11.8564 13.4131C11.8564 13.3643 11.929 13.3643 11.8975 13.3184Z" fill="white" stroke="#C09300" stroke-width="0.01" stroke-linecap="round" stroke-linejoin="round"/>
<path d="M12.9385 13.2069C13.036 13.1896 13.082 13.3015 13.0504 13.3646C13.036 13.333 12.97 13.333 12.9557 13.3015C12.9385 13.2528 12.9701 13.2528 12.9385 13.2069H12.9385Z" fill="white" stroke="#C09300" stroke-width="0.01" stroke-linecap="round" stroke-linejoin="round"/>
<path d="M12.5562 13.4997C12.5562 13.4366 12.4932 13.4444 12.4932 13.3812C12.4932 13.3497 12.5104 13.3009 12.5419 13.3009C12.5735 13.3009 12.6051 13.3325 12.6051 13.364C12.6194 13.4271 12.5562 13.4366 12.5562 13.4997H12.5562Z" fill="white" stroke="#C09300" stroke-width="0.01" stroke-linecap="round" stroke-linejoin="round"/>
<path d="M12.1023 13.3184C12.0076 13.3184 12.017 13.4446 12.0629 13.5078C12.0629 13.4619 12.1433 13.4446 12.1433 13.4131C12.1433 13.3643 12.0707 13.3643 12.1023 13.3184Z" fill="white" stroke="#C09300" stroke-width="0.01" stroke-linecap="round" stroke-linejoin="round"/>
<path d="M11.0929 13.2383C11.1245 13.2383 11.1732 13.2527 11.1876 13.2699L11.0928 13.2383L11.0929 13.2383Z" fill="white" stroke="#C09300" stroke-width="0.01" stroke-linecap="round" stroke-linejoin="round"/>
<path d="M11.2501 13.2871C11.2673 13.2871 11.3304 13.3015 11.362 13.3186L11.25 13.287L11.2501 13.2871Z" fill="white" stroke="#C09300" stroke-width="0.01" stroke-linecap="round" stroke-linejoin="round"/>
<path d="M11.8247 13.3497C11.7932 13.3497 11.7301 13.3497 11.7129 13.364L11.8247 13.3496L11.8247 13.3497Z" fill="white" stroke="#C09300" stroke-width="0.01" stroke-linecap="round" stroke-linejoin="round"/>
<path d="M11.649 13.3508C11.6318 13.3336 11.5686 13.3336 11.5371 13.3508H11.6489H11.649Z" fill="white" stroke="#C09300" stroke-width="0.01" stroke-linecap="round" stroke-linejoin="round"/>
<path d="M12.9062 13.2383C12.8747 13.2383 12.8287 13.2527 12.8115 13.2699L12.9062 13.2383Z" fill="white" stroke="#C09300" stroke-width="0.01" stroke-linecap="round" stroke-linejoin="round"/>
<path d="M12.7486 13.2871C12.7314 13.2871 12.6683 13.3015 12.6367 13.3186L12.7487 13.287L12.7486 13.2871Z" fill="white" stroke="#C09300" stroke-width="0.01" stroke-linecap="round" stroke-linejoin="round"/>
<path d="M12.1749 13.3497C12.2065 13.3497 12.2696 13.3497 12.2868 13.364L12.1748 13.3496L12.1749 13.3497Z" fill="white" stroke="#C09300" stroke-width="0.01" stroke-linecap="round" stroke-linejoin="round"/>
<path d="M12.3497 13.3508C12.3669 13.3336 12.4301 13.3336 12.4616 13.3508H12.3496H12.3497Z" fill="white" stroke="#C09300" stroke-width="0.01" stroke-linecap="round" stroke-linejoin="round"/>
<path d="M11.067 13.4901C11.0563 13.488 11.0507 13.4796 11.0534 13.4696C11.0567 13.4574 11.0664 13.4504 11.0757 13.4537C11.0815 13.4558 11.0922 13.4666 11.0923 13.4705C11.0924 13.4749 11.0867 13.4855 11.0842 13.4855C11.0832 13.4855 11.0816 13.4865 11.0806 13.4876C11.0786 13.4899 11.0723 13.4911 11.067 13.4901H11.067Z" fill="#C09300"/>
<path d="M12.1656 13.568C12.1616 13.5665 12.1553 13.5576 12.1553 13.5535C12.1553 13.5458 12.1668 13.5332 12.1738 13.5331C12.1774 13.5331 12.1869 13.538 12.1905 13.5418C12.197 13.5485 12.1956 13.5596 12.1874 13.5659C12.1834 13.569 12.1714 13.5702 12.1656 13.568L12.1656 13.568Z" fill="#C09300"/>
<path d="M12.1725 13.619C12.1641 13.6161 12.161 13.612 12.1603 13.6027C12.1596 13.593 12.1606 13.5915 12.1708 13.5859L12.1781 13.5819L12.1851 13.585C12.1947 13.5893 12.1989 13.5939 12.1993 13.6003C12.1996 13.6073 12.1945 13.6144 12.1865 13.618C12.1794 13.6212 12.179 13.6212 12.1725 13.619V13.619Z" fill="#C09300"/>
<path d="M11.155 13.4003C11.1481 13.4001 11.1386 13.4064 11.1332 13.4096C11.1202 13.4127 11.1051 13.4207 11.0925 13.4121C11.0802 13.4083 11.0638 13.4113 11.0619 13.4265C11.0651 13.4396 11.0833 13.447 11.0944 13.4384C11.1026 13.4276 11.125 13.4213 11.1275 13.4396C11.1184 13.4535 11.1194 13.4718 11.1119 13.4865C11.1107 13.4957 11.1069 13.5044 11.1019 13.5121C11.0927 13.5131 11.0828 13.512 11.075 13.5178C11.0625 13.5185 11.0497 13.5247 11.0425 13.5353C11.0345 13.5468 11.0268 13.5586 11.0244 13.5728C11.0266 13.5873 11.0432 13.5914 11.0557 13.5921C11.069 13.5958 11.0824 13.6006 11.0957 13.6046C11.1174 13.6095 11.1377 13.6174 11.1594 13.6221C11.1911 13.6317 11.2244 13.6361 11.2563 13.6446C11.2596 13.6458 11.2628 13.6467 11.2663 13.6471C11.2795 13.6499 11.2864 13.6355 11.2875 13.6246C11.2941 13.6015 11.2991 13.5779 11.3057 13.5546C11.3102 13.5453 11.3156 13.5243 11.2975 13.529C11.2872 13.5352 11.2785 13.5445 11.2657 13.5453C11.2482 13.5463 11.2582 13.5642 11.265 13.5715C11.2666 13.5833 11.2628 13.5973 11.255 13.6065C11.2446 13.6131 11.2316 13.6054 11.2207 13.6028C11.2092 13.603 11.1862 13.5971 11.1969 13.5815C11.2007 13.57 11.2011 13.5574 11.2057 13.5459C11.2115 13.5336 11.2124 13.5202 11.215 13.5072C11.2078 13.4916 11.1955 13.5123 11.1857 13.514C11.1789 13.5187 11.1536 13.5207 11.1669 13.5328C11.1784 13.5415 11.1696 13.5567 11.1675 13.5678C11.1668 13.5832 11.1508 13.5869 11.1382 13.5834C11.1256 13.5828 11.1081 13.5735 11.1188 13.5597C11.1212 13.5481 11.1252 13.5368 11.1275 13.5253C11.1323 13.5113 11.1363 13.498 11.1413 13.484C11.1435 13.4716 11.1479 13.4599 11.1538 13.449C11.1541 13.4353 11.1633 13.4235 11.1632 13.4096C11.1622 13.4029 11.1592 13.4004 11.155 13.4003H11.155ZM11.0832 13.5453C11.0848 13.545 11.086 13.5452 11.0875 13.5459C11.0925 13.548 11.0927 13.5521 11.0875 13.5565C11.0853 13.5585 11.0827 13.5603 11.0819 13.5603C11.0726 13.5595 11.0698 13.5581 11.0694 13.5546C11.0691 13.5516 11.07 13.5508 11.0763 13.5478C11.0794 13.5463 11.0815 13.5456 11.0832 13.5453V13.5453Z" fill="#C09300"/>
<path d="M11.0629 13.6453C11.053 13.6359 11.0546 13.6291 11.0693 13.6182C11.0756 13.6135 11.0794 13.614 11.0865 13.6206C11.0976 13.6307 11.098 13.6371 11.0883 13.6457C11.0835 13.65 11.0813 13.6508 11.0757 13.6509C11.0699 13.651 11.0682 13.6502 11.0629 13.6453L11.0629 13.6453Z" fill="#C09300"/>
<path d="M11.1235 13.6641C11.1138 13.6617 11.1083 13.6519 11.1111 13.6423C11.1137 13.6336 11.1151 13.6328 11.1279 13.6326C11.1422 13.6325 11.145 13.6349 11.1451 13.6475C11.1452 13.6546 11.1446 13.6562 11.1411 13.6595C11.137 13.6633 11.129 13.6654 11.1235 13.6641V13.6641Z" fill="#C09300"/>
<path d="M12.9059 13.6657C12.9014 13.6619 12.9004 13.6602 12.9004 13.6554C12.9003 13.6471 12.9051 13.6411 12.9153 13.6365C12.9289 13.6303 12.9345 13.6312 12.9396 13.6402C12.9465 13.6522 12.9461 13.6571 12.938 13.6652C12.9335 13.6697 12.9326 13.67 12.9223 13.6701C12.9121 13.6701 12.911 13.6699 12.9059 13.6657V13.6657Z" fill="#C09300"/>
<path d="M11.2045 13.6887C11.1972 13.6867 11.1935 13.6813 11.1934 13.6726C11.1933 13.6659 11.1938 13.6648 11.1984 13.6612C11.2015 13.6588 11.2062 13.6568 11.21 13.6562C11.2153 13.6555 11.2173 13.656 11.2216 13.659C11.2326 13.6667 11.2349 13.6744 11.2286 13.6818C11.2218 13.6897 11.2153 13.6916 11.2045 13.6887L11.2045 13.6887Z" fill="#C09300"/>
<path d="M11.6432 13.7083C11.6416 13.7063 11.6381 13.7051 11.6377 13.7025C11.6383 13.6914 11.6389 13.6802 11.6424 13.6696C11.6443 13.6591 11.6426 13.6482 11.6463 13.638C11.65 13.6195 11.65 13.6003 11.6543 13.5819C11.6545 13.5724 11.6554 13.5629 11.6582 13.5538C11.6613 13.5394 11.6585 13.5243 11.6627 13.51C11.6622 13.5047 11.6684 13.4904 11.6738 13.4988C11.6817 13.5104 11.6921 13.5197 11.7022 13.5291C11.711 13.5342 11.703 13.5416 11.6969 13.5441C11.6886 13.5474 11.6866 13.5566 11.6872 13.5646C11.686 13.5729 11.6827 13.5807 11.6824 13.5892C11.6806 13.6016 11.6809 13.6143 11.6793 13.6267C11.6757 13.6389 11.6771 13.6519 11.6759 13.6645C11.676 13.6724 11.6722 13.6797 11.6728 13.6877C11.6718 13.6958 11.6714 13.7056 11.6646 13.7111C11.658 13.7144 11.6485 13.7139 11.6432 13.7083L11.6432 13.7083Z" fill="#C09300"/>
<path d="M12.2371 13.5119C12.2274 13.5192 12.2188 13.5278 12.2102 13.5363C12.1983 13.5453 12.2199 13.5505 12.2227 13.5582C12.2258 13.5699 12.2257 13.5824 12.2264 13.5944C12.23 13.6054 12.2316 13.6172 12.2308 13.6288C12.2298 13.6412 12.2136 13.6386 12.2064 13.6457C12.1966 13.6498 12.1927 13.6595 12.1852 13.6663C12.1803 13.6759 12.179 13.6878 12.1783 13.6988C12.179 13.7078 12.1723 13.7178 12.1783 13.7257C12.1791 13.7268 12.18 13.7283 12.1808 13.7294C12.1828 13.7323 12.1877 13.73 12.1908 13.7307C12.2009 13.7301 12.2114 13.7316 12.2208 13.7275C12.245 13.7234 12.2694 13.723 12.2939 13.7219C12.3089 13.7224 12.3233 13.7172 12.3383 13.7175C12.3501 13.7201 12.3553 13.7074 12.3552 13.6982C12.3485 13.6851 12.3543 13.6696 12.3489 13.6563C12.3442 13.6428 12.3461 13.6277 12.3439 13.6138C12.3436 13.6028 12.3297 13.5988 12.3227 13.6069C12.3159 13.6138 12.3048 13.6152 12.2996 13.6238C12.2936 13.6358 12.3121 13.6359 12.3152 13.645C12.3187 13.6543 12.3176 13.6647 12.3183 13.6744C12.3206 13.6863 12.3077 13.6869 12.2996 13.6882C12.2888 13.6922 12.2738 13.6949 12.2677 13.6819C12.2639 13.6723 12.2644 13.6621 12.2633 13.6519C12.2631 13.6341 12.2588 13.6166 12.2577 13.5988C12.2567 13.5769 12.2529 13.5551 12.2514 13.5332C12.2512 13.5241 12.25 13.5092 12.2371 13.5119L12.2371 13.5119ZM12.2246 13.6769L12.2308 13.6775L12.2314 13.685L12.2321 13.6925L12.2239 13.695C12.2196 13.6963 12.2159 13.6969 12.2158 13.6969C12.2158 13.6969 12.2141 13.6959 12.2121 13.6944C12.2077 13.6912 12.2088 13.6867 12.2146 13.6807C12.2178 13.6773 12.2193 13.6766 12.2246 13.6769L12.2246 13.6769Z" fill="#C09300"/>
<path d="M11.6253 13.4907C11.6177 13.4934 11.6081 13.5046 11.6003 13.5044C11.5827 13.5057 11.5852 13.5228 11.5978 13.5288C11.5995 13.534 11.5979 13.5406 11.5985 13.5463C11.6009 13.5621 11.591 13.5748 11.5928 13.5907C11.5919 13.6081 11.5867 13.6251 11.586 13.6426C11.581 13.6606 11.581 13.6792 11.5778 13.6976C11.5757 13.714 11.5638 13.7082 11.5535 13.7038C11.5534 13.6967 11.5529 13.6897 11.5528 13.6826C11.5572 13.6662 11.544 13.6615 11.531 13.6595C11.5172 13.6608 11.5105 13.649 11.5135 13.637C11.5194 13.6299 11.5342 13.6319 11.5435 13.6307C11.5631 13.6348 11.5623 13.6085 11.5522 13.5995C11.5453 13.5867 11.5282 13.5813 11.5235 13.5682C11.5254 13.5509 11.5139 13.5336 11.4997 13.5251C11.4779 13.5236 11.4615 13.5423 11.4535 13.5607C11.4444 13.5633 11.4354 13.566 11.4266 13.5695C11.4124 13.573 11.3922 13.5976 11.4116 13.607C11.4225 13.6099 11.4556 13.6175 11.441 13.6326C11.4327 13.6467 11.4169 13.647 11.4028 13.6432C11.3884 13.6432 11.3722 13.6362 11.3728 13.6195C11.3699 13.6045 11.3704 13.5883 11.3635 13.5745C11.3605 13.5577 11.3414 13.5616 11.3403 13.577C11.3257 13.5876 11.3276 13.6049 11.3378 13.6176C11.3442 13.6322 11.3379 13.6491 11.3316 13.6626C11.3278 13.6801 11.3085 13.6807 11.2947 13.6863C11.288 13.6889 11.2621 13.6848 11.2716 13.6995C11.2866 13.7048 11.3046 13.7095 11.3203 13.7057C11.3368 13.7037 11.3511 13.6924 11.3591 13.6782C11.3701 13.667 11.3891 13.6729 11.4035 13.6726C11.4189 13.6725 11.4347 13.6834 11.4497 13.6763C11.4541 13.665 11.4741 13.6464 11.4803 13.6657C11.4793 13.683 11.4945 13.6922 11.5103 13.6901C11.5276 13.6891 11.5212 13.7023 11.521 13.7126C11.5221 13.7313 11.5342 13.7411 11.5497 13.7488C11.555 13.7503 11.5606 13.7498 11.566 13.7488C11.5809 13.7441 11.597 13.7374 11.6016 13.7207C11.6077 13.7071 11.6078 13.6917 11.6122 13.6776C11.6158 13.655 11.6203 13.6324 11.621 13.6095C11.6265 13.5887 11.6249 13.5667 11.6291 13.5457C11.6317 13.5301 11.6337 13.5144 11.6353 13.4988C11.6335 13.4905 11.6299 13.4891 11.6253 13.4907L11.6253 13.4907ZM11.4897 13.5738C11.4927 13.5742 11.4944 13.5779 11.4947 13.5844C11.495 13.5917 11.4988 13.5977 11.5035 13.5988C11.5071 13.5997 11.5068 13.6036 11.5028 13.6063C11.5005 13.6079 11.4964 13.6089 11.4891 13.6088C11.4775 13.6088 11.4704 13.6058 11.4641 13.5994L11.4603 13.5957L11.466 13.5919C11.4688 13.5898 11.4739 13.5853 11.4772 13.5819C11.4829 13.5761 11.4867 13.5735 11.4897 13.5738H11.4897Z" fill="#C09300"/>
<path d="M12.8096 13.418C12.7982 13.4185 12.7868 13.4203 12.7765 13.423C12.7557 13.4217 12.7452 13.4435 12.7652 13.4542C12.7772 13.4849 12.796 13.4479 12.8152 13.4505C12.844 13.4561 12.8464 13.4871 12.8508 13.5105C12.8525 13.5336 12.8591 13.5561 12.8658 13.578C12.8851 13.5994 12.8514 13.6128 12.8371 13.5961C12.8249 13.5828 12.7987 13.5665 12.784 13.5848C12.7659 13.5925 12.7651 13.6167 12.7502 13.6236C12.726 13.631 12.723 13.6012 12.7102 13.5886C12.6985 13.5721 12.676 13.5707 12.6577 13.5648C12.6491 13.5475 12.6536 13.5179 12.6358 13.5061C12.6209 13.5122 12.5936 13.5401 12.6165 13.553C12.6388 13.5722 12.6067 13.581 12.5965 13.5942C12.5818 13.6105 12.5795 13.6329 12.5771 13.6536C12.5519 13.6675 12.547 13.6378 12.544 13.6192C12.542 13.597 12.5232 13.6035 12.5102 13.6117C12.4912 13.6194 12.4816 13.6375 12.4683 13.6517C12.4667 13.6647 12.4691 13.6789 12.469 13.6923C12.4733 13.7086 12.493 13.701 12.5052 13.6998C12.5248 13.6917 12.5328 13.7124 12.5171 13.7242C12.5064 13.7377 12.4727 13.7307 12.4758 13.7523C12.4867 13.7536 12.498 13.7532 12.509 13.7523C12.5308 13.7464 12.5542 13.731 12.5565 13.7067C12.5593 13.6856 12.5898 13.6894 12.6065 13.6848C12.6273 13.6788 12.6524 13.6773 12.6571 13.7036C12.6713 13.7185 12.7021 13.7353 12.7177 13.7148C12.7336 13.7051 12.7412 13.6881 12.7402 13.6698C12.737 13.6542 12.7656 13.6536 12.7727 13.6623C12.7831 13.6795 12.8157 13.6744 12.8315 13.6648C12.8482 13.6525 12.8518 13.6307 12.8758 13.6305C12.9115 13.6198 12.9485 13.6136 12.9833 13.6005C13.0115 13.5943 12.9791 13.5765 12.9721 13.5661C12.9506 13.5555 12.9319 13.5989 12.9077 13.5773C12.889 13.563 12.8903 13.5358 12.8833 13.5148C12.8786 13.4877 12.8798 13.4564 12.8602 13.4348C12.8468 13.4205 12.8285 13.4171 12.8096 13.418L12.8096 13.418ZM12.6733 13.6073C12.6758 13.6073 12.6787 13.6085 12.6833 13.6111C12.6921 13.6159 12.6983 13.624 12.6983 13.6305C12.6983 13.6347 12.6972 13.635 12.6908 13.638C12.6869 13.6398 12.6824 13.6417 12.6808 13.6417C12.6772 13.6417 12.6683 13.6346 12.6683 13.6317C12.6683 13.6305 12.6672 13.626 12.6658 13.6223C12.6635 13.6159 12.6638 13.616 12.6671 13.6117C12.6692 13.609 12.6708 13.6074 12.6733 13.6073ZM12.804 13.6142C12.8114 13.6137 12.8158 13.6161 12.819 13.6217C12.8226 13.6283 12.8201 13.6333 12.8108 13.6373C12.8068 13.6391 12.8027 13.6405 12.8021 13.6405C12.8015 13.6404 12.7981 13.6384 12.7946 13.6361C12.7892 13.6325 12.7884 13.6308 12.7883 13.6267C12.7883 13.6204 12.7953 13.6148 12.804 13.6142ZM12.6252 13.6161C12.6274 13.6158 12.6294 13.6169 12.6321 13.6192C12.6357 13.6223 12.6368 13.6248 12.6377 13.6311C12.6383 13.6355 12.6382 13.6411 12.6377 13.6436C12.6367 13.6481 12.6366 13.6479 12.6265 13.648C12.6137 13.6481 12.6125 13.6467 12.6127 13.6348C12.6129 13.6273 12.6129 13.6253 12.6171 13.6211C12.6203 13.6179 12.623 13.6164 12.6252 13.6161ZM12.5152 13.6448C12.5192 13.6458 12.523 13.6488 12.524 13.6536C12.5253 13.6599 12.5241 13.6628 12.519 13.6655C12.5145 13.6677 12.5043 13.6685 12.5015 13.6667C12.5005 13.6662 12.4987 13.6647 12.4977 13.663C12.4963 13.6606 12.4966 13.6594 12.4983 13.658C12.4995 13.657 12.5008 13.6556 12.5008 13.6548C12.5008 13.6541 12.5022 13.6516 12.504 13.6492C12.5069 13.6453 12.5112 13.6439 12.5152 13.6448H12.5152ZM12.7002 13.6686C12.7038 13.6686 12.7068 13.6698 12.709 13.6717C12.7127 13.675 12.7125 13.6797 12.7083 13.683C12.7056 13.6851 12.6909 13.6849 12.6858 13.683C12.6836 13.6821 12.6827 13.681 12.6827 13.6786C12.6827 13.6758 12.6835 13.674 12.6883 13.6717C12.6924 13.6698 12.6966 13.6686 12.7002 13.6686H12.7002Z" fill="#C09300"/>
<path d="M12.3576 13.7642C12.3557 13.763 12.3528 13.7619 12.3557 13.7598C12.3592 13.7538 12.3661 13.7517 12.3722 13.7494C12.3831 13.7447 12.3926 13.7366 12.3997 13.7271C12.4007 13.7204 12.4081 13.7168 12.4081 13.7098C12.4082 13.7003 12.4087 13.6906 12.4064 13.6813C12.4039 13.6728 12.3974 13.6663 12.3899 13.6618C12.3848 13.6578 12.3764 13.6567 12.3745 13.6495C12.3735 13.6427 12.3796 13.6375 12.3817 13.6313C12.3862 13.6229 12.3899 13.6141 12.3947 13.6058C12.3999 13.6001 12.4079 13.6055 12.4106 13.6111C12.4144 13.6167 12.4177 13.6226 12.4196 13.629C12.4257 13.6357 12.431 13.6435 12.4332 13.6523C12.4362 13.6585 12.4409 13.6643 12.4406 13.6716C12.4406 13.6799 12.4453 13.6874 12.445 13.6957C12.4453 13.7069 12.4453 13.7186 12.4412 13.7292C12.4384 13.7351 12.4327 13.7386 12.429 13.7439C12.4226 13.7498 12.4156 13.7554 12.4074 13.7586C12.4016 13.7604 12.3983 13.7671 12.391 13.7655C12.3808 13.7657 12.3703 13.7671 12.3601 13.7654C12.3607 13.7665 12.357 13.7636 12.3576 13.7643L12.3576 13.7642Z" fill="#C09300"/>
<path d="M12.2198 13.774C12.215 13.769 12.2139 13.7669 12.2139 13.762C12.2138 13.7571 12.2148 13.7551 12.2195 13.7503C12.2283 13.7414 12.2326 13.7412 12.2477 13.7489C12.2622 13.7562 12.267 13.7569 12.2683 13.7517C12.2696 13.7467 12.2779 13.7421 12.2858 13.7421C12.2908 13.742 12.2937 13.743 12.2977 13.7461C12.3027 13.7501 12.3029 13.7507 12.3031 13.7597C12.3031 13.769 12.303 13.7693 12.2973 13.7744C12.2917 13.7793 12.2908 13.7796 12.2839 13.7789C12.2752 13.7781 12.27 13.7741 12.2685 13.7672C12.2675 13.7622 12.2657 13.761 12.2644 13.7644C12.264 13.7655 12.2619 13.7668 12.2596 13.7674C12.2556 13.7684 12.2487 13.7727 12.2438 13.7774C12.2419 13.7791 12.2387 13.7799 12.2334 13.78C12.2263 13.7801 12.2253 13.7796 12.2198 13.774H12.2198Z" fill="#C09300"/>
<path d="M11.8235 13.5956C11.8102 13.5957 11.7959 13.6069 11.7941 13.62C11.7972 13.635 11.8097 13.6497 11.8016 13.6656C11.8072 13.6858 11.7864 13.6935 11.7722 13.6818C11.7637 13.6624 11.7594 13.6411 11.7466 13.6237C11.7305 13.6192 11.7235 13.6448 11.7122 13.6537C11.7178 13.6688 11.7342 13.6824 11.736 13.7012C11.7399 13.7195 11.7288 13.7398 11.7129 13.7493C11.6991 13.7624 11.6804 13.7577 11.6635 13.7606C11.643 13.7726 11.6785 13.7769 11.6879 13.7775C11.7088 13.7796 11.7306 13.7768 11.746 13.7612C11.7614 13.7539 11.7602 13.7273 11.7785 13.7243C11.8103 13.7229 11.8417 13.7292 11.8735 13.73C11.8905 13.734 11.9168 13.7279 11.9285 13.7406C11.9285 13.7627 11.9473 13.7764 11.9654 13.785C11.9753 13.7877 11.9858 13.7754 11.996 13.7731C12.0153 13.7669 12.0094 13.743 12.021 13.7337C12.054 13.7319 12.0873 13.7323 12.1204 13.7318C12.1267 13.732 12.1285 13.723 12.1329 13.7193C12.1321 13.7066 12.1317 13.6939 12.1297 13.6812C12.1234 13.6651 12.1308 13.6443 12.1191 13.6306C12.1025 13.6261 12.0884 13.6413 12.0716 13.6425C12.0531 13.6507 12.0375 13.6678 12.0366 13.6887C12.0256 13.7066 12.0081 13.6855 12.0141 13.6706C12.0134 13.6641 12.0155 13.6565 12.0135 13.6506C12.0034 13.6384 11.9856 13.6424 11.9716 13.6406C11.9512 13.6414 11.9314 13.637 11.911 13.6375C11.8931 13.6361 11.8746 13.639 11.8572 13.6343C11.8366 13.6337 11.8394 13.6136 11.836 13.5993C11.8323 13.5966 11.8279 13.5955 11.8235 13.5956V13.5956ZM11.8635 13.6693C11.8704 13.6695 11.8768 13.6704 11.8835 13.6712C11.8921 13.6726 11.9013 13.6682 11.9097 13.6712C11.9293 13.6745 11.9488 13.6737 11.9685 13.6756C11.9737 13.6755 11.9774 13.6793 11.981 13.6825C11.981 13.6961 11.981 13.71 11.981 13.7237C11.9804 13.7289 11.9825 13.7357 11.9779 13.7393C11.9764 13.7404 11.9747 13.7415 11.9729 13.7418C11.9675 13.7404 11.9617 13.7369 11.9591 13.7318C11.9583 13.7247 11.9595 13.7177 11.9597 13.7106C11.9596 13.7087 11.9605 13.7058 11.9597 13.7043C11.9555 13.7013 11.9507 13.6993 11.9454 13.6993C11.9284 13.6987 11.9117 13.6975 11.8947 13.6968C11.8806 13.6959 11.8661 13.698 11.8522 13.6943C11.8469 13.6924 11.8399 13.693 11.8366 13.6875C11.8319 13.682 11.8387 13.6755 11.8435 13.6731C11.8499 13.6702 11.8566 13.6692 11.8635 13.6693V13.6693ZM12.0891 13.6743C12.0923 13.6743 12.0933 13.6753 12.0947 13.6812C12.0957 13.685 12.0967 13.6896 12.0972 13.6912C12.098 13.6936 12.0968 13.6943 12.0935 13.6956C12.0836 13.6993 12.0738 13.6989 12.0704 13.6943C12.0688 13.6922 12.0706 13.6856 12.0735 13.6831C12.0793 13.6779 12.0857 13.6743 12.0891 13.6743H12.0891Z" fill="#C09300"/>
<path d="M11.9996 12.5432C12.6524 12.041 12.5965 11.3055 12.5965 11.3055C12.5792 11.3089 12.5629 11.3107 12.5456 11.3107C12.4087 11.3107 12.0821 11.2323 12.0059 11.1328C11.9243 11.2229 11.5905 11.3107 11.4544 11.3107C11.4372 11.3107 11.42 11.3089 11.4036 11.3055C11.4036 11.3055 11.3467 12.041 11.9996 12.5432H11.9996Z" fill="white" stroke="#C09300" stroke-width="0.01"/>
<path d="M12.5451 11.3598C12.5394 11.3601 12.5338 11.3603 12.5281 11.3603C12.404 11.3603 12.1157 11.2966 12.0046 11.2012C11.8882 11.2894 11.5952 11.3603 11.4731 11.3603C11.4674 11.3603 11.4617 11.3596 11.4561 11.3586C11.4558 11.3864 11.4573 11.4152 11.459 11.4415C11.4654 11.5395 11.4826 11.6378 11.5087 11.7325C11.5909 12.0304 11.7591 12.2836 12.0002 12.4756C12.2415 12.2834 12.4099 12.03 12.4922 11.7319C12.5183 11.6372 12.5356 11.5389 12.5421 11.4409C12.5438 11.4152 12.5452 11.387 12.5451 11.3598H12.5451Z" fill="white" stroke="#C09300" stroke-width="0.01"/>
<path d="M11.788 11.3008C11.6705 11.3377 11.5434 11.3614 11.473 11.3614C11.4672 11.3614 11.4617 11.3606 11.4561 11.3595C11.4558 11.3874 11.4575 11.4164 11.4592 11.4427C11.4657 11.5407 11.4825 11.6387 11.5086 11.7333C11.5639 11.9338 11.6587 12.1139 11.788 12.2689V11.3008L11.788 11.3008Z" fill="#C09300"/>
<path d="M12.2002 11.2988V12.2838C12.3361 12.1254 12.4349 11.9397 12.4921 11.7326C12.5182 11.638 12.5349 11.54 12.5415 11.442C12.5432 11.4163 12.5448 11.388 12.5446 11.3607C12.539 11.3611 12.5334 11.3613 12.5277 11.3613C12.4531 11.3613 12.3193 11.3379 12.2002 11.2988L12.2002 11.2988Z" fill="#C09300"/>
<path d="M12.2465 11.0611C12.2599 11.0618 12.2285 10.9897 12.2285 10.9897C12.2638 11.0258 12.3971 11.0344 12.3971 11.0344C12.3171 10.9991 12.2371 10.7325 12.2465 10.52C12.2552 10.3067 12.216 10.2228 12.1846 10.1914C12.1446 10.1514 12.016 10.1161 11.9313 10.1114C11.8835 10.1091 11.8913 10.1475 11.8913 10.1475C11.8027 10.1248 11.7141 10.1161 11.6741 10.1428C11.6365 10.1679 11.6286 10.2934 11.6561 10.2714C11.7227 10.2181 11.7807 10.2667 11.8207 10.3247C11.856 10.3757 11.8537 10.52 11.8027 10.6886C11.7494 10.8658 11.6035 11.043 11.6035 11.043C11.6827 11.043 11.7941 10.9724 11.7941 10.9724L11.7674 11.083C11.8513 11.043 11.918 10.9811 11.918 10.9811L11.9979 11.065C12.0246 11.0297 12.0779 10.9811 12.0779 10.9811C12.0779 10.9811 12.1446 11.0516 12.2465 11.061L12.2465 11.0611Z" fill="white" stroke="#C09300" stroke-width="0.01"/>
<path d="M11.9225 10.5507C11.9225 10.5507 11.8778 10.8792 11.7939 10.9725" stroke="#C09300" stroke-width="0.01"/>
<path d="M11.9932 10.543C11.9932 10.543 11.976 10.8754 11.918 10.9821" stroke="#C09300" stroke-width="0.01"/>
<path d="M12.0557 10.5547C12.0557 10.5547 12.0557 10.9185 12.0776 10.9805" stroke="#C09300" stroke-width="0.01"/>
<path d="M12.1348 10.5742C12.1348 10.5742 12.1528 10.88 12.2281 10.9906" stroke="#C09300" stroke-width="0.01"/>
<path d="M11.8421 10.3922C11.8382 10.3632 11.8311 10.3405 11.8209 10.3256C11.7809 10.2676 11.7229 10.2189 11.6562 10.2723C11.6562 10.2723 11.679 10.2017 11.7276 10.1993C11.7652 10.197 11.8507 10.2276 11.926 10.3562C11.926 10.3562 11.8703 10.3436 11.857 10.3554C11.8319 10.3773 11.8421 10.3922 11.8421 10.3922L11.8421 10.3922Z" fill="#C09300" stroke="#C09300" stroke-width="0.01"/>
<path d="M11.649 10.1845C11.6545 10.1664 11.6632 10.15 11.6741 10.1429C11.7141 10.1163 11.8027 10.1249 11.8913 10.1476C11.8913 10.1476 11.8835 10.1092 11.9313 10.1116C12.016 10.1163 12.1446 10.1515 12.1846 10.1915C12.194 10.2017 12.205 10.2166 12.2144 10.2394H12.2128C12.1932 10.2119 12.1376 10.2135 12.1242 10.2151C12.103 10.2174 12.0897 10.2166 12.0615 10.2237C12.0482 10.2268 12.0278 10.2307 12.0168 10.2394C12.0082 10.2464 12.0011 10.2723 11.9878 10.2723C11.9666 10.2723 11.9682 10.2668 11.9627 10.2605C11.9556 10.2519 11.9517 10.2394 11.9446 10.2402C11.9227 10.2441 11.8874 10.2268 11.8427 10.1915C11.798 10.1562 11.7808 10.1476 11.7227 10.1515C11.6655 10.1563 11.6475 10.1884 11.6475 10.1884L11.649 10.1845L11.649 10.1845Z" fill="#C09300" stroke="#C09300" stroke-width="0.01"/>
<path d="M11.9766 10.2365C11.9896 10.2365 12.0002 10.226 12.0002 10.213C12.0002 10.2 11.9896 10.1895 11.9766 10.1895C11.9637 10.1895 11.9531 10.2 11.9531 10.213C11.9531 10.226 11.9637 10.2365 11.9766 10.2365Z" fill="white"/>
<path d="M20 6L20 18L4 18L4 6L20 6ZM20 5L4 5C3.4 5 3 5.4 3 6L3 18C3 18.6 3.4 19 4 19L20 19C20.6 19 21 18.6 21 18L21 6C21 5.4 20.6 5 20 5Z" fill="#B5B5B5"/>
</svg>
