<svg width="24" height="24" viewBox="0 0 24 24" fill="none" xmlns="http://www.w3.org/2000/svg">
<path d="M20 6H4V18H20V6Z" fill="#EA0437"/>
<path d="M4 18H20V12" fill="#4189DD"/>
<path d="M4 6H20V12" fill="#12AD2B"/>
<path d="M9.16782 14.5891C8.90438 14.6527 8.75335 14.8314 8.75722 15L10.0539 14.9954C10.0656 14.8143 9.89511 14.6467 9.63559 14.5807C10.9052 14.5577 12.0081 14.1419 12.2085 13.8751C12.0102 13.7998 11.7809 13.9209 11.6174 13.8931C12.0055 13.7362 13.1684 13.078 12.9794 12.3724C12.8324 12.7643 12.3872 13.0886 12.1976 13.1757C12.632 12.5989 13.2252 11.9984 12.7105 11.5333C12.7365 11.8028 12.5147 12.0995 12.4167 12.1217C12.6687 11.5123 12.9091 10.7471 12.3631 10.2427C12.4348 10.425 12.4059 10.9393 12.3072 10.9624C12.2768 10.548 12.1959 9.67635 11.6968 9.68875C11.8553 9.81214 11.9247 10.1489 11.9282 10.4891C11.8145 10.2561 11.6852 10.0806 11.4087 9.90853C11.185 9.53344 10.7871 9.22264 10.3891 9C10.4337 9.27303 10.4707 9.48843 10.9067 9.7716C10.6794 9.75925 10.4521 9.38246 10.2092 9.37201C10.016 9.36386 9.86437 9.52511 9.54862 9.43233C9.58358 9.52346 9.73089 9.56383 9.76198 9.63125C9.69435 9.6721 9.5338 9.62488 9.40032 9.56409C9.58393 9.78279 9.86844 9.91139 10.11 9.86799C10.3972 9.81969 10.7052 9.84523 10.9989 9.99139C10.9239 10.0251 10.6319 10.0249 10.4445 10.0044C10.6148 10.1552 10.7291 10.2551 11.0252 10.2534C11.2898 10.2519 11.4284 10.13 11.4964 10.2055C11.6623 10.3774 11.7739 10.5493 11.9127 10.7517C11.6062 10.7813 11.6986 10.4485 11.3571 10.2782C11.1653 10.6255 11.5778 11.0371 11.8586 11.2081C11.8624 11.4691 11.906 11.6875 12.0326 11.8862C12.1179 12.0263 12.2282 12.1697 12.1866 12.4858C12.0185 12.3788 11.8543 12.0177 11.9147 11.7311C11.7043 11.7813 11.6221 12.1048 11.7212 12.2677C11.7953 12.3916 11.8447 12.6289 11.7593 12.7349C11.6761 12.8337 11.6673 12.8227 11.6684 13.0347C11.6714 13.1617 11.5903 13.3117 11.4583 13.4163C11.4859 13.3269 11.5173 13.1731 11.4868 13.0769C11.3824 13.2318 11.1205 13.392 11.0381 13.5584C10.9571 13.7253 10.9366 14.0143 10.5447 14.0809C10.0406 14.1684 9.8666 14.2448 9.54223 14.3609C9.50623 14.1454 9.61397 13.6961 9.82 13.7218C10.0212 13.7531 10.631 13.538 10.4129 13.0887C10.3698 13.2303 10.226 13.3685 10.0706 13.3746C10.2385 13.1842 10.5382 12.9869 10.3922 12.6678C10.3111 12.8034 10.1835 12.9662 9.99007 13.0579C10.1975 12.7103 10.0142 12.6063 9.76788 12.8926C9.67486 13.003 9.61869 13.2243 9.55958 13.5054C9.46284 13.2768 9.46924 12.9759 9.3546 12.7315C9.23486 12.4673 9.51352 12.3976 9.64467 12.4188C9.96577 12.4937 10.5024 12.4937 10.4626 12.0298C10.3239 12.1867 10.0807 12.2352 9.81801 12.1787C10.113 11.9903 10.3459 11.6361 10.0172 11.4511C10.0062 11.6472 9.83264 11.8672 9.60088 11.9684C9.54664 11.8029 9.54664 11.6273 9.59315 11.4347C9.46374 11.5538 9.36923 11.8017 9.29406 12.0834C9.28841 11.8049 9.34865 11.6043 9.39333 11.4545C9.46106 11.2356 9.6294 11.378 9.88708 11.3942C10.1352 11.4065 10.4769 11.2865 10.4116 10.9923C10.3269 11.1087 10.153 11.154 9.97524 11.1417C10.1892 11.0283 10.562 10.8269 10.3575 10.5171C10.2717 10.6345 10.2438 10.7348 9.99527 10.7708C10.0604 10.6399 10.0712 10.4548 10.2641 10.3814C9.91996 10.3215 9.72291 10.519 9.62275 10.8283C9.58214 10.6138 9.5338 10.5349 9.52418 10.378C9.71022 10.1973 9.7297 9.84388 9.32693 9.76484C9.30303 9.94716 9.31013 9.99061 9.35594 10.1391C9.16688 10.0409 8.90041 9.98666 8.723 10.1255C8.84319 10.239 9.02923 10.3388 9.31598 10.2151C9.24824 10.4089 9.07207 10.3757 8.83001 10.3018C8.97796 10.5449 9.1647 10.588 9.37077 10.56C9.47866 10.8088 9.48342 10.9978 9.16812 11.36C9.18269 11.1349 9.1644 10.9672 8.95987 10.7852C8.78459 10.6351 8.64213 10.7916 8.91603 11.1253C8.74988 11.0183 8.56181 10.8011 8.50518 10.584C8.45039 10.8523 8.49973 11.1684 8.66955 11.3457C8.58923 11.4207 8.49789 11.3377 8.36278 11.1541C8.4139 11.7417 8.70059 11.8551 9.08591 11.7241C9.09687 12.0467 9.09687 12.3453 9.11878 12.7349C8.89412 12.4523 8.60931 12.2415 8.45039 12.1888C8.40111 12.3469 8.58739 12.5529 8.69147 12.6678C8.5326 12.6391 8.18745 12.4092 8.18745 12.4092C8.15274 12.6711 8.53994 12.9138 8.79009 13.0223C8.49611 13.0112 8.3664 12.9138 8.17649 12.7541C8.18016 13.4806 9.07673 13.3545 9.24477 13.2427C9.26669 13.6004 9.29793 14.0139 9.31984 14.3716C9.06637 14.3329 9.0863 14.2663 8.86942 14.2487C8.26748 14.2282 7.78999 13.6169 7.63186 13.1672C7.58649 13.2412 7.62249 13.3186 7.58099 13.4095C7.48326 13.1888 7.35841 12.9037 7.19096 12.771C7.23361 12.8997 7.23812 13.0305 7.22329 13.271C7.16582 13.1152 7.11237 13.0674 7.10851 12.8845C7.11217 12.744 7.26345 12.6404 7.25508 12.4429C7.24888 12.2987 7.09844 11.9861 7.07633 11.7441C7.00349 11.9931 6.95777 12.2557 6.84621 12.4099C6.90164 12.1439 6.88387 11.9604 6.97765 11.7814C7.08599 11.593 7.17812 11.4247 7.10598 11.2346C7.03681 11.308 7.06061 11.3747 6.88682 11.5532C6.84907 11.3591 7.11153 11.0485 7.36624 10.9236C7.54588 10.8409 7.77233 10.5448 7.62482 10.3419C7.45589 10.448 7.38003 10.5913 7.14138 10.8363C7.3116 10.2544 7.75389 10.1022 8.28339 10.1002C8.40056 10.0997 8.63678 10.0627 8.70307 9.92713C8.55382 9.97751 8.37735 9.98393 8.22032 9.95644C8.33461 9.80972 8.57529 9.82879 8.79956 9.82793C8.97548 9.82719 9.25013 9.80633 9.36115 9.58724C9.14655 9.66854 8.81186 9.68545 8.60113 9.62787C8.93626 9.47603 9.46121 9.45968 9.73045 9.26041C9.42357 9.06014 8.65567 9.30706 8.17064 9.59795C8.3062 9.48956 8.52045 9.29726 8.63866 9.14204C8.37339 9.03083 7.70252 9.68072 7.47141 10.0669C7.2519 10.1753 7.16409 10.3452 7.07885 10.4638C7.19582 10.1182 7.20822 9.86738 7.3058 9.58278C6.55335 9.80928 6.86611 11.025 6.70244 11.3159C6.7217 10.9947 6.7061 10.5822 6.55492 10.3695C6.32315 10.5241 6.30445 11.4341 6.52204 12.1917C6.44347 11.989 6.29516 11.7997 6.24758 11.553C5.90457 12.1 6.44866 12.7454 6.90363 13.2552C6.56111 13.0992 6.22245 12.7637 6 12.4824C6.0614 13.4615 7.23068 13.6649 7.41221 13.9056C7.16582 13.8053 6.6948 13.6068 6.49493 13.8148C6.8203 13.8804 7.07985 13.9564 7.28899 14.0763C7.59244 14.4076 8.16707 14.5525 9.16782 14.5891Z" fill="#FFC726"/>
<path d="M20 6L20 18L4 18L4 6L20 6ZM20 5L4 5C3.4 5 3 5.4 3 6L3 18C3 18.6 3.4 19 4 19L20 19C20.6 19 21 18.6 21 18L21 6C21 5.4 20.6 5 20 5Z" fill="#B5B5B5"/>
</svg>
