<svg width="24" height="24" viewBox="0 0 24 24" fill="none" xmlns="http://www.w3.org/2000/svg">
<path d="M20 6H4V15H20V6Z" fill="#00247D"/>
<path d="M4 6L13 10.5L4 6ZM13 6L4 10.5L13 6Z" fill="black"/>
<path d="M4 6L13 10.5M13 6L4 10.5" stroke="white" stroke-width="1.5"/>
<path d="M4 6L13 10.5L4 6ZM13 6L4 10.5L13 6Z" fill="black"/>
<path d="M4 6L13 10.5M13 6L4 10.5" stroke="#CF142B"/>
<path d="M8.5 6V11.25V6ZM4 8.25H14.5H4Z" fill="black"/>
<path d="M8.5 6V11.25M4 8.25H14.5" stroke="white" stroke-width="1.5"/>
<path d="M8.5 6V11.25V6ZM4 8.25H14.5H4Z" fill="black"/>
<path d="M8.5 6V11.25M4 8.25H14.5" stroke="#CF142B"/>
<path d="M4 10.5H13V6H20V18H4V10.5Z" fill="#00247D"/>
<path d="M16.3969 15.4169C16.3969 15.4169 16.2688 15.2087 16.1621 15.2235C16.0554 15.2384 15.9558 15.3723 15.9487 15.3797C15.9416 15.3872 15.7851 15.2087 15.7922 15.2012C15.7994 15.1938 15.9558 14.807 16.0412 14.7921C16.1266 14.7773 16.3109 14.8206 16.3109 14.8355C16.3109 14.8503 16.3969 15.4169 16.3969 15.4169L16.3969 15.4169Z" fill="url(#paint0_linear_14099_117055)" stroke="black" stroke-width="0.01" stroke-linejoin="bevel"/>
<path d="M16.6812 15.1933C16.6812 15.2082 16.6386 15.7586 16.4536 15.952C16.2687 16.1454 15.9699 16.2644 15.8632 16.2347C15.7565 16.2049 15.5146 15.6471 15.5146 15.6471C15.5146 15.6471 15.7707 15.9149 15.9628 15.8702C16.1548 15.8256 16.2687 15.4909 16.3042 15.3272C16.3398 15.1636 16.3113 14.8438 16.3113 14.8438L16.6812 15.1933Z" fill="url(#paint1_linear_14099_117055)" stroke="black" stroke-width="0.01" stroke-linejoin="bevel"/>
<path d="M18.6035 15.4169C18.6035 15.4169 18.7316 15.2087 18.8383 15.2235C18.945 15.2384 19.0445 15.3723 19.0517 15.3797C19.0588 15.3872 19.2153 15.2087 19.2082 15.2012C19.201 15.1938 19.0445 14.807 18.9592 14.7921C18.8738 14.7773 18.6895 14.8206 18.6895 14.8355C18.6895 14.8503 18.6035 15.4169 18.6035 15.4169L18.6035 15.4169Z" fill="url(#paint2_linear_14099_117055)" stroke="black" stroke-width="0.01" stroke-linejoin="bevel"/>
<path d="M18.3193 15.1933C18.3193 15.2082 18.362 15.7586 18.547 15.952C18.7319 16.1454 19.0307 16.2644 19.1374 16.2347C19.2441 16.2049 19.4859 15.6471 19.4859 15.6471C19.4859 15.6471 19.2298 15.9149 19.0378 15.8702C18.8457 15.8256 18.7319 15.4909 18.6964 15.3272C18.6608 15.1636 18.6892 14.8438 18.6892 14.8438L18.3193 15.1933H18.3193Z" fill="url(#paint3_linear_14099_117055)" stroke="black" stroke-width="0.01" stroke-linejoin="bevel"/>
<path d="M15.8345 15.1131C15.7492 15.2172 15.7036 15.2977 15.668 15.3572C15.6325 15.4167 15.6534 15.4995 15.7355 15.6177C15.8241 15.745 16.5522 16.2426 17.5006 16.2426C18.449 16.2426 19.1772 15.745 19.2658 15.6177C19.3479 15.4995 19.3683 15.4167 19.3327 15.3572C19.2971 15.2977 19.2521 15.2172 19.1668 15.1131C19.1668 15.2693 18.5636 15.8337 17.5006 15.8337C16.4377 15.8337 15.8345 15.2693 15.8345 15.1131Z" fill="url(#paint4_linear_14099_117055)" stroke="black" stroke-width="0.01" stroke-linejoin="bevel"/>
<path d="M19.1238 16.1516C19.138 16.1293 19.2874 15.869 19.2874 15.869L19.2055 15.8086C19.1803 15.8822 19.0882 15.9062 19.074 15.9955C19.0598 16.0847 19.138 16.174 19.1238 16.1516V16.1516Z" fill="url(#paint5_linear_14099_117055)" stroke="black" stroke-width="0.01" stroke-linejoin="bevel"/>
<path d="M19.2724 16.0715C19.2724 16.0715 19.3008 15.945 19.2083 15.9301C19.1159 15.9153 19.0669 16.0009 19.0803 15.9673C19.0952 15.93 19.1514 15.8929 19.1585 15.7665C19.1657 15.64 19.1514 15.5731 19.1514 15.5731C19.1514 15.5731 19.187 15.4095 19.3364 15.4318C19.4858 15.4541 19.4929 15.5731 19.4929 15.6177C19.4929 15.6624 19.4787 15.6847 19.4787 15.6847L19.2724 16.0715V16.0715Z" fill="url(#paint6_linear_14099_117055)" stroke="black" stroke-width="0.01" stroke-linejoin="bevel"/>
<path d="M15.8765 16.1516C15.8623 16.1293 15.7129 15.869 15.7129 15.869L15.7948 15.8086C15.8199 15.8822 15.9121 15.9062 15.9263 15.9955C15.9405 16.0847 15.8623 16.174 15.8765 16.1516L15.8765 16.1516Z" fill="url(#paint7_linear_14099_117055)" stroke="black" stroke-width="0.01" stroke-linejoin="bevel"/>
<path d="M15.7283 16.0715C15.7283 16.0715 15.6999 15.945 15.7923 15.9301C15.8848 15.9153 15.9338 16.0009 15.9204 15.9673C15.9055 15.93 15.8493 15.8929 15.8421 15.7665C15.835 15.64 15.8493 15.5731 15.8493 15.5731C15.8493 15.5731 15.8137 15.4095 15.6643 15.4318C15.5149 15.4541 15.5078 15.5731 15.5078 15.6177C15.5078 15.6624 15.522 15.6847 15.522 15.6847L15.7283 16.0715L15.7283 16.0715Z" fill="url(#paint8_linear_14099_117055)" stroke="black" stroke-width="0.01" stroke-linejoin="bevel"/>
<path d="M16.2018 15.5789L16.1243 15.5255L16.1153 15.5398L16.1305 15.5524L16.1319 15.56L16.0343 15.7151L16.0271 15.7168L16.01 15.7071L16.001 15.7214L16.0785 15.7748C16.1051 15.7931 16.1277 15.8024 16.153 15.7998C16.1859 15.7965 16.214 15.7773 16.2356 15.7428C16.2742 15.6815 16.2634 15.6213 16.2018 15.5789L16.2018 15.5789ZM16.1695 15.58L16.1849 15.5906C16.2271 15.6197 16.2308 15.6604 16.1963 15.7153C16.1617 15.7702 16.1244 15.783 16.0821 15.7539L16.0667 15.7433L16.1695 15.58Z" fill="black"/>
<path d="M16.2275 15.8602L16.3816 15.9372L16.4073 15.8807L16.3878 15.871L16.3677 15.902L16.3617 15.9052L16.2951 15.8719L16.3326 15.7898L16.3698 15.8085L16.3718 15.8149L16.3643 15.839L16.3813 15.8475L16.4147 15.7743L16.3977 15.7658L16.3845 15.7871L16.3785 15.7895L16.3412 15.7709L16.3754 15.6958L16.4325 15.7243L16.4344 15.7303L16.426 15.7602L16.4461 15.7703L16.4687 15.7207L16.3241 15.6484L16.3171 15.6639L16.3338 15.6742L16.3364 15.6809L16.2597 15.8492L16.2528 15.8519L16.2346 15.8447L16.2275 15.8602H16.2275Z" fill="black"/>
<path d="M16.4326 15.9453C16.4491 15.959 16.4683 15.9695 16.4876 15.976C16.5373 15.9927 16.5766 15.9744 16.5888 15.9348C16.5948 15.9151 16.5906 15.8939 16.5769 15.8756C16.5629 15.857 16.5484 15.8466 16.541 15.8371C16.5282 15.821 16.5228 15.8082 16.5275 15.7929C16.5331 15.7746 16.5508 15.7658 16.5729 15.7733C16.5826 15.7766 16.589 15.7806 16.5936 15.7854L16.5964 15.7915L16.5909 15.8278L16.6127 15.8352L16.6292 15.7813C16.6124 15.7675 16.5946 15.7571 16.5758 15.7508C16.5326 15.7362 16.4956 15.7553 16.4843 15.7923C16.4793 15.8086 16.4815 15.8273 16.4915 15.845C16.501 15.8618 16.5135 15.8723 16.5235 15.883C16.5413 15.9023 16.5486 15.9179 16.543 15.9359C16.5374 15.9542 16.5188 15.9626 16.4943 15.9544C16.4849 15.9512 16.4767 15.9466 16.4691 15.9407L16.4667 15.9344L16.4741 15.8928L16.4511 15.8851L16.4326 15.9453Z" fill="black"/>
<path d="M16.5928 16.0085L16.6832 16.039L16.6882 16.0227L16.6685 16.0142L16.6653 16.0073L16.7198 15.8298L16.726 15.8268L16.7468 15.832L16.7518 15.8157L16.6614 15.7852L16.6564 15.8015L16.6758 15.8099L16.6792 15.8162L16.6247 15.9936L16.6182 15.9973L16.5978 15.9922L16.5928 16.0085Z" fill="black"/>
<path d="M16.7875 15.8223L16.7841 15.839L16.8021 15.8448L16.806 15.8507L16.7685 16.0331L16.7624 16.0375L16.7437 16.0351L16.7402 16.0519L16.8278 16.0713L16.8313 16.0545L16.8127 16.0486L16.8088 16.042L16.8247 15.965C16.8266 15.9655 16.8284 15.9659 16.83 15.9662C16.8614 15.9731 16.8664 15.9896 16.8693 16.0243C16.8709 16.0418 16.8705 16.0578 16.8839 16.0751C16.89 16.0832 16.9006 16.0899 16.914 16.0928C16.9236 16.095 16.9344 16.0963 16.9456 16.097L16.949 16.0805C16.9475 16.0802 16.9462 16.0799 16.945 16.0796C16.9242 16.075 16.9159 16.0679 16.9132 16.0476C16.9109 16.0292 16.9122 16.0101 16.9057 15.9929C16.9008 15.9804 16.8915 15.9716 16.8774 15.9645C16.914 15.9651 16.9364 15.9493 16.9429 15.9178C16.9507 15.8798 16.9301 15.8538 16.882 15.8431L16.7875 15.8223ZM16.8472 15.8559L16.8615 15.859C16.8916 15.8657 16.9042 15.8849 16.8984 15.913C16.8919 15.9445 16.8731 15.9553 16.8399 15.948C16.8365 15.9472 16.8328 15.9464 16.8288 15.9452L16.8472 15.8559Z" fill="black"/>
<path d="M16.9844 16.1095L17.1548 16.1179L17.1576 16.0554L17.136 16.0543L17.1289 16.0911L17.1246 16.0965L17.0509 16.0928L17.0549 16.002L17.0962 16.004L17.1004 16.0091L17.1025 16.0344L17.1212 16.0354L17.1248 15.9543L17.106 15.9534L17.1018 15.9784L17.0971 15.983L17.0558 15.981L17.0595 15.8978L17.1227 15.9009L17.1266 15.9057L17.13 15.9367L17.1522 15.9378L17.1546 15.8829L16.9946 15.875L16.9939 15.8921L17.0132 15.8948L17.018 15.9L17.0099 16.0862L17.0046 16.0916L16.9851 16.0923L16.9844 16.1095H16.9844Z" fill="black"/>
<path d="M17.2838 15.9102L17.2832 15.9721L17.3057 15.9724L17.3113 15.935L17.3165 15.9305L17.3556 15.931L17.3538 16.1213L17.3482 16.1268L17.327 16.1283L17.3269 16.1454L17.4243 16.1466L17.4245 16.1294L17.4033 16.1275L17.3978 16.1218L17.3996 15.9315L17.4388 15.932L17.4436 15.9366L17.4488 15.9741L17.4713 15.9743L17.4719 15.9124L17.2838 15.9102V15.9102Z" fill="black"/>
<path d="M17.4814 15.9181L17.4817 15.9352L17.5007 15.9366L17.506 15.9421L17.5092 16.1279L17.5041 16.1336L17.4852 16.1356L17.4855 16.1528L17.5778 16.1511L17.5775 16.134L17.5579 16.1326L17.5526 16.1271L17.551 16.039L17.6452 16.0373L17.6468 16.1255L17.642 16.1311L17.6225 16.1332L17.6228 16.1504L17.7147 16.1488L17.7144 16.1316L17.6954 16.1302L17.6901 16.1247L17.6869 15.939L17.692 15.9333L17.7109 15.9312L17.7106 15.9141L17.6187 15.9157L17.619 15.9328L17.6385 15.9342L17.6435 15.9397L17.6448 16.0163L17.5507 16.018L17.5493 15.9414L17.5545 15.9357L17.574 15.9336L17.5737 15.9165L17.4814 15.9181L17.4814 15.9181Z" fill="black"/>
<path d="M17.7416 16.1473L17.916 16.1313L17.9107 16.0689L17.8886 16.071L17.8862 16.1084L17.8824 16.1144L17.8071 16.1213L17.7994 16.0306L17.8416 16.0268L17.8466 16.0312L17.852 16.056L17.8711 16.0543L17.8642 15.9734L17.8451 15.9752L17.844 16.0006L17.8398 16.0059L17.7976 16.0097L17.7905 15.9268L17.8552 15.9209L17.8598 15.925L17.8673 15.9552L17.89 15.9532L17.8853 15.8984L17.7217 15.9134L17.7231 15.9305L17.7431 15.9304L17.7487 15.9348L17.7645 16.1206L17.7598 16.1266L17.7402 16.1302L17.7416 16.1473L17.7416 16.1473Z" fill="black"/>
<path d="M17.9883 15.8757L17.9909 15.8926L18.0114 15.8909L18.0177 15.8948L18.0467 16.0788L18.0421 16.0852L18.0221 16.0904L18.0248 16.1073L18.1214 16.0908L18.1187 16.0739L18.0975 16.0758L18.0912 16.0712L18.0789 15.9935C18.081 15.9932 18.0831 15.9928 18.0848 15.9925C18.1193 15.9866 18.1306 15.9999 18.1464 16.0309C18.1544 16.0465 18.16 16.0615 18.18 16.0723C18.1892 16.0775 18.2025 16.0794 18.2173 16.0769C18.2279 16.0751 18.2393 16.0721 18.251 16.0683L18.2484 16.0518C18.2467 16.052 18.2454 16.0523 18.244 16.0525C18.221 16.0564 18.21 16.053 18.1998 16.0352C18.1906 16.0191 18.1849 16.0009 18.1719 15.9875C18.1623 15.9778 18.1496 15.9733 18.1326 15.9723C18.1701 15.9584 18.1871 15.9349 18.1821 15.9032C18.1761 15.8649 18.1454 15.8488 18.0924 15.8579L17.9883 15.8757V15.8757ZM18.0616 15.8834L18.0773 15.8807C18.1105 15.875 18.1305 15.8879 18.1349 15.9162C18.14 15.948 18.1248 15.9655 18.0882 15.9717C18.0844 15.9724 18.0803 15.9731 18.0758 15.9735L18.0616 15.8834Z" fill="black"/>
<path d="M18.2775 16.0585L18.3766 16.0273L18.3716 16.0109L18.3489 16.0162L18.342 16.0126L18.2884 15.8342L18.2922 15.8278L18.3139 15.8191L18.309 15.8027L18.21 15.8339L18.2149 15.8503L18.2373 15.8451L18.244 15.8481L18.2976 16.0265L18.294 16.0336L18.2726 16.0421L18.2775 16.0585Z" fill="black"/>
<path d="M18.4838 15.8659L18.4885 15.8823L18.5136 15.8763L18.5203 15.8793L18.5399 15.9477C18.5314 15.9511 18.5252 15.9534 18.5219 15.9544C18.4707 15.9704 18.4294 15.945 18.4121 15.8846C18.3952 15.826 18.4158 15.7816 18.4653 15.7661C18.4749 15.7631 18.4844 15.762 18.4944 15.7629L18.5011 15.7673L18.5176 15.8009L18.5419 15.7933L18.5255 15.7363C18.4988 15.7366 18.4742 15.7403 18.4522 15.7472C18.3785 15.7702 18.3442 15.831 18.3639 15.8997C18.3839 15.9694 18.4449 16.0029 18.5147 15.9811C18.539 15.9736 18.5622 15.9612 18.5852 15.9441L18.5628 15.866L18.5668 15.8597L18.5855 15.852L18.5808 15.8356L18.4838 15.8659L18.4838 15.8659Z" fill="black"/>
<path d="M18.5352 15.7262L18.5426 15.7415L18.5613 15.7336L18.5686 15.736L18.6489 15.9018L18.6464 15.9094L18.6292 15.9205L18.6366 15.9358L18.7242 15.8895L18.7168 15.8742L18.6974 15.8825L18.6901 15.8801L18.652 15.8014L18.7414 15.7542L18.7795 15.8329L18.7773 15.8403L18.7595 15.8517L18.7669 15.867L18.8542 15.8209L18.8468 15.8056L18.8281 15.8135L18.8207 15.8112L18.7404 15.6453L18.743 15.6377L18.7602 15.6266L18.7528 15.6113L18.6655 15.6574L18.6729 15.6727L18.6922 15.6645L18.6993 15.667L18.7324 15.7354L18.6429 15.7826L18.6098 15.7142L18.6123 15.7066L18.6302 15.6952L18.6228 15.6799L18.5352 15.7262Z" fill="black"/>
<path d="M18.7539 15.5994L18.7843 15.6526L18.8049 15.6398L18.7912 15.6047L18.7938 15.5978L18.8295 15.5755L18.923 15.7389L18.9207 15.7469L18.9021 15.7605L18.9106 15.7752L18.9996 15.7196L18.9912 15.7049L18.971 15.7155L18.9632 15.7138L18.8697 15.5504L18.9054 15.5281L18.9121 15.5292L18.9355 15.5582L18.9561 15.5454L18.9257 15.4922L18.7539 15.5994V15.5994Z" fill="black"/>
<path d="M17.5 15.7259C17.5 15.7259 15.783 15.2199 15.793 13.2947L15.8062 10.75H19.1937L19.207 13.2801C19.217 15.2053 17.5 15.7259 17.5 15.7259H17.5Z" fill="#0072C4" stroke="white" stroke-width="0.01"/>
<path d="M16.0421 11.3269C16.0449 11.3269 16.0658 11.3072 16.0848 11.2897C16.1114 11.2764 16.136 11.2577 16.1631 11.2451C16.1832 11.2334 16.223 11.2244 16.2413 11.2154C16.2653 11.2028 16.2848 11.1884 16.3053 11.1633C16.3078 11.13 16.3125 11.1061 16.3125 11.0666C16.3407 11.053 16.3659 11.0398 16.3907 11.0294C16.4263 11.0194 16.434 11.0051 16.4689 10.9996C16.4914 10.9918 16.5286 10.9922 16.5614 10.9922C16.5968 10.9922 16.6191 11.0173 16.6509 11.0233C16.6886 11.0385 16.7062 11.049 16.7363 11.0754C16.7533 11.0969 16.7638 11.1143 16.7928 11.1305C16.8157 11.1423 16.8372 11.1601 16.8639 11.1677C16.8933 11.1847 16.9193 11.1946 16.9422 11.2198C16.9631 11.2346 16.9717 11.2567 16.992 11.2718C17.0155 11.2913 17.0377 11.3089 17.0631 11.3239C17.0936 11.3443 17.1238 11.3599 17.1732 11.3554C17.1993 11.3539 17.2274 11.3509 17.2585 11.3567C17.2933 11.3567 17.3273 11.356 17.3581 11.3641C17.3944 11.3641 17.4237 11.369 17.4577 11.3715C17.4895 11.3775 17.5219 11.379 17.5573 11.379C17.5881 11.387 17.6221 11.3864 17.6569 11.3864H17.7564H17.856C17.8923 11.3864 17.929 11.3879 17.9556 11.3939C17.9915 11.3939 18.0224 11.3905 18.0552 11.3864C18.0938 11.3864 18.1233 11.3793 18.1619 11.379H18.2829C18.3139 11.3875 18.3536 11.3933 18.3753 11.4087C18.4038 11.4169 18.418 11.4304 18.4464 11.4385C18.4683 11.4497 18.5014 11.4674 18.5176 11.4906C18.5377 11.5115 18.5583 11.5416 18.5745 11.5724C18.5943 11.6009 18.6018 11.6336 18.6172 11.6691C18.6253 11.7031 18.631 11.7354 18.6314 11.7732C18.6391 11.8054 18.6385 11.8409 18.6385 11.8773C18.6304 11.9112 18.6286 11.949 18.6172 11.9815C18.6159 12.0178 18.6087 12.0506 18.6029 12.0782C18.5966 12.1086 18.5892 12.1282 18.5887 12.1674V12.2716C18.5862 12.3057 18.5787 12.3308 18.5745 12.3682C18.5573 12.4007 18.5408 12.4387 18.5247 12.4798C18.501 12.4963 18.4805 12.5198 18.4678 12.5393C18.4526 12.5487 18.4438 12.5629 18.4464 12.5691C18.4749 12.579 18.4678 12.5988 18.4678 12.636C18.4715 12.6647 18.4743 12.7002 18.482 12.7327C18.4846 12.7682 18.4922 12.7899 18.5034 12.8145C18.5146 12.8292 18.5168 12.822 18.4891 12.822C18.4686 12.8381 18.4478 12.8297 18.4393 12.7996C18.4227 12.7796 18.4173 12.7554 18.4109 12.7178C18.407 12.6834 18.4014 12.6498 18.3895 12.6286C18.3859 12.5867 18.3747 12.5871 18.3326 12.584C18.3126 12.5662 18.2862 12.5616 18.2473 12.5616C18.2086 12.5616 18.2053 12.5577 18.2046 12.5988V12.703C18.1979 12.7331 18.1832 12.7576 18.1761 12.7848C18.1549 12.8003 18.1439 12.8264 18.1192 12.8443C18.1075 12.878 18.0904 12.8839 18.0552 12.8889C18.0429 12.8735 18.0228 12.8535 18.0125 12.8368C18.0324 12.8034 18.0498 12.7984 18.0623 12.7625C18.0774 12.7329 18.0863 12.7136 18.0979 12.6881C18.0827 12.6647 18.0691 12.6542 18.0552 12.6211C18.0435 12.6031 18.0273 12.5644 18.0196 12.5393C17.9963 12.5312 17.9595 12.5299 17.9414 12.517C17.9069 12.509 17.8972 12.5468 17.8561 12.5468H17.7565C17.7124 12.5468 17.7014 12.5713 17.664 12.5691C17.653 12.5726 17.6263 12.5675 17.5857 12.5691C17.556 12.5794 17.5202 12.5765 17.4861 12.5765C17.4501 12.5761 17.4205 12.5677 17.3937 12.5616C17.361 12.5527 17.3285 12.5436 17.2941 12.5393C17.2523 12.5393 17.2368 12.5427 17.2087 12.5616C17.1865 12.5748 17.1544 12.6049 17.1305 12.6211C17.1204 12.6458 17.1151 12.6876 17.102 12.7178C17.0945 12.7469 17.0822 12.7652 17.0736 12.7922C17.0639 12.8174 17.0548 12.8433 17.0522 12.8815C17.0498 12.9316 17.0389 12.9255 17.0096 12.9112C16.9973 12.8905 16.9778 12.8676 16.9669 12.8443C16.9733 12.8064 16.9806 12.7876 16.9811 12.7476C16.9742 12.7187 16.958 12.7196 16.9384 12.7401C16.9384 12.7791 16.9402 12.8091 16.9242 12.8294C16.9162 12.8601 16.9033 12.8734 16.8815 12.8889C16.8709 12.9165 16.8472 12.9291 16.8246 12.941C16.821 12.9397 16.8246 12.931 16.8246 12.9112C16.8076 12.8772 16.8234 12.849 16.8234 12.8071C16.8238 12.7695 16.8217 12.7446 16.8326 12.7104C16.8326 12.6743 16.8158 12.64 16.8104 12.6137C16.7972 12.5861 16.7895 12.5724 16.7535 12.5616C16.7281 12.5516 16.6916 12.5379 16.6752 12.517C16.6546 12.4902 16.6414 12.4792 16.6112 12.4649C16.5785 12.4531 16.5626 12.4422 16.5401 12.4277C16.5181 12.4035 16.5002 12.393 16.4903 12.3608C16.4754 12.3379 16.4729 12.2955 16.4618 12.2641C16.4594 12.2314 16.4501 12.2011 16.4405 12.1748C16.4363 12.1422 16.4311 12.1183 16.4191 12.0856C16.4152 12.055 16.4063 12.023 16.3978 11.9889C16.3978 11.9525 16.3984 11.917 16.3907 11.8848V11.7806C16.3856 11.7506 16.3837 11.7066 16.3765 11.6839C16.3765 11.6435 16.3722 11.6206 16.3622 11.5947C16.346 11.5684 16.3446 11.5566 16.3196 11.5501C16.3014 11.5732 16.2716 11.5826 16.2342 11.5873C16.2081 11.5813 16.1712 11.5774 16.1417 11.5649C16.1132 11.5579 16.0937 11.5466 16.0706 11.5352C16.0579 11.5157 16.0429 11.4937 16.0279 11.4757C16.0235 11.4368 16.015 11.4168 16.0137 11.379C16.0137 11.3506 16.0144 11.3657 16.0421 11.3269H16.0421Z" fill="#BCBCBC"/>
<path d="M16.4638 11.5959C16.509 11.581 16.6076 11.5078 16.6643 11.4609C16.7288 11.42 16.861 11.4624 16.8662 11.3516C16.8582 11.3849 16.7818 11.4678 16.7445 11.5179C16.6621 11.5702 16.7848 11.6235 16.8045 11.5488C16.8473 11.4723 16.9016 11.3946 16.9869 11.3645C16.9714 11.4196 16.9599 11.4732 16.997 11.5223C17.0103 11.4982 17.0137 11.399 17.0122 11.4806C16.9853 11.527 17.0521 11.6622 17.0538 11.5571C17.0645 11.4906 17.0604 11.629 17.0807 11.6498C17.1232 11.7319 17.1195 11.5743 17.129 11.5431C17.1361 11.4842 17.1391 11.4997 17.1304 11.5423C17.1219 11.5957 17.1396 11.4308 17.1428 11.5217C17.1487 11.5692 17.1422 11.6984 17.1881 11.5959C17.2249 11.535 17.2337 11.5341 17.1935 11.5882C17.1805 11.6085 17.2539 11.4771 17.2248 11.5688C17.2229 11.6346 17.2253 11.7326 17.2611 11.7756C17.2885 11.7417 17.2725 11.5658 17.3001 11.6867C17.3107 11.7208 17.3005 11.8157 17.345 11.7429C17.3932 11.6861 17.4197 11.6369 17.4145 11.5591C17.4205 11.5194 17.4447 11.4555 17.466 11.5259C17.4514 11.6176 17.5469 11.676 17.5352 11.7642C17.5781 11.6968 17.5588 11.5964 17.5302 11.5319C17.5242 11.4555 17.6464 11.5011 17.616 11.5684C17.6125 11.6169 17.6819 11.7413 17.6875 11.6261C17.6968 11.5714 17.727 11.5666 17.7204 11.6278C17.733 11.6673 17.7867 11.7836 17.7809 11.6823C17.7857 11.6272 17.772 11.569 17.7968 11.517C17.8144 11.5503 17.8162 11.6013 17.837 11.5381C17.8794 11.5368 17.8538 11.6548 17.9074 11.6801C17.929 11.7224 17.9826 11.7917 17.9676 11.7005C17.9759 11.6511 17.9317 11.5491 17.9509 11.5359C18.0071 11.6072 18.0278 11.7014 18.1036 11.759C18.1757 11.7956 18.1125 11.6577 18.1086 11.6222C18.0656 11.5986 18.0305 11.5067 18.0913 11.5785C18.1265 11.6423 18.2333 11.6981 18.2666 11.7119C18.2348 11.6884 18.2058 11.6796 18.2598 11.7122C18.2998 11.7286 18.2361 11.6126 18.2129 11.5929C18.1922 11.5558 18.0918 11.5017 18.1203 11.4762C18.1989 11.4931 18.2219 11.5791 18.2696 11.6327C18.2993 11.6576 18.371 11.7105 18.3309 11.6316C18.3533 11.6223 18.4639 11.745 18.4376 11.6466C18.4193 11.6042 18.3224 11.5278 18.3331 11.5232C18.3662 11.5711 18.3462 11.5369 18.3199 11.5118C18.4157 11.5224 18.472 11.6181 18.5322 11.6789C18.5397 11.7078 18.5616 11.8488 18.532 11.7563C18.4697 11.7297 18.5561 11.8828 18.488 11.863C18.485 11.8291 18.4249 11.7579 18.454 11.8282C18.504 11.9309 18.4663 12.0436 18.4708 12.1519C18.4721 12.2052 18.4695 12.2582 18.4657 12.3112C18.4693 12.2721 18.4724 12.2069 18.466 12.2924C18.4637 12.3518 18.4419 12.2067 18.4122 12.1993C18.406 12.1723 18.3827 12.0358 18.363 12.1172C18.3631 12.197 18.4401 12.2808 18.3786 12.3511C18.3579 12.3704 18.3469 12.4261 18.3359 12.3677C18.3056 12.2988 18.2862 12.2258 18.2332 12.1695C18.2108 12.1256 18.1339 12.0192 18.1552 12.1309C18.1685 12.1814 18.1775 12.2326 18.174 12.2849C18.1441 12.2075 18.1034 12.1355 18.0633 12.064C18.0691 12.0974 18.1097 12.2408 18.0744 12.1479C18.05 12.0717 18.0107 11.9956 17.9348 11.9618C17.9138 11.9592 17.9858 12.0958 17.958 12.0968C17.9514 12.0527 17.9114 11.9547 17.8718 11.9726C17.8736 12.0513 17.9056 12.1246 17.8873 12.2049C17.8913 12.2832 17.839 12.1271 17.8219 12.1061C17.745 12.0591 17.8275 12.2387 17.7666 12.1692C17.7175 12.1348 17.6914 12.0967 17.6962 12.0325C17.6049 12.0169 17.6401 12.1134 17.6358 12.1682C17.6281 12.2098 17.6056 12.2888 17.5803 12.301C17.5697 12.2408 17.5782 12.1779 17.5754 12.1166C17.5901 12.0814 17.574 11.991 17.5312 12.034C17.524 12.1134 17.5758 12.2142 17.5169 12.279C17.4857 12.3147 17.4278 12.2233 17.3732 12.2477C17.3039 12.2122 17.3324 12.1012 17.2853 12.0428C17.2385 11.9939 17.2605 12.239 17.2297 12.1229C17.2518 12.0489 17.117 12.02 17.1433 12.0989C17.1764 12.1324 17.1824 12.1745 17.1781 12.2191C17.1875 12.2716 17.1485 12.2872 17.1394 12.2283C17.1357 12.1634 17.0246 12.1364 17.0473 12.2218C16.9891 12.1843 17.0437 12.3696 16.9724 12.3126C16.8919 12.2565 16.8403 12.3623 16.7522 12.3416C16.7021 12.3499 16.5823 12.3629 16.655 12.2902C16.7229 12.2492 16.7516 12.1253 16.8463 12.1887C16.9187 12.1845 16.9956 12.1335 17.0547 12.086C17.103 12.0535 17.0814 11.9705 17.0221 12.022C16.973 12.0959 16.8317 12.0958 16.7893 12.0899C16.8313 12.0502 16.9597 12.0443 16.9278 11.9747C16.8807 11.9785 16.7979 12.0492 16.7714 12.0081C16.7879 11.9899 16.842 11.9397 16.7796 11.9616C16.7005 11.9873 16.6157 11.9811 16.5343 11.9746C16.4527 11.8948 16.6532 11.9166 16.6503 11.8642C16.6305 11.8625 16.5525 11.8731 16.5866 11.8444C16.6526 11.8457 16.7191 11.8507 16.7665 11.7881C16.7951 11.7583 16.8947 11.6901 16.8703 11.6661C16.7968 11.7084 16.7197 11.7802 16.6276 11.7384C16.7067 11.6794 16.597 11.6743 16.547 11.6801C16.5106 11.6913 16.4095 11.65 16.496 11.6526C16.5549 11.6651 16.6135 11.5835 16.5228 11.5991C16.5038 11.5933 16.4834 11.597 16.4638 11.5959L16.4638 11.5959Z" fill="#FEFEFE"/>
<path d="M16.0278 11.476C16.0243 11.4375 16.0088 11.3994 16.0152 11.3605C16.0341 11.3329 16.0603 11.3127 16.0847 11.29C16.1282 11.2657 16.1697 11.2362 16.219 11.2242C16.2532 11.2138 16.2828 11.1912 16.3052 11.1636C16.3162 11.1304 16.2967 11.0772 16.3279 11.0593C16.3663 11.0383 16.4078 11.0248 16.4468 11.0055C16.4895 10.9917 16.5357 10.9896 16.5799 10.9948C16.6154 11.0101 16.6513 11.0239 16.6864 11.0398C16.7182 11.0553 16.7416 11.0815 16.7631 11.1086C16.7882 11.1315 16.8197 11.1464 16.8492 11.1627C16.8738 11.1644 16.8657 11.1963 16.8501 11.195C16.84 11.2421 16.7812 11.2022 16.7701 11.1744C16.7799 11.1561 16.7759 11.2162 16.7571 11.217C16.724 11.2317 16.7249 11.1752 16.7201 11.1537C16.7243 11.1354 16.7099 11.1138 16.7024 11.1425C16.6801 11.167 16.7264 11.2196 16.678 11.2051C16.642 11.2003 16.6018 11.1929 16.5706 11.2167C16.5445 11.244 16.5989 11.2552 16.6159 11.2684C16.6388 11.29 16.6694 11.2687 16.696 11.2661C16.7325 11.2535 16.7735 11.26 16.8073 11.2769C16.8229 11.3106 16.7916 11.3441 16.7617 11.3578C16.7338 11.3729 16.7027 11.3795 16.6716 11.3833C16.626 11.3853 16.6348 11.4418 16.5904 11.4463C16.5621 11.4583 16.5301 11.461 16.4999 11.4571C16.4939 11.4408 16.5299 11.415 16.5337 11.3901C16.5663 11.3513 16.4869 11.3583 16.4985 11.3953C16.504 11.4204 16.449 11.4574 16.4676 11.4148C16.4685 11.3919 16.4922 11.3563 16.4522 11.3728C16.4304 11.3726 16.3855 11.3718 16.3978 11.4058C16.3707 11.4116 16.336 11.4122 16.3127 11.3987C16.2988 11.3617 16.2555 11.3454 16.2284 11.379C16.2013 11.4148 16.1638 11.3679 16.137 11.3865C16.1366 11.42 16.1712 11.4375 16.2018 11.4373C16.2328 11.4345 16.2645 11.4288 16.2958 11.4339C16.3245 11.4682 16.2683 11.4789 16.2417 11.4742C16.2057 11.4729 16.1735 11.4524 16.137 11.4552C16.1195 11.4528 16.0797 11.4745 16.1172 11.4774C16.1451 11.4831 16.2022 11.4812 16.1895 11.5249C16.1676 11.5351 16.1405 11.524 16.1158 11.5345C16.1013 11.5307 16.0577 11.5425 16.082 11.53C16.0691 11.5078 16.0443 11.4952 16.0278 11.476Z" fill="#FEFEFE"/>
<path d="M16.187 11.3007C16.1853 11.3007 16.1703 11.3111 16.1568 11.3217C16.1347 11.3335 16.1111 11.3537 16.0964 11.3638C16.0849 11.373 16.0849 11.377 16.0713 11.3796C16.0953 11.3762 16.1059 11.3701 16.1266 11.3585C16.1527 11.3554 16.178 11.3498 16.192 11.3375C16.2051 11.3329 16.191 11.3119 16.187 11.3007Z" fill="#BCBCBC"/>
<path d="M16.418 11.0534C16.4209 11.0534 16.4268 11.0699 16.4381 11.0797C16.4453 11.0999 16.452 11.1142 16.4532 11.1376C16.4593 11.1119 16.4699 11.0912 16.4733 11.0639C16.4655 11.0501 16.4649 11.0436 16.4431 11.0429C16.4431 11.0571 16.4448 11.0478 16.418 11.0534Z" fill="#BCBCBC"/>
<path d="M16.5088 11.0585V11.0637C16.5088 11.0495 16.5085 11.0568 16.5138 11.0848C16.5221 11.1024 16.5239 11.1213 16.5239 11.1479C16.5371 11.138 16.5481 11.1184 16.5541 11.1005C16.5541 11.059 16.5484 11.0614 16.5088 11.0585Z" fill="#BCBCBC"/>
<path d="M16.6946 11.6636H16.6997C16.6849 11.6636 16.6932 11.6645 16.7198 11.6478C16.737 11.6358 16.7511 11.6181 16.7751 11.611C16.7984 11.5919 16.8163 11.5829 16.8405 11.5742C16.8523 11.5685 16.8627 11.5587 16.8757 11.5689C16.872 11.5949 16.8677 11.6047 16.8455 11.6162C16.8341 11.6312 16.816 11.64 16.8003 11.6478C16.7839 11.6553 16.7659 11.6557 16.76 11.6741C16.7327 11.6867 16.7293 11.6846 16.6946 11.6636Z" fill="#BCBCBC"/>
<path d="M16.79 11.8152C16.799 11.8081 16.8305 11.7753 16.8454 11.7627C16.8622 11.7395 16.8791 11.7218 16.8957 11.71C16.9103 11.6875 16.9291 11.6724 16.9409 11.6522C16.9549 11.6345 16.9652 11.6195 16.9812 11.5996C16.9812 11.6226 16.9791 11.6531 16.9862 11.668C16.9862 11.6997 16.9827 11.7084 16.9711 11.7311C16.9597 11.7497 16.9512 11.762 16.9258 11.7732C16.903 11.7858 16.8893 11.7903 16.8705 11.8047C16.8562 11.8139 16.8413 11.8231 16.8252 11.831C16.8108 11.8375 16.8174 11.8347 16.79 11.8152Z" fill="#BCBCBC"/>
<path d="M16.6341 11.938H16.6391C16.6243 11.938 16.6326 11.9389 16.6592 11.9222C16.6807 11.8998 16.6978 11.892 16.7246 11.8801C16.745 11.8785 16.7697 11.8732 16.785 11.8643C16.7971 11.8621 16.8056 11.8544 16.8152 11.8643C16.831 11.8867 16.8353 11.893 16.8101 11.9064C16.7981 11.9171 16.7768 11.9279 16.7598 11.9327C16.7473 11.9436 16.7224 11.9442 16.6995 11.9485C16.6789 11.9485 16.6675 11.9509 16.6592 11.938L16.6995 11.9485C16.6789 11.9485 16.6675 11.9509 16.6341 11.938Z" fill="#BCBCBC"/>
<path d="M16.8506 11.9371V11.9318C16.8506 11.9465 16.85 11.9387 16.8607 11.9108C16.8795 11.8813 16.8866 11.8651 16.911 11.8581C16.9224 11.8437 16.9421 11.84 16.9663 11.8318C16.9754 11.8477 16.9684 11.8661 16.9663 11.8844C16.9597 11.9041 16.9418 11.9179 16.9311 11.9318C16.9154 11.9429 16.909 11.9536 16.8858 11.9581C16.8666 11.9581 16.8768 11.9576 16.8506 11.9371Z" fill="#BCBCBC"/>
<path d="M16.2622 11.2688C16.2509 11.2688 16.282 11.2571 16.2924 11.253C16.3007 11.2347 16.3072 11.2218 16.3225 11.2109C16.3477 11.213 16.3601 11.2206 16.3729 11.2372C16.394 11.2433 16.4016 11.2538 16.4282 11.2583C16.438 11.267 16.4514 11.268 16.4282 11.274C16.4124 11.2827 16.3926 11.2846 16.3678 11.2846C16.3419 11.2865 16.3233 11.2925 16.3075 11.3003C16.2738 11.3003 16.2792 11.3015 16.2622 11.2688Z" fill="#C4C4C2" stroke="black" stroke-width="0.01"/>
<path d="M16.3328 11.2792C16.3467 11.2792 16.3579 11.2674 16.3579 11.2529C16.3579 11.2383 16.3467 11.2266 16.3328 11.2266C16.3189 11.2266 16.3076 11.2383 16.3076 11.2529C16.3076 11.2674 16.3189 11.2792 16.3328 11.2792Z" fill="black"/>
<path d="M16.4178 12.7207H16.4379C16.3748 12.7207 16.4125 12.7163 16.5184 12.8049C16.5627 12.7662 16.5622 12.761 16.5989 12.8259C16.62 12.8629 16.6263 12.8222 16.6592 12.7839C16.6751 12.8603 16.6853 12.9404 16.7397 12.868C16.8019 12.868 16.867 12.8626 16.9007 12.889C16.9414 12.9682 16.9281 12.8756 16.961 12.9101C17.0496 12.9212 17.0479 12.8306 17.1444 12.8072C17.2044 12.8856 17.2307 12.8253 17.3054 12.7862C17.3609 12.8024 17.4132 12.8905 17.4238 12.8049C17.4692 12.7274 17.4732 12.734 17.5043 12.8049C17.5484 12.8465 17.5671 12.7841 17.6048 12.7628C17.6722 12.804 17.7473 12.8097 17.8463 12.7839C17.863 12.8539 17.9053 12.8235 17.9469 12.8049C18.0359 12.844 18.0669 12.856 18.1682 12.8049C18.2184 12.7429 18.19 12.8066 18.2285 12.847C18.3036 12.8226 18.2829 12.8174 18.3694 12.8259C18.4564 12.8259 18.4634 12.8237 18.4901 12.7628C18.5338 12.8085 18.5496 12.8415 18.6108 12.7839C18.7046 12.7867 18.6756 12.7962 18.7315 12.7628C18.7729 12.8586 18.7827 12.7894 18.8321 12.8259C18.7995 12.9123 18.7495 12.9529 18.6913 12.9942C18.6526 13.0612 18.6284 13.1336 18.5505 13.1625C18.4936 13.2232 18.433 13.2583 18.3694 13.3098C18.2822 13.3326 18.1862 13.3308 18.0877 13.3308H17.806H17.5244H17.2427C17.1826 13.3622 17.0843 13.3772 17.0013 13.3939C16.9085 13.3939 16.8034 13.3951 16.7397 13.3729C16.6966 13.3278 16.6209 13.2774 16.5788 13.2256C16.5361 13.1897 16.5349 13.1195 16.4983 13.0784C16.4646 13.0182 16.4542 12.924 16.4178 12.868V12.7207L16.4178 12.7207Z" fill="#005121" stroke="#002B0E" stroke-width="0.01"/>
<path d="M18.3692 12.9105V12.9315C18.3692 12.8727 18.3716 12.9039 18.3289 13.0156C18.3203 13.0428 18.3013 13.0491 18.2686 13.0577" fill="#005121"/>
<path d="M18.3692 12.9105V12.9315C18.3692 12.8727 18.3716 12.9039 18.3289 13.0156C18.3203 13.0428 18.3013 13.0491 18.2686 13.0577" stroke="#002B0E" stroke-width="0.01"/>
<path d="M18.1881 12.9943H18.2082C18.1337 13.0678 18.0836 13.1017 18.0674 13.1836L18.2082 12.9943C18.1337 13.0678 18.0836 13.1017 18.0674 13.1836" fill="#005121"/>
<path d="M18.1881 12.9943H18.2082C18.1337 13.0678 18.0836 13.1017 18.0674 13.1836L18.2082 12.9943C18.1337 13.0678 18.0836 13.1017 18.0674 13.1836" stroke="#002B0E" stroke-width="0.01"/>
<path d="M17.9068 12.8887C17.9068 12.8906 17.904 12.9637 17.8867 12.9939L17.9068 12.8887Z" fill="#005121"/>
<path d="M17.9068 12.8887C17.9068 12.8906 17.904 12.9637 17.8867 12.9939" stroke="#002B0E" stroke-width="0.01"/>
<path d="M17.8262 13.0371V13.0582V13.0371Z" fill="#005121" stroke="#002B0E" stroke-width="0.01"/>
<path d="M17.665 12.9101H17.6852H17.665Z" fill="#005121" stroke="#002B0E" stroke-width="0.01"/>
<path d="M16.5381 12.9101C16.5477 12.9101 16.5873 12.9769 16.6387 13.0153C16.6259 13.0768 16.6062 13.148 16.6387 13.2046" fill="#005121"/>
<path d="M16.5381 12.9101C16.5477 12.9101 16.5873 12.9769 16.6387 13.0153C16.6259 13.0768 16.6062 13.148 16.6387 13.2046" stroke="#002B0E" stroke-width="0.01"/>
<path d="M16.6992 13.0358C16.7088 13.0358 16.7484 13.1026 16.7998 13.141L16.6992 13.0358C16.7088 13.0358 16.7484 13.1026 16.7998 13.141V13.162C16.7998 13.097 16.7947 13.0289 16.8199 12.9937C16.8423 13.0333 16.8706 13.0969 16.8803 13.0358C16.9936 13.0315 17.0483 12.9982 17.1217 12.9727C17.1217 13.0036 17.117 12.9887 17.1419 13.0147" fill="#005121"/>
<path d="M16.6992 13.0358C16.7088 13.0358 16.7484 13.1026 16.7998 13.141L16.6992 13.0358ZM16.6992 13.0358C16.7088 13.0358 16.7484 13.1026 16.7998 13.141V13.162C16.7998 13.097 16.7947 13.0289 16.8199 12.9937C16.8423 13.0333 16.8706 13.0969 16.8803 13.0358C16.9936 13.0315 17.0483 12.9982 17.1217 12.9727C17.1217 13.0036 17.117 12.9887 17.1419 13.0147" stroke="#002B0E" stroke-width="0.01"/>
<path d="M18.5102 12.9316H18.5303C18.4924 12.9647 18.4632 13.0321 18.4297 13.0789" fill="#005121"/>
<path d="M18.5102 12.9316H18.5303C18.4924 12.9647 18.4632 13.0321 18.4297 13.0789" stroke="#002B0E" stroke-width="0.01"/>
<path d="M17.6855 12.8672H17.8465H17.6855Z" fill="#005121"/>
<path d="M17.6855 12.8672H17.8465" stroke="#002B0E" stroke-width="0.01"/>
<path d="M16.3707 13.0272C16.1288 13.0272 16.0486 13.28 15.8066 13.28C15.802 13.28 15.7975 13.2796 15.793 13.2795V13.2948C15.7921 13.47 15.8059 13.6333 15.831 13.7858C16.0542 13.7695 16.1371 13.5329 16.3707 13.5329C16.6127 13.5329 16.6935 13.7863 16.9354 13.7863C17.1774 13.7863 17.2582 13.5329 17.5001 13.5329C17.7421 13.5329 17.8229 13.7863 18.0648 13.7863C18.3068 13.7863 18.3876 13.5329 18.6295 13.5329C18.8625 13.5329 18.9457 13.7678 19.1676 13.7852C19.1942 13.6287 19.2082 13.4605 19.2073 13.28V13.2795C19.2027 13.2796 19.1983 13.28 19.1937 13.28C18.9517 13.28 18.8715 13.0272 18.6295 13.0272C18.3876 13.0272 18.3068 13.28 18.0648 13.28C17.8229 13.28 17.7421 13.0272 17.5001 13.0272C17.2582 13.0272 17.1774 13.28 16.9354 13.28C16.6935 13.28 16.6127 13.0272 16.3707 13.0272V13.0272Z" fill="white"/>
<path d="M16.3708 14.0135C16.1826 14.0135 16.092 14.1661 15.9473 14.234C15.9978 14.3735 16.059 14.5004 16.127 14.6167C16.1957 14.5648 16.2688 14.5198 16.3708 14.5198C16.6128 14.5198 16.6935 14.7727 16.9355 14.7727C17.1774 14.7727 17.2582 14.5198 17.5002 14.5198C17.7421 14.5198 17.8229 14.7727 18.0649 14.7727C18.3068 14.7727 18.3876 14.5198 18.6296 14.5198C18.7293 14.5198 18.8014 14.5628 18.8688 14.6133C18.9369 14.4975 18.9982 14.3708 19.0491 14.2323C18.9067 14.1635 18.8161 14.0135 18.6296 14.0135C18.3876 14.0135 18.3068 14.2664 18.0649 14.2664C17.8229 14.2664 17.7421 14.0135 17.5002 14.0135C17.2582 14.0135 17.1774 14.2664 16.9355 14.2664C16.6935 14.2664 16.6128 14.0135 16.3708 14.0135Z" fill="white"/>
<path d="M17.5006 15.0018C17.2586 15.0018 17.1779 15.2552 16.9359 15.2552C16.7071 15.2552 16.6224 15.0286 16.4092 15.004C16.6941 15.3214 17.0172 15.5136 17.2375 15.6192C17.312 15.5614 17.3892 15.6895 17.5006 15.6895C17.6112 15.6895 17.6879 15.5607 17.762 15.6181C17.9799 15.512 18.299 15.3195 18.5824 15.0052C18.3762 15.0353 18.2907 15.2552 18.0653 15.2552C17.8233 15.2552 17.7426 15.0018 17.5006 15.0018H17.5006Z" fill="white"/>
<path d="M16.002 14.1439C16.0417 14.1301 16.2335 14.0678 16.2401 14.0748C16.2468 14.0817 16.6107 14.4484 16.6107 14.4484L16.3063 14.5106L16.002 14.1439V14.1439Z" stroke="#522108" stroke-width="0.01"/>
<path d="M16.7256 14.6236C16.7312 14.5368 16.8937 14.043 16.8937 14.043" stroke="#522108" stroke-width="0.01"/>
<path d="M16.7812 14.6299C16.7812 14.6245 16.9102 14.0488 16.9102 14.0488" stroke="#522108" stroke-width="0.01"/>
<path d="M16.8262 14.6308C16.8318 14.5983 16.9333 14.0488 16.9333 14.0488" stroke="#522108" stroke-width="0.01"/>
<path d="M16.7705 14.467C16.7985 14.467 16.8546 14.4453 16.8546 14.4453" stroke="#522108" stroke-width="0.01"/>
<path d="M16.7871 14.4006C16.7871 14.3952 16.8712 14.3789 16.8712 14.3789" stroke="#522108" stroke-width="0.01"/>
<path d="M16.7988 14.319L16.8885 14.3027" stroke="#522108" stroke-width="0.01"/>
<path d="M16.8379 14.25C16.8379 14.2554 16.8995 14.2554 16.8995 14.2554" stroke="#522108" stroke-width="0.01"/>
<path d="M17.7229 15.0079C17.7163 14.8593 17.5244 14.0137 17.5244 14.0137" stroke="#522108" stroke-width="0.01"/>
<path d="M17.6571 14.9805C17.6571 14.9712 17.5049 14.0234 17.5049 14.0234" stroke="#522108" stroke-width="0.01"/>
<path d="M17.591 14.9062C17.5844 14.8504 17.4785 14.0234 17.4785 14.0234" stroke="#522108" stroke-width="0.01"/>
<path d="M17.7163 14.8871C17.6832 14.8593 17.584 14.8221 17.584 14.8221" stroke="#522108" stroke-width="0.01"/>
<path d="M17.6705 14.7385C17.6375 14.7385 17.5713 14.7013 17.5713 14.7013" stroke="#522108" stroke-width="0.01"/>
<path d="M17.651 14.627C17.651 14.6177 17.5518 14.5898 17.5518 14.5898" stroke="#522108" stroke-width="0.01"/>
<path d="M17.6371 14.4869L17.5312 14.459" stroke="#522108" stroke-width="0.01"/>
<path d="M17.5913 14.3672C17.5913 14.3765 17.5186 14.3765 17.5186 14.3765" stroke="#522108" stroke-width="0.01"/>
<path d="M17.5708 14.2559C17.5576 14.2559 17.498 14.2744 17.498 14.2744" stroke="#522108" stroke-width="0.01"/>
<path d="M18.2321 14.5922C18.199 14.5922 18.1328 14.5645 18.1328 14.5645" stroke="#522108" stroke-width="0.01"/>
<path d="M18.2844 14.7931C18.2778 14.6824 18.0859 14.0528 18.0859 14.0528" stroke="#522108" stroke-width="0.01"/>
<path d="M18.2186 14.7732C18.2186 14.7663 18.0664 14.0606 18.0664 14.0606" stroke="#522108" stroke-width="0.01"/>
<path d="M18.1525 14.7179C18.1459 14.6764 18.04 14.0606 18.04 14.0606" stroke="#522108" stroke-width="0.01"/>
<path d="M18.2125 14.5102C18.2125 14.5032 18.1133 14.4825 18.1133 14.4825" stroke="#522108" stroke-width="0.01"/>
<path d="M18.1986 14.4056L18.0928 14.3849" stroke="#522108" stroke-width="0.01"/>
<path d="M18.1529 14.3165C18.1529 14.3234 18.0801 14.3234 18.0801 14.3234" stroke="#522108" stroke-width="0.01"/>
<path d="M18.1323 14.2327C18.1191 14.2327 18.0596 14.2466 18.0596 14.2466" stroke="#522108" stroke-width="0.01"/>
<path d="M17.4311 14.8764C17.4311 14.8694 17.451 13.1398 17.451 13.1398C17.451 13.1398 17.5105 13.1329 17.5105 13.1398C17.5105 13.1467 17.5039 14.8694 17.4973 14.8764C17.4907 14.8833 17.4245 14.8902 17.4311 14.8764Z" fill="#DD8B59" stroke="#522108" stroke-width="0.01"/>
<path d="M18.0791 13.2168C18.0791 13.2307 18.0659 14.6766 18.0659 14.6766L18.0195 14.732L18.0328 13.2168H18.0791V13.2168Z" fill="#DD8B59" stroke="#522108" stroke-width="0.01"/>
<path d="M16.9284 14.5449C16.935 14.5033 16.935 13.2511 16.935 13.2511L16.8953 13.2441L16.8887 14.5241L16.9284 14.5449V14.5449Z" fill="#DD8B59" stroke="#522108" stroke-width="0.01"/>
<path d="M16.6768 14.0741C16.7032 14.0741 17.1532 13.998 17.1532 13.998L17.1465 14.0741L16.7032 14.1226L16.6768 14.0741H16.6768Z" fill="#DD8B59" stroke="#522108" stroke-width="0.01"/>
<path d="M16.6836 13.6725C16.7101 13.6794 17.2262 13.5272 17.2262 13.5272C17.2262 13.5272 17.2262 13.5757 17.2195 13.5757C17.2129 13.5757 16.6836 13.7209 16.6836 13.7209V13.6725Z" fill="#DD8B59" stroke="#522108" stroke-width="0.01"/>
<path d="M16.703 13.4722C16.6964 13.4999 16.7096 13.5345 16.7096 13.5345L17.1397 13.3823C17.1397 13.3823 17.1596 13.3477 17.1397 13.3477C17.1199 13.3477 16.6964 13.486 16.703 13.4722L16.703 13.4722Z" fill="#DD8B59" stroke="#522108" stroke-width="0.01"/>
<path d="M17.2725 13.3758C17.2857 13.3758 17.7158 13.2305 17.7158 13.2305C17.7158 13.2305 17.7224 13.2927 17.7158 13.2927C17.7092 13.2927 17.3122 13.4173 17.3122 13.4173L17.2725 13.3758H17.2725Z" fill="#DD8B59" stroke="#522108" stroke-width="0.01"/>
<path d="M17.2389 13.5553C17.2389 13.5553 17.2257 13.6175 17.2323 13.6175C17.2389 13.6175 17.7947 13.4653 17.7947 13.4653V13.4238L17.2389 13.5553L17.2389 13.5553Z" fill="#DD8B59" stroke="#522108" stroke-width="0.01"/>
<path d="M17.2588 14.0456V14.094L17.7352 14.0248L17.722 13.9902L17.2588 14.0456H17.2588Z" fill="#DD8B59" stroke="#522108" stroke-width="0.01"/>
<path d="M17.8086 14.08L17.8152 14.1215C17.8152 14.1215 18.2916 14.0592 18.2916 14.0523C18.2916 14.0454 18.2916 14.0039 18.285 14.0039C18.2784 14.0039 17.8152 14.0869 17.8086 14.08Z" fill="#DD8B59" stroke="#522108" stroke-width="0.01"/>
<path d="M17.8018 13.6385L17.8084 13.687L18.3708 13.5278C18.3708 13.5278 18.384 13.4863 18.3774 13.4863C18.3708 13.4863 17.815 13.6593 17.8018 13.6385V13.6385Z" fill="#DD8B59" stroke="#522108" stroke-width="0.01"/>
<path d="M17.8613 13.4162C17.8613 13.4162 17.8547 13.4577 17.8613 13.4577C17.868 13.4577 18.2782 13.3539 18.2782 13.347C18.2782 13.3401 18.3179 13.2985 18.2848 13.3055C18.2517 13.3124 17.8746 13.4369 17.8613 13.4162H17.8613Z" fill="#DD8B59" stroke="#522108" stroke-width="0.01"/>
<path d="M16.9616 13.5532C17.0211 13.5324 16.9814 13.484 16.9947 13.484C17.0079 13.484 17.0542 13.5186 17.0807 13.4909C17.1071 13.4632 17.127 13.3802 17.1138 13.3871C17.1018 13.3934 16.8167 13.5004 16.7549 13.5016C16.7936 13.5166 16.91 13.5712 16.9616 13.5532H16.9616Z" fill="#FECF3E" stroke="#522108" stroke-width="0.01"/>
<path d="M17.8818 13.4573C17.8818 13.4573 17.9149 13.5403 17.948 13.5265C17.9811 13.5126 18.0142 13.4849 18.0142 13.4849C18.0142 13.4849 18.0407 13.5541 18.0869 13.5403C18.1333 13.5265 18.1597 13.4503 18.1597 13.4503C18.1597 13.4503 18.206 13.4642 18.2259 13.4573C18.2458 13.4503 18.2722 13.3397 18.2722 13.3397L17.8818 13.4573Z" fill="#FECF3E" stroke="#522108" stroke-width="0.01"/>
<path d="M17.8416 14.1289C17.8349 14.1427 17.8746 14.1773 17.9077 14.1773C17.9408 14.1773 17.954 14.1289 17.9606 14.1427C17.9673 14.1565 17.9673 14.2188 18.0533 14.198C18.1393 14.1773 18.1393 14.115 18.1393 14.115C18.1393 14.115 18.1128 14.1358 18.1724 14.1427C18.2319 14.1496 18.2915 14.0527 18.2849 14.0527C18.2783 14.0527 17.8548 14.1358 17.8416 14.1289H17.8416Z" fill="#FECF3E" stroke="#522108" stroke-width="0.01"/>
<path d="M17.842 13.6786C17.842 13.6786 17.7759 13.7547 17.7957 13.8585C17.8156 13.9623 17.842 14.0522 17.8487 14.0522C17.8553 14.0522 17.928 13.9138 18.0074 13.9069C18.0868 13.9 18.2324 13.983 18.2324 13.983C18.2324 13.983 18.2126 13.817 18.2192 13.7409C18.2258 13.6648 18.3383 13.5333 18.3383 13.5333L17.842 13.6786L17.842 13.6786Z" fill="#FECF3E" stroke="#522108" stroke-width="0.01"/>
<path d="M16.6973 14.1283C16.7039 14.1283 16.6973 14.1906 16.7502 14.1768C16.8031 14.1629 16.8164 14.1283 16.8164 14.1283C16.8164 14.1283 16.8296 14.2044 16.9024 14.1975C16.9752 14.1906 17.0148 14.1076 17.0148 14.1076C17.0148 14.1076 17.0215 14.1698 17.0678 14.1491C17.1141 14.1283 17.1273 14.0799 17.1273 14.0799L16.7105 14.1422L16.6973 14.1283Z" fill="#FECF3E" stroke="#522108" stroke-width="0.01"/>
<path d="M16.6971 13.7193C16.6971 13.7193 16.6375 13.7401 16.6574 13.8646C16.6772 13.9892 16.7235 14.0584 16.7301 14.0584C16.7368 14.0584 16.7897 13.9408 16.8691 13.92C16.9485 13.8992 17.0874 13.9823 17.0874 13.9823C17.0874 13.9823 17.0742 13.8716 17.0941 13.7678C17.1139 13.664 17.1801 13.5879 17.1801 13.5879C17.1801 13.5879 16.7169 13.7193 16.6971 13.7193L16.6971 13.7193Z" fill="#FECF3E" stroke="#522108" stroke-width="0.01"/>
<path d="M17.2861 13.395C17.3126 13.4019 17.3589 13.4711 17.3854 13.4572C17.4119 13.4434 17.4515 13.4019 17.4515 13.4019C17.4515 13.4019 17.4449 13.4849 17.4979 13.4711C17.5508 13.4572 17.5574 13.4019 17.5574 13.4019C17.5574 13.4019 17.5971 13.4227 17.6302 13.4019C17.6633 13.3811 17.6964 13.2773 17.6831 13.2773C17.6699 13.2773 17.2994 13.4019 17.2861 13.395H17.2861Z" fill="#FECF3E" stroke="#522108" stroke-width="0.01"/>
<path d="M17.2727 13.5953C17.2727 13.6091 17.2065 13.7198 17.2264 13.8236C17.2462 13.9273 17.2859 14.0242 17.2925 14.0242C17.2992 14.0242 17.3984 13.9135 17.4844 13.8928C17.5704 13.872 17.6961 13.9619 17.6895 13.9619C17.6829 13.9619 17.6564 13.8581 17.6564 13.7821C17.6564 13.7059 17.7557 13.4707 17.7557 13.4707L17.2727 13.5953L17.2727 13.5953Z" fill="#FECF3E" stroke="#522108" stroke-width="0.01"/>
<path d="M17.2725 14.0946C17.2725 14.1015 17.2923 14.1499 17.3386 14.1499C17.3849 14.1499 17.3916 14.1015 17.3916 14.1015C17.3916 14.1015 17.3849 14.1845 17.4577 14.1776C17.5305 14.1707 17.557 14.0946 17.557 14.0946C17.557 14.0946 17.5636 14.1361 17.6231 14.1153C17.6827 14.0946 17.7621 14.0254 17.7555 14.0254C17.7489 14.0254 17.2791 14.1153 17.2725 14.0946H17.2725Z" fill="#FECF3E" stroke="#522108" stroke-width="0.01"/>
<path d="M16.6969 14.5923C16.6969 14.5923 16.763 15.3049 17.524 15.2842C18.2849 15.2634 18.4966 14.5647 18.4966 14.5647C18.4966 14.5647 18.1724 14.5508 18.1657 14.5508C18.1591 14.5508 17.9011 14.8829 17.5703 14.876C17.2394 14.8691 17.1336 14.786 17.0608 14.7169C16.988 14.6477 16.9218 14.5439 16.9218 14.5439L16.5381 14.3848L16.5579 14.537L16.6969 14.5923L16.6969 14.5923Z" fill="#DD8B59" stroke="#522108" stroke-width="0.01"/>
<path d="M18.751 14.5189C18.7444 14.4981 18.7281 14.4269 18.7281 14.4269V14.3438L18.7647 14.2598C18.7647 14.2598 18.1891 14.346 18.1891 14.3529C18.1891 14.345 18.1855 14.5168 18.1855 14.5168L18.751 14.5189V14.5189Z" fill="#DD8B59" stroke="#522108" stroke-width="0.01"/>
<path d="M18.6421 14.3438L18.6289 14.489H18.7215L18.7149 14.3438H18.6421Z" fill="#DD8B59" stroke="#522108" stroke-width="0.01"/>
<path d="M18.5428 14.3516L18.5361 14.5038L18.5957 14.4968L18.6023 14.3516H18.5428V14.3516Z" fill="#DD8B59" stroke="#522108" stroke-width="0.01"/>
<path d="M18.4434 14.5036V14.386L18.5029 14.3652L18.5095 14.4828L18.4434 14.5036Z" fill="#DD8B59" stroke="#522108" stroke-width="0.01"/>
<path d="M18.3311 14.4964L18.3443 14.3926L18.4105 14.3995L18.4171 14.5102L18.3311 14.4964Z" fill="#DD8B59" stroke="#522108" stroke-width="0.01"/>
<path d="M18.2061 14.4973L18.2127 14.4073L18.2789 14.4004V14.5042L18.2061 14.4973Z" fill="#DD8B59" stroke="#522108" stroke-width="0.01"/>
<path d="M18.1392 14.5513L18.7678 14.5651L18.7744 14.5167L18.126 14.5098L18.1392 14.5513Z" fill="#DD8B59" stroke="#522108" stroke-width="0.01"/>
<path d="M18.166 14.3791C18.2388 14.3791 18.788 14.2684 18.788 14.2684C18.788 14.2684 18.8078 14.1992 18.788 14.1992C18.7681 14.1992 18.166 14.3307 18.166 14.3307V14.3791Z" fill="#DD8B59" stroke="#522108" stroke-width="0.01"/>
<path d="M15.9824 14.1367L16.4853 14.3926L16.472 14.4272C16.472 14.4272 15.989 14.192 15.989 14.1851C15.989 14.1782 15.9956 14.1505 15.9824 14.1367L15.9824 14.1367Z" fill="#DD8B59" stroke="#522108" stroke-width="0.01"/>
<path d="M16.2139 14.0605C16.2139 14.0813 16.2867 14.5033 16.2867 14.5033C16.2867 14.5033 16.333 14.5103 16.333 14.5033C16.333 14.4964 16.2536 14.0675 16.2536 14.0675L16.2139 14.0605V14.0605Z" fill="#DD8B59" stroke="#522108" stroke-width="0.01"/>
<path d="M17.2305 14.8415C17.2371 14.7265 17.429 14.0723 17.429 14.0723" stroke="#522108" stroke-width="0.01"/>
<path d="M17.2969 14.8499C17.2969 14.8427 17.4491 14.0801 17.4491 14.0801" stroke="#522108" stroke-width="0.01"/>
<path d="M17.3486 14.8511C17.3552 14.808 17.4751 14.0801 17.4751 14.0801" stroke="#522108" stroke-width="0.01"/>
<path d="M17.2373 14.7476C17.2704 14.726 17.3696 14.6973 17.3696 14.6973" stroke="#522108" stroke-width="0.01"/>
<path d="M17.2832 14.6323C17.3163 14.6323 17.3824 14.6035 17.3824 14.6035" stroke="#522108" stroke-width="0.01"/>
<path d="M17.3037 14.5463C17.3037 14.5391 17.403 14.5176 17.403 14.5176" stroke="#522108" stroke-width="0.01"/>
<path d="M17.3164 14.4395L17.4223 14.418" stroke="#522108" stroke-width="0.01"/>
<path d="M17.3633 14.3457C17.3633 14.3529 17.4361 14.3529 17.4361 14.3529" stroke="#522108" stroke-width="0.01"/>
<path d="M17.3828 14.2598C17.396 14.2598 17.4556 14.2741 17.4556 14.2741" stroke="#522108" stroke-width="0.01"/>
<path d="M17.792 14.8362C17.7986 14.7255 17.9905 14.0959 17.9905 14.0959" stroke="#522108" stroke-width="0.01"/>
<path d="M17.8584 14.8163C17.8584 14.8094 18.0106 14.1037 18.0106 14.1037" stroke="#522108" stroke-width="0.01"/>
<path d="M17.9248 14.761C17.9314 14.7194 18.0373 14.1037 18.0373 14.1037" stroke="#522108" stroke-width="0.01"/>
<path d="M17.7988 14.7459C17.8319 14.7251 17.9311 14.6974 17.9311 14.6974" stroke="#522108" stroke-width="0.01"/>
<path d="M17.8447 14.6353C17.8778 14.6353 17.944 14.6076 17.944 14.6076" stroke="#522108" stroke-width="0.01"/>
<path d="M17.8652 14.5533C17.8652 14.5463 17.9645 14.5256 17.9645 14.5256" stroke="#522108" stroke-width="0.01"/>
<path d="M17.8779 14.4487L17.9838 14.428" stroke="#522108" stroke-width="0.01"/>
<path d="M17.9248 14.3596C17.9248 14.3665 17.9976 14.3665 17.9976 14.3665" stroke="#522108" stroke-width="0.01"/>
<path d="M17.9443 14.2758C17.9576 14.2758 18.0171 14.2896 18.0171 14.2896" stroke="#522108" stroke-width="0.01"/>
<path d="M17.1565 14.7623C17.1499 14.651 16.958 14.0176 16.958 14.0176" stroke="#522108" stroke-width="0.01"/>
<path d="M17.0907 14.7423C17.0907 14.7353 16.9385 14.0254 16.9385 14.0254" stroke="#522108" stroke-width="0.01"/>
<path d="M17.0246 14.6866C17.018 14.6449 16.9121 14.0254 16.9121 14.0254" stroke="#522108" stroke-width="0.01"/>
<path d="M17.1499 14.6719C17.1168 14.651 17.0176 14.6232 17.0176 14.6232" stroke="#522108" stroke-width="0.01"/>
<path d="M17.1041 14.5611C17.0711 14.5611 17.0049 14.5332 17.0049 14.5332" stroke="#522108" stroke-width="0.01"/>
<path d="M17.0846 14.4769C17.0846 14.47 16.9854 14.4491 16.9854 14.4491" stroke="#522108" stroke-width="0.01"/>
<path d="M17.0707 14.3726L16.9648 14.3517" stroke="#522108" stroke-width="0.01"/>
<path d="M17.0249 14.2812C17.0249 14.2882 16.9521 14.2882 16.9521 14.2882" stroke="#522108" stroke-width="0.01"/>
<path d="M17.0044 14.1992C16.9912 14.1992 16.9316 14.2131 16.9316 14.2131" stroke="#522108" stroke-width="0.01"/>
<path d="M16.5254 14.3929C16.5254 14.3929 16.3931 14.3721 16.3997 14.4067C16.4063 14.4413 16.4658 14.4759 16.4724 14.4967C16.479 14.5174 16.4526 14.5935 16.4923 14.5866C16.532 14.5797 16.5717 14.552 16.5717 14.5313C16.5717 14.5105 16.5651 14.4137 16.5651 14.4137L16.5254 14.3929Z" fill="#B6B6B4" stroke="#522108" stroke-width="0.01"/>
<path d="M16.6699 14.5858C16.6898 14.5858 16.842 14.6204 16.842 14.6204L17.0008 14.8418" stroke="#522108" stroke-width="0.01"/>
<path d="M16.7822 14.614C16.7888 14.6209 16.9212 15.0845 17.5564 15.0845C18.1916 15.0845 18.3437 14.5587 18.3437 14.5587" stroke="#522108" stroke-width="0.01"/>
<path d="M18.4433 14.5723C18.4433 14.5723 18.1389 15.2642 17.5567 15.2158C16.9744 15.1673 16.8818 14.939 16.8355 14.8214C16.7891 14.7038 16.7627 14.6069 16.7627 14.6069" stroke="#522108" stroke-width="0.01"/>
<path d="M18.2783 14.0121C18.2849 13.9913 18.3048 13.5762 18.3048 13.5762" stroke="#522108" stroke-width="0.01"/>
<path d="M18.7413 14.2191L18.3311 13.5411" stroke="#522108" stroke-width="0.01"/>
<path d="M17.4971 13.1606C17.4971 13.1536 17.7022 13.2505 17.7022 13.2574C17.7022 13.2643 18.43 14.2745 18.4366 14.2745" stroke="#522108" stroke-width="0.01"/>
<path d="M18.0732 13.2579L18.2585 13.3409L18.3181 13.4931" stroke="#522108" stroke-width="0.01"/>
<path d="M16.922 13.2442C16.9154 13.2442 17.1271 13.4102 17.1271 13.4102L17.1536 13.5486" stroke="#522108" stroke-width="0.01"/>
<path d="M16.2002 14.2547C16.2928 14.2132 16.9346 13.6251 16.9346 13.6251" stroke="#522108" stroke-width="0.01"/>
<path d="M16.0283 14.1424C16.1077 14.0732 16.7495 13.5059 16.7495 13.5059" stroke="#522108" stroke-width="0.01"/>
<path d="M17.2324 13.6033L17.9139 14.7864" stroke="#522108" stroke-width="0.01"/>
<path d="M17.834 14.0919C17.834 14.0919 17.9144 14.3706 17.9938 14.4121C18.0732 14.4536 18.1658 14.5228 18.1658 14.5228" stroke="#522108" stroke-width="0.01"/>
<path d="M17.8242 14.0977C17.8242 14.0977 17.8807 14.426 17.9601 14.4883C18.0395 14.5505 18.1189 14.6197 18.1189 14.6197" stroke="#522108" stroke-width="0.01"/>
<path d="M17.2754 14.0762C17.2754 14.0762 17.3548 14.5329 17.5136 14.6366C17.6724 14.7404 17.8047 14.8304 17.8047 14.8304" stroke="#522108" stroke-width="0.01"/>
<path d="M17.2695 14.0685C17.2695 14.0685 17.4415 14.4283 17.5871 14.539C17.7327 14.6497 17.9312 14.7535 17.9312 14.7535" stroke="#522108" stroke-width="0.01"/>
<path d="M16.7129 14.0958C16.7592 14.1788 16.7526 14.3379 16.8055 14.3933C16.8584 14.4486 16.9379 14.5732 16.9379 14.5732" stroke="#522108" stroke-width="0.01"/>
<path d="M16.7266 14.1036C16.753 14.1451 16.8269 14.3518 16.8721 14.4149C16.9052 14.4703 17.2427 14.8231 17.2427 14.8231" stroke="#522108" stroke-width="0.01"/>
<path d="M17.0809 14.8927C17.1083 14.8927 17.1305 14.8694 17.1305 14.8408C17.1305 14.8121 17.1083 14.7889 17.0809 14.7889C17.0535 14.7889 17.0312 14.8121 17.0312 14.8408C17.0312 14.8694 17.0535 14.8927 17.0809 14.8927Z" fill="black" stroke="#522108" stroke-width="0.01"/>
<path d="M17.3321 14.996C17.3558 14.996 17.3751 14.9759 17.3751 14.951C17.3751 14.9262 17.3558 14.9061 17.3321 14.9061C17.3083 14.9061 17.2891 14.9262 17.2891 14.951C17.2891 14.9759 17.3083 14.996 17.3321 14.996Z" fill="black" stroke="#522108" stroke-width="0.01"/>
<path d="M17.6436 15.0234C17.6673 15.0234 17.6866 15.0032 17.6866 14.9784C17.6866 14.9535 17.6673 14.9334 17.6436 14.9334C17.6198 14.9334 17.6006 14.9535 17.6006 14.9784C17.6006 15.0032 17.6198 15.0234 17.6436 15.0234Z" fill="black" stroke="#522108" stroke-width="0.01"/>
<path d="M17.9215 14.9099C17.9435 14.9099 17.9612 14.8929 17.9612 14.8719C17.9612 14.8508 17.9435 14.8338 17.9215 14.8338C17.8996 14.8338 17.8818 14.8508 17.8818 14.8719C17.8818 14.8929 17.8996 14.9099 17.9215 14.9099Z" fill="black" stroke="#522108" stroke-width="0.01"/>
<path d="M18.1331 14.7812C18.1532 14.7812 18.1695 14.761 18.1695 14.7362C18.1695 14.7114 18.1532 14.6912 18.1331 14.6912C18.113 14.6912 18.0967 14.7114 18.0967 14.7362C18.0967 14.761 18.113 14.7812 18.1331 14.7812Z" fill="black" stroke="#522108" stroke-width="0.01"/>
<path d="M16.8918 13.2519C16.872 13.2657 16.5411 13.3488 16.5874 13.3418C16.6337 13.3349 16.8984 13.411 16.8918 13.3903C16.8852 13.3695 16.8918 13.2657 16.8918 13.2519Z" fill="#FF0101" stroke="#522108" stroke-width="0.01"/>
<path d="M17.4545 13.1484C17.4413 13.1484 17.2494 13.2245 17.256 13.2245C17.2627 13.2245 17.4744 13.2868 17.4678 13.2729C17.4611 13.2591 17.4611 13.1691 17.4545 13.1484H17.4545Z" fill="#FF0101" stroke="#522108" stroke-width="0.01"/>
<path d="M18.0304 13.2167C18.0171 13.2237 17.7921 13.279 17.8318 13.2859C17.8715 13.2929 18.0237 13.3482 18.0237 13.3344C18.0237 13.3205 18.0237 13.2237 18.0304 13.2167Z" fill="#FF0101" stroke="#522108" stroke-width="0.01"/>
<path d="M17.3665 13.765C17.3673 13.7447 17.3522 13.7276 17.3328 13.7268C17.3134 13.726 17.2971 13.7418 17.2963 13.7621C17.2955 13.7824 17.3106 13.7995 17.33 13.8003C17.3494 13.8011 17.3657 13.7853 17.3665 13.765Z" fill="#BE1017" stroke="#522108" stroke-width="0.01"/>
<path d="M17.6048 13.7006C17.6056 13.6803 17.5905 13.6632 17.5711 13.6624C17.5517 13.6616 17.5354 13.6774 17.5346 13.6976C17.5338 13.7179 17.5489 13.735 17.5683 13.7358C17.5877 13.7366 17.604 13.7208 17.6048 13.7006Z" fill="#BE1017" stroke="#522108" stroke-width="0.01"/>
<path d="M17.4856 13.8334C17.4864 13.8131 17.4713 13.796 17.4519 13.7952C17.4326 13.7944 17.4162 13.8102 17.4155 13.8305C17.4147 13.8507 17.4298 13.8678 17.4492 13.8686C17.4685 13.8695 17.4849 13.8537 17.4856 13.8334Z" fill="#BE1017" stroke="#522108" stroke-width="0.01"/>
<path d="M17.4856 13.6322C17.4864 13.6119 17.4713 13.5948 17.4519 13.594C17.4326 13.5932 17.4162 13.609 17.4155 13.6293C17.4147 13.6496 17.4298 13.6667 17.4492 13.6675C17.4685 13.6683 17.4849 13.6525 17.4856 13.6322Z" fill="#BE1017" stroke="#522108" stroke-width="0.01"/>
<path d="M17.4856 13.7318C17.4864 13.7115 17.4713 13.6944 17.4519 13.6936C17.4326 13.6928 17.4162 13.7086 17.4155 13.7289C17.4147 13.7492 17.4298 13.7663 17.4492 13.7671C17.4685 13.7679 17.4849 13.7521 17.4856 13.7318Z" fill="#BE1017" stroke="#522108" stroke-width="0.01"/>
<path d="M20 6L20 18L4 18L4 6L20 6ZM20 5L4 5C3.4 5 3 5.4 3 6L3 18C3 18.6 3.4 19 4 19L20 19C20.6 19 21 18.6 21 18L21 6C21 5.4 20.6 5 20 5Z" fill="none"/>
<defs>
<linearGradient id="paint0_linear_14099_117055" x1="16.3969" y1="15.2999" x2="15.792" y2="14.9426" gradientUnits="userSpaceOnUse">
<stop stop-color="#A43907" stop-opacity="0.9961"/>
<stop offset="1" stop-color="white"/>
</linearGradient>
<linearGradient id="paint1_linear_14099_117055" x1="16.7735" y1="15.5415" x2="15.4454" y2="15.2956" gradientUnits="userSpaceOnUse">
<stop stop-color="#A43907" stop-opacity="0.9961"/>
<stop offset="1" stop-color="white"/>
</linearGradient>
<linearGradient id="paint2_linear_14099_117055" x1="19.2421" y1="14.979" x2="18.6237" y2="15.015" gradientUnits="userSpaceOnUse">
<stop stop-color="#A43907" stop-opacity="0.9961"/>
<stop offset="1" stop-color="white"/>
</linearGradient>
<linearGradient id="paint3_linear_14099_117055" x1="19.5003" y1="15.3187" x2="18.1888" y2="15.4301" gradientUnits="userSpaceOnUse">
<stop stop-color="#A43907" stop-opacity="0.9961"/>
<stop offset="1" stop-color="white"/>
</linearGradient>
<linearGradient id="paint4_linear_14099_117055" x1="19.3507" y1="15.6778" x2="15.65" y2="15.6778" gradientUnits="userSpaceOnUse">
<stop stop-color="#A43907" stop-opacity="0.9961"/>
<stop offset="1" stop-color="white"/>
</linearGradient>
<linearGradient id="paint5_linear_14099_117055" x1="15.7515" y1="15.9381" x2="21.1614" y2="15.9818" gradientUnits="userSpaceOnUse">
<stop stop-color="#A43907" stop-opacity="0.9961"/>
<stop offset="1" stop-color="white"/>
</linearGradient>
<linearGradient id="paint6_linear_14099_117055" x1="19.482" y1="15.6352" x2="19.0442" y2="15.6614" gradientUnits="userSpaceOnUse">
<stop stop-color="#A43907" stop-opacity="0.9961"/>
<stop offset="1" stop-color="white"/>
</linearGradient>
<linearGradient id="paint7_linear_14099_117055" x1="15.6361" y1="16.0763" x2="16.0585" y2="16.1433" gradientUnits="userSpaceOnUse">
<stop stop-color="#A43907" stop-opacity="0.9961"/>
<stop offset="1" stop-color="white"/>
</linearGradient>
<linearGradient id="paint8_linear_14099_117055" x1="16.0479" y1="16.0042" x2="15.3299" y2="15.6057" gradientUnits="userSpaceOnUse">
<stop stop-color="#A43907" stop-opacity="0.9961"/>
<stop offset="1" stop-color="white"/>
</linearGradient>
</defs>
</svg>
