<svg width="24" height="24" viewBox="0 0 24 24" fill="none" xmlns="http://www.w3.org/2000/svg">
<path d="M20 6H4V18H20V6Z" fill="#75B2DD"/>
<path d="M20 6L20 18L4 18L4 6L20 6ZM20 5L4 5C3.4 5 3 5.4 3 6L3 18C3 18.6 3.4 19 4 19L20 19C20.6 19 21 18.6 21 18L21 6C21 5.4 20.6 5 20 5Z" fill="none"/>
<path d="M12 7L12.3368 8.03647H13.4266L12.5449 8.67705L12.8817 9.71353L12 9.07295L11.1183 9.71353L11.4551 8.67705L10.5734 8.03647H11.6632L12 7Z" fill="white"/>
<path d="M12 14L12.3368 15.0365H13.4266L12.5449 15.6771L12.8817 16.7135L12 16.0729L11.1183 16.7135L11.4551 15.6771L10.5734 15.0365H11.6632L12 14Z" fill="white"/>
<path d="M7.5 10.5L7.83677 11.5365H8.92658L8.04491 12.1771L8.38168 13.2135L7.5 12.5729L6.61832 13.2135L6.95509 12.1771L6.07342 11.5365H7.16323L7.5 10.5Z" fill="white"/>
<path d="M16.5 10.5L16.8368 11.5365H17.9266L17.0449 12.1771L17.3817 13.2135L16.5 12.5729L15.6183 13.2135L15.9551 12.1771L15.0734 11.5365H16.1632L16.5 10.5Z" fill="white"/>
</svg>
