<svg width="24" height="24" viewBox="0 0 24 24" fill="none" xmlns="http://www.w3.org/2000/svg">
<path d="M4 6H20V18H4V6Z" fill="#002868"/>
<path d="M4 6L13 10.5L4 6ZM4 10.5L13 6L4 10.5Z" fill="black"/>
<path d="M4 6L13 10.5M4 10.5L13 6" stroke="white" stroke-width="1.5"/>
<path d="M4 6L13 10.5L4 6ZM4 10.5L13 6L4 10.5Z" fill="black"/>
<path d="M4 6L13 10.5M4 10.5L13 6" stroke="#CE1126"/>
<path d="M8.5 6V12V6ZM4 8.25H14.5H4Z" fill="black"/>
<path d="M8.5 6V12M4 8.25H14.5" stroke="white" stroke-width="1.5"/>
<path d="M8.5 6V12V6ZM4 8.25H14.5H4Z" fill="black"/>
<path d="M8.5 6V12M4 8.25H14.5" stroke="#CE1126"/>
<path d="M4 10.5H13V6H20V18H4V10.5Z" fill="#68BFE5"/>
<path d="M15.6816 12.1582V15.2346C15.6816 16.2408 17.4996 16.8382 17.4996 16.8382C17.4996 16.8382 19.3176 16.2407 19.3176 15.2346V12.1582H15.6816Z" fill="white"/>
<path d="M17.2476 13.2383V14.6234H15.6816V15.1274H17.2476V16.7414L17.4996 16.8374L17.7516 16.7414V15.1274H19.3176V14.6234H17.7516V13.2383H17.2476Z" fill="#D21034"/>
<path d="M15.6816 12.1582H19.3176V13.3462H15.6816V12.1582Z" fill="#D21034"/>
<path d="M15.9729 13.0476C16.0858 13.0476 16.1772 12.974 16.1772 12.8832C16.1772 12.7924 16.0858 12.7188 15.9729 12.7188C15.86 12.7188 15.7686 12.7924 15.7686 12.8832C15.7686 12.974 15.86 13.0476 15.9729 13.0476Z" fill="white" stroke="black" stroke-width="0.01" stroke-miterlimit="3"/>
<path d="M15.9727 12.8888C16.0731 12.8888 16.1544 12.8476 16.1544 12.7969C16.1544 12.7462 16.0731 12.7051 15.9727 12.7051C15.8724 12.7051 15.791 12.7462 15.791 12.7969C15.791 12.8476 15.8724 12.8888 15.9727 12.8888Z" fill="white" stroke="black" stroke-width="0.01" stroke-miterlimit="3"/>
<path d="M15.9727 13.0724C16.0731 13.0724 16.1544 13.0313 16.1544 12.9806C16.1544 12.9299 16.0731 12.8887 15.9727 12.8887C15.8724 12.8887 15.791 12.9299 15.791 12.9806C15.791 13.0313 15.8724 13.0724 15.9727 13.0724Z" fill="white" stroke="black" stroke-width="0.01" stroke-miterlimit="3"/>
<path d="M15.9727 12.9747C16.0731 12.9747 16.1544 12.9336 16.1544 12.8829C16.1544 12.8321 16.0731 12.791 15.9727 12.791C15.8724 12.791 15.791 12.8321 15.791 12.8829C15.791 12.9336 15.8724 12.9747 15.9727 12.9747Z" fill="white" stroke="black" stroke-width="0.01" stroke-miterlimit="3"/>
<path d="M19.2279 13.1097L19.1981 13.0275C19.1981 13.0275 19.1166 12.9943 19.1104 12.951C19.0959 12.8356 19.0547 12.7923 18.993 12.7758C18.9311 12.7593 18.8899 12.7862 18.8899 12.7862C18.8713 12.813 18.7786 12.813 18.7271 12.815C18.6755 12.8171 18.6747 12.7926 18.6747 12.7926C18.6346 12.7929 18.6178 12.7635 18.6178 12.7635C18.5916 12.7112 18.5721 12.6916 18.5592 12.685C18.626 12.686 18.6764 12.6551 18.7519 12.5759C18.8342 12.4894 18.8931 12.5228 18.8931 12.5228C18.8531 12.6037 18.9064 12.5965 18.9064 12.5965C19.0156 12.5409 18.9208 12.4008 18.8878 12.407C18.8549 12.4131 18.8455 12.3909 18.8455 12.3909C18.8465 12.4161 18.8089 12.4261 18.8089 12.4261C18.8371 12.266 18.7415 12.2235 18.7415 12.2235C18.7271 12.238 18.7188 12.2668 18.7188 12.2668C18.692 12.3637 18.6034 12.3492 18.5044 12.3018C18.4055 12.2544 18.1417 12.3513 18.0593 12.3843C17.9768 12.4173 17.8264 12.4688 17.6904 12.3925C17.5544 12.3162 17.5214 12.3307 17.4678 12.3451C17.4142 12.3595 17.3195 12.3822 17.2845 12.3636C17.2494 12.3451 17.2095 12.344 17.2095 12.344C17.219 12.3386 17.2041 12.3163 17.2041 12.3163C17.1629 12.2606 17.2095 12.2265 17.2095 12.2265C17.2095 12.2265 17.1327 12.2481 17.1633 12.3791L17.1773 12.3987C17.1773 12.3987 17.1875 12.4399 17.2103 12.4523L17.2095 12.4613C17.2095 12.4613 17.2289 12.4523 17.235 12.4791C17.2412 12.5058 17.2701 12.4811 17.2824 12.4585C17.2824 12.4585 17.2618 12.578 17.4102 12.6069C17.4102 12.6069 17.3936 12.5883 17.3998 12.5759C17.406 12.5636 17.3813 12.5532 17.3834 12.5347C17.3854 12.5162 17.3464 12.5079 17.3772 12.4935C17.4081 12.479 17.4226 12.4502 17.4885 12.4893C17.5544 12.5285 17.606 12.5203 17.606 12.5203C17.606 12.5203 17.5658 12.4378 17.5879 12.4378C17.6101 12.4378 17.7098 12.5613 17.7589 12.5552C17.8079 12.5491 17.9027 12.4935 17.9502 12.5141C17.9502 12.5141 17.9542 12.4893 18.1356 12.4584C18.3169 12.4275 18.5407 12.3371 18.6245 12.4163C18.6245 12.4163 18.6344 12.479 18.6694 12.4955C18.6694 12.4955 18.6631 12.6254 18.4386 12.5532L18.3571 12.5318C18.3571 12.5318 18.3446 12.4923 17.9176 12.6021C17.9176 12.6021 17.8924 12.6109 17.8759 12.6233C17.8594 12.6356 17.8367 12.6171 17.7522 12.648C17.6678 12.679 17.3524 12.782 17.1588 12.7449L17.1585 12.7454C17.1159 12.7327 17.0759 12.7393 17.0743 12.7325C17.0722 12.7243 17.097 12.7346 17.097 12.7346C17.0826 12.7181 17.0764 12.7168 17.0764 12.7168C16.9135 12.6989 16.9423 12.6254 16.9423 12.6254L16.9506 12.648C16.9774 12.613 16.9402 12.5306 16.9402 12.5306L16.9387 12.5309C16.9383 12.5283 16.9378 12.5258 16.9372 12.5234L16.9506 12.5141C17.029 12.4481 17.1197 12.4357 17.1197 12.4357C17.066 12.3698 16.9526 12.4049 16.9526 12.4049C16.9547 12.3245 16.9218 12.2317 16.9218 12.2317C16.8104 12.2441 16.7466 12.3368 16.7466 12.3368C16.7425 12.2544 16.6373 12.207 16.6373 12.207C16.6765 12.2544 16.6518 12.3677 16.6518 12.3677L16.6559 12.3698C16.6494 12.3696 16.6456 12.3698 16.6456 12.3698L16.6433 12.3941L16.6394 12.3925C16.6394 12.3925 16.6003 12.4069 16.555 12.5099C16.555 12.5099 16.5504 12.5343 16.5328 12.5562C16.5327 12.5534 16.533 12.5508 16.5326 12.5479C16.5326 12.5479 16.482 12.6142 16.365 12.5479C16.365 12.5479 16.206 12.4535 16.1502 12.457C16.0943 12.4605 16.0576 12.4867 16.0611 12.5024C16.0611 12.5024 15.9335 12.4919 15.8899 12.5653C15.8899 12.5653 15.7939 12.6002 15.876 12.6788C15.876 12.6788 15.887 12.713 15.9109 12.7313C15.9109 12.7313 15.9075 12.6595 15.9248 12.6806C15.9248 12.6806 15.9294 12.6877 15.938 12.6926C15.9402 12.7027 15.9479 12.7307 15.965 12.7449L15.9773 12.741C15.9792 12.7231 15.983 12.7005 15.987 12.691C15.9889 12.6912 15.9904 12.6915 15.9911 12.6915C15.9905 12.692 15.99 12.6923 15.9895 12.6928L16.0122 12.7277L16.0384 12.7138C16.0506 12.712 16.0663 12.7243 16.0663 12.7243L16.096 12.6998C16.0958 12.6995 16.0957 12.6995 16.0955 12.6992C16.1247 12.7041 16.1327 12.6474 16.1327 12.6474C16.159 12.6543 16.1836 12.6466 16.2045 12.6339C16.2173 12.6809 16.3214 12.7313 16.3214 12.7313L16.3259 12.7309C16.317 12.7366 16.3118 12.7408 16.3118 12.7408C16.3592 12.7738 16.4478 12.7656 16.4478 12.7656C16.4108 12.78 16.4159 12.8486 16.4159 12.8486C16.3943 12.8575 16.3922 12.8789 16.3922 12.8789C16.4643 12.9077 16.5136 12.8838 16.5136 12.8838C16.5175 12.9073 16.5117 12.9098 16.5117 12.9098C16.4829 12.9716 16.4705 13.0314 16.4705 13.0314C16.4711 13.0317 16.4719 13.0318 16.4725 13.032C16.4716 13.0337 16.4705 13.0352 16.4698 13.0369C16.4698 13.0369 16.3441 13.0805 16.2882 13.1417C16.2882 13.1417 16.2829 13.1242 16.2672 13.1242C16.2515 13.1242 16.2026 13.0841 16.1799 13.077C16.1572 13.0701 16.124 13.0841 16.1152 13.0736C16.1073 13.0641 16.1109 12.9925 16.0958 12.981L16.0961 12.981L16.0803 12.9374C16.0699 12.9601 16.0262 12.9548 16.0262 12.9548C16.0245 12.9559 16.0178 12.9608 16.0082 12.9678C15.9995 12.9683 15.9895 12.9653 15.9895 12.9653C15.985 12.9662 15.9806 12.9788 15.9773 12.991C15.9756 12.9923 15.9738 12.9937 15.9721 12.995V12.9828C15.9634 12.9897 15.9459 12.9793 15.9389 12.9793C15.9354 12.9793 15.9312 12.9893 15.9278 12.9996C15.91 13.0029 15.8865 13.0037 15.8865 13.0037C15.8795 13.0072 15.8847 13.0614 15.8847 13.0614C15.8341 13.0893 15.8585 13.1312 15.8585 13.1312C15.8864 13.2675 16.1187 13.2063 16.1362 13.2238C16.1536 13.2413 16.1939 13.2448 16.2148 13.2448C16.2357 13.2448 16.2619 13.2954 16.2916 13.3007C16.3214 13.3059 16.2916 13.2605 16.4294 13.2276C16.5671 13.1947 16.613 13.1382 16.613 13.1382C16.6561 13.1299 16.6681 13.0775 16.6713 13.0563C16.6717 13.0661 16.6729 13.0769 16.6745 13.0892C16.6807 13.1366 16.6479 13.1539 16.6479 13.1539L16.7672 13.118C16.8146 13.1057 16.8084 13.0644 16.8084 13.0644C16.8538 13.1943 16.9362 13.2025 16.9362 13.2025C16.9527 13.153 16.9507 13.1386 16.9507 13.1386L16.9877 13.1366C16.9892 13.1086 16.9646 13.0882 16.9503 13.0787L17.0083 13.1139L17.031 13.1098C17.031 13.1304 17.0619 13.1489 17.0619 13.1489L17.0661 13.1222C17.0929 13.1572 17.1423 13.1448 17.1423 13.1448C17.1412 13.1383 17.1398 13.1319 17.1379 13.1256C17.2435 13.1907 17.4122 13.1077 17.4122 13.1077C17.4575 13.118 17.4637 13.0912 17.4637 13.0912C17.5153 13.0974 17.5272 13.0622 17.5272 13.0622C17.6485 13.0517 17.7338 12.9655 17.7338 12.9655C17.7935 12.9614 17.7954 12.9186 17.7954 12.9186C17.7954 12.9186 17.8553 12.9305 17.913 12.8583C18.047 12.6667 18.2472 12.7665 18.2472 12.7665L18.1314 12.7738C17.8285 12.7718 17.9541 12.9778 17.9541 12.9778L17.9728 12.9758C18.0016 12.9819 18.1005 13.0603 18.0641 13.1186C18.0635 13.1196 18.0627 13.1206 18.062 13.1215C18.0003 13.206 17.8859 13.1254 17.8533 13.0541C17.8203 12.982 17.7543 12.9985 17.7543 12.9985C17.7543 12.9985 17.5833 13.0273 17.6534 13.1633L17.6559 13.1634C17.6572 13.1966 17.678 13.2344 17.739 13.272C17.7733 13.3205 17.8859 13.3255 17.9687 13.3076C18.0072 13.2992 18.2104 13.2119 18.2104 13.2119C18.2253 13.1676 18.2758 13.1778 18.3211 13.1139C18.3664 13.05 18.2572 13.0273 18.2325 12.9923C18.2077 12.9573 18.2387 12.9635 18.2387 12.9635C18.3376 13.0171 18.3458 12.846 18.3458 12.846C18.3561 12.9449 18.4427 12.9717 18.4427 12.9717C18.4963 12.9182 18.4572 12.8089 18.4572 12.8089C18.5849 13.0377 18.6623 13.0012 18.6623 13.0012C18.5935 12.9586 18.6282 12.9016 18.6282 12.9016C18.6899 13.1448 18.9435 12.9326 18.9435 12.9326C18.9311 12.9675 18.9436 12.9881 18.9662 13.0108C18.9888 13.0335 19.0156 13.0438 19.0033 13.085C18.9909 13.1262 18.8735 13.118 18.8735 13.118C18.8735 13.118 18.7581 13.1119 18.7684 13.2087C18.7745 13.2314 18.8508 13.2396 18.8796 13.2335C18.8796 13.2335 18.8677 13.236 18.9104 13.2417C18.9247 13.2436 18.9419 13.2439 18.9595 13.2433C19.0087 13.2418 19.0611 13.2335 19.0611 13.2335C19.1269 13.2191 19.1167 13.1963 19.1167 13.1963C19.2176 13.1777 19.2279 13.1097 19.2279 13.1097L19.2279 13.1097Z" fill="#FFD100" stroke="black" stroke-width="0.01" stroke-miterlimit="3"/>
<path d="M15.8786 12.6867C15.8787 12.6866 15.884 12.674 15.8942 12.6725C15.902 12.6713 15.9116 12.6771 15.9216 12.6893L15.9271 12.6852C15.9269 12.6848 15.8999 12.6455 15.9107 12.6178C15.9155 12.6054 15.9274 12.5969 15.946 12.5927L15.9445 12.5859C15.9235 12.5908 15.9099 12.6006 15.9042 12.6153C15.9022 12.6208 15.9012 12.6265 15.9012 12.6323C15.9012 12.6459 15.906 12.6596 15.9109 12.6702C15.9048 12.6664 15.8988 12.6648 15.8931 12.6656C15.8828 12.6672 15.8777 12.6746 15.875 12.6795L15.8786 12.6867ZM19.0593 13.2265C18.9904 13.2374 18.8894 13.2435 18.8813 13.2226C18.8799 13.2189 18.8797 13.2041 18.936 13.1674L18.9295 13.1573C18.8824 13.1879 18.8635 13.21 18.8701 13.2269C18.8845 13.2644 19.0321 13.243 19.0615 13.2383L19.0593 13.2265ZM17.7423 13.2662C17.7266 13.2422 17.7337 13.2093 17.7633 13.1684L17.7535 13.1613C17.7206 13.2066 17.7134 13.2442 17.7322 13.2729L17.7423 13.2662Z" fill="black"/>
<path d="M17.6497 13.1635C17.6512 13.205 17.6806 13.2436 17.7367 13.278L17.743 13.2677C17.6905 13.2356 17.6632 13.2004 17.6618 13.1631C17.6597 13.1059 17.7201 13.0618 17.7207 13.0614L17.7137 13.0516C17.711 13.0535 17.6474 13.0998 17.6497 13.1635ZM18.8241 13.179C18.8052 13.2069 18.8115 13.2406 18.8118 13.2421L18.8236 13.2397C18.8235 13.2394 18.818 13.2093 18.8342 13.1857C18.8438 13.1714 18.8595 13.1622 18.8806 13.1582L18.8784 13.1463C18.8539 13.151 18.8357 13.1619 18.8241 13.179ZM16.1335 12.6516L16.1298 12.6506L16.1293 12.6545C16.1292 12.6548 16.1239 12.6914 16.1074 12.7014C16.1027 12.7042 16.0977 12.7045 16.0919 12.7024L16.0638 12.6852C16.0581 12.6803 16.0533 12.6766 16.0452 12.679C16.0436 12.6769 16.0371 12.6682 16.0371 12.6541C16.0371 12.6525 16.0372 12.6508 16.0375 12.6491C16.0395 12.6326 16.051 12.6167 16.0718 12.6019L16.0678 12.5962C16.0453 12.6124 16.0328 12.6299 16.0306 12.6484C16.0291 12.6616 16.0329 12.6748 16.041 12.6852L16.0427 12.6871L16.045 12.686C16.0513 12.6833 16.0531 12.6849 16.0592 12.6903L16.0896 12.7088C16.0973 12.7117 16.1044 12.7111 16.1109 12.7073C16.1281 12.697 16.1341 12.6671 16.1355 12.6587C16.2087 12.6745 16.2675 12.5855 16.2701 12.5817L16.2642 12.5779C16.2637 12.5789 16.2036 12.67 16.1335 12.6516Z" fill="black"/>
<path d="M15.9579 12.6373C15.9543 12.6521 15.9568 12.6666 15.9652 12.6805C15.9733 12.6937 15.9813 12.7006 15.9896 12.7018C15.9997 12.7031 16.0078 12.6956 16.0149 12.6891C16.0201 12.6842 16.025 12.6797 16.029 12.68L16.0353 12.6844L16.0407 12.68L16.0295 12.6731C16.0225 12.6726 16.0165 12.6781 16.0102 12.684C16.0039 12.6898 15.9974 12.6959 15.9905 12.695C15.9845 12.6941 15.978 12.688 15.9711 12.6769C15.9637 12.6646 15.9614 12.6518 15.9646 12.6389C15.9725 12.6063 16.0115 12.5823 16.0119 12.5821L16.0084 12.5762C16.0066 12.5772 15.9665 12.6018 15.9579 12.6373ZM15.8573 13.1032C15.8608 13.0905 15.8705 13.0798 15.886 13.0711C15.883 13.0714 15.9013 13.0864 15.9171 13.0847L15.9273 13.0792C15.9315 13.0828 15.9588 13.1076 15.9588 13.139C15.9588 13.1456 15.9576 13.1524 15.9546 13.1593L15.961 13.162C15.9809 13.1148 15.9307 13.0729 15.9303 13.0724L15.9284 13.071L15.9253 13.073L15.9164 13.0778C15.9035 13.0792 15.8867 13.0655 15.8866 13.0654C15.8654 13.0747 15.8546 13.0869 15.8506 13.1014L15.8573 13.1032ZM16.0902 12.9826C16.0752 12.9838 16.0332 12.9919 16.0195 13.0136C16.0145 13.0215 16.0138 13.0302 16.0174 13.0396L16.0229 13.0543C16.036 13.0894 16.0495 13.1257 16.0644 13.1339L16.0677 13.1279C16.0551 13.121 16.0414 13.0843 16.0294 13.0519L16.0239 13.0372C16.0211 13.0298 16.0215 13.0233 16.0253 13.0173C16.0366 12.9994 16.0743 12.9908 16.0908 12.9895C16.1004 12.9887 16.1035 13.0241 16.1054 13.0454L16.1123 13.0447C16.1095 13.0135 16.1067 12.9812 16.0902 12.9826Z" fill="black"/>
<path d="M15.9749 13.0181C15.9661 13.026 15.9679 13.0378 15.968 13.0383C15.9681 13.0416 15.972 13.1294 16.0137 13.1475L16.0164 13.1412C15.9787 13.1247 15.9749 13.0385 15.9748 13.0377C15.9748 13.0371 15.9736 13.0284 15.9796 13.0232C15.9859 13.0176 15.9985 13.0171 16.0159 13.0219L16.0177 13.0153C15.9976 13.0097 15.9832 13.0107 15.9749 13.0181Z" fill="black"/>
<path d="M15.9425 13.0259C15.924 13.0387 15.9248 13.0753 15.9248 13.0769L15.9317 13.0767C15.9317 13.0763 15.931 13.0422 15.9464 13.0315C15.9522 13.0276 15.9597 13.0274 15.9689 13.0311L15.9715 13.0247C15.96 13.0201 15.9502 13.0204 15.9425 13.0259Z" fill="black"/>
<path d="M16.9348 12.5403C16.9351 12.5409 16.9544 12.5845 16.9544 12.6199C16.9544 12.6261 16.9514 12.6306 16.95 12.6361C16.9493 12.6341 16.9425 12.6156 16.9425 12.6156L16.9367 12.6304C16.9364 12.6312 16.9288 12.6512 16.9424 12.6736C16.9604 12.7033 17.0052 12.7223 17.0757 12.73H17.0757C17.0757 12.7301 17.0765 12.7308 17.0766 12.731C17.0737 12.7314 17.0715 12.7322 17.0709 12.7328L17.068 12.7352L17.0684 12.7412C17.0702 12.7485 17.0786 12.7489 17.0952 12.7495C17.098 12.7497 17.1025 12.7503 17.1057 12.7505C17.1099 12.7517 17.1141 12.7528 17.1141 12.7528L17.1127 12.7512C17.1287 12.7523 17.1468 12.7563 17.1664 12.7636C17.1621 12.7647 17.1515 12.7674 17.1515 12.7674L17.1689 12.7742C17.1702 12.7748 17.2986 12.8263 17.3518 12.8688C17.3367 12.8819 17.2723 12.93 17.1607 12.9025L17.142 12.8979L17.1547 12.9124C17.1555 12.9132 17.2282 12.9966 17.2432 13.0471C17.2179 13.0474 17.1204 13.0465 17.0864 13.0175L17.0776 13.0256C17.078 13.0263 17.1243 13.0942 17.1346 13.1471C17.1214 13.1489 17.0896 13.1502 17.0709 13.1256L17.0622 13.1144L17.0575 13.1449C17.0484 13.1381 17.037 13.1279 17.037 13.1169V13.1097L17.0095 13.1147L16.953 13.0805C16.9501 13.0785 16.9471 13.0767 16.944 13.075C16.9439 13.0749 16.9434 13.0747 16.9434 13.0747L16.943 13.0744L16.9372 13.085C16.9372 13.085 16.9439 13.089 16.9458 13.0902C16.9579 13.0981 16.9786 13.1153 16.9807 13.1381C16.9718 13.1386 16.944 13.1401 16.944 13.1401L16.9447 13.1465V13.1475C16.9447 13.1513 16.9435 13.1671 16.932 13.2027C16.9146 13.1985 16.8514 13.1765 16.8141 13.0696L16.8025 13.0725C16.8025 13.0728 16.8027 13.0742 16.8027 13.0764C16.8027 13.0862 16.7992 13.1106 16.7657 13.1193C16.7655 13.1194 16.7034 13.1381 16.6689 13.1484C16.6753 13.1391 16.6813 13.1265 16.6813 13.1081C16.6813 13.1042 16.681 13.1 16.6805 13.0956C16.6784 13.08 16.6771 13.0671 16.6771 13.0563C16.6771 13.0338 16.6827 13.0203 16.6982 13.0108L16.6928 13.0001C16.6913 13.0006 16.5485 13.0574 16.4777 13.0338C16.4809 13.02 16.4929 12.9714 16.5171 12.9196L16.514 12.9225C16.5187 12.9206 16.5234 12.9133 16.5195 12.8901L16.5182 12.8821L16.5109 12.8856C16.5105 12.8859 16.4651 12.9061 16.3997 12.8821C16.401 12.8767 16.4045 12.8671 16.4182 12.8614L16.4222 12.8598L16.4218 12.8554C16.4218 12.8552 16.4217 12.8522 16.4217 12.8474C16.4217 12.8297 16.4244 12.7883 16.4499 12.7784L16.4472 12.7667C16.4463 12.7668 16.3698 12.773 16.3233 12.7471C16.3355 12.7387 16.3611 12.7233 16.3909 12.719L16.3957 12.7183L16.396 12.7135C16.396 12.7133 16.3962 12.7119 16.3962 12.7096C16.3962 12.7036 16.3938 12.6913 16.3885 12.679C16.4062 12.6839 16.4273 12.6884 16.4349 12.6828L16.4374 12.6808L16.4352 12.6344L16.4232 12.6349L16.425 12.6734C16.4175 12.6738 16.3982 12.6699 16.3795 12.664L16.361 12.6581L16.3729 12.6735C16.3826 12.6859 16.3838 12.7013 16.384 12.7084C16.3421 12.7162 16.3093 12.7422 16.3079 12.7434L16.3018 12.7484L16.3083 12.753C16.3443 12.7781 16.4006 12.7802 16.4295 12.7796C16.4124 12.7988 16.4096 12.8309 16.4096 12.847C16.4096 12.8503 16.4097 12.8511 16.4097 12.8528C16.3893 12.8638 16.3862 12.8845 16.3861 12.8855L16.3856 12.89L16.3899 12.8917C16.4517 12.9164 16.494 12.9045 16.5083 12.8992C16.5084 12.9011 16.5088 12.9037 16.5088 12.9051C16.5088 12.9108 16.5078 12.9125 16.5078 12.9125C16.4774 12.9762 16.4647 13.0368 16.4645 13.0374L16.4635 13.0424L16.4682 13.0442C16.5256 13.0672 16.6288 13.0358 16.6745 13.0197C16.6685 13.0301 16.665 13.0417 16.665 13.0562C16.665 13.0683 16.6665 13.0819 16.6685 13.0971C16.669 13.101 16.6692 13.1045 16.6692 13.108C16.6692 13.1422 16.6461 13.1551 16.645 13.1557L16.6496 13.1668L16.7689 13.131C16.7965 13.1238 16.8069 13.1075 16.8113 13.0936C16.8584 13.2053 16.9323 13.2153 16.9356 13.2157L16.9404 13.2161L16.9419 13.2116C16.9533 13.1773 16.956 13.1599 16.9565 13.1514C16.9688 13.1508 16.9811 13.1502 16.9935 13.1495L16.9938 13.1441C16.9938 13.1431 16.9938 13.1422 16.9938 13.1413C16.9938 13.1315 16.9907 13.1227 16.9865 13.1149C16.9939 13.1194 17.0071 13.1274 17.0071 13.1274L17.0269 13.1238C17.032 13.1437 17.0557 13.1594 17.0588 13.1613L17.0665 13.1659C17.0665 13.1659 17.0693 13.1477 17.0705 13.1398C17.1 13.1661 17.1418 13.1583 17.1438 13.1578L17.149 13.1565L17.1483 13.1511C17.1423 13.1108 17.1152 13.0628 17.0993 13.0372C17.1516 13.061 17.247 13.0592 17.2517 13.0591L17.2588 13.0588L17.2574 13.0519C17.249 13.0095 17.196 12.9428 17.1739 12.9163C17.2969 12.9394 17.363 12.8756 17.3658 12.8727L17.3701 12.8681L17.3654 12.8639C17.324 12.8279 17.2287 12.786 17.1904 12.77L17.2038 12.7667L17.1906 12.7592C17.1585 12.7412 17.1246 12.739 17.1016 12.738L17.1015 12.7378C17.087 12.7212 17.0796 12.7185 17.0777 12.7181C16.9945 12.7089 16.964 12.6856 16.953 12.6676C16.952 12.6661 16.9525 12.6651 16.9518 12.6637C16.9536 12.6613 16.9555 12.6589 16.9555 12.6589C16.9635 12.6485 16.9663 12.6345 16.9663 12.6197C16.9663 12.5814 16.9469 12.5378 16.9458 12.5353L16.9348 12.5403H16.9348Z" fill="black"/>
<path d="M16.5516 12.5159C16.5513 12.5171 16.5425 12.5626 16.5036 12.584C16.4744 12.6001 16.4358 12.5987 16.3891 12.58L16.3838 12.5779L16.3843 12.5836C16.3845 12.5847 16.3875 12.6115 16.4128 12.6311C16.4338 12.6475 16.4639 12.6533 16.5016 12.6491C16.489 12.6641 16.4485 12.7159 16.4485 12.7662C16.4485 12.7688 16.4486 12.7715 16.4489 12.7741C16.454 12.7778 16.5176 12.795 16.547 12.7573C16.5481 12.7735 16.5527 12.8252 16.5729 12.8454C16.584 12.8564 16.5866 12.8725 16.5866 12.8853C16.5866 12.8969 16.5844 12.9058 16.5844 12.906L16.5821 12.9152L16.5898 12.9096C16.5922 12.9078 16.6506 12.865 16.6693 12.809C16.6692 12.8091 16.6786 12.7949 16.6967 12.7891C16.6963 12.7916 16.696 12.7941 16.696 12.7976C16.696 12.8192 16.7055 12.8585 16.7685 12.8826L16.7737 12.8846L16.7732 12.8791C16.7729 12.8755 16.7728 12.8718 16.7728 12.8682C16.7728 12.8524 16.775 12.8233 16.79 12.8083C16.8 12.7984 16.8029 12.7872 16.8029 12.7775C16.8029 12.7699 16.8013 12.7637 16.7996 12.7592C16.8123 12.7624 16.8424 12.7721 16.8546 12.7951C16.8724 12.8284 16.9347 12.8019 16.9374 12.8008L16.9352 12.7942C16.935 12.7943 16.909 12.8001 16.8927 12.7888C16.8855 12.7839 16.8812 12.7763 16.8796 12.7662L16.8768 12.7315C16.8761 12.7158 16.874 12.7059 16.8661 12.6975C16.8743 12.6967 16.8908 12.697 16.8978 12.7125C16.9088 12.7367 16.9466 12.7391 16.9482 12.7392L16.9611 12.7399L16.9502 12.7329C16.9499 12.7327 16.9173 12.711 16.9229 12.6828L16.9276 12.6622C16.9365 12.625 16.9514 12.5627 16.9393 12.5245L16.9327 12.5266C16.9357 12.5361 16.937 12.5474 16.937 12.5595C16.937 12.5934 16.9274 12.6337 16.9209 12.6606L16.9161 12.6815C16.9156 12.6842 16.9153 12.6869 16.9154 12.6896C16.9154 12.7078 16.9272 12.7218 16.9364 12.7302C16.9253 12.7278 16.9099 12.7225 16.9042 12.7096C16.8951 12.6897 16.8707 12.6888 16.8591 12.6912L16.851 12.6928L16.8579 12.6974C16.8689 12.7047 16.8692 12.7132 16.8699 12.7318L16.8729 12.7672C16.8746 12.7792 16.88 12.7885 16.8888 12.7945C16.8965 12.7998 16.9055 12.8005 16.9138 12.8011C16.8953 12.8059 16.8699 12.809 16.8608 12.7918C16.8436 12.7598 16.7964 12.7513 16.7944 12.7509L16.7872 12.7497L16.7908 12.756C16.7912 12.7567 16.7962 12.7658 16.7962 12.7773C16.7962 12.7855 16.7937 12.7949 16.7852 12.8033C16.7685 12.8202 16.7659 12.8509 16.7659 12.8678C16.7659 12.8711 16.7661 12.8716 16.7661 12.8736C16.7122 12.8509 16.7027 12.8174 16.7027 12.7984C16.7027 12.7903 16.7042 12.7849 16.7044 12.7842L16.706 12.7789L16.7005 12.7798C16.6743 12.7841 16.6634 12.8054 16.663 12.8063C16.648 12.8512 16.6073 12.8867 16.5926 12.8986C16.5932 12.8941 16.5936 12.8896 16.5936 12.8851C16.5936 12.8711 16.5906 12.8533 16.5779 12.8405C16.5564 12.8191 16.5535 12.7509 16.5535 12.7502L16.553 12.7379L16.547 12.7486C16.5233 12.7911 16.454 12.7707 16.4534 12.7705C16.4504 12.7168 16.5114 12.6481 16.512 12.6474L16.5184 12.6403L16.509 12.6417C16.4692 12.6475 16.4383 12.6422 16.4171 12.6258C16.405 12.6164 16.3963 12.6032 16.3925 12.5883C16.4386 12.6055 16.4773 12.6065 16.5071 12.59C16.5487 12.567 16.5578 12.5199 16.5582 12.5179C16.6019 12.4188 16.6401 12.4032 16.6405 12.4031L16.6381 12.3966C16.6364 12.3972 16.597 12.4127 16.5516 12.5159Z" fill="black"/>
<path d="M16.6517 12.3693L16.6487 12.3694L16.6133 12.418L16.6238 12.419C16.8162 12.4378 16.918 12.5539 16.919 12.5551L16.9234 12.5602L16.9583 12.5223L16.9558 12.5184C16.8582 12.3648 16.6537 12.3692 16.6517 12.3693ZM16.655 12.3813C16.6787 12.3814 16.854 12.3868 16.9428 12.5213C16.9384 12.526 16.9288 12.5366 16.9236 12.5423C16.9028 12.5207 16.8042 12.4285 16.635 12.4087C16.6416 12.3996 16.6525 12.3847 16.655 12.3813Z" fill="black"/>
<path d="M16.6235 12.4713C16.607 12.4937 16.5918 12.5269 16.5918 12.5424C16.5918 12.5454 16.5923 12.5477 16.5936 12.5492C16.5937 12.5494 16.5943 12.5494 16.5945 12.5497C16.5744 12.5676 16.5625 12.5976 16.5625 12.6315C16.5625 12.6501 16.5658 12.6696 16.5727 12.6881L16.5766 12.6985C16.5955 12.7499 16.6117 12.7943 16.6934 12.7681C16.7721 12.743 16.7751 12.738 16.7949 12.7053L16.8001 12.6968C16.8109 12.6793 16.8227 12.6758 16.8353 12.6721C16.8502 12.6676 16.8658 12.6629 16.8794 12.6361L16.8926 12.6162C16.9069 12.5965 16.9248 12.5721 16.9269 12.5409L16.92 12.5404C16.918 12.5696 16.9008 12.5932 16.8871 12.6121L16.8732 12.6329C16.8609 12.6572 16.8475 12.6612 16.8333 12.6654C16.82 12.6694 16.8064 12.6734 16.7942 12.6932L16.789 12.7017C16.7699 12.7331 16.7675 12.7372 16.6913 12.7616C16.6159 12.7857 16.6021 12.7481 16.583 12.6962L16.5792 12.6856C16.5577 12.6284 16.5745 12.5706 16.6024 12.5499L16.612 12.5428C16.612 12.5428 16.6001 12.5441 16.5987 12.5443C16.5986 12.5437 16.5984 12.5432 16.5984 12.5423C16.5984 12.5329 16.6086 12.5031 16.629 12.4753C16.6464 12.4517 16.6873 12.4282 16.6878 12.428L16.6843 12.422C16.6826 12.423 16.6417 12.4464 16.6235 12.4713Z" fill="black"/>
<path d="M16.5872 12.678C16.6007 12.6874 16.6197 12.6867 16.6426 12.678C16.6427 12.6862 16.6445 12.7035 16.6588 12.7161C16.6755 12.7309 16.7033 12.7337 16.7413 12.7247L16.7397 12.718C16.704 12.7265 16.6783 12.7241 16.6634 12.7109C16.6473 12.6968 16.6495 12.6742 16.6496 12.674L16.6502 12.6681L16.6447 12.6704C16.6217 12.6803 16.6036 12.6809 16.5911 12.6723C16.5687 12.6567 16.5704 12.616 16.5704 12.6155L16.5635 12.6152C16.5635 12.617 16.5616 12.6602 16.5872 12.678Z" fill="black"/>
<path d="M16.6313 12.6234C16.6214 12.6257 16.6189 12.634 16.6189 12.6404C16.6189 12.6419 16.619 12.6433 16.6192 12.6445C16.621 12.6623 16.6402 12.6741 16.6577 12.6791C16.6747 12.6841 16.6956 12.6844 16.7038 12.6738C16.7071 12.6696 16.7095 12.6619 16.7023 12.6496C16.6761 12.605 16.6336 12.6225 16.6313 12.6234ZM16.6596 12.6725C16.6443 12.6681 16.6275 12.6582 16.6261 12.6435C16.6258 12.6421 16.6241 12.6322 16.6328 12.6301L16.6335 12.6299C16.6351 12.6292 16.6727 12.6129 16.6964 12.6532C16.7006 12.6604 16.7013 12.6658 16.6984 12.6695C16.6933 12.6761 16.6766 12.6774 16.6596 12.6725ZM16.6306 12.6237C16.6307 12.6236 16.6313 12.6234 16.6313 12.6234L16.6306 12.6237ZM16.655 12.7133C16.6506 12.751 16.6533 12.7519 16.656 12.7527L16.6584 12.7535L16.6611 12.7503L16.6829 12.7215L16.6555 12.7085L16.655 12.7133ZM16.6613 12.7189L16.6724 12.7241C16.6694 12.7279 16.6639 12.7353 16.6597 12.7408C16.6598 12.7351 16.6605 12.7271 16.6613 12.7189ZM16.5981 12.683L16.5967 12.7186L16.6266 12.6824L16.5983 12.6793L16.5981 12.683ZM16.6049 12.6869L16.6132 12.6878C16.6102 12.6913 16.6083 12.6937 16.6044 12.6984C16.6047 12.6929 16.6048 12.6898 16.6049 12.6869Z" fill="black"/>
<path d="M16.5776 12.6704C16.5779 12.6709 16.5999 12.7139 16.6038 12.7297C16.6063 12.7396 16.619 12.751 16.6342 12.7566C16.6493 12.7623 16.6635 12.7614 16.6741 12.754L16.694 12.7375C16.7006 12.7311 16.7028 12.7293 16.7081 12.7302L16.7093 12.7234C16.7003 12.7219 16.6959 12.7261 16.6892 12.7325L16.6702 12.7484C16.6584 12.7565 16.6441 12.7531 16.6366 12.7502C16.6224 12.7449 16.6121 12.7347 16.6105 12.728C16.6063 12.7115 16.5846 12.6692 16.5838 12.6674L16.5776 12.6704ZM16.6063 12.5414C16.582 12.5527 16.5717 12.5821 16.5713 12.5834L16.5778 12.5857C16.5779 12.5854 16.5876 12.5576 16.6092 12.5477C16.6197 12.5429 16.6315 12.543 16.6444 12.5481L16.6469 12.5417C16.6323 12.5358 16.6186 12.5358 16.6063 12.5414ZM16.7696 12.6188C16.7716 12.6203 16.8175 12.6551 16.7911 12.6975L16.7969 12.7011C16.8267 12.6533 16.7742 12.6137 16.7738 12.6133L16.7696 12.6188ZM16.6316 12.6256C16.6316 12.6256 16.6245 12.6515 16.661 12.6607C16.661 12.6607 16.6267 12.6604 16.6245 12.6515C16.6222 12.6427 16.6247 12.623 16.6316 12.6256ZM16.7432 12.6566C16.7432 12.6589 16.7414 12.6608 16.7392 12.6608C16.7381 12.6607 16.7371 12.6603 16.7363 12.6595C16.7355 12.6588 16.7351 12.6577 16.7351 12.6566C16.7351 12.6544 16.737 12.6526 16.7392 12.6526C16.7414 12.6526 16.7432 12.6544 16.7432 12.6566ZM16.7473 12.6728C16.7473 12.6751 16.7455 12.677 16.7432 12.677C16.741 12.677 16.7392 12.6751 16.7392 12.6728C16.7392 12.6707 16.741 12.6688 16.7432 12.6688C16.7455 12.6688 16.7473 12.6707 16.7473 12.6728Z" fill="black"/>
<path d="M16.7201 12.6712C16.7225 12.6712 16.7244 12.6692 16.7244 12.6667C16.7244 12.6642 16.7225 12.6622 16.7201 12.6622C16.7177 12.6622 16.7158 12.6642 16.7158 12.6667C16.7158 12.6692 16.7177 12.6712 16.7201 12.6712Z" fill="black"/>
<path d="M16.7309 12.69C16.7309 12.6905 16.7309 12.6911 16.7307 12.6916C16.7305 12.6921 16.7302 12.6926 16.7298 12.693C16.7294 12.6934 16.729 12.6937 16.7285 12.6939C16.728 12.6942 16.7274 12.6943 16.7269 12.6943C16.7263 12.6943 16.7258 12.6942 16.7253 12.6939C16.7247 12.6937 16.7243 12.6934 16.7239 12.693C16.7235 12.6926 16.7232 12.6921 16.7231 12.6916C16.7229 12.6911 16.7228 12.6905 16.7228 12.69C16.7228 12.6877 16.7247 12.6859 16.7268 12.6859C16.7291 12.6859 16.7309 12.6877 16.7309 12.69ZM16.6244 12.5802C16.6244 12.5813 16.624 12.5823 16.6232 12.5831C16.6224 12.5838 16.6214 12.5843 16.6203 12.5843C16.6192 12.5843 16.6182 12.5838 16.6174 12.5831C16.6166 12.5823 16.6162 12.5813 16.6162 12.5802C16.6162 12.578 16.6181 12.5761 16.6203 12.5761C16.6226 12.5761 16.6244 12.578 16.6244 12.5802Z" fill="black"/>
<path d="M16.6244 12.6009C16.6268 12.6009 16.6287 12.5989 16.6287 12.5964C16.6287 12.5939 16.6268 12.5919 16.6244 12.5919C16.622 12.5919 16.6201 12.5939 16.6201 12.5964C16.6201 12.5989 16.622 12.6009 16.6244 12.6009Z" fill="black"/>
<path d="M16.601 12.5931C16.6033 12.5931 16.6052 12.5911 16.6052 12.5886C16.6052 12.5861 16.6033 12.5841 16.601 12.5841C16.5986 12.5841 16.5967 12.5861 16.5967 12.5886C16.5967 12.5911 16.5986 12.5931 16.601 12.5931Z" fill="black"/>
<path d="M16.6127 12.6123C16.6127 12.6134 16.6122 12.6144 16.6115 12.6151C16.6107 12.6159 16.6097 12.6163 16.6086 12.6163C16.6075 12.6163 16.6065 12.6159 16.6057 12.6151C16.6049 12.6144 16.6045 12.6133 16.6045 12.6122C16.6045 12.6112 16.6049 12.6101 16.6057 12.6094C16.6065 12.6086 16.6075 12.6082 16.6086 12.6082C16.6097 12.6082 16.6107 12.6086 16.6115 12.6094C16.6123 12.6101 16.6127 12.6112 16.6127 12.6123ZM16.6838 12.469C16.6838 12.469 16.7366 12.5015 16.6858 12.5624C16.6858 12.5624 16.7108 12.5439 16.7133 12.512C16.716 12.4802 16.6952 12.4548 16.6838 12.469ZM16.8863 12.5566C16.8693 12.5654 16.8449 12.5492 16.8326 12.5339C16.8204 12.5186 16.7951 12.5147 16.7794 12.5426C16.7636 12.5706 16.741 12.581 16.741 12.581C16.741 12.581 16.7631 12.568 16.7859 12.5435C16.8086 12.5191 16.8217 12.5387 16.844 12.5505C16.8663 12.5623 16.8697 12.5649 16.8854 12.5588L16.8863 12.5566Z" fill="black"/>
<path d="M16.8813 12.5602C16.8743 12.5654 16.8616 12.5698 16.8481 12.5588C16.8346 12.5479 16.8232 12.5331 16.8062 12.5418C16.7892 12.5506 16.7568 12.575 16.7568 12.575C16.7568 12.575 16.8093 12.5387 16.8193 12.5466C16.8293 12.5545 16.853 12.5737 16.8673 12.5681C16.8818 12.5623 16.8813 12.5602 16.8813 12.5602Z" fill="black"/>
<path d="M16.841 12.5838C16.8245 12.5711 16.8079 12.5986 16.7939 12.5952C16.7799 12.5916 16.7686 12.5685 16.7686 12.5685C16.7686 12.5685 16.7817 12.5929 16.8 12.5873C16.8184 12.5816 16.831 12.5702 16.8424 12.5789C16.8537 12.5877 16.841 12.5838 16.841 12.5838Z" fill="black"/>
<path d="M16.8153 12.5862C16.7825 12.5896 16.7793 12.559 16.7793 12.5587C16.7793 12.5587 16.7896 12.5854 16.8186 12.5806L16.8153 12.5862Z" fill="black"/>
<path d="M16.8147 12.5656C16.8169 12.5738 16.8164 12.5776 16.8076 12.5776C16.7988 12.5776 16.7928 12.5747 16.7928 12.5661C16.7928 12.5575 16.8134 12.5602 16.8147 12.5656ZM16.6971 12.5201C16.6971 12.5258 16.6924 12.5304 16.6866 12.5304C16.6808 12.5304 16.6797 12.5265 16.6797 12.5208C16.6797 12.5152 16.6808 12.5099 16.6866 12.5099C16.6924 12.5099 16.6971 12.5145 16.6971 12.5201Z" fill="black"/>
<path d="M16.6604 12.4835C16.6604 12.4835 16.7165 12.4841 16.6887 12.5543C16.6887 12.5543 16.7101 12.5194 16.6966 12.4942C16.6832 12.4691 16.6621 12.4754 16.6621 12.4754C16.6621 12.4754 16.6569 12.4802 16.6604 12.4835Z" fill="black"/>
<path d="M16.6592 12.5127C16.659 12.5268 16.6684 12.5413 16.687 12.5558L16.6913 12.5504C16.6745 12.5373 16.666 12.5246 16.6661 12.5129C16.6662 12.5011 16.6753 12.4941 16.6754 12.494L16.6712 12.4884C16.6708 12.4888 16.6594 12.4975 16.6592 12.5127Z" fill="black"/>
<path d="M16.671 12.5242C16.6734 12.5323 16.6796 12.5384 16.6896 12.5424L16.6922 12.536C16.6843 12.5328 16.6794 12.5282 16.6776 12.5223C16.6741 12.5104 16.6837 12.4964 16.6838 12.4963L16.6782 12.4923C16.6776 12.493 16.6665 12.5091 16.671 12.5242ZM16.7479 12.5632C16.7479 12.5632 16.7584 12.5859 16.7431 12.6103C16.7278 12.6348 16.7283 12.6335 16.7283 12.6335C16.7283 12.6335 16.7466 12.5999 16.7396 12.5859C16.7327 12.5719 16.7479 12.5632 16.7479 12.5632ZM16.9662 12.8C17.0238 12.8109 17.1538 12.9128 17.1552 12.9139L17.1627 12.9043C17.1572 12.9001 17.0289 12.7996 16.9684 12.7882L16.9662 12.8ZM17.0173 12.9439C17.0212 12.995 17.0768 13.0268 17.0792 13.0281L17.0851 13.0176C17.0845 13.0173 17.0328 12.9877 17.0293 12.943L17.0173 12.9439ZM16.8792 12.9545C16.8792 13.0119 16.9329 13.0813 16.9353 13.0842L16.9447 13.0768C16.9442 13.0761 16.8912 13.0078 16.8912 12.9545H16.8792ZM16.6969 12.961C16.7064 12.9799 16.7054 12.9895 16.703 12.9942C16.7001 12.9995 16.6943 13.0003 16.6941 13.0004L16.6955 13.0124C16.6999 13.0118 16.7088 13.0088 16.7135 13.0001C16.7192 12.9896 16.7173 12.9746 16.7077 12.9557L16.6969 12.961Z" fill="black"/>
<path d="M15.877 12.6784C15.877 12.6784 15.8804 12.7168 15.9101 12.7396C15.9101 12.7396 15.9066 12.6976 15.9154 12.6802C15.9154 12.6802 15.8997 12.6627 15.877 12.6784ZM15.9362 12.7029C15.9362 12.7029 15.9432 12.7378 15.9642 12.7535L15.9765 12.75C15.9765 12.75 15.9817 12.7063 15.9887 12.7011C15.9957 12.6959 15.959 12.7168 15.9362 12.7029Z" fill="white" stroke="black" stroke-width="0.01" stroke-miterlimit="3"/>
<path d="M15.9883 12.7008L16.011 12.7357L16.0372 12.7217L16.0319 12.6799C16.0319 12.6799 16.0162 12.6763 15.9883 12.7008Z" fill="white" stroke="black" stroke-width="0.01" stroke-miterlimit="3"/>
<path d="M16.0951 12.7072L16.0654 12.7316C16.0654 12.7316 16.0497 12.7194 16.0374 12.7211L16.0427 12.6827C16.0427 12.6827 16.0636 12.667 16.0951 12.7072ZM15.8837 13.0687C15.8837 13.0687 15.8785 13.0145 15.8855 13.011C15.8855 13.011 15.9064 13.018 15.9151 13.0092C15.9151 13.0092 15.9274 13.053 15.9239 13.0704C15.9204 13.0879 15.8995 13.0809 15.8837 13.0687ZM16.0183 13.0127C16.0183 13.0127 16.0165 12.9673 16.0252 12.962C16.0252 12.962 16.0689 12.9673 16.0794 12.9446L16.0951 12.9883C16.0951 12.9883 16.0462 12.983 16.0183 13.0127Z" fill="white" stroke="black" stroke-width="0.01" stroke-miterlimit="3"/>
<path d="M15.9716 13.0214C15.9716 13.0214 15.9803 12.9743 15.9891 12.9725C15.9891 12.9725 16.0118 12.9795 16.0188 12.9707L16.017 13.0284C16.017 13.0284 16.0188 13.0039 15.9716 13.0214ZM15.9209 13.0285C15.9209 13.0285 15.9314 12.9865 15.9384 12.9865C15.9454 12.9865 15.9629 12.997 15.9716 12.99V13.0215C15.9716 13.0215 15.9331 13.0128 15.9279 13.0651L15.9209 13.0285Z" fill="white" stroke="black" stroke-width="0.01" stroke-miterlimit="3"/>
<path d="M16.6022 13.9006C16.6022 13.9006 16.7209 14.0108 16.6899 14.1069C16.6899 14.1069 16.7662 13.943 16.6843 13.8949C16.6022 13.8468 16.5994 13.8837 16.6022 13.9006V13.9006Z" fill="#00A651" stroke="black" stroke-width="0.01" stroke-miterlimit="4.8"/>
<path d="M16.452 14.0061C16.452 14.0061 16.421 14.0486 16.4548 14.0797C16.4548 14.0797 16.4181 14.1333 16.4464 14.1786C16.4464 14.1786 16.4238 14.2267 16.4294 14.2776C16.4294 14.2776 16.4096 14.3567 16.452 14.3935C16.452 14.3935 16.4973 14.4161 16.5171 14.3963C16.5171 14.3963 16.5566 14.337 16.5312 14.2747C16.5312 14.2747 16.5595 14.2239 16.5284 14.1588C16.5284 14.1588 16.5369 14.1221 16.5114 14.0797C16.5114 14.0797 16.5284 14.0514 16.5142 14.0288C16.5142 14.0288 16.4577 13.9694 16.452 14.0061Z" fill="#964B36" stroke="black" stroke-width="0.01" stroke-miterlimit="4.8"/>
<path d="M16.4855 13.8686C16.4855 13.8686 16.3442 13.5973 16.2452 13.5859C16.1462 13.5746 16.1406 13.4785 16.1406 13.4785C16.1406 13.4785 16.1519 13.5237 16.2311 13.5237C16.3103 13.5237 16.4629 13.634 16.4799 13.7188C16.4968 13.8036 16.5138 13.7923 16.5138 13.7923L16.4855 13.8686Z" fill="#00A651" stroke="black" stroke-width="0.01" stroke-miterlimit="4.8"/>
<path d="M16.4857 13.848C16.4857 13.848 16.5366 13.506 16.76 13.5003C16.9832 13.4946 16.9098 13.5172 16.9635 13.4805C16.9635 13.4805 16.8137 13.5597 16.7204 13.5709C16.6271 13.5823 16.5507 13.7631 16.5536 13.7971C16.5564 13.831 16.5027 13.8961 16.4772 13.8735C16.4518 13.8509 16.4857 13.848 16.4857 13.848H16.4857Z" fill="#00A651" stroke="black" stroke-width="0.01" stroke-miterlimit="4.8"/>
<path d="M16.5371 13.9759C16.5371 13.9759 16.588 13.8402 16.6756 13.8855C16.6756 13.8855 16.6077 13.7554 16.4862 13.8685C16.4862 13.8685 16.5399 13.942 16.5371 13.9759ZM16.3674 13.84C16.3674 13.84 16.441 14.1426 16.3279 14.2358C16.3279 14.2358 16.3307 14.0804 16.2628 13.9871C16.195 13.8937 16.3307 13.792 16.3674 13.84Z" fill="#00A651" stroke="black" stroke-width="0.01" stroke-miterlimit="4.8"/>
<path d="M16.3755 13.8941C16.3755 13.8941 16.5084 14.0214 16.5169 14.0638C16.5254 14.1062 16.5565 13.9366 16.4943 13.8886C16.4321 13.8404 16.3643 13.832 16.3643 13.832L16.3755 13.8941Z" fill="#00A651" stroke="black" stroke-width="0.01" stroke-miterlimit="4.8"/>
<path d="M16.1309 14.2276C16.1309 14.2276 16.1429 14.281 16.1757 14.2913C16.1757 14.2913 16.1774 14.331 16.2067 14.3431C16.2067 14.3431 16.1911 14.3758 16.217 14.3965C16.217 14.3965 16.2118 14.462 16.236 14.4758C16.236 14.4758 16.2947 14.4723 16.3153 14.4551C16.3153 14.4551 16.3274 14.4121 16.2947 14.3689C16.2947 14.3689 16.2998 14.3275 16.267 14.3051C16.267 14.3051 16.2774 14.2499 16.236 14.2293C16.236 14.2293 16.2291 14.1844 16.2032 14.162C16.2032 14.162 16.1533 14.2327 16.1309 14.2276Z" fill="#964B36" stroke="black" stroke-width="0.01" stroke-miterlimit="4.8"/>
<path d="M16.1954 14.162C16.1954 14.162 16.0213 14.0983 15.9248 14.1896C15.9248 14.1896 16.073 14.2103 16.092 14.2396C16.111 14.2689 16.2023 14.1914 16.1954 14.162Z" fill="#00A651" stroke="black" stroke-width="0.01" stroke-miterlimit="4.8"/>
<path d="M16.1425 14.2706C16.1425 14.2706 16.1287 14.2586 16.1115 14.2465C16.0943 14.2344 15.9478 14.1948 15.927 14.3361C15.927 14.3361 15.8736 14.1965 15.9512 14.1775C16.0288 14.1585 16.0908 14.2034 16.1425 14.2706ZM16.0279 13.9817C16.0279 13.9817 16.0816 14.0976 16.1014 14.1033C16.1212 14.1089 16.1353 14.0892 16.1353 14.0892C16.1353 14.0892 16.0647 13.9846 16.0279 13.9817ZM15.9883 13.8037C15.9883 13.8037 15.943 13.6539 15.8894 13.6934C15.8357 13.733 15.8498 13.8404 15.8498 13.8404C15.8498 13.8404 15.7423 13.7302 15.8045 13.6425C15.8668 13.5549 15.9883 13.651 15.9883 13.8037Z" fill="#00A651" stroke="black" stroke-width="0.01" stroke-miterlimit="4.8"/>
<path d="M16.1104 14.1118C16.1104 14.1118 16.1104 14.1401 16.1302 14.1485C16.15 14.157 16.1867 14.1711 16.1867 14.1542C16.1867 14.1373 16.1584 14.0722 16.1471 14.0807C16.1357 14.0892 16.116 14.0891 16.1104 14.1118Z" fill="#964B36" stroke="black" stroke-width="0.01" stroke-miterlimit="4.8"/>
<path d="M16.0763 13.937C16.0763 13.937 16.0706 13.807 16.1554 13.7588C16.1554 13.7588 16.1724 13.7618 16.1809 13.7363C16.1809 13.7363 16.1129 13.9002 16.1328 13.9822L16.13 13.9935" fill="#00A651"/>
<path d="M16.0763 13.937C16.0763 13.937 16.0706 13.807 16.1554 13.7588C16.1554 13.7588 16.1724 13.7618 16.1809 13.7363C16.1809 13.7363 16.1129 13.9002 16.1328 13.9822L16.13 13.9935" stroke="black" stroke-width="0.01" stroke-miterlimit="4.8"/>
<path d="M16.0928 13.7786C16.0928 13.7786 16.2454 13.4619 16.432 13.5721C16.432 13.5721 16.237 13.6117 16.1663 13.7503L16.0956 13.8548L16.0928 13.7786L16.0928 13.7786Z" fill="#00A651" stroke="black" stroke-width="0.01" stroke-miterlimit="4.8"/>
<path d="M16.0111 13.8947C16.0111 13.8947 15.9659 13.6827 15.9376 13.6545C15.9093 13.6262 15.8613 13.5951 15.8047 13.6431C15.8047 13.6431 15.9037 13.5555 16.0083 13.629C16.1128 13.7025 16.0902 13.8184 16.0902 13.8184L16.079 13.9654L16.0083 13.9004" fill="#00A651"/>
<path d="M16.0111 13.8947C16.0111 13.8947 15.9659 13.6827 15.9376 13.6545C15.9093 13.6262 15.8613 13.5951 15.8047 13.6431C15.8047 13.6431 15.9037 13.5555 16.0083 13.629C16.1128 13.7025 16.0902 13.8184 16.0902 13.8184L16.079 13.9654L16.0083 13.9004" stroke="black" stroke-width="0.01" stroke-miterlimit="4.8"/>
<path d="M16.1745 14.1463C16.1745 14.1463 15.9879 13.793 15.8664 14.0446C15.8664 14.0446 15.8437 14.1096 15.8691 14.135C15.8691 14.135 15.8013 14.0842 15.8324 13.9598C15.8634 13.8354 16.0698 13.8919 16.1292 13.9937C16.1886 14.0955 16.2056 14.1464 16.1971 14.152C16.1886 14.1577 16.1745 14.1463 16.1745 14.1463H16.1745ZM16.7004 14.2482C16.7004 14.2482 16.8361 13.9683 16.9153 14.0955C16.9153 14.0955 16.9378 14.1577 16.9039 14.1832C16.9039 14.1832 16.8502 14.1181 16.8022 14.1973C16.7541 14.2764 16.7739 14.2708 16.7739 14.2708C16.7739 14.2708 16.723 14.2849 16.7004 14.2482V14.2482Z" fill="#00A651" stroke="black" stroke-width="0.01" stroke-miterlimit="4.8"/>
<path d="M16.9043 14.183C16.9043 14.183 16.9778 14.2225 16.9524 14.3017C16.9524 14.3017 17.0513 14.1123 16.9157 14.0953C16.9157 14.0953 16.9411 14.1547 16.9043 14.183ZM16.9128 13.9908C16.9128 13.9908 17.091 14.0417 17.0966 14.1181C17.0966 14.1181 17.1278 13.971 17.026 13.9258C17.026 13.9258 16.9044 13.9456 16.9128 13.9908Z" fill="#00A651" stroke="black" stroke-width="0.01" stroke-miterlimit="4.8"/>
<path d="M16.9922 13.7564C17.0685 13.6066 17.1647 13.8045 17.1647 13.8045C17.1647 13.8045 17.1986 13.649 17.1025 13.6207C17.0063 13.5925 16.9442 13.9515 16.9442 13.9515L16.8311 13.9769C16.8311 13.9769 16.8622 13.6632 17.0318 13.6349L17.0515 13.6377" fill="#00A651"/>
<path d="M16.9922 13.7564C17.0685 13.6066 17.1647 13.8045 17.1647 13.8045C17.1647 13.8045 17.1986 13.649 17.1025 13.6207C17.0063 13.5925 16.9442 13.9515 16.9442 13.9515L16.8311 13.9769C16.8311 13.9769 16.8622 13.6632 17.0318 13.6349L17.0515 13.6377" stroke="black" stroke-width="0.01" stroke-miterlimit="4.8"/>
<path d="M16.8565 13.846C16.8565 13.846 16.7491 13.6255 16.6756 13.6029C16.6021 13.5803 16.7152 13.5464 16.7604 13.5888C16.8056 13.6311 16.8904 13.6849 16.882 13.798L16.8565 13.846ZM16.7462 14.1486C16.7462 14.1486 16.7773 13.9988 16.8621 13.9535C16.9469 13.9082 17.0261 13.9253 17.0261 13.9253C17.0261 13.9253 16.9243 13.9478 16.9074 13.9988C16.8904 14.0496 16.8621 14.0524 16.8621 14.0524L16.7462 14.1486Z" fill="#00A651" stroke="black" stroke-width="0.01" stroke-miterlimit="4.8"/>
<path d="M16.7004 14.248C16.7004 14.248 16.6523 14.3385 16.6636 14.3526C16.6636 14.3526 16.6127 14.4261 16.6325 14.4629C16.6325 14.4629 16.6834 14.5025 16.706 14.4855C16.706 14.4855 16.7653 14.4035 16.7484 14.3583C16.7484 14.3583 16.788 14.3046 16.7739 14.2707C16.7739 14.2707 16.7145 14.2735 16.7004 14.248Z" fill="#964B36" stroke="black" stroke-width="0.01" stroke-miterlimit="4.8"/>
<path d="M16.4519 14.0869C16.4551 14.0885 16.4837 14.1024 16.5029 14.096L16.5166 14.0842L16.5058 14.0789C16.4988 14.0928 16.4677 14.0813 16.4573 14.0762L16.4519 14.0869ZM16.4473 14.1746L16.4449 14.1865C16.4474 14.1869 16.5047 14.1981 16.5321 14.1738L16.5241 14.1648C16.5012 14.1851 16.4479 14.1748 16.4473 14.1746ZM16.4327 14.2745L16.4256 14.2843C16.4263 14.2848 16.493 14.3323 16.5357 14.2805L16.5263 14.2728C16.4909 14.3158 16.4351 14.2763 16.4327 14.2745ZM16.1738 14.2889L16.1763 14.2954C16.1787 14.2944 16.2352 14.2717 16.2388 14.2304L16.2319 14.2298C16.2287 14.2669 16.1744 14.2887 16.1738 14.2889ZM16.2058 14.3405L16.2063 14.3474C16.2085 14.3473 16.2606 14.3434 16.2697 14.3069L16.263 14.3052C16.2551 14.3368 16.2063 14.3405 16.2058 14.3405ZM16.2166 14.3939L16.2162 14.4009C16.2187 14.401 16.2771 14.404 16.2969 14.3717L16.291 14.368C16.2733 14.3969 16.2171 14.394 16.2166 14.3939ZM16.6595 14.3573C16.6606 14.3584 16.6857 14.3833 16.7152 14.3822C16.7296 14.3817 16.7423 14.3751 16.7531 14.3627L16.744 14.3548C16.7355 14.3645 16.7256 14.3698 16.7148 14.3702C16.6907 14.3711 16.6682 14.3491 16.668 14.3488L16.6595 14.3573Z" fill="black"/>
<path d="M18.4154 14.5617C18.412 14.563 18.4088 14.565 18.4063 14.5677L18.4154 14.5617ZM18.6233 14.5096C18.6213 14.5045 18.62 14.5066 18.6173 14.5043C18.6135 14.5012 18.6113 14.4912 18.608 14.4875C18.606 14.4852 18.6037 14.4874 18.6016 14.4868C18.5967 14.4761 18.591 14.4649 18.5859 14.4546C18.5868 14.4531 18.5873 14.4515 18.5873 14.4498C18.5873 14.4493 18.5849 14.4411 18.5847 14.4407C18.5833 14.4384 18.581 14.4398 18.5796 14.4362C18.578 14.4327 18.5792 14.4257 18.5786 14.4215C18.5782 14.4181 18.5768 14.4161 18.5771 14.4112C18.5773 14.4069 18.5796 14.402 18.5793 14.3982C18.5792 14.3959 18.5764 14.3906 18.5756 14.3886C18.5723 14.3806 18.5695 14.3729 18.569 14.363C18.5686 14.354 18.5704 14.3484 18.5711 14.3406C18.5719 14.3312 18.567 14.3267 18.567 14.318C18.567 14.3114 18.5698 14.3039 18.5706 14.298C18.5717 14.2899 18.5718 14.2781 18.5711 14.2697C18.5705 14.2618 18.5683 14.257 18.5695 14.248C18.5698 14.2458 18.5709 14.244 18.5711 14.2409C18.5711 14.2388 18.5711 14.2366 18.5711 14.2345V14.2216C18.5711 14.2175 18.5715 14.2127 18.5711 14.2087C18.5708 14.2053 18.5688 14.2018 18.5688 14.1991C18.5688 14.1945 18.5717 14.1924 18.5711 14.1861C18.5707 14.1817 18.57 14.1806 18.569 14.1767C18.567 14.1693 18.5684 14.1618 18.5672 14.1539C18.5666 14.1501 18.5654 14.1489 18.565 14.1446C18.5645 14.1395 18.5661 14.1377 18.5666 14.1341C18.5671 14.1305 18.5677 14.1258 18.5672 14.1219C18.5666 14.1173 18.5644 14.1141 18.565 14.1091L18.5634 14.1658C18.5619 14.1163 18.56 14.0705 18.56 14.0705L18.4847 14.0352C18.4847 14.0352 18.4783 14.1734 18.4799 14.1926C18.4814 14.2119 18.4879 14.3437 18.4847 14.3598C18.4815 14.3759 18.4735 14.4562 18.4735 14.4562C18.4735 14.4562 18.4367 14.4819 18.4223 14.5108C18.4079 14.5398 18.4111 14.5494 18.4062 14.5494L18.442 14.5439L18.4154 14.5616C18.4181 14.5605 18.4211 14.5602 18.424 14.5606C18.427 14.5611 18.4297 14.5623 18.432 14.5642C18.4326 14.5647 18.4366 14.5681 18.4371 14.5681C18.4385 14.5681 18.4404 14.5645 18.4421 14.5639C18.4477 14.562 18.4523 14.5724 18.4576 14.5716C18.4604 14.5712 18.4643 14.5682 18.4666 14.5652C18.4685 14.5627 18.4692 14.5582 18.4712 14.5565C18.4731 14.5549 18.4775 14.5567 18.4795 14.5567C18.4847 14.5567 18.4901 14.5569 18.4953 14.5567C18.5023 14.5565 18.508 14.5467 18.5144 14.5411C18.5205 14.536 18.5249 14.5342 18.5313 14.5346C18.5384 14.5351 18.5447 14.5417 18.5519 14.5421C18.5573 14.5424 18.561 14.5431 18.5654 14.5374C18.5684 14.5334 18.5706 14.5275 18.5735 14.5234L18.5912 14.5206C18.5948 14.5221 18.5984 14.5237 18.6014 14.5236C18.6059 14.5234 18.6106 14.5229 18.6151 14.5236C18.6168 14.5238 18.6202 14.5278 18.6216 14.5268C18.6226 14.5261 18.6242 14.5206 18.6252 14.519C18.6248 14.5169 18.6241 14.5114 18.6233 14.5096V14.5096Z" fill="#964B36" stroke="black" stroke-width="0.01" stroke-miterlimit="4.8"/>
<path d="M18.4714 14.5591C18.4759 14.5591 18.4801 14.5581 18.4839 14.5614C18.4845 14.5626 18.4851 14.5638 18.4857 14.5649C18.4862 14.5653 18.4868 14.5655 18.4875 14.5656C18.4881 14.5657 18.4888 14.5656 18.4894 14.5654C18.492 14.5671 18.4925 14.5681 18.4953 14.5688C18.4979 14.5693 18.5008 14.5686 18.5034 14.5687C18.5067 14.5688 18.5083 14.5699 18.5114 14.5712C18.5167 14.5734 18.5203 14.5713 18.5249 14.568C18.5303 14.564 18.5323 14.567 18.5375 14.572C18.5413 14.5757 18.5405 14.5753 18.544 14.5728C18.5445 14.5716 18.5452 14.5705 18.5457 14.5695C18.5475 14.5688 18.5492 14.5683 18.551 14.568C18.5539 14.5666 18.5567 14.5668 18.5595 14.5657C18.5623 14.5646 18.5644 14.5614 18.5674 14.562C18.57 14.5625 18.573 14.5647 18.5755 14.5655C18.5779 14.5663 18.579 14.5668 18.5809 14.5682C18.5845 14.5608 18.5925 14.5586 18.5975 14.555C18.6028 14.5514 18.6077 14.5558 18.6135 14.5559C18.6166 14.5559 18.6178 14.5541 18.62 14.5534C18.6225 14.5525 18.6253 14.5538 18.6276 14.5528C18.6301 14.5518 18.6306 14.5494 18.6334 14.5491C18.6385 14.5485 18.6442 14.5568 18.6493 14.5584C18.6521 14.5593 18.6654 14.5623 18.6634 14.5526C18.6616 14.5433 18.6532 14.5497 18.6514 14.5432C18.6505 14.5395 18.6525 14.5342 18.6513 14.5301C18.6503 14.5263 18.6461 14.5219 18.6436 14.521C18.6405 14.52 18.6387 14.5233 18.636 14.5208C18.6338 14.5187 18.633 14.5111 18.6311 14.5081C18.6285 14.51 18.6269 14.5117 18.6235 14.511C18.6196 14.5101 18.62 14.5088 18.6171 14.5051C18.6109 14.4973 18.6073 14.5098 18.6015 14.5078C18.5971 14.5064 18.593 14.4954 18.5896 14.4909C18.5878 14.4885 18.5826 14.4807 18.5799 14.4824C18.5755 14.4853 18.5795 14.4938 18.5772 14.4975C18.5755 14.5002 18.5696 14.4975 18.5675 14.4979C18.5641 14.4986 18.5634 14.4995 18.561 14.5036C18.556 14.5118 18.5531 14.5183 18.5454 14.5174C18.5418 14.5169 18.539 14.5132 18.5355 14.5146C18.5317 14.516 18.5295 14.5201 18.5254 14.5206C18.5223 14.5208 18.5188 14.5209 18.5159 14.5198C18.513 14.5185 18.5097 14.513 18.507 14.5115C18.5065 14.5111 18.5059 14.5108 18.5053 14.5107C18.5047 14.5105 18.504 14.5106 18.5034 14.5108C18.5031 14.5107 18.4991 14.5083 18.499 14.5083C18.4944 14.507 18.4948 14.5071 18.4929 14.5133C18.4918 14.5171 18.4914 14.521 18.4899 14.5246C18.4886 14.5276 18.4856 14.5314 18.4839 14.5334C18.4807 14.5369 18.4791 14.5359 18.4749 14.5372C18.4715 14.5383 18.467 14.5436 18.4652 14.5368C18.4625 14.5266 18.4727 14.5113 18.4613 14.514C18.4583 14.5146 18.4566 14.5152 18.4547 14.5196C18.4527 14.5247 18.4543 14.5279 18.4534 14.5335C18.4522 14.5404 18.4389 14.5522 18.4416 14.5585C18.4433 14.5629 18.4493 14.5561 18.4509 14.5572C18.4536 14.5591 18.4528 14.5635 18.4548 14.5665C18.4588 14.5727 18.4707 14.557 18.4714 14.5655M18.4231 14.5044C18.4231 14.5035 18.4229 14.5026 18.4228 14.5017C18.4197 14.5011 18.4161 14.4978 18.4131 14.4977C18.4104 14.4975 18.405 14.5043 18.4031 14.5075C18.3973 14.5171 18.3989 14.5303 18.3891 14.5301C18.3867 14.53 18.3811 14.5284 18.379 14.5299C18.3753 14.5325 18.3776 14.5402 18.3776 14.5455C18.3776 14.5504 18.3799 14.5455 18.3772 14.5519C18.3764 14.5536 18.374 14.5542 18.3734 14.5566C18.3714 14.565 18.3784 14.5623 18.3815 14.5622C18.3894 14.5622 18.3973 14.5622 18.4051 14.5622C18.4099 14.5623 18.4127 14.5606 18.4171 14.5589C18.4201 14.5579 18.4263 14.558 18.4287 14.5554C18.4296 14.5544 18.4325 14.5478 18.4329 14.5462C18.4335 14.543 18.4323 14.539 18.433 14.5363C18.4343 14.5316 18.4386 14.5334 18.4393 14.527C18.4414 14.5113 18.4246 14.523 18.4272 14.5076" fill="#964B36"/>
<path d="M18.4714 14.5591C18.4759 14.5591 18.4801 14.5581 18.4839 14.5614C18.4845 14.5626 18.4851 14.5638 18.4857 14.5649C18.4862 14.5653 18.4868 14.5655 18.4875 14.5656C18.4881 14.5657 18.4888 14.5656 18.4894 14.5654C18.492 14.5671 18.4925 14.5681 18.4953 14.5688C18.4979 14.5693 18.5008 14.5686 18.5034 14.5687C18.5067 14.5688 18.5083 14.5699 18.5114 14.5712C18.5167 14.5734 18.5203 14.5713 18.5249 14.568C18.5303 14.564 18.5323 14.567 18.5375 14.572C18.5413 14.5757 18.5405 14.5753 18.544 14.5728C18.5445 14.5716 18.5452 14.5705 18.5457 14.5695C18.5475 14.5688 18.5492 14.5683 18.551 14.568C18.5539 14.5666 18.5567 14.5668 18.5595 14.5657C18.5623 14.5646 18.5644 14.5614 18.5674 14.562C18.57 14.5625 18.573 14.5647 18.5755 14.5655C18.5779 14.5663 18.579 14.5668 18.5809 14.5682C18.5845 14.5608 18.5925 14.5586 18.5975 14.555C18.6028 14.5514 18.6077 14.5558 18.6135 14.5559C18.6166 14.5559 18.6178 14.5541 18.62 14.5534C18.6225 14.5525 18.6253 14.5538 18.6276 14.5528C18.6301 14.5518 18.6306 14.5494 18.6334 14.5491C18.6385 14.5485 18.6442 14.5568 18.6493 14.5584C18.6521 14.5593 18.6654 14.5623 18.6634 14.5526C18.6616 14.5433 18.6532 14.5497 18.6514 14.5432C18.6505 14.5395 18.6525 14.5342 18.6513 14.5301C18.6503 14.5263 18.6461 14.5219 18.6436 14.521C18.6405 14.52 18.6387 14.5233 18.636 14.5208C18.6338 14.5187 18.633 14.5111 18.6311 14.5081C18.6285 14.51 18.6269 14.5117 18.6235 14.511C18.6196 14.5101 18.62 14.5088 18.6171 14.5051C18.6109 14.4973 18.6073 14.5098 18.6015 14.5078C18.5971 14.5064 18.593 14.4954 18.5896 14.4909C18.5878 14.4885 18.5826 14.4807 18.5799 14.4824C18.5755 14.4853 18.5795 14.4938 18.5772 14.4975C18.5755 14.5002 18.5696 14.4975 18.5675 14.4979C18.5641 14.4986 18.5634 14.4995 18.561 14.5036C18.556 14.5118 18.5531 14.5183 18.5454 14.5174C18.5418 14.5169 18.539 14.5132 18.5355 14.5146C18.5317 14.516 18.5295 14.5201 18.5254 14.5206C18.5223 14.5208 18.5188 14.5209 18.5159 14.5198C18.513 14.5185 18.5097 14.513 18.507 14.5115C18.5065 14.5111 18.5059 14.5108 18.5053 14.5107C18.5047 14.5105 18.504 14.5106 18.5034 14.5108C18.5031 14.5107 18.4991 14.5083 18.499 14.5083C18.4944 14.507 18.4948 14.5071 18.4929 14.5133C18.4918 14.5171 18.4914 14.521 18.4899 14.5246C18.4886 14.5276 18.4856 14.5314 18.4839 14.5334C18.4807 14.5369 18.4791 14.5359 18.4749 14.5372C18.4715 14.5383 18.467 14.5436 18.4652 14.5368C18.4625 14.5266 18.4727 14.5113 18.4613 14.514C18.4583 14.5146 18.4566 14.5152 18.4547 14.5196C18.4527 14.5247 18.4543 14.5279 18.4534 14.5335C18.4522 14.5404 18.4389 14.5522 18.4416 14.5585C18.4433 14.5629 18.4493 14.5561 18.4509 14.5572C18.4536 14.5591 18.4528 14.5635 18.4548 14.5665C18.4588 14.5727 18.4707 14.557 18.4714 14.5655M18.4231 14.5044C18.4231 14.5035 18.4229 14.5026 18.4228 14.5017C18.4197 14.5011 18.4161 14.4978 18.4131 14.4977C18.4104 14.4975 18.405 14.5043 18.4031 14.5075C18.3973 14.5171 18.3989 14.5303 18.3891 14.5301C18.3867 14.53 18.3811 14.5284 18.379 14.5299C18.3753 14.5325 18.3776 14.5402 18.3776 14.5455C18.3776 14.5504 18.3799 14.5455 18.3772 14.5519C18.3764 14.5536 18.374 14.5542 18.3734 14.5566C18.3714 14.565 18.3784 14.5623 18.3815 14.5622C18.3894 14.5622 18.3973 14.5622 18.4051 14.5622C18.4099 14.5623 18.4127 14.5606 18.4171 14.5589C18.4201 14.5579 18.4263 14.558 18.4287 14.5554C18.4296 14.5544 18.4325 14.5478 18.4329 14.5462C18.4335 14.543 18.4323 14.539 18.433 14.5363C18.4343 14.5316 18.4386 14.5334 18.4393 14.527C18.4414 14.5113 18.4246 14.523 18.4272 14.5076" stroke="black" stroke-width="0.01" stroke-miterlimit="4.8"/>
<path d="M18.6132 14.0683C18.6132 14.0887 18.5993 14.105 18.582 14.105C18.565 14.105 18.5509 14.0887 18.5509 14.0683C18.5509 14.048 18.565 14.0315 18.582 14.0315C18.5993 14.0316 18.6132 14.048 18.6132 14.0683ZM18.5115 14.023C18.5115 14.0433 18.4976 14.0597 18.4804 14.0597C18.4632 14.0597 18.4492 14.0433 18.4492 14.023C18.4492 14.0027 18.4632 13.9863 18.4804 13.9863C18.4976 13.9863 18.5115 14.0027 18.5115 14.023Z" fill="black" stroke="black" stroke-width="0.01" stroke-miterlimit="4.8"/>
<path d="M18.5651 14.0367C18.5651 14.057 18.5512 14.0734 18.534 14.0734C18.5168 14.0734 18.5029 14.057 18.5029 14.0367C18.5029 14.0163 18.5168 13.9999 18.534 13.9999C18.5512 13.9999 18.5651 14.0164 18.5651 14.0367Z" fill="black" stroke="black" stroke-width="0.01" stroke-miterlimit="4.8"/>
<path d="M18.5134 14.0699C18.5134 14.0902 18.4994 14.1067 18.4823 14.1067C18.4651 14.1067 18.4512 14.0902 18.4512 14.0699C18.4512 14.0496 18.4651 14.0331 18.4823 14.0331C18.4994 14.0331 18.5134 14.0496 18.5134 14.0699Z" fill="black" stroke="black" stroke-width="0.01" stroke-miterlimit="4.8"/>
<path d="M18.5613 14.0992C18.5613 14.1194 18.5473 14.136 18.5302 14.136C18.513 14.136 18.499 14.1194 18.499 14.0992C18.499 14.0789 18.513 14.0624 18.5302 14.0624C18.5472 14.0625 18.5613 14.0789 18.5613 14.0992Z" fill="black" stroke="black" stroke-width="0.01" stroke-miterlimit="4.8"/>
<path d="M18.5759 13.6978C18.5759 13.6978 18.8897 13.2597 19.2262 13.7148C19.2262 13.7148 19.229 13.7601 19.1979 13.8081L19.1894 13.7714L19.1696 13.777L19.164 13.7544L19.1271 13.7516L19.1385 13.7035L19.0989 13.7346L19.1046 13.7007L19.0593 13.746L19.065 13.6498L19.0169 13.7318L19.0226 13.6753L19.0056 13.7007L18.9954 13.6678L18.9802 13.7007L18.9575 13.6838V13.7064L18.918 13.6725L18.9039 13.7177L18.8841 13.6697L18.8784 13.7036L18.8586 13.664L18.8558 13.7064L18.7908 13.6781L18.8049 13.7177L18.7739 13.6951L18.7795 13.7177L18.7371 13.7092L18.7399 13.7347L18.6947 13.7262L18.7032 13.7488L18.641 13.7403L18.6635 13.7658L18.6572 13.7761C18.6572 13.7761 18.9971 13.664 19.0198 14.0881L18.9575 14.1191L18.9745 14.0853L18.9575 14.0739L18.9067 14.0344L18.9208 13.9806L18.9039 13.9863L18.901 13.9552L18.8926 13.9609L18.8727 13.9298L18.8671 13.9411L18.853 13.9043L18.8388 13.9298L18.8303 13.8676L18.8078 13.9072L18.8049 13.8846L18.7964 13.8987L18.7681 13.8648L18.7597 13.8874L18.7483 13.8705L18.7399 13.8902L18.7088 13.8619V13.8846L18.689 13.8676L18.6805 13.8789L18.6325 13.8535L18.6296 13.876L18.6042 13.8535L18.5957 13.876C18.5957 13.876 18.9039 14.0514 18.8077 14.3369L18.7907 14.3736L18.7851 14.2776L18.7569 14.3284L18.7765 14.2182L18.7569 14.2379L18.7539 14.1956L18.7286 14.2379L18.72 14.1899L18.7088 14.204L18.6917 14.1305L18.6776 14.1616L18.655 14.0797L18.6381 14.1136L18.6267 14.0429L18.6154 14.0853L18.5815 14.0231L18.5759 14.0485L18.5561 13.9976L18.5447 14.0146C18.5447 14.0146 18.4882 14.0118 18.4713 13.9976C18.4543 13.9836 18.4062 14.0825 18.4062 14.0825L18.4119 14.0231L18.3921 14.0626V14.0231L18.3554 14.1418L18.3469 14.057L18.3271 14.1305L18.3186 14.1079L18.3129 14.1391L18.3016 14.1277L18.2917 14.1611L18.2733 14.1475V14.1927L18.2564 14.1701L18.2422 14.238L18.2338 14.2098V14.2408L18.2196 14.2239L18.2055 14.2918L18.1857 14.2635L18.1829 14.3115L18.1913 14.3483L18.1687 14.337L18.1772 14.3963C18.1772 14.3963 18.0896 14.2324 18.1942 14.074C18.2988 13.9158 18.4401 13.8733 18.4401 13.8733L18.4259 13.8592L18.4231 13.8451L18.3383 13.8875L18.3412 13.862L18.3186 13.8818L18.3129 13.8535L18.2987 13.879L18.296 13.8676L18.2762 13.8988L18.2648 13.8535L18.2507 13.9073L18.2374 13.8697L18.2083 13.9496V13.8903L18.1857 13.9525L18.1772 13.8846L18.1603 13.9637V13.8931L18.1348 13.9637L18.1178 13.8959L18.1065 13.9609L18.0896 13.9101L18.0726 13.9864L18.0472 13.9185L18.033 14.0203L18.0161 13.9807L18.0132 14.0542L17.9935 14.009L18.0132 14.1051L17.9878 14.0683L17.9963 14.1277L17.9596 14.0626L17.9624 14.1391L17.9426 14.1136L17.9341 14.1418C17.9341 14.1418 17.9257 13.8478 18.1263 13.7913C18.3271 13.7347 18.4571 13.8082 18.4571 13.8082L18.3808 13.7461L18.3893 13.7263H18.361L18.3723 13.7036L18.313 13.7065L18.3299 13.6839L18.2847 13.6895V13.6754L18.2564 13.6979L18.2677 13.6725L18.2281 13.6979L18.2257 13.6603L18.2055 13.6924L18.1943 13.6584L18.1038 13.7488L18.1292 13.6556L18.1122 13.6754L18.1094 13.6556L18.084 13.6952L18.0783 13.6669L18.067 13.7008L18.0585 13.6612L18.0388 13.7008L18.0189 13.6641L18.0105 13.7122L17.9963 13.6867L17.9794 13.7234L17.9568 13.7008L17.9539 13.7234L17.9087 13.7036L17.92 13.7376L17.8861 13.7093L17.8775 13.7545L17.8578 13.7319L17.8437 13.7885L17.8296 13.7347L17.8154 13.7772C17.8154 13.7772 17.9922 13.3229 18.4395 13.6193C18.4395 13.6193 18.4882 13.6669 18.4995 13.7008C18.5109 13.7348 18.5024 13.7065 18.5024 13.7065L18.4939 13.3927L18.5108 13.5284L18.5221 13.4803L18.5193 13.551L18.5645 13.452C18.5645 13.452 18.5109 13.616 18.5306 13.6754C18.5306 13.6754 18.5504 13.486 18.6183 13.4634L18.5561 13.599L18.5759 13.5962L18.5617 13.6245H18.5787L18.5582 13.6694L18.5476 13.6924L18.5589 13.715L18.5759 13.6978V13.6978Z" fill="#00A651" stroke="black" stroke-width="0.01" stroke-miterlimit="4.8"/>
<path d="M18.5292 13.8817L18.5381 13.8897C18.5393 13.8884 18.5672 13.8587 18.6142 13.8983L18.622 13.8891C18.5658 13.8416 18.5294 13.8812 18.5292 13.8817ZM18.5155 13.7278L18.5137 13.7386C18.5137 13.7386 18.5298 13.7318 18.5355 13.7293C18.532 13.7356 18.5205 13.7556 18.5205 13.7556L18.553 13.7447C18.5396 13.7623 18.5261 13.7799 18.5127 13.7975L18.5223 13.8049L18.5864 13.7209L18.5466 13.7342C18.5507 13.727 18.5637 13.7041 18.5637 13.7041L18.5292 13.7189L18.5363 13.6758L18.5244 13.6738L18.5155 13.7278Z" fill="black"/>
<path d="M18.4561 13.7311C18.4561 13.7311 18.4641 13.7486 18.47 13.7617C18.4674 13.7606 18.4479 13.7528 18.4479 13.7528L18.5131 13.8682C18.5131 13.8682 18.521 13.8581 18.5215 13.8575C18.5149 13.8744 18.5083 13.8913 18.5083 13.8913L18.5196 13.8957L18.5477 13.8234L18.5373 13.8175L18.5147 13.8465C18.5086 13.8357 18.486 13.7957 18.4753 13.7768C18.4767 13.7773 18.4934 13.7841 18.4934 13.7841C18.4934 13.7841 18.4811 13.7569 18.4754 13.7443L18.4998 13.7596V13.7165H18.4878V13.7378L18.4478 13.7129L18.4561 13.7311ZM18.415 13.876L18.4198 13.887C18.4375 13.8795 18.4521 13.8782 18.4631 13.8835C18.4761 13.8897 18.48 13.903 18.48 13.9031L18.4916 13.9C18.4915 13.8992 18.4863 13.8813 18.4685 13.8727C18.4542 13.8658 18.4362 13.8669 18.415 13.876ZM18.4657 13.9982L18.4558 13.935L18.4677 13.9331L18.4776 13.9963L18.4657 13.9982ZM18.5525 13.9878L18.5364 13.9395L18.5479 13.9357L18.564 13.984L18.5525 13.9878ZM18.5844 14.0235L18.5723 13.9753L18.584 13.9723L18.5961 14.0206L18.5844 14.0235Z" fill="black"/>
<path d="M16.1708 15.4739C16.1708 15.4739 16.1178 15.4499 16.0937 15.4675C16.0695 15.4852 16.0728 15.5109 16.0519 15.5093C16.0519 15.5093 16.1322 15.5269 16.1499 15.506C16.1676 15.4852 16.1708 15.4787 16.1708 15.4787M16.1806 15.4961C16.1806 15.4961 16.1457 15.5428 16.1577 15.5701C16.1698 15.5974 16.1956 15.5998 16.1895 15.6198C16.1895 15.6198 16.224 15.5452 16.2074 15.5234C16.1908 15.5018 16.1853 15.4973 16.1853 15.4973M16.1218 15.367C16.1218 15.367 16.0661 15.3842 16.0599 15.4134C16.0535 15.4426 16.0731 15.4597 16.0564 15.4724C16.0564 15.4724 16.1281 15.4322 16.1274 15.4048C16.1268 15.3775 16.125 15.3705 16.125 15.3705M16.1545 15.3862C16.1545 15.3862 16.1809 15.3342 16.1642 15.3094C16.1476 15.2845 16.1218 15.2866 16.1243 15.2659C16.1243 15.2659 16.1031 15.3453 16.1232 15.3639C16.1434 15.3824 16.1497 15.3859 16.1497 15.3859M16.0999 15.3673C16.0999 15.3673 16.1011 15.3092 16.0754 15.294C16.0497 15.2787 16.0272 15.2918 16.0205 15.272C16.0205 15.272 16.0359 15.3528 16.0621 15.3609C16.0883 15.3688 16.0955 15.3692 16.0955 15.3692M16.195 15.4642C16.195 15.4642 16.256 15.4432 16.2608 15.5092C16.2656 15.575 16.2576 15.5526 16.2576 15.5526C16.2576 15.5526 16.2255 15.4819 16.1902 15.4706L16.195 15.4642Z" fill="#00A651"/>
<path d="M16.1708 15.4739C16.1708 15.4739 16.1178 15.4499 16.0937 15.4675C16.0695 15.4852 16.0728 15.5109 16.0519 15.5093C16.0519 15.5093 16.1322 15.5269 16.1499 15.506C16.1676 15.4852 16.1708 15.4787 16.1708 15.4787M16.1806 15.4961C16.1806 15.4961 16.1457 15.5428 16.1577 15.5701C16.1698 15.5974 16.1956 15.5998 16.1895 15.6198C16.1895 15.6198 16.224 15.5452 16.2074 15.5234C16.1908 15.5018 16.1853 15.4973 16.1853 15.4973M16.1218 15.367C16.1218 15.367 16.0661 15.3842 16.0599 15.4134C16.0535 15.4426 16.0731 15.4597 16.0564 15.4724C16.0564 15.4724 16.1281 15.4322 16.1274 15.4048C16.1268 15.3775 16.125 15.3705 16.125 15.3705M16.1545 15.3862C16.1545 15.3862 16.1809 15.3342 16.1642 15.3094C16.1476 15.2845 16.1218 15.2866 16.1243 15.2659C16.1243 15.2659 16.1031 15.3453 16.1232 15.3639C16.1434 15.3824 16.1497 15.3859 16.1497 15.3859M16.0999 15.3673C16.0999 15.3673 16.1011 15.3092 16.0754 15.294C16.0497 15.2787 16.0272 15.2918 16.0205 15.272C16.0205 15.272 16.0359 15.3528 16.0621 15.3609C16.0883 15.3688 16.0955 15.3692 16.0955 15.3692M16.195 15.4642C16.195 15.4642 16.256 15.4432 16.2608 15.5092C16.2656 15.575 16.2576 15.5526 16.2576 15.5526C16.2576 15.5526 16.2255 15.4819 16.1902 15.4706L16.195 15.4642V15.4642Z" stroke="black" stroke-width="0.01" stroke-miterlimit="4.8"/>
<path d="M16.1797 15.4979C16.1797 15.4993 16.1861 15.5491 16.1861 15.5491L16.1947 15.5481L16.1882 15.4982C16.1884 15.4983 16.2091 15.3887 16.2091 15.3887L16.2006 15.3871L16.1797 15.4979Z" fill="black"/>
<path d="M16.1235 15.4823L16.1207 15.4904C16.1499 15.5006 16.1906 15.4686 16.1923 15.4672L16.1869 15.4605C16.1865 15.4608 16.1482 15.491 16.1235 15.4823ZM16.2 15.418L16.0635 15.3489L16.0689 15.3381L16.2055 15.4072L16.2 15.418Z" fill="black"/>
<path d="M16.1013 15.4016L16.0928 15.3931L16.1201 15.3658L16.1286 15.3743L16.1013 15.4016ZM16.1491 15.3883L16.1202 15.3256L16.1311 15.3206L16.16 15.3833L16.1491 15.3883ZM16.1895 15.465L16.1903 15.4771C16.2274 15.4746 16.2365 15.4986 16.2365 15.4989L16.2484 15.4964C16.247 15.4895 16.2321 15.4622 16.1895 15.465Z" fill="black"/>
<path d="M16.816 15.4932C16.8615 15.4677 16.8706 15.3783 16.8706 15.3783C16.8597 15.4112 16.776 15.4439 16.776 15.4439C16.8379 15.4056 16.9125 15.2327 16.9125 15.2327C16.8925 15.2946 16.7304 15.3456 16.6266 15.4038C16.5227 15.4621 16.5774 15.6297 16.5774 15.6297C16.5483 15.6096 16.4918 15.5205 16.4809 15.4421C16.4699 15.3638 16.439 15.3329 16.3679 15.3237C16.2969 15.3146 16.255 15.3947 16.255 15.3947L16.1494 15.4494L16.2568 15.453C16.2568 15.453 16.3334 15.4786 16.3334 15.5387C16.3334 15.5988 16.266 15.8392 16.377 15.974C16.4543 16.0677 16.7395 16.1215 16.7395 16.1215" fill="white"/>
<path d="M16.816 15.4932C16.8615 15.4677 16.8706 15.3783 16.8706 15.3783C16.8597 15.4112 16.776 15.4439 16.776 15.4439C16.8379 15.4056 16.9125 15.2327 16.9125 15.2327C16.8925 15.2946 16.7304 15.3456 16.6266 15.4038C16.5227 15.4621 16.5774 15.6297 16.5774 15.6297C16.5483 15.6096 16.4918 15.5205 16.4809 15.4421C16.4699 15.3638 16.439 15.3329 16.3679 15.3237C16.2969 15.3146 16.255 15.3947 16.255 15.3947L16.1494 15.4494L16.2568 15.453C16.2568 15.453 16.3334 15.4786 16.3334 15.5387C16.3334 15.5988 16.266 15.8392 16.377 15.974C16.4543 16.0677 16.7395 16.1215 16.7395 16.1215" stroke="black" stroke-width="0.01" stroke-miterlimit="4.8"/>
<path d="M16.6064 15.6784C16.6064 15.6784 16.6283 15.571 16.6993 15.5746C16.7704 15.5782 16.7904 15.4945 16.8323 15.4817C16.8742 15.469 17.0909 15.4108 17.1146 15.3069C17.1146 15.3069 17.0946 15.4781 16.8961 15.5637C16.8961 15.5637 17.0563 15.5109 17.0745 15.4763C17.0745 15.4763 17.0035 15.6293 16.8305 15.6529C16.8305 15.6529 16.9925 15.6402 17.0162 15.5965C17.0162 15.5965 16.9434 15.693 16.8232 15.7058C16.8232 15.7058 16.9343 15.7513 16.9634 15.7131C16.9634 15.7131 16.9033 15.7841 16.8286 15.7895L16.8487 15.795C16.8487 15.795 16.7777 15.8788 16.6993 15.8223C16.6211 15.7658 16.6192 15.8369 16.6192 15.8369" fill="white"/>
<path d="M16.6064 15.6784C16.6064 15.6784 16.6283 15.571 16.6993 15.5746C16.7704 15.5782 16.7904 15.4945 16.8323 15.4817C16.8742 15.469 17.0909 15.4108 17.1146 15.3069C17.1146 15.3069 17.0946 15.4781 16.8961 15.5637C16.8961 15.5637 17.0563 15.5109 17.0745 15.4763C17.0745 15.4763 17.0035 15.6293 16.8305 15.6529C16.8305 15.6529 16.9925 15.6402 17.0162 15.5965C17.0162 15.5965 16.9434 15.693 16.8232 15.7058C16.8232 15.7058 16.9343 15.7513 16.9634 15.7131C16.9634 15.7131 16.9033 15.7841 16.8286 15.7895L16.8487 15.795C16.8487 15.795 16.7777 15.8788 16.6993 15.8223C16.6211 15.7658 16.6192 15.8369 16.6192 15.8369" stroke="black" stroke-width="0.01" stroke-miterlimit="4.8"/>
<path d="M16.7682 15.8401C16.7682 15.8401 16.8597 15.9931 16.8688 16.0751C16.8688 16.0751 17.0437 16.2681 17.1093 16.279C17.1093 16.279 17.0783 16.2917 17.0218 16.2444C17.0218 16.2444 17.0691 16.2936 17.0783 16.2954C17.0873 16.2973 17.04 16.2918 17.0327 16.279C17.0327 16.279 17.0528 16.3082 17.0655 16.3118C17.0783 16.3155 17.0528 16.3082 17.0528 16.3082C17.0528 16.3082 17.0291 16.3045 17.0181 16.2954C17.0072 16.2864 17.0145 16.3191 17.0145 16.3191C17.0145 16.3191 16.9872 16.3118 16.9781 16.3027C16.969 16.2936 16.9817 16.3228 16.9817 16.3228L16.9581 16.3173L16.9417 16.3282C16.9417 16.3282 16.9399 16.3391 16.9289 16.33C16.918 16.321 16.8979 16.33 16.8979 16.33C16.8979 16.33 16.8833 16.3428 16.8761 16.3336C16.8689 16.3246 16.8412 16.3687 16.8412 16.3687L16.7266 16.0919" fill="white"/>
<path d="M16.7682 15.8401C16.7682 15.8401 16.8597 15.9931 16.8688 16.0751C16.8688 16.0751 17.0437 16.2681 17.1093 16.279C17.1093 16.279 17.0783 16.2917 17.0218 16.2444C17.0218 16.2444 17.0691 16.2936 17.0783 16.2954C17.0873 16.2973 17.04 16.2918 17.0327 16.279C17.0327 16.279 17.0528 16.3082 17.0655 16.3118C17.0783 16.3155 17.0528 16.3082 17.0528 16.3082C17.0528 16.3082 17.0291 16.3045 17.0181 16.2954C17.0072 16.2864 17.0145 16.3191 17.0145 16.3191C17.0145 16.3191 16.9872 16.3118 16.9781 16.3027C16.969 16.2936 16.9817 16.3228 16.9817 16.3228L16.9581 16.3173L16.9417 16.3282C16.9417 16.3282 16.9399 16.3391 16.9289 16.33C16.918 16.321 16.8979 16.33 16.8979 16.33C16.8979 16.33 16.8833 16.3428 16.8761 16.3336C16.8689 16.3246 16.8412 16.3687 16.8412 16.3687L16.7266 16.0919" stroke="black" stroke-width="0.01" stroke-miterlimit="4.8"/>
<path d="M16.8774 16.343L16.7324 16.0671L16.7476 16.0591L16.8926 16.335L16.8774 16.343ZM17.004 16.3244L16.756 16.0468L16.7689 16.0353L17.0169 16.3129L17.004 16.3244ZM17.0605 16.2999L16.7776 16.0362L16.7893 16.0236L17.0723 16.2873L17.0605 16.2999Z" fill="black"/>
<path d="M16.3511 15.4123C16.3511 15.4123 16.3326 15.3793 16.3165 15.3917C16.3005 15.4041 16.2913 15.4063 16.2885 15.4055C16.2885 15.4055 16.3046 15.4064 16.3138 15.3977C16.323 15.3889 16.3386 15.3944 16.3511 15.4123ZM16.2512 15.3972C16.2512 15.3972 16.2613 15.4182 16.2614 15.4185C16.2604 15.4186 16.25 15.4524 16.25 15.4524L16.2583 15.4549L16.2695 15.4181C16.2693 15.4149 16.259 15.3935 16.259 15.3935L16.2512 15.3972Z" fill="black"/>
<path d="M16.3473 15.4065C16.3473 15.4065 16.3335 15.4226 16.3147 15.418L16.2959 15.4134C16.2959 15.4134 16.3119 15.4143 16.3225 15.4148C16.333 15.4152 16.3468 15.4097 16.3473 15.4065Z" fill="black"/>
<path d="M16.342 15.4105C16.342 15.4105 16.325 15.3926 16.3135 15.3977C16.3135 15.3977 16.3337 15.3912 16.3452 15.4086L16.342 15.4105Z" fill="black"/>
<path d="M16.3396 15.4078C16.3396 15.4078 16.3203 15.4211 16.2991 15.4064L16.2979 15.4054L16.3006 15.4045C16.3006 15.4046 16.3273 15.4156 16.3396 15.4078Z" fill="black"/>
<path d="M16.3231 15.4102C16.3263 15.4102 16.3289 15.4076 16.3289 15.4044C16.3289 15.4013 16.3263 15.3987 16.3231 15.3987C16.32 15.3987 16.3174 15.4013 16.3174 15.4044C16.3174 15.4076 16.32 15.4102 16.3231 15.4102Z" fill="black"/>
<path d="M16.3385 15.9124C16.3385 15.9124 16.3235 15.9399 16.3314 15.9564C16.3393 15.973 16.3747 15.9816 16.3794 16.0036C16.3842 16.0258 16.396 16.0257 16.4126 16.0226C16.4291 16.0194 16.4323 16.0187 16.4323 16.0187C16.4323 16.0187 16.3629 15.9816 16.3448 15.9218L16.3385 15.9124Z" fill="black"/>
<path d="M18.5813 15.3527C18.5813 15.3527 18.7076 15.1862 18.8196 15.23C18.9315 15.2737 19.0043 15.2948 19.0043 15.2948C19.0043 15.2948 19.0064 15.4069 18.9469 15.4069C18.8875 15.4069 18.8305 15.2949 18.7764 15.3282C18.7222 15.3615 18.6776 15.407 18.6741 15.4227C18.6706 15.4384 18.5307 15.4419 18.5813 15.3527H18.5813Z" fill="#964B36" stroke="black" stroke-width="0.01" stroke-miterlimit="4.8"/>
<path d="M18.1014 16.1547C18.1014 16.1547 18.0665 16.1913 18.0822 16.2001C18.098 16.2088 18.1294 16.1983 18.1294 16.1861C18.1294 16.1738 18.1085 16.1512 18.1014 16.1547Z" fill="#964B36" stroke="black" stroke-width="0.01" stroke-miterlimit="4.8"/>
<path d="M18.0738 16.1913C18.0738 16.1913 18.0091 16.1545 17.9584 16.2419C17.9076 16.3294 17.8657 16.4711 17.8359 16.4903C17.8062 16.5096 18.1246 16.3504 18.1281 16.284C18.1281 16.284 18.149 16.1982 18.1158 16.1999C18.0826 16.2018 18.0808 16.2053 18.0738 16.1913Z" fill="#964B36" stroke="black" stroke-width="0.01" stroke-miterlimit="4.8"/>
<path d="M18.083 16.201C18.083 16.201 18.0165 16.2167 18.0026 16.3111C17.9886 16.4056 17.8958 16.4545 17.8906 16.458M19.0046 15.2949C19.0046 15.2949 18.9035 15.33 18.921 15.4L19.0046 15.2949Z" fill="#964B36"/>
<path d="M18.083 16.201C18.083 16.201 18.0165 16.2167 18.0026 16.3111C17.9886 16.4056 17.8958 16.4545 17.8906 16.458M19.0046 15.2949C19.0046 15.2949 18.9035 15.33 18.921 15.4" stroke="black" stroke-width="0.01" stroke-miterlimit="4.8"/>
<path d="M18.2275 15.499C18.2275 15.499 18.231 15.2594 18.4268 15.2699C18.4639 15.2733 18.4462 15.3171 18.4462 15.3171C18.4462 15.3171 18.4886 15.2874 18.5079 15.3345C18.5079 15.3345 18.5697 15.3066 18.5767 15.3678C18.5767 15.3678 18.6437 15.3591 18.6349 15.4133C18.6349 15.4133 18.6807 15.4028 18.679 15.4413C18.679 15.4413 18.7319 15.4203 18.7266 15.4745C18.7266 15.4745 18.7848 15.436 18.776 15.506C18.776 15.506 18.836 15.4641 18.8571 15.534C18.8782 15.6039 18.7971 15.7526 18.7178 15.7911" fill="#FFF200"/>
<path d="M18.2275 15.499C18.2275 15.499 18.231 15.2594 18.4268 15.2699C18.4639 15.2733 18.4462 15.3171 18.4462 15.3171C18.4462 15.3171 18.4886 15.2874 18.5079 15.3345C18.5079 15.3345 18.5697 15.3066 18.5767 15.3678C18.5767 15.3678 18.6437 15.3591 18.6349 15.4133C18.6349 15.4133 18.6807 15.4028 18.679 15.4413C18.679 15.4413 18.7319 15.4203 18.7266 15.4745C18.7266 15.4745 18.7848 15.436 18.776 15.506C18.776 15.506 18.836 15.4641 18.8571 15.534C18.8782 15.6039 18.7971 15.7526 18.7178 15.7911" stroke="black" stroke-width="0.01" stroke-miterlimit="4.8"/>
<path d="M18.7718 15.5141C18.772 15.516 18.7982 15.7016 18.6929 15.7695L18.6966 15.7754C18.8057 15.705 18.7788 15.515 18.7786 15.5131L18.7718 15.5141ZM18.645 15.7174L18.6499 15.7223C18.7165 15.6574 18.7309 15.4827 18.7314 15.4753L18.7246 15.4747C18.7244 15.4765 18.7099 15.6543 18.645 15.7174ZM18.5828 15.6758L18.5896 15.6764C18.5982 15.5684 18.6826 15.445 18.6835 15.4437L18.6778 15.4399C18.6769 15.4411 18.5915 15.5661 18.5828 15.6758ZM18.5339 15.6443L18.5407 15.645C18.5527 15.5148 18.6387 15.4171 18.6396 15.4161L18.6345 15.4115C18.6336 15.4125 18.5461 15.5118 18.5339 15.6443ZM18.4656 15.6008L18.4725 15.6011C18.4793 15.4473 18.5802 15.3719 18.5812 15.3711L18.5771 15.3656C18.5761 15.3663 18.4726 15.4436 18.4656 15.6008ZM18.4026 15.5626L18.4095 15.5624C18.4045 15.4224 18.5121 15.3387 18.5132 15.3378L18.509 15.3323C18.5079 15.3332 18.3975 15.419 18.4026 15.5626ZM18.2891 15.5114L18.2959 15.5123C18.3146 15.3608 18.4494 15.3214 18.4508 15.321L18.4489 15.3144C18.4476 15.3148 18.3083 15.3553 18.2891 15.5114Z" fill="black"/>
<path d="M18.1121 15.7905C18.1121 15.7905 18.0789 15.5683 18.2118 15.4984C18.2118 15.4984 18.2364 15.4931 18.2503 15.5246C18.2503 15.5246 18.3203 15.4949 18.322 15.5543C18.322 15.5543 18.357 15.5263 18.3658 15.5648C18.3658 15.5648 18.441 15.5491 18.427 15.605C18.427 15.605 18.4899 15.5875 18.4847 15.6417C18.4847 15.6417 18.5477 15.619 18.5371 15.6662C18.5371 15.6662 18.6036 15.6505 18.5878 15.7047C18.5878 15.7047 18.6701 15.696 18.6456 15.7537C18.6456 15.7537 18.7068 15.738 18.6928 15.7852C18.6928 15.7852 18.7733 15.7992 18.7365 15.8499C18.6998 15.9006 18.607 15.9776 18.5162 16.0108" fill="#00A651"/>
<path d="M18.1121 15.7905C18.1121 15.7905 18.0789 15.5683 18.2118 15.4984C18.2118 15.4984 18.2364 15.4931 18.2503 15.5246C18.2503 15.5246 18.3203 15.4949 18.322 15.5543C18.322 15.5543 18.357 15.5263 18.3658 15.5648C18.3658 15.5648 18.441 15.5491 18.427 15.605C18.427 15.605 18.4899 15.5875 18.4847 15.6417C18.4847 15.6417 18.5477 15.619 18.5371 15.6662C18.5371 15.6662 18.6036 15.6505 18.5878 15.7047C18.5878 15.7047 18.6701 15.696 18.6456 15.7537C18.6456 15.7537 18.7068 15.738 18.6928 15.7852C18.6928 15.7852 18.7733 15.7992 18.7365 15.8499C18.6998 15.9006 18.607 15.9776 18.5162 16.0108" stroke="black" stroke-width="0.01" stroke-miterlimit="4.8"/>
<path d="M18.0406 16.0145C18.0406 16.0145 17.9864 15.8292 18.0896 15.7819C18.0896 15.7819 18.1088 15.7766 18.1123 15.7959C18.1123 15.7959 18.1351 15.7662 18.1526 15.7924C18.1526 15.7924 18.205 15.7679 18.2173 15.8064C18.2173 15.8064 18.2523 15.7766 18.2698 15.8203C18.2698 15.8203 18.303 15.8064 18.303 15.8413C18.303 15.8413 18.3485 15.8221 18.3485 15.8641C18.3485 15.8641 18.3921 15.8466 18.3834 15.8938C18.3834 15.8938 18.4499 15.9043 18.4307 15.9358C18.4307 15.9358 18.4902 15.9515 18.4674 15.976C18.4674 15.976 18.5321 15.969 18.4971 16.0127C18.4971 16.0127 18.5461 15.997 18.5181 16.0513C18.4901 16.1055 18.4027 16.1649 18.3415 16.1719" fill="#00A651"/>
<path d="M18.0406 16.0145C18.0406 16.0145 17.9864 15.8292 18.0896 15.7819C18.0896 15.7819 18.1088 15.7766 18.1123 15.7959C18.1123 15.7959 18.1351 15.7662 18.1526 15.7924C18.1526 15.7924 18.205 15.7679 18.2173 15.8064C18.2173 15.8064 18.2523 15.7766 18.2698 15.8203C18.2698 15.8203 18.303 15.8064 18.303 15.8413C18.303 15.8413 18.3485 15.8221 18.3485 15.8641C18.3485 15.8641 18.3921 15.8466 18.3834 15.8938C18.3834 15.8938 18.4499 15.9043 18.4307 15.9358C18.4307 15.9358 18.4902 15.9515 18.4674 15.976C18.4674 15.976 18.5321 15.969 18.4971 16.0127C18.4971 16.0127 18.5461 15.997 18.5181 16.0513C18.4901 16.1055 18.4027 16.1649 18.3415 16.1719" stroke="black" stroke-width="0.01" stroke-miterlimit="4.8"/>
<path d="M18.1049 16.1606C18.1049 16.1606 17.9895 16.0487 18.0438 16.0155C18.0438 16.0155 18.0682 16.0224 18.077 16.047C18.077 16.047 18.1049 16.0067 18.1208 16.0487C18.1208 16.0487 18.1628 16.0347 18.1628 16.0628L18.1959 16.0873C18.1959 16.0873 18.2345 16.0837 18.2275 16.1082C18.2275 16.1082 18.2694 16.103 18.2677 16.1257C18.2677 16.1257 18.3044 16.1274 18.3009 16.1519C18.3009 16.1519 18.3638 16.1624 18.3359 16.1939C18.3359 16.1939 18.2257 16.2166 18.1488 16.1852C18.1488 16.1852 18.1084 16.1711 18.105 16.1606H18.1049Z" fill="#00A651" stroke="black" stroke-width="0.01" stroke-miterlimit="4.8"/>
<path d="M18.5006 15.9752L18.5031 15.9816C18.5715 15.9552 18.6903 15.7931 18.6953 15.7862L18.6898 15.7821C18.6885 15.7838 18.5671 15.9495 18.5006 15.9751V15.9752ZM18.4618 15.9456L18.4651 15.9516C18.5246 15.9184 18.6431 15.7615 18.6481 15.7548L18.6426 15.7506C18.6415 15.7523 18.52 15.9131 18.4618 15.9456L18.4618 15.9456ZM18.428 15.9318L18.4325 15.9371C18.4953 15.8849 18.5868 15.7126 18.5908 15.7053L18.5847 15.7021C18.5837 15.7038 18.4899 15.8805 18.4281 15.9318L18.428 15.9318ZM18.3971 15.8921L18.404 15.893C18.4159 15.8059 18.5383 15.6688 18.5395 15.6675L18.5344 15.6628C18.5293 15.6685 18.4093 15.8029 18.3971 15.8921ZM18.1522 15.7862L18.1591 15.7856C18.1488 15.6625 18.2518 15.527 18.2528 15.5256L18.2474 15.5215C18.2463 15.5228 18.1417 15.6604 18.1522 15.7862ZM18.217 15.797L18.2238 15.7958C18.2068 15.6971 18.3233 15.5568 18.3245 15.5555L18.3192 15.551C18.3143 15.5568 18.1995 15.6951 18.217 15.797ZM18.3166 15.8333L18.3235 15.8331C18.3201 15.7205 18.4281 15.6076 18.4292 15.6064L18.4243 15.6016C18.4232 15.6028 18.3131 15.7178 18.3166 15.8333ZM18.079 16.0373L18.0854 16.0349C18.0462 15.9308 18.1143 15.7976 18.115 15.7963L18.1088 15.7931C18.1081 15.7945 18.0387 15.9303 18.079 16.0373ZM18.1243 16.044L18.1309 16.0419C18.0966 15.9359 18.1546 15.7939 18.1552 15.7925L18.1488 15.7898C18.1483 15.7912 18.0894 15.9356 18.1243 16.044ZM18.3118 16.1499L18.3141 16.1564C18.4257 16.1163 18.4987 16.0145 18.4994 16.0135L18.4938 16.0095C18.4931 16.0105 18.4214 16.1106 18.3118 16.1499H18.3118ZM18.2888 16.1256L18.2916 16.1319C18.3807 16.0918 18.4636 15.9797 18.4644 15.9786L18.4589 15.9745C18.4581 15.9757 18.3762 16.0862 18.2888 16.1256V16.1256ZM18.2672 16.1172L18.2713 16.1228C18.3409 16.0724 18.4303 15.9431 18.4313 15.9418L18.4256 15.9379C18.4247 15.9392 18.336 16.0675 18.2672 16.1172V16.1172ZM18.1556 16.0523L18.1625 16.0513C18.1471 15.9401 18.2191 15.8081 18.2198 15.8068L18.2138 15.8035C18.213 15.8049 18.1399 15.9388 18.1556 16.0523ZM18.2041 16.0824L18.2087 16.0875C18.2806 16.0227 18.305 15.8479 18.306 15.8405L18.2992 15.8396C18.2989 15.8414 18.2741 16.0193 18.2041 16.0824Z" fill="black"/>
<path d="M18.2537 16.104L18.2577 16.1096C18.3591 16.0363 18.3866 15.8955 18.3868 15.8941L18.3801 15.8928C18.3798 15.8942 18.3528 16.0323 18.2537 16.104V16.104ZM18.2654 15.8006C18.2654 15.8071 18.2657 15.8137 18.2663 15.8203C18.2662 15.8198 18.1895 16.0691 18.1895 16.0691L18.196 16.0711L18.2731 15.821C18.2612 15.7001 18.3675 15.5681 18.3686 15.5668L18.3633 15.5625C18.3622 15.5637 18.2654 15.6839 18.2654 15.8006Z" fill="black"/>
<path d="M18.3452 15.8602C18.3442 15.8637 18.3208 16.0345 18.2287 16.0975L18.2326 16.1032C18.3273 16.0384 18.3503 15.87 18.3512 15.8629C18.3921 15.8143 18.4863 15.6437 18.4873 15.642L18.4812 15.6387C18.4803 15.6404 18.3864 15.8104 18.3452 15.8602V15.8602ZM18.0732 16.0468C18.0739 16.0504 18.0893 16.1353 18.1069 16.1652L18.1129 16.1617C18.0958 16.1328 18.0802 16.0465 18.0801 16.0456L18.0732 16.0468ZM18.1169 16.0479C18.1176 16.0901 18.1179 16.1594 18.1155 16.1656L18.1219 16.1681C18.1254 16.1592 18.1241 16.0664 18.1238 16.0478L18.1169 16.0479Z" fill="black"/>
<path d="M18.1211 16.1702L18.1274 16.173C18.1569 16.1087 18.166 16.0643 18.1662 16.0638L18.1594 16.0625C18.1593 16.0629 18.1503 16.1066 18.1211 16.1702Z" fill="black"/>
<path d="M18.1279 16.1712L18.1314 16.1771C18.1863 16.1453 18.199 16.0898 18.1995 16.0875L18.1927 16.086C18.1926 16.0865 18.1801 16.1409 18.1279 16.1712Z" fill="black"/>
<path d="M18.1377 16.1754L18.1384 16.1822C18.1921 16.1769 18.2288 16.1116 18.2303 16.1088L18.2243 16.1055C18.2239 16.1061 18.1878 16.1704 18.1377 16.1754Z" fill="black"/>
<path d="M18.1436 16.1794L18.144 16.1863C18.2303 16.181 18.2691 16.1294 18.2707 16.1272L18.2651 16.1232C18.2648 16.1236 18.2265 16.1744 18.1436 16.1794Z" fill="black"/>
<path d="M18.1489 16.1804L18.1475 16.1871C18.1521 16.1882 18.2621 16.2115 18.2997 16.1542L18.294 16.1504C18.259 16.2038 18.15 16.1806 18.1489 16.1804Z" fill="black"/>
<path d="M15.6816 12.1582V15.2346C15.6816 16.2408 17.4996 16.8382 17.4996 16.8382C17.4996 16.8382 19.3176 16.2407 19.3176 15.2346V12.1582H15.6816Z" stroke="black" stroke-width="0.01" stroke-miterlimit="4.8"/>
<path d="M20 6L20 18L4 18L4 6L20 6ZM20 5L4 5C3.4 5 3 5.4 3 6L3 18C3 18.6 3.4 19 4 19L20 19C20.6 19 21 18.6 21 18L21 6C21 5.4 20.6 5 20 5Z" fill="#B5B5B5"/>
</svg>
