<svg width="24" height="24" viewBox="0 0 24 24" fill="none" xmlns="http://www.w3.org/2000/svg">
<path d="M20 6H4V18H20V6Z" fill="white"/>
<path d="M10.9333 6V10.8H4V13.2H10.9333V18H13.0667V13.2H20V10.8H13.0667V6H10.9333Z" fill="#FF0000"/>
<path d="M20 6L20 18L4 18L4 6L20 6ZM20 5L4 5C3.4 5 3 5.4 3 6L3 18C3 18.6 3.4 19 4 19L20 19C20.6 19 21 18.6 21 18L21 6C21 5.4 20.6 5 20 5Z" fill="none"/>
<g clip-path="url(#clip0_14099_117445)">
<path d="M4 6H20V18H4V6Z" fill="white"/>
<path d="M10.7998 6H13.1998V18H10.7998V6Z" fill="#FF0000"/>
<path d="M4 10.8H20V13.2H4V10.8Z" fill="#FF0000"/>
<g style="mix-blend-mode:multiply">
<path fill-rule="evenodd" clip-rule="evenodd" d="M7.66961 15.3275C7.69461 14.9075 7.76961 14.55 7.76961 14.55C7.76961 14.55 7.52461 14.575 7.39961 14.575C7.27711 14.575 7.02961 14.55 7.02961 14.55C7.02961 14.55 7.10461 14.9075 7.12961 15.33C6.70711 15.305 6.34961 15.23 6.34961 15.23C6.34961 15.23 6.37461 15.415 6.37461 15.6C6.37461 15.785 6.34961 15.97 6.34961 15.97C6.34961 15.97 6.70711 15.895 7.12961 15.87C7.10461 16.2925 7.02961 16.65 7.02961 16.65C7.02961 16.65 7.21461 16.625 7.39961 16.625C7.58461 16.625 7.76961 16.65 7.76961 16.65C7.76961 16.65 7.69461 16.2925 7.66961 15.87C8.09211 15.895 8.44961 15.97 8.44961 15.97C8.44961 15.97 8.42461 15.725 8.42461 15.6C8.42461 15.4775 8.44961 15.23 8.44961 15.23C8.44961 15.23 8.09211 15.305 7.67211 15.33L7.66961 15.3275ZM16.8696 8.12748C16.8946 7.70748 16.9696 7.34998 16.9696 7.34998C16.9696 7.34998 16.7246 7.37498 16.5996 7.37498C16.4771 7.37498 16.2296 7.34998 16.2296 7.34998C16.2296 7.34998 16.3046 7.70748 16.3296 8.12748C15.9071 8.10248 15.5496 8.02998 15.5496 8.02998C15.5496 8.02998 15.5746 8.21498 15.5746 8.39998C15.5746 8.58498 15.5496 8.76998 15.5496 8.76998C15.5496 8.76998 15.9071 8.69498 16.3296 8.66998C16.3046 9.09248 16.2296 9.44998 16.2296 9.44998C16.2296 9.44998 16.4146 9.42498 16.5996 9.42498C16.7846 9.42498 16.9696 9.44998 16.9696 9.44998C16.9696 9.44998 16.8946 9.09248 16.8696 8.67248C17.2921 8.69748 17.6496 8.77248 17.6496 8.77248C17.6496 8.77248 17.6246 8.52248 17.6246 8.39998C17.6246 8.27748 17.6496 8.02998 17.6496 8.02998C17.6496 8.02998 17.2921 8.10498 16.8696 8.12998V8.12748ZM7.66961 8.12748C7.69461 7.70748 7.76961 7.34998 7.76961 7.34998C7.76961 7.34998 7.52461 7.37498 7.39961 7.37498C7.27711 7.37498 7.02961 7.34998 7.02961 7.34998C7.02961 7.34998 7.10461 7.70748 7.12961 8.12998C6.70711 8.10498 6.34961 8.02998 6.34961 8.02998C6.34961 8.02998 6.37461 8.21498 6.37461 8.39998C6.37461 8.58498 6.34961 8.76998 6.34961 8.76998C6.34961 8.76998 6.70711 8.69498 7.12961 8.66998C7.10461 9.09248 7.02961 9.44998 7.02961 9.44998C7.02961 9.44998 7.21461 9.42498 7.39961 9.42498C7.58461 9.42498 7.76961 9.44998 7.76961 9.44998C7.76961 9.44998 7.69461 9.09248 7.66961 8.66998C8.09211 8.69498 8.44961 8.76998 8.44961 8.76998C8.44961 8.76998 8.42461 8.52498 8.42461 8.39998C8.42461 8.27748 8.44961 8.02998 8.44961 8.02998C8.44961 8.02998 8.09211 8.10498 7.67211 8.12998L7.66961 8.12748ZM16.8696 15.3275C16.8946 14.9075 16.9696 14.55 16.9696 14.55C16.9696 14.55 16.7246 14.575 16.5996 14.575C16.4771 14.575 16.2296 14.55 16.2296 14.55C16.2296 14.55 16.3046 14.9075 16.3296 15.33C15.9071 15.305 15.5496 15.23 15.5496 15.23C15.5496 15.23 15.5746 15.415 15.5746 15.6C15.5746 15.785 15.5496 15.97 15.5496 15.97C15.5496 15.97 15.9071 15.895 16.3296 15.87C16.3046 16.2925 16.2296 16.65 16.2296 16.65C16.2296 16.65 16.4146 16.625 16.5996 16.625C16.7846 16.625 16.9696 16.65 16.9696 16.65C16.9696 16.65 16.8946 16.2925 16.8696 15.87C17.2921 15.895 17.6496 15.97 17.6496 15.97C17.6496 15.97 17.6246 15.725 17.6246 15.6C17.6246 15.4775 17.6496 15.23 17.6496 15.23C17.6496 15.23 17.2921 15.305 16.8696 15.33V15.3275Z" fill="#FF0000"/>
</g>
</g>
<defs>
<clipPath id="clip0_14099_117445">
<rect width="16" height="12" fill="white" transform="translate(4 6)"/>
</clipPath>
</defs>
</svg>
