<svg width="24" height="24" viewBox="0 0 24 24" fill="none" xmlns="http://www.w3.org/2000/svg">
<path d="M20 6H4V18H20V6Z" fill="#C62139"/>
<path d="M19.5 6.50067H4.5V17.5H19.5V6.50067Z" fill="#00297B"/>
<path d="M12.0059 9.54095C12.0059 9.54095 10.2441 10.66 10.2441 11.9796C10.2441 13.2993 12.0059 14.4501 12.0059 14.4501C12.0059 14.4501 13.7563 13.3942 13.7563 11.9796C13.7563 10.565 12.0059 9.54095 12.0059 9.54095Z" fill="#C62139"/>
<path d="M13.4914 12.4161C13.53 12.2758 13.552 12.13 13.552 11.9796C13.552 10.7129 12.006 9.77338 12.006 9.77338C12.006 9.77338 10.4375 10.7447 10.4375 11.9796C10.4375 12.128 10.4598 12.2725 10.4993 12.4125L13.4914 12.4161Z" fill="#66AFEB"/>
<path d="M11.9931 14.2068C11.9931 14.2068 13.2056 13.4586 13.4908 12.412H10.498C10.7876 13.4384 11.9931 14.2068 11.9931 14.2068Z" fill="#007BDE"/>
<path d="M13.5446 12.1269C13.2794 12.303 11.7866 12.2184 11.7866 12.2184L11.7031 12.4155H13.4915C13.4989 12.3885 13.5057 12.3615 13.5119 12.3341L13.5446 12.1269Z" fill="#9C8431"/>
<path d="M11.9137 13.3741C11.891 13.2266 11.1928 13.0687 10.8223 13.0817C10.9379 13.2508 11.069 13.4056 11.2009 13.5431C11.3891 13.3549 11.9211 13.4228 11.9137 13.3741Z" fill="#FFF100"/>
<path d="M13.3273 12.8251C13.2385 12.828 13.0775 12.8412 12.9672 12.8947C12.8082 12.9721 12.452 13.0567 12.2928 13.0143C12.1338 12.9721 11.8836 13.1059 11.9141 13.134C11.9645 13.1809 12.3307 13.127 12.3307 13.4296C12.3307 13.683 11.9065 13.5705 11.7397 13.676C11.6392 13.7395 11.5691 13.8084 11.5293 13.8527C11.7897 14.0773 11.9936 14.2073 11.9936 14.2073C11.9936 14.2073 12.4769 13.909 12.905 13.4259L13.1063 13.177C13.1874 13.0663 13.2627 12.9488 13.3273 12.8251Z" fill="#FFF100"/>
<path d="M11.9094 10.8738C11.9094 10.8738 11.6678 10.7419 11.3382 10.8051C11.0086 10.8685 10.9375 11.061 10.9375 11.061L11.0483 11.0136L11.0511 11.0558L11.1506 10.9978L11.1534 11.04L11.2387 10.9662L11.2527 11.0136L11.3295 10.9503L11.3352 10.9846L11.4602 10.9107V10.9582L11.5597 10.9159L11.5512 10.9608L11.7388 10.9293C11.7388 10.9293 11.2954 11.0664 11.2387 11.3963L11.3238 11.3015L11.3324 11.3461L11.3863 11.2459L11.4006 11.2855L11.4489 11.1932L11.463 11.2485L11.5368 11.1482L11.5426 11.2064L11.6277 11.0982V11.1507L11.7187 11.0584L11.7159 11.1272C11.7159 11.1272 11.804 11.0584 11.8322 11.0584L11.7272 11.1851L11.7614 11.1957C11.7614 11.1957 11.6874 11.2511 11.6818 11.2617C11.6761 11.2721 11.7302 11.2617 11.7302 11.2617C11.7302 11.2617 11.6647 11.3249 11.6619 11.3435C11.659 11.3621 11.7045 11.3435 11.7045 11.3435C11.7045 11.3435 11.6448 11.4146 11.6363 11.4412C11.6277 11.4676 11.6675 11.4464 11.6675 11.4464C11.6675 11.4464 11.6307 11.5309 11.6277 11.5546C11.6249 11.5782 11.6703 11.5492 11.6703 11.5492L11.696 11.6944L11.7415 11.5204L11.7698 11.56V11.4359L11.7954 11.4569L11.7926 11.3753L11.8266 11.4068L11.8096 11.3065L11.8465 11.3459L11.8408 11.2617L11.8777 11.2961V11.1851L11.9118 11.214L11.9175 11.1377L11.9573 11.1561C11.9573 11.1561 11.9629 11.0637 12.0085 11.0664C12.0538 11.0688 12.1107 11.1138 12.088 11.1348L12.1278 11.1246L12.1193 11.214L12.1562 11.193L12.1505 11.2589L12.1817 11.2457L12.1704 11.3301L12.2074 11.3093L12.2101 11.4119L12.2526 11.3831L12.2498 11.5043L12.2924 11.4728V11.573L12.3322 11.5468L12.3749 11.6443L12.3663 11.4992L12.3977 11.5228L12.3407 11.42L12.3834 11.4146L12.3378 11.3459L12.3805 11.3489L12.3181 11.2801L12.3606 11.2723L12.2667 11.2089L12.3179 11.1905L12.2213 11.1324L12.2582 11.1192L12.1902 11.0532L12.2612 11.0796L12.2838 11.0374L12.369 11.1008V11.0374L12.4429 11.1324L12.4515 11.0742L12.5083 11.1482L12.5196 11.114L12.5594 11.1878L12.5792 11.1326L12.619 11.2117L12.6303 11.1561L12.6673 11.2433L12.7014 11.2089L12.7185 11.2987L12.7524 11.2643L12.7836 11.3435L12.8234 11.3145L12.8576 11.4043C12.8576 11.4043 12.9513 10.9239 12.1472 10.9159L11.9085 10.8738" fill="#009270"/>
<path d="M11.54 10.4467L11.5854 10.4993L11.5626 10.5154L11.6394 10.555L11.6223 10.5839L11.6991 10.6103L11.6706 10.6315L11.7389 10.6682L11.6935 10.6816L11.7758 10.7185L11.7645 10.7527L11.8355 10.7686L11.8043 10.7923L11.8866 10.8532L11.9804 10.9138L12.0458 10.8928L12.0201 10.7764C12.0201 10.7764 11.7502 10.4333 11.54 10.4465" fill="#009270"/>
<path d="M11.7868 10.1143L11.8181 10.1828L11.7754 10.1908L11.8721 10.2805L11.7953 10.2831L11.8891 10.3517L11.8436 10.3651L11.9289 10.4442L11.8834 10.4652L11.9714 10.547L11.9119 10.5681L12.0114 10.6526L11.9545 10.6554L12.0141 10.7264L11.9601 10.7423C11.9601 10.7423 12.0255 10.8557 12.0225 10.9033L12.1333 10.9085C12.1333 10.9085 12.1504 10.6024 12.1363 10.5628L12.1078 10.5813L12.1163 10.4704L12.0736 10.4943L12.0653 10.3623L12.0225 10.4044L12.0114 10.2751L11.98 10.3201L11.9487 10.1933L11.9147 10.2329L11.8834 10.1512L11.8578 10.1828L11.7868 10.1141" fill="#009270"/>
<path d="M12.0742 10.8853C12.1055 10.7005 12.313 10.4313 12.7023 10.4208L12.6141 10.463L12.6653 10.4841L12.563 10.5185L12.6141 10.5473L12.492 10.5554L12.5544 10.595L12.4636 10.6055L12.3925 10.6187L12.4436 10.6635L12.3413 10.6739L12.4067 10.7057C12.4067 10.7057 12.2447 10.7585 12.2334 10.7744C12.2334 10.7744 12.7791 10.6451 12.9126 10.885L12.8073 10.8428L12.8159 10.8878L12.7421 10.8376L12.7534 10.8746L12.6767 10.8376L12.688 10.8824L12.6084 10.8402L12.6255 10.88L12.5232 10.835L12.5403 10.8772L12.4522 10.8508L12.4608 10.8956L12.3726 10.8904L12.3812 10.9432L12.1084 10.9378L12.0742 10.885" fill="#009270"/>
<path d="M11.9909 11.0454L12.0478 11.0419C12.0212 11.5452 12.0461 12.2668 12.1197 12.534C12.2446 12.9878 12.6088 13.1626 12.6955 13.2061C12.7447 13.2306 12.7258 13.3327 12.6272 13.3257C12.5289 13.3187 12.1852 13.0828 12.0665 12.6606C11.9076 12.094 11.9847 11.1044 11.9909 11.0454Z" fill="#7B4800"/>
<path d="M12.0828 10.9956C12.1183 10.9956 12.147 10.9688 12.147 10.9357C12.147 10.9027 12.1183 10.8759 12.0828 10.8759C12.0473 10.8759 12.0186 10.9027 12.0186 10.9357C12.0186 10.9688 12.0473 10.9956 12.0828 10.9956Z" fill="#7B4800"/>
<path d="M11.98 10.9703C12.0133 10.9703 12.0402 10.9452 12.0402 10.9143C12.0402 10.8834 12.0133 10.8583 11.98 10.8583C11.9468 10.8583 11.9199 10.8834 11.9199 10.9143C11.9199 10.9452 11.9468 10.9703 11.98 10.9703Z" fill="#7B4800"/>
<path d="M11.98 11.0645C12.011 11.0645 12.0361 11.0411 12.0361 11.0122C12.0361 10.9833 12.011 10.9598 11.98 10.9598C11.949 10.9598 11.9238 10.9833 11.9238 11.0122C11.9238 11.0411 11.949 11.0645 11.98 11.0645Z" fill="#7B4800"/>
<path d="M12.0562 11.0426C12.0894 11.0426 12.1163 11.0175 12.1163 10.9866C12.1163 10.9556 12.0894 10.9305 12.0562 10.9305C12.023 10.9305 11.9961 10.9556 11.9961 10.9866C11.9961 11.0175 12.023 11.0426 12.0562 11.0426Z" fill="#7B4800"/>
<path d="M11.4443 12.7561H11.5085V12.1122H11.4443V12.7561Z" fill="black"/>
<path d="M11.6525 12.8778C11.6525 12.8778 11.6261 12.8821 11.5843 12.887V12.8368H11.5417V12.8914C11.498 12.8955 11.4451 12.8989 11.3897 12.8989C11.3307 12.8989 11.2713 12.8949 11.2222 12.8902V12.8382H11.1752V12.8852C11.1347 12.8805 11.1085 12.8764 11.1085 12.8764C11.1085 12.8764 11.0956 12.9424 11.3855 12.9424C11.6753 12.9424 11.6526 12.8778 11.6526 12.8778" fill="#7B4800"/>
<path d="M11.3772 12.7547C11.6122 12.7547 11.8093 12.7196 11.8093 12.7196C11.8093 12.7196 11.8394 12.8602 11.3772 12.8602C10.915 12.8602 10.9529 12.7407 10.9529 12.7407C10.9529 12.7407 11.1424 12.7547 11.3772 12.7547Z" fill="#7B4800"/>
<path d="M11.1798 12.1493C11.1798 12.1493 11.5435 12.2761 11.6876 12.7195C11.6876 12.7195 11.3541 12.6563 11.1646 12.7266H11.0586C11.0586 12.7264 11.2405 12.4802 11.1798 12.1493Z" fill="white"/>
<path d="M11.2314 11.8159H11.164C11.1587 11.7889 11.146 11.7699 11.1258 11.7595C11.1145 11.7534 11.1021 11.7506 11.0883 11.7506C11.0618 11.7506 11.0402 11.7623 11.0233 11.7865C11.0062 11.8103 10.9977 11.8466 10.9977 11.8947C10.9977 11.9433 11.007 11.9775 11.0253 11.998C11.0437 12.018 11.0646 12.0281 11.0881 12.0281C11.1111 12.0281 11.1298 12.0202 11.1446 12.0041C11.1592 11.9883 11.1682 11.9673 11.1718 11.9412H11.0958V11.8755H11.2324V12.0872H11.1871L11.1801 12.0379C11.1669 12.0567 11.1551 12.0699 11.1446 12.0777C11.1265 12.0911 11.1043 12.0978 11.0778 12.0978C11.0344 12.0978 10.9987 12.0796 10.9711 12.0433C10.9422 12.007 10.9277 11.9572 10.9277 11.894C10.9277 11.8302 10.9424 11.7788 10.9716 11.7402C11.0007 11.7017 11.0393 11.6825 11.0875 11.6825C11.129 11.6825 11.1626 11.6953 11.1878 11.7207C11.213 11.746 11.2277 11.7778 11.2314 11.8159Z" fill="#C62139"/>
<path d="M11.5518 11.9349V11.6923H11.6213V11.9349C11.6213 11.962 11.6242 11.9817 11.6294 11.9943C11.6378 12.0163 11.6558 12.0275 11.6837 12.0275C11.7113 12.0275 11.7294 12.0163 11.7378 11.9943C11.7432 11.9817 11.7456 11.962 11.7456 11.9349V11.6923H11.8153V11.9349C11.8153 11.9768 11.8099 12.0094 11.7992 12.0329C11.7789 12.0756 11.7405 12.097 11.6836 12.097C11.6269 12.097 11.5882 12.0758 11.5679 12.0329C11.5572 12.0096 11.5518 11.9768 11.5518 11.9349Z" fill="#C62139"/>
<path d="M12.2882 11.6923L12.1709 12.0873H12.2429L12.2656 12.0061H12.3863L12.4076 12.0873H12.4816L12.365 11.6923H12.2882ZM12.3259 11.7824L12.3671 11.9377H12.2841L12.3259 11.7824Z" fill="#C62139"/>
<path d="M12.9151 12.0025L12.9742 11.6923H13.0727V12.0869H13.0089V11.8201C13.0089 11.8123 13.009 11.8015 13.0092 11.7877C13.0093 11.7739 13.0094 11.7632 13.0094 11.7558L12.9473 12.0869H12.8808L12.8192 11.7558C12.8192 11.7632 12.8193 11.7739 12.8194 11.7877C12.8195 11.8015 12.8197 11.8123 12.8197 11.8201V12.0869H12.7559V11.6923H12.8555L12.9151 12.0025" fill="#C62139"/>
<path d="M20 6L20 18L4 18L4 6L20 6ZM20 5L4 5C3.4 5 3 5.4 3 6L3 18C3 18.6 3.4 19 4 19L20 19C20.6 19 21 18.6 21 18L21 6C21 5.4 20.6 5 20 5Z" fill="#B5B5B5"/>
</svg>
