<svg width="24" height="24" viewBox="0 0 24 24" fill="none" xmlns="http://www.w3.org/2000/svg">
<path d="M20 6H4V18H20V6Z" fill="#FF9933"/>
<path d="M20 10H4V14H20V10Z" fill="white"/>
<path d="M20 14H4V18H20V14Z" fill="#128807"/>
<path d="M12.0004 13.6004C12.884 13.6004 13.6004 12.884 13.6004 12.0004C13.6004 11.1167 12.884 10.4004 12.0004 10.4004C11.1167 10.4004 10.4004 11.1167 10.4004 12.0004C10.4004 12.884 11.1167 13.6004 12.0004 13.6004Z" fill="#000088"/>
<path d="M12.0006 13.3996C12.7738 13.3996 13.4006 12.7728 13.4006 11.9996C13.4006 11.2264 12.7738 10.5996 12.0006 10.5996C11.2274 10.5996 10.6006 11.2264 10.6006 11.9996C10.6006 12.7728 11.2274 13.3996 12.0006 13.3996Z" fill="white"/>
<path d="M12.0007 12.2807C12.1553 12.2807 12.2807 12.1553 12.2807 12.0007C12.2807 11.8461 12.1553 11.7207 12.0007 11.7207C11.8461 11.7207 11.7207 11.8461 11.7207 12.0007C11.7207 12.1553 11.8461 12.2807 12.0007 12.2807Z" fill="#000088"/>
<path d="M13.3793 12.2534C13.4176 12.2585 13.4527 12.2315 13.4578 12.1931C13.4628 12.1548 13.4359 12.1197 13.3975 12.1146C13.3592 12.1096 13.324 12.1365 13.319 12.1749C13.3139 12.2132 13.3409 12.2484 13.3793 12.2534Z" fill="#000088"/>
<path d="M12.0001 13.4021L12.0481 12.5621L12.0001 12.1621L11.9521 12.5621L12.0001 13.4021Z" fill="#000088"/>
<path d="M20 6L20 18L4 18L4 6L20 6ZM20 5L4 5C3.4 5 3 5.4 3 6L3 18C3 18.6 3.4 19 4 19L20 19C20.6 19 21 18.6 21 18L21 6C21 5.4 20.6 5 20 5Z" fill="none"/>
<g clip-path="url(#clip0_14099_118049)">
<path d="M4 6H20.0036V9.9996H4V6Z" fill="#FF9933"/>
<path d="M4 9.99957H20.0036V14.0004H4V9.99957Z" fill="white"/>
<path d="M4 14.0004H20.0036V18H4V14.0004Z" fill="#128807"/>
<path d="M13.6026 12C13.6026 12.8832 12.886 13.5996 12.0026 13.5996C11.1179 13.5996 10.4014 12.8832 10.4014 12C10.4014 11.1168 11.1179 10.4004 12.0026 10.4004C12.886 10.4004 13.6026 11.1168 13.6026 12Z" fill="#000088"/>
<path d="M13.4019 12C13.4019 12.7728 12.7753 13.4004 12.0023 13.4004C11.2281 13.4004 10.6016 12.7728 10.6016 12C10.6016 11.2272 11.2281 10.5996 12.0023 10.5996C12.7753 10.5996 13.4019 11.2272 13.4019 12Z" fill="white"/>
<path d="M12.2825 12C12.2825 12.1548 12.1577 12.2796 12.0029 12.2796C11.848 12.2796 11.722 12.1548 11.722 12C11.722 11.8452 11.848 11.7204 12.0029 11.7204C12.1577 11.7204 12.2825 11.8452 12.2825 12ZM13.46 12.192C13.4552 12.2304 13.4204 12.2568 13.382 12.252C13.3436 12.2472 13.316 12.2124 13.322 12.174C13.3268 12.1356 13.3616 12.108 13.4 12.1128C13.4384 12.1188 13.4648 12.1536 13.46 12.192ZM11.9549 12.5604L12.0029 12.1596L12.0509 12.5604L12.0029 13.4004L11.9549 12.5604ZM13.3604 12.5628C13.346 12.5988 13.3052 12.6156 13.2692 12.6C13.2332 12.5856 13.2164 12.5448 13.232 12.5088C13.2464 12.4728 13.2872 12.456 13.3232 12.4716C13.3592 12.486 13.376 12.5268 13.3604 12.5628ZM11.8108 12.528L11.9609 12.1548L11.9044 12.5532L11.6404 13.3524L11.8108 12.528ZM13.1684 12.894C13.1444 12.9252 13.1011 12.9312 13.0699 12.9072C13.0399 12.8832 13.0339 12.84 13.0579 12.8088C13.0807 12.7788 13.1252 12.7728 13.1552 12.7968C13.1864 12.8196 13.1924 12.864 13.1684 12.894ZM11.68 12.4608L11.9225 12.138L11.7628 12.5088L11.3019 13.212L11.68 12.4608ZM12.8971 13.1664C12.8659 13.1892 12.8215 13.1832 12.7987 13.1532C12.7747 13.122 12.7807 13.0788 12.8119 13.0548C12.8419 13.0308 12.8863 13.0368 12.9091 13.068C12.9331 13.098 12.9271 13.1424 12.8971 13.1664ZM11.572 12.3612L11.8888 12.1128L11.6392 12.4296L11.0114 12.99L11.572 12.3612ZM12.5646 13.3572C12.5286 13.3716 12.4878 13.3548 12.4734 13.3188C12.4578 13.2828 12.4746 13.242 12.5106 13.2276C12.5466 13.2132 12.5874 13.23 12.6018 13.266C12.6174 13.3008 12.6006 13.3428 12.5646 13.3572ZM11.4927 12.2376L11.8636 12.0792L11.5408 12.3204L10.7894 12.6984L11.4927 12.2376ZM12.1937 13.4568C12.1553 13.4616 12.1205 13.4352 12.1145 13.3968C12.1097 13.3584 12.1373 13.3236 12.1757 13.3188C12.2141 13.3128 12.2489 13.3404 12.2537 13.3788C12.2585 13.4172 12.2321 13.452 12.1937 13.4568ZM11.4483 12.0984L11.8468 12.0408L11.4723 12.1908L10.6489 12.3624L11.4483 12.0984ZM11.8096 13.4568C11.7712 13.452 11.7448 13.416 11.7496 13.3788C11.7544 13.3404 11.7892 13.3128 11.8276 13.3176C11.866 13.3236 11.8936 13.3584 11.8888 13.3968C11.8828 13.4352 11.848 13.4616 11.8096 13.4568ZM11.4411 11.9508L11.842 11.9988L11.4411 12.048L10.6009 11.9988L11.4411 11.9508ZM11.4387 13.3572C11.4027 13.3428 11.3859 13.302 11.4015 13.266C11.4159 13.23 11.4567 13.2132 11.4927 13.2288C11.5288 13.2432 11.5456 13.284 11.53 13.32C11.5156 13.3548 11.4747 13.3728 11.4387 13.3572ZM11.4735 11.808L11.8468 11.958L11.4483 11.9004L10.6489 11.6376L11.4735 11.808ZM11.1074 13.1652C11.0762 13.1412 11.0702 13.098 11.0942 13.0668C11.1183 13.0368 11.1615 13.0308 11.1927 13.0536C11.2227 13.0776 11.2287 13.122 11.2059 13.152C11.1819 13.1832 11.1375 13.188 11.1074 13.1652ZM11.5408 11.6772L11.8636 11.9184L11.4927 11.76L10.7894 11.2992L11.5408 11.6772ZM10.835 12.8928C10.8122 12.8628 10.8182 12.8184 10.8482 12.7956C10.8794 12.7716 10.9226 12.7776 10.9466 12.8076C10.9706 12.8388 10.9646 12.8832 10.9334 12.906C10.9034 12.93 10.859 12.924 10.835 12.8928ZM11.6404 11.568L11.8888 11.8848L11.572 11.6364L11.0114 11.0088L11.6404 11.568ZM10.6441 12.5604C10.6297 12.5244 10.6465 12.4836 10.6825 12.4692C10.7186 12.4536 10.7594 12.4704 10.7738 12.5064C10.7882 12.5424 10.7714 12.5832 10.7354 12.5976C10.7005 12.6132 10.6597 12.5952 10.6441 12.5604ZM11.764 11.4888L11.9225 11.8584L11.6812 11.5368L11.3031 10.7856L11.764 11.4888ZM10.5445 12.1896C10.5397 12.1512 10.5661 12.1152 10.6045 12.1104C10.6429 12.1056 10.6777 12.132 10.6837 12.1704C10.6885 12.2088 10.6609 12.2448 10.6225 12.2496C10.5841 12.2544 10.5493 12.228 10.5445 12.1896ZM11.9032 11.4444L11.9609 11.8428L11.8108 11.4684L11.6392 10.6452L11.9032 11.4444ZM10.5445 11.8056C10.5493 11.7672 10.5853 11.7408 10.6237 11.7456C10.6609 11.7504 10.6885 11.7852 10.6837 11.8236C10.6789 11.862 10.6429 11.8896 10.6045 11.8836C10.5661 11.8788 10.5397 11.844 10.5445 11.8056ZM12.0509 11.4372L12.0029 11.838L11.9549 11.4372L12.0029 10.5972L12.0509 11.4372ZM10.6441 11.4348C10.6585 11.3988 10.6993 11.382 10.7354 11.3976C10.7714 11.412 10.7882 11.4528 10.7738 11.4888C10.7582 11.5236 10.7174 11.5416 10.6813 11.526C10.6465 11.5116 10.6285 11.4708 10.6441 11.4348ZM12.1937 11.4684L12.0437 11.8428L12.1013 11.4444L12.3642 10.6452L12.1937 11.4684ZM10.8362 11.1024C10.8602 11.0712 10.9034 11.0652 10.9346 11.0892C10.9658 11.112 10.9706 11.1564 10.9478 11.1876C10.9238 11.2176 10.8806 11.2236 10.8494 11.1996C10.8182 11.1768 10.8134 11.1324 10.8362 11.1024ZM12.3246 11.5356L12.0833 11.8584L12.2417 11.4876L12.7026 10.7844L12.3246 11.5356ZM11.1086 10.83C11.1387 10.8072 11.1831 10.812 11.2059 10.8432C11.2299 10.8744 11.2239 10.9176 11.1939 10.9416C11.1627 10.9644 11.1195 10.9596 11.0954 10.9284C11.0714 10.8984 11.0774 10.854 11.1086 10.83ZM12.4338 11.634L12.1169 11.8836L12.3654 11.5668L12.9931 11.0064L12.4338 11.634ZM11.4411 10.638C11.4771 10.6236 11.518 10.6404 11.5336 10.6764C11.548 10.7112 11.5312 10.7532 11.4951 10.7676C11.4591 10.782 11.4183 10.7652 11.4039 10.7292C11.3883 10.6944 11.4063 10.6524 11.4411 10.638ZM12.513 11.7576L12.1433 11.916L12.465 11.6748L13.2164 11.2968L12.513 11.7576ZM11.812 10.5384C11.8504 10.5324 11.8864 10.56 11.8912 10.5984C11.896 10.6368 11.8696 10.6716 11.8312 10.6764C11.7928 10.6824 11.7568 10.6548 11.752 10.6164C11.7472 10.578 11.7748 10.5432 11.812 10.5384ZM12.5574 11.8968L12.1589 11.9544L12.5334 11.8044L13.3568 11.6328L12.5574 11.8968ZM12.1961 10.5384C12.2345 10.5432 12.2621 10.578 12.2561 10.6164C12.2513 10.6548 12.2165 10.6824 12.1781 10.6776C12.1397 10.6716 12.1121 10.6368 12.1181 10.5984C12.1229 10.56 12.1577 10.5336 12.1961 10.5384ZM12.5646 12.0432L12.1637 11.9952L12.5646 11.9472L13.4048 11.9952L12.5646 12.0432ZM12.567 10.638C12.603 10.6524 12.6198 10.6932 12.6054 10.7292C12.5898 10.7652 12.549 10.782 12.513 10.7664C12.4782 10.752 12.4602 10.7112 12.4758 10.6752C12.4902 10.6392 12.531 10.6224 12.567 10.638ZM12.5334 12.1872L12.1589 12.0372L12.5574 12.0936L13.3568 12.3576L12.5334 12.1872ZM12.9007 10.83C12.9307 10.854 12.9367 10.8972 12.9127 10.9284C12.8899 10.9584 12.8455 10.9644 12.8143 10.9416C12.7843 10.9176 12.7783 10.8732 12.8023 10.8432C12.8251 10.812 12.8695 10.806 12.9007 10.83ZM12.4662 12.318L12.1433 12.0768L12.5142 12.2352L13.2176 12.696L12.4662 12.318ZM13.172 11.1012C13.1948 11.1324 13.19 11.1768 13.1588 11.1996C13.1288 11.2236 13.0843 11.2176 13.0603 11.1864C13.0375 11.1564 13.0423 11.112 13.0735 11.0892C13.1047 11.0652 13.148 11.0712 13.172 11.1012ZM12.3678 12.426L12.1181 12.1104L12.435 12.3588L12.9955 12.9864L12.3678 12.426ZM13.364 11.4336C13.3784 11.4696 13.3616 11.5104 13.3256 11.5248C13.2908 11.5404 13.25 11.5236 13.2344 11.4876C13.22 11.4516 13.2368 11.4108 13.2728 11.3964C13.3088 11.3808 13.3496 11.3976 13.364 11.4336ZM12.2441 12.5052L12.0857 12.1344L12.327 12.4572L12.7062 13.2084L12.2441 12.5052ZM13.4624 11.8044C13.4684 11.8428 13.4408 11.8788 13.4024 11.8836C13.364 11.8884 13.3292 11.8608 13.3244 11.8224C13.3184 11.7852 13.346 11.7492 13.3844 11.7444C13.4228 11.7396 13.4576 11.766 13.4624 11.8044ZM12.1037 12.5496L12.0461 12.1512L12.1961 12.5256L12.3678 13.3488L12.1037 12.5496Z" fill="#000088"/>
</g>
<defs>
<clipPath id="clip0_14099_118049">
<rect width="16" height="12" fill="white" transform="translate(4 6)"/>
</clipPath>
</defs>
</svg>
