<svg class="invalid-flag" width="24" height="18" viewBox="0 0 24 18" fill="none" xmlns="http://www.w3.org/2000/svg">
<g clip-path="url(#clip0_22936_253558)">
<path d="M24 0H0V18H24V0Z" fill="#ECEEF1"/>
<path d="M10.6523 10.3867V10.0176C10.6523 9.72852 10.6855 9.47656 10.752 9.26172C10.8184 9.04688 10.9297 8.8457 11.0859 8.6582C11.2422 8.4668 11.4531 8.26758 11.7188 8.06055C11.9922 7.8457 12.209 7.66016 12.3691 7.50391C12.5332 7.34766 12.6504 7.19141 12.7207 7.03516C12.7949 6.875 12.832 6.68945 12.832 6.47852C12.832 6.14648 12.7188 5.89453 12.4922 5.72266C12.2695 5.54688 11.9551 5.45898 11.5488 5.45898C11.1895 5.45898 10.8516 5.50977 10.5352 5.61133C10.2188 5.71289 9.90625 5.83984 9.59766 5.99219L9.11133 4.96094C9.4668 4.76562 9.85156 4.60938 10.2656 4.49219C10.6836 4.37109 11.1426 4.31055 11.6426 4.31055C12.4395 4.31055 13.0547 4.50391 13.4883 4.89062C13.9258 5.27734 14.1445 5.78711 14.1445 6.41992C14.1445 6.76758 14.0898 7.06641 13.9805 7.31641C13.8711 7.5625 13.709 7.79102 13.4941 8.00195C13.2832 8.20898 13.0273 8.42773 12.7266 8.6582C12.4805 8.85352 12.291 9.02344 12.1582 9.16797C12.0293 9.30859 11.9395 9.45117 11.8887 9.5957C11.8418 9.74023 11.8184 9.91406 11.8184 10.1172V10.3867H10.6523ZM10.4297 12.2734C10.4297 11.9531 10.5117 11.7285 10.6758 11.5996C10.8438 11.4668 11.0488 11.4004 11.291 11.4004C11.5254 11.4004 11.7266 11.4668 11.8945 11.5996C12.0625 11.7285 12.1465 11.9531 12.1465 12.2734C12.1465 12.5859 12.0625 12.8125 11.8945 12.9531C11.7266 13.0898 11.5254 13.1582 11.291 13.1582C11.0488 13.1582 10.8438 13.0898 10.6758 12.9531C10.5117 12.8125 10.4297 12.5859 10.4297 12.2734Z" fill="#555F65"/>
<path d="M24 0H0V18H24V0Z" fill="#ECEEF1"/>
</g>
<defs>
<clipPath id="clip0_22936_253558">
<rect width="24" height="18" fill="white"/>
</clipPath>
</defs>
</svg>
