<svg width="24" height="24" viewBox="0 0 24 24" fill="none" xmlns="http://www.w3.org/2000/svg">
<path d="M20 6H4V18H20V6Z" fill="#00AFCA"/>
<path d="M13.9662 12.6563C14.8579 12.6563 15.5808 11.9334 15.5808 11.0417C15.5808 10.15 14.8579 9.42709 13.9662 9.42709C13.0744 9.42709 12.3516 10.15 12.3516 11.0417C12.3516 11.9334 13.0744 12.6563 13.9662 12.6563Z" fill="#FEC50C"/>
<path d="M13.966 9.20984C14.062 9.20864 14.098 9.14864 14.098 9.07664C14.098 8.98064 13.966 8.52344 13.966 8.52344C13.966 8.52344 13.834 8.98064 13.834 9.07664C13.834 9.14864 13.87 9.20984 13.966 9.20984Z" fill="#FEC50C"/>
<path d="M13.6771 14.5417C13.6339 14.5441 13.5919 14.5497 13.5507 14.5629C13.4943 14.5705 13.4403 14.5901 13.3843 14.5993L13.3619 14.6029L13.3243 14.6065C13.3267 14.6169 13.3283 14.6273 13.3283 14.6377C13.3283 14.6485 13.3271 14.6589 13.3243 14.6677C13.3219 14.6761 13.3143 14.6865 13.3083 14.6929C13.3003 14.7017 13.2919 14.7093 13.2819 14.7141C13.2723 14.7189 13.2615 14.7209 13.2507 14.7217C13.2399 14.7221 13.2287 14.7217 13.2183 14.7177C13.2075 14.7141 13.1975 14.7073 13.1883 14.6993C13.1771 14.7021 13.1655 14.7041 13.1547 14.7053C13.1435 14.7065 13.1331 14.7065 13.1231 14.7053C13.1119 14.7021 13.1003 14.6985 13.0895 14.6941C13.0787 14.6897 13.0683 14.6841 13.0583 14.6777C13.0175 14.7017 12.9719 14.7245 12.9471 14.7665C12.9331 14.7857 12.9303 14.8077 12.9271 14.8305C12.9251 14.8585 12.9323 14.8881 12.9443 14.9141C12.9487 14.9217 12.9523 14.8865 12.9659 14.8817C12.9887 14.8629 13.0171 14.8493 13.0459 14.8417C13.0703 14.8293 13.0671 14.8425 13.0571 14.8617C13.0547 14.8717 13.0411 14.9097 13.0595 14.8905C13.1407 14.8545 13.2307 14.8473 13.3183 14.8405C13.4455 14.8273 13.5731 14.8245 13.7007 14.8229C13.8207 14.8245 13.9407 14.8261 14.0607 14.8305C14.1179 14.8321 14.1755 14.8449 14.2319 14.8353C14.2455 14.8317 14.2667 14.8309 14.2747 14.8229C14.2491 14.8081 14.2191 14.8077 14.1907 14.8041H13.9619C13.8983 14.7977 13.8319 14.7969 13.7719 14.7729C13.7559 14.7665 13.7411 14.7513 13.7259 14.7677C13.7031 14.7757 13.6787 14.7813 13.6547 14.7829C13.6127 14.7861 13.5707 14.7773 13.5319 14.7617C13.5599 14.7229 13.5935 14.6889 13.6243 14.6529C13.5995 14.6489 13.5755 14.6437 13.5507 14.6377C13.5943 14.6077 13.6347 14.5737 13.6771 14.5417Z" fill="#FEC50C"/>
<path d="M15.5455 14.9536C15.4585 15.0058 15.3922 14.9132 15.3195 14.8855C15.2676 14.9137 15.2628 15.008 15.2143 15.0526C15.1563 15.1187 15.0851 15.0342 15.0905 14.9691C15.0211 15.0276 14.986 15.1601 14.8738 15.1424C14.8206 15.099 14.7811 15.008 14.7405 15.1117C14.7074 15.1623 14.6192 15.2344 14.5735 15.1579C14.5594 15.0903 14.5255 15.0109 14.4887 15.1182C14.4635 15.1941 14.3825 15.2499 14.3042 15.2167C14.2613 15.1816 14.3386 15.052 14.284 15.0612C14.2024 15.1152 14.155 15.2491 14.0411 15.2384C13.9969 15.1887 14.0679 15.1046 14.0194 15.0496C13.9622 15.123 13.8987 15.2306 13.7996 15.2384C13.7518 15.1996 13.8015 15.0884 13.771 15.0719C13.6693 15.1328 13.5621 15.2414 13.4344 15.2074C13.4842 15.0169 13.6922 14.9501 13.8672 14.9353C14.1683 14.8983 14.485 14.9663 14.7747 14.8576C14.8215 14.8292 14.9349 14.7888 14.8945 14.7227C14.8588 14.6706 14.9876 14.6909 15 14.63C14.9923 14.5529 15.0591 14.5635 15.1243 14.5567C15.4168 14.5441 15.7058 14.6057 15.9974 14.6162C16.0195 14.7583 15.8618 14.8581 15.7349 14.8142C15.6743 14.824 15.5834 14.6748 15.6012 14.7833C15.589 14.8403 15.5975 14.9155 15.5455 14.9536M13.0567 14.6626C13.1244 14.7246 13.1719 14.651 13.2352 14.624C13.4475 14.551 13.6327 14.4234 13.8153 14.2959C13.926 14.2043 14.0219 14.0856 14.1705 14.0559C14.4604 13.9683 14.7685 13.9789 15.0595 13.898C15.281 13.5947 15.6574 13.4864 15.9726 13.3121C16.0434 13.2901 16.0708 13.2318 16.0934 13.1675C16.2137 12.9775 16.3776 12.8092 16.5715 12.6942C16.6632 12.6441 16.7727 12.6152 16.8765 12.6382C16.8691 12.7618 16.7981 12.8715 16.7125 12.957C16.7826 12.9555 16.8428 12.9112 16.9137 12.9137C16.9379 13.0406 16.8009 13.107 16.7279 13.1861C16.7686 13.1955 16.9242 13.2073 16.8394 13.248C16.7313 13.323 16.6079 13.3745 16.5081 13.4616C16.6002 13.4781 16.6107 13.4977 16.5171 13.5309C16.4664 13.5653 16.369 13.5773 16.3596 13.6442C16.4291 13.6869 16.3275 13.7294 16.2884 13.7433C16.2135 13.7607 16.1348 13.7932 16.2343 13.8501C16.1967 13.907 16.1159 13.9191 16.05 13.9135C16.07 13.9779 16.0989 14.05 16.0153 14.0785C15.8278 14.2202 15.6078 14.3233 15.3721 14.3469C15.6665 14.3695 15.9698 14.3149 16.2214 14.1547C16.2546 14.1155 16.4288 14.0733 16.3313 14.0402C16.2855 14.0212 16.1871 14 16.1805 13.965C16.3168 13.8809 16.4885 13.9108 16.6351 13.8609C16.6389 13.8134 16.5236 13.8266 16.4806 13.8158C16.3781 13.8074 16.3841 13.7812 16.4829 13.7716C16.608 13.7384 16.7496 13.7319 16.8548 13.6504C16.7692 13.6107 16.6614 13.6456 16.57 13.6132C16.725 13.5454 16.9078 13.5386 17.0468 13.4368C17.1101 13.3663 16.9656 13.3884 16.9236 13.3901C16.8377 13.405 16.7981 13.3639 16.8956 13.3283C17.062 13.2056 17.2728 13.1258 17.3897 12.9479C17.4174 12.9081 17.4549 12.7881 17.3665 12.8313C17.2504 12.8699 17.1482 13.0005 17.0158 12.9601C17.2766 12.7579 17.5248 12.5278 17.703 12.2481C17.7122 12.1674 17.5856 12.1587 17.5526 12.2221C17.3851 12.3835 17.2334 12.5741 17.0189 12.6753C17.2244 12.477 17.3942 12.2422 17.5424 11.9988C17.5742 11.9264 17.6596 11.8394 17.6132 11.759C17.5385 11.6972 17.4451 11.7538 17.4063 11.8278C17.276 11.9978 17.1771 12.1963 17.0096 12.3348C17.1562 12.0549 17.3081 11.757 17.3118 11.4342C17.3113 11.3678 17.298 11.2699 17.2077 11.2823C17.1362 11.2951 17.1532 11.4022 17.1237 11.4564C17.0588 11.6769 17.0283 11.9157 16.8951 12.1088C16.9251 11.9296 16.9775 11.7428 16.9372 11.5619C16.9184 11.481 16.7878 11.5158 16.8047 11.5958C16.6486 12.3861 16.1183 13.0773 15.4248 13.4772C15.1072 13.6568 14.7525 13.7727 14.3916 13.8252C14.2945 13.8465 14.1896 13.834 14.0968 13.8671C13.8719 14.0395 13.7358 14.328 13.4511 14.4183C13.3236 14.4817 13.1572 14.4946 13.066 14.6131C13.0581 14.6283 13.0564 14.6458 13.0567 14.6626" fill="#FEC50C"/>
<path d="M13.9092 13.8628C13.8672 13.939 13.8425 14.0267 13.7885 14.0949C13.626 13.9471 13.3904 13.952 13.1843 13.9421C13.0142 13.933 12.8292 13.9173 12.6975 13.796C12.5591 13.6826 12.446 13.5353 12.2913 13.4433C12.1501 13.4049 12.0077 13.3568 11.8942 13.26C11.6515 13.0623 11.5126 12.7688 11.2755 12.5648C11.2303 12.5203 11.177 12.4859 11.1263 12.4481C11.0782 12.4598 11.1 12.5637 11.0411 12.5108C11.0091 12.488 10.9289 12.4857 10.9217 12.5176C10.9942 12.6131 11.0668 12.7222 11.0768 12.8443C11.0274 12.8494 10.9395 12.8339 10.915 12.8523C10.9806 12.9507 11.0648 13.038 11.1604 13.1075C11.1145 13.1148 11.0241 13.1108 11.0066 13.1293C11.1015 13.2067 11.2033 13.2857 11.3275 13.3056C11.353 13.3391 11.2903 13.4039 11.343 13.4325C11.3736 13.445 11.4743 13.4659 11.4049 13.5006C11.3573 13.5327 11.375 13.6075 11.4359 13.6058C11.4744 13.6255 11.5609 13.6303 11.5677 13.6644C11.5335 13.6991 11.4273 13.7403 11.5177 13.7729C11.6022 13.8197 11.6985 13.8501 11.795 13.8535C11.7465 13.8942 11.6869 13.9173 11.6371 13.9556C11.8597 14.0862 12.1064 14.172 12.3503 14.2547C12.4474 14.2871 12.5456 14.3173 12.6462 14.3364C12.3538 14.3195 12.0711 14.2329 11.8048 14.1144C11.6668 14.0539 11.5278 13.9954 11.3863 13.9433C11.4484 13.911 11.5201 13.9031 11.5844 13.8752C11.4509 13.8484 11.305 13.8396 11.1876 13.7662C11.2056 13.7341 11.2738 13.7326 11.3116 13.7163C11.3825 13.6993 11.4265 13.6787 11.3265 13.6725C11.2256 13.6451 11.1099 13.6574 11.0211 13.5966C11.0268 13.5601 11.1198 13.5728 11.1577 13.557C11.2054 13.5489 11.2584 13.542 11.2966 13.5099C11.1406 13.4452 10.9367 13.491 10.8146 13.3533C10.7864 13.3009 10.902 13.3431 10.9349 13.3344C11.0186 13.3344 11.1086 13.361 11.1882 13.3273C10.961 13.2275 10.7177 13.1341 10.5444 12.9496C10.5251 12.9199 10.4675 12.8389 10.514 12.8289C10.6489 12.8467 10.7465 12.9939 10.8907 12.971C10.9099 12.9452 10.8069 12.9028 10.7812 12.8659C10.5709 12.6854 10.3667 12.4895 10.2193 12.2531C10.2092 12.1742 10.3333 12.1623 10.366 12.2233C10.5268 12.3783 10.6721 12.559 10.8725 12.6648C10.9436 12.6993 10.8317 12.624 10.8168 12.5967C10.6316 12.3817 10.4554 12.1547 10.326 11.9015C10.3029 11.8559 10.2645 11.7733 10.3338 11.749C10.403 11.7143 10.4718 11.7616 10.5069 11.8211C10.643 11.9928 10.7432 12.1968 10.9127 12.3398C10.7683 12.0595 10.6141 11.7644 10.6103 11.4419C10.6137 11.3793 10.6177 11.2848 10.7025 11.2873C10.7737 11.2765 10.7625 11.3677 10.7858 11.4111C10.856 11.6481 10.8865 11.9046 11.0273 12.1138C10.9962 11.938 10.9504 11.757 10.9808 11.5783C10.9878 11.5196 11.0539 11.5018 11.097 11.5373C11.1319 11.6226 11.1391 11.728 11.1709 11.8192C11.3516 12.4374 11.7574 12.9812 12.2862 13.3461C12.7217 13.6448 13.2385 13.8231 13.766 13.8542C13.8137 13.8583 13.8615 13.8598 13.9092 13.8627" fill="#FEC50C"/>
<path d="M13.2393 14.6818C13.255 14.6818 13.2677 14.6691 13.2677 14.6534C13.2677 14.6377 13.255 14.625 13.2393 14.625C13.2237 14.625 13.2109 14.6377 13.2109 14.6534C13.2109 14.6691 13.2237 14.6818 13.2393 14.6818Z" fill="#FEC50C"/>
<path d="M13.2372 14.6586C13.2436 14.6586 13.2487 14.6534 13.2487 14.647C13.2487 14.6406 13.2436 14.6354 13.2372 14.6354C13.2308 14.6354 13.2256 14.6406 13.2256 14.647C13.2256 14.6534 13.2308 14.6586 13.2372 14.6586Z" fill="#FEC50C" stroke="#00AFCA" stroke-width="0.381274"/>
<path d="M5.43967 6.87914C5.43967 6.87914 5.32434 6.78223 5.28519 6.83084C5.22219 6.90902 5.47887 7.29846 5.47887 7.43559C5.47887 7.6607 5.32866 7.72192 5.14319 7.75406C5.01874 7.77564 4.81608 7.74504 4.81608 7.74504C4.85424 7.69376 4.87906 7.67866 4.94335 7.67456C4.87178 7.6374 4.79889 7.55673 4.79889 7.43115C4.79889 7.23749 4.87861 7.15768 4.87861 6.93935C4.87861 6.81824 4.7793 6.66406 4.7793 6.66406C4.95483 6.68163 5.04183 6.84417 4.99233 6.97407C5.02028 6.9781 5.04565 6.97181 5.06744 6.95116C5.08028 6.98716 5.06 7.02896 5.03284 7.06496C5.05471 7.07665 5.07078 7.06964 5.10563 7.06245C5.10232 7.09955 5.08009 7.13896 5.02571 7.17605C5.18352 7.13508 5.28063 7.24507 5.28063 7.36022C5.28063 7.44719 5.21968 7.50953 5.1601 7.50953C5.14085 7.50953 5.11257 7.5016 5.09661 7.4897C5.08536 7.51363 5.09116 7.54567 5.10274 7.56961C5.05908 7.55807 5.03136 7.53214 5.05109 7.47816C5.01756 7.47508 4.99088 7.46374 4.97273 7.44215C4.99111 7.4186 5.01901 7.40504 5.05109 7.40614C5.02667 7.35575 5.05389 7.32754 5.09354 7.30467C5.09354 7.30467 5.06832 7.40614 5.13273 7.40614C5.16169 7.40614 5.18807 7.39671 5.18807 7.35404C5.18807 7.31687 5.15558 7.26539 5.08048 7.26867C5.00538 7.27194 4.9445 7.32045 4.9445 7.44034C4.9445 7.55093 5.0337 7.60594 5.15125 7.60949C5.25725 7.61276 5.33726 7.55534 5.33726 7.44599C5.33726 7.30045 5.12716 6.96871 5.12716 6.83902C5.12716 6.74171 5.21467 6.6874 5.30029 6.6874C5.41131 6.6874 5.50498 6.79733 5.50498 6.79733L5.43976 6.87911L5.43967 6.87914Z" fill="#FEC50C"/>
<path d="M5.46399 9.51219C5.46399 9.75543 5.24561 9.88044 5.07401 9.88044C4.84282 9.88044 4.71973 9.74221 4.71973 9.56127C4.71973 9.4587 4.73852 9.39433 4.78582 9.29616C4.78582 9.29616 5.16718 8.50307 5.31565 8.19633C5.33417 8.15807 5.34014 8.11452 5.34014 8.05067C5.34014 7.95206 5.2445 7.87147 5.14422 7.869C5.0528 7.86672 4.9532 7.95423 4.9532 8.05395C4.9532 8.17506 5.01603 8.22906 5.08054 8.22906C5.15993 8.22906 5.19157 8.19642 5.19157 8.14068C5.19157 8.10184 5.17281 8.08504 5.14585 8.08504C5.07776 8.08504 5.09687 8.17669 5.09687 8.17669C5.06305 8.16928 5.03527 8.13473 5.05116 8.09158C5.02642 8.08608 5.00324 8.07309 4.98504 8.0523C5.00329 8.03461 5.02423 8.02095 5.05116 8.0163C5.03521 7.96365 5.05652 7.93793 5.10259 7.9271C5.09329 7.94735 5.09297 7.96598 5.09606 7.98357C5.16858 7.96294 5.27973 7.99576 5.27973 8.12104C5.27973 8.24542 5.19341 8.35015 5.03156 8.32398C5.07006 8.34239 5.08964 8.38006 5.0936 8.42218C5.06421 8.41072 5.03156 8.40909 5.03156 8.40909C5.05048 8.44246 5.07676 8.47122 5.07564 8.53674C5.04563 8.5231 5.01776 8.49784 4.97931 8.51383C5.03966 8.63259 4.96551 8.79596 4.77686 8.83462C4.8459 8.75368 4.87972 8.66629 4.87972 8.57929C4.87972 8.29734 4.80135 8.24995 4.80135 8.05393C4.80135 7.97192 4.84351 7.88335 4.92706 7.82316V7.82643C4.87184 7.81164 4.83646 7.78445 4.81612 7.7475C4.9423 7.71172 5.12571 7.71238 5.2242 7.75113C5.3374 7.76424 5.41642 7.8511 5.4397 7.89517C5.46299 7.93922 5.50822 8.09861 5.4397 8.24212C5.36472 8.39917 5.01117 9.14883 4.90094 9.38449C4.87756 9.43448 4.86339 9.48749 4.86339 9.54489C4.86339 9.68925 4.99563 9.73965 5.07074 9.73965C5.16053 9.73965 5.25196 9.67124 5.25196 9.58581C5.25196 9.53167 5.22257 9.49906 5.18012 9.49906C5.07862 9.49906 5.08479 9.58541 5.10502 9.63981C5.04185 9.61141 5.00513 9.56071 5.01523 9.50725C4.97946 9.50235 4.94542 9.48538 4.914 9.44997C4.93872 9.41875 4.96887 9.39516 5.01523 9.39432C4.99498 9.31138 5.05051 9.2763 5.10502 9.25685C5.08778 9.31772 5.07646 9.38778 5.18012 9.38778C5.25571 9.38778 5.31522 9.40087 5.34992 9.44997C5.35197 9.38451 5.35809 9.12591 5.35809 9.12591C5.36244 9.02874 5.22802 9.03152 5.14258 9.06045C5.17482 8.94852 5.24095 8.888 5.394 8.90333C5.35686 8.88778 5.31727 8.85283 5.31727 8.7855C5.31729 8.69438 5.39121 8.59344 5.43974 8.56359L5.464 9.5122L5.46399 9.51219Z" fill="#FEC50C"/>
<path d="M20 6L20 18L4 18L4 6L20 6ZM20 5L4 5C3.4 5 3 5.4 3 6L3 18C3 18.6 3.4 19 4 19L20 19C20.6 19 21 18.6 21 18L21 6C21 5.4 20.6 5 20 5Z" fill="none"/>
<path d="M20 6H4V18H20V6Z" fill="#00AFCA"/>
<path d="M13.9782 9.58594H13.9781C12.9681 9.58594 12.1494 10.3617 12.1494 11.3186C12.1494 12.2755 12.9681 13.0513 13.9781 13.0513H13.9782C14.9881 13.0513 15.8069 12.2755 15.8069 11.3186C15.8069 10.3617 14.9881 9.58594 13.9782 9.58594Z" fill="#FFE400"/>
<path fill-rule="evenodd" clip-rule="evenodd" d="M13.8904 8.55273C13.8758 8.5526 13.7937 9.1294 13.7612 9.25941C13.7328 9.54747 14.1494 9.53751 14.0812 9.24762L13.8904 8.55274L13.8904 8.55273Z" fill="#FFE400"/>
<path fill-rule="evenodd" clip-rule="evenodd" d="M14.0376 14.1352C14.0522 14.1363 14.1763 13.5663 14.2183 13.4388C14.2677 13.1533 13.8514 13.1358 13.8982 13.4295L14.0376 14.1352L14.0376 14.1352Z" fill="#FFE400"/>
<path fill-rule="evenodd" clip-rule="evenodd" d="M11.124 11.3077C11.1228 11.3215 11.7238 11.4419 11.8582 11.4823C12.1593 11.5305 12.1797 11.1361 11.8696 11.1791L11.124 11.3077V11.3077Z" fill="#FFE400"/>
<path fill-rule="evenodd" clip-rule="evenodd" d="M16.9634 11.3773C16.964 11.3635 16.3583 11.2647 16.2222 11.2291C15.9193 11.1917 15.9163 11.5865 16.2243 11.5326L16.9634 11.3773Z" fill="#FFE400"/>
<path fill-rule="evenodd" clip-rule="evenodd" d="M11.7394 9.48438C11.7295 9.49453 12.1243 9.94043 12.2038 10.0508C12.4095 10.2646 12.6822 9.96608 12.4101 9.81864L11.7394 9.48438H11.7394Z" fill="#FFE400"/>
<path fill-rule="evenodd" clip-rule="evenodd" d="M16.2747 13.1565C16.2837 13.1456 15.8495 12.7339 15.7602 12.6305C15.5357 12.4344 15.2914 12.7542 15.576 12.8787L16.2747 13.1566V13.1565Z" fill="#FFE400"/>
<path fill-rule="evenodd" clip-rule="evenodd" d="M12.6452 8.85946C12.6319 8.86524 12.817 9.42025 12.8459 9.551C12.9498 9.82306 13.3222 9.64592 13.1302 9.41116L12.6452 8.85938L12.6452 8.85946Z" fill="#FFE400"/>
<path fill-rule="evenodd" clip-rule="evenodd" d="M15.289 13.8522C15.3027 13.8473 15.1588 13.2815 15.1394 13.1492C15.0558 12.8709 14.6713 13.0231 14.8456 13.27L15.289 13.8522V13.8522Z" fill="#FFE400"/>
<path fill-rule="evenodd" clip-rule="evenodd" d="M15.9365 9.24628C15.9259 9.23668 15.4491 9.60359 15.3313 9.67714C15.1024 9.86857 15.413 10.1317 15.573 9.8763L15.9365 9.24628Z" fill="#FFE400"/>
<path fill-rule="evenodd" clip-rule="evenodd" d="M12.0068 13.4087C12.0167 13.4189 12.5193 13.0843 12.6421 13.0187C12.8845 12.8428 12.5939 12.5598 12.4156 12.8041L12.0068 13.4087V13.4087Z" fill="#FFE400"/>
<path fill-rule="evenodd" clip-rule="evenodd" d="M11.252 10.3105C11.246 10.3232 11.7706 10.6261 11.8831 10.7066C12.1502 10.8469 12.3078 10.4814 12.0003 10.4241L11.252 10.3106L11.252 10.3105Z" fill="#FFE400"/>
<path fill-rule="evenodd" clip-rule="evenodd" d="M16.7077 12.4257C16.7146 12.4135 16.2135 12.0768 16.1071 11.9892C15.851 11.8316 15.6669 12.1858 15.9695 12.2632L16.7077 12.4257L16.7077 12.4257Z" fill="#FFE400"/>
<path fill-rule="evenodd" clip-rule="evenodd" d="M14.9737 8.71293C14.9602 8.70774 14.6613 9.21626 14.5809 9.32599C14.4434 9.58433 14.835 9.71926 14.8833 9.42581L14.9737 8.71292V8.71293Z" fill="#FFE400"/>
<path fill-rule="evenodd" clip-rule="evenodd" d="M12.957 13.9599C12.9702 13.9659 13.3056 13.4783 13.3939 13.3741C13.55 13.1255 13.1692 12.9651 13.0995 13.2546L12.957 13.9599L12.957 13.9599Z" fill="#FFE400"/>
<path fill-rule="evenodd" clip-rule="evenodd" d="M11.293 12.4697C11.2983 12.4827 11.894 12.3405 12.0334 12.3209C12.3262 12.2388 12.1617 11.8761 11.903 12.0437L11.293 12.4697L11.293 12.4697Z" fill="#FFE400"/>
<path fill-rule="evenodd" clip-rule="evenodd" d="M16.7096 10.2668C16.7053 10.2536 16.1006 10.3561 15.96 10.3666C15.6619 10.4292 15.7995 10.8019 16.0698 10.6516L16.7096 10.2668L16.7096 10.2668Z" fill="#FFE400"/>
<path fill-rule="evenodd" clip-rule="evenodd" d="M14.4846 8.59181C14.4703 8.58889 14.2674 9.13827 14.2079 9.25941C14.119 9.53618 14.5292 9.60581 14.5239 9.30886L14.4846 8.59182L14.4846 8.59181Z" fill="#FFE400"/>
<path fill-rule="evenodd" clip-rule="evenodd" d="M13.4434 14.0874C13.4574 14.0913 13.7001 13.5566 13.7683 13.4396C13.8773 13.1694 13.4732 13.0729 13.4567 13.3695L13.4434 14.0874L13.4434 14.0874Z" fill="#FFE400"/>
<path fill-rule="evenodd" clip-rule="evenodd" d="M13.2338 8.64453C13.2195 8.6475 13.2756 9.2271 13.2746 9.3607C13.315 9.64747 13.7186 9.54948 13.5837 9.28138L13.2338 8.6446L13.2338 8.64453Z" fill="#FFE400"/>
<path fill-rule="evenodd" clip-rule="evenodd" d="M14.6958 14.0548C14.7103 14.0528 14.6967 13.4709 14.7075 13.3376C14.6883 13.0489 14.2784 13.1201 14.3933 13.3964L14.6958 14.0548H14.6958Z" fill="#FFE400"/>
<path fill-rule="evenodd" clip-rule="evenodd" d="M12.1976 9.12701C12.1856 9.13495 12.4724 9.64966 12.5256 9.7734C12.6791 10.0235 13.0121 9.78612 12.7789 9.58766L12.1977 9.12695L12.1976 9.12701Z" fill="#FFE400"/>
<path fill-rule="evenodd" clip-rule="evenodd" d="M15.741 13.5921C15.7536 13.585 15.5052 13.0527 15.4612 12.9257C15.3264 12.6662 14.9768 12.881 15.1949 13.0943L15.741 13.5921L15.741 13.5921Z" fill="#FFE400"/>
<path fill-rule="evenodd" clip-rule="evenodd" d="M11.4425 9.84766C11.4343 9.85914 11.8968 10.2422 11.9932 10.3397C12.2312 10.521 12.4522 10.1863 12.1594 10.0803L11.4425 9.84766H11.4425Z" fill="#FFE400"/>
<path fill-rule="evenodd" clip-rule="evenodd" d="M16.473 12.8473C16.482 12.8364 16.0487 12.4238 15.9596 12.3202C15.7356 12.1237 15.4905 12.443 15.7749 12.5681L16.473 12.8473H16.473Z" fill="#FFE400"/>
<path fill-rule="evenodd" clip-rule="evenodd" d="M11.1123 10.7479C11.1086 10.7613 11.6783 10.9789 11.8032 11.0409C12.0909 11.138 12.1834 10.753 11.8701 10.7441L11.1123 10.7479V10.7479Z" fill="#FFE400"/>
<path fill-rule="evenodd" clip-rule="evenodd" d="M16.8566 11.9887C16.8614 11.9755 16.309 11.7209 16.1889 11.6509C15.9091 11.5351 15.7885 11.913 16.1004 11.9425L16.8566 11.9887H16.8566Z" fill="#FFE400"/>
<path fill-rule="evenodd" clip-rule="evenodd" d="M11.0928 11.8552C11.0948 11.8689 11.709 11.8602 11.8495 11.8714C12.1544 11.8552 12.0822 11.4663 11.7897 11.5733L11.0928 11.8552L11.0928 11.8552Z" fill="#FFE400"/>
<path fill-rule="evenodd" clip-rule="evenodd" d="M16.8992 10.8863C16.8982 10.8725 16.2848 10.8408 16.1455 10.8203C15.8401 10.8164 15.8837 11.2091 16.1833 11.1217L16.8992 10.8863L16.8992 10.8863Z" fill="#FFE400"/>
<path fill-rule="evenodd" clip-rule="evenodd" d="M11.6191 13.0023C11.6273 13.0138 12.1758 12.7517 12.3073 12.7036C12.5741 12.5628 12.3298 12.243 12.116 12.4602L11.6191 13.0023L11.6191 13.0023Z" fill="#FFE400"/>
<path fill-rule="evenodd" clip-rule="evenodd" d="M16.395 9.73093C16.3877 9.71892 15.8213 9.94435 15.6865 9.98366C15.4101 10.1066 15.6304 10.4417 15.8595 10.2391L16.3949 9.73093H16.395Z" fill="#FFE400"/>
<path fill-rule="evenodd" clip-rule="evenodd" d="M12.5137 13.761C12.526 13.7685 12.9185 13.3208 13.0189 13.227C13.2043 12.997 12.8456 12.7961 12.741 13.0761L12.5137 13.761V13.761Z" fill="#FFE400"/>
<path fill-rule="evenodd" clip-rule="evenodd" d="M15.5145 8.9552C15.5028 8.94694 15.0784 9.36772 14.9713 9.45472C14.7696 9.6719 15.1127 9.89596 15.2375 9.62351L15.5145 8.95508L15.5145 8.9552Z" fill="#FFE400"/>
<path fill-rule="evenodd" clip-rule="evenodd" d="M4.99937 17.0429C5.0717 17.1147 5.04969 17.2367 5.25725 17.2223C5.57172 17.2223 5.58116 17.0285 5.58116 16.8922C5.58116 16.7582 5.10944 16.5692 5.08742 16.3707C5.06541 16.1721 5.19749 16.1171 5.30755 16.1171C5.41448 16.1171 5.48996 16.1793 5.48996 16.2367C5.48996 16.2917 5.43649 16.3061 5.36102 16.3061C5.28554 16.3061 5.39247 16.2678 5.32643 16.2367C5.26354 16.2032 5.2195 16.2821 5.2195 16.33C5.2195 16.3778 5.38303 16.3946 5.48996 16.3587C5.51511 16.4664 5.52455 16.4735 5.37045 16.6577C5.48052 16.586 5.48995 16.5692 5.6126 16.6099C5.48995 16.507 5.58115 16.2965 5.5843 16.2415C5.59059 16.1888 5.56228 16.1243 5.51511 16.0932C5.42706 16.0142 5.23522 16.0094 5.12201 16.0621C4.95534 16.1362 4.94591 16.3539 4.98994 16.4257L5.45222 16.8993C5.48367 16.9568 5.49624 17.1099 5.29812 17.1194C5.09371 17.1338 5.02138 16.8515 4.98364 16.7582C4.93647 16.8611 4.87987 17.1434 4.67231 17.129C4.47733 17.1194 4.4396 16.9663 4.47105 16.9089L4.9459 16.4257C4.98993 16.3539 4.9805 16.1362 4.81383 16.0621C4.70062 16.0094 4.50878 16.0142 4.42073 16.0932C4.37356 16.1243 4.34525 16.1888 4.3484 16.2415C4.35469 16.2965 4.44274 16.507 4.32324 16.6099C4.44274 16.5692 4.45532 16.586 4.56224 16.6577C4.41129 16.4735 4.42072 16.4664 4.44274 16.3587C4.5528 16.3946 4.71634 16.3778 4.71634 16.33C4.71634 16.2821 4.67231 16.2032 4.60627 16.2367C4.54023 16.2678 4.6503 16.3061 4.57482 16.3061C4.4962 16.3061 4.44274 16.2917 4.44274 16.2367C4.44274 16.1793 4.52136 16.1171 4.62829 16.1171C4.73835 16.1171 4.86729 16.1721 4.84842 16.3707C4.8264 16.5692 4.34211 16.7869 4.34211 16.9209C4.34211 17.0572 4.3767 17.2223 4.69118 17.2223C4.89873 17.2367 4.9239 17.1147 4.99937 17.0429Z" fill="#FFE400"/>
<path fill-rule="evenodd" clip-rule="evenodd" d="M4.97412 14.208C5.0496 14.1362 5.10935 13.9209 5.31691 13.9353C5.63453 13.9353 5.75404 14.1099 5.75404 14.2463C5.75404 14.3802 5.10936 15.4855 5.08734 15.684C5.06533 15.8826 5.1974 15.9376 5.30747 15.9376C5.41439 15.9376 5.48987 15.8754 5.48987 15.818C5.48987 15.763 5.43641 15.7486 5.36094 15.7486C5.28546 15.7486 5.39239 15.7869 5.32635 15.818C5.26345 15.8515 5.21942 15.7725 5.21942 15.7247C5.21942 15.6769 5.38295 15.6601 5.48987 15.696C5.51503 15.5883 5.52447 15.5812 5.37037 15.397C5.48044 15.4687 5.48987 15.4855 5.61252 15.4448C5.48987 15.5477 5.58107 15.7582 5.58421 15.8132C5.5905 15.8658 5.5622 15.9304 5.51503 15.9615C5.42697 16.0405 5.23514 16.0453 5.12193 15.9926C4.95526 15.9185 4.94583 15.7008 4.98985 15.629L5.61252 14.2846C5.64396 14.2295 5.55591 14.0477 5.36094 14.0382C5.15338 14.0238 5.08105 14.2415 5.04646 14.3348L5.32635 14.3133C5.32635 14.3133 5.33893 14.3563 5.32635 14.385C5.18169 14.3946 5.04646 14.4209 5.04646 14.4209L5.03388 14.5645H5.1754L5.16281 14.629C5.16281 14.629 5.04646 14.6195 5.03388 14.629C5.02444 14.6362 5.01187 14.7726 5.01187 14.7726C5.01187 14.7726 4.98985 14.7798 4.96784 14.7798C4.94268 14.7798 4.92067 14.7726 4.92067 14.7726C4.92067 14.7726 4.91123 14.6362 4.89865 14.629C4.88922 14.6195 4.77286 14.629 4.77286 14.629L4.76028 14.5645H4.89865L4.88922 14.4209C4.88922 14.4209 4.75399 14.3946 4.60619 14.385C4.59675 14.3563 4.60619 14.3133 4.60619 14.3133L4.88922 14.3348C4.85148 14.2415 4.7823 14.0238 4.57474 14.0382C4.37662 14.0477 4.29171 14.2295 4.32316 14.2846L4.94582 15.629C4.98985 15.7008 4.98042 15.9185 4.81375 15.9926C4.70053 16.0453 4.5087 16.0405 4.42065 15.9615C4.37348 15.9304 4.34517 15.8658 4.34831 15.8132C4.3546 15.7582 4.44266 15.5477 4.32316 15.4448C4.44266 15.4855 4.45523 15.4687 4.56216 15.397C4.41121 15.5812 4.42064 15.5883 4.44265 15.696C4.55272 15.6601 4.71626 15.6769 4.71626 15.7247C4.71626 15.7725 4.67223 15.8515 4.60619 15.818C4.54015 15.7869 4.65021 15.7486 4.57474 15.7486C4.49612 15.7486 4.44265 15.763 4.44265 15.818C4.44265 15.8754 4.52128 15.9376 4.6282 15.9376C4.73827 15.9376 4.8672 15.8826 4.84833 15.684C4.82632 15.4855 4.18164 14.3802 4.18164 14.2463C4.18164 14.1099 4.30115 13.9353 4.61877 13.9353C4.82633 13.9209 4.89865 14.1362 4.97412 14.208Z" fill="#FFE400"/>
<path fill-rule="evenodd" clip-rule="evenodd" d="M4.97412 13.6611C5.0496 13.7329 5.10935 13.9482 5.31691 13.9339C5.63453 13.9339 5.75404 13.7592 5.75404 13.6229C5.75404 13.4889 5.10936 12.3837 5.08734 12.1851C5.06533 11.9866 5.1974 11.9315 5.30747 11.9315C5.41439 11.9315 5.48987 11.9937 5.48987 12.0511C5.48987 12.1062 5.43641 12.1205 5.36094 12.1205C5.28546 12.1205 5.39239 12.0822 5.32635 12.0511C5.26345 12.0177 5.21942 12.0966 5.21942 12.1444C5.21942 12.1923 5.38295 12.209 5.48987 12.1732C5.51503 12.2808 5.52447 12.288 5.37037 12.4722C5.48044 12.4004 5.48987 12.3837 5.61252 12.4243C5.48987 12.3215 5.58107 12.111 5.58421 12.0559C5.5905 12.0033 5.5622 11.9387 5.51503 11.9076C5.42697 11.8287 5.23514 11.8239 5.12193 11.8765C4.95526 11.9507 4.94583 12.1684 4.98985 12.2401L5.61252 13.5846C5.64396 13.6396 5.55591 13.8214 5.36094 13.831C5.15338 13.8453 5.08105 13.6276 5.04646 13.5344L5.32635 13.5559C5.32635 13.5559 5.33893 13.5128 5.32635 13.4841C5.18169 13.4745 5.04646 13.4482 5.04646 13.4482L5.03388 13.3047H5.1754L5.16281 13.2401C5.16281 13.2401 5.04646 13.2497 5.03388 13.2401C5.02444 13.2329 5.01187 13.0966 5.01187 13.0966C5.01187 13.0966 4.98985 13.0894 4.96784 13.0894C4.94268 13.0894 4.92067 13.0966 4.92067 13.0966C4.92067 13.0966 4.91123 13.2329 4.89865 13.2401C4.88922 13.2497 4.77286 13.2401 4.77286 13.2401L4.76028 13.3047H4.89865L4.88922 13.4482C4.88922 13.4482 4.75399 13.4745 4.60619 13.4841C4.59675 13.5128 4.60619 13.5559 4.60619 13.5559L4.88922 13.5344C4.85148 13.6276 4.7823 13.8453 4.57474 13.831C4.37662 13.8214 4.29171 13.6396 4.32316 13.5846L4.94582 12.2401C4.98985 12.1684 4.98042 11.9507 4.81375 11.8765C4.70053 11.8239 4.5087 11.8287 4.42065 11.9076C4.37348 11.9387 4.34517 12.0033 4.34831 12.0559C4.3546 12.111 4.44266 12.3215 4.32316 12.4243C4.44266 12.3837 4.45523 12.4004 4.56216 12.4722C4.41121 12.288 4.42064 12.2808 4.44265 12.1732C4.55272 12.209 4.71626 12.1923 4.71626 12.1444C4.71626 12.0966 4.67223 12.0177 4.60619 12.0511C4.54015 12.0822 4.65021 12.1205 4.57474 12.1205C4.49612 12.1205 4.44265 12.1062 4.44265 12.0511C4.44265 11.9937 4.52128 11.9315 4.6282 11.9315C4.73827 11.9315 4.8672 11.9866 4.84833 12.1851C4.82632 12.3837 4.18164 13.4889 4.18164 13.6229C4.18164 13.7592 4.30115 13.9339 4.61877 13.9339C4.82633 13.9482 4.89865 13.7329 4.97412 13.6611Z" fill="#FFE400"/>
<path fill-rule="evenodd" clip-rule="evenodd" d="M4.97412 10.0225C5.0496 9.95069 5.10935 9.73539 5.31691 9.74974C5.63453 9.74974 5.75404 9.92437 5.75404 10.0607C5.75404 10.1947 5.10936 11.2999 5.08734 11.4985C5.06533 11.697 5.1974 11.7521 5.30747 11.7521C5.41439 11.7521 5.48987 11.6899 5.48987 11.6324C5.48987 11.5774 5.43641 11.5631 5.36094 11.5631C5.28546 11.5631 5.39239 11.6013 5.32635 11.6324C5.26345 11.6659 5.21942 11.587 5.21942 11.5392C5.21942 11.4913 5.38295 11.4746 5.48987 11.5104C5.51503 11.4028 5.52447 11.3956 5.37037 11.2114C5.48044 11.2832 5.48987 11.2999 5.61252 11.2593C5.48987 11.3621 5.58107 11.5726 5.58421 11.6277C5.5905 11.6803 5.5622 11.7449 5.51503 11.776C5.42697 11.8549 5.23514 11.8597 5.12193 11.8071C4.95526 11.7329 4.94583 11.5152 4.98985 11.4435L5.61252 10.099C5.64396 10.044 5.55591 9.86217 5.36094 9.85261C5.15338 9.83825 5.08105 10.0559 5.04646 10.1492L5.32635 10.1277C5.32635 10.1277 5.33893 10.1708 5.32635 10.1995C5.18169 10.2091 5.04646 10.2354 5.04646 10.2354L5.03388 10.3789H5.1754L5.16281 10.4435C5.16281 10.4435 5.04646 10.4339 5.03388 10.4435C5.02444 10.4507 5.01187 10.587 5.01187 10.587C5.01187 10.587 4.98985 10.5942 4.96784 10.5942C4.94268 10.5942 4.92067 10.587 4.92067 10.587C4.92067 10.587 4.91123 10.4507 4.89865 10.4435C4.88922 10.4339 4.77286 10.4435 4.77286 10.4435L4.76028 10.3789H4.89865L4.88922 10.2354C4.88922 10.2354 4.75399 10.2091 4.60619 10.1995C4.59675 10.1708 4.60619 10.1277 4.60619 10.1277L4.88922 10.1492C4.85148 10.0559 4.7823 9.83825 4.57474 9.85261C4.37662 9.86217 4.29171 10.044 4.32316 10.099L4.94582 11.4435C4.98985 11.5152 4.98042 11.7329 4.81375 11.8071C4.70053 11.8597 4.5087 11.8549 4.42065 11.776C4.37348 11.7449 4.34517 11.6803 4.34831 11.6277C4.3546 11.5726 4.44266 11.3621 4.32316 11.2593C4.44266 11.2999 4.45523 11.2832 4.56216 11.2114C4.41121 11.3956 4.42064 11.4028 4.44265 11.5104C4.55272 11.4746 4.71626 11.4913 4.71626 11.5392C4.71626 11.587 4.67223 11.6659 4.60619 11.6324C4.54015 11.6013 4.65021 11.5631 4.57474 11.5631C4.49612 11.5631 4.44265 11.5774 4.44265 11.6324C4.44265 11.6899 4.52128 11.7521 4.6282 11.7521C4.73827 11.7521 4.8672 11.697 4.84833 11.4985C4.82632 11.2999 4.18164 10.1947 4.18164 10.0607C4.18164 9.92437 4.30115 9.74974 4.61877 9.74974C4.82633 9.73539 4.89865 9.95069 4.97412 10.0225Z" fill="#FFE400"/>
<path fill-rule="evenodd" clip-rule="evenodd" d="M4.97412 9.47755C5.0496 9.54931 5.10935 9.76461 5.31691 9.75026C5.63453 9.75026 5.75404 9.57563 5.75404 9.43927C5.75404 9.3053 5.10936 8.20008 5.08734 8.00152C5.06533 7.80296 5.1974 7.74794 5.30747 7.74794C5.41439 7.74794 5.48987 7.81014 5.48987 7.86755C5.48987 7.92258 5.43641 7.93693 5.36094 7.93693C5.28546 7.93693 5.39239 7.89865 5.32635 7.86755C5.26345 7.83406 5.21942 7.913 5.21942 7.96085C5.21942 8.00869 5.38295 8.02545 5.48987 7.98956C5.51503 8.09721 5.52447 8.10439 5.37037 8.28859C5.48044 8.21683 5.48987 8.20008 5.61252 8.24075C5.48987 8.13788 5.58107 7.92736 5.58421 7.87234C5.5905 7.81971 5.5622 7.75512 5.51503 7.72402C5.42697 7.64507 5.23514 7.64029 5.12193 7.69292C4.95526 7.76708 4.94583 7.98478 4.98985 8.05654L5.61252 9.40099C5.64396 9.45601 5.55591 9.63783 5.36094 9.64739C5.15338 9.66175 5.08105 9.44406 5.04646 9.35076L5.32635 9.37229C5.32635 9.37229 5.33893 9.32922 5.32635 9.30051C5.18169 9.29095 5.04646 9.26463 5.04646 9.26463L5.03388 9.1211H5.1754L5.16281 9.05651C5.16281 9.05651 5.04646 9.06608 5.03388 9.05651C5.02444 9.04933 5.01187 8.91297 5.01187 8.91297C5.01187 8.91297 4.98985 8.90579 4.96784 8.90579C4.94268 8.90579 4.92067 8.91297 4.92067 8.91297C4.92067 8.91297 4.91123 9.04933 4.89865 9.05651C4.88922 9.06608 4.77286 9.05651 4.77286 9.05651L4.76028 9.1211H4.89865L4.88922 9.26463C4.88922 9.26463 4.75399 9.29095 4.60619 9.30051C4.59675 9.32922 4.60619 9.37229 4.60619 9.37229L4.88922 9.35076C4.85148 9.44406 4.7823 9.66175 4.57474 9.64739C4.37662 9.63783 4.29171 9.45601 4.32316 9.40099L4.94582 8.05654C4.98985 7.98478 4.98042 7.76708 4.81375 7.69292C4.70053 7.64029 4.5087 7.64507 4.42065 7.72402C4.37348 7.75512 4.34517 7.81971 4.34831 7.87234C4.3546 7.92736 4.44266 8.13788 4.32316 8.24075C4.44266 8.20008 4.45523 8.21683 4.56216 8.28859C4.41121 8.10439 4.42064 8.09721 4.44265 7.98956C4.55272 8.02545 4.71626 8.00869 4.71626 7.96085C4.71626 7.913 4.67223 7.83406 4.60619 7.86755C4.54015 7.89865 4.65021 7.93693 4.57474 7.93693C4.49612 7.93693 4.44265 7.92258 4.44265 7.86755C4.44265 7.81014 4.52128 7.74794 4.6282 7.74794C4.73827 7.74794 4.8672 7.80296 4.84833 8.00152C4.82632 8.20008 4.18164 9.3053 4.18164 9.43927C4.18164 9.57563 4.30115 9.75026 4.61877 9.75026C4.82633 9.76461 4.89865 9.54931 4.97412 9.47755Z" fill="#FFE400"/>
<path fill-rule="evenodd" clip-rule="evenodd" d="M4.99937 6.63876C5.0717 6.56699 5.04969 6.44498 5.25725 6.45934C5.57172 6.45934 5.58116 6.65311 5.58116 6.78947C5.58116 6.92344 5.10944 7.11242 5.08742 7.31098C5.06541 7.50954 5.19749 7.56456 5.30755 7.56456C5.41448 7.56456 5.48996 7.50236 5.48996 7.44495C5.48996 7.38992 5.43649 7.37557 5.36102 7.37557C5.28554 7.37557 5.39247 7.41385 5.32643 7.44495C5.26354 7.47844 5.2195 7.3995 5.2195 7.35165C5.2195 7.30381 5.38303 7.28705 5.48996 7.32294C5.51511 7.21529 5.52455 7.20811 5.37045 7.02391C5.48052 7.09567 5.48995 7.11242 5.6126 7.07175C5.48995 7.17462 5.58115 7.38514 5.5843 7.44016C5.59059 7.49279 5.56228 7.55738 5.51511 7.58848C5.42706 7.66743 5.23522 7.67221 5.12201 7.61958C4.95534 7.54542 4.94591 7.32772 4.98994 7.25596L5.45222 6.78229C5.48367 6.72488 5.49624 6.57177 5.29812 6.5622C5.09371 6.54785 5.02138 6.83014 4.98364 6.92344C4.93647 6.82057 4.87987 6.53828 4.67231 6.55263C4.47733 6.5622 4.4396 6.71531 4.47105 6.77272L4.9459 7.25596C4.98993 7.32772 4.9805 7.54542 4.81383 7.61958C4.70062 7.67221 4.50878 7.66743 4.42073 7.58848C4.37356 7.55738 4.34525 7.49279 4.3484 7.44016C4.35469 7.38514 4.44274 7.17462 4.32324 7.07175C4.44274 7.11242 4.45532 7.09567 4.56224 7.02391C4.41129 7.20811 4.42072 7.21529 4.44274 7.32294C4.5528 7.28705 4.71634 7.30381 4.71634 7.35165C4.71634 7.3995 4.67231 7.47844 4.60627 7.44495C4.54023 7.41385 4.6503 7.37557 4.57482 7.37557C4.4962 7.37557 4.44274 7.38992 4.44274 7.44495C4.44274 7.50236 4.52136 7.56456 4.62829 7.56456C4.73835 7.56456 4.86729 7.50954 4.84842 7.31098C4.8264 7.11242 4.34211 6.89473 4.34211 6.76076C4.34211 6.6244 4.3767 6.45934 4.69118 6.45934C4.89873 6.44498 4.9239 6.56699 4.99937 6.63876Z" fill="#FFE400"/>
<path fill-rule="evenodd" clip-rule="evenodd" d="M11.1842 12.4731C11.2138 12.5839 11.2208 13.2071 11.8805 13.8027C12.5397 14.3984 13.6603 14.53 13.6603 14.53C13.6603 14.53 13.6678 14.6129 13.5871 14.62C13.5065 14.6266 13.1258 14.5508 12.9354 14.495C12.7446 14.44 12.5763 14.343 12.5542 14.3496C12.5322 14.3567 12.4956 14.4192 12.437 14.4121C12.3784 14.405 12.1074 14.1351 11.9902 14.066C11.873 13.9968 11.4773 13.5882 11.3455 13.387C11.2138 13.1862 11.1842 13.0546 11.1406 13.0546C11.0965 13.0546 10.9428 13.1517 10.9428 13.1517C10.9428 13.1517 10.8035 12.9509 10.6788 12.6323C10.5545 12.314 10.5691 12.127 10.5981 12.1133C10.6277 12.0991 10.6277 12.3486 10.7229 12.5769C10.818 12.8055 10.9498 12.8747 10.9498 12.8747C10.9498 12.8747 10.8621 12.7572 10.796 12.4594C10.7299 12.1616 10.7083 11.8775 10.7519 11.7875C10.796 11.6976 10.8401 11.6701 10.8471 11.6767C10.8546 11.6838 10.7669 11.8154 10.8255 12.1545C10.8842 12.494 11.0525 12.7847 11.089 12.771C11.1256 12.7572 11.067 12.6877 11.0379 12.4869C11.0084 12.2861 11.067 12.1616 11.1186 12.1478C11.1406 12.127 11.1772 12.3694 11.1842 12.4731Z" fill="#FFE400"/>
<path fill-rule="evenodd" clip-rule="evenodd" d="M10.7227 13.0411C10.5985 12.9303 10.4006 12.5425 10.3565 12.5633C10.3124 12.5841 10.6791 13.1381 10.6861 13.1864C10.6936 13.2352 10.7743 13.3872 10.7157 13.3668C10.6571 13.346 10.2173 12.9094 10.2688 12.9928C10.3199 13.0756 10.6496 13.4568 10.6275 13.4776C10.6055 13.498 10.3565 13.2698 10.3495 13.2972C10.342 13.3252 10.5985 13.5538 10.5909 13.5813C10.5839 13.6088 10.4297 13.436 10.4297 13.4705C10.4297 13.5051 10.5909 13.6784 10.5909 13.7059C10.5909 13.7338 10.4517 13.5813 10.4958 13.6646C10.5398 13.7475 10.6641 13.8237 10.6571 13.8512C10.6496 13.8791 10.5544 13.8167 10.5544 13.8304C10.5544 13.8446 10.7377 13.9066 10.7813 13.9554C10.8254 14.0037 11.1259 14.3294 11.3528 14.4952C11.5798 14.6618 12.2249 14.9455 12.2685 14.9455C12.3126 14.9455 12.3787 14.8555 12.3637 14.8209C12.3492 14.7864 11.719 14.5856 11.5432 14.4331C11.3674 14.2807 10.9356 13.9208 10.8985 13.9C10.8619 13.8791 10.7668 13.8862 10.7668 13.8654C10.7668 13.8446 10.8915 13.8791 10.884 13.8654C10.8765 13.8512 10.7082 13.7821 10.7157 13.7684C10.7227 13.7546 10.8329 13.7958 10.8329 13.7821C10.8329 13.7684 10.635 13.6646 10.6421 13.6438C10.6496 13.623 10.7888 13.7059 10.7888 13.6921C10.7888 13.6784 10.5985 13.5538 10.6055 13.533C10.613 13.5122 10.7522 13.6296 10.7447 13.6022C10.7377 13.5742 10.635 13.4289 10.635 13.408C10.635 13.3872 10.8033 13.5605 10.8183 13.5259C10.8329 13.4914 10.7593 13.2073 10.7668 13.2006C10.7743 13.1935 10.891 13.2636 10.9131 13.2219C10.9346 13.1802 10.8268 13.1226 10.7227 13.0411Z" fill="#FFE400"/>
<path fill-rule="evenodd" clip-rule="evenodd" d="M12.8847 15.2217C12.7959 15.2328 12.7558 15.2042 12.8063 15.136C12.8761 15.1309 13.0617 15.0748 13.1272 15.0489C13.1932 15.0233 13.263 14.9863 13.3214 14.9369C13.3794 14.8827 13.4106 14.9715 13.3816 15.0173C13.3572 15.0495 13.2483 15.108 13.1684 15.1386C13.052 15.1753 12.9521 15.2261 12.8847 15.2217Z" fill="#FFE400"/>
<path fill-rule="evenodd" clip-rule="evenodd" d="M13.4703 14.9946C13.4117 14.9321 13.4633 14.8905 13.551 14.8422C13.6827 14.773 13.6461 14.6826 13.8149 14.6064C13.8881 14.5652 14.9355 14.1632 15.2801 13.9487C15.6242 13.7342 16.584 13.0486 16.8405 12.5774C17.0969 12.1068 16.9722 12.0722 17.0088 12.0514C17.0454 12.0305 17.0819 12.1205 17.0749 12.2247C17.0674 12.3284 16.9868 12.6399 17.0088 12.6679C17.0308 12.6953 17.397 12.4254 17.5438 12.093C17.69 11.7606 17.8073 11.4141 17.8804 11.4141C17.954 11.4141 17.7561 11.9822 17.6314 12.2038C17.5072 12.4254 17.3604 12.5362 17.397 12.5845C17.4336 12.6328 17.8002 12.3421 17.9245 12.1276C18.0492 11.9127 18.1664 11.719 18.1884 11.7606C18.2105 11.8019 18.0712 12.2592 17.8734 12.4737C17.6755 12.6882 17.4411 12.8407 17.4776 12.8753C17.5142 12.9098 17.7782 12.9444 18.0567 12.7645C18.3347 12.5845 18.3643 12.3213 18.4008 12.3355C18.4374 12.3492 18.3643 12.7091 18.1003 12.9307C17.8368 13.1523 17.4776 13.1731 17.4922 13.2218C17.5072 13.2702 18.2541 13.0206 18.2395 13.076C18.225 13.1314 17.2728 13.4847 17.2653 13.5192C17.2653 13.5472 17.4265 13.5542 17.683 13.4984C17.9395 13.4434 18.1809 13.2564 18.2175 13.2976C18.225 13.3601 18.0346 13.5126 17.7416 13.5817C17.4486 13.6509 17.3018 13.7479 17.2943 13.7687C17.2873 13.7896 17.8148 13.7063 17.8148 13.7342C17.8148 13.7617 17.126 13.8866 17.119 13.9212C17.1115 13.9558 17.7782 13.7962 17.7632 13.8308C17.7486 13.8658 16.8625 14.1149 16.8695 14.1286C16.877 14.1428 17.6094 13.9766 17.5949 14.0041C17.5803 14.032 16.3566 14.3573 16.3496 14.3781C16.3421 14.399 17.4265 14.1495 17.419 14.1703C17.4115 14.1911 16.855 14.3227 16.855 14.3365C16.855 14.3502 17.3018 14.2673 17.2943 14.2882C17.2873 14.309 16.1662 14.5789 16.1442 14.6206C16.1222 14.6622 16.7233 14.5098 16.7158 14.586C16.7082 14.6622 15.4189 15.0775 15.4119 15.0013C15.4044 14.925 16.1958 14.7314 16.1883 14.7105C16.1813 14.6897 15.734 14.7588 15.7269 14.7172C15.7194 14.676 16.02 14.586 15.9979 14.5652C15.9759 14.5443 15.749 14.6272 15.7705 14.5789C15.7926 14.5306 16.2178 14.3436 16.2103 14.3298C16.2028 14.3156 16.0565 14.3781 16.0711 14.3298C16.0856 14.2811 16.9943 14.032 16.9797 14.0041C16.9647 13.9766 16.562 14.0666 16.5254 14.0732C16.5109 14.0457 17.0894 13.845 17.0749 13.8104C17.0599 13.7758 16.7673 13.9279 16.7523 13.8866C16.7378 13.845 17.2578 13.6509 17.2287 13.6234C17.1991 13.5955 16.9577 13.6996 16.9281 13.6717C16.8991 13.6442 17.419 13.2976 17.3384 13.291C17.2578 13.2839 17.1626 13.3947 17.148 13.3256C17.1626 13.2356 17.5583 13.0902 17.4706 13.0206C17.3314 12.9794 16.855 13.0486 16.6571 13.1594C16.4593 13.2702 15.8076 13.8866 15.6463 13.9833C15.485 14.0803 14.943 14.2948 14.8403 14.3365C14.679 14.3919 14.65 14.4752 14.4887 14.5514C14.1956 14.6272 14.1956 14.7105 14.0564 14.7588C14.0053 14.773 13.4778 15.015 13.4703 14.9946Z" fill="#FFE400"/>
<path fill-rule="evenodd" clip-rule="evenodd" d="M12.7298 15.307C12.6422 15.3482 12.5615 15.459 12.6126 15.5007C12.6422 15.5561 12.7298 15.3833 12.803 15.3899C12.8766 15.397 12.9788 15.397 13.1766 15.4107C13.3745 15.4245 13.4772 15.3691 13.5869 15.3762C13.6971 15.3833 13.946 15.3208 14.0633 15.3208C14.1805 15.3208 14.2025 15.3345 14.217 15.2862C14.2316 15.2374 13.8509 15.2725 13.6821 15.2654C13.5138 15.2583 13.3014 15.2999 13.1766 15.2999C13.0594 15.2933 12.8545 15.2583 12.7298 15.307Z" fill="#FFE400"/>
<path d="M13.294 15.2533C13.294 15.217 13.2579 15.1875 13.2134 15.1875C13.1689 15.1875 13.1328 15.217 13.1328 15.2533C13.1328 15.2896 13.1689 15.3191 13.2134 15.3191C13.2579 15.3191 13.294 15.2896 13.294 15.2533Z" fill="#FFE400"/>
<path fill-rule="evenodd" clip-rule="evenodd" d="M15.1642 15.1268C15.2444 15.113 15.46 15.1822 15.6081 15.2167C15.8818 15.3138 16.3869 15.2655 16.3869 15.3138C16.3869 15.3621 16.3555 15.4246 16.2346 15.4317C16.1143 15.4383 15.8242 15.39 15.8324 15.39C15.8401 15.39 16.0654 15.4871 16.0011 15.5146C15.9368 15.5425 15.7439 15.4592 15.7115 15.48C15.6796 15.5008 15.8884 15.5425 15.8566 15.5562C15.8242 15.57 15.6791 15.5354 15.6307 15.5425C15.5824 15.5491 15.6714 15.5979 15.6153 15.6187C15.5587 15.6391 15.4646 15.5908 15.424 15.6045C15.3838 15.6187 15.5109 15.6945 15.4543 15.7016C15.3982 15.7087 15.263 15.667 15.1904 15.6599C15.1179 15.6533 15.2614 15.7295 15.2136 15.7362C15.1652 15.7433 15.0341 15.6808 15.0017 15.6808C14.9698 15.6808 15.0042 15.7641 14.9564 15.7641C14.908 15.7641 14.8509 15.6945 14.8273 15.6945C14.8031 15.6945 14.8278 15.7778 14.7794 15.7778C14.7311 15.7778 14.7141 15.6879 14.6735 15.6945C14.6261 15.7016 14.675 15.8124 14.6107 15.8053C14.5464 15.7987 14.5377 15.6879 14.4893 15.6945C14.4415 15.7016 14.4981 15.8053 14.4497 15.8053C14.4014 15.8053 14.3936 15.7016 14.3458 15.6945C14.2975 15.6879 14.3211 15.7916 14.2892 15.7916C14.2568 15.7916 14.2332 15.6945 14.2172 15.6945C14.2008 15.6945 14.2167 15.7916 14.1606 15.7845C14.1041 15.7778 14.1046 15.6737 14.0886 15.6808C14.0722 15.6879 14.0722 15.757 14.032 15.757C13.9919 15.757 13.9919 15.6879 13.976 15.6945C13.96 15.7016 13.9034 15.7916 13.8633 15.7778C13.8232 15.7641 13.8726 15.6945 13.8566 15.6945C13.8407 15.6945 13.7908 15.7433 13.7584 15.7362C13.7265 15.7295 13.7604 15.6737 13.7522 15.6737C13.744 15.6737 13.6704 15.7087 13.638 15.7087C13.6061 15.7087 13.5177 15.757 13.4935 15.7153C13.4693 15.6737 13.5562 15.6737 13.5722 15.6325C13.5886 15.5908 13.5254 15.4729 13.5897 15.4317C13.654 15.39 13.8551 15.4871 14.1524 15.4175C14.6987 15.2792 15.1205 15.1201 15.1642 15.1268Z" fill="#FFE400"/>
</svg>
