<svg width="24" height="24" viewBox="0 0 24 24" fill="none" xmlns="http://www.w3.org/2000/svg">
<path d="M20 6H4V18H20V6Z" fill="#CE1126"/>
<path d="M14.0696 11.6519C14.42 11.7459 14.95 11.7223 15.188 12.0003C14.838 11.9063 14.406 12.4727 14.0696 12.3487C14.3668 12.5567 9.748 12.3487 10.1184 12.3487C9.768 12.2547 9.238 12.2783 9 12.0003C9.35 12.0943 9.782 11.5279 10.1184 11.6519C9.8212 11.4439 9.306 11.2827 9.1864 10.9419C9.4836 11.1499 10.088 10.7643 10.3568 10.9971C10.1488 10.7003 9.714 10.3743 9.7236 10.0115C9.9316 10.3087 10.632 10.1495 10.8044 10.4635C10.7108 10.1131 10.428 9.66149 10.5468 9.32069C10.6408 9.67101 11.346 9.75801 11.408 10.1151C11.4396 9.75385 11.312 9.23096 11.5568 8.95312C11.5252 9.31444 12.162 9.63701 12.094 9.99417C12.2472 9.66549 12.332 9.13448 12.6312 8.95312C12.478 9.28185 12.978 9.80109 12.78 10.1151C13.0364 9.85873 13.284 9.38365 13.6412 9.32069C13.3848 9.57713 13.658 10.2303 13.3836 10.4635C13.712 10.3103 14.1 9.9484 14.4644 10.0115C14.1356 10.1647 14.168 10.8731 13.8312 10.9971C14.1928 10.9655 14.678 10.7607 15.0016 10.9419C14.6404 10.9735 14.44 11.6519 14.0696 11.6519Z" fill="#FCD116" stroke="#BD9C08" stroke-width="0.01"/>
<path d="M10.4286 12.0002L9.16504 11.4838L10.529 11.4306L9.51824 10.513L10.8182 10.9298L10.1822 9.72186L11.2614 10.5578L11.077 9.20542L11.805 10.3602L12.0942 9.02606L12.3834 10.3602L13.1114 9.20542L12.927 10.5578L14.0058 9.72186L13.3702 10.9298L14.6698 10.513L13.6594 11.4306L15.023 11.4838L13.7598 12.0002L15.023 12.5166H9.16504L10.4286 12.0002Z" fill="#FCD116" stroke="#BD9C08" stroke-width="0.01" stroke-linejoin="round"/>
<path d="M12.0938 13.6524C13.0074 13.6524 13.7481 12.9117 13.7481 11.9981C13.7481 11.0844 13.0074 10.3438 12.0938 10.3438C11.1801 10.3438 10.4395 11.0844 10.4395 11.9981C10.4395 12.9117 11.1801 13.6524 12.0938 13.6524Z" fill="#FCD116" stroke="#BD9C08" stroke-width="0.01"/>
<path d="M12.6377 7.99407L13.5249 7.99995C13.5305 7.96243 13.4489 7.88775 13.3789 7.87683C13.1545 7.84155 12.9861 7.91427 12.7133 7.91707L12.6377 7.99407Z" fill="#FCD116" stroke="#BD9C08" stroke-width="0.01"/>
<path d="M10.8707 7.78535C11.0791 8.04855 11.4831 8.23147 11.8687 8.23387C12.3887 8.23707 12.9655 7.81623 13.6627 7.68739L11.3863 7.64051C11.0915 7.43871 10.8679 7.46431 10.7155 7.58943L10.2803 7.60259C10.2187 7.63615 10.3311 7.77631 10.4223 7.78143L10.8707 7.78535Z" fill="#FCD116" stroke="#BD9C08" stroke-width="0.01"/>
<path d="M11.8999 7.63324C11.8171 7.25252 11.5115 7.08844 11.1443 7.03976C10.7199 6.98352 9.74353 6.92588 9.09473 6.73956C9.37553 7.0156 9.96313 7.1534 10.3715 7.21572C10.8039 7.28172 11.2247 7.37788 11.5583 7.62976L11.8999 7.63324Z" fill="#FCD116" stroke="#BD9C08" stroke-width="0.01"/>
<path d="M11.625 7.8882C11.7606 8.06236 11.971 8.05252 12.1974 7.90056C12.423 7.74912 12.6682 7.32268 12.7866 7.31568C13.6142 7.2676 14.6154 6.91824 15.093 6.64844C14.4874 6.73416 13.8874 6.83136 13.2766 6.83376C12.2346 6.83792 12.1114 7.31248 11.6866 7.6452" fill="#FCD116"/>
<path d="M11.625 7.8882C11.7606 8.06236 11.971 8.05252 12.1974 7.90056C12.423 7.74912 12.6682 7.32268 12.7866 7.31568C13.6142 7.2676 14.6154 6.91824 15.093 6.64844C14.4874 6.73416 13.8874 6.83136 13.2766 6.83376C12.2346 6.83792 12.1114 7.31248 11.6866 7.6452" stroke="#BD9C08" stroke-width="0.01" stroke-linecap="round"/>
<path d="M11.7861 7.6829C12.0081 7.54146 12.1885 7.35686 12.3965 7.20266C12.7409 6.94738 13.1385 6.9399 13.5657 6.93462C13.9441 6.92998 14.6073 6.77186 14.9673 6.6875" stroke="#BD9C08" stroke-width="0.01" stroke-linecap="round"/>
<path d="M11.5548 7.61787C11.4896 7.27743 11.1708 7.17526 10.7684 7.1141C10.3304 7.04758 9.88361 7.01055 9.44681 6.88983C9.33841 6.85991 9.23761 6.80702 9.13281 6.76562" stroke="#BD9C08" stroke-width="0.01"/>
<path d="M11.6943 8.1198C12.1055 8.14996 12.4107 8.02636 12.7615 7.85156" stroke="#BD9C08" stroke-width="0.01" stroke-linecap="round"/>
<path d="M10.2793 7.67188H10.7977" stroke="#BD9C08" stroke-width="0.01" stroke-linecap="round"/>
<path d="M10.9642 7.68166C11 7.68166 11.029 7.65265 11.029 7.61686C11.029 7.58107 11 7.55206 10.9642 7.55206C10.9284 7.55206 10.8994 7.58107 10.8994 7.61686C10.8994 7.65265 10.9284 7.68166 10.9642 7.68166Z" fill="#BD9C08"/>
<path d="M20 13H4V18H20V13Z" fill="#003F87"/>
<path d="M4 15.2499C4.53333 15.2499 5.06667 16 5.6 16C6.13333 16 6.66667 15.2499 7.2 15.2499C7.73333 15.2499 8.26667 16 8.8 16C9.33333 16 9.86667 15.2499 10.4 15.2499C10.9333 15.2499 11.4667 16 12 16C12.5333 16 13.0667 15.2499 13.6 15.2499C14.1333 15.2499 14.6667 16 15.2 16C15.7333 16 16.2667 15.2499 16.8 15.2499C17.3333 15.2499 17.8667 16 18.4 16C18.9333 16 19.4667 15.2499 20 15.2499V14C19.4667 14 18.9333 14.7501 18.4 14.7501C17.8667 14.7501 17.3333 14 16.8 14C16.2667 14 15.7333 14.7501 15.2 14.7501C14.6667 14.7501 14.1333 14 13.6 14C13.0667 14 12.5333 14.7501 12 14.7501C11.4667 14.7501 10.9333 14 10.4 14C9.86667 14 9.33333 14.7501 8.8 14.7501C8.26667 14.7501 7.73333 14 7.2 14C6.66667 14 6.13333 14.7501 5.6 14.7501C5.06667 14.7501 4.53333 14 4 14V15.2499Z" fill="white"/>
<path d="M4 17.2499C4.53333 17.2499 5.06667 18 5.6 18C6.13333 18 6.66667 17.2499 7.2 17.2499C7.73333 17.2499 8.26667 18 8.8 18C9.33333 18 9.86667 17.2499 10.4 17.2499C10.9333 17.2499 11.4667 18 12 18C12.5333 18 13.0667 17.2499 13.6 17.2499C14.1333 17.2499 14.6667 18 15.2 18C15.7333 18 16.2667 17.2499 16.8 17.2499C17.3333 17.2499 17.8667 18 18.4 18C18.9333 18 19.4667 17.2499 20 17.2499V16C19.4667 16 18.9333 16.7501 18.4 16.7501C17.8667 16.7501 17.3333 16 16.8 16C16.2667 16 15.7333 16.7501 15.2 16.7501C14.6667 16.7501 14.1333 16 13.6 16C13.0667 16 12.5333 16.7501 12 16.7501C11.4667 16.7501 10.9333 16 10.4 16C9.86667 16 9.33333 16.7501 8.8 16.7501C8.26667 16.7501 7.73333 16 7.2 16C6.66667 16 6.13333 16.7501 5.6 16.7501C5.06667 16.7501 4.53333 16 4 16V17.2499Z" fill="white"/>
<path d="M4 13.2499C4.53333 13.2499 5.06667 14 5.6 14C6.13333 14 6.66667 13.2499 7.2 13.2499C7.73333 13.2499 8.26667 14 8.8 14C9.33333 14 9.86667 13.2499 10.4 13.2499C10.9333 13.2499 11.4667 14 12 14C12.5333 14 13.0667 13.2499 13.6 13.2499C14.1333 13.2499 14.6667 14 15.2 14C15.7333 14 16.2667 13.2499 16.8 13.2499C17.3333 13.2499 17.8667 14 18.4 14C18.9333 14 19.4667 13.2499 20 13.2499V12C19.4667 12 18.9333 12.7501 18.4 12.7501C17.8667 12.7501 17.3333 12 16.8 12C16.2667 12 15.7333 12.7501 15.2 12.7501C14.6667 12.7501 14.1333 12 13.6 12C13.0667 12 12.5333 12.7501 12 12.7501C11.4667 12.7501 10.9333 12 10.4 12C9.86667 12 9.33333 12.7501 8.8 12.7501C8.26667 12.7501 7.73333 12 7.2 12C6.66667 12 6.13333 12.7501 5.6 12.7501C5.06667 12.7501 4.53333 12 4 12V13.2499Z" fill="white"/>
<path d="M20 6L20 18L4 18L4 6L20 6ZM20 5L4 5C3.4 5 3 5.4 3 6L3 18C3 18.6 3.4 19 4 19L20 19C20.6 19 21 18.6 21 18L21 6C21 5.4 20.6 5 20 5Z" fill="#B5B5B5"/>
</svg>
