<svg width="24" height="24" viewBox="0 0 24 24" fill="none" xmlns="http://www.w3.org/2000/svg">
<path d="M20 6H4V18H20V6Z" fill="#E8112D"/>
<path d="M10.8487 13.4802C10.9999 13.8836 10.6759 14.5069 10.9999 14.8002C10.8919 14.3602 11.2519 13.8836 11.1511 13.4802C11.0503 13.0769 10.6975 13.0769 10.8487 13.4802Z" fill="#FFEF00"/>
<path d="M10.9997 13.4795C12.0733 13.4795 12.9437 12.5931 12.9437 11.4995C12.9437 10.406 12.0733 9.51953 10.9997 9.51953C9.92602 9.51953 9.05566 10.406 9.05566 11.4995C9.05566 12.5931 9.92602 13.4795 10.9997 13.4795Z" fill="#E8112D"/>
<path d="M10.9999 13.0402C11.8946 13.0402 12.6199 12.3015 12.6199 11.3902C12.6199 10.479 11.8946 9.74023 10.9999 9.74023C10.1052 9.74023 9.37988 10.479 9.37988 11.3902C9.37988 12.3015 10.1052 13.0402 10.9999 13.0402Z" fill="#FFEF00"/>
<path d="M9.33984 12.8195C9.33984 12.4559 9.41016 12.0959 9.54677 11.76C9.68338 11.424 9.88361 11.1188 10.136 10.8617C10.3885 10.6046 10.6881 10.4007 11.0179 10.2615C11.3478 10.1224 11.7012 10.0508 12.0582 10.0508C12.4152 10.0508 12.7687 10.1224 13.0985 10.2615C13.4283 10.4007 13.728 10.6046 13.9804 10.8617C14.2328 11.1188 14.4331 11.424 14.5697 11.76C14.7063 12.0959 14.7766 12.4559 14.7766 12.8195H14.7986C14.7986 12.1143 14.5235 11.4379 14.0339 10.9392C13.5443 10.4406 12.8802 10.1604 12.1878 10.1604C11.4954 10.1604 10.8314 10.4406 10.3417 10.9392C9.85213 11.4379 9.57707 12.1143 9.57707 12.8195H9.33984Z" fill="#E8112D"/>
<path d="M9.73242 12.8192C9.73242 12.1326 10.0002 11.4742 10.4769 10.9887C10.9535 10.5032 11.6 10.2305 12.2741 10.2305C12.9482 10.2305 13.5947 10.5032 14.0714 10.9887C14.548 11.4742 14.8158 12.1326 14.8158 12.8192H14.8463C14.8463 12.1594 14.5889 11.5266 14.1309 11.0601C13.6728 10.5935 13.0515 10.3314 12.4037 10.3314C11.7559 10.3314 11.1346 10.5935 10.6766 11.0601C10.2185 11.5266 9.96114 12.1594 9.96114 12.8192H9.73242Z" fill="#E8112D"/>
<path d="M12.4901 10.3965C11.859 10.3965 11.2537 10.6519 10.8074 11.1064C10.3611 11.561 10.1104 12.1775 10.1104 12.8203C10.1104 13.4632 10.3611 14.0797 10.8074 14.5342C11.2537 14.9888 11.859 15.2442 12.4901 15.2442L12.6197 15.1538C12.3189 15.1538 12.0209 15.0934 11.743 14.9762C11.465 14.8589 11.2125 14.687 10.9997 14.4703C10.787 14.2536 10.6182 13.9964 10.5031 13.7133C10.388 13.4302 10.3287 13.1268 10.3287 12.8203C10.3287 12.5139 10.388 12.2105 10.5031 11.9274C10.6182 11.6442 10.787 11.387 10.9997 11.1703C11.2125 10.9536 11.465 10.7818 11.743 10.6645C12.0209 10.5472 12.3189 10.4869 12.6197 10.4869L12.4901 10.3965Z" fill="#E8112D"/>
<g clip-path="url(#clip0_14099_118661)">
<path fill-rule="evenodd" clip-rule="evenodd" d="M2.99023 6H21.009V18H2.99023V6Z" fill="#FF0000"/>
<path fill-rule="evenodd" clip-rule="evenodd" d="M8.46328 12.1195C8.78203 11.7305 9.44531 12.1102 9.98672 11.8313C9.34453 11.8664 8.99531 11.5219 8.48906 11.5711C9.01406 11.2477 9.46172 11.6766 10.0477 11.5055C9.27188 11.4398 9.30469 11.0906 8.59687 11.0414C9.225 10.7742 9.53437 11.318 10.1508 11.1938C9.42422 11.0273 9.33047 10.6008 8.79141 10.5094C9.57891 10.3922 9.52734 10.8563 10.2984 10.9125C9.51562 10.5773 9.71953 10.2844 9.06562 10.0289C9.79922 10.0125 9.75 10.5211 10.4953 10.6523C9.85781 10.2492 9.93516 9.88125 9.4125 9.59297C10.0336 9.60469 10.0922 10.2398 10.7273 10.4367C10.1625 9.98906 10.3102 9.60938 9.82266 9.20859C10.4414 9.35391 10.35 9.90234 10.9945 10.2539C10.5164 9.72422 10.6992 9.34453 10.2844 8.91094C10.8797 9.10078 10.6523 9.62344 11.2687 10.1203C10.9172 9.53672 11.1352 9.16406 10.7859 8.67422C11.3391 8.95781 11.0719 9.49219 11.5828 10.0219C11.3414 9.42422 11.5828 9.05391 11.3367 8.52422C11.8102 8.87578 11.5289 9.44531 11.9109 9.98906C11.7703 9.23906 12.0938 9.11719 11.993 8.46094C12.3516 8.90156 11.9508 9.34219 12.2273 9.99141C12.1922 9.25313 12.5859 9.08203 12.518 8.49141C12.8719 9.02109 12.3187 9.48281 12.5508 10.05C12.6094 9.35156 13.0687 9.16875 13.0758 8.625C13.357 9.12422 12.7477 9.48516 12.8461 10.1484C13.0453 9.41719 13.5352 9.32813 13.5961 8.83594C13.7625 9.4125 13.0945 9.67969 13.1344 10.3219C13.3336 9.67266 13.9453 9.59531 14.0719 9.11719C14.1492 9.72656 13.5469 9.83672 13.3758 10.5117C13.6922 9.96094 14.2477 9.91641 14.4961 9.48047C14.4773 10.0852 13.7977 10.1648 13.5891 10.7297C13.9805 10.2492 14.4727 10.3313 14.8641 9.90703C14.8219 10.4531 14.1305 10.4227 13.7625 10.9875C14.1867 10.5961 14.8266 10.7133 15.1523 10.3758C15.1359 10.8586 14.2875 10.8211 13.8867 11.2547C14.3789 10.9828 15.007 11.1422 15.368 10.8914C15.3023 11.3133 14.407 11.2148 13.9781 11.5477C14.5687 11.3836 15.0258 11.6344 15.5016 11.4539C15.2695 11.8641 14.4562 11.6039 14.025 11.8711C14.5406 11.7844 15.0844 12.0961 15.5508 11.9953C15.3984 12.3516 14.5055 11.9719 14.0273 12.1945C14.5992 12.1898 14.9719 12.5578 15.5039 12.532C15.2156 12.8555 14.4328 12.4125 13.9758 12.4875C14.5336 12.6047 14.9602 13.0641 15.382 13.0875C15.0328 13.3523 14.3859 12.7477 13.8586 12.8227C14.4023 12.968 14.857 13.5844 15.1664 13.5984C14.8313 13.8281 14.1703 13.0711 13.718 13.0992C14.2688 13.3477 14.5195 13.9781 14.8828 14.0672C14.4352 14.2102 13.9945 13.3828 13.5141 13.3523C14.0719 13.7039 14.1023 14.243 14.5312 14.482C14.0789 14.5922 13.7578 13.657 13.282 13.5773C13.7391 13.9125 13.8094 14.632 14.1117 14.857C13.6523 14.8805 13.4859 13.9031 13.0148 13.7625C13.418 14.1 13.3219 14.8313 13.6359 15.1453C13.1578 15.0445 13.2188 14.1938 12.7195 13.9055C13.0781 14.3602 12.8953 15.0047 13.1297 15.368C12.6633 15.1805 12.8648 14.4164 12.4219 13.9852C12.6633 14.468 12.4031 15.0305 12.5953 15.4969C12.1687 15.2883 12.4547 14.3859 12.1289 14.0273C12.2789 14.5852 12.0023 15.0469 12.1148 15.5461C11.6789 15.0422 12.1805 14.5336 11.8031 14.0203C11.9016 14.6086 11.4891 15.0211 11.5547 15.5133C11.2102 15.1102 11.7422 14.4656 11.4727 13.957C11.5289 14.5359 10.9969 15.0445 11.0344 15.4102C10.7531 14.9414 11.3461 14.3883 11.1867 13.8563C11.1539 14.4094 10.6148 14.7094 10.5141 15.2133C10.3336 14.6578 10.9734 14.257 10.9172 13.7109C10.7344 14.2289 10.2141 14.4375 10.0312 14.9414C9.88125 14.3859 10.6406 14.093 10.6594 13.5117C10.425 14.0555 9.80391 14.1773 9.59766 14.5945C9.52031 14.0438 10.3898 13.7977 10.4227 13.275C10.1414 13.7766 9.46172 13.7977 9.22734 14.1961C9.19219 13.6477 10.1086 13.5797 10.2516 13.0055C9.97266 13.432 9.22734 13.3781 8.91563 13.725C8.96484 13.2164 9.95625 13.1859 10.1156 12.7266C9.74531 13.0828 9.06094 12.9375 8.67422 13.2188C8.88984 12.7172 9.82031 12.8227 10.0289 12.4617C9.61875 12.675 8.88984 12.4664 8.52891 12.682C8.85703 12.2086 9.57891 12.4922 9.98906 12.1664C9.32344 12.2625 8.92266 11.9977 8.46094 12.1195H8.46328Z" fill="#FFFF00"/>
<path fill-rule="evenodd" clip-rule="evenodd" d="M14.334 12.0024C14.334 12.6193 14.0889 13.211 13.6527 13.6472C13.2164 14.0835 12.6248 14.3285 12.0078 14.3285C11.3909 14.3285 10.7992 14.0835 10.363 13.6472C9.92672 13.211 9.68164 12.6193 9.68164 12.0024C9.68164 11.3857 9.9266 10.7944 10.3626 10.3583C10.7986 9.92232 11.39 9.67737 12.0066 9.67737C12.6233 9.67737 13.2146 9.92232 13.6507 10.3583C14.0867 10.7944 14.3316 11.3857 14.3316 12.0024H14.334Z" fill="#FFFF00"/>
<path fill-rule="evenodd" clip-rule="evenodd" d="M14.0336 12.007C14.0336 12.5435 13.8205 13.0579 13.4412 13.4373C13.0618 13.8166 12.5474 14.0297 12.0109 14.0297C11.4745 14.0297 10.96 13.8166 10.5807 13.4373C10.2014 13.0579 9.98828 12.5435 9.98828 12.007C9.98828 11.4706 10.2014 10.9561 10.5807 10.5768C10.96 10.1975 11.4745 9.98438 12.0109 9.98438C12.5474 9.98438 13.0618 10.1975 13.4412 10.5768C13.8205 10.9561 14.0336 11.4706 14.0336 12.007Z" fill="#FF0000"/>
<path fill-rule="evenodd" clip-rule="evenodd" d="M13.7527 12.0117C13.7527 12.4723 13.5698 12.9141 13.2441 13.2398C12.9184 13.5655 12.4766 13.7485 12.016 13.7485C11.5554 13.7485 11.1137 13.5655 10.788 13.2398C10.4623 12.9141 10.2793 12.4723 10.2793 12.0117C10.2793 11.5511 10.4623 11.1094 10.788 10.7837C11.1137 10.458 11.5554 10.275 12.016 10.275C12.4766 10.275 12.9184 10.458 13.2441 10.7837C13.5698 11.1094 13.7527 11.5511 13.7527 12.0117Z" fill="#FFFF00"/>
<path fill-rule="evenodd" clip-rule="evenodd" d="M10.5369 10.875C11.0174 10.8633 11.615 10.9078 12.0111 11.2219C12.4343 10.9578 12.9325 10.84 13.4291 10.8867L13.6869 11.3578C13.2863 11.3213 12.883 11.3874 12.515 11.55C12.778 11.744 12.9894 11.9994 13.1308 12.294C13.2722 12.5886 13.3392 12.9134 13.326 13.2399C13.2627 13.3196 13.1619 13.4063 13.0986 13.486C13.1924 12.818 12.8408 12.0727 12.3275 11.6813C12.7447 12.2813 12.9908 12.8203 12.9229 13.5656L12.6885 13.7156C12.7963 13.0594 12.6416 12.286 12.1564 11.8406C12.4377 12.2508 12.7143 12.9891 12.5408 13.7391C12.4658 13.7625 12.3486 13.8258 12.2736 13.8469C12.3655 13.5392 12.3905 13.2154 12.3468 12.8972C12.3031 12.5791 12.1919 12.2739 12.0205 12.0024C11.6971 12.4664 11.5916 13.1742 11.7744 13.8305C11.6854 13.8071 11.6174 13.7789 11.526 13.7578C11.3924 13.0547 11.5775 12.2578 11.8986 11.843C11.5705 12.0328 11.2635 12.8438 11.3502 13.6711L11.1322 13.5703C11.0268 12.9539 11.3057 12.15 11.7064 11.686C11.2518 11.9719 10.8814 12.6774 10.9447 13.4344C10.8744 13.3735 10.8111 13.343 10.7408 13.2797C10.6611 12.6188 11.0455 11.9531 11.4932 11.5547C11.1158 11.3836 10.79 11.3508 10.3213 11.3578C10.3939 11.2055 10.4619 11.0274 10.5369 10.8727V10.875Z" fill="#FF0000"/>
</g>
<path d="M20 6L20 18L4 18L4 6L20 6ZM20 5L4 5C3.4 5 3 5.4 3 6L3 18C3 18.6 3.4 19 4 19L20 19C20.6 19 21 18.6 21 18L21 6C21 5.4 20.6 5 20 5Z" fill="none"/>
<defs>
<clipPath id="clip0_14099_118661">
<rect width="16" height="12" fill="white" transform="translate(4 6)"/>
</clipPath>
</defs>
</svg>
