<svg width="24" height="24" viewBox="0 0 24 24" fill="none" xmlns="http://www.w3.org/2000/svg">
<path d="M20 6H4V18H20V6Z" fill="#ED1C24"/>
<path d="M20 9H4V15H20V9Z" fill="white"/>
<path d="M11.8779 9C11.747 9.27147 11.5006 9.46122 11.2651 9.64077C11.2263 9.67411 11.13 9.73868 11.1999 9.78782C11.2597 9.72189 11.4241 9.8092 11.3286 9.88009C11.243 9.95899 11.1252 9.98788 11.0302 10.053C10.9461 10.098 10.8608 10.145 10.794 10.214C10.7895 10.3217 10.9297 10.262 10.9865 10.3069C11.0606 10.3849 10.9551 10.5164 10.8579 10.4864C10.7336 10.4901 10.6478 10.5979 10.6008 10.7007C10.5036 10.8488 10.3193 10.8926 10.1726 10.9769C10.0887 11.0251 10.0073 11.0785 9.92916 11.1347C9.82844 11.2026 9.91607 11.3369 10.0232 11.3039C10.1389 11.2926 10.243 11.203 10.3628 11.2288C10.4714 11.2664 10.5019 11.4063 10.4649 11.5039C10.4375 11.5821 10.371 11.6372 10.3178 11.6983C10.2314 11.7845 10.1184 11.8405 9.99919 11.8672C9.88401 11.9053 9.7805 11.9748 9.70495 12.0687C9.61726 12.1556 9.52992 12.244 9.42914 12.3165C9.3973 12.3966 9.48715 12.4647 9.56206 12.4626C9.71988 12.4528 9.82927 12.3256 9.96369 12.2602C10.0752 12.2108 10.2065 12.3292 10.1792 12.4437C10.1706 12.5551 10.0647 12.6116 9.97062 12.6459C9.69395 12.7829 9.45373 12.9816 9.24044 13.2009C9.19632 13.2895 9.07505 13.2634 9.00974 13.3252C8.9672 13.4034 9.07397 13.4447 9.13766 13.4366C9.41139 13.4042 9.6668 13.2902 9.90877 13.1648C9.99875 13.1224 10.0832 13.0666 10.1768 13.0328C10.2647 13.0115 10.3872 13.0491 10.4029 13.1476C10.4028 13.2516 10.2982 13.3092 10.2154 13.3499C9.95994 13.4821 9.67961 13.5552 9.40659 13.6426C9.30438 13.6144 9.22738 13.7936 9.3395 13.8258C9.45806 13.8659 9.58411 13.8338 9.70539 13.8285C10.0804 13.7719 10.4084 13.572 10.7589 13.4427C10.9046 13.3959 11.0767 13.4613 11.1486 13.5958C11.2208 13.7157 11.2142 13.8734 11.138 13.9899C11.0176 14.2438 10.8344 14.4772 10.5886 14.6232C10.4343 14.6984 10.2541 14.7272 10.1219 14.8425C9.99956 14.8822 10.1832 15.045 10.2097 14.9158C10.2832 14.817 10.4129 14.7875 10.5305 14.7834C10.7072 14.7645 10.8949 14.7323 11.0322 14.6118C11.1553 14.5176 11.2766 14.3877 11.4438 14.3857C11.5362 14.3965 11.6275 14.4696 11.7214 14.425C11.8034 14.388 11.9322 14.4097 11.9537 14.5091C11.9929 14.6254 12.1146 14.6784 12.2111 14.7406C12.246 14.7889 12.3621 14.9136 12.3889 14.8037C12.3673 14.7253 12.3981 14.6054 12.5025 14.6316C12.5937 14.6356 12.6805 14.6687 12.7715 14.6741C12.8927 14.6988 12.9937 14.7806 13.0625 14.8792C13.1099 14.9436 13.2136 15.0543 13.2906 14.9689C13.3384 14.8806 13.2471 14.8069 13.1729 14.7754C13.0645 14.7093 12.9719 14.6212 12.8772 14.5378C12.7376 14.4094 12.6171 14.246 12.5949 14.0541C12.5649 13.8628 12.5807 13.6677 12.606 13.4769C12.6379 13.3541 12.7974 13.287 12.9088 13.3523C13.0657 13.4228 13.2215 13.5237 13.4013 13.5128C13.6612 13.5183 13.9282 13.4692 14.1822 13.5434C14.4293 13.6201 14.606 13.8256 14.8467 13.9145C14.9006 13.9468 14.9696 13.9161 14.9893 13.8594C15.0132 13.8084 14.9963 13.7432 14.9465 13.7142C14.6675 13.4367 14.2862 13.3019 13.9634 13.0851C13.8618 13.0597 13.8433 12.8986 13.9372 12.8521C14.0607 12.7637 14.2355 12.8048 14.3451 12.896C14.4376 12.9494 14.5419 12.9894 14.6505 12.9895C14.7617 12.9552 14.7078 12.7967 14.6082 12.7847C14.4278 12.6844 14.2985 12.5197 14.1422 12.3891C14.0522 12.3141 13.9537 12.2381 13.8327 12.2235C13.7666 12.2116 13.699 12.209 13.632 12.2135C13.5692 12.1462 13.6529 12.0432 13.7342 12.0516C13.8175 12.0572 13.9004 12.0633 13.9836 12.0518C14.0767 12.0451 14.1696 12.0356 14.263 12.035C14.3384 12.0856 14.489 11.9982 14.4209 11.911C14.3466 11.8469 14.2392 11.8525 14.1504 11.8196C13.9944 11.7691 13.8357 11.7284 13.675 11.6964C13.5625 11.6898 13.5764 11.544 13.6752 11.5279C13.7399 11.5042 13.7961 11.5531 13.8582 11.5607C13.9642 11.5832 14.0737 11.5829 14.1797 11.6056C14.2695 11.5619 14.2001 11.4326 14.1188 11.4251C13.927 11.3575 13.7612 11.2355 13.5992 11.1169C13.4203 10.9843 13.258 10.831 13.0769 10.7015C13.0112 10.6614 12.9035 10.6499 12.8862 10.561C12.8801 10.4792 12.9778 10.4419 13.0471 10.4611C13.1454 10.4896 13.2369 10.5394 13.3371 10.5639C13.4157 10.577 13.4967 10.6 13.5725 10.5902C13.6686 10.5307 13.5312 10.4926 13.4815 10.472C13.3533 10.4039 13.2394 10.3131 13.124 10.2266C13.0265 10.1446 13.2067 10.1083 13.2687 10.1399C13.3723 10.1826 13.3841 10.0338 13.3067 9.99641C13.2154 9.95817 13.1369 9.89469 13.0541 9.83934C12.9046 9.73446 12.7352 9.65144 12.5514 9.62838C12.3453 9.60798 12.1529 9.49121 12.0436 9.31756C11.9758 9.2186 11.926 9.10916 11.8779 9ZM11.201 10.1392C11.3073 10.1423 11.2909 10.3309 11.1863 10.3183C11.0848 10.3119 11.091 10.1189 11.201 10.1392ZM12.203 10.2407C12.3064 10.2225 12.3283 10.4084 12.225 10.4171C12.1174 10.4361 12.0775 10.229 12.203 10.2407ZM11.9095 10.265C12.0143 10.2853 11.9957 10.4651 11.8899 10.4667C11.8126 10.4837 11.7292 10.5357 11.6509 10.4967C11.5872 10.4304 11.6792 10.3323 11.7503 10.3107C11.8048 10.2999 11.8549 10.2755 11.9095 10.265ZM12.585 10.2658C12.6859 10.302 12.6503 10.4777 12.5438 10.4754C12.4431 10.4887 12.3962 10.3232 12.4901 10.2839C12.5205 10.2733 12.5524 10.2643 12.585 10.2658ZM11.4456 10.465C11.5198 10.5346 11.476 10.669 11.3844 10.7011C11.3184 10.7373 11.2285 10.8228 11.1566 10.7524C11.1176 10.6664 11.2155 10.6017 11.2731 10.554C11.3244 10.5146 11.3812 10.4789 11.4456 10.465ZM12.2936 10.8533C12.4 10.9028 12.346 11.0915 12.2293 11.0798C12.1335 11.0559 12.146 10.8939 12.2425 10.881C12.2608 10.8741 12.2775 10.864 12.2936 10.8533ZM11.9563 10.8721C12.0557 10.9179 11.9798 11.0814 11.8797 11.0578C11.7758 11.0458 11.7777 10.866 11.8922 10.8822C11.9138 10.8812 11.9361 10.8806 11.9563 10.8721ZM12.6835 10.9658C12.7925 10.9325 12.9237 11.0431 12.8883 11.1553C12.8398 11.2423 12.7197 11.2533 12.6336 11.2208C12.5348 11.216 12.4684 11.0696 12.5564 11.0077C12.5928 10.9806 12.6387 10.9694 12.6835 10.9658ZM11.0737 10.9939C11.1638 10.9457 11.2595 11.0908 11.1829 11.1548C11.1321 11.2284 11.0018 11.2584 10.9443 11.1766C10.8965 11.0968 10.9737 10.9626 11.0737 10.9939ZM10.658 11.0627C10.7602 11.0765 10.8268 11.168 10.8646 11.2551C10.8738 11.3612 10.7148 11.4194 10.6455 11.3422C10.5675 11.294 10.4992 11.1949 10.5401 11.1029C10.5653 11.0664 10.6155 11.0513 10.658 11.0627ZM13.1453 11.4463C13.2562 11.4175 13.3368 11.5922 13.2415 11.6554C13.1544 11.7333 12.9851 11.6301 13.0305 11.5189C13.0531 11.4776 13.0982 11.4502 13.1453 11.4463ZM11.7333 11.6456C11.8263 11.6572 11.7962 11.8161 11.7102 11.8108C11.6179 11.7939 11.639 11.6366 11.7333 11.6456ZM11.2614 11.73C11.3373 11.6771 11.4352 11.8062 11.3721 11.8663C11.2964 11.9188 11.1983 11.7918 11.2614 11.73ZM12.0117 11.7456C12.0996 11.7982 12.1518 11.8964 12.1628 11.9954C12.1206 12.088 11.9579 12.0657 11.9395 11.9671C11.9073 11.8892 11.937 11.7889 12.0117 11.7456ZM12.2735 11.8987C12.3868 11.8707 12.3462 12.1041 12.2515 12.0231C12.2201 11.9863 12.2369 11.9258 12.2735 11.8987ZM10.6292 12.0612C10.7042 12.0396 10.8136 12.0624 10.8343 12.1472C10.8431 12.2269 10.7541 12.2684 10.6888 12.2882C10.5843 12.32 10.4821 12.3721 10.3697 12.3651C10.2854 12.3177 10.2552 12.2206 10.2251 12.1359C10.3064 12.0608 10.4262 12.0828 10.527 12.064C10.561 12.0623 10.5951 12.0615 10.6292 12.0612ZM13.1798 12.4269C13.2756 12.3807 13.3785 12.5304 13.2984 12.6003C13.1981 12.714 13.0051 12.7351 12.8853 12.6396C12.8709 12.539 12.9729 12.4659 13.0634 12.4515C13.1016 12.4409 13.1394 12.425 13.1798 12.4269ZM13.7179 12.5418C13.8266 12.5233 13.9123 12.6762 13.8346 12.7553C13.7611 12.8645 13.5858 12.8931 13.4856 12.8036C13.4465 12.7131 13.5258 12.6188 13.6102 12.5897C13.6464 12.5745 13.6808 12.555 13.7179 12.5418ZM11.0126 12.7043C11.1133 12.6945 11.2056 12.7929 11.1924 12.8908C11.2653 12.9615 11.1361 13.0932 11.0635 13.02C10.9995 12.9435 10.9998 12.8399 10.975 12.7484C10.9739 12.7281 10.9892 12.7018 11.0126 12.7043ZM11.7858 12.7613C11.89 12.717 12.0247 12.8397 11.968 12.9436C11.9275 13.0282 11.7696 12.9999 11.7748 12.9018C11.7746 12.8549 11.7707 12.8069 11.7858 12.7613ZM11.4096 12.8277C11.514 12.8041 11.6098 12.9375 11.5518 13.0265C11.4477 13.0356 11.3937 12.9139 11.4096 12.8277Z" fill="#00A651"/>
<path d="M20 6L20 18L4 18L4 6L20 6ZM20 5L4 5C3.4 5 3 5.4 3 6L3 18C3 18.6 3.4 19 4 19L20 19C20.6 19 21 18.6 21 18L21 6C21 5.4 20.6 5 20 5Z" fill="#B5B5B5"/>
</svg>
