<svg width="24" height="24" viewBox="0 0 24 24" fill="none" xmlns="http://www.w3.org/2000/svg">
<path d="M20 6H4V18H20V6Z" fill="#009543"/>
<path d="M20 6H4V14H20V6Z" fill="white"/>
<path d="M20 6H4V10H20V6Z" fill="#00209F"/>
<path d="M12.0301 10.3008C11.9782 10.3019 11.9277 10.3593 11.9277 10.3593L11.9321 10.9727L11.7385 11.1755H11.8952L11.8939 11.5273L10.9665 12.7761L10.8295 12.7287L10.5898 13.2398C10.5898 13.2398 11.1825 13.6109 12.0427 13.6008C12.9868 13.5896 13.4998 13.2227 13.4998 13.2227L13.2522 12.7182L13.1309 12.7709L12.1917 11.5286L12.1903 11.1664H12.3471L12.1337 10.966L12.135 10.3549C12.135 10.3549 12.0819 10.2997 12.0301 10.3008L12.0301 10.3008Z" fill="black" stroke="black" stroke-width="0.03"/>
<path d="M12.3531 11.7684H11.7119C11.7119 11.7684 11.4791 11.278 11.5168 10.9352C11.5552 10.5861 11.7548 10.4209 12.02 10.418C12.3336 10.4145 12.498 10.5717 12.5476 10.9212C12.5968 11.2675 12.3531 11.7684 12.3531 11.7684L12.3531 11.7684Z" stroke="black" stroke-width="0.1"/>
<path d="M10.9096 12.9375C10.8991 12.9515 10.8223 13.1052 10.8223 13.1052L10.955 13.0773L10.9096 12.9375V12.9375Z" fill="white"/>
<path d="M10.9864 13.1367L10.8467 13.1821L11.0144 13.2485L10.9864 13.1367H10.9864Z" fill="white"/>
<path d="M11.0488 12.9414L11.1187 13.1476L11.2899 13.0986L11.2445 13.0008L11.0488 12.9414Z" fill="white"/>
<path d="M11.1572 13.2204L11.1817 13.3042L11.4088 13.3602L11.318 13.168L11.1572 13.2204H11.1572Z" fill="white"/>
<path d="M11.4092 13.0469L11.4895 13.2391L11.6608 13.1727L11.6049 13.0888L11.4092 13.0469Z" fill="white"/>
<path d="M11.5205 13.309L11.5485 13.3824L11.814 13.4208L11.7022 13.2461L11.5205 13.309V13.309Z" fill="white"/>
<path d="M11.7754 13.1016L11.8732 13.2728L12.1213 13.1819L12.0934 13.1155L11.7754 13.1016V13.1016Z" fill="white"/>
<path d="M11.9189 13.3369L11.9714 13.4278L12.2788 13.4173L12.1635 13.2461L11.9189 13.3369H11.9189Z" fill="white"/>
<path d="M12.2441 13.11L12.328 13.2532L12.5237 13.1589L12.4713 13.082L12.2441 13.11V13.11Z" fill="white"/>
<path d="M12.5658 13.2188L12.3701 13.3166L12.4225 13.4005L12.6846 13.3585L12.5658 13.2188V13.2188Z" fill="white"/>
<path d="M12.6289 13.0668L12.7302 13.1926L12.8945 13.0633L12.8386 13.0039L12.6289 13.0668Z" fill="white"/>
<path d="M12.9287 13.1328L12.7715 13.2516L12.8134 13.325L13.0301 13.2691L12.9287 13.1328H12.9287Z" fill="white"/>
<path d="M13.1456 12.8867L13.184 12.9426L13.0757 13.1034L12.9639 12.9601L13.1456 12.8867Z" fill="white"/>
<path d="M13.2195 13.0234L13.2858 13.1562L13.1531 13.2016L13.1426 13.1387L13.2195 13.0234V13.0234Z" fill="white"/>
<path d="M20 6L20 18L4 18L4 6L20 6ZM20 5L4 5C3.4 5 3 5.4 3 6L3 18C3 18.6 3.4 19 4 19L20 19C20.6 19 21 18.6 21 18L21 6C21 5.4 20.6 5 20 5Z" fill="#B5B5B5"/>
</svg>
