<svg width="24" height="24" viewBox="0 0 24 24" fill="none" xmlns="http://www.w3.org/2000/svg">
<path d="M20 6H4V18H20V6Z" fill="#BF0A30"/>
<path d="M4 8H20H4ZM4 10H20H4ZM4 12H20H4ZM4 14H20H4ZM4 16H20H4Z" fill="black"/>
<path d="M4 8H20M4 10H20M4 12H20M4 14H20M4 16H20" stroke="white" stroke-width="0.7"/>
<path d="M9 6H4V11H9V6Z" fill="#002868"/>
<path d="M20 6L20 18L4 18L4 6L20 6ZM20 5L4 5C3.4 5 3 5.4 3 6L3 18C3 18.6 3.4 19 4 19L20 19C20.6 19 21 18.6 21 18L21 6C21 5.4 20.6 5 20 5Z" fill="none"/>
<path d="M6.5 7L6.83677 8.03647H7.92658L7.04491 8.67705L7.38168 9.71353L6.5 9.07295L5.61832 9.71353L5.95509 8.67705L5.07342 8.03647H6.16323L6.5 7Z" fill="white"/>
</svg>
