<svg width="24" height="24" viewBox="0 0 24 24" fill="none" xmlns="http://www.w3.org/2000/svg">
<path d="M20 6H4V18H20V6Z" fill="#239E46"/>
<path d="M20 6H4V15H20V6Z" fill="black"/>
<path d="M20 6H4V9H20V6Z" fill="#E70013"/>
<path d="M12 12.625C12.6213 12.625 13.125 12.1213 13.125 11.5C13.125 10.8787 12.6213 10.375 12 10.375C11.3787 10.375 10.875 10.8787 10.875 11.5C10.875 12.1213 11.3787 12.625 12 12.625Z" fill="white"/>
<path d="M12.2275 12.4784C12.7673 12.4784 13.205 12.0408 13.205 11.5009C13.205 10.9611 12.7673 10.5234 12.2275 10.5234C11.6876 10.5234 11.25 10.9611 11.25 11.5009C11.25 12.0408 11.6876 12.4784 12.2275 12.4784Z" fill="black"/>
<path d="M12.5469 11.4986L14.06 11.007L13.1248 12.2941V10.7031L14.06 11.9903L12.5469 11.4986Z" fill="white"/>
<path d="M20 6L20 18L4 18L4 6L20 6ZM20 5L4 5C3.4 5 3 5.4 3 6L3 18C3 18.6 3.4 19 4 19L20 19C20.6 19 21 18.6 21 18L21 6C21 5.4 20.6 5 20 5Z" fill="#B5B5B5"/>
</svg>
