<svg width="24" height="24" viewBox="0 0 24 24" fill="none" xmlns="http://www.w3.org/2000/svg">
<path d="M20 6H4V18H20V6Z" fill="#D20000"/>
<path d="M4 6H6.4L12 11.7857L17.6 6H20L4 18H6.4L12 12.2143L17.6 18H20L4 6ZM20 10.8V13.2L4 10.8V13.2L20 10.8ZM11.2 6L12 11.1429L12.8 6H11.2ZM11.2 18L12 12.8571L12.8 18H11.2Z" fill="#FFE600"/>
<path d="M11.9996 13.2863C12.7097 13.2863 13.2853 12.7106 13.2853 12.0006C13.2853 11.2905 12.7097 10.7148 11.9996 10.7148C11.2895 10.7148 10.7139 11.2905 10.7139 12.0006C10.7139 12.7106 11.2895 13.2863 11.9996 13.2863Z" fill="#FFE600" stroke="#D20000"/>
<path d="M20 6L20 18L4 18L4 6L20 6ZM20 5L4 5C3.4 5 3 5.4 3 6L3 18C3 18.6 3.4 19 4 19L20 19C20.6 19 21 18.6 21 18L21 6C21 5.4 20.6 5 20 5Z" fill="#B5B5B5"/>
</svg>
