<svg width="24" height="24" viewBox="0 0 24 24" fill="none" xmlns="http://www.w3.org/2000/svg">
<path fill-rule="evenodd" clip-rule="evenodd" d="M4 6H20V17.9996H4V6Z" fill="#F41408"/>
<path fill-rule="evenodd" clip-rule="evenodd" d="M4 13.9995H20V17.9994H4V13.9995Z" fill="#21873B"/>
<path fill-rule="evenodd" clip-rule="evenodd" d="M4 6H20V9.99993H4V6Z" fill="black"/>
<path fill-rule="evenodd" clip-rule="evenodd" d="M9.51156 9.52496C10.0693 8.29345 11.6241 7.70438 12.9823 8.21008C13.6663 8.46477 14.1508 8.90391 14.432 9.52403L9.51173 9.52496H9.51156ZM8.86231 9.68408C8.27605 9.64466 7.6529 9.52269 7.55123 9.48914C7.44958 9.45556 7.44565 9.39951 7.45818 9.35657C7.4707 9.31364 7.53558 9.26489 7.61135 9.28307C7.7534 9.31714 8.33106 9.45569 8.86221 9.68415L8.86231 9.68408ZM11.9781 7.53638C11.8729 7.0119 11.8463 6.43447 11.8566 6.3368C11.8668 6.23915 11.9257 6.2216 11.9747 6.2218C12.0237 6.222 12.092 6.2667 12.0917 6.33775C12.091 6.47099 12.0884 7.0128 11.9781 7.53641V7.53638ZM12.2666 7.54856C12.2113 7.01782 12.2394 6.44045 12.2589 6.34395C12.2783 6.24745 12.3386 6.23455 12.3874 6.23855C12.4362 6.24255 12.5001 6.29238 12.493 6.36315C12.4797 6.49584 12.4259 7.03545 12.2666 7.54856ZM12.5281 7.58068C12.5212 7.04765 12.6016 6.47432 12.6297 6.37957C12.6579 6.28485 12.7191 6.2765 12.7674 6.28413C12.8156 6.29175 12.8747 6.3462 12.8613 6.4162C12.836 6.54744 12.7335 7.0812 12.5281 7.58068ZM12.8033 7.6365C12.8481 7.10497 12.9839 6.54029 13.0211 6.44815C13.0583 6.35605 13.1202 6.35262 13.1675 6.36405C13.2148 6.3755 13.2684 6.43445 13.2482 6.50309C13.2104 6.63184 13.0564 7.15532 12.8033 7.6365ZM13.0746 7.71485C13.1712 7.18902 13.3617 6.63746 13.4078 6.54872C13.4539 6.45997 13.5158 6.46152 13.5618 6.47672C13.6079 6.49194 13.6555 6.55497 13.6287 6.62171C13.5784 6.74688 13.3737 7.25594 13.0747 7.71483L13.0746 7.71485ZM13.3273 7.81062C13.4732 7.29422 13.715 6.75946 13.7693 6.67459C13.8236 6.58974 13.8851 6.59609 13.9295 6.61484C13.974 6.63354 14.0155 6.70001 13.9825 6.76446C13.9205 6.88528 13.6687 7.37659 13.3273 7.81062ZM13.5761 7.92869C13.7713 7.42589 14.0637 6.91235 14.126 6.83216C14.1883 6.75191 14.249 6.76316 14.2915 6.78533C14.3339 6.80751 14.3688 6.87703 14.3297 6.93858C14.2563 7.05402 13.958 7.52346 13.5761 7.92872V7.92869ZM13.8113 8.06539C14.0541 7.5799 14.3948 7.09147 14.4646 7.01647C14.5344 6.94148 14.5938 6.95748 14.6339 6.9829C14.674 7.00835 14.7022 7.08037 14.6573 7.1386C14.5731 7.24779 14.2308 7.69188 13.8113 8.06541V8.06539ZM14.0328 8.22038C14.3214 7.75597 14.7079 7.29634 14.7846 7.22717C14.8613 7.15797 14.9189 7.17859 14.9565 7.20712C14.994 7.23562 15.0151 7.30961 14.9648 7.36406C14.8704 7.46618 14.4866 7.88147 14.0328 8.22038ZM14.2391 8.39263C14.5714 7.95289 15.0007 7.52566 15.0838 7.46286C15.1669 7.40001 15.2223 7.42511 15.2569 7.45651C15.2916 7.48791 15.3054 7.56326 15.25 7.61353C15.1462 7.70778 14.7238 8.09101 14.239 8.39265L14.2391 8.39263ZM14.4286 8.58124C14.8022 8.16961 15.2711 7.7782 15.36 7.72222C15.4488 7.66623 15.5016 7.69568 15.5331 7.7297C15.5645 7.7637 15.5711 7.8399 15.511 7.88557C15.3984 7.97117 14.9407 8.31935 14.4286 8.58124ZM14.5916 8.77461C15.0018 8.39278 15.5053 8.03836 15.599 7.98932C15.6927 7.94029 15.7426 7.97359 15.7708 8.00989C15.799 8.04619 15.7985 8.12259 15.7345 8.16353C15.6144 8.24031 15.126 8.55252 14.5916 8.77461ZM14.7391 8.9843C15.1839 8.63572 15.7189 8.32163 15.8169 8.28003C15.9149 8.23843 15.9615 8.27553 15.9862 8.31385C16.0108 8.3522 16.0031 8.4283 15.9354 8.4641C15.8085 8.5313 15.2925 8.80446 14.7391 8.98428V8.9843ZM14.8758 9.22322C15.3543 8.91348 15.9191 8.64567 16.0209 8.61249C16.1228 8.57929 16.1653 8.62009 16.186 8.66037C16.2067 8.70061 16.1912 8.77574 16.1202 8.80571C15.9869 8.86196 15.4453 9.09063 14.8758 9.22322ZM14.9803 9.45399C15.4863 9.1826 16.0744 8.95973 16.179 8.93456C16.2836 8.90941 16.3221 8.95338 16.3389 8.9951C16.3557 9.03685 16.3332 9.11045 16.2596 9.1348C16.1215 9.18047 15.5602 9.36617 14.9803 9.45399H14.9803ZM15.0643 9.6986C15.5947 9.46869 16.2022 9.29367 16.3088 9.27694C16.4154 9.26027 16.4496 9.30714 16.4622 9.35004C16.4749 9.39294 16.4453 9.46449 16.3696 9.48286C16.2277 9.51731 15.6505 9.65746 15.0644 9.6986H15.0643ZM11.6958 7.54633C11.5376 7.0329 11.4522 6.46017 11.4525 6.36205C11.4527 6.26395 11.5096 6.24155 11.5583 6.23765C11.6071 6.23373 11.6797 6.2725 11.6866 6.34327C11.6996 6.47599 11.7522 7.0157 11.6958 7.54631V7.54633ZM11.4183 7.57885C11.2112 7.07992 11.0711 6.51612 11.0619 6.41837C11.0527 6.32062 11.1072 6.29383 11.1554 6.28605C11.2036 6.2783 11.2797 6.31118 11.2934 6.38112C11.319 6.51232 11.4235 7.04577 11.4183 7.57883V7.57885ZM11.1426 7.63385C10.8878 7.15342 10.6933 6.60301 10.6746 6.50634C10.6559 6.40972 10.7076 6.37867 10.7548 6.3671C10.8021 6.3555 10.8811 6.38215 10.9015 6.45075C10.9398 6.57939 11.0957 7.10247 11.1423 7.63383L11.1426 7.63385ZM10.8826 7.7075C10.5838 7.24839 10.3386 6.71496 10.3111 6.62009C10.2834 6.52524 10.332 6.49034 10.378 6.47517C10.424 6.45997 10.5052 6.48047 10.532 6.54724C10.5822 6.67244 10.7865 7.18162 10.8827 7.7075H10.8826ZM10.6286 7.8018C10.2873 7.36759 9.99256 6.85516 9.95606 6.76278C9.91956 6.67041 9.96464 6.63186 10.0091 6.61316C10.0535 6.59447 10.1363 6.60856 10.1693 6.67304C10.2312 6.79388 10.4828 7.28532 10.6283 7.8018H10.6286ZM10.3718 7.92187C9.98899 7.51731 9.64456 7.031 9.59906 6.942C9.55356 6.85301 9.59458 6.81093 9.63696 6.78868C9.67936 6.76643 9.76323 6.77371 9.80251 6.83518C9.87611 6.9505 10.1755 7.41939 10.3718 7.92189L10.3718 7.92187ZM10.1381 8.05616C9.71806 7.68308 9.32881 7.22554 9.27481 7.14045C9.22098 7.05535 9.25788 7.0102 9.29798 6.98473C9.33811 6.95923 9.42236 6.95993 9.46733 7.01812C9.55163 7.12722 9.89456 7.57093 10.138 8.05619L10.1381 8.05616ZM9.91906 8.20556C9.46558 7.86632 9.03451 7.44058 8.97288 7.35996C8.91126 7.27932 8.94376 7.23149 8.98131 7.20302C9.01888 7.17452 9.10291 7.16867 9.15318 7.22317C9.24746 7.32536 9.63088 7.7409 9.91906 8.20556ZM9.70631 8.37925C9.22131 8.07794 8.75006 7.68875 8.68081 7.61343C8.61151 7.53808 8.63918 7.48783 8.67378 7.45643C8.70841 7.42499 8.79151 7.41239 8.84693 7.46261C8.95088 7.55676 9.37363 7.93967 9.70636 8.37915L9.70631 8.37925ZM9.52256 8.55744C9.01138 8.29413 8.50586 7.94212 8.42983 7.87232C8.35381 7.80252 8.37673 7.75032 8.40833 7.7164C8.43991 7.68245 8.52156 7.6636 8.58143 7.7094C8.69373 7.79535 9.15038 8.14478 9.52256 8.55742V8.55744ZM9.34656 8.76099C8.81161 8.53995 8.27355 8.23008 8.19098 8.16671C8.1084 8.10331 8.12613 8.04946 8.15425 8.01314C8.1824 7.97679 8.26188 7.95139 8.32601 7.99222C8.44628 8.06876 8.93541 8.37998 9.34656 8.76101V8.76099ZM9.18881 8.98158C8.63403 8.80519 8.06735 8.54065 7.9788 8.48427C7.89025 8.4279 7.90255 8.37285 7.92695 8.33435C7.95135 8.29585 8.02798 8.26406 8.09593 8.29945C8.22333 8.36583 8.74141 8.63577 9.18883 8.9816L9.18881 8.98158ZM9.05781 9.20577C8.48818 9.0739 7.89823 8.85516 7.8046 8.80599C7.71098 8.75681 7.71793 8.70099 7.73853 8.66072C7.75915 8.62042 7.83243 8.58272 7.90353 8.61259C8.0368 8.66867 8.57888 8.89663 9.05778 9.20577H9.05781ZM8.95281 9.43041C8.37301 9.34232 7.7649 9.16917 7.66705 9.12727C7.5692 9.0854 7.57098 9.02923 7.5878 8.98753C7.6046 8.94581 7.67415 8.90266 7.74775 8.92706C7.88575 8.9728 8.44698 9.15875 8.95281 9.43041Z" fill="#F31509"/>
<path fill-rule="evenodd" clip-rule="evenodd" d="M8.86231 9.68623C8.27605 9.64681 7.6529 9.52483 7.55123 9.49129C7.44958 9.45771 7.44565 9.40166 7.45818 9.35872C7.4707 9.31579 7.53558 9.26704 7.61135 9.28522C7.7534 9.31929 8.33106 9.45784 8.86221 9.6863L8.86231 9.68623Z" fill="#F31509"/>
<path fill-rule="evenodd" clip-rule="evenodd" d="M7.23438 9.53723H16.7652V9.85127H7.23438V9.53723Z" fill="black"/>
<path d="M20 6L20 18L4 18L4 6L20 6ZM20 5L4 5C3.4 5 3 5.4 3 6L3 18C3 18.6 3.4 19 4 19L20 19C20.6 19 21 18.6 21 18L21 6C21 5.4 20.6 5 20 5Z" fill="#B5B5B5"/>
</svg>
