<svg width="24" height="24" viewBox="0 0 24 24" fill="none" xmlns="http://www.w3.org/2000/svg">
<path d="M20 6H4V18H20V6Z" fill="#CF142B"/>
<path d="M12.5 6H4V18H12.5V6Z" fill="white"/>
<path d="M4.41992 7.65741V8.56655H5.27852C5.27852 8.71803 5.42162 8.86957 5.56472 8.86957V9.77865H6.42326V8.86957C6.56636 8.86957 6.70946 8.71804 6.70946 8.56655H7.56806V7.65741H6.70946C6.70946 7.50593 6.56636 7.35439 6.42326 7.35439V6.44531H5.56472V7.35439C5.42161 7.35439 5.27852 7.50592 5.27852 7.65741H4.41992Z" fill="#E60D2E"/>
<path d="M4.47754 7.71991V8.50785H5.33608C5.33608 8.65933 5.47918 8.81085 5.62228 8.81085V9.71993H6.36635V8.81085C6.50946 8.81085 6.65256 8.65932 6.65256 8.50785H7.51109V7.71991H6.65256C6.65256 7.56843 6.50945 7.41689 6.36635 7.41689V6.50781H5.62228V7.41689C5.47918 7.41689 5.33608 7.56842 5.33608 7.71991H4.47754Z" fill="#96877D"/>
<path d="M4.50586 7.74724V8.47452H5.3644C5.3644 8.626 5.5075 8.77758 5.6506 8.77758V9.68666H6.33744V8.77758C6.48055 8.77758 6.62364 8.62599 6.62364 8.47452H7.48218V7.74724H6.62364C6.62364 7.59576 6.48054 7.44424 6.33744 7.44424V6.53516H5.6506V7.44424C5.5075 7.44424 5.3644 7.59577 5.3644 7.74724H4.50586Z" fill="#CCCCCC"/>
<path d="M5.59742 7.43449C5.64771 7.48775 5.63412 7.58848 5.56706 7.65949C5.5 7.7305 5.40487 7.74489 5.35458 7.69164C5.30429 7.63838 5.31788 7.53765 5.38494 7.46664C5.452 7.39563 5.54713 7.38124 5.59742 7.43449Z" fill="#96877D"/>
<path d="M5.34473 7.59356L5.36496 7.57212L5.44591 7.61496L5.40543 7.52926L5.42567 7.50781L5.50662 7.67923L5.34473 7.59352L5.34473 7.59356Z" fill="#D0D0D0"/>
<path d="M5.46582 7.46662L5.48606 7.44519L5.60748 7.57376L5.58724 7.59518L5.46582 7.46662Z" fill="#D0D0D0"/>
<path d="M5.99366 8.74944C6.32563 8.74944 6.59474 8.4645 6.59474 8.113C6.59474 7.76151 6.32563 7.47656 5.99366 7.47656C5.66169 7.47656 5.39258 7.76151 5.39258 8.113C5.39258 8.4645 5.66169 8.74944 5.99366 8.74944Z" stroke="#96877D" stroke-width="0.01"/>
<path d="M5.99409 8.59871C6.24702 8.59871 6.45206 8.38161 6.45206 8.11381C6.45206 7.846 6.24702 7.62891 5.99409 7.62891C5.74117 7.62891 5.53613 7.846 5.53613 8.11381C5.53613 8.38161 5.74117 8.59871 5.99409 8.59871Z" stroke="#96877D" stroke-width="0.01"/>
<path d="M5.76494 8.65813C5.78075 8.65813 5.79356 8.64457 5.79356 8.62783C5.79356 8.6111 5.78075 8.59753 5.76494 8.59753C5.74914 8.59753 5.73633 8.6111 5.73633 8.62783C5.73633 8.64457 5.74914 8.65813 5.76494 8.65813Z" fill="black"/>
<path d="M6.22295 8.65813C6.23876 8.65813 6.25157 8.64457 6.25157 8.62783C6.25157 8.6111 6.23876 8.59753 6.22295 8.59753C6.20715 8.59753 6.19434 8.6111 6.19434 8.62783C6.19434 8.64457 6.20715 8.65813 6.22295 8.65813Z" fill="black"/>
<path d="M5.97499 8.62898V8.66058H5.93682C5.89866 8.66058 5.89866 8.69217 5.93682 8.69217H5.97499V8.72377C5.97512 8.75651 6.00829 8.76049 6.01072 8.72651L6.01314 8.69236H6.0513C6.08946 8.69236 6.08946 8.66076 6.0513 8.66076H6.01314V8.62917C6.01314 8.59757 5.97498 8.59757 5.97498 8.62917L5.97499 8.62898Z" fill="black"/>
<path d="M5.43463 8.26964L5.47398 8.2597L5.46964 8.24039C5.46864 8.23596 5.46699 8.23295 5.46467 8.23136C5.46237 8.22976 5.4584 8.22932 5.45279 8.23002L5.45213 8.22713L5.48602 8.21857L5.48668 8.22146C5.4828 8.2225 5.48007 8.22375 5.47847 8.22523C5.47688 8.22671 5.47583 8.22846 5.47532 8.23049C5.47482 8.23251 5.47497 8.2353 5.47576 8.23884L5.48011 8.25816L5.51157 8.25022C5.51664 8.24894 5.51991 8.24775 5.52138 8.24667C5.52249 8.24583 5.52331 8.24447 5.52382 8.24258C5.52448 8.23999 5.52453 8.23744 5.52397 8.23494L5.52311 8.23111L5.52584 8.23042L5.53608 8.27592L5.53335 8.27661L5.53251 8.27286C5.53152 8.26848 5.5296 8.26561 5.52674 8.26423C5.52488 8.26338 5.52095 8.26371 5.51495 8.26523L5.45026 8.28156C5.44519 8.28284 5.44192 8.28402 5.44045 8.28511C5.43933 8.28594 5.43852 8.28727 5.43799 8.28911C5.43732 8.29165 5.43727 8.2942 5.43784 8.29675L5.43868 8.30051L5.43595 8.3012L5.41819 8.22231L5.43997 8.21574L5.44058 8.21848C5.43621 8.22101 5.43313 8.22346 5.43135 8.22581C5.42956 8.22816 5.42847 8.23077 5.42808 8.23365C5.42769 8.23654 5.42812 8.24074 5.42936 8.24626L5.43462 8.26964L5.43463 8.26964ZM5.40927 8.0816C5.41002 8.06747 5.41574 8.05554 5.42642 8.04579C5.4371 8.03604 5.45002 8.03162 5.46518 8.03252C5.4808 8.03346 5.49348 8.03945 5.50323 8.05049C5.51298 8.06154 5.51747 8.07447 5.51668 8.08929C5.51588 8.10427 5.51018 8.11656 5.49959 8.12615C5.48899 8.13574 5.47571 8.14006 5.45974 8.13911C5.44342 8.13813 5.43042 8.13145 5.42074 8.11907C5.41234 8.10832 5.40852 8.09583 5.40927 8.0816L5.40927 8.0816ZM5.41472 8.08345C5.41421 8.09319 5.4172 8.1012 5.42371 8.10749C5.43181 8.11533 5.44404 8.11974 5.46041 8.12071C5.47719 8.12171 5.4903 8.11868 5.49975 8.11163C5.50693 8.10621 5.51077 8.09871 5.51128 8.08913C5.51183 8.07891 5.50851 8.07025 5.50134 8.06314C5.49416 8.05603 5.48247 8.05199 5.46625 8.05102C5.44867 8.04998 5.43536 8.05286 5.42633 8.05967C5.41914 8.06515 5.41528 8.07307 5.41472 8.08345L5.41472 8.08345ZM5.56383 7.88443L5.55406 7.91162L5.49668 7.92797C5.49586 7.93056 5.49516 7.93266 5.49458 7.93426C5.49435 7.93491 5.49408 7.93561 5.49379 7.93635C5.4935 7.93709 5.49318 7.93785 5.49285 7.93864L5.5208 7.9499C5.52685 7.95234 5.53086 7.95316 5.53283 7.95235C5.5356 7.95128 5.53767 7.94885 5.53903 7.94504L5.54047 7.94106L5.54309 7.94212L5.5274 7.98576L5.52477 7.9847L5.52615 7.98087C5.5277 7.97657 5.52748 7.97295 5.5255 7.97003C5.52441 7.96839 5.52113 7.96646 5.51564 7.96425L5.45349 7.9392C5.44744 7.93676 5.44343 7.93594 5.44146 7.93676C5.43867 7.93787 5.43659 7.94036 5.4352 7.94421L5.43383 7.94804L5.4312 7.94698L5.44454 7.90988C5.44843 7.89906 5.45204 7.89138 5.45538 7.88685C5.45871 7.88232 5.46302 7.87907 5.46831 7.8771C5.47359 7.87513 5.479 7.87526 5.48453 7.87749C5.49045 7.87987 5.49484 7.88398 5.49773 7.88982C5.50061 7.89565 5.50141 7.90321 5.50013 7.9125L5.53529 7.90259C5.54336 7.90034 5.54905 7.89791 5.55237 7.89529C5.5557 7.89267 5.55864 7.8887 5.56121 7.88337L5.56383 7.88443V7.88443ZM5.48838 7.93684C5.48872 7.93588 5.48903 7.93506 5.4893 7.93437C5.48958 7.93368 5.4898 7.93311 5.48996 7.93266C5.49345 7.92294 5.4941 7.91482 5.4919 7.90828C5.4897 7.90175 5.48553 7.89724 5.47938 7.89477C5.47337 7.89234 5.46778 7.89237 5.46258 7.89483C5.45739 7.8973 5.45362 7.90181 5.45126 7.90837C5.45021 7.91127 5.44925 7.91539 5.44837 7.92071L5.48838 7.93683L5.48838 7.93684ZM5.70741 7.57578L5.72731 7.60312L5.72508 7.60465C5.71842 7.599 5.7122 7.59557 5.7064 7.59438C5.69804 7.59264 5.68983 7.59454 5.68176 7.60007C5.67076 7.60762 5.66521 7.61796 5.66512 7.63112C5.66508 7.64219 5.66834 7.6531 5.67492 7.66385C5.68025 7.67257 5.68672 7.67944 5.69431 7.68445C5.70189 7.68946 5.70929 7.69187 5.7165 7.69169C5.72371 7.6915 5.73004 7.68954 5.73547 7.68581C5.73866 7.68363 5.74148 7.68109 5.74393 7.67819C5.74638 7.6753 5.74847 7.67207 5.75022 7.66852L5.73404 7.64207C5.73123 7.63748 5.72907 7.63471 5.72754 7.63374C5.72602 7.63278 5.72434 7.6324 5.7225 7.6326C5.72067 7.63281 5.71801 7.6341 5.71453 7.63649L5.71296 7.63393L5.74641 7.61099L5.74798 7.61355L5.74639 7.61464C5.74307 7.61691 5.74152 7.61964 5.74171 7.62283C5.74188 7.62507 5.74347 7.62865 5.74647 7.63355L5.76359 7.66155C5.76041 7.66768 5.75684 7.67304 5.75288 7.6776C5.74892 7.68217 5.74403 7.68645 5.73821 7.69044C5.72152 7.70189 5.70538 7.70491 5.68978 7.69952C5.67808 7.69548 5.66883 7.6879 5.66204 7.6768C5.65711 7.66874 5.65422 7.65978 5.65336 7.6499C5.65233 7.63816 5.65415 7.62733 5.65882 7.61743C5.66276 7.60917 5.66904 7.60209 5.67766 7.59618C5.6808 7.59402 5.68383 7.59233 5.68673 7.59111C5.68962 7.58988 5.694 7.58858 5.69984 7.58719C5.70279 7.5865 5.70468 7.58588 5.70548 7.58533C5.70629 7.58478 5.70674 7.58391 5.70683 7.58273C5.70693 7.58155 5.70633 7.57977 5.70506 7.57739L5.70741 7.57577V7.57578ZM5.87502 7.58806L5.83651 7.59891L5.83394 7.61743C5.8333 7.62199 5.83324 7.62528 5.83374 7.6273C5.83414 7.6289 5.83522 7.63011 5.83697 7.63092C5.83872 7.63173 5.84203 7.63165 5.84692 7.63066L5.84764 7.63353L5.81631 7.64235L5.81559 7.63948C5.81956 7.63753 5.82199 7.63576 5.8229 7.63418C5.82477 7.63099 5.82627 7.62516 5.82739 7.6167L5.84061 7.52016L5.84318 7.51943L5.89981 7.5973C5.90436 7.60356 5.90804 7.60742 5.91084 7.60887C5.91365 7.61033 5.91711 7.61062 5.92123 7.60973L5.92195 7.61261L5.88271 7.62366L5.88199 7.62078C5.8859 7.61946 5.8884 7.61801 5.88949 7.61642C5.89059 7.61484 5.89092 7.61319 5.89049 7.61149C5.88992 7.60921 5.88804 7.60588 5.88485 7.60152L5.87503 7.58806L5.87502 7.58806ZM5.87153 7.58289L5.84396 7.54508L5.83734 7.59252L5.87153 7.58289L5.87153 7.58289ZM6.05326 7.58233L6.05574 7.58299L6.04585 7.61219L5.96621 7.60891L5.96632 7.60594L5.97019 7.6061C5.97454 7.60628 5.9777 7.6049 5.97968 7.60198C5.98081 7.60031 5.98149 7.59637 5.98171 7.59016L5.9843 7.51989C5.98455 7.51309 5.98399 7.5088 5.98264 7.50703C5.98076 7.50459 5.97787 7.50329 5.97397 7.50313L5.9701 7.50297L5.97022 7.5L6.01679 7.50192L6.01668 7.50489C6.01122 7.50461 6.00737 7.50499 6.00513 7.50602C6.00289 7.50706 6.00133 7.50841 6.00046 7.51009C5.99959 7.51177 5.99903 7.51585 5.99879 7.52233L5.99628 7.59076C5.99611 7.5952 5.99641 7.59827 5.99716 7.59997C5.99772 7.60112 5.99863 7.60198 5.99987 7.60257C6.00112 7.60316 6.00505 7.60359 6.01167 7.60386L6.01918 7.60417C6.02707 7.6045 6.03263 7.60411 6.03586 7.60301C6.0391 7.60191 6.04208 7.59985 6.04483 7.59682C6.04757 7.5938 6.05038 7.58897 6.05326 7.58233L6.05326 7.58233ZM6.19034 7.62117L6.19255 7.62254L6.17542 7.64769L6.09974 7.6212L6.10062 7.61837L6.1043 7.61966C6.10843 7.62111 6.11183 7.62072 6.1145 7.61849C6.11602 7.61722 6.1177 7.61363 6.11954 7.60773L6.14039 7.54095C6.14241 7.53449 6.143 7.53021 6.14216 7.52811C6.14099 7.52522 6.13855 7.52312 6.13485 7.52183L6.13118 7.52054L6.13206 7.51772L6.17631 7.53321L6.17543 7.53604C6.17026 7.53417 6.16646 7.5334 6.16403 7.53374C6.16161 7.53408 6.15976 7.53492 6.15848 7.53628C6.15721 7.53764 6.15561 7.5414 6.15368 7.54755L6.13338 7.61257C6.13206 7.61679 6.13154 7.61983 6.13181 7.62167C6.13206 7.62295 6.1327 7.62405 6.13374 7.62497C6.13478 7.6259 6.13845 7.62747 6.14475 7.62967L6.15188 7.63217C6.15938 7.6348 6.16482 7.63605 6.16821 7.63594C6.17161 7.63583 6.17502 7.63473 6.17844 7.63263C6.18187 7.63053 6.18584 7.62671 6.19034 7.62117L6.19034 7.62117ZM6.30081 7.68311L6.26828 7.65874L6.2532 7.6685C6.24948 7.67091 6.24706 7.67296 6.24592 7.67467C6.24501 7.67602 6.24482 7.67767 6.24535 7.67961C6.24589 7.68155 6.24807 7.68419 6.25192 7.68753L6.25029 7.68996L6.22384 7.67013L6.22546 7.66771C6.22941 7.66968 6.23225 7.67053 6.23399 7.67025C6.2375 7.66973 6.24268 7.66722 6.24954 7.66271L6.32804 7.61164L6.3302 7.61327L6.30998 7.70919C6.30836 7.7169 6.30792 7.72236 6.30865 7.72557C6.30939 7.72878 6.3114 7.73178 6.31468 7.73457L6.31306 7.737L6.27991 7.71216L6.28153 7.70973C6.285 7.71206 6.28765 7.71317 6.2895 7.71304C6.29135 7.71292 6.29276 7.71214 6.29372 7.71069C6.29501 7.70877 6.29622 7.70511 6.29734 7.69972L6.30081 7.68312L6.30081 7.68311ZM6.30232 7.67696L6.31211 7.63033L6.27345 7.65532L6.30232 7.67696L6.30232 7.67696ZM6.4244 7.70078L6.44103 7.72454L6.41648 7.82675L6.46417 7.78932C6.46925 7.78533 6.472 7.78224 6.47242 7.78005C6.47301 7.77711 6.4721 7.77392 6.46969 7.77048L6.46757 7.76745L6.46983 7.76567L6.49116 7.79615L6.4889 7.79792L6.48673 7.79482C6.48414 7.79112 6.48125 7.78933 6.47805 7.78943C6.47608 7.78951 6.47278 7.79136 6.46815 7.795L6.39844 7.84971L6.39682 7.84738L6.423 7.73739L6.37208 7.77736C6.367 7.78134 6.36423 7.78441 6.36378 7.78657C6.36322 7.78954 6.36413 7.79273 6.36651 7.79613L6.36868 7.79923L6.36643 7.801L6.34509 7.77052L6.34735 7.76875L6.34947 7.77179C6.35209 7.77553 6.355 7.77735 6.3582 7.77724C6.36017 7.77717 6.36347 7.77531 6.3681 7.77167L6.42561 7.72654C6.42664 7.7218 6.42714 7.71842 6.42711 7.71641C6.42709 7.71439 6.42657 7.71181 6.42557 7.70866C6.42506 7.70713 6.42391 7.70509 6.42214 7.70255L6.42439 7.70078L6.4244 7.70078ZM6.55418 7.95402L6.53181 7.96368L6.53085 7.9608C6.53467 7.95874 6.53728 7.95691 6.53867 7.95531C6.54092 7.95271 6.54226 7.94986 6.5427 7.94677C6.54315 7.94367 6.54267 7.94001 6.54124 7.93576L6.5364 7.92129L6.46226 7.94907C6.4563 7.9513 6.45281 7.95338 6.45178 7.95529C6.45042 7.95796 6.45041 7.96129 6.45175 7.96528L6.45294 7.96885L6.45029 7.96984L6.43573 7.92627L6.43838 7.92528L6.43959 7.92891C6.44105 7.93326 6.44331 7.93587 6.4464 7.93676C6.4483 7.9373 6.45197 7.93655 6.45741 7.93452L6.53155 7.90674L6.52742 7.89439C6.52582 7.88959 6.52434 7.88631 6.523 7.88454C6.52122 7.88225 6.51872 7.88065 6.51552 7.87975C6.51232 7.87885 6.50847 7.87904 6.50396 7.88033L6.503 7.87745L6.52616 7.87014L6.55419 7.95402L6.55418 7.95402ZM6.4727 8.14734L6.47128 8.11828L6.51753 8.07879C6.51729 8.07607 6.51714 8.07385 6.51705 8.07214C6.51701 8.07144 6.51699 8.0707 6.51698 8.06989C6.51696 8.06909 6.51696 8.06825 6.51697 8.0674L6.4871 8.06904C6.48063 8.0694 6.47665 8.07037 6.47515 8.07195C6.47303 8.07411 6.47207 8.07722 6.47227 8.08128L6.47248 8.08554L6.46967 8.0857L6.46738 8.03906L6.47019 8.0389L6.47039 8.043C6.47062 8.0476 6.47219 8.05081 6.47512 8.05264C6.47674 8.05367 6.48048 8.05403 6.48635 8.05371L6.55275 8.05005C6.55922 8.0497 6.5632 8.04873 6.5647 8.04714C6.56682 8.04493 6.56778 8.04177 6.56757 8.03765L6.56737 8.03355L6.57018 8.03339L6.57213 8.07305C6.57269 8.0846 6.57231 8.09317 6.57099 8.09874C6.56967 8.10431 6.56697 8.10913 6.56288 8.11319C6.5588 8.11725 6.5538 8.11945 6.54789 8.11977C6.54157 8.12012 6.53598 8.11824 6.53112 8.11414C6.52626 8.11003 6.52264 8.10346 6.52027 8.09441L6.49188 8.11851C6.48536 8.12402 6.48108 8.12868 6.47904 8.1325C6.477 8.13631 6.47582 8.1412 6.4755 8.14718L6.4727 8.14734L6.4727 8.14734ZM6.52175 8.06713C6.5218 8.06815 6.52182 8.06903 6.52184 8.06978C6.52185 8.07053 6.52188 8.07115 6.5219 8.07163C6.52241 8.08201 6.52491 8.08972 6.52942 8.09476C6.53392 8.0998 6.53946 8.10213 6.54603 8.10177C6.55245 8.10142 6.55756 8.099 6.56137 8.09453C6.56518 8.09005 6.56691 8.08431 6.56657 8.0773C6.56641 8.0742 6.56573 8.07002 6.56451 8.06478L6.52175 8.06713H6.52175ZM6.54997 8.29133L6.54086 8.3281L6.53814 8.32735L6.53864 8.32533C6.53898 8.32398 6.5389 8.32185 6.53842 8.31895C6.53793 8.31605 6.5369 8.31324 6.53532 8.31053C6.53374 8.30782 6.53097 8.30425 6.52699 8.29982L6.49547 8.26389L6.47051 8.25696C6.46439 8.25526 6.46039 8.25492 6.45852 8.25595C6.45597 8.25735 6.45417 8.26018 6.45312 8.26443L6.45227 8.26785L6.44956 8.26709L6.46065 8.22231L6.46337 8.22307L6.46244 8.2268C6.46134 8.23126 6.46183 8.23477 6.46391 8.23734C6.4652 8.23892 6.46863 8.24048 6.47421 8.24203L6.49778 8.24858L6.54665 8.23124C6.55239 8.22918 6.55603 8.22771 6.55755 8.22684C6.55908 8.22596 6.56117 8.22384 6.56383 8.22048C6.56458 8.21958 6.5652 8.21814 6.56569 8.21617L6.5684 8.21693L6.55723 8.26202L6.55451 8.26127L6.55509 8.25894C6.55569 8.2565 6.55571 8.25411 6.55515 8.25176C6.55458 8.24942 6.55322 8.24794 6.55106 8.24735C6.5493 8.24686 6.54573 8.24755 6.54034 8.24944L6.5028 8.26252L6.52837 8.29173C6.5322 8.29612 6.53524 8.29862 6.53749 8.29925C6.53886 8.29963 6.54018 8.29959 6.54144 8.29915C6.54271 8.2987 6.54382 8.29785 6.54478 8.29663C6.54574 8.2954 6.54656 8.29338 6.54726 8.29058L6.54997 8.29134L6.54997 8.29133Z" fill="black"/>
<path d="M6.32031 8.20447C6.33035 8.20178 6.34693 8.20396 6.34693 8.20396C6.34693 8.20396 6.34838 8.21126 6.34403 8.21369C6.34887 8.21664 6.36629 8.21574 6.36629 8.21574C6.36629 8.21574 6.35951 8.22125 6.35613 8.22343C6.36242 8.22407 6.37016 8.23265 6.37016 8.23265C6.37016 8.23265 6.35564 8.23521 6.34935 8.23163C6.35322 8.23983 6.35274 8.247 6.35274 8.247C6.35274 8.247 6.32927 8.24085 6.3208 8.22446" fill="#96877D"/>
<path d="M6.32031 8.20447C6.33035 8.20178 6.34693 8.20396 6.34693 8.20396C6.34693 8.20396 6.34838 8.21126 6.34403 8.21369C6.34887 8.21664 6.36629 8.21574 6.36629 8.21574C6.36629 8.21574 6.35951 8.22125 6.35613 8.22343C6.36242 8.22407 6.37016 8.23265 6.37016 8.23265C6.37016 8.23265 6.35564 8.23521 6.34935 8.23163C6.35322 8.23983 6.35274 8.247 6.35274 8.247C6.35274 8.247 6.32927 8.24085 6.3208 8.22446" stroke="black" stroke-width="0.01"/>
<path d="M6.28082 8.1925C6.27514 8.20736 6.2334 8.17969 6.2334 8.17969C6.2334 8.17969 6.25179 8.21056 6.27937 8.21402" fill="#96877D"/>
<path d="M6.28082 8.1925C6.27514 8.20736 6.2334 8.17969 6.2334 8.17969C6.2334 8.17969 6.25179 8.21056 6.27937 8.21402" stroke="black" stroke-width="0.01"/>
<path d="M5.76019 8.47659H6.24898L6.28673 8.44482L6.22381 8.40895L6.12702 8.37411L6.08831 8.35156L6.01668 8.35566L5.95667 8.38948L5.8744 8.39973L5.85504 8.4233L5.79406 8.42843L5.69824 8.42638L5.85795 8.45302L5.72631 8.44585L5.76019 8.47659L5.76019 8.47659Z" fill="#96877D" stroke="black" stroke-width="0.01"/>
<path d="M6.02347 8.32664C5.96225 8.2918 5.94435 8.37763 5.91797 8.39838C5.95354 8.40478 5.9804 8.36943 6.01089 8.35226C6.03401 8.41892 6.07041 8.37481 6.07041 8.37481C6.07041 8.37481 6.1084 8.4386 6.15898 8.40965C6.17277 8.42067 6.18801 8.41068 6.18801 8.41068C6.18801 8.41068 6.2064 8.41426 6.21027 8.40555C6.21995 8.40914 6.2306 8.39633 6.2306 8.39633C6.2306 8.39633 6.25165 8.39658 6.25577 8.38505C6.28698 8.39095 6.32836 8.31741 6.32836 8.31741L6.34094 8.29179L6.35933 8.2877C6.35933 8.2877 6.36054 8.27489 6.35062 8.2754C6.35038 8.26771 6.34409 8.26361 6.33513 8.26515C6.33683 8.26054 6.33029 8.25695 6.33029 8.25695C6.31287 8.26156 6.3119 8.30819 6.3119 8.30819C6.3119 8.30819 6.28142 8.33279 6.27028 8.33894C6.2698 8.31229 6.2277 8.27616 6.23641 8.259C6.24512 8.24183 6.27246 8.28539 6.29642 8.27745C6.32037 8.2695 6.33214 8.23651 6.3332 8.21083C6.32642 8.19341 6.30997 8.16471 6.30997 8.16471L6.29448 8.16369L6.28093 8.12885C6.28093 8.12885 6.25238 8.14857 6.25286 8.16574C6.25335 8.18291 6.28287 8.19751 6.28287 8.19751C6.28287 8.19751 6.26584 8.20877 6.24996 8.20366C6.24851 8.22108 6.26932 8.21775 6.27706 8.21801C6.28093 8.23056 6.29255 8.23748 6.29255 8.23748C6.29255 8.23748 6.29981 8.25669 6.28093 8.2549C6.26206 8.25311 6.23979 8.20706 6.21318 8.22825C6.18487 8.2508 6.22576 8.29179 6.22576 8.29179C6.22576 8.29179 6.20084 8.30563 6.18608 8.34099C6.12583 8.28718 6.0905 8.31229 6.02347 8.32664L6.02347 8.32664Z" fill="#96877D" stroke="black" stroke-width="0.01"/>
<path d="M5.93533 8.23433C5.96049 8.25944 5.94294 8.30117 5.95275 8.30914C5.96316 8.3176 5.97792 8.30504 5.97792 8.30504C6.00429 8.31247 6.05148 8.29684 6.05148 8.29684C6.07224 8.30914 6.06405 8.291 6.07664 8.29172C6.08777 8.32195 6.12504 8.31632 6.12504 8.31632C6.12504 8.31632 6.09092 8.27942 6.06987 8.26917C6.05366 8.27942 6.00647 8.28096 5.99824 8.27942C5.98908 8.27771 5.99486 8.26584 5.9905 8.25893C6.00785 8.24105 5.99413 8.19667 5.98469 8.18001C5.94623 8.15289 5.90029 8.19937 5.93533 8.23433L5.93533 8.23433Z" fill="#96877D" stroke="black" stroke-width="0.01"/>
<path d="M5.76745 8.1604C5.7358 8.16945 5.68087 8.1171 5.65521 8.13721C5.62954 8.15732 5.64152 8.20677 5.65863 8.23141C5.67535 8.25549 5.63416 8.26421 5.62304 8.27852C5.61259 8.29197 5.62646 8.3075 5.62646 8.3075L5.6381 8.31548L5.63604 8.33359L5.6422 8.35533C5.6422 8.35533 5.64785 8.36059 5.64973 8.35388C5.65504 8.3595 5.65029 8.37574 5.66342 8.3778C5.65872 8.3674 5.66684 8.33866 5.66684 8.33866C5.66684 8.33866 5.68977 8.34048 5.69559 8.32997C5.70141 8.31946 5.69011 8.29663 5.69011 8.29663H5.69696C5.68926 8.29102 5.68669 8.27417 5.68669 8.27417C5.68669 8.27417 5.71852 8.26348 5.71817 8.23794C5.71783 8.21239 5.6665 8.18522 5.68532 8.17199C5.7062 8.15732 5.74247 8.21004 5.77361 8.18576C5.80443 8.16174 5.78456 8.18504 5.78456 8.18504C5.78456 8.18504 5.79865 8.15147 5.76745 8.1604L5.76745 8.1604Z" fill="#96877D" stroke="black" stroke-width="0.01"/>
<path d="M5.93122 7.8029C5.88888 7.7842 5.80237 7.78305 5.75409 7.75781C5.73292 7.75922 5.72349 7.7769 5.72264 7.78395C5.7005 7.78279 5.68549 7.81969 5.68876 7.82699C5.64847 7.8097 5.62972 7.87721 5.64278 7.89104C5.60842 7.89258 5.61266 7.93908 5.60939 7.95202C5.59838 7.98033 5.61184 7.98986 5.63359 7.97969C5.63686 7.99199 5.63228 7.99888 5.62246 8.00121C5.6821 8.07348 5.71581 7.95674 5.76813 7.95714C5.83345 7.9369 5.85911 7.90283 5.85911 7.90283L5.88476 7.90642L5.93122 7.80291L5.93122 7.8029Z" fill="#96877D" stroke="black" stroke-width="0.01"/>
<path d="M5.98626 7.81579C6.02073 7.81579 6.04868 7.7862 6.04868 7.74969C6.04868 7.71319 6.02073 7.68359 5.98626 7.68359C5.95178 7.68359 5.92383 7.71319 5.92383 7.74969C5.92383 7.7862 5.95178 7.81579 5.98626 7.81579Z" fill="#96877D" stroke="black" stroke-width="0.01"/>
<path d="M5.87597 8.26915C5.83726 8.26172 5.77314 8.21919 5.7666 8.16359C5.80266 8.01371 5.98864 8.09198 6.00468 7.97925C6.00059 7.90487 6.01317 7.83125 6.05212 7.76903C6.07027 7.74469 6.09374 7.73828 6.09374 7.73828C6.09374 7.73828 6.09795 7.75416 6.09181 7.76493C6.12254 7.76134 6.16464 7.77953 6.19344 7.78132C6.20191 7.79952 6.20118 7.80618 6.19925 7.81719C6.19731 7.82821 6.18569 7.82539 6.18569 7.82539C6.17818 7.83294 6.16915 7.84061 6.14891 7.83667C6.13367 7.84896 6.10149 7.85204 6.10149 7.85204C6.10149 7.85204 6.16876 7.92711 6.15763 7.95042C6.17166 7.95734 6.19247 7.99039 6.19247 7.99039C6.19247 7.99039 6.23845 7.96477 6.25345 7.9412C6.28007 7.9412 6.32362 7.97066 6.3454 7.97399C6.37202 7.9968 6.39863 8.02011 6.39863 8.02011C6.39863 8.02011 6.36693 8.04215 6.35314 8.01294C6.33644 8.01448 6.30039 7.9722 6.25054 7.98527C6.24909 8.03215 6.20021 8.06521 6.20021 8.06521C6.20021 8.06521 6.24584 8.05844 6.27087 8.07443C6.29676 8.09749 6.33475 8.12874 6.33475 8.12874L6.36863 8.19023C6.36863 8.19023 6.33766 8.19587 6.32604 8.15334C6.31443 8.18767 6.31394 8.13207 6.26797 8.1062C6.25393 8.10799 6.24692 8.10902 6.23506 8.09902C6.20191 8.1085 6.16271 8.129 6.11601 8.12362C6.08286 8.13464 6.05866 8.16384 6.02502 8.17999C5.99139 8.19613 5.98147 8.18819 5.98147 8.18819L5.95437 8.18921C5.95046 8.20648 5.95267 8.23277 5.93791 8.23738C5.94735 8.24814 5.93114 8.294 5.91468 8.30194C5.92243 8.33141 5.94511 8.34043 5.96888 8.35523C5.96888 8.35523 5.98994 8.34499 6.00373 8.35831C6.01752 8.37163 6.0318 8.40955 6.0318 8.40955C6.0318 8.40955 6.00309 8.4116 5.99405 8.4075C5.98501 8.4034 5.98413 8.39341 5.97372 8.39623C5.90815 8.33448 5.87357 8.35904 5.86725 8.34499C5.86078 8.33058 5.88274 8.29298 5.87597 8.26915L5.87597 8.26915Z" fill="#96877D" stroke="black" stroke-width="0.01"/>
<path d="M5.71823 7.9934C5.72165 7.98887 5.7456 7.99847 5.7456 7.99847L5.7894 8.02746L5.87838 8.08833L5.90986 8.13688L5.85305 8.11732L5.77435 8.04558L5.73191 8.01659C5.73191 8.01659 5.7148 7.99793 5.71823 7.9934L5.71823 7.9934Z" fill="#96877D" stroke="black" stroke-width="0.01"/>
<path d="M6.24514 8.14893C6.21441 8.14073 6.13867 8.23809 6.13867 8.23809L6.19578 8.30368C6.19578 8.30368 6.19747 8.19197 6.24514 8.14893Z" fill="#96877D" stroke="black" stroke-width="0.01"/>
<path d="M5.87013 7.87591C5.85337 7.89865 5.85187 7.94449 5.87368 7.96298C5.87573 7.9908 5.89807 8.04692 5.91562 8.05219C5.9348 8.05794 6.01145 8.07678 6.04145 8.07166C6.03571 8.12315 6.07387 8.16448 6.1092 8.19156C6.10895 8.19618 6.10889 8.20183 6.11297 8.20754C6.11692 8.21307 6.13549 8.21408 6.1363 8.21104C6.14454 8.22329 6.18442 8.22867 6.18731 8.22321C6.19012 8.2179 6.12865 8.1726 6.11501 8.15877C6.10343 8.13589 6.08148 8.08489 6.07629 8.04399C6.04612 8.00598 5.99433 8.00674 5.99433 8.00674L5.99596 7.93228L5.99886 7.84824L5.97079 7.83287C5.97079 7.83287 5.97645 7.83014 5.9795 7.82672C5.98632 7.82983 5.99913 7.81532 6.0008 7.81123C6.00725 7.81365 6.0131 7.81362 6.01423 7.80996C6.01523 7.80674 6.01638 7.79237 6.01874 7.78495C6.03991 7.76521 6.01565 7.72335 5.98327 7.72266C5.95123 7.72198 5.94405 7.76313 5.94466 7.76626C5.94767 7.77917 5.94702 7.78568 5.94466 7.7888C5.94225 7.792 5.93111 7.79905 5.93111 7.79905C5.93111 7.79905 5.9132 7.79008 5.89143 7.79905C5.86965 7.80802 5.84521 7.82006 5.844 7.83492C5.83408 7.83646 5.81787 7.85004 5.81496 7.86157C5.80625 7.85977 5.79488 7.86746 5.77624 7.89949C5.74285 7.91511 5.74092 7.9907 5.74092 7.9907C5.74092 7.9907 5.7319 8.00459 5.73148 8.01196C5.73106 8.01933 5.73463 8.02605 5.73898 8.02477C5.73946 8.02964 5.74551 8.034 5.74818 8.03246C5.74914 8.03733 5.75579 8.04005 5.75979 8.03938C5.76015 8.04271 5.77304 8.04187 5.77407 8.03886C5.7752 8.03554 5.77279 8.01893 5.77431 8.0176C5.7757 8.01638 5.78641 8.02503 5.78931 8.02272C5.79222 8.02042 5.78876 8.01303 5.78713 8.01017C5.78568 8.00761 5.77649 8.00479 5.77431 7.99275C5.77213 7.9807 5.78012 7.96405 5.78012 7.96405C5.78012 7.96405 5.81641 7.93382 5.82053 7.90794C5.84787 7.91076 5.86233 7.88546 5.87013 7.87591L5.87013 7.87591Z" fill="#96877D" stroke="black" stroke-width="0.01"/>
<path d="M5.80664 7.76769C5.81493 7.74623 5.84487 7.74821 5.84487 7.74821C5.84487 7.74821 5.85558 7.71837 5.89593 7.73617C5.91111 7.72375 5.9511 7.74155 5.9511 7.74155C5.9511 7.74155 5.96607 7.72043 5.9857 7.72285C6.02206 7.72733 6.02811 7.76263 6.02587 7.76871C6.00597 7.77403 5.97149 7.75159 5.94529 7.75795C5.92999 7.76711 5.90519 7.77678 5.89593 7.78998C5.87167 7.79267 5.84578 7.76634 5.80664 7.76769V7.76769Z" fill="#96877D" stroke="black" stroke-width="0.01"/>
<path d="M5.88331 7.80648C5.89238 7.80059 5.91464 7.79023 5.92977 7.80289C5.94562 7.82095 5.96994 7.83774 5.96994 7.83774L5.99752 7.85003L6.0101 7.85823L6.00188 7.99197C5.97634 7.96431 5.95241 7.95947 5.93412 7.9269C5.92432 7.91293 5.93183 7.87937 5.91477 7.85721C5.89771 7.83505 5.87956 7.82006 5.88331 7.80648L5.88331 7.80648Z" fill="#96877D" stroke="black" stroke-width="0.01"/>
<path d="M5.94922 7.84485C5.94922 7.84485 5.96368 7.84195 5.9677 7.84557C5.97275 7.84738 5.97762 7.84892 5.97899 7.85354C5.98447 7.85526 5.98823 7.85825 5.98823 7.8626C5.99336 7.86405 5.99542 7.87383 5.99542 7.87383L5.99063 7.88144C5.99063 7.88144 5.98515 7.87601 5.98447 7.87021C5.981 7.8684 5.97334 7.8665 5.97146 7.86115C5.96547 7.86052 5.96162 7.85726 5.96051 7.85173C5.95495 7.85309 5.94922 7.84485 5.94922 7.84485V7.84485Z" fill="#96877D" stroke="black" stroke-width="0.01"/>
<path d="M6.07204 7.75511C6.06381 7.74537 6.04929 7.75255 6.04929 7.75255L6.01058 7.82326L5.99364 7.83812L5.99219 7.89346L6.00622 7.94522L6.00138 7.98518C6.00138 7.98518 6.02088 7.96582 6.02316 7.95495C6.02534 7.94458 6.0159 7.91088 6.0159 7.91088C6.0159 7.91088 6.00429 7.88987 6.01832 7.85093C6.03236 7.81199 6.0643 7.77971 6.07204 7.75511L6.07204 7.75511Z" fill="#96877D" stroke="black" stroke-width="0.01"/>
<path d="M6.16724 7.82031C6.16724 7.82031 6.10679 7.91178 6.00782 7.94432C5.98048 7.95124 5.9904 7.87668 5.9904 7.87668L5.98362 7.87873C5.98362 7.87873 5.96838 7.95175 6.00492 7.95252C6.10437 7.93176 6.17899 7.8209 6.17899 7.8209L6.16709 7.82034L6.16724 7.82031Z" fill="#96877D" stroke="black" stroke-width="0.01"/>
<path d="M6.20815 8.34585C6.20815 8.34585 6.19895 8.35303 6.18686 8.34585C6.18057 8.33048 6.16363 8.32946 6.16363 8.32946C6.16363 8.32946 6.15272 8.29627 6.13556 8.30588C6.1329 8.28872 6.11426 8.29769 6.11426 8.29769C6.11426 8.29769 6.11378 8.27283 6.092 8.27616C6.09926 8.24772 6.062 8.24952 6.062 8.24952C6.062 8.24952 6.06079 8.21749 6.00586 8.2239C6.12419 8.16779 6.21783 8.31203 6.21783 8.31203" fill="#96877D"/>
<path d="M6.20815 8.34585C6.20815 8.34585 6.19895 8.35303 6.18686 8.34585C6.18057 8.33048 6.16363 8.32946 6.16363 8.32946C6.16363 8.32946 6.15272 8.29627 6.13556 8.30588C6.1329 8.28872 6.11426 8.29769 6.11426 8.29769C6.11426 8.29769 6.11378 8.27283 6.092 8.27616C6.09926 8.24772 6.062 8.24952 6.062 8.24952C6.062 8.24952 6.06079 8.21749 6.00586 8.2239C6.12419 8.16779 6.21783 8.31203 6.21783 8.31203" stroke="black" stroke-width="0.01"/>
<path d="M6.26449 8.35547C6.26449 8.35547 6.29184 8.38801 6.30611 8.38826C6.32039 8.38852 6.3216 8.35649 6.3216 8.35649C6.3216 8.35649 6.3262 8.37033 6.33321 8.36674C6.33249 8.37648 6.34192 8.37904 6.34192 8.37904C6.34192 8.37904 6.31724 8.43976 6.24707 8.38211" fill="#96877D"/>
<path d="M6.26449 8.35547C6.26449 8.35547 6.29184 8.38801 6.30611 8.38826C6.32039 8.38852 6.3216 8.35649 6.3216 8.35649C6.3216 8.35649 6.3262 8.37033 6.33321 8.36674C6.33249 8.37648 6.34192 8.37904 6.34192 8.37904C6.34192 8.37904 6.31724 8.43976 6.24707 8.38211" stroke="black" stroke-width="0.01"/>
<path d="M6.05031 8.37045L6.04063 8.41247C6.04063 8.41247 6.02829 8.42426 6.03192 8.42682C6.03555 8.42938 6.05515 8.42272 6.05515 8.42272C6.05515 8.42272 6.08564 8.41888 6.09483 8.4094C6.10112 8.42451 6.11516 8.4258 6.11516 8.4258C6.11516 8.4258 6.11612 8.41939 6.11419 8.41555C6.12097 8.41683 6.12677 8.41452 6.12677 8.41452C6.12677 8.41452 6.13064 8.40274 6.12193 8.39813C6.1229 8.38941 6.12702 8.38173 6.11225 8.38275C6.10137 8.39505 6.07451 8.40914 6.06773 8.40428C6.06096 8.39941 6.09435 8.38378 6.08515 8.36328" fill="#96877D"/>
<path d="M6.05031 8.37045L6.04063 8.41247C6.04063 8.41247 6.02829 8.42426 6.03192 8.42682C6.03555 8.42938 6.05515 8.42272 6.05515 8.42272C6.05515 8.42272 6.08564 8.41888 6.09483 8.4094C6.10112 8.42451 6.11516 8.4258 6.11516 8.4258C6.11516 8.4258 6.11612 8.41939 6.11419 8.41555C6.12097 8.41683 6.12677 8.41452 6.12677 8.41452C6.12677 8.41452 6.13064 8.40274 6.12193 8.39813C6.1229 8.38941 6.12702 8.38173 6.11225 8.38275C6.10137 8.39505 6.07451 8.40914 6.06773 8.40428C6.06096 8.39941 6.09435 8.38378 6.08515 8.36328" stroke="black" stroke-width="0.01"/>
<path d="M20 6L20 18L4 18L4 6L20 6ZM20 5L4 5C3.4 5 3 5.4 3 6L3 18C3 18.6 3.4 19 4 19L20 19C20.6 19 21 18.6 21 18L21 6C21 5.4 20.6 5 20 5Z" fill="#B5B5B5"/>
</svg>
