<svg width="24" height="24" viewBox="0 0 24 24" fill="none" xmlns="http://www.w3.org/2000/svg">
<path d="M20 6H4V18H20V6Z" fill="#21428E"/>
<path d="M12 6V18V6ZM4 12H20H4Z" fill="black"/>
<path d="M12 6V18M4 12H20" stroke="white"/>
<path d="M7.36817 7.09157C7.23575 7.15169 7.13092 7.23915 7.13092 7.28288C7.13092 7.33207 7.20817 7.33207 7.10885 7.36487C7.01506 7.39766 6.76125 7.44139 6.58469 7.43593C6.524 7.43593 6.38055 7.39766 6.34193 7.39766C6.29779 7.40313 6.52952 7.49605 6.44124 7.47419C6.31986 7.44139 6.24813 7.43046 6.34193 7.49059C6.41365 7.53431 6.57366 7.53431 6.79987 7.50698C6.88815 7.49605 7.11989 7.44686 7.20265 7.43593C7.25782 7.43046 7.25782 7.47965 7.29093 7.47965C7.58887 7.49605 8.11855 7.48512 8.35028 7.45232C8.54339 7.42499 8.61512 7.43593 8.67029 7.50152C8.78064 7.62724 8.66477 7.73656 8.35028 7.80215C7.96406 7.88414 7.80405 7.9552 7.65508 8.11371C7.29645 8.49634 7.71577 8.92816 8.49925 8.98828C8.9572 9.02654 9.25514 9.114 9.18342 9.18506C9.15583 9.21239 8.85237 9.25612 8.50477 9.28345C7.74888 9.34357 7.41231 9.44743 7.1254 9.72073C6.9654 9.87378 6.91022 9.9667 6.91022 10.0924C6.91022 10.2673 6.91022 10.2673 6.6178 10.2673C6.46331 10.2673 6.24813 10.2455 6.14881 10.2127C5.99433 10.1744 5.97226 10.1744 6.02743 10.24C6.13778 10.3712 6.45227 10.486 6.7116 10.486C6.91022 10.486 7.02057 10.5242 7.19713 10.65C7.55025 10.9069 7.95302 11.0053 8.62064 10.9998C9.49791 10.9943 10 10.7647 10 10.3767C10 10.087 9.66895 9.91751 8.97927 9.85738C8.63167 9.82459 7.94751 9.87925 7.64956 9.9667C7.59439 9.9831 7.65508 9.94484 7.7875 9.87925C7.94751 9.80272 8.21234 9.74806 8.57098 9.71527C9.36549 9.64967 9.72413 9.47476 9.72413 9.1468C9.72413 8.82977 9.37101 8.64939 8.61512 8.57833C7.87026 8.51274 7.81509 8.38155 8.44408 8.19024C8.89099 8.05905 9.11721 7.86228 9.11721 7.59444C9.11721 7.18449 8.89099 7.04784 8.1351 7.00957C7.67715 6.98771 7.5668 6.99864 7.36817 7.09157ZM7.76543 7.20635C7.74888 7.23368 7.70474 7.26101 7.67715 7.26101C7.64405 7.26101 7.63853 7.23368 7.65508 7.20635C7.67163 7.17356 7.71577 7.15169 7.74336 7.15169C7.77646 7.15169 7.78198 7.17356 7.76543 7.20635ZM9.35997 10.2673C9.46481 10.3056 9.50343 10.3439 9.47032 10.3767C9.37653 10.4696 8.76961 10.5516 8.39994 10.5242C7.99165 10.486 7.55025 10.3548 7.68267 10.3001C8.05234 10.158 9.02341 10.1416 9.35997 10.2673Z" fill="white"/>
<path d="M15.3682 7.09157C15.2358 7.15169 15.1309 7.23915 15.1309 7.28288C15.1309 7.33207 15.2082 7.33207 15.1089 7.36487C15.0151 7.39766 14.7613 7.44139 14.5847 7.43593C14.524 7.43593 14.3805 7.39766 14.3419 7.39766C14.2978 7.40313 14.5295 7.49605 14.4412 7.47419C14.3199 7.44139 14.2481 7.43046 14.3419 7.49059C14.4137 7.53431 14.5737 7.53431 14.7999 7.50698C14.8882 7.49605 15.1199 7.44686 15.2026 7.43593C15.2578 7.43046 15.2578 7.47965 15.2909 7.47965C15.5889 7.49605 16.1185 7.48512 16.3503 7.45232C16.5434 7.42499 16.6151 7.43593 16.6703 7.50152C16.7806 7.62724 16.6648 7.73656 16.3503 7.80215C15.9641 7.88414 15.8041 7.9552 15.6551 8.11371C15.2964 8.49634 15.7158 8.92816 16.4993 8.98828C16.9572 9.02654 17.2551 9.114 17.1834 9.18506C17.1558 9.21239 16.8524 9.25612 16.5048 9.28345C15.7489 9.34357 15.4123 9.44743 15.1254 9.72073C14.9654 9.87378 14.9102 9.9667 14.9102 10.0924C14.9102 10.2673 14.9102 10.2673 14.6178 10.2673C14.4633 10.2673 14.2481 10.2455 14.1488 10.2127C13.9943 10.1744 13.9723 10.1744 14.0274 10.24C14.1378 10.3712 14.4523 10.486 14.7116 10.486C14.9102 10.486 15.0206 10.5242 15.1971 10.65C15.5502 10.9069 15.953 11.0053 16.6206 10.9998C17.4979 10.9943 18 10.7647 18 10.3767C18 10.087 17.669 9.91751 16.9793 9.85738C16.6317 9.82459 15.9475 9.87925 15.6496 9.9667C15.5944 9.9831 15.6551 9.94484 15.7875 9.87925C15.9475 9.80272 16.2123 9.74806 16.571 9.71527C17.3655 9.64967 17.7241 9.47476 17.7241 9.1468C17.7241 8.82977 17.371 8.64939 16.6151 8.57833C15.8703 8.51274 15.8151 8.38155 16.4441 8.19024C16.891 8.05905 17.1172 7.86228 17.1172 7.59444C17.1172 7.18449 16.891 7.04784 16.1351 7.00957C15.6772 6.98771 15.5668 6.99864 15.3682 7.09157ZM15.7654 7.20635C15.7489 7.23368 15.7047 7.26101 15.6772 7.26101C15.644 7.26101 15.6385 7.23368 15.6551 7.20635C15.6716 7.17356 15.7158 7.15169 15.7434 7.15169C15.7765 7.15169 15.782 7.17356 15.7654 7.20635ZM17.36 10.2673C17.4648 10.3056 17.5034 10.3439 17.4703 10.3767C17.3765 10.4696 16.7696 10.5516 16.3999 10.5242C15.9916 10.486 15.5502 10.3548 15.6827 10.3001C16.0523 10.158 17.0234 10.1416 17.36 10.2673Z" fill="white"/>
<path d="M15.3682 13.5916C15.2358 13.6517 15.1309 13.7391 15.1309 13.7829C15.1309 13.8321 15.2082 13.8321 15.1089 13.8649C15.0151 13.8977 14.7613 13.9414 14.5847 13.9359C14.524 13.9359 14.3805 13.8977 14.3419 13.8977C14.2978 13.9031 14.5295 13.9961 14.4412 13.9742C14.3199 13.9414 14.2481 13.9305 14.3419 13.9906C14.4137 14.0343 14.5737 14.0343 14.7999 14.007C14.8882 13.9961 15.1199 13.9469 15.2026 13.9359C15.2578 13.9305 15.2578 13.9797 15.2909 13.9797C15.5889 13.9961 16.1185 13.9851 16.3503 13.9523C16.5434 13.925 16.6151 13.9359 16.6703 14.0015C16.7806 14.1272 16.6648 14.2366 16.3503 14.3022C15.9641 14.3841 15.8041 14.4552 15.6551 14.6137C15.2964 14.9963 15.7158 15.4282 16.4993 15.4883C16.9572 15.5265 17.2551 15.614 17.1834 15.6851C17.1558 15.7124 16.8524 15.7561 16.5048 15.7834C15.7489 15.8436 15.4123 15.9474 15.1254 16.2207C14.9654 16.3738 14.9102 16.4667 14.9102 16.5924C14.9102 16.7673 14.9102 16.7673 14.6178 16.7673C14.4633 16.7673 14.2481 16.7455 14.1488 16.7127C13.9943 16.6744 13.9723 16.6744 14.0274 16.74C14.1378 16.8712 14.4523 16.986 14.7116 16.986C14.9102 16.986 15.0206 17.0242 15.1971 17.15C15.5502 17.4069 15.953 17.5053 16.6206 17.4998C17.4979 17.4943 18 17.2647 18 16.8767C18 16.587 17.669 16.4175 16.9793 16.3574C16.6317 16.3246 15.9475 16.3792 15.6496 16.4667C15.5944 16.4831 15.6551 16.4448 15.7875 16.3792C15.9475 16.3027 16.2123 16.2481 16.571 16.2153C17.3655 16.1497 17.7241 15.9748 17.7241 15.6468C17.7241 15.3298 17.371 15.1494 16.6151 15.0783C15.8703 15.0127 15.8151 14.8816 16.4441 14.6902C16.891 14.5591 17.1172 14.3623 17.1172 14.0944C17.1172 13.6845 16.891 13.5478 16.1351 13.5096C15.6772 13.4877 15.5668 13.4986 15.3682 13.5916ZM15.7654 13.7064C15.7489 13.7337 15.7047 13.761 15.6772 13.761C15.644 13.761 15.6385 13.7337 15.6551 13.7064C15.6716 13.6736 15.7158 13.6517 15.7434 13.6517C15.7765 13.6517 15.782 13.6736 15.7654 13.7064ZM17.36 16.7673C17.4648 16.8056 17.5034 16.8439 17.4703 16.8767C17.3765 16.9696 16.7696 17.0516 16.3999 17.0242C15.9916 16.986 15.5502 16.8548 15.6827 16.8001C16.0523 16.658 17.0234 16.6416 17.36 16.7673Z" fill="white"/>
<path d="M7.36817 13.5916C7.23575 13.6517 7.13092 13.7391 7.13092 13.7829C7.13092 13.8321 7.20817 13.8321 7.10885 13.8649C7.01506 13.8977 6.76125 13.9414 6.58469 13.9359C6.524 13.9359 6.38055 13.8977 6.34193 13.8977C6.29779 13.9031 6.52952 13.9961 6.44124 13.9742C6.31986 13.9414 6.24813 13.9305 6.34193 13.9906C6.41365 14.0343 6.57366 14.0343 6.79987 14.007C6.88815 13.9961 7.11989 13.9469 7.20265 13.9359C7.25782 13.9305 7.25782 13.9797 7.29093 13.9797C7.58887 13.9961 8.11855 13.9851 8.35028 13.9523C8.54339 13.925 8.61512 13.9359 8.67029 14.0015C8.78064 14.1272 8.66477 14.2366 8.35028 14.3022C7.96406 14.3841 7.80405 14.4552 7.65508 14.6137C7.29645 14.9963 7.71577 15.4282 8.49925 15.4883C8.9572 15.5265 9.25514 15.614 9.18342 15.6851C9.15583 15.7124 8.85237 15.7561 8.50477 15.7834C7.74888 15.8436 7.41231 15.9474 7.1254 16.2207C6.9654 16.3738 6.91022 16.4667 6.91022 16.5924C6.91022 16.7673 6.91022 16.7673 6.6178 16.7673C6.46331 16.7673 6.24813 16.7455 6.14881 16.7127C5.99433 16.6744 5.97226 16.6744 6.02743 16.74C6.13778 16.8712 6.45227 16.986 6.7116 16.986C6.91022 16.986 7.02057 17.0242 7.19713 17.15C7.55025 17.4069 7.95302 17.5053 8.62064 17.4998C9.49791 17.4943 10 17.2647 10 16.8767C10 16.587 9.66895 16.4175 8.97927 16.3574C8.63167 16.3246 7.94751 16.3792 7.64956 16.4667C7.59439 16.4831 7.65508 16.4448 7.7875 16.3792C7.94751 16.3027 8.21234 16.2481 8.57098 16.2153C9.36549 16.1497 9.72413 15.9748 9.72413 15.6468C9.72413 15.3298 9.37101 15.1494 8.61512 15.0783C7.87026 15.0127 7.81509 14.8816 8.44408 14.6902C8.89099 14.5591 9.11721 14.3623 9.11721 14.0944C9.11721 13.6845 8.89099 13.5478 8.1351 13.5096C7.67715 13.4877 7.5668 13.4986 7.36817 13.5916ZM7.76543 13.7064C7.74888 13.7337 7.70474 13.761 7.67715 13.761C7.64405 13.761 7.63853 13.7337 7.65508 13.7064C7.67163 13.6736 7.71577 13.6517 7.74336 13.6517C7.77646 13.6517 7.78198 13.6736 7.76543 13.7064ZM9.35997 16.7673C9.46481 16.8056 9.50343 16.8439 9.47032 16.8767C9.37653 16.9696 8.76961 17.0516 8.39994 17.0242C7.99165 16.986 7.55025 16.8548 7.68267 16.8001C8.05234 16.658 9.02341 16.6416 9.35997 16.7673Z" fill="white"/>
<path d="M20 6L20 18L4 18L4 6L20 6ZM20 5L4 5C3.4 5 3 5.4 3 6L3 18C3 18.6 3.4 19 4 19L20 19C20.6 19 21 18.6 21 18L21 6C21 5.4 20.6 5 20 5Z" fill="#B5B5B5"/>
</svg>
