<svg width="24" height="24" viewBox="0 0 24 24" fill="none" xmlns="http://www.w3.org/2000/svg">
<path d="M4 6H20V18H4V6Z" fill="#CD2A3E"/>
<path d="M4 8H20V16H4V8Z" fill="#006233"/>
<path d="M15.75 9.86328C15.74 11.9253 14.064 13.5933 12 13.5933C9.93602 13.5933 8.26002 11.9253 8.25002 9.86328C8.16802 10.1773 8.12402 10.5053 8.12402 10.8433C8.12402 12.9833 9.85802 14.7193 12 14.7193C14.142 14.7193 15.876 12.9853 15.876 10.8433C15.876 10.5053 15.832 10.1753 15.75 9.86328Z" fill="#FFC400"/>
<path d="M11.9998 8.34375L11.663 9.38018L10.5732 9.38022L11.4549 10.0208L11.1181 11.0573L11.9998 10.4167L12.8815 11.0573L12.5448 10.0208L13.4264 9.38022L12.3366 9.38018L11.9998 8.34375Z" fill="#FFC400"/>
<path d="M20 6L20 18L4 18L4 6L20 6ZM20 5L4 5C3.4 5 3 5.4 3 6L3 18C3 18.6 3.4 19 4 19L20 19C20.6 19 21 18.6 21 18L21 6C21 5.4 20.6 5 20 5Z" fill="#B5B5B5"/>
</svg>
