<svg width="24" height="24" viewBox="0 0 24 24" fill="none" xmlns="http://www.w3.org/2000/svg">
<path d="M20 6H4V18H20V6Z" fill="#C4272F"/>
<path d="M16 6H11V18H16V6Z" fill="#015197"/>
<path d="M8.00039 11.2C8.6079 11.2 9.10039 10.7075 9.10039 10.1C9.10039 9.49249 8.6079 9 8.00039 9C7.39288 9 6.90039 9.49249 6.90039 10.1C6.90039 10.7075 7.39288 11.2 8.00039 11.2Z" fill="#F9CF02"/>
<path d="M7.9998 10.8011C8.66255 10.8011 9.1998 10.2638 9.1998 9.60106C9.1998 8.93832 8.66255 8.40106 7.9998 8.40106C7.33706 8.40106 6.7998 8.93832 6.7998 9.60106C6.7998 10.2638 7.33706 10.8011 7.9998 10.8011Z" fill="#C4272F"/>
<path d="M8.0002 10.6C8.44202 10.6 8.8002 10.2418 8.8002 9.8C8.8002 9.35817 8.44202 9 8.0002 9C7.55837 9 7.2002 9.35817 7.2002 9.8C7.2002 10.2418 7.55837 10.6 8.0002 10.6Z" fill="#F9CF02"/>
<path d="M7.5 8.29794C7.5 8.43055 7.55268 8.55772 7.64645 8.65149C7.74021 8.74526 7.86739 8.79794 8 8.79794C8.13261 8.79794 8.25979 8.74526 8.35355 8.65149C8.44732 8.55772 8.5 8.43055 8.5 8.29794C8.5 8.09794 8.375 8.07294 8.375 7.99794C8.375 7.92294 8.45 7.82294 8.3 7.69794C8.375 7.82294 8.25 7.84794 8.25 7.97294C8.25 8.09794 8.3 8.09794 8.3 8.19794C8.3 8.22446 8.28946 8.24989 8.27071 8.26865C8.25196 8.2874 8.22652 8.29794 8.2 8.29794C8.17348 8.29794 8.14804 8.2874 8.12929 8.26865C8.11054 8.24989 8.1 8.22446 8.1 8.19794C8.1 8.09794 8.2 7.99794 8.2 7.84794C8.2 7.69794 8.175 7.64794 8.1 7.52294C8.025 7.39794 7.9 7.29794 8 7.19794C7.85 7.24794 7.925 7.44794 7.925 7.57294C7.925 7.69794 7.825 7.77294 7.825 7.92294C7.825 8.07294 7.9 8.09794 7.9 8.19794C7.9 8.22446 7.88946 8.24989 7.87071 8.26865C7.85196 8.2874 7.82652 8.29794 7.8 8.29794C7.77348 8.29794 7.74804 8.2874 7.72929 8.26865C7.71054 8.24989 7.7 8.22446 7.7 8.19794C7.7 8.09794 7.75 8.09794 7.75 7.97294C7.75 7.84794 7.625 7.82294 7.7 7.69794C7.55 7.82294 7.625 7.92294 7.625 7.99794C7.625 8.07294 7.5 8.09794 7.5 8.29794Z" fill="#F9CF02"/>
<path d="M5.7998 11.4011V16.2011H6.7998V11.4011H5.7998ZM9.1998 11.4011V16.2011H10.1998V11.4011H9.1998ZM6.9998 12.2011V12.6011H8.9998V12.2011H6.9998ZM6.9998 15.0011V15.4011H8.9998V15.0011H6.9998ZM6.9998 11.4011H8.9998L7.9998 12.0011L6.9998 11.4011ZM6.9998 15.6011H8.9998L7.9998 16.2011L6.9998 15.6011Z" fill="#F9CF02"/>
<path d="M8.00043 14.8609C8.58585 14.8609 9.06043 14.3863 9.06043 13.8009C9.06043 13.2155 8.58585 12.7409 8.00043 12.7409C7.41501 12.7409 6.94043 13.2155 6.94043 13.8009C6.94043 14.3863 7.41501 14.8609 8.00043 14.8609Z" fill="#F9CF02" stroke="#C4272F" stroke-width="0.01"/>
<path d="M8.0007 12.7409C8.14127 12.7409 8.27608 12.7967 8.37547 12.8961C8.47486 12.9955 8.5307 13.1303 8.5307 13.2709C8.5307 13.4115 8.47486 13.5463 8.37547 13.6457C8.27608 13.7451 8.14127 13.8009 8.0007 13.8009C7.86014 13.8009 7.72533 13.8567 7.62594 13.9561C7.52654 14.0555 7.4707 14.1903 7.4707 14.3309C7.4707 14.4715 7.52654 14.6063 7.62594 14.7057C7.72533 14.8051 7.86014 14.8609 8.0007 14.8609" stroke="#C4272F" stroke-width="0.01"/>
<path d="M7.9998 13.4677C8.11026 13.4677 8.1998 13.3781 8.1998 13.2677C8.1998 13.1572 8.11026 13.0677 7.9998 13.0677C7.88935 13.0677 7.7998 13.1572 7.7998 13.2677C7.7998 13.3781 7.88935 13.4677 7.9998 13.4677Z" fill="#C4272F"/>
<path d="M7.9998 14.5302C8.11026 14.5302 8.1998 14.4406 8.1998 14.3302C8.1998 14.2197 8.11026 14.1302 7.9998 14.1302C7.88935 14.1302 7.7998 14.2197 7.7998 14.3302C7.7998 14.4406 7.88935 14.5302 7.9998 14.5302Z" fill="#C4272F"/>
<path d="M20 6L20 18L4 18L4 6L20 6ZM20 5L4 5C3.4 5 3 5.4 3 6L3 18C3 18.6 3.4 19 4 19L20 19C20.6 19 21 18.6 21 18L21 6C21 5.4 20.6 5 20 5Z" fill="#B5B5B5"/>
</svg>
