<svg width="24" height="24" viewBox="0 0 24 24" fill="none" xmlns="http://www.w3.org/2000/svg">
<path d="M20 6H4V18H20V6Z" fill="black"/>
<path d="M20 6H4V10H20V6Z" fill="white"/>
<path d="M20 6H4V9.5H20V6Z" fill="#007168"/>
<path d="M20 13.5H4V18H20V13.5Z" fill="white"/>
<path d="M20 14H4V18H20V14Z" fill="#FCE100"/>
<path d="M4 6V18L11.875 12L4 6Z" fill="#D21034"/>
<path d="M8.0872 14.2513L6.62412 13.1801L5.16303 14.2516L5.72967 12.5291L4.25911 11.4706L6.0724 11.4773L6.62465 9.75159L7.17867 11.4782L8.99054 11.4701L7.51965 12.5306L8.0872 14.2513Z" fill="#FCE100"/>
<path fill-rule="evenodd" clip-rule="evenodd" d="M5.35449 13.0483H6.40847C6.49327 13.1434 6.68248 13.1822 6.8627 13.0471C7.19305 12.8662 7.83215 13.0483 7.83215 13.0483L7.958 12.9146L7.65123 11.9078L7.54111 11.7898C7.54111 11.7898 7.30516 11.6482 6.8568 11.6954C6.40847 11.7426 6.25116 11.6797 6.25116 11.6797C6.25116 11.6797 5.85789 11.7269 5.74777 11.7819C5.73566 11.7917 5.62192 11.9078 5.62192 11.9078L5.35449 13.0483Z" fill="white" stroke="black" stroke-width="0.03" stroke-linecap="round" stroke-linejoin="round"/>
<path d="M5.56641 12.7897C5.56641 12.7897 6.57319 12.6639 6.86423 13.0493C6.69986 13.1618 6.55515 13.171 6.40015 13.0572C6.42484 13.016 6.76197 12.6639 7.61931 12.7819" stroke="black" stroke-width="0.03" stroke-linecap="round" stroke-linejoin="round"/>
<path d="M6.64438 11.7812L6.63652 12.8903L6.64438 11.7812ZM7.54104 11.797L7.72983 12.6779L7.54104 11.797ZM5.75809 11.7831L5.65332 12.2374L5.75809 11.7831Z" fill="black"/>
<path d="M6.64438 11.7812L6.63652 12.8903M7.54104 11.797L7.72983 12.6779M5.75809 11.7831L5.65332 12.2374" stroke="black" stroke-width="0.03" stroke-linecap="round" stroke-linejoin="round"/>
<path fill-rule="evenodd" clip-rule="evenodd" d="M4.66992 13.171L4.91779 13.4616C4.9469 13.4789 4.97275 13.4778 4.99861 13.4616L5.36595 13.0208L5.52024 12.8298C5.54413 12.8015 5.55175 12.7699 5.54962 12.7416L5.84458 12.4795C5.86871 12.4812 5.88308 12.4839 5.90721 12.4855C5.87871 12.4781 5.85779 12.4643 5.88023 12.433L5.94635 12.3816L5.99777 12.4477C5.99777 12.4477 5.92432 12.5432 5.91697 12.5432C5.90962 12.5432 5.83615 12.5432 5.83615 12.5432L5.68187 12.6828L5.74931 12.7424L5.85085 13.0208L5.97575 12.9326L5.89493 12.6461L6.07127 12.4551L6.00513 12.3522L6.04922 12.2934C6.04922 12.2934 6.65948 12.6776 6.89459 12.5748C6.90094 12.5771 6.9088 12.3008 6.9088 12.3008C6.9088 12.3008 6.27698 12.2347 6.26226 12.1097C6.24758 11.9849 6.40187 11.9702 6.40187 11.9702L6.33573 11.8747L6.35044 11.8232L6.46064 11.9628L6.71045 11.7497L8.17981 13.4248C8.26003 13.3923 8.27716 13.3727 8.28268 13.2926C8.28061 13.2906 6.84269 11.6395 6.84269 11.6395L6.95289 11.522C6.97461 11.4975 6.98224 11.4871 6.98227 11.4485L7.15125 11.3016C7.20207 11.3191 7.23447 11.3495 7.26145 11.3897L7.72601 10.996C7.73825 11.0083 7.77544 11.0205 7.80068 11.0068L8.56873 10.2695L7.73165 10.8608L7.70227 10.8387C7.70227 10.8142 7.73263 10.8082 7.70227 10.7653C7.66975 10.7262 7.62145 10.802 7.61412 10.802C7.60676 10.802 7.49296 10.7618 7.46802 10.7108L7.45983 10.8461L7.24676 11.0445L7.08514 11.0371L6.85002 11.2649L6.82065 11.353L6.85738 11.4265C6.85738 11.4265 6.73247 11.5367 6.73247 11.5293C6.73247 11.522 6.70722 11.4969 6.70614 11.4936L6.81329 11.3971L6.82798 11.331L6.79223 11.2752C6.78139 11.283 6.64431 11.4265 6.63696 11.4118C6.62471 11.3981 6.24024 10.9636 6.24024 10.9636L6.26226 10.8828L6.01249 10.611C5.92142 10.5795 5.77738 10.5742 5.74799 10.7726C5.72511 10.8192 5.53493 10.78 5.53493 10.78L5.43207 10.802L4.85167 11.6249L5.17493 12.0142L5.83615 11.1767L5.85578 10.9394L5.99452 11.0946C6.04078 11.1005 6.08485 11.101 6.12677 11.0799L6.51852 11.5171L6.45329 11.5808C6.47533 11.6053 6.4905 11.6209 6.51255 11.6454C6.53459 11.6307 6.55563 11.6131 6.57767 11.5984C6.58503 11.6082 6.59727 11.6268 6.60463 11.6366C6.5718 11.6545 6.54878 11.6782 6.51595 11.6961C6.46342 11.6619 6.4127 11.6192 6.41655 11.5514L6.19615 11.7351L6.1888 11.7718L5.53493 12.3155L5.47615 12.3228L5.46146 12.4918L5.88758 12.1392V12.0877L5.93166 12.1244L6.26226 11.86C6.26226 11.86 6.28431 11.8893 6.27698 11.8893C6.26962 11.8893 5.98309 12.1538 5.98309 12.1538L5.97575 12.1832L5.92432 12.2273L5.89493 12.2053L5.49819 12.5579H5.43942L5.21901 12.7783C5.16216 12.7833 5.1129 12.7893 5.06473 12.8224L4.66992 13.171Z" fill="black" stroke="black" stroke-width="0.03" stroke-linecap="round" stroke-linejoin="round"/>
<path d="M20 6L20 18L4 18L4 6L20 6ZM20 5L4 5C3.4 5 3 5.4 3 6L3 18C3 18.6 3.4 19 4 19L20 19C20.6 19 21 18.6 21 18L21 6C21 5.4 20.6 5 20 5Z" fill="#B5B5B5"/>
</svg>
