<svg width="24" height="24" viewBox="0 0 24 24" fill="none" xmlns="http://www.w3.org/2000/svg">
<path d="M21 6H4V18L21 6Z" fill="#003580"/>
<path d="M3 18H20V6L3 18Z" fill="#009543"/>
<path d="M3 18L21 6L3 18Z" fill="black"/>
<path d="M3 18L21 6" stroke="white" stroke-width="0.01"/>
<path d="M4 17L20 6L4 17Z" fill="black"/>
<path d="M4 17L20 6" stroke="#D21034" stroke-width="0.5"/>
<path d="M6.59965 11.2667L6.91023 10.4258H6.28906L6.59965 11.2667Z" fill="#FFCE00"/>
<path d="M6.6 10.368C7.20751 10.368 7.7 9.87548 7.7 9.26797C7.7 8.66046 7.20751 8.16797 6.6 8.16797C5.99249 8.16797 5.5 8.66046 5.5 9.26797C5.5 9.87548 5.99249 10.368 6.6 10.368Z" fill="#FFCE00" stroke="#003580" stroke-width="0.01"/>
<path d="M6.59965 11.2667L6.91023 10.4258H6.28906L6.59965 11.2667Z" fill="#FFCE00"/>
<path d="M4.98218 10.6835L5.83302 10.4013L5.44531 9.91602L4.98218 10.6835Z" fill="#FFCE00"/>
<path d="M4.36297 9.32033L5.20741 9.62112L5.2002 9L4.36297 9.32033Z" fill="#FFCE00"/>
<path d="M4.13959 6.69756L4.75068 7.35339L5.03027 6.79871L4.13959 6.69756Z" fill="#FFCE00"/>
<path d="M6.6 10.368C7.20751 10.368 7.7 9.87548 7.7 9.26797C7.7 8.66046 7.20751 8.16797 6.6 8.16797C5.99249 8.16797 5.5 8.66046 5.5 9.26797C5.5 9.87548 5.99249 10.368 6.6 10.368Z" fill="#FFCE00" stroke="#003580" stroke-width="0.01"/>
<path d="M20 6L20 18L4 18L4 6L20 6ZM20 5L4 5C3.4 5 3 5.4 3 6L3 18C3 18.6 3.4 19 4 19L20 19C20.6 19 21 18.6 21 18L21 6C21 5.4 20.6 5 20 5Z" fill="none"/>
<g clip-path="url(#clip0_14099_119771)">
<path fill-rule="evenodd" clip-rule="evenodd" d="M0 19V3H24L0 19Z" fill="#003580"/>
<path fill-rule="evenodd" clip-rule="evenodd" d="M24 3V19H0L24 3Z" fill="#009543"/>
<path fill-rule="evenodd" clip-rule="evenodd" d="M0 19L24 3L0 19Z" fill="black"/>
<path d="M0 19L24 3" stroke="white" stroke-miterlimit="22.926"/>
<path d="M0.27735 19.416L24.2773 3.41603L24 3L23.7227 2.58397L-0.27735 18.584L0 19L0.27735 19.416Z" fill="white" stroke="white" stroke-miterlimit="22.926"/>
<path fill-rule="evenodd" clip-rule="evenodd" d="M0 19L24 3L0 19Z" fill="white"/>
<path d="M0.083205 19.1248L24.0832 3.12481L24 3L23.9168 2.87519L-0.083205 18.8752L0 19L0.083205 19.1248Z" fill="white" stroke="#D21034" stroke-width="0.3" stroke-miterlimit="22.926"/>
<path fill-rule="evenodd" clip-rule="evenodd" d="M4.80047 4.69104L5.21379 5.81104L6.1338 5.04838L5.93113 6.22704L7.10981 6.02438L6.34713 6.94438L7.46713 7.3577L6.34713 7.77103L7.10981 8.69104L5.93113 8.48837L6.1338 9.66704L5.21379 8.90437L4.80047 10.0244L4.38714 8.90437L3.46713 9.66704L3.66979 8.48837L2.49113 8.69104L3.25379 7.77103L2.13379 7.3577L3.25379 6.94438L2.49113 6.02438L3.66979 6.22704L3.46713 5.04838L4.38713 5.81104L4.80047 4.69104Z" fill="#FACE33"/>
<path d="M4.79968 8.82439C5.60969 8.82439 6.26634 8.16774 6.26634 7.35772C6.26634 6.5477 5.60969 5.89105 4.79968 5.89105C3.98966 5.89105 3.33301 6.5477 3.33301 7.35772C3.33301 8.16774 3.98966 8.82439 4.79968 8.82439Z" fill="#FACE33" stroke="#003580" stroke-width="0.2" stroke-miterlimit="22.926"/>
</g>
<defs>
<clipPath id="clip0_14099_119771">
<!-- <rect width="24" height="16" fill="white" transform="translate(0 3)"/> -->
</clipPath>
</defs>
</svg>
