<svg width="24" height="24" viewBox="0 0 24 24" fill="none" xmlns="http://www.w3.org/2000/svg">
<path d="M20 6H4V18H20V6Z" fill="#002B7F"/>
<path d="M20 11H4V12H20V11Z" fill="#FFC61E"/>
<path d="M9 17L8.74118 15.9659L8 16.732L8.29289 15.7071L7.26795 16L8.03408 15.2588L7 15L8.03408 14.7412L7.26795 14L8.29289 14.2929L8 13.268L8.74118 14.0341L9 13L9.25882 14.0341L10 13.268L9.70711 14.2929L10.7321 14L9.96592 14.7412L11 15L9.96592 15.2588L10.7321 16L9.70711 15.7071L10 16.732L9.25882 15.9659L9 17Z" fill="white"/>
<path d="M20 6L20 18L4 18L4 6L20 6ZM20 5L4 5C3.4 5 3 5.4 3 6L3 18C3 18.6 3.4 19 4 19L20 19C20.6 19 21 18.6 21 18L21 6C21 5.4 20.6 5 20 5Z" fill="#B5B5B5"/>
</svg>
