<svg width="24" height="24" viewBox="0 0 24 24" fill="none" xmlns="http://www.w3.org/2000/svg">
<path d="M4 11.636H12L4 6V18H12L4 9V11.636Z" fill="#DC143C"/>
<path d="M4.09863 9.64734C4.23773 10.0022 4.48019 10.3068 4.79442 10.5215C5.10866 10.7362 5.4801 10.851 5.86036 10.851C6.24062 10.851 6.61207 10.7362 6.92631 10.5215C7.24054 10.3068 7.483 10.0022 7.62209 9.64734C7.62209 10.1158 7.43648 10.5651 7.1061 10.8963C6.77571 11.2276 6.3276 11.4137 5.86036 11.4137C5.39312 11.4137 4.94502 11.2276 4.61463 10.8963C4.28424 10.5651 4.09863 10.1158 4.09863 9.64734Z" fill="white"/>
<path d="M5.85986 11.2922C6.31264 11.2922 6.67968 10.9242 6.67968 10.4702C6.67968 10.0163 6.31264 9.64825 5.85986 9.64825C5.40709 9.64825 5.04004 10.0163 5.04004 10.4702C5.04004 10.9242 5.40709 11.2922 5.85986 11.2922Z" fill="white"/>
<path d="M6.17328 9.7118L6.08167 9.3516L5.85955 9.64924" fill="white"/>
<path d="M5.86067 16.0694C6.5237 16.0694 7.06118 15.5305 7.06118 14.8657C7.06118 14.201 6.5237 13.662 5.86067 13.662C5.19764 13.662 4.66016 14.201 4.66016 14.8657C4.66016 15.5305 5.19764 16.0694 5.86067 16.0694Z" fill="white"/>
<path d="M6.17124 16.0251L5.86052 16.7604L5.5498 16.0251" fill="white"/>
<path d="M20 6L20 18L4 18L4 6L20 6ZM20 5L4 5C3.4 5 3 5.4 3 6L3 18C3 18.6 3.4 19 4 19L20 19C20.6 19 21 18.6 21 18L21 6C21 5.4 20.6 5 20 5Z" fill="#B5B5B5"/>
</svg>
