<svg width="24" height="24" viewBox="0 0 24 24" fill="none" xmlns="http://www.w3.org/2000/svg">
<path d="M20 6H4V18H20V6Z" fill="white"/>
<path d="M14 6H10V18H14V6Z" fill="#DC171D"/>
<path d="M20 10H4V14H20V10Z" fill="#012A87"/>
<path d="M12 10.2773L11.8627 10.7654L12.074 10.8447L12 10.2773Z" fill="white"/>
<path d="M20 6L20 18L4 18L4 6L20 6ZM20 5L4 5C3.4 5 3 5.4 3 6L3 18C3 18.6 3.4 19 4 19L20 19C20.6 19 21 18.6 21 18L21 6C21 5.4 20.6 5 20 5Z" fill="none"/>
<g clip-path="url(#clip0_14099_119838)">
<path fill-rule="evenodd" clip-rule="evenodd" d="M4 6.00018H20V18.0002H4V6.00018Z" fill="white"/>
<path fill-rule="evenodd" clip-rule="evenodd" d="M10.6113 6H14.3891V18H10.6113V6Z" fill="#DC171D"/>
<path fill-rule="evenodd" clip-rule="evenodd" d="M4 10H20V14H4V10Z" fill="#012A87"/>
<path fill-rule="evenodd" clip-rule="evenodd" d="M11.8459 13.833L11.5525 13.583L11.2605 13.823L11.3764 13.453L11.083 13.203H11.4355L11.5591 12.833L11.6713 13.203H12.0275L11.745 13.453L11.8459 13.833Z" fill="white"/>
<path fill-rule="evenodd" clip-rule="evenodd" d="M9.76292 12.5L9.46945 12.25L9.17753 12.49L9.29338 12.12L9 11.87H9.35252L9.47606 11.5L9.58825 11.87H9.94444L9.66202 12.12L9.76292 12.5Z" fill="white"/>
<path fill-rule="evenodd" clip-rule="evenodd" d="M15.7629 12.5L15.4695 12.25L15.1775 12.49L15.2934 12.12L15 11.87H15.3525L15.4761 11.5L15.5883 11.87H15.9444L15.662 12.12L15.7629 12.5Z" fill="white"/>
<path fill-rule="evenodd" clip-rule="evenodd" d="M13.7629 13.8301L13.4695 13.5801L13.1775 13.8201L13.2934 13.4501L13 13.2001H13.3525L13.4761 12.8301L13.5883 13.2001H13.9444L13.662 13.4501L13.7629 13.8301Z" fill="white"/>
<path fill-rule="evenodd" clip-rule="evenodd" d="M11.7629 11.2029L11.4695 10.9529L11.1775 11.1929L11.2934 10.8229L11 10.5729H11.3525L11.4761 10.2029L11.5883 10.5729H11.9444L11.662 10.8229L11.7629 11.2029Z" fill="white"/>
<path fill-rule="evenodd" clip-rule="evenodd" d="M13.6799 11.2L13.3864 10.95L13.0945 11.19L13.2104 10.82L12.917 10.57H13.2695L13.393 10.2L13.5052 10.57H13.8614L13.579 10.82L13.6799 11.2Z" fill="white"/>
</g>
<defs>
<clipPath id="clip0_14099_119838">
<rect width="17" height="12" fill="white" transform="translate(4 6)"/>
</clipPath>
</defs>
</svg>
