<svg width="24" height="24" viewBox="0 0 24 24" fill="none" xmlns="http://www.w3.org/2000/svg">
<path d="M20 6H4V18H20V6Z" fill="#0067C6"/>
<path d="M20 10H4V14H20V10Z" fill="white"/>
<path d="M10.8564 11.9841C10.9283 11.9885 11.0001 11.993 11.072 11.9974C11.0727 11.9877 11.0734 11.978 11.0741 11.9683C11.0459 11.9665 11.0176 11.9648 10.9893 11.963C10.9915 11.931 10.9944 11.8989 10.9959 11.8668C11.0259 11.8468 11.0559 11.8267 11.0858 11.8065C11.0867 11.7942 11.0876 11.7819 11.0885 11.7695C11.0569 11.7908 11.0253 11.812 10.9937 11.8332C10.9905 11.8125 10.9781 11.7911 10.9555 11.7839C10.9358 11.7773 10.9117 11.7761 10.8946 11.7892C10.8729 11.8039 10.869 11.8303 10.8662 11.8533C10.8624 11.8969 10.8598 11.9405 10.8564 11.9841ZM10.8893 11.9568C10.8919 11.9241 10.8935 11.8913 10.8969 11.8586C10.8995 11.8424 10.9027 11.8237 10.918 11.8134C10.9318 11.8049 10.9522 11.8113 10.9579 11.8257C10.9692 11.8506 10.9641 11.8781 10.9627 11.9043C10.9613 11.9233 10.96 11.9422 10.9586 11.9611C10.9355 11.9597 10.9123 11.9583 10.8893 11.9568Z" fill="#C8A400"/>
<path d="M10.8848 11.6812C10.9549 11.6963 11.025 11.7115 11.0951 11.7266C11.111 11.6635 11.127 11.6003 11.1429 11.5371C11.1329 11.5349 11.123 11.5328 11.113 11.5306C11.0995 11.5844 11.0859 11.6381 11.0724 11.6919C11.051 11.6873 11.0297 11.6826 11.0083 11.678C11.0205 11.6296 11.0328 11.5812 11.045 11.5327C11.0351 11.5306 11.0252 11.5284 11.0152 11.5263C11.003 11.5747 10.9908 11.6232 10.9786 11.6716C10.9597 11.6675 10.9408 11.6634 10.9219 11.6594C10.935 11.6076 10.948 11.5559 10.9611 11.5041C10.9511 11.502 10.9411 11.4998 10.931 11.4977C10.9156 11.5588 10.9002 11.62 10.8848 11.6812Z" fill="#C8A400"/>
<path d="M10.96 11.4168C11.028 11.4387 11.096 11.4606 11.164 11.4825C11.1674 11.4733 11.1709 11.4642 11.1743 11.455C11.1476 11.4463 11.1208 11.4377 11.0941 11.4291C11.1046 11.4005 11.116 11.3723 11.1257 11.3434C11.1326 11.3199 11.1379 11.2924 11.123 11.2705C11.1108 11.2543 11.0892 11.2439 11.0679 11.2446C11.0444 11.2455 11.0252 11.2615 11.0148 11.2801C10.9994 11.3069 10.9907 11.3364 10.9795 11.3649C10.973 11.3822 10.9665 11.3995 10.96 11.4168ZM10.9994 11.3986C11.0103 11.3703 11.0202 11.3416 11.032 11.3135C11.0393 11.2986 11.0483 11.2808 11.0669 11.276C11.0822 11.2728 11.0983 11.2837 11.0996 11.2982C11.1033 11.3249 11.0907 11.3501 11.0819 11.3749C11.0763 11.3899 11.0706 11.4048 11.065 11.4198C11.0431 11.4127 11.0213 11.4057 10.9994 11.3986Z" fill="#C8A400"/>
<path d="M11.0732 11.1781C11.1117 11.1988 11.1498 11.22 11.1885 11.2403C11.2104 11.2512 11.238 11.2574 11.2608 11.2452C11.292 11.2292 11.3114 11.1998 11.3267 11.1711C11.3388 11.1468 11.3475 11.1168 11.3322 11.092C11.3156 11.0673 11.2856 11.056 11.2599 11.0412C11.2351 11.0278 11.2102 11.0143 11.1853 11.0008C11.18 11.0092 11.1747 11.0175 11.1694 11.0259C11.206 11.0458 11.2429 11.0654 11.2793 11.0856C11.2967 11.0954 11.3111 11.1132 11.3081 11.133C11.3047 11.1565 11.2902 11.1772 11.2757 11.1963C11.2637 11.2117 11.2436 11.2241 11.2223 11.22C11.2001 11.216 11.1821 11.2025 11.1625 11.1928C11.138 11.1796 11.1136 11.1663 11.0891 11.1531C11.0838 11.1614 11.0785 11.1698 11.0732 11.1781Z" fill="#C8A400"/>
<path d="M11.2285 10.9413C11.2857 10.9818 11.3429 11.0223 11.4001 11.0629C11.4267 11.0307 11.4532 10.9984 11.48 10.9664C11.4954 10.9459 11.5096 10.9194 11.4991 10.8943C11.4897 10.8743 11.4675 10.8589 11.4437 10.8579C11.4329 10.8565 11.4189 10.864 11.4131 10.8674C11.4192 10.846 11.4004 10.826 11.3792 10.8204C11.3536 10.812 11.3277 10.8271 11.3109 10.8439C11.291 10.8639 11.2744 10.8865 11.2562 10.9078C11.247 10.919 11.2377 10.9301 11.2285 10.9413ZM11.272 10.9354C11.2921 10.9115 11.3111 10.8869 11.3321 10.8638C11.3419 10.8538 11.3576 10.8423 11.3728 10.8497C11.3866 10.8553 11.39 10.8714 11.3834 10.8831C11.3729 10.9039 11.3556 10.9207 11.3412 10.9392C11.3334 10.9487 11.3255 10.9582 11.3176 10.9677C11.3024 10.9569 11.2872 10.9461 11.272 10.9354ZM11.3419 10.9849C11.3627 10.9602 11.3824 10.9346 11.4043 10.9108C11.4156 10.8999 11.4297 10.8862 11.4475 10.8894C11.4627 10.8926 11.4738 10.9079 11.4685 10.9221C11.4599 10.9483 11.4388 10.9683 11.4218 10.99C11.4128 11.0008 11.4039 11.0116 11.395 11.0225C11.3773 11.0099 11.3596 10.9974 11.3419 10.9849Z" fill="#C8A400"/>
<path d="M11.4229 10.7301L11.5712 10.8755L11.6983 10.7643L11.6772 10.7437L11.5755 10.8326L11.5729 10.8349L11.5711 10.833L11.4457 10.7101L11.4229 10.7301Z" fill="#C8A400"/>
<path d="M11.6133 10.5738L11.7449 10.7323L11.7706 10.714L11.639 10.5555L11.6133 10.5738Z" fill="#C8A400"/>
<path d="M11.8067 10.4516C11.7853 10.4639 11.7681 10.4783 11.7549 10.4951C11.7417 10.5118 11.7346 10.5293 11.7335 10.5475C11.7325 10.5658 11.7377 10.5834 11.7494 10.6007C11.76 10.6165 11.7743 10.6287 11.792 10.6376C11.8098 10.6463 11.8289 10.6496 11.8498 10.6474C11.8707 10.6452 11.8942 10.6367 11.9204 10.6216C11.9456 10.6071 11.9635 10.5903 11.9745 10.5711C11.985 10.5526 11.988 10.533 11.9834 10.5121L11.9536 10.523C11.9614 10.5629 11.9336 10.5822 11.9024 10.6005C11.8536 10.628 11.8061 10.626 11.7769 10.5847C11.7467 10.5381 11.7797 10.4997 11.8212 10.4747C11.8507 10.4577 11.8797 10.446 11.9074 10.4623L11.9308 10.443C11.9146 10.4327 11.8964 10.428 11.8756 10.429C11.8537 10.4302 11.8309 10.4376 11.8067 10.4516Z" fill="#C8A400"/>
<path d="M12.0617 10.3337L12.0391 10.5578L12.0727 10.5452L12.0795 10.4757L12.0796 10.4757L12.1889 10.4349L12.2458 10.4806L12.2795 10.468L12.0953 10.3211L12.0617 10.3337L12.0617 10.3337ZM12.0912 10.3566L12.163 10.4142L12.0826 10.4442L12.0912 10.3566Z" fill="#C8A400"/>
<path d="M12.5352 10.2105C12.5397 10.2771 12.5441 10.3436 12.5486 10.4101C12.5876 10.4077 12.6267 10.406 12.6656 10.403C12.6962 10.3998 12.7291 10.3924 12.75 10.3698C12.777 10.3421 12.7808 10.3006 12.769 10.2661C12.7591 10.2357 12.7296 10.2126 12.6961 10.2068C12.6632 10.201 12.6296 10.2056 12.5965 10.207C12.576 10.2082 12.5556 10.2093 12.5352 10.2105V10.2105ZM12.5684 10.2371C12.5994 10.2356 12.6304 10.2328 12.6615 10.2326C12.6791 10.2321 12.6967 10.2369 12.7109 10.2466C12.7325 10.2603 12.7452 10.2849 12.7424 10.3091C12.7408 10.3369 12.7188 10.3625 12.6896 10.3695C12.6729 10.3735 12.6555 10.3746 12.6385 10.3764C12.6183 10.3776 12.5982 10.3787 12.5781 10.3799C12.5748 10.3323 12.5716 10.2847 12.5684 10.2371Z" fill="#C8A400"/>
<path d="M12.8365 10.1992C12.8324 10.2658 12.8283 10.3323 12.8242 10.3989C12.8942 10.4026 12.9641 10.4063 13.0341 10.41C13.0347 10.4005 13.0353 10.3911 13.0359 10.3816C12.9763 10.3785 12.9168 10.3753 12.8573 10.3722C12.8586 10.3519 12.8598 10.3317 12.8611 10.3114C12.9147 10.3142 12.9683 10.3171 13.022 10.3199C13.0225 10.3105 13.0231 10.3011 13.0237 10.2917C12.9701 10.2889 12.9164 10.286 12.8628 10.2832C12.8639 10.2653 12.865 10.2473 12.8661 10.2294C12.9234 10.2324 12.9807 10.2355 13.038 10.2385C13.0386 10.229 13.0391 10.2195 13.0397 10.21C12.972 10.2064 12.9043 10.2028 12.8365 10.1992Z" fill="#C8A400"/>
<path d="M13.4004 10.2836L13.3223 10.4701L13.35 10.48L13.412 10.3322L13.4152 10.3245L13.4186 10.333L13.4931 10.5314L13.5295 10.5445L13.6076 10.358L13.5798 10.348L13.5179 10.4958L13.5147 10.5033L13.5113 10.4949L13.4367 10.2966L13.4004 10.2836Z" fill="#C8A400"/>
<path d="M13.6905 10.3957L13.5923 10.5738L13.5635 10.5602L13.6617 10.382L13.6905 10.3957Z" fill="#C8A400"/>
<path d="M13.8539 10.4848C13.8329 10.472 13.8116 10.4635 13.7896 10.4594C13.7676 10.4553 13.7475 10.4565 13.7292 10.4633C13.7108 10.47 13.6957 10.4818 13.6836 10.4988C13.6725 10.5143 13.6664 10.5315 13.6652 10.5501C13.664 10.5687 13.6688 10.5861 13.6797 10.6028C13.6905 10.6195 13.7087 10.6357 13.7345 10.6515C13.7592 10.6666 13.7831 10.6746 13.8066 10.6759C13.8291 10.677 13.8496 10.6713 13.8682 10.6588L13.8451 10.6382C13.8091 10.6615 13.7786 10.6461 13.7477 10.6275C13.7003 10.5979 13.6824 10.5571 13.7108 10.5153C13.7439 10.4705 13.7954 10.4822 13.8373 10.5067C13.8663 10.5244 13.8898 10.544 13.8853 10.574L13.914 10.5857C13.9174 10.5678 13.9145 10.5504 13.9047 10.5334C13.8945 10.5155 13.8777 10.4994 13.8539 10.4848Z" fill="#C8A400"/>
<path d="M14.0588 10.6305L13.833 10.7139L13.8604 10.7359L13.9303 10.7098L13.9304 10.7099L14.0194 10.7814L14.0014 10.8492L14.0288 10.8712L14.0862 10.6525L14.0588 10.6305L14.0588 10.6305ZM14.0502 10.6653L14.0275 10.7507L13.962 10.6981L14.0502 10.6653Z" fill="#C8A400"/>
<path d="M14.2223 10.7711C14.1668 10.8135 14.1112 10.8559 14.0557 10.8983C14.0624 10.9059 14.0691 10.9134 14.0757 10.9209C14.0976 10.9042 14.1194 10.8875 14.1413 10.8708C14.1635 10.8955 14.1851 10.9207 14.2078 10.945C14.2009 10.9786 14.1939 11.0123 14.1871 11.046C14.1956 11.0555 14.2041 11.065 14.2126 11.0746C14.2198 11.039 14.2271 11.0035 14.2343 10.968C14.253 10.9821 14.2803 10.9892 14.3026 10.978C14.3218 10.9696 14.3387 10.9535 14.3396 10.9329C14.342 10.9053 14.3207 10.883 14.3037 10.8625C14.2766 10.832 14.2494 10.8016 14.2223 10.7711ZM14.2186 10.8118C14.242 10.8384 14.2665 10.8643 14.2888 10.8917C14.299 10.9059 14.3118 10.9258 14.3001 10.9423C14.2903 10.9564 14.2691 10.9552 14.256 10.946C14.2296 10.9296 14.2121 10.9043 14.1914 10.8824C14.1826 10.8725 14.1738 10.8626 14.165 10.8527C14.1829 10.8391 14.2008 10.8254 14.2186 10.8118Z" fill="#C8A400"/>
<path d="M14.4753 11.0851L14.2324 11.0955L14.2505 11.1246L14.3258 11.1212L14.3258 11.1213L14.3846 11.2158L14.3436 11.2744L14.3617 11.3035L14.4933 11.1143L14.4753 11.0851L14.4753 11.0851ZM14.4548 11.1154L14.4032 11.1893L14.3599 11.1197L14.4548 11.1154Z" fill="#C8A400"/>
<path d="M14.6131 11.3538C14.5996 11.3199 14.5783 11.2852 14.5422 11.2682C14.5021 11.2495 14.4487 11.2586 14.4203 11.2913C14.3955 11.3185 14.3943 11.3569 14.4009 11.3903C14.4087 11.4287 14.4277 11.4652 14.4562 11.494C14.4509 11.4958 14.4455 11.4976 14.4401 11.4994C14.4436 11.5083 14.447 11.5172 14.4504 11.526C14.4842 11.5148 14.5179 11.5036 14.5516 11.4924C14.5385 11.4586 14.5254 11.4249 14.5123 11.3912C14.5045 11.3938 14.4967 11.3964 14.4889 11.399C14.4985 11.4238 14.5082 11.4487 14.5178 11.4735C14.5064 11.4773 14.495 11.4811 14.4836 11.4849C14.4533 11.4609 14.4365 11.4253 14.4277 11.39C14.4212 11.3635 14.4209 11.3317 14.4427 11.3108C14.4676 11.2868 14.5118 11.2793 14.5418 11.2998C14.5713 11.3198 14.5879 11.3522 14.5964 11.3844C14.6021 11.4056 14.6012 11.4308 14.5838 11.4474C14.579 11.4508 14.5867 11.4555 14.588 11.4595C14.5907 11.4637 14.5935 11.4679 14.5962 11.4721C14.6145 11.4588 14.6256 11.4378 14.6253 11.4162C14.6259 11.3949 14.6208 11.3738 14.6131 11.3538Z" fill="#C8A400"/>
<path d="M14.6757 11.507L14.5549 11.5288C14.5325 11.5328 14.5157 11.5394 14.5045 11.5481C14.4933 11.5569 14.4861 11.5692 14.4827 11.5856C14.4792 11.6018 14.4797 11.6216 14.4848 11.6458C14.4848 11.646 14.4848 11.6461 14.4849 11.6463C14.49 11.6705 14.4976 11.689 14.5073 11.7029C14.5171 11.7169 14.5287 11.7258 14.5427 11.73C14.5566 11.7342 14.5748 11.7345 14.5972 11.7305L14.718 11.7087L14.712 11.6802L14.5942 11.7014C14.5412 11.7109 14.5234 11.6851 14.5143 11.641C14.5143 11.6408 14.5143 11.6407 14.5142 11.6405C14.5048 11.5964 14.5109 11.5663 14.5638 11.5568L14.6817 11.5356L14.6757 11.507V11.507Z" fill="#C8A400"/>
<path d="M14.7421 11.8487L14.5186 11.7602L14.5212 11.7937L14.5905 11.8209L14.5905 11.8211L14.5991 11.9298L14.5347 11.9661L14.5373 11.9996L14.7447 11.8822L14.7421 11.8487V11.8487ZM14.7094 11.8677L14.6283 11.9134L14.622 11.8333L14.7094 11.8677Z" fill="#C8A400"/>
<path d="M10.9921 12.3725L11.0234 12.3648L11.0581 12.4867L11.0267 12.4943L10.9921 12.3725Z" fill="#C8A400"/>
<path d="M14.6095 12.3725L14.5781 12.3648L14.5435 12.4867L14.5748 12.4943L14.6095 12.3725Z" fill="#C8A400"/>
<path d="M11.3577 12.8805L11.1162 12.9062L11.1364 12.9341L11.2113 12.9259L11.2113 12.926L11.277 13.0166L11.2404 13.0776L11.2606 13.1055L11.3779 12.9084L11.3577 12.8805L11.3577 12.8805ZM11.3395 12.912L11.2935 12.9889L11.2452 12.9222L11.3395 12.912Z" fill="#C8A400"/>
<path d="M11.4508 13.0023L11.2969 13.1356L11.3174 13.156L11.4472 13.0437L11.3791 13.2171L11.4027 13.2404L11.5887 13.1881L11.4613 13.2984L11.4818 13.3188L11.6358 13.1855L11.6046 13.1546L11.4155 13.2069L11.4863 13.0375L11.4508 13.0023Z" fill="#C8A400"/>
<path d="M11.6749 13.2133C11.6315 13.2665 11.5882 13.3198 11.5449 13.3731C11.6009 13.4121 11.6569 13.4511 11.7129 13.4902C11.719 13.4826 11.7252 13.475 11.7313 13.4675C11.6837 13.4342 11.6361 13.401 11.5885 13.3678C11.6016 13.3516 11.6148 13.3354 11.628 13.3192C11.6709 13.3491 11.7138 13.3791 11.7568 13.409C11.7629 13.4014 11.769 13.3939 11.7751 13.3864C11.7322 13.3565 11.6893 13.3265 11.6464 13.2966C11.658 13.2823 11.6697 13.2679 11.6814 13.2536C11.7272 13.2855 11.7731 13.3175 11.8189 13.3495C11.8251 13.3419 11.8313 13.3343 11.8374 13.3267C11.7832 13.2889 11.7291 13.2511 11.6749 13.2133Z" fill="#C8A400"/>
<path d="M11.8859 13.3539C11.852 13.4127 11.8181 13.4715 11.7842 13.5304C11.7935 13.535 11.8027 13.5395 11.812 13.5441C11.8253 13.521 11.8387 13.4979 11.852 13.4747C11.8827 13.4897 11.9131 13.5053 11.944 13.5198C11.9515 13.5534 11.9589 13.5869 11.9665 13.6205C11.9782 13.6263 11.99 13.6321 12.0018 13.6379C11.9939 13.6025 11.9859 13.5671 11.978 13.5317C12.0011 13.5382 12.0292 13.5352 12.0453 13.5169C12.0588 13.5028 12.0681 13.4831 12.0616 13.4641C12.054 13.4381 12.0263 13.4244 12.0029 13.4118C11.964 13.3924 11.9249 13.3732 11.8859 13.3539ZM11.8992 13.3928C11.9318 13.4093 11.9651 13.4245 11.997 13.442C12.0118 13.4513 12.0305 13.4639 12.0287 13.4826C12.027 13.4989 12.008 13.5076 11.9919 13.5042C11.9604 13.4993 11.9338 13.4819 11.9057 13.4689C11.8926 13.4625 11.8796 13.456 11.8665 13.4496C11.8774 13.4307 11.8883 13.4117 11.8992 13.3928Z" fill="#C8A400"/>
<path d="M12.1295 13.4758L12.0479 13.6609L12.0778 13.6723L12.1595 13.4871L12.1295 13.4758Z" fill="#C8A400"/>
<path d="M12.3245 13.5367C12.3006 13.5294 12.2777 13.5263 12.2552 13.5276C12.2329 13.5289 12.2138 13.535 12.198 13.5459C12.1822 13.5568 12.1709 13.5719 12.164 13.5912C12.1576 13.6088 12.1565 13.6268 12.1606 13.6451C12.1646 13.6633 12.1741 13.679 12.1893 13.6926C12.2044 13.7061 12.2266 13.7174 12.2559 13.7264C12.2841 13.735 12.3093 13.7371 12.3324 13.7326C12.3544 13.7283 12.3726 13.7179 12.3871 13.7013L12.359 13.687C12.3308 13.7181 12.297 13.7105 12.2619 13.7C12.2079 13.6828 12.1792 13.6477 12.1949 13.6006C12.2143 13.5493 12.2673 13.5483 12.3146 13.5619C12.3475 13.572 12.3758 13.5852 12.3799 13.6153L12.4108 13.6197C12.4091 13.6016 12.4014 13.5855 12.3872 13.5714C12.3723 13.5566 12.3515 13.5451 12.3245 13.5367Z" fill="#C8A400"/>
<path d="M12.5417 13.5836L12.4004 13.7668L12.4363 13.7716L12.4799 13.7147L12.4801 13.7147L12.5966 13.7303L12.6211 13.7963L12.657 13.8011L12.5776 13.5884L12.5417 13.5836L12.5417 13.5836ZM12.5547 13.6172L12.5855 13.7004L12.4997 13.6889L12.5547 13.6172Z" fill="#C8A400"/>
<path d="M13.0479 13.5823C13.0232 13.5867 13.0016 13.5944 12.9827 13.6057C12.9639 13.617 12.9505 13.6309 12.9425 13.6476C12.9345 13.6643 12.9325 13.6825 12.9367 13.7025C12.9405 13.7207 12.9491 13.7369 12.9623 13.7511C12.9754 13.7651 12.992 13.7745 13.0124 13.7794C13.0327 13.7843 13.058 13.7842 13.0884 13.7787C13.1175 13.7735 13.1406 13.7638 13.1583 13.7495C13.1753 13.7358 13.1857 13.7184 13.1895 13.6974L13.1574 13.6977C13.1493 13.7376 13.1159 13.7463 13.0797 13.753C13.0235 13.7625 12.9799 13.7449 12.9686 13.6967C12.9584 13.6432 13.0041 13.6182 13.0526 13.6087C13.0867 13.6026 13.1183 13.6013 13.1378 13.6257L13.1671 13.6154C13.156 13.6005 13.1408 13.59 13.1209 13.5841C13.1001 13.5779 13.0759 13.5773 13.0479 13.5823Z" fill="#C8A400"/>
<path d="M13.1924 13.5575C13.2129 13.6214 13.2333 13.6853 13.2538 13.7492C13.321 13.7308 13.3882 13.7123 13.4554 13.6939C13.4525 13.6848 13.4496 13.6757 13.4466 13.6666C13.3895 13.6823 13.3323 13.698 13.2752 13.7137C13.269 13.6943 13.2627 13.6748 13.2565 13.6554C13.308 13.6412 13.3595 13.6271 13.411 13.6129C13.4081 13.6039 13.4052 13.5949 13.4023 13.5858C13.3508 13.6 13.2993 13.6141 13.2478 13.6283C13.2423 13.6111 13.2368 13.5938 13.2313 13.5766C13.2863 13.5615 13.3413 13.5464 13.3963 13.5313C13.3934 13.5222 13.3904 13.513 13.3875 13.5039C13.3225 13.5218 13.2574 13.5396 13.1924 13.5575Z" fill="#C8A400"/>
<path d="M13.4258 13.4919C13.456 13.5524 13.4862 13.6129 13.5165 13.6734C13.5255 13.6695 13.5345 13.6657 13.5435 13.6618C13.5183 13.6113 13.4931 13.5609 13.4679 13.5104C13.5378 13.5398 13.6073 13.57 13.6771 13.5997C13.6817 13.6034 13.6864 13.6009 13.691 13.5986C13.7001 13.5947 13.7091 13.5909 13.7182 13.587C13.688 13.5265 13.6577 13.466 13.6275 13.4055C13.6185 13.4093 13.6094 13.4132 13.6004 13.4171C13.6256 13.4675 13.6508 13.5179 13.6759 13.5683C13.6042 13.5381 13.5328 13.5072 13.4611 13.4767C13.4493 13.4818 13.4376 13.4868 13.4258 13.4919V13.4919Z" fill="#C8A400"/>
<path d="M13.6631 13.3881L13.68 13.4119L13.7572 13.3649L13.7601 13.3631L13.7615 13.3651L13.8619 13.5063L13.8881 13.4904L13.7878 13.3492L13.7863 13.3471L13.7893 13.3453L13.8668 13.298L13.8499 13.2742L13.6631 13.3881Z" fill="#C8A400"/>
<path d="M13.8809 13.251C13.9297 13.3 13.9785 13.349 14.0273 13.3981C14.035 13.3915 14.0427 13.3849 14.0505 13.3783C14.0313 13.359 14.0121 13.3397 13.9929 13.3204C14.0183 13.2985 14.0442 13.2772 14.0692 13.2549C14.1059 13.2594 14.1425 13.264 14.1792 13.2684C14.189 13.26 14.1988 13.2517 14.2086 13.2433C14.1699 13.2386 14.1312 13.2338 14.0925 13.2291C14.1068 13.211 14.1129 13.1854 14.0996 13.1654C14.0895 13.1481 14.0711 13.1334 14.0489 13.1336C14.019 13.133 13.9961 13.1538 13.975 13.1707C13.9436 13.1974 13.9122 13.2242 13.8809 13.251ZM13.9249 13.2521C13.9524 13.2291 13.9789 13.205 14.0073 13.1829C14.022 13.1726 14.0427 13.1597 14.0612 13.1697C14.077 13.1779 14.0768 13.1976 14.0677 13.2102C14.0513 13.2356 14.025 13.2532 14.0025 13.2735C13.9923 13.2821 13.9822 13.2908 13.972 13.2995C13.9563 13.2837 13.9406 13.2679 13.9249 13.2521Z" fill="#C8A400"/>
<path d="M14.1318 13.019L14.2285 13.2255L14.2514 13.1995L14.2213 13.1356L14.2214 13.1355L14.296 13.051L14.3696 13.0657L14.3926 13.0397L14.1548 12.993L14.1318 13.019L14.1318 13.019ZM14.1697 13.0259L14.2626 13.0444L14.2077 13.1066L14.1697 13.0259Z" fill="#C8A400"/>
<path d="M14.2256 12.9042L14.4068 13.013L14.5019 12.8772L14.4762 12.8617L14.4001 12.9704L14.3981 12.9731L14.3959 12.9718L14.2427 12.8798L14.2256 12.9042Z" fill="#C8A400"/>
<path d="M12.8001 10.5273L12.1202 11.6181L11.7871 12.1521H13.8131L13.4953 11.6424L12.8001 10.5273H12.8001Z" fill="white"/>
<path opacity="0.620408" d="M12.7999 10.5289L12.749 10.6105L12.7999 11.7101L12.8508 10.6105L12.7999 10.5289Z" fill="#17C0EB" stroke="#17C0EB" stroke-width="0.128693"/>
<path d="M12.7998 11.5508C12.7988 11.5508 12.7978 11.5508 12.7969 11.5508L12.7998 11.6131L12.8026 11.5508C12.8017 11.5508 12.8007 11.5508 12.7998 11.5508Z" fill="white"/>
<path d="M12.8003 11.3133C12.5613 11.3133 12.3425 11.3943 12.1746 11.5283L11.858 12.0364C11.8472 12.0898 11.8418 12.1451 11.8418 12.2014H11.9505C11.9505 11.7669 12.331 11.4145 12.8003 11.4145C13.2696 11.4145 13.6501 11.7669 13.6501 12.2014H13.7588C13.7588 12.1451 13.7534 12.0898 13.7426 12.0364L13.426 11.5283C13.2581 11.3944 13.0393 11.3133 12.8003 11.3133L12.8003 11.3133Z" fill="#FF0000"/>
<path d="M12.8 11.3274C12.5459 11.3274 12.3153 11.4209 12.1459 11.5724L11.8861 11.9892C11.8681 12.0566 11.8584 12.1268 11.8584 12.1992H11.9502C11.9502 11.7647 12.3307 11.4124 12.8 11.4124C13.2693 11.4124 13.6499 11.7647 13.6499 12.1992H13.7417C13.7417 12.1267 13.732 12.056 13.714 11.9886L13.4541 11.5724C13.2847 11.4209 13.0541 11.3274 12.8 11.3274L12.8 11.3274Z" fill="#FF6600"/>
<path d="M12.8001 11.3461C12.5257 11.3461 12.2795 11.4566 12.1102 11.6324L11.9219 11.9342C11.892 12.0184 11.876 12.1083 11.876 12.2017H11.9502C11.9502 11.7672 12.3308 11.4149 12.8001 11.4149C13.2693 11.4149 13.6499 11.7672 13.6499 12.2017H13.7241C13.7241 12.1083 13.7081 12.0184 13.6782 11.9342L13.4899 11.6323C13.3206 11.4566 13.0744 11.3461 12.8 11.3461L12.8001 11.3461Z" fill="#FFFF00"/>
<path d="M12.7998 11.3602C12.4855 11.3602 12.2086 11.5085 12.0458 11.7333L11.9851 11.8308C11.926 11.9423 11.8926 12.0676 11.8926 12.2002H11.95C11.95 11.7656 12.3305 11.4133 12.7998 11.4133C13.2691 11.4133 13.6496 11.7656 13.6496 12.2002H13.707C13.707 12.0679 13.6734 11.9427 13.6145 11.8314L13.5531 11.7327C13.3903 11.5081 13.1138 11.3602 12.7998 11.3602L12.7998 11.3602Z" fill="#00FF00"/>
<path d="M12.7998 11.3789C12.3085 11.3789 11.9102 11.7477 11.9102 12.2027H11.95C11.95 11.7681 12.3305 11.4158 12.7998 11.4158C13.2691 11.4158 13.6496 11.7681 13.6496 12.2027H13.6895C13.6895 11.7477 13.2911 11.3789 12.7998 11.3789H12.7998Z" fill="#00CCFF"/>
<path d="M12.7998 11.393C12.318 11.393 11.9277 11.755 11.9277 12.2011H11.9568C11.9568 11.7699 12.3341 11.4205 12.7998 11.4205C13.2655 11.4205 13.6429 11.7699 13.6429 12.2011H13.6726C13.6726 11.755 13.2816 11.393 12.7998 11.393H12.7998Z" fill="#0000FF"/>
<path d="M12.8004 11.4117C12.3282 11.4117 11.9453 11.7662 11.9453 12.2035C11.9453 12.2084 11.9454 12.2133 11.9455 12.2182H11.9628C11.9627 12.2133 11.9626 12.2084 11.9626 12.2035C11.9626 11.7751 12.3377 11.4278 12.8004 11.4278C13.2631 11.4278 13.6382 11.7751 13.6382 12.2035C13.6382 12.2084 13.6382 12.2133 13.6381 12.2182H13.6553C13.6554 12.2133 13.6555 12.2084 13.6555 12.2035C13.6555 11.7662 13.2727 11.4117 12.8004 11.4117H12.8004Z" fill="#800080"/>
<path d="M12.8088 11.759C12.7949 11.7566 12.7824 11.7494 12.7705 11.7469C12.7542 11.7613 12.7525 11.776 12.7547 11.7884C12.7604 11.7912 12.7614 11.7955 12.7737 11.8056C12.7859 11.8158 12.7844 11.8211 12.7836 11.845C12.7833 11.855 12.7852 11.8766 12.7962 11.8786C12.808 11.8808 12.8163 11.8717 12.8197 11.8554C12.823 11.8396 12.8287 11.8311 12.8348 11.8213C12.8414 11.7843 12.8306 11.7712 12.8088 11.759Z" fill="#510000"/>
<path d="M12.7396 11.6688C12.7268 11.6691 12.7066 11.6891 12.6977 11.6783C12.6925 11.6722 12.6917 11.6603 12.6969 11.6503C12.7089 11.6273 12.7212 11.616 12.7437 11.6037C12.795 11.5757 12.8277 11.5847 12.8533 11.625C12.877 11.6604 12.8998 11.6996 12.9018 11.7324C12.9024 11.7424 12.9079 11.7606 12.8984 11.7696C12.8693 11.7974 12.7992 11.7409 12.7581 11.7498C12.7443 11.7529 12.7283 11.7622 12.7153 11.7542C12.7052 11.748 12.7136 11.7343 12.7212 11.7283C12.7344 11.7179 12.7536 11.681 12.751 11.665C12.7495 11.6561 12.7493 11.6686 12.7397 11.6688H12.7396Z" fill="#FF0000"/>
<path d="M12.734 11.6505C12.7106 11.6594 12.7131 11.672 12.7014 11.6823C12.7047 11.6835 12.7179 11.6885 12.7308 11.6763C12.7364 11.672 12.7427 11.6704 12.7455 11.669C12.7389 11.6735 12.7342 11.6801 12.7307 11.6827C12.722 11.6893 12.7084 11.7044 12.7017 11.7197C12.6951 11.7349 12.6924 11.7531 12.6936 11.7553C12.6948 11.7575 12.7028 11.7709 12.7274 11.7799C12.7713 11.7961 12.7797 11.8287 12.8242 11.8287C12.859 11.8287 12.8534 11.8076 12.8813 11.8121C12.9055 11.816 12.9183 11.7981 12.895 11.7874C12.8654 11.7781 12.8067 11.7836 12.779 11.7881C12.7701 11.7064 12.7778 11.7351 12.7757 11.7C12.7736 11.6649 12.7623 11.6628 12.7773 11.6344C12.7648 11.6518 12.7497 11.6491 12.734 11.6505L12.734 11.6505Z" fill="url(#paint0_linear_14099_119921)"/>
<path d="M12.8207 11.5922C12.8198 11.5967 12.819 11.6025 12.8195 11.6042C12.8213 11.611 12.8232 11.6181 12.8255 11.6241C12.8279 11.6308 12.829 11.6357 12.8307 11.6426C12.8324 11.6498 12.8393 11.6526 12.8456 11.6571C12.8536 11.6627 12.8475 11.6778 12.8524 11.6784C12.8564 11.6789 12.863 11.657 12.863 11.6535C12.863 11.6488 12.863 11.645 12.8622 11.6406C12.8593 11.6347 12.8564 11.6289 12.853 11.6231C12.853 11.6231 12.8529 11.623 12.8528 11.623C12.8515 11.6207 12.8502 11.6185 12.8486 11.6164C12.844 11.61 12.8382 11.6041 12.8317 11.5991C12.8313 11.5988 12.8309 11.5985 12.8305 11.5982C12.8286 11.5969 12.8268 11.5956 12.8249 11.5945C12.8235 11.5936 12.8221 11.5929 12.8207 11.5922L12.8207 11.5922Z" fill="#FF2A2A"/>
<path d="M12.8273 11.7463C12.8118 11.7426 12.7965 11.7355 12.7833 11.7318C12.7574 11.7247 12.7297 11.7092 12.7106 11.7156C12.7038 11.7184 12.7044 11.7247 12.7022 11.7338C12.7013 11.7444 12.6893 11.7601 12.6992 11.755C12.714 11.7473 12.753 11.7697 12.7661 11.7771C12.7723 11.7807 12.7854 11.7876 12.7895 11.7976C12.7935 11.8075 12.7914 11.8327 12.7903 11.8435C12.7892 11.8548 12.7929 11.8802 12.8052 11.8832C12.8184 11.8865 12.8284 11.8768 12.8336 11.8586C12.8386 11.841 12.8423 11.8309 12.8499 11.8203C12.8575 11.8098 12.8663 11.8052 12.8785 11.8031C12.8906 11.8009 12.9083 11.8123 12.9083 11.799C12.9083 11.7903 12.9 11.7819 12.9035 11.7699C12.9063 11.7605 12.8949 11.7624 12.8854 11.7585C12.863 11.7521 12.8428 11.7501 12.8273 11.7463Z" fill="url(#paint1_linear_14099_119921)"/>
<path d="M12.765 11.7777C12.758 11.7742 12.715 11.7482 12.6993 11.7563C12.6943 11.7589 12.6925 11.756 12.6924 11.7511C12.6923 11.7463 12.6947 11.7393 12.6964 11.7338C12.698 11.7284 12.7006 11.718 12.7075 11.7126C12.7224 11.701 12.7565 11.7241 12.7747 11.7303C12.7731 11.739 12.7645 11.7774 12.765 11.7777Z" fill="#910000"/>
<path d="M12.8386 11.8252C12.8584 11.7931 12.8712 11.7972 12.8951 11.7977C12.903 11.7979 12.9054 11.7911 12.9035 11.7844C12.8975 11.7968 12.8676 11.783 12.8514 11.7896C12.8174 11.8035 12.8237 11.865 12.8076 11.871C12.8244 11.884 12.8319 11.8361 12.8386 11.8252Z" fill="#FF3A3A"/>
<path d="M11.7873 12.1547L11.5723 12.4994H14.0284L13.8133 12.1547H11.7873H11.7873Z" fill="white"/>
<path d="M11.7138 12.4274C11.678 12.4274 11.6447 12.4308 11.6121 12.4345L11.6016 12.4514C11.6541 12.4471 11.703 12.4384 11.7558 12.4372C11.8269 12.4389 11.8915 12.4538 11.9672 12.4538C12 12.4541 12.0326 12.4532 12.0649 12.4538C12.1405 12.4538 12.2051 12.4389 12.2762 12.4372C12.3474 12.4389 12.4124 12.4538 12.488 12.4538C12.5208 12.4539 12.5566 12.4534 12.5858 12.4538C12.6614 12.4538 12.7257 12.4389 12.7968 12.4372C12.8679 12.4389 12.9322 12.4538 13.0078 12.4538C13.0408 12.4541 13.0733 12.4532 13.1059 12.4538C13.1815 12.4538 13.2461 12.4389 13.3173 12.4372C13.3885 12.4388 13.453 12.4538 13.5286 12.4538C13.5613 12.4541 13.5941 12.4532 13.6264 12.4538C13.702 12.4538 13.7663 12.4389 13.8374 12.4372C13.8925 12.4385 13.9437 12.4476 13.9991 12.4517L13.9879 12.4339C13.9576 12.4305 13.9267 12.4274 13.8936 12.4274C13.8606 12.427 13.828 12.4281 13.7954 12.4274C13.7198 12.4274 13.6555 12.4424 13.5845 12.444C13.5133 12.4424 13.4487 12.4274 13.3731 12.4274C13.3404 12.427 13.3076 12.4281 13.2753 12.4274C13.1997 12.4274 13.1351 12.4424 13.0639 12.444C12.9928 12.4424 12.9282 12.4274 12.8526 12.4274C12.8198 12.427 12.7869 12.4281 12.7544 12.4274C12.6788 12.4274 12.6145 12.4424 12.5435 12.444C12.4723 12.4424 12.4081 12.4274 12.3325 12.4274C12.2996 12.427 12.2671 12.4281 12.2347 12.4274C12.1591 12.4274 12.0945 12.4424 12.0233 12.444C11.9522 12.4424 11.8876 12.4274 11.812 12.4274C11.7792 12.427 11.7463 12.4281 11.7138 12.4274H11.7138Z" fill="url(#paint2_linear_14099_119921)"/>
<path d="M11.79 12.15L11.7874 12.1543H13.8132L13.8106 12.15H11.79H11.79ZM11.7853 12.1575L11.7826 12.1619H13.818L13.8153 12.1575H11.7853ZM11.781 12.1645L11.7765 12.1716H13.824L13.8196 12.1645H11.781ZM11.7741 12.1755L11.7687 12.1841H13.8319L13.8265 12.1755H11.7741H11.7741ZM11.7655 12.1893L11.7601 12.198H13.8405L13.8351 12.1893H11.7655H11.7655ZM11.7569 12.2031L11.7515 12.2117H13.849L13.8437 12.2031H11.7569H11.7569ZM11.7483 12.217L11.7429 12.2256H13.8577L13.8523 12.217H11.7483H11.7483ZM11.739 12.2318L11.7324 12.2424H13.8682L13.8616 12.2318H11.739Z" fill="url(#paint3_linear_14099_119921)"/>
<path d="M11.8789 12.2484C11.9534 12.2617 11.9606 12.2484 11.9606 12.2484H11.8789ZM13.6394 12.2484C13.6394 12.2484 13.6465 12.2617 13.7211 12.2484H13.6394Z" fill="url(#paint4_linear_14099_119921)"/>
<path d="M13.4619 11.9406C13.425 11.9406 13.4137 11.9579 13.4137 11.9579C13.3546 12.1694 13.1586 12.3845 12.9255 12.3845H12.751V12.5999C12.751 12.5999 12.7512 12.5999 12.7513 12.5999H14.0797L13.9461 12.3808C13.7364 12.3518 13.565 12.1533 13.5105 11.9579C13.5105 11.9579 13.4988 11.9406 13.4619 11.9406H13.4619Z" fill="url(#paint5_linear_14099_119921)"/>
<path d="M13.4616 11.95C13.4446 11.95 13.4343 11.9536 13.4283 11.9571C13.4226 11.9604 13.4215 11.9626 13.4214 11.9628C13.4214 11.963 13.4211 11.963 13.421 11.9632C13.3908 12.0696 13.327 12.1765 13.241 12.2573C13.1544 12.3387 13.0451 12.3939 12.9255 12.3939H12.7598V12.5923H14.0742L13.9516 12.3912C13.8503 12.3789 13.7577 12.3279 13.6825 12.2573C13.5964 12.1765 13.5327 12.0696 13.5024 11.9632C13.5024 11.9632 13.5021 11.9628 13.5021 11.9628C13.5019 11.9626 13.5006 11.9607 13.4948 11.9574C13.4887 11.9539 13.4785 11.95 13.4616 11.95H13.4616Z" fill="#97C924"/>
<path d="M13.4619 11.95C13.465 11.95 13.4679 11.9504 13.4706 11.9507C13.4711 12.011 13.4706 12.1128 13.4706 12.1667C13.47 12.2135 13.4527 12.2511 13.4272 12.2955C13.4153 12.3266 13.4059 12.3148 13.3764 12.3526C13.3369 12.3657 13.3076 12.3708 13.2654 12.377C13.2111 12.3849 13.09 12.392 13.0303 12.3797C13.1089 12.3583 13.1806 12.3143 13.2413 12.2573C13.2574 12.2421 13.2729 12.2261 13.2873 12.2093C13.3115 12.1813 13.3333 12.151 13.3523 12.1197C13.3599 12.1072 13.3672 12.0947 13.3739 12.0818C13.384 12.0625 13.393 12.0428 13.4009 12.023C13.4035 12.0164 13.4062 12.0097 13.4086 12.0031C13.4134 11.9898 13.4176 11.9765 13.4213 11.9632C13.4214 11.963 13.4217 11.963 13.4217 11.9628C13.4218 11.9626 13.423 11.9604 13.4286 11.9571C13.4316 11.9554 13.4358 11.9537 13.4411 11.9523C13.4412 11.9523 13.4413 11.9524 13.4414 11.9523C13.4469 11.951 13.4534 11.95 13.4619 11.95H13.4619Z" fill="#EDE71F"/>
<path d="M13.4471 11.9781C13.4382 12.0988 13.3979 12.242 13.3036 12.3343C13.2689 12.3611 13.2245 12.3853 13.1816 12.3794C13.3279 12.2692 13.4168 12.1005 13.4471 11.9781Z" fill="#C6CB24"/>
<path d="M13.3296 12.1844C13.308 12.2388 13.2262 12.3193 13.1387 12.3853C13.1138 12.386 13.1007 12.3873 13.0781 12.386C13.1314 12.3815 13.2557 12.2844 13.3296 12.1844L13.3296 12.1844Z" fill="#9ECB34"/>
<path d="M12.8483 11.9579C12.9073 12.1694 13.1029 12.3846 13.336 12.3846H13.5108V12.5999C13.5108 12.6 13.5104 12.5999 13.5104 12.5999H12.0892C12.0891 12.5999 12.0889 12.6 12.0889 12.5999V12.3846H12.2632C12.4963 12.3846 12.6923 12.1694 12.7514 11.9579C12.7514 11.9579 12.7629 11.9406 12.7998 11.9406C12.8367 11.9406 12.8483 11.9579 12.8483 11.9579H12.8483Z" fill="url(#paint6_linear_14099_119921)"/>
<path d="M12.7994 11.95C12.8164 11.95 12.8265 11.9539 12.8327 11.9574C12.8385 11.9607 12.8398 11.9626 12.84 11.9628L12.8403 11.9632C12.8706 12.0696 12.9343 12.1765 13.0204 12.2573C13.1071 12.3387 13.2166 12.3939 13.3362 12.3939H13.5012V12.5923H12.0977V12.3939H12.2634C12.383 12.3939 12.4922 12.3387 12.5789 12.2573C12.6649 12.1765 12.7287 12.0696 12.7589 11.9632C12.759 11.963 12.7592 11.963 12.7593 11.9628C12.7594 11.9626 12.7605 11.9604 12.7662 11.9571C12.7722 11.9536 12.7825 11.95 12.7994 11.95H12.7994Z" fill="#97C924"/>
<path d="M12.7845 11.95C12.7826 11.9503 12.7809 11.9507 12.7793 11.9511C12.7792 11.9511 12.779 11.9511 12.7789 11.9511C12.7736 11.9524 12.7695 11.9541 12.7665 11.9558C12.7608 11.9591 12.7597 11.9613 12.7596 11.9615C12.7596 11.9616 12.7593 11.9617 12.7592 11.9619C12.7554 11.9752 12.7512 11.9885 12.7464 12.0018C12.744 12.0084 12.7414 12.0151 12.7387 12.0217C12.7308 12.0415 12.7218 12.0612 12.7118 12.0805C12.705 12.0934 12.6978 12.1059 12.6902 12.1184C12.6711 12.1498 12.6493 12.18 12.6252 12.208C12.6107 12.2248 12.5953 12.2409 12.5792 12.256C12.5185 12.313 12.4468 12.357 12.3682 12.3784C12.4279 12.3907 12.4552 12.3772 12.5096 12.3693C12.5518 12.3631 12.6006 12.358 12.6401 12.3449C12.6696 12.3071 12.6596 12.3189 12.6714 12.2879C12.6969 12.2435 12.7341 12.2034 12.7434 12.1542C12.7784 12.0938 12.7845 11.982 12.7845 11.95L12.7845 11.95Z" fill="#EDE71F"/>
<path d="M12.785 11.9781C12.7761 12.0988 12.7358 12.242 12.6415 12.3343C12.6068 12.3611 12.5624 12.3853 12.5195 12.3794C12.6658 12.2692 12.7546 12.1005 12.785 11.9781H12.785Z" fill="#C6CB24"/>
<path d="M12.6675 12.1844C12.6459 12.2388 12.5641 12.3193 12.4766 12.3853C12.4517 12.386 12.4386 12.3873 12.416 12.386C12.4693 12.3815 12.5936 12.2844 12.6675 12.1844H12.6675Z" fill="#9ECB34"/>
<path d="M12.8206 11.95C12.8206 11.95 12.8208 11.95 12.8209 11.95C12.8262 11.9513 12.8304 11.953 12.8333 11.9547C12.839 11.958 12.8401 11.9602 12.8402 11.9604C12.8403 11.9605 12.8406 11.9607 12.8406 11.9608C12.8444 11.9741 12.8486 11.9874 12.8534 12.0007C12.8558 12.0073 12.8584 12.014 12.8611 12.0206C12.8691 12.0404 12.878 12.0601 12.8881 12.0795C12.8948 12.0923 12.902 12.1048 12.9096 12.1173C12.9287 12.1487 12.9505 12.1789 12.9746 12.2069C12.9891 12.2237 13.0045 12.2398 13.0207 12.2549C13.0813 12.3119 13.153 12.3638 13.2317 12.3852C13.0752 12.3857 13.0073 12.3726 12.9504 12.3048C12.8935 12.2371 12.8725 12.2075 12.8609 12.1661C12.8494 12.1247 12.8172 12.0347 12.8206 11.95L12.8206 11.95Z" fill="#EDE71F"/>
<path d="M12.832 11.9781C12.8409 12.0988 12.88 12.2182 12.9743 12.3106C13.009 12.3374 13.0534 12.3616 13.0963 12.3557C12.9378 12.2557 12.8624 12.1005 12.832 11.9781Z" fill="#C6CB24"/>
<path d="M12.4708 11.9406C12.4339 11.9406 12.4223 11.9579 12.4223 11.9579C12.3678 12.1528 12.1669 12.4042 11.958 12.4341L11.8545 12.5999H12.9132V12.3729C12.7226 12.3255 12.57 12.1403 12.519 11.9579C12.519 11.9579 12.5077 11.9406 12.4708 11.9406Z" fill="url(#paint7_linear_14099_119921)"/>
<path d="M12.4706 11.95C12.4537 11.95 12.4435 11.9539 12.4374 11.9574C12.4316 11.9607 12.4302 11.9626 12.4301 11.9628C12.4301 11.9628 12.4297 11.9632 12.4297 11.9632C12.3994 12.0696 12.3287 12.1773 12.2552 12.2629C12.1817 12.3486 12.0452 12.4353 11.9519 12.4445L11.8594 12.5923H12.8975V12.3785C12.8207 12.3567 12.7506 12.3131 12.6912 12.2573C12.6051 12.1765 12.5414 12.0696 12.5111 11.9632C12.5111 11.963 12.5108 11.963 12.5108 11.9628C12.5106 11.9626 12.5095 11.9604 12.5038 11.9571C12.4978 11.9536 12.4875 11.95 12.4706 11.95L12.4706 11.95Z" fill="#97C924"/>
<path d="M12.4429 11.9781C12.4296 12.159 12.3208 12.3872 12.198 12.4265C12.1579 12.4393 12.0879 12.4438 12.0635 12.4467C12.2784 12.3521 12.4054 12.1296 12.4429 11.9781H12.4429Z" fill="#93BC30"/>
<path d="M12.4709 11.95C12.4677 11.95 12.4649 11.9504 12.4621 11.9507C12.4616 12.011 12.4621 12.1128 12.4621 12.1667C12.4628 12.2135 12.4801 12.2511 12.5056 12.2955C12.5071 12.2994 12.5085 12.3026 12.51 12.3053C12.5188 12.327 12.5254 12.3346 12.5593 12.3584C12.667 12.4341 12.8005 12.4454 12.8791 12.4392C12.8545 12.4212 12.8282 12.4049 12.805 12.3898C12.842 12.3887 12.8774 12.3849 12.9025 12.3797C12.8239 12.3583 12.7521 12.3143 12.6915 12.2573C12.6809 12.2474 12.671 12.2369 12.6611 12.2262C12.6566 12.2204 12.6503 12.2122 12.6484 12.21C12.6242 12.182 12.5995 12.151 12.5804 12.1197C12.5728 12.1072 12.5656 12.0947 12.5589 12.0818C12.5488 12.0625 12.5398 12.0428 12.5319 12.023C12.5292 12.0164 12.5266 12.0097 12.5242 12.0031C12.5194 11.9898 12.5152 11.9765 12.5114 11.9632C12.5114 11.963 12.5111 11.963 12.5111 11.9628C12.5109 11.9626 12.5098 11.9604 12.5041 11.9571C12.5012 11.9554 12.497 11.9537 12.4917 11.9523C12.4916 11.9523 12.4914 11.9524 12.4913 11.9523C12.4859 11.951 12.4794 11.95 12.4709 11.95H12.4709Z" fill="#EDE71F"/>
<path d="M12.4863 11.9781C12.4952 12.0988 12.5355 12.242 12.6298 12.3343C12.6645 12.3611 12.7089 12.3853 12.7518 12.3794C12.6055 12.2692 12.5167 12.1005 12.4863 11.9781H12.4863Z" fill="#CCD11E"/>
<path d="M12.5762 12.1469C12.6273 12.2636 12.757 12.3726 12.8903 12.4459C12.9152 12.4466 12.9225 12.446 12.9451 12.4447C12.8497 12.3973 12.6959 12.3296 12.5762 12.1469H12.5762Z" fill="#9ECB34"/>
<path d="M14.0205 12.4914C14.0081 12.4955 13.925 12.4876 13.8816 12.4905L13.8539 12.4972C13.8297 12.4971 13.8056 12.4977 13.782 12.4972C13.7042 12.4972 13.6384 12.5162 13.5644 12.5162C13.4902 12.5162 13.4246 12.4972 13.3467 12.4972C13.3226 12.4971 13.2985 12.4977 13.2748 12.4972C13.197 12.4972 13.1312 12.5162 13.0572 12.5162C12.9831 12.5162 12.9174 12.4972 12.8395 12.4972C12.8151 12.4971 12.7911 12.4977 12.7672 12.4972C12.6894 12.4972 12.624 12.5162 12.55 12.5162C12.4759 12.5162 12.4105 12.4972 12.3327 12.4972C12.327 12.4972 12.3216 12.4974 12.316 12.4976C12.3121 12.4975 12.3078 12.4972 12.3039 12.4972C12.3013 12.4972 12.2991 12.4972 12.2966 12.4972C12.2941 12.4972 12.2915 12.4972 12.2889 12.4972C12.285 12.4972 12.2815 12.4975 12.2776 12.4976C12.272 12.4974 12.2666 12.4972 12.2608 12.4972C12.1829 12.4972 12.1173 12.5162 12.0432 12.5162C11.9691 12.5162 11.9033 12.4972 11.8255 12.4972C11.8199 12.4972 11.8143 12.4974 11.8088 12.4976C11.8049 12.4975 11.8015 12.4972 11.7975 12.4972C11.7948 12.4972 11.7921 12.4972 11.7894 12.4972C11.7869 12.4972 11.7843 12.4972 11.7817 12.4972C11.7778 12.4972 11.7739 12.4975 11.7701 12.4976C11.7645 12.4974 11.7591 12.4972 11.7533 12.4972C11.6911 12.4972 11.619 12.5094 11.5603 12.5142L11.4248 12.7314L12.785 12.7313L14.1755 12.7314L14.0205 12.4914Z" fill="white"/>
<path d="M13.8365 12.4617C13.8322 12.4617 13.8279 12.4617 13.8236 12.4619C13.7536 12.4638 13.7035 12.4842 13.5817 12.4842C13.46 12.4842 13.4474 12.4638 13.3099 12.4666C13.1814 12.4692 13.1275 12.4918 13.0578 12.4909C12.9881 12.4901 12.8748 12.477 12.7876 12.4854C12.7004 12.4939 12.5969 12.5111 12.529 12.5113C12.4446 12.5109 12.3601 12.4966 12.2718 12.5048C12.1836 12.5129 12.1423 12.5348 12.0329 12.5345C11.9388 12.5342 11.8367 12.5205 11.7576 12.5206C11.6834 12.5206 11.6006 12.5397 11.5397 12.5494L11.5215 12.5787C11.57 12.5735 11.7062 12.5543 11.7548 12.5532C11.8054 12.5519 11.9863 12.5628 12.086 12.5597C12.1858 12.5565 12.1975 12.5362 12.3154 12.5362C12.3975 12.5362 12.4594 12.5442 12.5436 12.5442C12.5962 12.5442 12.6439 12.5194 12.7238 12.5194C12.7441 12.5188 12.7641 12.5182 12.7842 12.5175C12.8516 12.5072 12.9653 12.5184 13.0444 12.5222C13.116 12.5257 13.1623 12.5099 13.237 12.5076C13.2693 12.5062 13.3017 12.5063 13.3336 12.5046C13.4083 12.5023 13.4723 12.5174 13.5427 12.5171C13.6129 12.5131 13.681 12.4987 13.7557 12.4964C13.7883 12.4949 13.8204 12.4949 13.8527 12.4934C13.9021 12.4919 13.9787 12.495 14.0314 12.5034L14.0132 12.4744C13.9618 12.4729 13.8985 12.4617 13.8365 12.4617L13.8365 12.4617Z" fill="url(#paint8_linear_14099_119921)"/>
<path d="M11.7271 12.6954C11.6524 12.6954 11.5888 12.7125 11.5186 12.7143C11.4924 12.7136 11.4675 12.7106 11.4422 12.7074L11.4316 12.7244C11.4421 12.7251 11.4527 12.7257 11.4638 12.7257C11.4962 12.726 11.5284 12.725 11.5604 12.7257C11.6351 12.7257 11.6983 12.7086 11.7685 12.7068C11.8388 12.7086 11.9026 12.7257 11.9773 12.7257C12.0097 12.726 12.0419 12.725 12.0739 12.7257C12.1486 12.7257 12.2124 12.7086 12.2827 12.7068C12.3531 12.7086 12.4173 12.7257 12.492 12.7257C12.5243 12.726 12.5566 12.725 12.5885 12.7257C12.6632 12.7257 12.7268 12.7086 12.797 12.7068C12.8673 12.7086 12.9307 12.7257 13.0054 12.7257C13.0381 12.726 13.0702 12.725 13.1024 12.7257C13.1771 12.7257 13.2409 12.7086 13.3112 12.7068C13.3816 12.7086 13.4453 12.7257 13.5201 12.7257C13.5524 12.726 13.5847 12.725 13.6166 12.7257C13.6913 12.7257 13.7549 12.7086 13.8251 12.7068C13.8954 12.7086 13.9592 12.7257 14.0339 12.7257C14.0663 12.726 14.0986 12.725 14.1305 12.7257C14.1436 12.7257 14.1564 12.725 14.1689 12.7241L14.1589 12.7082C14.136 12.7111 14.1128 12.7137 14.0891 12.7143C14.0188 12.7125 13.9552 12.6954 13.8806 12.6954C13.8479 12.695 13.8158 12.696 13.7836 12.6954C13.7089 12.6954 13.6454 12.7125 13.5752 12.7143C13.5048 12.7125 13.4411 12.6954 13.3664 12.6954C13.3341 12.695 13.3017 12.696 13.2698 12.6954C13.1951 12.6954 13.1312 12.7125 13.061 12.7143C12.9907 12.7125 12.9268 12.6954 12.8522 12.6954C12.8197 12.695 12.7873 12.696 12.7552 12.6954C12.6805 12.6954 12.617 12.7125 12.5468 12.7143C12.4765 12.7125 12.413 12.6954 12.3383 12.6954C12.3058 12.695 12.2737 12.696 12.2417 12.6954C12.1669 12.6954 12.1032 12.7125 12.0329 12.7143C11.9626 12.7125 11.8988 12.6954 11.8241 12.6954C11.7916 12.695 11.7592 12.696 11.7271 12.6954H11.7271Z" fill="url(#paint9_linear_14099_119921)"/>
<path d="M11.5876 12.4926L11.5352 12.5764C11.5965 12.567 11.6886 12.5423 11.7649 12.5423C11.844 12.5422 11.9394 12.5603 12.0335 12.5606C12.1429 12.5609 12.1842 12.539 12.2725 12.5309C12.3607 12.5228 12.4452 12.5414 12.5296 12.5418C12.5976 12.5417 12.7011 12.52 12.7883 12.5116C12.8755 12.5031 12.9554 12.5174 13.0605 12.5189C13.1656 12.5204 13.1821 12.4953 13.3105 12.4927C13.448 12.4899 13.4606 12.5103 13.5823 12.5103C13.674 12.5149 13.7526 12.4932 13.8343 12.4879C13.9161 12.4825 13.954 12.4887 14.0137 12.49L13.974 12.425C13.9734 12.425 13.9727 12.425 13.972 12.4251L11.7851 12.4696L11.5876 12.4926Z" fill="#97C924"/>
<path d="M13.8818 12.4913C13.8818 12.4913 13.9404 12.4943 13.9649 12.4968C13.9895 12.4993 14.0288 12.5019 14.0288 12.5019L14.0208 12.4922C14.0084 12.4962 13.9253 12.4884 13.8818 12.4913Z" fill="white"/>
<path d="M12.5 10L11.7583 11.4838L11 13L12.4838 12.9998L14 13L13.258 11.5162L12.5 10L12.5 10ZM12.5 10.08L13.2281 11.5363L13.94 12.96L12.4838 12.9598L11.0599 12.96L11.7882 11.5039L12.5 10.08Z" fill="#C8A400"/>
<path d="M20 6L20 18L4 18L4 6L20 6ZM20 5L4 5C3.4 5 3 5.4 3 6L3 18C3 18.6 3.4 19 4 19L20 19C20.6 19 21 18.6 21 18L21 6C21 5.4 20.6 5 20 5Z" fill="none"/>
<defs>
<linearGradient id="paint0_linear_14099_119921" x1="12.7731" y1="11.7806" x2="12.8086" y2="11.6663" gradientUnits="userSpaceOnUse">
<stop stop-color="#510000"/>
<stop offset="0.3" stop-color="#8A0000"/>
<stop offset="1" stop-color="#AA0000"/>
</linearGradient>
<linearGradient id="paint1_linear_14099_119921" x1="12.8315" y1="11.8258" x2="12.8595" y2="11.7459" gradientUnits="userSpaceOnUse">
<stop stop-color="#FF2A2A"/>
<stop offset="1" stop-color="#FF0000"/>
</linearGradient>
<linearGradient id="paint2_linear_14099_119921" x1="11.6016" y1="12.3499" x2="15.7035" y2="12.3499" gradientUnits="userSpaceOnUse">
<stop stop-color="#002255"/>
<stop offset="0.5" stop-color="#0044AA"/>
<stop offset="1" stop-color="#002255"/>
</linearGradient>
<linearGradient id="paint3_linear_14099_119921" x1="11.6017" y1="12.3506" x2="15.7035" y2="12.3506" gradientUnits="userSpaceOnUse">
<stop stop-color="#002255"/>
<stop offset="0.5" stop-color="#0044AA"/>
<stop offset="1" stop-color="#002255"/>
</linearGradient>
<linearGradient id="paint4_linear_14099_119921" x1="11.6014" y1="12.3524" x2="15.7033" y2="12.3524" gradientUnits="userSpaceOnUse">
<stop stop-color="#002255"/>
<stop offset="0.5" stop-color="#0044AA"/>
<stop offset="1" stop-color="#002255"/>
</linearGradient>
<linearGradient id="paint5_linear_14099_119921" x1="12.4712" y1="12.2339" x2="12.4712" y2="12.3527" gradientUnits="userSpaceOnUse">
<stop stop-color="#F5F549"/>
<stop offset="1" stop-color="#97C924"/>
</linearGradient>
<linearGradient id="paint6_linear_14099_119921" x1="12.4712" y1="12.2339" x2="12.4712" y2="12.3526" gradientUnits="userSpaceOnUse">
<stop stop-color="#F5F549"/>
<stop offset="1" stop-color="#97C924"/>
</linearGradient>
<linearGradient id="paint7_linear_14099_119921" x1="12.4712" y1="12.2339" x2="12.4712" y2="12.3527" gradientUnits="userSpaceOnUse">
<stop stop-color="#F5F549"/>
<stop offset="1" stop-color="#97C924"/>
</linearGradient>
<linearGradient id="paint8_linear_14099_119921" x1="11.5215" y1="12.4617" x2="14.0314" y2="12.4617" gradientUnits="userSpaceOnUse">
<stop stop-color="#002255"/>
<stop offset="0.5" stop-color="#0044AA"/>
<stop offset="1" stop-color="#002255"/>
</linearGradient>
<linearGradient id="paint9_linear_14099_119921" x1="11.4316" y1="12.6953" x2="14.1689" y2="12.6953" gradientUnits="userSpaceOnUse">
<stop stop-color="#002255"/>
<stop offset="0.5" stop-color="#0044AA"/>
<stop offset="1" stop-color="#002255"/>
</linearGradient>
</defs>
</svg>
