<svg width="25" height="24" viewBox="0 0 25 24" fill="none" xmlns="http://www.w3.org/2000/svg">
<path d="M20 6H4V15H20V6Z" fill="#002868"/>
<path d="M4 6L13 10.5L4 6ZM13 6L4 10.5L13 6Z" fill="black"/>
<path d="M4 6L13 10.5M13 6L4 10.5" stroke="white" stroke-width="1.5"/>
<path d="M4 6L13 10.5L4 6ZM13 6L4 10.5L13 6Z" fill="black"/>
<path d="M4 6L13 10.5M13 6L4 10.5" stroke="#CF142B"/>
<path d="M8.5 6V12V6ZM4 8.25H14.5H4Z" fill="black"/>
<path d="M8.5 6V12M4 8.25H14.5" stroke="white" stroke-width="1.5"/>
<path d="M8.5 6V12V6ZM4 8.25H14.5H4Z" fill="black"/>
<path d="M8.5 6V12M4 8.25H14.5" stroke="#CF142B"/>
<path d="M12.5 6H20V18H4V11H12.5V6Z" fill="#FCD116"/>
<path d="M8.49996 9.01555C8.92278 9.01555 9.26555 8.67278 9.26555 8.24996C9.26555 7.82714 8.92278 7.48438 8.49996 7.48438C8.07714 7.48438 7.73438 7.82714 7.73438 8.24996C7.73438 8.67278 8.07714 9.01555 8.49996 9.01555Z" fill="#002868"/>
<path d="M8.50058 7.48438L8.95058 8.86933L7.77246 8.01338H9.22869L8.05058 8.86933" fill="#FCD116"/>
<path d="M11.45 7.80078L11.7281 8.70078L11 8.14455H11.9L11.1719 8.70078" fill="#FCD116"/>
<path d="M4.67852 7.80078L4.95663 8.70078L4.22852 8.14455H5.12852L4.4004 8.70078" fill="#FCD116"/>
<path d="M8.45 6L8.72812 6.9L8 6.34377H8.9L8.17188 6.9" fill="#FCD116"/>
<path d="M8.45 10L8.72812 10.9L8 10.3438H8.9L8.17188 10.9" fill="#FCD116"/>
<path d="M20 6L20 18L4 18L4 6L20 6ZM20 5L4 5C3.4 5 3 5.4 3 6L3 18C3 18.6 3.4 19 4 19L20 19C20.6 19 21 18.6 21 18L21 6C21 5.4 20.6 5 20 5Z" fill="#B5B5B5"/>
</svg>
