<svg width="24" height="24" viewBox="0 0 24 24" fill="none" xmlns="http://www.w3.org/2000/svg">
<path d="M20 6H4V18H20V6Z" fill="#024FA2"/>
<path d="M20 8H4V16H20V8Z" fill="white"/>
<path d="M20 8H4V16H20V8Z" fill="#ED1C27"/>
<path d="M8 15C9.65685 15 11 13.6569 11 12C11 10.3431 9.65685 9 8 9C6.34315 9 5 10.3431 5 12C5 13.6569 6.34315 15 8 15Z" fill="white"/>
<path d="M20 6L20 18L4 18L4 6L20 6ZM20 5L4 5C3.4 5 3 5.4 3 6L3 18C3 18.6 3.4 19 4 19L20 19C20.6 19 21 18.6 21 18L21 6C21 5.4 20.6 5 20 5Z" fill="none"/>
<path d="M8 10L8.44903 11.382H9.90211L8.72654 12.2361L9.17557 13.618L8 12.7639L6.82443 13.618L7.27346 12.2361L6.09789 11.382H7.55097L8 10Z" fill="#ED1C27"/>
</svg>
