<svg width="24" height="24" viewBox="0 0 24 24" fill="none" xmlns="http://www.w3.org/2000/svg">
<path d="M20 6H4V18H20V6Z" fill="#DB161B"/>
<path d="M20 6H9V10H20V6Z" fill="white"/>
<path d="M20 14H9V18H20V14Z" fill="#008000"/>
<path d="M6.02645 8.05341H5.38169C5.34617 8.05341 5.31738 8.0804 5.31738 8.11371V8.41744C5.31738 8.45075 5.34617 8.47775 5.38169 8.47775H6.02645C6.06197 8.47775 6.09076 8.45075 6.09076 8.41744V8.11371C6.09076 8.0804 6.06197 8.05341 6.02645 8.05341Z" fill="white" stroke="#DB161B" stroke-width="0.01"/>
<path d="M6.00962 8.06903H5.39792C5.36423 8.06903 5.33691 8.09378 5.33691 8.12431V8.40273C5.33691 8.43326 5.36423 8.45801 5.39792 8.45801H6.00962C6.04332 8.45801 6.07063 8.43326 6.07063 8.40273V8.12431C6.07063 8.09378 6.04332 8.06903 6.00962 8.06903Z" fill="white" stroke="#DB161B" stroke-width="0.01"/>
<path fill-rule="evenodd" clip-rule="evenodd" d="M5.67819 8.17841L5.71525 8.17961L5.71693 8.19641L5.74725 8.21181L5.77085 8.19261L5.79947 8.20801L5.77253 8.22481L5.77927 8.24801L5.81295 8.24681V8.27781L5.78601 8.27641L5.77253 8.29581L5.80285 8.31781L5.77927 8.33581L5.75399 8.31641L5.71693 8.32421L5.71861 8.35261L5.67819 8.35521L5.67313 8.32801L5.63945 8.31381L5.62091 8.33321L5.59227 8.31901L5.60913 8.29701L5.58891 8.28281H5.56027L5.55859 8.24281L5.58723 8.24541L5.60743 8.22221L5.58385 8.20421L5.61417 8.18341L5.63607 8.20021L5.67313 8.19521L5.67819 8.17841Z" fill="white" stroke="#DB161B" stroke-width="0.01"/>
<path d="M5.68914 8.29497C5.71162 8.29497 5.72984 8.27937 5.72984 8.26013C5.72984 8.24088 5.71162 8.22528 5.68914 8.22528C5.66666 8.22528 5.64844 8.24088 5.64844 8.26013C5.64844 8.27937 5.66666 8.29497 5.68914 8.29497Z" fill="white" stroke="#DB161B" stroke-width="0.01"/>
<path fill-rule="evenodd" clip-rule="evenodd" d="M5.43643 8.08984L5.37695 8.14284L5.43643 8.08984Z" fill="white"/>
<path d="M5.43643 8.08984L5.37695 8.14284" stroke="#DB161B" stroke-width="0.01"/>
<path fill-rule="evenodd" clip-rule="evenodd" d="M5.4755 8.08984L5.41602 8.14284L5.4755 8.08984Z" fill="white"/>
<path d="M5.4755 8.08984L5.41602 8.14284" stroke="#DB161B" stroke-width="0.01"/>
<path fill-rule="evenodd" clip-rule="evenodd" d="M5.51553 8.08984L5.45605 8.14284L5.51553 8.08984Z" fill="white"/>
<path d="M5.51553 8.08984L5.45605 8.14284" stroke="#DB161B" stroke-width="0.01"/>
<path fill-rule="evenodd" clip-rule="evenodd" d="M5.55557 8.08984L5.49609 8.14284L5.55557 8.08984Z" fill="white"/>
<path d="M5.55557 8.08984L5.49609 8.14284" stroke="#DB161B" stroke-width="0.01"/>
<path fill-rule="evenodd" clip-rule="evenodd" d="M5.59464 8.08984L5.53516 8.14284L5.59464 8.08984Z" fill="white"/>
<path d="M5.59464 8.08984L5.53516 8.14284" stroke="#DB161B" stroke-width="0.01"/>
<path fill-rule="evenodd" clip-rule="evenodd" d="M5.63468 8.08984L5.5752 8.14284L5.63468 8.08984Z" fill="white"/>
<path d="M5.63468 8.08984L5.5752 8.14284" stroke="#DB161B" stroke-width="0.01"/>
<path fill-rule="evenodd" clip-rule="evenodd" d="M5.67473 8.08984L5.61523 8.14284L5.67473 8.08984Z" fill="white"/>
<path d="M5.67473 8.08984L5.61523 8.14284" stroke="#DB161B" stroke-width="0.01"/>
<path fill-rule="evenodd" clip-rule="evenodd" d="M5.7138 8.08984L5.6543 8.14284L5.7138 8.08984Z" fill="white"/>
<path d="M5.7138 8.08984L5.6543 8.14284" stroke="#DB161B" stroke-width="0.01"/>
<path fill-rule="evenodd" clip-rule="evenodd" d="M5.75384 8.08984L5.69434 8.14284L5.75384 8.08984Z" fill="white"/>
<path d="M5.75384 8.08984L5.69434 8.14284" stroke="#DB161B" stroke-width="0.01"/>
<path fill-rule="evenodd" clip-rule="evenodd" d="M5.7929 8.08984L5.7334 8.14284L5.7929 8.08984Z" fill="white"/>
<path d="M5.7929 8.08984L5.7334 8.14284" stroke="#DB161B" stroke-width="0.01"/>
<path fill-rule="evenodd" clip-rule="evenodd" d="M5.83294 8.08984L5.77344 8.14284L5.83294 8.08984Z" fill="white"/>
<path d="M5.83294 8.08984L5.77344 8.14284" stroke="#DB161B" stroke-width="0.01"/>
<path fill-rule="evenodd" clip-rule="evenodd" d="M5.87298 8.08984L5.81348 8.14284L5.87298 8.08984Z" fill="white"/>
<path d="M5.87298 8.08984L5.81348 8.14284" stroke="#DB161B" stroke-width="0.01"/>
<path fill-rule="evenodd" clip-rule="evenodd" d="M5.7138 8.08984L5.6543 8.14284L5.7138 8.08984Z" fill="white"/>
<path d="M5.7138 8.08984L5.6543 8.14284" stroke="#DB161B" stroke-width="0.01"/>
<path fill-rule="evenodd" clip-rule="evenodd" d="M5.91204 8.08984L5.85254 8.14284L5.91204 8.08984Z" fill="white"/>
<path d="M5.91204 8.08984L5.85254 8.14284" stroke="#DB161B" stroke-width="0.01"/>
<path fill-rule="evenodd" clip-rule="evenodd" d="M5.95208 8.08984L5.89258 8.14284L5.95208 8.08984Z" fill="white"/>
<path d="M5.95208 8.08984L5.89258 8.14284" stroke="#DB161B" stroke-width="0.01"/>
<path fill-rule="evenodd" clip-rule="evenodd" d="M5.99114 8.08984L5.93164 8.14284L5.99114 8.08984Z" fill="white"/>
<path d="M5.99114 8.08984L5.93164 8.14284" stroke="#DB161B" stroke-width="0.01"/>
<path fill-rule="evenodd" clip-rule="evenodd" d="M6.0312 8.08984L5.97168 8.14284L6.0312 8.08984Z" fill="white"/>
<path d="M6.0312 8.08984L5.97168 8.14284" stroke="#DB161B" stroke-width="0.01"/>
<path fill-rule="evenodd" clip-rule="evenodd" d="M5.97168 8.08984L6.0312 8.14284L5.97168 8.08984Z" fill="white"/>
<path d="M5.97168 8.08984L6.0312 8.14284" stroke="#DB161B" stroke-width="0.01"/>
<path fill-rule="evenodd" clip-rule="evenodd" d="M5.93164 8.08984L5.99114 8.14284L5.93164 8.08984Z" fill="white"/>
<path d="M5.93164 8.08984L5.99114 8.14284" stroke="#DB161B" stroke-width="0.01"/>
<path fill-rule="evenodd" clip-rule="evenodd" d="M5.89258 8.08984L5.95208 8.14284L5.89258 8.08984Z" fill="white"/>
<path d="M5.89258 8.08984L5.95208 8.14284" stroke="#DB161B" stroke-width="0.01"/>
<path fill-rule="evenodd" clip-rule="evenodd" d="M5.85254 8.08984L5.91204 8.14284L5.85254 8.08984Z" fill="white"/>
<path d="M5.85254 8.08984L5.91204 8.14284" stroke="#DB161B" stroke-width="0.01"/>
<path fill-rule="evenodd" clip-rule="evenodd" d="M5.81348 8.08984L5.87298 8.14284L5.81348 8.08984Z" fill="white"/>
<path d="M5.81348 8.08984L5.87298 8.14284" stroke="#DB161B" stroke-width="0.01"/>
<path fill-rule="evenodd" clip-rule="evenodd" d="M5.77344 8.08984L5.83294 8.14284L5.77344 8.08984Z" fill="white"/>
<path d="M5.77344 8.08984L5.83294 8.14284" stroke="#DB161B" stroke-width="0.01"/>
<path fill-rule="evenodd" clip-rule="evenodd" d="M5.7334 8.08984L5.7929 8.14284L5.7334 8.08984Z" fill="white"/>
<path d="M5.7334 8.08984L5.7929 8.14284" stroke="#DB161B" stroke-width="0.01"/>
<path fill-rule="evenodd" clip-rule="evenodd" d="M5.69434 8.08984L5.75384 8.14284L5.69434 8.08984Z" fill="white"/>
<path d="M5.69434 8.08984L5.75384 8.14284" stroke="#DB161B" stroke-width="0.01"/>
<path fill-rule="evenodd" clip-rule="evenodd" d="M5.6543 8.08984L5.7138 8.14284L5.6543 8.08984Z" fill="white"/>
<path d="M5.6543 8.08984L5.7138 8.14284" stroke="#DB161B" stroke-width="0.01"/>
<path fill-rule="evenodd" clip-rule="evenodd" d="M5.61523 8.08984L5.67473 8.14284L5.61523 8.08984Z" fill="white"/>
<path d="M5.61523 8.08984L5.67473 8.14284" stroke="#DB161B" stroke-width="0.01"/>
<path fill-rule="evenodd" clip-rule="evenodd" d="M5.5752 8.08984L5.6347 8.14284L5.5752 8.08984Z" fill="white"/>
<path d="M5.5752 8.08984L5.6347 8.14284" stroke="#DB161B" stroke-width="0.01"/>
<path fill-rule="evenodd" clip-rule="evenodd" d="M5.53516 8.08984L5.59464 8.14284L5.53516 8.08984Z" fill="white"/>
<path d="M5.53516 8.08984L5.59464 8.14284" stroke="#DB161B" stroke-width="0.01"/>
<path fill-rule="evenodd" clip-rule="evenodd" d="M5.69434 8.08984L5.75384 8.14284L5.69434 8.08984Z" fill="white"/>
<path d="M5.69434 8.08984L5.75384 8.14284" stroke="#DB161B" stroke-width="0.01"/>
<path fill-rule="evenodd" clip-rule="evenodd" d="M5.49609 8.08984L5.55557 8.14284L5.49609 8.08984Z" fill="white"/>
<path d="M5.49609 8.08984L5.55557 8.14284" stroke="#DB161B" stroke-width="0.01"/>
<path fill-rule="evenodd" clip-rule="evenodd" d="M5.45605 8.08984L5.51553 8.14284L5.45605 8.08984Z" fill="white"/>
<path d="M5.45605 8.08984L5.51553 8.14284" stroke="#DB161B" stroke-width="0.01"/>
<path fill-rule="evenodd" clip-rule="evenodd" d="M5.41602 8.08984L5.4755 8.14284L5.41602 8.08984Z" fill="white"/>
<path d="M5.41602 8.08984L5.4755 8.14284" stroke="#DB161B" stroke-width="0.01"/>
<path fill-rule="evenodd" clip-rule="evenodd" d="M5.37695 8.08984L5.43643 8.14284L5.37695 8.08984Z" fill="white"/>
<path d="M5.37695 8.08984L5.43643 8.14284" stroke="#DB161B" stroke-width="0.01"/>
<path fill-rule="evenodd" clip-rule="evenodd" d="M5.43643 8.38672L5.37695 8.43992L5.43643 8.38672Z" fill="white"/>
<path d="M5.43643 8.38672L5.37695 8.43992" stroke="#DB161B" stroke-width="0.01"/>
<path fill-rule="evenodd" clip-rule="evenodd" d="M5.4755 8.38672L5.41602 8.43992L5.4755 8.38672Z" fill="white"/>
<path d="M5.4755 8.38672L5.41602 8.43992" stroke="#DB161B" stroke-width="0.01"/>
<path fill-rule="evenodd" clip-rule="evenodd" d="M5.51553 8.38672L5.45605 8.43992L5.51553 8.38672Z" fill="white"/>
<path d="M5.51553 8.38672L5.45605 8.43992" stroke="#DB161B" stroke-width="0.01"/>
<path fill-rule="evenodd" clip-rule="evenodd" d="M5.55557 8.38672L5.49609 8.43992L5.55557 8.38672Z" fill="white"/>
<path d="M5.55557 8.38672L5.49609 8.43992" stroke="#DB161B" stroke-width="0.01"/>
<path fill-rule="evenodd" clip-rule="evenodd" d="M5.59464 8.38672L5.53516 8.43992L5.59464 8.38672Z" fill="white"/>
<path d="M5.59464 8.38672L5.53516 8.43992" stroke="#DB161B" stroke-width="0.01"/>
<path fill-rule="evenodd" clip-rule="evenodd" d="M5.63468 8.38672L5.5752 8.43992L5.63468 8.38672Z" fill="white"/>
<path d="M5.63468 8.38672L5.5752 8.43992" stroke="#DB161B" stroke-width="0.01"/>
<path fill-rule="evenodd" clip-rule="evenodd" d="M5.67473 8.38672L5.61523 8.43992L5.67473 8.38672Z" fill="white"/>
<path d="M5.67473 8.38672L5.61523 8.43992" stroke="#DB161B" stroke-width="0.01"/>
<path fill-rule="evenodd" clip-rule="evenodd" d="M5.7138 8.38672L5.6543 8.43992L5.7138 8.38672Z" fill="white"/>
<path d="M5.7138 8.38672L5.6543 8.43992" stroke="#DB161B" stroke-width="0.01"/>
<path fill-rule="evenodd" clip-rule="evenodd" d="M5.75384 8.38672L5.69434 8.43992L5.75384 8.38672Z" fill="white"/>
<path d="M5.75384 8.38672L5.69434 8.43992" stroke="#DB161B" stroke-width="0.01"/>
<path fill-rule="evenodd" clip-rule="evenodd" d="M5.7929 8.38672L5.7334 8.43992L5.7929 8.38672Z" fill="white"/>
<path d="M5.7929 8.38672L5.7334 8.43992" stroke="#DB161B" stroke-width="0.01"/>
<path fill-rule="evenodd" clip-rule="evenodd" d="M5.83294 8.38672L5.77344 8.43992L5.83294 8.38672Z" fill="white"/>
<path d="M5.83294 8.38672L5.77344 8.43992" stroke="#DB161B" stroke-width="0.01"/>
<path fill-rule="evenodd" clip-rule="evenodd" d="M5.87298 8.38672L5.81348 8.43992L5.87298 8.38672Z" fill="white"/>
<path d="M5.87298 8.38672L5.81348 8.43992" stroke="#DB161B" stroke-width="0.01"/>
<path fill-rule="evenodd" clip-rule="evenodd" d="M5.7138 8.38672L5.6543 8.43992L5.7138 8.38672Z" fill="white"/>
<path d="M5.7138 8.38672L5.6543 8.43992" stroke="#DB161B" stroke-width="0.01"/>
<path fill-rule="evenodd" clip-rule="evenodd" d="M5.91204 8.38672L5.85254 8.43992L5.91204 8.38672Z" fill="white"/>
<path d="M5.91204 8.38672L5.85254 8.43992" stroke="#DB161B" stroke-width="0.01"/>
<path fill-rule="evenodd" clip-rule="evenodd" d="M5.95208 8.38672L5.89258 8.43992L5.95208 8.38672Z" fill="white"/>
<path d="M5.95208 8.38672L5.89258 8.43992" stroke="#DB161B" stroke-width="0.01"/>
<path fill-rule="evenodd" clip-rule="evenodd" d="M5.99114 8.38672L5.93164 8.43992L5.99114 8.38672Z" fill="white"/>
<path d="M5.99114 8.38672L5.93164 8.43992" stroke="#DB161B" stroke-width="0.01"/>
<path fill-rule="evenodd" clip-rule="evenodd" d="M6.0312 8.38672L5.97168 8.43992L6.0312 8.38672Z" fill="white"/>
<path d="M6.0312 8.38672L5.97168 8.43992" stroke="#DB161B" stroke-width="0.01"/>
<path fill-rule="evenodd" clip-rule="evenodd" d="M5.97168 8.38672L6.0312 8.43992L5.97168 8.38672Z" fill="white"/>
<path d="M5.97168 8.38672L6.0312 8.43992" stroke="#DB161B" stroke-width="0.01"/>
<path fill-rule="evenodd" clip-rule="evenodd" d="M5.93164 8.38672L5.99114 8.43992L5.93164 8.38672Z" fill="white"/>
<path d="M5.93164 8.38672L5.99114 8.43992" stroke="#DB161B" stroke-width="0.01"/>
<path fill-rule="evenodd" clip-rule="evenodd" d="M5.89258 8.38672L5.95208 8.43992L5.89258 8.38672Z" fill="white"/>
<path d="M5.89258 8.38672L5.95208 8.43992" stroke="#DB161B" stroke-width="0.01"/>
<path fill-rule="evenodd" clip-rule="evenodd" d="M5.85254 8.38672L5.91204 8.43992L5.85254 8.38672Z" fill="white"/>
<path d="M5.85254 8.38672L5.91204 8.43992" stroke="#DB161B" stroke-width="0.01"/>
<path fill-rule="evenodd" clip-rule="evenodd" d="M5.81348 8.38672L5.87298 8.43992L5.81348 8.38672Z" fill="white"/>
<path d="M5.81348 8.38672L5.87298 8.43992" stroke="#DB161B" stroke-width="0.01"/>
<path fill-rule="evenodd" clip-rule="evenodd" d="M5.77344 8.38672L5.83294 8.43992L5.77344 8.38672Z" fill="white"/>
<path d="M5.77344 8.38672L5.83294 8.43992" stroke="#DB161B" stroke-width="0.01"/>
<path fill-rule="evenodd" clip-rule="evenodd" d="M5.7334 8.38672L5.7929 8.43992L5.7334 8.38672Z" fill="white"/>
<path d="M5.7334 8.38672L5.7929 8.43992" stroke="#DB161B" stroke-width="0.01"/>
<path fill-rule="evenodd" clip-rule="evenodd" d="M5.69434 8.38672L5.75384 8.43992L5.69434 8.38672Z" fill="white"/>
<path d="M5.69434 8.38672L5.75384 8.43992" stroke="#DB161B" stroke-width="0.01"/>
<path fill-rule="evenodd" clip-rule="evenodd" d="M5.6543 8.38672L5.7138 8.43992L5.6543 8.38672Z" fill="white"/>
<path d="M5.6543 8.38672L5.7138 8.43992" stroke="#DB161B" stroke-width="0.01"/>
<path fill-rule="evenodd" clip-rule="evenodd" d="M5.61523 8.38672L5.67473 8.43992L5.61523 8.38672Z" fill="white"/>
<path d="M5.61523 8.38672L5.67473 8.43992" stroke="#DB161B" stroke-width="0.01"/>
<path fill-rule="evenodd" clip-rule="evenodd" d="M5.5752 8.38672L5.6347 8.43992L5.5752 8.38672Z" fill="white"/>
<path d="M5.5752 8.38672L5.6347 8.43992" stroke="#DB161B" stroke-width="0.01"/>
<path fill-rule="evenodd" clip-rule="evenodd" d="M5.53516 8.38672L5.59464 8.43992L5.53516 8.38672Z" fill="white"/>
<path d="M5.53516 8.38672L5.59464 8.43992" stroke="#DB161B" stroke-width="0.01"/>
<path fill-rule="evenodd" clip-rule="evenodd" d="M5.69434 8.38672L5.75384 8.43992L5.69434 8.38672Z" fill="white"/>
<path d="M5.69434 8.38672L5.75384 8.43992" stroke="#DB161B" stroke-width="0.01"/>
<path fill-rule="evenodd" clip-rule="evenodd" d="M5.49609 8.38672L5.55557 8.43992L5.49609 8.38672Z" fill="white"/>
<path d="M5.49609 8.38672L5.55557 8.43992" stroke="#DB161B" stroke-width="0.01"/>
<path fill-rule="evenodd" clip-rule="evenodd" d="M5.45605 8.38672L5.51553 8.43992L5.45605 8.38672Z" fill="white"/>
<path d="M5.45605 8.38672L5.51553 8.43992" stroke="#DB161B" stroke-width="0.01"/>
<path fill-rule="evenodd" clip-rule="evenodd" d="M5.41602 8.38672L5.4755 8.43992L5.41602 8.38672Z" fill="white"/>
<path d="M5.41602 8.38672L5.4755 8.43992" stroke="#DB161B" stroke-width="0.01"/>
<path fill-rule="evenodd" clip-rule="evenodd" d="M5.37695 8.38672L5.43643 8.43992L5.37695 8.38672Z" fill="white"/>
<path d="M5.37695 8.38672L5.43643 8.43992" stroke="#DB161B" stroke-width="0.01"/>
<path fill-rule="evenodd" clip-rule="evenodd" d="M6.53019 8.94569C5.56791 9.88669 5.15743 10.0057 5.35007 10.0815C5.54271 10.1573 6.16239 9.67169 6.80719 9.02649C7.45199 8.38149 7.84679 7.80737 7.65419 7.73155C7.46159 7.65571 7.55359 7.94479 6.53019 8.94569Z" fill="white" stroke="#DB161B" stroke-width="0.01"/>
<path fill-rule="evenodd" clip-rule="evenodd" d="M5.72052 9.62634L6.05756 9.71474C5.74034 10.0153 5.3834 10.1391 5.28426 10.0861C5.1851 10.0331 5.46272 9.90934 5.72052 9.62634Z" fill="white" stroke="#DB161B" stroke-width="0.01"/>
<path fill-rule="evenodd" clip-rule="evenodd" d="M5.72057 9.66278L5.99819 9.73358C5.68913 10.0226 5.38345 10.1048 5.30435 10.0696C5.22481 10.0342 5.46945 9.93478 5.72057 9.66278Z" fill="white" stroke="#DB161B" stroke-width="0.01"/>
<path d="M6.75646 8.90234C6.75566 8.90694 6.75346 8.92714 6.75146 8.93514C6.75146 8.94634 6.75026 8.95474 6.74906 8.96354C6.74586 8.97114 6.74646 8.97814 6.73666 8.98094C6.73006 8.99014 6.72586 8.99254 6.71706 8.99634C6.71106 9.00094 6.70186 9.00554 6.69226 9.00934C6.68246 9.01314 6.67346 9.01354 6.66286 9.01154C6.65406 9.00614 6.64786 9.00074 6.64066 8.99634C6.63886 8.98934 6.63746 8.97914 6.63566 8.97234C6.63826 8.97934 6.64026 8.99054 6.64066 9.00054C6.63966 9.01154 6.63566 9.01634 6.63086 9.02454" stroke="#DB161B" stroke-width="0.01"/>
<path d="M6.66466 9.04779C6.66386 9.04719 6.66306 9.04639 6.66226 9.04559C6.66806 9.05079 6.66566 9.04839 6.65226 9.04139C6.64286 9.03699 6.63266 9.03459 6.62026 9.03259H6.58586C6.57246 9.03259 6.56346 9.03439 6.55386 9.03699C6.54686 9.04319 6.53646 9.04659 6.52926 9.05219C6.52166 9.05679 6.51846 9.06219 6.51446 9.06959C6.50766 9.07559 6.50326 9.08479 6.49706 9.08939C6.49446 9.09939 6.48866 9.09899 6.48486 9.10679C6.49646 9.10759 6.50586 9.10899 6.51186 9.11539C6.52226 9.12019 6.50326 9.11079 6.49966 9.10679C6.49146 9.10459 6.48946 9.10239 6.47746 9.10239C6.46626 9.09919 6.45946 9.10499 6.44786 9.10679C6.44126 9.11019 6.43926 9.11119 6.43066 9.11119" stroke="#DB161B" stroke-width="0.01"/>
<path d="M6.53204 9.15859C6.52704 9.15879 6.50404 9.16259 6.49504 9.15859C6.48504 9.15619 6.47904 9.15139 6.47284 9.14319C6.46984 9.13739 6.47284 9.15379 6.47284 9.16079C6.47184 9.17359 6.46744 9.17379 6.46064 9.18259C6.45344 9.18659 6.44584 9.19239 6.43844 9.19559C6.43224 9.20039 6.42464 9.20359 6.41624 9.20659C6.40884 9.20959 6.40004 9.21279 6.39404 9.21739C6.38584 9.22259 6.38664 9.22899 6.38184 9.23699C6.38264 9.24779 6.38464 9.25379 6.39164 9.25899C6.39444 9.26619 6.40104 9.27359 6.40644 9.27859C6.41244 9.28859 6.41924 9.29319 6.40384 9.29599C6.39544 9.29919 6.39084 9.29659 6.38184 9.29599" stroke="#DB161B" stroke-width="0.01"/>
<path d="M6.37685 9.31421C6.37085 9.31301 6.34925 9.30661 6.33985 9.30341H6.30545C6.29205 9.30421 6.28945 9.30781 6.27825 9.31201C6.27105 9.31861 6.26605 9.32321 6.25605 9.32741C6.25085 9.33341 6.24045 9.34361 6.23645 9.35141C6.23345 9.35881 6.23145 9.36881 6.23145 9.37981C6.23165 9.39241 6.23545 9.39461 6.23645 9.40601C6.23925 9.41521 6.24365 9.42381 6.25125 9.43201C6.25225 9.43481 6.25305 9.43561 6.25605 9.43641" stroke="#DB161B" stroke-width="0.01"/>
<path d="M6.2593 9.46102C6.2583 9.46102 6.2559 9.46662 6.2523 9.47142C6.2445 9.47942 6.2435 9.48002 6.2313 9.48002C6.2205 9.47962 6.2215 9.47582 6.2139 9.47302C6.2103 9.46762 6.2057 9.46322 6.2017 9.45582C6.1989 9.45142 6.1963 9.44442 6.1929 9.44042C6.1897 9.43522 6.1857 9.43142 6.1823 9.42662C6.1791 9.42522 6.1779 9.42382 6.1737 9.42322C6.1837 9.42482 6.1845 9.42822 6.1911 9.43342C6.1941 9.43842 6.1973 9.44342 6.1999 9.44902C6.2009 9.45642 6.2033 9.46222 6.2033 9.47142C6.2033 9.48082 6.2033 9.48762 6.1999 9.49542C6.1957 9.49982 6.1927 9.50422 6.1877 9.50762C6.1835 9.51142 6.1785 9.51662 6.1753 9.52122C6.1699 9.52462 6.1659 9.52742 6.1597 9.53162C6.1543 9.53462 6.1487 9.53782 6.1405 9.53862C6.1301 9.53782 6.1271 9.53502 6.1195 9.53162C6.1129 9.52682 6.1077 9.52382 6.1019 9.51962C6.0973 9.51642 6.0927 9.51022 6.0897 9.50582C6.0803 9.50342 6.0743 9.50442 6.0687 9.50922C6.0639 9.51242 6.0597 9.51662 6.0565 9.52122C6.0535 9.52262 6.0489 9.52682 6.0459 9.52822" stroke="#DB161B" stroke-width="0.01"/>
<path d="M6.06627 9.53259C6.06907 9.53379 6.07907 9.54079 6.08367 9.54339C6.08647 9.55239 6.09087 9.55739 6.09227 9.56699C6.09467 9.57639 6.09447 9.58659 6.09447 9.59719C6.09207 9.60819 6.08747 9.61619 6.08367 9.62499C6.07667 9.62979 6.07327 9.63299 6.06407 9.63799C6.05547 9.63919 6.04687 9.64019 6.03587 9.64019C6.02907 9.64239 6.01627 9.64339 6.00967 9.64019C6.00007 9.63879 5.99281 9.63499 5.98579 9.63159C5.97775 9.62699 5.97281 9.62279 5.96403 9.61859C5.95977 9.61239 5.95315 9.60679 5.94665 9.59919C5.94123 9.59199 5.93725 9.58799 5.93359 9.57999C5.93681 9.58919 5.94169 9.59719 5.94447 9.60579C5.94941 9.61479 5.95229 9.61819 5.95317 9.62939C5.95619 9.63839 5.95535 9.64919 5.95535 9.65939C5.95439 9.66639 5.95389 9.67959 5.95099 9.68519V9.69179" stroke="#DB161B" stroke-width="0.01"/>
<path d="M5.74498 9.72629V9.72949C5.74498 9.72109 5.74476 9.72529 5.74848 9.74189C5.75508 9.74929 5.77056 9.75129 5.78346 9.74809C5.79478 9.73989 5.79442 9.73349 5.81494 9.72949C5.83476 9.73069 5.84232 9.73589 5.85342 9.74189C5.86658 9.74769 5.87266 9.75069 5.8814 9.76369C5.88574 9.77429 5.88816 9.78149 5.8744 9.78549C5.86346 9.79249 5.85046 9.79629 5.83592 9.79809C5.81976 9.79809 5.80812 9.79629 5.80094 9.80429C5.78984 9.81449 5.79046 9.82069 5.79046 9.83849C5.78672 9.84409 5.78598 9.86049 5.78346 9.86669C5.77374 9.87069 5.76804 9.87289 5.75198 9.87289C5.7482 9.86329 5.74402 9.84589 5.74148 9.83549C5.73874 9.82429 5.7379 9.80869 5.73098 9.80109C5.72446 9.79269 5.71612 9.78509 5.7065 9.77929C5.70222 9.77389 5.69406 9.76949 5.68552 9.76689C5.69924 9.77309 5.7012 9.77989 5.703 9.79489C5.69094 9.80029 5.68772 9.80409 5.66802 9.80429C5.64866 9.80289 5.64398 9.79849 5.63654 9.78869C5.6352 9.80429 5.62958 9.80949 5.62606 9.82309C5.61886 9.83249 5.6158 9.84209 5.60856 9.85409C5.61164 9.86929 5.61828 9.86989 5.61906 9.88849C5.6236 9.90069 5.6231 9.91229 5.63304 9.91969C5.63748 9.92449 5.6408 9.92549 5.65054 9.92589C5.63028 9.92589 5.61848 9.92389 5.60506 9.91649C5.59468 9.91089 5.58684 9.90369 5.57708 9.89789C5.5647 9.88989 5.5494 9.88249 5.5351 9.87909C5.51894 9.87909 5.5073 9.87749 5.50012 9.88529C5.49022 9.89169 5.48356 9.90249 5.47914 9.91649C5.4759 9.93269 5.47466 9.94349 5.48264 9.95389C5.48856 9.96609 5.4899 9.97069 5.48264 9.98509C5.4745 9.99529 5.4624 9.99649 5.44416 10.0007C5.43084 10.0001 5.41804 9.99749 5.40918 9.99449" stroke="#DB161B" stroke-width="0.01"/>
<path fill-rule="evenodd" clip-rule="evenodd" d="M7.62868 8.09591C8.05568 7.35875 8.33908 6.73147 8.26108 6.69563C8.18328 6.65981 7.77368 7.22893 7.34668 7.96599L7.62868 8.09591Z" fill="white" stroke="#DB161B" stroke-width="0.01"/>
<path fill-rule="evenodd" clip-rule="evenodd" d="M7.6006 8.08211C8.0124 7.37097 8.2962 6.77063 8.234 6.74197C8.1718 6.71331 7.787 7.26713 7.375 7.97817" fill="white"/>
<path d="M7.6006 8.08211C8.0124 7.37097 8.2962 6.77063 8.234 6.74197C8.1718 6.71331 7.787 7.26713 7.375 7.97817" stroke="#DB161B" stroke-width="0.01"/>
<path fill-rule="evenodd" clip-rule="evenodd" d="M7.5298 7.70966C7.4796 7.7928 7.4266 7.88782 7.375 7.9767L7.6006 8.08064C7.652 7.99168 7.7082 7.89804 7.7552 7.81352L7.5298 7.70966Z" fill="white" stroke="#DB161B" stroke-width="0.01"/>
<path fill-rule="evenodd" clip-rule="evenodd" d="M7.54851 7.74091C7.49851 7.82405 7.46351 7.88767 7.41211 7.97655L7.58111 8.05441C7.63271 7.96557 7.67071 7.90333 7.71771 7.81881L7.54851 7.74091Z" fill="white" stroke="#DB161B" stroke-width="0.01"/>
<path d="M7.55814 7.78273L7.6709 7.83466L7.5708 8.00745L7.45804 7.95553L7.55814 7.78273Z" fill="white" stroke="#DB161B" stroke-width="0.01"/>
<path fill-rule="evenodd" clip-rule="evenodd" d="M7.67178 7.83466L7.45898 7.95552L7.67178 7.83466Z" fill="white"/>
<path d="M7.67178 7.83466L7.45898 7.95552" stroke="#DB161B" stroke-width="0.01"/>
<path fill-rule="evenodd" clip-rule="evenodd" d="M7.57119 8.00729L7.55859 7.78259L7.57119 8.00729Z" fill="white"/>
<path d="M7.57119 8.00729L7.55859 7.78259" stroke="#DB161B" stroke-width="0.01"/>
<path fill-rule="evenodd" clip-rule="evenodd" d="M8.18116 6.95953L8.06836 6.90759L8.18116 6.95953Z" fill="white"/>
<path d="M8.18116 6.95953L8.06836 6.90759" stroke="#DB161B" stroke-width="0.01"/>
<path d="M8.18079 6.87769C8.16321 6.88212 8.14575 6.87322 8.14179 6.8578C8.13782 6.84238 8.14885 6.8263 8.16642 6.82187C8.184 6.81743 8.20146 6.82634 8.20542 6.84175C8.20939 6.85717 8.19836 6.87326 8.18079 6.87769Z" fill="#DB161B" stroke="#DB161B" stroke-width="0.01"/>
<path fill-rule="evenodd" clip-rule="evenodd" d="M6.70498 7.69794C6.70498 8.31678 6.70858 8.54998 6.66298 8.58198C6.61978 8.61618 5.41602 8.58198 5.41602 8.75878C5.41602 8.93558 6.40758 9.11238 6.70498 9.11238C7.10158 9.11238 7.29998 8.93558 7.29998 8.58198V7.69794H6.70498Z" fill="white" stroke="#DB161B" stroke-width="0.01"/>
<path fill-rule="evenodd" clip-rule="evenodd" d="M6.70508 7.875V7.9634C6.90348 7.99288 7.10168 7.99288 7.30008 7.9634V7.875C7.10168 7.90448 6.90348 7.90448 6.70508 7.875Z" fill="white" stroke="#DB161B" stroke-width="0.01"/>
<path fill-rule="evenodd" clip-rule="evenodd" d="M6.70508 7.69794V7.78634C6.90348 7.8158 7.10168 7.8158 7.30008 7.78634V7.69794C7.10168 7.7274 6.90348 7.7274 6.70508 7.69794Z" fill="white" stroke="#DB161B" stroke-width="0.01"/>
<path fill-rule="evenodd" clip-rule="evenodd" d="M6.70508 7.78644V7.87484C6.90348 7.90432 7.10168 7.90432 7.30008 7.87484V7.78644C7.10168 7.8159 6.90348 7.8159 6.70508 7.78644Z" fill="white" stroke="#DB161B" stroke-width="0.01"/>
<path fill-rule="evenodd" clip-rule="evenodd" d="M6.70508 7.96356V8.052C6.90348 8.0814 7.10168 8.0814 7.30008 8.052V7.96356C7.10168 7.99304 6.90348 7.99304 6.70508 7.96356Z" fill="white" stroke="#DB161B" stroke-width="0.01"/>
<path d="M6.73212 7.85583C6.74705 7.85583 6.75916 7.84729 6.75916 7.83676C6.75916 7.82623 6.74705 7.81769 6.73212 7.81769C6.71719 7.81769 6.70508 7.82623 6.70508 7.83676C6.70508 7.84729 6.71719 7.85583 6.73212 7.85583Z" fill="white" stroke="#DB161B" stroke-width="0.01"/>
<path d="M6.84052 7.86627C6.85545 7.86627 6.86756 7.85773 6.86756 7.8472C6.86756 7.83666 6.85545 7.82812 6.84052 7.82812C6.82558 7.82812 6.81348 7.83666 6.81348 7.8472C6.81348 7.85773 6.82558 7.86627 6.84052 7.86627Z" fill="white" stroke="#DB161B" stroke-width="0.01"/>
<path d="M6.94892 7.87671C6.96385 7.87671 6.97596 7.86817 6.97596 7.85763C6.97596 7.8471 6.96385 7.83856 6.94892 7.83856C6.93398 7.83856 6.92188 7.8471 6.92188 7.85763C6.92188 7.86817 6.93398 7.87671 6.94892 7.87671Z" fill="white" stroke="#DB161B" stroke-width="0.01"/>
<path d="M7.05634 7.87671C7.07127 7.87671 7.08338 7.86817 7.08338 7.85763C7.08338 7.8471 7.07127 7.83856 7.05634 7.83856C7.0414 7.83856 7.0293 7.8471 7.0293 7.85763C7.0293 7.86817 7.0414 7.87671 7.05634 7.87671Z" fill="white" stroke="#DB161B" stroke-width="0.01"/>
<path d="M7.16474 7.86627C7.17967 7.86627 7.19178 7.85773 7.19178 7.8472C7.19178 7.83666 7.17967 7.82812 7.16474 7.82812C7.1498 7.82812 7.1377 7.83666 7.1377 7.8472C7.1377 7.85773 7.1498 7.86627 7.16474 7.86627Z" fill="white" stroke="#DB161B" stroke-width="0.01"/>
<path d="M7.27314 7.85583C7.28807 7.85583 7.30018 7.84729 7.30018 7.83676C7.30018 7.82623 7.28807 7.81769 7.27314 7.81769C7.2582 7.81769 7.24609 7.82623 7.24609 7.83676C7.24609 7.84729 7.2582 7.85583 7.27314 7.85583Z" fill="white" stroke="#DB161B" stroke-width="0.01"/>
<path fill-rule="evenodd" clip-rule="evenodd" d="M6.70508 8.14062L7.30008 8.61802L6.70508 8.14062Z" fill="white"/>
<path d="M6.70508 8.14062L7.30008 8.61802" stroke="#DB161B" stroke-width="0.01"/>
<path fill-rule="evenodd" clip-rule="evenodd" d="M6.76465 8.14062L7.30025 8.56483L6.76465 8.14062Z" fill="white"/>
<path d="M6.76465 8.14062L7.30025 8.56483" stroke="#DB161B" stroke-width="0.01"/>
<path fill-rule="evenodd" clip-rule="evenodd" d="M6.84375 8.15625L7.29995 8.50985L6.84375 8.15625Z" fill="white"/>
<path d="M6.84375 8.15625L7.29995 8.50985" stroke="#DB161B" stroke-width="0.01"/>
<path fill-rule="evenodd" clip-rule="evenodd" d="M6.90332 8.15625L7.29992 8.45685L6.90332 8.15625Z" fill="white"/>
<path d="M6.90332 8.15625L7.29992 8.45685" stroke="#DB161B" stroke-width="0.01"/>
<path fill-rule="evenodd" clip-rule="evenodd" d="M6.96289 8.15625L7.30009 8.40385L6.96289 8.15625Z" fill="white"/>
<path d="M6.96289 8.15625L7.30009 8.40385" stroke="#DB161B" stroke-width="0.01"/>
<path fill-rule="evenodd" clip-rule="evenodd" d="M7.02246 8.15625L7.30026 8.35085L7.02246 8.15625Z" fill="white"/>
<path d="M7.02246 8.15625L7.30026 8.35085" stroke="#DB161B" stroke-width="0.01"/>
<path fill-rule="evenodd" clip-rule="evenodd" d="M7.08203 8.15625L7.30023 8.29765L7.08203 8.15625Z" fill="white"/>
<path d="M7.08203 8.15625L7.30023 8.29765" stroke="#DB161B" stroke-width="0.01"/>
<path fill-rule="evenodd" clip-rule="evenodd" d="M7.1416 8.15625L7.3004 8.26245L7.1416 8.15625Z" fill="white"/>
<path d="M7.1416 8.15625L7.3004 8.26245" stroke="#DB161B" stroke-width="0.01"/>
<path fill-rule="evenodd" clip-rule="evenodd" d="M7.20117 8.15625L7.30037 8.22705L7.20117 8.15625Z" fill="white"/>
<path d="M7.20117 8.15625L7.30037 8.22705" stroke="#DB161B" stroke-width="0.01"/>
<path fill-rule="evenodd" clip-rule="evenodd" d="M7.25977 8.15625L7.29957 8.19165L7.25977 8.15625Z" fill="white"/>
<path d="M7.25977 8.15625L7.29957 8.19165" stroke="#DB161B" stroke-width="0.01"/>
<path fill-rule="evenodd" clip-rule="evenodd" d="M6.70508 8.19269L7.30008 8.67009L6.70508 8.19269Z" fill="white"/>
<path d="M6.70508 8.19269L7.30008 8.67009" stroke="#DB161B" stroke-width="0.01"/>
<path fill-rule="evenodd" clip-rule="evenodd" d="M7.29991 8.14062L6.64551 8.67103L7.29991 8.14062Z" fill="white"/>
<path d="M7.29991 8.14062L6.64551 8.67103" stroke="#DB161B" stroke-width="0.01"/>
<path fill-rule="evenodd" clip-rule="evenodd" d="M7.24004 8.14062L6.66504 8.60022L7.24004 8.14062Z" fill="white"/>
<path d="M7.24004 8.14062L6.66504 8.60022" stroke="#DB161B" stroke-width="0.01"/>
<path fill-rule="evenodd" clip-rule="evenodd" d="M7.16128 8.15625L6.70508 8.50985L7.16128 8.15625Z" fill="white"/>
<path d="M7.16128 8.15625L6.70508 8.50985" stroke="#DB161B" stroke-width="0.01"/>
<path fill-rule="evenodd" clip-rule="evenodd" d="M7.10168 8.15625L6.70508 8.45685L7.10168 8.15625Z" fill="white"/>
<path d="M7.10168 8.15625L6.70508 8.45685" stroke="#DB161B" stroke-width="0.01"/>
<path fill-rule="evenodd" clip-rule="evenodd" d="M7.04228 8.15625L6.70508 8.40385L7.04228 8.15625Z" fill="white"/>
<path d="M7.04228 8.15625L6.70508 8.40385" stroke="#DB161B" stroke-width="0.01"/>
<path fill-rule="evenodd" clip-rule="evenodd" d="M6.98268 8.15625L6.70508 8.35085L6.98268 8.15625Z" fill="white"/>
<path d="M6.98268 8.15625L6.70508 8.35085" stroke="#DB161B" stroke-width="0.01"/>
<path fill-rule="evenodd" clip-rule="evenodd" d="M6.92328 8.15625L6.70508 8.29765L6.92328 8.15625Z" fill="white"/>
<path d="M6.92328 8.15625L6.70508 8.29765" stroke="#DB161B" stroke-width="0.01"/>
<path fill-rule="evenodd" clip-rule="evenodd" d="M6.86368 8.15625L6.70508 8.26245L6.86368 8.15625Z" fill="white"/>
<path d="M6.86368 8.15625L6.70508 8.26245" stroke="#DB161B" stroke-width="0.01"/>
<path fill-rule="evenodd" clip-rule="evenodd" d="M6.80428 8.15625L6.70508 8.22705L6.80428 8.15625Z" fill="white"/>
<path d="M6.80428 8.15625L6.70508 8.22705" stroke="#DB161B" stroke-width="0.01"/>
<path fill-rule="evenodd" clip-rule="evenodd" d="M6.74468 8.15625L6.70508 8.19165L6.74468 8.15625Z" fill="white"/>
<path d="M6.74468 8.15625L6.70508 8.19165" stroke="#DB161B" stroke-width="0.01"/>
<path fill-rule="evenodd" clip-rule="evenodd" d="M7.29991 8.19269L6.64551 8.72309L7.29991 8.19269Z" fill="white"/>
<path d="M7.29991 8.19269L6.64551 8.72309" stroke="#DB161B" stroke-width="0.01"/>
<path fill-rule="evenodd" clip-rule="evenodd" d="M7.29991 8.24481L6.64551 8.77521L7.29991 8.24481Z" fill="white"/>
<path d="M7.29991 8.24481L6.64551 8.77521" stroke="#DB161B" stroke-width="0.01"/>
<path fill-rule="evenodd" clip-rule="evenodd" d="M7.29991 8.30206L6.64551 8.83266L7.29991 8.30206Z" fill="white"/>
<path d="M7.29991 8.30206L6.64551 8.83266" stroke="#DB161B" stroke-width="0.01"/>
<path fill-rule="evenodd" clip-rule="evenodd" d="M7.29991 8.35419L6.64551 8.88459L7.29991 8.35419Z" fill="white"/>
<path d="M7.29991 8.35419L6.64551 8.88459" stroke="#DB161B" stroke-width="0.01"/>
<path fill-rule="evenodd" clip-rule="evenodd" d="M7.29991 8.40625L6.64551 8.93665L7.29991 8.40625Z" fill="white"/>
<path d="M7.29991 8.40625L6.64551 8.93665" stroke="#DB161B" stroke-width="0.01"/>
<path fill-rule="evenodd" clip-rule="evenodd" d="M7.29991 8.45831L6.64551 8.98871L7.29991 8.45831Z" fill="white"/>
<path d="M7.29991 8.45831L6.64551 8.98871" stroke="#DB161B" stroke-width="0.01"/>
<path fill-rule="evenodd" clip-rule="evenodd" d="M7.29991 8.51044L6.64551 9.04084L7.29991 8.51044Z" fill="white"/>
<path d="M7.29991 8.51044L6.64551 9.04084" stroke="#DB161B" stroke-width="0.01"/>
<path fill-rule="evenodd" clip-rule="evenodd" d="M7.29991 8.5625L6.64551 9.0929L7.29991 8.5625Z" fill="white"/>
<path d="M7.29991 8.5625L6.64551 9.0929" stroke="#DB161B" stroke-width="0.01"/>
<path fill-rule="evenodd" clip-rule="evenodd" d="M7.30035 8.61981L6.68555 9.11481L7.30035 8.61981Z" fill="white"/>
<path d="M7.30035 8.61981L6.68555 9.11481" stroke="#DB161B" stroke-width="0.01"/>
<path fill-rule="evenodd" clip-rule="evenodd" d="M7.29954 8.67188L6.74414 9.11387L7.29954 8.67188Z" fill="white"/>
<path d="M7.29954 8.67188L6.74414 9.11387" stroke="#DB161B" stroke-width="0.01"/>
<path fill-rule="evenodd" clip-rule="evenodd" d="M7.27995 8.73956L6.84375 9.09316L7.27995 8.73956Z" fill="white"/>
<path d="M7.27995 8.73956L6.84375 9.09316" stroke="#DB161B" stroke-width="0.01"/>
<path fill-rule="evenodd" clip-rule="evenodd" d="M7.26012 8.8125L6.90332 9.0955L7.26012 8.8125Z" fill="white"/>
<path d="M7.26012 8.8125L6.90332 9.0955" stroke="#DB161B" stroke-width="0.01"/>
<path fill-rule="evenodd" clip-rule="evenodd" d="M7.22039 8.90106L7.04199 9.04246L7.22039 8.90106Z" fill="white"/>
<path d="M7.22039 8.90106L7.04199 9.04246" stroke="#DB161B" stroke-width="0.01"/>
<path fill-rule="evenodd" clip-rule="evenodd" d="M6.70508 8.24481L7.28008 8.70461L6.70508 8.24481Z" fill="white"/>
<path d="M6.70508 8.24481L7.28008 8.70461" stroke="#DB161B" stroke-width="0.01"/>
<path fill-rule="evenodd" clip-rule="evenodd" d="M6.70508 8.30206L7.28008 8.76186L6.70508 8.30206Z" fill="white"/>
<path d="M6.70508 8.30206L7.28008 8.76186" stroke="#DB161B" stroke-width="0.01"/>
<path fill-rule="evenodd" clip-rule="evenodd" d="M6.70508 8.35419L7.26028 8.79619L6.70508 8.35419Z" fill="white"/>
<path d="M6.70508 8.35419L7.26028 8.79619" stroke="#DB161B" stroke-width="0.01"/>
<path fill-rule="evenodd" clip-rule="evenodd" d="M6.70508 8.40625L7.26028 8.84825L6.70508 8.40625Z" fill="white"/>
<path d="M6.70508 8.40625L7.26028 8.84825" stroke="#DB161B" stroke-width="0.01"/>
<path fill-rule="evenodd" clip-rule="evenodd" d="M6.70508 8.45831L7.24048 8.88271L6.70508 8.45831Z" fill="white"/>
<path d="M6.70508 8.45831L7.24048 8.88271" stroke="#DB161B" stroke-width="0.01"/>
<path fill-rule="evenodd" clip-rule="evenodd" d="M6.68555 8.49481L7.22095 8.91921L6.68555 8.49481Z" fill="white"/>
<path d="M6.68555 8.49481L7.22095 8.91921" stroke="#DB161B" stroke-width="0.01"/>
<path fill-rule="evenodd" clip-rule="evenodd" d="M6.68555 8.54688L7.18135 8.93587L6.68555 8.54688Z" fill="white"/>
<path d="M6.68555 8.54688L7.18135 8.93587" stroke="#DB161B" stroke-width="0.01"/>
<path fill-rule="evenodd" clip-rule="evenodd" d="M6.66504 8.58331L7.16084 8.97231L6.66504 8.58331Z" fill="white"/>
<path d="M6.66504 8.58331L7.16084 8.97231" stroke="#DB161B" stroke-width="0.01"/>
<path fill-rule="evenodd" clip-rule="evenodd" d="M6.64551 8.61981L7.12131 8.99101L6.64551 8.61981Z" fill="white"/>
<path d="M6.64551 8.61981L7.12131 8.99101" stroke="#DB161B" stroke-width="0.01"/>
<path fill-rule="evenodd" clip-rule="evenodd" d="M6.64551 8.67188L7.10151 9.02547L6.64551 8.67188Z" fill="white"/>
<path d="M6.64551 8.67188L7.10151 9.02547" stroke="#DB161B" stroke-width="0.01"/>
<path fill-rule="evenodd" clip-rule="evenodd" d="M6.64551 8.72394L7.04211 9.04214L6.64551 8.72394Z" fill="white"/>
<path d="M6.64551 8.72394L7.04211 9.04214" stroke="#DB161B" stroke-width="0.01"/>
<path fill-rule="evenodd" clip-rule="evenodd" d="M6.70508 8.05206V8.14046C6.90348 8.16986 7.10168 8.16986 7.30008 8.14046V8.05206C7.10168 8.08146 6.90348 8.08146 6.70508 8.05206Z" fill="white" stroke="#DB161B" stroke-width="0.01"/>
<path fill-rule="evenodd" clip-rule="evenodd" d="M6.64551 8.77606L7.00231 9.05906L6.64551 8.77606Z" fill="white"/>
<path d="M6.64551 8.77606L7.00231 9.05906" stroke="#DB161B" stroke-width="0.01"/>
<path fill-rule="evenodd" clip-rule="evenodd" d="M6.64551 8.83331L6.96271 9.08071L6.64551 8.83331Z" fill="white"/>
<path d="M6.64551 8.83331L6.96271 9.08071" stroke="#DB161B" stroke-width="0.01"/>
<path fill-rule="evenodd" clip-rule="evenodd" d="M6.64551 8.88544L6.92311 9.09764L6.64551 8.88544Z" fill="white"/>
<path d="M6.64551 8.88544L6.92311 9.09764" stroke="#DB161B" stroke-width="0.01"/>
<path fill-rule="evenodd" clip-rule="evenodd" d="M6.64551 8.9375L6.84371 9.0967L6.64551 8.9375Z" fill="white"/>
<path d="M6.64551 8.9375L6.84371 9.0967" stroke="#DB161B" stroke-width="0.01"/>
<path fill-rule="evenodd" clip-rule="evenodd" d="M6.64551 8.98956L6.80411 9.11336L6.64551 8.98956Z" fill="white"/>
<path d="M6.64551 8.98956L6.80411 9.11336" stroke="#DB161B" stroke-width="0.01"/>
<path fill-rule="evenodd" clip-rule="evenodd" d="M6.64551 9.04169L6.74451 9.11249L6.64551 9.04169Z" fill="white"/>
<path d="M6.64551 9.04169L6.74451 9.11249" stroke="#DB161B" stroke-width="0.01"/>
<path d="M6.73212 8.12146C6.74705 8.12146 6.75916 8.11292 6.75916 8.10239C6.75916 8.09185 6.74705 8.08331 6.73212 8.08331C6.71719 8.08331 6.70508 8.09185 6.70508 8.10239C6.70508 8.11292 6.71719 8.12146 6.73212 8.12146Z" fill="white" stroke="#DB161B" stroke-width="0.01"/>
<path d="M6.84052 8.13189C6.85545 8.13189 6.86756 8.12336 6.86756 8.11282C6.86756 8.10229 6.85545 8.09375 6.84052 8.09375C6.82558 8.09375 6.81348 8.10229 6.81348 8.11282C6.81348 8.12336 6.82558 8.13189 6.84052 8.13189Z" fill="white" stroke="#DB161B" stroke-width="0.01"/>
<path d="M6.94892 8.14233C6.96385 8.14233 6.97596 8.13379 6.97596 8.12326C6.97596 8.11273 6.96385 8.10419 6.94892 8.10419C6.93398 8.10419 6.92188 8.11273 6.92188 8.12326C6.92188 8.13379 6.93398 8.14233 6.94892 8.14233Z" fill="white" stroke="#DB161B" stroke-width="0.01"/>
<path d="M7.05634 8.14233C7.07127 8.14233 7.08338 8.13379 7.08338 8.12326C7.08338 8.11273 7.07127 8.10419 7.05634 8.10419C7.0414 8.10419 7.0293 8.11273 7.0293 8.12326C7.0293 8.13379 7.0414 8.14233 7.05634 8.14233Z" fill="white" stroke="#DB161B" stroke-width="0.01"/>
<path d="M7.16474 8.13189C7.17967 8.13189 7.19178 8.12336 7.19178 8.11282C7.19178 8.10229 7.17967 8.09375 7.16474 8.09375C7.1498 8.09375 7.1377 8.10229 7.1377 8.11282C7.1377 8.12336 7.1498 8.13189 7.16474 8.13189Z" fill="white" stroke="#DB161B" stroke-width="0.01"/>
<path d="M7.27314 8.12146C7.28807 8.12146 7.30018 8.11292 7.30018 8.10239C7.30018 8.09185 7.28807 8.08331 7.27314 8.08331C7.2582 8.08331 7.24609 8.09185 7.24609 8.10239C7.24609 8.11292 7.2582 8.12146 7.27314 8.12146Z" fill="white" stroke="#DB161B" stroke-width="0.01"/>
<path fill-rule="evenodd" clip-rule="evenodd" d="M5.85254 8.97168L6.56644 8.60028L5.85254 8.97168Z" fill="white"/>
<path d="M5.85254 8.97168L6.56644 8.60028" stroke="#DB161B" stroke-width="0.01"/>
<path fill-rule="evenodd" clip-rule="evenodd" d="M5.8125 8.95388L6.48666 8.60028L5.8125 8.95388Z" fill="white"/>
<path d="M5.8125 8.95388L6.48666 8.60028" stroke="#DB161B" stroke-width="0.01"/>
<path fill-rule="evenodd" clip-rule="evenodd" d="M5.79297 8.91868L6.40775 8.60028L5.79297 8.91868Z" fill="white"/>
<path d="M5.79297 8.91868L6.40775 8.60028" stroke="#DB161B" stroke-width="0.01"/>
<path fill-rule="evenodd" clip-rule="evenodd" d="M5.77344 8.88328L6.30886 8.60028L5.77344 8.88328Z" fill="white"/>
<path d="M5.77344 8.88328L6.30886 8.60028" stroke="#DB161B" stroke-width="0.01"/>
<path fill-rule="evenodd" clip-rule="evenodd" d="M5.7334 8.84788L6.22908 8.60028L5.7334 8.84788Z" fill="white"/>
<path d="M5.7334 8.84788L6.22908 8.60028" stroke="#DB161B" stroke-width="0.01"/>
<path fill-rule="evenodd" clip-rule="evenodd" d="M5.75293 8.79271L6.08997 8.61591L5.75293 8.79271Z" fill="white"/>
<path d="M5.75293 8.79271L6.08997 8.61591" stroke="#DB161B" stroke-width="0.01"/>
<path fill-rule="evenodd" clip-rule="evenodd" d="M5.7334 8.75731L5.9912 8.61591L5.7334 8.75731Z" fill="white"/>
<path d="M5.7334 8.75731L5.9912 8.61591" stroke="#DB161B" stroke-width="0.01"/>
<path fill-rule="evenodd" clip-rule="evenodd" d="M5.7334 8.70431L5.91188 8.61591L5.7334 8.70431Z" fill="white"/>
<path d="M5.7334 8.70431L5.91188 8.61591" stroke="#DB161B" stroke-width="0.01"/>
<path fill-rule="evenodd" clip-rule="evenodd" d="M5.91211 8.99032L6.58631 8.63672L5.91211 8.99032Z" fill="white"/>
<path d="M5.91211 8.99032L6.58631 8.63672" stroke="#DB161B" stroke-width="0.01"/>
<path fill-rule="evenodd" clip-rule="evenodd" d="M5.97168 9.00922L6.6062 8.67322L5.97168 9.00922Z" fill="white"/>
<path d="M5.97168 9.00922L6.6062 8.67322" stroke="#DB161B" stroke-width="0.01"/>
<path fill-rule="evenodd" clip-rule="evenodd" d="M6.03125 9.02267L6.62605 8.70447L6.03125 9.02267Z" fill="white"/>
<path d="M6.03125 9.02267L6.62605 8.70447" stroke="#DB161B" stroke-width="0.01"/>
<path fill-rule="evenodd" clip-rule="evenodd" d="M6.08984 9.04254L6.58564 8.77734L6.08984 9.04254Z" fill="white"/>
<path d="M6.08984 9.04254L6.58564 8.77734" stroke="#DB161B" stroke-width="0.01"/>
<path fill-rule="evenodd" clip-rule="evenodd" d="M6.16992 9.04364L6.60612 8.81384L6.16992 9.04364Z" fill="white"/>
<path d="M6.16992 9.04364L6.60612 8.81384" stroke="#DB161B" stroke-width="0.01"/>
<path fill-rule="evenodd" clip-rule="evenodd" d="M6.22949 9.06051L6.60629 8.86591L6.22949 9.06051Z" fill="white"/>
<path d="M6.22949 9.06051L6.60629 8.86591" stroke="#DB161B" stroke-width="0.01"/>
<path fill-rule="evenodd" clip-rule="evenodd" d="M6.28906 9.07697L6.58646 8.91797L6.28906 9.07697Z" fill="white"/>
<path d="M6.28906 9.07697L6.58646 8.91797" stroke="#DB161B" stroke-width="0.01"/>
<path fill-rule="evenodd" clip-rule="evenodd" d="M6.36816 9.07827L6.60616 8.95447L6.36816 9.07827Z" fill="white"/>
<path d="M6.36816 9.07827L6.60616 8.95447" stroke="#DB161B" stroke-width="0.01"/>
<path fill-rule="evenodd" clip-rule="evenodd" d="M6.44727 9.09493L6.60587 9.00653L6.44727 9.09493Z" fill="white"/>
<path d="M6.44727 9.09493L6.60587 9.00653" stroke="#DB161B" stroke-width="0.01"/>
<path fill-rule="evenodd" clip-rule="evenodd" d="M6.52637 9.09617L6.62537 9.04297L6.52637 9.09617Z" fill="white"/>
<path d="M6.52637 9.09617L6.62537 9.04297" stroke="#DB161B" stroke-width="0.01"/>
<path fill-rule="evenodd" clip-rule="evenodd" d="M6.66594 8.58331H6.56674C6.53374 8.76011 6.53374 8.93691 6.56674 9.11371H6.66594C6.63274 8.93691 6.63274 8.76011 6.66594 8.58331Z" fill="white" stroke="#DB161B" stroke-width="0.01"/>
<path fill-rule="evenodd" clip-rule="evenodd" d="M5.49512 8.83305L5.73308 8.65625L5.49512 8.83305Z" fill="white"/>
<path d="M5.49512 8.83305L5.73308 8.65625" stroke="#DB161B" stroke-width="0.01"/>
<path fill-rule="evenodd" clip-rule="evenodd" d="M5.49512 8.70831L5.73308 8.92051L5.49512 8.70831Z" fill="white"/>
<path d="M5.49512 8.70831L5.73308 8.92051" stroke="#DB161B" stroke-width="0.01"/>
<path fill-rule="evenodd" clip-rule="evenodd" d="M5.85268 8.61981L5.7337 8.63741C5.70726 8.74941 5.70726 8.84361 5.7337 8.95561L5.85268 8.99101C5.82624 8.87901 5.82624 8.73181 5.85268 8.61981Z" fill="white" stroke="#DB161B" stroke-width="0.01"/>
<path fill-rule="evenodd" clip-rule="evenodd" d="M7.29928 7.73693V7.64779C7.21028 7.64853 7.15068 7.59549 7.15068 7.54169L6.85368 7.54243C6.85368 7.59549 6.79428 7.64853 6.70508 7.64853V7.73693H7.29928Z" fill="white" stroke="#DB161B" stroke-width="0.01"/>
<path d="M7.12968 7.43231H6.875V7.53839H7.12968V7.43231Z" fill="white" stroke="#DB161B" stroke-width="0.01"/>
<path d="M7.10872 7.32812H6.89648V7.43421H7.10872V7.32812Z" fill="white" stroke="#DB161B" stroke-width="0.01"/>
<path d="M7.10872 7.22394H6.89648V7.33002H7.10872V7.22394Z" fill="white" stroke="#DB161B" stroke-width="0.01"/>
<path d="M7.08678 7.07812H6.91699V7.21957H7.08678V7.07812Z" fill="white" stroke="#DB161B" stroke-width="0.01"/>
<path d="M7.09458 6.95831H6.91016V7.08208H7.09458V6.95831Z" fill="white" stroke="#DB161B" stroke-width="0.01"/>
<path d="M7.0125 7.0078C7.14831 7.0078 7.2584 6.9326 7.2584 6.83984C7.2584 6.74707 7.14831 6.67188 7.0125 6.67188C6.87669 6.67188 6.7666 6.74707 6.7666 6.83984C6.7666 6.9326 6.87669 7.0078 7.0125 7.0078Z" fill="white" stroke="#DB161B" stroke-width="0.01"/>
<path fill-rule="evenodd" clip-rule="evenodd" d="M7.13552 6.831C7.13552 6.87738 7.19693 6.95478 7.19693 6.95478C7.15233 6.98518 7.08033 7.00782 7.01253 7.00782C6.94473 7.00782 6.86013 6.9952 6.82812 6.95478C6.82812 6.95478 6.88952 6.87738 6.88952 6.831C6.88952 6.78464 6.82812 6.72492 6.82812 6.72492C6.87252 6.69452 6.94473 6.67188 7.01253 6.67188C7.08033 6.67188 7.15233 6.69452 7.19693 6.72492C7.19693 6.72492 7.13552 6.78464 7.13552 6.831Z" fill="white" stroke="#DB161B" stroke-width="0.01"/>
<path fill-rule="evenodd" clip-rule="evenodd" d="M7.09454 6.831C7.09454 6.87738 7.15594 6.97246 7.15594 6.97246C7.11154 7.00286 7.08034 7.00782 7.01254 7.00782C6.94474 7.00782 6.90114 7.01288 6.86914 6.97246C6.86914 6.97246 6.93054 6.87738 6.93054 6.831C6.93054 6.78464 6.86914 6.70724 6.86914 6.70724C6.91354 6.67684 6.94474 6.67188 7.01254 6.67188C7.08034 6.67188 7.11154 6.67684 7.15594 6.70724C7.15594 6.70724 7.09454 6.78464 7.09454 6.831Z" fill="white" stroke="#DB161B" stroke-width="0.01"/>
<path d="M6.76655 6.90296C6.8005 6.90296 6.82803 6.87921 6.82803 6.84992C6.82803 6.82062 6.8005 6.79688 6.76655 6.79688C6.7326 6.79688 6.70508 6.82062 6.70508 6.84992C6.70508 6.87921 6.7326 6.90296 6.76655 6.90296Z" fill="white" stroke="#DB161B" stroke-width="0.01"/>
<path d="M7.25874 6.90296C7.29269 6.90296 7.32021 6.87921 7.32021 6.84992C7.32021 6.82062 7.29269 6.79688 7.25874 6.79688C7.22479 6.79688 7.19727 6.82062 7.19727 6.84992C7.19727 6.87921 7.22479 6.90296 7.25874 6.90296Z" fill="white" stroke="#DB161B" stroke-width="0.01"/>
<path d="M7.01265 6.90296C7.0466 6.90296 7.07412 6.87921 7.07412 6.84992C7.07412 6.82062 7.0466 6.79688 7.01265 6.79688C6.97869 6.79688 6.95117 6.82062 6.95117 6.84992C6.95117 6.87921 6.97869 6.90296 7.01265 6.90296Z" fill="white" stroke="#DB161B" stroke-width="0.01"/>
<path d="M7.01265 6.7259C7.0466 6.7259 7.07412 6.70215 7.07412 6.67285C7.07412 6.64356 7.0466 6.61981 7.01265 6.61981C6.97869 6.61981 6.95117 6.64356 6.95117 6.67285C6.95117 6.70215 6.97869 6.7259 7.01265 6.7259Z" fill="white" stroke="#DB161B" stroke-width="0.01"/>
<path d="M6.83222 7.73627C6.86739 7.73627 6.89589 7.71252 6.89589 7.68323C6.89589 7.65394 6.86739 7.63019 6.83222 7.63019C6.79706 7.63019 6.76855 7.65394 6.76855 7.68323C6.76855 7.71252 6.79706 7.73627 6.83222 7.73627Z" fill="white" stroke="#DB161B" stroke-width="0.01"/>
<path d="M7.17207 7.73627C7.20723 7.73627 7.23574 7.71252 7.23574 7.68323C7.23574 7.65394 7.20723 7.63019 7.17207 7.63019C7.1369 7.63019 7.1084 7.65394 7.1084 7.68323C7.1084 7.71252 7.1369 7.73627 7.17207 7.73627Z" fill="white" stroke="#DB161B" stroke-width="0.01"/>
<path fill-rule="evenodd" clip-rule="evenodd" d="M6.85352 7.54169H7.15052L7.00212 7.70083L6.85352 7.54169Z" fill="white" stroke="#DB161B" stroke-width="0.01"/>
<path d="M7.00189 7.7352C7.04877 7.7352 7.08678 7.70353 7.08678 7.66447C7.08678 7.62541 7.04877 7.59375 7.00189 7.59375C6.955 7.59375 6.91699 7.62541 6.91699 7.66447C6.91699 7.70353 6.955 7.7352 7.00189 7.7352Z" fill="white" stroke="#DB161B" stroke-width="0.01"/>
<path d="M7.10713 8.19269H6.70054C6.68686 8.19269 6.67578 8.20109 6.67578 8.21145V8.28001C6.67578 8.29037 6.68686 8.29877 6.70054 8.29877H7.10713C7.1208 8.29877 7.13188 8.29037 7.13188 8.28001V8.21145C7.13188 8.20109 7.1208 8.19269 7.10713 8.19269Z" fill="white" stroke="#DB161B" stroke-width="0.01"/>
<path fill-rule="evenodd" clip-rule="evenodd" d="M7.2701 8.10419C7.2151 8.10419 7.1709 8.14539 7.1709 8.19659V8.27699C7.1709 8.32819 7.2151 8.36939 7.2701 8.36939C7.3251 8.36939 7.3693 8.32819 7.3693 8.27699V8.19659C7.3693 8.14539 7.3251 8.10419 7.2701 8.10419ZM7.2701 8.13959C7.2371 8.13959 7.2105 8.17259 7.2105 8.21359V8.26019C7.2105 8.30119 7.2371 8.33399 7.2701 8.33399C7.3031 8.33399 7.3295 8.30119 7.3295 8.26019V8.21359C7.3295 8.17259 7.3031 8.13959 7.2701 8.13959Z" fill="white" stroke="#DB161B" stroke-width="0.01"/>
<path fill-rule="evenodd" clip-rule="evenodd" d="M6.75447 8.12396C6.72147 8.12396 6.69507 8.15676 6.69507 8.19776V8.27976C6.69507 8.32076 6.72147 8.35376 6.75447 8.35376C6.78747 8.35376 6.81387 8.32076 6.81387 8.27976V8.19776C6.81387 8.15676 6.78747 8.12396 6.75447 8.12396ZM6.75447 8.08856C6.69947 8.08856 6.65527 8.12976 6.65527 8.18096V8.29676C6.65527 8.34796 6.69947 8.38916 6.75447 8.38916C6.80947 8.38916 6.85367 8.34796 6.85367 8.29676V8.18096C6.85367 8.12976 6.80947 8.08856 6.75447 8.08856Z" fill="white" stroke="#DB161B" stroke-width="0.01"/>
<path fill-rule="evenodd" clip-rule="evenodd" d="M6.59627 8.1602C6.56327 8.1602 6.53667 8.1932 6.53667 8.2342V8.2534C6.53667 8.2944 6.56327 8.3274 6.59627 8.3274C6.62927 8.3274 6.65567 8.2944 6.65567 8.2534V8.2342C6.65567 8.1932 6.62927 8.1602 6.59627 8.1602ZM6.59627 8.125C6.54127 8.125 6.49707 8.1662 6.49707 8.2174V8.2704C6.49707 8.3216 6.54127 8.3628 6.59627 8.3628C6.65107 8.3628 6.69547 8.3216 6.69547 8.2704V8.2174C6.69547 8.1662 6.65107 8.125 6.59627 8.125Z" fill="white" stroke="#DB161B" stroke-width="0.01"/>
<path fill-rule="evenodd" clip-rule="evenodd" d="M6.35809 8.11254C6.29869 8.11254 6.25109 8.14934 6.25109 8.19514V8.28674C6.25109 8.33254 6.29869 8.36934 6.35809 8.36934C6.41749 8.36934 6.46509 8.33254 6.46509 8.28674V8.19514C6.46509 8.14934 6.41749 8.11254 6.35809 8.11254ZM6.35809 8.07294C6.25929 8.07294 6.17969 8.11914 6.17969 8.17634V8.30574C6.17969 8.36294 6.25929 8.40894 6.35809 8.40894C6.45689 8.40894 6.53649 8.36294 6.53649 8.30574V8.17634C6.53649 8.11914 6.45689 8.07294 6.35809 8.07294Z" fill="white" stroke="#DB161B" stroke-width="0.01"/>
<path fill-rule="evenodd" clip-rule="evenodd" d="M7.64735 8.12796C7.58795 8.12796 7.54015 8.16496 7.54015 8.21076V8.30236C7.54015 8.34816 7.58795 8.38496 7.64735 8.38496C7.70655 8.38496 7.75435 8.34816 7.75435 8.30236V8.21076C7.75435 8.16496 7.70655 8.12796 7.64735 8.12796ZM7.64735 8.08856C7.54835 8.08856 7.46875 8.13456 7.46875 8.19176V8.32116C7.46875 8.37836 7.54835 8.42436 7.64735 8.42436C7.74615 8.42436 7.82575 8.37836 7.82575 8.32116V8.19176C7.82575 8.13456 7.74615 8.08856 7.64735 8.08856Z" fill="white" stroke="#DB161B" stroke-width="0.01"/>
<path d="M7.53461 8.19269H7.32249C7.31535 8.19269 7.30957 8.20109 7.30957 8.21145V8.28001C7.30957 8.29037 7.31535 8.29877 7.32249 8.29877H7.53461C7.54175 8.29877 7.54753 8.29037 7.54753 8.28001V8.21145C7.54753 8.20109 7.54175 8.19269 7.53461 8.19269Z" fill="white" stroke="#DB161B" stroke-width="0.01"/>
<path d="M7.22307 8.17706H7.09933C7.09517 8.17706 7.0918 8.18826 7.0918 8.20208V8.29349C7.0918 8.30731 7.09517 8.31851 7.09933 8.31851H7.22307C7.22724 8.31851 7.23061 8.30731 7.23061 8.29349V8.20208C7.23061 8.18826 7.22724 8.17706 7.22307 8.17706Z" fill="white" stroke="#DB161B" stroke-width="0.01"/>
<path d="M6.56878 8.17706H6.44503C6.44087 8.17706 6.4375 8.18826 6.4375 8.20208V8.29349C6.4375 8.30731 6.44087 8.31851 6.44503 8.31851H6.56878C6.57294 8.31851 6.57631 8.30731 6.57631 8.29349V8.20208C6.57631 8.18826 6.57294 8.17706 6.56878 8.17706Z" fill="white" stroke="#DB161B" stroke-width="0.01"/>
<path d="M6.26353 8.16144H6.01604C6.00772 8.16144 6.00098 8.17544 6.00098 8.19271V8.30697C6.00098 8.32424 6.00772 8.33824 6.01604 8.33824H6.26353C6.27185 8.33824 6.2786 8.32424 6.2786 8.30697V8.19271C6.2786 8.17544 6.27185 8.16144 6.26353 8.16144Z" fill="white" stroke="#DB161B" stroke-width="0.01"/>
<path d="M7.97037 8.17706H7.74055C7.73283 8.17706 7.72656 8.19106 7.72656 8.20833V8.3226C7.72656 8.33987 7.73283 8.35387 7.74055 8.35387H7.97037C7.9781 8.35387 7.98436 8.33987 7.98436 8.3226V8.20833C7.98436 8.19106 7.9781 8.17706 7.97037 8.17706Z" fill="white" stroke="#DB161B" stroke-width="0.01"/>
<path d="M20 6L20 18L4 18L4 6L20 6ZM20 5L4 5C3.4 5 3 5.4 3 6L3 18C3 18.6 3.4 19 4 19L20 19C20.6 19 21 18.6 21 18L21 6C21 5.4 20.6 5 20 5Z" fill="#B5B5B5"/>
</svg>
