<svg width="24" height="24" viewBox="0 0 24 24" fill="none" xmlns="http://www.w3.org/2000/svg">
<path d="M20 6H4V18H20V6Z" fill="white"/>
<path d="M20 6H8V18H20V6Z" fill="#01411C"/>
<path d="M15.2504 15.5984C17.2386 15.5984 18.8504 13.9867 18.8504 11.9984C18.8504 10.0102 17.2386 8.39844 15.2504 8.39844C13.2622 8.39844 11.6504 10.0102 11.6504 11.9984C11.6504 13.9867 13.2622 15.5984 15.2504 15.5984Z" fill="white"/>
<path d="M18.363 13.6468C19.7252 12.4359 19.8478 10.3501 18.637 8.9879C17.4262 7.62572 15.3404 7.50302 13.9782 8.71385C12.616 9.92468 12.4933 12.0105 13.7041 13.3727C14.9149 14.7349 17.0008 14.8576 18.363 13.6468Z" fill="#01411C"/>
<path d="M16.5631 9.30811L18.0796 11.0141L15.85 10.5253L17.9411 9.61022L16.7872 11.5796L16.5631 9.30811Z" fill="white"/>
<path d="M20 6L20 18L4 18L4 6L20 6ZM20 5L4 5C3.4 5 3 5.4 3 6L3 18C3 18.6 3.4 19 4 19L20 19C20.6 19 21 18.6 21 18L21 6C21 5.4 20.6 5 20 5Z" fill="#B5B5B5"/>
</svg>
