<svg width="24" height="24" viewBox="0 0 24 24" fill="none" xmlns="http://www.w3.org/2000/svg">
<path d="M20 6H4V18H20V6Z" fill="#4AADD6"/>
<path d="M11.4375 14.7992C13.1979 14.7992 14.625 13.3218 14.625 11.4992C14.625 9.67668 13.1979 8.19922 11.4375 8.19922C9.67709 8.19922 8.25 9.67668 8.25 11.4992C8.25 13.3218 9.67709 14.7992 11.4375 14.7992Z" fill="#FFDE00"/>
<path d="M20 6L20 18L4 18L4 6L20 6ZM20 5L4 5C3.4 5 3 5.4 3 6L3 18C3 18.6 3.4 19 4 19L20 19C20.6 19 21 18.6 21 18L21 6C21 5.4 20.6 5 20 5Z" fill="#B5B5B5"/>
</svg>
