<svg width="24" height="24" viewBox="0 0 24 24" fill="none" xmlns="http://www.w3.org/2000/svg">
<path d="M20 6H4V18H20V6Z" fill="#0038A8"/>
<path d="M20 6H4V14H20V6Z" fill="white"/>
<path d="M20 6H4V10H20V6Z" fill="#D52B1E"/>
<path d="M12.0004 13.53C12.8291 13.53 13.5009 12.843 13.5009 11.9955C13.5009 11.148 12.8291 10.4609 12.0004 10.4609C11.1718 10.4609 10.5 11.148 10.5 11.9955C10.5 12.843 11.1718 13.53 12.0004 13.53Z" stroke="black" stroke-width="0.02"/>
<path d="M12.0003 13.2597C12.6811 13.2597 13.233 12.6953 13.233 11.999C13.233 11.3027 12.6811 10.7383 12.0003 10.7383C11.3195 10.7383 10.7676 11.3027 10.7676 11.999C10.7676 12.6953 11.3195 13.2597 12.0003 13.2597Z" stroke="black" stroke-width="0.02"/>
<path d="M12 12.959C12.5216 12.959 12.9444 12.5266 12.9444 11.9932C12.9444 11.4598 12.5216 11.0273 12 11.0273C11.4785 11.0273 11.0557 11.4598 11.0557 11.9932C11.0557 12.5266 11.4785 12.959 12 12.959Z" stroke="black" stroke-width="0.02"/>
<path d="M11.2018 12.5852L11.0278 12.6908L10.9746 12.5992C10.9648 12.5822 10.9587 12.5683 10.9563 12.5576C10.9539 12.5469 10.955 12.5365 10.9595 12.5263C10.964 12.5161 10.9718 12.5076 10.9829 12.5009C10.9926 12.4951 11.0021 12.4921 11.0116 12.4921C11.021 12.492 11.03 12.4944 11.0387 12.4991C11.0442 12.5021 11.0502 12.5071 11.0568 12.5142C11.0551 12.5063 11.0544 12.5003 11.0548 12.496C11.0551 12.4931 11.0564 12.4883 11.0589 12.4816C11.0613 12.475 11.0634 12.4702 11.0652 12.4674L11.1002 12.4102L11.1363 12.4723L11.1002 12.5339C11.0954 12.5419 11.0929 12.5479 11.0925 12.552C11.0921 12.5576 11.0934 12.5629 11.0963 12.568L11.0991 12.5728L11.1697 12.5299L11.2018 12.5852ZM11.0663 12.5928L11.0528 12.5696C11.0514 12.5671 11.0477 12.5627 11.042 12.5565C11.0392 12.5533 11.0356 12.5514 11.0313 12.5509C11.0271 12.5503 11.023 12.5512 11.0193 12.5535C11.0136 12.557 11.0104 12.5614 11.0095 12.5669C11.0086 12.5723 11.0111 12.5801 11.0169 12.5901L11.0309 12.6143L11.0663 12.5928Z" fill="black"/>
<path d="M10.9025 12.4574L10.8496 12.2948L10.8906 12.2809L10.9237 12.3827L10.9542 12.3723L10.9235 12.2779L10.9627 12.2645L10.9934 12.359L11.0312 12.3461L10.9972 12.2414L11.0406 12.2266L11.0945 12.3921L10.9025 12.4574Z" fill="black"/>
<path d="M10.833 12.2135L10.8211 12.108C10.8186 12.085 10.822 12.0671 10.8314 12.0544C10.8408 12.0417 10.8554 12.0342 10.8751 12.0319C10.8954 12.0295 10.912 12.0339 10.9248 12.045C10.9376 12.0562 10.9455 12.0746 10.9483 12.1002L10.9522 12.1349L11.0268 12.1262L11.034 12.19L10.833 12.2135ZM10.9115 12.1397L10.9098 12.1241C10.9084 12.1119 10.9054 12.1035 10.9006 12.0991C10.8959 12.0946 10.8903 12.0928 10.8838 12.0935C10.8775 12.0942 10.8724 12.097 10.8685 12.1018C10.8646 12.1067 10.8633 12.115 10.8647 12.1269L10.8667 12.145L10.9115 12.1397Z" fill="black"/>
<path d="M10.8266 11.8291L10.8333 11.7656L10.9532 11.7789C10.9651 11.7802 10.9761 11.7833 10.9863 11.7883C10.9965 11.7932 11.0051 11.8002 11.0121 11.8091C11.0192 11.8181 11.0239 11.8272 11.0261 11.8364C11.0293 11.8493 11.03 11.8644 11.0282 11.8817C11.0271 11.8917 11.0253 11.9025 11.0226 11.9142C11.02 11.9259 11.0163 11.9355 11.0114 11.943C11.0064 11.9505 10.9999 11.9571 10.9917 11.9629C10.9835 11.9687 10.9753 11.9723 10.9671 11.9739C10.9539 11.9764 10.9423 11.9771 10.9324 11.976L10.8125 11.9628L10.8192 11.8994L10.942 11.9129C10.953 11.9141 10.9619 11.912 10.9687 11.9064C10.9755 11.9009 10.9795 11.8926 10.9807 11.8815C10.9819 11.8706 10.9797 11.8617 10.9743 11.8548C10.9689 11.8479 10.9606 11.8438 10.9494 11.8426L10.8266 11.8291Z" fill="black"/>
<path d="M10.8535 11.677L10.8921 11.564C10.8986 11.5452 10.9081 11.5324 10.9206 11.5255C10.9332 11.5187 10.9462 11.5177 10.9597 11.5225C10.971 11.5266 10.9794 11.5336 10.985 11.5437C10.9888 11.5504 10.9906 11.559 10.9906 11.5693C10.9987 11.5565 11.0079 11.5482 11.0182 11.5444C11.0285 11.5407 11.0397 11.541 11.0519 11.5453C11.0618 11.5489 11.0699 11.5544 11.0762 11.5619C11.0825 11.5695 11.0865 11.5781 11.0883 11.5879C11.0895 11.594 11.0889 11.6024 11.0868 11.6131C11.0838 11.6273 11.0816 11.6366 11.0801 11.6411L11.0445 11.7453L10.8535 11.677ZM10.9492 11.6429L10.9582 11.6166C10.9614 11.6072 10.9621 11.6001 10.9602 11.5953C10.9583 11.5905 10.9543 11.587 10.9483 11.5848C10.9428 11.5829 10.9378 11.5832 10.9334 11.5857C10.929 11.5883 10.9253 11.5941 10.9221 11.6033L10.913 11.6299L10.9492 11.6429ZM11.0243 11.6697L11.0348 11.6389C11.0384 11.6285 11.0391 11.6206 11.0369 11.615C11.0348 11.6095 11.0306 11.6056 11.0246 11.6034C11.0189 11.6014 11.0137 11.6019 11.0088 11.6049C11.0039 11.6079 10.9997 11.6147 10.9961 11.6252L10.9856 11.6559L11.0243 11.6697Z" fill="black"/>
<path d="M10.9492 11.4268L10.9815 11.372L11.1121 11.4526L11.1625 11.3672L11.2052 11.3935L11.1224 11.5337L10.9492 11.4268Z" fill="black"/>
<path d="M11.0713 11.2367L11.1114 11.1875L11.2668 11.32L11.2267 11.3692L11.0713 11.2367Z" fill="black"/>
<path d="M11.3437 11.1286L11.396 11.105C11.4032 11.1193 11.4072 11.1332 11.4079 11.1464C11.4086 11.1597 11.4062 11.1723 11.4008 11.1842C11.3953 11.196 11.3857 11.208 11.3719 11.2201C11.3553 11.2348 11.3395 11.2443 11.3248 11.2486C11.3101 11.2529 11.2936 11.2522 11.2754 11.2465C11.2573 11.2407 11.24 11.2281 11.2236 11.2086C11.2018 11.1827 11.1918 11.1568 11.1936 11.1309C11.1953 11.1051 11.2086 11.0814 11.2333 11.0597C11.2526 11.0427 11.2712 11.0333 11.2889 11.0316C11.3067 11.0299 11.3252 11.0349 11.3445 11.0467L11.3107 11.0931C11.3052 11.0896 11.3007 11.0874 11.2972 11.0866C11.2915 11.0852 11.2858 11.0852 11.2803 11.0866C11.2748 11.088 11.2697 11.0908 11.2649 11.0949C11.2542 11.1044 11.2497 11.116 11.2514 11.1299C11.2526 11.1403 11.2591 11.1525 11.2709 11.1666C11.2855 11.184 11.2981 11.1936 11.3087 11.1956C11.3193 11.1975 11.3293 11.1943 11.3386 11.1861C11.3477 11.1781 11.3524 11.1695 11.3526 11.1602C11.3529 11.1509 11.3499 11.1404 11.3437 11.1286L11.3437 11.1286Z" fill="black"/>
<path d="M11.5592 11.0506L11.4963 11.0848L11.5034 11.1197L11.447 11.1504L11.4189 10.9312L11.4791 10.8984L11.6414 11.0444L11.5837 11.0759L11.5592 11.0506ZM11.527 11.0174L11.4731 10.9625L11.4877 11.0388L11.527 11.0174Z" fill="black"/>
<path d="M11.7178 10.8038L11.8093 10.7876C11.8273 10.7844 11.8423 10.7843 11.8543 10.7874C11.8662 10.7904 11.8766 10.796 11.8855 10.8041C11.8943 10.8122 11.9014 10.8221 11.9068 10.834C11.9121 10.8458 11.916 10.8587 11.9183 10.8726C11.922 10.8944 11.9224 10.9117 11.9196 10.9246C11.9168 10.9375 11.9118 10.9487 11.9045 10.9583C11.8973 10.968 11.8889 10.975 11.8795 10.9794C11.8666 10.9855 11.8547 10.9896 11.8437 10.9915L11.7522 11.0077L11.7178 10.8038ZM11.7872 10.8391L11.806 10.9505L11.8211 10.9478C11.834 10.9455 11.8429 10.9425 11.8478 10.9386C11.8528 10.9347 11.8562 10.9288 11.858 10.921C11.8599 10.9132 11.8594 10.9011 11.8567 10.8848C11.853 10.8632 11.8471 10.849 11.8388 10.8423C11.8306 10.8355 11.8185 10.8335 11.8025 10.8363L11.7872 10.8391Z" fill="black"/>
<path d="M11.9774 10.7695L12.1448 10.7769L12.1429 10.821L12.0381 10.8164L12.0368 10.8493L12.134 10.8535L12.1322 10.8957L12.035 10.8914L12.0333 10.9322L12.1411 10.9369L12.1392 10.9837L11.9688 10.9763L11.9774 10.7695Z" fill="black"/>
<path d="M12.2219 10.7891L12.2827 10.8043L12.2464 10.9558L12.3412 10.9795L12.3293 11.029L12.1738 10.99L12.2219 10.7891Z" fill="black"/>
<path d="M12.5463 10.8984L12.6358 10.9525C12.6553 10.9643 12.6671 10.9779 12.6713 10.9932C12.6756 11.0085 12.6726 11.025 12.6625 11.0425C12.6521 11.0604 12.6387 11.0713 12.6223 11.075C12.6058 11.0788 12.5868 11.0741 12.5651 11.061L12.5356 11.0431L12.4974 11.1092L12.4434 11.0766L12.5463 10.8984ZM12.5565 11.0071L12.5697 11.015C12.58 11.0213 12.5884 11.0239 12.5947 11.0227C12.601 11.0216 12.6059 11.0181 12.6092 11.0124C12.6124 11.0068 12.6133 11.0009 12.612 10.9949C12.6106 10.9888 12.6048 10.9827 12.5948 10.9766L12.5794 10.9673L12.5565 11.0071Z" fill="black"/>
<path d="M12.7314 11.2526L12.6793 11.203L12.6493 11.2212L12.6025 11.1767L12.796 11.0781L12.8459 11.1256L12.7638 11.3301L12.7159 11.2845L12.7314 11.2526ZM12.7516 11.2107L12.7847 11.1407L12.7189 11.1797L12.7516 11.2107Z" fill="black"/>
<path d="M12.7764 11.3436L12.9432 11.2266L13.0021 11.3144C13.0131 11.3307 13.0201 11.3441 13.0231 11.3547C13.0262 11.3652 13.0258 11.3757 13.0219 11.3862C13.018 11.3966 13.0108 11.4056 13.0002 11.413C12.9909 11.4195 12.9816 11.4231 12.9722 11.4238C12.9627 11.4245 12.9536 11.4227 12.9447 11.4186C12.939 11.416 12.9327 11.4113 12.9257 11.4047C12.9278 11.4125 12.9288 11.4185 12.9287 11.4228C12.9287 11.4257 12.9276 11.4305 12.9256 11.4374C12.9236 11.4442 12.9218 11.4491 12.9202 11.452L12.889 11.5115L12.849 11.4519L12.8811 11.3879C12.8853 11.3797 12.8874 11.3735 12.8875 11.3694C12.8876 11.3637 12.886 11.3585 12.8827 11.3537L12.8796 11.3491L12.8119 11.3966L12.7764 11.3436ZM12.9111 11.327L12.926 11.3492C12.9277 11.3516 12.9315 11.3557 12.9377 11.3616C12.9407 11.3646 12.9444 11.3662 12.9487 11.3664C12.9529 11.3667 12.9569 11.3655 12.9606 11.363C12.9659 11.3592 12.9689 11.3545 12.9694 11.349C12.97 11.3435 12.967 11.3359 12.9606 11.3263L12.945 11.3032L12.9111 11.327Z" fill="black"/>
<path d="M12.9734 11.6373L12.947 11.5696L12.9124 11.573L12.8887 11.5123L13.1048 11.5078L13.13 11.5726L12.9703 11.7215L12.9461 11.6594L12.9734 11.6373ZM13.0092 11.6082L13.0684 11.5594L12.9927 11.5659L13.0092 11.6082Z" fill="black"/>
<path d="M13.0617 11.8353L13.1034 11.829L13.1177 11.9267L13.0324 11.9397C13.0172 11.9229 13.0063 11.9077 12.9997 11.894C12.993 11.8803 12.9883 11.8636 12.9854 11.8439C12.9819 11.8196 12.983 11.7992 12.9889 11.7826C12.9947 11.7661 13.005 11.7524 13.0198 11.7415C13.0346 11.7306 13.0524 11.7236 13.0731 11.7204C13.095 11.7171 13.1146 11.7188 13.1321 11.7255C13.1496 11.7323 13.1639 11.7439 13.1748 11.7604C13.1833 11.7732 13.1893 11.7914 13.1927 11.8149C13.196 11.8375 13.1965 11.8547 13.1941 11.8665C13.1918 11.8783 13.1869 11.8886 13.1796 11.8973C13.1723 11.906 13.1624 11.9132 13.15 11.9189L13.1305 11.8595C13.1376 11.8558 13.1428 11.8507 13.1459 11.8441C13.149 11.8375 13.1499 11.8295 13.1486 11.8202C13.1465 11.8063 13.1402 11.796 13.1296 11.7892C13.119 11.7824 13.1035 11.7806 13.0831 11.7837C13.0614 11.787 13.0466 11.7935 13.0385 11.8033C13.0304 11.813 13.0275 11.8253 13.0297 11.8402C13.0307 11.8473 13.0327 11.8539 13.0356 11.86C13.0386 11.8661 13.0431 11.873 13.0491 11.8805L13.0679 11.8776L13.0617 11.8353Z" fill="black"/>
<path d="M13.1944 12.1335L13.1888 12.1971L13.0687 12.1861C13.0568 12.1851 13.0457 12.1821 13.0354 12.1774C13.0252 12.1726 13.0165 12.1658 13.0092 12.157C13.002 12.1482 12.9972 12.1391 12.9948 12.1299C12.9913 12.1172 12.9904 12.1021 12.9919 12.0848C12.9928 12.0747 12.9944 12.0639 12.9968 12.0521C12.9992 12.0404 13.0028 12.0307 13.0076 12.0231C13.0124 12.0155 13.0188 12.0088 13.0269 12.0029C13.035 11.9969 13.0431 11.9931 13.0513 11.9914C13.0645 11.9886 13.076 11.9877 13.0859 11.9886L13.2061 11.9996L13.2005 12.0631L13.0775 12.0519C13.0665 12.0509 13.0576 12.0532 13.0509 12.0589C13.0442 12.0646 13.0403 12.0729 13.0394 12.084C13.0384 12.095 13.0407 12.1038 13.0463 12.1106C13.0518 12.1174 13.0602 12.1213 13.0714 12.1223L13.1944 12.1335Z" fill="black"/>
<path d="M12.9703 12.3546L12.9925 12.2854L12.9639 12.2652L12.9838 12.2031L13.1523 12.3416L13.131 12.4079L12.915 12.4171L12.9355 12.3536L12.9703 12.3546ZM13.016 12.3558L13.092 12.3573L13.0299 12.3125L13.016 12.3558Z" fill="black"/>
<path d="M13.089 12.5255L13.0533 12.5864L12.9737 12.5863L13.0113 12.6581L12.9759 12.7186L12.9155 12.5878L12.8428 12.5432L12.875 12.4883L12.9477 12.5328L13.089 12.5255Z" fill="black"/>
<path d="M12.1988 11.2813C12.1988 11.2813 12.7695 11.5327 12.6698 12.0524C12.5702 12.5721 12.2524 12.5686 12.1278 12.6261C12.0032 12.6835 11.9173 12.7657 11.8681 12.7542C11.8189 12.7427 11.754 12.7039 11.754 12.7039C11.754 12.7039 11.7488 12.7892 11.8488 12.8048C11.9489 12.8203 12.0805 12.6701 12.1436 12.6534C12.2068 12.6367 12.5948 12.5936 12.6892 12.0648C12.7993 11.5004 12.2023 11.2978 12.1988 11.2812L12.1988 11.2813Z" fill="#009B3A" stroke="black" stroke-width="0.01"/>
<path d="M12.4863 11.389C12.4914 11.4095 12.4943 11.4293 12.4944 11.4441C12.4944 11.4588 12.4917 11.4673 12.4867 11.4677C12.4818 11.4681 12.475 11.4603 12.4679 11.4461C12.4607 11.432 12.4538 11.4125 12.4487 11.392C12.4461 11.3818 12.4441 11.3716 12.4427 11.3621C12.4413 11.3525 12.4405 11.3438 12.4404 11.3364C12.4404 11.329 12.441 11.3231 12.4423 11.319C12.4436 11.3149 12.4456 11.3127 12.4481 11.3125C12.4505 11.3123 12.4535 11.3141 12.4568 11.3179C12.46 11.3216 12.4635 11.3272 12.4671 11.3343C12.4706 11.3415 12.4742 11.3499 12.4775 11.3593C12.4808 11.3687 12.4838 11.3788 12.4863 11.389Z" fill="#009B3A" stroke="black" stroke-width="0.01"/>
<path d="M12.4667 11.3958C12.4714 11.4055 12.4757 11.4153 12.4792 11.4246C12.4827 11.434 12.4854 11.4426 12.4871 11.4501C12.4889 11.4576 12.4897 11.4638 12.4894 11.4683C12.4891 11.4728 12.4878 11.4755 12.4856 11.4764C12.4834 11.4772 12.4802 11.4761 12.4763 11.4731C12.4725 11.4702 12.4679 11.4654 12.463 11.4591C12.4581 11.4528 12.4529 11.4451 12.4477 11.4364C12.4425 11.4277 12.4374 11.4182 12.4327 11.4085C12.4232 11.3889 12.4159 11.3695 12.4124 11.3545C12.4089 11.3395 12.4095 11.3301 12.414 11.3284C12.4185 11.3267 12.4266 11.3329 12.4365 11.3455C12.4463 11.3581 12.4572 11.3762 12.4667 11.3958Z" fill="#009B3A" stroke="black" stroke-width="0.01"/>
<path d="M12.4095 11.4354C12.4288 11.4412 12.4471 11.4488 12.4604 11.4566C12.4737 11.4644 12.4809 11.4717 12.4804 11.4769C12.48 11.4821 12.4719 11.4848 12.4579 11.4845C12.444 11.4841 12.4253 11.4806 12.4059 11.4749C12.3866 11.4691 12.3683 11.4614 12.355 11.4536C12.3417 11.4459 12.3345 11.4386 12.335 11.4334C12.3355 11.4282 12.3436 11.4254 12.3575 11.4258C12.3715 11.4262 12.3902 11.4296 12.4095 11.4354Z" fill="#009B3A" stroke="black" stroke-width="0.01"/>
<path d="M12.4186 11.4112C12.4274 11.4172 12.4359 11.4236 12.4436 11.43C12.4513 11.4365 12.4581 11.4428 12.4636 11.4486C12.4691 11.4544 12.4731 11.4596 12.4755 11.464C12.4779 11.4683 12.4786 11.4717 12.4775 11.4739C12.4764 11.4761 12.4736 11.477 12.4692 11.4768C12.4648 11.4765 12.459 11.4749 12.452 11.4722C12.445 11.4695 12.437 11.4656 12.4284 11.4609C12.4199 11.4561 12.411 11.4505 12.4022 11.4445C12.3934 11.4385 12.3849 11.4321 12.3771 11.4257C12.3694 11.4193 12.3626 11.413 12.3571 11.4071C12.3517 11.4013 12.3476 11.3961 12.3452 11.3917C12.3429 11.3874 12.3422 11.384 12.3433 11.3818C12.3444 11.3796 12.3472 11.3787 12.3515 11.379C12.3559 11.3792 12.3618 11.3808 12.3688 11.3835C12.3758 11.3863 12.3838 11.3901 12.3923 11.3949C12.4009 11.3996 12.4098 11.4052 12.4186 11.4112Z" fill="#009B3A" stroke="black" stroke-width="0.01"/>
<path d="M12.4423 11.3999C12.4497 11.4078 12.4568 11.416 12.4631 11.424C12.4694 11.432 12.4747 11.4396 12.4789 11.4465C12.483 11.4533 12.4858 11.4592 12.4872 11.4638C12.4885 11.4685 12.4884 11.4717 12.4868 11.4734C12.4851 11.4752 12.482 11.4753 12.4777 11.4738C12.4733 11.4724 12.4677 11.4693 12.4613 11.4649C12.4548 11.4605 12.4476 11.4548 12.4401 11.4481C12.4326 11.4414 12.4249 11.4339 12.4174 11.426C12.4024 11.41 12.3894 11.3934 12.3812 11.3797C12.3729 11.366 12.3701 11.3564 12.3734 11.353C12.3767 11.3495 12.3858 11.3525 12.3987 11.3613C12.4116 11.3701 12.4273 11.384 12.4423 11.3999Z" fill="#009B3A" stroke="black" stroke-width="0.01"/>
<path d="M12.4824 11.4739C12.4827 11.4743 12.4604 11.4866 12.4553 11.4885C12.4502 11.4903 12.4434 11.4816 12.4288 11.4892C12.4143 11.4968 12.4043 11.5108 12.4011 11.5189C12.3979 11.5271 12.4052 11.5305 12.4228 11.5218C12.4404 11.5131 12.445 11.4992 12.4535 11.4938C12.462 11.4884 12.4762 11.4804 12.4843 11.4774C12.4878 11.4696 12.4992 11.4528 12.5051 11.4432C12.511 11.4336 12.5341 11.4177 12.5425 11.3992C12.5498 11.3838 12.547 11.3708 12.5372 11.3763C12.5274 11.3817 12.5147 11.3971 12.5088 11.4081C12.5029 11.4192 12.508 11.4332 12.5014 11.4436C12.4962 11.4511 12.4837 11.4739 12.4824 11.4739V11.4739Z" fill="#009B3A" stroke="black" stroke-width="0.01"/>
<path d="M12.6585 11.5368C12.6588 11.5525 12.6583 11.568 12.6572 11.5822C12.656 11.5964 12.6542 11.6092 12.6519 11.6197C12.6496 11.6302 12.6468 11.6384 12.6437 11.6436C12.6406 11.6488 12.6372 11.6511 12.6337 11.6502C12.6302 11.6494 12.6267 11.6455 12.6234 11.6386C12.6201 11.6318 12.6171 11.6223 12.6145 11.6105C12.6118 11.5988 12.6097 11.5851 12.6082 11.5702C12.6066 11.5553 12.6057 11.5396 12.6055 11.5238C12.6051 11.492 12.6075 11.4622 12.6121 11.4409C12.6168 11.4196 12.6233 11.4086 12.6304 11.4103C12.6374 11.4121 12.6443 11.4263 12.6496 11.4501C12.6549 11.4738 12.6581 11.505 12.6585 11.5368Z" fill="#009B3A" stroke="black" stroke-width="0.01"/>
<path d="M12.6293 11.5315C12.6327 11.5476 12.6354 11.5636 12.6372 11.5785C12.6391 11.5935 12.64 11.6071 12.64 11.6186C12.64 11.6301 12.6391 11.6393 12.6373 11.6456C12.6354 11.6519 12.6328 11.6553 12.6294 11.6555C12.626 11.6556 12.622 11.6526 12.6176 11.6466C12.6132 11.6406 12.6085 11.6317 12.6037 11.6205C12.5989 11.6092 12.5942 11.5958 12.5898 11.5809C12.5854 11.5661 12.5814 11.5502 12.5781 11.5341C12.5747 11.518 12.572 11.5021 12.5702 11.4871C12.5683 11.4722 12.5674 11.4586 12.5674 11.447C12.5674 11.4355 12.5683 11.4263 12.5701 11.42C12.572 11.4137 12.5746 11.4103 12.578 11.4102C12.5814 11.41 12.5854 11.413 12.5898 11.419C12.5942 11.425 12.5989 11.4339 12.6037 11.4452C12.6084 11.4564 12.6132 11.4699 12.6176 11.4847C12.622 11.4995 12.626 11.5154 12.6293 11.5315Z" fill="#009B3A" stroke="black" stroke-width="0.01"/>
<path d="M12.5379 11.563C12.5504 11.5716 12.5625 11.5808 12.5736 11.5901C12.5847 11.5994 12.5945 11.6086 12.6025 11.6172C12.6105 11.6259 12.6165 11.6337 12.6202 11.6404C12.624 11.647 12.6253 11.6523 12.6241 11.6559C12.6229 11.6595 12.6193 11.6614 12.6134 11.6615C12.6076 11.6615 12.5996 11.6598 12.5899 11.6562C12.5803 11.6527 12.5691 11.6475 12.5572 11.6409C12.5452 11.6344 12.5326 11.6266 12.5202 11.618C12.5077 11.6094 12.4956 11.6003 12.4845 11.591C12.4734 11.5816 12.4636 11.5724 12.4556 11.5638C12.4476 11.5551 12.4416 11.5473 12.4378 11.5406C12.4341 11.534 12.4328 11.5287 12.434 11.5251C12.4352 11.5215 12.4388 11.5196 12.4447 11.5195C12.4505 11.5195 12.4585 11.5213 12.4682 11.5248C12.4778 11.5283 12.489 11.5335 12.5009 11.5401C12.5129 11.5466 12.5255 11.5544 12.5379 11.563Z" fill="#009B3A" stroke="black" stroke-width="0.01"/>
<path d="M12.5566 11.5357C12.5771 11.5611 12.5949 11.5875 12.6062 11.6092C12.6175 11.6309 12.6214 11.646 12.617 11.6513C12.6125 11.6566 12.6002 11.6516 12.5826 11.6375C12.565 11.6234 12.5436 11.6012 12.5231 11.5759C12.5128 11.5632 12.5031 11.5501 12.4945 11.5374C12.4858 11.5247 12.4785 11.5126 12.4728 11.5017C12.4671 11.4909 12.4632 11.4815 12.4613 11.4742C12.4594 11.4669 12.4595 11.4618 12.4617 11.4591C12.464 11.4565 12.4682 11.4563 12.4741 11.4588C12.4801 11.4612 12.4877 11.4661 12.4965 11.4732C12.5053 11.4803 12.5152 11.4895 12.5255 11.5002C12.5358 11.511 12.5464 11.523 12.5566 11.5357Z" fill="#009B3A" stroke="black" stroke-width="0.01"/>
<path d="M12.5932 11.5301C12.6009 11.5448 12.6081 11.5598 12.6142 11.5741C12.6203 11.5884 12.6252 11.6018 12.6287 11.6134C12.6323 11.6251 12.6342 11.6348 12.6346 11.6421C12.635 11.6493 12.6337 11.6539 12.6309 11.6556C12.6281 11.6573 12.6238 11.6561 12.6182 11.652C12.6126 11.6479 12.6059 11.6411 12.5984 11.6318C12.5909 11.6225 12.5828 11.6111 12.5746 11.5981C12.5663 11.5851 12.5581 11.5708 12.5503 11.556C12.5425 11.5412 12.5354 11.5263 12.5293 11.512C12.5232 11.4976 12.5182 11.4843 12.5147 11.4726C12.5112 11.461 12.5092 11.4512 12.5089 11.444C12.5085 11.4367 12.5097 11.4321 12.5126 11.4304C12.5154 11.4287 12.5197 11.43 12.5253 11.434C12.5309 11.4381 12.5376 11.445 12.5451 11.4542C12.5526 11.4635 12.5607 11.475 12.5689 11.488C12.5772 11.501 12.5854 11.5153 12.5932 11.5301Z" fill="#009B3A" stroke="black" stroke-width="0.01"/>
<path d="M12.6245 11.6542C12.6249 11.6548 12.5899 11.6623 12.5823 11.6626C12.5747 11.6629 12.5681 11.6473 12.5454 11.6515C12.5228 11.6558 12.5045 11.6712 12.4974 11.6815C12.4904 11.6917 12.4994 11.7 12.5266 11.6955C12.5537 11.691 12.5646 11.6733 12.5781 11.6694C12.5916 11.6655 12.6139 11.6606 12.6261 11.6601C12.6335 11.6505 12.6547 11.6316 12.6659 11.6206C12.6772 11.6095 12.7143 11.5973 12.732 11.5746C12.7471 11.556 12.7475 11.5361 12.7321 11.5394C12.7168 11.5427 12.6942 11.559 12.6824 11.5721C12.6707 11.5852 12.6732 11.6076 12.6607 11.6195C12.6511 11.6278 12.6264 11.6548 12.6246 11.6542L12.6245 11.6542Z" fill="#009B3A" stroke="black" stroke-width="0.01"/>
<path d="M12.7517 11.7757C12.7491 11.7913 12.7459 11.8065 12.7423 11.8204C12.7387 11.8342 12.7347 11.8465 12.7306 11.8564C12.7265 11.8664 12.7223 11.8739 12.7183 11.8785C12.7143 11.883 12.7106 11.8846 12.7073 11.8831C12.7041 11.8816 12.7013 11.877 12.6993 11.8696C12.6973 11.8622 12.696 11.8521 12.6955 11.84C12.695 11.8279 12.6954 11.8139 12.6965 11.7989C12.6976 11.7839 12.6996 11.7681 12.7021 11.7525C12.7047 11.7369 12.7079 11.7217 12.7115 11.7078C12.7151 11.694 12.7191 11.6817 12.7232 11.6717C12.7273 11.6618 12.7315 11.6543 12.7355 11.6497C12.7395 11.6451 12.7432 11.6436 12.7465 11.6451C12.7497 11.6466 12.7524 11.6512 12.7545 11.6586C12.7565 11.666 12.7578 11.6761 12.7582 11.6882C12.7587 11.7003 12.7584 11.7143 12.7573 11.7293C12.7561 11.7443 12.7542 11.7601 12.7517 11.7757Z" fill="#009B3A" stroke="black" stroke-width="0.01"/>
<path d="M12.7237 11.7711C12.7242 11.7877 12.724 11.8041 12.7231 11.8192C12.7223 11.8344 12.7208 11.8481 12.7188 11.8595C12.7168 11.871 12.7142 11.8799 12.7113 11.8858C12.7084 11.8917 12.7052 11.8945 12.7019 11.894C12.6986 11.8936 12.6952 11.8898 12.6919 11.883C12.6887 11.8761 12.6856 11.8664 12.6829 11.8542C12.6803 11.8421 12.678 11.8279 12.6763 11.8123C12.6746 11.7968 12.6735 11.7802 12.6731 11.7636C12.6726 11.747 12.6728 11.7307 12.6737 11.7155C12.6745 11.7003 12.676 11.6866 12.678 11.6752C12.68 11.6638 12.6825 11.6548 12.6854 11.6489C12.6884 11.643 12.6916 11.6402 12.6949 11.6407C12.6982 11.6412 12.7016 11.6449 12.7049 11.6518C12.7081 11.6586 12.7112 11.6684 12.7139 11.6805C12.7165 11.6926 12.7188 11.7069 12.7205 11.7224C12.7221 11.738 12.7232 11.7545 12.7237 11.7711Z" fill="#009B3A" stroke="black" stroke-width="0.01"/>
<path d="M12.6286 11.7799C12.6392 11.7907 12.6494 11.8021 12.6585 11.8134C12.6676 11.8247 12.6756 11.8357 12.6818 11.8458C12.688 11.8558 12.6925 11.8647 12.6949 11.8719C12.6974 11.8792 12.6977 11.8846 12.6959 11.8879C12.6941 11.8913 12.6903 11.8924 12.6846 11.8914C12.6789 11.8903 12.6715 11.887 12.6627 11.8817C12.6539 11.8764 12.644 11.8691 12.6336 11.8604C12.6231 11.8516 12.6122 11.8415 12.6016 11.8306C12.591 11.8198 12.5808 11.8084 12.5717 11.7971C12.5626 11.7858 12.5547 11.7748 12.5484 11.7647C12.5422 11.7547 12.5377 11.7458 12.5353 11.7386C12.5329 11.7313 12.5326 11.7259 12.5343 11.7226C12.5361 11.7192 12.5399 11.7181 12.5456 11.7191C12.5513 11.7202 12.5588 11.7235 12.5675 11.7288C12.5763 11.7341 12.5862 11.7414 12.5967 11.7501C12.6072 11.7589 12.618 11.769 12.6286 11.7799Z" fill="#009B3A" stroke="black" stroke-width="0.01"/>
<path d="M12.6514 11.7589C12.6592 11.7734 12.6663 11.7881 12.6725 11.8023C12.6786 11.8165 12.6836 11.8299 12.6873 11.8416C12.6909 11.8534 12.693 11.8634 12.6936 11.8709C12.6941 11.8784 12.693 11.8834 12.6904 11.8856C12.6878 11.8878 12.6837 11.8871 12.6783 11.8836C12.6729 11.88 12.6664 11.8737 12.6591 11.865C12.6518 11.8564 12.6438 11.8454 12.6357 11.8329C12.6275 11.8204 12.6193 11.8065 12.6116 11.792C12.6039 11.7775 12.5967 11.7628 12.5906 11.7486C12.5844 11.7344 12.5794 11.721 12.5758 11.7093C12.5722 11.6975 12.57 11.6876 12.5695 11.68C12.5689 11.6725 12.57 11.6675 12.5726 11.6653C12.5752 11.6631 12.5793 11.6638 12.5847 11.6674C12.5901 11.6709 12.5966 11.6772 12.604 11.6859C12.6113 11.6946 12.6192 11.7055 12.6274 11.718C12.6355 11.7305 12.6437 11.7444 12.6514 11.7589Z" fill="#009B3A" stroke="black" stroke-width="0.01"/>
<path d="M12.6881 11.7596C12.6931 11.7758 12.6975 11.792 12.7009 11.8074C12.7044 11.8228 12.7069 11.837 12.7083 11.8493C12.7097 11.8616 12.7099 11.8716 12.709 11.8789C12.7081 11.8862 12.7061 11.8905 12.703 11.8916C12.6999 11.8928 12.6959 11.8907 12.6912 11.8855C12.6864 11.8803 12.681 11.8722 12.6753 11.8615C12.6696 11.8509 12.6637 11.8379 12.6579 11.8233C12.6521 11.8088 12.6466 11.793 12.6416 11.7768C12.6366 11.7607 12.6322 11.7444 12.6287 11.729C12.6253 11.7136 12.6228 11.6994 12.6214 11.6871C12.62 11.6749 12.6197 11.6648 12.6207 11.6576C12.6216 11.6503 12.6236 11.646 12.6267 11.6448C12.6297 11.6437 12.6338 11.6458 12.6385 11.6509C12.6433 11.6561 12.6487 11.6643 12.6544 11.6749C12.6601 11.6856 12.666 11.6986 12.6718 11.7131C12.6776 11.7277 12.6831 11.7435 12.6881 11.7596Z" fill="#009B3A" stroke="black" stroke-width="0.01"/>
<path d="M12.697 11.8891C12.6972 11.8898 12.6617 11.8903 12.6542 11.8891C12.6467 11.8879 12.643 11.8712 12.6201 11.871C12.5973 11.8707 12.5766 11.8823 12.5679 11.8911C12.5592 11.8998 12.5666 11.9097 12.5939 11.9107C12.6213 11.9116 12.6351 11.8962 12.6489 11.895C12.6628 11.8938 12.6855 11.8933 12.6975 11.8952C12.7064 11.8872 12.7304 11.8728 12.7434 11.864C12.7563 11.8553 12.7948 11.8505 12.816 11.8316C12.8341 11.8162 12.838 11.7966 12.8224 11.7969C12.8068 11.7971 12.7819 11.8087 12.768 11.8194C12.7542 11.83 12.7527 11.8527 12.7384 11.8619C12.7276 11.8683 12.6987 11.89 12.697 11.8891" fill="#009B3A"/>
<path d="M12.697 11.8891C12.6972 11.8898 12.6617 11.8903 12.6542 11.8891C12.6467 11.8879 12.643 11.8712 12.6201 11.871C12.5973 11.8707 12.5766 11.8823 12.5679 11.8911C12.5592 11.8998 12.5666 11.9097 12.5939 11.9107C12.6213 11.9116 12.6351 11.8962 12.6489 11.895C12.6628 11.8938 12.6855 11.8933 12.6975 11.8952C12.7064 11.8872 12.7304 11.8728 12.7434 11.864C12.7563 11.8553 12.7948 11.8505 12.816 11.8316C12.8341 11.8162 12.838 11.7966 12.8224 11.7969C12.8068 11.7971 12.7819 11.8087 12.768 11.8194C12.7542 11.83 12.7527 11.8527 12.7384 11.8619C12.7276 11.8683 12.6987 11.89 12.697 11.8891" stroke="black" stroke-width="0.01"/>
<path d="M12.7591 12.0472C12.7425 12.0742 12.7246 12.0979 12.7094 12.113C12.6943 12.1282 12.6831 12.1335 12.6783 12.1279C12.6735 12.1222 12.6756 12.1061 12.684 12.083C12.6924 12.0599 12.7064 12.0318 12.7231 12.0047C12.7397 11.9777 12.7576 11.954 12.7728 11.9389C12.7879 11.9238 12.7991 11.9184 12.8039 11.9241C12.8087 11.9297 12.8066 11.9458 12.7982 11.9689C12.7898 11.992 12.7758 12.0202 12.7591 12.0472Z" fill="#009B3A" stroke="black" stroke-width="0.01"/>
<path d="M12.736 12.0277C12.7242 12.0591 12.7106 12.0876 12.6982 12.1071C12.6858 12.1266 12.6756 12.1355 12.6699 12.1317C12.6642 12.128 12.6635 12.1119 12.6678 12.0871C12.6722 12.0623 12.6813 12.0308 12.6931 11.9994C12.7049 11.9681 12.7186 11.9395 12.731 11.92C12.7434 11.9005 12.7535 11.8916 12.7592 11.8954C12.7649 11.8991 12.7657 11.9152 12.7613 11.94C12.757 11.9648 12.7479 11.9964 12.736 12.0277Z" fill="#009B3A" stroke="black" stroke-width="0.01"/>
<path d="M12.6462 12.0007C12.6572 12.0301 12.6655 12.0602 12.6693 12.0843C12.673 12.1084 12.6718 12.1246 12.666 12.1294C12.6602 12.1341 12.6503 12.127 12.6383 12.1095C12.6264 12.0921 12.6135 12.0657 12.6024 12.0364C12.5969 12.0218 12.5921 12.0069 12.5881 11.9926C12.5841 11.9782 12.5811 11.9647 12.5793 11.9528C12.5756 11.9286 12.5767 11.9124 12.5825 11.9077C12.5883 11.9029 12.5983 11.9101 12.6102 11.9275C12.6222 11.945 12.6351 11.9713 12.6462 12.0007Z" fill="#009B3A"/>
<path d="M12.6462 12.0007C12.6572 12.0301 12.6655 12.0602 12.6693 12.0843C12.673 12.1084 12.6718 12.1246 12.666 12.1294C12.6602 12.1341 12.6503 12.127 12.6383 12.1095C12.6264 12.0921 12.6135 12.0657 12.6024 12.0364C12.5969 12.0218 12.5921 12.0069 12.5881 11.9926C12.5841 11.9782 12.5811 11.9647 12.5793 11.9528C12.5756 11.9286 12.5767 11.9124 12.5825 11.9077C12.5883 11.9029 12.5983 11.9101 12.6102 11.9275C12.6222 11.945 12.6351 11.9713 12.6462 12.0007" stroke="black" stroke-width="0.01"/>
<path d="M12.6753 11.9883C12.6783 12.0218 12.6786 12.0547 12.6762 12.0797C12.6738 12.1046 12.6688 12.1196 12.6624 12.1215C12.656 12.1233 12.6486 12.1118 12.6419 12.0894C12.6352 12.067 12.6298 12.0357 12.6267 12.0021C12.6251 11.9854 12.6243 11.9686 12.6241 11.9527C12.6239 11.9369 12.6244 11.9223 12.6256 11.9098C12.6268 11.8972 12.6286 11.8871 12.631 11.8798C12.6333 11.8725 12.6362 11.8683 12.6394 11.8674C12.6426 11.8665 12.6461 11.8689 12.6496 11.8745C12.6532 11.8801 12.6567 11.8887 12.6601 11.8999C12.6634 11.9112 12.6665 11.9248 12.6691 11.9399C12.6717 11.9551 12.6738 11.9715 12.6753 11.9883Z" fill="#009B3A"/>
<path d="M12.6753 11.9883C12.6783 12.0218 12.6786 12.0547 12.6762 12.0797C12.6738 12.1046 12.6688 12.1196 12.6624 12.1215C12.656 12.1233 12.6486 12.1118 12.6419 12.0894C12.6352 12.067 12.6298 12.0357 12.6267 12.0021C12.6251 11.9854 12.6243 11.9686 12.6241 11.9527C12.6239 11.9369 12.6244 11.9223 12.6256 11.9098C12.6268 11.8972 12.6286 11.8871 12.631 11.8798C12.6333 11.8725 12.6362 11.8683 12.6394 11.8674C12.6426 11.8665 12.6461 11.8689 12.6496 11.8745C12.6532 11.8801 12.6567 11.8887 12.6601 11.8999C12.6634 11.9112 12.6665 11.9248 12.6691 11.9399C12.6717 11.9551 12.6738 11.9715 12.6753 11.9883" stroke="black" stroke-width="0.01"/>
<path d="M12.7067 12.0064C12.7035 12.0407 12.6978 12.0735 12.691 12.0974C12.6842 12.1214 12.6767 12.1346 12.6703 12.1341C12.6638 12.1336 12.6589 12.1195 12.6567 12.0948C12.6544 12.0702 12.6549 12.037 12.6582 12.0027C12.6598 11.9857 12.662 11.9689 12.6647 11.9533C12.6674 11.9376 12.6705 11.9235 12.6739 11.9116C12.6773 11.8998 12.6809 11.8904 12.6844 11.8842C12.688 11.8779 12.6915 11.8748 12.6947 11.875C12.6978 11.8753 12.7007 11.8788 12.703 11.8856C12.7054 11.8923 12.7071 11.9021 12.7083 11.9143C12.7094 11.9265 12.7098 11.9409 12.7096 11.9567C12.7093 11.9725 12.7084 11.9894 12.7067 12.0064Z" fill="#009B3A" stroke="black" stroke-width="0.01"/>
<path d="M12.6668 12.1267C12.6668 12.1275 12.6345 12.1129 12.6281 12.1087C12.6218 12.1044 12.6248 12.0873 12.6041 12.0774C12.5835 12.0675 12.5604 12.0695 12.5492 12.074C12.538 12.0784 12.5409 12.0907 12.5653 12.1031C12.5898 12.1156 12.6081 12.1071 12.6211 12.1119C12.6341 12.1167 12.6548 12.1258 12.6649 12.1326C12.6761 12.1289 12.7033 12.1257 12.7184 12.1231C12.7334 12.1205 12.77 12.1323 12.7964 12.1237C12.8186 12.1171 12.8296 12.1006 12.8153 12.0942C12.8011 12.0879 12.7742 12.0881 12.7576 12.0921C12.7411 12.0961 12.7311 12.1165 12.7147 12.119C12.7024 12.1204 12.668 12.1283 12.6668 12.1267" fill="#009B3A"/>
<path d="M12.6668 12.1267C12.6668 12.1275 12.6345 12.1129 12.6281 12.1087C12.6218 12.1044 12.6248 12.0873 12.6041 12.0774C12.5835 12.0675 12.5604 12.0695 12.5492 12.074C12.538 12.0784 12.5409 12.0907 12.5653 12.1031C12.5898 12.1156 12.6081 12.1071 12.6211 12.1119C12.6341 12.1167 12.6548 12.1258 12.6649 12.1326C12.6761 12.1289 12.7033 12.1257 12.7184 12.1231C12.7334 12.1205 12.77 12.1323 12.7964 12.1237C12.8186 12.1171 12.8296 12.1006 12.8153 12.0942C12.8011 12.0879 12.7742 12.0881 12.7576 12.0921C12.7411 12.0961 12.7311 12.1165 12.7147 12.119C12.7024 12.1204 12.668 12.1283 12.6668 12.1267" stroke="black" stroke-width="0.01"/>
<path d="M12.688 12.3196C12.6746 12.3313 12.661 12.3422 12.648 12.3515C12.635 12.3608 12.6228 12.3684 12.6121 12.3739C12.6014 12.3794 12.5925 12.3827 12.5858 12.3835C12.5791 12.3843 12.5748 12.3827 12.5731 12.3788C12.5714 12.3748 12.5723 12.3686 12.5759 12.3604C12.5794 12.3523 12.5855 12.3424 12.5937 12.3313C12.602 12.3202 12.6123 12.3082 12.624 12.2958C12.6357 12.2835 12.6486 12.2711 12.662 12.2594C12.6753 12.2477 12.6889 12.2368 12.7019 12.2275C12.7149 12.2182 12.7271 12.2106 12.7378 12.2051C12.7485 12.1996 12.7574 12.1964 12.7641 12.1955C12.7708 12.1947 12.7751 12.1963 12.7768 12.2003C12.7785 12.2042 12.7776 12.2104 12.774 12.2186C12.7705 12.2267 12.7644 12.2366 12.7562 12.2477C12.7479 12.2588 12.7376 12.2708 12.7259 12.2832C12.7142 12.2955 12.7013 12.3079 12.688 12.3196Z" fill="#009B3A"/>
<path d="M12.688 12.3196C12.6746 12.3313 12.661 12.3422 12.648 12.3515C12.635 12.3608 12.6228 12.3684 12.6121 12.3739C12.6014 12.3794 12.5925 12.3827 12.5858 12.3835C12.5791 12.3843 12.5748 12.3827 12.5731 12.3788C12.5714 12.3748 12.5723 12.3686 12.5759 12.3604C12.5794 12.3523 12.5855 12.3424 12.5937 12.3313C12.602 12.3202 12.6123 12.3082 12.624 12.2958C12.6357 12.2835 12.6486 12.2711 12.662 12.2594C12.6753 12.2477 12.6889 12.2368 12.7019 12.2275C12.7149 12.2182 12.7271 12.2106 12.7378 12.2051C12.7485 12.1996 12.7574 12.1964 12.7641 12.1955C12.7708 12.1947 12.7751 12.1963 12.7768 12.2003C12.7785 12.2042 12.7776 12.2104 12.774 12.2186C12.7705 12.2267 12.7644 12.2366 12.7562 12.2477C12.7479 12.2588 12.7376 12.2708 12.7259 12.2832C12.7142 12.2955 12.7013 12.3079 12.688 12.3196" stroke="black" stroke-width="0.01"/>
<path d="M12.6678 12.2883C12.6564 12.3033 12.6446 12.3175 12.633 12.3302C12.6215 12.3428 12.6105 12.3536 12.6006 12.362C12.5908 12.3704 12.5823 12.3762 12.5756 12.3791C12.5689 12.3819 12.5641 12.3818 12.5616 12.3787C12.5591 12.3756 12.5589 12.3696 12.561 12.361C12.563 12.3524 12.5673 12.3415 12.5737 12.3287C12.58 12.3159 12.5882 12.3016 12.5978 12.2866C12.6074 12.2716 12.6182 12.2562 12.6297 12.2412C12.6411 12.2263 12.6529 12.2121 12.6645 12.1994C12.676 12.1868 12.687 12.1759 12.6969 12.1676C12.7067 12.1592 12.7152 12.1534 12.7219 12.1505C12.7286 12.1476 12.7334 12.1478 12.7359 12.1508C12.7384 12.1539 12.7386 12.16 12.7365 12.1685C12.7345 12.1771 12.7302 12.1881 12.7238 12.2009C12.7175 12.2137 12.7093 12.2279 12.6997 12.243C12.6901 12.258 12.6793 12.2734 12.6678 12.2883Z" fill="#009B3A"/>
<path d="M12.6678 12.2883C12.6564 12.3033 12.6446 12.3175 12.633 12.3302C12.6215 12.3428 12.6105 12.3536 12.6006 12.362C12.5908 12.3704 12.5823 12.3762 12.5756 12.3791C12.5689 12.3819 12.5641 12.3818 12.5616 12.3787C12.5591 12.3756 12.5589 12.3696 12.561 12.361C12.563 12.3524 12.5673 12.3415 12.5737 12.3287C12.58 12.3159 12.5882 12.3016 12.5978 12.2866C12.6074 12.2716 12.6182 12.2562 12.6297 12.2412C12.6411 12.2263 12.6529 12.2121 12.6645 12.1994C12.676 12.1868 12.687 12.1759 12.6969 12.1676C12.7067 12.1592 12.7152 12.1534 12.7219 12.1505C12.7286 12.1476 12.7334 12.1478 12.7359 12.1508C12.7384 12.1539 12.7386 12.16 12.7365 12.1685C12.7345 12.1771 12.7302 12.1881 12.7238 12.2009C12.7175 12.2137 12.7093 12.2279 12.6997 12.243C12.6901 12.258 12.6793 12.2734 12.6678 12.2883" stroke="black" stroke-width="0.01"/>
<path d="M12.579 12.225C12.5804 12.2431 12.5809 12.2614 12.5807 12.2787C12.5805 12.2961 12.5794 12.3122 12.5776 12.3262C12.5758 12.3401 12.5733 12.3516 12.5702 12.36C12.5671 12.3683 12.5635 12.3734 12.5596 12.375C12.5556 12.3765 12.5515 12.3744 12.5473 12.3689C12.5432 12.3633 12.5391 12.3544 12.5354 12.3426C12.5317 12.3308 12.5283 12.3164 12.5256 12.3002C12.5228 12.284 12.5207 12.2663 12.5194 12.2481C12.518 12.23 12.5174 12.2117 12.5176 12.1944C12.5179 12.177 12.5189 12.1609 12.5207 12.1469C12.5225 12.133 12.525 12.1215 12.5281 12.1131C12.5312 12.1048 12.5349 12.0997 12.5388 12.0981C12.5427 12.0966 12.5469 12.0987 12.551 12.1042C12.5552 12.1098 12.5592 12.1187 12.563 12.1305C12.5667 12.1423 12.57 12.1567 12.5728 12.1729C12.5755 12.1891 12.5776 12.2068 12.579 12.225Z" fill="#009B3A"/>
<path d="M12.579 12.225C12.5804 12.2431 12.5809 12.2614 12.5807 12.2787C12.5805 12.2961 12.5794 12.3122 12.5776 12.3262C12.5758 12.3401 12.5733 12.3516 12.5702 12.36C12.5671 12.3683 12.5635 12.3734 12.5596 12.375C12.5556 12.3765 12.5515 12.3744 12.5473 12.3689C12.5432 12.3633 12.5391 12.3544 12.5354 12.3426C12.5317 12.3308 12.5283 12.3164 12.5256 12.3002C12.5228 12.284 12.5207 12.2663 12.5194 12.2481C12.518 12.23 12.5174 12.2117 12.5176 12.1944C12.5179 12.177 12.5189 12.1609 12.5207 12.1469C12.5225 12.133 12.525 12.1215 12.5281 12.1131C12.5312 12.1048 12.5349 12.0997 12.5388 12.0981C12.5427 12.0966 12.5469 12.0987 12.551 12.1042C12.5552 12.1098 12.5592 12.1187 12.563 12.1305C12.5667 12.1423 12.57 12.1567 12.5728 12.1729C12.5755 12.1891 12.5776 12.2068 12.579 12.225" stroke="black" stroke-width="0.01"/>
<path d="M12.6152 12.2245C12.6077 12.2627 12.5975 12.2992 12.5868 12.3259C12.5761 12.3527 12.5658 12.3675 12.5582 12.3671C12.5505 12.3668 12.5461 12.3513 12.5459 12.324C12.5457 12.2968 12.5498 12.26 12.5572 12.2218C12.5609 12.2027 12.5653 12.1839 12.5702 12.1664C12.5751 12.1489 12.5803 12.133 12.5857 12.1197C12.591 12.1063 12.5963 12.0958 12.6012 12.0887C12.6062 12.0815 12.6107 12.078 12.6145 12.0781C12.6183 12.0783 12.6213 12.0822 12.6234 12.0897C12.6255 12.0972 12.6267 12.108 12.6267 12.1216C12.6268 12.1352 12.6258 12.1513 12.6238 12.1689C12.6219 12.1866 12.6189 12.2055 12.6152 12.2245Z" fill="#009B3A"/>
<path d="M12.6152 12.2245C12.6077 12.2627 12.5975 12.2992 12.5868 12.3259C12.5761 12.3527 12.5658 12.3675 12.5582 12.3671C12.5505 12.3668 12.5461 12.3513 12.5459 12.324C12.5457 12.2968 12.5498 12.26 12.5572 12.2218C12.5609 12.2027 12.5653 12.1839 12.5702 12.1664C12.5751 12.1489 12.5803 12.133 12.5857 12.1197C12.591 12.1063 12.5963 12.0958 12.6012 12.0887C12.6062 12.0815 12.6107 12.078 12.6145 12.0781C12.6183 12.0783 12.6213 12.0822 12.6234 12.0897C12.6255 12.0972 12.6267 12.108 12.6267 12.1216C12.6268 12.1352 12.6258 12.1513 12.6238 12.1689C12.6219 12.1866 12.6189 12.2055 12.6152 12.2245" stroke="black" stroke-width="0.01"/>
<path d="M12.644 12.2522C12.6368 12.2705 12.6289 12.2883 12.6209 12.3046C12.6129 12.321 12.6049 12.3355 12.5973 12.3474C12.5897 12.3594 12.5828 12.3684 12.5768 12.3741C12.5708 12.3797 12.566 12.3819 12.5625 12.3804C12.5591 12.379 12.5571 12.3739 12.5567 12.3656C12.5563 12.3572 12.5575 12.3458 12.5602 12.3318C12.5629 12.3178 12.5671 12.3017 12.5725 12.2842C12.5779 12.2668 12.5845 12.2484 12.5917 12.2302C12.599 12.2119 12.6068 12.1941 12.6149 12.1778C12.6229 12.1615 12.6309 12.1469 12.6385 12.135C12.6461 12.1231 12.653 12.114 12.659 12.1084C12.665 12.1027 12.6698 12.1005 12.6733 12.102C12.6767 12.1035 12.6787 12.1085 12.6791 12.1168C12.6795 12.1252 12.6783 12.1367 12.6756 12.1506C12.6728 12.1646 12.6687 12.1808 12.6632 12.1982C12.6578 12.2156 12.6513 12.234 12.644 12.2522Z" fill="#009B3A"/>
<path d="M12.644 12.2522C12.6368 12.2705 12.6289 12.2883 12.6209 12.3046C12.6129 12.321 12.6049 12.3355 12.5973 12.3474C12.5897 12.3594 12.5828 12.3684 12.5768 12.3741C12.5708 12.3797 12.566 12.3819 12.5625 12.3804C12.5591 12.379 12.5571 12.3739 12.5567 12.3656C12.5563 12.3572 12.5575 12.3458 12.5602 12.3318C12.5629 12.3178 12.5671 12.3017 12.5725 12.2842C12.5779 12.2668 12.5845 12.2484 12.5917 12.2302C12.599 12.2119 12.6068 12.1941 12.6149 12.1778C12.6229 12.1615 12.6309 12.1469 12.6385 12.135C12.6461 12.1231 12.653 12.114 12.659 12.1084C12.665 12.1027 12.6698 12.1005 12.6733 12.102C12.6767 12.1035 12.6787 12.1085 12.6791 12.1168C12.6795 12.1252 12.6783 12.1367 12.6756 12.1506C12.6728 12.1646 12.6687 12.1808 12.6632 12.1982C12.6578 12.2156 12.6513 12.234 12.644 12.2522" stroke="black" stroke-width="0.01"/>
<path d="M12.5597 12.3752C12.5594 12.376 12.5285 12.348 12.5229 12.341C12.5173 12.3339 12.5261 12.3161 12.5065 12.2976C12.487 12.2791 12.4609 12.2727 12.4472 12.2735C12.4335 12.2742 12.4327 12.2889 12.4556 12.3116C12.4785 12.3344 12.5013 12.3319 12.5141 12.3419C12.5269 12.352 12.5467 12.3697 12.5557 12.381C12.5691 12.381 12.6002 12.3876 12.6176 12.3903C12.635 12.3929 12.6715 12.4196 12.7033 12.4199C12.7298 12.4208 12.7472 12.4066 12.7336 12.3943C12.72 12.382 12.6903 12.3723 12.6708 12.3706C12.6513 12.3689 12.6337 12.3877 12.6148 12.3844C12.6009 12.3814 12.5605 12.3774 12.5597 12.3752" fill="#009B3A"/>
<path d="M12.5597 12.3752C12.5594 12.376 12.5285 12.348 12.5229 12.341C12.5173 12.3339 12.5261 12.3161 12.5065 12.2976C12.487 12.2791 12.4609 12.2727 12.4472 12.2735C12.4335 12.2742 12.4327 12.2889 12.4556 12.3116C12.4785 12.3344 12.5013 12.3319 12.5141 12.3419C12.5269 12.352 12.5467 12.3697 12.5557 12.381C12.5691 12.381 12.6002 12.3876 12.6176 12.3903C12.635 12.3929 12.6715 12.4196 12.7033 12.4199C12.7298 12.4208 12.7472 12.4066 12.7336 12.3943C12.72 12.382 12.6903 12.3723 12.6708 12.3706C12.6513 12.3689 12.6337 12.3877 12.6148 12.3844C12.6009 12.3814 12.5605 12.3774 12.5597 12.3752" stroke="black" stroke-width="0.01"/>
<path d="M12.5037 12.5569C12.4845 12.5602 12.4655 12.5625 12.4479 12.5637C12.4302 12.5649 12.4143 12.5649 12.401 12.5639C12.3876 12.5628 12.3772 12.5606 12.3702 12.5574C12.3633 12.5543 12.3599 12.5502 12.3604 12.5454C12.3609 12.5406 12.3651 12.5352 12.373 12.5295C12.3808 12.5239 12.392 12.518 12.406 12.5124C12.42 12.5067 12.4364 12.5013 12.4544 12.4965C12.4724 12.4916 12.4916 12.4875 12.5108 12.4843C12.5301 12.481 12.5491 12.4787 12.5667 12.4775C12.5843 12.4763 12.6003 12.4763 12.6136 12.4773C12.6269 12.4784 12.6374 12.4806 12.6443 12.4838C12.6513 12.4869 12.6546 12.491 12.6542 12.4958C12.6537 12.5006 12.6494 12.506 12.6416 12.5117C12.6338 12.5173 12.6226 12.5232 12.6086 12.5288C12.5946 12.5345 12.5781 12.5399 12.5601 12.5448C12.5421 12.5496 12.523 12.5537 12.5037 12.5569Z" fill="#009B3A" stroke="black" stroke-width="0.01"/>
<path d="M12.5015 12.5216C12.463 12.5367 12.4256 12.5476 12.3973 12.552C12.369 12.5563 12.3523 12.5537 12.3507 12.5448C12.3492 12.5358 12.3629 12.5213 12.389 12.5043C12.4151 12.4873 12.4514 12.4693 12.4898 12.4542C12.5282 12.4392 12.5657 12.4283 12.594 12.4239C12.6223 12.4196 12.639 12.4222 12.6406 12.4311C12.6421 12.4401 12.6283 12.4546 12.6022 12.4716C12.5762 12.4886 12.5399 12.5066 12.5015 12.5216Z" fill="#009B3A"/>
<path d="M12.5015 12.5216C12.463 12.5367 12.4256 12.5476 12.3973 12.552C12.369 12.5563 12.3523 12.5537 12.3507 12.5448C12.3492 12.5358 12.3629 12.5213 12.389 12.5043C12.4151 12.4873 12.4514 12.4693 12.4898 12.4542C12.5282 12.4392 12.5657 12.4283 12.594 12.4239C12.6223 12.4196 12.639 12.4222 12.6406 12.4311C12.6421 12.4401 12.6283 12.4546 12.6022 12.4716C12.5762 12.4886 12.5399 12.5066 12.5015 12.5216" stroke="black" stroke-width="0.01"/>
<path d="M12.4503 12.4017C12.4335 12.4381 12.4136 12.4723 12.3951 12.4968C12.3766 12.5213 12.361 12.534 12.3517 12.5323C12.3425 12.5305 12.3403 12.5144 12.3457 12.4874C12.351 12.4605 12.3635 12.4249 12.3804 12.3885C12.3888 12.3705 12.3979 12.3528 12.4074 12.3365C12.4169 12.3202 12.4265 12.3056 12.4356 12.2935C12.4448 12.2814 12.4533 12.272 12.4608 12.2659C12.4682 12.2598 12.4744 12.2571 12.479 12.258C12.4836 12.2588 12.4865 12.2632 12.4875 12.2709C12.4886 12.2786 12.4877 12.2895 12.4851 12.3028C12.4824 12.3162 12.478 12.3318 12.472 12.3487C12.466 12.3657 12.4587 12.3837 12.4503 12.4017Z" fill="#009B3A"/>
<path d="M12.4503 12.4017C12.4335 12.4381 12.4136 12.4723 12.3951 12.4968C12.3766 12.5213 12.361 12.534 12.3517 12.5323C12.3425 12.5305 12.3403 12.5144 12.3457 12.4874C12.351 12.4605 12.3635 12.4249 12.3804 12.3885C12.3888 12.3705 12.3979 12.3528 12.4074 12.3365C12.4169 12.3202 12.4265 12.3056 12.4356 12.2935C12.4448 12.2814 12.4533 12.272 12.4608 12.2659C12.4682 12.2598 12.4744 12.2571 12.479 12.258C12.4836 12.2588 12.4865 12.2632 12.4875 12.2709C12.4886 12.2786 12.4877 12.2895 12.4851 12.3028C12.4824 12.3162 12.478 12.3318 12.472 12.3487C12.466 12.3657 12.4587 12.3837 12.4503 12.4017" stroke="black" stroke-width="0.01"/>
<path d="M12.4857 12.4258C12.458 12.4578 12.4286 12.4866 12.4039 12.5058C12.3917 12.5153 12.381 12.5221 12.3725 12.5259C12.3639 12.5298 12.3577 12.5305 12.3541 12.5281C12.3469 12.5232 12.3509 12.5058 12.3654 12.4797C12.3798 12.4536 12.4035 12.4209 12.4312 12.3889C12.4449 12.373 12.4592 12.3578 12.4732 12.3441C12.4872 12.3303 12.5007 12.3184 12.513 12.3089C12.5376 12.2897 12.5556 12.2817 12.5628 12.2866C12.57 12.2914 12.566 12.3089 12.5515 12.335C12.537 12.3611 12.5134 12.3937 12.4857 12.4258Z" fill="#009B3A" stroke="black" stroke-width="0.01"/>
<path d="M12.4958 12.4758C12.4791 12.4889 12.4621 12.5011 12.4457 12.5119C12.4292 12.5226 12.4138 12.5317 12.4001 12.5385C12.3865 12.5453 12.375 12.5498 12.3662 12.5516C12.3575 12.5534 12.3517 12.5526 12.3491 12.5492C12.3466 12.5458 12.3474 12.5399 12.3514 12.5317C12.3555 12.5236 12.3627 12.5134 12.3728 12.5017C12.3828 12.4901 12.3954 12.4772 12.4099 12.4639C12.4244 12.4505 12.4404 12.4369 12.4572 12.4239C12.4908 12.3977 12.5251 12.3753 12.5525 12.3616C12.5799 12.3479 12.5982 12.3441 12.6033 12.351C12.6084 12.3579 12.6 12.3749 12.5798 12.3983C12.5597 12.4217 12.5295 12.4496 12.4958 12.4758Z" fill="#009B3A"/>
<path d="M12.4958 12.4758C12.4791 12.4889 12.4621 12.5011 12.4457 12.5119C12.4292 12.5226 12.4138 12.5317 12.4001 12.5385C12.3865 12.5453 12.375 12.5498 12.3662 12.5516C12.3575 12.5534 12.3517 12.5526 12.3491 12.5492C12.3466 12.5458 12.3474 12.5399 12.3514 12.5317C12.3555 12.5236 12.3627 12.5134 12.3728 12.5017C12.3828 12.4901 12.3954 12.4772 12.4099 12.4639C12.4244 12.4505 12.4404 12.4369 12.4572 12.4239C12.4908 12.3977 12.5251 12.3753 12.5525 12.3616C12.5799 12.3479 12.5982 12.3441 12.6033 12.351C12.6084 12.3579 12.6 12.3749 12.5798 12.3983C12.5597 12.4217 12.5295 12.4496 12.4958 12.4758" stroke="black" stroke-width="0.01"/>
<path d="M12.3511 12.5402C12.3504 12.5408 12.3355 12.4959 12.3339 12.4859C12.3322 12.4759 12.3502 12.4641 12.3413 12.435C12.3323 12.4058 12.3105 12.3844 12.2969 12.377C12.2832 12.3696 12.2746 12.383 12.2846 12.4182C12.2945 12.4534 12.3179 12.4645 12.3249 12.4816C12.3319 12.4988 12.3416 12.5274 12.3442 12.5434C12.3571 12.5514 12.3836 12.576 12.399 12.5888C12.4143 12.6017 12.4353 12.6485 12.4659 12.6677C12.491 12.6842 12.5154 12.681 12.5088 12.6613C12.5022 12.6416 12.4787 12.6147 12.4608 12.6016C12.4429 12.5884 12.4159 12.5959 12.3994 12.5817C12.3877 12.5705 12.3507 12.5428 12.3511 12.5402" fill="#009B3A"/>
<path d="M12.3511 12.5402C12.3504 12.5408 12.3355 12.4959 12.3339 12.4859C12.3322 12.4759 12.3502 12.4641 12.3413 12.435C12.3323 12.4058 12.3105 12.3844 12.2969 12.377C12.2832 12.3696 12.2746 12.383 12.2846 12.4182C12.2945 12.4534 12.3179 12.4645 12.3249 12.4816C12.3319 12.4988 12.3416 12.5274 12.3442 12.5434C12.3571 12.5514 12.3836 12.576 12.399 12.5888C12.4143 12.6017 12.4353 12.6485 12.4659 12.6677C12.491 12.6842 12.5154 12.681 12.5088 12.6613C12.5022 12.6416 12.4787 12.6147 12.4608 12.6016C12.4429 12.5884 12.4159 12.5959 12.3994 12.5817C12.3877 12.5705 12.3507 12.5428 12.3511 12.5402" stroke="black" stroke-width="0.01"/>
<path d="M12.2628 12.6976C12.2232 12.6981 12.1854 12.6939 12.1576 12.6861C12.1298 12.6783 12.1142 12.6674 12.1143 12.6557C12.1143 12.6441 12.1299 12.6327 12.1578 12.624C12.1857 12.6154 12.2235 12.6101 12.263 12.6094C12.3026 12.6089 12.3404 12.613 12.3682 12.6209C12.396 12.6287 12.4116 12.6396 12.4116 12.6513C12.4115 12.6629 12.3959 12.6743 12.368 12.6829C12.3402 12.6916 12.3023 12.6969 12.2628 12.6976Z" fill="#009B3A"/>
<path d="M12.2628 12.6976C12.2232 12.6981 12.1854 12.6939 12.1576 12.6861C12.1298 12.6783 12.1142 12.6674 12.1143 12.6557C12.1143 12.6441 12.1299 12.6327 12.1578 12.624C12.1857 12.6154 12.2235 12.6101 12.263 12.6094C12.3026 12.6089 12.3404 12.613 12.3682 12.6209C12.396 12.6287 12.4116 12.6396 12.4116 12.6513C12.4115 12.6629 12.3959 12.6743 12.368 12.6829C12.3402 12.6916 12.3023 12.6969 12.2628 12.6976" stroke="black" stroke-width="0.01"/>
<path d="M12.2436 12.5542C12.2184 12.5875 12.1908 12.6166 12.167 12.635C12.1432 12.6534 12.125 12.6597 12.1166 12.6524C12.1081 12.6452 12.11 12.625 12.1218 12.5963C12.1336 12.5676 12.1544 12.5328 12.1796 12.4996C12.1921 12.4831 12.2053 12.4675 12.2184 12.4536C12.2316 12.4397 12.2444 12.4279 12.2562 12.4188C12.268 12.4097 12.2785 12.4035 12.2872 12.4005C12.2958 12.3975 12.3024 12.3978 12.3066 12.4014C12.3108 12.405 12.3125 12.4118 12.3116 12.4214C12.3107 12.431 12.3073 12.4433 12.3014 12.4575C12.2956 12.4717 12.2874 12.4875 12.2775 12.5041C12.2676 12.5207 12.2561 12.5378 12.2436 12.5542Z" fill="#009B3A"/>
<path d="M12.2436 12.5542C12.2184 12.5875 12.1908 12.6166 12.167 12.635C12.1432 12.6534 12.125 12.6597 12.1166 12.6524C12.1081 12.6452 12.11 12.625 12.1218 12.5963C12.1336 12.5676 12.1544 12.5328 12.1796 12.4996C12.1921 12.4831 12.2053 12.4675 12.2184 12.4536C12.2316 12.4397 12.2444 12.4279 12.2562 12.4188C12.268 12.4097 12.2785 12.4035 12.2872 12.4005C12.2958 12.3975 12.3024 12.3978 12.3066 12.4014C12.3108 12.405 12.3125 12.4118 12.3116 12.4214C12.3107 12.431 12.3073 12.4433 12.3014 12.4575C12.2956 12.4717 12.2874 12.4875 12.2775 12.5041C12.2676 12.5207 12.2561 12.5378 12.2436 12.5542" stroke="black" stroke-width="0.01"/>
<path d="M12.2639 12.6301C12.2269 12.6464 12.1899 12.6577 12.1608 12.6616C12.1318 12.6655 12.1133 12.6617 12.1092 12.6509C12.1052 12.6401 12.116 12.6232 12.1393 12.6041C12.1626 12.5849 12.1965 12.565 12.2334 12.5487C12.2518 12.5406 12.2703 12.5336 12.288 12.5282C12.3057 12.5228 12.3222 12.519 12.3365 12.5171C12.3509 12.5152 12.3628 12.5151 12.3717 12.517C12.3805 12.5188 12.3861 12.5225 12.3881 12.5279C12.3901 12.5332 12.3885 12.5401 12.3833 12.5481C12.3782 12.5562 12.3696 12.5652 12.3581 12.5747C12.3465 12.5842 12.3323 12.5939 12.3161 12.6034C12.3 12.6129 12.2822 12.622 12.2639 12.6301Z" fill="#009B3A"/>
<path d="M12.2639 12.6301C12.2269 12.6464 12.1899 12.6577 12.1608 12.6616C12.1318 12.6655 12.1133 12.6617 12.1092 12.6509C12.1052 12.6401 12.116 12.6232 12.1393 12.6041C12.1626 12.5849 12.1965 12.565 12.2334 12.5487C12.2518 12.5406 12.2703 12.5336 12.288 12.5282C12.3057 12.5228 12.3222 12.519 12.3365 12.5171C12.3509 12.5152 12.3628 12.5151 12.3717 12.517C12.3805 12.5188 12.3861 12.5225 12.3881 12.5279C12.3901 12.5332 12.3885 12.5401 12.3833 12.5481C12.3782 12.5562 12.3696 12.5652 12.3581 12.5747C12.3465 12.5842 12.3323 12.5939 12.3161 12.6034C12.3 12.6129 12.2822 12.622 12.2639 12.6301" stroke="black" stroke-width="0.01"/>
<path d="M12.3051 11.293C12.3233 11.3099 12.3389 11.327 12.3485 11.3408C12.3581 11.3545 12.3609 11.3636 12.3562 11.3662C12.3515 11.3689 12.3398 11.3647 12.3236 11.3547C12.3074 11.3446 12.288 11.3296 12.2697 11.3128C12.2606 11.3044 12.252 11.2958 12.2445 11.2876C12.237 11.2794 12.2306 11.2716 12.2258 11.2647C12.221 11.2579 12.2179 11.2521 12.2165 11.2477C12.2152 11.2433 12.2157 11.2403 12.218 11.239C12.2204 11.2377 12.2245 11.2381 12.2301 11.2401C12.2358 11.2421 12.2428 11.2458 12.2509 11.2508C12.259 11.2558 12.2679 11.2621 12.2772 11.2694C12.2865 11.2766 12.296 11.2847 12.3051 11.293Z" fill="#009B3A"/>
<path d="M12.3051 11.293C12.3233 11.3099 12.3389 11.327 12.3485 11.3408C12.3581 11.3545 12.3609 11.3636 12.3562 11.3662C12.3515 11.3689 12.3398 11.3647 12.3236 11.3547C12.3074 11.3446 12.288 11.3296 12.2697 11.3128C12.2606 11.3044 12.252 11.2958 12.2445 11.2876C12.237 11.2794 12.2306 11.2716 12.2258 11.2647C12.221 11.2579 12.2179 11.2521 12.2165 11.2477C12.2152 11.2433 12.2157 11.2403 12.218 11.239C12.2204 11.2377 12.2245 11.2381 12.2301 11.2401C12.2358 11.2421 12.2428 11.2458 12.2509 11.2508C12.259 11.2558 12.2679 11.2621 12.2772 11.2694C12.2865 11.2766 12.296 11.2847 12.3051 11.293" stroke="black" stroke-width="0.01"/>
<path d="M12.2598 11.3317C12.2846 11.335 12.3087 11.3402 12.3269 11.3463C12.3451 11.3523 12.3558 11.3587 12.3568 11.3639C12.3577 11.3692 12.3488 11.3729 12.332 11.3743C12.3151 11.3757 12.2917 11.3746 12.267 11.3713C12.2547 11.3697 12.2425 11.3676 12.231 11.3651C12.2194 11.3626 12.2089 11.3597 12.1999 11.3567C12.1909 11.3537 12.1836 11.3506 12.1785 11.3476C12.1733 11.3446 12.1705 11.3417 12.17 11.3391C12.1695 11.3365 12.1715 11.3342 12.1757 11.3325C12.18 11.3307 12.1865 11.3294 12.1948 11.3287C12.2031 11.328 12.2132 11.3279 12.2243 11.3284C12.2355 11.329 12.2475 11.3301 12.2598 11.3317Z" fill="#009B3A"/>
<path d="M12.2598 11.3317C12.2846 11.335 12.3087 11.3402 12.3269 11.3463C12.3451 11.3523 12.3558 11.3587 12.3568 11.3639C12.3577 11.3692 12.3488 11.3729 12.332 11.3743C12.3151 11.3757 12.2917 11.3746 12.267 11.3713C12.2547 11.3697 12.2425 11.3676 12.231 11.3651C12.2194 11.3626 12.2089 11.3597 12.1999 11.3567C12.1909 11.3537 12.1836 11.3506 12.1785 11.3476C12.1733 11.3446 12.1705 11.3417 12.17 11.3391C12.1695 11.3365 12.1715 11.3342 12.1757 11.3325C12.18 11.3307 12.1865 11.3294 12.1948 11.3287C12.2031 11.328 12.2132 11.3279 12.2243 11.3284C12.2355 11.329 12.2475 11.3301 12.2598 11.3317" stroke="black" stroke-width="0.01"/>
<path d="M12.2775 11.3062C12.3008 11.3183 12.3222 11.3316 12.337 11.3431C12.3517 11.3546 12.3586 11.3634 12.3561 11.3676C12.3536 11.3717 12.342 11.3709 12.3237 11.3653C12.3055 11.3596 12.2821 11.3496 12.2588 11.3375C12.2355 11.3253 12.2141 11.312 12.1993 11.3005C12.1846 11.289 12.1777 11.2802 12.1802 11.276C12.1827 11.2719 12.1943 11.2727 12.2126 11.2784C12.2308 11.284 12.2542 11.294 12.2775 11.3062Z" fill="#009B3A"/>
<path d="M12.2775 11.3062C12.3008 11.3183 12.3222 11.3316 12.337 11.3431C12.3517 11.3546 12.3586 11.3634 12.3561 11.3676C12.3536 11.3717 12.342 11.3709 12.3237 11.3653C12.3055 11.3596 12.2821 11.3496 12.2588 11.3375C12.2355 11.3253 12.2141 11.312 12.1993 11.3005C12.1846 11.289 12.1777 11.2802 12.1802 11.276C12.1827 11.2719 12.1943 11.2727 12.2126 11.2784C12.2308 11.284 12.2542 11.294 12.2775 11.3062" stroke="black" stroke-width="0.01"/>
<path d="M11.6016 12.5439C11.6016 12.5439 11.7273 12.5715 11.8366 12.6121C11.9459 12.6528 12.1119 12.7922 12.1566 12.8001C12.2066 12.8024 12.2761 12.785 12.3024 12.711C12.2253 12.7321 12.1791 12.764 12.1055 12.7226C12.0795 12.7126 11.9943 12.6333 11.9009 12.5908C11.8076 12.5484 11.6193 12.5 11.6193 12.5L11.6016 12.5439" fill="#009B3A"/>
<path d="M11.6016 12.5439C11.6016 12.5439 11.7273 12.5715 11.8366 12.6121C11.9459 12.6528 12.1119 12.7922 12.1566 12.8001C12.2066 12.8024 12.2761 12.785 12.3024 12.711C12.2253 12.7321 12.1791 12.764 12.1055 12.7226C12.0795 12.7126 11.9943 12.6333 11.9009 12.5908C11.8076 12.5484 11.6193 12.5 11.6193 12.5L11.6016 12.5439" stroke="black" stroke-width="0.01"/>
<path d="M11.7356 11.3828C11.7351 11.3817 11.8803 11.3047 11.8803 11.3047L11.7207 11.3464L11.7021 11.3751L11.7356 11.3828" fill="#009B3A"/>
<path d="M11.7356 11.3828C11.7351 11.3817 11.8803 11.3047 11.8803 11.3047L11.7207 11.3464L11.7021 11.3751L11.7356 11.3828" stroke="black" stroke-width="0.01"/>
<path d="M11.8728 11.417C11.8168 11.4066 11.7306 11.3873 11.6758 11.3828C11.7137 11.3399 11.766 11.2672 11.7982 11.2227C11.7769 11.2652 11.7435 11.3213 11.7303 11.362C11.769 11.3833 11.8297 11.4 11.8728 11.417" fill="#009B3A"/>
<path d="M11.8728 11.417C11.8168 11.4066 11.7306 11.3873 11.6758 11.3828C11.7137 11.3399 11.766 11.2672 11.7982 11.2227C11.7769 11.2652 11.7435 11.3213 11.7303 11.362C11.769 11.3833 11.8297 11.4 11.8728 11.417" stroke="black" stroke-width="0.01"/>
<path d="M11.7098 11.3909C11.7092 11.3899 11.8384 11.2891 11.8384 11.2891L11.6891 11.3574L11.6758 11.389L11.7098 11.3909" fill="#009B3A"/>
<path d="M11.7098 11.3909C11.7092 11.3899 11.8384 11.2891 11.8384 11.2891L11.6891 11.3574L11.6758 11.389L11.7098 11.3909" stroke="black" stroke-width="0.01"/>
<path d="M11.8468 11.4199C11.7904 11.4089 11.7036 11.3887 11.6484 11.3838C11.6857 11.3396 11.7368 11.2647 11.7683 11.2188C11.7477 11.2626 11.7153 11.3204 11.7028 11.3625C11.7419 11.3846 11.8032 11.4021 11.8468 11.4199" fill="#009B3A"/>
<path d="M11.8468 11.4199C11.7904 11.4089 11.7036 11.3887 11.6484 11.3838C11.6857 11.3396 11.7368 11.2647 11.7683 11.2188C11.7477 11.2626 11.7153 11.3204 11.7028 11.3625C11.7419 11.3846 11.8032 11.4021 11.8468 11.4199" stroke="black" stroke-width="0.01"/>
<path d="M11.688 11.4008C11.6876 11.3997 11.8394 11.3359 11.8394 11.3359L11.6763 11.3634L11.6553 11.3903L11.688 11.4008" fill="#009B3A"/>
<path d="M11.688 11.4008C11.6876 11.3997 11.8394 11.3359 11.8394 11.3359L11.6763 11.3634L11.6553 11.3903L11.688 11.4008" stroke="black" stroke-width="0.01"/>
<path d="M11.8293 11.4183C11.7722 11.4135 11.684 11.4026 11.6289 11.4038C11.6607 11.3547 11.7026 11.2729 11.7284 11.2227C11.7132 11.2695 11.6877 11.3319 11.6802 11.376C11.7215 11.3942 11.7841 11.4051 11.8293 11.4183" fill="#009B3A"/>
<path d="M11.8293 11.4183C11.7722 11.4135 11.684 11.4026 11.6289 11.4038C11.6607 11.3547 11.7026 11.2729 11.7284 11.2227C11.7132 11.2695 11.6877 11.3319 11.6802 11.376C11.7215 11.3942 11.7841 11.4051 11.8293 11.4183" stroke="black" stroke-width="0.01"/>
<path d="M11.6721 11.4013C11.6713 11.4004 11.7747 11.2734 11.7747 11.2734L11.6447 11.3728L11.6387 11.4068L11.6721 11.4013" fill="#009B3A"/>
<path d="M11.6721 11.4013C11.6713 11.4004 11.7747 11.2734 11.7747 11.2734L11.6447 11.3728L11.6387 11.4068L11.6721 11.4013" stroke="black" stroke-width="0.01"/>
<path d="M11.8287 11.4289C11.7675 11.4278 11.6727 11.4222 11.6143 11.4276C11.6432 11.3716 11.6797 11.2793 11.7022 11.2227C11.6906 11.2749 11.6697 11.3449 11.6661 11.3935C11.7117 11.4104 11.7793 11.4178 11.8287 11.4289" fill="#009B3A"/>
<path d="M11.8287 11.4289C11.7675 11.4278 11.6727 11.4222 11.6143 11.4276C11.6432 11.3716 11.6797 11.2793 11.7022 11.2227C11.6906 11.2749 11.6697 11.3449 11.6661 11.3935C11.7117 11.4104 11.7793 11.4178 11.8287 11.4289" stroke="black" stroke-width="0.01"/>
<path d="M11.6517 11.4348C11.6509 11.4336 11.7763 11.3125 11.7763 11.3125L11.6256 11.3978L11.6152 11.4343L11.6517 11.4348" fill="#009B3A"/>
<path d="M11.6517 11.4348C11.6509 11.4336 11.7763 11.3125 11.7763 11.3125L11.6256 11.3978L11.6152 11.4343L11.6517 11.4348" stroke="black" stroke-width="0.01"/>
<path d="M11.8013 11.431C11.7356 11.4313 11.6344 11.4277 11.5703 11.435C11.6128 11.3727 11.6709 11.27 11.7067 11.207C11.6836 11.2649 11.6469 11.3425 11.6331 11.3962C11.6789 11.4136 11.7503 11.42 11.8013 11.431" fill="#009B3A"/>
<path d="M11.8013 11.431C11.7356 11.4313 11.6344 11.4277 11.5703 11.435C11.6128 11.3727 11.6709 11.27 11.7067 11.207C11.6836 11.2649 11.6469 11.3425 11.6331 11.3962C11.6789 11.4136 11.7503 11.42 11.8013 11.431" stroke="black" stroke-width="0.01"/>
<path d="M11.6096 11.4386C11.609 11.4374 11.7687 11.3008 11.7687 11.3008L11.5889 11.3986L11.5703 11.4391L11.6096 11.4386" fill="#009B3A"/>
<path d="M11.6096 11.4386C11.609 11.4374 11.7687 11.3008 11.7687 11.3008L11.5889 11.3986L11.5703 11.4391L11.6096 11.4386" stroke="black" stroke-width="0.01"/>
<path d="M11.7781 11.4315C11.7131 11.4411 11.6123 11.4519 11.5498 11.4682C11.5832 11.4014 11.6264 11.2931 11.653 11.2266C11.6382 11.2863 11.6127 11.3671 11.6066 11.4214C11.6544 11.4319 11.7261 11.428 11.7781 11.4315" fill="#009B3A"/>
<path d="M11.7781 11.4315C11.7131 11.4411 11.6123 11.4519 11.5498 11.4682C11.5832 11.4014 11.6264 11.2931 11.653 11.2266C11.6382 11.2863 11.6127 11.3671 11.6066 11.4214C11.6544 11.4319 11.7261 11.428 11.7781 11.4315" stroke="black" stroke-width="0.01"/>
<path d="M11.5884 11.4706C11.5875 11.4696 11.711 11.2969 11.711 11.2969L11.558 11.4384L11.5498 11.4817L11.5884 11.4706" fill="#009B3A"/>
<path d="M11.5884 11.4706C11.5875 11.4696 11.711 11.2969 11.711 11.2969L11.558 11.4384L11.5498 11.4817L11.5884 11.4706" stroke="black" stroke-width="0.01"/>
<path d="M11.7418 11.4532C11.6763 11.4594 11.575 11.4651 11.5117 11.4781C11.5488 11.4131 11.5978 11.3072 11.6281 11.2422C11.61 11.301 11.5801 11.3804 11.571 11.4344C11.6182 11.4472 11.69 11.4471 11.7418 11.4532" fill="#009B3A"/>
<path d="M11.7418 11.4532C11.6763 11.4594 11.575 11.4651 11.5117 11.4781C11.5488 11.4131 11.5978 11.3072 11.6281 11.2422C11.61 11.301 11.5801 11.3804 11.571 11.4344C11.6182 11.4472 11.69 11.4471 11.7418 11.4532" stroke="black" stroke-width="0.01"/>
<path d="M11.5663 11.4858C11.5656 11.4846 11.7223 11.3477 11.7223 11.3477L11.5452 11.4453L11.5273 11.486L11.5663 11.4858" fill="#009B3A"/>
<path d="M11.5663 11.4858C11.5656 11.4846 11.7223 11.3477 11.7223 11.3477L11.5452 11.4453L11.5273 11.486L11.5663 11.4858" stroke="black" stroke-width="0.01"/>
<path d="M11.7232 11.4626C11.6579 11.4767 11.5565 11.4945 11.4941 11.515C11.5247 11.4468 11.563 11.337 11.5867 11.2695C11.5747 11.3294 11.5528 11.4109 11.5493 11.4649C11.5981 11.4718 11.6704 11.4629 11.7232 11.4626" fill="#009B3A"/>
<path d="M11.7232 11.4626C11.6579 11.4767 11.5565 11.4945 11.4941 11.515C11.5247 11.4468 11.563 11.337 11.5867 11.2695C11.5747 11.3294 11.5528 11.4109 11.5493 11.4649C11.5981 11.4718 11.6704 11.4629 11.7232 11.4626" stroke="black" stroke-width="0.01"/>
<path d="M11.5404 11.494C11.5393 11.4933 11.6401 11.3047 11.6401 11.3047L11.5052 11.4684L11.5029 11.5117L11.5404 11.494" fill="#009B3A"/>
<path d="M11.5404 11.494C11.5393 11.4933 11.6401 11.3047 11.6401 11.3047L11.5052 11.4684L11.5029 11.5117L11.5404 11.494" stroke="black" stroke-width="0.01"/>
<path d="M11.7229 11.4752C11.6528 11.4939 11.5436 11.5183 11.4775 11.544C11.5029 11.4664 11.532 11.342 11.5499 11.2656C11.5438 11.3331 11.5296 11.4251 11.5321 11.4855C11.5866 11.4911 11.665 11.4779 11.7229 11.4752" fill="#009B3A"/>
<path d="M11.7229 11.4752C11.6528 11.4939 11.5436 11.5183 11.4775 11.544C11.5029 11.4664 11.532 11.342 11.5499 11.2656C11.5438 11.3331 11.5296 11.4251 11.5321 11.4855C11.5866 11.4911 11.665 11.4779 11.7229 11.4752" stroke="black" stroke-width="0.01"/>
<path d="M11.5213 11.5374C11.5202 11.5363 11.6469 11.3477 11.6469 11.3477L11.4863 11.501L11.4795 11.5489L11.5213 11.5374" fill="#009B3A"/>
<path d="M11.5213 11.5374C11.5202 11.5363 11.6469 11.3477 11.6469 11.3477L11.4863 11.501L11.4795 11.5489L11.5213 11.5374" stroke="black" stroke-width="0.01"/>
<path d="M11.6952 11.4944C11.6263 11.5167 11.5187 11.5469 11.4541 11.5759C11.4758 11.4979 11.499 11.3734 11.5134 11.2969C11.5105 11.3639 11.5004 11.4556 11.5057 11.5152C11.5603 11.5176 11.6376 11.5003 11.6952 11.4945" fill="#009B3A"/>
<path d="M11.6952 11.4944C11.6263 11.5167 11.5187 11.5469 11.4541 11.5759C11.4758 11.4979 11.499 11.3734 11.5134 11.2969C11.5105 11.3639 11.5004 11.4556 11.5057 11.5152C11.5603 11.5176 11.6376 11.5003 11.6952 11.4945" stroke="black" stroke-width="0.01"/>
<path d="M11.4963 11.561C11.4951 11.5602 11.5918 11.3516 11.5918 11.3516L11.4561 11.532L11.4567 11.5801L11.4963 11.561" fill="#009B3A"/>
<path d="M11.4963 11.561C11.4951 11.5602 11.5918 11.3516 11.5918 11.3516L11.4561 11.532L11.4567 11.5801L11.4963 11.561" stroke="black" stroke-width="0.01"/>
<path d="M11.6691 11.5246C11.5986 11.5411 11.4888 11.5622 11.4219 11.5857C11.4504 11.5097 11.4846 11.3875 11.5057 11.3125C11.4968 11.379 11.4787 11.4696 11.4787 11.5295C11.5327 11.5365 11.6113 11.5256 11.6691 11.5246" fill="#009B3A"/>
<path d="M11.6691 11.5246C11.5986 11.5411 11.4888 11.5622 11.4219 11.5857C11.4504 11.5097 11.4846 11.3875 11.5057 11.3125C11.4968 11.379 11.4787 11.4696 11.4787 11.5295C11.5327 11.5365 11.6113 11.5256 11.6691 11.5246" stroke="black" stroke-width="0.01"/>
<path d="M11.4736 11.5858C11.4727 11.5845 11.6296 11.4219 11.6296 11.4219L11.4456 11.5433L11.4307 11.5893L11.4736 11.5858" fill="#009B3A"/>
<path d="M11.4736 11.5858C11.4727 11.5845 11.6296 11.4219 11.6296 11.4219L11.4456 11.5433L11.4307 11.5893L11.4736 11.5858" stroke="black" stroke-width="0.01"/>
<path d="M11.6377 11.5528C11.5678 11.5624 11.4593 11.5727 11.3926 11.5899C11.425 11.5154 11.4658 11.3946 11.4909 11.3203C11.4782 11.3871 11.455 11.4775 11.4514 11.5384C11.5038 11.551 11.5812 11.5479 11.6377 11.5528" fill="#009B3A"/>
<path d="M11.6377 11.5528C11.5678 11.5624 11.4593 11.5727 11.3926 11.5899C11.425 11.5154 11.4658 11.3946 11.4909 11.3203C11.4782 11.3871 11.455 11.4775 11.4514 11.5384C11.5038 11.551 11.5812 11.5479 11.6377 11.5528" stroke="black" stroke-width="0.01"/>
<path d="M11.4424 11.5684C11.4413 11.5674 11.5486 11.3633 11.5486 11.3633L11.4046 11.5359L11.4023 11.5848L11.4424 11.5684" fill="#009B3A"/>
<path d="M11.4424 11.5684C11.4413 11.5674 11.5486 11.3633 11.5486 11.3633L11.4046 11.5359L11.4023 11.5848L11.4424 11.5684" stroke="black" stroke-width="0.01"/>
<path d="M11.6459 11.5293C11.5699 11.5612 11.4511 11.6056 11.3799 11.6448C11.4032 11.5525 11.4279 11.4063 11.4431 11.3164C11.4404 11.3943 11.4301 11.5014 11.4365 11.5699C11.4968 11.568 11.5822 11.5411 11.6459 11.5293" fill="#009B3A"/>
<path d="M11.6459 11.5293C11.5699 11.5612 11.4511 11.6056 11.3799 11.6448C11.4032 11.5525 11.4279 11.4063 11.4431 11.3164C11.4404 11.3943 11.4301 11.5014 11.4365 11.5699C11.4968 11.568 11.5822 11.5411 11.6459 11.5293" stroke="black" stroke-width="0.01"/>
<path d="M11.4281 11.6299C11.4269 11.6288 11.5552 11.3945 11.5552 11.3945L11.3874 11.5937L11.3828 11.6493L11.4281 11.6299" fill="#009B3A"/>
<path d="M11.4281 11.6299C11.4269 11.6288 11.5552 11.3945 11.5552 11.3945L11.3874 11.5937L11.3828 11.6493L11.4281 11.6299" stroke="black" stroke-width="0.01"/>
<path d="M11.6169 11.5573C11.5424 11.5931 11.4258 11.6437 11.3564 11.6866C11.3757 11.5943 11.394 11.4488 11.4053 11.3594C11.4059 11.4362 11.4003 11.5423 11.4097 11.6095C11.4698 11.6041 11.5539 11.5726 11.6169 11.5573" fill="#009B3A"/>
<path d="M11.6169 11.5573C11.5424 11.5931 11.4258 11.6437 11.3564 11.6866C11.3757 11.5943 11.394 11.4488 11.4053 11.3594C11.4059 11.4362 11.4003 11.5423 11.4097 11.6095C11.4698 11.6041 11.5539 11.5726 11.6169 11.5573" stroke="black" stroke-width="0.01"/>
<path d="M11.4015 11.6635C11.4001 11.6627 11.4942 11.4102 11.4942 11.4102L11.3555 11.6364L11.359 11.6913L11.4015 11.6635" fill="#009B3A"/>
<path d="M11.4015 11.6635C11.4001 11.6627 11.4942 11.4102 11.4942 11.4102L11.3555 11.6364L11.359 11.6913L11.4015 11.6635" stroke="black" stroke-width="0.01"/>
<path d="M11.5841 11.5788C11.5097 11.6152 11.3934 11.6668 11.3242 11.7102C11.3429 11.6178 11.3603 11.4723 11.371 11.3828C11.3722 11.4596 11.3672 11.5657 11.377 11.6327C11.4372 11.6268 11.5211 11.5947 11.5841 11.5788Z" fill="#009B3A" stroke="black" stroke-width="0.01"/>
<path d="M11.3802 11.696C11.3791 11.6948 11.5237 11.4727 11.5237 11.4727L11.3428 11.6555L11.334 11.7109L11.3802 11.696" fill="#009B3A"/>
<path d="M11.3802 11.696C11.3791 11.6948 11.5237 11.4727 11.5237 11.4727L11.3428 11.6555L11.334 11.7109L11.3802 11.696" stroke="black" stroke-width="0.01"/>
<path d="M11.5777 11.5698C11.5114 11.6239 11.4066 11.7034 11.3468 11.7629C11.3467 11.6696 11.3345 11.5259 11.3271 11.4375C11.3438 11.5107 11.3603 11.6135 11.3835 11.6751C11.4419 11.6538 11.5185 11.6013 11.5777 11.5698" fill="#009B3A"/>
<path d="M11.5777 11.5698C11.5114 11.6239 11.4066 11.7034 11.3468 11.7629C11.3467 11.6696 11.3345 11.5259 11.3271 11.4375C11.3438 11.5107 11.3603 11.6135 11.3835 11.6751C11.4419 11.6538 11.5185 11.6013 11.5777 11.5698" stroke="black" stroke-width="0.01"/>
<path d="M11.3875 11.7091C11.3859 11.7089 11.4041 11.4414 11.4041 11.4414L11.335 11.7017L11.3542 11.7507L11.3875 11.7091" fill="#009B3A"/>
<path d="M11.3875 11.7091C11.3859 11.7089 11.4041 11.4414 11.4041 11.4414L11.335 11.7017L11.3542 11.7507L11.3875 11.7091" stroke="black" stroke-width="0.01"/>
<path d="M11.5585 11.5908C11.492 11.6446 11.3869 11.7235 11.3269 11.7827C11.3272 11.6894 11.3156 11.5455 11.3086 11.457C11.3249 11.5303 11.341 11.6333 11.3639 11.695C11.4224 11.6741 11.4992 11.622 11.5585 11.5908" fill="#009B3A"/>
<path d="M11.5585 11.5908C11.492 11.6446 11.3869 11.7235 11.3269 11.7827C11.3272 11.6894 11.3156 11.5455 11.3086 11.457C11.3249 11.5303 11.341 11.6333 11.3639 11.695C11.4224 11.6741 11.4992 11.622 11.5585 11.5908" stroke="black" stroke-width="0.01"/>
<path d="M11.3711 11.7498C11.3696 11.7492 11.4379 11.4883 11.4379 11.4883L11.3223 11.7288L11.3314 11.7825L11.3711 11.7498" fill="#009B3A"/>
<path d="M11.3711 11.7498C11.3696 11.7492 11.4379 11.4883 11.4379 11.4883L11.3223 11.7288L11.3314 11.7825L11.3711 11.7498" stroke="black" stroke-width="0.01"/>
<path d="M11.551 11.5948C11.4882 11.658 11.3882 11.7519 11.3327 11.8199C11.3228 11.7242 11.2952 11.5781 11.2783 11.4883C11.3031 11.5614 11.3309 11.665 11.3613 11.7255C11.4194 11.6968 11.4931 11.634 11.551 11.5948" fill="#009B3A"/>
<path d="M11.551 11.5948C11.4882 11.658 11.3882 11.7519 11.3327 11.8199C11.3228 11.7242 11.2952 11.5781 11.2783 11.4883C11.3031 11.5614 11.3309 11.665 11.3613 11.7255C11.4194 11.6968 11.4931 11.634 11.551 11.5948" stroke="black" stroke-width="0.01"/>
<path d="M11.3717 11.786C11.37 11.7857 11.3842 11.5078 11.3842 11.5078L11.3174 11.7781L11.3381 11.8291L11.3717 11.786" fill="#009B3A"/>
<path d="M11.3717 11.786C11.37 11.7857 11.3842 11.5078 11.3842 11.5078L11.3174 11.7781L11.3381 11.8291L11.3717 11.786" stroke="black" stroke-width="0.01"/>
<path d="M11.5309 11.643C11.4637 11.6998 11.3572 11.7834 11.2968 11.8457C11.2947 11.7488 11.279 11.5996 11.2695 11.5078C11.2883 11.5837 11.3075 11.6904 11.3328 11.7542C11.3925 11.7315 11.4705 11.6763 11.5309 11.643" fill="#009B3A"/>
<path d="M11.5309 11.643C11.4637 11.6998 11.3572 11.7834 11.2968 11.8457C11.2947 11.7488 11.279 11.5996 11.2695 11.5078C11.2883 11.5837 11.3075 11.6904 11.3328 11.7542C11.3925 11.7315 11.4705 11.6763 11.5309 11.643" stroke="black" stroke-width="0.01"/>
<path d="M11.352 11.8163C11.3506 11.8154 11.4467 11.5547 11.4467 11.5547L11.3047 11.7865L11.3084 11.8439L11.352 11.8163" fill="#009B3A"/>
<path d="M11.352 11.8163C11.3506 11.8154 11.4467 11.5547 11.4467 11.5547L11.3047 11.7865L11.3084 11.8439L11.352 11.8163" stroke="black" stroke-width="0.01"/>
<path d="M11.53 11.6423C11.4705 11.7066 11.3758 11.8021 11.3232 11.8713C11.3138 11.7742 11.2875 11.6262 11.2715 11.5352C11.2951 11.6093 11.3215 11.7142 11.3503 11.7754C11.4054 11.7462 11.4752 11.6823 11.53 11.6423" fill="#009B3A"/>
<path d="M11.53 11.6423C11.4705 11.7066 11.3758 11.8021 11.3232 11.8713C11.3138 11.7742 11.2875 11.6262 11.2715 11.5352C11.2951 11.6093 11.3215 11.7142 11.3503 11.7754C11.4054 11.7462 11.4752 11.6823 11.53 11.6423" stroke="black" stroke-width="0.01"/>
<path d="M11.3548 11.8313C11.3531 11.8313 11.3436 11.5547 11.3436 11.5547L11.2998 11.8302L11.3249 11.8781L11.3548 11.8313" fill="#009B3A"/>
<path d="M11.3548 11.8313C11.3531 11.8313 11.3436 11.5547 11.3436 11.5547L11.2998 11.8302L11.3249 11.8781L11.3548 11.8313" stroke="black" stroke-width="0.01"/>
<path d="M11.5005 11.6676C11.4429 11.7325 11.3511 11.8289 11.3006 11.8985C11.2884 11.8015 11.2579 11.6535 11.2393 11.5625C11.2649 11.6365 11.2943 11.7413 11.3249 11.8024C11.379 11.7726 11.4469 11.708 11.5005 11.6676" fill="#009B3A"/>
<path d="M11.5005 11.6676C11.4429 11.7325 11.3511 11.8289 11.3006 11.8985C11.2884 11.8015 11.2579 11.6535 11.2393 11.5625C11.2649 11.6365 11.2943 11.7413 11.3249 11.8024C11.379 11.7726 11.4469 11.708 11.5005 11.6676" stroke="black" stroke-width="0.01"/>
<path d="M11.3394 11.8591C11.3379 11.8587 11.3696 11.5781 11.3696 11.5781L11.2891 11.8439L11.3051 11.8985L11.3394 11.8591" fill="#009B3A"/>
<path d="M11.3394 11.8591C11.3379 11.8587 11.3696 11.5781 11.3696 11.5781L11.2891 11.8439L11.3051 11.8985L11.3394 11.8591" stroke="black" stroke-width="0.01"/>
<path d="M11.4882 11.6761C11.4356 11.7464 11.3511 11.8515 11.3059 11.9258C11.2865 11.8305 11.2451 11.6863 11.2197 11.5977C11.2508 11.6687 11.288 11.77 11.323 11.8277C11.3748 11.7927 11.4378 11.7217 11.4882 11.6761Z" fill="#009B3A" stroke="black" stroke-width="0.01"/>
<path d="M11.3392 11.8829C11.3376 11.8828 11.3217 11.6016 11.3217 11.6016L11.2871 11.8807L11.3121 11.9298L11.3392 11.8829Z" fill="#009B3A"/>
<path d="M11.3392 11.8829C11.3376 11.8828 11.3217 11.6016 11.3217 11.6016L11.2871 11.8807L11.3121 11.9298L11.3392 11.8829" stroke="black" stroke-width="0.01"/>
<path d="M11.4826 11.6935C11.4333 11.7671 11.3535 11.8774 11.3118 11.9547C11.2876 11.8597 11.2388 11.7168 11.209 11.6289C11.2438 11.6988 11.2861 11.7988 11.3241 11.855C11.3745 11.817 11.4342 11.7421 11.4826 11.6935" fill="#009B3A"/>
<path d="M11.4826 11.6935C11.4333 11.7671 11.3535 11.8774 11.3118 11.9547C11.2876 11.8597 11.2388 11.7168 11.209 11.6289C11.2438 11.6988 11.2861 11.7988 11.3241 11.855C11.3745 11.817 11.4342 11.7421 11.4826 11.6935" stroke="black" stroke-width="0.01"/>
<path d="M11.3554 11.9115C11.3539 11.911 11.3834 11.6289 11.3834 11.6289L11.3047 11.8945L11.3213 11.9501L11.3555 11.9115" fill="#009B3A"/>
<path d="M11.3554 11.9115C11.3539 11.911 11.3834 11.6289 11.3834 11.6289L11.3047 11.8945L11.3213 11.9501L11.3555 11.9115" stroke="black" stroke-width="0.01"/>
<path d="M11.4728 11.7167C11.4302 11.7969 11.3608 11.9179 11.3261 12.0007C11.2937 11.9097 11.2327 11.7746 11.1953 11.6914C11.236 11.7559 11.2868 11.8493 11.3296 11.8998C11.3762 11.8549 11.429 11.7719 11.4728 11.7167Z" fill="#009B3A"/>
<path d="M11.4728 11.7167C11.4302 11.7969 11.3608 11.9179 11.3261 12.0007C11.2937 11.9097 11.2327 11.7746 11.1953 11.6914C11.236 11.7559 11.2868 11.8493 11.3296 11.8998C11.3762 11.8549 11.429 11.7719 11.4728 11.7167" stroke="black" stroke-width="0.01"/>
<path d="M11.3458 11.9321C11.3442 11.9325 11.2686 11.6641 11.2686 11.6641L11.2947 11.9466L11.3294 11.9864L11.3458 11.9321" fill="#009B3A"/>
<path d="M11.3458 11.9321C11.3442 11.9325 11.2686 11.6641 11.2686 11.6641L11.2947 11.9466L11.3294 11.9864L11.3458 11.9321" stroke="black" stroke-width="0.01"/>
<path d="M11.4715 11.7479C11.4271 11.8279 11.3548 11.9485 11.3185 12.031C11.286 11.9403 11.2243 11.8056 11.1865 11.7227C11.2278 11.787 11.2793 11.8801 11.3229 11.9305C11.3712 11.8857 11.426 11.8029 11.4715 11.7479" fill="#009B3A"/>
<path d="M11.4715 11.7479C11.4271 11.8279 11.3548 11.9485 11.3185 12.031C11.286 11.9403 11.2243 11.8056 11.1865 11.7227C11.2278 11.787 11.2793 11.8801 11.3229 11.9305C11.3712 11.8857 11.426 11.8029 11.4715 11.7479" stroke="black" stroke-width="0.01"/>
<path d="M11.3498 11.9849C11.3481 11.9849 11.3214 11.7031 11.3214 11.7031L11.2959 11.985L11.3235 12.0333L11.3498 11.9849" fill="#009B3A"/>
<path d="M11.3498 11.9849C11.3481 11.9849 11.3214 11.7031 11.3214 11.7031L11.2959 11.985L11.3235 12.0333L11.3498 11.9849" stroke="black" stroke-width="0.01"/>
<path d="M11.4759 11.7743C11.4303 11.8532 11.3561 11.9721 11.3185 12.0537C11.2874 11.9622 11.2279 11.826 11.1914 11.7422C11.2317 11.8075 11.2817 11.9019 11.3245 11.9532C11.3734 11.9096 11.4296 11.8282 11.4759 11.7743Z" fill="#009B3A" stroke="black" stroke-width="0.01"/>
<path d="M11.3476 12.0033C11.3459 12.0035 11.2964 11.7266 11.2964 11.7266L11.2939 12.01L11.3253 12.0546L11.3476 12.0033" fill="#009B3A"/>
<path d="M11.3476 12.0033C11.3459 12.0035 11.2964 11.7266 11.2964 11.7266L11.2939 12.01L11.3253 12.0546L11.3476 12.0033" stroke="black" stroke-width="0.01"/>
<path d="M11.4562 11.8178C11.407 11.8934 11.3275 12.0069 11.2862 12.0857C11.2594 11.9922 11.2063 11.8519 11.1738 11.7656C11.211 11.8337 11.2565 11.9315 11.2968 11.9858C11.3477 11.9457 11.4075 11.8684 11.4562 11.8178" fill="#009B3A"/>
<path d="M11.4562 11.8178C11.407 11.8934 11.3275 12.0069 11.2862 12.0857C11.2594 11.9922 11.2063 11.8519 11.1738 11.7656C11.211 11.8337 11.2565 11.9315 11.2968 11.9858C11.3477 11.9457 11.4075 11.8684 11.4562 11.8178" stroke="black" stroke-width="0.01"/>
<path d="M11.324 12.0368C11.3224 12.0363 11.3469 11.7539 11.3469 11.7539L11.2715 12.0221L11.2897 12.0768L11.324 12.0368" fill="#009B3A"/>
<path d="M11.324 12.0368C11.3224 12.0363 11.3469 11.7539 11.3469 11.7539L11.2715 12.0221L11.2897 12.0768L11.324 12.0368" stroke="black" stroke-width="0.01"/>
<path d="M11.4594 11.8176C11.4173 11.8994 11.3485 12.0231 11.3146 12.1071C11.2794 12.0179 11.214 11.8859 11.1738 11.8047C11.217 11.8672 11.2711 11.958 11.3161 12.0064C11.363 11.9596 11.4155 11.8745 11.4594 11.8176Z" fill="#009B3A"/>
<path d="M11.4594 11.8176C11.4173 11.8994 11.3485 12.0231 11.3146 12.1071C11.2794 12.0179 11.214 11.8859 11.1738 11.8047C11.217 11.8672 11.2711 11.958 11.3161 12.0064C11.363 11.9596 11.4155 11.8745 11.4594 11.8176" stroke="black" stroke-width="0.01"/>
<path d="M11.3144 12.0605C11.3128 12.061 11.2295 11.7969 11.2295 11.7969L11.2622 12.0772L11.2987 12.1154L11.3144 12.0605" fill="#009B3A"/>
<path d="M11.3144 12.0605C11.3128 12.061 11.2295 11.7969 11.2295 11.7969L11.2622 12.0772L11.2987 12.1154L11.3144 12.0605" stroke="black" stroke-width="0.01"/>
<path d="M11.448 11.8438C11.4186 11.9336 11.3691 12.0704 11.348 12.1605C11.3003 12.0808 11.2165 11.9657 11.165 11.8949C11.2167 11.9467 11.2833 12.0238 11.3347 12.0613C11.3741 12.0048 11.4132 11.9095 11.448 11.8438Z" fill="#009B3A"/>
<path d="M11.448 11.8438C11.4186 11.9336 11.3691 12.0704 11.348 12.1605C11.3003 12.0808 11.2165 11.9657 11.165 11.8949C11.2167 11.9467 11.2833 12.0238 11.3347 12.0613C11.3741 12.0048 11.4132 11.9095 11.448 11.8438" stroke="black" stroke-width="0.01"/>
<path d="M11.3898 12.0803C11.3882 12.0809 11.2979 11.8203 11.2979 11.8203L11.338 12.0991L11.3756 12.1358L11.3898 12.0803" fill="#009B3A"/>
<path d="M11.3898 12.0803C11.3882 12.0809 11.2979 11.8203 11.2979 11.8203L11.338 12.0991L11.3756 12.1358L11.3898 12.0803" stroke="black" stroke-width="0.01"/>
<path d="M11.4476 11.8672C11.4189 11.9573 11.3703 12.0947 11.3499 12.185C11.3017 12.1058 11.217 11.9917 11.165 11.9214C11.217 11.9726 11.2842 12.049 11.3359 12.086C11.3748 12.029 11.4133 11.9333 11.4476 11.8672Z" fill="#009B3A" stroke="black" stroke-width="0.01"/>
<path d="M11.3907 12.126C11.3892 12.1268 11.2725 11.8828 11.2725 11.8828L11.3413 12.1528L11.3824 12.1832L11.3907 12.126" fill="#009B3A"/>
<path d="M11.3907 12.126C11.3892 12.1268 11.2725 11.8828 11.2725 11.8828L11.3413 12.1528L11.3824 12.1832L11.3907 12.126" stroke="black" stroke-width="0.01"/>
<path d="M11.4383 11.8945C11.4199 11.9881 11.3872 12.1314 11.3771 12.224C11.3203 12.1525 11.2235 12.0517 11.1641 11.9897C11.2214 12.0328 11.2967 12.0987 11.3521 12.1278C11.3843 12.0656 11.4117 11.9651 11.4383 11.8945Z" fill="#009B3A" stroke="black" stroke-width="0.01"/>
<path d="M11.3977 12.1672C11.3961 12.1675 11.334 11.8945 11.334 11.8945L11.3445 12.1776L11.3779 12.2199L11.3977 12.1672" fill="#009B3A"/>
<path d="M11.3977 12.1672C11.3961 12.1675 11.334 11.8945 11.334 11.8945L11.3445 12.1776L11.3779 12.2199L11.3977 12.1672" stroke="black" stroke-width="0.01"/>
<path d="M11.4382 11.9219C11.4285 12.0175 11.4091 12.1647 11.4075 12.2582C11.3446 12.1949 11.2394 12.1079 11.1748 12.0544C11.2356 12.0894 11.3163 12.1446 11.3739 12.1659C11.4002 12.0996 11.4182 11.9958 11.4382 11.9219" fill="#009B3A"/>
<path d="M11.4382 11.9219C11.4285 12.0175 11.4091 12.1647 11.4075 12.2582C11.3446 12.1949 11.2394 12.1079 11.1748 12.0544C11.2356 12.0894 11.3163 12.1446 11.3739 12.1659C11.4002 12.0996 11.4182 11.9958 11.4382 11.9219" stroke="black" stroke-width="0.01"/>
<path d="M11.401 12.1851C11.3997 12.1864 11.2324 11.9883 11.2324 11.9883L11.3594 12.2267L11.4058 12.2429L11.401 12.1851Z" fill="#009B3A"/>
<path d="M11.401 12.1851C11.3997 12.1864 11.2324 11.9883 11.2324 11.9883L11.3594 12.2267L11.4058 12.2429L11.401 12.1851" stroke="black" stroke-width="0.01"/>
<path d="M11.4427 11.957C11.4326 12.0526 11.4125 12.1997 11.4106 12.2932C11.348 12.2294 11.2431 12.1419 11.1787 12.088C11.2394 12.1233 11.3198 12.1791 11.3774 12.2007C11.4039 12.1345 11.4224 12.0309 11.4427 11.957" fill="#009B3A"/>
<path d="M11.4427 11.957C11.4326 12.0526 11.4125 12.1997 11.4106 12.2932C11.348 12.2294 11.2431 12.1419 11.1787 12.088C11.2394 12.1233 11.3198 12.1791 11.3774 12.2007C11.4039 12.1345 11.4224 12.0309 11.4427 11.957" stroke="black" stroke-width="0.01"/>
<path d="M11.4205 12.2295C11.419 12.2303 11.291 11.9922 11.291 11.9922L11.3723 12.2585L11.4148 12.2869L11.4205 12.2295" fill="#009B3A"/>
<path d="M11.4205 12.2295C11.419 12.2303 11.291 11.9922 11.291 11.9922L11.3723 12.2585L11.4148 12.2869L11.4205 12.2295" stroke="black" stroke-width="0.01"/>
<path d="M11.4495 11.9922C11.4433 12.0883 11.4293 12.2366 11.4312 12.3301C11.3662 12.2703 11.2579 12.1894 11.1914 12.1394C11.2534 12.171 11.336 12.2217 11.3943 12.2398C11.4181 12.172 11.4322 12.0672 11.4495 11.9922Z" fill="#009B3A"/>
<path d="M11.4495 11.9922C11.4433 12.0883 11.4293 12.2366 11.4312 12.3301C11.3662 12.2703 11.2579 12.1894 11.1914 12.1394C11.2534 12.171 11.336 12.2217 11.3943 12.2398C11.4181 12.172 11.4322 12.0672 11.4495 11.9922" stroke="black" stroke-width="0.01"/>
<path d="M11.4363 12.2738C11.435 12.275 11.2764 12.0664 11.2764 12.0664L11.393 12.3126L11.4387 12.3318L11.4363 12.2738" fill="#009B3A"/>
<path d="M11.4363 12.2738C11.435 12.275 11.2764 12.0664 11.2764 12.0664L11.393 12.3126L11.4387 12.3318L11.4363 12.2738" stroke="black" stroke-width="0.01"/>
<path d="M11.4515 12.0391C11.4459 12.1353 11.4328 12.2836 11.4352 12.3772C11.3698 12.318 11.2611 12.238 11.1943 12.1886C11.2565 12.2197 11.3394 12.2696 11.3978 12.2872C11.4212 12.2192 11.4347 12.1143 11.4515 12.0391" fill="#009B3A"/>
<path d="M11.4515 12.0391C11.4459 12.1353 11.4328 12.2836 11.4352 12.3772C11.3698 12.318 11.2611 12.238 11.1943 12.1886C11.2565 12.2197 11.3394 12.2696 11.3978 12.2872C11.4212 12.2192 11.4347 12.1143 11.4515 12.0391" stroke="black" stroke-width="0.01"/>
<path d="M11.451 12.3126C11.4495 12.3133 11.3389 12.0625 11.3389 12.0625L11.4009 12.3363L11.4413 12.3691L11.451 12.3126Z" fill="#009B3A"/>
<path d="M11.451 12.3126C11.4495 12.3133 11.3389 12.0625 11.3389 12.0625L11.4009 12.3363L11.4413 12.3691L11.451 12.3126" stroke="black" stroke-width="0.01"/>
<path d="M11.4554 12.0664C11.4586 12.163 11.4591 12.3124 11.47 12.4052C11.3997 12.3553 11.2846 12.2906 11.2139 12.2507C11.2784 12.273 11.3651 12.3113 11.4247 12.3208C11.4417 12.2498 11.4456 12.1436 11.4554 12.0664" fill="#009B3A"/>
<path d="M11.4554 12.0664C11.4586 12.163 11.4591 12.3124 11.47 12.4052C11.3997 12.3553 11.2846 12.2906 11.2139 12.2507C11.2784 12.273 11.3651 12.3113 11.4247 12.3208C11.4417 12.2498 11.4456 12.1436 11.4554 12.0664" stroke="black" stroke-width="0.01"/>
<path d="M11.4705 12.2997C11.4695 12.3013 11.2656 12.1562 11.2656 12.1562L11.4393 12.352L11.4876 12.3545L11.4705 12.2997" fill="#009B3A"/>
<path d="M11.4705 12.2997C11.4695 12.3013 11.2656 12.1562 11.2656 12.1562L11.4393 12.352L11.4876 12.3545L11.4705 12.2997" stroke="black" stroke-width="0.01"/>
<path d="M11.4619 12.0781C11.4701 12.1742 11.4782 12.3232 11.4939 12.4152C11.421 12.3682 11.3023 12.3082 11.2295 12.2711C11.2952 12.2909 11.3841 12.3257 11.4441 12.3328C11.4576 12.2615 11.456 12.1554 11.4619 12.0781" fill="#009B3A"/>
<path d="M11.4619 12.0781C11.4701 12.1742 11.4782 12.3232 11.4939 12.4152C11.421 12.3682 11.3023 12.3082 11.2295 12.2711C11.2952 12.2909 11.3841 12.3257 11.4441 12.3328C11.4576 12.2615 11.456 12.1554 11.4619 12.0781" stroke="black" stroke-width="0.01"/>
<path d="M11.493 12.3569C11.4917 12.3581 11.3223 12.1562 11.3223 12.1562L11.4515 12.3972L11.4983 12.4146L11.493 12.3569" fill="#009B3A"/>
<path d="M11.493 12.3569C11.4917 12.3581 11.3223 12.1562 11.3223 12.1562L11.4515 12.3972L11.4983 12.4146L11.493 12.3569" stroke="black" stroke-width="0.01"/>
<path d="M11.4775 12.1133C11.4896 12.209 11.5039 12.3576 11.5233 12.4488C11.4487 12.4062 11.328 12.3534 11.2539 12.3208C11.3202 12.3365 11.4102 12.366 11.4703 12.3693C11.4808 12.2971 11.4749 12.191 11.4775 12.1133" fill="#009B3A"/>
<path d="M11.4775 12.1133C11.4896 12.209 11.5039 12.3576 11.5233 12.4488C11.4487 12.4062 11.328 12.3534 11.2539 12.3208C11.3202 12.3365 11.4102 12.366 11.4703 12.3693C11.4808 12.2971 11.4749 12.191 11.4775 12.1133" stroke="black" stroke-width="0.01"/>
<path d="M11.5265 12.3852C11.5256 12.3868 11.3232 12.2383 11.3232 12.2383L11.4947 12.4369L11.543 12.4403L11.5265 12.3852Z" fill="#009B3A" stroke="black" stroke-width="0.01"/>
<path d="M11.483 12.1563C11.5013 12.2508 11.5251 12.3981 11.5503 12.4875C11.4734 12.4521 11.3502 12.411 11.2744 12.3855C11.3413 12.3948 11.4325 12.4156 11.4925 12.4131C11.4982 12.3398 11.4855 12.2343 11.483 12.1562" fill="#009B3A"/>
<path d="M11.483 12.1563C11.5013 12.2508 11.5251 12.3981 11.5503 12.4875C11.4734 12.4521 11.3502 12.411 11.2744 12.3855C11.3413 12.3948 11.4325 12.4156 11.4925 12.4131C11.4982 12.3398 11.4855 12.2343 11.483 12.1562" stroke="black" stroke-width="0.01"/>
<path d="M11.549 12.4148C11.5477 12.416 11.3809 12.2109 11.3809 12.2109L11.507 12.4542L11.5536 12.4725L11.549 12.4148" fill="#009B3A"/>
<path d="M11.549 12.4148C11.5477 12.416 11.3809 12.2109 11.3809 12.2109L11.507 12.4542L11.5536 12.4725L11.549 12.4148" stroke="black" stroke-width="0.01"/>
<path d="M11.4948 12.1797C11.5215 12.2717 11.5585 12.4155 11.5916 12.5013C11.5124 12.4765 11.3868 12.4523 11.3096 12.4373C11.3766 12.4374 11.4686 12.4456 11.5277 12.435C11.5266 12.361 11.5043 12.2573 11.4948 12.1797" fill="#009B3A"/>
<path d="M11.4948 12.1797C11.5215 12.2717 11.5585 12.4155 11.5916 12.5013C11.5124 12.4765 11.3868 12.4523 11.3096 12.4373C11.3766 12.4374 11.4686 12.4456 11.5277 12.435C11.5266 12.361 11.5043 12.2573 11.4948 12.1797" stroke="black" stroke-width="0.01"/>
<path d="M11.5581 12.4147C11.5578 12.4166 11.3232 12.3633 11.3232 12.3633L11.5466 12.4769L11.5917 12.4595L11.5581 12.4147" fill="#009B3A"/>
<path d="M11.5581 12.4147C11.5578 12.4166 11.3232 12.3633 11.3232 12.3633L11.5466 12.4769L11.5917 12.4595L11.5581 12.4147" stroke="black" stroke-width="0.01"/>
<path d="M11.5095 12.2109C11.5358 12.303 11.5723 12.4471 11.6051 12.5331C11.526 12.5078 11.4004 12.4829 11.3232 12.4674C11.3902 12.4679 11.4823 12.4767 11.5414 12.4664C11.5406 12.3924 11.5187 12.2886 11.5095 12.2109" fill="#009B3A"/>
<path d="M11.5095 12.2109C11.5358 12.303 11.5723 12.4471 11.6051 12.5331C11.526 12.5078 11.4004 12.4829 11.3232 12.4674C11.3902 12.4679 11.4823 12.4767 11.5414 12.4664C11.5406 12.3924 11.5187 12.2886 11.5095 12.2109" stroke="black" stroke-width="0.01"/>
<path d="M11.5968 12.443C11.5961 12.4447 11.3721 12.332 11.3721 12.332L11.5736 12.4992L11.6219 12.4945L11.5968 12.443" fill="#009B3A"/>
<path d="M11.5968 12.443C11.5961 12.4447 11.3721 12.332 11.3721 12.332L11.5736 12.4992L11.6219 12.4945L11.5968 12.443" stroke="black" stroke-width="0.01"/>
<path d="M11.4978 12.2266C11.5424 12.3105 11.6077 12.4429 11.6573 12.5193C11.575 12.5129 11.4475 12.5176 11.3691 12.5203C11.4345 12.5053 11.5261 12.4926 11.5815 12.4688C11.5655 12.3967 11.5228 12.3003 11.4978 12.2266Z" fill="#009B3A" stroke="black" stroke-width="0.01"/>
<path d="M11.632 12.4644C11.6315 12.4662 11.3984 12.3984 11.3984 12.3984L11.6176 12.5254L11.6637 12.511L11.632 12.4644" fill="#009B3A"/>
<path d="M11.632 12.4644C11.6315 12.4662 11.3984 12.3984 11.3984 12.3984L11.6176 12.5254L11.6637 12.511L11.632 12.4644" stroke="black" stroke-width="0.01"/>
<path d="M11.5222 12.2578C11.5674 12.3414 11.6334 12.4733 11.6835 12.5494C11.6012 12.5437 11.4738 12.5495 11.3955 12.5529C11.4608 12.5373 11.5521 12.5238 11.6074 12.4995C11.591 12.4275 11.5477 12.3314 11.5222 12.2578" fill="#009B3A"/>
<path d="M11.5222 12.2578C11.5674 12.3414 11.6334 12.4733 11.6835 12.5494C11.6012 12.5437 11.4738 12.5495 11.3955 12.5529C11.4608 12.5373 11.5521 12.5238 11.6074 12.4995C11.591 12.4275 11.5477 12.3314 11.5222 12.2578" stroke="black" stroke-width="0.01"/>
<path d="M11.662 12.4847C11.6611 12.4863 11.4443 12.3516 11.4443 12.3516L11.6345 12.5377L11.6834 12.5382L11.662 12.4847" fill="#009B3A"/>
<path d="M11.662 12.4847C11.6611 12.4863 11.4443 12.3516 11.4443 12.3516L11.6345 12.5377L11.6834 12.5382L11.662 12.4847" stroke="black" stroke-width="0.01"/>
<path d="M11.5408 12.2852C11.5931 12.3632 11.6704 12.487 11.7268 12.5568C11.6455 12.562 11.5209 12.5848 11.4443 12.5986C11.5069 12.5743 11.5954 12.5485 11.6474 12.5168C11.6244 12.4466 11.5728 12.3557 11.5408 12.2852Z" fill="#009B3A" stroke="black" stroke-width="0.01"/>
<path d="M11.6773 12.5057C11.6772 12.5076 11.4424 12.5 11.4424 12.5L11.6748 12.5702L11.7161 12.544L11.6773 12.5057" fill="#009B3A"/>
<path d="M11.6773 12.5057C11.6772 12.5076 11.4424 12.5 11.4424 12.5L11.6748 12.5702L11.7161 12.544L11.6773 12.5057" stroke="black" stroke-width="0.01"/>
<path d="M11.8136 11.3452C11.8137 11.3445 11.9826 11.3164 11.9826 11.3164L11.8145 11.3204L11.7852 11.3358L11.8136 11.3452" fill="#009B3A"/>
<path d="M11.8136 11.3452C11.8137 11.3445 11.9826 11.3164 11.9826 11.3164L11.8145 11.3204L11.7852 11.3358L11.8136 11.3452" stroke="black" stroke-width="0.01"/>
<path d="M11.9069 11.3779C11.8578 11.3627 11.7837 11.3373 11.7334 11.3262C11.7869 11.3044 11.866 11.2658 11.9148 11.2422C11.8773 11.2662 11.8228 11.297 11.7937 11.3211C11.8218 11.3406 11.8727 11.3604 11.9069 11.3779" fill="#009B3A"/>
<path d="M11.9069 11.3779C11.8578 11.3627 11.7837 11.3373 11.7334 11.3262C11.7869 11.3044 11.866 11.2658 11.9148 11.2422C11.8773 11.2662 11.8228 11.297 11.7937 11.3211C11.8218 11.3406 11.8727 11.3604 11.9069 11.3779" stroke="black" stroke-width="0.01"/>
<path d="M11.8068 11.3467C11.8066 11.346 11.9703 11.3008 11.9703 11.3008L11.8009 11.3229L11.7754 11.3408L11.8068 11.3467Z" fill="#009B3A"/>
<path d="M11.8068 11.3467C11.8066 11.346 11.9703 11.3008 11.9703 11.3008L11.8009 11.3229L11.7754 11.3408L11.8068 11.3467" stroke="black" stroke-width="0.01"/>
<path d="M11.9146 11.3944C11.8573 11.3889 11.7694 11.3777 11.7129 11.3771C11.7555 11.3385 11.8152 11.274 11.852 11.2344C11.8267 11.2716 11.7878 11.321 11.771 11.3562C11.8095 11.372 11.8711 11.3826 11.9146 11.3944" fill="#009B3A"/>
<path d="M11.9146 11.3944C11.8573 11.3889 11.7694 11.3777 11.7129 11.3771C11.7555 11.3385 11.8152 11.274 11.852 11.2344C11.8267 11.2716 11.7878 11.321 11.771 11.3562C11.8095 11.372 11.8711 11.3826 11.9146 11.3944" stroke="black" stroke-width="0.01"/>
<path d="M11.7454 11.361C11.7455 11.3602 11.9153 11.3414 11.9153 11.3414L11.7497 11.3359L11.7188 11.3499L11.7454 11.361" fill="#009B3A"/>
<path d="M11.7454 11.361C11.7455 11.3602 11.9153 11.3414 11.9153 11.3414L11.7497 11.3359L11.7188 11.3499L11.7454 11.361" stroke="black" stroke-width="0.01"/>
<path d="M11.8715 11.3987C11.8194 11.3885 11.7402 11.3708 11.6875 11.3645C11.7376 11.3393 11.8105 11.2961 11.8555 11.2695C11.8219 11.2954 11.7724 11.3293 11.7474 11.3545C11.7791 11.3706 11.834 11.3851 11.8715 11.3987" fill="#009B3A"/>
<path d="M11.8715 11.3987C11.8194 11.3885 11.7402 11.3708 11.6875 11.3645C11.7376 11.3393 11.8105 11.2961 11.8555 11.2695C11.8219 11.2954 11.7724 11.3293 11.7474 11.3545C11.7791 11.3706 11.834 11.3851 11.8715 11.3987" stroke="black" stroke-width="0.01"/>
<path d="M11.7312 11.3549C11.7307 11.3542 11.8807 11.2891 11.8807 11.2891L11.7169 11.3333L11.6973 11.3537L11.7312 11.3549" fill="#009B3A"/>
<path d="M11.7312 11.3549C11.7307 11.3542 11.8807 11.2891 11.8807 11.2891L11.7169 11.3333L11.6973 11.3537L11.7312 11.3549" stroke="black" stroke-width="0.01"/>
<path d="M11.8665 11.4176C11.8232 11.3993 11.7568 11.3682 11.7139 11.3553C11.7471 11.3237 11.7939 11.2683 11.8227 11.2344C11.8027 11.2683 11.772 11.3122 11.7585 11.3459C11.7873 11.3709 11.8338 11.3955 11.8665 11.4176" fill="#009B3A"/>
<path d="M11.8665 11.4176C11.8232 11.3993 11.7568 11.3682 11.7139 11.3553C11.7471 11.3237 11.7939 11.2683 11.8227 11.2344C11.8027 11.2683 11.772 11.3122 11.7585 11.3459C11.7873 11.3709 11.8338 11.3955 11.8665 11.4176" stroke="black" stroke-width="0.01"/>
<path d="M11.7398 11.368C11.7395 11.367 11.8562 11.3164 11.8562 11.3164L11.7294 11.3342L11.7139 11.3573L11.7398 11.368" fill="#009B3A"/>
<path d="M11.7398 11.368C11.7395 11.367 11.8562 11.3164 11.8562 11.3164L11.7294 11.3342L11.7139 11.3573L11.7398 11.368" stroke="black" stroke-width="0.01"/>
<path d="M11.6416 12.4844C11.6417 12.4863 11.4004 12.4862 11.4004 12.4862L11.6446 12.5473L11.6847 12.5205L11.6416 12.4844Z" fill="#009B3A"/>
<path d="M11.6416 12.4844C11.6417 12.4863 11.4004 12.4862 11.4004 12.4862L11.6446 12.5473L11.6847 12.5205L11.6416 12.4844" stroke="black" stroke-width="0.01"/>
<path d="M11.6854 12.4997C11.6851 12.5015 11.4404 12.4414 11.4404 12.4414L11.6757 12.5593L11.7218 12.5442L11.6854 12.4997" fill="#009B3A"/>
<path d="M11.6854 12.4997C11.6851 12.5015 11.4404 12.4414 11.4404 12.4414L11.6757 12.5593L11.7218 12.5442L11.6854 12.4997" stroke="black" stroke-width="0.01"/>
<path d="M11.7256 12.5164C11.7256 12.5183 11.4824 12.5039 11.4824 12.5039L11.7256 12.5789L11.7673 12.5547L11.7256 12.5164" fill="#009B3A"/>
<path d="M11.7256 12.5164C11.7256 12.5183 11.4824 12.5039 11.4824 12.5039L11.7256 12.5789L11.7673 12.5547L11.7256 12.5164" stroke="black" stroke-width="0.01"/>
<path d="M11.5716 12.3438C11.6348 12.4151 11.7296 12.5287 11.796 12.5916C11.7143 12.6042 11.5913 12.638 11.5156 12.6586C11.5758 12.629 11.6619 12.5957 11.7103 12.5599C11.6777 12.4935 11.6133 12.4097 11.5716 12.3438" fill="#009B3A"/>
<path d="M11.5716 12.3438C11.6348 12.4151 11.7296 12.5287 11.796 12.5916C11.7143 12.6042 11.5913 12.638 11.5156 12.6586C11.5758 12.629 11.6619 12.5957 11.7103 12.5599C11.6777 12.4935 11.6133 12.4097 11.5716 12.3438" stroke="black" stroke-width="0.01"/>
<path d="M11.7587 12.5267C11.7583 12.5284 11.5156 12.4453 11.5156 12.4453L11.7441 12.5842L11.7919 12.5739L11.7587 12.5267" fill="#009B3A"/>
<path d="M11.7587 12.5267C11.7583 12.5284 11.5156 12.4453 11.5156 12.4453L11.7441 12.5842L11.7919 12.5739L11.7587 12.5267" stroke="black" stroke-width="0.01"/>
<path d="M11.5934 12.3594C11.6624 12.4237 11.7664 12.5269 11.8375 12.5823C11.7592 12.6054 11.6429 12.6551 11.5713 12.6854C11.6268 12.6479 11.7073 12.6033 11.7508 12.561C11.7122 12.4978 11.6409 12.4209 11.5934 12.3594Z" fill="#009B3A"/>
<path d="M11.5934 12.3594C11.6624 12.4237 11.7664 12.5269 11.8375 12.5823C11.7592 12.6054 11.6429 12.6551 11.5713 12.6854C11.6268 12.6479 11.7073 12.6033 11.7508 12.561C11.7122 12.4978 11.6409 12.4209 11.5934 12.3594" stroke="black" stroke-width="0.01"/>
<path d="M11.7785 12.5469C11.7789 12.5488 11.5479 12.5933 11.5479 12.5933L11.7909 12.6102L11.8252 12.5756L11.7785 12.5469" fill="#009B3A"/>
<path d="M11.7785 12.5469C11.7789 12.5488 11.5479 12.5933 11.5479 12.5933L11.7909 12.6102L11.8252 12.5756L11.7785 12.5469" stroke="black" stroke-width="0.01"/>
<path d="M11.7308 12.5313C11.7311 12.5331 11.4902 12.5501 11.4902 12.5501L11.7385 12.5938L11.7765 12.5642L11.7308 12.5312" fill="#009B3A"/>
<path d="M11.7308 12.5313C11.7311 12.5331 11.4902 12.5501 11.4902 12.5501L11.7385 12.5938L11.7765 12.5642L11.7308 12.5312" stroke="black" stroke-width="0.01"/>
<path d="M11.7751 12.5447C11.775 12.5465 11.5264 12.5039 11.5264 12.5039L11.7698 12.6049L11.8147 12.5865L11.7751 12.5447L11.7751 12.5447Z" fill="#009B3A" stroke="black" stroke-width="0.01"/>
<path d="M11.8169 12.5547C11.817 12.5566 11.5732 12.5594 11.5732 12.5594L11.8215 12.6169L11.8613 12.5899L11.8169 12.5547Z" fill="#009B3A" stroke="black" stroke-width="0.01"/>
<path d="M11.6499 12.3945C11.7183 12.4611 11.8212 12.5677 11.8921 12.6257C11.8115 12.644 11.6912 12.6864 11.6172 12.7123C11.675 12.6786 11.7585 12.6393 11.8042 12.6002C11.7668 12.5363 11.6964 12.4573 11.6499 12.3945H11.6499Z" fill="#009B3A" stroke="black" stroke-width="0.01"/>
<path d="M11.8511 12.5678C11.8508 12.5696 11.6025 12.5039 11.6025 12.5039L11.8407 12.6262L11.8877 12.6126L11.8511 12.5678V12.5678Z" fill="#009B3A" stroke="black" stroke-width="0.01"/>
<path d="M11.6738 12.4062C11.7474 12.4655 11.8588 12.5611 11.9338 12.6112C11.8574 12.6397 11.7449 12.6975 11.6757 12.7328C11.7283 12.6915 11.8054 12.6414 11.8457 12.5961C11.8025 12.5359 11.7257 12.4642 11.6738 12.4062Z" fill="#009B3A" stroke="black" stroke-width="0.01"/>
<path d="M11.8723 12.582C11.8728 12.5839 11.6455 12.6445 11.6455 12.6445L11.8894 12.6443L11.9211 12.6073L11.8723 12.582L11.8723 12.582Z" fill="#009B3A" stroke="black" stroke-width="0.01"/>
<path d="M12.1859 12.2376L12.0006 12.1066L11.8153 12.2376L11.8848 12.028L11.7227 11.897H11.9311L12.0006 11.6875L12.0701 11.897H12.2785L12.1164 12.028L12.1859 12.2376H12.1859Z" fill="#FEDF00" stroke="black" stroke-width="0.02"/>
<path d="M20 6L20 18L4 18L4 6L20 6ZM20 5L4 5C3.4 5 3 5.4 3 6L3 18C3 18.6 3.4 19 4 19L20 19C20.6 19 21 18.6 21 18L21 6C21 5.4 20.6 5 20 5Z" fill="#B5B5B5"/>
</svg>
