<svg width="24" height="24" viewBox="0 0 24 24" fill="none" xmlns="http://www.w3.org/2000/svg">
<g clip-path="url(#clip0_14099_121017)">
<path d="M20 6H4V18H20V6Z" fill="#0038A8"/>
<path d="M20 12H4V18H20V12Z" fill="#CE1126"/>
<path d="M14 12L4 18V6" fill="white"/>
<path d="M7.7332 13.2021C8.39594 13.2021 8.9332 12.6648 8.9332 12.0021C8.9332 11.3393 8.39594 10.8021 7.7332 10.8021C7.07046 10.8021 6.5332 11.3393 6.5332 12.0021C6.5332 12.6648 7.07046 13.2021 7.7332 13.2021Z" fill="#FCD116"/>
<path d="M5.2002 11.9996L5.35603 12.1554L7.73353 11.9996L5.35603 11.8438L5.2002 11.9996Z" fill="#FCD116"/>
<path d="M5.4668 12.2984L5.59396 12.4256L7.73346 12L5.4668 12.2984Z" fill="#FCD116"/>
<path d="M5.11731 11.1497L5.22429 11.3424L7.55302 11.8462L5.30998 11.0427L5.11731 11.1497Z" fill="#FCD116"/>
<path d="M5.29198 11.5103L5.37928 11.6676L7.55334 11.8466L5.29198 11.5103Z" fill="#FCD116"/>
<path d="M5.77738 10.3208L5.781 10.5412L7.59791 12.0825L5.99773 10.3172L5.77738 10.3208Z" fill="#FCD116"/>
<path d="M5.76124 10.7211L5.76419 10.9009L7.59765 12.0828L5.76124 10.7211Z" fill="#FCD116"/>
<path d="M6.65375 9.75652L6.562 9.95689L7.53672 12.131L6.85412 9.84827L6.65375 9.75652Z" fill="#FCD116"/>
<path d="M6.46639 10.1109L6.39153 10.2744L7.53612 12.1314L6.46639 10.1109Z" fill="#FCD116"/>
<path d="M13.1923 12.0004L12.7414 12.1571L12.7317 12.6344L12.4433 12.254L11.9863 12.3922L12.259 12.0004H13.1923Z" fill="#FCD116"/>
<path d="M13.206 12.0004L12.7551 11.8436L12.7454 11.3663L12.4569 11.7468L12 11.6085L12.2727 12.0004H13.206Z" fill="#FCD116"/>
<path d="M5.70601 8.63391L5.25508 8.79065L5.24536 9.26795L4.95694 8.88753L4.5 9.02577L4.77268 8.63391H5.70601Z" fill="#FCD116"/>
<path d="M5.71968 8.63391L5.26875 8.47717L5.25903 7.99987L4.97061 8.3803L4.51367 8.24205L4.78635 8.63391H5.71968Z" fill="#FCD116"/>
<path d="M5.70601 15.6346L5.25508 15.7914L5.24536 16.2687L4.95694 15.8883L4.5 16.0265L4.77268 15.6346H5.70601Z" fill="#FCD116"/>
<path d="M5.71968 15.6346L5.26875 15.4779L5.25903 15.0006L4.97061 15.381L4.51367 15.2428L4.78635 15.6346H5.71968Z" fill="#FCD116"/>
<path d="M20 6L20 18L4 18L4 6L20 6ZM20 5L4 5C3.4 5 3 5.4 3 6L3 18C3 18.6 3.4 19 4 19L20 19C20.6 19 21 18.6 21 18L21 6C21 5.4 20.6 5 20 5Z" fill="none"/>
<g clip-path="url(#clip1_14099_121017)">
<path d="M20 5.99966H4V11.9997H20V5.99966Z" fill="#0038A8"/>
<path d="M20 11.9997H4V17.9997H20V11.9997Z" fill="#CE1126"/>
<path d="M4.01438 17.9994L4.00008 5.99979L14.3799 11.9874L4.01438 17.9994Z" fill="white"/>
<path d="M12.7337 12.6535L12.4439 12.2731L11.9903 12.4231L12.2621 12.0301L11.9795 11.6451L12.4373 11.7823L12.7163 11.3943L12.7271 11.872L13.1825 12.0175L12.7313 12.1753L12.7337 12.6535Z" fill="#FCD116"/>
<path d="M5.36957 16.8943L4.94918 16.6664L4.5971 16.9893L4.68366 16.5194L4.26795 16.2843L4.74173 16.2215L4.83693 15.7532L5.04284 16.1844L5.51781 16.1302L5.17112 16.4592L5.36957 16.8943Z" fill="#FCD116"/>
<path d="M5.53699 7.86805L5.06096 7.82235L4.86294 8.25714L4.75913 7.79072L4.28461 7.7366L4.69627 7.49382L4.60106 7.02554L4.959 7.3421L5.37507 7.10667L5.1844 7.545L5.53699 7.86805Z" fill="#FCD116"/>
<path d="M8.9498 12.0302C8.9498 12.3484 8.82338 12.6537 8.59833 12.8787C8.37329 13.1037 8.06806 13.2302 7.7498 13.2302C7.43154 13.2302 7.12632 13.1037 6.90128 12.8787C6.67623 12.6537 6.5498 12.3484 6.5498 12.0302C6.5498 11.7119 6.67623 11.4067 6.90128 11.1816C7.12632 10.9566 7.43154 10.8302 7.7498 10.8302C8.06806 10.8302 8.37329 10.9566 8.59833 11.1816C8.82338 11.4067 8.9498 11.7119 8.9498 12.0302Z" fill="#FCD116"/>
<path fill-rule="evenodd" clip-rule="evenodd" d="M7.75437 12.018L7.60059 9.6738L7.75437 9.52002L7.91877 9.66852L7.75437 12.018Z" fill="#FCD116"/>
<path fill-rule="evenodd" clip-rule="evenodd" d="M7.75488 12.0234L8.04654 9.81168H8.05188L8.16852 9.939L7.75488 12.0234Z" fill="#FCD116"/>
<path fill-rule="evenodd" clip-rule="evenodd" d="M7.75488 12.018L8.9322 10.2572H8.93754H9.10722L7.75488 12.018Z" fill="#FCD116"/>
<path fill-rule="evenodd" clip-rule="evenodd" d="M7.75488 12.0234L9.30876 10.2519H9.53148V10.464L7.75488 12.0234Z" fill="#FCD116"/>
<path fill-rule="evenodd" clip-rule="evenodd" d="M7.75586 12.018L9.53186 10.638H9.53786L9.53186 10.83L7.75586 12.018Z" fill="#FCD116"/>
<path fill-rule="evenodd" clip-rule="evenodd" d="M7.75586 12.024L9.83786 11.61H9.84386L9.96986 11.73L7.75586 12.024Z" fill="#FCD116"/>
<path fill-rule="evenodd" clip-rule="evenodd" d="M7.75586 12.024L10.1079 11.868H10.1139L10.2759 12.018L10.1139 12.18L7.75586 12.024Z" fill="#FCD116"/>
<path fill-rule="evenodd" clip-rule="evenodd" d="M7.75586 12.018L9.98786 12.312L9.98186 12.318L9.86786 12.438L7.75586 12.018Z" fill="#FCD116"/>
<path fill-rule="evenodd" clip-rule="evenodd" d="M7.75586 12.018L9.53186 13.206V13.212L9.53786 13.386L7.75586 12.018Z" fill="#FCD116"/>
<path fill-rule="evenodd" clip-rule="evenodd" d="M7.75586 12.024L9.53786 13.584V13.596L9.53186 13.806H9.31586L7.75586 12.024Z" fill="#FCD116"/>
<path fill-rule="evenodd" clip-rule="evenodd" d="M7.75586 12.018L9.12986 13.806H9.13586H8.94986L7.75586 12.018Z" fill="#FCD116"/>
<path fill-rule="evenodd" clip-rule="evenodd" d="M7.75586 12.018L8.17586 14.124L8.04986 14.238L7.75586 12.018Z" fill="#FCD116"/>
<path fill-rule="evenodd" clip-rule="evenodd" d="M7.75561 12.018L7.91161 14.382L7.90561 14.388L7.75561 14.544L7.59961 14.388L7.75561 12.018Z" fill="#FCD116"/>
<path fill-rule="evenodd" clip-rule="evenodd" d="M7.75594 12.018L7.46194 14.25L7.47394 14.262L7.33594 14.124L7.75594 12.018Z" fill="#FCD116"/>
<path fill-rule="evenodd" clip-rule="evenodd" d="M7.75584 12.018L6.56184 13.806L6.55584 13.8L6.38184 13.806L7.75584 12.018Z" fill="#FCD116"/>
<path fill-rule="evenodd" clip-rule="evenodd" d="M7.75647 12.024L6.19647 13.806H6.19047L5.98047 13.8V13.584L7.75647 12.024Z" fill="#FCD116"/>
<path fill-rule="evenodd" clip-rule="evenodd" d="M7.75647 12.024L5.98047 13.386L5.98647 13.392L5.98047 13.212L7.75647 12.024Z" fill="#FCD116"/>
<path fill-rule="evenodd" clip-rule="evenodd" d="M7.75627 12.018L5.65027 12.438L5.65627 12.432L5.53027 12.312L7.75627 12.018Z" fill="#FCD116"/>
<path fill-rule="evenodd" clip-rule="evenodd" d="M7.75619 12.018L5.38619 12.174L5.38019 12.168L5.24219 12.018L5.39819 11.862L7.75619 12.018Z" fill="#FCD116"/>
<path fill-rule="evenodd" clip-rule="evenodd" d="M7.75585 12.024L5.54785 11.73L5.66185 11.61L7.75585 12.024Z" fill="#FCD116"/>
<path fill-rule="evenodd" clip-rule="evenodd" d="M7.75647 12.018L5.98047 10.83V10.656L7.75647 12.018Z" fill="#FCD116"/>
<path fill-rule="evenodd" clip-rule="evenodd" d="M7.75647 12.018L5.98047 10.458V10.464V10.248H6.20247L7.75647 12.018Z" fill="#FCD116"/>
<path fill-rule="evenodd" clip-rule="evenodd" d="M7.75639 12.024L6.40039 10.254H6.41839L6.56839 10.248L7.75639 12.024Z" fill="#FCD116"/>
<path fill-rule="evenodd" clip-rule="evenodd" d="M7.7558 12.018L7.3418 9.93599V9.94799L7.4618 9.80399L7.7558 12.018Z" fill="#FCD116"/>
</g>
</g>
<defs>
<clipPath id="clip0_14099_121017">
<rect width="24" height="24" fill="white"/>
</clipPath>
<clipPath id="clip1_14099_121017">
<rect width="24" height="12" fill="white" transform="translate(4 6)"/>
</clipPath>
</defs>
</svg>
