<svg width="24" height="24" viewBox="0 0 24 24" fill="none" xmlns="http://www.w3.org/2000/svg">
<path d="M20 6H4V14H20V6Z" fill="#00247D"/>
<path d="M4 6L12 12L4 6ZM12 6L4 12L12 6Z" fill="black"/>
<path d="M4 6L12 12M12 6L4 12" stroke="white" stroke-width="1.5"/>
<path d="M4 6L12 12L4 6ZM12 6L4 12L12 6Z" fill="black"/>
<path d="M4 6L12 12M12 6L4 12" stroke="#CF142B"/>
<path d="M8 6V14V6ZM4 9H13.3333H4Z" fill="black"/>
<path d="M8 6V14M4 9H13.3333" stroke="white" stroke-width="2.5"/>
<path d="M8 6V14V6ZM4 9H13.3333H4Z" fill="black"/>
<path d="M8 6V14M4 9H13.3333" stroke="#CF142B" stroke-width="1.5"/>
<path d="M12 6V12H4V18H20V6H12Z" fill="#00247D"/>
<path d="M14.6761 13.2448C14.5055 13.3893 14.3428 13.6005 14.3028 13.7914C14.1903 14.3285 14.0409 14.448 13.8105 14.3328C13.8105 14.6213 14.0633 14.6432 14.1743 14.4746C14.1743 14.745 14.2724 14.9797 14.4937 15.1797C14.5871 15.264 14.6047 15.2064 14.5604 15.113C14.5161 15.0197 14.5161 14.7184 14.4276 14.5456C14.5695 14.6474 14.778 14.5898 14.7604 14.3104C14.5785 14.417 14.3977 14.4128 14.3791 14.1594C14.3561 13.8624 14.4719 13.4309 14.6761 13.2448Z" fill="#F7E017" stroke="black" stroke-width="0.03"/>
<path d="M14.4597 11.1064C14.472 10.9997 14.449 10.8904 14.3712 10.8216C14.2208 10.6893 14.0736 10.7331 13.9637 10.8397C13.7994 10.7512 13.7125 11.0653 13.5264 11.0125C13.5573 11.1144 13.6064 11.1587 13.6992 11.1235C13.6016 11.212 13.6992 11.3187 13.584 11.4248C13.7925 11.4915 13.9034 11.3763 13.8944 11.1763C13.9744 11.2472 14.0981 11.2429 14.1648 11.1629C14.0538 11.1272 14.0533 11.0312 14.0981 10.9411C14.1648 10.8083 14.4773 10.8136 14.4597 11.1064Z" fill="#F7E017" stroke="black" stroke-width="0.03"/>
<path d="M14.9411 12.651C14.7059 12.7753 14.276 12.722 14.236 12.4158C14.196 12.1097 14.4931 11.9721 14.5731 11.9326C14.6974 11.8702 14.795 11.9812 14.755 12.1102C14.8926 12.0617 14.9235 11.9017 14.8568 11.8089C15.0387 11.8222 15.2072 11.6846 15.2782 11.4894C15.2142 11.5502 15.0403 11.5092 14.8974 11.5001C14.9416 11.4516 14.9411 11.3566 14.9278 11.3076C14.7774 11.4622 14.5598 11.3913 14.2718 11.8393C14.316 11.6841 14.4003 11.3737 14.4494 11.1694C14.4542 11.1492 14.4579 11.1289 14.4606 11.1081C14.4776 10.8153 14.1656 10.81 14.099 10.9433C14.172 11.0254 14.1336 11.1214 14.1075 11.267C14.0766 11.4398 14.0099 11.8393 13.9523 11.9721C13.9347 11.7636 13.7971 11.7502 13.7704 11.6484C13.7304 11.675 13.7086 11.746 13.7171 11.7945C13.668 11.7412 13.4995 11.8078 13.4376 11.7278C13.371 11.8606 13.4776 11.994 13.5886 12.0516C13.524 12.0558 13.5086 12.1337 13.4376 12.1337C13.5331 12.2446 13.6307 12.2889 13.7438 12.298C13.8568 12.307 13.9411 12.3492 14.0099 12.4862C14.1208 12.7086 14.5432 12.8526 14.9411 12.651Z" fill="#337321" stroke="black" stroke-width="0.03"/>
<path d="M15.5263 12.378C15.3935 12.746 15.0298 13.0079 14.8655 13.0479C14.5861 13.1156 14.0165 13.3924 13.8639 13.5348C13.8399 13.5295 13.8175 13.5209 13.801 13.5092C13.7258 13.4559 13.6634 13.2831 13.7967 13.1364C14.2138 12.746 14.6618 12.9146 14.9413 12.6484C14.7061 12.7727 14.2762 12.7194 14.2362 12.4132C14.489 12.4799 14.9461 12.4842 15.3093 12.0938C15.3578 12.1476 15.4997 12.3162 15.5263 12.378Z" fill="#F7E017" stroke="black" stroke-width="0.03"/>
<path d="M14.6765 13.2422C14.4658 13.4209 14.3565 13.8598 14.3789 14.1569C14.3853 14.2396 14.4082 14.2956 14.4434 14.3297C14.4589 14.1612 14.5762 13.7254 14.8754 13.5313C15.1282 13.367 15.5229 12.999 15.6695 12.5777C15.6429 12.5025 15.5986 12.4492 15.5143 12.3958C15.3687 12.7937 14.9799 12.9846 14.6765 13.2422Z" fill="#337321" stroke="black" stroke-width="0.03"/>
<path d="M15.3911 12.2063C15.3159 12.3193 15.1447 12.4745 14.981 12.5369C15.0162 12.4969 15.0274 12.4463 15.0295 12.4042C14.821 12.4842 14.4039 12.4751 14.2354 12.4132C14.4882 12.4799 14.9452 12.4841 15.3084 12.0938C15.3447 12.1332 15.3756 12.1684 15.3911 12.2063Z" fill="#316D3A" stroke="black" stroke-width="0.03"/>
<path d="M13.7969 13.1354C13.4577 13.4527 13.6817 13.7295 13.8145 13.7919C13.7793 14.0138 13.9873 13.9871 13.983 14.1733C14.0673 14.1247 14.0897 13.9957 14.0763 13.8938C14.183 14.009 14.4534 13.8805 14.511 14.0933C14.5467 13.8581 14.3649 13.6234 14.1387 13.6453C14.2321 13.561 14.1787 13.4234 14.0902 13.3882C14.0726 13.561 13.8774 13.561 13.8017 13.5082C13.7259 13.4549 13.6635 13.2821 13.7969 13.1354Z" fill="#337321" stroke="black" stroke-width="0.03"/>
<path d="M14.531 15.1552C14.4942 15.1765 14.4969 15.224 14.5198 15.2549C14.5662 15.3168 14.4868 15.4576 14.6372 15.488C14.6814 15.4971 14.7156 15.4699 14.7326 15.4192C14.779 15.2795 14.6308 15.264 14.6174 15.1973C14.6041 15.1307 14.562 15.1376 14.531 15.1552Z" fill="#F7E017" stroke="black" stroke-width="0.03"/>
<path d="M14.6576 15.4162C14.608 15.4392 14.5643 15.4717 14.5846 15.6312C14.5926 15.6973 14.5889 15.8573 14.5312 15.8594C14.5664 15.877 14.6422 15.8962 14.6731 15.8552C14.703 15.9053 14.7707 15.8909 14.7974 15.8285C14.8326 15.8573 14.8816 15.8088 14.8816 15.7666C14.9126 15.7864 14.975 15.7576 14.959 15.6626C14.9969 15.676 15.0454 15.6493 15.063 15.6248C15.0075 15.6136 14.8678 15.5384 14.8347 15.4786C14.8017 15.4184 14.7152 15.3896 14.6576 15.4162Z" fill="#F7E017" stroke="black" stroke-width="0.03"/>
<path d="M13.8887 10.9336C13.9111 10.9006 13.9361 10.8696 13.9639 10.8424" stroke="black" stroke-width="0.03"/>
<path d="M14.7324 11.5212C14.7714 11.4988 14.8311 11.4961 14.8972 11.5004" stroke="black" stroke-width="0.03"/>
<path d="M14.6722 15.8579C14.6567 15.8355 14.6509 15.7427 14.6621 15.6862" stroke="black" stroke-width="0.03"/>
<path d="M14.7967 15.8337C14.7722 15.8151 14.7258 15.7505 14.7178 15.694" stroke="black" stroke-width="0.03"/>
<path d="M14.881 15.77C14.8501 15.7556 14.7743 15.658 14.7578 15.595" stroke="black" stroke-width="0.03"/>
<path d="M14.9589 15.6649C14.9221 15.6569 14.8101 15.5838 14.7637 15.5065" stroke="black" stroke-width="0.03"/>
<path d="M17.0032 13.1432C17.5488 13.6003 17.584 13.9635 17.4997 14.1768C17.4555 13.9774 17.2293 13.667 16.9941 13.587L17.0032 13.1432Z" fill="#F7E017" stroke="black" stroke-width="0.03"/>
<path d="M16.0279 12.8828H17.0391C17.0391 12.8828 17.0391 13.1489 17.0391 14.0801C17.0391 15.1004 16.4716 15.7036 15.8945 16.0225C15.318 15.7031 14.75 15.0999 14.75 14.0801C14.75 13.1489 14.75 12.8828 14.75 12.8828H15.4599C15.4609 12.9447 15.4668 13.038 15.5399 13.1313C15.7073 13.1148 15.8967 12.9895 16.0279 12.8828Z" fill="#337321" stroke="black" stroke-width="0.03"/>
<path d="M17.039 12.8828C17.039 12.8828 17.039 13.1489 17.039 14.0801C17.039 14.3879 16.9872 14.6583 16.8992 14.8935L15.895 13.0508L14.8907 14.8935C14.8027 14.6577 14.751 14.3879 14.751 14.0801C14.751 13.1489 14.751 12.8828 14.751 12.8828H17.039Z" fill="#006EC7" stroke="black" stroke-width="0.03"/>
<path d="M16.9297 14.8043C16.9121 14.8587 16.8796 14.9467 16.855 15.0011L15.895 13.2166L14.935 15.0011C14.91 14.9467 14.878 14.8587 14.8604 14.8043L15.8956 12.8854L16.9297 14.8043Z" fill="#F7E017"/>
<path d="M16.3509 15.4635C16.3776 15.4768 16.4266 15.5014 16.4485 15.5104C16.5018 15.4038 16.5104 15.2534 16.4928 15.12C16.4352 15.2667 16.24 15.2619 16.1866 15.3504C16.2192 15.367 16.2496 15.3883 16.2757 15.407C16.209 15.4736 16.0533 15.5851 15.9648 15.6118V14.6603C15.9648 14.5936 15.9424 14.5382 15.9424 14.4827C15.9424 14.4827 15.9424 14.3302 15.9424 14.2859C15.9424 14.2416 15.9333 14.1771 15.8938 14.1771C15.8538 14.1771 15.8453 14.2416 15.8453 14.2859C15.8453 14.3302 15.8453 14.4827 15.8453 14.4827C15.8453 14.5382 15.8229 14.6027 15.8229 14.6603V15.6118C15.7744 15.4699 15.5829 15.5184 15.4944 15.3766C15.529 15.368 15.5658 15.3654 15.601 15.3723C15.5344 15.1462 15.3525 15.1286 15.3173 15.0619C15.3173 15.1552 15.2773 15.3723 15.3397 15.4656C15.3536 15.4491 15.3744 15.4315 15.4 15.4166C15.4752 15.5808 15.8144 15.5814 15.8944 15.8518C15.9584 15.752 16.1893 15.6368 16.3509 15.4635Z" fill="#F7E017" stroke="black" stroke-width="0.03"/>
<path d="M15.8948 14.6734C15.97 14.6734 16.2095 14.6489 16.2964 14.6489C16.3188 14.6489 16.3375 14.6153 16.3375 14.5737C16.3375 14.5321 16.3193 14.4985 16.2964 14.4985C16.21 14.4985 15.9705 14.474 15.8948 14.474C15.8196 14.474 15.5801 14.4985 15.4932 14.4985C15.4708 14.4985 15.4521 14.5321 15.4521 14.5737C15.4521 14.6153 15.4703 14.6489 15.4932 14.6489C15.5801 14.6489 15.8196 14.6734 15.8948 14.6734Z" fill="#F7E017" stroke="black" stroke-width="0.03"/>
<path d="M15.8462 14.2813C15.8302 14.2685 15.8094 14.2605 15.786 14.2605C15.7358 14.2605 15.6948 14.2978 15.6948 14.3437C15.6948 14.3895 15.7353 14.4269 15.786 14.4269C15.8361 14.4269 15.8766 14.3895 15.8766 14.3437C15.8766 14.3079 15.9284 14.3079 15.9284 14.3437C15.9284 14.4157 15.8644 14.4738 15.786 14.4738C15.707 14.4738 15.6436 14.4157 15.6436 14.3437C15.6436 14.2717 15.7076 14.2135 15.786 14.2135C15.8094 14.2135 15.8318 14.2189 15.8516 14.2279C15.85 14.2397 15.8462 14.2621 15.8462 14.2813Z" fill="#F7E017" stroke="black" stroke-width="0.03"/>
<path d="M15.4941 14.6478C15.5165 14.6478 15.5347 14.6142 15.5347 14.5726C15.5347 14.531 15.5165 14.4974 15.4941 14.4974" fill="#F7E017"/>
<path d="M15.4941 14.6478C15.5165 14.6478 15.5347 14.6142 15.5347 14.5726C15.5347 14.531 15.5165 14.4974 15.4941 14.4974" stroke="black" stroke-width="0.03"/>
<path d="M15.5264 14.6478C15.5488 14.6478 15.5669 14.6142 15.5669 14.5726C15.5669 14.531 15.5488 14.4974 15.5264 14.4974" fill="#F7E017"/>
<path d="M15.5264 14.6478C15.5488 14.6478 15.5669 14.6142 15.5669 14.5726C15.5669 14.531 15.5488 14.4974 15.5264 14.4974" stroke="black" stroke-width="0.03"/>
<path d="M15.7461 14.6605C15.7733 14.6605 15.7952 14.62 15.7952 14.5698C15.7952 14.5197 15.7733 14.4792 15.7461 14.4792" fill="#F7E017"/>
<path d="M15.7461 14.6605C15.7733 14.6605 15.7952 14.62 15.7952 14.5698C15.7952 14.5197 15.7733 14.4792 15.7461 14.4792" stroke="black" stroke-width="0.03"/>
<path d="M15.7969 14.6664C15.8251 14.6664 15.8481 14.6238 15.8481 14.5715C15.8481 14.5192 15.8251 14.4766 15.7969 14.4766" fill="#F7E017"/>
<path d="M15.7969 14.6664C15.8251 14.6664 15.8481 14.6238 15.8481 14.5715C15.8481 14.5192 15.8251 14.4766 15.7969 14.4766" stroke="black" stroke-width="0.03"/>
<path d="M15.9668 14.6686C15.9956 14.6686 16.0185 14.6254 16.0185 14.5726C16.0185 14.5198 15.9951 14.4766 15.9668 14.4766" fill="#F7E017"/>
<path d="M15.9668 14.6686C15.9956 14.6686 16.0185 14.6254 16.0185 14.5726C16.0185 14.5198 15.9951 14.4766 15.9668 14.4766" stroke="black" stroke-width="0.03"/>
<path d="M16.0205 14.6648C16.0488 14.6648 16.0717 14.6232 16.0717 14.572C16.0717 14.5208 16.0488 14.4792 16.0205 14.4792" fill="#F7E017"/>
<path d="M16.0205 14.6648C16.0488 14.6648 16.0717 14.6232 16.0717 14.572C16.0717 14.5208 16.0488 14.4792 16.0205 14.4792" stroke="black" stroke-width="0.03"/>
<path d="M16.2588 14.6484C16.2817 14.6484 16.3004 14.6142 16.3004 14.5716C16.3004 14.5289 16.2817 14.4948 16.2588 14.4948" fill="#F7E017"/>
<path d="M16.2588 14.6484C16.2817 14.6484 16.3004 14.6142 16.3004 14.5716C16.3004 14.5289 16.2817 14.4948 16.2588 14.4948" stroke="black" stroke-width="0.03"/>
<path d="M15.4004 15.4145C15.4276 15.3979 15.4607 15.383 15.4953 15.375L15.4004 15.4145Z" fill="#F7E017"/>
<path d="M15.4004 15.4145C15.4276 15.3979 15.4607 15.383 15.4953 15.375" stroke="black" stroke-width="0.03"/>
<path d="M16.3025 15.4249C16.2945 15.419 16.2854 15.4132 16.2764 15.4062L16.3025 15.4249Z" fill="#F7E017"/>
<path d="M16.3025 15.4249C16.2945 15.419 16.2854 15.4132 16.2764 15.4062" stroke="black" stroke-width="0.03"/>
<path d="M16.3516 15.4626C16.4134 15.396 16.4652 15.3208 16.494 15.2344L16.3516 15.4626Z" fill="#F7E017"/>
<path d="M16.3516 15.4626C16.4134 15.396 16.4652 15.3208 16.494 15.2344" stroke="black" stroke-width="0.03"/>
<path d="M15.6914 13.7304C15.6914 13.7085 15.709 13.6995 15.7298 13.684C15.7549 13.6653 15.765 13.6562 15.7874 13.6562H16.0786C16.0999 13.6562 16.1053 13.6616 16.1053 13.6819V14.0771C16.1053 14.0968 16.1005 14.1026 16.0786 14.1026H15.6914V13.7261" fill="white"/>
<path d="M15.6914 13.7304C15.6914 13.7085 15.709 13.6995 15.7298 13.684C15.7549 13.6653 15.765 13.6562 15.7874 13.6562H16.0786C16.0999 13.6562 16.1053 13.6616 16.1053 13.6819V14.0771C16.1053 14.0968 16.1005 14.1026 16.0786 14.1026H15.6914V13.7261" stroke="black" stroke-width="0.03"/>
<path d="M16.0067 14.1369C16.0451 14.1369 16.0381 14.1359 16.0648 14.1092C16.0931 14.0815 16.0904 14.0836 16.0904 14.058V13.6959C16.0904 13.6772 16.0856 13.6719 16.0659 13.6719H15.7965C15.7752 13.6719 15.7661 13.6804 15.7432 13.698C15.724 13.7124 15.708 13.7215 15.708 13.7417V14.1369H16.0067Z" fill="#E5E5E5" stroke="black" stroke-width="0.03"/>
<path d="M16.0354 14.1297C16.0354 14.1494 16.0306 14.1553 16.0087 14.1553H15.7175C15.6957 14.1553 15.6914 14.1499 15.6914 14.1297V13.7339C15.6914 13.7142 15.6962 13.7083 15.7175 13.7083H16.0087C16.0306 13.7083 16.0354 13.7137 16.0354 13.7339V14.1297Z" fill="white" stroke="black" stroke-width="0.03"/>
<path d="M16.5997 12.6526C16.6562 12.716 16.6749 12.8008 16.644 12.884H16.5597C16.5949 12.7774 16.573 12.676 16.4221 12.6627C16.1965 12.643 15.9341 13.0798 15.5394 13.1326C15.4242 12.995 15.4301 12.7331 15.5768 12.6088C15.501 12.3907 15.3416 12.1507 15.2306 12.0472C15.1581 12.0355 15.0744 12.0296 15.0205 12.0328C15.0781 11.9086 15.2424 11.7779 15.3757 11.7246C15.397 11.6931 15.4205 11.6627 15.4418 11.6355C15.4552 11.4648 16.2669 11.5448 16.4397 11.651C16.4402 11.8424 16.5154 12.4798 16.5997 12.6526Z" fill="#96877D" stroke="black" stroke-width="0.03"/>
<path d="M15.6162 12.7659C15.597 12.4705 15.4776 12.2267 15.3096 12.0609C15.3896 12.0833 15.5533 12.0833 15.6642 12.0033C15.8104 11.9057 16.1922 11.735 16.332 11.8081C16.3432 11.8326 16.3496 11.8881 16.341 11.9233C16.308 11.8347 15.9394 11.9718 15.8354 12.0139C15.7357 12.0603 15.6914 12.1227 15.7266 12.2625C15.669 12.2139 15.6888 12.167 15.629 12.1318C15.653 12.1894 15.6728 12.2934 15.6797 12.3777C15.6573 12.3179 15.6178 12.1894 15.5309 12.1137C15.6061 12.2598 15.6717 12.6113 15.6408 12.7979C15.7005 12.7979 15.8328 12.7393 15.8856 12.6971C15.8392 12.7638 15.7048 12.8102 15.6184 12.8278C15.5794 12.8742 15.5528 12.9942 15.5549 13.0609C15.549 12.9787 15.5746 12.7787 15.6162 12.7659Z" fill="black"/>
<path d="M16.5995 12.6512C16.5259 12.5696 16.3888 12.5253 16.2139 12.5728C16.2405 12.5595 16.2981 12.5371 16.3493 12.5285C16.3429 12.4821 16.3008 12.2821 16.2939 12.2336L16.3429 12.2139C16.3675 12.3339 16.3984 12.4709 16.4181 12.5264C16.4336 12.5307 16.4693 12.5376 16.5003 12.5531C16.4869 12.5067 16.4117 12.1717 16.4139 12.136L16.4805 12.1003C16.5067 12.2821 16.5488 12.5461 16.5995 12.6512Z" fill="black"/>
<path d="M16.5605 12.8834C16.5957 12.7768 16.5738 12.6754 16.4229 12.6621C16.3061 12.652 16.1792 12.7656 16.0293 12.8834H16.5605Z" fill="#96877D" stroke="black" stroke-width="0.03"/>
<path d="M15.5799 11.9303C15.5132 11.9393 15.365 11.926 15.2892 11.9015C15.2935 11.8812 15.3015 11.8609 15.3111 11.8385C15.2647 11.8695 15.1762 11.9303 15.1426 11.9724C15.2492 11.9948 15.469 12.006 15.5799 11.9303Z" fill="#96877D" stroke="black" stroke-width="0.03"/>
<path d="M15.5771 12.6094C15.6017 12.6803 15.6177 12.7486 15.6198 12.8094" stroke="black" stroke-width="0.03"/>
<path d="M15.376 11.724C15.336 11.7826 15.3008 11.8456 15.2891 11.8989C15.3643 11.9234 15.5131 11.9368 15.5797 11.9277" stroke="black" stroke-width="0.03"/>
<path d="M15.2314 12.0468C15.2602 12.0516 15.2869 12.0569 15.3098 12.0633C15.3898 12.0857 15.5536 12.0857 15.6645 12.0057C15.7754 11.9257 16.0768 11.6777 16.4186 11.651" stroke="black" stroke-width="0.03"/>
<path d="M15.1436 11.9682C15.2502 11.9906 15.47 12.0013 15.5804 11.9261C15.8374 11.7511 16.086 11.6487 16.3345 11.6354" stroke="black" stroke-width="0.03"/>
<path d="M17.0039 13.1432C17.3762 13.4003 17.6514 13.6488 17.7314 14.0478C17.8114 14.4467 17.9623 14.5534 18.1484 14.4467C18.1042 14.6771 17.8732 14.7038 17.6786 14.5267C17.6962 14.7928 17.59 15.1123 17.3148 15.2275C17.2972 15.068 17.4028 14.9416 17.3724 14.8104C17.3591 14.7528 17.3548 14.6195 17.43 14.5576C17.2839 14.6062 17.053 14.5134 17.0311 14.2958C17.1996 14.3758 17.4167 14.3891 17.501 14.1758C17.5847 13.9635 17.5495 13.5998 17.0039 13.1432Z" fill="#337321" stroke="black" stroke-width="0.03"/>
<path d="M17.4736 11.0656C17.5888 10.7643 17.8907 10.7952 17.9926 10.9237C18.2896 10.7552 18.3296 11.1365 18.5824 11.0613C18.5782 11.1323 18.4939 11.1989 18.4006 11.1941C18.4982 11.2827 18.3606 11.416 18.5691 11.4955C18.3915 11.584 18.1435 11.4912 18.0768 11.2469C18.0192 11.3621 17.8107 11.3621 17.7264 11.2693C17.9083 11.2208 17.895 11.0523 17.7931 10.9856C17.6902 10.9184 17.5088 10.9456 17.4736 11.0656Z" fill="#337321" stroke="black" stroke-width="0.03"/>
<path d="M16.5745 11.7281C16.6572 11.9948 16.8284 12.2433 17.0129 12.4124C17.2257 12.6076 17.5473 12.5585 17.7271 12.3724C17.7313 12.7436 17.3468 12.7724 17.1329 12.6561C17.0385 12.6049 16.9623 12.6316 17.0529 12.7137C17.1905 12.838 17.4913 12.9303 17.8465 13.0065C18.4673 13.1393 18.246 13.6321 18.0641 13.6273C18.1164 13.6263 18.1591 13.5719 18.0839 13.5041C17.5452 13.0193 16.4497 13.2103 16.4673 12.1281C16.3521 12.4119 15.8775 12.3009 16.0993 11.9639C16.1703 12.0215 16.2945 12.0258 16.3303 11.9372C16.358 11.8684 16.3399 11.7484 16.2156 11.6449C16.2359 11.6433 16.2801 11.6449 16.2753 11.5938C16.2807 11.6236 16.3079 11.6679 16.3777 11.653C16.3975 11.6844 16.4188 11.7052 16.4471 11.694C16.4524 11.6919 16.4695 11.6833 16.4625 11.6519C16.4679 11.7116 16.5377 11.7324 16.5745 11.7281Z" fill="#337321" stroke="black" stroke-width="0.03"/>
<path d="M17.1316 12.66C17.3886 12.8285 17.6798 12.8285 17.9476 12.5181C18.0318 12.4205 18.1646 12.3363 18.258 12.3272C18.3513 12.3181 18.3465 12.2296 18.4174 12.212C18.3732 12.1987 18.3556 12.1453 18.2889 12.1523C18.4553 12.0947 18.4062 11.9613 18.4884 11.8973C18.4217 11.9219 18.3177 11.8221 18.2222 11.9485C18.2468 11.8909 18.2132 11.8221 18.1892 11.7955C18.1982 11.8621 18.0585 11.8755 18.0318 12.044C18.0169 12.1384 17.9652 12.1325 17.9566 11.9864C17.9502 11.8792 17.899 11.5827 17.8372 11.4323C17.7753 11.2813 17.7609 11.0744 17.8452 11.0435C17.8324 11.0221 17.8148 11.0029 17.7929 10.9891C17.69 10.9219 17.5092 10.9491 17.4734 11.0691C17.3582 11.3704 17.682 11.5437 17.6553 11.8717C17.6068 11.628 17.2116 11.5656 17.2164 11.3261C17.0878 11.3837 17.1054 11.4904 17.1545 11.5747C17.0745 11.4504 16.8926 11.6547 16.7374 11.4861C16.7198 11.708 16.915 11.7923 17.0745 11.8008C16.9945 11.9427 17.1012 12.0627 17.2073 12.1021C17.2116 11.8536 17.7209 11.9555 17.7262 12.3816C17.7305 12.7443 17.3401 12.7752 17.1316 12.66Z" fill="#F7E017" stroke="black" stroke-width="0.03"/>
<path d="M17.8466 13.0078C18.4674 13.1406 18.246 13.6334 18.0642 13.6286C17.9484 13.6259 17.838 13.5289 17.8311 13.4446C17.6983 13.5155 17.7335 13.6553 17.8354 13.7107C17.5559 13.6777 17.4386 13.8617 17.4316 14.0633C17.4828 13.9699 17.638 13.9635 17.6956 13.9833C17.7532 14.003 17.902 14.0142 17.9618 13.9475C17.9127 13.9897 17.9927 14.0873 17.9239 14.1625C18.157 14.1534 18.2588 13.9363 18.2188 13.8409C18.5207 13.5667 18.4631 13.1187 17.8466 13.0078Z" fill="#F7E017" stroke="black" stroke-width="0.03"/>
<path d="M17.3737 15.1168C17.4142 15.1418 17.4089 15.1952 17.3817 15.2288C17.3267 15.296 17.4094 15.4565 17.2403 15.4837C17.1902 15.4917 17.1534 15.4597 17.1369 15.4026C17.091 15.2448 17.2574 15.2341 17.275 15.16C17.2931 15.0864 17.3395 15.0954 17.3737 15.1168Z" fill="#F7E017" stroke="black" stroke-width="0.03"/>
<path d="M17.2207 15.4038C17.2751 15.4316 17.322 15.47 17.2932 15.647C17.2809 15.7206 17.2783 15.8993 17.3428 15.9041C17.3023 15.9222 17.2175 15.9398 17.1844 15.8929C17.1487 15.9473 17.074 15.9281 17.0468 15.8577C17.0057 15.8881 16.9535 15.8316 16.9556 15.7846C16.9199 15.8054 16.8521 15.7708 16.8735 15.6652C16.8308 15.6785 16.7775 15.6465 16.7588 15.6188C16.8212 15.6086 16.9801 15.5308 17.0201 15.4652C17.0596 15.4001 17.1572 15.3718 17.2207 15.4038Z" fill="#F7E017" stroke="black" stroke-width="0.03"/>
<path d="M17.1846 15.8894C17.2027 15.8654 17.2134 15.7614 17.2032 15.6979" stroke="black" stroke-width="0.03"/>
<path d="M17.0469 15.8557C17.0751 15.8359 17.1295 15.7661 17.1407 15.7031" stroke="black" stroke-width="0.03"/>
<path d="M16.9551 15.7816C16.9903 15.7666 17.0788 15.661 17.1001 15.5912" stroke="black" stroke-width="0.03"/>
<path d="M16.873 15.6633C16.9141 15.6564 17.0426 15.5796 17.0976 15.4948" stroke="black" stroke-width="0.03"/>
<path d="M16.467 12.1302C16.4595 12.5846 16.6483 12.815 16.9102 12.9644C16.8131 12.9062 16.8553 12.7068 16.7241 12.6422C16.755 12.6401 16.8041 12.6844 16.8814 12.6668C16.8435 12.5825 16.7817 12.454 16.6377 12.4364C16.6755 12.4321 16.7577 12.4454 16.8105 12.4252C16.7353 12.3094 16.5358 12.3649 16.467 12.1302Z" fill="#F7E017" stroke="black" stroke-width="0.03"/>
<path d="M16.4199 11.7003C16.4039 11.695 16.3906 11.679 16.3773 11.6582C16.3074 11.6731 16.2802 11.6288 16.2749 11.599C16.2791 11.6502 16.2354 11.648 16.2146 11.6496C16.3394 11.7531 16.3575 11.8731 16.3298 11.9419C16.2941 12.0304 16.1703 12.0262 16.0989 11.9686C16.0898 12.1568 16.3341 12.2192 16.4226 11.9819C16.4226 12.0219 16.4738 12.0176 16.4871 12.0704C16.5501 11.9686 16.5021 11.8219 16.4199 11.7003Z" fill="#F7E017" stroke="black" stroke-width="0.03"/>
<path d="M16.0306 10.7975C15.9197 10.6957 15.8685 10.525 15.8733 10.4274C15.8776 10.3298 15.9176 10.2231 16.0594 10.2679C16.0152 10.2679 16.0461 10.3565 15.9997 10.3655C16.0376 10.3789 16.0882 10.3479 16.0952 10.3277C16.1042 10.3586 16.1618 10.3501 16.1661 10.3853C16.1885 10.3677 16.164 10.2813 16.1309 10.2631C16.1554 10.2498 16.1688 10.181 16.1576 10.1479C16.1352 10.1522 16.1021 10.1837 16.0957 10.2279C16.1069 10.1922 16.0936 10.1037 16.0312 10.0903C16.0136 10.1149 16.0088 10.1746 16.0333 10.2077C15.9757 10.1943 15.8914 10.2322 15.8712 10.2807C15.8754 10.2221 15.884 10.1383 15.9202 10.0855C15.9325 10.0679 15.9026 10.037 15.8792 10.0791C15.836 9.99485 15.7208 9.95059 15.6696 9.99272C15.6184 10.0349 15.5501 9.97299 15.508 10.0391C15.4658 10.1058 15.3229 10.1127 15.3304 10.1831C15.3346 10.2253 15.3245 10.2903 15.3037 10.3138C15.2525 10.3714 15.3282 10.4135 15.3416 10.4647C15.3325 10.2962 15.6008 9.96819 15.8696 10.0967C15.845 10.1389 15.8237 10.2231 15.8162 10.325C15.805 10.4759 15.8274 10.6887 15.9736 10.813L16.0306 10.7975Z" fill="#337321" stroke="black" stroke-width="0.03"/>
<path d="M16.1094 10.2678C16.1078 10.2278 16.1771 10.176 16.2699 10.1771C16.3819 10.1782 16.4683 10.28 16.5579 10.2704C16.6475 10.2603 16.6033 10.3104 16.5846 10.3238C16.5659 10.3371 16.5547 10.3568 16.5611 10.3814C16.5675 10.4059 16.5563 10.4219 16.5201 10.399C16.4401 10.3488 16.3606 10.4187 16.255 10.3803C16.1649 10.3462 16.1121 10.3275 16.1094 10.2678Z" fill="#CF142B" stroke="black" stroke-width="0.03"/>
<path d="M15.6527 11.3169C15.6084 11.1771 15.4399 11.0241 15.3578 10.9889L15.3535 10.9137C15.3978 10.8961 15.5044 10.8118 15.553 10.7649C15.8858 10.9243 16.338 10.6982 16.5466 10.4635L16.6266 10.5121L16.5866 10.5654L16.5444 10.543C16.4932 10.6049 16.3028 10.7841 16.2452 10.8219C16.3226 10.8417 16.4287 10.855 16.458 10.8534C16.6442 10.7201 16.7903 10.6006 16.8612 10.5915L16.921 10.6715L16.8676 10.7094L16.8255 10.6849C16.626 10.8491 16.3999 11.2081 16.3108 11.4475C16.1871 11.4209 15.7434 11.4385 15.6527 11.3169Z" fill="#96877D" stroke="black" stroke-width="0.03"/>
<path d="M16.2456 10.8209C16.2168 10.8134 16.1923 10.8054 16.1768 10.7969C16.1411 10.8299 16.0525 10.8587 15.9395 10.8635" stroke="black" stroke-width="0.03"/>
<path d="M15.6711 11.2665C15.6412 11.1012 15.6887 10.9182 15.7729 10.8628C15.9569 10.9849 16.2721 10.9849 16.4583 10.8516" stroke="black" stroke-width="0.03"/>
<path d="M15.6709 11.1828C15.8128 11.1785 16.121 11.2025 16.1962 11.2137C16.2714 11.2249 16.3978 11.2559 16.3802 11.2937" stroke="black" stroke-width="0.03"/>
<path d="M15.7358 11.1592L15.7769 11.1187L15.7358 11.0781L15.6953 11.1181L15.7358 11.1592Z" stroke="black" stroke-width="0.03"/>
<path d="M15.8325 10.3324C15.7813 10.2615 15.641 10.2391 15.6106 10.3345C15.5973 10.3767 15.5775 10.4209 15.5439 10.4412C15.5109 10.4609 15.5183 10.5217 15.5327 10.5479C15.5679 10.6124 15.537 10.6743 15.6058 10.7164C15.6058 10.6652 15.681 10.6124 15.7455 10.5991C15.8101 10.5857 15.9071 10.5281 15.9205 10.4636C15.9343 10.3985 15.9567 10.3452 15.8325 10.3324Z" fill="#337321" stroke="black" stroke-width="0.03"/>
<path d="M15.5129 10.9688H15.5305L15.5311 11.0898C15.5348 11.0909 15.5385 11.093 15.5417 11.0951L15.6463 11.0349L15.6553 11.0503L15.5503 11.1111C15.5508 11.1149 15.5513 11.1192 15.5508 11.1229L15.6553 11.1832L15.6463 11.1986L15.5407 11.1389C15.538 11.1416 15.5343 11.1442 15.5305 11.1453V11.2658H15.5129V11.1448C15.5092 11.1437 15.5055 11.1415 15.5023 11.1394L15.3977 11.1997L15.3887 11.1842L15.4937 11.1234C15.4932 11.1197 15.4927 11.1154 15.4932 11.1117L15.3887 11.0514L15.3977 11.0359L15.5028 11.0962C15.5055 11.0936 15.5092 11.0909 15.5129 11.0898V10.9688Z" fill="#96877D" stroke="black" stroke-width="0.03"/>
<path d="M15.671 11.2646C15.6331 11.303 15.5803 11.3265 15.5217 11.3265C15.4054 11.3265 15.3115 11.2326 15.3115 11.1164C15.3115 11.0001 15.4054 10.9062 15.5217 10.9062C15.5899 10.9062 15.6502 10.9388 15.6886 10.9889C15.6779 11.0156 15.6651 11.0748 15.6641 11.1014C15.6566 11.0289 15.5958 10.9724 15.5211 10.9724C15.4417 10.9724 15.3777 11.0369 15.3777 11.1158C15.3777 11.1953 15.4422 11.2593 15.5211 11.2593C15.5873 11.2593 15.6449 11.2129 15.6614 11.1516C15.6619 11.1793 15.663 11.2428 15.671 11.2646Z" fill="#96877D" stroke="black" stroke-width="0.03"/>
<path d="M15.4329 11.4657C15.4195 11.4502 15.395 11.4081 15.3977 11.3772C15.4174 11.375 15.4553 11.3884 15.4729 11.406C15.4707 11.3836 15.4617 11.335 15.4665 11.3126C15.491 11.3217 15.5417 11.3505 15.5598 11.3836C15.5555 11.3612 15.5465 11.3036 15.5555 11.2684C15.5822 11.2838 15.6265 11.326 15.6355 11.3548C15.6377 11.3105 15.6531 11.2374 15.6665 11.2193C15.6862 11.239 15.7177 11.2572 15.7374 11.2838C15.7417 11.2481 15.7598 11.206 15.7859 11.1953C15.8057 11.2177 15.8371 11.2684 15.8435 11.326C15.8633 11.3196 15.8899 11.286 15.9011 11.2684C15.9123 11.286 15.9235 11.3169 15.9166 11.3548C15.9411 11.3324 15.9699 11.3014 15.9763 11.2748C15.9939 11.2881 16.0275 11.3212 16.0361 11.3569C16.0318 11.3281 16.0339 11.2769 16.0249 11.2481C16.0579 11.2657 16.0846 11.2966 16.0915 11.3302C16.1006 11.2993 16.1203 11.2438 16.1379 11.2305C16.1555 11.2662 16.1737 11.3084 16.171 11.3436C16.1822 11.3212 16.1998 11.2817 16.2174 11.2726C16.2329 11.2972 16.2307 11.3505 16.2265 11.3793C16.2419 11.3569 16.2707 11.3308 16.2883 11.3217C16.2905 11.335 16.2926 11.3617 16.2883 11.3814C16.3081 11.3702 16.3417 11.3105 16.3529 11.2796C16.3838 11.295 16.4147 11.3484 16.4174 11.375C16.4398 11.366 16.4841 11.3265 16.4974 11.3041C16.4974 11.3196 16.5043 11.3617 16.4953 11.3948C16.5086 11.3814 16.5219 11.3548 16.5283 11.3436C16.5374 11.366 16.5305 11.4188 16.5214 11.4476C16.5411 11.43 16.5705 11.4188 16.5881 11.4188C16.5902 11.4566 16.5635 11.5228 16.539 11.5718C16.3267 11.5126 15.8809 11.4902 15.4329 11.4657Z" fill="#337321" stroke="black" stroke-width="0.03"/>
<path d="M16.1758 10.2924C16.1747 10.2759 16.211 10.2391 16.2766 10.2396C16.355 10.2401 16.4275 10.2977 16.4899 10.2935C16.5529 10.2892 16.5219 10.31 16.5086 10.3153C16.4953 10.3207 16.4878 10.3292 16.4921 10.3388C16.4969 10.3489 16.4889 10.3553 16.4633 10.3463C16.4073 10.326 16.3513 10.3543 16.2777 10.3388C16.2142 10.3244 16.1774 10.3169 16.1758 10.2924Z" fill="#F7E017"/>
<path d="M15.502 11.6003C15.4353 11.6803 15.3692 11.667 15.3558 11.6158C15.3425 11.5646 15.3916 11.5406 15.3734 11.4958C15.3558 11.4515 15.4022 11.4313 15.4246 11.4515C15.447 11.4713 15.518 11.4073 15.5489 11.4739C15.5798 11.5406 15.6044 11.587 15.5868 11.6137C15.5686 11.6403 15.5153 11.627 15.502 11.6003Z" fill="#F7E017" stroke="black" stroke-width="0.03"/>
<path d="M15.7876 11.4811C15.7753 11.4518 15.8441 11.3958 15.8798 11.4358C15.9156 11.4758 15.971 11.3926 16.002 11.4555C16.0329 11.519 16.043 11.5521 16.0585 11.5873C16.074 11.623 15.9742 11.6417 15.9433 11.6107C15.9476 11.6315 15.8569 11.6481 15.8324 11.5883C15.819 11.5569 15.8046 11.5201 15.7876 11.4811Z" fill="#F7E017" stroke="black" stroke-width="0.03"/>
<path d="M16.2493 11.5146C16.2327 11.4837 16.3138 11.4394 16.3559 11.496C16.3671 11.4725 16.4471 11.4682 16.4525 11.536C16.4578 11.6037 16.4605 11.6437 16.4626 11.6704C16.4647 11.697 16.4141 11.7216 16.3773 11.6538C16.3117 11.6672 16.2818 11.6304 16.2743 11.592C16.2663 11.5525 16.2583 11.5333 16.2493 11.5146Z" fill="#F7E017" stroke="black" stroke-width="0.03"/>
<path d="M15.545 11.4723C15.5348 11.4499 15.6015 11.4057 15.6468 11.4393C15.6922 11.4723 15.7551 11.4105 15.7823 11.4702C15.8367 11.5913 15.8399 11.5998 15.8234 11.6233C15.8068 11.6467 15.7359 11.6377 15.7178 11.6057C15.7146 11.6281 15.6532 11.6243 15.6212 11.6067C15.585 11.5865 15.5594 11.5123 15.545 11.4723Z" fill="#337321" stroke="black" stroke-width="0.03"/>
<path d="M16.0123 11.4762C15.9968 11.442 16.1008 11.4116 16.1467 11.4719C16.1702 11.4506 16.2208 11.4495 16.2496 11.5151C16.2784 11.5807 16.2827 11.617 16.2619 11.6335C16.247 11.6452 16.1931 11.6543 16.1755 11.6244C16.151 11.6399 16.0758 11.6266 16.0592 11.5844C16.0427 11.5428 16.0283 11.506 16.0123 11.4762Z" fill="#337321" stroke="black" stroke-width="0.03"/>
<path d="M16.4532 11.5445C16.4511 11.5135 16.5076 11.4991 16.5284 11.5445C16.5497 11.5898 16.6169 11.5487 16.6228 11.6245C16.6239 11.6389 16.6148 11.6943 16.594 11.721C16.5732 11.7477 16.4697 11.721 16.4633 11.6645C16.4564 11.6074 16.4543 11.5754 16.4532 11.5445Z" fill="#337321" stroke="black" stroke-width="0.03"/>
<path d="M15.5021 11.6025C15.4775 11.5694 15.4445 11.5161 15.4023 11.5737" stroke="black" stroke-width="0.03"/>
<path d="M15.7187 11.6093C15.7043 11.5906 15.6856 11.5592 15.6787 11.5352" stroke="black" stroke-width="0.03"/>
<path d="M15.9438 11.6125C15.9283 11.6013 15.9048 11.5794 15.8926 11.556" stroke="black" stroke-width="0.03"/>
<path d="M15.9238 11.4961C15.9628 11.5004 15.9894 11.5372 16.0012 11.5537C16.0134 11.5702 16.039 11.6001 16.0588 11.6038" stroke="black" stroke-width="0.03"/>
<path d="M16.1754 11.6271C16.162 11.6057 16.1487 11.5871 16.1455 11.5716" stroke="black" stroke-width="0.03"/>
<path d="M16.1465 11.4753C16.1598 11.4939 16.17 11.5094 16.1774 11.5275" stroke="black" stroke-width="0.03"/>
<path d="M16.3764 11.6557C16.3588 11.6226 16.3311 11.5901 16.3076 11.5794" stroke="black" stroke-width="0.03"/>
<path d="M16.3682 11.5352C16.3703 11.6008 16.4578 11.605 16.4615 11.6514" stroke="black" stroke-width="0.03"/>
<path d="M16.5283 11.5456C16.5374 11.5621 16.5406 11.5786 16.5417 11.6064" stroke="black" stroke-width="0.03"/>
<path d="M20 6L20 18L4 18L4 6L20 6ZM20 5L4 5C3.4 5 3 5.4 3 6L3 18C3 18.6 3.4 19 4 19L20 19C20.6 19 21 18.6 21 18L21 6C21 5.4 20.6 5 20 5Z" fill="#B5B5B5"/>
</svg>
