<svg width="24" height="24" viewBox="0 0 24 24" fill="none" xmlns="http://www.w3.org/2000/svg">
<path d="M20 6H4V18H20V6Z" fill="#FF0000"/>
<path d="M11.2 6H4V18H11.2V6Z" fill="#006600"/>
<path fill-rule="evenodd" clip-rule="evenodd" d="M13.5468 13.8625C12.6405 13.8352 8.48455 11.2411 8.45605 10.828L8.68554 10.4453C9.09777 11.0443 13.3463 13.5671 13.7636 13.4777L13.5467 13.8624" fill="#FFFF00"/>
<path d="M13.5468 13.8625C12.6405 13.8352 8.48455 11.2411 8.45605 10.828L8.68554 10.4453C9.09777 11.0443 13.3463 13.5671 13.7636 13.4777L13.5467 13.8624" stroke="black" stroke-width="0.03" stroke-linecap="round" stroke-linejoin="round"/>
<path fill-rule="evenodd" clip-rule="evenodd" d="M8.63707 10.3955C8.55576 10.6143 9.72154 11.335 11.1242 12.1881C12.5267 13.0411 13.7361 13.5683 13.8257 13.4927C13.8312 13.4829 13.8698 13.4164 13.8663 13.417C13.8495 13.4423 13.8086 13.4503 13.7448 13.4319C13.3659 13.3226 12.3775 12.8689 11.1536 12.1267C9.92963 11.3844 8.86475 10.7004 8.69924 10.4097C8.68773 10.3896 8.67953 10.3529 8.68119 10.3243L8.67717 10.3242L8.64193 10.3858L8.63709 10.3955H8.63706L8.63707 10.3955ZM13.5679 13.8767C13.5525 13.9045 13.5238 13.9055 13.4694 13.8995C13.1304 13.862 12.1017 13.3617 10.8846 12.6331C9.46826 11.7853 8.29856 11.0128 8.42546 10.8109L8.45998 10.7499L8.46678 10.752C8.35267 11.0941 10.7752 12.4793 10.9178 12.5676C12.3196 13.436 13.5013 13.9432 13.6059 13.8114L13.5678 13.8768V13.8767L13.5679 13.8767Z" fill="#FFFF00" stroke="black" stroke-width="0.03" stroke-linecap="round" stroke-linejoin="round"/>
<path fill-rule="evenodd" clip-rule="evenodd" d="M11.2044 11.077C12.1115 11.0698 13.2309 10.953 13.8751 10.6963L13.7363 10.4708C13.3556 10.6815 12.23 10.8201 11.1968 10.8408C9.97467 10.8296 9.11205 10.7158 8.67984 10.4258L8.54883 10.6659C9.34335 11.0021 10.1575 11.0735 11.2044 11.077" fill="#FFFF00"/>
<path d="M11.2044 11.077C12.1115 11.0698 13.2309 10.953 13.8751 10.6963L13.7363 10.4708C13.3556 10.6815 12.23 10.8201 11.1968 10.8408C9.97467 10.8296 9.11205 10.7158 8.67984 10.4258L8.54883 10.6659C9.34335 11.0021 10.1575 11.0735 11.2044 11.077" stroke="black" stroke-width="0.03" stroke-linecap="round" stroke-linejoin="round"/>
<path fill-rule="evenodd" clip-rule="evenodd" d="M13.9125 10.7046C13.8903 10.7401 13.4702 10.8849 12.8513 10.9919C12.4317 11.0558 11.8843 11.1105 11.2012 11.1112C10.5522 11.1118 10.022 11.0656 9.62067 11.0112C8.97099 10.9093 8.63568 10.7676 8.51172 10.7175C8.52357 10.6939 8.53119 10.6774 8.54262 10.6554C8.89947 10.7975 9.23634 10.8831 9.63099 10.9439C10.0297 10.9979 10.5535 11.0447 11.1993 11.0441C11.8792 11.0434 12.4205 10.9846 12.8378 10.9225C13.4724 10.8201 13.8191 10.6884 13.8678 10.6272L13.9126 10.7046H13.9125H13.9125ZM13.7907 10.4759C13.7219 10.5312 13.3791 10.6527 12.7761 10.749C12.3737 10.8067 11.862 10.8583 11.2082 10.859C10.587 10.8596 10.0796 10.8177 9.69362 10.7615C9.0812 10.6815 8.75525 10.5372 8.63774 10.4952C8.64943 10.4749 8.66134 10.4549 8.67356 10.4348C8.765 10.4808 9.07955 10.6085 9.70034 10.6964C10.0819 10.7505 10.5902 10.7909 11.2082 10.7902C11.8589 10.7896 12.3648 10.7369 12.7647 10.6796C13.3708 10.5962 13.697 10.4412 13.7465 10.4023L13.7907 10.4759V10.4759L13.7907 10.4759Z" fill="#FFFF00" stroke="black" stroke-width="0.03" stroke-linecap="round" stroke-linejoin="round"/>
<path fill-rule="evenodd" clip-rule="evenodd" d="M8.22601 12.17C8.78395 12.47 10.0232 12.6213 11.1958 12.6317C12.2636 12.6334 13.6546 12.4666 14.1747 12.191L14.1604 11.8906C13.9977 12.1449 12.507 12.3889 11.1842 12.3789C9.86145 12.3689 8.6331 12.1646 8.22363 11.9001L8.22602 12.1699" fill="#FFFF00"/>
<path d="M8.22601 12.17C8.78395 12.47 10.0232 12.6213 11.1958 12.6317C12.2636 12.6334 13.6546 12.4666 14.1747 12.191L14.1604 11.8906C13.9977 12.1449 12.507 12.3889 11.1842 12.3789C9.86145 12.3689 8.6331 12.1646 8.22363 11.9001L8.22602 12.1699" stroke="black" stroke-width="0.03" stroke-linecap="round" stroke-linejoin="round"/>
<path fill-rule="evenodd" clip-rule="evenodd" d="M14.2028 12.1304L14.2029 12.202C14.1247 12.2955 13.6345 12.4368 13.0198 12.5363C12.5519 12.608 11.9419 12.6621 11.1819 12.6621C10.4598 12.6621 9.884 12.6106 9.43745 12.542C8.73158 12.4393 8.28008 12.2593 8.18945 12.2055L8.18985 12.122C8.46209 12.303 9.19968 12.4354 9.44736 12.4759C9.891 12.544 10.4634 12.5951 11.1819 12.5951C11.9383 12.5951 12.5449 12.5414 13.0098 12.4701C13.4508 12.4064 14.0791 12.2407 14.2028 12.1304H14.2028L14.2028 12.1304ZM14.2031 11.8756L14.2032 11.9472C14.125 12.0407 13.6348 12.1819 13.0201 12.2814C12.5522 12.3532 11.9422 12.4073 11.1822 12.4073C10.4601 12.4073 9.8843 12.3558 9.43775 12.2872C8.73188 12.1845 8.28038 12.0045 8.18975 11.9507L8.19015 11.8672C8.46239 12.0482 9.19998 12.1806 9.44766 12.2211C9.8913 12.2892 10.4637 12.3403 11.1822 12.3403C11.9386 12.3403 12.5452 12.2866 13.0101 12.2153C13.4511 12.1516 14.0794 11.9859 14.2031 11.8756L14.2031 11.8756L14.2031 11.8756Z" fill="#FFFF00" stroke="black" stroke-width="0.03" stroke-linecap="round" stroke-linejoin="round"/>
<path fill-rule="evenodd" clip-rule="evenodd" d="M11.1929 13.8096C9.90976 13.8019 8.81029 13.4598 8.57812 13.4033L8.74742 13.6683C9.15752 13.8408 10.2301 14.0979 11.2052 14.0694C12.1804 14.041 13.0325 13.9655 13.6331 13.6731L13.8067 13.3984C13.3974 13.5912 12.0046 13.8076 11.1929 13.8096" fill="#FFFF00"/>
<path d="M11.1929 13.8096C9.90976 13.8019 8.81029 13.4598 8.57812 13.4033L8.74742 13.6683C9.15752 13.8408 10.2301 14.0979 11.2052 14.0694C12.1804 14.041 13.0325 13.9655 13.6331 13.6731L13.8067 13.3984C13.3974 13.5912 12.0046 13.8076 11.1929 13.8096" stroke="black" stroke-width="0.03" stroke-linecap="round" stroke-linejoin="round"/>
<path fill-rule="evenodd" clip-rule="evenodd" d="M13.6981 13.6116C13.6726 13.6506 13.6466 13.6891 13.6202 13.7265C13.337 13.8264 12.8907 13.9312 12.7023 13.9618C12.3176 14.0411 11.7224 14.0996 11.1941 14.0999C10.0574 14.0832 9.12694 13.8607 8.68921 13.6709L8.6539 13.6102L8.65966 13.6011L8.71956 13.6243C9.498 13.9028 10.3723 14.0139 11.2005 14.0339C11.7266 14.0357 12.2534 13.9736 12.6793 13.8974C13.3324 13.7665 13.5965 13.6679 13.6775 13.6232L13.6981 13.6116H13.6981L13.6981 13.6116ZM13.8486 13.3633C13.8493 13.3641 13.85 13.3648 13.8506 13.3657C13.8315 13.3979 13.8119 13.4306 13.7917 13.4635C13.6407 13.5175 13.2307 13.6375 12.632 13.7212C12.2375 13.7749 11.9923 13.827 11.2076 13.8422C9.73713 13.8048 8.78508 13.5173 8.55891 13.4464L8.52539 13.3821C9.37757 13.6045 10.2481 13.7598 11.2076 13.7757C11.9256 13.7604 12.231 13.7076 12.6222 13.6542C13.3203 13.5457 13.6721 13.4307 13.7776 13.3975C13.7763 13.3956 13.7748 13.3936 13.773 13.3916L13.8487 13.3633L13.8486 13.3633L13.8486 13.3633Z" fill="#FFFF00" stroke="black" stroke-width="0.03" stroke-linecap="round" stroke-linejoin="round"/>
<path fill-rule="evenodd" clip-rule="evenodd" d="M13.864 11.9332C13.8682 12.7773 13.4362 13.5348 13.0883 13.869C12.596 14.3417 11.9434 14.6459 11.1812 14.6599C10.3301 14.6755 9.52759 14.1206 9.31234 13.8769C8.8915 13.4003 8.54887 12.7952 8.53789 11.9796C8.59002 11.0583 8.95168 10.4166 9.47593 9.97654C10.0002 9.53647 10.6982 9.32215 11.2796 9.33748C11.9503 9.35518 12.7338 9.68422 13.2752 10.3374C13.6299 10.7654 13.7835 11.2299 13.864 11.9332ZM11.1884 9.04297C12.823 9.04297 14.1673 10.3731 14.1673 12.0041C14.1673 13.635 12.823 14.9652 11.1884 14.9652C9.55387 14.9652 8.2207 13.635 8.2207 12.0041C8.2207 10.3731 9.55387 9.04297 11.1884 9.04297Z" fill="#FFFF00"/>
<path d="M11.1884 9.04297C12.823 9.04297 14.1673 10.3731 14.1673 12.0041C14.1673 13.635 12.823 14.9652 11.1884 14.9652C9.55387 14.9652 8.2207 13.635 8.2207 12.0041C8.2207 10.3731 9.55387 9.04297 11.1884 9.04297M13.864 11.9332C13.8682 12.7773 13.4362 13.5348 13.0883 13.869C12.596 14.3417 11.9434 14.6459 11.1812 14.6599C10.3301 14.6755 9.52759 14.1206 9.31234 13.8769C8.8915 13.4003 8.54887 12.7952 8.53789 11.9796C8.59002 11.0583 8.95168 10.4166 9.47593 9.97654C10.0002 9.53647 10.6982 9.32215 11.2796 9.33748C11.9503 9.35518 12.7338 9.68422 13.2752 10.3374C13.6299 10.7654 13.7835 11.2299 13.864 11.9332Z" stroke="black" stroke-width="0.03" stroke-linecap="round" stroke-linejoin="round"/>
<path fill-rule="evenodd" clip-rule="evenodd" d="M11.1969 9.03516C12.8329 9.03516 14.1672 10.3696 14.1672 12.0058C14.1672 13.642 12.8329 14.9764 11.1969 14.9764C9.56087 14.9764 8.22656 13.642 8.22656 12.0058C8.22656 10.3696 9.5609 9.03516 11.1969 9.03516ZM8.29193 12.0058C8.29193 13.6036 9.60401 14.9111 11.1969 14.9111C12.7898 14.9111 14.1019 13.6036 14.1019 12.0058C14.1019 10.408 12.7898 9.10051 11.1969 9.10051C9.60401 9.10051 8.29193 10.408 8.29193 12.0058Z" fill="#FFFF00" stroke="black" stroke-width="0.03" stroke-linecap="round" stroke-linejoin="round"/>
<path fill-rule="evenodd" clip-rule="evenodd" d="M11.1993 9.28119C12.6912 9.28119 13.9201 10.5058 13.9201 12.0023C13.9201 13.4988 12.6912 14.7234 11.1993 14.7234C9.70741 14.7234 8.47852 13.4988 8.47852 12.0023C8.47852 10.5058 9.70744 9.28119 11.1993 9.28119ZM8.54386 12.0023C8.54386 13.4628 9.74323 14.658 11.1993 14.658C12.6554 14.658 13.8548 13.4628 13.8548 12.0023C13.8548 10.5417 12.6554 9.34654 11.1993 9.34654C9.74323 9.34654 8.54386 10.5417 8.54386 12.0023Z" fill="#FFFF00"/>
<path d="M8.54386 12.0023C8.54386 13.4628 9.74323 14.658 11.1993 14.658C12.6554 14.658 13.8548 13.4628 13.8548 12.0023C13.8548 10.5417 12.6554 9.34654 11.1993 9.34654C9.74323 9.34654 8.54386 10.5417 8.54386 12.0023Z" fill="#FFFF00"/>
<path fill-rule="evenodd" clip-rule="evenodd" d="M11.1993 9.28119C12.6912 9.28119 13.9201 10.5058 13.9201 12.0023C13.9201 13.4988 12.6912 14.7234 11.1993 14.7234C9.70741 14.7234 8.47852 13.4988 8.47852 12.0023C8.47852 10.5058 9.70744 9.28119 11.1993 9.28119ZM8.54386 12.0023C8.54386 13.4628 9.74323 14.658 11.1993 14.658C12.6554 14.658 13.8548 13.4628 13.8548 12.0023C13.8548 10.5417 12.6554 9.34654 11.1993 9.34654C9.74323 9.34654 8.54386 10.5417 8.54386 12.0023Z" stroke="black" stroke-width="0.03" stroke-linecap="round" stroke-linejoin="round"/>
<path d="M8.54386 12.0023C8.54386 13.4628 9.74323 14.658 11.1993 14.658C12.6554 14.658 13.8548 13.4628 13.8548 12.0023C13.8548 10.5417 12.6554 9.34654 11.1993 9.34654C9.74323 9.34654 8.54386 10.5417 8.54386 12.0023Z" stroke="black" stroke-width="0.03" stroke-linecap="round" stroke-linejoin="round"/>
<path fill-rule="evenodd" clip-rule="evenodd" d="M11.319 9.02344H11.0645L11.0648 14.9922H11.3202L11.319 9.02344Z" fill="#FFFF00" stroke="black" stroke-width="0.03" stroke-linecap="round" stroke-linejoin="round"/>
<path fill-rule="evenodd" clip-rule="evenodd" d="M11.2937 8.98828H11.3584L11.359 15.0258H11.2942L11.2937 8.98828H11.2937ZM11.041 8.98834H11.1063L11.1064 15.0258H11.0411V8.98834H11.041Z" fill="#FFFF00" stroke="black" stroke-width="0.03" stroke-linecap="round" stroke-linejoin="round"/>
<path fill-rule="evenodd" clip-rule="evenodd" d="M14.1689 12.1206V11.8999L13.9892 11.7325L12.9692 11.4625L11.4992 11.3125L9.72924 11.4025L8.46924 11.7025L8.21484 11.8909V12.1116L8.85924 11.8225L10.3892 11.5825H11.8592L12.9392 11.7025L13.6892 11.8825L14.1689 12.1206Z" fill="#FFFF00" stroke="black" stroke-width="0.03" stroke-linecap="round" stroke-linejoin="round"/>
<path fill-rule="evenodd" clip-rule="evenodd" d="M11.198 11.5438C11.8995 11.5426 12.5801 11.6103 13.12 11.7154C13.6771 11.8268 14.0691 11.9661 14.2031 12.1226L14.203 12.2C14.0413 12.0053 13.5138 11.8626 13.1074 11.781C12.5717 11.6768 11.8957 11.6095 11.198 11.6108C10.4619 11.6122 9.77642 11.6819 9.24851 11.7849C8.82491 11.8689 8.25998 12.0359 8.18945 12.2006V12.1199C8.22819 12.0059 8.64884 11.8356 9.23897 11.7174C9.77084 11.6137 10.4576 11.5452 11.198 11.5438V11.5438ZM11.1983 11.2891C11.8998 11.2878 12.5804 11.3556 13.1203 11.4607C13.6774 11.5721 14.0694 11.7113 14.2034 11.8678L14.2033 11.9453C14.0416 11.7506 13.5141 11.6079 13.1077 11.5263C12.572 11.422 11.896 11.3547 11.1983 11.3561C10.4622 11.3574 9.78005 11.4272 9.25208 11.5301C8.8433 11.6076 8.2553 11.7812 8.18972 11.9459V11.8652C8.22846 11.7524 8.65763 11.5759 9.23927 11.4627C9.77114 11.359 10.4579 11.2905 11.1983 11.2891V11.2891Z" fill="#FFFF00" stroke="black" stroke-width="0.03" stroke-linecap="round" stroke-linejoin="round"/>
<path fill-rule="evenodd" clip-rule="evenodd" d="M11.1837 9.99233C12.2892 9.9868 13.2534 10.1469 13.6946 10.3729L13.8555 10.6512C13.472 10.4446 12.4318 10.2297 11.1853 10.2619C10.1697 10.2681 9.08451 10.3737 8.54004 10.6642L8.73214 10.3429C9.17899 10.1112 10.2328 9.99362 11.1837 9.99239" fill="#FFFF00"/>
<path d="M11.1837 9.99233C12.2892 9.9868 13.2534 10.1469 13.6946 10.3729L13.8555 10.6512C13.472 10.4446 12.4318 10.2297 11.1853 10.2619C10.1697 10.2681 9.08451 10.3737 8.54004 10.6642L8.73214 10.3429C9.17899 10.1112 10.2328 9.99362 11.1837 9.99239" stroke="black" stroke-width="0.03" stroke-linecap="round" stroke-linejoin="round"/>
<path fill-rule="evenodd" clip-rule="evenodd" d="M11.1985 10.2194C11.8291 10.2178 12.4383 10.2533 12.9228 10.3407C13.3741 10.4247 13.8044 10.5508 13.8659 10.6185L13.9136 10.7028C13.764 10.6051 13.3916 10.4963 12.9134 10.4057C12.4333 10.3154 11.8244 10.2855 11.1974 10.2872C10.4858 10.2847 9.93288 10.3223 9.45837 10.405C8.95653 10.4989 8.60835 10.6331 8.52246 10.6968L8.56921 10.6077C8.7361 10.5226 9.00091 10.4199 9.4459 10.3398C9.93661 10.2502 10.4954 10.2233 11.1986 10.2194H11.1986L11.1985 10.2194ZM11.1983 9.9649C11.8017 9.96331 12.3974 9.99694 12.8618 10.0804C13.2281 10.1517 13.5903 10.263 13.723 10.3621L13.7927 10.473C13.6741 10.3411 13.2276 10.2162 12.8335 10.1462C12.3727 10.0667 11.8017 10.0353 11.1983 10.0302C10.565 10.032 9.97982 10.0708 9.52571 10.1535C9.09248 10.2359 8.81291 10.3335 8.69462 10.4097L8.75597 10.3171C8.91921 10.2312 9.18293 10.1523 9.51506 10.0877C9.97253 10.0045 10.5613 9.96667 11.1983 9.9649H11.1983Z" fill="#FFFF00" stroke="black" stroke-width="0.03" stroke-linecap="round" stroke-linejoin="round"/>
<path fill-rule="evenodd" clip-rule="evenodd" d="M12.6739 13.238C12.1274 13.136 11.5799 13.1211 11.1974 13.1256C9.35523 13.1472 8.76012 13.5039 8.68749 13.6119L8.5498 13.3875C9.01882 13.0475 10.022 12.8569 11.2074 12.8764C11.823 12.8864 12.3541 12.9273 12.801 13.0139L12.6739 13.238" fill="#FFFF00"/>
<path d="M12.6739 13.238C12.1274 13.136 11.5799 13.1211 11.1974 13.1256C9.35523 13.1472 8.76012 13.5039 8.68749 13.6119L8.5498 13.3875C9.01882 13.0475 10.022 12.8569 11.2074 12.8764C11.823 12.8864 12.3541 12.9273 12.801 13.0139L12.6739 13.238" stroke="black" stroke-width="0.03" stroke-linecap="round" stroke-linejoin="round"/>
<path fill-rule="evenodd" clip-rule="evenodd" d="M11.1865 13.0938C11.6989 13.1015 12.202 13.1226 12.6875 13.2132L12.6523 13.2753C12.2014 13.192 11.7207 13.1602 11.1882 13.1628C10.5083 13.1574 9.82068 13.2209 9.222 13.3928C9.03309 13.4453 8.72037 13.5668 8.68848 13.6671L8.6535 13.6095C8.66358 13.5501 8.85259 13.427 9.20592 13.3277C9.89166 13.1314 10.5331 13.0983 11.1865 13.0938V13.0938L11.1865 13.0938ZM11.2097 12.8359C11.7407 12.8459 12.289 12.8704 12.8219 12.976L12.7853 13.0406C12.3041 12.9451 11.8443 12.9132 11.2129 12.9035C10.5308 12.9047 9.80734 12.9534 9.14953 13.1446C8.93716 13.2065 8.57062 13.3402 8.55841 13.4461L8.52344 13.3841C8.5314 13.288 8.8487 13.1625 9.13418 13.0795C9.79706 12.8867 10.5224 12.8372 11.2098 12.8359L11.2097 12.8359Z" fill="#FFFF00" stroke="black" stroke-width="0.03" stroke-linecap="round" stroke-linejoin="round"/>
<path fill-rule="evenodd" clip-rule="evenodd" d="M13.8272 13.4217L13.6059 13.7652L12.9698 13.2003L11.3198 12.0903L9.45984 11.0703L8.49414 10.74L8.69994 10.3584L8.76984 10.3203L9.36984 10.4703L11.3498 11.4903L12.4898 12.2103L13.4498 12.9003L13.8398 13.3503L13.8272 13.4217Z" fill="#FFFF00" stroke="black" stroke-width="0.03" stroke-linecap="round" stroke-linejoin="round"/>
<path fill-rule="evenodd" clip-rule="evenodd" d="M8.45928 10.7517C8.62866 10.6368 9.87345 11.1914 11.1759 11.9767C12.475 12.7644 13.7162 13.6544 13.6042 13.8209L13.5673 13.8789L13.5504 13.8922C13.5541 13.8896 13.5727 13.8668 13.5486 13.8051C13.4933 13.6229 12.6128 12.9203 11.1518 12.0382C9.72753 11.1889 8.54056 10.6771 8.42188 10.8234L8.45928 10.7517H8.45926L8.45928 10.7517ZM13.8725 13.4195C13.9796 13.208 12.825 12.3382 11.3935 11.4914C9.92913 10.6614 8.8737 10.1728 8.68092 10.3185L8.63809 10.3965C8.63772 10.4008 8.63965 10.3912 8.6487 10.3842C8.68375 10.3536 8.74185 10.3557 8.76807 10.3552C9.10002 10.3602 10.0481 10.7965 11.3783 11.559C11.9611 11.8985 13.8404 13.1038 13.8332 13.4427C13.8337 13.4718 13.8356 13.4778 13.8247 13.4923L13.8725 13.4196V13.4195L13.8725 13.4195Z" fill="#FFFF00" stroke="black" stroke-width="0.03" stroke-linecap="round" stroke-linejoin="round"/>
<path d="M9.41839 12.3315C9.41839 12.8196 9.61827 13.2611 9.9421 13.5837C10.2665 13.9071 10.7075 14.1111 11.1964 14.1111C11.6878 14.1111 12.1338 13.9115 12.4568 13.5894C12.7799 13.2674 12.9801 12.8229 12.9802 12.333H12.9802V9.95736L9.41797 9.95312L9.41834 12.3315H9.4184L9.41839 12.3315Z" fill="white" stroke="black" stroke-width="0.03"/>
<path d="M9.4854 12.3337V12.3351C9.4854 12.8018 9.67864 13.2268 9.98865 13.5353C10.2993 13.8445 10.7271 14.0367 11.1951 14.0367C11.6655 14.0367 12.0924 13.8459 12.4017 13.5379C12.711 13.23 12.9026 12.8049 12.9027 12.3366H12.9026V10.0318L9.48744 10.0312L9.48535 12.3337M12.216 10.7213L12.2161 12.188L12.2149 12.3432H12.2149C12.2149 12.384 12.2125 12.4305 12.2077 12.4702C12.1799 12.702 12.0733 12.9042 11.9153 13.0614C11.7304 13.2455 11.4752 13.3596 11.1939 13.3596C10.9141 13.3596 10.6648 13.2415 10.4791 13.0566C10.2886 12.867 10.1782 12.6071 10.1782 12.3382L10.1778 10.7175L12.216 10.7212L12.216 10.7213L12.216 10.7213Z" fill="#FF0000"/>
<path d="M9.4854 12.3337V12.3351C9.4854 12.8018 9.67864 13.2268 9.98865 13.5353C10.2993 13.8445 10.7271 14.0367 11.1951 14.0367C11.6655 14.0367 12.0924 13.8459 12.4017 13.5379C12.711 13.23 12.9026 12.8049 12.9027 12.3366H12.9026V10.0318L9.48744 10.0312L9.48535 12.3337M12.216 10.7213L12.2161 12.188L12.2149 12.3432H12.2149C12.2149 12.384 12.2125 12.4305 12.2077 12.4702C12.1799 12.702 12.0733 12.9042 11.9153 13.0614C11.7304 13.2455 11.4752 13.3596 11.1939 13.3596C10.9141 13.3596 10.6648 13.2415 10.4791 13.0566C10.2886 12.867 10.1782 12.6071 10.1782 12.3382L10.1778 10.7175L12.216 10.7212L12.216 10.7213L12.216 10.7213Z" stroke="black" stroke-width="0.03"/>
<path d="M9.70605 10.6352C9.7101 10.4695 9.82763 10.4303 9.82847 10.4298C9.82932 10.4292 9.95541 10.472 9.95499 10.6367L9.70606 10.6352" fill="#FFFF00"/>
<path d="M9.60444 10.4348L9.58398 10.6251L9.7082 10.6254C9.70939 10.4679 9.82742 10.4417 9.83028 10.4423C9.83295 10.4421 9.94994 10.4771 9.95306 10.6254H10.0776L10.0551 10.4336L9.60445 10.4347V10.4348L9.60444 10.4348Z" fill="#FFFF00" stroke="black" stroke-width="0.03"/>
<path d="M9.57611 10.625H10.0845C10.0952 10.625 10.104 10.6356 10.104 10.6485C10.104 10.6614 10.0952 10.672 10.0845 10.672H9.57611C9.5654 10.672 9.55664 10.6614 9.55664 10.6485C9.55664 10.6356 9.5654 10.625 9.57611 10.625Z" fill="#FFFF00" stroke="black" stroke-width="0.03"/>
<path d="M9.76074 10.6235C9.7613 10.5242 9.82861 10.496 9.82895 10.4961C9.82898 10.4961 9.89922 10.5251 9.89978 10.6235H9.76075" fill="#FFFF00"/>
<path d="M9.76074 10.6235C9.7613 10.5242 9.82861 10.496 9.82895 10.4961C9.82898 10.4961 9.89922 10.5251 9.89978 10.6235H9.76075" stroke="black" stroke-width="0.03"/>
<path d="M9.58704 10.3555H10.0744C10.0847 10.3555 10.0931 10.365 10.0931 10.3766C10.0931 10.3882 10.0847 10.3977 10.0744 10.3977H9.58704C9.57677 10.3977 9.56836 10.3883 9.56836 10.3766C9.56836 10.365 9.57677 10.3555 9.58704 10.3555Z" fill="#FFFF00" stroke="black" stroke-width="0.03"/>
<path d="M9.59696 10.3945H10.0631C10.0729 10.3945 10.081 10.404 10.081 10.4156C10.081 10.4273 10.0729 10.4368 10.0631 10.4368H9.59696C9.58714 10.4368 9.5791 10.4273 9.5791 10.4156C9.5791 10.404 9.58714 10.3945 9.59696 10.3945Z" fill="#FFFF00" stroke="black" stroke-width="0.03"/>
<path d="M9.74809 10.0786L9.78489 10.0787V10.1048H9.81175V10.0781L9.84945 10.0782V10.1049H9.87638V10.0781H9.91411L9.91405 10.1385C9.91405 10.148 9.90643 10.1541 9.89759 10.1541H9.76526C9.75637 10.1541 9.74816 10.147 9.74814 10.1383L9.74805 10.0787H9.74807L9.74809 10.0786Z" fill="#FFFF00" stroke="black" stroke-width="0.03"/>
<path d="M9.8864 10.1607L9.89471 10.3542L9.76562 10.3537L9.77417 10.1602L9.8864 10.1607" fill="#FFFF00"/>
<path d="M9.8864 10.1607L9.89471 10.3542L9.76562 10.3537L9.77417 10.1602L9.8864 10.1607" stroke="black" stroke-width="0.03"/>
<path d="M9.7292 10.25L9.73314 10.3543L9.60938 10.3544L9.61287 10.25H9.72923H9.7292L9.7292 10.25Z" fill="#FFFF00" stroke="black" stroke-width="0.03"/>
<path d="M9.58989 10.1724L9.62587 10.1725V10.1987H9.6522V10.1719L9.68908 10.172V10.1987H9.71546V10.1719L9.75236 10.1719L9.7523 10.2323C9.7523 10.2417 9.74484 10.2479 9.73622 10.2479H9.60671C9.59803 10.2479 9.58996 10.2408 9.58993 10.2321L9.58984 10.1724H9.58987L9.58989 10.1724Z" fill="#FFFF00" stroke="black" stroke-width="0.03"/>
<path d="M9.8174 10.2212C9.8166 10.2024 9.8437 10.2022 9.84338 10.2212V10.2673H9.8174V10.2212" fill="black"/>
<path d="M9.65723 10.2875C9.65714 10.2693 9.68233 10.2689 9.68202 10.2875V10.3231H9.65724V10.2875" fill="black"/>
<path d="M9.70996 12.3555C9.71401 12.1898 9.83153 12.1506 9.83238 12.15C9.83322 12.1495 9.95932 12.1923 9.9589 12.357L9.70996 12.3555" fill="#FFFF00"/>
<path d="M9.60834 12.1551L9.58789 12.3455L9.71211 12.3457C9.7133 12.1882 9.83133 12.1621 9.83418 12.1626C9.83685 12.1625 9.95385 12.1975 9.95697 12.3457H10.0815L10.059 12.1539L9.60835 12.1551V12.1551L9.60834 12.1551Z" fill="#FFFF00" stroke="black" stroke-width="0.03"/>
<path d="M9.58002 12.3453H10.0884C10.0991 12.3453 10.1079 12.3559 10.1079 12.3689C10.1079 12.3818 10.0991 12.3923 10.0884 12.3923H9.58002C9.5693 12.3923 9.56055 12.3818 9.56055 12.3689C9.56055 12.3559 9.5693 12.3453 9.58002 12.3453Z" fill="#FFFF00" stroke="black" stroke-width="0.03"/>
<path d="M9.76465 12.3439C9.7652 12.2445 9.83251 12.2164 9.83286 12.2164C9.83288 12.2164 9.90313 12.2454 9.90368 12.3439H9.76465" fill="#FFFF00"/>
<path d="M9.76465 12.3439C9.7652 12.2445 9.83251 12.2164 9.83286 12.2164C9.83288 12.2164 9.90313 12.2454 9.90368 12.3439H9.76465" stroke="black" stroke-width="0.03"/>
<path d="M9.59094 12.0758H10.0783C10.0886 12.0758 10.097 12.0854 10.097 12.0969C10.097 12.1086 10.0886 12.1181 10.0783 12.1181H9.59094C9.58068 12.1181 9.57227 12.1086 9.57227 12.0969C9.57227 12.0854 9.58068 12.0758 9.59094 12.0758Z" fill="#FFFF00" stroke="black" stroke-width="0.03"/>
<path d="M9.60087 12.1149H10.067C10.0768 12.1149 10.0849 12.1244 10.0849 12.136C10.0849 12.1476 10.0768 12.1571 10.067 12.1571H9.60087C9.59105 12.1571 9.58301 12.1476 9.58301 12.136C9.58301 12.1244 9.59105 12.1149 9.60087 12.1149Z" fill="#FFFF00" stroke="black" stroke-width="0.03"/>
<path d="M9.752 11.799L9.7888 11.799V11.8252H9.81565V11.7985L9.85336 11.7986V11.8252H9.88029V11.7985H9.91802L9.91796 11.8588C9.91796 11.8683 9.91034 11.8744 9.9015 11.8744H9.76916C9.76027 11.8744 9.75207 11.8673 9.75204 11.8586L9.75195 11.799H9.75198L9.752 11.799Z" fill="#FFFF00" stroke="black" stroke-width="0.03"/>
<path d="M9.89031 11.881L9.89862 12.0745L9.76953 12.0741L9.77808 11.8805L9.89031 11.881" fill="#FFFF00"/>
<path d="M9.89031 11.881L9.89862 12.0745L9.76953 12.0741L9.77808 11.8805L9.89031 11.881" stroke="black" stroke-width="0.03"/>
<path d="M9.73311 11.9703L9.73705 12.0747L9.61328 12.0747L9.61677 11.9703H9.73313H9.7331L9.73311 11.9703Z" fill="#FFFF00" stroke="black" stroke-width="0.03"/>
<path d="M9.59379 11.8927L9.62978 11.8928V11.919H9.6561V11.8922L9.69298 11.8923V11.919H9.71936V11.8922L9.75627 11.8923L9.75621 11.9526C9.75621 11.9621 9.74875 11.9682 9.74012 11.9682H9.61061C9.60194 11.9682 9.59387 11.9611 9.59384 11.9524L9.59375 11.8928H9.59378L9.59379 11.8927Z" fill="#FFFF00" stroke="black" stroke-width="0.03"/>
<path d="M9.82131 11.9416C9.82051 11.9227 9.8476 11.9225 9.84729 11.9416V11.9876H9.82131V11.9416" fill="black"/>
<path d="M9.66211 12.0075C9.66202 11.9894 9.68722 11.989 9.6869 12.0075V12.0432H9.66212V12.0075" fill="black"/>
<path d="M11.1494 10.6371C11.1535 10.4714 11.271 10.4322 11.2718 10.4316C11.2727 10.4311 11.3988 10.4739 11.3984 10.6386L11.1494 10.6371" fill="#FFFF00"/>
<path d="M11.0478 10.4367L11.0273 10.627L11.1516 10.6273C11.1528 10.4698 11.2708 10.4436 11.2736 10.4442C11.2763 10.444 11.3933 10.479 11.3964 10.6273H11.521L11.4985 10.4355L11.0478 10.4366V10.4367L11.0478 10.4367Z" fill="#FFFF00" stroke="black" stroke-width="0.03"/>
<path d="M11.0195 10.6269H11.5279C11.5386 10.6269 11.5473 10.6375 11.5473 10.6504C11.5473 10.6633 11.5386 10.6739 11.5279 10.6739H11.0195C11.0088 10.6739 11 10.6633 11 10.6504C11 10.6375 11.0088 10.6269 11.0195 10.6269Z" fill="#FFFF00" stroke="black" stroke-width="0.03"/>
<path d="M11.2041 10.6254C11.2047 10.5261 11.272 10.4979 11.2723 10.498C11.2723 10.498 11.3426 10.527 11.3431 10.6254H11.2041" fill="#FFFF00"/>
<path d="M11.2041 10.6254C11.2047 10.5261 11.272 10.4979 11.2723 10.498C11.2723 10.498 11.3426 10.527 11.3431 10.6254H11.2041" stroke="black" stroke-width="0.03"/>
<path d="M11.0304 10.3574H11.5177C11.528 10.3574 11.5364 10.3669 11.5364 10.3785C11.5364 10.3901 11.528 10.3996 11.5177 10.3996H11.0304C11.0201 10.3996 11.0117 10.3902 11.0117 10.3785C11.0117 10.3669 11.0201 10.3574 11.0304 10.3574Z" fill="#FFFF00" stroke="black" stroke-width="0.03"/>
<path d="M11.0403 10.3964H11.5065C11.5163 10.3964 11.5243 10.4059 11.5243 10.4175C11.5243 10.4292 11.5163 10.4387 11.5065 10.4387H11.0403C11.0305 10.4387 11.0225 10.4292 11.0225 10.4175C11.0225 10.4059 11.0305 10.3964 11.0403 10.3964Z" fill="#FFFF00" stroke="black" stroke-width="0.03"/>
<path d="M11.1915 10.0805L11.2283 10.0806V10.1067H11.2551V10.08L11.2928 10.0801V10.1068H11.3197V10.08H11.3575L11.3574 10.1404C11.3574 10.1499 11.3498 10.156 11.341 10.156H11.2086C11.1997 10.156 11.1915 10.1489 11.1915 10.1402L11.1914 10.0806H11.1914L11.1915 10.0805Z" fill="#FFFF00" stroke="black" stroke-width="0.03"/>
<path d="M11.3298 10.1626L11.3381 10.3561L11.209 10.3556L11.2175 10.162L11.3298 10.1626" fill="#FFFF00"/>
<path d="M11.3298 10.1626L11.3381 10.3561L11.209 10.3556L11.2175 10.162L11.3298 10.1626" stroke="black" stroke-width="0.03"/>
<path d="M11.1726 10.2519L11.1765 10.3562L11.0527 10.3563L11.0562 10.2519H11.1726H11.1726L11.1726 10.2519Z" fill="#FFFF00" stroke="black" stroke-width="0.03"/>
<path d="M11.0332 10.1743L11.0692 10.1744V10.2005H11.0956V10.1738L11.1324 10.1739V10.2006H11.1588V10.1738L11.1957 10.1738L11.1957 10.2342C11.1957 10.2436 11.1882 10.2497 11.1796 10.2497H11.0501C11.0414 10.2497 11.0333 10.2427 11.0333 10.234L11.0332 10.1743H11.0332L11.0332 10.1743Z" fill="#FFFF00" stroke="black" stroke-width="0.03"/>
<path d="M11.2608 10.2231C11.26 10.2043 11.2871 10.2041 11.2867 10.2231V10.2692H11.2608V10.2231" fill="black"/>
<path d="M11.1016 10.289C11.1015 10.2709 11.1267 10.2705 11.1264 10.289V10.3247H11.1016V10.289" fill="black"/>
<path d="M12.4502 10.6371C12.4542 10.4715 12.5718 10.4323 12.5726 10.4317C12.5735 10.4312 12.6996 10.4739 12.6991 10.6387L12.4502 10.6371" fill="#FFFF00"/>
<path d="M12.3486 10.4367L12.3281 10.6271L12.4523 10.6273C12.4535 10.4699 12.5716 10.4437 12.5744 10.4442C12.5771 10.4441 12.6941 10.4791 12.6972 10.6273H12.8217L12.7992 10.4355L12.3486 10.4367V10.4367L12.3486 10.4367Z" fill="#FFFF00" stroke="black" stroke-width="0.03"/>
<path d="M12.3203 10.627H12.8286C12.8393 10.627 12.8481 10.6375 12.8481 10.6505C12.8481 10.6634 12.8393 10.6739 12.8286 10.6739H12.3203C12.3095 10.6739 12.3008 10.6634 12.3008 10.6505C12.3008 10.6375 12.3095 10.627 12.3203 10.627Z" fill="#FFFF00" stroke="black" stroke-width="0.03"/>
<path d="M12.5049 10.6255C12.5054 10.5261 12.5727 10.498 12.5731 10.498C12.5731 10.498 12.6434 10.527 12.6439 10.6255H12.5049" fill="#FFFF00"/>
<path d="M12.5049 10.6255C12.5054 10.5261 12.5727 10.498 12.5731 10.498C12.5731 10.498 12.6434 10.527 12.6439 10.6255H12.5049" stroke="black" stroke-width="0.03"/>
<path d="M12.3312 10.3574H12.8185C12.8288 10.3574 12.8372 10.367 12.8372 10.3786C12.8372 10.3902 12.8288 10.3997 12.8185 10.3997H12.3312C12.3209 10.3997 12.3125 10.3902 12.3125 10.3786C12.3125 10.367 12.3209 10.3574 12.3312 10.3574Z" fill="#FFFF00" stroke="black" stroke-width="0.03"/>
<path d="M12.3411 10.3965H12.8072C12.8171 10.3965 12.8251 10.406 12.8251 10.4176C12.8251 10.4292 12.8171 10.4387 12.8072 10.4387H12.3411C12.3313 10.4387 12.3232 10.4292 12.3232 10.4176C12.3232 10.406 12.3313 10.3965 12.3411 10.3965Z" fill="#FFFF00" stroke="black" stroke-width="0.03"/>
<path d="M12.4922 10.0806L12.529 10.0807V10.1068H12.5559V10.0801L12.5936 10.0802V10.1068H12.6205V10.0801H12.6583L12.6582 10.1404C12.6582 10.1499 12.6506 10.1561 12.6417 10.1561H12.5094C12.5005 10.1561 12.4923 10.1489 12.4923 10.1403L12.4922 10.0806H12.4922L12.4922 10.0806Z" fill="#FFFF00" stroke="black" stroke-width="0.03"/>
<path d="M12.6305 10.1626L12.6388 10.3562L12.5098 10.3557L12.5183 10.1621L12.6305 10.1626" fill="#FFFF00"/>
<path d="M12.6305 10.1626L12.6388 10.3562L12.5098 10.3557L12.5183 10.1621L12.6305 10.1626" stroke="black" stroke-width="0.03"/>
<path d="M12.4733 10.252L12.4773 10.3563L12.3535 10.3563L12.357 10.252H12.4734H12.4733L12.4733 10.252Z" fill="#FFFF00" stroke="black" stroke-width="0.03"/>
<path d="M12.334 10.1743L12.37 10.1744V10.2006H12.3963V10.1738L12.4332 10.1739V10.2006H12.4596V10.1738L12.4965 10.1739L12.4964 10.2343C12.4964 10.2437 12.489 10.2498 12.4804 10.2498H12.3508C12.3422 10.2498 12.3341 10.2427 12.3341 10.234L12.334 10.1744H12.334L12.334 10.1743Z" fill="#FFFF00" stroke="black" stroke-width="0.03"/>
<path d="M12.5615 10.2232C12.5607 10.2044 12.5878 10.2041 12.5875 10.2232V10.2693H12.5615V10.2232" fill="black"/>
<path d="M12.4023 10.2891C12.4023 10.2709 12.4275 10.2706 12.4271 10.2891V10.3247H12.4024V10.2891" fill="black"/>
<path d="M12.4502 12.3558C12.4542 12.1902 12.5718 12.151 12.5726 12.1504C12.5735 12.1498 12.6996 12.1926 12.6991 12.3574L12.4502 12.3558" fill="#FFFF00"/>
<path d="M12.3486 12.1555L12.3281 12.3458L12.4523 12.3461C12.4535 12.1886 12.5716 12.1624 12.5744 12.163C12.5771 12.1628 12.6941 12.1978 12.6972 12.3461H12.8217L12.7992 12.1543L12.3486 12.1554V12.1555L12.3486 12.1555Z" fill="#FFFF00" stroke="black" stroke-width="0.03"/>
<path d="M12.3203 12.3457H12.8286C12.8393 12.3457 12.8481 12.3563 12.8481 12.3692C12.8481 12.3821 12.8393 12.3927 12.8286 12.3927H12.3203C12.3095 12.3927 12.3008 12.3821 12.3008 12.3692C12.3008 12.3563 12.3095 12.3457 12.3203 12.3457Z" fill="#FFFF00" stroke="black" stroke-width="0.03"/>
<path d="M12.5049 12.3442C12.5054 12.2449 12.5727 12.2167 12.5731 12.2168C12.5731 12.2168 12.6434 12.2458 12.6439 12.3442H12.5049" fill="#FFFF00"/>
<path d="M12.5049 12.3442C12.5054 12.2449 12.5727 12.2167 12.5731 12.2168C12.5731 12.2168 12.6434 12.2458 12.6439 12.3442H12.5049" stroke="black" stroke-width="0.03"/>
<path d="M12.3312 12.0762H12.8185C12.8288 12.0762 12.8372 12.0857 12.8372 12.0973C12.8372 12.1089 12.8288 12.1185 12.8185 12.1185H12.3312C12.3209 12.1185 12.3125 12.109 12.3125 12.0973C12.3125 12.0857 12.3209 12.0762 12.3312 12.0762Z" fill="#FFFF00" stroke="black" stroke-width="0.03"/>
<path d="M12.3411 12.1152H12.8072C12.8171 12.1152 12.8251 12.1247 12.8251 12.1363C12.8251 12.148 12.8171 12.1575 12.8072 12.1575H12.3411C12.3313 12.1575 12.3232 12.148 12.3232 12.1363C12.3232 12.1247 12.3313 12.1152 12.3411 12.1152Z" fill="#FFFF00" stroke="black" stroke-width="0.03"/>
<path d="M12.4922 11.7994L12.529 11.7994V11.8256H12.5559V11.7988L12.5936 11.7989V11.8256H12.6205V11.7988H12.6583L12.6582 11.8592C12.6582 11.8687 12.6506 11.8748 12.6417 11.8748H12.5094C12.5005 11.8748 12.4923 11.8677 12.4923 11.859L12.4922 11.7994H12.4922L12.4922 11.7994Z" fill="#FFFF00" stroke="black" stroke-width="0.03"/>
<path d="M12.6305 11.8814L12.6388 12.0749L12.5098 12.0744L12.5183 11.8809L12.6305 11.8814" fill="#FFFF00"/>
<path d="M12.6305 11.8814L12.6388 12.0749L12.5098 12.0744L12.5183 11.8809L12.6305 11.8814" stroke="black" stroke-width="0.03"/>
<path d="M12.4733 11.9707L12.4773 12.075L12.3535 12.0751L12.357 11.9707H12.4734H12.4733L12.4733 11.9707Z" fill="#FFFF00" stroke="black" stroke-width="0.03"/>
<path d="M12.334 11.8931L12.37 11.8932V11.9194H12.3963V11.8926L12.4332 11.8927V11.9194H12.4596V11.8926L12.4965 11.8927L12.4964 11.953C12.4964 11.9624 12.489 11.9686 12.4804 11.9686H12.3508C12.3422 11.9686 12.3341 11.9615 12.3341 11.9528L12.334 11.8931H12.334L12.334 11.8931Z" fill="#FFFF00" stroke="black" stroke-width="0.03"/>
<path d="M12.5615 11.9419C12.5607 11.9231 12.5878 11.9229 12.5875 11.9419V11.988H12.5615V11.9419" fill="black"/>
<path d="M12.4023 12.0079C12.4023 11.9897 12.4275 11.9894 12.4271 12.0079V12.0435H12.4024V12.0079" fill="black"/>
<path d="M11.9927 13.2628C12.1247 13.1626 12.2287 13.23 12.2297 13.2303C12.2306 13.2307 12.2758 13.3559 12.1468 13.4583L11.9927 13.2628" fill="#FFFF00"/>
<path d="M12.086 13.0596L11.9245 13.1624L12.0018 13.2596C12.1256 13.1623 12.2197 13.2383 12.221 13.2409C12.2228 13.2429 12.2684 13.3561 12.1545 13.451L12.2321 13.5484L12.368 13.4112L12.0861 13.0596L12.086 13.0596L12.086 13.0596Z" fill="#FFFF00" stroke="black" stroke-width="0.03"/>
<path d="M11.9194 13.1558L12.2364 13.5532C12.2431 13.5616 12.2403 13.575 12.2302 13.5831C12.2201 13.5911 12.2064 13.5909 12.1997 13.5825L11.8827 13.1851C11.876 13.1767 11.8787 13.1633 11.8888 13.1552C11.899 13.1472 11.9127 13.1474 11.9194 13.1558Z" fill="#FFFF00" stroke="black" stroke-width="0.03"/>
<path d="M12.0361 13.2981C12.1141 13.2366 12.1781 13.2716 12.1783 13.2719C12.1783 13.272 12.1994 13.345 12.1228 13.4068L12.0361 13.2981" fill="#FFFF00"/>
<path d="M12.0361 13.2981C12.1141 13.2366 12.1781 13.2716 12.1783 13.2719C12.1783 13.272 12.1994 13.345 12.1228 13.4068L12.0361 13.2981" stroke="black" stroke-width="0.03"/>
<path d="M12.1376 12.9949L12.4416 13.3759C12.448 13.3839 12.4457 13.3965 12.4367 13.4037C12.4276 13.4109 12.4149 13.4103 12.4085 13.4023L12.1046 13.0213C12.0982 13.0133 12.1003 13.0008 12.1095 12.9935C12.1185 12.9863 12.1312 12.9869 12.1376 12.9949Z" fill="#FFFF00" stroke="black" stroke-width="0.03"/>
<path d="M12.1127 13.0275L12.4034 13.3919C12.4095 13.3996 12.4071 13.4118 12.398 13.419C12.3889 13.4263 12.3765 13.4259 12.3704 13.4182L12.0797 13.0539C12.0735 13.0462 12.076 13.034 12.0851 13.0267C12.0941 13.0195 12.1066 13.0198 12.1127 13.0275Z" fill="#FFFF00" stroke="black" stroke-width="0.03"/>
<path d="M12.4537 12.9475L12.4766 12.9763L12.4562 12.9926L12.4729 13.0136L12.4938 12.9969L12.5172 13.0265L12.4964 13.0431L12.5132 13.0641L12.5341 13.0475L12.5577 13.077L12.5104 13.1146C12.503 13.1205 12.4935 13.1183 12.488 13.1114L12.4054 13.008C12.3999 13.001 12.4003 12.9902 12.4071 12.9847L12.4537 12.9475L12.4537 12.9475L12.4537 12.9475Z" fill="#FFFF00" stroke="black" stroke-width="0.03"/>
<path d="M12.4763 13.1083L12.3302 13.2355L12.2501 13.1343L12.4067 13.0202L12.4763 13.1083" fill="#FFFF00"/>
<path d="M12.4763 13.1083L12.3302 13.2355L12.2501 13.1343L12.4067 13.0202L12.4763 13.1083" stroke="black" stroke-width="0.03"/>
<path d="M12.3081 13.0408L12.229 13.109L12.1518 13.0122L12.2356 12.9499L12.3081 13.0408L12.3081 13.0408L12.3081 13.0408Z" fill="#FFFF00" stroke="black" stroke-width="0.03"/>
<path d="M12.2818 12.883L12.3042 12.9112L12.2838 12.9276L12.3002 12.9481L12.3211 12.9314L12.344 12.9603L12.3232 12.977L12.3396 12.9976L12.3606 12.9809L12.3835 13.0098L12.3363 13.0474C12.3289 13.0532 12.3195 13.0512 12.3141 13.0445L12.2333 12.9433C12.2279 12.9365 12.2284 12.9258 12.2352 12.9203L12.2818 12.883L12.2818 12.8831L12.2818 12.883Z" fill="#FFFF00" stroke="black" stroke-width="0.03"/>
<path d="M12.3864 13.0927C12.4006 13.0804 12.4177 13.1014 12.4026 13.113L12.3666 13.1418L12.3504 13.1215L12.3864 13.0927" fill="black"/>
<path d="M12.2344 13.0085C12.2485 12.9971 12.2645 13.0165 12.2498 13.0278L12.222 13.0501L12.2065 13.0307L12.2344 13.0085" fill="black"/>
<path d="M10.3968 13.6642C10.2837 13.5432 10.3401 13.4329 10.3403 13.4319C10.3405 13.4309 10.4605 13.3731 10.5756 13.491L10.3968 13.6642" fill="#FFFF00"/>
<path d="M10.1854 13.5919L10.304 13.7421L10.3929 13.6553C10.2835 13.5421 10.3494 13.4407 10.3518 13.4391C10.3536 13.4372 10.4616 13.3802 10.5677 13.4839L10.6566 13.3966L10.5062 13.2755L10.1853 13.5919L10.1854 13.5919L10.1854 13.5919Z" fill="#FFFF00" stroke="black" stroke-width="0.03"/>
<path d="M10.2981 13.7483L10.661 13.3923C10.6686 13.3848 10.6823 13.3862 10.6914 13.3955C10.7004 13.4047 10.7015 13.4183 10.6939 13.4258L10.331 13.7819C10.3233 13.7894 10.3097 13.788 10.3007 13.7788C10.2916 13.7695 10.2904 13.7558 10.2981 13.7483Z" fill="#FFFF00" stroke="black" stroke-width="0.03"/>
<path d="M10.4281 13.6166C10.3589 13.5453 10.3873 13.4781 10.3876 13.4779C10.3876 13.4779 10.458 13.4494 10.5274 13.5192L10.4281 13.6166" fill="#FFFF00"/>
<path d="M10.4281 13.6166C10.3589 13.5453 10.3873 13.4781 10.3876 13.4779C10.3876 13.4779 10.458 13.4494 10.5274 13.5192L10.4281 13.6166" stroke="black" stroke-width="0.03"/>
<path d="M10.1159 13.5476L10.4638 13.2063C10.4711 13.1991 10.4838 13.2 10.4919 13.2083C10.5 13.2166 10.5007 13.2293 10.4934 13.2365L10.1455 13.5778C10.1382 13.585 10.1255 13.5841 10.1173 13.5758C10.1092 13.5675 10.1085 13.5548 10.1159 13.5476Z" fill="#FFFF00" stroke="black" stroke-width="0.03"/>
<path d="M10.1504 13.5697L10.4832 13.2433C10.4902 13.2364 10.5026 13.2375 10.5107 13.2458C10.5189 13.2541 10.5198 13.2666 10.5128 13.2734L10.18 13.5999C10.173 13.6067 10.1606 13.6056 10.1525 13.5973C10.1443 13.589 10.1434 13.5766 10.1504 13.5697Z" fill="#FFFF00" stroke="black" stroke-width="0.03"/>
<path d="M10.0356 13.2388L10.0619 13.2131L10.0802 13.2317L10.0993 13.2129L10.0806 13.1939L10.1076 13.1675L10.1263 13.1865L10.1455 13.1677L10.1268 13.1486L10.1537 13.1222L10.1959 13.1653C10.2026 13.1721 10.2014 13.1818 10.1951 13.188L10.1006 13.2806C10.0943 13.2869 10.0835 13.2875 10.0774 13.2814L10.0355 13.2389L10.0356 13.2388L10.0356 13.2388Z" fill="#FFFF00" stroke="black" stroke-width="0.03"/>
<path d="M10.194 13.1992L10.3355 13.3316L10.243 13.4216L10.1135 13.2775L10.194 13.1992" fill="#FFFF00"/>
<path d="M10.194 13.1992L10.3355 13.3316L10.243 13.4216L10.1135 13.2775L10.194 13.1992" stroke="black" stroke-width="0.03"/>
<path d="M10.1441 13.3732L10.22 13.4449L10.1317 13.5316L10.0611 13.4547L10.1442 13.3732L10.1441 13.3732L10.1441 13.3732Z" fill="#FFFF00" stroke="black" stroke-width="0.03"/>
<path d="M9.98965 13.4164L10.0154 13.3913L10.0337 13.41L10.0525 13.3915L10.0338 13.3724L10.0602 13.3467L10.0789 13.3657L10.0977 13.3472L10.0789 13.3281L10.1053 13.3023L10.1475 13.3454C10.1541 13.3522 10.1531 13.3618 10.147 13.3678L10.0545 13.4585C10.0483 13.4646 10.0376 13.4652 10.0315 13.459L9.98964 13.4165L9.98966 13.4165L9.98965 13.4164Z" fill="#FFFF00" stroke="black" stroke-width="0.03"/>
<path d="M10.1877 13.2915C10.1739 13.2786 10.1931 13.2595 10.2062 13.2733L10.2385 13.3062L10.22 13.3244L10.1877 13.2915" fill="black"/>
<path d="M10.119 13.4495C10.1062 13.4366 10.124 13.4187 10.1367 13.4322L10.1617 13.4576L10.144 13.4749L10.119 13.4495" fill="black"/>
<path d="M10.9795 12.073V12.0731C10.9795 12.1395 11.005 12.2 11.0459 12.2438C11.0868 12.2878 11.1432 12.3152 11.2049 12.3152C11.2669 12.3152 11.3232 12.288 11.364 12.2442C11.4048 12.2004 11.4301 12.14 11.4301 12.0734V11.7504L10.9803 11.75L10.9795 12.073" fill="#003399"/>
<path d="M11.0827 11.9175C11.1073 11.9175 11.1272 11.8975 11.1272 11.8729C11.1272 11.8483 11.1073 11.8283 11.0827 11.8283C11.058 11.8283 11.0381 11.8483 11.0381 11.8729C11.0381 11.8975 11.058 11.9175 11.0827 11.9175Z" fill="white"/>
<path d="M11.3317 11.9173C11.3563 11.9173 11.3763 11.8973 11.3763 11.8727C11.3763 11.8481 11.3563 11.8281 11.3317 11.8281C11.3071 11.8281 11.2871 11.8481 11.2871 11.8727C11.2871 11.8973 11.3071 11.9173 11.3317 11.9173Z" fill="white"/>
<path d="M11.2067 12.0384C11.2313 12.0384 11.2513 12.0184 11.2513 11.9938C11.2513 11.9692 11.2313 11.9492 11.2067 11.9492C11.1821 11.9492 11.1621 11.9692 11.1621 11.9938C11.1621 12.0184 11.1821 12.0384 11.2067 12.0384Z" fill="white"/>
<path d="M11.0827 12.1634C11.1073 12.1634 11.1272 12.1434 11.1272 12.1188C11.1272 12.0942 11.1073 12.0742 11.0827 12.0742C11.058 12.0742 11.0381 12.0942 11.0381 12.1188C11.0381 12.1434 11.058 12.1634 11.0827 12.1634Z" fill="white"/>
<path d="M11.3317 12.1634C11.3563 12.1634 11.3763 12.1434 11.3763 12.1188C11.3763 12.0942 11.3563 12.0742 11.3317 12.0742C11.3071 12.0742 11.2871 12.0942 11.2871 12.1188C11.2871 12.1434 11.3071 12.1634 11.3317 12.1634Z" fill="white"/>
<path d="M11 12.8434V12.8436C11 12.91 11.0255 12.9704 11.0664 13.0143C11.1073 13.0583 11.1637 13.0856 11.2254 13.0856C11.2874 13.0856 11.3437 13.0585 11.3845 13.0146C11.4253 12.9709 11.4506 12.9105 11.4506 12.8439V12.5208L11.0008 12.5204L11 12.8434" fill="#003399"/>
<path d="M11.1032 12.6877C11.1278 12.6877 11.1478 12.6678 11.1478 12.6432C11.1478 12.6185 11.1278 12.5986 11.1032 12.5986C11.0786 12.5986 11.0586 12.6185 11.0586 12.6432C11.0586 12.6678 11.0786 12.6877 11.1032 12.6877Z" fill="white"/>
<path d="M11.3532 12.6877C11.3778 12.6877 11.3978 12.6678 11.3978 12.6432C11.3978 12.6185 11.3778 12.5986 11.3532 12.5986C11.3286 12.5986 11.3086 12.6185 11.3086 12.6432C11.3086 12.6678 11.3286 12.6877 11.3532 12.6877Z" fill="white"/>
<path d="M11.2282 12.8088C11.2528 12.8088 11.2728 12.7889 11.2728 12.7642C11.2728 12.7396 11.2528 12.7197 11.2282 12.7197C11.2036 12.7197 11.1836 12.7396 11.1836 12.7642C11.1836 12.7889 11.2036 12.8088 11.2282 12.8088Z" fill="white"/>
<path d="M11.1032 12.9338C11.1278 12.9338 11.1478 12.9139 11.1478 12.8892C11.1478 12.8646 11.1278 12.8447 11.1032 12.8447C11.0786 12.8447 11.0586 12.8646 11.0586 12.8892C11.0586 12.9139 11.0786 12.9338 11.1032 12.9338Z" fill="white"/>
<path d="M11.3522 12.9338C11.3768 12.9338 11.3968 12.9139 11.3968 12.8892C11.3968 12.8646 11.3768 12.8447 11.3522 12.8447C11.3276 12.8447 11.3076 12.8646 11.3076 12.8892C11.3076 12.9139 11.3276 12.9338 11.3522 12.9338Z" fill="white"/>
<path d="M11.6104 12.073V12.0731C11.6104 12.1395 11.6358 12.2 11.6767 12.2438C11.7177 12.2878 11.7741 12.3152 11.8358 12.3152C11.8978 12.3152 11.9541 12.288 11.9949 12.2442C12.0356 12.2004 12.0609 12.14 12.0609 12.0734V11.7504L11.6112 11.75L11.6104 12.073" fill="#003399"/>
<path d="M11.7135 11.9175C11.7381 11.9175 11.7581 11.8975 11.7581 11.8729C11.7581 11.8483 11.7381 11.8283 11.7135 11.8283C11.6889 11.8283 11.6689 11.8483 11.6689 11.8729C11.6689 11.8975 11.6889 11.9175 11.7135 11.9175Z" fill="white"/>
<path d="M11.9625 11.9173C11.9872 11.9173 12.0071 11.8973 12.0071 11.8727C12.0071 11.8481 11.9872 11.8281 11.9625 11.8281C11.9379 11.8281 11.918 11.8481 11.918 11.8727C11.918 11.8973 11.9379 11.9173 11.9625 11.9173Z" fill="white"/>
<path d="M11.8375 12.0384C11.8622 12.0384 11.8821 12.0184 11.8821 11.9938C11.8821 11.9692 11.8622 11.9492 11.8375 11.9492C11.8129 11.9492 11.793 11.9692 11.793 11.9938C11.793 12.0184 11.8129 12.0384 11.8375 12.0384Z" fill="white"/>
<path d="M11.7135 12.1634C11.7381 12.1634 11.7581 12.1434 11.7581 12.1188C11.7581 12.0942 11.7381 12.0742 11.7135 12.0742C11.6889 12.0742 11.6689 12.0942 11.6689 12.1188C11.6689 12.1434 11.6889 12.1634 11.7135 12.1634Z" fill="white"/>
<path d="M11.9625 12.1634C11.9872 12.1634 12.0071 12.1434 12.0071 12.1188C12.0071 12.0942 11.9872 12.0742 11.9625 12.0742C11.9379 12.0742 11.918 12.0942 11.918 12.1188C11.918 12.1434 11.9379 12.1634 11.9625 12.1634Z" fill="white"/>
<path d="M10.3008 12.073V12.0731C10.3008 12.1395 10.3263 12.2 10.3672 12.2438C10.4081 12.2878 10.4645 12.3152 10.5262 12.3152C10.5882 12.3152 10.6445 12.288 10.6853 12.2442C10.726 12.2004 10.7514 12.14 10.7514 12.0734V11.7504L10.3016 11.75L10.3008 12.073" fill="#003399"/>
<path d="M10.404 11.9175C10.4286 11.9175 10.4485 11.8975 10.4485 11.8729C10.4485 11.8483 10.4286 11.8283 10.404 11.8283C10.3793 11.8283 10.3594 11.8483 10.3594 11.8729C10.3594 11.8975 10.3793 11.9175 10.404 11.9175Z" fill="white"/>
<path d="M10.654 11.9173C10.6786 11.9173 10.6985 11.8973 10.6985 11.8727C10.6985 11.8481 10.6786 11.8281 10.654 11.8281C10.6293 11.8281 10.6094 11.8481 10.6094 11.8727C10.6094 11.8973 10.6293 11.9173 10.654 11.9173Z" fill="white"/>
<path d="M10.529 12.0384C10.5536 12.0384 10.5735 12.0184 10.5735 11.9938C10.5735 11.9692 10.5536 11.9492 10.529 11.9492C10.5043 11.9492 10.4844 11.9692 10.4844 11.9938C10.4844 12.0184 10.5043 12.0384 10.529 12.0384Z" fill="white"/>
<path d="M10.404 12.1634C10.4286 12.1634 10.4485 12.1434 10.4485 12.1188C10.4485 12.0942 10.4286 12.0742 10.404 12.0742C10.3793 12.0742 10.3594 12.0942 10.3594 12.1188C10.3594 12.1434 10.3793 12.1634 10.404 12.1634Z" fill="white"/>
<path d="M10.653 12.1634C10.6776 12.1634 10.6976 12.1434 10.6976 12.1188C10.6976 12.0942 10.6776 12.0742 10.653 12.0742C10.6284 12.0742 10.6084 12.0942 10.6084 12.1188C10.6084 12.1434 10.6284 12.1634 10.653 12.1634Z" fill="white"/>
<path d="M10.9805 11.323V11.3231C10.9805 11.3895 11.006 11.45 11.0468 11.4938C11.0878 11.5378 11.1442 11.5652 11.2059 11.5652C11.2679 11.5652 11.3242 11.538 11.365 11.4942C11.4057 11.4504 11.431 11.39 11.431 11.3234V11.0004L10.9813 11L10.9805 11.323" fill="#003399"/>
<path d="M11.0836 11.1675C11.1083 11.1675 11.1282 11.1475 11.1282 11.1229C11.1282 11.0983 11.1083 11.0783 11.0836 11.0783C11.059 11.0783 11.0391 11.0983 11.0391 11.1229C11.0391 11.1475 11.059 11.1675 11.0836 11.1675Z" fill="white"/>
<path d="M11.3336 11.1673C11.3583 11.1673 11.3782 11.1473 11.3782 11.1227C11.3782 11.0981 11.3583 11.0781 11.3336 11.0781C11.309 11.0781 11.2891 11.0981 11.2891 11.1227C11.2891 11.1473 11.309 11.1673 11.3336 11.1673Z" fill="white"/>
<path d="M11.2086 11.2884C11.2333 11.2884 11.2532 11.2684 11.2532 11.2438C11.2532 11.2192 11.2333 11.1992 11.2086 11.1992C11.184 11.1992 11.1641 11.2192 11.1641 11.2438C11.1641 11.2684 11.184 11.2884 11.2086 11.2884Z" fill="white"/>
<path d="M11.0836 11.4134C11.1083 11.4134 11.1282 11.3934 11.1282 11.3688C11.1282 11.3442 11.1083 11.3242 11.0836 11.3242C11.059 11.3242 11.0391 11.3442 11.0391 11.3688C11.0391 11.3934 11.059 11.4134 11.0836 11.4134Z" fill="white"/>
<path d="M11.3327 11.4134C11.3573 11.4134 11.3772 11.3934 11.3772 11.3688C11.3772 11.3442 11.3573 11.3242 11.3327 11.3242C11.308 11.3242 11.2881 11.3442 11.2881 11.3688C11.2881 11.3934 11.308 11.4134 11.3327 11.4134Z" fill="white"/>
<path d="M20 6L20 18L4 18L4 6L20 6ZM20 5L4 5C3.4 5 3 5.4 3 6L3 18C3 18.6 3.4 19 4 19L20 19C20.6 19 21 18.6 21 18L21 6C21 5.4 20.6 5 20 5Z" fill="#B5B5B5"/>
</svg>
