<svg width="24" height="24" viewBox="0 0 24 24" fill="none" xmlns="http://www.w3.org/2000/svg">
<path d="M20 6H4V18H20V6Z" fill="#8D1B3D"/>
<path d="M8.71429 18H4V6H8.71429L10 6.66667L8.71429 7.33333L10 8L8.71429 8.66667L10 9.33333L8.71429 10L10 10.6667L8.71429 11.3333L10 12L8.71429 12.6667L10 13.3333L8.71429 14L10 14.6667L8.71429 15.3333L10 16L8.71429 16.6667L10 17.3333L8.71429 18Z" fill="white"/>
<path d="M20 6L20 18L4 18L4 6L20 6ZM20 5L4 5C3.4 5 3 5.4 3 6L3 18C3 18.6 3.4 19 4 19L20 19C20.6 19 21 18.6 21 18L21 6C21 5.4 20.6 5 20 5Z" fill="#B5B5B5"/>
</svg>
