<svg width="24" height="24" viewBox="0 0 24 24" fill="none" xmlns="http://www.w3.org/2000/svg">
<path d="M20 6H4V18H20V6Z" fill="#20603D"/>
<path d="M20 6H4V15H20V6Z" fill="#FAD201"/>
<path d="M20 6H4V12H20V6Z" fill="#00A1DE"/>
<path d="M19.7105 9.13385L18.3703 9.21217L19.6445 9.63467L18.3298 9.36346L19.4512 10.1014L18.2515 9.49911L19.1437 10.5021L18.1407 9.60987L18.743 10.8096L18.0051 9.68818L18.2763 11.0029L17.8538 9.72872L17.7755 11.0689L17.7588 9.11719L19.7105 9.13385Z" fill="#E5BE01"/>
<path d="M15.7583 9.13385L17.0984 9.21217L15.8242 9.63467L17.139 9.36346L16.0175 10.1014L17.2173 9.49911L16.325 10.5021L17.328 9.60987L16.7258 10.8096L17.4637 9.68818L17.1925 11.0029L17.615 9.72872L17.6933 11.0689L17.71 9.11719L15.7583 9.13385Z" fill="#E5BE01"/>
<path d="M15.7104 9.05023L17.0506 8.97191L15.7764 8.54941L17.0911 8.82062L15.9697 8.08273L17.1694 8.68497L16.2772 7.68198L17.2802 8.57422L16.6779 7.37447L17.4158 8.4959L17.1446 7.18116L17.5671 8.45536L17.6454 7.11523L17.6621 9.06689L15.7104 9.05023Z" fill="#E5BE01"/>
<path d="M19.6128 8.99694L18.2727 8.91863L19.5469 8.49613L18.2321 8.76733L19.3536 8.02944L18.1538 8.63169L19.0461 7.62869L18.0431 8.52093L18.6453 7.32119L17.9074 8.44262L18.1786 7.12788L17.7561 8.40208L17.6778 7.06194L17.6611 9.01361L19.6128 8.99694Z" fill="#E5BE01"/>
<path d="M17.7748 9.70583C18.0905 9.70583 18.3465 9.44989 18.3465 9.13417C18.3465 8.81844 18.0905 8.5625 17.7748 8.5625C17.4591 8.5625 17.2031 8.81844 17.2031 9.13417C17.2031 9.44989 17.4591 9.70583 17.7748 9.70583Z" fill="#E5BE01" stroke="#00A1DE" stroke-width="0.05"/>
<path d="M20 6L20 18L4 18L4 6L20 6ZM20 5L4 5C3.4 5 3 5.4 3 6L3 18C3 18.6 3.4 19 4 19L20 19C20.6 19 21 18.6 21 18L21 6C21 5.4 20.6 5 20 5Z" fill="#B5B5B5"/>
</svg>
