<svg width="24" height="24" viewBox="0 0 24 24" fill="none" xmlns="http://www.w3.org/2000/svg">
<path d="M20 6H4V18H20V6Z" fill="#009E60"/>
<path d="M16 6H4V18H16V6Z" fill="#FCD116"/>
<path d="M8.5 6H4V18H8.5V6Z" fill="#0072C6"/>
<path d="M11 13.5L12 15.5L13 13.5L12 11.5L11 13.5Z" fill="#009E60"/>
<path d="M9.75 11L10.75 13L11.75 11L10.75 9L9.75 11Z" fill="#009E60"/>
<path d="M12.25 11L13.25 13L14.25 11L13.25 9L12.25 11Z" fill="#009E60"/>
<path d="M20 6L20 18L4 18L4 6L20 6ZM20 5L4 5C3.4 5 3 5.4 3 6L3 18C3 18.6 3.4 19 4 19L20 19C20.6 19 21 18.6 21 18L21 6C21 5.4 20.6 5 20 5Z" fill="#B5B5B5"/>
</svg>
