<svg width="24" height="24" viewBox="0 0 24 24" fill="none" xmlns="http://www.w3.org/2000/svg">
<path d="M20 6H4V18H20V6Z" fill="#CE1126"/>
<path d="M12 6H4V12H12V6Z" fill="#002B7F"/>
<path d="M8.00011 7.16797L8.27479 8.01335L7.55566 7.49088H8.44455L7.72543 8.01335L8.00011 7.16797Z" fill="white"/>
<path d="M6.77745 8.16797L7.05213 9.01335L6.33301 8.49088H7.2219L6.50277 9.01335L6.77745 8.16797Z" fill="white"/>
<path d="M9.24967 8L9.50719 8.79255L8.83301 8.30273H9.66634L8.99216 8.79255L9.24967 8Z" fill="white"/>
<path d="M8.61079 9.02734L8.78246 9.55571L8.33301 9.22916H8.88856L8.43911 9.55571L8.61079 9.02734Z" fill="white"/>
<path d="M7.99989 9.77734L8.34324 10.8341L7.44434 10.181H8.55545L7.65654 10.8341L7.99989 9.77734Z" fill="white"/>
<path d="M20 6L20 18L4 18L4 6L20 6ZM20 5L4 5C3.4 5 3 5.4 3 6L3 18C3 18.6 3.4 19 4 19L20 19C20.6 19 21 18.6 21 18L21 6C21 5.4 20.6 5 20 5Z" fill="#B5B5B5"/>
</svg>
