<svg width="24" height="24" viewBox="0 0 24 24" fill="none" xmlns="http://www.w3.org/2000/svg">
<path d="M20 6H4V18H20V6Z" fill="#12AD2B"/>
<path d="M20 9H4V15H20V9Z" fill="#FFCE00"/>
<path d="M4 6V18L8 12" fill="#D21034"/>
<path d="M20 6L20 18L4 18L4 6L20 6ZM20 5L4 5C3.4 5 3 5.4 3 6L3 18C3 18.6 3.4 19 4 19L20 19C20.6 19 21 18.6 21 18L21 6C21 5.4 20.6 5 20 5Z" fill="none"/>
<path d="M11.5 10.5L11.8368 11.5365H12.9266L12.0449 12.1771L12.3817 13.2135L11.5 12.5729L10.6183 13.2135L10.9551 12.1771L10.0734 11.5365H11.1632L11.5 10.5Z" fill="black"/>
<path d="M16.5 10.5L16.8368 11.5365H17.9266L17.0449 12.1771L17.3817 13.2135L16.5 12.5729L15.6183 13.2135L15.9551 12.1771L15.0734 11.5365H16.1632L16.5 10.5Z" fill="black"/>
</svg>
