<svg width="24" height="24" viewBox="0 0 24 24" fill="none" xmlns="http://www.w3.org/2000/svg">
<path d="M20 6H4V12H20V6Z" fill="#ED2939"/>
<path d="M20 12H4V18H20V12Z" fill="white"/>
<path d="M10.1736 8.99844C10.1736 9.59683 9.93592 10.1707 9.51279 10.5938C9.08966 11.017 8.51578 11.2547 7.91738 11.2547C7.31899 11.2547 6.7451 11.017 6.32197 10.5938C5.89884 10.1707 5.66113 9.59683 5.66113 8.99844C5.66113 8.40004 5.89884 7.82616 6.32197 7.40303C6.7451 6.9799 7.31899 6.74219 7.91738 6.74219C8.51578 6.74219 9.08966 6.9799 9.51279 7.40303C9.93592 7.82616 10.1736 8.40004 10.1736 8.99844Z" fill="white"/>
<path d="M10.8826 8.99942C10.8826 9.56492 10.658 10.1073 10.2581 10.5071C9.85824 10.907 9.3159 11.1316 8.75039 11.1316C8.18489 11.1316 7.64255 10.907 7.24268 10.5071C6.84281 10.1073 6.61816 9.56492 6.61816 8.99942C6.61816 8.43391 6.84281 7.89157 7.24268 7.4917C7.64255 7.09183 8.18489 6.86719 8.75039 6.86719C9.3159 6.86719 9.85824 7.09183 10.2581 7.4917C10.658 7.89157 10.8826 8.43391 10.8826 8.99942Z" fill="#ED2939"/>
<path d="M8.19696 9.05412L7.89046 8.819L7.58404 9.05424L7.70201 8.67509L7.39453 8.44138L7.77394 8.44218L7.89034 8.0625L8.00686 8.44214L8.38627 8.4412L8.07887 8.67503L8.19696 9.05412Z" fill="white"/>
<path d="M10.5026 9.05412L10.1961 8.819L9.8897 9.05424L10.0077 8.67509L9.7002 8.44138L10.0796 8.44218L10.196 8.0625L10.3125 8.44214L10.6919 8.4412L10.3845 8.67503L10.5026 9.05412Z" fill="white"/>
<path d="M9.30243 7.99162L8.99593 7.7565L8.68951 7.99174L8.80748 7.61259L8.5 7.37888L8.87941 7.37968L8.99581 7L9.11232 7.37964L9.49174 7.3787L9.18434 7.61253L9.30243 7.99162Z" fill="white"/>
<path d="M10.0026 10.4916L9.69613 10.2565L9.3897 10.4917L9.50767 10.1126L9.2002 9.87888L9.57961 9.87968L9.696 9.5L9.81252 9.87964L10.1919 9.8787L9.88453 10.1125L10.0026 10.4916Z" fill="white"/>
<path d="M8.60224 10.4916L8.29573 10.2565L7.98931 10.4917L8.10728 10.1126L7.7998 9.87888L8.17922 9.87968L8.29561 9.5L8.41213 9.87964L8.79154 9.8787L8.48414 10.1125L8.60224 10.4916Z" fill="white"/>
<path d="M20 6L20 18L4 18L4 6L20 6ZM20 5L4 5C3.4 5 3 5.4 3 6L3 18C3 18.6 3.4 19 4 19L20 19C20.6 19 21 18.6 21 18L21 6C21 5.4 20.6 5 20 5Z" fill="#B5B5B5"/>
</svg>
