<svg width="24" height="24" viewBox="0 0 24 24" fill="none" xmlns="http://www.w3.org/2000/svg">
<path d="M4 6L11.0772 11H20V6H4Z" fill="#DC171D"/>
<path d="M4 6L11 11.5182L4 17V6Z" fill="white" stroke="white"/>
<path d="M4 18L11.0772 11H20V18H4Z" fill="#012A87"/>
<path d="M7.5749 10.0344L7.57707 9.95179C7.57707 9.95179 7.53272 9.88115 7.58419 9.80527C7.58419 9.80527 7.47486 9.74744 7.50031 9.65687C7.50031 9.65687 7.40147 9.63158 7.40873 9.52284C7.40873 9.52284 7.30202 9.51544 7.29096 9.42461C7.29096 9.42461 7.18426 9.44218 7.1373 9.35367C7.1373 9.35367 7.0332 9.37401 7.00385 9.30104C7.00385 9.30104 6.90266 9.33609 6.84262 9.25032C6.84262 9.25032 6.73577 9.29349 6.69099 9.21252C6.64678 9.29321 6.53993 9.25032 6.53993 9.25032C6.48061 9.33578 6.3787 9.30032 6.3787 9.30032C6.35036 9.37358 6.24656 9.35281 6.24656 9.35281C6.19975 9.44135 6.09319 9.42375 6.09319 9.42375C6.08273 9.51432 5.97617 9.52172 5.97617 9.52172C5.9846 9.63075 5.88589 9.65546 5.88589 9.65546C5.91192 9.74601 5.80273 9.8037 5.80273 9.8037C5.85551 9.88001 5.81159 9.95009 5.81159 9.95009L5.80913 10.0262L7.57521 10.0344" fill="#FFFF00"/>
<path d="M7.5749 10.0344L7.57707 9.95179C7.57707 9.95179 7.53272 9.88115 7.58419 9.80527C7.58419 9.80527 7.47486 9.74744 7.50031 9.65687C7.50031 9.65687 7.40147 9.63158 7.40873 9.52284C7.40873 9.52284 7.30202 9.51544 7.29096 9.42461C7.29096 9.42461 7.18426 9.44218 7.1373 9.35367C7.1373 9.35367 7.0332 9.37401 7.00385 9.30104C7.00385 9.30104 6.90266 9.33609 6.84262 9.25032C6.84262 9.25032 6.73577 9.29349 6.69099 9.21252C6.64678 9.29321 6.53993 9.25032 6.53993 9.25032C6.48061 9.33578 6.3787 9.30032 6.3787 9.30032C6.35036 9.37358 6.24656 9.35281 6.24656 9.35281C6.19975 9.44135 6.09319 9.42375 6.09319 9.42375C6.08273 9.51432 5.97617 9.52172 5.97617 9.52172C5.9846 9.63075 5.88589 9.65546 5.88589 9.65546C5.91192 9.74601 5.80273 9.8037 5.80273 9.8037C5.85551 9.88001 5.81159 9.95009 5.81159 9.95009L5.80913 10.0262L7.57521 10.0344H7.57492L7.5749 10.0344Z" fill="#F9D90F" stroke="black" stroke-width="0.03"/>
<path d="M7.53387 9.93292C7.25647 9.90515 6.93707 9.83932 6.69051 9.97815C6.52522 9.88075 6.29507 9.88669 6.09911 9.90577C5.99269 9.9248 5.86753 9.9248 5.75631 9.94297L5.73887 9.94543C5.53709 9.95883 5.35406 9.89921 5.17871 9.82086C5.23438 10.1369 5.29619 10.4607 5.32657 10.7915C5.39272 11.2815 5.09469 11.6929 5.21695 12.1769C5.28993 12.4092 5.54535 12.5442 5.77914 12.571C6.00549 12.5843 6.23971 12.6214 6.4492 12.6669C6.48904 12.6752 6.53628 12.6937 6.56377 12.7056C6.62149 12.7297 6.66379 12.7652 6.70085 12.8031C6.82733 12.6714 7.01268 12.6348 7.19557 12.6154C7.52515 12.5769 7.93148 12.5979 8.13327 12.2993V12.2824C8.24289 12.1173 8.22834 11.8654 8.18082 11.6784C8.17762 11.6131 8.16018 11.5555 8.15072 11.4933C7.94937 10.9616 8.1218 10.3636 8.20845 9.82769C8.1026 9.88555 7.98455 9.91286 7.86681 9.9418C7.77291 9.95432 7.66823 9.94863 7.57315 9.94352L7.53375 9.93292" fill="#DC171D"/>
<path d="M7.9475 11.4578C7.94618 11.4928 7.9651 11.5203 7.97193 11.5527C8.01045 11.7851 8.04768 12.0929 7.80838 12.2371C7.54365 12.4055 7.19647 12.3334 6.89015 12.4225C6.82894 12.4395 6.74464 12.4957 6.7016 12.5355C6.67397 12.5174 6.64622 12.4895 6.61059 12.4731C6.35851 12.339 6.03082 12.3839 5.74631 12.3115C5.6034 12.2663 5.4544 12.155 5.41819 12.0088C5.32514 11.6251 5.54801 11.298 5.5217 10.9173C5.50469 10.6266 5.45583 10.3476 5.38867 10.075C5.61111 10.1786 5.86856 10.1959 6.11864 10.1462C6.30384 10.1204 6.51945 10.1198 6.69303 10.1981C6.78868 10.157 6.90064 10.1385 7.00371 10.1272C7.19969 10.1462 7.41033 10.1817 7.61214 10.1802C7.74691 10.1732 7.86933 10.1343 7.9865 10.0824C7.917 10.5329 7.78354 11.0047 7.9474 11.4578" fill="#62AFE1"/>
<path d="M7.54777 11.5451L7.54559 11.1215H7.59778L6.95026 10.7034L6.94909 10.486H7.01161L6.68784 10.2542L6.36566 10.4859H6.42802L6.42919 10.703L5.78516 11.1207L5.83662 11.121L5.8388 11.5442L7.5476 11.5454" fill="white"/>
<path d="M7.54777 11.5451L7.54559 11.1215H7.59778L6.95026 10.7034L6.94909 10.486H7.01161L6.68784 10.2542L6.36566 10.4859H6.42802L6.42919 10.703L5.78516 11.1207L5.83662 11.121L5.8388 11.5442L7.5476 11.5454L7.54774 11.5451H7.54777Z" stroke="black" stroke-width="0.03"/>
<path d="M7.74692 12.1018L7.74707 12.2343L5.66102 12.232L5.66016 12.1L7.74709 12.1018" fill="white"/>
<path d="M7.74692 12.1018L7.74707 12.2343L5.66102 12.232L5.66016 12.1L7.74709 12.1018H7.74695L7.74692 12.1018Z" stroke="black" stroke-width="0.03"/>
<path d="M5.79926 12.0948L5.79752 11.6463L5.88199 11.6461L5.87734 12.0999L5.88242 11.6498L5.76074 11.6463V11.55L7.62509 11.5521L7.62598 11.6474H7.51098L7.51316 12.1017L7.5091 11.6474H7.59471L7.5966 12.0966" fill="white"/>
<path d="M5.79926 12.0951L5.79752 11.6466L5.88199 11.6464L5.87734 12.1002L5.88242 11.6501L5.76074 11.6466V11.5503L7.62509 11.5524L7.62598 11.6477H7.51098L7.51316 12.102L7.5091 11.6477H7.59471L7.5966 12.0969M6.20008 11.9847L6.19877 11.6719H5.94843L5.94989 11.9844L6.20008 11.9847M6.20008 11.9847L6.19877 11.6719H5.94843L5.94989 11.9844L6.20008 11.9847M6.20008 11.9847L6.19877 11.6719H5.94843L5.94989 11.9844L6.20008 11.9847M6.20008 11.9847L6.19877 11.6719H5.94843L5.94989 11.9844L6.20008 11.9847M6.20008 11.9847L6.19877 11.6719H5.94843L5.94989 11.9844L6.20008 11.9847M7.42388 11.9855L7.42243 11.673L7.17295 11.6728L7.17412 11.9855H7.42388M6.65105 11.4756L6.64988 11.1634L6.39983 11.1631L6.40086 11.4756H6.65105M6.46773 11.2284L6.4683 11.4095L6.58287 11.4101L6.58215 11.2284H6.46773M7.00026 11.4762L6.99852 11.1634L6.74861 11.1631L6.74978 11.4756L7.00028 11.4762M6.81663 11.2287L6.81751 11.4104H6.93208L6.9315 11.2287H6.81665M6.01662 11.7371L6.01733 11.9188H6.1319L6.13132 11.7371H6.01662ZM7.24042 11.7383L7.24173 11.9194H7.35615L7.35513 11.7383H7.24042ZM7.422 11.4762L7.42054 11.1634H7.17078L7.17166 11.4762H7.42216H7.42202H7.422ZM7.23853 11.2293L7.23925 11.4107H7.35367L7.35353 11.2293H7.23853ZM6.19805 11.4751L6.19631 11.1628L5.9464 11.1625L5.94757 11.4749H6.19808V11.4751H6.19805ZM6.01456 11.2281L6.01514 11.4092L6.12984 11.4095L6.12898 11.2281H6.01456Z" stroke="black" stroke-width="0.03"/>
<path d="M7.06217 11.3798L7.06494 12.1009L6.34052 12.0997L6.33789 11.3792L7.06203 11.3798" fill="white"/>
<path d="M6.33361 11.5872L7.06297 11.5878M6.42462 12.1022L6.42216 11.5926M6.9769 12.1024L6.97444 11.5932M7.06226 11.3814L7.06503 12.1024L6.3406 12.1013L6.33798 11.3808L7.06226 11.3814ZM7.32671 11.0742L6.91877 10.7764L6.4604 10.7758L6.05566 11.0731L7.32671 11.0742ZM6.4957 10.5292L6.49641 10.7109L6.88197 10.7111L6.88125 10.5295L6.4957 10.5292Z" stroke="black" stroke-width="0.03"/>
<path d="M6.49609 10.5292L6.49681 10.7109L6.88237 10.7111L6.88165 10.5295L6.49609 10.5292Z" stroke="black" stroke-width="0.03"/>
<path d="M6.68745 10.3209L6.90189 10.4725L6.47461 10.4719L6.68745 10.3209M6.68745 10.3209L6.90189 10.4725L6.47461 10.4719L6.68745 10.3209M6.68745 10.3209L6.90189 10.4725L6.47461 10.4719L6.68745 10.3209M6.68745 10.3209L6.90189 10.4725L6.47461 10.4719L6.68745 10.3209M6.68745 10.3209L6.90189 10.4725L6.47461 10.4719L6.68745 10.3209M6.59992 10.5727L6.60049 10.6632H6.77756L6.77698 10.5727H6.59992Z" stroke="black" stroke-width="0.03"/>
<path d="M7.55478 10.2169C7.6157 10.2155 7.63139 10.4678 7.63153 10.5928C7.68386 10.6075 7.79988 10.6805 7.8512 10.7465L7.2627 10.7456C7.31328 10.6805 7.42844 10.6072 7.48034 10.5926C7.48034 10.4674 7.49314 10.2152 7.55478 10.2167" fill="white"/>
<path d="M7.55503 10.2169C7.61596 10.2155 7.63165 10.4678 7.63179 10.5928C7.68412 10.6075 7.80014 10.6805 7.85146 10.7465L7.26295 10.7456C7.31354 10.6805 7.4287 10.6072 7.48059 10.5926C7.48059 10.4674 7.49339 10.2152 7.55503 10.2167M6.37207 11.3988H6.42485L6.40945 11.4272M6.37207 11.3988H6.42485L6.40945 11.4272M6.37207 11.3988H6.42485L6.40945 11.4272M6.37207 11.3988H6.42485L6.40945 11.4272M6.37207 11.3988H6.42485L6.40945 11.4272C6.40945 11.4272 6.43488 11.4599 6.40988 11.4974L6.42368 11.5234H6.37279L6.38659 11.4987C6.38659 11.4987 6.36056 11.4552 6.38776 11.4272L6.37207 11.3988M6.47966 11.3988H6.53244L6.51718 11.4272C6.51718 11.4272 6.54261 11.459 6.51732 11.4974L6.53098 11.5234H6.48026L6.49392 11.4987C6.49392 11.4987 6.46848 11.4552 6.49523 11.4272L6.47968 11.3988M6.84716 11.3991H6.8998L6.88425 11.4277C6.88425 11.4277 6.90983 11.4599 6.88454 11.4974L6.89848 11.524H6.84776L6.86099 11.4992C6.86099 11.4992 6.83541 11.4558 6.86302 11.4277L6.84716 11.3991M6.96421 11.3994L7.01685 11.3991L7.0013 11.4277C7.0013 11.4277 7.02733 11.4599 7.00201 11.4975L7.01525 11.524H6.96435L6.97801 11.4993C6.97801 11.4993 6.95258 11.4558 6.97976 11.4277L6.96421 11.3994M6.59697 11.3988H6.64961L6.63392 11.4272C6.63392 11.4272 6.65964 11.4599 6.63435 11.4974L6.64815 11.524L6.59771 11.5234L6.61123 11.4987C6.61123 11.4987 6.58551 11.4555 6.61225 11.4272L6.59685 11.3988H6.59699H6.59697ZM6.72942 11.3991H6.78249L6.76694 11.4277C6.76694 11.4277 6.79237 11.4599 6.76708 11.4975L6.78134 11.524H6.73016L6.74382 11.4992C6.74382 11.4992 6.71839 11.4555 6.74557 11.4277L6.72956 11.3991H6.72942V11.3991Z" stroke="black" stroke-width="0.03"/>
<path d="M6.70311 13.0255C6.97439 13.0264 7.30802 12.971 7.46431 12.8902L7.80755 12.8598L7.81438 13.2785C7.52361 13.4389 6.85225 13.4733 6.70454 13.4721C6.55669 13.4733 5.87704 13.4383 5.58496 13.2774L5.58873 12.8583L5.93271 12.8893C6.089 12.9697 6.43281 13.0255 6.7038 13.0255H6.70308" fill="#F9D90F"/>
<path d="M6.70311 13.0255C6.97439 13.0264 7.30802 12.971 7.46431 12.8902L7.80755 12.8598L7.81438 13.2785C7.52361 13.4389 6.85225 13.4733 6.70454 13.4721C6.55669 13.4733 5.87704 13.4383 5.58496 13.2774L5.58873 12.8583L5.93271 12.8893C6.089 12.9697 6.43281 13.0255 6.7038 13.0255H6.70308" stroke="black" stroke-width="0.03"/>
<path d="M4.70177 11.2378L5.00417 11.3341L4.91273 11.8236L4.62647 11.8681C4.62647 11.8681 4.57821 11.6107 4.70177 11.2375" fill="#F9D90F"/>
<path d="M4.70177 11.2378L5.00417 11.3341L4.91273 11.8236L4.62647 11.8681C4.62647 11.8681 4.57821 11.6107 4.70177 11.2375V11.2378V11.2378Z" stroke="black" stroke-width="0.03"/>
<path d="M4.91306 11.8201L4.62695 11.87L4.80796 11.6125L4.91306 11.8201Z" fill="#7E7E7E"/>
<path d="M4.91306 11.8201L4.62695 11.87L4.80796 11.6125L4.91306 11.8201Z" fill="#F9B60F" stroke="black" stroke-width="0.03"/>
<path d="M4.52101 11.5917L4.81249 11.6127C4.81903 11.8597 4.84898 12.8022 5.97451 12.8533L5.93947 13.1962C4.56942 13.2105 4.46531 12.0402 4.52101 11.5917Z" fill="#F9D90F"/>
<path d="M5.59086 13.2664L5.93439 13.1914M5.59086 13.2664L5.93439 13.1914M5.59086 13.2664L5.93439 13.1914M5.59086 13.2664L5.93439 13.1914M5.59086 13.2664L5.93439 13.1914M4.52101 11.5917L4.81249 11.6127C4.81903 11.8597 4.84898 12.8022 5.97451 12.8533L5.93947 13.1962C4.56942 13.2105 4.46531 12.0402 4.52101 11.5917Z" stroke="black" stroke-width="0.03"/>
<path d="M8.68111 11.242L8.37988 11.3373L8.47539 11.8262L8.76222 11.8722C8.76222 11.8722 8.80831 11.615 8.68109 11.2417" fill="#FFFF00"/>
<path d="M8.68111 11.242L8.37988 11.3373L8.47539 11.8262L8.76222 11.8722C8.76222 11.8722 8.80831 11.615 8.68109 11.2417V11.242H8.68111Z" fill="#F9D90F" stroke="black" stroke-width="0.03"/>
<path d="M8.47559 11.8228L8.76241 11.8742L8.57895 11.6167L8.47559 11.8228Z" fill="#7E7E7E"/>
<path d="M8.47559 11.8228L8.76241 11.8742L8.57895 11.6167L8.47559 11.8228Z" fill="#F9B60F" stroke="black" stroke-width="0.03"/>
<path d="M8.86604 11.596L8.57412 11.616C8.5699 11.8626 8.5484 12.8055 7.42285 12.8555L7.46109 13.1981C8.83086 13.214 8.92507 12.0443 8.86604 11.5959" fill="#F9D90F"/>
<path d="M7.81058 13.2688L7.46617 13.1933M8.86604 11.596L8.57412 11.616C8.5699 11.8626 8.5484 12.8055 7.42285 12.8555L7.46109 13.1981C8.83086 13.214 8.92507 12.0443 8.86604 11.5959V11.596V11.596Z" stroke="black" stroke-width="0.03"/>
<path d="M6.52167 13.233C6.51396 13.238 6.5035 13.2393 6.49144 13.2387L6.43706 13.2359L6.44171 13.1681L6.49564 13.1709C6.50624 13.1717 6.51467 13.1737 6.51993 13.1769C6.53084 13.1826 6.53562 13.1931 6.53462 13.2076C6.5339 13.2201 6.52953 13.2282 6.52153 13.233M6.43023 13.3399L6.4356 13.2571L6.49898 13.2615C6.51947 13.2631 6.53473 13.2577 6.54508 13.2473C6.55582 13.2371 6.56136 13.2237 6.56208 13.2086C6.56339 13.191 6.55888 13.1766 6.54842 13.166C6.53839 13.1558 6.52413 13.1505 6.50627 13.1487L6.41571 13.1431L6.40319 13.3378L6.43008 13.3396M6.62735 13.1769L6.69365 13.1776L6.62735 13.1769ZM6.62735 13.1769L6.69365 13.1776L6.62735 13.1769ZM6.62735 13.1769L6.69365 13.1776L6.62735 13.1769ZM6.62735 13.1769L6.69365 13.1776L6.62735 13.1769ZM6.62735 13.1769L6.69365 13.1776C6.70325 13.1785 6.71079 13.1797 6.71634 13.1823C6.72651 13.1871 6.73131 13.1967 6.73131 13.2106C6.73131 13.2237 6.72754 13.2325 6.72011 13.2377C6.71299 13.2425 6.70268 13.2447 6.6903 13.2447L6.62663 13.2439L6.62721 13.1769M6.62618 13.3495L6.62675 13.2663L6.68897 13.2672C6.70002 13.2672 6.70817 13.2681 6.71383 13.2708C6.723 13.2751 6.72749 13.2839 6.72792 13.2961L6.72952 13.3288C6.72995 13.3367 6.73009 13.3415 6.73055 13.3447C6.73143 13.347 6.73186 13.3495 6.73301 13.3513H6.76644L6.76587 13.347C6.76209 13.345 6.75904 13.3411 6.75772 13.3351C6.75655 13.3314 6.75598 13.3257 6.75569 13.3186L6.75512 13.2925C6.75469 13.2808 6.75266 13.2726 6.74815 13.2681C6.74423 13.2629 6.73883 13.2584 6.73055 13.2556C6.73986 13.2507 6.74683 13.245 6.75192 13.238C6.75672 13.2303 6.75918 13.2206 6.75918 13.2086C6.75918 13.1863 6.75003 13.171 6.73141 13.1627C6.72138 13.1582 6.70857 13.1558 6.69346 13.1556L6.59998 13.1547L6.59927 13.35H6.62616M6.83365 13.3086C6.82173 13.2941 6.81533 13.2759 6.81387 13.2544C6.81256 13.2273 6.81779 13.2067 6.83016 13.1927C6.84267 13.1776 6.85879 13.1704 6.87988 13.1692C6.90111 13.168 6.91855 13.1749 6.93149 13.1882C6.94472 13.2013 6.95227 13.2195 6.95358 13.2422C6.9543 13.264 6.95053 13.2833 6.9405 13.3003C6.93061 13.3176 6.91418 13.3273 6.88991 13.3279C6.86462 13.3292 6.84571 13.3233 6.83365 13.3086M6.80167 13.1856C6.78915 13.2049 6.78407 13.2273 6.78538 13.2544C6.78727 13.2836 6.79629 13.3077 6.8133 13.3259C6.83219 13.3441 6.85719 13.3532 6.88803 13.3515C6.92103 13.35 6.94589 13.3375 6.96275 13.3145C6.97641 13.2938 6.98296 13.2696 6.9815 13.2398C6.97961 13.2132 6.9719 13.1916 6.95752 13.1754C6.93935 13.1538 6.91274 13.1442 6.87668 13.1457C6.84267 13.1478 6.81767 13.1603 6.80152 13.1856M7.71975 12.9047C7.7385 12.9015 7.75479 12.9024 7.76962 12.9074C7.79142 12.9143 7.80611 12.9304 7.81526 12.9551L7.78837 12.9589C7.78256 12.9456 7.77428 12.9364 7.76307 12.9313C7.75216 12.9265 7.7385 12.9253 7.72281 12.9276C7.70449 12.9304 7.6898 12.9396 7.67949 12.9542C7.66931 12.9699 7.66626 12.9909 7.67077 13.0176C7.67454 13.0397 7.68269 13.0585 7.69606 13.0709C7.70841 13.0837 7.72658 13.0882 7.7503 13.0849C7.76804 13.082 7.78228 13.0749 7.79231 13.0627C7.80277 13.051 7.80582 13.0334 7.80234 13.0108L7.73967 13.0204L7.73647 12.9989L7.82369 12.9855L7.84069 13.0888L7.8234 13.0914L7.81265 13.0676C7.80539 13.0784 7.79811 13.0867 7.79171 13.0914C7.78096 13.0999 7.76642 13.1053 7.74824 13.1079C7.7247 13.1115 7.70318 13.1073 7.68369 13.0948C7.66231 13.0789 7.64851 13.0554 7.64328 13.0227C7.63762 12.9906 7.64271 12.9631 7.65754 12.9414C7.67163 12.9205 7.69214 12.9083 7.71975 12.9044M7.91702 12.8895L7.97954 12.8669C7.98812 12.8637 7.99555 12.8626 8.00192 12.8634C8.01341 12.8643 8.02184 12.8711 8.02664 12.8847C8.03115 12.8964 8.03115 12.9065 8.02607 12.9137C8.02069 12.9211 8.01226 12.9265 8.00004 12.931L7.94131 12.9521L7.91702 12.8895ZM7.97954 13.051L7.94902 12.9727L8.00718 12.9518C8.01809 12.9483 8.02564 12.9464 8.03132 12.947C8.04164 12.9483 8.0495 12.9546 8.05473 12.9664L8.06796 12.9963C8.07087 13.0037 8.07319 13.0082 8.07507 13.0102C8.07596 13.0128 8.07784 13.0144 8.0793 13.0162L8.11085 13.0046L8.10911 13.0003C8.10445 13.0003 8.09996 12.9977 8.09659 12.9926C8.09413 12.989 8.09179 12.9838 8.08845 12.9777L8.07813 12.9532C8.07347 12.9426 8.06867 12.9361 8.06316 12.9322C8.05764 12.9291 8.05064 12.9271 8.04238 12.9265C8.04878 12.9191 8.05344 12.9116 8.05518 12.9029C8.05707 12.8941 8.05621 12.8842 8.05198 12.8732C8.04398 12.8524 8.02929 12.841 8.00866 12.8396C7.99774 12.8387 7.98525 12.841 7.97085 12.8461L7.88304 12.8774L7.95399 13.0611L7.97971 13.0516M8.20822 12.9542L8.09671 12.7916L8.21913 12.7135L8.23265 12.7332L8.13234 12.7972L8.16666 12.847L8.25928 12.7874L8.27194 12.8064L8.17932 12.866L8.21713 12.9208L8.31917 12.8555L8.33269 12.8747L8.2081 12.9542M8.30578 12.6667L8.33775 12.6316C8.35259 12.6159 8.36828 12.6087 8.38545 12.6108C8.4026 12.6122 8.42005 12.6212 8.43866 12.6375C8.44374 12.6414 8.44826 12.6465 8.45292 12.6522C8.46106 12.6628 8.46586 12.6722 8.46892 12.6814C8.47154 12.6931 8.47095 12.7037 8.46689 12.7139C8.46443 12.7189 8.46006 12.7249 8.45351 12.732L8.42139 12.7669L8.30582 12.6665M8.47477 12.7431C8.49746 12.7181 8.5024 12.6912 8.48917 12.6608C8.48145 12.6444 8.46968 12.6284 8.45342 12.6144C8.43293 12.5963 8.41155 12.587 8.38901 12.5852C8.364 12.5833 8.34277 12.5924 8.32431 12.6126L8.26979 12.671L8.4201 12.8021L8.47462 12.7434M8.59115 12.5914L8.41814 12.4898L8.43223 12.4674L8.60552 12.5685L8.59127 12.5917M8.65904 12.4734L8.47224 12.3987L8.52733 12.2673L8.55002 12.276L8.5051 12.3843L8.56137 12.4064L8.60337 12.3067L8.62489 12.3155L8.58331 12.4151L8.64627 12.4407L8.69236 12.3311L8.71505 12.3397L8.65892 12.4734M8.74483 12.244L8.54828 12.2006L8.55482 12.1702L8.7364 12.1089L8.57691 12.0737L8.58274 12.0499L8.77929 12.0922L8.77303 12.1217L8.59117 12.1843L8.75066 12.2188L8.745 12.2441M8.72926 11.9945L8.73172 11.9698C8.74306 11.9701 8.75266 11.9683 8.75992 11.9644C8.77418 11.9567 8.78247 11.942 8.78464 11.9203C8.78552 11.9102 8.78507 11.9013 8.78275 11.8928C8.77853 11.8766 8.76938 11.8676 8.75469 11.8661C8.74378 11.8649 8.73594 11.8676 8.73026 11.8735C8.72517 11.8804 8.7198 11.8902 8.71572 11.9042L8.70671 11.9299C8.70091 11.9468 8.69551 11.9584 8.68971 11.9649C8.68039 11.9771 8.66733 11.9813 8.65061 11.9802C8.63273 11.9783 8.61821 11.9712 8.60786 11.9575C8.59726 11.945 8.59289 11.9271 8.59552 11.905C8.59726 11.8848 8.60395 11.8678 8.61587 11.8542C8.62692 11.8417 8.64407 11.8357 8.66602 11.838L8.66399 11.8627C8.65324 11.8627 8.64464 11.8646 8.63841 11.869C8.62707 11.8752 8.62081 11.8885 8.61892 11.9078C8.61732 11.9238 8.61949 11.9345 8.62561 11.9427C8.63172 11.9495 8.63941 11.9539 8.64844 11.9546C8.65804 11.9555 8.66559 11.9524 8.67082 11.945C8.67459 11.9399 8.67911 11.9289 8.68522 11.911L8.69408 11.884C8.69845 11.8715 8.70368 11.8619 8.70977 11.8551C8.72068 11.8437 8.73492 11.8389 8.75281 11.8403C8.77461 11.8426 8.79016 11.8516 8.79816 11.8682C8.80602 11.8849 8.80907 11.9034 8.80716 11.9243C8.8047 11.948 8.79699 11.9666 8.78273 11.9791C8.76847 11.9919 8.75075 11.9962 8.72923 11.9945M4.65469 11.9826L4.65921 12.007C4.64829 12.0091 4.63958 12.0135 4.63318 12.0192C4.62169 12.0299 4.61777 12.0461 4.62169 12.068C4.62343 12.0773 4.62678 12.0864 4.631 12.0937C4.63972 12.1086 4.65106 12.1145 4.66546 12.1122C4.67607 12.1103 4.68307 12.1062 4.68641 12.0987C4.68961 12.0912 4.69193 12.0799 4.69267 12.0654L4.69398 12.0379C4.69486 12.0209 4.69675 12.0075 4.70052 12.0001C4.70649 11.9867 4.71767 11.9784 4.73439 11.9757C4.75228 11.9725 4.76797 11.9765 4.78148 11.9867C4.79515 11.9962 4.80417 12.0126 4.80752 12.0344C4.81174 12.0543 4.80983 12.0722 4.802 12.0883C4.79443 12.104 4.77991 12.1136 4.75765 12.1177L4.75328 12.093C4.7636 12.0892 4.77131 12.0856 4.7764 12.0805C4.78511 12.0707 4.78774 12.0567 4.7844 12.0373C4.78177 12.0216 4.7764 12.0114 4.76825 12.0063C4.76025 12.0004 4.75225 11.998 4.74354 11.9995C4.73379 12.001 4.72739 12.0063 4.72433 12.0151C4.72245 12.0209 4.72099 12.0329 4.71968 12.0514L4.71836 12.0799C4.71765 12.0933 4.71559 12.1043 4.7111 12.1119C4.70399 12.1258 4.6919 12.1344 4.67432 12.1372C4.65209 12.1409 4.63492 12.1359 4.62272 12.1216C4.6102 12.1077 4.60251 12.091 4.59859 12.0702C4.59422 12.0455 4.59742 12.0263 4.60731 12.0109C4.61734 11.995 4.6332 11.9859 4.65469 11.9828M4.64235 12.2403L4.83453 12.1824L4.87931 12.3177L4.8559 12.3251L4.81927 12.2139L4.76083 12.2315L4.79469 12.3343L4.77231 12.3414L4.73874 12.2384L4.67361 12.2578L4.71082 12.3715L4.68784 12.378L4.64235 12.2402M4.72753 12.4748L4.90431 12.3811L4.9232 12.4141L4.80167 12.5426L4.97918 12.5122L4.9975 12.5449L4.82115 12.6381L4.80864 12.6164L4.91274 12.5616C4.91652 12.5594 4.92234 12.5562 4.93077 12.5517C4.93906 12.548 4.94837 12.5429 4.95767 12.5381L4.78089 12.5681L4.76794 12.5452L4.88862 12.4171L4.88282 12.42C4.87904 12.4222 4.8725 12.4254 4.86362 12.4305C4.8549 12.4359 4.84835 12.4392 4.84413 12.4409L4.74034 12.4966L4.72753 12.4745M5.05697 12.7352C5.04811 12.7332 5.03937 12.7281 5.03079 12.7192L4.99344 12.6807L5.04374 12.6346L5.0814 12.673C5.08866 12.6801 5.09332 12.6871 5.0958 12.693C5.09929 12.7045 5.0958 12.715 5.0852 12.7249C5.0756 12.7337 5.066 12.7374 5.05699 12.7352M4.91496 12.7531L4.9766 12.6965L5.02036 12.7409C5.03445 12.7553 5.04885 12.7618 5.06397 12.7615C5.07937 12.7606 5.0926 12.755 5.10423 12.7439C5.11732 12.7323 5.12358 12.7186 5.12358 12.704C5.12343 12.6897 5.11689 12.6764 5.10483 12.6639L5.04202 12.5998L4.89576 12.7341L4.91465 12.7531M5.09126 12.91L5.19725 12.7439L5.32256 12.8201L5.30948 12.8398L5.20654 12.7782L5.17471 12.8285L5.26935 12.8859L5.25715 12.905L5.16236 12.8478L5.1263 12.9041L5.23054 12.9667L5.21803 12.9864L5.09126 12.91ZM5.405 12.8779L5.46867 12.8981C5.47768 12.9009 5.48422 12.9044 5.48859 12.9083C5.49674 12.916 5.49891 12.927 5.49411 12.9404C5.49019 12.9521 5.48422 12.9596 5.47491 12.9628C5.46662 12.9643 5.45616 12.9643 5.44393 12.9605L5.38389 12.9413L5.40498 12.8779M5.35003 13.0411L5.37649 12.9619L5.43581 12.9813C5.44642 12.984 5.45413 12.9878 5.4579 12.9917C5.46516 12.9983 5.46736 13.008 5.46373 13.0201L5.45487 13.0516C5.45284 13.0593 5.45181 13.0644 5.45095 13.0667C5.45095 13.0692 5.45095 13.0718 5.45138 13.0735L5.48265 13.0837L5.48453 13.0792C5.48119 13.0766 5.4793 13.0718 5.47945 13.0659C5.48016 13.0622 5.48119 13.0564 5.48322 13.0497L5.49079 13.0244C5.49385 13.0134 5.49502 13.0051 5.49225 12.9991C5.48993 12.9929 5.48599 12.9872 5.47945 12.9818C5.48933 12.9801 5.49791 12.977 5.50517 12.9717C5.512 12.9657 5.51782 12.9574 5.52131 12.9458C5.52843 12.9247 5.52451 12.9071 5.5088 12.8937C5.50094 12.8868 5.48976 12.8808 5.47508 12.8753L5.38611 12.8478L5.3239 13.0331L5.34993 13.0411" fill="#012A87"/>
<path d="M5.61981 9.66728C5.64279 9.61188 5.85563 9.46085 6.55402 9.527C6.55402 9.527 6.67207 9.59908 6.74142 9.58979C6.78097 9.58468 6.71816 9.59225 6.66655 9.54937C6.61391 9.50651 6.60274 9.41857 6.72296 9.42088C6.84261 9.42394 7.29052 9.44923 7.29895 9.48948C7.30681 9.53017 7.06214 9.5472 6.97112 9.54486C6.87968 9.5424 6.89028 9.58862 6.9813 9.58514C7.26566 9.57497 7.57604 9.4748 7.90387 9.70665C7.94297 9.73483 7.80502 9.73934 7.69829 9.694C7.69829 9.694 7.40912 9.70899 7.2841 9.68848C7.2841 9.68848 7.188 9.76666 7.06283 9.75897C7.07912 9.79952 7.01659 9.95083 6.62306 9.837C6.55808 9.85694 6.32126 9.8966 6.34712 9.82626C6.28477 9.82626 6.17543 9.84632 6.15915 9.81083C6.14346 9.77597 6.35164 9.72318 6.38813 9.6854C6.38813 9.6854 5.94776 9.68963 5.86432 9.65923C5.86432 9.65923 5.60453 9.71752 5.61979 9.66694" fill="#BC715F"/>
<path d="M5.76062 10.283C5.77007 10.2703 5.77385 10.2473 5.79391 10.2479C5.83752 10.2595 5.86718 10.3393 5.92082 10.2875C5.93985 10.2833 5.94714 10.3092 5.96283 10.3122C5.97286 10.3566 6.00847 10.3032 6.03507 10.3063C6.09191 10.281 6.16227 10.275 6.22959 10.2875C6.23162 10.331 6.19762 10.3789 6.15487 10.4037C6.15575 10.4474 6.19542 10.4755 6.1947 10.5195C6.18787 10.5359 6.19353 10.5618 6.16867 10.5672C6.13712 10.5615 6.106 10.5582 6.07985 10.5406C6.07665 10.5374 6.07405 10.5311 6.06734 10.5332C6.06414 10.5479 6.08711 10.5624 6.09612 10.5774C6.08026 10.6044 6.05396 10.5797 6.03185 10.58C6.02531 10.5956 6.03156 10.6152 6.01556 10.6252C5.98764 10.6244 5.98198 10.594 5.96483 10.5789C5.94723 10.5979 5.97718 10.6092 5.98141 10.6243C5.97066 10.6816 5.9721 10.7376 5.91483 10.7751L5.87645 10.7941C5.86599 10.7654 5.87253 10.7217 5.86553 10.6917C5.84284 10.7286 5.82512 10.7609 5.79183 10.7921C5.75288 10.7793 5.73019 10.7334 5.72162 10.6953C5.70533 10.6509 5.71464 10.5979 5.74968 10.5658C5.73776 10.5425 5.6969 10.5479 5.6911 10.5148C5.62989 10.4749 5.59602 10.5845 5.55647 10.5275C5.54367 10.4744 5.55893 10.4082 5.59748 10.3685C5.5889 10.3467 5.56041 10.3524 5.54355 10.3399C5.50503 10.3072 5.44948 10.2726 5.45225 10.2135C5.55764 10.1737 5.68369 10.2029 5.76031 10.283" fill="#008830"/>
<path d="M5.81551 10.2805C5.81305 10.3287 5.84809 10.2935 5.87409 10.3228C5.85375 10.3148 5.83891 10.3579 5.819 10.3332L5.80648 10.3452C5.81374 10.3617 5.82786 10.3639 5.81317 10.3821C5.79136 10.3904 5.78699 10.363 5.77682 10.3523C5.77508 10.3475 5.78016 10.3385 5.77216 10.3353C5.75982 10.3457 5.74687 10.3495 5.72987 10.3478C5.72521 10.3385 5.71621 10.3263 5.72535 10.3192C5.74207 10.2966 5.76796 10.3273 5.78059 10.3114C5.78262 10.2975 5.77042 10.2805 5.78625 10.2709C5.79717 10.2728 5.81112 10.2668 5.81563 10.2805M5.94591 10.32C5.94722 10.3293 5.94111 10.3424 5.95331 10.349C5.96917 10.3404 5.98603 10.3469 5.99518 10.3626C5.99503 10.371 5.99764 10.3821 5.9866 10.3862L5.96188 10.3815C5.96363 10.3767 5.95577 10.3737 5.95271 10.369C5.9418 10.3657 5.93542 10.3745 5.92728 10.3799C5.93339 10.3892 5.94748 10.3943 5.94414 10.4062C5.9296 10.4207 5.92248 10.3937 5.90648 10.4005C5.89556 10.3963 5.91039 10.3736 5.89325 10.3668C5.8729 10.3668 5.88642 10.4002 5.86038 10.3872C5.85107 10.3767 5.84192 10.3626 5.85195 10.3508C5.86287 10.3435 5.88133 10.3454 5.89062 10.3549C5.90648 10.3373 5.90805 10.2694 5.946 10.32M5.78353 10.3901C5.79413 10.4054 5.78121 10.4261 5.79473 10.4431C5.81596 10.4035 5.83645 10.4517 5.86175 10.4479C5.86946 10.4574 5.86437 10.4705 5.86581 10.4812C5.83454 10.4895 5.79691 10.4994 5.76927 10.4744L5.76156 10.4832C5.77799 10.4985 5.79354 10.5158 5.78045 10.5414C5.75705 10.5465 5.72084 10.547 5.70907 10.5229C5.70295 10.503 5.72332 10.4886 5.70181 10.4726C5.68626 10.492 5.68697 10.5179 5.65457 10.5003C5.63451 10.4892 5.62853 10.4664 5.63857 10.4472C5.65951 10.4142 5.69615 10.4482 5.71881 10.4321C5.72201 10.4038 5.71155 10.379 5.73756 10.3634C5.75979 10.3594 5.77013 10.3761 5.78365 10.3901" fill="#F9D90F"/>
<path d="M5.87241 10.4072C5.86195 10.4555 5.8256 10.4048 5.80859 10.4027C5.83128 10.3625 5.84552 10.4158 5.87241 10.4072ZM5.98566 10.4597C5.96037 10.4668 5.96428 10.4353 5.95179 10.4229L5.96154 10.4141C5.97071 10.4251 5.97768 10.445 5.98568 10.4597" fill="white"/>
<path d="M5.95088 10.4471C5.95814 10.4638 5.93445 10.4772 5.95465 10.4894C5.96105 10.484 5.96891 10.4766 5.97225 10.4735C5.98954 10.4786 6.00961 10.4817 6.02169 10.4988C6.03463 10.5343 5.99872 10.5334 5.97837 10.5433L5.95816 10.5424C5.96296 10.5325 5.94945 10.5283 5.9461 10.5215C5.93679 10.5192 5.9291 10.5221 5.92387 10.5299C5.92838 10.5524 5.95585 10.57 5.9275 10.5901C5.90352 10.5885 5.86629 10.5978 5.86849 10.5646C5.85948 10.5459 5.89292 10.517 5.85714 10.5158C5.84537 10.5411 5.83242 10.5655 5.80176 10.5415L5.80553 10.5055C5.83491 10.5063 5.86966 10.5114 5.88286 10.4786C5.89129 10.4548 5.86817 10.4328 5.88883 10.4139C5.91878 10.4071 5.93564 10.4271 5.9509 10.447" fill="#F9D90F"/>
<path d="M5.92938 10.5019C5.93695 10.5198 5.91658 10.5209 5.907 10.5298C5.89406 10.5308 5.88505 10.5257 5.8772 10.517C5.87139 10.4953 5.88751 10.4932 5.89988 10.4846C5.91429 10.4786 5.92023 10.4953 5.9294 10.5019" fill="black"/>
<path d="M5.91254 10.5134C5.90934 10.5176 5.90482 10.5163 5.90002 10.5175L5.89551 10.4958C5.90511 10.4967 5.9176 10.4998 5.91251 10.5134" fill="white"/>
<path d="M20 6L20 18L4 18L4 6L20 6ZM20 5L4 5C3.4 5 3 5.4 3 6L3 18C3 18.6 3.4 19 4 19L20 19C20.6 19 21 18.6 21 18L21 6C21 5.4 20.6 5 20 5Z" fill="#B5B5B5"/>
</svg>
