<svg width="24" height="24" viewBox="0 0 24 24" fill="none" xmlns="http://www.w3.org/2000/svg">
<path d="M4 18V6H20L4 18Z" fill="#0051BA"/>
<path d="M4 18H20V6L4 18Z" fill="#215B33"/>
<path d="M4 18L20 6L4 18Z" fill="black"/>
<path d="M4 18L20 6" stroke="#FCD116"/>
<path d="M20 6L20 18L4 18L4 6L20 6ZM20 5L4 5C3.4 5 3 5.4 3 6L3 18C3 18.6 3.4 19 4 19L20 19C20.6 19 21 18.6 21 18L21 6C21 5.4 20.6 5 20 5Z" fill="none"/>
<path d="M5.40039 6.6004L5.6249 7.29139H6.35145L5.76366 7.71844L5.98818 8.40942L5.40039 7.98237L4.81261 8.40942L5.03712 7.71844L4.44933 7.29139H5.17588L5.40039 6.6004Z" fill="white"/>
<path d="M9.40039 6.6004L9.6249 7.29139H10.3514L9.76366 7.71844L9.98818 8.40942L9.40039 7.98237L8.81261 8.40942L9.03712 7.71844L8.44933 7.29139H9.17588L9.40039 6.6004Z" fill="white"/>
<path d="M7.40039 8.6004L7.6249 9.29139H8.35145L7.76366 9.71844L7.98818 10.4094L7.40039 9.98237L6.81261 10.4094L7.03712 9.71844L6.44933 9.29139H7.17588L7.40039 8.6004Z" fill="white"/>
<path d="M5.40039 10.6004L5.6249 11.2914H6.35145L5.76366 11.7184L5.98818 12.4094L5.40039 11.9824L4.81261 12.4094L5.03712 11.7184L4.44933 11.2914H5.17588L5.40039 10.6004Z" fill="white"/>
<path d="M9.40039 10.6004L9.6249 11.2914H10.3514L9.76366 11.7184L9.98818 12.4094L9.40039 11.9824L8.81261 12.4094L9.03712 11.7184L8.44933 11.2914H9.17588L9.40039 10.6004Z" fill="white"/>
</svg>
