<svg width="24" height="24" viewBox="0 0 24 24" fill="none" xmlns="http://www.w3.org/2000/svg">
<path d="M20 6H4V18H20V6Z" fill="white"/>
<path d="M6.96777 9.78125L8.63195 7.28515L6.96777 9.78125ZM7.59182 10.1973L9.256 7.70116L7.59182 10.1973ZM8.21587 10.6133L9.88005 8.11716L8.21587 10.6133Z" fill="black"/>
<path d="M6.96777 9.78125L8.63195 7.28515M7.59182 10.1973L9.256 7.70116M8.21587 10.6133L9.88005 8.11716" stroke="black" stroke-width="0.1"/>
<path d="M16.5361 14.3575L18.6163 15.7443L16.5361 14.3575Z" fill="black"/>
<path d="M16.5361 14.3575L18.6163 15.7443" stroke="white" stroke-width="0.1"/>
<path d="M8.11133 15.2598L8.73537 14.8437L8.11133 15.2598ZM16.5358 9.64343L17.2639 9.15806L16.5358 9.64343ZM17.8879 8.74204L18.512 8.32601L17.8879 8.74204Z" fill="black"/>
<path d="M8.11133 15.2598L8.73537 14.8437M16.5358 9.64343L17.2639 9.15806M17.8879 8.74204L18.512 8.32601" stroke="white"/>
<path d="M20 6L20 18L4 18L4 6L20 6ZM20 5L4 5C3.4 5 3 5.4 3 6L3 18C3 18.6 3.4 19 4 19L20 19C20.6 19 21 18.6 21 18L21 6C21 5.4 20.6 5 20 5Z" fill="none"/>
<g clip-path="url(#clip0_14099_123822)">
<path d="M20 6.66602H4V17.3328H20V6.66602Z" fill="white"/>
<path d="M13.9474 12.0005C13.9474 12.4875 13.0753 13.7049 11.9996 13.7049C10.9238 13.7049 10.0518 12.4875 10.0518 12.0005C10.0518 10.9248 10.9238 10.0527 11.9996 10.0527C13.0753 10.0527 13.9474 10.9248 13.9474 12.0005Z" fill="#D80027"/>
<path d="M13.9474 12C13.9474 13.0758 13.0753 13.9478 11.9996 13.9478C10.9238 13.9478 10.0518 13.0758 10.0518 12" fill="#0052B4"/>
<path d="M14.5829 13.2061L14.0664 13.7227L14.4107 14.067L14.9272 13.5505L14.5829 13.2061Z" fill="black"/>
<path d="M13.7216 14.0655L13.2051 14.582L13.5494 14.9263L14.0659 14.4098L13.7216 14.0655Z" fill="black"/>
<path d="M15.6151 14.2374L15.0986 14.7539L15.443 15.0982L15.9594 14.5817L15.6151 14.2374Z" fill="black"/>
<path d="M14.7548 15.0987L14.2383 15.6152L14.5826 15.9595L15.0991 15.443L14.7548 15.0987Z" fill="black"/>
<path d="M15.0995 13.7218L14.583 14.2383L14.9273 14.5826L15.4438 14.0661L15.0995 13.7218Z" fill="black"/>
<path d="M14.2382 14.5831L13.7217 15.0996L14.066 15.4439L14.5825 14.9274L14.2382 14.5831Z" fill="black"/>
<path d="M13.7223 8.90001L15.0996 10.2773L15.4439 9.93303L14.0666 8.5557L13.7223 8.90001Z" fill="black"/>
<path d="M13.2052 9.41709L13.7217 9.93359L14.066 9.58931L13.5495 9.0728L13.2052 9.41709Z" fill="black"/>
<path d="M14.0655 10.2784L14.582 10.7949L14.9263 10.4506L14.4098 9.93413L14.0655 10.2784Z" fill="black"/>
<path d="M14.2374 8.38388L14.7539 8.90039L15.0982 8.55608L14.5817 8.03957L14.2374 8.38388Z" fill="black"/>
<path d="M15.0987 9.24521L15.6152 9.76172L15.9596 9.41741L15.4431 8.9009L15.0987 9.24521Z" fill="black"/>
<path d="M9.76205 15.6156L8.38477 14.2383L8.04044 14.5826L9.41773 15.9599L9.76205 15.6156Z" fill="black"/>
<path d="M10.2782 15.0985L9.76172 14.582L9.41742 14.9263L9.93391 15.4428L10.2782 15.0985Z" fill="black"/>
<path d="M9.41786 14.2372L8.90137 13.7207L8.55704 14.065L9.07353 14.5815L9.41786 14.2372Z" fill="black"/>
<path d="M10.7953 14.5824L9.41797 13.2051L9.07365 13.5494L10.4509 14.9267L10.7953 14.5824Z" fill="black"/>
<path d="M8.38443 9.7621L9.76172 8.38477L9.4174 8.04045L8.04011 9.41779L8.38443 9.7621Z" fill="black"/>
<path d="M8.90103 10.2777L10.2783 8.90039L9.934 8.55608L8.55671 9.93341L8.90103 10.2777Z" fill="black"/>
<path d="M9.41763 10.7953L10.7949 9.41797L10.4506 9.07368L9.07333 10.451L9.41763 10.7953Z" fill="black"/>
</g>
<path d="M13.7284 13.066C14.3536 12.1282 14.1002 10.8611 13.1624 10.2359C12.2246 9.61067 10.9575 9.86409 10.3323 10.8019C9.70703 11.7397 9.96045 13.0068 10.8983 13.6321C11.8361 14.2573 13.1032 14.0039 13.7284 13.066Z" fill="#C60C30"/>
<path d="M10.3323 10.8019C10.1821 11.0271 10.1276 11.3027 10.1807 11.5681C10.2338 11.8334 10.3901 12.0669 10.6153 12.217C10.8404 12.3671 11.116 12.4216 11.3814 12.3685C11.6468 12.3155 11.8802 12.1592 12.0303 11.934C12.1805 11.7088 12.4139 11.5525 12.6793 11.4994C12.9446 11.4463 13.2202 11.5008 13.4454 11.651C13.6706 11.8011 13.8269 12.0345 13.88 12.2999C13.9331 12.5653 13.8785 12.8408 13.7284 13.066C13.4282 13.5164 12.9613 13.829 12.4306 13.9352C11.8998 14.0413 11.3486 13.9323 10.8983 13.6321C10.4479 13.3318 10.1353 12.865 10.0291 12.3342C9.92297 11.8035 10.032 11.2523 10.3323 10.8019Z" fill="#003478"/>
<defs>
<clipPath id="clip0_14099_123822">
<rect width="16" height="12" fill="white" transform="translate(4 6)"/>
</clipPath>
</defs>
</svg>
