<svg width="24" height="24" viewBox="0 0 24 24" fill="none" xmlns="http://www.w3.org/2000/svg">
<path d="M20 6H4V18H20V6Z" fill="#FFB700"/>
<path d="M5 12L7 7H10V17H7L5 12Z" fill="#FF5B00"/>
<path d="M7 7H5V17H7V7Z" fill="#005641"/>
<path d="M19.5 7H10V17H19.5V7Z" fill="#8D2029"/>
<path d="M20 15C20 15 20.1081 15.3555 20.2276 15.5003C20.4046 15.7149 20.7675 15.6994 20.9215 15.9497C21.106 16.245 20.9072 16.635 20.9088 16.6689L20.9189 16.8749C20.9189 16.8749 20.7945 16.8773 20.7421 16.8905C20.6633 16.9103 20.6326 17.0138 20.4859 16.9984C20.1171 16.9598 20.132 16.4232 20.1111 15.9647C20.0926 15.7901 20.0497 15.5625 20.0253 15.3879C20.0045 15.2383 20 15 20 15L20 15Z" fill="#FFB700" stroke="black" stroke-width="0.01"/>
<path d="M13.2235 15.5918L13.2889 15.5415L13.3169 15.5919C13.3542 15.6591 13.4573 15.6583 13.5257 15.5903L13.578 15.5384L13.6218 15.5903C13.6794 15.6587 13.787 15.6588 13.8557 15.5906C13.9038 15.5428 13.9105 15.5419 13.9423 15.5782C13.9613 15.5999 14.0169 15.6245 14.0658 15.633C14.1541 15.6483 14.1554 15.6474 14.2071 15.5442C14.2503 15.4577 14.2571 15.4227 14.2467 15.3388C14.2399 15.2832 14.2325 15.1937 14.2304 15.1399C14.2264 15.0425 14.2269 15.0419 14.3333 14.9925C14.392 14.9652 14.46 14.9286 14.4844 14.9112C14.5269 14.8808 14.644 14.6972 14.644 14.661C14.644 14.6514 14.5983 14.6367 14.5423 14.6284C14.3199 14.5951 14.2822 14.4358 14.4268 14.1399C14.6627 13.6574 14.805 13.1874 14.806 12.8881C14.8064 12.7542 14.8121 12.7093 14.825 12.7384C14.8777 12.8573 14.7833 13.356 14.6403 13.714L14.5827 13.8582L14.6376 13.8413C14.6679 13.8321 14.8456 13.7321 15.0325 13.6192C15.5442 13.3102 15.72 13.2496 16.0512 13.2682C16.3286 13.2838 16.4468 13.3561 16.6427 13.63C16.7465 13.7751 16.8464 13.879 17.0293 14.0316C17.4189 14.3568 17.4352 14.3849 17.4537 14.7674C17.4725 15.1548 17.4631 15.1758 17.2434 15.2406C17.0555 15.2959 16.9377 15.4127 16.9061 15.5749C16.8893 15.6616 16.9248 15.6641 17.0195 15.5829L17.0889 15.5234L17.1198 15.5829C17.1603 15.6611 17.2466 15.6614 17.3182 15.5836L17.3723 15.5248L17.4276 15.5836C17.5135 15.6749 17.6278 15.6528 17.6601 15.5386C17.6663 15.5166 17.6828 15.5237 17.7163 15.5625C17.7791 15.6352 17.94 15.6664 17.9574 15.6092C17.964 15.5874 17.9514 15.5335 17.9294 15.4895C17.8358 15.3023 17.8065 15.213 17.8053 15.1111C17.8036 14.9694 17.8353 14.901 17.9562 14.7857C18.103 14.6457 18.1484 14.4651 18.0367 14.4651C17.9678 14.4651 17.8983 14.3838 17.8539 14.2514C17.7638 13.9821 17.7815 13.6803 17.9167 13.1782C18.0541 12.6682 18.0694 12.5742 18.0699 12.2331C18.0703 11.9573 18.0651 11.9096 18.0181 11.7584C17.9893 11.666 17.9309 11.5283 17.8883 11.4525L17.8109 11.3147L17.9103 11.2049C18.2138 10.8697 18.1517 10.321 17.7864 10.1095C17.6746 10.0449 17.6467 10.0392 17.4508 10.0409C17.3333 10.042 17.1541 10.0626 17.0526 10.0867C16.9491 10.1114 16.774 10.1311 16.6538 10.1318C16.463 10.1328 16.4306 10.1265 16.357 10.0743C16.2803 10.0199 16.2671 9.99406 16.2521 9.86824C16.249 9.84237 16.2355 9.81657 16.222 9.8109C16.1959 9.79994 16.0754 9.93935 16.0576 10.0011C16.0488 10.0316 16.0417 10.0295 16.0159 9.98884C15.9988 9.96186 15.9749 9.89987 15.9628 9.85107C15.9324 9.72837 15.9698 9.63637 16.0779 9.56745L16.1619 9.51397L16.1124 9.47302C16.0102 9.38853 15.8366 9.44633 15.7738 9.58572C15.756 9.62515 15.7366 9.65749 15.7307 9.65757C15.7248 9.65763 15.691 9.62004 15.6557 9.57398C15.5238 9.4022 15.5692 9.14804 15.7456 9.07044C15.8396 9.02906 15.9228 9.06063 15.9401 9.14424C15.9666 9.27189 16.0487 9.1041 16.034 8.95256C16.0242 8.85181 16.0257 8.84832 16.078 8.84832C16.1507 8.84832 16.3054 8.97556 16.3533 9.0747C16.4089 9.18985 16.4049 9.37116 16.3437 9.5063L16.2956 9.61241L16.3585 9.59563C16.4506 9.57103 16.5402 9.49473 16.5854 9.40219C16.6333 9.30436 16.6385 9.11387 16.596 9.01109C16.5549 8.91147 16.5596 8.89566 16.6204 8.92932C16.7239 8.98658 16.7792 9.04972 16.8207 9.15794C16.858 9.2554 16.8601 9.27962 16.8399 9.38106C16.8274 9.44364 16.7996 9.52598 16.7782 9.56403C16.7448 9.62328 16.7436 9.63322 16.7702 9.63322C16.8198 9.63322 16.9233 9.57066 16.9601 9.51847C16.9787 9.49211 17.0058 9.42719 17.0203 9.37421L17.0467 9.27789L17.0771 9.35131C17.12 9.45514 17.2034 9.54857 17.3051 9.60671C17.4145 9.66924 17.4601 9.67277 17.4029 9.61427C17.3643 9.57483 17.2932 9.29671 17.3147 9.26951C17.3274 9.25351 17.4759 9.40589 17.6455 9.60887C17.806 9.80089 17.9068 9.86379 18.0541 9.86379C18.2423 9.8638 18.3519 9.64533 18.2673 9.43877C18.218 9.31834 18.1081 9.30161 18.0439 9.40475C18.0143 9.45218 18.0062 9.48991 18.0149 9.53965C18.0255 9.60059 18.0213 9.60871 17.9797 9.60871C17.925 9.60871 17.8171 9.51538 17.6256 9.30229C17.3335 8.97733 16.9787 8.70189 16.7224 8.60129C16.558 8.53672 16.2067 8.51153 16.0395 8.55231C15.8585 8.59645 15.6445 8.73451 15.528 8.88229C15.3214 9.14417 15.3181 9.49265 15.5192 9.80999L15.5769 9.90089L15.5379 9.98168C15.4811 10.0992 15.486 10.2574 15.5499 10.3739C15.5781 10.4252 15.6065 10.4672 15.613 10.4671C15.6196 10.4671 15.6268 10.4341 15.629 10.3938C15.6347 10.2919 15.6675 10.2236 15.7238 10.1966C15.7745 10.1722 15.8073 10.1837 16.0395 10.3073C16.2839 10.4373 16.6857 10.4463 17.113 10.3312C17.3224 10.2748 17.5694 10.2781 17.6781 10.3388C17.8773 10.45 17.9234 10.7395 17.777 10.9592C17.7136 11.0543 17.6525 11.0931 17.4473 11.1682C17.2911 11.2253 17.2541 11.2291 16.8991 11.2244C16.5958 11.2204 16.4869 11.2281 16.3631 11.2626C16.2287 11.3 16.146 11.3038 15.7512 11.2905L15.2947 11.2752L15.3454 11.3311C15.3732 11.3618 15.4125 11.3996 15.4328 11.4151C15.4672 11.4414 15.4661 11.445 15.4149 11.4703C15.3848 11.4851 15.3181 11.4973 15.2666 11.4973H15.1729L15.1603 11.6034C15.1534 11.6618 15.1539 11.7299 15.1615 11.7548C15.1726 11.7916 15.1685 11.7969 15.1394 11.7828C15.1197 11.7733 15.0649 11.7545 15.0175 11.7411C14.9702 11.7277 14.9064 11.7004 14.8759 11.6805C14.8245 11.6469 14.8188 11.6478 14.7999 11.6925C14.783 11.7323 14.6244 11.8897 14.6011 11.8897C14.5973 11.8897 14.5925 11.8594 14.5903 11.8223C14.5881 11.7852 14.5653 11.6886 14.5395 11.6077C14.5136 11.5267 14.4867 11.4384 14.4796 11.4115C14.4688 11.3708 14.464 11.3687 14.451 11.3992C14.4424 11.4194 14.4299 11.4746 14.4231 11.5218C14.4164 11.569 14.3925 11.6457 14.37 11.6923L14.3291 11.7769L14.3031 11.7045C14.2751 11.6269 14.2286 11.5464 14.2118 11.5464C14.2062 11.5464 14.1965 11.5712 14.1904 11.6015C14.1775 11.6649 14.0674 11.8407 14.0405 11.8407C14.0306 11.8407 14.0225 11.791 14.0225 11.7303C14.0225 11.6696 14.0137 11.6199 14.0031 11.6199C13.9924 11.6199 13.9836 11.6356 13.9836 11.6548C13.9836 11.7015 13.8896 11.8407 13.858 11.8407C13.8443 11.8407 13.8221 11.8572 13.8088 11.8775C13.7742 11.9302 13.7458 11.9228 13.7604 11.8648C13.7672 11.8376 13.7628 11.7742 13.7505 11.7238C13.7382 11.6734 13.7252 11.6198 13.7215 11.6046C13.7169 11.5856 13.6832 11.5906 13.6118 11.6211C13.4965 11.6704 13.4579 11.6617 13.5172 11.5998C13.5389 11.5771 13.5718 11.4987 13.5905 11.4256C13.6091 11.3524 13.6365 11.2874 13.6515 11.2813C13.6724 11.2726 13.6713 11.2833 13.6466 11.3278C13.629 11.3596 13.6145 11.4024 13.6145 11.423C13.6145 11.4437 13.6011 11.4925 13.585 11.5316C13.5688 11.5707 13.5587 11.6066 13.5624 11.6113C13.5662 11.616 13.61 11.5938 13.6599 11.5619L13.7506 11.504L13.7509 11.5558C13.7511 11.5843 13.7621 11.6596 13.7752 11.723L13.7991 11.8383L13.8608 11.8005C13.9239 11.7619 13.9836 11.6241 13.9836 11.5172C13.9836 11.4644 14.0063 11.4725 14.0156 11.5287C14.0183 11.5451 14.0326 11.607 14.0473 11.666L14.074 11.7735L14.1162 11.7056C14.1395 11.6683 14.1686 11.5952 14.181 11.543C14.2024 11.4525 14.2361 11.4136 14.2361 11.4793C14.2361 11.5267 14.3331 11.6966 14.3518 11.682C14.3608 11.6749 14.3788 11.6112 14.3918 11.5403C14.4187 11.3929 14.4622 11.2927 14.4898 11.3143C14.5002 11.3224 14.5043 11.3381 14.4988 11.3492C14.4934 11.3603 14.5157 11.4562 14.5484 11.5621C14.5812 11.6681 14.614 11.7748 14.6215 11.7993C14.6334 11.8385 14.6442 11.8328 14.7144 11.7502C14.7581 11.6988 14.7977 11.6412 14.8025 11.6223C14.8097 11.5937 14.8194 11.5947 14.8602 11.6285C14.9173 11.6758 15.1093 11.7519 15.1241 11.7332C15.1297 11.7261 15.1354 11.6589 15.1368 11.5838L15.1393 11.4471L15.1946 11.4624C15.2249 11.4708 15.2888 11.4703 15.3364 11.4612L15.4231 11.4448L15.3459 11.3742C15.3034 11.3353 15.2604 11.285 15.2504 11.2624C15.2397 11.2383 15.2019 11.2179 15.1591 11.213C15.0434 11.1999 14.8383 11.0466 14.8383 10.9731C14.8383 10.9593 14.8667 10.9828 14.9014 11.0252C14.9784 11.1193 15.0854 11.1784 15.1789 11.1784H15.2488L15.2056 11.1017C15.1807 11.0576 15.1584 10.974 15.1532 10.9053C15.1448 10.7957 15.1362 10.7782 15.0503 10.6987C14.9988 10.6509 14.9349 10.5792 14.9084 10.5395L14.8602 10.4672L14.8356 10.553C14.8221 10.6002 14.8056 10.6388 14.7989 10.6388C14.7922 10.6388 14.7662 10.6112 14.7412 10.5775C14.7161 10.5438 14.6905 10.5163 14.6844 10.5165C14.6782 10.5166 14.656 10.5621 14.635 10.6174L14.5968 10.7181L14.5672 10.6601C14.551 10.6282 14.5126 10.5717 14.482 10.5346C14.4513 10.4975 14.4352 10.4671 14.4462 10.4671C14.4571 10.4671 14.4949 10.5058 14.5302 10.553L14.5944 10.6389L14.6205 10.576C14.636 10.5386 14.6418 10.4813 14.6348 10.4349C14.6245 10.3673 14.626 10.3634 14.6454 10.4058C14.6578 10.4328 14.6953 10.4845 14.7288 10.5208L14.7897 10.5867L14.8318 10.484C14.8736 10.3818 14.8739 10.3816 14.8929 10.4426C14.9184 10.5242 15.1026 10.7256 15.2595 10.8433C15.2837 10.8614 15.2735 10.799 15.2288 10.6556C15.217 10.6177 15.2073 10.5492 15.2073 10.5035C15.2073 10.4357 15.1926 10.4055 15.1276 10.3395C15.0337 10.2443 15.0034 10.1765 14.9857 10.0228C14.9785 9.96058 14.9621 9.89134 14.9492 9.86897C14.93 9.83578 14.9268 9.85435 14.932 9.9699C14.9354 10.0478 14.9278 10.1446 14.9151 10.1851L14.8919 10.2587L14.874 10.1973C14.8642 10.1636 14.8206 10.105 14.7772 10.067C14.7338 10.0291 14.7033 9.99162 14.7095 9.98383C14.7157 9.97604 14.7603 10.0106 14.8087 10.0607C14.8824 10.137 14.8987 10.1452 14.9089 10.1116C14.9209 10.0722 14.9089 9.90041 14.8857 9.78039C14.8741 9.72045 14.8751 9.72077 14.9306 9.7947C14.9715 9.84922 14.9941 9.91425 15.0116 10.0277C15.0339 10.1718 15.0451 10.1958 15.1451 10.3129C15.2051 10.3831 15.2573 10.4367 15.2612 10.4319C15.265 10.427 15.2726 10.2452 15.278 10.0279C15.2884 9.61106 15.2766 9.51188 15.2013 9.3831L15.1627 9.31693L15.2235 9.22948C15.3028 9.11539 15.3392 9.02394 15.355 8.89918L15.3679 8.79768L15.2993 8.88434C15.2431 8.9553 15.2162 8.971 15.1511 8.971C15.0867 8.971 15.0615 8.9566 15.0181 8.89489C14.966 8.82086 14.8736 8.74962 14.7848 8.71495C14.752 8.70215 14.7411 8.70773 14.7411 8.73731C14.7411 8.75899 14.723 8.82158 14.7009 8.87639L14.6606 8.97604L14.5763 8.86487C14.5245 8.79668 14.4631 8.7436 14.4174 8.72758C14.3007 8.68666 14.2944 8.69072 14.2944 8.80666C14.2944 8.98253 14.2381 9.01528 14.1367 8.8984C14.0595 8.80929 13.9954 8.78992 13.8489 8.81139L13.7357 8.82797L13.7561 8.89608C13.7731 8.95297 13.7692 8.97693 13.7328 9.04154C13.6737 9.14634 13.5969 9.19174 13.4786 9.19174C13.4241 9.19174 13.3559 9.20677 13.3271 9.22514C13.2982 9.24351 13.2266 9.26468 13.1678 9.27217C13.109 9.27967 13.0464 9.29306 13.0286 9.30191C13.0008 9.31577 12.9978 9.30435 13.0067 9.21995C13.0204 9.09079 12.9528 8.99551 12.8473 8.99551C12.7105 8.99551 12.6474 9.1587 12.701 9.37395C12.7113 9.41538 12.7248 9.48072 12.7309 9.51914C12.7374 9.559 12.799 9.66479 12.8745 9.7655C12.9472 9.86257 13.016 9.96358 13.0273 9.98996C13.0386 10.0163 13.0759 10.0587 13.1102 10.084L13.1726 10.1302L13.1644 10.0411C13.1554 9.94326 13.1714 9.92791 13.2104 9.99696C13.2244 10.0216 13.2598 10.0615 13.2892 10.0856C13.3355 10.1236 13.3426 10.1243 13.3426 10.0914C13.3426 10.0705 13.3521 10.0223 13.3636 9.98434L13.3845 9.91529L13.4209 10.0092C13.4409 10.0609 13.506 10.1783 13.5655 10.2702C13.681 10.4484 13.7513 10.6476 13.715 10.6935C13.7003 10.7121 13.6605 10.7106 13.578 10.6885C13.514 10.6714 13.4349 10.6623 13.4021 10.6684C13.3353 10.6808 13.33 10.6692 13.3711 10.6006C13.4145 10.5281 13.4076 10.5162 13.3224 10.5162C13.2237 10.5162 12.9789 10.4532 12.8849 10.4036C12.7935 10.3553 12.7724 10.3673 12.7455 10.4829C12.7334 10.535 12.7112 10.6292 12.6962 10.6924L12.6689 10.8073L12.7678 10.7946C12.8222 10.7876 12.8922 10.7717 12.9233 10.7593C12.9544 10.7469 12.9827 10.7403 12.9861 10.7446C12.9896 10.749 12.9757 10.7939 12.9553 10.8444L12.9182 10.9363L12.9799 10.9195C13.0138 10.9103 13.0648 10.8877 13.0933 10.8694C13.1428 10.8374 13.1467 10.8398 13.1858 10.9233C13.2338 11.0261 13.2722 11.0219 13.2807 10.9129C13.2895 10.8002 13.3173 10.8169 13.3696 10.9662C13.4199 11.1097 13.4722 11.1604 13.4822 11.0753C13.4856 11.0471 13.5126 11.0011 13.5424 10.9731C13.6026 10.9166 13.648 10.9335 13.674 11.0223C13.7009 11.1142 13.6409 11.209 13.4662 11.3501C13.1163 11.6329 12.9129 12.0197 12.8548 12.5127C12.8025 12.9573 12.966 13.4168 13.2942 13.7468C13.4512 13.9048 13.7007 14.0715 13.6848 14.0079C13.6175 13.7378 13.6197 13.2224 13.6886 13.1354C13.6989 13.1224 13.6954 13.1762 13.6807 13.255C13.626 13.5484 13.6498 13.7822 13.7899 14.3302C13.9167 14.8259 13.8991 15.0377 13.7197 15.1777C13.6621 15.2227 13.625 15.2301 13.4701 15.2276C13.302 15.2248 13.2837 15.2294 13.2297 15.2867C13.1774 15.3423 13.1095 15.5248 13.1095 15.61C13.1095 15.6561 13.148 15.65 13.2235 15.5919L13.2235 15.5918Z" fill="#FFB700"/>
<path d="M15.9524 15.5838L16.0229 15.5234L16.0707 15.5838C16.1334 15.663 16.2069 15.6612 16.2671 15.5791C16.2935 15.5432 16.3171 15.5184 16.3196 15.5239C16.3222 15.5294 16.3339 15.5559 16.3457 15.5829C16.3606 15.6171 16.3912 15.6342 16.4465 15.6394C16.5132 15.6457 16.531 15.6371 16.5575 15.5861L16.5891 15.5253L16.6585 15.5848C16.8485 15.7476 16.9498 15.5768 16.8649 15.2365C16.8217 15.0635 16.8454 14.9663 16.9846 14.7461C17.0433 14.6533 17.0914 14.5542 17.0914 14.5259C17.0914 14.4808 17.0806 14.4748 17.0025 14.4768C16.9277 14.4788 16.9058 14.4681 16.8665 14.4104C16.8025 14.3164 16.8063 14.2089 16.8778 14.0895L16.935 13.9941L16.8336 13.9024C16.7778 13.8519 16.6773 13.7325 16.6101 13.6371C16.4593 13.4227 16.311 13.3211 16.1155 13.298L15.9844 13.2825L15.9846 13.4148C15.9848 13.5852 16.0448 13.749 16.2084 14.0266C16.3945 14.3422 16.4075 14.391 16.415 14.8035L16.4214 15.1524L16.3676 15.2205C16.3189 15.282 16.297 15.2899 16.14 15.302C15.9905 15.3134 15.9591 15.3237 15.9152 15.3755C15.857 15.4443 15.8396 15.4818 15.8216 15.5768C15.8111 15.6322 15.8153 15.6442 15.8453 15.6442C15.8654 15.6442 15.9136 15.6171 15.9523 15.5838L15.9524 15.5838Z" fill="#FFB700"/>
<path d="M11.9525 14.684C11.9692 14.654 11.9828 14.6056 11.9828 14.5764C11.9828 14.5323 11.9976 14.5206 12.0702 14.5068L12.1577 14.4902L12.0994 14.4283C12.0301 14.3546 12.0237 14.2971 12.0848 14.297C12.1456 14.297 12.2486 14.2127 12.2643 14.1504C12.2716 14.1214 12.267 14.0827 12.2539 14.0629C12.2198 14.011 12.1557 14.0188 12.1438 14.0763C12.131 14.1381 12.1096 14.1383 12.061 14.0769C11.9879 13.9846 11.9862 13.7935 12.0576 13.6823C12.0912 13.6298 12.0909 13.6264 12.048 13.5723C12.0019 13.514 11.969 13.3988 11.9906 13.3714C11.9975 13.3627 12.034 13.3696 12.0716 13.3868C12.1251 13.4113 12.1462 13.4116 12.1682 13.3885C12.235 13.3186 12.1627 13.2286 12.0556 13.2485C12.0126 13.2565 11.9948 13.2485 11.9886 13.2187C11.9839 13.1961 11.9462 13.1666 11.9038 13.1523C11.8279 13.1267 11.8274 13.127 11.8274 13.1967C11.8274 13.2731 11.7947 13.2875 11.7326 13.2385C11.6821 13.1987 11.6331 13.2296 11.6331 13.3012C11.6331 13.3681 11.6836 13.4011 11.774 13.3933C11.8433 13.3874 11.8459 13.4561 11.78 13.5549L11.7327 13.626L11.7702 13.6978C11.8257 13.8042 11.8211 13.981 11.7604 14.0688L11.7128 14.1376L11.6816 14.0824C11.6382 14.0057 11.5789 14.0108 11.5626 14.0927C11.5519 14.1463 11.5607 14.1708 11.6111 14.2276C11.6449 14.2658 11.6943 14.297 11.7209 14.297C11.7865 14.297 11.784 14.3659 11.7157 14.4354L11.6623 14.4899L11.7448 14.507C11.7902 14.5163 11.8274 14.534 11.8274 14.5462C11.8274 14.593 11.8846 14.7385 11.903 14.7385C11.9136 14.7385 11.9359 14.714 11.9525 14.684L11.9525 14.684Z" fill="#FFB700"/>
<path d="M13.0274 14.0635C13.1024 14.0241 13.2647 13.8408 13.2647 13.7956C13.2647 13.7813 13.2199 13.7156 13.1651 13.6496C13.0499 13.5105 12.9245 13.2764 12.8921 13.1395C12.8751 13.0682 12.7933 12.946 12.5628 12.6479L12.2561 12.2513L12.1677 12.2811C12.1191 12.2976 12.0597 12.3114 12.0359 12.3119C11.9947 12.3127 11.9954 12.3159 12.0502 12.3723L12.1079 12.4319L12.1888 12.372C12.2673 12.3139 12.2701 12.3136 12.2798 12.3603C12.2854 12.3877 12.2732 12.4351 12.2515 12.4699C12.2305 12.5036 12.2185 12.5419 12.2249 12.555C12.2313 12.568 12.2111 12.5953 12.18 12.6156C12.1224 12.6532 12.0824 12.777 12.1279 12.777C12.1688 12.777 12.2589 12.6287 12.2486 12.5785C12.2432 12.5528 12.2458 12.5264 12.2543 12.5198C12.2894 12.4924 12.2872 12.6088 12.2515 12.6661C12.2305 12.6999 12.2185 12.7382 12.2249 12.7512C12.2313 12.7642 12.2111 12.7915 12.18 12.8118C12.1228 12.8492 12.0824 12.9732 12.1275 12.9732C12.1716 12.9732 12.2603 12.8315 12.2493 12.7784C12.2436 12.7507 12.2458 12.7226 12.2543 12.716C12.2779 12.6975 12.2907 12.7895 12.2707 12.8345C12.26 12.8586 12.2601 12.8916 12.271 12.9177C12.2906 12.965 12.2707 13.0559 12.2345 13.0842C12.219 13.0963 12.2295 13.12 12.2671 13.1579C12.3216 13.2128 12.3226 13.2186 12.3226 13.4605C12.3226 13.6628 12.3288 13.715 12.3566 13.7502C12.3879 13.7897 12.3906 13.7898 12.3906 13.752C12.3906 13.7106 12.4451 13.66 12.4897 13.66C12.5028 13.66 12.5849 13.7528 12.6722 13.8662C12.7599 13.9803 12.8518 14.0775 12.8778 14.0836C12.9036 14.0898 12.9316 14.0963 12.94 14.0981C12.9483 14.1 12.9877 14.0844 13.0274 14.0635L13.0274 14.0635Z" fill="#FFB700"/>
<path d="M12.09 13.0837C12.09 13.0185 11.9892 12.9489 11.8685 12.9308C11.7711 12.9163 11.7695 12.9171 11.7695 12.982C11.7695 13.0357 11.7848 13.0568 11.8521 13.0958C11.9601 13.1585 12.09 13.1519 12.09 13.0837L12.09 13.0837Z" fill="#FFB700"/>
<path d="M12.2006 13.0795C12.2498 13.02 12.2731 12.9492 12.2435 12.9492C12.2095 12.9492 12.1191 13.0573 12.1191 13.0981C12.1191 13.1616 12.1359 13.1578 12.2006 13.0795V13.0795Z" fill="#FFB700"/>
<path d="M12.0952 12.8844C12.0993 12.8476 12.0823 12.8231 12.0311 12.7923C11.9208 12.7258 11.7889 12.6951 11.7571 12.7284C11.6986 12.7897 11.7376 12.872 11.8321 12.8868C11.8702 12.8928 11.9218 12.9083 11.9469 12.9212C12.0195 12.9589 12.0887 12.9417 12.0952 12.8844Z" fill="#FFB700"/>
<path d="M12.0953 12.6855C12.1012 12.633 12.076 12.6142 11.8706 12.5178C11.7172 12.4458 11.6493 12.4798 11.6983 12.6039C11.7154 12.6472 11.7441 12.6669 11.8083 12.6797C11.8561 12.6893 11.9215 12.708 11.9535 12.7212C12.0392 12.7567 12.0886 12.7442 12.0953 12.6855L12.0953 12.6855Z" fill="#FFB700"/>
<path d="M12.1984 12.5039C12.2294 12.462 12.2548 12.4125 12.2548 12.394C12.2548 12.3339 12.1324 12.4402 12.1168 12.5139C12.098 12.6023 12.1284 12.5985 12.1984 12.5039L12.1984 12.5039Z" fill="#FFB700"/>
<path d="M12.0956 12.4888C12.1024 12.429 12.0278 12.375 11.8812 12.3335C11.7737 12.3031 11.7262 12.3204 11.7343 12.387C11.7387 12.4234 11.7745 12.45 11.8761 12.4923C12.0388 12.5599 12.0877 12.5592 12.0956 12.4888L12.0956 12.4888Z" fill="#FFB700"/>
<path d="M12.2388 12.2118C12.4267 12.1003 12.4429 11.8191 12.2658 11.7453C12.1922 11.7147 12.1452 11.7312 12.1171 11.7976C12.0955 11.8485 12.1099 11.941 12.1394 11.941C12.1494 11.941 12.1575 11.9581 12.1575 11.979C12.1575 12.0766 11.8707 12.1209 11.7531 12.0414C11.7117 12.0135 11.6938 11.941 11.7281 11.941C11.7538 11.941 11.7716 11.8671 11.7585 11.8148C11.7406 11.7437 11.6868 11.719 11.6087 11.7462C11.4326 11.8076 11.4376 12.0835 11.6169 12.2006C11.7639 12.2966 12.0862 12.3024 12.2388 12.2118L12.2388 12.2118Z" fill="#FFB700"/>
<path d="M12.1221 11.9958C12.133 11.9821 12.1283 11.961 12.1101 11.9418C12.0701 11.9 12.0722 11.8377 12.1161 11.7665C12.149 11.7129 12.1531 11.6329 12.1644 10.825C12.1839 9.43276 12.2615 8.38558 12.3639 8.13438C12.4046 8.03436 12.3989 8.03397 12.2936 8.12948C12.158 8.25253 12.0547 8.41274 11.9632 8.6421C11.7905 9.07512 11.7305 9.6577 11.7305 10.9013C11.7305 11.6074 11.7341 11.6998 11.7642 11.7662C11.7929 11.8292 11.7944 11.8525 11.7743 11.9198C11.7612 11.9635 11.7553 12.0052 11.7611 12.0125C11.7997 12.0612 12.0807 12.0483 12.1221 11.9959V11.9958Z" fill="#FFB700"/>
<path d="M13.7008 10.6696C13.7067 10.6576 13.6937 10.5969 13.6719 10.5347C13.638 10.4378 13.6243 10.4216 13.5759 10.4216C13.4244 10.4216 13.1808 10.3314 12.9297 10.1821C12.7846 10.0959 12.7346 10.0761 12.7172 10.0981C12.6728 10.1541 12.7465 10.2871 12.8607 10.357C12.9621 10.419 13.2453 10.4952 13.3745 10.4952C13.4494 10.4952 13.4512 10.4997 13.4085 10.5819L13.3772 10.6424L13.4619 10.6453C13.5086 10.6469 13.573 10.6566 13.605 10.6669C13.6882 10.6937 13.689 10.6937 13.7008 10.6696L13.7008 10.6696Z" fill="#FFB700"/>
<path d="M14.5857 11.293C14.5857 11.257 14.5065 11.1595 14.4262 11.0967C14.3631 11.0473 14.3527 11.0458 14.3525 11.0861C14.3523 11.1472 14.3116 11.3007 14.2956 11.3007C14.2865 11.3007 14.2732 11.2707 14.2659 11.234C14.2586 11.1974 14.228 11.1251 14.198 11.0735L14.1433 10.9796L14.1007 11.0666C14.061 11.1477 13.9922 11.2271 13.9617 11.2271C13.9544 11.2271 13.953 11.1844 13.9585 11.1322C13.9645 11.0755 13.9599 11.0305 13.947 11.0204C13.9351 11.0111 13.9253 11.0143 13.9253 11.0276C13.9253 11.0581 13.8298 11.2026 13.8096 11.2026C13.8013 11.2026 13.7896 11.1612 13.7837 11.1106C13.7778 11.06 13.7677 10.98 13.7613 10.9328C13.755 10.8856 13.7686 10.9176 13.7916 11.0039L13.8334 11.1609L13.8793 11.0653C13.9045 11.0126 13.9252 10.9551 13.9252 10.9375C13.9252 10.9198 13.9338 10.912 13.9442 10.9201C13.9546 10.9282 13.969 10.9914 13.9763 11.0607L13.9895 11.1865L14.04 11.1127C14.0677 11.0721 14.1002 11.0178 14.1122 10.992C14.1336 10.9459 14.1349 10.946 14.1774 10.9941C14.2013 11.0211 14.238 11.0856 14.2589 11.1375C14.2799 11.1894 14.2999 11.228 14.3033 11.2234C14.3068 11.2187 14.3144 11.1652 14.3204 11.1045C14.3264 11.0438 14.3317 10.9919 14.3322 10.9891C14.3352 10.9741 14.4843 11.1033 14.5394 11.1687C14.5749 11.2107 14.6085 11.2392 14.6142 11.232C14.6199 11.2248 14.6246 11.1628 14.6246 11.0942C14.6246 10.9879 14.6161 10.9594 14.5674 10.9012C14.5113 10.8344 14.5097 10.834 14.489 10.8829C14.4621 10.9464 14.4303 10.9473 14.4303 10.8846C14.4303 10.8388 14.3244 10.663 14.2968 10.663C14.2896 10.663 14.2673 10.7016 14.2472 10.7488C14.227 10.7961 14.2054 10.8346 14.1991 10.8346C14.1719 10.8344 14.0224 10.6122 14.0225 10.5721C14.0225 10.5403 14.0326 10.5484 14.0588 10.6017C14.0787 10.6421 14.1185 10.7026 14.1471 10.7359C14.2052 10.8035 14.2264 10.7871 14.2488 10.6569C14.2552 10.6198 14.2663 10.5894 14.2734 10.5894C14.2983 10.5894 14.4284 10.7736 14.4467 10.8347L14.465 10.896L14.4789 10.8286C14.4959 10.7461 14.5147 10.743 14.5419 10.8183C14.5532 10.8497 14.6092 10.9151 14.6664 10.9635L14.7703 11.0516L14.7911 10.963C14.8026 10.9143 14.8178 10.8863 14.8249 10.9008C14.8355 10.9224 14.8085 11.0692 14.7881 11.1008C14.785 11.1056 14.7514 11.0794 14.7133 11.0427L14.644 10.976L14.6437 11.0954C14.6436 11.1611 14.6382 11.2397 14.6318 11.27C14.6192 11.3294 14.5857 11.3461 14.5857 11.293L14.5857 11.293Z" fill="black"/>
<path d="M14.0675 10.3426C13.944 10.2051 13.9252 10.1737 13.928 10.1085L13.9309 10.0392L13.9389 10.1062C13.9436 10.1453 13.9765 10.2039 14.018 10.247L14.0889 10.3209L14.1326 10.2536C14.1566 10.2166 14.1765 10.1725 14.1769 10.1557C14.1779 10.1117 14.1838 10.1154 14.2674 10.2121C14.3417 10.298 14.3428 10.2985 14.3539 10.2428C14.36 10.2117 14.3578 10.1533 14.349 10.1129C14.3248 10.0019 14.3295 9.98518 14.3663 10.0521C14.3846 10.0855 14.4141 10.1326 14.4317 10.1569C14.4625 10.1992 14.4644 10.1986 14.4759 10.1446C14.4824 10.1136 14.4879 10.0568 14.4881 10.0185L14.4884 9.9487L14.5553 10.0499C14.6179 10.1445 14.6236 10.1479 14.6427 10.1029C14.654 10.0764 14.6633 10.0126 14.6635 9.96108C14.6637 9.89459 14.6689 9.87781 14.6816 9.90313C14.7028 9.94541 14.6881 10.0605 14.649 10.1586L14.6209 10.229L14.5841 10.1525C14.5369 10.0546 14.5213 10.0562 14.491 10.1618C14.4624 10.2616 14.4439 10.2692 14.416 10.1925C14.398 10.1428 14.3946 10.1489 14.3818 10.2532L14.3675 10.3692L14.2824 10.281L14.1972 10.1929L14.1589 10.2509C14.1378 10.2829 14.1203 10.3228 14.12 10.3396C14.1192 10.3762 14.0987 10.3773 14.0675 10.3426L14.0675 10.3426Z" fill="black"/>
<path d="M15.1655 9.83295C15.1206 9.77896 15.0896 9.72745 15.0967 9.71849C15.1038 9.70952 15.1118 9.70695 15.1145 9.71278C15.1172 9.71861 15.1539 9.77011 15.1961 9.82724C15.2934 9.95877 15.2734 9.9625 15.1655 9.83295V9.83295Z" fill="black"/>
<path d="M13.7032 9.62808C13.6623 9.55438 13.6651 9.50555 13.7149 9.42566C13.7508 9.36793 13.7673 9.3601 13.8301 9.37074C13.8703 9.37756 13.957 9.42501 14.0227 9.47619C14.0985 9.53529 14.1769 9.57488 14.2377 9.58473C14.2903 9.59325 14.3333 9.59646 14.3333 9.59187C14.3333 9.58727 14.3115 9.5398 14.2848 9.48638C14.2214 9.35951 14.2235 9.3459 14.2951 9.4219C14.3685 9.49993 14.4563 9.52275 14.6526 9.51479L14.7485 9.51091L14.6929 9.43758C14.6151 9.33503 14.639 9.32584 14.7249 9.42527C14.8055 9.51852 14.8005 9.52509 14.6309 9.54766C14.5588 9.55725 14.4813 9.55029 14.4168 9.52845C14.3205 9.49577 14.3167 9.49627 14.335 9.53935C14.3455 9.56417 14.3625 9.58449 14.3729 9.58449C14.3832 9.58449 14.3916 9.59707 14.3916 9.61245C14.3916 9.65973 14.1834 9.61815 14.0839 9.55099C13.8567 9.39757 13.8281 9.38428 13.774 9.40701C13.7439 9.41966 13.7137 9.45668 13.7034 9.49377C13.6687 9.61752 13.8003 9.71371 13.8546 9.60432C13.8704 9.57261 13.8667 9.55093 13.839 9.51234C13.8012 9.4595 13.8047 9.45197 13.8558 9.47674C13.8921 9.49433 13.897 9.61052 13.8633 9.65316C13.8246 9.70195 13.7365 9.68814 13.7031 9.62808L13.7032 9.62808Z" fill="black"/>
<path d="M14.5979 9.32682C14.5695 9.29093 14.5917 9.28214 14.7191 9.27898C14.8768 9.27506 14.9725 9.24004 15.0854 9.14496C15.1759 9.06879 15.2005 9.08378 15.1146 9.16276C15.0362 9.23482 14.914 9.29021 14.796 9.30714C14.7389 9.31535 14.6737 9.32671 14.6513 9.33239C14.6288 9.33807 14.6048 9.33557 14.5979 9.32682L14.5979 9.32682Z" fill="black"/>
<path d="M20 6L20 18L4 18L4 6L20 6ZM20 5L4 5C3.4 5 3 5.4 3 6L3 18C3 18.6 3.4 19 4 19L20 19C20.6 19 21 18.6 21 18L21 6C21 5.4 20.6 5 20 5Z" fill="none"/>
<path d="M20 6H4V17H20V6Z" fill="#FFB700"/>
<path d="M5 12L7 7H9V17H7L5 12Z" fill="#FF5B00"/>
<path d="M7 7H5V17H7V7Z" fill="#005641"/>
<path d="M19 7H10V17H19V7Z" fill="#8D2029"/>
<path d="M18 15.8008C18 15.8008 18.0906 15.9853 18.1908 16.0605C18.3392 16.1719 18.6434 16.1639 18.7725 16.2938C18.9272 16.4471 18.7605 16.6496 18.7619 16.6672L18.7704 16.7741C18.7704 16.7741 18.6661 16.7754 18.6221 16.7822C18.5561 16.7925 18.5303 16.8463 18.4073 16.8383C18.0982 16.8182 18.1106 16.5397 18.0931 16.3016C18.0776 16.211 18.0417 16.0928 18.0212 16.0022C18.0037 15.9245 18 15.8008 18 15.8008L18 15.8008Z" fill="#FFB700" stroke="black" stroke-width="0.01"/>
<path d="M11 15.8008C11 15.8008 10.9094 15.9853 10.8092 16.0605C10.6608 16.1719 10.3566 16.1639 10.2275 16.2938C10.0728 16.4471 10.2395 16.6496 10.2381 16.6672L10.2296 16.7741C10.2296 16.7741 10.3339 16.7754 10.3779 16.7822C10.4439 16.7925 10.4697 16.8463 10.5927 16.8383C10.9018 16.8182 10.8894 16.5397 10.9069 16.3016C10.9224 16.211 10.9583 16.0928 10.9788 16.0022C10.9963 15.9245 11 15.8008 11 15.8008L11 15.8008Z" fill="#FFB700" stroke="black" stroke-width="0.01"/>
<path d="M18 8.24023C18 8.24023 18.0906 8.05569 18.1908 7.9805C18.3392 7.86909 18.6434 7.87714 18.7725 7.74717C18.9272 7.5939 18.7605 7.39141 18.7619 7.37383L18.7704 7.26689C18.7704 7.26689 18.6661 7.26564 18.6221 7.25879C18.5561 7.24849 18.5303 7.19474 18.4073 7.20273C18.0982 7.2228 18.1106 7.50135 18.0931 7.73939C18.0776 7.83004 18.0417 7.94822 18.0212 8.03883C18.0037 8.11654 18 8.24023 18 8.24023L18 8.24023Z" fill="#FFB700" stroke="black" stroke-width="0.01"/>
<path d="M11 8.23999C11 8.23999 10.9094 8.05544 10.8092 7.98026C10.6608 7.86885 10.3566 7.8769 10.2275 7.74692C10.0728 7.59366 10.2395 7.39116 10.2381 7.37359L10.2296 7.26665C10.2296 7.26665 10.3339 7.26539 10.3779 7.25854C10.4439 7.24824 10.4697 7.1945 10.5927 7.20248C10.9018 7.22255 10.8894 7.50111 10.9069 7.73915C10.9224 7.82979 10.9583 7.94798 10.9788 8.03859C10.9963 8.11629 11 8.23999 11 8.23999L11 8.23999Z" fill="#FFB700" stroke="black" stroke-width="0.01"/>
<mask id="path-33-inside-1_14099_124451" fill="white">
<path d="M13.0877 14.3948L13.1458 14.3613L13.1707 14.3949C13.2038 14.4397 13.2955 14.4392 13.3563 14.3939L13.4028 14.3592L13.4417 14.3939C13.4929 14.4394 13.5886 14.4395 13.6496 14.394C13.6924 14.3622 13.6983 14.3615 13.7266 14.3858C13.7434 14.4002 13.7929 14.4167 13.8364 14.4223C13.9149 14.4325 13.916 14.4319 13.9619 14.3631C14.0004 14.3054 14.0064 14.2821 13.9972 14.2262C13.9911 14.1891 13.9846 14.1294 13.9827 14.0936C13.9792 14.0286 13.9795 14.0282 14.0741 13.9953C14.1263 13.9771 14.1868 13.9527 14.2085 13.9411C14.2462 13.9208 14.3504 13.7984 14.3504 13.7743C14.3504 13.7679 14.3097 13.7581 14.26 13.7526C14.0622 13.7304 14.0287 13.6242 14.1573 13.4269C14.3669 13.1052 14.4935 12.7919 14.4943 12.5923C14.4947 12.5031 14.4998 12.4732 14.5112 12.4926C14.5581 12.5719 14.4742 12.9043 14.347 13.143L14.2958 13.2391L14.3447 13.2279C14.3715 13.2217 14.5295 13.155 14.6957 13.0798C15.1506 12.8738 15.3068 12.8334 15.6012 12.8458C15.8478 12.8562 15.9528 12.9043 16.1269 13.087C16.2192 13.1837 16.3081 13.253 16.4706 13.3547C16.8169 13.5715 16.8314 13.5903 16.8479 13.8452C16.8645 14.1035 16.8562 14.1175 16.6609 14.1607C16.4939 14.1976 16.3892 14.2754 16.3611 14.3836C16.3461 14.4413 16.3777 14.443 16.4619 14.3889L16.5236 14.3492L16.551 14.3889C16.5871 14.441 16.6637 14.4412 16.7274 14.3894L16.7755 14.3502L16.8247 14.3894C16.901 14.4502 17.0026 14.4355 17.0313 14.3594C17.0368 14.3447 17.0515 14.3494 17.0813 14.3753C17.1371 14.4238 17.2801 14.4446 17.2956 14.4065C17.3015 14.3919 17.2903 14.356 17.2707 14.3266C17.1875 14.2018 17.1614 14.1423 17.1603 14.0744C17.1588 13.9799 17.187 13.9343 17.2945 13.8575C17.425 13.7641 17.4654 13.6437 17.3661 13.6437C17.3048 13.6437 17.243 13.5895 17.2036 13.5012C17.1235 13.3217 17.1392 13.1205 17.2594 12.7858C17.3815 12.4458 17.3951 12.3831 17.3956 12.1557C17.396 11.9718 17.3913 11.94 17.3495 11.8392C17.3239 11.7776 17.272 11.6858 17.2342 11.6353L17.1654 11.5435L17.2537 11.4703C17.5235 11.2468 17.4683 10.881 17.1436 10.74C17.0442 10.6969 17.0194 10.6931 16.8453 10.6942C16.7408 10.695 16.5815 10.7087 16.4913 10.7248C16.3993 10.7412 16.2436 10.7544 16.1368 10.7548C15.9672 10.7555 15.9384 10.7513 15.873 10.7165C15.8048 10.6802 15.7931 10.663 15.7798 10.5791C15.777 10.5619 15.765 10.5447 15.753 10.5409C15.7298 10.5336 15.6227 10.6265 15.6069 10.6677C15.5991 10.688 15.5927 10.6866 15.5698 10.6595C15.5546 10.6415 15.5334 10.6002 15.5226 10.5677C15.4956 10.4859 15.5288 10.4246 15.6249 10.3786L15.6995 10.343L15.6555 10.3157C15.5648 10.2593 15.4104 10.2979 15.3546 10.3908C15.3388 10.4171 15.3216 10.4386 15.3163 10.4387C15.3111 10.4387 15.281 10.4137 15.2496 10.383C15.1324 10.2684 15.1727 10.099 15.3295 10.0473C15.4131 10.0197 15.4871 10.0407 15.5025 10.0965C15.5259 10.1816 15.599 10.0697 15.5859 9.96868C15.5772 9.90151 15.5785 9.89919 15.625 9.89919C15.6896 9.89919 15.8272 9.98401 15.8697 10.0501C15.9191 10.1269 15.9155 10.2477 15.8612 10.3378L15.8185 10.4086L15.8743 10.3974C15.9562 10.381 16.0358 10.3301 16.0761 10.2684C16.1186 10.2032 16.1232 10.0762 16.0855 10.0077C16.0489 9.94129 16.0531 9.93074 16.1071 9.95319C16.1991 9.99136 16.2483 10.0335 16.2851 10.1056C16.3184 10.1706 16.3202 10.1867 16.3022 10.2543C16.2911 10.2961 16.2665 10.351 16.2474 10.3763C16.2177 10.4158 16.2167 10.4225 16.2403 10.4225C16.2844 10.4225 16.3764 10.3807 16.4091 10.346C16.4256 10.3284 16.4497 10.2851 16.4626 10.2498L16.4861 10.1856L16.513 10.2345C16.5512 10.3037 16.6253 10.366 16.7158 10.4048C16.813 10.4465 16.8535 10.4488 16.8027 10.4098C16.7684 10.3835 16.7052 10.1981 16.7243 10.18C16.7356 10.1693 16.8676 10.2709 17.0184 10.4062C17.161 10.5342 17.2506 10.5762 17.3815 10.5762C17.5488 10.5762 17.6463 10.4305 17.5711 10.2928C17.5272 10.2125 17.4295 10.2014 17.3724 10.2701C17.3462 10.3018 17.339 10.3269 17.3467 10.3601C17.3561 10.4007 17.3524 10.4061 17.3154 10.4061C17.2668 10.4061 17.1709 10.3439 17.0006 10.2018C16.741 9.98519 16.4256 9.80157 16.1978 9.7345C16.0516 9.69145 15.7394 9.67466 15.5908 9.70184C15.4299 9.73127 15.2397 9.82331 15.1361 9.92183C14.9524 10.0964 14.9495 10.3287 15.1283 10.5403L15.1795 10.6009L15.1449 10.6548C15.0944 10.7331 15.0987 10.8386 15.1556 10.9162C15.1806 10.9504 15.2059 10.9784 15.2117 10.9784C15.2175 10.9784 15.2239 10.9564 15.2259 10.9295C15.2309 10.8616 15.2601 10.816 15.3101 10.798C15.3552 10.7818 15.3844 10.7894 15.5908 10.8718C15.808 10.9585 16.1652 10.9645 16.545 10.8878C16.7312 10.8501 16.9507 10.8524 17.0473 10.8928C17.2243 10.967 17.2654 11.16 17.1352 11.3064C17.0789 11.3699 17.0245 11.3957 16.8421 11.4458C16.7033 11.4839 16.6704 11.4864 16.3549 11.4832C16.0853 11.4805 15.9884 11.4857 15.8784 11.5087C15.7589 11.5336 15.6854 11.5362 15.3345 11.5273L14.9288 11.5171L14.9738 11.5543C14.9985 11.5748 15.0335 11.6 15.0515 11.6104C15.0821 11.6279 15.081 11.6303 15.0356 11.6472C15.0088 11.6571 14.9495 11.6652 14.9037 11.6652H14.8205L14.8093 11.7359C14.8031 11.7748 14.8036 11.8203 14.8103 11.8369C14.8202 11.8614 14.8165 11.8649 14.7907 11.8555C14.7732 11.8491 14.7244 11.8366 14.6824 11.8277C14.6403 11.8188 14.5836 11.8006 14.5565 11.7873C14.5108 11.7649 14.5057 11.7655 14.4889 11.7953C14.4739 11.8219 14.3329 11.9268 14.3122 11.9268C14.3088 11.9268 14.3045 11.9066 14.3026 11.8818C14.3007 11.8571 14.2803 11.7927 14.2574 11.7388C14.2345 11.6848 14.2105 11.6259 14.2042 11.6079C14.1946 11.5808 14.1903 11.5794 14.1788 11.5998C14.1711 11.6133 14.16 11.6501 14.154 11.6815C14.148 11.713 14.1267 11.7641 14.1068 11.7952L14.0704 11.8516L14.0473 11.8033C14.0224 11.7516 13.9811 11.6979 13.9662 11.6979C13.9611 11.6979 13.9525 11.7144 13.9471 11.7347C13.9357 11.7769 13.8378 11.8941 13.8139 11.8941C13.8051 11.8941 13.7979 11.861 13.7979 11.8205C13.7979 11.78 13.7901 11.7469 13.7806 11.7469C13.7711 11.7469 13.7633 11.7574 13.7633 11.7702C13.7633 11.8013 13.6797 11.8941 13.6517 11.8941C13.6395 11.8941 13.6198 11.9051 13.608 11.9186C13.5771 11.9538 13.5519 11.9489 13.5649 11.9102C13.571 11.8921 13.567 11.8498 13.5561 11.8162C13.5452 11.7826 13.5336 11.7468 13.5303 11.7367C13.5262 11.724 13.4963 11.7274 13.4328 11.7477C13.3304 11.7806 13.296 11.7748 13.3487 11.7335C13.368 11.7184 13.3973 11.6661 13.4138 11.6173C13.4304 11.5686 13.4548 11.5253 13.4681 11.5211C13.4867 11.5154 13.4857 11.5225 13.4638 11.5522C13.4481 11.5734 13.4353 11.6019 13.4352 11.6157C13.4352 11.6294 13.4233 11.662 13.409 11.688C13.3946 11.7141 13.3856 11.738 13.3889 11.7412C13.3923 11.7443 13.4312 11.7295 13.4756 11.7083L13.5562 11.6696L13.5565 11.7042C13.5567 11.7232 13.5664 11.7734 13.5781 11.8156L13.5993 11.8925L13.6542 11.8673C13.7102 11.8415 13.7633 11.7497 13.7633 11.6785C13.7633 11.6433 13.7835 11.6487 13.7918 11.6861C13.7942 11.6971 13.8068 11.7383 13.8199 11.7777L13.8436 11.8493L13.8812 11.8041C13.9018 11.7792 13.9277 11.7304 13.9387 11.6957C13.9578 11.6353 13.9878 11.6094 13.9878 11.6532C13.9878 11.6848 14.074 11.798 14.0906 11.7883C14.0986 11.7836 14.1146 11.7411 14.1261 11.6938C14.1501 11.5956 14.1887 11.5288 14.2133 11.5431C14.2225 11.5485 14.2261 11.559 14.2213 11.5665C14.2164 11.5739 14.2363 11.6377 14.2654 11.7084C14.2945 11.7791 14.3237 11.8502 14.3303 11.8665C14.3409 11.8927 14.3505 11.8889 14.4129 11.8338C14.4517 11.7995 14.4869 11.7611 14.4912 11.7485C14.4976 11.7294 14.5063 11.7301 14.5425 11.7526C14.5933 11.7841 14.7639 11.8349 14.7771 11.8224C14.7821 11.8177 14.7871 11.7729 14.7884 11.7228L14.7906 11.6317L14.8397 11.6419C14.8667 11.6475 14.9234 11.6472 14.9658 11.6411L15.0429 11.6302L14.9742 11.5831C14.9364 11.5572 14.8983 11.5237 14.8894 11.5086C14.8799 11.4925 14.8463 11.4789 14.8082 11.4757C14.7053 11.4669 14.523 11.3647 14.523 11.3157C14.523 11.3065 14.5483 11.3222 14.5791 11.3504C14.6476 11.4132 14.7427 11.4526 14.8258 11.4526H14.8879L14.8495 11.4014C14.8274 11.3721 14.8076 11.3163 14.8029 11.2705C14.7955 11.1974 14.7878 11.1858 14.7115 11.1327C14.6657 11.1009 14.6089 11.0531 14.5853 11.0266L14.5425 10.9784L14.5207 11.0356C14.5086 11.0671 14.494 11.0929 14.488 11.0929C14.4821 11.0929 14.459 11.0745 14.4367 11.052C14.4144 11.0295 14.3917 11.0112 14.3862 11.0113C14.3807 11.0114 14.361 11.0417 14.3423 11.0786L14.3083 11.1457L14.2821 11.107C14.2676 11.0857 14.2336 11.0481 14.2063 11.0234C14.1791 10.9986 14.1647 10.9784 14.1745 10.9784C14.1842 10.9784 14.2178 11.0042 14.2492 11.0357L14.3062 11.0929L14.3294 11.051C14.3432 11.0261 14.3483 10.9878 14.3421 10.9569C14.333 10.9119 14.3343 10.9092 14.3516 10.9375C14.3626 10.9555 14.3959 10.99 14.4257 11.0142L14.4799 11.0581L14.5172 10.9896C14.5544 10.9215 14.5547 10.9214 14.5716 10.9621C14.5942 11.0165 14.758 11.1507 14.8974 11.2291C14.9189 11.2412 14.9099 11.1997 14.8702 11.1041C14.8597 11.0787 14.8511 11.0331 14.8511 11.0026C14.8511 10.9574 14.838 10.9373 14.7802 10.8933C14.6968 10.8298 14.6698 10.7847 14.654 10.6822C14.6477 10.6407 14.6331 10.5945 14.6216 10.5796C14.6045 10.5575 14.6017 10.5699 14.6063 10.6469C14.6094 10.6988 14.6026 10.7634 14.5913 10.7904L14.5707 10.8394L14.5548 10.7985C14.546 10.7761 14.5073 10.737 14.4687 10.7116C14.4302 10.6863 14.4031 10.6614 14.4086 10.6562C14.4141 10.651 14.4537 10.6741 14.4967 10.7074C14.5623 10.7583 14.5767 10.7638 14.5858 10.7414C14.5965 10.7151 14.5858 10.6006 14.5652 10.5206C14.5549 10.4806 14.5558 10.4808 14.6051 10.5301C14.6414 10.5665 14.6615 10.6098 14.6771 10.6854C14.6969 10.7815 14.7069 10.7975 14.7957 10.8755C14.8491 10.9224 14.8955 10.9581 14.8989 10.9549C14.9023 10.9517 14.909 10.8305 14.9139 10.6856C14.9232 10.4077 14.9127 10.3416 14.8458 10.2557L14.8114 10.2116L14.8654 10.1533C14.9359 10.0772 14.9683 10.0163 14.9824 9.93309L14.9938 9.86542L14.9328 9.9232C14.8828 9.9705 14.859 9.98097 14.8011 9.98097C14.7438 9.98097 14.7215 9.97137 14.6829 9.93023C14.6365 9.88088 14.5545 9.83339 14.4755 9.81027C14.4464 9.80174 14.4367 9.80546 14.4367 9.82518C14.4367 9.83963 14.4206 9.88136 14.4009 9.9179L14.3651 9.98433L14.2901 9.91022C14.2441 9.86476 14.1895 9.82937 14.1489 9.81869C14.0452 9.79141 14.0396 9.79412 14.0396 9.87141C14.0396 9.98866 13.9895 10.0105 13.8994 9.93257C13.8307 9.87317 13.7738 9.86025 13.6435 9.87456L13.543 9.88562L13.5611 9.93102C13.5762 9.96895 13.5728 9.98492 13.5404 10.028C13.4879 10.0979 13.4196 10.1281 13.3144 10.1281C13.266 10.1281 13.2054 10.1382 13.1797 10.1504C13.1541 10.1626 13.0904 10.1768 13.0382 10.1818C12.9859 10.1868 12.9303 10.1957 12.9145 10.2016C12.8897 10.2108 12.887 10.2032 12.895 10.1469C12.9072 10.0608 12.847 9.99731 12.7533 9.99731C12.6317 9.99731 12.5756 10.1061 12.6232 10.2496C12.6324 10.2772 12.6443 10.3208 12.6498 10.3464C12.6555 10.373 12.7103 10.4435 12.7774 10.5106C12.8421 10.5754 12.9032 10.6427 12.9133 10.6603C12.9233 10.6779 12.9565 10.7061 12.987 10.723L13.0425 10.7537L13.0351 10.6944C13.0271 10.6291 13.0413 10.6189 13.076 10.6649C13.0884 10.6814 13.12 10.708 13.1461 10.7241C13.1872 10.7493 13.1935 10.7499 13.1935 10.7279C13.1935 10.714 13.2019 10.6818 13.2122 10.6565L13.2308 10.6105L13.2632 10.6731C13.2809 10.7076 13.3388 10.7859 13.3917 10.8471C13.4943 10.9659 13.5569 11.0987 13.5246 11.1293C13.5115 11.1417 13.4761 11.1407 13.4027 11.126C13.3459 11.1145 13.2756 11.1085 13.2465 11.1125C13.187 11.1208 13.1823 11.1131 13.2189 11.0674C13.2575 11.0191 13.2513 11.0111 13.1756 11.0111C13.0879 11.0111 12.8702 10.9691 12.7866 10.936C12.7054 10.9039 12.6867 10.9119 12.6627 10.9889C12.652 11.0236 12.6323 11.0864 12.6189 11.1286L12.5947 11.2052L12.6826 11.1967C12.731 11.1921 12.7932 11.1815 12.8208 11.1732C12.8485 11.1649 12.8736 11.1605 12.8767 11.1634C12.8797 11.1663 12.8674 11.1962 12.8493 11.2299L12.8163 11.2911L12.8711 11.28C12.9013 11.2738 12.9466 11.2588 12.9719 11.2466C13.0159 11.2253 13.0194 11.2268 13.0541 11.2825C13.0968 11.351 13.1309 11.3482 13.1385 11.2756C13.1464 11.2005 13.1711 11.2116 13.2175 11.3111C13.2622 11.4068 13.3087 11.4406 13.3176 11.3838C13.3206 11.365 13.3447 11.3343 13.3711 11.3157C13.4247 11.278 13.465 11.2893 13.4881 11.3485C13.512 11.4098 13.4587 11.4729 13.3034 11.5671C12.9924 11.7556 12.8116 12.0134 12.76 12.3421C12.7134 12.6385 12.8588 12.9449 13.1505 13.1649C13.2901 13.2702 13.5118 13.3813 13.4977 13.3389C13.4379 13.1588 13.4399 12.8152 13.5011 12.7573C13.5103 12.7486 13.5071 12.7844 13.4941 12.8369C13.4455 13.0326 13.4666 13.1884 13.5911 13.5538C13.7038 13.8842 13.6882 14.0254 13.5288 14.1188C13.4775 14.1487 13.4446 14.1537 13.3068 14.152C13.1574 14.1502 13.1411 14.1532 13.0932 14.1914C13.0467 14.2285 12.9864 14.3502 12.9864 14.407C12.9864 14.4377 13.0206 14.4336 13.0877 14.3948Z"/>
</mask>
<path d="M13.0877 14.3948L13.1458 14.3613L13.1707 14.3949C13.2038 14.4397 13.2955 14.4392 13.3563 14.3939L13.4028 14.3592L13.4417 14.3939C13.4929 14.4394 13.5886 14.4395 13.6496 14.394C13.6924 14.3622 13.6983 14.3615 13.7266 14.3858C13.7434 14.4002 13.7929 14.4167 13.8364 14.4223C13.9149 14.4325 13.916 14.4319 13.9619 14.3631C14.0004 14.3054 14.0064 14.2821 13.9972 14.2262C13.9911 14.1891 13.9846 14.1294 13.9827 14.0936C13.9792 14.0286 13.9795 14.0282 14.0741 13.9953C14.1263 13.9771 14.1868 13.9527 14.2085 13.9411C14.2462 13.9208 14.3504 13.7984 14.3504 13.7743C14.3504 13.7679 14.3097 13.7581 14.26 13.7526C14.0622 13.7304 14.0287 13.6242 14.1573 13.4269C14.3669 13.1052 14.4935 12.7919 14.4943 12.5923C14.4947 12.5031 14.4998 12.4732 14.5112 12.4926C14.5581 12.5719 14.4742 12.9043 14.347 13.143L14.2958 13.2391L14.3447 13.2279C14.3715 13.2217 14.5295 13.155 14.6957 13.0798C15.1506 12.8738 15.3068 12.8334 15.6012 12.8458C15.8478 12.8562 15.9528 12.9043 16.1269 13.087C16.2192 13.1837 16.3081 13.253 16.4706 13.3547C16.8169 13.5715 16.8314 13.5903 16.8479 13.8452C16.8645 14.1035 16.8562 14.1175 16.6609 14.1607C16.4939 14.1976 16.3892 14.2754 16.3611 14.3836C16.3461 14.4413 16.3777 14.443 16.4619 14.3889L16.5236 14.3492L16.551 14.3889C16.5871 14.441 16.6637 14.4412 16.7274 14.3894L16.7755 14.3502L16.8247 14.3894C16.901 14.4502 17.0026 14.4355 17.0313 14.3594C17.0368 14.3447 17.0515 14.3494 17.0813 14.3753C17.1371 14.4238 17.2801 14.4446 17.2956 14.4065C17.3015 14.3919 17.2903 14.356 17.2707 14.3266C17.1875 14.2018 17.1614 14.1423 17.1603 14.0744C17.1588 13.9799 17.187 13.9343 17.2945 13.8575C17.425 13.7641 17.4654 13.6437 17.3661 13.6437C17.3048 13.6437 17.243 13.5895 17.2036 13.5012C17.1235 13.3217 17.1392 13.1205 17.2594 12.7858C17.3815 12.4458 17.3951 12.3831 17.3956 12.1557C17.396 11.9718 17.3913 11.94 17.3495 11.8392C17.3239 11.7776 17.272 11.6858 17.2342 11.6353L17.1654 11.5435L17.2537 11.4703C17.5235 11.2468 17.4683 10.881 17.1436 10.74C17.0442 10.6969 17.0194 10.6931 16.8453 10.6942C16.7408 10.695 16.5815 10.7087 16.4913 10.7248C16.3993 10.7412 16.2436 10.7544 16.1368 10.7548C15.9672 10.7555 15.9384 10.7513 15.873 10.7165C15.8048 10.6802 15.7931 10.663 15.7798 10.5791C15.777 10.5619 15.765 10.5447 15.753 10.5409C15.7298 10.5336 15.6227 10.6265 15.6069 10.6677C15.5991 10.688 15.5927 10.6866 15.5698 10.6595C15.5546 10.6415 15.5334 10.6002 15.5226 10.5677C15.4956 10.4859 15.5288 10.4246 15.6249 10.3786L15.6995 10.343L15.6555 10.3157C15.5648 10.2593 15.4104 10.2979 15.3546 10.3908C15.3388 10.4171 15.3216 10.4386 15.3163 10.4387C15.3111 10.4387 15.281 10.4137 15.2496 10.383C15.1324 10.2684 15.1727 10.099 15.3295 10.0473C15.4131 10.0197 15.4871 10.0407 15.5025 10.0965C15.5259 10.1816 15.599 10.0697 15.5859 9.96868C15.5772 9.90151 15.5785 9.89919 15.625 9.89919C15.6896 9.89919 15.8272 9.98401 15.8697 10.0501C15.9191 10.1269 15.9155 10.2477 15.8612 10.3378L15.8185 10.4086L15.8743 10.3974C15.9562 10.381 16.0358 10.3301 16.0761 10.2684C16.1186 10.2032 16.1232 10.0762 16.0855 10.0077C16.0489 9.94129 16.0531 9.93074 16.1071 9.95319C16.1991 9.99136 16.2483 10.0335 16.2851 10.1056C16.3184 10.1706 16.3202 10.1867 16.3022 10.2543C16.2911 10.2961 16.2665 10.351 16.2474 10.3763C16.2177 10.4158 16.2167 10.4225 16.2403 10.4225C16.2844 10.4225 16.3764 10.3807 16.4091 10.346C16.4256 10.3284 16.4497 10.2851 16.4626 10.2498L16.4861 10.1856L16.513 10.2345C16.5512 10.3037 16.6253 10.366 16.7158 10.4048C16.813 10.4465 16.8535 10.4488 16.8027 10.4098C16.7684 10.3835 16.7052 10.1981 16.7243 10.18C16.7356 10.1693 16.8676 10.2709 17.0184 10.4062C17.161 10.5342 17.2506 10.5762 17.3815 10.5762C17.5488 10.5762 17.6463 10.4305 17.5711 10.2928C17.5272 10.2125 17.4295 10.2014 17.3724 10.2701C17.3462 10.3018 17.339 10.3269 17.3467 10.3601C17.3561 10.4007 17.3524 10.4061 17.3154 10.4061C17.2668 10.4061 17.1709 10.3439 17.0006 10.2018C16.741 9.98519 16.4256 9.80157 16.1978 9.7345C16.0516 9.69145 15.7394 9.67466 15.5908 9.70184C15.4299 9.73127 15.2397 9.82331 15.1361 9.92183C14.9524 10.0964 14.9495 10.3287 15.1283 10.5403L15.1795 10.6009L15.1449 10.6548C15.0944 10.7331 15.0987 10.8386 15.1556 10.9162C15.1806 10.9504 15.2059 10.9784 15.2117 10.9784C15.2175 10.9784 15.2239 10.9564 15.2259 10.9295C15.2309 10.8616 15.2601 10.816 15.3101 10.798C15.3552 10.7818 15.3844 10.7894 15.5908 10.8718C15.808 10.9585 16.1652 10.9645 16.545 10.8878C16.7312 10.8501 16.9507 10.8524 17.0473 10.8928C17.2243 10.967 17.2654 11.16 17.1352 11.3064C17.0789 11.3699 17.0245 11.3957 16.8421 11.4458C16.7033 11.4839 16.6704 11.4864 16.3549 11.4832C16.0853 11.4805 15.9884 11.4857 15.8784 11.5087C15.7589 11.5336 15.6854 11.5362 15.3345 11.5273L14.9288 11.5171L14.9738 11.5543C14.9985 11.5748 15.0335 11.6 15.0515 11.6104C15.0821 11.6279 15.081 11.6303 15.0356 11.6472C15.0088 11.6571 14.9495 11.6652 14.9037 11.6652H14.8205L14.8093 11.7359C14.8031 11.7748 14.8036 11.8203 14.8103 11.8369C14.8202 11.8614 14.8165 11.8649 14.7907 11.8555C14.7732 11.8491 14.7244 11.8366 14.6824 11.8277C14.6403 11.8188 14.5836 11.8006 14.5565 11.7873C14.5108 11.7649 14.5057 11.7655 14.4889 11.7953C14.4739 11.8219 14.3329 11.9268 14.3122 11.9268C14.3088 11.9268 14.3045 11.9066 14.3026 11.8818C14.3007 11.8571 14.2803 11.7927 14.2574 11.7388C14.2345 11.6848 14.2105 11.6259 14.2042 11.6079C14.1946 11.5808 14.1903 11.5794 14.1788 11.5998C14.1711 11.6133 14.16 11.6501 14.154 11.6815C14.148 11.713 14.1267 11.7641 14.1068 11.7952L14.0704 11.8516L14.0473 11.8033C14.0224 11.7516 13.9811 11.6979 13.9662 11.6979C13.9611 11.6979 13.9525 11.7144 13.9471 11.7347C13.9357 11.7769 13.8378 11.8941 13.8139 11.8941C13.8051 11.8941 13.7979 11.861 13.7979 11.8205C13.7979 11.78 13.7901 11.7469 13.7806 11.7469C13.7711 11.7469 13.7633 11.7574 13.7633 11.7702C13.7633 11.8013 13.6797 11.8941 13.6517 11.8941C13.6395 11.8941 13.6198 11.9051 13.608 11.9186C13.5771 11.9538 13.5519 11.9489 13.5649 11.9102C13.571 11.8921 13.567 11.8498 13.5561 11.8162C13.5452 11.7826 13.5336 11.7468 13.5303 11.7367C13.5262 11.724 13.4963 11.7274 13.4328 11.7477C13.3304 11.7806 13.296 11.7748 13.3487 11.7335C13.368 11.7184 13.3973 11.6661 13.4138 11.6173C13.4304 11.5686 13.4548 11.5253 13.4681 11.5211C13.4867 11.5154 13.4857 11.5225 13.4638 11.5522C13.4481 11.5734 13.4353 11.6019 13.4352 11.6157C13.4352 11.6294 13.4233 11.662 13.409 11.688C13.3946 11.7141 13.3856 11.738 13.3889 11.7412C13.3923 11.7443 13.4312 11.7295 13.4756 11.7083L13.5562 11.6696L13.5565 11.7042C13.5567 11.7232 13.5664 11.7734 13.5781 11.8156L13.5993 11.8925L13.6542 11.8673C13.7102 11.8415 13.7633 11.7497 13.7633 11.6785C13.7633 11.6433 13.7835 11.6487 13.7918 11.6861C13.7942 11.6971 13.8068 11.7383 13.8199 11.7777L13.8436 11.8493L13.8812 11.8041C13.9018 11.7792 13.9277 11.7304 13.9387 11.6957C13.9578 11.6353 13.9878 11.6094 13.9878 11.6532C13.9878 11.6848 14.074 11.798 14.0906 11.7883C14.0986 11.7836 14.1146 11.7411 14.1261 11.6938C14.1501 11.5956 14.1887 11.5288 14.2133 11.5431C14.2225 11.5485 14.2261 11.559 14.2213 11.5665C14.2164 11.5739 14.2363 11.6377 14.2654 11.7084C14.2945 11.7791 14.3237 11.8502 14.3303 11.8665C14.3409 11.8927 14.3505 11.8889 14.4129 11.8338C14.4517 11.7995 14.4869 11.7611 14.4912 11.7485C14.4976 11.7294 14.5063 11.7301 14.5425 11.7526C14.5933 11.7841 14.7639 11.8349 14.7771 11.8224C14.7821 11.8177 14.7871 11.7729 14.7884 11.7228L14.7906 11.6317L14.8397 11.6419C14.8667 11.6475 14.9234 11.6472 14.9658 11.6411L15.0429 11.6302L14.9742 11.5831C14.9364 11.5572 14.8983 11.5237 14.8894 11.5086C14.8799 11.4925 14.8463 11.4789 14.8082 11.4757C14.7053 11.4669 14.523 11.3647 14.523 11.3157C14.523 11.3065 14.5483 11.3222 14.5791 11.3504C14.6476 11.4132 14.7427 11.4526 14.8258 11.4526H14.8879L14.8495 11.4014C14.8274 11.3721 14.8076 11.3163 14.8029 11.2705C14.7955 11.1974 14.7878 11.1858 14.7115 11.1327C14.6657 11.1009 14.6089 11.0531 14.5853 11.0266L14.5425 10.9784L14.5207 11.0356C14.5086 11.0671 14.494 11.0929 14.488 11.0929C14.4821 11.0929 14.459 11.0745 14.4367 11.052C14.4144 11.0295 14.3917 11.0112 14.3862 11.0113C14.3807 11.0114 14.361 11.0417 14.3423 11.0786L14.3083 11.1457L14.2821 11.107C14.2676 11.0857 14.2336 11.0481 14.2063 11.0234C14.1791 10.9986 14.1647 10.9784 14.1745 10.9784C14.1842 10.9784 14.2178 11.0042 14.2492 11.0357L14.3062 11.0929L14.3294 11.051C14.3432 11.0261 14.3483 10.9878 14.3421 10.9569C14.333 10.9119 14.3343 10.9092 14.3516 10.9375C14.3626 10.9555 14.3959 10.99 14.4257 11.0142L14.4799 11.0581L14.5172 10.9896C14.5544 10.9215 14.5547 10.9214 14.5716 10.9621C14.5942 11.0165 14.758 11.1507 14.8974 11.2291C14.9189 11.2412 14.9099 11.1997 14.8702 11.1041C14.8597 11.0787 14.8511 11.0331 14.8511 11.0026C14.8511 10.9574 14.838 10.9373 14.7802 10.8933C14.6968 10.8298 14.6698 10.7847 14.654 10.6822C14.6477 10.6407 14.6331 10.5945 14.6216 10.5796C14.6045 10.5575 14.6017 10.5699 14.6063 10.6469C14.6094 10.6988 14.6026 10.7634 14.5913 10.7904L14.5707 10.8394L14.5548 10.7985C14.546 10.7761 14.5073 10.737 14.4687 10.7116C14.4302 10.6863 14.4031 10.6614 14.4086 10.6562C14.4141 10.651 14.4537 10.6741 14.4967 10.7074C14.5623 10.7583 14.5767 10.7638 14.5858 10.7414C14.5965 10.7151 14.5858 10.6006 14.5652 10.5206C14.5549 10.4806 14.5558 10.4808 14.6051 10.5301C14.6414 10.5665 14.6615 10.6098 14.6771 10.6854C14.6969 10.7815 14.7069 10.7975 14.7957 10.8755C14.8491 10.9224 14.8955 10.9581 14.8989 10.9549C14.9023 10.9517 14.909 10.8305 14.9139 10.6856C14.9232 10.4077 14.9127 10.3416 14.8458 10.2557L14.8114 10.2116L14.8654 10.1533C14.9359 10.0772 14.9683 10.0163 14.9824 9.93309L14.9938 9.86542L14.9328 9.9232C14.8828 9.9705 14.859 9.98097 14.8011 9.98097C14.7438 9.98097 14.7215 9.97137 14.6829 9.93023C14.6365 9.88088 14.5545 9.83339 14.4755 9.81027C14.4464 9.80174 14.4367 9.80546 14.4367 9.82518C14.4367 9.83963 14.4206 9.88136 14.4009 9.9179L14.3651 9.98433L14.2901 9.91022C14.2441 9.86476 14.1895 9.82937 14.1489 9.81869C14.0452 9.79141 14.0396 9.79412 14.0396 9.87141C14.0396 9.98866 13.9895 10.0105 13.8994 9.93257C13.8307 9.87317 13.7738 9.86025 13.6435 9.87456L13.543 9.88562L13.5611 9.93102C13.5762 9.96895 13.5728 9.98492 13.5404 10.028C13.4879 10.0979 13.4196 10.1281 13.3144 10.1281C13.266 10.1281 13.2054 10.1382 13.1797 10.1504C13.1541 10.1626 13.0904 10.1768 13.0382 10.1818C12.9859 10.1868 12.9303 10.1957 12.9145 10.2016C12.8897 10.2108 12.887 10.2032 12.895 10.1469C12.9072 10.0608 12.847 9.99731 12.7533 9.99731C12.6317 9.99731 12.5756 10.1061 12.6232 10.2496C12.6324 10.2772 12.6443 10.3208 12.6498 10.3464C12.6555 10.373 12.7103 10.4435 12.7774 10.5106C12.8421 10.5754 12.9032 10.6427 12.9133 10.6603C12.9233 10.6779 12.9565 10.7061 12.987 10.723L13.0425 10.7537L13.0351 10.6944C13.0271 10.6291 13.0413 10.6189 13.076 10.6649C13.0884 10.6814 13.12 10.708 13.1461 10.7241C13.1872 10.7493 13.1935 10.7499 13.1935 10.7279C13.1935 10.714 13.2019 10.6818 13.2122 10.6565L13.2308 10.6105L13.2632 10.6731C13.2809 10.7076 13.3388 10.7859 13.3917 10.8471C13.4943 10.9659 13.5569 11.0987 13.5246 11.1293C13.5115 11.1417 13.4761 11.1407 13.4027 11.126C13.3459 11.1145 13.2756 11.1085 13.2465 11.1125C13.187 11.1208 13.1823 11.1131 13.2189 11.0674C13.2575 11.0191 13.2513 11.0111 13.1756 11.0111C13.0879 11.0111 12.8702 10.9691 12.7866 10.936C12.7054 10.9039 12.6867 10.9119 12.6627 10.9889C12.652 11.0236 12.6323 11.0864 12.6189 11.1286L12.5947 11.2052L12.6826 11.1967C12.731 11.1921 12.7932 11.1815 12.8208 11.1732C12.8485 11.1649 12.8736 11.1605 12.8767 11.1634C12.8797 11.1663 12.8674 11.1962 12.8493 11.2299L12.8163 11.2911L12.8711 11.28C12.9013 11.2738 12.9466 11.2588 12.9719 11.2466C13.0159 11.2253 13.0194 11.2268 13.0541 11.2825C13.0968 11.351 13.1309 11.3482 13.1385 11.2756C13.1464 11.2005 13.1711 11.2116 13.2175 11.3111C13.2622 11.4068 13.3087 11.4406 13.3176 11.3838C13.3206 11.365 13.3447 11.3343 13.3711 11.3157C13.4247 11.278 13.465 11.2893 13.4881 11.3485C13.512 11.4098 13.4587 11.4729 13.3034 11.5671C12.9924 11.7556 12.8116 12.0134 12.76 12.3421C12.7134 12.6385 12.8588 12.9449 13.1505 13.1649C13.2901 13.2702 13.5118 13.3813 13.4977 13.3389C13.4379 13.1588 13.4399 12.8152 13.5011 12.7573C13.5103 12.7486 13.5071 12.7844 13.4941 12.8369C13.4455 13.0326 13.4666 13.1884 13.5911 13.5538C13.7038 13.8842 13.6882 14.0254 13.5288 14.1188C13.4775 14.1487 13.4446 14.1537 13.3068 14.152C13.1574 14.1502 13.1411 14.1532 13.0932 14.1914C13.0467 14.2285 12.9864 14.3502 12.9864 14.407C12.9864 14.4377 13.0206 14.4336 13.0877 14.3948Z" fill="#FFB700" stroke="black" stroke-width="0.02" mask="url(#path-33-inside-1_14099_124451)"/>
<path d="M15.5125 14.3882L15.5751 14.3479L15.6177 14.3882C15.6734 14.441 15.7387 14.4398 15.7923 14.385C15.8156 14.3611 15.8366 14.3446 15.8389 14.3482C15.8412 14.3519 15.8516 14.3696 15.8621 14.3876C15.8753 14.4104 15.9026 14.4218 15.9517 14.4253C16.0109 14.4295 16.0268 14.4237 16.0504 14.3897L16.0784 14.3492L16.1401 14.3888C16.309 14.4974 16.3991 14.3835 16.3236 14.1567C16.2852 14.0413 16.3063 13.9765 16.43 13.8297C16.4822 13.7678 16.5249 13.7018 16.525 13.6829C16.525 13.6529 16.5153 13.6488 16.4459 13.6502C16.3794 13.6515 16.36 13.6444 16.325 13.6059C16.2681 13.5433 16.2715 13.4716 16.3351 13.392L16.3859 13.3284L16.2958 13.2672C16.2462 13.2336 16.1568 13.154 16.0971 13.0904C15.9631 12.9475 15.8313 12.8797 15.6574 12.8643L15.5409 12.854L15.5411 12.9422C15.5413 13.0558 15.5946 13.165 15.7401 13.3501C15.9055 13.5604 15.917 13.593 15.9237 13.868L15.9294 14.1006L15.8815 14.146C15.8383 14.187 15.8188 14.1922 15.6792 14.2003C15.5464 14.2079 15.5184 14.2148 15.4795 14.2493C15.4277 14.2952 15.4122 14.3202 15.3962 14.3835C15.3869 14.4204 15.3907 14.4285 15.4173 14.4285C15.4352 14.4285 15.478 14.4104 15.5124 14.3882L15.5125 14.3882Z" fill="#FFB700"/>
<path d="M11.9576 13.7871C11.9724 13.7671 11.9845 13.7348 11.9845 13.7154C11.9845 13.686 11.9976 13.6781 12.0622 13.6689L12.14 13.6579L12.0881 13.6166C12.0265 13.5675 12.0208 13.5291 12.0751 13.529C12.1292 13.529 12.2208 13.4729 12.2347 13.4313C12.2412 13.412 12.2371 13.3862 12.2255 13.373C12.1952 13.3384 12.1382 13.3436 12.1276 13.3819C12.1162 13.4232 12.0972 13.4233 12.054 13.3824C11.989 13.3208 11.9875 13.1934 12.051 13.1193C12.0809 13.0843 12.0806 13.082 12.0425 13.0459C12.0015 13.0071 11.9722 12.9303 11.9915 12.912C11.9976 12.9062 12.03 12.9108 12.0634 12.9223C12.111 12.9386 12.1297 12.9388 12.1493 12.9234C12.2087 12.8768 12.1444 12.8168 12.0492 12.8301C12.0109 12.8354 11.9951 12.8301 11.9896 12.8102C11.9855 12.7951 11.952 12.7755 11.9142 12.7659C11.8468 12.7489 11.8463 12.7491 11.8463 12.7955C11.8463 12.8464 11.8173 12.856 11.7621 12.8234C11.7172 12.7969 11.6737 12.8175 11.6737 12.8652C11.6737 12.9098 11.7185 12.9318 11.7989 12.9266C11.8605 12.9227 11.8628 12.9685 11.8043 13.0344L11.7622 13.0817L11.7955 13.1296C11.8449 13.2006 11.8407 13.3184 11.7868 13.3769L11.7445 13.4228L11.7167 13.386C11.6782 13.3349 11.6254 13.3383 11.611 13.3929C11.6015 13.4286 11.6093 13.4449 11.6541 13.4828C11.6842 13.5083 11.7281 13.5291 11.7517 13.5291C11.81 13.5291 11.8078 13.575 11.7471 13.6214L11.6996 13.6577L11.773 13.669C11.8133 13.6753 11.8463 13.6871 11.8463 13.6952C11.8463 13.7264 11.8972 13.8234 11.9135 13.8234C11.923 13.8234 11.9428 13.8071 11.9576 13.7871L11.9576 13.7871Z" fill="#FFB700"/>
<path d="M12.913 13.373C12.9797 13.3467 13.124 13.2245 13.124 13.1943C13.124 13.1848 13.0841 13.141 13.0355 13.097C12.933 13.0043 12.8216 12.8482 12.7927 12.757C12.7777 12.7094 12.7049 12.6279 12.5001 12.4292L12.2274 12.1648L12.1488 12.1847C12.1056 12.1956 12.0529 12.2049 12.0317 12.2052C11.9951 12.2057 11.9957 12.2078 12.0444 12.2455L12.0957 12.2852L12.1676 12.2453C12.2374 12.2066 12.2399 12.2063 12.2485 12.2375C12.2535 12.2557 12.2426 12.2873 12.2234 12.3105C12.2047 12.333 12.194 12.3586 12.1997 12.3673C12.2054 12.376 12.1874 12.3941 12.1598 12.4077C12.1086 12.4327 12.0731 12.5153 12.1135 12.5153C12.1498 12.5153 12.23 12.4164 12.2207 12.3829C12.216 12.3658 12.2183 12.3482 12.2258 12.3438C12.257 12.3255 12.2551 12.4032 12.2234 12.4413C12.2047 12.4638 12.194 12.4894 12.1997 12.4981C12.2054 12.5068 12.1874 12.525 12.1598 12.5385C12.1089 12.5634 12.073 12.6461 12.1131 12.6461C12.1523 12.6461 12.2312 12.5516 12.2214 12.5162C12.2163 12.4977 12.2183 12.479 12.2258 12.4746C12.2468 12.4623 12.2582 12.5236 12.2404 12.5536C12.2309 12.5697 12.231 12.5917 12.2406 12.6091C12.2581 12.6406 12.2404 12.7012 12.2082 12.7201C12.1944 12.7281 12.2038 12.744 12.2372 12.7692C12.2856 12.8058 12.2866 12.8096 12.2866 12.971C12.2866 13.1058 12.292 13.1406 12.3168 13.1641C12.3446 13.1904 12.347 13.1905 12.347 13.1652C12.347 13.1377 12.3954 13.1039 12.435 13.1039C12.4467 13.1039 12.5197 13.1658 12.5973 13.2414C12.6753 13.3175 12.7569 13.3822 12.78 13.3864C12.803 13.3905 12.8279 13.3948 12.8353 13.396C12.8427 13.3973 12.8777 13.3869 12.913 13.373L12.913 13.373Z" fill="#FFB700"/>
<path d="M12.0798 12.7207C12.0798 12.6772 11.9902 12.6308 11.8829 12.6188C11.7963 12.6091 11.7949 12.6097 11.7949 12.6529C11.7949 12.6887 11.8085 12.7028 11.8683 12.7288C11.9643 12.7706 12.0798 12.7662 12.0798 12.7207L12.0798 12.7207Z" fill="#FFB700"/>
<path d="M12.1779 12.7167C12.2216 12.677 12.2424 12.6298 12.216 12.6298C12.1858 12.6298 12.1055 12.7019 12.1055 12.729C12.1055 12.7714 12.1204 12.7689 12.1779 12.7167V12.7167Z" fill="#FFB700"/>
<path d="M12.0848 12.5881C12.0885 12.5636 12.0733 12.5473 12.0279 12.5267C11.9298 12.4824 11.8125 12.4619 11.7843 12.4841C11.7323 12.525 11.7669 12.5799 11.851 12.5898C11.8848 12.5937 11.9307 12.6041 11.953 12.6127C12.0176 12.6378 12.079 12.6263 12.0848 12.5881Z" fill="#FFB700"/>
<path d="M12.0846 12.4569C12.0899 12.4219 12.0675 12.4094 11.8849 12.3451C11.7485 12.2971 11.6882 12.3197 11.7317 12.4025C11.7469 12.4313 11.7724 12.4445 11.8295 12.453C11.872 12.4594 11.9301 12.4718 11.9586 12.4807C12.0347 12.5043 12.0787 12.496 12.0846 12.4569L12.0846 12.4569Z" fill="#FFB700"/>
<path d="M12.176 12.3338C12.2036 12.3058 12.2261 12.2729 12.2261 12.2605C12.2261 12.2204 12.1173 12.2913 12.1035 12.3405C12.0868 12.3994 12.1138 12.3969 12.1761 12.3338L12.176 12.3338Z" fill="#FFB700"/>
<path d="M12.0847 12.3255C12.0907 12.2857 12.0244 12.2497 11.8941 12.222C11.7985 12.2017 11.7563 12.2132 11.7635 12.2577C11.7674 12.2819 11.7992 12.2996 11.8896 12.3278C12.0341 12.3729 12.0776 12.3724 12.0847 12.3255L12.0847 12.3255Z" fill="#FFB700"/>
<path d="M12.212 12.1401C12.379 12.0657 12.3935 11.8783 12.236 11.8291C12.1706 11.8086 12.1289 11.8196 12.1039 11.8639C12.0847 11.8978 12.0975 11.9595 12.1237 11.9595C12.1326 11.9595 12.1398 11.9709 12.1398 11.9848C12.1398 12.0499 11.8848 12.0794 11.7803 12.0264C11.7436 12.0078 11.7276 11.9595 11.7581 11.9595C11.781 11.9595 11.7968 11.9102 11.7851 11.8754C11.7692 11.8279 11.7214 11.8115 11.652 11.8296C11.4955 11.8706 11.4999 12.0545 11.6592 12.1326C11.7899 12.1966 12.0764 12.2005 12.212 12.1401L12.212 12.1401Z" fill="#FFB700"/>
<path d="M12.1079 11.9959C12.1176 11.9867 12.1134 11.9727 12.0972 11.9599C12.0617 11.932 12.0636 11.8905 12.1025 11.843C12.1318 11.8073 12.1354 11.7539 12.1455 11.2154C12.1628 10.2872 12.2318 9.58909 12.3228 9.42162C12.359 9.35494 12.3539 9.35468 12.2604 9.41835C12.1398 9.50038 12.048 9.60719 11.9667 9.7601C11.8131 10.0488 11.7598 10.4372 11.7598 11.2662C11.7598 11.737 11.763 11.7986 11.7898 11.8428C11.8153 11.8848 11.8166 11.9004 11.7987 11.9453C11.7871 11.9743 11.7819 12.0022 11.787 12.0071C11.8213 12.0395 12.0711 12.0309 12.1079 11.996V11.9959Z" fill="#FFB700"/>
<path d="M13.511 11.1109C13.5162 11.1028 13.5046 11.0624 13.4853 11.0209C13.4551 10.9563 13.4429 10.9456 13.3999 10.9456C13.2652 10.9456 13.0487 10.8854 12.8255 10.7859C12.6966 10.7284 12.6521 10.7152 12.6366 10.7299C12.5972 10.7672 12.6627 10.8559 12.7642 10.9025C12.8543 10.9438 13.106 10.9946 13.2209 10.9946C13.2875 10.9946 13.2891 10.9976 13.2512 11.0524L13.2233 11.0927L13.2986 11.0947C13.3401 11.0957 13.3973 11.1022 13.4258 11.1091C13.4998 11.1269 13.5005 11.1269 13.511 11.1109L13.511 11.1109Z" fill="#FFB700"/>
<path d="M14.2977 11.5291C14.2977 11.5051 14.2272 11.4401 14.1558 11.3982C14.0998 11.3653 14.0905 11.3643 14.0904 11.3911C14.0902 11.4319 14.054 11.5342 14.0397 11.5342C14.0317 11.5342 14.0199 11.5142 14.0134 11.4898C14.0069 11.4653 13.9797 11.4172 13.953 11.3827L13.9044 11.3201L13.8665 11.3781C13.8312 11.4322 13.7701 11.4852 13.743 11.4852C13.7365 11.4852 13.7352 11.4567 13.7401 11.4219C13.7455 11.384 13.7414 11.3541 13.7299 11.3473C13.7193 11.3411 13.7106 11.3433 13.7106 11.3521C13.7106 11.3725 13.6257 11.4688 13.6078 11.4688C13.6004 11.4688 13.59 11.4412 13.5848 11.4075C13.5795 11.3738 13.5705 11.3204 13.5649 11.2889C13.5592 11.2575 13.5713 11.2788 13.5917 11.3364L13.6289 11.441L13.6697 11.3772C13.6921 11.3422 13.7105 11.3038 13.7105 11.2921C13.7105 11.2803 13.7182 11.2751 13.7274 11.2805C13.7366 11.2859 13.7495 11.328 13.7559 11.3742L13.7677 11.4581L13.8125 11.4089C13.8372 11.3818 13.8661 11.3456 13.8768 11.3284C13.8958 11.2977 13.8969 11.2977 13.9347 11.3298C13.9559 11.3478 13.9886 11.3908 14.0072 11.4254C14.0258 11.46 14.0436 11.4858 14.0466 11.4827C14.0497 11.4795 14.0565 11.4439 14.0618 11.4034C14.0671 11.3629 14.0719 11.3283 14.0723 11.3265C14.075 11.3165 14.2075 11.4026 14.2565 11.4462C14.288 11.4742 14.3179 11.4932 14.323 11.4884C14.3281 11.4836 14.3322 11.4423 14.3322 11.3965C14.3322 11.3256 14.3247 11.3066 14.2813 11.2679C14.2315 11.2233 14.2301 11.2231 14.2117 11.2557C14.1878 11.298 14.1595 11.2986 14.1595 11.2568C14.1595 11.2263 14.0653 11.1091 14.0408 11.1091C14.0345 11.1091 14.0146 11.1348 13.9967 11.1663C13.9788 11.1978 13.9596 11.2235 13.954 11.2235C13.9298 11.2233 13.797 11.0752 13.797 11.0485C13.797 11.0272 13.806 11.0327 13.8293 11.0682C13.847 11.0952 13.8823 11.1354 13.9078 11.1577C13.9595 11.2027 13.9782 11.1918 13.9982 11.105C14.0038 11.0802 14.0137 11.06 14.0201 11.06C14.0422 11.06 14.1578 11.1828 14.174 11.2235L14.1904 11.2644L14.2027 11.2194C14.2179 11.1645 14.2345 11.1624 14.2587 11.2126C14.2688 11.2335 14.3186 11.2771 14.3694 11.3094L14.4617 11.3682L14.4802 11.3091C14.4904 11.2766 14.5039 11.2579 14.5102 11.2676C14.5197 11.282 14.4957 11.3799 14.4775 11.401C14.4748 11.4041 14.4449 11.3867 14.411 11.3622L14.3495 11.3178L14.3492 11.3974C14.3491 11.4411 14.3443 11.4935 14.3386 11.5138C14.3274 11.5533 14.2977 11.5645 14.2977 11.5291L14.2977 11.5291Z" fill="black"/>
<path d="M13.8381 10.8944C13.7283 10.8028 13.7117 10.7818 13.7141 10.7384L13.7167 10.6922L13.7238 10.7368C13.728 10.7629 13.7572 10.802 13.7941 10.8307L13.8572 10.88L13.8959 10.8351C13.9173 10.8105 13.935 10.7811 13.9353 10.7698C13.9362 10.7405 13.9415 10.743 14.0158 10.8075C14.0818 10.8648 14.0828 10.865 14.0927 10.8279C14.0981 10.8072 14.0962 10.7683 14.0883 10.7413C14.0668 10.6673 14.071 10.6562 14.1037 10.7008C14.12 10.723 14.1462 10.7545 14.1619 10.7707C14.1892 10.7988 14.1909 10.7985 14.2011 10.7625C14.2069 10.7418 14.2118 10.704 14.212 10.6784L14.2122 10.6319L14.2717 10.6993C14.3273 10.7624 14.3325 10.7647 14.3494 10.7347C14.3594 10.717 14.3677 10.6744 14.3679 10.6401C14.3681 10.5958 14.3727 10.5846 14.384 10.6015C14.4028 10.6297 14.3898 10.7064 14.355 10.7718L14.33 10.8187L14.2973 10.7677C14.2554 10.7025 14.2414 10.7035 14.2146 10.7739C14.1892 10.8405 14.1726 10.8455 14.1479 10.7944C14.1319 10.7613 14.1288 10.7653 14.1174 10.8349L14.1048 10.9122L14.0291 10.8534L13.9534 10.7946L13.9193 10.8333C13.9006 10.8546 13.8851 10.8812 13.8847 10.8925C13.884 10.9168 13.8658 10.9176 13.8381 10.8944L13.8381 10.8944Z" fill="black"/>
<path d="M14.814 10.5531C14.7741 10.5171 14.7465 10.4828 14.7529 10.4768C14.7592 10.4708 14.7663 10.4691 14.7686 10.473C14.771 10.4769 14.8037 10.5112 14.8412 10.5493C14.9276 10.637 14.9099 10.6394 14.814 10.5531V10.5531Z" fill="black"/>
<path d="M13.5135 10.4187C13.4771 10.3695 13.4797 10.337 13.5239 10.2837C13.5559 10.2452 13.5705 10.24 13.6263 10.2471C13.6621 10.2517 13.7391 10.2833 13.7975 10.3174C13.8649 10.3568 13.9346 10.3832 13.9886 10.3898C14.0354 10.3955 14.0736 10.3976 14.0736 10.3945C14.0736 10.3915 14.0542 10.3598 14.0305 10.3242C13.9741 10.2396 13.976 10.2306 14.0396 10.2812C14.1049 10.3332 14.183 10.3485 14.3574 10.3432L14.4427 10.3406L14.3932 10.2917C14.3241 10.2233 14.3453 10.2172 14.4217 10.2835C14.4933 10.3456 14.4889 10.35 14.3381 10.3651C14.274 10.3715 14.2051 10.3668 14.1479 10.3523C14.0622 10.3305 14.0589 10.3308 14.0751 10.3595C14.0845 10.3761 14.0996 10.3896 14.1088 10.3896C14.1179 10.3896 14.1254 10.398 14.1254 10.4083C14.1254 10.4398 13.9404 10.4121 13.8519 10.3673C13.6499 10.265 13.6245 10.2561 13.5764 10.2713C13.5497 10.2797 13.5229 10.3044 13.5137 10.3291C13.4829 10.4116 13.5999 10.4758 13.6481 10.4028C13.6621 10.3817 13.6588 10.3672 13.6343 10.3415C13.6006 10.3063 13.6038 10.3013 13.6492 10.3178C13.6815 10.3295 13.6858 10.407 13.6558 10.4354C13.6215 10.4679 13.5431 10.4587 13.5135 10.4187L13.5135 10.4187Z" fill="black"/>
<path d="M14.3095 10.2149C14.2843 10.191 14.3041 10.1852 14.4173 10.1831C14.5574 10.1804 14.6425 10.1571 14.7429 10.0937C14.8234 10.0429 14.8452 10.0529 14.7688 10.1056C14.6992 10.1536 14.5905 10.1905 14.4857 10.2018C14.4349 10.2073 14.377 10.2149 14.357 10.2187C14.3371 10.2225 14.3157 10.2208 14.3095 10.215L14.3095 10.2149Z" fill="black"/>
</svg>
