<svg width="24" height="24" viewBox="0 0 24 24" fill="none" xmlns="http://www.w3.org/2000/svg">
<path d="M20 6H4V18H20V6Z" fill="#EF2B2D"/>
<path d="M11.7276 6H8.63672V18H11.7276V6Z" fill="white"/>
<path d="M21 10.5H4V13.5H21V10.5Z" fill="white"/>
<path d="M10.9546 6H9.40918V18H10.9546V6Z" fill="#002868"/>
<path d="M21 11.25H4V12.75H21V11.25Z" fill="#002868"/>
<path d="M20 6L20 18L4 18L4 6L20 6ZM20 5L4 5C3.4 5 3 5.4 3 6L3 18C3 18.6 3.4 19 4 19L20 19C20.6 19 21 18.6 21 18L21 6C21 5.4 20.6 5 20 5Z" fill="#B5B5B5"/>
</svg>
