<svg width="24" height="24" viewBox="0 0 24 24" fill="none" xmlns="http://www.w3.org/2000/svg">
<path d="M20 8H4V18H20V8Z" fill="#006600"/>
<path d="M20 7H4V14H20V7Z" fill="white"/>
<path d="M20 6H4V10H20V6Z" fill="#CC0000"/>
<path d="M12.1976 11.8127C12.2139 11.7826 12.2389 11.7589 12.2688 11.7454C12.2986 11.7319 12.3318 11.7292 12.3632 11.7377C12.3947 11.7463 12.4226 11.7657 12.443 11.7929C12.4633 11.8201 12.4748 11.8537 12.4758 11.8886V12.5315H12.588V11.8886C12.589 11.8537 12.6005 11.8201 12.6208 11.7929C12.6411 11.7657 12.6691 11.7463 12.7005 11.7377C12.732 11.7292 12.7651 11.7319 12.795 11.7454C12.8249 11.7589 12.8499 11.7826 12.8662 11.8127C12.8837 11.7558 12.8885 11.6951 12.88 11.6357C12.8715 11.5764 12.8501 11.52 12.8174 11.4713C12.7848 11.4227 12.7419 11.383 12.6923 11.3557C12.6426 11.3283 12.5876 11.3141 12.5319 11.3141C12.4761 11.3141 12.4212 11.3283 12.3715 11.3557C12.3219 11.383 12.279 11.4227 12.2463 11.4713C12.2137 11.52 12.1922 11.5764 12.1838 11.6357C12.1753 11.6951 12.18 11.7558 12.1976 11.8127Z" fill="#F8C300"/>
<path d="M12.2773 11.6505C12.3263 11.6397 12.3772 11.6458 12.4229 11.6678C12.4685 11.6898 12.5065 11.7267 12.5316 11.7733C12.5568 11.7267 12.5948 11.6898 12.6404 11.6678C12.6861 11.6458 12.7369 11.6397 12.7859 11.6505C12.7775 11.5843 12.7471 11.5237 12.7003 11.4798C12.6536 11.4359 12.5937 11.4117 12.5316 11.4117C12.4696 11.4117 12.4097 11.4359 12.3629 11.4798C12.3162 11.5237 12.2858 11.5843 12.2773 11.6505Z" fill="white"/>
<path d="M12.4754 12.2789C12.4678 12.3701 12.4365 12.4572 12.3852 12.5302C12.3338 12.6032 12.2645 12.6592 12.185 12.6918C12.1055 12.7244 12.0192 12.7323 11.9357 12.7145C11.8523 12.6968 11.7752 12.6542 11.7132 12.5915C11.6866 12.6632 11.6453 12.7274 11.5924 12.7793C11.5394 12.8312 11.4761 12.8694 11.4074 12.891C11.3387 12.9127 11.2663 12.9172 11.1957 12.9042C11.1251 12.8912 11.0582 12.8611 11 12.8161C11.0436 13.2844 11.6955 13.1888 11.744 12.7335C11.9488 13.1206 12.3991 13.0098 12.5309 12.5355L12.4754 12.2789Z" fill="#F8C300"/>
<path d="M12.5549 12.2785C12.5625 12.3697 12.5938 12.4568 12.6451 12.5298C12.6964 12.6028 12.7658 12.6588 12.8453 12.6914C12.9247 12.724 13.0111 12.7319 13.0945 12.7141C13.178 12.6964 13.2551 12.6538 13.3171 12.5911C13.3436 12.6628 13.3849 12.727 13.4379 12.7789C13.4909 12.8308 13.5541 12.869 13.6229 12.8906C13.6916 12.9123 13.764 12.9168 13.8346 12.9038C13.9052 12.8908 13.9721 12.8607 14.0303 12.8157C13.9867 13.284 13.3348 13.1884 13.2862 12.7331C13.0815 13.1203 12.6311 13.0094 12.4994 12.5351L12.5549 12.2785Z" fill="#F8C300"/>
<path d="M12.0402 13.1122C11.9492 13.3236 11.7674 13.36 11.6084 13.1893C11.6084 13.1893 11.6723 13.1406 11.7408 13.1272C11.7279 13.0684 11.7542 12.9871 11.7913 12.9431C11.8302 12.9717 11.8845 13.0291 11.8983 13.0957C11.9941 13.0824 12.0402 13.1122 12.0402 13.1122L12.0402 13.1122Z" fill="#F8C300"/>
<path d="M13.4182 13.2528C13.2532 13.4134 13.0714 13.3774 12.9898 13.1588C12.9898 13.1588 13.0674 13.1383 13.1358 13.1521C13.1464 13.0929 13.2019 13.0278 13.253 13.0013C13.278 13.0427 13.3061 13.1164 13.2934 13.1833C13.3871 13.2076 13.4182 13.2528 13.4182 13.2528L13.4182 13.2528Z" fill="#F8C300"/>
<path d="M12.7875 13.0512C12.6856 13.2576 12.5022 13.2843 12.3523 13.1056C12.3523 13.1056 12.4187 13.0603 12.4878 13.0505C12.478 12.9911 12.5086 12.9113 12.5479 12.8693C12.5852 12.8999 12.6364 12.96 12.6467 13.0273C12.7432 13.019 12.7875 13.0512 12.7875 13.0512L12.7875 13.0512Z" fill="#F8C300"/>
<path d="M11.373 13.5817C12.1287 13.3394 12.9335 13.3394 13.6892 13.5817" stroke="#F8C300" stroke-width="0.1"/>
<path d="M12.5319 10.2023L12.7073 10.7838L12.248 10.4244H12.8158L12.3565 10.7838L12.5319 10.2023Z" fill="#F8C300"/>
<path d="M11.439 10.3555L11.9009 10.7498L11.3203 10.6958L11.7979 10.3889L11.6058 10.9395L11.439 10.3555Z" fill="#F8C300"/>
<path d="M13.5532 10.3543L13.0912 10.7487L13.6719 10.6947L13.1943 10.3877L13.3864 10.9384L13.5532 10.3543Z" fill="#F8C300"/>
<path d="M10.439 10.8474L10.9009 11.2417L10.3203 11.1877L10.7979 10.8808L10.6058 11.4314L10.439 10.8474Z" fill="#F8C300"/>
<path d="M14.5532 10.8465L14.0912 11.2408L14.6719 11.1868L14.1943 10.8799L14.3864 11.4305L14.5532 10.8465Z" fill="#F8C300"/>
<path d="M10.2388 12.1541L10.7008 12.5484L10.1201 12.4944L10.5977 12.1874L10.4056 12.7381L10.2388 12.1541Z" fill="#F8C300"/>
<path d="M14.7534 12.1532L14.2914 12.5475L14.8721 12.4935L14.3945 12.1865L14.5866 12.7372L14.7534 12.1532Z" fill="#F8C300"/>
<path d="M20 6L20 18L4 18L4 6L20 6ZM20 5L4 5C3.4 5 3 5.4 3 6L3 18C3 18.6 3.4 19 4 19L20 19C20.6 19 21 18.6 21 18L21 6C21 5.4 20.6 5 20 5Z" fill="#B5B5B5"/>
</svg>
