<svg width="24" height="24" viewBox="0 0 24 24" fill="none" xmlns="http://www.w3.org/2000/svg">
<path d="M20 6H4V14H20V6Z" fill="#00247D"/>
<path d="M4 6L12 10M4 10L12 6" stroke="white" stroke-width="1.4"/>
<path d="M4 6L12 10L4 6ZM4 10L12 6L4 10Z" fill="black"/>
<path d="M4 6L12 10M4 10L12 6" stroke="#CF142B" stroke-width="0.8"/>
<path d="M8 6V11.3333V6ZM4 8H13.3333H4Z" fill="black"/>
<path d="M8 6V11.3333M4 8H13.3333" stroke="white"/>
<path d="M8 6V11.3333V6ZM4 8H13.3333H4Z" fill="black"/>
<path d="M8 6V11.3333M4 8H13.3333" stroke="#CF142B" stroke-width="0.7"/>
<path d="M4 10.1108H12V6H20V18H4V10.1108Z" fill="#5B97B1"/>
<path d="M12.6048 15.5469L12.9973 16.7548L11.9697 16.0083H13.2399L12.2123 16.7548L12.6048 15.5469Z" fill="#FFCE00"/>
<path d="M17.2859 13.5312L17.6784 14.7392L16.6509 13.9927H17.921L16.8935 14.7392L17.2859 13.5312Z" fill="#FFCE00"/>
<path d="M18.7044 12.6211L19.0969 13.8291L18.0693 13.0825H19.3395L18.3119 13.8291L18.7044 12.6211Z" fill="#FFCE00"/>
<path d="M18.7044 9.5L19.0969 10.708L18.0693 9.9614H19.3395L18.3119 10.708L18.7044 9.5Z" fill="#FFCE00"/>
<path d="M20 6L20 18L4 18L4 6L20 6ZM20 5L4 5C3.4 5 3 5.4 3 6L3 18C3 18.6 3.4 19 4 19L20 19C20.6 19 21 18.6 21 18L21 6C21 5.4 20.6 5 20 5Z" fill="#B5B5B5"/>
</svg>
