<svg width="24" height="24" viewBox="0 0 24 24" fill="none" xmlns="http://www.w3.org/2000/svg">
<path d="M20 6H4V18H20V6Z" fill="black"/>
<path d="M20 8H4V10H20V8Z" fill="#FCDC04"/>
<path d="M20 10H4V12H20V10Z" fill="#D90000"/>
<path d="M20 14H4V16H20V14Z" fill="#FCDC04"/>
<path d="M20 16H4V18H20V16Z" fill="#D90000"/>
<path d="M11.9999 13.8689C13.0327 13.8689 13.8699 13.0317 13.8699 11.9989C13.8699 10.9661 13.0327 10.1289 11.9999 10.1289C10.9671 10.1289 10.1299 10.9661 10.1299 11.9989C10.1299 13.0317 10.9671 13.8689 11.9999 13.8689Z" fill="white"/>
<path d="M11.6706 10.5681L11.5493 10.3447C11.5961 10.2979 11.6749 10.2617 11.8004 10.2617C11.8004 10.2702 11.7876 10.5064 11.7876 10.5064L11.6706 10.5681Z" fill="#D90000" stroke="black" stroke-width="0.02"/>
<path d="M11.7876 10.5089L11.8046 10.2621C11.8046 10.2621 12.0557 10.2472 12.1919 10.411C12.194 10.4089 12.0578 10.6025 12.0578 10.6025L11.7876 10.5089Z" fill="#FCDC04" stroke="black" stroke-width="0.02"/>
<path d="M12.062 10.6016L12.1854 10.4102C12.2684 10.4974 12.3024 10.5591 12.3152 10.6527C12.3173 10.6548 12.1195 10.7016 12.1195 10.6995C12.1195 10.6974 12.0641 10.6038 12.062 10.6016Z" fill="#D90000" stroke="black" stroke-width="0.02"/>
<path d="M11.7321 13.7632C11.7321 13.7632 11.9641 13.4972 12.4151 13.5547C12.347 13.4441 12.1279 13.4568 12.1279 13.4568C12.1279 13.4568 12.0598 12.9398 12.113 12.9143C12.1662 12.8887 12.3917 12.9164 12.3917 12.9164C12.4215 12.9164 12.4726 12.8355 12.4321 12.7845C12.3917 12.7334 12.2726 12.5377 12.3215 12.4994C12.3704 12.4611 12.6364 12.5206 12.6364 12.5206L11.8853 11.5589C11.8853 11.5589 11.8087 11.1972 11.9619 11.0228C12.147 10.8696 12.1279 10.7036 12.1215 10.7057C12.096 10.5376 11.8407 10.4164 11.6683 10.5717C11.5662 10.6951 11.6343 10.7887 11.6343 10.7887C11.6343 10.7887 11.3662 10.861 11.3555 10.9079C11.3449 10.9547 11.6577 10.8994 11.6577 10.8994L11.6279 11.1142C11.6279 11.1142 11.0194 11.6674 11.4853 12.1462C11.4896 12.144 11.5002 12.1249 11.5002 12.1249C11.5002 12.1249 11.6641 12.327 11.8364 12.3717C11.9981 12.5377 11.9832 12.5121 11.9832 12.5121C11.9832 12.5121 12.0151 12.7738 11.9853 12.8249C11.9449 12.8121 11.5321 12.7972 11.4704 12.8206C11.4151 12.8377 11.2023 12.827 11.2555 13.1738C11.296 13.0802 11.3321 12.9972 11.3321 12.9972C11.3321 12.9972 11.3257 13.1228 11.3768 13.1675C11.3683 13.0355 11.4258 12.9462 11.4258 12.9462C11.4258 12.9462 11.4364 13.0909 11.4683 13.1121C11.5002 13.1334 11.5002 12.8781 11.6768 12.8994C11.8534 12.9206 11.9811 12.9143 11.9811 12.9143C11.9811 12.9143 12.0407 13.4143 12.0215 13.4611C11.8938 13.4313 11.5896 13.4738 11.5704 13.5504C11.7491 13.5398 11.8321 13.5611 11.8321 13.5611C11.8321 13.5611 11.6875 13.6887 11.7321 13.7632Z" fill="black" stroke="black" stroke-width="0.02"/>
<path d="M11.804 11.0352C11.804 11.0352 11.3612 11.5232 11.5522 11.8967C11.5624 11.8446 11.558 11.8119 11.5644 11.814C11.5537 11.8076 11.6193 11.8589 11.6143 11.8489C11.6157 11.8219 11.5943 11.7641 11.5943 11.7641C11.6143 11.7691 11.6343 11.7741 11.6542 11.779C11.6426 11.7574 11.6309 11.7358 11.6193 11.7141C11.6476 11.7175 11.6758 11.7208 11.7041 11.7241C11.7041 11.7241 11.6742 11.6442 11.6842 11.6442C11.6942 11.6442 11.7541 11.6492 11.7541 11.6492C11.6281 11.4233 11.7469 11.2356 11.804 11.0352Z" fill="#9CA69C" stroke="#9CA69C" stroke-width="0.02"/>
<path d="M11.9575 10.6172C11.9575 10.6172 11.9809 10.7853 11.8894 10.8342C11.8745 10.8448 11.8171 10.864 11.8256 10.8981C11.8362 10.9449 11.8617 10.9363 11.8979 10.9278C11.9936 10.9108 12.1043 10.7066 11.9575 10.6172Z" fill="#9CA69C" stroke="#9CA69C" stroke-width="0.02"/>
<path d="M11.7601 10.7986C11.78 10.7986 11.7961 10.7824 11.7961 10.7626C11.7961 10.7427 11.78 10.7266 11.7601 10.7266C11.7402 10.7266 11.7241 10.7427 11.7241 10.7626C11.7241 10.7824 11.7402 10.7986 11.7601 10.7986Z" fill="white"/>
<path d="M11.6513 10.8984C11.6279 10.9176 11.5045 11.0453 11.6258 11.0921C11.7513 11.058 11.7173 11.0346 11.745 11.007C11.7457 10.9495 11.6825 10.9346 11.6513 10.8984Z" fill="#D90000" stroke="black" stroke-width="0.02"/>
<path d="M11.9194 12.1055C11.9131 12.1331 11.8854 12.2353 11.9237 12.314C12.0301 12.2693 12.079 12.2821 12.1152 12.3055C12.028 12.2353 11.9939 12.2055 11.9194 12.1055Z" fill="#9CA69C" stroke="#9CA69C" stroke-width="0.02"/>
<path d="M12.1025 12.5897L12.1089 12.828C12.1089 12.828 12.1919 12.8429 12.2302 12.828C12.2685 12.8131 12.2281 12.6621 12.1025 12.5897Z" fill="white" stroke="white" stroke-width="0.02"/>
<path d="M12.7047 12.6189C12.7047 12.6189 12.5515 12.2487 12.16 12.1551C11.7685 12.0615 11.8196 11.6445 11.8515 11.6189C11.8686 11.5827 11.8813 11.5274 11.9941 11.5806C12.1069 11.6338 12.626 11.8955 12.7005 11.9083C12.7749 11.921 12.7111 12.6274 12.7047 12.6189Z" fill="#9CA69C" stroke="black" stroke-width="0.02"/>
<path d="M12.3321 12.1545C12.3257 12.1587 12.8555 12.4672 12.6959 12.7332C12.847 12.6332 12.7981 12.4587 12.7981 12.4587C12.7981 12.4587 12.9215 12.78 12.6215 12.9375C12.6534 12.9651 12.6747 12.9587 12.6747 12.9587L12.6236 13.0098C12.6236 13.0098 12.6002 13.0481 12.8023 12.9502C12.747 12.9949 12.7427 13.0268 12.7427 13.0268C12.7427 13.0268 12.7576 13.0694 12.8895 12.9545C12.7832 13.0694 12.7597 13.1289 12.7597 13.1268C13.047 13.1013 13.6725 12.1672 12.5619 11.8906C12.6215 11.9523 12.6129 11.9438 12.6129 11.9438L12.3321 12.1545Z" fill="#D90000" stroke="black" stroke-width="0.02"/>
<path d="M12.3555 12.0618C12.4278 12.1128 12.4534 12.1298 12.4619 12.1554C12.3959 12.1405 12.3363 12.1447 12.3363 12.1447C12.3363 12.1447 12.1938 12.0086 12.1683 11.9979C12.1491 11.9979 12.0385 11.9277 12.0385 11.9277C11.9832 11.9001 11.9321 11.7086 12.1364 11.7639C12.347 11.8639 12.3768 11.8724 12.3768 11.8724C12.4605 11.8986 12.5441 11.9249 12.6278 11.9511C12.6761 12.005 12.7243 12.0589 12.7725 12.1128C12.7725 12.1128 12.5151 11.9852 12.4832 11.983C12.5534 12.0405 12.5938 12.1192 12.5938 12.1192C12.5122 12.0958 12.4413 12.0745 12.3555 12.0618Z" fill="white" stroke="black" stroke-width="0.02"/>
<path d="M11.3535 10.9191C11.3535 10.9191 11.6003 10.8595 11.6301 10.868L11.3535 10.9191Z" fill="black"/>
<path d="M11.3535 10.9191C11.3535 10.9191 11.6003 10.8595 11.6301 10.868" stroke="white" stroke-width="0.02"/>
<path d="M20 6L20 18L4 18L4 6L20 6ZM20 5L4 5C3.4 5 3 5.4 3 6L3 18C3 18.6 3.4 19 4 19L20 19C20.6 19 21 18.6 21 18L21 6C21 5.4 20.6 5 20 5Z" fill="#B5B5B5"/>
</svg>
