<svg width="24" height="24" viewBox="0 0 24 24" fill="none" xmlns="http://www.w3.org/2000/svg">
<path d="M3 6V18H21V6H3Z" fill="#00247D"/>
<path d="M4 6L20 18L4 6ZM20 6L4 18L20 6Z" fill="black"/>
<path d="M4 6L20 18M20 6L4 18" stroke="white" stroke-width="2" stroke-linejoin="round"/>
<path d="M4 6L20 18L4 6ZM20 6L4 18L20 6Z" fill="black"/>
<path d="M4 6L20 18M20 6L4 18" stroke="#CF142B" stroke-width="1.5" stroke-linecap="round" stroke-linejoin="round"/>
<path d="M12 6V18V6ZM3 12H21H3Z" fill="black"/>
<path d="M12 6V18M3 12H21" stroke="white" stroke-width="2.5"/>
<path d="M12 6V18V6ZM3 12H21H3Z" fill="black"/>
<path d="M12 6V18M3 12H21" stroke="#CF142B" stroke-width="1.5"/>
<path d="M20 6L20 18L4 18L4 6L20 6ZM20 5L4 5C3.4 5 3 5.4 3 6L3 18C3 18.6 3.4 19 4 19L20 19C20.6 19 21 18.6 21 18L21 6C21 5.4 20.6 5 20 5Z" fill="#B5B5B5"/>
</svg>
