<svg width="24" height="24" viewBox="0 0 24 24" fill="none" xmlns="http://www.w3.org/2000/svg">
<path d="M21 6H4V18H21V6Z" fill="none"/>
<path d="M4 7H21H4ZM21 9H4H21ZM4 11H21H4ZM21 13H4H21ZM4 15H21H4ZM21 17H4H21Z" fill="black"/>
<!-- <path d="M4 7H21M21 9H4M4 11H21M21 13H4M4 15H21M21 17H4" stroke="white" stroke-width="0.5"/> -->
<path d="M12 6H4V12H12V6Z" fill="#3C3B6E"/>
<path d="M4.76975 6.20312L5.05838 7.10328L4.30273 6.54696H5.23676L4.48112 7.10328L4.76975 6.20312Z" fill="white"/>
<path d="M20 6L20 18L4 18L4 6L20 6ZM20 5L4 5C3.4 5 3 5.4 3 6L3 18C3 18.6 3.4 19 4 19L20 19C20.6 19 21 18.6 21 18L21 6C21 5.4 20.6 5 20 5Z" fill="none"/>
<g clip-path="url(#clip0_14099_125007)">
<path d="M4 6H20V7H4V6Z" fill="#BB133E"/>
<path d="M4 7H20V8H4V7Z" fill="white"/>
<path d="M4 8H20V9H4V8Z" fill="#BB133E"/>
<path d="M4 9H20V10H4V9Z" fill="white"/>
<path d="M4 10H20V12H4V10Z" fill="#BB133E"/>
<path d="M4 11.5H20V13H4V11.5Z" fill="white"/>
<path d="M4 13H20V14H4V13Z" fill="#BB133E"/>
<path d="M4 14H20V15H4V14Z" fill="white"/>
<path d="M4 15H20V16H4V15Z" fill="#BB133E"/>
<path d="M4 16H20V17H4V16Z" fill="white"/>
<path d="M4 17H20V18H4V17Z" fill="#BB133E"/>
<path d="M12.7999 12.4633H4.00049V6.00391H12.7999V12.4633Z" fill="#002664"/>
<path d="M4.55402 6.96847L4.61024 6.73278L4.43115 6.57626L4.66471 6.55827L4.75339 6.33398L4.84206 6.55827L5.07562 6.57626L4.89654 6.73278L4.95275 6.96847L4.75339 6.84073L4.55402 6.96847Z" fill="white"/>
<path d="M6.013 6.96847L6.06922 6.73278L5.89014 6.57626L6.1237 6.55827L6.21237 6.33398L6.30104 6.55827L6.5346 6.57626L6.35552 6.73278L6.41174 6.96847L6.21237 6.84073L6.013 6.96847Z" fill="white"/>
<path d="M7.4715 6.96847L7.52772 6.73278L7.34863 6.57626L7.58219 6.55827L7.67087 6.33398L7.75954 6.55827L7.99368 6.57626L7.81402 6.73278L7.87023 6.96847L7.67087 6.84073L7.4715 6.96847Z" fill="white"/>
<path d="M8.93048 6.96847L8.9867 6.73278L8.80762 6.57626L9.04118 6.55827L9.12985 6.33398L9.21852 6.55827L9.45266 6.57626L9.27358 6.73278L9.32922 6.96847L9.12985 6.84073L8.93048 6.96847Z" fill="white"/>
<path d="M10.389 6.96847L10.4452 6.73278L10.2661 6.57626L10.5003 6.55827L10.5883 6.33398L10.677 6.55827L10.9112 6.57626L10.7321 6.73278L10.7877 6.96847L10.5883 6.84073L10.389 6.96847Z" fill="white"/>
<path d="M11.8485 6.96847L11.9042 6.73278L11.7251 6.57626L11.9592 6.55827L12.0473 6.33398L12.136 6.55827L12.3701 6.57626L12.1911 6.73278L12.2467 6.96847L12.0473 6.84073L11.8485 6.96847Z" fill="white"/>
<path d="M5.2836 7.60714L5.33924 7.37206L5.16016 7.21494L5.3943 7.19754L5.48297 6.97266L5.57106 7.19754L5.8052 7.21494L5.62612 7.37206L5.68176 7.60714L5.48297 7.4794L5.2836 7.60714Z" fill="white"/>
<path d="M6.74259 7.60714L6.79822 7.37206L6.61914 7.21494L6.85328 7.19754L6.94195 6.97266L7.03005 7.19754L7.26419 7.21494L7.0851 7.37206L7.14132 7.60714L6.94195 7.4794L6.74259 7.60714Z" fill="white"/>
<path d="M8.20108 7.60714L8.25672 7.37206L8.07764 7.21494L8.31178 7.19754L8.40045 6.97266L8.48912 7.19754L8.72268 7.21494L8.5436 7.37206L8.59982 7.60714L8.40045 7.4794L8.20108 7.60714Z" fill="white"/>
<path d="M9.66007 7.60714L9.71628 7.37206L9.53662 7.21494L9.77076 7.19754L9.85943 6.97266L9.94811 7.19754L10.1817 7.21494L10.0026 7.37206L10.0588 7.60714L9.85943 7.4794L9.66007 7.60714Z" fill="white"/>
<path d="M11.1185 7.60714L11.1747 7.37206L10.9956 7.21494L11.2292 7.19754L11.3178 6.97266L11.4065 7.19754L11.6401 7.21494L11.461 7.37206L11.5172 7.60714L11.3178 7.4794L11.1185 7.60714Z" fill="white"/>
<path d="M4.55402 8.2425L4.61024 8.00682L4.43115 7.8503L4.66471 7.83231L4.75339 7.60742L4.84206 7.83231L5.07562 7.8503L4.89654 8.00682L4.95275 8.2425L4.75339 8.11417L4.55402 8.2425Z" fill="white"/>
<path d="M6.013 8.2425L6.06922 8.00682L5.89014 7.8503L6.1237 7.83231L6.21237 7.60742L6.30104 7.83231L6.5346 7.8503L6.35552 8.00682L6.41174 8.2425L6.21237 8.11417L6.013 8.2425Z" fill="white"/>
<path d="M7.4715 8.2425L7.52772 8.00682L7.34863 7.8503L7.58219 7.83231L7.67087 7.60742L7.75954 7.83231L7.99368 7.8503L7.81402 8.00682L7.87023 8.2425L7.67087 8.11417L7.4715 8.2425Z" fill="white"/>
<path d="M8.93048 8.2425L8.9867 8.00682L8.80762 7.8503L9.04118 7.83231L9.12985 7.60742L9.21852 7.83231L9.45266 7.8503L9.27358 8.00682L9.32922 8.2425L9.12985 8.11417L8.93048 8.2425Z" fill="white"/>
<path d="M10.389 8.2425L10.4452 8.00682L10.2661 7.8503L10.5003 7.83231L10.5883 7.60742L10.677 7.83231L10.9112 7.8503L10.7321 8.00682L10.7877 8.2425L10.5883 8.11417L10.389 8.2425Z" fill="white"/>
<path d="M11.8485 8.2425L11.9042 8.00682L11.7251 7.8503L11.9592 7.83231L12.0473 7.60742L12.136 7.83231L12.3701 7.8503L12.1911 8.00682L12.2467 8.2425L12.0473 8.11417L11.8485 8.2425Z" fill="white"/>
<path d="M5.2836 8.88277L5.33924 8.64709L5.16016 8.49057L5.3943 8.47318L5.48297 8.24829L5.57106 8.47318L5.8052 8.49057L5.62612 8.64709L5.68176 8.88277L5.48297 8.75504L5.2836 8.88277Z" fill="white"/>
<path d="M6.74259 8.88277L6.79822 8.64709L6.61914 8.49057L6.85328 8.47318L6.94195 8.24829L7.03005 8.47318L7.26419 8.49057L7.0851 8.64709L7.14132 8.88277L6.94195 8.75504L6.74259 8.88277Z" fill="white"/>
<path d="M8.20108 8.88277L8.25672 8.64709L8.07764 8.49057L8.31178 8.47318L8.40045 8.24829L8.48912 8.47318L8.72268 8.49057L8.5436 8.64709L8.59982 8.88277L8.40045 8.75504L8.20108 8.88277Z" fill="white"/>
<path d="M9.66007 8.88277L9.71628 8.64709L9.53662 8.49057L9.77076 8.47318L9.85943 8.24829L9.94811 8.47318L10.1817 8.49057L10.0026 8.64709L10.0588 8.88277L9.85943 8.75504L9.66007 8.88277Z" fill="white"/>
<path d="M11.1185 8.88277L11.1747 8.64709L10.9956 8.49057L11.2292 8.47318L11.3178 8.24829L11.4065 8.47318L11.6401 8.49057L11.461 8.64709L11.5172 8.88277L11.3178 8.75504L11.1185 8.88277Z" fill="white"/>
<path d="M4.55402 9.5505L4.61024 9.31482L4.43115 9.15829L4.66471 9.1409L4.75339 8.91602L4.84206 9.1409L5.07562 9.15829L4.89654 9.31482L4.95275 9.5505L4.75339 9.42276L4.55402 9.5505Z" fill="white"/>
<path d="M6.013 9.5505L6.06922 9.31482L5.89014 9.15829L6.1237 9.1409L6.21237 8.91602L6.30104 9.1409L6.5346 9.15829L6.35552 9.31482L6.41174 9.5505L6.21237 9.42276L6.013 9.5505Z" fill="white"/>
<path d="M7.4715 9.5505L7.52772 9.31482L7.34863 9.15829L7.58219 9.1409L7.67087 8.91602L7.75954 9.1409L7.99368 9.15829L7.81402 9.31482L7.87023 9.5505L7.67087 9.42276L7.4715 9.5505Z" fill="white"/>
<path d="M8.93048 9.5505L8.9867 9.31482L8.80762 9.15829L9.04118 9.1409L9.12985 8.91602L9.21852 9.1409L9.45266 9.15829L9.27358 9.31482L9.32922 9.5505L9.12985 9.42276L8.93048 9.5505Z" fill="white"/>
<path d="M10.389 9.5505L10.4452 9.31482L10.2661 9.15829L10.5003 9.1409L10.5883 8.91602L10.677 9.1409L10.9112 9.15829L10.7321 9.31482L10.7877 9.5505L10.5883 9.42276L10.389 9.5505Z" fill="white"/>
<path d="M11.8485 9.5505L11.9042 9.31482L11.7251 9.15829L11.9592 9.1409L12.0473 8.91602L12.136 9.1409L12.3701 9.15829L12.1911 9.31482L12.2467 9.5505L12.0473 9.42276L11.8485 9.5505Z" fill="white"/>
<path d="M5.2836 10.1911L5.33924 9.95544L5.16016 9.79892L5.3943 9.78093L5.48297 9.55664L5.57106 9.78093L5.8052 9.79892L5.62612 9.95544L5.68176 10.1911L5.48297 10.0628L5.2836 10.1911Z" fill="white"/>
<path d="M6.74259 10.1911L6.79822 9.95544L6.61914 9.79892L6.85328 9.78093L6.94195 9.55664L7.03005 9.78093L7.26419 9.79892L7.0851 9.95544L7.14132 10.1911L6.94195 10.0628L6.74259 10.1911Z" fill="white"/>
<path d="M8.20108 10.1911L8.25672 9.95544L8.07764 9.79892L8.31178 9.78093L8.40045 9.55664L8.48912 9.78093L8.72268 9.79892L8.5436 9.95544L8.59982 10.1911L8.40045 10.0628L8.20108 10.1911Z" fill="white"/>
<path d="M9.66007 10.1911L9.71628 9.95544L9.53662 9.79892L9.77076 9.78093L9.85943 9.55664L9.94811 9.78093L10.1817 9.79892L10.0026 9.95544L10.0588 10.1911L9.85943 10.0628L9.66007 10.1911Z" fill="white"/>
<path d="M11.1185 10.1911L11.1747 9.95544L10.9956 9.79892L11.2292 9.78093L11.3178 9.55664L11.4065 9.78093L11.6401 9.79892L11.461 9.95544L11.5172 10.1911L11.3178 10.0628L11.1185 10.1911Z" fill="white"/>
<path d="M4.55402 10.861L4.61024 10.6254L4.43115 10.4688L4.66471 10.4509L4.75339 10.2266L4.84206 10.4509L5.07562 10.4688L4.89654 10.6254L4.95275 10.861L4.75339 10.7327L4.55402 10.861Z" fill="white"/>
<path d="M6.013 10.861L6.06922 10.6254L5.89014 10.4688L6.1237 10.4509L6.21237 10.2266L6.30104 10.4509L6.5346 10.4688L6.35552 10.6254L6.41174 10.861L6.21237 10.7327L6.013 10.861Z" fill="white"/>
<path d="M7.4715 10.861L7.52772 10.6254L7.34863 10.4688L7.58219 10.4509L7.67087 10.2266L7.75954 10.4509L7.99368 10.4688L7.81402 10.6254L7.87023 10.861L7.67087 10.7327L7.4715 10.861Z" fill="white"/>
<path d="M8.93048 10.861L8.9867 10.6254L8.80762 10.4688L9.04118 10.4509L9.12985 10.2266L9.21852 10.4509L9.45266 10.4688L9.27358 10.6254L9.32922 10.861L9.12985 10.7327L8.93048 10.861Z" fill="white"/>
<path d="M10.389 10.861L10.4452 10.6254L10.2661 10.4688L10.5003 10.4509L10.5883 10.2266L10.677 10.4509L10.9112 10.4688L10.7321 10.6254L10.7877 10.861L10.5883 10.7327L10.389 10.861Z" fill="white"/>
<path d="M11.8485 10.861L11.9042 10.6254L11.7251 10.4688L11.9592 10.4509L12.0473 10.2266L12.136 10.4509L12.3701 10.4688L12.1911 10.6254L12.2467 10.861L12.0473 10.7327L11.8485 10.861Z" fill="white"/>
<path d="M5.2836 11.4997L5.33924 11.264L5.16016 11.1075L5.3943 11.0901L5.48297 10.8652L5.57106 11.0901L5.8052 11.1075L5.62612 11.264L5.68176 11.4997L5.48297 11.372L5.2836 11.4997Z" fill="white"/>
<path d="M6.74259 11.4997L6.79822 11.264L6.61914 11.1075L6.85328 11.0901L6.94195 10.8652L7.03005 11.0901L7.26419 11.1075L7.0851 11.264L7.14132 11.4997L6.94195 11.372L6.74259 11.4997Z" fill="white"/>
<path d="M8.20108 11.4997L8.25672 11.264L8.07764 11.1075L8.31178 11.0901L8.40045 10.8652L8.48912 11.0901L8.72268 11.1075L8.5436 11.264L8.59982 11.4997L8.40045 11.372L8.20108 11.4997Z" fill="white"/>
<path d="M9.66007 11.4997L9.71628 11.264L9.53662 11.1075L9.77076 11.0901L9.85943 10.8652L9.94811 11.0901L10.1817 11.1075L10.0026 11.264L10.0588 11.4997L9.85943 11.372L9.66007 11.4997Z" fill="white"/>
<path d="M11.1185 11.4997L11.1747 11.264L10.9956 11.1075L11.2292 11.0901L11.3178 10.8652L11.4065 11.0901L11.6401 11.1075L11.461 11.264L11.5172 11.4997L11.3178 11.372L11.1185 11.4997Z" fill="white"/>
<path d="M4.55402 12.1345L4.61024 11.8994L4.43115 11.7423L4.66471 11.7249L4.75339 11.5L4.84206 11.7249L5.07562 11.7423L4.89654 11.8994L4.95275 12.1345L4.75339 12.0067L4.55402 12.1345Z" fill="white"/>
<path d="M6.013 12.1345L6.06922 11.8994L5.89014 11.7423L6.1237 11.7249L6.21237 11.5L6.30104 11.7249L6.5346 11.7423L6.35552 11.8994L6.41174 12.1345L6.21237 12.0067L6.013 12.1345Z" fill="white"/>
<path d="M7.4715 12.1345L7.52772 11.8994L7.34863 11.7423L7.58219 11.7249L7.67087 11.5L7.75954 11.7249L7.99368 11.7423L7.81402 11.8994L7.87023 12.1345L7.67087 12.0067L7.4715 12.1345Z" fill="white"/>
<path d="M8.93048 12.1345L8.9867 11.8994L8.80762 11.7423L9.04118 11.7249L9.12985 11.5L9.21852 11.7249L9.45266 11.7423L9.27358 11.8994L9.32922 12.1345L9.12985 12.0067L8.93048 12.1345Z" fill="white"/>
<path d="M10.389 12.1345L10.4452 11.8994L10.2661 11.7423L10.5003 11.7249L10.5883 11.5L10.677 11.7249L10.9112 11.7423L10.7321 11.8994L10.7877 12.1345L10.5883 12.0067L10.389 12.1345Z" fill="white"/>
<path d="M11.8485 12.1345L11.9042 11.8994L11.7251 11.7423L11.9592 11.7249L12.0473 11.5L12.136 11.7249L12.3701 11.7423L12.1911 11.8994L12.2467 12.1345L12.0473 12.0067L11.8485 12.1345Z" fill="white"/>
</g>
<defs>
<clipPath id="clip0_14099_125007">
<rect width="16" height="12" fill="white" transform="translate(4 6)"/>
</clipPath>
</defs>
</svg>
