<svg width="24" height="24" viewBox="0 0 24 24" fill="none" xmlns="http://www.w3.org/2000/svg">
<path d="M20 6H4V18H20V6Z" fill="white"/>
<path d="M12 6H4V18H12V6Z" fill="#FFE000"/>
<path d="M15.3988 10.3395L15.5018 10.3641L15.6661 10.3908L15.7413 10.3991L15.7281 10.7185C15.7281 10.7185 15.7101 10.9309 15.6789 11.0319C15.6557 11.1068 15.5779 11.2442 15.5779 11.2442L15.5287 11.3193L15.2386 11.0681C15.2386 11.0681 15.288 10.9981 15.3059 10.9594C15.3284 10.9108 15.3551 10.8066 15.3551 10.8066L15.3836 10.6408L15.3992 10.4311L15.3988 10.3395ZM15.034 11.309L15.2982 11.5395C15.2982 11.5395 15.2448 11.587 15.2127 11.6016C15.1498 11.6303 15.0798 11.6497 15.0107 11.6482C14.9612 11.6472 14.9127 11.6292 14.8677 11.6087C14.767 11.5627 14.6563 11.5144 14.5914 11.4248C14.5684 11.3931 14.5594 11.3507 14.5601 11.3116C14.5609 11.2672 14.6003 11.1847 14.6003 11.1847C14.6003 11.1847 14.6156 11.2399 14.6331 11.2616C14.662 11.2973 14.7043 11.3211 14.7458 11.3408C14.7768 11.3555 14.8107 11.3665 14.845 11.3686C14.8895 11.3712 14.9356 11.3642 14.977 11.3478C14.9984 11.3394 15.034 11.309 15.034 11.309H15.034Z" fill="white" stroke="black" stroke-width="0.05" stroke-linecap="round" stroke-linejoin="round"/>
<path d="M14.6155 9.61519C14.6155 9.61519 14.6366 9.65744 14.643 9.68001C14.654 9.71862 14.6616 9.7589 14.6613 9.79904C14.661 9.83928 14.6519 9.87929 14.6412 9.91807C14.6251 9.97618 14.6007 10.0319 14.5753 10.0865C14.5591 10.1212 14.5365 10.1526 14.5203 10.1873C14.4942 10.2431 14.4756 10.3022 14.4526 10.3594C14.4334 10.4071 14.4086 10.4529 14.394 10.5022C14.3745 10.5677 14.3648 10.6359 14.3555 10.7037C14.3476 10.7619 14.3413 10.8206 14.3409 10.8794C14.3404 10.9492 14.3425 11.0197 14.3555 11.0882C14.3684 11.1561 14.3874 11.2239 14.4178 11.286C14.4423 11.336 14.4749 11.3826 14.513 11.4233C14.5445 11.4569 14.5815 11.4858 14.621 11.5094C14.657 11.5308 14.6975 11.5434 14.7364 11.5588C14.7901 11.5802 14.8992 11.6186 14.8992 11.6186C14.8992 11.6186 14.7486 11.5444 14.6961 11.4819C14.6527 11.4302 14.6288 11.3628 14.6137 11.297C14.5963 11.2208 14.5985 11.1403 14.6064 11.0626C14.6149 10.9789 14.6395 10.8973 14.665 10.8172C14.6919 10.7326 14.7296 10.6518 14.7639 10.57C14.7886 10.511 14.8169 10.4535 14.8408 10.3942C14.8691 10.3242 14.8969 10.2538 14.9195 10.1818C14.9333 10.1378 14.9506 10.0939 14.9543 10.048C14.9583 9.99817 14.9518 9.94729 14.9404 9.89858C14.9244 9.83034 14.9046 9.76003 14.8647 9.70241C14.8406 9.66773 14.8077 9.63743 14.7701 9.61824C14.7334 9.59951 14.6898 9.58367 14.6494 9.59166C14.6359 9.59432 14.6155 9.6152 14.6155 9.6152V9.61519Z" fill="white" stroke="black" stroke-width="0.05" stroke-linecap="round" stroke-linejoin="round"/>
<path d="M14.954 10.0518C14.954 10.0518 14.9825 9.93663 14.9874 9.87777C14.9915 9.82742 14.9888 9.77651 14.9835 9.72627C14.9776 9.67037 14.9741 9.61239 14.9524 9.56053C14.9299 9.50673 14.8946 9.4573 14.8527 9.4168C14.8114 9.37688 14.7612 9.34445 14.7077 9.32357C14.6513 9.30161 14.5893 9.29619 14.529 9.29249C14.4772 9.28933 14.425 9.29372 14.3736 9.30026C14.3439 9.30404 14.3139 9.30878 14.2856 9.31839C14.2592 9.3273 14.2104 9.35465 14.2104 9.35465L14.4021 9.668C14.4021 9.668 14.4621 9.63269 14.4953 9.62398C14.5305 9.61476 14.5678 9.61408 14.6041 9.61621C14.6409 9.61836 14.6791 9.62193 14.7129 9.63693C14.7558 9.65602 14.7928 9.68802 14.8252 9.72207C14.8642 9.76316 14.8991 9.81031 14.9209 9.86262C14.9412 9.9112 14.9438 9.96548 14.9511 10.0176C14.9527 10.0289 14.954 10.0518 14.954 10.0518L14.954 10.0518Z" fill="white" stroke="black" stroke-width="0.05" stroke-linecap="round" stroke-linejoin="round"/>
<path d="M14.9893 9.8025C14.9893 9.8025 14.9552 9.69652 14.9229 9.65226C14.8855 9.60086 14.8374 9.55376 14.7805 9.52537C14.7202 9.49526 14.5822 9.48558 14.5822 9.48558L14.6552 9.6208L14.5274 9.61768L14.4607 9.5061L14.3376 9.56182L14.2764 9.46169L14.4071 9.40106L14.3469 9.30388L14.4776 9.29144L14.5345 9.38552C14.5345 9.38552 14.6361 9.38583 14.6855 9.3962C14.719 9.40323 14.7519 9.41482 14.7822 9.43079C14.8112 9.44607 14.8379 9.46613 14.8619 9.48847C14.8907 9.51534 14.9178 9.5452 14.9379 9.57912C14.9574 9.61207 14.9797 9.68617 14.9797 9.68617L14.9893 9.8025Z" fill="#CE9D09" stroke="black" stroke-width="0.05" stroke-linecap="round" stroke-linejoin="round"/>
<path d="M14.1225 9.41089L14.3267 9.70908L14.1225 9.41089ZM14.2117 9.35876L14.1155 9.41501L14.0239 9.4846L14.2217 9.78674L14.3096 9.71899L14.4 9.66662L14.2117 9.35876Z" fill="#CE9D09"/>
<path d="M14.1225 9.41089L14.3267 9.70908M14.2117 9.35876L14.1155 9.41501L14.0239 9.4846L14.2217 9.78674L14.3096 9.71899L14.4 9.66662L14.2117 9.35876Z" stroke="black" stroke-width="0.05" stroke-linecap="round" stroke-linejoin="round"/>
<path d="M14.5843 10.6277L14.6988 10.3914L14.8212 10.4402L14.8709 10.3182L14.7491 10.2614L14.8123 10.125L14.7226 10.0847L14.6548 10.2156L14.532 10.1643L14.478 10.2921L14.5971 10.342L14.4872 10.5764L14.5843 10.6277Z" fill="#CE9D09" stroke="black" stroke-width="0.05" stroke-linecap="round" stroke-linejoin="round"/>
<path d="M15.5001 10.5584L15.6166 10.5558V10.6905L15.7288 10.6958L15.7097 10.8325L15.6051 10.8259C15.6051 10.8259 15.5878 10.9064 15.5723 10.9443C15.5562 10.9836 15.5104 11.0557 15.5104 11.0557L15.3861 11.0246C15.3861 11.0246 15.4311 10.9539 15.4483 10.9158C15.4637 10.8817 15.4845 10.8096 15.4845 10.8096L15.3569 10.7935L15.3791 10.6643L15.4949 10.6724L15.5001 10.5584Z" fill="#CE9D09" stroke="black" stroke-width="0.05" stroke-linecap="round" stroke-linejoin="round"/>
<path d="M15.2426 8.70628L15.0671 8.89473L15.1751 9.22069L15.237 9.44978L15.0596 9.61506L15.3842 10.0698L15.2731 10.1966C15.2615 10.2115 15.2574 10.2329 15.2594 10.2517C15.2612 10.2689 15.2695 10.2866 15.2823 10.2984C15.3114 10.3251 15.3548 10.3312 15.3931 10.3414C15.5279 10.3772 15.6678 10.3932 15.8069 10.4036C15.8368 10.4059 15.8968 10.4036 15.8968 10.4036C15.8968 10.4036 15.9567 10.4059 15.9866 10.4036C16.1258 10.3932 16.2657 10.3772 16.4005 10.3414C16.4388 10.3312 16.4821 10.3251 16.5113 10.2984C16.5241 10.2866 16.5324 10.2689 16.5342 10.2517C16.5362 10.2329 16.5321 10.2115 16.5205 10.1966L16.4161 9.96701L16.7478 9.61168L16.6212 9.49754L16.6184 9.22069L16.7265 8.89473L16.5638 8.7301L16.417 8.33805C16.417 8.33805 16.3863 8.22873 16.3602 8.17873C16.3446 8.14884 16.3229 8.12247 16.3016 8.09633C16.2761 8.06501 16.2504 8.03316 16.2192 8.00752C16.1909 7.98428 16.1582 7.96691 16.1258 7.94983C16.0911 7.93149 16.0561 7.91171 16.018 7.90201C15.9787 7.89201 15.8968 7.89215 15.8968 7.89215C15.8968 7.89215 15.8149 7.89198 15.7755 7.90201C15.7374 7.91171 15.7025 7.93149 15.6677 7.94983C15.6354 7.96691 15.6026 7.98428 15.5743 8.00752C15.5431 8.03316 15.5174 8.06501 15.4919 8.09633C15.4707 8.12247 15.4489 8.14884 15.4333 8.17873C15.4073 8.22873 15.3766 8.33805 15.3766 8.33805L15.2426 8.70628Z" fill="white" stroke="black" stroke-width="0.05" stroke-linecap="round" stroke-linejoin="round"/>
<path d="M16.5647 9.97331C16.5647 9.97331 16.5444 9.9551 16.533 9.94772C16.509 9.93219 16.4833 9.91909 16.4566 9.90887C16.4207 9.89512 16.3827 9.88783 16.3452 9.87909C16.3024 9.86908 16.2594 9.859 16.2158 9.85319C16.1647 9.8464 16.1131 9.84335 16.0617 9.84283C16.0066 9.84228 15.8966 9.8506 15.8966 9.8506C15.8966 9.8506 15.7867 9.84228 15.7315 9.84283C15.68 9.84335 15.6285 9.8464 15.5774 9.85319C15.5338 9.859 15.4908 9.86908 15.4479 9.87909C15.4105 9.88783 15.3725 9.89512 15.3366 9.90887C15.3099 9.91909 15.2842 9.93219 15.2602 9.94772C15.2488 9.9551 15.2284 9.97331 15.2284 9.97331M16.6282 9.70008C16.6282 9.70008 16.595 9.66636 16.5731 9.6622C16.559 9.65951 16.5428 9.66358 16.5311 9.67191C16.5159 9.6827 16.5057 9.7011 16.5013 9.71917C16.4973 9.73536 16.499 9.75353 16.5052 9.76903C16.5104 9.78215 16.5186 9.79679 16.5317 9.80205C16.5624 9.81437 16.6302 9.78909 16.6302 9.78909L16.6282 9.70008ZM16.5977 9.95032C16.6349 9.95142 16.6484 9.97021 16.6582 9.99176L16.5977 9.95032ZM15.1016 9.97331L15.0996 10.0623C15.0996 10.0623 15.1673 10.0876 15.1981 10.0753C15.2112 10.07 15.2194 10.0554 15.2246 10.0423C15.2308 10.0268 15.2325 10.0086 15.2285 9.99241C15.224 9.97433 15.2139 9.95593 15.1987 9.94514C15.187 9.93681 15.1708 9.93266 15.1566 9.93543C15.1346 9.93976 15.1016 9.97331 15.1016 9.97331ZM16.5647 9.92733C16.5276 9.92843 16.5141 9.94722 16.5042 9.96877L16.5647 9.92733ZM17.7725 9.97738L17.7184 9.97133L17.7725 9.97738ZM16.8862 9.97738L16.9402 9.97133L16.8862 9.97738ZM17.4266 9.97654C17.4082 9.97384 17.3779 9.9496 17.3779 9.9496L17.4266 9.97654ZM17.2321 9.97654C17.2504 9.97384 17.2807 9.9496 17.2807 9.9496L17.2321 9.97654ZM18.1827 9.82578C18.1827 9.82578 18.1558 9.84721 18.1361 9.85047L18.1284 9.8546C18.1284 9.8546 18.1159 9.89126 18.1049 9.90691C18.0939 9.9226 18.0635 9.94691 18.0635 9.94691C18.0635 9.94691 18.0329 9.92039 18.014 9.91522C18.0016 9.91183 17.9873 9.91174 17.9754 9.9166C17.9628 9.92175 17.9527 9.93282 17.9451 9.94416C17.9361 9.95755 17.9278 9.97349 17.9285 9.9896C17.9295 10.0089 17.9534 10.042 17.9534 10.042L17.9369 10.0708L17.9134 10.086C17.873 10.0738 17.8326 10.0608 17.7922 10.0378C17.7811 10.0257 17.7707 10.0103 17.7632 9.97997C17.7632 9.97997 17.7923 9.96273 17.799 9.94828C17.8066 9.93205 17.8097 9.90985 17.8004 9.89453C17.7901 9.87751 17.7667 9.86867 17.7467 9.86835C17.7321 9.86811 17.7167 9.87565 17.7067 9.88628C17.696 9.89772 17.6877 9.91486 17.6902 9.93035C17.6928 9.94613 17.7205 9.96753 17.7205 9.96753C17.7205 9.96753 17.709 9.9967 17.696 10.0023C17.6575 10.0187 17.6321 10.0281 17.5984 10.0333C17.5651 10.0385 17.5276 10.0427 17.4941 10.0332C17.4725 10.0271 17.4503 10.0157 17.4367 9.99785C17.4327 9.99252 17.4312 9.9786 17.4312 9.9786C17.4312 9.9786 17.4726 9.96785 17.4891 9.95516C17.5055 9.94256 17.5229 9.92592 17.5263 9.90553C17.5297 9.88505 17.5188 9.86336 17.507 9.84629C17.4953 9.82936 17.4777 9.81596 17.4588 9.80772C17.4503 9.804 17.4312 9.8036 17.4312 9.8036C17.4312 9.8036 17.4272 9.80725 17.4252 9.8091C17.4173 9.81933 17.4063 9.82742 17.3947 9.83347C17.3945 9.83359 17.3942 9.8338 17.394 9.83391C17.3938 9.83407 17.3932 9.83419 17.3929 9.83435C17.3905 9.83556 17.3881 9.83697 17.3857 9.83797C17.3844 9.83849 17.3824 9.83857 17.3809 9.83897C17.3728 9.84172 17.3651 9.84397 17.3651 9.84397C17.3651 9.84397 17.3898 9.85163 17.3968 9.86147C17.4011 9.86756 17.403 9.87497 17.4037 9.88266C17.4047 9.88722 17.4052 9.89184 17.405 9.89629C17.4047 9.90338 17.403 9.91058 17.4005 9.9176C17.3983 9.92578 17.3952 9.93364 17.3899 9.93997C17.387 9.94341 17.3834 9.94628 17.3797 9.94885C17.3795 9.94899 17.3794 9.94921 17.3792 9.94935C17.379 9.9495 17.3786 9.94958 17.3784 9.94972C17.3718 9.95402 17.3643 9.9572 17.3568 9.95929C17.348 9.96173 17.33 9.95979 17.3294 9.95972C17.33 9.95972 17.3646 9.95966 17.3784 9.94972C17.3789 9.94945 17.3793 9.94913 17.3797 9.94885C17.3893 9.94114 17.3963 9.9298 17.4005 9.9176C17.4019 9.91269 17.4032 9.90772 17.4037 9.90279C17.4043 9.8963 17.4044 9.88939 17.4037 9.88266C17.4016 9.87252 17.3969 9.86267 17.3895 9.8561C17.3741 9.84235 17.3299 9.84068 17.3293 9.84066C17.3286 9.84069 17.2846 9.84237 17.2691 9.8561C17.2617 9.86267 17.257 9.87252 17.2549 9.88266C17.2542 9.88939 17.2544 9.8963 17.255 9.90279C17.2555 9.90772 17.2568 9.91269 17.2581 9.9176C17.2623 9.9298 17.2693 9.94114 17.279 9.94885C17.2794 9.94913 17.2798 9.94945 17.2802 9.94972C17.294 9.95966 17.3286 9.95972 17.3293 9.95972C17.3287 9.95979 17.3106 9.96173 17.3019 9.95929C17.2944 9.9572 17.2869 9.95402 17.2802 9.94972C17.28 9.94958 17.2797 9.9495 17.2795 9.94935C17.2793 9.94921 17.2792 9.94899 17.279 9.94885C17.2752 9.94628 17.2717 9.94341 17.2688 9.93997C17.2635 9.93364 17.2603 9.92578 17.2581 9.9176C17.2557 9.91058 17.2539 9.90338 17.2536 9.89629C17.2534 9.89184 17.254 9.88722 17.2549 9.88266C17.2557 9.87497 17.2576 9.86756 17.2619 9.86147C17.2689 9.85163 17.2936 9.84397 17.2936 9.84397C17.2936 9.84397 17.2859 9.84172 17.2777 9.83897C17.2763 9.83857 17.2743 9.83849 17.2731 9.83797C17.2706 9.83696 17.2681 9.83551 17.2657 9.83429C17.2654 9.83415 17.2649 9.83405 17.2647 9.83391C17.2645 9.83382 17.2643 9.83363 17.2641 9.83354C17.2525 9.82748 17.2414 9.81937 17.2334 9.8091C17.2315 9.80725 17.2274 9.8036 17.2274 9.8036C17.2274 9.8036 17.2084 9.80401 17.1999 9.80772C17.1811 9.81596 17.1634 9.82936 17.1517 9.84629C17.1399 9.86336 17.129 9.88505 17.1324 9.90554C17.1357 9.92592 17.1532 9.94256 17.1696 9.95516C17.1861 9.96785 17.2274 9.9786 17.2274 9.9786C17.2274 9.9786 17.226 9.99252 17.2219 9.99785C17.2084 10.0157 17.1862 10.0271 17.1646 10.0332C17.1311 10.0427 17.0936 10.0385 17.0602 10.0333C17.0265 10.0281 17.0012 10.0187 16.9627 10.0023C16.9496 9.99671 16.9381 9.96754 16.9381 9.96754C16.9381 9.96754 16.9658 9.94613 16.9684 9.93035C16.971 9.91486 16.9627 9.89773 16.9519 9.88629C16.9419 9.87565 16.9266 9.86811 16.912 9.86835C16.8921 9.86867 16.8686 9.87751 16.8582 9.89454C16.8489 9.90985 16.852 9.93205 16.8596 9.94829C16.8663 9.96273 16.8954 9.97997 16.8954 9.97997C16.888 10.0103 16.8776 10.0257 16.8665 10.0378C16.8261 10.0608 16.7857 10.0738 16.7452 10.086L16.7219 10.0708L16.7053 10.042C16.7053 10.042 16.7292 10.0089 16.7301 9.9896C16.7309 9.97349 16.7225 9.95755 16.7136 9.94416C16.7059 9.93282 16.6959 9.92175 16.6832 9.9166C16.6713 9.91174 16.6571 9.91184 16.6447 9.91522C16.6258 9.92039 16.5951 9.94691 16.5951 9.94691C16.5951 9.94691 16.5647 9.9226 16.5537 9.90691C16.5428 9.89126 16.5304 9.8546 16.5304 9.8546L16.5226 9.85047C16.503 9.84724 16.4759 9.82579 16.4759 9.82579L16.4475 9.83179C16.4475 9.83179 16.4212 9.84583 16.4209 9.85835C16.4205 9.87563 16.4448 9.88342 16.4557 9.89679C16.4652 9.90825 16.4739 9.92026 16.4822 9.93254C16.4901 9.94411 16.5004 9.95477 16.5042 9.96822C16.5084 9.98291 16.498 10 16.5042 10.014C16.5121 10.0315 16.5284 10.0486 16.5472 10.0525C16.564 10.0559 16.5958 10.036 16.5958 10.036L16.5949 10.1632L16.6608 10.2228L16.7231 10.3528L16.6984 10.3857L16.7057 10.4497C16.7536 10.3884 16.8369 10.3615 16.9117 10.34C17.0124 10.311 17.1969 10.309 17.2829 10.3098C17.3116 10.3101 17.3294 10.3107 17.3294 10.3107C17.3294 10.3107 17.6129 10.3014 17.747 10.34C17.8218 10.3615 17.9051 10.3884 17.953 10.4497L17.9603 10.3857L17.9356 10.3528L17.9979 10.2228L18.0638 10.1632L18.0629 10.036C18.0629 10.036 18.0947 10.0559 18.1114 10.0525C18.1303 10.0486 18.1466 10.0315 18.1544 10.014C18.1607 10 18.1503 9.98291 18.1544 9.96822C18.1582 9.95477 18.1686 9.94411 18.1764 9.93254C18.1847 9.92026 18.1936 9.90825 18.203 9.89679C18.214 9.88342 18.2382 9.87563 18.2377 9.85835C18.2374 9.84583 18.2112 9.83179 18.2112 9.83179L18.1827 9.82579L18.1827 9.82578ZM15.6154 9.91065C15.6221 9.91693 15.6353 9.92887 15.6461 9.93508C15.6466 9.93535 15.6472 9.93558 15.6477 9.93583C15.6509 9.93752 15.6554 9.93904 15.6597 9.94052C15.6784 9.94559 15.7105 9.94223 15.7112 9.94215H15.7113H15.7114C15.7122 9.94223 15.7443 9.94558 15.7629 9.94052C15.7673 9.93906 15.7717 9.93757 15.7749 9.9359C15.7755 9.9356 15.7762 9.93533 15.7767 9.93502C15.7876 9.92877 15.8006 9.91691 15.8072 9.91065C15.8106 9.90635 15.8134 9.90174 15.8156 9.89683C15.823 9.8798 15.8226 9.85772 15.8142 9.84115C15.8044 9.82165 15.7811 9.81237 15.7625 9.80096C15.7465 9.79114 15.7119 9.77712 15.7113 9.7769C15.7107 9.77716 15.6763 9.79115 15.6603 9.80096C15.6416 9.81237 15.6183 9.82165 15.6084 9.84115C15.6001 9.85772 15.5997 9.8798 15.6071 9.89683C15.6093 9.90174 15.6121 9.90635 15.6154 9.91065H15.6154Z" fill="#CE9D09"/>
<path d="M16.5647 9.97331C16.5647 9.97331 16.5444 9.9551 16.533 9.94772C16.509 9.93219 16.4833 9.91909 16.4566 9.90887C16.4207 9.89512 16.3827 9.88783 16.3452 9.87909C16.3024 9.86908 16.2594 9.859 16.2158 9.85319C16.1647 9.8464 16.1131 9.84335 16.0617 9.84283C16.0066 9.84228 15.8966 9.8506 15.8966 9.8506C15.8966 9.8506 15.7867 9.84228 15.7315 9.84283C15.68 9.84335 15.6285 9.8464 15.5774 9.85319C15.5338 9.859 15.4908 9.86908 15.4479 9.87909C15.4105 9.88783 15.3725 9.89512 15.3366 9.90887C15.3099 9.91909 15.2842 9.93219 15.2602 9.94772C15.2488 9.9551 15.2284 9.97331 15.2284 9.97331M16.5977 9.95032C16.6349 9.95142 16.6484 9.97021 16.6582 9.99176M16.5647 9.92733C16.5276 9.92843 16.5141 9.94722 16.5042 9.96877M17.7725 9.97738L17.7184 9.97133M16.8862 9.97738L16.9402 9.97133M17.4266 9.97654C17.4082 9.97384 17.3779 9.9496 17.3779 9.9496M17.2321 9.97654C17.2504 9.97384 17.2807 9.9496 17.2807 9.9496M16.6282 9.70008C16.6282 9.70008 16.595 9.66636 16.5731 9.6622C16.559 9.65951 16.5428 9.66358 16.5311 9.67191C16.5159 9.6827 16.5057 9.7011 16.5013 9.71917C16.4973 9.73536 16.499 9.75353 16.5052 9.76903C16.5104 9.78215 16.5186 9.79679 16.5317 9.80205C16.5624 9.81437 16.6302 9.78909 16.6302 9.78909L16.6282 9.70008ZM15.1016 9.97331L15.0996 10.0623C15.0996 10.0623 15.1673 10.0876 15.1981 10.0753C15.2112 10.07 15.2194 10.0554 15.2246 10.0423C15.2308 10.0268 15.2325 10.0086 15.2285 9.99241C15.224 9.97433 15.2139 9.95593 15.1987 9.94514C15.187 9.93681 15.1708 9.93266 15.1566 9.93543C15.1346 9.93976 15.1016 9.97331 15.1016 9.97331V9.97331ZM18.1827 9.82578C18.1827 9.82578 18.1558 9.84721 18.1361 9.85047L18.1284 9.8546C18.1284 9.8546 18.1159 9.89126 18.1049 9.90691C18.0939 9.9226 18.0635 9.94691 18.0635 9.94691C18.0635 9.94691 18.0329 9.92039 18.014 9.91522C18.0016 9.91183 17.9873 9.91174 17.9754 9.9166C17.9628 9.92175 17.9527 9.93282 17.9451 9.94416C17.9361 9.95755 17.9278 9.97349 17.9285 9.9896C17.9295 10.0089 17.9534 10.042 17.9534 10.042L17.9369 10.0708L17.9134 10.086C17.873 10.0738 17.8326 10.0608 17.7922 10.0378C17.7811 10.0257 17.7707 10.0103 17.7632 9.97997C17.7632 9.97997 17.7923 9.96273 17.799 9.94828C17.8066 9.93205 17.8097 9.90985 17.8004 9.89453C17.7901 9.87751 17.7667 9.86867 17.7467 9.86835C17.7321 9.86811 17.7167 9.87565 17.7067 9.88628C17.696 9.89772 17.6877 9.91486 17.6902 9.93035C17.6928 9.94613 17.7205 9.96753 17.7205 9.96753C17.7205 9.96753 17.709 9.9967 17.696 10.0023C17.6575 10.0187 17.6321 10.0281 17.5984 10.0333C17.5651 10.0385 17.5276 10.0427 17.4941 10.0332C17.4725 10.0271 17.4503 10.0157 17.4367 9.99785C17.4327 9.99252 17.4312 9.9786 17.4312 9.9786C17.4312 9.9786 17.4726 9.96785 17.4891 9.95516C17.5055 9.94256 17.5229 9.92592 17.5263 9.90553C17.5297 9.88505 17.5188 9.86336 17.507 9.84629C17.4953 9.82936 17.4777 9.81596 17.4588 9.80772C17.4503 9.804 17.4312 9.8036 17.4312 9.8036C17.4312 9.8036 17.4272 9.80725 17.4252 9.8091C17.4173 9.81933 17.4063 9.82742 17.3947 9.83347C17.3945 9.83359 17.3942 9.8338 17.394 9.83391C17.3938 9.83407 17.3932 9.83419 17.3929 9.83435C17.3905 9.83556 17.3881 9.83697 17.3857 9.83797C17.3844 9.83849 17.3824 9.83857 17.3809 9.83897C17.3728 9.84172 17.3651 9.84397 17.3651 9.84397C17.3651 9.84397 17.3898 9.85163 17.3968 9.86147C17.4011 9.86756 17.403 9.87497 17.4037 9.88266C17.4047 9.88722 17.4052 9.89184 17.405 9.89629C17.4047 9.90338 17.403 9.91058 17.4005 9.9176C17.3983 9.92578 17.3952 9.93364 17.3899 9.93997C17.387 9.94341 17.3834 9.94628 17.3797 9.94885C17.3795 9.94899 17.3794 9.94921 17.3792 9.94935C17.379 9.9495 17.3786 9.94958 17.3784 9.94972C17.3718 9.95402 17.3643 9.9572 17.3568 9.95929C17.348 9.96173 17.33 9.95979 17.3294 9.95972C17.33 9.95972 17.3646 9.95966 17.3784 9.94972C17.3789 9.94945 17.3793 9.94913 17.3797 9.94885C17.3893 9.94114 17.3963 9.9298 17.4005 9.9176C17.4019 9.91269 17.4032 9.90772 17.4037 9.90279C17.4043 9.8963 17.4044 9.88939 17.4037 9.88266C17.4016 9.87252 17.3969 9.86267 17.3895 9.8561C17.3741 9.84235 17.3299 9.84068 17.3293 9.84066C17.3286 9.84069 17.2846 9.84237 17.2691 9.8561C17.2617 9.86267 17.257 9.87252 17.2549 9.88266C17.2542 9.88939 17.2544 9.8963 17.255 9.90279C17.2555 9.90772 17.2568 9.91269 17.2581 9.9176C17.2623 9.9298 17.2693 9.94114 17.279 9.94885C17.2794 9.94913 17.2798 9.94945 17.2802 9.94972C17.294 9.95966 17.3286 9.95972 17.3293 9.95972C17.3287 9.95979 17.3106 9.96173 17.3019 9.95929C17.2944 9.9572 17.2869 9.95402 17.2802 9.94972C17.28 9.94958 17.2797 9.9495 17.2795 9.94935C17.2793 9.94921 17.2792 9.94899 17.279 9.94885C17.2752 9.94628 17.2717 9.94341 17.2688 9.93997C17.2635 9.93364 17.2603 9.92578 17.2581 9.9176C17.2557 9.91058 17.2539 9.90338 17.2536 9.89629C17.2534 9.89184 17.254 9.88722 17.2549 9.88266C17.2557 9.87497 17.2576 9.86756 17.2619 9.86147C17.2689 9.85163 17.2936 9.84397 17.2936 9.84397C17.2936 9.84397 17.2859 9.84172 17.2777 9.83897C17.2763 9.83857 17.2743 9.83849 17.2731 9.83797C17.2706 9.83696 17.2681 9.83551 17.2657 9.83429C17.2654 9.83415 17.2649 9.83405 17.2647 9.83391C17.2645 9.83382 17.2643 9.83363 17.2641 9.83354C17.2525 9.82748 17.2414 9.81937 17.2334 9.8091C17.2315 9.80725 17.2274 9.8036 17.2274 9.8036C17.2274 9.8036 17.2084 9.80401 17.1999 9.80772C17.1811 9.81596 17.1634 9.82936 17.1517 9.84629C17.1399 9.86336 17.129 9.88505 17.1324 9.90554C17.1357 9.92592 17.1532 9.94256 17.1696 9.95516C17.1861 9.96785 17.2274 9.9786 17.2274 9.9786C17.2274 9.9786 17.226 9.99252 17.2219 9.99785C17.2084 10.0157 17.1862 10.0271 17.1646 10.0332C17.1311 10.0427 17.0936 10.0385 17.0602 10.0333C17.0265 10.0281 17.0012 10.0187 16.9627 10.0023C16.9496 9.99671 16.9381 9.96754 16.9381 9.96754C16.9381 9.96754 16.9658 9.94613 16.9684 9.93035C16.971 9.91486 16.9627 9.89773 16.9519 9.88629C16.9419 9.87565 16.9266 9.86811 16.912 9.86835C16.8921 9.86867 16.8686 9.87751 16.8582 9.89454C16.8489 9.90985 16.852 9.93205 16.8596 9.94829C16.8663 9.96273 16.8954 9.97997 16.8954 9.97997C16.888 10.0103 16.8776 10.0257 16.8665 10.0378C16.8261 10.0608 16.7857 10.0738 16.7452 10.086L16.7219 10.0708L16.7053 10.042C16.7053 10.042 16.7292 10.0089 16.7301 9.9896C16.7309 9.97349 16.7225 9.95755 16.7136 9.94416C16.7059 9.93282 16.6959 9.92175 16.6832 9.9166C16.6713 9.91174 16.6571 9.91184 16.6447 9.91522C16.6258 9.92039 16.5951 9.94691 16.5951 9.94691C16.5951 9.94691 16.5647 9.9226 16.5537 9.90691C16.5428 9.89126 16.5304 9.8546 16.5304 9.8546L16.5226 9.85047C16.503 9.84724 16.4759 9.82579 16.4759 9.82579L16.4475 9.83179C16.4475 9.83179 16.4212 9.84583 16.4209 9.85835C16.4205 9.87563 16.4448 9.88342 16.4557 9.89679C16.4652 9.90825 16.4739 9.92026 16.4822 9.93254C16.4901 9.94411 16.5004 9.95477 16.5042 9.96822C16.5084 9.98291 16.498 10 16.5042 10.014C16.5121 10.0315 16.5284 10.0486 16.5472 10.0525C16.564 10.0559 16.5958 10.036 16.5958 10.036L16.5949 10.1632L16.6608 10.2228L16.7231 10.3528L16.6984 10.3857L16.7057 10.4497C16.7536 10.3884 16.8369 10.3615 16.9117 10.34C17.0124 10.311 17.1969 10.309 17.2829 10.3098C17.3116 10.3101 17.3294 10.3107 17.3294 10.3107C17.3294 10.3107 17.6129 10.3014 17.747 10.34C17.8218 10.3615 17.9051 10.3884 17.953 10.4497L17.9603 10.3857L17.9356 10.3528L17.9979 10.2228L18.0638 10.1632L18.0629 10.036C18.0629 10.036 18.0947 10.0559 18.1114 10.0525C18.1303 10.0486 18.1466 10.0315 18.1544 10.014C18.1607 10 18.1503 9.98291 18.1544 9.96822C18.1582 9.95477 18.1686 9.94411 18.1764 9.93254C18.1847 9.92026 18.1936 9.90825 18.203 9.89679C18.214 9.88342 18.2382 9.87563 18.2377 9.85835C18.2374 9.84583 18.2112 9.83179 18.2112 9.83179L18.1827 9.82579L18.1827 9.82578ZM15.6154 9.91065C15.6221 9.91693 15.6353 9.92887 15.6461 9.93508C15.6466 9.93535 15.6472 9.93558 15.6477 9.93583C15.6509 9.93752 15.6554 9.93904 15.6597 9.94052C15.6784 9.94559 15.7105 9.94223 15.7112 9.94215H15.7113H15.7114C15.7122 9.94223 15.7443 9.94558 15.7629 9.94052C15.7673 9.93906 15.7717 9.93757 15.7749 9.9359C15.7755 9.9356 15.7762 9.93533 15.7767 9.93502C15.7876 9.92877 15.8006 9.91691 15.8072 9.91065C15.8106 9.90635 15.8134 9.90174 15.8156 9.89683C15.823 9.8798 15.8226 9.85772 15.8142 9.84115C15.8044 9.82165 15.7811 9.81237 15.7625 9.80096C15.7465 9.79114 15.7119 9.77712 15.7113 9.7769C15.7107 9.77716 15.6763 9.79115 15.6602 9.80096C15.6416 9.81237 15.6183 9.82165 15.6084 9.84115C15.6001 9.85772 15.5997 9.8798 15.6071 9.89683C15.6093 9.90174 15.6121 9.90635 15.6154 9.91065H15.6154Z" stroke="black" stroke-width="0.05" stroke-linecap="round" stroke-linejoin="round"/>
<path d="M16.677 9.3122C16.677 9.3122 16.6073 9.27981 16.5708 9.26817C16.5041 9.24693 16.4349 9.23479 16.3662 9.22156C16.2864 9.20618 16.2045 9.20203 16.1254 9.18352C16.1005 9.17769 16.0772 9.1658 16.0522 9.16063C16.0176 9.1535 15.9814 9.14224 15.9469 9.14964C15.9279 9.15372 15.8968 9.17894 15.8968 9.17894C15.8968 9.17894 15.8657 9.15373 15.8468 9.14964C15.8123 9.14219 15.7761 9.1535 15.7415 9.16063C15.7164 9.1658 15.6932 9.17769 15.6682 9.18352C15.5891 9.20203 15.5073 9.20618 15.4275 9.22156C15.3588 9.23479 15.2895 9.24693 15.2229 9.26817C15.1864 9.27981 15.1167 9.3122 15.1167 9.3122M16.3804 9.02342C16.3804 9.02342 16.4147 9.00535 16.427 8.99105C16.4353 8.98156 16.4431 8.96994 16.4439 8.95742C16.4449 8.94285 16.44 8.92636 16.4297 8.91598C16.4197 8.9059 16.4037 8.90178 16.3895 8.90173C16.3776 8.9017 16.3649 8.90565 16.3559 8.91336C16.3454 8.92225 16.3381 8.936 16.3364 8.94961C16.335 8.96122 16.3397 8.97328 16.3452 8.98361C16.3535 8.99927 16.3804 9.02342 16.3804 9.02342ZM15.7098 9.3122C15.7098 9.3122 15.7367 9.28804 15.745 9.27238C15.7505 9.26206 15.7552 9.25 15.7538 9.23838C15.7521 9.22477 15.7448 9.21103 15.7343 9.20213C15.7253 9.19443 15.7126 9.19047 15.7007 9.19051C15.6865 9.19056 15.6706 9.19467 15.6606 9.20476C15.6503 9.21514 15.6454 9.23162 15.6463 9.2462C15.6472 9.25872 15.6549 9.27034 15.6632 9.27982C15.6755 9.29412 15.7098 9.3122 15.7098 9.3122ZM15.4469 9.42745L15.3705 9.52713C15.3705 9.52713 15.37 9.55343 15.3757 9.5647C15.3836 9.58021 15.4132 9.60095 15.4132 9.60095L15.4187 9.73782L15.3463 9.86326L15.34 9.86457L15.3867 9.88926C15.3888 9.88962 15.391 9.88997 15.393 9.88982C15.421 9.88763 15.4382 9.85617 15.4626 9.8422C15.4936 9.82441 15.5267 9.81027 15.5597 9.79645C15.6052 9.77734 15.6516 9.75975 15.6988 9.74513C15.7583 9.7267 15.8184 9.70827 15.8801 9.69938C15.9268 9.69266 15.9742 9.68949 16.0215 9.69013C16.0373 9.69035 16.053 9.69095 16.0687 9.69201C16.1108 9.69486 16.1927 9.7138 16.1933 9.71395C16.1939 9.71382 16.276 9.69486 16.318 9.69201C16.3808 9.68776 16.4444 9.69041 16.5067 9.69938C16.5683 9.70827 16.6284 9.7267 16.688 9.74513C16.7352 9.75975 16.7815 9.77734 16.8271 9.79645C16.8601 9.81027 16.8931 9.82441 16.9242 9.8422C16.9485 9.85617 16.9658 9.88763 16.9938 9.88982C16.9958 9.88998 16.9979 9.88963 17.0002 9.88926L17.0468 9.86457L17.0405 9.86326L16.9681 9.73782L16.9735 9.60095C16.9735 9.60095 17.0032 9.58021 17.0111 9.5647C17.0168 9.55343 17.0162 9.52713 17.0162 9.52713L16.9398 9.42745C16.9398 9.42745 16.9013 9.4659 16.8764 9.47407C16.8633 9.47837 16.8482 9.47817 16.835 9.47407C16.819 9.4691 16.8066 9.45608 16.7935 9.44557C16.764 9.42183 16.7345 9.39731 16.7107 9.36788C16.697 9.35103 16.677 9.3122 16.677 9.3122C16.677 9.3122 16.5944 9.3771 16.5449 9.38988C16.4964 9.40242 16.4428 9.40016 16.3947 9.38601C16.3827 9.38246 16.3625 9.36638 16.3625 9.36638C16.306 9.33041 16.2496 9.31072 16.1934 9.31613C16.1373 9.31072 16.0808 9.33041 16.0243 9.36638C16.0243 9.36638 16.0041 9.38246 15.992 9.38601C15.944 9.40016 15.8903 9.40242 15.8418 9.38988C15.7924 9.3771 15.7098 9.3122 15.7098 9.3122C15.7098 9.3122 15.6897 9.35103 15.6761 9.36788C15.6523 9.39731 15.6227 9.42183 15.5932 9.44557C15.5802 9.45608 15.5678 9.4691 15.5518 9.47407C15.5386 9.47817 15.5235 9.47837 15.5103 9.47407C15.4854 9.4659 15.4469 9.42745 15.4469 9.42745Z" fill="#CE9D09"/>
<path d="M16.677 9.3122C16.677 9.3122 16.6073 9.27981 16.5708 9.26817C16.5041 9.24693 16.4349 9.23479 16.3662 9.22156C16.2864 9.20618 16.2045 9.20203 16.1254 9.18352C16.1005 9.17769 16.0772 9.1658 16.0522 9.16063C16.0176 9.1535 15.9814 9.14224 15.9469 9.14964C15.9279 9.15372 15.8968 9.17894 15.8968 9.17894C15.8968 9.17894 15.8657 9.15373 15.8468 9.14964C15.8123 9.14219 15.7761 9.1535 15.7415 9.16063C15.7164 9.1658 15.6932 9.17769 15.6682 9.18352C15.5891 9.20203 15.5073 9.20618 15.4275 9.22156C15.3588 9.23479 15.2895 9.24693 15.2229 9.26817C15.1864 9.27981 15.1167 9.3122 15.1167 9.3122M16.3804 9.02342C16.3804 9.02342 16.4147 9.00535 16.427 8.99105C16.4353 8.98156 16.4431 8.96994 16.4439 8.95742C16.4449 8.94285 16.44 8.92636 16.4297 8.91598C16.4197 8.9059 16.4037 8.90178 16.3895 8.90173C16.3776 8.9017 16.3649 8.90565 16.3559 8.91336C16.3454 8.92225 16.3381 8.936 16.3364 8.94961C16.335 8.96122 16.3397 8.97328 16.3452 8.98361C16.3535 8.99927 16.3804 9.02342 16.3804 9.02342V9.02342ZM15.7098 9.3122C15.7098 9.3122 15.7367 9.28804 15.745 9.27238C15.7505 9.26206 15.7552 9.25 15.7538 9.23838C15.7521 9.22477 15.7448 9.21103 15.7343 9.20213C15.7253 9.19443 15.7126 9.19047 15.7007 9.19051C15.6865 9.19056 15.6706 9.19467 15.6606 9.20476C15.6503 9.21514 15.6454 9.23162 15.6463 9.2462C15.6472 9.25872 15.6549 9.27034 15.6632 9.27982C15.6755 9.29412 15.7098 9.3122 15.7098 9.3122ZM15.4469 9.42745L15.3705 9.52713C15.3705 9.52713 15.37 9.55343 15.3757 9.5647C15.3836 9.58021 15.4132 9.60095 15.4132 9.60095L15.4187 9.73782L15.3463 9.86326L15.34 9.86457L15.3867 9.88926C15.3888 9.88962 15.391 9.88997 15.393 9.88982C15.421 9.88763 15.4382 9.85617 15.4626 9.8422C15.4936 9.82441 15.5267 9.81027 15.5597 9.79645C15.6052 9.77734 15.6516 9.75975 15.6988 9.74513C15.7583 9.7267 15.8184 9.70827 15.8801 9.69938C15.9268 9.69266 15.9742 9.68949 16.0215 9.69013C16.0373 9.69035 16.053 9.69095 16.0687 9.69201C16.1108 9.69486 16.1927 9.7138 16.1933 9.71395C16.1939 9.71382 16.276 9.69486 16.318 9.69201C16.3808 9.68776 16.4444 9.69041 16.5067 9.69938C16.5683 9.70827 16.6284 9.7267 16.688 9.74513C16.7352 9.75975 16.7815 9.77734 16.8271 9.79645C16.8601 9.81027 16.8931 9.82441 16.9242 9.8422C16.9485 9.85617 16.9658 9.88763 16.9938 9.88982C16.9958 9.88998 16.9979 9.88963 17.0002 9.88926L17.0468 9.86457L17.0405 9.86326L16.9681 9.73782L16.9735 9.60095C16.9735 9.60095 17.0032 9.58021 17.0111 9.5647C17.0168 9.55343 17.0162 9.52713 17.0162 9.52713L16.9398 9.42745C16.9398 9.42745 16.9013 9.4659 16.8764 9.47407C16.8633 9.47837 16.8482 9.47817 16.835 9.47407C16.819 9.4691 16.8066 9.45608 16.7935 9.44557C16.764 9.42183 16.7345 9.39731 16.7107 9.36788C16.697 9.35103 16.677 9.3122 16.677 9.3122C16.677 9.3122 16.5944 9.3771 16.5449 9.38988C16.4964 9.40242 16.4428 9.40016 16.3947 9.38601C16.3827 9.38246 16.3625 9.36638 16.3625 9.36638C16.306 9.33041 16.2496 9.31072 16.1934 9.31613C16.1373 9.31072 16.0808 9.33041 16.0243 9.36638C16.0243 9.36638 16.0041 9.38246 15.992 9.38601C15.944 9.40016 15.8903 9.40242 15.8418 9.38988C15.7924 9.3771 15.7098 9.3122 15.7098 9.3122C15.7098 9.3122 15.6897 9.35103 15.6761 9.36788C15.6523 9.39731 15.6227 9.42183 15.5932 9.44557C15.5802 9.45608 15.5678 9.4691 15.5518 9.47407C15.5386 9.47817 15.5235 9.47837 15.5103 9.47407C15.4854 9.4659 15.4469 9.42745 15.4469 9.42745Z" stroke="black" stroke-width="0.05" stroke-linecap="round" stroke-linejoin="round"/>
<path d="M16.7096 9.0987C16.7096 9.0987 16.7125 9.0622 16.7086 9.04458C16.705 9.02845 16.6977 9.01297 16.6885 8.99926C16.6788 8.98489 16.6524 8.96188 16.6524 8.96188M16.6432 9.13909C16.6432 9.13909 16.6649 9.13988 16.6742 9.13522C16.6909 9.1269 16.7131 9.09509 16.7131 9.09509C16.7131 9.09509 16.7558 9.12458 16.7791 9.12097C16.7906 9.11919 16.8002 9.10891 16.8063 9.09897C16.8128 9.08844 16.8169 9.07477 16.8141 9.06272C16.8119 9.05312 16.8035 9.04576 16.796 9.03941C16.7814 9.02706 16.7551 9.02877 16.7455 9.01222C16.7379 8.99913 16.7426 8.98143 16.7467 8.96691C16.7555 8.9366 16.7772 8.91156 16.7947 8.88534C16.8058 8.8687 16.8286 8.85729 16.8309 8.83741C16.8322 8.82666 16.818 8.80759 16.818 8.80759C16.818 8.80759 16.7846 8.80684 16.7688 8.81153C16.7427 8.8193 16.7156 8.8307 16.6971 8.85066C16.6817 8.86724 16.6772 8.8914 16.6691 8.91253C16.6629 8.92859 16.6536 8.96172 16.6536 8.96172C16.6536 8.96172 16.6149 8.96164 16.5979 8.96947C16.5754 8.97982 16.5524 8.99608 16.5422 9.01866C16.5342 9.03636 16.5353 9.0588 16.5422 9.07697C16.5491 9.09527 16.5645 9.11048 16.5811 9.12097C16.5993 9.13254 16.6432 9.13909 16.6432 9.13909V9.13909ZM15.2075 8.92148C15.2075 8.92148 15.181 8.94449 15.1713 8.95887C15.1621 8.97257 15.1548 8.98805 15.1513 9.00419C15.1474 9.0218 15.1502 9.0583 15.1502 9.0583M15.0418 8.7672C15.0418 8.7672 15.0276 8.78626 15.0289 8.79701C15.0313 8.81689 15.054 8.8283 15.0651 8.84495C15.0827 8.87116 15.1044 8.8962 15.1131 8.92651C15.1173 8.94103 15.1219 8.95874 15.1143 8.97182C15.1048 8.98837 15.0784 8.98666 15.0638 8.99901C15.0563 9.00536 15.0479 9.01273 15.0457 9.02232C15.0429 9.03437 15.047 9.04804 15.0535 9.05857C15.0596 9.06851 15.0692 9.07879 15.0807 9.08057C15.1041 9.08418 15.1467 9.0547 15.1467 9.0547C15.1467 9.0547 15.1689 9.0865 15.1856 9.09482C15.1949 9.09948 15.2166 9.0987 15.2166 9.0987C15.2166 9.0987 15.2606 9.09214 15.2788 9.08057C15.2953 9.07008 15.3107 9.05488 15.3176 9.03657C15.3245 9.0184 15.3256 8.99597 15.3176 8.97826C15.3075 8.95568 15.2845 8.93942 15.262 8.92907C15.2449 8.92124 15.2063 8.92132 15.2063 8.92132C15.2063 8.92132 15.1969 8.8882 15.1908 8.87213C15.1827 8.851 15.1781 8.82685 15.1627 8.81026C15.1442 8.7903 15.1171 8.7789 15.091 8.77113C15.0752 8.76644 15.0418 8.7672 15.0418 8.7672V8.7672ZM16.0755 9.01311L16.1288 8.99751L16.182 9.01311M16.0893 9.14164C16.0893 9.14164 16.0478 9.10381 16.0401 9.07819C16.0367 9.067 16.0372 9.05355 16.0427 9.04323C16.0501 9.02911 16.0802 9.01345 16.0802 9.01345C16.0802 9.01345 16.0349 8.99141 16.0232 8.97071C16.0167 8.959 16.0158 8.94355 16.0194 8.93057C16.025 8.91 16.0405 8.89237 16.0569 8.87878C16.0773 8.86193 16.1288 8.84511 16.1288 8.84511C16.1288 8.84511 16.1801 8.86188 16.2006 8.87878C16.217 8.89235 16.2326 8.91 16.2382 8.93057C16.2417 8.94355 16.2409 8.959 16.2343 8.97071C16.2226 8.99141 16.1773 9.01345 16.1773 9.01345C16.1773 9.01345 16.2074 9.02911 16.2148 9.04323C16.2203 9.05355 16.2208 9.067 16.2174 9.07819C16.2097 9.10381 16.1682 9.14164 16.1682 9.14164L16.1288 9.14423L16.0893 9.14164ZM16.2206 8.84103C16.2206 8.84103 16.3066 8.87768 16.3357 8.91211C16.3438 8.92172 16.3508 8.93452 16.3499 8.94707C16.3471 8.99163 16.2839 9.06361 16.2839 9.06361L16.1564 9.0106H16.0735L15.946 9.06361C15.946 9.06361 15.8828 8.99163 15.88 8.94707C15.8791 8.93452 15.8861 8.92172 15.8942 8.91211C15.9233 8.87768 16.0093 8.84103 16.0093 8.84103" fill="#CE9D09"/>
<path d="M16.7096 9.0987C16.7096 9.0987 16.7125 9.0622 16.7086 9.04458C16.705 9.02845 16.6977 9.01297 16.6885 8.99926C16.6788 8.98489 16.6524 8.96188 16.6524 8.96188M15.2075 8.92148C15.2075 8.92148 15.181 8.94449 15.1713 8.95887C15.1621 8.97257 15.1548 8.98805 15.1513 9.00419C15.1474 9.0218 15.1502 9.0583 15.1502 9.0583M16.0755 9.01311L16.1288 8.99751L16.182 9.01311M16.2206 8.84103C16.2206 8.84103 16.3066 8.87768 16.3357 8.91211C16.3438 8.92172 16.3508 8.93452 16.3499 8.94707C16.3471 8.99163 16.2839 9.06361 16.2839 9.06361L16.1564 9.0106H16.0735L15.946 9.06361C15.946 9.06361 15.8828 8.99163 15.88 8.94707C15.8791 8.93452 15.8861 8.92172 15.8942 8.91211C15.9233 8.87768 16.0093 8.84103 16.0093 8.84103M16.6432 9.13909C16.6432 9.13909 16.6649 9.13988 16.6742 9.13522C16.6909 9.1269 16.7131 9.09509 16.7131 9.09509C16.7131 9.09509 16.7558 9.12458 16.7791 9.12097C16.7906 9.11919 16.8002 9.10891 16.8063 9.09897C16.8128 9.08844 16.8169 9.07477 16.8141 9.06272C16.8119 9.05312 16.8035 9.04576 16.796 9.03941C16.7814 9.02706 16.7551 9.02877 16.7455 9.01222C16.7379 8.99913 16.7426 8.98143 16.7467 8.96691C16.7555 8.9366 16.7772 8.91156 16.7947 8.88534C16.8058 8.8687 16.8286 8.85729 16.8309 8.83741C16.8322 8.82666 16.818 8.80759 16.818 8.80759C16.818 8.80759 16.7846 8.80684 16.7688 8.81153C16.7427 8.8193 16.7156 8.8307 16.6971 8.85066C16.6817 8.86724 16.6772 8.8914 16.6691 8.91253C16.6629 8.92859 16.6536 8.96172 16.6536 8.96172C16.6536 8.96172 16.6149 8.96164 16.5979 8.96947C16.5754 8.97982 16.5524 8.99608 16.5422 9.01866C16.5342 9.03636 16.5353 9.0588 16.5422 9.07697C16.5491 9.09527 16.5645 9.11048 16.5811 9.12097C16.5993 9.13254 16.6432 9.13909 16.6432 9.13909V9.13909ZM15.0418 8.7672C15.0418 8.7672 15.0276 8.78626 15.0289 8.79701C15.0313 8.81689 15.054 8.8283 15.0651 8.84495C15.0827 8.87116 15.1044 8.8962 15.1131 8.92651C15.1173 8.94103 15.1219 8.95874 15.1143 8.97182C15.1048 8.98837 15.0784 8.98666 15.0638 8.99901C15.0563 9.00536 15.0479 9.01273 15.0457 9.02232C15.0429 9.03437 15.047 9.04804 15.0535 9.05857C15.0596 9.06851 15.0692 9.07879 15.0807 9.08057C15.1041 9.08418 15.1467 9.0547 15.1467 9.0547C15.1467 9.0547 15.1689 9.0865 15.1856 9.09482C15.1949 9.09948 15.2166 9.0987 15.2166 9.0987C15.2166 9.0987 15.2606 9.09214 15.2788 9.08057C15.2953 9.07008 15.3107 9.05488 15.3176 9.03657C15.3245 9.0184 15.3256 8.99597 15.3176 8.97826C15.3075 8.95568 15.2845 8.93942 15.262 8.92907C15.2449 8.92124 15.2063 8.92132 15.2063 8.92132C15.2063 8.92132 15.1969 8.8882 15.1908 8.87213C15.1827 8.851 15.1781 8.82685 15.1627 8.81026C15.1442 8.7903 15.1171 8.7789 15.091 8.77113C15.0752 8.76644 15.0418 8.7672 15.0418 8.7672V8.7672ZM16.0893 9.14164C16.0893 9.14164 16.0478 9.10381 16.0401 9.07819C16.0367 9.067 16.0372 9.05355 16.0427 9.04323C16.0501 9.02911 16.0802 9.01345 16.0802 9.01345C16.0802 9.01345 16.0349 8.99141 16.0232 8.97071C16.0167 8.959 16.0158 8.94355 16.0194 8.93057C16.025 8.91 16.0405 8.89237 16.0569 8.87878C16.0773 8.86193 16.1288 8.84511 16.1288 8.84511C16.1288 8.84511 16.1801 8.86188 16.2006 8.87878C16.217 8.89235 16.2326 8.91 16.2382 8.93057C16.2417 8.94355 16.2409 8.959 16.2343 8.97071C16.2226 8.99141 16.1773 9.01345 16.1773 9.01345C16.1773 9.01345 16.2074 9.02911 16.2148 9.04323C16.2203 9.05355 16.2208 9.067 16.2174 9.07819C16.2097 9.10381 16.1682 9.14164 16.1682 9.14164L16.1288 9.14423L16.0893 9.14164Z" stroke="black" stroke-width="0.05" stroke-linecap="round" stroke-linejoin="round"/>
<path d="M15.8038 8.28251L15.8554 8.24282L15.897 8.24372L15.8544 8.2428C15.8544 8.2428 15.8314 8.22714 15.8251 8.21534C15.819 8.20388 15.8161 8.1896 15.8187 8.17688C15.8223 8.15989 15.8321 8.14195 15.8471 8.1332C15.8614 8.12485 15.8967 8.13018 15.8967 8.13018C15.8967 8.13018 15.9319 8.1248 15.9463 8.1332C15.9613 8.14194 15.9711 8.15989 15.9747 8.17688C15.9773 8.1896 15.9744 8.20388 15.9682 8.21534C15.9619 8.22714 15.9389 8.2428 15.9389 8.2428L15.8964 8.24372L15.938 8.24282L15.9896 8.28251M16.3261 8.31495L16.3089 8.34474L16.3261 8.31495ZM16.5178 8.21671L16.4697 8.22299L16.5178 8.21671ZM16.5242 8.27934L16.4505 8.2832L16.5242 8.27934ZM16.4409 8.19522C16.4503 8.20121 16.4675 8.21352 16.4703 8.22488C16.4753 8.24491 16.466 8.27013 16.4502 8.28344C16.4349 8.29633 16.391 8.29304 16.391 8.29304M15.2282 8.508C15.2282 8.508 15.3005 8.48995 15.3367 8.48126C15.3884 8.46886 15.4397 8.45441 15.4921 8.44501C15.5513 8.43436 15.6112 8.42655 15.6713 8.42226C15.7463 8.41691 15.8967 8.4186 15.8967 8.4186C15.8967 8.4186 16.047 8.41691 16.1221 8.42226C16.1821 8.42655 16.242 8.43436 16.3013 8.44501C16.3537 8.45441 16.405 8.46886 16.4567 8.48126C16.4929 8.48995 16.5652 8.508 16.5652 8.508M15.4673 8.31495L15.4844 8.34474L15.4673 8.31495ZM15.2756 8.21671L15.3237 8.22299L15.2756 8.21671ZM15.2692 8.27934L15.3429 8.2832L15.2692 8.27934ZM15.3015 8.38609C15.3015 8.38609 15.3817 8.36569 15.4223 8.35725C15.4666 8.34803 15.511 8.33921 15.5559 8.33345C15.6076 8.32682 15.6596 8.32349 15.7116 8.3211C15.7732 8.31827 15.8967 8.31876 15.8967 8.31876C15.8967 8.31876 16.02 8.31827 16.0818 8.3211C16.1338 8.32349 16.1858 8.32682 16.2374 8.33345C16.2823 8.33921 16.3268 8.34803 16.3711 8.35725C16.4116 8.36569 16.4919 8.38609 16.4919 8.38609M15.4024 8.29304C15.4024 8.29304 15.3585 8.29633 15.3432 8.28344C15.3274 8.27013 15.3181 8.24491 15.3231 8.22488C15.327 8.20912 15.3586 8.19152 15.3586 8.19152M15.7627 8.66513C15.686 8.66976 15.609 8.67457 15.5335 8.68844C15.4548 8.70289 15.3768 8.72298 15.3017 8.75059C15.2306 8.77675 15.1554 8.89551 15.0963 8.84802C15.0836 8.83781 15.1011 8.81548 15.1073 8.8004C15.1192 8.77124 15.1356 8.74324 15.1567 8.71983C15.1722 8.70269 15.2078 8.70046 15.2117 8.67771C15.2145 8.66119 15.1894 8.65152 15.1842 8.6356C15.1775 8.61527 15.1744 8.59199 15.1805 8.5715C15.1885 8.54521 15.2223 8.53195 15.23 8.50558C15.2367 8.48266 15.2137 8.45545 15.2245 8.43416C15.2381 8.40728 15.297 8.41639 15.3014 8.38655C15.3035 8.37201 15.2769 8.36748 15.2721 8.35359C15.2687 8.34377 15.2741 8.33285 15.2739 8.32246C15.2737 8.30837 15.2764 8.29301 15.2703 8.28034C15.2648 8.26908 15.2466 8.26665 15.2428 8.25471C15.2392 8.24341 15.2417 8.22825 15.2501 8.21991C15.2568 8.21334 15.2734 8.22275 15.2776 8.21442C15.2861 8.19761 15.2613 8.18041 15.2538 8.16315C15.2448 8.14259 15.2333 8.12274 15.2282 8.10089C15.2241 8.08361 15.2092 8.05681 15.2245 8.04778C15.242 8.03744 15.2595 8.06851 15.2758 8.08074C15.2972 8.09689 15.3213 8.11157 15.3362 8.13385C15.347 8.14992 15.3409 8.17551 15.3551 8.18874C15.372 8.20462 15.4047 8.19188 15.4223 8.20709C15.4373 8.22017 15.4507 8.24262 15.4461 8.26203C15.4416 8.28058 15.3979 8.28007 15.4021 8.29865C15.4072 8.32074 15.4457 8.319 15.468 8.31514C15.481 8.31288 15.4902 8.30076 15.501 8.29316C15.5094 8.28726 15.5163 8.27888 15.5257 8.27485C15.5365 8.27023 15.5605 8.2689 15.5605 8.2689L15.5468 8.26569C15.5468 8.26569 15.5265 8.24952 15.5243 8.23777C15.5223 8.2267 15.5271 8.21388 15.5349 8.20572C15.5435 8.19657 15.5575 8.1919 15.5701 8.19199C15.5807 8.19206 15.5922 8.19623 15.5994 8.20389C15.6069 8.21174 15.6111 8.22381 15.61 8.23456C15.609 8.24396 15.6027 8.25299 15.5953 8.25883C15.5873 8.26514 15.566 8.26798 15.566 8.26798L15.5807 8.2721L15.62 8.32612L15.7899 8.31682C15.7899 8.31682 15.8108 8.29545 15.8067 8.2838C15.8023 8.27132 15.7907 8.26672 15.7705 8.26761C15.7155 8.27002 15.7043 8.22391 15.7064 8.19057C15.7081 8.16283 15.7415 8.14401 15.7672 8.13359C15.792 8.12356 15.8363 8.15659 15.8475 8.1323C15.8574 8.11101 15.8103 8.10017 15.8028 8.07792C15.7996 8.06829 15.7996 8.05657 15.8041 8.04749C15.8157 8.02431 15.8407 8.0089 15.8643 7.99828C15.8743 7.99381 15.8967 7.9931 15.8967 7.9931C15.8967 7.9931 15.919 7.99377 15.929 7.99828C15.9527 8.00888 15.9776 8.02431 15.9892 8.04749C15.9938 8.05657 15.9938 8.06829 15.9905 8.07792C15.9831 8.10017 15.936 8.11101 15.9459 8.1323C15.9571 8.15659 16.0013 8.12356 16.0262 8.13359C16.0519 8.14401 16.0853 8.16283 16.087 8.19057C16.0891 8.22391 16.0778 8.27002 16.0229 8.26761C16.0027 8.26672 15.9911 8.27132 15.9867 8.2838C15.9825 8.29545 16.0035 8.31682 16.0035 8.31682L16.1733 8.32612L16.2127 8.2721L16.2274 8.26798C16.2274 8.26798 16.2061 8.26514 16.1981 8.25883C16.1906 8.25299 16.1844 8.24396 16.1834 8.23456C16.1823 8.22381 16.1865 8.21174 16.1939 8.20389C16.2012 8.19623 16.2127 8.19206 16.2232 8.19199C16.2358 8.1919 16.2498 8.19657 16.2585 8.20572C16.2662 8.21388 16.271 8.2267 16.269 8.23777C16.2669 8.24952 16.2466 8.26569 16.2466 8.26569L16.2329 8.2689C16.2329 8.2689 16.2568 8.27023 16.2676 8.27485C16.2771 8.27888 16.284 8.28726 16.2924 8.29316C16.3032 8.30076 16.3123 8.31288 16.3253 8.31514C16.3476 8.319 16.3862 8.32074 16.3913 8.29865C16.3955 8.28007 16.3517 8.28058 16.3473 8.26203C16.3427 8.24262 16.356 8.22017 16.3711 8.20709C16.3887 8.19188 16.4214 8.20462 16.4383 8.18874C16.4524 8.17551 16.4464 8.14992 16.4572 8.13385C16.4721 8.11157 16.4962 8.09689 16.5176 8.08074C16.5338 8.06851 16.5514 8.03744 16.5689 8.04778C16.5841 8.05681 16.5693 8.08361 16.5652 8.10089C16.5601 8.12274 16.5486 8.14259 16.5396 8.16315C16.532 8.18041 16.5072 8.19761 16.5158 8.21442C16.52 8.22275 16.5366 8.21334 16.5432 8.21991C16.5517 8.22825 16.5541 8.24341 16.5506 8.25471C16.5468 8.26665 16.5286 8.26908 16.5231 8.28034C16.5169 8.29301 16.5196 8.30837 16.5194 8.32246C16.5193 8.33285 16.5247 8.34377 16.5213 8.35359C16.5164 8.36748 16.4898 8.37201 16.492 8.38655C16.4963 8.41639 16.5552 8.40728 16.5689 8.43416C16.5797 8.45545 16.5567 8.48266 16.5634 8.50558C16.5711 8.53195 16.6049 8.54521 16.6128 8.5715C16.619 8.59199 16.6158 8.61527 16.6092 8.6356C16.6039 8.65152 16.5789 8.66119 16.5817 8.67771C16.5856 8.70046 16.6212 8.70269 16.6366 8.71983C16.6577 8.74324 16.6741 8.77124 16.6861 8.8004C16.6922 8.81548 16.7098 8.83781 16.6971 8.84802C16.638 8.89551 16.5628 8.77675 16.4917 8.75059C16.4166 8.72298 16.3385 8.70289 16.2599 8.68844C16.1843 8.67457 16.1073 8.66976 16.0307 8.66513C15.9861 8.66244 15.8967 8.66254 15.8967 8.66254C15.8967 8.66254 15.8074 8.66243 15.7627 8.66513Z" fill="#CE9D09"/>
<path d="M15.8038 8.28251L15.8554 8.24282L15.897 8.24372L15.8544 8.2428C15.8544 8.2428 15.8314 8.22714 15.8251 8.21534C15.819 8.20388 15.8161 8.1896 15.8187 8.17688C15.8223 8.15989 15.8321 8.14195 15.8471 8.1332C15.8614 8.12485 15.8967 8.13018 15.8967 8.13018C15.8967 8.13018 15.9319 8.1248 15.9463 8.1332C15.9613 8.14194 15.9711 8.15989 15.9747 8.17688C15.9773 8.1896 15.9744 8.20388 15.9682 8.21534C15.9619 8.22714 15.9389 8.2428 15.9389 8.2428L15.8964 8.24372L15.938 8.24282L15.9896 8.28251M16.3261 8.31495L16.3089 8.34474M16.5178 8.21671L16.4697 8.22299M16.5242 8.27934L16.4505 8.2832M16.4409 8.19522C16.4503 8.20121 16.4675 8.21352 16.4703 8.22488C16.4753 8.24491 16.466 8.27013 16.4502 8.28344C16.4349 8.29633 16.391 8.29304 16.391 8.29304M15.2282 8.508C15.2282 8.508 15.3005 8.48995 15.3367 8.48126C15.3884 8.46886 15.4397 8.45441 15.4921 8.44501C15.5513 8.43436 15.6112 8.42655 15.6713 8.42226C15.7463 8.41691 15.8967 8.4186 15.8967 8.4186C15.8967 8.4186 16.047 8.41691 16.1221 8.42226C16.1821 8.42655 16.242 8.43436 16.3013 8.44501C16.3537 8.45441 16.405 8.46886 16.4567 8.48126C16.4929 8.48995 16.5652 8.508 16.5652 8.508M15.4673 8.31495L15.4844 8.34474M15.2756 8.21671L15.3237 8.22299M15.2692 8.27934L15.3429 8.2832M15.3015 8.38609C15.3015 8.38609 15.3817 8.36569 15.4223 8.35725C15.4666 8.34803 15.511 8.33921 15.5559 8.33345C15.6076 8.32682 15.6596 8.32349 15.7116 8.3211C15.7732 8.31827 15.8967 8.31876 15.8967 8.31876C15.8967 8.31876 16.02 8.31827 16.0818 8.3211C16.1338 8.32349 16.1858 8.32682 16.2374 8.33345C16.2823 8.33921 16.3268 8.34803 16.3711 8.35725C16.4116 8.36569 16.4919 8.38609 16.4919 8.38609M15.4024 8.29304C15.4024 8.29304 15.3585 8.29633 15.3432 8.28344C15.3274 8.27013 15.3181 8.24491 15.3231 8.22488C15.327 8.20912 15.3586 8.19152 15.3586 8.19152M15.7627 8.66513C15.686 8.66976 15.609 8.67457 15.5335 8.68844C15.4548 8.70289 15.3768 8.72298 15.3017 8.75059C15.2306 8.77675 15.1554 8.89551 15.0963 8.84802C15.0836 8.83781 15.1011 8.81548 15.1073 8.8004C15.1192 8.77124 15.1356 8.74324 15.1567 8.71983C15.1722 8.70269 15.2078 8.70046 15.2117 8.67771C15.2145 8.66119 15.1894 8.65152 15.1842 8.6356C15.1775 8.61527 15.1744 8.59199 15.1805 8.5715C15.1885 8.54521 15.2223 8.53195 15.23 8.50558C15.2367 8.48266 15.2137 8.45545 15.2245 8.43416C15.2381 8.40728 15.297 8.41639 15.3014 8.38655C15.3035 8.37201 15.2769 8.36748 15.2721 8.35359C15.2687 8.34377 15.2741 8.33285 15.2739 8.32246C15.2737 8.30837 15.2764 8.29301 15.2703 8.28034C15.2648 8.26908 15.2466 8.26665 15.2428 8.25471C15.2392 8.24341 15.2417 8.22825 15.2501 8.21991C15.2568 8.21334 15.2734 8.22275 15.2776 8.21442C15.2861 8.19761 15.2613 8.18041 15.2538 8.16315C15.2448 8.14259 15.2333 8.12274 15.2282 8.10089C15.2241 8.08361 15.2092 8.05681 15.2245 8.04778C15.242 8.03744 15.2595 8.06851 15.2758 8.08074C15.2972 8.09689 15.3213 8.11157 15.3362 8.13385C15.347 8.14992 15.3409 8.17551 15.3551 8.18874C15.372 8.20462 15.4047 8.19188 15.4223 8.20709C15.4373 8.22017 15.4507 8.24262 15.4461 8.26203C15.4416 8.28058 15.3979 8.28007 15.4021 8.29865C15.4072 8.32074 15.4457 8.319 15.468 8.31514C15.481 8.31288 15.4902 8.30076 15.501 8.29316C15.5094 8.28726 15.5163 8.27888 15.5257 8.27485C15.5365 8.27023 15.5605 8.2689 15.5605 8.2689L15.5468 8.26569C15.5468 8.26569 15.5265 8.24952 15.5243 8.23777C15.5223 8.2267 15.5271 8.21388 15.5349 8.20572C15.5435 8.19657 15.5575 8.1919 15.5701 8.19199C15.5807 8.19206 15.5922 8.19623 15.5994 8.20389C15.6069 8.21174 15.6111 8.22381 15.61 8.23456C15.609 8.24396 15.6027 8.25299 15.5953 8.25883C15.5873 8.26514 15.566 8.26798 15.566 8.26798L15.5807 8.2721L15.62 8.32612L15.7899 8.31682C15.7899 8.31682 15.8108 8.29545 15.8067 8.2838C15.8023 8.27132 15.7907 8.26672 15.7705 8.26761C15.7155 8.27002 15.7043 8.22391 15.7064 8.19057C15.7081 8.16283 15.7415 8.14401 15.7672 8.13359C15.792 8.12356 15.8363 8.15659 15.8475 8.1323C15.8574 8.11101 15.8103 8.10017 15.8028 8.07792C15.7996 8.06829 15.7996 8.05657 15.8041 8.04749C15.8157 8.02431 15.8407 8.0089 15.8643 7.99828C15.8743 7.99381 15.8967 7.9931 15.8967 7.9931C15.8967 7.9931 15.919 7.99377 15.929 7.99828C15.9527 8.00888 15.9776 8.02431 15.9892 8.04749C15.9938 8.05657 15.9938 8.06829 15.9905 8.07792C15.9831 8.10017 15.936 8.11101 15.9459 8.1323C15.9571 8.15659 16.0013 8.12356 16.0262 8.13359C16.0519 8.14401 16.0853 8.16283 16.087 8.19057C16.0891 8.22391 16.0778 8.27002 16.0229 8.26761C16.0027 8.26672 15.9911 8.27132 15.9867 8.2838C15.9825 8.29545 16.0035 8.31682 16.0035 8.31682L16.1733 8.32612L16.2127 8.2721L16.2274 8.26798C16.2274 8.26798 16.2061 8.26514 16.1981 8.25883C16.1906 8.25299 16.1844 8.24396 16.1834 8.23456C16.1823 8.22381 16.1865 8.21174 16.1939 8.20389C16.2012 8.19623 16.2127 8.19206 16.2232 8.19199C16.2358 8.1919 16.2498 8.19657 16.2585 8.20572C16.2662 8.21388 16.271 8.2267 16.269 8.23777C16.2669 8.24952 16.2466 8.26569 16.2466 8.26569L16.2329 8.2689C16.2329 8.2689 16.2568 8.27023 16.2676 8.27485C16.2771 8.27888 16.284 8.28726 16.2924 8.29316C16.3032 8.30076 16.3123 8.31288 16.3253 8.31514C16.3476 8.319 16.3862 8.32074 16.3913 8.29865C16.3955 8.28007 16.3517 8.28058 16.3473 8.26203C16.3427 8.24262 16.356 8.22017 16.3711 8.20709C16.3887 8.19188 16.4214 8.20462 16.4383 8.18874C16.4524 8.17551 16.4464 8.14992 16.4572 8.13385C16.4721 8.11157 16.4962 8.09689 16.5176 8.08074C16.5338 8.06851 16.5514 8.03744 16.5689 8.04778C16.5841 8.05681 16.5693 8.08361 16.5652 8.10089C16.5601 8.12274 16.5486 8.14259 16.5396 8.16315C16.532 8.18041 16.5072 8.19761 16.5158 8.21442C16.52 8.22275 16.5366 8.21334 16.5432 8.21991C16.5517 8.22825 16.5541 8.24341 16.5506 8.25471C16.5468 8.26665 16.5286 8.26908 16.5231 8.28034C16.5169 8.29301 16.5196 8.30837 16.5194 8.32246C16.5193 8.33285 16.5247 8.34377 16.5213 8.35359C16.5164 8.36748 16.4898 8.37201 16.492 8.38655C16.4963 8.41639 16.5552 8.40728 16.5689 8.43416C16.5797 8.45545 16.5567 8.48266 16.5634 8.50558C16.5711 8.53195 16.6049 8.54521 16.6128 8.5715C16.619 8.59199 16.6158 8.61527 16.6092 8.6356C16.6039 8.65152 16.5789 8.66119 16.5817 8.67771C16.5856 8.70046 16.6212 8.70269 16.6366 8.71983C16.6577 8.74324 16.6741 8.77124 16.6861 8.8004C16.6922 8.81548 16.7098 8.83781 16.6971 8.84802C16.638 8.89551 16.5628 8.77675 16.4917 8.75059C16.4166 8.72298 16.3385 8.70289 16.2599 8.68844C16.1843 8.67457 16.1073 8.66976 16.0307 8.66513C15.9861 8.66244 15.8967 8.66254 15.8967 8.66254C15.8967 8.66254 15.8074 8.66243 15.7627 8.66513V8.66513Z" stroke="black" stroke-width="0.05" stroke-linecap="round" stroke-linejoin="round"/>
<path d="M15.9618 7.81066L15.8967 7.81141L15.8315 7.81066M15.9398 7.59383C15.9567 7.55798 15.9272 7.53143 15.8967 7.50514C15.8661 7.53143 15.8366 7.55798 15.8535 7.59383M15.9435 7.8929C15.9684 7.89474 15.9987 7.92021 16.0177 7.90389C16.0262 7.89651 16.022 7.88044 16.0177 7.87001C16.0076 7.84569 15.9638 7.84041 15.9618 7.81416C15.9601 7.79152 15.995 7.7808 16.0021 7.75922C16.0056 7.74849 16.0064 7.73576 16.0021 7.72535C15.9845 7.68325 15.9093 7.68086 15.8963 7.63779C15.8906 7.61871 15.9343 7.59623 15.9398 7.59383C15.9676 7.58181 16.0019 7.61085 16.0294 7.59895C16.0479 7.59089 16.0686 7.57255 16.0682 7.55233C16.0678 7.53033 16.0444 7.51191 16.0242 7.50313C15.9851 7.48612 15.9204 7.54091 15.8963 7.50572C15.8742 7.47332 15.9516 7.4348 15.9413 7.39695C15.9364 7.37896 15.8967 7.36328 15.8967 7.36328C15.8967 7.36328 15.857 7.37889 15.852 7.39695C15.8416 7.43478 15.9191 7.47332 15.897 7.50572C15.8729 7.54091 15.8082 7.48612 15.7691 7.50313C15.7489 7.51191 15.7255 7.53033 15.7251 7.55233C15.7247 7.57255 15.7454 7.59089 15.7639 7.59895C15.7914 7.61085 15.8257 7.58181 15.8535 7.59383C15.859 7.59623 15.9028 7.61871 15.897 7.63779C15.884 7.68086 15.8088 7.68325 15.7912 7.72535C15.7869 7.73576 15.7877 7.74849 15.7912 7.75922C15.7983 7.7808 15.8332 7.79152 15.8315 7.81416C15.8295 7.84041 15.7857 7.84569 15.7756 7.87001C15.7713 7.88044 15.7671 7.89651 15.7756 7.90389C15.7946 7.92021 15.8249 7.89474 15.8498 7.8929C15.8654 7.89175 15.8967 7.8929 15.8967 7.8929C15.8967 7.8929 15.9278 7.89175 15.9435 7.8929Z" fill="#CE9D09"/>
<path d="M15.9618 7.81066L15.8967 7.81141L15.8315 7.81066M15.9398 7.59383C15.9567 7.55798 15.9272 7.53143 15.8967 7.50514C15.8661 7.53143 15.8366 7.55798 15.8535 7.59383M15.9435 7.8929C15.9684 7.89474 15.9987 7.92021 16.0177 7.90389C16.0262 7.89651 16.022 7.88044 16.0177 7.87001C16.0076 7.84569 15.9638 7.84041 15.9618 7.81416C15.9601 7.79152 15.995 7.7808 16.0021 7.75922C16.0056 7.74849 16.0064 7.73576 16.0021 7.72535C15.9845 7.68325 15.9093 7.68086 15.8963 7.63779C15.8906 7.61871 15.9343 7.59623 15.9398 7.59383C15.9676 7.58181 16.0019 7.61085 16.0294 7.59895C16.0479 7.59089 16.0686 7.57255 16.0682 7.55233C16.0678 7.53033 16.0444 7.51191 16.0242 7.50313C15.9851 7.48612 15.9204 7.54091 15.8963 7.50572C15.8742 7.47332 15.9516 7.4348 15.9413 7.39695C15.9364 7.37896 15.8967 7.36328 15.8967 7.36328C15.8967 7.36328 15.857 7.37889 15.852 7.39695C15.8416 7.43478 15.9191 7.47332 15.897 7.50572C15.8729 7.54091 15.8082 7.48612 15.7691 7.50313C15.7489 7.51191 15.7255 7.53033 15.7251 7.55233C15.7247 7.57255 15.7454 7.59089 15.7639 7.59895C15.7914 7.61085 15.8257 7.58181 15.8535 7.59383C15.859 7.59623 15.9028 7.61871 15.897 7.63779C15.884 7.68086 15.8088 7.68325 15.7912 7.72535C15.7869 7.73576 15.7877 7.74849 15.7912 7.75922C15.7983 7.7808 15.8332 7.79152 15.8315 7.81416C15.8295 7.84041 15.7857 7.84569 15.7756 7.87001C15.7713 7.88044 15.7671 7.89651 15.7756 7.90389C15.7946 7.92021 15.8249 7.89474 15.8498 7.8929C15.8654 7.89175 15.8967 7.8929 15.8967 7.8929C15.8967 7.8929 15.9278 7.89175 15.9435 7.8929Z" stroke="black" stroke-width="0.05" stroke-linecap="round" stroke-linejoin="round"/>
<path d="M16.5038 10.1032C16.5038 10.1032 16.4581 10.0839 16.4347 10.0754C16.3925 10.0601 16.3498 10.0458 16.3065 10.034C16.2643 10.0225 16.2218 10.0104 16.1783 10.0055C16.085 9.99503 15.8967 10.0042 15.8967 10.0042C15.8967 10.0042 15.7085 9.99502 15.6151 10.0055C15.5716 10.0104 15.5291 10.0225 15.4869 10.034C15.4436 10.0458 15.4009 10.0601 15.3587 10.0754C15.3354 10.0839 15.2896 10.1032 15.2896 10.1032M16.5817 8.67918C16.5817 8.67918 16.5052 8.64874 16.4664 8.63523C16.4337 8.62389 16.401 8.61231 16.3675 8.6041C16.3265 8.59409 16.2847 8.58786 16.243 8.58213C16.1828 8.57388 16.1224 8.568 16.0618 8.56431C16.0068 8.56097 15.8967 8.56042 15.8967 8.56042C15.8967 8.56042 15.7867 8.56096 15.7316 8.56431C15.6711 8.56799 15.6106 8.57388 15.5505 8.58213C15.5087 8.58786 15.4669 8.59409 15.4259 8.6041C15.3924 8.61231 15.3597 8.62389 15.3271 8.63523C15.2882 8.64874 15.2117 8.67918 15.2117 8.67918M15.1211 9.44981C15.1211 9.44981 15.2335 9.41193 15.2901 9.39431C15.3485 9.37613 15.4064 9.35551 15.4662 9.34252C15.5378 9.32697 15.6109 9.31929 15.6837 9.31144C15.7545 9.30382 15.8967 9.2959 15.8967 9.2959C15.8967 9.2959 16.0388 9.30381 16.1097 9.31144C16.1825 9.31929 16.2557 9.32697 16.3272 9.34252C16.387 9.35551 16.4449 9.37613 16.5033 9.39431C16.5599 9.41193 16.6723 9.44981 16.6723 9.44981" stroke="black" stroke-width="0.05" stroke-linecap="round" stroke-linejoin="round"/>
<path d="M13.8129 9.78754L14.4604 10.3425C14.4604 10.3425 14.4276 10.4143 14.4138 10.4512C14.4012 10.4853 14.3894 10.5199 14.3809 10.5552C14.3684 10.6074 14.3544 10.7139 14.3544 10.7139L13.5996 10.0225C13.6103 9.86445 13.6992 9.80814 13.8129 9.78754L13.8129 9.78754Z" fill="#CCCCCC" stroke="black" stroke-width="0.05" stroke-linejoin="round"/>
<path d="M13.7214 10.1337L13.5659 10.3075L13.663 10.4009L13.5128 10.5474L13.4158 10.4504L13.2525 10.6245L13.251 10.8404L13.6227 11.1316L13.7509 11.0364L13.7436 10.8294L13.8425 10.8844L13.9413 10.8239L13.9468 11.0107L13.8663 10.9521L13.7784 11.0675L13.7692 11.2726L14.0494 11.5216L14.3889 11.2203L14.3632 11.13L14.3485 11.0489L14.3405 10.888L14.3532 10.7124L13.7214 10.1337Z" fill="#CCCCCC" stroke="black" stroke-width="0.05" stroke-linejoin="round"/>
<path d="M13.566 10.3068L13.562 10.4987L13.6621 10.401L13.566 10.3068Z" fill="#CCCCCC" stroke="black" stroke-width="0.05" stroke-linejoin="round"/>
<path d="M14.0604 11.3013L14.0487 11.5206M13.9296 10.6267L13.9338 10.8301M13.839 10.7191L13.8443 10.8848M13.752 10.6522L13.7554 10.8373M13.6182 10.9348L13.6202 11.1309M13.7785 11.069L14.0606 11.3051L14.3489 11.0521M13.2544 10.6241L13.6229 10.9389L13.7438 10.8309L13.6485 10.7503L13.7547 10.6496L13.8372 10.721L13.9305 10.6258L14.0514 10.743L13.9416 10.829L14.0441 10.9224L13.947 11.0122" stroke="black" stroke-width="0.05" stroke-linejoin="round"/>
<path d="M16.1685 11.8707L16.4796 12.156L16.5485 12.3572L16.1476 12.3144L15.9193 12.0887L15.6763 11.8636L14.6265 10.9539C14.6265 10.9539 14.6487 10.87 14.6625 10.8289C14.6825 10.7694 14.7065 10.7113 14.7301 10.6531C14.7361 10.6385 14.7488 10.6097 14.7488 10.6097L15.9201 11.648L16.1685 11.8707Z" fill="#CCCCCC" stroke="black" stroke-width="0.05" stroke-linejoin="round"/>
<path d="M16.4329 11.9125C16.6064 12.1549 16.8982 12.3838 16.9868 12.4939C17.0754 12.604 17.1325 12.7086 17.0033 12.8494C16.8741 12.9902 16.7277 12.9103 16.612 12.8328C16.4964 12.7554 16.2946 12.5045 16.0059 12.3121L16.4329 11.9125Z" fill="#CCCCCC" stroke="black" stroke-width="0.05" stroke-linejoin="round"/>
<path d="M16.3306 12.3217L16.1055 12.2201L16.3306 12.3217ZM16.3674 11.975C16.3829 12.026 16.3711 12.0824 16.3906 12.1313C16.4099 12.1797 16.4803 12.2591 16.4803 12.2591C16.4803 12.2591 16.4356 12.2654 16.4147 12.2735C16.3844 12.2853 16.3382 12.2908 16.3304 12.3224C16.3236 12.35 16.3564 12.3737 16.3757 12.3945C16.3943 12.4144 16.4183 12.4289 16.4418 12.4427C16.481 12.4657 16.5211 12.4917 16.5659 12.4997C16.622 12.5099 16.7267 12.4309 16.7364 12.4871C16.7405 12.5104 16.6891 12.4955 16.6679 12.5059C16.6182 12.5303 16.5933 12.5835 16.637 12.6204C16.6651 12.6442 16.7092 12.6355 16.7458 12.6385C16.7809 12.6414 16.821 12.6209 16.8515 12.6386C16.8875 12.6594 16.9326 12.7097 16.9136 12.7466C16.894 12.7845 16.8209 12.7835 16.786 12.7588C16.7603 12.7405 16.7672 12.6981 16.7634 12.6668C16.7622 12.6575 16.7634 12.648 16.7634 12.6386" fill="#CCCCCC"/>
<path d="M16.3306 12.3217L16.1055 12.2201M16.3674 11.975C16.3829 12.026 16.3711 12.0824 16.3906 12.1313C16.4099 12.1797 16.4803 12.2591 16.4803 12.2591C16.4803 12.2591 16.4356 12.2654 16.4147 12.2735C16.3844 12.2853 16.3382 12.2908 16.3304 12.3224C16.3236 12.35 16.3564 12.3737 16.3757 12.3945C16.3943 12.4144 16.4183 12.4289 16.4418 12.4427C16.481 12.4657 16.5211 12.4917 16.5659 12.4997C16.622 12.5099 16.7267 12.4309 16.7364 12.4871C16.7405 12.5104 16.6891 12.4955 16.6679 12.5059C16.6182 12.5303 16.5933 12.5835 16.637 12.6204C16.6651 12.6442 16.7092 12.6355 16.7458 12.6385C16.7809 12.6414 16.821 12.6209 16.8515 12.6386C16.8875 12.6594 16.9326 12.7097 16.9136 12.7466C16.894 12.7845 16.8209 12.7835 16.786 12.7588C16.7603 12.7405 16.7672 12.6981 16.7634 12.6668C16.7622 12.6575 16.7634 12.648 16.7634 12.6386" stroke="black" stroke-width="0.05" stroke-linejoin="round"/>
<path d="M17.7895 14.3033C18.2479 14.3033 18.6195 13.9317 18.6195 13.4733C18.6195 13.0149 18.2479 12.6433 17.7895 12.6433C17.3311 12.6433 16.9595 13.0149 16.9595 13.4733C16.9595 13.9317 17.3311 14.3033 17.7895 14.3033Z" fill="#CCCCCC" stroke="black" stroke-width="0.05" stroke-linejoin="round"/>
<path d="M17.4793 13.5076C17.3362 13.5076 17.2202 13.6235 17.2202 13.7666C17.2202 13.9097 17.3362 14.0257 17.4793 14.0257C17.6223 14.0257 17.7383 13.9097 17.7383 13.7666L17.8281 13.7627C17.8281 13.9058 17.9441 14.0218 18.0872 14.0218C18.2302 14.0218 18.3462 13.9058 18.3462 13.7627C18.3462 13.6196 18.2302 13.5037 18.0872 13.5037L18.0911 13.4529C18.2341 13.4529 18.3501 13.3369 18.3501 13.1938C18.3501 13.0507 18.2341 12.9347 18.0911 12.9347C17.948 12.9347 17.832 13.0507 17.832 13.1938L17.7422 13.186C17.7422 13.0429 17.6262 12.9269 17.4832 12.9269C17.3401 12.9269 17.2241 13.0429 17.2241 13.186C17.2241 13.3291 17.3401 13.4451 17.4832 13.4451L17.4793 13.5076Z" fill="white" stroke="black" stroke-width="0.05" stroke-linejoin="round"/>
<path d="M17.7898 13.3496C17.8415 13.3496 17.8833 13.3077 17.8833 13.2561C17.8833 13.2044 17.8415 13.1625 17.7898 13.1625C17.7382 13.1625 17.6963 13.2044 17.6963 13.2561C17.6963 13.3077 17.7382 13.3496 17.7898 13.3496Z" fill="#CCCCCC" stroke="black" stroke-width="0.05" stroke-linejoin="round"/>
<path d="M18.012 13.5659C18.0636 13.5659 18.1055 13.5241 18.1055 13.4724C18.1055 13.4208 18.0636 13.3789 18.012 13.3789C17.9603 13.3789 17.9185 13.4208 17.9185 13.4724C17.9185 13.5241 17.9603 13.5659 18.012 13.5659Z" fill="#CCCCCC" stroke="black" stroke-width="0.05" stroke-linejoin="round"/>
<path d="M17.7937 13.7679C17.8454 13.7679 17.8872 13.726 17.8872 13.6743C17.8872 13.6227 17.8454 13.5808 17.7937 13.5808C17.7421 13.5808 17.7002 13.6227 17.7002 13.6743C17.7002 13.726 17.7421 13.7679 17.7937 13.7679Z" fill="#CCCCCC" stroke="black" stroke-width="0.05" stroke-linejoin="round"/>
<path d="M17.5637 13.5659C17.6154 13.5659 17.6573 13.5241 17.6573 13.4724C17.6573 13.4208 17.6154 13.3789 17.5637 13.3789C17.5121 13.3789 17.4702 13.4208 17.4702 13.4724C17.4702 13.5241 17.5121 13.5659 17.5637 13.5659Z" fill="#CCCCCC" stroke="black" stroke-width="0.05" stroke-linejoin="round"/>
<path d="M17.7742 13.9749C17.74 14.045 17.6934 14.0769 17.6339 14.1151C17.7187 14.152 17.8221 14.1452 17.9145 14.1151C17.855 14.0854 17.8118 14.0384 17.7742 13.9749ZM17.2841 13.4614C17.214 13.4272 17.1821 13.3806 17.1438 13.3211C17.107 13.4059 17.1137 13.5092 17.1438 13.6016C17.1736 13.5421 17.2206 13.499 17.2841 13.4614ZM18.3033 13.4847C18.3734 13.4506 18.4053 13.404 18.4435 13.3445C18.4804 13.4292 18.4736 13.5326 18.4435 13.625C18.4138 13.5655 18.3668 13.5224 18.3033 13.4847ZM17.8015 12.9674C17.7673 12.8972 17.7207 12.8653 17.6612 12.8271C17.746 12.7903 17.8493 12.797 17.9417 12.8271C17.8822 12.8568 17.8391 12.9039 17.8015 12.9674Z" fill="white" stroke="black" stroke-width="0.05" stroke-linejoin="round"/>
<path d="M13.8141 9.78782C13.8141 9.78782 13.8186 9.75543 13.8141 9.74021C13.8068 9.71545 13.7913 9.69242 13.772 9.6752C13.7557 9.66064 13.7349 9.65009 13.7134 9.64591C13.6903 9.64139 13.6657 9.64517 13.6429 9.6514C13.6274 9.65564 13.5997 9.67266 13.5997 9.67266L13.5047 9.71183L13.4694 9.8249C13.4694 9.8249 13.4491 9.8606 13.4442 9.8803C13.439 9.90137 13.4352 9.92427 13.4406 9.94531C13.4469 9.97001 13.4613 9.99402 13.4809 10.0103C13.499 10.0254 13.5233 10.0342 13.5468 10.036C13.5649 10.0373 13.5999 10.024 13.5999 10.024C13.61 9.90494 13.663 9.81404 13.8141 9.78782V9.78782Z" fill="#CE9D09" stroke="black" stroke-width="0.05" stroke-linejoin="round"/>
<path d="M13.6017 9.67112L13.3536 9.56219L13.3335 9.58142L13.4687 9.82591C13.4687 9.82591 13.5066 9.76999 13.5285 9.7444C13.551 9.7182 13.6017 9.67112 13.6017 9.67112Z" fill="#CE9D09" stroke="black" stroke-width="0.05" stroke-linejoin="round"/>
<path d="M13.3267 9.64137C13.3831 9.64137 13.4288 9.59567 13.4288 9.53928C13.4288 9.4829 13.3831 9.43719 13.3267 9.43719C13.2703 9.43719 13.2246 9.4829 13.2246 9.53928C13.2246 9.59567 13.2703 9.64137 13.3267 9.64137Z" fill="#CE9D09" stroke="black" stroke-width="0.05" stroke-linejoin="round"/>
<path d="M14.0234 9.96606C14.0451 10.145 14.0703 10.3239 14.126 10.5027L14.3248 10.6849C14.2824 10.4978 14.2068 10.3107 14.2073 10.1236L14.0234 9.96606Z" fill="#CE9D09" stroke="black" stroke-width="0.05" stroke-linejoin="round"/>
<path d="M14.3235 10.2231L13.7764 10.1824L13.9505 10.3418L14.4501 10.3635L14.4574 10.3379L14.3235 10.2231Z" fill="#CE9D09" stroke="black" stroke-width="0.05" stroke-linejoin="round"/>
<path d="M14.9976 10.8322C14.854 10.8864 14.7965 10.975 14.7553 11.0701C14.7147 11.0737 14.6766 11.0741 14.6631 11.0436C14.6973 10.8216 14.8564 10.7521 14.8919 10.7381C14.9876 10.72 14.9698 10.7947 14.9976 10.8322Z" fill="#CE9D09" stroke="black" stroke-width="0.05" stroke-linejoin="round"/>
<path d="M15.1739 10.9957C15.0302 11.0498 14.9728 11.1384 14.9316 11.2336C14.8909 11.2371 14.8528 11.2375 14.8394 11.2071C14.8736 10.985 15.0327 10.9156 15.0682 10.9015C15.1639 10.8834 15.1461 10.9582 15.1739 10.9957Z" fill="#CE9D09" stroke="black" stroke-width="0.05" stroke-linejoin="round"/>
<path d="M17.1755 12.6729C17.1285 12.6716 17.079 12.6825 17.079 12.6825C17.0809 12.7339 17.0601 12.7887 17.0035 12.8504C16.9546 12.9037 16.9032 12.9253 16.852 12.9275L16.8519 12.9275C16.8519 12.9275 16.8337 13.0405 16.8685 13.0763C16.9092 13.1183 17.042 13.1011 17.042 13.1011L17.0534 13.0939C17.1039 12.9963 17.1733 12.9097 17.2576 12.8392L17.2597 12.8312C17.2597 12.8312 17.2792 12.7254 17.246 12.6936C17.2309 12.679 17.2037 12.6739 17.1755 12.6936V12.6729Z" fill="#CE9D09" stroke="black" stroke-width="0.05" stroke-linejoin="round"/>
<path d="M18.4289 12.918C18.4913 12.918 18.5419 12.8674 18.5419 12.805C18.5419 12.7426 18.4913 12.692 18.4289 12.692C18.3665 12.692 18.3159 12.7426 18.3159 12.805C18.3159 12.8674 18.3665 12.918 18.4289 12.918Z" fill="#CE9D09" stroke="black" stroke-width="0.05" stroke-linejoin="round"/>
<path d="M18.468 14.2257C18.5304 14.2257 18.581 14.1751 18.581 14.1127C18.581 14.0503 18.5304 13.9997 18.468 13.9997C18.4056 13.9997 18.355 14.0503 18.355 14.1127C18.355 14.1751 18.4056 14.2257 18.468 14.2257Z" fill="#CE9D09" stroke="black" stroke-width="0.05" stroke-linejoin="round"/>
<path d="M17.1975 14.3026C17.2599 14.3026 17.3105 14.252 17.3105 14.1896C17.3105 14.1272 17.2599 14.0766 17.1975 14.0766C17.1351 14.0766 17.0845 14.1272 17.0845 14.1896C17.0845 14.252 17.1351 14.3026 17.1975 14.3026Z" fill="#CE9D09" stroke="black" stroke-width="0.05" stroke-linejoin="round"/>
<path d="M15.963 11.5269C15.963 11.5613 15.9342 11.5746 15.8782 11.5746C15.8223 11.5746 15.7964 11.5584 15.7964 11.5239C15.7964 11.4895 15.8223 11.4811 15.8782 11.4811C15.9342 11.4811 15.963 11.4924 15.963 11.5269Z" fill="#FA0204" stroke="black" stroke-width="0.05" stroke-linejoin="round"/>
<path d="M16.0149 11.738C16.0036 11.7705 15.972 11.7736 15.9192 11.7551C15.8664 11.7367 15.8473 11.7129 15.8586 11.6804C15.87 11.6478 15.8972 11.6484 15.95 11.6668C16.0028 11.6853 16.0263 11.7055 16.0149 11.738Z" fill="#FA0204" stroke="black" stroke-width="0.05" stroke-linejoin="round"/>
<path d="M16.016 11.8273C16.0091 11.8611 15.9783 11.8684 15.9234 11.8574C15.8686 11.8463 15.8464 11.8252 15.8532 11.7915C15.8601 11.7577 15.8871 11.7546 15.9419 11.7657C15.9968 11.7768 16.0228 11.7936 16.016 11.8273Z" fill="#FA0204" stroke="black" stroke-width="0.05" stroke-linejoin="round"/>
<path d="M16.299 11.787C16.2824 11.7826 16.2842 11.7531 16.2888 11.7365C16.2959 11.7111 16.3423 11.6782 16.3423 11.6782C16.3423 11.6782 16.3536 11.7138 16.3484 11.7306C16.341 11.7545 16.3231 11.7934 16.299 11.787Z" fill="#FA0204" stroke="black" stroke-width="0.05" stroke-linejoin="round"/>
<path d="M16.239 11.8392C16.2209 11.8352 16.2186 11.8038 16.2233 11.7859C16.2306 11.7583 16.285 11.7263 16.285 11.7263C16.285 11.7263 16.2945 11.7649 16.2884 11.7828C16.2803 11.8064 16.2634 11.8445 16.239 11.8392Z" fill="#FA0204" stroke="black" stroke-width="0.05" stroke-linejoin="round"/>
<path d="M16.1701 11.9401C16.1426 11.9328 16.1457 11.8841 16.153 11.8566C16.1591 11.8339 16.1768 11.7982 16.1996 11.8038C16.2263 11.8103 16.2259 11.8571 16.2195 11.8837C16.2136 11.908 16.1942 11.9465 16.1701 11.9401Z" fill="#FA0204" stroke="black" stroke-width="0.05" stroke-linejoin="round"/>
<path d="M16.0881 12.0171C16.0611 12.0112 16.0496 11.9683 16.055 11.9412C16.0607 11.9127 16.0893 11.8745 16.1176 11.8808C16.1462 11.8871 16.156 11.9343 16.1492 11.9627C16.1427 11.9892 16.1147 12.023 16.0881 12.0171Z" fill="#FA0204" stroke="black" stroke-width="0.05" stroke-linejoin="round"/>
<path d="M16.0737 12.0629C16.0668 12.0955 16.0256 12.1068 16.0003 12.0986C15.9737 12.0899 15.939 12.0526 15.9463 12.0184C15.9536 11.984 15.9986 11.9748 16.0252 11.985C16.0499 11.9945 16.0805 12.0308 16.0737 12.0629Z" fill="#FA0204" stroke="black" stroke-width="0.05" stroke-linejoin="round"/>
<path d="M15.5293 11.7455C15.5293 11.7455 15.5622 11.7617 15.5763 11.7762C15.5912 11.7913 15.609 11.7974 15.6001 11.8205C15.591 11.8437 15.5627 11.8357 15.5481 11.8195C15.5344 11.8043 15.5293 11.7455 15.5293 11.7455Z" fill="#FA0204" stroke="black" stroke-width="0.05" stroke-linejoin="round"/>
<path d="M15.692 11.8042C15.7254 11.8109 15.7247 11.8498 15.7077 11.8736C15.6898 11.8986 15.638 11.9312 15.603 11.9241C15.5677 11.9169 15.572 11.8744 15.5916 11.8495C15.6098 11.8262 15.6591 11.7976 15.692 11.8042Z" fill="#FA0204" stroke="black" stroke-width="0.05" stroke-linejoin="round"/>
<path d="M15.8035 11.8755C15.8346 11.8893 15.8254 11.9271 15.8035 11.9466C15.7806 11.9671 15.7229 11.9874 15.6904 11.9728C15.6575 11.9581 15.6711 11.9176 15.6956 11.8975C15.7185 11.8788 15.7729 11.8617 15.8036 11.8755H15.8035Z" fill="#FA0204" stroke="black" stroke-width="0.05" stroke-linejoin="round"/>
<path d="M15.9232 12.0056C15.9538 12.0104 15.962 12.053 15.9525 12.0804C15.9426 12.1092 15.9047 12.1487 15.8726 12.1436C15.8401 12.1384 15.8343 12.0915 15.8457 12.0627C15.8563 12.0359 15.8929 12.0008 15.9232 12.0056L15.9232 12.0056Z" fill="#FA0204" stroke="black" stroke-width="0.05" stroke-linejoin="round"/>
<path d="M16.0007 12.1008C16.026 12.1156 16.0201 12.1622 16.0033 12.1874C15.9857 12.2139 15.9403 12.2426 15.9137 12.2271C15.8868 12.2114 15.8962 12.1611 15.915 12.135C15.9327 12.1107 15.9756 12.0862 16.0007 12.1008H16.0007Z" fill="#FA0204" stroke="black" stroke-width="0.05" stroke-linejoin="round"/>
<path d="M15.4498 11.8465C15.477 11.8441 15.4958 11.8847 15.4954 11.9143C15.4951 11.9453 15.4742 11.9937 15.4457 11.9961C15.4169 11.9986 15.3989 11.9533 15.4005 11.9218C15.4019 11.8925 15.423 11.8489 15.4498 11.8465L15.4498 11.8465Z" fill="#FA0204" stroke="black" stroke-width="0.05" stroke-linejoin="round"/>
<path d="M15.5387 11.9241C15.5653 11.93 15.5708 11.9744 15.5615 12.0025C15.5517 12.0319 15.5171 12.0716 15.4892 12.0653C15.4611 12.0589 15.4577 12.0102 15.4688 11.9808C15.4791 11.9533 15.5124 11.9182 15.5387 11.9241L15.5387 11.9241Z" fill="#FA0204" stroke="black" stroke-width="0.05" stroke-linejoin="round"/>
<path d="M15.621 11.9771C15.6524 11.9845 15.659 12.0396 15.648 12.0744C15.6364 12.111 15.5955 12.1603 15.5624 12.1525C15.5291 12.1446 15.5251 12.0841 15.5382 12.0475C15.5504 12.0134 15.5898 11.9697 15.621 11.9771L15.621 11.9771Z" fill="#FA0204" stroke="black" stroke-width="0.05" stroke-linejoin="round"/>
<path d="M15.688 12.0438C15.7201 12.0397 15.7456 12.089 15.7475 12.1255C15.7495 12.1638 15.7285 12.2244 15.6948 12.2286C15.6608 12.2329 15.6359 12.1777 15.6353 12.1388C15.6347 12.1026 15.6563 12.0479 15.688 12.0438L15.688 12.0438Z" fill="#FA0204" stroke="black" stroke-width="0.05" stroke-linejoin="round"/>
<path d="M15.7672 12.1015C15.7963 12.098 15.8195 12.1389 15.8213 12.1692C15.8231 12.2009 15.804 12.2511 15.7734 12.2546C15.7425 12.2582 15.7198 12.2124 15.7192 12.1802C15.7187 12.1502 15.7384 12.1048 15.7672 12.1015L15.7672 12.1015Z" fill="#FA0204" stroke="black" stroke-width="0.05" stroke-linejoin="round"/>
<path d="M16.3476 12.0069C16.3268 12.0251 16.2854 12.0089 16.2668 11.9885C16.2472 11.9671 16.2334 11.9214 16.2553 11.9023C16.2773 11.883 16.3211 11.903 16.3399 11.9254C16.3575 11.9463 16.3681 11.9889 16.3476 12.0069Z" fill="#FA0204" stroke="black" stroke-width="0.05" stroke-linejoin="round"/>
<path d="M16.1933 12.2019C16.186 12.2286 16.1425 12.2378 16.1158 12.2311C16.0877 12.224 16.051 12.1935 16.0587 12.1655C16.0664 12.1373 16.114 12.1298 16.142 12.1381C16.1682 12.1459 16.2005 12.1756 16.1933 12.2019Z" fill="#FA0204" stroke="black" stroke-width="0.05" stroke-linejoin="round"/>
<path d="M16.0781 12.183C16.1014 12.1993 16.096 12.2506 16.0805 12.2783C16.0644 12.3075 16.0227 12.339 15.9982 12.3219C15.9736 12.3047 15.9822 12.2494 15.9995 12.2207C16.0157 12.1939 16.0551 12.167 16.0781 12.183H16.0781Z" fill="#FA0204" stroke="black" stroke-width="0.05" stroke-linejoin="round"/>
<path d="M15.9655 12.2403C15.9909 12.2551 15.9849 12.3017 15.9681 12.3269C15.9505 12.3534 15.9051 12.3821 15.8785 12.3665C15.8517 12.3508 15.861 12.3006 15.8799 12.2745C15.8975 12.2502 15.9404 12.2257 15.9655 12.2403H15.9655Z" fill="#FA0204" stroke="black" stroke-width="0.05" stroke-linejoin="round"/>
<path d="M15.7205 12.4029C15.6988 12.4236 15.7157 12.475 15.7383 12.5007C15.762 12.5276 15.8137 12.5525 15.8365 12.5308C15.8594 12.5088 15.8384 12.4538 15.8135 12.4275C15.7903 12.403 15.742 12.3824 15.7205 12.4029L15.7205 12.4029Z" fill="#FA0204" stroke="black" stroke-width="0.05" stroke-linejoin="round"/>
<path d="M15.6534 12.5744C15.6255 12.5856 15.6221 12.6397 15.6336 12.6719C15.6457 12.7057 15.6845 12.748 15.7137 12.7362C15.7432 12.7243 15.744 12.6654 15.7306 12.6318C15.7181 12.6004 15.6808 12.5634 15.6533 12.5744L15.6534 12.5744Z" fill="#FA0204" stroke="black" stroke-width="0.05" stroke-linejoin="round"/>
<path d="M15.537 12.775C15.5078 12.7817 15.4959 12.8345 15.5021 12.8681C15.5086 12.9034 15.5403 12.9513 15.571 12.9443C15.602 12.9372 15.6121 12.8792 15.6042 12.8439C15.5969 12.811 15.5659 12.7685 15.537 12.775L15.537 12.775Z" fill="#FA0204" stroke="black" stroke-width="0.05" stroke-linejoin="round"/>
<path d="M15.4183 12.9811C15.3883 12.9822 15.3668 13.0319 15.3667 13.0661C15.3666 13.102 15.3888 13.155 15.4203 13.1537C15.452 13.1525 15.4727 13.0974 15.4715 13.0612C15.4704 13.0275 15.4479 12.98 15.4183 12.9811L15.4183 12.9811Z" fill="#FA0204" stroke="black" stroke-width="0.05" stroke-linejoin="round"/>
<path d="M14.834 13.6013L14.8003 13.7331C14.8003 13.7331 14.8191 13.78 14.8387 13.778C14.8738 13.7745 14.8833 13.7201 14.89 13.6855C14.896 13.6316 14.834 13.6013 14.834 13.6013Z" fill="#FA0204" stroke="black" stroke-width="0.05" stroke-linejoin="round"/>
<path d="M16.91 13.6873C16.9203 13.7265 17.0077 13.7597 17.0077 13.7597L16.9651 13.582C16.9285 13.583 16.9043 13.6616 16.91 13.6873Z" fill="#FA0204" stroke="black" stroke-width="0.05" stroke-linejoin="round"/>
<path d="M16.9027 13.5456C16.8748 13.5346 16.8352 13.5714 16.8214 13.6027C16.8069 13.6355 16.806 13.693 16.8353 13.7045C16.8648 13.7161 16.9059 13.6739 16.9193 13.6403C16.9319 13.609 16.9303 13.5565 16.9027 13.5456L16.9027 13.5456Z" fill="#FA0204" stroke="black" stroke-width="0.05" stroke-linejoin="round"/>
<path d="M16.8054 13.4667C16.7754 13.4652 16.7496 13.5127 16.7465 13.5468C16.7432 13.5825 16.7606 13.6373 16.7921 13.6389C16.8238 13.6404 16.8493 13.5874 16.8513 13.5512C16.8532 13.5175 16.835 13.4682 16.8054 13.4667L16.8054 13.4667Z" fill="#FA0204" stroke="black" stroke-width="0.05" stroke-linejoin="round"/>
<path d="M16.0568 12.3513C16.0568 12.3513 16.0463 12.522 16.1083 12.5329C16.1469 12.5398 16.1773 12.4375 16.1773 12.4375L16.0568 12.3513Z" fill="#FA0204" stroke="black" stroke-width="0.05" stroke-linejoin="round"/>
<path d="M15.9171 14.3108C15.8987 14.3345 15.9229 14.3828 15.9491 14.4049C15.9765 14.4281 16.0314 14.4451 16.0507 14.4202C16.0701 14.3951 16.0412 14.3438 16.0127 14.3215C15.9861 14.3006 15.9353 14.2874 15.9171 14.3108L15.9171 14.3108Z" fill="#FA0204" stroke="black" stroke-width="0.05" stroke-linejoin="round"/>
<path d="M16.2635 14.2681C16.2488 14.2943 16.2801 14.3385 16.3092 14.3564C16.3398 14.3751 16.3966 14.3837 16.412 14.3562C16.4274 14.3285 16.3911 14.2821 16.3596 14.2643C16.3302 14.2477 16.278 14.2423 16.2635 14.2681L16.2635 14.2681Z" fill="#FA0204" stroke="black" stroke-width="0.05" stroke-linejoin="round"/>
<path d="M16.5025 14.2146C16.4903 14.242 16.5255 14.2832 16.5562 14.2983C16.5884 14.3141 16.6457 14.3175 16.6584 14.2887C16.6713 14.2596 16.6308 14.2168 16.5978 14.202C16.567 14.1882 16.5145 14.1875 16.5025 14.2146L16.5025 14.2146Z" fill="#FA0204" stroke="black" stroke-width="0.05" stroke-linejoin="round"/>
<path d="M16.744 14.1408C16.7335 14.1689 16.771 14.2078 16.8025 14.2211C16.8356 14.2351 16.8931 14.235 16.9041 14.2055C16.9152 14.1757 16.8723 14.1354 16.8384 14.1225C16.8069 14.1106 16.7544 14.113 16.744 14.1408L16.744 14.1408Z" fill="#FA0204" stroke="black" stroke-width="0.05" stroke-linejoin="round"/>
<path d="M17.2272 13.8262C17.2272 13.8262 17.3139 13.839 17.3218 13.8078C17.3324 13.7665 17.2231 13.7263 17.2231 13.7263L17.2272 13.8262Z" fill="#FA0204" stroke="black" stroke-width="0.05" stroke-linejoin="round"/>
<path d="M14.8903 14.0863C14.8648 14.1021 14.8707 14.1559 14.8875 14.1856C14.9052 14.2169 14.9507 14.252 14.9774 14.2354C15.0044 14.2186 14.9951 14.1605 14.9762 14.1296C14.9586 14.1008 14.9155 14.0707 14.8903 14.0863L14.8903 14.0863Z" fill="#FA0204" stroke="black" stroke-width="0.05" stroke-linejoin="round"/>
<path d="M14.5482 13.7151C14.5215 13.7013 14.4784 13.7341 14.4616 13.7639C14.4439 13.7951 14.4373 13.8522 14.4653 13.8665C14.4936 13.881 14.5386 13.8431 14.5553 13.811C14.5709 13.7811 14.5745 13.7286 14.5482 13.7151L14.5482 13.7151Z" fill="#FA0204" stroke="black" stroke-width="0.05" stroke-linejoin="round"/>
<path d="M14.5089 13.8241C14.4807 13.814 14.4424 13.8523 14.4296 13.884C14.4162 13.9173 14.4173 13.9747 14.447 13.9852C14.4769 13.9958 14.5165 13.9523 14.5288 13.9182C14.5402 13.8865 14.5369 13.834 14.5089 13.8241L14.5089 13.8241Z" fill="#FA0204" stroke="black" stroke-width="0.05" stroke-linejoin="round"/>
<path d="M14.5455 13.9195C14.5164 13.912 14.4817 13.9535 14.4719 13.9863C14.4616 14.0207 14.4678 14.0778 14.4983 14.0856C14.5291 14.0934 14.5646 14.0464 14.5738 14.0114C14.5823 13.9787 14.5742 13.9268 14.5455 13.9195L14.5455 13.9195Z" fill="#FA0204" stroke="black" stroke-width="0.05" stroke-linejoin="round"/>
<path d="M14.6391 13.963C14.6103 13.9546 14.5743 13.995 14.5634 14.0274C14.552 14.0614 14.5564 14.1187 14.5866 14.1275C14.6171 14.1363 14.6541 14.0905 14.6644 14.0558C14.674 14.0234 14.6676 13.9713 14.6391 13.963L14.6391 13.963Z" fill="#FA0204" stroke="black" stroke-width="0.05" stroke-linejoin="round"/>
<path d="M14.7005 13.9771C14.6714 13.9843 14.6606 14.0374 14.6676 14.0709C14.6748 14.106 14.7075 14.1533 14.738 14.1456C14.7689 14.1379 14.7777 14.0796 14.7691 14.0445C14.7611 14.0117 14.7293 13.9699 14.7005 13.9771L14.7005 13.9771Z" fill="#FA0204" stroke="black" stroke-width="0.05" stroke-linejoin="round"/>
<path d="M16.0466 12.3407C16.0622 12.3644 16.0381 12.41 16.0135 12.4301C15.9877 12.4512 15.9373 12.4651 15.9209 12.4401C15.9044 12.415 15.9328 12.3668 15.9596 12.3466C15.9845 12.3277 16.0311 12.3173 16.0466 12.3407L16.0466 12.3407Z" fill="#FA0204" stroke="black" stroke-width="0.05" stroke-linejoin="round"/>
<path d="M16.0528 13.1297C16.07 13.1542 16.0435 13.2014 16.0163 13.2222C15.9878 13.244 15.9322 13.2583 15.9141 13.2325C15.8959 13.2065 15.9273 13.1567 15.9568 13.1357C15.9843 13.1162 16.0357 13.1055 16.0528 13.1297L16.0528 13.1297Z" fill="#FA0204" stroke="black" stroke-width="0.05" stroke-linejoin="round"/>
<path d="M16.0453 13.2394C16.067 13.2601 16.0501 13.3116 16.0275 13.3372C16.0038 13.3642 15.952 13.3891 15.9293 13.3673C15.9063 13.3454 15.9274 13.2904 15.9523 13.2641C15.9755 13.2396 16.0238 13.219 16.0453 13.2394L16.0453 13.2394Z" fill="#FA0204" stroke="black" stroke-width="0.05" stroke-linejoin="round"/>
<path d="M15.8379 15.832C15.9653 15.8673 16.0411 15.8655 16.1465 15.8347L16.0349 15.6556" fill="#FA0204"/>
<path d="M15.8379 15.832C15.9653 15.8673 16.0411 15.8655 16.1465 15.8347L16.0349 15.6556" stroke="black" stroke-width="0.05" stroke-linejoin="round"/>
<path d="M16.0853 15.3712L15.8823 15.3191C15.8823 15.3191 15.8847 15.0939 16.0128 15.1136C16.1192 15.1299 16.0895 15.3718 16.0853 15.3712Z" fill="#CE9D09" stroke="black" stroke-width="0.05" stroke-linejoin="round"/>
<path d="M15.9865 15.1142C16.0321 15.1142 16.0691 15.0772 16.0691 15.0316C16.0691 14.9859 16.0321 14.9489 15.9865 14.9489C15.9408 14.9489 15.9038 14.9859 15.9038 15.0316C15.9038 15.0772 15.9408 15.1142 15.9865 15.1142Z" fill="#CE9D09" stroke="black" stroke-width="0.05" stroke-linejoin="round"/>
<path d="M16.0665 15.4728C16.1116 15.5871 16.1393 15.6855 16.0968 15.8145L16.0665 15.4728ZM16.1454 15.8363C16.08 15.7835 15.9113 15.799 15.8383 15.8341C15.8098 15.8341 15.7331 15.3013 16.003 15.3145C16.2508 15.3266 16.1626 15.8388 16.1454 15.8363Z" fill="#FA0204"/>
<path d="M16.0665 15.4728C16.1116 15.5871 16.1393 15.6855 16.0968 15.8145M16.1454 15.8363C16.08 15.7835 15.9113 15.799 15.8383 15.8341C15.8098 15.8341 15.7331 15.3013 16.003 15.3145C16.2508 15.3266 16.1626 15.8388 16.1454 15.8363V15.8363Z" stroke="black" stroke-width="0.05" stroke-linejoin="round"/>
<path d="M15.6172 15.9441C15.7407 16.0224 15.8556 16.0154 15.9644 15.9469L15.7067 15.6782" fill="#FA0204"/>
<path d="M15.6172 15.9441C15.7407 16.0224 15.8556 16.0154 15.9644 15.9469L15.7067 15.6782" stroke="black" stroke-width="0.05" stroke-linejoin="round"/>
<path d="M15.798 15.2089C15.8436 15.2089 15.8807 15.1719 15.8807 15.1262C15.8807 15.0806 15.8436 15.0436 15.798 15.0436C15.7523 15.0436 15.7153 15.0806 15.7153 15.1262C15.7153 15.1719 15.7523 15.2089 15.798 15.2089Z" fill="#CE9D09" stroke="black" stroke-width="0.05" stroke-linejoin="round"/>
<path d="M15.8997 15.3939L15.6903 15.3897C15.6903 15.3897 15.6632 15.2194 15.7937 15.212C15.902 15.2059 15.9041 15.3935 15.8997 15.3939Z" fill="#CE9D09" stroke="black" stroke-width="0.05" stroke-linejoin="round"/>
<path d="M15.7992 15.9094C15.7592 15.8204 15.755 15.7108 15.7662 15.5925L15.7992 15.9094ZM15.7056 15.9149C15.6564 15.8305 15.6473 15.7228 15.6863 15.587L15.7056 15.9149ZM15.964 15.9495C15.9325 15.9098 15.7066 15.893 15.6178 15.947C15.5857 15.947 15.4992 15.3463 15.8034 15.3612C16.0828 15.3748 15.9835 15.9522 15.964 15.9495Z" fill="#FA0204"/>
<path d="M15.7992 15.9094C15.7592 15.8204 15.755 15.7108 15.7662 15.5925M15.7056 15.9149C15.6564 15.8305 15.6473 15.7228 15.6863 15.587M15.964 15.9495C15.9325 15.9098 15.7066 15.893 15.6178 15.947C15.5857 15.947 15.4992 15.3463 15.8034 15.3612C16.0828 15.3748 15.9835 15.9522 15.964 15.9495Z" stroke="black" stroke-width="0.05" stroke-linejoin="round"/>
<path d="M20 6L20 18L4 18L4 6L20 6ZM20 5L4 5C3.4 5 3 5.4 3 6L3 18C3 18.6 3.4 19 4 19L20 19C20.6 19 21 18.6 21 18L21 6C21 5.4 20.6 5 20 5Z" fill="#B5B5B5"/>
</svg>
