<svg width="24" height="24" viewBox="0 0 24 24" fill="none" xmlns="http://www.w3.org/2000/svg">
<path d="M4 7H20V18H4V7Z" fill="#CF142B"/>
<path d="M4 6H20V14H4V6Z" fill="#00247D"/>
<path d="M4 6H20V10H4V6Z" fill="#FFCC00"/>
<path d="M20 6L20 18L4 18L4 6L20 6ZM20 5L4 5C3.4 5 3 5.4 3 6L3 18C3 18.6 3.4 19 4 19L20 19C20.6 19 21 18.6 21 18L21 6C21 5.4 20.6 5 20 5Z" fill="none"/>
<path d="M8.1001 13L8.21235 13.3455H8.57563L8.28173 13.559L8.39399 13.9045L8.1001 13.691L7.80621 13.9045L7.91846 13.559L7.62457 13.3455H7.98784L8.1001 13Z" fill="white"/>
<path d="M8.6001 11.5996L8.71235 11.9451H9.07563L8.78173 12.1586L8.89399 12.5041L8.6001 12.2906L8.30621 12.5041L8.41846 12.1586L8.12457 11.9451H8.48784L8.6001 11.5996Z" fill="white"/>
<path d="M9.6001 10.5L9.71235 10.8455H10.0756L9.78173 11.059L9.89399 11.4045L9.6001 11.191L9.30621 11.4045L9.41846 11.059L9.12457 10.8455H9.48784L9.6001 10.5Z" fill="white"/>
<path d="M14.3003 11L14.4125 11.3455H14.7758L14.4819 11.559L14.5942 11.9045L14.3003 11.691L14.0064 11.9045L14.1187 11.559L13.8248 11.3455H14.188L14.3003 11Z" fill="white"/>
<path d="M11.1001 10L11.2124 10.3455H11.5756L11.2817 10.559L11.394 10.9045L11.1001 10.691L10.8062 10.9045L10.9185 10.559L10.6246 10.3455H10.9878L11.1001 10Z" fill="white"/>
<path d="M13.1001 10L13.2124 10.3455H13.5756L13.2817 10.559L13.394 10.9045L13.1001 10.691L12.8062 10.9045L12.9185 10.559L12.6246 10.3455H12.9878L13.1001 10Z" fill="white"/>
<path d="M15.3003 11.8008L15.4125 12.1463H15.7758L15.4819 12.3598L15.5942 12.7053L15.3003 12.4918L15.0064 12.7053L15.1187 12.3598L14.8248 12.1463H15.188L15.3003 11.8008Z" fill="white"/>
<path d="M15.8003 13L15.9125 13.3455H16.2758L15.9819 13.559L16.0942 13.9045L15.8003 13.691L15.5064 13.9045L15.6187 13.559L15.3248 13.3455H15.688L15.8003 13Z" fill="white"/>
</svg>
