<svg width="246" height="46" viewBox="0 0 246 46" fill="none" xmlns="http://www.w3.org/2000/svg">
<path fill-rule="evenodd" clip-rule="evenodd" d="M21.0665 44.9485L1.26509 35.6841C-0.421696 34.8753 -0.421696 33.6254 1.26509 32.8901L8.1589 29.6549L20.9931 35.6841C22.6799 36.4929 25.3934 36.4929 27.0069 35.6841L39.8411 29.6549L46.7349 32.8901C48.4217 33.6989 48.4217 34.9489 46.7349 35.6841L26.9335 44.9485C25.3934 45.6838 22.6799 45.6838 21.0665 44.9485Z" fill="#FF6F3D"/>
<path fill-rule="evenodd" clip-rule="evenodd" d="M21.0023 33.4842L1.26123 24.2091C-0.420411 23.3993 -0.420411 22.1479 1.26123 21.4118L7.98781 18.2465L21.0023 24.3563C22.6839 25.166 25.3892 25.166 26.9977 24.3563L40.0122 18.2465L46.7388 21.4118C48.4204 22.2215 48.4204 23.4729 46.7388 24.2091L26.9977 33.4842C25.3161 34.294 22.6108 34.294 21.0023 33.4842Z" fill="#95C038"/>
<path fill-rule="evenodd" clip-rule="evenodd" d="M21.0023 22.139L1.26123 12.9973C-0.420411 12.1992 -0.420411 10.9658 1.26123 10.2403L21.0023 1.09856C22.6839 0.300479 25.3892 0.300479 26.9977 1.09856L46.7388 10.2403C48.4204 11.0383 48.4204 12.2717 46.7388 12.9973L26.9977 22.139C25.3161 22.8645 22.6108 22.8645 21.0023 22.139Z" fill="#5DC0E8"/>
<path d="M71.3268 11.5C65.6139 11.5 60 14.8408 60 23C60 31.1592 65.6139 34.5 71.3268 34.5C77.0398 34.5 82.6537 31.1592 82.6537 23C82.6537 14.8408 77.0398 11.5 71.3268 11.5ZM71.3268 14.7123C73.0771 14.7123 77.7003 15.3869 77.7003 23C77.7003 30.6131 73.0771 31.2877 71.3268 31.2877C69.5766 31.2877 64.9534 30.6131 64.9534 23C64.9534 15.3869 69.5766 14.7123 71.3268 14.7123Z" fill="white"/>
<path d="M86.4634 11.757V34.243H91.1527V21.0084L91.0536 17.0251H91.1527L92.3085 19.5307L100.366 34.243H106.442V11.757H101.753V24.9916L101.852 28.9749H101.753L100.531 25.9232L92.5396 11.757H86.4634Z" fill="white"/>
<path d="M111.069 11.757V34.243H124.939V30.4525H115.759V11.757H111.069Z" fill="white"/>
<path d="M120.976 11.757L129.496 25.0559V34.243H134.185V25.1201L142.507 11.757H137.554L132.765 19.6592L131.973 21.2011H131.874L131.147 19.6592L126.392 11.757H120.976Z" fill="white"/>
<path d="M153.433 11.5C147.72 11.5 142.106 14.8408 142.106 23C142.106 31.1592 147.72 34.5 153.433 34.5C159.145 34.5 164.759 31.1592 164.759 23C164.759 14.8408 159.145 11.5 153.433 11.5ZM153.433 14.7123C155.183 14.7123 159.806 15.3869 159.806 23C159.806 30.6131 155.183 31.2877 153.433 31.2877C151.682 31.2877 147.059 30.6131 147.059 23C147.059 15.3869 151.682 14.7123 153.433 14.7123Z" fill="white"/>
<path d="M168.569 11.757V34.243H173.258V24.7025H181.118V21.0084H173.258V15.5475H181.514V11.757H168.569Z" fill="white"/>
<path d="M184.823 11.757V34.243H189.512V24.7025H197.371V21.0084H189.512V15.5475H197.768V11.757H184.823Z" fill="white"/>
<path d="M201.076 34.243H205.765V11.757H201.076V34.243Z" fill="white"/>
<path d="M227.271 29.7137C226.115 30.2277 224.497 30.7095 222.449 30.7095C218.288 30.7095 214.524 28.493 214.524 23.0642C214.524 18.4707 217.595 15.2905 222.779 15.2905C224.53 15.2905 226.016 15.6117 227.37 16.1257L227.568 12.2709C225.818 11.7249 224.266 11.5 222.449 11.5C215.184 11.5 209.57 15.3869 209.57 23.1285C209.57 31.3198 215.845 34.5 221.591 34.5C223.44 34.5 225.52 34.2109 227.568 33.5363L227.271 29.7137Z" fill="white"/>
<path d="M231.196 11.757V34.243H245V30.2598H235.886V24.5098H244.174V20.8156H235.886V15.7402H245V11.757H231.196Z" fill="white"/>
</svg>
