<svg width="12" height="12" viewBox="0 0 12 12" fill="none" xmlns="http://www.w3.org/2000/svg">
<path fill-rule="evenodd" clip-rule="evenodd" d="M6 -5.24537e-07C2.68629 -8.1423e-07 8.1423e-07 2.68629 5.24537e-07 6C2.34843e-07 9.31371 2.68629 12 6 12C9.31371 12 12 9.31371 12 6C12 2.68629 9.31371 -2.34843e-07 6 -5.24537e-07ZM7 6C7 6.55228 6.55229 7 6 7C5.44772 7 5 6.55228 5 6L5 3C5 2.44771 5.44772 2 6 2C6.55229 2 7 2.44771 7 3L7 6ZM6 10C6.55228 10 7 9.55228 7 9C7 8.44771 6.55229 8 6 8C5.44772 8 5 8.44771 5 9C5 9.55228 5.44772 10 6 10Z" fill="#F21C0E"/>
</svg>
