<svg width="17" height="17" viewBox="0 0 17 17" fill="none" xmlns="http://www.w3.org/2000/svg">
<path fill-rule="evenodd" clip-rule="evenodd" d="M15.9913 7.00235L5.7581 7.00934L9.90483 2.58703C10.1145 2.37637 10.2295 2.09099 10.2295 1.79147C10.2295 1.49195 10.1145 1.20857 9.90483 0.997406L9.2385 0.327144C9.02897 0.116481 8.74977 0 8.45202 0C8.15411 0 7.87474 0.115649 7.66521 0.326312L0.32456 7.70602C0.114203 7.91751 -0.000823092 8.19923 4.43411e-06 8.49892C-0.000823092 8.80027 0.114203 9.08215 0.32456 9.29332L7.66521 16.6737C7.87474 16.8842 8.15395 17 8.45202 17C8.74977 17 9.02897 16.884 9.2385 16.6737L9.90483 16.0034C10.1145 15.7931 10.2295 15.5122 10.2295 15.2127C10.2295 14.9133 10.1145 14.6473 9.90483 14.4368L5.7581 10.0027H16.0548C16.6683 10.0027 17 9.56605 17 8.94953V8.00155C17 7.38503 16.6048 7.00235 15.9913 7.00235Z" fill="#A3A9AE"/>
</svg>
