<svg width="12" height="12" viewBox="0 0 12 12" fill="none" xmlns="http://www.w3.org/2000/svg">
<circle cx="6" cy="6" r="6" fill="#F21C0E"/>
<path d="M6 9.93747C5.48319 9.93747 5.0625 9.51678 5.0625 8.99997C5.0625 8.48316 5.48319 8.06247 6 8.06247C6.51681 8.06247 6.9375 8.48316 6.9375 8.99997C6.9375 9.51678 6.51681 9.93747 6 9.93747ZM6.9375 6.06253C6.9375 6.57934 6.51682 6.99999 6 6.99999C5.48319 6.99999 5.0625 6.57934 5.0625 6.06253L5.0625 3.00002C5.0625 2.48321 5.48319 2.0625 6 2.0625C6.51681 2.0625 6.9375 2.48321 6.9375 3.00002L6.9375 6.06253Z" fill="white"/>
</svg>
