<svg width="24" height="24" viewBox="0 0 24 24" fill="none" xmlns="http://www.w3.org/2000/svg">
<path fill-rule="evenodd" clip-rule="evenodd" d="M4.19048 18.9959V19H19.0476V18.9965C21.7997 18.8953 24 16.6109 24 13.8077C24 10.9401 21.6975 8.61538 18.8571 8.61538H18.5923C17.7367 5.89494 16 3 11.619 3C7 3 4.77093 6.68754 4.5 10.1538H4.38095C1.96142 10.1538 0 12.1341 0 14.5769C0 16.9553 1.85931 18.8952 4.19048 18.9959ZM10.009 19L14.0092 19L14.0092 16.5C14.0092 16.2239 14.2331 16 14.5092 16H15.8258C16.6801 16 17.141 14.9979 16.585 14.3492L12.7593 9.8858C12.3602 9.42019 11.6398 9.42019 11.2407 9.8858L7.41496 14.3492C6.85896 14.9979 7.31987 16 8.17422 16H9.50902C9.78516 16 10.009 16.2239 10.009 16.5L10.009 19Z" fill="#A3A9AE"/>
</svg>
