<svg width="16" height="16" viewBox="0 0 16 16" fill="none" xmlns="http://www.w3.org/2000/svg">
<path fill-rule="evenodd" clip-rule="evenodd" d="M0 15C0 15.5523 0.447715 16 1 16H15C15.5523 16 16 15.5523 16 15C16 14.4477 15.5523 14 15 14H1C0.447715 14 0 14.4477 0 15ZM0 8C0 8.55228 0.447715 9 1 9H15C15.5523 9 16 8.55228 16 8C16 7.44771 15.5523 7 15 7H1C0.447715 7 0 7.44771 0 8ZM1 2C0.447715 2 0 1.55229 0 1C0 0.447715 0.447715 0 1 0H15C15.5523 0 16 0.447715 16 1C16 1.55229 15.5523 2 15 2H1Z" fill="white"/>
</svg>
