<svg width="16" height="16" viewBox="0 0 16 16" fill="none" xmlns="http://www.w3.org/2000/svg">
<path fill-rule="evenodd" clip-rule="evenodd" d="M1 0C0.447715 0 0 0.447715 0 1V6C0 6.55228 0.447715 7 1 7H6C6.55228 7 7 6.55228 7 6V1C7 0.447715 6.55228 0 6 0H1ZM1 9C0.447715 9 0 9.44771 0 10V15C0 15.5523 0.447715 16 1 16H6C6.55228 16 7 15.5523 7 15V10C7 9.44772 6.55228 9 6 9H1ZM9 1C9 0.447715 9.44772 0 10 0H15C15.5523 0 16 0.447715 16 1V6C16 6.55228 15.5523 7 15 7H10C9.44771 7 9 6.55228 9 6V1ZM10 9C9.44772 9 9 9.44771 9 10V15C9 15.5523 9.44771 16 10 16H15C15.5523 16 16 15.5523 16 15V10C16 9.44772 15.5523 9 15 9H10Z" fill="#A3A9AE"/>
</svg>
