<svg width="17" height="16" viewBox="0 0 17 16" fill="none" xmlns="http://www.w3.org/2000/svg">
<path d="M14.8483 7.24939L11.8447 10.252C10.187 11.9107 7.49775 11.9107 5.83975 10.252C5.57858 9.99154 5.37427 9.6981 5.19485 9.39549L6.59044 8.00001C6.65678 7.93311 6.7387 7.89477 6.81698 7.84961C6.91346 8.17925 7.08189 8.49132 7.34113 8.75059C8.16901 9.57914 9.51614 9.57799 10.3435 8.75059L13.3462 5.74808C14.1747 4.91963 14.1747 3.57282 13.3462 2.745C12.5187 1.91719 11.1719 1.91719 10.3435 2.745L9.27581 3.81388C8.40934 3.47651 7.47584 3.3858 6.56708 3.51897L8.84233 1.2438C10.501 -0.414599 13.1896 -0.414599 14.8483 1.2438C16.5062 2.90212 16.5062 5.5911 14.8483 7.24939ZM6.90821 12.1867L5.83971 13.2555C5.0119 14.0829 3.66469 14.0829 2.83674 13.2555C2.00885 12.427 2.00885 11.0802 2.83674 10.252L5.83971 7.24939C6.66819 6.42101 8.01448 6.42101 8.8423 7.24939C9.10094 7.5081 9.26954 7.8201 9.36694 8.14932C9.44567 8.10356 9.52658 8.06638 9.59288 7.99997L10.9884 6.60505C10.8101 6.30125 10.6047 6.00886 10.3435 5.74815C8.68588 4.08975 5.99637 4.08975 4.33798 5.74815L1.33546 8.75077C-0.322758 10.4097 -0.322758 13.0979 1.33546 14.7566C2.99386 16.4145 5.68273 16.4145 7.34109 14.7566L9.61693 12.4809C8.70769 12.6149 7.77394 12.5234 6.90821 12.1867Z" fill="#333333"/>
</svg>
