<svg width="16" height="16" viewBox="0 0 16 16" fill="none" xmlns="http://www.w3.org/2000/svg">
<path fill-rule="evenodd" clip-rule="evenodd" d="M9.95446 14.6591C9.49648 15.1136 8.75709 15.1136 8.30146 14.6591L1.86207 8.6339C1.50204 8.297 1.07291 7.65859 1.04197 7.16717C0.959191 5.83771 1.01755 3.29201 1.05807 1.94233C1.07263 1.45042 1.4872 1.03804 1.9806 1.02673C3.70894 0.986639 7.37082 0.943817 7.7112 1.28372L14.8024 7.6841C15.2577 8.13865 14.8447 9.28836 14.3858 9.74526L9.95446 14.6591Z" stroke="#333333" stroke-width="2"/>
<path fill-rule="evenodd" clip-rule="evenodd" d="M4.70716 3.29277C4.31616 2.90241 3.68392 2.90241 3.29259 3.29277C2.90247 3.68434 2.90247 4.31663 3.29259 4.70698C3.6842 5.09767 4.31644 5.09767 4.70716 4.70698C5.09761 4.31663 5.09761 3.68401 4.70716 3.29277Z" fill="#333333"/>
</svg>
