<svg width="16" height="16" viewBox="0 0 16 16" fill="none" xmlns="http://www.w3.org/2000/svg">
<path fill-rule="evenodd" clip-rule="evenodd" d="M1 0C0.447715 0 0 0.447715 0 0.999999V5.85714C0 6.40943 0.447715 6.85714 1 6.85714H5.85714C6.40943 6.85714 6.85714 6.40943 6.85714 5.85714V1C6.85714 0.447715 6.40943 0 5.85714 0H1ZM1 9.14286C0.447715 9.14286 0 9.59057 0 10.1429V15C0 15.5523 0.447715 16 1 16H5.85714C6.40943 16 6.85714 15.5523 6.85714 15V10.1429C6.85714 9.59057 6.40943 9.14286 5.85714 9.14286H1ZM9.14286 0.999999C9.14286 0.447715 9.59057 0 10.1429 0H15C15.5523 0 16 0.447715 16 1V5.85714C16 6.40943 15.5523 6.85714 15 6.85714H10.1429C9.59057 6.85714 9.14286 6.40943 9.14286 5.85714V0.999999ZM10.1429 9.14286C9.59057 9.14286 9.14286 9.59057 9.14286 10.1429V15C9.14286 15.5523 9.59057 16 10.1429 16H15C15.5523 16 16 15.5523 16 15V10.1429C16 9.59057 15.5523 9.14286 15 9.14286H10.1429Z" fill="white"/>
</svg>
