<svg width="16" height="16" viewBox="0 0 16 16" fill="none" xmlns="http://www.w3.org/2000/svg">
<path fill-rule="evenodd" clip-rule="evenodd" d="M0 15C0 15.5523 0.447715 16 1 16H15C15.5523 16 16 15.5523 16 15V14.7143C16 14.162 15.5523 13.7143 15 13.7143H1C0.447715 13.7143 0 14.162 0 14.7143V15ZM0 8.14286C0 8.69514 0.447715 9.14286 1 9.14286H15C15.5523 9.14286 16 8.69514 16 8.14286V7.85714C16 7.30486 15.5523 6.85714 15 6.85714H1C0.447715 6.85714 0 7.30486 0 7.85714V8.14286ZM1 2.28571C0.447715 2.28571 0 1.838 0 1.28571V1C0 0.447716 0.447715 0 1 0H15C15.5523 0 16 0.447716 16 1V1.28571C16 1.838 15.5523 2.28571 15 2.28571H1Z" fill="#A3A9AE"/>
</svg>
