<svg width="16" height="16" viewBox="0 0 16 16" fill="none" xmlns="http://www.w3.org/2000/svg">
<path d="M7.99277 0C4.6859 0 2 2.6859 2 5.99275C2 7.63894 2.53428 8.592 3.01083 9.4151C3.40071 10.0938 3.88448 10.4603 4 11.5C4 12.5 4 14.0682 4 15C4 15.5 4.5 16 5 16L11 15.9854C11.5 15.9854 12 15.5 12 15C12 14.1076 12 12.4305 12 11.5C12.1155 10.4603 12.5993 10.0938 12.9892 9.4151C13.4657 8.57756 14 7.63894 14 5.97831C13.9855 2.6859 11.2996 0 7.99277 0ZM5.25 12H10.75V13H5.25V12ZM10.7415 10.6628V10.6917C10.7415 10.7928 10.6548 10.8795 10.5537 10.8795H5.47525C5.37416 10.8795 5.28751 10.7928 5.28751 10.6917L5.25864 10.4174C5.08537 9.17549 4.78699 9.29957 4.41152 8.63534C3.9783 7.88443 3.61729 7.23463 3.61729 6.00719C3.61729 3.59564 5.58119 1.63176 7.99274 1.63176C10.4043 1.63176 12.3682 3.58121 12.3682 5.99275C12.3682 7.22019 11.9927 7.86999 11.574 8.6209C11.1696 9.34291 10.8859 9.26213 10.7415 10.6628ZM5.25 14H10.75V15H5.25V14Z" fill="#333333"/>
</svg>
