<svg width="16" height="16" viewBox="0 0 16 16" fill="none" xmlns="http://www.w3.org/2000/svg">
<path fill-rule="evenodd" clip-rule="evenodd" d="M15.9665 3.81262C15.9723 3.8831 15.9784 3.95891 15.9855 4.04094C15.9855 4.04094 15.999 4.15335 15.9993 4.20073C15.9993 4.64511 15.7007 5.00002 15.3332 5.00002H12.6491C12.2898 4.98611 11.9994 4.63459 11.9994 4.19809L11.995 3.87977C11.995 3.3929 11.667 3.00001 11.2588 3.00001H4.74118C4.33392 3.00001 4.00373 3.3929 4.00373 3.87977L4.00217 4.18306C4.00217 4.61955 3.71019 4.98611 3.3515 5.00002H0.667272C0.301369 5.00002 0 4.64511 0 4.20073C0 4.15223 0.0144106 4.04094 0.0144106 4.04094C0.110585 2.90704 0.13908 2.84378 0.999954 1.83094C2.03751 0.611316 5.14968 0 8.00078 0C10.8494 0 13.963 0.610564 14.9993 1.83094C15.8908 2.88081 15.8931 2.90887 15.9665 3.81262ZM10.9995 4.83336V5L15.4749 8.80795C15.7972 9.11122 15.9993 9.53416 15.9993 10L16 13.6669C16 14.4047 15.3789 15 14.6088 15H14.0001V15.1654C14.0001 15.6256 13.4803 16 13.0001 16C12.5212 16 12.0002 15.6256 12.0002 15.1654V15H4.00055V15.1654C4.00055 15.6256 3.48243 16 3.0006 16C2.52203 16 2.00064 15.6256 2.00064 15.1654V15H1.39197C0.623783 15 0.000732388 14.4044 0.000732388 13.6669L0 10C0 9.53385 0.201691 9.11122 0.525311 8.80795L4.99977 5V4.83336C4.99977 4.37438 5.51953 4 5.99973 4C6.48025 4 6.99968 4.3747 6.99968 4.83336V5H8.99959V4.83336C8.99959 4.37438 9.52098 4 9.99954 4C10.4784 4 10.9995 4.3747 10.9995 4.83336ZM7.99963 13.0001C9.65641 13.0001 10.9995 11.6569 10.9995 10C10.9995 8.34318 9.65641 7.00003 7.99963 7.00003C6.34286 7.00003 4.99977 8.34318 4.99977 10C4.99977 11.6569 6.34286 13.0001 7.99963 13.0001ZM7.99968 11C8.55196 11 8.99968 10.5523 8.99968 10C8.99968 9.44776 8.55196 9.00004 7.99968 9.00004C7.44739 9.00004 6.99968 9.44776 6.99968 10C6.99968 10.5523 7.44739 11 7.99968 11Z" fill="#333333"/>
</svg>
