<svg width="16" height="16" viewBox="0 0 16 16" fill="none" xmlns="http://www.w3.org/2000/svg">
<path fill-rule="evenodd" clip-rule="evenodd" d="M14.4 0H1.6C0.72 0 0 0.72 0 1.6V14.4C0 15.28 0.72 16 1.6 16H14.4C15.28 16 16 15.28 16 14.4V1.6C16 0.72 15.28 0 14.4 0ZM12.56 5.84C12.48 9.52 10.16 12.08 6.64 12.24C5.2 12.32 4.16 11.84 3.2 11.28C4.24 11.44 5.6 11.04 6.32 10.4C5.28 10.32 4.64 9.76 4.32 8.88C4.64 8.96 4.96 8.88 5.2 8.88C4.24 8.56 3.6 8 3.52 6.72C3.76 6.88 4.08 6.96 4.4 6.96C3.68 6.56 3.2 5.04 3.76 4.08C4.8 5.2 6.08 6.16 8.16 6.32C7.6 4.08 10.64 2.88 11.84 4.4C12.4 4.32 12.8 4.08 13.2 3.92C13.04 4.48 12.72 4.8 12.32 5.12C12.72 5.04 13.12 4.96 13.44 4.8C13.36 5.2 12.96 5.52 12.56 5.84Z" fill="#333333"/>
</svg>
