<?xml version="1.0" standalone="no"?>
<!DOCTYPE svg PUBLIC "-//W3C//DTD SVG 20010904//EN"
 "http://www.w3.org/TR/2001/REC-SVG-20010904/DTD/svg10.dtd">
<svg version="1.0" xmlns="http://www.w3.org/2000/svg"
 width="512.000000pt" height="512.000000pt" viewBox="0 0 512.000000 512.000000"
 preserveAspectRatio="xMidYMid meet">
<metadata>
Created by potrace 1.16, written by Peter Selinger 2001-2019
</metadata>
<g transform="translate(0.000000,512.000000) scale(0.100000,-0.100000)"
fill="#000000" stroke="none">
<path d="M2255 5108 c-105 -12 -298 -51 -409 -83 -994 -288 -1724 -1155 -1835
-2177 -14 -125 -14 -451 0 -576 99 -919 703 -1723 1562 -2081 170 -71 487
-161 566 -161 l21 0 0 895 0 895 -325 0 -325 0 0 370 0 370 325 0 325 0 0 359
c0 397 6 462 61 617 107 305 331 497 659 564 94 20 128 21 325 17 184 -4 433
-26 483 -42 9 -3 12 -76 12 -318 l0 -314 -212 -6 c-263 -7 -317 -20 -402 -98
-108 -99 -126 -176 -126 -556 l0 -223 355 0 c312 0 355 -2 355 -15 0 -17 -96
-652 -106 -698 l-6 -27 -299 0 -299 0 0 -895 0 -895 21 0 c79 0 396 90 566
161 859 358 1463 1162 1562 2081 14 125 14 451 0 576 -128 1181 -1080 2133
-2261 2261 -115 13 -479 12 -593 -1z"/>
</g>
</svg>
