<svg width="96" height="96" viewBox="0 0 96 96" fill="none" xmlns="http://www.w3.org/2000/svg">
<rect y="24" width="91" height="58" rx="6" fill="#B2BBC0"/>
<path d="M0 11C0 7.68629 2.68629 5 6 5H33C36.3137 5 39 7.68629 39 11V18H85C88.3137 18 91 20.6863 91 24V30C91 26.6863 88.3137 24 85 24H6C2.68629 24 0 26.6863 0 30V11Z" fill="#788790"/>
<path d="M75.5 65.8591L69.0424 54.5693C68.4084 54.9488 67.8683 55.4706 67.4926 56.1347L55.5636 77.0065C55.1948 77.6563 55.0005 78.3921 55 79.1411H67.9152L75.5 65.8591Z" fill="#00AC47"/>
<path d="M58.0997 85.711L59.9078 88.8655C60.2835 89.5296 60.8236 90.0514 61.4576 90.4309L68 79H55C55 79.7353 55.1879 80.6116 55.5636 81.2757L58.0997 85.711Z" fill="#0066DA"/>
<path d="M83 79H68L61.4576 90.4309C62.0916 90.8103 62.8196 91.0001 63.571 91.0001H87.429C88.1804 91.0001 88.9084 90.7866 89.5424 90.4309L83 79Z" fill="#2684FC"/>
<path d="M89.5424 90.4309C90.1764 90.0514 90.7165 89.5296 91.0922 88.8655L91.8436 87.561L95.4364 81.2757C95.8121 80.6116 96 79.7353 96 79H83L89.5424 90.4309Z" fill="#EA4335"/>
<path d="M89.4719 66.5706L83.5074 56.1347C83.1317 55.4706 82.5916 54.9488 81.9576 54.5693L75.5 65.8591L83.0417 79H96C96 78.2647 95.7887 77.6706 95.4129 77.0065L89.4719 66.5706Z" fill="#FFBA00"/>
<path d="M75.5 65.859L81.9576 54.5692C81.3236 54.1897 80.5957 54 79.8442 54H71.1558C70.4044 54 69.6764 54.2135 69.0424 54.5692L75.5 65.859Z" fill="#00832D"/>
</svg>
