<svg width="96" height="96" viewBox="0 0 96 96" fill="none" xmlns="http://www.w3.org/2000/svg">
<g clip-path="url(#clip0)">
<rect y="24" width="91" height="58" rx="6" fill="#B2BBC0"/>
<path d="M0 11C0 7.68629 2.68629 5 6 5H33C36.3137 5 39 7.68629 39 11V18H85C88.3137 18 91 20.6863 91 24V30C91 26.6863 88.3137 24 85 24H6C2.68629 24 0 26.6863 0 30V11Z" fill="#788790"/>
<path d="M71.2777 72.3298L74.5562 66.6504L67.0568 53.6611L71.2777 72.3298Z" fill="#089156"/>
<path d="M53 78.0083L60.4995 90.9992L71.2777 72.3299L67.0569 53.6616L53 78.0083Z" fill="#0BA25E"/>
<path d="M67.0569 53.6616L74.5563 66.6507L72.3465 70.4786L74.5565 66.6507L67.057 53.6614L67.0569 53.6616Z" fill="#0BA25E"/>
<path d="M74.5564 78.0081H67.9989L60.4994 90.9989L74.5564 78.0081Z" fill="#296AD9"/>
<path d="M60.4995 90.9987L88.6135 91.0001L96.113 78.0094L74.5562 78.0082L60.4995 90.9987Z" fill="#2A71E9"/>
<path d="M81.1108 78.0079L96.113 78.0093L77.835 72.3311L81.1108 78.0079Z" fill="#E3B73A"/>
<path d="M96.113 78.0094L82.0562 53.6609H67.0568L77.836 72.3314L96.113 78.0094Z" fill="#FCCD48"/>
</g>
<defs>
<clipPath id="clip0">
<rect width="96" height="96" fill="white"/>
</clipPath>
</defs>
</svg>
