<svg width="96" height="96" viewBox="0 0 96 96" fill="none" xmlns="http://www.w3.org/2000/svg">
<rect y="24" width="91" height="58" rx="6" fill="#B2BBC0"/>
<path d="M68.1594 70.3287L68.159 70.3302C66.3841 69.2291 64.3372 68.6471 62.2495 68.65C62.2013 68.65 62.1539 68.653 62.1057 68.6536C55.8958 68.7307 50.924 73.8356 51.0009 80.0557C51.0287 82.3121 51.7326 84.508 53.0212 86.3589L78 75.8083L68.1594 70.3287Z" fill="#0078D4"/>
<path d="M53.0132 86.3521C55.1141 89.3777 58.5617 90.8031 62.2412 90.8011H86.9889C90.3502 90.8021 93.2985 89.3324 94.8932 86.3686L77.9897 75.8025L53.0132 86.3521Z" fill="#28A8EA"/>
<path d="M86.9877 72.8062C85.7416 72.8049 84.3664 73.1273 83.2226 73.6226L77.9877 75.8062L94.8927 86.3733C97.2867 81.9216 95.6245 76.3688 91.1801 73.9708C89.9632 73.3142 88.3851 72.8062 86.9877 72.8062Z" fill="#1490DF"/>
<path d="M74.2514 63C80.2394 62.9863 85.4127 66.595 87.0051 72.8144C85.7613 72.8133 84.3881 73.1348 83.2456 73.6285L83.2389 73.6314L78.005 75.8146L78.0025 75.8154L78.0008 75.8147L68.159 70.3344L68.1586 70.3359C66.462 69.2834 64.5169 68.7051 62.5252 68.6583C65.226 64.8639 69.5937 63.0107 74.2514 63Z" fill="#0364B8"/>
<path d="M0 11C0 7.68629 2.68629 5 6 5H33C36.3137 5 39 7.68629 39 11V18H85C88.3137 18 91 20.6863 91 24V30C91 26.6863 88.3137 24 85 24H6C2.68629 24 0 26.6863 0 30V11Z" fill="#788790"/>
</svg>
