<svg width="96" height="96" viewBox="0 0 96 96" fill="none" xmlns="http://www.w3.org/2000/svg">
<rect y="24" width="91" height="58" rx="6" fill="#B2BBC0"/>
<path d="M0 11C0 7.68629 2.68629 5 6 5H33C36.3137 5 39 7.68629 39 11V18H85C88.3137 18 91 20.6863 91 24V30C91 26.6863 88.3137 24 85 24H6C2.68629 24 0 26.6863 0 30V11Z" fill="#788790"/>
<path d="M87.2812 72.325C86.0063 65.8562 80.325 61 73.5 61C68.0812 61 63.375 64.075 61.0312 68.575C55.3875 69.175 51 73.9563 51 79.75C51 85.9562 56.0438 91 62.25 91H86.625C91.8 91 96 86.8 96 81.625C96 76.675 92.1562 72.6625 87.2812 72.325Z" fill="#96D1DE"/>
</svg>
