<svg width="96" height="96" viewBox="0 0 96 96" fill="none" xmlns="http://www.w3.org/2000/svg">
<g clip-path="url(#clip0)">
<rect y="24" width="91" height="58" rx="6" fill="#B2BBC0"/>
<path d="M0 11C0 7.68629 2.68629 5 6 5H33C36.3137 5 39 7.68629 39 11V18H85C88.3137 18 91 20.6863 91 24V30C91 26.6863 88.3137 24 85 24H6C2.68629 24 0 26.6863 0 30V11Z" fill="#788790"/>
<path d="M51.4454 85.9857C51.3005 85.5391 51.1653 85.0463 51.1111 84.6294C50.6945 81.4243 54.3013 76.9099 54.3013 76.9099L57.2195 73.4977C59.2056 68.8912 59.4428 66.1276 65.5623 62.6974C70.8641 59.7258 76.1278 60.2862 80.9495 62.0626C80.9495 62.0626 85.9706 62.0035 88.9401 62.4073C89.2165 62.4449 89.4769 62.4769 89.7252 62.5074C91.227 62.8564 92.5571 63.1816 94.0271 64.134C94.7038 64.5724 95.1262 65.0984 95.4776 65.5622C92.2581 61.7282 81.6433 63.4212 69.6177 68.6902C58.7507 74.1101 50.6565 81.2106 51.4454 85.9857Z" fill="black"/>
<path d="M95.669 65.8076C97.5194 69.9324 91.501 79.1145 79.0286 85.5733C68.3347 90.7272 55.3015 91.5964 51.874 87.213C49.2045 82.5005 57.7582 74.5906 69.6098 68.6797C81.8955 63.2967 92.7089 61.6459 95.669 65.8076Z" fill="#0077FF"/>
<path d="M86.6383 74.307C87.6486 76.2726 84.0703 79.6993 78.1256 82.7616C73.0388 85.2251 67.3696 86.4117 65.8073 84.3919C64.6975 82.4713 68.5742 78.687 74.2169 75.8727C80.0465 73.27 85.2789 72.415 86.6383 74.307Z" fill="white"/>
</g>
<defs>
<clipPath id="clip0">
<rect width="96" height="96" fill="white"/>
</clipPath>
</defs>
</svg>
