<svg width="24" height="24" viewBox="0 0 24 24" fill="none" xmlns="http://www.w3.org/2000/svg">
<path d="M24 9L0 9L0 3.45C0 3.15 0.15 3 0.45 3L23.55 3C23.85 3 24 3.15 24 3.45V9Z" fill="#00732F"/>
<path d="M23.55 21L0.45 21C0.15 21 0 20.85 0 20.55L0 15L24 15V20.55C24 20.85 23.85 21 23.55 21Z" fill="black"/>
<path d="M24 9L0 9L0 15L24 15V9Z" fill="#F5F5F5"/>
<path d="M6 3L6 21L0.450005 21C0.150005 21 1.34155e-09 20.8875 4.02465e-09 20.6625L2.10623e-07 3.3375C2.13306e-07 3.1125 0.150005 3 0.450005 3L6 3Z" fill="#FF0000"/>
</svg>
