<svg width="24" height="24" viewBox="0 0 24 24" fill="none" xmlns="http://www.w3.org/2000/svg">
<path d="M24 9L0 9L0 3.53333C0 3.26666 0.15 3 0.45 3L23.55 3C23.85 3 24 3.26666 24 3.53333V9Z" fill="#00B9E4"/>
<path d="M23.55 21L0.45 21C0.15 21 0 20.7333 0 20.4667L0 15L24 15V20.4667C24 20.7333 23.85 21 23.55 21Z" fill="#3F9C35"/>
<path d="M24 9L0 9L0 15L24 15V9Z" fill="#ED2939"/>
<path fill-rule="evenodd" clip-rule="evenodd" d="M12 15C12.9798 15 13.85 14.5303 14.3975 13.8037C13.9482 14.2349 13.3383 14.5 12.6664 14.5C11.2856 14.5 10.1664 13.3807 10.1664 12C10.1664 10.6193 11.2856 9.49998 12.6664 9.49998C13.3382 9.49998 13.9481 9.76499 14.3973 10.1962C13.8498 9.46968 12.9798 9 12 9C10.3431 9 9 10.3431 9 12C9 13.6569 10.3431 15 12 15ZM15.6518 11.2302L15.3329 10.3334L15.014 11.2302L14.1544 10.8216L14.563 11.6812L13.6662 12.0001L14.563 12.319L14.1544 13.1786L15.014 12.77L15.3329 13.6668L15.6518 12.77L16.5114 13.1786L16.1028 12.319L16.9996 12.0001L16.1028 11.6812L16.5114 10.8216L15.6518 11.2302Z" fill="white"/>
</svg>
