<svg width="24" height="24" viewBox="0 0 24 24" fill="none" xmlns="http://www.w3.org/2000/svg">
<path d="M0.15 20.8499L12 11.9999L0.15 3.1499C-1.45286e-07 3.1499 0 3.29987 0 3.44987L0 20.5499C0 20.6999 -1.45286e-07 20.8499 0.15 20.8499Z" fill="#41479B"/>
<path d="M0.149902 20.85C0.149902 20.85 0.299903 21 0.449903 21L23.5499 21C23.8499 21 23.9999 20.85 23.9999 20.55V12L11.9999 12L0.149902 20.85Z" fill="#FF4B55"/>
<path d="M0.149902 3.15001C0.149902 3.15001 0.299903 3 0.449903 3L23.5499 3C23.8499 3 23.9999 3.14998 23.9999 3.44998V12L11.9999 12L0.149902 3.15001Z" fill="#F5F5F5"/>
</svg>
