<svg width="24" height="24" viewBox="0 0 24 24" fill="none" xmlns="http://www.w3.org/2000/svg">
<path d="M24 21L0 21L0 3.00002C0 3.00002 0.15 3 0.45 3L24 3C24 3 24 3.79998 24 4.59998L24 21Z" fill="#0D5EAF"/>
<path fill-rule="evenodd" clip-rule="evenodd" d="M6 9V13.5H4.5V9H0V7.5H4.5V3H6V7.5H10.5V9H6Z" fill="#F5F5F5"/>
<path d="M24 16.5H0V15H24V16.5Z" fill="#F5F5F5"/>
<path d="M24 19.5H0V18H24V19.5Z" fill="#F5F5F5"/>
<path d="M24 4.5H10.5V3H24V4.5Z" fill="#F5F5F5"/>
<path d="M24 7.5H10.5V6H24V7.5Z" fill="#F5F5F5"/>
<path d="M24 10.5H10.5V9H24V10.5Z" fill="#F5F5F5"/>
<path d="M24 13.5H10.5V12H24V13.5Z" fill="#F5F5F5"/>
</svg>
