<svg width="24" height="24" viewBox="0 0 24 24" fill="none" xmlns="http://www.w3.org/2000/svg">
<path d="M24 6H1.5V7.5H24V6Z" fill="#F5F5F5"/>
<path d="M24 3H3V4.5H24V3Z" fill="#F5F5F5"/>
<path d="M24 9H3V10.5H24V9Z" fill="#F5F5F5"/>
<path d="M24 12H0V13.5H24V12Z" fill="#F5F5F5"/>
<path d="M24 15H0V16.5H24V15Z" fill="#F5F5F5"/>
<path d="M24 18H0V19.5H24V18Z" fill="#F5F5F5"/>
<path d="M24 7.5H0V9H24V7.5Z" fill="#FF4B55"/>
<path d="M24 4.5H0V6H24V4.5Z" fill="#FF4B55"/>
<path d="M0 10.5V12H7.8H10.5V10.5H0Z" fill="#FF4B55"/>
<path d="M24 13.5H0V15H24V13.5Z" fill="#FF4B55"/>
<path d="M24 16.5H0V18H24V16.5Z" fill="#FF4B55"/>
<path d="M24 19.5H0V21H24V19.5Z" fill="#FF4B55"/>
<path d="M24 10.5H0V12H24V10.5Z" fill="#FF4B55"/>
<path d="M13.5 12H12H0V3H13.5V10.5V12Z" fill="#41479B"/>
<path d="M3 3H1.5V4.5H3V3Z" fill="white"/>
<path d="M6 3H4.5V4.5H6V3Z" fill="white"/>
<path d="M9 3H7.5V4.5H9V3Z" fill="white"/>
<path d="M12 3H10.5V4.5H12V3Z" fill="white"/>
<path d="M12 6H10.5V7.5H12V6Z" fill="white"/>
<path d="M9 6H7.5V7.5H9V6Z" fill="white"/>
<path d="M6 6H4.5V7.5H6V6Z" fill="white"/>
<path d="M3 6H1.5V7.5H3V6Z" fill="white"/>
<path d="M3 9H1.5V10.5H3V9Z" fill="white"/>
<path d="M6 9H4.5V10.5H6V9Z" fill="white"/>
<path d="M9 9H7.5V10.5H9V9Z" fill="white"/>
<path d="M12 9H10.5V10.5H12V9Z" fill="white"/>
</svg>
