<svg width="24" height="24" viewBox="0 0 24 24" fill="none" xmlns="http://www.w3.org/2000/svg">
<path d="M23.55 21L0.45 21C0.15 21 0 20.85 0 20.55L0 3.44998C0 3.14998 0.15 3 0.45 3L23.55 3C23.85 3 24 3.14998 24 3.44998L24 20.55C24 20.85 23.85 21 23.55 21Z" fill="#41479B"/>
<path d="M24 3.44998C24 3.14998 24 3 24 3L19.5 3L15 7.5V3L9 3V7.5L4.5 3L0.45 3C0.15 3 0 3.14998 0 3.44998L0 4.5L4.5 9H0L0 15H4.5L0 19.5L0 20.55C0 20.85 0.15 21 0.45 21H4.5L9 16.5L9 21L15 21L15 15L21 21H24V20.55V19.5L19.5 15H24L24 9H19.5L24 4.5V3.44998Z" fill="#F5F5F5"/>
<path d="M24 10.5L13.5 10.5L13.5 3L10.5 3L10.5 10.5L0 10.5L0 13.5L10.5 13.5L10.5 21L13.5 21L13.5 13.5L24 13.5V10.5Z" fill="#FF4B55"/>
<path d="M19.5 21L15 16.5V15H16.5L21 19.5L22.5 21H19.5Z" fill="#FF4B55"/>
<path d="M1.5 3L7.5 9H9V7.5L4.5 3L1.5 3Z" fill="#FF4B55"/>
<path d="M1.5 21L7.5 15H6L4.5 15L0 19.5L0 21H1.5Z" fill="#FF4B55"/>
<path d="M22.5 3L16.5 9H18H19.5L24 4.5V3L22.5 3Z" fill="#FF4B55"/>
</svg>
