<svg width="24" height="24" viewBox="0 0 24 24" fill="none" xmlns="http://www.w3.org/2000/svg">
<path d="M0.45 21H23.55C23.85 21 24 20.85 24 20.55V3.45C24 3.15 23.85 3 23.55 3H0.45C0.15 3 0 3.15 0 3.45V20.55C0 20.85 0.15 21 0.45 21Z" fill="#C8414B"/>
<path d="M24 6H0V18H24V6Z" fill="#FFD250"/>
<path d="M10.2001 11.9999L10.5001 10.1999C10.5001 10.0499 10.3501 9.8999 10.2001 9.8999H9.9001C9.7501 9.8999 9.6001 10.0499 9.6001 10.1999L10.2001 11.9999Z" fill="#C8414B"/>
<path d="M10.65 11.1001H9.75V15.1501H10.65V11.1001Z" fill="#F5F5F5"/>
<path d="M10.6502 10.6499H9.4502V11.0999H10.6502V10.6499Z" fill="#FAB446"/>
<path d="M10.8002 12H8.7002V12.45H10.8002V12Z" fill="#C8414B"/>
<path d="M10.8001 13.9498L9.6001 13.4998V13.0498L10.8001 13.4998V13.9498Z" fill="#C8414B"/>
<path d="M3.90019 11.9999L4.2002 10.1999C4.2002 10.0499 4.05019 9.8999 3.90019 9.8999H3.7502C3.6002 9.8999 3.4502 10.0499 3.4502 10.1999L3.90019 11.9999Z" fill="#C8414B"/>
<path d="M5.40019 10.6499C5.10019 10.6499 4.9502 10.7999 4.9502 11.0999V14.2499C4.9502 14.8499 5.40019 15.8999 7.05019 15.8999C8.70019 15.8999 9.1502 14.8499 9.1502 14.2499V11.0999C9.1502 10.7999 9.0002 10.6499 8.7002 10.6499H5.40019Z" fill="#F5F5F5"/>
<path d="M7.05019 12.9H4.9502V10.95C4.9502 10.65 5.10019 10.5 5.40019 10.5H7.05019V12.9Z" fill="#C8414B"/>
<path d="M7.0498 12.8999H9.14981V14.0999C9.14981 14.6999 8.6998 15.2999 8.0998 15.2999C7.4998 15.2999 7.0498 14.6999 7.0498 14.0999V12.8999Z" fill="#C8414B"/>
<path d="M4.9502 12.8999H7.05019V14.0999C7.05019 14.6999 6.6002 15.2999 6.0002 15.2999C5.4002 15.2999 4.9502 14.6999 4.9502 14.0999V12.8999Z" fill="#FAB446"/>
<path d="M6.5999 14.9999V12.8999H6.1499V15.2999C6.2999 15.2999 6.4499 15.1499 6.5999 14.9999Z" fill="#C8414B"/>
<path d="M5.8499 15.2999V12.8999H5.3999V14.9999C5.5499 15.1499 5.6999 15.2999 5.8499 15.2999Z" fill="#C8414B"/>
<path d="M6.5999 12H5.3999V12.45H6.5999V12Z" fill="#FFB441"/>
<path d="M6.5999 11.1001H5.3999V11.5501H6.5999V11.1001Z" fill="#FAB446"/>
<path d="M6.44981 11.3999H5.5498V12.2999H6.44981V11.3999Z" fill="#FAB446"/>
<path d="M4.3502 11.1001H3.4502V15.1501H4.3502V11.1001Z" fill="#F5F5F5"/>
<path d="M4.4998 14.8501H3.2998V15.3001H4.4998V14.8501Z" fill="#FAB446"/>
<path d="M4.4998 10.6499H3.2998V11.0999H4.4998V10.6499Z" fill="#FAB446"/>
<path d="M4.7999 15.2998H3.1499V15.7498H4.7999V15.2998Z" fill="#5064AA"/>
<path d="M10.95 14.8501H9.75V15.3001H10.95V14.8501Z" fill="#FAB446"/>
<path d="M10.9498 15.2998H9.2998V15.7498H10.9498V15.2998Z" fill="#5064AA"/>
<path d="M8.4001 10.0498H5.8501V10.4998H8.4001V10.0498Z" fill="#FAB446"/>
<path d="M7.3499 8.7002H6.8999V10.0502H7.3499V8.7002Z" fill="#FFB441"/>
<path d="M6.6 9.4502C6.3 9.4502 6 9.1502 6 8.7002C6 8.2502 6.3 7.9502 6.6 7.9502C6.9 7.9502 7.2 8.2502 7.2 8.7002C7.2 9.1502 6.9 9.4502 6.6 9.4502ZM6.6 8.40019C6.45 8.40019 6.45 8.5502 6.45 8.7002C6.45 8.8502 6.6 9.0002 6.6 9.0002C6.75 9.0002 6.75 8.8502 6.75 8.7002C6.75 8.5502 6.75 8.40019 6.6 8.40019Z" fill="#F5F5F5"/>
<path d="M7.4999 9.4502C7.1999 9.4502 6.8999 9.1502 6.8999 8.7002C6.8999 8.2502 7.1999 7.9502 7.4999 7.9502C7.7999 7.9502 8.0999 8.2502 8.0999 8.7002C8.0999 9.1502 7.7999 9.4502 7.4999 9.4502ZM7.4999 8.40019C7.3499 8.40019 7.3499 8.5502 7.3499 8.7002C7.3499 8.8502 7.4999 9.0002 7.4999 9.0002C7.6499 9.0002 7.6499 8.8502 7.6499 8.7002C7.6499 8.5502 7.4999 8.40019 7.4999 8.40019Z" fill="#F5F5F5"/>
<path d="M8.2499 9.8999C7.9499 9.8999 7.6499 9.5999 7.6499 9.1499C7.6499 8.6999 7.9499 8.3999 8.2499 8.3999C8.5499 8.3999 8.8499 8.6999 8.8499 9.1499C8.8499 9.5999 8.5499 9.8999 8.2499 9.8999ZM8.2499 8.84991C8.0999 8.84991 8.0999 8.9999 8.0999 9.1499C8.0999 9.2999 8.2499 9.4499 8.2499 9.4499C8.2499 9.4499 8.3999 9.2999 8.3999 9.1499C8.5499 8.9999 8.3999 8.84991 8.2499 8.84991Z" fill="#F5F5F5"/>
<path d="M5.85 9.8999C5.55 9.8999 5.25 9.5999 5.25 9.1499C5.25 8.6999 5.55 8.3999 5.85 8.3999C6.15 8.3999 6.45 8.6999 6.45 9.1499C6.45 9.5999 6.15 9.8999 5.85 9.8999ZM5.85 8.84991C5.7 8.84991 5.7 8.9999 5.7 9.1499C5.7 9.2999 5.85 9.4499 5.85 9.4499C6 9.4499 6 9.2999 6 9.1499C6 8.9999 5.85 8.84991 5.85 8.84991Z" fill="#F5F5F5"/>
<path d="M8.25 13.9501V14.2501C8.25 14.4001 8.1 14.5501 8.1 14.5501C7.95 14.5501 7.95 14.4001 7.95 14.2501V13.9501H8.25ZM8.7 13.3501H7.5V14.1001C7.5 14.5501 7.8 14.8501 8.1 14.8501C8.4 14.8501 8.7 14.5501 8.7 14.1001V13.3501Z" fill="#FAB446"/>
<path d="M8.0999 12.4501C7.7999 12.4501 7.6499 12.3001 7.6499 12.0001V11.5501C7.6499 11.2501 7.7999 11.1001 8.0999 11.1001C8.3999 11.1001 8.5499 11.2501 8.5499 11.5501V12.0001C8.5499 12.3001 8.2499 12.4501 8.0999 12.4501Z" fill="#FFA0D2"/>
<path d="M7.6502 12.8999C7.6502 13.3499 7.35019 13.6499 7.05019 13.6499C6.75019 13.6499 6.4502 13.3499 6.4502 12.8999C6.4502 12.4499 6.75019 12.1499 7.05019 12.1499C7.35019 12.2999 7.6502 12.5999 7.6502 12.8999Z" fill="#5064AA"/>
<path d="M7.3499 7.7998H6.8999V9.1498H7.3499V7.7998Z" fill="#FAB446"/>
<path d="M5.8499 10.0502L5.3999 9.6002L5.6999 9.3002C5.9999 9.0002 6.4499 8.7002 7.0499 8.7002C7.6499 8.7002 8.0999 9.0002 8.3999 9.3002L8.6999 9.6002L8.2499 10.0502H5.8499Z" fill="#C8414B"/>
<path d="M7.1999 9.59981C7.1999 9.74981 7.0499 9.8998 7.0499 9.8998C6.8999 9.8998 6.8999 9.74981 6.8999 9.59981C6.8999 9.44981 7.0499 9.2998 7.0499 9.2998C7.1999 9.4498 7.1999 9.44981 7.1999 9.59981Z" fill="#FFD250"/>
<path d="M6.4499 9.59981C6.4499 9.74981 6.2999 9.8998 6.2999 9.8998C6.1499 9.8998 6.1499 9.74981 6.1499 9.59981C6.1499 9.44981 6.2999 9.2998 6.2999 9.2998C6.2999 9.4498 6.4499 9.44981 6.4499 9.59981Z" fill="#FFD250"/>
<path d="M8.0998 9.59981C8.0998 9.74981 7.94981 9.8998 7.94981 9.8998C7.79981 9.8998 7.7998 9.74981 7.7998 9.59981C7.7998 9.44981 7.94981 9.2998 7.94981 9.2998C7.94981 9.4498 8.0998 9.44981 8.0998 9.59981Z" fill="#FFD250"/>
<path d="M5.3998 12H3.2998V12.45H5.3998V12Z" fill="#C8414B"/>
<path d="M3.2998 13.9499L4.4998 13.3499V12.8999L3.2998 13.3499V13.9499Z" fill="#C8414B"/>
</svg>
