<svg width="24" height="24" viewBox="0 0 24 24" fill="none" xmlns="http://www.w3.org/2000/svg">
<path d="M24 20.999H0V4.599C0 3.799 0.15 2.99902 0.45 2.99902H23.55C23.85 2.99902 24 3.799 24 4.599V20.999Z" fill="#F5F5F5"/>
<path d="M14.534 8.09558C12.3747 6.61732 9.45826 7.2217 8.01971 9.43521C7.29815 10.54 7.59146 12.0413 8.67101 12.7805C9.74976 13.5196 11.2801 13.8578 11.9999 12.7491C12.7196 11.6404 14.1047 10.7056 15.1834 11.4408C16.2639 12.18 16.5545 13.6812 15.8337 14.7861C17.2732 12.5689 16.6914 9.57389 14.534 8.09558Z" fill="#FF4B55"/>
<path d="M8.049 9.41206C7.3274 10.5166 7.62072 12.0175 8.70033 12.7564C9.77914 13.4953 11.2364 13.1952 11.9562 12.0868C12.676 10.9785 14.1343 10.6821 15.213 11.4171C16.2936 12.1561 16.5842 13.6569 15.8634 14.7615C14.4258 16.982 11.5101 17.5787 9.35075 16.1008C7.19335 14.6231 6.60947 11.6289 8.049 9.41206Z" fill="#41479B"/>
<path d="M17.8092 5.91538L18.8011 7.28815C18.8844 7.40349 18.8507 7.55921 18.7257 7.63627L18.4742 7.79136C18.3487 7.86871 18.1788 7.83761 18.0951 7.72187L17.102 6.34945C17.0184 6.23399 17.0523 6.07799 17.1776 6.00093L17.4304 5.84555C17.5559 5.76837 17.7256 5.7997 17.8092 5.91538Z" fill="#464655"/>
<path d="M19.3395 8.03221L20.3346 9.40412C20.4186 9.51997 20.3843 9.67672 20.258 9.75349L20.0054 9.90722C19.8801 9.98354 19.7114 9.95216 19.6279 9.83716L18.6335 8.46667C18.5497 8.35128 18.5833 8.19516 18.7087 8.11798L18.9608 7.96283C19.0861 7.88566 19.2557 7.9167 19.3395 8.03221Z" fill="#464655"/>
<path d="M18.8711 5.26287L21.3965 8.75277C21.4801 8.86828 21.4462 9.02434 21.3207 9.10134L21.067 9.25706C20.9416 9.33407 20.772 9.30286 20.6884 9.18735L18.1621 5.69768C18.0784 5.58211 18.1124 5.42594 18.238 5.34893L18.4925 5.19293C18.618 5.11621 18.7874 5.14736 18.8711 5.26287Z" fill="#464655"/>
<path d="M19.9301 4.61124L20.9241 5.98669C21.0079 6.10254 20.9735 6.25894 20.8473 6.33566L20.5945 6.48945C20.4691 6.56577 20.3003 6.53438 20.2169 6.41916L19.2222 5.04553C19.1385 4.93002 19.1724 4.77391 19.2979 4.69684L19.5514 4.54124C19.6769 4.46423 19.8465 4.4955 19.9301 4.61124Z" fill="#464655"/>
<path d="M21.4613 6.73225L22.4537 8.10485C22.5372 8.22024 22.5034 8.37608 22.3783 8.45314L22.1262 8.60829C22.0007 8.68552 21.8309 8.65437 21.7472 8.53863L20.7548 7.16603C20.6713 7.05064 20.7051 6.8948 20.8302 6.81774L21.0823 6.66259C21.2079 6.5853 21.3776 6.6164 21.4613 6.73225Z" fill="#464655"/>
<path d="M4.37422 14.1627L6.89936 17.6489C6.98299 17.7643 6.94921 17.9204 6.82377 17.9974L6.57091 18.1529C6.44547 18.23 6.27593 18.1989 6.19218 18.0833L3.66703 14.5972C3.58335 14.4817 3.61718 14.3257 3.74262 14.2486L3.99554 14.0931C4.12092 14.016 4.29053 14.0472 4.37422 14.1627Z" fill="#464655"/>
<path d="M3.31391 14.8146L4.30531 16.1839C4.38887 16.2993 4.35516 16.4551 4.23003 16.5322L3.97853 16.6873C3.85316 16.7646 3.68343 16.7335 3.59961 16.6179L2.60704 15.249C2.52329 15.1336 2.55706 14.9774 2.6825 14.9003L2.93524 14.7449C3.06062 14.6679 3.23022 14.699 3.31391 14.8146Z" fill="#464655"/>
<path d="M4.84599 16.9319L5.83851 18.3047C5.92201 18.4201 5.88818 18.576 5.76292 18.653L5.51068 18.8083C5.38518 18.8855 5.21551 18.8544 5.13176 18.7387L4.13863 17.3662C4.05506 17.2508 4.0889 17.0947 4.21421 17.0177L4.46707 16.8623C4.59264 16.785 4.7623 16.8162 4.84599 16.9319Z" fill="#464655"/>
<path d="M2.25432 15.4665L4.77785 18.9528C4.86142 19.0682 4.82758 19.2241 4.70245 19.3012L4.45027 19.4565C4.32483 19.5337 4.15516 19.5026 4.07141 19.387L1.54639 15.9011C1.4627 15.7856 1.49666 15.6295 1.6221 15.5525L1.87583 15.3967C2.00114 15.3197 2.17069 15.3509 2.25432 15.4665Z" fill="#464655"/>
<path d="M3.6674 9.40426L6.19217 5.91526C6.27586 5.79964 6.44546 5.76843 6.57096 5.84555L6.82376 6.00098C6.94914 6.07804 6.98291 6.2341 6.89935 6.34956L4.37359 9.83662C4.29009 9.95184 4.12117 9.98317 3.99579 9.90673L3.74398 9.75323C3.61792 9.67645 3.58365 9.51999 3.6674 9.40426Z" fill="#464655"/>
<path d="M2.60689 8.75306L5.1321 5.26338C5.21579 5.14775 5.38552 5.11654 5.51102 5.19378L5.7632 5.34904C5.8884 5.4261 5.92217 5.58199 5.83867 5.69739L3.31413 9.18724C3.23045 9.30286 3.06084 9.33413 2.93534 9.25695L2.68248 9.10152C2.55716 9.02451 2.52332 8.86851 2.60689 8.75306Z" fill="#464655"/>
<path d="M1.54573 8.10427L4.07118 4.61113C4.15487 4.49545 4.32466 4.46418 4.45016 4.54141L4.70234 4.69667C4.82747 4.77374 4.86131 4.92946 4.77793 5.04491L2.25403 8.53857C2.17046 8.65419 2.00079 8.68557 1.87529 8.60851L1.62169 8.45279C1.49619 8.37579 1.46229 8.21978 1.54573 8.10427Z" fill="#464655"/>
<path d="M17.1022 17.6482L18.0947 16.2793C18.1785 16.1637 18.3483 16.1327 18.4737 16.21L18.7252 16.365C18.8503 16.4421 18.8839 16.598 18.8004 16.7134L17.809 18.0826C17.7253 18.1982 17.5557 18.2294 17.4302 18.1523L17.1775 17.9969C17.0522 17.9198 17.0184 17.7638 17.1022 17.6482Z" fill="#464655"/>
<path d="M18.6336 15.5387L19.6278 14.1629C19.7114 14.0473 19.881 14.016 20.0065 14.093L20.2599 14.2485C20.3854 14.3256 20.4193 14.4818 20.3356 14.5973L19.3393 15.9709C19.2557 16.0861 19.0868 16.1173 18.9614 16.0408L18.7101 15.8875C18.5843 15.8106 18.55 15.6543 18.6336 15.5387Z" fill="#464655"/>
<path d="M18.162 18.3039L19.1552 16.9314C19.2389 16.8158 19.4084 16.7845 19.5339 16.8616L19.7878 17.0175C19.9132 17.0945 19.9471 17.2504 19.8635 17.366L18.871 18.7387C18.7874 18.8542 18.618 18.8856 18.4924 18.8086L18.2379 18.6526C18.1124 18.5757 18.0784 18.4195 18.162 18.3039Z" fill="#464655"/>
<path d="M19.6945 16.1832L20.6883 14.8139C20.772 14.6985 20.9414 14.6674 21.0667 14.7444L21.3205 14.9001C21.446 14.9772 21.4799 15.1334 21.396 15.249L20.4022 16.6184C20.3186 16.7337 20.1491 16.7648 20.0238 16.6879L19.77 16.5321C19.6445 16.455 19.6106 16.2988 19.6945 16.1832Z" fill="#464655"/>
<path d="M19.2228 18.9521L20.2171 17.5819C20.3006 17.467 20.4693 17.4356 20.5946 17.5119L20.8474 17.6657C20.9735 17.7425 21.0079 17.899 20.924 18.0149L19.9304 19.3868C19.8468 19.5024 19.6773 19.5335 19.5518 19.4566L19.2984 19.301C19.1728 19.2238 19.139 19.0676 19.2228 18.9521Z" fill="#464655"/>
<path d="M20.7548 16.8384L21.7466 15.4666C21.8303 15.3509 22.0001 15.3196 22.1256 15.3969L22.3775 15.552C22.5027 15.6291 22.5364 15.7851 22.4528 15.9005L21.4601 17.2704C21.3767 17.3857 21.2076 17.417 21.0822 17.3404L20.8311 17.1872C20.7053 17.1104 20.6711 16.9541 20.7548 16.8384Z" fill="#464655"/>
</svg>
