<svg width="24" height="24" viewBox="0 0 24 24" fill="none" xmlns="http://www.w3.org/2000/svg">
<path d="M23.55 21L0.45 21C0.15 21 0 20.85 0 20.55L0 3.45C0 3.15 0.15 3 0.45 3L23.55 3C23.85 3 24 3.15 24 3.45L24 20.55C24 20.85 23.85 21 23.55 21Z" fill="#73AF00"/>
<path d="M11.8499 6.2998L2.9999 11.6998C2.6999 11.8498 2.6999 12.2998 2.9999 12.4498L11.6999 17.6998C11.8499 17.8498 11.9999 17.8498 12.1499 17.6998L20.8499 12.4498C21.1499 12.2998 21.1499 11.8498 20.8499 11.6998L12.1499 6.44981C12.1499 6.29981 11.8499 6.2998 11.8499 6.2998Z" fill="#FFE15A"/>
<path d="M15.3002 12.0002C15.3002 13.8002 13.8002 15.3002 12.0002 15.3002C10.2002 15.3002 8.7002 13.8002 8.7002 12.0002C8.7002 10.2002 10.2002 8.7002 12.0002 8.7002C13.8002 8.7002 15.3002 10.2002 15.3002 12.0002Z" fill="#41479B"/>
<path d="M9.1501 10.3498C9.0001 10.6498 8.8501 10.9499 8.8501 11.2499C10.6501 11.0999 13.3501 11.6998 15.1501 13.3498C15.3001 13.0498 15.3001 12.7499 15.3001 12.4499C13.5001 10.7999 11.1001 10.1998 9.1501 10.3498Z" fill="#F5F5F5"/>
<path d="M12.15 13.1999L12.3 13.4999H12.6L12.45 13.6499L12.6 13.9499L12.3 13.7999L12 13.9499L12.15 13.6499L12 13.4999H12.3L12.15 13.1999C12.15 13.0499 12.15 13.0499 12.15 13.1999Z" fill="#F5F5F5"/>
<path d="M13.2 13.7998L13.35 13.9498H13.2V14.0998H13.05H12.9V13.9498H12.75L13.2 13.7998Z" fill="#F5F5F5"/>
<path d="M11.7 12.6001L11.85 12.7501H11.7V12.9001H11.55H11.4V12.7501H11.25L11.7 12.6001Z" fill="#F5F5F5"/>
<path d="M9.5999 12.4502L9.7499 12.6002H9.5999V12.7502H9.4499H9.2999V12.6002H9.1499L9.5999 12.4502Z" fill="#F5F5F5"/>
<path d="M11.4002 13.7998L11.5502 13.9498H11.4002V14.0998H11.2502H11.1002V13.9498H10.9502L11.4002 13.7998C11.2502 13.7998 11.2502 13.7998 11.4002 13.7998Z" fill="#F5F5F5"/>
<path d="M10.3499 12.4502C10.4999 12.4502 10.4999 12.4502 10.3499 12.4502V12.6002V12.7502H10.1999H10.0499V12.6002H9.8999L10.3499 12.4502Z" fill="#F5F5F5"/>
<path d="M13.3499 10.5L13.4999 10.65H13.3499V10.8H13.1999H13.0499V10.65H12.8999L13.3499 10.5Z" fill="#F5F5F5"/>
<path d="M9.7498 11.8501C9.8998 12.0001 9.8998 12.0001 9.7498 11.8501V12.0001V12.1501H9.5998H9.44981V12.0001H9.2998L9.7498 11.8501Z" fill="#F5F5F5"/>
<path d="M10.2 13.2002L10.35 13.3502L10.2 13.5002V13.6502L10.05 13.5002L9.9 13.6502V13.5002L9.75 13.3502L10.2 13.2002Z" fill="#F5F5F5"/>
<path d="M13.8001 13.7998C13.9501 13.9498 13.9501 13.9498 13.8001 13.7998V13.9498V14.0998H13.6501H13.5001V13.9498H13.3501C13.6501 13.9498 13.6501 13.9498 13.8001 13.7998Z" fill="#F5F5F5"/>
<path d="M14.0999 13.2002L14.2499 13.3502H14.0999V13.5002H13.9499H13.7999V13.3502H13.6499L14.0999 13.2002Z" fill="#F5F5F5"/>
</svg>
