<svg width="24" height="24" viewBox="0 0 24 24" fill="none" xmlns="http://www.w3.org/2000/svg">
<path d="M24 21L4.372e-05 21L0 3.45C0 3.15 0.15 3 0.45 3L24 3C24 3 24 3.15 24 3.45L24 20.55C24 20.85 24 21 24 21Z" fill="#E92737"/>
<path d="M24 21L4.372e-05 21L0 3.45C0 3.15 0.15 3 0.45 3L24 3C24 3 24 3.15 24 3.45L24 20.55C24 20.85 24 21 24 21Z" fill="#E92737"/>
<path d="M24 21L4.372e-05 21L0 3.45C0 3.15 0.15 3 0.45 3L24 3C24 3 24 3.15 24 3.45L24 20.55C24 20.85 24 21 24 21Z" fill="#E92737"/>
<path d="M9.00001 21H0.168762C0.0562623 21 1.22096e-05 21 1.22096e-05 21L0 3L9.00001 3V3.44996L9.00001 21Z" fill="#0D5B2F"/>
<path fill-rule="evenodd" clip-rule="evenodd" d="M13.8543 16.008C12.272 15.9602 5.01607 11.4228 4.96631 10.7002L5.36698 10.0308C6.0867 11.0785 13.5044 15.4912 14.233 15.3349L13.8543 16.0078" fill="#FFFF00"/>
<path fill-rule="evenodd" clip-rule="evenodd" d="M5.28242 9.94003C5.14047 10.3228 7.17582 11.5834 9.62469 13.0756C12.0735 14.5677 14.185 15.4897 14.3415 15.3575C14.351 15.3404 14.4185 15.2242 14.4123 15.2251C14.3829 15.2694 14.3115 15.2834 14.2001 15.2512C13.5385 15.06 11.813 14.2665 9.67604 12.9682C7.53914 11.6699 5.67994 10.4734 5.39097 9.96502C5.37087 9.9298 5.35655 9.86552 5.35946 9.81553L5.35244 9.81543L5.29092 9.92317L5.28246 9.94006H5.28242L5.28242 9.94003ZM13.8912 16.0292C13.8644 16.0779 13.8144 16.0796 13.7193 16.0691C13.1275 16.0035 11.3315 15.1285 9.20637 13.854C6.73362 12.3711 4.69141 11.0199 4.91297 10.6667L4.97325 10.5599L4.98512 10.5636C4.78589 11.1621 9.01548 13.585 9.26449 13.7395C11.7118 15.2585 13.775 16.1455 13.9576 15.915L13.8912 16.0294V16.0293L13.8912 16.0292Z" fill="black"/>
<path fill-rule="evenodd" clip-rule="evenodd" d="M9.76537 11.1381C11.3491 11.1255 13.3035 10.9213 14.4282 10.4722L14.1859 10.0777C13.5211 10.4464 11.556 10.6887 9.75198 10.725C7.61833 10.7053 6.11226 10.5063 5.35765 9.99902L5.12891 10.4191C6.51608 11.0071 7.93756 11.132 9.76538 11.1381" fill="#FFFF00"/>
<path fill-rule="evenodd" clip-rule="evenodd" d="M14.4933 10.4808C14.4546 10.5429 13.7211 10.7963 12.6406 10.9833C11.9079 11.0952 10.9522 11.1909 9.75958 11.192C8.62649 11.1931 7.70087 11.1123 7.00011 11.0171C5.86582 10.839 5.28039 10.591 5.06396 10.5034C5.08466 10.4622 5.09796 10.4333 5.11792 10.3948C5.74095 10.6433 6.3291 10.7931 7.01813 10.8993C7.71428 10.9938 8.62875 11.0758 9.75623 11.0747C10.9433 11.0735 11.8885 10.9706 12.6169 10.862C13.7249 10.6829 14.3302 10.4525 14.4152 10.3455L14.4933 10.4808ZM14.2806 10.0809C14.1605 10.1775 13.5621 10.3901 12.5093 10.5585C11.8066 10.6594 10.9132 10.7497 9.77176 10.7508C8.68733 10.7519 7.80137 10.6787 7.12747 10.5803C6.05824 10.4404 5.48915 10.1881 5.28399 10.1145C5.3044 10.0791 5.32519 10.0441 5.34653 10.0088C5.50617 10.0894 6.05536 10.3127 7.13921 10.4665C7.80546 10.5612 8.69279 10.6317 9.77182 10.6306C10.9079 10.6294 11.7911 10.5374 12.4893 10.4371C13.5476 10.2912 14.1171 10.02 14.2036 9.95215L14.2806 10.0809Z" fill="black"/>
<path fill-rule="evenodd" clip-rule="evenodd" d="M4.56372 13.0496C5.53784 13.5745 7.7014 13.839 9.74879 13.8572C11.613 13.8602 14.0416 13.5685 14.9497 13.0864L14.9248 12.561C14.6406 13.0059 12.0381 13.4326 9.72857 13.4151C7.41908 13.3976 5.27447 13.0403 4.55957 12.5777L4.56373 13.0495" fill="#FFFF00"/>
<path fill-rule="evenodd" clip-rule="evenodd" d="M14.9994 12.974L14.9995 13.0993C14.863 13.2628 14.0071 13.5099 12.9338 13.6839C12.117 13.8094 11.0521 13.904 9.72508 13.904C8.46439 13.904 7.45905 13.814 6.67941 13.6941C5.44701 13.5143 4.65872 13.1995 4.50049 13.1055L4.50118 12.9593C4.9765 13.2759 6.26427 13.5075 6.6967 13.5784C7.47127 13.6975 8.47064 13.7869 9.72503 13.7869C11.0458 13.7869 12.1048 13.6929 12.9165 13.5683C13.6865 13.4568 14.7834 13.167 14.9994 12.9741H14.9994L14.9994 12.974ZM15 12.5284L15 12.6537C14.8635 12.8171 14.0076 13.0642 12.9344 13.2382C12.1175 13.3637 11.0526 13.4583 9.7256 13.4583C8.46492 13.4583 7.45958 13.3684 6.67993 13.2484C5.44753 13.0687 4.65925 12.7538 4.50101 12.6598L4.5017 12.5137C4.97702 12.8302 6.2648 13.0619 6.69723 13.1326C7.47179 13.2519 8.47116 13.3413 9.72556 13.3413C11.0463 13.3413 12.1053 13.2472 12.917 13.1225C13.687 13.0111 14.784 12.7213 14.9999 12.5283L15 12.5284L15 12.5284Z" fill="black"/>
<path fill-rule="evenodd" clip-rule="evenodd" d="M9.74543 15.9179C7.50513 15.9045 5.58553 15.3061 5.18018 15.2072L5.47576 15.6708C6.19177 15.9725 8.06449 16.4222 9.76692 16.3724C11.4694 16.3226 12.9573 16.1905 14.0058 15.6792L14.3088 15.1987C13.5943 15.5359 11.1626 15.9144 9.74541 15.9179" fill="#FFFF00"/>
<path fill-rule="evenodd" clip-rule="evenodd" d="M14.1195 15.5715C14.075 15.6397 14.0296 15.707 13.9835 15.7725C13.489 15.9472 12.7098 16.1306 12.3809 16.1841C11.7093 16.3227 10.67 16.4251 9.74772 16.4256C7.76313 16.3965 6.13864 16.0073 5.3744 15.6753L5.31274 15.5691L5.32281 15.5531L5.42738 15.5937C6.78648 16.0809 8.31292 16.2752 9.7589 16.3101C10.6775 16.3133 11.5971 16.2046 12.3407 16.0714C13.481 15.8425 13.9421 15.67 14.0836 15.5918L14.1195 15.5715H14.1195L14.1195 15.5715ZM14.3823 15.1373C14.3835 15.1386 14.3846 15.1399 14.3857 15.1414C14.3524 15.1977 14.3181 15.255 14.283 15.3126C14.0192 15.407 13.3034 15.6168 12.2581 15.7633C11.5694 15.8573 11.1413 15.9483 9.77127 15.9749C7.20398 15.9095 5.54178 15.4066 5.14691 15.2826L5.08838 15.1701C6.57622 15.5592 8.096 15.8308 9.77135 15.8586C11.0248 15.8319 11.5581 15.7394 12.2411 15.6461C13.4599 15.4562 14.0741 15.2552 14.2584 15.1971C14.2561 15.1938 14.2533 15.1903 14.2503 15.1867L14.3824 15.1372L14.3823 15.1373L14.3823 15.1373Z" fill="black"/>
<path fill-rule="evenodd" clip-rule="evenodd" d="M14.4084 12.6351C14.4156 14.1115 13.6615 15.4365 13.054 16.021C12.1946 16.8479 11.0551 17.3799 9.72443 17.4044C8.23848 17.4317 6.83738 16.4612 6.46157 16.0348C5.72682 15.2013 5.12862 14.1428 5.10945 12.7162C5.20046 11.1048 5.83189 9.98229 6.74719 9.21254C7.66248 8.44279 8.8812 8.06792 9.89617 8.09473C11.0672 8.12569 12.4352 8.70123 13.3804 9.84381C13.9996 10.5924 14.2678 11.4048 14.4084 12.6351ZM9.73705 7.57959C12.5908 7.57959 14.9379 9.9062 14.9379 12.759C14.9379 15.6117 12.5908 17.9384 9.73705 17.9384C6.88326 17.9384 4.55566 15.6117 4.55566 12.759C4.55566 9.9062 6.88326 7.57959 9.73705 7.57959" fill="#FFFF00"/>
<path fill-rule="evenodd" clip-rule="evenodd" d="M9.75093 7.56152C12.6073 7.56152 14.9369 9.89574 14.9369 12.7576C14.9369 15.6195 12.6073 17.9537 9.75093 17.9537C6.89455 17.9537 4.56494 15.6196 4.56494 12.7576C4.56494 9.89574 6.8946 7.56152 9.75093 7.56152V7.56152ZM4.67907 12.7577C4.67907 15.5525 6.96987 17.8394 9.75093 17.8394C12.532 17.8394 14.8228 15.5525 14.8228 12.7577C14.8228 9.96278 12.532 7.67583 9.75093 7.67583C6.96987 7.67583 4.67907 9.96288 4.67907 12.7577Z" fill="black"/>
<path fill-rule="evenodd" clip-rule="evenodd" d="M9.75566 7.99365C12.3605 7.99365 14.506 10.1357 14.506 12.7533C14.506 15.3709 12.3604 17.5129 9.75566 17.5129C7.15092 17.5129 5.00537 15.3709 5.00537 12.7533C5.00537 10.1357 7.15097 7.99365 9.75566 7.99365V7.99365ZM5.11945 12.7533C5.11945 15.308 7.21346 17.3985 9.75566 17.3985C12.2979 17.3985 14.3919 15.308 14.3919 12.7533C14.3919 10.1985 12.2979 8.10796 9.75566 8.10796C7.21346 8.10796 5.11945 10.1985 5.11945 12.7533Z" fill="black"/>
<path fill-rule="evenodd" clip-rule="evenodd" d="M9.96441 7.66162H9.51914L9.51758 17.8388H9.96437L9.96441 7.66162Z" fill="#FFFF00"/>
<path fill-rule="evenodd" clip-rule="evenodd" d="M9.92188 7.5H10.0352L10.0351 17.9999H9.92171L9.92188 7.5ZM9.47997 7.50009H9.59419L9.59331 18H9.479L9.47997 7.50009Z" fill="black"/>
<path fill-rule="evenodd" clip-rule="evenodd" d="M14.9403 12.9588V12.5729L14.6266 12.2801L12.8457 11.8078L10.2792 11.5454L7.18894 11.7028L4.98908 12.2276L4.54492 12.5571V12.9432L5.66999 12.4375L8.34125 12.0177H10.9077L12.7933 12.2276L14.1028 12.5424L14.9403 12.9588Z" fill="#FFFF00"/>
<path fill-rule="evenodd" clip-rule="evenodd" d="M9.75275 11.9535C10.9775 11.9512 12.1658 12.0697 13.1083 12.2536C14.0809 12.4484 14.7654 12.692 14.9994 12.9657L14.9992 13.1012C14.7169 12.7607 13.7959 12.511 13.0864 12.3683C12.1511 12.186 10.9707 12.0683 9.75275 12.0705C8.46751 12.073 7.27073 12.1949 6.34904 12.3751C5.60946 12.5221 4.62314 12.8142 4.5 13.1023V12.9612C4.56762 12.7617 5.30206 12.4637 6.33238 12.2571C7.26099 12.0757 8.45996 11.9558 9.75275 11.9535V11.9535ZM9.75328 11.5078C10.978 11.5056 12.1663 11.6242 13.1089 11.808C14.0815 12.0029 14.7659 12.2464 15 12.5201L14.9997 12.6556C14.7175 12.3151 13.7964 12.0654 13.087 11.9227C12.1516 11.7404 10.9713 11.6227 9.75328 11.625C8.46803 11.6273 7.27707 11.7494 6.35527 11.9295C5.64157 12.065 4.61497 12.3686 4.50047 12.6567V12.5156C4.5681 12.3183 5.31741 12.0096 6.33291 11.8115C7.26151 11.6301 8.46049 11.5103 9.75328 11.5079V11.5078Z" fill="black"/>
<path fill-rule="evenodd" clip-rule="evenodd" d="M9.72939 9.23462C11.6595 9.22495 13.3429 9.50499 14.1131 9.90026L14.3941 10.3872C13.7246 10.0257 11.9084 9.64991 9.73221 9.70611C7.95902 9.71703 6.06437 9.90169 5.11377 10.4098L5.44917 9.84784C6.22933 9.44252 8.0692 9.23687 9.72946 9.23472" fill="#FFFF00"/>
<path fill-rule="evenodd" clip-rule="evenodd" d="M9.75478 9.63671C10.8556 9.63379 11.9193 9.69599 12.7653 9.8489C13.5531 9.99579 14.3044 10.2163 14.4118 10.3348L14.4951 10.4823C14.2338 10.3114 13.5837 10.1211 12.7489 9.96247C11.9105 9.80461 10.8475 9.75231 9.75285 9.75518C8.51034 9.75093 7.54501 9.81664 6.71655 9.96136C5.84037 10.1256 5.23248 10.3602 5.08252 10.4717L5.16414 10.3159C5.45552 10.1669 5.91786 9.98741 6.69478 9.84728C7.55152 9.69049 8.52711 9.64347 9.75485 9.63671H9.75481L9.75478 9.63671ZM9.75431 9.1915C10.8078 9.18872 11.848 9.24754 12.6588 9.39356C13.2982 9.51828 13.9307 9.71298 14.1622 9.88625L14.284 10.0802C14.077 9.84955 13.2974 9.63102 12.6093 9.50861C11.8047 9.36959 10.8078 9.31456 9.75429 9.30577C8.64869 9.30887 7.62696 9.37671 6.83411 9.52134C6.07773 9.66554 5.58962 9.83627 5.38309 9.9696L5.49021 9.80762C5.77522 9.6573 6.23565 9.51925 6.81553 9.40638C7.61424 9.26069 8.64226 9.1946 9.75434 9.1915H9.75431Z" fill="black"/>
<path fill-rule="evenodd" clip-rule="evenodd" d="M12.3308 14.9176C11.3765 14.7392 10.4206 14.7133 9.7529 14.7211C6.53657 14.7589 5.49756 15.3828 5.37075 15.5717L5.13037 15.1791C5.94924 14.5845 7.70068 14.251 9.77032 14.2851C10.845 14.3027 11.7724 14.3742 12.5526 14.5256L12.3307 14.9177" fill="#FFFF00"/>
<path fill-rule="evenodd" clip-rule="evenodd" d="M9.73442 14.6654C10.6291 14.6788 11.5074 14.7158 12.355 14.8742L12.2936 14.9828C11.5064 14.8372 10.6671 14.7815 9.73746 14.786C8.55043 14.7767 7.34983 14.8878 6.30459 15.1883C5.97478 15.2803 5.42878 15.4927 5.37311 15.6682L5.31204 15.5673C5.32964 15.4636 5.65963 15.2482 6.27652 15.0746C7.47376 14.7311 8.59365 14.6732 9.73443 14.6654V14.6655L9.73442 14.6654ZM9.77503 14.2144C10.702 14.2317 11.6593 14.2747 12.5898 14.4593L12.5259 14.5723C11.6856 14.4052 10.8828 14.3495 9.7805 14.3325C8.58969 14.3347 7.32656 14.4198 6.17807 14.7543C5.80729 14.8625 5.16735 15.0964 5.14603 15.2816L5.08496 15.1732C5.09886 15.005 5.65284 14.7856 6.15126 14.6403C7.3086 14.3032 8.57503 14.2165 9.77505 14.2144L9.77503 14.2144Z" fill="black"/>
<path fill-rule="evenodd" clip-rule="evenodd" d="M14.3434 15.2388L13.9569 15.8395L12.8465 14.8515L9.96568 12.91L6.71827 11.1258L5.03223 10.5481L5.39154 9.88061L5.51358 9.81396L6.56113 10.0763L10.0181 11.8605L12.0084 13.1199L13.6845 14.3268L14.3654 15.1139L14.3434 15.2388Z" fill="#FFFF00"/>
<path fill-rule="evenodd" clip-rule="evenodd" d="M4.97156 10.5642C5.26729 10.3632 7.44059 11.3332 9.71461 12.7069C11.9826 14.0846 14.1498 15.6413 13.9542 15.9326L13.8898 16.034L13.8603 16.0574C13.8666 16.0528 13.8992 16.0129 13.8571 15.9049C13.7605 15.5863 12.2232 14.3574 9.67245 12.8144C7.18583 11.3289 5.11346 10.4336 4.90625 10.6895L4.97156 10.5641H4.97152L4.97156 10.5642ZM14.4226 15.2305C14.6096 14.8605 12.5938 13.3392 10.0945 11.8579C7.5378 10.4062 5.6951 9.55161 5.35853 9.80642L5.28374 9.94281C5.28309 9.95031 5.28647 9.93351 5.30227 9.92129C5.36347 9.86779 5.46491 9.8714 5.51069 9.87057C6.09024 9.87927 7.74548 10.6424 10.0678 11.9763C11.0854 12.57 14.3665 14.6782 14.354 15.2711C14.3549 15.322 14.3582 15.3325 14.3391 15.3578L14.4226 15.2306V15.2305L14.4226 15.2305Z" fill="black"/>
<path d="M7.50053 13.932C7.50053 14.6364 7.75303 15.2734 8.1621 15.739C8.57196 16.2056 9.12894 16.5 9.74655 16.5C10.3673 16.5 10.9307 16.212 11.3388 15.7472C11.747 15.2825 11.9999 14.6411 12 13.9342L11.9999 9.00611L7.5 9L7.50053 13.932Z" fill="white"/>
<path d="M7.5 13.949V13.951C7.5 14.6501 7.75446 15.2868 8.16268 15.749C8.57171 16.2121 9.13504 16.5 9.75131 16.5C10.3708 16.5 10.933 16.2142 11.3403 15.7528C11.7475 15.2915 11.9999 14.6549 11.9999 13.9533L11.9999 9.00083L7.50269 9L7.5 13.949ZM11.0957 10.0336L11.0958 13.7308L11.0942 13.9632C11.0942 14.0243 11.091 14.094 11.0847 14.1534C11.0482 14.5008 10.9078 14.8035 10.6998 15.0391C10.4563 15.3148 10.1202 15.4858 9.7498 15.4858C9.38135 15.4858 9.05299 15.3088 8.80846 15.0319C8.55762 14.7479 8.41223 14.3585 8.41223 13.9558L8.41171 10.028L11.0957 10.0336Z" fill="#FF0000"/>
</svg>
