<svg width="24" height="24" viewBox="0 0 24 24" fill="none" xmlns="http://www.w3.org/2000/svg">
<path d="M24 9L0 9L0 3.44998C0 3.14998 0.15 3 0.45 3L23.55 3C23.85 3 24 3.14998 24 3.44998V9Z" fill="#F5F5F5"/>
<path d="M23.55 21H0.45C0.15 21 0 20.85 0 20.55L0 15L24 15V20.55C24 20.85 23.85 21 23.55 21Z" fill="#FF4B55"/>
<path d="M24 9L0 9L0 15L24 15V9Z" fill="#41479B"/>
<path d="M5.85 16.5C4.5 15 3 13.5 3 12L3 7.5L9 7.5V12C9 13.5 6.15 16.35 6 16.5H5.85Z" fill="#1641D5"/>
<path d="M7.5 11.25L6.54545 11.3906H6.27273L6.27273 10.7988L6.54545 10.8281L7.22727 10.9688L7.09091 10.5469L7.22727 10.125L6.54545 10.2656H6.27273V9.98435L6.75 9H6H5.25L5.72727 9.98435V10.2656H5.59091L4.90909 10.125L5.04545 10.5469L4.90909 10.9688L5.59091 10.8281H5.72727L5.72727 11.3906H5.45455L4.5 11.25L4.63636 11.6719L4.5 12.0937L5.45455 11.9532H5.72727L5.59091 13.8047H6.39844L6.27273 11.9532H6.54545L7.5 12.0937L7.36364 11.6719L7.5 11.25Z" fill="#F5F5F5"/>
<path d="M6 13.5C5.25 13.5 4.5 14.25 4.5 15C4.5 15 4.71429 14.1 4.5 14.1C3.64286 14.1 3 14.46 3 14.94C4.28571 15.9 5.78571 16.5 5.78571 16.5H6.21429C6.21429 16.5 7.71429 15.9 9 14.94C9 14.46 8.35714 14.1 7.5 14.1C7.5 14.1 7.71429 15 7.5 15C7.5 14.25 6.64286 13.5 6 13.5Z" fill="#41479B"/>
<path d="M9 7.5L9 11.7003C9 13.5 6 15 6 15C6 15 3 13.5 3 11.7003L3 7.5L9 7.5ZM10.5 6L1.5 6L1.5 12C1.5 15.15 6 16.5 6 16.8003C6 16.5 10.5 15.15 10.5 12L10.5 6Z" fill="#F5F5F5"/>
</svg>
