<svg width="24" height="24" viewBox="0 0 24 24" fill="none" xmlns="http://www.w3.org/2000/svg">
<path d="M23.55 21L0.45 21C0.15 21 0 20.85 0 20.55L0 3.45C0 3.15 0.15 3 0.45 3L23.55 3C23.85 3 24 3.15 24 3.45L24 20.55C24 20.85 23.85 21 23.55 21Z" fill="#FF4B55"/>
<path d="M14.1002 10.5003L14.8502 11.4003L15.9002 11.1003C15.9002 11.1003 16.0502 11.1003 16.0502 11.2503L15.4502 12.1503L16.2002 13.0503V13.2003L15.1502 12.9003L14.4002 13.8003H14.2502V12.6003L13.2002 12.3003V12.1503L14.2502 11.7003L14.1002 10.5003C13.9502 10.5003 14.1002 10.3503 14.1002 10.5003Z" fill="#F5F5F5"/>
<path d="M10.1998 15.6C8.24976 15.6 6.59976 13.95 6.59976 12C6.59976 10.05 8.24976 8.40001 10.1998 8.40001C10.9498 8.40001 11.6998 8.7 12.1498 9C12.2998 9 12.2998 8.99999 12.2998 8.84999C11.3998 7.94999 10.1998 7.5 8.84976 7.5C6.59976 7.65 4.64976 9.45 4.49976 11.7C4.34976 14.25 6.44976 16.5 8.99976 16.5C10.3498 16.5 11.3998 15.9 12.2998 15.15C12.2998 15.15 12.2998 15 12.1498 15C11.5498 15.3 10.9498 15.6 10.1998 15.6Z" fill="#F5F5F5"/>
</svg>
