<svg width="24" height="24" viewBox="0 0 24 24" fill="none" xmlns="http://www.w3.org/2000/svg">
<path d="M23.55 21L0.45 21C0.15 21 0 20.85 0 20.55L0 3.45C0 3.15 0.15 3 0.45 3L23.55 3C23.85 3 24 3.15 24 3.45L24 20.55C24 20.85 23.85 21 23.55 21Z" fill="#FF4B55"/>
<path d="M4.04983 5.85029L4.49983 7.20031L5.69983 7.20031C5.84983 7.20031 5.99983 7.5003 5.84983 7.5003L4.79983 8.40031L5.24983 9.7503C5.24983 9.9003 5.09983 10.0503 4.94983 9.90031L3.89983 9.0003L2.84983 9.90031C2.69983 10.0503 2.54983 9.9003 2.54983 9.7503L2.99983 8.40031L1.94983 7.5003C1.79983 7.3503 1.94983 7.20031 2.09983 7.20031H3.29983L3.74983 5.85029C3.74983 5.70029 3.89983 5.70029 4.04983 5.85029Z" fill="#FFE15A"/>
<path d="M8.55019 6.15039L8.85019 6.60037L9.30019 6.45039C9.30019 6.45039 9.45019 6.45037 9.30019 6.60037L9.00019 7.05038L9.30019 7.50038V7.65039L8.85019 7.50038L8.55019 7.95039H8.4002V7.35037L7.9502 7.20039V7.05038L8.4002 6.90039L8.55019 6.15039C8.40019 6.15039 8.55019 6.15039 8.55019 6.15039Z" fill="#FFE15A"/>
<path d="M6.75 4.79961H7.2L7.35 4.34961H7.5L7.65 4.94962H8.1C8.1 4.94962 8.25 5.09961 8.1 5.09961L7.65 5.39963L7.8 5.99962C7.8 5.99962 7.8 6.14962 7.65 5.99962L7.35 5.69962L7.05 5.99962C7.05 5.99962 6.9 5.99961 6.9 5.84961L7.05 5.39963L6.75 4.79961C6.75 4.94961 6.75 4.79961 6.75 4.79961Z" fill="#FFE15A"/>
<path d="M7.50026 10.2004L7.20026 10.6504L6.75026 10.5004C6.75026 10.5004 6.60026 10.5004 6.75026 10.6504L7.05026 11.1004L6.75026 11.5504V11.7004L7.20026 11.5504L7.50026 12.0004H7.65026V11.4004L8.10026 11.2504V11.1004L7.65026 10.9504L7.50026 10.2004C7.65026 10.0504 7.65026 10.0504 7.50026 10.2004Z" fill="#FFE15A"/>
<path d="M9.29997 8.85037H8.84997L8.69997 8.40039H8.54997L8.39997 9.00038H7.94997C7.94997 9.00038 7.79997 9.15039 7.94997 9.15039L8.39997 9.45039L8.24997 10.0504C8.24997 10.0504 8.24997 10.2004 8.39997 10.0504L8.69997 9.75038L9.14997 10.0504C9.14997 10.0504 9.29997 10.0504 9.29997 9.90039L9.14997 9.45039L9.29997 8.85037C9.29997 9.00037 9.29997 8.85037 9.29997 8.85037Z" fill="#FFE15A"/>
</svg>
