<svg width="96" height="96" viewBox="0 0 96 96" fill="none" xmlns="http://www.w3.org/2000/svg">
<g clip-path="url(#clip0)">
<path d="M10 1H57L86 30V95H10V1Z" fill="white"/>
<path fill-rule="evenodd" clip-rule="evenodd" d="M10 95H86V30L57 1H10V95ZM57 0H9.00002V96H87V30L57 0Z" fill="#BFBFBF"/>
<path fill-rule="evenodd" clip-rule="evenodd" d="M23 58C21.3431 58 20 59.3431 20 61V86C20 87.6569 21.3431 89 23 89H73C74.6569 89 76 87.6569 76 86V61C76 59.3431 74.6569 58 73 58H23ZM39.7793 76.9688L36.5562 75.9468C36.2791 77.1522 35.8224 78.0356 35.186 78.5972C34.5496 79.1587 33.7897 79.4395 32.9062 79.4395C31.7083 79.4395 30.735 78.9977 29.9863 78.1143C29.2376 77.2308 28.8633 75.7484 28.8633 73.667C28.8633 71.7054 29.2414 70.2866 29.9976 69.4106C30.7612 68.5347 31.7533 68.0967 32.9736 68.0967C33.8571 68.0967 34.6058 68.3438 35.2197 68.8379C35.8411 69.332 36.2492 70.0059 36.4438 70.8594L39.7344 70.0732C39.36 68.7555 38.7985 67.7448 38.0498 67.041C36.792 65.8506 35.1561 65.2554 33.1421 65.2554C30.8361 65.2554 28.9756 66.0153 27.5605 67.5352C26.1455 69.0475 25.438 71.1738 25.438 73.9141C25.438 76.5046 26.1418 78.5485 27.5493 80.0459C28.9569 81.5358 30.7537 82.2808 32.9399 82.2808C34.7069 82.2808 36.1631 81.8465 37.3086 80.978C38.4616 80.1021 39.2852 78.7656 39.7793 76.9688ZM45.0352 76.3286L41.8008 76.6431C42.0179 78.4849 42.6842 79.8887 43.7998 80.8545C44.9154 81.8128 46.5138 82.292 48.5952 82.292C50.0252 82.292 51.2194 82.0936 52.1777 81.6968C53.1361 81.2925 53.8773 80.6786 54.4014 79.855C54.9255 79.0314 55.1875 78.1479 55.1875 77.2046C55.1875 76.1639 54.9666 75.2917 54.5249 74.5879C54.0907 73.8766 53.4842 73.3188 52.7056 72.9146C51.9344 72.5028 50.7402 72.106 49.123 71.7241C47.5059 71.3423 46.4876 70.9754 46.0684 70.6235C45.7389 70.3465 45.5742 70.0133 45.5742 69.624C45.5742 69.1973 45.7502 68.8566 46.1021 68.6021C46.6486 68.2052 47.4048 68.0068 48.3706 68.0068C49.3065 68.0068 50.0065 68.194 50.4707 68.5684C50.9424 68.9352 51.2493 69.5417 51.3916 70.3877L54.7158 70.2417C54.6634 68.7293 54.1131 67.5202 53.0649 66.6143C52.0243 65.7083 50.4707 65.2554 48.4043 65.2554C47.139 65.2554 46.0571 65.4463 45.1587 65.8281C44.2677 66.21 43.5827 66.7677 43.1035 67.5015C42.6318 68.2277 42.396 69.0101 42.396 69.8486C42.396 71.1514 42.9014 72.2557 43.9121 73.1616C44.6309 73.8055 45.8812 74.3483 47.6631 74.79C49.0482 75.1344 49.9354 75.374 50.3247 75.5088C50.8937 75.7109 51.2905 75.9505 51.5151 76.2275C51.7472 76.4971 51.8633 76.8265 51.8633 77.2158C51.8633 77.8223 51.59 78.3538 51.0435 78.8105C50.5044 79.2598 49.6995 79.4844 48.6289 79.4844C47.6182 79.4844 46.8133 79.2298 46.2144 78.7207C45.6229 78.2116 45.2298 77.4142 45.0352 76.3286ZM56.2993 65.5361L62.1841 82H65.7329L71.6289 65.5361H68.1025L64.0708 77.7212L59.9043 65.5361H56.2993Z" fill="#6AAA1E"/>
<path d="M26 17H35V20H26V17Z" fill="#BFBFBF"/>
<path d="M35 29H26V32H35V29Z" fill="#BFBFBF"/>
<path d="M26 41H35V44H26V41Z" fill="#BFBFBF"/>
<path d="M43 41H70V44H43V41Z" fill="#BFBFBF"/>
<path fill-rule="evenodd" clip-rule="evenodd" d="M20 11H57V14H40V23H57V26H40V35H73V29H76V50H20V11ZM23 23V14H37V23H23ZM23 35V26H37V35H23ZM23 47V38H37V47H23ZM40 47V38H73V47H40Z" fill="#BFBFBF"/>
<path d="M70 29H43V32H70V29Z" fill="#BFBFBF"/>
<path d="M57 17V20H43V17H57Z" fill="#BFBFBF"/>
<path opacity="0.3" d="M56 30V1H57V29H86L87 30H56Z" fill="black"/>
</g>
<defs>
<clipPath id="clip0">
<rect width="96" height="96" fill="white"/>
</clipPath>
</defs>
</svg>
