<svg width="96" height="96" viewBox="0 0 96 96" fill="none" xmlns="http://www.w3.org/2000/svg">
<g clip-path="url(#clip0)">
<path d="M10 1H57L86 30V95H10V1Z" fill="white"/>
<path fill-rule="evenodd" clip-rule="evenodd" d="M10 95H86V30L57 0.999969H10V95ZM57 -3.05176e-05H9.00002V96H87V30L57 -3.05176e-05Z" fill="#BFBFBF"/>
<path d="M43.4253 73.7822C43.4253 75.6465 43.8558 77.0615 44.7168 78.0273C45.5778 78.9857 46.6709 79.4648 47.9961 79.4648C49.3213 79.4648 50.4069 78.9894 51.2529 78.0386C52.1065 77.0802 52.5332 75.6465 52.5332 73.7373C52.5332 71.8506 52.1177 70.443 51.2866 69.5146C50.4631 68.5863 49.3662 68.1221 47.9961 68.1221C46.626 68.1221 45.5217 68.5938 44.6831 69.5371C43.8446 70.473 43.4253 71.888 43.4253 73.7822Z" fill="#1E7AAA"/>
<path d="M27.3242 68.315V79.2198H29.8062C30.7345 79.2198 31.4046 79.1674 31.8164 79.0626C32.3555 78.9278 32.8009 78.6995 33.1528 78.3775C33.5122 78.0556 33.8042 77.5278 34.0288 76.794C34.2534 76.0528 34.3657 75.0458 34.3657 73.773C34.3657 72.5003 34.2534 71.5232 34.0288 70.8419C33.8042 70.1606 33.4897 69.629 33.0854 69.2472C32.6812 68.8653 32.1683 68.607 31.5469 68.4723C31.0827 68.3674 30.173 68.315 28.8179 68.315H27.3242Z" fill="#1E7AAA"/>
<path fill-rule="evenodd" clip-rule="evenodd" d="M23 58C21.3431 58 20 59.3431 20 61V86C20 87.6569 21.3431 89 23 89H73C74.6569 89 76 87.6569 76 86V61C76 59.3431 74.6569 58 73 58H23ZM40 73.8945C40 72.2174 40.2508 70.8099 40.7524 69.6719C41.1268 68.8333 41.6359 68.0809 42.2798 67.4146C42.9312 66.7482 43.6424 66.2541 44.4136 65.9321C45.4393 65.4979 46.6222 65.2808 47.9624 65.2808C50.3882 65.2808 52.3273 66.0332 53.7798 67.5381C55.2398 69.043 55.9697 71.1356 55.9697 73.8159C55.9697 76.4738 55.2472 78.5552 53.8023 80.0601C52.3573 81.5575 50.4256 82.3062 48.0073 82.3062C45.5591 82.3062 43.6125 81.5612 42.1675 80.0713C40.7225 78.5739 40 76.515 40 73.8945ZM24 65.5299H30.0757C31.4458 65.5299 32.4902 65.6347 33.209 65.8443C34.1748 66.1288 35.0021 66.6342 35.6909 67.3605C36.3797 68.0867 36.9038 68.9776 37.2632 70.0333C37.6226 71.0815 37.8022 72.3767 37.8022 73.919C37.8022 75.2742 37.6338 76.4422 37.2969 77.423C36.8851 78.6209 36.2974 79.5904 35.5337 80.3316C34.9572 80.8932 34.1785 81.3311 33.1978 81.6456C32.464 81.8777 31.4832 81.9937 30.2554 81.9937H24V65.5299ZM72.5 76.9941L69.2769 75.9722C68.9998 77.1776 68.5431 78.061 67.9067 78.6226C67.2703 79.1841 66.5104 79.4648 65.627 79.4648C64.429 79.4648 63.4557 79.0231 62.707 78.1396C61.9583 77.2562 61.584 75.7738 61.584 73.6924C61.584 71.7308 61.9621 70.312 62.7183 69.436C63.4819 68.5601 64.474 68.1221 65.6943 68.1221C66.5778 68.1221 67.3265 68.3691 67.9404 68.8633C68.5619 69.3574 68.9699 70.0312 69.1646 70.8848L72.4551 70.0986C72.0807 68.7809 71.5192 67.7702 70.7705 67.0664C69.5127 65.876 67.8768 65.2808 65.8628 65.2808C63.5568 65.2808 61.6963 66.0407 60.2813 67.5605C58.8662 69.0729 58.1587 71.1992 58.1587 73.9395C58.1587 76.5299 58.8625 78.5739 60.27 80.0713C61.6776 81.5612 63.4744 82.3062 65.6606 82.3062C67.4276 82.3062 68.8838 81.8719 70.0293 81.0034C71.1823 80.1274 72.0059 78.791 72.5 76.9941Z" fill="#1E7AAA"/>
<path d="M57 11H20V18H57V11Z" fill="#BFBFBF"/>
<path d="M57 22H20V29H57V22Z" fill="#BFBFBF"/>
<path d="M76 33H20V40H76V33Z" fill="#BFBFBF"/>
<path d="M20 44H61V51H20V44Z" fill="#BFBFBF"/>
<path opacity="0.3" d="M56 30V1H57V29H86L87 30H56Z" fill="black"/>
</g>
<defs>
<clipPath id="clip0">
<rect width="96" height="96" fill="white"/>
</clipPath>
</defs>
</svg>
