<svg width="96" height="96" viewBox="0 0 96 96" fill="none" xmlns="http://www.w3.org/2000/svg">
<g clip-path="url(#clip0)">
<path d="M10 1H57L86 30V95H10V1Z" fill="white"/>
<path fill-rule="evenodd" clip-rule="evenodd" d="M10 95H86V30L57 1H10V95ZM57 0H9.00002V96H87V30L57 0Z" fill="#BFBFBF"/>
<path d="M28.6948 79.2261V68.3213H30.1885C31.5436 68.3213 32.4533 68.3737 32.9175 68.4785C33.5389 68.6133 34.0518 68.8716 34.4561 69.2534C34.8604 69.6353 35.1748 70.1668 35.3994 70.8481C35.624 71.5295 35.7363 72.5065 35.7363 73.7793C35.7363 75.0521 35.624 76.0591 35.3994 76.8003C35.1748 77.534 34.8828 78.0619 34.5234 78.3838C34.1716 78.7057 33.7261 78.9341 33.187 79.0688C32.7752 79.1737 32.1051 79.2261 31.1768 79.2261H28.6948Z" fill="#464B4F"/>
<path d="M60.6567 79.2261V68.3213H62.1504C63.5055 68.3213 64.4152 68.3737 64.8794 68.4785C65.5008 68.6133 66.0137 68.8716 66.418 69.2534C66.8223 69.6353 67.1367 70.1668 67.3613 70.8481C67.5859 71.5295 67.6982 72.5065 67.6982 73.7793C67.6982 75.0521 67.5859 76.0591 67.3613 76.8003C67.1367 77.534 66.8447 78.0619 66.4854 78.3838C66.1335 78.7057 65.688 78.9341 65.1489 79.0688C64.7371 79.1737 64.0671 79.2261 63.1387 79.2261H60.6567Z" fill="#464B4F"/>
<path fill-rule="evenodd" clip-rule="evenodd" d="M23 58C21.3431 58 20 59.3431 20 61V86C20 87.6569 21.3431 89 23 89H73C74.6569 89 76 87.6569 76 86V61C76 59.3431 74.6569 58 73 58H23ZM31.4463 65.5361H25.3706V82H31.626C32.8538 82 33.8346 81.8839 34.5684 81.6519C35.5492 81.3374 36.3278 80.8994 36.9043 80.3379C37.668 79.5967 38.2557 78.6271 38.6675 77.4292C39.0044 76.4484 39.1729 75.2804 39.1729 73.9253C39.1729 72.383 38.9932 71.0877 38.6338 70.0396C38.2744 68.9839 37.7503 68.0929 37.0615 67.3667C36.3727 66.6405 35.5454 66.1351 34.5796 65.8506C33.8608 65.641 32.8164 65.5361 31.4463 65.5361ZM40.3184 65.5361L46.2031 82H49.752L55.6479 65.5361H52.1216L48.0898 77.7212L43.9233 65.5361H40.3184ZM63.4082 65.5361H57.3325V82H63.5879C64.8158 82 65.7965 81.8839 66.5303 81.6519C67.5111 81.3374 68.2897 80.8994 68.8662 80.3379C69.6299 79.5967 70.2176 78.6271 70.6294 77.4292C70.9663 76.4484 71.1348 75.2804 71.1348 73.9253C71.1348 72.383 70.9551 71.0877 70.5957 70.0396C70.2363 68.9839 69.7122 68.0929 69.0234 67.3667C68.3346 66.6405 67.5073 66.1351 66.5415 65.8506C65.8228 65.641 64.7783 65.5361 63.4082 65.5361Z" fill="#464B4F"/>
<path d="M57 12H20V44H39V47H35V50H61V47H57V44H76V29H73V41H23V15H57V12Z" fill="#BFBFBF"/>
<path opacity="0.3" d="M56 30V1H57V29H86L87 30H56Z" fill="black"/>
</g>
<defs>
<clipPath id="clip0">
<rect width="96" height="96" fill="white"/>
</clipPath>
</defs>
</svg>
