<svg width="96" height="96" viewBox="0 0 96 96" fill="none" xmlns="http://www.w3.org/2000/svg">
<g clip-path="url(#clip0)">
<path d="M10 1H57L86 30V95H10V1Z" fill="white"/>
<path fill-rule="evenodd" clip-rule="evenodd" d="M10 95H86V30L57 1H10V95ZM57 0H9.00002V96H87V30L57 0Z" fill="#BFBFBF"/>
<path d="M62.5996 72.0835V68.2764H64.5088C66.0736 68.2764 67.0207 68.2951 67.3501 68.3325C67.9041 68.3999 68.3197 68.5946 68.5967 68.9165C68.8812 69.231 69.0234 69.6427 69.0234 70.1519C69.0234 70.6834 68.8587 71.1139 68.5293 71.4434C68.2074 71.7653 67.7619 71.96 67.1929 72.0273C66.8784 72.0648 66.0736 72.0835 64.7783 72.0835H62.5996Z" fill="#C8A428"/>
<path d="M62.5996 79.2261V74.8237H65.2837C66.7961 74.8237 67.7769 74.9023 68.2261 75.0596C68.6828 75.2168 69.0309 75.4676 69.2705 75.812C69.5101 76.1564 69.6299 76.5757 69.6299 77.0698C69.6299 77.6538 69.4727 78.1217 69.1582 78.4736C68.8512 78.818 68.4507 79.0352 67.9565 79.125C67.6346 79.1924 66.8747 79.2261 65.6768 79.2261H62.5996Z" fill="#C8A428"/>
<path fill-rule="evenodd" clip-rule="evenodd" d="M23 58C21.3431 58 20 59.3431 20 61V86C20 87.6569 21.3431 89 23 89H73C74.6569 89 76 87.6569 76 86V61C76 59.3431 74.6569 58 73 58H23ZM23.4614 82V65.5361H35.6689V68.3213H26.7856V71.9712H35.0513V74.7451H26.7856V79.2261H35.9834V82H23.4614ZM42 77V74H53V77H42ZM65.8564 65.5361H59.2754V82H64.8794C66.9982 81.985 68.3346 81.9476 68.8887 81.8877C69.7721 81.7904 70.5133 81.5321 71.1123 81.1128C71.7188 80.686 72.1942 80.1208 72.5386 79.417C72.8905 78.7057 73.0664 77.9757 73.0664 77.2271C73.0664 76.2762 72.7969 75.4489 72.2578 74.7451C71.7188 74.0413 70.9476 73.5435 69.9443 73.2515C70.6556 72.9295 71.2171 72.4466 71.6289 71.8027C72.0482 71.1589 72.2578 70.4513 72.2578 69.6802C72.2578 68.9689 72.0894 68.3288 71.7524 67.7598C71.4155 67.1833 70.9925 66.7228 70.4834 66.3784C69.9818 66.034 69.409 65.8094 68.7651 65.7046C68.1287 65.5923 67.1592 65.5361 65.8564 65.5361Z" fill="#C8A428"/>
<path d="M57 18.7868L49.274 11.0608C48.6882 10.475 47.7384 10.475 47.1526 11.0608C41.1428 17.0717 31.2427 26.9707 31.2427 26.9707L28.0613 30.1532C26.9675 31.247 28.0613 32.2745 28.0613 32.2745L47.1533 51.3662C47.7391 51.952 48.6888 51.952 49.2746 51.3662L68.5785 32.0624C68.8909 31.75 68.7569 30.5437 68.3664 30.1532L67.2132 29.0001H63.1555L48.2138 43.9418L35.4854 31.2133L48.2133 18.4854L52.4565 22.7286L43.9712 31.2138L48.2138 35.4565L57 26.6703V18.7868Z" fill="#C4C4C4"/>
<path opacity="0.3" d="M56 30V1H57V29H86L87 30H56Z" fill="black"/>
</g>
<defs>
<clipPath id="clip0">
<rect width="96" height="96" fill="white"/>
</clipPath>
</defs>
</svg>
