<svg width="96" height="96" viewBox="0 0 96 96" fill="none" xmlns="http://www.w3.org/2000/svg">
<g clip-path="url(#clip0)">
<path d="M10 1H57L86 30V95H10V1Z" fill="white"/>
<path fill-rule="evenodd" clip-rule="evenodd" d="M10 95H86V30L57 1H10V95ZM57 0H9.00002V96H87V30L57 0Z" fill="#BFBFBF"/>
<path fill-rule="evenodd" clip-rule="evenodd" d="M23 58C21.3431 58 20 59.3431 20 61V86C20 87.6569 21.3431 89 23 89H73C74.6569 89 76 87.6569 76 86V61C76 59.3431 74.6569 58 73 58H23ZM28.8184 65.5361V82H32.1426V75.0034H39.0156V72.2183H32.1426V68.3213H40.105V65.5361H28.8184ZM42.9463 65.6709V82H54.5361V79.2261H46.2705V65.6709H42.9463ZM53.5254 65.5361L59.4102 82H62.959L68.855 65.5361H65.3286L61.2969 77.7212L57.1304 65.5361H53.5254Z" fill="#C83F28"/>
<path fill-rule="evenodd" clip-rule="evenodd" d="M57 17H29V11H26V14H23V11H20V50H23V47H26V50H29V44H67V50H70V47H73V50H76V29H73V32H70V29H67V41H29V20H57V17ZM26 41H23V44H26V41ZM70 41H73V44H70V41ZM26 35H23V38H26V35ZM70 35H73V38H70V35ZM26 29H23V32H26V29ZM26 23H23V26H26V23ZM26 17H23V20H26V17Z" fill="#BFBFBF"/>
<path opacity="0.3" d="M56 30V1H57V29H86L87 30H56Z" fill="black"/>
</g>
<defs>
<clipPath id="clip0">
<rect width="96" height="96" fill="white"/>
</clipPath>
</defs>
</svg>
