<svg width="96" height="96" viewBox="0 0 96 96" fill="none" xmlns="http://www.w3.org/2000/svg">
<g clip-path="url(#clip0)">
<path d="M10 1H57L86 30V95H10V1Z" fill="white"/>
<path fill-rule="evenodd" clip-rule="evenodd" d="M10 95H86V30L57 1H10V95ZM57 0H9.00002V96H87V30L57 0Z" fill="#BFBFBF"/>
<path fill-rule="evenodd" clip-rule="evenodd" d="M23 58C21.3431 58 20 59.3431 20 61V86C20 87.6569 21.3431 89 23 89H73C74.6569 89 76 87.6569 76 86V61C76 59.3431 74.6569 58 73 58H23ZM21.9407 65.9678V81H24.9759V74.4272H30.9231V81H33.9583V65.9678H30.9231V71.8843H24.9759V65.9678H21.9407ZM39.44 68.5107V81H42.4752V68.5107H46.9254V65.9678H34.9796V68.5107H39.44ZM47.8031 65.9678V81H50.6229V69.167L53.5966 81H56.5189L59.5028 69.167V81H62.3227V65.9678H57.7699L55.0731 76.2217L52.3456 65.9678H47.8031ZM64.3693 66.0908V81H74.9514V78.4673H67.4045V66.0908H64.3693Z" fill="#5E93A2"/>
<path d="M57 26H56L57 27V26Z" fill="#BFBFBF"/>
<path d="M59 29L68 38L56 50H61L73 38L64 29H59Z" fill="#BFBFBF"/>
<path d="M40 50H35L23 38L35 26H40L28 38L40 50Z" fill="#BFBFBF"/>
<path d="M41 36H45V40H41V36Z" fill="#BFBFBF"/>
<path d="M51 36H55V40H51V36Z" fill="#BFBFBF"/>
<path opacity="0.3" d="M56 30V1H57V29H86L87 30H56Z" fill="black"/>
</g>
<defs>
<clipPath id="clip0">
<rect width="96" height="96" fill="white"/>
</clipPath>
</defs>
</svg>
