<svg width="96" height="96" viewBox="0 0 96 96" fill="none" xmlns="http://www.w3.org/2000/svg">
<g clip-path="url(#clip0)">
<path d="M10 1H57L86 30V95H10V1Z" fill="white"/>
<path fill-rule="evenodd" clip-rule="evenodd" d="M10 95H86V30L57 1H10V95ZM57 0H9.00002V96H87V30L57 0Z" fill="#BFBFBF"/>
<path d="M43.9907 69.377L46.2593 75.4863H41.7671L43.9907 69.377Z" fill="#EEC33F"/>
<path fill-rule="evenodd" clip-rule="evenodd" d="M23 58C21.3431 58 20 59.3431 20 61V86C20 87.6569 21.3431 89 23 89H73C74.6569 89 76 87.6569 76 86V61C76 59.3431 74.6569 58 73 58H23ZM31.0308 65.5361V82H34.355V65.5361H31.0308ZM48.7637 82H52.3799L45.7876 65.5361H42.2725L35.8599 82H39.3862L40.7451 78.2603H47.3262L48.7637 82ZM54.1768 65.5361V82H57.501V75.0034H64.374V72.2183H57.501V68.3213H65.4634V65.5361H54.1768Z" fill="#EEC33F"/>
<path fill-rule="evenodd" clip-rule="evenodd" d="M57 12H20V50H76V29H73V44.7634L58.8621 29.8401L59.7803 29H57V27.4776L50.4174 33.5H45.5826L25.3617 15H57V12ZM23 44.7356V16.9054L37.1238 29.8272L23 44.7356ZM70.9864 47H24.9873L39.3375 31.8525L44.4174 36.5H51.5826L56.6484 31.8654L70.9864 47Z" fill="#BFBFBF"/>
<path opacity="0.3" d="M56 30V1H57V29H86L87 30H56Z" fill="black"/>
</g>
<defs>
<clipPath id="clip0">
<rect width="96" height="96" fill="white"/>
</clipPath>
</defs>
</svg>
