<svg width="96" height="96" viewBox="0 0 96 96" fill="none" xmlns="http://www.w3.org/2000/svg">
<g clip-path="url(#clip0)">
<path d="M10 1H57L86 30V95H10V1Z" fill="white"/>
<path fill-rule="evenodd" clip-rule="evenodd" d="M10 95H86V30L57 1H10V95ZM57 0H9.00002V96H87V30L57 0Z" fill="#BFBFBF"/>
<path d="M46.6748 78.002C45.8138 77.0361 45.3833 75.6211 45.3833 73.7568C45.3833 71.8626 45.8026 70.4476 46.6411 69.5117C47.4797 68.5684 48.584 68.0967 49.9541 68.0967C51.3242 68.0967 52.4211 68.5609 53.2446 69.4893C54.0757 70.4176 54.4912 71.8252 54.4912 73.7119C54.4912 75.6211 54.0645 77.0548 53.2109 78.0132C52.3649 78.964 51.2793 79.4395 49.9541 79.4395C48.6289 79.4395 47.5358 78.9603 46.6748 78.002Z" fill="#0087CD"/>
<path fill-rule="evenodd" clip-rule="evenodd" d="M23 58C21.3431 58 20 59.3431 20 61V86C20 87.6569 21.3431 89 23 89H73C74.6569 89 76 87.6569 76 86V61C76 59.3431 74.6569 58 73 58H23ZM23.4277 65.5361V82H26.5161V69.04L29.7729 82H32.9736L36.2417 69.04V82H39.3301V65.5361H34.3438L31.3901 76.7666L28.4028 65.5361H23.4277ZM42.7104 69.6465C42.2088 70.7845 41.958 72.1921 41.958 73.8691C41.958 76.4896 42.6805 78.5485 44.1255 80.0459C45.5705 81.5358 47.5171 82.2808 49.9653 82.2808C52.3836 82.2808 54.3153 81.5321 55.7603 80.0347C57.2052 78.5298 57.9277 76.4484 57.9277 73.7905C57.9277 71.1102 57.1978 69.0176 55.7378 67.5127C54.2853 66.0078 52.3462 65.2554 49.9204 65.2554C48.5802 65.2554 47.3973 65.4725 46.3716 65.9067C45.6004 66.2287 44.8892 66.7228 44.2378 67.3892C43.5939 68.0555 43.0848 68.8079 42.7104 69.6465ZM58.8486 65.5361L64.7334 82H68.2822L74.1782 65.5361H70.6519L66.6201 77.7212L62.4536 65.5361H58.8486Z" fill="#0087CD"/>
<path d="M57 13.1346C54.2948 11.7691 51.2372 11 48 11C36.9543 11 28 19.9543 28 31C28 42.0457 36.9543 51 48 51C52.0763 51 55.8678 49.7805 59.0295 47.6864L62.3431 51H68V45.3432L64.6864 42.0296C66.7805 38.8679 68 35.0763 68 31C68 30.325 67.9666 29.6578 67.9012 29H60.8471C60.9478 29.6519 61 30.3199 61 31C61 33.1322 60.4867 35.1445 59.5769 36.9201L50.8415 28.1847C50.1167 27.4531 49.1112 27 48 27C45.7909 27 44 28.7909 44 31C44 32.1046 44.4477 33.1046 45.1716 33.8285L53.92 42.5769C52.1444 43.4867 50.1322 44 48 44C40.8203 44 35 38.1797 35 31C35 23.8203 40.8203 18 48 18C51.493 18 54.6642 19.3776 57 21.6191V13.1346Z" fill="#BFBFBF"/>
<path opacity="0.3" d="M56 30V1H57V29H86L87 30H56Z" fill="black"/>
</g>
<defs>
<clipPath id="clip0">
<rect width="96" height="96" fill="white"/>
</clipPath>
</defs>
</svg>
