<svg width="96" height="96" viewBox="0 0 96 96" fill="none" xmlns="http://www.w3.org/2000/svg">
<g clip-path="url(#clip0)">
<path d="M10 1H57L86 30V95H10V1Z" fill="white"/>
<path fill-rule="evenodd" clip-rule="evenodd" d="M10 95H86V30L57 1H10V95ZM57 0H9.00002V96H87V30L57 0Z" fill="#BFBFBF"/>
<path d="M48.5054 72.9932V68.3213H50.1113C51.3092 68.3213 52.1066 68.3587 52.5034 68.4336C53.0425 68.5309 53.488 68.7743 53.8398 69.1636C54.1917 69.5529 54.3677 70.047 54.3677 70.646C54.3677 71.1327 54.2404 71.5594 53.9858 71.9263C53.7388 72.2931 53.3944 72.5627 52.9526 72.7349C52.5109 72.9071 51.6349 72.9932 50.3247 72.9932H48.5054Z" fill="#00A9CD"/>
<path d="M66.0137 70.2866V75.9131H62.229L66.0137 70.2866Z" fill="#00A9CD"/>
<path fill-rule="evenodd" clip-rule="evenodd" d="M23 58C21.3431 58 20 59.3431 20 61V86C20 87.6569 21.3431 89 23 89H73C74.6569 89 76 87.6569 76 86V61C76 59.3431 74.6569 58 73 58H23ZM25.9771 65.5361V82H29.0654V69.04L32.3223 82H35.5229L38.791 69.04V82H41.8794V65.5361H36.8931L33.9395 76.7666L30.9521 65.5361H25.9771ZM45.1812 65.5361V82H48.5054V75.7896H50.6729C52.1777 75.7896 53.327 75.7109 54.1206 75.5537C54.7046 75.4264 55.2773 75.1681 55.8389 74.7788C56.4079 74.382 56.8758 73.8392 57.2427 73.1504C57.6095 72.4616 57.793 71.6118 57.793 70.6011C57.793 69.2909 57.4748 68.224 56.8384 67.4004C56.202 66.5693 55.4121 66.0303 54.4688 65.7832C53.8548 65.6185 52.5371 65.5361 50.5156 65.5361H45.1812ZM66.0137 78.687V82H69.0684V78.687H71.1123V75.9131H69.0684V65.4688H66.418L59.2754 75.9243V78.687H66.0137Z" fill="#00A9CD"/>
<path fill-rule="evenodd" clip-rule="evenodd" d="M20 16H57V20L56 19H50L56 25H57V29H56L50 35H56L62 29H68L62 35H68L74 29H76V50H20V16ZM26 35H32L38 29H32L26 35ZM32 19H26L32 25H38L32 19ZM38 35H44L50 29H44L38 35ZM44 19H38L44 25H50L44 19ZM73 38H23V47H73V38Z" fill="#BFBFBF"/>
<path opacity="0.3" d="M56 30V1H57V29H86L87 30H56Z" fill="black"/>
</g>
<defs>
<clipPath id="clip0">
<rect width="96" height="96" fill="white"/>
</clipPath>
</defs>
</svg>
