<svg width="96" height="96" viewBox="0 0 96 96" fill="none" xmlns="http://www.w3.org/2000/svg">
<g clip-path="url(#clip0)">
<path d="M10 1H57L86 30V95H10V1Z" fill="white"/>
<path fill-rule="evenodd" clip-rule="evenodd" d="M10 95H86V30L57 1H10V95ZM57 0H9.00002V96H87V30L57 0Z" fill="#BFBFBF"/>
<path d="M45.9561 72.9932V68.3213H47.562C48.7599 68.3213 49.5573 68.3587 49.9541 68.4336C50.4932 68.5309 50.9386 68.7743 51.2905 69.1636C51.6424 69.5529 51.8184 70.047 51.8184 70.646C51.8184 71.1327 51.6911 71.5594 51.4365 71.9263C51.1895 72.2931 50.8451 72.5627 50.4033 72.7349C49.9616 72.9071 49.0856 72.9932 47.7754 72.9932H45.9561Z" fill="#2BBDC6"/>
<path fill-rule="evenodd" clip-rule="evenodd" d="M23 58C21.3431 58 20 59.3431 20 61V86C20 87.6569 21.3431 89 23 89H73C74.6569 89 76 87.6569 76 86V61C76 59.3431 74.6569 58 73 58H23ZM23.4277 65.5361V82H26.5161V69.04L29.7729 82H32.9736L36.2417 69.04V82H39.3301V65.5361H34.3438L31.3901 76.7666L28.4028 65.5361H23.4277ZM42.6318 65.5361V82H45.9561V75.7896H48.1235C49.6284 75.7896 50.7777 75.7109 51.5713 75.5537C52.1553 75.4264 52.728 75.1681 53.2896 74.7788C53.8586 74.382 54.3265 73.8392 54.6934 73.1504C55.0602 72.4616 55.2437 71.6118 55.2437 70.6011C55.2437 69.2909 54.9255 68.224 54.2891 67.4004C53.6527 66.5693 52.8628 66.0303 51.9194 65.7832C51.3055 65.6185 49.9878 65.5361 47.9663 65.5361H42.6318ZM65.6318 73.1729V75.9468H69.439V78.0356C68.9373 78.425 68.3346 78.7581 67.6309 79.0352C66.9346 79.3047 66.2383 79.4395 65.542 79.4395C64.1344 79.4395 62.9964 78.9528 62.1279 77.9795C61.2594 76.9987 60.8252 75.5312 60.8252 73.5771C60.8252 71.7653 61.252 70.3989 62.1055 69.478C62.9665 68.5571 64.1232 68.0967 65.5757 68.0967C66.534 68.0967 67.3314 68.3325 67.9678 68.8042C68.6117 69.2684 69.0496 69.9048 69.2817 70.7134L72.5835 70.0957C72.2541 68.5833 71.5129 67.4004 70.3599 66.5469C69.2144 65.6859 67.6196 65.2554 65.5757 65.2554C64.0034 65.2554 62.6895 65.5286 61.6338 66.0752C60.2487 66.7865 59.1968 67.8084 58.478 69.1411C57.7593 70.4738 57.3999 71.9974 57.3999 73.7119C57.3999 75.2917 57.7218 76.7554 58.3657 78.103C59.0096 79.4432 59.9717 80.4764 61.252 81.2026C62.5322 81.9214 64.0334 82.2808 65.7554 82.2808C67.1105 82.2808 68.4469 82.0262 69.7646 81.5171C71.0898 81.0005 72.1006 80.4053 72.7969 79.7314V73.1729H65.6318Z" fill="#2BBDC6"/>
<path fill-rule="evenodd" clip-rule="evenodd" d="M57 16H20V50H76V29H74L68 35H62L68 29H62L56 35H50L56 29H57V25H56L50 19H56L57 20V16ZM32 35H26L32 29H38L32 35ZM26 19H32L38 25H32L26 19ZM44 35H38L44 29H50L44 35ZM38 19H44L50 25H44L38 19Z" fill="#BFBFBF"/>
<path opacity="0.3" d="M56 30V1H57V29H86L87 30H56Z" fill="black"/>
</g>
<defs>
<clipPath id="clip0">
<rect width="96" height="96" fill="white"/>
</clipPath>
</defs>
</svg>
