<svg width="96" height="96" viewBox="0 0 96 96" fill="none" xmlns="http://www.w3.org/2000/svg">
<g clip-path="url(#clip0)">
<path d="M10 1H57L86 30V95H10V1Z" fill="white"/>
<path fill-rule="evenodd" clip-rule="evenodd" d="M10 95H86V30L57 0.999985H10V95ZM57 -1.52588e-05H9.00002V96H87V30L57 -1.52588e-05Z" fill="#BFBFBF"/>
<path d="M29.4248 78.002C28.5638 77.0361 28.1333 75.6211 28.1333 73.7568C28.1333 71.8626 28.5526 70.4476 29.3911 69.5117C30.2297 68.5684 31.334 68.0967 32.7041 68.0967C34.0742 68.0967 35.1711 68.5609 35.9946 69.4893C36.8257 70.4176 37.2412 71.8252 37.2412 73.7119C37.2412 75.6211 36.8145 77.0548 35.9609 78.0132C35.1149 78.964 34.0293 79.4395 32.7041 79.4395C31.3789 79.4395 30.2858 78.9603 29.4248 78.002Z" fill="#1E7AAA"/>
<path d="M46.5962 79.2261V68.3213H48.0898C49.445 68.3213 50.3547 68.3737 50.8188 68.4785C51.4403 68.6133 51.9531 68.8716 52.3574 69.2534C52.7617 69.6353 53.0762 70.1668 53.3008 70.8481C53.5254 71.5295 53.6377 72.5065 53.6377 73.7793C53.6377 75.0521 53.5254 76.0591 53.3008 76.8003C53.0762 77.534 52.7842 78.0619 52.4248 78.3838C52.0729 78.7057 51.6274 78.9341 51.0884 79.0688C50.6766 79.1737 50.0065 79.2261 49.0781 79.2261H46.5962Z" fill="#1E7AAA"/>
<path fill-rule="evenodd" clip-rule="evenodd" d="M23 58C21.3431 58 20 59.3431 20 61V86C20 87.6569 21.3431 89 23 89H73C74.6569 89 76 87.6569 76 86V61C76 59.3431 74.6569 58 73 58H23ZM25.4604 69.6465C24.9588 70.7845 24.708 72.1921 24.708 73.8691C24.708 76.4896 25.4305 78.5485 26.8755 80.0459C28.3205 81.5358 30.2671 82.2808 32.7153 82.2808C35.1336 82.2808 37.0653 81.5321 38.5103 80.0347C39.9552 78.5298 40.6777 76.4484 40.6777 73.7905C40.6777 71.1102 39.9478 69.0176 38.4878 67.5127C37.0353 66.0078 35.0962 65.2554 32.6704 65.2554C31.3302 65.2554 30.1473 65.4725 29.1216 65.9067C28.3504 66.2287 27.6392 66.7228 26.9878 67.3892C26.3439 68.0555 25.8348 68.8079 25.4604 69.6465ZM49.3477 65.5361H43.272V82H49.5273C50.7552 82 51.736 81.8839 52.4697 81.6519C53.4505 81.3374 54.2292 80.8994 54.8057 80.3379C55.5693 79.5967 56.1571 78.6271 56.5688 77.4292C56.9058 76.4484 57.0742 75.2804 57.0742 73.9253C57.0742 72.383 56.8945 71.0877 56.5352 70.0396C56.1758 68.9839 55.6517 68.0929 54.9629 67.3667C54.2741 66.6405 53.4468 66.1351 52.481 65.8506C51.7622 65.641 50.7178 65.5361 49.3477 65.5361ZM63.6104 68.3213V82H66.9346V68.3213H71.8086V65.5361H58.7251V68.3213H63.6104Z" fill="#1E7AAA"/>
<path d="M57 11H20V18H57V11Z" fill="#BFBFBF"/>
<path d="M57 22H20V29H57V22Z" fill="#BFBFBF"/>
<path d="M20 33H76V40H20V33Z" fill="#BFBFBF"/>
<path d="M20 44H76V51H20V44Z" fill="#BFBFBF"/>
<path opacity="0.3" d="M56 30V1H57V29H86L87 30H56Z" fill="black"/>
</g>
<defs>
<clipPath id="clip0">
<rect width="96" height="96" fill="white"/>
</clipPath>
</defs>
</svg>
