<svg width="96" height="96" viewBox="0 0 96 96" fill="none" xmlns="http://www.w3.org/2000/svg">
<g clip-path="url(#clip0)">
<path d="M10 1H57L86 30V95H10V1Z" fill="white"/>
<path fill-rule="evenodd" clip-rule="evenodd" d="M10 95H86V30L57 0.999985H10V95ZM57 -1.52588e-05H9.00002V96H87V30L57 -1.52588e-05Z" fill="#BFBFBF"/>
<path d="M29.9863 72.9932V68.3213H31.5923C32.7902 68.3213 33.5876 68.3587 33.9844 68.4336C34.5234 68.5309 34.9689 68.7743 35.3208 69.1636C35.6727 69.5529 35.8486 70.047 35.8486 70.646C35.8486 71.1327 35.7214 71.5594 35.4668 71.9263C35.2197 72.2931 34.8753 72.5627 34.4336 72.7349C33.9919 72.9071 33.1159 72.9932 31.8057 72.9932H29.9863Z" fill="#9E1919"/>
<path d="M45.3159 79.2261V68.3213H46.8096C48.1647 68.3213 49.0744 68.3737 49.5386 68.4785C50.16 68.6133 50.6729 68.8716 51.0771 69.2534C51.4814 69.6353 51.7959 70.1668 52.0205 70.8481C52.2451 71.5295 52.3574 72.5065 52.3574 73.7793C52.3574 75.0521 52.2451 76.0591 52.0205 76.8003C51.7959 77.534 51.5039 78.0619 51.1445 78.3838C50.7926 78.7057 50.3472 78.9341 49.8081 79.0688C49.3963 79.1737 48.7262 79.2261 47.7979 79.2261H45.3159Z" fill="#9E1919"/>
<path fill-rule="evenodd" clip-rule="evenodd" d="M23 58C21.3431 58 20 59.3431 20 61V86C20 87.6569 21.3431 89 23 89H73C74.6569 89 76 87.6569 76 86V61C76 59.3431 74.6569 58 73 58H23ZM26.6621 65.5361V82H29.9863V75.7896H32.1538C33.6587 75.7896 34.8079 75.7109 35.6016 75.5537C36.1855 75.4264 36.7583 75.1681 37.3198 74.7788C37.8888 74.382 38.3568 73.8392 38.7236 73.1504C39.0905 72.4616 39.2739 71.6118 39.2739 70.6011C39.2739 69.2909 38.9557 68.224 38.3193 67.4004C37.6829 66.5693 36.8931 66.0303 35.9497 65.7832C35.3358 65.6185 34.0181 65.5361 31.9966 65.5361H26.6621ZM48.0674 65.5361H41.9917V82H48.2471C49.4749 82 50.4557 81.8839 51.1895 81.6519C52.1702 81.3374 52.9489 80.8994 53.5254 80.3379C54.2891 79.5967 54.8768 78.6271 55.2886 77.4292C55.6255 76.4484 55.7939 75.2804 55.7939 73.9253C55.7939 72.383 55.6143 71.0877 55.2549 70.0396C54.8955 68.9839 54.3714 68.0929 53.6826 67.3667C52.9938 66.6405 52.1665 66.1351 51.2007 65.8506C50.4819 65.641 49.4375 65.5361 48.0674 65.5361ZM58.6465 65.5361V82H61.9707V75.0034H68.8438V72.2183H61.9707V68.3213H69.9331V65.5361H58.6465Z" fill="#9E1919"/>
<path d="M42.1053 41V17H20V41H42.1053Z" fill="#BFBFBF"/>
<path d="M45.0526 23V17H57V23H45.0526Z" fill="#BFBFBF"/>
<path d="M45.0526 32V26H57V29H76V32H45.0526Z" fill="#BFBFBF"/>
<path d="M76 35H45.0526V41H76V35Z" fill="#BFBFBF"/>
<path d="M76 44H20V50H76V44Z" fill="#BFBFBF"/>
<path opacity="0.3" d="M56 30V1H57V29H86L87 30H56Z" fill="black"/>
</g>
<defs>
<clipPath id="clip0">
<rect width="96" height="96" fill="white"/>
</clipPath>
</defs>
</svg>
