<svg width="96" height="96" viewBox="0 0 96 96" fill="none" xmlns="http://www.w3.org/2000/svg">
<g clip-path="url(#clip0)">
<path d="M10 1H57L86 30V95H10V1Z" fill="white"/>
<path fill-rule="evenodd" clip-rule="evenodd" d="M10 95H86V30L57 0.999969H10V95ZM57 -3.05176e-05H9.00002V96H87V30L57 -3.05176e-05Z" fill="#BFBFBF"/>
<path d="M29.9863 72.9932V68.3213H31.5923C32.7902 68.3213 33.5876 68.3587 33.9844 68.4336C34.5234 68.5309 34.9689 68.7743 35.3208 69.1636C35.6727 69.5529 35.8486 70.047 35.8486 70.646C35.8486 71.1327 35.7214 71.5594 35.4668 71.9263C35.2197 72.2931 34.8753 72.5627 34.4336 72.7349C33.9919 72.9071 33.1159 72.9932 31.8057 72.9932H29.9863Z" fill="#F38400"/>
<path d="M45.3271 72.9932V68.3213H46.9331C48.131 68.3213 48.9284 68.3587 49.3252 68.4336C49.8643 68.5309 50.3097 68.7743 50.6616 69.1636C51.0135 69.5529 51.1895 70.047 51.1895 70.646C51.1895 71.1327 51.0622 71.5594 50.8076 71.9263C50.5605 72.2931 50.2161 72.5627 49.7744 72.7349C49.3327 72.9071 48.4567 72.9932 47.1465 72.9932H45.3271Z" fill="#F38400"/>
<path fill-rule="evenodd" clip-rule="evenodd" d="M23 58C21.3431 58 20 59.3431 20 61V86C20 87.6569 21.3431 89 23 89H73C74.6569 89 76 87.6569 76 86V61C76 59.3431 74.6569 58 73 58H23ZM26.6621 65.5361V82H29.9863V75.7896H32.1538C33.6587 75.7896 34.8079 75.7109 35.6016 75.5537C36.1855 75.4264 36.7583 75.1681 37.3198 74.7788C37.8888 74.382 38.3568 73.8392 38.7236 73.1504C39.0905 72.4616 39.2739 71.6118 39.2739 70.6011C39.2739 69.2909 38.9557 68.224 38.3193 67.4004C37.6829 66.5693 36.8931 66.0303 35.9497 65.7832C35.3358 65.6185 34.0181 65.5361 31.9966 65.5361H26.6621ZM42.0029 65.5361V82H45.3271V75.7896H47.4946C48.9995 75.7896 50.1488 75.7109 50.9424 75.5537C51.5264 75.4264 52.0991 75.1681 52.6606 74.7788C53.2297 74.382 53.6976 73.8392 54.0645 73.1504C54.4313 72.4616 54.6147 71.6118 54.6147 70.6011C54.6147 69.2909 54.2966 68.224 53.6602 67.4004C53.0238 66.5693 52.2339 66.0303 51.2905 65.7832C50.6766 65.6185 49.3589 65.5361 47.3374 65.5361H42.0029ZM59.7358 76.3286L56.5015 76.6431C56.7186 78.4849 57.3849 79.8887 58.5005 80.8545C59.616 81.8128 61.2145 82.292 63.2959 82.292C64.7259 82.292 65.9201 82.0936 66.8784 81.6968C67.8368 81.2925 68.578 80.6786 69.1021 79.855C69.6261 79.0314 69.8882 78.1479 69.8882 77.2046C69.8882 76.1639 69.6673 75.2917 69.2256 74.5879C68.7913 73.8766 68.1849 73.3188 67.4062 72.9146C66.6351 72.5028 65.4409 72.106 63.8237 71.7241C62.2065 71.3423 61.1883 70.9754 60.769 70.6235C60.4396 70.3465 60.2749 70.0133 60.2749 69.624C60.2749 69.1973 60.4508 68.8566 60.8027 68.6021C61.3493 68.2052 62.1055 68.0068 63.0713 68.0068C64.0072 68.0068 64.7072 68.194 65.1714 68.5684C65.6431 68.9352 65.95 69.5417 66.0923 70.3877L69.4165 70.2417C69.3641 68.7293 68.8138 67.5202 67.7656 66.6143C66.7249 65.7083 65.1714 65.2554 63.105 65.2554C61.8397 65.2554 60.7578 65.4463 59.8594 65.8281C58.9684 66.21 58.2834 66.7677 57.8042 67.5015C57.3325 68.2277 57.0967 69.0101 57.0967 69.8486C57.0967 71.1514 57.6021 72.2557 58.6128 73.1616C59.3315 73.8055 60.5819 74.3483 62.3638 74.79C63.7489 75.1344 64.6361 75.374 65.0254 75.5088C65.5944 75.7109 65.9912 75.9505 66.2158 76.2275C66.4479 76.4971 66.564 76.8265 66.564 77.2158C66.564 77.8223 66.2907 78.3538 65.7441 78.8105C65.2051 79.2598 64.4002 79.4844 63.3296 79.4844C62.3188 79.4844 61.514 79.2298 60.915 78.7207C60.3236 78.2116 59.9305 77.4142 59.7358 76.3286Z" fill="#F38400"/>
<path d="M57 11H20V51H76V29H73V48H23V14H57V11Z" fill="#BFBFBF"/>
<path d="M57 20H47V17H35V23H57V20Z" fill="#BFBFBF"/>
<path d="M32 17H26V23H32V17Z" fill="#BFBFBF"/>
<path d="M67 42H54V39H35V45H67V42Z" fill="#BFBFBF"/>
<path d="M52 28H35V34H44V31H52V28Z" fill="#BFBFBF"/>
<path d="M32 28H26V34H32V28Z" fill="#BFBFBF"/>
<path d="M32 39H26V45H32V39Z" fill="#BFBFBF"/>
<path opacity="0.3" d="M56 30V1H57V29H86L87 30H56Z" fill="black"/>
</g>
<defs>
<clipPath id="clip0">
<rect width="96" height="96" fill="white"/>
</clipPath>
</defs>
</svg>
