<svg width="96" height="96" viewBox="0 0 96 96" fill="none" xmlns="http://www.w3.org/2000/svg">
<g clip-path="url(#clip0)">
<path d="M10 1H57L86 30V95H10V1Z" fill="white"/>
<path fill-rule="evenodd" clip-rule="evenodd" d="M10 95H86V30L57 0.999969H10V95ZM57 -3.05176e-05H9.00002V96H87V30L57 -3.05176e-05Z" fill="#BFBFBF"/>
<path d="M25.0826 73.3848V68.916H26.6187C27.7646 68.916 28.5273 68.9518 28.9068 69.0234C29.4225 69.1165 29.8486 69.3493 30.1852 69.7217C30.5217 70.0941 30.69 70.5667 30.69 71.1396C30.69 71.6051 30.5683 72.0133 30.3248 72.3643C30.0885 72.7152 29.759 72.973 29.3365 73.1377C28.914 73.3024 28.0761 73.3848 26.8228 73.3848H25.0826Z" fill="#F38400"/>
<path d="M38.3895 73.3848V68.916H39.9257C41.0715 68.916 41.8342 68.9518 42.2137 69.0234C42.7294 69.1165 43.1555 69.3493 43.4921 69.7217C43.8287 70.0941 43.997 70.5667 43.997 71.1396C43.997 71.6051 43.8752 72.0133 43.6317 72.3643C43.3954 72.7152 43.066 72.973 42.6434 73.1377C42.2209 73.3024 41.383 73.3848 40.1298 73.3848H38.3895Z" fill="#F38400"/>
<path fill-rule="evenodd" clip-rule="evenodd" d="M23 58C21.3431 58 20 59.3431 20 61V86C20 87.6569 21.3431 89 23 89H73C74.6569 89 76 87.6569 76 86V61C76 59.3431 74.6569 58 73 58H23ZM47.493 76.876L50.5867 76.5752C50.7729 77.6136 51.1489 78.3763 51.7146 78.8633C52.2876 79.3503 53.0574 79.5938 54.0242 79.5938C55.0483 79.5938 55.8182 79.3789 56.3338 78.9492C56.8566 78.5124 57.118 78.0039 57.118 77.4238C57.118 77.0514 57.007 76.7363 56.785 76.4785C56.5701 76.2135 56.1905 75.9844 55.6463 75.791C55.2739 75.6621 54.4253 75.4329 53.1004 75.1035C51.396 74.681 50.2 74.1618 49.5125 73.5459C48.5457 72.6794 48.0623 71.623 48.0623 70.377C48.0623 69.5749 48.2879 68.8265 48.7391 68.1318C49.1974 67.43 49.8527 66.8965 50.7049 66.5312C51.5643 66.166 52.5991 65.9834 53.8094 65.9834C55.7859 65.9834 57.2719 66.4167 58.2674 67.2832C59.27 68.1497 59.7963 69.3063 59.8465 70.7529L56.6668 70.8926C56.5307 70.0833 56.2371 69.5033 55.7859 69.1523C55.3419 68.7943 54.6723 68.6152 53.7771 68.6152C52.8533 68.6152 52.13 68.805 51.6072 69.1846C51.2706 69.4281 51.1023 69.7539 51.1023 70.1621C51.1023 70.5345 51.2599 70.8532 51.575 71.1182C51.976 71.4548 52.95 71.8057 54.4969 72.1709C56.0437 72.5361 57.186 72.9157 57.9236 73.3096C58.6684 73.6963 59.2485 74.2298 59.6639 74.9102C60.0864 75.5833 60.2976 76.4176 60.2976 77.4131C60.2976 78.3154 60.047 79.1605 59.5457 79.9482C59.0444 80.736 58.3354 81.3232 57.4187 81.71C56.5021 82.0895 55.3598 82.2793 53.992 82.2793C52.0011 82.2793 50.4721 81.821 49.4051 80.9043C48.338 79.9805 47.7006 78.6377 47.493 76.876ZM21.9029 66.252V82H25.0826V76.0596H27.1559C28.5953 76.0596 29.6946 75.9844 30.4537 75.834C31.0123 75.7122 31.5602 75.4652 32.0973 75.0928C32.6415 74.7132 33.0891 74.194 33.44 73.5352C33.7909 72.8763 33.9664 72.0635 33.9664 71.0967C33.9664 69.8434 33.662 68.8229 33.0533 68.0352C32.4446 67.2402 31.6891 66.7246 30.7867 66.4883C30.1995 66.3307 28.9391 66.252 27.0055 66.252H21.9029ZM35.2098 66.252V82H38.3895V76.0596H40.4628C41.9022 76.0596 43.0015 75.9844 43.7606 75.834C44.3192 75.7122 44.8671 75.4652 45.4042 75.0928C45.9484 74.7132 46.396 74.194 46.747 73.5352C47.0979 72.8763 47.2733 72.0635 47.2733 71.0967C47.2733 69.8434 46.969 68.8229 46.3602 68.0352C45.7515 67.2402 44.996 66.7246 44.0936 66.4883C43.5064 66.3307 42.246 66.252 40.3124 66.252H35.2098ZM65.7402 73.7822L60.3584 82H64.1719L67.6738 76.5537L71.165 82H75L69.6182 73.9004L74.5166 66.252H70.832L67.7383 71.3115L64.5801 66.252H60.8633L65.7402 73.7822Z" fill="#F38400"/>
<path d="M57 11H20V51H76V29H73V48H23V14H57V11Z" fill="#BFBFBF"/>
<path d="M57 20H47V17H35V23H57V20Z" fill="#BFBFBF"/>
<path d="M32 17H26V23H32V17Z" fill="#BFBFBF"/>
<path d="M67 42H54V39H35V45H67V42Z" fill="#BFBFBF"/>
<path d="M52 28H35V34H44V31H52V28Z" fill="#BFBFBF"/>
<path d="M32 28H26V34H32V28Z" fill="#BFBFBF"/>
<path d="M32 39H26V45H32V39Z" fill="#BFBFBF"/>
<path opacity="0.3" d="M56 30V1H57V29H86L87 30H56Z" fill="black"/>
</g>
<defs>
<clipPath id="clip0">
<rect width="96" height="96" fill="white"/>
</clipPath>
</defs>
</svg>
