<svg width="96" height="96" viewBox="0 0 96 96" fill="none" xmlns="http://www.w3.org/2000/svg">
<g clip-path="url(#clip0)">
<path d="M10 1H57L86 30V95H10V1Z" fill="white"/>
<path fill-rule="evenodd" clip-rule="evenodd" d="M10 95H86V30L57 1H10V95ZM57 0H9.00002V96H87V30L57 0Z" fill="#BFBFBF"/>
<path d="M32.6372 72.499H30.1777V68.3213H32.7719C34.1196 68.3213 34.9282 68.34 35.1977 68.3774C35.7368 68.4673 36.1523 68.6844 36.4443 69.0288C36.7438 69.3657 36.8935 69.8112 36.8935 70.3652C36.8935 70.8594 36.7812 71.2712 36.5566 71.6006C36.332 71.93 36.0213 72.1621 35.6245 72.2969C35.2277 72.4316 34.2319 72.499 32.6372 72.499Z" fill="#3D96C5"/>
<path fill-rule="evenodd" clip-rule="evenodd" d="M23 58C21.3431 58 20 59.3431 20 61V86C20 87.6569 21.3431 89 23 89H73C74.6569 89 76 87.6569 76 86V61C76 59.3431 74.6569 58 73 58H23ZM26.8535 65.5361V82H30.1777V75.127H30.8515C31.6152 75.127 32.173 75.1906 32.5249 75.3179C32.8768 75.4377 33.2099 75.666 33.5244 76.0029C33.8388 76.3324 34.4228 77.1372 35.2763 78.4175L37.6796 82H41.6552L39.645 78.7881C38.8514 77.5078 38.2187 76.6169 37.747 76.1152C37.2828 75.6136 36.6914 75.1532 35.9726 74.7339C37.4176 74.5243 38.5032 74.0189 39.2295 73.2178C39.9557 72.4092 40.3188 71.3872 40.3188 70.1519C40.3188 69.1786 40.0792 68.3138 39.6001 67.5576C39.1209 66.8014 38.4808 66.2773 37.6796 65.9854C36.886 65.6859 35.6095 65.5361 33.8501 65.5361H26.8535ZM47.6294 68.3213V82H50.9536V68.3213H55.8276V65.5361H42.7441V68.3213H47.6294ZM58.4663 65.5361V82H61.7906V75.0034H68.6636V72.2183H61.7906V68.3213H69.753V65.5361H58.4663Z" fill="#3D96C5"/>
<path d="M57 13H20V50H76V29H73V47H23V16H57V13Z" fill="#BFBFBF"/>
<path d="M57 21H29V24H57V21Z" fill="#BFBFBF"/>
<path d="M57 27H26V30H70V29H57V27Z" fill="#BFBFBF"/>
<path d="M70 33H26V36H70V33Z" fill="#BFBFBF"/>
<path d="M70 39H26V42H70V39Z" fill="#BFBFBF"/>
<path opacity="0.3" d="M56 30V1H57V29H86L87 30H56Z" fill="black"/>
</g>
<defs>
<clipPath id="clip0">
<rect width="96" height="96" fill="white"/>
</clipPath>
</defs>
</svg>
