<svg width="96" height="96" viewBox="0 0 96 96" fill="none" xmlns="http://www.w3.org/2000/svg">
<g clip-path="url(#clip0)">
<path d="M10 1H57L86 30V95H10V1Z" fill="white"/>
<path fill-rule="evenodd" clip-rule="evenodd" d="M10 95H86V30L57 1H10V95ZM57 0H9.00002V96H87V30L57 0Z" fill="#BFBFBF"/>
<path d="M60.6567 79.2261V68.3213H62.1504C63.5055 68.3213 64.4152 68.3737 64.8794 68.4785C65.5008 68.6133 66.0137 68.8716 66.418 69.2534C66.8223 69.6353 67.1367 70.1668 67.3613 70.8481C67.5859 71.5295 67.6982 72.5065 67.6982 73.7793C67.6982 75.0521 67.5859 76.0591 67.3613 76.8003C67.1367 77.534 66.8447 78.0619 66.4854 78.3838C66.1335 78.7057 65.688 78.9341 65.1489 79.0688C64.7371 79.1737 64.0671 79.2261 63.1387 79.2261H60.6567Z" fill="#D56DB6"/>
<path fill-rule="evenodd" clip-rule="evenodd" d="M23 58C21.3431 58 20 59.3431 20 61V86C20 87.6569 21.3431 89 23 89H73C74.6569 89 76 87.6569 76 86V61C76 59.3431 74.6569 58 73 58H23ZM27.7739 76.3286L24.5396 76.6431C24.7567 78.4849 25.423 79.8887 26.5386 80.8545C27.6541 81.8128 29.2526 82.292 31.334 82.292C32.764 82.292 33.9582 82.0936 34.9165 81.6968C35.8748 81.2925 36.616 80.6786 37.1401 79.855C37.6642 79.0314 37.9263 78.1479 37.9263 77.2046C37.9263 76.1639 37.7054 75.2917 37.2637 74.5879C36.8294 73.8766 36.223 73.3188 35.4443 72.9146C34.6732 72.5028 33.479 72.106 31.8618 71.7241C30.2446 71.3423 29.2264 70.9754 28.8071 70.6235C28.4777 70.3465 28.313 70.0133 28.313 69.624C28.313 69.1973 28.4889 68.8566 28.8408 68.6021C29.3874 68.2052 30.1436 68.0068 31.1094 68.0068C32.0452 68.0068 32.7453 68.194 33.2095 68.5684C33.6812 68.9352 33.9881 69.5417 34.1304 70.3877L37.4546 70.2417C37.4022 68.7293 36.8519 67.5202 35.8037 66.6143C34.763 65.7083 33.2095 65.2554 31.1431 65.2554C29.8778 65.2554 28.7959 65.4463 27.8975 65.8281C27.0065 66.21 26.3215 66.7677 25.8423 67.5015C25.3706 68.2277 25.1348 69.0101 25.1348 69.8486C25.1348 71.1514 25.6401 72.2557 26.6509 73.1616C27.3696 73.8055 28.62 74.3483 30.4019 74.79C31.7869 75.1344 32.6742 75.374 33.0635 75.5088C33.6325 75.7109 34.0293 75.9505 34.2539 76.2275C34.486 76.4971 34.6021 76.8265 34.6021 77.2158C34.6021 77.8223 34.3288 78.3538 33.7822 78.8105C33.2432 79.2598 32.4383 79.4844 31.3677 79.4844C30.3569 79.4844 29.5521 79.2298 28.9531 78.7207C28.3617 78.2116 27.9686 77.4142 27.7739 76.3286ZM40.7563 65.5361V82H43.8447V71.2637L50.4819 82H53.8174V65.5361H50.729V76.5308L43.9907 65.5361H40.7563ZM63.4082 65.5361H57.3325V82H63.5879C64.8158 82 65.7965 81.8839 66.5303 81.6519C67.5111 81.3374 68.2897 80.8994 68.8662 80.3379C69.6299 79.5967 70.2176 78.6271 70.6294 77.4292C70.9663 76.4484 71.1348 75.2804 71.1348 73.9253C71.1348 72.383 70.9551 71.0877 70.5957 70.0396C70.2363 68.9839 69.7122 68.0929 69.0234 67.3667C68.3346 66.6405 67.5073 66.1351 66.5415 65.8506C65.8228 65.641 64.7783 65.5361 63.4082 65.5361Z" fill="#D56DB6"/>
<path d="M57 12.6799L39 16.9999V41.207C38.5232 41.0722 38.02 40.9999 37.5 40.9999C34.4624 40.9999 32 43.4623 32 46.4999C32 49.5375 34.4624 51.9999 37.5 51.9999C40.5376 51.9999 43 49.5375 43 46.4999C43 46.3315 42.9924 46.1647 42.9776 45.9999H43V26.04L57 22.6799V12.6799Z" fill="#BFBFBF"/>
<path d="M60 28.9999V35.207C59.5232 35.0722 59.02 34.9999 58.5 34.9999C55.4624 34.9999 53 37.4623 53 40.4999C53 43.5375 55.4624 45.9999 58.5 45.9999C61.5376 45.9999 64 43.5375 64 40.4999C64 40.3315 63.9924 40.1647 63.9776 39.9999H64V28.9999H60Z" fill="#BFBFBF"/>
<path opacity="0.3" d="M56 30V1H57V29H86L87 30H56Z" fill="black"/>
</g>
<defs>
<clipPath id="clip0">
<rect width="96" height="96" fill="white"/>
</clipPath>
</defs>
</svg>
