<svg width="96" height="96" viewBox="0 0 96 96" fill="none" xmlns="http://www.w3.org/2000/svg">
<g id="webm">
<path id="Vector" d="M10 1H57L86 30V95H10V1Z" fill="white"/>
<path id="Vector_2" fill-rule="evenodd" clip-rule="evenodd" d="M10 95H86V30L57 1H10V95ZM57 0H9.00003V96H87V30L57 0Z" fill="#BFBFBF"/>
<path id="format" fill-rule="evenodd" clip-rule="evenodd" d="M23 58C21.3431 58 20 59.3431 20 61V86C20 87.6569 21.3431 89 23 89H73C74.6569 89 76 87.6569 76 86V61C76 59.3431 74.6569 58 73 58H23ZM24 65.5361L27.9307 82H31.5356L34.8037 69.6914L38.083 82H41.6094L45.6074 65.5361H42.2607L39.7339 77.0361L36.8477 65.5361H32.8945L29.8848 76.8452L27.4028 65.5361H24ZM55.0488 82V65.5361H60.0239L63.0112 76.7666L65.9648 65.5361H70.9512V82H67.8628V69.04L64.5947 82H61.394L58.1372 69.04V82H55.0488ZM52 73H47V76H52V73Z" fill="#1DAA91"/>
<path id="logo" d="M32.4988 14.1366C32.8076 13.9566 33.1888 13.9543 33.4998 14.1306L56.9973 27.4462V29.0008H59.7406L63.4907 31.126C63.8055 31.3043 64 31.6382 64 32C64 32.3618 63.8055 32.6957 63.4907 32.874L33.4998 49.8694C33.1888 50.0457 32.8076 50.0434 32.4988 49.8634C32.1899 49.6834 32 49.3529 32 48.9954V15.0046C32 14.6471 32.1899 14.3166 32.4988 14.1366Z" fill="#BFBFBF"/>
<path id="Vector_3" opacity="0.3" d="M56 30V1H57V29H86L87 30H56Z" fill="black"/>
</g>
</svg>
