<svg width="96" height="96" viewBox="0 0 96 96" fill="none" xmlns="http://www.w3.org/2000/svg">
<g clip-path="url(#clip0)">
<path d="M10 1H57L86 30V95H10V1Z" fill="white"/>
<path fill-rule="evenodd" clip-rule="evenodd" d="M10 95H86V30L57 1H10V95ZM57 0H9.00002V96H87V30L57 0Z" fill="#BFBFBF"/>
<path fill-rule="evenodd" clip-rule="evenodd" d="M23 58C21.3431 58 20 59.3431 20 61V86C20 87.6569 21.3431 89 23 89H73C74.6569 89 76 87.6569 76 86V61C76 59.3431 74.6569 58 73 58H23ZM30.7954 73.4087L25.1689 82H29.1557L32.8169 76.3062L36.4668 82H40.476L34.8496 73.5322L39.9707 65.5361H36.1186L32.8842 70.8257L29.5825 65.5361H25.6967L30.7954 73.4087ZM42.7329 65.6709V82H54.3228V79.2261H46.0571V65.6709H42.7329ZM59.5557 76.3286L56.3213 76.6431C56.5384 78.4849 57.2048 79.8887 58.3204 80.8545C59.4359 81.8128 61.0344 82.292 63.1158 82.292C64.5458 82.292 65.7399 82.0936 66.6983 81.6968C67.6566 81.2925 68.3978 80.6786 68.9219 79.855C69.446 79.0314 69.708 78.1479 69.708 77.2046C69.708 76.1639 69.4872 75.2917 69.0454 74.5879C68.6112 73.8766 68.0048 73.3188 67.2261 72.9146C66.455 72.5028 65.2608 72.106 63.6436 71.7241C62.0264 71.3423 61.0082 70.9754 60.5889 70.6235C60.2595 70.3465 60.0948 70.0133 60.0948 69.624C60.0948 69.1973 60.2707 68.8566 60.6226 68.6021C61.1691 68.2052 61.9253 68.0068 62.8912 68.0068C63.827 68.0068 64.5271 68.194 64.9912 68.5684C65.4629 68.9352 65.7699 69.5417 65.9121 70.3877L69.2364 70.2417C69.184 68.7293 68.6337 67.5202 67.5855 66.6143C66.5448 65.7083 64.9912 65.2554 62.9248 65.2554C61.6595 65.2554 60.5777 65.4463 59.6792 65.8281C58.7883 66.21 58.1032 66.7677 57.6241 67.5015C57.1524 68.2277 56.9165 69.0101 56.9165 69.8486C56.9165 71.1514 57.4219 72.2557 58.4327 73.1616C59.1514 73.8055 60.4017 74.3483 62.1836 74.79C63.5687 75.1344 64.4559 75.374 64.8453 75.5088C65.4143 75.7109 65.8111 75.9505 66.0357 76.2275C66.2678 76.4971 66.3838 76.8265 66.3838 77.2158C66.3838 77.8223 66.1105 78.3538 65.564 78.8105C65.0249 79.2598 64.2201 79.4844 63.1495 79.4844C62.1387 79.4844 61.3339 79.2298 60.7349 78.7207C60.1434 78.2116 59.7504 77.4142 59.5557 76.3286Z" fill="#6AAA1E"/>
<path fill-rule="evenodd" clip-rule="evenodd" d="M57 11H20V50H76V29H57V11ZM73 41V47H58V41H73ZM73 32V38H58V32H73ZM55 14H41V20H55V14ZM55 23H41V29H55V23ZM55 32H41V38H55V32ZM55 41H41V47H55V41ZM23 14H38V20H23V14ZM23 23H38V29H23V23ZM23 32H38V38H23V32ZM23 41H38V47H23V41Z" fill="#BFBFBF"/>
<path opacity="0.3" d="M56 30V1H57V29H86L87 30H56Z" fill="black"/>
</g>
<defs>
<clipPath id="clip0">
<rect width="96" height="96" fill="white"/>
</clipPath>
</defs>
</svg>
