<svg width="96" height="96" viewBox="0 0 96 96" fill="none" xmlns="http://www.w3.org/2000/svg">
<g clip-path="url(#clip0)">
<path d="M10 1H57L86 30V95H10V1Z" fill="white"/>
<path fill-rule="evenodd" clip-rule="evenodd" d="M10 95H86V30L57 1H10V95ZM57 0H9.00002V96H87V30L57 0Z" fill="#BFBFBF"/>
<path fill-rule="evenodd" clip-rule="evenodd" d="M23 58C21.3431 58 20 59.3431 20 61V86C20 87.6569 21.3431 89 23 89H73C74.6569 89 76 87.6569 76 86V61C76 59.3431 74.6569 58 73 58H23ZM25.708 73.1558L20.5708 81H24.2109L27.5537 75.8013L30.8862 81H34.5469L29.4097 73.2686L34.0854 65.9678H30.5684L27.6152 70.7974L24.6006 65.9678H21.0527L25.708 73.1558ZM36.1875 66.0908V81H46.7695V78.4673H39.2227V66.0908H36.1875ZM51.1274 75.8218L48.1743 76.1089C48.3726 77.7905 48.981 79.0723 49.9995 79.9541C51.0181 80.8291 52.4775 81.2666 54.3779 81.2666C55.6836 81.2666 56.7739 81.0854 57.6489 80.7231C58.5239 80.354 59.2007 79.7935 59.6792 79.0415C60.1577 78.2896 60.397 77.4829 60.397 76.6216C60.397 75.6714 60.1953 74.875 59.792 74.2324C59.3955 73.583 58.8418 73.0737 58.1309 72.7046C57.4268 72.3286 56.3364 71.9663 54.8599 71.6177C53.3833 71.269 52.4536 70.9341 52.0708 70.6128C51.77 70.3599 51.6196 70.0557 51.6196 69.7002C51.6196 69.3105 51.7803 68.9995 52.1016 68.7671C52.6006 68.4048 53.291 68.2236 54.1729 68.2236C55.0273 68.2236 55.6665 68.3945 56.0903 68.7363C56.521 69.0713 56.8013 69.625 56.9312 70.3975L59.9663 70.2642C59.9185 68.8833 59.416 67.7793 58.459 66.9521C57.5088 66.125 56.0903 65.7114 54.2036 65.7114C53.0483 65.7114 52.0605 65.8857 51.2402 66.2344C50.4268 66.583 49.8013 67.0923 49.3638 67.7622C48.9331 68.4253 48.7178 69.1396 48.7178 69.9053C48.7178 71.0947 49.1792 72.103 50.1021 72.9302C50.7583 73.5181 51.8999 74.0137 53.5269 74.417C54.7915 74.7314 55.6016 74.9502 55.957 75.0732C56.4766 75.2578 56.8389 75.4766 57.0439 75.7295C57.2559 75.9756 57.3618 76.2764 57.3618 76.6318C57.3618 77.1855 57.1123 77.6709 56.6133 78.0879C56.1211 78.498 55.3862 78.7031 54.4087 78.7031C53.4858 78.7031 52.751 78.4707 52.2041 78.0059C51.6641 77.541 51.3052 76.813 51.1274 75.8218ZM66.5596 73.1558L61.4224 81H65.0625L68.4053 75.8013L71.7378 81H75.3984L70.2612 73.2686L74.937 65.9678H71.4199L68.4668 70.7974L65.4521 65.9678H61.9043L66.5596 73.1558Z" fill="#6AAA1E"/>
<path fill-rule="evenodd" clip-rule="evenodd" d="M57 11H20V50H76V29H57V11ZM73 41V47H58V41H73ZM73 32V38H58V32H73ZM55 14H41V20H55V14ZM55 23H41V29H55V23ZM55 32H41V38H55V32ZM55 41H41V47H55V41ZM23 14H38V20H23V14ZM23 23H38V29H23V23ZM23 32H38V38H23V32ZM23 41H38V47H23V41Z" fill="#BFBFBF"/>
<path opacity="0.3" d="M56 30V1H57V29H86L87 30H56Z" fill="black"/>
</g>
<defs>
<clipPath id="clip0">
<rect width="96" height="96" fill="white"/>
</clipPath>
</defs>
</svg>
