<svg width="96" height="96" viewBox="0 0 96 96" fill="none" xmlns="http://www.w3.org/2000/svg">
<g clip-path="url(#clip0)">
<path d="M10 1H57L86 30V95H10V1Z" fill="white"/>
<path fill-rule="evenodd" clip-rule="evenodd" d="M10 95H86V30L57 1H10V95ZM57 0H9.00002V96H87V30L57 0Z" fill="#BFBFBF"/>
<path fill-rule="evenodd" clip-rule="evenodd" d="M23 58C21.3431 58 20 59.3431 20 61V86C20 87.6569 21.3431 89 23 89H73C74.6569 89 76 87.6569 76 86V61C76 59.3431 74.6569 58 73 58H23ZM25.1085 66L29.7269 73.1053L23.9454 82H27.5234L31.516 75.8576L35.5085 82H39.0866L33.305 73.1053L37.9234 66H34.3454L31.516 70.3529L28.6866 66H25.1085ZM41 82V66H46L49 77L52 66H57V82H54V69L50.5811 82H47.3804L44 69V82H41ZM60 66V82H72V79H63V66L60 66Z" fill="#5BB2A9"/>
<path d="M57 26H56L57 27V26Z" fill="#BFBFBF"/>
<path d="M59 29L68 38L56 50H61L73 38L64 29H59Z" fill="#BFBFBF"/>
<path d="M40 50H35L23 38L35 26H40L28 38L40 50Z" fill="#BFBFBF"/>
<path d="M41 36H45V40H41V36Z" fill="#BFBFBF"/>
<path d="M51 36H55V40H51V36Z" fill="#BFBFBF"/>
<path opacity="0.3" d="M56 30V1H57V29H86L87 30H56Z" fill="black"/>
</g>
<defs>
<clipPath id="clip0">
<rect width="96" height="96" fill="white"/>
</clipPath>
</defs>
</svg>
