<svg width="96" height="96" viewBox="0 0 96 96" fill="none" xmlns="http://www.w3.org/2000/svg">
<g clip-path="url(#clip0)">
<path d="M10 1H57L86 30V95H10V1Z" fill="white"/>
<path fill-rule="evenodd" clip-rule="evenodd" d="M10 95H86V30L57 1H10V95ZM57 0H9.00002V96H87V30L57 0Z" fill="#BFBFBF"/>
<path d="M45.6193 68.3213V72.9932H47.4386C48.7488 72.9932 49.6248 72.9071 50.0665 72.7349C50.5083 72.5627 50.8527 72.2931 51.0997 71.9263C51.3543 71.5594 51.4816 71.1327 51.4816 70.646C51.4816 70.047 51.3056 69.5529 50.9537 69.1636C50.6019 68.7743 50.1564 68.5309 49.6173 68.4336C49.2205 68.3587 48.4231 68.3213 47.2252 68.3213H45.6193Z" fill="#5BB2A9"/>
<path fill-rule="evenodd" clip-rule="evenodd" d="M23 58C21.3431 58 20 59.3431 20 61V86C20 87.6569 21.3431 89 23 89H73C74.6569 89 76 87.6569 76 86V61C76 59.3431 74.6569 58 73 58H23ZM60.1958 76.3286L56.9615 76.6431C57.1786 78.4849 57.8449 79.8887 58.9605 80.8545C60.0761 81.8128 61.6745 82.292 63.7559 82.292C65.1859 82.292 66.3801 82.0936 67.3384 81.6968C68.2968 81.2925 69.038 80.6786 69.5621 79.855C70.0861 79.0314 70.3482 78.1479 70.3482 77.2046C70.3482 76.1639 70.1273 75.2917 69.6856 74.5879C69.2514 73.8766 68.6449 73.3188 67.8663 72.9146C67.0951 72.5028 65.9009 72.106 64.2837 71.7241C62.6665 71.3423 61.6483 70.9754 61.229 70.6235C60.8996 70.3465 60.7349 70.0133 60.7349 69.624C60.7349 69.1973 60.9109 68.8566 61.2627 68.6021C61.8093 68.2052 62.5655 68.0068 63.5313 68.0068C64.4672 68.0068 65.1672 68.194 65.6314 68.5684C66.1031 68.9352 66.41 69.5417 66.5523 70.3877L69.8765 70.2417C69.8241 68.7293 69.2738 67.5202 68.2256 66.6143C67.1849 65.7083 65.6314 65.2554 63.565 65.2554C62.2997 65.2554 61.2178 65.4463 60.3194 65.8281C59.4284 66.21 58.7434 66.7677 58.2642 67.5015C57.7925 68.2277 57.5567 69.0101 57.5567 69.8486C57.5567 71.1514 58.0621 72.2557 59.0728 73.1616C59.7915 73.8055 61.0419 74.3483 62.8238 74.79C64.2089 75.1344 65.0961 75.374 65.4854 75.5088C66.0544 75.7109 66.4512 75.9505 66.6758 76.2275C66.9079 76.4971 67.024 76.8265 67.024 77.2158C67.024 77.8223 66.7507 78.3538 66.2041 78.8105C65.6651 79.2598 64.8602 79.4844 63.7896 79.4844C62.7789 79.4844 61.974 79.2298 61.375 78.7207C60.7836 78.2116 60.3905 77.4142 60.1958 76.3286ZM24.5288 82L30.1552 73.4087L25.0566 65.5361H28.9424L32.2441 70.8257L35.4785 65.5361H39.3305L34.2094 73.5322L39.8359 82H35.8266L32.1767 76.3062L28.5156 82H24.5288ZM42.295 82V65.5361H47.6295C49.651 65.5361 50.9687 65.6185 51.5826 65.7832C52.526 66.0303 53.3159 66.5693 53.9523 67.4004C54.5887 68.224 54.9069 69.2909 54.9069 70.6011C54.9069 71.6118 54.7234 72.4616 54.3566 73.1504C53.9897 73.8392 53.5218 74.382 52.9528 74.7788C52.3912 75.1681 51.8185 75.4264 51.2345 75.5537C50.4409 75.7109 49.2916 75.7896 47.7867 75.7896H45.6193V82H42.295Z" fill="#5BB2A9"/>
<path d="M57 26H56L57 27V26Z" fill="#BFBFBF"/>
<path d="M59 29L68 38L56 50H61L73 38L64 29H59Z" fill="#BFBFBF"/>
<path d="M40 50H35L23 38L35 26H40L28 38L40 50Z" fill="#BFBFBF"/>
<path d="M41 36H45V40H41V36Z" fill="#BFBFBF"/>
<path d="M51 36H55V40H51V36Z" fill="#BFBFBF"/>
<path opacity="0.3" d="M56 30V1H57V29H86L87 30H56Z" fill="black"/>
</g>
<defs>
<clipPath id="clip0">
<rect width="96" height="96" fill="white"/>
</clipPath>
</defs>
</svg>
