<svg width="17" height="16" viewBox="0 0 17 16" fill="none" xmlns="http://www.w3.org/2000/svg">
<path fill-rule="evenodd" clip-rule="evenodd" d="M15.789 5.19933L10.7269 0.137193C10.5441 -0.0457312 10.2474 -0.0457312 10.0647 0.137193L10.0432 0.158642C9.73281 0.468949 9.56178 0.881724 9.56178 1.32063C9.56178 1.6034 9.63362 1.87474 9.76709 2.11536L4.47043 6.66113C4.06505 6.29884 3.54765 6.10055 2.99963 6.10055C2.40908 6.10055 1.85394 6.3305 1.43648 6.74805L1.40473 6.7798C1.22181 6.96263 1.22181 7.25917 1.40473 7.442L4.43736 10.4746L1.9521 12.9598C1.893 13.0206 1.43161 13.5246 0.512492 14.671C-0.362792 15.7625 0.400752 15.0258 0.39176 15.0361C0.229254 15.2212 0.238246 15.5003 0.412179 15.6751C0.503313 15.7666 0.623483 15.8129 0.744028 15.8129C0.853895 15.8129 0.964044 15.7745 1.05265 15.697C1.06042 15.6903 0.319171 16.4571 1.41775 15.5763C2.564 14.6572 3.068 14.1957 3.13348 14.1319L5.61396 11.6514L8.48418 14.5216C8.5756 14.6132 8.69549 14.6589 8.81528 14.6589C8.93508 14.6589 9.05506 14.6132 9.14638 14.5216L9.17814 14.4899C9.59569 14.0724 9.82563 13.5172 9.82563 12.9267C9.82563 12.3787 9.62725 11.8613 9.26506 11.4559L13.8108 6.15928C14.0514 6.29275 14.3228 6.36459 14.6056 6.36459C15.0446 6.36459 15.4572 6.19366 15.7675 5.88316L15.789 5.86171C15.9719 5.6787 15.9719 5.38216 15.789 5.19933Z" fill="#657077"/>
</svg>
