<svg width="16" height="16" viewBox="0 0 16 16" fill="none" xmlns="http://www.w3.org/2000/svg">
<path fill-rule="evenodd" clip-rule="evenodd" d="M12.1274 1.48023C12.6902 1.93051 13.1489 2.48212 13.504 3.13607C13.8587 3.78934 14.0363 4.47535 14.0364 5.19388C14.0364 5.66131 13.9694 6.09853 13.835 6.50537C13.7008 6.91235 13.5492 7.24356 13.3803 7.4989C13.2117 7.75419 12.9736 8.01176 12.6664 8.27155C12.3589 8.53108 12.1102 8.71978 11.9194 8.83649C11.7287 8.95352 11.4649 9.10698 11.1275 9.29737C10.7723 9.49654 10.4759 9.77816 10.2378 10.1418C9.99989 10.5052 9.99171 11.1537 9.99171 11.37C9.99171 11.517 9.93954 11.6577 9.83589 11.7915C9.73191 11.9261 9.61084 11.9931 9.4723 11.9931H6.49182C6.36187 11.9931 6.22813 11.9131 6.13717 11.7528C6.04611 11.5926 6.0009 11.4304 6.0009 11.2658V10.3233C6.0009 9.60478 6.05869 8.92737 6.62153 8.29102C7.18397 7.65472 7.80322 7.18502 8.47827 6.88206C8.98913 6.64823 9.35285 6.40595 9.56921 6.15498C9.78571 5.90391 9.89373 5.5748 9.89373 5.16809C9.89373 4.80451 9.69265 4.48417 9.29013 4.20709C8.88743 3.93029 8.42223 3.79175 7.89418 3.79175C7.33147 3.79175 6.86414 3.91719 6.49182 4.16816C6.18886 4.3847 5.72562 4.88246 5.10242 5.66149C4.98976 5.79998 4.85567 5.86935 4.6998 5.86935C4.59588 5.86935 4.48763 5.83473 4.3751 5.7656L2.24543 4.14228C2.1329 4.05573 2.06582 3.94748 2.04408 3.81776C2.02247 3.68786 2.04635 3.5667 2.11553 3.45422C3.50075 1.15139 5.50912 0 8.1407 0C8.8334 0 9.53024 0.134265 10.2314 0.40243C10.9325 0.670686 11.5649 1.03013 12.1274 1.48023ZM6.49992 13H9.49987C9.63305 13 9.75008 13.05 9.84968 13.1501C9.95007 13.2502 9.99998 13.3667 9.99998 13.5001V15.5C9.99998 15.6334 9.94994 15.7501 9.84968 15.85C9.75008 15.9499 9.63305 16 9.49987 16H6.49992C6.3666 16 6.25001 15.9498 6.15002 15.85C6.05011 15.7501 5.99998 15.6334 5.99998 15.5V13.5001C5.99998 13.3667 6.04994 13.2502 6.15002 13.1501C6.25001 13.0503 6.36673 13 6.49992 13Z" fill="#657077"/>
</svg>
