<svg width="16" height="16" viewBox="0 0 16 16" fill="none" xmlns="http://www.w3.org/2000/svg">
<path fill-rule="evenodd" clip-rule="evenodd" d="M13.6695 2.01714C12.2105 0.672379 10.3958 0 8.22848 0C5.95022 0 4.00816 0.76377 2.40555 2.29457C0.802938 3.82538 0 5.72827 0 8.00653C0 10.1901 0.76377 12.0669 2.28805 13.6401C3.81885 15.2134 5.87515 16 8.46348 16C10.0237 16 11.5545 15.6801 13.0559 15.0371C13.5455 14.8282 13.7838 14.2668 13.5847 13.774C13.379 13.2648 12.798 13.0298 12.2921 13.2452C10.9865 13.8066 9.70706 14.0873 8.46022 14.0873C6.47572 14.0873 4.93839 13.4835 3.84823 12.2725C2.76132 11.0649 2.21624 9.64504 2.21624 8.01632C2.21624 6.24725 2.80049 4.77193 3.96573 3.58711C5.1277 2.40555 6.56059 1.81151 8.25785 1.81151C9.8213 1.81151 11.1432 2.29784 12.2203 3.2705C13.2974 4.24317 13.836 5.46716 13.836 6.94247C13.836 7.95104 13.5879 8.79315 13.0951 9.46226C12.6022 10.1346 12.0898 10.4676 11.5577 10.4676C11.2705 10.4676 11.1269 10.3142 11.1269 10.0041C11.1269 9.75275 11.1465 9.459 11.1824 9.11954L11.7895 4.15504H9.70053L9.56671 4.64137C9.03468 4.20726 8.45043 3.98858 7.81722 3.98858C6.81191 3.98858 5.95022 4.39004 5.23541 5.18972C4.51734 5.98939 4.16157 7.02081 4.16157 8.2807C4.16157 9.51122 4.47817 10.5067 5.11465 11.2607C5.75112 12.018 6.51489 12.3933 7.40922 12.3933C8.20889 12.3933 8.89107 12.0571 9.459 11.388C9.88658 12.031 10.5165 12.3509 11.3488 12.3509C12.5728 12.3509 13.6304 11.8188 14.5214 10.7515C15.4125 9.68747 15.8596 8.40147 15.8596 6.89678C15.8596 4.99062 15.1318 3.36189 13.6695 2.01714ZM8.85843 9.52754C8.4896 10.0237 8.04896 10.275 7.53652 10.275C7.18727 10.275 6.90657 10.0922 6.69441 9.72664C6.47899 9.36108 6.37128 8.90738 6.37128 8.3623C6.37128 7.68992 6.52142 7.1481 6.82171 6.73684C7.12199 6.32558 7.49408 6.11669 7.93798 6.11669C8.32313 6.11669 8.66585 6.27009 8.96614 6.58017C9.26642 6.89025 9.41656 7.30151 9.41656 7.81722C9.4133 8.46022 9.22725 9.02815 8.85843 9.52754Z" fill="#657077"/>
</svg>
