<svg width="16" height="16" viewBox="0 0 16 16" fill="none" xmlns="http://www.w3.org/2000/svg">
<path d="M15.8547 0.197892C15.6962 0.0659274 15.5086 0 15.292 0H9.5918L8.09197 1.5L6.5918 0H0.891957C0.675148 0 0.48763 0.0659274 0.32927 0.197892C0.170999 0.329783 0.0917969 0.486046 0.0917969 0.666607V8.66648C0.0917969 9.26377 0.231286 9.85573 0.510484 10.4426C0.789551 11.0294 1.13543 11.5503 1.54799 12.0051C1.96054 12.4601 2.45213 12.9028 3.02296 13.3334C3.59388 13.7641 4.12092 14.1214 4.60419 14.4063C5.08745 14.691 5.59165 14.9602 6.11664 15.2134C6.64163 15.4667 7.01465 15.6389 7.2354 15.7291C7.45619 15.8195 7.63329 15.8889 7.76656 15.9373C7.86665 15.979 7.97488 16 8.09169 16C8.20863 16 8.31673 15.979 8.4169 15.9373C8.55009 15.8889 8.72718 15.8195 8.94789 15.7291C9.16859 15.6389 9.54179 15.4667 10.0668 15.2134C10.5915 14.9602 11.0959 14.691 11.5791 14.4063C12.0625 14.1214 12.5895 13.7641 13.1605 13.3334C13.731 12.9028 14.2228 12.4601 14.6353 12.0051C15.0478 11.5503 15.3936 11.0294 15.6732 10.4426C15.9524 9.85573 16.0918 9.26377 16.0918 8.66648V0.666607C16.0918 0.485936 16.0126 0.329819 15.8547 0.197892ZM13.6918 8.66648C13.6918 9.88871 12.7125 11.1386 10.7542 12.4164C9.9709 12.9302 9.08335 13.406 8.09173 13.8435L8.0918 4L10.0918 1.99982H13.6918V8.66648Z" fill="#657077"/>
</svg>
