<svg width="16" height="16" viewBox="0 0 16 16" fill="none" xmlns="http://www.w3.org/2000/svg">
<path fill-rule="evenodd" clip-rule="evenodd" d="M9.85498 16L1.15188 16C0.518827 16 0.00382324 15.485 0.00378789 14.8519L0.00378713 6.14776C0.00378708 5.51468 0.518826 4.99964 1.15187 4.99964L4.01036 4.99964L4.01036 9.96112C4.01036 11.1721 4.75801 11.9963 5.96898 11.9963L11.0031 11.9963L11.0031 14.8519C11.0031 15.485 10.4881 16 9.85498 16ZM14.8703 11.0013L6.12976 11.0013C5.50682 11.0013 4.99997 10.4945 5 9.87155L5 1.12969C5 0.506788 5.50679 9.17346e-07 6.12973 8.62887e-07L14.8703 9.87639e-08C15.4932 4.43048e-08 16 0.506787 16 1.12973L16 9.87155C16 10.4945 15.4932 11.0013 14.8703 11.0013Z" fill="#A3A9AE"/>
</svg>
