<svg width="12" height="12" viewBox="0 0 12 12" fill="none" xmlns="http://www.w3.org/2000/svg">
<path d="M6.23444 10.26C6.08781 10.1822 5.9121 10.1822 5.76548 10.26L2.80763 11.8305C2.43495 12.0284 1.99985 11.7041 2.08295 11.2905L2.73312 8.05376C2.76511 7.89449 2.71774 7.72961 2.60608 7.61162L0.257285 5.12949C-0.0262119 4.8299 0.154519 4.33524 0.564378 4.28898L3.73005 3.93166C3.90517 3.91189 4.05696 3.80139 4.12956 3.6408L5.54436 0.511585C5.7216 0.119568 6.27831 0.119568 6.45556 0.511585L7.87035 3.6408C7.94296 3.80139 8.09474 3.91189 8.26987 3.93166L11.4355 4.28898C11.8454 4.33524 12.0261 4.8299 11.7426 5.12949L9.39383 7.61162C9.28218 7.72961 9.23481 7.89449 9.2668 8.05376L9.91701 11.2904C10.0001 11.7041 9.565 12.0284 9.19232 11.8305L6.23444 10.26Z" fill="#EDC409"/>
</svg>
