<svg width="16" height="16" viewBox="0 0 16 16" fill="none" xmlns="http://www.w3.org/2000/svg">
<path d="M8.23442 13.6372C8.0878 13.5594 7.91209 13.5594 7.76546 13.6372L3.43263 15.9378C3.05995 16.1357 2.62484 15.8114 2.70794 15.3977L3.66116 10.6524C3.69316 10.4931 3.64578 10.3282 3.53413 10.2102L0.11339 6.59532C-0.170107 6.29574 0.0106237 5.80108 0.420483 5.75482L5.06754 5.23028C5.24266 5.21052 5.39445 5.10001 5.46705 4.93943L7.54435 0.344916C7.72159 -0.0471014 8.2783 -0.0470999 8.45554 0.344917L10.5328 4.93943C10.6054 5.10001 10.7572 5.21052 10.9324 5.23028L15.5794 5.75482C15.9893 5.80108 16.17 6.29574 15.8865 6.59533L12.4658 10.2102C12.3541 10.3282 12.3067 10.4931 12.3387 10.6524L13.292 15.3977C13.3751 15.8114 12.94 16.1357 12.5673 15.9378L8.23442 13.6372Z" fill="#333333"/>
</svg>
