<svg width="24" height="24" viewBox="0 0 24 24" fill="none" xmlns="http://www.w3.org/2000/svg">
<path fill-rule="evenodd" clip-rule="evenodd" d="M13.6879 6.63662C13.0695 6.87094 12.502 7.06405 12 7.2221V14.7779C12.5019 14.9359 13.0695 15.1291 13.6879 15.3633C15.7973 16.1625 18.9304 17.6112 22 20V2C18.9304 4.38889 15.7973 5.83745 13.6879 6.63662ZM3 7H10.9999L11 7.5795L10.9999 14.4204V14.9999L9.61059 15L4.7943 14.9999H3V13.9983H1V8.00143H3V7ZM5 16H9.51099L10.6471 22H6.13602L5 16ZM23 7.05882H23.1787C23.6316 7.05882 24 7.9954 24 9.14659V12.971C24 14.1222 23.6316 15.0588 23.1787 15.0588H23V7.05882Z" fill="#7A95B0"/>
</svg>
