<svg width="16" height="12" viewBox="0 0 16 12" fill="none" xmlns="http://www.w3.org/2000/svg">
<path fill-rule="evenodd" clip-rule="evenodd" d="M7 3.02707V1.68306C7 0.800148 7.02768 0 6.61436 0C6.31328 0 6.00789 0.152133 5.70694 0.451989L0.55065 5C-0.18355 5.73151 -0.18355 6.26849 0.55065 7L5.70694 11.548C6.00789 11.8479 6.31328 12 6.61436 12C7.02781 12 7 11.2118 7 10.3289C7 10.3289 7 9.77962 7 9.00964C11.9489 9.00964 13.4054 9.40189 15.1472 11.7731C15.2382 11.8968 15.381 11.9656 15.5282 11.9656C15.5863 11.9656 15.6452 11.9548 15.7018 11.9325C15.9014 11.8538 16.0226 11.6506 15.9965 11.438C15.3627 6.28108 13.0789 3.02707 7 3.02707Z" fill="#A3A9AE"/>
</svg>
