<svg width="20" height="12" viewBox="0 0 20 12" fill="none" xmlns="http://www.w3.org/2000/svg">
<path fill-rule="evenodd" clip-rule="evenodd" d="M6.99703 1.16501C6.99698 1.20928 6.99693 1.25502 6.99693 1.30226L1.99011 6L6.99693 10.6977C6.99693 10.7452 6.99698 10.7912 6.99704 10.8357C6.99803 11.6918 6.99839 12 6.60595 12C6.30532 12 6.00039 11.8344 5.69988 11.508L0.549825 7C-0.183275 6.20365 -0.183275 5.79635 0.549825 5L5.69988 0.492049C6.00039 0.165616 6.30532 0 6.60595 0C6.99837 0 6.99802 0.308396 6.99703 1.16501ZM11.0367 1.67954V3.02075C17.1064 3.02075 19.3637 6.27005 19.9965 11.4162C20.0226 11.6283 19.9016 11.8311 19.7022 11.9097C19.6458 11.9319 19.587 11.9427 19.5289 11.9427C19.3819 11.9427 19.2393 11.874 19.1485 11.7505C17.4093 9.38433 15.9782 8.9929 11.0367 8.9929C11.0585 9.69853 11.0367 10.3094 11.0367 10.3094L11.0367 10.3382C11.0367 11.2075 11.0367 11.977 10.6284 11.977C10.3278 11.977 10.0229 11.8252 9.72236 11.526L4.5723 7C3.8392 6.27002 3.8392 5.72998 4.5723 5L9.72236 0.451045C10.0229 0.151815 10.3278 0 10.6284 0C11.0367 0 11.0367 0.781612 11.0367 1.65151L11.0367 1.67954Z" fill="#A3A9AE"/>
</svg>
