<svg width="48" height="48" viewBox="0 0 48 48" fill="none" xmlns="http://www.w3.org/2000/svg">
<g clip-path="url(#clip0_4257_169374)">
<path d="M24 35.9941C30.6274 35.9941 36 30.6216 36 23.9941C36 17.3667 30.6274 11.9941 24 11.9941C17.3726 11.9941 12 17.3667 12 23.9941C12 30.6216 17.3726 35.9941 24 35.9941Z" fill="white"/>
<path d="M24 12H44.7812C42.6754 8.35143 39.6461 5.32154 35.9978 3.21505C32.3496 1.10855 28.2111 -0.00029387 23.9984 5.84198e-08C19.7857 0.000293987 15.6473 1.10972 11.9994 3.21672C8.35147 5.32373 5.32258 8.35403 3.21729 12.0029L13.6079 30L13.6172 29.9976C12.5602 28.1749 12.0024 26.1057 12 23.9987C11.9977 21.8917 12.5508 19.8212 13.6037 17.9961C14.6566 16.171 16.172 14.6558 17.9973 13.6031C19.8225 12.5504 21.893 11.9974 24 12Z" fill="url(#paint0_linear_4257_169374)"/>
<path d="M24 33.5C29.2467 33.5 33.5 29.2467 33.5 24C33.5 18.7533 29.2467 14.5 24 14.5C18.7533 14.5 14.5 18.7533 14.5 24C14.5 29.2467 18.7533 33.5 24 33.5Z" fill="#1A73E8"/>
<path d="M34.3913 30.0037L24.0007 48.0008C28.2134 48.0014 32.352 46.8928 36.0003 44.7866C39.6487 42.6804 42.6782 39.6507 44.7843 36.0023C46.8904 32.3538 47.9987 28.2152 47.998 24.0025C47.9972 19.7898 46.8874 15.6516 44.78 12.0039H23.9989L23.9964 12.0132C26.1034 12.0091 28.1743 12.5606 30.0003 13.6121C31.8262 14.6635 33.3427 16.1778 34.3968 18.0022C35.4509 19.8266 36.0055 21.8966 36.0045 24.0037C36.0035 26.1107 35.4471 28.1803 34.3913 30.0037Z" fill="url(#paint1_linear_4257_169374)"/>
<path d="M13.6086 30.003L3.21803 12.0059C1.11115 15.6539 0.001866 19.7923 0.001709 24.005C0.00155201 28.2177 1.11053 32.3562 3.21713 36.0043C5.32374 39.6525 8.35371 42.6817 12.0024 44.7874C15.6511 46.8931 19.7898 48.0011 24.0025 47.9999L34.3931 30.0028L34.3864 29.996C33.3364 31.8227 31.8233 33.3404 29.9998 34.3959C28.1762 35.4515 26.1066 36.0077 23.9996 36.0084C21.8925 36.0091 19.8225 35.4543 17.9982 34.4C16.174 33.3456 14.6599 31.829 13.6086 30.003Z" fill="url(#paint2_linear_4257_169374)"/>
</g>
<defs>
<linearGradient id="paint0_linear_4257_169374" x1="3.21729" y1="15" x2="44.7812" y2="15" gradientUnits="userSpaceOnUse">
<stop stop-color="#D93025"/>
<stop offset="1" stop-color="#EA4335"/>
</linearGradient>
<linearGradient id="paint1_linear_4257_169374" x1="20.7219" y1="47.6799" x2="41.5039" y2="11.6845" gradientUnits="userSpaceOnUse">
<stop stop-color="#FCC934"/>
<stop offset="1" stop-color="#FBBC04"/>
</linearGradient>
<linearGradient id="paint2_linear_4257_169374" x1="26.5981" y1="46.5014" x2="5.81613" y2="10.5059" gradientUnits="userSpaceOnUse">
<stop stop-color="#1E8E3E"/>
<stop offset="1" stop-color="#34A853"/>
</linearGradient>
<clipPath id="clip0_4257_169374">
<rect width="48" height="48" fill="white"/>
</clipPath>
</defs>
</svg>
