<svg width="48" height="48" viewBox="0 0 48 48" fill="none" xmlns="http://www.w3.org/2000/svg">
<g clip-path="url(#clip0_4256_169353)">
<path d="M43.3312 35.7188C42.6876 36.0532 42.0238 36.3476 41.3437 36.6C39.1904 37.4015 36.9101 37.808 34.6125 37.8C25.7437 37.8 18.0187 31.7063 18.0187 23.8688C18.0303 22.8193 18.3212 21.7918 18.8617 20.8921C19.4022 19.9925 20.1726 19.253 21.0937 18.75C13.0687 19.0875 11.0062 27.45 11.0062 32.3438C11.0062 46.2188 23.775 47.6062 26.5312 47.6062C28.0125 47.6062 30.2437 47.175 31.5937 46.7438L31.8375 46.6687C37.0038 44.8833 41.4081 41.3916 44.325 36.7688C44.4097 36.6283 44.4461 36.4639 44.4285 36.3008C44.4109 36.1377 44.3404 35.9848 44.2276 35.8657C44.1148 35.7465 43.9661 35.6676 43.8042 35.6411C43.6423 35.6146 43.4761 35.6418 43.3312 35.7188Z" fill="url(#paint0_linear_4256_169353)"/>
<path opacity="0.35" d="M43.3312 35.7188C42.6876 36.0532 42.0238 36.3476 41.3437 36.6C39.1904 37.4015 36.9101 37.808 34.6125 37.8C25.7437 37.8 18.0187 31.7063 18.0187 23.8688C18.0303 22.8193 18.3212 21.7918 18.8617 20.8921C19.4022 19.9925 20.1726 19.253 21.0937 18.75C13.0687 19.0875 11.0062 27.45 11.0062 32.3438C11.0062 46.2188 23.775 47.6062 26.5312 47.6062C28.0125 47.6062 30.2437 47.175 31.5937 46.7438L31.8375 46.6687C37.0038 44.8833 41.4081 41.3916 44.325 36.7688C44.4097 36.6283 44.4461 36.4639 44.4285 36.3008C44.4109 36.1377 44.3404 35.9848 44.2276 35.8657C44.1148 35.7465 43.9661 35.6676 43.8042 35.6411C43.6423 35.6146 43.4761 35.6418 43.3312 35.7188Z" fill="url(#paint1_radial_4256_169353)"/>
<path d="M19.8187 45.2445C18.1497 44.2079 16.703 42.8505 15.5624 41.2508C14.26 39.468 13.3634 37.4218 12.9357 35.2557C12.5079 33.0897 12.5594 30.8563 13.0865 28.7122C13.6136 26.5682 14.6035 24.5655 15.9867 22.8446C17.37 21.1238 19.1131 19.7265 21.0937 18.7508C21.6937 18.4695 22.6874 17.982 24.0187 18.0008C24.9555 18.008 25.8779 18.2318 26.7138 18.6547C27.5497 19.0775 28.2766 19.688 28.8374 20.4383C29.5919 21.4528 30.0054 22.6803 30.0187 23.9445C30.0187 23.907 34.6124 9.01953 15.0187 9.01953C6.78745 9.01953 0.018696 16.8195 0.018696 23.682C-0.0140443 27.3071 0.760967 30.8939 2.28745 34.182C4.78733 39.5052 9.1547 43.7252 14.5605 46.041C19.9663 48.3568 26.0342 48.6072 31.6124 46.7445C29.6582 47.3618 27.5932 47.5473 25.5601 47.2883C23.5271 47.0293 21.5746 46.332 19.8374 45.2445H19.8187Z" fill="url(#paint2_linear_4256_169353)"/>
<path opacity="0.41" d="M19.8187 45.2445C18.1497 44.2079 16.703 42.8505 15.5624 41.2508C14.26 39.468 13.3634 37.4218 12.9357 35.2557C12.5079 33.0897 12.5594 30.8563 13.0865 28.7122C13.6136 26.5682 14.6035 24.5655 15.9867 22.8446C17.37 21.1238 19.1131 19.7265 21.0937 18.7508C21.6937 18.4695 22.6874 17.982 24.0187 18.0008C24.9555 18.008 25.8779 18.2318 26.7138 18.6547C27.5497 19.0775 28.2766 19.688 28.8374 20.4383C29.5919 21.4528 30.0054 22.6803 30.0187 23.9445C30.0187 23.907 34.6124 9.01953 15.0187 9.01953C6.78745 9.01953 0.018696 16.8195 0.018696 23.682C-0.0140443 27.3071 0.760967 30.8939 2.28745 34.182C4.78733 39.5052 9.1547 43.7252 14.5605 46.041C19.9663 48.3568 26.0342 48.6072 31.6124 46.7445C29.6582 47.3618 27.5932 47.5473 25.5601 47.2883C23.5271 47.0293 21.5746 46.332 19.8374 45.2445H19.8187Z" fill="url(#paint3_radial_4256_169353)"/>
<path d="M28.575 27.9C28.4062 28.0875 27.9375 28.3687 27.9375 28.95C27.9375 29.4375 28.2562 29.925 28.8375 30.3187C31.5187 32.1937 36.6 31.9313 36.6187 31.9313C38.6176 31.9299 40.5795 31.3925 42.3 30.375C44.0321 29.3619 45.4694 27.9136 46.4692 26.1737C47.469 24.4339 47.9967 22.4629 48 20.4562C48.0563 16.2562 46.5 13.4625 45.8812 12.225C41.8875 4.4625 33.3188 1.17495e-07 24 1.17495e-07C17.6929 -0.000623545 11.639 2.48156 7.14766 6.9097C2.65636 11.3378 0.0886943 17.356 0 23.6625C0.09375 16.8187 6.9 11.2875 15 11.2875C15.6562 11.2875 19.4062 11.3437 22.875 13.1625C25.312 14.3735 27.33 16.2871 28.6687 18.6562C29.8125 20.6438 30.0187 23.175 30.0187 24.1875C30.0187 25.2 29.5125 26.6812 28.5562 27.9187L28.575 27.9Z" fill="url(#paint4_radial_4256_169353)"/>
<path d="M28.575 27.9C28.4062 28.0875 27.9375 28.3687 27.9375 28.95C27.9375 29.4375 28.2562 29.925 28.8375 30.3187C31.5187 32.1937 36.6 31.9313 36.6187 31.9313C38.6176 31.9299 40.5795 31.3925 42.3 30.375C44.0321 29.3619 45.4694 27.9136 46.4692 26.1737C47.469 24.4339 47.9967 22.4629 48 20.4562C48.0563 16.2562 46.5 13.4625 45.8812 12.225C41.8875 4.4625 33.3188 1.17495e-07 24 1.17495e-07C17.6929 -0.000623545 11.639 2.48156 7.14766 6.9097C2.65636 11.3378 0.0886943 17.356 0 23.6625C0.09375 16.8187 6.9 11.2875 15 11.2875C15.6562 11.2875 19.4062 11.3437 22.875 13.1625C25.312 14.3735 27.33 16.2871 28.6687 18.6562C29.8125 20.6438 30.0187 23.175 30.0187 24.1875C30.0187 25.2 29.5125 26.6812 28.5562 27.9187L28.575 27.9Z" fill="url(#paint5_radial_4256_169353)"/>
</g>
<defs>
<linearGradient id="paint0_linear_4256_169353" x1="11.0062" y1="33.1875" x2="44.4562" y2="33.1875" gradientUnits="userSpaceOnUse">
<stop stop-color="#0C59A4"/>
<stop offset="1" stop-color="#114A8B"/>
</linearGradient>
<radialGradient id="paint1_radial_4256_169353" cx="0" cy="0" r="1" gradientUnits="userSpaceOnUse" gradientTransform="translate(29.475 33.4397) scale(17.8875 16.9931)">
<stop offset="0.7" stop-opacity="0"/>
<stop offset="0.9" stop-opacity="0.5"/>
<stop offset="1"/>
</radialGradient>
<linearGradient id="paint2_linear_4256_169353" x1="28.6312" y1="18.6758" x2="7.76244" y2="41.4195" gradientUnits="userSpaceOnUse">
<stop stop-color="#1B9DE2"/>
<stop offset="0.2" stop-color="#1595DF"/>
<stop offset="0.7" stop-color="#0680D7"/>
<stop offset="1" stop-color="#0078D4"/>
</linearGradient>
<radialGradient id="paint3_radial_4256_169353" cx="0" cy="0" r="1" gradientUnits="userSpaceOnUse" gradientTransform="translate(13.229 37.3015) rotate(-81.3844) scale(26.8849 21.7203)">
<stop offset="0.8" stop-opacity="0"/>
<stop offset="0.9" stop-opacity="0.5"/>
<stop offset="1"/>
</radialGradient>
<radialGradient id="paint4_radial_4256_169353" cx="0" cy="0" r="1" gradientUnits="userSpaceOnUse" gradientTransform="translate(4.85437 8.87175) rotate(92.2906) scale(37.9803 80.8903)">
<stop stop-color="#35C1F1"/>
<stop offset="0.1" stop-color="#34C1ED"/>
<stop offset="0.2" stop-color="#2FC2DF"/>
<stop offset="0.3" stop-color="#2BC3D2"/>
<stop offset="0.7" stop-color="#36C752"/>
</radialGradient>
<radialGradient id="paint5_radial_4256_169353" cx="0" cy="0" r="1" gradientUnits="userSpaceOnUse" gradientTransform="translate(45.0113 14.4937) rotate(73.7398) scale(18.2437 14.8358)">
<stop stop-color="#66EB6E"/>
<stop offset="1" stop-color="#66EB6E" stop-opacity="0"/>
</radialGradient>
<clipPath id="clip0_4256_169353">
<rect width="48" height="48" fill="white"/>
</clipPath>
</defs>
</svg>
