<svg width="48" height="48" viewBox="0 0 48 48" fill="none" xmlns="http://www.w3.org/2000/svg">
<g clip-path="url(#clip0_4257_169360)">
<path d="M45.863 16.2469C44.8378 13.8586 42.758 11.2799 41.1294 10.4647C42.2908 12.642 43.0969 14.9802 43.5191 17.3962L43.5233 17.4345C40.8555 10.9982 36.3331 8.39885 32.6375 2.74639C32.4506 2.46053 32.2637 2.17408 32.0817 1.87171C31.9776 1.69901 31.8942 1.54341 31.8217 1.40018C31.6685 1.11287 31.5504 0.809237 31.4698 0.495432C31.4699 0.480951 31.4645 0.466939 31.4546 0.456068C31.4447 0.445197 31.4311 0.438228 31.4162 0.43649C31.4017 0.432628 31.3863 0.432628 31.3718 0.43649C31.3687 0.43649 31.3639 0.441795 31.3602 0.442974C31.3566 0.444153 31.3486 0.449457 31.3432 0.451815L31.3523 0.43649C25.4254 3.79614 23.4132 10.0144 23.2306 13.1265C20.8628 13.2837 18.599 14.1281 16.7344 15.5496C16.5399 15.3901 16.3367 15.241 16.1256 15.1028C15.588 13.2809 15.5651 11.3527 16.0592 9.51932C13.8826 10.5401 11.9485 11.9871 10.3795 13.769H10.3685C9.43337 12.6214 9.49913 8.83737 9.5527 8.04697C9.27605 8.15461 9.01197 8.29035 8.76488 8.4519C7.93933 9.0223 7.16758 9.66234 6.45865 10.3645C5.65079 11.1575 4.91296 12.0145 4.25288 12.9267V12.9302V12.9261C2.73601 15.0077 1.66001 17.3595 1.08699 19.8458L1.05533 19.9967C1.01089 20.1977 0.850764 21.2044 0.823367 21.4231C0.823367 21.4402 0.819714 21.4561 0.817888 21.4732C0.611343 22.5125 0.483353 23.565 0.434937 24.6224V24.7403C0.445365 30.4567 2.66907 35.9617 6.66709 40.1684C10.6651 44.3752 16.1469 46.978 22.0303 47.4631C27.9137 47.9482 33.7713 46.2804 38.4465 42.7888C43.1218 39.2973 46.2752 34.2357 47.284 28.6033C47.3236 28.3086 47.3559 28.0168 47.3912 27.7192C47.8772 23.8302 47.3511 19.8853 45.8606 16.2433L45.863 16.2469ZM18.6668 34.1296C18.777 34.1809 18.8805 34.2363 18.9938 34.2852L19.0102 34.2952C18.8957 34.2422 18.7813 34.187 18.6668 34.1296ZM43.5239 17.441V17.4192L43.5282 17.4434L43.5239 17.441Z" fill="url(#paint0_linear_4257_169360)"/>
<path d="M45.8631 16.247C44.8378 13.8587 42.758 11.28 41.1294 10.4648C42.2908 12.6421 43.0969 14.9803 43.5191 17.3963V17.4181L43.5233 17.4423C45.3424 22.4812 45.0793 28.0058 42.7891 32.8613C40.0847 38.479 33.541 44.2369 23.2945 43.954C12.2261 43.6505 2.47269 35.6964 0.652299 25.2815C0.32049 23.6388 0.652299 22.8059 0.819117 21.4709C0.591569 22.5079 0.464585 23.5632 0.439819 24.6231V24.741C0.450248 30.4574 2.67396 35.9624 6.67197 40.1691C10.67 44.3758 16.1518 46.9787 22.0352 47.4638C27.9186 47.9489 33.7761 46.2811 38.4514 42.7895C43.1267 39.2979 46.28 34.2364 47.2889 28.604C47.3285 28.3093 47.3608 28.0175 47.3961 27.7199C47.8821 23.8309 47.3559 19.8859 45.8655 16.244L45.8631 16.247Z" fill="url(#paint1_radial_4257_169360)"/>
<path d="M45.8631 16.247C44.8378 13.8587 42.758 11.28 41.1294 10.4648C42.2908 12.6421 43.0969 14.9803 43.5191 17.3963V17.4181L43.5233 17.4423C45.3424 22.4812 45.0793 28.0058 42.7891 32.8613C40.0847 38.479 33.541 44.2369 23.2945 43.954C12.2261 43.6505 2.47269 35.6964 0.652299 25.2815C0.32049 23.6388 0.652299 22.8059 0.819117 21.4709C0.591569 22.5079 0.464585 23.5632 0.439819 24.6231V24.741C0.450248 30.4574 2.67396 35.9624 6.67197 40.1691C10.67 44.3758 16.1518 46.9787 22.0352 47.4638C27.9186 47.9489 33.7761 46.2811 38.4514 42.7895C43.1267 39.2979 46.28 34.2364 47.2889 28.604C47.3285 28.3093 47.3608 28.0175 47.3961 27.7199C47.8821 23.8309 47.3559 19.8859 45.8655 16.244L45.8631 16.247Z" fill="url(#paint2_radial_4257_169360)"/>
<path d="M34.3928 18.9274C34.4439 18.9622 34.4914 18.9969 34.5395 19.0317C33.9468 18.0142 33.2089 17.0826 32.3477 16.2644C25.0114 9.16201 30.4257 0.868984 31.3383 0.444608L31.3474 0.431641C25.4205 3.79129 23.4084 10.0096 23.2257 13.1217C23.5009 13.1034 23.7737 13.081 24.0549 13.081C26.1577 13.0849 28.2219 13.6278 30.0377 14.6545C31.8535 15.6812 33.3561 17.155 34.3928 18.9262V18.9274Z" fill="url(#paint3_radial_4257_169360)"/>
<path d="M24.0671 20.3481C24.0281 20.9163 21.9545 22.8761 21.2293 22.8761C14.5201 22.8761 13.4303 26.8057 13.4303 26.8057C13.7274 30.1147 16.1091 32.8413 18.9883 34.2794C19.1198 34.3455 19.2531 34.405 19.3864 34.4633C19.6174 34.5624 19.8483 34.6539 20.0793 34.738C21.0674 35.0765 22.1023 35.2698 23.1496 35.3115C34.9121 35.8455 37.1891 21.6961 28.7015 17.5879C30.7036 17.3357 32.7312 17.8123 34.3909 18.9253C33.3543 17.1541 31.8517 15.6803 30.0359 14.6536C28.2201 13.6269 26.1559 13.084 24.0531 13.0801C23.773 13.0801 23.4991 13.1025 23.2239 13.1207C20.8561 13.2779 18.5923 14.1223 16.7277 15.5438C17.0875 15.8385 17.4936 16.2323 18.349 17.0486C19.9502 18.5758 24.0567 20.1577 24.0659 20.3434L24.0671 20.3481Z" fill="url(#paint4_radial_4257_169360)"/>
<path d="M24.0671 20.3481C24.0281 20.9163 21.9545 22.8761 21.2293 22.8761C14.5201 22.8761 13.4303 26.8057 13.4303 26.8057C13.7274 30.1147 16.1091 32.8413 18.9883 34.2794C19.1198 34.3455 19.2531 34.405 19.3864 34.4633C19.6174 34.5624 19.8483 34.6539 20.0793 34.738C21.0674 35.0765 22.1023 35.2698 23.1496 35.3115C34.9121 35.8455 37.1891 21.6961 28.7015 17.5879C30.7036 17.3357 32.7312 17.8123 34.3909 18.9253C33.3543 17.1541 31.8517 15.6803 30.0359 14.6536C28.2201 13.6269 26.1559 13.084 24.0531 13.0801C23.773 13.0801 23.4991 13.1025 23.2239 13.1207C20.8561 13.2779 18.5923 14.1223 16.7277 15.5438C17.0875 15.8385 17.4936 16.2323 18.349 17.0486C19.9502 18.5758 24.0567 20.1577 24.0659 20.3434L24.0671 20.3481Z" fill="url(#paint5_radial_4257_169360)"/>
<path d="M15.6288 14.79C15.82 14.9079 15.9776 15.0105 16.1158 15.103C15.5782 13.2811 15.5553 11.3529 16.0495 9.51953C13.8728 10.5403 11.9388 11.9874 10.3698 13.7692C10.4848 13.7662 13.9076 13.7067 15.6288 14.79Z" fill="url(#paint6_radial_4257_169360)"/>
<path d="M0.648028 25.2814C2.46902 35.6963 12.2218 43.6534 23.2902 43.954C33.5368 44.2345 40.0816 38.476 42.7848 32.8613C45.075 28.0057 45.3381 22.4812 43.5191 17.4422V17.4204C43.5191 17.4033 43.5154 17.3933 43.5191 17.3986L43.5233 17.4369C44.3605 22.7281 41.5806 27.8518 37.2342 31.3235L37.2208 31.3529C28.752 38.031 20.6485 35.381 19.0108 34.3C18.8963 34.247 18.7819 34.1918 18.6674 34.1344C13.7305 31.8498 11.6903 27.4976 12.1286 23.7607C10.9567 23.7775 9.80493 23.4648 8.81283 22.8607C7.82072 22.2565 7.03089 21.3868 6.53902 20.3569C7.83509 19.5883 9.31287 19.1537 10.8316 19.0947C12.3502 19.0357 13.8592 19.3542 15.2148 20.0197C18.0088 21.2476 21.1882 21.3686 24.0732 20.3569C24.0641 20.1712 19.9575 18.5887 18.3563 17.0621C17.5009 16.2457 17.0948 15.8526 16.735 15.5573C16.5406 15.3978 16.3373 15.2487 16.1262 15.1105C15.9862 15.018 15.8285 14.9178 15.6391 14.7976C13.918 13.7142 10.4952 13.7737 10.3819 13.7767H10.371C9.43581 12.6291 9.50156 8.84509 9.55514 8.05469C9.27849 8.16233 9.01441 8.29806 8.76732 8.45961C7.94177 9.03001 7.17002 9.67006 6.46109 10.3723C5.65034 11.163 4.90945 12.018 4.24619 12.9285C2.72932 15.0101 1.65332 17.3613 1.08029 19.8476C1.06873 19.8942 0.230374 23.4425 0.643767 25.2826L0.648028 25.2814Z" fill="url(#paint7_radial_4257_169360)"/>
<path d="M32.3471 16.264C33.2085 17.0831 33.9464 18.0157 34.5389 19.0343C34.6686 19.1292 34.7897 19.2235 34.8926 19.3148C40.2424 24.0891 37.4393 30.8378 37.2305 31.3152C41.5763 27.8489 44.3538 22.7216 43.5197 17.4287C40.8506 10.9864 36.3233 8.38713 32.6339 2.73468C32.447 2.44881 32.26 2.16236 32.078 1.85999C31.9739 1.68729 31.8905 1.53169 31.818 1.38846C31.6648 1.10115 31.5467 0.797518 31.4661 0.483713C31.4662 0.469232 31.4608 0.45522 31.451 0.444349C31.4411 0.433478 31.4274 0.426509 31.4126 0.424772C31.398 0.420909 31.3827 0.420909 31.3681 0.424772C31.3651 0.424772 31.3602 0.430076 31.3566 0.431255C31.3529 0.432434 31.345 0.437739 31.3395 0.440096C30.4269 0.859168 25.0138 9.15749 32.3502 16.254L32.3471 16.264Z" fill="url(#paint8_radial_4257_169360)"/>
<path d="M34.892 19.3175C34.7891 19.2261 34.668 19.1318 34.5383 19.0369C34.4902 19.0022 34.4427 18.9674 34.3916 18.9326C32.7318 17.8196 30.7042 17.343 28.7021 17.5952C37.1891 21.7034 34.9121 35.8493 23.1502 35.3188C22.1029 35.2772 21.068 35.0839 20.0799 34.7454C19.849 34.6617 19.618 34.5701 19.3871 34.4707C19.2537 34.4117 19.1204 34.3528 18.9889 34.2868L19.0053 34.2968C20.6455 35.3807 28.7465 38.029 37.2153 31.3497L37.2287 31.3203C37.4399 30.8429 40.243 24.0941 34.8908 19.3199L34.892 19.3175Z" fill="url(#paint9_radial_4257_169360)"/>
<path d="M13.4308 26.8029C13.4308 26.8029 14.52 22.8733 21.2299 22.8733C21.955 22.8733 24.0305 20.9135 24.0676 20.3453C21.1826 21.3569 18.0033 21.2359 15.2092 20.0081C13.8537 19.3425 12.3447 19.0241 10.826 19.0831C9.3073 19.1421 7.82951 19.5766 6.53345 20.3453C7.02532 21.3752 7.81515 22.2449 8.80725 22.8491C9.79936 23.4532 10.9511 23.7659 12.1231 23.7491C11.6859 27.4842 13.7255 31.8358 18.6619 34.1228C18.7721 34.174 18.8756 34.2294 18.9888 34.2784C16.1072 32.8373 13.7279 30.1118 13.4308 26.8046V26.8029Z" fill="url(#paint10_radial_4257_169360)"/>
<path d="M45.863 16.2469C44.8378 13.8586 42.758 11.2799 41.1294 10.4647C42.2908 12.642 43.0969 14.9802 43.5191 17.3962L43.5233 17.4345C40.8555 10.9982 36.3331 8.39885 32.6375 2.74639C32.4506 2.46053 32.2637 2.17408 32.0817 1.87171C31.9776 1.69901 31.8942 1.54341 31.8217 1.40018C31.6685 1.11287 31.5504 0.809237 31.4698 0.495432C31.4699 0.480951 31.4645 0.466939 31.4546 0.456068C31.4447 0.445197 31.4311 0.438228 31.4162 0.43649C31.4017 0.432628 31.3863 0.432628 31.3718 0.43649C31.3687 0.43649 31.3639 0.441795 31.3602 0.442974C31.3566 0.444153 31.3486 0.449457 31.3432 0.451815L31.3523 0.43649C25.4254 3.79614 23.4132 10.0144 23.2306 13.1265C23.5058 13.1083 23.7785 13.0859 24.0598 13.0859C26.1626 13.0898 28.2268 13.6327 30.0426 14.6594C31.8584 15.6861 33.361 17.1599 34.3976 18.931C32.7379 17.8181 30.7103 17.3415 28.7082 17.5937C37.1952 21.7019 34.9182 35.8478 23.1563 35.3173C22.109 35.2756 21.0741 35.0823 20.086 34.7438C19.855 34.6601 19.6241 34.5685 19.3931 34.4691C19.2598 34.4102 19.1265 34.3512 18.995 34.2852L19.0114 34.2952C18.897 34.2422 18.7825 34.187 18.668 34.1296C18.7782 34.1809 18.8817 34.2363 18.995 34.2852C16.1134 32.8435 13.7341 30.1181 13.437 26.8115C13.437 26.8115 14.5262 22.8819 21.2361 22.8819C21.9612 22.8819 24.0367 20.9221 24.0738 20.3539C24.0647 20.1682 19.9581 18.5857 18.3569 17.0591C17.5015 16.2427 17.0954 15.8496 16.7356 15.5543C16.5412 15.3949 16.3379 15.2457 16.1268 15.1075C15.5892 13.2856 15.5663 11.3574 16.0604 9.52404C13.8838 10.5448 11.9498 11.9919 10.3807 13.7737H10.3697C9.43459 12.6261 9.50035 8.84209 9.55392 8.05169C9.27727 8.15933 9.01319 8.29506 8.7661 8.45661C7.94055 9.02701 7.1688 9.66706 6.45987 10.3693C5.65201 11.1622 4.91418 12.0192 4.2541 12.9314C2.73723 15.013 1.66123 17.3642 1.08821 19.8505L1.05655 20.0014C1.01211 20.2024 0.81302 21.2233 0.784405 21.4425C0.602306 22.4963 0.486012 23.5598 0.436157 24.6271V24.745C0.446585 30.4614 2.67029 35.9664 6.66831 40.1731C10.6663 44.3799 16.1481 46.9827 22.0315 47.4678C27.915 47.953 33.7725 46.2851 38.4478 42.7935C43.1231 39.302 46.2764 34.2404 47.2853 28.608C47.3248 28.3133 47.3571 28.0215 47.3924 27.7239C47.8784 23.8349 47.3523 19.89 45.8618 16.248L45.863 16.2469Z" fill="url(#paint11_linear_4257_169360)"/>
</g>
<defs>
<linearGradient id="paint0_linear_4257_169360" x1="42.7398" y1="7.73336" x2="4.79117" y2="45.5532" gradientUnits="userSpaceOnUse">
<stop offset="0.048" stop-color="#FFF44F"/>
<stop offset="0.111" stop-color="#FFE847"/>
<stop offset="0.225" stop-color="#FFC830"/>
<stop offset="0.368" stop-color="#FF980E"/>
<stop offset="0.401" stop-color="#FF8B16"/>
<stop offset="0.462" stop-color="#FF672A"/>
<stop offset="0.534" stop-color="#FF3647"/>
<stop offset="0.705" stop-color="#E31587"/>
</linearGradient>
<radialGradient id="paint1_radial_4257_169360" cx="0" cy="0" r="1" gradientUnits="userSpaceOnUse" gradientTransform="translate(41.2238 5.73776) scale(49.1931 47.6245)">
<stop offset="0.129" stop-color="#FFBD4F"/>
<stop offset="0.186" stop-color="#FFAC31"/>
<stop offset="0.247" stop-color="#FF9D17"/>
<stop offset="0.283" stop-color="#FF980E"/>
<stop offset="0.403" stop-color="#FF563B"/>
<stop offset="0.467" stop-color="#FF3750"/>
<stop offset="0.71" stop-color="#F5156C"/>
<stop offset="0.782" stop-color="#EB0878"/>
<stop offset="0.86" stop-color="#E50080"/>
</radialGradient>
<radialGradient id="paint2_radial_4257_169360" cx="0" cy="0" r="1" gradientUnits="userSpaceOnUse" gradientTransform="translate(22.959 25.1883) scale(49.1931 47.6245)">
<stop offset="0.3" stop-color="#960E18"/>
<stop offset="0.351" stop-color="#B11927" stop-opacity="0.74"/>
<stop offset="0.435" stop-color="#DB293D" stop-opacity="0.343"/>
<stop offset="0.497" stop-color="#F5334B" stop-opacity="0.094"/>
<stop offset="0.53" stop-color="#FF3750" stop-opacity="0"/>
</radialGradient>
<radialGradient id="paint3_radial_4257_169360" cx="0" cy="0" r="1" gradientUnits="userSpaceOnUse" gradientTransform="translate(29.0473 -4.87307) scale(35.6345 34.4983)">
<stop offset="0.132" stop-color="#FFF44F"/>
<stop offset="0.252" stop-color="#FFDC3E"/>
<stop offset="0.506" stop-color="#FF9D12"/>
<stop offset="0.526" stop-color="#FF980E"/>
</radialGradient>
<radialGradient id="paint4_radial_4257_169360" cx="0" cy="0" r="1" gradientUnits="userSpaceOnUse" gradientTransform="translate(17.4796 37.5648) scale(23.4215 22.6747)">
<stop offset="0.353" stop-color="#3A8EE6"/>
<stop offset="0.472" stop-color="#5C79F0"/>
<stop offset="0.669" stop-color="#9059FF"/>
<stop offset="1" stop-color="#C139E6"/>
</radialGradient>
<radialGradient id="paint5_radial_4257_169360" cx="0" cy="0" r="1" gradientUnits="userSpaceOnUse" gradientTransform="translate(25.3383 21.099) rotate(-13.1735) scale(12.3986 14.1016)">
<stop offset="0.206" stop-color="#9059FF" stop-opacity="0"/>
<stop offset="0.278" stop-color="#8C4FF3" stop-opacity="0.064"/>
<stop offset="0.747" stop-color="#7716A8" stop-opacity="0.45"/>
<stop offset="0.975" stop-color="#6E008B" stop-opacity="0.6"/>
</radialGradient>
<radialGradient id="paint6_radial_4257_169360" cx="0" cy="0" r="1" gradientUnits="userSpaceOnUse" gradientTransform="translate(22.3502 3.96845) scale(16.8523 16.3149)">
<stop stop-color="#FFE226"/>
<stop offset="0.121" stop-color="#FFDB27"/>
<stop offset="0.295" stop-color="#FFC82A"/>
<stop offset="0.502" stop-color="#FFA930"/>
<stop offset="0.732" stop-color="#FF7E37"/>
<stop offset="0.792" stop-color="#FF7139"/>
</radialGradient>
<radialGradient id="paint7_radial_4257_169360" cx="0" cy="0" r="1" gradientUnits="userSpaceOnUse" gradientTransform="translate(35.7444 -6.64112) scale(71.9023 69.6095)">
<stop offset="0.113" stop-color="#FFF44F"/>
<stop offset="0.456" stop-color="#FF980E"/>
<stop offset="0.622" stop-color="#FF5634"/>
<stop offset="0.716" stop-color="#FF3647"/>
<stop offset="0.904" stop-color="#E31587"/>
</radialGradient>
<radialGradient id="paint8_radial_4257_169360" cx="0" cy="0" r="1" gradientUnits="userSpaceOnUse" gradientTransform="translate(29.7681 -2.78104) rotate(83.7791) scale(51.0297 34.5679)">
<stop stop-color="#FFF44F"/>
<stop offset="0.06" stop-color="#FFE847"/>
<stop offset="0.168" stop-color="#FFC830"/>
<stop offset="0.304" stop-color="#FF980E"/>
<stop offset="0.356" stop-color="#FF8B16"/>
<stop offset="0.455" stop-color="#FF672A"/>
<stop offset="0.57" stop-color="#FF3647"/>
<stop offset="0.737" stop-color="#E31587"/>
</radialGradient>
<radialGradient id="paint9_radial_4257_169360" cx="0" cy="0" r="1" gradientUnits="userSpaceOnUse" gradientTransform="translate(22.3502 9.86334) scale(44.8826 43.4514)">
<stop offset="0.137" stop-color="#FFF44F"/>
<stop offset="0.48" stop-color="#FF980E"/>
<stop offset="0.592" stop-color="#FF5634"/>
<stop offset="0.655" stop-color="#FF3647"/>
<stop offset="0.904" stop-color="#E31587"/>
</radialGradient>
<radialGradient id="paint10_radial_4257_169360" cx="0" cy="0" r="1" gradientUnits="userSpaceOnUse" gradientTransform="translate(33.9178 12.2208) scale(49.1261 47.5596)">
<stop offset="0.094" stop-color="#FFF44F"/>
<stop offset="0.231" stop-color="#FFE141"/>
<stop offset="0.509" stop-color="#FFAF1E"/>
<stop offset="0.626" stop-color="#FF980E"/>
</radialGradient>
<linearGradient id="paint11_linear_4257_169360" x1="42.2649" y1="7.53885" x2="10.0176" y2="40.8543" gradientUnits="userSpaceOnUse">
<stop offset="0.167" stop-color="#FFF44F" stop-opacity="0.8"/>
<stop offset="0.266" stop-color="#FFF44F" stop-opacity="0.634"/>
<stop offset="0.489" stop-color="#FFF44F" stop-opacity="0.217"/>
<stop offset="0.6" stop-color="#FFF44F" stop-opacity="0"/>
</linearGradient>
<clipPath id="clip0_4257_169360">
<rect width="48" height="48" fill="white"/>
</clipPath>
</defs>
</svg>
