<svg width="48" height="48" viewBox="0 0 48 48" fill="none" xmlns="http://www.w3.org/2000/svg">
<g clip-path="url(#clip0_4257_169384)">
<path d="M16.0992 37.5264C13.4448 34.392 11.7264 29.7648 11.6112 24.5664C11.6112 24.552 11.6112 23.448 11.6112 23.4336C11.7264 18.2352 13.4448 13.608 16.0992 10.4736C19.5456 6.0048 24.6624 3.168 30.3744 3.168C33.888 3.168 37.1808 4.2432 39.9936 6.1104C35.7696 2.328 30.2016 0.024 24.0912 0C24.0624 0 24.0288 0 24 0C10.7472 0 0 10.7472 0 24C0 36.8736 10.1328 47.376 22.8576 47.9712C23.2368 47.9904 23.616 48 24 48C30.144 48 35.7504 45.6912 39.9936 41.8944C37.1808 43.7568 33.8928 44.832 30.3744 44.832C24.6624 44.832 19.5456 41.9952 16.0992 37.5264Z" fill="url(#paint0_linear_4257_169384)"/>
<path d="M16.0992 10.4736C18.3024 7.87197 21.144 6.30717 24.2544 6.30717C31.2432 6.30717 36.9024 14.2272 36.9024 24C36.9024 33.7728 31.2384 41.6928 24.2544 41.6928C21.1488 41.6928 18.3024 40.1232 16.0992 37.5264C19.5456 41.9952 24.6624 44.832 30.3744 44.832C33.888 44.832 37.1808 43.7568 39.9936 41.8944C44.9088 37.4976 48 31.1088 48 24C48 16.8912 44.9088 10.5024 39.9936 6.11037C37.1808 4.24317 33.8928 3.16797 30.3744 3.16797C24.6624 3.16797 19.5456 6.00477 16.0992 10.4736Z" fill="url(#paint1_linear_4257_169384)"/>
</g>
<defs>
<linearGradient id="paint0_linear_4257_169384" x1="19.9979" y1="0.782592" x2="19.9979" y2="47.3014" gradientUnits="userSpaceOnUse">
<stop offset="0.3" stop-color="#FF1B2D"/>
<stop offset="0.4381" stop-color="#FA1A2C"/>
<stop offset="0.5939" stop-color="#ED1528"/>
<stop offset="0.7581" stop-color="#D60E21"/>
<stop offset="0.9272" stop-color="#B70519"/>
<stop offset="1" stop-color="#A70014"/>
</linearGradient>
<linearGradient id="paint1_linear_4257_169384" x1="32.0501" y1="3.5244" x2="32.0501" y2="44.668" gradientUnits="userSpaceOnUse">
<stop stop-color="#9C0000"/>
<stop offset="0.7" stop-color="#FF4B4B"/>
</linearGradient>
<clipPath id="clip0_4257_169384">
<rect width="48" height="48" fill="white"/>
</clipPath>
</defs>
</svg>
