<svg width="211" height="24" viewBox="0 0 211 24" fill="none" xmlns="http://www.w3.org/2000/svg">
<path fill-rule="evenodd" clip-rule="evenodd" d="M11.411 23.7059L0.685256 18.7649C-0.228419 18.3335 -0.228419 17.6669 0.685256 17.2747L4.4194 15.5493L11.3713 18.7649C12.285 19.1963 13.7548 19.1963 14.6287 18.7649L21.5806 15.5493L25.3147 17.2747C26.2284 17.7061 26.2284 18.3727 25.3147 18.7649L14.589 23.7059C13.7548 24.098 12.285 24.098 11.411 23.7059Z" fill="#FF6F3D"/>
<path fill-rule="evenodd" clip-rule="evenodd" d="M11.3762 17.5916L0.683168 12.6449C-0.227723 12.213 -0.227723 11.5456 0.683168 11.153L4.32673 9.46484L11.3762 12.7234C12.2871 13.1553 13.7525 13.1553 14.6238 12.7234L21.6733 9.46484L25.3168 11.153C26.2277 11.5849 26.2277 12.2523 25.3168 12.6449L14.6238 17.5916C13.7129 18.0235 12.2475 18.0235 11.3762 17.5916Z" fill="#95C038"/>
<path fill-rule="evenodd" clip-rule="evenodd" d="M11.3762 11.5408L0.683168 6.6652C-0.227723 6.23956 -0.227723 5.58174 0.683168 5.19479L11.3762 0.319233C12.2871 -0.106411 13.7525 -0.106411 14.6238 0.319233L25.3168 5.19479C26.2277 5.62044 26.2277 6.27825 25.3168 6.6652L14.6238 11.5408C13.7129 11.9277 12.2475 11.9277 11.3762 11.5408Z" fill="#5DC0E8"/>
<path fill-rule="evenodd" clip-rule="evenodd" d="M171.943 17.1235C172.717 16.5259 173.105 15.693 173.105 14.625C173.105 13.7949 172.864 13.1198 172.383 12.5996C171.907 12.0794 171.032 11.5924 169.76 11.1387C169.001 10.8675 168.437 10.6213 168.066 10.3999C167.701 10.173 167.441 9.92676 167.286 9.66113C167.131 9.38997 167.053 9.04411 167.053 8.62354C167.053 8.05355 167.264 7.60807 167.684 7.28711C168.105 6.96615 168.689 6.80566 169.436 6.80566C170.382 6.80566 171.356 7.01595 172.358 7.43652L172.798 6.20801C171.785 5.7653 170.675 5.54395 169.469 5.54395C168.312 5.54395 167.383 5.82064 166.68 6.37402C165.977 6.92741 165.626 7.67171 165.626 8.60693C165.626 9.49788 165.866 10.2201 166.348 10.7734C166.835 11.3268 167.643 11.8055 168.772 12.2095C169.58 12.4972 170.18 12.7546 170.573 12.9814C170.971 13.2083 171.254 13.4574 171.42 13.7285C171.591 13.9941 171.677 14.3372 171.677 14.7578C171.677 15.3942 171.439 15.8923 170.963 16.252C170.487 16.6061 169.779 16.7832 168.838 16.7832C168.263 16.7832 167.682 16.7223 167.095 16.6006C166.508 16.4788 165.966 16.3128 165.468 16.1025V17.4639C166.243 17.8346 167.35 18.02 168.788 18.02C170.116 18.02 171.168 17.7212 171.943 17.1235ZM144.039 16.2686C145.129 15.2061 145.674 13.6732 145.674 11.6699C145.674 9.79395 145.151 8.33301 144.105 7.28711C143.06 6.24121 141.593 5.71826 139.706 5.71826H135.987V17.854H139.349C141.391 17.854 142.954 17.3255 144.039 16.2686ZM142.985 8.14209C143.782 8.9445 144.18 10.137 144.18 11.7197C144.18 13.3411 143.757 14.5669 142.91 15.397C142.063 16.2215 140.799 16.6338 139.117 16.6338H137.398V6.93848H139.449C141.015 6.93848 142.194 7.33968 142.985 8.14209ZM154.743 16.7749C155.49 15.9393 155.864 14.7799 155.864 13.2969C155.864 11.8525 155.487 10.707 154.735 9.86035C153.988 9.01367 152.978 8.59033 151.705 8.59033C150.388 8.59033 149.359 9.00537 148.617 9.83545C147.876 10.66 147.505 11.8138 147.505 13.2969C147.505 14.2542 147.676 15.0898 148.019 15.8037C148.363 16.5176 148.85 17.0654 149.48 17.4473C150.111 17.8291 150.833 18.02 151.647 18.02C152.964 18.02 153.996 17.605 154.743 16.7749ZM149.63 15.9531C149.165 15.3444 148.933 14.459 148.933 13.2969C148.933 12.1237 149.162 11.241 149.622 10.6489C150.081 10.0568 150.761 9.76074 151.663 9.76074C152.577 9.76074 153.266 10.0623 153.73 10.6655C154.201 11.2632 154.436 12.1403 154.436 13.2969C154.436 14.4645 154.201 15.3527 153.73 15.9614C153.266 16.5646 152.582 16.8662 151.68 16.8662C150.778 16.8662 150.095 16.5618 149.63 15.9531ZM161.753 18.02C160.436 18.02 159.415 17.616 158.69 16.8081C157.971 15.9946 157.611 14.8464 157.611 13.3633C157.611 11.8415 157.976 10.6655 158.707 9.83545C159.443 9.00537 160.489 8.59033 161.845 8.59033C162.282 8.59033 162.719 8.63737 163.156 8.73145C163.593 8.82552 163.936 8.9362 164.185 9.06348L163.762 10.2339C163.458 10.1121 163.126 10.0125 162.766 9.93506C162.406 9.85205 162.088 9.81055 161.811 9.81055C159.963 9.81055 159.039 10.9893 159.039 13.3467C159.039 14.4645 159.263 15.3223 159.711 15.9199C160.165 16.5176 160.835 16.8164 161.72 16.8164C162.478 16.8164 163.256 16.6532 164.053 16.3267V17.5469C163.444 17.8623 162.677 18.02 161.753 18.02ZM179.443 18.02C178.85 18.02 178.308 17.9121 177.816 17.6963C177.329 17.4749 176.919 17.1374 176.587 16.6836H176.487C176.554 17.2148 176.587 17.7184 176.587 18.1943V21.938H175.209V8.75635H176.33L176.521 10.0015H176.587C176.941 9.50342 177.354 9.14372 177.824 8.92236C178.294 8.70101 178.834 8.59033 179.443 8.59033C180.649 8.59033 181.579 9.0026 182.232 9.82715C182.89 10.6517 183.219 11.8083 183.219 13.2969C183.219 14.791 182.885 15.9531 182.215 16.7832C181.551 17.6077 180.627 18.02 179.443 18.02ZM179.243 9.76074C178.314 9.76074 177.641 10.0181 177.226 10.5327C176.811 11.0474 176.598 11.8664 176.587 12.9897V13.2969C176.587 14.5752 176.8 15.491 177.226 16.0444C177.652 16.5923 178.336 16.8662 179.277 16.8662C180.062 16.8662 180.677 16.548 181.119 15.9116C181.568 15.2752 181.792 14.3981 181.792 13.2803C181.792 12.1458 181.568 11.277 181.119 10.6738C180.677 10.0651 180.051 9.76074 179.243 9.76074ZM190.786 16.5591L191.06 17.854H192.081V11.645C192.081 10.5825 191.818 9.81055 191.292 9.3291C190.772 8.84766 189.969 8.60693 188.885 8.60693C188.348 8.60693 187.811 8.67611 187.275 8.81445C186.743 8.9528 186.254 9.14372 185.805 9.38721L186.229 10.4414C187.186 9.97656 188.044 9.74414 188.802 9.74414C189.477 9.74414 189.967 9.91569 190.271 10.2588C190.581 10.5964 190.736 11.1221 190.736 11.8359V12.4004L189.192 12.4502C186.254 12.5387 184.784 13.5016 184.784 15.3389C184.784 16.1966 185.039 16.8579 185.548 17.3228C186.063 17.7876 186.771 18.02 187.673 18.02C188.348 18.02 188.91 17.9204 189.358 17.7212C189.812 17.5164 190.266 17.1291 190.719 16.5591H190.786ZM189.964 16.1772C189.477 16.6476 188.805 16.8828 187.947 16.8828C187.405 16.8828 186.981 16.7528 186.677 16.4927C186.378 16.2326 186.229 15.8535 186.229 15.3555C186.229 14.7191 186.469 14.2515 186.951 13.9526C187.438 13.6483 188.229 13.4767 189.325 13.438L190.703 13.3799V14.2017C190.703 15.0483 190.456 15.7069 189.964 16.1772ZM198.394 18.02C197.077 18.02 196.056 17.616 195.331 16.8081C194.611 15.9946 194.251 14.8464 194.251 13.3633C194.251 11.8415 194.617 10.6655 195.347 9.83545C196.083 9.00537 197.129 8.59033 198.485 8.59033C198.922 8.59033 199.359 8.63737 199.796 8.73145C200.234 8.82552 200.577 8.9362 200.826 9.06348L200.402 10.2339C200.098 10.1121 199.766 10.0125 199.406 9.93506C199.047 9.85205 198.728 9.81055 198.452 9.81055C196.603 9.81055 195.679 10.9893 195.679 13.3467C195.679 14.4645 195.903 15.3223 196.352 15.9199C196.805 16.5176 197.475 16.8164 198.36 16.8164C199.118 16.8164 199.896 16.6532 200.693 16.3267V17.5469C200.084 17.8623 199.318 18.02 198.394 18.02ZM203.345 16.7915C204.125 17.6105 205.188 18.02 206.533 18.02C207.147 18.02 207.67 17.973 208.102 17.8789C208.539 17.7904 209.001 17.641 209.488 17.4307V16.2021C208.53 16.6117 207.562 16.8164 206.582 16.8164C205.653 16.8164 204.931 16.5397 204.416 15.9863C203.907 15.4329 203.638 14.6222 203.611 13.5542H209.878V12.6826C209.878 11.4541 209.546 10.4663 208.882 9.71924C208.218 8.96663 207.316 8.59033 206.176 8.59033C204.958 8.59033 203.987 9.02197 203.262 9.88525C202.543 10.7485 202.183 11.9134 202.183 13.3799C202.183 14.8353 202.57 15.9725 203.345 16.7915ZM204.408 10.458C204.845 9.9821 205.429 9.74414 206.159 9.74414C206.879 9.74414 207.432 9.97656 207.819 10.4414C208.207 10.9007 208.4 11.5648 208.4 12.4336H203.644C203.721 11.5924 203.976 10.9339 204.408 10.458ZM32.2344 12C32.2344 7.64842 35.2011 5.86667 38.2201 5.86667C41.2391 5.86667 44.2058 7.64842 44.2058 12C44.2058 16.3516 41.2391 18.1333 38.2201 18.1333C35.2011 18.1333 32.2344 16.3516 32.2344 12ZM41.5882 12C41.5882 7.93966 39.145 7.57989 38.2201 7.57989C37.2952 7.57989 34.852 7.93966 34.852 12C34.852 16.0603 37.2952 16.4201 38.2201 16.4201C39.145 16.4201 41.5882 16.0603 41.5882 12ZM48.6972 17.9963H46.2191V6.00373H49.4301L53.6533 13.559L54.299 15.1866H54.3513L54.299 13.0622V6.00373H56.777V17.9963H53.566L49.308 10.1497L48.6972 8.81341H48.6448L48.6972 10.9378V17.9963ZM59.2222 17.9963H66.5517V15.9747H61.7003V6.00373H59.2222V17.9963ZM68.96 13.0965L64.4576 6.00373H67.3195L69.8325 10.2182L70.2164 11.0406H70.2688L70.6876 10.2182L73.218 6.00373H75.8357L71.438 13.1307V17.9963H68.96V13.0965ZM81.6093 5.86667C78.5902 5.86667 75.6236 7.64842 75.6236 12C75.6236 16.3516 78.5902 18.1333 81.6093 18.1333C84.6283 18.1333 87.595 16.3516 87.595 12C87.595 7.64842 84.6283 5.86667 81.6093 5.86667ZM81.6093 7.57989C82.5342 7.57989 84.9773 7.93966 84.9773 12C84.9773 16.0603 82.5342 16.4201 81.6093 16.4201C80.6844 16.4201 78.2412 16.0603 78.2412 12C78.2412 7.93966 80.6844 7.57989 81.6093 7.57989ZM92.0864 17.9963H89.6083V6.00373H96.4491V8.02533H92.0864V10.9378H96.2397V12.908H92.0864V17.9963ZM98.1975 17.9963H100.676V12.908H104.829V10.9378H100.676V8.02533H105.038V6.00373H98.1975V17.9963ZM109.265 17.9963H106.787V6.00373H109.265V17.9963ZM120.629 15.5806C120.019 15.8547 119.164 16.1117 118.082 16.1117C115.883 16.1117 113.893 14.9296 113.893 12.0343C113.893 9.58436 115.516 7.88827 118.256 7.88827C119.181 7.88827 119.966 8.05959 120.682 8.3337L120.786 6.27784C119.862 5.98659 119.041 5.86667 118.082 5.86667C114.242 5.86667 111.276 7.93966 111.276 12.0685C111.276 16.4372 114.591 18.1333 117.628 18.1333C118.605 18.1333 119.704 17.9791 120.786 17.6194L120.629 15.5806ZM129.999 17.9963H122.704V6.00373H129.999V8.12812H125.182V10.835H129.562V12.8052H125.182V15.8719H129.999V17.9963Z" fill="white"/>
</svg>
