<svg width="154" height="27" viewBox="0 0 154 27" fill="none" xmlns="http://www.w3.org/2000/svg">
<g clip-path="url(#clip0_33388_366500)">
<path fill-rule="evenodd" clip-rule="evenodd" d="M11.6983 26.6691L0.702507 21.1155C-0.234169 20.6306 -0.234169 19.8813 0.702507 19.4406L4.53066 17.5012L11.6576 21.1155C12.5942 21.6003 14.1011 21.6003 14.997 21.1155L22.1239 17.5012L25.9521 19.4406C26.8887 19.9254 26.8887 20.6747 25.9521 21.1155L14.9563 26.6691C14.1011 27.1098 12.5942 27.1098 11.6983 26.6691Z" fill="white" fill-opacity="0.5"/>
<path fill-rule="evenodd" clip-rule="evenodd" d="M11.6983 19.8372L0.702507 14.2836C-0.234169 13.7987 -0.234169 13.0494 0.702507 12.6087L4.44921 10.7134L11.6983 14.3717C12.635 14.8565 14.1418 14.8565 15.0377 14.3717L22.2868 10.7134L26.0335 12.6087C26.9702 13.0935 26.9702 13.8428 26.0335 14.2836L15.0377 19.8372C14.1011 20.322 12.5942 20.322 11.6983 19.8372Z" fill="white" fill-opacity="0.75"/>
<path fill-rule="evenodd" clip-rule="evenodd" d="M11.6983 13.1457L0.702507 7.59212C-0.234169 7.10729 -0.234169 6.35799 0.702507 5.91723L11.6983 0.363629C12.635 -0.12121 14.1418 -0.12121 15.0377 0.363629L26.0335 5.91723C26.9702 6.40207 26.9702 7.15136 26.0335 7.59212L15.0377 13.1457C14.1011 13.5865 12.5942 13.5865 11.6983 13.1457Z" fill="white"/>
</g>
<g clip-path="url(#clip1_33388_366500)">
<path d="M35.8789 13.4761C35.8789 10.964 36.5872 9.06815 38.051 7.83582C39.4676 6.5561 41.1675 5.93994 43.1035 5.93994C45.0395 5.93994 46.6922 6.5561 48.1088 7.83582C49.5254 9.11555 50.2337 10.964 50.2337 13.5235C50.2337 16.0355 49.5254 17.9314 48.1088 19.1637C46.6922 20.4434 44.9923 21.0596 43.1035 21.0596C41.1675 21.0596 39.5148 20.4434 38.051 19.1637C36.5872 17.884 35.8789 15.9881 35.8789 13.4761ZM38.9954 13.4761C38.9954 15.2298 39.3259 16.4621 39.9398 17.2678C40.6009 18.0736 41.3092 18.595 42.0647 18.7846C42.2536 18.8319 42.3952 18.8793 42.5841 18.8793C42.7258 18.8793 42.9146 18.9267 43.0563 18.9267C43.2452 18.9267 43.3868 18.9267 43.5757 18.8793C43.7646 18.8793 43.9063 18.8319 44.0951 18.7846C44.8507 18.595 45.559 18.0736 46.1728 17.2678C46.7867 16.4621 47.1172 15.1824 47.1172 13.5235C47.1172 11.8172 46.7867 10.5849 46.1728 9.7791C45.559 8.97335 44.8507 8.45199 44.0951 8.2624C43.9063 8.215 43.7174 8.1676 43.5757 8.1676C43.3868 8.1676 43.2452 8.12021 43.0563 8.12021C42.8674 8.12021 42.7258 8.12021 42.5841 8.1676C42.4425 8.1676 42.2536 8.215 42.0647 8.2624C41.3092 8.45199 40.6009 8.97335 39.9398 9.7791C39.3259 10.4901 38.9954 11.7698 38.9954 13.4761Z" fill="white"/>
<path d="M52.3984 5.93994H56.3087L61.4589 15.4382L62.2219 17.522H62.2696L62.2219 14.8082V5.93994H65.2261V21.0596H61.3158L56.1657 11.1737L55.4027 9.47756H55.355L55.4027 12.1429V21.0596H52.3984V5.93994Z" fill="white"/>
<path d="M68.0078 5.93994H70.9918V18.4912H76.865V21.0596H68.0078V5.93994Z" fill="white"/>
<path d="M75.5859 5.93994H79.0337L82.0565 11.1121L82.5288 12.156H82.6232L83.0955 11.1121L86.1655 5.93994H89.3299L83.9929 14.7184V20.7446H81.0174V14.6709L75.5859 5.93994Z" fill="white"/>
<path d="M89.0215 13.4761C89.0215 10.964 89.7298 9.06815 91.1936 7.83582C92.6102 6.5561 94.3101 5.93994 96.2461 5.93994C98.1821 5.93994 99.8348 6.5561 101.251 7.83582C102.668 9.11555 103.376 10.964 103.376 13.5235C103.376 16.0355 102.668 17.9314 101.251 19.1637C99.8348 20.4434 98.1349 21.0596 96.2461 21.0596C94.3101 21.0596 92.6574 20.4434 91.1936 19.1637C89.777 17.884 89.0215 15.9881 89.0215 13.4761ZM92.138 13.4761C92.138 15.2298 92.4685 16.4621 93.0824 17.2678C93.7435 18.0736 94.4045 18.595 95.2073 18.7846C95.3961 18.8319 95.5378 18.8793 95.7267 18.8793C95.8683 18.8793 96.0572 18.9267 96.1989 18.9267C96.3878 18.9267 96.5294 18.9267 96.7183 18.8793C96.9072 18.8793 97.0488 18.8319 97.2377 18.7846C97.9932 18.595 98.7015 18.0736 99.3154 17.2678C99.9292 16.4621 100.26 15.1824 100.26 13.5235C100.26 11.8172 99.9292 10.5849 99.3154 9.7791C98.7015 8.97335 97.9932 8.45199 97.2377 8.2624C97.0488 8.215 96.86 8.1676 96.7183 8.1676C96.5294 8.1676 96.3878 8.12021 96.1989 8.12021C96.01 8.12021 95.8683 8.12021 95.7267 8.1676C95.585 8.1676 95.3961 8.215 95.2073 8.2624C94.4518 8.45199 93.7435 8.97335 93.0824 9.7791C92.4685 10.4901 92.138 11.7698 92.138 13.4761Z" fill="white"/>
<path d="M105.539 5.93994H113.785V8.40739H108.525V12.0137H113.548V14.5286H108.525V20.7446H105.539V5.93994Z" fill="white"/>
<path d="M115.895 5.93994H124.141V8.40739H118.88V12.0137H123.904V14.5286H118.88V20.7446H115.895V5.93994Z" fill="white"/>
<path d="M126.32 20.7446V5.93994H129.375V20.7446H126.32Z" fill="white"/>
<path d="M143.11 6.32151V8.8971C142.585 8.70632 142.059 8.56323 141.486 8.46784C140.913 8.37244 140.244 8.32475 139.576 8.32475C137.999 8.32475 136.805 8.80171 135.946 9.80333C135.086 10.7572 134.656 11.9973 134.656 13.4759C134.656 14.9068 135.038 16.0992 135.85 17.0531C136.662 18.0071 137.808 18.5317 139.289 18.5317C139.814 18.5317 140.34 18.484 140.961 18.4363C141.582 18.3409 142.202 18.1978 142.871 17.9117L143.062 20.4396C142.967 20.4873 142.823 20.535 142.68 20.5826C142.489 20.6303 142.298 20.678 142.059 20.7257C141.677 20.8211 141.199 20.8688 140.626 20.9642C140.053 21.0119 139.48 21.0596 138.859 21.0596C138.764 21.0596 138.668 21.0596 138.62 21.0596C138.525 21.0596 138.429 21.0596 138.382 21.0596C136.662 20.9642 135.086 20.2965 133.653 19.1518C132.22 17.9594 131.504 16.0992 131.504 13.619C131.504 11.1865 132.22 9.27867 133.605 7.94318C134.99 6.60769 136.901 5.93994 139.241 5.93994C139.862 5.93994 140.435 5.93994 140.913 5.98764C141.438 6.03533 141.916 6.13073 142.441 6.22612C142.537 6.27381 142.68 6.27381 142.776 6.32151C142.871 6.27381 142.967 6.32151 143.11 6.32151Z" fill="white"/>
<path d="M145.234 5.93994H153.786V8.26503H148.161V11.9662H153.237V14.2438H148.161V18.4195H153.786V20.7446H145.234V5.93994Z" fill="white"/>
</g>
<defs>
<clipPath id="clip0_33388_366500">
<rect width="26.7367" height="26.9996" fill="white"/>
</clipPath>
<clipPath id="clip1_33388_366500">
<rect width="117.906" height="15.1197" fill="white" transform="translate(35.8789 5.93994)"/>
</clipPath>
</defs>
</svg>
