<svg width="56" height="54" viewBox="0 0 56 54" fill="none" xmlns="http://www.w3.org/2000/svg">
<path fill-rule="evenodd" clip-rule="evenodd" d="M24.5775 52.6067L1.47594 41.7982C-0.491979 40.8546 -0.491979 39.3964 1.47594 38.5385L9.51872 34.7642L24.492 41.7982C26.4599 42.7418 29.6257 42.7418 31.508 41.7982L46.4813 34.7642L54.5241 38.5385C56.492 39.4821 56.492 40.9404 54.5241 41.7982L31.4225 52.6067C29.6257 53.4645 26.4599 53.4645 24.5775 52.6067Z" fill="#FF6F3D"/>
<path fill-rule="evenodd" clip-rule="evenodd" d="M24.5027 39.2315L1.47144 28.4105C-0.49048 27.4658 -0.49048 26.0058 1.47144 25.147L9.31912 21.4541L24.5027 28.5822C26.4646 29.5269 29.6207 29.5269 31.4973 28.5822L46.6809 21.4541L54.5286 25.147C56.4905 26.0917 56.4905 27.5517 54.5286 28.4105L31.4973 39.2315C29.5354 40.1762 26.3793 40.1762 24.5027 39.2315Z" fill="#95C038"/>
<path fill-rule="evenodd" clip-rule="evenodd" d="M24.5027 25.9954L1.47144 15.3301C-0.49048 14.399 -0.49048 12.9601 1.47144 12.1136L24.5027 1.44832C26.4646 0.517226 29.6207 0.517226 31.4973 1.44832L54.5286 12.1136C56.4905 13.0447 56.4905 14.4837 54.5286 15.3301L31.4973 25.9954C29.5354 26.8419 26.3793 26.8419 24.5027 25.9954Z" fill="#5DC0E8"/>
</svg>
