<svg width="211" height="24" viewBox="0 0 211 24" fill="none" xmlns="http://www.w3.org/2000/svg">
<path fill-rule="evenodd" clip-rule="evenodd" d="M11.1327 23.7059L0.668542 18.7649C-0.222847 18.3335 -0.222847 17.6669 0.668542 17.2747L4.31161 15.5493L11.0939 18.7649C11.9853 19.1963 13.4193 19.1963 14.2719 18.7649L21.0542 15.5493L24.6973 17.2747C25.5887 17.7061 25.5887 18.3727 24.6973 18.7649L14.2332 23.7059C13.4193 24.098 11.9853 24.098 11.1327 23.7059Z" fill="#FF6F3D"/>
<path fill-rule="evenodd" clip-rule="evenodd" d="M11.0988 17.5916L0.666506 12.6449C-0.222169 12.213 -0.222169 11.5456 0.666506 11.153L4.2212 9.46484L11.0988 12.7234C11.9874 13.1553 13.4171 13.1553 14.2671 12.7234L21.1447 9.46484L24.6993 11.153C25.588 11.5849 25.588 12.2523 24.6993 12.6449L14.2671 17.5916C13.3784 18.0235 11.9488 18.0235 11.0988 17.5916Z" fill="#95C038"/>
<path fill-rule="evenodd" clip-rule="evenodd" d="M11.0988 11.5408L0.666506 6.6652C-0.222169 6.23956 -0.222169 5.58174 0.666506 5.19479L11.0988 0.319233C11.9874 -0.106411 13.4171 -0.106411 14.2671 0.319233L24.6993 5.19479C25.588 5.62044 25.588 6.27825 24.6993 6.6652L14.2671 11.5408C13.3784 11.9277 11.9488 11.9277 11.0988 11.5408Z" fill="#5DC0E8"/>
<path d="M38.2221 5.8667C35.203 5.8667 32.2363 7.64845 32.2363 12C32.2363 16.3516 35.203 18.1334 38.2221 18.1334C41.2411 18.1334 44.2078 16.3516 44.2078 12C44.2078 7.64845 41.2411 5.8667 38.2221 5.8667ZM38.2221 7.57992C39.147 7.57992 41.5901 7.9397 41.5901 12C41.5901 16.0604 39.147 16.4201 38.2221 16.4201C37.2971 16.4201 34.854 16.0604 34.854 12C34.854 7.9397 37.2971 7.57992 38.2221 7.57992Z" fill="white"/>
<path d="M46.2211 6.00376V17.9963H48.6991V10.9378L48.6468 8.81344H48.6991L49.3099 10.1497L53.568 17.9963H56.779V6.00376H54.3009V13.0622L54.3533 15.1866H54.3009L53.6552 13.5591L49.4321 6.00376H46.2211Z" fill="white"/>
<path d="M59.2242 6.00376V17.9963H66.5537V15.9747H61.7022V6.00376H59.2242Z" fill="white"/>
<path d="M64.4595 6.00376L68.9619 13.0965V17.9963H71.44V13.1308L75.8376 6.00376H73.22L70.6896 10.2183L70.2707 11.0406H70.2184L69.8345 10.2183L67.3215 6.00376H64.4595Z" fill="white"/>
<path d="M81.6112 5.8667C78.5922 5.8667 75.6255 7.64845 75.6255 12C75.6255 16.3516 78.5922 18.1334 81.6112 18.1334C84.6303 18.1334 87.597 16.3516 87.597 12C87.597 7.64845 84.6303 5.8667 81.6112 5.8667ZM81.6112 7.57992C82.5361 7.57992 84.9793 7.9397 84.9793 12C84.9793 16.0604 82.5361 16.4201 81.6112 16.4201C80.6863 16.4201 78.2432 16.0604 78.2432 12C78.2432 7.9397 80.6863 7.57992 81.6112 7.57992Z" fill="white"/>
<path d="M89.6102 6.00376V17.9963H92.0883V12.908H96.2417V10.9378H92.0883V8.02536H96.4511V6.00376H89.6102Z" fill="white"/>
<path d="M98.1995 6.00376V17.9963H100.678V12.908H104.831V10.9378H100.678V8.02536H105.04V6.00376H98.1995Z" fill="white"/>
<path d="M106.789 17.9963H109.267V6.00376H106.789V17.9963Z" fill="white"/>
<path d="M120.631 15.5807C120.021 15.8548 119.165 16.1118 118.083 16.1118C115.885 16.1118 113.895 14.9296 113.895 12.0343C113.895 9.58439 115.518 7.8883 118.258 7.8883C119.183 7.8883 119.968 8.05962 120.684 8.33374L120.788 6.27787C119.864 5.98662 119.043 5.8667 118.083 5.8667C114.244 5.8667 111.278 7.9397 111.278 12.0686C111.278 16.4373 114.593 18.1334 117.63 18.1334C118.607 18.1334 119.706 17.9792 120.788 17.6194L120.631 15.5807Z" fill="white"/>
<path d="M122.706 6.00376V17.9963H130.001V15.8719H125.184V12.8052H129.564V10.835H125.184V8.12815H130.001V6.00376H122.706Z" fill="white"/>
<path d="M145.618 11.6699C145.618 13.0368 145.369 14.1795 144.871 15.0981C144.373 16.0112 143.65 16.7002 142.704 17.165C141.763 17.6243 140.621 17.854 139.276 17.854H135.98V5.71826H139.641C140.875 5.71826 141.938 5.94515 142.829 6.39893C143.72 6.84717 144.406 7.514 144.887 8.39941C145.374 9.2793 145.618 10.3695 145.618 11.6699ZM144.132 11.7197C144.132 10.6296 143.949 9.73031 143.584 9.02197C143.224 8.31364 142.693 7.78792 141.99 7.44482C141.293 7.09619 140.438 6.92188 139.425 6.92188H137.392V16.6421H139.11C140.781 16.6421 142.035 16.2298 142.87 15.4053C143.711 14.5807 144.132 13.3522 144.132 11.7197ZM155.782 13.2886C155.782 14.0356 155.685 14.7025 155.492 15.2891C155.298 15.8757 155.018 16.3709 154.653 16.7749C154.288 17.1789 153.845 17.4888 153.325 17.7046C152.81 17.9149 152.227 18.02 151.574 18.02C150.965 18.02 150.406 17.9149 149.897 17.7046C149.393 17.4888 148.956 17.1789 148.585 16.7749C148.22 16.3709 147.935 15.8757 147.73 15.2891C147.531 14.7025 147.432 14.0356 147.432 13.2886C147.432 12.2925 147.6 11.4458 147.938 10.7485C148.275 10.0457 148.757 9.51172 149.382 9.14648C150.013 8.77572 150.763 8.59033 151.632 8.59033C152.462 8.59033 153.187 8.77572 153.807 9.14648C154.432 9.51725 154.916 10.054 155.259 10.7568C155.608 11.4541 155.782 12.298 155.782 13.2886ZM148.859 13.2886C148.859 14.019 148.956 14.6527 149.15 15.1895C149.344 15.7262 149.642 16.1413 150.046 16.4346C150.45 16.7279 150.97 16.8745 151.607 16.8745C152.238 16.8745 152.755 16.7279 153.159 16.4346C153.569 16.1413 153.87 15.7262 154.064 15.1895C154.258 14.6527 154.354 14.019 154.354 13.2886C154.354 12.5636 154.258 11.9383 154.064 11.4126C153.87 10.8813 153.571 10.4718 153.167 10.1841C152.763 9.89632 152.24 9.75244 151.599 9.75244C150.652 9.75244 149.958 10.0651 149.515 10.6904C149.078 11.3158 148.859 12.1818 148.859 13.2886ZM161.639 18.02C160.82 18.02 160.097 17.8512 159.472 17.5137C158.847 17.1761 158.36 16.6615 158.011 15.9697C157.662 15.278 157.488 14.4064 157.488 13.355C157.488 12.2537 157.671 11.3545 158.036 10.6572C158.407 9.95443 158.916 9.43424 159.563 9.09668C160.211 8.75911 160.947 8.59033 161.771 8.59033C162.225 8.59033 162.662 8.63737 163.083 8.73145C163.509 8.81999 163.858 8.93343 164.129 9.07178L163.714 10.2256C163.437 10.1149 163.116 10.0153 162.751 9.92676C162.391 9.83822 162.054 9.79395 161.738 9.79395C161.107 9.79395 160.582 9.92952 160.161 10.2007C159.746 10.4718 159.433 10.8703 159.223 11.396C159.018 11.9217 158.916 12.5692 158.916 13.3384C158.916 14.0744 159.015 14.7025 159.215 15.2227C159.419 15.7428 159.721 16.1413 160.119 16.418C160.523 16.6891 161.027 16.8247 161.63 16.8247C162.112 16.8247 162.546 16.7749 162.933 16.6753C163.321 16.5701 163.672 16.4484 163.988 16.3101V17.5386C163.683 17.6935 163.343 17.8125 162.967 17.8955C162.596 17.9785 162.153 18.02 161.639 18.02ZM173.032 14.625C173.032 15.3444 172.852 15.9587 172.492 16.4678C172.138 16.9714 171.64 17.356 170.998 17.6216C170.356 17.8872 169.601 18.02 168.732 18.02C168.272 18.02 167.838 17.9979 167.428 17.9536C167.019 17.9093 166.643 17.8457 166.3 17.7627C165.956 17.6797 165.655 17.5773 165.395 17.4556V16.1025C165.81 16.2741 166.316 16.4346 166.914 16.584C167.511 16.7279 168.137 16.7998 168.79 16.7998C169.399 16.7998 169.913 16.7196 170.334 16.5591C170.754 16.3931 171.073 16.1579 171.288 15.8535C171.51 15.5436 171.62 15.1729 171.62 14.7412C171.62 14.3262 171.529 13.9803 171.346 13.7036C171.164 13.4214 170.859 13.1668 170.433 12.9399C170.013 12.7075 169.437 12.4613 168.707 12.2012C168.192 12.0186 167.738 11.8193 167.345 11.6035C166.953 11.3822 166.623 11.1331 166.358 10.8564C166.092 10.5798 165.89 10.2588 165.752 9.89355C165.619 9.52832 165.552 9.11051 165.552 8.64014C165.552 7.99268 165.716 7.43929 166.042 6.97998C166.374 6.51514 166.831 6.16097 167.412 5.91748C167.998 5.66846 168.671 5.54395 169.429 5.54395C170.076 5.54395 170.674 5.60482 171.222 5.72656C171.775 5.84831 172.282 6.01156 172.741 6.21631L172.301 7.42822C171.864 7.24561 171.399 7.09342 170.907 6.97168C170.42 6.84993 169.916 6.78906 169.396 6.78906C168.876 6.78906 168.436 6.86654 168.076 7.02148C167.722 7.1709 167.451 7.38395 167.262 7.66064C167.074 7.93734 166.98 8.2666 166.98 8.64844C166.98 9.07454 167.069 9.42871 167.246 9.71094C167.428 9.99316 167.716 10.245 168.109 10.4663C168.508 10.6821 169.033 10.909 169.686 11.147C170.4 11.4071 171.006 11.6838 171.504 11.9771C172.002 12.2648 172.381 12.619 172.641 13.0396C172.901 13.4546 173.032 13.9831 173.032 14.625ZM179.411 8.59033C180.545 8.59033 181.45 8.98047 182.125 9.76074C182.8 10.541 183.138 11.7142 183.138 13.2803C183.138 14.3151 182.983 15.1839 182.673 15.8867C182.363 16.5895 181.926 17.1208 181.362 17.4805C180.803 17.8402 180.141 18.02 179.378 18.02C178.896 18.02 178.473 17.9564 178.108 17.8291C177.742 17.7018 177.43 17.5303 177.17 17.3145C176.91 17.0986 176.694 16.8634 176.522 16.6089H176.423C176.439 16.8247 176.459 17.0848 176.481 17.3892C176.508 17.6935 176.522 17.9591 176.522 18.186V21.9214H175.136V8.75635H176.273L176.456 10.1011H176.522C176.699 9.82438 176.915 9.57259 177.17 9.3457C177.424 9.11328 177.734 8.93066 178.099 8.79785C178.47 8.65951 178.907 8.59033 179.411 8.59033ZM179.17 9.75244C178.539 9.75244 178.03 9.87419 177.643 10.1177C177.261 10.3612 176.981 10.7264 176.804 11.2134C176.627 11.6948 176.533 12.3008 176.522 13.0312V13.2969C176.522 14.0661 176.605 14.7163 176.771 15.2476C176.943 15.7788 177.222 16.1828 177.61 16.4595C178.002 16.7362 178.528 16.8745 179.187 16.8745C179.751 16.8745 180.222 16.7223 180.598 16.418C180.974 16.1136 181.254 15.6903 181.436 15.1479C181.624 14.6001 181.718 13.972 181.718 13.2637C181.718 12.1901 181.508 11.3379 181.088 10.707C180.673 10.0706 180.033 9.75244 179.17 9.75244ZM188.778 8.60693C189.863 8.60693 190.668 8.85042 191.194 9.3374C191.72 9.82438 191.983 10.6019 191.983 11.6699V17.854H190.978L190.713 16.5093H190.646C190.392 16.8413 190.126 17.1208 189.849 17.3477C189.573 17.569 189.252 17.7378 188.886 17.854C188.527 17.9647 188.084 18.02 187.558 18.02C187.005 18.02 186.512 17.9232 186.081 17.7295C185.655 17.5358 185.317 17.2425 185.068 16.8496C184.824 16.4567 184.703 15.9587 184.703 15.3555C184.703 14.4479 185.062 13.7507 185.782 13.2637C186.501 12.7767 187.597 12.5111 189.069 12.4668L190.638 12.4004V11.8442C190.638 11.0584 190.469 10.5078 190.131 10.1924C189.794 9.87695 189.318 9.71924 188.704 9.71924C188.228 9.71924 187.774 9.78841 187.342 9.92676C186.911 10.0651 186.501 10.2284 186.114 10.4165L185.691 9.37061C186.1 9.16032 186.57 8.98047 187.102 8.83105C187.633 8.68164 188.192 8.60693 188.778 8.60693ZM190.621 13.3716L189.235 13.4297C188.101 13.474 187.301 13.6593 186.836 13.9858C186.371 14.3123 186.139 14.7744 186.139 15.3721C186.139 15.8923 186.296 16.2769 186.612 16.5259C186.927 16.7749 187.345 16.8994 187.865 16.8994C188.673 16.8994 189.335 16.6753 189.849 16.2271C190.364 15.7788 190.621 15.1064 190.621 14.21V13.3716ZM198.295 18.02C197.476 18.02 196.754 17.8512 196.129 17.5137C195.504 17.1761 195.017 16.6615 194.668 15.9697C194.319 15.278 194.145 14.4064 194.145 13.355C194.145 12.2537 194.328 11.3545 194.693 10.6572C195.064 9.95443 195.573 9.43424 196.22 9.09668C196.868 8.75911 197.604 8.59033 198.428 8.59033C198.882 8.59033 199.319 8.63737 199.74 8.73145C200.166 8.81999 200.515 8.93343 200.786 9.07178L200.371 10.2256C200.094 10.1149 199.773 10.0153 199.408 9.92676C199.048 9.83822 198.71 9.79395 198.395 9.79395C197.764 9.79395 197.238 9.92952 196.818 10.2007C196.403 10.4718 196.09 10.8703 195.88 11.396C195.675 11.9217 195.573 12.5692 195.573 13.3384C195.573 14.0744 195.672 14.7025 195.872 15.2227C196.076 15.7428 196.378 16.1413 196.776 16.418C197.18 16.6891 197.684 16.8247 198.287 16.8247C198.769 16.8247 199.203 16.7749 199.59 16.6753C199.978 16.5701 200.329 16.4484 200.645 16.3101V17.5386C200.34 17.6935 200 17.8125 199.624 17.8955C199.253 17.9785 198.81 18.02 198.295 18.02ZM206.136 8.59033C206.91 8.59033 207.574 8.76188 208.128 9.10498C208.681 9.44808 209.105 9.92952 209.398 10.5493C209.691 11.1636 209.838 11.883 209.838 12.7075V13.5625H203.554C203.571 14.6305 203.836 15.444 204.351 16.0029C204.866 16.5618 205.591 16.8413 206.526 16.8413C207.101 16.8413 207.61 16.7887 208.053 16.6836C208.496 16.5785 208.955 16.4235 209.431 16.2188V17.4307C208.972 17.6354 208.515 17.7848 208.061 17.8789C207.613 17.973 207.082 18.02 206.468 18.02C205.593 18.02 204.83 17.8429 204.177 17.4888C203.529 17.1291 203.026 16.6034 202.666 15.9116C202.306 15.2199 202.126 14.3732 202.126 13.3716C202.126 12.3921 202.29 11.5454 202.616 10.8315C202.948 10.1121 203.413 9.55876 204.011 9.17139C204.614 8.78402 205.322 8.59033 206.136 8.59033ZM206.119 9.71924C205.383 9.71924 204.796 9.95996 204.359 10.4414C203.922 10.9229 203.662 11.5952 203.579 12.4585H208.393C208.388 11.9162 208.302 11.4403 208.136 11.0308C207.976 10.6157 207.729 10.2948 207.397 10.0679C207.065 9.83545 206.639 9.71924 206.119 9.71924Z" fill="white"/>
</svg>
