<svg width="386" height="44" viewBox="0 0 386 44" fill="none" xmlns="http://www.w3.org/2000/svg">
<path fill-rule="evenodd" clip-rule="evenodd" d="M20.8751 43.4611L1.2536 34.4025C-0.417865 33.6117 -0.417865 32.3895 1.2536 31.6706L8.08479 28.5073L20.8024 34.4025C22.4739 35.1934 25.1628 35.1934 26.7616 34.4025L39.4792 28.5073L46.3104 31.6706C47.9818 32.4614 47.9818 33.6836 46.3104 34.4025L26.6889 43.4611C25.1628 44.18 22.4739 44.18 20.8751 43.4611Z" fill="#FF6F3D"/>
<path fill-rule="evenodd" clip-rule="evenodd" d="M20.8115 32.2512L1.24978 23.1821C-0.416592 22.3904 -0.416592 21.1668 1.24978 20.447L7.91526 17.3521L20.8115 23.3261C22.4779 24.1178 25.1586 24.1178 26.7525 23.3261L39.6487 17.3521L46.3142 20.447C47.9806 21.2388 47.9806 22.4624 46.3142 23.1821L26.7525 32.2512C25.0861 33.0429 22.4054 33.0429 20.8115 32.2512Z" fill="#95C038"/>
<path fill-rule="evenodd" clip-rule="evenodd" d="M20.8115 21.1581L1.24978 12.2195C-0.416592 11.4392 -0.416592 10.2332 1.24978 9.52379L20.8115 0.585261C22.4779 -0.195087 25.1586 -0.195087 26.7525 0.585261L46.3142 9.52379C47.9806 10.3041 47.9806 11.5101 46.3142 12.2195L26.7525 21.1581C25.0861 21.8675 22.4054 21.8675 20.8115 21.1581Z" fill="#5DC0E8"/>
<path fill-rule="evenodd" clip-rule="evenodd" d="M312.92 31.1631C314.33 30.0754 315.035 28.5597 315.035 26.616C315.035 25.1054 314.597 23.8767 313.72 22.93C312.854 21.9833 311.263 21.0971 308.947 20.2712C307.567 19.7777 306.54 19.3296 305.865 18.9267C305.2 18.5138 304.727 18.0657 304.445 17.5822C304.163 17.0888 304.022 16.4593 304.022 15.6939C304.022 14.6566 304.405 13.8459 305.17 13.2617C305.936 12.6776 306.998 12.3856 308.358 12.3856C310.08 12.3856 311.852 12.7683 313.675 13.5337L314.476 11.2979C312.633 10.4922 310.614 10.0894 308.418 10.0894C306.313 10.0894 304.621 10.5929 303.342 11.6C302.063 12.6071 301.424 13.9617 301.424 15.6637C301.424 17.2851 301.862 18.5994 302.738 19.6065C303.624 20.6136 305.095 21.4848 307.149 22.22C308.619 22.7437 309.712 23.212 310.427 23.6249C311.152 24.0378 311.666 24.491 311.968 24.9845C312.28 25.4679 312.436 26.0923 312.436 26.8577C312.436 28.0159 312.003 28.9223 311.137 29.5769C310.271 30.2215 308.982 30.5437 307.27 30.5437C306.223 30.5437 305.165 30.433 304.098 30.2114C303.03 29.9898 302.043 29.6877 301.137 29.305V31.7825C302.547 32.4572 304.561 32.7946 307.179 32.7946C309.596 32.7946 311.51 32.2508 312.92 31.1631ZM262.138 29.6071C264.122 27.6735 265.114 24.8838 265.114 21.2381C265.114 17.824 264.162 15.1652 262.259 13.2617C260.355 11.3583 257.687 10.4066 254.252 10.4066H247.485V32.4925H253.603C257.319 32.4925 260.164 31.5307 262.138 29.6071ZM260.219 14.8177C261.67 16.278 262.395 18.4484 262.395 21.3287C262.395 24.2795 261.624 26.5103 260.083 28.0209C258.543 29.5215 256.241 30.2718 253.18 30.2718H250.053V12.6273H253.784C256.634 12.6273 258.779 13.3574 260.219 14.8177ZM281.618 30.5286C282.978 29.0079 283.658 26.898 283.658 24.199C283.658 21.5704 282.973 19.4857 281.603 17.9448C280.244 16.4039 278.406 15.6335 276.089 15.6335C273.692 15.6335 271.819 16.3888 270.47 17.8995C269.12 19.4001 268.445 21.4999 268.445 24.199C268.445 25.9412 268.758 27.462 269.382 28.7612C270.006 30.0603 270.893 31.0574 272.041 31.7523C273.189 32.4472 274.503 32.7946 275.984 32.7946C278.38 32.7946 280.259 32.0393 281.618 30.5286ZM272.313 29.0331C271.467 27.9253 271.044 26.3139 271.044 24.199C271.044 22.0639 271.462 20.4575 272.298 19.3799C273.133 18.3023 274.372 17.7635 276.014 17.7635C277.675 17.7635 278.929 18.3124 279.775 19.4101C280.631 20.4978 281.059 22.0941 281.059 24.199C281.059 26.324 280.631 27.9404 279.775 29.0482C278.929 30.1459 277.686 30.6948 276.044 30.6948C274.402 30.6948 273.159 30.1409 272.313 29.0331ZM294.376 32.7946C291.979 32.7946 290.121 32.0594 288.802 30.5891C287.493 29.1086 286.838 27.0189 286.838 24.3198C286.838 21.5503 287.503 19.4101 288.832 17.8995C290.171 16.3888 292.075 15.6335 294.542 15.6335C295.338 15.6335 296.134 15.7191 296.929 15.8903C297.725 16.0615 298.349 16.2629 298.802 16.4946L298.032 18.6246C297.478 18.403 296.874 18.2218 296.219 18.0808C295.565 17.9297 294.985 17.8542 294.482 17.8542C291.118 17.8542 289.436 19.9993 289.436 24.2896C289.436 26.324 289.844 27.885 290.66 28.9726C291.486 30.0603 292.704 30.6042 294.316 30.6042C295.695 30.6042 297.11 30.3071 298.561 29.7129V31.9335C297.453 32.5076 296.058 32.7946 294.376 32.7946ZM326.569 32.7946C325.491 32.7946 324.504 32.5982 323.608 32.2055C322.722 31.8026 321.977 31.1883 321.372 30.3625H321.191C321.312 31.3293 321.372 32.2458 321.372 33.1119V39.925H318.865V15.9356H320.904L321.251 18.2016H321.372C322.017 17.2952 322.767 16.6406 323.623 16.2378C324.479 15.8349 325.461 15.6335 326.569 15.6335C328.764 15.6335 330.456 16.3838 331.645 17.8844C332.843 19.385 333.443 21.4898 333.443 24.199C333.443 26.9181 332.833 29.0331 331.615 30.5437C330.406 32.0443 328.724 32.7946 326.569 32.7946ZM326.206 17.7635C324.514 17.7635 323.291 18.2318 322.536 19.1684C321.78 20.1051 321.392 21.5956 321.372 23.64V24.199C321.372 26.5254 321.76 28.1921 322.536 29.1992C323.311 30.1963 324.555 30.6948 326.267 30.6948C327.697 30.6948 328.815 30.1157 329.621 28.9575C330.436 27.7994 330.844 26.2031 330.844 24.1687C330.844 22.1042 330.436 20.523 329.621 19.4253C328.815 18.3174 327.677 17.7635 326.206 17.7635ZM347.212 30.1359L347.711 32.4925H349.569V21.1927C349.569 19.2591 349.091 17.8542 348.134 16.978C347.187 16.1018 345.727 15.6637 343.753 15.6637C342.776 15.6637 341.799 15.7896 340.822 16.0414C339.856 16.2931 338.964 16.6406 338.149 17.0837L338.919 19.0023C340.661 18.1563 342.222 17.7333 343.602 17.7333C344.831 17.7333 345.722 18.0455 346.276 18.6699C346.84 19.2843 347.122 20.241 347.122 21.5402V22.5674L344.312 22.6581C338.964 22.8192 336.29 24.5716 336.29 27.9152C336.29 29.4762 336.754 30.6797 337.68 31.5257C338.617 32.3716 339.906 32.7946 341.548 32.7946C342.776 32.7946 343.798 32.6133 344.614 32.2508C345.44 31.8782 346.266 31.1732 347.092 30.1359H347.212ZM345.717 29.441C344.831 30.297 343.607 30.725 342.046 30.725C341.059 30.725 340.289 30.4883 339.735 30.015C339.191 29.5417 338.919 28.8518 338.919 27.9454C338.919 26.7872 339.357 25.9362 340.233 25.3924C341.12 24.8385 342.56 24.5263 344.554 24.4558L347.061 24.35V25.8456C347.061 27.3865 346.613 28.5849 345.717 29.441ZM361.058 32.7946C358.661 32.7946 356.803 32.0594 355.484 30.5891C354.174 29.1086 353.52 27.0189 353.52 24.3198C353.52 21.5503 354.185 19.4101 355.514 17.8995C356.853 16.3888 358.757 15.6335 361.224 15.6335C362.02 15.6335 362.815 15.7191 363.611 15.8903C364.407 16.0615 365.031 16.2629 365.484 16.4946L364.714 18.6246C364.16 18.403 363.556 18.2218 362.901 18.0808C362.246 17.9297 361.667 17.8542 361.164 17.8542C357.8 17.8542 356.118 19.9993 356.118 24.2896C356.118 26.324 356.526 27.885 357.342 28.9726C358.168 30.0603 359.386 30.6042 360.998 30.6042C362.377 30.6042 363.792 30.3071 365.243 29.7129V31.9335C364.135 32.5076 362.74 32.7946 361.058 32.7946ZM370.069 30.5588C371.489 32.0494 373.423 32.7946 375.87 32.7946C376.988 32.7946 377.94 32.709 378.726 32.5378C379.521 32.3767 380.362 32.1048 381.248 31.7221V29.4863C379.506 30.2315 377.744 30.6042 375.961 30.6042C374.269 30.6042 372.955 30.1006 372.018 29.0935C371.092 28.0864 370.603 26.611 370.553 24.6673H381.958V23.0811C381.958 20.8453 381.354 19.0476 380.146 17.688C378.937 16.3183 377.295 15.6335 375.221 15.6335C373.005 15.6335 371.238 16.419 369.918 17.9901C368.609 19.5612 367.955 21.6812 367.955 24.35C367.955 26.9987 368.66 29.0683 370.069 30.5588ZM372.003 19.0325C372.799 18.1664 373.861 17.7333 375.191 17.7333C376.5 17.7333 377.507 18.1563 378.212 19.0023C378.917 19.8382 379.269 21.0467 379.269 22.6279H370.613C370.754 21.0971 371.218 19.8986 372.003 19.0325ZM58.6641 21.8388C58.6641 13.9193 64.0632 10.6767 69.5575 10.6767C75.0519 10.6767 80.451 13.9193 80.451 21.8388C80.451 29.7582 75.0519 33.0008 69.5575 33.0008C64.0632 33.0008 58.6641 29.7582 58.6641 21.8388ZM75.6871 21.8388C75.6871 14.4493 71.2408 13.7946 69.5575 13.7946C67.8743 13.7946 63.428 14.4493 63.428 21.8388C63.428 29.2282 67.8743 29.8829 69.5575 29.8829C71.2408 29.8829 75.6871 29.2282 75.6871 21.8388ZM88.6248 32.7514H84.115V10.9261H89.9587L97.6445 24.676L98.8196 27.638H98.9148L98.8196 23.7718V10.9261H103.329V32.7514H97.4857L89.7364 18.4714L88.6248 16.0395H88.5295L88.6248 19.9057V32.7514ZM107.779 32.7514H121.118V29.0723H112.289V10.9261H107.779V32.7514ZM125.501 23.8342L117.307 10.9261H122.516L127.089 18.5961L127.788 20.0927H127.883L128.645 18.5961L133.25 10.9261H138.014L130.011 23.8966V32.7514H125.501V23.8342ZM148.522 10.6767C143.027 10.6767 137.628 13.9193 137.628 21.8388C137.628 29.7582 143.027 33.0008 148.522 33.0008C154.016 33.0008 159.415 29.7582 159.415 21.8388C159.415 13.9193 154.016 10.6767 148.522 10.6767ZM148.522 13.7946C150.205 13.7946 154.651 14.4493 154.651 21.8388C154.651 29.2282 150.205 29.8829 148.522 29.8829C146.838 29.8829 142.392 29.2282 142.392 21.8388C142.392 14.4493 146.838 13.7946 148.522 13.7946ZM167.589 32.7514H163.079V10.9261H175.529V14.6052H167.589V19.9057H175.148V23.4912H167.589V32.7514ZM178.711 32.7514H183.221V23.4912H190.779V19.9057H183.221V14.6052H191.16V10.9261H178.711V32.7514ZM198.852 32.7514H194.342V10.9261H198.852V32.7514ZM219.535 28.3552C218.423 28.854 216.867 29.3217 214.898 29.3217C210.896 29.3217 207.276 27.1704 207.276 21.9011C207.276 17.4425 210.229 14.3558 215.215 14.3558C216.899 14.3558 218.328 14.6676 219.63 15.1665L219.82 11.425C218.137 10.8949 216.645 10.6767 214.898 10.6767C207.911 10.6767 202.512 14.4493 202.512 21.9635C202.512 29.9141 208.546 33.0008 214.072 33.0008C215.851 33.0008 217.851 32.7202 219.82 32.0655L219.535 28.3552ZM236.586 32.7514H223.31V10.9261H236.586V14.7923H227.82V19.7186H235.792V23.3042H227.82V28.8852H236.586V32.7514Z" fill="#333333"/>
</svg>
