<svg width="192" height="192" viewBox="0 0 192 192" fill="none" xmlns="http://www.w3.org/2000/svg">
<path fill-rule="evenodd" clip-rule="evenodd" d="M18 20C12.4772 20 8 24.4772 8 30V174C8 179.523 12.4772 184 18 184H174C179.523 184 184 179.523 184 174V30C184 24.4772 179.523 20 174 20H18Z" fill="white"/>
<path d="M10 30C10 24.0825 15.0002 22 17.5201 22L174 22C179.969 22 182 26.1694 182 30V54H10V30Z" fill="#BDECFF"/>
<path fill-rule="evenodd" clip-rule="evenodd" d="M174 22H18C13.5817 22 10 25.5817 10 30V174C10 178.418 13.5817 182 18 182H174C178.418 182 182 178.418 182 174V30C182 25.5817 178.418 22 174 22ZM18 20C12.4772 20 8 24.4772 8 30V174C8 179.523 12.4772 184 18 184H174C179.523 184 184 179.523 184 174V30C184 24.4772 179.523 20 174 20H18Z" fill="#333333"/>
<path fill-rule="evenodd" clip-rule="evenodd" d="M24 47C24 46.4477 24.4779 46 25.0673 46H166.933C167.522 46 168 46.4477 168 47C168 47.5523 167.522 48 166.933 48H25.0673C24.4779 48 24 47.5523 24 47Z" fill="#333333"/>
<path fill-rule="evenodd" clip-rule="evenodd" d="M54 11.0976C54 10.4914 53.5523 10 53 10C52.4477 10 52 10.4914 52 11.0976L52 32.9024C52 33.5086 52.4477 34 53 34C53.5523 34 54 33.5086 54 32.9024L54 11.0976ZM60 11.0976C60 10.4914 59.5523 10 59 10C58.4477 10 58 10.4914 58 11.0976V32.9024C58 33.5086 58.4477 34 59 34C59.5523 34 60 33.5086 60 32.9024V11.0976ZM133 10C133.552 10 134 10.4847 134 11.0827V32.9173C134 33.5153 133.552 34 133 34C132.448 34 132 33.5153 132 32.9173V11.0827C132 10.4847 132.448 10 133 10ZM140 11.0827C140 10.4847 139.552 10 139 10C138.448 10 138 10.4847 138 11.0827V32.9173C138 33.5153 138.448 34 139 34C139.552 34 140 33.5153 140 32.9173V11.0827Z" fill="#333333"/>
<mask id="path-6-inside-1" fill="white">
<path fill-rule="evenodd" clip-rule="evenodd" d="M91.7455 83.5675C91.7455 80.2464 94.4356 77.5542 97.7539 77.5542C101.072 77.5542 103.762 80.2464 103.762 83.5675C103.762 86.8885 101.072 89.5808 97.7539 89.5808C94.4356 89.5808 91.7455 86.8885 91.7455 83.5675ZM91.7451 101.061C91.7451 97.7397 94.4352 95.0474 97.7535 95.0474C101.072 95.0474 103.762 97.7397 103.762 101.061C103.762 104.382 101.072 107.074 97.7535 107.074C94.4352 107.074 91.7451 104.382 91.7451 101.061ZM97.7535 112.541C94.4352 112.541 91.7451 115.233 91.7451 118.554C91.7451 121.875 94.4352 124.567 97.7535 124.567C101.072 124.567 103.762 121.875 103.762 118.554C103.762 115.233 101.072 112.541 97.7535 112.541ZM91.7451 136.047C91.7451 132.726 94.4352 130.034 97.7535 130.034C101.072 130.034 103.762 132.726 103.762 136.047C103.762 139.368 101.072 142.061 97.7535 142.061C94.4352 142.061 91.7451 139.368 91.7451 136.047ZM97.7535 147.528C94.4352 147.528 91.7451 150.22 91.7451 153.541C91.7451 156.862 94.4352 159.554 97.7535 159.554C101.072 159.554 103.762 156.862 103.762 153.541C103.762 150.22 101.072 147.528 97.7535 147.528ZM52.418 101.061C52.418 97.7397 55.108 95.0474 58.4264 95.0474C61.7447 95.0474 64.4348 97.7397 64.4348 101.061C64.4348 104.382 61.7447 107.074 58.4264 107.074C55.108 107.074 52.418 104.382 52.418 101.061ZM58.4264 112.541C55.108 112.541 52.418 115.233 52.418 118.554C52.418 121.875 55.108 124.567 58.4264 124.567C61.7447 124.567 64.4348 121.875 64.4348 118.554C64.4348 115.233 61.7447 112.541 58.4264 112.541ZM52.418 136.047C52.418 132.726 55.108 130.034 58.4264 130.034C61.7447 130.034 64.4348 132.726 64.4348 136.047C64.4348 139.368 61.7447 142.061 58.4264 142.061C55.108 142.061 52.418 139.368 52.418 136.047ZM58.4264 147.528C55.108 147.528 52.418 150.22 52.418 153.541C52.418 156.862 55.108 159.554 58.4264 159.554C61.7447 159.554 64.4348 156.862 64.4348 153.541C64.4348 150.22 61.7447 147.528 58.4264 147.528ZM131.073 83.5675C131.073 80.2464 133.763 77.5542 137.081 77.5542C140.4 77.5542 143.09 80.2464 143.09 83.5675C143.09 86.8885 140.4 89.5808 137.081 89.5808C133.763 89.5808 131.073 86.8885 131.073 83.5675ZM137.082 95.0474C133.763 95.0474 131.073 97.7397 131.073 101.061C131.073 104.382 133.763 107.074 137.082 107.074C140.4 107.074 143.09 104.382 143.09 101.061C143.09 97.7397 140.4 95.0474 137.082 95.0474ZM131.073 118.554C131.073 115.233 133.763 112.541 137.082 112.541C140.4 112.541 143.09 115.233 143.09 118.554C143.09 121.875 140.4 124.567 137.082 124.567C133.763 124.567 131.073 121.875 131.073 118.554ZM137.082 130.034C133.763 130.034 131.073 132.726 131.073 136.047C131.073 139.368 133.763 142.061 137.082 142.061C140.4 142.061 143.09 139.368 143.09 136.047C143.09 132.726 140.4 130.034 137.082 130.034ZM32.7539 101.061C32.7539 97.7397 35.444 95.0474 38.7623 95.0474C42.0807 95.0474 44.7707 97.7397 44.7707 101.061C44.7707 104.382 42.0807 107.074 38.7623 107.074C35.444 107.074 32.7539 104.382 32.7539 101.061ZM38.7623 112.541C35.444 112.541 32.7539 115.233 32.7539 118.554C32.7539 121.875 35.444 124.567 38.7623 124.567C42.0806 124.567 44.7707 121.875 44.7707 118.554C44.7707 115.233 42.0806 112.541 38.7623 112.541ZM32.7539 136.047C32.7539 132.726 35.444 130.034 38.7623 130.034C42.0806 130.034 44.7707 132.726 44.7707 136.047C44.7707 139.368 42.0806 142.061 38.7623 142.061C35.444 142.061 32.7539 139.368 32.7539 136.047ZM38.7623 147.528C35.444 147.528 32.7539 150.22 32.7539 153.541C32.7539 156.862 35.444 159.554 38.7623 159.554C42.0806 159.554 44.7707 156.862 44.7707 153.541C44.7707 150.22 42.0806 147.528 38.7623 147.528ZM111.41 83.5675C111.41 80.2464 114.1 77.5542 117.418 77.5542C120.736 77.5542 123.426 80.2464 123.426 83.5675C123.426 86.8885 120.736 89.5808 117.418 89.5808C114.1 89.5808 111.41 86.8885 111.41 83.5675ZM117.419 95.0474C114.1 95.0474 111.41 97.7397 111.41 101.061C111.41 104.382 114.1 107.074 117.419 107.074C120.737 107.074 123.427 104.382 123.427 101.061C123.427 97.7397 120.737 95.0474 117.419 95.0474ZM111.41 118.554C111.41 115.233 114.1 112.541 117.419 112.541C120.737 112.541 123.427 115.233 123.427 118.554C123.427 121.875 120.737 124.567 117.419 124.567C114.1 124.567 111.41 121.875 111.41 118.554ZM117.419 130.034C114.1 130.034 111.41 132.726 111.41 136.047C111.41 139.368 114.1 142.061 117.419 142.061C120.737 142.061 123.427 139.368 123.427 136.047C123.427 132.726 120.737 130.034 117.419 130.034ZM111.41 153.541C111.41 150.22 114.1 147.528 117.419 147.528C120.737 147.528 123.427 150.22 123.427 153.541C123.427 156.862 120.737 159.554 117.419 159.554C114.1 159.554 111.41 156.862 111.41 153.541ZM78.0894 112.541C74.7711 112.541 72.0811 115.233 72.0811 118.554C72.0811 121.875 74.7711 124.567 78.0894 124.567C81.4078 124.567 84.0978 121.875 84.0978 118.554C84.0978 115.233 81.4078 112.541 78.0894 112.541ZM72.0811 136.047C72.0811 132.726 74.7711 130.034 78.0894 130.034C81.4078 130.034 84.0978 132.726 84.0978 136.047C84.0978 139.368 81.4078 142.061 78.0894 142.061C74.7711 142.061 72.0811 139.368 72.0811 136.047ZM78.0894 147.528C74.7711 147.528 72.0811 150.22 72.0811 153.541C72.0811 156.862 74.7711 159.554 78.0894 159.554C81.4078 159.554 84.0978 156.862 84.0978 153.541C84.0978 150.22 81.4078 147.528 78.0894 147.528ZM150.737 83.5675C150.737 80.2464 153.427 77.5542 156.746 77.5542C160.064 77.5542 162.754 80.2464 162.754 83.5675C162.754 86.8885 160.064 89.5808 156.746 89.5808C153.427 89.5808 150.737 86.8885 150.737 83.5675ZM156.746 95.0474C153.427 95.0474 150.737 97.7397 150.737 101.061C150.737 104.382 153.427 107.074 156.746 107.074C160.064 107.074 162.754 104.382 162.754 101.061C162.754 97.7397 160.064 95.0474 156.746 95.0474ZM150.737 118.554C150.737 115.233 153.427 112.541 156.746 112.541C160.064 112.541 162.754 115.233 162.754 118.554C162.754 121.875 160.064 124.567 156.746 124.567C153.427 124.567 150.737 121.875 150.737 118.554ZM156.746 130.034C153.427 130.034 150.737 132.726 150.737 136.047C150.737 139.368 153.427 142.061 156.746 142.061C160.064 142.061 162.754 139.368 162.754 136.047C162.754 132.726 160.064 130.034 156.746 130.034Z"/>
</mask>
<path fill-rule="evenodd" clip-rule="evenodd" d="M91.7455 83.5675C91.7455 80.2464 94.4356 77.5542 97.7539 77.5542C101.072 77.5542 103.762 80.2464 103.762 83.5675C103.762 86.8885 101.072 89.5808 97.7539 89.5808C94.4356 89.5808 91.7455 86.8885 91.7455 83.5675ZM91.7451 101.061C91.7451 97.7397 94.4352 95.0474 97.7535 95.0474C101.072 95.0474 103.762 97.7397 103.762 101.061C103.762 104.382 101.072 107.074 97.7535 107.074C94.4352 107.074 91.7451 104.382 91.7451 101.061ZM97.7535 112.541C94.4352 112.541 91.7451 115.233 91.7451 118.554C91.7451 121.875 94.4352 124.567 97.7535 124.567C101.072 124.567 103.762 121.875 103.762 118.554C103.762 115.233 101.072 112.541 97.7535 112.541ZM91.7451 136.047C91.7451 132.726 94.4352 130.034 97.7535 130.034C101.072 130.034 103.762 132.726 103.762 136.047C103.762 139.368 101.072 142.061 97.7535 142.061C94.4352 142.061 91.7451 139.368 91.7451 136.047ZM97.7535 147.528C94.4352 147.528 91.7451 150.22 91.7451 153.541C91.7451 156.862 94.4352 159.554 97.7535 159.554C101.072 159.554 103.762 156.862 103.762 153.541C103.762 150.22 101.072 147.528 97.7535 147.528ZM52.418 101.061C52.418 97.7397 55.108 95.0474 58.4264 95.0474C61.7447 95.0474 64.4348 97.7397 64.4348 101.061C64.4348 104.382 61.7447 107.074 58.4264 107.074C55.108 107.074 52.418 104.382 52.418 101.061ZM58.4264 112.541C55.108 112.541 52.418 115.233 52.418 118.554C52.418 121.875 55.108 124.567 58.4264 124.567C61.7447 124.567 64.4348 121.875 64.4348 118.554C64.4348 115.233 61.7447 112.541 58.4264 112.541ZM52.418 136.047C52.418 132.726 55.108 130.034 58.4264 130.034C61.7447 130.034 64.4348 132.726 64.4348 136.047C64.4348 139.368 61.7447 142.061 58.4264 142.061C55.108 142.061 52.418 139.368 52.418 136.047ZM58.4264 147.528C55.108 147.528 52.418 150.22 52.418 153.541C52.418 156.862 55.108 159.554 58.4264 159.554C61.7447 159.554 64.4348 156.862 64.4348 153.541C64.4348 150.22 61.7447 147.528 58.4264 147.528ZM131.073 83.5675C131.073 80.2464 133.763 77.5542 137.081 77.5542C140.4 77.5542 143.09 80.2464 143.09 83.5675C143.09 86.8885 140.4 89.5808 137.081 89.5808C133.763 89.5808 131.073 86.8885 131.073 83.5675ZM137.082 95.0474C133.763 95.0474 131.073 97.7397 131.073 101.061C131.073 104.382 133.763 107.074 137.082 107.074C140.4 107.074 143.09 104.382 143.09 101.061C143.09 97.7397 140.4 95.0474 137.082 95.0474ZM131.073 118.554C131.073 115.233 133.763 112.541 137.082 112.541C140.4 112.541 143.09 115.233 143.09 118.554C143.09 121.875 140.4 124.567 137.082 124.567C133.763 124.567 131.073 121.875 131.073 118.554ZM137.082 130.034C133.763 130.034 131.073 132.726 131.073 136.047C131.073 139.368 133.763 142.061 137.082 142.061C140.4 142.061 143.09 139.368 143.09 136.047C143.09 132.726 140.4 130.034 137.082 130.034ZM32.7539 101.061C32.7539 97.7397 35.444 95.0474 38.7623 95.0474C42.0807 95.0474 44.7707 97.7397 44.7707 101.061C44.7707 104.382 42.0807 107.074 38.7623 107.074C35.444 107.074 32.7539 104.382 32.7539 101.061ZM38.7623 112.541C35.444 112.541 32.7539 115.233 32.7539 118.554C32.7539 121.875 35.444 124.567 38.7623 124.567C42.0806 124.567 44.7707 121.875 44.7707 118.554C44.7707 115.233 42.0806 112.541 38.7623 112.541ZM32.7539 136.047C32.7539 132.726 35.444 130.034 38.7623 130.034C42.0806 130.034 44.7707 132.726 44.7707 136.047C44.7707 139.368 42.0806 142.061 38.7623 142.061C35.444 142.061 32.7539 139.368 32.7539 136.047ZM38.7623 147.528C35.444 147.528 32.7539 150.22 32.7539 153.541C32.7539 156.862 35.444 159.554 38.7623 159.554C42.0806 159.554 44.7707 156.862 44.7707 153.541C44.7707 150.22 42.0806 147.528 38.7623 147.528ZM111.41 83.5675C111.41 80.2464 114.1 77.5542 117.418 77.5542C120.736 77.5542 123.426 80.2464 123.426 83.5675C123.426 86.8885 120.736 89.5808 117.418 89.5808C114.1 89.5808 111.41 86.8885 111.41 83.5675ZM117.419 95.0474C114.1 95.0474 111.41 97.7397 111.41 101.061C111.41 104.382 114.1 107.074 117.419 107.074C120.737 107.074 123.427 104.382 123.427 101.061C123.427 97.7397 120.737 95.0474 117.419 95.0474ZM111.41 118.554C111.41 115.233 114.1 112.541 117.419 112.541C120.737 112.541 123.427 115.233 123.427 118.554C123.427 121.875 120.737 124.567 117.419 124.567C114.1 124.567 111.41 121.875 111.41 118.554ZM117.419 130.034C114.1 130.034 111.41 132.726 111.41 136.047C111.41 139.368 114.1 142.061 117.419 142.061C120.737 142.061 123.427 139.368 123.427 136.047C123.427 132.726 120.737 130.034 117.419 130.034ZM111.41 153.541C111.41 150.22 114.1 147.528 117.419 147.528C120.737 147.528 123.427 150.22 123.427 153.541C123.427 156.862 120.737 159.554 117.419 159.554C114.1 159.554 111.41 156.862 111.41 153.541ZM78.0894 112.541C74.7711 112.541 72.0811 115.233 72.0811 118.554C72.0811 121.875 74.7711 124.567 78.0894 124.567C81.4078 124.567 84.0978 121.875 84.0978 118.554C84.0978 115.233 81.4078 112.541 78.0894 112.541ZM72.0811 136.047C72.0811 132.726 74.7711 130.034 78.0894 130.034C81.4078 130.034 84.0978 132.726 84.0978 136.047C84.0978 139.368 81.4078 142.061 78.0894 142.061C74.7711 142.061 72.0811 139.368 72.0811 136.047ZM78.0894 147.528C74.7711 147.528 72.0811 150.22 72.0811 153.541C72.0811 156.862 74.7711 159.554 78.0894 159.554C81.4078 159.554 84.0978 156.862 84.0978 153.541C84.0978 150.22 81.4078 147.528 78.0894 147.528ZM150.737 83.5675C150.737 80.2464 153.427 77.5542 156.746 77.5542C160.064 77.5542 162.754 80.2464 162.754 83.5675C162.754 86.8885 160.064 89.5808 156.746 89.5808C153.427 89.5808 150.737 86.8885 150.737 83.5675ZM156.746 95.0474C153.427 95.0474 150.737 97.7397 150.737 101.061C150.737 104.382 153.427 107.074 156.746 107.074C160.064 107.074 162.754 104.382 162.754 101.061C162.754 97.7397 160.064 95.0474 156.746 95.0474ZM150.737 118.554C150.737 115.233 153.427 112.541 156.746 112.541C160.064 112.541 162.754 115.233 162.754 118.554C162.754 121.875 160.064 124.567 156.746 124.567C153.427 124.567 150.737 121.875 150.737 118.554ZM156.746 130.034C153.427 130.034 150.737 132.726 150.737 136.047C150.737 139.368 153.427 142.061 156.746 142.061C160.064 142.061 162.754 139.368 162.754 136.047C162.754 132.726 160.064 130.034 156.746 130.034Z" fill="#EFEFEF"/>
<path d="M97.7539 76.5542C93.8825 76.5542 90.7455 79.6949 90.7455 83.5675H92.7455C92.7455 80.798 94.9886 78.5542 97.7539 78.5542V76.5542ZM104.762 83.5675C104.762 79.6949 101.625 76.5542 97.7539 76.5542V78.5542C100.519 78.5542 102.762 80.798 102.762 83.5675H104.762ZM97.7539 90.5808C101.625 90.5808 104.762 87.44 104.762 83.5675H102.762C102.762 86.337 100.519 88.5808 97.7539 88.5808V90.5808ZM90.7455 83.5675C90.7455 87.44 93.8825 90.5808 97.7539 90.5808V88.5808C94.9886 88.5808 92.7455 86.337 92.7455 83.5675H90.7455ZM97.7535 94.0474C93.8821 94.0474 90.7451 97.1882 90.7451 101.061H92.7451C92.7451 98.2912 94.9882 96.0474 97.7535 96.0474V94.0474ZM104.762 101.061C104.762 97.1882 101.625 94.0474 97.7535 94.0474V96.0474C100.519 96.0474 102.762 98.2912 102.762 101.061H104.762ZM97.7535 108.074C101.625 108.074 104.762 104.933 104.762 101.061H102.762C102.762 103.83 100.519 106.074 97.7535 106.074V108.074ZM90.7451 101.061C90.7451 104.933 93.8821 108.074 97.7535 108.074V106.074C94.9882 106.074 92.7451 103.83 92.7451 101.061H90.7451ZM92.7451 118.554C92.7451 115.784 94.9882 113.541 97.7535 113.541V111.541C93.8821 111.541 90.7451 114.681 90.7451 118.554H92.7451ZM97.7535 123.567C94.9882 123.567 92.7451 121.323 92.7451 118.554H90.7451C90.7451 122.427 93.8821 125.567 97.7535 125.567V123.567ZM102.762 118.554C102.762 121.323 100.519 123.567 97.7535 123.567V125.567C101.625 125.567 104.762 122.427 104.762 118.554H102.762ZM97.7535 113.541C100.519 113.541 102.762 115.784 102.762 118.554H104.762C104.762 114.681 101.625 111.541 97.7535 111.541V113.541ZM97.7535 129.034C93.8821 129.034 90.7451 132.175 90.7451 136.047H92.7451C92.7451 133.278 94.9882 131.034 97.7535 131.034V129.034ZM104.762 136.047C104.762 132.175 101.625 129.034 97.7535 129.034V131.034C100.519 131.034 102.762 133.278 102.762 136.047H104.762ZM97.7535 143.061C101.625 143.061 104.762 139.92 104.762 136.047H102.762C102.762 138.817 100.519 141.061 97.7535 141.061V143.061ZM90.7451 136.047C90.7451 139.92 93.8821 143.061 97.7535 143.061V141.061C94.9882 141.061 92.7451 138.817 92.7451 136.047H90.7451ZM92.7451 153.541C92.7451 150.771 94.9882 148.528 97.7535 148.528V146.528C93.8821 146.528 90.7451 149.668 90.7451 153.541H92.7451ZM97.7535 158.554C94.9882 158.554 92.7451 156.31 92.7451 153.541H90.7451C90.7451 157.413 93.8821 160.554 97.7535 160.554V158.554ZM102.762 153.541C102.762 156.31 100.519 158.554 97.7535 158.554V160.554C101.625 160.554 104.762 157.413 104.762 153.541H102.762ZM97.7535 148.528C100.519 148.528 102.762 150.771 102.762 153.541H104.762C104.762 149.668 101.625 146.528 97.7535 146.528V148.528ZM58.4264 94.0474C54.555 94.0474 51.418 97.1882 51.418 101.061H53.418C53.418 98.2912 55.6611 96.0474 58.4264 96.0474V94.0474ZM65.4348 101.061C65.4348 97.1882 62.2978 94.0474 58.4264 94.0474V96.0474C61.1917 96.0474 63.4348 98.2912 63.4348 101.061H65.4348ZM58.4264 108.074C62.2978 108.074 65.4348 104.933 65.4348 101.061H63.4348C63.4348 103.83 61.1917 106.074 58.4264 106.074V108.074ZM51.418 101.061C51.418 104.933 54.555 108.074 58.4264 108.074V106.074C55.6611 106.074 53.418 103.83 53.418 101.061H51.418ZM53.418 118.554C53.418 115.784 55.6611 113.541 58.4264 113.541V111.541C54.555 111.541 51.418 114.681 51.418 118.554H53.418ZM58.4264 123.567C55.6611 123.567 53.418 121.323 53.418 118.554H51.418C51.418 122.427 54.555 125.567 58.4264 125.567V123.567ZM63.4348 118.554C63.4348 121.323 61.1917 123.567 58.4264 123.567V125.567C62.2978 125.567 65.4348 122.427 65.4348 118.554H63.4348ZM58.4264 113.541C61.1917 113.541 63.4348 115.784 63.4348 118.554H65.4348C65.4348 114.681 62.2978 111.541 58.4264 111.541V113.541ZM58.4264 129.034C54.555 129.034 51.418 132.175 51.418 136.047H53.418C53.418 133.278 55.6611 131.034 58.4264 131.034V129.034ZM65.4348 136.047C65.4348 132.175 62.2978 129.034 58.4264 129.034V131.034C61.1917 131.034 63.4348 133.278 63.4348 136.047H65.4348ZM58.4264 143.061C62.2978 143.061 65.4348 139.92 65.4348 136.047H63.4348C63.4348 138.817 61.1917 141.061 58.4264 141.061V143.061ZM51.418 136.047C51.418 139.92 54.555 143.061 58.4264 143.061V141.061C55.6611 141.061 53.418 138.817 53.418 136.047H51.418ZM53.418 153.541C53.418 150.771 55.6611 148.528 58.4264 148.528V146.528C54.555 146.528 51.418 149.668 51.418 153.541H53.418ZM58.4264 158.554C55.6611 158.554 53.418 156.31 53.418 153.541H51.418C51.418 157.413 54.555 160.554 58.4264 160.554V158.554ZM63.4348 153.541C63.4348 156.31 61.1917 158.554 58.4264 158.554V160.554C62.2978 160.554 65.4348 157.413 65.4348 153.541H63.4348ZM58.4264 148.528C61.1917 148.528 63.4348 150.771 63.4348 153.541H65.4348C65.4348 149.668 62.2978 146.528 58.4264 146.528V148.528ZM137.081 76.5542C133.21 76.5542 130.073 79.6949 130.073 83.5675H132.073C132.073 80.798 134.316 78.5542 137.081 78.5542V76.5542ZM144.09 83.5675C144.09 79.6949 140.953 76.5542 137.081 76.5542V78.5542C139.847 78.5542 142.09 80.798 142.09 83.5675H144.09ZM137.081 90.5808C140.953 90.5808 144.09 87.44 144.09 83.5675H142.09C142.09 86.337 139.847 88.5808 137.081 88.5808V90.5808ZM130.073 83.5675C130.073 87.44 133.21 90.5808 137.081 90.5808V88.5808C134.316 88.5808 132.073 86.337 132.073 83.5675H130.073ZM132.073 101.061C132.073 98.2912 134.316 96.0474 137.082 96.0474V94.0474C133.21 94.0474 130.073 97.1882 130.073 101.061H132.073ZM137.082 106.074C134.316 106.074 132.073 103.83 132.073 101.061H130.073C130.073 104.933 133.21 108.074 137.082 108.074V106.074ZM142.09 101.061C142.09 103.83 139.847 106.074 137.082 106.074V108.074C140.953 108.074 144.09 104.933 144.09 101.061H142.09ZM137.082 96.0474C139.847 96.0474 142.09 98.2912 142.09 101.061H144.09C144.09 97.1882 140.953 94.0474 137.082 94.0474V96.0474ZM137.082 111.541C133.21 111.541 130.073 114.681 130.073 118.554H132.073C132.073 115.784 134.316 113.541 137.082 113.541V111.541ZM144.09 118.554C144.09 114.681 140.953 111.541 137.082 111.541V113.541C139.847 113.541 142.09 115.784 142.09 118.554H144.09ZM137.082 125.567C140.953 125.567 144.09 122.427 144.09 118.554H142.09C142.09 121.323 139.847 123.567 137.082 123.567V125.567ZM130.073 118.554C130.073 122.427 133.21 125.567 137.082 125.567V123.567C134.316 123.567 132.073 121.323 132.073 118.554H130.073ZM132.073 136.047C132.073 133.278 134.316 131.034 137.082 131.034V129.034C133.21 129.034 130.073 132.175 130.073 136.047H132.073ZM137.082 141.061C134.316 141.061 132.073 138.817 132.073 136.047H130.073C130.073 139.92 133.21 143.061 137.082 143.061V141.061ZM142.09 136.047C142.09 138.817 139.847 141.061 137.082 141.061V143.061C140.953 143.061 144.09 139.92 144.09 136.047H142.09ZM137.082 131.034C139.847 131.034 142.09 133.278 142.09 136.047H144.09C144.09 132.175 140.953 129.034 137.082 129.034V131.034ZM38.7623 94.0474C34.8909 94.0474 31.7539 97.1882 31.7539 101.061H33.7539C33.7539 98.2912 35.997 96.0474 38.7623 96.0474V94.0474ZM45.7707 101.061C45.7707 97.1882 42.6337 94.0474 38.7623 94.0474V96.0474C41.5276 96.0474 43.7707 98.2912 43.7707 101.061H45.7707ZM38.7623 108.074C42.6337 108.074 45.7707 104.933 45.7707 101.061H43.7707C43.7707 103.83 41.5276 106.074 38.7623 106.074V108.074ZM31.7539 101.061C31.7539 104.933 34.8909 108.074 38.7623 108.074V106.074C35.997 106.074 33.7539 103.83 33.7539 101.061H31.7539ZM33.7539 118.554C33.7539 115.784 35.997 113.541 38.7623 113.541V111.541C34.8909 111.541 31.7539 114.681 31.7539 118.554H33.7539ZM38.7623 123.567C35.997 123.567 33.7539 121.323 33.7539 118.554H31.7539C31.7539 122.427 34.8909 125.567 38.7623 125.567V123.567ZM43.7707 118.554C43.7707 121.323 41.5276 123.567 38.7623 123.567V125.567C42.6337 125.567 45.7707 122.427 45.7707 118.554H43.7707ZM38.7623 113.541C41.5276 113.541 43.7707 115.784 43.7707 118.554H45.7707C45.7707 114.681 42.6337 111.541 38.7623 111.541V113.541ZM38.7623 129.034C34.8909 129.034 31.7539 132.175 31.7539 136.047H33.7539C33.7539 133.278 35.997 131.034 38.7623 131.034V129.034ZM45.7707 136.047C45.7707 132.175 42.6337 129.034 38.7623 129.034V131.034C41.5276 131.034 43.7707 133.278 43.7707 136.047H45.7707ZM38.7623 143.061C42.6337 143.061 45.7707 139.92 45.7707 136.047H43.7707C43.7707 138.817 41.5276 141.061 38.7623 141.061V143.061ZM31.7539 136.047C31.7539 139.92 34.8909 143.061 38.7623 143.061V141.061C35.997 141.061 33.7539 138.817 33.7539 136.047H31.7539ZM33.7539 153.541C33.7539 150.771 35.997 148.528 38.7623 148.528V146.528C34.8909 146.528 31.7539 149.668 31.7539 153.541H33.7539ZM38.7623 158.554C35.997 158.554 33.7539 156.31 33.7539 153.541H31.7539C31.7539 157.413 34.8909 160.554 38.7623 160.554V158.554ZM43.7707 153.541C43.7707 156.31 41.5276 158.554 38.7623 158.554V160.554C42.6337 160.554 45.7707 157.413 45.7707 153.541H43.7707ZM38.7623 148.528C41.5276 148.528 43.7707 150.771 43.7707 153.541H45.7707C45.7707 149.668 42.6337 146.528 38.7623 146.528V148.528ZM117.418 76.5542C113.547 76.5542 110.41 79.6949 110.41 83.5675H112.41C112.41 80.798 114.653 78.5542 117.418 78.5542V76.5542ZM124.426 83.5675C124.426 79.6949 121.289 76.5542 117.418 76.5542V78.5542C120.183 78.5542 122.426 80.798 122.426 83.5675H124.426ZM117.418 90.5808C121.289 90.5808 124.426 87.44 124.426 83.5675H122.426C122.426 86.337 120.183 88.5808 117.418 88.5808V90.5808ZM110.41 83.5675C110.41 87.44 113.547 90.5808 117.418 90.5808V88.5808C114.653 88.5808 112.41 86.337 112.41 83.5675H110.41ZM112.41 101.061C112.41 98.2912 114.653 96.0474 117.419 96.0474V94.0474C113.547 94.0474 110.41 97.1882 110.41 101.061H112.41ZM117.419 106.074C114.653 106.074 112.41 103.83 112.41 101.061H110.41C110.41 104.933 113.547 108.074 117.419 108.074V106.074ZM122.427 101.061C122.427 103.83 120.184 106.074 117.419 106.074V108.074C121.29 108.074 124.427 104.933 124.427 101.061H122.427ZM117.419 96.0474C120.184 96.0474 122.427 98.2912 122.427 101.061H124.427C124.427 97.1882 121.29 94.0474 117.419 94.0474V96.0474ZM117.419 111.541C113.547 111.541 110.41 114.681 110.41 118.554H112.41C112.41 115.784 114.653 113.541 117.419 113.541V111.541ZM124.427 118.554C124.427 114.681 121.29 111.541 117.419 111.541V113.541C120.184 113.541 122.427 115.784 122.427 118.554H124.427ZM117.419 125.567C121.29 125.567 124.427 122.427 124.427 118.554H122.427C122.427 121.323 120.184 123.567 117.419 123.567V125.567ZM110.41 118.554C110.41 122.427 113.547 125.567 117.419 125.567V123.567C114.653 123.567 112.41 121.323 112.41 118.554H110.41ZM112.41 136.047C112.41 133.278 114.653 131.034 117.419 131.034V129.034C113.547 129.034 110.41 132.175 110.41 136.047H112.41ZM117.419 141.061C114.653 141.061 112.41 138.817 112.41 136.047H110.41C110.41 139.92 113.547 143.061 117.419 143.061V141.061ZM122.427 136.047C122.427 138.817 120.184 141.061 117.419 141.061V143.061C121.29 143.061 124.427 139.92 124.427 136.047H122.427ZM117.419 131.034C120.184 131.034 122.427 133.278 122.427 136.047H124.427C124.427 132.175 121.29 129.034 117.419 129.034V131.034ZM117.419 146.528C113.547 146.528 110.41 149.668 110.41 153.541H112.41C112.41 150.771 114.653 148.528 117.419 148.528V146.528ZM124.427 153.541C124.427 149.668 121.29 146.528 117.419 146.528V148.528C120.184 148.528 122.427 150.771 122.427 153.541H124.427ZM117.419 160.554C121.29 160.554 124.427 157.413 124.427 153.541H122.427C122.427 156.31 120.184 158.554 117.419 158.554V160.554ZM110.41 153.541C110.41 157.413 113.547 160.554 117.419 160.554V158.554C114.653 158.554 112.41 156.31 112.41 153.541H110.41ZM73.0811 118.554C73.0811 115.784 75.3242 113.541 78.0894 113.541V111.541C74.2181 111.541 71.0811 114.681 71.0811 118.554H73.0811ZM78.0894 123.567C75.3242 123.567 73.0811 121.323 73.0811 118.554H71.0811C71.0811 122.427 74.2181 125.567 78.0894 125.567V123.567ZM83.0978 118.554C83.0978 121.323 80.8547 123.567 78.0894 123.567V125.567C81.9608 125.567 85.0978 122.427 85.0978 118.554H83.0978ZM78.0894 113.541C80.8547 113.541 83.0978 115.784 83.0978 118.554H85.0978C85.0978 114.681 81.9608 111.541 78.0894 111.541V113.541ZM78.0894 129.034C74.218 129.034 71.0811 132.175 71.0811 136.047H73.0811C73.0811 133.278 75.3242 131.034 78.0894 131.034V129.034ZM85.0978 136.047C85.0978 132.175 81.9608 129.034 78.0894 129.034V131.034C80.8547 131.034 83.0978 133.278 83.0978 136.047H85.0978ZM78.0894 143.061C81.9608 143.061 85.0978 139.92 85.0978 136.047H83.0978C83.0978 138.817 80.8547 141.061 78.0894 141.061V143.061ZM71.0811 136.047C71.0811 139.92 74.218 143.061 78.0894 143.061V141.061C75.3242 141.061 73.0811 138.817 73.0811 136.047H71.0811ZM73.0811 153.541C73.0811 150.771 75.3242 148.528 78.0894 148.528V146.528C74.2181 146.528 71.0811 149.668 71.0811 153.541H73.0811ZM78.0894 158.554C75.3242 158.554 73.0811 156.31 73.0811 153.541H71.0811C71.0811 157.413 74.2181 160.554 78.0894 160.554V158.554ZM83.0978 153.541C83.0978 156.31 80.8547 158.554 78.0894 158.554V160.554C81.9608 160.554 85.0978 157.413 85.0978 153.541H83.0978ZM78.0894 148.528C80.8547 148.528 83.0978 150.771 83.0978 153.541H85.0978C85.0978 149.668 81.9608 146.528 78.0894 146.528V148.528ZM156.746 76.5542C152.874 76.5542 149.737 79.6949 149.737 83.5675H151.737C151.737 80.798 153.98 78.5542 156.746 78.5542V76.5542ZM163.754 83.5675C163.754 79.6949 160.617 76.5542 156.746 76.5542V78.5542C159.511 78.5542 161.754 80.798 161.754 83.5675H163.754ZM156.746 90.5808C160.617 90.5808 163.754 87.44 163.754 83.5675H161.754C161.754 86.337 159.511 88.5808 156.746 88.5808V90.5808ZM149.737 83.5675C149.737 87.44 152.874 90.5808 156.746 90.5808V88.5808C153.98 88.5808 151.737 86.337 151.737 83.5675H149.737ZM151.737 101.061C151.737 98.2912 153.98 96.0474 156.746 96.0474V94.0474C152.874 94.0474 149.737 97.1882 149.737 101.061H151.737ZM156.746 106.074C153.98 106.074 151.737 103.83 151.737 101.061H149.737C149.737 104.933 152.874 108.074 156.746 108.074V106.074ZM161.754 101.061C161.754 103.83 159.511 106.074 156.746 106.074V108.074C160.617 108.074 163.754 104.933 163.754 101.061H161.754ZM156.746 96.0474C159.511 96.0474 161.754 98.2912 161.754 101.061H163.754C163.754 97.1882 160.617 94.0474 156.746 94.0474V96.0474ZM156.746 111.541C152.874 111.541 149.737 114.681 149.737 118.554H151.737C151.737 115.784 153.98 113.541 156.746 113.541V111.541ZM163.754 118.554C163.754 114.681 160.617 111.541 156.746 111.541V113.541C159.511 113.541 161.754 115.784 161.754 118.554H163.754ZM156.746 125.567C160.617 125.567 163.754 122.427 163.754 118.554H161.754C161.754 121.323 159.511 123.567 156.746 123.567V125.567ZM149.737 118.554C149.737 122.427 152.874 125.567 156.746 125.567V123.567C153.98 123.567 151.737 121.323 151.737 118.554H149.737ZM151.737 136.047C151.737 133.278 153.98 131.034 156.746 131.034V129.034C152.874 129.034 149.737 132.175 149.737 136.047H151.737ZM156.746 141.061C153.98 141.061 151.737 138.817 151.737 136.047H149.737C149.737 139.92 152.874 143.061 156.746 143.061V141.061ZM161.754 136.047C161.754 138.817 159.511 141.061 156.746 141.061V143.061C160.617 143.061 163.754 139.92 163.754 136.047H161.754ZM156.746 131.034C159.511 131.034 161.754 133.278 161.754 136.047H163.754C163.754 132.175 160.617 129.034 156.746 129.034V131.034Z" fill="#333333" mask="url(#path-6-inside-1)"/>
<path d="M72 101.091C72 97.7771 74.6863 95.0908 78 95.0908C81.3137 95.0908 84 97.7771 84 101.091C84 104.405 81.3137 107.091 78 107.091C74.6863 107.091 72 104.405 72 101.091Z" fill="url(#paint0_linear)"/>
<defs>
<linearGradient id="paint0_linear" x1="72" y1="94.6221" x2="84" y2="107.091" gradientUnits="userSpaceOnUse">
<stop stop-color="#FFC671"/>
<stop offset="0.59375" stop-color="#FF7541"/>
<stop offset="1" stop-color="#FF6F3D"/>
</linearGradient>
</defs>
</svg>
