<svg width="20" height="20" viewBox="0 0 20 20" fill="none" xmlns="http://www.w3.org/2000/svg">
<path fill-rule="evenodd" clip-rule="evenodd" d="M5 1V2H15V1C15 0.447715 15.4477 0 16 0C16.5523 0 17 0.447715 17 1V2H19C19.5523 2 20 2.44772 20 3V6H0V3C0 2.44772 0.447715 2 1 2H3V1C3 0.447715 3.44772 0 4 0C4.55228 0 5 0.447715 5 1ZM2 10V8H0V10H2ZM3 10V8H5V10H3ZM6 8H8V10H6V8ZM11 8H9V10H11V8ZM12 8H14V10H12V8ZM17 10V8H15V10H17ZM18 10V8H20V10H18ZM2 13V11H0V13H2ZM3 13V11H5V13H3ZM6 11H8V13H6V11ZM11 11H9V13H11V11ZM12 11H14V13H12V11ZM17 13V11H15V13H17ZM18 13V11H20V13H18ZM0 16V14H2V16H0ZM5 16V14H3V16H5ZM8 14H6V16H8V14ZM9 14H11V16H9V14ZM14 14H12V16H14V14ZM15 16V14H17V16H15ZM20 16V14H18V16H20ZM2 19V17H0V19H2ZM5 19V17H3V19H5ZM6 17H8V19H6V17ZM11 17H9V19H11V17Z" fill="#7A95B0"/>
</svg>
