<svg width="64" height="32" viewBox="0 0 64 32" fill="none" xmlns="http://www.w3.org/2000/svg">
<rect x="0.5" y="0.5" width="63" height="31" rx="2.5" fill="white" stroke="#D0D5DA"/>
<path d="M0 3C0 1.34315 1.34315 0 3 0H32V32H3C1.34315 32 0 30.6569 0 29V3Z" fill="#A3A9AE"/>
<path fill-rule="evenodd" clip-rule="evenodd" d="M8 23C8 23.5523 8.44772 24 9 24H23C23.5523 24 24 23.5523 24 23C24 22.4477 23.5523 22 23 22H9C8.44772 22 8 22.4477 8 23ZM8 16C8 16.5523 8.44772 17 9 17H23C23.5523 17 24 16.5523 24 16C24 15.4477 23.5523 15 23 15H9C8.44772 15 8 15.4477 8 16ZM9 10C8.44772 10 8 9.55229 8 9C8 8.44771 8.44772 8 9 8H23C23.5523 8 24 8.44771 24 9C24 9.55229 23.5523 10 23 10H9Z" fill="white"/>
<path fill-rule="evenodd" clip-rule="evenodd" d="M41 8C40.4477 8 40 8.44772 40 9V14C40 14.5523 40.4477 15 41 15H46C46.5523 15 47 14.5523 47 14V9C47 8.44772 46.5523 8 46 8H41ZM41 17C40.4477 17 40 17.4477 40 18V23C40 23.5523 40.4477 24 41 24H46C46.5523 24 47 23.5523 47 23V18C47 17.4477 46.5523 17 46 17H41ZM49 9C49 8.44772 49.4477 8 50 8H55C55.5523 8 56 8.44772 56 9V14C56 14.5523 55.5523 15 55 15H50C49.4477 15 49 14.5523 49 14V9ZM50 17C49.4477 17 49 17.4477 49 18V23C49 23.5523 49.4477 24 50 24H55C55.5523 24 56 23.5523 56 23V18C56 17.4477 55.5523 17 55 17H50Z" fill="#A3A9AE"/>
</svg>