<svg width="32" height="32" viewBox="0 0 32 32" fill="none" xmlns="http://www.w3.org/2000/svg">
<g clip-path="url(#clip0_858_45020)">
<path fill-rule="evenodd" clip-rule="evenodd" d="M22.4719 23.8817C22.797 23.7077 23 23.3688 23 23V9C23 8.6312 22.797 8.29234 22.4719 8.11832C22.1467 7.94431 21.7522 7.96338 21.4453 8.16795L15.6972 12H10C9.44771 12 9 12.4477 9 13V19C9 19.5523 9.44771 20 10 20H11.382L13.1056 23.4472L14.8944 22.5528L13.618 20L14 20L15.6972 20L21.4453 23.832C21.7522 24.0366 22.1467 24.0557 22.4719 23.8817ZM14 18H11V14H14V18ZM16 14V18C16.1974 18 16.3904 18.0584 16.5547 18.1679L21 21.1315V10.8685L16.5547 13.832C16.3904 13.9416 16.1974 14 16 14Z" fill="#22C386"/>
</g>
<rect x="1" y="1" width="30" height="30" rx="5" stroke="#22C386" stroke-width="2"/>
<defs>
<clipPath id="clip0_858_45020">
<rect width="16" height="16" fill="white" transform="translate(9 8)"/>
</clipPath>
</defs>
</svg>
