<svg width="32" height="32" viewBox="0 0 32 32" fill="none" xmlns="http://www.w3.org/2000/svg">
<path fill-rule="evenodd" clip-rule="evenodd" d="M12.4995 18.4663C11.4719 17.6138 10.664 16.6128 10.2152 16C10.664 15.3872 11.4719 14.3862 12.4995 13.5337C13.5835 12.6344 14.7913 12 16 12C17.2087 12 18.4165 12.6344 19.5005 13.5337C20.5281 14.3862 21.336 15.3872 21.7848 16C21.336 16.6128 20.5281 17.6138 19.5005 18.4663C18.4165 19.3656 17.2087 20 16 20C14.7913 20 13.5835 19.3656 12.4995 18.4663ZM16 10C14.1116 10 12.4571 10.9702 11.2225 11.9944C9.97234 13.0316 9.02832 14.2275 8.54251 14.8996C8.06525 15.5599 8.06526 16.4401 8.54251 17.1004C9.02832 17.7725 9.97234 18.9684 11.2225 20.0056C12.4571 21.0298 14.1116 22 16 22C17.8884 22 19.5429 21.0298 20.7775 20.0056C22.0277 18.9684 22.9717 17.7725 23.4575 17.1004C23.9348 16.4401 23.9348 15.5599 23.4575 14.8996C22.9717 14.2275 22.0277 13.0316 20.7775 11.9944C19.5429 10.9702 17.8884 10 16 10ZM16 14C14.8954 14 14 14.8954 14 16C14 17.1046 14.8954 18 16 18C17.1046 18 18 17.1046 18 16C18 14.8954 17.1046 14 16 14Z" fill="#388BDE"/>
<path d="M6 2H26V-2H6V2ZM30 6V26H34V6H30ZM26 30H6V34H26V30ZM2 26V6H-2V26H2ZM6 30C3.79086 30 2 28.2091 2 26H-2C-2 30.4183 1.58172 34 6 34V30ZM30 26C30 28.2091 28.2091 30 26 30V34C30.4183 34 34 30.4183 34 26H30ZM26 2C28.2091 2 30 3.79086 30 6H34C34 1.58172 30.4183 -2 26 -2V2ZM6 -2C1.58172 -2 -2 1.58172 -2 6H2C2 3.79086 3.79086 2 6 2V-2Z" fill="#388BDE"/>
</svg>
