<svg width="96" height="96" viewBox="0 0 96 96" fill="none" xmlns="http://www.w3.org/2000/svg">
<rect y="24" width="91" height="58" rx="6" fill="#B2BBC0"/>
<path d="M0 11C0 7.68629 2.68629 5 6 5H33C36.3137 5 39 7.68629 39 11V18H85C88.3137 18 91 20.6863 91 24V30C91 26.6863 88.3137 24 85 24H6C2.68629 24 0 26.6863 0 30V11Z" fill="#788790"/>
<path d="M75.5 65.8601L69.0424 54.5703C68.4084 54.9498 67.8683 55.4716 67.4926 56.1357L55.5636 77.0075C55.1948 77.6573 55.0005 78.3931 55 79.1421H67.9152L75.5 65.8601Z" fill="#00AC47"/>
<path d="M58.0997 85.711L59.9078 88.8655C60.2835 89.5296 60.8236 90.0514 61.4576 90.4309L68 79H55C55 79.7353 55.1879 80.6116 55.5636 81.2757L58.0997 85.711Z" fill="#0066DA"/>
<path d="M83.0004 79H68.0004L61.458 90.4309C62.092 90.8103 62.82 91.0001 63.5714 91.0001H87.4294C88.1808 91.0001 88.9088 90.7866 89.5428 90.4309L83.0004 79Z" fill="#2684FC"/>
<path d="M89.5424 90.4309C90.1764 90.0514 90.7165 89.5296 91.0922 88.8655L91.8436 87.561L95.4364 81.2757C95.8121 80.6116 96 79.7353 96 79H83L89.5424 90.4309Z" fill="#EA4335"/>
<path d="M89.4719 66.5716L83.5074 56.1357C83.1317 55.4716 82.5916 54.9498 81.9576 54.5703L75.5 65.8601L83.0417 79.001H96C96 78.2657 95.7887 77.6716 95.4129 77.0075L89.4719 66.5716Z" fill="#FFBA00"/>
<path d="M75.4996 65.859L81.9572 54.5692C81.3232 54.1897 80.5953 54 79.8438 54H71.1554C70.404 54 69.676 54.2135 69.042 54.5692L75.4996 65.859Z" fill="#00832D"/>
</svg>
