<svg width="96" height="96" viewBox="0 0 96 96" fill="none" xmlns="http://www.w3.org/2000/svg">
<rect y="24" width="91" height="58" rx="6" fill="#B2BBC0"/>
<path d="M0 11C0 7.68629 2.68629 5 6 5H33C36.3137 5 39 7.68629 39 11V18H85C88.3137 18 91 20.6863 91 24V30C91 26.6863 88.3137 24 85 24H6C2.68629 24 0 26.6863 0 30V11Z" fill="#788790"/>
<path d="M68.1641 70.3784L68.1636 70.3799C66.3883 69.2709 64.3409 68.6847 62.2526 68.6876C62.2043 68.6876 62.1569 68.6907 62.1087 68.6912C55.8971 68.7689 50.924 73.9106 51.0009 80.1756C51.0288 82.4482 51.7328 84.66 53.0217 86.5242L78.0073 75.8975L68.1641 70.3784Z" fill="#0078D4"/>
<path d="M53.0137 86.5202C55.1152 89.5677 58.5637 91.0033 62.2442 91.0014H86.9986C90.3608 91.0024 93.31 89.522 94.905 86.5369L77.997 75.8945L53.0137 86.5202Z" fill="#28A8EA"/>
<path d="M86.9976 72.875C85.7511 72.8738 84.3756 73.1984 83.2315 73.6973L77.9951 75.8967L94.9047 86.5401C97.2994 82.0562 95.6368 76.4634 91.1911 74.0481C89.9739 73.3867 88.3954 72.875 86.9976 72.875Z" fill="#1490DF"/>
<path d="M74.2577 63C80.2474 62.9862 85.422 66.6209 87.0149 72.8852C85.7708 72.8841 84.3972 73.208 83.2544 73.7052L83.2477 73.7081L78.0123 75.907L78.0098 75.9079L78.0081 75.9071L68.1637 70.3873L68.1633 70.3889C66.4662 69.3288 64.5206 68.7462 62.5283 68.6991C65.2299 64.8774 69.5987 63.0108 74.2577 63Z" fill="#0364B8"/>
</svg>
