<svg width="96" height="96" viewBox="0 0 96 96" fill="none" xmlns="http://www.w3.org/2000/svg">
<g clip-path="url(#clip0_623_3913)">
<rect y="24" width="91" height="58" rx="6" fill="#B2BBC0"/>
<path d="M0 11C0 7.68629 2.68629 5 6 5H33C36.3137 5 39 7.68629 39 11V18H85C88.3137 18 91 20.6863 91 24V30C91 26.6863 88.3137 24 85 24H6C2.68629 24 0 26.6863 0 30V11Z" fill="#788790"/>
<path d="M51.445 85.984C51.3 85.5374 51.1648 85.0446 51.1106 84.6276C50.694 81.4225 54.3008 76.9082 54.3008 76.9082L57.2191 73.496C59.2052 68.8895 59.4424 66.1259 65.5619 62.6957C70.8637 59.7241 76.1274 60.2844 80.9491 62.0609C80.9491 62.0609 85.9702 62.0018 88.9396 62.4056C89.2161 62.4432 89.4765 62.4752 89.7248 62.5057C91.2265 62.8547 92.5567 63.1799 94.0267 64.1323C94.7034 64.5707 95.1258 65.0967 95.4771 65.5605C92.2577 61.7265 81.6428 63.4195 69.6172 68.6885C58.7503 74.1084 50.6561 81.2089 51.445 85.984Z" fill="black"/>
<path d="M95.669 65.8071C97.5194 69.9319 91.501 79.1141 79.0286 85.5728C68.3347 90.7267 55.3015 91.5959 51.874 87.2125C49.2045 82.5 57.7582 74.5901 69.6098 68.6792C81.8955 63.2963 92.7089 61.6454 95.669 65.8071Z" fill="#0077FF"/>
<path d="M86.6379 74.307C87.6482 76.2726 84.0699 79.6993 78.1252 82.7616C73.0384 85.2251 67.3692 86.4117 65.8069 84.3919C64.697 82.4713 68.5738 78.687 74.2165 75.8727C80.0461 73.27 85.2785 72.415 86.6379 74.307Z" fill="white"/>
</g>
<defs>
<clipPath id="clip0_623_3913">
<rect width="96" height="96" fill="white"/>
</clipPath>
</defs>
</svg>
