<svg width="32" height="32" viewBox="0 0 32 32" fill="none" xmlns="http://www.w3.org/2000/svg">
<g clip-path="url(#clip0_623_3895)">
<rect y="8" width="30" height="20" rx="2" fill="#B2BBC0"/>
<path d="M0 4C0 2.89543 0.895431 2 2 2H11C12.1046 2 13 2.89543 13 4V6H28C29.1046 6 30 6.89543 30 8V10C30 8.89543 29.1046 8 28 8H2C0.895431 8 0 8.89543 0 10V4Z" fill="#788790"/>
<path opacity="0.504232" fill-rule="evenodd" clip-rule="evenodd" d="M23.5964 17.056L24.8439 17.5775C25.0348 17.6573 25.1824 17.8151 25.2494 18.0109L25.7454 19.4607C25.8252 19.6941 26.0185 19.8707 26.2581 19.9293L31.4484 21.1987C31.7723 21.2779 32.0001 21.5682 32.0001 21.9016V27.9577C32.0001 28.3574 31.6761 28.6813 31.2765 28.6813C31.2044 28.6813 31.1327 28.6705 31.0637 28.6493L23.1045 26.2003C22.8009 26.1069 22.5938 25.8264 22.5938 25.5088V17.7236C22.5938 17.324 22.9177 17 23.3173 17C23.4131 17 23.508 17.019 23.5964 17.056Z" fill="#D0DFFF"/>
<path opacity="0.8" fill-rule="evenodd" clip-rule="evenodd" d="M21.7878 18.5033L23.0353 19.0248C23.2262 19.1046 23.3738 19.2623 23.4408 19.4581L23.9368 20.9079C24.0166 21.1413 24.2099 21.318 24.4495 21.3766L29.6398 22.646C29.9637 22.7252 30.1915 23.0155 30.1915 23.3489V29.405C30.1915 29.8046 29.8675 30.1286 29.4679 30.1286C29.3958 30.1286 29.3241 30.1178 29.2551 30.0966L21.2959 27.6476C20.9923 27.5542 20.7852 27.2737 20.7852 26.956V19.1708C20.7852 18.7712 21.1091 18.4473 21.5087 18.4473C21.6045 18.4473 21.6994 18.4663 21.7878 18.5033Z" fill="#B3CAFF"/>
<path opacity="0.8" d="M28.3823 27.8239L30.1912 28.3805V23.3484C30.1912 23.015 29.9634 22.7247 29.6395 22.6455L24.4492 21.3761C24.2096 21.3175 24.0163 21.1409 23.9365 20.9075L23.4405 19.4577C23.3735 19.2619 23.2259 19.1041 23.035 19.0243L22.5938 18.8398V22.5932C22.6091 22.598 22.6246 22.6023 22.6403 22.6062L27.8306 23.8756C28.1545 23.9548 28.3823 24.2451 28.3823 24.5785V27.8239Z" fill="#AAC4FF"/>
<path fill-rule="evenodd" clip-rule="evenodd" d="M19.9782 19.7337L21.2257 20.2552C21.4166 20.335 21.5643 20.4928 21.6312 20.6886L22.1272 22.1384C22.2071 22.3718 22.4003 22.5484 22.6399 22.607L27.8303 23.8765C28.1541 23.9557 28.3819 24.2459 28.3819 24.5793V30.6355C28.3819 31.0351 28.058 31.359 27.6583 31.359C27.5862 31.359 27.5145 31.3483 27.4456 31.327L19.4864 28.8781C19.1828 28.7846 18.9756 28.5041 18.9756 28.1865V20.4013C18.9756 20.0017 19.2995 19.6777 19.6991 19.6777C19.795 19.6777 19.8898 19.6968 19.9782 19.7337Z" fill="#1A47FF"/>
<path fill-rule="evenodd" clip-rule="evenodd" d="M18.143 22.9405L26.1822 25.1736C26.4249 25.241 26.6151 25.4298 26.6843 25.672L28.1986 30.972C28.2535 31.1641 28.1422 31.3643 27.9501 31.4192C27.8827 31.4384 27.8113 31.4377 27.7443 31.4171L19.3237 28.8262C19.1047 28.7588 18.9305 28.5916 18.8542 28.3754L17.267 23.8784C17.134 23.5016 17.3317 23.0883 17.7085 22.9553C17.8484 22.9059 18.0001 22.9008 18.143 22.9405Z" fill="#5287FF"/>
</g>
<defs>
<clipPath id="clip0_623_3895">
<rect width="32" height="32" fill="white"/>
</clipPath>
</defs>
</svg>
