<svg width="32" height="32" viewBox="0 0 32 32" fill="none" xmlns="http://www.w3.org/2000/svg">
<rect y="8" width="30" height="20" rx="2" fill="#B2BBC0"/>
<path d="M0 4C0 2.89543 0.895431 2 2 2H11C12.1046 2 13 2.89543 13 4V6H28C29.1046 6 30 6.89543 30 8V10C30 8.89543 29.1046 8 28 8H2C0.895431 8 0 8.89543 0 10V4Z" fill="#788790"/>
<path d="M29.2875 25.3975C28.8908 23.4569 27.1233 22 25 22C23.3142 22 21.85 22.9225 21.1208 24.2725C19.365 24.4525 18 25.8869 18 27.625C18 29.4869 19.5692 31 21.5 31H29.0833C30.6933 31 32 29.74 32 28.1875C32 26.7025 30.8042 25.4987 29.2875 25.3975Z" fill="#96D1DE"/>
</svg>
