<svg width="72" height="72" viewBox="0 0 72 72" fill="none" xmlns="http://www.w3.org/2000/svg">
<path d="M36 25.125C30.0348 25.125 25.2 30.0795 25.2 36.1875C25.2 42.2977 30.0348 47.25 36 47.25C41.9638 47.25 46.8 42.2977 46.8 36.1875C46.8 30.0795 41.9638 25.125 36 25.125ZM64.8 14.0625H56.16C54.972 14.0625 53.6918 13.1185 53.3167 11.9636L51.0833 5.09819C50.7067 3.944 49.428 3 48.24 3H23.76C22.572 3 21.2918 3.944 20.9167 5.09892L18.6833 11.9643C18.3067 13.1185 17.028 14.0625 15.84 14.0625H7.2C3.24 14.0625 0 17.3813 0 21.4375V54.625C0 58.6813 3.24 62 7.2 62H64.8C68.76 62 72 58.6813 72 54.625V21.4375C72 17.3813 68.76 14.0625 64.8 14.0625ZM36 54.625C26.059 54.625 18 46.3702 18 36.1875C18 26.0056 26.059 17.75 36 17.75C45.9396 17.75 54 26.0056 54 36.1875C54 46.3702 45.9396 54.625 36 54.625ZM62.28 26.5948C60.889 26.5948 59.76 25.4399 59.76 24.0136C59.76 22.5887 60.889 21.4323 62.28 21.4323C63.6725 21.4323 64.8 22.5887 64.8 24.0136C64.8 25.4399 63.6718 26.5948 62.28 26.5948Z" fill="white"/>
</svg>