<svg width="16" height="16" viewBox="0 0 16 16" fill="none" xmlns="http://www.w3.org/2000/svg">
<rect width="16" height="16" rx="8" fill="#EDC409"/>
<rect x="0.5" y="0.5" width="15" height="15" rx="7.5" stroke="#333333" stroke-opacity="0.2"/>
<path d="M11.8135 8.06299C11.8135 8.66813 11.7401 9.21956 11.5933 9.71729C11.45 10.2114 11.2244 10.6375 10.9165 10.9956C10.6086 11.3537 10.2129 11.6294 9.72949 11.8228C9.24609 12.0125 8.66781 12.1074 7.99463 12.1074C7.33577 12.1074 6.76465 12.0125 6.28125 11.8228C5.80143 11.6294 5.40576 11.3555 5.09424 11.001C4.78271 10.6429 4.55176 10.215 4.40137 9.71729C4.25098 9.21956 4.17578 8.66455 4.17578 8.05225C4.17578 7.23584 4.31006 6.52686 4.57861 5.92529C4.85075 5.32015 5.26969 4.85286 5.83545 4.52344C6.4012 4.19043 7.12451 4.02393 8.00537 4.02393C8.90055 4.02393 9.62744 4.19043 10.186 4.52344C10.7482 4.85645 11.16 5.32552 11.4214 5.93066C11.6828 6.53581 11.8135 7.24658 11.8135 8.06299ZM6.41016 8.06299C6.41016 8.53564 6.46387 8.94206 6.57129 9.28223C6.67871 9.6224 6.8488 9.88379 7.08154 10.0664C7.31429 10.249 7.61865 10.3403 7.99463 10.3403C8.38493 10.3403 8.69466 10.249 8.92383 10.0664C9.15658 9.88379 9.32308 9.6224 9.42334 9.28223C9.52718 8.94206 9.5791 8.53564 9.5791 8.06299C9.5791 7.354 9.46094 6.79362 9.22461 6.38184C8.98828 5.97005 8.58187 5.76416 8.00537 5.76416C7.62223 5.76416 7.3125 5.85726 7.07617 6.04346C6.84342 6.22965 6.67334 6.49463 6.56592 6.83838C6.46208 7.18213 6.41016 7.59033 6.41016 8.06299Z" fill="white"/>
</svg>
