<svg width="12" height="12" viewBox="0 0 12 12" fill="none" xmlns="http://www.w3.org/2000/svg">
<rect width="12" height="12" rx="6" fill="#3B72A7"/>
<rect x="0.5" y="0.5" width="11" height="11" rx="5.5" stroke="black" stroke-opacity="0.2"/>
<path d="M5.94287 5.23828H8.71582V8.70117C7.96289 8.95898 7.13525 9.08789 6.23291 9.08789C5.24268 9.08789 4.47656 8.80078 3.93457 8.22656C3.39551 7.65234 3.12598 6.8335 3.12598 5.77002C3.12598 4.73291 3.42188 3.92578 4.01367 3.34863C4.60547 2.77148 5.43457 2.48291 6.50098 2.48291C6.90527 2.48291 7.28613 2.521 7.64355 2.59717C8.00391 2.67334 8.31738 2.77002 8.58398 2.88721L8.03467 4.24951C7.57178 4.021 7.06348 3.90674 6.50977 3.90674C6.00293 3.90674 5.61035 4.07227 5.33203 4.40332C5.05664 4.73145 4.91895 5.20166 4.91895 5.81396C4.91895 6.41455 5.04346 6.87305 5.29248 7.18945C5.54443 7.50293 5.90625 7.65967 6.37793 7.65967C6.63574 7.65967 6.87305 7.63477 7.08984 7.58496V6.57861H5.94287V5.23828Z" fill="white"/>
</svg>
