<svg width="106" height="40" viewBox="0 0 106 40" fill="none" xmlns="http://www.w3.org/2000/svg">
<path opacity="0.54" d="M27.7495 26.9382H26.0098V13.5033H33.9107V15.1539H27.7495V19.5648H33.3067V21.1773H27.7495V26.9382ZM37.1818 15.4369C36.7671 15.8503 36.1158 15.9152 35.6266 15.592C35.1373 15.2687 34.9463 14.6473 35.1704 14.108C35.3946 13.5687 35.9714 13.2617 36.548 13.3749C37.1246 13.4882 37.5403 13.99 37.5406 14.5734C37.5462 14.8984 37.4157 15.211 37.1803 15.4369H37.1818ZM37.1818 26.9382H35.4421V17.7442H37.1818V26.9382ZM40.9993 26.9382H39.2596V17.7442H40.9225V19.2452H40.9978C41.1987 18.7163 41.5845 18.2766 42.0848 18.0066C42.5625 17.7021 43.1151 17.5333 43.6826 17.5184C44.1282 17.5059 44.5717 17.5826 44.9867 17.7442L44.3251 19.3566C44.0268 19.2581 43.7132 19.2134 43.3991 19.2247C42.7612 19.2279 42.154 19.4971 41.7259 19.9665C41.2405 20.4609 40.9978 21.1084 40.9978 21.9088L40.9993 26.9382ZM49.7538 27.2314C48.3547 27.2314 47.2176 26.7687 46.3424 25.8432C45.4671 24.9177 45.029 23.7504 45.028 22.3412C45.0023 21.0724 45.4577 19.8403 46.304 18.889C47.1145 17.9422 48.3134 17.4107 49.5647 17.4437C50.9382 17.4437 52.0379 17.8878 52.8639 18.7762C53.6899 19.6645 54.1024 20.8528 54.1015 22.3412L54.0823 22.6608H46.7647C46.8149 23.5862 47.127 24.3192 47.701 24.8596C48.2378 25.3826 48.9618 25.6726 49.7139 25.6658C50.9613 25.6658 51.8055 25.1406 52.2466 24.09L53.7972 24.7277C53.483 25.4546 52.9647 26.0764 52.3042 26.519C51.6101 26.9939 50.76 27.2314 49.7538 27.2314ZM52.2496 21.2213C52.2121 20.6955 51.9695 20.1951 51.5215 19.7202C51.0735 19.2452 50.4075 19.0126 49.5234 19.0224C48.9102 19.0118 48.3145 19.2257 47.8502 19.6234C47.3637 20.0466 47.0233 20.6106 46.877 21.2359L52.2496 21.2213ZM60.3867 27.2314C59.7285 27.2444 59.0775 27.0932 58.4935 26.7916C57.9805 26.5348 57.5465 26.146 57.2367 25.6658H57.1614V26.9382H55.497V13.5033H57.2367V17.7442L57.1614 19.0195H57.2367C57.5465 18.5393 57.9805 18.1505 58.4935 17.8937C59.0766 17.5887 59.7276 17.4339 60.3867 17.4437C61.5839 17.4437 62.6177 17.9127 63.488 18.8509C64.3583 19.7891 64.793 20.9525 64.792 22.3412C64.792 23.7299 64.3573 24.8933 63.488 25.8315C62.6187 26.7696 61.5849 27.2363 60.3867 27.2314ZM60.1032 25.6556C60.8957 25.6618 61.6528 25.3304 62.1825 24.7453C62.7624 24.1384 63.0523 23.3346 63.0523 22.3339C63.0523 21.3332 62.7624 20.5294 62.1825 19.9225C61.6467 19.3444 60.892 19.0147 60.1007 19.013C59.3093 19.0113 58.5532 19.3378 58.015 19.9137C57.442 20.5137 57.1555 21.3204 57.1555 22.3339C57.1555 23.3473 57.4449 24.1565 58.0238 24.7614C58.5569 25.3443 59.316 25.6725 60.1091 25.6629L60.1032 25.6556ZM69.2209 27.2314C68.2364 27.2314 67.4143 26.95 66.7547 26.387C66.095 25.8241 65.7642 25.08 65.7623 24.1545C65.7623 23.1538 66.1531 22.369 66.9349 21.8003C67.7166 21.2315 68.6804 20.9471 69.8264 20.9471C70.8474 20.9471 71.6842 21.1348 72.337 21.51V21.2476C72.3619 20.6297 72.1047 20.0335 71.637 19.6249C71.1606 19.2177 70.5478 19.0027 69.9195 19.0224C69.4386 19.0163 68.9651 19.1394 68.549 19.3786C68.1592 19.5929 67.8603 19.9396 67.7072 20.3549L66.1197 19.6791C66.3343 19.127 66.7566 18.6149 67.3867 18.1429C68.0168 17.6709 68.8488 17.4363 69.8825 17.4393C71.064 17.4393 72.0485 17.7813 72.8361 18.4654C73.6238 19.1495 74.0146 20.1189 74.0087 21.3737V26.9382H72.3399V25.6629H72.2646C71.5705 26.7086 70.556 27.2314 69.2209 27.2314ZM69.5045 25.6556C70.2355 25.653 70.9372 25.3699 71.4627 24.8655C72.0228 24.3968 72.3468 23.7074 72.3488 22.9803C71.8565 22.5796 71.1181 22.3793 70.1336 22.3793C69.2889 22.3793 68.6524 22.5606 68.2241 22.9232C67.8244 23.2281 67.5877 23.6981 67.5817 24.1985C67.5736 24.6339 67.7983 25.041 68.1724 25.2686C68.5658 25.5311 69.0304 25.6687 69.5045 25.6629V25.6556ZM79.1258 27.2314C78.0921 27.2314 77.2385 26.9812 76.5651 26.4809C75.9099 26.0005 75.3992 25.3518 75.0883 24.6045L76.6389 23.9669C77.1312 25.1181 77.968 25.6937 79.1495 25.6937C79.6188 25.7128 80.0827 25.5884 80.4786 25.3375C80.805 25.1363 81.0021 24.7807 80.9984 24.3993C80.9984 23.7993 80.576 23.3927 79.7313 23.1797L77.8602 22.7297C77.2445 22.568 76.6709 22.277 76.1781 21.8765C75.6536 21.4705 75.3579 20.8388 75.3836 20.179C75.3836 19.3659 75.7459 18.7063 76.4705 18.2001C77.2285 17.6836 78.1314 17.4178 79.0505 17.4407C79.8179 17.4286 80.5746 17.6204 81.2421 17.9963C81.8723 18.3514 82.3595 18.9117 82.6214 19.5824L81.1106 20.1951C80.771 19.3821 80.0651 18.9755 78.9929 18.9755C78.5369 18.9605 78.0855 19.0711 77.6889 19.2951C77.364 19.4622 77.16 19.7952 77.1602 20.1585C77.1602 20.6842 77.5698 21.041 78.3889 21.2286L80.2216 21.661C81.091 21.8565 81.7339 22.1985 82.1503 22.6871C82.5537 23.1436 82.7753 23.7305 82.7735 24.3377C82.7816 25.1473 82.4031 25.9128 81.7531 26.4017C81.0727 26.9548 80.197 27.2314 79.1258 27.2314ZM88.4828 27.2314C87.0838 27.2314 85.9467 26.7687 85.0714 25.8432C84.1962 24.9177 83.7581 23.748 83.7571 22.3339C83.7314 21.0651 84.1868 19.833 85.033 18.8817C85.8466 17.9372 87.0468 17.4086 88.2982 17.4437C89.6766 17.4437 90.7763 17.8878 91.5974 18.7762C92.4185 19.6645 92.831 20.8528 92.835 22.3412L92.8157 22.6608H85.4923C85.5425 23.5862 85.8546 24.3192 86.4286 24.8596C86.9669 25.3826 87.6927 25.6716 88.4459 25.6629C89.6933 25.6629 90.5375 25.1376 90.9786 24.0871L92.5293 24.7247C92.2151 25.4517 91.6968 26.0736 91.0362 26.516C90.3421 26.993 89.491 27.2314 88.4828 27.2314ZM90.9786 21.2213C90.9412 20.6955 90.6985 20.1951 90.2506 19.7202C89.8026 19.2452 89.1375 19.0126 88.2554 19.0224C87.6422 19.0119 87.0466 19.2258 86.5822 19.6234C86.0957 20.0466 85.7553 20.6106 85.609 21.2359L90.9786 21.2213Z" fill="black"/>
<mask id="mask0" mask-type="alpha" maskUnits="userSpaceOnUse" x="0" y="7" width="19" height="26">
<path d="M16.4539 12.8074C16.4169 12.5897 16.2615 12.4108 16.0511 12.3436C15.8406 12.2765 15.6103 12.3323 15.4541 12.4884L12.3866 15.5633L9.97484 10.9717C9.8727 10.7775 9.6714 10.656 9.45203 10.656C9.23266 10.656 9.03135 10.7775 8.92921 10.9717L7.61036 13.4824L4.30215 7.31197C4.18217 7.08785 3.93226 6.96562 3.68169 7.0085C3.43112 7.05137 3.23608 7.24975 3.19744 7.50101L0 27.9691L8.55113 32.763C9.0881 33.0628 9.74211 33.0628 10.2791 32.763L18.9041 27.9691L16.4539 12.8074Z" fill="white"/>
</mask>
<g mask="url(#mask0)">
<path d="M16.4539 12.8074C16.4169 12.5897 16.2615 12.4108 16.0511 12.3436C15.8406 12.2765 15.6103 12.3323 15.4541 12.4884L12.3866 15.5633L9.97484 10.9717C9.8727 10.7775 9.6714 10.656 9.45203 10.656C9.23266 10.656 9.03135 10.7775 8.92921 10.9717L7.61036 13.4824L4.30215 7.31197C4.18217 7.08785 3.93226 6.96562 3.68169 7.0085C3.43112 7.05137 3.23608 7.24975 3.19744 7.50101L0 27.9691L8.55113 32.763C9.0881 33.0628 9.74211 33.0628 10.2791 32.763L18.9041 27.9691L16.4539 12.8074Z" fill="url(#paint0_linear)"/>
<path d="M0 27.9694L3.19892 7.49987C3.23802 7.24882 3.43326 7.0509 3.68374 7.00837C3.93423 6.96584 4.18385 7.08823 4.30362 7.3123L7.61183 13.4827L8.93068 10.972C9.03282 10.7779 9.23413 10.6563 9.4535 10.6563C9.67287 10.6563 9.87418 10.7779 9.97632 10.972L18.904 27.9694H0Z" fill="#FFA000"/>
<path d="M11.0515 19.9965L7.61035 13.4805L0 27.9702L11.0515 19.9965Z" fill="#F57C00"/>
<path d="M18.9041 27.9698L16.4539 12.8081C16.4169 12.5904 16.2615 12.4115 16.0511 12.3443C15.8407 12.2772 15.6103 12.3331 15.4541 12.4891L0 27.9698L8.55113 32.7652C9.0881 33.065 9.74211 33.065 10.2791 32.7652L18.9041 27.9698Z" fill="#FFCA28"/>
<path d="M16.453 12.8074C16.416 12.5897 16.2606 12.4108 16.0502 12.3436C15.8397 12.2765 15.6094 12.3323 15.4532 12.4884L12.3857 15.5633L9.97395 10.9717C9.87181 10.7775 9.6705 10.656 9.45113 10.656C9.23176 10.656 9.03045 10.7775 8.92832 10.9717L7.60946 13.4824L4.30125 7.31197C4.18127 7.08785 3.93137 6.96562 3.68079 7.0085C3.43022 7.05137 3.23518 7.24975 3.19655 7.50101L-0.000892337 27.9691H-0.0112305L-0.000892337 27.9809L0.0832897 28.0222L12.3798 15.711L15.4487 12.6391C15.6049 12.4821 15.8358 12.4257 16.0468 12.4929C16.2577 12.5601 16.4134 12.7397 16.45 12.9581L18.8795 27.9838L18.9031 27.9691L16.453 12.8074ZM0.0271683 27.941L3.19802 7.64574C3.23666 7.39448 3.4317 7.19611 3.68227 7.15323C3.93284 7.11035 4.18275 7.23258 4.30273 7.4567L7.61094 13.6271L8.92979 11.1164C9.03193 10.9223 9.23324 10.8007 9.45261 10.8007C9.67198 10.8007 9.87328 10.9223 9.97542 11.1164L12.3384 15.6105L0.0271683 27.941Z" fill="white" fill-opacity="0.2"/>
<path opacity="0.2" d="M10.2791 32.6206C9.74211 32.9204 9.0881 32.9204 8.55113 32.6206L0.0206763 27.8384L0 27.9699L8.55113 32.7638C9.0881 33.0636 9.74211 33.0636 10.2791 32.7638L18.9041 27.9699L18.8819 27.834L10.2791 32.6206Z" fill="#A52714"/>
</g>
<mask id="mask1" mask-type="alpha" maskUnits="userSpaceOnUse" x="0" y="7" width="19" height="26">
<path d="M16.4295 12.8107C16.3926 12.5931 16.2378 12.4142 16.0281 12.3471C15.8184 12.28 15.5889 12.3358 15.4332 12.4918L12.3764 15.5654L9.97317 10.9758C9.87139 10.7817 9.67078 10.6602 9.45218 10.6602C9.23358 10.6602 9.03297 10.7817 8.93119 10.9758L7.61695 13.4854L4.32031 7.31769C4.20075 7.09366 3.95172 6.97149 3.70202 7.01435C3.45233 7.05721 3.25796 7.25549 3.21947 7.50664L0.0332031 27.9657L8.55443 32.7576C9.08953 33.0573 9.74125 33.0573 10.2763 32.7576L18.8711 27.9657L16.4295 12.8107Z" fill="white"/>
</mask>
<g mask="url(#mask1)">
</g>
<defs>
<linearGradient id="paint0_linear" x1="-0.660165" y1="11.4236" x2="22.8988" y2="23.8886" gradientUnits="userSpaceOnUse">
<stop stop-color="white" stop-opacity="0.1"/>
<stop offset="0.14" stop-color="white" stop-opacity="0.08"/>
<stop offset="0.61" stop-color="white" stop-opacity="0.02"/>
<stop offset="1" stop-color="white" stop-opacity="0"/>
</linearGradient>
</defs>
</svg>
