<svg width="106" height="40" viewBox="0 0 106 40" fill="none" xmlns="http://www.w3.org/2000/svg">
<path d="M40.8528 21.1817C40.8528 25.6888 37.327 29.01 32.9999 29.01C28.6728 29.01 25.147 25.6888 25.147 21.1817C25.147 16.6429 28.6728 13.3535 32.9999 13.3535C37.327 13.3535 40.8528 16.6429 40.8528 21.1817ZM37.4152 21.1817C37.4152 18.3653 35.3717 16.4382 32.9999 16.4382C30.6281 16.4382 28.5846 18.3653 28.5846 21.1817C28.5846 23.97 30.6281 25.9253 32.9999 25.9253C35.3717 25.9253 37.4152 23.9664 37.4152 21.1817Z" fill="#EA4335"/>
<path d="M57.7943 21.1817C57.7943 25.6888 54.2684 29.01 49.9414 29.01C45.6143 29.01 42.0884 25.6888 42.0884 21.1817C42.0884 16.6464 45.6143 13.3535 49.9414 13.3535C54.2684 13.3535 57.7943 16.6429 57.7943 21.1817ZM54.3567 21.1817C54.3567 18.3653 52.3131 16.4382 49.9414 16.4382C47.5696 16.4382 45.5261 18.3653 45.5261 21.1817C45.5261 23.97 47.5696 25.9253 49.9414 25.9253C52.3131 25.9253 54.3567 23.9664 54.3567 21.1817Z" fill="#FBBC05"/>
<path d="M74.0295 13.8264V27.8806C74.0295 33.6617 70.6201 36.0229 66.5895 36.0229C62.7954 36.0229 60.5119 33.4853 59.6507 31.41L62.6436 30.1641C63.1766 31.4382 64.4825 32.9417 66.586 32.9417C69.166 32.9417 70.7648 31.35 70.7648 28.3535V27.2276H70.6448C69.8754 28.177 68.393 29.0064 66.5225 29.0064C62.6083 29.0064 59.0225 25.597 59.0225 21.21C59.0225 16.7912 62.6083 13.3535 66.5225 13.3535C68.3895 13.3535 69.8719 14.1829 70.6448 15.1041H70.7648V13.83H74.0295V13.8264ZM71.0083 21.21C71.0083 18.4535 69.1695 16.4382 66.8295 16.4382C64.4577 16.4382 62.4707 18.4535 62.4707 21.21C62.4707 23.9382 64.4577 25.9253 66.8295 25.9253C69.1695 25.9253 71.0083 23.9382 71.0083 21.21Z" fill="#4285F4"/>
<path d="M79.4116 5.58789V28.529H76.0586V5.58789H79.4116Z" fill="#34A853"/>
<path d="M92.4778 23.7579L95.1461 25.5367C94.2849 26.8108 92.2096 29.0061 88.6237 29.0061C84.1767 29.0061 80.8555 25.5684 80.8555 21.1779C80.8555 16.5226 84.2049 13.3496 88.239 13.3496C92.3014 13.3496 94.2884 16.5826 94.9378 18.3296L95.2943 19.219L84.8296 23.5532C85.6308 25.1237 86.8767 25.9249 88.6237 25.9249C90.3743 25.9249 91.5884 25.0637 92.4778 23.7579ZM84.2649 20.9414L91.2602 18.0367C90.8755 17.059 89.7178 16.3779 88.3555 16.3779C86.6084 16.3779 84.1767 17.9202 84.2649 20.9414Z" fill="#EA4335"/>
<path d="M12.4552 19.1447V15.8235H23.647C23.7564 16.4024 23.8128 17.0871 23.8128 17.8283C23.8128 20.32 23.1317 23.4012 20.9364 25.5965C18.8011 27.82 16.0728 29.0059 12.4587 29.0059C5.75989 29.0059 0.126953 23.5494 0.126953 16.8506C0.126953 10.1518 5.75989 4.69531 12.4587 4.69531C16.1646 4.69531 18.8046 6.14943 20.7881 8.04472L18.4446 10.3883C17.0223 9.05414 15.0952 8.01649 12.4552 8.01649C7.56342 8.01649 3.73754 11.9588 3.73754 16.8506C3.73754 21.7424 7.56342 25.6847 12.4552 25.6847C15.6281 25.6847 17.4352 24.4106 18.5928 23.253C19.5317 22.3141 20.1493 20.973 20.3928 19.1412L12.4552 19.1447Z" fill="#4285F4"/>
</svg>
