<svg width="106" height="40" viewBox="0 0 106 40" fill="none" xmlns="http://www.w3.org/2000/svg">
<path d="M32.3108 13C30.5711 13 28.7573 14.1897 28.7573 14.1897V13.4248C28.7573 13.2573 28.6857 13.19 28.5069 13.19H26.2865C26.1075 13.19 26 13.2909 26 13.4248V29.731C26 29.8991 26.0718 30 26.2509 30H28.5071C28.6498 30 28.7575 29.8991 28.7575 29.731V15.7733C28.7575 15.7733 29.8046 15.1517 31.0763 15.1517C32.2872 15.1517 33.2433 15.7146 33.2433 16.8697C33.2433 17.6741 33.2433 29.731 33.2433 29.731C33.2433 29.8991 33.3506 30 33.5297 30H35.7494C35.9285 30 36 29.8657 36 29.731V16.1387C36.0002 14.0916 34.6567 13 32.3108 13Z" fill="#010202"/>
<path d="M49.7516 4.40039H47.5501C47.3726 4.40039 47.266 4.50264 47.266 4.63889V12.9911C46.4211 12.6799 45.6515 12.5156 45.0297 12.5156C41.4545 12.5156 39 15.7949 39 22.1008C39 27.5031 41.3878 30.4004 44.5036 30.4004C45.817 30.4004 46.901 29.6783 47.6948 29.0009L48.1754 29.7825C48.2564 29.9177 48.3228 29.964 48.4857 29.964L49.7514 29.9654C49.8933 29.9654 50 29.863 50 29.6923V4.63914C50.0002 4.46862 49.929 4.40063 49.7516 4.40063V4.40039ZM41.9114 21.5432C41.9114 18.0686 42.9713 14.6278 45.1357 14.6278C45.8687 14.6278 46.573 14.8593 47.2663 15.3876V27.6291C46.7242 27.912 46.0419 28.1733 45.3048 28.1733C42.9514 28.1731 41.9114 25.4947 41.9114 21.5432Z" fill="#010202"/>
<path d="M57.3628 12C53.7724 12 52 16.6562 52 21.7235C52 27.0272 54.5276 30 57.7774 30C59.2061 30 60.6278 29.4425 61.5602 28.9291C61.7031 28.8504 61.7289 28.7391 61.6945 28.6023L61.4218 27.4818C61.3878 27.3448 61.3185 27.2764 61.1456 27.2764C61.0696 27.2764 59.8919 27.618 58.7457 27.618C56.0862 27.618 54.8666 25.2744 54.8666 22.1617C54.8666 21.7512 54.8666 21.4052 54.8666 21.4052C54.8666 21.4052 56.1885 21.5865 56.9827 21.5865H62V20.149C62 14.8418 60.1254 12 57.3628 12ZM57.1901 19.4295C56.3959 19.4295 54.9506 19.624 54.9506 19.624C54.9506 19.624 54.9699 19.0529 55.0391 18.505C55.3499 15.5948 56.0502 14.1229 57.2589 14.1229C58.3099 14.1229 59.0297 15.6291 59.2028 18.2655C59.237 18.8135 59.237 19.4297 59.237 19.4297H57.1901V19.4295H57.1901Z" fill="#010202"/>
<path d="M22.2326 14.2224C21.4257 12.676 19.9885 12 18.3422 12C17.2845 12 15.6341 12.3935 14.5317 12.8753C14.3161 12.9696 14.1796 13.0526 14.1796 13.2178C14.1796 13.3159 14.2298 13.4287 14.2853 13.5261L15.0279 15.0729C15.1047 15.2476 15.2271 15.2874 15.3284 15.2874C15.4382 15.2874 15.5275 15.2368 15.6261 15.1754C16.7014 14.5069 17.4891 14.1394 18.1126 14.1394C18.9375 14.1394 19.4977 14.6719 19.8431 15.4723C20.1648 16.2183 20.2896 17.249 20.2896 18.4398C20.2896 18.5917 20.2902 18.7899 20.2902 18.7899C19.6126 18.3773 18.4388 18.15 17.8529 18.15C14.7002 18.15 13 21.0639 13 24.1799C13 27.5373 14.9871 30 17.3749 30C18.7049 30 19.9087 29.2407 20.715 28.2832C20.715 28.2832 21.1442 29.2788 21.2003 29.3982C21.2567 29.5174 21.3164 29.5615 21.4777 29.5615L22.7538 29.5629C22.8942 29.5629 23 29.46 23 29.2885V19.6372C22.9996 17.2658 22.8764 15.4566 22.2326 14.2227V14.2224ZM20.29 26.8668C19.665 27.454 18.9161 27.7619 18.2424 27.7619C17.5689 27.7619 17.0483 27.4591 16.6308 26.8986C16.1227 26.2165 15.8857 25.166 15.8857 24.0022C15.8857 22.1614 16.5842 20.2727 18.0651 20.2727C18.7978 20.2727 19.6029 20.5047 20.2902 21.0363V26.8668H20.29Z" fill="#010202"/>
<path d="M73.7223 13C73.4293 13 72.0268 13 71.8137 13C71.6005 13 71.4918 13.1098 71.4369 13.252C71.3159 13.5637 70.5093 15.651 70.1785 16.5156C69.9427 17.1333 69.3076 18.9022 69.3076 18.9022L69.2337 18.9016C69.2316 18.8954 68.7663 17.6149 68.5145 16.9737C68.3107 16.4539 67.2475 13.7023 67.1128 13.3629C67.0411 13.1806 66.9608 13 66.6874 13C66.3184 13 64.8277 13 64.5978 13C64.3682 13 64.2381 13.2475 64.3123 13.4011C64.3867 13.5551 67.7161 21.0053 67.7161 21.0053C67.7161 21.0053 64.1406 29.3479 64.0361 29.5351C63.9315 29.7225 64.0631 29.9999 64.3174 29.9999C64.5713 29.9999 65.8376 29.9999 66.1487 29.9999C66.4603 29.9999 66.5832 29.8394 66.6768 29.5809C66.94 28.8566 67.3319 27.8492 67.8869 26.2924C68.2545 25.2606 68.8359 23.4498 68.8359 23.4498H68.8999C68.8999 23.4498 69.5368 25.2954 69.7736 25.8988C70.3719 27.4247 71.1373 29.4179 71.2185 29.6283C71.303 29.8485 71.4213 30 71.6356 30C71.8501 30 73.506 30 73.7121 30C73.9176 30 74.0127 29.7695 73.9161 29.569C73.6849 29.0907 71.7128 24.3827 70.3436 21.2878C70.3436 21.2878 73.8975 13.5826 73.9668 13.392C74.0362 13.2014 74.0153 13 73.7223 13H73.7223Z" fill="#010202"/>
<path d="M15.7133 2H13.227C13.0068 2 12.8693 2.10305 12.8375 2.25245C12.806 2.40244 9.10887 13.1469 8.8402 14.0419C8.64968 14.6765 8.02844 16.9133 7.87941 17.4504L6.59363 14.1044C6.2812 13.1835 3.28662 5.20959 3.19877 4.89101C3.15035 4.71591 3.06596 4.49825 2.74398 4.49825H0.316597C0.0792817 4.49825 -0.0550644 4.74639 0.0215771 4.90026C0.0825933 5.02353 4.46731 16.1416 6.23864 20.3889V29.7275C6.23864 29.8978 6.31013 30 6.48836 30H8.78735C8.92987 30 9.03677 29.8978 9.03677 29.7275V20.875V20.4625C10.5134 16.5319 15.907 2.54924 15.9656 2.39276C16.0373 2.20151 16.0162 2 15.7133 2Z" fill="#E52620"/>
</svg>
