<svg width="79" height="40" viewBox="0 0 79 40" fill="none" xmlns="http://www.w3.org/2000/svg">
<g clip-path="url(#clip0_8445_1359)">
<path d="M16.5673 28.7192H2.51991C2.06053 28.7257 1.60812 28.6065 1.21161 28.3745C0.815099 28.1425 0.489576 27.8066 0.27024 27.4031C0.0330939 26.9422 -0.051619 26.4179 0.0282935 25.9057C0.108206 25.3936 0.348623 24.92 0.714942 24.5531L10.4635 14.7739H3.48779C2.56275 14.7739 1.6756 14.4066 1.0215 13.7528C0.367401 13.099 -6.90971e-05 12.2123 -6.90971e-05 11.2876H12.9486C13.408 11.2812 13.8604 11.4004 14.2569 11.6323C14.6534 11.8643 14.9789 12.2002 15.1983 12.6037C15.4354 13.0647 15.5201 13.589 15.4402 14.1011C15.3603 14.6133 15.1199 15.0869 14.7536 15.4538L4.97013 25.2329H13.0794C14.0044 25.2329 14.8916 25.6002 15.5457 26.254C16.1998 26.9078 16.5673 27.7946 16.5673 28.7192ZM72.2073 11C71.2496 11.0027 70.3033 11.2074 69.4303 11.601C68.5573 11.9945 67.7772 12.5678 67.1412 13.2835C66.5052 12.5678 65.7252 11.9945 64.8521 11.601C63.9791 11.2074 63.0328 11.0027 62.0751 11C60.2569 11.0477 58.5293 11.8034 57.2605 13.1058C55.9916 14.4083 55.2819 16.1547 55.2825 17.9726V28.7192C55.7405 28.7192 56.1941 28.629 56.6172 28.4538C57.0404 28.2786 57.4249 28.0218 57.7488 27.6981C58.0727 27.3744 58.3296 26.99 58.5049 26.5671C58.6801 26.1441 58.7704 25.6907 58.7704 25.2329V17.9029C58.7577 17.0331 59.0818 16.192 59.6748 15.5553C60.2679 14.9187 61.0841 14.5357 61.953 14.4863C62.4023 14.4639 62.8515 14.5329 63.2733 14.6892C63.6951 14.8454 64.0807 15.0857 64.4069 15.3954C64.733 15.7051 64.9928 16.0777 65.1705 16.4908C65.3483 16.9039 65.4403 17.3487 65.4409 17.7983V25.2068C65.4409 26.1314 65.8083 27.0181 66.4625 27.672C67.1166 28.3258 68.0037 28.6931 68.9287 28.6931V17.9029C68.9155 17.0402 69.2335 16.2051 69.8174 15.5696C70.4013 14.9341 71.2067 14.5464 72.0678 14.4863C72.5135 14.4699 72.958 14.5434 73.3746 14.7024C73.7913 14.8614 74.1717 15.1026 74.4931 15.4117C74.8146 15.7208 75.0704 16.0914 75.2455 16.5014C75.4205 16.9114 75.5112 17.3525 75.5121 17.7983V25.2068C75.5121 26.1314 75.8795 27.0181 76.5336 27.672C77.1878 28.3258 78.0749 28.6931 78.9999 28.6931V17.9726C79.0006 16.1547 78.2908 14.4083 77.0219 13.1058C75.7531 11.8034 74.0255 11.0477 72.2073 11ZM34.181 20.0034C34.1758 21.7778 33.6446 23.5109 32.6546 24.9838C31.6646 26.4566 30.2602 27.6032 28.6186 28.2787C26.977 28.9541 25.172 29.1282 23.4316 28.7788C21.6911 28.4295 20.0933 27.5725 18.8398 26.3159C17.5864 25.0594 16.7336 23.4598 16.3892 21.7191C16.0448 19.9784 16.2241 18.1747 16.9047 16.5358C17.5852 14.8969 18.7364 13.4964 20.2127 12.5111C21.6891 11.5259 23.4245 11 25.1997 11C26.381 11.0011 27.5505 11.235 28.6414 11.6882C29.7322 12.1414 30.723 12.805 31.5571 13.6412C32.3912 14.4773 33.0523 15.4696 33.5025 16.5613C33.9527 17.653 34.1832 18.8226 34.181 20.0034ZM30.6931 20.0034C30.6931 18.9174 30.3709 17.8558 29.7673 16.9528C29.1637 16.0498 28.3057 15.346 27.3019 14.9304C26.2982 14.5148 25.1936 14.4061 24.128 14.618C23.0624 14.8298 22.0836 15.3528 21.3153 16.1207C20.547 16.8887 20.0239 17.867 19.8119 18.9322C19.5999 19.9973 19.7087 21.1014 20.1245 22.1047C20.5403 23.1081 21.2444 23.9656 22.1478 24.569C23.0511 25.1723 24.1132 25.4944 25.1997 25.4944C26.6559 25.4921 28.0519 24.9128 29.0816 23.8836C30.1113 22.8543 30.6908 21.459 30.6931 20.0034ZM53.5386 20.0034C53.5334 21.7778 53.0023 23.5109 52.0123 24.9838C51.0222 26.4566 49.6178 27.6032 47.9762 28.2787C46.3347 28.9541 44.5297 29.1282 42.7892 28.7788C41.0487 28.4295 39.4509 27.5725 38.1974 26.3159C36.944 25.0594 36.0912 23.4598 35.7468 21.7191C35.4024 19.9784 35.5817 18.1747 36.2623 16.5358C36.9428 14.8969 38.094 13.4964 39.5704 12.5111C41.0467 11.5259 42.7821 11 44.5573 11C45.7386 11.0011 46.9081 11.235 47.999 11.6882C49.0898 12.1414 50.0806 12.805 50.9147 13.6412C51.7488 14.4773 52.4099 15.4696 52.8601 16.5613C53.3103 17.653 53.5409 18.8226 53.5386 20.0034ZM50.0507 20.0034C50.0507 18.9174 49.7285 17.8558 49.1249 16.9528C48.5213 16.0498 47.6633 15.346 46.6596 14.9304C45.6558 14.5148 44.5512 14.4061 43.4856 14.618C42.42 14.8298 41.4412 15.3528 40.6729 16.1207C39.9047 16.8887 39.3815 17.867 39.1695 18.9322C38.9575 19.9973 39.0663 21.1014 39.4821 22.1047C39.8979 23.1081 40.602 23.9656 41.5054 24.569C42.4088 25.1723 43.4708 25.4944 44.5573 25.4944C46.0136 25.4921 47.4095 24.9128 48.4392 23.8836C49.4689 22.8543 50.0484 21.459 50.0507 20.0034Z" fill="#0B5CFF"/>
</g>
<defs>
<clipPath id="clip0_8445_1359">
<rect width="79" height="40" fill="white"/>
</clipPath>
</defs>
</svg>
