<svg width="123" height="40" viewBox="0 0 123 40" fill="none" xmlns="http://www.w3.org/2000/svg">
<path d="M47.9757 24.9113C47.8767 25.0734 47.6871 25.3248 47.4067 25.6652C47.1429 26.0057 46.7636 26.3543 46.2689 26.711C45.7907 27.0515 45.197 27.3515 44.4879 27.6109C43.7788 27.8703 42.9378 28 41.9649 28C40.7776 28 39.6892 27.7892 38.6998 27.3677C37.7268 26.9299 36.8858 26.33 36.1767 25.568C35.4841 24.8059 34.9482 23.9061 34.5689 22.8684C34.1896 21.8307 34 20.7039 34 19.4878C34 18.3042 34.1896 17.2017 34.5689 16.1803C34.9482 15.1426 35.4841 14.2427 36.1767 13.4807C36.8858 12.7024 37.7268 12.0944 38.6998 11.6567C39.6892 11.2189 40.7776 11 41.9649 11C42.9378 11 43.7788 11.1297 44.4879 11.3891C45.197 11.6485 45.7907 11.9566 46.2689 12.3133C46.7636 12.6538 47.1429 12.9943 47.4067 13.3348C47.6871 13.6753 47.8767 13.9266 47.9757 14.0887L47.0852 14.6967C46.9862 14.567 46.8213 14.3643 46.5905 14.0887C46.3761 13.7969 46.0628 13.505 45.6505 13.2132C45.2547 12.9213 44.76 12.6619 44.1664 12.4349C43.5727 12.2079 42.8554 12.0944 42.0144 12.0944C40.959 12.0944 40.0108 12.289 39.1698 12.6781C38.3452 13.051 37.6444 13.5699 37.0672 14.2346C36.4901 14.8994 36.0448 15.6857 35.7315 16.5937C35.4347 17.4855 35.2863 18.4502 35.2863 19.4878C35.2863 20.5255 35.4429 21.4983 35.7562 22.4063C36.0696 23.298 36.5148 24.0844 37.092 24.7654C37.6691 25.4301 38.3782 25.9571 39.2192 26.3462C40.0602 26.7191 41.0167 26.9056 42.0886 26.9056C42.8636 26.9056 43.5397 26.7921 44.1169 26.5651C44.7106 26.3381 45.2053 26.0787 45.601 25.7868C46.0133 25.495 46.3349 25.2113 46.5657 24.9356C46.8131 24.6438 46.9862 24.433 47.0852 24.3033L47.9757 24.9113Z" fill="#163B65"/>
<path d="M50.9409 11.3887H52.054V27.6105H50.9409V11.3887Z" fill="#163B65"/>
<path d="M55.2847 12.4844H56.843V14.0653H55.2847V12.4844ZM55.5073 16.4244H56.6204V27.6118H55.5073V16.4244Z" fill="#163B65"/>
<path d="M69.7187 25.9564C69.2405 26.5239 68.6139 26.9941 67.8388 27.367C67.0803 27.7237 66.2063 27.902 65.2168 27.902C64.3923 27.902 63.6255 27.7561 62.9164 27.4643C62.2238 27.1562 61.6219 26.7427 61.1107 26.2239C60.5995 25.6889 60.2037 25.0646 59.9234 24.3512C59.6431 23.6216 59.5029 22.8434 59.5029 22.0165C59.5029 21.1896 59.6431 20.4194 59.9234 19.706C60.2202 18.9764 60.6242 18.3522 61.1354 17.8333C61.6466 17.2983 62.2486 16.8849 62.9412 16.593C63.6502 16.2849 64.4088 16.1309 65.2168 16.1309C66.2228 16.1309 67.072 16.3093 67.7646 16.666C68.4737 17.0065 69.0756 17.4848 69.5703 18.1009L68.7293 18.7332C68.35 18.2468 67.8718 17.8658 67.2946 17.5901C66.734 17.2983 66.0414 17.1524 65.2168 17.1524C64.5572 17.1524 63.9471 17.2821 63.3864 17.5415C62.8422 17.8009 62.364 18.1495 61.9517 18.5873C61.556 19.0251 61.2426 19.5439 61.0118 20.1438C60.7974 20.7275 60.6902 21.3517 60.6902 22.0165C60.6902 22.6812 60.8056 23.3136 61.0365 23.9135C61.2674 24.4972 61.5807 25.0079 61.9765 25.4457C62.3887 25.8834 62.8669 26.232 63.4111 26.4914C63.9718 26.7508 64.5737 26.8806 65.2168 26.8806C66.0414 26.8806 66.7669 26.7346 67.3936 26.4428C68.0367 26.1509 68.5479 25.7618 68.9272 25.2754L69.7187 25.9564Z" fill="#163B65"/>
<path d="M72.3188 11.3887H73.4319V22.0168L79.2695 16.4231H80.7289L76.3755 20.5819L81.5947 27.6105H80.2589L75.5839 21.3601L73.4319 23.403V27.6105H72.3188V11.3887Z" fill="#163B65"/>
<path d="M90.8817 21.8949C90.5354 21.8138 90.0984 21.7489 89.5707 21.7003C89.0595 21.6354 88.3998 21.603 87.5918 21.603C86.7508 21.603 86.0829 21.7084 85.5882 21.9192C85.0935 22.1137 84.7142 22.3651 84.4504 22.6731C84.203 22.965 84.0381 23.2892 83.9557 23.6459C83.8897 23.9864 83.8567 24.2945 83.8567 24.5701C83.8567 25.3808 84.1288 25.9726 84.673 26.3455C85.2337 26.7184 85.9428 26.9049 86.8003 26.9049C87.3609 26.9049 87.8886 26.8076 88.3834 26.613C88.8781 26.4185 89.3068 26.1591 89.6696 25.8348C90.0489 25.5105 90.3457 25.1457 90.5601 24.7404C90.7745 24.3188 90.8817 23.8972 90.8817 23.4757V21.8949ZM90.9806 27.6102C90.9641 27.4643 90.9559 27.3021 90.9559 27.1238C90.9394 26.9616 90.9311 26.7671 90.9311 26.5401C90.9311 26.3131 90.9311 26.0456 90.9311 25.7375C90.6343 26.1591 90.3045 26.5158 89.9417 26.8076C89.5954 27.0832 89.2244 27.3021 88.8286 27.4643C88.4493 27.6264 88.07 27.7399 87.6908 27.8047C87.328 27.8696 86.9899 27.902 86.6766 27.902C86.1984 27.902 85.7201 27.8534 85.2419 27.7561C84.7637 27.6588 84.3349 27.4886 83.9557 27.2454C83.5764 26.9859 83.2631 26.6455 83.0157 26.2239C82.7848 25.7861 82.6694 25.2349 82.6694 24.5701C82.6694 24.0351 82.7601 23.5324 82.9415 23.0622C83.1229 22.5758 83.4115 22.1624 83.8072 21.8219C84.203 21.4652 84.7142 21.1896 85.3409 20.995C85.9675 20.7842 86.7261 20.6788 87.6165 20.6788C88.3091 20.6788 88.9275 20.7032 89.4717 20.7518C90.0159 20.8004 90.4776 20.8572 90.8569 20.922V20.2897C90.8569 19.6736 90.7827 19.1629 90.6343 18.7575C90.4859 18.3522 90.2633 18.0279 89.9664 17.7847C89.6696 17.5415 89.3068 17.3713 88.8781 17.274C88.4493 17.1767 87.9546 17.1281 87.3939 17.1281C86.454 17.1281 85.7036 17.2659 85.143 17.5415C84.5988 17.8009 84.1783 18.0522 83.8815 18.2954L83.2878 17.5415C83.6011 17.2497 84.1041 16.9416 84.7967 16.6173C85.5058 16.2931 86.3633 16.1309 87.3692 16.1309C88.8368 16.1309 89.9664 16.439 90.758 17.0551C91.566 17.6712 91.97 18.6927 91.97 20.1195V25.2754C91.97 25.5997 91.97 25.9077 91.97 26.1996C91.97 26.4752 91.9783 26.7184 91.9948 26.9292C92.0113 27.1886 92.0277 27.4156 92.0442 27.6102H90.9806Z" fill="#163B65"/>
<path d="M96.3778 17.4447H94.1021V16.4233H96.3778V12.7266H97.4909V16.4233H101.251V17.4447H97.4909V23.914C97.4909 24.5787 97.5404 25.1138 97.6393 25.5191C97.7383 25.9082 97.8785 26.2082 98.0598 26.419C98.2577 26.6135 98.4804 26.7432 98.7277 26.8081C98.9751 26.873 99.2472 26.9054 99.544 26.9054C99.9563 26.9054 100.311 26.8324 100.608 26.6865C100.904 26.5406 101.201 26.2893 101.498 25.9326L102.191 26.5892C101.861 27.0108 101.482 27.335 101.053 27.562C100.641 27.789 100.096 27.9025 99.4203 27.9025C98.9751 27.9025 98.5628 27.8458 98.1835 27.7323C97.8042 27.635 97.4827 27.4485 97.2188 27.1729C96.955 26.8811 96.7489 26.5 96.6004 26.0298C96.452 25.5434 96.3778 24.9273 96.3778 24.1815V17.4447Z" fill="#163B65"/>
<path d="M114.026 25.9321C113.531 26.5482 112.855 27.0346 111.998 27.3913C111.157 27.7318 110.291 27.902 109.4 27.902C108.559 27.902 107.776 27.7642 107.051 27.4886C106.341 27.1967 105.731 26.7914 105.22 26.2725C104.709 25.7537 104.305 25.1376 104.008 24.4242C103.728 23.6946 103.588 22.892 103.588 22.0165C103.588 21.2058 103.719 20.4437 103.983 19.7303C104.264 19.0169 104.643 18.3927 105.121 17.8577C105.599 17.3226 106.177 16.9011 106.853 16.593C107.529 16.2849 108.271 16.1309 109.079 16.1309C109.854 16.1309 110.571 16.2687 111.231 16.5444C111.907 16.8038 112.484 17.1929 112.962 17.7117C113.457 18.2306 113.836 18.8791 114.1 19.6574C114.381 20.4194 114.521 21.3031 114.521 22.3083H104.824C104.841 22.9406 104.964 23.5405 105.195 24.108C105.426 24.6593 105.74 25.1457 106.135 25.5673C106.531 25.9726 107.001 26.2969 107.545 26.5401C108.106 26.7671 108.724 26.8806 109.4 26.8806C109.747 26.8806 110.101 26.8481 110.464 26.7833C110.843 26.7022 111.206 26.5887 111.552 26.4428C111.899 26.2969 112.212 26.1266 112.492 25.9321C112.789 25.7375 113.037 25.5186 113.234 25.2754L114.026 25.9321ZM113.309 21.3598C113.16 19.9817 112.715 18.9359 111.973 18.2225C111.231 17.5091 110.266 17.1524 109.079 17.1524C108.469 17.1524 107.908 17.2659 107.397 17.4929C106.902 17.7036 106.473 18.0036 106.111 18.3927C105.748 18.7656 105.451 19.2115 105.22 19.7303C105.006 20.233 104.882 20.7761 104.849 21.3598H113.309Z" fill="#163B65"/>
<path d="M117.37 11.3887H118.483V27.6105H117.37V11.3887Z" fill="#163B65"/>
<path d="M121.887 11.3887H123V27.6105H121.887V11.3887Z" fill="#163B65"/>
<path d="M10.6608 24.811C9.9905 25.0911 9.25941 25.2446 8.5 25.2446C5.43102 25.2446 2.82445 22.7374 2.82445 19.5C2.82445 16.2626 5.43102 13.7554 8.5 13.7554C11.3164 13.7554 13.7435 15.8669 14.1238 18.7167L16.9718 20.1968C16.9905 19.967 17 19.7346 17 19.5C17 14.8056 13.1944 11 8.5 11C3.80558 11 0 14.8056 0 19.5C0 24.1944 3.80558 28 8.5 28C9.93812 28 11.2928 27.6429 12.4803 27.0124C11.7758 26.3694 11.1622 25.6284 10.6608 24.811Z" fill="#2AC3ED"/>
<path d="M11.0237 18.8611C11.008 19.072 11 19.2851 11 19.5C11 24.1944 14.8056 28 19.5 28C24.1944 28 28 24.1944 28 19.5C28 14.8056 24.1944 11 19.5 11C18.0619 11 16.7072 11.3571 15.5198 11.9876C16.2242 12.6306 16.8378 13.3716 17.3392 14.189C18.0095 13.9089 18.7406 13.7554 19.5 13.7554C22.569 13.7554 25.1755 16.2626 25.1755 19.5C25.1755 22.7374 22.569 25.2446 19.5 25.2446C16.705 25.2446 14.2935 23.165 13.8852 20.3482L11.0237 18.8611Z" fill="#8CC63E"/>
</svg>
