<svg width="106" height="40" viewBox="0 0 106 40" fill="none" xmlns="http://www.w3.org/2000/svg">
<path d="M54.0625 27H49V28H54.0625V27Z" fill="#8A8B8A"/>
<path d="M61.4809 27H56.4185V28H61.4809V27Z" fill="#8A8B8A"/>
<path d="M68.9082 27H63.8457V28H68.9082V27Z" fill="#8A8B8A"/>
<path d="M76.3266 27H71.2642V28H76.3266V27Z" fill="#8A8B8A"/>
<path d="M83.7451 27H78.6826V28H83.7451V27Z" fill="#8A8B8A"/>
<path d="M91.1631 27H86.1006V28H91.1631V27Z" fill="#8A8B8A"/>
<path d="M98.5814 27H93.519V28H98.5814V27Z" fill="#8A8B8A"/>
<path d="M106 27H100.938V28H106V27Z" fill="#8A8B8A"/>
<path d="M77.511 25.4398C76.9544 24.8832 82.5843 20.385 84.2815 20.6131C83.6337 22.5657 78.0676 25.9963 77.511 25.4398ZM84.1355 27.3102C85.3787 25.1049 86.3529 22.7585 87.0372 20.3212C87.0372 19.0529 85.8875 18.3869 84.6465 18.3869C80.5678 18.3869 73.9889 25.3394 72.6019 25.3394C71.0233 25.3394 73.4414 22.0091 73.4414 20.7044C73.4414 19.8376 72.6658 18.9434 72.0453 18.9434C70.8408 18.9434 67.0358 22.5931 64.5448 23.396C65.0196 22.6413 65.3074 21.7842 65.3843 20.896C65.3843 16.4434 52.7648 18.1588 52.7648 15.6405C52.7648 13.396 60.6577 9.52737 65.2839 9.52737C65.9317 9.52737 70.193 9.81022 70.193 11.2883C70.193 11.8449 69.2805 12.0274 69.2805 12.5839C69.2805 13.1405 69.7459 13.2318 70.3025 13.2318C70.5046 13.2171 70.7018 13.1617 70.882 13.069C71.0623 12.9762 71.2219 12.8481 71.3514 12.6922C71.481 12.5362 71.5777 12.3558 71.6357 12.1616C71.6938 11.9674 71.7121 11.7635 71.6894 11.562C71.6894 7.78467 68.4045 7 65.7584 7C58.924 7 50.8304 12.9307 50.8304 15.6223C50.8304 19.1442 62.3275 18.4964 62.3275 21.6533C62.3275 25.4489 50 28.8796 50 29.8102C50 30.7409 50.657 30.6496 51.3961 30.6496C56.4055 30.6496 69.5634 22.3011 70.6766 21.188C70.7678 23.1314 69.9466 24.9836 69.9466 25.8139C69.9466 26.6442 70.5853 27.7755 71.5252 27.7755C72.465 27.7755 73.8429 26.3796 75.8868 25.2755C75.7955 25.9234 76.3521 26.9453 77.0912 26.9453C78.6698 26.9453 83.4785 23.0493 84.391 22.3832C84.0799 24.0375 83.3932 25.5983 82.3836 26.9453C81.8687 26.8082 81.3378 26.7407 80.805 26.7445C78.8888 26.7445 73.5965 32.3467 73.5965 34.9562C73.5965 35.9781 74.1531 37 75.1751 37C76.5894 37 81.6992 32.7938 83.588 28.5055C84.4184 28.5967 85.7688 29.2172 85.7688 28.5602C85.7688 27.9033 84.8564 27.4653 84.1446 27.2828L84.1355 27.3102ZM75.6222 34.7828C75.2937 34.7828 75.0929 34.6369 75.0929 33.8704C75.0929 31.489 80.0568 28.1131 81.7813 28.1131C80.7776 30.3668 76.5346 34.7828 75.6222 34.7828ZM74.0162 13.7974C74.0162 13.4901 74.1383 13.1954 74.3556 12.9781C74.573 12.7608 74.8677 12.6387 75.1751 12.6387C75.4824 12.6387 75.7772 12.7608 75.9945 12.9781C76.2118 13.1954 76.3339 13.4901 76.3339 13.7974C76.3339 14.1048 76.2118 14.3995 75.9945 14.6168C75.7772 14.8341 75.4824 14.9562 75.1751 14.9562C74.8677 14.9562 74.573 14.8341 74.3556 14.6168C74.1383 14.3995 74.0162 14.1048 74.0162 13.7974ZM89.5282 22.7847C88.8804 23.6241 87.2105 25.5219 87.2105 26.3066C87.2105 27.0912 87.5847 27.5109 88.123 27.5109C89.51 27.5109 94.0541 22.0365 96.1893 22.0365C97.7678 22.0365 95.1764 27.6934 98.6073 27.6934C99.8483 27.6934 104 24.9562 104 23.3595C104 23.0766 103.708 22.5931 103.334 22.5931C103.115 22.5931 100.277 26.0237 99.0727 26.0237C98.0507 26.0237 99.0727 23.8978 99.0727 22.5018C99.0727 21.1058 98.8445 19.8102 97.4028 19.8102C95.4593 19.8102 92.6671 22.3102 92.0284 22.6843C92.2551 22.3219 92.384 21.907 92.4025 21.4799C92.3394 21.0686 92.141 20.69 91.8386 20.4041C91.5361 20.1182 91.147 19.9413 90.7327 19.9015C90.0939 19.9015 86.6631 21.6624 86.6631 23.9161C86.6631 24.4726 88.6979 22.5018 89.5282 22.7847Z" fill="#272726"/>
<path d="M0 27.7513H5.4649C10.019 27.7513 14.0539 25.1828 14.0539 20.4152C14.0539 15.0231 9.937 13 5.00949 13H0V27.7513ZM3.36091 15.9995H5.3556C8.19734 15.9995 10.6019 17.3541 10.6019 20.2569C10.6019 23.6083 8.25199 24.7606 5.137 24.7606H3.36091V15.9995Z" fill="#214288"/>
<path d="M14.8281 22.684C14.8281 25.921 17.4148 27.9618 20.6482 27.9618C23.8816 27.9618 26.4774 25.877 26.4774 22.684C26.4774 19.4909 23.8907 17.4062 20.6482 17.4062C17.4057 17.4062 14.8281 19.4909 14.8281 22.684ZM18.0615 22.684C18.034 22.3737 18.0703 22.0614 18.1681 21.7647C18.2659 21.468 18.4234 21.1928 18.6316 20.955C18.8397 20.7172 19.0944 20.5213 19.3811 20.3788C19.6678 20.2362 19.9807 20.1497 20.3021 20.1243H20.6482C20.9988 20.1042 21.3498 20.1571 21.6774 20.2795C22.005 20.4019 22.3015 20.5909 22.5468 20.8336C22.7921 21.0764 22.9806 21.3674 23.0993 21.6866C23.218 22.0059 23.2643 22.3459 23.2349 22.684C23.2641 23.0224 23.2178 23.363 23.0992 23.6826C22.9805 24.0023 22.7923 24.2937 22.5471 24.5371C22.3019 24.7805 22.0056 24.9703 21.678 25.0938C21.3504 25.2172 20.9993 25.2713 20.6482 25.2526C20.2967 25.2727 19.9449 25.2197 19.6166 25.0968C19.2883 24.9739 18.9913 24.784 18.7459 24.5402C18.5004 24.2965 18.3122 24.0045 18.1941 23.6842C18.076 23.3638 18.0308 23.0227 18.0615 22.684Z" fill="#214288"/>
<path d="M36.952 18.736C35.9405 17.8272 34.5986 17.3404 33.2177 17.3813C29.9752 17.3813 27.3975 19.466 27.3975 22.6591C27.3975 25.8521 29.9843 27.9368 33.2177 27.9368C34.5986 27.9778 35.9405 27.491 36.952 26.5822L34.8116 24.4095C34.6245 24.643 34.3862 24.8336 34.1137 24.9674C33.8412 25.1013 33.5414 25.1751 33.2359 25.1836C32.8844 25.2039 32.5326 25.1507 32.2043 25.0278C31.876 24.9049 31.579 24.7151 31.3335 24.4714C31.0881 24.2276 30.8999 23.9356 30.7818 23.6153C30.6637 23.295 30.6184 22.9538 30.6492 22.6151C30.6198 22.2771 30.6661 21.9369 30.7848 21.6176C30.9035 21.2984 31.0919 21.0075 31.3372 20.7648C31.5826 20.522 31.8791 20.333 32.2067 20.2106C32.5342 20.0882 32.8852 20.0353 33.2359 20.0554C33.5425 20.0588 33.8441 20.1304 34.1174 20.2646C34.3906 20.3989 34.6282 20.5922 34.8116 20.8295L36.952 18.6656" fill="#214288"/>
<path d="M47.9998 17.6612H44.7573V22.7015C44.7573 24.0209 44.5023 25.2876 42.8173 25.2876C41.1322 25.2876 41.1414 23.7658 41.1414 22.6487V17.6612H37.8989V23.2028C37.8989 25.9121 38.5 27.9968 41.788 27.9968C42.4031 28.0196 43.0129 27.8801 43.5521 27.5934C44.0913 27.3067 44.5394 26.8836 44.8484 26.3695V27.7417H47.9998V17.5996" fill="#214288"/>
</svg>
