<svg width="111" height="40" viewBox="0 0 111 40" fill="none" xmlns="http://www.w3.org/2000/svg">
<path fill-rule="evenodd" clip-rule="evenodd" d="M82.9414 18.8627V26.4289H87.9016C89.2915 26.4289 90.3802 26.0948 91.1736 25.4282C91.967 24.761 92.3608 23.8275 92.3608 22.627C92.3608 21.5284 92.0018 20.6249 91.2837 19.9207C90.5655 19.2154 89.5231 18.8627 88.1564 18.8627H82.9414ZM87.2692 17.5753C88.6301 17.5753 89.6783 17.2817 90.4254 16.6968C91.1667 16.1118 91.5431 15.2501 91.5431 14.1139C91.5431 12.9516 91.1435 12.0777 90.3559 11.4933C89.5625 10.9073 88.4043 10.6154 86.8927 10.6154H82.9373V17.5753H87.2692ZM81.4027 27.7175V9.32623H86.8927C88.8444 9.32623 90.3675 9.7293 91.4562 10.5337C92.545 11.3387 93.0894 12.5491 93.0894 14.1671C93.0894 15.1111 92.8114 15.9323 92.267 16.6319C91.7168 17.3309 90.9756 17.815 90.0374 18.0843C91.1841 18.287 92.1106 18.814 92.823 19.6653C93.5353 20.5167 93.8943 21.5012 93.8943 22.6073C93.8943 24.252 93.35 25.5145 92.2612 26.3948C91.1725 27.2808 89.7131 27.7209 87.8888 27.7209H81.3911L81.4027 27.7175ZM95.3769 13.9401H96.8479V27.7175H95.3769V13.9401ZM95.3769 7.85352H96.8479V9.99338H95.3769V7.85352ZM109.293 21.2487C109.293 19.443 108.952 17.9743 108.28 16.845C107.602 15.7157 106.606 15.154 105.28 15.154C104.226 15.154 103.375 15.4262 102.732 15.9647C102.083 16.5091 101.608 17.1983 101.296 18.0496V24.4489C101.632 25.2713 102.135 25.9199 102.807 26.4063C103.473 26.8928 104.307 27.136 105.303 27.136C106.624 27.136 107.62 26.6322 108.286 25.6187C108.952 24.6053 109.282 23.2501 109.282 21.5359V21.2637L109.293 21.2487ZM110.822 21.5209C110.822 23.6323 110.359 25.3141 109.432 26.5708C108.506 27.8246 107.226 28.453 105.599 28.453C104.597 28.453 103.734 28.2468 103.004 27.8333C102.28 27.4221 101.69 26.8291 101.244 26.0554L101.076 28.179H99.7782V7.85526H101.29V16.2972C101.742 15.5078 102.327 14.8957 103.033 14.4671C103.74 14.0374 104.579 13.822 105.558 13.822C107.203 13.822 108.483 14.4996 109.409 15.8489C110.336 17.2041 110.799 18.9993 110.799 21.2521V21.5243L110.822 21.5209Z" fill="#6D6E71"/>
<path fill-rule="evenodd" clip-rule="evenodd" d="M33.0436 19.1916V25.7588H42.4138V27.7174H30.6431V9.32617H42.28V11.2836H33.043V17.233H41.1716V19.1922L33.0436 19.1916ZM48.457 26.2789C49.3268 26.2789 50.1115 26.0391 50.8105 25.5596C51.5101 25.0818 51.9647 24.5323 52.1761 23.9137V21.6146H49.4814C48.5143 21.6146 47.7383 21.8764 47.1534 22.3982C46.5685 22.9194 46.2789 23.5333 46.2789 24.2398C46.2789 24.8652 46.4584 25.3633 46.8291 25.7281C47.1939 26.093 47.7325 26.2783 48.4506 26.2783L48.457 26.2789ZM52.435 28.1778C52.3539 27.7493 52.2902 27.3729 52.2439 27.0428C52.1975 26.7127 52.1686 26.3825 52.1628 26.0524C51.7169 26.73 51.132 27.3034 50.4138 27.7609C49.6957 28.2184 48.9197 28.45 48.0916 28.45C46.7132 28.45 45.6708 28.0678 44.9527 27.3149C44.2288 26.5563 43.8697 25.5197 43.8697 24.1877C43.8697 22.8325 44.3794 21.7727 45.3986 21.0083C46.4179 20.2438 47.802 19.8616 49.5509 19.8616H52.157V18.4665C52.157 17.6372 51.9196 16.9799 51.4505 16.4952C50.9756 16.0104 50.3096 15.7678 49.4467 15.7678C48.6765 15.7678 48.0452 15.9792 47.5645 16.4037C47.0781 16.8276 46.8406 17.3361 46.8406 17.9302H44.5473L44.5242 17.8492C44.472 16.8183 44.9237 15.8755 45.8793 15.019C46.8349 14.1636 48.0684 13.7351 49.5799 13.7351C51.074 13.7351 52.2786 14.1434 53.1878 14.9599C54.0971 15.7765 54.5488 16.9533 54.5488 18.4903V25.3181C54.5488 25.8278 54.5719 26.3142 54.6183 26.7891C54.6646 27.264 54.7573 27.7273 54.8847 28.179H52.4118L52.435 28.1778ZM64.3186 24.4019C64.3186 23.8344 64.1217 23.3653 63.7221 23.0005C63.3283 22.6298 62.5812 22.3113 61.4751 22.0449C59.8999 21.6685 58.7185 21.1589 57.9251 20.5218C57.1317 19.879 56.7321 19.0045 56.7321 17.8984C56.7321 16.7459 57.178 15.7672 58.0699 14.9564C58.9617 14.1399 60.1315 13.7403 61.5678 13.7403C63.0735 13.7403 64.2723 14.163 65.1641 15.0086C66.056 15.8541 66.4787 16.8849 66.4382 18.1011L66.415 18.1764H64.168C64.168 17.5567 63.9306 17.0007 63.4557 16.5027C62.9808 16.0047 62.3496 15.7614 61.5678 15.7614C60.728 15.7614 60.1084 15.9583 59.6972 16.3637C59.2918 16.7633 59.0833 17.2498 59.0833 17.8173C59.0833 18.3733 59.2628 18.8134 59.6219 19.1377C59.981 19.462 60.7107 19.7516 61.8168 20.0006C63.4499 20.3828 64.6661 20.904 65.4653 21.5642C66.2644 22.2244 66.6641 23.1047 66.6641 24.2166C66.6641 25.4733 66.2008 26.4926 65.2684 27.2686C64.336 28.0446 63.1256 28.4327 61.6257 28.4327C59.9752 28.4327 58.6721 27.9751 57.7224 27.0543C56.7726 26.1393 56.3209 25.0679 56.3672 23.846L56.3904 23.7649H58.6432C58.6837 24.6799 58.9907 25.3459 59.5756 25.7629C60.1547 26.1856 60.8381 26.3941 61.6199 26.3941C62.4596 26.3941 63.114 26.2088 63.5889 25.8382C64.0696 25.4675 64.3012 24.9753 64.3012 24.373L64.3186 24.4019ZM73.1502 22.2824L73.5962 23.9908H73.6714L77.0825 13.7055H79.8936L74.0774 29.4409C73.7253 30.3559 73.2232 31.1528 72.5682 31.8327C71.9138 32.5126 71.0277 32.8519 69.9158 32.8519C69.7108 32.8519 69.4508 32.8288 69.134 32.7824C68.8155 32.7361 68.5723 32.6933 68.4014 32.6493L68.662 30.6976C68.6099 30.6901 68.7605 30.6976 69.1137 30.7237C69.467 30.748 69.6929 30.7584 69.7855 30.7584C70.3241 30.7584 70.7642 30.5233 71.1059 30.0519C71.4476 29.5828 71.7314 29.0616 71.963 28.4906L72.5653 27.0659L67.4111 13.7287H70.2314L73.156 22.2997" fill="#F15B2B"/>
<path fill-rule="evenodd" clip-rule="evenodd" d="M8.75224 31.0339L0 7.53414C0 7.53414 1.90859 6.26784 2.65104 6.026C3.39222 5.78542 16.3975 7.29355 16.3975 7.29355L24 28.6043C24 28.6043 15.944 28.5638 12.3284 28.5638C11.8014 28.5638 9.4951 30.1883 9.43253 30.431C9.3687 30.6712 21.0197 31.2149 21.2066 31.2149C21.3889 31.2149 21.5761 30.973 21.7592 30.9117C21.9448 30.8534 22.2548 32 22.0087 32C21.7592 32 8.75224 31.0368 8.75224 31.0368" fill="#F15B2B"/>
</svg>
