<svg width="106" height="40" viewBox="0 0 106 40" fill="none" xmlns="http://www.w3.org/2000/svg">
<path fill-rule="evenodd" clip-rule="evenodd" d="M52.7757 15.9822C51.333 15.8343 50.0848 16.254 49.0297 17.4724V10L45.209 10.4442V27.7397H49.0297V26.7131C49.5449 27.0662 50.0462 27.4914 50.6325 27.6929C52.8587 28.459 55.7941 27.8345 56.8211 24.9755C57.4804 23.1414 57.4632 21.261 56.9668 19.4063C56.4164 17.3459 54.9883 16.2085 52.7757 15.9822ZM53.3467 23.4727C53.1786 24.6131 52.2332 25.2107 51.111 25.1268C50.8305 25.1057 50.5768 25.0505 50.349 24.965C49.4444 24.4664 49.171 23.6316 49.0916 23.1073C49.0907 23.1077 49.0898 23.1077 49.0898 23.1081C49.0279 22.2969 48.9612 20.6006 49.3733 19.7991C49.7231 19.1846 50.3337 18.85 51.1434 18.8243C52.2938 18.7881 53.1642 19.3359 53.3353 20.4569C53.4872 21.4448 53.4942 22.4857 53.3467 23.4727Z" fill="#3B5998"/>
<path fill-rule="evenodd" clip-rule="evenodd" d="M66.3162 16.1953C64.9885 15.8543 63.6476 15.8585 62.323 16.1974C60.3392 16.7043 59.0097 17.9096 58.5814 19.8267C58.3474 20.8727 58.3009 21.9849 58.3628 23.0574C58.5041 25.511 60.0842 27.2586 62.5368 27.8014C62.571 27.8094 62.607 27.8153 62.6421 27.8229H62.6412C62.6412 27.8229 62.6483 27.8242 62.6592 27.8263C62.7536 27.8444 62.848 27.8613 62.9428 27.8752C62.9744 27.8777 63.0068 27.8802 63.038 27.8832C63.0389 27.8832 63.0398 27.8832 63.0406 27.8832C63.1596 27.9043 63.3022 27.9199 63.4523 27.9312C63.9325 27.9801 64.5435 28.0151 65.0535 27.9574C65.057 27.9574 65.0587 27.9565 65.0614 27.9561C65.0873 27.9557 65.1136 27.9557 65.1395 27.954C67.672 27.8276 69.5935 26.2944 70.1544 23.9424C70.4621 22.6524 70.4621 21.3561 70.1645 20.0652C69.6988 18.039 68.419 16.7355 66.3162 16.1953ZM66.4777 23.2862C66.465 23.3625 66.4518 23.4379 66.4338 23.513C66.1801 24.5952 65.3616 25.181 64.27 25.1321C63.0964 25.0807 62.2914 24.422 62.1782 23.2959C62.0966 22.4733 62.09 21.6334 62.1611 20.8103C62.2726 19.5111 63.1188 18.8005 64.3881 18.8246C65.4314 18.8439 66.1744 19.4116 66.4395 20.3746C66.68 21.3434 66.5014 23.0658 66.4777 23.2862Z" fill="#3B5998"/>
<path fill-rule="evenodd" clip-rule="evenodd" d="M6.23465 16.1348V14.3934C6.43391 12.7473 9.26573 13.06 9.26573 13.06L9.26661 12.9475L9.26573 12.9349V10.231H9.26529V10.2305H9.2631C9.16566 10.2082 3.63019 8.94692 2.53073 12.9922C2.53073 12.993 2.53073 12.9943 2.52941 12.9951C2.52722 13.004 2.52458 13.0128 2.52239 13.0217C2.34946 13.5274 2.36131 15.8436 2.36351 16.1348H0V19.2319H2.5101V27.6562H6.1653V19.2319H8.96113L9.27582 16.1348H6.23465Z" fill="#3B5998"/>
<path fill-rule="evenodd" clip-rule="evenodd" d="M17.6786 17.6166C17.6338 17.569 17.5895 17.5231 17.5513 17.4847C17.5451 17.4788 17.5403 17.4733 17.5342 17.4674C17.4811 17.4143 17.4438 17.3789 17.4438 17.3789C16.5831 16.5386 16.2583 16.3296 15.5841 16.1387C12.9915 15.4054 10.4674 16.7089 9.66815 19.2134C9.17701 20.7525 9.16999 22.3366 9.45791 23.8951C10.0798 27.2703 12.6944 28.4006 15.481 27.8435C16.336 27.6723 16.9715 27.1612 17.5609 26.4494C17.5609 26.4494 17.614 26.387 17.679 26.2656V27.7507H21.2447V16.1479H17.679L17.6786 17.6166ZM17.3648 23.4555C17.2454 24.5285 16.3412 25.1729 15.2725 25.1324C14.1774 25.0915 13.4528 24.5285 13.2162 23.5196C12.9327 22.0842 13.2645 20.3787 13.2926 20.2404C13.5788 19.2771 14.3087 18.8004 15.3796 18.8244C16.4312 18.8472 17.2419 19.4448 17.3604 20.4908C17.4714 21.4693 17.474 22.4765 17.3648 23.4555Z" fill="#3B5998"/>
<path fill-rule="evenodd" clip-rule="evenodd" d="M32.1351 26.9195C31.9696 26.3383 31.7813 25.7652 31.5992 25.2114L31.4271 24.5957C31.4271 24.5957 26.9582 26.6556 26.2612 22.7414C26.1967 22.0953 26.2165 21.4286 26.3091 20.791C26.4829 19.5878 27.2474 18.9435 28.4636 18.8331C28.8745 18.7956 29.302 18.8145 29.7088 18.8807C30.2627 18.9704 30.8034 19.1306 31.4096 19.2743C31.6203 18.6552 31.8358 18.0429 32.0363 17.4263C32.0679 17.3298 32.0943 17.2464 32.1149 17.1718L32.2158 16.8014C32.1908 16.752 32.1298 16.7011 32.0482 16.6513C32.0482 16.6513 32.0482 16.6513 32.0482 16.6517C31.9455 16.5691 31.7704 16.5005 31.4969 16.4044C31.3876 16.366 31.2779 16.3319 31.1682 16.299C31.0699 16.2691 31.0058 16.2514 31.0058 16.2514C29.8317 15.929 28.6269 15.9041 27.4024 16.028C24.8216 16.2897 23.0699 17.7521 22.5841 20.166C22.3291 21.4362 22.3409 22.722 22.6337 23.996C23.0721 25.9038 24.2765 27.1365 26.2344 27.6877C27.5121 28.0472 28.8214 28.0653 30.124 27.8702C30.6718 27.788 31.4574 27.5154 32.0214 27.3211L32.236 27.2486L32.1346 26.9186L32.1351 26.9195Z" fill="#3B5998"/>
<path fill-rule="evenodd" clip-rule="evenodd" d="M43.8995 22.3802C43.8824 21.577 43.8938 20.77 43.7753 19.9806C43.4492 17.8162 42.0768 16.4465 39.8572 16.0887C39.0101 15.9526 38.1143 15.9707 37.2536 16.0495C34.898 16.2653 33.1099 17.6741 32.7435 19.7943C32.5209 21.0805 32.4924 22.4456 32.6724 23.7372C32.944 25.6805 33.9294 26.9182 35.6341 27.5124C35.6345 27.5124 35.6345 27.5124 35.635 27.5124C35.6424 27.5128 35.6499 27.5141 35.6573 27.5149C35.6565 27.5158 35.6569 27.5158 35.6565 27.5162C36.4346 27.7396 40.243 28.6958 43.6002 27.0762L43.4655 26.6017C43.4642 26.6025 43.462 26.6025 43.4606 26.6025C43.3053 25.9696 43.1183 25.3433 42.9423 24.7158L42.9234 24.6543C42.9234 24.6543 42.8536 24.6783 42.7299 24.7162C42.7272 24.7166 42.7237 24.7166 42.7211 24.7171C42.5745 24.7537 42.4297 24.7967 42.2857 24.8431C42.2589 24.8515 42.2326 24.8595 42.2058 24.8671C41.6976 25.0045 40.9712 25.1739 40.204 25.2687C39.5601 25.3311 38.9096 25.3336 38.253 25.2797C37.1869 25.1103 36.371 24.562 36.4101 23.2657H37.0193C39.1093 23.2657 41.199 23.2657 43.2895 23.2652C43.3391 23.2652 43.3895 23.2657 43.4391 23.2648L43.4387 23.2657C43.4387 23.2657 43.8877 23.2602 43.9066 23.256C43.9066 23.256 43.9061 23.1422 43.9066 23.1283L43.8995 22.3802ZM40.4629 20.7982H36.3346C36.3561 20.0097 36.4588 19.2768 37.1887 18.8305C37.9638 18.3577 38.8201 18.34 39.6171 18.7639C40.423 19.1913 40.4862 19.9633 40.4629 20.7982Z" fill="#3B5998"/>
<path fill-rule="evenodd" clip-rule="evenodd" d="M95.9999 16.2685H91.9471L88.427 21.5524V10.0098L84.6064 10.4544V27.7503H88.427V22.4572L91.9471 27.7579H95.9999L92.1801 22.0037L95.9999 16.2685Z" fill="#3B5998"/>
<path fill-rule="evenodd" clip-rule="evenodd" d="M79.3475 16.1937C78.0198 15.8523 76.6781 15.8565 75.3535 16.1954C73.3705 16.7028 72.041 17.9076 71.6127 19.8243C71.3787 20.8707 71.3321 21.9824 71.394 23.0554C71.5344 25.509 73.1155 27.257 75.5672 27.7994C75.6023 27.8074 75.6383 27.8133 75.6734 27.8209H75.6725C75.6725 27.8209 75.6786 27.8222 75.6896 27.8243C75.7839 27.8424 75.8793 27.8593 75.9741 27.8728C76.0057 27.8757 76.0376 27.8787 76.0692 27.8803C76.0701 27.8812 76.0711 27.8812 76.0719 27.8812C76.1918 27.9023 76.3335 27.9183 76.4828 27.9296C76.9638 27.9785 77.5756 28.0135 78.0848 27.9558C78.0874 27.9549 78.089 27.9549 78.0926 27.9541C78.1193 27.9537 78.1449 27.9537 78.1699 27.9524C80.7028 27.8256 82.6248 26.292 83.1857 23.9408C83.4934 22.6508 83.4934 21.3541 83.1967 20.0632C82.7293 18.037 81.4503 16.7335 79.3475 16.1937ZM79.5085 23.2842C79.4957 23.3609 79.4826 23.4359 79.4647 23.5114C79.2101 24.5936 78.3924 25.1786 77.3009 25.1305C76.1272 25.0778 75.3223 24.4196 75.2091 23.2939C75.1274 22.4717 75.12 21.6318 75.1911 20.8087C75.3043 19.5091 76.1496 18.7985 77.4198 18.8226C78.4613 18.8419 79.2052 19.4096 79.4703 20.3726C79.7099 21.341 79.5326 23.0642 79.5085 23.2842Z" fill="#3B5998"/>
</svg>
