<svg width="110" height="40" viewBox="0 0 110 40" fill="none" xmlns="http://www.w3.org/2000/svg">
<path d="M46.4884 13H44V24.9C44 26.5 44.7918 27 45.9229 27H57.5125C57.5125 25.9286 57.5125 25.75 57.5125 24.9H55.7445V13H53.2561V24.9H47.431C46.6769 24.9 46.4884 24.7 46.4884 23.9V13Z" fill="#72B635"/>
<path d="M69.5611 24.9H62.4163C61.6623 24.9 61.4738 24.7 61.4738 23.9V20.9H69.2971V18.8H61.4738V16.1C61.4738 15.3 61.6623 15.1 62.4163 15.1H69.4857V13H60.9081C59.777 13 58.9854 13.5 58.9854 15.1V24.9C58.9854 26.5 59.777 27 60.9081 27H69.5611V24.9Z" fill="#72B635"/>
<path d="M83.1034 13H80.615V18.74H73.753V13H71.2646V27H73.753V20.84H80.615V27H83.1034V13Z" fill="#72B635"/>
<path d="M91.8703 27V15.1H97.0356V13H84.2354V15.1H89.3819V27H91.8703Z" fill="#72B635"/>
<path d="M98.1611 27H100.65V22.04H106.644C109.472 22.04 110 19.9 110 17.5C110 15.1 109.472 13 106.644 13H100.084C98.9528 13 98.1611 13.5 98.1611 15.1V27ZM100.65 19.94V16.1C100.65 15.3 100.838 15.1 101.592 15.1H105.419C107.116 15.1 107.436 15.9 107.436 17.5C107.436 19.1 107.116 19.94 105.419 19.94H100.65Z" fill="#72B635"/>
<path d="M0.163973 26.8434H8.18044C10.1481 26.8434 10.9133 25.3378 10.9133 23.3238C10.9133 21.173 10.1117 20.3322 8.25332 19.7065L3.58919 18.1228C2.56891 17.7708 2.47782 17.1842 2.47782 16.578C2.47782 15.6004 2.95152 15.2094 3.55275 15.2094H10.2574V13.1562H2.91508C0.892743 13.1562 0 14.5054 0 16.4607C0 18.3378 0.49192 19.4915 2.16809 20.0586L7.1966 21.7597C8.30798 22.1312 8.43551 22.7764 8.43551 23.3044C8.43551 23.7736 8.38085 24.7904 7.23304 24.7904H0.163973V26.8434Z" fill="#0456A2"/>
<path d="M25.583 16.2263C25.6377 16.0698 25.7652 15.7765 25.8927 15.7765C25.9656 15.7765 26.1114 15.8156 26.1114 16.1872L26.0385 26.8436H28.4434V14.7989C28.4434 13.5475 27.66 13 26.3846 13C24.9271 13 24.4898 13.8017 24.1437 14.7598L20.846 23.8911C20.7185 24.1844 20.6274 24.3994 20.4998 24.3994C20.3723 24.3994 20.2812 24.1844 20.1537 23.8911L16.856 14.7598C16.5098 13.8017 16.0726 13 14.615 13C13.3397 13 12.5562 13.5475 12.5562 14.7989V26.8436H14.9612L14.9065 16.1872C14.9065 16.1285 14.9065 15.7765 15.1069 15.7765C15.2345 15.7765 15.362 16.0698 15.4167 16.2263L18.6779 25.3575C19.0605 26.4134 19.4067 27 20.4998 27C21.593 27 21.9391 26.4134 22.3218 25.3575L25.583 16.2263Z" fill="#0456A2"/>
<path d="M30.2508 26.8434H38.2673C40.235 26.8434 41.0002 25.3378 41.0002 23.3238C41.0002 21.173 40.1986 20.3322 38.3402 19.7065L33.6761 18.1228C32.6558 17.7708 32.5647 17.1842 32.5647 16.578C32.5647 15.6004 33.0384 15.2094 33.6396 15.2094H40.3443V13.1562H33.002C30.9796 13.1562 30.0869 14.5054 30.0869 16.4607C30.0869 18.3378 30.5788 19.4915 32.255 20.0586L37.2835 21.7597C38.3948 22.1312 38.5224 22.7764 38.5224 23.3044C38.5224 23.7736 38.4677 24.7904 37.3199 24.7904H30.2508V26.8434Z" fill="#0456A2"/>
</svg>
