<svg width="106" height="40" viewBox="0 0 106 40" fill="none" xmlns="http://www.w3.org/2000/svg">
<path d="M35.5299 26.9991V15.4802H31.416V13.1348H42.4337V15.4802H38.3293V26.9991H35.5299Z" fill="black"/>
<path d="M44.6659 27.0006L41.4883 16.957H44.0701L45.9521 23.5392L47.6828 16.957H50.2457L51.9196 23.5392L53.8394 16.957H56.4591L53.2342 27.0006H50.6807L48.95 20.5413L47.2477 27.0006H44.6659Z" fill="black"/>
<path d="M57.8682 15.5937V13.1348H60.5257V15.5937H57.8682ZM57.8682 26.9991V16.9555H60.5257V26.9991H57.8682Z" fill="black"/>
<path d="M67.8643 16.9567V19.0751H66.0485V23.1228C66.0485 23.9425 66.0643 24.4216 66.0958 24.5603C66.1336 24.6927 66.2124 24.8031 66.3322 24.8913C66.4583 24.9796 66.6096 25.0237 66.7862 25.0237C67.0321 25.0237 67.3883 24.9386 67.8549 24.7684L68.0818 26.8301C67.464 27.0949 66.7641 27.2273 65.9823 27.2273C65.5032 27.2273 65.0713 27.1485 64.6867 26.9908C64.3021 26.8269 64.0184 26.6188 63.8355 26.3667C63.659 26.1082 63.536 25.7614 63.4667 25.3264C63.41 25.0174 63.3816 24.3932 63.3816 23.4538V19.0751H62.1616V16.9567H63.3816V14.9612L66.0485 13.4102V16.9567H67.8643Z" fill="black"/>
<path d="M74.314 16.9567V19.0751H72.4983V23.1228C72.4983 23.9425 72.514 24.4216 72.5455 24.5603C72.5834 24.6927 72.6622 24.8031 72.782 24.8913C72.9081 24.9796 73.0594 25.0237 73.2359 25.0237C73.4818 25.0237 73.838 24.9386 74.3046 24.7684L74.5316 26.8301C73.9137 27.0949 73.2139 27.2273 72.4321 27.2273C71.9529 27.2273 71.521 27.1485 71.1364 26.9908C70.7518 26.8269 70.4681 26.6188 70.2853 26.3667C70.1087 26.1082 69.9858 25.7614 69.9164 25.3264C69.8597 25.0174 69.8313 24.3932 69.8313 23.4538V19.0751H68.6113V16.9567H69.8313V14.9612L72.4983 13.4102V16.9567H74.314Z" fill="black"/>
<path d="M81.9745 23.8025L84.6225 24.247C84.2821 25.218 83.743 25.9588 83.0053 26.4695C82.274 26.9739 81.3566 27.2261 80.2533 27.2261C78.5069 27.2261 77.2144 26.6555 76.3758 25.5143C75.7138 24.6001 75.3828 23.4463 75.3828 22.053C75.3828 20.3885 75.8178 19.0865 76.6879 18.1471C77.558 17.2014 78.6582 16.7285 79.9885 16.7285C81.4827 16.7285 82.6617 17.2235 83.5255 18.2133C84.3893 19.1969 84.8022 20.7069 84.7644 22.7433H78.1065C78.1254 23.5314 78.3398 24.1462 78.7496 24.5875C79.1594 25.0225 79.6701 25.24 80.2817 25.24C80.6978 25.24 81.0477 25.1266 81.3314 24.8996C81.6151 24.6726 81.8295 24.3069 81.9745 23.8025ZM82.1258 21.1167C82.1069 20.3475 81.9083 19.7643 81.53 19.3671C81.1517 18.9636 80.6915 18.7618 80.1493 18.7618C79.5692 18.7618 79.09 18.973 78.7118 19.3955C78.3335 19.8179 78.1475 20.3916 78.1538 21.1167H82.1258Z" fill="black"/>
<path d="M89.4837 26.9991H86.8262V16.9555H89.2945V18.3835C89.7169 17.7089 90.0952 17.2644 90.4294 17.0501C90.7698 16.8357 91.1544 16.7285 91.5832 16.7285C92.1884 16.7285 92.7716 16.8956 93.3327 17.2298L92.51 19.5468C92.0623 19.2568 91.6462 19.1118 91.2616 19.1118C90.8896 19.1118 90.5744 19.2158 90.3159 19.4238C90.0574 19.6256 89.8525 19.9944 89.7012 20.5303C89.5562 21.0663 89.4837 22.1885 89.4837 23.8971V26.9991Z" fill="black"/>
<path d="M9.862 29C19.296 29 24.456 21.6895 24.456 15.3499C24.456 15.1422 24.456 14.9355 24.441 14.7298C25.4448 14.0506 26.3114 13.2097 27 12.2465C26.0639 12.6344 25.0708 12.8889 24.054 13.0013C25.1247 12.4017 25.9261 11.4587 26.309 10.3478C25.3022 10.9066 24.2006 11.3004 23.052 11.5122C22.2787 10.7431 21.2559 10.2338 20.1419 10.0631C19.0279 9.89251 17.8848 10.07 16.8895 10.5682C15.8943 11.0664 15.1023 11.8575 14.6362 12.8191C14.1701 13.7807 14.0558 14.8592 14.311 15.8877C12.2718 15.7921 10.2768 15.2964 8.45564 14.4329C6.63448 13.5693 5.02784 12.3572 3.74 10.8753C3.08409 11.9314 2.8832 13.1817 3.17823 14.3715C3.47326 15.5613 4.24202 16.6012 5.328 17.2794C4.51174 17.2568 3.71328 17.0509 3 16.679C3 16.6986 3 16.7192 3 16.7398C3.00032 17.8474 3.41026 18.9208 4.16028 19.778C4.9103 20.6351 5.95423 21.2233 7.115 21.4426C6.35987 21.6352 5.56758 21.6634 4.799 21.5249C5.12676 22.4781 5.76486 23.3117 6.62407 23.9091C7.48328 24.5065 8.52061 24.8377 9.591 24.8565C7.77474 26.1916 5.53106 26.9164 3.221 26.9142C2.8129 26.9135 2.4052 26.8904 2 26.845C4.34564 28.2529 7.07491 28.9997 9.862 28.9963" fill="#1DA1F2"/>
</svg>
