<svg width="134" height="40" viewBox="0 0 134 40" fill="none" xmlns="http://www.w3.org/2000/svg">
<path fill-rule="evenodd" clip-rule="evenodd" d="M35.1739 11.422C35.4242 10.6023 35.1739 10 33.9829 10H30.0445C29.0431 10 28.5814 10.5203 28.331 11.094C28.331 11.094 26.3282 15.8891 23.491 19.0038C22.573 19.9054 22.1557 20.1923 21.655 20.1923C21.4047 20.1923 21.0423 19.9054 21.0423 19.0858V11.422C21.0423 10.4384 20.7517 10 19.9171 10H13.7282C13.1024 10 12.7261 10.4565 12.7261 10.8892C12.7261 11.8216 14.1446 12.0367 14.2909 14.6596V20.3563C14.2909 21.6053 14.0612 21.8317 13.5605 21.8317C12.2254 21.8317 8.97759 17.0152 7.05139 11.5039C6.6739 10.4327 6.29527 10 5.28874 10H1.35032C0.225064 10 0 10.5203 0 11.094C0 12.1187 1.33521 17.2006 6.21695 23.9218C9.47142 28.5119 14.0568 31 18.2292 31C20.7327 31 21.0424 30.4474 21.0424 29.4955V26.0263C21.0424 24.9211 21.2795 24.7005 22.0723 24.7005C22.6564 24.7005 23.6579 24.9874 25.9945 27.2005C28.6648 29.8233 29.1051 31 30.6071 31H34.5456C35.6708 31 36.2334 30.4474 35.9088 29.3568C35.5537 28.2699 34.2787 26.6929 32.587 24.8234C31.669 23.7579 30.2921 22.6104 29.8748 22.0365C29.2907 21.2989 29.4576 20.971 29.8748 20.3153C29.8748 20.3153 34.6732 13.676 35.1739 11.422Z" fill="#5181B8"/>
<path d="M48.8895 15H52L48.6291 26H45.3568L42 15H45.1246L46.525 20.5753C46.8159 21.8142 46.9754 22.6769 47.0035 23.1635C47.0363 22.8124 47.102 22.3734 47.2006 21.8468C47.2991 21.3201 47.3859 20.9063 47.4609 20.6054L48.8895 15Z" fill="#5181B8"/>
<path d="M62.9367 26H59.3884L57.0892 21.7941L56.1582 22.3208V26H53V15H56.1582V19.7777C56.3176 19.4818 56.6387 19.0128 57.1208 18.3707L59.5633 15H63L59.3326 19.9282L62.9367 26Z" fill="#5181B8"/>
<path d="M73 20.4963C73 22.2944 72.6182 23.6611 71.8547 24.5967C71.0907 25.5322 69.9724 26 68.4998 26C67.0482 26 65.9345 25.5298 65.1581 24.5894C64.3859 23.6489 64 22.2797 64 20.4817C64 18.7032 64.3836 17.3462 65.1517 16.4106C65.924 15.4702 67.0441 15 68.5126 15C69.9852 15 71.1012 15.4653 71.8606 16.396C72.6205 17.3267 73 18.6935 73 20.4963ZM66.633 20.4963C66.633 22.5623 67.2551 23.5953 68.4998 23.5953C69.1328 23.5953 69.6011 23.3444 69.9051 22.8425C70.2132 22.3407 70.367 21.5586 70.367 20.4963C70.367 19.4292 70.2109 18.6423 69.8987 18.1355C69.5906 17.6239 69.1287 17.3681 68.5126 17.3681C67.2592 17.3681 66.633 18.4108 66.633 20.4963Z" fill="#5181B8"/>
<path d="M86 26H82.2789L78.443 18.2503H78.378C78.469 19.4692 78.5147 20.3997 78.5147 21.0417V26H76V15H79.7071L83.529 22.6443H83.5721C83.5051 21.5358 83.4713 20.6455 83.4713 19.9733V15H86V26Z" fill="#5181B8"/>
<path d="M92.4298 26H89.5775V17.4302H87V15H95V17.4302H92.4298V26Z" fill="#5181B8"/>
<path d="M103.804 26L103.272 23.9469H99.7578L99.2105 26H96L99.5288 15H103.427L107 26H103.804ZM102.665 21.5191L102.199 19.7207C102.09 19.3211 101.957 18.804 101.799 18.1696C101.647 17.5352 101.546 17.0806 101.496 16.8059C101.452 17.0606 101.363 17.4802 101.23 18.0647C101.102 18.6492 100.813 19.8006 100.364 21.5191H102.665Z" fill="#5181B8"/>
<path d="M116.943 26H113.75L111.68 21.7941L110.842 22.3208V26H108V15H110.842V19.7777C110.986 19.4818 111.274 19.0128 111.709 18.3707L113.907 15H117L113.699 19.9282L116.943 26Z" fill="#5181B8"/>
<path d="M123.429 26H120.578V17.4302H118V15H126V17.4302H123.429V26Z" fill="#5181B8"/>
<path d="M134 26H128V15H134V17.3851H130.731V19.1156H133.758V21.5007H130.731V23.5773H134V26Z" fill="#5181B8"/>
</svg>
