<svg width="128" height="40" viewBox="0 0 128 40" fill="none" xmlns="http://www.w3.org/2000/svg">
<path d="M72.771 16.6875H67.5808V17.2419C69.2057 17.2419 69.4675 17.5885 69.4675 19.6522V23.3639C69.4675 25.42 69.2057 25.7973 67.5808 25.7973C66.3333 25.6202 65.4939 24.958 64.3312 23.6797L62.9989 22.232C64.7932 21.9162 65.7558 20.7842 65.7558 19.5059C65.7558 17.9119 64.3928 16.6952 61.8438 16.6952H56.7383V17.2496C58.3632 17.2496 58.625 17.5962 58.625 19.6599V23.3716C58.625 25.4277 58.3632 25.805 56.7383 25.805V26.3595H62.5138V25.805C60.889 25.805 60.6271 25.4277 60.6271 23.3716V22.3244H61.12L64.3389 26.3518H72.771C76.9217 26.3518 78.7159 24.1494 78.7159 21.5081C78.7159 18.8668 76.914 16.6875 72.771 16.6875ZM60.6194 21.4157V17.5577H61.8053C63.1067 17.5577 63.692 18.4586 63.692 19.4982C63.692 20.5147 63.1144 21.4157 61.8053 21.4157H60.6194ZM72.8558 25.4431H72.6555C71.6083 25.4431 71.4696 25.1813 71.4696 23.8491V17.5577C71.4696 17.5577 72.7479 17.5577 72.8635 17.5577C75.8821 17.5577 76.4289 19.76 76.4289 21.4696C76.4211 23.2407 75.8744 25.4431 72.8558 25.4431Z" fill="#32373C"/>
<path d="M40.5748 22.4869L42.5769 16.5728C43.1545 14.8633 42.8927 14.3704 41.0368 14.3704V13.7929H46.4889V14.3704C44.6638 14.3704 44.2249 14.8017 43.501 16.9193L40.1974 26.8378H39.8201L36.8631 17.7587L33.8444 26.8378H33.4671L30.2482 16.9193C29.5551 14.8017 29.0854 14.3704 27.4067 14.3704V13.7929H33.8444V14.3704C32.1349 14.3704 31.6651 14.7786 32.2812 16.5728L34.2217 22.4869L37.148 13.7852H37.7024L40.5748 22.4869Z" fill="#32373C"/>
<path d="M50.4392 26.7217C47.2511 26.7217 44.6406 24.373 44.6406 21.5007C44.6406 18.6592 47.2511 16.3105 50.4392 16.3105C53.6273 16.3105 56.2378 18.6592 56.2378 21.5007C56.2378 24.373 53.6273 26.7217 50.4392 26.7217ZM50.4392 17.2114C47.7748 17.2114 46.843 19.6217 46.843 21.5007C46.843 23.4182 47.7748 25.7899 50.4392 25.7899C53.1344 25.7899 54.0662 23.4105 54.0662 21.5007C54.0662 19.614 53.1344 17.2114 50.4392 17.2114Z" fill="#32373C"/>
<path d="M85.8776 25.7674V26.3449H79.2397V25.7674C81.1802 25.7674 81.5345 25.2745 81.5345 22.3714V17.7279C81.5345 14.8248 81.1879 14.3627 79.2397 14.3627V13.7852H85.2462C88.234 13.7852 89.8897 15.3253 89.8897 17.3814C89.8897 19.3835 88.234 20.9468 85.2462 20.9468H83.5905V22.3714C83.5905 25.2745 83.9371 25.7674 85.8776 25.7674ZM85.2385 14.8325H83.5828V19.8764H85.2385C86.8633 19.8764 87.618 18.7444 87.618 17.3814C87.618 15.9953 86.8633 14.8325 85.2385 14.8325Z" fill="#32373C"/>
<path d="M109.803 23.6181L109.657 24.1417C109.395 25.0966 109.08 25.4431 107.016 25.4431H106.608C105.098 25.4431 104.837 25.0966 104.837 23.0328V21.7083C107.1 21.7083 107.27 21.9085 107.27 23.4178H107.824V19.0978H107.27C107.27 20.6071 107.093 20.8073 104.837 20.8073V17.5577H106.431C108.487 17.5577 108.81 17.9042 109.072 18.8591L109.218 19.4135H109.68L109.48 16.6875H100.955V17.2419C102.58 17.2419 102.842 17.5885 102.842 19.6522V23.3639C102.842 25.2506 102.619 25.7203 101.34 25.7896C100.124 25.6048 99.2843 24.9426 98.1447 23.6797L96.8124 22.232C98.6144 21.9162 99.5693 20.7842 99.5693 19.5059C99.5693 17.9119 98.2063 16.6952 95.6573 16.6952H90.5518V17.2496C92.1767 17.2496 92.4385 17.5962 92.4385 19.6599V23.3716C92.4385 25.4277 92.1767 25.805 90.5518 25.805V26.3595H96.3273V25.805C94.7025 25.805 94.4406 25.4277 94.4406 23.3716V22.3244H94.9335L98.1523 26.3518H110.073L110.25 23.6258H109.803V23.6181ZM94.433 21.4157V17.5577H95.6188C96.9202 17.5577 97.5055 18.4586 97.5055 19.4982C97.5055 20.5147 96.9279 21.4157 95.6188 21.4157H94.433Z" fill="#32373C"/>
<path d="M115.694 26.7216C114.532 26.7216 113.515 26.1133 113.084 25.7359C112.938 25.8822 112.676 26.3135 112.622 26.7216H112.067V22.7173H112.645C112.876 24.6347 114.208 25.759 115.925 25.759C116.857 25.759 117.604 25.2354 117.604 24.3652C117.604 23.6106 116.934 23.033 115.748 22.4786L114.093 21.6931C112.93 21.1387 112.06 20.1838 112.06 18.9055C112.06 17.5116 113.361 16.3258 115.163 16.3258C116.118 16.3258 116.934 16.6723 117.427 17.0804C117.573 16.9649 117.72 16.6415 117.804 16.2949H118.359V19.714H117.75C117.55 18.351 116.796 17.219 115.255 17.219C114.447 17.219 113.692 17.6811 113.692 18.4049C113.692 19.1596 114.301 19.5677 115.694 20.1992L117.288 20.9846C118.682 21.6546 119.229 22.725 119.229 23.5952C119.237 25.4433 117.635 26.7216 115.694 26.7216Z" fill="#32373C"/>
<path d="M124.465 26.7216C123.303 26.7216 122.286 26.1133 121.855 25.7359C121.709 25.8822 121.447 26.3135 121.393 26.7216H120.838V22.7173H121.416C121.647 24.6347 122.979 25.759 124.696 25.759C125.628 25.759 126.375 25.2354 126.375 24.3652C126.375 23.6106 125.705 23.033 124.519 22.4786L122.864 21.6931C121.701 21.1387 120.831 20.1838 120.831 18.9055C120.831 17.5116 122.132 16.3258 123.934 16.3258C124.889 16.3258 125.705 16.6723 126.198 17.0804C126.344 16.9649 126.491 16.6415 126.575 16.2949H127.13V19.714H126.522C126.321 18.351 125.567 17.219 124.026 17.219C123.218 17.219 122.463 17.6811 122.463 18.4049C122.463 19.1596 123.072 19.5677 124.465 20.1992L126.059 20.9846C127.453 21.6546 128 22.725 128 23.5952C128 25.4433 126.406 26.7216 124.465 26.7216Z" fill="#32373C"/>
<path d="M13.0526 7.78547C14.7082 7.78547 16.3177 8.10889 17.827 8.74804C18.5508 9.05607 19.2516 9.4334 19.9139 9.88004C20.5607 10.319 21.1768 10.8195 21.7312 11.3817C22.2856 11.9361 22.7939 12.5445 23.2328 13.199C23.6795 13.8536 24.0568 14.5543 24.3648 15.2859C25.004 16.7952 25.3274 18.4046 25.3274 20.0603C25.3274 21.7159 25.004 23.3254 24.3648 24.8347C24.0568 25.5585 23.6795 26.2593 23.2328 26.9216C22.7939 27.5684 22.2934 28.1845 21.7312 28.7389C21.1768 29.2933 20.5684 29.8016 19.9139 30.2405C19.2593 30.6872 18.5585 31.0645 17.827 31.3725C16.3177 32.0117 14.7082 32.3351 13.0526 32.3351C11.3969 32.3351 9.78751 32.0117 8.27819 31.3725C7.55433 31.0645 6.85357 30.6872 6.19131 30.2405C5.54446 29.8016 4.92841 29.301 4.37396 28.7389C3.81952 28.1845 3.31127 27.5761 2.87234 26.9216C2.4257 26.267 2.04837 25.5662 1.74034 24.8347C1.10119 23.3254 0.777764 21.7159 0.777764 20.0603C0.777764 18.4046 1.10119 16.7952 1.74034 15.2859C2.04837 14.562 2.4257 13.8613 2.87234 13.199C3.31898 12.5445 3.81952 11.9284 4.37396 11.374C4.92841 10.8195 5.54446 10.319 6.19131 9.88004C6.84587 9.4334 7.54663 9.05607 8.27819 8.74804C9.78751 8.10889 11.3969 7.78547 13.0526 7.78547ZM13.0526 7C5.84478 7 0 12.8448 0 20.0526C0 27.2604 5.84478 33.1052 13.0526 33.1052C20.2604 33.1052 26.1052 27.2604 26.1052 20.0526C26.1052 12.8448 20.2604 7 13.0526 7Z" fill="#32373C"/>
<path d="M2.17139 20.0529C2.17139 24.3575 4.6741 28.0769 8.3011 29.8404L3.11857 15.625C2.51022 16.9803 2.17139 18.4742 2.17139 20.0529ZM20.3911 19.5061C20.3911 18.1585 19.906 17.2344 19.4978 16.5029C18.9434 15.6096 18.4274 14.8472 18.4274 13.954C18.4274 12.9529 19.1821 12.0211 20.2525 12.0211C20.2987 12.0211 20.3449 12.0288 20.3911 12.0288C18.4582 10.2577 15.8785 9.17188 13.0447 9.17188C9.24828 9.17188 5.8985 11.1201 3.95794 14.0772C4.21206 14.0849 4.45078 14.0926 4.6587 14.0926C5.79839 14.0926 7.55414 13.954 7.55414 13.954C8.13939 13.9232 8.20869 14.7779 7.62344 14.8472C7.62344 14.8472 7.03049 14.9166 6.37594 14.9474L10.3341 26.7293L12.7136 19.5908L11.0194 14.9474C10.4342 14.9166 9.87973 14.8472 9.87973 14.8472C9.29448 14.8164 9.36379 13.9155 9.94904 13.954C9.94904 13.954 11.7433 14.0926 12.8137 14.0926C13.9534 14.0926 15.7091 13.954 15.7091 13.954C16.2944 13.9232 16.3637 14.7779 15.7784 14.8472C15.7784 14.8472 15.1855 14.9166 14.5309 14.9474L18.4582 26.6369L19.5825 23.0792C20.0985 21.5314 20.3911 20.4302 20.3911 19.5061ZM13.2449 21.0001L9.97984 30.4872C10.9578 30.7722 11.982 30.9339 13.0524 30.9339C14.3153 30.9339 15.532 30.7183 16.664 30.3178C16.6332 30.2716 16.6101 30.2254 16.587 30.1715L13.2449 21.0001ZM22.5935 14.8318C22.6397 15.1784 22.6628 15.548 22.6628 15.9484C22.6628 17.0496 22.4549 18.2894 21.8388 19.845L18.5198 29.4477C21.7541 27.561 23.9257 24.0572 23.9257 20.0452C23.9257 18.1585 23.4482 16.3797 22.5935 14.8318Z" fill="#32373C"/>
</svg>
