<svg width="106" height="40" viewBox="0 0 106 40" fill="none" xmlns="http://www.w3.org/2000/svg">
<path d="M91.4201 9.49023C92.1288 9.60871 92.6022 10.0425 92.6022 10.7893C92.6022 11.0364 92.5003 11.3844 92.4322 11.6786C91.9574 13.7717 90.1031 21.1673 89.3224 26.1035L88.604 25.3852L90.8903 10.2018L91.4201 9.49023Z" fill="url(#paint0_linear)"/>
<path d="M45.2114 11.5C44.2544 11.7292 43.3148 11.7229 42.3911 11.5L43.8576 13.023L45.2114 11.5Z" fill="#6700E8"/>
<path d="M30.5498 11.5C31.5068 11.7292 32.4464 11.7229 33.3701 11.5L31.9036 13.023L30.5498 11.5Z" fill="#6700E8"/>
<path d="M22.2755 11.4961C24.4382 16.9695 27.8418 25.2542 29.5377 28.4202L27.0271 27.653L20.8149 12.1172L22.2755 11.4961Z" fill="url(#paint1_linear)"/>
<path d="M20.3057 11.4941C20.9964 11.7255 21.5693 11.7397 22.2724 11.4941L20.8746 12.3527L20.3057 11.4941Z" fill="#6700E8"/>
<path d="M21.2952 12.0918L27.6252 27.6165C27.2507 28.0221 27.0837 28.2349 26.7196 28.4246C24.8849 23.6992 22.9146 18.972 21.2454 14.3077L20.4214 12.9108L21.2952 12.0918Z" fill="url(#paint2_linear)"/>
<path d="M15.8565 28.4181L13.9878 27.7562L20.5678 12.3185L21.301 12.0918V14.3773C20.2779 17.3295 17.6814 23.8068 15.8564 28.4184L15.8565 28.4181Z" fill="url(#paint3_linear)"/>
<path d="M14.3028 9.24418L14.9232 10.6543L16.5026 9.92102L17.1449 9.24414C16.1289 9.47461 15.2125 9.48226 14.3027 9.24414L14.3028 9.24418Z" fill="#6700E8"/>
<path d="M9.84477 21.5405L8.77308 21.9353L8.09619 20.7508L14.8086 10.0338L15.2885 9.86945C15.9509 9.71977 16.6734 9.55924 17.144 9.24414C16.078 10.6841 12.1963 17.4152 9.8448 21.5409L9.84477 21.5405Z" fill="url(#paint4_linear)"/>
<path d="M8.38366 21.372L8.6657 21.0899L15.3061 9.86704L14.3063 9.24414C13.5046 10.7375 10.5477 15.5698 8.6657 18.6644L7.76318 20.3566L8.38366 21.372Z" fill="url(#paint5_linear)"/>
<path d="M3.02837 9.24414C4.50046 11.8531 6.7603 15.5028 8.66904 18.6644V21.0899L8.21779 21.5412L1.61816 9.8086L3.02837 9.24414Z" fill="url(#paint6_linear)"/>
<path d="M1.93664 9.95371L3.02445 9.24414C1.8572 9.49308 1.36894 9.50892 0.204102 9.24414L0.655359 9.7518L1.93664 9.95371Z" fill="#6700E8"/>
<path d="M8.66073 21.0915L8.15307 21.8248L7.47618 21.5428C6.21599 19.3646 2.51144 12.7296 0.199707 9.24609C0.668314 9.58566 1.30137 9.772 2.03261 9.89075L8.66073 21.0915Z" fill="url(#paint7_linear)"/>
<path d="M10.0203 30.6225L8.10254 29.72L8.27176 21.7103L8.66661 21.0898L9.85114 21.541L10.0203 30.6225Z" fill="url(#paint8_linear)"/>
<path d="M8.66093 30.002L7.30713 30.6225L7.47635 21.541L8.66089 21.0898L8.66093 30.002Z" fill="url(#paint9_linear)"/>
<path d="M13.0635 28.4237C15.4168 23.6267 18.0337 17.1943 20.305 11.4941L21.2989 12.0929L14.8743 27.809L13.5712 28.2541L13.0635 28.4237Z" fill="url(#paint10_linear)"/>
<path d="M27.5614 27.5877L29.5363 28.4194C28.7787 28.2284 27.7532 28.1552 26.7227 28.4243L27.1083 27.4746L27.5614 27.5877Z" fill="#200045"/>
<path d="M16.9019 22.8731L18.2904 22.2773C20.2905 22.3476 22.2905 22.3466 24.2906 22.2773L25.6991 22.8905L24.3879 23.1772H17.8964L16.9019 22.8731Z" fill="url(#paint11_linear)"/>
<path d="M17.8268 23.4601L16.8945 22.8743C19.824 22.8294 22.7579 22.8331 25.6967 22.8917L24.7644 23.4601C22.4518 23.3851 20.1394 23.3941 17.8268 23.4601Z" fill="#200045"/>
<path d="M33.3707 28.4238L31.3965 27.7469V12.5737L31.9605 12.2917L33.3706 11.502C33.078 17.1327 33.0716 22.773 33.3706 28.4242L33.3707 28.4238Z" fill="url(#paint12_linear)"/>
<path d="M31.9605 27.6325V28.0273L30.5503 28.4222C30.7745 22.7905 30.7959 17.1503 30.5503 11.5L31.9605 12.2897V27.6325Z" fill="url(#paint13_linear)"/>
<path d="M42.3907 28.4238L44.3649 27.7469V12.5737L43.8008 12.2917L42.3906 11.502C42.6832 17.1327 42.6896 22.773 42.3906 28.4242L42.3907 28.4238Z" fill="url(#paint14_linear)"/>
<path d="M31.9658 19.9269L33.1512 19.3984C36.3012 19.4778 39.455 19.4719 42.6112 19.3984L43.8003 19.9269L42.3295 20.2784H33.1409L31.9658 19.9269Z" fill="url(#paint15_linear)"/>
<path d="M55.1665 11.4941C49.6267 11.4941 46.8623 14.9576 46.8623 19.9938C46.8623 26.3015 51.0464 28.4866 55.0942 28.4866C59.9021 28.4866 63.3489 25.7813 63.3489 20.0098C63.3489 14.455 60.0863 11.4941 55.1664 11.4941H55.1665ZM55.0008 12.2979C55.0529 12.2968 55.1054 12.2979 55.1577 12.2979C58.8164 12.2979 61.5034 14.79 61.5034 19.9974C61.5034 25.1983 58.82 27.6899 55.1647 27.6899C51.1765 27.6899 48.833 24.832 48.833 20.0116C48.833 14.5598 51.7205 12.3651 55.0007 12.298L55.0008 12.2979Z" fill="url(#paint16_linear)"/>
<path d="M55.147 11.2734C49.1639 11.2734 46.0249 15.067 46.0249 19.9847C46.0249 25.3673 49.4517 28.6502 55.1382 28.6502C61.2859 28.6502 64.2884 24.9505 64.2884 20.0411C64.2884 14.5675 60.7027 11.2734 55.1471 11.2734H55.147ZM55.1646 11.8339C59.8886 11.8339 63.021 14.6758 63.021 20.0094C63.021 25.5512 59.7106 28.1496 55.0941 28.1496C51.2074 28.1496 47.1901 26.0518 47.1901 19.9953C47.1901 15.1596 49.8453 11.8339 55.1646 11.8339Z" fill="url(#paint17_linear)"/>
<path d="M75.8391 10.6289C70.2167 10.6289 66.3643 13.8075 66.3643 20.0029C66.3643 26.0805 69.9481 29.4758 75.8622 29.4758C80.3412 29.4758 85.2483 27.1754 85.2483 20.0898C85.2483 12.4422 79.8879 10.6298 75.8391 10.6298V10.6289ZM75.8092 11.3057C80.2835 11.3057 83.5792 14.0239 83.5792 20.0188C83.5792 26.5356 79.5925 28.6491 75.8162 28.6491C71.7815 28.6491 68.1061 26.2813 68.1061 19.8901C68.1061 13.2658 72.18 11.3057 75.8092 11.3057Z" fill="url(#paint18_linear)"/>
<path d="M75.802 10.2539C69.8437 10.2539 65.2896 13.6372 65.2896 19.9276C65.2896 25.1104 68.3191 29.6716 75.8521 29.6716C82.2293 29.6716 86.3932 26.1655 86.3932 20.0192C86.3932 14.223 82.5089 10.2539 75.803 10.2539H75.802ZM75.8391 10.885C79.7781 10.885 84.9928 12.6503 84.9928 20.0899C84.9928 26.9832 80.2174 29.2208 75.8602 29.2208C70.1073 29.2208 66.6218 25.9177 66.6218 20.0053C66.6218 13.9783 70.3696 10.885 75.8391 10.885Z" fill="url(#paint19_linear)"/>
<path d="M86.853 29.3908C86.853 28.663 87.2956 27.9863 88.1828 27.9863C89.0321 27.9863 89.6675 28.4941 89.6675 29.3054C89.6675 30.3161 88.9986 30.6886 88.3858 30.6886C87.5384 30.6886 86.853 30.2489 86.853 29.3908Z" fill="url(#paint20_radial)"/>
<path d="M88.27 25.9432C88.9577 21.0821 89.376 15.9735 89.7777 10.8791C89.7777 9.86387 90.4487 9.4668 91.1258 9.4668C91.2445 9.4668 91.4195 9.49152 91.4195 9.49152L91.2354 10.7092L88.8232 25.8085L88.27 25.9432Z" fill="url(#paint21_linear)"/>
<path d="M7.31065 30.6225L8.66694 29.6289L10.0181 30.6225C10.0181 30.6225 9.26909 30.4862 8.66685 30.4862C8.12348 30.4862 7.31055 30.6225 7.31055 30.6225H7.31065Z" fill="#200045"/>
<path d="M13.0635 28.4253L14.9555 27.6074C15.2442 27.9535 15.501 28.2467 15.8555 28.4203C15.1744 28.236 14.1433 28.1533 13.0638 28.4232L13.0635 28.4253Z" fill="#200045"/>
<path d="M30.5498 28.4225C31.4657 28.2018 32.4037 28.192 33.3666 28.4225L31.96 27.6328L30.5498 28.4225Z" fill="#200045"/>
<path d="M33.1518 20.5534L31.9639 19.9277C35.9096 19.9688 39.8553 19.9757 43.801 19.9277L42.6147 20.5497C39.4603 20.5073 36.306 20.5093 33.1519 20.5534H33.1518Z" fill="#200045"/>
<path d="M43.8013 27.6325V28.0273L45.2115 28.4222C44.9872 22.7905 44.9658 17.1503 45.2115 11.5L43.8013 12.2897V27.6325Z" fill="url(#paint22_linear)"/>
<path d="M45.2118 28.4225C44.2959 28.2018 43.3579 28.192 42.395 28.4225L43.8016 27.6328L45.2118 28.4225Z" fill="#200045"/>
<path d="M88.8916 25.373L88.2666 25.9432C88.6854 25.8695 89.0093 25.9788 89.324 26.1056L88.8916 25.373Z" fill="#200045"/>
<path d="M91.1934 11.9018C91.9526 11.9018 92.568 11.3642 92.568 10.7009C92.568 10.0377 91.9526 9.5 91.1934 9.5C90.4342 9.5 89.8188 10.0377 89.8188 10.7009C89.8188 11.3642 90.4342 11.9018 91.1934 11.9018Z" fill="url(#paint23_radial)"/>
<defs>
<linearGradient id="paint0_linear" x1="89.2015" y1="25.8406" x2="91.8639" y2="11.1579" gradientUnits="userSpaceOnUse">
<stop stop-color="#210045"/>
<stop offset="0.59416" stop-color="#430085"/>
<stop offset="1" stop-color="#5000B2"/>
</linearGradient>
<linearGradient id="paint1_linear" x1="21.376" y1="12.0733" x2="29.261" y2="28.1605" gradientUnits="userSpaceOnUse">
<stop stop-color="#5500BD"/>
<stop offset="1" stop-color="#5000AC"/>
</linearGradient>
<linearGradient id="paint2_linear" x1="25.3035" y1="24.8993" x2="26.3307" y2="24.5045" gradientUnits="userSpaceOnUse">
<stop stop-color="#2A005A"/>
<stop offset="1" stop-color="#210046"/>
</linearGradient>
<linearGradient id="paint3_linear" x1="15.8338" y1="28.4075" x2="21.2596" y2="14.3848" gradientUnits="userSpaceOnUse">
<stop stop-color="#21004E"/>
<stop offset="1" stop-color="#39007F"/>
</linearGradient>
<linearGradient id="paint4_linear" x1="10.9526" y1="17.1827" x2="12.0102" y2="17.8088" gradientUnits="userSpaceOnUse">
<stop stop-color="#1B0041"/>
<stop offset="1" stop-color="#21004F"/>
</linearGradient>
<linearGradient id="paint5_linear" x1="14.3219" y1="9.23475" x2="8.67283" y2="21.0463" gradientUnits="userSpaceOnUse">
<stop stop-color="#5500BD"/>
<stop offset="1" stop-color="#47008D"/>
</linearGradient>
<linearGradient id="paint6_linear" x1="3.02703" y1="9.34155" x2="8.64571" y2="21.0686" gradientUnits="userSpaceOnUse">
<stop stop-color="#5100B2"/>
<stop offset="1" stop-color="#5500BD"/>
</linearGradient>
<linearGradient id="paint7_linear" x1="6.34621" y1="19.5532" x2="7.36154" y2="18.8763" gradientUnits="userSpaceOnUse">
<stop stop-color="#27005D" stop-opacity="0.98039"/>
<stop offset="0.31767" stop-color="#2B005D"/>
<stop offset="0.59756" stop-color="#280055"/>
<stop offset="0.80878" stop-color="#24004D"/>
<stop offset="1" stop-color="#230049"/>
</linearGradient>
<linearGradient id="paint8_linear" x1="8.73052" y1="21.0468" x2="9.94834" y2="30.6416" gradientUnits="userSpaceOnUse">
<stop stop-color="#5500BD"/>
<stop offset="1" stop-color="#5300B5"/>
</linearGradient>
<linearGradient id="paint9_linear" x1="8.46111" y1="21.1372" x2="8.46111" y2="30.6248" gradientUnits="userSpaceOnUse">
<stop stop-color="#210045"/>
<stop offset="0.25" stop-color="#25004D"/>
<stop offset="0.5" stop-color="#2B005C"/>
<stop offset="0.74854" stop-color="#340071"/>
<stop offset="1" stop-color="#3E0088"/>
</linearGradient>
<linearGradient id="paint10_linear" x1="13.2167" y1="28.2619" x2="21.2918" y2="12.0957" gradientUnits="userSpaceOnUse">
<stop stop-color="#4D00A1"/>
<stop offset="1" stop-color="#5200B4"/>
</linearGradient>
<linearGradient id="paint11_linear" x1="16.9198" y1="22.8739" x2="25.6661" y2="22.8739" gradientUnits="userSpaceOnUse">
<stop stop-color="#6700E8"/>
<stop offset="0.50604" stop-color="#6700E8"/>
<stop offset="1" stop-color="#6700E8"/>
</linearGradient>
<linearGradient id="paint12_linear" x1="31.9408" y1="18.8477" x2="33.3616" y2="18.8477" gradientUnits="userSpaceOnUse">
<stop stop-color="#5A00C9"/>
<stop offset="1" stop-color="#4F00A8"/>
</linearGradient>
<linearGradient id="paint13_linear" x1="30.563" y1="11.7954" x2="31.9743" y2="11.7954" gradientUnits="userSpaceOnUse">
<stop stop-color="#390080"/>
<stop offset="0.5" stop-color="#31006E"/>
<stop offset="1" stop-color="#250056"/>
</linearGradient>
<linearGradient id="paint14_linear" x1="42.3649" y1="27.9235" x2="43.8259" y2="27.9235" gradientUnits="userSpaceOnUse">
<stop stop-color="#3F008B"/>
<stop offset="1" stop-color="#220050"/>
</linearGradient>
<linearGradient id="paint15_linear" x1="31.973" y1="19.8962" x2="43.797" y2="19.8962" gradientUnits="userSpaceOnUse">
<stop stop-color="#6700E8"/>
<stop offset="0.5" stop-color="#6700E8"/>
<stop offset="1" stop-color="#6700E8"/>
</linearGradient>
<linearGradient id="paint16_linear" x1="58.4251" y1="12.484" x2="49.3492" y2="25.8524" gradientUnits="userSpaceOnUse">
<stop stop-color="#1C0044"/>
<stop offset="0.10005" stop-color="#2F0065"/>
<stop offset="0.20479" stop-color="#34006D"/>
<stop offset="0.3" stop-color="#3B007A"/>
<stop offset="0.4" stop-color="#3C007A"/>
<stop offset="0.5" stop-color="#490096"/>
<stop offset="0.6" stop-color="#5000AB"/>
<stop offset="0.70026" stop-color="#5400BA"/>
<stop offset="0.80312" stop-color="#5500BC"/>
<stop offset="0.9" stop-color="#5700C2"/>
<stop offset="1" stop-color="#5C00CE"/>
</linearGradient>
<linearGradient id="paint17_linear" x1="48.8702" y1="26.7336" x2="60.2351" y2="12.5022" gradientUnits="userSpaceOnUse">
<stop stop-color="#1B0041"/>
<stop offset="0.10005" stop-color="#1B0041"/>
<stop offset="0.20479" stop-color="#1B0041"/>
<stop offset="0.3" stop-color="#240052"/>
<stop offset="0.4" stop-color="#32006A"/>
<stop offset="0.5" stop-color="#3D007D"/>
<stop offset="0.6" stop-color="#490098"/>
<stop offset="0.70026" stop-color="#4F00A8"/>
<stop offset="0.80312" stop-color="#5500BC"/>
<stop offset="0.9" stop-color="#5700C2"/>
<stop offset="1" stop-color="#6000DA"/>
</linearGradient>
<linearGradient id="paint18_linear" x1="78.0404" y1="11.0122" x2="69.5427" y2="27.06" gradientUnits="userSpaceOnUse">
<stop stop-color="#1E0046"/>
<stop offset="0.10005" stop-color="#2D0061"/>
<stop offset="0.20479" stop-color="#33006B"/>
<stop offset="0.3" stop-color="#400082"/>
<stop offset="0.4" stop-color="#490096"/>
<stop offset="0.5" stop-color="#5000AC"/>
<stop offset="0.6" stop-color="#5500BD"/>
<stop offset="0.70026" stop-color="#4F00A8"/>
<stop offset="0.80312" stop-color="#5500BC"/>
<stop offset="0.9" stop-color="#5700C2"/>
<stop offset="1" stop-color="#6000DA"/>
</linearGradient>
<linearGradient id="paint19_linear" x1="69.576" y1="28.1831" x2="80.3514" y2="11.0185" gradientUnits="userSpaceOnUse">
<stop stop-color="#1B0041"/>
<stop offset="0.10005" stop-color="#1B0041"/>
<stop offset="0.20479" stop-color="#1B0041"/>
<stop offset="0.3" stop-color="#240052"/>
<stop offset="0.4" stop-color="#32006A"/>
<stop offset="0.5" stop-color="#3D007D"/>
<stop offset="0.6" stop-color="#490098"/>
<stop offset="0.70026" stop-color="#4F00A8"/>
<stop offset="0.80312" stop-color="#5500BC"/>
<stop offset="0.9" stop-color="#5700C2"/>
<stop offset="1" stop-color="#6000DA"/>
</linearGradient>
<radialGradient id="paint20_radial" cx="0" cy="0" r="1" gradientUnits="userSpaceOnUse" gradientTransform="translate(88.399 28.5224) rotate(106.404) scale(1.79139 1.88148)">
<stop stop-color="#6000D8"/>
<stop offset="0.20886" stop-color="#5C00CD"/>
<stop offset="0.37415" stop-color="#5500BE"/>
<stop offset="0.721" stop-color="#2D0062"/>
<stop offset="1" stop-color="#210045"/>
</radialGradient>
<linearGradient id="paint21_linear" x1="88.2653" y1="25.8807" x2="90.3749" y2="11.2882" gradientUnits="userSpaceOnUse">
<stop stop-color="#47008D"/>
<stop offset="1" stop-color="#5100B3"/>
</linearGradient>
<linearGradient id="paint22_linear" x1="43.7928" y1="23.2347" x2="45.2052" y2="23.2347" gradientUnits="userSpaceOnUse">
<stop stop-color="#5500BD"/>
<stop offset="1" stop-color="#5200B2"/>
</linearGradient>
<radialGradient id="paint23_radial" cx="0" cy="0" r="1" gradientUnits="userSpaceOnUse" gradientTransform="translate(91.2888 10.2754) rotate(-169.85) scale(1.70787 1.22035)">
<stop stop-color="#6700E8"/>
<stop offset="0.39936" stop-color="#5C00CE"/>
<stop offset="0.70124" stop-color="#5600BF" stop-opacity="0.045045"/>
<stop offset="1" stop-color="#220047" stop-opacity="0"/>
</radialGradient>
</defs>
</svg>
