<svg width="150" height="108" viewBox="0 0 150 108" fill="none" xmlns="http://www.w3.org/2000/svg">
<circle cx="75" cy="99" r="7.5" fill="#CCE9FF" stroke="#333333"/>
<path d="M28.0651 57.4672C54.6416 38.0721 89.8226 39.5345 121.417 57.7813C124.021 59.2854 127.325 58.3511 128.797 55.7092C130.265 53.0725 129.36 49.7185 126.762 48.2175C92.5463 28.457 52.6476 25.9871 21.7554 48.5317C19.3288 50.3026 18.7755 53.7343 20.5105 56.1996C22.2493 58.6703 25.6329 59.2421 28.0651 57.4672Z" fill="#CCE9FF" stroke="#333333" stroke-linecap="round" stroke-linejoin="round"/>
<path d="M50.0995 82.3697C63.922 71.5145 82.3787 72.1397 99.3799 82.7058C101.919 84.2838 105.212 83.4352 106.734 80.8338C108.251 78.2408 107.447 74.8657 104.917 73.2935C85.2273 61.0564 61.8227 59.3208 43.6023 73.6296C41.2559 75.4723 40.8083 78.916 42.5905 81.3269C44.3793 83.7467 47.7439 84.2196 50.0995 82.3697Z" fill="#CCE9FF" stroke="#333333" stroke-linecap="round" stroke-linejoin="round"/>
<path d="M8.99937 30.4965C46.626 3.61559 96.2393 5.78973 140.479 30.8017C143.054 32.2576 146.33 31.364 147.797 28.8011C149.264 26.2365 148.361 22.9764 145.784 21.5196C98.9432 -4.96302 44.6464 -8.11608 2.73661 21.8248C0.328804 23.545 -0.221648 26.8821 1.51022 29.2774C3.24077 31.671 6.59335 32.2154 8.99937 30.4965Z" fill="#CCE9FF" stroke="#333333" stroke-linecap="round" stroke-linejoin="round"/>
<path d="M114.28 64.5H85.7219C81.6967 64.5 78.3997 67.7758 78.5023 71.8093V100.296C78.5023 104.216 81.687 107.5 85.7219 107.5H114.28C118.207 107.5 121.5 104.324 121.5 100.296V71.7042C121.5 67.7839 118.315 64.5 114.28 64.5Z" fill="#FEFEFE" stroke="#333333"/>
<path fill-rule="evenodd" clip-rule="evenodd" d="M92.2139 72.2246L100 80.0107L107.786 72.2246C108.086 71.9251 108.585 71.9251 108.984 72.2246L113.775 77.016C114.075 77.3155 114.075 77.8146 113.775 78.2139L105.989 86L113.775 93.7861C114.075 94.0856 114.075 94.5847 113.775 94.984L108.984 99.7754C108.684 100.075 108.185 100.075 107.786 99.7754L100 91.9893L92.2139 99.7754C91.9144 100.075 91.4153 100.075 91.016 99.7754L86.2246 94.984C85.9251 94.6845 85.9251 94.1854 86.2246 93.7861L94.0107 86L86.2246 78.2139C85.9251 77.9144 85.9251 77.4153 86.2246 77.016L91.016 72.2246C91.4153 71.9251 91.9144 71.9251 92.2139 72.2246Z" fill="url(#paint0_linear)"/>
<defs>
<linearGradient id="paint0_linear" x1="83.369" y1="67.619" x2="102.546" y2="88.7424" gradientUnits="userSpaceOnUse">
<stop stop-color="#FFC671"/>
<stop offset="1" stop-color="#FF6F3D"/>
</linearGradient>
</defs>
</svg>
