<svg width="24" height="24" viewBox="0 0 24 24" fill="none" xmlns="http://www.w3.org/2000/svg">
<path fill-rule="evenodd" clip-rule="evenodd" d="M22 24V20.0679C22 20.0679 15.3675 6.10521 15.2064 5.83268C14.681 4.94549 14.0379 4.34813 13.1038 4.07748V1.12301C13.1038 0.502931 12.6296 0 11.9934 0C11.3572 0 10.883 0.502931 10.883 1.12301V4.09161C10.5928 4.09161 10.0717 4.28097 9.81625 4.42488C7.92836 5.48679 7.32941 8.13156 8.41893 9.96958C8.59435 10.2216 9.62992 11.4669 9.62992 11.4669L18.4655 21.4913L22 24ZM6.91661 9.25358L2 20.0011V24L5.03377 21.474L10.9207 15.0692C10.9207 15.0692 7.50801 10.8696 7.40958 10.7045C7.23498 10.4091 6.91661 9.25358 6.91661 9.25358ZM13.5479 7.85304C13.5479 6.94909 12.8021 6.21645 11.8824 6.21645C10.9626 6.21645 10.2168 6.94863 10.2168 7.85258C10.2168 8.75653 10.9626 9.48917 11.8824 9.48917C12.8021 9.48917 13.5479 8.75699 13.5479 7.85304Z" fill="#7A95B0"/>
</svg>
