<svg width="20" height="20" viewBox="0 0 20 20" fill="none" xmlns="http://www.w3.org/2000/svg">
<path fill-rule="evenodd" clip-rule="evenodd" d="M8 2C8 0.895431 8.89543 0 10 0C11.1046 0 12 0.895431 12 2V3.53573C12.2962 3.70691 12.5751 3.91918 12.8284 4.17255C13.8353 5.17942 18.1387 13.3556 18.8884 14.7869C18.9631 14.9295 19 15.0844 19 15.2453V18.9286C19 19.3532 18.5095 19.5886 18.1845 19.3153C15.7242 17.246 8.46484 11.1227 7.17157 9.8294C5.60948 8.26731 5.60948 5.73465 7.17157 4.17255C7.42494 3.91918 7.70385 3.70691 8 3.53573V2ZM10 9C11.1046 9 12 8.10457 12 7C12 5.89543 11.1046 5 10 5C8.89543 5 8 5.89543 8 7C8 8.10457 8.89543 9 10 9ZM1.1116 14.7871C1.58371 13.8857 3.46522 10.3094 5.0452 7.5332C5.1425 8.60756 5.60237 9.65527 6.4248 10.4777C6.87164 10.9245 7.91484 11.8542 9.24309 13.0097C6.61242 15.2743 3.31849 18.0513 1.81549 19.3154C1.49052 19.5887 1 19.3534 1 18.9287V15.2455C1 15.0846 1.03694 14.9296 1.1116 14.7871Z" fill="#7A95B0"/>
</svg>
